,start,pitch,step,velocity,duration
0,0.00181080625,27,0.0,90,2.17115669375
1,2.1729675,30,2.17115669375,79,0.4079415000000002
2,2.580909,35,0.4079415000000002,83,0.38961049999999986
3,2.9705195,37,0.38961049999999986,76,0.4054055000000001
4,3.375925,39,0.4054055000000001,83,0.3870969999999998
5,3.763022,35,0.3870969999999998,75,0.39130816666666624
6,4.154330166666666,42,0.39130816666666624,76,0.38216550000000016
7,4.536495666666666,49,0.38216550000000016,72,0.3846154999999998
8,4.921111166666666,51,0.3846154999999998,73,0.3921570000000001
9,5.313268166666666,47,0.3921570000000001,68,0.40000000000000036
10,5.7132681666666665,54,0.40000000000000036,76,0.39735100000000045
11,6.110619166666667,61,0.39735100000000045,68,0.3885525833333334
12,6.49917175,63,0.3885525833333334,69,0.41562750000000026
13,6.914799250000001,58,0.41562750000000026,58,0.43478249999999985
14,7.3495817500000005,61,0.43478249999999985,59,0.4411765000000001
15,7.7907582500000006,59,0.4411765000000001,53,0.516321333333333
16,8.307079583333334,58,0.516321333333333,49,1.1111109999999993
17,9.418190583333333,57,1.1111109999999993,44,0.5714284999999997
18,11.132476083333334,57,1.7142855000000008,40,0.43750900000000037
19,11.569985083333334,58,0.43750900000000037,44,0.4208754999999993
20,11.990860583333333,57,0.4208754999999993,41,0.40540550000000053
21,12.396266083333334,56,0.40540550000000053,44,0.4254079999999991
22,12.821674083333333,57,0.4254079999999991,41,0.47938416666666583
23,13.301058249999999,60,0.47938416666666583,45,0.29850733333333324
24,13.599565583333332,58,0.29850733333333324,41,0.3125
25,13.912065583333332,54,0.3125,44,0.3125
26,14.224565583333332,54,0.3125,43,0.7512474166666667
27,14.975812999999999,53,0.7512474166666667,39,0.2702702499999994
28,15.246083249999998,56,0.2702702499999994,40,0.35398233333333273
29,15.60006558333333,54,0.35398233333333273,39,0.3883496666666666
30,15.988415249999997,53,0.3883496666666666,33,0.3999998999999992
31,16.432859583333332,53,0.444444333333335,31,1.0230180000000004
32,20.524931583333334,51,4.092072000000002,43,1.9475794999999962
33,22.05945858333333,46,1.534526999999997,46,0.41305249999999916
34,22.47251108333333,29,0.41305249999999916,44,3.4985581249999953
35,22.655199708333328,34,0.18268862499999727,48,3.315869499999998
36,22.879384458333327,49,0.22418474999999916,62,6.268944249999997
37,28.187544208333325,17,5.308159749999998,46,0.3333334999999984
38,28.520877708333323,39,0.3333334999999984,48,1.4823165000000031
39,28.854211208333325,41,0.33333350000000195,44,1.1489830000000012
40,29.148328708333324,45,0.2941174999999987,44,0.29411750000000225
41,29.442446208333326,49,0.29411750000000225,49,0.28037399999999835
42,29.722820208333324,48,0.28037399999999835,47,0.2803740000000019
43,30.003194208333326,46,0.2803740000000019,44,1.6155930000000005
44,30.538908208333325,41,0.5357139999999987,33,0.5163042187500011
45,31.060647208333325,41,0.5217390000000002,33,0.5523260416666673
46,31.618787208333327,53,0.5581400000000016,47,1.5859229999999975
47,32.145103208333325,46,0.5263159999999978,33,0.5254420312500017
48,32.67607620833333,46,0.530973000000003,33,0.5231273958333347
49,33.204710208333324,51,0.5286339999999967,47,1.6077270000000041
50,33.75516920833333,46,0.5504590000000036,28,0.5231273958333347
51,34.283803208333325,46,0.5286339999999967,28,0.5231273958333347
52,35.10229220833333,39,0.8184890000000067,48,1.4193229999999915
53,35.39214720833333,17,0.28985499999999575,46,1.1294679999999957
54,35.67650720833333,45,0.2843599999999995,44,0.2843599999999995
55,35.960867208333326,49,0.2843599999999995,49,0.2803740000000019
56,36.24124120833333,48,0.2803740000000019,47,0.2803739999999948
57,36.52161520833332,46,0.2803739999999948,44,1.6040149999999969
58,37.05024920833332,41,0.5286339999999967,33,0.511853072916665
59,37.56749020833332,41,0.5172409999999985,33,0.5523260416666673
60,38.12563020833332,43,0.5581400000000016,44,1.6234561666666707
61,38.65660320833332,40,0.530973000000003,33,0.5287876145833295
62,39.19094637499999,40,0.534343166666666,33,0.5523260416666673
63,39.74908637499999,45,0.5581400000000016,44,1.6893859166666658
64,40.32324937499999,41,0.5741629999999986,28,0.5512689583333312
65,40.880332291666654,41,0.5570829166666655,28,0.5523260416666673
66,41.72832729166666,39,0.8479950000000045,48,1.4193229999999915
67,42.018182291666655,29,0.28985499999999575,46,1.1294679999999957
68,42.302542291666654,45,0.2843599999999995,44,0.2843599999999995
69,42.586902291666654,49,0.2843599999999995,49,0.5549068750000004
70,42.867276291666656,48,0.2803740000000019,47,0.2803739999999948
71,43.14765029166665,46,0.2803739999999948,44,1.6299109999999999
72,43.69310529166665,41,0.5454549999999969,33,0.5208335416666685
73,44.21942129166665,41,0.5263160000000013,33,0.5523260416666673
74,44.77756129166665,58,0.5581400000000016,53,1.5753380000000021
75,45.30853429166665,52,0.530973000000003,33,0.4961563020833353
76,45.80991329166665,52,0.501379,33,0.5373298958333308
77,46.35289929166665,56,0.5429859999999991,50,1.5542692499999973
78,46.88153329166665,51,0.5286339999999967,34,0.49950546875000157
79,47.38628954166665,51,0.5047562499999998,35,0.5154531770833302
80,47.90716854166665,42,0.5208790000000008,48,1.7091779999999943
81,48.19702354166665,44,0.28985500000000286,48,0.28985499999999575
82,48.48687854166665,20,0.28985499999999575,46,1.1294679999999957
83,48.77123854166665,54,0.2843599999999995,46,0.2843599999999995
84,49.05559854166665,53,0.2843599999999995,51,0.5549068750000004
85,49.47615954166665,52,0.4205609999999993,49,0.12850474999999761
86,49.616346541666644,52,0.1401869999999974,46,1.618749000000001
87,50.16180154166664,48,0.5454549999999969,28,0.5097878125000008
88,50.67695554166664,48,0.5151540000000026,28,0.5523260416666673
89,51.235095541666645,53,0.5581400000000016,46,1.6103909999999928
90,51.78055054166664,49,0.5454549999999969,28,0.5140697395833342
91,52.30003154166664,49,0.519480999999999,28,0.5397731770833332
92,52.84548654166664,51,0.5454549999999969,47,1.6490500000000026
93,53.40362654166664,46,0.5581400000000016,33,0.5397731770833332
94,53.94908154166664,46,0.5454549999999969,34,0.5397731770833332
95,54.78439154166664,39,0.8353100000000069,48,1.4193229999999915
96,55.07424654166664,17,0.28985499999999575,46,1.1294679999999957
97,55.35860654166664,45,0.2843599999999995,44,0.2843599999999995
98,55.64296654166664,49,0.2843599999999995,49,0.5549068750000004
99,55.92334054166664,48,0.2803740000000019,47,0.2803739999999948
100,56.203714541666635,46,0.2803739999999948,44,1.620835999999997
101,56.74916954166663,41,0.5454549999999969,33,0.511853072916665
102,57.26641054166663,41,0.5172409999999985,33,0.5523260416666673
103,57.82455054166663,53,0.5581400000000016,47,1.6059309999999911
104,58.37000554166663,46,0.5454549999999969,33,0.5096561979166694
105,58.885026541666626,46,0.5150209999999973,33,0.5397731770833332
106,59.43048154166662,51,0.5454549999999969,47,1.6220789999999994
107,59.98094054166663,46,0.5504590000000036,28,0.5231273958333347
108,60.50957454166662,46,0.5286339999999967,28,0.5373298958333308
109,61.342415541666625,39,0.8328410000000019,48,1.4193229999999915
110,61.63227054166662,17,0.28985499999999575,46,1.1294679999999957
111,61.91663054166662,45,0.2843599999999995,44,0.2843599999999995
112,62.20099054166662,49,0.2843599999999995,49,0.5549068750000004
113,62.48136454166662,48,0.2803740000000019,47,0.2803739999999948
114,62.76173854166662,46,0.2803739999999948,44,1.6248059999999924
115,63.295071541666616,41,0.533332999999999,33,0.5277774479166695
116,63.828404541666615,41,0.533332999999999,33,0.5523260416666602
117,64.38654454166661,43,0.5581399999999945,44,1.6291140000000013
118,64.93199954166661,40,0.545455000000004,28,0.530133645833331
119,65.46771354166661,40,0.5357139999999987,28,0.5422372395833293
120,66.01565854166661,45,0.5479449999999986,44,1.6490499999999884
121,66.5737985416666,41,0.5581399999999945,23,0.5397731770833332
122,67.11925354166661,41,0.545455000000004,23,0.5397731770833332
123,67.9545635416666,39,0.8353099999999927,48,1.4193230000000057
124,68.2444185416666,29,0.28985500000000286,46,1.1294680000000028
125,68.52877854166661,45,0.2843600000000066,44,0.2843599999999924
126,68.8131385416666,49,0.2843599999999924,49,0.5549068750000004
127,69.0935125416666,48,0.2803739999999948,47,0.280374000000009
128,69.37388654166661,46,0.280374000000009,44,1.6322289999999953
129,69.91934154166661,44,0.545455000000004,33,0.5231273958333276
130,70.44797554166661,44,0.5286339999999967,33,0.5523260416666602
131,71.0061155416666,58,0.5581399999999945,58,1.5708510000000047
132,71.5515705416666,53,0.545455000000004,36,0.4961563020833353
133,72.0529495416666,53,0.501379,37,0.5185584895833273
134,72.57696654166661,58,0.5240170000000006,62,1.509636999999998
135,73.0942075416666,54,0.5172409999999985,39,0.9923959999999994
136,73.5825285416666,34,0.4883209999999991,43,0.49882421875000205
137,74.0866035416666,53,0.5040750000000003,66,1.4852122500000036
138,74.5819497916666,46,0.4953462499999972,41,0.9898660000000064
139,75.06774079166661,34,0.4857910000000061,44,0.49882421875000205
140,75.57181579166661,51,0.5040750000000003,58,1.492808249999996
141,76.0705277916666,46,0.4987119999999976,41,0.9940962499999983
142,76.55631879166661,34,0.4857910000000061,43,0.5030260833333244
143,77.0646240416666,46,0.5083052499999923,62,1.4978080000000062
144,77.5752620416666,41,0.5106380000000001,37,0.9871700000000061
145,78.06105304166661,41,0.4857910000000061,36,0.4961563020833353
146,78.56243204166661,58,0.501379,62,1.424233000000001
147,78.80436754166661,27,0.24193549999999675,42,0.24193549999999675
148,79.0463030416666,29,0.24193549999999675,42,0.46030666666666775
149,79.2788790416666,27,0.23257599999999456,42,0.23257600000000878
150,79.51145504166661,34,0.23257600000000878,51,0.47521000000000413
151,79.98666504166661,53,0.47521000000000413,59,1.4279303333333218
152,80.22958004166661,29,0.24291499999999644,43,0.24291499999999644
153,80.4724950416666,30,0.24291499999999644,47,0.45975728124999193
154,80.7041195416666,29,0.23162449999999524,42,0.23314883333333114
155,80.93726837499993,34,0.23314883333333114,52,0.4773270000000025
156,81.41459537499993,51,0.4773270000000025,64,1.4338188333333335
157,81.64782237499993,30,0.2332269999999994,48,0.2332269999999994
158,81.88104937499993,32,0.2332269999999994,48,0.45258791666667264
159,82.10972537499993,30,0.228675999999993,48,0.2286760000000072
160,82.33840137499993,34,0.2286760000000072,54,0.5047669062499978
161,82.72134762499994,30,0.3829462500000034,36,0.004254958333334002
162,82.76389720833326,31,0.04254958333332581,36,0.042549583333340024
163,82.8064467916666,32,0.042549583333340024,35,0.04196741666666526
164,82.84841420833327,46,0.04196741666666526,62,1.4792887500000234
165,82.9112689166666,32,0.06285470833333306,36,0.062470791666669356
166,82.97373970833327,31,0.062470791666669356,36,0.06200254166667207
167,83.03574224999994,32,0.06200254166667207,37,0.06163229166666895
168,83.09737454166661,31,0.06163229166666895,37,0.06116983333333792
169,83.15854437499995,32,0.06116983333333792,38,0.06080941666667172
170,83.21935379166662,31,0.06080941666667172,38,0.060367291666665324
171,83.27972108333329,32,0.060367291666665324,39,0.060013041666650224
172,83.33973412499994,31,0.060013041666650224,39,0.4762355729166785
173,83.39965737499995,32,0.05992325000001131,39,0.0599232499999971
174,83.45958062499994,31,0.0599232499999971,40,0.0599232499999971
175,83.51950387499994,32,0.0599232499999971,40,0.0599232499999971
176,83.57942712499994,31,0.0599232499999971,42,0.060013041666678646
177,83.63944016666662,32,0.060013041666678646,42,0.06019262499999911
178,83.69963279166662,31,0.06019262499999911,43,0.061007500000002324
179,83.76064029166662,32,0.061007500000002324,43,0.06036729166665111
180,83.82100758333327,31,0.06036729166665111,44,0.5012501770833495
181,83.88208774999994,32,0.061080166666670266,44,0.0616297500000087
182,83.94371749999995,31,0.0616297500000087,46,0.062284875000003126
183,84.00600237499995,32,0.062284875000003126,46,0.06285470833333306
184,84.06885708333328,31,0.06285470833333306,47,0.06362970833333748
185,84.13248679166662,30,0.06362970833333748,47,0.09720260416666804
186,84.22968939583329,31,0.09720260416666804,48,0.09801356250000026
187,84.32770295833329,44,0.09801356250000026,57,1.9288880000000006
188,84.81353295833328,41,0.4858299999999929,42,0.464265989583339
189,85.28268595833329,41,0.4691530000000057,42,0.48936776041666974
190,85.77720495833329,53,0.4945189999999968,60,1.8198367500000074
191,86.25659095833329,31,0.4793860000000052,46,0.4691530000000057
192,86.7257439583333,32,0.4691530000000057,46,0.4691529999999915
193,87.19489695833329,33,0.4691529999999915,51,1.8039139999999918
194,87.5970417083333,53,0.40214475000000505,55,0.05744924999999057
195,87.65449095833328,51,0.05744924999999057,62,0.43811599999999373
196,88.09260695833328,50,0.43811599999999373,58,0.4443459999999959
197,88.53695295833327,51,0.4443459999999959,65,0.46185800000000654
198,88.99881095833328,53,0.46185800000000654,64,0.47673550000000375
199,89.47554645833328,54,0.47673550000000375,66,0.48363700000000165
200,89.95918345833329,54,0.48363700000000165,71,2.8463580000000093
201,90.44282045833329,49,0.48363700000000165,49,0.46714400000000467
202,90.90996445833329,42,0.46714400000000467,49,0.4780879999999996
203,91.38805245833329,53,0.4780879999999996,56,1.4174890000000033
204,91.85497845833329,49,0.46692600000000084,43,0.46692600000000084
205,92.3219044583333,49,0.46692600000000084,43,0.48363700000000165
206,92.8055414583333,45,0.48363700000000165,51,2.7823099999999954
207,93.2136887083333,49,0.40814724999999896,50,0.05830674999999985
208,93.2719954583333,48,0.05830674999999985,57,0.4464619999999968
209,93.71845745833329,47,0.4464619999999968,54,0.4573520000000002
210,94.17580945833329,48,0.4573520000000002,57,0.4664539999999988
211,94.64226345833329,49,0.4664539999999988,56,0.4555119999999988
212,95.09777545833329,51,0.4555119999999988,58,0.49007600000000195
213,95.58785145833329,51,0.49007600000000195,67,2.8343210000000028
214,96.07792745833329,46,0.49007600000000195,49,0.46515200000000334
215,96.5430794583333,46,0.46515200000000334,49,0.46515200000000334
216,97.0082314583333,49,0.46515200000000334,51,1.4139409999999941
217,97.47338345833329,46,0.46515199999998913,43,0.46515200000000334
218,97.93853545833329,37,0.46515200000000334,43,0.48363700000000165
219,98.42217245833329,48,0.48363700000000165,56,1.4222821666666619
220,98.9058094583333,46,0.48363700000000165,50,0.4691530000000057
221,99.3749624583333,42,0.4691530000000057,50,0.4694921666666545
222,99.84445462499995,48,0.4694921666666545,51,1.5715387500000162
223,100.32816787499996,45,0.4837132500000081,42,0.506015000000005
224,100.83418287499997,41,0.506015000000005,42,0.5818105000000031
225,101.09432837499996,48,0.26014549999999304,51,0.19747225000000412
226,101.29180062499996,36,0.19747225000000412,51,0.5966337500000094
227,101.35389699999996,43,0.062096374999995874,51,0.5345373750000135
228,101.41599337499997,48,0.062096375000010084,51,2.362205000000003
229,101.88843437499997,43,0.47244100000000344,36,0.4675197395833237
230,102.36087537499998,43,0.47244100000000344,34,0.4675197395833237
231,102.83331637499997,43,0.47244099999998923,34,0.4675197395833379
232,103.30575737499997,43,0.47244100000000344,34,0.4675197395833379
233,103.77819837499997,48,0.47244100000000344,66,0.6040200000000056
234,104.25063937499998,27,0.47244100000000344,42,0.5263159999999942
235,104.38221837499998,49,0.1315790000000021,56,0.1315790000000021
236,104.51379737499998,48,0.1315790000000021,56,0.1315790000000021
237,104.64537637499998,47,0.1315790000000021,57,0.1315789999999879
238,104.77695537499997,48,0.1315789999999879,58,0.4937757812499939
239,104.90195537499997,58,0.125,60,0.125
240,105.02695537499997,55,0.125,61,0.12448125000000232
241,105.15143662499997,56,0.12448125000000232,62,0.12448125000000232
242,105.27591787499998,56,0.12448125000000232,63,0.48970346874999393
243,105.39988487499997,70,0.12396699999999328,64,0.12396700000000749
244,105.52385187499998,68,0.12396700000000749,66,0.12345675000000256
245,105.64730862499998,67,0.12345675000000256,66,0.12345675000000256
246,105.77076537499998,66,0.12345675000000256,67,0.4855522812500084
247,105.85273254166665,63,0.08196716666667214,58,0.08196716666665793
248,105.93469970833331,60,0.08196716666665793,58,0.08196716666667214
249,106.01666687499998,61,0.08196716666667214,62,0.08163266666666402
250,106.09829954166665,65,0.08163266666666402,58,0.08163266666666402
251,106.17993220833331,63,0.08163266666666402,58,0.08146675000000414
252,106.26139895833332,61,0.08146675000000414,66,0.5027920833333752
253,106.34303162499998,58,0.08163266666666402,58,0.08196716666667214
254,106.42499879166665,56,0.08196716666667214,58,0.08247458333332247
255,106.50747337499998,53,0.08247458333332247,62,0.08281608333334134
256,106.59028945833332,54,0.08281608333334134,58,0.08634659166666836
257,106.67663604999998,55,0.08634659166666836,58,0.0936229500000394
258,106.77025900000002,56,0.0936229500000394,63,0.5671970249999845
259,106.86455536666669,57,0.09429636666666852,58,0.09472135000000037
260,106.9592767166667,60,0.09472135000000037,58,0.09270129166665697
261,107.05197800833335,58,0.09270129166665697,58,0.09389774999999645
262,107.14587575833335,56,0.09389774999999645,56,0.09512633333332587
263,107.24100209166667,54,0.09512633333332587,56,0.10252189166666881
264,107.34352398333334,52,0.10252189166666881,64,0.519480999999999
265,107.86300498333334,53,0.519480999999999,66,1.530973000000003
266,108.36300498333334,41,0.5,39,0.5
267,108.86300498333334,18,0.5,40,0.530973000000003
268,109.39397798333334,51,0.530973000000003,56,0.49586800000000153
269,109.88984598333334,46,0.49586800000000153,57,0.5217389999999966
270,110.41158498333334,49,0.5217389999999966,62,1.5864159999999998
271,110.95212598333335,42,0.5405410000000046,35,0.5172409999999985
272,111.46936698333334,41,0.5172409999999985,35,1.0572679999999934
273,111.99800098333334,45,0.5286339999999967,53,1.646097999999995
274,112.52663498333334,40,0.5286339999999967,35,0.5405410000000046
275,113.06717598333334,39,0.5405410000000046,36,0.5769229999999936
276,113.64409898333334,46,0.5769229999999936,47,0.5555559999999957
277,114.19965498333333,61,0.5555559999999957,50,1.0045237916666565
278,114.46397198333334,53,0.26431700000000546,45,0.24385024999999416
279,114.70782223333333,56,0.24385024999999416,48,0.4963565416666569
280,114.94994127499999,54,0.24211904166665477,45,0.7852105000000051
281,115.20417877499999,21,0.2542375000000021,38,0.2654864999999944
282,115.73515177499999,60,0.530973000000003,50,0.9908385000000237
283,115.994892275,52,0.2597405000000066,44,0.23623874999999828
284,116.231131025,54,0.23623874999999828,49,0.49485925000001885
285,116.46736977500001,53,0.2362387500000125,45,0.7475185000000124
286,116.72599027500002,22,0.25862050000000636,38,0.24793400000000076
287,117.21488827500002,61,0.48889800000000605,50,0.9297657500000014
288,117.45110877500002,53,0.23622050000000172,48,0.2234290000000101
289,117.67453777500003,56,0.2234290000000101,50,0.4701162499999896
290,117.90173902500003,54,0.22720124999999314,47,0.7081429999999926
291,118.14465402500002,20,0.24291499999999644,40,0.23622050000000172
292,118.60988202500002,59,0.4652279999999962,51,0.8921717500000028
293,118.83460102500001,52,0.22471899999999323,47,0.21746949999999288
294,119.052070525,54,0.21746949999999288,52,0.4499832500000167
295,119.27039377500002,53,0.21832325000001163,47,0.6794210000000049
296,119.50205377500002,18,0.23166000000000508,41,0.22388050000000703
297,119.94981477500002,58,0.44776099999999985,53,0.8519705000000073
298,120.16333777500002,50,0.21352299999999502,50,0.20811274999999796
299,120.37145052500001,53,0.20811274999999796,53,0.4303347500000143
300,120.57956327500003,51,0.20811275000001217,49,0.6383174999999994
301,120.80178527500003,15,0.22222200000000214,42,0.21201399999999637
302,121.21788077500003,51,0.4160954999999973,54,0.8136055000000084
303,121.42196227500003,47,0.20408150000000091,49,0.19912825000000112
304,121.62109052500003,49,0.19912825000000112,55,0.4103957500000064
305,121.82021877500003,48,0.19912825000000112,49,0.6126055000000008
306,122.03148627500003,17,0.21126750000000527,43,0.20066900000000487
307,122.43282427500003,54,0.40133799999999553,55,0.7832099999999969
308,122.62575027500003,50,0.19292599999999993,53,0.19021299999999997
309,122.81596327500003,53,0.19021299999999997,56,0.40007099999999696
310,123.01333177500003,51,0.19736849999999606,52,0.5948594999999983
311,123.21603427500003,17,0.2027025000000009,44,0.1960784999999987
312,123.60819127500002,46,0.3921569999999974,57,0.37735800000000097
313,123.79687027500002,41,0.18867899999999338,51,0.1886790000000076
314,123.98554927500003,48,0.1886790000000076,57,0.38775733333334017
315,124.18098877500003,39,0.1954395000000062,52,0.19231783333333397
316,124.37330660833337,49,0.19231783333333397,71,0.353982000000002
317,124.72728860833337,61,0.353982000000002,71,0.6874316249999879
318,124.90158960833337,53,0.17430099999999982,67,0.1679072083333324
319,125.0694968166667,56,0.1679072083333324,71,0.3452234166666557
320,125.24221906666669,54,0.17272224999999253,66,0.5183231666666615
321,125.41472023333336,21,0.17250116666666315,62,0.17299404166666932
322,125.76054223333335,60,0.3458219999999983,71,0.6632305833333305
323,125.92889206666668,52,0.16834983333332332,65,0.16268374999999935
324,126.09157581666668,54,0.16268374999999935,72,0.33219700000000785
325,126.25802681666669,53,0.16645100000000923,66,0.49361500000000547
326,126.42377281666668,22,0.16574599999999862,61,0.16393449999999632
327,126.75164181666669,61,0.32786900000000685,72,0.6347577500000057
328,126.91301127500003,53,0.16136945833333982,69,0.15568329166667638
329,127.06869456666671,56,0.15568329166667638,73,0.31770499999998947
330,127.2272485666667,54,0.1585539999999952,67,0.15915099999999427
331,127.3863995666667,20,0.15915099999999427,63,0.15503900000000215
332,127.6964775666667,59,0.3100780000000043,74,0.6045207500000203
333,127.8489565666667,52,0.1524789999999996,67,0.14952225000000396
334,127.9984788166667,54,0.14952225000000396,74,0.3025195000000167
335,128.1479373166667,53,0.1494585000000086,67,0.1530610000000081
336,128.30099831666672,30,0.1530610000000081,62,0.14814799999999195
337,128.59729431666673,58,0.2962960000000123,75,0.5820954583332991
338,128.74453481666671,50,0.147240499999981,71,0.1449947083333143
339,128.88952952500003,53,0.1449947083333143,75,0.2898602500000038
340,129.03411127500004,51,0.1445817500000146,70,0.1452784999999892
341,129.17938977500003,15,0.1452784999999892,66,0.14492749999999432
342,129.46924477500002,51,0.28985499999998865,75,0.5656999999999641
343,129.61142477500002,47,0.1421799999999962,69,0.14080549999999903
344,129.75223027500002,49,0.14080549999999903,76,0.2827144999999689
345,129.892764775,48,0.1405344999999727,69,0.1421799999999962
346,130.03494477499999,17,0.1421799999999962,64,0.14117650000000026
347,130.317297775,54,0.2823530000000005,76,0.5528538333333586
348,130.4569476083333,50,0.1396498333333227,73,0.13747875000001386
349,130.59442635833332,53,0.13747875000001386,77,0.275725250000022
350,130.73158360833335,51,0.13715725000002976,71,0.13856799999999225
351,130.87015160833334,17,0.13856799999999225,67,0.13761450000001219
352,131.14538060833334,45,0.27522899999999595,78,0.5449562499999843
353,131.28174410833333,40,0.13636349999998743,71,0.1347005000000081
354,131.41644460833334,42,0.1347005000000081,71,0.4952942500000006
355,131.55208785833332,41,0.1356432499999869,71,0.13824900000000184
356,131.69033685833332,46,0.13824900000000184,79,0.22140200000001187
357,131.91173885833334,39,0.22140200000001187,78,0.21428549999998836
358,132.01888160833334,37,0.10714275000000839,65,0.10714274999997997
359,132.12602435833332,36,0.10714274999997997,64,0.10714275000000839
360,132.23316710833333,34,0.10714275000000839,65,0.10714275000000839
361,132.34030985833334,46,0.10714275000000839,77,0.21977999999998588
362,132.56008985833333,39,0.21977999999998588,77,0.42857100000000514
363,132.66723260833334,37,0.10714275000000839,64,0.10714274999997997
364,132.77437535833332,36,0.10714274999997997,64,0.10714275000000839
365,132.88151810833332,34,0.10714275000000839,63,0.10714275000000839
366,132.98866085833333,44,0.10714275000000839,69,0.8614067083333055
367,133.09775185833334,39,0.10909100000000649,52,0.10909100000000649
368,133.20684285833335,42,0.10909100000000649,54,0.6432247083332925
369,133.31593385833332,33,0.10909099999997807,55,0.10714275000000839
370,133.42307660833333,39,0.10714275000000839,57,0.10714274999997997
371,133.5302193583333,42,0.10714274999997997,58,0.10714275000000839
372,133.63736210833332,45,0.10714275000000839,60,0.10663533333334385
373,133.74399744166666,51,0.10663533333334385,62,0.10607012499997381
374,133.85006756666664,56,0.10607012499997381,63,0.21239262500000677
375,133.95588794166665,54,0.10582037500000752,65,0.10657224999999926
376,134.06246019166664,53,0.10657224999999926,67,0.21524862499998676
377,134.16979506666664,51,0.10733487499999228,68,0.10791374999999448
378,134.27770881666663,58,0.10791374999999448,79,0.11070100000000593
379,134.49911081666664,51,0.22140200000001187,78,0.42857100000000514
380,134.60625356666665,49,0.10714275000000839,65,0.10714274999997997
381,134.71339631666663,48,0.10714274999997997,64,0.10714275000000839
382,134.82053906666664,46,0.10714275000000839,65,0.10714275000000839
383,134.92768181666665,58,0.10714275000000839,77,0.21977999999998588
384,135.14746181666663,51,0.21977999999998588,77,0.42857100000000514
385,135.25460456666664,49,0.10714275000000839,64,0.10714274999997997
386,135.36174731666662,48,0.10714274999997997,64,0.10714275000000839
387,135.46889006666663,46,0.10714275000000839,63,0.10714275000000839
388,135.57603281666664,56,0.10714275000000839,69,0.8614067083333055
389,135.68512381666665,51,0.10909100000000649,52,0.10909100000000649
390,135.79421481666665,54,0.10909100000000649,54,0.6432247083332925
391,135.90330581666663,45,0.10909099999997807,55,0.10714275000000839
392,136.01044856666664,51,0.10714275000000839,57,0.10714274999997997
393,136.11759131666662,54,0.10714274999997997,58,0.10714275000000839
394,136.22473406666663,57,0.10714275000000839,60,0.10663533333334385
395,136.33136939999997,63,0.10663533333334385,62,0.10607012499997381
396,136.43743952499995,68,0.10607012499997381,63,0.21239262500000677
397,136.54325989999995,66,0.10582037500000752,65,0.10657224999999926
398,136.64983214999995,65,0.10657224999999926,67,0.21524862499998676
399,136.75716702499994,63,0.10733487499999228,68,0.10791374999999448
400,136.86508077499994,70,0.10791374999999448,76,0.11070100000000593
401,137.19718377499993,75,0.3321029999999894,75,0.10752700000000459
402,137.30471077499993,73,0.10752700000000459,68,0.10752700000000459
403,137.41223777499994,65,0.10752700000000459,68,0.10752700000000459
404,137.51976477499994,73,0.10752700000000459,73,0.21264333333328977
405,137.62633844166658,72,0.10657366666663393,67,0.10606966666665585
406,137.73240810833323,65,0.10606966666665585,66,0.21245616666666933
407,137.83822848333324,61,0.10582037500000752,71,0.10663579166666182
408,137.9448642749999,60,0.10663579166666182,64,0.21428549999998836
409,138.05200702499988,53,0.10714274999997997,64,0.10714275000000839
410,138.1591497749999,63,0.10714275000000839,66,0.11029400000001033
411,138.2694437749999,61,0.11029400000001033,60,0.1102939999999819
412,138.37973777499988,65,0.1102939999999819,60,0.4322075833333372
413,138.4925197749999,75,0.11278200000000993,74,0.10752700000000459
414,138.6000467749999,73,0.10752700000000459,68,0.21189858333332268
415,138.70631160833324,65,0.10626483333334136,69,0.10563374999998132
416,138.81194535833322,73,0.10563374999998132,71,0.21114400000001865
417,138.91757910833323,72,0.10563375000000974,64,0.10551025000000891
418,139.02308935833324,65,0.10551025000000891,63,0.2115186249999681
419,139.12853785833323,61,0.10544849999999428,66,0.10607012499997381
420,139.2346079833332,60,0.10607012499997381,60,0.21352300000000923
421,139.3413694833332,53,0.10676150000000462,60,0.10676150000000462
422,139.44813098333321,63,0.10676150000000462,66,0.22058799999999223
423,139.55842498333323,61,0.11029400000001033,60,0.1102939999999819
424,139.6687189833332,65,0.1102939999999819,60,0.11278200000000993
425,139.78150098333322,75,0.11278200000000993,74,0.10733633333333614
426,139.88883731666655,73,0.10733633333333614,68,0.2127659999999878
427,139.99522031666655,65,0.1063829999999939,69,0.1063829999999939
428,140.10160331666654,73,0.1063829999999939,71,0.21276600000001622
429,140.20798631666656,72,0.10638300000002232,64,0.1063829999999939
430,140.31436931666656,65,0.1063829999999939,63,0.21333466666666823
431,140.4208153999999,61,0.10644608333333849,66,0.10688858333332973
432,140.52770398333323,60,0.10688858333332973,60,0.21428549999998836
433,140.6348467333332,53,0.10714274999997997,60,0.10714275000000839
434,140.7419894833332,51,0.10714275000000839,59,0.11029400000001033
435,140.85228348333322,49,0.11029400000001033,54,0.1102939999999819
436,140.9625774833332,53,0.1102939999999819,54,0.4353630000000237
437,141.07535948333322,63,0.11278200000000993,66,0.10752700000000459
438,141.18288648333322,61,0.10752700000000459,61,0.21505400000000918
439,141.29041348333323,53,0.10752700000000459,62,0.10752700000000459
440,141.39794048333323,61,0.10752700000000459,63,0.21441508333330717
441,141.50540344166654,60,0.10746295833331487,57,0.10695212499999229
442,141.61235556666654,53,0.10695212499999229,56,0.21397158333331845
443,141.71892781666654,49,0.10657224999999926,59,0.10739933333331919
444,141.82632714999986,48,0.10739933333331919,54,0.21582750000001738
445,141.93424089999985,41,0.10791374999999448,54,0.1079137500000229
446,142.04215464999987,51,0.1079137500000229,59,0.22058799999999223
447,142.15244864999988,49,0.11029400000001033,54,0.1102939999999819
448,142.26274264999986,53,0.1102939999999819,54,0.22030900000001452
449,142.37552464999987,63,0.11278200000000993,59,0.10752700000000459
450,142.48305164999988,61,0.10752700000000459,54,0.10752700000000459
451,142.59057864999988,53,0.10752700000000459,55,0.11111099999999396
452,142.70168964999988,28,0.11111099999999396,58,0.21505400000000918
453,142.80921664999988,58,0.10752700000000459,51,0.10752700000000459
454,142.9167436499999,49,0.10752700000000459,50,0.21505399999998076
455,143.0242706499999,54,0.10752700000000459,53,0.10752699999997617
456,143.13179764999987,53,0.10752699999997617,48,0.10752700000000459
457,143.23932464999987,46,0.10752700000000459,48,0.10752700000000459
458,143.34685164999988,10,0.10752700000000459,49,0.22058799999999223
459,143.4571456499999,49,0.11029400000001033,40,0.1102939999999819
460,143.56743964999987,41,0.1102939999999819,40,0.22030900000001452
461,143.68022164999988,48,0.11278200000000993,50,0.10752700000000459
462,143.78774864999988,46,0.10752700000000459,45,0.10752700000000459
463,143.8952756499999,37,0.10752700000000459,46,0.11152425000000221
464,144.0067998999999,16,0.11152425000000221,49,0.21505400000000918
465,144.1143268999999,41,0.10752700000000459,43,0.10752700000000459
466,144.2218538999999,34,0.10752700000000459,42,0.21505399999998076
467,144.3293808999999,39,0.10752700000000459,45,0.10752699999997617
468,144.43690789999988,37,0.10752699999997617,40,0.10752700000000459
469,144.54443489999989,29,0.10752700000000459,40,0.1094889999999964
470,144.65392389999988,39,0.1094889999999964,53,0.22058799999999223
471,144.7642178999999,37,0.11029400000001033,48,0.1102939999999819
472,144.87451189999987,29,0.1102939999999819,48,0.11278200000000993
473,144.98729389999988,41,0.11278200000000993,55,0.10752700000000459
474,145.0948208999999,39,0.10752700000000459,50,0.2190512500000068
475,145.2023478999999,30,0.10752700000000459,51,0.11152425000000221
476,145.3138721499999,39,0.11152425000000221,54,0.21505400000000918
477,145.4213991499999,37,0.10752700000000459,50,0.10752700000000459
478,145.5289261499999,29,0.10752700000000459,50,0.10752700000000459
479,145.6364531499999,41,0.10752700000000459,53,0.10752699999997617
480,145.74398014999989,39,0.10752699999997617,48,0.21822800000001052
481,145.8515071499999,30,0.10752700000000459,48,0.11070100000000593
482,145.9622081499999,39,0.11070100000000593,53,0.22058799999999223
483,146.0725021499999,37,0.11029400000001033,48,0.1102939999999819
484,146.1827961499999,29,0.1102939999999819,48,0.11278200000000993
485,146.2955781499999,41,0.11278200000000993,55,0.10752700000000459
486,146.4031051499999,39,0.10752700000000459,50,0.2190512500000068
487,146.5106321499999,30,0.10752700000000459,51,0.11152425000000221
488,146.6221563999999,39,0.11152425000000221,54,0.21505400000000918
489,146.7296833999999,37,0.10752700000000459,50,0.10752700000000459
490,146.83721039999992,29,0.10752700000000459,50,0.10752700000000459
491,146.94473739999992,41,0.10752700000000459,53,0.10752699999997617
492,147.0522643999999,39,0.10752699999997617,48,0.21822800000001052
493,147.1597913999999,30,0.10752700000000459,48,0.11070100000000593
494,147.2704923999999,34,0.11070100000000593,50,0.6785485416667143
495,147.38609964999992,41,0.11560725000001071,51,0.11457745833334343
496,147.50067710833326,37,0.11457745833334343,52,0.1135653750000074
497,147.61424248333327,41,0.1135653750000074,53,0.11257075000000327
498,147.72681323333327,46,0.11257075000000327,55,0.11159404166667741
499,147.83840727499995,49,0.11159404166667741,56,0.11063366666667207
500,147.94904094166662,53,0.11063366666667207,57,0.11015983333334134
501,148.05920077499997,58,0.11015983333334134,58,0.1111804166666559
502,148.17038119166662,61,0.1111804166666559,59,0.2067017500000361
503,148.28267135833332,65,0.11229016666669622,61,0.1134230000000116
504,148.39609435833333,70,0.1134230000000116,62,0.21739116666665836
505,148.51467135833332,77,0.11857699999998772,63,0.11857700000001614
506,148.63324835833333,73,0.11857700000001614,63,0.46130737499998986
507,148.749932525,77,0.11668416666665848,60,0.11575633333336555
508,148.86568885833336,70,0.11575633333336555,59,0.11486991666666313
509,148.98055877500002,65,0.11486991666666313,58,0.1139969583333027
510,149.09455573333332,61,0.1139969583333027,58,0.11313712500000861
511,149.20769285833333,58,0.11313712500000861,57,0.1122901666666678
512,149.319983025,53,0.1122901666666678,56,0.1118021250000254
513,149.43178515000002,49,0.1118021250000254,56,0.1127830000000074
514,149.54456815000003,46,0.1127830000000074,55,0.11392491666669002
515,149.65849306666672,41,0.11392491666669002,54,0.11494358333334276
516,149.77343665000006,37,0.11494358333334276,53,0.24793399999998655
517,149.89740365000006,29,0.12396699999999328,53,0.12396699999999328
518,150.02137065000005,22,0.12396699999999328,52,1.187686916666621
519,150.1411377750001,41,0.11976712500003828,50,0.11814983333331952
520,150.2592876083334,37,0.11814983333331952,52,0.1172844583333017
521,150.3765720666667,41,0.1172844583333017,54,0.11629287499999919
522,150.4928649416667,46,0.11629287499999919,55,0.11545162499999151
523,150.6083165666667,53,0.11545162499999151,57,0.11463112499998829
524,150.7229476916667,49,0.11463112499998829,57,0.11608820833330924
525,150.8390359,53,0.11608820833330924,56,0.11955349999999498
526,150.9585894,46,0.11955349999999498,54,0.12323541666668802
527,151.08182481666668,41,0.12323541666668802,53,0.12723274999999035
528,151.20905756666667,37,0.12723274999999035,51,0.25862050000000636
529,151.33836781666668,29,0.12931025000000318,49,0.12931025000000318
530,151.46767806666668,21,0.12931025000000318,52,1.2054154583333059
531,151.58789494166666,41,0.12021687499998279,50,0.1191792083333496
532,151.70707415,37,0.1191792083333496,52,0.11822308333333353
533,151.82529723333334,41,0.11822308333333353,54,0.1172844583333017
534,151.94258169166665,45,0.1172844583333017,55,0.11714474999999425
535,152.05972644166664,53,0.11714474999999425,57,0.11895837500000539
536,152.17868481666665,49,0.11895837500000539,57,0.12074916666665558
537,152.2994339833333,53,0.12074916666665558,56,0.12259958333333998
538,152.42203356666664,45,0.12259958333333998,54,0.12450429166668187
539,152.54653785833332,41,0.12450429166668187,53,0.12655566666666118
540,152.67309352499998,37,0.12655566666666118,51,0.2597404999999924
541,152.802963775,29,0.1298702500000104,49,0.12987024999998198
542,152.93283402499998,34,0.12987024999998198,50,0.6955328749999978
543,153.05069352499996,41,0.11785949999998024,51,0.11707200000000739
544,153.16776552499996,37,0.11707200000000739,52,0.11629287499999919
545,153.28405839999996,41,0.11629287499999919,53,0.11552125000000046
546,153.39957964999996,46,0.11552125000000046,55,0.11483600000002525
547,153.51441565,49,0.11483600000002525,56,0.1139512499999853
548,153.62836689999997,53,0.1139512499999853,57,0.1131413333333171
549,153.7415082333333,58,0.1131413333333171,58,0.11394929166667112
550,153.85545752499996,61,0.11394929166667112,59,0.2112878333333299
551,153.97036114999995,65,0.11490362499998241,61,0.11573104166666326
552,154.0860921916666,70,0.11573104166666326,62,0.21917591666667136
553,154.2056426916666,77,0.11955050000000256,63,0.11955050000000256
554,154.3251931916666,73,0.11955050000000256,63,0.46504491666667036
555,154.4424054416666,77,0.11721224999999436,60,0.11664708333336193
556,154.55905252499997,70,0.11664708333336193,59,0.11594083333332605
557,154.6749933583333,65,0.11594083333332605,58,0.11524474999998802
558,154.79023810833328,61,0.11524474999998802,58,0.11463112500001671
559,154.9048692333333,58,0.11463112500001671,57,0.11401695833330905
560,155.0188861916666,53,0.11401695833330905,56,0.11504383333334545
561,155.13393002499996,49,0.11504383333334545,56,0.11757637499997031
562,155.25150639999993,46,0.11757637499997031,55,0.12022454166665852
563,155.37173094166658,41,0.12022454166665852,54,0.12164450000000215
564,155.4933754416666,37,0.12164450000000215,53,0.26699899999999843
565,155.62687494166659,29,0.13349949999999922,53,0.13349949999999922
566,155.76037444166658,21,0.13349949999999922,52,1.2106154583333648
567,155.8837578166666,41,0.12338337500000307,50,0.12213258333335375
568,156.00589039999994,37,0.12213258333335375,52,0.12090066666667099
569,156.1267910666666,41,0.12090066666667099,54,0.11969612499999016
570,156.2464871916666,45,0.11969612499999016,55,0.11851554166668166
571,156.36500273333328,53,0.11851554166668166,57,0.11735666666666589
572,156.48235939999995,49,0.11735666666666589,57,0.11800962499998491
573,156.60036902499994,53,0.11800962499998491,56,0.12067758333333245
574,156.72104660833327,45,0.12067758333333245,54,0.12346891666666693
575,156.84451552499993,41,0.12346891666666693,53,0.12647437500001502
576,156.97098989999995,37,0.12647437500001502,51,0.28606849999999895
577,157.11402414999995,29,0.14303424999999947,49,0.14303424999999947
578,157.25705839999995,20,0.14303424999999947,52,2.1279714583334055
579,157.38624764999994,41,0.12918924999999604,50,0.12764641666669263
580,157.51389406666664,37,0.12764641666669263,52,0.12588829166665505
581,157.6397823583333,41,0.12588829166665505,54,0.12442454166665584
582,157.76420689999995,44,0.12442454166665584,55,0.12370241666667425
583,157.88790931666662,53,0.12370241666667425,57,0.12539537500001074
584,158.01330469166663,49,0.12539537500001074,57,0.12705816666667147
585,158.1403628583333,53,0.12705816666667147,56,0.12884266666665667
586,158.26920552499996,44,0.12884266666665667,54,0.13059450000002926
587,158.399800025,41,0.13059450000002926,53,0.132486125000014
588,158.53228615,37,0.132486125000014,51,0.3107462916666748
589,158.68933765,29,0.15705149999999435,49,0.15369479166668043
590,158.84303244166668,32,0.15369479166668043,50,0.5419974166666748
591,158.97975285833334,39,0.13672041666666246,51,0.13595225000000255
592,159.11570510833334,36,0.13595225000000255,52,0.13499375000000668
593,159.25069885833335,39,0.13499375000000668,53,0.1343310000000031
594,159.38502985833335,44,0.1343310000000031,55,0.1334982500000308
595,159.51852810833338,48,0.1334982500000308,56,0.13266762499998208
596,159.65119573333337,51,0.13266762499998208,57,0.13303904166667735
597,159.78423477500004,56,0.13303904166667735,58,0.13732216666667796
598,159.92155694166672,60,0.13732216666667796,59,0.26468254166667293
599,160.0637570250001,63,0.1422000833333641,61,0.1474350416666539
600,160.21119206666674,68,0.1474350416666539,62,0.27707808333332196
601,160.36232556666673,72,0.15113349999998604,63,0.15113350000001446
602,160.51345906666674,80,0.15113350000001446,63,1.3574649999999906
603,161.87092406666673,39,1.3574649999999906,41,0.32786899999999264
604,162.19879306666672,44,0.32786899999999264,46,1.69174695833334
605,163.89054002500006,39,1.69174695833334,36,0.37504645833334394
606,164.2655864833334,44,0.37504645833334394,40,0.7971418333332849
607,165.0627283166667,39,0.7971418333332849,34,0.42409000000000674
608,165.4868183166667,44,0.42409000000000674,37,0.44425720833331184
609,165.931075525,39,0.44425720833331184,36,0.4453636458333392
610,166.3962804416667,44,0.4652049166666927,36,1.7853603333333012
611,166.88132677500002,13,0.48504633333331526,36,0.4748339999999871
612,167.356160775,25,0.4748339999999871,29,0.41274000000001365
613,167.76890077500002,35,0.41274000000001365,29,0.41273999999998523
614,168.181640775,46,0.41273999999998523,42,1.1889129999999852
615,168.584568775,39,0.40292800000000284,31,0.3906499999999937
616,168.975218775,46,0.3906499999999937,37,0.39533499999998867
617,169.370553775,42,0.39533499999998867,42,1.5556270000000154
618,169.765888775,25,0.3953350000000171,27,0.388023000000004
619,170.153911775,30,0.388023000000004,26,0.388023000000004
620,170.54193477500002,34,0.388023000000004,32,0.3842459999999903
621,170.926180775,54,0.3842459999999903,50,0.5787425000000042
622,171.305759775,42,0.37957900000000677,31,0.40617449999999167
623,171.504923275,53,0.19916349999999738,40,0.20701099999999428
624,171.711934275,51,0.20701099999999428,49,1.1674709999999777
625,172.107269275,42,0.39533499999998867,30,0.389458999999988
626,172.49672827499998,32,0.389458999999988,25,0.38267700000000104
627,172.87940527499998,53,0.38267700000000104,48,1.1889342499999884
628,173.28077027499998,46,0.4013649999999984,30,0.38464124999998717
629,173.66541152499997,53,0.38464124999998717,37,0.40292800000000284
630,174.06833952499997,49,0.40292800000000284,40,1.1906920000000127
631,174.47126752499997,32,0.40292800000000284,29,0.39388199999999074
632,174.86514952499996,37,0.39388199999999074,29,0.39388200000001916
633,175.25903152499998,61,0.39388200000001916,60,0.7809784999999749
634,175.65291352499997,44,0.39388199999999074,32,0.3870964999999842
635,176.04001002499996,61,0.3870964999999842,56,0.41302400000000716
636,176.45303402499997,61,0.41302400000000716,59,0.7858540000000005
637,176.84985902499997,42,0.39682500000000687,30,0.38902899999999363
638,177.23888802499997,59,0.38902899999999363,55,0.40755300000000716
639,177.64644102499997,59,0.40755300000000716,59,0.38074574999998845
640,178.02718677499996,58,0.38074574999998845,56,0.3878822500000183
641,178.41506902499998,57,0.3878822500000183,55,0.4148519999999962
642,178.82992102499998,57,0.4148519999999962,58,0.7906700000000058
643,179.22525602499996,41,0.39533499999998867,29,0.3953350000000171
644,179.62059102499998,58,0.3953350000000171,56,0.8013440000000003
645,180.01592602499997,35,0.39533499999998867,28,0.4060090000000116
646,180.42193502499998,59,0.4060090000000116,62,0.5892069999999876
647,180.81581702499997,46,0.39388199999999074,29,0.40072000000000685
648,181.01114202499997,54,0.19532499999999686,56,0.20539500000001
649,181.21653702499998,58,0.20539500000001,59,0.7937780000000032
650,181.61790202499998,39,0.4013649999999984,31,0.3924130000000048
651,182.01031502499998,56,0.3924130000000048,50,0.7923959999999965
652,182.402728025,34,0.3924130000000048,30,0.39998299999999176
653,182.80271102499998,58,0.39998299999999176,59,0.588619499999993
654,183.19512402499998,44,0.3924130000000048,30,0.39841749999999365
655,183.39133052499997,53,0.19620649999998818,53,0.20221100000000547
656,183.59354152499998,56,0.20221100000000547,59,0.38112200000000485
657,183.97466352499998,54,0.38112200000000485,55,0.3906499999999937
658,184.36531352499998,53,0.3906499999999937,55,0.3906499999999937
659,184.75596352499997,51,0.3906499999999937,55,0.39065000000002215
660,184.88618019166665,53,0.13021666666668352,50,0.1302166666666551
661,185.0163968583333,51,0.1302166666666551,50,0.13021666666668352
662,185.146613525,50,0.13021666666668352,53,0.39523708333334184
663,185.34293460833334,51,0.19632108333334486,50,0.19891599999999698
664,185.54185060833333,53,0.19891599999999698,50,0.40589441666668336
665,185.74355985833336,54,0.2017092500000217,50,0.1530395416666579
666,185.8965994,39,0.1530395416666579,30,1.2691726250000102
667,185.94774502500002,32,0.05114562500000375,36,1.2180270000000064
668,186.35375402500003,35,0.4060090000000116,29,0.4060089999999832
669,186.759763025,25,0.4060089999999832,29,0.4060090000000116
670,187.16577202500002,46,0.4060090000000116,42,1.1834460000000036
671,187.56870002500003,39,0.40292800000000284,31,0.38518300000001204
672,187.95388302500004,46,0.38518300000001204,37,0.39533499999998867
673,188.34921802500003,42,0.39533499999998867,42,1.568206000000032
674,188.74455302500004,25,0.3953350000000171,30,0.388023000000004
675,189.13257602500005,30,0.388023000000004,27,0.388023000000004
676,189.52059902500005,34,0.388023000000004,31,0.39682500000000687
677,189.91742402500006,54,0.39682500000000687,55,0.5791282499999966
678,190.29738877500006,42,0.3799647499999992,28,0.40617449999999167
679,190.49655227500006,53,0.19916349999999738,44,0.20701099999999428
680,190.70356327500005,51,0.20701099999999428,53,1.174252999999993
681,191.09889827500004,42,0.39533499999998867,30,0.389458999999988
682,191.48835727500003,32,0.389458999999988,25,0.38945900000001643
683,191.87781627500004,53,0.38945900000001643,52,1.1869700000000023
684,192.27918127500004,46,0.4013649999999984,30,0.38267700000000104
685,192.66185827500004,53,0.38267700000000104,47,0.40292800000000284
686,193.06478627500005,49,0.40292800000000284,49,1.1906920000000127
687,193.46771427500005,32,0.40292800000000284,32,0.39388199999999074
688,193.86159627500004,37,0.39388199999999074,32,0.39388200000001916
689,194.25547827500006,61,0.39388200000001916,66,0.7931969583333398
690,194.65965427500007,44,0.40417600000000675,37,0.39729800000000637
691,195.05695227500007,61,0.39729800000000637,60,0.47592599999998697
692,195.53287827500006,61,0.47592599999998697,68,1.201203000000021
693,195.92970327500007,43,0.39682500000000687,30,0.39682500000000687
694,196.32652827500007,37,0.39682500000000687,26,0.40755300000000716
695,196.73408127500008,51,0.40755300000000716,61,1.216871000000026
696,197.1309062750001,43,0.39682500000000687,27,0.39682500000000687
697,197.5277312750001,53,0.39682500000000687,55,0.4232210000000123
698,197.9509522750001,54,0.4232210000000123,60,1.223984999999999
699,198.0847492750001,56,0.13379699999998707,53,0.1337970000000155
700,198.2185462750001,54,0.1337970000000155,53,0.13379699999998707
701,198.3523432750001,53,0.13379699999998707,52,0.4112969999999905
702,198.76364027500009,54,0.4112969999999905,55,0.4112970000000189
703,199.1749372750001,58,0.4112970000000189,56,0.4247489999999914
704,199.5996862750001,58,0.4247489999999914,61,0.557909333333356
705,200.0066862750001,35,0.4070000000000107,31,0.4733453333333273
706,200.15759560833345,56,0.15090933333334533,48,0.1509093333333169
707,200.30850494166677,54,0.1509093333333169,48,0.15008583333332126
708,200.48003160833343,54,0.17152666666666505,50,1.4716175000000078
709,200.73883060833344,25,0.25879900000001044,26,0.24896250000000464
710,200.98779310833345,34,0.24896250000000464,31,0.24096399999999107
711,201.22875710833344,30,0.24096399999999107,27,0.2409640000000195
712,201.46972110833346,37,0.2409640000000195,31,0.24096399999999107
713,201.71068510833345,34,0.24096399999999107,27,0.24096399999999107
714,201.95164910833344,42,0.24096399999999107,32,0.48192800000001057
715,202.43357710833345,46,0.48192800000001057,36,0.24590150000000222
716,202.67947860833345,47,0.24590150000000222,34,0.24590150000000222
717,202.92538010833346,49,0.24590150000000222,37,0.1569120000000055
718,203.08229210833346,53,0.1569120000000055,34,0.1569120000000055
719,203.23920410833347,51,0.1569120000000055,34,0.17735200000001328
720,203.41655610833348,49,0.17735200000001328,42,1.43858800000001
721,203.65992410833348,25,0.2433680000000038,22,0.23904400000000692
722,203.8989681083335,34,0.23904400000000692,26,0.23904400000000692
723,204.1380121083335,30,0.23904400000000692,22,0.2390439999999785
724,204.37705610833348,37,0.2390439999999785,26,0.23904400000000692
725,204.61610010833348,34,0.23904400000000692,22,0.23904400000000692
726,204.8551441083335,42,0.23904400000000692,27,0.4780879999999854
727,205.33323210833348,46,0.4780879999999854,36,0.24291500000001065
728,205.5761471083335,47,0.24291500000001065,34,0.24291499999998223
729,205.81906210833347,49,0.24291499999998223,37,0.15816983333334633
730,205.97723194166682,53,0.15816983333334633,34,0.1569120000000055
731,206.13414394166682,51,0.1569120000000055,34,0.17735200000001328
732,206.31149594166683,49,0.17735200000001328,42,1.43858800000001
733,206.55486394166684,25,0.2433680000000038,22,0.23904400000000692
734,206.79390794166684,35,0.23904400000000692,26,0.23904400000000692
735,207.03295194166685,32,0.23904400000000692,22,0.2390439999999785
736,207.27199594166683,37,0.2390439999999785,26,0.23904400000000692
737,207.51103994166684,35,0.23904400000000692,22,0.23904400000000692
738,207.75008394166684,41,0.23904400000000692,27,0.4780879999999854
739,208.22817194166683,44,0.4780879999999854,36,0.24291500000001065
740,208.47108694166684,47,0.24291500000001065,34,0.24291499999998223
741,208.71400194166682,49,0.24291499999998223,37,0.15816983333334633
742,208.87217177500017,53,0.15816983333334633,34,0.1569120000000055
743,209.02908377500017,51,0.1569120000000055,34,0.17735200000001328
744,209.2064357750002,49,0.17735200000001328,42,0.6546903333333489
745,209.4498037750002,25,0.2433680000000038,25,0.2433680000000038
746,209.6931717750002,34,0.2433680000000038,28,0.49529950000001577
747,209.86112610833354,40,0.1679543333333413,34,0.494583166666672
748,210.02622594166687,42,0.16509983333332912,34,0.16224533333334534
749,210.1884712750002,46,0.16224533333334534,39,0.16723799999999756
750,210.3557092750002,51,0.16723799999999756,34,0.16723799999999756
751,210.5229472750002,49,0.16723799999999756,35,0.16723799999999756
752,210.6901852750002,47,0.16723799999999756,38,0.7270379999999932
753,210.9325312750002,30,0.24234599999999773,25,0.24234599999999773
754,211.1748772750002,35,0.24234599999999773,29,0.48469199999999546
755,211.4172232750002,38,0.24234599999999773,37,0.4788770000000113
756,211.6595692750002,42,0.24234599999999773,38,0.2365310000000136
757,211.8961002750002,44,0.2365310000000136,35,0.2558080000000018
758,212.1519082750002,46,0.2558080000000018,46,1.4761299999999835
759,212.40610227500022,25,0.25419400000001247,22,0.25419399999998404
760,212.6602962750002,34,0.25419399999998404,26,0.24193550000001096
761,212.90223177500022,30,0.24193550000001096,22,0.24193549999998254
762,213.1441672750002,37,0.24193549999998254,26,0.24193550000001096
763,213.3861027750002,34,0.24193550000001096,22,0.24193549999998254
764,213.6280382750002,42,0.24193549999998254,27,0.49382700000001023
765,214.1218652750002,46,0.49382700000001023,36,0.2469134999999767
766,214.36877877500018,47,0.2469134999999767,34,0.24691350000000511
767,214.61569227500019,49,0.24691350000000511,37,0.1569120000000055
768,214.7726042750002,53,0.1569120000000055,34,0.1569120000000055
769,214.9295162750002,51,0.1569120000000055,34,0.17735200000001328
770,215.1068682750002,49,0.17735200000001328,42,0.4954544999999939
771,215.34591227500022,25,0.23904400000000692,22,0.256410499999987
772,215.6023227750002,61,0.256410499999987,51,1.4435181666666779
773,215.84523777500021,30,0.24291500000001065,22,0.24291499999998223
774,216.0881527750002,37,0.24291499999998223,26,0.24291500000001065
775,216.3310677750002,34,0.24291500000001065,22,0.24291499999998223
776,216.5739827750002,42,0.24291499999998223,27,0.4718581666666921
777,217.20778427500022,46,0.6338015000000325,36,0.16194333333334043
778,217.36972760833356,47,0.16194333333334043,34,0.161943333333312
779,217.53167094166687,49,0.161943333333312,37,0.15816983333334633
780,217.68984077500022,53,0.15816983333334633,34,0.1569120000000055
781,217.84675277500023,51,0.1569120000000055,34,0.17735200000001328
782,218.02410477500024,49,0.17735200000001328,42,0.49466449999999895
783,218.26125877500024,25,0.23715400000000386,22,0.2575104999999951
784,218.51876927500024,61,0.2575104999999951,50,1.4401829999999904
785,218.76070477500025,32,0.24193550000001096,22,0.24193549999998254
786,219.00264027500023,37,0.24193549999998254,26,0.24193550000001096
787,219.24457577500024,35,0.24193550000001096,22,0.24193549999998254
788,219.48651127500023,41,0.24193549999998254,27,0.47244100000000344
789,220.12024260833357,44,0.6337313333333441,36,0.16129033333331222
790,220.28153294166688,47,0.16129033333331222,34,0.16129033333334064
791,220.44282327500022,49,0.16129033333334064,37,0.15800658333333217
792,220.60082985833355,53,0.15800658333333217,34,0.1569120000000055
793,220.75774185833356,51,0.1569120000000055,34,0.17735200000001328
794,220.93509385833357,49,0.17735200000001328,42,0.6546903333333489
795,221.17846185833358,25,0.2433680000000038,25,0.2433680000000038
796,221.42182985833358,34,0.2433680000000038,28,0.49529950000001577
797,221.58978419166692,40,0.1679543333333413,34,0.494583166666672
798,221.75488402500025,42,0.16509983333332912,34,0.16224533333334534
799,221.9171293583336,46,0.16224533333334534,39,0.16723799999999756
800,222.0843673583336,51,0.16723799999999756,34,0.16723799999999756
801,222.2516053583336,49,0.16723799999999756,35,0.16723799999999756
802,222.4188433583336,47,0.16723799999999756,38,0.7270379999999932
803,222.6611893583336,30,0.24234599999999773,25,0.24234599999999773
804,222.90353535833358,35,0.24234599999999773,29,0.48469199999999546
805,223.14588135833358,38,0.24234599999999773,37,0.4788770000000113
806,223.38822735833358,42,0.24234599999999773,38,0.2365310000000136
807,223.6247583583336,44,0.2365310000000136,35,0.2558080000000018
808,223.8805663583336,46,0.2558080000000018,46,1.7309114999999906
809,224.1347603583336,25,0.25419400000001247,22,0.25419399999998404
810,224.3889543583336,34,0.25419399999998404,26,0.24390249999999014
811,224.63285685833358,30,0.24390249999999014,22,0.24390250000001856
812,224.8767593583336,37,0.24390250000001856,26,0.24390249999999014
813,225.1206618583336,34,0.24390249999999014,22,0.24390249999999014
814,225.36456435833358,42,0.24390249999999014,27,0.49382700000001023
815,225.6114778583336,46,0.24691350000000511,34,0.24691350000000511
816,225.8583913583336,49,0.24691350000000511,36,0.2469134999999767
817,226.10530485833357,58,0.2469134999999767,37,0.24691350000000511
818,226.35221835833357,56,0.24691350000000511,40,0.23536799999999403
819,226.58758635833357,54,0.23536799999999403,37,0.25580800000003023
820,226.8433943583336,53,0.25580800000003023,46,1.7463180000000023
821,227.0975883583336,29,0.25419400000001247,22,0.25419399999998404
822,227.3517823583336,37,0.25419399999998404,26,0.24758600000001252
823,227.5993683583336,34,0.24758600000001252,22,0.2475859999999841
824,227.8469543583336,41,0.2475859999999841,26,0.24758600000001252
825,228.0945403583336,37,0.24758600000001252,22,0.2475859999999841
826,228.3421263583336,46,0.2475859999999841,27,0.4951719999999966
827,228.5897123583336,49,0.24758600000001252,34,0.2475859999999841
828,228.83729835833358,53,0.2475859999999841,36,0.24758600000001252
829,229.0848843583336,61,0.24758600000001252,37,0.2475859999999841
830,229.33247035833358,53,0.2475859999999841,40,0.23536799999999403
831,229.56783835833357,54,0.23536799999999403,37,0.25580800000003023
832,229.8236463583336,55,0.25580800000003023,46,0.5083879999999965
833,230.07784035833362,32,0.25419400000001247,22,0.25419399999998404
834,230.3320343583336,56,0.25419399999998404,46,1.2379300000000057
835,230.5796203583336,37,0.24758600000001252,22,0.2475859999999841
836,230.8272063583336,44,0.2475859999999841,26,0.24758600000001252
837,231.0747923583336,41,0.24758600000001252,22,0.2475859999999841
838,231.3223783583336,49,0.2475859999999841,27,0.5040620000000047
839,231.5699643583336,53,0.24758600000001252,39,0.25647599999999215
840,231.8264403583336,56,0.25647599999999215,43,0.2564760000000206
841,232.08291635833362,65,0.2564760000000206,50,0.25647599999999215
842,232.3393923583336,63,0.25647599999999215,46,0.24758600000001252
843,232.58697835833362,61,0.24758600000001252,41,0.25988066666667464
844,232.8468590250003,59,0.25988066666667464,45,0.2660279999999773
845,233.11288702500028,60,0.2660279999999773,40,0.2660280000000057
846,233.37891502500028,68,0.2660280000000057,51,0.2660280000000057
847,233.6449430250003,67,0.2660280000000057,46,0.2660280000000057
848,233.9109710250003,65,0.2660280000000057,45,0.2660280000000057
849,234.1769990250003,60,0.2660280000000057,40,0.2660279999999773
850,234.44302702500028,53,0.2660279999999773,40,0.2668437499999925
851,234.70987077500027,48,0.2668437499999925,36,0.26998125000002915
852,234.9798520250003,44,0.26998125000002915,39,0.27366850000001364
853,235.2535205250003,41,0.27366850000001364,34,0.2767519999999877
854,235.5302725250003,43,0.2767519999999877,39,0.24512475000000222
855,235.7753972750003,46,0.24512475000000222,31,0.08170824999999127
856,235.8571055250003,44,0.08170824999999127,36,0.3268329999999935
857,236.1839385250003,31,0.3268329999999935,28,1.9609980000000178
858,236.8376045250003,19,0.6536660000000154,25,0.653665999999987
859,237.4912705250003,19,0.653665999999987,25,0.6536660000000154
860,238.4600295250003,41,0.9687590000000057,38,1.4012450000000172
861,238.7751225250003,19,0.3150930000000187,39,1.0861519999999985
862,239.0531575250003,47,0.2780349999999885,37,0.2780350000000169
863,239.33119252500032,51,0.2780350000000169,41,0.26504099999999653
864,239.59623352500032,50,0.26504099999999653,39,0.26504099999999653
865,239.8612745250003,48,0.26504099999999653,37,1.527245000000022
866,240.36768952500032,43,0.5064150000000041,28,0.4880803124999886
867,240.86090752500033,43,0.49321800000001303,28,0.5221160416666635
868,241.38851952500033,55,0.5276120000000049,41,1.4991449999999986
869,241.88603152500033,48,0.4975120000000004,28,0.496695625000001
870,242.38795552500034,48,0.5019240000000025,28,0.49450369791665594
871,242.88766452500033,53,0.49970899999999574,39,1.5197539999999776
872,243.40800052500032,48,0.5203359999999861,28,0.49450369791665594
873,243.9077095250003,48,0.49970899999999574,28,0.49450369791668436
874,244.68141602500032,41,0.773706500000003,40,1.3309474999999793
875,244.9554135250003,19,0.2739974999999788,39,1.0569500000000005
876,245.2242305250003,47,0.26881700000001274,37,0.2688169999999843
877,245.4930475250003,51,0.2688169999999843,41,0.25462550000000306
878,245.7476730250003,50,0.25462550000000306,39,0.2646905000000004
879,246.0123635250003,48,0.2646905000000004,37,1.5162789999999973
880,246.5120725250003,43,0.49970899999999574,28,0.4838646874999881
881,247.0010305250003,43,0.4889579999999967,28,0.5221160416666635
882,247.5286425250003,45,0.5276120000000049,37,1.5346481666666705
883,248.0305665250003,43,0.5019240000000025,28,0.49986051041668134
884,248.53567869166696,43,0.5051121666666631,28,0.5221160416666635
885,249.06329069166696,47,0.5276120000000049,37,1.5969637500000147
886,249.60603169166697,43,0.5427410000000066,23,0.5211147916666619
887,250.13264244166697,43,0.5266107500000032,23,0.5221160416666635
888,250.934251941667,41,0.8016095000000121,40,1.3257179999999948
889,251.20824944166696,19,0.2739974999999788,39,1.051720500000016
890,251.47706644166698,47,0.26881700000001274,37,0.2688169999999843
891,251.74588344166696,51,0.2688169999999843,41,0.5085408020833313
892,251.99377644166697,50,0.2478930000000048,39,0.2661935000000142
893,252.25996994166698,48,0.2661935000000142,37,1.5312520000000234
894,252.775566941667,43,0.5155970000000138,28,0.48295921875001113
895,253.263609941667,43,0.48804300000000467,28,0.5221160416666635
896,253.791221941667,55,0.5276120000000049,53,1.4752440000000036
897,254.283024941667,51,0.49180300000000443,32,0.4613437499999975
898,254.749224941667,51,0.4661999999999864,32,0.511853072916665
899,255.266465941667,57,0.5172410000000127,53,1.4459704999999587
900,255.768557941667,51,0.5020920000000046,32,0.46692132291664734
901,256.240287691667,51,0.4717297499999802,32,0.46719393749998517
902,256.97910294166695,39,0.7388152499999592,40,1.2895485000000235
903,257.245769441667,19,0.2666665000000421,39,1.0228819999999814
904,257.506638941667,47,0.2608695000000125,37,0.2608695000000125
905,257.767508441667,50,0.2608695000000125,41,0.49586695833329486
906,258.015401441667,48,0.24789299999997638,39,0.25324999999998
907,258.268651441667,48,0.25324999999998,37,1.5407209999999623
908,258.784248441667,43,0.5155970000000138,28,0.4923295833333441
909,259.28176044166696,43,0.497511999999972,28,0.5221160416666635
910,259.80937244166694,57,0.5276119999999764,55,1.4733945000000404
911,260.29916844166695,51,0.48979600000001255,34,0.4653904583333315
912,260.76946394166697,51,0.4702955000000202,36,0.5079560937500105
913,261.282766941667,59,0.5133030000000076,58,1.45981450000005
914,261.780691941667,54,0.4979250000000093,36,0.4689659791666827
915,262.254538441667,54,0.47384650000003603,37,0.48295921875001113
916,262.742581441667,57,0.48804300000000467,62,0.9800119999999879
917,263.244505441667,54,0.5019239999999741,39,0.47808800000001384
918,263.979244941667,59,0.7347394999999892,65,0.23526387500004375
919,264.235896441667,59,0.25665150000003223,66,1.4341263333333245
920,264.71933044166707,54,0.4834340000000452,45,0.4621510208332893
921,265.186313691667,54,0.46698324999994156,45,0.4786687604166673
922,265.67002277500035,57,0.48370908333333773,69,0.9652439999999842
923,266.1719467750003,54,0.5019239999999741,47,0.46332000000001017
924,266.8801647750003,59,0.708217999999988,71,0.22448983333333672
925,267.12506277500034,59,0.2448980000000347,74,1.3837290000000166
926,267.59381277500034,54,0.46875,50,0.44158078125002476
927,268.04004177500036,54,0.44622900000001664,50,0.4638671875
928,268.50879177500036,57,0.46875,81,0.9260429999999928
929,268.99071977500034,54,0.48192799999998215,53,0.4441150000000107
930,269.67012877500036,59,0.679409000000021,77,0.23529400000001033
931,269.9054227750004,60,0.23529400000001033,78,1.2819640000000163
932,270.3482267750004,57,0.44280400000002373,57,0.41520937500001764
933,270.7678067750004,57,0.4195799999999963,59,0.41520937500001764
934,271.1873867750004,59,0.4195799999999963,94,0.8431440000000521
935,271.6237507750004,57,0.43636400000002595,63,0.4025427083333284
936,271.8779882750004,31,0.2542374999999879,35,0.5937185000000227
937,271.92883577500044,36,0.05084750000003169,36,0.542870999999991
938,271.9796832750004,39,0.05084749999997484,46,0.49202350000001616
939,272.03053077500044,60,0.05084750000003169,100,0.44117599999998447
940,272.4717067750004,62,0.44117599999998447,99,1.1099889999999846
941,272.8588037750004,41,0.3870969999999829,72,0.3614460000000008
942,273.2202497750004,43,0.3614460000000008,73,0.3614460000000008
943,273.5816957750004,64,0.3614460000000008,96,0.7215890000000513
944,273.95436677500044,43,0.3726710000000253,72,0.34891800000002604
945,274.30328477500046,64,0.34891800000002604,91,0.3489179999999692
946,274.65220277500043,60,0.3489179999999692,96,1.049239
947,275.00103977500044,40,0.3488370000000032,73,0.35020100000002685
948,275.35124077500046,43,0.35020100000002685,74,0.35020099999997
949,275.70144177500043,72,0.35020099999997,105,0.705697999999984
950,276.06067977500044,43,0.35923800000000483,73,0.3464599999999791
951,276.4071397750004,71,0.3464599999999791,101,0.34646000000003596
952,276.75359977500045,69,0.34646000000003596,103,1.045227083333316
953,277.1081658583338,38,0.3545660833333386,73,0.34384000000000015
954,277.4520058583338,42,0.34384000000000015,73,0.3468209999999772
955,277.79882685833377,71,0.3468209999999772,102,0.7047384166666575
956,278.1567368583338,42,0.35791000000000395,72,0.34682841666665354
957,278.5035652750004,71,0.34682841666665354,93,0.3485856666666791
958,278.8521509416671,67,0.3485856666666791,103,1.045268999999962
959,279.2087419416671,38,0.35659099999998034,74,0.34285699999998087
960,279.55159894166707,43,0.34285699999998087,74,0.3458210000000008
961,279.89741994166707,67,0.3458210000000008,113,0.7031339999999773
962,280.25532994166707,43,0.35791000000000395,74,0.34522399999997333
963,280.60055394166704,67,0.34522399999997333,113,0.3452240000000302
964,280.9457779416671,67,0.3452240000000302,113,1.0456519999999614
965,281.29978094166705,41,0.3540029999999774,74,0.3448280000000068
966,281.64460894166706,65,0.3448280000000068,97,0.3468209999999772
967,281.99142994166704,65,0.3468209999999772,95,0.3540029999999774
968,282.10943094166703,67,0.11800099999999247,93,0.11800099999999247
969,282.227431941667,65,0.11800099999999247,90,0.11800099999999247
970,282.345432941667,64,0.11800099999999247,97,0.7006250000000023
971,282.519275441667,65,0.17384249999997792,93,0.1743225000000166
972,282.693597941667,69,0.1743225000000166,97,0.35246000000000777
973,282.868016441667,67,0.1744185000000016,92,0.17804150000000618
974,283.046057941667,65,0.17804150000000618,113,1.0446639999999547
975,283.400060941667,40,0.3540029999999774,74,0.34384000000000015
976,283.743900941667,64,0.34384000000000015,97,0.3468209999999772
977,284.09072194166697,64,0.3468209999999772,95,0.3540029999999774
978,284.20872294166696,65,0.11800099999999247,93,0.11800099999999247
979,284.32672394166696,64,0.11800099999999247,90,0.11800099999999247
980,284.44472494166695,63,0.11800099999999247,97,0.6986234999999965
981,284.6185674416669,64,0.17384249999997792,93,0.17492700000002515
982,284.79349444166695,67,0.17492700000002515,97,0.34985399999999345
983,284.9684214416669,65,0.1749269999999683,92,0.17492700000002515
984,285.14334844166694,64,0.17492700000002515,110,1.0493730000000028
985,285.4973514416669,62,0.3540029999999774,97,0.5215274999999906
986,285.84503644166693,45,0.3476850000000127,74,0.3476850000000127
987,286.0188789416669,61,0.17384249999997792,97,0.17384250000003476
988,286.19272144166695,62,0.17384250000003476,97,1.0493730000000028
989,286.45822369166694,63,0.2655022499999973,93,0.26234324999995806
990,286.5467244416669,40,0.08850074999998014,74,0.3476850000000127
991,286.7205669416669,64,0.17384249999997792,97,0.2607637500000237
992,286.89440944166694,44,0.17384250000003476,74,0.3476850000000127
993,286.9813306916669,59,0.08692124999998896,92,0.2607637500000237
994,287.24209444166695,62,0.2607637500000237,113,0.7016879999999901
995,287.5960974416669,60,0.3540029999999774,97,0.6953700000000254
996,287.94378244166694,45,0.3476850000000127,74,0.3476850000000127
997,288.1176249416669,59,0.17384249999997792,97,0.08692124999998896
998,288.2045461916669,57,0.08692124999998896,80,0.0434606250000229
999,288.24800681666693,59,0.0434606250000229,79,0.0434606250000229
1000,288.29146744166695,57,0.0434606250000229,97,0.3540029999999774
1001,288.64547044166693,56,0.3540029999999774,84,0.6953700000000254
1002,288.8193129416669,57,0.17384249999997792,88,0.15935562500004608
1003,288.99315544166694,59,0.17384250000003476,91,0.3476850000000127
1004,289.1669979416669,60,0.17384249999997792,94,0.15935562499998923
1005,289.34084044166696,50,0.17384250000003476,99,1.0279620000000023
1006,289.69274644166694,35,0.3519059999999854,72,0.33802800000000843
1007,290.03077444166695,38,0.33802800000000843,73,0.33802800000000843
1008,290.36880244166696,55,0.33802800000000843,96,0.6800689999999463
1009,290.72278444166693,38,0.3539819999999736,72,0.3260869999999727
1010,291.0488714416669,55,0.3260869999999727,91,0.32608700000002955
1011,291.37495844166693,48,0.32608700000002955,96,0.3260869999999727
1012,291.7010454416669,40,0.3260869999999727,73,0.33149200000002566
1013,292.03253744166693,60,0.33149200000002566,96,0.3314919999999688
1014,292.3640294416669,72,0.3314919999999688,105,0.6452209999999923
1015,292.6892504416669,43,0.3252209999999991,73,0.3199999999999932
1016,293.0092504416669,71,0.3199999999999932,101,0.3199999999999932
1017,293.3292504416669,69,0.3199999999999932,103,0.9695810000000051
1018,293.6571194416669,38,0.32786900000002106,73,0.32085599999999204
1019,293.9779754416669,42,0.32085599999999204,73,0.32085599999999204
1020,294.2988314416669,71,0.32085599999999204,102,0.653160000000014
1021,294.6294104416669,42,0.3305790000000002,72,0.3225810000000138
1022,294.9519914416669,71,0.3225810000000138,93,0.3225810000000138
1023,295.2745724416669,67,0.3225810000000138,103,0.9670650000000478
1024,295.60333944166695,38,0.32876700000002756,74,0.3191489999999817
1025,295.9224884416669,43,0.3191489999999817,74,0.31914900000003854
1026,296.24163744166697,79,0.31914900000003854,104,0.8709417499999859
1027,296.56564644166696,43,0.32400899999998956,74,0.3125329999999735
1028,296.87817944166693,38,0.3125329999999735,74,0.3248102500000414
1029,297.11257919166695,79,0.23439975000002278,104,0.0904105000000186
1030,297.20298969166697,79,0.0904105000000186,104,0.32049599999999145
1031,297.52348569166696,37,0.32049599999999145,74,0.31476199999997334
1032,297.83824769166694,40,0.31476199999997334,74,0.3147620000000302
1033,298.15300969166697,57,0.3147620000000302,94,1.2658212083333638
1034,298.47350569166696,40,0.32049599999999145,74,0.31088099999999486
1035,298.78438669166695,37,0.31088099999999486,74,0.31413600000001907
1036,299.098522691667,19,0.31413600000001907,84,0.3203082083333584
1037,299.41883090000033,57,0.3203082083333584,79,0.31598900000000185
1038,299.4978281500003,59,0.07899724999998625,79,0.07899724999998625
1039,299.5768254000003,57,0.07899724999998625,83,0.15799450000002935
1040,299.73481990000033,56,0.15799450000002935,77,0.31503545833328417
1041,299.89235835833364,57,0.15753845833330615,79,0.15749699999997802
1042,300.0498553583336,43,0.15749699999997802,84,0.3140145833333463
1043,300.206883941667,61,0.15702858333338554,84,0.15698599999996077
1044,300.36386994166696,62,0.15698599999996077,86,0.3164619583333774
1045,300.52077540000033,64,0.15690545833336955,89,0.15955650000000787
1046,300.68033190000034,65,0.15955650000000787,91,0.3275682083333322
1047,300.84258444166704,67,0.1622525416667031,94,0.1653156666666291
1048,301.0079001083337,69,0.1653156666666291,113,0.32049599999999145
1049,301.32839610833366,39,0.32049599999999145,74,0.31476199999997334
1050,301.64315810833364,42,0.31476199999997334,74,0.3147620000000302
1051,301.95792010833367,59,0.3147620000000302,94,0.6352579999999648
1052,302.27841610833366,42,0.32049599999999145,74,0.31476199999997334
1053,302.59317810833363,59,0.31476199999997334,94,0.3147620000000302
1054,302.90794010833366,19,0.3147620000000302,84,0.6362972083333602
1055,303.0681881083337,59,0.16024800000002415,74,0.16006020833333423
1056,303.228248316667,60,0.16006020833333423,79,0.31598900000000185
1057,303.386242816667,59,0.1579944999999725,74,0.15799450000002935
1058,303.544237316667,58,0.15799450000002935,77,0.31503545833328417
1059,303.7017757750003,59,0.15753845833330615,79,0.15749699999997802
1060,303.8592727750003,45,0.15749699999997802,84,0.3140145833333463
1061,304.0163013583337,63,0.15702858333338554,84,0.15698599999996077
1062,304.17328735833365,64,0.15698599999996077,86,0.3164619583333774
1063,304.330192816667,66,0.15690545833336955,89,0.15955650000000787
1064,304.48974931666703,67,0.15955650000000787,91,0.3275682083333322
1065,304.65200185833373,69,0.1622525416667031,94,0.1653156666666291
1066,304.81731752500036,71,0.1653156666666291,113,0.32049599999999145
1067,305.13781352500035,31,0.32049599999999145,74,0.31476199999997334
1068,305.4525755250003,43,0.31476199999997334,74,0.3147620000000302
1069,305.76733752500036,59,0.3147620000000302,94,0.6352579999999648
1070,306.08783352500035,38,0.32049599999999145,74,0.31476199999997334
1071,306.4025955250003,59,0.31476199999997334,94,0.3147620000000302
1072,306.71735752500035,28,0.3147620000000302,84,0.3203082083333584
1073,306.79748152500036,61,0.08012400000001207,74,0.08012400000001207
1074,306.8776055250004,59,0.08012400000001207,74,0.16006020833333423
1075,307.0376657333337,58,0.16006020833333423,77,0.31598900000000185
1076,307.1956602333337,59,0.1579944999999725,79,0.15799450000002935
1077,307.3536547333337,61,0.15799450000002935,82,0.31503545833328417
1078,307.511193191667,62,0.15753845833330615,86,0.15749699999997802
1079,307.668690191667,64,0.15749699999997802,90,0.3140145833333463
1080,307.8257187750004,66,0.15702858333338554,93,0.15698599999996077
1081,307.98270477500034,68,0.15698599999996077,95,0.3164619583333774
1082,308.1396102333337,70,0.15690545833336955,101,0.15955650000000787
1083,308.2991667333337,71,0.15955650000000787,101,0.3275682083333322
1084,308.4614192750004,73,0.1622525416667031,102,0.1653156666666291
1085,308.62673494166705,74,0.1653156666666291,112,0.375
1086,309.00173494166705,71,0.375,85,0.10752700000000459
1087,309.10926194166706,68,0.10752700000000459,79,0.10714274999997997
1088,309.21640469166704,66,0.10714274999997997,78,0.10676150000000462
1089,309.32316619166704,62,0.10676150000000462,77,0.10625766666663594
1090,309.34976194166705,32,0.026595750000012686,52,0.5008465833332707
1091,309.37635769166707,38,0.026595750000012686,54,0.474250833333258
1092,309.4029221083337,42,0.026564416666644775,56,0.44768641666661324
1093,309.4294238583337,59,0.026501749999965796,80,0.42118466666664744
1094,309.535306441667,56,0.10588258333331169,78,0.10551025000000891
1095,309.640816691667,54,0.10551025000000891,73,0.10514050000000452
1096,309.745957191667,50,0.10514050000000452,73,0.10465133333332233
1097,309.8506085250003,47,0.10465133333332233,74,0.10428766666666434
1098,309.954896191667,44,0.10428766666666434,64,0.10392641666669533
1099,310.0588226083337,42,0.10392641666669533,64,0.103806249999991
1100,310.1626288583337,38,0.103806249999991,63,0.103806249999991
1101,310.26643510833367,38,0.103806249999991,69,0.10416674999999032
1102,310.37060185833366,32,0.10416674999999032,61,0.10416674999999032
1103,310.47476860833365,30,0.10416674999999032,60,0.10440858333333836
1104,310.579177191667,26,0.10440858333333836,60,0.10452950000001238
1105,310.683706691667,35,0.10452950000001238,60,0.10465133333332233
1106,310.7883580250003,32,0.10465133333332233,62,0.10489499999999907
1107,310.8932530250003,30,0.10489499999999907,52,0.10489499999999907
1108,310.9981480250003,26,0.10489499999999907,52,0.10526325000000725
1109,311.1034112750003,35,0.10526325000000725,52,0.21077350000001616
1110,311.20867452500033,32,0.10526325000000725,51,0.10551025000000891
1111,311.31418477500034,37,0.10551025000000891,52,0.19629349999996748
1112,311.4125455250003,35,0.09836074999998345,48,0.10607606249999435
1113,311.5104782750003,38,0.09793274999998403,52,0.19449133333336022
1114,311.60798652500034,32,0.0975082500000326,47,0.10504760416665704
1115,311.70496960833367,37,0.09698308333332761,47,0.10457956250002098
1116,311.8015363583337,35,0.09656675000002224,47,0.10441262500000903
1117,311.8975877750004,38,0.0960514166666826,52,0.20066900000000487
1118,311.99792227500035,32,0.10033449999997401,47,0.1083217291666756
1119,312.0982567750004,37,0.10033450000003086,52,0.1916934999999853
1120,312.1941035250004,35,0.09584675000002107,47,0.10383397916666581
1121,312.28995027500036,38,0.09584674999996423,47,0.10383397916666581
1122,312.3857970250004,32,0.09584675000002107,47,0.10409758333332775
1123,312.4816437750004,37,0.09584675000002107,52,0.19801999999998543
1124,312.5806537750004,35,0.09901000000002114,48,0.10694649999999228
1125,312.6796637750004,38,0.0990099999999643,52,0.19047599999998965
1126,312.7749017750004,32,0.09523799999999483,47,0.10317450000002282
1127,312.8701397750004,37,0.09523799999999483,47,0.10317450000002282
1128,312.9653777750004,35,0.09523799999999483,47,0.10327658333335421
1129,313.0606157750004,38,0.09523799999999483,52,0.19292599999999993
1130,313.1570787750004,32,0.09646300000002839,47,0.10427549999997154
1131,313.2535417750004,37,0.09646299999997154,52,0.1875
1132,313.3472917750004,35,0.09375,47,0.1015625
1133,313.4410417750004,38,0.09375,47,0.1015625
1134,313.5347917750004,32,0.09375,47,0.10178858333335938
1135,313.6285417750004,37,0.09375,52,0.19292599999999993
1136,313.7250047750004,35,0.09646300000002839,48,0.10427549999997154
1137,313.8214677750004,38,0.09646299999997154,53,0.1875
1138,313.9152177750004,32,0.09375,48,0.1015625
1139,314.0089677750004,37,0.09375,48,0.1015625
1140,314.1027177750004,35,0.09375,49,0.10176281249999874
1141,314.1964677750004,38,0.09375,55,0.19230750000002672
1142,314.29262152500036,32,0.09615374999998494,50,0.10396625000004178
1143,314.3887752750004,37,0.09615375000004178,56,0.1875
1144,314.4825252750004,35,0.09375,51,0.1015625
1145,314.5762752750004,38,0.09375,51,0.1015625
1146,314.6700252750004,32,0.09375,52,0.10181452083332942
1147,314.7637752750004,37,0.09375,58,0.19354850000001989
1148,314.8605495250004,35,0.09677425000000994,54,0.10458675000000994
1149,314.9573237750004,38,0.09677425000000994,59,0.1875
1150,315.0510737750004,32,0.09375,54,0.1015625
1151,315.1448237750004,37,0.09375,54,0.1015625
1152,315.2385737750004,35,0.09375,54,0.10184062500002256
1153,315.3323237750004,38,0.09375,61,0.1941749999999729
1154,315.4294112750004,32,0.09708749999998645,55,0.10489999999998645
1155,315.5264987750004,37,0.09708749999998645,62,0.1875
1156,315.6202487750004,35,0.09375,56,0.1015625
1157,315.7139987750004,38,0.09375,57,0.1015625
1158,315.8077487750004,32,0.09375,57,0.1015625
1159,315.9014987750004,37,0.09375,65,0.1875
1160,316.0889987750004,37,0.1875,65,0.1015625
1161,316.1827487750004,41,0.09375,56,0.1015625
1162,316.2764987750004,38,0.09375,65,0.1015625
1163,316.3702487750004,41,0.09375,58,0.1015625
1164,316.4639987750004,40,0.09375,65,0.1870133333333115
1165,316.5575541083337,44,0.09355533333331323,58,0.10124616666666952
1166,316.6510121083337,41,0.09345799999999826,65,0.10124616666666952
1167,316.7444701083337,47,0.09345799999999826,58,0.10124616666666952
1168,316.8379281083337,43,0.09345799999999826,65,0.10124616666666952
1169,316.9313861083337,47,0.09345799999999826,58,0.10122197916672349
1170,317.02484410833375,44,0.09345800000005511,65,0.18623933333333298
1171,317.1180118583338,50,0.09316775000002053,58,0.1008115208333038
1172,317.2110834416671,46,0.09307158333331245,65,0.10061918750000132
1173,317.30396269166704,50,0.09287924999995312,58,0.10040412500001139
1174,317.3966507750004,47,0.0926880833333712,64,0.10028481249997867
1175,317.4892432750004,53,0.09259249999996655,57,0.10000006249998705
1176,317.58155102500035,49,0.09230774999997493,63,0.18423783333338406
1177,317.6737643583337,53,0.09221333333334769,56,0.09969320833334905
1178,317.76578885833374,50,0.09202450000003637,63,0.09948208333332786
1179,317.85762569166707,53,0.09183683333333192,57,0.09936495833329673
1180,317.949368691667,52,0.09174299999995128,62,0.09908545833332028
1181,318.040832191667,56,0.09146349999997483,56,0.09885441666671113
1182,318.1321108583337,53,0.09127866666671025,62,0.18181800000002113
1183,318.2230198583337,59,0.09090900000001056,56,0.09848475000001145
1184,318.3139288583337,55,0.09090900000001056,62,0.0984847499999546
1185,318.4048378583337,59,0.09090899999995372,55,0.09859995833335233
1186,318.49583902500035,56,0.0910011666666719,61,0.09878429166667502
1187,318.58702452500034,62,0.09118549999999459,55,0.09878429166667502
1188,318.67821002500034,58,0.09118549999999459,61,0.18246366666664926
1189,318.76939552500033,62,0.09118549999999459,54,0.09890012500000012
1190,318.860673691667,59,0.09127816666665467,60,0.09920191666662959
1191,318.9522303583336,65,0.09155666666663365,54,0.09950554166670145
1192,319.04406719166695,61,0.09183683333333192,60,0.09981122916667573
1193,319.1361861083336,65,0.09211891666666361,54,0.10009497916666987
1194,319.2285887750003,62,0.09240266666665775,59,0.18471041666668953
1195,319.32089652500025,65,0.09230774999997493,52,0.10011870833335479
1196,319.41329919166697,64,0.0924026666667146,59,0.10030854166666359
1197,319.50589169166693,68,0.09259249999996655,53,0.10052360416665351
1198,319.5986753583336,65,0.09278366666666216,59,0.10064322916667834
1199,319.6915546083336,71,0.09287925000000996,54,0.10093172916668891
1200,319.7847223583336,67,0.09316775000002053,58,0.18672249999997348
1201,319.8779868583336,71,0.09326449999997521,54,0.10124616666666952
1202,319.9714448583336,68,0.09345799999999826,58,0.10146516666662819
1203,320.0650975250002,74,0.09365266666662819,53,0.10158699999999499
1204,320.1588475250002,70,0.09375,57,0.10188099999999167
1205,320.2528915250002,74,0.09404399999999669,54,0.10205349999995406
1206,320.3471325250002,73,0.09424099999995406,57,1.68440425
1207,320.4405424416669,71,0.09340991666670106,51,0.10161525000000893
1208,320.5342960666669,74,0.09375362500003348,57,0.10171233333323926
1209,320.6281467750002,68,0.09385070833326381,51,0.10200522916665022
1210,320.72238802500016,73,0.09424124999998185,57,0.10090945833331944
1211,320.8154604833335,71,0.09307245833332445,51,0.10190672916667154
1212,320.9096032333335,75,0.09414275000000316,57,0.10105400000003328
1213,321.0028202333335,68,0.0932170000000383,50,0.10198016666663534
1214,321.0970122333335,73,0.09419199999996408,57,0.10093231250004919
1215,321.19018056666687,71,0.09316833333338082,52,0.10117616666661888
1216,321.28364069166685,76,0.09346012499997869,60,0.10023862499997449
1217,321.37609115000015,68,0.09245045833330323,51,0.10183283333333293
1218,321.4700869833335,73,0.09399583333333794,61,0.10115047916667663
1219,321.5634975250002,71,0.09341054166668528,51,0.10132258333334221
1220,321.65695848333354,77,0.09346095833336676,63,0.10193149999997786
1221,321.75110181666685,68,0.0941433333333066,51,0.10081224999998994
1222,321.84412590000017,73,0.09302408333331869,57,0.10193108333334067
1223,321.9382199833335,71,0.09409408333334568,52,0.10100910416662146
1224,322.0315367750002,78,0.09331679166666618,63,0.5608119583332609
1225,322.12432348333346,68,0.09278670833327851,52,0.10173441666665894
1226,322.21826973333344,73,0.09394624999998769,61,0.10135341666671138
1227,322.3116866500001,71,0.09341691666668339,52,0.1028251249999812
1228,322.4066747750001,79,0.09498812499998621,59,0.10100847916663724
1229,322.4999909416668,68,0.09331616666668197,51,0.10017029166664315
1230,322.59234873333344,80,0.09235779166664315,63,0.7494491666666931
1231,322.68634373333344,77,0.09399500000000671,51,0.10188099999999167
1232,322.78038773333344,76,0.09404399999999669,52,0.10124904166667648
1233,322.8737997750001,79,0.09341204166668149,52,0.10190672916667154
1234,322.9679425250001,78,0.09414275000000316,57,0.10124720833334777
1235,323.0613527333335,75,0.09341020833335278,53,0.10127320833328213
1236,323.1549099000001,74,0.09355716666664193,57,0.18688800000001038
1237,323.2474576500001,77,0.09254774999999427,52,0.10212841666668737
1238,323.34179790000013,76,0.09434025000001611,52,0.10166275000000269
1239,323.43559902500016,73,0.09380112500002724,52,0.1013473958333293
1240,323.5292541083335,72,0.09365508333331718,57,0.10062337499999785
1241,323.6220404833335,75,0.09278637500000286,52,0.10195572916666151
1242,323.71623223333347,74,0.09419174999999314,57,0.10005064583333478
1243,323.8085905666668,71,0.09235833333332266,52,0.1010802916666762
1244,323.90185835833347,70,0.0932677916666762,52,0.1010295000000383
1245,323.9950753583335,73,0.0932170000000383,53,0.10195697916668678
1246,324.0892683583335,71,0.0941930000000184,57,0.10047706249997646
1247,324.1820054833335,68,0.0927371249999851,55,0.1013449999999807
1248,324.2755623166668,65,0.09355683333330944,57,0.10036095833334002
1249,324.36825456666685,61,0.09269225000002734,52,0.10055016666672145
1250,324.46099223333357,60,0.09273766666672145,52,0.10166156249999858
1251,324.5548898166669,61,0.0938975833333302,52,0.10100562500002752
1252,324.64805844166693,59,0.09316862500003253,57,0.10190672916667154
1253,324.74220119166694,61,0.09414275000000316,52,0.10152895833334696
1254,324.83536894166696,57,0.09316775000002053,56,0.10660747916665514
1255,324.93403285833364,58,0.0986639166666805,48,0.10297924999997576
1256,325.0293556083336,51,0.0953227499999798,48,0.38061191666668037
1257,325.1212336083336,65,0.09187800000000834,47,0.10015339583333116
1258,325.21311160833363,66,0.09187800000000834,51,0.1968559166666637
1259,325.3124163583336,62,0.09930474999998751,44,0.10538816666667117
1260,325.4099675250003,63,0.09755116666667618,49,0.10188099999999167
1261,325.5040115250003,58,0.09404399999999669,46,0.10195539583332902
1262,325.5980555250003,61,0.09404399999999669,50,0.3878019999999651
1263,325.6929922750003,59,0.09493674999998802,48,0.10318377083331143
1264,325.78792902500027,58,0.09493674999998802,47,0.19792849999998907
1265,325.88689327500026,56,0.09896424999999454,48,0.09896424999999454
1266,325.98585752500026,57,0.09896424999999454,52,0.10326631250001128
1267,326.08118027500024,58,0.0953227499999798,45,0.1029493541666966
1268,326.1765030250003,51,0.09532275000003665,48,0.3816479999999842
1269,326.26802227500025,65,0.09151924999997618,45,0.09979464583335584
1270,326.3595415250003,66,0.09151925000003303,50,0.19860949999997501
1271,326.45884627500027,62,0.09930474999998751,45,0.10724831249996214
1272,326.55815102500026,63,0.09930474999998751,49,0.10209412500000781
1273,326.65240815000027,58,0.09425712500001282,46,0.10198050000002468
1274,326.74645215000027,61,0.09404399999999669,48,0.3884044999999787
1275,326.84169015000026,59,0.09523799999999483,48,0.10348502083331823
1276,326.93692815000026,58,0.09523799999999483,47,0.19792849999998907
1277,327.03589240000025,56,0.09896424999999454,48,0.09896424999999454
1278,327.13485665000024,57,0.09896424999999454,52,0.10326631250001128
1279,327.2301794000002,58,0.0953227499999798,45,0.10330997916668139
1280,327.32550215000026,47,0.09532275000003665,48,0.3903029999999603
1281,327.4213489000003,65,0.09584675000002107,46,0.10412214583328705
1282,327.51719565000025,66,0.09584674999996423,52,0.19860949999997501
1283,327.61650040000023,62,0.09930474999998751,47,0.10724831249996214
1284,327.7158051500002,63,0.09930474999998751,52,0.10326631250001128
1285,327.8111279000002,58,0.0953227499999798,49,0.10326631250001128
1286,327.90645065000024,61,0.09532275000003665,52,0.3885739999999487
1287,328.0017734000002,59,0.0953227499999798,53,0.10356977083330321
1288,328.0970961500002,58,0.0953227499999798,52,0.19792849999998907
1289,328.1960604000002,56,0.09896424999999454,54,0.09896424999999454
1290,328.2950246500002,54,0.09896424999999454,64,0.19322449999998526
1291,328.3916369000002,60,0.09661225000002105,49,0.0966122499999642
1292,328.4882491500002,42,0.0966122499999642,50,0.38563508333334084
1293,328.5848614000002,53,0.09661225000002105,58,0.192766000000006
1294,328.6814736500002,60,0.09661225000002105,48,0.19241058333329875
1295,328.7776274000002,56,0.09615374999998494,48,0.09625683333331381
1296,328.8738842333335,51,0.09625683333331381,56,0.19323725000003833
1297,328.97034723333354,60,0.09646300000002839,48,0.09677425000000994
1298,329.06712148333355,56,0.09677425000000994,48,0.39210408333332225
1299,329.1641045666669,49,0.09698308333332761,54,0.1961567500000001
1300,329.2612970666669,60,0.09719250000000557,47,0.19792849999998907
1301,329.3602613166669,56,0.09896424999999454,47,0.09896424999999454
1302,329.4592255666669,57,0.09896424999999454,56,0.10717822916666364
1303,329.55839098333354,58,0.0991654166666649,48,0.1038102499999809
1304,329.6545447333335,51,0.09615374999998494,48,0.3823654999999917
1305,329.74642273333353,65,0.09187800000000834,47,0.10015339583333116
1306,329.83830073333354,66,0.09187800000000834,51,0.19860949999997501
1307,329.9376054833335,62,0.09930474999998751,44,0.10724831249996214
1308,330.0369102333335,63,0.09930474999998751,51,0.10236500000002025
1309,330.1314136083335,58,0.09450337499998795,46,0.10227600000007442
1310,330.22575310833355,61,0.09433950000004643,50,0.3884044999999787
1311,330.32099110833354,59,0.09523799999999483,48,0.10348502083331823
1312,330.41622910833354,58,0.09523799999999483,47,0.19792849999998907
1313,330.51519335833353,56,0.09896424999999454,48,0.09896424999999454
1314,330.6141576083335,57,0.09896424999999454,52,0.10326631250001128
1315,330.7094803583335,58,0.0953227499999798,45,0.1029493541666966
1316,330.80480310833354,51,0.09532275000003665,48,0.3816479999999842
1317,330.8963223583335,65,0.09151924999997618,45,0.09979464583335584
1318,330.98784160833355,66,0.09151925000003303,50,0.19860949999997501
1319,331.08714635833354,62,0.09930474999998751,45,0.10724831249996214
1320,331.18645110833353,63,0.09930474999998751,49,0.10326631250001128
1321,331.2817738583335,58,0.0953227499999798,46,0.10326631250001128
1322,331.37709660833355,61,0.09532275000003665,48,0.3885739999999487
1323,331.4724193583335,59,0.0953227499999798,48,0.10356977083330321
1324,331.5677421083335,58,0.0953227499999798,47,0.19792849999998907
1325,331.6667063583335,56,0.09896424999999454,48,0.09896424999999454
1326,331.7656706083335,57,0.09896424999999454,52,0.10483877083333937
1327,331.8624448583335,58,0.09677425000000994,45,0.10461125000000493
1328,331.9592191083335,56,0.09677425000000994,48,0.3866974999999684
1329,332.0532631083335,65,0.09404399999999669,46,0.1023193958333195
1330,332.1473071083335,66,0.09404399999999669,52,0.19860949999997501
1331,332.2466118583335,62,0.09930474999998751,47,0.10724831249996214
1332,332.3459166083335,63,0.09930474999998751,52,0.10326631250001128
1333,332.44123935833346,58,0.0953227499999798,49,0.10326631250001128
1334,332.5365621083335,61,0.09532275000003665,52,0.3885739999999487
1335,332.6318848583335,59,0.0953227499999798,53,0.10356977083330321
1336,332.72720760833346,58,0.0953227499999798,52,0.19792849999998907
1337,332.82617185833345,56,0.09896424999999454,54,0.09896424999999454
1338,332.92513610833345,55,0.09896424999999454,56,0.19322449999998526
1339,333.02174835833347,54,0.09661225000002105,56,0.0966122499999642
1340,333.11836060833343,53,0.0966122499999642,55,0.09661225000002105
1341,333.21497285833345,52,0.09661225000002105,54,0.09661225000002105
1342,333.3115851083335,51,0.09661225000002105,52,0.19322449999998526
1343,333.40819735833344,50,0.0966122499999642,51,0.09661225000002105
1344,333.50480960833346,49,0.09661225000002105,50,0.19322449999998526
1345,333.6014218583334,48,0.0966122499999642,49,0.09661225000002105
1346,333.69803410833345,51,0.09661225000002105,50,0.19322449999998526
1347,333.79464635833347,49,0.09661225000002105,50,0.0966122499999642
1348,333.89125860833343,48,0.0966122499999642,48,0.19714449999997896
1349,333.9902228583334,47,0.09896424999999454,48,0.09818024999998443
1350,334.0884031083334,40,0.09818024999998443,58,0.19306324999996605
1351,334.18501535833343,47,0.09661225000002105,49,0.1044751458333053
1352,334.2814663583334,48,0.096450999999945,50,0.10423227083333586
1353,334.3777016916667,49,0.09623533333331125,52,0.10396018750003577
1354,334.4736649416667,51,0.09596325000001116,52,0.10366272916667185
1355,334.569357775,49,0.09569283333331668,53,0.10385202083335798
1356,334.6652128583334,47,0.09585508333339021,52,0.10415064583332878
1357,334.7613393583334,49,0.09612649999996847,53,0.1044482708333021
1358,334.85773660833337,50,0.09639724999999544,56,0.10474595833335343
1359,334.9544039833334,51,0.09666737500003819,58,0.10544972916665074
1360,335.0514014833334,52,0.0969974999999863,59,0.10987897916669453
1361,335.15282823333337,51,0.10142674999997325,57,0.1014267500000301
1362,335.2542549833334,42,0.1014267500000301,58,0.19361037499999156
1363,335.3511979833334,49,0.09694300000001022,49,0.10469152083334166
1364,335.4478653583334,50,0.09666737499998135,50,0.10428668750000725
1365,335.54415510833337,51,0.09628974999998263,52,0.10387906250002743
1366,335.64006427500004,53,0.09590916666667226,52,0.1036897708333413
1367,335.73575710833336,51,0.09569283333331668,53,0.10404181250004285
1368,335.83177477500004,49,0.09601766666668254,52,0.1043945208332957
1369,335.92811827500003,51,0.09634349999998904,53,0.10474595833335343
1370,336.02478565000007,52,0.09666737500003819,56,0.105103333333318
1371,336.12178315000006,53,0.0969974999999863,58,0.10577447916665506
1372,336.21916498333337,54,0.09738183333331563,59,0.10910439583335574
1373,336.3198767333334,53,0.10071175000001631,57,0.10881758333329117
1374,336.42058848333335,44,0.10071174999995947,58,0.19432199999999966
1375,336.5178584833333,51,0.09726999999998043,49,0.10513058333333447
1376,336.61491048333335,52,0.09705200000001923,50,0.1048837708332826
1377,336.7117432333333,53,0.09683274999997593,52,0.10463639583338136
1378,336.80835548333334,54,0.09661225000002105,52,0.10431389583334294
1379,336.9046452333333,53,0.09628974999998263,53,0.1040690208333217
1380,337.0007173166667,51,0.09607208333335393,52,0.10434010416662431
1381,337.0970064,52,0.09628908333331765,53,0.10485620833333087
1382,337.193784025,53,0.09677762500001563,56,0.19487908333331916
1383,337.290945025,54,0.09716099999997141,58,0.1060226250000369
1384,337.38866310833333,55,0.09771808333334775,59,0.1079590416666747
1385,337.4883176083333,56,0.09965449999998555,57,0.10770552083334906
1386,337.58797210833336,58,0.09965450000004239,65,0.19322449999998526
1387,337.6845843583334,56,0.09661225000002105,64,0.10466327083332772
1388,337.78119660833335,55,0.0966122499999642,62,0.1932245000000421
1389,337.87780885833337,54,0.09661225000002105,61,0.1049455833333468
1390,337.9744211083334,53,0.09661225000002105,58,0.10833333333334849
1391,338.0744211083334,52,0.10000000000002274,56,0.10805102083327256
1392,338.1744211083334,51,0.0999999999999659,55,0.19322449999998526
1393,338.2710333583334,50,0.09661225000002105,53,0.10466327083332772
1394,338.36764560833336,25,0.0966122499999642,60,0.1932245000000421
1395,338.4642578583334,48,0.09661225000002105,54,0.10485927083334445
1396,338.5608701083334,49,0.09661225000002105,51,0.10721127083331794
1397,338.6598343583334,47,0.09896424999999454,50,0.10621883333334381
1398,338.7580146083334,46,0.09818024999998443,53,0.19292599999999993
1399,338.9509406083334,37,0.19292599999999993,53,0.19292599999999993
1400,339.0474036083334,49,0.09646300000002839,49,0.09646299999997154
1401,339.1438666083334,41,0.09646299999997154,54,0.19292599999999993
1402,339.2403296083334,50,0.09646300000002839,50,0.09646299999997154
1403,339.3367926083334,37,0.09646299999997154,55,0.19230750000002672
1404,339.43294635833337,49,0.09615374999998494,51,0.09615375000004178
1405,339.5291001083334,42,0.09615375000004178,60,0.19230749999996988
1406,339.6252538583334,46,0.09615374999998494,54,0.09615374999998494
1407,339.7214076083334,43,0.09615374999998494,63,0.19230750000002672
1408,339.81756135833336,52,0.09615374999998494,53,0.09615375000004178
1409,339.9137151083334,39,0.09615375000004178,59,0.1916934999999853
1410,340.0095618583334,51,0.09584675000002107,52,0.09584674999996423
1411,340.1054086083334,44,0.09584674999996423,66,0.19169350000004215
1412,340.2012553583334,48,0.09584675000002107,52,0.09584675000002107
1413,340.29710210833343,43,0.09584675000002107,61,0.1916934999999853
1414,340.3929488583334,52,0.09584674999996423,55,0.09584675000002107
1415,340.4887956083334,39,0.09584675000002107,63,0.1910829999999919
1416,340.58433710833344,51,0.09554150000002437,56,0.09554149999996753
1417,340.6798786083334,44,0.09554149999996753,70,0.1910829999999919
1418,340.77542010833344,48,0.09554150000002437,61,0.09554149999996753
1419,340.8709616083334,45,0.09554149999996753,68,0.19098183333335328
1420,340.9665031083334,54,0.09554150000002437,61,0.09544033333332891
1421,341.06194344166676,41,0.09544033333332891,70,0.19047599999998965
1422,341.15718144166675,53,0.09523799999999483,61,0.09523799999999483
1423,341.25241944166675,46,0.09523799999999483,75,0.19047599999998965
1424,341.34765744166674,50,0.09523799999999483,67,0.09523799999999483
1425,341.44289544166674,45,0.09523799999999483,76,0.1904760000000465
1426,341.53813344166673,54,0.09523799999999483,68,0.09523800000005167
1427,341.6333714416668,41,0.09523800000005167,75,0.19047599999998965
1428,341.7286094416668,53,0.09523799999999483,68,0.09523799999999483
1429,341.82384744166677,46,0.09523799999999483,80,0.19047599999998965
1430,341.91908544166677,49,0.09523799999999483,69,0.09523799999999483
1431,342.01432344166676,47,0.09523799999999483,80,0.19067833333332374
1432,342.10956144166676,56,0.09523799999999483,71,0.09544033333332891
1433,342.2050017750001,43,0.09544033333332891,80,0.1902759166666783
1434,342.2999385250001,55,0.09493674999998802,75,0.09533916666669029
1435,342.39527769166676,48,0.09533916666669029,86,0.19179641666664793
1436,342.4910226916667,52,0.09574499999996533,73,0.0960514166666826
1437,342.5870741083334,49,0.0960514166666826,89,0.19344541666663417
1438,342.6836408583334,58,0.0965667499999654,76,0.09687866666666878
1439,342.78051952500005,45,0.09687866666666878,89,0.19512375000005022
1440,342.87781702500007,57,0.09729750000002468,79,0.09782625000002554
1441,342.9756432750001,50,0.09782625000002554,91,0.20251066666673978
1442,343.07504698333344,54,0.099403708333341,82,0.10310695833339878
1443,343.17815394166684,51,0.10310695833339878,93,0.21870091666670533
1444,343.2853127750002,60,0.10715883333335796,85,0.3830350833333682
1445,343.39685485833354,64,0.11154208333334736,98,0.27149300000002086
1446,343.66834785833356,51,0.27149300000002086,64,0.09900325000000976
1447,343.76735110833357,52,0.09900325000000976,64,0.09877324999996517
1448,343.86612435833354,54,0.09877324999996517,65,0.19673591666668244
1449,343.96460798333356,56,0.0984836250000285,66,0.09825229166665395
1450,344.0628602750002,57,0.09825229166665395,67,0.19559950000001436
1451,344.1608290250002,59,0.09796875000000682,67,0.09763075000000754
1452,344.25845977500023,60,0.09763075000000754,68,0.19446820833337597
1453,344.35580573333357,62,0.09734595833333515,69,0.09712225000004082
1454,344.4529279833336,64,0.09712225000004082,70,0.1934696666666582
1455,344.5497731500003,66,0.09684516666669651,71,0.0966244999999617
1456,344.64639765000027,45,0.0966244999999617,72,0.5735122916667024
1457,344.74268740000025,69,0.09628974999998263,72,0.09601766666668254
1458,344.83870506666693,71,0.09601766666668254,73,0.09574691666665558
1459,344.9344519833336,72,0.09574691666665558,74,0.09552941666669312
1460,345.0299814000003,69,0.09552941666669312,75,0.09525741666664089
1461,345.1252388166669,64,0.09525741666664089,75,0.0946711250000476
1462,345.21990994166697,60,0.0946711250000476,76,0.09472533333331512
1463,345.3146352750003,57,0.09472533333331512,76,0.09536674999992556
1464,345.4100020250002,52,0.09536674999992556,74,0.09590950000000475
1465,345.5059115250002,48,0.09590950000000475,72,0.09656808333329536
1466,345.6024796083335,45,0.09656808333329536,71,0.205987499999992
1467,345.7054733583335,40,0.102993749999996,69,0.102993749999996
1468,345.8084671083335,27,0.102993749999996,86,0.19737895833338825
1469,345.9074788583335,45,0.0990117499999883,67,0.09836720833339996
1470,346.0058460666669,42,0.09836720833339996,68,0.09791241666664519
1471,346.10375848333354,48,0.09791241666664519,69,0.09757379166666169
1472,346.2013322750002,48,0.09757379166666169,70,0.19396783333331769
1473,346.2985101083335,57,0.09717783333331909,72,0.0967899999999986
1474,346.3953001083335,54,0.0967899999999986,73,0.19247341666670081
1475,346.49170144166686,60,0.09640133333334688,74,0.08807514583332932
1476,346.5877735250002,60,0.09607208333335393,75,0.09569283333331668
1477,346.68346635833353,69,0.09569283333331668,76,0.09525741666664089
1478,346.7787237750002,66,0.09525741666664089,77,0.19857591666669805
1479,346.8784312750002,72,0.09970750000002226,79,0.09886841666667578
1480,346.9772996916669,26,0.09886841666667578,88,0.1896107916666665
1481,347.0719726916669,72,0.09467300000000023,78,0.09493779166666627
1482,347.16691048333354,66,0.09493779166666627,77,0.09520408333332853
1483,347.26211456666687,60,0.09520408333332853,76,0.09542008333329477
1484,347.35753465000016,57,0.09542008333329477,75,0.19165608333338469
1485,347.45322748333354,60,0.09569283333337353,75,0.09596325000001116
1486,347.54919073333355,54,0.09596325000001116,74,0.19274824999996554
1487,347.64542606666686,48,0.09623533333331125,73,0.09651291666665429
1488,347.7419389833335,45,0.09651291666665429,72,0.09673483333330068
1489,347.8386738166668,48,0.09673483333330068,72,0.0970110833333706
1490,347.9356849000002,26,0.0970110833333706,72,0.2353390000000104
1491,348.0386786500002,36,0.102993749999996,70,0.1323452500000144
1492,348.1710239000002,25,0.1323452500000144,88,0.18934600000000046
1493,348.3603699000002,36,0.18934600000000046,46,0.10256241666667165
1494,348.4550429000002,37,0.09467300000000023,46,0.10256241666667165
1495,348.5497159000002,39,0.09467300000000023,47,0.10256241666667165
1496,348.6443889000002,41,0.09467300000000023,47,0.10256241666667165
1497,348.7390619000002,42,0.09467300000000023,48,0.10256241666667165
1498,348.8337349000002,43,0.09467300000000023,49,0.10269714583336054
1499,348.9284079000002,46,0.09467300000000023,49,0.1925795000000221
1500,349.0246976500002,44,0.09628974999998263,50,0.10431389583334294
1501,349.1209874000002,46,0.09628975000003948,50,0.19257949999996526
1502,349.2172771500002,44,0.09628974999998263,51,0.10417916666665406
1503,349.3135669000002,51,0.09628974999998263,52,0.18934600000000046
1504,349.4082399000002,49,0.09467300000000023,52,0.10256241666667165
1505,349.5029129000002,48,0.09467300000000023,53,0.10256241666667165
1506,349.5975859000002,49,0.09467300000000023,53,0.10256241666667165
1507,349.6922589000002,51,0.09467300000000023,54,0.10256241666667165
1508,349.7869319000002,53,0.09467300000000023,54,0.10256241666667165
1509,349.8816049000002,54,0.09467300000000023,55,0.10256241666667165
1510,349.9762779000002,55,0.09467300000000023,56,0.10272504166664476
1511,350.0709509000002,58,0.09467300000000023,56,0.19324899999998024
1512,350.1675754000002,56,0.09662450000001854,57,0.10467654166666307
1513,350.26419990000016,58,0.0966244999999617,57,0.19324900000003709
1514,350.3608244000002,56,0.09662450000001854,58,0.10448712499999147
1515,350.4574489000002,63,0.09662450000001854,59,0.18870299999997542
1516,350.5518004000002,61,0.09435150000001613,59,0.10221412499998905
1517,350.6461519000002,60,0.09435149999995929,60,0.1022141250000459
1518,350.7405034000002,61,0.09435150000001613,60,0.10221412499998905
1519,350.8348549000002,63,0.09435150000001613,61,0.10221412499998905
1520,350.9292064000002,65,0.09435150000001613,61,0.10221412499998905
1521,351.0235579000002,66,0.09435149999995929,62,0.10221412499998905
1522,351.1179094000002,67,0.09435150000001613,63,0.10234843750004075
1523,351.2122609000002,70,0.09435150000001613,63,0.19192650000002232
1524,351.3082241500002,68,0.09596325000001116,64,0.10396018749997893
1525,351.40418740000024,70,0.09596325000001116,64,0.19192649999996547
1526,351.5001506500002,68,0.09596324999995431,65,0.10382587499998408
1527,351.5961139000002,73,0.09596325000001116,66,0.18870299999997542
1528,351.7848169000002,60,0.18870299999997542,64,0.1022141250000459
1529,351.8791684000002,61,0.09435150000001613,65,0.10221412499998905
1530,351.9735199000002,63,0.09435150000001613,65,0.10221412499998905
1531,352.06787140000023,65,0.09435150000001613,66,0.10221412499998905
1532,352.1622229000002,66,0.09435149999995929,67,0.10221412499998905
1533,352.2565744000002,67,0.09435150000001613,68,0.10254391666666152
1534,352.3509259000002,70,0.09435150000001613,71,0.1927084166666191
1535,352.4476710666669,68,0.09674516666666477,68,0.1041556666665997
1536,352.54363431666684,70,0.09596324999995431,71,0.19661800000000085
1537,352.6419433166668,68,0.098308999999972,68,0.10633314583338915
1538,352.74025231666684,73,0.09830900000002885,68,0.1925795000000221
1539,353.26984594166686,68,0.5295936250000182,77,0.04751154166666538
1540,353.3173574833335,80,0.04751154166666538,89,0.1850805833333311
1541,353.4098472333335,79,0.09248974999997017,84,0.09259083333336093
1542,353.50243806666685,78,0.09259083333336093,83,0.09279299999997193
1543,353.5952310666668,77,0.09279299999997193,82,0.09294850000003407
1544,353.68817956666686,75,0.09294850000003407,81,0.09310399999998253
1545,353.78128356666684,73,0.09310399999998253,79,0.09330899999997655
1546,353.8745925666668,72,0.09330899999997655,78,0.09341150000000198
1547,353.9680040666668,70,0.09341150000000198,77,0.09366920833332415
1548,354.06167327500015,68,0.09366920833332415,76,0.09377362499998299
1549,354.15544690000013,67,0.09377362499998299,75,0.09403800000001183
1550,354.24948490000014,66,0.09403800000001183,74,0.09414249999997537
1551,354.3436274000001,65,0.09414249999997537,73,0.09435150000001613
1552,354.43797890000013,63,0.09435150000001613,72,0.09451224999992291
1553,354.53249115000006,61,0.09451224999992291,71,0.09467300000000023
1554,354.62716415000006,60,0.09467300000000023,70,0.09488483333336717
1555,354.7220489833334,58,0.09488483333336717,69,0.09499074999996537
1556,354.8170397333334,56,0.09499074999996537,68,0.09525741666669774
1557,354.9122971500001,55,0.09525741666669774,67,0.09536541666665244
1558,354.9361248375001,26,0.023827687499988315,69,0.2613073958332848
1559,354.95995252500006,30,0.023827687499988315,73,0.23747970833329646
1560,354.9837802125001,35,0.023827687500045158,77,0.2136520208332513
1561,355.00766256666674,42,0.023882354166630648,80,0.18976966666662065
1562,355.10265331666676,52,0.09499075000002222,65,0.09477891666659843
1563,355.19743223333336,50,0.09477891666659843,64,0.0945122500000366
1564,355.2919444833334,49,0.0945122500000366,63,0.09429925000000594
1565,355.3862437333334,47,0.09429925000000594,62,0.09403800000001183
1566,355.4802817333334,45,0.09403800000001183,61,0.09372074999998858
1567,355.5740024833334,44,0.09372074999998858,60,0.09346304166666641
1568,355.66746552500007,42,0.09346304166666641,59,0.09341150000000198
1569,355.76087702500007,40,0.09341150000000198,58,0.09341150000000198
1570,355.8542885250001,38,0.09341150000000198,57,0.09341150000000198
1571,355.9477000250001,37,0.09341150000000198,56,0.09341150000000198
1572,356.0411115250001,35,0.09341150000000198,55,0.09346304166666641
1573,356.13457456666674,14,0.09346304166666641,91,0.18840216666666265
1574,356.22809240000004,32,0.09351783333329422,59,0.09488433333336843
1575,356.3229767333334,30,0.09488433333336843,62,0.09640283333328625
1576,356.4193795666667,28,0.09640283333328625,64,0.09808591666666189
1577,356.51746548333335,26,0.09808591666666189,66,0.09959024999994881
1578,356.6170557333333,25,0.09959024999994881,68,0.10126441666665187
1579,356.71832014999995,23,0.10126441666665187,70,0.1031233333333148
1580,356.82144348333327,21,0.1031233333333148,72,0.10478741666662472
1581,356.9262308999999,20,0.10478741666662472,75,0.106642499999964
1582,357.03287339999986,18,0.106642499999964,77,0.10870349999999007
1583,357.14157689999985,16,0.10870349999999007,79,0.11055683333336219
1584,357.2521337333332,14,0.11055683333336219,81,0.10763683333334484
1585,357.35977056666655,13,0.10763683333334484,80,0.16088400000001002
1586,357.52065456666656,20,0.16088400000001002,55,0.1583418333333384
1587,357.6789963999999,25,0.1583418333333384,55,0.14510358333336626
1588,357.82409998333327,29,0.14510358333336626,55,0.14423099999999067
1589,357.96833098333326,25,0.14423099999999067,55,0.14388550000001032
1590,358.11221648333327,20,0.14388550000001032,55,0.14475358333334043
1591,358.2569700666666,46,0.14475358333334043,78,0.5798759999999561
1592,358.4041730666666,20,0.14720299999999042,55,0.14720299999999042
1593,358.5513760666666,25,0.14720299999999042,55,0.14273500000001604
1594,358.6941110666666,32,0.14273500000001604,55,0.1427349999999592
1595,358.83684606666657,46,0.1427349999999592,73,0.2888500000000249
1596,358.9812710666666,20,0.14442500000001246,55,0.14442500000001246
1597,359.1256960666666,42,0.14442500000001246,76,0.2862271666666629
1598,359.2691223999999,25,0.14342633333330923,54,0.1428008333333537
1599,359.41192323333325,30,0.1428008333333537,54,0.1437127499999633
1600,359.5556359833332,34,0.1437127499999633,54,0.14446291666666866
1601,359.7000988999999,54,0.14446291666666866,78,0.8544473333333258
1602,359.84295656666654,25,0.14285766666665722,53,0.1418444999999906
1603,359.98480106666653,18,0.1418444999999906,60,0.14150999999998248
1604,360.1263110666665,27,0.14150999999998248,53,0.14257516666668835
1605,360.2688862333332,30,0.14257516666668835,53,0.14283000000000357
1606,360.4117162333332,37,0.14283000000000357,53,0.14283000000000357
1607,360.5545462333332,53,0.14283000000000357,73,0.29009300000001303
1608,360.6995927333332,27,0.1450464999999781,53,0.14504650000003494
1609,360.8446392333332,51,0.14504650000003494,77,0.8522244166666724
1610,360.98746923333323,27,0.14283000000000357,52,0.14283000000000357
1611,361.13029923333323,30,0.14283000000000357,52,0.14208708333336517
1612,361.2723863166666,37,0.14208708333336517,53,0.1412877500000036
1613,361.4136740666666,30,0.1412877500000036,53,0.14117699999997058
1614,361.5548510666666,27,0.14117699999997058,53,0.1420125833333259
1615,361.6968636499999,53,0.1420125833333259,79,0.5731889999999566
1616,361.8411636499999,27,0.144299999999987,53,0.144299999999987
1617,361.9854636499999,30,0.144299999999987,53,0.14229449999999133
1618,362.12775814999986,36,0.14229449999999133,54,0.14229449999999133
1619,362.27005264999985,53,0.14229449999999133,74,0.2939106666667044
1620,362.41725564999984,27,0.14720299999999042,54,0.14670766666671398
1621,362.56396331666656,49,0.14670766666671398,71,0.2877709999999638
1622,362.70807898333317,32,0.14411566666660747,51,0.14365533333335634
1623,362.8517343166665,37,0.14365533333335634,51,0.14314116666668042
1624,362.9948754833332,41,0.14314116666668042,51,0.14268749999996544
1625,363.13756298333317,37,0.14268749999996544,51,0.14223633333335783
1626,363.2797993166665,32,0.14223633333335783,51,0.1426309999999944
1627,363.4224303166665,61,0.1426309999999944,75,0.5714953333333028
1628,363.56545781666654,32,0.14302750000001652,51,0.14354083333330436
1629,363.70899864999984,37,0.14354083333330436,51,0.1424635000000194
1630,363.85146214999986,44,0.1424635000000194,51,0.14246349999996255
1631,363.9939256499998,62,0.14246349999996255,77,0.288599999999974
1632,364.1382256499998,32,0.144299999999987,51,0.144299999999987
1633,364.2825256499998,63,0.144299999999987,77,0.14286354583333605
1634,364.42538919583313,34,0.14286354583333605,47,0.14039750833336484
1635,364.4536546958331,64,0.028265499999974963,72,0.10516538333337166
1636,364.5657867041665,39,0.11213200833338988,48,0.1392229500000326
1637,364.6213012854165,63,0.05551458125000863,73,0.10475411875000873
1638,364.70500965416653,43,0.08370836875002396,50,0.14093051249994915
1639,364.78936124166654,62,0.08435158750000937,74,0.10734519999994063
1640,364.8459401666665,39,0.05657892499993977,51,0.1450464999999781
1641,364.9619773666665,63,0.11603719999999385,79,0.0989947999999572
1642,364.99098666666646,34,0.02900929999998425,53,0.13997100000000273
1643,365.06097216666643,63,0.06998549999997294,69,0.06998550000002979
1644,365.13095766666646,71,0.06998550000002979,87,0.144299999999987
1645,365.27525766666645,35,0.144299999999987,51,0.1440397083333096
1646,365.41929737499976,39,0.1440397083333096,51,0.14117650000002868
1647,365.5604738749998,44,0.14117650000002868,51,0.14117649999997184
1648,365.70165037499976,39,0.14117649999997184,51,0.14117650000002868
1649,365.8428268749998,63,0.14117650000002868,81,0.1453243333332921
1650,365.9881512083331,61,0.1453243333332921,77,0.14168561249999811
1651,366.1298368208331,32,0.14168561249999811,47,0.14056358750002573
1652,366.1580562208331,63,0.028219400000011774,72,0.1053498874999832
1653,366.2704004083331,35,0.11234418750001396,48,0.13985541666664858
1654,366.3262976083331,61,0.05589720000000398,73,0.10506711666664614
1655,366.41025582499975,41,0.0839582166666446,50,0.14155432083333608
1656,366.4948611499998,60,0.08460532500004092,74,0.10784827083330129
1657,366.5518101458331,35,0.05694899583329516,51,0.14542649999998503
1658,366.6681513458331,61,0.11634120000002213,79,0.09924429999995255
1659,366.6972366458331,32,0.0290852999999629,53,0.1403179999999793
1660,366.76739564583306,61,0.07015899999998965,69,0.07015899999998965
1661,366.83755464583305,70,0.07015899999998965,87,0.144299999999987
1662,366.98185464583304,30,0.144299999999987,51,0.14409533333332547
1663,367.12594997916636,34,0.14409533333332547,51,0.14184399999999187
1664,367.26779397916636,42,0.14184399999999187,51,0.14184399999999187
1665,367.40963797916635,34,0.14184399999999187,51,0.14184399999999187
1666,367.55148197916634,61,0.14184399999999187,81,0.1456309999999803
1667,367.6971129791663,59,0.1456309999999803,77,0.144299999999987
1668,367.8414129791663,30,0.144299999999987,47,0.144299999999987
1669,367.8702729791663,61,0.028860000000008768,72,0.10822500000000446
1670,367.9857129791663,35,0.11543999999997823,48,0.14283000000000357
1671,368.0428449791663,59,0.05713200000002416,73,0.10743712499998992
1672,368.1285429791663,39,0.0856979999999794,50,0.14492749999999432
1673,368.2154994791663,58,0.08695649999998523,74,0.1135265000000345
1674,368.2734704791663,35,0.0579710000000091,51,0.15872999999999138
1675,368.4004544791663,59,0.1269839999999931,79,0.10208275000002232
1676,368.4322004791663,30,0.031745999999998276,53,0.14067349999999124
1677,368.5025372291663,59,0.07033675000002404,69,0.0703367499999672
1678,368.5728739791663,68,0.0703367499999672,87,0.144299999999987
1679,368.71717397916626,32,0.144299999999987,51,0.144299999999987
1680,368.86147397916625,35,0.144299999999987,51,0.14251799999999548
1681,369.00399197916624,41,0.14251799999999548,51,0.14251799999999548
1682,369.14650997916624,59,0.14251799999999548,78,0.2916020000000117
1683,369.29231097916625,32,0.14580100000000584,51,0.14580100000000584
1684,369.43811197916625,58,0.14580100000000584,78,0.21870150000000876
1685,369.58391297916626,32,0.14580100000000584,48,0.14580100000000584
1686,369.65681347916626,61,0.07290050000000292,71,0.07290050000000292
1687,369.72971397916626,59,0.07290050000000292,81,0.4329000000000178
1688,369.87401397916625,41,0.144299999999987,48,0.144299999999987
1689,370.01831397916624,34,0.144299999999987,48,0.14430000000004384
1690,370.1626139791663,58,0.14430000000004384,75,0.144299999999987
1691,370.30691397916627,58,0.144299999999987,74,0.2765749999999798
1692,370.45121397916625,30,0.144299999999987,46,0.144299999999987
1693,370.59551397916624,59,0.144299999999987,79,0.27945191666668734
1694,370.74131497916625,42,0.14580100000000584,51,0.14580100000000584
1695,370.88711597916625,60,0.14580100000000584,84,0.2794519166666305
1696,371.03291697916626,30,0.14580100000000584,49,0.14580100000000584
1697,371.17871797916627,61,0.14580100000000584,84,0.900560083333346
1698,371.3396019791663,35,0.16088400000001002,55,0.16088400000001002
1699,371.5004859791663,37,0.16088400000001002,55,0.1456316666666453
1700,371.64611764583293,44,0.1456316666666453,55,0.14457900000002155
1701,371.79069664583295,37,0.14457900000002155,55,0.14382783333331872
1702,371.93452447916627,35,0.14382783333331872,55,0.14475358333334043
1703,372.0792780624996,61,0.14475358333334043,78,0.5798759999999561
1704,372.2264810624996,32,0.14720299999999042,55,0.14720299999999042
1705,372.3736840624996,37,0.14720299999999042,55,0.14273500000001604
1706,372.5164190624996,41,0.14273500000001604,55,0.1427349999999592
1707,372.65915406249957,61,0.1427349999999592,73,0.2888500000000249
1708,372.8035790624996,32,0.14442500000001246,55,0.14442500000001246
1709,372.9480040624996,54,0.14442500000001246,76,0.2888499999999681
1710,373.09242906249955,25,0.14442499999995562,54,0.14442500000001246
1711,373.23685406249956,30,0.14442500000001246,54,0.1450464999999781
1712,373.38190056249954,34,0.1450464999999781,54,0.14504650000003494
1713,373.5269470624996,37,0.14504650000003494,54,0.1439265000000205
1714,373.6708735624996,42,0.1439265000000205,53,0.14392649999996365
1715,373.81480006249956,66,0.14392649999996365,86,0.5705869999999891
1716,373.9572635624996,42,0.1424635000000194,53,0.14246349999996255
1717,374.09972706249954,37,0.14246349999996255,53,0.14283000000000357
1718,374.24255706249954,34,0.14283000000000357,53,0.14283000000000357
1719,374.38538706249955,65,0.14283000000000357,80,0.29009300000001303
1720,374.5304335624995,25,0.1450464999999781,53,0.14504650000003494
1721,374.67548006249956,63,0.14504650000003494,85,0.8548380000000293
1722,374.81831006249956,27,0.14283000000000357,52,0.14283000000000357
1723,374.96114006249957,30,0.14283000000000357,52,0.14229449999999133
1724,375.10343456249956,37,0.14229449999999133,53,0.14229449999999133
1725,375.24572906249955,30,0.14229449999999133,53,0.14229449999999133
1726,375.38802356249954,27,0.14229449999999133,53,0.14229450000004817
1727,375.5303180624996,65,0.14229450000004817,87,0.5731889999999566
1728,375.6746180624996,27,0.144299999999987,53,0.144299999999987
1729,375.81891806249956,30,0.144299999999987,53,0.14229449999999133
1730,375.96121256249955,36,0.14229449999999133,54,0.14229449999999133
1731,376.10350706249955,65,0.14229449999999133,81,0.29440599999998085
1732,376.25071006249954,27,0.14720299999999042,54,0.14720299999999042
1733,376.3979130624995,61,0.14720299999999042,77,0.288599999999974
1734,376.5422130624995,25,0.144299999999987,53,0.144299999999987
1735,376.6865130624995,32,0.144299999999987,55,0.14430000000004384
1736,376.83081306249954,37,0.14430000000004384,57,0.144299999999987
1737,376.97511306249953,41,0.144299999999987,58,0.144299999999987
1738,377.1194130624995,44,0.144299999999987,60,0.144299999999987
1739,377.2637130624995,73,0.144299999999987,94,0.5911340000000109
1740,377.4114965624995,49,0.14778350000000273,59,0.14778350000000273
1741,377.5592800624995,44,0.14778350000000273,57,0.14778350000000273
1742,377.7070635624995,41,0.14778350000000273,55,0.14778350000000273
1743,377.8548470624995,37,0.14778350000000273,53,0.15665799999999308
1744,378.0115050624995,73,0.15665799999999308,88,0.15665799999999308
1745,378.1681630624995,73,0.15665799999999308,94,0.6106879999999819
1746,378.3208350624995,31,0.15267199999999548,49,0.15267199999999548
1747,378.4735070624995,34,0.15267199999999548,49,0.15267199999999548
1748,378.6261790624995,39,0.15267199999999548,49,0.15267199999999548
1749,378.7788510624995,34,0.15267199999999548,49,0.15267199999999548
1750,378.9315230624995,31,0.15267199999999548,49,0.15267199999999548
1751,379.0841950624995,51,0.15267199999999548,77,0.6041511020834491
1752,379.23612934999954,31,0.15193428750006888,47,0.1509554625000078
1753,379.38708481249955,34,0.1509554625000078,53,0.15032617708334328
1754,379.5374109895829,39,0.15032617708334328,47,0.15093517500002918
1755,379.6883461645829,53,0.15093517500002918,73,0.3107530624999413
1756,379.83994822708286,31,0.1516020624999328,47,0.15915100000000848
1757,379.99909922708287,54,0.15915100000000848,69,0.24625975000003564
1758,380.06230153958285,56,0.06320231249998187,69,0.06320231250003872
1759,380.1255038520829,54,0.06320231250003872,69,0.11985512500001505
1760,380.1676387270829,32,0.042134874999987915,46,0.15544049999999743
1761,380.2453589770829,53,0.07772025000002714,64,0.23316074999996772
1762,380.32307922708287,36,0.07772024999997029,46,0.15544049999999743
1763,380.47851972708287,54,0.15544049999999743,64,0.23316075000002456
1764,380.63396022708287,36,0.15544049999999743,47,0.15544049999999743
1765,380.7116804770829,58,0.07772025000002714,64,0.24032174999996414
1766,380.78940072708286,32,0.07772024999997029,47,0.16260149999999385
1767,380.95200222708286,58,0.16260149999999385,72,0.8364990000000034
1768,381.12541272708285,32,0.1734104999999886,47,0.1734104999999886
1769,381.29882322708283,49,0.1734104999999886,66,0.346821000000034
1770,381.4722337270829,41,0.17341050000004543,47,0.1734104999999886
1771,381.64564422708287,47,0.1734104999999886,61,0.43063420833334476
1772,381.78850122708286,56,0.14285699999999224,61,0.14285699999999224
1773,381.8599297270829,32,0.07142850000002454,47,0.21634870833332798
1774,381.93135822708285,54,0.0714284999999677,61,0.12499987500001453
1775,382.0762784354162,46,0.14492020833336028,68,1.3859561666668014
1776,382.31398522708287,25,0.23770679166665332,40,0.2342265416666578
1777,382.5482117687495,30,0.2342265416666578,48,0.23033608333338407
1778,382.7785478520829,34,0.23033608333338407,42,0.22514991666673723
1779,383.00369776874965,30,0.22514991666673723,54,0.22474633333337124
1780,383.228444102083,25,0.22474633333337124,50,0.2337904999999978
1781,383.462234602083,18,0.2337904999999978,55,0.23076900000000933
1782,383.693003602083,25,0.23076900000000933,45,0.2292078333333052
1783,383.92221143541633,30,0.2292078333333052,45,0.22005233333334218
1784,384.069271102083,46,0.1470596666666779,61,0.14571999999998297
1785,384.1422637687497,37,0.07299266666666426,45,0.21713266666665731
1786,384.214991102083,47,0.07272733333331871,57,0.1444053333333386
1787,384.35939643541633,49,0.1444053333333386,63,0.21505400000000918
1788,384.50276576874967,53,0.14336933333333945,68,0.14336933333333945
1789,384.57445043541634,25,0.07168466666666973,45,0.23641566666668723
1790,384.646135102083,51,0.07168466666666973,63,0.1647310000000175
1791,384.810866102083,49,0.1647310000000175,70,1.3768946666668853
1792,385.0461631854164,25,0.2352970833333643,37,0.23226041666663377
1793,385.278423602083,30,0.23226041666663377,51,0.22930666666673005
1794,385.50773026874975,34,0.22930666666673005,46,0.2243081666667308
1795,385.7320384354165,30,0.2243081666667308,55,0.22403800000006413
1796,385.95607643541655,25,0.22403800000006413,49,0.23168433333336225
1797,386.1877607687499,18,0.23168433333336225,50,0.22556400000001986
1798,386.41332476874993,25,0.22556400000001986,40,0.22473466666667719
1799,386.6380594354166,30,0.22473466666667719,40,0.2193809999999985
1800,386.7845804354166,46,0.146521000000007,57,0.1454555833333302
1801,386.8574404354166,37,0.07285999999999149,40,0.2171307500000239
1802,386.93003601874995,47,0.07259558333333871,60,0.1445351666666852
1803,387.07457118541663,49,0.1445351666666852,65,0.2166065000000117
1804,387.21897551874997,53,0.14440433333334113,68,0.14440433333334113
1805,387.29117768541664,25,0.07220216666667056,40,0.23693316666668807
1806,387.3633798520833,51,0.07220216666667056,61,0.1647310000000175
1807,387.52811085208333,49,0.1647310000000175,70,1.3774255000001858
1808,387.7597708520833,25,0.23165999999997666,37,0.23121450000002142
1809,387.9909853520833,29,0.23121450000002142,47,0.2290098333334072
1810,388.21999518541674,35,0.2290098333334072,37,0.22641716666669254
1811,388.4464123520834,29,0.22641716666669254,50,0.22685250000006363
1812,388.6732648520835,25,0.22685250000006363,46,0.2322715000000244
1813,388.9055363520835,18,0.2322715000000244,47,0.22860941666669987
1814,389.1341457687502,25,0.22860941666669987,40,0.22727249999996957
1815,389.3614182687502,29,0.22727249999996957,40,0.22222416666664913
1816,389.50984176875016,44,0.1484234999999785,54,0.14733000000001084
1817,389.58364243541683,37,0.07380066666667062,40,0.21978200000000925
1818,389.6571717687502,47,0.07352933333334022,59,0.14625266666666903
1819,389.80342443541684,49,0.14625266666666903,64,0.21853950000001987
1820,389.9490936020835,53,0.1456691666666643,68,0.1457406666666543
1821,390.02196393541686,25,0.07287033333335557,40,0.23760133333331623
1822,390.09483426875016,51,0.07287033333329873,63,0.1647310000000175
1823,390.2595652687502,49,0.1647310000000175,70,0.4597699999999918
1824,390.4894502687502,25,0.22988500000002432,42,0.22988499999996748
1825,390.71933526875017,30,0.22988499999996748,49,0.2400000000000091
1826,390.8793352687502,40,0.160000000000025,57,0.4707690000000184
1827,390.9593352687502,34,0.07999999999998408,42,0.23076900000000933
1828,391.0362582687502,42,0.07692300000002206,56,0.15384599999998727
1829,391.1901042687502,46,0.15384599999998727,60,0.2400000000000091
1830,391.3501042687502,51,0.160000000000025,65,0.15999999999996817
1831,391.4301042687502,25,0.07999999999998408,42,0.2400000000000091
1832,391.5101042687502,49,0.07999999999998408,59,0.160000000000025
1833,391.6701042687502,47,0.160000000000025,65,0.6870225000000119
1834,391.89911176875023,26,0.2290075000000229,42,0.22900749999996606
1835,392.1281192687502,30,0.22900749999996606,42,0.2290075000000229
1836,392.3571267687502,38,0.2290075000000229,60,0.44935125000000653
1837,392.5861342687502,42,0.22900749999996606,62,0.22034375000004047
1838,392.8064780187502,44,0.22034375000004047,57,0.23700995833326033
1839,393.0434879770835,46,0.23700995833326033,70,0.4742612500000405
1840,393.28229714375016,25,0.23880916666666963,37,0.23545208333337087
1841,393.5177492270835,30,0.23545208333337087,44,0.23137575000004063
1842,393.74912497708357,34,0.23137575000004063,37,0.22599800000006098
1843,393.97512297708363,30,0.22599800000006098,44,0.22402975000005654
1844,394.1991527270837,25,0.22402975000005654,37,0.23123524999999745
1845,394.4303879770837,18,0.23123524999999745,47,0.23622050000000172
1846,394.6666084770837,25,0.23622050000000172,37,0.23531191666666018
1847,394.90192039375034,30,0.23531191666666018,37,0.22771350000004986
1848,395.05430406041705,46,0.152383666666708,61,0.15009641666671314
1849,395.1296338937504,37,0.07532983333334187,37,0.22264333333339437
1850,395.20440047708377,47,0.07476658333337127,58,0.1478767500000231
1851,395.3522772270838,49,0.1478767500000231,64,0.21861100000000988
1852,395.49801789375044,53,0.1457406666666543,68,0.1457406666666543
1853,395.5708882270838,25,0.07287033333335557,37,0.23760133333331623
1854,395.6437585604171,51,0.07287033333329873,58,0.1647310000000175
1855,395.8084895604171,49,0.1647310000000175,72,0.25862050000000636
1856,396.0671100604171,61,0.25862050000000636,72,0.2553634166666825
1857,396.3224734770838,73,0.2553634166666825,87,0.23827704166671992
1858,396.5607505187505,34,0.23827704166671992,37,0.23049879166666187
1859,396.7912493104172,30,0.23049879166666187,44,0.23033608333338407
1860,397.02158539375057,25,0.23033608333338407,37,0.23576691666670513
1861,397.2573523104173,18,0.23576691666670513,41,0.2290075000000229
1862,397.4863598104173,25,0.2290075000000229,29,0.22900749999996606
1863,397.71536731041726,30,0.22900749999996606,29,0.22585391666672194
1864,397.8664546437506,46,0.15108733333335067,38,0.14925475000006827
1865,397.941221227084,37,0.07476658333337127,29,0.2218201666667028
1866,398.0157093937507,47,0.074488166666697,42,0.1473320000000058
1867,398.1630413937507,49,0.1473320000000058,46,0.2188058333333629
1868,398.3089768937507,53,0.14593550000000732,50,0.1457406666666543
1869,398.38184722708405,25,0.07287033333335557,29,0.23760133333331623
1870,398.45471756041735,51,0.07287033333329873,45,0.1647310000000175
1871,398.61944856041737,49,0.1647310000000175,56,0.2597405000000208
1872,398.8791890604174,61,0.2597405000000208,56,0.2581757916666447
1873,399.13736485208403,73,0.2581757916666447,67,0.23733450000008816
1874,399.3746993520841,35,0.23733450000008816,29,0.22968916666667383
1875,399.6043885187508,29,0.22968916666667383,35,0.22643008333341186
1876,399.8308186020842,25,0.22643008333341186,29,0.23363500000004933
1877,400.06445360208426,18,0.23363500000004933,37,0.23109649999997828
1878,400.29555010208423,25,0.23109649999997828,29,0.22988499999996748
1879,400.5254351020842,29,0.22988499999996748,29,0.2262763333333737
1880,400.67666426875087,44,0.15122916666666697,39,0.14981375000002117
1881,400.7517114354176,37,0.07504716666670674,29,0.22305341666663026
1882,400.8264780187509,47,0.07476658333331443,42,0.14828683333331583
1883,400.9747648520842,49,0.14828683333331583,45,0.21907616666669583
1884,401.12097068541755,53,0.14620583333334025,48,0.1457406666666543
1885,401.1938410187509,25,0.07287033333335557,29,0.23760133333331623
1886,401.2667113520842,51,0.07287033333329873,45,0.1647310000000175
1887,401.4314423520842,49,0.1647310000000175,56,0.6199583333333294
1888,401.66044985208424,25,0.2290075000000229,33,0.22900749999996606
1889,401.8894573520842,30,0.22900749999996606,33,0.24291499999998223
1890,402.05140068541755,40,0.16194333333334043,39,0.4743423333333112
1891,402.1323723520842,34,0.0809716666666418,33,0.23076900000000933
1892,402.2092953520842,42,0.07692300000002206,43,0.15384599999998727
1893,402.3631413520842,46,0.15384599999998727,46,0.24390249999999014
1894,402.52574301875086,51,0.1626016666666601,50,0.1626016666666601
1895,402.6070438520842,25,0.08130083333333005,33,0.24390249999999014
1896,402.6883446854175,49,0.08130083333333005,46,0.1626016666666601
1897,402.8509463520842,47,0.1626016666666601,51,0.692307000000028
1898,403.0817153520842,26,0.23076900000000933,33,0.23076900000000933
1899,403.3124843520842,30,0.23076900000000933,33,0.23076900000000933
1900,403.5432533520842,38,0.23076900000000933,49,0.4551042499999767
1901,403.77402235208416,42,0.23076899999995248,51,0.2243352500000242
1902,403.9983576020842,44,0.2243352500000242,46,0.23908050000005687
1903,404.23743810208424,46,0.23908050000005687,62,1.6516415000000393
1904,404.4764821020842,25,0.2390439999999785,29,0.23904400000003534
1905,404.71552610208425,30,0.23904400000003534,35,0.23165999999997666
1906,404.94718610208423,34,0.23165999999997666,29,0.2316600000000335
1907,405.17884610208426,30,0.2316600000000335,35,0.23165999999997666
1908,405.41050610208424,25,0.23165999999997666,29,0.2316600000000335
1909,405.6421661020843,18,0.2316600000000335,41,0.24691350000000511
1910,405.8890796020843,46,0.24691350000000511,51,0.24691350000000511
1911,406.1359931020843,49,0.24691350000000511,54,0.24691350000000511
1912,406.3829066020843,58,0.24691350000000511,55,0.24691350000000511
1913,406.6298201020843,56,0.24691350000000511,60,0.23536799999999403
1914,406.8651881020843,54,0.23536799999999403,55,0.2558080000000018
1915,407.1209961020843,49,0.2558080000000018,66,1.7066374999999994
1916,407.3689301020843,25,0.24793399999998655,33,0.24793399999998655
1917,407.61686410208426,30,0.24793399999998655,35,0.2409640000000195
1918,407.8578281020843,34,0.2409640000000195,35,0.24096399999996265
1919,408.09879210208425,30,0.24096399999996265,35,0.2409640000000195
1920,408.33975610208427,25,0.2409640000000195,33,0.2409640000000195
1921,408.5807201020843,18,0.2409640000000195,41,0.24691350000000511
1922,408.8276336020843,46,0.24691350000000511,51,0.24691350000000511
1923,409.0745471020843,49,0.24691350000000511,54,0.24691350000000511
1924,409.3214606020843,58,0.24691350000000511,55,0.24691350000000511
1925,409.5683741020843,56,0.24691350000000511,60,0.23536799999999403
1926,409.8037421020843,54,0.23536799999999403,55,0.2558080000000018
1927,410.0595501020843,53,0.2558080000000018,66,1.77556450000003
1928,410.3255781020843,29,0.2660280000000057,33,0.2660280000000057
1929,410.5916061020843,34,0.2660280000000057,31,0.24758600000001252
1930,410.8391921020843,37,0.24758600000001252,34,0.24758600000001252
1931,411.08677810208434,41,0.24758600000001252,37,0.24758599999995567
1932,411.3343641020843,37,0.24758599999995567,40,0.24758600000001252
1933,411.5819501020843,46,0.24758600000001252,45,0.2531645000000253
1934,411.83511460208433,49,0.2531645000000253,51,0.2531644999999685
1935,412.0882791020843,53,0.2531644999999685,54,0.2531645000000253
1936,412.3414436020843,61,0.2531645000000253,55,0.2531644999999685
1937,412.5946081020843,60,0.2531644999999685,60,0.24390249999999014
1938,412.8385106020843,58,0.24390249999999014,55,0.2586528333333149
1939,413.0971634354176,53,0.2586528333333149,69,1.77556450000003
1940,413.3631914354176,22,0.2660280000000057,32,0.2660280000000057
1941,413.6292194354176,29,0.2660280000000057,34,0.24758600000001252
1942,413.8768054354176,34,0.24758600000001252,37,0.24758600000001252
1943,414.12439143541764,37,0.24758600000001252,39,0.24758599999995567
1944,414.3719774354176,41,0.24758599999995567,41,0.24758600000001252
1945,414.6195634354176,49,0.24758600000001252,42,0.2531645000000253
1946,414.87272793541763,49,0.2531645000000253,51,0.2531644999999685
1947,415.1258924354176,53,0.2531644999999685,54,0.2531645000000253
1948,415.3790569354176,61,0.2531645000000253,55,0.2531644999999685
1949,415.6322214354176,60,0.2531644999999685,60,0.24691350000000511
1950,415.8791349354176,58,0.24691350000000511,55,0.2596565000000055
1951,416.1387914354176,53,0.2596565000000055,59,0.26785699999999224
1952,416.4066484354176,49,0.26785699999999224,55,0.26785699999999224
1953,416.6745054354176,53,0.26785699999999224,54,0.5286340000000109
1954,416.9388224354176,61,0.26431700000000546,53,0.26431700000000546
1955,417.2031394354176,60,0.26431700000000546,56,0.26431700000000546
1956,417.4674564354176,58,0.26431700000000546,51,0.26431700000000546
1957,417.7317734354176,53,0.26431700000000546,56,0.26431700000000546
1958,417.9960904354176,49,0.26431700000000546,51,0.2643169999999486
1959,418.26040743541756,53,0.2643169999999486,51,0.26431700000000546
1960,418.52472443541757,61,0.26431700000000546,54,0.26431700000000546
1961,418.7890414354176,60,0.26431700000000546,50,0.26431700000000546
1962,419.0533584354176,58,0.26431700000000546,49,0.26431700000000546
1963,419.3176754354176,53,0.26431700000000546,48,0.27649750000000495
1964,419.5941729354176,60,0.27649750000000495,45,0.27649750000000495
1965,419.8706704354176,63,0.27649750000000495,52,0.2709034166666697
1966,420.14157385208426,61,0.2709034166666697,47,0.2752331666666805
1967,420.41680701875094,58,0.2752331666666805,50,0.2786413333333826
1968,420.6954483520843,54,0.2786413333333826,46,0.2823586666666529
1969,420.977807018751,49,0.2823586666666529,45,0.28571866666663936
1970,421.2635256854176,46,0.28571866666663936,45,0.2898594999999773
1971,421.5533851854176,39,0.2898594999999773,43,0.29364175000000614
1972,421.8470269354176,41,0.29364175000000614,42,0.2977734166667574
1973,422.14480035208436,44,0.2977734166667574,41,0.3015126666666106
1974,422.44631301875097,42,0.3015126666666106,39,0.306127833333278
1975,422.75244085208425,29,0.306127833333278,28,1.8000000000000114
1976,423.35244085208427,17,0.6000000000000227,25,0.59375
1977,423.95244085208424,17,0.5999999999999659,25,0.59375
1978,424.86753385208425,39,0.915093000000013,38,1.4012449999999603
1979,425.18262685208424,17,0.3150929999999903,39,1.08615199999997
1980,425.46066185208423,45,0.2780349999999885,37,0.2780349999999885
1981,425.7386968520842,49,0.2780349999999885,41,0.5245603125000002
1982,426.0037378520842,48,0.26504099999999653,39,0.26504099999999653
1983,426.2687788520842,46,0.26504099999999653,37,1.5272449999999935
1984,426.7751938520842,41,0.5064150000000041,28,0.48808031250001704
1985,427.2684118520842,41,0.49321800000001303,28,0.5221160416666635
1986,427.7960238520842,53,0.5276119999999764,41,1.5288169999999468
1987,428.2935358520842,46,0.497511999999972,28,0.49669562499997255
1988,428.79545985208415,46,0.5019239999999741,28,0.5238666145833122
1989,429.32484085208415,51,0.5293810000000008,39,1.7010420000000295
1990,429.88256485208416,46,0.5577240000000074,28,0.5794940624999754
1991,430.4681588520842,46,0.5855940000000146,28,0.5519143750000239
1992,431.2998803520842,39,0.8317215000000147,40,1.3417135000000258
1993,431.5738778520842,17,0.2739975000000072,39,1.0677160000000185
1994,431.8426948520842,45,0.26881700000001274,37,0.26881700000001274
1995,432.1115118520842,49,0.26881700000001274,41,0.5245603125000002
1996,432.3765528520842,48,0.26504099999999653,39,0.26504099999999653
1997,432.6415938520842,46,0.26504099999999653,37,1.5162789999999973
1998,433.1413028520842,41,0.49970899999999574,28,0.4838646874999881
1999,433.63026085208423,41,0.4889580000000251,28,0.5221160416666635
2000,434.1578728520842,43,0.5276119999999764,37,1.5346481666666136
2001,434.6597968520842,40,0.5019239999999741,28,0.49986051041668134
2002,435.16490901875085,40,0.5051121666666631,28,0.5221160416666635
2003,435.6925210187508,45,0.5276119999999764,37,1.5969637499999862
2004,436.2352620187508,41,0.5427409999999782,23,0.5211147916666619
2005,436.76187276875083,41,0.5266107500000317,23,0.5221160416666635
2006,437.5634822687508,39,0.8016094999999837,40,1.3417135000000258
2007,437.8374797687508,17,0.2739975000000072,39,1.0677160000000185
2008,438.10629676875084,45,0.26881700000001274,37,0.26881700000001274
2009,438.37511376875085,49,0.26881700000001274,41,0.5245603125000002
2010,438.64015476875085,48,0.26504099999999653,39,0.26504099999999653
2011,438.90519576875084,46,0.26504099999999653,37,1.5407209999999623
2012,439.42079276875086,41,0.5155970000000138,28,0.4923295833333441
2013,439.91830476875083,41,0.497511999999972,28,0.5221160416666635
2014,440.4459167687508,53,0.5276119999999764,58,1.4604600000000119
2015,440.9297877687508,49,0.4838710000000219,36,0.45456312499999285
2016,441.3891357687508,49,0.4593479999999772,36,0.511853072916665
2017,441.9063767687508,55,0.5172410000000127,59,1.479846000000009
2018,442.4084687687508,49,0.5020920000000046,36,0.47070718750001106
2019,442.8841307687508,49,0.4756619999999998,36,0.49686187499997914
2020,443.6528892687508,37,0.7687584999999899,40,1.2990435000000389
2021,443.91955576875085,17,0.2666665000000421,39,1.0323769999999968
2022,444.18042526875087,43,0.2608695000000125,37,0.2608695000000125
2023,444.4412947687509,48,0.2608695000000125,41,0.50531885416666
2024,444.69661376875086,46,0.25531899999998586,39,0.25531899999998586
2025,444.95193276875085,46,0.25531899999998586,37,1.5330050000000028
2026,445.46752976875086,43,0.5155970000000138,33,0.48469395833330964
2027,445.9573257687509,43,0.48979600000001255,33,0.5221160416666635
2028,446.48493776875085,55,0.5276119999999764,62,1.4624469999999974
2029,446.97473376875087,52,0.48979600000001255,39,0.45456312499999285
2030,447.43408176875084,52,0.4593479999999772,41,0.5079560937500105
2031,447.94738476875085,57,0.5133030000000076,64,1.4336810000000355
2032,448.44530976875086,52,0.4979250000000093,41,0.4529064583333593
2033,448.9029777687509,52,0.4576680000000124,43,0.4731079166666632
2034,449.3810657687509,55,0.47808800000001384,63,0.9688499999999749
2035,449.88298976875086,52,0.5019239999999741,44,0.4620621875000097
2036,450.60656726875084,57,0.7235774999999762,67,0.23526387500004375
2037,450.86321876875087,57,0.25665150000003223,67,1.4286846666666975
2038,451.36321876875087,52,0.5,47,0.4523464583333521
2039,451.8203267687509,52,0.4571080000000052,47,0.4666716250000036
2040,452.29190343541757,55,0.4715766666666923,73,0.9581979999999817
2041,452.79382743541754,52,0.5019239999999741,50,0.4562740000000076
2042,453.4855434354175,57,0.6917159999999853,73,0.2158218333333366
2043,453.72098543541756,57,0.23544200000003457,73,1.3671119999999632
2044,454.18033343541754,52,0.4593479999999772,52,0.43981437500002585
2045,454.6247774354175,52,0.44444399999997586,52,0.45849375000000236
2046,455.0880974354175,55,0.46332000000001017,75,0.9184660000000235
2047,455.5637594354175,52,0.4756619999999998,59,0.44280400000002373
2048,456.24185743541756,57,0.6780980000000341,77,0.23529400000001033
2049,456.47715143541757,60,0.23529400000001033,80,1.2908600000000092
2050,456.9199554354176,55,0.44280400000002373,72,0.41961104166665564
2051,457.3439834354176,55,0.42402800000002117,73,0.41961104166665564
2052,457.7680114354176,58,0.4240279999999643,85,0.856597000000022
2053,458.2108154354176,55,0.44280400000002373,79,0.4137929999999983
2054,458.6246084354176,60,0.4137929999999983,93,0.49382700000001023
2055,459.1184354354176,61,0.49382700000001023,101,0.44943799999998646
2056,459.5678734354176,37,0.44943799999998646,66,0.4656830000000127
2057,459.7925924354176,73,0.22471899999999323,95,0.2208836666666798
2058,460.0335564354176,75,0.2409640000000195,101,0.45902699999999186
2059,460.2670194354176,73,0.233462999999972,95,0.20676700000001347
2060,460.4925834354176,72,0.22556400000001986,97,0.44444399999997586
2061,460.7148054354176,70,0.22222199999998793,95,0.20370350000001736
2062,460.9370274354176,69,0.22222199999998793,94,0.4444440000000327
2063,461.1592494354176,70,0.22222200000004477,93,0.2037034999999605
2064,461.3814714354176,68,0.22222199999998793,93,0.4498892499999556
2065,461.7172921854176,66,0.3358207499999821,92,0.08555137500002274
2066,461.83136068541756,66,0.11406849999997348,91,0.44280400000002373
2067,462.0527626854176,65,0.22140200000001187,90,0.2029518333333158
2068,462.2741646854176,63,0.22140200000001187,89,0.4428039999999669
2069,462.49556668541754,61,0.22140199999995502,86,0.20295183333337263
2070,462.71696868541756,60,0.22140200000001187,85,0.45395999999999503
2071,462.93837068541757,58,0.22140200000001187,83,0.21317816666669387
2072,463.17092868541755,57,0.23255799999998317,85,0.4862835000000132
2073,463.3322190187509,54,0.16129033333334064,85,0.14112904166665885
2074,463.49350935208423,53,0.16129033333334064,86,0.14233529166665448
2075,463.65721218541756,53,0.1637028333333319,88,0.6115659999999252
2076,463.7773126854176,53,0.12010050000003503,88,0.11365075416665604
2077,463.8985776520842,53,0.12126496666661524,88,0.11475722083332585
2078,464.02102718541755,53,0.12244953333333797,89,0.1158881583333482
2079,464.14468736875085,53,0.12366018333329976,89,0.11639850416662512
2080,464.2687781854175,53,0.12409081666663724,90,0.6261620000000221
2081,464.42315310208414,53,0.15437491666665437,90,0.12966866666670285
2082,464.5788634354175,53,0.15571033333333162,91,0.13102779166666778
2083,464.7362070187508,53,0.1573435833333292,91,0.1321374166666942
2084,464.8949401854175,53,0.1587331666667069,91,0.2519950000000222
2085,465.14693518541753,73,0.2519950000000222,87,0.10062791666666726
2086,465.2676886854175,60,0.12075349999997798,76,0.10062791666666726
2087,465.38844218541755,46,0.12075350000003482,66,0.24270474999997305
2088,465.5091956854175,70,0.12075349999997798,79,0.10162604166669098
2089,465.6311469354175,70,0.12195124999999507,87,0.12048199999998133
2090,465.7516289354175,57,0.12048199999998133,75,0.10040166666669847
2091,465.87211093541754,46,0.12048200000003817,64,0.243432749999954
2092,465.9925929354175,65,0.12048199999998133,79,0.10245895833332952
2093,466.1155436854175,65,0.12295074999997269,87,0.12048199999998133
2094,466.2360256854175,52,0.12048199999998133,78,0.10040166666669847
2095,466.3565076854175,46,0.12048200000003817,64,0.2426031666666404
2096,466.4769896854175,61,0.12048199999998133,78,0.10171300000001793
2097,466.59911085208415,61,0.12212116666665906,87,0.12048199999998133
2098,466.71959285208413,49,0.12048199999998133,75,0.10040166666669847
2099,466.8400748520842,46,0.12048200000003817,64,0.2424332499999764
2100,466.96055685208415,63,0.12048199999998133,78,0.10162604166669098
2101,467.08250810208415,63,0.12195124999999507,87,0.12048199999998133
2102,467.20299010208413,53,0.12048199999998133,75,0.10040166666669847
2103,467.32347210208417,52,0.12048200000003817,75,0.2424332499999764
2104,467.44395410208415,51,0.12048199999998133,75,0.10162604166669098
2105,467.56590535208414,63,0.12195124999999507,87,0.12048199999998133
2106,467.6863873520841,53,0.12048199999998133,74,0.10040166666669847
2107,467.80686935208416,52,0.12048200000003817,76,0.24126470833328995
2108,467.9272113937508,51,0.12034204166661766,76,0.10071250000004284
2109,468.04813406041745,63,0.12092266666667228,87,0.121516999999983
2110,468.16965106041744,53,0.121516999999983,76,0.10173562500000344
2111,468.2917682270841,52,0.12211716666666916,76,0.2461110000000417
2112,468.41447456041743,51,0.12270633333332626,76,0.10276229166669282
2113,468.53787922708415,60,0.12340466666671546,87,0.12402541666665456
2114,468.6619046437508,51,0.12402541666665456,76,0.10381587500000933
2115,468.78653651875084,61,0.12463187500003414,87,0.25305800000001
2116,469.03959451875085,73,0.25305800000001,87,0.12177300000001878
2117,469.16136751875086,60,0.12177300000001878,76,0.10147749999998723
2118,469.2831405187508,46,0.12177299999996194,66,0.24522975000002134
2119,469.40491351875085,70,0.12177300000001878,79,0.1028806250000116
2120,469.52837026875085,70,0.12345675000000256,87,0.12145750000001954
2121,469.64982776875087,57,0.12145750000001954,75,0.10121458333333067
2122,469.77128526875083,46,0.12145749999996269,64,0.24440824999999222
2123,469.89274276875085,65,0.12145750000001954,79,0.10245895833332952
2124,470.0156935187508,65,0.12295074999997269,87,0.12145750000001954
2125,470.13715101875084,52,0.12145750000001954,78,0.10121458333333067
2126,470.2586085187508,46,0.12145749999996269,64,0.2454245000000128
2127,470.3800660187508,61,0.12145750000001954,78,0.10330583333330878
2128,470.5040330187508,61,0.12396699999999328,87,0.12145750000001954
2129,470.62549051875084,49,0.12145750000001954,75,0.10121458333333067
2130,470.7469480187508,46,0.12145749999996269,64,0.2454245000000128
2131,470.8684055187508,63,0.12145750000001954,78,0.10330583333330878
2132,470.9923725187508,63,0.12396699999999328,87,0.12177300000001878
2133,471.11414551875083,53,0.12177300000001878,75,0.10147749999998723
2134,471.2359185187508,52,0.12177299999996194,75,0.24354600000003757
2135,471.3576915187508,51,0.12177300000001878,75,0.10147749999998723
2136,471.47946451875083,63,0.12177300000001878,87,0.12177299999996194
2137,471.6012375187508,53,0.12177299999996194,74,0.10147750000004407
2138,471.7230105187508,52,0.12177300000001878,76,0.24354599999998072
2139,471.84478351875083,51,0.12177300000001878,76,0.10147749999998723
2140,471.9665565187508,63,0.12177299999996194,87,0.12194508333334397
2141,472.08850160208414,53,0.12194508333334397,76,0.10232887500001198
2142,472.2113829354175,52,0.12288133333333917,76,0.24946208333335562
2143,472.3354939354175,51,0.12411100000002762,76,0.10435150000000704
2144,472.46084501875083,60,0.125351083333328,87,0.12653758333334508
2145,472.5873826020842,51,0.12653758333334508,76,0.10637475000004315
2146,472.71512668541754,61,0.1277440833333685,87,0.281690000000026
2147,472.99681668541757,59,0.281690000000026,70,0.7431255000000192
2148,473.1206709354176,71,0.12385425000002215,72,0.1238542499999653
2149,473.24452518541756,59,0.1238542499999653,72,0.12385425000002215
2150,473.3683794354176,59,0.12385425000002215,75,0.1238542499999653
2151,473.49223368541755,46,0.1238542499999653,77,0.2477085000000443
2152,473.61608793541757,58,0.12385425000002215,77,0.12385425000002215
2153,473.7399421854176,45,0.12385425000002215,87,0.2415070000000128
2154,473.86069568541757,57,0.12075349999997798,77,0.12075350000003482
2155,473.9814491854176,57,0.12075350000003482,77,0.2415070000000128
2156,474.1022026854176,69,0.12075349999997798,77,0.12075350000003482
2157,474.2229561854176,58,0.12075350000003482,87,0.24150699999995595
2158,474.3437096854176,70,0.12075349999997798,75,0.12075349999997798
2159,474.46446318541757,58,0.12075349999997798,75,0.2752295000000231
2160,474.6020779354176,58,0.13761475000001155,75,0.13761475000001155
2161,474.7396926854176,47,0.13761475000001155,77,0.9972525000000019
2162,474.8652156854176,59,0.12552299999998695,72,0.12552299999998695
2163,474.99073868541757,59,0.12552299999998695,74,0.49747100000001865
2164,475.11510643541754,71,0.12436774999997624,76,0.12436775000003308
2165,475.2394741854176,59,0.12436775000003308,76,0.12436774999997624
2166,475.36384193541755,59,0.12436774999997624,78,0.12436775000003308
2167,475.4882096854176,46,0.12436775000003308,77,0.24873550000000932
2168,475.61257743541756,58,0.12436774999997624,77,0.12436775000003308
2169,475.7369451854176,45,0.12436775000003308,87,0.24252200000000812
2170,475.8582061854176,57,0.12126100000000406,77,0.12126100000000406
2171,475.9794671854176,57,0.12126100000000406,77,0.24252200000000812
2172,476.1007281854176,69,0.12126100000000406,77,0.12126100000000406
2173,476.2219891854176,58,0.12126100000000406,87,0.24252200000000812
2174,476.3432501854176,70,0.12126100000000406,75,0.12126100000000406
2175,476.4645111854176,58,0.12126100000000406,75,0.25305800000001
2176,476.5910401854176,58,0.126529000000005,75,0.126529000000005
2177,476.71756918541763,44,0.126529000000005,77,0.24909466666662183
2178,476.84409818541764,56,0.126529000000005,71,0.12256566666661683
2179,476.96666385208425,56,0.12256566666661683,70,0.24354600000003757
2180,477.08843685208427,68,0.12177300000001878,71,0.12177300000001878
2181,477.2102098520843,56,0.12177300000001878,68,0.48709199999996144
2182,477.33198285208425,54,0.12177299999996194,77,0.12177300000001878
2183,477.45375585208427,42,0.12177300000001878,69,0.24354599999998072
2184,477.5755288520843,54,0.12177300000001878,69,0.12177299999996194
2185,477.69730185208425,41,0.12177299999996194,77,0.4870920000000183
2186,477.81907485208427,53,0.12177300000001878,69,0.12177300000001878
2187,477.9408478520843,53,0.12177300000001878,69,0.24354599999998072
2188,478.06262085208425,65,0.12177299999996194,69,0.12177300000001878
2189,478.18439385208427,53,0.12177300000001878,77,0.49409650000001193
2190,478.3061668520843,51,0.12177300000001878,67,0.12177299999996194
2191,478.42793985208425,39,0.12177299999996194,67,0.2505505000000312
2192,478.54971285208427,51,0.12177300000001878,67,0.12877750000001242
2193,478.6784903520843,39,0.12877750000001242,77,0.24354599999998072
2194,478.8002633520843,51,0.12177300000001878,69,0.12177299999996194
2195,478.92203635208426,51,0.12177299999996194,69,0.24354600000003757
2196,479.0438093520843,63,0.12177300000001878,69,0.12177300000001878
2197,479.1655823520843,51,0.12177300000001878,77,0.24354599999998072
2198,479.28735535208426,63,0.12177299999996194,67,0.12177300000001878
2199,479.4091283520843,49,0.12177300000001878,67,0.24354599999998072
2200,479.5309013520843,61,0.12177300000001878,67,0.12177299999996194
2201,479.65267435208426,49,0.12177299999996194,77,0.24406225000001314
2202,479.7744473520843,61,0.12177300000001878,69,0.12228924999999435
2203,479.8967366020843,48,0.12228924999999435,69,0.24610450000000128
2204,480.01952635208426,60,0.12278974999998127,69,0.12331475000002001
2205,480.1428411020843,46,0.12331475000002001,77,0.4985569999999484
2206,480.2666953520843,58,0.12385425000002215,67,0.12436774999997624
2207,480.3910631020843,45,0.12436774999997624,67,0.25033499999995
2208,480.51595910208425,57,0.12489599999997836,67,0.12543899999997166
2209,480.6413981020842,58,0.12543899999997166,87,0.13824875000000247
2210,480.6483105395842,37,0.006912437499977386,53,0.13824875000000247
2211,480.91789560208423,59,0.26958506250002756,70,0.7431255000000192
2212,481.04174985208425,71,0.12385425000002215,72,0.1238542499999653
2213,481.1656041020842,59,0.1238542499999653,72,0.12385425000002215
2214,481.28945835208424,59,0.12385425000002215,75,0.1238542499999653
2215,481.4133126020842,46,0.1238542499999653,77,0.2477085000000443
2216,481.5371668520842,58,0.12385425000002215,77,0.12385425000002215
2217,481.66102110208425,45,0.12385425000002215,87,0.2415070000000128
2218,481.7817746020842,57,0.12075349999997798,77,0.12075350000003482
2219,481.90252810208426,57,0.12075350000003482,77,0.2415070000000128
2220,482.02328160208424,69,0.12075349999997798,77,0.12075350000003482
2221,482.1440351020843,58,0.12075350000003482,87,0.24150699999995595
2222,482.26478860208425,70,0.12075349999997798,75,0.12075349999997798
2223,482.38554210208423,58,0.12075349999997798,75,0.270270499999981
2224,482.52067735208425,58,0.1351352500000189,75,0.13513524999996207
2225,482.6558126020842,47,0.13513524999996207,77,0.9993710000000533
2226,482.7823948520842,59,0.12658225000001266,72,0.12658225000001266
2227,482.90897710208424,59,0.12658225000001266,74,0.746206500000028
2228,483.0333448520842,71,0.12436774999997624,76,0.12436775000003308
2229,483.15771260208425,59,0.12436775000003308,76,0.24873550000000932
2230,483.2820803520842,59,0.12436774999997624,78,0.12436775000003308
2231,483.40644810208425,46,0.12436775000003308,77,0.24873550000000932
2232,483.53081585208423,58,0.12436774999997624,77,0.12436775000003308
2233,483.65518360208426,45,0.12436775000003308,87,0.24252200000000812
2234,483.77644460208427,57,0.12126100000000406,77,0.12126100000000406
2235,483.8977056020843,57,0.12126100000000406,77,0.24252200000000812
2236,484.0189666020843,69,0.12126100000000406,77,0.12126100000000406
2237,484.1402276020843,58,0.12126100000000406,87,0.24252200000000812
2238,484.2614886020843,70,0.12126100000000406,75,0.12126100000000406
2239,484.3827496020843,58,0.12126100000000406,75,0.25305800000001
2240,484.5092786020843,58,0.126529000000005,75,0.126529000000005
2241,484.6358076020843,44,0.126529000000005,77,0.24909466666662183
2242,484.7623366020843,56,0.126529000000005,71,0.12256566666661683
2243,484.8849022687509,56,0.12256566666661683,70,0.24354600000003757
2244,485.00667526875094,68,0.12177300000001878,71,0.12177300000001878
2245,485.12844826875096,56,0.12177300000001878,68,0.12177299999996194
2246,485.2502212687509,54,0.12177299999996194,77,0.12177300000001878
2247,485.37199426875094,42,0.12177300000001878,69,0.24354599999998072
2248,485.49376726875096,54,0.12177300000001878,69,0.12177299999996194
2249,485.6155402687509,41,0.12177299999996194,77,0.2508714999999597
2250,485.74359226875094,53,0.12805200000002515,71,0.12281949999993458
2251,485.8664117687509,53,0.12281949999993458,70,0.24354600000003757
2252,485.9881847687509,65,0.12177300000001878,71,0.12177300000001878
2253,486.1099577687509,53,0.12177300000001878,68,0.12177299999996194
2254,486.2317307687509,52,0.12177299999996194,77,0.12177300000001878
2255,486.3535037687509,40,0.12177300000001878,69,0.24354599999998072
2256,486.4752767687509,52,0.12177300000001878,69,0.12177299999996194
2257,486.5970497687509,39,0.12177299999996194,77,0.24901999999997315
2258,486.7235147687509,51,0.12646499999999605,71,0.1225549999999771
2259,486.84606976875085,51,0.1225549999999771,70,0.24354600000003757
2260,486.96784276875087,63,0.12177300000001878,71,0.12177300000001878
2261,487.0896157687509,50,0.12177300000001878,68,0.24354599999998072
2262,487.21138876875085,62,0.12177299999996194,73,0.12177300000001878
2263,487.33316176875087,51,0.12177300000001878,70,0.24354599999998072
2264,487.4549347687509,63,0.12177300000001878,70,0.12177299999996194
2265,487.57670776875085,51,0.12177299999996194,79,0.24963191666665807
2266,487.70369726875083,63,0.12698949999997922,73,0.12264241666667886
2267,487.8263396854175,54,0.12264241666667886,72,0.24354600000003757
2268,487.9481126854175,66,0.12177300000001878,74,0.12177300000001878
2269,488.06988568541755,53,0.12177300000001878,71,0.24354599999998072
2270,488.1916586854175,65,0.12177299999996194,81,0.12177300000001878
2271,488.3134316854175,54,0.12177300000001878,72,0.24354599999998072
2272,488.43520468541755,66,0.12177300000001878,73,0.12177299999996194
2273,488.5569776854175,54,0.12177299999996194,82,0.24963191666665807
2274,488.6839671854175,66,0.12698949999997922,75,0.12264241666667886
2275,488.80660960208417,57,0.12264241666667886,75,0.24354600000003757
2276,488.9283826020842,69,0.12177300000001878,76,0.12177300000001878
2277,489.0501556020842,56,0.12177300000001878,73,0.24354599999998072
2278,489.17192860208417,68,0.12177299999996194,84,0.12177300000001878
2279,489.2937016020842,57,0.12177300000001878,75,0.24354599999998072
2280,489.4154746020842,69,0.12177300000001878,75,0.12177299999996194
2281,489.53724760208416,57,0.12177299999996194,86,0.24963191666665807
2282,489.66423710208414,69,0.12698949999997922,78,0.12264241666667886
2283,489.7868795187508,60,0.12264241666667886,78,0.4870920000000183
2284,489.90865251875084,72,0.12177300000001878,79,0.12177300000001878
2285,490.03042551875086,61,0.12177300000001878,76,0.24354599999998072
2286,490.1521985187508,73,0.12177299999996194,87,0.12177300000001878
2287,490.27397151875084,63,0.12177300000001878,78,0.25251475000004575
2288,490.39574451875086,75,0.12177300000001878,78,0.13074175000002697
2289,490.5264862687509,63,0.13074175000002697,89,0.2499402499999519
2290,490.65347576875087,75,0.12698949999997922,81,0.12295074999997269
2291,490.77642651875084,61,0.12295074999997269,80,0.24590150000000222
2292,490.89937726875087,73,0.12295075000002953,81,0.12295074999997269
2293,491.02232801875084,61,0.12295074999997269,77,0.24590150000000222
2294,491.14527876875087,73,0.12295075000002953,89,0.12295074999997269
2295,491.26822951875084,60,0.12295074999997269,78,0.24590150000000222
2296,491.3911802687509,72,0.12295075000002953,78,0.12295074999997269
2297,491.51413101875085,60,0.12295074999997269,89,0.2547492500000317
2298,491.64543351875085,72,0.13130250000000387,81,0.1234467500000278
2299,491.7688802687509,58,0.1234467500000278,80,0.24689349999999877
2300,491.89232701875085,70,0.12344674999997096,81,0.1234467500000278
2301,492.0157737687509,58,0.1234467500000278,77,0.24689349999999877
2302,492.13922051875085,70,0.12344674999997096,89,0.1234467500000278
2303,492.2626672687509,53,0.1234467500000278,78,0.25310349999995196
2304,492.38611401875085,65,0.12344674999997096,78,0.129656749999981
2305,492.5157707687508,37,0.129656749999981,61,0.13185650000002624
2306,492.64762726875085,61,0.13185650000002624,77,0.12443999999999278
2307,492.77206726875085,73,0.12443999999999278,84,0.24887999999998556
2308,492.89650726875084,61,0.12443999999999278,80,0.12443999999999278
2309,493.02094726875083,73,0.12443999999999278,82,0.12444000000004962
2310,493.1453872687509,61,0.12444000000004962,79,0.12443999999999278
2311,493.2698272687509,72,0.12443999999999278,85,0.24887999999998556
2312,493.39426726875087,60,0.12443999999999278,81,0.12443999999999278
2313,493.51870726875086,72,0.12443999999999278,88,0.13130250000000387
2314,493.65000976875086,60,0.13130250000000387,79,0.12493749999998727
2315,493.77494726875085,70,0.12493749999998727,87,0.24987500000003138
2316,493.89988476875084,58,0.12493749999998727,80,0.12493750000004411
2317,494.0248222687509,70,0.12493750000004411,89,0.12493749999998727
2318,494.14975976875087,58,0.12493749999998727,79,0.12493749999998727
2319,494.27469726875086,65,0.12493749999998727,89,0.2567940000000135
2320,494.39963476875084,53,0.12493749999998727,81,0.13185650000002624
2321,494.53149126875087,37,0.13185650000002624,87,0.1318564999999694
2322,494.66334776875084,65,0.1318564999999694,87,0.1234467500000278
2323,494.78679451875087,77,0.1234467500000278,95,0.12344674999997096
2324,494.91024126875084,65,0.12344674999997096,86,0.1234467500000278
2325,495.03368801875087,65,0.1234467500000278,86,0.12344674999997096
2326,495.15713476875084,53,0.12344674999997096,78,0.1234467500000278
2327,495.28058151875086,65,0.1234467500000278,88,0.12344674999997096
2328,495.40402826875084,53,0.12344674999997096,78,0.13185650000002624
2329,495.53588476875086,53,0.13185650000002624,81,0.12394649999998819
2330,495.65983126875085,41,0.12394649999998819,77,0.12394649999998819
2331,495.78377776875084,53,0.12394649999998819,82,0.12394650000004503
2332,495.9077242687509,41,0.12394650000004503,76,0.12394649999998819
2333,496.03167076875087,41,0.12394649999998819,82,0.12394649999998819
2334,496.15561726875086,29,0.12394649999998819,74,0.12394649999998819
2335,496.27956376875085,41,0.12394649999998819,82,0.12394649999998819
2336,496.40351026875084,29,0.12394649999998819,64,0.13074175000002697
2337,496.53425201875086,21,0.13074175000002697,93,0.1284817916666725
2338,496.66273381041754,22,0.1284817916666725,81,0.12929224999999178
2339,496.7920260604175,43,0.12929224999999178,90,0.13010770833329843
2340,496.9221337687508,29,0.13010770833329843,77,0.13102212499995858
2341,497.0531558937508,28,0.13102212499995858,93,0.13185924999999088
2342,497.1850151437508,29,0.13185924999999088,85,0.1328026666666915
2343,497.31781781041747,43,0.1328026666666915,90,0.13376191666668547
2344,497.45157972708415,29,0.13376191666668547,81,0.13463500000000295
2345,497.58621472708415,21,0.13463500000000295,93,0.13492899999999963
2346,497.72114372708415,22,0.13492899999999963,81,0.1364021250000178
2347,497.8575458520842,43,0.1364021250000178,90,0.13791770833330474
2348,497.9954635604175,29,0.13791770833330474,77,0.139683166666714
2349,498.1351467270842,28,0.139683166666714,93,0.14448208333328694
2350,498.2796288104175,29,0.14448208333328694,85,0.1510677083333576
2351,498.43069651875084,43,0.1510677083333576,90,0.1581234583333071
2352,498.58881997708414,29,0.1581234583333071,81,0.1906212916666732
2353,498.7794412687508,17,0.1906212916666732,97,0.7594940000000179
2354,499.53893526875083,34,0.7594940000000179,54,0.09070529166666574
2355,499.6296405604175,35,0.09070529166666574,54,0.08978716666666742
2356,499.71942772708417,36,0.08978716666666742,55,0.09153466666668919
2357,499.81096239375086,37,0.09153466666668919,55,0.09111854166667399
2358,499.90208093541753,38,0.09111854166667399,56,0.09009104166671023
2359,499.99217197708424,39,0.09009104166671023,56,0.08999454166666965
2360,500.0821665187509,40,0.08999454166666965,56,0.09206016666666983
2361,500.1742266854176,41,0.09206016666666983,57,0.09163933333337582
2362,500.26586601875096,42,0.09163933333337582,57,0.09019391666669208
2363,500.35605993541765,43,0.09019391666669208,58,0.09060716666664348
2364,500.4466671020843,44,0.09060716666664348,58,0.09153466666668919
2365,500.538201768751,45,0.09153466666668919,58,0.08978979166664658
2366,500.6279915604176,34,0.08978979166664658,69,0.406453041666623
2367,500.71778047708426,47,0.08978891666663458,59,0.09132416666665222
2368,500.8091046437509,48,0.09132416666665222,60,0.09029579166667645
2369,500.8994004354176,49,0.09029579166667645,60,0.08958958333334976
2370,500.98899001875094,50,0.08958958333334976,60,0.09111666666666451
2371,501.03444460208425,34,0.045454583333309984,62,0.13636737499996343
2372,501.0801066854176,51,0.04566208333335453,61,0.0907052916666089
2373,501.1708119770842,40,0.0907052916666089,69,0.5449826249999887
2374,501.2604981437509,53,0.08968616666669504,63,0.09091754166661303
2375,501.3514156854175,54,0.09091754166661303,63,0.09142991666669786
2376,501.4428456020842,55,0.09142991666669786,64,0.09019291666663776
2377,501.53303851875086,56,0.09019291666663776,64,0.09153466666668919
2378,501.62457318541755,57,0.09153466666668919,64,0.09122141666665584
2379,501.7157946020842,43,0.09122141666665584,69,0.4064431250000098
2380,501.80558176875087,59,0.08978716666666742,65,0.09029579166667645
2381,501.89587756041755,60,0.09029579166667645,66,0.09132416666665222
2382,501.9872017270842,61,0.09132416666665222,66,0.0901929166666946
2383,502.0773946437509,62,0.0901929166666946,66,0.08999004166662417
2384,502.1222377270842,37,0.0448430833333191,62,0.13636737499996343
2385,502.1673846854175,63,0.045146958333305065,67,0.09122041666665837
2386,502.2586051020842,34,0.09122041666665837,69,0.5403616250000596
2387,502.34889901875084,65,0.09029391666666697,68,0.08978716666666742
2388,502.4386861854175,66,0.08978716666666742,68,0.08938579166670024
2389,502.5280719770842,67,0.08938579166670024,68,0.09091191666669829
2390,502.6189838937509,68,0.09091191666669829,69,0.09029579166667645
2391,502.7092796854176,69,0.09029579166667645,69,0.0896870416666502
2392,502.79896672708423,70,0.0896870416666502,70,0.3411363749999623
2393,502.8905013937509,71,0.09153466666668919,70,0.09111854166667399
2394,502.9816199354176,72,0.09111854166667399,70,0.08999004166662417
2395,503.0716099770842,73,0.08999004166662417,71,0.09132416666665222
2396,503.1401031020842,29,0.06849312499997495,67,4.373317708333957
2397,503.1629341437509,74,0.022831041666677265,71,0.09122041666671521
2398,503.20859622708423,36,0.04566208333335453,68,4.304824583333925
2399,503.2541545604176,76,0.04555833333336068,72,0.09049766666669257
2400,503.27677897708423,39,0.02262441666664472,70,4.23664183333392
2401,503.3446522270843,78,0.06787325000004785,88,2.561768666666808
2402,503.4446522270843,77,0.10000000000002274,80,0.09189553333334288
2403,503.53654776041765,80,0.09189553333334288,80,0.08964349999996557
2404,503.6261912604176,78,0.08964349999996557,81,0.08978737500001444
2405,503.7159786354176,77,0.08978737500001444,79,0.09001853333336385
2406,503.805997168751,75,0.09001853333336385,79,0.08992964166668571
2407,503.8959268104177,74,0.08992964166668571,79,0.08978583333333745
2408,503.985712643751,77,0.08978583333333745,79,0.0898490416666391
2409,504.07556168541765,75,0.0898490416666391,79,0.0897954916667345
2410,504.1653571770844,73,0.0897954916667345,79,0.08984005833332276
2411,504.2551972354177,72,0.08984005833332276,79,0.08984947500005092
2412,504.34504671041776,70,0.08984947500005092,79,0.08942848333333586
2413,504.4344751937511,69,0.08942848333333586,79,0.08921587500003625
2414,504.52369106875113,72,0.08921587500003625,79,0.08949965833329543
2415,504.61319072708443,70,0.08949965833329543,79,0.08870570833335023
2416,504.7018964354178,69,0.08870570833335023,84,0.08840874999998505
2417,504.79030518541776,66,0.08840874999998505,80,0.08793387499997607
2418,504.87823906041774,65,0.08793387499997607,80,0.08746374999998352
2419,504.9657028104177,66,0.08746374999998352,80,0.08699887500006298
2420,505.0527016854178,65,0.08699887500006298,79,0.0865385833333221
2421,505.1392402687511,68,0.0865385833333221,79,0.08608349999997245
2422,505.2253237687511,66,0.08608349999997245,79,0.08559212500000513
2423,505.3109158937511,65,0.08559212500000513,78,0.08522725000000264
2424,505.3961431437511,63,0.08522725000000264,77,0.08522725000000264
2425,505.4813703937511,62,0.08522725000000264,77,0.08522725000000264
2426,505.5665976437511,65,0.08522725000000264,76,0.08502600000002758
2427,505.6516236437511,63,0.08502600000002758,76,0.08498574999998709
2428,505.7366093937511,61,0.08498574999998709,75,0.08498574999998709
2429,505.8215951437511,60,0.08498574999998709,75,0.08482574999999315
2430,505.9064208937511,45,0.08482574999999315,80,1.605591466667022
2431,505.99100747708445,57,0.08458658333336189,75,0.08478616666667449
2432,506.0757936437511,60,0.08478616666667449,75,0.08399562500005686
2433,506.1597892687512,58,0.08399562500005686,75,0.08486595833335286
2434,506.24465522708454,57,0.08486595833335286,75,0.08419233333336251
2435,506.3288475604179,54,0.08419233333336251,75,0.08470841666667184
2436,506.41355597708457,53,0.08470841666667184,75,0.08443099999999504
2437,506.49798697708457,54,0.08443099999999504,74,0.08478933333333316
2438,506.5827763104179,53,0.08478933333333316,74,0.0847087083333804
2439,506.6674850187513,56,0.0847087083333804,74,0.08490804166666521
2440,506.75239306041794,54,0.08490804166666521,74,0.0842705000000592
2441,506.836663560418,53,0.0842705000000592,74,0.08458683333333283
2442,506.92125039375134,51,0.08458683333333283,74,0.0841927499999997
2443,507.00544314375134,50,0.0841927499999997,74,0.0849535833333448
2444,507.0903967270847,53,0.0849535833333448,73,0.08479325000001836
2445,507.1751899770847,51,0.08479325000001836,73,0.08470662500008075
2446,507.2598966020848,49,0.08470662500008075,73,0.08431033333329196
2447,507.3442069354181,48,0.08431033333329196,73,0.0847066250000239
2448,507.4289135604181,46,0.0847066250000239,73,0.08450725000005832
2449,507.51342081041815,45,0.08450725000005832,74,0.08450699999997369
2450,507.5979278104181,42,0.08450699999997369,75,0.08434883333330845
2451,507.68227664375144,41,0.08434883333330845,76,0.0839553333333356
2452,507.7662319770848,39,0.0839553333333356,76,0.08364333333327068
2453,507.84987531041804,37,0.08364333333327068,76,0.08325633333333826
2454,507.9331316437514,36,0.08325633333333826,79,0.08294950000004064
2455,508.0160811437514,34,0.08294950000004064,81,0.08256899999997813
2456,508.0986501437514,33,0.08256899999997813,83,0.08226700000000164
2457,508.1809171437514,30,0.08226700000000164,84,0.08189275000000862
2458,508.2628098937514,29,0.08189275000000862,84,0.08159574999996266
2459,508.3444056437514,27,0.08159574999996266,85,0.08141124999997373
2460,508.42581689375135,25,0.08141124999997373,86,0.08193016666672293
2461,508.50774706041807,24,0.08193016666672293,88,0.08241799999996147
2462,508.59016506041803,22,0.08241799999996147,89,0.08291145833328528
2463,508.6730765187513,21,0.08291145833328528,91,0.0834493749999865
2464,508.7565258937513,18,0.0834493749999865,93,0.08399470833336409
2465,508.84052060208467,17,0.08399470833336409,94,0.08450749999997242
2466,508.92502810208464,15,0.08450749999997242,94,0.08502624999999853
2467,509.01005435208464,13,0.08502624999999853,95,0.08559212500000513
2468,509.09564647708464,12,0.08559212500000513,97,0.0861660416666723
2469,509.1818125187513,10,0.0861660416666723,115,0.7790739166666185
2470,509.96088643541793,24,0.7790739166666185,75,0.08502600000002758
2471,510.04591243541796,25,0.08502600000002758,75,0.0847457500000246
2472,510.130658185418,27,0.0847457500000246,76,0.0844674583333358
2473,510.2151256437513,29,0.0844674583333358,77,0.08423037500000419
2474,510.2993560187513,31,0.08423037500000419,77,0.0839553333333356
2475,510.38331135208466,33,0.0839553333333356,78,0.08372116666663487
2476,510.4670325187513,34,0.08372116666663487,78,0.08344937500004335
2477,510.55048189375134,36,0.08344937500004335,79,0.08317941666666684
2478,510.633661310418,37,0.08317941666666684,80,0.08310249999999542
2479,510.716763810418,39,0.08310249999999542,80,0.08310249999999542
2480,510.799866310418,41,0.08310249999999542,81,0.08310249999999542
2481,510.882968810418,43,0.08310249999999542,81,0.08310249999999542
2482,510.966071310418,45,0.08310249999999542,82,0.08321787500000255
2483,511.049289185418,46,0.08321787500000255,83,0.08376025000001164
2484,511.133049435418,48,0.08376025000001164,83,0.08427008333330832
2485,511.2173195187513,49,0.08427008333330832,84,0.08478595833338431
2486,511.3021054770847,51,0.08478595833338431,84,0.08534862499999463
2487,511.3874541020847,53,0.08534862499999463,85,0.08591925000001766
2488,511.4733733520847,55,0.08591925000001766,86,0.08645583333327522
2489,511.559829185418,57,0.08645583333327522,86,0.08699887500006298
2490,511.64682806041804,58,0.08699887500006298,89,0.37500000000005684
2491,513.1468280604181,37,1.5000000000000568,38,1.1842102499999783
2492,514.3310383104181,37,1.1842102499999783,38,0.39473674999999275
2493,514.7257750604181,37,0.39473674999999275,38,1.441647499999931
2494,516.4083863937514,29,1.6826113333332842,84,0.2315929999999753
2495,516.6399793937513,34,0.2315929999999753,80,0.22222216666671102
2496,516.862201560418,36,0.22222216666671102,85,0.22471916666665948
2497,517.0869207270847,39,0.22471916666665948,89,0.2127659999999878
2498,517.2996867270847,37,0.2127659999999878,83,0.1988635833333774
2499,517.5269593937513,37,0.22727266666663581,92,0.2999999999999545
2500,518.7269593937514,25,1.2000000000000455,85,1.2514492499999506
2501,519.9784086437513,27,1.2514492499999506,71,0.08683087500003239
2502,520.0652395187514,29,0.08683087500003239,71,0.08670525000002272
2503,520.1519447687514,31,0.08670525000002272,71,0.08645524999997178
2504,520.2384000187513,33,0.08645524999997178,72,0.0863725000000386
2505,520.3247725187514,34,0.0863725000000386,72,0.08620700000005854
2506,520.4109795187514,36,0.08620700000005854,72,0.08600116666661961
2507,520.4969806854181,37,0.08600116666661961,73,0.08591904166667064
2508,520.5828997270847,39,0.08591904166667064,73,0.08571425000002364
2509,520.6686139770848,41,0.08571425000002364,73,0.08555141666658983
2510,520.7541653937514,43,0.08555141666658983,74,0.0854295416667128
2511,520.8395949354181,45,0.0854295416667128,74,0.08522725000000264
2512,520.9248221854181,46,0.08522725000000264,74,0.08510649999993802
2513,521.009928685418,48,0.08510649999993802,75,0.08498574999998709
2514,521.094914435418,49,0.08498574999998709,75,0.0847457500000246
2515,521.179660185418,51,0.0847457500000246,75,0.08466616666669324
2516,521.2643263520847,53,0.08466616666669324,76,0.08450699999991684
2517,521.3488333520846,55,0.08450699999991684,76,0.0843092916667274
2518,521.4331426437514,57,0.0843092916667274,76,0.08419100000003255
2519,521.5173336437514,58,0.08419100000003255,77,0.08372149999991052
2520,521.6010551437513,60,0.08372149999991052,77,0.08372116666669172
2521,521.684776310418,61,0.08372116666669172,77,0.08399441666654184
2522,521.7687707270845,63,0.08399441666654184,78,0.08430929166661372
2523,521.8530800187511,65,0.08430929166661372,78,0.08458658333336189
2524,521.9376666020845,67,0.08458658333336189,78,0.084865749999949
2525,522.0225323520845,69,0.084865749999949,79,0.08514674999992167
2526,522.1076791020844,70,0.08514674999992167,79,0.0854295416667128
2527,522.1931086437511,72,0.0854295416667128,79,0.08575520833335304
2528,522.2788638520844,73,0.08575520833335304,87,0.2999999999999545
2529,523.4788638520845,41,1.2000000000000455,45,1.084337249999976
2530,524.5632011020845,41,1.084337249999976,45,0.3614457500000299
2531,524.9246468520845,41,0.3614457500000299,45,1.368052999999918
2532,526.5307950187511,41,1.6061481666665713,94,0.2326839166667014
2533,526.7634789354178,46,0.2326839166667014,94,0.22727266666663581
2534,526.9907516020844,49,0.22727266666663581,99,0.22727266666663581
2535,527.218024268751,54,0.22727266666663581,100,0.2127659999999878
2536,527.430790268751,53,0.2127659999999878,94,0.20114937499999996
2537,527.660675268751,53,0.22988499999996748,94,0.34750066666663315
2538,528.9564515604177,79,1.295776291666698,104,0.4788869187500495
2539,529.038950643751,67,0.08249908333334588,109,0.30340879166669765
2540,529.4323622895844,78,0.3934116458333392,106,0.3834196458334418
2541,529.5216479770844,66,0.08928568750002341,108,0.2941339583334184
2542,529.9029912479177,77,0.38134327083332664,104,0.3719380208334542
2543,529.9895322687512,65,0.08654102083346515,107,0.285396999999989
2544,530.3591989562511,76,0.3696666874999437,100,0.3518907708333927
2545,530.4428443937512,64,0.08364543750008124,106,0.26824533333331146
2546,530.7908769770845,75,0.3480325833332927,102,0.3411814333333041
2547,530.8702162937511,63,0.0793393166666192,103,0.2618421166666849
2548,531.2099149312512,74,0.3396986375000779,103,0.33284664583322865
2549,531.2872344937512,62,0.07731956249995164,102,0.255527083333277
2550,531.6185191395845,73,0.33128464583330697,102,0.3252625208334621
2551,531.6942767020845,61,0.07575756250002996,101,0.24950495833343211
2552,532.0180390979178,72,0.32376239583334154,101,0.31782509583342744
2553,532.0919082687512,60,0.0738691708334045,100,0.24395592500002294
2554,532.4084463604179,71,0.3165380916666436,99,0.3105803333334052
2555,532.480561735418,59,0.0721153750000667,99,0.23846495833333847
2556,532.8605360687513,70,0.3799743333333936,98,0.20014941666681807
2557,533.1198591520848,69,0.2593230833334701,97,0.1698615833332724
2558,533.3440701937515,68,0.22421104166664918,97,0.15669608333325868
2559,533.5510188187513,67,0.20694862499988176,96,0.1455479583332817
2560,533.7434054437513,66,0.19238662499992643,95,0.13577908333343203
2561,533.9224777770847,65,0.1790723333334654,94,0.12155049999989842
2562,534.0820532770846,64,0.15957549999984622,93,0.1079095416665723
2563,534.2239779854178,63,0.14192470833324933,91,0.09692041666664863
2564,534.3516687770845,62,0.12769079166662323,95,0.08801183333321205
2565,534.467692693751,61,0.11602391666656331,99,0.08071370000004663
2566,534.5751099687512,60,0.10741727500021625,103,0.08432918333346606
2567,534.6890705437514,59,0.11396057500019197,108,0.09412440833341407
2568,534.8164300937515,58,0.12735955000005106,113,0.41666699999996126
2569,535.6497640937515,70,0.8333340000000362,108,0.8333339999999225
2570,536.4830980937514,34,0.8333339999999225,117,1.5
2571,0.587976,49,0.0,49,0.322078
2572,0.910054,49,0.322078,48,0.10461983333333336
2573,1.0146738333333334,37,0.10461983333333336,37,0.10489750000000009
2574,1.1195713333333335,46,0.10489750000000009,37,0.10453433333333328
2575,1.2241056666666668,54,0.10453433333333328,52,0.10438966666666682
2576,1.3284953333333336,42,0.10438966666666682,39,0.10368016666666668
2577,1.4321755000000003,49,0.10368016666666668,40,0.10283050000000005
2578,1.5350060000000003,58,0.10283050000000005,56,0.10248133333333342
2579,1.6374873333333337,46,0.10248133333333342,41,0.1022039166666664
2580,1.7396912500000001,54,0.1022039166666664,44,0.10179041666666677
2581,1.841481666666667,61,0.10179041666666677,63,0.10144833333333336
2582,1.9429300000000003,49,0.10144833333333336,49,0.10110849999999982
2583,2.0440385,58,0.10110849999999982,50,0.10070391666666678
2584,2.144742416666667,66,0.10070391666666678,68,0.10037166666666675
2585,2.2451140833333336,54,0.10037166666666675,52,0.10004141666666655
2586,2.3451555,61,0.10004141666666655,55,0.09964525000000002
2587,2.44480075,70,0.09964525000000002,71,0.09860400000000036
2588,2.5434047500000005,58,0.09860400000000036,54,0.09931808333333292
2589,2.6427228333333335,61,0.09931808333333292,57,0.10010733333333377
2590,2.7428301666666672,68,0.10010733333333377,75,0.10050266666666641
2591,2.8433328333333336,53,0.10050266666666641,58,0.10185900000000014
2592,2.945191833333334,59,0.10185900000000014,56,0.1021346666666667
2593,3.0473265000000005,66,0.1021346666666667,72,0.10241166666666679
2594,3.1497381666666673,54,0.10241166666666679,56,0.10269033333333333
2595,3.2524285000000006,59,0.10269033333333333,55,0.10297066666666677
2596,3.3553991666666674,63,0.10297066666666677,68,0.10325233333333328
2597,3.4586515000000007,51,0.10325233333333328,51,0.10325233333333328
2598,3.561903833333334,59,0.10325233333333328,49,0.10797400000000001
2599,3.669877833333334,63,0.10797400000000001,70,0.10325233333333328
2600,3.7731301666666672,51,0.10325233333333328,51,0.10353566666666669
2601,3.876665833333334,58,0.10353566666666669,46,0.10382066666666656
2602,3.9804865000000005,61,0.10382066666666656,62,0.10417366666666616
2603,4.084660166666667,49,0.10417366666666616,43,0.10446200000000072
2604,4.189122166666667,54,0.10446200000000072,43,0.10475183333333327
2605,4.293874000000001,58,0.10475183333333327,60,0.10504349999999985
2606,4.3989175000000005,46,0.10504349999999985,43,0.1054103333333325
2607,4.504327833333333,49,0.1054103333333325,41,0.10484083333333327
2608,4.609168666666666,54,0.10484083333333327,53,0.10269033333333422
2609,4.7118590000000005,42,0.10269033333333422,38,0.10241166666666679
2610,4.814270666666667,48,0.10241166666666679,38,0.10213466666666626
2611,4.9164053333333335,53,0.10213466666666626,54,0.10185900000000014
2612,5.018264333333334,41,0.10185900000000014,44,0.10158466666666666
2613,5.119849,48,0.10158466666666666,48,0.10131200000000007
2614,5.221161,54,0.10131200000000007,64,0.101040666666667
2615,5.322201666666667,42,0.101040666666667,51,0.10077099999999994
2616,5.422972666666667,48,0.10077099999999994,55,0.10050266666666641
2617,5.523475333333334,58,0.10050266666666641,70,0.09847499999999965
2618,5.621950333333333,46,0.09847499999999965,55,0.09879733333333363
2619,5.720747666666667,49,0.09879733333333363,53,0.099121666666667
2620,5.819869333333334,56,0.099121666666667,65,0.09951374999999985
2621,5.919383083333334,44,0.09951374999999985,49,0.09984300000000079
2622,6.019226083333335,49,0.09984300000000079,47,0.10017425000000024
2623,6.119400333333335,53,0.10017425000000024,63,0.10056975000000001
2624,6.219970083333335,41,0.10056975000000001,42,0.10090583333333303
2625,6.320875916666668,44,0.10090583333333303,41,0.10077400000000036
2626,6.421649916666668,54,0.10077400000000036,53,0.10554099999999966
2627,6.527190916666668,42,0.10554099999999966,38,0.1039023333333331
2628,6.631093250000001,48,0.1039023333333331,38,0.1045070000000008
2629,6.735600250000002,53,0.1045070000000008,54,0.10403133333333336
2630,6.839631583333335,41,0.10403133333333336,44,0.10362733333333285
2631,6.943258916666668,48,0.10362733333333285,47,0.10315974999999966
2632,7.046418666666668,54,0.10315974999999966,59,0.10349374999999927
2633,7.149912416666667,42,0.10349374999999927,50,0.10457608333333379
2634,7.254488500000001,48,0.10457608333333379,54,0.12018799999999974
2635,7.3746765000000005,58,0.12018799999999974,67,0.10430549999999972
2636,7.478982,46,0.10430549999999972,49,0.10416699999999945
2637,7.583149,51,0.10416699999999945,48,0.10362733333333374
2638,7.686776333333333,56,0.10362733333333374,60,0.10309266666666694
2639,7.789869,44,0.10309266666666694,43,0.10309266666666606
2640,7.892961666666666,47,0.10309266666666606,42,0.10263058333333319
2641,7.99559225,51,0.10263058333333319,58,0.10423716666666749
2642,8.099829416666667,39,0.10423716666666749,42,0.10603316666666807
2643,8.205862583333335,44,0.10603316666666807,41,0.1059897499999991
2644,8.311852333333334,49,0.1059897499999991,53,0.10461983333333436
2645,8.416472166666669,37,0.10461983333333436,38,0.10489749999999987
2646,8.521369666666669,46,0.10489749999999987,37,0.1045343333333335
2647,8.625904000000002,54,0.1045343333333335,52,0.10438966666666616
2648,8.730293666666668,42,0.10438966666666616,39,0.10368016666666868
2649,8.833973833333337,49,0.10368016666666868,40,0.10283049999999783
2650,8.936804333333335,58,0.10283049999999783,56,0.10248133333333342
2651,9.039285666666668,46,0.10248133333333342,41,0.10220391666666728
2652,9.141489583333335,54,0.10220391666666728,44,0.10179041666666677
2653,9.243280000000002,61,0.10179041666666677,69,0.10200116666666581
2654,9.345281166666668,49,0.10200116666666581,49,0.10110850000000049
2655,9.446389666666668,58,0.10110850000000049,50,0.10070391666666545
2656,9.547093583333334,66,0.10070391666666545,74,0.10037166666666764
2657,9.647465250000002,54,0.10037166666666764,52,0.10004141666666655
2658,9.747506666666668,61,0.10004141666666655,55,0.09964525000000002
2659,9.847151916666668,70,0.09964525000000002,77,0.09860399999999991
2660,9.945755916666668,58,0.09860399999999991,63,0.09931808333333514
2661,10.045074000000003,61,0.09931808333333514,68,0.100107333333332
2662,10.145181333333335,68,0.100107333333332,81,0.1005026666666673
2663,10.245684000000002,53,0.1005026666666673,64,0.10185899999999926
2664,10.347543000000002,59,0.10185899999999926,61,0.10213466666666626
2665,10.449677666666668,66,0.10213466666666626,75,0.10241166666666679
2666,10.552089333333335,54,0.10241166666666679,56,0.10269033333333333
2667,10.654779666666668,59,0.10269033333333333,55,0.10297066666666588
2668,10.757750333333334,63,0.10297066666666588,67,0.10325233333333372
2669,10.861002666666668,51,0.10325233333333372,51,0.10325233333333372
2670,10.964255000000001,59,0.10325233333333372,49,0.10797400000000046
2671,11.072229000000002,63,0.10797400000000046,70,0.10325233333333372
2672,11.175481333333336,51,0.10325233333333372,42,0.1035356666666658
2673,11.279017000000001,58,0.1035356666666658,43,0.10382066666666745
2674,11.382837666666669,61,0.10382066666666745,62,0.10417366666666794
2675,11.487011333333337,49,0.10417366666666794,43,0.10446199999999806
2676,11.591473333333335,54,0.10446199999999806,43,0.10475183333333504
2677,11.69622516666667,58,0.10475183333333504,60,0.10504350000000073
2678,11.80126866666667,46,0.10504350000000073,43,0.10541033333333338
2679,11.906679000000004,54,0.10541033333333338,41,0.10484083333333416
2680,12.011519833333338,57,0.10484083333333416,57,0.10382066666666745
2681,12.115340500000006,45,0.10382066666666745,38,0.10241166666666679
2682,12.217752166666672,54,0.10241166666666679,37,0.10213466666666626
2683,12.319886833333339,56,0.10213466666666626,53,0.10185899999999926
2684,12.421745833333338,44,0.10185899999999926,39,0.10158466666666577
2685,12.523330500000004,54,0.10158466666666577,40,0.10131200000000007
2686,12.624642500000004,57,0.10131200000000007,59,0.10104066666666611
2687,12.72568316666667,45,0.10104066666666611,41,0.10077099999999994
2688,12.82645416666667,54,0.10077099999999994,44,0.1005026666666673
2689,12.926956833333337,58,0.1005026666666673,63,0.10104066666666611
2690,13.027997500000003,46,0.10104066666666611,42,0.10090583333333392
2691,13.128903333333337,53,0.10090583333333392,42,0.10070391666666545
2692,13.229607250000003,60,0.10070391666666545,67,0.1005026666666673
2693,13.33010991666667,48,0.1005026666666673,47,0.1002406666666662
2694,13.430350583333336,53,0.1002406666666662,52,0.10004141666666833
2695,13.530392000000004,61,0.10004141666666833,70,0.0998429999999999
2696,13.630235000000004,49,0.0998429999999999,51,0.0996452500000018
2697,13.729880250000006,53,0.0996452500000018,55,0.1005026666666673
2698,13.830382916666673,63,0.1005026666666673,75,0.10382066666666745
2699,13.93420358333334,51,0.10382066666666745,55,0.10241166666666679
2700,14.036615250000008,56,0.10241166666666679,55,0.10213466666666626
2701,14.138749916666674,65,0.10213466666666626,72,0.10185899999999926
2702,14.240608916666673,53,0.10185899999999926,54,0.10158466666666754
2703,14.34219358333334,56,0.10158466666666754,48,0.10131200000000007
2704,14.44350558333334,60,0.10131200000000007,67,0.10104066666666611
2705,14.544546250000007,48,0.10104066666666611,48,0.10077099999999994
2706,14.645317250000007,56,0.10077099999999994,50,0.11080333333333314
2707,14.75612058333334,63,0.11080333333333314,68,0.10236725000000035
2708,14.85848783333334,51,0.10236725000000035,52,0.10276175000000087
2709,14.961249583333341,56,0.10276175000000087,48,0.10322599999999937
2710,15.06447558333334,61,0.10322599999999937,67,0.10369425000000021
2711,15.16816983333334,49,0.10369425000000021,43,0.10416700000000034
2712,15.272336833333341,56,0.10416700000000034,42,0.11834333333333369
2713,15.390680166666675,56,0.11834333333333369,65,0.10309266666666694
2714,15.493772833333342,44,0.10309266666666694,42,0.10309266666666694
2715,15.596865500000009,49,0.10309266666666694,41,0.10128699999999746
2716,15.698152500000006,56,0.10128699999999746,59,0.10325233333333372
2717,15.80140483333334,44,0.10325233333333372,47,0.10425766666666725
2718,15.905662500000007,50,0.10425766666666725,41,0.105262999999999
2719,16.010925500000006,54,0.105262999999999,54,0.10204066666666733
2720,16.112966166666673,42,0.10204066666666733,41,0.10158466666666754
2721,16.21455083333334,49,0.10158466666666754,43,0.10131200000000007
2722,16.31586283333334,56,0.10131200000000007,64,0.10104066666666611
2723,16.416903500000007,40,0.10104066666666611,44,0.10077100000000172
2724,16.51767450000001,47,0.10077100000000172,47,0.10386591666666689
2725,16.621540416666676,59,0.10386591666666689,70,0.10424250000000157
2726,16.725782916666677,40,0.10424250000000157,53,0.09879733333333007
2727,16.824580250000007,49,0.09879733333333007,52,0.09912166666666877
2728,16.923701916666676,57,0.09912166666666877,67,0.09951374999999985
2729,17.023215666666676,40,0.09951374999999985,43,0.0998429999999999
2730,17.123058666666676,49,0.0998429999999999,42,0.10017424999999847
2731,17.223232916666674,52,0.10017424999999847,62,0.10056974999999824
2732,17.323802666666673,40,0.10056974999999824,42,0.10090583333333569
2733,17.42470850000001,49,0.10090583333333569,41,0.1007739999999977
2734,17.525482500000006,56,0.1007739999999977,53,0.10325233333333372
2735,17.62873483333334,40,0.10325233333333372,38,0.10241166666666501
2736,17.731146500000005,50,0.10241166666666501,38,0.10213466666666804
2737,17.833281166666673,54,0.10213466666666804,54,0.10185900000000103
2738,17.935140166666674,40,0.10185900000000103,41,0.10158466666666754
2739,18.03672483333334,49,0.10158466666666754,43,0.10131200000000007
2740,18.13803683333334,56,0.10131200000000007,59,0.10104066666666611
2741,18.239077500000008,40,0.10104066666666611,49,0.10077100000000172
2742,18.33984850000001,47,0.10077100000000172,47,0.1005026666666673
2743,18.440351166666677,59,0.1005026666666673,69,0.09847500000000053
2744,18.538826166666677,40,0.09847500000000053,51,0.09879733333333007
2745,18.637623500000007,49,0.09879733333333007,50,0.09912166666666877
2746,18.736745166666676,57,0.09912166666666877,67,0.09951374999999985
2747,18.836258916666676,40,0.09951374999999985,43,0.0998429999999999
2748,18.936101916666676,49,0.0998429999999999,42,0.10017424999999847
2749,19.036276166666674,52,0.10017424999999847,62,0.10056974999999824
2750,19.136845916666672,40,0.10056974999999824,42,0.10090583333333569
2751,19.237751750000008,49,0.10090583333333569,41,0.1007739999999977
2752,19.338525750000006,55,0.1007739999999977,58,0.11627899999999869
2753,19.454804750000005,43,0.11627899999999869,38,0.10241166666666501
2754,19.55721641666667,49,0.10241166666666501,38,0.10213466666666804
2755,19.659351083333338,61,0.10213466666666804,63,0.10185900000000103
2756,19.76121008333334,43,0.10185900000000103,44,0.10158466666666754
2757,19.862794750000006,52,0.10158466666666754,45,0.10131200000000007
2758,19.964106750000006,64,0.10131200000000007,68,0.10104066666666611
2759,20.065147416666672,49,0.10104066666666611,48,0.10077100000000172
2760,20.165918416666674,55,0.10077100000000172,51,0.1005026666666673
2761,20.26642108333334,65,0.1005026666666673,76,0.10104066666666611
2762,20.367461750000007,49,0.10104066666666611,53,0.10090583333333569
2763,20.468367583333343,56,0.10090583333333569,52,0.10070391666666723
2764,20.56907150000001,66,0.10070391666666723,72,0.1005026666666673
2765,20.669574166666678,49,0.1005026666666673,43,0.10024066666666798
2766,20.769814833333346,58,0.10024066666666798,43,0.10004141666666655
2767,20.869856250000012,62,0.10004141666666655,66,0.10010733333333377
2768,20.969963583333346,47,0.10010733333333377,53,0.10138166666666493
2769,21.07134525000001,53,0.10138166666666493,54,0.10262191666666709
2770,21.173967166666678,63,0.10262191666666709,71,0.10666666666666558
2771,21.280633833333344,48,0.10666666666666558,55,0.10437066666666794
2772,21.38500450000001,54,0.10437066666666794,52,0.10389641666666449
2773,21.488900916666676,65,0.10389641666666449,70,0.10335958333333295
2774,21.59226050000001,48,0.10335958333333295,51,0.10467158333333515
2775,21.696932083333344,56,0.10467158333333515,47,0.10542824999999922
2776,21.802360333333343,60,0.10542824999999922,62,0.10389599999999888
2777,21.906256333333342,48,0.10389599999999888,42,0.10389600000000243
2778,22.010152333333345,51,0.10389600000000243,43,0.10389599999999888
2779,22.114048333333344,63,0.10389599999999888,70,0.10178133333333506
2780,22.21582966666668,44,0.10178133333333506,48,0.1017813333333315
2781,22.31761100000001,54,0.1017813333333315,47,0.10178133333333506
2782,22.419392333333345,61,0.10178133333333506,65,0.10362699999999947
2783,22.523019333333345,44,0.10362699999999947,43,0.10362699999999947
2784,22.626646333333344,53,0.10362699999999947,42,0.11834333333333191
2785,22.744989666666676,56,0.11834333333333191,59,0.10178133333333506
2786,22.84677100000001,44,0.10178133333333506,42,0.1018395833333301
2787,22.94861058333334,49,0.1018395833333301,41,0.1009785833333332
2788,23.049589166666674,56,0.1009785833333332,57,0.10410166666666498
2789,23.15369083333334,44,0.10410166666666498,38,0.10241166666666501
2790,23.256102500000004,50,0.10241166666666501,38,0.10213466666666804
2791,23.358237166666672,54,0.10213466666666804,59,0.10185900000000103
2792,23.460096166666673,42,0.10185900000000103,45,0.10158466666666754
2793,23.56168083333334,49,0.10158466666666754,47,0.10131200000000007
2794,23.66299283333334,56,0.10131200000000007,66,0.10104066666666611
2795,23.764033500000007,40,0.10104066666666611,53,0.10077100000000172
2796,23.86480450000001,47,0.10077100000000172,56,0.1005026666666673
2797,23.965307166666676,59,0.1005026666666673,71,0.09847500000000053
2798,24.063782166666677,40,0.09847500000000053,53,0.09879733333333007
2799,24.162579500000007,49,0.09879733333333007,52,0.09912166666666877
2800,24.261701166666676,57,0.09912166666666877,66,0.09951374999999985
2801,24.361214916666675,40,0.09951374999999985,49,0.0998429999999999
2802,24.461057916666675,49,0.0998429999999999,46,0.10017424999999847
2803,24.561232166666674,52,0.10017424999999847,59,0.10056974999999824
2804,24.661801916666672,40,0.10056974999999824,42,0.10090583333333569
2805,24.762707750000008,49,0.10090583333333569,41,0.1007739999999977
2806,24.863481750000005,56,0.1007739999999977,56,0.10410166666666498
2807,24.96758341666667,40,0.10410166666666498,38,0.10241166666666501
2808,25.069995083333335,50,0.10241166666666501,38,0.10213466666666804
2809,25.172129750000003,54,0.10213466666666804,56,0.10185900000000103
2810,25.273988750000004,40,0.10185900000000103,43,0.10158466666666754
2811,25.375573416666672,49,0.10158466666666754,47,0.10131200000000007
2812,25.476885416666672,56,0.10131200000000007,66,0.10104066666666611
2813,25.577926083333338,40,0.10104066666666611,49,0.10077100000000172
2814,25.67869708333334,47,0.10077100000000172,54,0.1005026666666673
2815,25.779199750000007,59,0.1005026666666673,72,0.09847500000000053
2816,25.877674750000008,40,0.09847500000000053,53,0.09879733333333007
2817,25.976472083333338,49,0.09879733333333007,52,0.09912166666666877
2818,26.075593750000007,57,0.09912166666666877,68,0.09951374999999985
2819,26.175107500000006,40,0.09951374999999985,43,0.0998429999999999
2820,26.274950500000006,49,0.0998429999999999,42,0.10017424999999847
2821,26.375124750000005,56,0.10017424999999847,63,0.10056974999999824
2822,26.475694500000003,40,0.10056974999999824,42,0.10090583333333569
2823,26.57660033333334,49,0.10090583333333569,41,0.1007739999999977
2824,26.677374333333336,55,0.1007739999999977,60,0.10382066666666745
2825,26.781195000000004,40,0.10382066666666745,43,0.10241166666666501
2826,26.88360666666667,49,0.10241166666666501,43,0.10152874999999995
2827,26.98513541666667,58,0.10152874999999995,67,0.0989287499999989
2828,27.084064166666668,43,0.0989287499999989,44,0.09899166666666659
2829,27.183055833333334,52,0.09899166666666659,46,0.09931733333333526
2830,27.28237316666667,57,0.09931733333333526,63,0.09964524999999824
2831,27.382018416666668,42,0.09964524999999824,46,0.10004141666666655
2832,27.482059833333334,51,0.10004141666666655,49,0.09953199999999995
2833,27.581591833333334,60,0.09953199999999995,72,0.09726933333333321
2834,27.678861166666668,45,0.09726933333333321,47,0.09777333333333615
2835,27.776634500000004,54,0.09777333333333615,46,0.09828266666666607
2836,27.87491716666667,59,0.09828266666666607,71,0.09879733333333363
2837,27.973714500000003,44,0.09879733333333363,48,0.09931733333333526
2838,28.07303183333334,53,0.09931733333333526,49,0.09971124999999859
2839,28.172743083333337,62,0.09971124999999859,77,0.09652750000000054
2840,28.269270583333338,47,0.09652750000000054,51,0.09701933333333201
2841,28.36628991666667,56,0.09701933333333201,53,0.09752066666666792
2842,28.463810583333338,61,0.09752066666666792,74,0.09802733333333435
2843,28.561837916666672,46,0.09802733333333435,58,0.09853933333333487
2844,28.660377250000007,55,0.09853933333333487,63,0.09849491666666665
2845,28.758872166666674,64,0.09849491666666665,88,0.09628116666666742
2846,28.85515333333334,49,0.09628116666666742,66,0.09677283333333264
2847,28.951926166666674,58,0.09677283333333264,68,0.09714433333333616
2848,29.04907050000001,63,0.09714433333333616,84,0.09758366666666518
2849,29.146654166666675,48,0.09758366666666518,68,0.09802733333333435
2850,29.24468150000001,57,0.09802733333333435,66,0.09853933333333487
2851,29.343220833333344,66,0.09853933333333487,94,0.09726933333333321
2852,29.440490166666677,51,0.09726933333333321,69,0.09777333333333615
2853,29.538263500000014,60,0.09777333333333615,70,0.09841100000000225
2854,29.636674500000016,65,0.09841100000000225,88,0.09892699999999977
2855,29.735601500000016,50,0.09892699999999977,63,0.09997691666666597
2856,29.83557841666668,59,0.09997691666666597,64,0.10192899999999838
2857,29.93750741666668,68,0.10192899999999838,85,0.16000000000000014
2858,30.43997341666668,49,0.5024660000000019,48,0.1046198333333308
2859,30.544593250000013,37,0.1046198333333308,37,0.10489749999999987
2860,30.649490750000012,46,0.10489749999999987,37,0.1045343333333335
2861,30.754025083333346,54,0.1045343333333335,52,0.10438966666666616
2862,30.858414750000012,42,0.10438966666666616,42,0.10368016666666335
2863,30.962094916666675,49,0.10368016666666335,44,0.10283050000000316
2864,31.06492541666668,58,0.10283050000000316,61,0.10248133333333342
2865,31.167406750000012,46,0.10248133333333342,51,0.10220391666666373
2866,31.269610666666676,54,0.10220391666666373,54,0.10179041666666677
2867,31.371401083333343,61,0.10179041666666677,66,0.10200116666666759
2868,31.47340225000001,49,0.10200116666666759,57,0.10110849999999871
2869,31.57451075000001,58,0.10110849999999871,57,0.10070391666666723
2870,31.675214666666676,66,0.10070391666666723,74,0.10037166666666408
2871,31.77558633333334,54,0.10037166666666408,59,0.10004141666666655
2872,31.875627750000007,61,0.10004141666666655,62,0.09964524999999824
2873,31.975273000000005,70,0.09964524999999824,73,0.09860400000000524
2874,32.07387700000001,58,0.09860400000000524,60,0.09931808333333692
2875,32.17319508333335,61,0.09931808333333692,65,0.10010733333333377
2876,32.27330241666668,68,0.10010733333333377,79,0.10050266666666374
2877,32.373805083333345,53,0.10050266666666374,58,0.10185899999999748
2878,32.47566408333334,59,0.10185899999999748,52,0.10213466666666449
2879,32.57779875000001,66,0.10213466666666449,76,0.10241166666666857
2880,32.680210416666675,54,0.10241166666666857,56,0.1026903333333351
2881,32.78290075000001,59,0.1026903333333351,51,0.1029706666666641
2882,32.885871416666674,63,0.1029706666666641,70,0.10325233333333017
2883,32.989123750000005,51,0.10325233333333017,51,0.10325233333333728
2884,33.09237608333334,59,0.10325233333333728,49,0.10797399999999868
2885,33.20035008333334,63,0.10797399999999868,70,0.10325233333333017
2886,33.30360241666667,51,0.10325233333333017,42,0.1035356666666658
2887,33.40713808333334,58,0.1035356666666658,43,0.1038206666666639
2888,33.51095875,61,0.1038206666666639,62,0.10417366666666794
2889,33.61513241666667,49,0.10417366666666794,43,0.10446200000000516
2890,33.71959441666667,54,0.10446200000000516,43,0.10475183333333149
2891,33.824346250000005,58,0.10475183333333149,60,0.10504350000000073
2892,33.929389750000006,46,0.10504350000000073,43,0.10541033333333161
2893,34.03480008333334,49,0.10541033333333161,41,0.10484083333332705
2894,34.139640916666664,54,0.10484083333332705,53,0.1026903333333351
2895,34.24233125,42,0.1026903333333351,38,0.10241166666666857
2896,34.34474291666667,48,0.10241166666666857,38,0.10213466666666449
2897,34.44687758333333,53,0.10213466666666449,54,0.10184641666666039
2898,34.54872399999999,41,0.10184641666666039,41,0.1011385833333378
2899,34.64986258333333,48,0.1011385833333378,43,0.10043991666667296
2900,34.750302500000004,54,0.10043991666667296,64,0.09968883333333167
2901,34.849991333333335,42,0.09968883333333167,51,0.0990102500000063
2902,34.94900158333334,48,0.0990102500000063,57,0.09834058333333218
2903,35.047342166666674,58,0.09834058333333218,71,0.09847500000000053
2904,35.145817166666674,46,0.09847500000000053,51,0.09879733333333718
2905,35.24461450000001,49,0.09879733333333718,51,0.09912166666666877
2906,35.34373616666668,56,0.09912166666666877,67,0.09951374999999985
2907,35.44324991666668,44,0.09951374999999985,43,0.0998429999999999
2908,35.54309291666668,49,0.0998429999999999,42,0.10017425000000202
2909,35.64326716666668,53,0.10017425000000202,63,0.10056975000000534
2910,35.74383691666669,41,0.10056975000000534,42,0.10090583333332859
2911,35.844742750000016,44,0.10090583333332859,41,0.10077400000000836
2912,35.945516750000024,54,0.10077400000000836,53,0.106383000000001
2913,36.051899750000025,42,0.106383000000001,38,0.10386566666666397
2914,36.15576541666669,48,0.10386566666666397,38,0.10443899999999218
2915,36.26020441666668,53,0.10443899999999218,54,0.1040313333333387
2916,36.36423575000002,41,0.1040313333333387,41,0.10356008333333477
2917,36.467795833333355,48,0.10356008333333477,43,0.10309308333332723
2918,36.57088891666668,54,0.10309308333332723,65,0.10282908333334007
2919,36.67371800000002,42,0.10282908333334007,51,0.10506058333333357
2920,36.778778583333356,48,0.10506058333333357,58,0.11434400000000267
2921,36.89312258333336,58,0.11434400000000267,71,0.10282766666666987
2922,36.99595025000003,46,0.10282766666666987,54,0.10282766666666276
2923,37.09877791666669,51,0.10282766666666276,51,0.10282766666666987
2924,37.20160558333336,56,0.10282766666666987,60,0.10443866666666679
2925,37.30604425000003,44,0.10443866666666679,43,0.10443866666666679
2926,37.410482916666695,47,0.10443866666666679,42,0.12461066666666909
2927,37.535093583333364,51,0.12461066666666909,58,0.10256400000000099
2928,37.637657583333365,39,0.10256400000000099,42,0.10256400000000099
2929,37.740221583333366,44,0.10256400000000099,41,0.10115483333333941
2930,37.841376416666705,49,0.10115483333333941,53,0.1046198333333308
2931,37.945996250000036,37,0.1046198333333308,38,0.10489749999999987
2932,38.050893750000036,46,0.10489749999999987,37,0.1045343333333335
2933,38.15542808333337,54,0.1045343333333335,51,0.10438966666666971
2934,38.25981775000004,42,0.10438966666666971,38,0.10368016666666335
2935,38.3634979166667,49,0.10368016666666335,40,0.10283049999999605
2936,38.4663284166667,58,0.10283049999999605,54,0.10248133333333698
2937,38.568809750000035,46,0.10248133333333698,40,0.10220391666666728
2938,38.6710136666667,54,0.10220391666666728,43,0.10179041666666677
2939,38.77280408333337,61,0.10179041666666677,65,0.10200116666666048
2940,38.87480525000003,49,0.10200116666666048,47,0.10110850000000227
2941,38.97591375000003,58,0.10110850000000227,47,0.10070391666666723
2942,39.0766176666667,66,0.10070391666666723,70,0.10037166666666764
2943,39.17698933333337,54,0.10037166666666764,49,0.1000414166666701
2944,39.27703075000004,61,0.1000414166666701,51,0.0996452500000018
2945,39.37667600000004,70,0.0996452500000018,73,0.09860400000000169
2946,39.47528000000004,58,0.09860400000000169,51,0.09931808333333692
2947,39.57459808333338,61,0.09931808333333692,53,0.09964866666666694
2948,39.674246750000044,69,0.09964866666666694,81,0.09866799999999643
2949,39.77291475000004,54,0.09866799999999643,57,0.09892666666666372
2950,39.871841416666705,60,0.09892666666666372,59,0.09912166666666877
2951,39.97096308333337,68,0.09912166666666877,77,0.0993173333333317
2952,40.070280416666705,53,0.0993173333333317,57,0.09951375000000695
2953,40.16979416666671,59,0.09951375000000695,58,0.09971099999999922
2954,40.26950516666671,67,0.09971099999999922,76,0.09997500000000059
2955,40.36948016666671,52,0.09997500000000059,52,0.10017425000000202
2956,40.469654416666714,58,0.10017425000000202,51,0.10037166666666764
2957,40.57002608333338,66,0.10037166666666764,84,0.10161366666666538
2958,40.67163975000005,51,0.10161366666666538,53,0.1000414166666701
2959,40.77168116666672,57,0.1000414166666701,53,0.10030616666666248
2960,40.87198733333338,65,0.10030616666666248,75,0.10056974999999824
2961,40.97255708333338,50,0.10056974999999824,52,0.10077099999999461
2962,41.07332808333337,56,0.10077099999999461,48,0.10104066666666967
2963,41.17436875000004,64,0.10104066666666967,70,0.10131200000000007
2964,41.27568075000004,52,0.10131200000000007,52,0.10158466666666754
2965,41.37726541666671,58,0.10158466666666754,51,0.10206683333333189
2966,41.47933225000004,63,0.10206683333333189,74,0.1038206666666639
2967,41.583152916666705,51,0.1038206666666639,50,0.10241166666666857
2968,41.685564583333374,56,0.10241166666666857,49,0.10213466666666449
2969,41.78769925000004,65,0.10213466666666449,79,0.10185899999999748
2970,41.889558250000036,51,0.10185899999999748,56,0.10158466666666754
2971,41.9911429166667,56,0.10158466666666754,58,0.10131200000000007
2972,42.0924549166667,66,0.10131200000000007,86,0.10104066666666967
2973,42.19349558333337,51,0.10104066666666967,61,0.10077100000000172
2974,42.294266583333375,56,0.10077100000000172,65,0.10050266666666374
2975,42.39476925000004,68,0.10050266666666374,89,0.10104066666666967
2976,42.49580991666671,56,0.10104066666666967,62,0.10090583333332859
2977,42.59671575000004,63,0.10090583333332859,63,0.10070391666666723
2978,42.697419666666704,70,0.10070391666666723,80,0.10050266666666374
2979,42.79792233333337,58,0.10050266666666374,50,0.10024066666666442
2980,42.89816300000003,63,0.10024066666666442,51,0.1000414166666701
2981,42.9982044166667,68,0.1000414166666701,75,0.0998429999999999
2982,43.0980474166667,56,0.0998429999999999,47,0.0996452500000018
2983,43.197692666666704,59,0.0996452500000018,48,0.10050266666666374
2984,43.29819533333337,63,0.10050266666666374,70,0.10989000000000004
2985,43.40808533333337,51,0.10989000000000004,51,0.10241166666666857
2986,43.510497000000036,56,0.10241166666666857,50,0.10213466666666449
2987,43.6126316666667,65,0.10213466666666449,68,0.10185899999999748
2988,43.7144906666667,53,0.10185899999999748,53,0.10158466666666754
2989,43.816075333333366,56,0.10158466666666754,49,0.10131200000000007
2990,43.917387333333366,63,0.10131200000000007,61,0.10104066666666967
2991,44.018428000000036,51,0.10104066666666967,44,0.10077100000000172
2992,44.11919900000004,56,0.10077100000000172,46,0.10050266666666374
2993,44.2197016666667,56,0.10050266666666374,57,0.1038206666666639
2994,44.323522333333365,44,0.1038206666666639,42,0.10241166666666857
2995,44.425934000000034,51,0.10241166666666857,41,0.10213466666666449
2996,44.5280686666667,58,0.10213466666666449,55,0.10185899999999748
2997,44.629927666666696,44,0.10185899999999748,44,0.10158466666666754
2998,44.73151233333336,51,0.10158466666666754,44,0.10124245833333134
2999,44.832754791666694,53,0.10124245833333134,50,0.10198195833333301
3000,44.93473675000003,41,0.10198195833333301,36,0.104719750000001
3001,45.03945650000003,49,0.104719750000001,37,0.1076437916666606
3002,45.14710029166669,54,0.1076437916666606,52,0.10200116666666048
3003,45.24910145833335,42,0.10200116666666048,40,0.10110850000000227
3004,45.35020995833335,49,0.10110850000000227,41,0.10070391666666723
3005,45.45091387500002,61,0.10070391666666723,61,0.10037166666666764
3006,45.55128554166669,46,0.10037166666666764,44,0.10114066666666588
3007,45.65242620833335,54,0.10114066666666588,47,0.125
3008,45.77742620833335,62,0.125,68,0.09860400000000169
3009,45.876030208333354,46,0.09860400000000169,48,0.09912166666666877
3010,45.97515187500002,54,0.09912166666666877,51,0.10410166666666498
3011,46.07925354166669,61,0.10410166666666498,68,0.09838079166667058
3012,46.17763433333336,35,0.09838079166667058,54,0.10185899999999748
3013,46.279493333333356,53,0.10185899999999748,49,0.10213466666666449
3014,46.38162800000002,60,0.10213466666666449,69,0.10241166666666857
3015,46.48403966666669,47,0.10241166666666857,49,0.1026903333333351
3016,46.586730000000024,53,0.1026903333333351,46,0.1029706666666641
3017,46.68970066666669,59,0.1029706666666641,63,0.10325233333333017
3018,46.79295300000002,47,0.10325233333333017,45,0.10325233333333728
3019,46.896205333333356,53,0.10325233333333728,40,0.10797399999999868
3020,47.004179333333354,58,0.10797399999999868,52,0.10200116666666048
3021,47.106180500000015,46,0.10200116666666048,40,0.10110850000000227
3022,47.20728900000002,54,0.10110850000000227,41,0.10070391666666723
3023,47.307992916666684,61,0.10070391666666723,61,0.10037166666666764
3024,47.40836458333335,46,0.10037166666666764,44,0.1000414166666701
3025,47.50840600000002,54,0.1000414166666701,47,0.10565575000000393
3026,47.614061750000026,63,0.10565575000000393,67,0.10077100000000172
3027,47.71483275000003,46,0.10077100000000172,48,0.10077100000000172
3028,47.81560375000003,54,0.10077100000000172,51,0.10410166666666498
3029,47.919705416666694,61,0.10410166666666498,69,0.09925566666666441
3030,48.01896108333336,47,0.09925566666666441,51,0.10185899999999748
3031,48.120820083333356,53,0.10185899999999748,49,0.10213466666666449
3032,48.22295475000002,60,0.10213466666666449,62,0.10241166666666857
3033,48.32536641666669,47,0.10241166666666857,49,0.1026903333333351
3034,48.428056750000025,53,0.1026903333333351,46,0.1029706666666641
3035,48.53102741666669,59,0.1029706666666641,55,0.10325233333333017
3036,48.63427975000002,47,0.10325233333333017,45,0.10325233333333728
3037,48.737532083333356,53,0.10325233333333728,40,0.10797399999999868
3038,48.845506083333355,58,0.10797399999999868,52,0.10200116666666048
3039,48.947507250000015,46,0.10200116666666048,40,0.10110850000000227
3040,49.04861575000002,54,0.10110850000000227,42,0.10070391666666723
3041,49.149319666666685,61,0.10070391666666723,65,0.10037166666666764
3042,49.24969133333335,46,0.10037166666666764,48,0.1000414166666701
3043,49.34973275000002,58,0.1000414166666701,50,0.0996452500000018
3044,49.449378000000024,66,0.0996452500000018,75,0.09860400000000169
3045,49.547982000000026,54,0.09860400000000169,54,0.09912166666666877
3046,49.647103666666695,61,0.09912166666666877,58,0.12345666666666943
3047,49.770560333333364,70,0.12345666666666943,82,0.09925566666666441
3048,49.86981600000003,53,0.09925566666666441,59,0.0998900416666686
3049,49.9697060416667,62,0.0998900416666686,56,0.10009416666666482
3050,50.06980020833336,68,0.10009416666666482,74,0.10069258333333408
3051,50.170492791666696,53,0.10069258333333408,55,0.10123412499999773
3052,50.271726916666694,58,0.10123412499999773,53,0.10181400000000451
3053,50.3735409166667,66,0.10181400000000451,71,0.10219212500000197
3054,50.4757330416667,51,0.10219212500000197,52,0.10269999999999868
3055,50.5784330416667,58,0.10269999999999868,51,0.10335933333333713
3056,50.681792375000036,66,0.10335933333333713,75,0.09975066666666521
3057,50.7815430416667,51,0.09975066666666521,57,0.10059754166666579
3058,50.88214058333337,57,0.10059754166666579,51,0.10101033333334186
3059,50.98315091666671,65,0.10101033333334186,70,0.1014264999999952
3060,51.084577416666704,50,0.1014264999999952,51,0.1019110000000012
3061,51.186488416666705,57,0.1019110000000012,50,0.1023674166666595
3062,51.288855833333365,63,0.1023674166666595,65,0.10325233333333017
3063,51.392108166666695,51,0.10325233333333017,45,0.10325233333333728
3064,51.49536050000003,57,0.10325233333333728,44,0.10325233333333017
3065,51.59861283333336,63,0.10325233333333017,61,0.10077100000000172
3066,51.699383833333364,47,0.10077100000000172,46,0.10185899999999748
3067,51.80124283333336,56,0.10185899999999748,45,0.10213466666666449
3068,51.903377500000026,61,0.10213466666666449,58,0.10241166666666857
3069,52.005789166666695,46,0.10241166666666857,44,0.1026903333333351
3070,52.10847950000003,51,0.1026903333333351,43,0.1029706666666641
3071,52.211450166666694,59,0.1029706666666641,55,0.10325233333333017
3072,52.314702500000024,44,0.10325233333333017,43,0.10325233333333728
3073,52.41795483333336,53,0.10325233333333728,39,0.10797399999999868
3074,52.52592883333336,58,0.10797399999999868,52,0.10200116666666048
3075,52.62793000000002,42,0.10200116666666048,40,0.10110850000000227
3076,52.72903850000002,54,0.10110850000000227,41,0.10070391666666723
3077,52.82974241666669,61,0.10070391666666723,61,0.10037166666666764
3078,52.93011408333336,46,0.10037166666666764,49,0.10127329166666499
3079,53.03138737500002,54,0.10127329166666499,51,0.10441195833333694
3080,53.13579933333336,62,0.10441195833333694,69,0.0993173333333317
3081,53.23511666666669,46,0.0993173333333317,55,0.09990941666666942
3082,53.33502608333336,54,0.09990941666666942,52,0.10410166666666498
3083,53.439127750000026,61,0.10410166666666498,68,0.09900999999999982
3084,53.538137750000026,47,0.09900999999999982,51,0.10185899999999748
3085,53.63999675000002,53,0.10185899999999748,49,0.10213466666666449
3086,53.74213141666669,60,0.10213466666666449,65,0.10241166666666857
3087,53.844543083333356,47,0.10241166666666857,49,0.1026903333333351
3088,53.94723341666669,53,0.1026903333333351,46,0.1029706666666641
3089,54.050204083333355,59,0.1029706666666641,63,0.10325233333333017
3090,54.153456416666685,47,0.10325233333333017,45,0.10325233333333728
3091,54.25670875000002,53,0.10325233333333728,40,0.10797399999999868
3092,54.36468275000002,58,0.10797399999999868,52,0.10200116666666048
3093,54.46668391666668,46,0.10200116666666048,40,0.10110850000000227
3094,54.567792416666684,54,0.10110850000000227,41,0.10070391666666723
3095,54.66849633333335,61,0.10070391666666723,61,0.10037166666666764
3096,54.76886800000002,46,0.10037166666666764,44,0.10063229166667043
3097,54.86950029166669,54,0.10063229166667043,47,0.10299745833333418
3098,54.972497750000024,63,0.10299745833333418,67,0.09860400000000169
3099,55.071101750000025,46,0.09860400000000169,48,0.09912166666666877
3100,55.170223416666694,54,0.09912166666666877,51,0.10410166666666498
3101,55.27432508333336,61,0.10410166666666498,66,0.09975066666666521
3102,55.374075750000024,47,0.09975066666666521,51,0.10185899999999748
3103,55.47593475000002,53,0.10185899999999748,49,0.10213466666666449
3104,55.578069416666686,60,0.10213466666666449,62,0.10241166666666857
3105,55.680481083333355,47,0.10241166666666857,49,0.1026903333333351
3106,55.78317141666669,53,0.1026903333333351,46,0.1029706666666641
3107,55.886142083333354,59,0.1029706666666641,55,0.10325233333333017
3108,55.989394416666684,47,0.10325233333333017,45,0.10325233333333728
3109,56.09264675000002,53,0.10325233333333728,40,0.10797399999999868
3110,56.20062075000002,58,0.10797399999999868,52,0.10200116666666048
3111,56.30262191666668,46,0.10200116666666048,40,0.10110850000000227
3112,56.40373041666668,54,0.10110850000000227,42,0.10070391666666723
3113,56.50443433333335,61,0.10070391666666723,65,0.10037166666666764
3114,56.60480600000002,49,0.10037166666666764,48,0.1000414166666701
3115,56.70484741666669,58,0.1000414166666701,50,0.0996452500000018
3116,56.80449266666669,66,0.0996452500000018,75,0.09860400000000169
3117,56.90309666666669,54,0.09860400000000169,54,0.09912166666666877
3118,57.00221833333336,61,0.09912166666666877,58,0.14285699999999935
3119,57.14507533333336,70,0.14285699999999935,69,0.10443866666666679
3120,57.249514000000026,53,0.10443866666666679,54,0.10302641666666545
3121,57.35254041666669,62,0.10302641666666545,53,0.10289391666666603
3122,57.45543433333336,68,0.10289391666666603,68,0.10262991666667176
3123,57.55806425000003,53,0.10262991666667176,55,0.10230166666666918
3124,57.6603659166667,62,0.10230166666666918,56,0.10197583333332716
3125,57.762341750000026,67,0.10197583333332716,73,0.10178133333333506
3126,57.86412308333336,53,0.10178133333333506,59,0.10178133333333506
3127,57.965904416666696,62,0.10178133333333506,58,0.3036226687500019
3128,58.07034308333336,67,0.10443866666666679,76,0.10178133333333506
3129,58.1721244166667,52,0.10178133333333506,54,0.10185899999999748
3130,58.273983416666695,60,0.10185899999999748,51,0.30723666666666816
3131,58.37611808333336,66,0.10213466666666449,70,0.10241166666666857
3132,58.47852975000003,51,0.10241166666666857,53,0.1026903333333351
3133,58.58122008333336,60,0.1026903333333351,53,0.3072254583333276
3134,58.68419075000003,63,0.1029706666666641,66,0.10178133333333506
3135,58.78597208333336,48,0.10178133333333506,47,0.10247345833332844
3136,58.88844554166669,54,0.10247345833332844,47,0.3062570000000022
3137,58.992072541666694,63,0.10362700000000302,65,0.10077100000000172
3138,59.092843541666696,48,0.10077100000000172,48,0.10185899999999748
3139,59.19470254166669,54,0.10185899999999748,47,0.10213466666666449
3140,59.29683720833336,61,0.10213466666666449,60,0.10241166666666857
3141,59.399248875000026,49,0.10241166666666857,45,0.1026903333333351
3142,59.50193920833336,54,0.1026903333333351,43,0.1029706666666641
3143,59.604909875000025,53,0.1029706666666641,55,0.10325233333333017
3144,59.708162208333356,41,0.10325233333333017,43,0.10325233333333728
3145,59.81141454166669,49,0.10325233333333728,39,0.10797399999999868
3146,59.91938854166669,54,0.10797399999999868,52,0.1006446666666676
3147,60.02003320833336,42,0.1006446666666676,40,0.0995469583333346
3148,60.119580166666694,49,0.0995469583333346,40,0.09870100000000548
3149,60.2182811666667,61,0.09870100000000548,66,0.09764766666666702
3150,60.315928833333366,42,0.09764766666666702,45,0.09695770833333484
3151,60.4128865416667,49,0.09695770833333484,45,0.09637362500000535
3152,60.50926016666671,54,0.09637362500000535,62,0.0961281249999999
3153,60.605388291666706,42,0.0961281249999999,44,0.09677312500000568
3154,60.70216141666671,49,0.09677312500000568,46,0.09745799999999605
3155,60.79961941666671,60,0.09745799999999605,71,0.09758599999999973
3156,60.89720541666671,42,0.09758599999999973,52,0.09680399999999878
3157,60.99400941666671,49,0.09680399999999878,52,0.09618937500000158
3158,61.09019879166671,54,0.09618937500000158,67,0.09615866666666761
3159,61.186357458333376,42,0.09615866666666761,49,0.09671149999999784
3160,61.283068958333374,49,0.09671149999999784,48,0.09720683333333824
3161,61.38027579166671,59,0.09720683333333824,75,0.09701933333333557
3162,61.47729512500005,42,0.09701933333333557,55,0.09661970833332845
3163,61.573914833333376,49,0.09661970833332845,52,0.09621991666666219
3164,61.67013475000004,54,0.09621991666666219,69,0.09622025000000178
3165,61.76635500000004,42,0.09622025000000178,49,0.09695858333333263
3166,61.86331358333337,49,0.09695858333333263,49,0.09771050000000514
3167,61.96102408333338,58,0.09771050000000514,76,0.0982508333333314
3168,62.05927491666671,42,0.0982508333333314,52,0.09761550000000341
3169,62.15689041666671,49,0.09761550000000341,52,0.09686549999999983
3170,62.25375591666671,54,0.09686549999999983,65,0.09677312500000568
3171,62.35052904166672,42,0.09677312500000568,49,0.09752099999999331
3172,62.44805004166671,49,0.09752099999999331,52,0.09828350000000086
3173,62.54633354166671,57,0.09828350000000086,71,0.09870066666666588
3174,62.64503420833338,42,0.09870066666666588,53,0.09809116666666995
3175,62.74312537500005,49,0.09809116666666995,52,0.09742649999999742
3176,62.840551875000045,54,0.09742649999999742,64,0.09799699999999234
3177,62.93854887500004,42,0.09799699999999234,45,0.09935162500000416
3178,63.03790050000004,49,0.09935162500000416,43,0.10077383333334211
3179,63.138674333333384,58,0.10077383333334211,63,0.10131200000000007
3180,63.239986333333384,42,0.10131200000000007,46,0.10131200000000007
3181,63.341298333333384,49,0.10131200000000007,41,0.10131200000000007
3182,63.442610333333384,54,0.10131200000000007,54,0.31491100000000216
3183,64.38734333333339,78,0.9447330000000065,102,0.31491099999999506
3184,65.33207633333339,46,0.9447329999999994,98,0.9447329999999994
3185,0.833334,55,0.0,45,0.43010799999999993
3186,1.263442,56,0.43010799999999993,46,0.31250025000000003
3187,1.57594225,55,0.31250025000000003,45,0.10416674999999986
3188,1.6801089999999999,53,0.10416674999999986,45,0.4210995000000004
3189,2.1012085000000003,56,0.4210995000000004,48,0.4966079999999997
3190,2.5978165,56,0.4966079999999997,47,0.8480334999999997
3191,3.0194959999999997,44,0.42167949999999976,25,0.4263539999999999
3192,3.4458499999999996,55,0.4263539999999999,43,0.4316549999999997
3193,3.8775049999999993,53,0.4316549999999997,42,0.07042249999999983
3194,3.947927499999999,55,0.07042249999999983,43,0.07042249999999983
3195,4.018349999999999,53,0.07042249999999983,44,0.07042250000000028
3196,4.088772499999999,52,0.07042250000000028,45,0.21126749999999994
3197,4.300039999999999,53,0.21126749999999994,47,0.4316550000000001
3198,4.515867499999999,54,0.21582749999999962,45,0.2158275000000005
3199,4.731694999999999,55,0.2158275000000005,50,0.4633375000000006
3200,4.953097,50,0.22140200000000032,50,0.2419355000000003
3201,5.1950325,53,0.2419355000000003,54,0.8633100000000002
3202,5.6266875,24,0.4316550000000001,30,0.4316550000000001
3203,6.0583425,51,0.4316550000000001,45,0.43165499999999923
3204,6.489997499999999,48,0.43165499999999923,62,0.13840833333333347
3205,6.628405833333333,50,0.13840833333333347,57,0.13840833333333347
3206,6.766814166666666,48,0.13840833333333347,57,0.13840833333333347
3207,6.9052225,47,0.13840833333333347,63,0.20761249999999976
3208,7.320447499999999,48,0.4152249999999995,67,0.20761250000000064
3209,7.7356725,50,0.4152250000000004,70,0.2150540000000003
3210,8.1657805,55,0.4301080000000006,72,0.8451120000000003
3211,8.5853605,26,0.41957999999999984,56,0.42553200000000047
3212,9.0108925,50,0.42553200000000047,76,0.20905899999999988
3213,9.2199515,46,0.20905899999999988,73,0.20905899999999988
3214,9.4290105,43,0.20905899999999988,76,0.41811799999999977
3215,9.6380695,50,0.20905899999999988,71,0.20905899999999988
3216,9.8471285,42,0.20905899999999988,73,0.4332130000000003
3217,10.2803415,43,0.4332130000000003,76,0.9374149999999997
3218,10.7135545,19,0.4332130000000003,50,0.5042019999999994
3219,11.2177565,55,0.5042019999999994,45,0.4301080000000006
3220,11.6478645,56,0.4301080000000006,46,0.31250024999999937
3221,11.96036475,55,0.31250024999999937,45,0.10416675000000097
3222,12.064531500000001,53,0.10416675000000097,45,0.42782000000000053
3223,12.492351500000002,56,0.42782000000000053,48,0.5148360000000007
3224,13.007187500000002,56,0.5148360000000007,47,0.8480334999999997
3225,13.428867000000002,44,0.42167949999999976,25,0.4263539999999999
3226,13.855221000000002,55,0.4263539999999999,43,0.431655000000001
3227,14.286876000000003,53,0.431655000000001,42,0.07042249999999939
3228,14.357298500000002,55,0.07042249999999939,43,0.07042250000000116
3229,14.427721000000004,53,0.07042250000000116,44,0.07042249999999939
3230,14.498143500000003,52,0.07042249999999939,45,0.21126749999999994
3231,14.709411000000003,53,0.21126749999999994,47,0.43165499999999923
3232,14.925238500000003,54,0.21582749999999962,45,0.21582749999999962
3233,15.141066000000002,55,0.21582749999999962,47,0.48672750000000065
3234,15.365785000000002,50,0.22471900000000034,42,0.12445403749999961
3235,15.496789250000003,50,0.13100425000000016,47,0.13100425000000016
3236,15.627793500000003,53,0.13100425000000016,51,0.8541899999999991
3237,16.050328500000003,41,0.4225349999999999,28,0.43165499999999923
3238,16.481983500000002,51,0.43165499999999923,45,0.43165499999999923
3239,16.9136385,48,0.43165499999999923,46,0.13840833333333435
3240,17.052046833333335,49,0.13840833333333435,43,0.1384083333333308
3241,17.190455166666666,48,0.1384083333333308,43,0.13840833333333435
3242,17.3288635,46,0.13840833333333435,47,0.45282999999999873
3243,17.7816935,48,0.45282999999999873,51,0.4819279999999999
3244,18.2636215,49,0.4819279999999999,53,1.0014089999999989
3245,18.7831025,53,0.519480999999999,54,0.4819279999999999
3246,19.800744499999997,48,1.0176419999999986,48,0.32028449999999964
3247,20.121028999999997,47,0.32028449999999964,44,0.10676150000000106
3248,20.227790499999998,43,0.10676150000000106,48,0.4444440000000007
3249,20.6722345,47,0.4444440000000007,45,0.44943800000000067
3250,21.1216725,48,0.44943800000000067,46,0.9579130000000013
3251,21.5711105,12,0.44943800000000067,36,0.5084750000000007
3252,22.0795855,55,0.5084750000000007,45,0.4301080000000006
3253,22.5096935,56,0.4301080000000006,46,0.31250024999999937
3254,22.82219375,55,0.31250024999999937,45,0.10416675000000097
3255,22.9263605,53,0.10416675000000097,45,0.427819999999997
3256,23.3541805,56,0.427819999999997,48,0.5269109999999984
3257,23.881091499999997,56,0.5269109999999984,47,0.8480334999999997
3258,24.302771,44,0.4216795000000033,25,0.42635399999999635
3259,24.729124999999996,55,0.42635399999999635,43,0.43165499999999923
3260,25.160779999999995,53,0.43165499999999923,42,0.07042249999999939
3261,25.231202499999995,55,0.07042249999999939,43,0.07042249999999939
3262,25.301624999999994,53,0.07042249999999939,44,0.07042250000000294
3263,25.372047499999997,52,0.07042250000000294,45,0.21126749999999817
3264,25.583314999999995,53,0.21126749999999817,47,0.43165499999999923
3265,25.799142499999995,54,0.21582749999999962,45,0.21582749999999962
3266,26.014969999999995,55,0.21582749999999962,53,0.4633375000000015
3267,26.236371999999996,50,0.2214020000000012,48,0.2419355000000003
3268,26.478307499999996,53,0.2419355000000003,58,0.8633099999999985
3269,26.909962499999995,24,0.43165499999999923,30,0.43165499999999923
3270,27.341617499999995,51,0.43165499999999923,45,0.4316550000000028
3271,27.773272499999997,48,0.4316550000000028,62,0.13840833333333435
3272,27.91168083333333,50,0.13840833333333435,57,0.1384083333333308
3273,28.050089166666663,48,0.1384083333333308,57,0.13840833333333435
3274,28.188497499999997,47,0.13840833333333435,63,0.20761249999999976
3275,28.603722499999996,48,0.4152249999999995,67,0.20761249999999976
3276,29.018947499999996,50,0.4152249999999995,70,0.21505399999999852
3277,29.449055499999996,55,0.4301080000000006,72,0.8451120000000003
3278,29.868635499999996,26,0.41957999999999984,56,0.42553200000000047
3279,30.294167499999997,50,0.42553200000000047,76,0.20905899999999988
3280,30.503226499999997,46,0.20905899999999988,73,0.20905899999999988
3281,30.712285499999997,43,0.20905899999999988,76,0.41811799999999977
3282,30.921344499999996,50,0.20905899999999988,71,0.20905899999999988
3283,31.130403499999996,42,0.20905899999999988,73,0.4332129999999985
3284,31.563616499999995,43,0.4332129999999985,76,0.9242109999999997
3285,31.996829499999997,19,0.43321300000000207,50,0.4909979999999976
3286,32.487827499999995,55,0.4909979999999976,45,0.43010799999999705
3287,32.91793549999999,56,0.43010799999999705,46,0.31250024999999937
3288,33.23043574999999,55,0.31250024999999937,45,0.10416674999999742
3289,33.33460249999999,53,0.10416674999999742,45,0.4278200000000041
3290,33.76242249999999,56,0.4278200000000041,48,0.46387599999999907
3291,34.22629849999999,56,0.46387599999999907,47,0.8480334999999997
3292,34.64797799999999,44,0.4216794999999962,25,0.42635400000000345
3293,35.07433199999999,55,0.42635400000000345,43,0.43165499999999923
3294,35.50598699999999,53,0.43165499999999923,42,0.07042249999999939
3295,35.57640949999999,55,0.07042249999999939,43,0.07042249999999939
3296,35.64683199999999,53,0.07042249999999939,44,0.07042249999999939
3297,35.71725449999999,52,0.07042249999999939,45,0.21126750000000527
3298,35.928521999999994,53,0.21126750000000527,47,0.43165499999999923
3299,36.1443495,54,0.21582750000000317,45,0.21582749999999606
3300,36.36017699999999,55,0.21582749999999606,47,0.5012164999999982
3301,36.58489599999999,50,0.22471900000000034,42,0.13133631249999667
3302,36.723144749999996,50,0.13824875000000247,42,0.13824874999999537
3303,36.86139349999999,53,0.13824874999999537,46,0.8541900000000027
3304,37.283928499999995,41,0.42253500000000344,28,0.43165499999999923
3305,37.715583499999994,51,0.43165499999999923,45,0.43165499999999923
3306,38.14723849999999,48,0.43165499999999923,46,0.1384083333333308
3307,38.285646833333324,49,0.1384083333333308,43,0.1384083333333379
3308,38.42405516666666,48,0.1384083333333379,43,0.1384083333333308
3309,38.56246349999999,46,0.1384083333333308,47,0.45282999999999873
3310,39.01529349999999,48,0.45282999999999873,54,0.47619000000000256
3311,39.491483499999994,49,0.47619000000000256,62,0.999169000000002
3312,40.00872449999999,53,0.5172409999999985,59,0.48192800000000346
3313,41.026366499999995,48,1.0176420000000022,48,0.32028449999999964
3314,41.346650999999994,47,0.32028449999999964,44,0.10676149999999751
3315,41.45341249999999,43,0.10676149999999751,48,0.4444439999999972
3316,41.89785649999999,47,0.4444439999999972,45,0.44943800000000067
3317,42.34729449999999,48,0.44943800000000067,46,1.0101859999999974
3318,42.79673249999999,12,0.44943800000000067,30,0.5607479999999967
3319,43.35748049999999,50,0.5607479999999967,51,0.4444439999999972
3320,43.801924499999984,51,0.4444439999999972,52,0.2197800000000001
3321,44.021704499999984,53,0.2197800000000001,53,0.2197800000000001
3322,44.241484499999984,54,0.2197800000000001,55,0.4325460000000021
3323,44.674030499999986,54,0.4325460000000021,60,0.44984199999999674
3324,45.00804249999999,56,0.3340120000000013,55,0.11582999999999544
3325,45.12387249999998,54,0.11582999999999544,62,0.8527320000000032
3326,45.55244349999998,45,0.42857099999999804,33,0.4241610000000051
3327,45.976604499999986,53,0.4241610000000051,54,0.43165499999999923
3328,46.408259499999986,51,0.43165499999999923,52,0.2197800000000001
3329,46.628039499999986,53,0.2197800000000001,54,0.2197800000000001
3330,46.847819499999986,54,0.2197800000000001,57,0.4325460000000021
3331,47.28036549999999,54,0.4325460000000021,66,0.44984199999999674
3332,47.61437749999999,56,0.3340120000000013,62,0.11582999999999544
3333,47.730207499999985,54,0.11582999999999544,76,0.8558160000000044
3334,48.161862499999984,44,0.43165499999999923,48,0.4241610000000051
3335,48.58602349999999,53,0.4241610000000051,67,0.4395600000000002
3336,49.02558349999999,61,0.4395600000000002,86,0.8362105000000071
3337,49.44516349999999,44,0.4195800000000034,59,0.4166305000000037
3338,49.861793999999996,52,0.4166305000000037,66,0.43636399999999753
3339,50.298157999999994,60,0.43636399999999753,76,0.8424440000000075
3340,50.720693,43,0.42253500000000344,54,0.4199090000000041
3341,51.140602,51,0.4199090000000041,62,0.4379559999999998
3342,51.578558,59,0.4379559999999998,76,0.8461830000000035
3343,52.002586,42,0.42402799999999985,44,0.4221550000000036
3344,52.424741000000004,50,0.4221550000000036,56,0.43636399999999753
3345,52.861105,58,0.43636399999999753,67,0.6515420833333323
3346,53.29681958333333,41,0.43571458333332913,36,0.4380495000000053
3347,53.512647083333334,49,0.21582750000000317,54,0.22222200000000214
3348,53.73486908333334,48,0.22222200000000214,45,0.4562799999999996
3349,53.962141583333334,55,0.227272499999998,45,0.22900750000000158
3350,54.191149083333336,56,0.22900750000000158,46,0.42704599999999715
3351,54.40467208333334,55,0.21352300000000213,45,0.21352299999999502
3352,54.61819508333333,53,0.21352299999999502,45,0.4317440000000019
3353,55.049939083333335,56,0.4317440000000019,48,0.5036079999999998
3354,55.553547083333335,56,0.5036079999999998,47,0.8480334999999997
3355,55.97522658333333,44,0.4216794999999962,25,0.42635400000000345
3356,56.401580583333335,55,0.42635400000000345,43,0.43165499999999923
3357,56.833235583333334,53,0.43165499999999923,42,0.07042249999999939
3358,56.90365808333333,55,0.07042249999999939,43,0.07042249999999939
3359,56.97408058333333,53,0.07042249999999939,44,0.07042249999999939
3360,57.04450308333333,52,0.07042249999999939,45,0.21126750000000527
3361,57.25577058333334,53,0.21126750000000527,47,0.43165499999999923
3362,57.47159808333334,54,0.21582750000000317,45,0.21582749999999606
3363,57.68742558333334,55,0.21582749999999606,49,0.47576500000000266
3364,57.91214458333334,50,0.22471900000000034,46,0.2510460000000023
3365,58.16319058333334,53,0.2510460000000023,55,0.8541900000000027
3366,58.58572558333334,41,0.42253500000000344,28,0.43165499999999923
3367,59.01738058333334,51,0.43165499999999923,45,0.43165499999999923
3368,59.44903558333334,48,0.43165499999999923,46,0.1384083333333308
3369,59.58744391666667,49,0.1384083333333308,43,0.1384083333333379
3370,59.72585225000001,48,0.1384083333333379,43,0.1384083333333308
3371,59.86426058333334,46,0.1384083333333308,47,0.454689083333335
3372,60.318949666666676,48,0.454689083333335,51,0.48192800000000346
3373,60.80087766666668,49,0.48192800000000346,53,1.0105620000000002
3374,61.329511666666676,53,0.5286339999999967,54,0.48192800000000346
3375,62.34715366666668,48,1.0176420000000022,48,0.32028449999999964
3376,62.66743816666668,47,0.32028449999999964,44,0.10676149999999751
3377,62.774199666666675,43,0.10676149999999751,48,0.4444439999999972
3378,63.21864366666667,47,0.4444439999999972,45,0.44943800000000067
3379,63.66808166666667,48,0.44943800000000067,46,1.0230519999999999
3380,64.11751966666667,12,0.44943799999999356,30,0.5736140000000063
3381,64.69113366666667,50,0.5736140000000063,51,0.4444440000000043
3382,65.13557766666668,51,0.4444440000000043,52,0.2197800000000001
3383,65.35535766666668,53,0.2197800000000001,53,0.2197800000000001
3384,65.57513766666668,54,0.2197800000000001,55,0.4325460000000021
3385,66.00768366666668,54,0.4325460000000021,60,0.44984200000000385
3386,66.34169566666668,56,0.3340120000000013,55,0.11583000000000254
3387,66.45752566666668,54,0.11583000000000254,62,0.8527320000000032
3388,66.88609666666669,45,0.42857100000000514,33,0.424160999999998
3389,67.31025766666669,53,0.424160999999998,54,0.43165499999999213
3390,67.74191266666668,51,0.43165499999999213,52,0.2197800000000001
3391,67.96169266666668,53,0.2197800000000001,54,0.2197800000000001
3392,68.18147266666668,54,0.2197800000000001,57,0.4325460000000021
3393,68.61401866666668,54,0.4325460000000021,66,0.44984200000000385
3394,68.94803066666668,56,0.3340120000000013,62,0.11583000000000254
3395,69.06386066666668,54,0.11583000000000254,76,0.8558160000000044
3396,69.49551566666669,44,0.43165500000000634,48,0.424160999999998
3397,69.91967666666669,53,0.424160999999998,62,0.43636399999999753
3398,70.35604066666669,61,0.43636399999999753,81,0.8336790000000036
3399,70.7741586666667,44,0.4181180000000069,59,0.41556099999999674
3400,71.18971966666669,52,0.41556099999999674,62,0.43636399999999753
3401,71.62608366666669,60,0.43636399999999753,76,0.8391654999999929
3402,72.04861866666668,43,0.42253499999999633,54,0.4166304999999966
3403,72.46524916666668,51,0.4166304999999966,55,0.4347829999999959
3404,72.90003216666668,59,0.4347829999999959,71,0.8454410000000081
3405,73.32556416666668,42,0.425532000000004,44,0.4199090000000041
3406,73.74547316666668,50,0.4199090000000041,42,0.43636399999999753
3407,74.18183716666668,58,0.43636399999999753,56,0.6511861666666761
3408,74.61873783333336,41,0.4369006666666735,36,0.4365075000000047
3409,74.83302333333336,49,0.21428550000000257,47,0.22222200000000214
3410,75.05524533333336,48,0.22222200000000214,45,0.4689290000000028
3411,75.28513033333336,55,0.2298849999999959,45,0.23904400000000692
3412,75.52417433333336,56,0.23904400000000692,46,0.43010800000000415
3413,75.73922833333336,55,0.21505399999999497,45,0.21505400000000918
3414,75.95428233333337,53,0.21505400000000918,45,0.427819999999997
3415,76.38210233333336,56,0.427819999999997,48,0.5125200000000092
3416,76.89462233333337,56,0.5125200000000092,47,0.8480334999999997
3417,77.31630183333337,44,0.4216794999999962,25,0.42635400000000345
3418,77.74265583333337,55,0.42635400000000345,43,0.43165499999999213
3419,78.17431083333337,53,0.43165499999999213,42,0.0704225000000065
3420,78.24473333333337,55,0.0704225000000065,43,0.07042249999999228
3421,78.31515583333336,53,0.07042249999999228,44,0.0704225000000065
3422,78.38557833333337,52,0.0704225000000065,45,0.21126749999999106
3423,78.59684583333336,53,0.21126749999999106,47,0.43165500000000634
3424,78.81267333333336,54,0.21582750000000317,45,0.21582750000000317
3425,79.02850083333337,55,0.21582750000000317,53,0.49020549999998764
3426,79.25321983333336,50,0.22471899999999323,46,0.2654864999999944
3427,79.51870633333336,53,0.2654864999999944,54,0.8541900000000027
3428,79.94124133333335,41,0.42253499999999633,28,0.43165500000000634
3429,80.37289633333336,51,0.43165500000000634,45,0.43165499999999213
3430,80.80455133333335,48,0.43165499999999213,46,0.1384083333333308
3431,80.94295966666668,49,0.1384083333333308,43,0.1384083333333308
3432,81.08136800000001,48,0.1384083333333308,43,0.138408333333345
3433,81.21977633333336,46,0.138408333333345,47,0.4562739999999934
3434,81.67605033333335,48,0.4562739999999934,51,0.4780879999999996
3435,82.15413833333335,49,0.4780879999999996,61,1.0426760000000002
3436,82.71488633333335,53,0.5607480000000038,61,0.48192799999999636
3437,83.73252833333335,48,1.017641999999995,48,0.32028449999999964
3438,84.05281283333335,47,0.32028449999999964,44,0.10676150000000462
3439,84.15957433333335,43,0.10676150000000462,48,0.4444440000000043
3440,84.60401833333336,47,0.4444440000000043,45,0.44943800000000067
3441,85.05345633333336,48,0.44943800000000067,46,0.9218790000000041
3442,85.50289433333336,43,0.44943800000000067,30,0.47244100000000344
3443,85.97533533333336,43,0.47244100000000344,31,0.9105569999999972
3444,86.44777633333337,52,0.47244100000000344,54,0.43811599999999373
3445,86.77636333333336,52,0.32858699999999885,49,0.10952899999999488
3446,86.88589233333336,53,0.10952899999999488,54,0.42366900000000385
3447,87.30956133333336,50,0.42366900000000385,53,0.43159300000000655
3448,87.74115433333337,47,0.43159300000000655,54,0.4299840000000046
3449,88.06364233333338,43,0.322488000000007,51,0.1074959999999976
3450,88.17113833333337,48,0.1074959999999976,54,0.6434095000000042
3451,88.59794133333338,31,0.4268030000000067,39,0.43321299999999496
3452,88.81454783333338,50,0.21660649999999748,54,0.21660649999999748
3453,89.03115433333338,52,0.21660649999999748,54,0.43645899999999926
3454,89.35849858333337,55,0.3273442499999959,54,0.10911475000000337
3455,89.46761333333338,53,0.10911475000000337,56,0.3212910000000022
3456,89.89600133333337,50,0.4283879999999982,54,0.43321299999999496
3457,90.32921433333337,47,0.43321299999999496,54,0.4268030000000067
3458,90.47148200000004,45,0.1422676666666689,56,0.1422676666666689
3459,90.6137496666667,43,0.1422676666666689,57,0.1422676666666689
3460,90.75601733333338,48,0.1422676666666689,62,0.6473895000000027
3461,91.18761033333338,31,0.43159300000000655,41,0.4388450000000006
3462,91.40340683333338,50,0.21579649999999617,54,0.22304850000000442
3463,91.62645533333338,52,0.22304850000000442,52,0.3811939999999936
3464,91.75352000000005,52,0.12706466666666927,54,0.047649249999992094
3465,91.88058466666672,52,0.12706466666666927,55,0.047649249999992094
3466,92.00764933333338,53,0.12706466666665506,59,0.21183449999999482
3467,92.43131833333338,50,0.42366900000000385,53,0.43159300000000655
3468,92.86291133333339,47,0.43159300000000655,54,0.40595399999999415
3469,92.99822933333338,45,0.13531799999999805,51,0.05074425000000815
3470,93.13354733333338,43,0.13531799999999805,51,0.05074425000000815
3471,93.26886533333338,48,0.13531799999999805,54,0.6434095000000042
3472,93.69566833333339,31,0.4268030000000067,39,0.4365309166666691
3473,93.91227483333338,50,0.21660649999999748,54,0.21992441666667162
3474,94.13219925000006,52,0.21992441666667162,51,0.3851089999999999
3475,94.26056891666673,53,0.12836966666667138,54,0.048138624999992885
3476,94.38893858333338,55,0.12836966666665717,56,0.048138625000007096
3477,94.51730825000006,53,0.12836966666667138,61,0.2141940000000062
3478,94.94569625000005,50,0.4283879999999982,54,0.43321299999999496
3479,95.37890925000005,47,0.43321299999999496,54,0.3891050000000007
3480,95.50861091666671,45,0.12970166666666216,56,0.048638125000010746
3481,95.63831258333339,43,0.12970166666667637,57,0.048638124999996535
3482,95.76801425000005,48,0.12970166666666216,61,0.8634577916666615
3483,96.19960725000006,36,0.43159300000000655,41,0.4318647916666549
3484,96.63147204166671,52,0.4318647916666549,80,1.2930391666666736
3485,96.96005904166671,52,0.32858699999999885,75,0.10892704166666078
3486,97.06898608333337,53,0.10892704166666078,79,0.31775174999999933
3487,97.49298525000005,50,0.42399916666667536,72,0.32369475000000136
3488,97.92451120833339,52,0.4315259583333386,77,1.2568545000000029
3489,98.05626354166672,50,0.13175233333333836,72,0.13175233333332415
3490,98.18801587500005,48,0.13175233333332415,72,0.13306674999999757
3491,98.32108262500005,53,0.13306674999999757,78,0.32010225000000503
3492,98.7481527083334,50,0.42707008333334784,73,0.32490975000000333
3493,99.18136570833339,52,0.43321299999999496,80,1.2930391666666736
3494,99.50995270833339,52,0.32858699999999885,75,0.10892704166666078
3495,99.61887975000005,53,0.10892704166666078,79,0.31775174999999933
3496,100.04287891666672,50,0.42399916666667536,72,0.32369475000000136
3497,100.47440487500006,52,0.4315259583333386,77,0.39262020833332656
3498,100.60478287500005,50,0.13037799999999322,72,0.13037800000000743
3499,100.73516087500006,48,0.13037800000000743,72,0.1318642083333259
3500,100.86702508333339,69,0.1318642083333259,89,0.43321299999999496
3501,101.30023808333338,69,0.43321299999999496,83,0.4332130000000092
3502,101.73345108333339,52,0.4332130000000092,80,1.2930391666666736
3503,102.06203808333339,52,0.32858699999999885,75,0.10892704166666078
3504,102.17096512500005,53,0.10892704166666078,79,0.31775174999999933
3505,102.59496429166673,50,0.42399916666667536,72,0.32369475000000136
3506,103.02649025000007,52,0.4315259583333386,77,1.7220987916666672
3507,103.15686825000006,50,0.13037799999999322,72,0.13037800000000743
3508,103.28724625000007,48,0.13037800000000743,72,0.1318642083333259
3509,103.41911045833339,53,0.1318642083333259,78,0.32010225000000503
3510,103.84618054166674,50,0.42707008333334784,73,0.33110175000000197
3511,104.28764954166674,52,0.4414689999999979,68,0.46093949999999495
3512,104.51236854166673,54,0.22471899999999323,71,1.1811024999999944
3513,104.74858904166673,55,0.23622050000000172,74,1.445921499999983
3514,105.69347104166673,52,0.9448819999999927,68,0.5010394999999903
3515,105.92424004166672,54,0.23076899999999512,71,1.2114464999999939
3516,106.05937529166673,57,0.1351352500000047,69,0.1351352499999905
3517,106.19451054166672,55,0.1351352499999905,74,0.9411759999999987
3518,106.90039254166672,53,0.7058820000000026,70,0.23529399999999612
3519,107.13568654166671,52,0.23529399999999612,60,0.43811599999999373
3520,107.46427354166671,52,0.32858699999999885,55,0.10952899999999488
3521,107.57380254166671,53,0.10952899999999488,61,0.42366900000000385
3522,107.99747154166671,50,0.42366900000000385,59,0.43159300000000655
3523,108.42906454166672,47,0.43159300000000655,60,0.4299840000000046
3524,108.75155254166673,43,0.322488000000007,57,0.1074959999999976
3525,108.85904854166672,48,0.1074959999999976,60,0.6434095000000042
3526,109.28585154166673,31,0.4268030000000067,44,0.43321299999999496
3527,109.50245804166673,50,0.21660649999999748,60,0.21660649999999748
3528,109.71906454166673,52,0.21660649999999748,61,0.43645899999999926
3529,110.04640879166672,55,0.3273442499999959,60,0.10911475000000337
3530,110.15552354166672,53,0.10911475000000337,63,0.4283879999999982
3531,110.58391154166672,50,0.4283879999999982,60,0.43321299999999496
3532,111.01712454166672,47,0.43321299999999496,61,0.4268030000000067
3533,111.15939220833339,45,0.1422676666666689,63,0.1422676666666689
3534,111.30165987500006,43,0.1422676666666689,64,0.1422676666666689
3535,111.44392754166672,48,0.1422676666666689,69,0.6473895000000027
3536,111.87552054166673,31,0.43159300000000655,46,0.43159299999999234
3537,112.09131704166673,50,0.21579649999999617,60,0.21579649999999617
3538,112.30711354166672,52,0.21579649999999617,58,0.3792669999999987
3539,112.43353587500006,52,0.12642233333333763,60,0.04740837499998918
3540,112.55995820833338,52,0.12642233333332342,62,0.04740837500000339
3541,112.68638054166672,53,0.12642233333333763,66,0.42366900000000385
3542,113.11004954166673,50,0.42366900000000385,59,0.43159300000000655
3543,113.54164254166673,47,0.43159300000000655,61,0.3851089999999999
3544,113.6700122083334,45,0.12836966666667138,57,0.048138624999992885
3545,113.79838187500006,43,0.12836966666665717,57,0.048138625000007096
3546,113.92675154166673,48,0.12836966666667138,60,0.6434095000000042
3547,114.35355454166674,31,0.4268030000000067,44,0.43321299999999496
3548,114.57016104166674,50,0.21660649999999748,60,0.21660649999999748
3549,114.78676754166673,52,0.21660649999999748,57,0.38314200000000653
3550,114.91448154166673,53,0.12771399999999744,60,0.04789275000000259
3551,115.04219554166673,55,0.12771399999999744,63,0.04789275000000259
3552,115.16990954166674,53,0.12771400000001165,68,0.4283879999999982
3553,115.59829754166674,50,0.4283879999999982,60,0.43321299999999496
3554,116.03151054166673,47,0.43321299999999496,61,0.38709699999999714
3555,116.16054287500006,45,0.12903233333332764,63,0.04838712500000497
3556,116.2895752083334,43,0.12903233333334185,64,0.04838712499999076
3557,116.41860754166673,48,0.12903233333332764,68,0.8634577916666615
3558,116.85020054166674,36,0.43159300000000655,46,0.4318647916666549
3559,117.28206533333339,52,0.4318647916666549,80,1.2930391666666736
3560,117.61065233333339,52,0.32858699999999885,75,0.10892704166666078
3561,117.71957937500005,53,0.10892704166666078,79,0.31775174999999933
3562,118.14357854166673,50,0.42399916666667536,72,0.32369475000000136
3563,118.57510450000007,52,0.4315259583333386,77,1.2452442916666655
3564,118.70281850000006,50,0.12771399999999744,72,0.12771399999999744
3565,118.83053250000006,48,0.12771399999999744,72,0.12953320833332782
3566,118.96006570833339,53,0.12953320833332782,78,0.32010225000000503
3567,119.38713579166674,50,0.42707008333334784,73,0.32490975000000333
3568,119.82034879166673,52,0.43321299999999496,80,1.2930391666666736
3569,120.14893579166673,52,0.32858699999999885,75,0.10892704166666078
3570,120.25786283333339,53,0.10892704166666078,79,0.31775174999999933
3571,120.68186200000007,50,0.42399916666667536,72,0.32369475000000136
3572,121.1133879583334,52,0.4315259583333386,77,0.3887514166666648
3573,121.24242029166673,50,0.12903233333332764,72,0.12903233333334185
3574,121.37145262500007,48,0.12903233333334185,72,0.1306867499999953
3575,121.50213937500007,69,0.1306867499999953,89,0.43321299999999496
3576,121.93535237500006,69,0.43321299999999496,83,0.4332130000000092
3577,122.36856537500007,52,0.4332130000000092,80,1.2930391666666736
3578,122.69715237500007,52,0.32858699999999885,75,0.10892704166666078
3579,122.80607941666673,53,0.10892704166666078,79,0.31775174999999933
3580,123.23007858333341,50,0.42399916666667536,72,0.32369475000000136
3581,123.66160454166675,52,0.4315259583333386,77,1.7222642500000092
3582,123.79130620833341,50,0.12970166666666216,72,0.12970166666667637
3583,123.92100787500009,48,0.12970166666667637,72,0.13127241666666123
3584,124.05228029166675,53,0.13127241666666123,78,0.32010225000000503
3585,124.4793503750001,50,0.42707008333334784,73,0.33110175000000197
3586,124.9208193750001,52,0.4414689999999979,68,0.46304941666666366
3587,125.14671479166675,54,0.2258954166666598,71,1.185770000000005
3588,125.38386879166676,55,0.23715400000000386,74,1.4954145000000096
3589,126.33248479166676,52,0.9486160000000012,68,0.5467985000000084
3590,126.58802129166676,54,0.25553650000000516,71,1.2361440000000101
3591,126.73365229166676,57,0.14563099999999451,69,0.14563100000000873
3592,126.87928329166677,55,0.14563100000000873,74,0.9448820000000069
3593,127.58794479166677,53,0.7086615000000052,70,0.23622050000000172
3594,127.82416529166677,52,0.23622050000000172,60,0.43811599999999373
3595,128.1527522916668,52,0.32858700000001306,55,0.10952899999998067
3596,128.26228129166677,53,0.10952899999998067,61,0.42366899999998964
3597,128.68595029166676,50,0.42366899999998964,59,0.43159299999999234
3598,129.11754329166675,47,0.43159299999999234,60,0.4299839999999904
3599,129.44003129166674,43,0.3224879999999928,57,0.1074959999999976
3600,129.54752729166674,48,0.1074959999999976,60,0.6434095000000184
3601,129.97433029166675,31,0.4268030000000067,44,0.43321299999999496
3602,130.19093679166676,50,0.2166065000000117,60,0.21660649999998327
3603,130.40754329166674,52,0.21660649999998327,61,0.4364590000000135
3604,130.73488754166675,55,0.3273442500000101,60,0.10911475000000337
3605,130.84400229166675,53,0.10911475000000337,63,0.4283880000000124
3606,131.27239029166677,50,0.4283880000000124,60,0.43321299999999496
3607,131.70560329166676,47,0.43321299999999496,61,0.4268030000000067
3608,131.84787095833343,45,0.1422676666666689,63,0.1422676666666689
3609,131.9901386250001,43,0.1422676666666689,64,0.1422676666666689
3610,132.13240629166677,48,0.1422676666666689,69,0.6473895000000027
3611,132.56399929166676,31,0.43159299999999234,46,0.43159300000002077
3612,132.77979579166677,50,0.21579650000001038,60,0.21579650000001038
3613,132.99559229166678,52,0.21579650000001038,58,0.3811939999999936
3614,133.12265695833344,52,0.12706466666665506,60,0.047649250000006305
3615,133.24972162500012,52,0.12706466666668348,62,0.047649250000006305
3616,133.37678629166678,53,0.12706466666665506,66,0.42366899999998964
3617,133.80045529166676,50,0.42366899999998964,59,0.43159299999999234
3618,134.23204829166676,47,0.43159299999999234,61,0.3811939999999936
3619,134.3591129583334,45,0.12706466666665506,57,0.047649250000006305
3620,134.4861776250001,43,0.12706466666668348,57,0.047649250000006305
3621,134.61324229166675,48,0.12706466666665506,60,0.6434095000000184
3622,135.04004529166676,31,0.4268030000000067,44,0.43321299999999496
3623,135.25665179166677,50,0.2166065000000117,60,0.21660649999998327
3624,135.47325829166675,52,0.21660649999998327,57,0.3831419999999923
3625,135.60097229166675,53,0.12771399999999744,60,0.04789274999998838
3626,135.72868629166675,55,0.12771399999999744,63,0.047892750000016804
3627,135.85640029166674,53,0.12771399999999744,68,0.4283880000000124
3628,136.28478829166676,50,0.4283880000000124,60,0.43321299999999496
3629,136.71800129166675,47,0.43321299999999496,61,0.4431639999999959
3630,136.86572262500007,45,0.1477213333333225,63,0.05539550000000304
3631,137.01344395833343,43,0.1477213333333509,64,0.05539550000000304
3632,137.16116529166675,48,0.1477213333333225,68,0.8849559999999883
3633,138.04612129166674,55,0.8849559999999883,45,0.45801499999998896
3634,138.50413629166673,56,0.45801499999998896,46,0.31250024999999937
3635,138.81663654166672,55,0.31250024999999937,45,0.10416674999999032
3636,138.92080329166672,53,0.10416674999999032,45,0.427819999999997
3637,139.3486232916667,56,0.427819999999997,48,0.5293795000000046
3638,139.87800279166672,56,0.5293795000000046,47,0.8480335000000139
3639,140.29968229166673,44,0.4216795000000104,25,0.42635400000000345
3640,140.72603629166673,55,0.42635400000000345,43,0.43165500000000634
3641,141.15769129166674,53,0.43165500000000634,42,0.0704225000000065
3642,141.22811379166674,55,0.0704225000000065,43,0.0704225000000065
3643,141.29853629166675,53,0.0704225000000065,44,0.07042249999997807
3644,141.36895879166673,52,0.07042249999997807,45,0.21126750000001948
3645,141.58022629166675,53,0.21126750000001948,47,0.43165500000000634
3646,141.79605379166674,54,0.21582749999998896,45,0.21582750000001738
3647,142.01188129166675,55,0.21582750000001738,51,0.46333750000002283
3648,142.23328329166677,50,0.22140200000001187,46,0.24193550000001096
3649,142.47521879166678,53,0.24193550000001096,54,0.8633100000000127
3650,142.90687379166678,24,0.43165500000000634,30,0.43165500000000634
3651,143.3385287916668,51,0.43165500000000634,45,0.4316549999999779
3652,143.77018379166677,48,0.4316549999999779,62,0.1384083333333308
3653,143.9085921250001,50,0.1384083333333308,57,0.1384083333333308
3654,144.04700045833343,48,0.1384083333333308,57,0.1384083333333308
3655,144.18540879166676,47,0.1384083333333308,63,0.2076125000000104
3656,144.60063379166678,48,0.4152250000000208,67,0.207612499999982
3657,145.01585879166677,50,0.4152249999999924,70,0.21505400000000918
3658,145.44596679166676,55,0.43010799999998994,72,0.8451120000000003
3659,145.86554679166676,26,0.4195799999999963,56,0.425532000000004
3660,146.29107879166676,50,0.425532000000004,76,0.20905899999999633
3661,146.50013779166676,46,0.20905899999999633,73,0.20905899999999633
3662,146.70919679166676,43,0.20905899999999633,76,0.4181180000000211
3663,146.91825579166675,50,0.20905899999999633,71,0.20905900000002475
3664,147.12731479166678,42,0.20905900000002475,73,0.43321299999999496
3665,147.56052779166677,43,0.43321299999999496,76,0.8912279999999839
3666,147.99374079166677,19,0.43321299999999496,50,0.45801499999998896
3667,148.45175579166676,55,0.45801499999998896,45,0.43010799999998994
3668,148.88186379166675,56,0.43010799999998994,46,0.31250024999999937
3669,149.19436404166674,55,0.31250024999999937,45,0.10416674999999032
3670,149.29853079166674,53,0.10416674999999032,45,0.427819999999997
3671,149.72635079166673,56,0.427819999999997,48,0.5486484999999846
3672,150.27499929166672,56,0.5486484999999846,47,0.8480335000000139
3673,150.69667879166673,44,0.4216795000000104,25,0.42635400000000345
3674,151.12303279166673,55,0.42635400000000345,43,0.43165500000000634
3675,151.55468779166674,53,0.43165500000000634,42,0.0704225000000065
3676,151.62511029166674,55,0.0704225000000065,43,0.0704225000000065
3677,151.69553279166675,53,0.0704225000000065,44,0.07042249999997807
3678,151.76595529166673,52,0.07042249999997807,45,0.21126750000001948
3679,151.97722279166675,53,0.21126750000001948,47,0.43165500000000634
3680,152.19305029166674,54,0.21582749999998896,45,0.21582750000001738
3681,152.40887779166675,55,0.21582750000001738,47,0.48558850000000575
3682,152.63359679166675,50,0.22471899999999323,42,0.12499996874998942
3683,152.76403154166675,50,0.13043475000000626,42,0.13043475000000626
3684,152.89446629166676,53,0.13043475000000626,53,0.8541900000000169
3685,153.31700129166677,41,0.42253500000001054,28,0.43165500000000634
3686,153.74865629166678,51,0.43165500000000634,45,0.43165500000000634
3687,154.18031129166678,48,0.43165500000000634,41,0.1384083333333308
3688,154.3187196250001,49,0.1384083333333308,38,0.1384083333333308
3689,154.45712795833344,48,0.1384083333333308,38,0.1384083333333308
3690,154.59553629166678,46,0.1384083333333308,42,0.4562740000000076
3691,155.05181029166678,48,0.4562740000000076,45,0.49423400000000584
3692,155.5460442916668,49,0.49423400000000584,47,1.1116250000000036
3693,156.1285682916668,53,0.5825240000000065,48,0.5291009999999972
3694,157.2226412916668,48,1.0940730000000087,40,0.3588517500000137
3695,157.58149304166682,47,0.3588517500000137,37,0.11961724999997614
3696,157.7011102916668,43,0.11961724999997614,40,0.500834999999995
3697,158.2019452916668,47,0.500834999999995,38,0.5253940000000057
3698,158.7273392916668,48,0.5253940000000057,39,1.1102869999999996
3699,159.3009532916668,12,0.5736139999999921,25,0.5366730000000075
3700,0.0009949854166666668,39,0.0,52,0.12835311875
3701,0.11939825000000001,40,0.11840326458333335,48,0.12934810416666667
3702,0.23879650000000002,36,0.11939825000000001,53,0.1293481041666667
3703,0.35819475,37,0.11939824999999998,49,0.12894241666666673
3704,0.47759300000000005,34,0.11939825000000004,58,0.12407416666666671
3705,0.5921230000000001,37,0.11453000000000002,62,0.12487683333333333
3706,0.7066530000000001,46,0.11453000000000002,68,0.1345088333333333
3707,0.8308150000000001,44,0.124162,70,0.124162
3708,0.9549770000000001,44,0.124162,73,0.8592805
3709,1.2287245,37,0.2737474999999999,46,0.2600601250000001
3710,1.502472,37,0.27374750000000003,46,0.2961962250000001
3711,1.8142575,43,0.31178550000000005,52,0.2806099999999998
3712,2.0948675,39,0.2806099999999998,52,0.12934810416666664
3713,2.21426575,40,0.11939825000000015,48,0.12934810416666664
3714,2.3336639999999997,36,0.1193982499999997,53,0.12934810416666664
3715,2.45306225,37,0.11939825000000015,57,0.12894241666666684
3716,2.5724605,34,0.11939825000000015,57,0.12407416666666649
3717,2.6869905,37,0.1145299999999998,61,0.12452281250000041
3718,2.8015205,46,0.11453000000000024,63,0.1299065625
3719,2.92143425,44,0.11991374999999982,64,0.11991375000000026
3720,3.041348,44,0.11991375000000026,67,0.8578950000000001
3721,3.3177945,37,0.27644650000000004,46,0.262624175
3722,3.5942410000000002,37,0.27644650000000004,46,0.2897519000000002
3723,3.8992430000000002,43,0.305002,52,0.28061000000000025
3724,4.1798530000000005,39,0.28061000000000025,52,0.1193982499999997
3725,4.29925125,40,0.1193982499999997,48,0.1193982500000006
3726,4.418649500000001,36,0.1193982500000006,52,0.1193982499999997
3727,4.5380477500000005,37,0.1193982499999997,48,0.1193982499999997
3728,4.657446,34,0.1193982499999997,49,0.11453000000000024
3729,4.771976,37,0.11453000000000024,50,0.11452999999999935
3730,4.886506,46,0.11452999999999935,54,0.11789674999999988
3731,5.00440275,44,0.11789674999999988,55,0.11789674999999988
3732,5.1222995,42,0.11789674999999988,58,0.11991375000000026
3733,5.24221325,43,0.11991375000000026,55,0.11632458333333329
3734,5.358537833333333,49,0.11632458333333329,59,0.11437324999999987
3735,5.472911083333333,47,0.11437324999999987,57,0.11405975000000002
3736,5.586970833333333,45,0.11405975000000002,58,0.1136020000000002
3737,5.700572833333333,46,0.1136020000000002,62,0.11329349999999927
3738,5.8138663333333325,52,0.11329349999999927,65,0.11298908333333291
3739,5.926855416666665,51,0.11298908333333291,61,0.11253975000000072
3740,6.039395166666666,48,0.11253975000000072,67,0.11499550000000003
3741,6.154390666666666,49,0.11499550000000003,66,0.11499550000000003
3742,6.269386166666666,64,0.11499550000000003,71,0.1215952291666671
3743,6.381627916666666,58,0.11224174999999992,67,0.1215209374999997
3744,6.493869666666666,63,0.11224174999999992,71,0.11872077083333377
3745,6.6034922499999995,61,0.10962258333333352,70,0.118455916666667
3746,6.712814083333333,59,0.10932183333333345,68,0.11909922916666638
3747,6.82270725,58,0.10989316666666671,66,0.11985922916666691
3748,6.933324333333333,56,0.11061708333333353,65,0.12051793749999984
3749,7.044526416666667,55,0.11120208333333359,63,0.12129422916666677
3750,7.156467166666667,58,0.11194075000000048,61,0.12196802083333314
3751,7.269006916666667,49,0.11253974999999983,60,0.12272177083333347
3752,7.382300416666667,50,0.11329350000000016,61,0.0905730999999994
3753,7.472873516666667,51,0.0905730999999994,56,0.09088160000000034
3754,7.563755116666667,52,0.09088160000000034,59,0.09684478333333324
3755,7.6605999,46,0.09684478333333324,56,0.10385795000000009
3756,7.76445785,51,0.10385795000000009,56,0.10792339999999978
3757,7.87238125,49,0.10792339999999978,57,0.12934810416666664
3758,7.9917795,48,0.1193982499999997,53,0.12934810416666664
3759,8.11117775,44,0.1193982499999997,57,0.1296090000000003
3760,8.230576,45,0.1193982499999997,59,0.13207316666666635
3761,8.353105,41,0.12252900000000011,60,0.12483079166666755
3762,8.467635,42,0.11453000000000024,64,0.13355935416666753
3763,8.5912445,51,0.1236095000000006,69,0.12934810416666664
3764,8.71064275,49,0.1193982499999997,69,0.1193982499999997
3765,8.830041,49,0.1193982499999997,74,0.8487134999999988
3766,9.105144,42,0.27510299999999965,51,0.26134784999999994
3767,9.380246999999999,42,0.27510299999999965,51,0.2835821250000006
3768,9.678754499999998,48,0.2985074999999995,57,0.28060999999999936
3769,9.959364499999998,44,0.28060999999999936,57,0.12934810416666664
3770,10.078762749999997,45,0.1193982499999997,53,0.12934810416666664
3771,10.198160999999997,41,0.1193982499999997,54,0.12934810416666664
3772,10.317559249999999,42,0.11939825000000148,54,0.12894241666666595
3773,10.436957499999998,39,0.1193982499999997,57,0.12474075000000084
3774,10.551487499999999,42,0.11453000000000024,68,0.13239560416666762
3775,10.674016499999999,51,0.12252900000000011,70,0.12826585416666703
3776,10.792415749999998,49,0.11839924999999951,73,0.11839925000000129
3777,10.910815,49,0.11839925000000129,76,0.8451764999999991
3778,11.1872615,42,0.2764465000000005,51,0.2626241749999991
3779,11.463707999999999,42,0.2764464999999987,51,0.27766932499999974
3780,11.755991499999999,48,0.2922834999999999,57,0.28060999999999936
3781,12.036601499999998,44,0.28060999999999936,57,0.1193982499999997
3782,12.155999749999998,45,0.1193982499999997,53,0.1193982499999997
3783,12.275397999999997,41,0.1193982499999997,52,0.11939825000000148
3784,12.394796249999999,42,0.11939825000000148,50,0.1193982499999997
3785,12.514194499999999,39,0.1193982499999997,54,0.11453000000000024
3786,12.628724499999999,42,0.11453000000000024,55,0.11453000000000024
3787,12.743254499999999,51,0.11453000000000024,57,0.12613520833333247
3788,12.859687,49,0.11643250000000016,59,0.12642531250000033
3789,12.9761195,47,0.11643250000000016,63,0.12990656250000043
3790,13.09603325,48,0.11991375000000026,57,0.12957595833333357
3791,13.215947,57,0.11991375000000026,63,0.12560870833333304
3792,13.3318935,56,0.11594649999999973,58,0.12549066666666597
3793,13.44784,53,0.11594649999999973,60,0.12407416666666649
3794,13.56237,54,0.11453000000000024,60,0.12380918750000092
3795,13.6769,64,0.11453000000000024,66,0.12062943749999988
3796,13.788250249999999,63,0.1113502499999992,64,0.12030889583333426
3797,13.8996005,61,0.11135025000000098,68,0.11685722916666563
3798,14.00710425,60,0.10750374999999934,68,0.12182470833333348
3799,14.119346,66,0.1122417500000008,72,0.12427468749999981
3800,14.2343415,55,0.11499549999999914,70,0.11805862499999975
3801,14.343543041666665,56,0.10920154166666585,71,0.11381816666666644
3802,14.448636416666664,57,0.10509337499999916,73,0.11342229166666762
3803,14.553333916666665,51,0.10469750000000033,69,0.11342229166666584
3804,14.658031416666665,52,0.10469750000000033,74,0.11375193749999823
3805,14.762992916666663,56,0.10496149999999815,76,0.1147429166666658
3806,14.868878749999997,54,0.10588583333333368,76,0.11565039583333103
3807,14.975570499999995,52,0.10669174999999775,75,0.11667087499999873
3808,15.083213499999994,51,0.10764299999999949,72,0.11816149999999936
3809,15.191830833333327,49,0.10861733333333312,72,0.09168606666666612
3810,15.283516899999993,48,0.09168606666666612,76,0.09228320000000068
3811,15.375800099999994,51,0.09228320000000068,79,0.0929200666666663
3812,15.46872016666666,43,0.0929200666666663,79,0.09350138333333291
3813,15.562221549999993,44,0.09350138333333291,79,0.09408920000000087
3814,15.656310749999994,45,0.09408920000000087,83,0.09478573333333351
3815,15.751096483333328,39,0.09478573333333351,83,0.0954183000000004
3816,15.846514783333328,44,0.0954183000000004,83,0.09610073333333347
3817,15.942615516666661,42,0.09610073333333347,85,0.09672259999999788
3818,16.03933811666666,40,0.09672259999999788,85,0.09824180000000027
3819,16.13757991666666,39,0.09824180000000027,95,0.2472190000000012
3820,16.38479891666666,37,0.2472190000000012,89,0.2672370000000015
3821,16.652035916666662,44,0.2672370000000015,85,0.27242999999999995
3822,17.16225941666666,52,0.5102234999999986,66,0.1453758749999956
3823,17.307635291666656,46,0.1453758749999956,69,0.11594649999999973
3824,17.423581791666656,47,0.11594649999999973,74,0.1094744166666679
3825,17.533056208333324,48,0.1094744166666679,76,0.1087587499999998
3826,17.641814958333324,51,0.1087587499999998,80,0.10509349999999884
3827,17.746908458333323,49,0.10509349999999884,84,0.1050935000000024
3828,17.852001958333325,47,0.1050935000000024,88,0.10509349999999884
3829,17.957095458333324,46,0.10509349999999884,92,0.10509349999999884
3830,18.062188958333323,44,0.10509349999999884,95,0.1050935000000024
3831,18.167282458333325,43,0.1050935000000024,93,0.10509349999999884
3832,18.528632958333326,43,0.36135050000000035,90,0.26223799999999997
3833,19.027669458333325,59,0.499036499999999,90,0.1342522499999994
3834,19.161921708333324,49,0.1342522499999994,82,0.12042399999999986
3835,19.282345708333324,59,0.12042399999999986,86,0.11003524999999925
3836,19.392380958333323,58,0.11003524999999925,84,0.11003524999999925
3837,19.502416208333322,55,0.11003524999999925,81,0.10278200000000126
3838,19.605198208333324,52,0.10278200000000126,78,0.10278199999999771
3839,19.70798020833332,49,0.10278199999999771,76,0.10278200000000126
3840,19.810762208333323,46,0.10278200000000126,74,0.10278200000000126
3841,19.913544208333324,43,0.10278200000000126,71,0.10278199999999771
3842,20.01632620833332,44,0.10278199999999771,68,0.10278200000000126
3843,20.373044208333322,44,0.35671800000000076,90,0.26102849999999833
3844,20.87087120833332,63,0.49782699999999735,88,0.12639025000000004
3845,20.99726145833332,56,0.12639025000000004,84,0.11991374999999849
3846,21.117175208333318,57,0.11991374999999849,88,0.1136020000000002
3847,21.23077720833332,58,0.1136020000000002,86,0.1136020000000002
3848,21.34437920833332,61,0.1136020000000002,81,0.0947193999999989
3849,21.439098608333317,59,0.0947193999999989,77,0.08843274999999906
3850,21.527531358333317,56,0.08843274999999906,75,0.08633720000000267
3851,21.61386855833332,52,0.08633720000000267,73,0.08633719999999911
3852,21.70020575833332,51,0.08633719999999911,71,0.08633719999999911
3853,21.786542958333317,51,0.08633719999999911,70,0.1136020000000002
3854,21.900144958333318,50,0.1136020000000002,68,0.1136020000000002
3855,22.267682958333317,47,0.3675379999999997,91,0.2539359999999995
3856,22.775554958333316,71,0.507871999999999,85,0.15223466666666496
3857,22.92778962499998,65,0.15223466666666496,84,0.09965308333333311
3858,23.027442708333314,66,0.09965308333333311,84,0.07522125000000202
3859,23.102663958333316,67,0.07522125000000202,83,0.06946537500000005
3860,23.172129333333316,70,0.06946537500000005,81,0.06650033333333027
3861,23.238629666666647,68,0.06650033333333027,81,0.06387437500000104
3862,23.302504041666648,65,0.06387437500000104,80,0.06348399999999899
3863,23.365988041666647,62,0.06348399999999899,79,0.06348399999999899
3864,23.429472041666646,58,0.06348399999999899,79,0.06357937499999977
3865,23.493051416666646,59,0.06357937499999977,77,0.06377012500000134
3866,23.556821541666647,56,0.06377012500000134,76,0.06406425000000127
3867,23.620885791666648,53,0.06406425000000127,76,0.06406424999999771
3868,23.684950041666646,50,0.06406424999999771,76,0.051407341666667605
3869,23.736357383333313,46,0.051407341666667605,75,0.05196319999999943
3870,23.788320583333313,47,0.05196319999999943,75,0.05255160000000103
3871,23.840872183333314,44,0.05255160000000103,74,0.05315180833333244
3872,23.894023991666646,41,0.05315180833333244,74,0.05374619166666861
3873,23.947770183333315,38,0.05374619166666861,79,0.13555025000000143
3874,24.083320433333316,39,0.13555025000000143,71,0.13051425000000094
3875,24.213834683333317,44,0.13051425000000094,74,0.138940250000001
3876,24.35277493333332,42,0.138940250000001,70,0.1645457499999985
3877,24.517320683333317,51,0.1645457499999985,81,0.25508049999999827
3878,25.02599218333332,65,0.5086715000000019,83,0.17968158333333406
3879,25.205673766666653,64,0.17968158333333406,70,0.16465399999999875
3880,25.37032776666665,63,0.16465399999999875,68,0.14278986666666782
3881,25.528706099999987,63,0.15837833333333506,67,0.12900450000000063
3882,25.67204443333332,63,0.14333833333333246,66,0.12900450000000063
3883,25.81538276666665,63,0.14333833333333246,64,0.18097030000000203
3884,26.01685326666665,38,0.20147049999999922,72,0.13555025000000143
3885,26.152403516666652,39,0.13555025000000143,69,0.1252609999999983
3886,26.27766451666665,44,0.1252609999999983,72,0.11179024999999854
3887,26.38945476666665,43,0.11179024999999854,67,0.15086000000000155
3888,26.54031476666665,51,0.15086000000000155,81,0.25508049999999827
3889,27.05047576666665,65,0.5101610000000001,88,0.1790038333333328
3890,27.229479599999983,64,0.1790038333333328,76,0.16483183333333074
3891,27.394311433333314,63,0.16483183333333074,75,0.14340113333333449
3892,27.553366933333315,63,0.1590555000000009,71,0.09942547500000032
3893,27.663839683333315,63,0.11047274999999956,71,0.09942547500000032
3894,27.774312433333314,63,0.11047274999999956,69,0.09942547500000032
3895,27.884785183333314,63,0.11047274999999956,69,0.1494024749999987
3896,28.050787933333314,38,0.16600275000000053,76,0.13555025000000143
3897,28.186338183333316,39,0.13555025000000143,73,0.12146724999999847
3898,28.307805433333314,46,0.12146724999999847,76,0.10750374999999934
3899,28.415309183333314,44,0.10750374999999934,71,0.15589274999999958
3900,28.571201933333313,51,0.15589274999999958,86,0.25508049999999827
3901,29.081362933333313,38,0.5101610000000001,76,0.13555025000000143
3902,29.216913183333315,39,0.13555025000000143,73,0.11452999999999847
3903,29.331443183333313,49,0.11452999999999847,76,0.09950249999999983
3904,29.430945683333313,47,0.09950249999999983,71,0.15417825000000107
3905,29.585123933333314,51,0.15417825000000107,86,0.2516564999999993
3906,30.088436933333313,51,0.5033129999999986,77,0.16903312499999856
3907,30.313814433333313,63,0.22537750000000045,88,0.23382700000000156
3908,30.547641433333315,55,0.23382700000000156,77,0.1697088750000013
3909,30.773919933333314,64,0.22627849999999938,89,0.23481549999999984
3910,31.008735433333314,56,0.23481549999999984,77,0.17321025000000034
3911,31.239682433333314,71,0.23094700000000046,89,0.2483240000000002
3912,31.488006433333315,58,0.2483240000000002,77,0.17759887500000104
3913,31.72547984999998,70,0.237473416666667,89,0.2562570000000015
3914,31.981736849999983,50,0.2562570000000015,92,0.26595749999999896
3915,32.314183724999985,38,0.33244687500000225,73,0.8551715416666781
3916,32.38067309999998,40,0.06648937499999619,76,0.7886821666666819
3917,32.447162474999985,32,0.06648937500000329,77,0.7221927916666786
3918,32.50981468333332,56,0.06265220833333274,92,0.6595405833333459
3919,32.90703030833332,66,0.3972156250000012,85,0.13108741666667356
3920,33.03811772499999,64,0.13108741666667356,85,0.06831312500000308
3921,33.106430849999995,59,0.06831312500000308,84,0.06292441666666804
3922,33.16935526666666,56,0.06292441666666804,83,0.060560624999993706
3923,33.22991589166666,54,0.060560624999993706,83,0.060911458333336554
3924,33.290827349999994,52,0.060911458333336554,82,0.06144458333333347
3925,33.35227193333333,47,0.06144458333333347,81,0.0618047500000003
3926,33.41407668333333,56,0.0618047500000003,81,0.06263049999999737
3927,33.476707183333325,54,0.06263049999999737,80,0.06263050000000447
3928,33.53933768333333,52,0.06263050000000447,79,0.06291412499999893
3929,33.60225180833333,47,0.06291412499999893,79,0.06291412499999893
3930,33.66516593333333,44,0.06291412499999893,78,0.06319512500000002
3931,33.72836105833333,42,0.06319512500000002,77,0.0633877083333303
3932,33.79174876666666,40,0.0633877083333303,77,0.06348400000000254
3933,33.85523276666666,35,0.06348400000000254,76,0.063674749999997
3934,33.91890751666666,32,0.063674749999997,76,0.0637701250000049
3935,33.98267764166666,30,0.0637701250000049,76,0.06396620833333344
3936,34.046643849999995,28,0.06396620833333344,75,0.06416137499999763
3937,34.11080522499999,23,0.06416137499999763,80,0.06435562500000458
3938,34.17516085,20,0.06435562500000458,88,0.09035133333333079
3939,34.24752526666666,22,0.07236441666666593,79,0.08945504166667462
3940,34.3191981,20,0.07167283333333785,83,0.08857362500000221
3941,34.39019085,22,0.07099275000000205,76,0.08757816666666685
3942,34.46038376666667,20,0.07019291666667016,79,0.08744758333332925
3943,34.53031576666667,22,0.06993199999999433,72,0.08757791666666748
3944,34.6003781,20,0.07006233333333256,79,0.07006233333333967
3945,34.652924850000005,22,0.05254675000000475,68,0.07006233333333256
3946,34.7054716,20,0.052546749999997644,74,0.07006233333333256
3947,34.75801835,22,0.052546749999997644,68,0.07006233333333967
3948,34.810565100000005,20,0.05254675000000475,76,0.07006233333333256
3949,34.86311185,22,0.052546749999997644,68,0.07006233333333256
3950,34.9156586,20,0.052546749999997644,75,0.07125370833333733
3951,34.968205350000005,22,0.05254675000000475,66,0.07497683333333072
3952,35.02440072500001,19,0.05619537500000149,81,0.037715124999998295
3953,35.100059475,20,0.07565874999999522,76,0.0381758750000003
3954,35.17664685,28,0.07658737499999546,77,0.038651000000001545
3955,35.254188850000006,27,0.07754200000000822,84,0.03913504166666826
3956,35.33270655833334,22,0.0785177083333366,79,0.039632916666668905
3957,35.41222480833334,26,0.07951824999999957,81,0.04014366666667257
3958,35.49277105833334,21,0.0805462499999976,88,0.04066604166666821
3959,35.57437055833334,25,0.08159950000000293,84,0.041205625000003465
3960,35.65705468333334,20,0.08268412500000011,85,0.04175620833333937
3961,35.74084730833334,24,0.08379262500000095,92,0.04232174999999927
3962,35.825780516666676,20,0.08493320833333229,89,0.042906458333334285
3963,35.91199105833334,23,0.08621054166666653,90,0.04456466666666614
3964,35.999659141666676,15,0.08766808333333387,109,0.25862049999999925
3965,38.521175141666674,39,2.5215159999999983,109,1.1004119999999986
3966,39.62158714166667,35,1.1004119999999986,98,2.3262560000000008
3967,0.0,17,0.0,92,0.13031025
3968,0.13031025,24,0.13031025,56,0.52532725
3969,0.2606205,32,0.13031025,56,0.13031025000000002
3970,0.39093075,17,0.13031025000000002,46,0.13031024999999996
3971,0.521241,36,0.13031024999999996,69,0.26879299999999995
3972,0.7900339999999999,17,0.26879299999999995,75,0.13031024999999996
3973,0.9203442499999999,24,0.13031024999999996,53,0.5247279999999999
3974,1.0506544999999998,32,0.13031024999999996,53,0.13031024999999996
3975,1.1809647499999998,17,0.13031024999999996,48,0.13031024999999996
3976,1.3112749999999997,36,0.13031024999999996,65,0.26759449999999996
3977,1.5788694999999997,17,0.26759449999999996,63,0.13031024999999996
3978,1.7091797499999997,24,0.13031024999999996,51,0.5235449999999999
3979,1.8394899999999996,32,0.13031024999999996,51,0.13031024999999996
3980,1.9698002499999996,17,0.13031024999999996,46,0.13031024999999996
3981,2.1001104999999995,36,0.13031024999999996,60,0.2652285000000001
3982,2.3653389999999996,17,0.2652285000000001,61,0.13031024999999996
3983,2.4956492499999996,24,0.13031024999999996,52,0.5253272499999997
3984,2.6259594999999996,32,0.13031024999999996,53,0.13031024999999996
3985,2.7562697499999995,17,0.13031024999999996,46,0.13031024999999996
3986,2.8865799999999995,36,0.13031024999999996,60,0.26879300000000006
3987,3.1553729999999995,48,0.26879300000000006,79,0.5212409999999998
3988,3.2856832499999995,24,0.13031024999999996,48,0.5259199999999997
3989,3.4159934999999995,32,0.13031024999999996,47,0.13031024999999996
3990,3.5463037499999994,17,0.13031024999999996,41,0.13031024999999996
3991,3.6766139999999994,44,0.13031024999999996,73,0.2699785000000001
3992,3.9465924999999995,41,0.2699785000000001,70,1.5843690000000006
3993,4.07862325,24,0.1320307500000002,45,0.5281229999999999
3994,4.210654,32,0.1320307500000002,45,0.1320307499999993
3995,4.342684749999999,17,0.1320307499999993,38,0.1320307500000002
3996,4.474715499999999,36,0.1320307500000002,53,0.2640615000000004
3997,4.738777,17,0.2640615000000004,55,0.1320307499999993
3998,4.870807749999999,24,0.1320307499999993,45,0.5281230000000008
3999,5.002838499999999,32,0.1320307500000002,46,0.1320307500000002
4000,5.1348692499999995,17,0.1320307500000002,40,0.1320307500000002
4001,5.2669,36,0.1320307500000002,53,0.2640615000000004
4002,5.5309615,44,0.2640615000000004,72,0.2606204999999999
4003,5.66127175,24,0.13031024999999996,47,0.5212409999999998
4004,5.791582,48,0.13031024999999996,77,0.3909307499999999
4005,5.92189225,17,0.13031024999999996,42,0.13031024999999996
4006,6.0522025,36,0.13031024999999996,56,0.2606204999999999
4007,6.18251275,53,0.13031024999999996,78,0.13031024999999996
4008,6.312823,51,0.13031024999999996,77,1.4385742499999994
4009,6.44313325,24,0.13031024999999996,49,0.5212410000000007
4010,6.5734435,32,0.13031024999999996,49,0.13031025000000085
4011,6.703753750000001,17,0.13031025000000085,44,0.13031024999999907
4012,6.834064,36,0.13031024999999907,54,0.2606204999999999
4013,7.0946845,17,0.2606204999999999,56,0.13031025000000085
4014,7.2249947500000005,24,0.13031025000000085,48,0.5264024999999988
4015,7.3553049999999995,32,0.13031024999999907,49,0.1320307500000002
4016,7.48733575,17,0.1320307500000002,43,0.1320307500000002
4017,7.6193665,36,0.1320307500000002,54,0.2640614999999995
4018,7.751397249999999,49,0.1320307499999993,75,0.1320307500000002
4019,7.883427999999999,48,0.1320307500000002,70,0.7818615000000007
4020,8.01373825,24,0.13031024999999996,48,0.5212409999999998
4021,8.1440485,32,0.13031025000000085,48,0.13031024999999907
4022,8.27435875,17,0.13031024999999907,43,0.13031025000000085
4023,8.404669,36,0.13031025000000085,51,0.2606204999999999
4024,8.6652895,17,0.2606204999999999,53,0.13031024999999907
4025,8.79559975,24,0.13031024999999907,48,0.5253272500000001
4026,8.92591,32,0.13031025000000085,48,0.13031024999999907
4027,9.056220249999999,17,0.13031024999999907,42,0.13031025000000085
4028,9.1865305,36,0.13031025000000085,51,0.2687930000000005
4029,9.320927,48,0.13439649999999936,77,0.13439650000000114
4030,9.4553235,48,0.13439650000000114,77,0.5212409999999998
4031,9.585633750000001,24,0.13031025000000085,47,0.6228688333333317
4032,9.715944,32,0.13031024999999907,47,0.13031025000000085
4033,9.846254250000001,17,0.13031025000000085,42,0.13031024999999907
4034,9.9765645,36,0.13031024999999907,54,0.514690083333333
4035,10.208502583333333,44,0.23193808333333266,63,0.09425066666666737
4036,10.293328183333333,41,0.08482560000000028,63,0.0659754666666661
4037,10.35930365,43,0.0659754666666661,63,0.06597546666666787
4038,10.425279116666667,44,0.06597546666666787,63,0.0659754666666661
4039,10.491254583333333,43,0.0659754666666661,72,0.2606204999999999
4040,10.621564833333334,24,0.13031025000000085,45,0.5246317499999993
4041,10.751875083333333,41,0.13031024999999907,72,0.26288100000000014
4042,10.883315583333333,17,0.13144050000000007,41,0.13144050000000007
4043,11.014756083333333,36,0.13144050000000007,53,0.26288100000000014
4044,11.277637083333333,17,0.26288100000000014,55,0.13031025000000085
4045,11.407947333333334,24,0.13031025000000085,45,0.5212409999999998
4046,11.538257583333333,32,0.13031024999999907,45,0.13031025000000085
4047,11.668567833333334,17,0.13031025000000085,39,0.13031024999999907
4048,11.798878083333333,44,0.13031024999999907,70,0.2606204999999999
4049,12.059498583333333,48,0.2606204999999999,72,0.2572460000000003
4050,12.188121583333333,24,0.12862299999999927,46,0.5144920000000006
4051,12.316744583333334,53,0.12862300000000104,76,0.3858689999999996
4052,12.445367583333333,17,0.12862299999999927,40,0.12862300000000104
4053,12.573990583333334,36,0.12862300000000104,53,0.25724599999999853
4054,12.702613583333333,56,0.12862299999999927,77,0.12862299999999927
4055,12.831236583333332,55,0.12862299999999927,79,1.4266777500000014
4056,12.961546833333333,24,0.13031025000000085,47,0.5201184999999988
4057,13.091857083333332,32,0.13031024999999907,47,0.13031025000000085
4058,13.222167333333333,17,0.13031025000000085,41,0.13031024999999907
4059,13.352477583333332,36,0.13031024999999907,53,0.25837549999999965
4060,13.610853083333332,17,0.25837549999999965,54,0.12918774999999982
4061,13.740040833333332,24,0.12918774999999982,47,0.5178735000000021
4062,13.869228583333332,32,0.12918774999999982,46,0.12918774999999982
4063,13.998416333333331,17,0.12918774999999982,43,0.1291877500000016
4064,14.127604083333333,36,0.1291877500000016,53,0.2606204999999999
4065,14.257914333333334,53,0.13031025000000085,79,0.13031024999999907
4066,14.388224583333333,48,0.13031024999999907,79,0.3960922500000006
4067,14.520255333333333,24,0.1320307500000002,47,0.546474083333333
4068,14.652286083333333,32,0.1320307500000002,47,0.1320307500000002
4069,14.784316833333333,48,0.1320307500000002,57,0.1320307500000002
4070,14.850332208333333,50,0.06601537499999921,57,0.06601537500000099
4071,14.916347583333334,51,0.06601537500000099,58,0.2905076666666666
4072,14.992416416666668,50,0.07606883333333414,58,0.0743129999999983
4073,15.066729416666666,51,0.0743129999999983,59,0.06998974999999952
4074,15.136719166666666,50,0.06998974999999952,59,0.07013608333333465
4075,15.20685525,51,0.07013608333333465,60,0.13479166666666664
4076,15.274349875,50,0.06749462500000014,60,0.0672970416666665
4077,15.341646916666667,51,0.0672970416666665,61,0.5270072500000023
4078,15.408545541666667,50,0.06689862500000032,61,0.06669662499999873
4079,15.475242166666666,51,0.06669662499999873,62,0.13222525000000118
4080,15.541452041666666,50,0.0662098750000002,62,0.06601537500000099
4081,15.607467416666667,51,0.06601537500000099,63,0.13087650000000117
4082,15.673094041666667,50,0.06562662500000016,63,0.06524987500000101
4083,15.738343916666668,51,0.06524987500000101,63,0.2606204999999999
4084,15.803499041666669,50,0.06515512500000042,63,0.06515512500000042
4085,15.86865416666667,48,0.06515512500000042,64,0.06515512499999865
4086,15.933809291666668,50,0.06515512499999865,64,0.06515512500000042
4087,15.998964416666668,51,0.06515512500000042,79,0.7818614999999998
4088,16.129274666666667,24,0.13031024999999907,48,0.5212409999999998
4089,16.259584916666668,32,0.13031025000000085,48,0.13031025000000085
4090,16.38989516666667,15,0.13031025000000085,44,0.13031025000000085
4091,16.52020541666667,36,0.13031025000000085,56,0.26062049999999815
4092,16.780825916666668,49,0.26062049999999815,78,0.5212409999999998
4093,16.91113616666667,24,0.13031025000000085,49,0.5212409999999998
4094,17.04144641666667,32,0.13031025000000085,49,0.1303102499999973
4095,17.171756666666667,15,0.1303102499999973,45,0.13031025000000085
4096,17.302066916666668,48,0.13031025000000085,73,0.2606205000000017
4097,17.56268741666667,46,0.2606205000000017,60,0.1466901666666658
4098,17.636629208333336,48,0.07394179166666603,61,0.07274837499999975
4099,17.709377583333335,46,0.07274837499999975,61,0.14159850000000063
4100,17.780734625,48,0.07135704166666557,62,0.07024145833333506
4101,17.850976083333336,46,0.07024145833333506,63,0.137065833333331
4102,17.91982254166667,48,0.0688464583333328,63,0.0682193749999982
4103,17.988041916666667,46,0.0682193749999982,63,0.13399258333333464
4104,18.055337875,48,0.06729595833333235,64,0.06669662500000229
4105,18.1220345,46,0.06669662500000229,64,0.2611918333333314
4106,18.187857875000002,48,0.0658233750000008,65,0.06505820833332976
4107,18.252916083333332,44,0.06505820833332976,66,0.06515512500000042
4108,18.318071208333333,46,0.06515512500000042,67,0.06515512500000042
4109,18.383226333333333,48,0.06515512500000042,78,0.5212409999999998
4110,18.513536583333334,22,0.13031025000000085,49,0.1303102499999973
4111,18.64384683333333,32,0.1303102499999973,49,0.13031025000000085
4112,18.774157083333332,15,0.13031025000000085,43,0.13031025000000085
4113,18.904467333333333,34,0.13031025000000085,62,0.2652284999999992
4114,19.037081583333332,44,0.1326142499999996,78,0.1326142499999996
4115,19.169695833333332,39,0.1326142499999996,72,1.5740160000000003
4116,19.30231008333333,25,0.1326142499999996,50,0.1326142499999996
4117,19.43492433333333,32,0.1326142499999996,50,0.13087875000000082
4118,19.565803083333332,15,0.13087875000000082,45,0.13087875000000082
4119,19.696681833333333,34,0.13087875000000082,63,0.2617574999999981
4120,19.95843933333333,15,0.2617574999999981,63,0.13087875000000082
4121,20.089318083333332,25,0.13087875000000082,48,0.13087875000000082
4122,20.220196833333333,32,0.13087875000000082,48,0.13087874999999727
4123,20.35107558333333,15,0.13087874999999727,42,0.13087875000000082
4124,20.48195433333333,34,0.13087875000000082,63,0.26175750000000164
4125,20.743711833333332,39,0.26175750000000164,72,0.16240193333333508
4126,20.879115916666667,25,0.1354040833333343,51,0.134594083333333
4127,20.906113766666667,41,0.026997850000000767,61,0.05383763333333391
4128,20.9599514,39,0.05383763333333391,62,0.053758599999998324
4129,21.01371,38,0.053758599999998324,63,0.13359524999999906
4130,21.0672289,39,0.05351890000000026,63,0.05343809999999749
4131,21.120666999999997,41,0.05343809999999749,63,0.05327650000000261
4132,21.14730525,15,0.026638250000001307,44,0.13280658333333406
4133,21.1739435,43,0.026638250000001307,64,0.05312263333333078
4134,21.22706613333333,44,0.05312263333333078,64,0.05304570000000197
4135,21.280111833333333,46,0.05304570000000197,65,0.2629000000000019
4136,21.332924133333332,48,0.05281229999999937,66,0.052733599999999825
4137,21.385657733333332,49,0.052733599999999825,66,0.05257620000000074
4138,21.438233933333333,51,0.05257620000000074,67,0.05242640000000165
4139,21.490660333333334,53,0.05242640000000165,68,0.05235150000000033
4140,21.543011833333335,55,0.05235150000000033,69,0.13087874999999727
4141,21.59536333333333,56,0.052351499999996776,69,0.05235150000000033
4142,21.647714833333332,58,0.05235150000000033,70,0.05235150000000033
4143,21.673890583333332,25,0.026175750000000164,49,0.13106600000000057
4144,21.700066333333332,60,0.026175750000000164,71,0.05235150000000033
4145,21.752417833333332,61,0.05235150000000033,71,0.05253875000000008
4146,21.804956583333333,63,0.05253875000000008,72,0.13144050000000007
4147,21.857532783333333,65,0.05257620000000074,72,0.05257620000000074
4148,21.910108983333334,67,0.05257620000000074,72,0.05269424999999828
4149,21.936397083333333,15,0.026288099999998593,45,0.13203074999999842
4150,21.962803233333332,68,0.026406149999999684,73,0.05281229999999937
4151,22.01561553333333,70,0.05281229999999937,74,0.05281229999999937
4152,22.06842783333333,72,0.05281229999999937,75,0.2648395000000008
4153,22.121240133333334,73,0.05281230000000292,75,0.05289009999999905
4154,22.174130233333333,75,0.05289009999999905,76,0.05304570000000197
4155,22.227175933333335,77,0.05304570000000197,77,0.05304569999999842
4156,22.280221633333333,79,0.05304569999999842,77,0.05304569999999842
4157,22.333267333333332,80,0.05304569999999842,90,0.5212409999999998
4158,22.463577583333333,27,0.13031025000000085,52,0.13031025000000085
4159,22.593887833333334,36,0.13031025000000085,52,0.1303102499999973
4160,22.72419808333333,20,0.1303102499999973,45,0.13031025000000085
4161,22.85450833333333,39,0.13031025000000085,59,0.2687929999999987
4162,23.12330133333333,20,0.2687929999999987,64,0.13031025000000085
4163,23.25361158333333,27,0.13031025000000085,52,0.13031025000000085
4164,23.383921833333332,36,0.13031025000000085,52,0.1303102499999973
4165,23.51423208333333,20,0.1303102499999973,45,0.13031025000000085
4166,23.64454233333333,39,0.13031025000000085,59,0.2675945000000013
4167,23.91213683333333,50,0.2675945000000013,64,0.14526474999999905
4168,23.98535670833333,51,0.07321987499999949,64,0.07204487499999956
4169,24.05740158333333,50,0.07204487499999956,64,0.13941033333333408
4170,24.127754541666665,51,0.07035295833333421,64,0.06905737499999987
4171,24.196811916666665,50,0.06905737499999987,64,0.1338131666666662
4172,24.264315291666662,51,0.06750337499999759,64,0.06630979166666862
4173,24.33062508333333,50,0.06630979166666862,65,0.13203075000000197
4174,24.39664045833333,51,0.06601537499999921,65,0.06601537500000276
4175,24.462655833333333,50,0.06601537500000276,65,0.26099291666666957
4176,24.528282458333333,51,0.06562662500000016,65,0.06543937500000041
4177,24.593721833333333,48,0.06543937500000041,65,0.06505929166666746
4178,24.658781125,50,0.06505929166666746,65,0.06486762500000154
4179,24.723648750000002,51,0.06486762500000154,77,0.5189409999999981
4180,24.853384000000002,26,0.12973524999999952,53,0.12973524999999952
4181,24.98311925,36,0.12973524999999952,53,0.12973524999999952
4182,25.1128545,20,0.12973524999999952,45,0.12973524999999952
4183,25.24258975,38,0.12973524999999952,59,0.26288100000000014
4184,25.37403025,48,0.13144050000000007,77,0.13144050000000007
4185,25.50547075,43,0.13144050000000007,76,0.5179614999999984
4186,25.63691125,27,0.13144050000000007,52,0.13144050000000007
4187,25.76835175,36,0.13144050000000007,52,0.12754024999999913
4188,25.895892,19,0.12754024999999913,45,0.12754024999999913
4189,26.02343225,68,0.12754024999999913,87,0.2983910750000014
4190,26.282902749999998,19,0.25947049999999905,64,0.12973524999999952
4191,26.321823325,67,0.038920575000002344,74,0.06162424374999986
4192,26.38344756875,63,0.06162424374999986,73,0.06162424374999986
4193,26.412637999999998,27,0.029190431249997317,54,0.12973525000000308
4194,26.4450718125,60,0.032433812500002546,72,0.06162424374999986
4195,26.50669605625,56,0.06162424374999986,72,0.06208334375000035
4196,26.54237325,36,0.03567719375000067,54,0.13321141666666492
4197,26.5687794,55,0.026406149999999684,72,0.06293376041666576
4198,26.631713160416666,51,0.06293376041666576,72,0.064213231250001
4199,26.675584666666666,19,0.04387150624999947,46,0.13623341666666278
4200,26.695926391666667,48,0.02034172500000153,71,0.06459512916666554
4201,26.760521520833333,44,0.06459512916666554,70,0.06504416249999423
4202,26.81181808333333,39,0.0512965624999957,61,0.27947224999999776
4203,26.825565683333327,43,0.013747599999998528,70,0.0656115208333361
4204,26.891177204166663,39,0.0656115208333361,69,0.06618594583333248
4205,26.957363149999995,36,0.06618594583333248,68,0.06664884166666596
4206,27.02401199166666,32,0.06664884166666596,68,0.06727834166666469
4207,27.091290333333326,31,0.06727834166666469,85,0.5191683666666655
4208,27.221025583333326,29,0.12973524999999952,54,0.12973524999999952
4209,27.350760833333325,35,0.12973524999999952,54,0.12973524999999952
4210,27.480496083333325,19,0.12973524999999952,49,0.12996261666666697
4211,27.61045869999999,31,0.12996261666666697,64,0.2608465500000001
4212,27.71493294999999,32,0.1044742499999991,65,0.03474939999999904
4213,27.74968234999999,31,0.03474939999999904,66,0.03474939999999904
4214,27.78443174999999,30,0.03474939999999904,67,0.034749400000002595
4215,27.81918114999999,31,0.034749400000002595,67,0.03474939999999904
4216,27.85393054999999,33,0.03474939999999904,68,0.03474939999999904
4217,27.871305249999992,19,0.017374700000001297,64,0.13192924999999533
4218,27.88867994999999,35,0.017374699999997745,68,0.03474939999999904
4219,27.92342934999999,36,0.03474939999999904,68,0.035363799999998946
4220,27.958793149999988,38,0.035363799999998946,69,0.03552153333333408
4221,27.99431468333332,39,0.03552153333333408,69,0.0357587333333349
4222,28.003234499999987,29,0.008919816666665525,53,0.13540885000000102
4223,28.030073416666657,41,0.026838916666669377,70,0.03599713333333199
4224,28.06607054999999,43,0.03599713333333199,70,0.03616223333333224
4225,28.10223278333332,45,0.03616223333333224,71,0.03641056666666742
4226,28.138643349999988,47,0.03641056666666742,71,0.1405187166666657
4227,28.175389249999984,48,0.03674589999999611,72,0.03725930000000233
4228,28.212648549999987,50,0.03725930000000233,72,0.03787786666666548
4229,28.250526416666652,51,0.03787786666666548,72,0.03824180000000155
4230,28.279162066666654,19,0.02863565000000179,47,0.14792179999999533
4231,28.288768216666654,53,0.009606149999999758,72,0.03880093333333434
4232,28.327569149999988,55,0.03880093333333434,73,0.039371033333331695
4233,28.36694018333332,57,0.039371033333331695,74,0.039962049999996196
4234,28.406902233333316,59,0.039962049999996196,74,0.04046613333333582
4235,28.42708386666665,38,0.020181633333333338,64,0.32678669999999954
4236,28.44736836666665,60,0.02028450000000248,75,0.040986883333332
4237,28.488355249999984,62,0.040986883333332,75,0.04184436666666613
4238,28.53019961666665,63,0.04184436666666613,76,0.04251730000000009
4239,28.57271691666665,65,0.04251730000000009,76,0.04355754999999917
4240,28.61627446666665,67,0.04355754999999917,77,0.044777933333335795
4241,28.661052399999985,69,0.044777933333335795,77,0.045938266666667005
4242,28.706990666666652,71,0.045938266666667005,78,0.046879899999996866
4243,28.75387056666665,72,0.046879899999996866,85,0.5244470833333317
4244,28.887386899999978,19,0.13351633333332913,53,0.13031025000000085
4245,29.01769714999998,27,0.13031025000000085,54,0.13031025000000085
4246,29.14800739999998,12,0.13031025000000085,47,0.13031025000000085
4247,29.27831764999998,31,0.13031025000000085,59,0.26062049999999815
4248,29.53893814999998,12,0.26062049999999815,65,0.13031025000000085
4249,29.66924839999998,19,0.13031025000000085,53,0.13031025000000085
4250,29.79955864999998,27,0.13031025000000085,53,0.13031025000000085
4251,29.92986889999998,12,0.13031025000000085,47,0.1303102499999973
4252,30.06017914999998,31,0.1303102499999973,58,0.2606205000000017
4253,30.32079964999998,12,0.2606205000000017,64,0.13031025000000085
4254,30.45110989999998,19,0.13031025000000085,50,0.1303102499999973
4255,30.58142014999998,27,0.1303102499999973,50,0.13031025000000085
4256,30.71173039999998,12,0.13031025000000085,45,0.13031025000000085
4257,30.84204064999998,31,0.13031025000000085,59,0.26062049999999815
4258,31.102661149999978,12,0.26062049999999815,64,0.13031025000000085
4259,31.23297139999998,19,0.13031025000000085,48,0.13031025000000085
4260,31.36328164999998,27,0.13031025000000085,48,0.13031025000000085
4261,31.49359189999998,12,0.13031025000000085,45,0.1303102499999973
4262,31.623902149999978,31,0.1303102499999973,58,0.2606205000000017
4263,31.88452264999998,43,0.2606205000000017,77,0.5212410000000034
4264,32.01483289999998,19,0.13031025000000085,46,0.13031025000000085
4265,32.14514314999998,27,0.13031025000000085,46,0.13031025000000085
4266,32.27545339999998,12,0.13031025000000085,40,0.13031025000000085
4267,32.40576364999998,39,0.13031025000000085,70,0.26997850000000057
4268,32.675742149999984,36,0.26997850000000057,67,1.5843690000000024
4269,32.80777289999998,19,0.13203074999999842,45,0.13203074999999842
4270,32.93980364999998,27,0.13203074999999842,46,0.13203075000000553
4271,33.071834399999986,12,0.13203075000000553,41,0.13203074999999842
4272,33.203865149999984,31,0.13203074999999842,53,0.26406149999999684
4273,33.46792664999998,12,0.26406149999999684,55,0.13203075000000553
4274,33.59995739999999,19,0.13203075000000553,46,0.13203074999999842
4275,33.731988149999985,27,0.13203074999999842,47,0.13203074999999842
4276,33.864018899999984,12,0.13203074999999842,41,0.13203074999999842
4277,33.99604964999998,31,0.13203074999999842,53,0.26406150000000395
4278,34.260111149999986,39,0.26406150000000395,72,0.2606205000000017
4279,34.39042139999999,19,0.13031025000000085,48,0.13031025000000085
4280,34.52073164999999,43,0.13031025000000085,77,0.39093074999999544
4281,34.65104189999999,12,0.13031025000000085,43,0.13031025000000085
4282,34.78135214999999,31,0.13031025000000085,56,0.2606204999999946
4283,34.91166239999998,48,0.13031024999999374,78,0.13031025000000085
4284,35.041972649999984,46,0.13031025000000085,77,1.438574250000002
4285,35.172282899999985,19,0.13031025000000085,48,0.13031025000000085
4286,35.302593149999986,27,0.13031025000000085,48,0.13031025000000085
4287,35.43290339999999,12,0.13031025000000085,43,0.13031025000000085
4288,35.56321364999999,31,0.13031025000000085,54,0.2606205000000017
4289,35.82383414999999,12,0.2606205000000017,56,0.13031024999999374
4290,35.95414439999998,19,0.13031024999999374,48,0.13031025000000085
4291,36.084454649999984,27,0.13031025000000085,48,0.13203074999999842
4292,36.21648539999998,12,0.13203074999999842,44,0.13203074999999842
4293,36.34851614999998,31,0.13203074999999842,54,0.26406150000000395
4294,36.480546899999986,44,0.13203075000000553,75,0.13203074999999842
4295,36.612577649999984,43,0.13203074999999842,70,0.781861499999998
4296,36.742887899999985,19,0.13031025000000085,48,0.13031025000000085
4297,36.873198149999986,27,0.13031025000000085,48,0.13031025000000085
4298,37.00350839999999,12,0.13031025000000085,43,0.13031025000000085
4299,37.13381864999999,31,0.13031025000000085,51,0.2606204999999946
4300,37.39443914999998,12,0.2606204999999946,53,0.13031025000000085
4301,37.52474939999998,19,0.13031025000000085,47,0.13031025000000085
4302,37.655059649999984,27,0.13031025000000085,47,0.13031025000000085
4303,37.785369899999985,12,0.13031025000000085,43,0.13031025000000085
4304,37.915680149999986,31,0.13031025000000085,51,0.2687930000000023
4305,38.05007664999999,43,0.13439650000000114,77,0.13439650000000114
4306,38.18447314999999,43,0.13439650000000114,77,0.5212410000000034
4307,38.31478339999999,19,0.13031025000000085,48,0.13031025000000085
4308,38.44509364999999,27,0.13031025000000085,48,0.13031025000000085
4309,38.57540389999999,12,0.13031025000000085,45,0.13031025000000085
4310,38.70571414999999,31,0.13031025000000085,54,0.5146900833333348
4311,38.937652233333324,39,0.23193808333333266,63,0.09425066666666737
4312,39.022477833333326,36,0.08482560000000205,63,0.06597546666666432
4313,39.08845329999999,38,0.06597546666666432,63,0.06597546666666432
4314,39.154428766666655,39,0.06597546666666432,63,0.06597546666667142
4315,39.220404233333326,38,0.06597546666667142,72,0.2606205000000017
4316,39.35071448333333,19,0.13031025000000085,46,0.13031025000000085
4317,39.48102473333333,36,0.13031025000000085,72,0.26288100000000014
4318,39.612465233333324,12,0.13144049999999652,41,0.13144050000000362
4319,39.74390573333333,31,0.13144050000000362,53,0.26288100000000014
4320,40.00678673333333,12,0.26288100000000014,55,0.13031025000000085
4321,40.13709698333333,19,0.13031025000000085,45,0.13031025000000085
4322,40.26740723333333,27,0.13031025000000085,45,0.13031025000000085
4323,40.39771748333333,12,0.13031025000000085,39,0.13031025000000085
4324,40.52802773333333,39,0.13031025000000085,70,0.2606204999999946
4325,40.788648233333326,43,0.2606204999999946,72,0.2572460000000021
4326,40.917271233333324,19,0.1286229999999975,47,0.1286230000000046
4327,41.04589423333333,48,0.1286230000000046,76,0.3858689999999996
4328,41.174517233333326,12,0.1286229999999975,42,0.1286229999999975
4329,41.30314023333332,31,0.1286229999999975,53,0.2572460000000021
4330,41.43176323333333,51,0.1286230000000046,77,0.1286229999999975
4331,41.560386233333325,50,0.1286229999999975,79,1.4266777500000032
4332,41.690696483333326,19,0.13031025000000085,46,0.13031025000000085
4333,41.82100673333333,27,0.13031025000000085,46,0.13031025000000085
4334,41.95131698333333,12,0.13031025000000085,43,0.13031025000000085
4335,42.08162723333333,31,0.13031025000000085,53,0.25837549999999965
4336,42.34000273333333,12,0.25837549999999965,54,0.12918774999999982
4337,42.46919048333333,19,0.12918774999999982,48,0.12918774999999982
4338,42.59837823333333,27,0.12918774999999982,47,0.12918774999999982
4339,42.72756598333333,12,0.12918774999999982,42,0.12918774999999982
4340,42.85675373333333,31,0.12918774999999982,53,0.2606205000000017
4341,42.98706398333333,48,0.13031025000000085,79,0.13031025000000085
4342,43.11737423333333,43,0.13031025000000085,79,0.39609225000000237
4343,43.24940498333333,19,0.13203074999999842,47,0.13203074999999842
4344,43.381435733333326,27,0.13203074999999842,47,0.13203075000000553
4345,43.51346648333333,43,0.13203075000000553,57,0.13203074999999842
4346,43.57948185833333,45,0.06601537499999921,57,0.06601537499999921
4347,43.64549723333333,46,0.06601537499999921,58,0.2924525000000102
4348,43.72156606666667,45,0.0760688333333377,58,0.07431300000000363
4349,43.79587906666667,46,0.07431300000000363,59,0.07193458333333069
4350,43.86781365,45,0.07193458333333069,59,0.0701360833333382
4351,43.93794973333334,46,0.0701360833333382,60,0.13479166666666487
4352,44.00544435833334,45,0.06749462500000192,60,0.06729704166666295
4353,44.072741400000005,46,0.06729704166666295,61,0.13359525000000616
4354,44.139640025000006,45,0.06689862500000032,61,0.06669662500000584
4355,44.20633665000001,46,0.06669662500000584,62,0.13222524999999763
4356,44.27254652500001,45,0.06620987499999842,62,0.06601537499999921
4357,44.33856190000001,46,0.06601537499999921,63,0.1308764999999994
4358,44.40418852500001,45,0.06562662500000016,63,0.06524987499999924
4359,44.46943840000001,46,0.06524987499999924,63,0.2606205000000017
4360,44.53459352500001,45,0.06515512500000398,63,0.06515512499999687
4361,44.59974865000001,43,0.06515512499999687,64,0.06515512500000398
4362,44.66490377500001,45,0.06515512500000398,64,0.06515512499999687
4363,44.73005890000001,46,0.06515512499999687,79,0.781861499999998
4364,44.86036915000001,19,0.13031025000000085,48,0.13031025000000085
4365,44.99067940000001,27,0.13031025000000085,48,0.13031025000000085
4366,45.12098965000001,10,0.13031025000000085,42,0.13031025000000085
4367,45.251299900000014,31,0.13031025000000085,56,0.2606204999999946
4368,45.51192040000001,44,0.2606204999999946,78,0.5212410000000034
4369,45.64223065000001,19,0.13031025000000085,50,0.13031025000000085
4370,45.77254090000001,27,0.13031025000000085,49,0.13031025000000085
4371,45.90285115000001,10,0.13031025000000085,44,0.13031025000000085
4372,46.03316140000001,43,0.13031025000000085,77,0.2606205000000017
4373,46.29378190000001,41,0.2606205000000017,60,0.1466901666666658
4374,46.367723691666676,43,0.07394179166666248,61,0.0727483750000033
4375,46.44047206666668,41,0.0727483750000033,61,0.14159849999999352
4376,46.511829108333345,43,0.07135704166666557,62,0.07024145833332796
4377,46.58207056666667,41,0.07024145833332796,63,0.137065833333331
4378,46.650917025000005,43,0.0688464583333328,63,0.0682193749999982
4379,46.719136400000004,41,0.0682193749999982,63,0.13399258333333108
4380,46.786432358333336,43,0.06729595833333235,64,0.06669662499999873
4381,46.853128983333335,41,0.06669662499999873,64,0.26119183333333496
4382,46.918952358333335,43,0.0658233750000008,65,0.06505820833333331
4383,46.98401056666667,39,0.06505820833333331,66,0.06515512499999687
4384,47.049165691666666,41,0.06515512499999687,67,0.06515512500000398
4385,47.11432081666667,43,0.06515512500000398,78,0.5212409999999963
4386,47.24463106666667,17,0.13031025000000085,50,0.13031025000000085
4387,47.37494131666667,27,0.13031025000000085,50,0.13031025000000085
4388,47.50525156666667,10,0.13031025000000085,44,0.13031024999999374
4389,47.635561816666666,29,0.13031024999999374,56,0.2652284999999992
4390,47.76817606666667,39,0.13261425000000315,78,0.13261424999999605
4391,47.900790316666665,34,0.13261424999999605,72,1.5740160000000003
4392,48.03340456666667,17,0.13261425000000315,50,0.13261424999999605
4393,48.166018816666664,27,0.13261424999999605,49,0.13087875000000082
4394,48.296897566666665,10,0.13087875000000082,45,0.13087875000000082
4395,48.427776316666666,29,0.13087875000000082,55,0.26175750000000164
4396,48.68953381666667,10,0.26175750000000164,60,0.13087874999999372
4397,48.82041256666666,17,0.13087874999999372,50,0.13087875000000082
4398,48.95129131666666,27,0.13087875000000082,48,0.13087875000000082
4399,49.08217006666666,10,0.13087875000000082,44,0.13087875000000082
4400,49.213048816666664,29,0.13087875000000082,55,0.26175750000000164
4401,49.474806316666665,34,0.26175750000000164,72,0.16240193333332797
4402,49.61021039999999,20,0.1354040833333272,51,0.1345940833333401
4403,49.63720824999999,36,0.026997850000000767,61,0.053837633333337465
4404,49.69104588333333,34,0.053837633333337465,62,0.05375860000000188
4405,49.74480448333333,33,0.05375860000000188,63,0.13359525000000616
4406,49.79832338333333,34,0.05351890000000026,63,0.05343810000000104
4407,49.851761483333334,36,0.05343810000000104,63,0.05327650000000261
4408,49.87839973333334,10,0.02663825000000486,44,0.13280658333332696
4409,49.90503798333334,38,0.026638249999997754,64,0.05312263333333078
4410,49.95816061666667,39,0.05312263333333078,64,0.05304569999999842
4411,50.011206316666666,41,0.05304569999999842,65,0.2628999999999948
4412,50.064018616666665,43,0.05281229999999937,66,0.05273359999999627
4413,50.11675221666666,44,0.05273359999999627,66,0.05257620000000429
4414,50.169328416666666,46,0.05257620000000429,67,0.052426399999994544
4415,50.22175481666666,48,0.052426399999994544,68,0.05235150000000033
4416,50.27410631666666,50,0.05235150000000033,69,0.13087875000000082
4417,50.32645781666666,51,0.05235150000000033,69,0.05235150000000033
4418,50.37880931666666,53,0.05235150000000033,70,0.05235150000000033
4419,50.40498506666666,20,0.026175750000000164,52,0.13106599999999702
4420,50.43116081666666,55,0.026175750000000164,71,0.05235150000000033
4421,50.48351231666666,56,0.05235150000000033,71,0.052538749999996526
4422,50.53605106666666,58,0.052538749999996526,72,0.13144050000000362
4423,50.58862726666666,60,0.05257620000000429,72,0.052576199999997186
4424,50.64120346666666,62,0.052576199999997186,72,0.05269425000000183
4425,50.66749156666666,10,0.026288100000002146,45,0.13203074999999842
4426,50.69389771666666,63,0.026406149999999684,73,0.05281229999999937
4427,50.74671001666666,65,0.05281229999999937,74,0.05281229999999937
4428,50.79952231666666,67,0.05281229999999937,75,0.2648395000000008
4429,50.85233461666666,68,0.05281229999999937,75,0.05289009999999905
4430,50.90522471666666,70,0.05289009999999905,76,0.05304569999999842
4431,50.95827041666666,72,0.05304569999999842,77,0.053045700000005525
4432,51.01131611666666,74,0.053045700000005525,77,0.05304569999999842
4433,51.06436181666666,75,0.05304569999999842,90,0.5212410000000034
4434,51.19467206666666,22,0.13031025000000085,54,0.13031025000000085
4435,51.32498231666666,31,0.13031025000000085,52,0.13031025000000085
4436,51.455292566666664,15,0.13031025000000085,47,0.13031025000000085
4437,51.585602816666665,34,0.13031025000000085,59,0.2687930000000023
4438,51.85439581666667,15,0.2687930000000023,64,0.13031025000000085
4439,51.98470606666667,22,0.13031025000000085,51,0.13031025000000085
4440,52.11501631666667,31,0.13031025000000085,51,0.13031025000000085
4441,52.24532656666667,15,0.13031025000000085,45,0.13031025000000085
4442,52.37563681666667,34,0.13031025000000085,59,0.2675945000000013
4443,52.64323131666667,15,0.2675945000000013,64,0.1452647499999955
4444,52.71645119166667,46,0.07321987499999949,64,0.07204487499999601
4445,52.78849606666667,45,0.07204487499999601,64,0.13941033333333053
4446,52.858849025,46,0.07035295833333066,64,0.06905737499999987
4447,52.9279064,45,0.06905737499999987,64,0.13381316666666265
4448,52.995409775,46,0.06750337500000114,64,0.06630979166666151
4449,53.06171956666666,45,0.06630979166666151,65,0.13203074999999842
4450,53.12773494166666,46,0.06601537499999921,65,0.06601537499999921
4451,53.19375031666666,45,0.06601537499999921,65,0.2609929166666589
4452,53.25937694166666,46,0.06562662500000016,65,0.06543937499999686
4453,53.324816316666656,43,0.06543937499999686,65,0.06505929166666391
4454,53.38987560833332,45,0.06505929166666391,65,0.06486762499999799
4455,53.45474323333332,46,0.06486762499999799,77,0.5189410000000052
4456,53.58447848333332,21,0.12973525000000308,52,0.12973525000000308
4457,53.714213733333324,31,0.12973525000000308,52,0.12973524999999597
4458,53.84394898333332,15,0.12973524999999597,45,0.12973525000000308
4459,53.97368423333332,33,0.12973525000000308,59,0.26288100000000014
4460,54.10512473333332,43,0.13144049999999652,77,0.13144050000000362
4461,54.23656523333332,38,0.13144050000000362,76,0.5179614999999984
4462,54.36800573333332,22,0.13144049999999652,51,0.13144050000000362
4463,54.49944623333332,31,0.13144050000000362,51,0.1275402500000027
4464,54.626986483333326,14,0.1275402500000027,45,0.12754024999999558
4465,54.75452673333332,63,0.12754024999999558,87,0.31136459999999744
4466,55.01399723333332,14,0.25947049999999905,64,0.12973525000000308
4467,55.06589133333332,62,0.05189409999999839,74,0.06054311666667189
4468,55.12643444999999,58,0.06054311666667189,73,0.06054311666666479
4469,55.143732483333324,22,0.017298033333332796,54,0.12973524999999597
4470,55.186977566666656,55,0.04324508333333199,72,0.06054311666666479
4471,55.24752068333332,51,0.06054311666666479,72,0.06054311666666479
4472,55.27346773333332,31,0.025947049999999194,54,0.12973525000000308
4473,55.308063799999985,50,0.03459606666666559,72,0.06054311666667189
4474,55.36860691666666,46,0.06054311666667189,72,0.06054311666666479
4475,55.40320298333332,14,0.03459606666666559,46,0.12973524999999597
4476,55.42915003333332,43,0.025947049999999194,71,0.06054311666666479
4477,55.48969314999999,39,0.06054311666666479,70,0.06054311666666479
4478,55.53293823333332,34,0.04324508333333199,61,0.25947050000000615
4479,55.55023626666665,38,0.017298033333332796,70,0.06054311666667189
4480,55.61077938333332,34,0.06054311666667189,69,0.06054311666666479
4481,55.67132249999999,31,0.06054311666666479,68,0.06054311666666479
4482,55.73186561666665,27,0.06054311666666479,68,0.06054311666667189
4483,55.792408733333325,26,0.06054311666667189,90,0.8586618666666652
4484,55.92214398333332,24,0.12973524999999597,54,0.12973525000000308
4485,56.051879233333324,30,0.12973525000000308,54,0.12973524999999597
4486,56.18161448333332,14,0.12973524999999597,48,0.12996261666666697
4487,56.31157709999999,33,0.12996261666666697,59,0.2608465500000037
4488,56.57242364999999,14,0.2608465500000037,64,0.13169264999999797
4489,56.65107059999999,27,0.07864694999999955,60,0.03978427500000237
4490,56.69085487499999,30,0.03978427500000237,62,0.03978427499999526
4491,56.70411629999999,24,0.013261424999996052,55,0.13293836666667147
4492,56.73063914999999,33,0.02652284999999921,63,0.03978427500000237
4493,56.77042342499999,36,0.03978427500000237,63,0.03978427500000237
4494,56.81020769999999,39,0.03978427500000237,64,0.04059456666666961
4495,56.83705466666666,30,0.026846966666667527,55,0.14525645833333556
4496,56.85080226666666,42,0.01374760000000208,65,0.04271587499999896
4497,56.89351814166666,45,0.04271587499999896,67,0.04391016666666303
4498,56.937428308333324,48,0.04391016666666303,68,0.04488281666667149
4499,56.982311124999995,51,0.04488281666667149,69,0.15741091666666307
4500,57.02826809999999,54,0.04595697499999574,71,0.047022366666666926
4501,57.07529046666666,57,0.047022366666666926,72,0.048143150000001356
4502,57.12343361666666,60,0.048143150000001356,72,0.049314783333329615
4503,57.13972204166666,33,0.01628842499999905,61,0.35545230000000316
4504,57.17274839999999,63,0.03302635833333056,73,0.050547016666662614
4505,57.22329541666665,66,0.050547016666662614,75,0.051943449999996005
4506,57.27523886666665,69,0.051943449999996005,76,0.053313258333339775
4507,57.32855212499999,72,0.053313258333339775,77,0.054759874999994906
4508,57.38331199999998,75,0.054759874999994906,78,0.056278108333337684
4509,57.43959010833332,78,0.056278108333337684,79,0.055584233333341615
4510,57.49517434166666,79,0.055584233333341615,90,0.5244470833333352
4511,57.628690674999994,26,0.13351633333333268,54,0.13031025000000085
4512,57.759000924999995,34,0.13031025000000085,54,0.13031025000000085
4513,57.889311174999996,19,0.13031025000000085,48,0.13031025000000085
4514,58.019621425,38,0.13031025000000085,60,0.2687930000000023
4515,58.288414425,46,0.2687930000000023,79,1.3031025000000014
4516,58.418724675,26,0.13031025000000085,52,0.13031025000000085
4517,58.549034925,34,0.13031025000000085,52,0.13031025000000085
4518,58.679345175,19,0.13031025000000085,45,0.13031025000000085
4519,58.809655425,38,0.13031025000000085,56,0.2606204999999946
4520,59.070275925,18,0.2606204999999946,61,0.13031025000000085
4521,59.200586175,26,0.13031025000000085,51,0.13031025000000085
4522,59.330896425,34,0.13031025000000085,51,0.13031025000000085
4523,59.461206675,18,0.13031025000000085,45,0.13031025000000085
4524,59.591516925,46,0.13031025000000085,78,0.2687930000000023
4525,59.77071225833333,46,0.17919533333333248,72,0.044798833333331345
4526,59.815511091666664,49,0.044798833333331345,72,0.04479883333333845
4527,59.860309925,47,0.04479883333333845,80,0.5212410000000034
4528,59.990620175000004,26,0.13031025000000085,52,0.13031025000000085
4529,60.120930425000005,32,0.13031025000000085,52,0.13031025000000085
4530,60.251240675000005,17,0.13031025000000085,45,0.13031025000000085
4531,60.381550925000006,34,0.13031025000000085,57,0.2652284999999992
4532,60.51416517500001,46,0.13261425000000315,78,0.13261424999999605
4533,60.646779425000005,46,0.13261424999999605,77,0.5304569999999984
4534,60.77939367500001,22,0.13261425000000315,52,0.13261424999999605
4535,60.912007925000005,30,0.13261424999999605,52,0.13261425000000315
4536,61.04462217500001,15,0.13261425000000315,45,0.13261424999999605
4537,61.177236425000004,42,0.13261424999999605,80,0.2652284999999992
4538,61.442464925,39,0.2652284999999992,78,1.5768520833333426
4539,61.575079175000006,22,0.13261425000000315,53,0.13203074999999842
4540,61.707109925000005,30,0.13203074999999842,53,0.13144049999999652
4541,61.838550425,15,0.13144049999999652,45,0.13087875000000082
4542,61.969429175,34,0.13087875000000082,61,0.259853833333338
4543,62.22928300833334,15,0.259853833333338,61,0.13031025000000085
4544,62.35959325833334,22,0.13031025000000085,52,0.13031025000000085
4545,62.48990350833334,30,0.13031025000000085,52,0.13031025000000085
4546,62.62021375833334,15,0.13031025000000085,45,0.13031025000000085
4547,62.75052400833334,34,0.13031025000000085,57,0.2687930000000023
4548,63.019317008333346,42,0.2687930000000023,76,0.2606205000000017
4549,63.149627258333346,22,0.13031025000000085,52,0.13031025000000085
4550,63.27993750833335,46,0.13031025000000085,78,0.40709549999999695
4551,63.41312875833335,15,0.13319125000000298,44,0.13319124999999588
4552,63.546320008333346,34,0.13319124999999588,55,0.2814260000000033
4553,63.687033008333344,51,0.1407129999999981,81,0.1407130000000052
4554,63.82774600833335,49,0.1407130000000052,81,0.5375860000000046
4555,63.96214250833335,23,0.13439650000000114,49,0.13439650000000114
4556,64.09653900833335,30,0.13439650000000114,49,0.13439649999999403
4557,64.23093550833335,15,0.13439649999999403,44,0.13439650000000825
4558,64.36533200833335,47,0.13439650000000825,79,0.2687930000000023
4559,64.63412500833336,42,0.2687930000000023,79,1.1154909499999945
4560,64.76852150833335,23,0.13439649999999403,53,0.13439649999999403
4561,64.90291800833334,30,0.13439649999999403,51,0.13439650000000825
4562,65.03731450833335,15,0.13439650000000825,45,0.13439649999999403
4563,65.17171100833335,35,0.13439649999999403,57,0.2687930000000023
4564,65.44050400833335,15,0.2687930000000023,63,0.13439649999999403
4565,65.57490050833334,23,0.13439649999999403,51,0.13439650000000825
4566,65.70929700833335,47,0.13439650000000825,81,0.4031894999999963
4567,65.84369350833335,15,0.13439649999999403,45,0.13439650000000825
4568,65.97809000833335,35,0.13439650000000825,58,0.2687930000000023
4569,66.11248650833335,47,0.13439649999999403,78,0.13439650000000825
4570,66.24688300833336,47,0.13439650000000825,74,0.8747610999999864
4571,66.37855825833336,44,0.1316752500000007,76,0.13419766666667954
4572,66.51275592500004,45,0.13419766666667954,78,0.13782773333333864
4573,66.65058365833337,42,0.13782773333333864,80,0.1434912333333358
4574,66.79407489166671,45,0.1434912333333358,81,0.32756921666663175
4575,66.9499634416667,35,0.15588854999998603,82,0.17168066666664572
4576,67.12164410833334,47,0.17168066666664572,84,0.5212410000000034
4577,67.25195435833334,23,0.13031024999999374,51,0.13031025000000795
4578,67.38226460833334,32,0.13031025000000795,52,0.13031024999999374
4579,67.51257485833334,16,0.13031024999999374,45,0.13031025000000795
4580,67.64288510833335,44,0.13031025000000795,82,0.2675945000000013
4581,67.91047960833335,40,0.2675945000000013,82,1.3031024999999943
4582,68.04078985833334,23,0.13031024999999374,53,0.13031025000000795
4583,68.17110010833335,32,0.13031025000000795,52,0.13031024999999374
4584,68.30141035833334,16,0.13031024999999374,46,0.13031025000000795
4585,68.43172060833335,35,0.13031025000000795,58,0.2606205000000017
4586,68.69234110833335,16,0.2606205000000017,63,0.13031024999999374
4587,68.82265135833335,23,0.13031024999999374,53,0.13031025000000795
4588,68.95296160833335,32,0.13031025000000795,53,0.13031024999999374
4589,69.08327185833335,16,0.13031024999999374,46,0.13031024999999374
4590,69.21358210833334,44,0.13031024999999374,77,0.2606205000000017
4591,69.47420260833334,47,0.2606205000000017,79,0.2606205000000017
4592,69.60451285833335,23,0.13031025000000795,53,0.13031024999999374
4593,69.73482310833334,52,0.13031024999999374,81,0.39560975000000553
4594,69.86513335833335,16,0.13031025000000795,45,0.13031024999999374
4595,69.99544360833335,35,0.13031024999999374,58,0.26997849999999346
4596,70.13043285833335,56,0.13498925000000384,82,0.13498924999998962
4597,70.26542210833334,54,0.13498924999998962,79,0.5212410000000034
4598,70.39573235833333,23,0.13031024999999374,52,0.13031025000000795
4599,70.52604260833334,32,0.13031025000000795,52,0.13031024999999374
4600,70.65635285833334,16,0.13031024999999374,45,0.13031025000000795
4601,70.78666310833334,52,0.13031025000000795,77,0.2652285000000063
4602,71.05189160833335,47,0.2652285000000063,72,0.7956854999999905
4603,71.18450585833334,23,0.13261424999998894,49,0.13261425000000315
4604,71.31712010833334,32,0.13261425000000315,46,0.13261425000000315
4605,71.44973435833334,16,0.13261425000000315,43,0.13261425000000315
4606,71.58234860833335,35,0.13261425000000315,50,0.2652284999999921
4607,71.84757710833334,16,0.2652284999999921,50,0.13261425000000315
4608,71.98019135833334,23,0.13261425000000315,34,0.13261425000000315
4609,72.11280560833335,32,0.13261425000000315,35,0.13261425000000315
4610,72.24541985833335,16,0.13261425000000315,29,0.13261424999998894
4611,72.37803410833334,44,0.13261424999998894,54,0.2724549999999937
4612,72.65048910833333,47,0.2724549999999937,56,0.28008599999999717
4613,72.79053210833334,23,0.1400430000000057,34,0.14004299999999148
4614,72.93057510833333,52,0.14004299999999148,58,0.42012900000000286
4615,73.07061810833333,16,0.1400430000000057,27,0.14004299999999148
4616,73.21066110833333,35,0.14004299999999148,42,0.2800860000000114
4617,73.35070410833333,56,0.1400430000000057,61,0.1400430000000057
4618,73.49074710833334,54,0.1400430000000057,60,0.5601719999999943
4619,73.63079010833333,24,0.14004299999999148,32,0.1400430000000057
4620,73.77083310833333,32,0.1400430000000057,32,0.14004299999999148
4621,73.91087610833333,16,0.14004299999999148,27,0.1400430000000057
4622,74.05091910833333,52,0.1400430000000057,59,0.28008599999999717
4623,74.33100510833333,48,0.28008599999999717,52,1.0563060000000064
4624,74.46361935833333,24,0.13261425000000315,32,0.13261425000000315
4625,74.59623360833334,32,0.13261425000000315,32,0.13261424999998894
4626,74.72884785833332,16,0.13261424999998894,27,0.13261425000000315
4627,74.86146210833333,36,0.13261425000000315,41,0.2652285000000063
4628,75.12669060833333,16,0.2652285000000063,46,0.13031024999999374
4629,75.25700085833333,24,0.13031024999999374,33,0.13031025000000795
4630,75.38731110833334,48,0.13031025000000795,60,0.2606205000000017
4631,75.51762135833333,16,0.13031024999999374,27,0.13031025000000795
4632,75.64793160833334,48,0.13031025000000795,58,0.26406149999999684
4633,75.91199310833333,48,0.26406149999999684,62,0.26406149999999684
4634,76.04402385833333,24,0.13203074999999842,33,0.13203074999999842
4635,76.17605460833333,44,0.13203074999999842,55,0.26406150000001105
4636,76.30808535833334,16,0.13203075000001263,28,0.13203074999999842
4637,76.44011610833334,36,0.13203074999999842,41,0.26638250000000596
4638,76.57330735833334,46,0.13319124999999588,62,0.1331912500000101
4639,76.70649860833335,48,0.1331912500000101,62,1.864677499999999
4640,76.83968985833334,24,0.13319124999999588,33,0.13319124999999588
4641,76.97288110833334,32,0.13319124999999588,33,0.13319124999999588
4642,77.10607235833334,16,0.13319124999999588,27,0.1331912500000101
4643,77.23926360833335,36,0.1331912500000101,41,0.26638249999999175
4644,77.50564610833334,16,0.26638249999999175,46,0.1331912500000101
4645,77.63883735833335,24,0.1331912500000101,34,0.13319124999999588
4646,77.77202860833334,32,0.13319124999999588,33,0.13319124999999588
4647,77.90521985833334,16,0.13319124999999588,27,0.1331912500000101
4648,78.03841110833335,36,0.1331912500000101,41,0.26638249999999175
4649,78.30479360833334,16,0.26638249999999175,45,0.13319124999999588
4650,78.43798485833334,24,0.13319124999999588,33,0.1331912500000101
4651,78.57117610833335,60,0.1331912500000101,62,0.26406149999999684
4652,78.70320685833335,16,0.13203074999999842,25,0.13203074999999842
4653,78.83523760833334,48,0.13203074999999842,64,0.26406149999999684
4654,79.09929910833334,60,0.26406149999999684,67,0.19804612500000474
4655,79.23132985833335,24,0.13203075000001263,35,0.13203074999999842
4656,79.29734523333335,51,0.0660153749999921,60,0.06601537500000632
4657,79.36336060833335,49,0.06601537500000632,66,0.4102602499999932
4658,79.49539135833335,16,0.13203074999999842,26,0.13203074999999842
4659,79.62742210833335,36,0.13203074999999842,39,0.29239750000000697
4660,79.77362085833335,60,0.14619874999999638,72,0.1461987500000106
4661,79.91981960833336,60,0.1461987500000106,68,0.5304569999999984
4662,80.05243385833336,24,0.13261425000000315,45,0.13261425000000315
4663,80.18504810833336,32,0.13261425000000315,45,0.13261424999998894
4664,80.31766235833335,17,0.13261424999998894,40,0.13261425000000315
4665,80.45027660833335,56,0.13261425000000315,66,0.2652285000000063
4666,80.71550510833336,53,0.2652285000000063,66,1.3018882499999904
4667,80.84811935833335,24,0.13261424999998894,45,0.13261425000000315
4668,80.98073360833335,32,0.13261425000000315,45,0.13261425000000315
4669,81.11334785833336,17,0.13261425000000315,39,0.13261425000000315
4670,81.24596210833336,36,0.13261425000000315,55,0.2652284999999921
4671,81.51119060833335,17,0.2652284999999921,64,0.13261425000000315
4672,81.64380485833335,24,0.13261425000000315,45,0.13261425000000315
4673,81.77641910833336,32,0.13261425000000315,45,0.13144049999999652
4674,81.90785960833335,17,0.13144049999999652,39,0.13144049999999652
4675,82.03930010833335,56,0.13144049999999652,70,0.26288100000000725
4676,82.30218110833336,60,0.26288100000000725,72,0.26288099999999304
4677,82.43362160833335,24,0.13144049999999652,49,0.13144049999999652
4678,82.56506210833335,53,0.13144049999999652,75,0.40035700000001384
4679,82.69650260833336,17,0.13144050000001073,42,0.13144049999999652
4680,82.82794310833336,36,0.13144049999999652,60,0.274951999999999
4681,82.96541910833336,68,0.1374760000000066,79,0.13747599999999238
4682,83.10289510833336,67,0.13747599999999238,81,0.5257620000000003
4683,83.23433560833335,22,0.13144049999999652,51,0.13144049999999652
4684,83.36577610833335,29,0.13144049999999652,51,0.13144050000001073
4685,83.49721660833336,13,0.13144050000001073,43,0.13144049999999652
4686,83.62865710833336,53,0.13144049999999652,76,0.26997849999999346
4687,83.89863560833335,46,0.26997849999999346,80,0.26175750000000164
4688,84.02951435833334,22,0.13087874999999372,52,0.13087875000000793
4689,84.16039310833335,53,0.13087875000000793,83,0.39263624999999536
4690,84.29127185833335,13,0.13087874999999372,45,0.13087875000000793
4691,84.42215060833335,31,0.13087875000000793,63,0.26175750000000164
4692,84.55302935833335,56,0.13087874999999372,84,0.13087875000000793
4693,84.68390810833336,55,0.13087875000000793,84,0.5235149999999891
4694,84.81478685833335,23,0.13087874999999372,59,0.13087875000000793
4695,84.94566560833336,29,0.13087875000000793,58,0.13087874999999372
4696,85.07654435833335,13,0.13087874999999372,50,0.13087874999999372
4697,85.20742310833334,53,0.13087874999999372,82,0.26175750000000164
4698,85.46918060833335,47,0.26175750000000164,78,0.26175750000000164
4699,85.60005935833335,23,0.13087875000000793,58,0.13087874999999372
4700,85.73093810833335,65,0.13087874999999372,81,0.2761803500000184
4701,85.86522930833335,13,0.13429120000000694,51,0.14188915000001145
4702,86.00711845833337,56,0.14188915000001145,83,0.3353621166666443
4703,86.34248057500001,77,0.3353621166666443,72,0.13319124999999588
4704,86.43127474166668,79,0.08879416666667339,72,0.08879416666665918
4705,86.475671825,23,0.044397083333322485,61,0.1331912500000101
4706,86.52006890833334,78,0.044397083333336695,72,0.08879416666667339
4707,86.60886307500002,74,0.08879416666667339,71,0.13261425000000315
4708,86.69727257500001,73,0.08840949999999737,71,0.08840949999999737
4709,86.74147732500002,13,0.04420475000000579,54,0.13261425000000315
4710,86.78568207500001,72,0.04420474999999158,71,0.08840950000001158
4711,86.87409157500002,71,0.08840950000001158,70,0.26406149999999684
4712,86.96211207500002,73,0.08802049999999895,70,0.08802049999999895
4713,87.05013257500002,69,0.08802049999999895,70,0.08802049999999895
4714,87.13815307500002,13,0.08802049999999895,70,0.13144049999999652
4715,87.22578007500002,67,0.08762699999999768,69,0.08762699999999768
4716,87.26959357500002,23,0.04381349999999884,60,0.13144049999999652
4717,87.31340707500001,69,0.04381349999999884,69,0.08762699999999768
4718,87.40103407500001,65,0.08762699999999768,68,0.13087874999999372
4719,87.48828657500002,67,0.08725250000000528,68,0.08725249999999107
4720,87.531912825,13,0.04362624999998843,53,0.13087875000000793
4721,87.57553907500001,66,0.04362625000000264,68,0.08725250000000528
4722,87.66279157500001,65,0.08725250000000528,67,0.2606205000000017
4723,87.74966507500001,61,0.08687349999999583,67,0.08687350000001004
4724,87.83653857500002,60,0.08687350000001004,67,0.08687349999999583
4725,87.92341207500002,13,0.08687349999999583,68,0.13031024999999374
4726,88.01028557500001,58,0.08687349999999583,66,0.08687349999999583
4727,88.05372232500001,23,0.043436749999997915,60,0.13031025000000795
4728,88.09715907500001,60,0.043436749999997915,66,0.08687350000001004
4729,88.18403257500002,56,0.08687350000001004,65,0.13087874999999372
4730,88.27128507500002,58,0.08725250000000528,65,0.08725249999999107
4731,88.31491132500001,13,0.04362624999998843,54,0.13106600000000412
4732,88.35853757500001,57,0.04362625000000264,65,0.08743975000000148
4733,88.44597732500002,53,0.08743975000000148,64,0.2632744999999943
4734,88.53360432500001,55,0.08762699999999768,64,0.08762699999999768
4735,88.62123132500001,54,0.08762699999999768,64,0.08802049999999895
4736,88.70925182500001,13,0.08802049999999895,67,0.13203074999999842
4737,88.79727232500001,52,0.08802049999999895,64,0.08821500000000526
4738,88.84128257500001,23,0.04401024999999947,58,0.13261425000000315
4739,88.88548732500001,48,0.04420475000000579,64,0.08840949999999737
4740,88.97389682500001,50,0.08840949999999737,63,0.13280658333333406
4741,89.06230632500001,49,0.08840949999999737,63,0.08879416666667339
4742,89.10670340833335,13,0.044397083333336695,52,0.13319124999999588
4743,89.15110049166668,45,0.044397083333336695,63,0.08879416666665918
4744,89.23989465833334,32,0.08879416666665918,64,0.2673924999999997
4745,89.32889082500002,46,0.08899616666667498,63,0.08919816666666236
4746,89.41808899166668,41,0.08919816666666236,63,0.08919816666666236
4747,89.50728715833334,36,0.08919816666666236,85,0.5327649999999977
4748,89.64047840833334,20,0.13319124999999588,54,0.1331912500000101
4749,89.77366965833335,29,0.1331912500000101,54,0.13319124999999588
4750,89.90686090833334,12,0.13319124999999588,48,0.13319124999999588
4751,90.04005215833334,32,0.13319124999999588,62,0.26638250000000596
4752,90.17324340833333,48,0.13319124999999588,83,0.1331912500000101
4753,90.30643465833334,48,0.1331912500000101,86,1.0424820000000068
4754,90.43674490833334,20,0.13031024999999374,55,0.13031025000000795
4755,90.56705515833335,29,0.13031025000000795,55,0.13031024999999374
4756,90.69736540833334,12,0.13031024999999374,49,0.13031025000000795
4757,90.82767565833335,32,0.13031025000000795,61,0.2606205000000017
4758,91.08829615833335,12,0.2606205000000017,67,0.13031024999999374
4759,91.21860640833334,20,0.13031024999999374,55,0.13031025000000795
4760,91.34891665833335,46,0.13031025000000795,81,0.39093074999999544
4761,91.47922690833335,12,0.13031024999999374,50,0.13031024999999374
4762,91.60953715833334,32,0.13031024999999374,63,0.2606205000000017
4763,91.73984740833335,44,0.13031025000000795,78,0.13031024999999374
4764,91.87015765833334,43,0.13031024999999374,76,0.12918774999999982
4765,91.99934540833334,44,0.12918774999999982,78,0.12918774999999982
4766,92.10700186666668,43,0.10765645833333792,78,0.10765645833332371
4767,92.12853315833334,29,0.0215312916666619,56,0.12918774999999982
4768,92.214658325,41,0.08612516666666181,78,0.10765645833333792
4769,92.25772090833334,12,0.04306258333333801,50,0.12918774999999982
4770,92.32231478333334,43,0.06459387499999991,78,0.10765645833333792
4771,92.38690865833334,32,0.06459387499999991,63,0.25837549999999965
4772,92.42997124166668,44,0.04306258333333801,78,0.10765645833332371
4773,92.5376277,41,0.10765645833332371,73,0.10765645833333792
4774,92.64528415833334,36,0.10765645833333792,78,0.26406149999999684
4775,92.77731490833334,20,0.13203074999999842,57,0.13203074999999842
4776,92.90934565833334,29,0.13203074999999842,57,0.13203074999999842
4777,93.04137640833333,12,0.13203074999999842,49,0.13203074999999842
4778,93.17340715833333,48,0.13203074999999842,84,0.2606205000000017
4779,93.43402765833333,72,0.2606205000000017,84,1.0424819999999926
4780,93.56433790833333,20,0.13031024999999374,59,0.13031025000000795
4781,93.69464815833334,29,0.13031025000000795,59,0.13031024999999374
4782,93.82495840833333,12,0.13031024999999374,54,0.13031025000000795
4783,93.95526865833334,32,0.13031025000000795,63,0.2606205000000017
4784,94.21588915833334,12,0.2606205000000017,70,0.13031024999999374
4785,94.34619940833333,20,0.13031024999999374,59,0.13031024999999374
4786,94.47650965833333,70,0.13031024999999374,85,0.39093075000000965
4787,94.60681990833334,12,0.13031025000000795,53,0.13031024999999374
4788,94.73713015833333,32,0.13031024999999374,67,0.2606205000000017
4789,94.86744040833334,56,0.13031025000000795,87,0.13031024999999374
4790,94.99775065833333,55,0.13031024999999374,80,0.13031025000000795
4791,95.12806090833334,68,0.13031025000000795,82,0.13031024999999374
4792,95.23665278333333,67,0.10859187499998768,82,0.10859187500000189
4793,95.25837115833333,29,0.021718375000006063,59,0.13031024999999374
4794,95.34524465833333,53,0.08687349999999583,82,0.10859187500000189
4795,95.38868140833333,12,0.043436749999997915,52,0.13031025000000795
4796,95.45383653333333,55,0.06515512500000398,82,0.10859187500000189
4797,95.51899165833333,32,0.06515512500000398,67,0.277947999999995
4798,95.56242840833333,56,0.043436749999997915,82,0.11147979166666744
4799,95.72312078333333,65,0.16069237499999645,82,0.07381887500000062
4800,95.79693965833333,73,0.07381887500000062,89,0.2606205000000017
4801,95.92724990833332,22,0.13031024999999374,61,0.13031025000000795
4802,96.05756015833333,55,0.13031025000000795,84,0.2606205000000017
4803,96.18787040833332,12,0.13031024999999374,54,0.13031025000000795
4804,96.31818065833333,56,0.13031025000000795,84,0.2675945000000013
4805,96.58577515833333,60,0.2675945000000013,87,0.2606205000000017
4806,96.71608540833333,22,0.13031024999999374,58,0.13031025000000795
4807,96.84639565833334,58,0.13031025000000795,84,0.2606205000000017
4808,96.97670590833333,12,0.13031024999999374,51,0.13031025000000795
4809,97.10701615833334,61,0.13031025000000795,84,0.2675945000000013
4810,97.37461065833334,65,0.2675945000000013,88,0.2606205000000017
4811,97.50492090833333,22,0.13031024999999374,63,0.13031025000000795
4812,97.63523115833334,58,0.13031025000000795,83,0.2606205000000017
4813,97.76554140833333,12,0.13031024999999374,57,0.13031025000000795
4814,97.89585165833334,60,0.13031025000000795,80,0.2606205000000017
4815,98.15647215833334,63,0.2606205000000017,86,0.2606205000000017
4816,98.28678240833334,22,0.13031024999999374,63,0.13031025000000795
4817,98.41709265833335,61,0.13031025000000795,82,0.2606204999999875
4818,98.54740290833334,12,0.13031024999999374,58,0.13031024999999374
4819,98.67771315833333,31,0.13031024999999374,66,0.26638250000000596
4820,98.81090440833333,43,0.13319124999999588,79,0.1331912500000101
4821,98.94409565833334,46,0.1331912500000101,87,0.2606205000000017
4822,99.07440590833333,22,0.13031024999999374,61,0.13031025000000795
4823,99.20471615833334,49,0.13031025000000795,81,0.2606205000000017
4824,99.33502640833333,12,0.13031024999999374,56,0.13031025000000795
4825,99.46533665833334,51,0.13031025000000795,79,0.2606205000000017
4826,99.72595715833334,55,0.2606205000000017,83,0.2606205000000017
4827,99.85626740833334,22,0.13031024999999374,60,0.13031025000000795
4828,99.98657765833335,53,0.13031025000000795,78,0.2606204999999875
4829,100.11688790833334,12,0.13031024999999374,54,0.13031024999999374
4830,100.24719815833333,34,0.13031024999999374,78,0.2724549999999937
4831,100.51965315833333,49,0.2724549999999937,86,0.7818615000000051
4832,100.64996340833332,22,0.13031024999999374,59,0.13031025000000795
4833,100.78027365833333,29,0.13031025000000795,60,0.13031024999999374
4834,100.91058390833332,12,0.13031024999999374,54,0.13031025000000795
4835,101.04089415833333,31,0.13031025000000795,67,0.2606205000000017
4836,101.30151465833333,28,0.2606205000000017,84,0.7921845000000047
4837,101.43354540833333,22,0.13203074999999842,61,0.13203074999999842
4838,101.56557615833333,24,0.13203074999999842,61,0.13203074999999842
4839,101.69760690833333,12,0.13203074999999842,54,0.13203074999999842
4840,101.82963765833333,31,0.13203074999999842,65,0.26406150000001105
4841,102.09369915833334,41,0.26406150000001105,86,0.5212410000000034
4842,102.22400940833333,24,0.13031024999999374,63,0.13031025000000795
4843,102.35431965833334,32,0.13031025000000795,62,0.13031024999999374
4844,102.48462990833333,17,0.13031024999999374,57,0.13031025000000795
4845,102.61494015833334,36,0.13031025000000795,67,0.2606205000000017
4846,102.87556065833334,17,0.2606205000000017,68,0.13031024999999374
4847,103.00587090833334,24,0.13031024999999374,62,0.13031025000000795
4848,103.13618115833334,32,0.13031025000000795,62,0.13031024999999374
4849,103.26649140833334,17,0.13031024999999374,58,0.13031024999999374
4850,103.39680165833333,36,0.13031024999999374,66,0.2675945000000013
4851,103.66439615833333,80,0.2675945000000013,90,0.6515512499999971
4852,103.79470640833333,23,0.13031024999999374,62,0.13031025000000795
4853,103.92501665833333,32,0.13031025000000795,62,0.13031024999999374
4854,104.05532690833333,17,0.13031024999999374,56,0.13031025000000795
4855,104.18563715833334,35,0.13031025000000795,66,0.2606205000000017
4856,104.31594740833333,79,0.13031024999999374,81,0.043436749999997915
4857,104.35938415833333,77,0.043436749999997915,80,0.043436749999997915
4858,104.40282090833333,74,0.043436749999997915,80,0.043436750000012125
4859,104.44625765833334,70,0.043436750000012125,79,0.1293702499999938
4860,104.48932024166668,68,0.04306258333333801,79,0.0430625833333238
4861,104.532382825,67,0.0430625833333238,78,0.04324508333333199
4862,104.57562790833333,65,0.04324508333333199,78,0.13011858333332782
4863,104.61887299166666,62,0.04324508333333199,77,0.043436749999997915
4864,104.66230974166666,58,0.043436749999997915,77,0.043436749999997915
4865,104.70574649166666,56,0.043436749999997915,76,0.13106600000000412
4866,104.74937274166666,55,0.04362625000000264,76,0.04362625000000264
4867,104.79299899166666,53,0.04362625000000264,75,0.04381349999999884
4868,104.83681249166666,50,0.04381349999999884,75,0.1318339999999978
4869,104.88062599166666,46,0.04381349999999884,75,0.04401024999999947
4870,104.92463624166666,44,0.04401024999999947,74,0.04401024999999947
4871,104.96864649166666,43,0.04401024999999947,74,0.2664018333333331
4872,105.01285124166667,41,0.04420475000000579,73,0.04420474999999158
4873,105.05705599166666,38,0.04420474999999158,73,0.044397083333336695
4874,105.101453075,34,0.044397083333336695,72,0.044397083333336695
4875,105.14585015833333,32,0.044397083333336695,72,0.044599083333338285
4876,105.19044924166667,31,0.044599083333338285,72,0.044599083333324074
4877,105.235048325,29,0.044599083333324074,90,1.0470300000000066
4878,105.36592707499999,24,0.13087874999999372,52,0.13087875000000793
4879,105.496805825,32,0.13087875000000793,52,0.13087874999999372
4880,105.62768457499999,17,0.13087874999999372,45,0.13087875000000793
4881,105.758563325,36,0.13087875000000793,62,0.26175750000000164
4882,106.020320825,17,0.26175750000000164,64,0.13087874999999372
4883,106.15119957499999,24,0.13087874999999372,53,0.13087875000000793
4884,106.282078325,32,0.13087875000000793,53,0.13087874999999372
4885,106.412957075,17,0.13087874999999372,46,0.13087874999999372
4886,106.54383582499999,36,0.13087874999999372,63,0.26997849999999346
4887,106.81381432499998,44,0.26997849999999346,73,1.5868825000000157
4888,106.94525482499998,23,0.13144049999999652,51,0.13144049999999652
4889,107.07669532499997,32,0.13144049999999652,51,0.13144050000001073
4890,107.20813582499999,17,0.13144050000001073,46,0.13144049999999652
4891,107.33957632499998,35,0.13144049999999652,56,0.26638250000000596
4892,107.60595882499999,49,0.26638250000000596,72,0.7947380000000095
4893,107.73683757499998,23,0.13087874999999372,49,0.13087875000000793
4894,107.86771632499999,32,0.13087875000000793,49,0.13087874999999372
4895,107.99859507499998,17,0.13087874999999372,44,0.13087875000000793
4896,108.12947382499999,35,0.13087875000000793,56,0.2712230000000062
4897,108.400696825,48,0.2712230000000062,69,0.5257620000000003
4898,108.532137325,24,0.13144049999999652,49,0.13144049999999652
4899,108.66357782499999,32,0.13144049999999652,48,0.13144050000001073
4900,108.795018325,17,0.13144050000001073,41,0.13144049999999652
4901,108.926458825,36,0.13144049999999652,56,0.26288099999999304
4902,109.18933982499999,17,0.26288099999999304,61,0.13144050000001073
4903,109.320780325,24,0.13144050000001073,48,0.13144049999999652
4904,109.452220825,32,0.13144049999999652,48,0.13144049999999652
4905,109.583661325,17,0.13144049999999652,41,0.13144049999999652
4906,109.71510182499999,36,0.13144049999999652,56,0.2712230000000062
4907,109.986324825,68,0.2712230000000062,90,0.654393749999997
4908,110.11720357499999,23,0.13087874999999372,52,0.13087875000000793
4909,110.248082325,32,0.13087875000000793,52,0.13087874999999372
4910,110.37896107499999,17,0.13087874999999372,45,0.13087875000000793
4911,110.509839825,35,0.13087875000000793,61,0.26175750000000164
4912,110.640718575,79,0.13087874999999372,80,0.04362625000000264
4913,110.684344825,77,0.04362625000000264,79,0.04362625000000264
4914,110.727971075,74,0.04362625000000264,79,0.04362625000000264
4915,110.771597325,70,0.04362625000000264,78,0.12881124999999827
4916,110.81447165833333,68,0.04287433333333013,78,0.04287433333333013
4917,110.85734599166666,67,0.04287433333333013,78,0.04306258333333801
4918,110.900408575,65,0.04306258333333801,77,0.12955274999998778
4919,110.94347115833332,62,0.0430625833333238,77,0.04324508333333199
4920,110.98671624166666,58,0.04324508333333199,76,0.04324508333333199
4921,111.02996132499999,56,0.04324508333333199,76,0.13049974999999847
4922,111.07339807499999,55,0.043436749999997915,75,0.043436749999997915
4923,111.11683482499998,53,0.043436749999997915,75,0.04362625000000264
4924,111.16046107499999,50,0.04362625000000264,75,0.13125325000000032
4925,111.20408732499999,46,0.04362625000000264,74,0.04381349999999884
4926,111.24790082499999,44,0.04381349999999884,74,0.04381349999999884
4927,111.29171432499999,43,0.04381349999999884,73,0.2654261666666713
4928,111.33572457499999,41,0.04401024999999947,73,0.04401024999999947
4929,111.37973482499999,38,0.04401024999999947,73,0.04420475000000579
4930,111.42393957499999,34,0.04420475000000579,72,0.04420474999999158
4931,111.46814432499998,32,0.04420474999999158,72,0.044397083333336695
4932,111.51254140833332,31,0.044397083333336695,72,0.044599083333338285
4933,111.55714049166666,29,0.044599083333338285,90,1.070377999999991
4934,111.69093774166666,24,0.13379725000000064,52,0.13379725000000064
4935,111.82473499166666,32,0.13379725000000064,52,0.13379725000000064
4936,111.95853224166666,17,0.13379725000000064,42,0.13379724999998643
4937,112.09232949166665,36,0.13379724999998643,60,0.2675945000000013
4938,112.35992399166665,17,0.2675945000000013,66,0.13379725000000064
4939,112.49372124166665,24,0.13379725000000064,51,0.13379725000000064
4940,112.62751849166665,32,0.13379725000000064,51,0.13379725000000064
4941,112.76131574166665,17,0.13379725000000064,43,0.13379725000000064
4942,112.89511299166665,36,0.13379725000000064,62,0.2675945000000013
4943,113.16270749166665,50,0.2675945000000013,72,0.1500523124999944
4944,113.30125074166665,23,0.1385432499999979,51,0.13768691666666655
4945,113.32887249166664,50,0.02762174999999445,73,0.14884252083334104
4946,113.43893765833332,32,0.1100651666666721,51,0.1364387499999964
4947,113.49363990833332,50,0.05470225000000539,74,0.14728205833331742
4948,113.57537640833331,17,0.081736499999991,44,0.1354040833333272
4949,113.65674330833332,50,0.08136690000000613,75,0.14586480416664926
4950,113.71078049166664,35,0.05403718333332108,61,0.26739766666666753
4951,113.81821779166664,50,0.10743730000000085,76,0.14448870416666182
4952,113.97817815833331,49,0.1599603666666667,77,0.14434102083332334
4953,114.1113694083333,23,0.13319124999999588,51,0.13379725000000064
4954,114.1381288583333,49,0.02675945000000013,79,0.14511680833332719
4955,114.2451666583333,32,0.10703780000000052,52,0.13439649999999403
4956,114.2989252583333,49,0.05375859999999477,80,0.1458827041666666
4957,114.3795631583333,17,0.08063789999999926,45,0.13519666666665842
4958,114.4605567083333,49,0.0809935500000023,81,0.14687097499998458
4959,114.51475982499996,35,0.054203116666656115,61,0.2712230000000062
4960,114.62324902499996,49,0.10848920000000817,81,0.14691245833333255
4961,114.78598282499996,17,0.16273379999999804,50,0.5424459999999982
4962,114.81988569999996,24,0.03390287499999545,52,0.23732012499999655
4963,114.85378857499995,32,0.03390287499999545,54,0.2034172500000011
4964,114.88769144999996,36,0.03390287500000966,77,0.16951437499999145
4965,114.92159432499996,44,0.03390287499999545,81,0.135611499999996
4966,114.98940007499996,48,0.0678057500000051,85,0.10170862500000055
4967,115.59965182499995,77,0.6102517499999891,102,0.8136690000000044
4968,116.41332082499996,73,0.8136690000000044,86,0.06515512500000398
4969,116.47847594999996,72,0.06515512500000398,86,0.06515512499998977
4970,116.54363107499995,68,0.06515512499998977,86,0.06543937499999686
4971,116.60907044999995,65,0.06543937499999686,85,0.06543937499999686
4972,116.67450982499994,61,0.06543937499999686,85,0.06572024999999826
4973,116.74023007499994,60,0.06572024999999826,85,0.0659169999999989
4974,116.80614707499994,56,0.0659169999999989,84,0.06601537500000632
4975,116.87216244999995,53,0.06601537500000632,84,0.06620987499999842
4976,116.93837232499995,49,0.06620987499999842,84,0.06640329166665992
4977,117.0047756166666,48,0.06640329166665992,83,0.06659562500000504
4978,117.07137124166661,44,0.06659562500000504,83,0.06669662499999163
4979,117.1380678666666,41,0.06669662499999163,83,0.06689862499999322
4980,117.2049664916666,37,0.06689862499999322,82,0.06719825000000412
4981,117.2721647416666,36,0.06719825000000412,82,0.06719824999998991
4982,117.33936299166659,32,0.06719824999998991,82,0.06749462499999481
4983,117.40685761666658,29,0.06749462499999481,81,0.0677020416666636
4984,117.47455965833325,25,0.0677020416666636,81,0.0678057500000051
4985,117.54236540833325,24,0.0678057500000051,81,0.06801108333333161
4986,117.61037649166659,20,0.06801108333333161,81,0.0682193749999982
4987,117.67859586666658,17,0.0682193749999982,81,0.06843062499999064
4988,117.74702649166657,13,0.06843062499999064,81,0.0685330833333353
4989,117.81555957499991,12,0.0685330833333353,80,0.06873799999999619
4990,117.8842975749999,8,0.06873799999999619,80,0.06905437499999323
4991,117.9533519499999,7,0.06905437499999323,79,0.06905437500000744
4992,118.0224063249999,5,0.06905437500000744,113,1.3810874999999925
4993,119.6797113249999,5,1.6573049999999938,115,1.3810875000000067
4994,121.33701632499991,5,1.657305000000008,113,1.8585049999999939
4995,0.0,44,0.0,70,0.2083335
4996,0.31250025000000003,44,0.31250025000000003,66,0.10416674999999997
4997,0.416667,46,0.10416674999999997,70,0.401338
4998,0.818005,48,0.401338,70,0.4075654999999999
4999,1.2255705,49,0.4075654999999999,71,0.20114941666666675
5000,1.5267199166666665,51,0.3011494166666666,66,0.10000000000000009
5001,1.6267199166666666,53,0.10000000000000009,70,0.3999999999999999
5002,2.0267199166666665,54,0.3999999999999999,75,0.20000000000000018
5003,2.2267199166666667,56,0.20000000000000018,79,0.20978999999999992
5004,2.4365099166666666,58,0.20978999999999992,83,0.333820625
5005,2.7415949166666667,60,0.30508500000000005,75,0.11494250000000017
5006,2.7703305416666666,34,0.02873562499999993,59,0.49943729166666717
5007,2.7990661666666665,37,0.02873562499999993,59,0.47070166666666724
5008,2.8278017916666665,42,0.02873562499999993,59,0.4419660416666673
5009,2.856537416666667,61,0.028735625000000375,76,0.41323041666666693
5010,2.909107666666667,63,0.05257025000000004,67,0.052204750000000466
5011,2.9613124166666673,61,0.052204750000000466,73,0.0516060416666666
5012,3.012918458333334,63,0.0516060416666666,66,0.05136987500000023
5013,3.064288333333334,61,0.05136987500000023,70,0.05136987499999979
5014,3.115658208333334,63,0.05136987499999979,64,0.05136987500000023
5015,3.167028083333334,61,0.05136987500000023,70,0.05136987499999979
5016,3.218397958333334,63,0.05136987499999979,64,0.05136987499999979
5017,3.2697678333333338,60,0.05136987499999979,70,0.2072561666666668
5018,3.4770240000000006,58,0.2072561666666668,56,0.16642012500000014
5019,3.6434441250000007,56,0.16642012500000014,46,0.05370237499999986
5020,3.6971465000000006,61,0.05370237499999986,53,0.26408450000000006
5021,4.09327325,61,0.39612674999999964,49,0.08116874999999979
5022,4.174442,53,0.08116874999999979,44,0.7874621249999993
5023,4.595495,41,0.4210529999999997,26,0.41813324999999946
5024,4.961904124999999,54,0.36640912499999967,45,0.05172412499999979
5025,5.013628249999999,58,0.05172412499999979,51,0.24671049999999983
5026,5.383693999999999,58,0.3700657500000002,46,0.08522724999999998
5027,5.468921249999999,48,0.08522724999999998,44,0.7852202916666666
5028,5.8860226666666655,42,0.4171014166666662,25,0.4198430000000002
5029,6.254141541666666,49,0.3681188750000004,45,0.05172412499999979
5030,6.305865666666666,53,0.05172412499999979,49,0.21739149999999974
5031,6.631952916666665,53,0.3260872499999996,47,0.09101949999999981
5032,6.722972416666665,43,0.09101949999999981,44,0.8466104999999997
5033,7.145507416666665,41,0.4225349999999999,26,0.4240754999999998
5034,7.569582916666665,20,0.4240754999999998,57,0.20893808333333297
5035,7.882808666666665,48,0.31322574999999997,58,0.10416675000000009
5036,7.986975416666665,51,0.10416675000000009,59,0.41474849999999996
5037,8.194708083333332,54,0.2077326666666668,60,0.20701583333333318
5038,8.401723916666665,58,0.20701583333333318,67,0.46492449999999863
5039,8.737338166666664,56,0.335614249999999,63,0.06249995416666643
5040,8.801993291666664,56,0.06465512499999981,55,0.06465512499999981
5041,8.866648416666663,65,0.06465512499999981,75,0.21582749999999962
5042,9.187005416666663,63,0.32035699999999956,64,0.10452949999999994
5043,9.291534916666663,61,0.10452949999999994,55,0.41811799999999977
5044,9.343799666666664,63,0.05226475000000086,54,0.05226474999999908
5045,9.396064416666663,61,0.05226474999999908,60,0.10452949999999994
5046,9.500593916666663,58,0.10452949999999994,58,0.20905899999999988
5047,9.709652916666663,56,0.20905899999999988,55,0.4502024999999996
5048,10.101261666666662,58,0.3916087499999996,45,0.05859375
5049,10.159855416666662,61,0.05859375,51,0.2798505000000002
5050,10.579631166666662,61,0.41977574999999945,46,0.08640549999999969
5051,10.666036666666662,48,0.08640549999999969,44,0.733283916666668
5052,11.08353083333333,42,0.4174941666666676,25,0.4198429999999984
5053,11.39932058333333,49,0.3157897500000004,42,0.0523291249999982
5054,11.451649708333328,53,0.0523291249999982,41,0.05172412499999979
5055,11.503373833333328,56,0.05172412499999979,49,0.2419355000000003
5056,11.866277083333328,56,0.36290325000000045,47,0.09057974999999985
5057,11.956856833333328,43,0.09057974999999985,44,0.8421149999999997
5058,12.379391833333328,41,0.4225349999999999,26,0.41957999999999984
5059,12.798971833333328,20,0.41957999999999984,57,0.20893808333333297
5060,13.112197583333327,48,0.3132257499999991,58,0.10416675000000097
5061,13.216364333333328,51,0.10416675000000097,59,0.41474849999999996
5062,13.424096999999994,54,0.2077326666666668,60,0.20701583333333318
5063,13.631112833333328,53,0.20701583333333318,56,0.4190699999999996
5064,13.682777708333326,54,0.05166487499999839,56,0.05154637500000092
5065,13.734324083333327,53,0.05154637500000092,61,0.10309275000000007
5066,13.837416833333327,51,0.10309275000000007,56,0.21276600000000023
5067,14.050182833333327,53,0.21276600000000023,64,0.20978999999999992
5068,14.364867833333328,44,0.31468500000000077,57,0.10489499999999907
5069,14.469762833333327,49,0.10489499999999907,59,0.43351608333333225
5070,14.90327891666666,48,0.43351608333333225,64,0.22140199999999943
5071,15.124680916666659,46,0.22140199999999943,61,0.23076900000000045
5072,15.35544991666666,44,0.23076900000000045,70,0.21276600000000023
5073,15.674598916666659,44,0.31914899999999946,66,0.106383000000001
5074,15.78098191666666,46,0.106383000000001,70,0.405405
5075,16.18638691666666,48,0.405405,70,0.40959900000000005
5076,16.59598591666666,49,0.40959900000000005,71,0.20114941666667008
5077,16.897135333333328,51,0.30114941666666795,66,0.10000000000000142
5078,16.99713533333333,53,0.10000000000000142,70,0.3999999999999986
5079,17.397135333333328,54,0.3999999999999986,75,0.1999999999999993
5080,17.597135333333327,56,0.1999999999999993,79,0.2097900000000017
5081,17.80692533333333,58,0.2097900000000017,83,0.3338206250000013
5082,18.11201033333333,60,0.3050850000000018,75,0.1149425000000015
5083,18.14074595833333,34,0.028735624999999487,59,0.4994372916666663
5084,18.16948158333333,37,0.028735624999999487,59,0.4707016666666668
5085,18.19821720833333,42,0.028735624999999487,59,0.4419660416666673
5086,18.226952833333332,61,0.02873562500000304,76,0.41323041666666427
5087,18.27952308333333,63,0.05257024999999871,67,0.052204750000001354
5088,18.331727833333332,61,0.052204750000001354,73,0.05160604166666616
5089,18.383333874999998,63,0.05160604166666616,66,0.0513698749999989
5090,18.434703749999997,61,0.0513698749999989,70,0.0513698749999989
5091,18.486073624999996,63,0.0513698749999989,64,0.05136987500000245
5092,18.5374435,61,0.05136987500000245,70,0.0513698749999989
5093,18.588813374999997,63,0.0513698749999989,64,0.0513698749999989
5094,18.640183249999996,60,0.0513698749999989,70,0.20725616666666724
5095,18.847439416666663,58,0.20725616666666724,56,0.21146625000000085
5096,19.058905666666664,56,0.21146625000000085,46,0.0704887499999991
5097,19.129394416666663,61,0.0704887499999991,53,0.2604165000000016
5098,19.520019166666664,61,0.39062475000000063,49,0.0880282500000007
5099,19.608047416666665,53,0.0880282500000007,44,0.7874621250000011
5100,20.029100416666665,41,0.42105300000000057,26,0.41813325000000034
5101,20.395509541666666,54,0.36640912500000056,45,0.05172412499999979
5102,20.447233666666666,58,0.05172412499999979,51,0.2450979999999987
5103,20.814880666666667,58,0.3676470000000016,46,0.08886250000000118
5104,20.90374316666667,48,0.08886250000000118,44,0.7948911666666696
5105,21.322056333333336,42,0.4183131666666675,25,0.4319285000000015
5106,21.698634333333338,49,0.3765780000000021,45,0.055350499999999414
5107,21.753984833333337,53,0.055350499999999414,49,0.2358489999999982
5108,22.107758333333337,53,0.3537734999999991,47,0.08971299999999971
5109,22.197471333333336,43,0.08971299999999971,44,0.8466105000000006
5110,22.620006333333336,41,0.4225349999999999,26,0.4240755000000007
5111,23.044081833333337,20,0.4240755000000007,57,0.20893808333333652
5112,23.357307583333338,48,0.31322575000000086,58,0.10416675000000097
5113,23.46147433333334,51,0.10416675000000097,59,0.4147484999999982
5114,23.669207000000004,54,0.207732666666665,60,0.20701583333333318
5115,23.876222833333337,58,0.20701583333333318,67,0.4717905000000009
5116,24.215270083333337,56,0.33904725000000013,63,0.0630530437499992
5117,24.281641708333336,56,0.0663716249999986,49,0.06637162500000215
5118,24.348013333333338,65,0.06637162500000215,67,0.2197800000000001
5119,24.67342966666667,63,0.3254163333333331,61,0.10600700000000174
5120,24.779436666666673,61,0.10600700000000174,50,0.42402799999999985
5121,24.83244016666667,63,0.05300349999999909,49,0.05300349999999909
5122,24.88544366666667,61,0.05300349999999909,57,0.10600700000000174
5123,24.991450666666672,58,0.10600700000000174,52,0.21201399999999992
5124,25.203464666666672,56,0.21201399999999992,49,0.4658274999999996
5125,25.606792166666672,58,0.4033274999999996,45,0.0625
5126,25.669292166666672,61,0.0625,51,0.26223799999999997
5127,26.062649166666674,61,0.39335700000000173,46,0.0932834999999983
5128,26.155932666666672,48,0.0932834999999983,44,0.7355765833333372
5129,26.57571950000001,42,0.4197868333333368,25,0.4198430000000002
5130,26.89150925000001,49,0.3157897500000004,42,0.052329124999999976
5131,26.94383837500001,53,0.052329124999999976,41,0.05172412499999979
5132,26.99556250000001,56,0.05172412499999979,49,0.25862049999999925
5133,27.383493250000008,56,0.3879307499999989,47,0.0932834999999983
5134,27.476776750000006,43,0.0932834999999983,44,0.8638423333333343
5135,27.899311750000006,41,0.4225349999999999,26,0.4413073333333344
5136,28.34061908333334,20,0.4413073333333344,57,0.2195126666666667
5137,28.669488083333338,48,0.3288689999999974,58,0.10909099999999938
5138,28.778579083333337,51,0.10909099999999938,59,0.43321700000000263
5139,28.995708916666672,54,0.2171298333333347,60,0.21608716666666794
5140,29.21179608333334,53,0.21608716666666794,56,0.44916450000000196
5141,29.26594770833334,54,0.05415162499999937,56,0.05415162499999937
5142,29.32009933333334,53,0.05415162499999937,61,0.1083032500000023
5143,29.42840258333334,51,0.1083032500000023,56,0.23255800000000093
5144,29.660960583333342,53,0.23255800000000093,64,0.2230634166666654
5145,29.995964250000007,44,0.33500366666666537,57,0.11194024999999996
5146,30.107904500000007,49,0.11194024999999996,59,0.44776099999999985
5147,30.555665500000007,48,0.44776099999999985,44,0.21648149999999688
5148,30.772147000000004,49,0.21648149999999688,44,0.2210030833333292
5149,30.993150083333333,51,0.2210030833333292,46,0.446318999999999
5150,31.330378083333333,53,0.33722799999999964,42,0.10909099999999938
5151,31.439469083333332,51,0.10909099999999938,46,0.4363640000000011
5152,31.875833083333333,55,0.4363640000000011,49,0.4195800000000034
5153,32.08562308333333,56,0.20978999999999814,51,0.20979000000000525
5154,32.29541308333334,58,0.20979000000000525,55,0.4445970000000017
5155,32.63091908333334,60,0.3355060000000023,52,0.10909099999999938
5156,32.74001008333334,58,0.10909099999999938,56,0.43636400000000464
5157,33.17637408333334,56,0.43636400000000464,52,0.4195855000000037
5158,33.38690058333334,53,0.21052650000000028,49,0.20905900000000344
5159,33.59595958333335,51,0.20905900000000344,56,0.419135500000003
5160,33.80004108333335,53,0.20408150000000091,51,0.21505400000000208
5161,34.01509508333335,51,0.21505400000000208,56,0.43010799999999705
5162,34.44520308333335,55,0.43010799999999705,50,0.4367330000000038
5163,34.76957658333335,56,0.3243735000000001,55,0.11235950000000372
5164,34.88193608333335,58,0.11235950000000372,59,0.21201400000000348
5165,35.02327875000002,60,0.14134266666666662,56,0.14366400000000112
5166,35.16694275000002,58,0.14366400000000112,56,0.14598533333333563
5167,35.312928083333354,56,0.14598533333333563,53,0.6569339999999997
5168,35.750884083333354,20,0.4379559999999998,34,0.2189779999999999
5169,35.969862083333354,53,0.2189779999999999,50,0.21352300000000213
5170,36.183385083333356,51,0.21352300000000213,51,0.20689649999999915
5171,36.390281583333355,53,0.20689649999999915,49,0.21818199999999877
5172,36.608463583333354,51,0.21818199999999877,51,0.43636400000000464
5173,37.04482758333336,55,0.43636400000000464,49,0.20978999999999814
5174,37.254617583333356,56,0.20978999999999814,51,0.21505400000000208
5175,37.46967158333336,58,0.21505400000000208,55,0.21818199999999877
5176,37.68785358333336,60,0.21818199999999877,52,0.22122116666666614
5177,37.90907475000002,58,0.22122116666666614,50,0.20960104166665872
5178,37.96258354166669,60,0.053508791666665445,47,0.052755958333335684
5179,38.015339500000024,58,0.052755958333335684,52,0.052024083333328974
5180,38.06736358333335,60,0.052024083333328974,49,0.05131220833332861
5181,38.11867579166668,58,0.05131220833332861,56,0.0511364583333318
5182,38.169812250000014,60,0.0511364583333318,49,0.051428708333332906
5183,38.22124095833335,58,0.051428708333332906,51,0.05166487500000727
5184,38.272905833333354,60,0.05166487500000727,49,0.0519031250000026
5185,38.32480895833336,56,0.0519031250000026,52,0.21052650000000028
5186,38.53533545833336,53,0.21052650000000028,49,0.21582750000000317
5187,38.75116295833336,51,0.21582750000000317,56,0.2054795000000027
5188,38.95664245833336,53,0.2054795000000027,51,0.21505400000000208
5189,39.171696458333365,51,0.21505400000000208,56,0.43010799999999705
5190,39.60180445833336,55,0.43010799999999705,55,0.8692340000000058
5191,39.813818458333365,56,0.21201400000000348,59,0.22471900000000034
5192,40.038537458333366,58,0.22471900000000034,64,0.432501000000002
5193,40.18088612500003,60,0.14234866666666335,61,0.14416700000000304
5194,40.32505312500003,58,0.14416700000000304,61,0.14598533333333563
5195,40.47103845833337,56,0.14598533333333563,66,0.4760994125000053
5196,40.82730020833337,46,0.3562617500000016,62,0.11983766250000372
5197,40.94713787083337,56,0.11983766250000372,68,0.16209908124999828
5198,41.10923695208337,45,0.16209908124999828,62,0.17021954375000092
5199,41.27945649583337,56,0.17021954375000092,69,0.11347112083333144
5200,41.396589729166706,56,0.11713323333333392,66,0.07324224999999984
5201,41.469831979166706,44,0.07324224999999984,70,0.212766000000002
5202,41.78898097916671,44,0.319149000000003,66,0.1063829999999939
5203,41.8953639791667,46,0.1063829999999939,70,0.4054050000000018
5204,42.300768979166705,48,0.4054050000000018,70,0.40959900000000005
5205,42.710367979166705,49,0.40959900000000005,71,0.20114941666666653
5206,43.01151739583337,51,0.30114941666666795,66,0.10000000000000142
5207,43.111517395833374,53,0.10000000000000142,70,0.3999999999999986
5208,43.51151739583337,54,0.3999999999999986,75,0.20000000000000284
5209,43.711517395833376,56,0.20000000000000284,79,0.20978999999999814
5210,43.921307395833374,58,0.20978999999999814,83,0.3338206250000013
5211,44.22639239583337,60,0.3050849999999983,75,0.11494249999999795
5212,44.255128020833375,34,0.02873562500000304,59,0.4994372916666663
5213,44.28386364583337,37,0.028735624999995935,59,0.47070166666667035
5214,44.312599270833374,42,0.02873562500000304,59,0.4419660416666673
5215,44.34133489583337,61,0.028735624999995935,76,0.4132304166666714
5216,44.39390514583337,63,0.05257025000000226,67,0.052204750000001354
5217,44.446109895833374,61,0.052204750000001354,73,0.05160604166666616
5218,44.49771593750004,63,0.05160604166666616,66,0.051369875000006004
5219,44.549085812500046,61,0.051369875000006004,70,0.0513698749999989
5220,44.600455687500045,63,0.0513698749999989,64,0.0513698749999989
5221,44.65182556250004,61,0.0513698749999989,70,0.0513698749999989
5222,44.70319543750004,63,0.0513698749999989,64,0.0513698749999989
5223,44.75456531250004,60,0.0513698749999989,70,0.20725616666666724
5224,44.96182147916671,58,0.20725616666666724,56,0.16544100000000128
5225,45.12726247916671,56,0.16544100000000128,51,0.05514699999999806
5226,45.18240947916671,61,0.05514699999999806,60,0.2717389999999966
5227,45.59001797916671,61,0.40760850000000204,55,0.08445950000000124
5228,45.67447747916671,53,0.08445950000000124,49,0.7874621249999976
5229,46.09553047916671,41,0.42105300000000057,29,0.4181332499999968
5230,46.46193960416671,54,0.366409124999997,50,0.05172412499999979
5231,46.51366372916671,58,0.05172412499999979,58,0.2622380000000035
5232,46.90702072916671,58,0.39335700000000173,51,0.08844349999999679
5233,46.99546422916671,48,0.08844349999999679,49,0.7862923750000022
5234,47.41363772916671,42,0.41817350000000175,28,0.4198430000000002
5235,47.78175660416671,49,0.3681188750000004,50,0.05172412499999979
5236,47.83348072916671,53,0.05172412499999979,56,0.2516779999999983
5237,48.21099772916671,53,0.37751699999999744,52,0.08886249999999762
5238,48.299860229166704,43,0.08886249999999762,49,0.8466105000000042
5239,48.72239522916671,41,0.42253500000000344,29,0.4240755000000007
5240,49.14647072916671,20,0.4240755000000007,57,0.20893808333333652
5241,49.459696479166716,48,0.31322575000000796,58,0.10416674999999742
5242,49.563863229166714,51,0.10416674999999742,59,0.41474850000000174
5243,49.77159589583338,54,0.207732666666665,60,0.20701583333333673
5244,49.978611729166715,58,0.20701583333333673,67,0.4318680000000015
5245,50.29769772916672,56,0.31908600000000575,63,0.05357144999999974
5246,50.35408872916672,56,0.05639099999999786,55,0.05639099999999786
5247,50.41047972916672,65,0.05639099999999786,75,0.2197800000000001
5248,50.735154729166716,63,0.32467499999999916,68,0.10489499999999907
5249,50.840049729166715,61,0.10489499999999907,56,0.4195800000000034
5250,50.892497229166715,63,0.052447499999999536,55,0.052447499999999536
5251,50.944944729166714,61,0.052447499999999536,64,0.10489500000000618
5252,51.04983972916672,58,0.10489500000000618,58,0.20978999999999814
5253,51.25962972916672,56,0.20978999999999814,55,0.43165499999999923
5254,51.63732785416672,58,0.377698125000002,45,0.05395687499999724
5255,51.69128472916672,61,0.05395687499999724,51,0.2717389999999966
5256,52.09889322916672,61,0.40760850000000204,46,0.0880282500000007
5257,52.18692147916672,48,0.0880282500000007,44,0.7338248333333297
5258,52.60495656250005,42,0.4180350833333293,25,0.4198430000000002
5259,52.92074631250005,49,0.3157897500000004,42,0.052329124999999976
5260,52.97307543750005,53,0.052329124999999976,41,0.05172412499999979
5261,53.02479956250005,56,0.05172412499999979,49,0.26595749999999896
5262,53.42373581250005,56,0.39893624999999844,47,0.08902075000000309
5263,53.51275656250005,43,0.08902075000000309,44,0.8421150000000068
5264,53.935291562500055,41,0.42253500000000344,26,0.4195800000000034
5265,54.35487156250006,20,0.4195800000000034,57,0.20893808333333652
5266,54.668097312500066,48,0.31322575000000796,58,0.10416674999999742
5267,54.772264062500064,51,0.10416674999999742,59,0.41474850000000174
5268,54.97999672916673,54,0.207732666666665,60,0.20701583333333673
5269,55.187012562500065,53,0.20701583333333673,56,0.41907000000000494
5270,55.238677437500066,54,0.051664875000000166,56,0.05154637500000092
5271,55.29022381250007,53,0.05154637500000092,61,0.10309275000000184
5272,55.39331656250007,51,0.10309275000000184,56,0.212766000000002
5273,55.60608256250007,53,0.212766000000002,64,0.20978999999999814
5274,55.92076756250007,44,0.3146849999999972,57,0.10489500000000618
5275,56.025662562500074,49,0.10489500000000618,59,0.4195799999999963
5276,56.44524256250007,48,0.4195799999999963,44,0.21648150000000754
5277,56.66172406250008,49,0.21648150000000754,44,0.2210030833333363
5278,56.882727145833414,51,0.2210030833333363,46,0.44631899999999547
5279,57.21995514583341,53,0.3372279999999961,42,0.10909099999999938
5280,57.32904614583341,51,0.10909099999999938,46,0.43636400000000464
5281,57.765410145833414,55,0.43636400000000464,49,0.4195800000000034
5282,57.97520014583341,56,0.20978999999999814,51,0.20979000000000525
5283,58.18499014583342,58,0.20979000000000525,55,0.4445970000000017
5284,58.52049614583342,60,0.3355060000000023,52,0.10909099999999938
5285,58.62958714583342,58,0.10909099999999938,56,0.43636400000000464
5286,59.065951145833424,56,0.43636400000000464,52,0.4195855000000037
5287,59.276477645833424,53,0.21052650000000028,49,0.20905900000000344
5288,59.48553664583343,51,0.20905900000000344,56,0.41983199999999954
5289,59.690314645833425,53,0.20477799999999746,51,0.21505400000000208
5290,59.90536864583343,51,0.21505400000000208,56,0.43010799999999705
5291,60.335476645833424,55,0.43010799999999705,50,0.4367330000000038
5292,60.659850145833424,56,0.3243735000000001,55,0.11235950000000372
5293,60.77220964583343,58,0.11235950000000372,59,0.21201400000000348
5294,60.913552312500094,60,0.14134266666666662,56,0.14366400000000112
5295,61.057216312500096,58,0.14366400000000112,56,0.14598533333333563
5296,61.20320164583343,56,0.14598533333333563,53,0.6569339999999997
5297,61.64115764583343,20,0.4379559999999998,34,0.2189779999999999
5298,61.86013564583343,53,0.2189779999999999,50,0.21352300000000213
5299,62.07365864583343,51,0.21352300000000213,51,0.20774941666666535
5300,62.2814080625001,53,0.20774941666666535,49,0.21818199999999877
5301,62.4995900625001,51,0.21818199999999877,51,0.43636400000000464
5302,62.9359540625001,55,0.43636400000000464,49,0.20978999999999814
5303,63.1457440625001,56,0.20978999999999814,51,0.21505400000000208
5304,63.3607980625001,58,0.21505400000000208,55,0.21818199999999877
5305,63.5789800625001,60,0.21818199999999877,52,0.21818199999999877
5306,63.7971620625001,58,0.21818199999999877,50,0.2123956250000063
5307,63.85151039583344,60,0.054348333333336996,47,0.053508791666665445
5308,63.9050191875001,58,0.053508791666665445,52,0.05269420833333527
5309,63.95771339583344,60,0.05269420833333527,49,0.051844291666668596
5310,64.0095576875001,58,0.051844291666668596,56,0.05142908333333196
5311,64.06098677083344,60,0.05142908333333196,49,0.05137025000000506
5312,64.11235702083344,58,0.05137025000000506,51,0.05190354166666111
5313,64.1642605625001,60,0.05190354166666111,49,0.05238658333333035
5314,64.21664714583343,56,0.05238658333333035,52,0.21052650000000028
5315,64.42717364583343,53,0.21052650000000028,49,0.21582750000000317
5316,64.64300114583344,51,0.21582750000000317,56,0.20618550000000369
5317,64.84918664583344,53,0.20618550000000369,51,0.21505399999999497
5318,65.06424064583344,51,0.21505399999999497,56,0.43010800000000415
5319,65.49434864583344,55,0.43010800000000415,55,0.8692339999999916
5320,65.70636264583344,56,0.21201399999999637,59,0.22471899999999323
5321,65.93108164583343,58,0.22471899999999323,64,0.432501000000002
5322,66.0734303125001,60,0.14234866666666335,61,0.14416699999999594
5323,66.21759731250009,58,0.14416699999999594,61,0.14598533333334274
5324,66.36358264583343,56,0.14598533333334274,66,0.481520500000002
5325,66.72062189583343,46,0.3570392499999997,62,0.12448125000000232
5326,66.84510314583343,56,0.12448125000000232,68,0.16281833124999423
5327,67.00792147708343,45,0.16281833124999423,62,0.17213656458331172
5328,67.18005804166674,56,0.17213656458331172,69,0.11776849166666636
5329,67.30303486666674,56,0.12297682499999496,66,0.078125
5330,67.38115986666674,44,0.078125,70,0.212766000000002
5331,67.70030886666673,44,0.3191489999999959,66,0.10638300000000811
5332,67.80669186666674,46,0.10638300000000811,70,0.4054050000000018
5333,68.21209686666674,48,0.4054050000000018,70,0.40959900000000005
5334,68.62169586666674,49,0.40959900000000005,71,0.20114941666666653
5335,68.9228452833334,51,0.30114941666666084,66,0.09999999999999432
5336,69.0228452833334,53,0.09999999999999432,70,0.4000000000000057
5337,69.4228452833334,54,0.4000000000000057,75,0.20000000000000284
5338,69.6228452833334,56,0.20000000000000284,79,0.20978999999999814
5339,69.8326352833334,58,0.20978999999999814,83,0.3338206250000013
5340,70.13772028333341,60,0.3050850000000054,75,0.11494249999999795
5341,70.1664559083334,34,0.028735624999995935,59,0.4994372916666663
5342,70.19519153333341,37,0.028735625000010145,59,0.47070166666665614
5343,70.22392715833341,42,0.028735624999995935,59,0.4419660416666602
5344,70.2526627833334,61,0.028735624999995935,76,0.41323041666666427
5345,70.30523303333341,63,0.05257025000000226,67,0.052204750000001354
5346,70.35743778333341,61,0.052204750000001354,73,0.05160604166665905
5347,70.40904382500007,63,0.05160604166665905,66,0.051369875000006004
5348,70.46041370000007,61,0.051369875000006004,70,0.051369874999991794
5349,70.51178357500007,63,0.051369874999991794,64,0.051369875000006004
5350,70.56315345000007,61,0.051369875000006004,70,0.051369875000006004
5351,70.61452332500008,63,0.051369875000006004,64,0.051369874999991794
5352,70.66589320000007,60,0.051369874999991794,70,0.20725616666666724
5353,70.87314936666674,58,0.20725616666666724,56,0.1826298750000035
5354,71.05577924166674,56,0.1826298750000035,51,0.06087662499999169
5355,71.11665586666673,61,0.06087662499999169,60,0.2568495000000013
5356,71.50193011666673,61,0.3852742499999948,55,0.09287924999999575
5357,71.59480936666672,53,0.09287924999999575,49,0.7874621250000047
5358,72.01586236666672,41,0.42105300000000057,29,0.4181332499999968
5359,72.38227149166673,54,0.3664091250000041,50,0.05172412499999268
5360,72.43399561666672,58,0.05172412499999268,58,0.24834450000000174
5361,72.80651236666672,58,0.3725167500000026,51,0.08928575000000194
5362,72.89579811666673,48,0.08928575000000194,49,0.7865731249999897
5363,73.31425236666672,42,0.41845424999999636,28,0.4198430000000002
5364,73.68237124166671,49,0.3681188749999933,50,0.05172412500000689
5365,73.73409536666672,53,0.05172412500000689,56,0.26041650000000516
5366,74.12472011666672,53,0.39062475000000063,52,0.09063449999999307
5367,74.21535461666672,43,0.09063449999999307,49,0.846610499999997
5368,74.63788961666671,41,0.42253499999999633,29,0.4240755000000007
5369,75.06196511666671,20,0.4240755000000007,57,0.20893808333333652
5370,75.37519086666671,48,0.31322575000000086,58,0.10416674999999032
5371,75.4793576166667,51,0.10416674999999032,59,0.41474850000000174
5372,75.68709028333338,54,0.20773266666667212,60,0.20701583333332962
5373,75.8941061166667,58,0.20701583333332962,67,0.4683124999999819
5374,76.2314143666667,56,0.3373082499999924,63,0.06222701874999359
5375,76.29691649166669,56,0.06550212499999475,49,0.06550212499999475
5376,76.36241861666669,65,0.06550212499999475,67,0.2197800000000001
5377,76.68709361666669,63,0.32467499999999916,61,0.10489499999999907
5378,76.79198861666669,61,0.10489499999999907,50,0.4195799999999963
5379,76.84443611666669,63,0.052447499999999536,49,0.052447499999999536
5380,76.89688361666668,61,0.052447499999999536,57,0.10489499999999907
5381,77.00177861666668,58,0.10489499999999907,52,0.20978999999999814
5382,77.21156861666668,56,0.20978999999999814,49,0.4641720000000049
5383,77.61365449166668,58,0.4020858749999974,45,0.06208612500000754
5384,77.67574061666669,61,0.06208612500000754,51,0.2622379999999964
5385,78.06909761666668,61,0.3933569999999946,46,0.0884954999999934
5386,78.15759311666667,48,0.0884954999999934,44,0.7339805833333344
5387,78.57578395000002,42,0.41819083333334106,25,0.4198430000000002
5388,78.89157370000001,49,0.3157897499999933,42,0.052329124999999976
5389,78.94390282500001,53,0.052329124999999976,41,0.05172412500000689
5390,78.99562695000002,56,0.05172412500000689,49,0.2516779999999983
5391,79.37314395000001,56,0.37751699999999744,47,0.08886250000000473
5392,79.46200645000002,43,0.08886250000000473,44,0.8421149999999926
5393,79.88454145000001,41,0.42253499999999633,26,0.4195799999999963
5394,80.30412145000001,20,0.4195799999999963,57,0.20893808333333652
5395,80.61734720000001,48,0.31322575000000086,58,0.10416674999999032
5396,80.72151395,51,0.10416674999999032,59,0.41474850000000174
5397,80.92924661666667,54,0.20773266666667212,60,0.20701583333332962
5398,81.13626245,53,0.20701583333332962,56,0.4277059999999864
5399,81.187927325,54,0.051664875000000166,56,0.05154637500000092
5400,81.2394737,53,0.05154637500000092,61,0.10309274999998763
5401,81.34256644999999,51,0.10309274999998763,56,0.22140199999999766
5402,81.56396844999999,53,0.22140199999999766,64,0.21505399999999497
5403,81.88654944999999,44,0.32258099999999956,57,0.10805600000000481
5404,81.99460545,49,0.10805600000000481,59,0.4428039999999953
5405,82.43740944999999,25,0.4428039999999953,49,0.4428040000000095
5406,82.88021345,56,0.4428040000000095,46,0.4444440000000043
5407,83.21354645,56,0.3333329999999961,37,0.11111100000000818
5408,83.32465745,55,0.11111100000000818,41,0.44444399999999007
5409,83.76910145,52,0.44444399999999007,37,0.4444440000000043
5410,83.99132345,51,0.22222200000000214,37,0.22222200000000214
5411,84.21354545,49,0.22222200000000214,42,0.4511279999999971
5412,84.55189145,52,0.33834600000000137,37,0.11278199999999572
5413,84.66467345,51,0.11278199999999572,37,0.4411759999999987
5414,84.71982045,52,0.055147000000005164,37,0.05514699999999095
5415,84.77496744999999,51,0.05514699999999095,40,0.33088200000000256
5416,85.10584945,49,0.33088200000000256,37,0.4636590000000069
5417,85.45046095,43,0.3446114999999992,41,0.11904750000000774
5418,85.56950845,56,0.11904750000000774,46,0.4511279999999971
5419,85.90785445,56,0.33834600000000137,37,0.11278199999999572
5420,86.02063645,55,0.11278199999999572,41,0.4444440000000043
5421,86.46508045,52,0.4444440000000043,37,0.45283000000000584
5422,86.69149545,51,0.22641500000000292,37,0.22641500000000292
5423,86.91791045000001,49,0.22641500000000292,45,0.46511599999999476
5424,87.07294911666668,51,0.15503866666666966,40,0.15503866666666966
5425,87.22798778333335,49,0.15503866666666966,39,0.15503866666665544
5426,87.38302645,43,0.15503866666665544,42,0.9302320000000037
5427,87.84814245000001,28,0.46511600000000897,23,0.46511599999999476
5428,88.31325845,56,0.46511599999999476,46,0.4444440000000043
5429,88.64659145,56,0.3333329999999961,37,0.11111100000000818
5430,88.75770245000001,55,0.11111100000000818,41,0.44444399999999007
5431,89.20214645,52,0.44444399999999007,37,0.4444440000000043
5432,89.42436845,51,0.22222200000000214,37,0.22222200000000214
5433,89.64659045,49,0.22222200000000214,42,0.4511279999999971
5434,89.98493645,52,0.33834600000000137,37,0.11278199999999572
5435,90.09771845,51,0.11278199999999572,37,0.4439349999999962
5436,90.15403903333333,52,0.05632058333333134,33,0.05603999999999587
5437,90.21007903333333,51,0.05603999999999587,37,0.055487166666665644
5438,90.2655662,52,0.055487166666665644,35,0.05508016666667004
5439,90.32064636666667,51,0.05508016666667004,37,0.05487816666666845
5440,90.37552453333333,52,0.05487816666666845,34,0.05487816666666845
5441,90.4304027,51,0.05487816666666845,37,0.055418833333334305
5442,90.48582153333334,52,0.055418833333334305,37,0.055831916666662096
5443,90.54165345,49,0.055831916666662096,37,0.4636590000000069
5444,90.88626495,43,0.3446114999999992,41,0.11904750000000774
5445,91.00531245,56,0.11904750000000774,46,0.4511279999999971
5446,91.34365845,56,0.33834600000000137,37,0.11278199999999572
5447,91.45644045,55,0.11278199999999572,41,0.4444440000000043
5448,91.90088445,52,0.4444440000000043,37,0.45283000000000584
5449,92.24050695000001,51,0.3396225000000044,37,0.11320750000000146
5450,92.35371445000001,49,0.11320750000000146,45,1.3953479999999985
5451,92.50875311666668,51,0.15503866666666966,40,0.15503866666666966
5452,92.66379178333335,49,0.15503866666666966,39,0.15503866666665544
5453,92.81883045000001,48,0.15503866666665544,42,0.9302320000000037
5454,93.51650445000001,46,0.6976740000000063,53,0.23255799999999738
5455,93.74906245000001,44,0.23255799999999738,70,0.212766000000002
5456,94.06821145,44,0.3191489999999959,66,0.10638300000000811
5457,94.17459445000001,46,0.10638300000000811,70,0.4054050000000018
5458,94.57999945000002,48,0.4054050000000018,70,0.40959900000000005
5459,94.98959845000002,49,0.40959900000000005,71,0.20114941666666653
5460,95.29074786666668,51,0.30114941666666084,66,0.09999999999999432
5461,95.39074786666667,53,0.09999999999999432,70,0.4000000000000057
5462,95.79074786666668,54,0.4000000000000057,75,0.20000000000000284
5463,95.99074786666668,56,0.20000000000000284,79,0.20978999999999814
5464,96.20053786666668,58,0.20978999999999814,83,0.3338206250000013
5465,96.50562286666668,60,0.3050850000000054,75,0.11494249999999795
5466,96.53435849166668,34,0.028735624999995935,59,0.4994372916666663
5467,96.56309411666669,37,0.028735625000010145,59,0.47070166666665614
5468,96.59182974166669,42,0.028735624999995935,59,0.4419660416666602
5469,96.62056536666668,61,0.028735624999995935,76,0.41323041666666427
5470,96.67313561666668,63,0.05257025000000226,67,0.052204750000001354
5471,96.72534036666669,61,0.052204750000001354,73,0.05160604166665905
5472,96.77694640833334,63,0.05160604166665905,66,0.051369875000006004
5473,96.82831628333335,61,0.051369875000006004,70,0.051369874999991794
5474,96.87968615833334,63,0.051369874999991794,64,0.051369875000006004
5475,96.93105603333335,61,0.051369875000006004,70,0.051369874999991794
5476,96.98242590833334,63,0.051369874999991794,64,0.051369875000006004
5477,97.03379578333335,60,0.051369875000006004,70,0.20725616666666724
5478,97.24105195000001,58,0.20725616666666724,56,0.17578125
5479,97.41683320000001,56,0.17578125,51,0.05859375
5480,97.47542695000001,61,0.05859375,60,0.27573549999999614
5481,97.88903020000001,61,0.4136032499999942,55,0.08370524999999418
5482,97.97273545,53,0.08370524999999418,49,0.7975095000000039
5483,98.39378845,41,0.42105300000000057,29,0.4320120000000003
5484,98.77024495,54,0.3764565000000033,50,0.05555549999999698
5485,98.82580045,58,0.05555549999999698,58,0.26595749999999896
5486,99.22473670000001,58,0.39893625000000554,51,0.08802824999999359
5487,99.31276495,48,0.08802824999999359,49,0.7861539583333439
5488,99.73080003333335,42,0.4180350833333506,28,0.4198430000000002
5489,100.09891890833335,49,0.3681188749999933,50,0.05172412500000689
5490,100.15064303333335,53,0.05172412500000689,56,0.2533784999999966
5491,100.53071078333335,53,0.38006774999999493,52,0.08640549999999791
5492,100.61711628333335,43,0.08640549999999791,49,0.846610499999997
5493,101.03965128333334,41,0.42253499999999633,29,0.4240755000000007
5494,101.46372678333334,20,0.4240755000000007,57,0.20893808333333652
5495,101.77695253333334,48,0.31322575000000086,58,0.10416674999999032
5496,101.88111928333333,51,0.10416674999999032,59,0.41474850000000174
5497,102.08885195,54,0.20773266666667212,60,0.20701583333332962
5498,102.29586778333334,58,0.20701583333332962,67,0.4638144999999838
5499,102.63092703333332,56,0.33505924999998626,63,0.06223170416666335
5500,102.69530465833333,56,0.06437762500000588,55,0.06437762499999167
5501,102.75968228333332,65,0.06437762499999167,75,0.2197800000000001
5502,103.08435728333332,63,0.32467499999999916,68,0.10489499999999907
5503,103.18925228333332,61,0.10489499999999907,56,0.4195799999999963
5504,103.24169978333332,63,0.052447499999999536,55,0.052447499999999536
5505,103.29414728333332,61,0.052447499999999536,64,0.10489499999999907
5506,103.39904228333332,58,0.10489499999999907,58,0.20978999999999814
5507,103.60883228333331,56,0.20978999999999814,55,0.4473090000000042
5508,103.99827090833331,58,0.3894386249999968,45,0.05787037500000736
5509,104.05614128333332,61,0.05787037500000736,51,0.2551019999999937
5510,104.43879428333332,61,0.3826530000000048,46,0.0872092500000008
5511,104.52600353333332,48,0.0872092500000008,44,0.7335518333333368
5512,104.94376561666667,42,0.4177620833333435,25,0.4198430000000002
5513,105.25955536666666,49,0.3157897499999933,42,0.052329124999999976
5514,105.31188449166666,53,0.052329124999999976,41,0.05172412500000689
5515,105.36360861666667,56,0.05172412500000689,49,0.2533784999999966
5516,105.74367636666666,56,0.38006774999999493,47,0.0905797500000034
5517,105.83425611666667,43,0.0905797500000034,44,0.8421149999999926
5518,106.25679111666666,41,0.42253499999999633,26,0.4195799999999963
5519,106.67637111666666,20,0.4195799999999963,57,0.20893808333333652
5520,106.98959686666666,48,0.31322575000000086,58,0.10416674999999032
5521,107.09376361666665,51,0.10416674999999032,59,0.41474850000000174
5522,107.30149628333332,54,0.20773266666667212,60,0.20701583333332962
5523,107.50851211666665,53,0.20701583333332962,56,0.4190699999999907
5524,107.56017699166665,54,0.051664875000000166,56,0.05154637500000092
5525,107.61172336666665,53,0.05154637500000092,61,0.20947574999998153
5526,107.82119911666663,51,0.20947574999998153,56,0.10638300000000811
5527,107.92758211666664,53,0.10638300000000811,64,0.20978999999999814
5528,108.24226711666664,44,0.3146849999999972,57,0.10489499999999907
5529,108.34716211666664,49,0.10489499999999907,59,0.4395600000000002
5530,108.78672211666664,25,0.4395600000000002,48,0.4428039999999953
5531,109.22952611666663,56,0.4428039999999953,46,0.4444440000000043
5532,109.56285911666663,56,0.3333329999999961,37,0.11111100000000818
5533,109.67397011666664,55,0.11111100000000818,41,0.44444399999999007
5534,110.11841411666663,52,0.44444399999999007,37,0.4444440000000043
5535,110.34063611666663,51,0.22222200000000214,37,0.22222200000000214
5536,110.56285811666663,49,0.22222200000000214,42,0.4511279999999971
5537,110.90120411666663,52,0.33834600000000137,37,0.11278199999999572
5538,111.01398611666663,51,0.11278199999999572,37,0.4411759999999987
5539,111.06913311666663,52,0.055147000000005164,37,0.05514699999999095
5540,111.12428011666663,51,0.05514699999999095,40,0.33088200000000256
5541,111.45516211666663,49,0.33088200000000256,37,0.4636590000000069
5542,111.79977361666663,43,0.3446114999999992,41,0.11904750000000774
5543,111.91882111666663,56,0.11904750000000774,46,0.4511279999999971
5544,112.25716711666664,56,0.33834600000000137,37,0.11278199999999572
5545,112.36994911666663,55,0.11278199999999572,41,0.4444440000000043
5546,112.81439311666664,52,0.4444440000000043,37,0.45283000000000584
5547,113.04080811666664,51,0.22641500000000292,37,0.22641500000000292
5548,113.26722311666664,49,0.22641500000000292,45,0.46511599999999476
5549,113.42226178333331,51,0.15503866666666966,40,0.15503866666666966
5550,113.57730044999998,49,0.15503866666666966,39,0.15503866666665544
5551,113.73233911666664,43,0.15503866666665544,42,0.9302320000000037
5552,114.19745511666665,28,0.46511600000000897,23,0.46511599999999476
5553,114.66257111666664,56,0.46511599999999476,46,0.4444440000000043
5554,114.99590411666664,56,0.3333329999999961,37,0.11111100000000818
5555,115.10701511666664,55,0.11111100000000818,41,0.44444399999999007
5556,115.55145911666663,52,0.44444399999999007,37,0.4444440000000043
5557,115.77368111666664,51,0.22222200000000214,37,0.22222200000000214
5558,115.99590311666664,49,0.22222200000000214,42,0.4511279999999971
5559,116.33424911666664,52,0.33834600000000137,37,0.11278199999999572
5560,116.44703111666664,51,0.11278199999999572,37,0.4436585833333311
5561,116.50335169999997,52,0.05632058333333134,33,0.05603999999999587
5562,116.55939169999996,51,0.05603999999999587,37,0.055487166666665644
5563,116.61487886666663,52,0.055487166666665644,35,0.05508016666667004
5564,116.6699590333333,51,0.05508016666667004,37,0.05487816666666845
5565,116.72483719999997,52,0.05487816666666845,34,0.05487816666666845
5566,116.77971536666664,51,0.05487816666666845,37,0.055418833333334305
5567,116.83513419999997,52,0.055418833333334305,37,0.05555549999999698
5568,116.89068969999997,49,0.05555549999999698,37,0.4444440000000043
5569,117.22402269999998,43,0.3333330000000103,41,0.11111099999999396
5570,117.33513369999997,56,0.11111099999999396,46,0.4444440000000043
5571,117.66846669999997,56,0.3333329999999961,37,0.11111100000000818
5572,117.77957769999998,55,0.11111100000000818,41,0.44444399999999007
5573,118.22402169999997,52,0.44444399999999007,37,0.45283000000000584
5574,118.56364419999997,51,0.3396225000000044,37,0.11320750000000146
5575,118.67685169999997,49,0.11320750000000146,45,1.3953479999999985
5576,118.83189036666664,51,0.15503866666666966,40,0.15503866666666966
5577,118.98692903333331,49,0.15503866666666966,39,0.15503866666665544
5578,119.14196769999997,48,0.15503866666665544,42,0.9302320000000037
5579,119.83964169999997,46,0.6976740000000063,53,0.23255799999999738
5580,120.07219969999997,44,0.23255799999999738,70,0.212766000000002
5581,120.39134869999997,44,0.3191489999999959,66,0.10638300000000811
5582,120.49773169999997,46,0.10638300000000811,70,0.4054050000000018
5583,120.90313669999998,48,0.4054050000000018,70,0.40959900000000005
5584,121.31273569999998,49,0.40959900000000005,71,0.20114941666666653
5585,121.61388511666664,51,0.30114941666666084,66,0.09999999999999432
5586,121.71388511666663,53,0.09999999999999432,70,0.4000000000000057
5587,122.11388511666664,54,0.4000000000000057,75,0.20000000000000284
5588,122.31388511666664,56,0.20000000000000284,79,0.20978999999999814
5589,122.52367511666664,58,0.20978999999999814,83,0.3338206250000013
5590,122.82876011666664,60,0.3050850000000054,75,0.11494249999999795
5591,122.85749574166664,34,0.028735624999995935,59,0.4994372916666663
5592,122.88623136666665,37,0.028735625000010145,59,0.47070166666665614
5593,122.91496699166665,42,0.028735624999995935,59,0.4419660416666602
5594,122.94370261666664,61,0.028735624999995935,76,0.41323041666666427
5595,122.99627286666664,63,0.05257025000000226,67,0.052204750000001354
5596,123.04847761666664,61,0.052204750000001354,73,0.05160604166665905
5597,123.1000836583333,63,0.05160604166665905,66,0.051369875000006004
5598,123.15145353333331,61,0.051369875000006004,70,0.051369874999991794
5599,123.2028234083333,63,0.051369874999991794,64,0.051369875000006004
5600,123.25419328333331,61,0.051369875000006004,70,0.051369875000006004
5601,123.30556315833331,63,0.051369875000006004,64,0.051369874999991794
5602,123.3569330333333,60,0.051369874999991794,70,0.20713600000000554
5603,123.56406903333331,58,0.20713600000000554,56,0.21634612500000117
5604,123.78041515833331,56,0.21634612500000117,51,0.07211537499999565
5605,123.85253053333331,61,0.07211537499999565,60,0.2551019999999937
5606,124.23518353333331,61,0.3826530000000048,55,0.08600925000000359
5607,124.32119278333332,53,0.08600925000000359,49,0.7874621250000047
5608,124.74224578333332,41,0.42105300000000057,29,0.4181332499999968
5609,125.10865490833332,54,0.3664091250000041,50,0.05172412499999268
5610,125.16037903333331,58,0.05172412499999268,58,0.24671050000000605
5611,125.53044478333331,58,0.37006574999999486,51,0.08886250000000473
5612,125.61930728333331,48,0.08886250000000473,49,0.7864320416666573
5613,126.03762044999998,42,0.41831316666666396,28,0.4198430000000002
5614,126.40573932499997,49,0.3681188749999933,50,0.05172412500000689
5615,126.45746344999998,53,0.05172412500000689,56,0.24671050000000605
5616,126.82752919999997,53,0.37006574999999486,52,0.08844349999999679
5617,126.91597269999997,43,0.08844349999999679,49,0.8588584999999966
5618,127.35075569999997,41,0.4347829999999959,29,0.4240755000000007
5619,127.77483119999997,20,0.4240755000000007,57,0.20893808333333652
5620,128.08805694999998,48,0.31322575000001507,58,0.10416674999999032
5621,128.19222369999997,51,0.10416674999999032,59,0.41474850000003016
5622,128.39995636666666,54,0.20773266666668633,60,0.20701583333334383
5623,128.6069722,58,0.20701583333334383,67,0.4815334999999834
5624,128.95089095,56,0.3439187500000003,63,0.06880737499997736
5625,129.01969832499998,56,0.06880737499997736,49,0.06880737500000578
5626,129.08850569999998,65,0.06880737500000578,67,0.22556399999999144
5627,129.41896469999998,63,0.3304589999999905,61,0.10489499999999907
5628,129.52385969999997,61,0.10489499999999907,50,0.4195799999999963
5629,129.57630719999997,63,0.052447499999999536,49,0.052447499999999536
5630,129.62875469999997,61,0.052447499999999536,57,0.10489499999999907
5631,129.73364969999997,58,0.10489499999999907,52,0.20978999999999814
5632,129.94343969999997,56,0.20978999999999814,49,0.4562119999999936
5633,130.33955557499996,58,0.39611587499999246,45,0.060096125000001166
5634,130.39965169999996,61,0.060096125000001166,51,0.26595750000001317
5635,130.79858794999996,61,0.39893624999999133,46,0.08971299999998905
5636,130.88830094999994,48,0.08971299999998905,44,0.7343864166666663
5637,131.30689761666662,42,0.41859666666667295,25,0.419842999999986
5638,131.6226873666666,49,0.3157897499999933,42,0.052329124999999976
5639,131.6750164916666,53,0.052329124999999976,41,0.05172412499999268
5640,131.7267406166666,56,0.05172412499999268,49,0.26978399999998715
5641,132.1314166166666,56,0.40467599999999493,47,0.09375
5642,132.2251666166666,43,0.09375,44,0.8805499999999995
5643,132.6477016166666,41,0.42253500000001054,26,0.45801499999998896
5644,133.1057166166666,20,0.45801499999998896,57,0.21264066666665826
5645,133.42436428333326,48,0.31864766666666355,60,0.10575816666667492
5646,133.53012244999994,51,0.10575816666667492,62,0.42093249999999216
5647,133.74101944999992,54,0.21089699999998857,66,0.2100355000000036
5648,133.95105494999993,53,0.2100355000000036,63,0.42983449999999834
5649,134.00295807499992,54,0.0519031249999955,63,0.0519031249999955
5650,134.05486119999992,53,0.0519031249999955,70,0.21491725000001338
5651,134.26977844999993,51,0.21491725000001338,64,0.11111099999999396
5652,134.38088944999993,53,0.11111099999999396,76,0.48634000000001265
5653,134.61618344999994,44,0.23529400000001033,68,0.2510460000000023
5654,134.86722944999994,61,0.2510460000000023,70,1.0041840000000093
5655,1.54423075,20,0.0,30,1.2244177499999997
5656,1.6163461250000002,27,0.07211537500000009,37,1.1523023749999997
5657,1.6884615,36,0.07211537499999987,44,1.0801869999999998
5658,1.824208,48,0.1357465,32,0.1357465
5659,1.9599545,44,0.1357465,32,0.1357465
5660,2.095701,41,0.1357465,33,0.13574649999999977
5661,2.2314475,39,0.13574649999999977,40,0.1343002499999999
5662,2.3657477499999997,44,0.1343002499999999,36,0.1343002499999999
5663,2.5000479999999996,56,0.1343002499999999,40,0.1343002499999999
5664,2.6343482499999995,53,0.1343002499999999,36,0.13430025000000034
5665,2.7686485,51,0.13430025000000034,40,0.1343002499999999
5666,2.9029487499999997,48,0.1343002499999999,32,0.1343002499999999
5667,3.0372489999999996,44,0.1343002499999999,32,0.1343002499999999
5668,3.1715492499999995,41,0.1343002499999999,32,0.13430025000000034
5669,3.3058495,39,0.13430025000000034,40,0.1343002499999999
5670,3.44014975,44,0.1343002499999999,37,0.1343002499999999
5671,3.5744499999999997,56,0.1343002499999999,40,0.1343002499999999
5672,3.7087502499999996,53,0.1343002499999999,36,0.1343002499999999
5673,3.8430504999999995,15,0.1343002499999999,47,0.5320148750000007
5674,3.9757702499999996,48,0.13271975000000014,35,0.13271975000000014
5675,4.10849,44,0.13271975000000014,34,0.1327197499999997
5676,4.2412097499999994,41,0.1327197499999997,34,0.1338556250000007
5677,4.307569624999999,27,0.06635987499999985,33,0.06749575000000085
5678,4.375065375,39,0.06749575000000085,40,0.13921991666666678
5679,4.445159875,27,0.07009449999999973,38,0.06912541666666705
5680,4.514285291666667,29,0.06912541666666705,39,0.13585225000000012
5681,4.582468041666667,27,0.06818275000000007,40,0.06766950000000005
5682,4.650137541666667,56,0.06766950000000005,40,0.1379395833333339
5683,4.718631666666667,27,0.06849412499999996,41,0.06944545833333393
5684,4.788077125000001,26,0.06944545833333393,42,0.140714
5685,4.858302375000001,27,0.07022525000000002,42,0.07048874999999999
5686,4.928791125000001,36,0.07048874999999999,47,1.0872520000000003
5687,5.064697625000001,48,0.13590649999999993,35,0.13590649999999993
5688,5.200604125000001,44,0.13590649999999993,35,0.13590649999999993
5689,5.336510625000001,41,0.13590649999999993,35,0.13590649999999993
5690,5.472417125000001,34,0.13590649999999993,45,0.5436260000000006
5691,5.608323625000001,43,0.13590649999999993,38,0.13590649999999993
5692,5.7442301250000005,49,0.13590649999999993,40,0.13590649999999993
5693,5.8801366250000004,46,0.13590649999999993,37,0.13590650000000082
5694,6.016043125000001,20,0.13590650000000082,47,0.27181299999999986
5695,6.151949625000001,44,0.13590649999999993,37,0.13590649999999993
5696,6.287856125000001,27,0.13590649999999993,37,0.13590649999999993
5697,6.423762625000001,36,0.13590649999999993,33,0.13590649999999993
5698,6.559669125000001,36,0.13590649999999993,41,0.2675225000000001
5699,6.693430375000001,44,0.13376125000000005,34,0.13376125000000005
5700,6.827191625000001,34,0.13376125000000005,41,0.2739975000000001
5701,6.964190375000001,46,0.13699875000000006,37,0.13699875000000006
5702,7.101189125000001,20,0.13699875000000006,48,0.2675225000000001
5703,7.234950375000001,44,0.13376125000000005,38,0.13376125000000005
5704,7.368711625000001,27,0.13376125000000005,41,0.13376125000000005
5705,7.502472875000001,32,0.13376125000000005,36,0.13376125000000005
5706,7.636234125000001,36,0.13376125000000005,42,0.2675225000000001
5707,7.7699953750000015,44,0.13376125000000005,34,0.13376125000000005
5708,7.9037566250000015,34,0.13376125000000005,40,0.2675225000000001
5709,8.037517875,46,0.13376124999999917,36,0.13376125000000094
5710,8.171279125000002,20,0.13376125000000094,47,0.27109791666666716
5711,8.306470541666668,44,0.13519141666666634,37,0.13590650000000082
5712,8.442377041666669,27,0.13590650000000082,45,0.13590649999999904
5713,8.578283541666668,32,0.13590649999999904,39,0.13590650000000082
5714,8.714190041666669,36,0.13590650000000082,45,0.1327197499999997
5715,8.846909791666668,32,0.1327197499999997,40,0.1327197499999997
5716,8.979629541666668,49,0.1327197499999997,45,0.1352069166666663
5717,9.114836458333334,47,0.1352069166666663,41,0.13645050000000047
5718,9.251286958333335,48,0.13645050000000047,45,0.27265024999999987
5719,9.385048208333334,49,0.13376124999999917,40,0.1388890000000007
5720,9.523937208333335,53,0.1388890000000007,45,0.13888899999999893
5721,9.662826208333334,50,0.13888899999999893,41,0.1388890000000007
5722,9.801715208333334,51,0.1388890000000007,48,0.27777799999999964
5723,9.940604208333333,55,0.13888899999999893,46,0.1388890000000007
5724,10.079493208333334,56,0.1388890000000007,50,0.1388890000000007
5725,10.218382208333335,60,0.1388890000000007,52,1.224367749999999
5726,10.290152583333334,34,0.07177037499999983,37,1.1525973749999991
5727,10.361922958333334,58,0.07177037499999983,52,1.0808269999999993
5728,10.497829458333335,55,0.13590650000000082,40,0.13590649999999904
5729,10.633735958333334,51,0.13590649999999904,45,0.13590650000000082
5730,10.769642458333335,48,0.13590650000000082,41,0.13590649999999904
5731,10.905548958333334,46,0.13590649999999904,45,0.1343002500000008
5732,11.039849208333335,51,0.1343002500000008,40,0.134300249999999
5733,11.174149458333334,63,0.134300249999999,48,0.1343002500000008
5734,11.308449708333335,60,0.1343002500000008,42,0.134300249999999
5735,11.442749958333334,58,0.134300249999999,45,0.1343002500000008
5736,11.577050208333334,55,0.1343002500000008,41,0.134300249999999
5737,11.711350458333333,51,0.134300249999999,41,0.1343002500000008
5738,11.845650708333334,48,0.1343002500000008,41,0.134300249999999
5739,11.979950958333333,46,0.134300249999999,45,0.1343002500000008
5740,12.114251208333334,51,0.1343002500000008,42,0.1343002500000008
5741,12.248551458333335,63,0.1343002500000008,48,0.134300249999999
5742,12.382851708333334,60,0.134300249999999,41,0.134300249999999
5743,12.517151958333333,22,0.134300249999999,47,0.5308790000000005
5744,12.649871708333333,55,0.1327197499999997,42,0.1327197499999997
5745,12.782591458333332,51,0.1327197499999997,42,0.13271975000000147
5746,12.915311208333334,48,0.13271975000000147,42,0.1327197499999997
5747,12.981671083333334,34,0.06635987499999985,33,0.06635987499999985
5748,13.048030958333333,46,0.06635987499999985,45,0.14041250000000005
5749,13.118674958333333,34,0.07064399999999971,38,0.06976850000000034
5750,13.188443458333333,51,0.06976850000000034,41,0.13678441666666785
5751,13.25725175,34,0.06880829166666658,40,0.06797612500000128
5752,13.325227875000001,63,0.06797612500000128,49,0.1386850000000006
5753,13.394382291666668,34,0.06915441666666666,41,0.06953058333333395
5754,13.463912875000002,60,0.06953058333333395,42,0.14059199999999983
5755,13.534016125000003,34,0.07010325000000073,42,0.0704887499999991
5756,13.604504875000002,43,0.0704887499999991,47,1.0872519999999994
5757,13.740411375000003,55,0.13590650000000082,41,0.13590649999999904
5758,13.876317875000002,51,0.13590649999999904,41,0.13590650000000082
5759,14.012224375000002,48,0.13590650000000082,41,0.13590649999999904
5760,14.148130875000001,46,0.13590649999999904,45,0.5436259999999997
5761,14.284037375000002,50,0.13590650000000082,43,0.13590649999999904
5762,14.419943875000001,56,0.13590649999999904,45,0.13590650000000082
5763,14.555850375000002,53,0.13590650000000082,42,0.13590649999999904
5764,14.691756875000001,27,0.13590649999999904,47,0.27181299999999986
5765,14.827663375000002,51,0.13590650000000082,42,0.13590649999999904
5766,14.963569875000001,34,0.13590649999999904,43,0.13590650000000082
5767,15.099476375000002,39,0.13590650000000082,39,0.13590649999999904
5768,15.235382875,43,0.13590649999999904,44,0.2675225000000001
5769,15.369144125,51,0.13376124999999917,38,0.13376125000000094
5770,15.502905375000001,56,0.13376125000000094,44,0.2739975000000001
5771,15.639904125000001,53,0.13699875000000006,42,0.13699875000000006
5772,15.776902875000001,27,0.13699875000000006,48,0.26752249999999833
5773,15.910664125,51,0.13376124999999917,43,0.13376124999999917
5774,16.044425375,34,0.13376124999999917,42,0.13376125000000272
5775,16.178186625000002,43,0.13376125000000272,39,0.13376124999999917
5776,16.311947875,43,0.13376124999999917,45,0.26752249999999833
5777,16.445709125,51,0.13376124999999917,38,0.13376124999999917
5778,16.579470375,41,0.13376124999999917,42,0.2675225000000019
5779,16.713231625000002,53,0.13376125000000272,41,0.13376124999999917
5780,16.846992875,27,0.13376124999999917,47,0.18049358333333387
5781,16.98218429166667,51,0.13519141666666812,42,0.13590649999999727
5782,17.027486458333335,34,0.045302166666665755,45,0.18120866666666657
5783,17.118090791666667,46,0.09060433333333151,37,0.13590650000000082
5784,17.208695125000002,39,0.09060433333333506,39,0.18120866666666657
5785,17.253997291666668,43,0.045302166666665755,37,0.12911117499999847
5786,17.38990379166667,43,0.13590650000000082,47,0.17695966666666507
5787,17.52262354166667,51,0.1327197499999997,36,0.1327197499999997
5788,17.566863458333334,49,0.04423991666666538,44,0.1782032500000028
5789,17.655343291666668,55,0.08847983333333431,51,0.13520691666666806
5790,17.790550208333336,58,0.13520691666666806,49,0.13645050000000225
5791,17.92700070833334,63,0.13645050000000225,51,0.13376124999999917
5792,18.060761958333337,67,0.13376124999999917,49,0.13824874999999892
5793,18.199010708333336,65,0.13824874999999892,51,0.13824875000000247
5794,18.33725945833334,58,0.13824875000000247,47,0.13824874999999892
5795,18.475508208333338,53,0.13824874999999892,51,0.13824874999999892
5796,18.613756958333337,58,0.13824874999999892,47,0.13824875000000247
5797,18.75200570833334,53,0.13824875000000247,49,0.13824874999999892
5798,18.890254458333338,55,0.13824874999999892,48,1.2190757499999982
5799,18.959378833333336,39,0.06912437499999768,37,1.1499513750000006
5800,19.028503208333337,63,0.06912437500000124,52,1.0808269999999993
5801,19.164409708333338,60,0.13590650000000082,42,0.13590650000000082
5802,19.30031620833334,56,0.13590650000000082,42,0.13590649999999727
5803,19.436222708333336,53,0.13590649999999727,43,0.13590650000000082
5804,19.572129208333337,51,0.13590650000000082,46,0.134300249999999
5805,19.706429458333336,56,0.134300249999999,42,0.13430025000000256
5806,19.84072970833334,68,0.13430025000000256,51,0.134300249999999
5807,19.975029958333337,65,0.134300249999999,46,0.134300249999999
5808,20.109330208333336,63,0.134300249999999,51,0.134300249999999
5809,20.243630458333335,60,0.134300249999999,46,0.13430025000000256
5810,20.377930708333338,56,0.13430025000000256,46,0.134300249999999
5811,20.512230958333337,53,0.134300249999999,46,0.134300249999999
5812,20.646531208333336,51,0.134300249999999,51,0.134300249999999
5813,20.780831458333335,56,0.134300249999999,47,0.13430025000000256
5814,20.915131708333337,68,0.13430025000000256,51,0.134300249999999
5815,21.049431958333336,65,0.134300249999999,46,0.134300249999999
5816,21.183732208333335,63,0.134300249999999,53,0.5308789999999988
5817,21.316451958333335,60,0.1327197499999997,44,0.1327197499999997
5818,21.449171708333335,56,0.1327197499999997,44,0.1327197499999997
5819,21.581891458333335,53,0.1327197499999997,44,0.1327197499999997
5820,21.648251333333334,39,0.06635987499999985,33,0.06635987499999985
5821,21.714611208333334,51,0.06635987499999985,46,0.13975829166666642
5822,21.784924041666667,39,0.07031283333333249,38,0.06944545833333393
5823,21.8543695,56,0.06944545833333393,43,0.13606262499999744
5824,21.922863624999998,39,0.0684941249999973,40,0.06756850000000014
5825,21.990432124999998,68,0.06756850000000014,51,0.1372873333333331
5826,22.058188875,39,0.06775675000000092,41,0.06953058333333217
5827,22.12771945833333,65,0.06953058333333217,47,0.1405920000000016
5828,22.197822708333334,39,0.0701032500000025,42,0.0704887499999991
5829,22.268311458333333,63,0.0704887499999991,51,1.0872519999999994
5830,22.404217958333334,60,0.13590650000000082,46,0.13590650000000082
5831,22.540124458333334,56,0.13590650000000082,46,0.13590649999999727
5832,22.67603095833333,53,0.13590649999999727,46,0.13590650000000082
5833,22.811937458333333,51,0.13590650000000082,51,0.5436259999999997
5834,22.947843958333333,55,0.13590650000000082,49,0.13590650000000082
5835,23.083750458333334,61,0.13590650000000082,51,0.13590649999999727
5836,23.21965695833333,58,0.13590649999999727,47,0.13590650000000082
5837,23.355563458333332,60,0.13590650000000082,51,0.27181300000000164
5838,23.491469958333333,56,0.13590650000000082,44,0.13590650000000082
5839,23.627376458333334,39,0.13590650000000082,44,0.13590649999999727
5840,23.76328295833333,44,0.13590649999999727,40,0.13590650000000082
5841,23.899189458333332,48,0.13590650000000082,46,0.26752249999999833
5842,24.03295070833333,56,0.13376124999999917,40,0.13376124999999917
5843,24.16671195833333,61,0.13376124999999917,44,0.2739975000000001
5844,24.30371070833333,58,0.13699875000000006,44,0.13699875000000006
5845,24.44070945833333,32,0.13699875000000006,48,0.26752249999999833
5846,24.57447070833333,56,0.13376124999999917,45,0.13376124999999917
5847,24.70823195833333,39,0.13376124999999917,43,0.13376125000000272
5848,24.84199320833333,48,0.13376125000000272,41,0.13376124999999917
5849,24.97575445833333,48,0.13376124999999917,45,0.26752249999999833
5850,25.10951570833333,56,0.13376124999999917,40,0.13376124999999917
5851,25.24327695833333,61,0.13376124999999917,44,0.2675225000000019
5852,25.37703820833333,58,0.13376125000000272,43,0.13376124999999917
5853,25.51079945833333,32,0.13376124999999917,47,0.18049358333333387
5854,25.645990875,56,0.13519141666666812,44,0.13590649999999727
5855,25.691293041666665,39,0.045302166666665755,45,0.18120866666666657
5856,25.781897374999996,51,0.09060433333333151,39,0.13590650000000082
5857,25.87250170833333,44,0.09060433333333506,39,0.18120866666666657
5858,25.917803874999997,48,0.045302166666665755,39,0.127978620833332
5859,26.053710374999998,51,0.13590650000000082,47,0.17695966666666507
5860,26.186430124999998,56,0.1327197499999997,41,0.1327197499999997
5861,26.230670041666663,54,0.04423991666666538,50,0.1782032500000028
5862,26.319149874999997,60,0.08847983333333431,48,0.13520691666666806
5863,26.454356791666665,63,0.13520691666666806,46,0.13645050000000225
5864,26.590807291666668,68,0.13645050000000225,51,0.13698624999999964
5865,26.727793541666667,72,0.13698624999999964,46,0.13698624999999964
5866,26.864779791666667,70,0.13698624999999964,48,0.13698624999999964
5867,27.001766041666666,63,0.13698624999999964,45,0.13698624999999964
5868,27.138752291666666,58,0.13698624999999964,52,0.1369862500000032
5869,27.27573854166667,63,0.1369862500000032,46,0.13698624999999964
5870,27.41272479166667,58,0.13698624999999964,51,0.13953499999999863
5871,27.552259791666668,60,0.13953499999999863,48,0.13953500000000219
5872,27.69179479166667,37,0.13953500000000219,55,0.18049358333333387
5873,27.826986208333338,65,0.13519141666666812,45,0.13590649999999727
5874,27.872288375000004,44,0.045302166666665755,20,0.18120866666666657
5875,27.962892708333335,61,0.09060433333333151,42,0.13590650000000082
5876,28.05349704166667,53,0.09060433333333506,45,0.18120866666666657
5877,28.098799208333336,58,0.045302166666665755,42,0.13590650000000082
5878,28.234705708333337,56,0.13590650000000082,46,0.1327197499999997
5879,28.367425458333337,61,0.1327197499999997,42,0.1327197499999997
5880,28.500145208333336,73,0.1327197499999997,48,0.13520691666666806
5881,28.635352125000004,70,0.13520691666666806,46,0.13645050000000225
5882,28.771802625000007,68,0.13645050000000225,51,0.13376124999999917
5883,28.905563875000006,65,0.13376124999999917,46,0.13376124999999917
5884,29.039325125000005,61,0.13376124999999917,48,0.13376125000000272
5885,29.173086375000008,58,0.13376125000000272,44,0.13376124999999917
5886,29.306847625000007,56,0.13376124999999917,47,0.13376124999999917
5887,29.440608875000006,61,0.13376124999999917,44,0.13376124999999917
5888,29.574370125000005,73,0.13376124999999917,51,0.13376125000000272
5889,29.708131375000008,70,0.13376125000000272,48,0.13376124999999917
5890,29.841892625000007,34,0.13376124999999917,54,0.18049358333333387
5891,29.977084041666675,65,0.13519141666666812,46,0.13590649999999727
5892,30.02238620833334,44,0.045302166666665755,47,0.18120866666666657
5893,30.112990541666672,62,0.09060433333333151,43,0.13590650000000082
5894,30.203594875000007,53,0.09060433333333506,43,0.18120866666666657
5895,30.248897041666673,58,0.045302166666665755,43,0.13590650000000082
5896,30.384803541666674,56,0.13590650000000082,48,0.1327197499999997
5897,30.517523291666674,58,0.1327197499999997,43,0.1327197499999997
5898,30.650243041666673,74,0.1327197499999997,48,0.13520691666666806
5899,30.78544995833334,70,0.13520691666666806,46,0.13645050000000225
5900,30.921900458333344,68,0.13645050000000225,51,0.13376124999999917
5901,31.055661708333343,65,0.13376124999999917,46,0.13376124999999917
5902,31.189422958333342,62,0.13376124999999917,48,0.13376125000000272
5903,31.323184208333345,58,0.13376125000000272,45,0.13376124999999917
5904,31.456945458333344,56,0.13376124999999917,48,0.13376124999999917
5905,31.590706708333343,58,0.13376124999999917,44,0.13376124999999917
5906,31.724467958333342,74,0.13376124999999917,51,0.13376125000000272
5907,31.858229208333345,70,0.13376125000000272,48,0.13376124999999917
5908,31.991990458333344,39,0.13376124999999917,57,0.18049358333332677
5909,32.127181875000005,65,0.135191416666661,46,0.13590650000000437
5910,32.17248404166667,46,0.045302166666665755,47,2.0221785000000025
5911,32.26308837500001,63,0.09060433333333862,42,0.13590649999999727
5912,32.35369270833334,51,0.09060433333333151,43,0.18120866666666302
5913,32.39899487500001,60,0.045302166666665755,43,0.13590649999999727
5914,32.534901375000004,56,0.13590649999999727,52,1.6597611666666694
5915,32.667621125000004,63,0.1327197499999997,45,0.1327197499999997
5916,32.800340875,75,0.1327197499999997,48,0.13520691666666806
5917,32.93554779166667,72,0.13520691666666806,46,0.13645050000000225
5918,33.071998291666674,68,0.13645050000000225,51,0.13376124999999917
5919,33.20575954166667,65,0.13376124999999917,46,0.13376124999999917
5920,33.33952079166667,63,0.13376124999999917,48,0.13376124999999917
5921,33.47328204166667,60,0.13376124999999917,48,0.13376124999999917
5922,33.60704329166667,58,0.13376124999999917,52,0.13376125000000627
5923,33.74080454166668,63,0.13376125000000627,46,0.13376124999999917
5924,33.874565791666676,75,0.13376124999999917,51,0.13376124999999917
5925,34.008327041666675,72,0.13376124999999917,48,0.7292464166666619
5926,34.101494791666674,46,0.09316774999999922,48,0.09316774999999922
5927,34.19466254166667,49,0.09316774999999922,61,2.1938603333333333
5928,34.32985395833334,65,0.13519141666666457,47,0.13590650000000437
5929,34.46576045833334,63,0.13590650000000437,44,0.13590649999999727
5930,34.60166695833334,60,0.13590649999999727,44,0.13250883749999787
5931,34.73757345833334,55,0.13590649999999727,49,1.6509494166666698
5932,34.87029320833334,63,0.1327197499999997,42,0.1327197499999997
5933,35.003012958333336,75,0.1327197499999997,51,0.13520691666666806
5934,35.138219875000004,72,0.13520691666666806,45,0.13645050000000225
5935,35.27467037500001,70,0.13645050000000225,53,0.27649749999999784
5936,35.41291912500001,67,0.13824875000000247,45,0.13824874999999537
5937,35.551167875000004,63,0.13824874999999537,45,0.13824875000000247
5938,35.68941662500001,60,0.13824875000000247,45,0.13824875000000247
5939,35.82766537500001,58,0.13824875000000247,51,0.13824874999999537
5940,35.965914125000005,63,0.13824874999999537,40,0.13824875000000247
5941,36.10416287500001,75,0.13824875000000247,45,0.1421800000000033
5942,36.24634287500001,70,0.1421800000000033,37,1.2230070000000026
5943,36.31743287500001,39,0.0710899999999981,40,1.1519170000000045
5944,36.38852287500001,75,0.0710899999999981,45,1.0808270000000064
5945,36.524429375000004,72,0.13590649999999727,41,0.13590650000000437
5946,36.66033587500001,68,0.13590650000000437,41,0.13590649999999727
5947,36.796242375000006,65,0.13590649999999727,42,0.13590650000000437
5948,36.93214887500001,63,0.13590650000000437,45,0.13430025000000256
5949,37.06644912500001,68,0.13430025000000256,41,0.13430024999999546
5950,37.20074937500001,80,0.13430024999999546,45,0.13430025000000256
5951,37.33504962500001,77,0.13430025000000256,42,0.13430025000000256
5952,37.46934987500001,75,0.13430025000000256,45,0.13430024999999546
5953,37.60365012500001,72,0.13430024999999546,42,0.13430025000000256
5954,37.73795037500001,68,0.13430025000000256,42,0.13430024999999546
5955,37.87225062500001,65,0.13430024999999546,42,0.13430025000000256
5956,38.00655087500001,63,0.13430025000000256,45,0.13430025000000256
5957,38.14085112500001,68,0.13430025000000256,43,0.13430024999999546
5958,38.27515137500001,80,0.13430024999999546,45,0.13430025000000256
5959,38.40945162500001,77,0.13430025000000256,42,0.13430025000000256
5960,38.54375187500001,75,0.13430025000000256,46,0.5308789999999988
5961,38.67647162500001,72,0.1327197499999997,43,0.1327197499999997
5962,38.80919137500001,68,0.1327197499999997,43,0.1327197499999997
5963,38.94191112500001,65,0.1327197499999997,43,0.1327197499999997
5964,39.008271000000015,39,0.0663598750000034,29,0.0663598749999963
5965,39.07463087500001,63,0.0663598749999963,45,0.13793958333333478
5966,39.14407633333334,39,0.06944545833332683,34,0.06849412500000795
5967,39.212570458333346,68,0.06849412500000795,42,0.134334333333328
5968,39.280138958333346,39,0.06756850000000014,36,0.06676583333332786
5969,39.346904791666674,80,0.06676583333332786,45,0.13544825000000316
5970,39.41417029166667,39,0.06726549999999776,36,0.0681827500000054
5971,39.48235304166668,77,0.0681827500000054,43,0.14006895833333743
5972,39.55193325000001,39,0.06958020833333478,37,0.07048875000000265
5973,39.622422000000014,75,0.07048875000000265,45,1.0872519999999994
5974,39.75832850000001,72,0.13590649999999727,42,0.13590650000000437
5975,39.894235000000016,68,0.13590650000000437,42,0.13590649999999727
5976,40.03014150000001,65,0.13590649999999727,42,0.13590650000000437
5977,40.16604800000002,63,0.13590650000000437,45,0.5436259999999962
5978,40.301954500000015,67,0.13590649999999727,44,0.13590649999999727
5979,40.43786100000001,73,0.13590649999999727,45,0.13590650000000437
5980,40.57376750000002,70,0.13590650000000437,43,0.13590649999999727
5981,40.709674000000014,72,0.13590649999999727,45,0.27181300000000164
5982,40.84558050000001,68,0.13590649999999727,43,0.13590650000000437
5983,40.981487000000016,39,0.13590650000000437,40,0.13590649999999727
5984,41.11739350000001,44,0.13590649999999727,38,0.13590650000000437
5985,41.25330000000002,56,0.13590650000000437,43,0.26752249999999833
5986,41.387061250000016,51,0.13376124999999917,39,0.13376124999999917
5987,41.520822500000016,61,0.13376124999999917,42,0.2739975000000001
5988,41.65782125000001,58,0.1369987499999965,43,0.1369987500000036
5989,41.794820000000016,60,0.1369987500000036,45,0.26752249999999833
5990,41.928581250000015,56,0.13376124999999917,44,0.13376124999999917
5991,42.062342500000014,51,0.13376124999999917,40,0.13376124999999917
5992,42.19610375000001,48,0.13376124999999917,40,0.13376124999999917
5993,42.32986500000001,44,0.13376124999999917,43,0.26431699999999836
5994,42.462023500000015,39,0.13215850000000273,39,0.13215849999999563
5995,42.59418200000001,49,0.13215849999999563,42,0.272727500000002
5996,42.73054575000001,46,0.136363750000001,42,0.136363750000001
5997,42.86690950000001,48,0.136363750000001,45,0.27149299999999954
5998,43.002656000000016,44,0.13574650000000332,44,0.13574649999999622
5999,43.13840250000001,39,0.13574649999999622,39,0.13574650000000332
6000,43.274149000000016,36,0.13574650000000332,39,0.13574649999999622
6001,43.40989550000001,39,0.13574649999999622,41,0.2666664999999995
6002,43.54322875000001,44,0.13333324999999974,36,0.13333324999999974
6003,43.67656200000001,49,0.13333324999999974,39,0.2803740000000019
6004,43.81674900000001,46,0.1401869999999974,39,0.1401870000000045
6005,43.95693600000001,48,0.1401870000000045,42,0.2702705000000023
6006,44.09207125000001,44,0.1351352499999976,41,0.1351352500000047
6007,44.227206500000015,27,0.1351352500000047,35,0.1351352499999976
6008,44.36234175000001,36,0.1351352499999976,34,0.1351352499999976
6009,44.49747700000001,39,0.1351352499999976,38,0.2654865000000015
6010,44.63022025000001,44,0.1327432499999972,34,0.1327432500000043
6011,44.76296350000001,49,0.1327432500000043,35,0.27906999999999726
6012,44.902498500000014,46,0.13953500000000219,35,0.13953499999999508
6013,45.04203350000001,48,0.13953499999999508,38,0.4117967500000006
6014,45.17943875000001,44,0.13740525000000048,38,0.13698624999999964
6015,45.31642500000001,39,0.13698624999999964,34,0.13740525000000048
6016,45.45383025000001,36,0.13740525000000048,34,0.13740525000000048
6017,45.59123550000001,39,0.13740525000000048,34,0.1371957499999965
6018,45.72843125000001,44,0.1371957499999965,32,0.1380374166666698
6019,45.86646866666668,48,0.1380374166666698,36,0.13910433333333572
6020,46.00557300000001,51,0.13910433333333572,33,0.14026441666666045
6021,46.14583741666667,56,0.14026441666666045,39,0.140735854166671
6022,46.286573270833344,60,0.140735854166671,34,0.14428381249999944
6023,46.43085708333334,63,0.14428381249999944,30,0.14780368125000365
6024,46.57866076458335,68,0.14780368125000365,26,0.15149596041666769
6025,46.730156725000015,72,0.15149596041666769,33,0.15599699999999928
6026,46.886153725000014,63,0.15599699999999928,31,0.16247508333333371
6027,47.04862880833335,68,0.16247508333333371,29,0.20746900000000323
6028,47.25609780833335,60,0.20746900000000323,26,0.33259424999999965
6029,47.58869205833335,80,0.33259424999999965,42,1.0084030000000013
6030,0.0035714291666666667,38,0.0,80,1.7107145708333333
6031,0.014285716666666667,19,0.0107142875,61,1.7142860000000002
6032,0.5714286666666667,26,0.55714295,52,0.5714286666666667
6033,1.1428573333333334,35,0.5714286666666667,48,0.5714286666666666
6034,1.714286,38,0.5714286666666666,74,1.714286
6035,2.285714666666667,26,0.5714286666666668,51,0.5714286666666664
6036,2.857143333333333,33,0.5714286666666664,45,0.5714286666666668
6037,3.1428576666666665,38,0.2857143333333334,77,0.2857143333333334
6038,3.428572,38,0.2857143333333334,80,1.7142860000000004
6039,4.000000666666667,26,0.5714286666666668,46,0.5714286666666668
6040,4.571429333333334,35,0.5714286666666668,40,0.5714286666666668
6041,5.142858,40,0.5714286666666668,75,1.784714666666666
6042,5.7184273333333335,28,0.5755693333333332,46,0.594853333333333
6043,6.3132806666666665,36,0.594853333333333,42,0.6142919999999998
6044,6.694399583333333,23,0.38111891666666686,64,0.23317308333333298
6045,6.927572666666666,40,0.23317308333333298,76,3.505331
6046,7.524587666666666,28,0.5970149999999999,45,0.5970149999999999
6047,8.121602666666666,36,0.5970149999999999,43,0.5970150000000007
6048,8.718617666666667,42,0.5970150000000007,78,1.4285716666666666
6049,9.290046333333333,28,0.5714286666666659,42,0.5714286666666677
6050,9.861475,36,0.5714286666666677,37,0.5714286666666659
6051,10.147189333333333,42,0.28571433333333296,75,0.28571433333333296
6052,10.432903666666666,42,0.28571433333333296,75,1.7647060000000003
6053,11.021139,30,0.5882353333333334,42,0.5882353333333334
6054,11.609374333333333,38,0.5882353333333334,42,0.5882353333333334
6055,12.197609666666667,42,0.5882353333333334,73,1.6666670000000003
6056,12.753165333333333,30,0.5555556666666668,44,0.5555556666666668
6057,13.308721,38,0.5555556666666668,44,0.5555556666666668
6058,13.655943291666667,26,0.3472222916666663,62,0.2083333750000005
6059,13.864276666666667,43,0.2083333750000005,75,1.7391299999999994
6060,14.443986666666667,31,0.5797100000000004,48,0.5797099999999986
6061,15.023696666666666,38,0.5797099999999986,44,0.5797100000000004
6062,15.603406666666666,43,0.5797100000000004,76,1.521738749999999
6063,16.183116666666667,31,0.5797100000000004,45,0.5797099999999986
6064,16.762826666666665,40,0.5797099999999986,43,0.5797100000000022
6065,17.052681666666665,43,0.2898549999999993,80,0.28985500000000286
6066,17.125145416666665,24,0.07246375000000072,68,0.21739125000000215
6067,17.342536666666668,43,0.21739125000000215,80,1.8181820000000002
6068,17.948597333333336,31,0.6060606666666679,45,0.6060606666666644
6069,18.554658,38,0.6060606666666644,43,0.6060606666666679
6070,18.97890046666667,13,0.4242424666666693,40,0.09090909999999752
6071,19.069809566666667,14,0.09090909999999752,40,0.09090910000000108
6072,19.160718666666668,42,0.09090910000000108,85,1.515151666666668
6073,19.25162776666667,14,0.09090910000000108,40,0.09090909999999752
6074,19.342536866666666,16,0.09090909999999752,40,0.09090910000000108
6075,19.433445966666667,14,0.09090910000000108,40,0.09090910000000108
6076,19.52435506666667,16,0.09090910000000108,40,0.09090909999999752
6077,19.615264166666666,14,0.09090909999999752,40,0.09090910000000108
6078,19.706173266666667,16,0.09090910000000108,40,0.09090910000000108
6079,19.766779333333336,30,0.06060606666666857,45,0.6060606666666644
6080,19.797082366666668,14,0.030303033333332507,40,0.09090910000000108
6081,19.88799146666667,16,0.09090910000000108,39,0.09090909999999752
6082,19.978900566666667,14,0.09090909999999752,41,0.09090910000000108
6083,20.069809666666668,16,0.09090910000000108,44,0.09090910000000108
6084,20.16071876666667,14,0.09090910000000108,45,0.09090909999999752
6085,20.251627866666666,16,0.09090909999999752,47,0.09090910000000108
6086,20.342536966666668,14,0.09090910000000108,49,0.09090910000000108
6087,20.37284,38,0.030303033333332507,49,0.6060606666666679
6088,20.43344606666667,16,0.06060606666666857,51,0.09090909999999752
6089,20.524355166666666,14,0.09090909999999752,53,0.09090910000000108
6090,20.615264266666667,16,0.09090910000000108,54,0.09090910000000108
6091,20.675870333333336,42,0.06060606666666857,85,0.3030303333333322
6092,20.70617336666667,14,0.030303033333332507,56,0.09090909999999752
6093,20.797082466666666,13,0.09090909999999752,58,0.09090910000000108
6094,20.887991566666667,14,0.09090910000000108,61,0.09090910000000108
6095,20.978900666666668,42,0.09090910000000108,90,1.8181820000000002
6096,21.584961333333332,31,0.6060606666666644,49,0.6060606666666679
6097,22.191022,38,0.6060606666666679,46,0.6060606666666679
6098,22.797082666666668,42,0.6060606666666679,80,1.5980114999999984
6099,23.403143333333333,31,0.6060606666666644,45,0.6060606666666679
6100,24.009204,37,0.6060606666666679,42,0.6394537499999977
6101,24.316969166666667,40,0.3077651666666661,64,0.3316885833333316
6102,24.395094166666667,21,0.078125,54,0.2535635833333316
6103,24.648657749999998,40,0.2535635833333316,64,1.7899475416666668
6104,25.245672749999997,28,0.597014999999999,42,0.5970150000000025
6105,25.84268775,36,0.5970150000000025,42,0.5959175416666653
6106,26.260598249999997,17,0.41791049999999785,44,0.08955225000000056
6107,26.350150499999998,18,0.08955225000000056,44,0.08845479166666692
6108,26.438605291666665,40,0.08845479166666692,64,1.5969846666666676
6109,26.527060083333332,18,0.08845479166666692,43,0.08955225000000056
6110,26.616612333333332,19,0.08955225000000056,43,0.09023067499999726
6111,26.70684300833333,18,0.09023067499999726,43,0.09090910000000108
6112,26.79775210833333,19,0.09090910000000108,42,0.09207460000000012
6113,26.88982670833333,18,0.09207460000000012,42,0.09254808333333386
6114,26.982374791666665,19,0.09254808333333386,42,0.09375
6115,27.044874791666665,26,0.0625,42,0.6454132500000007
6116,27.076124791666665,18,0.03125,40,0.09449405000000155
6117,27.170618841666666,19,0.09449405000000155,41,0.09523809999999955
6118,27.265856941666666,18,0.09523809999999955,40,0.09651818333333395
6119,27.362375125,19,0.09651818333333395,41,0.09703860833333167
6120,27.45941373333333,18,0.09703860833333167,42,0.09836065000000005
6121,27.55777438333333,19,0.09836065000000005,42,0.09918032500000251
6122,27.656954708333334,18,0.09918032500000251,43,0.09999999999999787
6123,27.690288041666665,36,0.03333333333333144,33,0.7953699166666652
6124,27.756954708333332,19,0.06666666666666643,43,0.20718115000000026
6125,27.856954708333333,18,0.10000000000000142,43,0.21436230000000123
6126,27.964135858333332,16,0.10718114999999884,44,0.10718115000000239
6127,28.035589958333333,38,0.07145410000000041,46,0.45006799999999814
6128,28.071317008333335,18,0.03572705000000198,44,0.12574064999999734
6129,28.197057658333332,19,0.12574064999999734,43,0.1443001499999994
6130,28.34135780833333,21,0.1443001499999994,51,0.1443001499999994
6131,28.48565795833333,38,0.1443001499999994,41,1.875
6132,29.11065795833333,26,0.625,25,0.625
6133,29.73565795833333,35,0.625,25,0.625
6134,30.36065795833333,38,0.625,44,1.7910450000000004
6135,30.95767295833333,26,0.597014999999999,27,0.5970150000000025
6136,31.554687958333332,33,0.5970150000000025,27,0.597014999999999
6137,31.85319545833333,38,0.2985074999999995,47,0.2985074999999995
6138,32.15170295833333,38,0.2985074999999995,47,1.6666669999999968
6139,32.707258624999994,26,0.5555556666666632,28,0.5555556666666703
6140,33.262814291666665,34,0.5555556666666703,27,0.5555556666666632
6141,33.81836995833333,38,0.5555556666666632,51,1.5000002499999994
6142,34.389798625,26,0.5714286666666695,30,0.5714286666666624
6143,34.96122729166666,34,0.5714286666666624,30,0.5714286666666695
6144,35.24694162499999,38,0.2857143333333312,61,0.2857143333333383
6145,35.31837020833333,20,0.07142858333333635,52,0.21428575000000194
6146,35.53265595833333,39,0.21428575000000194,62,1.7142860000000013
6147,36.10408462499999,27,0.5714286666666624,40,0.5714286666666695
6148,36.67551329166666,34,0.5714286666666695,40,0.5714286666666695
6149,37.24694195833333,41,0.5714286666666695,66,1.7142859999999942
6150,37.81837062499999,29,0.5714286666666624,43,0.5714286666666695
6151,38.38979929166666,37,0.5714286666666695,43,0.5714286666666624
6152,38.961227958333325,43,0.5714286666666624,72,1.6438360000000003
6153,39.509173291666656,31,0.5479453333333311,46,0.5479453333333382
6154,40.057118624999994,37,0.5479453333333382,48,0.5479453333333311
6155,40.605063958333325,43,0.5479453333333311,76,1.4583336250000016
6156,41.16061962499999,31,0.5555556666666632,52,0.5555556666666703
6157,41.71617529166666,39,0.5555556666666703,50,0.5555556666666632
6158,41.99395312499999,43,0.2777778333333316,80,0.2777778333333316
6159,42.06339758333333,26,0.06944445833333646,52,0.20833337499999516
6160,42.27173095833332,43,0.20833337499999516,83,1.739130000000003
6161,42.85144095833332,31,0.5797099999999986,58,0.5797099999999986
6162,43.43115095833332,40,0.5797099999999986,53,0.5797100000000057
6163,44.010860958333325,43,0.5797100000000057,86,1.4383564999999976
6164,44.558806291666656,31,0.5479453333333311,58,0.5479453333333382
6165,45.106751624999994,40,0.5479453333333382,54,0.5479453333333311
6166,45.38072429166666,43,0.27397266666666553,87,0.27397266666666553
6167,45.44921745833332,22,0.06849316666666283,56,0.2054795000000027
6168,45.654696958333325,44,0.2054795000000027,89,1.6438360000000003
6169,46.202642291666656,32,0.5479453333333311,59,0.5479453333333382
6170,46.750587624999994,40,0.5479453333333382,55,0.5479453333333311
6171,47.298532958333325,46,0.5479453333333311,91,1.788018666666666
6172,47.869961624999995,34,0.5714286666666695,61,0.5714286666666624
6173,48.44139029166666,40,0.5714286666666624,56,0.6451613333333341
6174,49.08655162499999,47,0.6451613333333341,96,3.519668000000003
6175,49.66626162499999,30,0.5797099999999986,62,0.5797099999999986
6176,50.24597162499999,42,0.5797099999999986,91,0.6211180000000027
6177,50.86708962499999,42,0.6211180000000027,88,1.449275
6178,51.44679962499999,30,0.5797099999999986,57,0.5797099999999986
6179,52.02650962499999,37,0.5797099999999986,57,0.5797100000000057
6180,52.31636462499999,40,0.28985500000000286,78,0.28985500000000286
6181,52.606219624999994,39,0.28985500000000286,75,1.7391299999999958
6182,53.18592962499999,30,0.5797099999999986,45,0.5797099999999986
6183,53.76563962499999,35,0.5797099999999986,45,0.5797099999999986
6184,54.055494624999994,38,0.28985500000000286,71,0.28985499999999575
6185,54.34534962499999,38,0.28985499999999575,69,2.378488516666664
6186,55.01487105833332,26,0.6695214333333297,39,0.7692306666666653
6187,55.784101724999985,36,0.7692306666666653,39,0.9397364166666691
6188,56.23340164166665,38,0.4492999166666678,44,0.4904365000000013
6189,56.723838141666654,38,0.4904365000000013,36,1.8369226166666692
6190,57.34863942499999,26,0.6248012833333334,21,0.6060606666666715
6191,57.95470009166666,35,0.6060606666666715,22,0.6060606666666644
6192,58.56076075833332,38,0.6060606666666644,39,1.8181820000000002
6193,59.16682142499999,26,0.6060606666666644,24,0.6060606666666715
6194,59.77288209166666,33,0.6060606666666715,24,0.6060606666666644
6195,60.15167000833332,38,0.3787879166666599,40,0.22727275000000446
6196,60.378942758333324,38,0.22727275000000446,42,1.739130000000003
6197,60.95865275833332,26,0.5797099999999986,25,0.5797099999999986
6198,61.53836275833332,35,0.5797099999999986,25,0.5797100000000057
6199,62.11807275833333,39,0.5797100000000057,45,1.8181820000000002
6200,62.72413342499999,27,0.6060606666666644,31,0.6060606666666715
6201,63.33019409166666,36,0.6060606666666715,31,0.6060606666666644
6202,63.70898200833333,24,0.378787916666667,39,0.22727274999999736
6203,63.93625475833333,39,0.22727274999999736,49,1.8181820000000002
6204,64.542315425,27,0.6060606666666715,27,0.6060606666666644
6205,65.14837609166666,36,0.6060606666666644,28,0.6060606666666644
6206,65.75443675833333,39,0.6060606666666644,42,1.818181999999993
6207,66.36049742499999,27,0.6060606666666644,24,0.6060606666666644
6208,66.96655809166666,34,0.6060606666666644,25,0.6060606666666644
6209,67.34534600833332,39,0.378787916666667,45,0.22727274999999736
6210,67.57261875833332,39,0.22727274999999736,46,1.739130000000003
6211,68.15232875833333,27,0.5797100000000057,28,0.5797099999999915
6212,68.73203875833332,36,0.5797099999999915,30,0.5797100000000057
6213,69.31174875833332,41,0.5797100000000057,62,1.5671643750000044
6214,69.90876375833332,29,0.597014999999999,39,0.597014999999999
6215,70.50577875833332,37,0.597014999999999,36,0.597014999999999
6216,70.80428625833332,41,0.2985074999999995,70,0.2985074999999995
6217,70.87891313333333,25,0.07462687500000698,55,0.2238806249999925
6218,71.10279375833332,41,0.2238806249999925,61,1.791044999999997
6219,71.69980875833332,29,0.597014999999999,46,0.597014999999999
6220,72.29682375833332,37,0.597014999999999,51,0.597014999999999
6221,72.89383875833332,41,0.597014999999999,74,1.791045000000011
6222,73.49085375833333,29,0.5970150000000132,55,0.597014999999999
6223,74.08786875833333,33,0.597014999999999,52,0.597014999999999
6224,74.46100313333332,41,0.37313437499999225,73,0.22388062500000672
6225,74.68488375833333,41,0.22388062500000672,73,1.8801157166666655
6226,75.28189875833333,29,0.597014999999999,55,0.6379393833333324
6227,75.91983814166666,38,0.6379393833333324,55,0.6451613333333341
6228,76.564999475,42,0.6451613333333341,84,1.777085850000006
6229,77.230590875,30,0.6655914000000109,64,0.6804598666666664
6230,77.91105074166667,38,0.6804598666666664,59,0.6896553333333344
6231,78.342085325,43,0.43103458333332867,82,0.25862075000000573
6232,78.4713957,7,0.12931037500000286,67,4.300588749999989
6233,78.600706075,43,0.12931037500000286,89,10.480754524999995
6234,79.24586740833334,31,0.6451613333333341,66,0.6451613333333341
6235,79.89102874166667,38,0.6451613333333341,59,0.6451613333333341
6236,80.53619007500001,43,0.6451613333333341,88,8.545270524999992
6237,81.25047574166668,31,0.7142856666666688,67,0.7142856666666688
6238,81.96476140833335,38,0.7142856666666688,57,7.116699191666655
6239,82.396796825,43,0.43203541666665046,87,0.37518762499999525
6240,82.77198444999999,43,0.37518762499999525,94,6.309476150000009
6241,0.0,40,0.0,77,0.494537125
6242,0.083333375,52,0.083333375,53,0.08302637500000003
6243,0.11111116666666668,28,0.027777791666666676,37,0.11034541666666667
6244,0.16635975000000003,47,0.05524858333333335,61,0.082569375
6245,0.22145658333333335,33,0.05509683333333332,39,0.10974004166666668
6246,0.24892912500000003,50,0.027472541666666683,51,0.0822675
6247,0.331196625,48,0.0822675,55,0.32506674999999996
6248,0.413015375,45,0.08181875,46,0.08152175
6249,0.494537125,41,0.08152175,59,0.16172624999999996
6250,0.57561825,53,0.08108112499999998,48,0.08064512499999998
6251,0.656263375,40,0.08064512499999998,73,0.476218625
6252,0.73647725,52,0.08021387499999999,50,0.07992945833333331
6253,0.7632152083333333,28,0.026737958333333367,40,0.10624229166666666
6254,0.8164067083333333,47,0.05319149999999995,63,0.07950583333333339
6255,0.8694575,33,0.05305079166666671,44,0.10568091666666668
6256,0.8959125416666667,50,0.02645504166666668,53,0.079225875
6257,0.9751384166666667,48,0.079225875,57,0.31318883333333336
6258,1.053948,47,0.07880958333333343,44,0.07853399999999988
6259,1.132482,45,0.07853399999999988,74,0.15584525000000005
6260,1.210607,57,0.078125,53,0.07772025000000005
6261,1.28832725,45,0.07772025000000005,89,0.46486491666666674
6262,1.365250375,57,0.07692312499999998,53,0.07705529166666669
6263,1.3908914166666666,35,0.025641041666666586,49,0.10296066666666692
6264,1.4423056666666667,49,0.051414250000000106,64,0.07731962500000011
6265,1.4938520833333335,38,0.05154641666666682,52,0.10335991666666655
6266,1.5196252916666668,52,0.025773208333333297,52,0.07758670833333325
6267,1.597212,50,0.07758670833333325,58,0.3131874166666666
6268,1.6750671666666668,47,0.0778551666666667,46,0.078125
6269,1.7531921666666668,44,0.078125,62,0.1572072499999999
6270,1.8315898333333334,56,0.07839766666666659,50,0.07880958333333332
6271,1.9103994166666667,48,0.07880958333333332,82,0.4808979999999996
6272,1.9894860416666666,60,0.07908662499999997,45,0.07950583333333294
6273,2.0159410833333333,32,0.02645504166666668,42,0.10624229166666632
6274,2.0689918749999996,51,0.053050791666666264,60,0.07992945833333343
6275,2.1221833749999996,38,0.05319150000000006,50,0.10709558333333336
6276,2.148921333333333,53,0.026737958333333367,45,0.08035762499999999
6277,2.229278958333333,52,0.08035762499999999,52,0.3249292916666664
6278,2.3100694166666664,50,0.08079045833333343,44,0.08122799999999986
6279,2.3912974166666663,47,0.08122799999999986,52,0.16291083333333312
6280,2.4729676666666665,59,0.08167025000000017,48,0.08124058333333295
6281,2.5542082499999994,40,0.08124058333333295,80,0.47619950000000033
6282,2.6339954999999997,52,0.07978725000000031,56,0.07978724999999987
6283,2.6605912499999995,28,0.026595749999999807,39,0.10610158333333342
6284,2.7137827499999996,47,0.05319150000000006,65,0.07936512499999981
6285,2.766692833333333,33,0.05291008333333336,48,0.10582016666666672
6286,2.7931478749999994,50,0.026455041666666457,44,0.07936512500000026
6287,2.8725129999999996,48,0.07936512500000026,56,0.3149627500000003
6288,2.9514603749999995,45,0.07894737499999982,45,0.07894737500000026
6289,3.0304077499999997,41,0.07894737500000026,52,0.1570680000000002
6290,3.1089417499999996,53,0.07853399999999988,48,0.07853400000000033
6291,3.18747575,40,0.07853400000000033,75,0.4663297499999999
6292,3.26560075,52,0.078125,53,0.078125
6293,3.2916424166666665,28,0.02604166666666652,38,0.10389683333333366
6294,3.34372575,47,0.05208333333333348,65,0.07772025000000005
6295,3.39553925,33,0.05181350000000018,46,0.10362699999999991
6296,3.421446,50,0.025906749999999867,52,0.07772025000000005
6297,3.49916625,48,0.07772025000000005,59,0.30848549999999975
6298,3.576485875,47,0.07731962499999989,52,0.07731962499999989
6299,3.6538055,45,0.07731962499999989,73,0.15384624999999996
6300,3.730728625,57,0.07692312499999998,52,0.07692312499999998
6301,3.80765175,45,0.07692312499999998,83,0.45984858333333367
6302,3.884052875,57,0.07640112500000029,60,0.07614212499999962
6303,3.909433583333333,35,0.025380708333333057,45,0.10165233333333346
6304,3.9601949999999997,49,0.05076141666666656,69,0.07640112500000029
6305,4.011085916666667,38,0.0508909166666669,51,0.102171666666667
6306,4.036596125,52,0.025510208333333395,48,0.0766614583333336
6307,4.113257583333334,50,0.0766614583333336,62,0.30968462500000005
6308,4.190180708333333,47,0.07692312499999954,46,0.07731962500000034
6309,4.2675003333333335,44,0.07731962500000034,73,0.15544187500000017
6310,4.345087041666666,56,0.07758670833333259,55,0.07785516666666759
6311,4.422942208333334,48,0.07785516666666759,83,0.47370758333333374
6312,4.501067208333334,60,0.078125,55,0.07853400000000033
6313,4.527245208333333,32,0.026177999999999813,41,0.10484979166666708
6314,4.579601208333334,51,0.05235600000000051,65,0.07880958333333332
6315,4.6320950000000005,38,0.05249379166666657,44,0.10540241666666716
6316,4.658410791666667,53,0.026315791666666755,53,0.07908662500000041
6317,4.737497416666668,52,0.07908662500000041,60,0.31795249999999964
6318,4.8168625416666675,50,0.07936512499999981,46,0.07978724999999987
6319,4.896649791666667,47,0.07978724999999987,55,0.15880012499999996
6320,4.976721458333334,59,0.08007166666666699,52,0.07872845833333297
6321,5.055449916666667,52,0.07872845833333297,83,0.4564900000000005
6322,5.131918166666667,64,0.07646824999999957,55,0.07646825000000046
6323,5.157407583333334,42,0.02548941666666682,46,0.101699083333334
6324,5.208386416666667,59,0.05097883333333364,63,0.07608037500000009
6325,5.259106666666668,45,0.050720250000000355,55,0.10144049999999982
6326,5.284466791666667,62,0.025360124999999734,53,0.07608037500000009
6327,5.3605471666666675,60,0.07608037500000009,62,0.30202550000000006
6328,5.436243541666667,57,0.0756963749999997,53,0.07569637500000059
6329,5.511939916666668,54,0.07569637500000059,62,0.15063274999999976
6330,5.587256291666668,66,0.07531637499999988,57,0.07531637499999988
6331,5.662572666666668,52,0.07531637499999988,80,0.4474122500000002
6332,5.737512666666667,64,0.07493999999999978,51,0.07493999999999978
6333,5.762492666666668,42,0.024980000000000224,50,0.0996716666666666
6334,5.812452666666667,56,0.04995999999999956,60,0.07456749999999968
6335,5.862164333333334,45,0.04971166666666704,57,0.0994233333333332
6336,5.887020166666667,59,0.024855833333332633,52,0.07456750000000056
6337,5.961587666666667,57,0.07456750000000056,59,0.2960640000000003
6338,6.035786291666668,53,0.07419862500000018,48,0.07419862500000018
6339,6.109984916666668,51,0.07419862500000018,60,0.14766674999999996
6340,6.183818291666668,63,0.07383337500000042,55,0.07383337499999953
6341,6.257651666666668,50,0.07383337499999953,77,0.4439665833333333
6342,6.330922750000002,62,0.0732710833333341,46,0.07340983333333284
6343,6.3553130000000015,40,0.024390249999999725,49,0.09815991666666601
6344,6.404332583333335,57,0.04901958333333312,60,0.07377087500000012
6345,6.453472916666668,43,0.0491403333333329,57,0.09876600000000035
6346,6.478103458333335,60,0.024630541666667227,47,0.07413545833333313
6347,6.552238916666668,58,0.07413545833333313,56,0.3005138333333326
6348,6.626742625000001,55,0.07450370833333331,47,0.07487562499999978
6349,6.701618250000001,52,0.07487562499999978,57,0.1511344999999995
6350,6.776995125000001,64,0.0753768749999999,55,0.0757576249999996
6351,6.8527527500000005,50,0.0757576249999996,73,0.46329770833333317
6352,6.928894875,62,0.07614212499999962,45,0.07653062500000019
6353,6.9544050833333335,40,0.025510208333333395,47,0.10230250000000041
6354,7.0054255,54,0.05102041666666679,51,0.07705529166666736
6355,7.056707583333334,43,0.05128208333333362,53,0.1032263750000002
6356,7.082480791666668,57,0.02577320833333374,45,0.07745316666666646
6357,7.159933958333334,55,0.07745316666666646,52,0.3133323333333342
6358,7.237789125000001,52,0.0778551666666667,47,0.07826133333333285
6359,7.316050458333334,49,0.07826133333333285,57,0.15721583333333466
6360,7.394722250000001,61,0.07867179166666727,50,0.0785440416666674
6361,7.473266291666668,48,0.0785440416666674,75,0.47957675000000055
6362,7.553053541666668,60,0.07978724999999987,51,0.07978724999999987
6363,7.5796492916666685,39,0.02659575000000025,49,0.10638300000000012
6364,7.632840791666668,53,0.053191499999999614,60,0.07978724999999987
6365,7.686032291666669,42,0.0531915000000005,55,0.10638300000000012
6366,7.712628041666668,56,0.026595749999999363,44,0.07978725000000075
6367,7.792415291666669,54,0.07978725000000075,51,0.3208554999999995
6368,7.872629166666669,51,0.0802138750000001,44,0.0802138750000001
6369,7.952843041666669,50,0.0802138750000001,59,0.16042774999999931
6370,8.033056916666668,62,0.08021387499999921,48,0.0802138750000001
6371,8.113270791666668,48,0.0802138750000001,73,0.48474275000000056
6372,8.193915916666668,60,0.0806451250000002,45,0.0806451250000002
6373,8.220797625000001,38,0.02688170833333281,48,0.10752683333333302
6374,8.274561041666669,52,0.053763416666667396,50,0.0806451250000002
6375,8.328324458333334,41,0.05376341666666562,52,0.10752683333333479
6376,8.355206166666669,55,0.026881708333334586,42,0.0806451250000002
6377,8.435851291666669,53,0.0806451250000002,48,0.32417916666666535
6378,8.51693241666667,50,0.08108112500000075,42,0.08108112499999898
6379,8.598013541666669,47,0.08108112499999898,59,0.16201691666666562
6380,8.67909466666667,59,0.08108112500000075,47,0.08093579166666487
6381,8.760030458333334,45,0.08093579166666487,74,0.507476041666667
6382,8.841113125000003,57,0.08108266666666886,42,0.08241925000000094
6383,8.86843554166667,35,0.027322416666667237,51,0.11080758333333307
6384,8.923532375000004,49,0.055096833333333706,48,0.08380062499999852
6385,8.979243125000004,38,0.055710749999999365,53,0.11331895833333228
6386,9.007333000000003,52,0.028089874999999154,42,0.08522908333333312
6387,9.092562083333336,29,0.08522908333333312,48,0.3562326250000005
6388,9.179269208333334,47,0.08670712499999844,38,0.08823729166666716
6389,9.267506500000001,44,0.08823729166666716,57,0.18128820833333492
6390,9.357329041666668,56,0.08982254166666692,45,0.091465666666668
6391,9.448794708333336,41,0.091465666666668,72,0.5869905000000006
6392,9.541964833333337,53,0.09317012500000033,37,0.09493924999999948
6393,9.573411375000003,28,0.03144654166666605,46,0.12780208333333398
6394,9.636904083333336,46,0.06349270833333343,47,0.0967769166666681
6395,9.701213458333337,32,0.06430937500000056,51,0.13115462500000064
6396,9.733681000000004,48,0.03246754166666754,37,0.09868708333333309
6397,9.832368083333337,47,0.09868708333333309,46,0.413274708333331
6398,9.933042250000003,44,0.10067416666666595,36,0.10274295833333369
6399,10.035785208333337,40,0.10274295833333369,63,0.20985758333333138
6400,10.140683708333336,52,0.10489849999999912,42,0.10495908333333226
6401,10.245642791666668,40,0.10495908333333226,84,0.4378713750000003
6402,10.319534416666668,52,0.0738916249999999,54,0.07352937499999967
6403,10.344044208333335,28,0.02450979166666656,44,0.09780008333333257
6404,10.393063791666668,47,0.04901958333333312,62,0.07317074999999917
6405,10.441844291666667,33,0.04878049999999945,50,0.09720575000000053
6406,10.466234541666667,50,0.024390249999999725,46,0.07281550000000081
6407,10.539050041666668,48,0.07281550000000081,53,0.2874363333333321
6408,10.611513791666669,45,0.07246375000000072,37,0.072000375
6409,10.683514166666669,41,0.072000375,63,0.14297220833333135
6410,10.755170625000002,53,0.071656458333333,40,0.07131574999999835
6411,10.826486375,40,0.07131574999999835,75,0.4205944999999982
6412,10.897464625000001,52,0.07097825000000135,46,0.07064399999999971
6413,10.921049541666667,28,0.023584916666665734,49,0.0940074166666669
6414,10.968108625000001,47,0.04705908333333397,57,0.07031283333333249
6415,11.015056958333334,33,0.046948333333332926,53,0.09324066666666653
6416,11.038421458333334,50,0.023364499999999566,38,0.06987616666666696
6417,11.108297625,48,0.06987616666666696,47,0.2763989166666647
6418,11.177849791666667,47,0.06955216666666608,38,0.06923108333333161
6419,11.247080874999998,45,0.06923108333333161,71,0.13761566666666702
6420,11.315993916666665,57,0.06891304166666679,46,0.06870262500000024
6421,11.384696541666665,45,0.06870262500000024,84,0.42544708333333503
6422,11.453821958333332,57,0.06912541666666705,55,0.06976850000000034
6423,11.476970125,35,0.02314816666666708,49,0.09356866666666619
6424,11.523590458333333,49,0.046620333333333264,64,0.07053325000000044
6425,11.570538791666666,38,0.046948333333332926,55,0.0947877916666684
6426,11.594123708333333,52,0.02358491666666751,44,0.07120287500000089
6427,11.665326583333334,50,0.07120287500000089,51,0.2926062499999986
6428,11.737326958333334,47,0.072000375,42,0.07281666666666631
6429,11.810143625,44,0.07281666666666631,59,0.1477892083333323
6430,11.883674208333334,56,0.07353058333333351,48,0.0742586249999988
6431,11.957932833333333,48,0.0742586249999988,77,0.463427375000002
6432,12.033058458333333,60,0.07512562500000008,49,0.07588579166666598
6433,12.058311,32,0.025252541666667128,39,0.10178449999999906
6434,12.108944249999999,51,0.05063324999999885,56,0.07679229166666701
6435,12.160095499999999,38,0.051151250000000203,48,0.10336266666666738
6436,12.185736541666666,53,0.02564104166666681,44,0.07772162500000057
6437,12.263458166666666,52,0.07772162500000057,48,0.3196345416666677
6438,12.341993625,50,0.07853545833333442,38,0.0793665833333339
6439,12.421360208333335,47,0.0793665833333339,56,0.1617324999999994
6440,12.501717833333334,59,0.08035762499999954,45,0.08137487499999985
6441,12.583092708333334,40,0.08137487499999985,81,0.42015058333333144
6442,12.652760541666668,52,0.06966783333333382,52,0.07075474999999898
6443,12.676345458333333,28,0.023584916666665734,40,0.09411816666666617
6444,12.723515291666667,47,0.047169833333333244,59,0.07042249999999939
6445,12.770463625,33,0.046948333333332926,50,0.09356766666666694
6446,12.793937791666666,50,0.023474166666666463,37,0.07009350000000047
6447,12.864031291666667,48,0.07009350000000047,53,0.2771437499999987
6448,12.933798791666666,45,0.06976749999999932,40,0.06944449999999946
6449,13.003243291666665,41,0.06944449999999946,58,0.1379317499999999
6450,13.072367666666665,53,0.06912437499999946,45,0.06880737500000045
6451,13.141175041666665,40,0.06880737500000045,75,0.4063447500000006
6452,13.209668166666665,52,0.06849312499999982,42,0.0681818750000005
6453,13.232395458333333,28,0.022727291666667426,40,0.09070341666666693
6454,13.277850041666666,47,0.045454583333333076,48,0.06787324999999989
6455,13.323098875,33,0.04524883333333385,48,0.09019204166666661
6456,13.345723291666665,50,0.022624416666666036,42,0.06756762500000058
6457,13.413290916666666,48,0.06756762500000058,48,0.26716966666666586
6458,13.480555541666666,47,0.06726462499999997,42,0.06696424999999984
6459,13.547519791666666,45,0.06696424999999984,71,0.13294079166666606
6460,13.614186416666666,60,0.06666662499999987,48,0.06627416666666619
6461,13.680460583333332,48,0.06627416666666619,85,0.4122067083333345
6462,13.746540708333331,60,0.06608012499999916,50,0.06696516666666774
6463,13.768762916666665,38,0.02222220833333388,42,0.09009466666666732
6464,13.813505874999999,52,0.04474295833333386,59,0.06818275000000007
6465,13.858857583333332,41,0.04535170833333346,49,0.09195645833333366
6466,13.881688624999999,55,0.022831041666666607,46,0.06912541666666705
6467,13.950814041666666,53,0.06912541666666705,51,0.28868587500000054
6468,14.021237625,50,0.07042358333333354,42,0.07142966666666695
6469,14.092667291666666,47,0.07142966666666695,58,0.14683262500000005
6470,14.165483958333333,59,0.07281666666666631,48,0.07401595833333374
6471,14.239499916666666,52,0.07401595833333374,83,0.4733329166666689
6472,14.314878083333333,64,0.07537816666666686,46,0.07666412500000064
6473,14.340258791666667,35,0.0253807083333335,44,0.10323183333333397
6474,14.391542208333334,54,0.051283416666667136,55,0.07812641666666664
6475,14.443490625,41,0.05194841666666683,50,0.10568679166666683
6476,14.469668625,57,0.026177999999999813,47,0.07950879166666702
6477,14.549177416666668,55,0.07950879166666702,55,0.33180949999999854
6478,14.630260083333335,53,0.08108266666666708,47,0.08257275000000064
6479,14.712832833333335,50,0.08257275000000064,66,0.16815408333333082
6480,14.79710425,62,0.08427141666666493,51,0.08388266666666588
6481,14.880986916666666,55,0.08388266666666588,79,0.435267416666667
6482,14.954157666666665,67,0.07317074999999917,56,0.07293391666666871
6483,14.978547916666667,45,0.0243902500000015,46,0.09708733333333264
6484,15.027091583333334,62,0.04854366666666721,62,0.07269824999999841
6485,15.07563525,48,0.04854366666666543,50,0.0966183333333337
6486,15.099789833333332,65,0.02415458333333298,47,0.07246375000000072
6487,15.172253583333333,63,0.07246375000000072,55,0.28708583333333415
6488,15.244368958333332,60,0.0721153749999992,47,0.0718853750000008
6489,15.316254333333333,57,0.0718853750000008,59,0.14308508333333414
6490,15.387910791666668,69,0.07165645833333478,51,0.07142862499999936
6491,15.459339416666667,55,0.07142862499999936,75,0.4229926666666657
6492,15.530429416666667,67,0.07108999999999988,51,0.07086649999999928
6493,15.554126083333333,45,0.023696666666666033,46,0.09433966666666649
6494,15.601295916666666,59,0.047169833333333244,57,0.07064399999999971
6495,15.64846575,48,0.047169833333333244,50,0.09389666666666585
6496,15.671939916666666,62,0.023474166666666463,44,0.07042249999999939
6497,15.742362416666666,60,0.07042249999999939,52,0.27896729166666745
6498,15.812455916666666,57,0.07009350000000047,46,0.06987616666666696
6499,15.882332083333333,54,0.06987616666666696,60,0.138997625
6500,15.951991916666666,66,0.0696598333333327,50,0.06933779166666731
6501,16.021329708333333,53,0.06933779166666731,75,0.4210149583333269
6502,16.090882833333332,65,0.06955312499999877,44,0.06976749999999754
6503,16.114138666666666,44,0.023255833333333698,46,0.09324066666666297
6504,16.16065033333333,58,0.04651166666666384,53,0.0700934999999987
6505,16.20737933333333,47,0.04672899999999913,51,0.09367733333333206
6506,16.230743833333328,61,0.023364499999999566,48,0.07031283333333249
6507,16.30105666666666,59,0.07031283333333249,50,0.2834691249999999
6508,16.37158991666666,56,0.07053325000000044,47,0.07075474999999898
6509,16.44234466666666,55,0.07075474999999898,55,0.14218112500000046
6510,16.51332291666666,67,0.07097824999999958,47,0.07120287500000089
6511,16.58452579166666,53,0.07120287500000089,73,0.4324767499999993
6512,16.655954416666663,65,0.07142862500000291,42,0.07177037499999983
6513,16.679877874999995,43,0.023923458333332093,45,0.0958088333333329
6514,16.727724791666663,57,0.04784691666666774,47,0.07200037499999823
6515,16.77568670833333,46,0.04796191666666516,51,0.09615383333333227
6516,16.79972516666666,60,0.024038458333333068,42,0.0721153749999992
6517,16.87184054166666,58,0.0721153749999992,47,0.29126666666666523
6518,16.94430429166666,55,0.07246375000000072,40,0.07269824999999841
6519,17.01700254166666,52,0.07269824999999841,55,0.1461046666666661
6520,17.089936458333327,64,0.07293391666666693,45,0.07317074999999917
6521,17.163107208333326,51,0.07317074999999917,76,0.45224583333333257
6522,17.236636583333325,63,0.07352937499999967,44,0.07427212500000024
6523,17.261146374999992,42,0.02450979166666656,46,0.10026741666666794
6524,17.310908708333326,56,0.049762333333333686,52,0.07575762499999783
6525,17.36141379166666,45,0.050505083333334255,51,0.1012664999999977
6526,17.386666333333324,59,0.025252541666663575,42,0.07601395833333413
6527,17.462680291666658,57,0.07601395833333413,48,0.30638950000000165
6528,17.538822416666658,54,0.0761421250000005,40,0.07653062500000019
6529,17.61535304166666,53,0.07653062500000019,55,0.15371675000000096
6530,17.692014499999992,65,0.0766614583333336,40,0.07705529166666736
6531,17.76906979166666,51,0.07705529166666736,73,0.47111387500000035
6532,17.846522958333328,63,0.07745316666666824,42,0.07785516666666581
6533,17.87242970833333,41,0.025906750000000756,45,0.1040317499999972
6534,17.924378124999993,55,0.051948416666665054,47,0.07826133333333374
6535,17.976461458333326,44,0.05208333333333215,49,0.10484979166666619
6536,18.002639458333327,58,0.02617800000000159,40,0.0786717916666646
6537,18.08131124999999,56,0.0786717916666646,47,0.3194454583333304
6538,18.160537124999994,53,0.07922587500000233,40,0.07964654166666563
6539,18.24018366666666,50,0.07964654166666563,55,0.16057304166666242
6540,18.320255333333325,62,0.08007166666666521,40,0.08050137499999721
6541,18.400756708333322,50,0.08050137499999721,73,0.5077996500000026
6542,18.482220683333324,62,0.08146397500000191,37,0.08290602499999977
6543,18.50969322499999,40,0.027472541666664796,42,0.11161323333333328
6544,18.565126708333324,54,0.055433483333334976,46,0.08458883333333134
6545,18.621306458333322,43,0.05617974999999831,49,0.1137669499999987
6546,18.649715541666655,57,0.02840908333333303,36,0.08535786666666567
6547,18.73507340833332,55,0.08535786666666567,45,0.34940625000000125
6548,18.821347108333324,52,0.08627370000000312,37,0.0872092500000008
6549,18.908556358333325,49,0.0872092500000008,53,0.17592329999999734
6550,18.99624440833332,61,0.08768804999999702,42,0.08823525000000032
6551,19.084479658333322,49,0.08823525000000032,67,0.5465975333333333
6552,19.172784941666656,61,0.08830528333333376,37,0.08928574999999839
6553,19.20254685833332,40,0.029761916666664945,40,0.11947796666666832
6554,19.262070691666654,54,0.05952383333333344,44,0.09007463333333376
6555,19.32202482499999,43,0.05995413333333488,47,0.12122023333333232
6556,19.352145324999988,57,0.030120499999998884,37,0.09109973333333343
6557,19.44324505833332,55,0.09109973333333343,44,0.3828301833333363
6558,19.536377791666656,52,0.09313273333333427,37,0.09469939999999966
6559,19.631077191666655,49,0.09469939999999966,58,0.19499805000000237
6560,19.727647316666655,61,0.09657012499999951,42,0.09842792500000286
6561,19.826075241666658,49,0.09842792500000286,81,0.3686042083333305
6562,19.88729974166666,62,0.06122450000000157,54,0.06122449999999802
6563,19.907707908333325,37,0.020408166666666006,40,0.08171629166666605
6564,19.948524241666657,55,0.04081633333333201,59,0.061391749999998524
6565,19.98942419999999,41,0.04089995833333404,49,0.08196716666666504
6566,20.009915991666656,58,0.020491791666664483,38,0.061475375000000554
6567,20.071391366666656,56,0.061475375000000554,54,0.24708499999999844
6568,20.13295107499999,53,0.06155970833333413,44,0.061728374999997726
6569,20.194679449999988,48,0.061728374999997726,58,0.12379691666666659
6570,20.256492866666655,60,0.0618134166666664,44,0.06198350000000019
6571,20.318476366666655,48,0.06198350000000019,78,0.3741390833333327
6572,20.380459866666655,60,0.06198350000000019,46,0.06224062500000116
6573,20.401206741666655,38,0.020746875000000387,41,0.082987499999998
6574,20.442700491666656,52,0.04149375000000077,56,0.06224062499999761
6575,20.484194241666653,41,0.04149374999999722,48,0.08324687500000039
6576,20.504941116666654,55,0.020746875000000387,37,0.0625
6577,20.567441116666654,53,0.0625,50,0.25087316666666837
6578,20.629941116666654,50,0.0625,44,0.06267433333333372
6579,20.692615449999987,47,0.06267433333333372,58,0.12569883333333465
6580,20.755376949999985,59,0.06276149999999703,44,0.06293733333333762
6581,20.818314283333322,47,0.06293733333333762,83,0.3799295416666624
6582,20.88133953333332,59,0.06302524999999903,38,0.0631138749999991
6583,20.90234794999999,34,0.02100841666666753,42,0.0842995416666632
6584,20.94445340833332,52,0.04210545833333157,50,0.06329112499999923
6585,20.986647491666652,38,0.04219408333333163,49,0.08447758333333155
6586,21.00774453333332,54,0.021097041666667593,38,0.06338054166666396
6587,21.071125074999983,53,0.06338054166666396,45,0.2547782500000011
6588,21.134684449999984,50,0.06355937500000053,40,0.06355937500000053
6589,21.198243824999984,46,0.06355937500000053,62,0.12765950000000004
6590,21.262073574999985,58,0.06382975000000002,46,0.06382975000000002
6591,21.325903324999985,46,0.06382975000000002,80,0.41999566666666865
6592,21.394219199999984,58,0.06831587499999969,42,0.07042249999999939
6593,21.41769336666665,34,0.023474166666666463,45,0.09389666666666585
6594,21.464641699999984,53,0.046948333333332926,46,0.07042249999999939
6595,21.511590033333317,39,0.046948333333332926,50,0.0938966666666694
6596,21.535064199999983,55,0.023474166666666463,42,0.07042250000000294
6597,21.605486699999986,54,0.07042250000000294,47,0.2789811666666644
6598,21.675909199999985,53,0.07042249999999939,46,0.06998979166666786
6599,21.745898991666653,51,0.06998979166666786,62,0.13856887499999715
6600,21.81502336666665,63,0.06912437499999768,46,0.06944449999999946
6601,21.88446786666665,51,0.06944449999999946,85,0.39492091666666695
6602,21.952060283333317,63,0.06759241666666682,53,0.06502920833333548
6603,21.973705324999987,39,0.021645041666669584,46,0.08686241666666561
6604,22.017089491666653,57,0.04338416666666589,61,0.06521737499999958
6605,22.060567741666652,42,0.04347824999999972,50,0.08724124999999816
6606,22.082306866666652,59,0.02173912499999986,42,0.0655021249999983
6607,22.14780899166665,58,0.0655021249999983,48,0.26403066666666675
6608,22.213502699999985,54,0.06569370833333465,44,0.06588608333333212
6609,22.279388783333317,50,0.06588608333333212,66,0.13245087499999997
6610,22.34546803333332,62,0.06607925000000137,48,0.0663716249999986
6611,22.411839658333317,50,0.0663716249999986,82,0.40241033333333576
6612,22.47821128333332,62,0.06637162500000215,51,0.06656829166666611
6613,22.500335158333318,40,0.02212387499999835,45,0.08898804166666707
6614,22.544779574999986,54,0.04444441666666776,62,0.06686504166666651
6615,22.589323199999985,43,0.04454362499999931,51,0.08948591666666772
6616,22.611644616666652,57,0.022321416666667204,45,0.06716450000000052
6617,22.678809116666653,55,0.06716450000000052,52,0.2723243750000002
6618,22.74637674166665,52,0.0675676249999988,45,0.06787325000000166
6619,22.814249991666653,49,0.06787325000000166,61,0.1368834999999997
6620,22.882535616666654,61,0.06828562500000146,50,0.06859787499999825
6621,22.951133491666653,49,0.06859787499999825,84,0.4188563750000007
6622,23.02004653333332,61,0.06891304166666856,46,0.06923108333333161
6623,23.043087991666653,36,0.023041458333331377,48,0.09259362500000279
6624,23.089277616666653,54,0.046189625000000234,55,0.06965983333333625
6625,23.135681616666655,40,0.046404000000002554,52,0.09324066666666653
6626,23.15893744999999,56,0.023255833333333698,48,0.06998483333333283
6627,23.228922283333322,55,0.06998483333333283,55,0.2837001249999993
6628,23.299235116666654,52,0.07031283333333249,47,0.07075474999999898
6629,23.369989866666653,48,0.07075474999999898,62,0.14263254166666783
6630,23.441079866666655,60,0.07109000000000165,51,0.07154254166666618
6631,23.51262240833332,48,0.07154254166666618,82,0.5231174166666683
6632,23.59714357499999,60,0.08452116666666853,47,0.08771924999999925
6633,23.62638332499999,36,0.029239749999998565,50,0.11695900000000137
6634,23.68486282499999,55,0.058479500000000684,59,0.08771924999999925
6635,23.74334232499999,41,0.058479500000000684,52,0.11695899999999781
6636,23.77258207499999,58,0.029239749999998565,50,0.08771924999999925
6637,23.860301324999988,56,0.08771924999999925,56,0.35087700000000055
6638,23.94802057499999,55,0.0877192500000028,48,0.08771924999999925
6639,24.03573982499999,53,0.08771924999999925,70,0.1754384999999985
6640,24.12345907499999,65,0.08771924999999925,52,0.08771924999999925
6641,24.211178324999988,53,0.08771924999999925,90,0.4512562499999966
6642,24.286555199999988,65,0.0753768749999999,58,0.0753768749999999
6643,24.31168082499999,36,0.02512562500000115,51,0.1005024999999975
6644,24.361932074999988,55,0.05025124999999875,68,0.07525124999999733
6645,24.412183324999987,42,0.05025124999999875,57,0.10000000000000142
6646,24.437183324999985,58,0.02499999999999858,47,0.07500000000000284
6647,24.512183324999988,56,0.07500000000000284,56,0.3010049999999964
6648,24.587183324999987,54,0.07499999999999929,47,0.07525124999999733
6649,24.662434574999985,51,0.07525124999999733,70,0.1507537499999998
6650,24.737811449999985,63,0.0753768749999999,55,0.0753768749999999
6651,24.813188324999985,51,0.0753768749999999,83,0.45608641666666827
6652,24.888945949999986,63,0.07575762500000138,55,0.07575762499999783
6653,24.91419849166665,32,0.025252541666663575,49,0.10101016666666851
6654,24.964703574999984,55,0.050505083333334255,66,0.07588579166666776
6655,25.015208658333318,37,0.050505083333334255,57,0.101522833333334
6656,25.04058936666665,58,0.0253807083333335,50,0.0761421250000005
6657,25.116731491666652,56,0.0761421250000005,56,0.30560450000000117
6658,25.192873616666652,53,0.0761421250000005,47,0.07640112500000029
6659,25.269274741666653,49,0.07640112500000029,66,0.15306125000000037
6660,25.345805366666653,61,0.07653062500000019,55,0.07653062500000019
6661,25.422335991666653,49,0.07653062500000019,93,0.4663672500000047
6662,25.498997449999987,61,0.0766614583333336,50,0.07705529166666736
6663,25.524638491666654,33,0.02564104166666681,51,0.10296066666666803
6664,25.576052741666654,52,0.05141425000000055,60,0.07745316666666824
6665,25.62759915833332,39,0.05154641666666748,58,0.10389683333333366
6666,25.653505908333322,54,0.025906750000000756,48,0.0779900833333329
6667,25.731495991666655,53,0.0779900833333329,57,0.31622037500000033
6668,25.809893658333323,51,0.07839766666666748,46,0.0788095833333351
6669,25.888703241666658,48,0.0788095833333351,70,0.15901312499999776
6670,25.967929116666657,60,0.07922587499999878,55,0.07978724999999898
6671,26.047716366666656,48,0.07978724999999898,88,0.4887410833333341
6672,26.127930241666654,60,0.08021387499999832,50,0.08079045833333254
6673,26.15481194999999,29,0.026881708333334586,50,0.10796283333333179
6674,26.208720699999986,52,0.05390874999999795,59,0.08122799999999941
6675,26.26277478333332,34,0.054054083333333836,56,0.10884416666666752
6676,26.289948699999986,54,0.027173916666665576,50,0.08167025000000194
6677,26.371618949999988,53,0.08167025000000194,60,0.32565895833333514
6678,26.45373632499999,50,0.08211737500000282,50,0.08272112499999906
6679,26.53645744999999,46,0.08272112499999906,72,0.16082045833333325
6680,26.61963732499999,58,0.08317987499999902,57,0.07764058333333423
6681,26.697277908333323,46,0.07764058333333423,93,0.3999997499999992
6682,26.763944533333323,58,0.06666662499999987,51,0.06666662499999987
6683,26.786166741666655,29,0.022222208333332105,56,0.08888883333333553
6684,26.830611158333323,48,0.04444441666666776,68,0.06666662499999987
6685,26.87505557499999,35,0.04444441666666776,63,0.08888883333333197
6686,26.897277783333323,51,0.022222208333332105,51,0.06666662499999987
6687,26.963944408333322,49,0.06666662499999987,60,0.2681409583333334
6688,27.030611033333322,47,0.06666662499999987,51,0.06666662499999987
6689,27.097277658333322,44,0.06666662499999987,77,0.13480770833333366
6690,27.163944283333322,56,0.06666662499999987,59,0.0681410833333338
6691,27.232085366666656,43,0.0681410833333338,90,0.42653999999999925
6692,27.303175366666657,55,0.07109000000000165,50,0.0710899999999981
6693,27.326872033333323,29,0.023696666666666033,58,0.09478666666666768
6694,27.374265366666656,48,0.047393333333332066,67,0.07109000000000165
6695,27.42165869999999,35,0.04739333333333562,63,0.09478666666666413
6696,27.445355366666657,51,0.023696666666666033,52,0.0710899999999981
6697,27.516445366666655,49,0.0710899999999981,61,0.2849351666666671
6698,27.587535366666657,47,0.07109000000000165,52,0.0710899999999981
6699,27.658625366666655,44,0.0710899999999981,78,0.14275516666666732
6700,27.729715366666657,56,0.07109000000000165,60,0.07166516666666567
6701,27.801380533333322,44,0.07166516666666567,97,0.43560512500000215
6702,27.872247033333323,56,0.07086650000000105,55,0.07154254166666618
6703,27.89605657499999,25,0.023809541666665268,58,0.09580991666666705
6704,27.94378957499999,48,0.047733000000000914,62,0.07223150000000089
6705,27.991866491666656,29,0.048076916666666136,64,0.09708850000000169
6706,28.01602107499999,50,0.024154583333334756,52,0.07293391666666693
6707,28.088954991666657,49,0.07293391666666693,63,0.2990420833333367
6708,28.162605116666658,47,0.07365012500000034,52,0.07438054166666674
6709,28.236985658333325,44,0.07438054166666674,78,0.15101141666666962
6710,28.312111283333326,56,0.07512562500000186,61,0.07588579166666776
6711,28.387997074999994,45,0.07588579166666776,93,0.4591837500000011
6712,28.464527699999994,57,0.07653062500000019,56,0.07653062500000019
6713,28.490037908333328,25,0.025510208333333395,60,0.10204083333333358
6714,28.541058324999995,53,0.05102041666666679,64,0.07653062500000019
6715,28.59207874166666,30,0.05102041666666679,63,0.10204083333333358
6716,28.617588949999995,56,0.025510208333333395,57,0.07653062500000019
6717,28.694119574999995,54,0.07653062500000019,64,0.3134890000000006
6718,28.770650199999995,49,0.07653062500000019,55,0.07653062500000019
6719,28.847180824999995,45,0.07653062500000019,77,0.1604277500000002
6720,28.927394699999994,57,0.08021387499999832,62,0.08021387500000188
6721,29.007608574999995,45,0.08021387500000188,99,0.4326922499999988
6722,29.079723949999995,57,0.0721153749999992,62,0.0721153749999992
6723,29.103762408333328,23,0.024038458333333068,56,0.09615383333333583
6724,29.151839324999994,46,0.048076916666666136,79,0.07211537500000276
6725,29.199916241666664,28,0.04807691666666969,64,0.09615383333333227
6726,29.223954699999997,49,0.024038458333333068,66,0.0721153749999992
6727,29.296070074999996,47,0.0721153749999992,73,0.28846150000000037
6728,29.368185449999995,45,0.0721153749999992,71,0.0721153749999992
6729,29.440300824999994,43,0.0721153749999992,78,0.14423075000000196
6730,29.512416199999997,55,0.07211537500000276,64,0.0721153749999992
6731,29.584531574999996,43,0.0721153749999992,93,0.4326922499999988
6732,29.656646949999995,55,0.0721153749999992,59,0.0721153749999992
6733,29.68068540833333,23,0.024038458333333068,63,0.09615383333333227
6734,29.728762324999995,46,0.048076916666666136,66,0.0721153749999992
6735,29.77683924166666,28,0.048076916666666136,66,0.09615383333333583
6736,29.800877699999994,49,0.024038458333333068,61,0.07211537500000276
6737,29.872993074999997,47,0.07211537500000276,70,0.28869374999999664
6738,29.945108449999996,43,0.0721153749999992,62,0.0721153749999992
6739,30.017223824999995,35,0.0721153749999992,78,0.14446299999999823
6740,30.089339199999994,47,0.0721153749999992,64,0.07234762499999903
6741,30.161686824999993,38,0.07234762499999903,94,0.4367815833333317
6742,30.234150574999994,50,0.07246375000000072,61,0.07246375000000072
6743,30.25830515833333,26,0.024154583333334756,63,0.09685283333333317
6744,30.306614324999995,44,0.04830916666666596,66,0.07281550000000081
6745,30.355157991666662,30,0.04854366666666721,66,0.09708733333333441
6746,30.379429824999995,47,0.024271833333333603,63,0.07281550000000081
6747,30.452245324999996,45,0.07281550000000081,71,0.2930427499999979
6748,30.525297658333326,42,0.0730523333333295,62,0.07317074999999917
6749,30.598468408333325,38,0.07317074999999917,73,0.14681966666666924
6750,30.671758699999994,50,0.07329029166666956,66,0.07352937499999967
6751,30.745288074999994,37,0.07352937499999967,92,0.44408599999999865
6752,30.818817449999994,49,0.07352937499999967,62,0.07389162500000168
6753,30.84344799166666,26,0.024630541666667227,63,0.09852216666666536
6754,30.892709074999996,44,0.049261083333334454,69,0.07389162499999813
6755,30.941970158333326,30,0.0492610833333309,69,0.09876600000000124
6756,30.966600699999994,47,0.024630541666667227,61,0.07413545833333401
6757,31.040736158333328,45,0.07413545833333401,71,0.2978916666666649
6758,31.114993533333326,42,0.0742573749999984,63,0.07438054166666674
6759,31.189374074999993,38,0.07438054166666674,72,0.14925374999999974
6760,31.264000949999993,50,0.07462687499999987,69,0.07462687499999987
6761,31.338627824999993,39,0.07462687499999987,96,0.45241495833333545
6762,31.413254699999992,51,0.07462687499999987,66,0.07487562500000067
6763,31.438130324999992,25,0.024875624999999957,65,0.10012562500000044
6764,31.488130324999993,44,0.05000000000000071,73,0.07525124999999733
6765,31.538255949999993,31,0.05012562499999973,72,0.10062941666666703
6766,31.56338157499999,47,0.025125624999997598,70,0.07550379166666943
6767,31.63888536666666,45,0.07550379166666943,78,0.30561116666666877
6768,31.714771158333328,43,0.07588579166666776,77,0.0762716250000004
6769,31.791042783333328,39,0.0762716250000004,78,0.1534537500000006
6770,31.867573408333328,51,0.07653062500000019,70,0.07692312500000043
6771,31.94449653333333,40,0.07692312500000043,92,0.46932383333333405
6772,32.02181615833333,52,0.07731962500000122,64,0.07772024999999871
6773,32.04772290833333,25,0.025906749999997203,63,0.10376191666667012
6774,32.09953640833333,44,0.05181350000000151,73,0.07799008333334001
6775,32.151484825,31,0.051948416666668606,72,0.10443933333333888
6776,32.17752649166667,47,0.026041666666671404,64,0.07839766666666748
6777,32.255924158333336,45,0.07839766666666748,72,0.31733150000000165
6778,32.33473374166666,43,0.07880958333332444,63,0.07908662500000219
6779,32.41382036666666,41,0.07908662500000219,84,0.15943529166667503
6780,32.4933262,53,0.07950583333333583,71,0.0799294583333392
6781,32.57325565833334,41,0.0799294583333392,96,0.5128706250000121
6782,32.654338325000005,53,0.08108266666666708,69,0.08272449999999765
6783,32.68166074166667,21,0.027322416666663685,65,0.11142491666666388
6784,32.737062825,44,0.05540208333333396,77,0.0844319166666665
6785,32.79308565833333,25,0.05602283333332991,72,0.11461787500000753
6786,32.82149474166667,47,0.028409083333336582,71,0.08620879166667095
6787,32.90770353333334,45,0.08620879166667095,77,0.3649834166666821
6788,32.99594082500001,43,0.08823729166667249,69,0.09018545833333746
6789,33.08612628333335,41,0.09018545833333746,82,0.18656066666667215
6790,33.17834482500002,53,0.09221854166666787,72,0.09434212500000427
6791,33.27268695000002,42,0.09434212500000427,98,0.5769232500000001
6792,33.36884082500002,54,0.09615387499999883,69,0.09615387499999883
6793,33.40089211666669,21,0.032051291666668646,64,0.12820516666666748
6794,33.46499470000002,49,0.06410258333333019,77,0.09615387499999883
6795,33.52909728333336,26,0.06410258333333729,70,0.12820516666666748
6796,33.56114857500002,52,0.03205129166666154,71,0.09615387500000594
6797,33.657302450000024,50,0.09615387500000594,77,0.37603837500000026
6798,33.75345632500002,45,0.09615387499999883,72,0.09615387499999883
6799,33.84961020000002,42,0.09615387499999883,80,0.1837306250000026
6800,33.94576407500002,54,0.09615387499999883,73,0.08757675000000376
6801,34.033340825000025,42,0.08757675000000376,103,0.41959099999999694
6802,34.103763325000024,54,0.07042249999999939,66,0.0702031666666656
6803,34.12723749166669,26,0.023474166666666463,66,0.09345799999999826
6804,34.17396649166669,47,0.04672899999999913,73,0.0700934999999987
6805,34.22069549166669,30,0.04672899999999913,73,0.0931319999999971
6806,34.24405999166669,52,0.023364499999999566,70,0.06976749999999754
6807,34.313827491666686,50,0.06976749999999754,77,0.277459791666665
6808,34.38348732500002,47,0.0696598333333327,66,0.06944450000000302
6809,34.45293182500002,42,0.06944450000000302,85,0.1383554583333293
6810,34.52216290833336,54,0.06923108333333516,70,0.06912437499999413
6811,34.59128728333335,41,0.06912437499999413,97,0.41034387500000236
6812,34.66009465833335,53,0.06880737499999867,66,0.06870262500000734
6813,34.68303045000002,26,0.022935791666668592,70,0.09142891666667197
6814,34.72879728333336,47,0.04576683333333875,75,0.06849312499999627
6815,34.77445936666669,30,0.045662083333333214,77,0.09111666666666451
6816,34.79729040833335,52,0.022831041666663054,71,0.06828562500000146
6817,34.865576033333355,50,0.06828562500000146,77,0.2713941250000005
6818,34.933757908333355,47,0.0681818750000005,71,0.06787324999999811
6819,35.00163115833335,42,0.06787324999999811,78,0.13533900000000187
6820,35.06940253333335,54,0.06777137499999952,72,0.06756762500000235
6821,35.136970158333355,44,0.06756762500000235,100,0.4106845416666616
6822,35.20453778333335,56,0.06756762499999525,72,0.06756762500000235
6823,35.22706032500002,32,0.02252254166666745,71,0.0900901666666698
6824,35.27210540833335,49,0.0450450833333349,80,0.06756762500000235
6825,35.31715049166669,37,0.0450450833333349,77,0.09029579166666934
6826,35.339673033333355,54,0.02252254166666745,70,0.0677732500000019
6827,35.40744628333336,53,0.0677732500000019,77,0.28681458333333154
6828,35.47678607500002,49,0.06933979166666404,71,0.07086862499999569
6829,35.54765470000002,44,0.07086862499999569,82,0.1466061666666718
6830,35.62012299166669,56,0.07246829166667368,75,0.07413787499999813
6831,35.69426086666669,45,0.07413787499999813,95,0.48539162499999833
6832,35.77014924166669,57,0.07588837499999812,69,0.07785795833333253
6833,35.79592245000002,32,0.02577320833333374,72,0.1049962916666658
6834,35.84800720000002,49,0.05208474999999879,73,0.07964950000000215
6835,35.900918741666686,37,0.052911541666667006,76,0.10855995833333054
6836,35.92765670000002,54,0.026737958333335143,66,0.0818219999999954
6837,36.00947870000002,53,0.0818219999999954,72,0.33583008333334163
6838,36.09343803333335,49,0.08395933333333261,66,0.08621445833333752
6839,36.17965249166669,44,0.08621445833333752,80,0.1656562916666715
6840,36.26823995000002,56,0.08858745833333614,71,0.07706883333333536
6841,36.34530878333336,42,0.07706883333333536,102,0.42056699999999836
6842,36.41573128333336,54,0.07042249999999939,71,0.07042249999999939
6843,36.439205450000024,26,0.023474166666666463,72,0.09367733333333206
6844,36.48615378333336,47,0.046948333333332926,80,0.0700934999999987
6845,36.532882783333356,30,0.04672899999999913,76,0.09345799999999826
6846,36.556247283333356,52,0.023364499999999566,64,0.0700934999999987
6847,36.626340783333355,20,0.0700934999999987,72,0.2784240000000011
6848,36.69610828333335,47,0.06976749999999754,63,0.06976750000000465
6849,36.76587578333336,42,0.06976750000000465,83,0.13888899999999893
6850,36.83532028333336,54,0.06944450000000302,70,0.06944449999999591
6851,36.904764783333356,41,0.06944449999999591,96,0.413270583333329
6852,36.97388915833336,53,0.06912437500000124,64,0.06912437500000124
6853,36.99693061666669,26,0.023041458333331377,68,0.09216583333333261
6854,37.04301353333336,47,0.04608291666666986,71,0.06901870833333135
6855,37.08909645000002,30,0.046082916666662754,73,0.09174316666666726
6856,37.11203224166669,52,0.022935791666668592,63,0.06880737499999867
6857,37.18083961666669,50,0.06880737499999867,71,0.2737669999999994
6858,37.24954224166669,47,0.06870262500000024,66,0.06849312499999627
6859,37.318035366666685,42,0.06849312499999627,84,0.13657125000000292
6860,37.38642474166669,54,0.06838937500000242,71,0.0681818750000005
6861,37.45460661666669,44,0.0681818750000005,97,0.41033837500000203
6862,37.522685616666685,56,0.06807899999999734,69,0.06787324999999811
6863,37.54531003333335,32,0.022624416666666036,71,0.09049766666667125
6864,37.59055886666668,49,0.04524883333333207,73,0.06777137500000663
6865,37.63580770000002,37,0.04524883333333918,77,0.08979070833333225
6866,37.65833024166669,54,0.02252254166666745,66,0.0672681666666648
6867,37.725598408333354,53,0.0672681666666648,75,0.2857182083333356
6868,37.79440965833336,49,0.0688112500000031,69,0.07053533333333206
6869,37.86494499166669,44,0.07053533333333206,79,0.14637162500000045
6870,37.93717874166669,56,0.07223375000000232,72,0.07413787499999813
6871,38.01131661666669,49,0.07413787499999813,93,0.4900092083333334
6872,38.08746399166669,61,0.07614737499999791,57,0.07813066666666657
6873,38.11323720000002,32,0.02577320833333374,66,0.10569116666666645
6874,38.165594658333355,55,0.05235745833333283,64,0.08036074999999698
6875,38.21892836666669,37,0.05333370833333362,72,0.10959979166666045
6876,38.24595540833335,57,0.027027041666663365,60,0.08257274999999709
6877,38.32852815833335,25,0.08257274999999709,66,0.35576050000000947
6878,38.41359853333335,53,0.08507037500000081,52,0.08772729166667403
6879,38.50132582500002,49,0.08772729166667403,81,0.18296283333333463
6880,38.591696033333356,61,0.09037020833333287,45,0.09259262500000176
6881,38.68428865833336,42,0.09259262500000176,80,0.4483867500000045
6882,38.75928865833336,54,0.07500000000000284,38,0.07499999999999574
6883,38.78428865833336,26,0.02499999999999858,48,0.10000000000000142
6884,38.83428865833336,47,0.04999999999999716,47,0.07487562500000422
6885,38.88428865833336,30,0.05000000000000426,55,0.09950249999999983
6886,38.90916428333336,52,0.024875624999999957,40,0.07462687499999987
6887,38.98379115833336,50,0.07462687499999987,47,0.29715516666666986
6888,39.05841803333336,47,0.07462687499999987,40,0.07425737500000196
6889,39.13267540833336,42,0.07425737500000196,62,0.14827091666666803
6890,39.20693278333336,54,0.07425737499999485,44,0.07401354166667318
6891,39.28094632500003,41,0.07401354166667318,77,0.4410627499999933
6892,39.35483795000003,53,0.07389162500000168,40,0.07377087499999391
6893,39.3794684916667,26,0.024630541666667227,48,0.0981599166666598
6894,39.428608825000026,47,0.04914033333332668,48,0.07352937499999967
6895,39.47762840833336,30,0.04901958333333312,53,0.09803916666666623
6896,39.502138200000026,52,0.02450979166666656,40,0.07352937499999967
6897,39.575667575000026,50,0.07352937499999967,46,0.2922093333333322
6898,39.64883832500003,47,0.07317075000000273,37,0.07317074999999562
6899,39.722009075000024,42,0.07317074999999562,64,0.14586783333333386
6900,39.79506140833335,54,0.0730523333333295,44,0.07281550000000436
6901,39.86787690833336,44,0.07281550000000436,81,0.4340902500000041
6902,39.940692408333355,56,0.07281549999999726,38,0.07246374999999716
6903,39.96484699166669,32,0.024154583333334756,44,0.09661833333333192
6904,40.01315615833335,49,0.048309166666662406,45,0.07246375000000427
6905,40.06146532500002,37,0.04830916666666951,52,0.09638608333333565
6906,40.085619908333356,54,0.024154583333334756,38,0.07223150000000089
6907,40.15785140833336,53,0.07223150000000089,47,0.2875425833333338
6908,40.22996678333336,49,0.07211537500000276,38,0.07200037500000178
6909,40.30196715833336,44,0.07200037500000178,67,0.14342683333332928
6910,40.37373753333336,56,0.07177037499999983,44,0.07165645833332945
6911,40.44539399166669,45,0.07165645833332945,85,0.44155604166667217
6912,40.51716545000003,57,0.07177145833333753,38,0.07246487499999432
6913,40.54120390833336,32,0.024038458333329515,48,0.09708850000000524
6914,40.58963032500002,49,0.04842641666666481,47,0.07317187500000699
6915,40.63829240833336,37,0.04866208333334043,53,0.09840258333333196
6916,40.66280220000003,54,0.02450979166666656,38,0.0738927916666654
6917,40.736694991666695,53,0.0738927916666654,46,0.3035819583333321
6918,40.811446241666694,49,0.07475124999999849,38,0.07550379166666943
6919,40.88695003333336,44,0.07550379166666943,62,0.1533269166666642
6920,40.96322165833336,56,0.07627162499999685,44,0.07705529166666736
6921,41.04027695000003,42,0.07705529166666736,81,0.4415574166666687
6922,41.11453432500003,54,0.07425737500000196,40,0.07401354166666607
6923,41.13928678333336,26,0.024752458333331617,49,0.09852216666666891
6924,41.188547866666696,47,0.049261083333334454,46,0.07377087500000101
6925,41.23780895000003,30,0.049261083333334454,52,0.09803916666666623
6926,41.2623187416667,52,0.02450979166666656,40,0.07352937499999967
6927,41.335848116666696,50,0.07352937499999967,47,0.2909148750000057
6928,41.4090188666667,47,0.07317075000000273,40,0.07281549999999726
6929,41.481834366666696,42,0.07281549999999726,66,0.1449286250000057
6930,41.5544153666667,54,0.07258100000000667,46,0.07234762499999903
6931,41.6267629916667,41,0.07234762499999903,78,0.4279127500000044
6932,41.698763366666704,53,0.07200037500000178,40,0.07177037499999983
6933,41.72268682500003,26,0.02392345833332854,47,0.09546600000000183
6934,41.7705337416667,47,0.04784691666667129,46,0.07142862500000291
6935,41.818152825000034,30,0.047619083333330536,53,0.09501241666666971
6936,41.841962366666706,52,0.023809541666672374,40,0.07120287499999733
6937,41.913165241666704,50,0.07120287499999733,48,0.2820265000000006
6938,41.984031741666705,47,0.07086650000000105,40,0.07064400000000148
6939,42.054675741666706,42,0.07064400000000148,66,0.1405159999999981
6940,42.125098241666706,54,0.07042249999999939,47,0.0700934999999987
6941,42.195191741666704,44,0.0700934999999987,84,0.45698145833332404
6942,42.26528932500003,56,0.07009758333332883,44,0.07223825000000517
6943,42.2890988666667,32,0.023809541666665268,53,0.09793487500000708
6944,42.33752757500004,49,0.0484287083333399,48,0.07463179166666833
6945,42.387033741666706,37,0.049506166666667184,58,0.10232120833332914
6946,42.41215936666671,54,0.02512562500000115,45,0.07719558333332799
6947,42.489354950000035,53,0.07719558333332799,50,0.33780779166666264
6948,42.569293533333365,49,0.07993858333333037,45,0.08287966666666335
6949,42.65217320000003,44,0.08287966666666335,67,0.1749895416666689
6950,42.738227158333366,56,0.08605395833333773,48,0.08893558333333118
6951,42.8271627416667,44,0.08893558333333118,86,0.5921055000000024
6952,42.925846991666695,56,0.09868424999999803,44,0.09868425000000514
6953,42.9587417416667,28,0.03289475000000408,53,0.131578999999995
6954,43.0245312416667,51,0.06578950000000106,51,0.09868424999999803
6955,43.090320741666694,32,0.06578949999999395,62,0.1315790000000021
6956,43.1232154916667,53,0.03289475000000408,45,0.09868424999999803
6957,43.2218997416667,23,0.09868424999999803,55,0.3869982500000049
6958,43.320583991666695,50,0.09868424999999803,45,0.09868425000000514
6959,43.4192682416667,40,0.09868425000000514,77,0.1896297500000017
6960,43.51611365833337,52,0.09684541666666746,46,0.09278433333333425
6961,43.6088979916667,40,0.09278433333333425,92,0.5140390833333299
6962,43.6961072416667,52,0.0872092500000008,47,0.0865391250000016
6963,43.725008991666705,28,0.028901750000002835,55,0.11510862499999774
6964,43.782646366666704,47,0.05763737499999877,57,0.08604266666666405
6965,43.8401176166667,33,0.057471249999998975,59,0.1139609999999962
6966,43.86868903333337,50,0.028571416666665073,50,0.08538958333333113
6967,43.9540786166667,48,0.08538958333333113,59,0.3353733750000032
6968,44.0388243666667,45,0.08474575000000328,50,0.08411270833332907
6969,44.12293707500003,41,0.08411270833332907,71,0.16651491666667084
6970,44.2064256166667,53,0.08348854166666797,55,0.08302637500000287
6971,44.2894519916667,40,0.08302637500000287,83,0.4855368749999869
6972,44.3717194916667,52,0.08226750000000038,47,0.0818187500000036
6973,44.39904190833337,28,0.02732241666667079,55,0.1086972916666582
6974,44.453538241666706,47,0.054496333333332814,56,0.08122799999999586
6975,44.50773920000003,33,0.05420095833332539,61,0.10767216666666712
6976,44.5347662416667,50,0.02702704166667047,48,0.08064512499999665
6977,44.6154113666667,48,0.08064512499999665,57,0.31692687499999295
6978,44.69548303333336,47,0.08007166666666166,47,0.07950583333332872
6979,44.77498886666669,45,0.07950583333332872,75,0.15734937500000257
6980,44.85407549166669,57,0.07908662500000219,56,0.07826275000000038
6981,44.93233824166669,45,0.07826275000000038,93,0.4691675416666712
6982,45.0100584916667,57,0.07772025000000582,48,0.0778551666666587
6983,45.035965241666695,35,0.025906749999997203,59,0.1040317499999972
6984,45.087913658333356,49,0.0519484166666615,60,0.078125
6985,45.13999699166669,38,0.0520833333333357,64,0.10430300000000159
6986,45.166038658333356,52,0.026041666666664298,48,0.07826133333333729
6987,45.24429999166669,50,0.07826133333333729,61,0.31523979166666294
6988,45.32283399166669,47,0.07853399999999766,51,0.07867179166667171
6989,45.40150578333336,44,0.07867179166667171,70,0.15803399999999357
6990,45.48045315833336,56,0.07894737499999849,59,0.07908662499999508
6991,45.559539783333356,48,0.07908662499999508,84,0.4791591666666619
6992,45.63890490833336,60,0.07936512500000248,51,0.07950583333332872
6993,45.665359950000024,32,0.026455041666665124,59,0.10624229166666765
6994,45.71841074166669,51,0.0530507916666636,63,0.07978725000000253
6995,45.77160224166669,38,0.053191500000004055,66,0.10652520833333057
6996,45.79819799166669,53,0.026595749999998475,55,0.07992945833333209
6997,45.87812745000002,52,0.07992945833333209,63,0.3193702916666652
6998,45.95834132500002,50,0.08021387499999832,60,0.08035762499999777
6999,46.03869895000002,47,0.08035762499999777,67,0.1587987916666691
7000,46.119344075000015,59,0.08064512499999665,60,0.07815366666667245
7001,46.19749774166669,40,0.07815366666667245,93,0.4322743333333321
7002,46.27055007500002,52,0.0730523333333295,52,0.07269825000000196
7003,46.294821908333354,28,0.024271833333337156,60,0.09661945833333618
7004,46.34324832500002,47,0.04842641666666481,60,0.07223150000000089
7005,46.39144136666669,33,0.04819304166667138,68,0.09592383333333032
7006,46.41547982500002,50,0.024038458333329515,51,0.0718853750000008
7007,46.48736520000002,48,0.0718853750000008,61,0.283254041666666
7008,46.55879382500002,45,0.07142862500000291,51,0.07097824999999602
7009,46.62977207500002,41,0.07097824999999602,70,0.14084716666666708
7010,46.70041607500002,53,0.07064400000000148,60,0.0702031666666656
7011,46.77061924166669,40,0.0702031666666656,86,0.4133037500000043
7012,46.840495408333354,52,0.06987616666666696,55,0.06944450000000302
7013,46.86364357500002,28,0.023148166666665304,60,0.09237925000000757
7014,46.90993990833336,47,0.046296333333337714,63,0.06901870833333845
7015,46.956022825000026,33,0.04608291666666986,64,0.09163841666666883
7016,46.978958616666695,50,0.022935791666668592,52,0.06870262500000024
7017,47.047661241666695,48,0.06870262500000024,63,0.27099387499999494
7018,47.11594686666669,47,0.06828562499999435,52,0.06797612500000128
7019,47.18392299166669,45,0.06797612500000128,79,0.13473212499999931
7020,47.25149061666669,60,0.06756762500000235,62,0.06716449999999696
7021,47.31865511666669,48,0.06716449999999696,91,0.405624875000008
7022,47.385619366666695,60,0.06696425000000517,56,0.06726462499999997
7023,47.40804090833336,38,0.022421541666666656,60,0.08978716666666742
7024,47.452883991666695,52,0.04484308333333331,64,0.06746662500000156
7025,47.49782807500003,41,0.044944083333334106,66,0.09029391666666697
7026,47.5203506166667,55,0.02252254166666745,52,0.06777137499999952
7027,47.588121991666696,53,0.06777137499999952,64,0.2734585000000038
7028,47.6560981166667,50,0.06797612500000128,55,0.0681818750000005
7029,47.7242799916667,47,0.0681818750000005,75,0.13730050000000205
7030,47.7927731166667,59,0.06849312500000337,62,0.06880737499999867
7031,47.8615804916667,52,0.06880737499999867,100,0.41819216666667103
7032,47.93059920000004,64,0.06901870833333845,56,0.06933779166666199
7033,47.95364065833337,35,0.023041458333331377,59,0.09259266666666832
7034,47.9999369916667,54,0.04629633333333061,66,0.06955216666666786
7035,48.04623332500004,41,0.046296333333337714,66,0.09302333333333479
7036,48.06948915833337,57,0.023255833333330145,59,0.06976750000000465
7037,48.13925665833337,55,0.06976750000000465,69,0.2821382499999956
7038,48.20935015833337,53,0.0700934999999987,59,0.07042249999999939
7039,48.27977265833337,50,0.07042249999999939,78,0.1416222499999975
7040,48.35041665833337,62,0.07064400000000148,69,0.07097824999999602
7041,48.42139490833337,50,0.07097824999999602,101,0.4265400000000028
7042,48.49248490833337,62,0.0710899999999981,61,0.0710900000000052
7043,48.51618157500004,40,0.02369666666667314,66,0.09478666666666413
7044,48.56357490833337,54,0.047393333333332066,70,0.0710899999999981
7045,48.610968241666704,43,0.047393333333332066,73,0.09478666666666413
7046,48.63466490833337,57,0.023696666666666033,60,0.0710899999999981
7047,48.70575490833337,55,0.0710899999999981,70,0.2843599999999995
7048,48.77684490833337,52,0.0710900000000052,60,0.0710899999999981
7049,48.84793490833337,49,0.0710899999999981,84,0.1421799999999962
7050,48.91902490833337,61,0.0710899999999981,71,0.0710899999999981
7051,48.99011490833337,53,0.0710899999999981,98,0.4265400000000028
7052,49.06120490833337,65,0.0710900000000052,62,0.0710899999999981
7053,49.08490157500004,37,0.023696666666666033,70,0.09478666666666413
7054,49.13229490833337,56,0.047393333333332066,71,0.0710899999999981
7055,49.1796882416667,43,0.047393333333332066,77,0.09478666666666413
7056,49.20338490833337,58,0.023696666666666033,63,0.0710899999999981
7057,49.27447490833337,57,0.0710899999999981,71,0.2843599999999995
7058,49.34556490833337,55,0.0710900000000052,63,0.0710899999999981
7059,49.41665490833337,52,0.0710899999999981,79,0.1421799999999962
7060,49.48774490833337,64,0.0710899999999981,72,0.0710899999999981
7061,49.55883490833337,52,0.0710899999999981,107,0.43031854166665795
7062,49.629589658333366,64,0.07075474999999898,63,0.0710899999999981
7063,49.65328632500003,42,0.023696666666666033,72,0.0950124166666626
7064,49.700679658333364,56,0.047393333333332066,73,0.07154254166666618
7065,49.748298741666694,45,0.047619083333330536,79,0.09580883333333645
7066,49.77222220000003,59,0.023923458333335645,66,0.0718853750000008
7067,49.84410757500003,57,0.0718853750000008,73,0.29186674999999696
7068,49.91645520000003,54,0.07234762499999903,63,0.07269824999999486
7069,49.989153450000025,51,0.07269824999999486,84,0.14682087500000307
7070,50.06232420000003,63,0.07317075000000273,73,0.07365012500000034
7071,50.13597432500003,56,0.07365012500000034,105,0.49559398333333604
7072,50.21297835000002,68,0.0770040249999937,64,0.07797072500000013
7073,50.238751558333355,45,0.02577320833333374,74,0.1062021000000044
7074,50.29094907500002,59,0.05219751666666639,75,0.08129927500000633
7075,50.34495365833336,48,0.05400458333333802,79,0.11176019999999909
7076,50.37224835000003,62,0.027294691666668314,69,0.08446550833333077
7077,50.45671385833336,60,0.08446550833333077,75,0.35693938333333364
7078,50.543254858333356,59,0.08654099999999687,69,0.08831345000000823
7079,50.631568308333364,57,0.08831345000000823,84,0.18208493333332854
7080,50.72142953333336,69,0.08986122499999283,77,0.09222370833333571
7081,50.81365324166669,59,0.09222370833333571,108,0.45000000000000284
7082,50.888653241666695,71,0.07500000000000284,70,0.07499999999999574
7083,50.913653241666694,48,0.02499999999999858,76,0.10000000000000142
7084,50.96365324166669,65,0.04999999999999716,81,0.07500000000000284
7085,51.013653241666695,51,0.05000000000000426,84,0.09999999999999432
7086,51.038653241666694,68,0.02499999999999858,71,0.07499999999999574
7087,51.11365324166669,66,0.07499999999999574,78,0.30000000000000426
7088,51.18865324166669,63,0.07500000000000284,72,0.07500000000000284
7089,51.263653241666695,60,0.07500000000000284,95,0.14999999999999858
7090,51.33865324166669,72,0.07499999999999574,77,0.07500000000000284
7091,51.413653241666694,59,0.07500000000000284,106,0.44999999999999574
7092,51.48865324166669,71,0.07499999999999574,71,0.07500000000000284
7093,51.513653241666695,48,0.025000000000005684,78,0.09999999999999432
7094,51.56365324166669,65,0.04999999999999716,77,0.07500000000000284
7095,51.61365324166669,51,0.04999999999999716,87,0.10000000000000142
7096,51.638653241666695,68,0.025000000000005684,75,0.07499999999999574
7097,51.71365324166669,42,0.07499999999999574,78,0.30000000000000426
7098,51.788653241666694,63,0.07500000000000284,69,0.07499999999999574
7099,51.86365324166669,60,0.07499999999999574,89,0.15000000000000568
7100,51.93865324166669,72,0.07500000000000284,77,0.07500000000000284
7101,52.013653241666695,59,0.07500000000000284,109,0.46161950000001184
7102,52.089157033333365,71,0.07550379166666943,70,0.07601395833333413
7103,52.11440957500003,48,0.025252541666667128,78,0.1017818333333338
7104,52.1651709916667,64,0.050761416666667,77,0.0766614583333336
7105,52.216191408333366,51,0.05102041666666679,87,0.1028285000000011
7106,52.24183245000003,67,0.02564104166666681,72,0.07718745833333429
7107,52.31901990833337,65,0.07718745833333429,78,0.3151282083333342
7108,52.39687507500003,63,0.07785516666666581,71,0.07839766666667458
7109,52.47527274166671,60,0.07839766666667458,92,0.15887537499999382
7110,52.5543593666667,72,0.07908662499999508,77,0.07978874999999874
7111,52.6341481166667,59,0.07978874999999874,104,0.518037249999999
7112,52.7143619916667,71,0.08021387499999832,75,0.08422457500000036
7113,52.74176840000003,48,0.027406408333334298,81,0.11416183333333407
7114,52.7985865666667,64,0.05681816666666606,82,0.08641341666666591
7115,52.85593023333337,51,0.057343666666668014,87,0.11709980000000542
7116,52.884999983333365,67,0.029069749999997896,75,0.08803005000000752
7117,52.97303003333337,65,0.08803005000000752,78,0.36164133333332416
7118,53.06189558333337,63,0.08886554999999419,71,0.09028978333333271
7119,53.1521853666667,60,0.09028978333333271,86,0.18248599999999726
7120,53.2432079916667,72,0.0910226250000008,77,0.09146337499999646
7121,53.3346713666667,60,0.09146337499999646,109,0.47619075000000066
7122,53.4140364916667,72,0.07936512500000248,70,0.07936512499999537
7123,53.440491533333365,48,0.026455041666665124,76,0.1058201666666676
7124,53.493401616666695,68,0.05291008333333025,77,0.07936512500000248
7125,53.54631170000003,52,0.052910083333337354,83,0.1058201666666676
7126,53.5727667416667,71,0.026455041666665124,70,0.07936512500000248
7127,53.6521318666667,69,0.07936512500000248,77,0.3174604999999957
7128,53.731496991666695,64,0.07936512499999537,66,0.07936512500000248
7129,53.8108621166667,60,0.07936512500000248,90,0.15873024999999785
7130,53.8902272416667,72,0.07936512500000248,70,0.07936512499999537
7131,53.969592366666696,59,0.07936512499999537,105,0.47619075000000066
7132,54.0489574916667,71,0.07936512500000248,69,0.07936512499999537
7133,54.07541253333336,47,0.026455041666665124,77,0.1058201666666676
7134,54.12832261666669,66,0.05291008333333025,78,0.07936512500000248
7135,54.18123270000003,52,0.052910083333337354,83,0.1058201666666676
7136,54.207687741666696,69,0.026455041666665124,71,0.07936512500000248
7137,54.2870528666667,67,0.07936512500000248,77,0.3174604999999957
7138,54.366417991666694,64,0.07936512499999537,69,0.07936512500000248
7139,54.445783116666696,59,0.07936512500000248,86,0.15873024999999785
7140,54.5251482416667,71,0.07936512500000248,72,0.07936512499999537
7141,54.604513366666694,55,0.07936512499999537,106,0.43689299999999776
7142,54.67732886666669,67,0.07281549999999726,64,0.07281550000000436
7143,54.70160070000003,43,0.024271833333337156,77,0.09708733333333441
7144,54.750144366666696,62,0.04854366666666721,73,0.07281549999999726
7145,54.79868803333336,48,0.04854366666666721,84,0.09708733333333441
7146,54.82295986666669,65,0.02427183333333005,66,0.07281550000000436
7147,54.8957753666667,36,0.07281550000000436,76,0.29126199999999614
7148,54.968590866666695,60,0.07281549999999726,63,0.07281549999999726
7149,55.04140636666669,55,0.07281549999999726,94,0.14563100000000162
7150,55.114221866666696,67,0.07281550000000436,71,0.07281549999999726
7151,55.187037366666694,52,0.07281549999999726,100,0.43689299999999776
7152,55.25985286666669,64,0.07281549999999726,64,0.07281550000000436
7153,55.28412470000003,40,0.024271833333337156,73,0.09708733333333441
7154,55.332668366666695,59,0.04854366666666721,71,0.07281549999999726
7155,55.38121203333336,45,0.04854366666666721,79,0.09708733333333441
7156,55.40548386666669,62,0.02427183333333005,64,0.07281550000000436
7157,55.4782993666667,33,0.07281550000000436,74,0.29126199999999614
7158,55.551114866666694,57,0.07281549999999726,62,0.07281549999999726
7159,55.62393036666669,52,0.07281549999999726,86,0.14563100000000162
7160,55.696745866666696,64,0.07281550000000436,63,0.07281549999999726
7161,55.76956136666669,47,0.07281549999999726,100,0.439152
7162,55.8423768666667,59,0.07281550000000436,59,0.07281549999999726
7163,55.86664870000003,35,0.02427183333333005,68,0.09732416666666666
7164,55.915192366666695,54,0.04854366666666721,69,0.07317075000000273
7165,55.963972866666694,40,0.04878049999999945,78,0.0975609999999989
7166,55.9883631166667,57,0.024390250000003277,61,0.07317074999999562
7167,56.06153386666669,28,0.07317074999999562,67,0.29508466666666777
7168,56.13506324166669,52,0.07352937499999967,62,0.07365012500000034
7169,56.20871336666669,47,0.07365012500000034,84,0.14790516666666775
7170,56.282604991666695,59,0.07389162500000168,62,0.07401354166666607
7171,56.35661853333336,45,0.07401354166666607,96,0.44864045833333677
7172,56.43087590833336,57,0.07425737500000196,57,0.07450370833333153
7173,56.455628366666694,33,0.024752458333331617,67,0.09950249999999983
7174,56.505379616666694,52,0.049751249999999914,64,0.07462687499999987
7175,56.555130866666694,36,0.049751249999999914,74,0.09975124999999707
7176,56.580006491666694,55,0.024875624999999957,57,0.07487562499999711
7177,56.65488211666669,29,0.07487562499999711,68,0.301511375000004
7178,56.729882116666694,48,0.07500000000000284,52,0.07537687500000345
7179,56.8052589916667,45,0.07537687500000345,83,0.15113449999999773
7180,56.880635866666694,57,0.07537687499999635,61,0.07575762500000138
7181,56.956393491666695,43,0.07575762500000138,100,0.45854558333333273
7182,57.03227928333336,55,0.0758857916666642,55,0.07614212500000406
7183,57.057659991666696,31,0.025380708333337054,70,0.101522833333334
7184,57.10842140833336,50,0.050761416666667,64,0.07627162499999685
7185,57.15918282500003,36,0.050761416666667,79,0.10204083333333358
7186,57.18469303333336,53,0.025510208333329842,59,0.07653062500000374
7187,57.261223658333364,24,0.07653062500000374,67,0.3082224999999994
7188,57.33801595000003,48,0.07679229166666346,56,0.07692312500000043
7189,57.41493907500003,43,0.07692312500000043,79,0.15450708333333552
7190,57.49212653333336,55,0.07718745833333429,60,0.07731962500000122
7191,57.56944615833336,41,0.07731962500000122,90,0.4663214999999994
7192,57.64716640833336,53,0.07772024999999871,52,0.07772024999999871
7193,57.67307315833337,29,0.02590675000000431,67,0.10362699999999592
7194,57.72488665833336,48,0.051813499999994406,62,0.07772025000000582
7195,57.77670015833336,34,0.05181350000000151,77,0.10362700000000302
7196,57.80260690833337,52,0.02590675000000431,52,0.07772024999999871
7197,57.880327158333365,26,0.07772024999999871,69,0.31088099999999486
7198,57.958047408333364,46,0.07772024999999871,55,0.07772024999999871
7199,58.03576765833336,41,0.07772024999999871,76,0.15544049999999743
7200,58.11348790833336,53,0.07772024999999871,60,0.07772024999999871
7201,58.19120815833336,40,0.07772024999999871,89,0.4663215000000065
7202,58.268928408333366,52,0.07772025000000582,60,0.07772024999999871
7203,58.29483515833336,24,0.025906749999997203,67,0.10362700000000302
7204,58.346648658333365,47,0.05181350000000151,70,0.07772024999999871
7205,58.398462158333366,28,0.05181350000000151,75,0.10362699999999592
7206,58.42436890833336,50,0.025906749999997203,59,0.07772024999999871
7207,58.50208915833336,16,0.07772024999999871,66,0.31088100000000196
7208,58.57980940833336,45,0.07772024999999871,61,0.07772025000000582
7209,58.65752965833337,40,0.07772025000000582,73,0.15544049999999743
7210,58.735249908333365,52,0.07772024999999871,60,0.07772024999999871
7211,58.812970158333364,40,0.07772024999999871,87,0.4663214999999994
7212,58.89069040833336,52,0.07772024999999871,51,0.07772024999999871
7213,58.91659715833336,24,0.025906749999997203,66,0.10362700000000302
7214,58.96841065833336,47,0.05181350000000151,60,0.07772024999999871
7215,59.02022415833336,28,0.05181350000000151,76,0.10362700000000302
7216,59.04613090833336,50,0.025906749999997203,51,0.07772025000000582
7217,59.123851158333366,16,0.07772025000000582,68,0.31088099999999486
7218,59.201571408333365,45,0.07772024999999871,51,0.07772024999999871
7219,59.279291658333364,40,0.07772024999999871,73,0.15544049999999743
7220,59.35701190833336,52,0.07772024999999871,57,0.07772024999999871
7221,59.43473215833336,40,0.07772024999999871,89,0.4663214999999994
7222,59.51245240833337,52,0.07772025000000582,52,0.07772024999999871
7223,59.538359158333364,24,0.025906749999997203,67,0.10362700000000302
7224,59.590172658333366,47,0.05181350000000151,62,0.07772024999999871
7225,59.64198615833337,28,0.05181350000000151,73,0.10362699999999592
7226,59.667892908333364,50,0.025906749999997203,52,0.07772024999999871
7227,59.74561315833336,16,0.07772024999999871,68,0.31088100000000196
7228,59.82333340833336,45,0.07772024999999871,52,0.07772024999999871
7229,59.90105365833336,40,0.07772024999999871,72,0.15544050000000453
7230,59.978773908333366,52,0.07772025000000582,56,0.07772024999999871
7231,60.056494158333365,40,0.07772024999999871,85,0.4663214999999994
7232,60.134214408333364,52,0.07772024999999871,51,0.07772024999999871
7233,60.16012115833336,24,0.025906749999997203,68,0.10362700000000302
7234,60.21193465833336,47,0.05181350000000151,60,0.07772024999999871
7235,60.263748158333364,28,0.05181350000000151,77,0.10362700000000302
7236,60.28965490833336,50,0.025906749999997203,52,0.07772025000000582
7237,60.36737515833337,16,0.07772025000000582,70,0.31088099999999486
7238,60.445095408333366,45,0.07772024999999871,48,0.07772024999999871
7239,60.522815658333364,40,0.07772024999999871,61,0.15544049999999743
7240,60.60053590833336,52,0.07772024999999871,55,0.07772024999999871
7241,60.67825615833336,40,0.07772024999999871,89,0.4663214999999994
7242,60.75597640833336,52,0.07772024999999871,48,0.07772025000000582
7243,60.781883158333365,23,0.02590675000000431,63,0.10362699999999592
7244,60.833696658333366,46,0.05181350000000151,60,0.07772024999999871
7245,60.88551015833336,28,0.051813499999994406,64,0.10362700000000302
7246,60.911416908333365,48,0.02590675000000431,47,0.07772024999999871
7247,60.989137158333364,16,0.07772024999999871,57,0.31088100000000196
7248,61.06685740833336,45,0.07772024999999871,47,0.07772024999999871
7249,61.14457765833336,40,0.07772024999999871,58,0.15544050000000453
7250,61.22229790833337,52,0.07772025000000582,51,0.07772024999999871
7251,61.300018158333366,40,0.07772024999999871,79,0.4663214999999994
7252,61.377738408333364,52,0.07772024999999871,50,0.07772024999999871
7253,61.40364515833336,23,0.025906749999997203,61,0.10362700000000302
7254,61.45545865833336,46,0.05181350000000151,57,0.07772024999999871
7255,61.507272158333365,28,0.05181350000000151,66,0.10362700000000302
7256,61.53317890833336,48,0.025906749999997203,48,0.07772025000000582
7257,61.61089915833337,16,0.07772025000000582,58,0.3107474583333314
7258,61.688619408333366,45,0.07772024999999871,46,0.07772024999999871
7259,61.766339658333365,40,0.07772024999999871,58,0.15530695833333397
7260,61.844059908333364,52,0.07772024999999871,50,0.07758670833333525
7261,61.9216466166667,40,0.07758670833333525,79,0.49806979166666565
7262,61.99991082500003,52,0.07826420833333003,45,0.08007470833333485
7263,62.026365866666694,23,0.026455041666665124,64,0.10796912499999678
7264,62.079985533333364,46,0.05361966666666973,50,0.0818219999999954
7265,62.13433499166669,28,0.05434945833332705,69,0.11143187500000096
7266,62.16180753333336,48,0.02747254166666835,42,0.08395933333333261
7267,62.24576686666669,16,0.08395933333333261,56,0.35653825000001405
7268,62.331649116666696,44,0.08588225000000449,42,0.08806729166666827
7269,62.419716408333365,40,0.08806729166666827,55,0.1825887083333413
7270,62.5099018666667,52,0.09018545833333746,46,0.09240325000000382
7271,62.602305116666706,32,0.09240325000000382,74,0.6139170833333338
7272,62.69489774166671,52,0.09259262500000176,38,0.09259262499999465
7273,62.72576195000004,23,0.03086420833333392,54,0.12345683333332858
7274,62.7874903666667,46,0.061728416666660735,44,0.09259262500000176
7275,62.84921878333337,28,0.06172841666666784,60,0.12345683333333568
7276,62.880082991666704,48,0.03086420833333392,36,0.09259262500000176
7277,62.972675616666706,16,0.09259262500000176,49,0.5162738333333365
7278,63.07985857500004,44,0.10718295833333258,38,0.13636362500000132
7279,63.21622220000004,40,0.13636362500000132,50,0.27272725000000264
7280,63.35258582500004,52,0.13636362500000132,38,0.13636362500000132
7281,63.48894945000004,40,0.13636362500000132,69,0.6054200416666689
7282,63.594583200000045,52,0.10563375000000264,35,0.10297591666667216
7283,63.62906595000005,28,0.03448275000000223,39,0.13629058333333433
7284,63.69755911666672,47,0.06849316666666994,40,0.10135445833333279
7285,63.76535653333338,33,0.06779741666666439,45,0.1335600000000028
7286,63.79891357500005,50,0.0335570416666684,35,0.10000295833333439
7287,63.898916533333384,48,0.10000295833333439,40,0.3853390833333279
7288,63.997385783333385,45,0.09846925000000084,35,0.09698370833332604
7289,64.09436949166671,40,0.09698370833332604,52,0.18988612500000102
7290,64.1899134916667,52,0.09554399999998964,38,0.09434212500001138
7291,64.28425561666671,40,0.09434212500001138,68,0.5392144583333476
7292,64.37723165833337,52,0.09297604166665963,34,0.09165041666666696
7293,64.40790649166671,28,0.030674833333335982,39,0.12139912499999639
7294,64.46888207500004,47,0.060975583333330974,37,0.0903636666666614
7295,64.5293056166667,33,0.060423541666665415,44,0.11922795833334021
7296,64.5592457416667,50,0.029940124999995987,31,0.08928783333334422
7297,64.64853357500004,48,0.08928783333334422,37,0.3454001666666926
7298,64.73659682500005,45,0.0880632500000047,30,0.08687325000001067
7299,64.82347007500006,40,0.08687325000001067,50,0.17046366666667723
7300,64.90918620000005,52,0.08571612499999048,37,0.08474754166668674
7301,64.99393374166674,40,0.08474754166668674,69,0.5001554166666722
7302,65.0774222833334,52,0.08348854166666797,31,0.08333337500000937
7303,65.10520007500007,28,0.027777791666665053,39,0.11111116666667442
7304,65.16075565833341,47,0.055555583333344316,37,0.08333337499999516
7305,65.21631124166674,33,0.055555583333330105,45,0.11111116666666021
7306,65.24408903333341,50,0.027777791666665053,31,0.08333337499999516
7307,65.3274224083334,21,0.08333337499999516,38,0.3331800000000129
7308,65.41075578333341,45,0.08333337500000937,36,0.08333337499999516
7309,65.49408915833341,40,0.08333337499999516,49,0.16651325000000838
7310,65.5774225333334,52,0.08333337499999516,38,0.08317987500001323
7311,65.66060240833342,40,0.08317987500001323,71,0.5021968333333291
7312,65.74347528333341,52,0.08287287499999252,34,0.08317987499999902
7313,65.77109957500008,28,0.02762429166666891,39,0.11111116666666021
7314,65.82665515833341,47,0.055555583333330105,38,0.08348854166666797
7315,65.88221074166674,33,0.055555583333330105,49,0.11173183333333725
7316,65.91014370000008,50,0.027932958333337865,34,0.08379887499999938
7317,65.99394257500008,21,0.08379887499999938,45,0.3389901666666617
7318,66.07821220000008,45,0.08426962500000457,34,0.08458704166666564
7319,66.16279924166675,40,0.08458704166666564,49,0.1701334999999915
7320,66.24770549166674,52,0.08490624999998886,38,0.08522725000000264
7321,66.33293274166674,41,0.08522725000000264,66,0.5098128749999944
7322,66.41897540833341,53,0.08604266666667115,34,0.08587845833332608
7323,66.4477110333334,21,0.028735624999995935,41,0.1141233333333247
7324,66.50485386666674,49,0.057142833333330145,37,0.08538958333333824
7325,66.56183436666673,26,0.05698049999999455,49,0.11315483333333987
7326,66.59024345000007,52,0.028409083333343688,31,0.08474574999999618
7327,66.67498920000007,14,0.08474574999999618,39,0.33350566666666737
7328,66.7591019083334,45,0.08411270833333617,31,0.08364370833332657
7329,66.84274561666673,41,0.08364370833332657,49,0.16574925000000462
7330,66.92592549166673,53,0.08317987499999902,38,0.08256937500000561
7331,67.00849486666674,41,0.08256937500000561,63,0.4847991249999808
7332,67.09061224166673,53,0.08211737499999572,34,0.08152174999999318
7333,67.1177861583334,21,0.02717391666666913,40,0.10840191666665078
7334,67.17213399166673,49,0.05434783333332405,38,0.0810811249999972
7335,67.22618807500005,26,0.05405408333332673,45,0.10752841666666768
7336,67.25321511666672,52,0.02702704166667047,34,0.08050137499999721
7337,67.33371649166672,50,0.08050137499999721,40,0.3173359166666643
7338,67.41378815833339,45,0.08007166666666876,35,0.07950583333332872
7339,67.49329399166672,41,0.07950583333332872,49,0.1577584166666668
7340,67.57238061666672,53,0.07908662500000219,42,0.0786717916666646
7341,67.65105240833338,41,0.0786717916666646,69,0.49017157499999087
7342,67.72917740833338,53,0.078125,37,0.07758670833332815
7343,67.75508415833339,21,0.02590675000000431,41,0.10366977500000019
7344,67.80676411666671,49,0.05167995833332384,44,0.07887152500001093
7345,67.85875393333339,26,0.05198981666667635,49,0.1085864833333261
7346,67.88563564166672,52,0.026881708333334586,36,0.08170477499999151
7347,67.96734041666672,50,0.08170477499999151,44,0.36424613333333866
7348,68.05220336666672,45,0.08486295000000155,35,0.08902061666665873
7349,68.14122398333338,41,0.08902061666665873,50,0.1903625666666784
7350,68.23430800000004,53,0.09308401666666555,44,0.09727855000001284
7351,68.33158655000005,45,0.09727855000001284,71,0.6081082500000008
7352,68.43293792500006,57,0.10135137500000724,46,0.10135137499999303
7353,68.46672171666673,21,0.03378379166666434,41,0.13513516666667158
7354,68.53428930000005,49,0.06756758333332868,51,0.10135137500000724
7355,68.6018568833334,26,0.0675675833333429,46,0.13513516666665737
7356,68.63564067500006,52,0.03378379166666434,45,0.10135137499999303
7357,68.73699205000005,50,0.10135137499999303,48,0.40540550000000053
7358,68.83834342500006,45,0.10135137500000724,42,0.10135137499999303
7359,68.93969480000005,41,0.10135137499999303,47,0.20270275000000026
7360,69.04104617500006,53,0.10135137500000724,36,0.10135137499999303
7361,69.14239755000006,40,0.10135137499999303,59,0.47368425000000514
7362,69.22134492500005,52,0.07894737499999849,28,0.07894737499999849
7363,69.24766071666672,28,0.026315791666661426,36,0.10526316666667412
7364,69.30029230000005,47,0.05263158333333706,36,0.07894737499999849
7365,69.35292388333339,33,0.05263158333333706,37,0.10526316666665991
7366,69.37923967500005,50,0.026315791666661426,29,0.07894737499999849
7367,69.45818705000005,21,0.07894737499999849,35,0.31578950000000816
7368,69.53713442500006,45,0.0789473750000127,30,0.07894737499999849
7369,69.61608180000006,40,0.07894737499999849,41,0.15789474999999698
7370,69.69502917500006,52,0.07894737499999849,35,0.07894737499999849
7371,69.77397655000006,40,0.07894737499999849,58,0.47368425000000514
7372,69.85292392500006,52,0.07894737499999849,27,0.07894737499999849
7373,69.87923971666672,28,0.026315791666661426,35,0.10526316666667412
7374,69.93187130000005,47,0.05263158333333706,34,0.07894737499999849
7375,69.98450288333339,33,0.05263158333333706,36,0.10526316666665991
7376,70.01081867500005,50,0.026315791666661426,27,0.07894737499999849
7377,70.08976605000005,21,0.07894737499999849,34,0.31578950000000816
7378,70.16871342500005,45,0.07894737499999849,28,0.0789473750000127
7379,70.24766080000006,40,0.0789473750000127,41,0.15789474999999698
7380,70.32660817500006,52,0.07894737499999849,34,0.07894737499999849
7381,70.40555555000006,40,0.07894737499999849,58,0.4736842499999909
7382,70.48450292500006,52,0.07894737499999849,28,0.07894737499999849
7383,70.51081871666672,28,0.026315791666661426,34,0.10526316666667412
7384,70.56345030000006,47,0.05263158333333706,34,0.07894737499999849
7385,70.6160818833334,33,0.05263158333333706,37,0.10526316666665991
7386,70.64239767500005,50,0.026315791666661426,28,0.07894737499999849
7387,70.72134505000005,49,0.07894737499999849,34,0.31578950000000816
7388,70.80029242500005,45,0.07894737499999849,28,0.07894737499999849
7389,70.87923980000005,40,0.07894737499999849,40,0.15789475000001119
7390,70.95818717500005,52,0.07894737499999849,31,0.0789473750000127
7391,71.03713455000006,40,0.0789473750000127,58,0.4736842499999909
7392,71.11608192500006,52,0.07894737499999849,28,0.07894737499999849
7393,71.14239771666672,28,0.026315791666661426,31,0.10526316666667412
7394,71.19502930000006,47,0.05263158333333706,31,0.07894737499999849
7395,71.2476608833334,33,0.05263158333333706,38,0.10526316666665991
7396,71.27397667500006,50,0.026315791666661426,27,0.07894737499999849
7397,71.35292405000006,21,0.07894737499999849,33,0.31578949999999395
7398,71.43187142500005,45,0.07894737499999849,25,0.07894737499999849
7399,71.51081880000005,40,0.07894737499999849,36,0.15789474999999698
7400,71.58976617500005,52,0.07894737499999849,31,0.07894737499999849
7401,71.66871355000005,42,0.07894737499999849,56,0.47368425000000514
7402,71.74766092500006,54,0.0789473750000127,22,0.07894737499999849
7403,71.77397671666672,21,0.026315791666661426,34,0.10526316666665991
7404,71.82660830000006,49,0.05263158333333706,28,0.07894737499999849
7405,71.87923988333338,26,0.05263158333332285,36,0.10526316666667412
7406,71.90555567500006,52,0.026315791666675636,22,0.07894737499999849
7407,71.98450305000006,14,0.07894737499999849,33,0.31578949999999395
7408,72.06345042500006,45,0.07894737499999849,23,0.07894737499999849
7409,72.14239780000005,42,0.07894737499999849,38,0.15789474999999698
7410,72.22134517500005,54,0.07894737499999849,29,0.07894737499999849
7411,72.30029255000005,42,0.07894737499999849,58,0.47368425000000514
7412,72.37923992500005,54,0.07894737499999849,23,0.07894737499999849
7413,72.40555571666673,21,0.026315791666675636,34,0.10526316666665991
7414,72.45818730000005,49,0.05263158333332285,29,0.0789473750000127
7415,72.51081888333339,26,0.05263158333333706,37,0.10526316666667412
7416,72.53713467500006,52,0.026315791666675636,23,0.07894737499999849
7417,72.61608205000006,14,0.07894737499999849,33,0.31578949999999395
7418,72.69502942500006,45,0.07894737499999849,23,0.07894737499999849
7419,72.77397680000006,42,0.07894737499999849,40,0.15789474999999698
7420,72.85292417500006,54,0.07894737499999849,30,0.07894737499999849
7421,72.93187155000005,42,0.07894737499999849,61,0.47803268333333904
7422,73.01081892500005,54,0.07894737499999849,27,0.07894737499999849
7423,73.03713471666673,21,0.026315791666675636,36,0.10526316666665991
7424,73.08976630000005,49,0.05263158333332285,31,0.07894737499999849
7425,73.14239788333339,26,0.05263158333333706,38,0.10537515000000042
7426,73.16871367500005,52,0.026315791666661426,27,0.07905935833333899
7427,73.24777303333339,14,0.07905935833333899,34,0.33420958333333317
7428,73.32790468333339,45,0.08013164999999844,30,0.08199955000000614
7429,73.40990423333339,42,0.08199955000000614,41,0.1720783833333286
7430,73.49463656666673,54,0.08473233333333496,34,0.08734604999999362
7431,73.58198261666672,45,0.08734604999999362,63,0.5660377500000067
7432,73.67632224166672,57,0.09433962500000348,37,0.09433962500000348
7433,73.70776878333339,21,0.03144654166666783,34,0.1257861666666571
7434,73.77066186666673,49,0.06289308333333565,38,0.09433962499998927
7435,73.83355495000005,26,0.06289308333332144,39,0.1257861666666713
7436,73.86500149166672,52,0.03144654166666783,36,0.09433962500000348
7437,73.95934111666672,14,0.09433962500000348,36,0.3773584999999997
7438,74.05368074166672,45,0.09433962500000348,34,0.09433962500000348
7439,74.14802036666673,42,0.09433962500000348,37,0.18867924999999275
7440,74.24235999166672,54,0.09433962499998927,27,0.09433962500000348
7441,74.33669961666672,40,0.09433962500000348,57,0.47619075000000066
7442,74.41606474166672,52,0.07936512499999537,20,0.07936512500000958
7443,74.44251978333338,28,0.026455041666665124,34,0.10582016666667471
7444,74.49542986666673,47,0.05291008333334446,27,0.07936512499999537
7445,74.54833995000006,33,0.05291008333333025,38,0.1058201666666605
7446,74.57479499166672,50,0.026455041666665124,22,0.07936512499999537
7447,74.65416011666672,21,0.07936512499999537,34,0.3174605000000099
7448,74.73352524166673,45,0.07936512500000958,23,0.07936512499999537
7449,74.81289036666672,40,0.07936512499999537,37,0.15873025000000496
7450,74.89225549166672,52,0.07936512499999537,27,0.07936512500000958
7451,74.97162061666673,40,0.07936512500000958,56,0.47619075000000066
7452,75.05098574166672,52,0.07936512499999537,23,0.07936512499999537
7453,75.07744078333339,28,0.026455041666665124,31,0.1058201666666605
7454,75.13035086666672,47,0.05291008333333025,28,0.07936512500000958
7455,75.18326095000005,33,0.05291008333333025,37,0.10582016666667471
7456,75.20971599166673,50,0.026455041666679335,23,0.07936512499999537
7457,75.28908111666672,21,0.07936512499999537,31,0.3174604999999957
7458,75.36844624166672,45,0.07936512499999537,22,0.07936512500000958
7459,75.44781136666673,40,0.07936512500000958,37,0.15873024999999075
7460,75.52717649166672,52,0.07936512499999537,29,0.07936512499999537
7461,75.60654161666672,40,0.07936512499999537,57,0.47619075000000066
7462,75.68590674166673,52,0.07936512500000958,25,0.07936512499999537
7463,75.71236178333339,28,0.026455041666665124,34,0.1058201666666605
7464,75.76527186666672,47,0.05291008333333025,29,0.07936512499999537
7465,75.81818195000005,33,0.05291008333333025,39,0.1058201666666605
7466,75.84463699166672,50,0.026455041666665124,23,0.07936512499999537
7467,75.92400211666671,21,0.07936512499999537,35,0.3174605000000099
7468,76.00336724166672,45,0.07936512500000958,23,0.07936512499999537
7469,76.08273236666672,40,0.07936512499999537,41,0.15873025000000496
7470,76.16209749166671,52,0.07936512499999537,29,0.07936512500000958
7471,76.24146261666672,40,0.07936512500000958,61,0.47619075000000066
7472,76.32082774166672,52,0.07936512499999537,23,0.07936512499999537
7473,76.34728278333338,28,0.026455041666665124,34,0.10582016666667471
7474,76.40019286666671,47,0.05291008333333025,30,0.07936512500000958
7475,76.45310295000006,33,0.05291008333334446,38,0.1058201666666605
7476,76.47955799166672,50,0.026455041666665124,23,0.07936512499999537
7477,76.55892311666672,21,0.07936512499999537,34,0.3174604999999957
7478,76.63828824166671,45,0.07936512499999537,23,0.07936512500000958
7479,76.71765336666672,40,0.07936512500000958,38,0.15873024999999075
7480,76.79701849166672,52,0.07936512499999537,29,0.07936512499999537
7481,76.87638361666671,40,0.07936512499999537,58,0.478667216666679
7482,76.95611458333339,52,0.07973096666667345,23,0.07978724999999542
7483,76.98271033333339,28,0.026595749999998475,33,0.10638300000000811
7484,77.03590183333338,47,0.05319149999999695,29,0.07978725000000964
7485,77.0890933333334,33,0.05319150000001116,37,0.1063829999999939
7486,77.1156890833334,50,0.026595749999998475,23,0.07978724999999542
7487,77.19547633333339,21,0.07978724999999542,35,0.3191489999999959
7488,77.27526358333338,45,0.07978724999999542,25,0.07978725000000964
7489,77.3550508333334,40,0.07978725000000964,38,0.15957449999999085
7490,77.43483808333339,52,0.07978724999999542,29,0.07978724999999542
7491,77.51462533333338,40,0.07978724999999542,55,0.4917941333333431
7492,77.59492730833338,52,0.08030197499999758,22,0.08182165833333954
7493,77.62204278333338,28,0.02711547500000222,35,0.10965126666667402
7494,77.67674896666672,47,0.05470618333333732,29,0.08241762500000505
7495,77.73169405000006,33,0.0549450833333367,39,0.1098901666666734
7496,77.75916659166673,50,0.02747254166666835,23,0.08241762500000505
7497,77.84158421666673,21,0.08241762500000505,36,0.32967049999999176
7498,77.92400184166672,45,0.08241762499999084,23,0.08241762500000505
7499,78.00641946666673,40,0.08241762500000505,34,0.16483524999999588
7500,78.08883709166672,52,0.08241762499999084,28,0.08241762500000505
7501,78.17125471666672,40,0.08241762500000505,49,0.4959764166666645
7502,78.25367234166673,52,0.08241762500000505,22,0.08241762499999084
7503,78.2811448833334,28,0.02747254166666835,34,0.10989016666665918
7504,78.33608996666672,47,0.054945083333322486,28,0.08241762500000505
7505,78.39103505000006,33,0.0549450833333367,37,0.1098901666666734
7506,78.41850759166672,50,0.02747254166666835,23,0.08241762500000505
7507,78.50092521666673,21,0.08241762500000505,33,0.3408799999999843
7508,78.58364809166672,45,0.08272287499998754,22,0.08358304166667097
7509,78.66723113333339,40,0.08358304166667097,34,0.1745740833333258
7510,78.75377516666671,52,0.08654403333332539,27,0.08803005000000041
7511,78.84180521666671,40,0.08803005000000041,44,0.5380128000000042
7512,78.93095090000004,52,0.08914568333332795,22,0.08928575000000194
7513,78.96071281666671,28,0.02976191666667205,30,0.11904766666667399
7514,79.02023665000004,47,0.05952383333332989,27,0.08928575000000194
7515,79.07976048333339,33,0.0595238333333441,34,0.11933453333332977
7516,79.10952240000005,50,0.02976191666665784,22,0.08957261666667193
7517,79.19909501666672,21,0.08957261666667193,31,0.36159291666665183
7518,79.28945651666672,45,0.0903615000000002,23,0.0903615000000002
7519,79.37981801666672,40,0.0903615000000002,36,0.18086991666665142
7520,79.47017951666672,52,0.0903615000000002,27,0.09050841666665121
7521,79.56068793333337,52,0.09050841666665121,46,1.4634140000000002
7522,81.02410193333337,50,1.4634140000000002,43,0.8426799333333435
7523,81.86678186666671,44,0.8426799333333435,39,1.2631580000000042
7524,83.12993986666672,44,1.2631580000000042,29,0.36144575000000145
7525,83.49138561666672,21,0.36144575000000145,31,5.159737750000005
7526,83.85283136666672,28,0.36144575000000145,31,4.7982920000000036
7527,84.15895386666672,36,0.30612250000000074,31,4.492169500000003
7528,84.46507636666672,40,0.30612250000000074,25,4.186047000000002
7529,84.81391361666672,45,0.34883725000000254,22,3.8372097499999995
7530,0.5047395,25,0.0,74,0.211179
7531,0.7159185,24,0.211179,77,0.3337629999999999
7532,1.0496815,22,0.3337629999999999,74,0.057440500000000005
7533,1.1645625,22,0.11488100000000001,77,0.7151663333333333
7534,1.3638055,42,0.19924300000000006,68,0.6729913333333333
7535,1.5458798333333332,30,0.18207433333333323,64,0.16483500000000006
7536,1.7107148333333333,29,0.16483500000000006,64,0.326082
7537,1.8797288333333333,21,0.169014,77,0.15706799999999999
7538,2.0367968333333333,24,0.15706799999999999,73,0.11780100000000004
7539,2.1938648333333335,24,0.1570680000000002,77,0.6162509999999997
7540,2.3509328333333332,45,0.15706799999999976,66,0.6146235
7541,2.5039938333333334,33,0.1530610000000001,61,0.15306099999999967
7542,2.657054833333333,46,0.15306099999999967,66,0.3085015000000002
7543,2.810115833333333,25,0.1530610000000001,77,0.1554405000000001
7544,2.9655563333333332,22,0.1554405000000001,75,0.1554405000000001
7545,3.1209968333333333,25,0.1554405000000001,77,0.5977004999999997
7546,3.276437333333333,46,0.15544049999999965,66,0.592155
7547,3.423857333333333,34,0.14741999999999988,63,0.14741999999999988
7548,3.5712773333333327,45,0.14741999999999988,65,0.2973150000000002
7549,3.718697333333333,24,0.14742000000000033,77,0.1498949999999999
7550,3.868592333333333,27,0.1498949999999999,73,0.11242125000000014
7551,4.018487333333333,27,0.1498949999999999,81,0.5855189999999997
7552,4.168382333333333,48,0.1498949999999999,73,0.29041600000000045
7553,4.313590333333333,36,0.14520800000000023,70,0.14520800000000023
7554,4.458798333333333,49,0.14520800000000023,73,0.29291099999999926
7555,4.6040063333333325,29,0.14520799999999934,83,0.14770299999999992
7556,4.7517093333333325,25,0.14770299999999992,80,0.14770299999999992
7557,4.899412333333332,40,0.14770299999999992,88,0.5841205
7558,5.052395333333332,58,0.15298299999999987,79,0.2874249999999998
7559,5.196107833333333,46,0.14371250000000035,71,0.14371249999999947
7560,5.339820333333332,57,0.14371249999999947,77,0.2903185000000006
7561,5.483532833333332,41,0.14371250000000035,88,0.14660600000000024
7562,5.630138833333333,36,0.14660600000000024,85,0.14660599999999935
7563,5.776744833333332,38,0.14660599999999935,84,0.5729240000000004
7564,5.923350833333332,56,0.14660600000000024,75,0.28421200000000013
7565,6.065456833333332,44,0.14210600000000007,68,0.14210600000000007
7566,6.207562833333332,55,0.14210600000000007,74,0.28913600000000006
7567,6.349668833333332,39,0.14210600000000007,84,0.14703
7568,6.496698833333332,34,0.14703,80,0.14703
7569,6.643728833333332,38,0.14703,80,0.5793689999999998
7570,6.790758833333332,56,0.14703,72,0.28822599999999987
7571,6.934871833333332,44,0.14411299999999994,65,0.14411299999999994
7572,7.078984833333332,55,0.14411299999999994,71,0.2940079999999998
7573,7.223097833333332,39,0.14411299999999994,80,0.1498949999999999
7574,7.372992833333332,34,0.1498949999999999,77,0.1124212499999997
7575,7.522887833333332,34,0.1498949999999999,88,0.15699400000000008
7576,7.679881833333332,33,0.15699400000000008,77,0.1531453333333328
7577,7.833027166666665,34,0.1531453333333328,77,0.15789466666666652
7578,7.990921833333331,37,0.15789466666666652,80,0.16275050000000135
7579,8.153672333333333,36,0.16275050000000135,77,0.16799941666666385
7580,8.414098999999997,34,0.2604266666666639,79,0.046213625000000036
7581,8.506526249999997,34,0.09242725000000007,77,0.6258315000000003
7582,8.670819749999996,54,0.16429349999999943,72,0.6114330000000017
7583,8.824665749999996,42,0.1538459999999997,70,0.1538459999999997
7584,8.978511749999996,41,0.1538459999999997,70,0.30374100000000226
7585,9.132357749999997,33,0.15384600000000148,77,0.14989500000000078
7586,9.282252749999998,36,0.14989500000000078,73,0.1124212499999988
7587,9.432147749999997,36,0.149894999999999,77,0.5786100000000012
7588,9.582042749999998,57,0.14989500000000078,72,0.5752490000000012
7589,9.724947749999998,45,0.14290500000000073,67,0.14290499999999895
7590,9.867852749999997,58,0.14290499999999895,72,0.28943900000000156
7591,10.010757749999998,37,0.14290500000000073,77,0.14653400000000083
7592,10.157291749999999,34,0.14653400000000083,75,0.14617749999999852
7593,10.303469249999997,37,0.14617749999999852,80,0.5724955000000005
7594,10.449646749999998,58,0.1461775000000003,75,0.5742030000000007
7595,10.591752749999998,46,0.14210600000000007,72,0.14210600000000007
7596,10.733858749999998,57,0.14210600000000007,74,0.28999100000000055
7597,10.875964749999998,36,0.14210600000000007,80,0.1478850000000005
7598,11.023849749999998,39,0.1478850000000005,75,0.11091374999999992
7599,11.171734749999997,39,0.1478849999999987,84,0.5885075833333335
7600,11.319619749999998,60,0.1478850000000005,79,0.29099658333333345
7601,11.465274333333332,48,0.14565458333333403,74,0.14534199999999942
7602,11.610616333333331,61,0.14534199999999942,78,0.3052034999999993
7603,11.76024233333333,41,0.1496259999999996,84,0.1555774999999997
7604,11.91581983333333,37,0.1555774999999997,81,0.1555774999999997
7605,12.07139733333333,46,0.1555774999999997,86,0.15781999999999918
7606,12.22921733333333,42,0.15781999999999918,82,0.29838900000000024
7607,12.37841183333333,41,0.14919450000000012,82,0.14919450000000012
7608,12.52760633333333,41,0.14919450000000012,88,0.29453649999999953
7609,12.67680083333333,60,0.14919450000000012,81,0.2906840000000006
7610,12.822142833333329,40,0.14534199999999942,82,0.1453420000000012
7611,12.96748483333333,44,0.1453420000000012,86,0.14534199999999942
7612,13.11282683333333,40,0.14534199999999942,82,0.29338399999999965
7613,13.25951883333333,39,0.14669199999999982,82,0.14669199999999982
7614,13.40621083333333,39,0.14669199999999982,88,0.29252241666666734
7615,13.552902833333329,58,0.14669199999999982,81,0.29117241666666693
7616,13.698733249999997,38,0.14583041666666752,82,0.14534199999999942
7617,13.844075249999996,42,0.14534199999999942,86,0.1453420000000012
7618,13.989417249999997,54,0.1453420000000012,82,0.29129000000000005
7619,14.135062249999997,37,0.14564500000000002,83,0.14564500000000002
7620,14.280707249999997,36,0.14564500000000002,90,0.14564500000000002
7621,14.426352249999997,39,0.14564500000000002,85,0.29926099999999956
7622,14.575169249999997,35,0.1488169999999993,86,0.15044400000000024
7623,14.725613249999997,34,0.15044400000000024,88,0.07299049999999951
7624,14.871859249999996,33,0.14624599999999965,89,0.07352116666666753
7625,15.01916083333333,32,0.1473015833333342,90,0.07413625000000046
7626,15.167705583333332,31,0.148544750000001,91,0.07466400000000029
7627,15.317408583333332,30,0.14970300000000059,92,0.07531158333333288
7628,15.46830625,29,0.15089766666666726,92,0.07586891666666595
7629,15.620416916666667,28,0.15211066666666717,101,0.11199599999999954
7630,15.769744916666667,40,0.14932800000000057,92,0.29865600000000114
7631,15.919072916666666,40,0.1493279999999988,92,0.14932800000000235
7632,16.06840091666667,40,0.14932800000000235,96,0.11199599999999776
7633,16.217728916666665,40,0.14932799999999702,92,0.29865600000000114
7634,16.367056916666666,40,0.14932800000000057,86,0.14932800000000057
7635,16.516384916666667,39,0.14932800000000057,96,0.14634858333333156
7636,16.662733499999998,37,0.14634858333333156,92,0.2957482499999955
7637,16.810208499999995,35,0.14747499999999647,92,0.14827324999999902
7638,16.958481749999994,34,0.14827324999999902,97,0.14907249999999905
7639,17.107554249999993,32,0.14907249999999905,92,0.2985275000000023
7640,17.257446249999994,30,0.14989200000000125,89,0.14863550000000103
7641,17.406081749999995,28,0.14863550000000103,101,0.11161274999999904
7642,17.554898749999996,40,0.1488170000000011,92,0.2976339999999986
7643,17.703715749999997,40,0.1488170000000011,92,0.14881699999999753
7644,17.852532749999995,40,0.14881699999999753,96,0.11161274999999904
7645,18.001349749999996,40,0.1488170000000011,92,0.2967446666666689
7646,18.150166749999997,40,0.1488170000000011,86,0.1479276666666678
7647,18.298094416666665,39,0.1479276666666678,96,0.14659858333333275
7648,18.444692999999997,37,0.14659858333333275,92,0.29628633333332743
7649,18.592343833333327,35,0.14765083333332996,92,0.14863549999999748
7650,18.740979333333325,34,0.14863549999999748,97,0.1496114999999989
7651,18.890590833333324,32,0.1496114999999989,92,0.3017114999999997
7652,19.041303583333324,30,0.15071275000000028,89,0.1509987499999994
7653,19.192302333333323,29,0.1509987499999994,90,0.1488170000000011
7654,19.341119333333324,39,0.1488170000000011,82,0.2976339999999986
7655,19.489936333333322,39,0.14881699999999753,82,0.1488170000000011
7656,19.638753333333323,39,0.1488170000000011,86,0.11161274999999904
7657,19.787570333333324,39,0.1488170000000011,82,0.2976339999999986
7658,19.93638733333332,39,0.14881699999999753,78,0.1488170000000011
7659,20.085204333333323,37,0.1488170000000011,86,0.14572899999999933
7660,20.230933333333322,36,0.14572899999999933,82,0.29337233333333046
7661,20.37726333333332,34,0.14632999999999896,82,0.1470423333333315
7662,20.524305666666653,30,0.1470423333333315,88,0.14773666666666685
7663,20.67204233333332,29,0.14773666666666685,82,0.29761166666666483
7664,20.82049633333332,27,0.14845400000000097,79,0.14915766666666386
7665,20.969653999999984,25,0.14915766666666386,86,0.30094449999999995
7666,21.122325999999983,53,0.15267199999999903,77,0.2965449999999983
7667,21.270598499999984,41,0.14827250000000092,73,0.14827249999999736
7668,21.41887099999998,30,0.14827249999999736,86,0.30133358333333504
7669,21.571387583333316,46,0.15251658333333395,75,0.2976340000000022
7670,21.720204583333317,34,0.1488170000000011,77,0.1488170000000011
7671,21.869021583333318,12,0.1488170000000011,86,0.30125241666666724
7672,22.020575083333316,51,0.15155349999999856,77,0.29902691666666925
7673,22.170273999999985,39,0.14969891666666868,73,0.14932800000000057
7674,22.319601999999986,29,0.14932800000000057,86,0.3025669999999998
7675,22.472273999999985,49,0.15267199999999903,70,0.14989500000000078
7676,22.622168999999985,39,0.14989500000000078,77,0.14989500000000078
7677,22.772063999999986,28,0.14989500000000078,101,0.11242124999999703
7678,22.921958999999983,40,0.14989499999999722,92,0.29979000000000156
7679,23.071853999999984,40,0.14989500000000078,92,0.14989500000000078
7680,23.221748999999985,40,0.14989500000000078,96,0.11242125000000058
7681,23.371643999999986,40,0.14989500000000078,92,0.299789999999998
7682,23.521538999999983,40,0.14989499999999722,86,0.14989500000000078
7683,23.671433999999984,39,0.14989500000000078,96,0.14730333333333334
7684,23.818737333333317,37,0.14730333333333334,92,0.29645724999999956
7685,23.966649833333317,35,0.14791250000000034,92,0.14854474999999923
7686,24.115194583333317,34,0.14854474999999923,97,0.14924283333333221
7687,24.26443741666665,32,0.14924283333333221,92,0.300699250000001
7688,24.41442391666665,30,0.1499865000000007,89,0.15071275000000028
7689,24.56513666666665,28,0.15071275000000028,101,0.1128329999999984
7690,24.71558066666665,40,0.15044400000000024,92,0.3008880000000005
7691,24.86602466666665,40,0.15044400000000024,92,0.15044400000000024
7692,25.01646866666665,40,0.15044400000000024,96,0.1128329999999984
7693,25.16691266666665,40,0.15044400000000024,92,0.3008880000000005
7694,25.31735666666665,40,0.15044400000000024,86,0.15044400000000024
7695,25.46780066666665,39,0.15044400000000024,96,0.14623950000000008
7696,25.61404016666665,37,0.14623950000000008,92,0.2946914166666623
7697,25.760994916666647,35,0.14695474999999547,92,0.14773666666666685
7698,25.908731583333314,34,0.14773666666666685,97,0.14854474999999923
7699,26.057276333333313,32,0.14854474999999923,92,0.29950683333333217
7700,26.206613666666644,30,0.14933733333333166,89,0.1501695000000005
7701,26.356783166666645,29,0.1501695000000005,90,0.15044400000000024
7702,26.507227166666645,39,0.15044400000000024,82,0.3008880000000005
7703,26.657671166666645,39,0.15044400000000024,82,0.15044400000000024
7704,26.808115166666646,39,0.15044400000000024,86,0.1128329999999984
7705,26.958559166666646,39,0.15044400000000024,82,0.3008880000000005
7706,27.109003166666646,39,0.15044400000000024,78,0.15044400000000024
7707,27.259447166666646,37,0.15044400000000024,86,0.1472175
7708,27.406664666666646,36,0.1472175,82,0.29627650000000116
7709,27.554487166666647,34,0.1478225000000002,82,0.14845400000000097
7710,27.702941166666648,30,0.14845400000000097,88,0.14898733333333425
7711,27.851928499999982,29,0.14898733333333425,82,0.2998724999999993
7712,28.00153999999998,27,0.1496114999999989,79,0.15026100000000042
7713,28.15180099999998,25,0.15026100000000042,86,0.3014384999999997
7714,28.30620949999998,53,0.15440849999999884,77,0.29406000000000176
7715,28.45323949999998,41,0.14703000000000088,73,0.14703000000000088
7716,28.600269499999982,30,0.14703000000000088,86,0.29858349999999945
7717,28.75182299999998,46,0.15155349999999856,75,0.29406000000000176
7718,28.89885299999998,34,0.14703000000000088,77,0.14703000000000088
7719,29.045882999999982,24,0.14703000000000088,86,0.2990169999999992
7720,29.19743649999998,51,0.15155349999999856,77,0.29492700000000127
7721,29.34489999999998,39,0.14746350000000064,73,0.14746350000000064
7722,29.492363499999982,17,0.14746350000000064,86,0.30037049999999965
7723,29.64391699999998,49,0.15155349999999856,70,0.1488170000000011
7724,29.79273399999998,39,0.1488170000000011,77,0.14881699999999753
7725,29.94155099999998,25,0.14881699999999753,86,0.2975874999999988
7726,30.09253249999998,53,0.15098150000000032,77,0.2932120000000005
7727,30.239138499999978,41,0.14660599999999846,73,0.146606000000002
7728,30.38574449999998,30,0.146606000000002,86,0.2990169999999992
7729,30.53729799999998,46,0.15155349999999856,75,0.29492700000000127
7730,30.68476149999998,34,0.14746350000000064,77,0.14746350000000064
7731,30.83222499999998,12,0.14746350000000064,86,0.46385399999999777
7732,30.98603949999998,51,0.1538144999999993,77,0.31003949999999847
7733,31.13793799999998,39,0.1518985000000015,73,0.15814099999999698
7734,31.296078999999978,25,0.15814099999999698,81,0.16806700000000063
7735,31.464145999999978,24,0.16806700000000063,84,0.3515529999999991
7736,31.63221299999998,34,0.16806700000000063,77,0.18348599999999848
7737,31.72395599999998,22,0.09174300000000102,81,0.04587150000000051
7738,31.815698999999977,22,0.09174299999999747,92,0.6306150000000024
7739,31.979992499999977,42,0.16429349999999943,75,0.6178365000000063
7740,32.13543299999998,30,0.15544050000000098,70,0.15544049999999743
7741,32.290873499999975,29,0.15544049999999743,70,0.30695550000000793
7742,32.44631399999998,21,0.15544050000000453,84,0.1515150000000034
7743,32.59782899999998,24,0.1515150000000034,80,0.113636249999999
7744,32.74934399999998,24,0.1515149999999963,84,0.5937750000000008
7745,32.90085899999998,45,0.1515150000000034,75,0.5915879999999945
7746,33.04827899999998,33,0.14741999999999678,68,0.14742000000000388
7747,33.19569899999998,46,0.14742000000000388,74,0.2967479999999938
7748,33.34311899999998,25,0.14741999999999678,89,0.14932799999999702
7749,33.49244699999998,22,0.14932799999999702,88,0.14932800000000412
7750,33.64177499999998,24,0.14932800000000412,91,0.5866244999999992
7751,33.79110299999998,45,0.14932799999999702,82,0.5856130000000022
7752,33.93686849999998,33,0.1457655000000031,75,0.145765499999996
7753,34.08263399999998,46,0.145765499999996,82,0.29408200000000306
7754,34.22839949999998,25,0.1457655000000031,97,0.14831649999999996
7755,34.37671599999998,22,0.14831649999999996,96,0.14831649999999996
7756,34.52503249999998,24,0.14831649999999996,101,0.5868490000000008
7757,34.67334899999998,57,0.14831649999999996,92,0.6131935770833294
7758,34.81952649999998,45,0.1461775000000003,82,0.1461775000000003
7759,34.96570399999998,58,0.1461775000000003,90,0.32083857708332886
7760,35.11188149999998,25,0.1461775000000003,107,0.17466107708332856
7761,35.28654257708331,22,0.17466107708332856,105,0.18683450000000335
7762,35.47337707708331,16,0.18683450000000335,110,0.3736689999999996
7763,36.59438407708331,53,1.1210069999999988,101,0.5485125000000011
7764,37.14289657708331,45,0.5485125000000011,97,0.5159645833333357
7765,37.57318616041665,10,0.4302895833333338,105,0.08567500000000194
7766,37.65886116041665,22,0.08567500000000194,68,1.586095499999999
7767,37.68171584791665,29,0.022854687500000637,75,1.5632408124999984
7768,37.70457053541665,34,0.022854687500000637,73,1.5403861249999977
7769,37.72742522291665,37,0.022854687500000637,80,1.517531437499997
7770,37.75027991041665,41,0.022854687500000637,96,1.4946767499999964
7771,37.77313459791665,46,0.022854687500000637,105,1.4718220624999958
7772,0.0,46,0.0,91,1.4323230000000002
7773,1.4323230000000002,47,1.4323230000000002,87,1.4323230000000002
7774,2.8646460000000005,46,1.4323230000000002,89,1.4323230000000002
7775,3.93888825,41,1.0742422499999997,79,0.3580807500000005
7776,4.296969000000001,39,0.3580807500000005,82,1.4398274499999992
7777,5.81297725,42,1.5160082499999996,91,1.4399307499999994
7778,7.252908,44,1.4399307499999994,89,1.4323230000000002
7779,8.685231,42,1.4323230000000002,89,1.4551462500000003
7780,9.759473250000001,37,1.074242250000001,82,0.38090399999999924
7781,10.14037725,39,0.38090399999999924,85,1.447435200000001
7782,11.66399325,41,1.5236160000000005,86,1.4181039999999996
7783,13.08209725,43,1.4181039999999996,87,1.471521833333334
7784,14.553619083333334,46,1.471521833333334,90,1.4181039999999996
7785,15.617197083333334,44,1.0635779999999997,80,0.3545259999999999
7786,15.971723083333334,39,0.3545259999999999,90,1.4181039999999996
7787,17.389827083333333,39,1.4181039999999996,92,1.4181039999999996
7788,18.807931083333333,46,1.4181039999999996,93,1.5236160000000005
7789,20.331547083333334,50,1.5236160000000005,90,1.446829000000001
7790,21.416668833333333,48,1.085121749999999,76,0.36170725000000203
7791,21.778376083333335,46,0.36170725000000203,80,1.5767634500000014
7792,23.438127083333335,46,1.659751,45,1.4781970000000015
7793,24.916324083333336,47,1.4781970000000015,45,1.478196999999998
7794,26.394521083333334,47,1.478196999999998,45,1.4781970000000015
7795,27.503168833333334,45,1.1086477499999994,41,0.36954925000000216
7796,27.872718083333336,53,0.36954925000000216,45,1.478598999999999
7797,29.429138083333335,46,1.5564199999999992,45,1.4781970000000015
7798,30.907335083333336,53,1.4781970000000015,45,1.4781970000000015
7799,32.38553208333334,46,1.4781970000000015,46,1.514601749999997
7800,33.494179833333334,48,1.1086477499999958,44,0.40595400000000126
7801,33.900133833333335,41,0.40595400000000126,46,1.4785990000000027
7802,35.45655383333334,51,1.5564200000000028,49,1.5564199999999957
7803,37.012973833333334,39,1.5564199999999957,49,1.4781970000000015
7804,38.491170833333335,46,1.4781970000000015,53,1.5894040000000018
7805,39.68322383333334,44,1.1920530000000014,45,0.39735100000000045
7806,40.08057483333334,39,0.39735100000000045,49,1.6497833000000028
7807,41.81718883333334,39,1.736614000000003,48,1.5898249999999976
7808,43.40701383333334,44,1.5898249999999976,46,1.529052
7809,44.93606583333334,38,1.529052,48,1.6143265000000042
7810,46.11623883333334,41,1.1801730000000035,44,0.43415350000000075
7811,46.55039233333334,39,0.43415350000000075,44,1.876852300000003
7812,48.52602633333334,54,1.9756339999999994,29,1.4781970000000015
7813,50.00422333333334,54,1.4781970000000015,29,1.4781970000000015
7814,51.482420333333344,47,1.4781970000000015,29,1.5181480000000036
7815,52.60321733333335,45,1.1207970000000032,27,0.39735100000000045
7816,53.00056833333335,46,0.39735100000000045,29,1.4785990000000027
7817,54.55698833333335,46,1.5564200000000028,29,1.4781970000000015
7818,56.03518533333335,53,1.4781970000000015,30,1.4781970000000015
7819,57.513382333333354,50,1.4781970000000015,31,1.5689739999999972
7820,58.66741858333335,48,1.1540362499999972,28,0.41493775
7821,59.08235633333335,46,0.41493775,31,1.4785990000000027
7822,60.638776333333354,46,1.5564200000000028,41,1.5894040000000018
7823,62.228180333333356,47,1.5894040000000018,41,1.6973130000000012
7824,63.92549333333336,41,1.6973130000000012,45,1.7171149999999997
7825,65.16413933333335,44,1.2386459999999957,38,0.47846900000000403
7826,65.64260833333336,39,0.47846900000000403,41,1.9003378124999983
7827,67.66963533333336,42,2.027027000000004,40,1.7777779999999979
7828,69.44741333333336,44,1.7777779999999979,39,1.7777779999999979
7829,71.22519133333336,42,1.7777779999999979,40,1.9481349999999935
7830,72.62488033333335,41,1.399688999999995,36,0.5484459999999984
7831,73.17332633333335,39,0.5484459999999984,36,1.9455250000000035
7832,75.11885133333335,51,1.9455250000000035,63,7.7821
7833,0.0,56,0.0,52,1.800532
7834,0.35502949999999994,32,0.35502949999999994,40,0.29646616666666664
7835,0.6514956666666666,34,0.29646616666666664,40,0.2845812500000001
7836,0.9360769166666667,36,0.2845812500000001,41,0.27896408333333333
7837,1.215041,37,0.27896408333333333,44,0.2884614999999999
7838,1.5035025,39,0.2884614999999999,45,0.29702950000000006
7839,1.800532,53,0.29702950000000006,52,1.0855346666666668
7840,2.1338655,41,0.33333350000000017,36,0.28557466666666675
7841,2.419440166666667,34,0.28557466666666675,44,0.2811321666666666
7842,2.7005723333333336,36,0.2811321666666666,47,0.27824150000000003
7843,2.886066666666667,56,0.1854943333333332,53,0.11678562500000034
7844,2.9788138333333336,54,0.09274716666666682,59,0.6025974999999999
7845,3.2672753333333335,25,0.2884614999999999,40,0.31413599999999997
7846,3.5814113333333335,53,0.31413599999999997,55,1.7459862499999996
7847,3.8859798333333333,34,0.3045684999999998,39,0.2886058333333339
7848,4.174585666666667,36,0.2886058333333339,40,0.28407833333333254
7849,4.458664,38,0.28407833333333254,39,0.27896408333333333
7850,4.737628083333333,39,0.27896408333333333,44,0.2912619999999997
7851,5.028890083333333,41,0.2912619999999997,47,0.29850750000000037
7852,5.327397583333333,46,0.29850750000000037,52,1.1703159999999997
7853,5.643187083333333,42,0.31578950000000017,41,0.28784099999999935
7854,5.931028083333333,36,0.28784099999999935,44,0.28482125000000025
7855,6.215849333333333,38,0.28482125000000025,47,0.2818642499999999
7856,6.497713583333333,39,0.2818642499999999,50,0.2789547500000005
7857,6.776668333333333,42,0.2789547500000005,52,0.2948694999999999
7858,7.071537833333333,48,0.2948694999999999,57,0.6067395000000007
7859,7.3906868333333335,45,0.31914900000000035,42,0.2875905000000003
7860,7.678277333333334,54,0.2875905000000003,58,0.5637454999999996
7861,7.96210325,39,0.28382591666666634,39,0.2799195833333332
7862,8.242022833333333,54,0.2799195833333332,56,0.5868845
7863,8.531877833333333,37,0.2898549999999993,37,0.2970295000000007
7864,8.828907333333333,54,0.2970295000000007,58,0.5469916250000004
7865,9.138185833333333,42,0.30927849999999957,41,0.31835825000000106
7866,9.295253833333334,54,0.15706800000000065,49,0.0806451250000002
7867,9.349017250000001,56,0.053763416666667396,51,0.08064512499999843
7868,9.402780666666667,54,0.05376341666666562,54,0.07757295833333444
7869,9.456544083333334,53,0.053763416666667396,55,0.5681371666666681
7870,9.742032833333335,34,0.28548875000000073,39,0.2826484166666674
7871,10.024681250000002,54,0.2826484166666674,56,0.589969
7872,10.313142750000003,32,0.28846150000000037,36,0.3015074999999996
7873,10.614650250000002,58,0.3015074999999996,57,1.5932269999999988
7874,10.933985833333335,32,0.31933558333333245,41,0.28309516666666745
7875,11.217081000000002,34,0.28309516666666745,41,0.2777780000000014
7876,11.494859000000003,36,0.2777780000000014,36,0.27266449999999764
7877,11.767523500000001,37,0.27266449999999764,41,0.2857144999999992
7878,12.053238,39,0.2857144999999992,36,0.30927849999999957
7879,12.207877250000001,56,0.15463925000000067,48,0.1546392499999989
7880,12.3625165,53,0.1546392499999989,52,1.1820396666666664
7881,12.697712,41,0.3351954999999993,36,0.28301899999999947
7882,12.980730999999999,34,0.28301899999999947,41,0.28235450000000206
7883,13.2630855,36,0.28235450000000206,36,0.28147066666666554
7884,13.544556166666666,37,0.28147066666666554,41,0.28113600000000005
7885,13.825692166666666,39,0.28113600000000005,37,0.3076924999999999
7886,14.133384666666666,61,0.3076924999999999,70,1.7562784166666674
7887,14.452533666666666,41,0.31914899999999946,42,0.2855746666666672
7888,14.738108333333333,43,0.2855746666666672,42,0.28064975000000025
7889,15.018758083333333,45,0.28064975000000025,43,0.27613100000000124
7890,15.294889083333334,46,0.27613100000000124,46,0.2870814999999993
7891,15.581970583333334,48,0.2870814999999993,48,0.3076924999999999
7892,15.889663083333334,49,0.3076924999999999,61,1.6097851666666667
7893,16.217532083333335,37,0.3278690000000015,40,0.2855746666666654
7894,16.50310675,39,0.2855746666666654,40,0.2806497499999985
7895,16.7837565,41,0.2806497499999985,41,0.27613099999999946
7896,17.0598875,42,0.27613099999999946,44,0.285714500000001
7897,17.345602,44,0.285714500000001,48,0.3214439999999996
7898,17.49944825,49,0.15384625000000085,54,0.16759774999999877
7899,17.667046,58,0.16759774999999877,66,1.7513604166666639
7900,17.994915,34,0.32786899999999974,40,0.2855746666666654
7901,18.280489666666664,36,0.2855746666666654,40,0.2806497499999985
7902,18.561139416666663,38,0.2806497499999985,41,0.27613099999999946
7903,18.837270416666662,39,0.27613099999999946,44,0.28113600000000005
7904,19.118406416666662,41,0.28113600000000005,46,0.3000000000000007
7905,19.418406416666663,46,0.3000000000000007,60,0.30456849999999847
7906,19.72297491666666,46,0.30456849999999847,49,0.32058187499999846
7907,19.78547491666666,48,0.0625,49,0.0625
7908,19.84797491666666,46,0.0625,49,0.0625
7909,19.91047491666666,45,0.0625,49,0.06411637500000111
7910,19.974591291666663,46,0.06411637500000111,51,0.06896549999999735
7911,20.04355679166666,54,0.06896549999999735,57,0.576728499999998
7912,20.33388304166666,38,0.2903262499999997,41,0.2864022499999983
7913,20.620285291666658,51,0.2864022499999983,55,0.6032590000000013
7914,20.915851791666658,42,0.2955664999999996,45,0.3076925000000017
7915,21.22354429166666,48,0.3076925000000017,55,0.3370785000000005
7916,21.56062279166666,65,0.3370785000000005,63,0.28407833333333343
7917,21.844701124999993,58,0.28407833333333343,60,0.2792087499999987
7918,22.123909874999992,60,0.2792087499999987,58,0.2747317500000044
7919,22.398641624999996,61,0.2747317500000044,55,0.2768295000000016
7920,22.675471124999998,56,0.2768295000000016,52,0.2917154999999987
7921,22.967186624999997,59,0.2917154999999987,60,0.29171550000000224
7922,23.258902125,57,0.29171550000000224,58,0.28407833333333343
7923,23.542980458333332,51,0.28407833333333343,57,0.2796818333333313
7924,23.822662291666663,53,0.2796818333333313,55,0.2754278333333353
7925,24.098090125,54,0.2754278333333353,54,0.2825924999999998
7926,24.380682625,49,0.2825924999999998,52,0.3208555000000004
7927,24.701538125,25,0.3208555000000004,50,0.30927850000000134
7928,25.010816625,53,0.30927850000000134,55,0.2886058333333317
7929,25.299422458333332,46,0.2886058333333317,54,0.28407833333333343
7930,25.583500791666665,48,0.28407833333333343,52,0.28113600000000005
7931,25.864636791666666,49,0.28113600000000005,50,0.29268300000000025
7932,26.157319791666666,44,0.29268300000000025,47,0.3108809999999984
7933,26.468200791666664,37,0.3108809999999984,51,0.2916399166666679
7934,26.759840708333332,41,0.2916399166666679,44,0.2907929999999972
7935,27.05063370833333,34,0.2907929999999972,41,0.28915824999999984
7936,27.33979195833333,36,0.28915824999999984,38,0.2875415000000032
7937,27.627333458333332,37,0.2875415000000032,36,0.29268300000000025
7938,27.920016458333333,25,0.29268300000000025,32,0.31746049999999926
7939,28.237476958333332,61,0.31746049999999926,90,1.7636734999999994
7940,28.546129124999997,37,0.30865216666666484,49,0.2938584999999989
7941,28.839987624999996,40,0.2938584999999989,53,0.28782500000000155
7942,29.127812624999997,42,0.28782500000000155,48,0.2919710000000002
7943,29.419783624999997,40,0.2919710000000002,55,0.28615050000000153
7944,29.705934125,37,0.28615050000000153,50,0.2952163333333324
7945,30.00115045833333,57,0.2952163333333324,84,1.1537529999999983
7946,30.29187645833333,42,0.2907259999999994,49,0.2907259999999994
7947,30.58260245833333,40,0.2907259999999994,53,0.28615050000000153
7948,30.86875295833333,37,0.28615050000000153,48,0.286150499999998
7949,31.15490345833333,62,0.286150499999998,78,0.5894849999999998
7950,31.44408795833333,42,0.28918450000000107,50,0.30030049999999875
7951,31.74438845833333,61,0.30030049999999875,84,1.7266704999999938
7952,32.03357295833333,37,0.28918450000000107,49,0.2891844999999975
7953,32.32275745833333,40,0.2891844999999975,53,0.286150499999998
7954,32.608907958333326,42,0.286150499999998,48,0.29197099999999665
7955,32.90087895833332,40,0.29197099999999665,55,0.28508999999999673
7956,33.18596895833332,37,0.28508999999999673,50,0.28509000000000384
7957,33.47105895833332,57,0.28509000000000384,80,1.7432620000000014
7958,33.76331395833332,42,0.29225499999999727,49,0.2922550000000044
7959,34.055568958333325,40,0.2922550000000044,53,0.286150499999998
7960,34.34171945833332,37,0.286150499999998,48,0.2861505000000051
7961,34.62786995833333,40,0.2861505000000051,55,0.286150499999998
7962,34.914020458333326,42,0.286150499999998,50,0.30030049999999875
7963,35.214320958333325,64,0.30030049999999875,90,1.1483014999999952
7964,35.50047145833332,37,0.286150499999998,49,0.29197099999999665
7965,35.79244245833332,40,0.29197099999999665,53,0.28508999999999673
7966,36.077532458333316,42,0.28508999999999673,48,0.28509000000000384
7967,36.36262245833332,61,0.28509000000000384,87,0.6001350000000016
7968,36.65818895833332,37,0.2955664999999996,50,0.304568500000002
7969,36.96275745833332,69,0.304568500000002,93,1.1555424166666697
7970,37.24890795833332,42,0.286150499999998,49,0.2861505000000051
7971,37.535058458333324,40,0.2861505000000051,53,0.29126200000000324
7972,37.82632045833333,37,0.29126200000000324,48,0.2919794166666634
7973,38.11829987499999,64,0.2919794166666634,84,0.4666555833333348
7974,38.424515375,42,0.3062155000000075,48,0.32651324999999076
7975,38.584955458333326,62,0.16044008333332727,79,0.1660731666666635
7976,38.75102862499999,62,0.1660731666666635,79,0.5797099999999986
7977,39.04088362499999,37,0.28985500000000286,46,0.28985499999999575
7978,39.33073862499999,61,0.28985499999999575,71,0.5940590000000014
7979,39.62776812499999,42,0.2970295000000007,42,0.2970295000000007
7980,39.92479762499999,40,0.2970295000000007,44,0.29317058333332824
7981,40.21796820833332,37,0.29317058333332824,42,0.29055850000000305
7982,40.50852670833332,40,0.29055850000000305,44,0.28846374999999114
7983,40.79699045833331,42,0.28846374999999114,40,0.2863979999999984
7984,41.08338845833331,40,0.2863979999999984,44,0.2845857500000051
7985,41.367974208333315,37,0.2845857500000051,39,0.2843599999999995
7986,41.652334208333315,40,0.2843599999999995,46,0.2843599999999995
7987,41.936694208333314,42,0.2843599999999995,42,0.2843599999999995
7988,42.221054208333314,61,0.2843599999999995,51,1.7433954999999912
7989,42.52463137499998,40,0.30357716666666335,27,0.286150499999998
7990,42.810781874999975,45,0.286150499999998,29,0.2861505000000051
7991,43.09693237499998,42,0.2861505000000051,27,0.286150499999998
7992,43.38308287499998,43,0.286150499999998,30,0.286150499999998
7993,43.669233374999976,40,0.286150499999998,28,0.29521633333332886
7994,43.964449708333305,57,0.29521633333332886,48,1.1497290000000007
7995,44.2506002083333,42,0.286150499999998,27,0.2933985000000021
7996,44.543998708333305,43,0.2933985000000021,29,0.28508999999999673
7997,44.8290887083333,40,0.28508999999999673,27,0.28509000000000384
7998,45.114178708333306,62,0.28509000000000384,44,0.5958669999999984
7999,45.409745208333305,42,0.2955664999999996,28,0.30030049999999875
8000,45.710045708333304,61,0.30030049999999875,48,1.7260539999999978
8001,46.0007717083333,40,0.2907259999999994,27,0.2907259999999994
8002,46.2914977083333,45,0.2907259999999994,29,0.286150499999998
8003,46.5776482083333,42,0.286150499999998,27,0.2861505000000051
8004,46.863798708333306,43,0.2861505000000051,30,0.286150499999998
8005,47.149949208333304,40,0.286150499999998,28,0.286150499999998
8006,47.4360997083333,57,0.286150499999998,46,1.7336919999999907
8007,47.7222502083333,42,0.286150499999998,27,0.29197099999999665
8008,48.014221208333296,43,0.29197099999999665,29,0.28508999999999673
8009,48.29931120833329,40,0.28508999999999673,27,0.28509000000000384
8010,48.5844012083333,45,0.28509000000000384,30,0.28508999999999673
8011,48.869491208333294,42,0.28508999999999673,28,0.30030049999999875
8012,49.16979170833329,64,0.30030049999999875,51,1.1629039999999975
8013,49.46051770833329,40,0.2907259999999994,27,0.2907259999999994
8014,49.75124370833329,45,0.2907259999999994,29,0.2907259999999994
8015,50.04196970833329,42,0.2907259999999994,27,0.2907259999999994
8016,50.33269570833329,61,0.2907259999999994,49,0.6073489999999993
8017,50.63637020833329,40,0.3036744999999996,28,0.3036744999999996
8018,50.94004470833329,69,0.3036744999999996,52,1.1882349999999988
8019,51.23416220833329,42,0.2941174999999987,27,0.2941174999999987
8020,51.52827970833329,43,0.2941174999999987,29,0.29999999999999716
8021,51.828279708333284,40,0.29999999999999716,27,0.30000000000000426
8022,52.12827970833329,64,0.30000000000000426,48,0.46946341666667024
8023,52.437593708333296,42,0.30931400000000764,28,0.32499791666666056
8024,52.59774312499996,62,0.1601494166666626,46,0.16484849999999796
8025,52.762591624999956,62,0.16484849999999796,46,0.6091369999999969
8026,53.06716012499996,40,0.304568500000002,27,0.3045684999999949
8027,53.37172862499995,61,0.3045684999999949,44,0.5914400833333318
8028,53.669526958333286,42,0.2977983333333327,27,0.29364174999999904
8029,53.963168708333285,43,0.29364174999999904,30,0.2903262499999997
8030,54.253494958333285,40,0.2903262499999997,28,0.2870858333333359
8031,54.54058079166662,45,0.2870858333333359,34,0.2880036666666612
8032,54.82858445833328,42,0.2880036666666612,33,0.2874422500000051
8033,55.11602670833329,43,0.2874422500000051,40,0.2870814999999993
8034,55.403108208333286,40,0.2870814999999993,39,0.2870814999999993
8035,55.690189708333286,43,0.2870814999999993,46,0.2870814999999993
8036,55.977271208333285,39,0.2870814999999993,45,0.2933793333333341
8037,56.27065054166662,56,0.2933793333333341,62,0.6079447374999987
8038,56.59957623541662,44,0.32892569375000136,46,0.2790190437499973
8039,56.87859527916662,46,0.2790190437499973,46,0.26895194166665704
8040,57.147547220833275,48,0.26895194166665704,48,0.2667347749999962
8041,57.41428199583327,49,0.2667347749999962,52,0.2870814999999993
8042,57.70136349583327,51,0.2870814999999993,50,0.2985074999999995
8043,57.99987099583327,53,0.2985074999999995,60,0.3260870000000011
8044,58.32595799583327,44,0.3260870000000011,49,0.2752060458333361
8045,58.60116404166661,46,0.2752060458333361,49,0.2652198437500033
8046,58.86638388541661,48,0.2652198437500033,51,0.2687335583333308
8047,59.13511744374994,49,0.2687335583333308,55,0.2884614999999968
8048,59.42357894374994,53,0.2884614999999968,53,0.2985074999999995
8049,59.72208644374994,58,0.2985074999999995,64,0.5713438124999897
8050,60.027743856249934,46,0.3056574124999969,52,0.2656863999999928
8051,60.29343025624993,48,0.2656863999999928,52,0.2622564812499988
8052,60.555686737499926,50,0.2622564812499988,54,0.26881700000000563
8053,60.82450373749993,51,0.26881700000000563,58,0.2792930500000068
8054,61.10379678749994,53,0.2792930500000068,56,0.29999999999999716
8055,61.403796787499935,54,0.29999999999999716,74,0.5999076187500023
8056,61.72294578749994,46,0.319149000000003,60,0.2807586187499993
8057,62.00370440624994,48,0.2807586187499993,62,0.2715308854166736
8058,62.27523529166661,50,0.2715308854166736,63,0.27167164374998976
8059,62.5469069354166,51,0.27167164374998976,70,0.2884614999999968
8060,62.8353684354166,54,0.2884614999999968,68,0.2985074999999995
8061,63.1338759354166,60,0.2985074999999995,81,0.5800667479166606
8062,63.4387957979166,48,0.30491986250000025,66,0.2751468854166603
8063,63.71394268333326,50,0.2751468854166603,67,0.2682451958333303
8064,63.98218787916659,52,0.2682451958333303,71,0.26466446458333337
8065,64.24685234374992,53,0.26466446458333337,76,0.28406400000000076
8066,64.53091634374992,56,0.28406400000000076,74,0.29171549999999513
8067,64.82263184374992,61,0.29171549999999513,90,0.5844157958333369
8068,65.12075384374992,49,0.29812200000000644,73,0.2862937958333305
8069,65.40704763958325,51,0.2862937958333305,75,0.2758759791666563
8070,65.68292361874991,53,0.2758759791666563,76,0.2696272583333297
8071,65.95255087708324,54,0.2696272583333297,83,0.28406400000000076
8072,66.23661487708324,57,0.28406400000000076,81,0.31545749999999373
8073,66.55207237708323,20,0.31545749999999373,101,0.31545750000000794
8074,66.86752987708324,56,0.31545750000000794,84,0.2932839999999999
8075,67.16081387708324,66,0.2932839999999999,92,0.27881050000000585
8076,67.43962437708325,56,0.27881050000000585,85,0.28735650000000135
8077,67.72698087708325,66,0.28735650000000135,91,0.27881050000000585
8078,68.00579137708326,56,0.27881050000000585,86,0.2851710000000054
8079,68.29096237708326,66,0.2851710000000054,96,0.27881050000000585
8080,68.56977287708327,56,0.27881050000000585,89,0.2830189999999959
8081,68.85279187708326,66,0.2830189999999959,95,0.27675299999999936
8082,69.12954487708326,56,0.27675299999999936,91,0.2830189999999959
8083,69.41256387708326,66,0.2830189999999959,101,0.2830190000000101
8084,69.69558287708327,56,0.2830190000000101,93,0.301446999999996
8085,69.99702987708326,66,0.301446999999996,100,0.28860050000000115
8086,70.28563037708327,65,0.28860050000000115,92,0.28860050000000115
8087,70.57423087708327,58,0.28860050000000115,89,0.2811360000000036
8088,70.85536687708327,60,0.2811360000000036,78,0.2884614999999968
8089,71.14382837708327,61,0.2884614999999968,85,0.2803739999999948
8090,71.42420237708326,56,0.2803739999999948,76,0.280374000000009
8091,71.70457637708327,59,0.280374000000009,80,0.27907000000000437
8092,71.98364637708328,57,0.27907000000000437,76,0.27906999999999016
8093,72.26271637708327,51,0.27906999999999016,75,0.27907000000000437
8094,72.54178637708327,53,0.27907000000000437,72,0.27907000000000437
8095,72.82085637708327,54,0.27907000000000437,76,0.27906999999999016
8096,73.09992637708326,49,0.27906999999999016,69,0.2932839999999999
8097,73.39321037708326,52,0.2932839999999999,78,0.2825925000000069
8098,73.67580287708327,51,0.2825925000000069,70,0.2825924999999927
8099,73.95839537708326,46,0.2825924999999927,70,0.2825925000000069
8100,74.24098787708327,47,0.2825925000000069,66,0.28571449999999743
8101,74.52670237708327,48,0.28571449999999743,70,0.28168999999999755
8102,74.80839237708327,42,0.28168999999999755,65,0.2965015000000051
8103,75.10489387708327,45,0.2965015000000051,73,0.28557849999999974
8104,75.39047237708327,44,0.28557849999999974,65,0.28557849999999974
8105,75.67605087708327,39,0.28557849999999974,70,0.28482125000000735
8106,75.96087212708328,41,0.28482125000000735,60,0.28809683333332714
8107,76.2489689604166,42,0.28809683333332714,69,0.6517899999999912
8108,76.5598499604166,36,0.31088099999999486,62,0.34090899999999635
8109,76.9007589604166,41,0.34090899999999635,73,0.3241977500000104
8110,77.2249567104166,31,0.3241977500000104,43,0.2917380000000094
8111,77.51669471041662,32,0.2917380000000094,47,0.28985500000000286
8112,77.80654971041662,37,0.28985500000000286,43,0.28985499999998865
8113,78.0964047104166,36,0.28985499999998865,43,0.2941174999999987
8114,78.3905222104166,34,0.2941174999999987,43,0.2941174999999987
8115,78.6846397104166,20,0.2941174999999987,55,0.31545749999999373
8116,79.0000972104166,54,0.31545749999999373,56,0.29486950000000434
8117,79.2949667104166,48,0.29486950000000434,54,0.2935482500000006
8118,79.5885149604166,49,0.2935482500000006,50,0.29145216666665874
8119,79.87996712708326,51,0.29145216666665874,50,0.6083195000000075
8120,80.17646862708327,45,0.2965015000000051,47,0.31181800000000237
8121,80.48828662708327,53,0.31181800000000237,58,0.6297025000000076
8122,80.81317312708327,31,0.3248865000000052,43,0.3048160000000024
8123,81.11798912708328,32,0.3048160000000024,46,0.2926829999999967
8124,81.41067212708327,37,0.2926829999999967,39,0.2926829999999967
8125,81.70335512708327,36,0.2926829999999967,43,0.2941174999999987
8126,81.99747262708327,34,0.2941174999999987,37,0.2941174999999987
8127,82.29159012708327,20,0.2941174999999987,54,0.31545749999999373
8128,82.60704762708326,54,0.31545749999999373,56,0.29486950000000434
8129,82.90191712708327,48,0.29486950000000434,54,0.2935482500000006
8130,83.19546537708327,49,0.2935482500000006,50,0.29145216666665874
8131,83.48691754374993,51,0.29145216666665874,50,0.621177000000003
8132,83.78341904374993,45,0.2965015000000051,47,0.3246754999999979
8133,84.10809454374993,53,0.3246754999999979,58,0.6297025000000076
8134,84.43298104374993,19,0.3248865000000052,43,0.3048160000000024
8135,84.73779704374994,20,0.3048160000000024,46,0.29486950000000434
8136,85.03266654374994,25,0.29486950000000434,39,0.2948694999999901
8137,85.32753604374993,24,0.2948694999999901,43,0.3031220000000019
8138,85.63065804374993,22,0.3031220000000019,37,0.31120350000000485
8139,85.94186154374994,41,0.31120350000000485,58,1.8133775000000156
8140,86.84114154374994,39,0.8992800000000045,54,0.301446999999996
8141,87.14258854374994,42,0.301446999999996,58,0.6126505000000151
8142,87.44403554374995,41,0.30144700000001023,51,0.31120350000000485
8143,87.75523904374995,44,0.31120350000000485,57,1.8316035
8144,88.08012554374996,19,0.3248865000000052,43,0.3048160000000024
8145,88.38494154374996,20,0.3048160000000024,46,0.29486950000000434
8146,88.67981104374996,25,0.29486950000000434,39,0.2948694999999901
8147,88.97468054374995,24,0.2948694999999901,43,0.29486950000000434
8148,89.26955004374996,22,0.29486950000000434,37,0.31729249999999354
8149,89.58684254374995,41,0.31729249999999354,58,1.8036210000000068
8150,90.48612254374996,39,0.8992800000000045,54,0.301446999999996
8151,90.78756954374995,42,0.301446999999996,58,0.6028940000000063
8152,91.08901654374996,41,0.30144700000001023,51,0.301446999999996
8153,91.39046354374996,44,0.301446999999996,57,5.397859500000024
8154,91.71535004374996,19,0.3248865000000052,43,0.3048160000000024
8155,92.02016604374997,20,0.3048160000000024,46,0.29486950000000434
8156,92.31503554374997,25,0.29486950000000434,39,0.2948694999999901
8157,92.60990504374996,24,0.2948694999999901,43,0.29486950000000434
8158,92.90477454374997,22,0.29486950000000434,37,0.29486950000000434
8159,93.19964404374997,13,0.29486950000000434,50,0.3100455000000011
8160,93.50968954374997,19,0.3100455000000011,43,0.3048160000000024
8161,93.81450554374997,20,0.3048160000000024,50,0.29486950000000434
8162,94.10937504374998,25,0.29486950000000434,43,0.2948694999999901
8163,94.40424454374997,24,0.2948694999999901,51,0.29486950000000434
8164,94.69911404374997,22,0.29486950000000434,48,0.29486950000000434
8165,94.99398354374998,13,0.29486950000000434,50,0.3100455000000011
8166,95.30402904374998,19,0.3100455000000011,43,0.3048160000000024
8167,95.60884504374998,20,0.3048160000000024,50,0.29486950000000434
8168,95.89019969166665,27,0.28135464791667175,43,0.2948694999999901
8169,96.19858404374997,24,0.3083843520833227,51,0.29486950000000434
8170,96.49345354374998,25,0.29486950000000434,48,0.29486950000000434
8171,96.78832304374998,30,0.29486950000000434,56,0.2948694999999901
8172,97.08319254374997,28,0.2948694999999901,53,0.29486950000000434
8173,97.37806204374998,29,0.29486950000000434,61,0.301084000000003
8174,97.67914604374998,34,0.301084000000003,55,0.301084000000003
8175,97.98023004374998,31,0.301084000000003,62,0.31107400000000496
8176,98.29130404374999,32,0.31107400000000496,58,0.35868000000000677
8177,98.64998404375,41,0.35868000000000677,69,0.7173599999999993
8178,100.80206404375,44,2.152079999999998,71,2.152079999999998
8179,102.95414404374999,41,2.152079999999998,72,2.152079999999998
8180,0.0,49,0.0,80,0.5767279999999999
8181,0.5767279999999999,49,0.5767279999999999,74,0.07107649999999999
8182,0.7188809999999999,49,0.14215299999999997,70,0.07107649999999999
8183,0.8610339999999999,49,0.14215299999999997,79,0.5686120000000001
8184,1.429646,49,0.5686120000000001,75,0.06713499999999994
8185,1.5639159999999999,49,0.1342699999999999,69,0.06713500000000017
8186,1.698186,49,0.1342700000000001,78,0.26854
8187,1.966726,49,0.26854,72,0.06713499999999994
8188,2.100996,49,0.1342699999999999,67,0.06713499999999994
8189,2.235266,49,0.13427000000000033,74,0.2685399999999998
8190,2.503806,49,0.2685399999999998,69,0.0697675000000002
8191,2.643341,49,0.13953499999999996,66,0.0697675000000002
8192,2.782876,49,0.13953499999999996,73,0.27906999999999993
8193,3.061946,49,0.27906999999999993,59,0.0697675000000002
8194,3.2014810000000002,49,0.1395350000000004,59,0.07313849999999977
8195,3.3477580000000002,49,0.146277,72,0.2721580000000001
8196,3.6199160000000004,53,0.2721580000000001,60,0.18977125000000017
8197,3.7475755000000004,54,0.12765950000000004,49,0.13528545833333316
8198,3.871799,56,0.12422349999999982,57,0.20063224999999996
8199,4.14032,49,0.2685209999999998,67,0.13274350000000013
8200,4.405807,54,0.26548700000000025,64,0.1884882500000007
8201,4.533195500000001,56,0.12738850000000035,48,0.13309274999999943
8202,4.655395,58,0.1221994999999998,56,0.1960784999999996
8203,4.9168330000000005,49,0.26143800000000006,72,0.1290325000000001
8204,5.174898000000001,56,0.2580650000000002,67,0.18987375000000029
8205,5.3014805,58,0.1265824999999996,52,0.13743462500000092
8206,5.428063000000001,59,0.1265825000000005,75,0.19533824999999982
8207,5.6885140000000005,58,0.26045099999999977,82,0.5084740000000005
8208,5.942751,40,0.2542369999999998,62,0.1271184999999999
8209,6.196988000000001,31,0.2542370000000007,70,0.2697479999999999
8210,6.331862000000001,61,0.13487399999999994,58,0.13487399999999994
8211,6.466736000000001,58,0.13487399999999994,63,0.5224787083333329
8212,6.729894000000001,63,0.2631579999999998,52,0.1369714583333339
8213,6.856744000000001,61,0.12685000000000013,48,0.13247070833333296
8214,6.978201500000001,51,0.1214575,54,0.13215850000000007
8215,7.242518500000001,59,0.26431700000000014,67,0.5074289999999992
8216,7.501697500000001,61,0.2591789999999996,47,0.18715025000000018
8217,7.627748,59,0.12605049999999984,44,0.13316970833333297
8218,7.7499475,49,0.1221994999999998,54,0.13164249999999988
8219,8.0132325,58,0.26328500000000066,66,0.5051495000000017
8220,8.269281500000002,59,0.25604900000000086,59,0.1874987499999996
8221,8.395178500000002,58,0.12589700000000015,53,0.13451829166666762
8222,8.518382000000003,56,0.12320350000000069,59,0.13577749999999966
8223,8.789937000000002,56,0.2715549999999993,64,0.7866900000000001
8224,9.050388000000002,58,0.26045099999999977,60,0.19327424999999998
8225,9.179237500000001,56,0.1288494999999994,49,0.1400386666666673
8226,9.308087000000002,37,0.12884950000000117,57,0.13427000000000078
8227,9.576627000000002,49,0.2685399999999998,65,0.1360790000000005
8228,9.848785000000001,53,0.27215799999999923,49,0.1910980000000002
8229,9.97699,54,0.12820499999999946,60,0.13658512499999986
8230,10.102776,53,0.12578599999999973,63,0.19747824999999963
8231,10.368143,49,0.26536699999999946,69,0.13193200000000083
8232,10.631401416666666,54,0.26325841666666605,68,0.18764174999999916
8233,10.757187416666666,56,0.12578599999999973,64,0.13426004166666772
8234,10.880898916666666,58,0.12371150000000064,73,0.18987375000000029
8235,11.134063916666666,49,0.2531649999999992,76,0.1277519999999992
8236,11.389567916666666,56,0.2555040000000002,72,0.18728175000000036
8237,11.514422416666665,58,0.12485449999999965,62,0.1358488333333323
8238,11.639276916666665,59,0.12485449999999965,75,0.19789800000000035
8239,11.903140916666665,61,0.2638639999999999,89,0.38005199999999917
8240,12.156508916666665,37,0.25336800000000004,42,0.12668399999999913
8241,12.283192916666664,61,0.12668399999999913,74,0.1266840000000009
8242,12.409876916666665,52,0.1266840000000009,80,0.2697479999999999
8243,12.544750916666665,58,0.13487399999999994,73,0.13487399999999994
8244,12.679624916666665,52,0.13487399999999994,64,0.5110634999999988
8245,12.809573916666665,61,0.12994899999999987,72,0.14050600000000024
8246,12.939522916666665,63,0.12994899999999987,64,0.1370574583333326
8247,13.066206916666664,61,0.12668399999999913,58,0.1353813749999997
8248,13.190688416666664,59,0.12448149999999991,54,0.13079849999999915
8249,13.452285416666664,50,0.2615970000000001,65,0.510985999999999
8250,13.581406416666663,59,0.1291209999999996,69,0.1397227499999989
8251,13.710527416666663,61,0.1291209999999996,65,0.25274399999999986
8252,13.837748416666663,59,0.12722100000000047,63,0.13656541666666655
8253,13.963271416666663,58,0.12552299999999939,51,0.13250900000000065
8254,14.228289416666662,49,0.26501799999999953,63,0.5556280000000005
8255,14.365607916666661,58,0.13731849999999923,46,0.14902645833333494
8256,14.502926416666662,59,0.137318500000001,58,0.2809910000000002
8257,14.643421916666663,58,0.1404955000000001,45,0.15251066666666624
8258,14.783917416666663,56,0.1404955000000001,50,0.5674340000000004
8259,15.072281416666662,54,0.2883639999999996,59,0.2790700000000008
8260,15.351351416666663,49,0.2790700000000008,57,0.06976749999999932
8261,15.490886416666662,49,0.13953499999999863,50,0.06976750000000109
8262,15.630421416666662,49,0.1395350000000004,56,0.06976749999999932
8263,15.769956416666663,49,0.1395350000000004,58,0.07313850000000066
8264,15.916233416666662,49,0.14627699999999955,78,0.27215799999999923
8265,16.18839141666666,53,0.27215799999999923,65,0.19427824999999999
8266,16.31911041666666,54,0.13071899999999914,57,0.13818045833333414
8267,16.446228916666662,56,0.1271185000000017,66,0.20063225000000173
8268,16.714749916666662,49,0.2685209999999998,69,0.13274350000000013
8269,16.980236916666662,54,0.26548700000000025,66,0.19191350000000185
8270,17.108992416666663,56,0.12875550000000047,56,0.13720924999999795
8271,17.235308416666662,58,0.1263159999999992,73,0.1960784999999987
8272,17.49674641666666,49,0.2614379999999983,77,0.129032500000001
8273,17.75481141666666,56,0.25806499999999843,75,0.1881842500000026
8274,17.88139391666666,58,0.12658250000000137,58,0.13405562499999846
8275,18.00459741666666,59,0.12320349999999891,75,0.19533824999999894
8276,18.26504841666666,58,0.26045099999999977,85,0.5067360000000001
8277,18.518416416666657,40,0.25336799999999826,56,0.1266840000000009
8278,18.77178441666666,58,0.2533680000000018,69,0.2697479999999999
8279,18.90665841666666,58,0.13487399999999994,47,0.13487399999999994
8280,19.04153241666666,58,0.13487399999999994,65,0.5148095000000019
8281,19.30526841666666,63,0.2637360000000015,53,0.13720195833333548
8282,19.43211841666666,61,0.12685000000000102,49,0.13526104166666642
8283,19.55634191666666,59,0.12422349999999938,51,0.13245050000000091
8284,19.821242916666662,59,0.26490100000000183,68,0.5081185000000019
8285,20.079863916666664,61,0.25862100000000154,47,0.24949750000000037
8286,20.205649916666665,59,0.1257860000000015,46,0.13468170833333204
8287,20.329361416666664,58,0.12371149999999886,53,0.13164250000000166
8288,20.592646416666664,49,0.26328499999999977,68,0.5056574999999981
8289,20.848695416666665,59,0.25604900000000086,51,0.24960849999999724
8290,20.974592416666663,58,0.12589699999999837,49,0.1350262916666658
8291,21.098303916666662,56,0.12371149999999886,61,0.13577749999999966
8292,21.36985891666666,56,0.2715549999999993,74,0.7866900000000001
8293,21.63030991666666,58,0.26045099999999977,69,0.2576989999999988
8294,21.759159416666662,56,0.12884950000000117,53,0.14003866666666553
8295,21.88800891666666,46,0.12884949999999762,68,0.13427000000000078
8296,22.15654891666666,49,0.26854000000000156,70,0.13607899999999873
8297,22.428706916666663,53,0.272158000000001,68,0.19015950000000004
8298,22.556366416666663,54,0.12765950000000004,60,0.1357758750000002
8299,22.681366416666663,56,0.125,63,0.1971992500000006
8300,22.94645441666666,49,0.26508799999999866,72,0.13193199999999905
8301,23.209712833333327,54,0.26325841666666605,65,0.18648549999999986
8302,23.334973833333326,56,0.1252609999999983,60,0.13301983333333212
8303,23.457422833333325,58,0.12244899999999959,68,0.19027499999999975
8304,23.711122833333324,49,0.2536999999999985,76,0.12775200000000098
8305,23.966626833333322,56,0.2555039999999984,77,0.186079000000003
8306,24.091481333333324,58,0.12485450000000142,70,0.13344333333333225
8307,24.213930333333323,56,0.12244899999999959,77,0.19789799999999858
8308,24.477794333333325,58,0.26386400000000165,84,0.38005199999999917
8309,24.731162333333323,37,0.25336799999999826,48,0.1266840000000009
8310,24.857846333333324,61,0.1266840000000009,72,0.1266840000000009
8311,24.984530333333325,52,0.1266840000000009,80,0.2697479999999999
8312,25.119404333333325,58,0.13487399999999994,65,0.13487399999999994
8313,25.254278333333325,52,0.13487399999999994,67,0.513265999999998
8314,25.384227333333325,61,0.12994899999999987,58,0.14050599999999847
8315,25.514176333333324,63,0.12994899999999987,48,0.1372409999999995
8316,25.640860333333325,61,0.1266840000000009,60,0.13758387499999714
8317,25.767544333333323,59,0.12668399999999735,54,0.13079850000000093
8318,26.02914133333332,50,0.2615969999999983,70,0.5126840000000001
8319,26.158262333333322,59,0.12912100000000137,69,0.13972274999999712
8320,26.28738333333332,61,0.12912099999999782,45,0.1908315000000016
8321,26.41460433333332,59,0.1272209999999987,65,0.13826341666666764
8322,26.54182533333332,58,0.12722100000000225,55,0.13250899999999888
8323,26.806843333333322,49,0.2650180000000013,65,0.5556279999999987
8324,26.94416183333332,58,0.13731849999999923,50,0.1490264583333314
8325,27.08148033333332,59,0.13731849999999923,44,0.2809910000000002
8326,27.22197583333332,58,0.1404955000000001,62,0.15251066666666802
8327,27.36247133333332,56,0.1404955000000001,57,0.2883640000000014
8328,27.650835333333323,46,0.2883640000000014,48,0.5446740000000005
8329,27.929905333333323,54,0.2790700000000008,53,0.26560399999999973
8330,28.062707333333325,54,0.13280200000000164,64,0.06640099999999904
8331,28.195509333333323,54,0.1328019999999981,67,0.26560399999999973
8332,28.328311333333325,54,0.13280200000000164,69,0.06640099999999904
8333,28.461113333333323,54,0.1328019999999981,75,0.26328499999999977
8334,28.592755833333324,54,0.13164250000000166,64,0.06582124999999905
8335,28.724398333333323,54,0.1316424999999981,75,0.19746375000000072
8336,28.856040833333324,54,0.13164250000000166,74,0.06582124999999905
8337,28.987683333333322,54,0.1316424999999981,69,0.20076700000000258
8338,29.119325833333324,54,0.13164250000000166,69,0.06912450000000092
8339,29.257574833333322,56,0.1382489999999983,65,0.24717800000000167
8340,29.38116383333332,54,0.12358899999999906,58,0.13388808333333557
8341,29.504752833333324,51,0.12358900000000261,56,0.18538349999999681
8342,29.628341833333323,47,0.12358899999999906,49,0.13388808333333202
8343,29.751930833333322,42,0.12358899999999906,49,0.18538350000000037
8344,29.87551983333332,43,0.12358899999999906,51,0.12358900000000261
8345,29.999108833333324,44,0.12358900000000261,58,0.24717533333333463
8346,30.12252849999999,44,0.12341966666666693,51,0.06183616666666936
8347,30.24628416666666,44,0.12375566666666771,55,0.18639133333333646
8348,30.370461499999994,44,0.12417733333333558,51,0.06221400000000088
8349,30.494975499999995,44,0.12451400000000135,54,0.18754566666666506
8350,30.619918499999994,44,0.12494299999999825,58,0.0626026666666668
8351,30.74520916666666,42,0.12529066666666466,61,0.2508208749999987
8352,30.870782041666658,47,0.12557287499999958,53,0.13567466666666306
8353,30.996030041666657,51,0.12524799999999914,48,0.18722087499999773
8354,31.120950916666654,54,0.12492087499999727,64,0.13489733333333476
8355,31.245486416666655,59,0.12453550000000035,61,0.18620200000000153
8356,31.369704916666652,55,0.12421849999999779,52,0.12388216666666807
8357,31.49358708333332,29,0.12388216666666807,55,0.25336799999999826
8358,31.62027108333332,56,0.1266840000000009,44,0.06334199999999868
8359,31.74695508333332,56,0.12668399999999735,68,0.19002600000000314
8360,31.87363908333332,56,0.1266840000000009,60,0.06334200000000223
8361,32.00032308333332,56,0.1266840000000009,53,0.19002600000000314
8362,32.12700708333332,56,0.12668399999999735,73,0.06334200000000578
8363,32.25369108333332,56,0.12668400000000446,77,0.26442200000000327
8364,32.34183174999999,58,0.08814066666666776,55,0.09915825000000211
8365,32.42997241666666,56,0.08814066666666776,55,0.09908733333333686
8366,32.518113083333326,54,0.08814066666666776,65,0.19760879166666712
8367,32.64968612499999,59,0.1315730416666625,57,0.1433074166666657
8368,32.78192670833332,63,0.13224058333333488,51,0.13297058333333212
8369,33.05640679166665,68,0.27448008333333007,66,0.268888000000004
8370,33.314648791666656,66,0.25824200000000275,51,0.19162800000000146
8371,33.44240079166666,64,0.12775200000000098,45,0.13872220833333415
8372,33.57015279166666,58,0.12775200000000098,50,0.1316424999999981
8373,33.83343779166666,61,0.2632850000000033,58,0.26891070833333686
8374,34.091679791666664,59,0.25824200000000275,43,0.2560489999999973
8375,34.219704291666666,54,0.1280245000000022,44,0.1389477499999927
8376,34.34772879166666,51,0.1280244999999951,38,0.13107899999999972
8377,34.60988679166666,54,0.26215799999999945,48,0.2632850000000033
8378,34.74152929166666,54,0.1316424999999981,44,0.06582124999999905
8379,34.873171791666664,54,0.1316425000000052,65,0.19746374999999716
8380,35.00481429166666,54,0.1316424999999981,69,0.06582124999999905
8381,35.13645679166666,54,0.1316424999999981,63,0.20076699999999903
8382,35.26809929166666,54,0.1316424999999981,71,0.06912450000000092
8383,35.40634829166666,56,0.13824900000000184,61,0.24717799999999812
8384,35.52993729166666,54,0.12358900000000261,59,0.13388808333333202
8385,35.65352629166666,51,0.12358899999999551,52,0.18538350000000037
8386,35.77711529166666,47,0.12358900000000261,52,0.13388808333333202
8387,35.90070429166666,39,0.12358900000000261,52,0.18538349999999326
8388,36.02429329166666,43,0.12358899999999551,55,0.12358900000000261
8389,36.14788229166666,44,0.12358900000000261,57,0.24667000000000172
8390,36.27121729166666,44,0.12333499999999731,47,0.06166750000000576
8391,36.39455229166666,44,0.12333500000000441,59,0.18500249999999596
8392,36.51788729166666,44,0.12333499999999731,55,0.061667499999998654
8393,36.641222291666665,44,0.12333500000000441,61,0.18500249999999596
8394,36.76455729166666,44,0.12333499999999731,63,0.061667499999998654
8395,36.88789229166666,42,0.12333499999999731,58,0.24667000000000172
8396,37.011227291666664,47,0.12333500000000441,54,0.13361291666666375
8397,37.13456229166666,51,0.12333499999999731,50,0.18500250000000307
8398,37.25789729166666,54,0.12333499999999731,43,0.13361291666667086
8399,37.38123229166666,59,0.12333500000000441,52,0.24669116666666469
8400,37.50456729166666,55,0.12333499999999731,47,0.12335616666666738
8401,37.62792345833333,56,0.12335616666666738,58,0.2533680000000018
8402,37.754607458333325,56,0.12668399999999735,50,0.06334200000000578
8403,37.88129145833333,56,0.12668400000000446,61,0.19002599999999603
8404,38.00797545833333,56,0.12668399999999735,57,0.06334199999999868
8405,38.134659458333324,56,0.12668399999999735,65,0.19002600000000314
8406,38.26134345833333,56,0.12668400000000446,65,0.06334199999999868
8407,38.388027458333326,56,0.12668399999999735,75,0.26442200000000327
8408,38.476168124999994,58,0.08814066666666776,55,0.09915825000000211
8409,38.56430879166666,56,0.08814066666666776,55,0.09908733333333686
8410,38.65244945833333,54,0.08814066666666776,66,0.19760879166666712
8411,38.78402249999999,59,0.1315730416666625,64,0.1433074166666657
8412,38.91626308333333,63,0.13224058333333488,60,0.13301983333333567
8413,39.18653441666667,68,0.27027133333334064,67,0.268888000000004
8414,39.44477641666667,66,0.25824200000000275,52,0.19162800000000146
8415,39.57252841666667,64,0.12775200000000098,48,0.13872220833333415
8416,39.70028041666667,58,0.12775200000000098,52,0.1316424999999981
8417,39.963565416666675,59,0.2632850000000033,65,0.8005799999999965
8418,40.22685041666667,47,0.2632849999999962,35,0.2632850000000033
8419,40.490135416666675,51,0.2632850000000033,55,0.274009999999997
8420,40.53580375000001,53,0.045668333333331645,49,0.045668333333331645
8421,40.58147208333334,51,0.045668333333331645,65,0.04566833333333875
8422,40.62714041666668,53,0.04566833333333875,53,0.045668333333331645
8423,40.67280875000001,51,0.045668333333331645,67,0.045668333333331645
8424,40.71847708333334,50,0.045668333333331645,56,0.045668333333331645
8425,40.76414541666667,49,0.045668333333331645,87,0.28293387499999767
8426,41.03630341666667,53,0.27215799999999746,62,0.19220350000000508
8427,41.16561391666667,54,0.12931050000000255,62,0.1367509166666636
8428,41.29139991666667,56,0.12578599999999796,67,0.19946775000000372
8429,41.558756416666675,49,0.2673565000000053,85,0.2638639999999981
8430,41.82262041666667,54,0.2638639999999981,73,0.1902899999999974
8431,41.95027991666667,56,0.12765950000000004,69,0.13603687500000206
8432,42.075540916666675,58,0.12526100000000184,76,0.19396574999999672
8433,42.33416191666667,49,0.258620999999998,87,0.25550400000000195
8434,42.589665916666675,56,0.25550400000000195,73,0.18697775000000405
8435,42.71504191666668,58,0.12537600000000282,68,0.134055625000002
8436,42.83824541666668,59,0.12320350000000246,83,0.19533824999999894
8437,43.098696416666684,58,0.2604510000000033,77,0.5067359999999965
8438,43.352064416666686,37,0.2533680000000018,61,0.12668399999999735
8439,43.60543241666668,58,0.2533679999999947,75,0.1348740000000035
8440,43.740306416666684,58,0.1348740000000035,69,0.13487399999999639
8441,43.87518041666668,58,0.13487399999999639,70,0.5099355000000045
8442,44.13563141666668,63,0.2604510000000033,59,0.13561295833333276
8443,44.260892416666685,61,0.12526100000000184,50,0.1352178333333356
8444,44.385115916666685,59,0.12422349999999938,53,0.13193199999999905
8445,44.64897991666668,59,0.2638639999999981,69,0.5055639999999997
8446,44.90557691666668,61,0.2565969999999993,47,0.24896700000000038
8447,45.03057691666668,59,0.125,46,0.13493720833333356
8448,45.15454391666668,58,0.12396700000000038,52,0.1316424999999981
8449,45.417828916666686,58,0.2632850000000033,66,0.5047604999999962
8450,45.67387791666668,59,0.2560489999999973,53,0.24871149999999886
8451,45.79887791666668,58,0.125,47,0.13502629166666225
8452,45.92258941666668,47,0.12371149999999886,56,0.13577750000000322
8453,46.19414441666668,56,0.2715549999999993,64,0.7866900000000072
8454,46.454595416666685,58,0.2604510000000033,52,0.19327425000000176
8455,46.583444916666686,56,0.12884950000000117,48,0.1400386666666691
8456,46.71229441666669,46,0.12884950000000117,53,0.13427000000000078
8457,46.98083441666669,49,0.26854000000000156,44,0.13577750000000322
8458,47.11661191666669,53,0.13577750000000322,46,0.13560254166666397
8459,47.252214458333356,54,0.13560254166666397,57,0.19619300000000095
8460,47.383153208333354,55,0.13093874999999855,44,0.13036699999999968
8461,47.513520208333354,56,0.13036699999999968,56,0.19767441666666485
8462,47.77908337500002,49,0.26556316666666646,65,0.1316424999999981
8463,47.91072587500002,53,0.1316424999999981,63,0.1313134166666643
8464,48.04203929166668,54,0.1313134166666643,57,0.19114766666666583
8465,48.16948629166668,56,0.12744699999999654,51,0.1273111666666722
8466,48.29679745833335,54,0.1273111666666722,64,0.1905899583333266
8467,48.55082058333334,49,0.25402312499998914,68,0.12722333333332614
8468,48.67804391666667,55,0.12722333333332614,73,0.12639937500000542
8469,48.80444329166667,56,0.12639937500000542,70,0.1872817499999968
8470,48.92929779166667,58,0.12485449999999787,64,0.12485450000000498
8471,49.054152291666675,59,0.12485450000000498,80,0.19789800000000213
8472,49.31801629166667,61,0.2638639999999981,74,0.38005199999999917
8473,49.571384291666675,37,0.2533680000000018,54,0.12668399999999735
8474,49.69806829166667,61,0.12668399999999735,44,0.14598550000000188
8475,49.844053791666674,52,0.14598550000000188,62,0.2843599999999995
8476,49.98623379166668,58,0.1421800000000033,52,0.1421799999999962
8477,50.128413791666674,52,0.1421799999999962,48,0.510038999999999
8478,50.25836279166668,61,0.12994900000000342,56,0.1405059999999949
8479,50.38831179166667,63,0.12994899999999632,54,0.13697208333333322
8480,50.51499579166667,61,0.12668399999999735,51,0.1343568750000017
8481,50.63845279166667,59,0.12345700000000193,56,0.13079849999999738
8482,50.900049791666675,50,0.26159700000000186,47,0.5096865000000008
8483,51.02917079166667,59,0.12912099999999782,51,0.13972275000000423
8484,51.15829179166668,61,0.12912100000000493,54,0.18933274999999838
8485,51.285512791666676,59,0.1272209999999987,50,0.13526591666666832
8486,51.409736291666675,58,0.12422349999999938,50,0.13250899999999888
8487,51.67475429166667,49,0.26501799999999776,63,0.5556279999999987
8488,51.81207279166667,58,0.13731849999999923,46,0.1490264583333314
8489,51.94939129166667,59,0.13731849999999923,59,0.2809910000000002
8490,52.08988679166667,58,0.1404955000000001,54,0.15251066666666446
8491,52.23038229166667,56,0.1404955000000001,50,0.5674339999999987
8492,52.51874629166667,54,0.2883640000000014,45,0.27906999999999726
8493,52.79781629166667,54,0.27906999999999726,59,0.06640099999999904
8494,52.93061829166667,54,0.1328019999999981,52,0.06640099999999904
8495,53.063420291666674,54,0.1328020000000052,61,0.2656039999999962
8496,53.19622229166667,54,0.1328019999999981,57,0.06640099999999904
8497,53.32902429166667,54,0.1328019999999981,64,0.2632850000000033
8498,53.46066679166667,54,0.1316424999999981,67,0.06582124999999905
8499,53.59230929166667,54,0.1316425000000052,70,0.19746374999999716
8500,53.72395179166667,54,0.1316424999999981,64,0.06582124999999905
8501,53.85559429166667,54,0.1316424999999981,71,0.20076699999999903
8502,53.98723679166667,54,0.1316424999999981,67,0.06912450000000092
8503,54.12548579166667,56,0.13824900000000184,61,0.24717799999999812
8504,54.24907479166667,54,0.12358900000000261,57,0.12358899999999551
8505,54.37266379166667,51,0.12358899999999551,50,0.18538350000000037
8506,54.49625279166667,47,0.12358900000000261,56,0.12358900000000261
8507,54.61984179166667,42,0.12358900000000261,51,0.18538349999999326
8508,54.74343079166667,43,0.12358899999999551,55,0.12358900000000261
8509,54.86701979166667,44,0.12358900000000261,68,0.24717533333333108
8510,54.990439458333334,44,0.12341966666666337,62,0.061836166666665804
8511,55.114195125,44,0.12375566666666771,62,0.1863913333333329
8512,55.23837245833333,44,0.12417733333332848,53,0.06221400000000443
8513,55.362886458333335,44,0.1245140000000049,55,0.18754566666666506
8514,55.48782945833334,44,0.1249430000000018,62,0.06260266666666325
8515,55.613120125,42,0.12529066666666466,68,0.25082087499999517
8516,55.738693,47,0.12557287499999603,55,0.12524799999999914
8517,55.863941,51,0.12524799999999914,50,0.18722087500000129
8518,55.988861875,54,0.12492087500000082,58,0.12453550000000035
8519,56.113397375,59,0.12453550000000035,59,0.18620200000000153
8520,56.237615874999996,55,0.12421849999999779,56,0.12388216666667518
8521,56.36149804166667,29,0.12388216666667518,44,0.2533680000000018
8522,56.48818204166667,56,0.12668399999999735,63,0.06334200000000578
8523,56.61486604166667,56,0.12668400000000446,61,0.19002599999999603
8524,56.74155004166667,56,0.12668399999999735,63,0.06334199999999868
8525,56.86823404166667,56,0.12668399999999735,58,0.19002600000000314
8526,56.99491804166667,56,0.12668400000000446,54,0.06334199999999868
8527,57.12160204166667,56,0.12668399999999735,58,0.26442200000000327
8528,57.20974270833334,58,0.08814066666666776,52,0.08814066666666776
8529,57.297883375000005,56,0.08814066666666776,52,0.08814066666666776
8530,57.38602404166667,54,0.08814066666666776,55,0.2638136249999974
8531,57.517597083333335,59,0.1315730416666625,68,0.13224058333333488
8532,57.64983766666667,47,0.13224058333333488,50,0.13301983333333567
8533,57.916562125000006,68,0.2667244583333357,55,0.25824200000000275
8534,58.17480412500001,66,0.25824200000000275,55,0.19162800000000146
8535,58.30255612500001,64,0.12775200000000098,51,0.12775200000000098
8536,58.43030812500001,58,0.12775200000000098,55,0.1316424999999981
8537,58.693593125000014,61,0.2632850000000033,60,0.7764489999999995
8538,58.95183512500002,59,0.25824200000000275,58,0.19203674999999976
8539,59.07985962500002,54,0.1280245000000022,50,0.1280244999999951
8540,59.207884125000014,42,0.1280244999999951,45,0.13107899999999972
8541,59.47004212500001,54,0.26215799999999945,48,0.2632850000000033
8542,59.60168462500001,54,0.1316424999999981,55,0.06582124999999905
8543,59.73332712500002,54,0.1316425000000052,66,0.19746374999999716
8544,59.864969625000015,54,0.1316424999999981,73,0.06582124999999905
8545,59.99661212500001,54,0.1316424999999981,69,0.20076699999999903
8546,60.12825462500001,54,0.1316424999999981,64,0.06912450000000092
8547,60.26650362500001,56,0.13824900000000184,53,0.24717799999999812
8548,60.390092625000015,54,0.12358900000000261,61,0.12358899999999551
8549,60.51368162500001,51,0.12358899999999551,50,0.18538350000000037
8550,60.63727062500001,47,0.12358900000000261,40,0.12358900000000261
8551,60.760859625000016,42,0.12358900000000261,48,0.18538349999999326
8552,60.88444862500001,43,0.12358899999999551,43,0.12358900000000261
8553,61.008037625000014,44,0.12358900000000261,43,0.24667000000000172
8554,61.13137262500001,44,0.12333499999999731,50,0.06166750000000576
8555,61.254707625000016,44,0.12333500000000441,53,0.18500249999999596
8556,61.37804262500001,44,0.12333499999999731,56,0.061667499999998654
8557,61.50137762500002,44,0.12333500000000441,46,0.18500249999999596
8558,61.624712625000015,44,0.12333499999999731,43,0.061667499999998654
8559,61.74804762500001,42,0.12333499999999731,48,0.24667000000000172
8560,61.87138262500002,47,0.12333500000000441,48,0.12333499999999731
8561,61.994717625000014,51,0.12333499999999731,45,0.18500250000000307
8562,62.11805262500001,54,0.12333499999999731,61,0.12333500000000441
8563,62.241387625000016,59,0.12333500000000441,52,0.18500249999999596
8564,62.36472262500001,55,0.12333499999999731,45,0.12335616666666738
8565,62.48807879166668,56,0.12335616666666738,50,0.2533680000000018
8566,62.61476279166668,56,0.12668399999999735,45,0.06334200000000578
8567,62.74144679166668,56,0.12668400000000446,60,0.19002599999999603
8568,62.86813079166668,56,0.12668399999999735,65,0.06334199999999868
8569,62.99481479166668,56,0.12668399999999735,66,0.19002600000000314
8570,63.12149879166668,56,0.12668400000000446,51,0.06334199999999868
8571,63.24818279166668,56,0.12668399999999735,70,0.7949600833333363
8572,63.33632345833335,58,0.08814066666666776,55,0.08814066666666776
8573,63.424464125000014,56,0.08814066666666776,48,0.08814066666666776
8574,63.51260479166668,54,0.08814066666666776,55,0.19760879166666712
8575,63.644177833333345,59,0.1315730416666625,51,0.13224058333333488
8576,63.77641841666668,63,0.13224058333333488,46,0.13301983333333567
8577,64.04314287500002,68,0.2667244583333357,55,0.7770309999999938
8578,64.30138487500001,66,0.25824199999999564,42,0.19162799999999436
8579,64.42913687500001,64,0.12775200000000098,39,0.12775200000000098
8580,64.55688887500001,58,0.12775200000000098,47,0.1316424999999981
8581,64.82017387500001,59,0.2632849999999962,57,0.5265700000000066
8582,65.08345887500002,39,0.2632850000000104,24,0.2632849999999962
8583,65.34674387500002,47,0.2632849999999962,55,0.3007520000000028
8584,65.64749587500002,57,0.3007520000000028,62,0.5417327083333277
8585,65.91298287500001,30,0.26548699999999315,44,0.2762457083333345
8586,66.17846987500002,50,0.26548700000000736,48,0.2693782083333218
8587,66.43667887500001,51,0.2582089999999937,48,0.1340304999999944
8588,66.70473987500002,47,0.268061000000003,50,0.2664056250000044
8589,66.83412287500002,47,0.12938300000000424,42,0.06302524999999548
8590,66.96017337500002,47,0.12605050000000517,56,0.2705545000000029
8591,67.23072787500003,61,0.2705545000000029,60,0.5493115833333349
8592,67.50001587500003,32,0.2692880000000031,34,0.28002358333333177
8593,67.76930387500003,55,0.2692880000000031,48,0.26897595833334265
8594,68.02695787500004,56,0.25765400000000227,49,0.13586349999999925
8595,68.29868487500003,47,0.2717269999999985,49,0.2654695000000089
8596,68.42751187500004,47,0.12882700000000114,42,0.06276149999999348
8597,68.55303487500004,47,0.12552300000000116,55,0.2668680000000023
8598,68.81990287500004,57,0.2668680000000023,58,0.5505215833333352
8599,69.08979587500004,30,0.26989299999999616,35,0.28062858333333907
8600,69.35968887500005,50,0.2698930000000104,44,0.2688232083333304
8601,69.61734287500005,51,0.25765400000000227,48,0.1340304999999944
8602,69.88540387500005,47,0.268061000000003,51,0.27764995833334183
8603,70.01854187500005,47,0.13313800000000242,43,0.06656900000000121
8604,70.15167987500006,47,0.13313800000000242,52,0.2729750000000024
8605,70.42465487500006,57,0.2729750000000024,53,0.8573099999999982
8606,70.72022187500006,47,0.29556700000000546,45,0.28776999999999475
8607,71.00799187500006,54,0.28776999999999475,49,0.273972999999998
8608,71.28196487500006,52,0.273972999999998,47,0.14285700000000645
8609,71.56767887500006,47,0.2857139999999987,40,0.2895529583333314
8610,71.70671587500006,47,0.13903700000000185,36,0.06951850000000093
8611,71.84575287500006,47,0.13903700000000185,40,0.2870010000000036
8612,72.13275387500006,57,0.2870010000000036,47,0.5444947083333318
8613,72.39962187500007,30,0.2668680000000023,31,0.2776267083333295
8614,72.66648987500007,50,0.2668680000000023,42,0.2693782083333218
8615,72.92469887500006,51,0.2582089999999937,42,0.1340304999999944
8616,73.19275987500006,47,0.268061000000003,44,0.2653792500000094
8617,73.32214287500007,47,0.12938300000000424,39,0.0625
8618,73.44714287500007,47,0.125,53,0.2751530000000031
8619,73.72229587500007,61,0.2751530000000031,64,0.5421327083333267
8620,73.98798287500007,40,0.2656869999999998,30,0.27644570833332693
8621,74.25366987500007,44,0.2656869999999998,53,0.26953095833333407
8622,74.51187887500006,56,0.2582089999999937,52,0.13586349999999925
8623,74.78360587500006,47,0.2717269999999985,45,0.2656719583333427
8624,74.91243287500006,47,0.12882700000000114,36,0.06276149999999348
8625,75.03795587500007,47,0.12552300000000116,55,0.2717269999999985
8626,75.30968287500006,59,0.2717269999999985,63,0.13224599999999498
8627,75.57417487500007,49,0.26449200000000417,63,0.27001154166666197
8628,75.70355787500007,59,0.12938300000000424,49,0.12938299999999003
8629,75.83294087500006,54,0.12938299999999003,56,0.6663704999999993
8630,76.10283387500006,23,0.26989299999999616,37,0.13254999999999484
8631,76.36793387500006,47,0.2651000000000039,53,0.27420766666666907
8632,76.49931137500006,57,0.13137749999999926,46,0.13137749999999926
8633,76.63068887500006,52,0.13137749999999926,50,0.6851624999999899
8634,76.90555287500005,23,0.2748639999999938,33,0.13464399999999443
8635,77.17484087500006,45,0.2692880000000031,40,0.2820210000000003
8636,77.31585137500005,56,0.14101049999999304,40,0.14101050000000726
8637,77.45686187500006,54,0.14101050000000726,38,0.3027699999999953
8638,77.75963187500005,35,0.3027699999999953,45,0.30277000000000953
8639,78.06240187500006,47,0.30277000000000953,43,0.0659339999999986
8640,78.19426987500006,47,0.1318679999999972,35,0.0659339999999986
8641,78.32613787500006,47,0.1318679999999972,43,0.276591499999995
8642,78.60272937500005,57,0.276591499999995,48,0.5470127083333267
8643,78.87507337500006,39,0.2723440000000039,44,0.2746687083333228
8644,79.13898337500005,45,0.26390999999999565,49,0.2693782083333218
8645,79.39719237500005,51,0.2582089999999937,45,0.1340304999999944
8646,79.66525337500005,47,0.268061000000003,47,0.266671125000002
8647,79.79463637500005,47,0.12938300000000424,42,0.06315800000000138
8648,79.92095237500006,47,0.12631600000000276,56,0.27251049999999566
8649,80.19346287500005,61,0.27251049999999566,60,0.5493115833333349
8650,80.46275087500005,40,0.2692880000000031,45,0.28002358333333177
8651,80.73203887500006,44,0.2692880000000031,50,0.26897595833334265
8652,80.98969287500006,28,0.25765400000000227,52,0.13586349999999925
8653,81.26141987500006,47,0.2717269999999985,47,0.2659970000000129
8654,81.39024687500006,47,0.12882700000000114,40,0.06302524999999548
8655,81.51629737500006,47,0.12605050000000517,55,0.2668680000000023
8656,81.78316537500007,57,0.2668680000000023,58,0.5505215833333352
8657,82.05305837500006,39,0.26989299999999616,34,0.28062858333333907
8658,82.32295137500007,50,0.2698930000000104,44,0.2688232083333304
8659,82.58060537500008,54,0.25765400000000227,48,0.1340304999999944
8660,82.84866637500008,47,0.268061000000003,44,0.2778350833333434
8661,82.98180437500008,47,0.13313800000000242,39,0.06656900000000121
8662,83.11494237500008,47,0.13313800000000242,52,0.2774179999999973
8663,83.39236037500008,49,0.2774179999999973,53,0.8611180000000047
8664,83.68984637500009,56,0.29748600000000636,46,0.28776999999999475
8665,83.97761637500008,54,0.28776999999999475,49,0.2758620000000036
8666,84.25347837500009,52,0.2758620000000036,47,0.14101049999999304
8667,84.53549937500009,47,0.2820210000000003,40,0.2780740000000037
8668,84.67453637500009,47,0.13903700000000185,33,0.06951850000000093
8669,84.81357337500009,47,0.13903700000000185,40,0.2790054999999967
8670,85.09257887500009,57,0.2790054999999967,47,0.5444947083333318
8671,85.35944687500009,30,0.2668680000000023,38,0.2776267083333295
8672,85.62631487500009,53,0.2668680000000023,42,0.2693782083333218
8673,85.88452387500008,23,0.2582089999999937,61,0.1340304999999944
8674,86.15258487500009,30,0.268061000000003,49,0.26671950000000777
8675,86.28196787500009,47,0.12938300000000424,29,0.06315800000000138
8676,86.4082838750001,45,0.12631600000000276,57,0.26449200000000417
8677,86.6727758750001,61,0.26449200000000417,64,0.5421327083333267
8678,86.9384628750001,32,0.2656869999999998,47,0.27644570833332693
8679,87.2041498750001,44,0.2656869999999998,57,0.26953095833333407
8680,87.46235887500009,28,0.2582089999999937,53,0.13586349999999925
8681,87.73408587500009,47,0.2717269999999985,45,0.2551430000000039
8682,87.86291287500009,47,0.12882700000000114,41,0.06315800000000138
8683,87.9892288750001,47,0.12631600000000276,55,0.2717269999999985
8684,88.26095587500009,59,0.2717269999999985,63,0.13224599999999498
8685,88.5254478750001,49,0.26449200000000417,63,0.27001154166666197
8686,88.6548308750001,59,0.12938300000000424,49,0.12938299999999003
8687,88.78421387500009,54,0.12938299999999003,56,0.6663704999999993
8688,89.05410687500009,23,0.26989299999999616,42,0.13254999999999484
8689,89.31920687500009,47,0.2651000000000039,53,0.27420766666666907
8690,89.45058437500009,57,0.13137749999999926,46,0.13137749999999926
8691,89.58196187500009,52,0.13137749999999926,50,0.6851624999999899
8692,89.85682587500008,23,0.2748639999999938,43,0.13464399999999443
8693,90.12611387500009,45,0.2692880000000031,40,0.2820210000000003
8694,90.26712437500008,56,0.14101049999999304,40,0.14101050000000726
8695,90.40813487500009,30,0.14101050000000726,46,0.3027699999999953
8696,90.71090487500008,28,0.3027699999999953,46,0.30277000000000953
8697,91.31644487500009,56,0.6055400000000049,77,0.13195500000000493
8698,91.54736612500008,56,0.23092124999999442,69,0.03298875000000123
8699,91.58035487500008,54,0.03298875000000123,82,0.13195500000000493
8700,91.84426487500009,46,0.26391000000000986,68,0.13195499999999072
8701,92.07518612500009,56,0.23092124999999442,55,0.03298875000000123
8702,92.10817487500009,40,0.03298875000000123,67,0.13195500000000493
8703,92.37208487500008,46,0.26390999999999565,81,0.13195500000000493
8704,92.60300612500009,56,0.23092125000000863,59,0.03298875000000123
8705,92.6359948750001,54,0.03298875000000123,69,0.13195499999999072
8706,92.89990487500009,46,0.26390999999999565,66,0.13195499999999072
8707,93.1634846250001,47,0.2635797500000052,59,0.2549660416666768
8708,93.29127241666677,51,0.12778779166667675,47,0.12717825000000005
8709,93.41845066666677,54,0.12717825000000005,53,0.25253162500000315
8710,93.54501633333344,59,0.12656566666666436,53,0.1259659583333388
8711,93.67098229166677,63,0.1259659583333388,59,0.13109000000000037
8712,93.93316229166678,59,0.26218000000000075,63,0.25114100000000406
8713,94.01687595833344,61,0.08371366666666802,44,0.08371366666666802
8714,94.10058962500011,59,0.08371366666666802,51,0.08371366666666802
8715,94.18430329166678,29,0.08371366666666802,39,0.25114099999998984
8716,94.30987379166677,53,0.12557049999999492,58,0.12557049999999492
8717,94.43544429166677,54,0.12557049999999492,63,0.13195500000000493
8718,94.66636554166676,56,0.23092124999999442,64,0.03298875000000123
8719,94.69935429166676,54,0.03298875000000123,78,0.13373149999999612
8720,94.96681729166677,46,0.26746300000000645,60,0.13373149999999612
8721,95.20084741666676,56,0.23403012499998965,53,0.03343287500000258
8722,95.23428029166676,54,0.03343287500000258,71,0.13373149999999612
8723,95.50174329166677,46,0.26746300000000645,81,0.13373149999999612
8724,95.73577341666676,56,0.23403012499998965,51,0.03343287500000258
8725,95.76920629166676,54,0.03343287500000258,72,0.13373149999999612
8726,96.03666929166677,46,0.26746300000000645,72,0.13373149999999612
8727,96.3036540000001,42,0.2669847083333252,64,0.255983999999998
8728,96.3889820000001,44,0.08532800000000407,52,0.08532799999998986
8729,96.47431000000009,42,0.08532799999998986,60,0.08532800000000407
8730,96.55963800000009,41,0.08532800000000407,44,0.2622082500000147
8731,96.69005787500011,42,0.1304198750000154,54,0.1317883749999993
8732,96.8218462500001,51,0.1317883749999993,58,0.2729750000000024
8733,96.95833375000011,49,0.1364875000000012,53,0.1364875000000012
8734,97.09482125000011,47,0.1364875000000012,48,0.2718742499999962
8735,97.13053550000011,49,0.03571424999999806,41,0.03571424999999806
8736,97.1662497500001,47,0.03571424999999806,64,0.06681525000000477
8737,97.23306500000011,46,0.06681525000000477,49,0.13363049999999532
8738,97.3666955000001,47,0.13363049999999532,71,0.26514404166665884
8739,97.49978500000009,49,0.13308949999998276,66,0.13205454166667607
8740,97.63183954166676,51,0.13205454166667607,77,0.2732108333333372
8741,97.76283404166676,52,0.1309944999999999,56,0.10753724999999292
8742,97.87037129166676,56,0.10753724999999292,69,0.03467908333334435
8743,97.9050503750001,54,0.03467908333334435,85,0.13195500000000493
8744,98.1689603750001,46,0.26390999999999565,63,0.13195500000000493
8745,98.3998816250001,56,0.23092125000000863,57,0.03298875000000123
8746,98.4328703750001,54,0.03298875000000123,70,0.13195499999999072
8747,98.6967803750001,46,0.26390999999999565,86,0.13195500000000493
8748,98.9277016250001,56,0.23092124999999442,67,0.03298875000000123
8749,98.9606903750001,54,0.03298875000000123,74,0.13195500000000493
8750,99.22460037500011,46,0.26391000000000986,65,0.13195499999999072
8751,99.4881801250001,47,0.263579749999991,57,0.2549660416666768
8752,99.61596791666678,51,0.12778779166667675,38,0.12717825000000005
8753,99.74314616666678,54,0.12717825000000005,43,0.25253162500000315
8754,99.86971183333344,59,0.12656566666666436,53,0.1259659583333388
8755,99.99567779166678,63,0.1259659583333388,57,0.13109000000000037
8756,100.25785779166678,59,0.26218000000000075,67,0.25114100000000406
8757,100.34157145833345,61,0.08371366666666802,52,0.08371366666666802
8758,100.42528512500012,59,0.08371366666666802,58,0.08371366666666802
8759,100.50899879166678,56,0.08371366666666802,64,0.25114099999998984
8760,100.63456929166678,53,0.12557049999999492,50,0.12557049999999492
8761,100.76013979166677,54,0.12557049999999492,68,0.13195500000000493
8762,100.99106104166677,56,0.23092124999999442,67,0.03298875000000123
8763,101.02404979166677,54,0.03298875000000123,81,0.13373149999999612
8764,101.29151279166678,46,0.26746300000000645,72,0.13373149999999612
8765,101.52554291666677,56,0.23403012499998965,67,0.03343287500000258
8766,101.55897579166677,54,0.03343287500000258,72,0.13373149999999612
8767,101.82643879166677,46,0.26746300000000645,86,0.13373149999999612
8768,102.06046891666676,56,0.23403012499998965,64,0.03343287500000258
8769,102.09390179166677,46,0.03343287500000258,72,0.13373149999999612
8770,102.36136479166677,46,0.26746300000000645,63,0.13373149999999612
8771,102.6283495000001,47,0.2669847083333252,45,0.2765492500000022
8772,102.66364362500009,49,0.03529412499999296,37,0.03529412500000717
8773,102.6989377500001,47,0.03529412500000717,46,0.0686500000000052
8774,102.7675877500001,46,0.0686500000000052,39,0.13731099999999685
8775,102.9048987500001,47,0.13731099999999685,58,0.13235024999998757
8776,103.03724900000009,49,0.13235024999998757,53,0.13104224999999303
8777,103.16829125000008,51,0.13104224999999303,58,0.12971050000000162
8778,103.29800175000008,52,0.12971050000000162,54,0.12843137499999102
8779,103.42643312500007,54,0.12843137499999102,60,0.13227695833333541
8780,103.55871008333341,56,0.13227695833333541,57,0.13388575000000458
8781,103.69259583333341,57,0.13388575000000458,67,0.13553291666666212
8782,103.82812875000008,58,0.13553291666666212,59,0.13727574999998637
8783,103.96540450000006,61,0.13727574999998637,68,0.48387074999999413
8784,104.44927525000006,59,0.48387074999999413,47,0.19240625000000477
8785,104.64168150000006,57,0.19240625000000477,55,0.5495722500000113
8786,104.91096950000006,39,0.2692880000000031,44,0.28028425000000823
8787,105.18025750000007,50,0.2692880000000031,48,0.2750792083333238
8788,105.44416750000006,51,0.26390999999999565,48,0.1340304999999944
8789,105.71222850000007,47,0.268061000000003,43,0.27209829166666566
8790,105.84274250000007,47,0.13051400000000513,37,0.06525699999998835
8791,105.97325650000006,47,0.13051399999999092,56,0.2733585000000005
8792,106.24661500000006,61,0.2733585000000005,60,0.5493115833333349
8793,106.51590300000007,40,0.2692880000000031,37,0.28002358333333177
8794,106.78519100000007,55,0.2692880000000031,48,0.26897595833334265
8795,107.04284500000007,56,0.25765400000000227,49,0.13586349999999925
8796,107.31457200000007,47,0.2717269999999985,42,0.2687735000000089
8797,107.44339900000007,47,0.12882700000000114,35,0.06441350000000057
8798,107.57222600000007,47,0.12882700000000114,55,0.2668680000000023
8799,107.83909400000007,54,0.2668680000000023,58,0.5505215833333352
8800,108.10898700000007,39,0.26989299999999616,45,0.28062858333333907
8801,108.37888000000008,45,0.2698930000000104,45,0.2688232083333304
8802,108.63653400000008,54,0.25765400000000227,48,0.1340304999999944
8803,108.90459500000009,47,0.268061000000003,44,0.27770250000000374
8804,109.03773300000009,47,0.13313800000000242,44,0.06656900000000121
8805,109.17087100000009,47,0.13313800000000242,52,0.2742360000000019
8806,109.44510700000009,49,0.2742360000000019,53,0.8616869999999892
8807,109.74435900000009,56,0.29925199999999563,51,0.28846199999999556
8808,110.03282100000008,54,0.28846199999999556,49,0.273972999999998
8809,110.30679400000008,52,0.273972999999998,47,0.14101049999999304
8810,110.58881500000008,47,0.2820210000000003,40,0.272965499999998
8811,110.72785200000008,47,0.13903700000000185,37,0.06696424999999806
8812,110.86178050000008,47,0.13392849999999612,40,0.2754950000000065
8813,111.13727550000009,57,0.2754950000000065,47,0.5444947083333318
8814,111.40414350000009,30,0.2668680000000023,38,0.2776267083333295
8815,111.67101150000009,53,0.2668680000000023,42,0.2693782083333218
8816,111.92922050000008,23,0.2582089999999937,43,0.1340304999999944
8817,112.19728150000009,47,0.268061000000003,37,0.26669525000001215
8818,112.32666450000009,47,0.12938300000000424,35,0.06315800000000138
8819,112.4529805000001,47,0.12631600000000276,53,0.26390999999999565
8820,112.71689050000009,61,0.26390999999999565,64,0.5421327083333267
8821,112.98257750000009,40,0.2656869999999998,38,0.27644570833332693
8822,113.24826450000009,55,0.2656869999999998,52,0.26953095833333407
8823,113.50647350000008,56,0.2582089999999937,52,0.13586349999999925
8824,113.77820050000008,47,0.2717269999999985,45,0.26673145833333933
8825,113.90702750000008,47,0.12882700000000114,36,0.06329125000000602
8826,114.03361000000008,47,0.12658249999999782,55,0.2717269999999985
8827,114.30533700000008,59,0.2717269999999985,63,0.13224599999999498
8828,114.56982900000008,49,0.26449200000000417,63,0.27001154166666197
8829,114.69921200000009,59,0.12938300000000424,49,0.12938299999999003
8830,114.82859500000008,54,0.12938299999999003,56,0.6663704999999993
8831,115.09848800000007,23,0.26989299999999616,35,0.13254999999999484
8832,115.36358800000008,47,0.2651000000000039,53,0.27420766666666907
8833,115.49496550000008,57,0.13137749999999926,46,0.13137749999999926
8834,115.62634300000008,52,0.13137749999999926,50,0.6851624999999899
8835,115.90120700000007,23,0.2748639999999938,33,0.13464399999999443
8836,116.17049500000007,45,0.2692880000000031,40,0.2820210000000003
8837,116.31150550000007,56,0.14101049999999304,40,0.14101050000000726
8838,116.45251600000007,54,0.14101050000000726,38,0.3027699999999953
8839,116.75528600000007,28,0.3027699999999953,42,0.15138500000000477
8840,117.05805600000008,40,0.30277000000000953,52,0.0659339999999986
8841,117.18992400000008,40,0.1318679999999972,52,0.0659339999999986
8842,117.32179200000007,40,0.1318679999999972,52,0.27149300000000665
8843,117.59328500000008,47,0.27149300000000665,72,0.15024049999999534
8844,117.89376600000008,28,0.3004810000000049,43,0.30048099999999067
8845,118.19424700000008,47,0.30048099999999067,69,0.3004810000000049
8846,118.49472800000008,47,0.3004810000000049,66,0.15024049999999534
8847,118.53228812500008,49,0.037560124999998834,66,0.037560124999998834
8848,118.56984825000008,44,0.037560124999998834,72,0.07512024999999767
8849,118.79520900000009,28,0.22536075000000722,56,0.29381499999999505
8850,118.94211650000008,45,0.14690749999999753,60,0.14690749999999753
8851,119.08902400000008,47,0.14690749999999753,72,0.29381500000000926
8852,119.38283900000009,49,0.29381500000000926,76,0.13617200000000196
8853,119.6551830000001,33,0.2723440000000039,45,0.28002100000000496
8854,119.9352040000001,52,0.28002100000000496,81,0.1413430000000062
8855,120.2178900000001,57,0.2826859999999982,87,0.8420250000000067
8856,120.4985650000001,37,0.28067500000000223,41,0.28067500000000223
8857,120.7792400000001,30,0.28067500000000223,46,0.28067500000000223
8858,121.0599150000001,56,0.28067500000000223,58,0.13838900000000365
8859,121.3366930000001,30,0.2767779999999931,32,0.2711129999999997
8860,121.4722495000001,54,0.13555650000000696,54,0.06777824999998927
8861,121.6078060000001,54,0.13555649999999275,58,0.2711129999999997
8862,121.8789190000001,56,0.2711129999999997,60,0.13870900000000574
8863,122.1563370000001,30,0.2774179999999973,38,0.2729750000000024
8864,122.2928245000001,54,0.1364875000000012,50,0.0682437499999935
8865,122.4293120000001,54,0.1364875000000012,56,0.2729750000000024
8866,122.7022870000001,56,0.2729750000000024,60,0.13838900000000365
8867,122.97906500000009,30,0.2767779999999931,35,0.28067500000000223
8868,123.11940250000009,54,0.14033750000000111,51,0.07016874999999345
8869,123.2597400000001,54,0.14033750000000111,57,0.28067500000000223
8870,123.5404150000001,51,0.28067500000000223,68,0.8420249999999925
8871,123.8210900000001,40,0.28067500000000223,38,0.280674999999988
8872,123.96142750000008,52,0.1403374999999869,56,0.07016875000000766
8873,124.10176500000009,52,0.14033750000000111,62,0.28067500000000223
8874,124.38244000000009,59,0.28067500000000223,86,0.13870900000000574
8875,124.65985800000009,40,0.2774179999999973,45,0.273610000000005
8876,124.79666300000008,59,0.1368049999999954,72,0.0684025000000048
8877,124.93346800000009,59,0.1368050000000096,80,0.2736099999999908
8878,125.20707800000008,59,0.2736099999999908,77,0.14033750000000111
8879,125.24216237500008,61,0.035084374999996726,78,0.035084374999996726
8880,125.27724675000007,59,0.035084374999996726,86,0.07016875000000766
8881,125.48580450000009,50,0.2085577500000113,45,0.27050199999999336
8882,125.62105550000008,57,0.13525099999999668,80,0.13525099999999668
8883,125.75630650000008,59,0.13525099999999668,80,0.27050200000000757
8884,126.02680850000009,61,0.27050200000000757,88,0.13343399999999406
8885,126.29367650000009,40,0.2668680000000023,49,0.2686730000000068
8886,126.5623495000001,61,0.2686730000000068,88,0.13617200000000196
8887,126.8346935000001,61,0.2723440000000039,94,0.8123080000000016
8888,127.0997935000001,49,0.2651000000000039,43,0.2748639999999938
8889,127.3746575000001,42,0.2748639999999938,43,0.2723440000000039
8890,127.6470015000001,68,0.2723440000000039,58,0.13254999999999484
8891,127.9121015000001,51,0.2651000000000039,42,0.2604510000000033
8892,128.0423270000001,66,0.13022550000000876,48,0.06511274999999728
8893,128.1725525000001,66,0.13022549999999455,56,0.2604509999999891
8894,128.4330035000001,59,0.2604509999999891,59,0.132843500000007
8895,128.6986905000001,42,0.265687000000014,36,0.259886999999992
8896,128.8286340000001,66,0.129943499999996,55,0.06497175000001221
8897,128.9585775000001,66,0.129943499999996,55,0.2598870000000204
8898,129.21846450000012,68,0.2598870000000204,59,0.13373150000001033
8899,129.48592750000012,51,0.26746299999999223,32,0.2820209999999861
8900,129.6269380000001,66,0.14101049999999304,50,0.07050524999999652
8901,129.7679485000001,66,0.14101049999999304,55,0.29601900000000114
8902,130.0639675000001,56,0.29601900000000114,59,0.29601900000000114
8903,130.6560055000001,40,0.5920380000000023,67,0.29601900000000114
8904,130.9520245000001,47,0.29601900000000114,72,0.14268749999999386
8905,131.2373995000001,28,0.2853749999999877,49,0.28537500000001614
8906,131.5227745000001,47,0.28537500000001614,69,0.14268749999999386
8907,131.8081495000001,47,0.2853749999999877,66,0.14268750000002228
8908,131.84382137500012,49,0.03567187500001978,66,0.03567187499999136
8909,131.8794932500001,47,0.03567187499999136,72,0.07134375000001114
8910,132.09352450000011,28,0.214031250000005,50,0.2780740000000037
8911,132.23256150000012,45,0.13903700000000185,68,0.13903700000000185
8912,132.37159850000012,47,0.13903700000000185,72,0.2780740000000037
8913,132.64967250000012,49,0.2780740000000037,76,0.13617199999998775
8914,132.92201650000013,37,0.2723440000000039,51,0.2780740000000037
8915,133.20009050000013,52,0.2780740000000037,81,0.13743199999998978
8916,133.47495450000014,57,0.274864000000008,87,0.8420250000000067
8917,133.75562950000014,37,0.28067500000000223,51,0.28067500000000223
8918,134.03630450000014,37,0.28067500000000223,54,0.28067500000000223
8919,134.31697950000014,56,0.28067500000000223,61,0.13838899999998944
8920,134.59375750000015,39,0.2767780000000073,34,0.2711130000000139
8921,134.72931400000016,54,0.13555650000000696,52,0.06777825000000348
8922,134.86487050000017,54,0.13555650000000696,56,0.2711129999999855
8923,135.13598350000015,56,0.2711129999999855,60,0.13870900000000574
8924,135.41340150000016,30,0.2774180000000115,34,0.2729750000000024
8925,135.54988900000015,54,0.136487499999987,52,0.06824375000002192
8926,135.68637650000016,45,0.13648750000001542,56,0.2729750000000024
8927,135.95935150000017,56,0.2729750000000024,60,0.13838899999998944
8928,136.23612950000017,30,0.2767780000000073,36,0.28067500000000223
8929,136.37646700000016,54,0.1403374999999869,55,0.07016875000002187
8930,136.51680450000018,54,0.14033750000001532,57,0.28067500000000223
8931,136.79747950000018,43,0.28067500000000223,68,0.8420250000000067
8932,137.07815450000018,35,0.28067500000000223,45,0.28067500000000223
8933,137.21849200000017,52,0.1403374999999869,58,0.07016874999999345
8934,137.35882950000018,52,0.14033750000001532,62,0.28067500000000223
8935,137.63950450000019,59,0.28067500000000223,86,0.13870900000000574
8936,137.9169225000002,40,0.2774180000000115,50,0.2736099999999908
8937,138.0537275000002,56,0.1368050000000096,80,0.0684024999999906
8938,138.1905325000002,59,0.1368049999999812,80,0.2736100000000192
8939,138.4641425000002,59,0.2736100000000192,77,0.1403374999999869
8940,138.4992268750002,61,0.035084374999996726,78,0.035084374999996726
8941,138.5343112500002,59,0.035084374999996726,86,0.07016874999999345
8942,138.74286900000018,50,0.2085577499999829,47,0.27050199999999336
8943,138.8781200000002,57,0.1352510000000109,75,0.13525099999998247
8944,139.01337100000018,59,0.13525099999998247,80,0.27050199999999336
8945,139.28387300000017,57,0.27050199999999336,88,0.13343399999999406
8946,139.55074100000016,40,0.2668679999999881,56,0.2686730000000068
8947,139.81941400000017,61,0.2686730000000068,92,0.13617199999998775
8948,140.09175800000017,69,0.2723440000000039,101,0.8123080000000016
8949,140.35685800000016,41,0.2650999999999897,61,0.274864000000008
8950,140.63172200000017,49,0.274864000000008,62,0.2723440000000039
8951,140.90406600000017,59,0.2723440000000039,59,0.13255000000000905
8952,141.16916600000016,51,0.2650999999999897,35,0.2604509999999891
8953,141.29939150000016,66,0.13022549999999455,56,0.06511274999999728
8954,141.42961700000015,66,0.13022549999999455,56,0.26045100000001753
8955,141.69006800000017,59,0.26045100000001753,59,0.132843500000007
8956,141.95575500000018,42,0.265687000000014,35,0.259886999999992
8957,142.08569850000018,66,0.129943499999996,51,0.06497175000001221
8958,142.21564200000017,66,0.129943499999996,55,0.2598870000000204
8959,142.4755290000002,68,0.2598870000000204,59,0.13373150000001033
8960,142.74299200000019,47,0.26746299999999223,36,0.2820209999999861
8961,142.88400250000018,66,0.14101049999999304,52,0.07050524999999652
8962,143.02501300000017,66,0.14101049999999304,55,0.29601900000000114
8963,143.32103200000017,56,0.29601900000000114,59,0.29601900000000114
8964,143.91307000000018,56,0.5920380000000023,50,0.22150677083334358
8965,144.13997937500017,56,0.2269093749999911,45,0.03241562499999873
8966,144.17239500000017,57,0.03241562499999873,52,0.12966250000002333
8967,144.39930437500018,57,0.2269093750000195,41,0.03241562499999873
8968,144.43172000000018,55,0.03241562499999873,46,0.1296624999999949
8969,144.65862937500017,55,0.2269093749999911,43,0.03241562499999873
8970,144.69104500000017,56,0.03241562499999873,50,0.1296624999999949
8971,144.91795437500016,56,0.2269093749999911,46,0.03241562499999873
8972,144.95037000000016,57,0.03241562499999873,53,0.1285455000000013
8973,145.17532462500017,57,0.2249546250000094,44,0.03213637499999322
8974,145.20746100000017,55,0.03213637499999322,50,0.1285455000000013
8975,145.43241562500017,55,0.2249546250000094,45,0.03213637499999322
8976,145.46455200000017,56,0.03213637499999322,50,0.1285455000000013
8977,145.68950662500015,56,0.22495462499998098,50,0.032136375000021644
8978,145.72164300000017,64,0.032136375000021644,57,0.12219949999999358
8979,145.93549212500017,64,0.21384912499999587,50,0.03054987499999129
8980,145.96604200000016,63,0.03054987499999129,59,0.122199500000022
8981,146.17989112500018,63,0.2138491250000243,56,0.03054987499999129
8982,146.21044100000017,62,0.03054987499999129,66,0.12219949999999358
8983,146.42429012500017,62,0.21384912499999587,64,0.03054987499999129
8984,146.45484000000016,61,0.03054987499999129,75,0.12096750000000611
8985,146.66653312500017,61,0.2116931250000107,63,0.030241875000001528
8986,146.69677500000017,60,0.030241875000001528,73,0.12096749999997769
8987,146.90846812500016,60,0.21169312499998227,63,0.030241875000001528
8988,146.93871000000016,59,0.030241875000001528,70,0.12096750000000611
8989,147.15040312500017,59,0.2116931250000107,58,0.030241875000001528
8990,147.18064500000017,58,0.030241875000001528,67,0.12096749999997769
8991,147.39233812500015,58,0.21169312499998227,54,0.030241875000001528
8992,147.42258000000015,57,0.030241875000001528,65,0.12096750000000611
8993,147.63427312500016,57,0.2116931250000107,51,0.030241875000001528
8994,147.66451500000016,56,0.030241875000001528,63,0.12096750000000611
8995,147.87620812500015,56,0.21169312499998227,49,0.030241875000001528
8996,147.90645000000015,55,0.030241875000001528,60,0.12082016666664686
8997,148.1181089166668,55,0.21165891666666425,46,0.030306749999994054
8998,148.1484156666668,54,0.030306749999994054,58,0.12155749999999443
8999,148.36139329166681,54,0.21297762500000772,44,0.030514708333328144
9000,148.39190800000014,51,0.030514708333328144,54,0.12232845833332817
9001,148.60621720833348,51,0.2143092083333329,44,0.0307230416666755
9002,148.63694025000015,52,0.0307230416666755,52,0.1229759999999942
9003,148.85214825000014,52,0.21520799999998985,38,0.03074399999999855
9004,148.88289225000014,48,0.03074399999999855,48,0.1229759999999942
9005,149.09810025000013,48,0.21520799999998985,39,0.030744000000026972
9006,149.12884425000016,49,0.030744000000026972,50,0.1229759999999942
9007,149.34405225000015,49,0.21520799999998985,39,0.03074399999999855
9008,149.37479625000014,52,0.03074399999999855,50,0.12477649999999585
9009,149.59315512500015,52,0.21835887500000695,39,0.03119412499998475
9010,149.62434925000014,54,0.03119412499998475,50,0.12477649999999585
9011,149.84270812500014,54,0.21835887500000695,37,0.031194125000013173
9012,149.87390225000016,55,0.031194125000013173,51,0.12711849999999458
9013,150.09635962500016,55,0.22245737500000473,40,0.031779624999984435
9014,150.12813925000015,57,0.031779624999984435,54,0.12502183333333505
9015,150.3471505000001,57,0.21901124999996568,44,0.03138075000001095
9016,150.37853125000012,55,0.03138075000001095,55,0.12569833333333236
9017,150.59876745833344,55,0.22023620833331847,44,0.031578999999993584
9018,150.63034645833343,56,0.031578999999993584,58,0.1264492500000074
9019,150.85186633333345,56,0.2215198750000127,49,0.03173487500001215
9020,150.88360120833346,57,0.03173487500001215,62,0.12474000000000274
9021,151.10189620833347,57,0.2182950000000119,51,0.03118499999999358
9022,151.13308120833346,55,0.03118499999999358,68,0.12474000000000274
9023,151.35137620833345,55,0.21829499999998347,54,0.031185000000022
9024,151.38256120833347,56,0.031185000000022,73,0.12474000000000274
9025,151.60085620833345,56,0.21829499999998347,71,0.03118499999999358
9026,151.63204120833345,68,0.03118499999999358,83,0.12170399999999404
9027,151.84502320833346,68,0.21298200000001088,68,0.030425999999977194
9028,151.87544920833344,64,0.030425999999977194,80,0.12170400000002246
9029,152.08843120833345,64,0.21298200000001088,63,0.030426000000005615
9030,152.11885720833345,61,0.030426000000005615,76,0.12170399999999404
9031,152.33183920833343,61,0.21298199999998246,57,0.030426000000005615
9032,152.36226520833344,57,0.030426000000005615,71,0.122058833333341
9033,152.5760963750001,57,0.21383116666666524,52,0.03061850000000277
9034,152.6067148750001,54,0.03061850000000277,66,0.12280833333332453
9035,152.82186250000012,54,0.2151476250000144,44,0.03080837499999234
9036,152.85267087500011,51,0.03080837499999234,57,0.12357733333331566
9037,153.0691651250001,57,0.21649424999998246,41,0.031022124999992684
9038,153.1001872500001,32,0.031022124999992684,56,0.12098249999999666
9039,153.3119066250001,56,0.21171937500000126,42,0.03024562499999206
9040,153.34215225000008,55,0.03024562499999206,53,0.12098249999999666
9041,153.55387162500008,55,0.21171937500000126,42,0.03024562499999206
9042,153.58411725000008,54,0.03024562499999206,55,0.12098250000002508
9043,153.79583662500008,54,0.21171937500000126,43,0.030245625000020482
9044,153.8260822500001,53,0.030245625000020482,56,0.12098249999999666
9045,154.0378016250001,53,0.21171937500000126,44,0.03024562499999206
9046,154.0680472500001,52,0.03024562499999206,58,0.12098249999999666
9047,154.2797666250001,52,0.21171937500000126,46,0.03024562499999206
9048,154.31001225000009,51,0.03024562499999206,60,0.12098249999999666
9049,154.5217316250001,51,0.21171937500000126,46,0.03024562499999206
9050,154.55197725000008,50,0.03024562499999206,62,0.24642670833333113
9051,154.76746720833341,50,0.21548995833333606,49,0.030936749999995072
9052,154.7984039583334,49,0.030936749999995072,64,0.1241742916666908
9053,155.0161179583334,49,0.21771400000000085,48,0.03126037500001644
9054,155.04737833333343,48,0.03126037500001644,66,0.12546087499998748
9055,155.2673687083334,48,0.21999037499998053,47,0.031590875000006235
9056,155.2989595833334,47,0.031590875000006235,67,0.12676991666666027
9057,155.52127062500008,47,0.22231104166667137,51,0.031929875000002994
9058,155.5532005000001,46,0.031929875000002994,69,0.1281293749999861
9059,155.77787941666674,46,0.2246789166666474,55,0.03227612500000987
9060,155.81015554166675,45,0.03227612500000987,71,0.14101049999999304
9061,156.09217654166673,47,0.2820209999999861,72,0.14268749999999386
9062,156.37755154166672,38,0.2853749999999877,49,0.28537500000001614
9063,156.66292654166674,47,0.28537500000001614,69,0.2853749999999877
9064,156.94830154166672,47,0.2853749999999877,66,0.14268750000002228
9065,156.98397341666674,49,0.03567187500001978,66,0.03567187499999136
9066,157.01964529166673,47,0.03567187499999136,72,0.07134375000001114
9067,157.23367654166674,38,0.214031250000005,50,0.2780740000000037
9068,157.37271354166674,45,0.13903700000000185,68,0.13903700000000185
9069,157.51175054166674,47,0.13903700000000185,72,0.2780740000000037
9070,157.78982454166675,49,0.2780740000000037,76,0.13617199999998775
9071,158.06216854166675,33,0.2723440000000039,51,0.2780740000000037
9072,158.34024254166675,52,0.2780740000000037,81,0.1396844999999871
9073,158.61961154166676,49,0.27936900000000264,87,0.8420250000000067
9074,158.90028654166676,29,0.28067500000000223,54,0.28067500000000223
9075,159.18096154166676,30,0.28067500000000223,54,0.28067500000000223
9076,159.46163654166676,56,0.28067500000000223,61,0.13838899999998944
9077,159.73841454166677,30,0.2767780000000073,36,0.2711130000000139
9078,159.87397104166678,54,0.13555650000000696,52,0.06777825000000348
9079,160.00952754166678,54,0.13555650000000696,56,0.2711129999999855
9080,160.28064054166677,56,0.2711129999999855,60,0.13870900000000574
9081,160.55805854166678,39,0.2774180000000115,37,0.2729750000000024
9082,160.69454604166677,54,0.136487499999987,53,0.06824375000002192
9083,160.83103354166678,54,0.13648750000001542,56,0.2729750000000024
9084,161.1040085416668,56,0.2729750000000024,60,0.13838899999998944
9085,161.3807865416668,30,0.2767780000000073,39,0.28067500000000223
9086,161.52112404166678,54,0.1403374999999869,53,0.07016875000002187
9087,161.6614615416668,45,0.14033750000001532,57,0.28067500000000223
9088,161.9421365416668,51,0.28067500000000223,68,0.8420250000000067
9089,162.2228115416668,35,0.28067500000000223,43,0.28067500000000223
9090,162.3631490416668,52,0.1403374999999869,57,0.07016874999999345
9091,162.5034865416668,52,0.14033750000001532,62,0.28067500000000223
9092,162.7841615416668,59,0.28067500000000223,86,0.13870900000000574
9093,163.06157954166682,50,0.2774180000000115,54,0.2736099999999908
9094,163.19838454166683,56,0.1368050000000096,76,0.0684024999999906
9095,163.3351895416668,59,0.1368049999999812,80,0.2736100000000192
9096,163.60879954166683,59,0.2736100000000192,77,0.1403374999999869
9097,163.64388391666682,61,0.035084374999996726,78,0.035084374999996726
9098,163.67896829166682,59,0.035084374999996726,86,0.07016874999999345
9099,163.8875260416668,50,0.2085577499999829,53,0.27050199999999336
9100,164.0227770416668,54,0.1352510000000109,76,0.13525099999998247
9101,164.1580280416668,59,0.13525099999998247,80,0.27050199999999336
9102,164.4285300416668,57,0.27050199999999336,88,0.13343399999999406
9103,164.69539804166678,40,0.2668679999999881,56,0.2686730000000068
9104,164.96407104166678,61,0.2686730000000068,92,0.13774749999998903
9105,165.2395660416668,61,0.2754950000000065,96,0.8123080000000016
9106,165.50466604166678,49,0.2650999999999897,58,0.274864000000008
9107,165.7795300416668,42,0.274864000000008,62,0.2723440000000039
9108,166.0518740416668,59,0.2723440000000039,59,0.13255000000000905
9109,166.31697404166678,51,0.2650999999999897,36,0.2604509999999891
9110,166.44719954166678,66,0.13022549999999455,52,0.06511274999999728
9111,166.57742504166677,57,0.13022549999999455,56,0.26045100000001753
9112,166.8378760416668,59,0.26045100000001753,59,0.132843500000007
9113,167.1035630416668,42,0.265687000000014,34,0.259886999999992
9114,167.2335065416668,66,0.129943499999996,52,0.06497175000001221
9115,167.3634500416668,66,0.129943499999996,55,0.2598870000000204
9116,167.62333704166682,59,0.2598870000000204,59,0.13373150000001033
9117,167.8908000416668,42,0.26746299999999223,37,0.2820209999999861
9118,168.0318105416668,66,0.14101049999999304,53,0.07050524999999652
9119,168.1728210416668,66,0.14101049999999304,55,0.29601900000000114
9120,168.4688400416668,56,0.29601900000000114,59,0.29601900000000114
9121,169.0608780416668,56,0.5920380000000023,50,0.22150677083334358
9122,169.2877874166668,56,0.2269093749999911,45,0.03241562499999873
9123,169.3202030416668,57,0.03241562499999873,52,0.12966250000002333
9124,169.5471124166668,57,0.2269093750000195,44,0.03241562499999873
9125,169.5795280416668,55,0.03241562499999873,50,0.1296624999999949
9126,169.8064374166668,55,0.2269093749999911,43,0.03241562499999873
9127,169.8388530416668,56,0.03241562499999873,50,0.1296624999999949
9128,170.0657624166668,56,0.2269093749999911,46,0.03241562499999873
9129,170.09817804166678,57,0.03241562499999873,53,0.1285455000000013
9130,170.3231326666668,57,0.2249546250000094,44,0.03213637499999322
9131,170.3552690416668,55,0.03213637499999322,50,0.1285455000000013
9132,170.5802236666668,55,0.2249546250000094,45,0.03213637499999322
9133,170.6123600416668,56,0.03213637499999322,50,0.1285455000000013
9134,170.83731466666677,56,0.22495462499998098,50,0.032136375000021644
9135,170.8694510416668,64,0.032136375000021644,57,0.12269950000001018
9136,171.0841751666668,64,0.2147241250000036,50,0.030674874999988333
9137,171.11485004166678,63,0.030674874999988333,59,0.12269950000001018
9138,171.3295741666668,63,0.2147241250000036,56,0.030674875000016755
9139,171.3602490416668,62,0.030674875000016755,66,0.12240783333331251
9140,171.57391441666678,62,0.21366537499997662,64,0.03030300000000352
9141,171.60421741666678,61,0.03030300000000352,75,0.12096750000000611
9142,171.8159105416668,61,0.2116931250000107,63,0.030241875000001528
9143,171.8461524166668,60,0.030241875000001528,73,0.12096749999997769
9144,172.05784554166678,60,0.21169312499998227,63,0.030241875000001528
9145,172.08808741666678,59,0.030241875000001528,70,0.12096750000000611
9146,172.2997805416668,59,0.2116931250000107,58,0.030241875000001528
9147,172.3300224166668,58,0.030241875000001528,67,0.12096749999997769
9148,172.54171554166678,58,0.21169312499998227,54,0.030241875000001528
9149,172.57195741666678,57,0.030241875000001528,65,0.12096750000000611
9150,172.7836505416668,57,0.2116931250000107,51,0.030241875000001528
9151,172.8138924166668,56,0.030241875000001528,63,0.12096750000000611
9152,173.02558554166677,56,0.21169312499998227,49,0.030241875000001528
9153,173.05582741666677,55,0.030241875000001528,60,0.12082016666664686
9154,173.26748633333344,55,0.21165891666666425,46,0.030306749999994054
9155,173.29779308333343,54,0.030306749999994054,58,0.12155749999999443
9156,173.51077070833344,54,0.21297762500000772,44,0.030514708333328144
9157,173.54128541666677,51,0.030514708333328144,54,0.12232845833332817
9158,173.7555946250001,51,0.2143092083333329,44,0.0307230416666755
9159,173.78631766666678,52,0.0307230416666755,52,0.1229759999999942
9160,174.00152566666677,52,0.21520799999998985,38,0.03074399999999855
9161,174.03226966666676,48,0.03074399999999855,50,0.1229759999999942
9162,174.24747766666675,48,0.21520799999998985,39,0.030744000000026972
9163,174.27822166666678,49,0.030744000000026972,50,0.1229759999999942
9164,174.49342966666677,49,0.21520799999998985,39,0.03074399999999855
9165,174.52417366666677,52,0.03074399999999855,50,0.12477649999999585
9166,174.74253254166678,52,0.21835887500000695,39,0.03119412499998475
9167,174.77372666666676,54,0.03119412499998475,50,0.12477649999999585
9168,174.99208554166677,54,0.21835887500000695,37,0.031194125000013173
9169,175.02327966666678,55,0.031194125000013173,51,0.12684999999999036
9170,175.2452671666668,55,0.22198750000001155,40,0.03171249999999759
9171,175.2769796666668,57,0.03171249999999759,54,0.125
9172,175.4957296666668,57,0.21875,44,0.03125
9173,175.5269796666668,55,0.03125,55,0.125
9174,175.7457296666668,55,0.21875,44,0.03125
9175,175.7769796666668,56,0.03125,58,0.125
9176,175.9957296666668,56,0.21875,49,0.03125
9177,176.0269796666668,57,0.03125,62,0.12478333333334035
9178,176.2455347500001,57,0.21855508333331386,51,0.03131525000000579
9179,176.2768500000001,55,0.03131525000000579,68,0.12539200000000505
9180,176.49649383333346,55,0.21964383333335036,54,0.031446499999987054
9181,176.52794033333345,56,0.031446499999987054,73,0.12600641666668366
9182,176.74868375000014,56,0.22074341666669284,71,0.0316234166666618
9183,176.7803071666668,68,0.0316234166666618,83,0.12170399999999404
9184,176.9932891666668,68,0.21298200000001088,68,0.030425999999977194
9185,177.0237151666668,64,0.030425999999977194,80,0.12170400000002246
9186,177.2366971666668,64,0.21298200000001088,63,0.030426000000005615
9187,177.2671231666668,61,0.030426000000005615,76,0.12170399999999404
9188,177.4801051666668,61,0.21298199999998246,57,0.030426000000005615
9189,177.5105311666668,57,0.030426000000005615,71,0.122058833333341
9190,177.72436233333346,57,0.21383116666666524,52,0.03061850000000277
9191,177.75498083333346,54,0.03061850000000277,66,0.12280833333332453
9192,177.97012845833348,54,0.2151476250000144,44,0.03080837499999234
9193,178.00093683333347,51,0.03080837499999234,57,0.12357733333331566
9194,178.21743108333345,57,0.21649424999998246,41,0.031022124999992684
9195,178.24845320833344,32,0.031022124999992684,56,0.12098249999999666
9196,178.46017258333345,56,0.21171937500000126,42,0.03024562499999206
9197,178.49041820833344,55,0.03024562499999206,53,0.12098249999999666
9198,178.70213758333344,55,0.21171937500000126,42,0.03024562499999206
9199,178.73238320833343,54,0.03024562499999206,55,0.12098250000002508
9200,178.94410258333343,54,0.21171937500000126,43,0.030245625000020482
9201,178.97434820833345,53,0.030245625000020482,56,0.12098249999999666
9202,179.18606758333345,53,0.21171937500000126,44,0.03024562499999206
9203,179.21631320833345,52,0.03024562499999206,58,0.12098249999999666
9204,179.42803258333345,52,0.21171937500000126,46,0.03024562499999206
9205,179.45827820833344,51,0.03024562499999206,60,0.12098249999999666
9206,179.66999758333344,51,0.21171937500000126,46,0.03024562499999206
9207,179.70024320833343,50,0.03024562499999206,62,0.24642670833333113
9208,179.91573316666677,50,0.21548995833333606,49,0.030936749999995072
9209,179.94666991666676,49,0.030936749999995072,64,0.1241742916666908
9210,180.16438391666676,49,0.21771400000000085,48,0.03126037500001644
9211,180.19564429166678,48,0.03126037500001644,66,0.12546087499998748
9212,180.41563466666676,48,0.21999037499998053,47,0.031590875000006235
9213,180.44722554166677,47,0.031590875000006235,67,0.12676991666666027
9214,180.66953658333344,47,0.22231104166667137,51,0.031929875000002994
9215,180.70146645833344,46,0.031929875000002994,69,0.1281293749999861
9216,180.9261453750001,46,0.2246789166666474,55,0.03227612500000987
9217,180.9584215000001,45,0.03227612500000987,71,0.14101049999999304
9218,181.24044250000009,47,0.2820209999999861,72,0.14268749999999386
9219,181.52581750000007,38,0.2853749999999877,49,0.28537500000001614
9220,181.8111925000001,47,0.28537500000001614,69,0.2853749999999877
9221,182.09656750000008,47,0.2853749999999877,66,0.14268750000002228
9222,182.1322393750001,49,0.03567187500001978,66,0.03567187499999136
9223,182.1679112500001,44,0.03567187499999136,72,0.07134375000001114
9224,182.3819425000001,35,0.214031250000005,48,0.2780740000000037
9225,182.5209795000001,42,0.13903700000000185,68,0.13903700000000185
9226,182.6600165000001,47,0.13903700000000185,72,0.2780740000000037
9227,182.9380905000001,49,0.2780740000000037,76,0.13617199999998775
9228,183.2104345000001,28,0.2723440000000039,51,0.2780740000000037
9229,183.4885085000001,52,0.2780740000000037,81,0.1396844999999871
9230,183.7678775000001,57,0.27936900000000264,87,0.8420250000000067
9231,184.0485525000001,37,0.28067500000000223,54,0.28067500000000223
9232,184.32922750000012,30,0.28067500000000223,54,0.28067500000000223
9233,184.60990250000012,56,0.28067500000000223,61,0.13838899999998944
9234,184.88668050000012,30,0.2767780000000073,36,0.2711130000000139
9235,185.02223700000013,54,0.13555650000000696,54,0.06777825000000348
9236,185.15779350000014,45,0.13555650000000696,56,0.2711129999999855
9237,185.42890650000012,56,0.2711129999999855,60,0.13870900000000574
9238,185.70632450000014,30,0.2774180000000115,37,0.2729750000000024
9239,185.84281200000012,54,0.136487499999987,54,0.06824375000002192
9240,185.97929950000014,54,0.13648750000001542,56,0.2729750000000024
9241,186.25227450000014,47,0.2729750000000024,60,0.13838899999998944
9242,186.52905250000015,30,0.2767780000000073,39,0.28067500000000223
9243,186.66939000000013,54,0.1403374999999869,55,0.07016875000002187
9244,186.80972750000015,54,0.14033750000001532,57,0.29126199999998903
9245,187.10098950000014,51,0.29126199999998903,68,0.8391599999999926
9246,187.38070950000014,35,0.2797199999999975,42,0.2797199999999975
9247,187.52056950000014,52,0.13985999999999876,57,0.06992999999999938
9248,187.66042950000013,52,0.13985999999999876,62,0.2797199999999975
9249,187.94014950000013,59,0.2797199999999975,86,0.13870900000000574
9250,188.21756750000014,40,0.2774180000000115,53,0.2736099999999908
9251,188.35437250000015,56,0.1368050000000096,77,0.0684024999999906
9252,188.49117750000013,59,0.1368049999999812,80,0.2736100000000192
9253,188.76478750000015,59,0.2736100000000192,77,0.1403374999999869
9254,188.79987187500015,61,0.035084374999996726,78,0.035084374999996726
9255,188.83495625000015,59,0.035084374999996726,86,0.07016874999999345
9256,189.04351400000013,50,0.2085577499999829,53,0.27050199999999336
9257,189.17876500000014,57,0.1352510000000109,77,0.13525099999998247
9258,189.31401600000012,59,0.13525099999998247,80,0.27050199999999336
9259,189.58451800000012,57,0.27050199999999336,88,0.13343399999999406
9260,189.8513860000001,49,0.2668679999999881,56,0.2686730000000068
9261,190.1200590000001,61,0.2686730000000068,92,0.13774749999998903
9262,190.39555400000012,61,0.2754950000000065,95,0.8123080000000016
9263,190.6606540000001,49,0.2650999999999897,61,0.274864000000008
9264,190.93551800000012,49,0.274864000000008,62,0.2723440000000039
9265,191.20786200000012,59,0.2723440000000039,59,0.13255000000000905
9266,191.4729620000001,42,0.2650999999999897,36,0.2604509999999891
9267,191.6031875000001,66,0.13022549999999455,53,0.06511274999999728
9268,191.7334130000001,66,0.13022549999999455,56,0.26045100000001753
9269,191.99386400000012,59,0.26045100000001753,59,0.132843500000007
9270,192.25955100000013,42,0.265687000000014,36,0.259886999999992
9271,192.38949450000013,66,0.129943499999996,52,0.06497175000001221
9272,192.51943800000012,57,0.129943499999996,55,0.2598870000000204
9273,192.77932500000014,68,0.2598870000000204,59,0.13373150000001033
9274,193.04678800000013,42,0.26746299999999223,38,0.2820209999999861
9275,193.18779850000013,66,0.14101049999999304,52,0.07050524999999652
9276,193.32880900000012,66,0.14101049999999304,55,0.29601900000000114
9277,193.62482800000012,64,0.29601900000000114,59,0.29601900000000114
9278,194.21686600000012,52,0.5920380000000023,51,0.24017299999999864
9279,194.45703900000012,52,0.24017299999999864,51,0.24017299999999864
9280,194.69721200000012,52,0.24017299999999864,54,1.08662878541665
9281,194.88182750000013,54,0.1846155000000067,55,0.1846155000000067
9282,195.06644300000013,52,0.1846155000000067,54,0.3633977270833384
9283,195.25008418333346,51,0.18364118333332158,48,0.17975654375001682
9284,195.42984072708347,52,0.17975654375001682,49,0.3540000583332983
9285,195.60778703333347,53,0.17794630624999286,51,0.17605375208330543
9286,195.78384078541677,56,0.17605375208330543,53,0.6687100000000044
9287,196.12378378541678,33,0.3399430000000052,35,0.32876699999999914
9288,196.45255078541678,54,0.32876699999999914,50,0.32390399999999886
9289,196.77645478541677,47,0.32390399999999886,50,1.0125449999999887
9290,196.94521228541677,49,0.16875749999999812,50,0.16875749999999812
9291,197.11396978541677,47,0.16875749999999812,50,0.33751499999999623
9292,197.28272728541677,46,0.16875749999999812,50,0.16875749999999812
9293,197.45148478541677,47,0.16875749999999812,50,0.33751499999999623
9294,197.62024228541677,48,0.16875749999999812,50,0.16875749999999812
9295,197.78899978541676,49,0.16875749999999812,61,0.34372099999998795
9296,198.13272078541675,45,0.34372099999998795,50,0.33751499999999623
9297,198.30147828541675,49,0.16875749999999812,51,0.16875749999999812
9298,198.47023578541675,50,0.16875749999999812,54,0.33751499999999623
9299,198.63899328541675,51,0.16875749999999812,56,0.16875749999999812
9300,198.80775078541674,52,0.16875749999999812,50,1.0330914999999834
9301,198.85307353541674,54,0.04532274999999686,50,0.04532274999999686
9302,198.89839628541674,52,0.04532274999999686,50,0.09064549999999372
9303,198.98904178541673,51,0.09064549999999372,55,0.16875749999999812
9304,199.15779928541673,52,0.16875749999999812,57,0.34018599999998855
9305,199.32655678541673,61,0.16875749999999812,58,0.17142849999999044
9306,199.49798528541672,59,0.17142849999999044,60,0.3428570000000093
9307,199.66941378541674,57,0.17142850000001886,62,0.17142849999999044
9308,199.84084228541673,56,0.17142849999999044,64,0.6572820000000092
9309,200.16948328541673,33,0.3286410000000046,29,0.3286410000000046
9310,200.49812428541674,54,0.3286410000000046,56,0.35122599999999693
9311,200.84935028541673,47,0.35122599999999693,52,1.0952894999999785
9312,200.97381361875006,49,0.12446333333332404,50,0.12446333333335247
9313,201.0982769520834,47,0.12446333333335247,50,0.12446333333332404
9314,201.22274028541673,46,0.12446333333332404,52,0.36509649999999283
9315,201.40943528541672,47,0.18669499999998607,50,0.17840150000000676
9316,201.58783678541673,50,0.17840150000000676,56,0.3568029999999851
9317,201.76623828541673,49,0.17840150000000676,50,0.17840149999997834
9318,201.9446397854167,45,0.17840149999997834,50,0.360138500000005
9319,202.12768928541672,39,0.18304950000000986,42,0.17708899999999517
9320,202.30477828541672,40,0.17708899999999517,43,0.35159558333330665
9321,202.48103236875002,44,0.17625408333330483,45,0.17534150000000182
9322,202.65637386875002,45,0.17534150000000182,47,0.34815595833333646
9323,202.83085724375002,49,0.1744833749999941,48,0.17367258333334235
9324,203.00452982708336,52,0.17367258333334235,50,1.0552868333333265
9325,203.17766532708333,54,0.17313549999997235,51,0.1741667916666927
9326,203.35183211875002,52,0.1741667916666927,53,0.3516909999999882
9327,203.52708336875003,51,0.1752512500000023,55,0.1764397499999859
9328,203.70352311875,52,0.1764397499999859,56,0.35629354166667326
9329,203.88108036875002,53,0.17755725000000666,58,0.1339448749999974
9330,204.01502524375002,53,0.1339448749999974,54,0.04479141666666919
9331,204.0598166604167,56,0.04479141666666919,67,0.7093120000000113
9332,204.4200686604167,42,0.3602520000000027,30,0.3490600000000086
9333,204.7691286604167,54,0.3490600000000086,59,0.34905999999998016
9334,205.11818866041668,47,0.34905999999998016,50,1.0552197083332828
9335,205.29271866041668,49,0.1745300000000043,50,0.1745300000000043
9336,205.4672486604167,47,0.1745300000000043,41,0.349329124999997
9337,205.5108811604167,49,0.04363250000000107,41,0.04363250000000107
9338,205.5545136604167,47,0.04363250000000107,49,0.08726500000000215
9339,205.6417786604167,46,0.08726500000000215,50,0.17479912499999273
9340,205.81657778541668,47,0.17479912499999273,52,0.3568305833332772
9341,205.99376311875,48,0.17718533333331266,55,0.17964524999996456
9342,206.17340836874996,49,0.17964524999996456,64,0.3625820000000033
9343,206.53599036874996,45,0.3625820000000033,54,0.3625820000000033
9344,206.71728136874995,49,0.18129099999998743,53,0.18129100000001586
9345,206.89857236874997,50,0.18129100000001586,55,0.3625820000000033
9346,207.07986336874995,51,0.18129099999998743,57,0.18129100000001586
9347,207.26115436874997,52,0.18129100000001586,50,1.225121999999999
9348,207.31080024374998,54,0.049645875000010165,50,0.04964587499998174
9349,207.36044611874996,52,0.04964587499998174,59,0.09929175000002033
9350,207.45973786874998,51,0.09929175000002033,57,0.19858349999998381
9351,207.65832136874997,52,0.19858349999998381,58,0.442103000000003
9352,207.82264636874996,62,0.16432499999999095,67,0.13888900000000604
9353,207.96153536874996,61,0.13888900000000604,65,0.13888900000000604
9354,208.10042436874997,61,0.13888900000000604,63,0.38585199999999986
9355,208.2290417020833,59,0.1286173333333238,61,0.12861733333335224
9356,208.35765903541665,57,0.12861733333335224,59,0.1286173333333238
9357,208.48627636874997,56,0.1286173333333238,57,0.7228920000000016
9358,208.84772236874997,33,0.3614460000000008,30,0.3614460000000008
9359,209.20916836874997,54,0.3614460000000008,55,0.3614460000000008
9360,209.57061436874997,47,0.3614460000000008,46,1.1483781916666942
9361,209.6895487020833,49,0.11893433333332837,46,0.11893433333332837
9362,209.80848303541663,47,0.11893433333332837,46,0.11893433333335679
9363,209.92741736874999,46,0.11893433333335679,46,0.36865900000000806
9364,210.10811836874998,47,0.1807009999999991,47,0.18795800000000895
9365,210.29607636875,50,0.18795800000000895,49,0.4229161916666726
9366,210.50596956041667,49,0.20989319166667997,45,0.21302299999999263
9367,210.71899256041667,45,0.21302299999999263,39,0.4260460000000137
9368,211.14503856041668,37,0.4260460000000137,27,0.42604599999998527
9369,211.57108456041666,49,0.42604599999998527,39,0.07075474999999187
9370,211.71259406041668,49,0.14150950000001217,39,0.07075474999999187
9371,211.85410356041666,49,0.14150949999998375,39,0.14150950000001217
9372,212.42014156041665,49,0.5660379999999918,39,0.28301900000002433
9373,212.56165106041666,49,0.14150950000001217,39,0.07075474999999187
9374,212.70316056041668,49,0.14150950000001217,39,0.14150949999998375
9375,213.26919856041667,49,0.5660379999999918,39,0.2830189999999959
9376,213.41070806041665,49,0.14150949999998375,39,0.0707547500000203
9377,213.55221756041666,49,0.14150950000001217,39,0.14150950000001217
9378,213.83523656041666,61,0.2830189999999959,94,0.07075474999999187
9379,213.97674606041667,61,0.14150950000001217,91,0.07075474999999187
9380,214.11825556041666,49,0.14150949999998375,95,0.14150950000001217
9381,214.40127456041665,61,0.2830189999999959,95,0.0707547500000203
9382,214.54278406041666,61,0.14150950000001217,91,0.07075474999999187
9383,214.68429356041668,61,0.14150950000001217,95,0.14150949999998375
9384,214.96731256041667,61,0.2830189999999959,95,0.07075474999999187
9385,215.10882206041666,61,0.14150949999998375,91,0.0707547500000203
9386,215.25033156041667,61,0.14150950000001217,95,0.14150949999998375
9387,215.81636956041666,49,0.5660379999999918,39,0.2891569999999888
9388,215.96094806041665,49,0.1445784999999944,39,0.0722892500000114
9389,216.10552656041665,43,0.1445784999999944,39,0.1445785000000228
9390,216.68384056041666,49,0.578314000000006,39,0.32104150000000686
9391,216.84049856041665,37,0.15665799999999308,39,0.08219174999999268
9392,217.00488206041666,49,0.16438350000001378,39,0.15228450000000748
9393,217.30945106041665,37,0.30456899999998654,43,0.06880724999999188
9394,217.44706556041666,37,0.13761450000001219,47,0.06880724999999188
9395,217.58468006041664,49,0.13761449999998376,52,0.27522899999999595
9396,217.85990906041664,49,0.27522899999999595,55,0.07025749999999675
9397,218.00042406041663,49,0.1405149999999935,57,0.07025749999999675
9398,218.14093906041663,49,0.1405149999999935,66,0.28103000000001543
9399,218.42196906041664,37,0.28103000000001543,72,0.08264474999998583
9400,218.58725856041664,49,0.1652895000000001,67,0.08264474999998583
9401,218.7489232270833,49,0.1616646666666668,97,0.13888900000000604
9402,219.02670122708332,53,0.27777800000001207,56,0.194985250000002
9403,219.15799222708333,54,0.1312910000000045,51,0.13832941666666443
9404,219.28538072708332,56,0.12738849999999502,64,0.1991797500000132
9405,219.55244922708332,49,0.2670684999999935,96,0.13274350000000368
9406,219.81793622708332,54,0.26548700000000736,59,0.19441324999999665
9407,219.94865522708332,56,0.13071899999999914,55,0.13828175000000442
9408,220.07604372708332,58,0.12738849999999502,67,0.1960784999999987
9409,220.33748172708331,49,0.2614379999999983,97,0.1290324999999939
9410,220.5955467270833,56,0.2580649999999878,67,0.18869425000002593
9411,220.72212922708331,58,0.12658250000001203,65,0.13507562500001313
9412,220.8463527270833,59,0.12422349999999938,75,0.19533824999999183
9413,221.1068037270833,30,0.2604509999999891,97,0.5067359999999894
9414,221.3601717270833,46,0.2533679999999947,71,0.12668400000001157
9415,221.6135397270833,31,0.2533679999999947,92,0.13487399999999639
9416,221.7484137270833,52,0.13487399999999639,69,0.13487399999999639
9417,221.88328772708329,58,0.13487399999999639,77,0.5150674999999865
9418,222.14702372708328,63,0.2637359999999944,60,0.13722345833332383
9419,222.27387372708327,61,0.12684999999999036,54,0.13551904166666873
9420,222.39835522708327,59,0.12448150000000169,58,0.13245050000000447
9421,222.66325622708328,59,0.26490100000000893,76,0.5078640000000121
9422,222.92187722708329,61,0.2586210000000051,57,0.1875144999999918
9423,223.0476632270833,59,0.12578600000000506,53,0.1344272083333351
9424,223.1711202270833,58,0.12345700000000193,56,0.1316424999999981
9425,223.4344052270833,58,0.2632849999999962,71,0.5054030000000012
9426,223.69045422708328,59,0.2560489999999902,55,0.24935400000001096
9427,223.8163512270833,58,0.12589700000000903,51,0.13477179166667952
9428,223.9398082270833,56,0.12345700000000193,54,0.135777499999989
9429,224.2113632270833,47,0.27155500000000643,64,0.7902589999999918
9430,224.47181422708329,58,0.2604509999999891,48,0.19327425000000176
9431,224.6006637270833,56,0.12884950000000117,45,0.14018737500001066
9432,224.7295132270833,46,0.12884950000000117,48,0.1360545000000002
9433,225.0016222270833,49,0.2721090000000004,96,0.4018259999999998
9434,225.27378022708328,53,0.27215799999999035,57,0.19322725000000673
9435,225.4034482270833,54,0.12966800000000944,52,0.13791762500000004
9436,225.53056672708328,56,0.12711849999999458,63,0.1974782500000174
9437,225.79593372708328,49,0.2653669999999977,95,0.3902159166666763
9438,226.05919214374995,46,0.26325841666667316,64,0.18906925000001706
9439,226.18614964374996,56,0.12695750000000317,57,0.1347943333333319
9440,226.31037314374996,46,0.12422349999999938,69,0.19027500000001396
9441,226.56407314374997,25,0.25370000000000914,95,0.3803584999999998
9442,226.81957714374997,56,0.25550400000000195,72,0.1863299999999981
9443,226.94443164374997,58,0.12485449999999787,68,0.1339453333333438
9444,227.06738264374997,59,0.12295100000000048,80,0.19789800000000923
9445,227.33124664374998,61,0.2638640000000123,101,0.3800520000000063
9446,227.58461464374997,37,0.2533679999999947,48,0.12668400000001157
9447,227.71129864374998,61,0.12668400000001157,76,0.13483149999999
9448,227.84613014374997,52,0.13483149999999,68,0.288463500000006
9449,227.99001514374999,58,0.1438850000000116,74,0.1445784999999944
9450,228.13459364374998,52,0.1445784999999944,64,0.5102935000000173
9451,228.26454264375,61,0.12994900000001053,72,0.1405059999999878
9452,228.39449164374997,63,0.1299489999999821,64,0.13699329166666985
9453,228.52117564374998,61,0.12668400000001157,57,0.13461137500001996
9454,228.64488714375,51,0.12371150000001307,54,0.13079849999999738
9455,228.90648414375,50,0.26159699999999475,65,0.5104629999999872
9456,229.03560514375,59,0.12912099999999782,69,0.13972275000000423
9457,229.16472614375,61,0.12912099999999782,65,0.1897209999999916
9458,229.29194714374998,59,0.1272209999999916,55,0.13604241666666894
9459,229.41694714374998,49,0.125,51,0.13250899999999888
9460,229.68196514374998,49,0.26501799999999776,63,0.5556280000000129
9461,229.81928364374997,58,0.13731849999999213,46,0.14902645833336692
9462,229.95660214375,59,0.13731850000002055,58,0.2809910000000002
9463,230.09709764374998,58,0.1404954999999859,45,0.15251066666667157
9464,230.23759314375,56,0.14049550000001432,50,0.5674339999999916
9465,230.52595714375,46,0.2883640000000014,59,0.27906999999999016
9466,230.80502714374998,54,0.27906999999999016,53,0.06640100000001325
9467,230.93782914374998,54,0.1328019999999981,64,0.06640100000001325
9468,231.07063114374998,54,0.1328019999999981,67,0.2656039999999962
9469,231.20343314374998,54,0.1328019999999981,69,0.06640100000001325
9470,231.33623514374997,54,0.1328019999999981,78,0.3949274999999943
9471,231.46787764374997,54,0.1316424999999981,64,0.06582124999999905
9472,231.59952014374997,54,0.1316424999999981,78,0.19746374999999716
9473,231.73116264374997,54,0.1316424999999981,74,0.06582124999999905
9474,231.86280514374997,54,0.1316424999999981,69,0.20076699999998482
9475,231.99444764374996,54,0.1316424999999981,69,0.06912449999998671
9476,232.13269664374997,56,0.13824900000000184,65,0.24717799999999102
9477,232.25628564374998,54,0.12358900000000972,58,0.1338880833333178
9478,232.37987464374996,51,0.1235889999999813,56,0.18538350000000037
9479,232.50346364374997,47,0.12358900000000972,48,0.13388808333334623
9480,232.62705264374998,42,0.12358900000000972,52,0.18538350000000037
9481,232.75064164374996,43,0.1235889999999813,44,0.12358900000000972
9482,232.87423064374997,44,0.12358900000000972,58,0.24717533333333108
9483,232.99765031041665,44,0.12341966666667759,51,0.06183616666663738
9484,233.1214059770833,44,0.1237556666666535,55,0.18639133333334712
9485,233.24558331041663,44,0.12417733333333558,46,0.06221400000001154
9486,233.37009731041664,44,0.1245140000000049,54,0.18754566666666506
9487,233.49504031041664,44,0.1249430000000018,64,0.06260266666666325
9488,233.6203309770833,42,0.12529066666667177,61,0.25082087499998806
9489,233.7459038520833,47,0.12557287499998893,53,0.13567466666668793
9490,233.8711518520833,51,0.12524799999999914,46,0.1872208750000084
9491,233.99607272708332,54,0.12492087500001503,64,0.13489733333332765
9492,234.1206082270833,59,0.12453549999997904,59,0.18620200000000864
9493,234.2448267270833,55,0.124218500000012,52,0.12388216666667518
9494,234.36870889374998,29,0.12388216666667518,55,0.2533679999999947
9495,234.49539289375,56,0.12668400000001157,48,0.06334199999997736
9496,234.62207689374998,56,0.12668399999998314,64,0.19002600000001735
9497,234.74876089375,56,0.12668400000001157,60,0.06334200000000578
9498,234.87544489374997,56,0.12668399999998314,53,0.19002600000001735
9499,235.00212889374998,56,0.12668400000001157,73,0.06334200000000578
9500,235.12881289375,56,0.12668400000001157,77,0.26442199999999616
9501,235.21695356041667,58,0.08814066666667486,55,0.0991582499999879
9502,235.30509422708332,56,0.08814066666664644,55,0.09908733333332975
9503,235.39323489375,54,0.08814066666667486,65,0.1976087916666529
9504,235.52480793541665,59,0.1315730416666554,57,0.143307416666687
9505,235.65704851875,63,0.1322405833333562,51,0.13301983333332146
9506,235.92377297708333,68,0.2667244583333286,66,0.268888000000004
9507,236.18201497708333,66,0.25824199999999564,50,0.19162800000000857
9508,236.3097669770833,64,0.12775199999998677,45,0.13872220833334836
9509,236.43751897708333,58,0.1277520000000152,52,0.1316424999999981
9510,236.70080397708332,61,0.2632849999999962,58,0.6453699999999856
9511,236.95904597708332,59,0.25824199999999564,43,0.19203674999999976
9512,237.08707047708333,54,0.1280245000000093,44,0.1389477499999714
9513,237.2150949770833,42,0.1280244999999809,38,0.13107899999999972
9514,237.4772529770833,54,0.26215799999999945,48,0.2632849999999962
9515,237.6088954770833,54,0.1316424999999981,44,0.06582124999999905
9516,237.7405379770833,54,0.1316424999999981,65,0.19746374999999716
9517,237.8721804770833,54,0.1316424999999981,69,0.06582124999999905
9518,238.0038229770833,54,0.1316424999999981,63,0.20076699999998482
9519,238.1354654770833,54,0.1316424999999981,71,0.06912449999998671
9520,238.2737144770833,56,0.13824900000000184,61,0.24717799999999102
9521,238.3973034770833,54,0.12358900000000972,56,0.1338880833333178
9522,238.5208924770833,51,0.1235889999999813,50,0.18538350000000037
9523,238.6444814770833,47,0.12358900000000972,50,0.13388808333334623
9524,238.7680704770833,39,0.12358900000000972,52,0.18538350000000037
9525,238.8916594770833,43,0.1235889999999813,53,0.12358900000000972
9526,239.0152484770833,44,0.12358900000000972,57,0.24666999999999462
9527,239.1385834770833,44,0.12333499999999731,51,0.061667499999998654
9528,239.2619184770833,44,0.12333499999999731,55,0.18500249999999596
9529,239.3852534770833,44,0.12333499999999731,55,0.061667499999998654
9530,239.5085884770833,44,0.12333499999999731,61,0.18500250000002438
9531,239.6319234770833,44,0.12333499999999731,65,0.061667500000027076
9532,239.75525847708332,42,0.12333500000002573,58,0.24666999999999462
9533,239.8785934770833,47,0.12333499999999731,52,0.13361291666666375
9534,240.0019284770833,51,0.12333499999999731,49,0.18500249999999596
9535,240.1252634770833,54,0.12333499999999731,45,0.13361291666666375
9536,240.2485984770833,59,0.12333499999999731,52,0.18500249999999596
9537,240.3719334770833,55,0.12333499999999731,48,0.12335616666666738
9538,240.49528964374997,56,0.12335616666666738,58,0.2533679999999947
9539,240.62197364374998,56,0.12668400000001157,49,0.06334199999997736
9540,240.74865764374997,56,0.12668399999998314,61,0.19002600000001735
9541,240.87534164374998,56,0.12668400000001157,57,0.06334200000000578
9542,241.00202564374996,56,0.12668399999998314,65,0.19002600000001735
9543,241.12870964374997,56,0.12668400000001157,65,0.06334200000000578
9544,241.25539364374998,56,0.12668400000001157,75,0.26442199999999616
9545,241.34353431041666,58,0.08814066666667486,55,0.0991582499999879
9546,241.4316749770833,56,0.08814066666664644,55,0.09908733333332975
9547,241.51981564374998,54,0.08814066666667486,66,0.1976087916666529
9548,241.65138868541663,59,0.1315730416666554,64,0.143307416666687
9549,241.78362926875,63,0.1322405833333562,60,0.13301983333332146
9550,242.05035372708332,68,0.2667244583333286,67,0.268888000000004
9551,242.30859572708331,66,0.25824199999999564,52,0.25550400000000195
9552,242.4363477270833,64,0.12775199999998677,50,0.13872220833334836
9553,242.56409972708332,58,0.1277520000000152,52,0.1316424999999981
9554,242.8273847270833,59,0.2632849999999962,65,0.8005799999999965
9555,243.0906697270833,39,0.2632849999999962,35,0.2632849999999962
9556,243.3539547270833,51,0.2632849999999962,55,0.2740100000000041
9557,243.39962306041664,53,0.04566833333333875,49,0.04566833333333875
9558,243.44529139374998,51,0.04566833333333875,65,0.04566833333331033
9559,243.4909597270833,53,0.04566833333331033,53,0.04566833333333875
9560,243.53662806041663,51,0.04566833333333875,67,0.04566833333333875
9561,243.58229639374997,50,0.04566833333333875,56,0.04566833333333875
9562,243.6279647270833,49,0.04566833333333875,87,0.27215799999999035
9563,243.9001227270833,53,0.27215799999999035,62,0.19746374999999716
9564,244.0317652270833,54,0.1316424999999981,62,0.14261270833333128
9565,244.1634077270833,53,0.1316424999999981,67,0.19953125000000682
9566,244.43082772708328,49,0.2674199999999871,85,0.2638640000000123
9567,244.6946917270833,54,0.2638640000000123,73,0.19450199999999995
9568,244.8243597270833,56,0.12966800000000944,69,0.14047366666665084
9569,244.9540277270833,58,0.12966799999998102,76,0.19450199999999995
9570,245.2133637270833,49,0.2593360000000189,87,0.25550400000000195
9571,245.4688677270833,56,0.25550400000000195,73,0.18806399999999712
9572,245.5942437270833,58,0.1253759999999886,68,0.1362281250000308
9573,245.7196197270833,56,0.12537600000001703,83,0.19533824999999183
9574,245.9800707270833,61,0.2604509999999891,77,0.5067359999999894
9575,246.2334387270833,37,0.2533679999999947,61,0.12668400000001157
9576,246.4868067270833,61,0.2533679999999947,75,0.26974799999999277
9577,246.6216807270833,61,0.13487399999999639,69,0.13487399999999639
9578,246.75655472708328,58,0.13487399999999639,70,0.5118954999999801
9579,247.01700572708327,63,0.2604509999999891,59,0.1375729583333225
9580,247.14422672708326,61,0.1272209999999916,56,0.1352178333333427
9581,247.26845022708326,59,0.12422349999999938,53,0.13193200000000616
9582,247.53231422708328,59,0.2638640000000123,69,0.5069864999999822
9583,247.78891122708328,61,0.2565969999999993,47,0.1884059999999863
9584,247.91533372708327,59,0.12642249999998967,45,0.13493720833332645
9585,248.03930072708326,49,0.12396699999999328,52,0.1316424999999981
9586,248.30258572708325,58,0.2632849999999962,66,0.5056575000000123
9587,248.55863472708324,59,0.2560489999999902,53,0.2496085000000221
9588,248.68453172708325,58,0.12589700000000903,47,0.13502629166669067
9589,248.80824322708327,47,0.12371150000001307,67,0.135777499999989
9590,249.07979822708327,56,0.27155500000000643,64,0.786689999999993
9591,249.34024922708326,58,0.2604509999999891,52,0.25769900000000234
9592,249.46909872708326,56,0.12884950000000117,48,0.1400386666666691
9593,249.59794822708326,46,0.12884950000000117,53,0.13426999999998657
9594,249.86648822708327,61,0.26854000000000156,97,0.27215799999999035
9595,250.13864622708326,53,0.27215799999999035,57,0.1928259999999966
9596,250.26831422708327,54,0.12966800000000944,53,0.13711512500000822
9597,250.39463022708327,53,0.12631600000000276,63,0.1974782500000174
9598,250.65999722708327,49,0.2653669999999977,97,0.26325841666667316
9599,250.92325564374994,54,0.26325841666667316,60,0.1888132500000097
9600,251.05021314374994,56,0.12695750000000317,57,0.1342823333333456
9601,251.17392464374996,54,0.12371150000001307,68,0.19027500000001396
9602,251.42762464374997,61,0.25370000000000914,96,0.27027000000001067
9603,251.69789464374998,56,0.27027000000001067,72,0.21604750000000195
9604,251.84041264374997,58,0.14251799999999548,70,0.16057250000000067
9605,251.98747164374998,56,0.14705900000001293,80,0.24324300000000676
9606,252.31179564374997,58,0.32432399999999006,99,0.2533679999999947
9607,254.39546964374995,61,2.0836739999999736,49,0.3199999999999932
9608,254.55546964374994,58,0.1599999999999966,49,0.1599999999999966
9609,254.71546964374994,61,0.1599999999999966,55,0.5995209999999815
9610,255.02159164374993,63,0.3061219999999878,53,0.15892445833333113
9611,255.16829114374994,61,0.14669950000001108,52,0.1593577083333173
9612,255.31499064374992,51,0.14669949999998266,48,0.15189849999998728
9613,255.61878764374993,59,0.303797000000003,54,0.5848000000000013
9614,255.91581764374993,61,0.29703000000000657,51,0.28776999999999475
9615,256.0597026437499,59,0.14388499999998317,48,0.1565112499999941
9616,256.2035876437499,49,0.1438850000000116,45,0.30302999999997837
9617,256.5066176437499,49,0.30302999999997837,44,0.6631300000000238
9618,256.8249196437499,59,0.31830200000001696,41,0.3448280000000068
9619,256.9973336437499,58,0.1724140000000034,38,0.183728791666681
9620,257.16974764374993,47,0.1724140000000034,35,0.271554999999978
9621,258.25596764374995,18,1.0862200000000257,33,0.271554999999978
9622,258.52752264374993,34,0.271554999999978,29,0.271554999999978
9623,258.7990776437499,34,0.271554999999978,31,0.27155500000003485
9624,259.07063264374995,18,0.27155500000003485,32,0.271554999999978
9625,259.3421876437499,34,0.271554999999978,29,0.271554999999978
9626,259.6137426437499,34,0.271554999999978,31,0.27155500000003485
9627,259.88529764374994,18,0.27155500000003485,34,0.271554999999978
9628,260.1568526437499,34,0.271554999999978,29,0.27155500000003485
9629,260.42840764374995,25,0.27155500000003485,32,0.271554999999978
9630,260.6999626437499,18,0.271554999999978,33,0.271554999999978
9631,260.9715176437499,25,0.271554999999978,30,0.27155500000003485
9632,261.24307264374994,34,0.27155500000003485,32,0.271554999999978
9633,261.5146276437499,42,0.271554999999978,40,0.27155500000003485
9634,261.65040514374994,42,0.13577750000001743,38,0.06788875000000871
9635,261.78618264374995,42,0.13577750000001743,40,0.271554999999978
9636,261.9219601437499,42,0.13577749999996058,37,0.06788875000000871
9637,262.05773764374993,42,0.13577750000001743,49,0.271554999999978
9638,262.3292926437499,34,0.271554999999978,39,0.2526320000000055
9639,262.4556086437499,37,0.12631599999997434,39,0.12631600000003118
9640,262.5819246437499,42,0.12631600000003118,46,0.18947400000001835
9641,262.7082406437499,46,0.12631599999997434,45,0.12631600000003118
9642,262.8345566437499,51,0.12631600000003118,55,0.2210529999999835
9643,263.0556096437499,51,0.2210529999999835,44,0.031579000000022006
9644,263.0871886437499,50,0.031579000000022006,51,0.2440883749999898
9645,263.3007271437499,50,0.2135384999999701,39,0.03054987500001971
9646,263.3312770187499,49,0.03054987500001971,48,0.18356954166665673
9647,263.5454796854166,49,0.2142026666666652,39,0.030674875000045176
9648,263.5761545604166,48,0.030674875000045176,46,0.18421691666668494
9649,263.79110922708327,48,0.21495466666664242,35,0.03073775000001433
9650,263.8218469770833,47,0.03073775000001433,44,0.1848686249999787
9651,264.0375798520833,47,0.2157328750000147,33,0.030864249999979165
9652,264.0684441020833,46,0.030864249999979165,41,0.18546120833332225
9653,264.28485447708323,46,0.21641037499995264,32,0.03099174999999832
9654,264.3158462270832,44,0.03099174999999832,39,0.18612150000001293
9655,264.5640794770833,42,0.24823325000005525,44,0.24896300000000338
9656,264.6885609770833,42,0.12448150000000169,41,0.062240750000000844
9657,264.8130424770833,42,0.12448150000000169,44,0.18672225000000253
9658,264.9375239770833,42,0.12448150000000169,41,0.062240750000000844
9659,265.0620054770833,42,0.12448150000000169,53,0.24896300000000338
9660,265.3109684770833,39,0.24896300000000338,42,0.24691400000000385
9661,265.43442547708327,42,0.1234569999999735,42,0.12345700000003035
9662,265.5578824770833,47,0.12345700000003035,50,0.18518549999998868
9663,265.68133947708327,51,0.1234569999999735,49,0.12345700000003035
9664,265.8047964770833,56,0.12345700000003035,59,0.21604974999996784
9665,266.02084622708327,58,0.21604974999996784,48,0.03086425000003601
9666,266.0517104770833,56,0.03086425000003601,56,0.24064200000003666
9667,266.26223197708333,56,0.21052150000002712,42,0.030120500000009542
9668,266.29235247708334,55,0.030120500000009542,52,0.1809250833333067
9669,266.50345868541666,55,0.2111062083333195,42,0.030181124999955955
9670,266.5336398104166,54,0.030181124999955955,50,0.18149199999999155
9671,266.7454348104166,54,0.21179499999999507,38,0.03030300000000352
9672,266.7757378104166,53,0.03030300000000352,48,0.18204304166670227
9673,266.9881452270833,53,0.21240741666667873,36,0.03038491666666232
9674,267.01853014374996,52,0.03038491666666232,45,0.1826177500000199
9675,267.23163564374994,52,0.2131054999999833,35,0.03048775000002024
9676,267.26212339374996,51,0.03048775000002024,42,0.18315429166665353
9677,267.5064190187499,50,0.24429562499994972,48,0.24691350000000511
9678,267.6298757687499,50,0.12345675000000256,45,0.06172837499997286
9679,267.7533325187499,50,0.12345675000000256,48,0.18518512499997541
9680,267.8767892687499,50,0.12345675000000256,37,0.06172837499997286
9681,268.0002460187499,50,0.12345675000000256,48,0.18518512499997541
9682,268.1237027687499,50,0.12345675000000256,42,0.06172837499997286
9683,268.2471595187499,47,0.12345675000000256,46,0.2400000000000091
9684,268.36715951874993,50,0.12000000000000455,45,0.12000000000000455
9685,268.48715951874993,53,0.12000000000000455,55,0.18000000000000682
9686,268.60715951874994,56,0.12000000000000455,53,0.12000000000000455
9687,268.72715951874994,62,0.12000000000000455,70,0.18000000000000682
9688,268.9371595187499,62,0.20999999999997954,52,0.03000000000002956
9689,268.96715951874995,61,0.03000000000002956,62,0.23622408333335443
9690,269.1737393520833,61,0.2065798333333646,53,0.029644249999989825
9691,269.2033836020833,60,0.029644249999989825,65,0.17817916666666633
9692,269.41132464375,60,0.20794104166668603,54,0.029761874999962856
9693,269.44108651874996,59,0.029761874999962856,68,0.17920391666666546
9694,269.6502904354166,59,0.20920391666663818,59,0.03000000000002956
9695,269.6802904354166,58,0.03000000000002956,70,0.18032133333338152
9696,269.89073226874996,58,0.21044183333333422,60,0.030120500000009542
9697,269.92085276874997,57,0.030120500000009542,73,0.18137066666668034
9698,270.1325878104166,57,0.2117350416666568,65,0.030364375000033306
9699,270.16295218541666,56,0.030364375000033306,76,0.19003291666666655
9700,270.38723166458334,56,0.22427947916668245,70,0.0342465625000159
9701,270.42147822708336,70,0.0342465625000159,88,0.18000000000000682
9702,270.63147822708333,70,0.20999999999997954,71,0.03000000000002956
9703,270.66147822708336,68,0.03000000000002956,80,0.18000000000000682
9704,270.87147822708334,68,0.20999999999997954,70,0.03000000000002956
9705,270.9014782270834,67,0.03000000000002956,80,0.18000000000000682
9706,271.11147822708335,67,0.20999999999997954,69,0.03000000000002956
9707,271.1414782270834,66,0.03000000000002956,80,0.17532583333331786
9708,271.34587381041666,66,0.20439558333328023,72,0.02899491666664744
9709,271.3748687270833,65,0.02899491666664744,80,0.173078500000031
9710,271.5766462895834,65,0.2017775625000695,70,0.028625937500009968
9711,271.6052722270834,64,0.028625937500009968,80,0.17095966666670392
9712,271.8045337687501,64,0.19926154166671495,70,0.028301875000011023
9713,271.8328356437501,63,0.028301875000011023,80,0.16945666666663328
9714,272.0307013729167,63,0.19786572916660816,70,0.028409062500031723
9715,272.05911043541676,62,0.028409062500031723,83,0.17117629166671122
9716,272.25894922708346,62,0.19983879166670704,71,0.028735625000024356
9717,272.2876848520835,61,0.028735625000024356,86,0.1730042500000195
9718,272.4896466020835,61,0.2019617500000095,73,0.028957499999989977
9719,272.5186041020835,60,0.028957499999989977,89,0.17487158333329944
9720,272.7227725604168,60,0.20416845833329944,77,0.029296875
9721,272.7520694354168,59,0.029296875,92,0.17670275000000402
9722,272.9584164354168,59,0.20634699999999384,79,0.029722666666714304
9723,272.9881391020835,56,0.029722666666714304,95,0.19230787499998314
9724,273.2445496020835,54,0.2564105000000154,100,0.125
9725,273.4945496020835,58,0.25,75,0.1807230000000004
9726,273.6150316020835,59,0.12048199999998133,84,0.12048200000003817
9727,273.73551360208353,58,0.12048200000003817,87,0.18987337499999057
9728,273.98867810208355,54,0.2531645000000253,100,0.125
9729,274.23867810208355,57,0.25,78,0.18145162500002243
9730,274.35964585208353,59,0.12096774999997706,83,0.1209677500000339
9731,274.48061360208357,57,0.1209677500000339,86,0.18907574999997223
9732,274.73271460208355,54,0.2521009999999819,100,0.12605050000001938
9733,274.9848156020836,56,0.25210100000003877,86,0.19086366666670074
9734,275.1116676020836,58,0.12685200000004215,82,0.1284817916666725
9735,275.2401493937503,59,0.1284817916666725,89,0.19584779166666522
9736,275.5021738937503,58,0.26202449999999544,100,0.5555560000000241
9737,275.7799518937503,34,0.27777800000001207,78,0.27777800000001207
9738,276.0577298937503,61,0.27777800000001207,95,0.30612250000001495
9739,276.2107911437503,49,0.15306125000000748,92,0.15306125000000748
9740,276.36385239375034,58,0.15306125000000748,100,0.7842971249999664
9741,276.6270103937503,59,0.2631579999999758,96,0.19313287500000342
9742,276.7557656437503,58,0.12875524999998333,91,0.12922587500003146
9743,276.8849915187503,56,0.12922587500003146,96,0.1315789999999879
9744,277.1481495187503,61,0.2631579999999758,94,0.7782174999999825
9745,277.4078900187503,58,0.2597405000000208,84,0.19148925000001782
9746,277.5355495187503,56,0.12765949999999293,78,0.12765949999999293
9747,277.6632090187503,54,0.12765949999999293,75,0.1315789999999879
9748,277.9263670187503,49,0.2631579999999758,77,0.5435319999999706
9749,278.2067410187503,51,0.2803739999999948,69,0.19736849999998185
9750,278.33832001875027,49,0.1315789999999879,58,0.1315789999999879
9751,278.46989901875025,47,0.1315789999999879,62,0.1351352500000189
9752,278.74016951875024,47,0.270270499999981,71,0.5507485000000543
9753,279.02185951875026,49,0.281690000000026,62,0.20179387500002122
9754,279.1563887687503,47,0.13452925000001414,52,0.13452925000001414
9755,279.2909180187503,46,0.13452925000001414,56,0.1395350000000235
9756,279.5699880187503,42,0.27906999999999016,68,0.7990695000000301
9757,279.84025851875026,47,0.270270499999981,55,0.19480537499998718
9758,279.97012876875027,49,0.1298702500000104,57,0.1298702500000104
9759,280.0999990187503,51,0.1298702500000104,59,0.13452925000001414
9760,280.3690575187503,54,0.2690585000000283,65,0.7920555000000036
9761,280.6381160187503,47,0.26905849999997145,51,0.19313287500000342
9762,280.76687126875026,49,0.12875524999998333,54,0.12875525000004018
9763,280.8956265187503,50,0.12875525000004018,56,0.1327432499999759
9764,281.1611130187503,54,0.2654865000000086,62,0.8210425000000328
9765,281.4388910187503,46,0.27777800000001207,46,0.19911487500002067
9766,281.5716342687503,47,0.1327432499999759,49,0.13274325000003273
9767,281.70437751875033,46,0.13274325000003273,51,0.13888900000000604
9768,281.98215551875035,49,0.27777800000001207,59,0.5555559999999673
9769,282.25993351875036,34,0.27777800000001207,41,0.20833349999998063
9770,282.5377115187503,46,0.2777779999999552,49,0.2184465000000273
9771,282.6833425187503,46,0.1456309999999803,45,0.14563100000003715
9772,282.82897351875033,37,0.14563100000003715,55,0.8361075000000255
9773,283.11066351875036,47,0.281690000000026,48,0.2045456249999802
9774,283.24702726875034,46,0.1363637499999868,43,0.1363637499999868
9775,283.38339101875033,44,0.1363637499999868,48,0.140845000000013
9776,283.66508101875036,44,0.281690000000026,55,0.87669649999998
9777,283.95354251875034,46,0.2884614999999826,46,0.22058812500000613
9778,284.1006012687503,44,0.14705874999998514,44,0.14705875000004198
9779,284.24766001875037,42,0.14705875000004198,47,0.14705874999998514
9780,284.54177751875034,50,0.2941174999999703,50,0.2626790416666722
9781,284.6733565187503,50,0.1315789999999879,46,0.06559791666666115
9782,284.804456560417,50,0.13110004166668432,50,0.1958419583333466
9783,284.9350811437503,50,0.13062458333331506,45,0.06521737500003155
9784,285.06523364375033,25,0.13015250000000833,39,0.19433870833336186
9785,285.1949172270837,50,0.12968358333336027,46,0.06465512500000159
9786,285.3241349770837,50,0.12921775000000935,48,0.24691350000000511
9787,285.4475917270837,49,0.12345675000000256,43,0.12345675000000256
9788,285.5710484770837,46,0.12345675000000256,47,0.18518512499997541
9789,285.6945052270837,42,0.12345675000000256,41,0.12345675000000256
9790,285.8179619770837,37,0.12345675000000256,46,0.12345675000000256
9791,286.0648754770837,37,0.24691350000000511,55,0.7672410000000127
9792,286.3234959770837,47,0.25862050000000636,42,0.1875
9793,286.4484959770837,46,0.125,45,0.125
9794,286.5734959770837,44,0.125,48,0.12931025000000318
9795,286.83211647708373,44,0.25862050000000636,55,0.7574904999999603
9796,287.0874354770837,46,0.25531899999998586,46,0.18595049999998992
9797,287.2114024770837,44,0.12396699999999328,44,0.12396699999999328
9798,287.3353694770837,25,0.12396699999999328,41,0.12711875000002237
9799,287.5896069770837,41,0.2542374999999879,50,0.24291499999998223
9800,287.7110644770837,51,0.12145750000001954,48,0.060728749999952925
9801,287.8325219770837,51,0.12145749999996269,50,0.1821862500000293
9802,287.9539794770837,51,0.12145750000001954,47,0.06072875000000977
9803,288.0754369770837,51,0.12145750000001954,44,0.18218624999997246
9804,288.1968944770837,51,0.12145749999996269,47,0.06072875000000977
9805,288.3183519770837,51,0.12145750000001954,48,0.23809499999998707
9806,288.4373994770837,49,0.11904750000002196,45,0.11904749999996511
9807,288.5564469770837,46,0.11904749999996511,47,0.1785712500000045
9808,288.6754944770837,42,0.11904750000002196,42,0.11904749999996511
9809,288.79454197708367,37,0.11904749999996511,46,0.11904750000002196
9810,289.0326369770837,50,0.2380950000000439,52,0.24390249999999014
9811,289.1545882270837,50,0.12195124999999507,50,0.06097562500002596
9812,289.2765394770837,50,0.12195124999999507,53,0.18292687500002103
9813,289.3984907270837,50,0.12195124999999507,51,0.06097562500002596
9814,289.5204419770837,50,0.12195124999999507,48,0.18292687500002103
9815,289.6423932270837,50,0.12195124999999507,53,0.06097562500002596
9816,289.76434447708374,50,0.12195125000005191,56,0.2390439999999785
9817,289.88386647708376,49,0.11952200000001767,53,0.11952199999996083
9818,290.0033884770837,47,0.11952199999996083,57,0.17928299999999808
9819,290.12291047708374,44,0.11952200000001767,56,0.11952200000001767
9820,290.24243247708375,41,0.11952200000001767,55,0.11952199999996083
9821,290.48147647708373,58,0.2390439999999785,73,0.23182983333333596
9822,290.59755056041706,56,0.11607408333333069,59,0.11575575000000526
9823,290.71330631041707,53,0.11575575000000526,64,0.1745699166667123
9824,290.8295104770838,50,0.11620416666670508,59,0.11673150000001442
9825,290.9462419770838,47,0.11673150000001442,58,0.1171875
9826,291.1808484770838,62,0.2346065000000408,80,0.23316191666668828
9827,291.2972028937505,59,0.11635441666669522,67,0.11680749999999307
9828,291.4140103937505,56,0.11680749999999307,71,0.17608758333335572
9829,291.53127447708385,53,0.11726408333333893,67,0.11772420833329988
9830,291.64899868541715,50,0.11772420833329988,68,0.11818804166665586
9831,291.8858421437505,74,0.23684345833333964,90,0.3425854999999842
9832,292.0721776437505,70,0.18633549999998422,74,0.15625
9833,292.2284276437505,74,0.15625,77,0.25824099999999817
9834,292.36993714375046,71,0.14150949999998375,76,0.11673150000001442
9835,292.4866686437505,68,0.11673150000001442,74,0.11673149999995758
9836,292.60340014375043,65,0.11673149999995758,72,0.11673150000001442
9837,292.72013164375045,62,0.11673150000001442,80,0.173076750000007
9838,292.83551614375045,58,0.11538450000000466,73,0.11538450000000466
9839,292.95090064375046,62,0.11538450000000466,77,0.1724137499999756
9840,293.06584314375044,59,0.11494249999998374,76,0.11494250000004058
9841,293.1807856437505,56,0.11494250000004058,76,0.11450374999998303
9842,293.29528939375047,53,0.11450374999998303,75,0.11450375000003987
9843,293.4097931437505,50,0.11450375000003987,80,0.16917300000000068
9844,293.5225751437505,46,0.11278199999998151,73,0.11278200000003835
9845,293.6353571437505,49,0.11278200000003835,75,0.16917300000000068
9846,293.7481391437505,47,0.11278199999998151,74,0.11278199999998151
9847,293.8609211437505,44,0.11278199999998151,73,0.11278200000003835
9848,293.9737031437505,41,0.11278200000003835,72,0.11278199999998151
9849,294.0864851437505,38,0.11278199999998151,80,0.11278199999998151
9850,294.1992671437505,34,0.11278199999998151,73,0.11278200000003835
9851,294.3120491437505,38,0.11278200000003835,76,0.11285445833340191
9852,294.42490360208393,35,0.11285445833340191,75,0.11436033333336582
9853,294.5392639354173,32,0.11436033333336582,75,0.11598141666667061
9854,294.65524535208397,29,0.11598141666667061,74,0.11765004166664994
9855,294.7728953937506,30,0.11765004166664994,89,0.11857700000001614
9856,295.0100493937506,34,0.23715399999997544,50,0.10477316666668912
9857,295.1148225604173,35,0.10477316666668912,50,0.10428766666660749
9858,295.2191102270839,37,0.10428766666660749,50,0.10362725000004502
9859,295.32273747708393,39,0.10362725000004502,50,0.10309316666666746
9860,295.4258306437506,41,0.10309316666666746,50,0.10250591666664377
9861,295.52833656041724,42,0.10250591666664377,50,0.10192549999999301
9862,295.63026206041724,44,0.10192549999999301,50,0.10135166666663054
9863,295.73161372708387,46,0.10135166666663054,50,0.10084062499998936
9864,295.83245435208386,47,0.10084062499998936,50,0.10022300000002815
9865,295.9326773520839,48,0.10022300000002815,50,0.09972349999998187
9866,296.03240085208387,51,0.09972349999998187,53,0.10374658333336129
9867,296.13614743541723,49,0.10374658333336129,50,0.10332975000000033
9868,296.23947718541723,46,0.10332975000000033,45,0.15422766666665666
9869,296.3423934354172,47,0.1029162499999643,45,0.10250591666670061
9870,296.4448993520839,49,0.10250591666670061,46,0.15294629166663753
9871,296.54699814375056,51,0.10209879166666269,47,0.10163770833332819
9872,296.6486358520839,53,0.10163770833332819,50,0.15174250000001166
9873,296.74987335208385,54,0.1012374999999679,50,0.1008406250000462
9874,296.8507139770839,56,0.1008406250000462,50,0.15044675000001462
9875,296.9511607270839,58,0.10044675000000325,49,0.0999446249999778
9876,297.0511053520839,59,0.0999446249999778,51,0.14922662499998296
9877,297.15066310208385,60,0.09955774999997402,53,0.0991738750000195
9878,297.2498369770839,63,0.0991738750000195,59,0.1480271249999987
9879,297.3486298104172,61,0.09879283333333433,55,0.0984146666666561
9880,297.44704447708386,58,0.0984146666666561,51,0.14684587500005364
9881,297.5450304770839,59,0.09798600000004853,50,0.09761399999996456
9882,297.6426444770839,61,0.09761399999996456,50,0.14573654166667893
9883,297.7398894770839,63,0.09724500000004355,51,0.09687866666666878
9884,297.8367681437506,65,0.09687866666666878,52,0.14469450000001416
9885,297.9332311437506,66,0.09646300000002839,53,0.09646299999997154
9886,298.0296941437506,68,0.09646299999997154,54,0.14469450000001416
9887,298.1261571437506,70,0.09646300000002839,55,0.09646299999997154
9888,298.2226201437506,71,0.09646299999997154,55,0.14469450000001416
9889,298.3190831437506,72,0.09646300000002839,56,0.09646299999997154
9890,298.4155461437506,75,0.09646299999997154,65,0.14469450000001416
9891,298.5120091437506,73,0.09646300000002839,58,0.09646299999997154
9892,298.6084721437506,70,0.09646299999997154,55,0.14469450000001416
9893,298.7049351437506,71,0.09646300000002839,51,0.09646299999997154
9894,298.8013981437506,72,0.09646299999997154,53,0.14469450000001416
9895,298.8978611437506,73,0.09646300000002839,55,0.09646299999997154
9896,298.9943241437506,75,0.09646299999997154,64,0.14469450000001416
9897,299.0907871437506,73,0.09646300000002839,59,0.09646299999997154
9898,299.1872501437506,70,0.09646299999997154,51,0.14469450000001416
9899,299.2837131437506,71,0.09646300000002839,52,0.09646299999997154
9900,299.3801761437506,72,0.09646299999997154,54,0.14469450000001416
9901,299.4766391437506,73,0.09646300000002839,55,0.09646299999997154
9902,299.5731021437506,78,0.09646299999997154,57,0.1875
9903,299.7606021437506,70,0.1875,50,0.09375
9904,299.8543521437506,71,0.09375,51,0.09375
9905,299.9481021437506,72,0.09375,53,0.09375
9906,300.0418521437506,73,0.09375,55,0.09370133333334252
9907,300.13555347708393,78,0.09370133333334252,57,0.18232491666668693
9908,300.3178783937506,70,0.18232491666668693,46,0.09090900000001056
9909,300.40878739375063,71,0.09090900000001056,48,0.0908175000000142
9910,300.49960489375064,72,0.0908175000000142,50,0.09063449999996465
9911,300.5902393937506,73,0.09063449999996465,52,0.09049800000002506
9912,300.68073739375063,78,0.09049800000002506,54,0.1805420000000595
9913,300.8612793937507,70,0.1805420000000595,49,0.09008999999997513
9914,300.95136939375067,71,0.09008999999997513,50,0.08982025000000249
9915,301.04118964375067,72,0.08982025000000249,52,0.08977558333333491
9916,301.130965227084,73,0.08977558333333491,53,0.089552249999997
9917,301.220517477084,78,0.089552249999997,55,0.1787491666666483
9918,301.39926664375065,70,0.1787491666666483,50,0.0891532499999812
9919,301.48841989375063,71,0.0891532499999812,52,0.08902074999997467
9920,301.5774406437506,72,0.08902074999997467,55,0.08884525000001986
9921,301.6662858937506,73,0.08884525000001986,57,0.08875749999998561
9922,301.7550433937506,78,0.08875749999998561,59,0.1769909999999868
9923,301.9320343937506,70,0.1769909999999868,50,0.08849550000002182
9924,302.0205298937506,71,0.08849550000002182,51,0.08849549999996498
9925,302.1090253937506,72,0.08849549999996498,53,0.08849550000002182
9926,302.1975208937506,73,0.08849550000002182,55,0.08836612499999319
9927,302.2858870187506,78,0.08836612499999319,57,0.18274400000001378
9928,302.4686310187506,70,0.18274400000001378,44,0.09235545833331571
9929,302.56098647708393,71,0.09235545833331571,46,0.09307187500002101
9930,302.65405835208395,72,0.09307187500002101,48,0.09375066666666498
9931,302.7478090187506,73,0.09375066666666498,50,0.0944391250000649
9932,302.8422481437507,78,0.0944391250000649,53,0.1910863749999976
9933,303.0333345187507,70,0.1910863749999976,33,0.09667083333329174
9934,303.13000535208397,71,0.09667083333329174,35,0.09740325000001349
9935,303.227408602084,72,0.09740325000001349,37,0.09814675000001216
9936,303.325555352084,73,0.09814675000001216,39,0.09895604166672456
9937,303.4245113937507,78,0.09895604166672456,42,0.21548962499997515
9938,303.6400010187507,70,0.21548962499997515,30,0.1122964583333328
9939,303.752297477084,71,0.1122964583333328,31,0.11546620833337329
9940,303.8677636854174,72,0.11546620833337329,32,0.11897729166668114
9941,303.9867409770841,73,0.11897729166668114,33,0.14018700000002582
9942,304.1269279770841,70,0.14018700000002582,34,0.25
9943,305.6269279770841,70,1.5,92,0.14018700000002582
9944,306.4680499770841,58,0.8411219999999844,92,0.1578947500000254
9945,306.7838394770841,58,0.31578949999999395,92,0.1578947500000254
9946,307.0996289770841,58,0.31578949999999395,92,0.2127659999999878
9947,307.52516097708406,30,0.4255319999999756,113,1.6071435000000065
9948,0.0,32,0.0,35,0.123171
9949,0.09924066666666667,34,0.09924066666666667,29,0.11917675
9950,0.194962,37,0.09572133333333332,30,0.1179355
9951,0.28878366666666666,40,0.09382166666666666,30,0.11973716666666667
9952,0.385239,31,0.09645533333333334,33,0.11675908333333329
9953,0.47836633333333334,34,0.09312733333333334,31,0.09452700000000003
9954,0.5728933333333334,32,0.09452700000000003,37,0.11752608333333325
9955,0.6674203333333333,34,0.09452699999999992,30,0.11527816666666668
9956,0.7594166666666666,37,0.09199633333333335,31,0.11640916666666667
9957,0.852544,40,0.09312733333333334,32,0.11595941666666665
9958,0.9456713333333333,31,0.09312733333333334,34,0.11455391666666648
9959,1.0369996666666665,34,0.09132833333333323,33,0.08361210000000008
9960,1.129902,34,0.09290233333333342,40,0.11562441666666645
9961,1.2228043333333332,36,0.0929023333333332,33,0.11394358333333332
9962,1.3136926666666664,39,0.09088833333333324,35,0.11527624999999997
9963,1.4059136666666663,42,0.09222099999999989,36,0.1147273333333334
9964,1.4981346666666664,33,0.09222100000000011,34,0.11285741666666671
9965,1.5881599999999998,36,0.0900253333333334,36,0.09114108333333326
9966,1.679301083333333,34,0.09114108333333326,40,0.11347808333333331
9967,1.7703797499999998,36,0.09107866666666675,34,0.11242975
9968,1.8599774166666665,39,0.08959766666666669,34,0.11416041666666676
9969,1.9513057499999997,42,0.09132833333333323,35,0.11367466666666659
9970,2.042634083333333,33,0.09132833333333346,34,0.11203025000000011
9971,2.1320194166666666,36,0.08938533333333343,36,0.09057966666666672
9972,2.2225990833333333,37,0.09057966666666672,45,0.11250566666666684
9973,2.31317875,39,0.09057966666666672,35,0.11089883333333361
9974,2.4015175,42,0.08833875000000013,38,0.11264075000000018
9975,2.4917578333333337,45,0.09024033333333348,43,0.11152766666666691
9976,2.5813595000000005,36,0.0896016666666668,39,0.1101044166666667
9977,2.6690635000000005,39,0.087704,38,0.0896016666666668
9978,2.7586651666666673,40,0.0896016666666668,41,0.11164366666666625
9979,2.8482668333333336,42,0.08960166666666636,39,0.11050841666666678
9980,2.9364348333333337,45,0.08816800000000002,39,0.11170208333333331
9981,3.0257965,48,0.08936166666666656,43,0.1113445000000004
9982,3.1151581666666672,39,0.089361666666667,39,0.11033174999999984
9983,3.2030895000000004,42,0.08793133333333314,39,0.0896016666666668
9984,3.292691166666667,40,0.0896016666666668,49,0.11152766666666647
9985,3.3822928333333335,42,0.08960166666666636,42,0.11016483333333316
9986,3.4699968333333335,45,0.087704,39,0.0898433333333335
9987,3.559840166666667,48,0.0898433333333335,40,0.11152766666666691
9988,3.649441833333334,39,0.0896016666666668,42,0.1101044166666667
9989,3.737145833333334,42,0.087704,43,0.0896016666666668
9990,3.8267475000000006,45,0.0896016666666668,50,0.11164366666666625
9991,3.916349166666667,49,0.08960166666666636,40,0.11050841666666633
9992,4.004517166666667,51,0.08816800000000002,41,0.11170208333333331
9993,4.093878833333334,54,0.089361666666667,44,0.11117191666666582
9994,4.1832405,44,0.08936166666666612,44,0.1101368333333328
9995,4.2704815,48,0.08724099999999968,44,0.09158333333333335
9996,4.362064833333333,49,0.09158333333333335,56,0.11350933333333302
9997,4.4536481666666665,52,0.09158333333333335,45,0.11016483333333316
9998,4.541352166666666,57,0.08770399999999956,49,0.1122437500000002
9999,4.6311955,56,0.0898433333333335,46,0.11152766666666647
10000,4.720797166666666,51,0.0896016666666668,45,0.11010441666666626
10001,4.808501166666666,52,0.08770399999999956,45,0.0896016666666668
10002,4.898102833333333,55,0.0896016666666668,50,0.17593499999999995
10003,4.9877044999999995,51,0.0896016666666668,46,0.08633333333333315
10004,5.074037833333333,52,0.08633333333333315,45,0.11050708333333326
10005,5.162443499999999,48,0.0884056666666666,43,0.0884056666666666
10006,5.250849166666666,49,0.0884056666666666,47,0.10918341666666631
10007,5.3376321666666655,45,0.08678299999999961,44,0.0896016666666668
10008,5.427233833333332,43,0.0896016666666668,48,0.11152766666666647
10009,5.516835499999999,44,0.0896016666666668,44,0.10998266666666634
10010,5.604539499999999,49,0.08770399999999956,44,0.08911466666666623
10011,5.693654166666665,47,0.08911466666666623,45,0.11124108333333371
10012,5.783255833333332,48,0.0896016666666668,45,0.1087178333333334
10013,5.8698134999999985,52,0.08655766666666675,45,0.08864066666666659
10014,5.958454166666665,48,0.08864066666666659,47,0.11000183333333347
10015,6.047094833333332,49,0.08864066666666659,44,0.10754608333333326
10016,6.132539499999998,52,0.08544466666666661,45,0.0884056666666666
10017,6.220945166666665,50,0.0884056666666666,46,0.10987683333333287
10018,6.3093508333333315,51,0.0884056666666666,45,0.10828508333333353
10019,6.395235499999998,56,0.08588466666666683,45,0.0896016666666668
10020,6.484837166666665,47,0.0896016666666668,48,0.11118499999999987
10021,6.574438833333332,50,0.0896016666666668,43,0.10855258333333317
10022,6.660772166666665,55,0.08633333333333315,45,0.1112774166666668
10023,6.749649166666665,54,0.0888770000000001,44,0.11152766666666647
10024,6.839250833333332,49,0.0896016666666668,40,0.11010441666666626
10025,6.9269548333333315,50,0.08770399999999956,38,0.0896016666666668
10026,7.016556499999998,53,0.0896016666666668,51,0.17776966666666638
10027,7.106158166666665,49,0.0896016666666668,43,0.11050841666666589
10028,7.194326166666665,50,0.08816799999999958,42,0.11170208333333331
10029,7.283687833333332,46,0.089361666666667,43,0.1766026666666658
10030,7.373049499999998,47,0.08936166666666612,45,0.10964141666666638
10031,7.4602904999999975,43,0.08724099999999968,43,0.0896016666666668
10032,7.549892166666664,41,0.0896016666666668,47,0.1780073333333334
10033,7.639493833333331,42,0.0896016666666668,41,0.11074608333333291
10034,7.727899499999998,47,0.0884056666666666,41,0.089361666666667
10035,7.817261166666665,43,0.089361666666667,44,0.17615933333333356
10036,7.9068628333333315,44,0.0896016666666668,42,0.1086590833333343
10037,7.993420499999998,50,0.08655766666666675,42,0.08840566666666749
10038,8.081826166666666,44,0.08840566666666749,47,0.17406966666666612
10039,8.170231833333332,45,0.0884056666666666,45,0.10776541666666617
10040,8.255895833333332,50,0.08566399999999952,43,0.0884056666666666
10041,8.344301499999998,48,0.0884056666666666,45,0.17451600000000056
10042,8.432707166666665,49,0.0884056666666666,44,0.10851075000000066
10043,8.518817499999999,54,0.08611033333333395,44,0.0896016666666668
10044,8.608419166666666,52,0.0896016666666668,51,0.17730566666666725
10045,8.698020833333333,44,0.0896016666666668,45,0.11016483333333404
10046,8.785724833333333,49,0.08770400000000045,41,0.11224374999999931
10047,8.875568166666666,40,0.08984333333333261,45,0.17730566666666725
10048,8.965169833333333,43,0.0896016666666668,43,0.11072641666666705
10049,9.052873833333333,48,0.08770400000000045,43,0.0920896666666664
10050,9.1449635,51,0.0920896666666664,45,0.17752966666666659
10051,9.234325166666666,42,0.089361666666667,41,0.11050841666666678
10052,9.322493166666666,47,0.08816799999999958,42,0.1117020833333342
10053,9.411854833333333,38,0.089361666666667,42,0.17660266666666757
10054,9.5012165,41,0.089361666666667,41,0.10964141666666727
10055,9.5884575,46,0.08724100000000057,42,0.0896016666666668
10056,9.678059166666667,50,0.0896016666666668,53,0.11152766666666736
10057,9.767660833333334,41,0.0896016666666668,45,0.11016483333333404
10058,9.855364833333335,45,0.08770400000000045,45,0.11224374999999931
10059,9.945208166666667,37,0.08984333333333261,42,0.11152766666666736
10060,10.034809833333334,40,0.0896016666666668,42,0.11010441666666715
10061,10.122513833333334,45,0.08770400000000045,43,0.0896016666666668
10062,10.212115500000001,49,0.0896016666666668,50,0.11164366666666758
10063,10.301717166666668,45,0.0896016666666668,45,0.11050841666666678
10064,10.389885166666668,50,0.08816799999999958,42,0.11111499999999985
10065,10.479246833333335,51,0.089361666666667,46,0.10819941666666466
10066,10.565918666666667,52,0.08667183333333206,51,0.10708149999999961
10067,10.651694583333333,54,0.08577591666666606,54,0.08522233333333418
10068,10.736916916666667,55,0.08522233333333418,57,0.11080300000000065
10069,10.825793916666667,46,0.0888770000000001,45,0.11016483333333404
10070,10.913497916666667,51,0.08770400000000045,45,0.11224374999999931
10071,11.00334125,42,0.08984333333333261,43,0.17730566666666725
10072,11.092942916666667,45,0.0896016666666668,44,0.11010441666666715
10073,11.180646916666667,50,0.08770400000000045,44,0.0896016666666668
10074,11.270248583333334,53,0.0896016666666668,48,0.1750463333333343
10075,11.359850250000001,44,0.0896016666666668,42,0.10748666666666828
10076,11.445294916666668,49,0.0854446666666675,43,0.11021000000000036
10077,11.533462916666668,40,0.08816799999999958,43,0.17540900000000015
10078,11.621630916666668,43,0.08816799999999958,45,0.10964141666666727
10079,11.708871916666668,48,0.08724100000000057,45,0.0896016666666668
10080,11.798473583333335,51,0.0896016666666668,49,0.11152766666666736
10081,11.888075250000002,43,0.0896016666666668,45,0.11016483333333404
10082,11.975779250000002,47,0.08770400000000045,45,0.11224374999999931
10083,12.065622583333335,38,0.08984333333333261,45,0.11152766666666736
10084,12.155224250000002,41,0.0896016666666668,43,0.11010441666666715
10085,12.242928250000002,46,0.08770400000000045,43,0.0896016666666668
10086,12.332529916666669,50,0.0896016666666668,50,0.11164366666666758
10087,12.422131583333336,45,0.0896016666666668,45,0.11050841666666678
10088,12.510299583333335,52,0.08816799999999958,45,0.11094500000000096
10089,12.599661250000002,53,0.089361666666667,50,0.10724883333333324
10090,12.685604500000002,54,0.0859432499999997,52,0.1057712500000001
10091,12.770392916666669,55,0.08478841666666703,54,0.08393133333333402
10092,12.854324250000003,56,0.08393133333333402,56,0.11056666666666715
10093,12.94296491666667,48,0.08864066666666659,45,0.11072641666666705
10094,13.03066891666667,54,0.08770400000000045,45,0.11323224999999937
10095,13.122758583333336,55,0.0920896666666664,54,0.10539283333333138
10096,13.207168583333335,56,0.08440999999999832,53,0.10593191666666613
10097,13.290940333333333,57,0.08377174999999859,56,0.08864066666666659
10098,13.379581,56,0.08864066666666659,61,0.11068266666666737
10099,13.468221666666667,49,0.08864066666666659,46,0.11050841666666678
10100,13.556389666666666,52,0.08816799999999958,50,0.11050424999999997
10101,13.645751333333333,55,0.089361666666667,55,0.10539283333333138
10102,13.730161333333331,56,0.08440999999999832,57,0.10593191666666613
10103,13.81393308333333,57,0.08377174999999859,59,0.08864066666666659
10104,13.902573749999997,58,0.08864066666666659,64,0.10855300000000057
10105,13.989821166666664,50,0.08724741666666702,47,0.107089833333335
10106,14.075043499999998,56,0.08522233333333418,54,0.10855899999999963
10107,14.162513499999998,57,0.08746999999999971,60,0.10512591666666538
10108,14.246710166666663,58,0.08419666666666537,60,0.10515599999999736
10109,14.330112833333327,59,0.08340266666666452,65,0.08701333333333316
10110,14.41712616666666,58,0.08701333333333316,68,0.10905533333333395
10111,14.504139499999994,51,0.08701333333333316,51,0.11050841666666678
10112,14.592307499999993,54,0.08816799999999958,60,0.11122916666666782
10113,14.68166916666666,57,0.089361666666667,64,0.10876624999999862
10114,14.768795999999993,58,0.0871268333333326,67,0.10838166666666638
10115,14.855017499999992,59,0.08622149999999884,68,0.08864066666666659
10116,14.943658166666658,54,0.08864066666666659,68,0.1743046666666661
10117,15.032298833333325,51,0.08864066666666659,58,0.10782416666666705
10118,15.117962833333324,56,0.08566399999999952,51,0.11104108333333329
10119,15.206603499999991,54,0.08864066666666659,53,0.17593500000000084
10120,15.296205166666658,47,0.0896016666666668,49,0.10855258333333317
10121,15.382538499999992,52,0.08633333333333404,52,0.0888770000000001
10122,15.471415499999992,51,0.0888770000000001,57,0.1756600000000006
10123,15.560292499999992,42,0.0888770000000001,45,0.1091234166666677
10124,15.647075499999993,49,0.0867830000000005,47,0.1117020833333342
10125,15.73643716666666,47,0.089361666666667,50,0.17660266666666757
10126,15.825798833333327,39,0.089361666666667,47,0.10964141666666727
10127,15.913039833333327,44,0.08724100000000057,47,0.08960166666666503
10128,16.002641499999992,42,0.08960166666666503,56,0.11152766666666736
10129,16.09224316666666,35,0.0896016666666668,45,0.11016483333333227
10130,16.179947166666658,40,0.08770399999999867,45,0.11224375000000109
10131,16.269790499999992,39,0.08984333333333439,45,0.11152766666666736
10132,16.35939216666666,34,0.0896016666666668,42,0.11010441666666537
10133,16.447096166666658,35,0.08770399999999867,43,0.0896016666666668
10134,16.536697833333324,39,0.0896016666666668,47,0.11164366666666581
10135,16.62629949999999,33,0.0896016666666668,39,0.110508416666665
10136,16.71446749999999,41,0.08816799999999958,38,0.1117020833333342
10137,16.803829166666656,39,0.08936166666666523,40,0.11117191666667026
10138,16.893190833333325,32,0.08936166666666878,39,0.10964141666666549
10139,16.980431833333324,33,0.08724099999999879,37,0.0896016666666668
10140,17.07003349999999,34,0.0896016666666668,42,0.10730366666666669
10141,17.155753833333325,36,0.08572033333333451,38,0.10848208333333176
10142,17.242425666666655,38,0.08667183333333028,35,0.10962958333333361
10143,17.33001324999999,39,0.0875875833333346,36,0.11080149999999733
10144,17.418536083333322,41,0.08852283333333233,38,0.11206391666666349
10145,17.508016416666653,42,0.08948033333333072,42,0.09033433333333463
10146,17.598350749999987,35,0.09033433333333463,45,0.1076926666666651
10147,17.684403999999986,37,0.08605324999999908,36,0.10876624999999862
10148,17.771302749999986,38,0.08689874999999958,34,0.10980316666666567
10149,17.859063916666653,39,0.08776116666666667,38,0.11080149999999733
10150,17.947586749999985,40,0.08852283333333233,37,0.11200283333333161
10151,18.037067083333316,42,0.08948033333333072,37,0.09009
10152,18.127157083333316,36,0.09009,48,0.10797366666666264
10153,18.21343499999998,37,0.0862779166666634,41,0.10905283333333315
10154,18.30056183333331,39,0.0871268333333326,38,0.11021341666666729
10155,18.388615083333313,40,0.08805325000000153,43,0.11139891666666202
10156,18.47761358333331,42,0.08899849999999532,41,0.11261225000000152
10157,18.567580916666643,44,0.08996733333333395,42,0.09057966666666672
10158,18.65816058333331,37,0.09057966666666672,48,0.10814124999999919
10159,18.74460608333331,38,0.08644549999999995,38,0.10888016666666545
10160,18.831618749999976,39,0.0870126666666664,39,0.10962866666666926
10161,18.91926358333331,40,0.08764483333333573,43,0.1103888333333316
10162,19.007492249999977,42,0.08822866666666584,39,0.11121774999999445
10163,19.096369583333306,44,0.08887733333332903,43,0.08936166666666523
10164,19.18573124999997,39,0.08936166666666523,51,0.11218333333333419
10165,19.27551416666664,40,0.08978291666666749,43,0.11163858333333465
10166,19.364874083333305,41,0.0893599166666661,39,0.1110375000000019
10167,19.453751416666638,42,0.08887733333333259,44,0.11044700000000418
10168,19.54215641666664,44,0.08840500000000162,43,0.11033608333333689
10169,19.63009208333331,45,0.08793566666667019,45,0.0896016666666668
10170,19.719693749999976,36,0.0896016666666668,51,0.11188208333333449
10171,19.809235416666642,40,0.08954166666666552,43,0.111217749999998
10172,19.898292999999974,41,0.08905758333333225,43,0.11050575000000507
10173,19.986756749999977,42,0.0884637500000025,47,0.10980316666666923
10174,20.074692416666647,44,0.08793566666667019,45,0.10969900000000266
10175,20.161990999999983,45,0.08729858333333596,48,0.0896016666666668
10176,20.25159266666665,48,0.0896016666666668,59,0.1109628333333319
10177,20.341194333333316,45,0.0896016666666668,48,0.10748666666666651
10178,20.426638999999984,43,0.0854446666666675,48,0.11032816666666534
10179,20.514806999999983,41,0.08816799999999958,49,0.11022399999999877
10180,20.60344766666665,43,0.08864066666666659,45,0.10873374999999896
10181,20.689780999999982,45,0.08633333333333226,46,0.0896016666666668
10182,20.77938266666665,36,0.0896016666666668,51,0.11164366666666581
10183,20.868984333333316,40,0.0896016666666668,43,0.110508416666665
10184,20.957152333333315,41,0.08816799999999958,41,0.1117020833333342
10185,21.04651399999998,43,0.08936166666666523,45,0.11117191666667026
10186,21.13587566666665,44,0.08936166666666878,40,0.10964141666666549
10187,21.223116666666648,45,0.08724099999999879,45,0.0896016666666668
10188,21.312718333333315,48,0.0896016666666668,51,0.11112925000000118
10189,21.402319999999982,47,0.0896016666666668,44,0.10827049999999971
10190,21.488430333333316,46,0.08611033333333395,40,0.11085991666666573
10191,21.577070999999982,45,0.08864066666666659,46,0.11051641666666612
10192,21.665947999999982,42,0.0888770000000001,43,0.10895808333333434
10193,21.75250566666665,39,0.08655766666666764,44,0.0896016666666668
10194,21.842107333333317,45,0.0896016666666668,49,0.11164366666666581
10195,21.931708999999984,42,0.0896016666666668,43,0.110508416666665
10196,22.019876999999983,39,0.08816799999999958,43,0.1117020833333342
10197,22.10923866666665,37,0.08936166666666523,45,0.11117191666667026
10198,22.198600333333317,36,0.08936166666666878,44,0.10964141666666549
10199,22.285841333333316,35,0.08724099999999879,43,0.0896016666666668
10200,22.375442999999983,34,0.0896016666666668,46,0.11118499999999898
10201,22.46504466666665,35,0.0896016666666668,39,0.10843475000000069
10202,22.551377999999982,36,0.08633333333333226,39,0.11050708333333503
10203,22.63978366666665,32,0.0884056666666666,39,0.11015899999999945
10204,22.728189333333315,33,0.0884056666666666,39,0.10941375000000164
10205,22.81520266666665,35,0.08701333333333494,39,0.0896016666666668
10206,22.904804333333317,31,0.0896016666666668,44,0.11141191666666828
10207,22.994405999999984,32,0.0896016666666668,38,0.10958141666666421
10208,23.081646999999982,33,0.08724099999999879,37,0.1117020833333342
10209,23.171008666666648,29,0.08936166666666523,38,0.11117191666667026
10210,23.260370333333316,30,0.08936166666666878,36,0.10964141666666549
10211,23.347611333333315,32,0.08724099999999879,36,0.0896016666666668
10212,23.437212999999982,22,0.0896016666666668,38,0.11273983333333248
10213,23.52779266666665,23,0.09057966666666672,34,0.11110150000000019
10214,23.616433333333315,25,0.08864066666666659,34,0.11242691666666715
10215,23.70627666666665,27,0.08984333333333439,36,0.11243575000000305
10216,23.796610999999984,28,0.09033433333333463,38,0.1108060833333333
10217,23.88501666666665,30,0.0884056666666666,39,0.0896016666666668
10218,23.974618333333318,32,0.0896016666666668,41,0.11164366666666581
10219,24.064219999999985,33,0.0896016666666668,40,0.110508416666665
10220,24.152387999999984,34,0.08816799999999958,41,0.1117020833333342
10221,24.24174966666665,35,0.08936166666666523,42,0.11117191666667026
10222,24.331111333333318,32,0.08936166666666878,41,0.10964141666666549
10223,24.418352333333317,37,0.08724099999999879,41,0.0896016666666668
10224,24.507953999999984,35,0.0896016666666668,46,0.10714833333333473
10225,24.593176333333318,44,0.08522233333333418,49,0.11016483333333227
10226,24.680880333333317,42,0.08770399999999867,47,0.11224375000000109
10227,24.77072366666665,40,0.08984333333333439,49,0.11152766666666736
10228,24.860325333333318,39,0.0896016666666668,46,0.11010441666666537
10229,24.948029333333317,37,0.08770399999999867,46,0.0896016666666668
10230,25.037630999999983,35,0.0896016666666668,45,0.11164366666666581
10231,25.12723266666665,32,0.0896016666666668,43,0.110508416666665
10232,25.21540066666665,33,0.08816799999999958,43,0.1117020833333342
10233,25.304762333333315,35,0.08936166666666523,43,0.11117191666667026
10234,25.394123999999984,32,0.08936166666666878,46,0.10964141666666549
10235,25.481364999999983,37,0.08724099999999879,45,0.0896016666666668
10236,25.57096666666665,35,0.0896016666666668,51,0.11152766666666736
10237,25.660568333333316,30,0.0896016666666668,44,0.11016483333333227
10238,25.748272333333315,32,0.08770399999999867,44,0.11224375000000109
10239,25.83811566666665,33,0.08984333333333439,45,0.11176183333333256
10240,25.927717333333316,30,0.0896016666666668,43,0.11134833333333205
10241,26.016357999999983,37,0.08864066666666659,53,0.0908306666666654
10242,26.107188666666648,35,0.0908306666666654,51,0.11304991666666808
10243,26.198019333333317,28,0.09083066666666895,46,0.11164666666666534
10244,26.286896333333317,30,0.0888770000000001,47,0.11384833333333333
10245,26.377974999999985,32,0.09107866666666808,51,0.11323883333333029
10246,26.46905366666665,28,0.09107866666666453,47,0.11104108333333329
10247,26.557694333333316,37,0.08864066666666659,53,0.0896016666666668
10248,26.647295999999983,35,0.0896016666666668,51,0.1134190833333335
10249,26.73837466666665,27,0.09107866666666808,44,0.11238408333333183
10250,26.827736333333316,28,0.08936166666666523,44,0.11485933333333165
10251,26.919825999999983,30,0.0920896666666664,46,0.11347908333333478
10252,27.01090466666665,27,0.09107866666666808,43,0.11275300000000144
10253,27.100506333333318,32,0.0896016666666668,50,0.09260533333333498
10254,27.193111666666653,30,0.09260533333333498,48,0.11537499999999667
10255,27.285716999999984,25,0.09260533333333143,46,0.11455725000000072
10256,27.376795666666652,32,0.09107866666666808,47,0.11739291666666674
10257,27.470709999999986,30,0.0939143333333341,51,0.1167464166666683
10258,27.56462433333332,23,0.0939143333333341,47,0.11474091666666553
10259,27.655952666666654,25,0.09132833333333323,47,0.09365033333333272
10260,27.749602999999986,23,0.09365033333333272,51,0.11635799999999819
10261,27.84325333333332,28,0.09365033333333272,40,0.113853083333332
10262,27.934083999999984,30,0.0908306666666654,42,0.11504858333333345
10263,28.02617366666665,32,0.0920896666666664,43,0.1142965000000018
10264,28.11800933333332,33,0.0918356666666682,45,0.11267541666666858
10265,28.207852666666653,35,0.08984333333333439,46,0.09132833333333323
10266,28.299180999999987,37,0.09132833333333323,48,0.11372874999999993
10267,28.39050933333332,39,0.09132833333333323,51,0.11230933333333226
10268,28.480110999999987,40,0.0896016666666668,48,0.1135383333333344
10269,28.570941666666652,42,0.0908306666666654,53,0.11304991666666808
10270,28.66177233333332,44,0.09083066666666895,50,0.11164666666666534
10271,28.75064933333332,45,0.0888770000000001,56,0.09107866666666808
10272,28.84172799999999,47,0.09107866666666808,59,0.1084836666666682
10273,28.928285666666657,56,0.08655766666666764,60,0.11016483333333227
10274,29.015989666666655,54,0.08770399999999867,57,0.11224375000000109
10275,29.10583299999999,52,0.08984333333333439,56,0.11152766666666736
10276,29.195434666666657,51,0.0896016666666668,54,0.11010441666666537
10277,29.283138666666655,49,0.08770399999999867,54,0.0896016666666668
10278,29.372740333333322,47,0.0896016666666668,56,0.11164366666666581
10279,29.46234199999999,44,0.0896016666666668,51,0.11087566666666504
10280,29.55050999999999,45,0.08816799999999958,51,0.1135383333333344
10281,29.641340666666654,47,0.0908306666666654,52,0.11323108333333565
10282,29.732171333333323,44,0.09083066666666895,51,0.11249749999999992
10283,29.82177299999999,49,0.0896016666666668,51,0.09158333333333246
10284,29.913356333333322,47,0.09158333333333246,56,0.1141058333333369
10285,30.004939666666658,42,0.09158333333333601,48,0.11317616666666552
10286,30.095029666666658,44,0.09009,48,0.1154308333333347
10287,30.187374333333324,45,0.09234466666666563,53,0.11505233333333464
10288,30.279718999999993,42,0.09234466666666918,51,0.11424324999999769
10289,30.37054966666666,49,0.0908306666666654,51,0.09365033333333272
10290,30.46419999999999,47,0.09365033333333272,52,0.11680166666666736
10291,30.557850333333324,40,0.09365033333333272,46,0.11621808333333661
10292,30.65045566666666,42,0.09260533333333498,46,0.11806375000000102
10293,30.744906666666658,44,0.0944509999999994,51,0.11734683333333251
10294,30.839357666666658,40,0.0944509999999994,49,0.11539966666666501
10295,30.93094099999999,49,0.09158333333333246,56,0.09526533333333376
10296,31.026206333333324,47,0.09526533333333376,52,0.11861233333333487
10297,31.121471666666658,39,0.09526533333333376,48,0.11748091666666838
10298,31.21485966666666,40,0.09338800000000091,40,0.12053441666666487
10299,31.311231333333325,42,0.0963716666666663,48,0.120197000000001
10300,31.407882333333326,39,0.09665100000000137,47,0.11834674999999706
10301,31.502066333333325,44,0.09418399999999849,43,0.09665100000000137
10302,31.598717333333326,42,0.09665100000000137,51,0.12033083333333039
10303,31.695368333333324,37,0.09665099999999782,46,0.119095333333334
10304,31.790087666666658,44,0.09471933333333382,47,0.12188000000000088
10305,31.88759166666666,42,0.0975040000000007,49,0.12138858333333502
10306,31.98509566666666,35,0.0975040000000007,48,0.12027858333333086
10307,32.08063399999999,44,0.09553833333333017,49,0.09896100000000274
10308,32.17959499999999,45,0.09896100000000274,53,0.12522391666666977
10309,32.281184999999994,44,0.10159000000000162,49,0.11778233333333787
10310,32.37552833333333,42,0.09434333333333456,51,0.11661983333333836
10311,32.468900999999995,40,0.09337266666666721,49,0.11560550000000092
10312,32.56151058333333,39,0.09260958333333491,48,0.1146085833333288
10313,32.65312324999999,37,0.09161266666666279,44,0.09198366666666402
10314,32.74510691666666,36,0.09198366666666402,54,0.18524066666666528
10315,32.838608583333325,44,0.09350166666666837,47,0.11524408333333014
10316,32.93034758333332,39,0.0917389999999969,46,0.11752541666666616
10317,33.024367916666655,42,0.09402033333333293,49,0.11707883333333058
10318,33.11838824999999,40,0.09402033333333293,47,0.11586791666666585
10319,33.210622249999986,37,0.0922339999999977,47,0.09453566666666546
10320,33.30515791666665,36,0.09453566666666546,54,0.18549499999999597
10321,33.39891391666665,44,0.09375599999999906,47,0.11543908333332809
10322,33.49065291666665,39,0.0917389999999969,46,0.11856683333333251
10323,33.58545324999998,42,0.09480033333333182,47,0.11818741666667165
10324,33.68051924999998,40,0.09506600000000276,45,0.11618574999999964
10325,33.77300491666665,37,0.09248566666666846,45,0.09480033333333182
10326,33.86780524999998,36,0.09480033333333182,54,0.1877889999999951
10327,33.962605583333314,44,0.09480033333333182,47,0.11688924999999983
10328,34.05559424999998,39,0.09298866666666328,46,0.11950291666666857
10329,34.15119658333331,42,0.09560233333333201,49,0.1189777499999991
10330,34.24679891666664,40,0.09560233333333201,47,0.11767375000000158
10331,34.34030058333331,37,0.09350166666666837,45,0.09668833333333282
10332,34.43698891666664,47,0.09668833333333282,53,0.11831258333333494
10333,34.532009916666645,46,0.09502100000000269,47,0.11607091666665781
10334,34.62498291666664,44,0.09297299999999353,45,0.11504708333333014
10335,34.7171215833333,42,0.09213866666666348,49,0.11404366666666732
10336,34.80844416666664,41,0.09132258333333709,45,0.11311583333332464
10337,34.89896116666663,39,0.0905169999999913,47,0.09039533333333338
10338,34.989356499999964,38,0.09039533333333338,49,0.18129466666666616
10339,35.08073916666663,46,0.09138266666666794,47,0.11275766666666698
10340,35.17065116666663,41,0.08991199999999822,43,0.1142283333333367
10341,35.2620338333333,44,0.09138266666666794,47,0.11398150000000129
10342,35.353416499999966,42,0.09138266666666794,47,0.11349324999999766
10343,35.4438118333333,39,0.09039533333333338,47,0.09239166666666421
10344,35.536203499999964,38,0.09239166666666421,49,0.18352866666667467
10345,35.628595166666635,46,0.09239166666667131,47,0.11442858333333561
10346,35.71973216666664,41,0.09113700000000335,44,0.11652316666666707
10347,35.812898499999974,44,0.09316633333333613,51,0.11646241666666413
10348,35.906325833333305,42,0.09342733333333086,47,0.11582800000000049
10349,35.99846616666664,39,0.09214033333333305,47,0.09475066666666976
10350,36.09321683333331,38,0.09475066666666976,54,0.18714233333332686
10351,36.18796749999997,46,0.09475066666666265,47,0.1164197499999986
10352,36.280359166666635,41,0.09239166666666421,43,0.1196008333333296
10353,36.376471499999965,44,0.09611233333333047,51,0.11763383333332911
10354,36.47042549999996,42,0.09395399999999654,47,0.12037875000000042
10355,36.56514483333329,39,0.09471933333333027,47,0.1026376666666664
10356,36.66778249999996,52,0.1026376666666664,67,0.11335733333333309
10357,36.75886116666663,51,0.09107866666666808,58,0.11207358333333417
10358,36.847975833333294,49,0.08911466666666712,56,0.114605333333337
10359,36.93981149999996,47,0.0918356666666682,56,0.1134190833333335
10360,37.03089016666663,46,0.09107866666666808,55,0.11213133333333758
10361,37.1202518333333,44,0.08936166666666878,55,0.09107866666666808
10362,37.21133049999997,49,0.09107866666666808,61,0.11617283333333717
10363,37.3049808333333,43,0.09365033333333628,55,0.11292208333333775
10364,37.39507083333331,46,0.09009000000000356,54,0.11416041666666388
10365,37.486399166666644,40,0.09132833333333679,56,0.11474091666666197
10366,37.57772749999997,43,0.09132833333332968,55,0.12047291666667093
10367,37.67137783333331,39,0.09365033333333628,52,0.10729033333333149
10368,37.77866816666664,52,0.10729033333333149,67,0.11335733333333309
10369,37.86974683333331,51,0.09107866666666808,56,0.11207358333333417
10370,37.958861499999976,49,0.08911466666666712,59,0.114605333333337
10371,38.050697166666644,47,0.0918356666666682,58,0.1134190833333335
10372,38.14177583333331,46,0.09107866666666808,56,0.11264241666666663
10373,38.23113749999998,44,0.08936166666666878,56,0.09312299999999851
10374,38.32426049999998,49,0.09312299999999851,62,0.11740991666666645
10375,38.41871149999998,43,0.0944509999999994,55,0.11473150000000487
10376,38.51054716666665,46,0.0918356666666682,56,0.09158333333333246
10377,38.60213049999998,40,0.09158333333333246,54,0.11499591666666475
10378,38.69371383333331,43,0.09158333333333246,55,0.12047291666667093
10379,38.78736416666665,39,0.09365033333333628,57,0.10729033333333149
10380,38.89465449999998,49,0.10729033333333149,59,0.12050683333333723
10381,38.992458833333316,43,0.09780433333333605,53,0.11406691666666546
10382,39.083268833333314,46,0.09080999999999761,53,0.11622091666666279
10383,39.17629649999998,40,0.09302766666666429,51,0.11547550000000228
10384,39.26906949999998,43,0.0927730000000011,48,0.11448983333333018
10385,39.35987949999998,39,0.09080999999999761,48,0.09471933333333027
10386,39.45459883333331,46,0.09471933333333027,57,0.11754416666666856
10387,39.549318166666644,40,0.09471933333333737,51,0.11471191666666414
10388,39.640617499999976,43,0.09129933333333184,49,0.11706291666666857
10389,39.73426783333331,39,0.09365033333333628,50,0.11660924999999622
10390,39.82791816666664,43,0.09365033333332917,48,0.11538166666667138
10391,39.91975383333331,37,0.0918356666666682,48,0.09418399999999849
10392,40.01393783333331,43,0.09418399999999849,59,0.11727016666666401
10393,40.10812183333331,37,0.09418399999999849,50,0.11595741666666726
10394,40.200466499999976,40,0.09234466666666918,48,0.11786358333333169
10395,40.294917499999976,36,0.0944509999999994,51,0.1167365000000018
10396,40.38856783333331,37,0.09365033333333628,49,0.11595741666666726
10397,40.48091249999998,35,0.09234466666666918,50,0.0944509999999994
10398,40.57536349999998,40,0.0944509999999994,51,0.11760233333333048
10399,40.66981449999998,35,0.0944509999999994,48,0.1162180833333295
10400,40.76241983333331,37,0.09260533333333143,48,0.11806374999999747
10401,40.85687083333331,34,0.0944509999999994,50,0.11766683333333106
10402,40.95132183333331,37,0.0944509999999994,48,0.11667966666666985
10403,41.044185166666644,33,0.09286333333333374,41,0.0952653333333302
10404,41.139450499999974,32,0.0952653333333302,51,0.11718016666666387
10405,41.234169833333304,34,0.09471933333333027,46,0.11286575000000454
10406,41.32401316666664,37,0.08984333333333439,45,0.11511208333333656
10407,41.416102833333305,40,0.0920896666666664,45,0.11461216666666729
10408,41.50819249999997,31,0.0920896666666664,45,0.1130489166666635
10409,41.59828249999997,34,0.09008999999999645,46,0.0918356666666682
10410,41.690118166666636,32,0.0918356666666682,51,0.11423608333333135
10411,41.781953833333304,34,0.0918356666666682,46,0.11256058333333385
10412,41.87155549999997,37,0.0896016666666668,45,0.11479458333333525
10413,41.96339116666664,40,0.0918356666666682,45,0.11423608333333135
10414,42.05522683333331,31,0.0918356666666682,45,0.11256058333333385
10415,42.144828499999974,34,0.0896016666666668,46,0.08265209999999712
10416,42.23666416666664,34,0.0918356666666682,53,0.11417608333333362
10417,42.32849983333331,36,0.0918356666666682,45,0.11219375000000298
10418,42.41786149999998,39,0.08936166666666878,46,0.11416041666666388
10419,42.509189833333316,42,0.09132833333333679,47,0.11388370833332573
10420,42.600518166666646,33,0.09132833333332968,45,0.11167004166666317
10421,42.689909541666644,36,0.08939137499999816,48,0.09058766666666429
10422,42.78049720833331,34,0.09058766666666429,53,0.11329791666666722
10423,42.87157587499998,36,0.09107866666666808,47,0.11158466666666556
10424,42.96045287499997,39,0.08887699999999654,46,0.11353833333333085
10425,43.05128354166664,42,0.09083066666666895,49,0.1129908333333276
10426,43.142114208333304,33,0.09083066666666184,48,0.11128558333333416
10427,43.230754874999974,36,0.08864066666667014,46,0.09057966666666317
10428,43.32133454166664,37,0.09057966666666317,55,0.11250566666667083
10429,43.41191420833331,39,0.09057966666667028,47,0.11016483333333582
10430,43.49961820833331,42,0.08770400000000222,48,0.11224374999999753
10431,43.589461541666644,45,0.08984333333333439,49,0.11152766666666736
10432,43.67906320833331,36,0.0896016666666668,48,0.11010441666666537
10433,43.76676720833331,39,0.08770400000000222,45,0.0896016666666668
10434,43.85636887499998,40,0.0896016666666668,50,0.11164366666666581
10435,43.94597054166665,42,0.0896016666666668,49,0.11050841666666855
10436,44.03413854166665,45,0.08816800000000313,48,0.1117020833333342
10437,44.12350020833332,48,0.08936166666666878,49,0.11117191666666315
10438,44.21286187499998,39,0.08936166666666168,49,0.10964141666666194
10439,44.30010287499998,42,0.08724099999999879,50,0.0896016666666668
10440,44.389704541666646,40,0.0896016666666668,55,0.11152766666666736
10441,44.47930620833331,42,0.0896016666666668,49,0.11016483333333582
10442,44.567010208333315,45,0.08770400000000222,48,0.11224374999999753
10443,44.65685354166665,48,0.08984333333333439,50,0.11152766666666736
10444,44.746455208333316,39,0.0896016666666668,49,0.11010441666666537
10445,44.83415920833332,42,0.08770400000000222,50,0.0896016666666668
10446,44.923760874999985,45,0.0896016666666668,57,0.11164366666666581
10447,45.01336254166665,49,0.0896016666666668,51,0.11050841666666855
10448,45.101530541666655,51,0.08816800000000313,52,0.1117020833333342
10449,45.190892208333324,54,0.08936166666666878,54,0.11117191666666315
10450,45.280253874999985,44,0.08936166666666168,54,0.10964141666666194
10451,45.367494874999984,48,0.08724099999999879,55,0.0896016666666668
10452,45.45709654166665,49,0.0896016666666668,65,0.11112924999999763
10453,45.54669820833332,52,0.0896016666666668,56,0.10832958333332954
10454,45.63280854166665,57,0.0861103333333304,55,0.11109625000000278
10455,45.721685541666645,56,0.08887699999999654,55,0.11051641666666967
10456,45.81056254166665,51,0.08887700000000365,54,0.10877691666666323
10457,45.89712020833331,52,0.08655766666666409,55,0.08887699999999654
10458,45.98599720833331,55,0.08887699999999654,62,0.17589033333333504
10459,46.07487420833331,51,0.08887700000000365,57,0.10935374999999681
10460,46.161887541666644,52,0.08701333333333139,55,0.1117020833333342
10461,46.25124920833331,48,0.08936166666666878,56,0.17660266666666047
10462,46.340610874999975,49,0.08936166666666168,55,0.10964141666666194
10463,46.42785187499997,45,0.08724099999999879,51,0.0896016666666668
10464,46.51745354166664,43,0.0896016666666668,56,0.17730566666666903
10465,46.60705520833331,44,0.0896016666666668,51,0.11016483333333582
10466,46.69475920833331,49,0.08770400000000222,51,0.08984333333333439
10467,46.784602541666644,47,0.08984333333333439,56,0.17638466666666375
10468,46.87420420833331,48,0.0896016666666668,51,0.10900224999999608
10469,46.96098720833331,52,0.08678299999999695,51,0.08887699999999654
10470,47.049864208333304,48,0.08887699999999654,58,0.17521033333333946
10471,47.13874120833331,49,0.08887700000000365,55,0.10837533333333482
10472,47.22507454166664,52,0.08633333333333582,56,0.08816800000000313
10473,47.313242541666646,50,0.08816800000000313,59,0.1733903333333302
10474,47.40141054166664,51,0.08816799999999603,56,0.10762274999999732
10475,47.48663287499998,56,0.08522233333333418,53,0.0896016666666668
10476,47.57623454166664,47,0.0896016666666668,65,0.10957475000000017
10477,47.66416987499998,50,0.08793533333333414,59,0.10877691666666323
10478,47.75072754166664,55,0.08655766666666409,56,0.11127741666665969
10479,47.83960454166664,54,0.08887699999999654,62,0.1113550000000032
10480,47.929206208333305,49,0.0896016666666668,58,0.10941374999999454
10481,48.016219541666636,50,0.08701333333333139,54,0.0896016666666668
10482,48.1058212083333,53,0.0896016666666668,62,0.17776966666666993
10483,48.19542287499997,49,0.0896016666666668,56,0.11050841666666855
10484,48.28359087499997,50,0.08816800000000313,53,0.1117020833333342
10485,48.37295254166664,46,0.08936166666666878,58,0.17660266666666047
10486,48.462314208333304,47,0.08936166666666168,51,0.10964141666666194
10487,48.5495552083333,43,0.08724099999999879,51,0.0896016666666668
10488,48.63915687499997,41,0.0896016666666668,56,0.17730566666666903
10489,48.728758541666636,42,0.0896016666666668,51,0.11016483333333582
10490,48.81646254166664,47,0.08770400000000222,51,0.08984333333333439
10491,48.90630587499997,43,0.08984333333333439,56,0.17638466666666375
10492,48.99590754166664,44,0.0896016666666668,53,0.1089431666666627
10493,49.082690541666636,50,0.08678299999999695,54,0.08864066666667014
10494,49.17133120833331,44,0.08864066666667014,61,0.17519833333332713
10495,49.25997187499997,45,0.08864066666666304,55,0.10854149999999407
10496,49.346529541666634,50,0.08655766666666409,56,0.08793533333333414
10497,49.43446487499997,48,0.08793533333333414,64,0.1738199999999992
10498,49.5224002083333,49,0.08793533333333414,56,0.1082850833333282
10499,49.60828487499997,54,0.08588466666666505,58,0.0896016666666668
10500,49.697886541666634,52,0.0896016666666668,64,0.11124108333333282
10501,49.7874882083333,51,0.0896016666666668,53,0.10901849999999769
10502,49.874045874999965,50,0.08655766666666409,47,0.11224374999999753
10503,49.9638892083333,49,0.08984333333333439,56,0.11152766666666736
10504,50.053490874999966,48,0.0896016666666668,52,0.11010441666666537
10505,50.14119487499997,56,0.08770400000000222,56,0.0896016666666668
10506,50.230796541666635,54,0.0896016666666668,64,0.11164366666666581
10507,50.3203982083333,53,0.0896016666666668,55,0.11050841666666855
10508,50.408566208333305,52,0.08816800000000313,55,0.1117020833333342
10509,50.497927874999974,51,0.08936166666666878,57,0.11117191666666315
10510,50.587289541666635,49,0.08936166666666168,54,0.10964141666666194
10511,50.674530541666634,57,0.08724099999999879,58,0.0896016666666668
10512,50.7641322083333,56,0.0896016666666668,67,0.11152766666666736
10513,50.85373387499997,54,0.0896016666666668,59,0.11016483333333582
10514,50.94143787499997,53,0.08770400000000222,56,0.11224374999999753
10515,51.031281208333304,52,0.08984333333333439,60,0.11152766666666736
10516,51.12088287499997,51,0.0896016666666668,58,0.11047366666667102
10517,51.20858687499997,60,0.08770400000000222,63,0.09107866666666808
10518,51.29966554166664,51,0.09107866666666808,68,0.18044033333333687
10519,51.39074420833331,52,0.09107866666666808,62,0.11232058333333583
10520,51.48010587499998,61,0.08936166666666878,62,0.0918356666666682
10521,51.57194154166665,53,0.0918356666666682,71,0.18119733333333699
10522,51.663777208333315,54,0.0918356666666682,62,0.1124478333333343
10523,51.75313887499998,61,0.08936166666666878,67,0.09234466666666918
10524,51.84548354166665,63,0.09234466666666918,72,0.10685949999999877
10525,51.93087187499999,61,0.08538833333333429,60,0.10780483333332569
10526,52.01703729166665,59,0.08616541666665967,56,0.10876625000000217
10527,52.10393604166665,57,0.08689875000000313,62,0.10968683333332763
10528,52.19158087499998,56,0.08764483333332862,60,0.1108632499999942
10529,52.28010370833331,55,0.08852283333332878,60,0.08936166666666878
10530,52.369465374999976,63,0.08936166666666878,72,0.11072283333332678
10531,52.45882704166664,61,0.08936166666666168,62,0.10735924999999469
10532,52.5446029583333,59,0.08577591666666251,59,0.10853933333333288
10533,52.631274791666634,57,0.08667183333333384,63,0.10992074999999346
10534,52.71909412499996,56,0.08781933333332859,59,0.11122166666665834
10535,52.80791537499996,55,0.08882124999999519,58,0.0896016666666668
10536,52.897517041666624,57,0.0896016666666668,67,0.10848124999999698
10537,52.98424495833329,56,0.08672791666666768,58,0.1092245833333294
10538,53.07154354166662,55,0.08729858333332885,56,0.11009524999999343
10539,53.15953737499995,54,0.08799383333332855,60,0.11091966666666053
10540,53.248178374999945,53,0.08864099999999553,56,0.11175899999999217
10541,53.337476541666604,52,0.08929816666665857,55,0.08984333333333439
10542,53.42731987499994,54,0.08984333333333439,58,0.11188533333333339
10543,53.51716320833327,50,0.08984333333333439,54,0.11050841666666855
10544,53.605331208333276,51,0.08816800000000313,50,0.1117020833333342
10545,53.694692874999944,52,0.08936166666666878,51,0.11117191666666315
10546,53.784054541666606,48,0.08936166666666168,47,0.10964141666666194
10547,53.871295541666605,49,0.08724099999999879,50,0.0896016666666668
10548,53.96089720833327,51,0.0896016666666668,53,0.17730566666666903
10549,54.05049887499994,46,0.0896016666666668,45,0.11016483333333582
10550,54.13820287499994,47,0.08770400000000222,45,0.11224374999999753
10551,54.228046208333275,50,0.08984333333333439,46,0.17730566666666903
10552,54.31764787499994,45,0.0896016666666668,42,0.11010441666666537
10553,54.405351874999944,54,0.08770400000000222,39,0.0896016666666668
10554,54.49495354166661,49,0.0896016666666668,46,0.17776966666666993
10555,54.58455520833328,44,0.0896016666666668,42,0.11050841666666855
10556,54.67272320833328,45,0.08816800000000313,45,0.1117020833333342
10557,54.76208487499995,48,0.08936166666666878,43,0.17660266666666047
10558,54.85144654166661,43,0.08936166666666168,41,0.10964141666666194
10559,54.93868754166661,52,0.08724099999999879,39,0.0896016666666668
10560,55.02828920833328,47,0.0896016666666668,51,0.17730566666666903
10561,55.117890874999944,42,0.0896016666666668,44,0.11016483333333582
10562,55.205594874999946,43,0.08770400000000222,44,0.11224374999999753
10563,55.29543820833328,46,0.08984333333333439,43,0.17730566666666903
10564,55.38503987499995,41,0.0896016666666668,41,0.11010441666666537
10565,55.47274387499995,50,0.08770400000000222,41,0.0896016666666668
10566,55.562345541666616,45,0.0896016666666668,47,0.17776966666666993
10567,55.65194720833328,40,0.0896016666666668,40,0.11050841666666855
10568,55.740115208333286,41,0.08816800000000313,40,0.1117020833333342
10569,55.829476874999955,44,0.08936166666666878,44,0.17660266666666047
10570,55.91883854166662,39,0.08936166666666168,38,0.10964141666666194
10571,56.006079541666615,48,0.08724099999999879,40,0.0896016666666668
10572,56.09568120833328,53,0.0896016666666668,49,0.1752656666666681
10573,56.18528287499995,48,0.0896016666666668,42,0.1077060000000003
10574,56.27094687499995,49,0.0856640000000013,45,0.11032816666666889
10575,56.35911487499995,52,0.08816800000000313,48,0.17475100000000054
10576,56.44775554166662,47,0.08864066666667014,42,0.10821174999999528
10577,56.533865874999954,56,0.0861103333333304,39,0.0884056666666666
10578,56.62227154166662,51,0.0884056666666666,47,0.1749633333333307
10579,56.71067720833329,46,0.0884056666666666,42,0.10889808333332951
10580,56.79723487499995,47,0.08655766666666409,42,0.1117020833333342
10581,56.88659654166662,50,0.08936166666666878,44,0.17660266666666047
10582,56.97595820833328,45,0.08936166666666168,43,0.10964141666666194
10583,57.06319920833328,54,0.08724099999999879,39,0.0896016666666668
10584,57.15280087499995,49,0.0896016666666668,47,0.17730566666666903
10585,57.242402541666614,44,0.0896016666666668,39,0.11016483333333582
10586,57.330106541666616,45,0.08770400000000222,41,0.11224374999999753
10587,57.41994987499995,48,0.08984333333333439,41,0.17730566666666903
10588,57.50955154166662,43,0.0896016666666668,39,0.11010441666666537
10589,57.59725554166662,52,0.08770400000000222,39,0.0896016666666668
10590,57.68685720833329,47,0.0896016666666668,44,0.17776966666666993
10591,57.77645887499995,42,0.0896016666666668,39,0.11050841666666855
10592,57.864626874999956,43,0.08816800000000313,41,0.1117020833333342
10593,57.953988541666625,46,0.08936166666666878,42,0.17660266666666047
10594,58.04335020833329,41,0.08936166666666168,39,0.10964141666666194
10595,58.130591208333286,50,0.08724099999999879,43,0.0896016666666668
10596,58.22019287499995,55,0.0896016666666668,53,0.17548633333333186
10597,58.30979454166662,50,0.0896016666666668,39,0.10798608333332993
10598,58.395679208333284,51,0.08588466666666505,45,0.11056583333333236
10599,58.48408487499995,54,0.0884056666666666,45,0.17497400000000596
10600,58.57272554166662,49,0.08864066666667014,39,0.10843475000000069
10601,58.65905887499996,58,0.08633333333333582,42,0.0884056666666666
10602,58.74746454166662,53,0.0884056666666666,51,0.17518866666666355
10603,58.83587020833329,48,0.0884056666666666,38,0.10912341666666237
10604,58.92265320833329,49,0.08678299999999695,42,0.1117020833333342
10605,59.012014874999956,52,0.08936166666666878,43,0.17660266666666047
10606,59.10137654166662,47,0.08936166666666168,38,0.10964141666666194
10607,59.188617541666616,56,0.08724099999999879,39,0.0896016666666668
10608,59.27821920833328,51,0.0896016666666668,49,0.17730566666666903
10609,59.36782087499995,46,0.0896016666666668,38,0.11016483333333582
10610,59.45552487499995,47,0.08770400000000222,39,0.11224374999999753
10611,59.54536820833329,50,0.08984333333333439,39,0.17730566666666903
10612,59.63496987499995,45,0.0896016666666668,36,0.11010441666666537
10613,59.722673874999956,54,0.08770400000000222,37,0.0896016666666668
10614,59.81227554166662,49,0.0896016666666668,47,0.17776966666666993
10615,59.90187720833329,44,0.0896016666666668,36,0.11050841666666855
10616,59.99004520833329,54,0.08816800000000313,39,0.1117020833333342
10617,60.07940687499996,49,0.08936166666666878,41,0.17660266666666047
10618,60.16876854166662,44,0.08936166666666168,34,0.10964141666666194
10619,60.25600954166662,52,0.08724099999999879,39,0.0896016666666668
10620,60.34561120833329,45,0.0896016666666668,49,0.10819758333332885
10621,60.43211304166662,44,0.08650183333332961,42,0.10893708333333763
10622,60.51918262499996,43,0.08706958333333858,39,0.10974533333332914
10623,60.60688595833329,42,0.08770333333333014,43,0.11050574999999441
10624,60.695231541666615,40,0.08834558333332865,43,0.11139891666665847
10625,60.78423004166661,39,0.08899849999999532,42,0.0896016666666668
10626,60.87383170833328,45,0.0896016666666668,49,0.10746866666666932
10627,60.95977279166661,44,0.08594108333333139,42,0.10797366666666619
10628,61.046050708333276,42,0.08627791666666695,42,0.10899433333333519
10629,61.13317754166661,40,0.08712683333333615,45,0.10992074999999346
10630,61.22099687499994,39,0.08781933333332859,44,0.11115991666665792
10631,61.309756374999935,37,0.08875949999999477,42,0.0896016666666668
10632,61.3993580416666,45,0.0896016666666668,49,0.10819758333332885
10633,61.48585987499993,44,0.08650183333332961,45,0.10899433333333519
10634,61.57298670833327,42,0.08712683333333615,42,0.1098613333333276
10635,61.660806041666596,40,0.08781933333332859,45,0.11074208333332791
10636,61.749328874999925,39,0.08852283333332878,44,0.11163916666666296
10637,61.83856762499992,38,0.0892387499999927,42,0.0896016666666668
10638,61.928169291666585,45,0.0896016666666668,49,0.10876533333333782
10639,62.01512437499992,44,0.08695508333333635,45,0.10957141666666814
10640,62.10271195833325,42,0.08758758333333105,42,0.11038883333333871
10641,62.190940624999925,40,0.08822866666667295,45,0.11127716666666032
10642,62.27987737499992,38,0.0889367499999949,44,0.11206291666665891
10643,62.369539874999916,37,0.08966249999999576,42,0.0896016666666668
10644,62.45914154166658,36,0.0896016666666668,45,0.11212291666666374
10645,62.548864041666576,37,0.08972249999999349,43,0.11151741666666481
10646,62.63816220833324,39,0.08929816666666568,43,0.11080150000000089
10647,62.72686229166657,42,0.0887000833333289,44,0.11009525000000053
10648,62.81503154166657,40,0.08816924999999998,41,0.11010441666666537
10649,62.90273554166657,36,0.08770400000000222,40,0.0896016666666668
10650,62.99233720833324,39,0.0896016666666668,45,0.11164366666666581
10651,63.081938874999906,37,0.0896016666666668,40,0.11050841666666855
10652,63.17010687499991,32,0.08816800000000313,40,0.1117020833333342
10653,63.25946854166658,35,0.08936166666666878,41,0.11117191666666315
10654,63.34883020833324,33,0.08936166666666168,40,0.10964141666666194
10655,63.43607120833324,32,0.08724099999999879,40,0.0896016666666668
10656,63.525672874999906,30,0.0896016666666668,45,0.11194116666666076
10657,63.6153353749999,32,0.08966249999999576,43,0.11103816666665978
10658,63.704272124999896,33,0.0889367499999949,43,0.11009524999999343
10659,63.79244137499989,37,0.08816924999999287,44,0.1093400000000031
10660,63.87985537499989,35,0.08741400000000255,41,0.11010441666666537
10661,63.967559374999894,33,0.08770400000000222,40,0.0896016666666668
10662,64.05716104166656,32,0.0896016666666668,44,0.11164366666666581
10663,64.14676270833323,28,0.0896016666666668,40,0.11050841666666145
10664,64.23493070833322,30,0.08816799999999603,40,0.1117020833333271
10665,64.32429237499989,32,0.08936166666666168,43,0.11117191666667736
10666,64.41365404166656,31,0.08936166666667589,40,0.10964141666667615
10667,64.50089504166657,32,0.0872410000000059,40,0.0896016666666668
10668,64.59049670833323,33,0.0896016666666668,44,0.10928149999999448
10669,64.67785220833323,32,0.08735550000000103,39,0.10986166666666008
10670,64.7656718749999,31,0.08781966666666108,39,0.11056516666666028
10671,64.85407687499989,30,0.08840499999999452,39,0.11115599999999404
10672,64.94295420833322,28,0.08887733333332903,36,0.11182033333332697
10673,65.03237412499988,27,0.08941991666665672,37,0.0896016666666668
10674,65.12197579166654,33,0.0896016666666668,44,0.10842366666666692
10675,65.20864612499987,32,0.08667033333333052,39,0.10899466666667479
10676,65.29577329166655,30,0.08712716666667575,39,0.10968716666666012
10677,65.38347662499989,28,0.08770333333333724,39,0.11027066666665064
10678,65.47164587499988,27,0.08816924999999287,36,0.11110049999999205
10679,65.5603459583332,25,0.0887000833333218,37,0.08895458333333295
10680,65.64930054166653,33,0.08895458333333295,44,0.10910883333333743
10681,65.73654187499987,32,0.08724133333333839,39,0.10980316666665146
10682,65.82430304166652,30,0.08776116666665246,39,0.11044699999999352
10683,65.91258987499985,28,0.08828683333332776,39,0.11115599999999404
10684,66.00146720833318,27,0.08887733333332903,36,0.11182033333332697
10685,66.09088712499984,26,0.08941991666665672,37,0.0896016666666668
10686,66.1804887916665,33,0.0896016666666668,44,0.1079736666666804
10687,66.26676670833318,32,0.08627791666667406,39,0.10888016666667966
10688,66.35377937499986,30,0.08701266666668062,39,0.10980316666665146
10689,66.44154054166651,28,0.08776116666665246,39,0.11074208333333502
10690,66.53006337499986,26,0.08852283333334299,36,0.1116995833333192
10691,66.61930212499985,25,0.0892387499999927,37,0.08984333333333439
10692,66.70914545833318,24,0.08984333333333439,41,0.11279575000000364
10693,66.79941870833318,25,0.09027324999999564,36,0.11236708333333922
10694,66.88938537499985,26,0.08996666666666897,37,0.11188208333332739
10695,66.97892704166651,28,0.08954166666666197,45,0.11139566666666667
10696,67.06810345833317,30,0.08917641666666043,39,0.11091899999999555
10697,67.1568622916665,32,0.08875883333332979,40,0.08840499999999452
10698,67.2452672916665,33,0.08840499999999452,49,0.10997766666665143
10699,67.33331895833315,35,0.08805166666665798,45,0.10951299999999264
10700,67.42096445833315,37,0.0876454999999936,46,0.10905158333333986
10701,67.50826270833315,38,0.08729825000000346,54,0.10859391666667761
10702,67.59516087499982,40,0.08689816666667127,51,0.10814125000000274
10703,67.6817187916665,42,0.08655791666667767,51,0.086221833333326
10704,67.76794062499982,44,0.086221833333326,58,0.10752508333332855
10705,67.85393812499981,43,0.08599749999999062,53,0.1079170000000147
10706,67.94021570833316,40,0.08627758333334157,46,0.10836608333333686
10707,68.02688604166649,39,0.08667033333333052,50,0.1087660000000028
10708,68.11384179166649,37,0.08695575000000133,49,0.10922300000000007
10709,68.20119729166649,33,0.08735550000000103,44,0.0876454999999936
10710,68.28884279166648,32,0.0876454999999936,49,0.11009366666665699
10711,68.37689445833314,31,0.08805166666665798,43,0.1105064166666665
10712,68.46524070833314,28,0.08834625000000074,39,0.11097808333333603
10713,68.55399954166647,27,0.08875883333332979,43,0.11139566666666667
10714,68.64305479166647,25,0.08905525000000125,36,0.11188208333332739
10715,68.73253645833313,21,0.08948166666665713,34,0.0896016666666668
10716,68.8221381249998,20,0.0896016666666668,39,0.17730566666666903
10717,68.91173979166646,25,0.0896016666666668,33,0.11016483333332872
10718,68.99944379166647,23,0.08770400000000222,33,0.11224375000000464
10719,69.0892871249998,24,0.08984333333333439,36,0.1766149999999982
10720,69.17888879166647,28,0.0896016666666668,34,0.10917349999999715
10721,69.2659021249998,24,0.08701333333333139,34,0.08864066666666304
10722,69.35454279166646,25,0.08864066666666304,41,0.17519833333334134
10723,69.44318345833314,30,0.08864066666667725,37,0.1085996666666631
10724,69.5297411249998,26,0.08655766666666409,37,0.11020999999999503
10725,69.6179091249998,27,0.08816799999999603,39,0.17427833333334775
10726,69.70607712499981,32,0.08816800000001024,39,0.1080941666666746
10727,69.79218745833315,27,0.08611033333333751,39,0.08793533333333414
10728,69.88012279166648,28,0.08793533333333414,43,0.1738200000000063
10729,69.96805812499981,33,0.08793533333333414,39,0.10792666666667117
10730,70.05394279166649,29,0.08588466666667216,39,0.11032816666666179
10731,70.14211079166648,30,0.08816799999999603,41,0.17475100000000054
10732,70.23075145833315,36,0.08864066666666304,39,0.10851075000000776
10733,70.31686179166648,32,0.08611033333333751,39,0.0896016666666668
10734,70.40646345833315,33,0.0896016666666668,46,0.1780073333333405
10735,70.49606512499982,40,0.0896016666666668,40,0.11098925000000293
10736,70.58447079166649,36,0.08840566666667371,39,0.11291791666666029
10737,70.67480512499982,39,0.09033433333333107,40,0.1785023333333271
10738,70.76513945833315,45,0.09033433333333107,42,0.11081291666666004
10739,70.85330745833315,44,0.08816799999999603,40,0.09057966666667028
10740,70.94388712499982,36,0.09057966666667028,45,0.1782836666666583
10741,71.03446679166647,40,0.09057966666665607,39,0.11016483333332872
10742,71.12217079166648,36,0.08770400000000222,41,0.11224375000000464
10743,71.21201412499981,39,0.08984333333333439,42,0.17730566666666903
10744,71.30161579166648,45,0.0896016666666668,43,0.11028758333333144
10745,71.38931979166648,44,0.08770400000000222,43,0.09033433333333107
10746,71.47965412499981,36,0.09033433333333107,45,0.1785023333333271
10747,71.56998845833314,40,0.09033433333333107,39,0.11075158333332524
10748,71.65815645833314,36,0.08816799999999603,41,0.11291791666666029
10749,71.74849079166647,39,0.09033433333333107,43,0.17757533333333697
10750,71.8388251249998,45,0.09033433333333107,43,0.11032716666667852
10751,71.9260661249998,44,0.0872410000000059,43,0.09234466666666208
10752,72.01841079166647,39,0.09234466666666208,47,0.18292433333334657
10753,72.11075545833314,45,0.09234466666667629,43,0.11347550000000695
10754,72.20133512499982,44,0.09057966666667028,40,0.11447916666666913
10755,72.29291845833315,39,0.09158333333333246,41,0.18216300000000274
10756,72.38450179166648,45,0.09158333333333246,43,0.11341174999999737
10757,72.47508145833315,44,0.09057966666667028,40,0.09132833333333679
10758,72.56640979166649,39,0.09132833333333679,45,0.18190800000000706
10759,72.65773812499982,45,0.09132833333333679,43,0.11341174999999737
10760,72.7483177916665,44,0.09057966666667028,40,0.11416041666666388
10761,72.83964612499983,37,0.09132833333333679,44,0.1804429999999968
10762,72.93097445833317,45,0.09132833333333679,43,0.11151508333333027
10763,73.02008912499983,44,0.08911466666666001,43,0.08954166666666197
10764,73.10963079166649,40,0.08954166666666197,45,0.17811549999998988
10765,73.19886895833315,32,0.08923816666666085,36,0.1110374999999948
10766,73.28774629166648,42,0.08887733333332903,39,0.11062458333333325
10767,73.37626945833314,44,0.08852316666666127,39,0.11021341666666729
10768,73.46432270833314,42,0.08805325000000153,40,0.1114589166666633
10769,73.55338120833315,40,0.08905850000000726,40,0.0896016666666668
10770,73.64298287499982,37,0.0896016666666668,44,0.11194116666666787
10771,73.73264537499982,32,0.08966250000000286,39,0.11103816666667399
10772,73.82158212499982,39,0.08893675000000201,39,0.1101546666666593
10773,73.90981079166649,40,0.08822866666666584,40,0.10980474999999501
10774,73.99751412499981,39,0.08770333333332303,39,0.11122166666667965
10775,74.08633537499982,37,0.0888212500000094,40,0.0896016666666668
10776,74.17593704166649,40,0.0896016666666668,45,0.11249466666666308
10777,74.26701570833315,32,0.09107866666666098,39,0.10794266666665919
10778,74.35267970833314,42,0.08566399999999419,39,0.11151508333333027
10779,74.4417943749998,44,0.08911466666666001,41,0.11152766666666025
10780,74.53139604166647,42,0.0896016666666668,40,0.11010441666667248
10781,74.61910004166647,40,0.08770400000000222,40,0.0896016666666668
10782,74.70870170833314,37,0.0896016666666668,44,0.1110728333333384
10783,74.7983033749998,32,0.0896016666666668,39,0.10822508333333758
10784,74.88418804166648,39,0.08588466666667216,39,0.1117020833333271
10785,74.97354970833314,40,0.08936166666666168,40,0.11117191666667736
10786,75.06291137499981,39,0.08936166666667589,40,0.10964141666667615
10787,75.15015237499982,37,0.0872410000000059,40,0.0896016666666668
10788,75.23975404166649,30,0.0896016666666668,44,0.11112925000000473
10789,75.32935570833315,32,0.0896016666666668,39,0.108571166666664
10790,75.41546604166649,37,0.08611033333333751,34,0.11224375000000464
10791,75.50530937499983,40,0.08984333333333439,37,0.11152766666666025
10792,75.59491104166649,28,0.0896016666666668,35,0.11010441666667248
10793,75.6826150416665,32,0.08770400000000222,35,0.0896016666666668
10794,75.77221670833316,30,0.0896016666666668,44,0.11118500000000608
10795,75.86181837499983,32,0.0896016666666668,39,0.10867374999999413
10796,75.94815170833316,37,0.08633333333332871,34,0.1117020833333271
10797,76.03751337499982,40,0.08936166666666168,36,0.11117191666667736
10798,76.1268750416665,28,0.08936166666667589,35,0.10964141666667615
10799,76.2141160416665,32,0.0872410000000059,35,0.0896016666666668
10800,76.30371770833317,27,0.0896016666666668,44,0.11118500000000608
10801,76.39331937499983,28,0.0896016666666668,39,0.1087941666666552
10802,76.47965270833316,32,0.08633333333332871,34,0.11224375000000464
10803,76.5694960416665,37,0.08984333333333439,36,0.11152766666666025
10804,76.65909770833316,25,0.0896016666666668,35,0.11010441666667248
10805,76.74680170833317,28,0.08770400000000222,35,0.0896016666666668
10806,76.83640337499983,27,0.0896016666666668,44,0.1110728333333384
10807,76.9260050416665,28,0.0896016666666668,39,0.10822508333333758
10808,77.01188970833317,32,0.08588466666667216,34,0.1117020833333271
10809,77.10125137499983,37,0.08936166666666168,36,0.11117191666667736
10810,77.19061304166651,25,0.08936166666667589,35,0.10964141666667615
10811,77.27785404166652,28,0.0872410000000059,35,0.0896016666666668
10812,77.90151204166652,27,0.623658000000006,44,0.1110728333333384
10813,77.99111370833319,28,0.0896016666666668,39,0.10822508333333758
10814,78.07699837499986,32,0.08588466666667216,34,0.1117020833333271
10815,78.16636004166652,37,0.08936166666666168,35,0.11117191666667736
10816,78.2557217083332,25,0.08936166666667589,35,0.10964141666667615
10817,78.3429627083332,28,0.0872410000000059,35,0.0896016666666668
10818,78.97017437499987,27,0.6272116666666676,57,0.11112925000000473
10819,79.05977604166654,28,0.0896016666666668,51,0.108571166666664
10820,79.14588637499988,32,0.08611033333333751,46,0.11230416666666088
10821,79.23572970833321,37,0.08984333333333439,47,0.11188533333333339
10822,79.32557304166654,25,0.08984333333333439,48,0.1117807499999941
10823,79.41374104166654,28,0.08816799999999603,49,0.0944510000000065
10824,79.50819204166655,25,0.0944510000000065,100,0.2833529999999911
10825,80.07489804166654,73,0.5667059999999964,99,0.5667059999999964
10826,0.6877179999999999,48,0.0,77,0.490954
10827,1.031577,45,0.343859,68,0.29418999999999995
10828,1.178672,52,0.14709499999999998,70,0.14709499999999998
10829,1.325767,53,0.14709499999999998,71,0.28764600000000007
10830,1.46959,55,0.14382300000000003,71,0.14382300000000003
10831,1.613413,57,0.14382300000000003,72,0.3154945
10832,1.762009,58,0.14859599999999995,73,0.08344924999999992
10833,1.8454582499999999,57,0.08344924999999992,70,0.04172462500000007
10834,1.887182875,58,0.04172462500000007,68,0.04172462500000007
10835,1.9289075,57,0.04172462500000007,76,0.3024959999999999
10836,2.2314035,55,0.3024959999999999,74,0.29303999999999997
10837,2.3779235,53,0.1465200000000002,74,0.14651999999999976
10838,2.5244435,52,0.14651999999999976,73,0.29303999999999997
10839,2.6709635,50,0.1465200000000002,72,0.14651999999999976
10840,2.8174835,48,0.14651999999999976,74,0.1438229999999998
10841,2.9613064999999996,53,0.1438229999999998,70,0.14382300000000026
10842,3.1051295,53,0.14382300000000026,74,0.3098369999999999
10843,3.2084085,55,0.10327900000000012,70,0.10327899999999968
10844,3.3116874999999997,53,0.10327899999999968,70,0.10327900000000012
10845,3.4149665,52,0.10327900000000012,70,0.3033830000000002
10846,3.566658,50,0.1516915000000001,70,0.1516915000000001
10847,3.7183495,52,0.1516915000000001,73,1.0148129999999997
10848,4.0349224999999995,48,0.31657299999999955,53,0.3318950000000003
10849,4.3668175,48,0.3318950000000003,68,0.3663449999999999
10850,4.7331625,48,0.3663449999999999,74,0.1470950000000002
10851,4.8802575,52,0.1470950000000002,70,0.1470949999999993
10852,5.027352499999999,53,0.1470949999999993,71,0.2876459999999996
10853,5.1711754999999995,55,0.14382300000000026,71,0.14382299999999937
10854,5.314998499999999,57,0.14382299999999937,72,0.308179
10855,5.463594499999999,58,0.1485960000000004,73,0.0797914999999998
10856,5.543385999999999,57,0.0797914999999998,70,0.03989575000000034
10857,5.583281749999999,58,0.03989575000000034,68,0.03989574999999945
10858,5.623177499999999,57,0.03989574999999945,76,0.30249599999999965
10859,5.9256734999999985,55,0.30249599999999965,74,0.2930400000000004
10860,6.072193499999998,53,0.14651999999999976,74,0.14652000000000065
10861,6.218713499999999,52,0.14652000000000065,73,0.2930399999999995
10862,6.365233499999999,50,0.14651999999999976,72,0.14651999999999976
10863,6.511753499999998,48,0.14651999999999976,74,0.14382300000000026
10864,6.655576499999999,52,0.14382300000000026,70,0.14382299999999937
10865,6.799399499999998,52,0.14382299999999937,74,0.3098369999999999
10866,6.902678499999998,53,0.10327899999999968,70,0.10327900000000056
10867,7.005957499999998,52,0.10327900000000056,70,0.10327899999999968
10868,7.109236499999998,50,0.10327899999999968,70,0.3033830000000002
10869,7.260927999999998,48,0.1516915000000001,70,0.1516915000000001
10870,7.412619499999998,53,0.1516915000000001,73,0.9836200000000002
10871,7.725788499999998,45,0.31316900000000025,53,0.31742700000000035
10872,8.043215499999999,45,0.31742700000000035,47,0.654107999999999
10873,8.396239499999998,48,0.35302399999999956,40,0.15054199999999973
10874,8.546781499999998,52,0.15054199999999973,39,0.15054199999999973
10875,8.697323499999998,53,0.15054199999999973,39,0.2943920000000002
10876,8.844519499999997,55,0.14719599999999922,39,0.147196000000001
10877,8.991715499999998,57,0.147196000000001,40,0.31993649999999896
10878,9.143791499999997,58,0.1520759999999992,40,0.08393024999999987
10879,9.227721749999997,57,0.08393024999999987,39,0.041965125000000825
10880,9.269686874999998,58,0.041965125000000825,37,0.04196512499999905
10881,9.311651999999997,57,0.04196512499999905,42,0.3095979999999994
10882,9.621249999999996,55,0.3095979999999994,40,0.299925
10883,9.771212499999997,53,0.1499625000000009,40,0.1499624999999991
10884,9.921174999999996,52,0.1499624999999991,40,0.299925
10885,10.071137499999997,50,0.1499625000000009,40,0.1499624999999991
10886,10.221099999999996,48,0.1499624999999991,40,0.14719599999999922
10887,10.368295999999996,53,0.14719599999999922,39,0.147196000000001
10888,10.515491999999997,53,0.147196000000001,40,0.3171079999999993
10889,10.621194666666662,55,0.10570266666666583,39,0.10570266666666761
10890,10.72689733333333,53,0.10570266666666761,39,0.10570266666666583
10891,10.832599999999996,52,0.10570266666666583,39,0.3104949999999995
10892,10.987847499999996,50,0.15524749999999976,39,0.15524749999999976
10893,11.143094999999995,52,0.15524749999999976,40,1.0173000000000005
10894,11.463590999999996,48,0.32049600000000034,29,0.3416270000000008
10895,11.805217999999996,48,0.3416270000000008,37,0.6562609999999989
10896,12.160394999999996,48,0.3551769999999994,40,0.30108399999999946
10897,12.310936999999996,52,0.15054199999999973,39,0.15054199999999973
10898,12.461478999999995,53,0.15054199999999973,39,0.2943920000000002
10899,12.608674999999995,55,0.14719599999999922,39,0.147196000000001
10900,12.755870999999996,57,0.147196000000001,40,0.3180234999999989
10901,12.907946999999995,58,0.1520759999999992,40,0.08297375000000073
10902,12.990920749999995,57,0.08297375000000073,39,0.04148687499999859
10903,13.032407624999994,58,0.04148687499999859,37,0.04148687500000037
10904,13.073894499999994,57,0.04148687500000037,42,0.3095979999999994
10905,13.383492499999994,55,0.3095979999999994,40,0.299925
10906,13.533454999999995,53,0.1499625000000009,40,0.1499624999999991
10907,13.683417499999994,52,0.1499624999999991,40,0.299925
10908,13.833379999999995,50,0.1499625000000009,40,0.1499624999999991
10909,13.983342499999994,48,0.1499624999999991,40,0.14719599999999922
10910,14.130538499999993,52,0.14719599999999922,39,0.147196000000001
10911,14.277734499999994,52,0.147196000000001,40,0.3171079999999993
10912,14.38343716666666,53,0.10570266666666583,39,0.10570266666666761
10913,14.489139833333327,52,0.10570266666666761,39,0.10570266666666583
10914,14.594842499999993,50,0.10570266666666583,39,0.3104949999999995
10915,14.750089999999993,48,0.15524749999999976,39,0.15524749999999976
10916,14.905337499999993,53,0.15524749999999976,40,0.9850169999999991
10917,15.225833499999993,45,0.32049600000000034,29,0.32488599999999934
10918,15.550719499999992,45,0.32488599999999934,37,0.33963499999999947
10919,15.890354499999992,43,0.33963499999999947,73,0.14709499999999842
10920,16.03744949999999,47,0.14709499999999842,70,0.1470950000000002
10921,16.18454449999999,48,0.1470950000000002,71,0.28764599999999874
10922,16.32836749999999,50,0.14382300000000114,71,0.1438229999999976
10923,16.47219049999999,52,0.1438229999999976,72,0.3169460000000015
10924,16.62078649999999,53,0.14859600000000128,73,0.08417499999999833
10925,16.70496149999999,52,0.08417499999999833,70,0.042087500000000944
10926,16.74704899999999,53,0.042087500000000944,68,0.042087500000000944
10927,16.78913649999999,52,0.042087500000000944,76,0.30249600000000143
10928,17.091632499999992,50,0.30249600000000143,74,0.2930400000000013
10929,17.23815249999999,48,0.14651999999999887,74,0.14652000000000243
10930,17.384672499999994,47,0.14652000000000243,73,0.29303999999999775
10931,17.531192499999992,45,0.14651999999999887,72,0.14651999999999887
10932,17.67771249999999,43,0.14651999999999887,74,0.14382300000000114
10933,17.821535499999992,48,0.14382300000000114,70,0.1438229999999976
10934,17.96535849999999,48,0.1438229999999976,74,0.3098370000000017
10935,18.06863749999999,50,0.10327900000000056,70,0.10327900000000056
10936,18.17191649999999,48,0.10327900000000056,70,0.10327900000000056
10937,18.27519549999999,47,0.10327900000000056,70,0.3033830000000002
10938,18.42688699999999,45,0.1516914999999983,70,0.15169150000000187
10939,18.578578499999992,47,0.15169150000000187,73,1.005433
10940,18.89774449999999,43,0.3191659999999992,53,0.3300149999999995
10941,19.22775949999999,43,0.3300149999999995,68,0.35625200000000135
10942,19.584011499999992,43,0.35625200000000135,74,0.1470950000000002
10943,19.731106499999992,47,0.1470950000000002,70,0.1470950000000002
10944,19.878201499999992,48,0.1470950000000002,71,0.28764599999999874
10945,20.022024499999993,50,0.14382300000000114,71,0.1438229999999976
10946,20.16584749999999,52,0.1438229999999976,72,0.3136035000000028
10947,20.314443499999992,53,0.14859600000000128,73,0.08250375000000076
10948,20.396947249999993,52,0.08250375000000076,70,0.04125187500000038
10949,20.438199124999993,53,0.04125187500000038,68,0.04125187500000038
10950,20.479450999999994,52,0.04125187500000038,76,0.30249600000000143
10951,20.781946999999995,50,0.30249600000000143,74,0.2930400000000013
10952,20.928466999999994,48,0.14651999999999887,74,0.14652000000000243
10953,21.074986999999997,47,0.14652000000000243,73,0.29303999999999775
10954,21.221506999999995,45,0.14651999999999887,72,0.14651999999999887
10955,21.368026999999994,43,0.14651999999999887,74,0.14382300000000114
10956,21.511849999999995,47,0.14382300000000114,70,0.1438229999999976
10957,21.655672999999993,47,0.1438229999999976,74,0.3098370000000017
10958,21.758951999999994,48,0.10327900000000056,70,0.10327900000000056
10959,21.862230999999994,47,0.10327900000000056,70,0.10327900000000056
10960,21.965509999999995,45,0.10327900000000056,70,0.3033830000000002
10961,22.117201499999993,43,0.1516914999999983,70,0.15169150000000187
10962,22.268892999999995,48,0.15169150000000187,73,0.9937609999999992
10963,22.582061999999993,40,0.3131689999999985,53,0.32541499999999957
10964,22.907476999999993,40,0.32541499999999957,47,0.6567749999999997
10965,23.262653999999994,43,0.3551770000000012,40,0.15079899999999924
10966,23.413452999999993,47,0.15079899999999924,39,0.15079899999999924
10967,23.564251999999993,48,0.15079899999999924,39,0.2948979999999999
10968,23.711700999999994,50,0.14744900000000172,39,0.14744899999999816
10969,23.859149999999993,52,0.14744899999999816,40,0.32984349999999907
10970,24.016152499999993,53,0.15700250000000082,40,0.08642049999999912
10971,24.102572999999992,52,0.08642049999999912,39,0.04321025000000134
10972,24.145783249999994,53,0.04321025000000134,37,0.043210249999997785
10973,24.18899349999999,52,0.043210249999997785,42,0.31011000000000166
10974,24.499103499999993,50,0.31011000000000166,40,0.30043600000000126
10975,24.649321499999992,48,0.15021799999999885,40,0.1502180000000024
10976,24.799539499999995,47,0.1502180000000024,40,0.3004359999999977
10977,24.949757499999993,45,0.15021799999999885,40,0.15021799999999885
10978,25.099975499999992,43,0.15021799999999885,40,0.14744900000000172
10979,25.247424499999994,48,0.14744900000000172,39,0.14744899999999816
10980,25.394873499999992,48,0.14744899999999816,40,0.31764499999999884
10981,25.500755166666657,50,0.1058816666666651,39,0.10588166666666865
10982,25.606636833333326,48,0.10588166666666865,39,0.1058816666666651
10983,25.71251849999999,47,0.1058816666666651,39,0.31102599999999825
10984,25.86803149999999,45,0.15551299999999912,39,0.15551299999999912
10985,26.02354449999999,47,0.15551299999999912,40,1.0291710000000016
10986,26.34986249999999,43,0.32631800000000055,29,0.3376669999999997
10987,26.68752949999999,43,0.3376669999999997,37,0.674194
10988,27.05271549999999,43,0.36518600000000134,40,0.3090079999999986
10989,27.20721949999999,47,0.1545039999999993,39,0.1545039999999993
10990,27.36172349999999,48,0.1545039999999993,39,0.3018110000000007
10991,27.51262899999999,50,0.15090550000000036,39,0.15090550000000036
10992,27.66353449999999,52,0.15090550000000036,40,0.32664849999999745
10993,27.81886199999999,53,0.1553274999999985,40,0.08566049999999947
10994,27.904522499999988,52,0.08566049999999947,39,0.04283025000000151
10995,27.94735274999999,53,0.04283025000000151,37,0.04283024999999796
10996,27.990182999999988,52,0.04283024999999796,42,0.3165729999999982
10997,28.306755999999986,50,0.3165729999999982,40,0.3098370000000017
10998,28.461674499999987,48,0.15491850000000085,40,0.15491850000000085
10999,28.616592999999988,47,0.15491850000000085,40,0.30983699999999814
11000,28.771511499999985,45,0.1549184999999973,40,0.15491850000000085
11001,28.926429999999986,43,0.15491850000000085,40,0.15090550000000036
11002,29.077335499999986,47,0.15090550000000036,39,0.15090550000000036
11003,29.228240999999986,47,0.15090550000000036,40,0.3272429999999993
11004,29.337321999999986,48,0.10908099999999976,39,0.10908099999999976
11005,29.446402999999986,47,0.10908099999999976,39,0.10908099999999976
11006,29.555483999999986,45,0.10908099999999976,39,0.3157059999999987
11007,29.713336999999985,43,0.15785299999999935,39,0.15785299999999935
11008,29.871189999999984,48,0.15785299999999935,40,1.162005999999998
11009,30.198432999999984,40,0.3272429999999993,37,0.3357209999999995
11010,30.534153999999983,40,0.3357209999999995,73,0.3519469999999991
11011,30.886100999999982,45,0.3519469999999991,78,0.2941900000000004
11012,31.033195999999982,52,0.1470950000000002,80,0.1470950000000002
11013,31.180290999999983,53,0.1470950000000002,81,0.28764599999999874
11014,31.324113999999984,55,0.14382300000000114,81,0.1438229999999976
11015,31.46793699999998,57,0.1438229999999976,82,0.30817900000000265
11016,31.616532999999983,58,0.14859600000000128,83,0.0797914999999989
11017,31.69632449999998,57,0.0797914999999989,80,0.03989574999999945
11018,31.73622024999998,58,0.03989574999999945,78,0.039895750000003005
11019,31.776115999999984,57,0.039895750000003005,87,0.30249600000000143
11020,32.078611999999985,55,0.30249600000000143,85,0.29303999999999775
11021,32.22513199999999,53,0.14652000000000243,85,0.14651999999999532
11022,32.37165199999998,52,0.14651999999999532,83,0.29304000000000485
11023,32.518171999999986,50,0.14652000000000243,82,0.14652000000000243
11024,32.66469199999999,48,0.14652000000000243,85,0.1438229999999976
11025,32.808514999999986,53,0.1438229999999976,80,0.1438230000000047
11026,32.95233799999999,53,0.1438230000000047,85,0.3098370000000017
11027,33.05561699999999,55,0.10327900000000056,80,0.10327900000000056
11028,33.15889599999999,53,0.10327900000000056,80,0.10327900000000056
11029,33.26217499999999,52,0.10327900000000056,80,0.3033829999999966
11030,33.41386649999999,50,0.1516914999999983,80,0.1516914999999983
11031,33.56555799999999,52,0.1516914999999983,83,0.9825430000000068
11032,33.87872699999999,48,0.31316900000000203,60,0.3174270000000021
11033,34.19615399999999,48,0.3174270000000021,78,0.3519470000000027
11034,34.548100999999996,48,0.3519470000000027,85,0.1470950000000002
11035,34.695195999999996,52,0.1470950000000002,80,0.1470950000000002
11036,34.842290999999996,53,0.1470950000000002,81,0.2876460000000023
11037,34.98611399999999,55,0.1438229999999976,81,0.1438230000000047
11038,35.129937,57,0.1438230000000047,82,0.31360349999999926
11039,35.278532999999996,58,0.14859599999999773,83,0.08250375000000076
11040,35.36103675,57,0.08250375000000076,80,0.04125187500000038
11041,35.402288625,58,0.04125187500000038,78,0.04125187500000038
11042,35.4435405,57,0.04125187500000038,87,0.3024959999999979
11043,35.746036499999995,55,0.3024959999999979,85,0.29303999999999775
11044,35.8925565,53,0.14652000000000243,85,0.14651999999999532
11045,36.03907649999999,52,0.14651999999999532,83,0.29304000000000485
11046,36.185596499999996,50,0.14652000000000243,82,0.14652000000000243
11047,36.3321165,48,0.14652000000000243,85,0.1438229999999976
11048,36.475939499999996,52,0.1438229999999976,80,0.1438230000000047
11049,36.6197625,52,0.1438230000000047,85,0.3098370000000017
11050,36.7230415,53,0.10327900000000056,80,0.10327900000000056
11051,36.8263205,52,0.10327900000000056,80,0.10327900000000056
11052,36.9295995,50,0.10327900000000056,80,0.3033829999999966
11053,37.081291,48,0.1516914999999983,80,0.1516914999999983
11054,37.2329825,53,0.1516914999999983,83,0.986610000000006
11055,37.5461515,45,0.31316900000000203,60,0.32360700000000264
11056,37.8697585,45,0.32360700000000264,54,0.6560029999999983
11057,38.219592500000005,48,0.3498340000000013,40,0.1530844999999985
11058,38.372677,52,0.1530844999999985,39,0.1530844999999985
11059,38.5257615,53,0.1530844999999985,39,0.2993710000000007
11060,38.675447,55,0.1496854999999968,39,0.1496855000000039
11061,38.8251325,57,0.1496855000000039,40,0.33610249999999553
11062,38.9797795,58,0.1546469999999971,40,0.09072774999999922
11063,39.07050725,57,0.09072774999999922,39,0.04536387499999961
11064,39.115871125,58,0.04536387499999961,37,0.04536387499999961
11065,39.161235,57,0.04536387499999961,42,0.31482799999999855
11066,39.476062999999996,55,0.31482799999999855,40,0.304986999999997
11067,39.628556499999995,53,0.1524934999999985,40,0.1524934999999985
11068,39.78104999999999,52,0.1524934999999985,40,0.3049870000000041
11069,39.9335435,50,0.1524935000000056,40,0.1524934999999985
11070,40.086037,48,0.1524934999999985,40,0.1496854999999968
11071,40.235722499999994,53,0.1496854999999968,39,0.1496855000000039
11072,40.385408,53,0.1496855000000039,40,0.32245900000000205
11073,40.49289433333333,55,0.10748633333333402,39,0.10748633333333402
11074,40.600380666666666,53,0.10748633333333402,39,0.10748633333333402
11075,40.707867,52,0.10748633333333402,39,0.31573999999999813
11076,40.865737,50,0.15787000000000262,39,0.15786999999999551
11077,41.023607,52,0.15786999999999551,40,1.0479270000000014
11078,41.355502,48,0.33189500000000294,29,0.3426419999999979
11079,41.698144,48,0.3426419999999979,37,0.697890000000001
11080,42.071534,48,0.37339000000000055,40,0.32450000000000045
11081,42.233784,52,0.16225000000000023,39,0.16225000000000023
11082,42.396034,53,0.16225000000000023,39,0.31149400000000327
11083,42.551781,55,0.15574699999999808,39,0.1557470000000052
11084,42.707528,57,0.1557470000000052,40,0.33104799999999557
11085,42.8662415,58,0.1587134999999975,40,0.08616725000000258
11086,42.952408750000004,57,0.08616725000000258,39,0.043083624999994186
11087,42.995492375,58,0.043083624999994186,37,0.04308362500000129
11088,43.038576,57,0.04308362500000129,42,0.33001500000000306
11089,43.368591,55,0.33001500000000306,40,0.320923999999998
11090,43.529053000000005,53,0.16046200000000255,40,0.16046199999999544
11091,43.689515,52,0.16046199999999544,40,0.3209240000000051
11092,43.849977,50,0.16046200000000255,40,0.16046200000000255
11093,44.010439000000005,48,0.16046200000000255,40,0.1561604999999986
11094,44.166599500000004,52,0.1561604999999986,39,0.1561604999999986
11095,44.32276,52,0.1561604999999986,40,0.34162700000000257
11096,44.43663566666667,53,0.11387566666666515,39,0.11387566666666515
11097,44.55051133333333,52,0.11387566666666515,39,0.11387566666667226
11098,44.664387000000005,50,0.11387566666667226,39,0.32360700000000264
11099,44.8261905,48,0.16180349999999777,39,0.16180350000000487
11100,44.98799400000001,53,0.16180350000000487,40,1.3466670000000036
11101,45.32469400000001,45,0.33670000000000044,29,0.3540869999999998
11102,45.67878100000001,45,0.3540869999999998,37,0.3870470000000026
11103,46.06582800000001,44,0.3870470000000026,54,0.7168879999999973
11104,46.33466100000001,53,0.26883300000000077,58,0.08961099999999789
11105,46.42427200000001,54,0.08961099999999789,62,0.35844399999999865
11106,46.78271600000001,55,0.35844399999999865,55,0.7296499999999995
11107,47.15827900000001,58,0.37556299999999965,64,0.3540869999999998
11108,47.42384425000001,56,0.26556525000000164,60,0.08852174999999818
11109,47.51236600000001,51,0.08852174999999818,64,0.3540869999999998
11110,47.68940950000001,46,0.17704350000000346,47,0.17704349999999636
11111,47.86645300000001,51,0.17704349999999636,57,0.7319269999999989
11112,48.24548000000001,53,0.37902700000000067,64,0.3528999999999982
11113,48.510155000000005,53,0.2646749999999969,64,0.08822500000000133
11114,48.598380000000006,54,0.08822500000000133,69,0.3529000000000053
11115,48.95128000000001,55,0.3529000000000053,61,0.7216769999999997
11116,49.32005700000001,58,0.36877700000000146,71,0.6175750000000022
11117,49.58473200000001,56,0.2646749999999969,66,0.08822500000000133
11118,49.67295700000001,51,0.08822500000000133,71,0.734847000000002
11119,49.937632000000015,22,0.264675000000004,48,0.08822500000000133
11120,50.025857000000016,56,0.08822500000000133,81,0.3819469999999967
11121,50.40780400000001,61,0.3819469999999967,86,0.365713999999997
11122,50.68775950000001,61,0.2799554999999998,82,0.08575849999999718
11123,50.77351800000001,61,0.08575849999999718,85,0.3699140000000014
11124,51.14343200000001,61,0.3699140000000014,83,0.3699140000000014
11125,51.51334600000001,61,0.3699140000000014,86,0.1866369999999975
11126,51.79330150000001,61,0.2799554999999998,82,0.08575849999999718
11127,51.87906000000001,61,0.08575849999999718,85,0.3699140000000014
11128,52.15649550000001,40,0.27743550000000283,68,0.09247849999999858
11129,52.24897400000001,60,0.09247849999999858,83,0.3699140000000014
11130,52.61888800000001,60,0.3699140000000014,78,0.1866369999999975
11131,52.89884350000001,60,0.2799554999999998,73,0.08575849999999718
11132,52.98460200000001,60,0.08575849999999718,76,0.3699140000000014
11133,53.26203750000001,41,0.27743550000000283,58,0.09247849999999858
11134,53.35451600000001,58,0.09247849999999858,72,0.3802039999999991
11135,53.73472000000001,58,0.3802039999999991,70,0.1901020000000031
11136,54.01987300000001,58,0.2851530000000011,62,0.08771924999999925
11137,54.10759225000001,58,0.08771924999999925,64,0.376694999999998
11138,54.39011350000001,43,0.28252125000000206,45,0.09417374999999595
11139,54.48428725000001,56,0.09417374999999595,56,0.3961439999999996
11140,54.88043125000001,53,0.3961439999999996,61,0.3538989999999984
11141,55.14585550000001,53,0.26542425000000236,58,0.08847474999999605
11142,55.234330250000006,54,0.08847474999999605,62,0.3538989999999984
11143,55.588229250000005,55,0.3538989999999984,55,0.3819469999999967
11144,55.97017625,57,0.3819469999999967,64,0.3528999999999982
11145,56.23485125,56,0.2646749999999969,60,0.08822500000000133
11146,56.32307625,51,0.08822500000000133,64,0.3529000000000053
11147,56.587751250000004,45,0.264675000000004,47,0.08822500000000133
11148,56.675976250000005,51,0.08822500000000133,57,0.37902700000000067
11149,57.055003250000006,52,0.37902700000000067,68,0.3528999999999982
11150,57.31967825,52,0.2646749999999969,64,0.08822500000000133
11151,57.407903250000004,54,0.08822500000000133,69,0.3529000000000053
11152,57.76080325000001,55,0.3529000000000053,60,0.36877700000000146
11153,58.12958025000001,57,0.36877700000000146,74,0.3528999999999982
11154,58.39425525000001,56,0.2646749999999969,72,0.08822500000000133
11155,58.48248025000001,59,0.08822500000000133,75,0.36748899999999907
11156,58.75809700000001,25,0.2756167499999975,54,0.09187225000000154
11157,58.84996925000001,64,0.09187225000000154,89,0.389636000000003
11158,59.23960525000001,57,0.389636000000003,94,0.365713999999997
11159,59.51956075000001,57,0.2799554999999998,90,0.08575849999999718
11160,59.60531925000001,57,0.08575849999999718,93,0.3699140000000014
11161,59.97523325000001,57,0.3699140000000014,90,0.3699140000000014
11162,60.34514725000001,57,0.3699140000000014,93,0.1866369999999975
11163,60.62510275000001,57,0.2799554999999998,88,0.08575849999999718
11164,60.71086125000001,57,0.08575849999999718,91,0.3699140000000014
11165,60.98829675000001,37,0.27743550000000283,72,0.09247849999999858
11166,61.08077525000001,56,0.09247849999999858,88,0.3699140000000014
11167,61.45068925000001,56,0.3699140000000014,81,0.1866369999999975
11168,61.73064475000001,56,0.2799554999999998,76,0.08575849999999718
11169,61.81640325000001,56,0.08575849999999718,77,0.3699140000000014
11170,62.09383875000001,36,0.27743550000000283,63,0.09247849999999858
11171,62.18631725000001,54,0.09247849999999858,74,0.3802039999999991
11172,62.56652125000001,54,0.3802039999999991,72,0.1901020000000031
11173,62.85167425000001,54,0.2851530000000011,63,0.08771924999999925
11174,62.93939350000001,54,0.08771924999999925,65,0.7728389999999976
11175,63.22191475000001,39,0.28252125000000206,45,0.09417374999999595
11176,63.316088500000006,52,0.09417374999999595,56,0.3961439999999996
11177,63.712232500000006,53,0.3961439999999996,62,0.1441820000000007
11178,63.80835383333334,41,0.09612133333333617,56,0.09612133333332906
11179,63.90447516666667,53,0.09612133333332906,56,0.8064245833333388
11180,64.0005965,41,0.09612133333332906,66,0.3508980000000008
11181,64.3514945,53,0.3508980000000008,63,0.3594052500000089
11182,64.71089975000001,53,0.3594052500000089,66,0.1524854999999974
11183,64.81255675000001,41,0.101657000000003,59,0.101657000000003
11184,64.91421375000002,53,0.101657000000003,60,0.8222619999999807
11185,65.01587075,41,0.10165699999998878,70,0.5296314999999936
11186,65.35452875,36,0.33865799999999524,38,0.3819469999999967
11187,65.54550225,52,0.19097349999999835,64,0.19097349999999835
11188,65.73647575,53,0.19097349999999835,70,0.1438229999999976
11189,65.83235775,41,0.09588200000000313,63,0.09588200000000313
11190,65.92823975,53,0.09588200000000313,63,0.7897169999999818
11191,66.02412174999999,41,0.09588199999998892,74,0.33865799999999524
11192,66.36277974999999,53,0.33865799999999524,70,0.35517699999999763
11193,66.71795674999998,53,0.35517699999999763,74,0.1512934999999942
11194,66.81881908333332,41,0.10086233333333894,66,0.10086233333332473
11195,66.91968141666665,53,0.10086233333332473,67,0.79687633333333
11196,67.02054374999999,41,0.10086233333333894,78,0.5173360000000002
11197,67.35920174999998,36,0.33865799999999524,43,0.3573559999999958
11198,67.53787974999999,52,0.178678000000005,72,0.1786779999999908
11199,67.71655774999998,53,0.1786779999999908,78,0.14276200000000472
11200,67.81173241666664,41,0.09517466666666508,70,0.09517466666666508
11201,67.90690708333331,53,0.09517466666666508,70,0.8043461666666758
11202,68.00208174999997,41,0.09517466666666508,82,0.3477450000000033
11203,68.34982674999998,53,0.3477450000000033,76,0.3614265000000074
11204,68.71125324999998,53,0.3614265000000074,78,0.15116274999999746
11205,68.81250333333332,41,0.10125008333334051,70,0.0998253333333281
11206,68.91232866666665,53,0.0998253333333281,70,0.7969273333333291
11207,69.01215399999998,41,0.0998253333333281,82,0.517879999999991
11208,69.35081199999998,36,0.33865799999999524,44,0.35844400000000576
11209,69.53003399999997,52,0.17922199999999577,73,0.17922200000000998
11210,69.70925599999998,53,0.17922200000000998,78,0.15828650000000266
11211,69.81478033333332,41,0.10552433333333511,70,0.10552433333333511
11212,69.92030466666665,53,0.10552433333333511,70,0.8299353333333244
11213,70.02582899999999,41,0.10552433333333511,82,0.33865799999999524
11214,70.36448699999998,53,0.33865799999999524,76,0.385752999999994
11215,70.75023999999998,53,0.385752999999994,78,0.17132100000000605
11216,70.86445399999998,41,0.11421400000000403,70,0.11421399999998982
11217,70.97866799999997,53,0.11421399999998982,70,0.8814749999999947
11218,71.09288199999997,41,0.11421400000000403,82,0.569136499999999
11219,71.46389399999997,36,0.37101199999999324,44,0.3962489999999974
11220,71.66201849999997,52,0.1981245000000058,73,0.1981244999999916
11221,71.86014299999997,53,0.1981244999999916,62,0.1645460000000014
11222,71.9698403333333,41,0.10969733333332954,56,0.10969733333334375
11223,72.07953766666664,53,0.10969733333334375,56,0.8393893333333295
11224,72.18923499999997,41,0.10969733333332954,65,0.3477450000000033
11225,72.53697999999997,53,0.3477450000000033,61,0.3819469999999967
11226,72.91892699999997,53,0.3819469999999967,63,0.16046199999999544
11227,73.02590166666664,41,0.1069746666666731,57,0.10697466666665889
11228,73.1328763333333,53,0.10697466666665889,58,0.8126576666666807
11229,73.23985099999997,41,0.1069746666666731,68,0.5236550000000051
11230,73.58147799999998,36,0.34162700000000257,36,0.36405600000000504
11231,73.76350599999998,52,0.18202800000000252,61,0.18202800000000252
11232,73.94553399999998,53,0.18202800000000252,66,0.1524854999999974
11233,74.04719099999998,41,0.101657000000003,59,0.101657000000003
11234,74.14884799999999,53,0.101657000000003,59,0.8090088333333227
11235,74.25050499999998,41,0.10165699999998878,69,0.33865799999999524
11236,74.58916299999997,53,0.33865799999999524,65,0.3686938333333387
11237,74.95785683333331,53,0.3686938333333387,67,0.1678605000000033
11238,75.06976383333331,41,0.1119070000000022,60,0.1119070000000022
11239,75.18167083333331,53,0.1119070000000022,61,0.8404740000000004
11240,75.29357783333332,41,0.1119070000000022,72,0.5418719999999979
11241,75.64875483333331,36,0.35517699999999763,39,0.37339000000000055
11242,75.83544983333331,52,0.18669500000000028,64,0.18669500000000028
11243,76.02214483333331,53,0.18669500000000028,70,0.15828650000000266
11244,76.12766916666665,41,0.10552433333333511,63,0.10552433333333511
11245,76.23319349999998,53,0.10552433333333511,63,0.8015383333333261
11246,76.33871783333332,41,0.10552433333333511,73,0.33865799999999524
11247,76.67737583333331,53,0.33865799999999524,68,0.3573559999999958
11248,77.03473183333331,53,0.3573559999999958,70,0.16180350000000487
11249,77.1426008333333,41,0.10786899999999378,63,0.10786900000000799
11250,77.25046983333331,53,0.10786900000000799,63,0.8365369999999928
11251,77.3583388333333,41,0.10786899999999378,73,0.5376945000000006
11252,77.70505983333331,36,0.3467210000000023,39,0.3819469999999967
11253,77.8960333333333,52,0.19097349999999835,65,0.19097349999999835
11254,78.0870068333333,53,0.19097349999999835,70,0.1673825000000022
11255,78.19859516666664,41,0.11158833333333007,63,0.11158833333333007
11256,78.31018349999997,53,0.11158833333333007,62,0.8476223333333479
11257,78.42177183333331,41,0.11158833333334428,72,0.3540870000000069
11258,78.77585883333332,53,0.3540870000000069,64,0.3819469999999967
11259,79.15780583333331,53,0.3819469999999967,64,0.17439849999999524
11260,79.27407149999998,41,0.11626566666666349,57,0.11626566666666349
11261,79.39033716666664,53,0.11626566666666349,56,0.9034686666666829
11262,79.50660283333332,41,0.1162656666666777,65,0.377003000000002
11263,79.88360583333332,40,0.377003000000002,53,0.41020000000000323
11264,80.08870583333332,52,0.20510000000000161,56,0.20510000000000161
11265,80.29380583333332,48,0.20510000000000161,68,0.17031900000000633
11266,80.46412483333333,52,0.17031900000000633,70,0.17031899999999212
11267,80.63444383333332,53,0.17031899999999212,71,0.3090080000000057
11268,80.78894783333332,55,0.15450400000000286,71,0.15450400000000286
11269,80.94345183333333,57,0.15450400000000286,72,0.3332034999999962
11270,81.10173833333333,58,0.15828650000000266,73,0.08745849999999677
11271,81.18919683333333,57,0.08745849999999677,70,0.04372924999999839
11272,81.23292608333333,58,0.04372924999999839,68,0.04372924999999839
11273,81.27665533333332,57,0.04372924999999839,76,0.310654999999997
11274,81.58731033333332,55,0.310654999999997,74,0.3049709999999948
11275,81.73979583333332,53,0.1524854999999974,74,0.1524854999999974
11276,81.89228133333332,52,0.1524854999999974,73,0.304971000000009
11277,82.04476683333333,50,0.1524855000000116,72,0.1524854999999974
11278,82.19725233333332,48,0.1524854999999974,74,0.14973799999999926
11279,82.34699033333332,53,0.14973799999999926,70,0.14973799999999926
11280,82.49672833333332,53,0.14973799999999926,74,0.3165730000000053
11281,82.60225266666666,55,0.10552433333333511,70,0.10552433333333511
11282,82.707777,53,0.10552433333333511,70,0.10552433333333511
11283,82.81330133333333,52,0.10552433333333511,70,0.30737700000000245
11284,82.96698983333333,50,0.15368850000000123,70,0.15368850000000123
11285,83.12067833333333,52,0.15368850000000123,73,0.9976939999999956
11286,83.43810533333333,48,0.317426999999995,53,0.32724299999999573
11287,83.76534833333332,48,0.32724299999999573,68,0.3530240000000049
11288,84.11837233333333,48,0.3530240000000049,74,0.1512934999999942
11289,84.26966583333332,52,0.1512934999999942,70,0.1512935000000084
11290,84.42095933333333,53,0.1512935000000084,71,0.29492700000000127
11291,84.56842283333333,55,0.14746350000000064,71,0.14746350000000064
11292,84.71588633333333,57,0.14746350000000064,72,0.32043350000000714
11293,84.86796983333333,58,0.15208350000000337,73,0.08417500000000189
11294,84.95214483333334,57,0.08417500000000189,70,0.04208749999999384
11295,84.99423233333333,58,0.04208749999999384,68,0.04208750000000805
11296,85.03631983333334,57,0.04208750000000805,76,0.30657600000000684
11297,85.34289583333334,55,0.30657600000000684,74,0.2964280000000059
11298,85.49110983333334,53,0.14821399999999585,74,0.14821400000001006
11299,85.63932383333335,52,0.14821400000001006,73,0.2964279999999917
11300,85.78753783333335,50,0.14821399999999585,72,0.14821399999999585
11301,85.93575183333334,48,0.14821399999999585,74,0.14598549999999477
11302,86.08173733333334,52,0.14598549999999477,70,0.14598550000000898
11303,86.22772283333335,52,0.14598550000000898,74,0.31316900000000203
11304,86.33211250000001,53,0.1043896666666626,70,0.10438966666667682
11305,86.43650216666668,52,0.10438966666667682,70,0.1043896666666626
11306,86.54089183333335,50,0.1043896666666626,70,0.30576399999999637
11307,86.69377383333335,48,0.1528820000000053,70,0.15288199999999108
11308,86.84665583333334,53,0.15288199999999108,73,0.9997690000000148
11309,87.15982483333335,45,0.31316900000000203,53,0.328156000000007
11310,87.48798083333335,45,0.328156000000007,47,0.6595280000000088
11311,87.84642483333336,48,0.35844400000000576,40,0.1505420000000015
11312,87.99696683333336,52,0.1505420000000015,39,0.1505420000000015
11313,88.14750883333336,53,0.1505420000000015,39,0.294392000000002
11314,88.29470483333336,55,0.1471959999999939,39,0.1471960000000081
11315,88.44190083333336,57,0.1471960000000081,40,0.3218934999999874
11316,88.59397683333336,58,0.15207599999999388,40,0.08490874999999676
11317,88.67888558333335,57,0.08490874999999676,39,0.042454375000005484
11318,88.72133995833336,58,0.042454375000005484,37,0.04245437499999127
11319,88.76379433333335,57,0.04245437499999127,42,0.30959799999999404
11320,89.07339233333335,55,0.30959799999999404,40,0.2999250000000018
11321,89.22335483333335,53,0.1499625000000009,40,0.1499625000000009
11322,89.37331733333335,52,0.1499625000000009,40,0.2999250000000018
11323,89.52327983333335,50,0.1499625000000009,40,0.1499625000000009
11324,89.67324233333335,48,0.1499625000000009,40,0.1471959999999939
11325,89.82043833333334,53,0.1471959999999939,39,0.1471960000000081
11326,89.96763433333335,53,0.1471960000000081,40,0.3171080000000046
11327,90.07333700000002,55,0.10570266666667294,39,0.10570266666665873
11328,90.17903966666668,53,0.10570266666665873,39,0.10570266666667294
11329,90.28474233333336,52,0.10570266666667294,39,0.3104950000000031
11330,90.43998983333336,50,0.15524750000000154,39,0.15524750000000154
11331,90.59523733333336,52,0.15524750000000154,40,1.0177740000000028
11332,90.92155533333336,48,0.32631800000000055,29,0.33189500000000294
11333,91.25345033333336,48,0.33189500000000294,37,0.6606450000000024
11334,91.61301133333336,48,0.35956099999999935,40,0.301084000000003
11335,91.76355333333336,52,0.1505420000000015,39,0.1505420000000015
11336,91.91409533333336,53,0.1505420000000015,39,0.294392000000002
11337,92.06129133333336,55,0.1471959999999939,39,0.1471960000000081
11338,92.20848733333337,57,0.1471960000000081,40,0.32491699999999923
11339,92.36056333333336,58,0.15207599999999388,40,0.08642050000000268
11340,92.44698383333336,57,0.08642050000000268,39,0.04321025000000134
11341,92.49019408333336,58,0.04321025000000134,37,0.04321025000000134
11342,92.53340433333337,57,0.04321025000000134,42,0.30959799999999404
11343,92.84300233333336,55,0.30959799999999404,40,0.2999250000000018
11344,92.99296483333336,53,0.1499625000000009,40,0.1499625000000009
11345,93.14292733333336,52,0.1499625000000009,40,0.2999250000000018
11346,93.29288983333336,50,0.1499625000000009,40,0.1499625000000009
11347,93.44285233333336,48,0.1499625000000009,40,0.1471959999999939
11348,93.59004833333336,52,0.1471959999999939,39,0.1471960000000081
11349,93.73724433333336,52,0.1471960000000081,40,0.3171080000000046
11350,93.84294700000004,53,0.10570266666667294,39,0.10570266666665873
11351,93.9486496666667,52,0.10570266666665873,39,0.10570266666667294
11352,94.05435233333337,50,0.10570266666667294,39,0.3104950000000031
11353,94.20959983333337,48,0.15524750000000154,39,0.15524750000000154
11354,94.36484733333337,53,0.15524750000000154,40,0.9921030000000144
11355,94.68534333333338,45,0.32049600000000567,29,0.32488600000000645
11356,95.01022933333338,45,0.32488600000000645,37,0.3467210000000023
11357,95.35695033333339,43,0.3467210000000023,73,0.1470949999999931
11358,95.50404533333338,47,0.1470949999999931,70,0.1470950000000073
11359,95.65114033333339,48,0.1470950000000073,71,0.2876459999999952
11360,95.79496333333338,50,0.1438229999999976,71,0.1438229999999976
11361,95.93878633333338,52,0.1438229999999976,72,0.31360349999999926
11362,96.08738233333338,53,0.14859599999999773,73,0.08250375000000076
11363,96.16988608333338,52,0.08250375000000076,70,0.04125187500000038
11364,96.21113795833338,53,0.04125187500000038,68,0.04125187500000038
11365,96.25238983333338,52,0.04125187500000038,76,0.302496000000005
11366,96.55488583333339,50,0.302496000000005,74,0.29304000000000485
11367,96.70140583333338,48,0.14651999999999532,74,0.14652000000000953
11368,96.84792583333339,47,0.14652000000000953,73,0.29303999999999064
11369,96.99444583333339,45,0.14651999999999532,72,0.14651999999999532
11370,97.14096583333338,43,0.14651999999999532,74,0.1438229999999976
11371,97.28478883333338,48,0.1438229999999976,70,0.1438229999999976
11372,97.42861183333338,48,0.1438229999999976,74,0.3098370000000017
11373,97.53189083333338,50,0.10327900000000056,70,0.10327900000000056
11374,97.63516983333338,48,0.10327900000000056,70,0.10327900000000056
11375,97.73844883333338,47,0.10327900000000056,70,0.3033829999999966
11376,97.89014033333338,45,0.1516914999999983,70,0.1516914999999983
11377,98.04183183333338,47,0.1516914999999983,73,0.9894820000000095
11378,98.35500083333338,43,0.31316900000000203,53,0.32541500000000667
11379,98.68041583333338,43,0.32541500000000667,68,0.3508980000000008
11380,99.03131383333339,43,0.3508980000000008,74,0.1470949999999931
11381,99.17840883333338,47,0.1470949999999931,70,0.1470950000000073
11382,99.32550383333339,48,0.1470950000000073,71,0.2876459999999952
11383,99.46932683333338,50,0.1438229999999976,71,0.1438229999999976
11384,99.61314983333338,52,0.1438229999999976,72,0.3122175000000027
11385,99.76174583333338,53,0.14859599999999773,73,0.08181075000000249
11386,99.84355658333338,52,0.08181075000000249,70,0.04090537499999414
11387,99.88446195833338,53,0.04090537499999414,68,0.04090537500000835
11388,99.92536733333338,52,0.04090537500000835,76,0.302496000000005
11389,100.22786333333339,50,0.302496000000005,74,0.29304000000000485
11390,100.37438333333338,48,0.14651999999999532,74,0.14652000000000953
11391,100.5209033333334,47,0.14652000000000953,73,0.29303999999999064
11392,100.66742333333339,45,0.14651999999999532,72,0.14651999999999532
11393,100.81394333333338,43,0.14651999999999532,74,0.1438229999999976
11394,100.95776633333338,47,0.1438229999999976,70,0.1438229999999976
11395,101.10158933333338,47,0.1438229999999976,74,0.3098370000000017
11396,101.20486833333338,48,0.10327900000000056,70,0.10327900000000056
11397,101.30814733333338,47,0.10327900000000056,70,0.10327900000000056
11398,101.41142633333338,45,0.10327900000000056,70,0.3033829999999966
11399,101.56311783333338,43,0.1516914999999983,70,0.1516914999999983
11400,101.71480933333338,48,0.1516914999999983,73,0.9904380000000117
11401,102.03311133333338,40,0.31830200000000275,53,0.32541500000000667
11402,102.35852633333339,40,0.32541500000000667,47,0.6483190000000008
11403,102.70524733333339,43,0.3467210000000023,40,0.15079900000000634
11404,102.8560463333334,47,0.15079900000000634,39,0.15079899999999213
11405,103.00684533333339,48,0.15079899999999213,39,0.29489800000000344
11406,103.15429433333338,50,0.1474489999999946,39,0.14744900000000882
11407,103.30174333333339,52,0.14744900000000882,40,0.31972100000000125
11408,103.45408183333339,53,0.15233849999999904,40,0.0836912500000011
11409,103.53777308333339,52,0.0836912500000011,39,0.04184562499999345
11410,103.57961870833338,53,0.04184562499999345,37,0.04184562500000766
11411,103.62146433333339,52,0.04184562500000766,42,0.31010999999999456
11412,103.93157433333339,50,0.31010999999999456,40,0.3004360000000048
11413,104.08179233333338,48,0.1502179999999953,40,0.1502180000000095
11414,104.23201033333339,47,0.1502180000000095,40,0.3004359999999906
11415,104.38222833333339,45,0.1502179999999953,40,0.1502179999999953
11416,104.53244633333338,43,0.1502179999999953,40,0.1474489999999946
11417,104.67989533333338,48,0.1474489999999946,39,0.14744900000000882
11418,104.82734433333339,48,0.14744900000000882,40,0.31764499999999884
11419,104.93322600000005,50,0.10588166666666154,39,0.10588166666667576
11420,105.03910766666672,48,0.10588166666667576,39,0.10588166666666154
11421,105.14498933333338,47,0.10588166666666154,39,0.31102599999999825
11422,105.30050233333338,45,0.15551299999999912,39,0.15551299999999912
11423,105.45601533333338,47,0.15551299999999912,40,1.0096089999999975
11424,105.77705933333338,43,0.32104400000000055,29,0.33766699999999616
11425,106.11472633333338,43,0.33766699999999616,37,0.6590960000000052
11426,106.46562433333338,43,0.3508980000000008,40,0.3081980000000044
11427,106.61972333333338,47,0.1540990000000022,39,0.1540990000000022
11428,106.77382233333338,48,0.1540990000000022,39,0.2994759999999985
11429,106.92356033333338,50,0.14973799999999926,39,0.14973799999999926
11430,107.07329833333338,52,0.14973799999999926,40,0.3213449999999938
11431,107.22821683333338,53,0.15491849999999374,40,0.08321325000000002
11432,107.31143008333338,52,0.08321325000000002,39,0.04160662500000001
11433,107.35303670833338,53,0.04160662500000001,37,0.04160662500000001
11434,107.39464333333338,52,0.04160662500000001,42,0.31400499999999454
11435,107.70864833333337,50,0.31400499999999454,40,0.30576399999999637
11436,107.86153033333338,48,0.1528820000000053,40,0.15288199999999108
11437,108.01441233333337,47,0.15288199999999108,40,0.3057640000000106
11438,108.16729433333337,45,0.1528820000000053,40,0.1528820000000053
11439,108.32017633333338,43,0.1528820000000053,40,0.15012749999999642
11440,108.47030383333338,47,0.15012749999999642,39,0.15012750000001063
11441,108.62043133333339,47,0.15012750000001063,40,0.32724299999999573
11442,108.72951233333339,48,0.10908100000000331,39,0.10908100000000331
11443,108.83859333333339,47,0.10908100000000331,39,0.1090809999999891
11444,108.94767433333338,45,0.1090809999999891,39,0.3165730000000053
11445,109.10596083333338,43,0.15828650000000266,39,0.15828650000000266
11446,109.26424733333339,48,0.15828650000000266,40,1.1698279999999954
11447,109.59149033333338,40,0.32724299999999573,37,0.3477450000000033
11448,109.93923533333339,40,0.3477450000000033,73,0.3477450000000033
11449,110.28698033333339,45,0.3477450000000033,78,0.2941900000000004
11450,110.43407533333338,52,0.1470949999999931,80,0.1470950000000073
11451,110.58117033333339,53,0.1470950000000073,81,0.2876459999999952
11452,110.72499333333339,55,0.1438229999999976,81,0.1438229999999976
11453,110.86881633333338,57,0.1438229999999976,82,0.3122175000000027
11454,111.01741233333338,58,0.14859599999999773,83,0.08181075000000249
11455,111.09922308333338,57,0.08181075000000249,80,0.04090537499999414
11456,111.14012845833338,58,0.04090537499999414,78,0.04090537500000835
11457,111.18103383333339,57,0.04090537500000835,87,0.302496000000005
11458,111.48352983333339,55,0.302496000000005,85,0.29304000000000485
11459,111.63004983333339,53,0.14651999999999532,85,0.14652000000000953
11460,111.7765698333334,52,0.14652000000000953,83,0.29303999999999064
11461,111.92308983333339,50,0.14651999999999532,82,0.14651999999999532
11462,112.06960983333339,48,0.14651999999999532,85,0.1438229999999976
11463,112.21343283333339,53,0.1438229999999976,80,0.1438229999999976
11464,112.35725583333338,53,0.1438229999999976,85,0.3098370000000017
11465,112.46053483333338,55,0.10327900000000056,80,0.10327900000000056
11466,112.56381383333338,53,0.10327900000000056,80,0.10327900000000056
11467,112.66709283333338,52,0.10327900000000056,80,0.3033829999999966
11468,112.81878433333338,50,0.1516914999999983,80,0.1516914999999983
11469,112.97047583333338,52,0.1516914999999983,83,0.9991559999999993
11470,113.28790283333338,48,0.317426999999995,60,0.33189500000000294
11471,113.61979783333338,48,0.33189500000000294,78,0.3498340000000013
11472,113.96963183333338,48,0.3498340000000013,85,0.1470949999999931
11473,114.11672683333337,52,0.1470949999999931,80,0.1470950000000073
11474,114.26382183333338,53,0.1470950000000073,81,0.2876459999999952
11475,114.40764483333338,55,0.1438229999999976,81,0.1438229999999976
11476,114.55146783333338,57,0.1438229999999976,82,0.3122175000000027
11477,114.70006383333337,58,0.14859599999999773,83,0.08181075000000249
11478,114.78187458333338,57,0.08181075000000249,80,0.04090537499999414
11479,114.82277995833337,58,0.04090537499999414,78,0.04090537500000835
11480,114.86368533333338,57,0.04090537500000835,87,0.302496000000005
11481,115.16618133333338,55,0.302496000000005,85,0.29304000000000485
11482,115.31270133333338,53,0.14651999999999532,85,0.14652000000000953
11483,115.45922133333339,52,0.14652000000000953,83,0.29303999999999064
11484,115.60574133333338,50,0.14651999999999532,82,0.14651999999999532
11485,115.75226133333338,48,0.14651999999999532,85,0.1438229999999976
11486,115.89608433333338,52,0.1438229999999976,80,0.1438229999999976
11487,116.03990733333337,52,0.1438229999999976,85,0.3098370000000017
11488,116.14318633333338,53,0.10327900000000056,80,0.10327900000000056
11489,116.24646533333338,52,0.10327900000000056,80,0.10327900000000056
11490,116.34974433333338,50,0.10327900000000056,80,0.3033829999999966
11491,116.50143583333337,48,0.1516914999999983,80,0.1516914999999983
11492,116.65312733333337,53,0.1516914999999983,83,0.9715920000000153
11493,116.96629633333337,45,0.31316900000000203,60,0.3227020000000067
11494,117.28899833333338,45,0.3227020000000067,54,0.6418900000000036
11495,117.62471933333339,48,0.3357210000000066,40,0.15308450000000562
11496,117.7778038333334,52,0.15308450000000562,39,0.1530844999999914
11497,117.93088833333339,53,0.1530844999999914,39,0.2993709999999936
11498,118.08057383333339,55,0.1496855000000039,39,0.1496854999999897
11499,118.23025933333338,57,0.1496854999999897,40,0.32956399999999064
11500,118.38490633333338,58,0.1546469999999971,40,0.08745849999999677
11501,118.47236483333337,57,0.08745849999999677,39,0.04372924999999839
11502,118.51609408333337,58,0.04372924999999839,37,0.04372924999999839
11503,118.55982333333337,57,0.04372924999999839,42,0.31482800000000566
11504,118.87465133333338,55,0.31482800000000566,40,0.304986999999997
11505,119.02714483333338,53,0.1524935000000056,40,0.1524934999999914
11506,119.17963833333337,52,0.1524934999999914,40,0.304986999999997
11507,119.33213183333338,50,0.1524935000000056,40,0.1524934999999914
11508,119.48462533333337,48,0.1524934999999914,40,0.1496855000000039
11509,119.63431083333337,53,0.1496855000000039,39,0.1496854999999897
11510,119.78399633333336,53,0.1496854999999897,40,0.32245899999999494
11511,119.89148266666669,55,0.10748633333332691,39,0.10748633333334112
11512,119.99896900000003,53,0.10748633333334112,39,0.10748633333332691
11513,120.10645533333336,52,0.10748633333332691,39,0.31574000000000524
11514,120.26432533333336,50,0.15787000000000262,39,0.15787000000000262
11515,120.42219533333336,52,0.15787000000000262,40,1.0595500000000015
11516,120.75504833333336,48,0.33285300000000007,29,0.3508980000000008
11517,121.10594633333336,48,0.3508980000000008,37,0.6994059999999962
11518,121.48174533333336,48,0.37579900000000066,40,0.32360699999999554
11519,121.64354883333337,52,0.16180350000000487,39,0.16180349999999066
11520,121.80535233333336,53,0.16180349999999066,39,0.310654999999997
11521,121.96067983333336,55,0.1553274999999985,39,0.1553274999999985
11522,122.11600733333336,57,0.1553274999999985,40,0.33003450000001067
11523,122.27472083333336,58,0.15871350000000461,40,0.08566050000000303
11524,122.36038133333336,57,0.08566050000000303,39,0.04283024999999441
11525,122.40321158333336,58,0.04283024999999441,37,0.04283025000000862
11526,122.44604183333337,57,0.04283025000000862,42,0.3290920000000028
11527,122.77513383333337,55,0.3290920000000028,40,0.3209240000000051
11528,122.93559583333337,53,0.16046199999999544,40,0.16046200000000965
11529,123.09605783333338,52,0.16046200000000965,40,0.3209239999999909
11530,123.25651983333337,50,0.16046199999999544,40,0.16046199999999544
11531,123.41698183333337,48,0.16046199999999544,40,0.1557470000000052
11532,123.57272883333337,52,0.1557470000000052,39,0.15574699999999098
11533,123.72847583333336,52,0.15574699999999098,40,0.35844400000000576
11534,123.8479571666667,53,0.11948133333333999,39,0.11948133333332578
11535,123.96743850000003,52,0.11948133333332578,39,0.11948133333333999
11536,124.08691983333337,50,0.11948133333333999,39,0.33189500000000294
11537,124.25286733333337,48,0.16594750000000147,39,0.16594750000000147
11538,124.41881483333337,53,0.16594750000000147,40,1.0749679999999984
11539,124.76145683333337,45,0.3426419999999979,29,0.3540870000000069
11540,125.11554383333338,45,0.3540870000000069,37,0.37823899999999355
11541,125.49378283333337,45,0.37823899999999355,47,0.9765775000000048
11542,125.65998783333337,48,0.16620500000000504,45,0.16620499999999083
11543,125.82619283333337,48,0.16620499999999083,49,0.31629850000000204
11544,125.94683633333337,50,0.1206434999999999,41,0.040214500000004705
11545,125.98705083333337,48,0.040214500000004705,46,0.15544049999999743
11546,126.14249133333337,47,0.15544049999999743,46,0.32786900000000685
11547,126.30642583333336,43,0.16393449999999632,45,0.16393450000001053
11548,126.47036033333337,43,0.16393450000001053,50,0.9793789999999944
11549,126.63702683333338,46,0.16666650000000516,47,0.16666649999999095
11550,126.80369333333337,46,0.16666649999999095,51,0.31546699999999817
11551,126.92401433333337,48,0.12032100000000412,43,0.0401069999999919
11552,126.96412133333337,46,0.0401069999999919,48,0.15503900000000215
11553,127.11916033333337,45,0.15503900000000215,48,0.3305790000000002
11554,127.28444983333337,41,0.1652895000000001,43,0.1652895000000001
11555,127.44973933333337,45,0.1652895000000001,50,0.9501200000000125
11556,127.61278283333337,48,0.16304350000000056,48,0.16304350000000056
11557,127.77582633333337,48,0.16304350000000056,52,0.30058300000000315
11558,127.89150745833336,50,0.11568112499999472,44,0.03856037500000298
11559,127.93006783333337,48,0.03856037500000298,48,0.14634150000000545
11560,128.07640933333337,47,0.14634150000000545,48,0.32345000000000823
11561,128.23813433333336,43,0.1617249999999899,44,0.16172500000001833
11562,128.39985933333338,43,0.16172500000001833,53,0.9488534166666795
11563,128.56334683333338,46,0.16348750000000223,50,0.16348750000000223
11564,128.7268343333334,46,0.16348750000000223,53,0.29842841666666686
11565,128.84226412500007,48,0.11542979166668488,46,0.03807112499998766
11566,128.88033525000006,46,0.03807112499998766,50,0.14492749999999432
11567,129.02526275000005,45,0.14492749999999432,51,0.32345000000000823
11568,129.18698775000004,41,0.1617249999999899,44,0.16172500000001833
11569,129.34871275000006,41,0.16172500000001833,53,0.9199110000000132
11570,129.50962225000006,45,0.16090950000000248,51,0.16090950000000248
11571,129.67053175000007,45,0.16090950000000248,55,0.2888140000000021
11572,129.78459437500007,46,0.11406262500000253,46,0.03802087500000084
11573,129.82261525000007,45,0.03802087500000084,51,0.13673049999999876
11574,129.95934575000007,43,0.13673049999999876,51,0.30927800000000616
11575,130.11398475000007,38,0.15463900000000308,46,0.15463900000000308
11576,130.26862375000007,40,0.15463900000000308,55,0.9185390000000382
11577,130.42610425000007,43,0.15748049999999125,52,0.15748050000001967
11578,130.58358475000009,43,0.15748050000001967,55,0.28615100000001803
11579,130.69588825000008,45,0.11230349999999589,47,0.03743450000001758
11580,130.7333227500001,43,0.03743450000001758,52,0.13641300000000456
11581,130.8697357500001,41,0.13641300000000456,52,0.31742700000000923
11582,131.0284492500001,36,0.15871350000000461,46,0.15871350000000461
11583,131.1871627500001,41,0.15871350000000461,53,0.8958669999999813
11584,131.3426032500001,45,0.15544049999999743,51,0.15544049999999743
11585,131.4980437500001,45,0.15544049999999743,54,0.27181699999999864
11586,131.6059575000001,46,0.10791374999999448,45,0.03597125000001711
11587,131.64192875000012,45,0.03597125000001711,50,0.12793199999998706
11588,131.7698607500001,43,0.12793199999998706,49,0.3131689999999878
11589,131.9264452500001,38,0.15658450000000812,45,0.1565844999999797
11590,132.0830297500001,40,0.1565844999999797,53,0.8895739999999819
11591,132.2353142500001,43,0.15228450000000748,50,0.15228449999997906
11592,132.38759875000008,43,0.15228449999997906,52,0.27888300000000754
11593,132.5001943750001,45,0.11259562500001152,45,0.03753187499998489
11594,132.53772625000008,43,0.03753187499998489,49,0.12875550000001112
11595,132.6664817500001,41,0.12875550000001112,49,0.3061219999999878
11596,132.8195427500001,36,0.1530610000000081,41,0.15306099999997969
11597,132.97260375000008,33,0.15306099999997969,44,0.8822590000000048
11598,133.1268452500001,36,0.1542415000000119,42,0.1542414999999835
11599,133.28108675000007,36,0.1542414999999835,45,0.273775999999998
11600,133.39247300000008,38,0.11138625000000957,38,0.037128749999993715
11601,133.42960175000007,36,0.037128749999993715,41,0.12526099999999474
11602,133.55486275000007,35,0.12526099999999474,41,0.30000000000001137
11603,133.70486275000007,31,0.15000000000000568,35,0.15000000000000568
11604,133.85486275000008,31,0.15000000000000568,44,0.8750550000000032
11605,134.00753475000008,34,0.15267199999999548,41,0.15267199999999548
11606,134.16020675000007,34,0.15267199999999548,44,0.2726810000000057
11607,134.27077175000008,36,0.11056500000000824,37,0.03685500000000275
11608,134.30762675000008,34,0.03685500000000275,41,0.12526099999999474
11609,134.43288775000008,33,0.12526099999999474,40,0.29703000000000657
11610,134.58140275000008,29,0.14851500000000328,34,0.14851500000000328
11611,134.72991775000008,33,0.14851500000000328,36,0.9042270000000201
11612,134.8885637500001,36,0.1586460000000045,35,0.1586460000000045
11613,135.0472097500001,36,0.1586460000000045,38,0.27876900000001115
11614,135.15909437500008,38,0.11188462499998764,31,0.03729487500001483
11615,135.1963892500001,36,0.03729487500001483,34,0.12958950000000868
11616,135.3259787500001,35,0.12958950000000868,34,0.30816599999999994
11617,135.48006175000012,31,0.15408300000001418,30,0.15408299999998576
11618,135.6341447500001,31,0.15408299999998576,37,0.9399209999999982
11619,135.79834825000012,34,0.1642035000000135,34,0.16420349999998507
11620,135.9625517500001,34,0.16420349999998507,37,0.29287400000001185
11621,136.0815362500001,36,0.11898450000001048,31,0.03966149999999402
11622,136.1211977500001,34,0.03966149999999402,34,0.13422800000000734
11623,136.25542575000011,33,0.13422800000000734,34,0.3186399999999878
11624,136.41474575000012,29,0.15932000000000812,30,0.1593199999999797
11625,136.5740657500001,36,0.1593199999999797,46,0.358208999999988
11626,136.9322747500001,48,0.358208999999988,49,0.3570863625000129
11627,137.2893611125001,53,0.3570863625000129,48,3.6920345937499235
11628,137.46282311666675,60,0.1734620041666517,49,0.17207676666666316
11629,137.63489988333342,65,0.17207676666666316,51,0.08816085624999914
11630,137.81358038125006,69,0.17868049791664475,53,0.09296959791666382
11631,138.00214652916674,71,0.18856614791667425,55,0.09833332291665897
11632,138.20175680000006,72,0.19961027083331828,57,0.10435380208329548
11633,138.41383917083334,74,0.2120823708332864,59,0.11393354166671088
11634,138.65081170625,76,0.23697253541666896,62,0.17301050000000373
11635,138.99683270625002,77,0.34602100000000746,64,1.9845630000000085
11636,0.0009363291666666668,37,0.0,41,0.4493945270833334
11637,0.44943800000000006,36,0.44850167083333337,29,0.07142850000000006
11638,0.5208665000000001,37,0.07142850000000006,31,0.0714284999999999
11639,0.592295,40,0.0714284999999999,33,0.07142850000000012
11640,0.6637235000000001,44,0.07142850000000012,37,0.11363625
11641,1.1182685,36,0.454545,29,0.07142850000000012
11642,1.1896970000000002,37,0.07142850000000012,31,0.0714284999999999
11643,1.2611255000000001,40,0.0714284999999999,32,0.0714284999999999
11644,1.332554,44,0.0714284999999999,37,0.11278199999999994
11645,2.685938,37,1.3533840000000001,100,0.09375
11646,3.248438,69,0.5625,92,1.125
11647,4.373438,66,1.125,61,0.28125
11648,4.654688,68,0.28125,68,0.09375
11649,4.748438,69,0.09375,71,0.20408150000000003
11650,4.9525195,68,0.20408150000000003,68,0.20408150000000003
11651,5.3606825,24,0.40816300000000005,27,0.06802716666666697
11652,5.428709666666667,37,0.06802716666666697,29,0.06802716666666608
11653,5.496736833333333,40,0.06802716666666608,30,0.06802716666666697
11654,5.564764,44,0.06802716666666697,35,0.10204075000000046
11655,5.972927,36,0.40816300000000005,27,0.06802716666666697
11656,6.040954166666667,37,0.06802716666666697,29,0.06802716666666608
11657,6.108981333333333,28,0.06802716666666608,30,0.06802716666666697
11658,6.1770085,44,0.06802716666666697,35,0.09433950000000024
11659,7.309082500000001,35,1.1320740000000002,100,0.08695650000000033
11660,7.787343250000001,35,0.47826075000000046,72,1.08695625
11661,7.809082375000001,44,0.02173912499999986,76,1.0652171250000002
11662,7.830821500000001,71,0.02173912499999986,90,1.0434780000000003
11663,8.874299500000001,66,1.0434780000000003,60,0.2608695000000001
11664,9.135169000000001,63,0.2608695000000001,65,0.09063450000000017
11665,9.225803500000001,69,0.09063450000000017,70,0.19354850000000035
11666,9.419352000000002,64,0.19354850000000035,67,0.17391300000000065
11667,9.941091000000002,48,0.5217390000000002,81,0.3478259999999995
11668,10.462830000000002,36,0.5217390000000002,81,0.3785489999999996
11669,11.030653500000001,20,0.5678234999999994,94,1.381579499999999
11670,12.412233,21,1.381579499999999,97,0.1480263750000006
11671,14.404974000000001,36,1.9927410000000005,27,0.06896549999999912
11672,14.4739395,37,0.06896549999999912,29,0.0689655000000009
11673,14.542905000000001,40,0.0689655000000009,30,0.06896549999999912
11674,14.6118705,44,0.06896549999999912,34,0.10344825000000135
11675,15.0256635,36,0.4137930000000001,29,0.0689655000000009
11676,15.094629000000001,37,0.0689655000000009,30,0.06896549999999912
11677,15.1635945,40,0.06896549999999912,31,0.0689655000000009
11678,15.232560000000001,44,0.0689655000000009,36,0.10344824999999958
11679,16.473939,37,1.2413790000000002,100,0.09375
11680,17.036439,73,0.5625,92,0.84375
11681,17.880189,63,0.84375,58,0.09375
11682,17.973939,66,0.09375,58,0.1875
11683,18.161439,66,0.1875,61,0.28125
11684,18.442689,68,0.28125,68,0.09375
11685,18.536439,69,0.09375,71,0.20408150000000091
11686,18.740520500000002,68,0.20408150000000091,68,0.20408150000000091
11687,19.1486835,36,0.4081629999999983,29,0.06802716666666697
11688,19.216710666666668,37,0.06802716666666697,30,0.06802716666666697
11689,19.284737833333335,40,0.06802716666666697,32,0.06802716666666697
11690,19.352765,44,0.06802716666666697,37,0.10204075000000046
11691,19.760928,36,0.4081629999999983,29,0.06802716666666697
11692,19.828955166666667,37,0.06802716666666697,30,0.06802716666666697
11693,19.896982333333334,40,0.06802716666666697,32,0.06802716666666697
11694,19.9650095,44,0.06802716666666697,37,0.09433950000000024
11695,21.032439500000002,27,1.0674300000000017,100,0.08356549999999885
11696,21.533832500000003,71,0.5013930000000002,90,1.0027860000000004
11697,22.536618500000003,70,1.0027860000000004,60,0.2506965000000001
11698,22.787315000000003,67,0.2506965000000001,65,0.09063450000000017
11699,22.877949500000003,73,0.09063450000000017,70,0.19354849999999857
11700,23.071498000000002,68,0.19354849999999857,67,0.17391299999999887
11701,23.593237000000002,59,0.5217390000000002,81,0.3625380000000007
11702,24.137044000000003,44,0.543807000000001,81,0.4225349999999999
11703,24.770846500000005,19,0.6338025000000016,94,1.3815795000000008
11704,26.152426000000006,20,1.3815795000000008,97,0.1480263750000006
11705,27.731374000000006,80,1.5789480000000005,97,0.9574570000000016
11706,28.237703000000007,35,0.5063290000000009,45,0.22556399999999854
11707,28.463267000000005,32,0.22556399999999854,53,0.2255640000000021
11708,28.688831000000008,78,0.2255640000000021,68,0.0884955000000005
11709,28.777326500000008,76,0.0884955000000005,62,0.0884955000000005
11710,28.86582200000001,71,0.0884955000000005,65,0.17699099999999746
11711,28.95431750000001,68,0.0884955000000005,59,0.08849549999999695
11712,29.042813000000006,66,0.08849549999999695,62,0.176991000000001
11713,29.131308500000006,64,0.0884955000000005,57,0.0884955000000005
11714,29.219804000000007,59,0.0884955000000005,58,0.0884955000000005
11715,29.308299500000007,56,0.0884955000000005,53,0.0884955000000005
11716,29.396795000000008,54,0.0884955000000005,55,0.0884955000000005
11717,29.48529050000001,52,0.0884955000000005,51,0.0884955000000005
11718,29.57378600000001,47,0.0884955000000005,52,0.17699099999999746
11719,30.10475900000001,51,0.5309729999999995,55,0.0888452500000021
11720,30.19360425000001,52,0.0888452500000021,52,0.08919741666666425
11721,30.282801666666675,54,0.08919741666666425,50,0.08964158333333216
11722,30.372443250000007,56,0.08964158333333216,47,0.09000008333333298
11723,30.46244333333334,57,0.09000008333333298,45,0.09045250000000138
11724,30.547608820833343,59,0.08516548750000297,42,0.09081300833333117
11725,30.64374098333334,60,0.09613216249999823,40,0.21818199999999877
11726,30.86192298333334,45,0.21818199999999877,35,0.1973684999999996
11727,31.05929148333334,39,0.1973684999999996,31,0.09868425000000158
11728,31.25665998333334,60,0.1973684999999996,50,0.09027100000000132
11729,31.34693098333334,59,0.09027100000000132,49,0.08991016666666596
11730,31.436841150000006,58,0.08991016666666596,47,0.08946341666666413
11731,31.52630456666667,57,0.08946341666666413,46,0.08910908333333367
11732,31.615413650000004,56,0.08910908333333367,44,0.08867016666666672
11733,31.70408381666667,55,0.08867016666666672,42,0.08829612500000295
11734,31.792379941666674,54,0.08829612500000295,41,0.21505400000000208
11735,32.007433941666676,35,0.21505400000000208,32,0.19736850000000317
11736,32.20480244166668,35,0.19736850000000317,28,0.09868424999999803
11737,32.402170941666675,80,0.19736849999999606,97,0.8721809999999977
11738,32.85329894166667,35,0.4511279999999971,45,0.21052650000000028
11739,33.06382544166667,32,0.21052650000000028,53,0.21052650000000028
11740,33.27435194166667,78,0.21052650000000028,68,0.0867052500000014
11741,33.361057191666674,76,0.0867052500000014,60,0.0867052500000014
11742,33.447762441666676,71,0.0867052500000014,65,0.1734104999999957
11743,33.53446769166667,68,0.0867052499999943,58,0.0867052500000014
11744,33.62117294166667,66,0.0867052500000014,62,0.1734105000000028
11745,33.70787819166667,64,0.0867052500000014,57,0.0867052500000014
11746,33.794583441666674,59,0.0867052500000014,58,0.0867052500000014
11747,33.881288691666676,56,0.0867052500000014,53,0.0867052499999943
11748,33.96799394166667,54,0.0867052499999943,55,0.0867052500000014
11749,34.05469919166667,52,0.0867052500000014,49,0.0867052500000014
11750,34.14140444166667,47,0.0867052500000014,52,0.1729105000000004
11751,34.660135941666674,51,0.5187315000000012,42,0.5342147416666663
11752,34.748414566666675,52,0.08827862500000094,41,0.08856536666666415
11753,34.83697993333334,54,0.08856536666666415,41,0.08887157500000598
11754,34.925851508333345,56,0.08887157500000598,40,0.08917974999999956
11755,35.015031258333345,57,0.08917974999999956,39,0.08949006666666293
11756,35.09929744375001,59,0.08426618541666642,38,0.08979798958333163
11757,35.19435068333334,60,0.09505323958332923,37,0.08982025000000249
11758,35.28417093333334,40,0.08982025000000249,32,0.08982024999999538
11759,35.37399118333334,42,0.08982024999999538,32,0.08982025000000249
11760,35.46381143333334,44,0.08982025000000249,32,0.08982025000000249
11761,35.55363168333334,45,0.08982025000000249,32,0.08982024999999538
11762,35.64345193333334,47,0.08982024999999538,32,0.08982025000000249
11763,35.73327218333334,60,0.08982025000000249,42,0.08823524999999677
11764,35.82150743333334,59,0.08823524999999677,41,0.08823525000000387
11765,35.90974268333334,58,0.08823525000000387,40,0.08823524999999677
11766,35.99797793333334,57,0.08823524999999677,39,0.08823525000000387
11767,36.08621318333334,56,0.08823525000000387,37,0.08823524999999677
11768,36.17444843333334,55,0.08823524999999677,36,0.08823525000000387
11769,36.26268368333334,54,0.08823525000000387,35,0.09402005000001168
11770,36.356703733333354,35,0.09402005000001168,29,0.09659347499999882
11771,36.45329720833335,34,0.09659347499999882,28,0.09934432499999701
11772,36.55264153333335,33,0.09934432499999701,27,0.10230371666666827
11773,36.65494525000002,32,0.10230371666666827,26,0.10535740833334017
11774,36.76030265833336,30,0.10535740833334017,25,0.10866498333332686
11775,36.868967641666686,56,0.10866498333332686,59,1.4124323999999788
11776,36.985246641666684,35,0.11627899999999869,28,0.11627899999999869
11777,37.10152564166668,40,0.11627899999999869,30,0.1162790000000058
11778,37.21780464166669,44,0.1162790000000058,34,0.11627899999999869
11779,37.33408364166669,40,0.11627899999999869,31,0.11627899999999869
11780,37.450362641666686,35,0.11627899999999869,30,0.11627899999999869
11781,37.566641641666685,28,0.11627899999999869,28,0.11627899999999869
11782,37.68292064166668,38,0.11627899999999869,28,0.11627899999999869
11783,37.79919964166668,54,0.11627899999999869,53,0.3539951499999816
11784,37.915570658333344,44,0.11637101666666183,31,0.11797283333332587
11785,38.03354349166667,40,0.11797283333332587,30,0.11965129999999391
11786,38.153194791666664,52,0.11965129999999391,52,0.1282052500000006
11787,38.281400041666664,52,0.1282052500000006,54,0.694980000000001
11788,38.39723004166667,38,0.11583000000000254,28,0.11582999999999544
11789,38.51306004166666,40,0.11582999999999544,31,0.11583000000000254
11790,38.628890041666665,45,0.11583000000000254,34,0.11583000000000254
11791,38.74472004166667,40,0.11583000000000254,31,0.11582999999999544
11792,38.86055004166666,38,0.11582999999999544,29,0.11583000000000254
11793,38.976380041666665,49,0.11583000000000254,56,1.0690271333333357
11794,39.085736374999996,37,0.10935633333333072,28,0.10872255833333355
11795,39.19445893333333,40,0.10872255833333355,30,0.10806955000000329
11796,39.30252848333333,45,0.10806955000000329,33,0.10739891666666779
11797,39.4099274,40,0.10739891666666779,31,0.10678737499999613
11798,39.516714775,37,0.10678737499999613,30,0.10615740000000073
11799,39.622872175,50,0.10615740000000073,50,1.3235895166666722
11800,39.728505925,38,0.10563375000000264,28,0.10563374999999553
11801,39.834139674999996,40,0.10563374999999553,30,0.10563375000000264
11802,39.939773425,47,0.10563375000000264,33,0.10563375000000264
11803,40.045407175,56,0.10563375000000264,52,0.20985391666666686
11804,40.154896175000005,38,0.1094890000000035,29,0.1094889999999964
11805,40.264385175,56,0.1094889999999964,51,0.2151606833333375
11806,40.37178680833333,38,0.10740163333333186,28,0.10775905000000563
11807,40.47954585833334,54,0.10775905000000563,50,0.21743313333332992
11808,40.58797994166667,44,0.1084340833333286,31,0.10899905000000132
11809,40.69697899166667,52,0.10899905000000132,49,0.2494827000000015
11810,40.82250199166667,38,0.12552300000000116,29,0.12395970000000034
11811,40.94646169166667,61,0.12395970000000034,56,0.6436250833333261
11812,41.056044758333336,37,0.10958306666666573,30,0.10865714166666152
11813,41.1647019,40,0.10865714166666152,34,0.10770791666666213
11814,41.27240981666666,45,0.10770791666666213,35,0.10678765000000823
11815,41.37919746666667,40,0.10678765000000823,34,0.1059079249999968
11816,41.485105391666664,37,0.1059079249999968,33,0.10498138333333173
11817,41.590086774999996,61,0.10498138333333173,62,0.7599608750000044
11818,41.710568775,37,0.12048200000000264,36,0.11992804999999862
11819,41.830496825,40,0.11992804999999862,39,0.12448125000000232
11820,41.954978075,47,0.12448125000000232,37,0.12479907499999854
11821,42.07977715,61,0.12479907499999854,64,0.2601353562499966
11822,42.214912399999996,37,0.1351352499999976,31,0.1351352500000047
11823,42.282480025,46,0.06756762500000235,44,0.06756762500000235
11824,42.35004765,61,0.06756762500000235,68,1.4985898500000019
11825,42.469569650000004,37,0.11952200000000346,38,0.11952199999999635
11826,42.58909165,40,0.11952199999999635,41,0.11952200000000346
11827,42.708613650000004,46,0.11952200000000346,45,0.11952199999999635
11828,42.82813565,54,0.11952199999999635,57,0.2651198499999978
11829,42.96029415,37,0.13215850000000273,39,0.1329613499999951
11830,43.0932555,54,0.1329613499999951,57,0.23622050000000172
11831,43.21136575,40,0.11811025000000086,38,0.11811025000000086
11832,43.329476,56,0.11811025000000086,51,0.11811025000000086
11833,43.388531125,58,0.05905512500000043,51,0.05905512500000043
11834,43.44758625,56,0.05905512500000043,56,0.2575105000000022
11835,43.5763415,42,0.12875524999999755,42,0.12875525000000465
11836,43.70509675,54,0.12875525000000465,56,0.14354074999999966
11837,43.8486375,54,0.14354074999999966,59,0.6474825000000024
11838,43.956551250000004,40,0.10791375000000158,38,0.10791375000000158
11839,44.064465000000006,42,0.10791375000000158,42,0.10791374999999448
11840,44.17237875,47,0.10791374999999448,45,0.10791375000000158
11841,44.2802925,42,0.10791375000000158,41,0.10791375000000158
11842,44.38820625,40,0.10791375000000158,38,0.10791375000000158
11843,44.496120000000005,59,0.10791375000000158,64,0.8108100000000036
11844,44.597471250000005,39,0.10135125000000045,37,0.10135125000000045
11845,44.698822500000006,42,0.10135125000000045,40,0.10135125000000045
11846,44.800173750000006,47,0.10135125000000045,44,0.10135125000000045
11847,44.90152500000001,42,0.10135125000000045,41,0.10135125000000045
11848,45.00287625000001,39,0.10135125000000045,39,0.10135125000000045
11849,45.10422750000001,52,0.10135125000000045,55,1.409974499999997
11850,45.20557875000001,40,0.10135125000000045,37,0.10135125000000045
11851,45.30693000000001,58,0.10135125000000045,60,0.2027024999999938
11852,45.40828125,49,0.10135124999999334,42,0.10135125000000045
11853,45.5096325,56,0.10135125000000045,59,0.20978999999999814
11854,45.6145275,40,0.10489499999999907,39,0.10489499999999907
11855,45.7194225,58,0.10489499999999907,60,0.20979000000000525
11856,45.8243175,40,0.10489499999999907,36,0.10489500000000618
11857,45.929212500000006,56,0.10489500000000618,59,0.42015425000000306
11858,46.056872000000006,46,0.12765950000000004,40,0.12765950000000004
11859,46.184531500000006,42,0.12765950000000004,40,0.164835250000003
11860,46.34936675000001,54,0.164835250000003,56,0.16483524999999588
11861,46.514202000000004,63,0.16483524999999588,56,1.5171521749999854
11862,46.624294,39,0.11009199999999453,40,0.10929000000000144
11863,46.733584,42,0.10929000000000144,44,0.10849950000000064
11864,46.8420835,47,0.10849950000000064,45,0.10772037499999954
11865,46.949803875,42,0.10772037499999954,44,0.1069521249999994
11866,47.056756,39,0.1069521249999994,42,0.10615767499999151
11867,47.16291367499999,63,0.10615767499999151,64,0.8684404999999984
11868,47.30310067499999,35,0.1401869999999974,41,0.1401870000000045
11869,47.44328767499999,39,0.1401870000000045,45,0.1401869999999974
11870,47.58347467499999,42,0.1401869999999974,49,0.1401869999999974
11871,47.72366167499999,63,0.1401869999999974,63,0.29487197916666474
11872,47.87750792499999,35,0.15384625000000085,41,0.15384625000000085
11873,48.03135417499999,63,0.15384625000000085,68,1.0041840000000022
11874,48.15687717499999,35,0.12552300000000116,36,0.12552300000000116
11875,48.28240017499999,39,0.12552300000000116,39,0.12552300000000116
11876,48.40792317499999,42,0.12552300000000116,42,0.12552299999999406
11877,48.53344617499999,39,0.12552299999999406,41,0.12552300000000116
11878,48.65896917499999,35,0.12552300000000116,38,0.12552300000000116
11879,48.78449217499999,33,0.12552300000000116,38,0.7220208000000028
11880,48.91001517499999,35,0.12552300000000116,41,0.12552300000000116
11881,49.03553817499999,61,0.12552300000000116,63,0.3543307500000026
11882,49.15364842499999,42,0.11811025000000086,41,0.11811025000000086
11883,49.271758674999994,39,0.11811025000000086,38,0.11811025000000086
11884,49.389868924999995,59,0.11811025000000086,63,0.11664404999999789
11885,49.50651297499999,59,0.11664404999999789,63,0.608168841666668
11886,49.60971262499999,35,0.10319965000000053,33,0.10244787500000285
11887,49.712160499999996,40,0.10244787500000285,36,0.10171858333333006
11888,49.813879083333326,44,0.10171858333333006,39,0.10097670833333439
11889,49.91485579166666,40,0.10097670833333439,37,0.10027912500000014
11890,50.01513491666666,35,0.10027912500000014,35,0.0995469
11891,50.11468181666666,64,0.0995469,75,0.5940599999999989
11892,50.21369181666666,35,0.09900999999999982,38,0.09900999999999982
11893,50.31270181666666,40,0.09900999999999982,41,0.09900999999999982
11894,50.41171181666666,47,0.09900999999999982,42,0.09900999999999982
11895,50.51072181666666,40,0.09900999999999982,40,0.09900999999999982
11896,50.60973181666666,35,0.09900999999999982,37,0.09900999999999982
11897,50.70874181666666,64,0.09900999999999982,82,0.3960399999999993
11898,50.80775181666666,35,0.09900999999999982,38,0.09900999999999982
11899,50.90676181666666,39,0.09900999999999982,41,0.09900999999999982
11900,51.00577181666666,45,0.09900999999999982,41,0.09900999999999982
11901,51.10478181666666,63,0.09900999999999982,78,0.19801999999999964
11902,51.20379181666666,35,0.09900999999999982,36,0.09900999999999982
11903,51.30280181666666,63,0.09900999999999982,75,0.20833350000000195
11904,51.406968566666656,35,0.10416674999999742,34,0.10416675000000453
11905,51.51113531666666,61,0.10416675000000453,71,0.3608170000000044
11906,51.62878231666666,45,0.11764699999999806,39,0.11764700000000516
11907,51.746429316666664,39,0.11764700000000516,36,0.12552300000000116
11908,51.871952316666665,59,0.12552300000000116,63,0.12552300000000116
11909,51.997475316666666,68,0.12552300000000116,80,0.7531379999999999
11910,52.12299831666667,35,0.12552300000000116,31,0.12552299999999406
11911,52.24852131666666,38,0.12552299999999406,35,0.12552300000000116
11912,52.37404431666666,44,0.12552300000000116,37,0.12552300000000116
11913,52.49956731666666,38,0.12552300000000116,36,0.12552300000000116
11914,52.625090316666665,35,0.12552300000000116,34,0.12552300000000116
11915,52.750613316666666,68,0.12552300000000116,77,0.5825239999999994
11916,52.89624431666667,35,0.14563100000000162,30,0.14563100000000162
11917,53.04187531666667,37,0.14563100000000162,35,0.14563099999999451
11918,53.18750631666666,44,0.14563099999999451,37,0.14563100000000162
11919,53.333137316666665,68,0.14563100000000162,81,0.34226204166666463
11920,53.51170881666666,35,0.17857149999999677,34,0.17857150000000388
11921,53.690280316666666,68,0.17857150000000388,85,0.7806978749999942
11922,53.82429038333333,33,0.1340100666666615,35,0.1324526249999991
11923,53.956743008333326,37,0.1324526249999991,38,0.13083512499999728
11924,54.087578133333324,42,0.13083512499999728,39,0.12931191666666564
11925,54.21689004999999,37,0.12931191666666564,38,0.12777026666666558
11926,54.344660316666655,33,0.12777026666666558,36,0.12631787500000513
11927,54.47097819166666,66,0.12631787500000513,72,0.2631579999999971
11928,54.60255719166666,33,0.1315790000000021,31,0.131578999999995
11929,54.73413619166666,64,0.131578999999995,71,0.2631580000000042
11930,54.86571519166666,42,0.1315790000000021,38,0.1315790000000021
11931,54.99729419166666,61,0.1315790000000021,70,0.2631579999999971
11932,55.128873191666656,33,0.131578999999995,34,0.1315790000000021
11933,55.26045219166666,63,0.1315790000000021,75,0.7894739999999985
11934,55.39203119166666,32,0.1315790000000021,36,0.1315790000000021
11935,55.52361019166666,35,0.1315790000000021,37,0.131578999999995
11936,55.65518919166666,40,0.131578999999995,39,0.1315790000000021
11937,55.78676819166666,35,0.1315790000000021,37,0.1315790000000021
11938,55.91834719166666,32,0.1315790000000021,35,0.131578999999995
11939,56.04992619166666,61,0.131578999999995,71,0.2631580000000042
11940,56.18150519166666,32,0.1315790000000021,34,0.1315790000000021
11941,56.31308419166666,59,0.1315790000000021,68,0.2631579999999971
11942,56.44466319166666,40,0.1315790000000021,38,0.131578999999995
11943,56.57624219166666,56,0.131578999999995,63,0.2631580000000042
11944,56.70782119166666,32,0.1315790000000021,36,0.1315790000000021
11945,56.83940019166666,61,0.1315790000000021,69,0.2631579999999971
11946,56.97097919166666,33,0.131578999999995,34,0.1315790000000021
11947,57.10255819166666,59,0.1315790000000021,64,0.2631579999999971
11948,57.23413719166666,39,0.1315790000000021,36,0.131578999999995
11949,57.36571619166666,57,0.131578999999995,61,0.2631580000000042
11950,57.49729519166666,33,0.1315790000000021,34,0.1315790000000021
11951,57.62887419166666,57,0.1315790000000021,55,0.13698624999999964
11952,57.697367316666664,59,0.06849312500000337,55,0.06849312499999627
11953,57.76586044166666,57,0.06849312499999627,63,0.13698624999999964
11954,57.90284669166666,56,0.13698624999999964,58,0.47196199999999777
11955,58.05360044166666,39,0.1507537499999998,37,0.1507537499999998
11956,58.20435419166666,35,0.1507537499999998,35,0.17045449999999818
11957,58.37480869166666,55,0.17045449999999818,59,0.17045450000000528
11958,58.54526319166666,55,0.17045450000000528,59,0.867948808333324
11959,58.69526569166666,35,0.15000249999999937,33,0.1477855833333308
11960,58.84305127499999,40,0.1477855833333308,36,0.14563333333333617
11961,58.98868460833333,44,0.14563333333333617,37,0.14354291666666086
11962,59.13222752499999,40,0.14354291666666086,36,0.1415115
11963,59.27373902499999,37,0.1415115,35,0.13947297499999678
11964,59.41321199999999,56,0.13947297499999678,63,0.5529950000000028
11965,59.55146074999999,40,0.13824875000000247,36,0.13824875000000247
11966,59.68970949999999,44,0.13824875000000247,39,0.13824874999999537
11967,59.82795824999999,47,0.13824874999999537,40,0.13824875000000247
11968,59.96620699999999,59,0.13824875000000247,57,0.25862049999999925
11969,60.09551724999999,40,0.12931025000000318,38,0.12931024999999607
11970,60.22482749999999,47,0.12931024999999607,57,0.7758614999999978
11971,60.28948262499999,59,0.06465512500000159,57,0.7112063749999962
11972,60.35413774999999,35,0.06465512500000159,42,0.12931024999999607
11973,60.48344799999999,39,0.12931024999999607,42,0.12931025000000318
11974,60.61275824999999,42,0.12931025000000318,42,0.12931024999999607
11975,60.74206849999999,51,0.12931024999999607,63,0.5586204999999964
11976,60.87137874999999,35,0.12931025000000318,42,0.12931024999999607
11977,61.00068899999999,63,0.12931024999999607,63,0.7709747999999976
11978,61.150688999999986,35,0.14999999999999858,45,0.14999999999999858
11979,61.300688999999984,61,0.14999999999999858,63,0.3543307500000026
11980,61.418799249999985,42,0.11811025000000086,45,0.11811025000000086
11981,61.536909499999986,39,0.11811025000000086,41,0.11811025000000086
11982,61.65501974999999,59,0.11811025000000086,63,0.11664404999999789
11983,61.771663799999985,47,0.11664404999999789,63,1.2022288416666669
11984,61.874863449999985,35,0.10319965000000053,36,0.10244787500000285
11985,61.97731132499999,40,0.10244787500000285,39,0.10171858333333006
11986,62.07902990833332,44,0.10171858333333006,42,0.10097670833333439
11987,62.18000661666665,40,0.10097670833333439,40,0.10027912500000014
11988,62.28028574166665,35,0.10027912500000014,38,0.0995469
11989,62.37983264166665,64,0.0995469,75,0.5940599999999989
11990,62.47884264166665,35,0.09900999999999982,41,0.09900999999999982
11991,62.57785264166665,40,0.09900999999999982,45,0.09900999999999982
11992,62.67686264166665,47,0.09900999999999982,46,0.09900999999999982
11993,62.77587264166665,40,0.09900999999999982,44,0.09900999999999982
11994,62.87488264166665,35,0.09900999999999982,40,0.09900999999999982
11995,62.97389264166665,64,0.09900999999999982,75,0.9200404999999989
11996,63.07290264166665,35,0.09900999999999982,41,0.09900999999999982
11997,63.17191264166665,39,0.09900999999999982,45,0.09900999999999982
11998,63.27092264166665,45,0.09900999999999982,45,0.09900999999999982
11999,63.36993264166665,63,0.09900999999999982,78,0.19801999999999964
12000,63.46894264166665,35,0.09900999999999982,39,0.09900999999999982
12001,63.56795264166665,51,0.09900999999999982,75,0.3259805
12002,63.67211939166665,35,0.10416674999999742,37,0.10416675000000453
12003,63.77628614166665,39,0.10416675000000453,40,0.11764699999999806
12004,63.89393314166665,61,0.11764699999999806,71,0.11764700000000516
12005,64.01158014166666,59,0.11764700000000516,63,0.24096400000000529
12006,64.13206214166665,35,0.12048199999999554,34,0.12048200000000975
12007,64.25254414166666,59,0.12048200000000975,80,0.7228920000000016
12008,64.37302614166666,35,0.12048199999999554,37,0.12048199999999554
12009,64.49350814166665,38,0.12048199999999554,41,0.12048200000000975
12010,64.61399014166666,44,0.12048200000000975,44,0.12048199999999554
12011,64.73447214166666,38,0.12048199999999554,42,0.12048199999999554
12012,64.85495414166665,35,0.12048199999999554,40,0.12048200000000975
12013,64.97543614166666,68,0.12048200000000975,77,0.5263159999999942
12014,65.10701514166666,35,0.1315790000000021,36,0.1315790000000021
12015,65.23859414166667,37,0.1315790000000021,41,0.1315790000000021
12016,65.37017314166667,44,0.1315790000000021,44,0.1315789999999879
12017,65.50175214166666,68,0.1315789999999879,74,0.2874999999999943
12018,65.65175214166666,35,0.15000000000000568,40,0.14999999999999147
12019,65.80175214166665,68,0.14999999999999147,82,0.7806978749999871
12020,65.93576220833332,33,0.1340100666666615,38,0.1324526249999991
12021,66.06821483333331,37,0.1324526249999991,41,0.13083512500000438
12022,66.19904995833332,42,0.13083512500000438,42,0.12931191666666564
12023,66.32836187499998,37,0.12931191666666564,41,0.12777026666665847
12024,66.45613214166664,33,0.12777026666665847,39,0.12631787499999803
12025,66.58245001666664,66,0.12631787499999803,67,0.2631580000000042
12026,66.71402901666664,33,0.1315790000000021,34,0.1315790000000021
12027,66.84560801666665,64,0.1315790000000021,65,0.4068084999999968
12028,66.97718701666665,42,0.1315790000000021,41,0.13761474999999734
12029,67.11480176666664,37,0.13761474999999734,39,0.13761474999999734
12030,67.25241651666664,61,0.13761474999999734,64,0.14705874999999935
12031,67.39947526666664,63,0.14705874999999935,62,0.7894739999999985
12032,67.53105426666664,32,0.1315790000000021,39,0.1315790000000021
12033,67.66263326666665,35,0.1315790000000021,40,0.1315790000000021
12034,67.79421226666665,40,0.1315790000000021,42,0.1315789999999879
12035,67.92579126666664,35,0.1315789999999879,40,0.1315790000000021
12036,68.05737026666664,32,0.1315790000000021,38,0.1315790000000021
12037,68.18894926666664,61,0.1315790000000021,64,0.21660649999999748
12038,68.29725251666665,32,0.10830325000000585,35,0.10830324999999164
12039,68.40555576666664,59,0.10830324999999164,68,0.21660649999999748
12040,68.51385901666664,40,0.10830325000000585,39,0.10830324999999164
12041,68.62216226666663,61,0.10830324999999164,72,0.23529399999999612
12042,68.73980926666664,32,0.11764700000000516,35,0.11764699999999095
12043,68.85745626666663,62,0.11764699999999095,77,0.47058800000000645
12044,68.97510326666664,32,0.11764700000000516,37,0.11764700000000516
12045,69.09275026666664,35,0.11764700000000516,39,0.11764699999999095
12046,69.21039726666663,41,0.11764699999999095,41,0.11764700000000516
12047,69.32804426666664,61,0.11764700000000516,75,0.23529399999999612
12048,69.44569126666663,32,0.11764699999999095,36,0.11764700000000516
12049,69.56333826666663,62,0.11764700000000516,78,1.1764699999999948
12050,69.68098526666664,32,0.11764700000000516,39,0.11764699999999095
12051,69.79863226666663,35,0.11764699999999095,43,0.11764700000000516
12052,69.91627926666663,41,0.11764700000000516,48,0.11764700000000516
12053,70.03392626666664,35,0.11764700000000516,45,0.11764699999999095
12054,70.15157326666663,32,0.11764699999999095,41,0.11764700000000516
12055,70.26922026666664,23,0.11764700000000516,39,0.11764700000000516
12056,70.38686726666664,32,0.11764700000000516,40,0.11764699999999095
12057,70.50451426666663,35,0.11764699999999095,43,0.11764700000000516
12058,70.62216126666664,41,0.11764700000000516,45,0.11764699999999095
12059,70.73980826666663,61,0.11764699999999095,76,0.20905899999999633
12060,70.84433776666663,32,0.10452949999999817,36,0.10452949999999817
12061,70.94886726666662,62,0.10452949999999817,81,0.20618550000000369
12062,71.05196001666663,32,0.10309275000000184,40,0.10309275000000184
12063,71.15505276666663,61,0.10309275000000184,78,0.20618549999998947
12064,71.25814551666663,41,0.10309275000000184,47,0.10309274999998763
12065,71.36123826666662,62,0.10309274999998763,78,0.20618550000000369
12066,71.46433101666662,32,0.10309275000000184,40,0.10309275000000184
12067,71.56742376666662,62,0.10309275000000184,81,0.41237100000000737
12068,71.67051651666662,30,0.10309275000000184,43,0.10309275000000184
12069,71.77360926666663,33,0.10309275000000184,47,0.10309275000000184
12070,71.87670201666663,42,0.10309275000000184,50,0.10309275000000184
12071,71.97979476666663,61,0.10309275000000184,82,0.20618549999998947
12072,72.08288751666663,30,0.10309275000000184,43,0.10309274999998763
12073,72.18598026666662,73,0.10309274999998763,96,0.9278347500000024
12074,72.28907301666662,30,0.10309275000000184,50,0.10309275000000184
12075,72.39216576666662,33,0.10309275000000184,55,0.10309275000000184
12076,72.49525851666662,42,0.10309275000000184,58,0.10309275000000184
12077,72.59835126666663,33,0.10309275000000184,55,0.10309275000000184
12078,72.70144401666663,30,0.10309275000000184,52,0.10309275000000184
12079,72.80453676666663,23,0.10309275000000184,62,0.10309275000000184
12080,72.90762951666663,30,0.10309275000000184,50,0.10309274999998763
12081,73.01072226666662,33,0.10309274999998763,55,0.10309275000000184
12082,73.11381501666662,57,0.10309275000000184,80,0.10309275000000184
12083,73.21690776666662,57,0.10309275000000184,80,0.19759443750000116
12084,73.32000051666662,30,0.10309275000000184,51,0.10309275000000184
12085,73.42309326666663,63,0.10309275000000184,93,0.30927825000000553
12086,73.52618601666663,30,0.10309275000000184,57,0.10309275000000184
12087,73.62927876666663,33,0.10309275000000184,61,0.10309275000000184
12088,73.73237151666663,68,0.10309275000000184,89,0.10309274999998763
12089,73.83546426666662,57,0.10309274999998763,92,0.20618550000000369
12090,73.93855701666662,30,0.10309275000000184,59,0.10309275000000184
12091,74.04164976666662,64,0.10309275000000184,104,0.10309275000000184
12092,74.45402076666663,23,0.41237100000000737,70,0.10309274999998763
12093,74.55711351666662,32,0.10309274999998763,75,0.10309275000000184
12094,74.66020626666662,44,0.10309275000000184,97,0.19292599999999993
12095,74.75666926666662,52,0.09646299999999997,75,0.09646299999999997
12096,74.85313226666662,59,0.09646299999999997,79,0.09646299999999997
12097,74.94959526666662,56,0.09646299999999997,83,0.09646299999999997
12098,75.04605826666662,64,0.09646299999999997,87,0.09646299999999997
12099,75.14252126666662,73,0.09646299999999997,91,0.09646299999999997
12100,75.23898426666662,71,0.09646299999999997,96,0.19292599999999993
12101,75.62483626666662,23,0.38585199999999986,68,0.09646299999999997
12102,75.72129926666662,30,0.09646299999999997,74,0.09646299999999997
12103,75.81776226666662,45,0.09646299999999997,97,0.1846155000000067
12104,75.91007001666662,51,0.09230775000000335,75,0.09230775000000335
12105,76.00237776666663,59,0.09230775000000335,80,0.09230774999998914
12106,76.09468551666662,57,0.09230774999998914,84,0.09230775000000335
12107,76.18699326666662,63,0.09230775000000335,88,0.09230775000000335
12108,76.27930101666662,71,0.09230775000000335,93,0.09230775000000335
12109,76.37160876666663,68,0.09230775000000335,97,0.1846154999999925
12110,76.74083976666662,23,0.3692309999999992,70,0.09230774999998914
12111,76.83314751666661,32,0.09230774999998914,75,0.09230775000000335
12112,76.92545526666662,44,0.09230775000000335,97,0.18927449999999624
12113,77.02009251666662,52,0.09463725000000522,75,0.09463724999999101
12114,77.11472976666661,59,0.09463724999999101,79,0.09463725000000522
12115,77.20936701666662,56,0.09463725000000522,83,0.09463725000000522
12116,77.30400426666662,64,0.09463725000000522,87,0.09463724999999101
12117,77.39864151666661,73,0.09463724999999101,91,0.09463725000000522
12118,77.49327876666662,71,0.09463725000000522,96,0.18927449999999624
12119,77.87182776666661,23,0.3785489999999925,68,0.09463725000000522
12120,77.96646501666662,30,0.09463725000000522,74,0.09463725000000522
12121,78.06110226666662,45,0.09463725000000522,97,0.1829270000000065
12122,78.15256576666663,51,0.09146350000000325,75,0.09146350000000325
12123,78.24402926666663,59,0.09146350000000325,80,0.09146349999998904
12124,78.33549276666662,57,0.09146349999998904,84,0.09146350000000325
12125,78.42695626666662,63,0.09146350000000325,88,0.09146350000000325
12126,78.51841976666663,71,0.09146350000000325,93,0.09146350000000325
12127,78.60988326666663,68,0.09146350000000325,97,0.16666650000000516
12128,78.94321626666662,23,0.3333329999999961,68,0.08333325000000968
12129,79.02654951666663,32,0.08333325000000968,74,0.08333324999999547
12130,79.10988276666663,44,0.08333324999999547,97,0.1666061750000125
12131,79.19337084999997,52,0.0834880833333358,75,0.08311809166667672
12132,79.27648894166664,59,0.08311809166667672,78,0.08273604999999407
12133,79.35922499166664,56,0.08273604999999407,75,0.08234225000001061
12134,79.44156724166665,64,0.08234225000001061,79,0.08198238333332597
12135,79.52354962499997,71,0.08198238333332597,75,0.08161055000000772
12136,79.60516017499998,64,0.08161055000000772,78,0.08130074999999692
12137,79.68646092499998,56,0.08130074999999692,75,0.08130074999999692
12138,79.76776167499997,59,0.08130074999999692,80,0.08130075000001113
12139,79.84906242499999,52,0.08130075000001113,75,0.08130074999999692
12140,79.93036317499998,44,0.08130074999999692,79,0.08130074999999692
12141,80.01166392499998,47,0.08130074999999692,75,0.08130074999999692
12142,80.09296467499998,40,0.08130074999999692,78,0.08130075000001113
12143,80.17426542499999,32,0.08130075000001113,77,0.08130074999999692
12144,80.25556617499998,35,0.08130074999999692,82,0.08130074999999692
12145,80.33686692499998,28,0.08130074999999692,79,0.08130074999999692
12146,80.41816767499998,20,0.08130074999999692,87,0.08130074999999692
12147,80.49946842499998,28,0.08130074999999692,85,0.08130075000001113
12148,80.58076917499999,16,0.08130075000001113,102,0.09740250000000117
12149,81.165184175,52,0.584415000000007,102,0.5844149999999928
12150,83.36619017499999,36,2.2010059999999925,29,0.07462683333334041
12151,83.44081700833333,37,0.07462683333334041,31,0.0746268333333262
12152,83.51544384166665,40,0.0746268333333262,33,0.07462683333334041
12153,83.59007067499999,44,0.07462683333334041,38,0.1119402499999893
12154,84.03783167499999,36,0.44776099999999985,29,0.0746268333333262
12155,84.11245850833332,37,0.0746268333333262,31,0.07462683333334041
12156,84.18708534166666,40,0.07462683333334041,32,0.0746268333333262
12157,84.26171217499999,44,0.0746268333333262,38,0.11194025000000352
12158,85.60499517499998,37,1.3432829999999996,100,0.09375
12159,86.16749517499998,69,0.5625,92,1.125
12160,87.29249517499998,63,1.125,61,0.2871677499999947
12161,87.57966292499998,68,0.2871677499999947,68,0.09966775000000894
12162,87.67933067499999,69,0.09966775000000894,71,0.24193549999999675
12163,87.92126617499999,68,0.24193549999999675,68,0.20408150000000091
12164,88.32942917499999,36,0.40816300000000183,27,0.06802716666666697
12165,88.39745634166665,37,0.06802716666666697,29,0.06802716666666697
12166,88.46548350833332,40,0.06802716666666697,30,0.06802716666666697
12167,88.53351067499999,44,0.06802716666666697,35,0.10204075000000046
12168,88.94167367499999,36,0.40816300000000183,27,0.06802716666666697
12169,89.00970084166666,37,0.06802716666666697,29,0.06802716666666697
12170,89.07772800833332,40,0.06802716666666697,30,0.06802716666666697
12171,89.14575517499999,44,0.06802716666666697,35,0.0943395000000038
12172,90.277829175,35,1.132074000000003,100,0.08695649999999944
12173,90.756089925,35,0.478260750000004,75,1.08695625
12174,90.77782905,44,0.021739124999996307,89,1.0652171250000038
12175,90.79956817499999,68,0.021739124999996307,90,1.0434780000000075
12176,91.843046175,63,1.0434780000000075,60,0.1333331999999956
12177,91.976379375,67,0.1333331999999956,60,0.1333332000000098
12178,92.109712575,68,0.1333332000000098,65,0.1333331999999956
12179,92.243045775,63,0.1333331999999956,72,0.12339180000000738
12180,92.366437575,57,0.12339180000000738,70,0.11842109999999195
12181,92.484858675,64,0.11842109999999195,67,0.17391299999999887
12182,93.006597675,56,0.5217389999999966,81,0.34782599999999775
12183,93.52833667499999,44,0.5217389999999966,81,0.3785490000000067
12184,94.096160175,20,0.5678235000000029,94,1.3815795000000008
12185,95.477739675,21,1.3815795000000008,97,0.1480263750000006
12186,97.47048067499999,36,1.9927409999999952,27,0.06896550000000445
12187,97.539446175,37,0.06896550000000445,29,0.06896549999999024
12188,97.60841167499999,40,0.06896549999999024,30,0.06896550000000445
12189,97.67737717499999,44,0.06896550000000445,35,0.10344824999999958
12190,98.09117017499999,36,0.4137929999999983,29,0.06896550000000445
12191,98.16013567499999,37,0.06896550000000445,30,0.06896550000000445
12192,98.229101175,40,0.06896550000000445,31,0.06896549999999024
12193,98.29806667499999,44,0.06896549999999024,35,0.10344824999999958
12194,99.539445675,37,1.2413790000000091,100,0.09375
12195,100.101945675,73,0.5625,92,0.84375
12196,100.945695675,66,0.84375,58,0.09375
12197,101.039445675,66,0.09375,58,0.1875
12198,101.226945675,66,0.1875,61,0.28125
12199,101.508195675,63,0.28125,68,0.09375
12200,101.601945675,63,0.09375,71,0.23346300000000042
12201,101.835408675,68,0.23346300000000042,68,0.20408150000000091
12202,102.243571675,36,0.40816300000000183,29,0.06802716666666697
12203,102.31159884166667,37,0.06802716666666697,30,0.06802716666666697
12204,102.37962600833333,40,0.06802716666666697,32,0.06802716666666697
12205,102.447653175,44,0.06802716666666697,37,0.10204075000000046
12206,102.855816175,36,0.40816300000000183,29,0.06802716666666697
12207,102.92384334166667,37,0.06802716666666697,30,0.06802716666666697
12208,102.99187050833334,40,0.06802716666666697,32,0.06802716666666697
12209,103.059897675,44,0.06802716666666697,37,0.0943395000000038
12210,104.12732767499999,27,1.0674299999999874,100,0.08356550000000595
12211,104.628720675,71,0.5013930000000073,90,1.0027860000000004
12212,105.631506675,70,1.0027860000000004,73,0.18442612500000166
12213,105.8159328,70,0.18442612500000166,71,0.18442612500000166
12214,106.000358925,63,0.18442612500000166,67,0.15000000000000568
12215,106.150358925,70,0.15000000000000568,68,0.14999999999999147
12216,106.300358925,63,0.14999999999999147,73,0.17391299999999887
12217,106.822097925,56,0.5217389999999966,81,0.3625380000000007
12218,107.365904925,39,0.543807000000001,81,0.42253499999999633
12219,107.999707425,19,0.6338025000000016,94,1.1842110000000048
12220,109.183918425,20,1.1842110000000048,94,0.753138000000007
12221,109.93705642500001,17,0.753138000000007,50,0.10060059375000208
12222,110.02659508125001,18,0.08953865624999935,51,0.09833070833332158
12223,110.11412660208333,20,0.08753152083332338,51,0.09604659375000324
12224,110.1996689875,18,0.08554238541667303,52,0.09388403125001332
12225,110.28322243541669,20,0.08355344791668529,53,0.09190406249999228
12226,110.36502544583334,18,0.08180301041664961,55,0.09066559374998917
12227,110.44556958125,20,0.08054413541665895,56,0.09146443750000799
12228,110.52682993541667,18,0.08126035416667321,56,0.09206689583332661
12229,110.60862985208334,20,0.08179991666666808,57,0.09291247916665668
12230,110.69116889375,18,0.08253904166666359,58,0.07261406249999425
12231,110.75340951875,20,0.06224062500000116,59,0.07261406249999425
12232,110.81565014375,18,0.06224062500000116,60,0.07261406249999425
12233,110.87789076874999,20,0.06224062499998695,61,0.06224062500000116
12234,110.94013139375,18,0.06224062500000116,62,0.06338508333332982
12235,111.00351647708332,20,0.06338508333332982,62,0.06579708333333656
12236,111.06931356041666,18,0.06579708333333656,62,0.06819029166668145
12237,111.13750385208334,20,0.06819029166668145,63,0.07098462499999414
12238,111.20848847708334,18,0.07098462499999414,64,0.12403556249999781
12239,111.30777156041667,17,0.09928308333333291,73,0.2227723124999983
12240,111.50579139375,6,0.1980198333333334,73,0.20856835416667252
12241,111.70381122708334,80,0.1980198333333334,97,0.9574569999999909
12242,112.21014022708333,35,0.5063289999999938,45,0.22556400000000565
12243,112.43570422708333,32,0.22556400000000565,53,0.22556399999999144
12244,112.66126822708333,78,0.22556399999999144,68,0.0884954999999934
12245,112.74976372708332,76,0.0884954999999934,61,0.08849550000000761
12246,112.83825922708333,71,0.08849550000000761,65,0.176991000000001
12247,112.92675472708332,68,0.0884954999999934,59,0.08849550000000761
12248,113.01525022708333,66,0.08849550000000761,62,0.176991000000001
12249,113.10374572708332,64,0.0884954999999934,56,0.08849550000000761
12250,113.19224122708333,59,0.08849550000000761,58,0.0884954999999934
12251,113.28073672708332,56,0.0884954999999934,53,0.08849550000000761
12252,113.36923222708333,54,0.08849550000000761,55,0.0884954999999934
12253,113.45772772708332,52,0.0884954999999934,50,0.08849550000000761
12254,113.54622322708333,47,0.08849550000000761,52,0.176991000000001
12255,114.07719622708332,51,0.5309729999999888,55,0.08884525000000565
12256,114.16604147708333,52,0.08884525000000565,52,0.08919741666666425
12257,114.25523889374999,54,0.08919741666666425,50,0.08964158333333216
12258,114.34488047708332,56,0.08964158333333216,47,0.09000008333335074
12259,114.43488056041667,57,0.09000008333335074,45,0.09045249999999783
12260,114.52004604791668,59,0.08516548750000652,42,0.09081300833334183
12261,114.61617821041668,60,0.09613216249999823,40,0.21818199999999877
12262,114.83436021041668,45,0.21818199999999877,35,0.19736849999999606
12263,115.03172871041667,35,0.19736849999999606,31,0.09868425000000514
12264,115.22909721041668,60,0.19736850000001027,50,0.09027100000000132
12265,115.31936821041668,59,0.09027100000000132,49,0.08991016666668372
12266,115.40927837708337,58,0.08991016666668372,47,0.08946341666667479
12267,115.49874179375004,57,0.08946341666667479,46,0.08910908333332657
12268,115.58785087708337,56,0.08910908333332657,44,0.08867016666667382
12269,115.67652104375004,55,0.08867016666667382,42,0.0882961250000136
12270,115.76481716875006,54,0.0882961250000136,41,0.21505399999999497
12271,115.97987116875005,45,0.21505399999999497,32,0.19736849999999606
12272,116.17723966875005,35,0.19736849999999606,28,0.09868425000000514
12273,116.37460816875006,80,0.19736850000001027,97,0.8721809999999977
12274,116.82573616875005,35,0.4511279999999971,45,0.21052650000000028
12275,117.03626266875006,40,0.21052650000000028,53,0.21052650000000028
12276,117.24678916875006,78,0.21052650000000028,68,0.0867052499999943
12277,117.33349441875005,76,0.0867052499999943,61,0.0867052500000085
12278,117.42019966875006,71,0.0867052500000085,65,0.1734105000000028
12279,117.50690491875005,68,0.0867052499999943,59,0.0867052500000085
12280,117.59361016875006,66,0.0867052500000085,62,0.1734104999999886
12281,117.68031541875006,64,0.0867052499999943,57,0.0867052499999943
12282,117.76702066875005,59,0.0867052499999943,58,0.0867052500000085
12283,117.85372591875006,56,0.0867052500000085,53,0.0867052499999943
12284,117.94043116875005,54,0.0867052499999943,55,0.0867052500000085
12285,118.02713641875006,52,0.0867052500000085,51,0.0867052499999943
12286,118.11384166875006,47,0.0867052499999943,52,0.1729105000000004
12287,118.63257316875006,51,0.5187315000000012,42,0.5342147416666876
12288,118.72085179375006,52,0.08827862500000094,41,0.08856536666667125
12289,118.80941716041673,54,0.08856536666667125,41,0.08887157499999887
12290,118.89828873541673,56,0.08887157499999887,40,0.08917975000001377
12291,118.98746848541674,57,0.08917975000001377,39,0.08949006666665582
12292,119.0717346708334,59,0.0842661854166522,38,0.08979798958334584
12293,119.16678791041674,60,0.09505323958335055,37,0.08982025000000249
12294,119.25660816041675,40,0.08982025000000249,32,0.08982025000000249
12295,119.34642841041675,42,0.08982025000000249,32,0.08982024999998828
12296,119.43624866041674,44,0.08982024999998828,32,0.08982025000000249
12297,119.52606891041674,45,0.08982025000000249,32,0.08982025000000249
12298,119.61588916041674,47,0.08982025000000249,32,0.08982025000000249
12299,119.70570941041674,60,0.08982025000000249,42,0.08823524999999677
12300,119.79394466041674,59,0.08823524999999677,41,0.08823524999999677
12301,119.88217991041674,58,0.08823524999999677,40,0.08823525000001098
12302,119.97041516041675,57,0.08823525000001098,39,0.08823524999999677
12303,120.05865041041675,56,0.08823524999999677,37,0.08823524999999677
12304,120.14688566041674,55,0.08823524999999677,36,0.08823524999999677
12305,120.23512091041674,54,0.08823524999999677,35,0.1906135250000034
12306,120.32914096041674,35,0.09402004999999747,29,0.09659347500000592
12307,120.42573443541674,34,0.09659347500000592,28,0.09934432500000412
12308,120.52507876041675,33,0.09934432500000412,27,0.10230371666663984
12309,120.62738247708339,32,0.10230371666663984,26,0.10535740833333307
12310,120.73273988541672,30,0.10535740833333307,25,0.10866498333334107
12311,120.84140486875006,56,0.10866498333334107,59,1.4124324000000144
12312,120.95768386875007,35,0.1162790000000058,28,0.11627899999999158
12313,121.07396286875006,40,0.11627899999999158,30,0.1162790000000058
12314,121.19024186875006,44,0.1162790000000058,34,0.11627899999999158
12315,121.30652086875006,40,0.11627899999999158,31,0.1162790000000058
12316,121.42279986875006,35,0.1162790000000058,30,0.1162790000000058
12317,121.53907886875007,28,0.1162790000000058,29,0.11627899999999158
12318,121.65535786875006,38,0.11627899999999158,28,0.1162790000000058
12319,121.77163686875006,54,0.1162790000000058,53,0.35399515000001713
12320,121.88800788541674,44,0.11637101666667604,31,0.11797283333334008
12321,122.00598071875008,40,0.11797283333334008,30,0.11965130000000102
12322,122.12563201875008,52,0.11965130000000102,52,0.1282052499999935
12323,122.25383726875008,52,0.1282052499999935,58,0.694980000000001
12324,122.36966726875008,38,0.11583000000000254,28,0.11583000000000254
12325,122.48549726875008,40,0.11583000000000254,31,0.11582999999998833
12326,122.60132726875007,45,0.11582999999998833,34,0.11583000000000254
12327,122.71715726875007,40,0.11583000000000254,31,0.11583000000000254
12328,122.83298726875007,38,0.11583000000000254,29,0.11583000000000254
12329,122.94881726875008,49,0.11583000000000254,56,1.0690271333333214
12330,123.05817360208341,37,0.10935633333333783,28,0.10872255833332645
12331,123.16689616041674,40,0.10872255833332645,30,0.10806954999999618
12332,123.27496571041674,45,0.10806954999999618,33,0.10739891666666779
12333,123.3823646270834,40,0.10739891666666779,31,0.10678737499999613
12334,123.4891520020834,37,0.10678737499999613,30,0.10615740000000073
12335,123.5953094020834,50,0.10615740000000073,50,1.323589516666658
12336,123.7009431520834,38,0.10563374999999553,28,0.10563375000000974
12337,123.8065769020834,40,0.10563375000000974,30,0.10563374999999553
12338,123.9122106520834,47,0.10563374999999553,33,0.10563374999999553
12339,124.0178444020834,56,0.10563374999999553,52,0.218978000000007
12340,124.1273334020834,38,0.1094889999999964,29,0.1094890000000106
12341,124.2368224020834,56,0.1094890000000106,51,0.21516068333332328
12342,124.34422403541673,38,0.10740163333332475,28,0.10775904999999852
12343,124.45198308541673,54,0.10775904999999852,50,0.21743313333332992
12344,124.56041716875006,44,0.1084340833333357,31,0.10899904999999421
12345,124.66941621875006,52,0.10899904999999421,49,0.2403252000000009
12346,124.79493921875006,38,0.12552300000000116,29,0.12395970000000034
12347,124.91889891875006,61,0.12395970000000034,56,0.6436250833333474
12348,125.02848198541673,37,0.10958306666667283,30,0.10865714166666862
12349,125.1371391270834,40,0.10865714166666862,34,0.10770791666666923
12350,125.24484704375007,45,0.10770791666666923,35,0.10678764999998691
12351,125.35163469375006,40,0.10678764999998691,34,0.105907925000011
12352,125.45754261875007,37,0.105907925000011,33,0.10498138333333884
12353,125.5625240020834,61,0.10498138333333884,62,0.7599608749999902
12354,125.6830060020834,37,0.12048199999999554,36,0.11992804999999862
12355,125.8029340520834,40,0.11992804999999862,39,0.12448125000000232
12356,125.9274153020834,47,0.12448125000000232,37,0.12479907499999854
12357,126.0522143770834,61,0.12479907499999854,64,0.2702704999999952
12358,126.1873496270834,37,0.1351352500000047,31,0.1351352499999905
12359,126.2549172520834,46,0.06756762499999525,44,0.06756762499999525
12360,126.3224848770834,61,0.06756762499999525,68,1.4985898499999877
12361,126.4420068770834,37,0.11952200000000346,38,0.11952200000000346
12362,126.5615288770834,40,0.11952200000000346,41,0.11952199999998925
12363,126.6810508770834,46,0.11952199999998925,45,0.11952200000000346
12364,126.8005728770834,54,0.11952200000000346,57,0.2651198499999907
12365,126.9327313770834,37,0.13215850000000273,39,0.132961349999988
12366,127.06569272708339,54,0.132961349999988,57,0.23622050000000172
12367,127.18380297708339,40,0.11811025000000086,38,0.11811025000000086
12368,127.30191322708339,56,0.11811025000000086,51,0.11811025000000086
12369,127.36096835208339,58,0.05905512500000043,51,0.05905512500000043
12370,127.42002347708339,56,0.05905512500000043,56,0.2575104999999951
12371,127.54877872708339,42,0.12875524999999755,42,0.12875524999999755
12372,127.67753397708339,54,0.12875524999999755,56,0.14354074999999966
12373,127.82107472708338,54,0.14354074999999966,59,0.6474824999999953
12374,127.92898847708338,40,0.10791374999999448,38,0.10791374999999448
12375,128.03690222708337,42,0.10791374999999448,42,0.1079137500000229
12376,128.1448159770834,47,0.1079137500000229,45,0.10791374999999448
12377,128.2527297270834,42,0.10791374999999448,41,0.10791374999999448
12378,128.36064347708339,40,0.10791374999999448,38,0.10791374999999448
12379,128.46855722708338,59,0.10791374999999448,64,0.8108100000000036
12380,128.56990847708337,39,0.10135124999999334,37,0.10135124999999334
12381,128.67125972708337,42,0.10135124999999334,40,0.10135125000002176
12382,128.7726109770834,47,0.10135125000002176,44,0.10135124999999334
12383,128.87396222708338,42,0.10135124999999334,41,0.10135124999999334
12384,128.97531347708338,39,0.10135124999999334,39,0.10135124999999334
12385,129.07666472708337,52,0.10135124999999334,55,1.4099744999999757
12386,129.1780159770834,40,0.10135125000002176,37,0.10135124999999334
12387,129.27936722708338,58,0.10135124999999334,60,0.20270249999998668
12388,129.38071847708338,49,0.10135124999999334,42,0.10135124999999334
12389,129.48206972708337,56,0.10135124999999334,59,0.20978999999999814
12390,129.58696472708337,40,0.10489499999999907,39,0.10489499999999907
12391,129.69185972708337,58,0.10489499999999907,60,0.20978999999999814
12392,129.79675472708337,40,0.10489499999999907,36,0.10489499999999907
12393,129.90164972708337,56,0.10489499999999907,59,0.42015424999999595
12394,130.02930922708336,46,0.12765949999999293,40,0.12765949999999293
12395,130.15696872708335,42,0.12765949999999293,40,0.1648352500000101
12396,130.32180397708336,54,0.1648352500000101,56,0.16483524999998167
12397,130.48663922708334,63,0.16483524999998167,56,1.5171521749999783
12398,130.59673122708335,39,0.11009200000000874,40,0.10928999999998723
12399,130.70602122708334,42,0.10928999999998723,44,0.10849949999999353
12400,130.81452072708333,47,0.10849949999999353,45,0.10772037500001375
12401,130.92224110208335,42,0.10772037500001375,44,0.10695212499999229
12402,131.02919322708334,39,0.10695212499999229,42,0.10615767499999151
12403,131.13535090208333,63,0.10615767499999151,64,0.8684404999999913
12404,131.27553790208333,35,0.1401869999999974,41,0.1401869999999974
12405,131.41572490208333,39,0.1401869999999974,45,0.1401869999999974
12406,131.55591190208332,42,0.1401869999999974,49,0.1401869999999974
12407,131.69609890208332,63,0.1401869999999974,63,0.29487197916665764
12408,131.8499451520833,35,0.15384624999998664,41,0.15384625000001506
12409,132.00379140208332,63,0.15384625000001506,68,1.0041840000000093
12410,132.1293144020833,35,0.12552299999998695,36,0.12552300000001537
12411,132.25483740208333,39,0.12552300000001537,39,0.12552299999998695
12412,132.3803604020833,42,0.12552299999998695,42,0.12552300000001537
12413,132.50588340208333,39,0.12552300000001537,41,0.12552299999998695
12414,132.63140640208331,35,0.12552299999998695,38,0.12552300000001537
12415,132.75692940208333,33,0.12552300000001537,47,0.7220207999999957
12416,132.88245240208332,35,0.12552299999998695,41,0.12552300000001537
12417,133.00797540208333,61,0.12552300000001537,63,0.3543307500000026
12418,133.12608565208333,42,0.11811025000000086,41,0.11811025000000086
12419,133.24419590208333,39,0.11811025000000086,38,0.11811025000000086
12420,133.36230615208333,59,0.11811025000000086,63,0.11664404999999078
12421,133.47895020208333,59,0.11664404999999078,63,0.6081688416666395
12422,133.5821498520833,35,0.103199649999965,33,0.10244787500002417
12423,133.68459772708331,40,0.10244787500002417,36,0.10171858333336559
12424,133.78631631041668,44,0.10171858333336559,39,0.10097670833332018
12425,133.88729301875,40,0.10097670833332018,37,0.10027912499998592
12426,133.98757214375,35,0.10027912499998592,35,0.09954689999997868
12427,134.08711904374996,64,0.09954689999997868,75,0.5940600000000131
12428,134.18612904374996,35,0.09900999999999271,38,0.09901000000002114
12429,134.28513904374998,40,0.09901000000002114,41,0.09900999999999271
12430,134.38414904374997,47,0.09900999999999271,42,0.09900999999999271
12431,134.48315904374996,40,0.09900999999999271,40,0.09900999999999271
12432,134.58216904374996,35,0.09900999999999271,37,0.09901000000002114
12433,134.68117904374998,64,0.09901000000002114,82,0.3960399999999993
12434,134.78018904374997,35,0.09900999999999271,38,0.09900999999999271
12435,134.87919904374996,39,0.09900999999999271,41,0.09900999999999271
12436,134.97820904374996,45,0.09900999999999271,41,0.09901000000002114
12437,135.07721904374998,63,0.09901000000002114,78,0.18976916666665034
12438,135.17622904374997,35,0.09900999999999271,36,0.09900999999999271
12439,135.27523904374996,63,0.09900999999999271,75,0.20833350000000905
12440,135.37940579374995,35,0.10416674999999032,34,0.10416675000001874
12441,135.48357254374997,61,0.10416675000001874,71,0.3608169999999973
12442,135.60121954374998,45,0.11764700000000516,39,0.11764700000000516
12443,135.71886654374998,39,0.11764700000000516,36,0.12552299999998695
12444,135.84438954374997,59,0.12552299999998695,63,0.12552300000001537
12445,135.96991254374998,68,0.12552300000001537,80,0.753138000000007
12446,136.09543554374997,35,0.12552299999998695,31,0.12552300000001537
12447,136.22095854375,38,0.12552300000001537,35,0.12552299999998695
12448,136.34648154374997,44,0.12552299999998695,37,0.12552300000001537
12449,136.47200454375,38,0.12552300000001537,36,0.12552299999998695
12450,136.59752754374998,35,0.12552299999998695,34,0.12552300000001537
12451,136.72305054375,68,0.12552300000001537,77,0.5825240000000065
12452,136.86868154375,35,0.14563100000000873,30,0.1456309999999803
12453,137.01431254374998,37,0.1456309999999803,35,0.14563100000000873
12454,137.15994354375,44,0.14563100000000873,37,0.14563100000000873
12455,137.30557454375,68,0.14563100000000873,81,0.3422620416666575
12456,137.48414604375,35,0.17857150000000388,34,0.17857150000000388
12457,137.66271754375,68,0.17857150000000388,85,0.7806978749999871
12458,137.7967276104167,33,0.1340100666666899,35,0.1324526249999849
12459,137.92918023541668,37,0.1324526249999849,38,0.13083512500000438
12460,138.06001536041668,42,0.13083512500000438,39,0.12931191666669406
12461,138.18932727708338,37,0.12931191666669406,38,0.12777026666663005
12462,138.31709754375,33,0.12777026666663005,36,0.12631787499998381
12463,138.44341541875,66,0.12631787499998381,72,0.2631580000000042
12464,138.57499441874998,33,0.1315789999999879,31,0.13157900000001632
12465,138.70657341875,64,0.13157900000001632,71,0.2631580000000042
12466,138.83815241874998,42,0.1315789999999879,38,0.13157900000001632
12467,138.96973141875,61,0.13157900000001632,70,0.2631580000000042
12468,139.10131041875,33,0.1315789999999879,34,0.13157900000001632
12469,139.23288941875,63,0.13157900000001632,75,0.7894739999999842
12470,139.36446841875,32,0.1315789999999879,36,0.1315789999999879
12471,139.49604741874998,35,0.1315789999999879,37,0.13157900000001632
12472,139.62762641875,40,0.13157900000001632,39,0.1315789999999879
12473,139.75920541874999,35,0.1315789999999879,37,0.13157900000001632
12474,139.89078441875,32,0.13157900000001632,35,0.1315789999999879
12475,140.02236341875,61,0.1315789999999879,71,0.2631580000000042
12476,140.15394241875,32,0.13157900000001632,34,0.1315789999999879
12477,140.28552141875,59,0.1315789999999879,68,0.2631580000000042
12478,140.41710041874998,40,0.1315789999999879,38,0.13157900000001632
12479,140.54867941875,56,0.13157900000001632,63,0.2631580000000042
12480,140.68025841875,32,0.1315789999999879,36,0.13157900000001632
12481,140.81183741875,61,0.13157900000001632,69,0.2631580000000042
12482,140.94341641875,33,0.1315789999999879,34,0.13157900000001632
12483,141.07499541875,59,0.13157900000001632,64,0.2631579999999758
12484,141.20657441875,39,0.1315789999999879,36,0.1315789999999879
12485,141.33815341874998,57,0.1315789999999879,61,0.25219308333333856
12486,141.46973241875,33,0.13157900000001632,34,0.1315789999999879
12487,141.60131141875,57,0.1315789999999879,55,0.13698625000000675
12488,141.66980454375,59,0.06849312500000337,55,0.06849312500000337
12489,141.73829766875,57,0.06849312500000337,63,0.13698625000000675
12490,141.87528391875,56,0.13698625000000675,58,0.4719620000000191
12491,142.02603766875,39,0.1507537500000069,37,0.1507537500000069
12492,142.17679141875,35,0.1507537500000069,35,0.17045450000000528
12493,142.34724591875002,55,0.17045450000000528,59,0.17045450000000528
12494,142.51770041875002,55,0.17045450000000528,59,0.8679488083333808
12495,142.66770291875005,35,0.1500025000000278,33,0.14778558333335923
12496,142.8154885020834,40,0.14778558333335923,36,0.14563333333330775
12497,142.96112183541672,44,0.14563333333330775,37,0.14354291666666086
12498,143.10466475208338,40,0.14354291666666086,36,0.14151150000000712
12499,143.2461762520834,37,0.14151150000000712,35,0.1394729750000181
12500,143.3856492270834,56,0.1394729750000181,63,0.5529949999999815
12501,143.5238979770834,40,0.13824875000000247,36,0.13824874999997405
12502,143.66214672708338,44,0.13824874999997405,39,0.13824875000000247
12503,143.80039547708338,47,0.13824875000000247,40,0.13824875000000247
12504,143.9386442270834,59,0.13824875000000247,57,0.25862050000000636
12505,144.0679544770834,40,0.12931025000000318,38,0.12931025000000318
12506,144.1972647270834,47,0.12931025000000318,57,0.7594934999999907
12507,144.2605558520834,59,0.06329112500000633,57,0.6962023749999844
12508,144.3238469770834,35,0.06329112500000633,42,0.12658224999998424
12509,144.4504292270834,39,0.12658224999998424,42,0.12658225000001266
12510,144.5770114770834,42,0.12658225000001266,42,0.12658224999998424
12511,144.7035937270834,51,0.12658224999998424,63,0.5531645000000083
12512,144.8301759770834,35,0.12658225000001266,42,0.12658224999998424
12513,144.95675822708338,63,0.12658224999998424,63,0.7709748000000047
12514,145.1067582270834,35,0.15000000000000568,45,0.15000000000000568
12515,145.2567582270834,61,0.15000000000000568,63,0.3543307500000026
12516,145.3748684770834,42,0.11811025000000086,45,0.11811025000000086
12517,145.4929787270834,39,0.11811025000000086,41,0.11811025000000086
12518,145.6110889770834,59,0.11811025000000086,63,0.11664404999999078
12519,145.7277330270834,47,0.11664404999999078,63,1.2022288416666527
12520,145.83093267708335,35,0.103199649999965,36,0.10244787500002417
12521,145.93338055208338,40,0.10244787500002417,39,0.10171858333336559
12522,146.03509913541674,44,0.10171858333336559,42,0.10097670833332018
12523,146.13607584375006,40,0.10097670833332018,40,0.10027912499998592
12524,146.23635496875005,35,0.10027912499998592,38,0.09954689999997868
12525,146.33590186875003,64,0.09954689999997868,75,0.5940600000000131
12526,146.43491186875002,35,0.09900999999999271,41,0.09901000000002114
12527,146.53392186875004,40,0.09901000000002114,45,0.09900999999999271
12528,146.63293186875003,47,0.09900999999999271,46,0.09900999999999271
12529,146.73194186875003,40,0.09900999999999271,44,0.09900999999999271
12530,146.83095186875002,35,0.09900999999999271,40,0.09901000000002114
12531,146.92996186875004,64,0.09901000000002114,75,0.5940599999999847
12532,147.02897186875003,35,0.09900999999999271,41,0.09900999999999271
12533,147.12798186875003,39,0.09900999999999271,45,0.09900999999999271
12534,147.22699186875002,51,0.09900999999999271,71,0.09901000000002114
12535,147.32600186875004,63,0.09901000000002114,70,0.19801999999998543
12536,147.42501186875003,35,0.09900999999999271,39,0.09900999999999271
12537,147.52402186875003,51,0.09900999999999271,75,0.3259805000000142
12538,147.62818861875002,35,0.10416674999999032,37,0.10416675000001874
12539,147.73235536875004,39,0.10416675000001874,40,0.11764700000000516
12540,147.85000236875004,61,0.11764700000000516,71,0.11764700000000516
12541,147.96764936875005,59,0.11764700000000516,63,0.24096399999999107
12542,148.08813136875006,35,0.12048200000000975,34,0.12048199999998133
12543,148.20861336875004,68,0.12048199999998133,80,0.7228920000000016
12544,148.32909536875005,35,0.12048200000000975,37,0.12048200000000975
12545,148.44957736875006,38,0.12048200000000975,41,0.12048199999998133
12546,148.57005936875004,44,0.12048199999998133,44,0.12048200000000975
12547,148.69054136875005,38,0.12048200000000975,42,0.12048200000000975
12548,148.81102336875006,35,0.12048200000000975,40,0.12048199999998133
12549,148.93150536875004,68,0.12048199999998133,77,0.5263160000000084
12550,149.06308436875003,35,0.1315789999999879,36,0.13157900000001632
12551,149.19466336875004,37,0.13157900000001632,41,0.1315789999999879
12552,149.32624236875003,44,0.1315789999999879,44,0.13157900000001632
12553,149.45782136875005,68,0.13157900000001632,78,0.2874999999999943
12554,149.60782136875005,35,0.15000000000000568,40,0.15000000000000568
12555,149.75782136875006,68,0.15000000000000568,82,0.7806978749999871
12556,149.89183143541675,33,0.1340100666666899,38,0.1324526249999849
12557,150.02428406041673,37,0.1324526249999849,41,0.13083512500000438
12558,150.15511918541674,42,0.13083512500000438,42,0.12931191666669406
12559,150.28443110208343,37,0.12931191666669406,41,0.12777026666663005
12560,150.41220136875006,33,0.12777026666663005,39,0.12631787499998381
12561,150.53851924375005,57,0.12631787499998381,67,0.2631580000000042
12562,150.67009824375003,33,0.1315789999999879,34,0.13157900000001632
12563,150.80167724375005,64,0.13157900000001632,65,0.4068084999999826
12564,150.93325624375004,42,0.1315789999999879,41,0.13761475000001155
12565,151.07087099375005,37,0.13761475000001155,39,0.13761474999998313
12566,151.20848574375003,57,0.13761474999998313,64,0.14705875000001356
12567,151.35554449375005,63,0.14705875000001356,62,0.7894740000000127
12568,151.48712349375003,32,0.1315789999999879,39,0.13157900000001632
12569,151.61870249375005,35,0.13157900000001632,40,0.1315789999999879
12570,151.75028149375004,40,0.1315789999999879,42,0.13157900000001632
12571,151.88186049375005,35,0.13157900000001632,40,0.1315789999999879
12572,152.01343949375004,32,0.1315789999999879,38,0.13157900000001632
12573,152.14501849375006,57,0.13157900000001632,64,0.2166065000000117
12574,152.25332174375006,32,0.10830325000000585,35,0.10830325000000585
12575,152.36162499375007,59,0.10830325000000585,68,0.21660649999998327
12576,152.46992824375005,40,0.10830324999997742,39,0.10830325000000585
12577,152.57823149375005,61,0.10830325000000585,72,0.23529400000001033
12578,152.69587849375006,32,0.11764700000000516,35,0.11764700000000516
12579,152.81352549375006,62,0.11764700000000516,77,0.47058799999999223
12580,152.93117249375004,32,0.11764699999997674,37,0.11764700000000516
12581,153.04881949375005,35,0.11764700000000516,39,0.11764700000000516
12582,153.16646649375005,41,0.11764700000000516,41,0.11764700000000516
12583,153.28411349375006,56,0.11764700000000516,75,0.23529400000001033
12584,153.40176049375006,32,0.11764700000000516,36,0.11764700000000516
12585,153.51940749375007,62,0.11764700000000516,78,1.1764699999999948
12586,153.63705449375004,32,0.11764699999997674,39,0.11764700000000516
12587,153.75470149375005,35,0.11764700000000516,43,0.11764700000000516
12588,153.87234849375005,41,0.11764700000000516,48,0.11764700000000516
12589,153.98999549375006,35,0.11764700000000516,45,0.11764700000000516
12590,154.10764249375006,32,0.11764700000000516,41,0.11764699999997674
12591,154.22528949375004,23,0.11764699999997674,40,0.11764700000000516
12592,154.34293649375005,32,0.11764700000000516,40,0.11764700000000516
12593,154.46058349375005,35,0.11764700000000516,43,0.11764700000000516
12594,154.57823049375006,41,0.11764700000000516,45,0.11764700000000516
12595,154.69587749375006,61,0.11764700000000516,76,0.20905899999999633
12596,154.80040699375007,32,0.10452950000001238,36,0.10452949999998395
12597,154.90493649375006,62,0.10452949999998395,81,0.20618550000000369
12598,155.00802924375006,32,0.10309275000000184,40,0.10309275000000184
12599,155.11112199375006,61,0.10309275000000184,78,0.20618550000000369
12600,155.21421474375006,41,0.10309275000000184,47,0.10309275000000184
12601,155.31730749375006,62,0.10309275000000184,78,0.20618550000000369
12602,155.42040024375007,32,0.10309275000000184,40,0.10309275000000184
12603,155.52349299375007,62,0.10309275000000184,81,0.41237099999997895
12604,155.62658574375007,30,0.10309275000000184,43,0.10309274999997342
12605,155.72967849375004,33,0.10309274999997342,47,0.10309275000000184
12606,155.83277124375005,42,0.10309275000000184,50,0.10309275000000184
12607,155.93586399375005,57,0.10309275000000184,82,0.20618550000000369
12608,156.03895674375005,30,0.10309275000000184,43,0.10309275000000184
12609,156.14204949375005,69,0.10309275000000184,95,0.9278347500000166
12610,156.24514224375005,30,0.10309275000000184,50,0.10309275000000184
12611,156.34823499375005,33,0.10309275000000184,55,0.10309275000000184
12612,156.45132774375006,42,0.10309275000000184,58,0.10309275000000184
12613,156.55442049375006,33,0.10309275000000184,55,0.10309275000000184
12614,156.65751324375006,30,0.10309275000000184,52,0.10309275000000184
12615,156.76060599375006,23,0.10309275000000184,62,0.10309275000000184
12616,156.86369874375006,30,0.10309275000000184,50,0.10309275000000184
12617,156.96679149375007,33,0.10309275000000184,55,0.10309275000000184
12618,157.06988424375007,63,0.10309275000000184,80,0.10309275000000184
12619,157.17297699375007,63,0.10309275000000184,80,0.19759443749998695
12620,157.27606974375004,30,0.10309274999997342,51,0.10309275000000184
12621,157.37916249375004,63,0.10309275000000184,93,0.30927825000000553
12622,157.48225524375005,30,0.10309275000000184,57,0.10309275000000184
12623,157.58534799375005,33,0.10309275000000184,61,0.10309275000000184
12624,157.68844074375005,59,0.10309275000000184,89,0.10309275000000184
12625,157.79153349375005,66,0.10309275000000184,92,0.20618550000000369
12626,157.89462624375005,30,0.10309275000000184,59,0.10309275000000184
12627,157.99771899375006,56,0.10309275000000184,101,0.10309275000000184
12628,158.41008999375006,23,0.41237100000000737,70,0.10309275000000184
12629,158.51318274375006,32,0.10309275000000184,75,0.10309275000000184
12630,158.61627549375007,44,0.10309275000000184,97,0.19292599999999993
12631,158.71273849375007,52,0.09646299999999997,75,0.09646299999999997
12632,158.80920149375007,59,0.09646299999999997,79,0.09646299999999997
12633,158.90566449375007,56,0.09646299999999997,83,0.09646299999999997
12634,159.00212749375007,64,0.09646299999999997,87,0.09646299999999997
12635,159.09859049375007,73,0.09646299999999997,91,0.09646299999999997
12636,159.19505349375007,71,0.09646299999999997,96,0.19292599999999993
12637,159.58090549375007,23,0.38585199999999986,68,0.09646299999999997
12638,159.67736849375007,30,0.09646299999999997,74,0.09646299999999997
12639,159.77383149375007,45,0.09646299999999997,97,0.1846155000000067
12640,159.86613924375007,51,0.09230775000000335,75,0.09230775000000335
12641,159.95844699375007,59,0.09230775000000335,80,0.09230775000000335
12642,160.05075474375008,57,0.09230775000000335,84,0.09230775000000335
12643,160.14306249375008,63,0.09230775000000335,88,0.09230774999997493
12644,160.23537024375005,71,0.09230774999997493,93,0.09230775000000335
12645,160.32767799375006,68,0.09230775000000335,97,0.1846155000000067
12646,160.69690899375007,23,0.3692310000000134,70,0.09230775000000335
12647,160.78921674375007,32,0.09230775000000335,75,0.09230775000000335
12648,160.88152449375008,44,0.09230775000000335,97,0.18927450000001045
12649,160.97616174375008,52,0.09463725000000522,75,0.09463725000000522
12650,161.0707989937501,59,0.09463725000000522,79,0.0946372499999768
12651,161.16543624375007,56,0.0946372499999768,83,0.09463725000000522
12652,161.26007349375007,64,0.09463725000000522,87,0.09463725000000522
12653,161.35471074375008,73,0.09463725000000522,91,0.09463725000000522
12654,161.44934799375008,71,0.09463725000000522,96,0.18927450000001045
12655,161.82789699375007,23,0.3785489999999925,68,0.09463725000000522
12656,161.92253424375008,30,0.09463725000000522,74,0.09463725000000522
12657,162.01717149375008,45,0.09463725000000522,97,0.1829270000000065
12658,162.1086349937501,51,0.09146350000000325,75,0.09146350000000325
12659,162.2000984937501,59,0.09146350000000325,80,0.09146350000000325
12660,162.2915619937501,57,0.09146350000000325,84,0.09146350000000325
12661,162.3830254937501,63,0.09146350000000325,88,0.09146349999997483
12662,162.47448899375007,71,0.09146349999997483,93,0.09146350000000325
12663,162.56595249375007,68,0.09146350000000325,97,0.16666649999999095
12664,162.89928549375009,23,0.3333330000000103,68,0.08333324999998126
12665,162.98261874375007,32,0.08333324999998126,74,0.08333325000000968
12666,163.06595199375008,44,0.08333325000000968,97,0.1666061749999983
12667,163.14944007708343,52,0.08348808333335,75,0.0831180916666483
12668,163.23255816875007,59,0.0831180916666483,78,0.08273604999999407
12669,163.31529421875007,56,0.08273604999999407,75,0.08234225000001061
12670,163.39763646875008,64,0.08234225000001061,79,0.08198238333332597
12671,163.4796188520834,71,0.08198238333332597,75,0.08161054999999351
12672,163.5612294020834,64,0.08161054999999351,78,0.08130074999999692
12673,163.6425301520834,56,0.08130074999999692,75,0.08130074999999692
12674,163.7238309020834,59,0.08130074999999692,80,0.08130074999999692
12675,163.8051316520834,52,0.08130074999999692,75,0.08130074999999692
12676,163.8864324020834,44,0.08130074999999692,79,0.08130075000002535
12677,163.9677331520834,47,0.08130075000002535,75,0.08130074999999692
12678,164.0490339020834,40,0.08130074999999692,78,0.08130074999999692
12679,164.1303346520834,32,0.08130074999999692,77,0.08130074999999692
12680,164.2116354020834,35,0.08130074999999692,82,0.08130074999999692
12681,164.2929361520834,28,0.08130074999999692,79,0.08130074999999692
12682,164.3742369020834,20,0.08130074999999692,87,0.08130074999999692
12683,164.4555376520834,28,0.08130074999999692,85,0.08130074999999692
12684,164.5368384020834,16,0.08130074999999692,96,0.09740249999998696
12685,165.1212534020834,52,0.584415000000007,102,0.584415000000007
12686,166.8744984020834,40,1.7532449999999926,52,3.822129500000017
12687,168.0065739020834,40,1.1320755000000133,44,2.6900540000000035
12688,169.5160079020834,38,1.5094339999999988,57,0.24096399999999107
12689,169.7569719020834,40,0.24096399999999107,57,0.2409640000000195
12690,169.9979359020834,43,0.2409640000000195,60,0.23076900000000933
12691,170.22870490208342,41,0.23076900000000933,56,0.2307689999999809
12692,170.4594739020834,40,0.2307689999999809,56,0.2272725833333311
12693,170.6966279020834,43,0.23715400000000386,52,4.050710000000009
12694,171.6856394020834,40,0.9890115000000037,44,3.0616985000000057
12695,173.0043214020834,38,1.3186819999999955,57,0.23076900000000933
12696,173.23509040208342,40,0.23076900000000933,57,0.25862050000000636
12697,173.49371090208342,43,0.25862050000000636,60,0.23809499999998707
12698,173.7318059020834,41,0.23809499999998707,56,0.692951249999993
12699,174.4247571520834,40,0.692951249999993,56,0.29569902083335364
12700,174.74733790208342,40,0.3225807500000144,44,2.8745835
12701,175.9238089020834,38,1.1764709999999923,37,1.1320749999999862
12702,177.0558839020834,36,1.1320749999999862,32,2.8445195000000183
12703,177.62192140208342,40,0.5660375000000215,30,2.278481999999997
12704,179.9004034020834,52,2.278481999999997,53,0.8021387500000117
12705,180.5421144020834,37,0.6417109999999866,32,0.3208555000000217
12706,180.70254215208342,50,0.16042775000002507,45,0.08021387499999832
12707,180.78275602708342,52,0.08021387499999832,45,0.08021387499999832
12708,180.86296990208342,50,0.08021387499999832,50,0.4054057499999999
12709,181.26837565208342,48,0.4054057499999999,47,0.1351352499999905
12710,181.4035109020834,50,0.1351352499999905,50,0.2702705000000094
12711,181.67378140208342,52,0.2702705000000094,53,0.5405409999999904
12712,182.07918715208342,53,0.4054057499999999,50,0.1351352499999905
12713,182.2143224020834,52,0.1351352499999905,48,0.2702705000000094
12714,182.34945765208343,50,0.1351352500000189,43,0.06756762499998104
12715,182.4170252770834,52,0.06756762499998104,43,0.06756762500000946
12716,182.48459290208342,50,0.06756762500000946,52,0.459183749999994
12717,182.94377665208341,48,0.459183749999994,48,0.15306125000000748
12718,183.09683790208342,50,0.15306125000000748,47,0.4878050000000087
12719,183.58464290208343,52,0.4878050000000087,39,0.3584062500000016
12720,183.64561852708343,35,0.060975624999997535,29,0.29743062500000406
12721,183.70659415208343,44,0.060975624999997535,29,0.23645500000000652
12722,183.82854540208342,40,0.12195124999999507,29,0.11450375000001145
12723,183.94304915208343,52,0.11450375000001145,29,0.11450374999998303
12724,184.05755290208342,47,0.11450374999998303,29,0.11450375000001145
12725,184.17205665208343,52,0.11450375000001145,29,0.11450374999998303
12726,184.2865604020834,47,0.11450374999998303,29,0.11450375000001145
12727,184.40106415208342,59,0.11450375000001145,29,0.11450375000001145
12728,184.51556790208343,52,0.11450375000001145,29,0.11450374999998303
12729,184.63007165208342,59,0.11450374999998303,29,0.11450375000001145
12730,184.74457540208343,52,0.11450375000001145,29,0.11450374999998303
12731,184.8590791520834,64,0.11450374999998303,29,0.11450375000001145
12732,184.97358290208342,59,0.11450375000001145,29,0.11450375000001145
12733,185.08808665208343,64,0.11450375000001145,29,0.11904749999999353
12734,185.20713415208343,59,0.11904749999999353,29,0.11904749999999353
12735,185.32618165208342,71,0.11904749999999353,29,0.12295075000000111
12736,185.44913240208342,64,0.12295075000000111,29,0.12295075000000111
12737,185.57208315208342,71,0.12295075000000111,29,0.12295075000000111
12738,185.69503390208342,64,0.12295075000000111,29,0.12295075000000111
12739,185.81798465208342,76,0.12295075000000111,39,0.14150950000001217
12740,186.6670416520834,43,0.8490569999999877,52,3.822129500000017
12741,187.79911715208343,45,1.1320755000000133,44,2.6900540000000035
12742,189.30855115208342,38,1.5094339999999988,57,0.24096399999999107
12743,189.54951515208342,40,0.24096399999999107,57,0.2409640000000195
12744,189.79047915208344,43,0.2409640000000195,60,0.23076900000000933
12745,190.02124815208344,41,0.23076900000000933,56,0.2307689999999809
12746,190.25201715208343,40,0.2307689999999809,56,0.23715400000000386
12747,190.48917115208343,43,0.23715400000000386,52,5.029567250000014
12748,191.47818265208343,45,0.9890115000000037,44,4.04055575000001
12749,192.79686465208343,38,1.3186819999999955,57,0.23076900000000933
12750,193.02763365208344,40,0.23076900000000933,57,0.25862050000000636
12751,193.28625415208344,43,0.25862050000000636,60,0.23809499999998707
12752,193.52434915208343,41,0.23809499999998707,56,0.7192077500000096
12753,194.24355690208344,40,0.7192077500000096,56,0.09842520833333879
12754,194.36166715208344,40,0.11811025000000086,50,0.11811025000000086
12755,194.47977740208344,48,0.11811025000000086,56,0.35714300000000776
12756,194.83692040208345,45,0.35714300000000776,53,0.34090900000001056
12757,195.17782940208346,41,0.34090900000001056,51,0.34090899999998214
12758,195.51873840208344,40,0.34090899999998214,44,2.5350144999999884
12759,196.69520940208344,38,1.1764709999999923,37,0.8823529999999948
12760,197.57756240208343,36,0.8823529999999948,32,0.4761905000000013
12761,198.05375290208343,40,0.4761905000000013,30,2.278481999999997
12762,201.47147590208343,52,3.417722999999995,42,2.0744684999999947
12763,203.54594440208342,54,2.0744684999999947,42,0.2777777500000127
12764,203.82372215208343,57,0.2777777500000127,43,0.22556399999999144
12765,204.04928615208343,55,0.22556399999999144,41,0.17857150000000388
12766,204.22785765208343,52,0.17857150000000388,39,0.17857150000000388
12767,204.40642915208343,48,0.17857150000000388,39,0.24193550000001096
12768,204.64836465208344,47,0.24193550000001096,35,0.06048387499998853
12769,204.76933240208342,47,0.12096774999997706,35,0.12096775000000548
12770,204.89030015208343,59,0.12096775000000548,43,0.6818179999999927
12771,205.4016636520834,38,0.5113634999999874,26,0.34090900000001056
12772,205.57211815208342,57,0.17045450000000528,37,0.08522725000000264
12773,205.65734540208342,59,0.08522725000000264,37,0.08522725000000264
12774,205.74257265208342,57,0.08522725000000264,43,0.430622249999999
12775,206.17319490208342,55,0.430622249999999,39,0.14354074999999966
12776,206.31673565208342,57,0.14354074999999966,39,0.2870814999999993
12777,206.60381715208342,59,0.2870814999999993,42,0.5741629999999986
12778,207.03443940208342,60,0.430622249999999,40,0.14354074999999966
12779,207.17798015208342,59,0.14354074999999966,40,0.2870814999999993
12780,207.32152090208342,57,0.14354074999999966,37,0.07177037499999983
12781,207.39329127708342,59,0.07177037499999983,37,0.07177037499999983
12782,207.46506165208342,57,0.07177037499999983,44,0.5948932499999842
12783,208.0599549020834,55,0.5948932499999842,33,0.22222225000001572
12784,208.28217715208342,57,0.22222225000001572,31,0.42253500000001054
12785,208.70471215208343,59,0.42253500000001054,31,1.5882344999999987
12786,209.76353515208342,23,1.0588229999999896,24,0.3529410000000155
12787,210.29294665208343,47,0.529411500000009,25,0.13043475000000626
12788,210.42338140208344,59,0.13043475000000626,25,0.13043475000000626
12789,210.55381615208344,54,0.13043475000000626,25,0.13043474999997784
12790,210.68425090208342,59,0.13043474999997784,25,0.13043475000000626
12791,210.81468565208343,54,0.13043475000000626,25,0.13043475000000626
12792,210.94512040208343,66,0.13043475000000626,21,0.14705875000001356
12793,211.09217915208345,59,0.14705875000001356,21,0.14705874999998514
12794,211.23923790208343,66,0.14705874999998514,21,0.1744185000000016
12795,211.41365640208343,59,0.1744185000000016,21,0.22900774999999385
12796,211.64266415208343,71,0.22900774999999385,28,0.5
12797,212.64266415208343,59,1.0,44,0.3636365000000126
12798,213.00630065208344,57,0.3636365000000126,44,0.375
12799,213.38130065208344,55,0.375,45,1.371381499999984
12800,213.78130065208344,46,0.4000000000000057,34,0.3208554999999933
12801,213.94172840208344,47,0.16042774999999665,34,0.16042774999999665
12802,214.10215615208344,50,0.16042774999999665,34,0.6505259999999851
12803,214.20910798541678,48,0.10695183333334057,34,0.10695183333334057
12804,214.31605981875012,47,0.10695183333334057,34,0.10695183333331215
12805,214.42301165208343,47,0.10695183333331215,43,1.1799139999999966
12806,214.75268215208342,55,0.32967049999999176,42,0.2941174999999987
12807,215.04679965208342,54,0.2941174999999987,42,0.5561260000000061
12808,215.34091715208342,52,0.2941174999999987,44,0.7683375000000012
12809,215.60292565208343,46,0.2620085000000074,36,0.2531644999999969
12810,215.72950790208344,47,0.12658225000001266,32,0.12658224999998424
12811,215.85609015208342,50,0.12658224999998424,36,0.5063289999999938
12812,215.94047831875008,48,0.08438816666665616,36,0.08438816666668458
12813,216.02486648541677,47,0.08438816666668458,32,0.08438816666665616
12814,216.10925465208342,47,0.08438816666665616,44,1.0021969999999953
12815,216.36241915208342,59,0.2531644999999969,43,0.24793399999998655
12816,216.6103531520834,57,0.24793399999998655,40,0.5010985000000119
12817,216.85828715208342,55,0.24793400000001498,46,0.9940065000000118
12818,217.11145165208342,46,0.2531644999999969,38,0.24489800000000628
12819,217.2339006520834,47,0.12244899999998893,34,0.12244900000001735
12820,217.35634965208342,50,0.12244900000001735,38,0.4959440000000086
12821,217.43798231875007,48,0.08163266666664981,38,0.08163266666667823
12822,217.51961498541675,47,0.08163266666667823,35,0.08163266666667823
12823,217.60124765208343,47,0.08163266666667823,42,0.738851000000011
12824,217.85229365208343,55,0.2510460000000023,43,0.24390249999999014
12825,218.09619615208342,54,0.24390249999999014,41,0.49390250000001856
12826,218.34009865208344,52,0.24390250000001856,47,0.7338709999999935
12827,218.59009865208344,51,0.25,37,0.24193550000001096
12828,218.71106640208345,52,0.12096775000000548,37,0.12096775000000548
12829,218.83203415208345,55,0.12096775000000548,37,0.24193549999998254
12830,218.9126793187501,53,0.0806451666666419,37,0.08064516666667032
12831,218.99332448541676,52,0.08064516666667032,34,0.08064516666667032
12832,219.07396965208343,52,0.08064516666667032,41,1.0324383749999697
12833,219.32396965208343,64,0.25,46,0.23809499999998707
12834,219.56206465208342,62,0.23809499999998707,44,0.5443433749999826
12835,219.81522915208342,60,0.2531644999999969,53,1.0586988749999762
12836,220.1064080270834,51,0.29117887499998574,32,0.24291500000001065
12837,220.22786552708342,52,0.12145750000001954,30,0.12145749999999111
12838,220.34932302708341,55,0.12145749999999111,32,0.5246049999999798
12839,220.43029469375008,53,0.08097166666667022,32,0.08097166666667022
12840,220.51126636041676,52,0.08097166666667022,30,0.0809716666666418
12841,220.5922380270834,52,0.0809716666666418,37,1.0869555000000162
12842,220.8739280270834,60,0.28168999999999755,38,0.24390249999999014
12843,221.11783052708338,59,0.24390249999999014,36,0.5613630000000285
12844,221.3617330270834,57,0.24390250000001856,40,0.8531745000000228
12845,221.6791935270834,51,0.3174605000000099,27,0.26785699999999224
12846,221.8131220270834,52,0.13392849999999612,28,0.13392849999999612
12847,221.9470505270834,55,0.13392849999999612,30,0.5242675000000077
12848,222.0363361937501,53,0.08928566666668303,30,0.0892856666666546
12849,222.12562186041674,52,0.0892856666666546,27,0.08928566666668303
12850,222.21490752708343,52,0.08928566666668303,38,0.9689034999999819
12851,222.4713180270834,64,0.256410499999987,40,0.234375
12852,222.7056930270834,62,0.234375,37,0.47811799999999494
12853,222.94284702708342,60,0.23715400000000386,45,0.947647499999988
12854,223.1838110270834,51,0.24096399999999107,37,0.2298849999999959
12855,223.29875352708342,52,0.11494250000001216,37,0.11494249999998374
12856,223.4136960270834,55,0.11494249999998374,37,0.476798500000001
12857,223.49032436041674,53,0.07662833333333197,37,0.07662833333333197
12858,223.56695269375007,52,0.07662833333333197,34,0.07662833333333197
12859,223.6435810270834,52,0.07662833333333197,42,0.9633970000000147
12860,223.8904945270834,60,0.24691350000000511,44,0.22641500000000292
12861,224.1169095270834,59,0.22641500000000292,42,0.4900685000000067
12862,224.34946752708342,57,0.2325580000000116,47,1.033673499999992
12863,224.60697802708341,51,0.2575104999999951,37,0.24590150000000222
12864,224.72992877708342,52,0.12295075000000111,34,0.12295075000000111
12865,224.85287952708342,55,0.12295075000000111,37,0.24590150000000222
12866,224.93484669375007,53,0.08196716666665793,37,0.08196716666668635
12867,225.01681386041676,52,0.08196716666668635,34,0.08196716666665793
12868,225.09878102708342,52,0.08196716666665793,41,0.804191000000003
12869,225.3831410270834,59,0.2843599999999924,43,0.2531644999999969
12870,225.6363055270834,60,0.2531644999999969,42,0.2666665000000137
12871,225.90297202708342,59,0.2666665000000137,50,0.7136390000000006
12872,226.15507302708343,46,0.25210100000001034,32,0.23076900000000933
12873,226.27045752708344,47,0.11538450000000466,30,0.11538450000000466
12874,226.38584202708344,50,0.11538450000000466,32,0.2307689999999809
12875,226.46276502708344,48,0.07692299999999364,32,0.07692299999999364
12876,226.53968802708343,47,0.07692299999999364,30,0.07692299999999364
12877,226.61661102708342,47,0.07692299999999364,37,0.9765689999999836
12878,226.8730215270834,57,0.256410499999987,47,0.23076900000000933
12879,227.10379052708342,55,0.23076900000000933,47,0.2307689999999809
12880,227.3345595270834,54,0.2307689999999809,53,1.0356155000000058
12881,227.5931800270834,46,0.25862050000000636,38,0.24896250000000464
12882,227.7176612770834,47,0.12448125000000232,35,0.12448125000000232
12883,227.8421425270834,50,0.12448125000000232,38,0.5280324999999948
12884,227.9251300270834,48,0.08298750000000155,38,0.08298750000000155
12885,228.0081175270834,47,0.08298750000000155,35,0.08298750000000155
12886,228.09110502708342,47,0.08298750000000155,46,1.1008645000000001
12887,228.3701750270834,54,0.27906999999999016,47,0.2666665000000137
12888,228.63684152708342,52,0.2666665000000137,44,0.26666649999998526
12889,228.9035080270834,51,0.26666649999998526,52,0.8492095000000006
12890,229.19196952708342,46,0.28846150000001103,41,0.2803739999999948
12891,229.3321565270834,47,0.1401869999999974,39,0.1401869999999974
12892,229.4723435270834,50,0.1401869999999974,41,0.5494324999999947
12893,229.5658015270834,48,0.09345799999999826,41,0.09345799999999826
12894,229.6592595270834,47,0.09345799999999826,38,0.09345799999999826
12895,229.7527175270834,47,0.09345799999999826,52,1.006887000000006
12896,230.0217760270834,57,0.26905849999999987,43,0.23904400000000692
12897,230.2608200270834,55,0.23904400000000692,41,0.23904400000000692
12898,230.49986402708342,54,0.23904400000000692,47,2.3894214999999974
12899,230.7596045270834,49,0.2597404999999924,38,2.129681000000005
12900,230.8851275270834,50,0.12552299999998695,36,0.12552300000001537
12901,231.0106505270834,54,0.12552300000001537,38,1.8786350000000027
12902,231.10588869375007,52,0.09523816666666107,38,0.09523816666666107
12903,231.20112686041674,50,0.09523816666666107,35,0.0952381666666895
12904,231.29636502708343,50,0.0952381666666895,41,1.592920499999991
12905,231.8273385270834,55,0.5309734999999876,34,0.530973500000016
12906,232.35831202708343,57,0.530973500000016,34,0.5309734999999876
12907,232.88928552708342,47,0.5309734999999876,35,0.5625
12908,232.98303552708342,50,0.09375,37,0.09375
12909,233.07678552708342,55,0.09375,40,0.1875
12910,233.17053552708342,59,0.09375,42,0.09375
12911,233.26428552708342,57,0.09375,44,0.1875
12912,233.35803552708342,55,0.09375,42,0.09375
12913,233.45178552708342,59,0.09375,38,0.47868820833332393
12914,233.53157277708343,62,0.07978725000000964,40,0.07978724999998121
12915,233.6113600270834,67,0.07978724999998121,43,0.15957450000001927
12916,233.69114727708342,71,0.07978725000000964,46,0.07978725000000964
12917,233.77093452708343,69,0.07978725000000964,50,0.1595392083333138
12918,233.8507217770834,67,0.07978724999998121,47,0.0797519583333326
12919,233.93047373541674,62,0.0797519583333326,44,0.15932745833333684
12920,234.01004923541674,59,0.07957550000000424,43,0.0797519583333326
12921,234.08980119375008,57,0.0797519583333326,42,0.1600360833333241
12922,234.1697302770834,55,0.07992908333332593,41,0.08010699999999815
12923,234.2498372770834,50,0.08010699999999815,40,0.1607507083332962
12924,234.33012294375007,47,0.08028566666666848,39,0.08046504166662771
12925,234.4105879854167,45,0.08046504166662771,38,0.48678683333329786
12926,234.4912332354167,43,0.08064525000000344,37,0.08086249999999495
12927,234.5720957354167,38,0.08086249999999495,36,0.08104458333332332
12928,234.65314031875002,47,0.08104458333332332,39,0.08122750000001133
12929,234.73436781875003,45,0.08122750000001133,38,0.08141124999997373
12930,234.81577906875,43,0.08141124999997373,37,0.08159574999999109
12931,234.89737481875,40,0.08159574999999109,36,0.08057645833332572
12932,234.97795127708332,43,0.08057645833332572,34,0.07978758333334213
12933,235.05773886041666,45,0.07978758333334213,37,0.1577589583333463
12934,235.13689486041667,48,0.07915600000001177,39,0.07860295833333453
12935,235.21549781875,52,0.07860295833333453,41,0.1554437083332516
12936,235.29352169374997,55,0.07802387499995689,43,0.07741983333329472
12937,235.37094152708326,57,0.07741983333329472,46,0.07698891666666441
12938,235.44793044374993,60,0.07698891666666441,48,0.07725325000001249
12939,235.52518369374994,64,0.07725325000001249,50,0.15560954166667784
12940,235.60280356874995,67,0.07761987500001055,51,0.07798966666666729
12941,235.68079323541662,69,0.07798966666666729,49,0.15703516666667383
12942,235.7591224020833,72,0.07832916666669121,47,0.07870599999998262
12943,235.8378284020833,71,0.07870599999998262,50,0.08064525000000344
12944,235.9184736520833,69,0.08064525000000344,49,0.08064525000000344
12945,235.9991189020833,66,0.08064525000000344,49,0.7881817083333544
12946,236.0776529020833,60,0.07853399999999056,48,0.07853400000001898
12947,236.1561869020833,59,0.07853400000001898,47,0.15703383333334386
12948,236.2347209020833,57,0.07853399999999056,46,0.07849983333335331
12949,236.31322073541665,54,0.07849983333335331,45,0.15703445833332808
12950,236.39161806874995,50,0.07839733333329946,44,0.07863712500002862
12951,236.47025519374998,54,0.07863712500002862,45,0.15799924999998893
12952,236.54913344374995,52,0.07887824999997406,42,0.07912100000001487
12953,236.62825444374997,35,0.07912100000001487,48,0.15904616666668403
12954,236.7076545270833,48,0.07940008333332571,37,0.07964608333335832
12955,236.78730061041665,31,0.07964608333335832,35,0.4645002499999862
12956,236.86539177708332,50,0.07809116666666682,37,0.07782112500001404
12957,236.94321290208333,55,0.07782112500001404,40,0.1548396666666747
12958,237.02079931875,59,0.07758641666666222,42,0.07725325000001249
12959,237.09805256875,57,0.07725325000001249,44,0.15374829166663062
12960,237.17507444375,55,0.07702187499998558,42,0.07672641666664504
12961,237.25180086041664,59,0.07672641666664504,38,0.4609507500000234
12962,237.32833136041663,62,0.07653049999998984,40,0.07662837500001274
12963,237.40495973541664,67,0.07662837500001274,43,0.15364925000000085
12964,237.48168598541665,71,0.07672625000000721,46,0.07692299999999364
12965,237.55860898541664,69,0.07692299999999364,50,0.15414262500001996
12966,237.63563086041665,67,0.077021875000014,47,0.07712075000000596
12967,237.71275161041666,62,0.07712075000000596,44,0.15444024999996486
12968,237.78987236041664,59,0.07712074999997753,43,0.07731949999998733
12969,237.86719186041663,57,0.07731949999998733,42,0.15523974999999268
12970,237.94471136041662,55,0.07751949999999397,41,0.07772024999999871
12971,238.02243161041662,50,0.07772024999999871,40,0.15604700000000093
12972,238.10035361041662,47,0.07792200000000093,39,0.078125
12973,238.17847861041662,45,0.078125,38,0.47310633333333385
12974,238.25680761041662,43,0.07832899999999654,37,0.07853399999999056
12975,238.3353416104166,38,0.07853399999999056,36,0.07874025000000984
12976,238.41408186041662,47,0.07874025000000984,39,0.0789472499999988
12977,238.49302911041661,45,0.0789472499999988,38,0.0791557500000124
12978,238.57218486041663,43,0.0791557500000124,37,0.07940008333332571
12979,238.65158494374995,40,0.07940008333332571,36,0.07947025000001418
12980,238.73105519374997,43,0.07947025000001418,34,0.07455061875000979
12981,238.81021106874996,45,0.07915587499999788,37,0.15727491666666538
12982,238.88902031874997,48,0.07880925000000616,39,0.07846566666665922
12983,238.96748598541663,52,0.07846566666665922,41,0.1559462916667087
12984,239.04561115208332,55,0.07812516666669467,43,0.07782112500001404
12985,239.12343227708334,57,0.07782112500001404,46,0.07751949999999397
12986,239.20095177708333,60,0.07751949999999397,48,0.07765333333335889
12987,239.2786051104167,64,0.07765333333335889,50,0.15577695833331973
12988,239.35642623541668,67,0.07782112499998561,51,0.07795583333333411
12989,239.43438206875,69,0.07795583333333411,49,0.15645399999999654
12990,239.51250706875,72,0.078125,47,0.07832899999999654
12991,239.59083606875,71,0.07832899999999654,47,0.08021400000001222
12992,239.67105006875002,69,0.08021400000001222,48,0.0802139999999838
12993,239.75126406875,66,0.0802139999999838,49,0.7861133333333044
12994,239.82959306875,60,0.07832899999999654,50,0.07832899999999654
12995,239.90792206875,59,0.07832899999999654,51,0.1570080000000189
12996,239.98625106875,57,0.07832899999999654,52,0.07867900000002237
12997,240.06493006875002,54,0.07867900000002237,53,0.15682883333332143
12998,240.14325906875,50,0.07832899999999654,52,0.07849983333332489
12999,240.22175890208334,54,0.07849983333332489,51,0.15748074999999062
13000,240.30043040208332,52,0.07867149999998446,51,0.07880925000000616
13001,240.37923965208333,50,0.07880925000000616,53,0.15813774999998031
13002,240.4582216520833,48,0.07898199999996791,57,0.0791557500000124
13003,240.5373774020833,47,0.0791557500000124,56,0.4712256666666974
13004,240.6166726520833,50,0.07929525000000126,59,0.07901674999999386
13005,240.6956894020833,55,0.07901674999999386,61,0.15706883333334076
13006,240.7743609020833,59,0.07867149999998446,63,0.0783973333333563
13007,240.85275823541664,57,0.0783973333333563,65,0.15584483333336152
13008,240.93081556874998,55,0.07805733333333364,63,0.07778750000002788
13009,241.00860306875,26,0.07778750000002788,67,0.07772024999999871
13010,241.08632331875,62,0.07772024999999871,61,0.07772024999999871
13011,241.16404356875,38,0.07772024999999871,74,0.15544049999999743
13012,241.24176381875,71,0.07772024999999871,66,0.07772024999999871
13013,241.31948406875,35,0.07772024999999871,74,0.15544049999999743
13014,241.39720431875,67,0.07772024999999871,65,0.07772024999999871
13015,241.47492456875,36,0.07772024999999871,70,0.15544049999999743
13016,241.55264481875,60,0.07772024999999871,61,0.07772024999999871
13017,241.63036506875,39,0.07772024999999871,77,0.31088099999999486
13018,241.70808531875,55,0.07772024999999871,60,0.07772024999999871
13019,241.78580556875,51,0.07772024999999871,59,0.07772024999999871
13020,241.86352581875,48,0.07772024999999871,58,0.07772024999999871
13021,241.94124606875,45,0.07772024999999871,57,0.07778749999999945
13022,242.01903356875,43,0.07778749999999945,56,0.07805733333336207
13023,242.09709090208335,39,0.07805733333336207,55,0.07832916666666279
13024,242.17542006875001,36,0.07832916666666279,54,0.07860275000001593
13025,242.25402281875003,33,0.07860275000001593,53,0.07887824999997406
13026,242.33290106875,31,0.07887824999997406,52,0.0791558750000263
13027,242.41205694375003,19,0.0791558750000263,66,0.47041062500002795
13028,242.49131731875002,38,0.07926037499998984,51,0.07891300000002843
13029,242.57023031875005,31,0.07891300000002843,52,0.1567955833333201
13030,242.64879890208337,47,0.07856858333332184,53,0.07822699999999827
13031,242.72702590208337,45,0.07822699999999827,54,0.15544166666668957
13032,242.8049144854167,43,0.07788858333333337,52,0.0775530833333562
13033,242.88246756875006,14,0.0775530833333562,68,0.07722012499999664
13034,242.95968769375006,50,0.07722012499999664,51,0.07689037500000495
13035,243.03657806875006,31,0.07689037500000495,68,0.15280245833332629
13036,243.1131414020834,59,0.07656333333332555,57,0.07623912500000074
13037,243.1893805270834,26,0.07623912500000074,68,0.15189849999998728
13038,243.2653297770834,55,0.07594925000000785,57,0.07594924999997943
13039,243.34127902708337,24,0.07594924999997943,75,0.1518985000000157
13040,243.41722827708338,48,0.07594925000000785,61,0.07594925000000785
13041,243.4931775270834,27,0.07594925000000785,86,0.303797000000003
13042,243.5691267770834,43,0.07594925000000785,64,0.07594924999997943
13043,243.64507602708338,39,0.07594924999997943,66,0.07594925000000785
13044,243.72102527708338,36,0.07594925000000785,67,0.07594925000000785
13045,243.7969745270834,33,0.07594925000000785,69,0.0760780416666762
13046,243.87305256875007,31,0.0760780416666762,71,0.07662874999999758
13047,243.94968131875007,27,0.07662874999999758,73,0.0772205000000099
13048,244.02690181875008,24,0.0772205000000099,74,0.07782149999997046
13049,244.10472331875005,21,0.07782149999997046,76,0.07843187499994997
13050,244.18315519375,19,0.07843187499994997,78,0.07905187500003308
13051,244.26220706875003,7,0.07905187500003308,98,0.16260149999999385
13052,244.42480856875002,26,0.16260149999999385,73,0.07653049999998984
13053,244.50133906875,31,0.07653049999998984,68,0.07653050000001826
13054,244.57786956875003,36,0.07653050000001826,68,0.07653049999998984
13055,244.65440006875002,35,0.07653049999998984,68,0.07653049999998984
13056,244.73093056875,38,0.07653049999998984,73,0.07653050000001826
13057,244.80746106875003,43,0.07653050000001826,67,0.07653049999998984
13058,244.88399156875002,48,0.07653049999998984,67,0.07653050000001826
13059,244.96052206875004,47,0.07653050000001826,68,0.07653049999998984
13060,245.03705256875003,50,0.07653049999998984,72,0.07653049999998984
13061,245.11358306875002,55,0.07653049999998984,73,0.07653050000001826
13062,245.19011356875004,31,0.07653050000001826,80,0.15306099999997969
13063,245.26664406875003,59,0.07653049999998984,71,0.07653049999998984
13064,245.34317456875002,62,0.07653049999998984,71,0.07653050000001826
13065,245.41970506875003,67,0.07653050000001826,71,0.07653049999998984
13066,245.49623556875002,72,0.07653049999998984,71,0.07653049999998984
13067,245.57276606875,71,0.07653049999998984,71,0.07653050000001826
13068,245.64929656875003,67,0.07653050000001826,77,0.07653049999998984
13069,245.72582706875002,62,0.07653049999998984,71,0.07653049999998984
13070,245.80235756875,60,0.07653049999998984,71,0.07653050000001826
13071,245.87888806875003,59,0.07653050000001826,71,0.07653049999998984
13072,245.95541856875002,55,0.07653049999998984,71,0.07653049999998984
13073,246.03194906875,50,0.07653049999998984,71,0.07653050000001826
13074,246.10847956875003,48,0.07653050000001826,71,0.07633599999999774
13075,246.18481556875003,47,0.07633599999999774,72,0.07653049999998984
13076,246.26134606875002,43,0.07653049999998984,73,0.07675904166666214
13077,246.33810511041668,38,0.07675904166666214,75,0.07695595833331481
13078,246.41506106875,36,0.07695595833331481,77,0.0771869999999808
13079,246.49224806874997,35,0.0771869999999808,78,0.07738616666665621
13080,246.56963423541663,31,0.07738616666665621,80,0.07761987500003897
13081,246.64725411041667,26,0.07761987500003897,81,0.07782112499998561
13082,246.72507523541665,24,0.07782112499998561,82,0.07805733333333364
13083,246.80313256875,23,0.07805733333333364,84,0.0782609999999977
13084,246.88139356874998,19,0.0782609999999977,86,0.07849983333332489
13085,246.9598934020833,14,0.07849983333332489,88,0.07870587499996873
13086,247.03859927708328,7,0.07870587499996873,96,0.4736834999999928
13087,247.98596627708326,40,0.9473669999999856,65,4.1945470000000284
13088,249.11804177708328,40,1.1320755000000133,55,3.062471500000015
13089,250.62747577708328,38,1.5094339999999988,71,0.2666665000000137
13090,250.8941422770833,40,0.2666665000000137,71,0.26666649999998526
13091,251.16080877708328,43,0.26666649999998526,75,0.2955665000000067
13092,251.45637527708328,41,0.2955665000000067,70,0.5098522499999945
13093,251.96622752708328,40,0.5098522499999945,64,0.19642860416666963
13094,252.1805132770833,43,0.21428575000001615,65,5.228838500000023
13095,253.23933627708328,40,1.0588229999999896,55,4.170015500000034
13096,254.6511002770833,38,1.4117640000000051,67,0.2702705000000094
13097,254.9213707770833,40,0.2702705000000094,67,0.270270499999981
13098,255.19164127708328,43,0.270270499999981,72,0.2985074999999995
13099,255.49014877708328,41,0.2985074999999995,66,0.5815262500000244
13100,256.0716750270833,40,0.5815262500000244,57,0.11792447916661786
13101,256.2131844020833,40,0.14150937499999827,54,0.8493463749999819
13102,256.3520732770833,48,0.13888887500002056,63,0.36363649999998415
13103,256.7157097770833,45,0.36363649999998415,62,0.6936420000000112
13104,257.0625307770833,41,0.3468209999999772,57,0.346821000000034
13105,257.4093517770833,43,0.346821000000034,52,2.464150000000018
13106,258.5858227770833,38,1.1764709999999923,43,0.8955220000000281
13107,259.48134477708334,36,0.8955220000000281,37,2.670638999999994
13108,259.87350177708333,40,0.3921569999999974,35,2.278481999999997
13109,262.15198377708333,52,2.278481999999997,53,0.828728749999982
13110,262.8149667770833,34,0.662982999999997,32,0.3314915000000269
13111,262.9807125270833,50,0.16574574999998504,45,0.08287287500002094
13112,263.06358540208333,52,0.08287287500002094,45,0.08287287500002094
13113,263.14645827708335,50,0.08287287500002094,50,0.4245285000000081
13114,263.57098677708336,48,0.4245285000000081,47,0.14150949999998375
13115,263.71249627708335,50,0.14150949999998375,50,0.28301900000002433
13116,263.99551527708337,52,0.28301900000002433,53,0.5660379999999918
13117,264.4200437770834,53,0.4245285000000081,50,0.14150949999998375
13118,264.56155327708336,52,0.14150949999998375,48,0.2830189999999675
13119,264.70306277708335,50,0.14150949999998375,43,0.07075474999999187
13120,264.77381752708334,52,0.07075474999999187,43,0.07075474999999187
13121,264.84457227708333,50,0.07075474999999187,52,0.45918375000002243
13122,265.30375602708335,48,0.45918375000002243,48,0.15306124999995063
13123,265.4568172770833,50,0.15306124999995063,47,0.4878049999999803
13124,265.9446222770833,52,0.4878049999999803,39,0.35840625000003
13125,266.0055979020833,35,0.06097562500002596,29,0.29743062500000406
13126,266.0665735270833,44,0.060975624999969114,29,0.23645500000003494
13127,266.18852477708333,40,0.12195125000005191,29,0.11450374999998303
13128,266.3030285270833,52,0.11450374999998303,29,0.11450375000003987
13129,266.41753227708335,47,0.11450375000003987,29,0.11450374999998303
13130,266.53203602708334,52,0.11450374999998303,29,0.11450374999998303
13131,266.6465397770833,47,0.11450374999998303,29,0.11450374999998303
13132,266.7610435270833,59,0.11450374999998303,29,0.11450375000003987
13133,266.87554727708334,52,0.11450375000003987,29,0.11450374999998303
13134,266.9900510270833,59,0.11450374999998303,29,0.11450374999998303
13135,267.1045547770833,52,0.11450374999998303,29,0.11450375000003987
13136,267.21905852708335,64,0.11450375000003987,29,0.11450374999998303
13137,267.33356227708333,59,0.11450374999998303,29,0.11450374999998303
13138,267.4480660270833,64,0.11450374999998303,29,0.11904750000002196
13139,267.56711352708334,59,0.11904750000002196,29,0.11904749999996511
13140,267.6861610270833,71,0.11904749999996511,29,0.12295074999997269
13141,267.8091117770833,64,0.12295074999997269,29,0.12295075000002953
13142,267.9320625270833,71,0.12295075000002953,29,0.12295074999997269
13143,268.0550132770833,64,0.12295074999997269,29,0.12295075000002953
13144,268.1779640270833,76,0.12295075000002953,39,0.14999999999997726
13145,269.0779640270833,40,0.8999999999999773,44,4.685231999999985
13146,270.2861795270833,45,1.2082154999999943,37,3.4770164999999906
13147,271.89713352708327,38,1.6109539999999924,48,0.2985075000000279
13148,272.1956410270833,40,0.2985075000000279,48,0.29850749999997106
13149,272.49414852708327,43,0.29850749999997106,51,0.3614460000000008
13150,272.85559452708327,41,0.3614460000000008,47,0.6323722500000031
13151,273.4879667770833,40,0.6323722500000031,47,0.2752292499999953
13152,273.76319602708327,40,0.2752292499999953,44,5.746693499999992
13153,274.81879102708325,45,1.0555949999999825,37,4.69109850000001
13154,276.22625102708326,38,1.4074600000000146,48,0.3076924999999733
13155,276.53394352708324,40,0.3076924999999733,48,0.3076925000000301
13156,276.84163602708327,43,0.3076925000000301,51,0.35714300000000776
13157,277.1987790270833,41,0.35714300000000776,47,0.35714300000000776
13158,277.5559220270833,40,0.35714300000000776,47,0.3899081041666932
13159,277.9687659020833,40,0.4128438750000214,40,1.3030283749999398
13160,278.1063805270833,48,0.13761462499996924,36,0.22556400000001986
13161,278.3319445270833,47,0.22556400000001986,33,0.22556399999996302
13162,278.55750852708326,50,0.22556399999996302,39,0.23809525000001486
13163,278.7956037770833,48,0.23809525000001486,38,0.23809524999995801
13164,279.03369902708323,45,0.23809524999995801,36,0.23809525000001486
13165,279.27179427708325,41,0.23809525000001486,35,0.23809525000001486
13166,279.50988952708326,40,0.23809525000001486,37,2.76216450000004
13167,280.76547052708327,38,1.2555810000000065,31,0.9756100000000174
13168,281.7410805270833,36,0.9756100000000174,27,2.9627495000000295
13169,282.2720540270833,40,0.530973500000016,25,2.4317760000000135
13170,285.84307102708334,52,3.5710170000000403,42,2.074468500000023
13171,287.91753952708336,54,2.074468500000023,42,0.2777777499999843
13172,288.19531727708335,57,0.2777777499999843,43,0.22556400000001986
13173,288.42088127708337,55,0.22556400000001986,41,0.17857149999997546
13174,288.59945277708334,52,0.17857149999997546,39,0.1785715000000323
13175,288.7780242770834,48,0.1785715000000323,39,0.24193550000001096
13176,289.0199597770834,47,0.24193550000001096,35,0.06048387499998853
13177,289.14092752708336,47,0.12096774999997706,35,0.1209677500000339
13178,289.2618952770834,59,0.1209677500000339,43,0.6818180000000211
13179,289.7732587770834,44,0.5113635000000158,26,0.34090900000001056
13180,289.9437132770834,57,0.17045450000000528,37,0.08522725000000264
13181,290.0289405270834,59,0.08522725000000264,37,0.08522725000000264
13182,290.1141677770834,57,0.08522725000000264,43,0.430622249999999
13183,290.5447900270834,55,0.430622249999999,39,0.14354074999999966
13184,290.6883307770834,57,0.14354074999999966,39,0.2870814999999993
13185,290.9754122770834,59,0.2870814999999993,42,0.5741629999999986
13186,291.4060345270834,60,0.430622249999999,40,0.14354074999999966
13187,291.5495752770834,59,0.14354074999999966,40,0.2870814999999993
13188,291.6931160270834,57,0.14354074999999966,37,0.07177037500002825
13189,291.76488640208345,59,0.07177037500002825,37,0.07177037499997141
13190,291.8366567770834,57,0.07177037499997141,44,0.594893250000041
13191,292.43155002708346,55,0.594893250000041,33,0.22222224999995888
13192,292.6537722770834,57,0.22222224999995888,31,0.4225349999999821
13193,293.0763072770834,59,0.4225349999999821,31,1.5882344999999987
13194,294.1351302770834,23,1.058823000000018,24,0.35294099999998707
13195,294.6645417770834,47,0.5294114999999806,25,0.13043475000000626
13196,294.7949765270834,59,0.13043475000000626,25,0.13043475000000626
13197,294.9254112770834,54,0.13043475000000626,25,0.13043475000000626
13198,295.0558460270834,59,0.13043475000000626,25,0.13043475000000626
13199,295.1862807770834,54,0.13043475000000626,25,0.13043474999994942
13200,295.3167155270834,66,0.13043474999994942,21,0.14705874999998514
13201,295.46377427708336,59,0.14705874999998514,21,0.14705875000004198
13202,295.6108330270834,66,0.14705875000004198,21,0.1744185000000016
13203,295.7852515270834,59,0.1744185000000016,21,0.22900774999999385
13204,296.0142592770834,71,0.22900774999999385,28,0.5
13205,297.0142592770834,59,1.0,44,0.36363649999998415
13206,297.3778957770834,57,0.36363649999998415,44,0.375
13207,297.7528957770834,55,0.375,45,1.371381499999984
13208,298.15289577708336,46,0.39999999999997726,34,0.3208554999999933
13209,298.31332352708336,47,0.16042774999999665,31,0.16042774999999665
13210,298.47375127708335,50,0.16042774999999665,34,0.6505260000000135
13211,298.58070311041666,48,0.10695183333331215,34,0.106951833333369
13212,298.68765494375003,47,0.106951833333369,32,0.10695183333331215
13213,298.79460677708335,47,0.10695183333331215,43,1.1799139999999966
13214,299.12427727708337,55,0.3296705000000202,42,0.2941175000000271
13215,299.4183947770834,54,0.2941175000000271,39,0.5561259999999493
13216,299.71251227708336,52,0.2941174999999703,44,0.7683374999999728
13217,299.97452077708334,46,0.262008499999979,36,0.2531645000000253
13218,300.10110302708335,47,0.12658225000001266,33,0.12658225000001266
13219,300.22768527708337,50,0.12658225000001266,36,0.5063289999999938
13220,300.31207344375,48,0.08438816666665616,36,0.08438816666665616
13221,300.3964616104167,47,0.08438816666665616,33,0.08438816666665616
13222,300.48084977708334,47,0.08438816666665616,44,1.0021970000000238
13223,300.73401427708336,59,0.2531645000000253,43,0.24793399999998655
13224,300.98194827708335,57,0.24793399999998655,39,0.5010985000000119
13225,301.22988227708333,55,0.24793399999998655,46,0.9940065000000118
13226,301.48304677708336,46,0.2531645000000253,38,0.24489799999997786
13227,301.6054957770834,47,0.12244900000001735,35,0.1224489999999605
13228,301.72794477708334,50,0.1224489999999605,38,0.4959440000000086
13229,301.80957744375,48,0.08163266666667823,38,0.08163266666667823
13230,301.8912101104167,47,0.08163266666667823,36,0.08163266666667823
13231,301.9728427770834,47,0.08163266666667823,42,0.7388509999999542
13232,302.22388877708335,55,0.2510459999999739,43,0.24390249999999014
13233,302.46779127708334,54,0.24390249999999014,38,0.49390249999999014
13234,302.7116937770833,52,0.24390249999999014,47,0.7338710000000219
13235,302.9616937770833,51,0.25,37,0.24193550000001096
13236,303.0826615270833,52,0.12096774999997706,35,0.1209677500000339
13237,303.20362927708334,55,0.1209677500000339,37,0.24193550000001096
13238,303.28427444375,53,0.08064516666667032,37,0.08064516666667032
13239,303.3649196104167,52,0.08064516666667032,35,0.07056452083332942
13240,303.44556477708335,52,0.08064516666667032,41,1.0169533333333334
13241,303.69556477708335,64,0.25,46,0.23809499999998707
13242,303.93365977708334,62,0.23809499999998707,43,0.5288583333333463
13243,304.1765747770833,60,0.24291499999998223,53,1.036090333333334
13244,304.4625181104167,51,0.2859433333333641,32,0.24291499999998223
13245,304.58397561041664,52,0.12145749999996269,30,0.12145750000001954
13246,304.70543311041666,55,0.12145750000001954,32,0.5072319999999877
13247,304.7864047770833,53,0.0809716666666418,32,0.08097166666669864
13248,304.86737644375,52,0.08097166666669864,30,0.07085020833329736
13249,304.94834811041665,52,0.0809716666666418,37,1.0390145000000075
13250,305.21266511041665,60,0.26431700000000546,38,0.23809499999998707
13251,305.45076011041664,59,0.23809499999998707,36,0.536602500000015
13252,305.6888551104166,57,0.23809499999998707,40,0.8390485000000467
13253,305.98736261041665,51,0.2985075000000279,27,0.270270499999981
13254,306.1224978604167,52,0.1351352500000189,27,0.13513524999996207
13255,306.25763311041663,55,0.13513524999996207,30,0.5311400000000503
13256,306.34772327708333,53,0.09009016666669822,30,0.09009016666664138
13257,306.43781344375,52,0.09009016666664138,29,0.07882889583333963
13258,306.5279036104167,52,0.09009016666669822,38,0.9733625000000075
13259,306.7887731104167,64,0.2608695000000125,40,0.234375
13260,307.0231481104167,62,0.234375,38,0.47811799999999494
13261,307.26030211041666,60,0.23715399999997544,45,0.9476475000000164
13262,307.5012661104167,51,0.2409640000000195,37,0.22988500000002432
13263,307.61620861041666,52,0.11494249999998374,37,0.11494250000004058
13264,307.7311511104167,55,0.11494250000004058,37,0.4767984999999726
13265,307.80777944375,53,0.07662833333330354,37,0.07662833333336039
13266,307.88440777708337,52,0.07662833333336039,34,0.0670497916666477
13267,307.96103611041667,52,0.07662833333330354,42,0.9633969999999863
13268,308.2079496104167,60,0.24691350000000511,44,0.2264149999999745
13269,308.43436461041665,59,0.2264149999999745,40,0.4900685000000067
13270,308.66692261041663,57,0.23255799999998317,47,1.0336735000000203
13271,308.92443311041666,51,0.2575105000000235,37,0.24590150000000222
13272,309.04738386041663,52,0.12295074999997269,35,0.12295075000002953
13273,309.17033461041666,55,0.12295075000002953,37,0.24590150000000222
13274,309.25230177708335,53,0.08196716666668635,37,0.08196716666662951
13275,309.33426894375,52,0.08196716666662951,35,0.07172127083333635
13276,309.41623611041666,52,0.08196716666668635,41,0.804191000000003
13277,309.70059611041665,59,0.2843599999999924,43,0.2531645000000253
13278,309.9537606104167,60,0.2531645000000253,40,0.26666649999998526
13279,310.22042711041667,59,0.26666649999998526,50,0.7136390000000006
13280,310.47252811041665,46,0.2521009999999819,32,0.23076900000000933
13281,310.58791261041665,47,0.11538450000000466,30,0.11538450000000466
13282,310.70329711041666,50,0.11538450000000466,32,0.23076900000000933
13283,310.7802201104166,48,0.07692299999996521,32,0.07692300000002206
13284,310.85714311041664,47,0.07692300000002206,30,0.0673076250000122
13285,310.93406611041667,47,0.07692300000002206,37,0.9765690000000404
13286,311.1904766104167,57,0.2564105000000154,47,0.23076900000000933
13287,311.4212456104167,55,0.23076900000000933,44,0.23076900000000933
13288,311.6520146104167,54,0.23076900000000933,53,1.0356155000000058
13289,311.9106351104167,46,0.25862050000000636,38,0.24896250000000464
13290,312.0351163604167,47,0.1244812499999739,38,0.12448125000003074
13291,312.1595976104167,50,0.12448125000003074,38,0.5280324999999948
13292,312.2425851104167,48,0.08298750000000155,38,0.08298750000000155
13293,312.3255726104167,47,0.08298750000000155,35,0.07261406250000846
13294,312.4085601104167,47,0.08298750000000155,46,1.1008645000000001
13295,312.6876301104167,54,0.27906999999999016,47,0.26666649999998526
13296,312.9542966104167,52,0.26666649999998526,44,0.2666665000000421
13297,313.22096311041673,51,0.2666665000000421,52,0.8492094999999722
13298,313.5094246104167,46,0.2884614999999826,41,0.2803739999999948
13299,313.64961161041674,47,0.14018700000002582,38,0.14018699999996898
13300,313.7897986104167,50,0.14018699999996898,41,0.5494325000000231
13301,313.8832566104167,48,0.09345799999999826,41,0.09345799999999826
13302,313.9767146104167,47,0.09345799999999826,38,0.0817757500000198
13303,314.0701726104167,47,0.09345799999999826,52,1.006887000000063
13304,314.33923111041673,57,0.2690585000000283,43,0.2390439999999785
13305,314.5782751104167,55,0.2390439999999785,39,0.23904400000003534
13306,314.81731911041675,54,0.23904400000003534,47,2.389421499999969
13307,315.07705961041677,49,0.2597405000000208,38,2.129680999999948
13308,315.20258261041675,50,0.12552299999998695,36,0.12552299999998695
13309,315.32810561041674,54,0.12552299999998695,38,1.8786349999999743
13310,315.4233437770834,52,0.09523816666666107,38,0.09523816666666107
13311,315.51858194375006,50,0.09523816666666107,35,0.08333339583333554
13312,315.6138201104167,50,0.09523816666666107,41,1.592920499999991
13313,316.14479361041674,55,0.530973500000016,34,0.5309734999999591
13314,316.6757671104167,57,0.5309734999999591,34,0.530973500000016
13315,317.2067406104167,47,0.530973500000016,35,0.5625
13316,317.3004906104167,50,0.09375,37,0.09375
13317,317.3942406104167,55,0.09375,40,0.1875
13318,317.4879906104167,59,0.09375,42,0.09375
13319,317.5817406104167,57,0.09375,44,0.1875
13320,317.6754906104167,55,0.09375,42,0.09375
13321,317.7692406104167,59,0.09375,38,0.47868820833338077
13322,317.8490278604167,62,0.07978724999998121,40,0.07978725000003806
13323,317.92881511041674,67,0.07978725000003806,43,0.15957449999996243
13324,318.0086023604167,71,0.07978724999998121,46,0.07978724999998121
13325,318.0883896104167,69,0.07978724999998121,50,0.15953920833339907
13326,318.16817686041674,67,0.07978725000003806,47,0.07975195833336102
13327,318.2479288187501,62,0.07975195833336102,44,0.15932745833333684
13328,318.3275043187501,59,0.07957549999997582,43,0.07975195833336102
13329,318.40725627708343,57,0.07975195833336102,42,0.16003608333329566
13330,318.4871853604168,55,0.07992908333335436,41,0.08010699999994131
13331,318.56729236041673,50,0.08010699999994131,40,0.16075070833340988
13332,318.64757802708345,47,0.08028566666672532,39,0.08046504166668456
13333,318.72804306875014,45,0.08046504166668456,38,0.48678683333338313
13334,318.8086883187501,43,0.08064524999997502,37,0.08086250000002337
13335,318.88955081875014,38,0.08086250000002337,36,0.08104458333332332
13336,318.97059540208346,47,0.08104458333332332,39,0.08122750000001133
13337,319.0518229020835,45,0.08122750000001133,38,0.08141125000003058
13338,319.1332341520835,43,0.08141125000003058,37,0.0815957500000195
13339,319.2148299020835,40,0.0815957500000195,36,0.08057645833332572
13340,319.29540636041685,43,0.08057645833332572,34,0.0797875833333137
13341,319.37519394375016,45,0.0797875833333137,37,0.15775895833331788
13342,319.4543499437501,48,0.07915599999995493,39,0.07860295833336295
13343,319.5329529020835,52,0.07860295833336295,41,0.15544370833339372
13344,319.6109767770835,55,0.07802387500004215,43,0.07741983333335156
13345,319.6883966104169,57,0.07741983333335156,46,0.07698891666666441
13346,319.76538552708354,60,0.07698891666666441,48,0.07725324999995564
13347,319.8426387770835,64,0.07725324999995564,50,0.15560954166664942
13348,319.9202586520835,67,0.07761987499998213,51,0.07798966666666729
13349,319.99824831875014,69,0.07798966666666729,49,0.157035166666617
13350,320.07657748541675,72,0.07832916666660594,47,0.07870600000001104
13351,320.15528348541676,71,0.07870600000001104,50,0.08064524999997502
13352,320.23592873541673,69,0.08064524999997502,49,0.08064525000003187
13353,320.31657398541677,66,0.08064525000003187,49,0.7881817083333544
13354,320.39510798541676,60,0.07853399999999056,48,0.07853399999999056
13355,320.47364198541675,59,0.07853399999999056,47,0.15703383333334386
13356,320.55217598541674,57,0.07853399999999056,46,0.07849983333335331
13357,320.6306758187501,54,0.07849983333335331,45,0.15703445833332808
13358,320.7090731520834,50,0.07839733333332788,44,0.0786371250000002
13359,320.7877102770834,54,0.0786371250000002,45,0.15799924999998893
13360,320.8665885270834,52,0.07887825000000248,42,0.07912099999998645
13361,320.9457095270834,35,0.07912099999998645,48,0.15904616666671245
13362,321.0251096104168,48,0.07940008333338255,37,0.0796460833333299
13363,321.1047556937501,47,0.0796460833333299,35,0.46450024999995776
13364,321.1828468604168,50,0.07809116666669524,37,0.07782112499995719
13365,321.2606679854168,55,0.07782112499995719,40,0.15483966666658944
13366,321.3382544020834,59,0.0775864166666338,42,0.07725324999995564
13367,321.41550765208336,57,0.07725324999995564,44,0.15374829166671589
13368,321.4925295270834,55,0.077021875000014,42,0.07672641666670188
13369,321.5692559437501,59,0.07672641666670188,38,0.46095074999999497
13370,321.64578644375007,62,0.07653049999998984,40,0.07662837499998432
13371,321.72241481875005,67,0.07662837499998432,43,0.1536492500000577
13372,321.7991410687501,71,0.07672625000003563,46,0.07692300000002206
13373,321.8760640687501,69,0.07692300000002206,50,0.15414262499996312
13374,321.95308594375007,67,0.07702187499995716,47,0.07712075000000596
13375,322.0302066937501,62,0.07712075000000596,44,0.15444024999999328
13376,322.1073274437501,59,0.07712075000000596,43,0.07731949999998733
13377,322.18464694375007,57,0.07731949999998733,42,0.1552397500000211
13378,322.26216644375006,55,0.07751949999999397,41,0.07772025000002714
13379,322.3398866937501,50,0.07772025000002714,40,0.15604700000000093
13380,322.4178086937501,47,0.07792200000000093,39,0.078125
13381,322.4959336937501,45,0.078125,38,0.47310633333336227
13382,322.5742626937501,43,0.07832899999999654,37,0.07853399999999056
13383,322.6527966937501,38,0.07853399999999056,36,0.07874025000000984
13384,322.7315369437501,47,0.07874025000000984,39,0.0789472499999988
13385,322.8104841937501,45,0.0789472499999988,38,0.07915574999998398
13386,322.88963994375007,43,0.07915574999998398,37,0.07940008333338255
13387,322.96904002708345,40,0.07940008333338255,36,0.07947024999998575
13388,323.04851027708344,43,0.07947024999998575,34,0.07455061874998137
13389,323.1276661520834,45,0.07915587499996946,37,0.15727491666672222
13390,323.20647540208347,48,0.078809250000063,39,0.07846566666665922
13391,323.28494106875013,52,0.07846566666665922,41,0.15594629166662344
13392,323.3630662354168,55,0.07812516666666625,43,0.07782112499995719
13393,323.44088736041675,57,0.07782112499995719,46,0.07751949999999397
13394,323.51840686041675,60,0.07751949999999397,48,0.07765333333333047
13395,323.5960601937501,64,0.07765333333333047,50,0.15577695833337657
13396,323.6738813187501,67,0.07782112500001404,51,0.07795583333336253
13397,323.75183715208345,69,0.07795583333336253,49,0.15645399999999654
13398,323.82996215208345,72,0.078125,47,0.07832899999999654
13399,323.90829115208345,71,0.07832899999999654,47,0.08021400000001222
13400,323.98850515208346,69,0.08021400000001222,48,0.08021400000001222
13401,324.0687191520835,66,0.08021400000001222,49,0.7861133333333328
13402,324.14704815208347,60,0.07832899999999654,50,0.07832899999999654
13403,324.22537715208347,59,0.07832899999999654,51,0.1570080000000189
13404,324.30370615208346,57,0.07832899999999654,52,0.07867900000002237
13405,324.3823851520835,54,0.07867900000002237,53,0.15682883333334985
13406,324.4607141520835,50,0.07832899999999654,52,0.07849983333335331
13407,324.53921398541684,54,0.07849983333335331,51,0.15748074999999062
13408,324.6178854854169,52,0.0786715000000413,51,0.07880924999994932
13409,324.6966947354168,50,0.07880924999994932,53,0.15813774999998031
13410,324.7756767354168,48,0.07898199999999633,57,0.07915574999998398
13411,324.8548324854168,47,0.07915574999998398,56,0.47122566666661214
13412,324.9341277354168,50,0.07929524999997284,59,0.0790167500000507
13413,325.01314448541683,55,0.0790167500000507,61,0.15706883333331234
13414,325.0918159854169,59,0.0786715000000413,63,0.07839733333327104
13415,325.17021331875014,57,0.07839733333327104,65,0.15584483333327626
13416,325.2482706520835,55,0.07805733333333364,63,0.07778749999994261
13417,325.3260581520834,26,0.07778749999994261,62,0.07772025000002714
13418,325.40377840208345,62,0.07772025000002714,61,0.07772024999997029
13419,325.4814986520834,38,0.07772024999997029,67,0.15544049999999743
13420,325.55921890208344,71,0.07772025000002714,66,0.07772024999997029
13421,325.6369391520834,69,0.07772024999997029,69,0.15544049999999743
13422,325.71465940208344,67,0.07772025000002714,65,0.07772024999997029
13423,325.7923796520834,24,0.07772024999997029,70,0.15544050000005427
13424,325.87009990208344,60,0.07772025000002714,61,0.07772025000002714
13425,325.94782015208347,39,0.07772025000002714,77,0.31088099999999486
13426,326.02554040208344,55,0.07772024999997029,60,0.07772025000002714
13427,326.10326065208346,51,0.07772025000002714,59,0.07772024999997029
13428,326.18098090208343,48,0.07772024999997029,58,0.07772025000002714
13429,326.25870115208346,45,0.07772025000002714,57,0.07778749999999945
13430,326.33648865208346,43,0.07778749999999945,56,0.0780573333332768
13431,326.41454598541674,39,0.0780573333332768,55,0.07832916666666279
13432,326.4928751520834,36,0.07832916666666279,54,0.07860275000001593
13433,326.5714779020834,33,0.07860275000001593,53,0.07887825000005932
13434,326.6503561520835,31,0.07887825000005932,52,0.0791558750000263
13435,326.7295120270835,19,0.0791558750000263,66,0.4704106249999427
13436,326.8087724020835,38,0.07926037499998984,51,0.07891300000000001
13437,326.8876854020835,43,0.07891300000000001,52,0.15679558333334853
13438,326.96625398541687,47,0.07856858333337868,53,0.07822699999996985
13439,327.04448098541684,45,0.07822699999996985,54,0.1554416666666043
13440,327.1223695687501,43,0.07788858333327653,52,0.07755308333332778
13441,327.19992265208344,14,0.07755308333332778,68,0.0772201249999398
13442,327.2771427770834,50,0.0772201249999398,51,0.07689037500000495
13443,327.3540331520834,31,0.07689037500000495,66,0.15280245833332629
13444,327.43059648541674,59,0.07656333333335397,57,0.07623912499997232
13445,327.5068356104167,26,0.07623912499997232,66,0.1518985000000157
13446,327.5827848604167,55,0.07594925000000785,57,0.07594925000000785
13447,327.65873411041673,12,0.07594925000000785,75,0.15189849999995886
13448,327.73468336041674,48,0.07594925000000785,61,0.07594924999995101
13449,327.8106326104167,27,0.07594924999995101,86,0.3037970000000314
13450,327.8865818604167,43,0.07594925000000785,64,0.07594925000000785
13451,327.9625311104167,39,0.07594925000000785,66,0.07594925000000785
13452,328.0384803604167,36,0.07594925000000785,67,0.07594925000000785
13453,328.1144296104167,33,0.07594925000000785,69,0.0760780416666762
13454,328.1905076520834,31,0.0760780416666762,71,0.07662874999994074
13455,328.26713640208334,27,0.07662874999994074,73,0.0772205000000099
13456,328.34435690208335,24,0.0772205000000099,74,0.0778215000000273
13457,328.4221784020834,21,0.0778215000000273,76,0.07843187500009208
13458,328.50061027708347,19,0.07843187500009208,78,0.07905187499994781
13459,328.5796621520834,7,0.07905187499994781,104,0.16260149999999385
13460,328.7422636520834,26,0.16260149999999385,73,0.07653049999998984
13461,328.8187941520834,31,0.07653049999998984,68,0.07653049999998984
13462,328.8953246520834,36,0.07653049999998984,68,0.07653050000004669
13463,328.97185515208344,35,0.07653050000004669,68,0.07653049999998984
13464,329.0483856520834,38,0.07653049999998984,73,0.07653049999998984
13465,329.1249161520834,43,0.07653049999998984,67,0.07653049999998984
13466,329.2014466520834,48,0.07653049999998984,67,0.07653049999998984
13467,329.2779771520834,47,0.07653049999998984,68,0.07653049999998984
13468,329.3545076520834,50,0.07653049999998984,72,0.07653050000004669
13469,329.43103815208343,55,0.07653050000004669,73,0.07653049999998984
13470,329.5075686520834,31,0.07653049999998984,80,0.15306099999997969
13471,329.5840991520834,59,0.07653049999998984,71,0.07653049999998984
13472,329.6606296520834,62,0.07653049999998984,71,0.07653049999998984
13473,329.7371601520834,67,0.07653049999998984,71,0.07653050000004669
13474,329.81369065208344,72,0.07653050000004669,71,0.07653049999998984
13475,329.8902211520834,71,0.07653049999998984,71,0.07653049999998984
13476,329.9667516520834,67,0.07653049999998984,77,0.07653049999998984
13477,330.0432821520834,62,0.07653049999998984,71,0.07653049999998984
13478,330.1198126520834,60,0.07653049999998984,71,0.07653049999998984
13479,330.1963431520834,59,0.07653049999998984,71,0.07653050000004669
13480,330.27287365208343,55,0.07653050000004669,71,0.07653049999998984
13481,330.3494041520834,50,0.07653049999998984,71,0.07653049999998984
13482,330.4259346520834,48,0.07653049999998984,71,0.07633600000002616
13483,330.50227065208344,47,0.07633600000002616,72,0.07653049999998984
13484,330.57880115208343,43,0.07653049999998984,73,0.07675904166666214
13485,330.6555601937501,38,0.07675904166666214,75,0.07695595833337165
13486,330.73251615208346,36,0.07695595833337165,77,0.07718700000003764
13487,330.8097031520835,35,0.07718700000003764,78,0.07738616666665621
13488,330.88708931875016,31,0.07738616666665621,80,0.07761987499998213
13489,330.96470919375014,26,0.07761987499998213,81,0.07782112500001404
13490,331.04253031875015,24,0.07782112500001404,82,0.07805733333333364
13491,331.1205876520835,23,0.07805733333333364,84,0.0782609999999977
13492,331.1988486520835,19,0.0782609999999977,86,0.07849983333335331
13493,331.27734848541684,14,0.07849983333335331,88,0.07870587499996873
13494,331.3560543604168,7,0.07870587499996873,96,0.4736834999999928
13495,332.3034213604168,17,0.9473669999999856,98,0.1759529999999927
13496,332.4793743604168,26,0.1759529999999927,73,0.07653049999998984
13497,332.5559048604168,32,0.07653049999998984,68,0.07653049999998984
13498,332.63243536041676,36,0.07653049999998984,68,0.07653050000004669
13499,332.7089658604168,35,0.07653050000004669,68,0.07653049999998984
13500,332.7854963604168,38,0.07653049999998984,73,0.07653049999998984
13501,332.8620268604168,44,0.07653049999998984,67,0.07653049999998984
13502,332.9385573604168,48,0.07653049999998984,67,0.07653049999998984
13503,333.01508786041677,47,0.07653049999998984,68,0.07653049999998984
13504,333.09161836041676,50,0.07653049999998984,72,0.07653050000004669
13505,333.1681488604168,56,0.07653050000004669,73,0.07653049999998984
13506,333.2446793604168,44,0.07653049999998984,80,0.15306099999997969
13507,333.3212098604168,59,0.07653049999998984,71,0.07653049999998984
13508,333.3977403604168,62,0.07653049999998984,71,0.07653049999998984
13509,333.47427086041677,68,0.07653049999998984,71,0.07653050000004669
13510,333.5508013604168,72,0.07653050000004669,71,0.07653049999998984
13511,333.6273318604168,71,0.07653049999998984,71,0.07653049999998984
13512,333.7038623604168,68,0.07653049999998984,77,0.07653049999998984
13513,333.7803928604168,62,0.07653049999998984,71,0.07653049999998984
13514,333.8569233604168,60,0.07653049999998984,71,0.07653049999998984
13515,333.93345386041676,59,0.07653049999998984,71,0.07653050000004669
13516,334.0099843604168,56,0.07653050000004669,71,0.07653049999998984
13517,334.0865148604168,50,0.07653049999998984,71,0.07653049999998984
13518,334.1630453604168,48,0.07653049999998984,71,0.07633600000002616
13519,334.2393813604168,47,0.07633600000002616,72,0.07653049999998984
13520,334.3159118604168,44,0.07653049999998984,73,0.07675904166666214
13521,334.39267090208347,38,0.07675904166666214,75,0.07695595833337165
13522,334.46962686041684,36,0.07695595833337165,77,0.07718700000003764
13523,334.5468138604169,35,0.07718700000003764,78,0.07738616666665621
13524,334.62420002708353,32,0.07738616666665621,80,0.07761987499998213
13525,334.7018199020835,26,0.07761987499998213,81,0.07782112500001404
13526,334.7796410270835,24,0.07782112500001404,82,0.07805733333333364
13527,334.85769836041686,23,0.07805733333333364,84,0.0782609999999977
13528,334.93595936041686,20,0.0782609999999977,86,0.07849983333335331
13529,335.0144591937502,14,0.07849983333335331,88,0.07870587499996873
13530,335.0931650687502,5,0.07870587499996873,96,0.9473669999999856
13531,336.04053206875017,16,0.9473669999999856,102,0.1759529999999927
13532,336.21648506875016,49,0.1759529999999927,66,0.07692300000002206
13533,336.2934080687502,47,0.07692300000002206,67,0.07692299999996521
13534,336.37033106875015,50,0.07692299999996521,68,0.07692300000002206
13535,336.44725406875017,56,0.07692300000002206,69,0.07692299999996521
13536,336.52417706875013,35,0.07692299999996521,84,0.15665799999999308
13537,336.60250606875013,59,0.07832899999999654,72,0.07832899999999654
13538,336.6808350687501,42,0.07832899999999654,90,0.15665799999999308
13539,336.7591640687501,68,0.07832899999999654,74,0.07832899999999654
13540,336.8374930687501,40,0.07832899999999654,84,0.15665799999999308
13541,336.9158220687501,71,0.07832899999999654,77,0.07832899999999654
13542,336.9941510687501,40,0.07832899999999654,95,0.30769199999997454
13543,337.07107406875014,67,0.07692300000002206,74,0.07692299999996521
13544,337.1479970687501,71,0.07692299999996521,77,0.07692300000002206
13545,337.2249200687501,70,0.07692300000002206,81,0.07692299999996521
13546,337.3018430687501,67,0.07692299999996521,80,0.07692300000002206
13547,337.3787660687501,61,0.07692300000002206,78,0.07692300000002206
13548,337.45568906875013,28,0.07692300000002206,90,0.0767918333333455
13549,337.5324809020835,58,0.0767918333333455,76,0.0770548333333636
13550,337.60953573541684,55,0.0770548333333636,76,0.07741950000001907
13551,337.68695523541686,49,0.07741950000001907,76,0.07772041666663654
13552,337.7646756520835,47,0.07772041666663654,74,0.0780573333332768
13553,337.8427329854168,46,0.0780573333332768,73,0.07839733333332788
13554,337.9211303187501,16,0.07839733333332788,90,0.16949149999999236
13555,338.0058760687501,42,0.0847457500000246,73,0.08474574999996776
13556,338.0906218187501,47,0.08474574999996776,74,0.07692300000002206
13557,338.1675448187501,45,0.07692300000002206,75,0.07692299999996521
13558,338.2444678187501,48,0.07692299999996521,76,0.07692300000002206
13559,338.3213908187501,54,0.07692300000002206,76,0.07692299999996521
13560,338.39831381875007,21,0.07692299999996521,82,0.15748050000001967
13561,338.4770540687501,57,0.07874025000000984,76,0.07874025000000984
13562,338.5557943187501,42,0.07874025000000984,87,0.15748049999996283
13563,338.63453456875004,66,0.078740249999953,81,0.07874025000000984
13564,338.71327481875005,71,0.07874025000000984,84,0.15748050000001967
13565,338.79201506875006,69,0.07874025000000984,86,0.07874025000000984
13566,338.87075531875007,40,0.07874025000000984,93,0.07874025000000984
13567,338.9494955687501,64,0.07874025000000984,87,0.07874025000000984
13568,339.0282358187501,69,0.07874025000000984,87,0.1542415000000119
13569,339.1053565687501,68,0.07712075000000596,85,0.07712075000000596
13570,339.1824773187501,64,0.07712075000000596,83,0.1542415000000119
13571,339.2595980687501,59,0.07712075000000596,82,0.07712075000000596
13572,339.3367188187501,57,0.07712075000000596,80,0.15424149999995507
13573,339.41383956875006,56,0.07712074999994911,78,0.07712075000000596
13574,339.49096031875007,52,0.07712075000000596,76,0.1542415000000119
13575,339.5680810687501,47,0.07712075000000596,74,0.07712075000000596
13576,339.6452018187501,28,0.07712075000000596,74,0.1542415000000119
13577,339.7223225687501,44,0.07712075000000596,71,0.07712075000000596
13578,339.7994433187501,29,0.07712075000000596,93,0.16085800000001882
13579,339.8798723187501,45,0.08042899999998099,71,0.08042900000003783
13580,339.9603013187501,50,0.08042900000003783,71,0.07692300000002206
13581,340.03722431875013,48,0.07692300000002206,71,0.07692299999996521
13582,340.1141473187501,51,0.07692299999996521,71,0.07692300000002206
13583,340.1910703187501,57,0.07692300000002206,71,0.07692299999996521
13584,340.2679933187501,36,0.07692299999996521,81,0.1583115000000248
13585,340.34714906875007,60,0.07915574999998398,71,0.07915575000004083
13586,340.4263048187501,31,0.07915575000004083,86,0.15831149999996796
13587,340.5054605687501,69,0.07915574999998398,75,0.07915574999998398
13588,340.5846163187501,41,0.07915574999998398,79,0.1583115000000248
13589,340.66377206875006,72,0.07915574999998398,78,0.07915575000004083
13590,340.7429278187501,41,0.07915575000004083,93,0.30769199999997454
13591,340.8198508187501,68,0.07692300000002206,82,0.07692299999996521
13592,340.8967738187501,72,0.07692299999996521,82,0.07692300000002206
13593,340.9736968187501,71,0.07692300000002206,80,0.07692299999996521
13594,341.0506198187501,68,0.07692299999996521,79,0.07692300000002206
13595,341.1275428187501,62,0.07692300000002206,78,0.07692300000002206
13596,341.2044658187501,29,0.07692300000002206,97,0.07692299999996521
13597,341.2813888187501,59,0.07692299999996521,76,0.07692300000002206
13598,341.3583118187501,56,0.07692300000002206,75,0.07692300000002206
13599,341.43523481875013,50,0.07692300000002206,74,0.07692299999996521
13600,341.5121578187501,48,0.07692299999996521,73,0.07692300000002206
13601,341.5890808187501,47,0.07692300000002206,72,0.07692299999996521
13602,341.6660038187501,17,0.07692299999996521,93,0.16085800000001882
13603,341.74643281875007,43,0.08042899999998099,71,0.08042900000003783
13604,341.8268618187501,48,0.08042900000003783,71,0.07692300000002206
13605,341.9037848187501,46,0.07692300000002206,71,0.07692299999996521
13606,341.9807078187501,49,0.07692299999996521,71,0.07692300000002206
13607,342.0576308187501,55,0.07692300000002206,71,0.07692299999996521
13608,342.1345538187501,34,0.07692299999996521,81,0.1583115000000248
13609,342.21370956875006,58,0.07915574999998398,71,0.07915575000004083
13610,342.2928653187501,43,0.07915575000004083,86,0.15831149999996796
13611,342.3720210687501,67,0.07915574999998398,75,0.07915574999998398
13612,342.45117681875007,41,0.07915574999998398,79,0.1583115000000248
13613,342.53033256875005,70,0.07915574999998398,78,0.07915575000004083
13614,342.6094883187501,41,0.07915575000004083,86,0.07692300000002206
13615,342.6864113187501,65,0.07692300000002206,82,0.07692299999996521
13616,342.7633343187501,70,0.07692299999996521,82,0.15384599999998727
13617,342.8402573187501,69,0.07692300000002206,80,0.07692299999996521
13618,342.91718031875007,65,0.07692299999996521,79,0.15384600000004411
13619,342.9941033187501,60,0.07692300000002206,78,0.07692300000002206
13620,343.0710263187501,29,0.07692300000002206,77,0.07692299999996521
13621,343.1479493187501,57,0.07692299999996521,75,0.07692300000002206
13622,343.2248723187501,53,0.07692300000002206,73,0.15384599999998727
13623,343.3017953187501,48,0.07692300000002206,71,0.07692299999996521
13624,343.3787183187501,27,0.07692299999996521,71,0.15384599999998727
13625,343.4556413187501,45,0.07692300000002206,68,0.07692299999996521
13626,343.5325643187501,25,0.07692299999996521,84,0.2390439999999785
13627,343.77160831875005,52,0.2390439999999785,58,0.2290075000000229
13628,343.88611206875004,53,0.11450374999998303,55,0.11450375000003987
13629,344.0006158187501,56,0.11450375000003987,58,0.22900749999996606
13630,344.0769516520834,54,0.07633583333330307,58,0.07633583333335991
13631,344.15328748541674,53,0.07633583333335991,55,0.07633583333330307
13632,344.22962331875004,24,0.07633583333330307,68,0.9061820000000012
13633,344.46962331875005,57,0.2400000000000091,66,0.4511279999999829
13634,344.6951873187501,63,0.22556400000001986,64,0.22556399999996302
13635,344.92075131875004,61,0.22556399999996302,70,0.21505400000000918
13636,345.13580531875004,52,0.21505400000000918,59,0.20689650000002757
13637,345.23925356875003,53,0.10344824999998536,55,0.10344825000004221
13638,345.3427018187501,56,0.10344825000004221,59,0.20689649999997073
13639,345.41166731875006,54,0.06896549999999024,59,0.06896549999999024
13640,345.48063281875005,53,0.06896549999999024,55,0.06896549999999024
13641,345.54959831875004,53,0.06896549999999024,69,0.8023979999999824
13642,345.75094081875005,61,0.20134250000000975,65,0.19672150000002375
13643,345.9476623187501,48,0.19672150000002375,62,0.1967214999999669
13644,346.14438381875004,58,0.1967214999999669,69,0.207612499999982
13645,346.35199631875,52,0.207612499999982,59,0.19230750000002672
13646,346.44815006875,53,0.09615374999998494,55,0.09615375000004178
13647,346.54430381875005,56,0.09615375000004178,59,0.19230749999996988
13648,346.60840631875004,54,0.06410249999998996,59,0.06410249999998996
13649,346.67250881875003,53,0.06410249999998996,55,0.06410249999998996
13650,346.73661131875,53,0.06410249999998996,70,0.7822369999999523
13651,346.93397981875,65,0.19736849999998185,65,0.3821659999999838
13652,347.12506281875,63,0.1910829999999919,65,0.1910829999999919
13653,347.31614581875,58,0.1910829999999919,69,0.20270249999998668
13654,347.51884831875,45,0.20270249999998668,58,0.1941749999999729
13655,347.61593581874996,46,0.09708749999998645,53,0.09708749999998645
13656,347.71302331874995,49,0.09708749999998645,58,0.19417500000002974
13657,347.77774831874996,47,0.06472500000000991,58,0.06472500000000991
13658,347.84247331874997,46,0.06472500000000991,55,0.06472500000000991
13659,347.90719831875,46,0.06472500000000991,70,0.7852274999999622
13660,348.10990081874996,58,0.20270249999998668,63,0.38835000000000264
13661,348.30407581874994,56,0.1941749999999729,63,0.19417500000002974
13662,348.49825081874997,54,0.19417500000002974,71,0.1941749999999729
13663,348.69242581874994,57,0.1941749999999729,57,0.19047599999998965
13664,348.78766381874993,58,0.09523799999999483,57,0.09523799999999483
13665,348.88290181874993,61,0.09523799999999483,57,0.19047599999998965
13666,348.9463938187499,59,0.06349199999999655,57,0.06349199999999655
13667,349.0098858187499,58,0.06349199999999655,54,0.06349199999999655
13668,349.0733778187499,58,0.06349199999999655,71,0.7628939999999602
13669,349.2707463187499,70,0.19736849999998185,63,0.37383199999999306
13670,349.4576623187499,68,0.18691599999999653,63,0.18691599999999653
13671,349.6445783187499,63,0.18691599999999653,71,0.1916934999999853
13672,349.8362718187499,57,0.1916934999999853,59,0.18518499999998994
13673,349.9288643187499,58,0.09259250000002339,56,0.09259249999996655
13674,350.02145681874987,61,0.09259249999996655,59,0.18518499999998994
13675,350.0831851520832,59,0.06172833333334893,59,0.06172833333334893
13676,350.14491348541657,58,0.06172833333334893,55,0.061728333333292085
13677,350.20664181874986,58,0.061728333333292085,70,0.5556209999999737
13678,350.40081681874983,54,0.1941749999999729,64,0.1807230000000004
13679,350.58153981874983,65,0.1807230000000004,64,0.1807230000000004
13680,350.76226281874983,63,0.1807230000000004,70,0.6379559999999742
13681,350.9622628187498,45,0.19999999999998863,59,0.2189779999999928
13682,351.0717518187498,46,0.1094889999999964,55,0.1094889999999964
13683,351.1812408187498,49,0.1094889999999964,59,0.2189779999999928
13684,351.2542334854165,47,0.07299266666666426,59,0.07299266666666426
13685,351.32722615208314,46,0.07299266666666426,56,0.07299266666666426
13686,351.4002188187498,46,0.07299266666666426,71,0.9624655000000075
13687,351.6431338187498,50,0.24291499999998223,56,0.47058800000002066
13688,351.8784278187498,56,0.23529400000001033,55,0.23529400000001033
13689,352.1137218187498,54,0.23529400000001033,60,0.7232705000000124
13690,352.3626843187498,41,0.24896250000000464,53,0.23715399999997544
13691,352.48126131874983,42,0.11857700000001614,53,0.1185769999999593
13692,352.5998383187498,46,0.1185769999999593,53,0.23715400000003228
13693,352.67888965208317,44,0.07905133333338199,53,0.07905133333332515
13694,352.7579409854165,42,0.07905133333332515,50,0.07905133333332515
13695,352.8369923187498,42,0.07905133333332515,61,0.9110405000000696
13696,353.07795631874984,54,0.2409640000000195,58,0.44280400000002373
13697,353.29935831874985,52,0.22140200000001187,56,0.22140200000001187
13698,353.52076031874986,50,0.22140200000001187,63,0.2272725000000264
13699,353.7480328187499,53,0.2272725000000264,54,0.2105265000000145
13700,353.8532960687499,54,0.10526325000000725,51,0.10526325000000725
13701,353.9585593187499,57,0.10526325000000725,54,0.21052649999995765
13702,354.0287348187499,55,0.07017550000000483,54,0.07017550000000483
13703,354.0989103187499,54,0.07017550000000483,51,0.07017549999994799
13704,354.16908581874986,54,0.07017549999994799,62,0.77819199999999
13705,354.36908581874985,61,0.19999999999998863,58,0.38338700000002746
13706,354.56077931874984,64,0.1916934999999853,59,0.19169350000004215
13707,354.7524728187499,62,0.19169350000004215,67,0.19480499999997392
13708,354.94727781874985,53,0.19480499999997392,59,0.18927450000001045
13709,355.04191506874986,54,0.09463725000000522,56,0.09463725000000522
13710,355.13655231874986,57,0.09463725000000522,59,0.18927450000001045
13711,355.19964381874985,55,0.06309149999998453,59,0.06309149999998453
13712,355.26273531874983,54,0.06309149999998453,55,0.05757099375000507
13713,355.3258268187499,54,0.06309150000004138,68,0.5734365000000139
13714,355.5219053187499,62,0.1960784999999987,63,0.18867899999997917
13715,355.71058431874985,49,0.18867899999997917,63,0.188679000000036
13716,355.8992633187499,59,0.188679000000036,69,0.20270249999998668
13717,356.1019658187499,53,0.20270249999998668,60,0.19736849999998185
13718,356.2006500687499,54,0.09868425000001935,56,0.0986842499999625
13719,356.29933431874986,57,0.0986842499999625,60,0.1973685000000387
13720,356.36512381874985,55,0.06578949999999395,60,0.0657895000000508
13721,356.4309133187499,54,0.0657895000000508,56,0.05838818124999534
13722,356.4967028187499,54,0.06578949999999395,74,0.7606854999999655
13723,356.6883963187499,66,0.1916934999999853,65,0.36697199999997565
13724,356.8718823187499,64,0.18348600000001625,65,0.1834859999999594
13725,357.05536831874986,62,0.1834859999999594,76,0.20202000000000453
13726,357.25738831874986,53,0.20202000000000453,66,0.2105265000000145
13727,357.36265156874987,54,0.10526325000000725,61,0.10526325000000725
13728,357.4679148187499,57,0.10526325000000725,66,0.21052649999995765
13729,357.5380903187499,55,0.07017550000000483,66,0.07017550000000483
13730,357.6082658187499,54,0.07017550000000483,61,0.06491233749994763
13731,357.67844131874983,54,0.07017549999994799,82,0.7202050000000213
13732,357.91281631874983,62,0.234375,73,0.24291499999998223
13733,358.1557313187498,61,0.24291499999998223,73,0.24291500000003907
13734,358.39864631874985,59,0.24291500000003907,87,0.24291499999998223
13735,358.8844763187498,35,0.48582999999996446,50,0.24291500000003907
13736,359.06666256874985,59,0.1821862500000293,70,0.06072875000000977
13737,359.12739131874986,71,0.06072875000000977,95,0.30000000000001137
13738,359.42739131874987,69,0.30000000000001137,81,0.08849550000002182
13739,359.5158868187499,67,0.08849550000002182,76,0.08849549999996498
13740,359.60438231874986,62,0.08849549999996498,79,0.1769909999999868
13741,359.6928778187499,59,0.08849550000002182,72,0.08849549999996498
13742,359.78137331874984,57,0.08849549999996498,76,0.17699100000004364
13743,359.86986881874986,55,0.08849550000002182,71,0.08849550000002182
13744,359.9583643187499,50,0.08849550000002182,74,0.08849549999996498
13745,360.04685981874985,47,0.08849549999996498,68,0.08849550000002182
13746,360.1353553187499,45,0.08849550000002182,71,0.08849550000002182
13747,360.2238508187499,43,0.08849550000002182,66,0.08849549999996498
13748,360.31234631874986,38,0.08849549999996498,69,0.1769909999999868
13749,360.8433193187499,54,0.5309730000000172,55,0.08884524999996302
13750,360.93216456874984,55,0.08884524999996302,52,0.08919741666670689
13751,361.02136198541655,57,0.08919741666670689,50,0.08964158333333216
13752,361.1110035687499,59,0.08964158333333216,44,0.09000008333339338
13753,361.2010036520833,60,0.09000008333339338,45,0.09045250000002625
13754,361.2914561520833,62,0.09045250000002625,42,0.09084515000000692
13755,361.3823013020833,63,0.09084515000000692,40,0.21818200000001298
13756,361.6004833020833,47,0.21818200000001298,44,0.19736849999998185
13757,361.7978518020833,39,0.19736849999998185,42,0.1973685000000387
13758,361.99522030208334,63,0.1973685000000387,50,0.08797650000002477
13759,362.08319680208336,62,0.08797650000002477,46,0.08797649999996793
13760,362.17117330208333,60,0.08797649999996793,47,0.08797650000002477
13761,362.25914980208336,59,0.08797650000002477,43,0.08797649999996793
13762,362.3471263020833,57,0.08797649999996793,44,0.08797650000002477
13763,362.43510280208335,55,0.08797650000002477,42,0.08812312499998143
13764,362.52322592708333,26,0.08812312499998143,53,0.20833349999998063
13765,362.7315594270833,12,0.20833349999998063,49,0.19543950000002042
13766,362.92699892708333,27,0.19543950000002042,53,0.19543949999996357
13767,363.0735785520833,59,0.14657962499995847,81,0.048859875000005104
13768,363.1224384270833,71,0.048859875000005104,115,0.748835999999983
13769,363.3093544270833,43,0.18691599999999653,45,0.18691599999999653
13770,363.4962704270833,43,0.18691599999999653,45,0.18691599999999653
13771,363.6831864270833,38,0.18691599999999653,51,0.27429499999999507
13772,363.8712744270833,69,0.18808799999999337,81,0.0862070000000017
13773,363.9574814270833,67,0.0862070000000017,73,0.0862070000000017
13774,364.0436884270833,62,0.0862070000000017,79,0.1724140000000034
13775,364.1298954270833,59,0.0862070000000017,73,0.0862070000000017
13776,364.2161024270833,57,0.0862070000000017,76,0.1724140000000034
13777,364.3023094270833,55,0.0862070000000017,70,0.0862070000000017
13778,364.3885164270833,50,0.0862070000000017,74,0.0862070000000017
13779,364.4747234270833,47,0.0862070000000017,69,0.0862070000000017
13780,364.5609304270833,45,0.0862070000000017,71,0.0862070000000017
13781,364.6471374270833,43,0.0862070000000017,70,0.0862070000000017
13782,364.7333444270833,38,0.0862070000000017,69,0.16901400000000422
13783,365.2403864270833,56,0.5070420000000126,57,0.08379899999999907
13784,365.3241854270833,57,0.08379899999999907,55,0.08379899999999907
13785,365.4079844270833,59,0.08379899999999907,53,0.08379899999999907
13786,365.4917834270833,60,0.08379899999999907,52,0.08379899999999907
13787,365.5755824270833,62,0.08379899999999907,50,0.08379899999999907
13788,365.6593814270833,64,0.08379899999999907,48,0.08453764999995883
13789,365.74391907708326,65,0.08453764999995883,46,0.179104499999994
13790,365.92302357708326,48,0.179104499999994,44,0.17492700000002515
13791,366.0979505770833,45,0.17492700000002515,42,0.1749269999999683
13792,366.27287757708325,65,0.1749269999999683,56,0.08379899999999907
13793,366.35667657708325,64,0.08379899999999907,54,0.08379899999999907
13794,366.44047557708325,62,0.08379899999999907,53,0.08379899999999907
13795,366.52427457708325,60,0.08379899999999907,52,0.08379899999999907
13796,366.60807357708325,59,0.08379899999999907,51,0.08379899999999907
13797,366.69187257708325,57,0.08379899999999907,50,0.08421674999999595
13798,366.77608932708324,29,0.08421674999999595,53,0.179104499999994
13799,366.95519382708324,15,0.179104499999994,53,0.1734104999999886
13800,367.1286043270832,16,0.1734104999999886,53,0.1734104999999886
13801,367.3020148270832,58,0.1734104999999886,66,0.08379899999999907
13802,367.3858138270832,59,0.08379899999999907,65,0.08379899999999907
13803,367.4696128270832,61,0.08379899999999907,64,0.08379899999999907
13804,367.5534118270832,62,0.08379899999999907,63,0.08379899999999907
13805,367.6372108270832,64,0.08379899999999907,62,0.08379899999999907
13806,367.7210098270832,66,0.08379899999999907,61,0.08453764999995883
13807,367.80554747708317,67,0.08453764999995883,60,0.1769909999999868
13808,367.98253847708315,50,0.1769909999999868,53,0.1729105000000004
13809,368.15544897708315,47,0.1729105000000004,51,0.1729105000000004
13810,368.32835947708315,67,0.1729105000000004,65,0.08356550000002017
13811,368.4119249770832,66,0.08356550000002017,64,0.08356549999996332
13812,368.49549047708314,64,0.08356549999996332,62,0.08356550000002017
13813,368.57905597708316,62,0.08356550000002017,61,0.08356550000002017
13814,368.6626214770832,61,0.08356550000002017,59,0.08356549999996332
13815,368.74618697708314,59,0.08356549999996332,58,0.08400660000000926
13816,368.83019357708315,19,0.08400660000000926,58,0.179104499999994
13817,369.00929807708314,17,0.179104499999994,58,0.1734104999999886
13818,369.18270857708313,30,0.1734104999999886,58,0.1734104999999886
13819,369.3561190770831,60,0.1734104999999886,71,0.08450699999997369
13820,369.4406260770831,61,0.08450699999997369,72,0.08450700000003053
13821,369.5251330770831,63,0.08450700000003053,73,0.08450699999997369
13822,369.6096400770831,64,0.08450699999997369,75,0.08450700000003053
13823,369.69414707708313,66,0.08450700000003053,76,0.16901400000000422
13824,369.7786540770831,68,0.08450699999997369,77,0.08450700000003053
13825,369.86316107708313,69,0.08450700000003053,78,0.16901400000000422
13826,369.9476680770831,78,0.08450699999997369,78,0.08450700000003053
13827,370.03217507708314,69,0.08450700000003053,77,0.08450699999997369
13828,370.1166820770831,68,0.08450699999997369,76,0.08450700000003053
13829,370.20118907708314,66,0.08450700000003053,75,0.16901400000000422
13830,370.2856960770831,64,0.08450699999997369,75,0.08450700000003053
13831,370.37020307708315,63,0.08450700000003053,71,0.16901399999994737
13832,370.4547100770831,64,0.08450699999997369,72,0.08450699999997369
13833,370.5392170770831,65,0.08450699999997369,73,0.08450700000003053
13834,370.6237240770831,66,0.08450700000003053,74,0.08450699999997369
13835,370.7082310770831,67,0.08450699999997369,76,0.16056330000003527
13836,370.79273807708313,68,0.08450700000003053,77,0.08450699999997369
13837,370.8772450770831,69,0.08450699999997369,78,0.16056330000003527
13838,370.96175207708313,78,0.08450700000003053,79,0.08450699999997369
13839,371.0462590770831,69,0.08450699999997369,80,0.16056330000003527
13840,371.13076607708314,68,0.08450700000003053,82,0.08450699999997369
13841,371.2152730770831,66,0.08450699999997369,83,0.16056330000003527
13842,371.29978007708314,64,0.08450700000003053,84,0.08450699999997369
13843,371.3842870770831,63,0.08450699999997369,85,0.16901400000000422
13844,371.5533010770831,80,0.16901400000000422,93,0.08086250000002337
13845,371.63416357708314,79,0.08086250000002337,83,0.08086249999996653
13846,371.7150260770831,78,0.08086249999996653,81,0.08086250000002337
13847,371.79588857708313,75,0.08086250000002337,78,0.08086249999996653
13848,371.8767510770831,68,0.08086249999996653,89,0.16172500000004675
13849,371.9576135770831,67,0.08086250000002337,81,0.08086250000002337
13850,372.03847607708315,66,0.08086250000002337,79,0.08086249999996653
13851,372.1193385770831,63,0.08086249999996653,78,0.08086250000002337
13852,372.20020107708314,56,0.08086250000002337,90,0.1617249999999899
13853,372.2810635770831,55,0.08086249999996653,82,0.08086250000002337
13854,372.3619260770831,54,0.08086250000002337,80,0.08086249999996653
13855,372.4427885770831,51,0.08086249999996653,78,0.08086250000002337
13856,372.5236510770831,44,0.08086250000002337,88,0.1617249999999899
13857,372.60451357708314,43,0.08086250000002337,81,0.08086249999996653
13858,372.6853760770831,42,0.08086249999996653,79,0.08086250000002337
13859,372.76623857708313,39,0.08086250000002337,77,0.08086249999996653
13860,372.8471010770831,32,0.08086249999996653,90,0.16172500000004675
13861,372.9279635770831,31,0.08086250000002337,84,0.08086250000002337
13862,373.00882607708314,30,0.08086250000002337,82,0.08086249999996653
13863,373.0896885770831,27,0.08086249999996653,80,0.08086250000002337
13864,373.17055107708313,20,0.08086250000002337,117,0.1829270000000065
13865,373.35347807708314,25,0.1829270000000065,100,0.20833349999998063
13866,373.5618115770831,55,0.20833349999998063,74,0.1910829999999919
13867,373.65735307708314,56,0.09554150000002437,71,0.09554149999996753
13868,373.7528945770831,59,0.09554149999996753,74,0.1910829999999919
13869,373.81658891041644,57,0.06369433333333063,74,0.06369433333333063
13870,373.8802832437498,56,0.06369433333333063,71,0.0557325416666572
13871,373.9439775770831,56,0.06369433333333063,89,0.20689650000002757
13872,374.15087407708313,55,0.20689650000002757,81,0.19230750000002672
13873,374.34318157708316,56,0.19230750000002672,81,0.1960784999999987
13874,374.53926007708316,61,0.1960784999999987,89,0.20270249999998668
13875,374.74196257708314,51,0.20270249999998668,73,0.19480499999997392
13876,374.83936507708313,52,0.09740249999998696,71,0.09740249999998696
13877,374.9367675770831,56,0.09740249999998696,73,0.19480500000003076
13878,375.00170257708317,54,0.06493500000004815,73,0.0649349999999913
13879,375.06663757708316,52,0.0649349999999913,69,0.0568181250000066
13880,375.13157257708315,52,0.0649349999999913,89,0.20978999999999814
13881,375.34136257708315,51,0.20978999999999814,81,0.19736849999998185
13882,375.5387310770831,52,0.19736849999998185,81,0.1973685000000387
13883,375.73609957708317,57,0.1973685000000387,89,0.20477799999997615
13884,375.94087757708314,48,0.20477799999997615,73,0.20339000000001306
13885,376.04257257708315,49,0.10169500000000653,69,0.10169500000000653
13886,376.14426757708316,52,0.10169500000000653,73,0.20339000000001306
13887,376.2120642437498,51,0.06779666666665207,73,0.06779666666665207
13888,376.27986091041646,49,0.06779666666665207,69,0.0593220833333703
13889,376.34765757708317,49,0.06779666666670892,89,0.20338999999995622
13890,376.5510475770831,48,0.20338999999995622,81,0.20339000000001306
13891,376.75443757708314,61,0.20339000000001306,81,0.20905900000002475
13892,376.96349657708316,54,0.20905900000002475,89,0.2040814999999725
13893,377.16757807708314,44,0.2040814999999725,74,0.20408150000002934
13894,377.26961882708315,45,0.10204075000001467,70,0.10204075000001467
13895,377.37165957708316,49,0.10204075000001467,74,0.2040814999999725
13896,377.4396867437498,47,0.06802716666663855,74,0.0680271666666954
13897,377.5077139104165,45,0.0680271666666954,71,0.05952377083332294
13898,377.57574107708314,45,0.06802716666663855,89,0.638864500000011
13899,377.77982257708317,56,0.20408150000002934,85,0.4347829999999817
13900,377.9972140770832,57,0.21739150000001928,85,0.21739149999996243
13901,378.21460557708315,51,0.21739149999996243,84,0.22471899999999323
13902,378.43932457708314,43,0.22471899999999323,68,0.11235950000002504
13903,378.55168407708317,44,0.11235950000002504,66,0.1123594999999682
13904,378.66404357708313,47,0.1123594999999682,68,0.09363291666670648
13905,378.73894991041647,45,0.07490633333333108,68,0.09363291666670648
13906,378.8138562437498,44,0.07490633333333108,66,0.0655430416666718
13907,378.8887625770831,32,0.07490633333333108,59,0.2127659999999878
13908,378.9020604520831,37,0.013297874999977921,59,0.19946812500000988
13909,378.91535832708314,40,0.013297875000034765,59,0.1861702499999751
13910,378.9286562020831,44,0.013297874999977921,59,0.1728723749999972
13911,379.1015285770831,54,0.1728723749999972,73,0.20547950000002402
13912,379.30700807708314,64,0.20547950000002402,73,0.2105265000000145
13913,379.51753457708315,20,0.2105265000000145,74,0.19743349999998827
13914,379.5298741708332,27,0.012339593750027689,74,0.18509390624996058
13915,379.54221376458315,36,0.012339593749970845,74,0.17275431249998974
13916,379.5545533583332,63,0.012339593750027689,77,0.16041471874996205
13917,379.71496807708314,43,0.16041471874996205,68,0.09747850000002245
13918,379.81244657708316,44,0.09747850000002245,66,0.0974784999999656
13919,379.90992507708313,47,0.0974784999999656,69,0.08123208333336152
13920,379.97491074374983,45,0.06498566666670058,69,0.08123208333330467
13921,380.0398964104165,44,0.06498566666664374,67,0.05686245833334169
13922,380.1048820770831,32,0.06498566666664374,60,0.19801999999998543
13923,380.1172583270831,37,0.012376249999988431,60,0.185643749999997
13924,380.1296345770831,40,0.012376249999988431,60,0.17326750000000857
13925,380.14201082708314,44,0.012376250000045275,60,0.1608912499999633
13926,380.3029020770831,51,0.1608912499999633,74,0.19933550000001787
13927,380.5022375770831,61,0.19933550000001787,74,0.20689650000002757
13928,380.70913407708315,20,0.20689650000002757,75,0.20062849999999344
13929,380.72167335833313,27,0.012539281249985379,75,0.18808921875000806
13930,380.7342126395832,36,0.012539281250042222,75,0.17554993749996584
13931,380.74675192083316,60,0.012539281249985379,76,0.16301065624998046
13932,380.90976257708314,43,0.16301065624998046,65,0.10196450000000823
13933,381.01172707708315,44,0.10196450000000823,60,0.10196450000000823
13934,381.11369157708316,47,0.10196450000000823,65,0.08497041666663563
13935,381.1816679104165,45,0.06797633333331987,65,0.08497041666663563
13936,381.2496442437498,44,0.06797633333331987,61,0.05947929166666199
13937,381.3176205770831,32,0.06797633333331987,56,0.19998650000002272
13938,381.3301197333331,37,0.012499156249987209,56,0.1874873437500355
13939,381.3426188895831,40,0.012499156249987209,56,0.1749881875000483
13940,381.35511804583314,44,0.012499156250044052,56,0.16248903125000425
13941,381.51760707708314,66,0.16248903125000425,78,0.20270249999998668
13942,381.7203095770831,64,0.20270249999998668,78,0.21201400000001058
13943,381.93232357708314,20,0.21201400000001058,75,0.20062849999999344
13944,381.9448628583331,56,0.012539281249985379,75,0.18808921875000806
13945,381.95740213958317,60,0.012539281250042222,77,0.17554993749996584
13946,381.96994142083315,63,0.012539281249985379,80,0.16301065624998046
13947,382.13295207708313,43,0.16301065624998046,70,0.10096924999999146
13948,382.2339213270831,44,0.10096924999999146,67,0.10096924999999146
13949,382.3348905770831,47,0.10096924999999146,70,0.08414104166666903
13950,382.40220341041646,45,0.06731283333334659,70,0.08414104166666903
13951,382.4695162437498,44,0.06731283333334659,68,0.05889872916668537
13952,382.53682907708315,32,0.06731283333334659,62,0.1987020000000257
13953,382.54924795208314,37,0.01241887499998029,62,0.1862831250000454
13954,382.5616668270832,40,0.012418875000037133,62,0.17386425000000827
13955,382.57408570208315,44,0.01241887499998029,62,0.16144537500002798
13956,382.7355310770832,51,0.16144537500002798,77,0.20134250000000975
13957,382.9368735770832,61,0.20134250000000975,77,0.20062849999999344
13958,383.1375020770832,20,0.20062849999999344,75,0.20062849999999344
13959,383.15004135833317,27,0.012539281249985379,75,0.18808921875000806
13960,383.1625806395832,56,0.012539281250042222,77,0.17554993749996584
13961,383.1751199208332,60,0.012539281249985379,81,0.16301065624998046
13962,383.3381305770832,43,0.16301065624998046,67,0.09871674999999414
13963,383.43684732708317,44,0.09871674999999414,64,0.09871674999999414
13964,383.53556407708317,47,0.09871674999999414,67,0.08226395833332845
13965,383.6013752437498,45,0.06581116666666276,67,0.08226395833332845
13966,383.6671864104165,44,0.06581116666666276,64,0.05758477083332991
13967,383.73299757708315,44,0.06581116666666276,80,0.19743350000004511
13968,383.9304310770832,64,0.19743350000004511,77,0.20326599999998507
13969,384.1336970770832,63,0.20326599999998507,78,0.2094384999999761
13970,384.34313557708316,20,0.2094384999999761,76,0.19743349999998827
13971,384.3554751708332,27,0.012339593750027689,76,0.18509390624996058
13972,384.36781476458316,56,0.012339593749970845,78,0.17275431249998974
13973,384.3801543583332,60,0.012339593750027689,83,0.16041471874996205
13974,384.54056907708315,38,0.16041471874996205,70,0.10129649999998946
13975,384.64186557708314,39,0.10129649999998946,66,0.10129649999998946
13976,384.7431620770831,42,0.10129649999998946,70,0.08441375000001017
13977,384.81069307708316,40,0.06753100000003087,70,0.08441375000001017
13978,384.87822407708313,39,0.06753099999997403,66,0.0590896250000128
13979,384.94575507708316,39,0.06753100000003087,80,0.19807200000002467
13980,385.1438270770832,49,0.19807200000002467,78,0.20547950000002402
13981,385.3493065770832,48,0.20547950000002402,75,0.2105265000000145
13982,385.5598330770832,20,0.2105265000000145,69,0.20062849999999344
13983,385.5723723583332,27,0.012539281249985379,69,0.18808921875000806
13984,385.58491163958325,56,0.012539281250042222,71,0.17554993749996584
13985,385.59745092083324,60,0.012539281249985379,71,0.16301065624998046
13986,385.7604615770832,43,0.16301065624998046,70,0.10031424999999672
13987,385.8607758270832,44,0.10031424999999672,67,0.10031424999999672
13988,385.9610900770832,47,0.10031424999999672,70,0.08359520833334955
13989,386.0279662437499,45,0.06687616666670237,70,0.0835952083332927
13990,386.09484241041656,44,0.06687616666664553,66,0.058516645833321945
13991,386.1617185770832,44,0.06687616666664553,80,0.19936309791665963
13992,386.36108167499987,64,0.19936309791665963,77,0.2127659999999878
13993,386.57384767499985,63,0.2127659999999878,77,0.2127659999999878
13994,386.78661367499984,20,0.2127659999999878,68,0.21276600000004464
13995,386.7999115499999,27,0.013297875000034765,68,0.19946812500000988
13996,386.81320942499985,56,0.013297874999977921,70,0.18617025000003196
13997,386.8265072999999,60,0.013297875000034765,76,0.1728723749999972
13998,386.9993796749999,38,0.1728723749999972,69,0.11029400000001033
13999,387.1096736749999,39,0.11029400000001033,67,0.11029400000001033
14000,387.2199676749999,42,0.11029400000001033,69,0.09191166666664685
14001,387.29349700833325,40,0.07352933333334022,69,0.09191166666664685
14002,387.36702634166653,39,0.07352933333328338,66,0.0643381666666869
14003,387.44055567499987,39,0.07352933333334022,78,0.23715399999997544
14004,387.67770967499985,49,0.23715399999997544,77,0.22388050000000703
14005,387.90159017499985,48,0.22388050000000703,74,0.22388050000000703
14006,388.12547067499986,48,0.22388050000000703,62,0.22388050000000703
14007,388.13946320624984,51,0.013992531249982676,63,0.20988796875002436
14008,388.1534557374998,56,0.013992531249982676,65,0.19589543750004168
14009,388.16744826874987,60,0.01399253125003952,69,0.18190290625000216
14010,388.34935117499987,38,0.18190290625000216,64,0.1119402499999751
14011,388.46129142499984,39,0.1119402499999751,59,0.11194025000003194
14012,388.5732316749999,42,0.11194025000003194,64,0.09328354166666486
14013,388.6478585083332,40,0.07462683333329778,64,0.09328354166666486
14014,388.7224853416665,39,0.07462683333335463,60,0.06529847916664266
14015,388.7971121749998,39,0.07462683333329778,72,0.22388050000000703
14016,389.02099267499983,49,0.22388050000000703,71,0.2272725000000264
14017,389.24826517499986,48,0.2272725000000264,69,0.22727249999996957
14018,389.4755376749998,20,0.22727249999996957,62,0.2272725000000264
14019,389.48974220624984,27,0.014204531250015862,62,0.21306796875001055
14020,389.50394673749986,36,0.014204531250015862,62,0.1988634374999947
14021,389.5181512687498,60,0.014204531249959018,63,0.18465890625003567
14022,389.70281017499985,38,0.18465890625003567,59,0.1119402499999751
14023,389.81475042499983,39,0.1119402499999751,56,0.11194025000003194
14024,389.92669067499986,42,0.11194025000003194,59,0.09328354166666486
14025,390.0013175083332,40,0.07462683333335463,59,0.09328354166666486
14026,390.0759443416665,39,0.07462683333329778,55,0.06529847916669951
14027,390.15057117499987,39,0.07462683333335463,67,0.22388050000000703
14028,390.3744516749999,49,0.22388050000000703,67,0.22388050000000703
14029,390.5983321749999,48,0.22388050000000703,64,0.2238804999999502
14030,390.82221267499983,20,0.2238804999999502,56,0.2272725000000264
14031,390.83641720624985,27,0.014204531250015862,56,0.21306796875001055
14032,390.8506217374998,56,0.014204531249959018,56,0.19886343750005153
14033,390.8648262687498,60,0.014204531250015862,58,0.18465890625003567
14034,391.04948517499986,26,0.18465890625003567,53,0.1399253124999973
14035,391.16142542499983,27,0.1119402499999751,51,0.1399253124999973
14036,391.27336567499987,30,0.11194025000003194,53,0.09328354166666486
14037,391.3479925083332,28,0.07462683333335463,53,0.09328354166666486
14038,391.4226193416665,27,0.07462683333329778,49,0.06529847916669951
14039,391.4972461749999,27,0.07462683333335463,59,0.2564105000000154
14040,391.7536566749999,37,0.2564105000000154,56,0.12295074999997269
14041,391.9995581749999,36,0.24590150000000222,58,0.12295074999997269
14042,392.2454596749999,32,0.24590150000000222,62,0.2390439999999785
14043,392.48450367499987,26,0.2390439999999785,46,0.14940250000000788
14044,392.6040256749999,27,0.11952200000001767,43,0.14940250000000788
14045,392.7235476749999,30,0.11952200000001767,46,0.09960166666667192
14046,392.80322900833323,28,0.07968133333332617,46,0.09960166666667192
14047,392.88291034166656,27,0.07968133333332617,42,0.06972116666668171
14048,392.9625916749999,27,0.07968133333332617,51,0.2575105000000235
14049,393.2201021749999,37,0.2575105000000235,52,0.13452925000001414
14050,393.48916067499994,36,0.2690585000000283,52,0.14705874999998514
14051,393.78327817499996,32,0.2941175000000271,56,0.26785699999999224
14052,395.606083175,26,1.8228050000000167,47,0.16233781249997037
14053,395.73595342499993,27,0.12987024999995356,44,0.1623378125000272
14054,395.86582367499994,30,0.1298702500000104,47,0.10822520833335147
14055,395.95240384166664,28,0.08658016666669255,47,0.10822520833329463
14056,396.0389840083333,27,0.0865801666666357,44,0.07575764583333466
14057,396.12556417499997,27,0.08658016666669255,55,0.1298702500000104
14058,396.385304675,37,0.2597405000000208,52,0.13761475000001155
14059,396.660534175,36,0.2752295000000231,49,0.14705874999998514
14060,396.95465167500004,32,0.2941175000000271,55,0.2870814999999993
14061,398.10297767500003,25,1.1483259999999973,46,0.3296705000000202
14062,398.43264817500005,24,0.3296705000000202,45,0.4137929999999983
14063,398.84644117500005,20,0.4137929999999983,46,1.0285709999999995
14064,401.09311950833336,36,2.246678333333307,29,0.07142850000002454
14065,401.1645480083334,37,0.07142850000002454,31,0.0714284999999677
14066,401.23597650833335,40,0.0714284999999677,33,0.07142850000002454
14067,401.3074050083334,44,0.07142850000002454,37,0.1136362500000132
14068,401.7619500083334,36,0.454544999999996,29,0.07142850000002454
14069,401.8333785083334,37,0.07142850000002454,31,0.0714284999999677
14070,401.90480700833336,40,0.0714284999999677,32,0.07142850000002454
14071,401.9762355083334,44,0.07142850000002454,43,1.3533840000000055
14072,403.3296195083334,37,1.3533840000000055,100,0.09375
14073,403.8921195083334,69,0.5625,92,1.125
14074,405.0171195083334,66,1.125,61,0.28125
14075,405.2983695083334,63,0.28125,68,0.09375
14076,405.3921195083334,63,0.09375,71,0.2040814999999725
14077,405.59620100833337,68,0.2040814999999725,68,0.20408150000002934
14078,406.00436400833337,36,0.40816300000000183,27,0.0680271666666954
14079,406.07239117500006,37,0.0680271666666954,29,0.06802716666663855
14080,406.1404183416667,28,0.06802716666663855,30,0.0680271666666954
14081,406.2084455083334,44,0.0680271666666954,35,0.10204075000001467
14082,406.6166085083334,36,0.40816300000000183,27,0.06802716666663855
14083,406.68463567500004,37,0.06802716666663855,29,0.0680271666666954
14084,406.75266284166673,40,0.0680271666666954,30,0.06802716666663855
14085,406.8206900083334,44,0.06802716666663855,39,1.1320739999999887
14086,407.95276400833336,35,1.1320739999999887,100,0.08695649999998523
14087,408.43102475833336,35,0.478260750000004,75,1.0869562500000143
14088,408.4527638833334,44,0.021739125000010517,89,1.0652171250000038
14089,408.4745030083334,68,0.021739125000010517,90,1.0434779999999932
14090,409.5179810083334,63,1.0434779999999932,60,0.2608694999999557
14091,409.77885050833333,68,0.2608694999999557,65,0.09063450000002149
14092,409.86948500833336,69,0.09063450000002149,70,0.19354850000001989
14093,410.0630335083334,68,0.19354850000001989,67,0.1739130000000273
14094,410.5847725083334,56,0.521739000000025,81,0.34782599999999775
14095,411.10651150833337,44,0.5217389999999682,81,0.3785490000000209
14096,411.67433500833334,20,0.5678234999999745,94,1.3815794999999866
14097,413.05591450833333,21,1.3815794999999866,97,0.14802637500002902
14098,415.04865550833335,36,1.9927410000000236,27,0.06896549999999024
14099,415.11762100833334,37,0.06896549999999024,29,0.06896549999999024
14100,415.18658650833333,40,0.06896549999999024,30,0.06896550000004709
14101,415.2555520083334,44,0.06896550000004709,34,0.10344824999998536
14102,415.6693450083334,36,0.4137929999999983,29,0.06896549999999024
14103,415.73831050833337,37,0.06896549999999024,30,0.06896549999999024
14104,415.80727600833336,40,0.06896549999999024,31,0.06896549999999024
14105,415.87624150833335,44,0.06896549999999024,39,1.241378999999995
14106,417.11762050833335,37,1.241378999999995,100,0.09375
14107,417.68012050833335,73,0.5625,92,0.84375
14108,418.52387050833335,66,0.84375,58,0.09375
14109,418.61762050833335,63,0.09375,58,0.1875
14110,418.80512050833335,66,0.1875,61,0.28125
14111,419.08637050833335,63,0.28125,68,0.09375
14112,419.18012050833335,63,0.09375,71,0.2040814999999725
14113,419.3842020083333,68,0.2040814999999725,68,0.20408150000002934
14114,419.7923650083333,36,0.40816300000000183,29,0.0680271666666954
14115,419.860392175,37,0.0680271666666954,30,0.06802716666663855
14116,419.92841934166665,40,0.06802716666663855,32,0.0680271666666954
14117,419.99644650833335,44,0.0680271666666954,37,0.10204075000001467
14118,420.40460950833335,36,0.40816300000000183,29,0.06802716666663855
14119,420.472636675,37,0.06802716666663855,30,0.0680271666666954
14120,420.5406638416667,40,0.0680271666666954,32,0.06802716666663855
14121,420.6086910083333,44,0.06802716666663855,39,1.0674300000000017
14122,421.6761210083333,27,1.0674300000000017,100,0.08356550000002017
14123,422.17751400833333,75,0.5013930000000073,90,1.0027859999999578
14124,423.1803000083333,67,1.0027859999999578,60,0.25069650000000365
14125,423.4309965083333,71,0.25069650000000365,65,0.09063450000002149
14126,423.5216310083333,67,0.09063450000002149,70,0.19354850000001989
14127,423.71517950833334,68,0.19354850000001989,67,0.1739130000000273
14128,424.23691850833336,59,0.521739000000025,81,0.36253799999997227
14129,424.7807255083334,44,0.5438070000000153,81,0.4225349999999821
14130,425.4145280083334,19,0.6338025000000016,94,1.1842110000000048
14131,426.5987390083334,20,1.1842110000000048,94,0.7539674375000232
14132,427.3527064458334,17,0.7539674375000232,50,0.09818518749995064
14133,427.44006911250005,18,0.0873626666666496,51,0.0964548229166553
14134,427.52590817500004,20,0.08583906249998563,51,0.0947849687499911
14135,427.61027647708335,18,0.08436830208330548,52,0.09278809375001629
14136,427.6928604875,20,0.0825840104166673,53,0.09091196875004925
14137,427.77371205000003,18,0.08085156250001546,55,0.09107438541673218
14138,427.8515335708334,20,0.07782152083336769,56,0.09222751250001693
14139,427.8545823520834,8,0.0030487812500155087,50,0.09227790624998988
14140,427.9365296750001,18,0.08194732291667606,56,0.09265634374997944
14141,428.0188766958334,20,0.08234702083331058,57,0.09299684374997241
14142,428.1015001020834,18,0.08262340624997933,58,0.07261406250000846
14143,428.1637407270834,20,0.06224062500001537,59,0.07261406250000846
14144,428.22598135208335,18,0.06224062499995853,60,0.07261406250000846
14145,428.28822197708337,20,0.06224062500001537,61,0.07270087500000955
14146,428.3473505708334,18,0.059128593750017444,62,0.06329198333332897
14147,428.3504626020834,6,0.0031120312499979264,55,0.07420760416670191
14148,428.4138476854167,20,0.06338508333334403,62,0.07700785416665212
14149,428.47964476875006,18,0.06579708333333656,62,0.07987254166670255
14150,428.5478350604168,20,0.06819029166672408,63,0.08312054166674443
14151,428.61881968541684,18,0.07098462500005098,64,0.12403556250001202
14152,428.71810276875016,17,0.0992830833333187,73,0.2227723125000125
14153,428.9161226020835,18,0.19801983333331918,73,0.2085683541666299
14154,429.1141424354168,80,0.19801983333331918,97,0.9574569999999767
14155,429.6204714354168,35,0.5063289999999938,45,0.22556400000001986
14156,429.8460354354168,32,0.22556400000001986,53,0.22556399999996302
14157,430.0715994354168,78,0.22556399999996302,68,0.08849550000002182
14158,430.1600949354168,76,0.08849550000002182,62,0.08849549999996498
14159,430.24859043541676,71,0.08849549999996498,65,0.1769909999999868
14160,430.3370859354168,68,0.08849550000002182,60,0.08849549999996498
14161,430.42558143541675,66,0.08849549999996498,62,0.17699100000004364
14162,430.51407693541677,64,0.08849550000002182,57,0.08849550000002182
14163,430.6025724354168,59,0.08849550000002182,58,0.08849549999996498
14164,430.69106793541675,56,0.08849549999996498,52,0.08849550000002182
14165,430.7795634354168,54,0.08849550000002182,55,0.08849550000002182
14166,430.8680589354168,52,0.08849550000002182,51,0.08849549999996498
14167,430.95655443541676,47,0.08849549999996498,52,0.1769909999999868
14168,431.4875274354168,51,0.5309730000000172,55,0.08884524999996302
14169,431.57637268541674,52,0.08884524999996302,52,0.08919741666670689
14170,431.66557010208345,54,0.08919741666670689,50,0.08964158333333216
14171,431.7552116854168,56,0.08964158333333216,47,0.09000008333339338
14172,431.8452117687502,57,0.09000008333339338,45,0.09045250000002625
14173,431.9303772562502,59,0.08516548750003494,42,0.09081300833332762
14174,432.0265094187502,60,0.09613216249999823,40,0.21818200000001298
14175,432.2446914187502,45,0.21818200000001298,35,0.19736849999998185
14176,432.4420599187502,45,0.19736849999998185,31,0.09868425000001935
14177,432.63942841875024,60,0.1973685000000387,50,0.09027100000002974
14178,432.7296994187503,59,0.09027100000002974,49,0.08991016666669793
14179,432.81960958541697,58,0.08991016666669793,47,0.08946341666666058
14180,432.90907300208363,57,0.08946341666666058,46,0.0891090833333692
14181,432.998182085417,56,0.0891090833333692,44,0.0886701666666454
14182,433.08685225208364,55,0.0886701666666454,42,0.08829612499999939
14183,433.17514837708364,54,0.08829612499999939,41,0.21505400000000918
14184,433.39020237708365,45,0.21505400000000918,32,0.19736849999998185
14185,433.58757087708364,35,0.19736849999998185,28,0.09868425000001935
14186,433.7849393770837,80,0.1973685000000387,97,0.872180999999955
14187,434.23606737708366,35,0.4511279999999829,45,0.2105265000000145
14188,434.44659387708367,40,0.2105265000000145,53,0.21052649999995765
14189,434.65712037708363,78,0.21052649999995765,68,0.08670525000002272
14190,434.74382562708365,76,0.08670525000002272,61,0.08670524999996587
14191,434.8305308770836,71,0.08670524999996587,65,0.1734104999999886
14192,434.91723612708364,68,0.08670525000002272,59,0.08670524999996587
14193,435.0039413770836,66,0.08670524999996587,62,0.17341050000004543
14194,435.09064662708363,64,0.08670525000002272,57,0.08670525000002272
14195,435.17735187708365,59,0.08670525000002272,58,0.08670524999996587
14196,435.2640571270836,56,0.08670524999996587,57,0.08670525000002272
14197,435.35076237708364,54,0.08670525000002272,55,0.08670524999996587
14198,435.4374676270836,52,0.08670524999996587,51,0.08670525000002272
14199,435.52417287708363,47,0.08670525000002272,52,0.1729105000000004
14200,436.04290437708363,51,0.5187315000000012,42,0.5342147416666307
14201,436.1311830020836,52,0.08827862499998673,41,0.08856536666667125
14202,436.2197483687503,54,0.08856536666667125,41,0.0888715750000415
14203,436.30861994375033,56,0.0888715750000415,40,0.08917974999997114
14204,436.3977996937503,57,0.08917974999997114,39,0.08949006666665582
14205,436.48206587916695,59,0.0842661854166522,38,0.0897979895833032
14206,436.57711911875026,60,0.09505323958330791,37,0.08982025000000249
14207,436.66693936875026,40,0.08982025000000249,32,0.08982025000000249
14208,436.75675961875027,42,0.08982025000000249,32,0.08982025000000249
14209,436.84657986875027,44,0.08982025000000249,32,0.08982025000000249
14210,436.93640011875027,45,0.08982025000000249,32,0.08982025000000249
14211,437.0262203687503,47,0.08982025000000249,32,0.08982025000000249
14212,437.1160406187503,60,0.08982025000000249,42,0.08823525000002519
14213,437.2042758687503,59,0.08823525000002519,41,0.08823524999996835
14214,437.29251111875027,58,0.08823524999996835,40,0.08823525000002519
14215,437.3807463687503,57,0.08823525000002519,39,0.08823524999996835
14216,437.46898161875026,56,0.08823524999996835,37,0.08823525000002519
14217,437.5572168687503,55,0.08823525000002519,36,0.08823524999996835
14218,437.64545211875026,54,0.08823524999996835,35,0.1906135250000034
14219,437.7394721687503,35,0.0940200500000401,29,0.09659347499996329
14220,437.83606564375026,34,0.09659347499996329,28,0.09934432499994728
14221,437.9354099687502,33,0.09934432499994728,27,0.10230371666676774
14222,438.037713685417,32,0.10230371666676774,26,0.10535740833336149
14223,438.14307109375034,30,0.10535740833336149,25,0.1086649833332558
14224,438.2517360770836,56,0.1086649833332558,59,1.4124324000000001
14225,438.3680150770836,35,0.11627900000002,28,0.11627899999996316
14226,438.4842940770836,40,0.11627899999996316,30,0.11627900000002
14227,438.6005730770836,44,0.11627900000002,34,0.11627900000002
14228,438.7168520770836,40,0.11627900000002,31,0.11627899999996316
14229,438.8331310770836,35,0.11627899999996316,30,0.11627900000002
14230,438.9494100770836,28,0.11627900000002,29,0.11627900000002
14231,439.0656890770836,38,0.11627900000002,28,0.11627899999996316
14232,439.1819680770836,54,0.11627899999996316,53,0.3539951500000029
14233,439.29833909375026,44,0.11637101666667604,31,0.11797283333334008
14234,439.4163119270836,40,0.11797283333334008,30,0.1196512999999868
14235,439.5359632270836,52,0.1196512999999868,52,0.1282052500000077
14236,439.6641684770836,52,0.1282052500000077,56,0.6949799999999868
14237,439.7799984770836,38,0.11583000000001675,28,0.11582999999995991
14238,439.89582847708357,40,0.11582999999995991,31,0.11583000000001675
14239,440.0116584770836,45,0.11583000000001675,34,0.11583000000001675
14240,440.1274884770836,40,0.11583000000001675,31,0.11583000000001675
14241,440.2433184770836,38,0.11583000000001675,29,0.11582999999995991
14242,440.3591484770836,49,0.11582999999995991,56,1.069027133333293
14243,440.4685048104169,37,0.10935633333332362,28,0.10872255833328381
14244,440.5772273687502,40,0.10872255833328381,30,0.10806954999998197
14245,440.68529691875017,45,0.10806954999998197,33,0.107398916666682
14246,440.79269583541685,40,0.107398916666682,31,0.10678737500006719
14247,440.8994832104169,37,0.10678737500006719,30,0.10615739999997231
14248,441.0056406104169,50,0.10615739999997231,50,1.3235895166666864
14249,441.11127436041687,38,0.10563374999998132,28,0.10563375000003816
14250,441.2169081104169,40,0.10563375000003816,30,0.10563374999998132
14251,441.3225418604169,47,0.10563374999998132,33,0.10563374999998132
14252,441.4281756104169,56,0.10563374999998132,52,0.20985391666664555
14253,441.53766461041687,38,0.1094889999999964,29,0.1094889999999964
14254,441.64715361041686,56,0.1094889999999964,51,0.2151606833333517
14255,441.75455524375025,38,0.1074016333333816,28,0.1077590499999701
14256,441.8623142937502,54,0.1077590499999701,50,0.21743313333337255
14257,441.97074837708357,44,0.10843408333334992,31,0.10899905000002263
14258,442.0797474270836,52,0.10899905000002263,49,0.2494826999999873
14259,442.2052704270836,38,0.12552299999998695,29,0.12395970000000034
14260,442.3292301270836,61,0.12395970000000034,56,0.6436250833332906
14261,442.43881319375026,37,0.10958306666668705,30,0.10865714166669704
14262,442.54747033541696,40,0.10865714166669704,34,0.10770791666664081
14263,442.6551782520836,45,0.10770791666664081,35,0.10678765000000112
14264,442.7619659020836,40,0.10678765000000112,34,0.10590792499993995
14265,442.86787382708354,37,0.10590792499993995,33,0.10498138333332463
14266,442.97285521041687,61,0.10498138333332463,62,0.7599608749999902
14267,443.09333721041685,37,0.12048199999998133,36,0.11992804999999862
14268,443.21326526041685,40,0.11992804999999862,39,0.1244812499999739
14269,443.3377465104168,47,0.1244812499999739,37,0.12479907500005538
14270,443.4625455854169,61,0.12479907500005538,64,0.270270499999981
14271,443.5976808354169,37,0.1351352500000189,31,0.13513524999996207
14272,443.6652484604169,46,0.06756762499998104,44,0.06756762499998104
14273,443.73281608541686,61,0.06756762499998104,68,1.4985898500000303
14274,443.8523380854169,37,0.11952200000001767,38,0.11952199999996083
14275,443.97186008541684,40,0.11952199999996083,41,0.11952200000001767
14276,444.09138208541685,46,0.11952200000001767,45,0.11952200000001767
14277,444.21090408541687,54,0.11952200000001767,57,0.26511985000001914
14278,444.3430625854169,37,0.13215850000000273,39,0.1329613500000164
14279,444.4760239354169,54,0.1329613500000164,57,0.23622050000000172
14280,444.59413418541686,40,0.11811024999997244,38,0.11811025000002928
14281,444.7122444354169,56,0.11811025000002928,51,0.11811024999997244
14282,444.7712995604169,58,0.05905512499998622,51,0.05905512499998622
14283,444.83035468541686,56,0.05905512499998622,56,0.2575105000000235
14284,444.95910993541685,42,0.12875524999998333,42,0.12875525000004018
14285,445.0878651854169,54,0.12875525000004018,56,0.14354074999999966
14286,445.2314059354169,54,0.14354074999999966,59,0.6474825000000237
14287,445.3393196854169,40,0.1079137500000229,38,0.10791374999996606
14288,445.4472334354169,42,0.10791374999996606,42,0.1079137500000229
14289,445.5551471854169,47,0.1079137500000229,45,0.10791374999996606
14290,445.66306093541687,42,0.10791374999996606,41,0.1079137500000229
14291,445.7709746854169,40,0.1079137500000229,38,0.1079137500000229
14292,445.8788884354169,59,0.1079137500000229,64,0.8108100000000036
14293,445.9802396854169,39,0.10135124999999334,37,0.10135124999999334
14294,446.0815909354169,42,0.10135124999999334,40,0.10135124999999334
14295,446.1829421854169,47,0.10135124999999334,44,0.10135124999999334
14296,446.2842934354169,42,0.10135124999999334,41,0.10135125000005019
14297,446.38564468541693,39,0.10135125000005019,39,0.10135124999999334
14298,446.4869959354169,52,0.10135124999999334,55,1.4099744999999757
14299,446.5883471854169,40,0.10135124999999334,37,0.10135124999999334
14300,446.6896984354169,58,0.10135124999999334,60,0.20270249999998668
14301,446.7910496854169,49,0.10135124999999334,42,0.10135124999999334
14302,446.8924009354169,56,0.10135124999999334,59,0.20978999999999814
14303,446.9972959354169,40,0.10489499999999907,39,0.10489499999999907
14304,447.1021909354169,58,0.10489499999999907,60,0.20978999999999814
14305,447.2070859354169,40,0.10489499999999907,36,0.10489499999999907
14306,447.3119809354169,56,0.10489499999999907,59,0.42015424999999595
14307,447.4396404354169,46,0.12765949999999293,40,0.12765949999999293
14308,447.5672999354169,42,0.12765949999999293,40,0.1648352500000101
14309,447.7321351854169,54,0.1648352500000101,56,0.1648352500000101
14310,447.8969704354169,63,0.1648352500000101,56,1.5171521749999215
14311,448.00706243541686,39,0.1100919999999519,40,0.10929000000004407
14312,448.1163524354169,42,0.10929000000004407,44,0.10849949999999353
14313,448.2248519354169,47,0.10849949999999353,45,0.10772037499998532
14314,448.3325723104169,42,0.10772037499998532,44,0.10695212499996387
14315,448.43952443541684,39,0.10695212499996387,42,0.10615767500001994
14316,448.54568211041686,63,0.10615767500001994,64,0.8684404999999629
14317,448.6858691104169,35,0.14018700000002582,41,0.14018699999996898
14318,448.82605611041686,39,0.14018699999996898,45,0.14018700000002582
14319,448.9662431104169,42,0.14018700000002582,49,0.14018699999996898
14320,449.10643011041685,63,0.14018699999996898,63,0.29487197916665764
14321,449.26027636041687,35,0.15384625000001506,41,0.15384624999995822
14322,449.4141226104168,63,0.15384624999995822,68,1.0041840000000093
14323,449.5396456104168,35,0.12552299999998695,36,0.12552299999998695
14324,449.6651686104168,39,0.12552299999998695,39,0.1255230000000438
14325,449.79069161041684,42,0.1255230000000438,42,0.12552299999998695
14326,449.91621461041683,39,0.12552299999998695,41,0.12552299999998695
14327,450.0417376104168,35,0.12552299999998695,38,0.12552299999998695
14328,450.1672606104168,33,0.12552299999998695,47,0.7220208000000525
14329,450.29278361041685,35,0.1255230000000438,41,0.12552299999998695
14330,450.41830661041683,61,0.12552299999998695,63,0.35433074999997416
14331,450.5364168604168,42,0.11811024999997244,41,0.11811025000002928
14332,450.65452711041684,39,0.11811025000002928,38,0.11811024999997244
14333,450.7726373604168,59,0.11811024999997244,63,0.11664405000004763
14334,450.88928141041686,59,0.11664405000004763,63,0.6081688416667248
14335,450.9924810604169,35,0.10319965000002185,33,0.10244787499999575
14336,451.0949289354169,40,0.10244787499999575,36,0.10171858333330874
14337,451.1966475187502,44,0.10171858333330874,39,0.1009767083333486
14338,451.29762422708353,40,0.1009767083333486,37,0.10027912500004277
14339,451.3979033520836,35,0.10027912500004277,35,0.0995469000000071
14340,451.4974502520836,64,0.0995469000000071,75,0.5940600000000131
14341,451.5964602520836,35,0.09901000000002114,38,0.0990099999999643
14342,451.69547025208357,40,0.0990099999999643,41,0.09901000000002114
14343,451.7944802520836,47,0.09901000000002114,42,0.09901000000002114
14344,451.8934902520836,40,0.09901000000002114,40,0.0990099999999643
14345,451.9925002520836,35,0.0990099999999643,37,0.09901000000002114
14346,452.0915102520836,64,0.09901000000002114,82,0.39603999999997086
14347,452.19052025208356,35,0.0990099999999643,38,0.09901000000002114
14348,452.2895302520836,39,0.09901000000002114,41,0.09901000000002114
14349,452.3885402520836,45,0.09901000000002114,41,0.0990099999999643
14350,452.48755025208357,63,0.0990099999999643,78,0.18976916666667876
14351,452.5865602520836,35,0.09901000000002114,36,0.09901000000002114
14352,452.6855702520836,63,0.09901000000002114,75,0.20833349999998063
14353,452.7897370020836,35,0.10416674999999032,34,0.10416674999999032
14354,452.8939037520836,61,0.10416674999999032,71,0.3608169999999973
14355,453.01155075208356,45,0.11764699999997674,39,0.11764700000003359
14356,453.1291977520836,39,0.11764700000003359,36,0.12552299999998695
14357,453.2547207520836,59,0.12552299999998695,63,0.12552299999998695
14358,453.3802437520836,68,0.12552299999998695,80,0.7531380000000354
14359,453.5057667520836,35,0.1255230000000438,31,0.12552299999998695
14360,453.6312897520836,38,0.12552299999998695,35,0.12552299999998695
14361,453.7568127520836,44,0.12552299999998695,37,0.12552299999998695
14362,453.8823357520836,38,0.12552299999998695,36,0.1255230000000438
14363,454.0078587520836,35,0.1255230000000438,34,0.12552299999998695
14364,454.1333817520836,68,0.12552299999998695,77,0.5825239999999781
14365,454.2790127520836,35,0.1456309999999803,30,0.14563100000003715
14366,454.4246437520836,37,0.14563100000003715,35,0.1456309999999803
14367,454.5702747520836,44,0.1456309999999803,37,0.1456309999999803
14368,454.7159057520836,68,0.1456309999999803,81,0.34226204166668595
14369,454.89447725208356,35,0.17857149999997546,34,0.1785715000000323
14370,455.0730487520836,68,0.1785715000000323,85,0.780697875000044
14371,455.2070588187502,33,0.13401006666663307,35,0.13245262500004173
14372,455.33951144375027,37,0.13245262500004173,38,0.13083512499997596
14373,455.47034656875024,42,0.13083512499997596,39,0.12931191666672248
14374,455.59965848541697,37,0.12931191666672248,38,0.1277702666666869
14375,455.72742875208365,33,0.1277702666666869,36,0.12631787499998381
14376,455.85374662708364,66,0.12631787499998381,72,0.2631579999999758
14377,455.9853256270836,33,0.1315789999999879,31,0.1315789999999879
14378,456.1169046270836,64,0.1315789999999879,71,0.26315800000003264
14379,456.24848362708366,42,0.13157900000004474,38,0.1315789999999879
14380,456.38006262708365,61,0.1315789999999879,70,0.2631579999999758
14381,456.51164162708363,33,0.1315789999999879,34,0.1315789999999879
14382,456.6432206270836,63,0.1315789999999879,75,0.7894740000000411
14383,456.7747996270836,32,0.1315789999999879,36,0.13157900000004474
14384,456.90637862708365,35,0.13157900000004474,37,0.1315789999999879
14385,457.03795762708364,40,0.1315789999999879,39,0.1315789999999879
14386,457.16953662708363,35,0.1315789999999879,37,0.1315789999999879
14387,457.3011156270836,32,0.1315789999999879,35,0.13157900000004474
14388,457.43269462708366,61,0.13157900000004474,71,0.2631579999999758
14389,457.56427362708365,32,0.1315789999999879,34,0.1315789999999879
14390,457.69585262708364,59,0.1315789999999879,68,0.2631579999999758
14391,457.8274316270836,40,0.1315789999999879,38,0.1315789999999879
14392,457.9590106270836,56,0.1315789999999879,63,0.26315800000003264
14393,458.09058962708366,32,0.13157900000004474,36,0.1315789999999879
14394,458.22216862708365,61,0.1315789999999879,69,0.2631579999999758
14395,458.35374762708364,33,0.1315789999999879,34,0.1315789999999879
14396,458.4853266270836,59,0.1315789999999879,64,0.26315800000003264
14397,458.6169056270836,39,0.1315789999999879,36,0.13157900000004474
14398,458.74848462708366,57,0.13157900000004474,61,0.25219308333333856
14399,458.88006362708364,33,0.1315789999999879,34,0.1315789999999879
14400,459.01164262708363,57,0.1315789999999879,55,0.13698625000000675
14401,459.0801357520836,59,0.06849312499997495,55,0.0684931250000318
14402,459.14862887708364,57,0.0684931250000318,63,0.13698625000000675
14403,459.28561512708364,56,0.13698625000000675,58,0.4719620000000191
14404,459.4363688770836,39,0.15075374999997848,37,0.15075375000003532
14405,459.58712262708366,35,0.15075375000003532,35,0.17045450000000528
14406,459.75757712708366,55,0.17045450000000528,59,0.17045450000000528
14407,459.92803162708367,55,0.17045450000000528,59,0.8679488083333808
14408,460.07803412708364,35,0.15000249999997095,33,0.14778558333330238
14409,460.22581971041694,40,0.14778558333330238,36,0.1456333333333646
14410,460.3714530437503,44,0.1456333333333646,37,0.1435429166667177
14411,460.514995960417,40,0.1435429166667177,36,0.1415114999999787
14412,460.656507460417,37,0.1415114999999787,35,0.13947297500004652
14413,460.79598043541705,56,0.13947297500004652,63,0.5529950000000099
14414,460.93422918541705,40,0.13824875000000247,36,0.13824875000000247
14415,461.07247793541706,44,0.13824875000000247,39,0.13824875000000247
14416,461.21072668541706,47,0.13824875000000247,40,0.13824875000000247
14417,461.34897543541706,59,0.13824875000000247,57,0.25862050000000636
14418,461.47828568541706,40,0.12931025000000318,38,0.12931025000000318
14419,461.60759593541707,47,0.12931025000000318,57,0.7594935000000191
14420,461.67088706041704,59,0.06329112499997791,57,0.6962023750000412
14421,461.7341781854171,35,0.06329112500003475,42,0.12658225000001266
14422,461.8607604354171,39,0.12658225000001266,42,0.12658224999995582
14423,461.98734268541705,42,0.12658224999995582,42,0.12658225000001266
14424,462.11392493541706,51,0.12658225000001266,63,0.5531645000000367
14425,462.2405071854171,35,0.12658225000001266,42,0.12658225000001266
14426,462.3670894354171,63,0.12658225000001266,63,0.7709748000000332
14427,462.51708943541706,35,0.14999999999997726,45,0.1500000000000341
14428,462.6670894354171,49,0.1500000000000341,63,0.35433074999997416
14429,462.78519968541707,42,0.11811024999997244,45,0.11811025000002928
14430,462.9033099354171,39,0.11811025000002928,41,0.11811024999997244
14431,463.02142018541707,59,0.11811024999997244,63,0.11664405000004763
14432,463.1380642354171,47,0.11664405000004763,63,1.202228841666738
14433,463.24126388541714,35,0.10319965000002185,36,0.10244787499999575
14434,463.34371176041714,40,0.10244787499999575,39,0.10171858333330874
14435,463.44543034375044,44,0.10171858333330874,42,0.1009767083333486
14436,463.5464070520838,40,0.1009767083333486,40,0.10027912500004277
14437,463.64668617708384,35,0.10027912500004277,38,0.0995469000000071
14438,463.74623307708384,64,0.0995469000000071,75,0.5940600000000131
14439,463.84524307708386,35,0.09901000000002114,41,0.0990099999999643
14440,463.94425307708383,40,0.0990099999999643,45,0.09901000000002114
14441,464.04326307708385,47,0.09901000000002114,46,0.09901000000002114
14442,464.14227307708387,40,0.09901000000002114,44,0.0990099999999643
14443,464.24128307708384,35,0.0990099999999643,40,0.09901000000002114
14444,464.34029307708386,52,0.09901000000002114,75,0.39603999999997086
14445,464.4393030770838,35,0.0990099999999643,41,0.09901000000002114
14446,464.53831307708384,39,0.09901000000002114,45,0.09901000000002114
14447,464.63732307708386,63,0.09901000000002114,71,0.0990099999999643
14448,464.7363330770838,51,0.0990099999999643,78,0.19802000000004227
14449,464.83534307708385,35,0.09901000000002114,39,0.09901000000002114
14450,464.93435307708387,63,0.09901000000002114,75,0.3259804999999574
14451,465.03851982708386,35,0.10416674999999032,37,0.10416674999999032
14452,465.14268657708385,39,0.10416674999999032,40,0.11764699999997674
14453,465.2603335770838,49,0.11764699999997674,71,0.11764700000003359
14454,465.37798057708386,59,0.11764700000003359,63,0.2409640000000195
14455,465.49846257708384,35,0.12048199999998133,34,0.12048200000003817
14456,465.6189445770839,68,0.12048200000003817,80,0.7228920000000016
14457,465.73942657708386,35,0.12048199999998133,37,0.12048199999998133
14458,465.85990857708384,38,0.12048199999998133,41,0.12048200000003817
14459,465.9803905770839,44,0.12048200000003817,44,0.12048199999998133
14460,466.10087257708386,38,0.12048199999998133,42,0.12048199999998133
14461,466.22135457708384,35,0.12048199999998133,40,0.12048200000003817
14462,466.3418365770839,68,0.12048200000003817,77,0.5263160000000084
14463,466.47341557708387,35,0.1315789999999879,36,0.1315789999999879
14464,466.60499457708386,37,0.1315789999999879,41,0.13157900000004474
14465,466.7365735770839,44,0.13157900000004474,44,0.1315789999999879
14466,466.8681525770839,68,0.1315789999999879,78,0.30000000000001137
14467,467.01815257708387,35,0.14999999999997726,40,0.1500000000000341
14468,467.1681525770839,68,0.1500000000000341,82,0.780697875000044
14469,467.30216264375053,33,0.13401006666663307,38,0.13245262500004173
14470,467.4346152687506,37,0.13245262500004173,41,0.13083512499997596
14471,467.56545039375055,42,0.13083512499997596,42,0.12931191666672248
14472,467.6947623104173,37,0.12931191666672248,41,0.1277702666666869
14473,467.82253257708396,33,0.1277702666666869,39,0.12631787499998381
14474,467.94885045208395,66,0.12631787499998381,67,0.2631579999999758
14475,468.08042945208393,33,0.1315789999999879,34,0.1315789999999879
14476,468.2120084520839,64,0.1315789999999879,65,0.40680850000006785
14477,468.34358745208397,42,0.13157900000004474,41,0.13761475000001155
14478,468.481202202084,37,0.13761475000001155,39,0.13761475000001155
14479,468.618816952084,61,0.13761475000001155,64,0.14705874999998514
14480,468.765875702084,63,0.14705874999998514,62,0.7894739999999842
14481,468.89745470208396,32,0.1315789999999879,39,0.1315789999999879
14482,469.02903370208395,35,0.1315789999999879,40,0.13157900000004474
14483,469.160612702084,40,0.13157900000004474,42,0.1315789999999879
14484,469.292191702084,35,0.1315789999999879,40,0.1315789999999879
14485,469.42377070208397,32,0.1315789999999879,38,0.1315789999999879
14486,469.55534970208396,61,0.1315789999999879,64,0.2166065000000117
14487,469.66365295208396,32,0.10830325000000585,35,0.10830325000000585
14488,469.77195620208397,56,0.10830325000000585,68,0.2166065000000117
14489,469.880259452084,40,0.10830325000000585,39,0.10830325000000585
14490,469.988562702084,61,0.10830325000000585,72,0.23529400000001033
14491,470.10620970208396,32,0.11764699999997674,35,0.11764700000003359
14492,470.223856702084,56,0.11764700000003359,77,0.4705879999999638
14493,470.34150370208397,32,0.11764699999997674,37,0.11764700000003359
14494,470.459150702084,35,0.11764700000003359,39,0.11764699999997674
14495,470.576797702084,41,0.11764699999997674,41,0.11764699999997674
14496,470.69444470208396,61,0.11764699999997674,75,0.23529400000001033
14497,470.812091702084,32,0.11764700000003359,36,0.11764699999997674
14498,470.92973870208397,62,0.11764699999997674,78,1.1764699999999948
14499,471.047385702084,32,0.11764700000003359,39,0.11764699999997674
14500,471.165032702084,35,0.11764699999997674,43,0.11764700000003359
14501,471.282679702084,41,0.11764700000003359,48,0.11764699999997674
14502,471.400326702084,35,0.11764699999997674,45,0.11764699999997674
14503,471.51797370208396,32,0.11764699999997674,41,0.11764700000003359
14504,471.635620702084,23,0.11764700000003359,40,0.11764699999997674
14505,471.753267702084,32,0.11764699999997674,40,0.11764700000003359
14506,471.870914702084,35,0.11764700000003359,43,0.11764699999997674
14507,471.988561702084,41,0.11764699999997674,45,0.11764699999997674
14508,472.10620870208396,61,0.11764699999997674,76,0.20905900000002475
14509,472.210738202084,32,0.10452950000001238,36,0.10452950000001238
14510,472.315267702084,62,0.10452950000001238,81,0.20618550000000369
14511,472.41836045208396,32,0.10309274999997342,40,0.10309275000003026
14512,472.521453202084,61,0.10309275000003026,78,0.20618550000000369
14513,472.62454595208396,41,0.10309274999997342,47,0.10309275000003026
14514,472.727638702084,62,0.10309275000003026,78,0.20618550000000369
14515,472.83073145208397,32,0.10309274999997342,40,0.10309275000003026
14516,472.933824202084,62,0.10309275000003026,81,0.41237100000000737
14517,473.03691695208397,30,0.10309274999997342,43,0.10309275000003026
14518,473.140009702084,33,0.10309275000003026,47,0.10309274999997342
14519,473.243102452084,42,0.10309274999997342,50,0.10309275000003026
14520,473.346195202084,57,0.10309275000003026,82,0.25531899999998586
14521,473.473854702084,30,0.12765949999999293,43,0.12765949999999293
14522,473.601514202084,64,0.12765949999999293,88,1.1673149999999737
14523,473.718245702084,31,0.11673150000001442,47,0.11673149999995758
14524,473.83497720208396,34,0.11673149999995758,49,0.11673150000001442
14525,473.951708702084,43,0.11673150000001442,51,0.11673150000001442
14526,474.068440202084,34,0.11673150000001442,49,0.11673150000001442
14527,474.185171702084,31,0.11673150000001442,47,0.11673149999995758
14528,474.30190320208396,23,0.11673149999995758,57,0.11673150000001442
14529,474.418634702084,31,0.11673150000001442,48,0.11673150000001442
14530,474.535366202084,34,0.11673150000001442,51,0.11673150000001442
14531,474.652097702084,43,0.11673150000001442,53,0.11673149999995758
14532,474.76882920208396,63,0.11673149999995758,82,0.20905900000002475
14533,474.873358702084,31,0.10452950000001238,49,0.10452950000001238
14534,474.977888202084,64,0.10452950000001238,86,0.20618550000000369
14535,475.08098095208396,31,0.10309274999997342,51,0.10309275000003026
14536,475.184073702084,63,0.10309275000003026,81,0.20618550000000369
14537,475.28716645208397,43,0.10309274999997342,56,0.10309275000003026
14538,475.390259202084,64,0.10309275000003026,85,0.20618550000000369
14539,475.49335195208397,31,0.10309274999997342,51,0.10309275000003026
14540,475.596444702084,64,0.10309275000003026,88,0.41237100000000737
14541,475.699537452084,32,0.10309274999997342,54,0.10309275000003026
14542,475.802630202084,35,0.10309275000003026,56,0.10309274999997342
14543,475.905722952084,44,0.10309274999997342,59,0.10309275000003026
14544,476.008815702084,63,0.10309275000003026,91,0.233462999999972
14545,476.125547202084,32,0.11673150000001442,52,0.11673149999995758
14546,476.242278702084,66,0.11673149999995758,90,0.41237100000000737
14547,476.34537145208395,30,0.10309274999997342,55,0.10309275000003026
14548,476.448464202084,33,0.10309275000003026,57,0.10309274999997342
14549,476.55155695208396,39,0.10309274999997342,60,0.10309275000003026
14550,476.654649702084,66,0.10309275000003026,88,0.20618550000000369
14551,476.75774245208396,30,0.10309274999997342,55,0.10309275000003026
14552,476.860835202084,59,0.10309275000003026,92,0.41237100000000737
14553,476.96392795208396,26,0.10309274999997342,57,0.10309275000003026
14554,477.067020702084,32,0.10309275000003026,59,0.10309274999997342
14555,477.17011345208397,38,0.10309274999997342,60,0.10309275000003026
14556,477.273206202084,59,0.10309275000003026,88,0.22988500000002432
14557,477.388148702084,26,0.11494249999998374,57,0.11494250000004058
14558,477.503091202084,62,0.11494250000004058,99,0.41237100000000737
14559,477.606183952084,32,0.10309274999997342,56,0.10309275000003026
14560,477.709276702084,35,0.10309275000003026,60,0.10309274999997342
14561,477.812369452084,41,0.10309274999997342,62,0.10309275000003026
14562,477.91546220208403,68,0.10309275000003026,95,0.20618550000000369
14563,478.018554952084,32,0.10309274999997342,57,0.10309275000003026
14564,478.12164770208403,61,0.10309275000003026,96,0.41237100000000737
14565,478.224740452084,28,0.10309274999997342,59,0.10309275000003026
14566,478.32783320208404,34,0.10309275000003026,62,0.10309274999997342
14567,478.430925952084,40,0.10309274999997342,65,0.10309275000003026
14568,478.53401870208404,67,0.10309275000003026,96,0.24193550000001096
14569,478.654986452084,28,0.12096774999997706,59,0.1209677500000339
14570,478.77595420208405,64,0.1209677500000339,101,0.4152250000000208
14571,478.87976045208404,31,0.103806249999991,59,0.103806249999991
14572,478.98356670208403,37,0.103806249999991,64,0.103806249999991
14573,479.087372952084,43,0.103806249999991,66,0.10380625000004784
14574,479.1911792020841,64,0.10380625000004784,98,0.21818200000001298
14575,479.30027020208405,31,0.10909099999997807,59,0.10909100000003491
14576,479.4093612020841,63,0.10909100000003491,98,0.4363639999999691
14577,479.51845220208406,30,0.10909099999997807,58,0.10909100000003491
14578,479.6275432020841,33,0.10909100000003491,63,0.10909099999997807
14579,479.7366342020841,42,0.10909099999997807,68,0.10909099999997807
14580,479.84572520208405,71,0.10909099999997807,94,0.281690000000026
14581,479.98657020208407,30,0.140845000000013,62,0.140845000000013
14582,480.1274152020841,72,0.140845000000013,110,0.521739000000025
14583,480.2578499520841,30,0.13043475000000626,60,0.13043475000000626
14584,480.3882847020841,33,0.13043475000000626,64,0.13043475000000626
14585,480.5187194520841,39,0.13043475000000626,69,0.13043475000000626
14586,480.6491542020841,63,0.13043475000000626,94,0.2510459999999739
14587,480.7746772020841,30,0.12552299999998695,63,0.12552299999998695
14588,480.9002002020841,56,0.12552299999998695,109,0.1612905000000069
14589,481.3334727604174,23,0.43327255833332856,68,0.09493675000004487
14590,481.4252449520841,30,0.09177219166667783,68,0.09493674999998802
14591,481.5201817020841,44,0.09493674999998802,97,0.18927450000001045
14592,481.6148189520841,52,0.09463725000000522,75,0.09463725000000522
14593,481.7094562020841,59,0.09463725000000522,79,0.09463725000000522
14594,481.8040934520841,56,0.09463725000000522,83,0.09463725000000522
14595,481.8987307020841,64,0.09463725000000522,87,0.09463725000000522
14596,481.9933679520841,73,0.09463725000000522,91,0.09463724999994838
14597,482.08800520208405,71,0.09463724999994838,96,0.18927450000001045
14598,482.46655420208407,23,0.3785490000000209,68,0.09463725000000522
14599,482.5611914520841,30,0.09463725000000522,74,0.09463725000000522
14600,482.6558287020841,45,0.09463725000000522,97,0.1846155000000067
14601,482.74813645208405,51,0.09230774999997493,75,0.09230775000003177
14602,482.8404442020841,59,0.09230775000003177,80,0.09230774999997493
14603,482.93275195208406,57,0.09230774999997493,84,0.09230775000003177
14604,483.0250597020841,63,0.09230775000003177,88,0.09230774999997493
14605,483.11736745208407,71,0.09230774999997493,93,0.09230775000003177
14606,483.2096752020841,68,0.09230775000003177,97,0.1846155000000067
14607,483.57890620208406,23,0.36923099999995657,70,0.09230775000003177
14608,483.6712139520841,32,0.09230775000003177,75,0.09230774999997493
14609,483.76352170208406,44,0.09230774999997493,97,0.18927450000001045
14610,483.85815895208407,52,0.09463725000000522,75,0.09463725000000522
14611,483.9527962020841,59,0.09463725000000522,79,0.09463725000000522
14612,484.0474334520841,56,0.09463725000000522,83,0.09463725000000522
14613,484.1420707020841,64,0.09463725000000522,87,0.09463725000000522
14614,484.2367079520841,73,0.09463725000000522,91,0.09463724999994838
14615,484.33134520208404,63,0.09463724999994838,96,0.18927450000001045
14616,484.70989420208406,23,0.3785490000000209,68,0.09463725000000522
14617,484.80453145208406,30,0.09463725000000522,74,0.09463725000000522
14618,484.89916870208407,45,0.09463725000000522,97,0.1829270000000065
14619,484.99063220208404,51,0.09146349999997483,75,0.09146350000003167
14620,485.0820957020841,59,0.09146350000003167,80,0.09146349999997483
14621,485.17355920208405,57,0.09146349999997483,84,0.09146350000003167
14622,485.2650227020841,63,0.09146350000003167,88,0.09146349999997483
14623,485.35648620208406,71,0.09146349999997483,93,0.045731750000015836
14624,485.4022179520841,64,0.045731750000015836,100,0.09316775000002053
14625,485.4953857020841,76,0.09316775000002053,113,0.16901400000000422
14626,485.6643997020841,74,0.16901400000000422,111,0.16901400000000422
14627,485.74890670208407,72,0.08450699999997369,103,0.08450700000003053
14628,485.8334137020841,67,0.08450700000003053,107,0.1769909999999868
14629,485.9219092020841,64,0.08849550000002182,98,0.08849549999996498
14630,486.0104047020841,62,0.08849549999996498,102,0.5006385416666603
14631,486.0930874937507,60,0.08268279166662751,94,0.08298775000002934
14632,486.17607524375074,55,0.08298775000002934,98,0.08325633333333826
14633,486.2593315770841,52,0.08325633333333826,91,0.08360441666667384
14634,486.34293599375076,50,0.08360441666667384,94,0.08391625000001568
14635,486.4268522437508,48,0.08391625000001568,85,0.0841909999999757
14636,486.51104324375075,43,0.0841909999999757,90,0.08450699999997369
14637,486.5955502437507,40,0.08450699999997369,82,0.08450700000003053
14638,486.68005724375075,38,0.08450700000003053,85,0.16901400000000422
14639,486.7645642437507,36,0.08450699999997369,77,0.08450700000003053
14640,486.84907124375076,31,0.08450700000003053,81,0.17647049999999354
14641,487.02554174375075,32,0.17647049999999354,93,0.34090900000001056
14642,487.36645074375076,43,0.34090900000001056,87,0.2210086250000245
14643,487.49429161875076,64,0.12784087500000396,100,0.09316775000002053
14644,487.5874593687508,76,0.09316775000002053,113,0.16901400000000422
14645,487.7564733687508,74,0.16901400000000422,111,0.16901400000000422
14646,487.84098036875076,72,0.08450699999997369,103,0.08450700000003053
14647,487.9254873687508,67,0.08450700000003053,107,0.1769909999999868
14648,488.0139828687508,64,0.08849550000002182,98,0.08849549999996498
14649,488.1024783687508,62,0.08849549999996498,102,0.5021034999999756
14650,488.1855808687508,60,0.08310249999999542,96,0.08333325000000968
14651,488.2689141187508,55,0.08333325000000968,98,0.08356550000002017
14652,488.3524796187508,52,0.08356550000002017,91,0.08379899999999907
14653,488.4362786187508,50,0.08379899999999907,94,0.08403349999997545
14654,488.5203121187508,48,0.08403349999997545,87,0.08426974999997583
14655,488.60458186875076,43,0.08426974999997583,90,0.08450699999997369
14656,488.68908886875073,40,0.08450699999997369,82,0.08450700000003053
14657,488.77359586875076,38,0.08450700000003053,85,0.16901400000000422
14658,488.85810286875073,36,0.08450699999997369,78,0.08450700000003053
14659,488.94260986875076,31,0.08450700000003053,81,0.17647049999999354
14660,489.11908036875076,32,0.17647049999999354,93,0.33240999999998166
14661,489.45149036875074,43,0.33240999999998166,87,0.16620499999999083
14662,489.61769536875073,44,0.16620499999999083,87,0.10663499999998294
14663,489.7598753687507,32,0.1421799999999962,43,0.07109000000002652
14664,489.83096536875075,36,0.07109000000002652,45,0.07108999999996968
14665,489.9020553687507,40,0.07108999999996968,46,0.1421799999999962
14666,489.97314536875075,44,0.07109000000002652,48,0.07108999999996968
14667,490.0442353687507,56,0.07108999999996968,54,0.1421799999999962
14668,490.1864153687507,32,0.1421799999999962,43,0.07109000000002652
14669,490.25750536875074,36,0.07109000000002652,44,0.07108999999996968
14670,490.3285953687507,40,0.07108999999996968,45,0.1421799999999962
14671,490.39968536875074,44,0.07109000000002652,46,0.07108999999996968
14672,490.4707753687507,56,0.07108999999996968,54,0.1421799999999962
14673,490.6129553687507,32,0.1421799999999962,46,0.07246374999999716
14674,490.6854191187507,37,0.07246374999999716,46,0.07246374999999716
14675,490.7578828687507,40,0.07246374999999716,47,0.14492749999999432
14676,490.8303466187507,44,0.07246374999999716,47,0.07246374999999716
14677,490.9028103687507,56,0.07246374999999716,54,0.14492749999999432
14678,491.0477378687507,32,0.14492749999999432,45,0.0731707499999743
14679,491.12090861875066,37,0.0731707499999743,46,0.07317075000003115
14680,491.1940793687507,41,0.07317075000003115,47,0.14634150000000545
14681,491.26725011875067,44,0.0731707499999743,49,0.07317075000003115
14682,491.3404208687507,56,0.07317075000003115,55,0.14634150000000545
14683,491.4867623687507,33,0.14634150000000545,46,0.0731707499999743
14684,491.5599331187507,37,0.0731707499999743,47,0.07317075000003115
14685,491.6331038687507,41,0.07317075000003115,48,0.14634150000000545
14686,491.7062746187507,45,0.0731707499999743,49,0.07317075000003115
14687,491.7794453687507,57,0.07317075000003115,57,0.1463414999999486
14688,491.92578686875066,33,0.1463414999999486,47,0.07425749999998743
14689,492.00004436875065,37,0.07425749999998743,48,0.07425749999998743
14690,492.07430186875064,42,0.07425749999998743,49,0.1485150000000317
14691,492.1485593687507,45,0.07425750000004427,51,0.07425749999998743
14692,492.22281686875067,54,0.07425749999998743,57,0.14851499999997486
14693,492.37133186875064,34,0.14851499999997486,47,0.07425750000004427
14694,492.4455893687507,40,0.07425750000004427,48,0.07425749999998743
14695,492.5198468687507,43,0.07425749999998743,50,0.14851499999997486
14696,492.59410436875066,46,0.07425749999998743,51,0.07425749999998743
14697,492.66836186875065,58,0.07425749999998743,60,0.1485150000000317
14698,492.8168768687507,47,0.1485150000000317,56,0.07518800000002557
14699,492.8920648687507,52,0.07518800000002557,60,0.07518799999996872
14700,492.9672528687507,56,0.07518799999996872,63,0.1503759999999943
14701,493.0424408687507,59,0.07518800000002557,67,0.22556399999996302
14702,493.11762886875067,68,0.07518799999996872,77,0.1503759999999943
14703,493.41838086875066,39,0.3007519999999886,63,0.04842616666667254
14704,493.46680703541733,40,0.04842616666667254,64,0.04842616666667254
14705,493.515233202084,44,0.04842616666667254,66,0.04842616666667254
14706,493.5636593687507,47,0.04842616666667254,68,0.1452784999999608
14707,493.85421636875066,38,0.2905569999999784,62,0.04842616666667254
14708,493.9026425354173,39,0.04842616666667254,63,0.04842616666667254
14709,493.951068702084,44,0.04842616666667254,65,0.04842616666667254
14710,493.9994948687507,47,0.04842616666667254,67,0.1452784999999608
14711,494.29005186875065,36,0.2905569999999784,62,0.04842616666667254
14712,494.3384780354173,37,0.04842616666667254,64,0.04842616666667254
14713,494.386904202084,44,0.04842616666667254,66,0.04842616666667254
14714,494.43533036875067,47,0.04842616666667254,68,0.14150949999998375
14715,494.8598588687507,35,0.4245285000000081,86,0.14150949999998375
14716,495.2843873687507,68,0.4245285000000081,90,0.5660379999999918
14717,495.8504253687507,71,0.5660379999999918,77,0.15544049999999743
14718,496.0058658687507,68,0.15544049999999743,77,0.14962600000001203
14719,496.1554918687507,71,0.14962600000001203,75,0.14669950000001108
14720,496.3021913687507,59,0.14669950000001108,80,0.14669950000001108
14721,496.4488908687507,66,0.14669950000001108,79,0.13856800000002067
14722,496.58745886875073,64,0.13856800000002067,90,0.1039260000000013
14723,496.8645948687507,39,0.2771359999999845,63,0.04842616666667254
14724,496.9130210354174,40,0.04842616666667254,64,0.04842616666667254
14725,496.96144720208406,44,0.04842616666667254,66,0.04842616666667254
14726,497.00987336875073,47,0.04842616666667254,68,0.1452784999999608
14727,497.3004303687507,38,0.2905569999999784,62,0.04842616666667254
14728,497.3488565354174,39,0.04842616666667254,63,0.04842616666667254
14729,497.39728270208406,44,0.04842616666667254,65,0.04842616666667254
14730,497.4457088687507,47,0.04842616666667254,67,0.1452784999999608
14731,497.7362658687507,36,0.2905569999999784,62,0.04842616666667254
14732,497.7846920354174,37,0.04842616666667254,64,0.04842616666667254
14733,497.83311820208405,44,0.04842616666667254,66,0.04842616666667254
14734,497.8815443687507,47,0.04842616666667254,68,0.14150949999998375
14735,498.30607286875073,35,0.4245285000000081,86,0.14150949999998375
14736,498.73060136875074,71,0.4245285000000081,90,0.5660379999999918
14737,499.29663936875073,71,0.5660379999999918,74,0.15544049999999743
14738,499.45207986875073,68,0.15544049999999743,71,0.14962600000001203
14739,499.60170586875074,71,0.14962600000001203,68,0.14669950000001108
14740,499.74840536875075,68,0.14669950000001108,66,0.14669950000001108
14741,499.89510486875076,66,0.14669950000001108,63,0.13856800000002067
14742,500.0336728687508,51,0.13856800000002067,59,0.41284350000000813
14743,500.3089018687508,66,0.27522900000002437,59,0.13761449999998376
14744,500.4465163687508,68,0.13761449999998376,58,0.41097549999994953
14745,500.72174536875076,54,0.2752289999999675,58,0.135746499999982
14746,500.85749186875074,68,0.135746499999982,60,0.40723950000000286
14747,501.12898486875076,66,0.27149300000002086,58,0.135746499999982
14748,501.26473136875074,61,0.135746499999982,62,0.4060220000000072
14749,501.53622436875077,67,0.27149300000002086,63,0.13452899999998635
14750,501.67075336875075,57,0.13452899999998635,67,0.4035870000000159
14751,501.9398113687508,67,0.26905800000002955,70,0.13452899999998635
14752,502.07434036875077,74,0.13452899999998635,74,0.4035870000000159
14753,502.34339836875074,56,0.2690579999999727,74,0.1345290000000432
14754,502.4779273687508,62,0.1345290000000432,78,0.4095729999999662
14755,502.74698536875076,56,0.2690579999999727,79,0.1405149999999935
14756,502.88750036875075,71,0.1405149999999935,84,0.4401809999999955
14757,503.16853036875074,57,0.281029999999987,86,0.15915100000000848
14758,503.32768136875075,80,0.15915100000000848,101,0.15384599999998727
14759,503.48152736875073,78,0.15384599999998727,100,0.15384599999998727
14760,503.55845036875075,76,0.07692300000002206,96,0.07692299999996521
14761,503.6353733687507,71,0.07692299999996521,98,0.15384600000004411
14762,503.71229636875074,68,0.07692300000002206,93,0.07692300000002206
14763,503.78921936875076,66,0.07692300000002206,95,0.1522205416666793
14764,503.8652007854174,64,0.07598141666665015,89,0.07623912500002916
14765,503.94143991041744,59,0.07623912500002916,92,0.15325749999999516
14766,504.0179055770841,56,0.07646566666664967,86,0.0767918333333455
14767,504.09469741041744,54,0.0767918333333455,89,0.1543415833332915
14768,504.1717192854174,52,0.07702187499995716,83,0.07731970833333435
14769,504.24903899375073,47,0.07731970833333435,86,0.07731949999998733
14770,504.3263584937507,44,0.07731949999998733,81,0.07731949999998733
14771,504.4036779937507,42,0.07731949999998733,83,0.1546390000000315
14772,504.48099749375075,40,0.07731950000004417,79,0.07731949999998733
14773,504.55831699375074,35,0.07731949999998733,80,0.15665799999999308
14774,504.71497499375073,48,0.15665799999999308,88,0.4522620000000188
14775,505.01648299375074,47,0.30150800000001254,83,0.15075400000000627
14776,505.16723699375075,80,0.15075400000000627,100,0.15384599999998727
14777,505.32108299375074,78,0.15384599999998727,99,0.15384599999998727
14778,505.39800599375076,76,0.07692300000002206,92,0.07692299999996521
14779,505.4749289937507,71,0.07692299999996521,96,0.15384600000004411
14780,505.55185199375074,68,0.07692300000002206,91,0.07692300000002206
14781,505.62877499375077,66,0.07692300000002206,93,0.1522205416666793
14782,505.7047564104174,64,0.07598141666665015,88,0.07623912500002916
14783,505.78099553541745,59,0.07623912500002916,90,0.15325749999999516
14784,505.8574612020841,56,0.07646566666664967,86,0.0767918333333455
14785,505.93425303541744,54,0.0767918333333455,87,0.1543415833332915
14786,506.0112749104174,52,0.07702187499995716,81,0.07731970833333435
14787,506.08859461875073,47,0.07731970833333435,84,0.07731949999998733
14788,506.1659141187507,44,0.07731949999998733,79,0.07731949999998733
14789,506.2432336187507,42,0.07731949999998733,82,0.1546390000000315
14790,506.32055311875075,40,0.07731950000004417,76,0.07731949999998733
14791,506.39787261875074,35,0.07731949999998733,79,0.15665799999999308
14792,506.55453061875073,48,0.15665799999999308,82,0.44117699999998194
14793,506.84864861875076,47,0.29411800000002586,77,0.14705899999995609
14794,506.9957076187507,35,0.14705899999995609,70,0.14705900000001293
14795,507.1427666187507,22,0.14705900000001293,68,0.14319799999998395
14796,507.2859646187507,23,0.14319799999998395,68,0.1431980000000408
14797,507.42916261875075,48,0.1431980000000408,82,0.28846199999998134
14798,507.57339361875074,33,0.14423099999999067,70,0.14423099999999067
14799,507.71762461875073,47,0.14423099999999067,77,0.14423099999999067
14800,507.8618556187507,47,0.14423099999999067,71,0.14423100000004752
14801,508.00608661875077,22,0.14423100000004752,69,0.1395350000000235
14802,508.1456216187508,23,0.1395350000000235,69,0.13953499999996666
14803,508.28515661875076,48,0.13953499999996666,83,0.281690000000026
14804,508.4260016187508,21,0.140845000000013,70,0.140845000000013
14805,508.5668466187508,47,0.140845000000013,77,0.14084499999995614
14806,508.70769161875074,47,0.14084499999995614,74,0.13761449999998376
14807,508.8453061187507,22,0.13761449999998376,69,0.1376145000000406
14808,508.98292061875077,23,0.1376145000000406,69,0.13761449999998376
14809,509.12053511875075,36,0.13761449999998376,86,0.27842199999997774
14810,509.25974611875074,33,0.13921099999998887,70,0.13921099999998887
14811,509.39895711875073,47,0.13921099999998887,81,0.14319799999998395
14812,509.5421551187507,36,0.14319799999998395,71,0.10739849999998796
14813,509.68535311875075,47,0.1431980000000408,73,0.10739849999998796
14814,509.82855111875074,36,0.14319799999998395,74,0.10538624999998092
14815,509.96906611875073,47,0.1405149999999935,76,0.10538624999998092
14816,510.1095811187507,48,0.1405149999999935,77,0.10344824999998536
14817,510.2475121187507,35,0.13793099999998049,79,0.10344825000004221
14818,510.38544311875074,48,0.13793100000003733,89,0.1063829999999939
14819,510.8109751187507,27,0.4255319999999756,101,0.1418440000000487
14820,511.23650711875075,32,0.42553200000003244,101,0.14184399999999187
14821,511.6620391187507,30,0.4255319999999756,101,0.14184399999999187
14822,512.0875711187507,35,0.4255319999999756,101,0.4255320000000893
14823,512.9386351187508,44,0.8510640000000649,101,0.4400984999999764
14824,513.7088074937508,28,0.7701723750000156,69,0.24500812500002667
14825,513.7271449312508,35,0.01833743750000849,82,0.22667068750001818
14826,513.7454823687508,47,0.01833743750000849,87,0.20833325000000968
14827,513.9538156187508,80,0.20833325000000968,123,1.719526500000029
14828,0.9091379999999999,31,0.0,55,0.30660699999999996
14829,1.2157449999999999,24,0.30660699999999996,55,0.07579941666666667
14830,1.3679931666666665,55,0.15224816666666663,55,0.07644874999999995
14831,1.5208906666666664,27,0.1528974999999999,55,0.07644874999999995
14832,1.6737881666666665,60,0.15289750000000013,55,0.07644874999999995
14833,1.8266856666666664,26,0.1528974999999999,55,0.07488399999999995
14834,1.9764536666666666,60,0.14976800000000012,55,0.07488399999999995
14835,2.1262216666666665,31,0.1497679999999999,55,0.07488399999999995
14836,2.2759896666666664,59,0.1497679999999999,55,0.07488399999999995
14837,2.4257576666666667,27,0.14976800000000035,55,0.07375350000000003
14838,2.5732646666666668,55,0.14750700000000005,55,0.07375350000000003
14839,2.720771666666667,24,0.14750700000000005,55,0.07375350000000003
14840,2.868278666666667,63,0.14750700000000005,55,0.07375349999999958
14841,3.0170884166666663,29,0.1488097499999994,56,0.07258299999999984
14842,3.162397583333333,63,0.14530916666666682,56,0.07294908333333305
14843,3.308516416666666,29,0.14611883333333298,58,0.07339041666666679
14844,3.4555204999999996,62,0.14700408333333348,58,0.07383841666666635
14845,3.6034234166666663,27,0.14790291666666677,60,0.07391350000000019
14846,3.751175333333333,60,0.14775191666666654,61,0.07368825000000001
14847,3.8984026666666667,27,0.14722733333333382,61,0.07339041666666635
14848,4.045035333333333,67,0.1466326666666662,62,0.07324224999999984
14849,4.197249833333332,26,0.15221449999999948,63,0.07471275000000066
14850,4.344617166666667,65,0.1473673333333343,64,0.07287341666666691
14851,4.490587833333334,19,0.14597066666666692,66,0.07324224999999984
14852,4.637294583333333,67,0.14670674999999989,66,0.07368825000000001
14853,4.790217833333333,24,0.15292324999999973,68,0.07413999999999987
14854,4.938497833333333,63,0.14827999999999975,66,0.07413999999999987
14855,5.0867778333333336,26,0.14828000000000063,66,0.07413999999999987
14856,5.235057833333333,59,0.14827999999999975,63,0.07413999999999987
14857,5.383337833333333,27,0.14827999999999975,61,0.07413999999999987
14858,5.531617833333333,60,0.14827999999999975,58,0.07414000000000076
14859,5.679897833333333,24,0.14828000000000063,58,0.07413999999999987
14860,5.828177833333333,63,0.14827999999999975,55,0.07413999999999987
14861,5.980268333333333,19,0.1520904999999999,55,0.07525916666666621
14862,6.129440999999999,62,0.14917266666666595,55,0.07391350000000063
14863,6.277267999999999,24,0.14782700000000037,55,0.07376333333333296
14864,6.424719583333332,60,0.14745158333333297,55,0.07368825000000001
14865,6.572096083333332,26,0.14737650000000002,55,0.07353908333333337
14866,6.719099666666666,55,0.1470035833333334,55,0.07346450000000004
14867,6.866028666666666,24,0.1469290000000001,55,0.07331633333333354
14868,7.012587249999999,60,0.14655858333333338,55,0.07324224999999984
14869,7.15907175,19,0.14648450000000057,55,0.07309725
14870,7.30519375,62,0.14612200000000009,55,0.07273025000000022
14871,7.450507,24,0.14531325000000006,55,0.07258299999999984
14872,7.595673,60,0.14516599999999968,55,0.07258299999999984
14873,7.740839,26,0.14516600000000057,56,0.07258299999999984
14874,7.886005,55,0.14516599999999968,57,0.07258299999999984
14875,8.031171,24,0.14516600000000057,60,0.07258299999999984
14876,8.176337,60,0.14516599999999968,61,0.07258299999999984
14877,8.3256425,22,0.14930550000000054,64,0.07436425000000035
14878,8.474371000000001,62,0.1487285000000007,66,0.07436424999999858
14879,8.6230995,24,0.14872849999999893,68,0.07436425000000035
14880,8.771828000000001,63,0.1487285000000007,72,0.07436425000000035
14881,8.9205565,26,0.14872849999999893,63,0.07346450000000004
14882,9.0674855,58,0.1469290000000001,63,0.07346450000000004
14883,9.2144145,26,0.1469290000000001,62,0.07346450000000004
14884,9.3613435,57,0.1469290000000001,62,0.07346450000000004
14885,9.5082725,31,0.1469290000000001,61,0.07301750000000062
14886,9.654489250000001,55,0.14621675000000067,62,0.07338550000000055
14887,9.801440250000002,30,0.14695100000000139,60,0.07375350000000047
14888,9.949125500000003,57,0.14768525000000032,61,0.07412899999999922
14889,10.097570750000003,29,0.14844524999999997,61,0.07450075000000034
14890,10.246769000000002,58,0.14919824999999953,58,0.07488400000000084
14891,10.396731750000002,19,0.14996275000000026,58,0.07526724999999956
14892,10.547463000000002,59,0.15073124999999976,55,0.07572324999999935
14893,10.698915658333336,24,0.15145265833333355,55,0.07579941666666556
14894,10.851163825000002,60,0.1522481666666664,56,0.07644874999999907
14895,11.004061325000002,27,0.1528974999999999,55,0.07644874999999907
14896,11.156958825000002,60,0.1528974999999999,71,0.6078670000000006
14897,11.309856325000002,26,0.1528974999999999,55,0.07772424999999927
14898,11.465304825000002,53,0.15544850000000032,57,0.07488024999999965
14899,11.615065325000002,31,0.1497604999999993,55,0.07488025000000142
14900,11.764825825000003,59,0.14976050000000107,53,0.07488024999999965
14901,11.914586325000002,27,0.1497604999999993,55,0.07375350000000047
14902,12.062093325000001,55,0.14750699999999917,56,0.07375350000000047
14903,12.209600325000002,24,0.14750700000000094,55,0.07375350000000047
14904,12.357107325000001,63,0.14750699999999917,71,0.5923873333333329
14905,12.505917075000001,29,0.14880974999999985,56,0.07488024999999965
14906,12.655677575,56,0.1497604999999993,56,0.07364324999999994
14907,12.802490575,29,0.14681299999999986,58,0.07339041666666724
14908,12.949494658333334,62,0.14700408333333392,56,0.295654833333332
14909,13.097397575,27,0.14790291666666633,60,0.07391349999999974
14910,13.245149491666666,60,0.14775191666666565,58,0.14722733333333515
14911,13.392376825000001,27,0.14722733333333515,61,0.07339041666666546
14912,13.539009491666667,67,0.1466326666666653,75,0.29194183333333257
14913,13.685493991666666,26,0.14648449999999968,63,0.07280274999999925
14914,13.830951325,65,0.14545733333333288,77,0.2926774166666668
14915,13.976921991666666,19,0.14597066666666692,66,0.07324224999999984
14916,14.123628741666666,67,0.14670674999999989,82,0.29565649999999977
14917,14.271005241666666,24,0.14737650000000002,68,0.07413999999999987
14918,14.419285241666666,63,0.14827999999999975,77,0.14827999999999975
14919,14.567565241666665,26,0.14827999999999975,66,0.07413999999999987
14920,14.715845241666665,62,0.14827999999999975,66,0.29656000000000127
14921,14.864125241666667,27,0.14828000000000152,61,0.07413999999999987
14922,15.012405241666666,60,0.14827999999999975,61,0.4486504999999994
14923,15.160685241666666,24,0.14827999999999975,58,0.07413999999999987
14924,15.308965241666666,55,0.14827999999999975,52,0.07413999999999987
14925,15.461055741666666,19,0.1520904999999999,55,0.07393533333333302
14926,15.608904574999999,62,0.14784883333333276,71,0.2952785833333351
14927,15.756731575,24,0.14782700000000126,55,0.07376333333333385
14928,15.904183158333334,60,0.14745158333333386,66,0.29438008333333165
14929,16.051559658333332,26,0.14737649999999825,55,0.07353908333333337
14930,16.198563241666665,55,0.1470035833333334,64,0.29348758333333436
14931,16.345492241666665,24,0.1469290000000001,55,0.07331633333333443
14932,16.492050825,60,0.14655858333333427,60,0.14648449999999968
14933,16.638535325,19,0.14648449999999968,55,0.07309725
14934,16.784657324999998,62,0.1461219999999983,67,0.29047925000000063
14935,16.929970575,24,0.14531325000000095,55,0.07258300000000162
14936,17.075136575,60,0.14516599999999968,69,0.2903320000000029
14937,17.220302574999998,26,0.14516599999999968,56,0.07258300000000162
14938,17.365468575,55,0.14516600000000324,75,0.29033199999999937
14939,17.510634575,24,0.14516599999999968,60,0.07258299999999807
14940,17.655800575,60,0.14516599999999968,67,0.14930549999999698
14941,17.805106074999998,22,0.14930549999999698,64,0.07479425000000006
14942,17.954694574999998,62,0.14958850000000012,75,0.29917700000000025
14943,18.104283074999998,24,0.14958850000000012,68,0.07479425000000006
14944,18.253871574999998,63,0.14958850000000012,77,0.29843500000000134
14945,18.403460074999998,26,0.14958850000000012,63,0.07442324999999883
14946,18.552306575,58,0.14884650000000121,73,0.2976929999999989
14947,18.701153074999997,26,0.14884649999999766,62,0.07442325000000238
14948,18.849999575,57,0.14884650000000121,68,0.29602709374999847
14949,18.998808085416666,31,0.14880851041666787,61,0.07351902083333073
14950,19.146026668749997,55,0.1472185833333306,64,1.0627866145833273
14951,19.294044247916666,24,0.14801757916666958,60,0.07428352708333108
14952,19.44283273333333,51,0.148788485416663,53,0.1496046416666701
14953,19.592437375,31,0.1496046416666701,61,0.0751018833333319
14954,19.742829622916663,50,0.15039224791666328,51,0.15123399374999735
14955,19.89406361666666,24,0.15123399374999735,58,0.07565358333333094
14956,20.04728261666666,51,0.153219,48,0.16153066666666405
14957,20.208813283333324,22,0.16153066666666405,55,0.08062350000000151
14958,20.370060283333324,62,0.16124699999999947,61,0.31993500000000097
14959,20.531307283333323,24,0.16124699999999947,57,0.07934399999999897
14960,20.689995283333324,63,0.1586880000000015,64,0.31489749999999717
14961,20.848683283333322,26,0.15868799999999794,53,0.07810475000000139
14962,21.00489278333332,58,0.15620949999999922,60,0.3187669999999976
14963,21.16110228333332,26,0.15620949999999922,52,0.08127874999999918
14964,21.32365978333332,57,0.16255749999999836,56,0.160593777083335
14965,21.484253560416654,31,0.160593777083335,59,0.07422212708333475
14966,21.63305464583332,55,0.1488010854166646,63,0.6034871270833335
14967,21.782771087499988,30,0.1497164416666692,63,0.07513948333333431
14968,21.933238685416654,50,0.1504675979166663,60,0.15123399374999735
14969,22.08447267916665,29,0.15123399374999735,72,0.07593827083333338
14970,22.236541772916652,56,0.15206909375000066,80,0.46092743124999913
14971,22.389385533333318,28,0.15284376041666548,77,0.07671493750000025
14972,22.543011960416653,50,0.15362642708333496,64,0.1544572437499987
14973,22.69746920416665,27,0.1544572437499987,77,0.0739353333333348
14974,22.845318037499986,60,0.14784883333333454,89,0.29527858333333157
14975,22.993145037499986,27,0.1478269999999995,77,0.07376333333333207
14976,23.140596620833318,59,0.14745158333333208,84,0.29438008333333343
14977,23.287973120833318,27,0.14737650000000002,77,0.07353908333333337
14978,23.43497670416665,58,0.1470035833333334,82,0.07346450000000004
14979,23.58190570416665,27,0.1469290000000001,77,0.07223700000000122
14980,23.72637970416665,51,0.14447399999999888,77,0.07223700000000122
14981,23.870853704166652,27,0.14447400000000243,77,0.07223699999999766
14982,24.01532770416665,58,0.14447399999999888,82,0.07223700000000122
14983,24.15980170416665,27,0.14447399999999888,77,0.07223700000000122
14984,24.304275704166653,51,0.14447400000000243,77,0.07223699999999766
14985,24.44874970416665,27,0.14447399999999888,77,0.07295483333333408
14986,24.595018287499986,58,0.1462685833333346,82,0.07331375000000051
14987,24.741645787499984,32,0.14662749999999747,77,0.07331375000000051
14988,24.888273287499985,56,0.14662750000000102,77,0.07331375000000051
14989,25.034900787499986,23,0.14662750000000102,61,0.0739353333333348
14990,25.18274962083332,56,0.14784883333333454,70,0.29527858333333157
14991,25.33057662083332,23,0.1478269999999995,61,0.07376333333333207
14992,25.47802820416665,55,0.14745158333333208,67,0.29438008333333343
14993,25.62540470416665,23,0.14737650000000002,61,0.07353908333333337
14994,25.772408287499985,54,0.1470035833333334,66,0.07346450000000004
14995,25.919337287499985,23,0.1469290000000001,61,0.07223700000000122
14996,26.063811287499984,47,0.14447399999999888,61,0.07223700000000122
14997,26.208285287499987,23,0.14447400000000243,61,0.07223699999999766
14998,26.352759287499985,54,0.14447399999999888,66,0.07223700000000122
14999,26.497233287499984,23,0.14447399999999888,61,0.07223700000000122
15000,26.641707287499987,47,0.14447400000000243,61,0.07397900000000135
15001,26.789665287499986,23,0.14795799999999915,61,0.07353550000000197
15002,26.93651453749999,54,0.14684925000000248,66,0.07331375000000051
15003,27.083142037499986,23,0.14662749999999747,61,0.07266750000000144
15004,27.228477037499985,52,0.14533499999999933,61,0.29196250000000035
15005,27.373812037499984,23,0.14533499999999933,61,0.07331375000000051
15006,27.520439537499986,51,0.14662750000000102,66,0.2932549999999985
15007,27.667067037499983,23,0.14662749999999747,61,0.07331375000000051
15008,27.813694537499984,49,0.14662750000000102,62,0.29325500000000204
15009,27.960322037499985,23,0.14662750000000102,62,0.07331375000000051
15010,28.106949537499986,47,0.14662750000000102,67,0.2968529999999987
15011,28.253577037499984,23,0.14662749999999747,63,0.07511274999999884
15012,28.403802537499985,54,0.15022550000000123,63,0.2968529999999987
15013,28.554028037499982,23,0.15022549999999768,64,0.07331375000000051
15014,28.700655537499983,52,0.14662750000000102,70,0.2932549999999985
15015,28.84728303749998,23,0.14662749999999747,64,0.07331375000000051
15016,28.993910537499982,49,0.14662750000000102,66,0.29325500000000204
15017,29.140538037499983,23,0.14662750000000102,67,0.07331375000000051
15018,29.287165537499984,52,0.14662750000000102,72,0.2950319999999991
15019,29.43379303749998,23,0.14662749999999747,67,0.07420224999999903
15020,29.582197537499983,51,0.1484045000000016,68,0.2950319999999991
15021,29.73060203749998,23,0.14840449999999805,68,0.07331375000000051
15022,29.877229537499982,54,0.14662750000000102,73,0.2932549999999985
15023,30.02385703749998,23,0.14662749999999747,69,0.07331375000000051
15024,30.17048453749998,52,0.14662750000000102,69,0.29325500000000204
15025,30.31711203749998,23,0.14662750000000102,70,0.07331375000000051
15026,30.463739537499983,51,0.14662750000000102,75,0.2932549999999985
15027,30.61036703749998,24,0.14662749999999747,71,0.07331375000000051
15028,30.75699453749998,56,0.14662750000000102,71,0.2932549999999985
15029,30.903622037499982,23,0.14662750000000102,72,0.07331375000000051
15030,31.05024953749998,54,0.14662749999999747,78,0.29325500000000204
15031,31.19687703749998,23,0.14662750000000102,73,0.07331375000000051
15032,31.34350453749998,51,0.14662750000000102,73,0.2932549999999985
15033,31.490132037499983,25,0.14662750000000102,73,0.07331374999999696
15034,31.63675953749998,54,0.14662749999999747,80,0.2950320000000026
15035,31.78338703749998,25,0.14662750000000102,74,0.07420224999999903
15036,31.931791537499983,53,0.1484045000000016,75,0.2962533333333326
15037,32.08019603749998,26,0.14840449999999805,77,0.07393533333333124
15038,32.228044870833315,59,0.14784883333333454,84,0.295278583333328
15039,32.375871870833315,26,0.1478269999999995,77,0.07376333333333207
15040,32.52332345416664,58,0.14745158333332853,84,0.294380083333337
15041,32.67069995416664,27,0.14737650000000002,77,0.07353908333333692
15042,32.81770353749998,51,0.14700358333333696,82,0.2914030000000025
15043,32.96463253749998,20,0.1469290000000001,77,0.07223700000000122
15044,33.10910653749998,56,0.14447400000000243,77,0.14447399999999533
15045,33.25358053749998,26,0.14447399999999533,77,0.07393533333333124
15046,33.40142937083331,59,0.14784883333333454,83,0.1478269999999995
15047,33.54925637083331,26,0.1478269999999995,77,0.07376333333333207
15048,33.69670795416664,58,0.14745158333332853,84,0.14737650000000002
15049,33.84408445416664,27,0.14737650000000002,77,0.07353908333333692
15050,33.99108803749998,51,0.14700358333333696,82,0.1469290000000001
15051,34.13801703749998,20,0.1469290000000001,77,0.07223700000000122
15052,34.28249103749998,56,0.14447400000000243,77,0.14447399999999533
15053,34.426965037499976,18,0.14447399999999533,69,0.07393533333333124
15054,34.57481387083331,58,0.14784883333333454,74,0.07391349999999619
15055,34.72264087083331,20,0.1478269999999995,69,0.07391349999999619
15056,34.87046787083331,59,0.1478269999999995,75,0.07391349999999619
15057,35.01829487083331,22,0.1478269999999995,69,0.07391349999999619
15058,35.16612187083331,54,0.1478269999999995,73,0.07391349999999619
15059,35.31394887083331,22,0.1478269999999995,69,0.07511275000000239
15060,35.464174370833305,53,0.15022549999999768,69,0.07511275000000239
15061,35.61439987083331,27,0.15022550000000479,61,0.07690325000000087
15062,35.76820637083331,51,0.15380650000000173,67,1.0824137500000077
15063,35.921620620833316,20,0.15341425000000442,61,0.07651099999999644
15064,36.074642620833316,47,0.153022,57,0.153022
15065,36.227664620833316,27,0.153022,61,0.07651099999999644
15066,36.380686620833316,46,0.153022,56,0.153022
15067,36.533708620833316,20,0.153022,61,0.07651099999999644
15068,36.686730620833316,44,0.153022,50,0.16388950000000335
15069,36.85062012083332,18,0.16388950000000335,55,0.08062350000000151
15070,37.01186712083332,58,0.16124700000000303,52,0.32249399999999895
15071,37.17311412083332,20,0.16124699999999592,49,0.08062350000000151
15072,37.33436112083332,59,0.16124700000000303,53,0.3186859999999925
15073,37.49560812083332,22,0.16124699999999592,49,0.07871949999999828
15074,37.653047120833314,54,0.15743899999999655,51,0.32088200000000455
15075,37.81048612083332,22,0.15743900000000366,49,0.08172150000000045
15076,37.97392912083332,53,0.1634430000000009,49,0.3225520000000017
15077,38.13737212083332,27,0.1634430000000009,42,0.07955450000000042
15078,38.29648112083332,51,0.15910900000000083,47,1.1137629999999987
15079,38.45559012083332,20,0.15910900000000083,39,0.07955450000000042
15080,38.61469912083332,47,0.15910900000000083,45,0.15910900000000083
15081,38.77380812083332,27,0.15910900000000083,41,0.07955449999999331
15082,38.93291712083332,46,0.15910899999999373,44,0.15910900000000083
15083,39.09202612083332,20,0.15910900000000083,42,0.07955450000000042
15084,39.25113512083332,47,0.15910900000000083,39,0.15910900000000083
15085,39.41024412083332,18,0.15910900000000083,58,0.07830849999999856
15086,39.566861120833316,58,0.15661699999999712,68,0.31042350000000596
15087,39.72347812083332,20,0.15661700000000423,64,0.07690325000000087
15088,39.87728462083332,59,0.15380650000000173,72,0.3060480000000041
15089,40.030310620833326,23,0.1530260000000041,68,0.07651100000000355
15090,40.183332620833326,63,0.153022,73,0.3084220000000002
15091,40.336354620833326,22,0.153022,70,0.0777000000000001
15092,40.491754620833326,62,0.1554000000000002,72,0.1554000000000002
15093,40.64715462083333,27,0.1554000000000002,71,0.07488024999999965
15094,40.796915120833326,61,0.1497604999999993,63,0.2995209999999986
15095,40.946675620833325,32,0.1497604999999993,60,0.07488024999999965
15096,41.096436120833324,59,0.1497604999999993,64,0.299985999999997
15097,41.246196620833324,34,0.1497604999999993,57,0.07511275000000239
15098,41.39642212083332,58,0.15022549999999768,59,0.3023015000000058
15099,41.546647620833326,22,0.15022550000000479,55,0.07603799999999694
15100,41.69872362083333,50,0.152076000000001,50,0.298703500000002
15101,41.85079962083333,27,0.152076000000001,49,0.07331374999999696
15102,41.99742712083333,51,0.14662750000000102,52,0.29325500000000204
15103,42.14405462083333,26,0.14662750000000102,49,0.07331374999999696
15104,42.29068212083333,52,0.14662750000000102,49,0.29325499999999494
15105,42.437309620833325,27,0.14662749999999392,49,0.07331375000000406
15106,42.583937120833326,51,0.14662750000000102,52,0.2968529999999987
15107,42.73056462083333,26,0.14662750000000102,50,0.07511275000000239
15108,42.880790120833325,53,0.15022549999999768,50,0.2968530000000058
15109,43.03101562083333,27,0.15022550000000479,51,0.07331374999999696
15110,43.17764312083333,51,0.14662750000000102,56,0.29325500000000204
15111,43.32427062083333,26,0.14662750000000102,51,0.07331374999999696
15112,43.47089812083333,52,0.14662750000000102,52,0.29325499999999494
15113,43.61752562083333,27,0.14662749999999392,52,0.07331375000000406
15114,43.76415312083333,51,0.14662750000000102,58,0.2950319999999991
15115,43.91078062083333,26,0.14662750000000102,52,0.07420224999999903
15116,44.05918512083333,53,0.14840449999999805,53,0.2943545000000043
15117,44.20758962083333,27,0.14840450000000516,53,0.07297499999999957
15118,44.35353962083333,51,0.14594999999999914,58,0.2929729999999964
15119,44.49948962083333,26,0.14594999999999914,52,0.07351150000000217
15120,44.64651262083333,53,0.14702299999999724,52,0.29371641666666903
15121,44.79353562083333,27,0.14702300000000434,52,0.07337966666666773
15122,44.940229037499996,51,0.1466934166666647,57,0.29473899999999986
15123,45.0868565375,26,0.14662750000000102,51,0.07405574999999942
15124,45.234968037499996,52,0.14811149999999884,51,0.29441750000000155
15125,45.383079537499995,27,0.14811149999999884,51,0.0731529999999978
15126,45.5293855375,51,0.1463060000000027,55,0.2942289999999943
15127,45.6762305375,26,0.146844999999999,50,0.0736920000000012
15128,45.82361453749999,53,0.1473839999999953,50,0.29413758333333107
15129,45.970998537499995,26,0.1473840000000024,49,0.0734398333333317
15130,46.11775212083332,54,0.14675358333332866,52,0.2950319999999991
15131,46.264379620833324,19,0.14662750000000102,49,0.07420224999999903
15132,46.41278412083332,55,0.14840449999999805,49,0.2962533333333397
15133,46.56118862083333,24,0.14840450000000516,55,0.07393533333333124
15134,46.70903745416666,48,0.14784883333333454,50,0.295278583333328
15135,46.85686445416666,27,0.1478269999999995,64,0.07376333333333207
15136,47.00431603749999,60,0.14745158333332853,70,0.5857830833333395
15137,47.15169253749999,26,0.14737650000000002,64,0.07353908333333692
15138,47.29869612083333,53,0.14700358333333696,60,0.1469290000000001
15139,47.44562512083333,31,0.1469290000000001,64,0.07223700000000122
15140,47.59009912083333,59,0.14447400000000243,64,0.14447399999999533
15141,47.734573120833325,27,0.14447399999999533,55,0.07393533333333124
15142,47.88242195416666,55,0.14784883333333454,50,0.1478269999999995
15143,48.03024895416666,24,0.1478269999999995,64,0.07376333333333207
15144,48.17770053749999,63,0.14745158333332853,70,0.5857830833333395
15145,48.32507703749999,29,0.14737650000000002,64,0.07353908333333692
15146,48.472080620833324,56,0.14700358333333696,60,0.1469290000000001
15147,48.619009620833324,29,0.1469290000000001,64,0.07223700000000122
15148,48.76348362083333,62,0.14447400000000243,64,0.28894799999999776
15149,48.90795762083332,27,0.14447399999999533,55,0.07223700000000122
15150,49.052431620833325,60,0.14447400000000243,64,0.14447400000000243
15151,49.19690562083333,27,0.14447400000000243,61,0.07328991666666695
15152,49.343437787499994,67,0.1465321666666668,68,0.07324224999999984
15153,49.49565228749999,26,0.15221449999999948,63,0.07471275000000333
15154,49.64301962083333,65,0.14736733333333518,70,0.07287341666666691
15155,49.7889902875,19,0.14597066666667047,66,0.07324224999999984
15156,49.9356970375,67,0.14670674999999989,72,0.07368824999999646
15157,50.08862028749999,24,0.15292324999999352,68,0.07413999999999987
15158,50.23690028749999,63,0.14827999999999975,72,0.07413999999999987
15159,50.38518028749999,26,0.14827999999999975,66,0.07413999999999987
15160,50.53346028749999,59,0.14827999999999975,63,0.07413999999999987
15161,50.68174028749999,27,0.14827999999999975,61,0.07413999999999987
15162,50.83002028749999,60,0.14827999999999975,58,0.07413999999999987
15163,50.97830028749999,24,0.14827999999999975,58,0.07413999999999987
15164,51.12658028749999,63,0.14827999999999975,55,0.07413999999999987
15165,51.27867078749999,19,0.1520904999999999,55,0.07525916666666888
15166,51.42784345416666,62,0.14917266666667217,55,0.07391349999999619
15167,51.57567045416666,24,0.1478269999999995,55,0.07376333333333207
15168,51.72312203749999,60,0.14745158333332853,55,0.07368825000000356
15169,51.87049853749999,26,0.14737650000000002,55,0.07353908333333692
15170,52.01750212083333,55,0.14700358333333696,55,0.07346450000000004
15171,52.16443112083333,24,0.1469290000000001,55,0.07331633333333087
15172,52.31098970416666,60,0.14655858333333072,55,0.07324224999999984
15173,52.45747420416666,19,0.14648449999999968,55,0.07309724999999645
15174,52.60359620416666,62,0.1461219999999983,55,0.07273024999999933
15175,52.74890945416666,24,0.14531325000000095,55,0.07258299999999451
15176,52.894075454166654,60,0.14516599999999613,55,0.07258300000000162
15177,53.039829120833325,26,0.14575366666667122,56,0.07346450000000004
15178,53.186758120833325,55,0.1469290000000001,57,0.07346450000000004
15179,53.333687120833325,24,0.1469290000000001,60,0.07346450000000004
15180,53.480616120833325,60,0.1469290000000001,61,0.07346450000000004
15181,53.63080312083333,22,0.1501870000000025,64,0.07436425000000213
15182,53.779531620833325,62,0.14872849999999715,66,0.07436425000000213
15183,53.92826012083333,24,0.14872850000000426,68,0.07436424999999502
15184,54.076988620833326,63,0.14872849999999715,72,0.07436425000000213
15185,54.22571712083333,26,0.14872850000000426,63,0.07346450000000004
15186,54.37264612083333,58,0.1469290000000001,63,0.07346450000000004
15187,54.51957512083333,26,0.1469290000000001,62,0.07346450000000004
15188,54.66650412083333,57,0.1469290000000001,62,0.07346450000000004
15189,54.81343312083333,31,0.1469290000000001,61,0.07301749999999885
15190,54.95964987083333,55,0.14621675000000067,62,0.07338550000000055
15191,55.10660087083333,30,0.14695100000000139,60,0.07375350000000225
15192,55.254286120833335,57,0.1476852500000021,61,0.07412899999999922
15193,55.40273137083334,29,0.14844525000000175,61,0.07395400000000052
15194,55.551335120833336,58,0.14860374999999948,58,0.07531689999999003
15195,55.70273477083332,19,0.15139964999998057,58,0.07681890000000635
15196,55.85712327083332,59,0.15438850000000315,55,0.07833624999999955
15197,56.01457687083332,24,0.15745359999999664,55,0.0765281666666695
15198,56.16755378749998,60,0.1529769166666668,56,0.07644874999999729
15199,56.320451287499985,27,0.15289750000000168,55,0.07644874999999729
15200,56.47334878749998,60,0.15289749999999458,71,0.6078669999999988
15201,56.62624628749998,26,0.15289750000000168,55,0.07772425000000283
15202,56.78169478749998,53,0.15544849999999855,57,0.07488024999999965
15203,56.93145528749998,31,0.1497604999999993,55,0.07488024999999965
15204,57.08121578749998,59,0.1497604999999993,53,0.2972674999999967
15205,57.23097628749998,27,0.1497604999999993,55,0.07375350000000225
15206,57.378483287499975,60,0.1475069999999974,58,0.2950140000000019
15207,57.52599028749998,24,0.1475070000000045,55,0.07375349999999514
15208,57.67349728749998,63,0.1475069999999974,71,0.5923873333333418
15209,57.82230703749998,29,0.14880975000000518,56,0.07488024999999965
15210,57.97206753749998,56,0.1497604999999993,56,0.07364324999999639
15211,58.11888053749998,29,0.14681300000000164,58,0.07339041666666901
15212,58.26588462083332,62,0.1470040833333357,56,0.2956548333333373
15213,58.413787537499985,27,0.14790291666666633,60,0.0739135000000033
15214,58.561539454166656,60,0.14775191666667098,58,0.2938599999999951
15215,58.70876678749999,27,0.14722733333333338,61,0.0733904166666619
15216,58.85539945416665,67,0.14663266666666175,73,0.29194183333333257
15217,59.00188395416665,26,0.14648449999999968,63,0.07280275000000103
15218,59.147341287499984,65,0.14545733333333288,70,0.29267741666667035
15219,59.293311954166654,19,0.14597066666667047,66,0.07324224999999984
15220,59.440018704166654,67,0.14670674999999989,82,0.29565649999999977
15221,59.587395204166654,24,0.14737650000000002,68,0.07413999999999987
15222,59.735675204166654,63,0.14827999999999975,70,0.14827999999999975
15223,59.883955204166654,26,0.14827999999999975,66,0.07413999999999987
15224,60.03223520416665,62,0.14827999999999975,66,0.2965599999999995
15225,60.18051520416665,27,0.14827999999999975,61,0.07413999999999987
15226,60.32879520416665,60,0.14827999999999975,61,0.4486504999999994
15227,60.47707520416665,24,0.14827999999999975,58,0.07413999999999987
15228,60.62535520416665,55,0.14827999999999975,52,0.1520904999999999
15229,60.77744570416665,19,0.1520904999999999,55,0.07393533333333124
15230,60.92529453749999,62,0.14784883333333454,69,0.295278583333328
15231,61.073121537499986,24,0.1478269999999995,55,0.07376333333333207
15232,61.220573120833315,60,0.14745158333332853,66,0.294380083333337
15233,61.367949620833315,26,0.14737650000000002,55,0.07353908333333692
15234,61.51495320416665,55,0.14700358333333696,64,0.2934875833333308
15235,61.66188220416665,24,0.1469290000000001,55,0.07331633333333087
15236,61.80844078749998,60,0.14655858333333072,60,0.292606499999998
15237,61.95492528749998,19,0.14648449999999968,55,0.07309724999999645
15238,62.10104728749998,62,0.1461219999999983,64,0.2904792499999971
15239,62.24636053749998,24,0.14531325000000095,55,0.07258299999999451
15240,62.39152653749998,60,0.14516599999999613,69,0.29033199999999937
15241,62.53669253749998,26,0.14516600000000324,56,0.07258299999999451
15242,62.68185853749998,55,0.14516599999999613,75,0.29033199999999937
15243,62.82702453749998,28,0.14516600000000324,60,0.07258300000000162
15244,62.972190537499976,58,0.14516599999999613,67,0.1493055000000041
15245,63.12149603749998,29,0.1493055000000041,64,0.6009019999999978
15246,63.27172153749998,57,0.15022549999999768,75,0.15022550000000479
15247,63.42194703749998,32,0.15022550000000479,68,0.07511274999999529
15248,63.57217253749998,56,0.15022549999999768,77,0.15022549999999768
15249,63.72239803749998,17,0.15022549999999768,63,0.07442700000000002
15250,63.87125203749998,53,0.14885400000000004,73,0.14885399999999294
15251,64.02010603749997,19,0.14885399999999294,62,0.07561250000000541
15252,64.17133103749997,50,0.1512249999999966,63,0.1512249999999966
15253,64.32255603749996,24,0.1512249999999966,58,0.07668700000000683
15254,64.47593003749996,48,0.15337399999999946,61,1.079431637500008
15255,64.62710324999996,29,0.15117321249999804,57,0.07561250000000541
15256,64.77841563333331,44,0.15131238333334807,50,0.15186626249999335
15257,64.9302818958333,24,0.15186626249999335,58,0.07612640416667205
15258,65.08266279999998,43,0.1523809041666766,48,0.1527685541666557
15259,65.23543135416664,29,0.1527685541666557,55,0.07731866875001003
15260,65.39179341666664,44,0.1563620625000084,45,0.16356825833332778
15261,65.55536167499997,24,0.16356825833332778,51,0.08377550000000156
15262,65.72291267499998,43,0.16755100000000311,38,0.33055000000000234
15263,65.89046367499998,15,0.16755100000000311,45,0.08149950000000672
15264,66.05346267499998,55,0.16299899999999923,51,0.32424600000000225
15265,66.21646167499998,17,0.16299899999999923,42,0.08062350000000151
15266,66.37770867499998,53,0.16124700000000303,50,0.3278674999999964
15267,66.53895567499998,19,0.16124700000000303,41,0.0833102499999967
15268,66.70557617499998,50,0.1666204999999934,44,0.3170663416666599
15269,66.86967517499998,24,0.16409900000000732,44,0.07624402291665433
15270,67.02264251666664,48,0.1529673416666526,50,1.5710887270833354
15271,67.1775160395833,29,0.15487352291665957,41,0.07776893125000583
15272,67.33325607916663,44,0.1557400395833355,45,0.15659390624998082
15273,67.48984998541661,24,0.15659390624998082,39,0.07862508333333551
15274,67.64730669374995,43,0.15745670833334202,47,0.15837089583332897
15275,67.80567758958328,29,0.15837089583332897,38,0.07950012083334457
15276,67.96493137291662,44,0.15925378333334095,48,0.16014637083334549
15277,68.12507774374997,24,0.16014637083334549,40,0.07851349999999968
15278,68.28210474374997,43,0.15702699999999936,50,0.15702699999999936
15279,68.43913174374997,27,0.15702699999999936,64,0.07729974999999456
15280,68.59373124374997,55,0.15459950000000333,75,0.30414824999999723
15281,68.74833074374997,26,0.15459950000000333,62,0.07498124999999334
15282,68.89787949374997,60,0.1495487499999939,73,0.30413350000000605
15283,69.04701449374997,31,0.14913500000000113,62,0.07749925000000246
15284,69.20201299374997,59,0.15499850000000492,69,0.3053369999999944
15285,69.35701149374997,24,0.1549984999999907,69,0.07516925000000185
15286,69.50734999374997,58,0.1503385000000037,73,0.3053369999999944
15287,69.65768849374996,29,0.1503384999999895,59,0.07749925000000246
15288,69.81268699374996,57,0.15499850000000492,69,0.30452824999998995
15289,69.96768549374995,17,0.1549984999999907,59,0.07516925000000185
15290,70.11721524374995,56,0.14952974999999924,62,0.3043065000000098
15291,70.26593624374996,19,0.14872100000000898,41,0.07779275000000041
15292,70.42152174374996,50,0.15558550000000082,44,0.3023856541666703
15293,70.57710724374996,24,0.15558550000000082,44,0.07328606875000787
15294,70.72390739791663,48,0.14680015416666947,50,0.44631641458332183
15295,70.87173689999996,29,0.1478295020833258,41,0.07424083541665993
15296,71.02046416041664,44,0.1487272604166776,48,0.45222130416665607
15297,71.17022381249996,17,0.14975965208331843,39,0.07523503125000275
15298,71.32094531874996,53,0.15072150625000802,47,0.3044687541666633
15299,71.4726854645833,19,0.15174014583332962,38,0.07621478541666704
15300,71.62541407291663,50,0.15272860833333368,42,0.30461549791667153
15301,71.77923057083329,20,0.15381649791666518,36,0.07539950000000317
15302,71.9300295708333,48,0.15079900000000634,45,0.302874999999986
15303,72.08082857083329,15,0.15079899999999213,55,0.07603799999999694
15304,72.23290457083328,55,0.15207599999999388,60,0.3018365000000074
15305,72.38498057083329,17,0.1520760000000081,55,0.07488025000000675
15306,72.53474107083329,53,0.1497604999999993,58,0.2995209999999986
15307,72.68450157083329,19,0.1497604999999993,55,0.07488025000000675
15308,72.83426207083329,47,0.1497604999999993,55,0.29937017291666734
15309,72.98402257083329,24,0.1497604999999993,41,0.07454246874999626
15310,73.13363224374996,48,0.14960967291666805,47,0.6103068645833218
15311,73.2845238333333,29,0.15089158958333826,39,0.07587056249998625
15312,73.43652079999995,44,0.1519969666666583,45,0.1531619895833245
15313,73.58968278958328,24,0.1531619895833245,38,0.07699606250000102
15314,73.74393910833328,43,0.1542563187500008,46,0.3119984458333249
15315,73.89935155624994,29,0.1554124479166603,36,0.0781555166666692
15316,74.0559375541666,49,0.1565859979166646,42,0.3165212625000038
15317,74.21371399583327,24,0.1577764416666696,39,0.07935032083332771
15318,74.37245881666661,48,0.1587448208333342,42,0.6491754999999984
15319,74.5312478166666,29,0.15878899999999874,36,0.08159725000000151
15320,74.69444231666661,44,0.16319450000000302,40,0.15897400000000061
15321,74.85341631666661,24,0.15897400000000061,35,0.08410899999999799
15322,75.0216343166666,51,0.16821799999999598,41,0.350876999999997
15323,75.1970728166666,24,0.1754384999999985,33,0.1754384999999985
15324,75.3725113166666,49,0.1754384999999985,38,0.1754384999999985
15325,75.5479498166666,24,0.1754384999999985,27,3.885629499999993
15326,75.6247035666666,29,0.07675374999999462,27,1.3284137499999957
15327,75.7014573166666,32,0.07675375000000884,33,3.7321219999999897
15328,75.7782110666666,37,0.07675374999999462,33,1.1749062499999923
15329,75.85496481666661,41,0.07675375000000884,35,3.5786144999999863
15330,75.9317185666666,44,0.07675374999999462,40,3.5018607499999916
15331,76.0084723166666,49,0.07675374999999462,49,1.8266729999999995
15332,77.8351453166666,53,1.8266729999999995,41,0.7357449999999943
15333,78.57089031666659,52,0.7357449999999943,41,0.8626890000000031
15334,79.4335793166666,24,0.8626890000000031,27,1.8727895000000103
15335,79.5182725666666,31,0.08469325000000083,27,1.7880962500000095
15336,79.6029658166666,36,0.08469325000000083,33,1.7034030000000087
15337,79.6876590666666,40,0.08469325000000083,35,1.6187097500000078
15338,79.7723523166666,43,0.08469325000000083,35,1.534016500000007
15339,79.8570455666666,48,0.08469325000000083,41,1.4493232500000062
15340,0.64082,37,0.0,72,0.282992
15341,0.923812,42,0.282992,56,0.266749
15342,1.0559475,42,0.13213550000000007,58,0.05048006249999992
15343,1.190561,42,0.13461349999999994,64,0.04943756250000009
15344,1.3223945,42,0.13183349999999994,65,0.052700624999999945
15345,1.4603852499999999,42,0.13799074999999994,72,0.28315199999999985
15346,1.7435372499999997,44,0.28315199999999985,80,0.2751410000000001
15347,1.9670893124999997,23,0.22355206250000004,37,0.27206731249999994
15348,1.9842856249999996,30,0.017196312499999866,37,0.25487100000000007
15349,2.0014819374999995,32,0.017196312499999866,37,0.2376746875000002
15350,2.01867825,56,0.01719631250000031,68,0.2204783749999999
15351,2.15435725,54,0.1356790000000001,66,0.1356790000000001
15352,2.2391566249999997,25,0.08479937499999979,37,0.3271046250000005
15353,2.2561164999999996,32,0.016959874999999958,37,0.3101447500000005
15354,2.2730763749999996,35,0.016959874999999958,37,0.2772183687500007
15355,2.29003625,56,0.0169598750000004,68,0.27622500000000016
15356,2.42433675,57,0.13430050000000016,65,0.1419245
15357,2.56626125,45,0.1419245,59,0.2664469999999999
15358,2.69809475,45,0.13183349999999994,61,0.050480062500000145
15359,2.83270825,45,0.13461349999999994,67,0.04943756250000009
15360,2.96454175,45,0.13183349999999994,66,0.05335293750000014
15361,3.10374325,45,0.13920149999999998,75,0.27970700000000015
15362,3.38345025,47,0.27970700000000015,82,0.27362300000000017
15363,3.6057689375,27,0.22231868750000006,39,0.27119606250000006
15364,3.622870375,33,0.01710143750000004,39,0.254094625
15365,3.6399718125000002,35,0.01710143750000004,39,0.23699318749999998
15366,3.6570732500000003,59,0.01710143750000004,72,0.21989174999999994
15367,3.79239125,57,0.13531799999999983,70,0.13531800000000027
15368,3.876965,28,0.08457375000000011,39,0.3256457499999996
15369,3.8938797500000004,35,0.0169147500000002,39,0.3087309999999994
15370,3.9107945,38,0.016914749999999756,39,0.29181624999999967
15371,3.9277092500000004,59,0.0169147500000002,72,0.27490149999999947
15372,4.06138125,60,0.1336719999999998,65,0.14122949999999967
15373,4.20261075,48,0.14122949999999967,56,0.2634452499999993
15374,4.3329492499999995,48,0.1303384999999997,60,0.04989581249999997
15375,4.466055999999999,48,0.1331067499999996,64,0.04909874999999975
15376,4.596985999999999,48,0.1309300000000002,69,0.05322168749999978
15377,4.737381249999999,48,0.14039525000000008,79,0.2736229999999997
15378,5.011004249999999,49,0.2736229999999997,63,0.26581600000000005
15379,5.142837749999999,49,0.13183349999999994,66,0.05024343749999982
15380,5.276820249999999,49,0.13398250000000012,67,0.04955081249999971
15381,5.40895575,47,0.1321355000000004,68,0.0533529374999997
15382,5.55123025,49,0.14227450000000008,81,0.27700800000000037
15383,5.82823825,49,0.27700800000000037,63,0.26767750000000046
15384,5.9609872500000005,49,0.13274900000000045,66,0.050598187500000336
15385,6.0959157500000005,49,0.1349285,67,0.05012699999999981
15386,6.22958775,49,0.1336719999999998,67,0.05169093750000009
15387,6.36743025,49,0.13784249999999965,85,0.2790309999999998
15388,6.64646125,49,0.2790309999999998,78,0.2841579999999997
15389,6.9306192499999995,47,0.2841579999999997,78,0.27667600000000014
15390,7.20729525,45,0.27667600000000014,74,0.2807463333333331
15391,7.488041583333333,44,0.2807463333333331,61,0.2727414999999995
15392,7.624734583333333,40,0.13669300000000018,59,0.13604849999999935
15393,7.760783083333332,52,0.13604849999999935,78,0.2702272500000005
15394,7.896186833333332,45,0.13540375000000004,73,0.13482350000000043
15395,8.031010333333333,57,0.13482350000000043,82,0.2678674166666646
15396,8.165256999999999,49,0.13424666666666596,71,0.13362074999999862
15397,8.298877749999997,61,0.13362074999999862,76,0.2661622500000007
15398,8.431984499999997,52,0.1331067499999996,69,0.1330555000000011
15399,8.565039999999998,64,0.1330555000000011,78,0.26922700000000077
15400,8.699653499999998,57,0.13461350000000039,73,0.13461350000000039
15401,8.834266999999999,69,0.13461350000000039,82,0.27767500000000034
15402,8.973104499999998,61,0.13883749999999928,75,0.13883750000000106
15403,9.111941999999999,73,0.13883750000000106,82,0.27767500000000034
15404,9.389617,71,0.27767500000000034,76,0.27306199999999947
15405,9.662678999999999,64,0.27306199999999947,73,0.28299200000000013
15406,9.945670999999999,64,0.28299200000000013,75,0.5560390000000002
15407,10.222679,69,0.27700800000000037,68,0.2790309999999998
15408,10.50171,52,0.2790309999999998,56,0.2817559999999997
15409,10.783465999999999,52,0.2817559999999997,56,0.5601859999999999
15410,11.063265,57,0.2797990000000006,56,0.2803869999999993
15411,11.343651999999999,52,0.2803869999999993,55,0.2880179999999992
15412,11.631669999999998,52,0.2880179999999992,55,0.578183000000001
15413,11.916583999999999,57,0.28491400000000056,56,0.29326900000000045
15414,12.209852999999999,52,0.29326900000000045,52,0.28454900000000016
15415,12.494402,52,0.28454900000000016,56,0.8687670000000001
15416,13.363169,49,0.8687670000000001,53,3.401565999999999
15417,14.231936,35,0.8687670000000001,43,0.2767269999999993
15418,14.508662999999999,33,0.2767269999999993,37,0.28339300000000023
15419,14.792055999999999,30,0.28339300000000023,37,0.28339300000000023
15420,15.075448999999999,33,0.28339300000000023,43,0.2767269999999993
15421,15.352175999999998,32,0.2767269999999993,37,0.2841579999999997
15422,15.636333999999998,28,0.2841579999999997,37,0.2841579999999997
15423,15.920491999999998,30,0.2841579999999997,43,0.27745700000000006
15424,16.197948999999998,28,0.27745700000000006,37,0.28339300000000023
15425,16.481341999999998,25,0.28339300000000023,37,0.28339300000000023
15426,16.764734999999998,26,0.28339300000000023,39,0.28339300000000023
15427,17.048128,25,0.28339300000000023,35,0.28339300000000023
15428,17.331521,21,0.28339300000000023,35,0.28339300000000023
15429,17.614914,42,0.28339300000000023,63,0.2658357500000008
15430,17.746447,42,0.131533000000001,66,0.050480062500000145
15431,17.88074975,42,0.1343027499999998,67,0.049780874999999725
15432,18.01349875,42,0.13274900000000045,68,0.05322168749999889
15433,18.152478666666667,42,0.13897991666666698,80,0.2790050000000015
15434,18.43148366666667,44,0.2790050000000015,90,0.2751410000000014
15435,18.70662466666667,56,0.2751410000000014,76,0.2713579999999993
15436,18.84230366666667,54,0.13567899999999966,74,0.13567899999999966
15437,18.97798266666667,56,0.13567899999999966,76,0.27555849999999893
15438,19.111965166666668,57,0.13398249999999834,72,0.1415760000000006
15439,19.25354116666667,45,0.1415760000000006,63,0.26551549999999935
15440,19.38507416666667,45,0.131533000000001,66,0.05024343750000071
15441,19.519056666666668,45,0.13398249999999834,67,0.049664437499998826
15442,19.651495166666667,45,0.13243849999999924,66,0.05348474999999908
15443,19.792475,45,0.14097983333333275,79,0.2782289999999996
15444,20.070704,47,0.2782289999999996,87,0.2736230000000006
15445,20.344327,59,0.2736230000000006,76,0.27063599999999965
15446,20.479645,57,0.1353180000000016,74,0.13531799999999805
15447,20.614963,59,0.13531799999999805,76,0.27352550000000164
15448,20.748635,60,0.13367200000000068,71,0.13985350000000096
15449,20.8884885,48,0.13985350000000096,56,0.2623845833333327
15450,21.018533,48,0.13004450000000034,60,0.049550812500001484
15451,21.150873083333334,48,0.13234008333333236,64,0.048987562499998916
15452,21.281506583333332,48,0.1306334999999983,68,0.05169093749999831
15453,21.419349083333334,48,0.13784250000000142,80,0.2736230000000006
15454,21.692972083333334,50,0.2736230000000006,64,0.2661873333333311
15455,21.824805583333333,50,0.13183349999999905,67,0.050480062500000145
15456,21.959159416666665,50,0.13435383333333206,71,0.049780874999999725
15457,22.091908416666666,48,0.13274900000000045,72,0.050910770833333174
15458,22.229177,50,0.13726858333333425,81,0.2736230000000006
15459,22.5028,51,0.2736230000000006,66,0.2658334999999994
15460,22.634333,51,0.131533000000001,69,0.05036268750000161
15461,22.7686335,51,0.13430049999999838,74,0.049780874999999725
15462,22.9013825,51,0.13274900000000045,76,0.05036268750000161
15463,23.035683,51,0.13430049999999838,86,0.28645099999999957
15464,23.322134,55,0.28645099999999957,81,0.28415800000000146
15465,23.606292,53,0.28415800000000146,81,0.27667599999999837
15466,23.882967999999998,41,0.27667599999999837,85,0.28138600000000125
15467,24.164354,28,0.28138600000000125,61,0.2727077499999986
15468,24.301066749999997,40,0.13671274999999738,59,0.1359950000000012
15469,24.437061749999998,52,0.1359950000000012,78,0.27027999999999963
15470,24.572465499999996,45,0.13540374999999827,75,0.13487625000000136
15471,24.707341749999998,57,0.13487625000000136,82,0.26817908333333307
15472,24.84169358333333,48,0.13435183333333356,75,0.1338272499999995
15473,24.97552083333333,60,0.1338272499999995,76,0.26672599999999846
15474,25.10888383333333,52,0.13336299999999923,71,0.13336299999999923
15475,25.24224683333333,64,0.13336299999999923,78,0.2713579999999993
15476,25.37792583333333,57,0.13567899999999966,75,0.13567899999999966
15477,25.51360483333333,69,0.13567899999999966,82,0.27767499999999856
15478,25.65244233333333,60,0.13883750000000106,75,0.1388374999999975
15479,25.791279833333327,72,0.1388374999999975,82,0.2776750000000021
15480,26.06895483333333,71,0.2776750000000021,78,0.27436099999999897
15481,26.343315833333328,64,0.27436099999999897,73,0.28299200000000013
15482,26.62630783333333,64,0.28299200000000013,75,0.556714999999997
15483,26.903315833333327,69,0.2770079999999986,68,0.2797069999999984
15484,27.183022833333325,52,0.2797069999999984,58,0.28175600000000145
15485,27.464778833333327,52,0.28175600000000145,58,0.5601860000000016
15486,27.744577833333327,57,0.2797990000000006,56,0.28038700000000105
15487,28.02496483333333,52,0.28038700000000105,56,0.288018000000001
15488,28.31298283333333,52,0.288018000000001,56,0.5680660000000017
15489,28.59789683333333,57,0.28491400000000056,55,0.2831520000000012
15490,28.88104883333333,52,0.2831520000000012,81,0.5621399999999994
15491,29.44318883333333,53,0.5621399999999994,75,0.13685500000000062
15492,29.58004383333333,52,0.13685500000000062,71,0.13685500000000062
15493,29.71689883333333,47,0.13685500000000062,73,0.1391725000000008
15494,29.856071333333333,48,0.1391725000000008,65,0.1391725000000008
15495,29.995243833333333,45,0.1391725000000008,70,0.8536469999999987
15496,30.848890833333332,53,0.8536469999999987,84,0.2843273333333336
15497,31.133218166666666,41,0.2843273333333336,48,0.14019349999999875
15498,31.273411666666664,41,0.14019349999999875,49,0.1398274999999991
15499,31.413239166666663,40,0.1398274999999991,50,0.13945700000000016
15500,31.552696166666664,41,0.13945700000000016,51,0.13909500000000108
15501,31.691791166666665,42,0.13909500000000108,52,0.13872849999999914
15502,31.830519666666664,38,0.13872849999999914,53,0.13836350000000053
15503,31.968883166666664,44,0.13836350000000053,54,0.13800700000000177
15504,32.106890166666666,45,0.13800700000000177,55,0.1376459999999966
15505,32.24453616666666,41,0.1376459999999966,57,0.1372870000000006
15506,32.38182316666666,47,0.1372870000000006,59,0.13693649999999735
15507,32.51875966666666,48,0.13693649999999735,59,0.13658099999999962
15508,32.65534066666666,44,0.13658099999999962,60,0.13658099999999962
15509,32.79192166666666,50,0.13658099999999962,64,0.13658099999999962
15510,32.92850266666666,51,0.13658099999999962,65,0.13658099999999962
15511,33.06508366666666,47,0.13658099999999962,66,0.13658099999999962
15512,33.20166466666666,53,0.13658099999999962,67,0.13658099999999962
15513,33.33824566666666,53,0.13658099999999962,68,0.27316199999999924
15514,33.61140766666666,54,0.27316199999999924,73,0.27627350000000206
15515,33.88768116666666,54,0.27627350000000206,80,0.14245700000000028
15516,34.17259516666666,66,0.28491400000000056,91,0.28491400000000056
15517,34.45750916666666,42,0.28491400000000056,48,0.13982750000000266
15518,34.59733666666666,42,0.13982750000000266,49,0.13951874999999347
15519,34.73685541666666,36,0.13951874999999347,50,0.13921566666667218
15520,34.87607108333333,42,0.13921566666667218,51,0.1388506666666629
15521,35.01492174999999,43,0.1388506666666629,52,0.13854599999999806
15522,35.15346774999999,39,0.13854599999999806,53,0.13824466666666524
15523,35.291712416666655,45,0.13824466666666524,54,0.1378866666666667
15524,35.42959908333332,46,0.1378866666666667,55,0.13758616666666512
15525,35.56718524999999,42,0.13758616666666512,57,0.1372870000000006
15526,35.70447224999999,48,0.1372870000000006,59,0.13693649999999735
15527,35.841408749999985,49,0.13693649999999735,59,0.13658099999999962
15528,35.977989749999985,45,0.13658099999999962,60,0.13658099999999962
15529,36.114570749999984,51,0.13658099999999962,64,0.13658099999999962
15530,36.251151749999984,52,0.13658099999999962,65,0.13658099999999962
15531,36.387732749999984,53,0.13658099999999962,66,0.13658099999999962
15532,36.52431374999998,54,0.13658099999999962,67,0.13658099999999962
15533,36.66089474999998,54,0.13658099999999962,68,0.27316199999999924
15534,36.93405674999998,55,0.27316199999999924,73,0.2732340000000022
15535,37.207290749999984,62,0.2732340000000022,80,0.14245700000000028
15536,37.492204749999985,67,0.28491400000000056,91,0.28491400000000056
15537,37.777118749999985,55,0.28491400000000056,70,0.1376459999999966
15538,37.91476474999998,55,0.1376459999999966,70,0.1376460000000037
15539,38.052410749999986,54,0.1376460000000037,64,0.13982750000000266
15540,38.19223824999999,55,0.13982750000000266,64,0.13909549999999626
15541,38.331333749999985,56,0.13909549999999626,70,0.13806641666666764
15542,38.46940016666665,57,0.13806641666666764,64,0.13800700000000177
15543,38.607407166666654,58,0.13800700000000177,70,0.06842749999999853
15544,38.74426216666665,58,0.13685499999999706,65,0.06842750000000564
15545,38.881117166666655,58,0.13685500000000417,65,0.0702840000000009
15546,39.02168516666666,58,0.1405680000000018,65,0.0702840000000009
15547,39.16225316666665,58,0.1405679999999947,70,0.1376459999999966
15548,39.29989916666665,57,0.1376459999999966,65,0.1376460000000037
15549,39.43754516666665,57,0.1376460000000037,70,0.06826550000000253
15550,39.57407616666665,57,0.13653099999999796,65,0.06826550000000253
15551,39.710607166666655,56,0.13653100000000506,65,0.0702840000000009
15552,39.85117516666666,57,0.1405680000000018,65,0.0702840000000009
15553,39.99174316666665,58,0.1405679999999947,70,0.1376459999999966
15554,40.12938916666665,59,0.1376459999999966,63,0.1376460000000037
15555,40.26703516666665,60,0.1376460000000037,65,0.0681044999999969
15556,40.40324416666665,60,0.1362090000000009,67,0.0681044999999969
15557,40.539453166666654,60,0.1362090000000009,70,0.06991374999999778
15558,40.679280666666656,60,0.13982750000000266,72,0.06991374999999778
15559,40.81910816666665,60,0.13982749999999555,78,0.1376459999999966
15560,40.95675416666665,59,0.1376459999999966,72,0.1376460000000037
15561,41.09440016666665,59,0.1376460000000037,74,0.0681044999999969
15562,41.23060916666665,59,0.1362090000000009,76,0.0681044999999969
15563,41.366818166666654,58,0.1362090000000009,77,0.06991374999999778
15564,41.50664566666666,59,0.13982750000000266,80,0.06991374999999778
15565,41.64647316666665,59,0.13982749999999555,91,0.2859662500000013
15566,41.89511479166665,61,0.24864162499999765,63,0.037324625000003664
15567,41.932439416666654,59,0.037324625000003664,86,0.2770149999999987
15568,42.07028191666665,58,0.13784249999999787,79,0.1391725000000008
15569,42.20945441666665,59,0.1391725000000008,88,0.28874449999999996
15570,42.35244091666665,61,0.14298649999999924,82,0.14575800000000072
15571,42.49819891666665,59,0.14575800000000072,90,0.28668400000000105
15572,42.78488291666665,71,0.28668400000000105,95,0.13850399999999752
15573,43.061890916666655,57,0.27700800000000214,88,0.28175600000000145
15574,43.34364691666666,57,0.28175600000000145,77,0.2887817500000054
15575,43.59500729166666,59,0.2513603750000044,61,0.03742137500000098
15576,43.63242866666666,57,0.03742137500000098,82,0.277236666666667
15577,43.77049283333333,56,0.1380641666666662,79,0.1391725000000008
15578,43.90966533333333,57,0.1391725000000008,84,0.28957499999999925
15579,44.05445283333333,59,0.14478749999999962,79,0.14478749999999962
15580,44.19924033333333,57,0.14478749999999962,90,0.28525199999999984
15581,44.48449233333333,69,0.28525199999999984,92,0.13951550000000168
15582,44.76352333333333,55,0.27903100000000336,88,0.2815289166666659
15583,45.04505225,55,0.2815289166666659,91,0.28897650000000397
15584,45.29651,57,0.25145775000000015,63,0.03751875000000382
15585,45.33402875,55,0.03751875000000382,91,0.2774569999999983
15586,45.47275725,54,0.13872849999999914,82,0.13872849999999914
15587,45.61148575,55,0.13872849999999914,88,0.28645099999999957
15588,45.75471125,57,0.14322549999999978,82,0.14322549999999978
15589,45.89793675,54,0.14322549999999978,90,0.2818889999999996
15590,46.03888125,42,0.14094450000000336,74,0.14094449999999625
15591,46.17982575,54,0.14094449999999625,84,0.28245341666666945
15592,46.320582,54,0.14075625000000258,81,0.14169716666666687
15593,46.46227916666667,66,0.14169716666666687,89,0.2865239166666598
15594,46.60499308333333,66,0.1427139166666649,88,0.1438099999999949
15595,46.74880308333333,78,0.1438099999999949,93,0.28879500000000036
15596,47.03759808333333,48,0.28879500000000036,82,0.1444180000000017
15597,47.32643408333333,57,0.2888360000000034,79,0.14262599999999992
15598,47.61168608333333,56,0.28525199999999984,82,0.1440575000000024
15599,47.89980108333333,49,0.2881149999999977,61,0.14334199999999697
15600,48.18648508333333,54,0.28668400000000105,66,0.14478749999999962
15601,48.47606008333333,49,0.28957499999999925,68,0.1440575000000024
15602,48.76417508333333,44,0.2881149999999977,60,0.1440575000000024
15603,49.05229008333333,51,0.2881150000000048,58,0.1440574999999953
15604,49.34040508333333,49,0.2881149999999977,55,0.1440575000000024
15605,49.62852008333333,37,0.2881149999999977,48,0.14515200000000306
15606,49.91882408333333,42,0.290303999999999,50,0.14298649999999924
15607,50.204797083333325,40,0.2859729999999985,51,0.1440575000000024
15608,50.49291208333332,32,0.2881149999999977,45,0.1440575000000024
15609,50.78102708333333,39,0.2881150000000048,45,0.1440574999999953
15610,51.069142083333325,49,0.2881149999999977,46,1.1241862958333328
15611,51.34748708333333,35,0.2783450000000016,31,0.2845489999999984
15612,51.632036083333325,32,0.2845489999999984,31,0.2845489999999984
15613,51.916585083333324,33,0.2845489999999984,36,0.27674329583333446
15614,52.19332837916666,61,0.27674329583333446,46,0.2841425187500022
15615,52.47747089791666,73,0.2841425187500022,46,0.2841579999999979
15616,52.76162889791666,37,0.2841579999999979,46,1.127637593750002
15617,53.03909985833333,28,0.27747096041667163,31,0.28338063333332997
15618,53.32248049166666,25,0.28338063333332997,31,0.2833930000000038
15619,53.605873491666664,14,0.2833930000000038,38,0.2833929999999967
15620,53.88926649166666,61,0.2833929999999967,53,0.2833930000000038
15621,54.172659491666664,61,0.2833930000000038,59,0.2833929999999967
15622,54.45605249166666,42,0.2833929999999967,63,0.26706399999999775
15623,54.58818799166666,42,0.13213549999999685,66,0.050598187500000336
15624,54.72311649166666,42,0.1349285000000009,67,0.05012700000000336
15625,54.85663465833333,42,0.1335181666666685,68,0.05181468749999851
15626,54.99480715833333,42,0.13817250000000314,79,0.2819494999999961
15627,55.276756658333326,44,0.2819494999999961,88,0.27515624583333675
15628,55.55191290416666,56,0.27515624583333675,76,0.2713658812499915
15629,55.68759978541666,54,0.1356868812499954,74,0.1356789999999961
15630,55.823278785416655,56,0.1356789999999961,76,0.27516556875000475
15631,55.95895778541666,57,0.1356790000000032,72,0.13948656875000154
15632,56.09844435416666,45,0.13948656875000154,63,0.26644699999999943
15633,56.23027785416666,45,0.13183349999999905,66,0.050480062500000145
15634,56.36489135416666,45,0.13461350000000039,67,0.049664437499998826
15635,56.49732985416666,45,0.13243849999999924,66,0.052318312499998854
15636,56.63684535416666,45,0.13951550000000168,79,0.2831520000000012
15637,56.91999735416666,47,0.2831520000000012,87,0.2736428520833343
15638,57.193640206249995,59,0.2736428520833343,76,0.2706422229166705
15639,57.32896442916666,57,0.13532422291666535,74,0.13531800000000516
15640,57.464282429166666,59,0.13531800000000516,76,0.2740258166666649
15641,57.599600429166664,60,0.13531799999999805,72,0.13870781666666687
15642,57.73830824583333,48,0.13870781666666687,56,0.2636789999999962
15643,57.86923824583333,48,0.13092999999999932,60,0.04978087500000328
15644,58.00198724583333,48,0.1327489999999969,64,0.04909874999999886
15645,58.132917245833326,48,0.13092999999999932,68,0.05282925000000205
15646,58.27265335833332,48,0.13973611249999607,82,0.2783450000000016
15647,58.550998358333324,49,0.2783450000000016,63,0.26738049999999447
15648,58.68313385833332,49,0.13213549999999685,66,0.050716874999999106
15649,58.81837885833332,49,0.13524499999999762,71,0.05036268749999806
15650,58.95267935833332,49,0.13430050000000193,73,0.05257256250000353
15651,59.09287285833332,49,0.1401935000000023,81,0.2803869999999975
15652,59.37325985833332,49,0.2803869999999975,64,0.26891699999999474
15653,59.50693185833332,49,0.13367199999999713,68,0.050716874999999106
15654,59.642176858333315,49,0.13524499999999762,73,0.05036268749999806
15655,59.77647735833332,49,0.13430050000000193,75,0.052064062500001285
15656,59.91531485833332,49,0.13883750000000106,84,0.2864327166666669
15657,60.201747574999985,47,0.2864327166666669,90,0.2841579999999979
15658,60.48590557499998,54,0.2841579999999979,90,0.2766760000000019
15659,60.762581574999984,56,0.2766760000000019,85,0.2813859999999977
15660,61.04396757499998,57,0.2813859999999977,85,0.2813860000000048
15661,61.32535357499999,78,0.2813860000000048,101,0.14069299999999885
15662,61.606739574999985,62,0.2813859999999977,86,0.28384899999999647
15663,61.89058857499998,74,0.28384899999999647,99,0.14053499999999985
15664,62.17165857499998,59,0.2810699999999997,85,0.2845489999999984
15665,62.45620757499998,71,0.2845489999999984,99,0.14053499999999985
15666,62.73727757499998,57,0.2810699999999997,89,0.28957125208333423
15667,63.02684882708331,69,0.28957125208333423,99,0.1422744999999992
15668,63.31139782708331,56,0.2845489999999984,86,0.290303999999999
15669,63.60170182708331,68,0.290303999999999,99,0.14334199999999697
15670,63.88838582708331,56,0.28668400000000105,89,0.2917719999999946
15671,64.1801578270833,66,0.2917719999999946,102,0.2714765624999984
15672,64.4697328270833,54,0.28957499999999925,94,0.8604145125000002
15673,65.3301473395833,49,0.8604145125000002,81,0.2845489999999984
15674,65.6146963395833,50,0.2845489999999984,75,0.13883749999999395
15675,65.7535338395833,49,0.13883749999999395,71,0.13883750000000816
15676,65.8923713395833,44,0.13883750000000816,73,0.14262600000000702
15677,66.03499733958331,45,0.14262600000000702,65,0.14262599999999281
15678,66.1776233395833,42,0.14262599999999281,70,1.1410079999999994
15679,67.8891353395833,9,1.711511999999999,27,0.5288670000000053
15680,68.41800233958331,37,0.5288670000000053,30,0.5049786666666591
15681,68.92298100624997,37,0.5049786666666591,32,1.0213640000000055
15682,69.43366300624997,21,0.5106820000000027,25,0.5106820000000027
15683,69.94434500624997,37,0.5106820000000027,28,0.504413999999997
15684,70.44875900624997,37,0.504413999999997,32,1.0213640000000055
15685,70.95944100624997,21,0.5106820000000027,27,0.5106820000000027
15686,71.47012300624998,37,0.5106820000000027,27,0.5028070000000042
15687,71.97293000624998,37,0.5028070000000042,32,1.0213640000000055
15688,72.48361200624998,21,0.5106820000000027,27,0.5106820000000027
15689,72.99429400624999,37,0.5106820000000027,27,0.5028070000000042
15690,73.49710100624999,37,0.5028070000000042,33,0.520426999999998
15691,74.01752800624999,49,0.520426999999998,57,0.5217849999999942
15692,74.53931300624998,44,0.5217849999999942,49,0.504413999999997
15693,75.04372700624998,45,0.504413999999997,52,0.5171519999999958
15694,75.56087900624998,54,0.5171519999999958,57,1.0112629999999996
15695,76.06465700624997,45,0.503777999999997,24,0.5074850000000026
15696,76.57214200624998,52,0.5074850000000026,52,0.5122949999999946
15697,77.08443700624997,52,0.5122949999999946,52,0.509122000000005
15698,77.59355900624998,45,0.509122000000005,44,0.5148889999999966
15699,78.10844800624997,47,0.5148889999999966,45,0.5241089999999957
15700,78.63255700624997,49,0.5241089999999957,52,3.5932260000000156
15701,79.15666600624998,45,0.5241090000000099,26,0.509122000000005
15702,79.66578800624998,45,0.509122000000005,26,0.515552999999997
15703,80.18134100624998,45,0.515552999999997,25,0.515552999999997
15704,80.69689400624998,45,0.515552999999997,24,0.5074850000000026
15705,81.20437900624998,45,0.5074850000000026,24,0.5139190000000013
15706,81.71829800624998,45,0.5139190000000013,25,0.5074850000000026
15707,82.22578300624998,40,0.5074850000000026,24,0.5074850000000026
15708,82.73326800624999,40,0.5074850000000026,24,0.5139190000000013
15709,83.24718700624999,40,0.5139190000000013,25,0.5187619999999953
15710,83.76594900624998,40,0.5187619999999953,24,0.5122949999999946
15711,84.27824400624998,40,0.5122949999999946,24,0.5122950000000088
15712,84.79053900624999,40,0.5122950000000088,25,0.5122949999999946
15713,85.30283400624998,40,0.5122949999999946,24,0.5187619999999953
15714,85.82159600624998,40,0.5187619999999953,25,0.5287739999999985
15715,86.35037000624997,52,0.5287739999999985,53,0.515552999999997
15716,86.86592300624997,48,0.515552999999997,49,0.504413999999997
15717,87.37033700624997,49,0.504413999999997,54,0.5171519999999958
15718,87.88748900624996,57,0.5171519999999958,58,1.0164062500000028
15719,88.39641025624996,49,0.5089212500000002,26,0.5074850000000026
15720,88.90389525624997,56,0.5074850000000026,52,0.5122949999999946
15721,89.41619025624996,56,0.5122949999999946,52,0.509122000000005
15722,89.92531225624997,49,0.509122000000005,52,0.5091219999999907
15723,90.43443425624996,51,0.5091219999999907,53,0.515552999999997
15724,90.94998725624995,54,0.515552999999997,57,0.515552999999997
15725,91.46554025624995,52,0.515552999999997,57,3.063321000000002
15726,91.97466225624996,49,0.509122000000005,25,0.5104209999999938
15727,92.48508325624995,49,0.5104209999999938,27,0.5148889999999966
15728,92.99997225624995,49,0.5148889999999966,28,0.5074850000000026
15729,93.50745725624995,49,0.5074850000000026,27,0.5139190000000013
15730,94.02137625624995,49,0.5139190000000013,27,0.5074850000000026
15731,94.52886125624995,44,0.5074850000000026,26,0.5074850000000026
15732,95.03634625624996,44,0.5074850000000026,26,0.5139190000000013
15733,95.55026525624996,44,0.5139190000000013,26,0.5187619999999953
15734,96.06902725624995,44,0.5187619999999953,26,0.5122949999999946
15735,96.58132225624995,44,0.5122949999999946,26,0.5122950000000088
15736,97.09361725624996,44,0.5122950000000088,26,0.5122949999999946
15737,97.60591225624995,44,0.5122949999999946,26,0.5122949999999946
15738,98.11820725624995,44,0.5122949999999946,26,0.5122950000000088
15739,98.63050225624995,49,0.5122950000000088,60,0.515552999999997
15740,99.14605525624995,44,0.515552999999997,53,0.504413999999997
15741,99.65046925624995,45,0.504413999999997,57,0.5171519999999958
15742,100.16762125624994,54,0.5171519999999958,59,1.015658000000002
15743,100.67579425624994,45,0.5081729999999993,27,0.5074850000000026
15744,101.18327925624995,52,0.5074850000000026,57,0.5122949999999946
15745,101.69557425624994,52,0.5122949999999946,57,0.509122000000005
15746,102.20469625624995,45,0.509122000000005,53,0.5148889999999966
15747,102.71958525624994,47,0.5148889999999966,52,0.5217849999999942
15748,103.24137025624994,49,0.5217849999999942,57,3.590902000000014
15749,103.76315525624995,45,0.5217850000000084,28,0.509122000000005
15750,104.27227725624995,45,0.509122000000005,27,0.515552999999997
15751,104.78783025624995,45,0.515552999999997,27,0.515552999999997
15752,105.30338325624994,45,0.515552999999997,27,0.5074850000000026
15753,105.81086825624995,45,0.5074850000000026,27,0.5139190000000013
15754,106.32478725624995,45,0.5139190000000013,26,0.5074850000000026
15755,106.83227225624995,40,0.5074850000000026,26,0.5074850000000026
15756,107.33975725624995,28,0.5074850000000026,25,0.5139190000000013
15757,107.85367625624995,40,0.5139190000000013,27,0.5187619999999953
15758,108.37243825624995,40,0.5187619999999953,26,0.5122949999999946
15759,108.88473325624994,40,0.5122949999999946,26,0.5122950000000088
15760,109.39702825624995,40,0.5122950000000088,27,0.5122949999999946
15761,109.90932325624995,40,0.5122949999999946,26,0.5187619999999953
15762,110.42808525624994,40,0.5187619999999953,26,0.5287739999999985
15763,110.95685925624994,49,0.5287739999999985,62,0.515552999999997
15764,111.47241225624994,48,0.515552999999997,54,0.504413999999997
15765,111.97682625624994,49,0.504413999999997,59,0.5171519999999958
15766,112.49397825624993,50,0.5171519999999958,62,1.0179059999999964
15767,113.00439925624993,44,0.5104209999999938,28,0.5074850000000026
15768,113.51188425624993,51,0.5074850000000026,60,0.5122949999999946
15769,114.02417925624992,53,0.5122949999999946,63,0.5016300000000058
15770,114.52580925624993,49,0.5016300000000058,60,0.5081729999999993
15771,115.03398225624993,58,0.5081729999999993,60,0.515552999999997
15772,115.54953525624992,56,0.515552999999997,61,1.4163082500000144
15773,116.06508825624992,48,0.515552999999997,32,0.509122000000005
15774,116.57421025624993,48,0.509122000000005,31,0.5254900000000049
15775,116.96584350624994,49,0.39163325000001237,52,0.06692837499998916
15776,117.03277188124993,51,0.06692837499998916,46,0.06692837500000337
15777,117.09970025624993,49,0.06692837500000337,63,0.5081729999999993
15778,117.60787325624993,48,0.5081729999999993,57,0.504413999999997
15779,118.11228725624993,49,0.504413999999997,61,0.5171519999999958
15780,118.62943925624992,50,0.5171519999999958,62,1.0246370000000127
15781,119.14659125624993,44,0.51715200000001,28,0.5074850000000026
15782,119.65407625624994,51,0.5074850000000026,63,0.5122949999999946
15783,120.16637125624993,52,0.5122949999999946,66,0.509122000000005
15784,120.67549325624994,49,0.509122000000005,63,0.5149100000000004
15785,121.19040325624994,57,0.5149100000000004,63,0.5248430000000042
15786,121.71524625624994,56,0.5248430000000042,65,0.52484299999999
15787,122.24008925624993,54,0.52484299999999,63,0.5206979999999959
15788,122.76078725624993,52,0.5206979999999959,63,0.515552999999997
15789,123.27634025624992,50,0.515552999999997,62,6.227598833333346
15790,123.79189325624992,44,0.515552999999997,39,0.5155530000000113
15791,124.30744625624993,44,0.5155530000000113,39,0.515552999999997
15792,124.82299925624993,44,0.515552999999997,37,0.515552999999997
15793,125.33855225624993,42,0.515552999999997,36,0.515552999999997
15794,125.85410525624992,44,0.515552999999997,36,0.515552999999997
15795,126.36965825624992,44,0.515552999999997,35,0.5130270000000081
15796,126.88268525624993,42,0.5130270000000081,35,0.5163621666666671
15797,127.3990474229166,44,0.5163621666666671,32,0.5199513333333243
15798,127.91899875624992,44,0.5199513333333243,32,0.5235636666666608
15799,128.44256242291658,42,0.5235636666666608,31,0.5272366666666812
15800,128.96979908958326,44,0.5272366666666812,31,0.5341400000000078
15801,129.50393908958327,49,0.5341400000000078,54,0.5313030000000083
15802,130.03524208958328,44,0.5313030000000083,49,0.504413999999997
15803,130.53965608958327,45,0.504413999999997,52,0.51715200000001
15804,131.05680808958328,54,0.51715200000001,57,1.0179060000000106
15805,131.5672290895833,45,0.510421000000008,25,0.5074850000000026
15806,132.0747140895833,52,0.5074850000000026,52,0.5122949999999946
15807,132.5870090895833,52,0.5122949999999946,52,0.5091219999999907
15808,133.09613108958328,45,0.5091219999999907,45,0.5126009999999894
15809,133.60873208958327,47,0.5126009999999894,46,0.5288669999999911
15810,134.13759908958326,49,0.5288669999999911,52,3.5979839999999967
15811,134.66646608958328,45,0.5288670000000195,28,0.5091219999999907
15812,135.17558808958327,45,0.5091219999999907,27,0.5155530000000113
15813,135.69114108958328,45,0.5155530000000113,28,0.5155529999999828
15814,136.20669408958327,45,0.5155529999999828,24,0.5074850000000026
15815,136.71417908958327,45,0.5074850000000026,24,0.5139189999999871
15816,137.22809808958326,45,0.5139189999999871,24,0.5074850000000026
15817,137.73558308958326,40,0.5074850000000026,24,0.5074850000000026
15818,138.24306808958326,28,0.5074850000000026,24,0.5139189999999871
15819,138.75698708958325,40,0.5139189999999871,24,0.5187620000000095
15820,139.27574908958326,28,0.5187620000000095,23,0.5122949999999946
15821,139.78804408958325,28,0.5122949999999946,23,0.5122949999999946
15822,140.30033908958325,28,0.5122949999999946,23,0.512295000000023
15823,140.81263408958327,28,0.512295000000023,22,0.5187620000000095
15824,141.33139608958328,28,0.5187620000000095,22,0.5287739999999985
15825,141.86017008958328,50,0.5287739999999985,53,0.5155530000000113
15826,142.3757230895833,46,0.5155530000000113,49,0.504413999999997
15827,142.8801370895833,47,0.504413999999997,54,0.5165908124999987
15828,143.39672790208328,55,0.5165908124999987,58,1.015658000000002
15829,143.90490090208328,47,0.5081729999999993,27,0.5074850000000026
15830,144.4123859020833,54,0.5074850000000026,54,0.5122949999999946
15831,144.92468090208328,54,0.5122949999999946,54,0.5091219999999907
15832,145.43380290208327,47,0.5091219999999907,49,0.5091220000000192
15833,145.9429249020833,49,0.5091220000000192,51,0.5155530000000113
15834,146.4584779020833,52,0.5155530000000113,53,0.5155529999999828
15835,146.97403090208329,50,0.5155529999999828,51,3.0691169999999772
15836,147.48315290208328,47,0.5091219999999907,26,0.5155530000000113
15837,147.9987059020833,47,0.5155530000000113,28,0.5155529999999828
15838,148.51425890208327,47,0.5155529999999828,29,0.5074850000000026
15839,149.02174390208327,47,0.5074850000000026,27,0.5139189999999871
15840,149.53566290208326,47,0.5139189999999871,27,0.5074850000000026
15841,150.04314790208326,42,0.5074850000000026,26,0.5074850000000026
15842,150.55063290208327,42,0.5074850000000026,25,0.5139189999999871
15843,151.06455190208325,42,0.5139189999999871,25,0.5187620000000095
15844,151.58331390208326,42,0.5187620000000095,24,0.5122949999999946
15845,152.09560890208326,42,0.5122949999999946,24,0.5122949999999946
15846,152.60790390208325,42,0.5122949999999946,24,0.512295000000023
15847,153.12019890208327,42,0.512295000000023,23,0.5122949999999946
15848,153.63249390208327,42,0.5122949999999946,23,0.5122949999999946
15849,154.14478890208326,40,0.5122949999999946,28,0.5122949999999946
15850,154.65708390208326,47,0.5122949999999946,39,0.5122949999999946
15851,155.16937890208325,49,0.5122949999999946,39,0.522057999999987
15852,155.55848165208326,29,0.3891027500000064,26,0.06647762500000454
15853,155.62495927708326,30,0.06647762500000454,26,0.06647762499997611
15854,155.69143690208324,45,0.06647762499997611,46,1.050558291666647
15855,155.78369965208324,30,0.09226275000000328,21,0.09125662499999976
15856,155.87495627708324,32,0.09125662499999976,24,0.09008716666667738
15857,155.96504344374992,30,0.09008716666667738,22,0.0890222499999993
15858,156.05406569374992,32,0.0890222499999993,24,0.08790316666664921
15859,156.14196886041657,30,0.08790316666664921,21,0.08689899999998829
15860,156.22886786041656,38,0.08689899999998829,25,0.5131273333333297
15861,156.3149560270832,30,0.08608816666665575,21,0.08573383333333595
15862,156.40068986041655,32,0.08573383333333595,24,0.0856478333333257
15863,156.48633769374987,30,0.0856478333333257,21,0.0853898333333234
15864,156.5717275270832,32,0.0853898333333234,24,0.08521916666668972
15865,156.6569466937499,30,0.08521916666668972,21,0.0850484999999992
15866,156.7419951937499,42,0.0850484999999992,39,0.5295134583332697
15867,156.8703473604165,30,0.12835216666661609,21,0.13157987499997148
15868,157.00192723541647,32,0.13157987499997148,24,0.06705691666667235
15869,157.06898415208315,30,0.06705691666667235,20,0.06792741666666302
15870,157.1369115687498,28,0.06792741666666302,24,0.06847604166665633
15871,157.20538761041647,30,0.06847604166665633,18,0.06612104166669042
15872,157.27150865208316,40,0.06612104166669042,36,0.5123389999999972
15873,157.78384765208315,47,0.5123389999999972,39,0.5123389999999972
15874,158.29618665208315,49,0.5123389999999972,39,0.5198824999999943
15875,158.68421265208315,29,0.38802599999999643,26,0.06592825000001312
15876,158.75014090208316,30,0.06592825000001312,26,0.0659282499999847
15877,158.81606915208314,45,0.0659282499999847,46,1.0465800416666582
15878,158.90762373541648,30,0.091554583333334,21,0.09057029166666553
15879,158.99819402708314,32,0.09057029166666553,24,0.08969733333333352
15880,159.08789136041648,30,0.08969733333333352,22,0.0887381249999919
15881,159.17662948541647,32,0.0887381249999919,24,0.08790316666667763
15882,159.26453265208315,30,0.08790316666667763,21,0.08689899999998829
15883,159.35143165208314,38,0.08689899999998829,27,0.5112175416666673
15884,159.43716548541647,30,0.08573383333333595,21,0.08556183333334388
15885,159.52272731874982,32,0.08556183333334388,24,0.0853898333333234
15886,159.60811715208314,30,0.0853898333333234,21,0.0850484999999992
15887,159.69316565208314,32,0.0850484999999992,24,0.08487200000001849
15888,159.77803765208316,30,0.08487200000001849,21,0.08461154166664642
15889,159.8626491937498,42,0.08461154166664642,43,0.5231269583333074
15890,159.9899599437498,30,0.12731074999999237,21,0.12976366666663353
15891,160.11972361041643,32,0.12976366666663353,24,0.06592708333332098
15892,160.18565069374975,30,0.06592708333332098,20,0.06648229166668784
15893,160.25213298541644,28,0.06648229166668784,24,0.06804825000000392
15894,160.32018123541644,30,0.06804825000000392,18,0.06559491666666872
15895,160.3857761520831,32,0.06559491666666872,34,0.5081729999999993
15896,160.8939491520831,47,0.5081729999999993,44,0.5020920000000046
15897,161.39604115208311,49,0.5020920000000046,45,0.5123389999999972
15898,161.9083801520831,50,0.5123389999999972,47,0.5123389999999972
15899,162.4207191520831,51,0.5123389999999972,48,0.5252099999999871
15900,162.9459291520831,52,0.5252099999999871,52,0.5187170000000094
15901,163.4646461520831,53,0.5187170000000094,56,0.5274259999999913
15902,163.9920721520831,54,0.5274259999999913,52,0.5592320000000086
15903,164.5513041520831,44,0.5592320000000086,35,0.5487469999999917
15904,165.1000511520831,45,0.5487469999999917,36,0.5487470000000201
15905,165.64879815208312,37,0.5487470000000201,39,0.269299999999987
15906,165.9180981520831,35,0.269299999999987,37,0.2594283333333465
15907,166.17752648541645,33,0.2594283333333465,36,0.25862050000000636
15908,166.43614698541646,32,0.25862050000000636,35,0.2575104999999951
15909,166.69365748541645,32,0.2575104999999951,39,1.5246500000000083
15910,166.94575848541646,30,0.25210100000001034,39,0.2521009999999819
15911,167.19785948541644,28,0.2521009999999819,37,0.25210100000001034
15912,167.44996048541645,27,0.25210100000001034,36,0.25210100000001034
15913,167.70206148541646,25,0.25210100000001034,35,0.2542374999999879
15914,167.95629898541645,23,0.2542374999999879,35,0.2620085000000074
15915,168.21830748541646,47,0.2620085000000074,36,1.5682284999999752
15916,168.74928048541645,37,0.5309729999999888,42,0.26565149999998994
15917,169.01493198541644,35,0.26565149999998994,37,0.25960637500000416
15918,169.27453836041644,33,0.25960637500000416,36,0.2572430416666691
15919,169.5317814020831,32,0.2572430416666691,36,0.2547545833333231
15920,169.78653598541644,32,0.2547545833333231,39,1.5155550000000062
15921,170.03758198541644,30,0.2510460000000023,39,0.2510460000000023
15922,170.28862798541644,28,0.2510460000000023,37,0.24691350000000511
15923,170.53554148541645,27,0.24691350000000511,36,0.24691350000000511
15924,170.78245498541645,40,0.24691350000000511,42,0.25531899999998586
15925,171.03777398541644,42,0.25531899999998586,37,0.26431700000000546
15926,171.30209098541644,43,0.26431700000000546,45,1.2731914999999958
15927,171.82098698541645,44,0.5188960000000122,39,1.0197819999999922
15928,172.08043498541645,37,0.2594479999999919,36,0.24793399999998655
15929,172.32836898541643,39,0.24793399999998655,37,0.24691350000000511
15930,172.57528248541644,56,0.24691350000000511,52,0.2654865000000086
15931,172.84076898541645,56,0.2654865000000086,49,1.5459690000000137
15932,173.09889998541644,39,0.2581309999999917,37,0.2581310000000201
15933,173.35703098541646,31,0.2581310000000201,41,0.2531644999999969
15934,173.61019548541645,32,0.2531644999999969,36,0.2531644999999969
15935,173.86335998541645,48,0.2531644999999969,39,0.5233780000000081
15936,174.12504898541644,39,0.26168899999998985,35,0.26168900000001827
15937,174.38673798541646,49,0.26168900000001827,46,1.547996999999981
15938,174.91011598541644,25,0.5233779999999797,41,0.25837549999999965
15939,175.16849148541644,32,0.25837549999999965,35,0.25282300000000646
15940,175.42131448541645,52,0.25282300000000646,45,0.5134204999999952
15941,175.66924848541643,39,0.24793399999998655,35,0.2654865000000086
15942,175.93473498541644,46,0.2654865000000086,47,1.5483119999999815
15943,176.19180448541644,37,0.25706950000000006,35,0.25706950000000006
15944,176.44887398541644,29,0.25706950000000006,36,0.2531644999999969
15945,176.70203848541644,30,0.2531644999999969,35,0.2531644999999969
15946,176.95520298541643,39,0.2531644999999969,37,0.263922000000008
15947,177.21912498541644,37,0.263922000000008,35,0.26392199999997956
15948,177.48304698541642,47,0.26392199999997956,47,1.0477122500000462
15949,178.01089098541644,37,0.527844000000016,39,0.2605974999999887
15950,178.27148848541643,35,0.2605974999999887,37,0.2592707500000415
15951,178.53075923541647,47,0.2592707500000415,45,0.5137739166666506
15952,178.78835948541646,32,0.25760024999999587,35,0.25617366666665475
15953,179.04453315208312,32,0.25617366666665475,39,1.5225749999999891
15954,179.29769765208312,30,0.2531644999999969,39,0.2531644999999969
15955,179.5508621520831,28,0.2531644999999969,37,0.25
15956,179.8008621520831,27,0.25,36,0.25
15957,180.0508621520831,25,0.25,35,0.2542374999999879
15958,180.3050996520831,23,0.2542374999999879,35,0.2620085000000074
15959,180.5671081520831,47,0.2620085000000074,46,1.5644815833333325
15960,181.09625573541643,37,0.5291475833333266,42,0.2605974999999887
15961,181.35685323541642,35,0.2605974999999887,37,0.26059750000001713
15962,181.61745073541644,33,0.26059750000001713,36,0.5141390000000001
15963,181.87452023541644,32,0.25706950000000006,36,0.25706950000000006
15964,182.13158973541644,39,0.25706950000000006,45,1.5600967499999854
15965,182.38865923541644,30,0.25706950000000006,39,0.25706950000000006
15966,182.64572873541644,37,0.25706950000000006,38,0.25641941666665957
15967,182.9021481520831,27,0.25641941666665957,36,0.2594093333333376
15968,183.16155748541644,40,0.2594093333333376,42,0.26506449999999404
15969,183.42662198541643,42,0.26506449999999404,37,0.26506449999999404
15970,183.69168648541643,47,0.26506449999999404,47,1.5895820000000072
15971,184.22181548541644,35,0.5301290000000165,39,0.2614379999999983
15972,184.48325348541644,34,0.2614379999999983,36,0.2614379999999983
15973,184.74469148541644,43,0.2614379999999983,42,0.5365769999999941
15974,185.01297998541645,35,0.26828850000001125,34,0.26828849999998283
15975,185.28126848541643,47,0.26828849999998283,45,1.5867965000000197
15976,185.81257148541644,26,0.5313030000000083,43,0.2614379999999983
15977,186.07400948541644,32,0.2614379999999983,39,0.2614379999999983
15978,186.33544748541644,35,0.2614379999999983,43,0.5326175000000148
15979,186.59750198541644,33,0.26205450000000496,39,0.2705630000000099
15980,186.86806498541645,37,0.2705630000000099,45,1.070029500000004
15981,187.39936798541646,21,0.5313030000000083,41,1.070029500000004
15982,187.66501948541645,28,0.26565149999998994,36,0.27307500000000573
15983,187.93809448541646,52,0.27307500000000573,47,0.5313030000000083
15984,188.20374598541645,37,0.26565149999998994,36,0.26565150000001836
15985,188.46939748541647,52,0.26565150000001836,48,1.5939089999999965
15986,189.00070048541644,16,0.5313029999999799,39,0.26565150000001836
15987,189.26635198541646,23,0.26565150000001836,35,0.26565149999998994
15988,189.53200348541645,28,0.26565149999998994,39,0.26565149999998994
15989,189.79765498541644,35,0.26565149999998994,36,0.26565150000001836
15990,190.06330648541646,40,0.26565150000001836,39,1.611805000000004
15991,190.32895798541645,39,0.26565149999998994,34,0.26565150000001836
15992,190.59460948541647,38,0.26565150000001836,35,0.26565149999998994
15993,190.86026098541646,37,0.26565149999998994,34,0.26565149999998994
15994,191.12591248541645,48,0.26565149999998994,45,0.5491990000000158
15995,191.39559948541645,28,0.2696870000000047,35,0.2795120000000111
15996,191.67511148541647,49,0.2795120000000111,57,0.5386000000000024
15997,192.21371148541647,44,0.5386000000000024,49,0.504413999999997
15998,192.71812548541646,45,0.504413999999997,52,0.51687154166666
15999,193.23499702708312,54,0.51687154166666,56,1.0179059999999822
16000,193.7454180270831,45,0.5104209999999796,25,0.5074850000000026
16001,194.2529030270831,52,0.5074850000000026,52,0.51715200000001
16002,194.77005502708312,52,0.51715200000001,52,0.5091219999999907
16003,195.2791770270831,45,0.5091219999999907,44,0.5091220000000192
16004,195.78829902708313,47,0.5091220000000192,45,0.5155530000000113
16005,196.30385202708314,49,0.5155530000000113,52,3.58466999999996
16006,196.81940502708312,45,0.5155529999999828,28,0.5091219999999907
16007,197.3285270270831,45,0.5091219999999907,27,0.5155530000000113
16008,197.84408002708312,45,0.5155530000000113,27,0.5155529999999828
16009,198.3596330270831,45,0.5155529999999828,24,0.5074850000000026
16010,198.8671180270831,45,0.5074850000000026,24,0.5139189999999871
16011,199.3810370270831,45,0.5139189999999871,24,0.5074850000000026
16012,199.8885220270831,28,0.5074850000000026,24,0.5074850000000026
16013,200.3960070270831,40,0.5074850000000026,24,0.5139189999999871
16014,200.9099260270831,28,0.5139189999999871,24,0.5187620000000095
16015,201.4286880270831,28,0.5187620000000095,24,0.5122949999999946
16016,201.9409830270831,28,0.5122949999999946,24,0.5122949999999946
16017,202.4532780270831,28,0.5122949999999946,24,0.512295000000023
16018,202.9655730270831,40,0.512295000000023,24,0.5187620000000095
16019,203.48433502708312,28,0.5187620000000095,24,0.5287739999999985
16020,204.01310902708312,50,0.5287739999999985,53,0.5155530000000113
16021,204.52866202708313,46,0.5155530000000113,50,0.504413999999997
16022,205.03307602708313,47,0.504413999999997,57,0.51687154166666
16023,205.5499475687498,55,0.51687154166666,58,1.0179059999999822
16024,206.06036856874977,47,0.5104209999999796,30,0.5074850000000026
16025,206.56785356874977,54,0.5074850000000026,54,0.5122949999999946
16026,207.08014856874976,54,0.5122949999999946,54,0.5091219999999907
16027,207.58927056874975,47,0.5091219999999907,49,0.5091220000000192
16028,208.09839256874977,49,0.5091220000000192,52,0.5155530000000113
16029,208.61394556874978,52,0.5155530000000113,58,0.5155529999999828
16030,209.12949856874977,50,0.5155529999999828,54,3.0691169999999772
16031,209.63862056874976,47,0.5091219999999907,26,0.5155530000000113
16032,210.15417356874977,47,0.5155530000000113,28,0.5155529999999828
16033,210.66972656874975,47,0.5155529999999828,29,0.5074850000000026
16034,211.17721156874975,47,0.5074850000000026,27,0.5139189999999871
16035,211.69113056874974,47,0.5139189999999871,27,0.5074850000000026
16036,212.19861556874974,42,0.5074850000000026,27,0.5074850000000026
16037,212.70610056874975,42,0.5074850000000026,27,0.5139189999999871
16038,213.22001956874973,42,0.5139189999999871,27,0.5187620000000095
16039,213.73878156874974,42,0.5187620000000095,27,0.5122949999999946
16040,214.25107656874974,42,0.5122949999999946,27,0.5122949999999946
16041,214.76337156874973,42,0.5122949999999946,27,0.512295000000023
16042,215.27566656874976,42,0.512295000000023,27,0.5122949999999946
16043,215.78796156874975,42,0.5122949999999946,27,0.5122949999999946
16044,216.30025656874975,40,0.5122949999999946,28,0.5122949999999946
16045,216.81255156874974,47,0.5122949999999946,39,0.5122949999999946
16046,217.32484656874973,49,0.5122949999999946,39,0.522057999999987
16047,217.71394931874974,29,0.3891027500000064,26,0.06647762500000454
16048,217.78042694374975,30,0.06647762500000454,26,0.06647762499997611
16049,217.84690456874972,45,0.06647762499997611,46,1.050558291666647
16050,217.93916731874972,30,0.09226275000000328,21,0.09125662499999976
16051,218.03042394374972,32,0.09125662499999976,24,0.09008716666667738
16052,218.1205111104164,30,0.09008716666667738,22,0.0890222499999993
16053,218.2095333604164,32,0.0890222499999993,24,0.08790316666664921
16054,218.29743652708305,30,0.08790316666664921,21,0.08689899999998829
16055,218.38433552708304,38,0.08689899999998829,25,0.5131273333333297
16056,218.4704236937497,30,0.08608816666665575,21,0.08573383333333595
16057,218.55615752708303,32,0.08573383333333595,24,0.0856478333333257
16058,218.64180536041636,30,0.0856478333333257,21,0.0853898333333234
16059,218.72719519374968,32,0.0853898333333234,24,0.08521916666668972
16060,218.81241436041637,30,0.08521916666668972,21,0.0850484999999992
16061,218.89746286041637,42,0.0850484999999992,39,0.5295134583332697
16062,219.02581502708298,30,0.12835216666661609,21,0.13157987499997148
16063,219.15739490208296,32,0.13157987499997148,24,0.06705691666667235
16064,219.22445181874963,30,0.06705691666667235,20,0.06792741666666302
16065,219.2923792354163,28,0.06792741666666302,24,0.06847604166665633
16066,219.36085527708295,30,0.06847604166665633,18,0.06612104166669042
16067,219.42697631874964,40,0.06612104166669042,36,0.5123389999999972
16068,219.93931531874964,47,0.5123389999999972,39,0.5123389999999972
16069,220.45165431874963,49,0.5123389999999972,39,0.5198824999999943
16070,220.83968031874963,29,0.38802599999999643,26,0.06592825000001312
16071,220.90560856874964,30,0.06592825000001312,26,0.0659282499999847
16072,220.97153681874963,45,0.0659282499999847,46,1.0465800416666582
16073,221.06309140208296,30,0.091554583333334,21,0.09057029166666553
16074,221.15366169374963,32,0.09057029166666553,24,0.08969733333333352
16075,221.24335902708296,30,0.08969733333333352,22,0.0887381249999919
16076,221.33209715208295,32,0.0887381249999919,24,0.08790316666667763
16077,221.42000031874963,30,0.08790316666667763,21,0.08689899999998829
16078,221.50689931874962,38,0.08689899999998829,27,0.5112175416666673
16079,221.59263315208295,30,0.08573383333333595,21,0.08556183333334388
16080,221.6781949854163,32,0.08556183333334388,24,0.0853898333333234
16081,221.76358481874962,30,0.0853898333333234,21,0.0850484999999992
16082,221.84863331874962,32,0.0850484999999992,24,0.08487200000001849
16083,221.93350531874964,30,0.08487200000001849,21,0.08461154166664642
16084,222.01811686041628,42,0.08461154166664642,43,0.5231269583333074
16085,222.14542761041628,30,0.12731074999999237,21,0.12976366666663353
16086,222.2751912770829,32,0.12976366666663353,24,0.06592708333332098
16087,222.34111836041623,30,0.06592708333332098,20,0.06648229166668784
16088,222.40760065208292,28,0.06648229166668784,24,0.06804825000000392
16089,222.47564890208292,30,0.06804825000000392,18,0.06559491666666872
16090,222.5412438187496,32,0.06559491666666872,34,0.5081729999999993
16091,223.0494168187496,47,0.5081729999999993,44,0.5020920000000046
16092,223.5515088187496,49,0.5020920000000046,45,0.5123389999999972
16093,224.0638478187496,50,0.5123389999999972,47,0.5123389999999972
16094,224.5761868187496,51,0.5123389999999972,48,0.5252099999999871
16095,225.10139681874958,52,0.5252099999999871,52,0.5187170000000094
16096,225.6201138187496,53,0.5187170000000094,52,0.5274259999999913
16097,226.14753981874958,54,0.5274259999999913,51,0.5539139999999918
16098,226.70145381874957,44,0.5539139999999918,35,0.5539140000000202
16099,227.2553678187496,45,0.5539140000000202,36,0.5539139999999918
16100,227.80928181874958,37,0.5539139999999918,39,0.2705630000000099
16101,228.0798448187496,35,0.2705630000000099,37,0.2597404999999924
16102,228.33958531874958,33,0.2597404999999924,36,0.25387150000000247
16103,228.5934568187496,32,0.25387150000000247,35,0.2541379999999833
16104,228.84759481874957,32,0.2541379999999833,39,1.5279894999999897
16105,229.10075931874957,30,0.2531644999999969,39,0.2531644999999969
16106,229.35392381874956,28,0.2531644999999969,37,0.2510460000000023
16107,229.60496981874957,27,0.2510460000000023,36,0.2510460000000023
16108,229.85601581874957,25,0.2510460000000023,35,0.256410499999987
16109,230.11242631874956,23,0.256410499999987,35,0.2631580000000042
16110,230.37558431874956,47,0.2631580000000042,36,1.5719900416666803
16111,230.91129831874957,37,0.5357140000000129,42,0.26205450000000496
16112,231.17335281874958,35,0.26205450000000496,37,0.26205450000000496
16113,231.43540731874958,33,0.26205450000000496,36,0.2559945000000141
16114,231.6914018187496,32,0.2559945000000141,36,0.2561725416666434
16115,231.94757436041624,32,0.2561725416666434,39,1.531472000000008
16116,232.20181186041623,30,0.2542374999999879,39,0.2542375000000163
16117,232.45604936041624,28,0.2542375000000163,37,0.25
16118,232.70604936041624,27,0.25,36,0.25
16119,232.95604936041624,40,0.25,42,0.2575104999999951
16120,233.21355986041624,42,0.2575104999999951,37,0.2654865000000086
16121,233.47904636041625,43,0.2654865000000086,45,1.2961172500000089
16122,233.99794236041626,44,0.5188960000000122,39,1.0290047499999844
16123,234.25215411041626,37,0.2542117499999961,36,0.26443349999999555
16124,234.51658761041625,39,0.26443349999999555,37,0.258576000000005
16125,234.77516361041626,56,0.258576000000005,52,0.2517834999999877
16126,235.02694711041624,56,0.2517834999999877,49,1.5452240000000188
16127,235.28187561041625,39,0.25492850000000544,37,0.25492850000000544
16128,235.53680411041626,31,0.25492850000000544,41,0.2559945000000141
16129,235.79279861041627,32,0.2559945000000141,36,0.2559944999999857
16130,236.04879311041626,48,0.2559944999999857,39,0.5233780000000081
16131,236.31048211041625,39,0.26168899999998985,35,0.26168900000001827
16132,236.57217111041626,49,0.26168900000001827,46,1.5433679999999868
16133,237.09554911041624,25,0.5233779999999797,41,0.25837549999999965
16134,237.35392461041624,32,0.25837549999999965,35,0.25387150000000247
16135,237.60779611041625,52,0.25387150000000247,45,0.5077430000000049
16136,237.86166761041625,39,0.25387150000000247,35,0.25387150000000247
16137,238.11553911041625,46,0.25387150000000247,47,1.5525596666666388
16138,238.3695867770829,37,0.2540476666666507,35,0.25546149999999557
16139,238.6250482770829,29,0.25546149999999557,36,0.25671116666666194
16140,238.88175944374956,30,0.25671116666666194,35,0.25849533333334307
16141,239.1402547770829,39,0.25849533333334307,37,0.263922000000008
16142,239.4041767770829,37,0.263922000000008,35,0.26392199999997956
16143,239.6680987770829,47,0.26392199999997956,47,1.0544925000000092
16144,240.1959427770829,37,0.527844000000016,39,0.26807249999998817
16145,240.4640152770829,35,0.26807249999998817,37,0.258576000000005
16146,240.7225912770829,47,0.258576000000005,45,0.5171519999999816
16147,240.9811672770829,32,0.258576000000005,35,0.2585759999999766
16148,241.23974327708288,32,0.2585759999999766,39,1.5270564999999863
16149,241.49290777708288,30,0.2531644999999969,39,0.2531644999999969
16150,241.74607227708287,28,0.2531644999999969,37,0.25
16151,241.99607227708287,27,0.25,36,0.25
16152,242.24607227708287,25,0.25,35,0.256410499999987
16153,242.50248277708286,23,0.256410499999987,35,0.26431700000000546
16154,242.76679977708287,47,0.26431700000000546,46,1.5742799999999875
16155,243.30491677708287,37,0.5381169999999997,42,0.26443349999999555
16156,243.56935027708286,35,0.26443349999999555,37,0.2597404999999924
16157,243.82909077708285,33,0.2597404999999924,36,0.5119889999999998
16158,244.08508527708287,32,0.2559945000000141,36,0.2559944999999857
16159,244.34107977708285,39,0.2559944999999857,45,1.5646889999999871
16160,244.60194927708287,30,0.2608695000000125,39,0.2608694999999841
16161,244.86281877708285,37,0.2608694999999841,38,0.256410499999987
16162,245.11922927708284,27,0.256410499999987,36,0.2564105000000154
16163,245.37563977708285,40,0.2564105000000154,42,0.26506449999999404
16164,245.64070427708285,42,0.26506449999999404,37,0.26506449999999404
16165,245.90576877708284,47,0.26506449999999404,47,1.5784770000000208
16166,246.43589777708286,35,0.5301290000000165,39,0.2597404999999924
16167,246.69563827708285,34,0.2597404999999924,36,0.2597405000000208
16168,246.95537877708287,43,0.2597405000000208,42,0.5288669999999911
16169,247.21981227708287,35,0.26443349999999555,34,0.26443349999999555
16170,247.48424577708286,47,0.26443349999999555,45,1.6011320000000353
16171,248.01311277708288,26,0.5288670000000195,43,0.269299999999987
16172,248.28241277708287,32,0.269299999999987,39,0.2693000000000154
16173,248.55171277708288,35,0.2693000000000154,43,0.5314413958333262
16174,248.81854527708288,33,0.2668324999999925,39,0.2668325000000209
16175,249.0853777770829,45,0.2668325000000209,45,1.0711504999999875
16176,249.6239777770829,21,0.5386000000000024,41,1.0711504999999875
16177,249.8932777770829,28,0.269299999999987,36,0.26325049999999806
16178,250.15652827708288,52,0.26325049999999806,47,0.5386000000000024
16179,250.42582827708287,37,0.269299999999987,36,0.2693000000000154
16180,250.6951282770829,52,0.2693000000000154,48,1.6133910000000071
16181,251.2337282770829,16,0.5386000000000024,39,0.2668324999999925
16182,251.50056077708288,23,0.2668324999999925,35,0.2668325000000209
16183,251.7673932770829,28,0.2668325000000209,39,0.2705630000000099
16184,252.0379562770829,35,0.2705630000000099,36,0.27056299999998146
16185,252.3085192770829,40,0.27056299999998146,39,1.6314510000000269
16186,252.5790822770829,39,0.2705630000000099,34,0.2705630000000099
16187,252.8496452770829,38,0.2705630000000099,34,0.27056299999998146
16188,253.1202082770829,37,0.27056299999998146,34,0.2705630000000099
16189,253.3907712770829,48,0.2705630000000099,45,0.5491990000000158
16190,253.6604582770829,28,0.2696870000000047,34,0.2795120000000111
16191,253.93997027708292,49,0.2795120000000111,54,0.5288669999999911
16192,254.4688372770829,44,0.5288669999999911,49,0.510421000000008
16193,254.97925827708292,45,0.510421000000008,52,0.51687154166666
16194,255.49612981874958,54,0.51687154166666,57,1.0179059999999822
16195,256.0065508187496,45,0.510421000000008,25,0.5074849999999742
16196,256.51403581874956,52,0.5074849999999742,52,0.5122949999999946
16197,257.02633081874956,52,0.5122949999999946,52,0.5091219999999907
16198,257.53545281874955,45,0.5091219999999907,45,0.51715200000001
16199,258.05260481874956,47,0.51715200000001,45,0.5265009999999961
16200,258.57910581874955,49,0.5265009999999961,52,3.6023609999999167
16201,259.10560681874955,45,0.5265009999999961,28,0.5126010000000178
16202,259.61820781874957,45,0.5126010000000178,27,0.5194809999999848
16203,260.13768881874955,45,0.5194809999999848,27,0.5148889999999824
16204,260.65257781874953,45,0.5148889999999824,24,0.5074849999999742
16205,261.1600628187495,45,0.5074849999999742,24,0.5139189999999871
16206,261.6739818187495,45,0.5139189999999871,24,0.5074849999999742
16207,262.18146681874947,40,0.5074849999999742,24,0.507485000000031
16208,262.6889518187495,28,0.507485000000031,24,0.5139189999999871
16209,263.2028708187495,28,0.5139189999999871,24,0.5187619999999811
16210,263.72163281874947,28,0.5187619999999811,24,0.5122949999999946
16211,264.23392781874946,28,0.5122949999999946,24,0.5122949999999946
16212,264.74622281874946,28,0.5122949999999946,24,0.5122949999999946
16213,265.25851781874945,28,0.5122949999999946,24,0.5187619999999811
16214,265.77727981874943,28,0.5187619999999811,24,0.5287739999999985
16215,266.30605381874943,50,0.5287739999999985,54,0.5155530000000113
16216,266.82160681874944,46,0.5155530000000113,52,0.504413999999997
16217,267.32602081874944,47,0.504413999999997,54,0.51687154166666
16218,267.8428923604161,55,0.51687154166666,59,1.0179059999999822
16219,268.3533133604161,47,0.510421000000008,30,0.5074849999999742
16220,268.8607983604161,54,0.5074849999999742,56,0.5122949999999946
16221,269.3730933604161,54,0.5122949999999946,58,0.5091219999999907
16222,269.88221536041607,47,0.5091219999999907,49,0.5091219999999907
16223,270.39133736041606,49,0.5091219999999907,51,0.5155530000000113
16224,270.90689036041607,52,0.5155530000000113,57,0.5155530000000113
16225,271.4224433604161,50,0.5155530000000113,52,3.069116999999949
16226,271.9315653604161,47,0.5091219999999907,26,0.5155530000000113
16227,272.4471183604161,47,0.5155530000000113,28,0.5155530000000113
16228,272.9626713604161,47,0.5155530000000113,29,0.5074849999999742
16229,273.47015636041607,47,0.5074849999999742,27,0.5139189999999871
16230,273.98407536041606,47,0.5139189999999871,27,0.5074849999999742
16231,274.49156036041603,42,0.5074849999999742,27,0.507485000000031
16232,274.99904536041606,42,0.507485000000031,27,0.5139189999999871
16233,275.51296436041605,42,0.5139189999999871,27,0.5187619999999811
16234,276.03172636041603,42,0.5187619999999811,27,0.5122949999999946
16235,276.544021360416,42,0.5122949999999946,27,0.5122949999999946
16236,277.056316360416,42,0.5122949999999946,27,0.5122949999999946
16237,277.568611360416,42,0.5122949999999946,27,0.5122949999999946
16238,278.080906360416,42,0.5122949999999946,27,0.5122949999999946
16239,278.593201360416,40,0.5122949999999946,28,0.5122950000000515
16240,279.10549636041605,47,0.5122950000000515,39,0.5122949999999946
16241,279.61779136041605,49,0.5122949999999946,39,0.5220580000000155
16242,280.00689411041606,29,0.3891027500000064,26,0.06647762500000454
16243,280.07337173541606,30,0.06647762500000454,26,0.06647762500000454
16244,280.13984936041606,45,0.06647762500000454,46,1.0505582916667322
16245,280.23211211041604,30,0.09226274999997486,21,0.09125662500002818
16246,280.32336873541607,32,0.09125662500002818,24,0.09008716666664895
16247,280.4134559020827,30,0.09008716666664895,22,0.08902225000002773
16248,280.50247815208274,32,0.08902225000002773,24,0.08790316666664921
16249,280.5903813187494,30,0.08790316666664921,21,0.08689900000001671
16250,280.6772803187494,38,0.08689900000001671,25,0.5131273333333866
16251,280.7633684854161,30,0.08608816666668417,21,0.08573383333333595
16252,280.84910231874943,32,0.08573383333333595,24,0.0856478333333257
16253,280.93475015208276,30,0.0856478333333257,21,0.08538983333335182
16254,281.0201399854161,32,0.08538983333335182,24,0.0852191666666613
16255,281.10535915208277,30,0.0852191666666613,21,0.08504850000002762
16256,281.1904076520828,42,0.08504850000002762,39,0.5295134583333834
16257,281.31875981874947,30,0.12835216666667293,21,0.13157987500005675
16258,281.4503396937495,32,0.13157987500005675,24,0.0670569166667292
16259,281.51739661041626,30,0.0670569166667292,20,0.0679274166666346
16260,281.5853240270829,28,0.0679274166666346,24,0.06847604166665633
16261,281.65380006874955,30,0.06847604166665633,18,0.06612104166663357
16262,281.7199211104162,40,0.06612104166663357,36,0.5123389999999972
16263,282.2322601104162,47,0.5123389999999972,39,0.5123389999999972
16264,282.7445991104162,49,0.5123389999999972,39,0.5198824999999943
16265,283.1326251104162,29,0.38802600000002485,26,0.06592824999995628
16266,283.19855336041616,30,0.06592824999995628,26,0.06592825000001312
16267,283.26448161041617,45,0.06592825000001312,46,1.0465800416666298
16268,283.3560361937495,30,0.091554583333334,21,0.09057029166666553
16269,283.44660648541617,32,0.09057029166666553,24,0.08969733333333352
16270,283.5363038187495,30,0.08969733333333352,22,0.08873812500002032
16271,283.6250419437495,32,0.08873812500002032,24,0.08790316666659237
16272,283.7129451104161,30,0.08790316666659237,21,0.08689900000001671
16273,283.79984411041613,38,0.08689900000001671,27,0.5112175416666673
16274,283.88557794374947,30,0.08573383333333595,21,0.08556183333331546
16275,283.9711397770828,32,0.08556183333331546,24,0.08538983333335182
16276,284.05652961041613,30,0.08538983333335182,21,0.08504850000002762
16277,284.14157811041616,32,0.08504850000002762,24,0.08487199999996164
16278,284.2264501104161,30,0.08487199999996164,21,0.08461154166667484
16279,284.3110616520828,42,0.08461154166667484,43,0.523126958333421
16280,284.43837240208285,30,0.1273107500000492,21,0.12976366666669037
16281,284.56813606874954,32,0.12976366666669037,24,0.0659270833333494
16282,284.6340631520829,30,0.0659270833333494,20,0.06648229166665942
16283,284.70054544374955,28,0.06648229166665942,24,0.06804825000006076
16284,284.7685936937496,30,0.06804825000006076,18,0.06559491666661188
16285,284.8341886104162,32,0.06559491666661188,34,0.5081729999999993
16286,285.3423616104162,47,0.5081729999999993,44,0.49582383333330426
16287,285.8381854437495,49,0.49582383333330426,45,0.5037780000000112
16288,286.34196344374953,50,0.5037780000000112,47,0.5037780000000112
16289,286.84574144374955,51,0.5037780000000112,51,0.510421000000008
16290,287.35616244374955,52,0.510421000000008,57,0.518716999999981
16291,287.87487944374953,53,0.518716999999981,49,0.4958679999999731
16292,288.3707474437495,54,0.4958679999999731,51,0.7672739999999862
16293,288.88485694374947,38,0.5141094999999609,27,0.5063289999999938
16294,289.1380214437495,53,0.2531645000000253,49,0.2531644999999685
16295,289.39118594374946,53,0.2531644999999685,50,0.5240170000000148
16296,289.9152029437495,54,0.5240170000000148,51,0.7694869999999696
16297,290.68468994374945,53,0.7694869999999696,54,0.24390249999999014
16298,290.92859244374944,53,0.24390249999999014,58,0.4864210000000071
16299,291.41501344374944,52,0.4864210000000071,63,0.7207960000000071
16300,292.13580944374945,51,0.7207960000000071,55,0.234375
16301,292.37018444374945,51,0.234375,61,0.46153800000001866
16302,292.83172244374947,50,0.46153800000001866,61,0.6854184999999688
16303,293.51714094374944,49,0.6854184999999688,61,0.22388050000000703
16304,293.74102144374945,49,0.22388050000000703,66,0.44280400000002373
16305,294.18382544374947,48,0.44280400000002373,68,0.6570894999999837
16306,294.84091494374945,47,0.6570894999999837,67,0.21428549999995994
16307,295.0552004437494,47,0.21428549999995994,73,0.4225349999999821
16308,295.4777354437494,45,0.4225349999999821,73,0.34285699999998087
16309,295.8205924437494,37,0.34285699999998087,73,0.2930549999999812
16310,296.11364744374936,42,0.2930549999999812,56,0.2682815000000005
16311,296.2465439437494,42,0.1328965000000153,58,0.05076937500001577
16312,296.38192894374936,42,0.1353849999999852,64,0.049721625000017866
16313,296.51451994374935,42,0.1325909999999908,65,0.05300362499997391
16314,296.6533030270827,42,0.138783083333351,72,0.2847919999999817
16315,296.9380950270827,44,0.2847919999999817,80,0.27671400000002677
16316,297.16292515208266,23,0.22483012499998267,37,0.2736362500000382
16317,297.1802197770827,30,0.017294625000033648,37,0.25634162500000457
16318,297.1975144020827,32,0.017294624999976804,37,0.23904700000002777
16319,297.2148090270827,56,0.017294625000033648,68,0.22175237499999412
16320,297.3512720270827,54,0.136462999999992,66,0.136462999999992
16321,297.4365614020827,25,0.08528937500000211,37,0.32897712499999443
16322,297.4536192770827,32,0.017057874999977685,37,0.31191925000001675
16323,297.4706771520827,35,0.017057875000034528,37,0.2948613749999822
16324,297.4877350270827,56,0.017057874999977685,68,0.27780350000000453
16325,297.6227970270827,57,0.1350620000000049,65,0.14274149999999963
16326,297.7655385270827,45,0.14274149999999963,59,0.267975999999976
16327,297.8981295270827,45,0.1325909999999908,61,0.05076937500001577
16328,298.0335145270827,45,0.1353849999999852,67,0.049721625000017866
16329,298.16610552708266,45,0.1325909999999908,66,0.05366081250002708
16330,298.30610752708264,45,0.1400019999999813,75,0.2812940000000026
16331,298.58740152708265,47,0.2812940000000026,82,0.2751910000000066
16332,298.81099421458265,27,0.22359268750000183,39,0.2727469999999812
16333,298.82819365208263,33,0.01719943749998265,39,0.25554756249999855
16334,298.84539308958267,35,0.017199437500039494,39,0.23834812499995905
16335,298.86259252708265,59,0.01719943749998265,72,0.2211486874999764
16336,298.9986840270827,57,0.13609150000002046,70,0.13609149999996362
16337,299.08374121458263,28,0.08505718749995594,39,0.3275173124999924
16338,299.10075265208263,35,0.017011437500002557,39,0.31050587499998983
16339,299.11776408958264,38,0.017011437500002557,39,0.29349443749998727
16340,299.13477552708264,59,0.017011437500002557,72,0.2764829999999847
16341,299.2692200270826,60,0.13444449999997232,65,0.1420385000000124
16342,299.4112585270826,48,0.1420385000000124,56,0.26495233333332635
16343,299.5423430270826,48,0.13108449999998584,60,0.05018062499999587
16344,299.67621086041595,48,0.1338678333333405,64,0.04938318749998416
16345,299.80789936041595,48,0.13168849999999566,69,0.05352806249999276
16346,299.94910252708263,48,0.14120316666668487,79,0.2751910000000066
16347,300.22429352708264,49,0.2751910000000066,63,0.2673434999999813
16348,300.3568845270826,49,0.1325909999999908,66,0.05053218749998223
16349,300.4916370270826,49,0.1347524999999905,67,0.049836187499977314
16350,300.62453352708263,47,0.1328965000000153,68,0.05366081250002708
16351,300.76762902708265,49,0.14309550000001536,81,0.2786029999999755
16352,301.0462320270826,49,0.2786029999999755,63,0.2692149999999742
16353,301.1797435270826,49,0.13351149999999734,66,0.05088881249997712
16354,301.3154470270826,49,0.13570349999997688,67,0.05041668749998962
16355,301.44989152708257,49,0.13444449999997232,67,0.051984749999974156
16356,301.58851752708256,49,0.13862599999998793,85,0.28063600000001543
16357,301.8691535270826,49,0.28063600000001543,78,0.2857960000000048
16358,302.1549495270826,47,0.2857960000000048,78,0.278267000000028
16359,302.4332165270826,45,0.278267000000028,74,0.28236216666664404
16360,302.71557869374925,44,0.28236216666664404,61,0.27430050000003803
16361,302.85305494374927,40,0.13747625000002017,59,0.13682425000001786
16362,302.9898791937493,52,0.13682425000001786,78,0.2717815833332793
16363,303.1260634437493,45,0.13618424999998524,75,0.13559733333329405
16364,303.26166077708257,57,0.13559733333329405,82,0.26940433333334113
16365,303.39667344374925,49,0.13501266666668243,75,0.1343916666666587
16366,303.5310651104159,61,0.1343916666666587,76,0.26768283333331055
16367,303.66493294374925,52,0.1338678333333405,71,0.13381499999997004
16368,303.7987479437492,64,0.13381499999997004,78,0.27077000000002727
16369,303.9341329437492,57,0.1353849999999852,75,0.13538500000004206
16370,304.06951794374925,69,0.13538500000004206,82,0.2792910000000006
16371,304.2091634437492,61,0.1396454999999719,75,0.13964550000002873
16372,304.34880894374925,73,0.13964550000002873,82,0.2792910000000006
16373,304.62809994374925,71,0.2792910000000006,76,0.27462500000001455
16374,304.90272494374926,64,0.27462500000001455,73,0.28462999999999283
16375,305.18735494374926,64,0.28462999999999283,75,0.5592389999999909
16376,305.46595794374923,69,0.2786029999999755,68,0.28063600000001543
16377,305.74659394374925,52,0.28063600000001543,56,0.2833800000000224
16378,306.02997394374927,52,0.2833800000000224,56,0.5633940000000166
16379,306.3113729437493,57,0.2813990000000217,56,0.2819949999999949
16380,306.5933679437493,52,0.2819949999999949,55,0.2896870000000149
16381,306.8830549437493,52,0.2896870000000149,55,0.5814889999999764
16382,307.1696019437493,57,0.28654699999998456,56,0.2949419999999918
16383,307.4645439437493,52,0.2949419999999918,52,0.2861909999999739
16384,307.75073494374925,52,0.2861909999999739,56,0.8737439999999879
16385,308.62447894374924,49,0.8737439999999879,53,3.421175000000005
16386,309.4982229437492,35,0.8737439999999879,43,0.2783190000000104
16387,309.77654194374924,33,0.2783190000000104,37,0.28503599999999096
16388,310.0615779437492,30,0.28503599999999096,37,0.28503599999999096
16389,310.3466139437492,33,0.28503599999999096,43,0.2783190000000104
16390,310.62493294374923,32,0.2783190000000104,37,0.2857960000000048
16391,310.91072894374923,28,0.2857960000000048,37,0.2857960000000048
16392,311.19652494374924,30,0.2857960000000048,43,0.279057000000023
16393,311.47558194374926,28,0.279057000000023,37,0.28503599999999096
16394,311.76061794374925,25,0.28503599999999096,37,0.28503599999999096
16395,312.04565394374924,26,0.28503599999999096,39,0.28503599999999096
16396,312.33068994374923,25,0.28503599999999096,35,0.2850360000000478
16397,312.6157259437493,21,0.2850360000000478,35,0.28503599999999096
16398,312.9007619437493,42,0.28503599999999096,63,0.26735975000002554
16399,313.0330489437493,42,0.13228700000001936,66,0.05076937500001577
16400,313.1681216937493,42,0.13507275000000618,67,0.05006681250000611
16401,313.3016331937493,42,0.13351149999999734,68,0.05352806249999276
16402,313.441412110416,42,0.13977891666672804,80,0.28061000000002423
16403,313.72202211041605,44,0.28061000000002423,90,0.27671400000002677
16404,313.9987361104161,56,0.27671400000002677,76,0.272925999999984
16405,314.13519911041607,54,0.136462999999992,74,0.136462999999992
16406,314.27166211041606,56,0.136462999999992,76,0.2771485000000098
16407,314.40641461041605,57,0.1347524999999905,72,0.14239600000001928
16408,314.54881061041607,45,0.14239600000001928,63,0.26703950000000987
16409,314.6810976104161,45,0.13228700000001936,66,0.05053218749998223
16410,314.8158501104161,45,0.1347524999999905,67,0.04995112500000687
16411,314.94905311041606,45,0.13320299999998042,66,0.053789062500015916
16412,315.09083627708276,45,0.14178316666669843,79,0.2798379999999838
16413,315.37067427708274,47,0.2798379999999838,87,0.2751910000000066
16414,315.64586527708275,59,0.2751910000000066,76,0.2721829999999841
16415,315.78195677708277,57,0.13609150000002046,74,0.13609149999996362
16416,315.91804827708273,59,0.13609149999996362,76,0.2750914999999736
16417,316.0524927770827,60,0.13444449999997232,71,0.1406470000000013
16418,316.1931397770827,48,0.1406470000000013,56,0.2638954166666281
16419,316.3239327770827,48,0.13079299999998284,60,0.049836187499977314
16420,316.45703519374933,48,0.13310241666664524,64,0.04927087499999061
16421,316.58842419374935,48,0.13138900000001286,68,0.051984749999974156
16422,316.72705019374933,48,0.13862599999998793,80,0.2751910000000066
16423,317.00224119374934,50,0.2751910000000066,64,0.2677143333333447
16424,317.13483219374933,50,0.1325909999999908,67,0.05076937500001577
16425,317.2699555270827,50,0.1351233333333539,71,0.05006681250000611
16426,317.4034670270827,50,0.13351149999999734,72,0.05120316666665303
16427,317.5415239437494,50,0.13805691666669873,81,0.2751910000000066
16428,317.8167149437494,51,0.2751910000000066,66,0.26734900000002426
16429,317.9490019437494,51,0.13228700000001936,69,0.05064824999999473
16430,318.0840639437494,51,0.1350620000000049,74,0.05006681250000611
16431,318.2175754437494,51,0.13351149999999734,76,0.05064824999999473
16432,318.3526374437494,51,0.1350620000000049,86,0.2881009999999833
16433,318.6407384437494,55,0.2881009999999833,81,0.2857960000000048
16434,318.9265344437494,53,0.2857960000000048,81,0.278267000000028
16435,319.20480144374943,41,0.278267000000028,85,0.2830060000000003
16436,319.48780744374943,40,0.2830060000000003,61,0.2742653333334033
16437,319.62530261041616,40,0.13749516666672434,59,0.13677016666667896
16438,319.76207277708284,52,0.13677016666667896,78,0.2718349166666485
16439,319.8982570270828,45,0.13618424999998524,75,0.13565066666666326
16440,320.0339076937495,57,0.13565066666666326,82,0.26971658333332016
16441,320.1690257770828,48,0.13511808333333875,73,0.1345984999999814
16442,320.3036242770828,60,0.1345984999999814,76,0.26826399999998785
16443,320.4377562770828,52,0.13413200000002234,71,0.1341319999999655
16444,320.5718882770828,64,0.1341319999999655,78,0.272925999999984
16445,320.7083512770828,57,0.136462999999992,75,0.136462999999992
16446,320.8448142770828,69,0.136462999999992,82,0.2792910000000006
16447,320.98445977708275,60,0.1396454999999719,75,0.13964550000002873
16448,321.1241052770828,72,0.13964550000002873,82,0.2792910000000006
16449,321.4033962770828,71,0.2792910000000006,78,0.2759510000000205
16450,321.6793472770828,64,0.2759510000000205,73,0.28462999999999283
16451,321.9639772770828,64,0.28462999999999283,75,0.5598969999999781
16452,322.24258027708277,69,0.2786029999999755,68,0.2812940000000026
16453,322.52387427708277,52,0.2812940000000026,58,0.2833800000000224
16454,322.8072542770828,52,0.2833800000000224,58,0.5633940000000166
16455,323.0886532770828,57,0.2813990000000217,56,0.2819949999999949
16456,323.3706482770828,52,0.2819949999999949,56,0.2896870000000149
16457,323.6603352770828,52,0.2896870000000149,56,0.5713389999999663
16458,323.9468822770828,57,0.28654699999998456,55,0.2847919999999817
16459,324.2316742770828,52,0.2847919999999817,81,0.5653720000000249
16460,324.7970462770828,53,0.5653720000000249,75,0.13763999999997623
16461,324.9346862770828,52,0.13763999999997623,71,0.13764000000003307
16462,325.0723262770828,47,0.13764000000003307,73,0.13997749999998632
16463,325.2123037770828,48,0.13997749999998632,65,0.13997749999998632
16464,325.3522812770828,45,0.13997749999998632,70,0.8585729999999785
16465,326.2108542770828,53,0.8585729999999785,84,0.28596675000000005
16466,326.4968210270828,41,0.28596675000000005,48,0.14099750000002587
16467,326.6378185270828,36,0.14099750000002587,49,0.14062050000001136
16468,326.7784390270828,40,0.14062050000001136,50,0.14025900000001457
16469,326.9186980270828,41,0.14025900000001457,51,0.13989950000001272
16470,327.05859752708284,37,0.13989950000001272,52,0.13952849999998307
16471,327.1981260270828,43,0.13952849999998307,53,0.1391595000000052
16472,327.3372855270828,44,0.1391595000000052,54,0.1387925000000223
16473,327.47607802708285,45,0.1387925000000223,55,0.13844000000000278
16474,327.61451802708285,46,0.13844000000000278,57,0.13808349999999336
16475,327.75260152708285,47,0.13808349999999336,59,0.13772199999999657
16476,327.89032352708284,48,0.13772199999999657,59,0.13736249999999472
16477,328.02768602708284,49,0.13736249999999472,60,0.13736249999999472
16478,328.16504852708283,50,0.13736249999999472,64,0.13736249999999472
16479,328.3024110270828,51,0.13736249999999472,65,0.13736249999999472
16480,328.4397735270828,52,0.13736249999999472,66,0.13736249999999472
16481,328.5771360270828,53,0.13736249999999472,67,0.13736250000005157
16482,328.71449852708287,48,0.13736250000005157,68,0.27472499999998945
16483,328.98922352708286,49,0.27472499999998945,73,0.2778642500000501
16484,329.2670877770829,61,0.2778642500000501,80,0.1432735000000207
16485,329.5536347770829,66,0.28654699999998456,91,0.2865470000000414
16486,329.84018177708293,42,0.2865470000000414,48,0.14062050000001136
16487,329.98080227708294,42,0.14062050000001136,49,0.14031924999994771
16488,330.1211215270829,41,0.14031924999994771,50,0.14001933333338457
16489,330.2611408604163,42,0.14001933333338457,51,0.13965216666667857
16490,330.40079302708295,43,0.13965216666667857,52,0.13934399999999414
16491,330.54013702708295,44,0.13934399999999414,53,0.13903716666669652
16492,330.67917419374965,45,0.13903716666669652,54,0.13867500000003474
16493,330.8178491937497,41,0.13867500000003474,55,0.13838058333334402
16494,330.956229777083,47,0.13838058333334402,57,0.13808349999999336
16495,331.094313277083,43,0.13808349999999336,59,0.13772199999999657
16496,331.232035277083,49,0.13772199999999657,59,0.13736249999999472
16497,331.369397777083,50,0.13736249999999472,60,0.13736249999999472
16498,331.506760277083,51,0.13736249999999472,64,0.13736249999999472
16499,331.644122777083,47,0.13736249999999472,65,0.13736249999999472
16500,331.781485277083,53,0.13736249999999472,66,0.13736249999999472
16501,331.918847777083,54,0.13736249999999472,67,0.13736250000005157
16502,332.05621027708304,54,0.13736250000005157,68,0.27472499999998945
16503,332.33093527708303,55,0.27472499999998945,73,0.27479866666664066
16504,332.60573394374967,55,0.27479866666664066,80,0.1432735000000207
16505,332.89228094374965,67,0.28654699999998456,91,0.2865470000000414
16506,333.1788279437497,55,0.2865470000000414,70,0.13844000000000278
16507,333.3172679437497,55,0.13844000000000278,70,0.13844000000000278
16508,333.4557079437497,54,0.13844000000000278,64,0.14062050000001136
16509,333.5963284437497,55,0.14062050000001136,64,0.13988999999997986
16510,333.7362184437497,56,0.13988999999997986,70,0.13885366666670507
16511,333.8750721104164,57,0.13885366666670507,64,0.13879249999996546
16512,334.01386461041636,58,0.13879249999996546,70,0.06882000000001653
16513,334.15150461041634,58,0.13763999999997623,65,0.06882000000001653
16514,334.2891446104164,58,0.13764000000003307,65,0.07068800000001829
16515,334.43052061041635,58,0.14137599999997974,65,0.07068800000001829
16516,334.5718966104164,58,0.14137600000003658,70,0.13844000000000278
16517,334.7103366104164,57,0.13844000000000278,65,0.13844000000000278
16518,334.8487766104164,57,0.13844000000000278,70,0.06865625000000364
16519,334.9860891104164,57,0.13731250000000728,65,0.06865625000000364
16520,335.1234016104164,56,0.13731250000000728,65,0.07068800000001829
16521,335.2647776104164,57,0.14137599999997974,65,0.07068800000001829
16522,335.4061536104164,58,0.14137600000003658,70,0.13844000000000278
16523,335.5445936104164,59,0.13844000000000278,63,0.13844000000000278
16524,335.68303361041643,60,0.13844000000000278,65,0.06849325000001727
16525,335.8200201104164,60,0.1369864999999777,67,0.06849325000001727
16526,335.95700661041644,60,0.13698650000003454,70,0.07031024999997726
16527,336.09762711041645,60,0.14062050000001136,72,0.07031024999997726
16528,336.23824761041647,60,0.14062050000001136,78,0.13844000000000278
16529,336.37668761041647,59,0.13844000000000278,72,0.13844000000000278
16530,336.51512761041647,59,0.13844000000000278,74,0.06849325000001727
16531,336.65211411041645,59,0.1369864999999777,76,0.06849325000001727
16532,336.7891006104165,58,0.13698650000003454,77,0.07031024999997726
16533,336.9297211104165,59,0.14062050000001136,80,0.07031024999997726
16534,337.0703416104165,59,0.14062050000001136,91,0.28761374999999134
16535,337.3204159854165,61,0.25007437499999696,63,0.03753937499999438
16536,337.3579553604165,59,0.03753937499999438,86,0.27860349999997425
16537,337.4965813604165,58,0.13862599999998793,79,0.13997749999998632
16538,337.63655886041647,59,0.13997749999998632,88,0.2903967500000135
16539,337.78036086041647,61,0.14380199999999377,82,0.14659475000001976
16540,337.9269556104165,59,0.14659475000001976,90,0.2883229999999912
16541,338.2152786104165,71,0.2883229999999912,95,0.2786029999999755
16542,338.49388161041645,57,0.2786029999999755,88,0.2833800000000224
16543,338.7772616104165,57,0.2833800000000224,77,0.2904310000000123
16544,339.03005523541646,59,0.25279362499998115,61,0.03763737500003117
16545,339.0676926104165,57,0.03763737500003117,82,0.2788287500000024
16546,339.2065438604165,56,0.13885125000001608,79,0.13997749999998632
16547,339.3465213604165,57,0.13997749999998632,84,0.29123399999997446
16548,339.4921383604165,59,0.14561700000001565,79,0.1456169999999588
16549,339.63775536041646,57,0.1456169999999588,90,0.2868750000000091
16550,339.9246303604165,69,0.2868750000000091,92,0.28063600000001543
16551,340.2052663604165,55,0.28063600000001543,88,0.2831513333333078
16552,340.4884176937498,55,0.2831513333333078,91,0.2906242500000076
16553,340.7413079437498,57,0.2528902500000072,63,0.03773400000000038
16554,340.7790419437498,55,0.03773400000000038,91,0.279057000000023
16555,340.9185704437498,54,0.13952849999998307,82,0.1395285000000399
16556,341.0580989437498,55,0.1395285000000399,88,0.2881009999999833
16557,341.2021494437498,57,0.14405049999999164,82,0.14405049999999164
16558,341.3461999437498,54,0.14405049999999164,90,0.28350000000000364
16559,341.4879499437498,42,0.14175000000000182,74,0.14175000000000182
16560,341.6296999437498,54,0.14175000000000182,84,0.2840793333333522
16561,341.77126294374983,54,0.1415630000000192,91,0.14251633333333302
16562,341.91377927708317,66,0.14251633333333302,89,0.28817174999994677
16563,342.05731027708316,66,0.14353099999999586,93,0.1446407499999509
16564,342.2019510270831,78,0.1446407499999509,93,0.290458000000001
16565,342.4924090270831,48,0.290458000000001,82,0.14525049999997464
16566,342.7829100270831,57,0.2905010000000061,79,0.14343750000000455
16567,343.0697850270831,56,0.2868750000000091,82,0.14488549999998668
16568,343.3595560270831,49,0.28977099999997336,61,0.1441614999999956
16569,343.6478790270831,54,0.2883229999999912,66,0.14561700000001565
16570,343.93911302708307,49,0.29123399999997446,68,0.14488549999998668
16571,344.22888402708304,44,0.28977099999997336,60,0.14488550000004352
16572,344.51865502708307,51,0.2897710000000302,58,0.14488549999998668
16573,344.80842602708304,49,0.28977099999997336,55,0.14488550000004352
16574,345.0981970270831,37,0.2897710000000302,48,0.14598549999999477
16575,345.39016802708306,42,0.29197099999998954,50,0.14380199999999377
16576,345.67777202708305,40,0.28760399999998754,51,0.14488549999998668
16577,345.967543027083,32,0.28977099999997336,45,0.14488550000004352
16578,346.25731402708305,39,0.2897710000000302,45,0.14488549999998668
16579,346.547085027083,49,0.28977099999997336,46,1.1306723999999235
16580,346.827040027083,35,0.27995499999997264,31,0.2861909999999739
16581,347.113231027083,32,0.2861909999999739,31,0.2861910000000307
16582,347.399422027083,33,0.2861910000000307,36,0.2783353999999463
16583,347.67775742708295,61,0.2783353999999463,46,0.28578042291673
16584,347.9635378499997,61,0.28578042291673,46,0.285795999999948
16585,348.24933384999963,37,0.285795999999948,46,1.1341665833334105
16586,348.528404889583,28,0.2790710395833571,31,0.2850235437500146
16587,348.813428433333,25,0.2850235437500146,31,0.28503599999999096
16588,349.098464433333,26,0.28503599999999096,38,0.2850360000000478
16589,349.38350043333304,61,0.2850360000000478,53,0.28503599999999096
16590,349.66853643333303,61,0.28503599999999096,59,0.28503599999999096
16591,349.953572433333,42,0.28503599999999096,63,0.2685999999999922
16592,350.08646893333304,42,0.1328965000000153,66,0.05088881249997712
16593,350.222172433333,42,0.13570349999997688,67,0.05041668749998962
16594,350.35646143333304,42,0.13428900000002386,68,0.05211224999999331
16595,350.495427433333,42,0.13896599999998216,79,0.28356491666670536
16596,350.7789923499997,44,0.28356491666670536,88,0.27672933958331214
16597,351.05572168958304,56,0.27672933958331214,76,0.2729338916666961
16598,351.19219258124974,54,0.13647089166670412,74,0.136462999999992
16599,351.32865558124973,56,0.136462999999992,76,0.2767519916666288
16600,351.4651185812497,57,0.136462999999992,72,0.14028899166663678
16601,351.60540757291636,45,0.14028899166663678,63,0.267975999999976
16602,351.73799857291635,45,0.1325909999999908,66,0.05076937500001577
16603,351.87338357291634,45,0.1353849999999852,67,0.04995112500000687
16604,352.0065865729163,45,0.13320299999998042,66,0.052619250000020656
16605,352.1469045729163,45,0.1403179999999793,79,0.2847919999999817
16606,352.4316965729163,47,0.2847919999999817,87,0.2752110020833811
16607,352.70690757499966,59,0.2752110020833811,76,0.27218926666665766
16608,352.84300534166636,57,0.13609776666669404,74,0.13609149999996362
16609,352.9790968416663,59,0.13609149999996362,76,0.2755992062500354
16610,353.11518834166634,60,0.13609150000002046,72,0.13950770625001496
16611,353.25469604791635,48,0.13950770625001496,56,0.265199999999993
16612,353.38638454791635,48,0.13168849999999566,60,0.05006681250000611
16613,353.51989604791635,48,0.13351149999999734,64,0.04938318749998416
16614,353.65158454791634,48,0.13168849999999566,68,0.053133749999972224
16615,353.7921265666663,48,0.14054201874995442,82,0.27995499999997264
16616,354.07208156666627,50,0.27995499999997264,63,0.2689200000000369
16617,354.2049780666663,50,0.1328965000000153,66,0.05100881250001521
16618,354.3410015666663,50,0.1360235000000216,71,0.05064824999999473
16619,354.4760635666663,48,0.1350620000000049,73,0.05287406249999549
16620,354.61706106666634,50,0.14099750000002587,81,0.2819949999999949
16621,354.89905606666633,51,0.2819949999999949,64,0.27046799999999394
16622,355.0335005666663,51,0.13444449999997232,68,0.05100881250001521
16623,355.1695240666663,51,0.1360235000000216,73,0.05064824999999473
16624,355.30458606666633,51,0.1350620000000049,75,0.052367062500024986
16625,355.4442315666663,51,0.1396454999999719,84,0.29197099999998954
16626,355.7362025666663,54,0.29197099999998954,93,0.2726900000000114
16627,356.0088925666663,69,0.2726900000000114,94,0.13731250000000728
16628,356.2835175666663,53,0.27462500000001455,94,0.2786029999999755
16629,356.5621205666663,52,0.2786029999999755,88,0.28368799999998373
16630,356.8458085666663,69,0.28368799999998373,98,0.1445785000000228
16631,357.13496556666627,53,0.2891569999999888,84,0.2843599999999924
16632,357.41932556666626,65,0.2843599999999924,98,0.14492749999999432
16633,357.70918056666625,50,0.28985499999998865,84,0.2843599999999924
16634,357.99354056666624,62,0.2843599999999924,98,0.14527850000001763
16635,358.2840975666662,48,0.2905569999999784,84,0.2857139999999845
16636,358.5698115666662,60,0.2857139999999845,96,0.14492749999999432
16637,358.8596665666662,47,0.28985499999998865,84,0.28503599999999096
16638,359.1447025666662,59,0.28503599999999096,94,0.14492749999999432
16639,359.4345575666662,47,0.28985499999998865,79,0.29556700000000546
16640,359.7301245666662,64,0.29556700000000546,80,0.14423099999999067
16641,360.01858656666616,64,0.28846199999998134,82,0.2891569999999888
16642,360.2715989416662,33,0.2530123750000257,42,0.3281156249999526
16643,360.28967125416614,40,0.018072312499953114,44,0.3100433124999995
16644,360.30774356666615,69,0.018072312500009957,74,0.29197099999998954
16645,360.59971456666614,52,0.29197099999998954,46,0.14705900000001293
16646,360.89383256666616,52,0.29411800000002586,46,0.2920700000000238
16647,361.1493938166662,21,0.25556125000002794,25,0.3291917500000068
16648,361.16764819166616,28,0.018254374999969514,25,0.31093737500003726
16649,361.1859025666662,57,0.018254375000026357,43,0.2926830000000109
16650,361.4785855666662,52,0.2926830000000109,42,0.2985069999999723
16651,361.77709256666617,52,0.2985069999999723,46,0.29411800000002586
16652,362.0712105666662,57,0.29411800000002586,43,0.29925200000002405
16653,362.3704625666662,52,0.29925200000002405,39,0.29776700000002165
16654,362.66822956666624,52,0.29776700000002165,43,0.294840000000022
16655,362.96306956666626,57,0.294840000000022,40,0.29925200000002405
16656,363.2623215666663,52,0.29925200000002405,36,0.3061220000000162
16657,363.5684435666663,52,0.3061220000000162,39,0.29925200000002405
16658,363.8676955666663,57,0.29925200000002405,37,0.3022669999999721
16659,364.1699625666663,52,0.3022669999999721,33,0.30456900000001497
16660,364.4745315666663,52,0.30456900000001497,37,0.30000000000001137
16661,364.7745315666663,57,0.30000000000001137,35,0.3029539999999997
16662,365.0774855666663,52,0.3029539999999997,32,0.30792900000000145
16663,365.3854145666663,52,0.30792900000000145,35,0.31307099999997945
16664,365.6984855666663,57,0.31307099999997945,33,0.31704100000001745
16665,366.0155265666663,52,0.31704100000001745,30,0.32388700000001336
16666,366.33941356666634,52,0.32388700000001336,33,0.32670799999999645
16667,366.66612156666633,57,0.32670799999999645,31,0.34158800000000156
16668,367.00770956666634,52,0.34158800000000156,30,0.34158800000000156
16669,367.34929756666634,49,0.34158800000000156,51,0.5640690000000177
16670,367.91336656666635,44,0.5640690000000177,42,0.5516230000000064
16671,368.46498956666636,45,0.5516230000000064,46,0.5770899999999983
16672,369.04207956666636,54,0.5770899999999983,51,1.0682390000000055
16673,369.56669256666635,45,0.524612999999988,22,0.5436260000000175
16674,370.11031856666636,52,0.5436260000000175,47,0.5640690000000177
16675,370.6743875666664,52,0.5640690000000177,47,0.5397140000000036
16676,371.2141015666664,45,0.5397140000000036,38,0.5557099999999764
16677,371.76981156666636,47,0.5557099999999764,38,0.600180000000023
16678,372.3699915666664,49,0.600180000000023,49,3.928611999999987
16679,372.94267456666637,45,0.5726829999999836,24,0.5475950000000012
16680,373.49026956666637,45,0.5475950000000012,24,0.5683430000000271
16681,374.0586125666664,45,0.5683430000000271,23,0.5683429999999703
16682,374.62695556666637,45,0.5683429999999703,22,0.5557099999999764
16683,375.18266556666634,45,0.5557099999999764,22,0.5683430000000271
16684,375.75100856666637,45,0.5683430000000271,23,0.5475950000000012
16685,376.2986035666664,40,0.5475950000000012,22,0.5475950000000012
16686,376.8461985666664,40,0.5475950000000012,22,0.5598580000000197
16687,377.4060565666664,40,0.5598580000000197,23,0.5475950000000012
16688,377.9536515666664,40,0.5475950000000012,22,0.5436260000000175
16689,378.4972775666664,40,0.5436260000000175,22,0.5436259999999606
16690,379.0409035666664,40,0.5436259999999606,23,0.5557099999999764
16691,379.59661356666635,40,0.5557099999999764,22,0.5516230000000064
16692,380.14823656666636,40,0.5516230000000064,23,1.1768350000000396
16693,380.7389625666664,40,0.5907260000000178,23,0.5861090000000218
16694,381.3250715666664,23,0.5861090000000218,20,0.5640690000000177
16695,381.8891405666664,21,0.5640690000000177,20,0.600180000000023
16696,382.48932056666644,21,0.600180000000023,20,0.6304509999999937
16697,383.11977156666643,23,0.6304509999999937,20,0.600180000000023
16698,383.71995156666645,21,0.600180000000023,20,0.7284210000000257
16699,384.4483725666665,33,0.7284210000000257,23,8.497332000000029
16700,386.4227055666665,16,1.9743330000000014,20,0.16452774999999065
16701,388.3970385666665,21,1.9743330000000014,20,0.16452774999999065
16702,2.126967,54,0.0,49,0.6978369999999998
16703,2.824804,54,0.6978369999999998,40,0.6987170833333338
16704,2.9455710833333333,47,0.12076708333333341,22,0.11910574999999968
16705,3.064676833333333,51,0.11910574999999968,22,0.11749633333333342
16706,3.1821731666666664,42,0.11749633333333342,22,0.11553858333333356
16707,3.29771175,47,0.11553858333333356,22,0.11363766666666697
16708,3.411349416666667,51,0.11363766666666697,23,0.11217166666666678
16709,3.5235210833333337,54,0.11217166666666678,44,0.6503024999999996
16710,3.633906916666667,47,0.1103858333333334,23,0.10933849999999978
16711,3.743245416666667,51,0.10933849999999978,24,0.10864950000000029
16712,3.851894916666667,42,0.10864950000000029,24,0.10797491666666659
16713,3.9598698333333338,47,0.10797491666666659,24,0.10730875000000006
16714,4.067178583333334,51,0.10730875000000006,24,0.10664499999999943
16715,4.173823583333333,54,0.10664499999999943,49,0.6339810000000003
16716,4.279487083333334,47,0.10566350000000035,26,0.10566349999999947
16717,4.385150583333333,51,0.10566349999999947,26,0.10566350000000035
16718,4.490814083333333,42,0.10566350000000035,26,0.10566349999999947
16719,4.596477583333333,47,0.10566349999999947,27,0.10566350000000035
16720,4.702141083333333,51,0.10566350000000035,27,0.10566350000000035
16721,4.807804583333334,54,0.10566350000000035,52,0.6439285000000003
16722,4.913468083333333,47,0.10566349999999947,27,0.10598933333333349
16723,5.019457416666667,51,0.10598933333333349,28,0.10664500000000032
16724,5.126102416666667,42,0.10664500000000032,28,0.107642666666667
16725,5.233745083333334,47,0.107642666666667,28,0.1086494999999994
16726,5.342394583333333,51,0.1086494999999994,28,0.10933850000000067
16727,5.451733083333334,56,0.10933850000000067,55,0.6381967500000005
16728,5.562108416666668,47,0.11037533333333371,30,0.10831724999999981
16729,5.6704256666666675,51,0.10831724999999981,29,0.10631916666666719
16730,5.776744833333335,42,0.10631916666666719,29,0.10439500000000024
16731,5.881139833333335,47,0.10439500000000024,29,0.10439499999999935
16732,5.985534833333334,51,0.10439499999999935,29,0.10439500000000024
16733,6.0899298333333345,54,0.10439500000000024,52,0.6204631666666671
16734,6.1936965000000015,47,0.103766666666667,29,0.10376666666666612
16735,6.297463166666668,51,0.10376666666666612,29,0.103766666666667
16736,6.401229833333335,42,0.103766666666667,29,0.10315666666666701
16737,6.504386500000002,47,0.10315666666666701,28,0.10315666666666612
16738,6.607543166666668,51,0.10315666666666612,28,0.10284983333333386
16739,6.710393000000002,54,0.10284983333333386,50,0.6108044166666646
16740,6.812338500000001,47,0.10194549999999936,27,0.10105183333333301
16741,6.913390333333334,51,0.10105183333333301,27,0.10195616666666663
16742,7.015346500000001,42,0.10195616666666663,27,0.10315666666666612
16743,7.118503166666667,47,0.10315666666666612,27,0.10164241666666651
16744,7.220145583333333,51,0.10164241666666651,27,0.10105183333333301
16745,7.321197416666666,54,0.10105183333333301,51,0.6084086666666666
16746,7.42284675,47,0.10164933333333348,26,0.10225233333333339
16747,7.525099083333333,51,0.10225233333333339,26,0.10046299999999952
16748,7.625562083333333,42,0.10046299999999952,26,0.10134799999999977
16749,7.726910083333332,47,0.10134799999999977,26,0.10134800000000066
16750,7.828258083333333,51,0.10134800000000066,26,0.10134799999999977
16751,7.929606083333333,54,0.10134799999999977,55,0.6083824166666663
16752,8.030954083333333,49,0.10134799999999977,27,0.10134799999999977
16753,8.132302083333332,52,0.10134799999999977,27,0.10134799999999977
16754,8.233650083333332,42,0.10134799999999977,28,0.10134799999999977
16755,8.334998083333332,49,0.10134799999999977,29,0.10134800000000155
16756,8.436346083333333,52,0.10134800000000155,29,0.10164241666666562
16757,8.537988499999999,54,0.10164241666666562,60,0.6092639166666665
16758,8.639925333333332,49,0.10193683333333325,30,0.10193683333333325
16759,8.741862166666666,52,0.10193683333333325,30,0.1016424166666674
16760,8.843504583333333,42,0.1016424166666674,31,0.10134799999999977
16761,8.944852583333333,49,0.10134799999999977,33,0.10134799999999977
16762,9.046200583333333,52,0.10134799999999977,33,0.10105183333333301
16763,9.147252416666666,56,0.10105183333333301,62,0.6042413333333325
16764,9.248008083333332,49,0.10075566666666624,34,0.10075566666666624
16765,9.348763749999998,52,0.10075566666666624,35,0.10075566666666624
16766,9.449519416666664,42,0.10075566666666624,36,0.10075566666666802
16767,9.550275083333332,49,0.10075566666666802,36,0.10075566666666624
16768,9.651030749999999,52,0.10075566666666624,37,0.10046299999999952
16769,9.751493749999998,54,0.10046299999999952,61,0.6228547500000001
16770,9.85166408333333,49,0.1001703333333328,37,0.10075566666666624
16771,9.952419749999997,52,0.10075566666666624,37,0.10105183333333478
16772,10.053471583333332,42,0.10105183333333478,37,0.10134799999999977
16773,10.154819583333332,49,0.10134799999999977,36,0.1059210833333335
16774,10.260740666666665,52,0.1059210833333335,34,0.11360783333333302
16775,10.374348499999998,61,0.11360783333333302,66,0.60987525
16776,10.476891499999997,51,0.10254299999999894,41,0.10223991666666699
16777,10.579131416666664,54,0.10223991666666699,40,0.10193683333333325
16778,10.681068249999997,42,0.10193683333333325,40,0.10134799999999977
16779,10.782416249999997,51,0.10134799999999977,39,0.10105183333333478
16780,10.883468083333332,54,0.10105183333333478,39,0.10075566666666624
16781,10.984223749999998,59,0.10075566666666624,64,0.5990745833333353
16782,11.083534333333331,51,0.09931058333333276,38,0.09846399999999988
16783,11.18199833333333,54,0.09846399999999988,38,0.10075566666666624
16784,11.282753999999997,42,0.10075566666666624,37,0.1004630000000013
16785,11.383216999999998,51,0.1004630000000013,37,0.09902950000000033
16786,11.482246499999999,54,0.09902950000000033,36,0.10105183333333478
16787,11.583298333333333,59,0.10105183333333478,70,0.5984494166666696
16788,11.683761333333335,51,0.1004630000000013,36,0.09902950000000033
16789,11.782790833333335,55,0.09902950000000033,36,0.09959991666666745
16790,11.882390750000003,43,0.09959991666666745,37,0.1001736666666666
16791,11.98256441666667,51,0.1001736666666666,38,0.09959166666666697
16792,12.082156083333336,55,0.09959166666666697,38,0.09959166666666697
16793,12.181747750000003,59,0.09959166666666697,69,0.6307014166666693
16794,12.282210750000004,51,0.1004630000000013,39,0.1016424166666674
16795,12.383853166666672,55,0.1016424166666674,39,0.10284983333333386
16796,12.486703000000006,43,0.10284983333333386,40,0.10439883333333277
16797,12.591101833333338,51,0.10439883333333277,41,0.11112750000000027
16798,12.702229333333339,55,0.11112750000000027,42,0.11021983333333374
16799,12.812449166666672,59,0.11021983333333374,73,0.6095790833333332
16800,12.914992166666671,52,0.10254299999999894,37,0.10223991666666699
16801,13.017232083333338,56,0.10223991666666699,37,0.10193683333333325
16802,13.119168916666672,47,0.10193683333333325,37,0.10105183333333478
16803,13.220220750000006,52,0.10105183333333478,37,0.10075566666666624
16804,13.320976416666673,56,0.10075566666666624,38,0.10105183333333301
16805,13.422028250000006,59,0.10105183333333301,70,0.6045479999999994
16806,13.523376250000005,52,0.10134799999999977,38,0.10134799999999977
16807,13.624724250000005,56,0.10134799999999977,38,0.10075566666666624
16808,13.725479916666671,47,0.10075566666666624,39,0.10075566666666624
16809,13.826235583333338,52,0.10075566666666624,39,0.1001703333333328
16810,13.92640591666667,56,0.1001703333333328,39,0.10017033333333458
16811,14.026576250000005,59,0.10017033333333458,77,0.59755
16812,14.126167916666672,52,0.09959166666666697,39,0.09959166666666697
16813,14.225759583333339,56,0.09959166666666697,39,0.09959166666666519
16814,14.325351250000004,47,0.09959166666666519,39,0.09959166666666697
16815,14.424942916666671,52,0.09959166666666697,39,0.09959166666666697
16816,14.524534583333338,56,0.09959166666666697,40,0.09959166666666697
16817,14.624126250000005,61,0.09959166666666697,77,0.6130349583333317
16818,14.724296583333338,52,0.1001703333333328,40,0.10017033333333458
16819,14.824466916666672,56,0.10017033333333458,40,0.10031666666666617
16820,14.924783583333339,46,0.10031666666666617,42,0.10179395833333338
16821,15.026577541666672,52,0.10179395833333338,42,0.10330824999999955
16822,15.129885791666672,56,0.10330824999999955,42,0.10727541666666518
16823,15.237161208333337,63,0.10727541666666518,80,0.6060183333333331
16824,15.338509208333337,51,0.10134799999999977,40,0.10134799999999977
16825,15.439857208333336,56,0.10134799999999977,40,0.10134799999999977
16826,15.541205208333336,46,0.10134799999999977,39,0.10075566666666624
16827,15.641960875000002,51,0.10075566666666624,39,0.10075566666666624
16828,15.742716541666669,56,0.10075566666666624,39,0.1004630000000013
16829,15.84317954166667,61,0.1004630000000013,77,0.598216666666664
16830,15.94220904166667,51,0.09902950000000033,38,0.09902949999999855
16831,16.04123854166667,55,0.09902949999999855,38,0.10134800000000155
16832,16.14258654166667,46,0.10134800000000155,38,0.10046299999999775
16833,16.243049541666668,51,0.10046299999999775,37,0.0987467500000001
16834,16.341796291666668,55,0.0987467500000001,37,0.09959991666666568
16835,16.441396208333334,59,0.09959991666666568,77,0.6043038333333293
16836,16.542744208333335,51,0.10134800000000155,36,0.10046299999999775
16837,16.643207208333333,56,0.10046299999999775,35,0.0987467500000001
16838,16.741953958333333,47,0.0987467500000001,35,0.10046299999999775
16839,16.84241695833333,51,0.10046299999999775,35,0.10193683333333325
16840,16.944353791666664,56,0.10193683333333325,34,0.10134624999999886
16841,17.045700041666663,56,0.10134624999999886,70,0.618800249999996
16842,17.146169875,50,0.10046983333333515,33,0.1016424166666674
16843,17.247812291666666,54,0.1016424166666674,33,0.10284983333333031
16844,17.350662124999996,44,0.10284983333333031,31,0.1034616666666679
16845,17.454123791666664,50,0.1034616666666679,31,0.10471299999999673
16846,17.55883679166666,54,0.10471299999999673,31,0.10566349999999858
16847,17.66450029166666,56,0.10566349999999858,72,0.6230236666666649
16848,17.77016379166666,49,0.10566350000000213,31,0.10503100000000032
16849,17.87519479166666,54,0.10503100000000032,31,0.10408083333333096
16850,17.979275624999993,44,0.10408083333333096,33,0.10346166666666434
16851,18.082737291666657,49,0.10346166666666434,33,0.10284983333333386
16852,18.18558712499999,54,0.10284983333333386,34,0.10193683333333325
16853,18.287523958333324,58,0.10193683333333325,72,0.604830166666666
16854,18.388575791666657,49,0.10105183333333301,35,0.10075566666666802
16855,18.489331458333325,54,0.10075566666666802,35,0.10075566666666802
16856,18.590087124999993,44,0.10075566666666802,36,0.10075566666666447
16857,18.690842791666658,49,0.10075566666666447,36,0.10075566666666802
16858,18.791598458333326,54,0.10075566666666802,37,0.10075566666666447
16859,18.89235412499999,59,0.10075566666666447,75,0.604534000000001
16860,18.993109791666658,49,0.10075566666666802,38,0.10075566666666802
16861,19.093865458333326,53,0.10075566666666802,38,0.10075566666666447
16862,19.19462112499999,44,0.10075566666666447,37,0.10075566666666802
16863,19.29537679166666,47,0.10075566666666802,37,0.10075566666666802
16864,19.396132458333327,49,0.10075566666666802,36,0.10075566666666447
16865,19.49688812499999,25,0.10075566666666447,31,0.10254300000000072
16866,19.50970599999999,49,0.012817874999999646,68,0.6101777083333317
16867,19.59943112499999,44,0.08972512500000107,36,0.10284983333333031
16868,19.702280958333322,47,0.10284983333333031,35,0.1034616666666679
16869,19.80574262499999,37,0.1034616666666679,35,0.10408083333333096
16870,19.90982345833332,44,0.10408083333333096,35,0.10471300000000028
16871,20.01453645833332,47,0.10471300000000028,37,0.10534725000000122
16872,20.119883708333322,49,0.10534725000000122,70,0.6389223333333263
16873,20.226536791666653,44,0.10665308333333101,39,0.107642666666667
16874,20.33417945833332,47,0.107642666666667,39,0.10697483333333224
16875,20.441154291666653,37,0.10697483333333224,39,0.1063151666666684
16876,20.54746945833332,44,0.1063151666666684,40,0.10598933333332994
16877,20.65345879166665,47,0.10598933333332994,42,0.10534724999999767
16878,20.75880604166665,51,0.10534724999999767,62,0.6266880000000015
16879,20.86351904166665,42,0.10471300000000028,35,0.10439500000000024
16880,20.96791404166665,47,0.10439500000000024,36,0.10439500000000024
16881,21.07230904166665,37,0.10439500000000024,36,0.10439500000000024
16882,21.17670404166665,42,0.10439500000000024,37,0.10439500000000024
16883,21.28109904166665,47,0.10439500000000024,37,0.10439500000000024
16884,21.38549404166665,52,0.10439500000000024,63,0.6412595416666633
16885,21.48941779166665,42,0.10392374999999987,33,0.10503012499999897
16886,21.59444791666665,46,0.10503012499999897,32,0.1063171666666669
16887,21.700765083333316,37,0.1063171666666669,32,0.10730874999999784
16888,21.808073833333314,40,0.10730874999999784,31,0.10864950000000206
16889,21.916723333333316,42,0.10864950000000206,29,0.11003024999999766
16890,22.026753583333313,42,0.11003024999999766,55,0.7638493749999995
16891,22.138020166666646,37,0.11126658333333239,35,0.11555925000000045
16892,22.253579416666646,40,0.11555925000000045,34,0.1214217083333331
16893,22.37500112499998,30,0.1214217083333331,31,0.12815691666666496
16894,22.503158041666644,37,0.12815691666666496,30,0.13543258333333696
16895,22.63859062499998,40,0.13543258333333696,29,0.15201233333333164
16896,22.790602958333313,54,0.15201233333333164,51,0.6987170833333316
16897,22.911370041666647,47,0.12076708333333386,22,0.11910574999999923
16898,23.030475791666646,51,0.11910574999999923,22,0.11749633333333165
16899,23.147972124999978,42,0.11749633333333165,22,0.11553858333333267
16900,23.26351070833331,47,0.11553858333333267,22,0.11363766666666919
16901,23.37714837499998,51,0.11363766666666919,23,0.112171666666665
16902,23.489320041666645,54,0.112171666666665,44,0.6503024999999987
16903,23.599705874999977,47,0.11038583333333207,23,0.10933849999999978
16904,23.709044374999976,51,0.10933849999999978,24,0.10864950000000206
16905,23.81769387499998,42,0.10864950000000206,24,0.10797491666666303
16906,23.92566879166664,47,0.10797491666666303,24,0.1073087500000014
16907,24.032977541666643,51,0.1073087500000014,24,0.10664500000000032
16908,24.139622541666643,54,0.10664500000000032,49,0.6339809999999986
16909,24.245286041666642,47,0.10566349999999858,26,0.10566350000000213
16910,24.350949541666644,51,0.10566350000000213,26,0.10566349999999858
16911,24.456613041666643,42,0.10566349999999858,26,0.10566350000000213
16912,24.562276541666645,47,0.10566350000000213,27,0.10566349999999858
16913,24.667940041666643,51,0.10566349999999858,27,0.10566349999999858
16914,24.773603541666642,54,0.10566349999999858,52,0.6439285000000048
16915,24.879267041666644,47,0.10566350000000213,27,0.10598933333333349
16916,24.985256374999977,51,0.10598933333333349,28,0.10664500000000032
16917,25.091901374999978,42,0.10664500000000032,28,0.107642666666667
16918,25.199544041666645,47,0.107642666666667,28,0.10864950000000206
16919,25.308193541666647,51,0.10864950000000206,28,0.10933849999999978
16920,25.417532041666647,56,0.10933849999999978,55,0.6381967499999988
16921,25.52790737499998,47,0.11037533333333371,30,0.10831724999999892
16922,25.63622462499998,51,0.10831724999999892,29,0.10631916666666541
16923,25.742543791666645,42,0.10631916666666541,29,0.10439500000000024
16924,25.846938791666645,47,0.10439500000000024,29,0.10439500000000024
16925,25.951333791666645,51,0.10439500000000024,29,0.10439500000000024
16926,26.055728791666645,54,0.10439500000000024,52,0.6204631666666636
16927,26.15949545833331,47,0.10376666666666523,29,0.10376666666666878
16928,26.26326212499998,51,0.10376666666666878,29,0.10376666666666523
16929,26.367028791666645,42,0.10376666666666523,29,0.10315666666666701
16930,26.47018545833331,47,0.10315666666666701,28,0.10315666666666701
16931,26.57334212499998,51,0.10315666666666701,28,0.10284983333333031
16932,26.67619195833331,54,0.10284983333333031,50,0.6108044166666708
16933,26.778137458333312,47,0.10194550000000291,27,0.10105183333333301
16934,26.879189291666645,51,0.10105183333333301,27,0.10195616666666751
16935,26.981145458333312,42,0.10195616666666751,27,0.10315666666666701
16936,27.08430212499998,47,0.10315666666666701,27,0.1016424166666674
16937,27.185944541666647,51,0.1016424166666674,27,0.10105183333333301
16938,27.28699637499998,54,0.10105183333333301,51,0.6084086666666657
16939,27.388645708333314,47,0.10164933333333437,26,0.1022523333333325
16940,27.490898041666647,51,0.1022523333333325,26,0.10046299999999775
16941,27.591361041666644,42,0.10046299999999775,26,0.10134800000000155
16942,27.692709041666646,47,0.10134800000000155,26,0.101347999999998
16943,27.794057041666644,51,0.101347999999998,26,0.10134800000000155
16944,27.895405041666645,54,0.10134800000000155,59,0.6083824166666645
16945,27.996753041666643,49,0.101347999999998,30,0.10134800000000155
16946,28.098101041666645,52,0.10134800000000155,31,0.101347999999998
16947,28.199449041666643,42,0.101347999999998,31,0.10134800000000155
16948,28.300797041666645,49,0.10134800000000155,33,0.10134800000000155
16949,28.402145041666646,52,0.10134800000000155,34,0.10164241666666385
16950,28.50378745833331,61,0.10164241666666385,68,0.6092639166666665
16951,28.605724291666643,49,0.10193683333333325,35,0.10193683333333325
16952,28.707661124999976,52,0.10193683333333325,35,0.1016424166666674
16953,28.809303541666644,42,0.1016424166666674,36,0.101347999999998
16954,28.910651541666642,49,0.101347999999998,38,0.10134800000000155
16955,29.011999541666643,52,0.10134800000000155,38,0.10105183333333301
16956,29.113051374999976,63,0.10105183333333301,71,0.6042413333333343
16957,29.213807041666644,49,0.10075566666666802,39,0.10075566666666802
16958,29.314562708333312,52,0.10075566666666802,40,0.10075566666666447
16959,29.415318374999977,42,0.10075566666666447,41,0.10075566666666802
16960,29.516074041666645,49,0.10075566666666802,41,0.10075566666666447
16961,29.61682970833331,52,0.10075566666666447,42,0.1004630000000013
16962,29.71729270833331,58,0.1004630000000013,66,0.6146993416666646
16963,29.817463041666645,49,0.10017033333333458,41,0.10075566666666802
16964,29.918218708333313,52,0.10075566666666802,40,0.10096298333333209
16965,30.019181691666645,42,0.10096298333333209,38,0.10257593333333048
16966,30.121757624999976,49,0.10257593333333048,37,0.1042080333333324
16967,30.22596565833331,52,0.1042080333333324,36,0.10602639166666705
16968,30.331992049999975,61,0.10602639166666705,72,0.6098752499999982
16969,30.434535049999976,51,0.10254300000000072,45,0.10223991666666521
16970,30.53677496666664,54,0.10223991666666521,44,0.10193683333333325
16971,30.638711799999975,42,0.10193683333333325,44,0.10134800000000155
16972,30.740059799999976,51,0.10134800000000155,42,0.10105183333332945
16973,30.841111633333306,54,0.10105183333332945,42,0.10075566666666802
16974,30.941867299999974,59,0.10075566666666802,71,0.5990745833333335
16975,31.041177883333308,51,0.09931058333333453,41,0.09846399999999988
16976,31.139641883333308,54,0.09846399999999988,41,0.10075566666666802
16977,31.240397549999976,42,0.10075566666666802,40,0.10046299999999775
16978,31.340860549999974,51,0.10046299999999775,41,0.09902950000000033
16979,31.439890049999974,54,0.09902950000000033,39,0.10105183333333301
16980,31.540941883333307,59,0.10105183333333301,80,0.5984494166666643
16981,31.641404883333305,51,0.10046299999999775,38,0.09902950000000033
16982,31.740434383333305,55,0.09902950000000033,39,0.09959991666666568
16983,31.84003429999997,43,0.09959991666666568,40,0.1001736666666666
16984,31.940207966666637,51,0.1001736666666666,41,0.09959166666666519
16985,32.0397996333333,55,0.09959166666666519,42,0.09959166666666874
16986,32.13939129999997,59,0.09959166666666874,82,0.6307014166666747
16987,32.239854299999976,51,0.10046300000000485,45,0.10164241666667095
16988,32.34149671666665,55,0.10164241666667095,46,0.10284983333333031
16989,32.44434654999998,43,0.10284983333333031,47,0.10439883333333455
16990,32.54874538333331,51,0.10439883333333455,48,0.11112750000000204
16991,32.659872883333314,55,0.11112750000000204,49,0.11021983333333196
16992,32.770092716666646,59,0.11021983333333196,80,0.6095790833333439
16993,32.87263571666665,52,0.10254300000000427,41,0.10223991666666876
16994,32.97487563333332,56,0.10223991666666876,41,0.10193683333333325
16995,33.07681246666665,47,0.10193683333333325,42,0.10105183333333656
16996,33.17786429999999,52,0.10105183333333656,42,0.10075566666666447
16997,33.27861996666665,56,0.10075566666666447,42,0.10105183333333656
16998,33.37967179999999,59,0.10105183333333656,81,0.6045480000000012
16999,33.48101979999999,52,0.10134800000000155,44,0.10134799999999444
17000,33.582367799999986,56,0.10134799999999444,44,0.10075566666666447
17001,33.68312346666665,47,0.10075566666666447,45,0.10075566666667157
17002,33.78387913333332,52,0.10075566666667157,45,0.10017033333333103
17003,33.88404946666665,56,0.10017033333333103,45,0.10017033333333814
17004,33.98421979999999,59,0.10017033333333814,84,0.5975499999999982
17005,34.08381146666666,52,0.09959166666666874,46,0.09959166666666164
17006,34.18340313333332,56,0.09959166666666164,46,0.09959166666666874
17007,34.28299479999999,47,0.09959166666666874,47,0.09959166666666874
17008,34.38258646666666,52,0.09959166666666874,47,0.09959166666666874
17009,34.48217813333333,56,0.09959166666666874,47,0.09959166666666164
17010,34.58176979999999,61,0.09959166666666164,84,0.613034958333337
17011,34.68194013333332,52,0.10017033333333103,48,0.10017033333333814
17012,34.78211046666666,56,0.10017033333333814,48,0.10031666666666439
17013,34.88242713333332,46,0.10031666666666439,49,0.1017939583333316
17014,34.984221091666655,52,0.1017939583333316,49,0.10330825000000488
17015,35.08752934166666,56,0.10330825000000488,49,0.10727541666666696
17016,35.194804758333326,63,0.10727541666666696,88,0.6060183333333313
17017,35.29615275833333,51,0.10134800000000155,44,0.10134800000000155
17018,35.39750075833333,56,0.10134800000000155,44,0.10134799999999444
17019,35.498848758333324,46,0.10134799999999444,42,0.10075566666666447
17020,35.59960442499999,51,0.10075566666666447,42,0.10075566666667157
17021,35.70036009166666,56,0.10075566666667157,41,0.10046299999999775
17022,35.80082309166666,58,0.10046299999999775,82,0.5982166666666799
17023,35.89985259166666,51,0.09902950000000033,40,0.09902950000000033
17024,35.99888209166666,56,0.09902950000000033,40,0.10134800000000155
17025,36.10023009166666,46,0.10134800000000155,40,0.10046300000000485
17026,36.200693091666665,51,0.10046300000000485,39,0.09874675000000366
17027,36.29943984166667,56,0.09874675000000366,39,0.09959991666666923
17028,36.39903975833334,58,0.09959991666666923,80,0.6043038333333541
17029,36.50038775833334,51,0.10134800000000155,37,0.10046300000000485
17030,36.600850758333344,55,0.10046300000000485,36,0.09874675000000366
17031,36.69959750833335,46,0.09874675000000366,36,0.10046300000000485
17032,36.80006050833335,51,0.10046300000000485,36,0.10193683333333325
17033,36.901997341666686,55,0.10193683333333325,34,0.10134625000000597
17034,37.00334359166669,58,0.10134625000000597,71,0.6404141666666732
17035,37.10381342500003,51,0.10046983333333515,33,0.10164241666667095
17036,37.2054558416667,55,0.10164241666667095,33,0.10284983333333031
17037,37.30830567500003,46,0.10284983333333031,31,0.10570466666666789
17038,37.414010341666696,51,0.10570466666666789,31,0.11481625000000406
17039,37.5288265916667,55,0.11481625000000406,31,0.11493116666666481
17040,37.643757758333365,58,0.11493116666666481,64,0.6374656666666709
17041,37.7507095916667,50,0.10695183333333347,28,0.10666741666666724
17042,37.857377008333366,55,0.10666741666666724,28,0.106383000000001
17043,37.96376000833337,44,0.106383000000001,33,0.1061015833333343
17044,38.0698615916667,50,0.1061015833333343,29,0.1058201666666676
17045,38.17568175833337,55,0.1058201666666676,29,0.10554166666666731
17046,38.281223425000036,58,0.10554166666666731,66,0.6283676250000028
17047,38.38820030000004,50,0.10697687500000086,28,0.10518825000000476
17048,38.49338855000004,53,0.10518825000000476,28,0.10369683333333768
17049,38.59708538333338,44,0.10369683333333768,28,0.10362699999999592
17050,38.700712383333375,50,0.10362699999999592,28,0.1041666666666643
17051,38.80487905000004,53,0.1041666666666643,28,0.10471199999999925
17052,38.90959105000004,58,0.10471199999999925,68,0.6373611666666577
17053,39.01747955000004,50,0.10788850000000139,29,0.10673141666666197
17054,39.1242109666667,56,0.10673141666666197,29,0.10526608333334053
17055,39.22947705000004,44,0.10526608333334053,29,0.10498758333332603
17056,39.33446463333337,50,0.10498758333332603,29,0.1058201666666676
17057,39.440284800000036,56,0.1058201666666676,28,0.10666741666666013
17058,39.546952216666696,58,0.10666741666666013,60,0.6549607833333297
17059,39.654191550000036,50,0.10723933333333946,28,0.10770845833333453
17060,39.76190000833337,55,0.10770845833333453,28,0.10583120833332771
17061,39.8677312166667,44,0.10583120833332771,30,0.10620153333333349
17062,39.97393275000003,50,0.10620153333333349,30,0.1111807499999955
17063,40.08511350000003,55,0.1111807499999955,33,0.11679949999999906
17064,40.201913000000026,53,0.11679949999999906,53,0.634088416666664
17065,40.30801458333335,44,0.1061015833333272,25,0.1058201666666676
17066,40.41383475000002,27,0.1058201666666676,25,0.1058201666666676
17067,40.51965491666669,39,0.1058201666666676,25,0.1058201666666676
17068,40.625475083333356,44,0.1058201666666676,26,0.10526316666666702
17069,40.73073825000002,46,0.10526316666666702,27,0.10526316666666702
17070,40.83600141666669,51,0.10526316666666702,52,0.631869166666668
17071,40.94126458333336,43,0.10526316666666702,26,0.10498758333333313
17072,41.04625216666669,46,0.10498758333333313,26,0.10498758333334024
17073,41.15123975000003,39,0.10498758333334024,26,0.10498758333332603
17074,41.25622733333336,43,0.10498758333332603,26,0.10554166666666731
17075,41.361769000000024,46,0.10554166666666731,26,0.1061015833333343
17076,41.46787058333336,51,0.1061015833333343,53,0.6422235000000001
17077,41.57425358333336,41,0.106383000000001,26,0.1058201666666676
17078,41.68007375000003,46,0.1058201666666676,26,0.10666741666666013
17079,41.78674116666669,39,0.10666741666666013,26,0.10723933333333946
17080,41.893980500000026,41,0.10723933333333946,26,0.10813866666666883
17081,42.002119166666695,46,0.10813866666666883,25,0.10797491666666303
17082,42.11009408333336,51,0.10797491666666303,47,0.6477521666666703
17083,42.21857745833336,43,0.10848337499999872,25,0.10664904166666389
17084,42.32522650000002,27,0.10664904166666389,25,0.10471404166667497
17085,42.429940541666696,39,0.10471404166667497,24,0.16000375000000133
17086,42.5356195416667,43,0.10567900000000208,22,0.10969020833333332
17087,42.5899442916667,27,0.054324749999999256,19,0.16790195833333144
17088,42.64530975000003,46,0.05536545833333406,20,0.11253649999999737
17089,42.75784625000003,51,0.11253649999999737,49,0.6987170833333423
17090,42.87861333333336,46,0.12076708333333386,22,0.11910575000000279
17091,42.938371916666696,27,0.05975858333333406,24,0.17684350000000393
17092,42.997719083333365,49,0.05934716666666873,22,0.1174963333333352
17093,43.1152154166667,37,0.1174963333333352,33,0.172544666666667
17094,43.23075400000003,46,0.11553858333333267,22,0.11363766666666919
17095,43.28776008333337,27,0.057006083333334345,24,0.1688032500000034
17096,43.3443916666667,49,0.056631583333334845,23,0.11217166666666856
17097,43.45656333333337,51,0.11217166666666856,44,0.6503024999999951
17098,43.5669491666667,46,0.11038583333333207,23,0.10933849999999978
17099,43.621791750000035,27,0.054842583333332584,24,0.1631454166666657
17100,43.6762876666667,49,0.0544959166666672,24,0.10864949999999851
17101,43.7849371666667,37,0.10864949999999851,33,0.16179625000000186
17102,43.89291208333337,46,0.10797491666667014,24,0.1073087500000014
17103,43.9467334166667,27,0.05382133333333172,24,0.1601324166666629
17104,44.00022083333337,49,0.053487416666669674,24,0.10664499999999322
17105,44.106865833333366,52,0.10664499999999322,51,0.6339809999999986
17106,44.212529333333364,46,0.10566349999999858,26,0.10566349999999858
17107,44.26536108333337,27,0.05283175000000284,24,0.15849525000000142
17108,44.31819283333336,49,0.052831749999995736,26,0.10566350000000568
17109,44.42385633333337,37,0.10566350000000568,33,0.15849524999999431
17110,44.52951983333337,46,0.10566349999999858,27,0.10566349999999858
17111,44.58235158333336,27,0.052831749999995736,24,0.15849525000000142
17112,44.635183333333366,49,0.05283175000000284,27,0.10566349999999858
17113,44.740846833333364,51,0.10566349999999858,49,0.6439285000000012
17114,44.84651033333336,46,0.10566349999999858,27,0.10598933333333349
17115,44.899342083333366,27,0.05283175000000284,24,0.15980258333333808
17116,44.9524996666667,49,0.05315758333333065,28,0.10664500000000743
17117,45.059144666666704,37,0.10664500000000743,35,0.16179624999999476
17118,45.16678733333337,46,0.10764266666666344,28,0.10864949999999851
17119,45.2209409166667,27,0.05415358333333131,24,0.16383441666666698
17120,45.275436833333366,49,0.0544959166666672,28,0.10933849999999978
17121,45.384775333333366,51,0.10933849999999978,52,0.6381967499999988
17122,45.495150666666696,44,0.11037533333333016,28,0.10831724999999892
17123,45.54964658333336,27,0.0544959166666672,27,0.16014050000000424
17124,45.603467916666695,49,0.05382133333333172,28,0.10631916666667252
17125,45.70978708333337,37,0.10631916666667252,36,0.15659250000000213
17126,45.814182083333364,44,0.10439499999999668,29,0.10439500000000379
17127,45.86637958333337,27,0.05219750000000545,27,0.15659249999999503
17128,45.91857708333337,49,0.05219749999999834,29,0.10439499999999668
17129,46.022972083333364,53,0.10439499999999668,55,0.6204631666666671
17130,46.12673875000003,44,0.10376666666666523,30,0.10376666666666523
17131,46.178622083333366,27,0.05188333333333617,28,0.1556500000000014
17132,46.230505416666695,47,0.05188333333332906,31,0.10376666666667234
17133,46.33427208333337,35,0.10376666666667234,37,0.1547350000000023
17134,46.43742875000003,44,0.10315666666666345,31,0.10315666666667056
17135,46.48900708333337,27,0.05157833333333883,28,0.15442816666666204
17136,46.5405854166667,47,0.05157833333333173,33,0.10284983333333031
17137,46.64343525000003,55,0.10284983333333031,58,0.6108044166666744
17138,46.74538075000003,46,0.10194549999999936,34,0.10105183333333656
17139,46.79605475000003,27,0.050674000000000774,29,0.1523339999999962
17140,46.84643258333337,51,0.050377833333335786,34,0.10195616666666041
17141,46.94838875000003,34,0.10195616666666041,37,0.15412508333334074
17142,47.0515454166667,46,0.10315666666667056,35,0.10164241666667095
17143,47.10251383333337,27,0.05096841666667018,29,0.15172583333333733
17144,47.15318783333337,51,0.050674000000000774,35,0.10105183333333656
17145,47.254239666666706,56,0.10105183333333656,60,0.6084086666666622
17146,47.35588900000003,47,0.10164933333332726,36,0.1022523333333325
17147,47.407467333333365,27,0.05157833333333173,30,0.15113700000000563
17148,47.458141333333366,51,0.050674000000000774,36,0.10046300000000485
17149,47.55860433333337,32,0.10046300000000485,39,0.15202200000000232
17150,47.65995233333337,47,0.10134800000000155,37,0.10134800000000155
17151,47.71062633333337,27,0.050674000000000774,30,0.15202199999999522
17152,47.761300333333374,51,0.050674000000000774,37,0.10134799999999444
17153,47.86264833333337,54,0.10134799999999444,59,0.6083824166666716
17154,47.96399633333337,49,0.10134800000000155,35,0.10134800000000155
17155,48.01467033333337,30,0.050674000000000774,30,0.15202200000000232
17156,48.06534433333337,52,0.050674000000000774,35,0.10134800000000155
17157,48.16669233333337,40,0.10134800000000155,40,0.15202199999999522
17158,48.26804033333337,49,0.10134799999999444,36,0.10134800000000155
17159,48.31871433333337,30,0.050674000000000774,30,0.15231641666667173
17160,48.36938833333337,52,0.050674000000000774,37,0.10164241666667095
17161,48.47103075000004,54,0.10164241666667095,67,0.6092639166666629
17162,48.57296758333337,49,0.10193683333333325,38,0.10193683333333325
17163,48.623936000000036,30,0.050968416666663074,31,0.15261083333333403
17164,48.674904416666706,52,0.05096841666667018,38,0.10164241666666385
17165,48.77654683333337,40,0.10164241666666385,42,0.15202200000000232
17166,48.87789483333337,49,0.10134800000000155,39,0.10134799999999444
17167,48.92856883333337,30,0.050674000000000774,33,0.15172583333333023
17168,48.979242833333366,52,0.05067399999999367,39,0.10105183333333656
17169,49.0802946666667,56,0.10105183333333656,70,0.6042413333333343
17170,49.18105033333337,49,0.10075566666666447,40,0.10075566666666447
17171,49.2314281666667,30,0.050377833333335786,34,0.15113350000000025
17172,49.28180600000003,52,0.05037783333332868,41,0.10075566666667157
17173,49.3825616666667,40,0.10075566666667157,44,0.15113350000000025
17174,49.48331733333337,49,0.10075566666666447,42,0.10075566666666447
17175,49.5336951666667,30,0.050377833333335786,34,0.15084083333333353
17176,49.58407300000003,52,0.05037783333332868,42,0.10046300000000485
17177,49.68453600000004,54,0.10046300000000485,66,0.6146993416666717
17178,49.78470633333337,49,0.10017033333333103,44,0.10075566666666447
17179,49.835084166666704,30,0.050377833333335786,30,0.15134081666666788
17180,49.88546200000003,52,0.05037783333332868,42,0.1009629833333392
17181,49.98642498333337,42,0.1009629833333392,41,0.1544592666666702
17182,50.089000916666706,49,0.10257593333333404,40,0.10420803333333595
17183,50.14088425000004,30,0.05188333333333617,30,0.15835109166666683
17184,50.19320895000004,52,0.05232469999999978,39,0.10602639166666705
17185,50.29923534166671,54,0.10602639166666705,72,0.6098752500000089
17186,50.401778341666706,47,0.10254299999999716,36,0.10223991666667587
17187,50.45304984166671,30,0.05127150000000569,30,0.15290525000000343
17188,50.50401825833338,52,0.05096841666667018,36,0.10193683333333325
17189,50.605955091666715,40,0.10193683333333325,40,0.15202200000000232
17190,50.70730309166672,47,0.10134800000000155,37,0.10105183333333656
17191,50.75797709166672,30,0.050674000000000774,31,0.15113350000000025
17192,50.80835492500005,52,0.050377833333335786,38,0.10075566666666447
17193,50.90911059166672,56,0.10075566666666447,75,0.5990745833333406
17194,51.00842117500005,47,0.09931058333333453,39,0.09846399999999988
17195,51.057653175000056,30,0.049232000000003495,31,0.14998766666666086
17196,51.10688517500005,51,0.04923199999999639,39,0.10075566666666447
17197,51.207640841666716,39,0.10075566666666447,40,0.14997775000000502
17198,51.30810384166672,47,0.10046300000000485,40,0.09902950000000033
17199,51.35761859166672,30,0.04951475000000016,33,0.15056658333333672
17200,51.40713334166672,51,0.04951475000000016,40,0.10105183333333656
17201,51.50818517500006,58,0.10105183333333656,80,0.598449416666675
17202,51.60864817500006,47,0.10046300000000485,41,0.09902950000000033
17203,51.65816292500006,30,0.04951475000000016,34,0.1491146666666694
17204,51.70767767500006,51,0.04951475000000016,42,0.09959991666666923
17205,51.80727759166673,42,0.09959991666666923,42,0.14996950000000453
17206,51.9074512583334,47,0.10017366666667016,44,0.09959166666666874
17207,51.95724709166674,30,0.04979583333333437,35,0.149387499999996
17208,52.00704292500007,51,0.04979583333333437,44,0.09959166666666164
17209,52.10663459166673,59,0.09959166666666164,82,0.6307014166666747
17210,52.20709759166674,47,0.10046300000000485,44,0.10164241666667095
17211,52.25777159166674,30,0.050674000000000774,36,0.1538182500000005
17212,52.30874000833341,51,0.05096841666667018,45,0.10284983333333031
17213,52.41158984166674,42,0.10284983333333031,46,0.15889475000000175
17214,52.515988675000074,47,0.10439883333333455,47,0.11112750000000204
17215,52.57048459166674,30,0.0544959166666672,37,0.1668514166666668
17216,52.627116175000076,51,0.056631583333334845,48,0.11021983333333196
17217,52.73733600833341,58,0.11021983333333196,80,0.6095790833333439
17218,52.83987900833341,51,0.10254300000000427,46,0.10223991666666876
17219,52.89115050833341,34,0.05127149999999858,38,0.15290525000000343
17220,52.94211892500008,54,0.05096841666667018,47,0.10193683333333325
17221,53.044055758333414,46,0.10193683333333325,48,0.15142966666666524
17222,53.14510759166675,51,0.10105183333333656,48,0.10075566666666447
17223,53.19548542500008,34,0.05037783333332868,38,0.15142966666667235
17224,53.245863258333415,54,0.050377833333335786,49,0.10105183333333656
17225,53.34691509166675,58,0.10105183333333656,81,0.6045480000000012
17226,53.44826309166675,51,0.10134800000000155,51,0.10134799999999444
17227,53.498937091666754,34,0.050674000000000774,38,0.15142966666665814
17228,53.54961109166675,54,0.05067399999999367,51,0.10075566666666447
17229,53.65036675833341,46,0.10075566666666447,52,0.15084083333334064
17230,53.751122425000084,51,0.10075566666667157,53,0.10017033333333103
17231,53.80120759166675,34,0.05008516666666907,38,0.1502555000000001
17232,53.851292758333415,54,0.05008516666666196,53,0.10017033333333814
17233,53.95146309166675,59,0.10017033333333814,84,0.5975499999999982
17234,54.05105475833342,51,0.09959166666666874,50,0.09959166666666164
17235,54.100850591666756,29,0.04979583333333437,34,0.149387499999996
17236,54.15064642500008,53,0.049795833333327266,49,0.09959166666666874
17237,54.25023809166675,44,0.09959166666666874,48,0.14938750000000312
17238,54.34982975833342,51,0.09959166666666874,47,0.09959166666666874
17239,54.399625591666755,29,0.04979583333333437,30,0.149387499999996
17240,54.44942142500009,53,0.04979583333333437,46,0.09959166666666164
17241,54.54901309166675,56,0.09959166666666164,75,0.613034958333337
17242,54.64918342500008,50,0.10017033333333103,44,0.10017033333333814
17243,54.69926859166675,29,0.05008516666666907,30,0.15040183333333346
17244,54.74935375833342,53,0.05008516666666907,42,0.10031666666666439
17245,54.849670425000085,44,0.10031666666666439,41,0.1017939583333316
17246,54.951464383333416,50,0.1017939583333316,40,0.10330825000000488
17247,55.05477263333342,53,0.10330825000000488,39,0.10727541666666696
17248,55.16204805000009,55,0.10727541666666696,64,0.6060183333333313
17249,55.26339605000009,46,0.10134800000000155,28,0.10134800000000155
17250,55.36474405000009,51,0.10134800000000155,28,0.10134799999999444
17251,55.466092050000086,43,0.10134799999999444,28,0.10075566666666447
17252,55.56684771666675,46,0.10075566666666447,29,0.10075566666667157
17253,55.66760338333342,51,0.10075566666667157,29,0.10046299999999775
17254,55.76806638333342,53,0.10046299999999775,58,0.5982166666666799
17255,55.86709588333342,47,0.09902950000000033,30,0.09902950000000033
17256,55.96612538333342,50,0.09902950000000033,30,0.10134800000000155
17257,56.06747338333342,41,0.10134800000000155,30,0.10046300000000485
17258,56.167936383333426,47,0.10046300000000485,31,0.09874675000000366
17259,56.26668313333343,50,0.09874675000000366,31,0.09959991666666923
17260,56.3662830500001,56,0.09959991666666923,61,0.6043038333333541
17261,56.4676310500001,47,0.10134800000000155,33,0.10046300000000485
17262,56.568094050000106,50,0.10046300000000485,31,0.09874675000000366
17263,56.66684080000011,44,0.09874675000000366,31,0.10046300000000485
17264,56.767303800000114,47,0.10046300000000485,31,0.10193683333333325
17265,56.86924063333345,50,0.10193683333333325,30,0.10134625000000597
17266,56.97058688333345,55,0.10134625000000597,57,0.651604583333345
17267,57.07105671666679,47,0.10046983333333515,29,0.10164241666667095
17268,57.17269913333346,50,0.10164241666667095,29,0.10284983333333031
17269,57.27554896666679,43,0.10284983333333031,29,0.10570466666666789
17270,57.38125363333346,47,0.10570466666666789,28,0.11481625000000406
17271,57.49606988333346,50,0.11481625000000406,28,0.12612158333333667
17272,57.6221914666668,55,0.12612158333333667,64,0.6060183333333313
17273,57.7235394666668,46,0.10134800000000155,29,0.10134800000000155
17274,57.8248874666668,51,0.10134800000000155,30,0.10134799999999444
17275,57.926235466666796,43,0.10134799999999444,31,0.10075566666666447
17276,58.02699113333346,46,0.10075566666666447,31,0.10075566666667157
17277,58.12774680000013,51,0.10075566666667157,33,0.10046299999999775
17278,58.22820980000013,53,0.10046299999999775,58,0.5982166666666799
17279,58.32723930000013,47,0.09902950000000033,34,0.09902950000000033
17280,58.42626880000013,50,0.09902950000000033,35,0.10134800000000155
17281,58.52761680000013,41,0.10134800000000155,36,0.10046300000000485
17282,58.62807980000014,47,0.10046300000000485,36,0.09874675000000366
17283,58.72682655000014,50,0.09874675000000366,37,0.09959991666666923
17284,58.82642646666681,56,0.09959991666666923,61,0.6043038333333541
17285,58.92777446666681,47,0.10134800000000155,37,0.10046300000000485
17286,59.028237466666816,50,0.10046300000000485,36,0.09874675000000366
17287,59.12698421666682,44,0.09874675000000366,36,0.10046300000000485
17288,59.227447216666825,47,0.10046300000000485,36,0.10193683333333325
17289,59.32938405000016,50,0.10193683333333325,34,0.10134625000000597
17290,59.430730300000164,55,0.10134625000000597,57,0.6367970833333416
17291,59.5312001333335,47,0.10046983333333515,33,0.10164241666667095
17292,59.63284255000017,50,0.10164241666667095,33,0.10284983333333031
17293,59.7356923833335,43,0.10284983333333031,31,0.10570466666666789
17294,59.84139705000017,47,0.10570466666666789,31,0.10764266666667055
17295,59.94903971666684,50,0.10764266666667055,31,0.11848766666666677
17296,60.067527383333505,55,0.11848766666666677,67,0.6060183333333313
17297,60.16887538333351,48,0.10134800000000155,29,0.10134800000000155
17298,60.27022338333351,52,0.10134800000000155,30,0.10134799999999444
17299,60.3715713833335,43,0.10134799999999444,31,0.10075566666666447
17300,60.47232705000017,48,0.10075566666666447,31,0.10075566666667157
17301,60.57308271666684,52,0.10075566666667157,33,0.10046299999999775
17302,60.67354571666684,53,0.10046299999999775,62,0.5982166666666799
17303,60.77257521666684,48,0.09902950000000033,34,0.09902950000000033
17304,60.87160471666684,50,0.09902950000000033,35,0.10134800000000155
17305,60.97295271666684,41,0.10134800000000155,36,0.10046300000000485
17306,61.073415716666844,48,0.10046300000000485,36,0.09874675000000366
17307,61.17216246666685,50,0.09874675000000366,37,0.09959991666666923
17308,61.27176238333352,57,0.09959991666666923,69,0.6043038333333541
17309,61.37311038333352,48,0.10134800000000155,37,0.10046300000000485
17310,61.47357338333352,50,0.10046300000000485,36,0.09874675000000366
17311,61.57232013333353,45,0.09874675000000366,36,0.10046300000000485
17312,61.67278313333353,48,0.10046300000000485,36,0.10193683333333325
17313,61.774719966666865,50,0.10193683333333325,34,0.10134625000000597
17314,61.87606621666687,55,0.10134625000000597,67,0.6162620833333392
17315,61.976536050000206,47,0.10046983333333515,33,0.10164241666667095
17316,62.07817846666688,53,0.10164241666667095,33,0.10284983333333031
17317,62.18102830000021,43,0.10284983333333031,31,0.10376666666666523
17318,62.28479496666687,47,0.10376666666666523,31,0.10376666666666523
17319,62.38856163333354,53,0.10376666666666523,31,0.10376666666667234
17320,62.49232830000021,55,0.10376666666667234,72,0.6060183333333313
17321,62.59367630000021,48,0.10134800000000155,36,0.10134800000000155
17322,62.69502430000021,52,0.10134800000000155,36,0.10134799999999444
17323,62.79637230000021,43,0.10134799999999444,38,0.10075566666666447
17324,62.89712796666687,48,0.10075566666666447,38,0.10075566666667157
17325,62.997883633333544,52,0.10075566666667157,39,0.10046299999999775
17326,63.09834663333354,60,0.10046299999999775,74,0.5982166666666799
17327,63.19737613333354,52,0.09902950000000033,40,0.09902950000000033
17328,63.29640563333354,55,0.09902950000000033,40,0.10134800000000155
17329,63.397753633333544,48,0.10134800000000155,42,0.10046300000000485
17330,63.49821663333355,52,0.10046300000000485,42,0.09874675000000366
17331,63.59696338333355,55,0.09874675000000366,44,0.09959991666666923
17332,63.69656330000022,62,0.09959991666666923,82,0.6043038333333328
17333,63.79791130000022,54,0.10134800000000155,45,0.10046300000000485
17334,63.89837430000023,57,0.10046300000000485,45,0.09874675000000366
17335,63.99712105000023,48,0.09874675000000366,46,0.10046299999999064
17336,64.09758405000022,54,0.10046299999999064,46,0.10193683333334036
17337,64.19952088333356,57,0.10193683333334036,48,0.10134624999999176
17338,64.30086713333355,63,0.10134624999999176,79,0.6017437499999971
17339,64.40133696666689,54,0.10046983333333515,49,0.10164241666666385
17340,64.50297938333355,57,0.10164241666666385,49,0.10254299999999716
17341,64.60552238333355,47,0.10254299999999716,50,0.09902950000000033
17342,64.70455188333355,54,0.09902950000000033,50,0.09902950000000033
17343,64.80358138333355,57,0.09902950000000033,52,0.09902950000000033
17344,64.90261088333355,63,0.09902950000000033,84,0.6060183333333384
17345,65.00395888333355,52,0.10134800000000155,52,0.10134800000000155
17346,65.10530688333355,56,0.10134800000000155,53,0.10134800000000155
17347,65.20665488333356,44,0.10134800000000155,53,0.10075566666667157
17348,65.30741055000023,52,0.10075566666667157,53,0.10075566666665736
17349,65.40816621666688,56,0.10075566666665736,55,0.10046300000000485
17350,65.50862921666689,61,0.10046300000000485,82,0.5982166666666586
17351,65.60765871666689,52,0.09902950000000033,57,0.09902950000000033
17352,65.70668821666689,56,0.09902950000000033,57,0.10134800000000155
17353,65.80803621666689,44,0.10134800000000155,58,0.10046299999999064
17354,65.90849921666688,52,0.10046299999999064,58,0.09874675000000366
17355,66.00724596666689,56,0.09874675000000366,59,0.09959991666666212
17356,66.10684588333355,64,0.09959991666666212,86,0.6043038333333186
17357,66.20819388333355,49,0.10134800000000155,59,0.10046299999999064
17358,66.30865688333354,52,0.10046299999999064,60,0.09874675000000366
17359,66.40740363333354,44,0.09874675000000366,60,0.10046299999999064
17360,66.50786663333353,49,0.10046299999999064,62,0.10193683333334036
17361,66.60980346666688,52,0.10193683333334036,62,0.10134624999999176
17362,66.71114971666687,56,0.10134624999999176,79,0.6259520833333454
17363,66.8116195500002,49,0.10046983333333515,53,0.10164241666666385
17364,66.91326196666687,52,0.10164241666666385,53,0.10284983333333741
17365,67.0161118000002,44,0.10284983333333741,53,0.10570466666666789
17366,67.12181646666687,49,0.10570466666666789,52,0.10764266666666344
17367,67.22945913333353,52,0.10764266666666344,53,0.10764266666667766
17368,67.33710180000021,61,0.10764266666667766,84,0.6060183333333384
17369,67.43844980000021,51,0.10134800000000155,52,0.10134800000000155
17370,67.53979780000022,54,0.10134800000000155,53,0.10134800000000155
17371,67.64114580000022,42,0.10134800000000155,53,0.10075566666667157
17372,67.74190146666689,51,0.10075566666667157,53,0.10075566666665736
17373,67.84265713333355,54,0.10075566666665736,55,0.10046300000000485
17374,67.94312013333355,59,0.10046300000000485,81,0.5982166666666586
17375,68.04214963333355,51,0.09902950000000033,57,0.09902950000000033
17376,68.14117913333355,54,0.09902950000000033,57,0.10134800000000155
17377,68.24252713333355,42,0.10134800000000155,58,0.10046299999999064
17378,68.34299013333354,51,0.10046299999999064,58,0.09874675000000366
17379,68.44173688333355,54,0.09874675000000366,59,0.09959991666666212
17380,68.54133680000021,63,0.09959991666666212,82,0.6043038333333186
17381,68.64268480000021,47,0.10134800000000155,59,0.10046299999999064
17382,68.7431478000002,51,0.10046299999999064,60,0.09874675000000366
17383,68.8418945500002,42,0.09874675000000366,60,0.10046299999999064
17384,68.9423575500002,47,0.10046299999999064,62,0.10193683333334036
17385,69.04429438333354,51,0.10193683333334036,62,0.10134624999999176
17386,69.14564063333353,54,0.10134624999999176,79,0.6259520833333454
17387,69.24611046666686,47,0.10046983333333515,57,0.10164241666666385
17388,69.34775288333353,51,0.10164241666666385,57,0.10284983333333741
17389,69.45060271666686,42,0.10284983333333741,57,0.10570466666666789
17390,69.55630738333353,47,0.10570466666666789,57,0.10764266666666344
17391,69.6639500500002,51,0.10764266666666344,57,0.10764266666667766
17392,69.77159271666687,54,0.10764266666667766,84,0.6060183333333384
17393,69.87294071666688,46,0.10134800000000155,52,0.10134800000000155
17394,69.97428871666688,49,0.10134800000000155,53,0.10134800000000155
17395,70.07563671666688,40,0.10134800000000155,53,0.10075566666667157
17396,70.17639238333355,46,0.10075566666667157,53,0.10075566666665736
17397,70.2771480500002,49,0.10075566666665736,55,0.10046300000000485
17398,70.37761105000021,55,0.10046300000000485,81,0.5982166666666586
17399,70.47664055000021,46,0.09902950000000033,57,0.09902950000000033
17400,70.57567005000021,49,0.09902950000000033,57,0.10134800000000155
17401,70.67701805000021,40,0.10134800000000155,58,0.10046299999999064
17402,70.7774810500002,46,0.10046299999999064,58,0.09874675000000366
17403,70.87622780000021,49,0.09874675000000366,59,0.09959991666666212
17404,70.97582771666687,56,0.09959991666666212,82,0.6043038333333186
17405,71.07717571666687,46,0.10134800000000155,59,0.10046299999999064
17406,71.17763871666686,49,0.10046299999999064,60,0.09874675000000366
17407,71.27638546666687,40,0.09874675000000366,60,0.10046299999999064
17408,71.37684846666686,46,0.10046299999999064,62,0.10193683333334036
17409,71.4787853000002,49,0.10193683333334036,62,0.10134624999999176
17410,71.58013155000019,54,0.10134624999999176,79,0.6259520833333454
17411,71.68060138333352,46,0.10046983333333515,57,0.10164241666666385
17412,71.78224380000019,49,0.10164241666666385,57,0.10284983333333741
17413,71.88509363333353,40,0.10284983333333741,57,0.10570466666666789
17414,71.9907983000002,46,0.10570466666666789,57,0.10764266666666344
17415,72.09844096666686,49,0.10764266666666344,57,0.10764266666667766
17416,72.20608363333353,52,0.10764266666667766,84,0.6060183333333384
17417,72.30743163333354,44,0.10134800000000155,50,0.10134800000000155
17418,72.35810563333354,32,0.050674000000000774,40,0.15202200000000232
17419,72.40877963333354,47,0.050674000000000774,50,0.10134800000000155
17420,72.51012763333354,40,0.10134800000000155,50,0.15113350000000025
17421,72.61088330000021,44,0.10075566666667157,50,0.10075566666665736
17422,72.66126113333354,32,0.05037783333332868,40,0.15084083333333353
17423,72.71163896666687,47,0.05037783333332868,50,0.10046300000000485
17424,72.81210196666687,51,0.10046300000000485,77,0.5982166666666586
17425,72.91113146666687,44,0.09902950000000033,49,0.09902950000000033
17426,72.96064621666687,32,0.04951475000000016,40,0.1508627500000017
17427,73.01016096666687,47,0.04951475000000016,49,0.10134800000000155
17428,73.11150896666688,39,0.10134800000000155,49,0.10046299999999064
17429,73.21197196666687,44,0.10046299999999064,49,0.09874675000000366
17430,73.31071871666687,47,0.09874675000000366,49,0.09959991666666212
17431,73.41031863333353,51,0.09959991666666212,75,0.6043038333333186
17432,73.51166663333353,42,0.10134800000000155,48,0.10046299999999064
17433,73.56204446666686,32,0.05037783333332868,39,0.14883191666666562
17434,73.61212963333352,44,0.05008516666666196,48,0.09874675000000366
17435,73.71087638333353,39,0.09874675000000366,48,0.15143141666665372
17436,73.81133938333352,42,0.10046299999999064,48,0.10193683333334036
17437,73.86230780000018,30,0.050968416666663074,39,0.15231466666666904
17438,73.91327621666686,44,0.050968416666677285,48,0.10134624999999176
17439,74.01462246666685,63,0.10134624999999176,82,0.6017437499999971
17440,74.11509230000019,54,0.10046983333333515,49,0.10164241666666385
17441,74.16576630000019,32,0.050674000000000774,44,0.15351141666666024
17442,74.21673471666685,56,0.050968416666663074,49,0.10254299999999716
17443,74.31927771666685,51,0.10254299999999716,50,0.09902950000000033
17444,74.41830721666685,54,0.09902950000000033,50,0.09902950000000033
17445,74.51733671666685,56,0.09902950000000033,52,0.09902950000000033
17446,74.61636621666685,63,0.09902950000000033,84,0.6060183333333384
17447,74.71771421666685,52,0.10134800000000155,52,0.10134800000000155
17448,74.81906221666685,56,0.10134800000000155,53,0.10134800000000155
17449,74.92041021666685,44,0.10134800000000155,53,0.10075566666667157
17450,75.02116588333352,52,0.10075566666667157,53,0.10075566666665736
17451,75.12192155000018,56,0.10075566666665736,55,0.10046300000000485
17452,75.22238455000019,61,0.10046300000000485,82,0.5982166666666586
17453,75.32141405000019,52,0.09902950000000033,57,0.09902950000000033
17454,75.42044355000019,56,0.09902950000000033,57,0.10134800000000155
17455,75.52179155000019,44,0.10134800000000155,58,0.10046299999999064
17456,75.62225455000018,52,0.10046299999999064,58,0.09874675000000366
17457,75.72100130000018,56,0.09874675000000366,59,0.09959991666666212
17458,75.82060121666684,64,0.09959991666666212,86,0.6043038333333186
17459,75.92194921666685,49,0.10134800000000155,57,0.10046299999999064
17460,76.02241221666684,52,0.10046299999999064,57,0.09874675000000366
17461,76.12115896666684,43,0.09874675000000366,55,0.10046299999999064
17462,76.22162196666683,49,0.10046299999999064,55,0.10193683333334036
17463,76.32355880000017,52,0.10193683333334036,55,0.10134624999999176
17464,76.42490505000016,55,0.10134624999999176,79,0.6259520833333454
17465,76.5253748833335,49,0.10046983333333515,53,0.10164241666666385
17466,76.62701730000016,52,0.10164241666666385,53,0.10284983333333741
17467,76.7298671333335,43,0.10284983333333741,53,0.10570466666666789
17468,76.83557180000017,49,0.10570466666666789,52,0.10764266666666344
17469,76.94321446666683,52,0.10764266666666344,53,0.10764266666667766
17470,77.05085713333351,61,0.10764266666667766,74,0.6060183333333384
17471,77.15220513333351,51,0.10134800000000155,52,0.10134800000000155
17472,77.25355313333351,54,0.10134800000000155,53,0.10134800000000155
17473,77.35490113333351,42,0.10134800000000155,53,0.10075566666667157
17474,77.45565680000018,51,0.10075566666667157,53,0.10075566666665736
17475,77.55641246666684,54,0.10075566666665736,55,0.10046300000000485
17476,77.65687546666685,59,0.10046300000000485,78,0.5982166666666586
17477,77.75590496666685,51,0.09902950000000033,52,0.09902950000000033
17478,77.85493446666685,54,0.09902950000000033,52,0.10134800000000155
17479,77.95628246666685,42,0.10134800000000155,53,0.10046299999999064
17480,78.05674546666684,51,0.10046299999999064,53,0.09874675000000366
17481,78.15549221666684,54,0.09874675000000366,53,0.09959991666666212
17482,78.2550921333335,63,0.09959991666666212,82,0.6043038333333186
17483,78.3564401333335,47,0.10134800000000155,55,0.10046299999999064
17484,78.4569031333335,51,0.10046299999999064,56,0.09874675000000366
17485,78.5556498833335,42,0.09874675000000366,56,0.10046299999999064
17486,78.65611288333349,47,0.10046299999999064,56,0.10193683333334036
17487,78.75804971666683,51,0.10193683333334036,57,0.10134624999999176
17488,78.85939596666682,54,0.10134624999999176,79,0.6144320833333268
17489,78.95986580000016,47,0.10046983333333515,58,0.10164241666666385
17490,79.06150821666682,51,0.10164241666666385,57,0.10284983333333741
17491,79.16435805000016,42,0.10284983333333741,57,0.10315666666666345
17492,79.26751471666682,47,0.10315666666666345,57,0.10315666666666345
17493,79.37067138333349,51,0.10315666666666345,57,0.10315666666666345
17494,79.47382805000015,54,0.10315666666666345,69,0.6048676666666779
17495,79.57431121666681,48,0.10048316666666324,40,0.10193683333334036
17496,79.62527963333349,36,0.050968416666677285,36,0.15231641666666462
17497,79.67624805000015,51,0.050968416666663074,41,0.10134800000000155
17498,79.77759605000016,42,0.10134800000000155,41,0.15113350000000025
17499,79.87835171666683,48,0.10075566666667157,42,0.10046299999999064
17500,79.92872955000016,36,0.05037783333332868,38,0.1499661666666725
17501,79.97881471666682,51,0.05008516666666196,42,0.09988100000001054
17502,80.07869571666683,56,0.09988100000001054,64,0.5899909166666646
17503,80.1782873833335,48,0.09959166666666874,45,0.09902950000000033
17504,80.2278021333335,36,0.04951475000000016,39,0.14797875000000715
17505,80.2773168833335,51,0.04951475000000016,45,0.09846400000000699
17506,80.3757808833335,42,0.09846400000000699,46,0.09818441666665478
17507,80.47396530000016,48,0.09818441666665478,46,0.0976331666666681
17508,80.57159846666683,51,0.0976331666666681,47,0.09708816666666564
17509,80.6686866333335,57,0.09708816666666564,73,0.5948164166666743
17510,80.76577480000017,48,0.09708816666667985,48,0.098184416666669
17511,80.81472721666684,36,0.0489524166666655,42,0.14826150000000382
17512,80.86395921666684,51,0.049232000000003495,49,0.09902950000000033
17513,80.96298871666684,42,0.09902950000000033,49,0.15025883333332501
17514,81.06286971666684,48,0.09988099999999633,50,0.10046299999999064
17515,81.11324755000017,36,0.05037783333332868,44,0.1502555000000001
17516,81.16333271666683,51,0.05008516666666196,51,0.10017033333333814
17517,81.26350305000017,56,0.10017033333333814,69,0.6098752500000018
17518,81.36425871666684,48,0.10075566666667157,48,0.10105183333332945
17519,81.41463655000017,36,0.05037783333332868,45,0.12161759999999333
17520,81.46531055000017,51,0.050674000000000774,47,0.10134800000000155
17521,81.56665855000017,42,0.10134800000000155,45,0.10193683333334036
17522,81.66859538333351,48,0.10193683333334036,44,0.10223991666666166
17523,81.77083530000017,51,0.10223991666666166,41,0.10254299999999716
17524,81.87337830000017,56,0.10254299999999716,78,0.6189326666666517
17525,81.97714496666684,49,0.10376666666667234,47,0.10376666666665812
17526,82.02902830000016,37,0.05188333333332196,40,0.15503999999999962
17527,82.0809116333335,52,0.05188333333333617,47,0.10315666666666345
17528,82.18406830000016,40,0.10315666666666345,48,0.15442816666666204
17529,82.28722496666683,49,0.10315666666666345,48,0.10254299999999716
17530,82.33849646666683,37,0.05127149999999858,42,0.15381449999999575
17531,82.38976796666682,52,0.05127149999999858,49,0.10254299999999716
17532,82.49231096666682,58,0.10254299999999716,79,0.6080809999999985
17533,82.59424780000016,49,0.10193683333334036,50,0.10193683333332615
17534,82.64521621666682,37,0.050968416666663074,45,0.15231641666666462
17535,82.69618463333349,52,0.050968416666663074,51,0.10134800000000155
17536,82.79753263333349,44,0.10134800000000155,51,0.10134800000000155
17537,82.89888063333349,49,0.10134800000000155,52,0.10075566666667157
17538,82.99963630000016,52,0.10075566666667157,52,0.10075566666665736
17539,83.10039196666682,59,0.10075566666665736,82,0.5975830000000002
17540,83.20056230000016,50,0.10017033333333814,53,0.10017033333332392
17541,83.25064746666682,38,0.05008516666666196,48,0.1496768333333307
17542,83.30073263333348,52,0.05008516666666196,55,0.09959166666666874
17543,83.40032430000015,44,0.09959166666666874,56,0.1491064166666689
17544,83.49991596666682,50,0.09959166666666874,56,0.09902950000000033
17545,83.54943071666682,38,0.04951475000000016,50,0.1485442500000005
17546,83.59894546666682,52,0.04951475000000016,57,0.09902950000000033
17547,83.69797496666682,58,0.09902950000000033,78,0.5944905833333394
17548,83.79587980000015,50,0.097904833333331,57,0.098184416666669
17549,83.84483221666682,38,0.0489524166666655,47,0.14797875000000715
17550,83.89406421666682,52,0.049232000000003495,55,0.09874675000000366
17551,83.99281096666682,44,0.09874675000000366,53,0.09931058333333453
17552,84.09212155000016,50,0.09931058333333453,52,0.09988099999999633
17553,84.19200255000015,52,0.09988099999999633,51,0.10046300000000485
17554,84.29246555000016,58,0.10046300000000485,85,0.6189326666666517
17555,84.39623221666683,51,0.10376666666667234,52,0.10376666666665812
17556,84.44811555000015,39,0.05188333333332196,44,0.15503999999999962
17557,84.49999888333349,54,0.05188333333333617,52,0.10315666666666345
17558,84.60315555000015,42,0.10315666666666345,52,0.15442816666666204
17559,84.70631221666682,51,0.10315666666666345,52,0.10254299999999716
17560,84.75758371666682,39,0.05127149999999858,48,0.15381449999999575
17561,84.80885521666681,54,0.05127149999999858,53,0.10254299999999716
17562,84.91139821666681,59,0.10254299999999716,89,0.6080809999999985
17563,85.01333505000015,51,0.10193683333334036,55,0.10193683333332615
17564,85.06430346666681,39,0.050968416666663074,50,0.15231641666666462
17565,85.11527188333348,54,0.050968416666663074,55,0.10134800000000155
17566,85.21661988333348,47,0.10134800000000155,56,0.10134800000000155
17567,85.31796788333348,51,0.10134800000000155,56,0.10075566666667157
17568,85.41872355000015,54,0.10075566666667157,56,0.10075566666665736
17569,85.51947921666681,60,0.10075566666665736,89,0.5975830000000002
17570,85.61964955000015,51,0.10017033333333814,58,0.10017033333332392
17571,85.66973471666681,39,0.05008516666666196,52,0.1496768333333307
17572,85.71981988333347,54,0.05008516666666196,59,0.09959166666666874
17573,85.81941155000014,48,0.09959166666666874,60,0.1491064166666689
17574,85.91900321666681,51,0.09959166666666874,60,0.09902950000000033
17575,85.96851796666681,39,0.04951475000000016,53,0.1485442500000005
17576,86.01803271666681,54,0.04951475000000016,61,0.09902950000000033
17577,86.11706221666681,69,0.09902950000000033,93,0.6017437499999971
17578,86.21753205000014,60,0.10046983333333515,58,0.10164241666666385
17579,86.31917446666681,63,0.10164241666666385,59,0.10254299999999716
17580,86.4217174666668,54,0.10254299999999716,59,0.09902950000000033
17581,86.5207469666668,60,0.09902950000000033,59,0.09902950000000033
17582,86.6197764666668,63,0.09902950000000033,60,0.09902950000000033
17583,86.7188059666668,68,0.09902950000000033,94,0.6060183333333384
17584,86.82015396666681,56,0.10134800000000155,58,0.10134800000000155
17585,86.92150196666681,59,0.10134800000000155,58,0.10134800000000155
17586,87.02284996666681,49,0.10134800000000155,58,0.10075566666667157
17587,87.12360563333348,56,0.10075566666667157,58,0.10075566666665736
17588,87.22436130000014,59,0.10075566666665736,58,0.10046300000000485
17589,87.32482430000015,61,0.10046300000000485,84,0.5982166666666586
17590,87.42385380000015,56,0.09902950000000033,58,0.09902950000000033
17591,87.52288330000015,59,0.09902950000000033,58,0.10134800000000155
17592,87.62423130000015,49,0.10134800000000155,58,0.10046299999999064
17593,87.72469430000014,56,0.10046299999999064,58,0.09874675000000366
17594,87.82344105000014,59,0.09874675000000366,58,0.09959991666666212
17595,87.9230409666668,64,0.09959991666666212,86,0.6043038333333186
17596,88.0243889666668,55,0.10134800000000155,60,0.10046299999999064
17597,88.1248519666668,59,0.10046299999999064,61,0.09874675000000366
17598,88.2235987166668,49,0.09874675000000366,61,0.10046299999999064
17599,88.32406171666679,55,0.10046299999999064,61,0.10193683333334036
17600,88.42599855000013,59,0.10193683333334036,61,0.10134624999999176
17601,88.52734480000012,58,0.10134624999999176,79,0.6259520833333454
17602,88.62781463333346,52,0.10046983333333515,58,0.10164241666666385
17603,88.72945705000012,54,0.10164241666666385,57,0.10284983333333741
17604,88.83230688333346,46,0.10284983333333741,56,0.10570466666666789
17605,88.93801155000013,52,0.10570466666666789,55,0.10764266666666344
17606,89.04565421666679,54,0.10764266666666344,55,0.10764266666667766
17607,89.15329688333347,59,0.10764266666667766,81,0.6060183333333384
17608,89.25464488333347,47,0.10134800000000155,44,0.10134800000000155
17609,89.35599288333347,51,0.10134800000000155,41,0.10134800000000155
17610,89.45734088333347,39,0.10134800000000155,40,0.10075566666667157
17611,89.55809655000014,35,0.10075566666667157,39,0.10075566666665736
17612,89.6588522166668,30,0.10075566666665736,39,0.10046300000000485
17613,89.7593152166668,54,0.10046300000000485,61,0.5982166666666586
17614,89.8583447166668,47,0.09902950000000033,33,0.09902950000000033
17615,89.9573742166668,51,0.09902950000000033,34,0.10134800000000155
17616,90.05872221666681,42,0.10134800000000155,34,0.10046299999999064
17617,90.1591852166668,47,0.10046299999999064,35,0.09874675000000366
17618,90.2579319666668,51,0.09874675000000366,35,0.09959991666666212
17619,90.35753188333346,54,0.09959991666666212,64,0.6043038333333186
17620,90.45887988333347,47,0.10134800000000155,36,0.10046299999999064
17621,90.55934288333346,51,0.10046299999999064,37,0.09874675000000366
17622,90.65808963333346,42,0.09874675000000366,37,0.10046299999999064
17623,90.75855263333345,47,0.10046299999999064,38,0.10193683333334036
17624,90.86048946666679,51,0.10193683333334036,38,0.10134624999999176
17625,90.96183571666678,54,0.10134624999999176,69,0.6144320833333268
17626,91.06230555000012,47,0.10046983333333515,39,0.10164241666666385
17627,91.16394796666678,51,0.10164241666666385,40,0.10284983333333741
17628,91.26679780000012,42,0.10284983333333741,40,0.10315666666666345
17629,91.36995446666678,47,0.10315666666666345,41,0.10315666666666345
17630,91.47311113333345,51,0.10315666666666345,41,0.10315666666666345
17631,91.57626780000011,56,0.10315666666666345,77,0.6060183333333384
17632,91.67761580000011,49,0.10134800000000155,47,0.10134800000000155
17633,91.77896380000011,52,0.10134800000000155,41,0.10134800000000155
17634,91.88031180000011,44,0.10134800000000155,41,0.10075566666667157
17635,91.98106746666679,34,0.10075566666667157,42,0.10075566666665736
17636,92.08182313333344,52,0.10075566666665736,44,0.10046300000000485
17637,92.18228613333345,54,0.10046300000000485,68,0.5982166666666586
17638,92.28131563333345,49,0.09902950000000033,44,0.09902950000000033
17639,92.38034513333345,52,0.09902950000000033,44,0.10134800000000155
17640,92.48169313333345,42,0.10134800000000155,44,0.10046299999999064
17641,92.58215613333344,49,0.10046299999999064,44,0.09874675000000366
17642,92.68090288333345,52,0.09874675000000366,44,0.09959991666666212
17643,92.78050280000011,63,0.09959991666666212,73,0.6043038333333186
17644,92.88185080000011,49,0.10134800000000155,44,0.10046299999999064
17645,92.9823138000001,52,0.10046299999999064,44,0.09874675000000366
17646,93.0810605500001,42,0.09874675000000366,44,0.10046299999999064
17647,93.1815235500001,49,0.10046299999999064,44,0.10193683333334036
17648,93.28346038333343,52,0.10193683333334036,44,0.10134624999999176
17649,93.38480663333343,58,0.10134624999999176,69,0.6259520833333454
17650,93.48527646666676,49,0.10046983333333515,42,0.10164241666666385
17651,93.58691888333342,52,0.10164241666666385,40,0.10284983333333741
17652,93.68976871666676,40,0.10284983333333741,41,0.10570466666666789
17653,93.79547338333343,34,0.10570466666666789,41,0.10764266666666344
17654,93.9031160500001,30,0.10764266666666344,41,0.10764266666667766
17655,94.01075871666677,59,0.10764266666667766,72,0.6060183333333384
17656,94.11210671666677,47,0.10134800000000155,36,0.10134800000000155
17657,94.21345471666677,51,0.10134800000000155,36,0.10134800000000155
17658,94.31480271666678,42,0.10134800000000155,36,0.10075566666667157
17659,94.41555838333345,35,0.10075566666667157,36,0.10075566666665736
17660,94.5163140500001,51,0.10075566666665736,37,0.10046300000000485
17661,94.61677705000011,54,0.10046300000000485,61,0.5982166666666586
17662,94.71580655000011,47,0.09902950000000033,33,0.09902950000000033
17663,94.81483605000011,51,0.09902950000000033,34,0.10134800000000155
17664,94.91618405000011,42,0.10134800000000155,34,0.10046299999999064
17665,95.0166470500001,47,0.10046299999999064,35,0.09874675000000366
17666,95.1153938000001,51,0.09874675000000366,35,0.09959991666666212
17667,95.21499371666677,54,0.09959991666666212,64,0.6043038333333186
17668,95.31634171666677,47,0.10134800000000155,36,0.10046299999999064
17669,95.41680471666676,51,0.10046299999999064,37,0.09874675000000366
17670,95.51555146666676,42,0.09874675000000366,37,0.10046299999999064
17671,95.61601446666675,47,0.10046299999999064,38,0.10193683333334036
17672,95.7179513000001,51,0.10193683333334036,38,0.10134624999999176
17673,95.81929755000009,54,0.10134624999999176,69,0.6144320833333268
17674,95.91976738333342,47,0.10046983333333515,39,0.10164241666666385
17675,96.02140980000009,51,0.10164241666666385,40,0.10284983333333741
17676,96.12425963333342,42,0.10284983333333741,40,0.10315666666666345
17677,96.22741630000009,47,0.10315666666666345,41,0.10315666666666345
17678,96.33057296666675,51,0.10315666666666345,41,0.10315666666666345
17679,96.43372963333341,56,0.10315666666666345,75,0.6060183333333384
17680,96.53507763333342,49,0.10134800000000155,44,0.10134800000000155
17681,96.63642563333342,52,0.10134800000000155,42,0.10134800000000155
17682,96.73777363333342,42,0.10134800000000155,42,0.10075566666667157
17683,96.83852930000009,49,0.10075566666667157,41,0.10075566666665736
17684,96.93928496666675,52,0.10075566666665736,40,0.10046300000000485
17685,97.03974796666675,54,0.10046300000000485,61,0.6196532499999989
17686,97.13877746666675,49,0.09902950000000033,39,0.09902950000000033
17687,97.23780696666675,52,0.09902950000000033,39,0.09902950000000033
17688,97.33683646666675,42,0.09902950000000033,38,0.1089918333333344
17689,97.44582830000009,49,0.1089918333333344,37,0.1089918333333344
17690,97.55482013333342,52,0.1089918333333344,37,0.10458108333332916
17691,97.65940121666675,68,0.10458108333332916,66,0.6043038333333186
17692,97.76074921666675,49,0.10134800000000155,31,0.10046299999999064
17693,97.86121221666674,52,0.10046299999999064,31,0.09874675000000366
17694,97.95995896666675,42,0.09874675000000366,31,0.10046299999999064
17695,98.06042196666674,49,0.10046299999999064,31,0.10193683333334036
17696,98.16235880000008,52,0.10193683333334036,31,0.10134624999999176
17697,98.26370505000007,58,0.10134624999999176,61,0.6259520833333454
17698,98.3641748833334,49,0.10046983333333515,34,0.10164241666666385
17699,98.46581730000007,52,0.10164241666666385,34,0.10284983333333741
17700,98.5686671333334,42,0.10284983333333741,34,0.10570466666666789
17701,98.67437180000007,49,0.10570466666666789,34,0.10764266666666344
17702,98.78201446666674,52,0.10764266666666344,34,0.10764266666667766
17703,98.88965713333342,59,0.10764266666667766,64,0.6060183333333384
17704,98.99100513333342,47,0.10134800000000155,35,0.10134800000000155
17705,99.09235313333342,51,0.10134800000000155,35,0.10134800000000155
17706,99.19370113333342,42,0.10134800000000155,35,0.10075566666667157
17707,99.29445680000009,47,0.10075566666667157,35,0.10075566666665736
17708,99.39521246666675,51,0.10075566666665736,34,0.10046300000000485
17709,99.49567546666675,54,0.10046300000000485,55,0.5982166666666586
17710,99.59470496666675,47,0.09902950000000033,34,0.09902950000000033
17711,99.69373446666675,51,0.09902950000000033,34,0.10134800000000155
17712,99.79508246666676,42,0.10134800000000155,34,0.10046299999999064
17713,99.89554546666675,47,0.10046299999999064,33,0.09874675000000366
17714,99.99429221666675,51,0.09874675000000366,33,0.09959991666666212
17715,100.09389213333341,56,0.09959991666666212,55,0.6043038333333186
17716,100.19524013333341,47,0.10134800000000155,33,0.10046299999999064
17717,100.2957031333334,51,0.10046299999999064,31,0.09874675000000366
17718,100.39444988333341,42,0.09874675000000366,31,0.10046299999999064
17719,100.4949128833334,47,0.10046299999999064,31,0.10193683333334036
17720,100.59684971666674,51,0.10193683333334036,31,0.10134624999999176
17721,100.69819596666673,54,0.10134624999999176,56,0.6144320833333268
17722,100.79866580000007,47,0.10046983333333515,33,0.10164241666666385
17723,100.90030821666673,51,0.10164241666666385,33,0.10284983333333741
17724,101.00315805000007,42,0.10284983333333741,33,0.10315666666666345
17725,101.10631471666673,47,0.10315666666666345,33,0.10315666666666345
17726,101.2094713833334,51,0.10315666666666345,33,0.10315666666666345
17727,101.31262805000006,52,0.10315666666666345,60,0.6060183333333384
17728,101.41397605000006,42,0.10134800000000155,34,0.10134800000000155
17729,101.51532405000006,47,0.10134800000000155,34,0.10134800000000155
17730,101.61667205000006,40,0.10134800000000155,34,0.10075566666667157
17731,101.71742771666673,42,0.10075566666667157,34,0.10075566666665736
17732,101.81818338333339,47,0.10075566666665736,34,0.10046300000000485
17733,101.9186463833334,51,0.10046300000000485,51,0.5982166666666586
17734,102.0176758833334,42,0.09902950000000033,33,0.09902950000000033
17735,102.1167053833334,47,0.09902950000000033,33,0.10134800000000155
17736,102.2180533833334,39,0.10134800000000155,33,0.10046299999999064
17737,102.31851638333339,42,0.10046299999999064,33,0.09874675000000366
17738,102.41726313333339,47,0.09874675000000366,33,0.09959991666666212
17739,102.51686305000005,52,0.09959991666666212,57,0.6043038333333186
17740,102.61821105000006,42,0.10134800000000155,31,0.10046299999999064
17741,102.71867405000005,47,0.10046299999999064,31,0.09874675000000366
17742,102.81742080000005,40,0.09874675000000366,30,0.10046299999999064
17743,102.91788380000004,42,0.10046299999999064,30,0.10193683333334036
17744,103.01982063333338,47,0.10193683333334036,30,0.10134624999999176
17745,103.12116688333337,51,0.10134624999999176,51,0.6144320833333268
17746,103.22163671666671,42,0.10046983333333515,29,0.10164241666666385
17747,103.32327913333337,47,0.10164241666666385,29,0.10284983333333741
17748,103.42612896666671,39,0.10284983333333741,29,0.10315666666666345
17749,103.52928563333337,42,0.10315666666666345,29,0.10315666666666345
17750,103.63244230000004,47,0.10315666666666345,29,0.10315666666666345
17751,103.7355989666667,49,0.10315666666666345,61,0.6060183333333384
17752,103.8369469666667,39,0.10134800000000155,29,0.10134800000000155
17753,103.9382949666667,42,0.10134800000000155,29,0.10134800000000155
17754,104.0396429666667,37,0.10134800000000155,29,0.10075566666667157
17755,104.14039863333338,39,0.10075566666667157,29,0.10075566666665736
17756,104.24115430000003,42,0.10075566666665736,29,0.10046300000000485
17757,104.34161730000004,47,0.10046300000000485,49,0.5982166666666586
17758,104.44064680000004,39,0.09902950000000033,29,0.09902950000000033
17759,104.53967630000004,42,0.09902950000000033,29,0.10134800000000155
17760,104.64102430000004,35,0.10134800000000155,29,0.10046299999999064
17761,104.74148730000003,39,0.10046299999999064,29,0.09874675000000366
17762,104.84023405000003,42,0.09874675000000366,29,0.09959991666666212
17763,104.9398339666667,49,0.09959991666666212,52,0.6043038333333186
17764,105.0411819666667,39,0.10134800000000155,28,0.10046299999999064
17765,105.14164496666669,42,0.10046299999999064,28,0.09874675000000366
17766,105.2403917166667,37,0.09874675000000366,28,0.10046299999999064
17767,105.34085471666668,39,0.10046299999999064,28,0.10193683333334036
17768,105.44279155000002,42,0.10193683333334036,28,0.10134624999999176
17769,105.54413780000002,47,0.10134624999999176,49,0.6144320833333268
17770,105.64460763333335,39,0.10046983333333515,28,0.10164241666666385
17771,105.74625005000001,42,0.10164241666666385,28,0.10284983333333741
17772,105.84909988333335,35,0.10284983333333741,28,0.10315666666666345
17773,105.95225655000002,39,0.10315666666666345,28,0.10315666666666345
17774,106.05541321666668,42,0.10315666666666345,27,0.10315666666666345
17775,106.15856988333334,49,0.10315666666666345,55,0.6060183333333384
17776,106.25991788333334,39,0.10134800000000155,29,0.10134800000000155
17777,106.36126588333335,42,0.10134800000000155,29,0.10134800000000155
17778,106.46261388333335,37,0.10134800000000155,29,0.10075566666667157
17779,106.56336955000002,39,0.10075566666667157,29,0.10075566666665736
17780,106.66412521666668,42,0.10075566666665736,29,0.10046300000000485
17781,106.76458821666668,47,0.10046300000000485,40,0.5982166666666586
17782,106.86361771666668,39,0.09902950000000033,28,0.09902950000000033
17783,106.96264721666668,42,0.09902950000000033,28,0.10134800000000155
17784,107.06399521666668,35,0.10134800000000155,28,0.10046299999999064
17785,107.16445821666667,39,0.10046299999999064,28,0.09874675000000366
17786,107.26320496666668,42,0.09874675000000366,28,0.09959991666666212
17787,107.36280488333334,49,0.09959991666666212,50,0.6043038333333186
17788,107.46415288333334,39,0.10134800000000155,27,0.10046299999999064
17789,107.56461588333333,42,0.10046299999999064,27,0.09874675000000366
17790,107.66336263333334,37,0.09874675000000366,27,0.10046299999999064
17791,107.76382563333333,39,0.10046299999999064,27,0.10193683333334036
17792,107.86576246666667,42,0.10193683333334036,26,0.10134624999999176
17793,107.96710871666666,47,0.10134624999999176,42,0.6144320833333268
17794,108.06757855,39,0.10046983333333515,26,0.10164241666666385
17795,108.16922096666666,42,0.10164241666666385,26,0.10284983333333741
17796,108.2720708,35,0.10284983333333741,26,0.10315666666666345
17797,108.37522746666666,39,0.10315666666666345,26,0.10315666666666345
17798,108.47838413333332,42,0.10315666666666345,27,0.10315666666666345
17799,108.58154079999998,11,0.10315666666666345,35,0.103461666666675
17800,108.68500246666666,27,0.103461666666675,28,0.10376666666665812
17801,108.78876913333332,30,0.10376666666665812,28,0.10376666666667234
17802,108.89253579999999,35,0.10376666666667234,29,0.10315666666666345
17803,108.99569246666665,39,0.10315666666666345,30,0.10315666666666345
17804,109.09884913333332,42,0.10315666666666345,30,0.10284983333333741
17805,109.20169896666665,47,0.10284983333333741,31,0.10254299999999716
17806,109.30424196666665,51,0.10254299999999716,33,0.10223991666666166
17807,109.40648188333331,54,0.10223991666666166,33,0.10193683333334036
17808,109.50841871666665,59,0.10193683333334036,34,0.10193683333332615
17809,109.61035554999998,63,0.10193683333332615,35,0.10134800000000155
17810,109.71170354999998,66,0.10134800000000155,36,0.10134800000000155
17811,109.81305154999998,71,0.10134800000000155,44,0.10254299999999716
17812,109.91559454999998,66,0.10254299999999716,36,0.10254299999999716
17813,110.01813754999998,63,0.10254299999999716,35,0.10254300000001138
17814,110.12068054999999,59,0.10254300000001138,34,0.10254299999999716
17815,110.22322354999999,54,0.10254299999999716,33,0.10254299999999716
17816,110.32576654999998,51,0.10254299999999716,31,0.10254299999999716
17817,110.42830954999998,47,0.10254299999999716,37,0.103461666666675
17818,110.53177121666666,51,0.103461666666675,31,0.103461666666675
17819,110.63523288333333,54,0.103461666666675,33,0.1028498333333232
17820,110.73808271666665,59,0.1028498333333232,34,0.10223991666666166
17821,110.84032263333332,63,0.10223991666666166,35,0.10164241666667806
17822,110.94196505,66,0.10164241666667806,36,0.10105183333332945
17823,111.04301688333332,71,0.10105183333332945,40,0.10017033333333814
17824,111.14318721666666,66,0.10017033333333814,35,0.10046299999999064
17825,111.24365021666665,63,0.10046299999999064,34,0.10075566666667157
17826,111.34440588333332,59,0.10075566666667157,33,0.10134800000000155
17827,111.44575388333332,54,0.10134800000000155,31,0.10164241666666385
17828,111.54739629999999,51,0.10164241666666385,30,0.10193683333334036
17829,111.64933313333333,47,0.10193683333334036,34,0.10254299999999716
17830,111.75187613333333,51,0.10254299999999716,29,0.10315666666666345
17831,111.85503279999999,54,0.10315666666666345,30,0.10315666666666345
17832,111.95818946666665,59,0.10315666666666345,31,0.10284983333333741
17833,112.06103929999999,63,0.10284983333333741,33,0.10254299999999716
17834,112.16358229999999,66,0.10254299999999716,35,0.10254299999999716
17835,112.26612529999998,71,0.10254299999999716,40,0.10193683333334036
17836,112.36806213333332,66,0.10193683333334036,35,0.10193683333332615
17837,112.46999896666665,63,0.10193683333332615,34,0.10164241666666385
17838,112.57164138333331,59,0.10164241666666385,33,0.10134800000000155
17839,112.67298938333332,54,0.10134800000000155,31,0.10134800000000155
17840,112.77433738333332,51,0.10134800000000155,31,0.10193683333334036
17841,112.87627421666666,47,0.10193683333334036,34,0.10193683333332615
17842,112.97821104999998,51,0.10193683333332615,28,0.10223991666666166
17843,113.08045096666665,54,0.10223991666666166,30,0.10254299999999716
17844,113.18299396666664,59,0.10254299999999716,31,0.10254299999999716
17845,113.28553696666664,63,0.10254299999999716,33,0.10315666666666345
17846,113.3886936333333,66,0.10315666666666345,34,0.10315666666666345
17847,113.49185029999997,71,0.10315666666666345,39,0.10376666666667234
17848,113.59561696666664,66,0.10376666666667234,33,0.10376666666665812
17849,113.6993836333333,63,0.10376666666665812,33,0.10376666666667234
17850,113.80315029999997,59,0.10376666666667234,33,0.10376666666665812
17851,113.90691696666663,54,0.10376666666665812,31,0.10284983333333741
17852,114.00976679999997,51,0.10284983333333741,31,0.10223991666666166
17853,114.11200671666663,35,0.10223991666666166,35,0.10134800000000155
17854,114.21335471666663,51,0.10134800000000155,34,0.10134800000000155
17855,114.31470271666663,59,0.10134800000000155,35,0.10134800000000155
17856,114.41605071666663,63,0.10134800000000155,38,0.10105183333332945
17857,114.51710254999996,59,0.10105183333332945,36,0.10223991666666166
17858,114.61934246666662,51,0.10223991666666166,35,0.10315666666666345
17859,114.72249913333329,47,0.10315666666666345,35,0.10284983333333741
17860,114.82534896666662,51,0.10284983333333741,34,0.10223991666666166
17861,114.92758888333329,59,0.10223991666666166,37,0.10134625000000597
17862,115.02893513333329,63,0.10134625000000597,39,0.10164241666666385
17863,115.13057754999996,59,0.10164241666666385,38,0.10284983333333741
17864,115.2334273833333,51,0.10284983333333741,37,0.10439883333333455
17865,115.33782621666663,47,0.10439883333333455,37,0.10376666666667234
17866,115.4415928833333,51,0.10376666666667234,38,0.10284983333333741
17867,115.54444271666664,59,0.10284983333333741,41,0.10254299999999716
17868,115.64698571666663,63,0.10254299999999716,42,0.103461666666675
17869,115.75044738333331,59,0.103461666666675,42,0.10471300000000383
17870,115.85516038333331,51,0.10471300000000383,39,0.10598933333332639
17871,115.96114971666664,47,0.10598933333332639,39,0.10697483333333935
17872,116.06812454999998,51,0.10697483333333935,41,0.1063151666666613
17873,116.17443971666664,59,0.1063151666666613,42,0.10566350000000568
17874,116.28010321666665,63,0.10566350000000568,44,0.10471300000000383
17875,116.38481621666665,59,0.10471300000000383,40,0.10697891666666237
17876,116.49179513333331,51,0.10697891666666237,38,0.10797491666666303
17877,116.59977004999998,47,0.10797491666666303,37,0.10764266666666344
17878,116.70741271666664,51,0.10764266666666344,35,0.10697483333333935
17879,116.81438754999998,59,0.10697483333333935,37,0.1063151666666613
17880,116.92070271666664,63,0.1063151666666613,38,0.10598933333332639
17881,117.02669204999997,59,0.10598933333332639,35,0.1073087500000014
17882,117.13400079999997,51,0.1073087500000014,34,0.10864949999999851
17883,117.24265029999997,47,0.10864949999999851,33,0.11037533333333727
17884,117.3530256333333,51,0.11037533333333727,33,0.10968516666666517
17885,117.46271079999997,59,0.10968516666666517,34,0.1089918333333344
17886,117.5717026333333,63,0.1089918333333344,34,0.10697483333333935
17887,117.67867746666664,59,0.10697483333333935,33,0.10797491666666303
17888,117.7866523833333,51,0.10797491666666303,29,0.10864949999999851
17889,117.8953018833333,47,0.10864949999999851,29,0.11037533333333727
17890,118.00567721666664,51,0.11037533333333727,29,0.11003025000000832
17891,118.11570746666665,59,0.11003025000000832,30,0.10968516666666517
17892,118.22539263333331,63,0.10968516666666517,31,0.11264900000000466
17893,118.33804163333332,59,0.11264900000000466,30,0.11870691666666744
17894,118.45674854999999,51,0.11870691666666744,29,0.12248016666666217
17895,118.57922871666665,47,0.12248016666666217,39,0.371333000000007
17896,119.32189471666665,59,0.7426659999999998,41,0.371333000000007
17897,120.45929771666665,17,1.1374030000000062,26,0.20432619166665233
17898,120.6636239083333,18,0.20432619166665233,31,0.16647807500000056
17899,120.8884412333333,18,0.2248173249999894,33,1.013937541666678
17900,120.9753977333333,20,0.08695649999999944,27,0.08591218333333472
17901,121.06130991666663,18,0.08591218333333472,33,0.08518035000000168
17902,121.14649026666663,20,0.08518035000000168,27,0.08424723333332906
17903,121.23073749999996,18,0.08424723333332906,33,0.08354340833334106
17904,121.3142809083333,20,0.08354340833334106,27,0.0823737000000051
17905,121.39665460833331,18,0.0823737000000051,30,0.08223821666666709
17906,121.47889282499997,20,0.08223821666666709,24,0.0831267333333301
17907,121.5620195583333,18,0.0831267333333301,30,0.08431844999999782
17908,121.6463380083333,20,0.08431844999999782,26,0.0852527833333312
17909,121.73159079166663,18,0.0852527833333312,30,0.08650674999999808
17910,121.81809754166663,20,0.08650674999999808,26,0.0842812333333427
17911,121.90237877499997,11,0.0842812333333427,28,3.872628999999961
17912,122.1313953583333,23,0.2290165833333191,31,3.6436124166666417
17913,122.35308894166663,30,0.22169358333333378,35,3.421918833333308
17914,122.56943752499996,39,0.2163485833333283,33,3.2055702499999796
17915,122.79979977499994,47,0.23036224999998467,37,2.975207999999995
17916,1.0,57,0.0,55,0.75
17917,1.5,26,0.5,50,0.5
17918,1.75,62,0.25,50,0.25
17919,2.0,58,0.25,50,0.507101
17920,2.069124375,60,0.0691243749999999,50,0.0691243749999999
17921,2.13824875,58,0.0691243749999999,57,0.3688522500000002
17922,2.507101,57,0.3688522500000002,53,0.4890439999999998
17923,2.746145,55,0.2390439999999998,50,0.25
17924,2.996145,57,0.25,55,0.5022728333333335
17925,3.2484178333333333,50,0.2522728333333335,50,1.2499999999999996
17926,3.4984178333333333,41,0.25,31,0.5
17927,3.9984178333333333,41,0.5,31,0.49999999999999956
17928,4.498417833333333,52,0.49999999999999956,58,0.5
17929,4.748417833333333,55,0.25,50,0.25
17930,4.998417833333333,53,0.25,50,0.5060407500000004
17931,5.0685113333333325,55,0.07009349999999959,50,0.07009350000000047
17932,5.138604833333333,53,0.07009350000000047,57,0.3658537500000003
17933,5.504458583333333,52,0.3658537500000003,53,0.4890439999999998
17934,5.993502583333333,53,0.4890439999999998,55,0.5022728333333335
17935,6.245775416666667,50,0.2522728333333335,50,1.241803
17936,6.495775416666667,41,0.25,31,0.491803
17937,6.987578416666667,41,0.491803,31,0.5
17938,7.487578416666667,52,0.5,58,0.5
17939,7.737578416666667,50,0.25,50,0.25
17940,7.987578416666667,48,0.25,46,0.5136885000000007
17941,8.060749166666666,50,0.07317074999999917,47,0.07317075000000095
17942,8.133919916666667,48,0.07317075000000095,55,0.36734700000000053
17943,8.501266916666667,47,0.36734700000000053,53,0.4890439999999998
17944,8.990310916666667,48,0.4890439999999998,55,0.5022728333333326
17945,9.24258375,52,0.2522728333333326,50,0.5
17946,9.49258375,36,0.25,37,0.5
17947,9.99258375,40,0.5,68,0.7200000000000006
17948,10.71258375,38,0.7200000000000006,60,0.24820524999999982
17949,10.960789,36,0.24820524999999982,57,0.058823500000000806
17950,11.019612500000001,38,0.058823500000000806,57,0.05882349999999903
17951,11.078436,36,0.05882349999999903,68,0.3529409999999995
17952,11.431377,35,0.3529409999999995,67,0.48583
17953,11.917207,36,0.48583,71,0.4633199999999995
17954,12.380526999999999,40,0.4633199999999995,67,0.9433220000000002
17955,13.323849,38,0.9433220000000002,71,1.4053579999999979
17956,13.795509999999998,36,0.4716609999999992,68,0.46203599999999945
17957,14.257545999999998,40,0.46203599999999945,68,0.4716609999999992
17958,14.729206999999997,38,0.4716609999999992,63,1.4120037499999984
17959,14.795637499999996,40,0.06643049999999917,63,0.06643050000000095
17960,14.862067999999997,38,0.06643050000000095,73,0.11194024999999996
17961,14.974008249999997,36,0.11194024999999996,66,0.22388049999999993
17962,15.197888749999997,40,0.22388049999999993,72,0.4716609999999992
17963,15.669549749999996,40,0.4716609999999992,68,0.4716609999999992
17964,16.141210749999995,38,0.4716609999999992,61,1.4030157500000016
17965,16.207330874999997,40,0.0661201250000012,61,0.06612012499999764
17966,16.273450999999994,38,0.06612012499999764,72,0.3370785000000005
17967,16.610529499999995,37,0.3370785000000005,72,0.4620360000000012
17968,17.072565499999996,40,0.4620360000000012,68,0.471661000000001
17969,17.544226499999997,38,0.471661000000001,62,0.47596150000000037
17970,17.610346625,40,0.0661201250000012,63,0.06612012499999764
17971,17.676466749999996,38,0.06612012499999764,73,0.1145737500000017
17972,17.791040499999998,37,0.1145737500000017,66,0.7008085000000008
17973,18.020187999999997,45,0.22914749999999984,72,0.971661000000001
17974,18.491849,57,0.471661000000001,58,0.75
17975,18.991849,26,0.5,50,0.5
17976,19.241849,62,0.25,50,0.25
17977,19.491849,58,0.25,50,0.5071009999999987
17978,19.560973375,60,0.06912437500000124,50,0.06912437499999768
17979,19.630097749999997,58,0.06912437499999768,57,0.36885224999999977
17980,19.998949999999997,57,0.36885224999999977,53,0.4890439999999998
17981,20.237993999999997,55,0.2390439999999998,50,0.25
17982,20.487993999999997,57,0.25,55,0.5022728333333326
17983,20.74026683333333,50,0.2522728333333326,50,1.25
17984,20.99026683333333,41,0.25,31,0.5
17985,21.49026683333333,41,0.5,31,0.5
17986,21.99026683333333,52,0.5,58,0.5
17987,22.24026683333333,55,0.25,50,0.25
17988,22.49026683333333,53,0.25,50,0.5060407500000004
17989,22.56036033333333,55,0.0700934999999987,50,0.07009350000000225
17990,22.63045383333333,53,0.07009350000000225,57,0.3658537499999994
17991,22.99630758333333,52,0.3658537499999994,53,0.4890439999999998
17992,23.48535158333333,53,0.4890439999999998,55,0.5022728333333326
17993,23.737624416666662,50,0.2522728333333326,50,0.75
17994,23.987624416666662,41,0.25,31,0.5
17995,24.487624416666662,29,0.5,66,0.7086615000000016
17996,24.960065416666662,44,0.4724409999999999,43,0.4724409999999999
17997,25.196285916666664,34,0.23622050000000172,58,0.23622049999999817
17998,25.432506416666662,31,0.23622049999999817,65,0.4332129999999985
17999,25.576910749999996,32,0.14440433333333402,57,0.14440433333333402
18000,25.72131508333333,31,0.14440433333333402,55,0.14440433333333047
18001,25.86571941666666,29,0.14440433333333047,63,0.4724409999999999
18002,26.101939916666662,27,0.23622050000000172,57,0.23622049999999817
18003,26.33816041666666,29,0.23622049999999817,64,0.476189999999999
18004,26.69530291666666,22,0.35714249999999836,55,0.11904750000000064
18005,26.81435041666666,29,0.11904750000000064,64,0.47619000000000256
18006,27.290540416666662,27,0.47619000000000256,59,0.476189999999999
18007,27.76673041666666,29,0.476189999999999,66,0.4724409999999999
18008,28.002950916666663,34,0.23622050000000172,58,0.23622049999999817
18009,28.23917141666666,31,0.23622049999999817,65,0.4332129999999985
18010,28.383575749999995,32,0.14440433333333402,57,0.14440433333333402
18011,28.52798008333333,31,0.14440433333333402,55,0.14440433333333047
18012,28.67238441666666,29,0.14440433333333047,63,0.4724409999999999
18013,28.90860491666666,27,0.23622050000000172,57,0.23622049999999817
18014,29.14482541666666,29,0.23622049999999817,64,0.476189999999999
18015,29.501967916666658,22,0.35714249999999836,54,0.11904750000000064
18016,29.62101541666666,29,0.11904750000000064,62,0.47619000000000256
18017,30.09720541666666,27,0.47619000000000256,56,0.476189999999999
18018,30.57339541666666,29,0.476189999999999,60,0.45282999999999873
18019,30.91301791666666,22,0.3396225000000008,51,0.11320749999999791
18020,31.02622541666666,27,0.11320749999999791,58,0.4878050000000016
18021,31.51403041666666,29,0.4878050000000016,57,0.46692600000000084
18022,31.86422491666666,22,0.35019450000000063,48,0.11673150000000021
18023,31.98095641666666,27,0.11673150000000021,56,0.49382699999999957
18024,32.47478341666666,29,0.49382699999999957,55,0.47058799999999934
18025,32.82772441666666,22,0.3529410000000013,46,0.11764699999999806
18026,32.94537141666666,27,0.11764699999999806,53,0.5020919999999975
18027,33.44746341666666,22,0.5020919999999975,52,1.5062759999999997
18028,34.95373941666666,21,1.5062759999999997,48,1.5062759999999997
18029,36.46001541666666,57,1.5062759999999997,55,0.5
18030,36.71001541666666,62,0.25,50,0.25
18031,36.96001541666666,58,0.25,50,0.5071010000000058
18032,37.02913979166666,60,0.06912437500000124,50,0.06912437500000124
18033,37.09826416666666,58,0.06912437500000124,57,0.3688522500000033
18034,37.46711641666666,57,0.3688522500000033,53,0.4890439999999998
18035,37.70616041666666,55,0.2390439999999998,50,0.25
18036,37.95616041666666,57,0.25,55,0.5022728333333362
18037,38.20843325,50,0.25227283333333617,50,1.25
18038,38.45843325,41,0.25,31,0.5
18039,38.95843325,41,0.5,31,0.5
18040,39.45843325,52,0.5,58,0.5
18041,39.70843325,55,0.25,50,0.25
18042,39.95843325,53,0.25,50,0.5060407499999968
18043,40.02852675,55,0.0700934999999987,50,0.0700934999999987
18044,40.098620249999996,53,0.0700934999999987,57,0.3658537499999994
18045,40.464473999999996,52,0.3658537499999994,53,0.4890439999999998
18046,40.953517999999995,53,0.4890439999999998,55,0.5022728333333362
18047,41.20579083333333,50,0.25227283333333617,50,1.2376539999999991
18048,41.45579083333333,41,0.25,31,0.4938270000000031
18049,41.949617833333335,41,0.4938270000000031,31,0.493826999999996
18050,42.44344483333333,52,0.493826999999996,58,0.5
18051,42.69344483333333,50,0.25,50,0.25
18052,42.94344483333333,48,0.25,46,0.5136885000000007
18053,43.01661558333333,50,0.07317075000000273,47,0.07317074999999562
18054,43.08978633333333,48,0.07317074999999562,55,0.3673470000000023
18055,43.45713333333333,47,0.3673470000000023,53,0.4890439999999998
18056,43.94617733333333,48,0.4890439999999998,55,0.5022728333333362
18057,44.19845016666667,52,0.25227283333333617,50,0.5
18058,44.44845016666667,36,0.25,37,0.5
18059,44.94845016666667,40,0.5,68,0.7228920000000016
18060,45.67134216666667,38,0.7228920000000016,60,0.24814149999999557
18061,45.919483666666665,36,0.24814149999999557,57,0.0581395000000029
18062,45.97762316666667,38,0.0581395000000029,57,0.05813949999999579
18063,46.03576266666666,36,0.05813949999999579,68,0.3488370000000032
18064,46.38459966666667,35,0.3488370000000032,67,0.48583
18065,46.870429666666666,36,0.48583,71,0.46511600000000186
18066,47.33554566666667,40,0.46511600000000186,67,0.9450300000000027
18067,48.28057566666667,38,0.9450300000000027,71,1.4079219999999921
18068,48.753090666666665,36,0.47251499999999425,68,0.46289199999999653
18069,49.21598266666666,40,0.46289199999999653,68,0.47251500000000135
18070,49.68849766666666,38,0.47251500000000135,63,1.4152169999999984
18071,49.755051916666666,40,0.06655425000000292,63,0.06655424999999582
18072,49.82160616666666,38,0.06655424999999582,73,0.11235949999999661
18073,49.93396566666666,36,0.11235949999999661,66,0.22471900000000034
18074,50.15868466666666,40,0.22471900000000034,72,0.47251500000000135
18075,50.63119966666666,40,0.47251500000000135,68,0.47251500000000135
18076,51.10371466666666,38,0.47251500000000135,61,1.4037132500000027
18077,51.16995741666666,40,0.06624275000000068,61,0.06624275000000068
18078,51.23620016666666,38,0.06624275000000068,72,0.33582075000000344
18079,51.572020916666666,37,0.33582075000000344,72,0.46289199999999653
18080,52.03491291666666,40,0.46289199999999653,68,0.47251500000000135
18081,52.507427916666664,38,0.47251500000000135,62,0.47683825000000013
18082,52.573670666666665,40,0.06624275000000068,63,0.06624275000000068
18083,52.639913416666666,38,0.06624275000000068,73,0.11478424999999959
18084,52.754697666666665,37,0.11478424999999959,66,0.7020835000000005
18085,52.984266166666664,45,0.22956849999999918,72,0.9725150000000014
18086,53.456781166666666,57,0.47251500000000135,58,0.75
18087,53.956781166666666,26,0.5,50,0.5
18088,54.206781166666666,62,0.25,50,0.25
18089,54.456781166666666,58,0.25,50,0.5071010000000058
18090,54.52590554166667,60,0.06912437500000124,50,0.06912437500000124
18091,54.59502991666667,58,0.06912437500000124,57,0.3688522500000033
18092,54.96388216666667,57,0.3688522500000033,53,0.4890439999999998
18093,55.20292616666667,55,0.2390439999999998,50,0.25
18094,55.45292616666667,57,0.25,55,0.5022728333333362
18095,55.70519900000001,50,0.25227283333333617,50,1.2378050000000016
18096,55.95519900000001,41,0.25,31,0.4878050000000016
18097,56.44300400000001,41,0.4878050000000016,31,0.5
18098,56.94300400000001,52,0.5,58,0.5
18099,57.19300400000001,55,0.25,50,0.25
18100,57.44300400000001,53,0.25,50,0.5060407499999968
18101,57.51309750000001,55,0.0700934999999987,50,0.0700934999999987
18102,57.58319100000001,53,0.0700934999999987,57,0.3658537499999994
18103,57.949044750000006,52,0.3658537499999994,53,0.4890439999999998
18104,58.438088750000006,53,0.4890439999999998,55,0.5022728333333362
18105,58.69036158333334,50,0.25227283333333617,50,0.75
18106,58.94036158333334,41,0.25,31,0.5
18107,59.44036158333334,29,0.5,66,0.7086614999999981
18108,59.912802583333345,44,0.47244100000000344,43,0.47244099999999634
18109,60.14902308333334,34,0.23622049999999462,58,0.23622050000000172
18110,60.38524358333334,31,0.23622050000000172,65,0.43321300000000207
18111,60.529647916666676,32,0.14440433333333402,57,0.14440433333333402
18112,60.67405225000001,31,0.14440433333333402,55,0.14440433333333402
18113,60.818456583333344,29,0.14440433333333402,63,0.47244100000000344
18114,61.054677083333345,27,0.23622050000000172,57,0.23622050000000172
18115,61.29089758333335,29,0.23622050000000172,64,0.47619000000000256
18116,61.64804008333335,22,0.3571425000000019,55,0.11904750000000064
18117,61.76708758333335,29,0.11904750000000064,64,0.47618999999999545
18118,62.243277583333345,27,0.47618999999999545,59,0.47619000000000256
18119,62.71946758333335,29,0.47619000000000256,66,0.47244100000000344
18120,62.95568808333335,34,0.23622050000000172,58,0.23622050000000172
18121,63.19190858333335,31,0.23622050000000172,65,0.43321300000000207
18122,63.336312916666685,32,0.14440433333333402,57,0.14440433333333402
18123,63.48071725000002,31,0.14440433333333402,55,0.14440433333333402
18124,63.62512158333335,29,0.14440433333333402,63,0.47244100000000344
18125,63.861342083333355,27,0.23622050000000172,57,0.23622050000000172
18126,64.09756258333336,29,0.23622050000000172,64,0.47619000000000256
18127,64.45470508333335,22,0.3571424999999948,54,0.11904750000000774
18128,64.57375258333336,29,0.11904750000000774,62,0.47619000000000256
18129,65.04994258333336,27,0.47619000000000256,56,0.47618999999998834
18130,65.52613258333335,29,0.47618999999998834,60,0.45283000000000584
18131,65.86575508333335,22,0.3396225000000044,51,0.11320750000000146
18132,65.97896258333336,27,0.11320750000000146,58,0.4878049999999945
18133,66.46676758333335,29,0.4878049999999945,57,0.46692600000000084
18134,66.81696208333335,22,0.35019450000000063,48,0.11673150000000021
18135,66.93369358333335,27,0.11673150000000021,56,0.493826999999996
18136,67.42752058333335,29,0.493826999999996,55,0.47058800000000645
18137,67.78046158333335,22,0.3529410000000013,46,0.11764700000000516
18138,67.89810858333335,27,0.11764700000000516,53,0.5020920000000046
18139,68.40020058333336,34,0.5020920000000046,52,1.5062759999999997
18140,69.90647658333336,21,1.5062759999999997,60,1.0300419999999946
18141,70.93651858333335,20,1.0300419999999946,66,0.5825240000000065
18142,71.51904258333336,13,0.5825240000000065,74,0.20000000000000284
18143,71.91904258333336,53,0.4000000000000057,80,0.37735800000000097
18144,72.29640058333337,54,0.37735800000000097,80,0.37735800000000097
18145,72.67375858333337,57,0.37735800000000097,86,0.1807230000000004
18146,72.94484308333337,56,0.2710845000000006,80,0.34839629166665986
18147,73.03084887500003,44,0.08600579166666478,68,0.73446899999999
18148,73.29323937500003,56,0.2623904999999951,80,0.3759247499999958
18149,73.38070287500003,49,0.08746349999999836,80,0.3846149999999966
18150,73.76531787500002,61,0.3846149999999966,85,0.1923074999999983
18151,74.14993287500002,53,0.3846149999999966,80,0.37735800000000097
18152,74.52729087500002,54,0.37735800000000097,80,0.37735800000000097
18153,74.90464887500002,57,0.37735800000000097,86,0.1807230000000004
18154,75.17573337500002,56,0.2710845000000006,80,0.3498895000000033
18155,75.26169337500002,44,0.08596000000000004,68,0.7365209999999962
18156,75.52562287500002,56,0.26392950000000326,80,0.3764377499999938
18157,75.61359937500002,49,0.08797649999999635,80,0.3846149999999966
18158,75.99821437500002,13,0.3846149999999966,79,0.20000000000000284
18159,76.39821437500002,53,0.4000000000000057,80,0.37735800000000097
18160,76.77557237500002,54,0.37735800000000097,80,0.37735800000000097
18161,77.15293037500003,57,0.37735800000000097,86,0.1807230000000004
18162,77.42401487500003,56,0.2710845000000006,80,0.34658374999999353
18163,77.50972912500002,44,0.08571424999999522,68,0.7324409999999943
18164,77.77059862500002,56,0.2608694999999983,80,0.3754177499999969
18165,77.85755512500002,49,0.08695649999999944,80,0.3846149999999966
18166,78.24217012500002,73,0.3846149999999966,85,0.1923074999999983
18167,78.62678512500001,53,0.3846149999999966,80,0.37735800000000097
18168,79.00414312500001,54,0.37735800000000097,80,0.37735800000000097
18169,79.38150112500001,57,0.37735800000000097,86,0.1807230000000004
18170,79.65258562500001,56,0.2710845000000006,80,0.3485974999999968
18171,79.73879262500002,44,0.0862070000000017,68,0.73446899999999
18172,80.00118312500001,56,0.2623904999999951,80,0.3759247499999958
18173,80.08864662500001,49,0.08746349999999836,80,0.3846149999999966
18174,80.473261625,18,0.3846149999999966,81,0.20000000000000284
18175,80.87326162500001,58,0.4000000000000057,80,0.37735800000000097
18176,81.25061962500001,59,0.37735800000000097,80,0.37735800000000097
18177,81.62797762500001,62,0.37735800000000097,88,0.1807230000000004
18178,81.89906212500001,61,0.2710845000000006,88,0.35351925000000506
18179,81.98942362500001,46,0.0903615000000002,68,0.350876999999997
18180,82.25258137500002,61,0.26315775000000485,88,0.3761804999999896
18181,82.34030062500001,54,0.08771924999999214,80,0.3846149999999966
18182,82.72491562500001,78,0.3846149999999966,93,0.1923074999999983
18183,83.109530625,58,0.3846149999999966,80,0.37735800000000097
18184,83.486888625,59,0.37735800000000097,80,0.37735800000000097
18185,83.864246625,62,0.37735800000000097,87,0.18691599999999653
18186,84.144620625,61,0.2803739999999948,88,0.36618500000000154
18187,84.238078625,49,0.09345799999999826,68,0.3636359999999996
18188,84.510805625,61,0.2727270000000033,88,0.3793702499999938
18189,84.601714625,55,0.09090899999999635,80,1.525361999999987
18190,84.986329625,18,0.3846149999999966,73,0.1923074999999983
18191,85.37094462499999,58,0.3846149999999966,80,0.3715169999999972
18192,85.74246162499999,59,0.3715169999999972,77,0.3846149999999966
18193,86.12707662499999,58,0.3846149999999966,77,2.3379457499999887
18194,86.50504029166666,57,0.37796366666667325,74,1.5685637499999814
18195,86.89059795833332,56,0.3855576666666565,71,0.3934560833333336
18196,87.28405404166665,55,0.3934560833333336,69,1.1809683333333254
18197,87.68272504166664,33,0.3986709999999931,59,0.3420191249999931
18198,88.02474416666664,36,0.3420191249999931,60,0.048859875000005104
18199,88.07360404166664,34,0.048859875000005104,68,0.3914183333333341
18200,88.46502237499998,33,0.3914183333333341,62,0.4046589166666763
18201,88.86968129166665,28,0.4046589166666763,55,0.42024949999999706
18202,89.28993079166665,29,0.42024949999999706,54,0.4370898333333457
18203,89.727020625,57,0.4370898333333457,55,0.5
18204,89.977020625,62,0.25,50,0.25
18205,90.227020625,58,0.25,50,0.5071010000000058
18206,90.296145,60,0.06912437500000124,50,0.06912437500000124
18207,90.365269375,58,0.06912437500000124,57,0.3688522500000033
18208,90.734121625,57,0.3688522500000033,53,0.4890440000000069
18209,90.97316562500001,55,0.23904400000000692,50,0.25
18210,91.22316562500001,57,0.25,55,0.5022728333333362
18211,91.47543845833334,50,0.25227283333333617,50,1.215361999999999
18212,91.72543845833334,41,0.25,31,0.4834340000000026
18213,92.20887245833335,41,0.4834340000000026,31,0.48192799999999636
18214,92.69080045833334,52,0.48192799999999636,58,0.5
18215,92.94080045833334,55,0.25,50,0.25
18216,93.19080045833334,53,0.25,50,0.5060407499999968
18217,93.26089395833334,55,0.0700934999999987,50,0.0700934999999987
18218,93.33098745833334,53,0.0700934999999987,57,0.3658537499999994
18219,93.69684120833334,52,0.3658537499999994,53,0.4890440000000069
18220,94.18588520833335,53,0.4890440000000069,55,0.5022728333333362
18221,94.43815804166668,50,0.25227283333333617,50,1.2295919999999967
18222,94.68815804166668,41,0.25,31,0.48979599999999834
18223,95.17795404166668,41,0.48979599999999834,31,0.48979599999999834
18224,95.66775004166668,52,0.48979599999999834,58,0.5
18225,95.91775004166668,50,0.25,50,0.25
18226,96.16775004166668,48,0.25,46,0.5136885000000007
18227,96.24092079166668,50,0.07317075000000273,47,0.07317075000000273
18228,96.31409154166668,48,0.07317075000000273,55,0.3673469999999952
18229,96.68143854166668,47,0.3673469999999952,53,0.4890440000000069
18230,97.17048254166669,48,0.4890440000000069,55,0.5022728333333362
18231,97.42275537500002,52,0.25227283333333617,50,0.5
18232,97.67275537500002,36,0.25,37,0.5
18233,98.17275537500002,40,0.5,68,0.7228920000000016
18234,98.89564737500002,38,0.7228920000000016,60,0.24814149999998847
18235,99.14378887500001,36,0.24814149999998847,57,0.058365749999993
18236,99.202154625,38,0.058365749999993,57,0.05836575000000721
18237,99.26052037500001,36,0.05836575000000721,68,0.35019450000000063
18238,99.61071487500001,35,0.35019450000000063,67,0.4858299999999929
18239,100.096544875,36,0.4858299999999929,71,0.46511599999999476
18240,100.561660875,40,0.46511599999999476,67,0.9456260000000043
18241,101.507286875,38,0.9456260000000043,71,1.408803000000006
18242,101.98009987500001,36,0.47281300000000215,68,0.4631770000000017
18243,102.44327687500001,40,0.4631770000000017,68,0.47281300000000215
18244,102.91608987500001,38,0.47281300000000215,63,1.4133900000000068
18245,102.98268550000002,40,0.06659562500000504,63,0.06659562499999083
18246,103.04928112500001,38,0.06659562499999083,73,0.11152425000000221
18247,103.16080537500001,36,0.11152425000000221,66,0.22304850000000442
18248,103.38385387500001,40,0.22304850000000442,72,0.47281300000000215
18249,103.85666687500002,40,0.47281300000000215,68,0.47281300000000215
18250,104.32947987500002,38,0.47281300000000215,61,1.3970245000000006
18251,104.39576362500001,40,0.06628374999999664,61,0.06628374999999664
18252,104.46204737500001,38,0.06628374999999664,72,0.3284670000000034
18253,104.79051437500001,37,0.3284670000000034,72,0.4631770000000017
18254,105.25369137500002,40,0.4631770000000017,68,0.47281300000000215
18255,105.72650437500002,38,0.47281300000000215,62,0.47713099999999997
18256,105.79278812500002,40,0.06628374999999664,63,0.06628374999999664
18257,105.85907187500001,38,0.06628374999999664,73,0.11485450000000696
18258,105.97392637500002,37,0.11485450000000696,66,0.7025220000000019
18259,106.20363537500002,45,0.22970899999999972,72,0.9728130000000021
18260,106.67644837500002,57,0.47281300000000215,58,0.75
18261,107.17644837500002,26,0.5,50,0.5
18262,107.42644837500002,62,0.25,50,0.25
18263,107.67644837500002,58,0.25,50,0.5071010000000058
18264,107.74557275000002,60,0.06912437500000124,50,0.06912437500000124
18265,107.81469712500002,58,0.06912437500000124,57,0.3688522500000033
18266,108.18354937500003,57,0.3688522500000033,53,0.4890440000000069
18267,108.42259337500003,55,0.23904400000000692,50,0.25
18268,108.67259337500003,57,0.25,55,0.5022728333333362
18269,108.92486620833337,50,0.25227283333333617,50,1.25
18270,109.17486620833337,41,0.25,31,0.5
18271,109.67486620833337,41,0.5,31,0.5
18272,110.17486620833337,52,0.5,58,0.5
18273,110.42486620833337,55,0.25,50,0.25
18274,110.67486620833337,53,0.25,50,0.5060407499999968
18275,110.74495970833337,55,0.0700934999999987,50,0.0700934999999987
18276,110.81505320833337,53,0.0700934999999987,57,0.3658537499999994
18277,111.18090695833337,52,0.3658537499999994,53,0.4890440000000069
18278,111.66995095833337,53,0.4890440000000069,55,0.5022728333333362
18279,111.92222379166671,50,0.25227283333333617,50,0.7397959999999983
18280,112.17222379166671,41,0.25,31,0.48979599999999834
18281,112.66201979166671,29,0.48979599999999834,66,0.7086615000000052
18282,113.13446079166671,44,0.47244100000000344,43,0.47244100000000344
18283,113.37068129166671,34,0.23622050000000172,58,0.23622050000000172
18284,113.60690179166671,31,0.23622050000000172,65,0.43321299999999496
18285,113.75130612500004,32,0.14440433333332692,57,0.14440433333334113
18286,113.89571045833338,31,0.14440433333334113,55,0.14440433333332692
18287,114.04011479166671,29,0.14440433333332692,63,0.47244100000000344
18288,114.27633529166671,27,0.23622050000000172,57,0.23622050000000172
18289,114.51255579166671,29,0.23622050000000172,64,0.47619000000000256
18290,114.86969829166671,22,0.3571424999999948,55,0.11904750000000774
18291,114.98874579166672,29,0.11904750000000774,64,0.47619000000000256
18292,115.46493579166672,27,0.47619000000000256,59,0.47618999999998834
18293,115.9411257916667,29,0.47618999999998834,66,0.47244100000000344
18294,116.17734629166671,34,0.23622050000000172,58,0.23622050000000172
18295,116.41356679166671,31,0.23622050000000172,65,0.43321299999999496
18296,116.55797112500004,32,0.14440433333332692,57,0.14440433333334113
18297,116.70237545833338,31,0.14440433333334113,55,0.14440433333332692
18298,116.8467797916667,29,0.14440433333332692,63,0.47244100000000344
18299,117.0830002916667,27,0.23622050000000172,57,0.23622050000000172
18300,117.31922079166671,29,0.23622050000000172,64,0.47619000000000256
18301,117.6763632916667,22,0.3571424999999948,54,0.11904750000000774
18302,117.79541079166671,29,0.11904750000000774,62,0.47619000000000256
18303,118.27160079166671,27,0.47619000000000256,56,0.47618999999998834
18304,118.7477907916667,29,0.47618999999998834,60,0.45283000000000584
18305,119.0874132916667,22,0.3396225000000044,51,0.11320750000000146
18306,119.20062079166671,27,0.11320750000000146,58,0.4878049999999945
18307,119.6884257916667,29,0.4878049999999945,57,0.46692600000000084
18308,120.0386202916667,22,0.35019450000000063,48,0.11673150000000021
18309,120.1553517916667,27,0.11673150000000021,56,0.493826999999996
18310,120.6491787916667,29,0.493826999999996,55,0.47058800000000645
18311,121.0021197916667,22,0.3529410000000013,46,0.11764700000000516
18312,121.1197667916667,27,0.11764700000000516,53,0.5020920000000046
18313,121.62185879166671,22,0.5020920000000046,52,1.5062759999999997
18314,123.12813479166671,21,1.5062759999999997,48,1.5062759999999997
18315,124.63441079166671,57,1.5062759999999997,55,0.5
18316,124.88441079166671,62,0.25,50,0.25
18317,125.13441079166671,58,0.25,50,0.5071010000000058
18318,125.20353516666671,60,0.06912437500000124,50,0.06912437500000124
18319,125.27265954166671,58,0.06912437500000124,57,0.3688522500000033
18320,125.64151179166672,57,0.3688522500000033,53,0.4890440000000069
18321,125.88055579166672,55,0.23904400000000692,50,0.25
18322,126.13055579166672,57,0.25,55,0.5022728333333362
18323,126.38282862500006,50,0.25227283333333617,50,1.25
18324,126.63282862500006,41,0.25,31,0.5
18325,127.13282862500006,41,0.5,31,0.5
18326,127.63282862500006,52,0.5,58,0.5
18327,127.88282862500006,55,0.25,50,0.25
18328,128.13282862500006,53,0.25,50,0.506040750000011
18329,128.20292212500007,55,0.07009350000001291,50,0.07009349999998449
18330,128.27301562500006,53,0.07009349999998449,57,0.36585375000001363
18331,128.63886937500007,52,0.36585375000001363,53,0.4890440000000069
18332,129.12791337500008,53,0.4890440000000069,55,0.5022728333333362
18333,129.3801862083334,50,0.25227283333333617,50,1.25
18334,129.6301862083334,41,0.25,31,0.5
18335,130.1301862083334,41,0.5,31,0.5
18336,130.6301862083334,52,0.5,58,0.5
18337,130.8801862083334,50,0.25,50,0.25
18338,131.1301862083334,48,0.25,46,0.5136885000000007
18339,131.20335695833342,50,0.07317075000000273,47,0.07317075000000273
18340,131.27652770833342,48,0.07317075000000273,55,0.3673469999999952
18341,131.6438747083334,47,0.3673469999999952,53,0.4890440000000069
18342,132.13291870833342,48,0.4890440000000069,55,0.5022728333333362
18343,132.38519154166676,52,0.25227283333333617,50,0.5
18344,132.63519154166676,36,0.25,37,0.5
18345,133.13519154166676,40,0.5,68,0.7258065000000045
18346,133.86099804166676,38,0.7258065000000045,60,0.24808649999999943
18347,134.10908454166676,36,0.24808649999999943,57,0.05905512499998622
18348,134.16813966666675,38,0.05905512499998622,57,0.05905512500001464
18349,134.22719479166676,36,0.05905512500001464,68,0.3543307500000026
18350,134.58152554166676,35,0.3543307500000026,67,0.48192800000001057
18351,135.06345354166677,36,0.48192800000001057,71,0.46332000000001017
18352,135.52677354166678,40,0.46332000000001017,67,0.9454020000000014
18353,136.4721755416668,38,0.9454020000000014,71,1.408471999999989
18354,136.9448765416668,36,0.4727010000000007,68,0.46306999999998766
18355,137.40794654166677,40,0.46306999999998766,68,0.4727010000000007
18356,137.88064754166678,38,0.4727010000000007,63,1.4022989999999993
18357,137.94722541666678,40,0.06657787500000723,63,0.0665778749999788
18358,138.01380329166676,38,0.0665778749999788,73,0.10791374999999448
18359,138.12171704166676,36,0.10791374999999448,66,0.21582750000001738
18360,138.33754454166677,40,0.21582750000001738,72,0.4727010000000007
18361,138.81024554166677,40,0.4727010000000007,68,0.4727010000000007
18362,139.28294654166677,38,0.4727010000000007,61,1.3979732499999784
18363,139.34921266666677,40,0.06626612499999851,61,0.06626612499999851
18364,139.41547879166677,38,0.06626612499999851,72,0.329669999999993
18365,139.74514879166676,37,0.329669999999993,72,0.46306999999998766
18366,140.20821879166675,40,0.46306999999998766,68,0.4727010000000007
18367,140.68091979166675,38,0.4727010000000007,62,0.47701699999998937
18368,140.74718591666675,40,0.06626612499999851,63,0.06626612499999851
18369,140.81345204166675,38,0.06626612499999851,73,0.11482824999998797
18370,140.92828029166674,37,0.11482824999998797,66,0.7023575000000051
18371,141.15793679166674,45,0.22965650000000437,72,0.9727010000000007
18372,141.63063779166674,57,0.4727010000000007,58,0.75
18373,142.13063779166674,26,0.5,50,0.5
18374,142.38063779166674,62,0.25,50,0.25
18375,142.63063779166674,58,0.25,50,0.5071010000000058
18376,142.69976216666674,60,0.06912437500000124,50,0.06912437500000124
18377,142.76888654166675,58,0.06912437500000124,57,0.3688522500000033
18378,143.13773879166675,57,0.3688522500000033,53,0.4890440000000069
18379,143.37678279166676,55,0.23904400000000692,50,0.25
18380,143.62678279166676,57,0.25,55,0.5022728333333362
18381,143.8790556250001,50,0.25227283333333617,50,1.2295919999999967
18382,144.1290556250001,41,0.25,31,0.48979600000001255
18383,144.6188516250001,41,0.48979600000001255,31,0.48979599999998413
18384,145.1086476250001,52,0.48979599999998413,58,0.5
18385,145.3586476250001,55,0.25,50,0.25
18386,145.6086476250001,53,0.25,50,0.506040750000011
18387,145.6787411250001,55,0.07009350000001291,50,0.07009349999998449
18388,145.7488346250001,53,0.07009349999998449,57,0.36585375000001363
18389,146.1146883750001,52,0.36585375000001363,53,0.4890440000000069
18390,146.6037323750001,53,0.4890440000000069,55,0.5022728333333362
18391,146.85600520833344,50,0.25227283333333617,50,0.7397960000000126
18392,147.10600520833344,41,0.25,31,0.48979600000001255
18393,147.59580120833346,29,0.48979600000001255,66,0.7086615000000052
18394,148.06824220833346,44,0.47244100000000344,43,0.47244100000000344
18395,148.30446270833346,34,0.23622050000000172,58,0.23622050000000172
18396,148.54068320833346,31,0.23622050000000172,65,0.43321299999999496
18397,148.6850875416668,32,0.14440433333334113,57,0.1444043333333127
18398,148.82949187500012,31,0.1444043333333127,55,0.14440433333334113
18399,148.97389620833346,29,0.14440433333334113,63,0.47244100000000344
18400,149.21011670833346,27,0.23622050000000172,57,0.23622050000000172
18401,149.44633720833346,29,0.23622050000000172,64,0.47619000000000256
18402,149.80347970833347,22,0.357142500000009,55,0.11904749999999353
18403,149.92252720833346,29,0.11904749999999353,64,0.47619000000000256
18404,150.39871720833347,27,0.47619000000000256,59,0.47619000000000256
18405,150.87490720833347,29,0.47619000000000256,66,0.47244100000000344
18406,151.11112770833347,34,0.23622050000000172,58,0.23622050000000172
18407,151.34734820833347,31,0.23622050000000172,65,0.43321299999999496
18408,151.4917525416668,32,0.14440433333334113,57,0.1444043333333127
18409,151.63615687500013,31,0.1444043333333127,55,0.14440433333334113
18410,151.78056120833347,29,0.14440433333334113,63,0.47244100000000344
18411,152.01678170833347,27,0.23622050000000172,57,0.23622050000000172
18412,152.25300220833347,29,0.23622050000000172,64,0.47619000000000256
18413,152.61014470833348,22,0.357142500000009,54,0.11904749999999353
18414,152.72919220833347,29,0.11904749999999353,62,0.47619000000000256
18415,153.20538220833348,27,0.47619000000000256,56,0.47619000000000256
18416,153.68157220833348,29,0.47619000000000256,60,0.45283000000000584
18417,154.02119470833347,22,0.33962249999999017,51,0.11320750000001567
18418,154.13440220833348,27,0.11320750000001567,58,0.4878050000000087
18419,154.6222072083335,29,0.4878050000000087,57,0.46692600000000084
18420,154.97240170833348,22,0.3501944999999864,48,0.11673150000001442
18421,155.0891332083335,27,0.11673150000001442,56,0.49382700000001023
18422,155.5829602083335,29,0.49382700000001023,55,0.47058799999999223
18423,155.9359012083335,22,0.35294099999998707,46,0.11764700000000516
18424,156.0535482083335,27,0.11764700000000516,53,0.5020920000000046
18425,156.5556402083335,22,0.5020920000000046,52,1.5062759999999855
18426,158.06191620833349,21,1.5062759999999855,60,1.0300420000000088
18427,159.0919582083335,20,1.0300420000000088,66,0.5825240000000065
18428,159.6744822083335,13,0.5825240000000065,74,0.19999999999998863
18429,160.0744822083335,53,0.4000000000000057,80,0.37735799999998676
18430,160.4518402083335,54,0.37735799999998676,80,0.3773580000000152
18431,160.8291982083335,57,0.3773580000000152,86,0.1807230000000004
18432,161.1002827083335,56,0.2710845000000006,80,0.3487548750000258
18433,161.18664708333353,44,0.08636437500001648,68,0.73446899999999
18434,161.44903758333353,56,0.2623905000000093,80,0.3759247499999958
18435,161.53650108333352,49,0.08746349999998415,80,0.3846149999999966
18436,161.92111608333352,61,0.3846149999999966,85,0.1923074999999983
18437,162.3057310833335,53,0.3846149999999966,80,0.37735799999998676
18438,162.6830890833335,54,0.37735799999998676,80,0.3773580000000152
18439,163.06044708333351,57,0.3773580000000152,86,0.1807230000000004
18440,163.33153158333351,56,0.2710845000000006,80,0.34991600000000744
18441,163.41751808333353,44,0.0859865000000184,68,0.7365210000000104
18442,163.68144758333352,56,0.26392949999998905,80,0.37643775000003643
18443,163.76942408333355,49,0.08797650000002477,80,0.3846149999999966
18444,164.15403908333354,13,0.3846149999999966,79,0.19999999999998863
18445,164.55403908333355,53,0.4000000000000057,80,0.37735799999998676
18446,164.93139708333354,54,0.37735799999998676,80,0.3773580000000152
18447,165.30875508333355,57,0.3773580000000152,86,0.1807230000000004
18448,165.57983958333355,56,0.2710845000000006,80,0.3449030000000164
18449,165.66387308333356,44,0.08403350000000387,68,0.7324409999999943
18450,165.92474258333357,56,0.2608695000000125,80,0.3754177499999969
18451,166.01169908333355,49,0.08695649999998523,80,0.3846149999999966
18452,166.39631408333355,73,0.3846149999999966,85,0.1923074999999983
18453,166.78092908333355,53,0.3846149999999966,80,0.37735799999998676
18454,167.15828708333353,54,0.37735799999998676,80,0.3773580000000152
18455,167.53564508333355,57,0.3773580000000152,86,0.1807230000000004
18456,167.80672958333355,56,0.2710845000000006,80,0.3468975000000114
18457,167.89123658333355,44,0.08450700000000211,68,0.73446899999999
18458,168.15362708333356,56,0.2623905000000093,80,0.3759247499999958
18459,168.24109058333354,49,0.08746349999998415,80,0.3846149999999966
18460,168.62570558333354,18,0.3846149999999966,81,0.19999999999998863
18461,169.02570558333355,58,0.4000000000000057,80,0.37735799999998676
18462,169.40306358333353,59,0.37735799999998676,80,0.3773580000000152
18463,169.78042158333355,62,0.3773580000000152,88,0.1807230000000004
18464,170.05150608333355,61,0.2710845000000006,88,0.35351925000000506
18465,170.14186758333355,46,0.0903615000000002,68,0.350876999999997
18466,170.40502533333355,61,0.26315775000000485,88,0.3761805000000038
18467,170.49274458333355,54,0.08771924999999214,80,0.3846149999999966
18468,170.87735958333354,78,0.3846149999999966,93,0.1923074999999983
18469,171.26197458333354,58,0.3846149999999966,80,0.37735799999998676
18470,171.63933258333353,59,0.37735799999998676,80,0.3773580000000152
18471,172.01669058333354,62,0.3773580000000152,87,0.18691599999999653
18472,172.29706458333354,61,0.2803739999999948,88,0.36618500000000154
18473,172.39052258333354,49,0.09345799999999826,68,0.36363600000001384
18474,172.66324958333354,61,0.2727270000000033,88,0.3793702500000222
18475,172.75415858333355,55,0.09090900000001056,80,1.5253620000000012
18476,173.13877358333355,18,0.3846149999999966,73,0.1923074999999983
18477,173.52338858333354,58,0.3846149999999966,80,0.3715170000000114
18478,173.89490558333355,59,0.3715170000000114,77,0.3846149999999966
18479,174.27952058333355,58,0.3846149999999966,77,2.33892658333329
18480,174.6574842500002,57,0.37796366666665904,74,1.960962916666631
18481,175.04304191666685,56,0.38555766666664226,71,0.3934560833333194
18482,175.43649800000017,55,0.3934560833333194,69,1.1819491666666693
18483,175.83516900000018,33,0.3986710000000073,59,0.3420191250000073
18484,176.17718812500019,37,0.3420191250000073,60,0.048859875000005104
18485,176.2260480000002,35,0.048859875000005104,68,0.39239916666664953
18486,176.61844716666684,33,0.39239916666664953,63,0.40519483333335415
18487,177.0236420000002,28,0.40519483333335415,56,0.4148850833333029
18488,177.4385270833335,33,0.4148850833333029,53,0.4247985000000085
18489,177.8633255833335,54,0.4247985000000085,59,0.49382700000001023
18490,178.1102390833335,55,0.24691350000000511,61,0.24691350000000511
18491,178.35715258333352,56,0.24691350000000511,63,0.4878050000000087
18492,178.84495758333352,57,0.4878050000000087,70,0.5084750000000042
18493,179.35343258333353,58,0.5084750000000042,77,0.5020920000000046
18494,179.73000158333352,59,0.3765689999999893,64,0.12552300000001537
18495,179.85552458333353,55,0.12552300000001537,76,0.7511869999999874
18496,180.60671158333352,54,0.7511869999999874,67,0.2553190000000143
18497,180.86203058333354,54,0.2553190000000143,71,0.5006562499999916
18498,181.10996458333352,52,0.24793399999998655,59,0.06437762499999167
18499,181.1743422083335,54,0.06437762499999167,60,0.06437762500002009
18500,181.23871983333353,52,0.06437762500002009,69,0.12396699999999328
18501,181.36268683333353,51,0.12396699999999328,67,0.49586800000000153
18502,181.85855483333353,52,0.49586800000000153,70,0.5357140000000129
18503,182.39426883333354,55,0.5357140000000129,74,0.9981319999999982
18504,182.90059783333353,42,0.5063289999999938,47,0.49180300000000443
18505,183.39240083333354,54,0.49180300000000443,64,0.5084750000000042
18506,183.90087583333354,50,0.5084750000000042,58,0.5084750000000042
18507,184.15511333333353,52,0.2542374999999879,60,0.2542375000000163
18508,184.40935083333355,53,0.2542375000000163,63,0.4979250000000093
18509,184.90727583333356,54,0.4979250000000093,68,0.5150209999999902
18510,185.42229683333355,57,0.5150209999999902,72,0.5150210000000186
18511,185.67980733333357,55,0.2575105000000235,64,0.2575104999999951
18512,185.93731783333357,52,0.2575104999999951,70,0.5042019999999923
18513,186.44151983333356,47,0.5042019999999923,56,0.06756762500000946
18514,186.50908745833357,49,0.06756762500000946,56,0.06756762499998104
18515,186.57665508333355,47,0.06756762499998104,64,0.37535199999999236
18516,186.95200708333354,46,0.37535199999999236,64,0.5172409999999843
18517,187.33993783333352,47,0.3879307499999811,61,0.12931025000000318
18518,187.46924808333353,50,0.12931025000000318,64,0.5042019999999923
18519,187.97345008333352,49,0.5042019999999923,64,0.5150209999999902
18520,188.4884710833335,46,0.5150209999999902,69,1.041337000000027
18521,189.00349208333353,42,0.5150210000000186,47,0.5263160000000084
18522,189.52980808333353,45,0.5263160000000084,64,0.5681820000000073
18523,190.09799008333354,54,0.5681820000000073,59,0.49382700000001023
18524,190.34490358333355,55,0.24691350000000511,61,0.24691350000000511
18525,190.59181708333355,57,0.24691350000000511,63,0.5136864999999773
18526,191.10550358333353,66,0.5136864999999773,69,0.5555559999999957
18527,191.66105958333353,64,0.5555559999999957,69,0.5020920000000046
18528,191.91210558333353,62,0.2510460000000023,64,0.2510460000000023
18529,192.16315158333353,59,0.2510460000000023,69,0.49586800000000153
18530,192.65901958333353,55,0.49586800000000153,67,0.5106380000000001
18531,193.16965758333353,54,0.5106380000000001,71,0.5006562499999916
18532,193.41759158333352,52,0.24793399999998655,59,0.06437762499999167
18533,193.4819692083335,54,0.06437762499999167,60,0.06437762500002009
18534,193.54634683333353,52,0.06437762500002009,69,0.12396699999999328
18535,193.67031383333352,51,0.12396699999999328,67,0.49586800000000153
18536,194.16618183333352,52,0.49586800000000153,70,0.5357140000000129
18537,194.70189583333354,55,0.5357140000000129,71,0.9981319999999982
18538,195.20822483333353,42,0.5063289999999938,47,0.49180300000000443
18539,195.70002783333354,54,0.49180300000000443,64,0.5434779999999932
18540,196.24350583333353,54,0.5434779999999932,77,0.7552914999999985
18541,196.74983483333352,42,0.5063289999999938,43,0.4979250000000093
18542,196.99879733333353,54,0.24896250000000464,64,0.06224062499998695
18543,197.06103795833351,56,0.06224062499998695,64,0.06224062500001537
18544,197.12327858333353,54,0.06224062500001537,72,0.12448125000000232
18545,197.24775983333353,52,0.12448125000000232,74,0.2575104999999951
18546,197.50527033333353,50,0.2575104999999951,71,0.2575104999999951
18547,197.76278083333352,49,0.2575104999999951,79,0.5150210000000186
18548,198.02029133333355,54,0.2575105000000235,73,0.2575104999999951
18549,198.27780183333354,57,0.2575104999999951,80,0.5042019999999923
18550,198.78200383333353,62,0.5042019999999923,79,0.5139394999999922
18551,199.29594333333353,61,0.5139394999999922,81,0.5172409999999843
18552,199.55456383333353,56,0.25862050000000636,70,0.25862049999997794
18553,199.8131843333335,59,0.25862049999997794,80,0.7617124999999874
18554,200.3173863333335,44,0.5042019999999923,44,0.5150209999999902
18555,200.5748968333335,57,0.2575104999999951,77,0.2575104999999951
18556,200.8324073333335,54,0.2575104999999951,81,0.5150210000000186
18557,201.3474283333335,45,0.5150210000000186,80,0.5555839999999819
18558,201.6315193333335,57,0.28409099999998944,79,0.27149299999999243
18559,201.9030123333335,56,0.27149299999999243,78,0.5666914999999904
18560,202.17673483333348,55,0.273722499999991,70,0.29296899999999937
18561,202.46970383333348,54,0.29296899999999937,67,0.49382700000001023
18562,202.7166173333335,55,0.24691350000000511,70,0.24691350000000511
18563,202.9635308333335,56,0.24691350000000511,72,0.4878050000000087
18564,203.4513358333335,57,0.4878050000000087,75,0.5084750000000042
18565,203.9598108333335,58,0.5084750000000042,75,0.5020920000000046
18566,204.3363798333335,59,0.3765689999999893,64,0.12552300000001537
18567,204.4619028333335,55,0.12552300000001537,69,0.7511869999999874
18568,205.2130898333335,54,0.7511869999999874,67,0.2553190000000143
18569,205.4684088333335,54,0.2553190000000143,71,0.5006562499999916
18570,205.7163428333335,52,0.24793399999998655,59,0.06437762499999167
18571,205.7807204583335,54,0.06437762499999167,60,0.06437762500002009
18572,205.8450980833335,52,0.06437762500002009,69,0.12396699999999328
18573,205.9690650833335,51,0.12396699999999328,67,0.49586800000000153
18574,206.4649330833335,52,0.49586800000000153,70,0.5549775000000068
18575,207.0199105833335,55,0.5549775000000068,73,0.9981319999999982
18576,207.5262395833335,42,0.5063289999999938,47,0.49180300000000443
18577,208.0180425833335,54,0.49180300000000443,64,0.5084750000000042
18578,208.52651758333351,50,0.5084750000000042,58,0.5084750000000042
18579,208.7807550833335,52,0.2542374999999879,60,0.2542375000000163
18580,209.03499258333352,53,0.2542375000000163,63,0.4979250000000093
18581,209.53291758333353,54,0.4979250000000093,67,0.5150209999999902
18582,210.04793858333352,57,0.5150209999999902,69,0.5150210000000186
18583,210.30544908333354,55,0.2575105000000235,64,0.2575104999999951
18584,210.56295958333354,52,0.2575104999999951,70,0.5042019999999923
18585,211.06716158333353,47,0.5042019999999923,56,0.06756762500000946
18586,211.13472920833354,49,0.06756762500000946,56,0.06756762499998104
18587,211.20229683333352,47,0.06756762499998104,64,0.37535199999999236
18588,211.5776488333335,46,0.37535199999999236,64,0.5172409999999843
18589,211.9655795833335,47,0.3879307499999811,61,0.12931025000000318
18590,212.0948898333335,50,0.12931025000000318,64,0.5042019999999923
18591,212.5990918333335,49,0.5042019999999923,64,0.5150209999999902
18592,213.11411283333348,46,0.5150209999999902,69,1.0431900000000098
18593,213.6291338333335,42,0.5150210000000186,47,0.5281689999999912
18594,214.1573028333335,45,0.5281689999999912,64,0.5474450000000104
18595,214.7047478333335,54,0.5474450000000104,59,0.49382700000001023
18596,214.9516613333335,55,0.24691350000000511,61,0.24691350000000511
18597,215.1985748333335,57,0.24691350000000511,63,0.5079869999999858
18598,215.7065618333335,66,0.5079869999999858,69,0.5555559999999957
18599,216.2621178333335,64,0.5555559999999957,69,0.5020920000000046
18600,216.5131638333335,62,0.2510460000000023,64,0.2510460000000023
18601,216.7642098333335,59,0.2510460000000023,69,0.49586800000000153
18602,217.2600778333335,55,0.49586800000000153,67,0.5106380000000001
18603,217.7707158333335,54,0.5106380000000001,71,0.5006562499999916
18604,218.01864983333348,52,0.24793399999998655,59,0.06437762499999167
18605,218.08302745833348,54,0.06437762499999167,60,0.06437762500002009
18606,218.1474050833335,52,0.06437762500002009,69,0.12396699999999328
18607,218.2713720833335,51,0.12396699999999328,67,0.49586800000000153
18608,218.7672400833335,52,0.49586800000000153,70,0.5395680000000027
18609,219.3068080833335,55,0.5395680000000027,71,0.9981319999999982
18610,219.8131370833335,42,0.5063289999999938,47,0.49180300000000443
18611,220.3049400833335,54,0.49180300000000443,64,0.5240169999999864
18612,220.82895708333348,54,0.5240169999999864,67,0.7552914999999985
18613,221.33528608333347,42,0.5063289999999938,43,0.4979250000000093
18614,221.58424858333348,54,0.24896250000000464,56,0.06224062499998695
18615,221.64648920833346,56,0.06224062499998695,56,0.06224062500001537
18616,221.70872983333348,54,0.06224062500001537,63,0.12448125000000232
18617,221.83321108333348,52,0.12448125000000232,65,0.2575104999999951
18618,222.09072158333348,50,0.2575104999999951,62,0.2575104999999951
18619,222.34823208333347,49,0.2575104999999951,69,0.5150210000000186
18620,222.6057425833335,54,0.2575105000000235,64,0.2575104999999951
18621,222.8632530833335,57,0.2575104999999951,70,0.5042019999999923
18622,223.36745508333348,62,0.5042019999999923,69,0.5139394999999922
18623,223.88139458333347,61,0.5139394999999922,71,0.5172409999999843
18624,224.14001508333348,56,0.25862050000000636,61,0.25862049999997794
18625,224.39863558333346,59,0.25862049999997794,70,0.7617124999999874
18626,224.90283758333345,44,0.5042019999999923,44,0.5150209999999902
18627,225.16034808333345,57,0.2575104999999951,67,0.2575104999999951
18628,225.41785858333344,54,0.2575104999999951,71,1.0496720000000153
18629,225.93287958333346,42,0.5150210000000186,39,0.5346509999999967
18630,226.46753058333346,57,0.5346509999999967,75,0.4838709999999935
18631,226.95140158333345,71,0.4838709999999935,82,0.31358929166665916
18632,227.2649908750001,69,0.31358929166665916,77,0.09868424999999093
18633,227.3636751250001,67,0.09868424999999093,76,0.42857100000000514
18634,227.7922461250001,49,0.42857100000000514,75,0.42105300000000057
18635,228.2132991250001,50,0.42105300000000057,76,0.20618550000000369
18636,228.5225773750001,52,0.30927825000000553,73,0.09933774999998946
18637,228.6219151250001,54,0.09933774999998946,81,0.41237100000000737
18638,229.0342861250001,69,0.41237100000000737,77,0.42105300000000057
18639,229.4553391250001,71,0.42105300000000057,82,0.30927825000000553
18640,229.7646173750001,69,0.30927825000000553,77,0.09868424999999093
18641,229.8633016250001,67,0.09868424999999093,76,0.41237100000000737
18642,230.2756726250001,49,0.41237100000000737,75,0.42253500000001054
18643,230.69820762500012,50,0.42253500000001054,76,0.20618550000000369
18644,231.00748587500013,52,0.30927825000000553,73,0.09933774999998946
18645,231.10682362500012,54,0.09933774999998946,81,0.43321299999999496
18646,231.5400366250001,57,0.43321299999999496,77,0.42253500000001054
18647,231.96257162500012,67,0.42253500000001054,81,0.10344825000001379
18648,232.27291637500014,61,0.31034475000001294,73,0.09523799999999483
18649,232.36815437500013,59,0.09523799999999483,73,0.30405375000000845
18650,232.67220812500014,61,0.30405375000000845,73,0.09740249999998696
18651,232.76961062500013,59,0.09740249999998696,77,0.42704599999999004
18652,233.19665662500012,66,0.42704599999999004,81,0.103806249999991
18653,233.50807537500012,59,0.3114187500000014,73,0.09554149999999595
18654,233.6036168750001,57,0.09554149999999595,73,0.30612224999998716
18655,233.9097391250001,59,0.30612224999998716,73,0.09771975000001021
18656,234.0074588750001,57,0.09771975000001021,77,0.42402799999999274
18657,234.4314868750001,64,0.42402799999999274,81,0.10344825000001379
18658,234.74183162500012,57,0.31034475000001294,73,0.09933774999998946
18659,234.8411693750001,55,0.09933774999998946,73,0.3157897499999933
18660,235.1569591250001,57,0.3157897499999933,73,0.09999999999999432
18661,235.2569591250001,55,0.09999999999999432,77,0.46875
18662,235.7257091250001,54,0.46875,69,0.2281370000000038
18663,236.0679146250001,55,0.3422055000000057,62,0.1315789999999879
18664,236.1994936250001,59,0.1315789999999879,67,0.975609999999989
18665,236.6872986250001,57,0.4878050000000087,59,0.4878049999999803
18666,237.17510362500008,71,0.4878049999999803,82,0.31358929166665916
18667,237.48869291666674,69,0.31358929166665916,77,0.09868424999999093
18668,237.58737716666673,67,0.09868424999999093,76,0.42857100000000514
18669,238.01594816666673,49,0.42857100000000514,75,0.42105300000000057
18670,238.43700116666673,50,0.42105300000000057,76,0.20618550000000369
18671,238.74627941666674,52,0.30927825000000553,73,0.09933774999998946
18672,238.84561716666673,54,0.09933774999998946,81,0.43165500000000634
18673,239.27727216666673,69,0.43165500000000634,77,0.42105300000000057
18674,239.69832516666673,71,0.42105300000000057,82,0.30927825000000553
18675,240.00760341666674,69,0.30927825000000553,77,0.09868424999999093
18676,240.10628766666673,67,0.09868424999999093,76,0.4137929999999983
18677,240.52008066666673,49,0.4137929999999983,75,0.42253500000001054
18678,240.94261566666674,50,0.42253500000001054,76,0.20618550000000369
18679,241.25189391666675,52,0.30927825000000553,73,0.09933774999998946
18680,241.35123166666673,54,0.09933774999998946,81,0.43321299999999496
18681,241.78444466666673,57,0.43321299999999496,77,0.42253500000001054
18682,242.20697966666674,67,0.42253500000001054,81,0.10344825000001379
18683,242.51732441666675,61,0.31034475000001294,73,0.09523799999999483
18684,242.61256241666675,59,0.09523799999999483,73,0.30405375000000845
18685,242.91661616666676,61,0.30405375000000845,73,0.09740249999998696
18686,243.01401866666674,59,0.09740249999998696,77,0.42704599999999004
18687,243.44106466666673,66,0.42704599999999004,81,0.103806249999991
18688,243.75248341666673,59,0.3114187500000014,73,0.09554149999999595
18689,243.84802491666673,57,0.09554149999999595,73,0.30612224999998716
18690,244.15414716666672,59,0.30612224999998716,73,0.09771975000001021
18691,244.25186691666673,57,0.09771975000001021,77,0.42402799999999274
18692,244.67589491666672,64,0.42402799999999274,81,0.10344825000001379
18693,244.98623966666673,57,0.31034475000001294,73,0.09933774999998946
18694,245.08557741666672,55,0.09933774999998946,73,0.3157897499999933
18695,245.40136716666672,57,0.3157897499999933,73,0.09999999999999432
18696,245.5013671666667,55,0.09999999999999432,77,0.437956000000014
18697,246.27766916666673,35,0.7763020000000154,41,0.09900999999999271
18698,246.37667916666672,33,0.09900999999999271,47,0.3321029999999894
18699,246.7087821666667,35,0.3321029999999894,41,0.09966775000000894
18700,246.80844991666672,33,0.09966775000000894,46,0.4562740000000076
18701,247.26472391666672,35,0.4562740000000076,44,0.30927825000000553
18702,247.57400216666673,33,0.30927825000000553,37,0.09868424999999093
18703,247.67268641666672,31,0.09868424999999093,44,0.43165500000000634
18704,248.10434141666673,21,0.43165500000000634,38,0.42253500000001054
18705,248.52687641666674,26,0.42253500000001054,44,0.31034475000001294
18706,248.83722116666675,28,0.31034475000001294,41,0.09836075000001188
18707,248.93558191666676,30,0.09836075000001188,45,0.4087618333333296
18708,249.3443437500001,33,0.4087618333333296,44,0.41237100000000737
18709,249.7567147500001,35,0.41237100000000737,46,0.3146849999999972
18710,250.0713997500001,33,0.3146849999999972,42,0.09868424999999093
18711,250.1700840000001,31,0.09868424999999093,45,0.42402799999999274
18712,250.59411200000008,21,0.42402799999999274,39,0.4152249999999924
18713,251.00933700000007,26,0.4152249999999924,44,0.31034475000001294
18714,251.3196817500001,28,0.31034475000001294,41,0.09836075000001188
18715,251.4180425000001,30,0.09836075000001188,45,0.4087618333333296
18716,251.82680433333343,33,0.4087618333333296,44,0.41237100000000737
18717,252.23917533333343,43,0.41237100000000737,49,1.2340849999999932
18718,252.54952008333345,37,0.31034475000001294,41,0.09523799999999483
18719,252.64475808333344,35,0.09523799999999483,44,0.30405375000000845
18720,252.94881183333345,37,0.30405375000000845,41,0.09740249999998696
18721,253.04621433333344,35,0.09740249999998696,45,0.42704599999999004
18722,253.47326033333343,42,0.42704599999999004,49,1.2340849999999932
18723,253.78360508333344,35,0.31034475000001294,41,0.09523799999999483
18724,253.87884308333344,33,0.09523799999999483,44,0.30405375000000845
18725,254.18289683333344,35,0.30405375000000845,41,0.09740249999998696
18726,254.28029933333343,33,0.09740249999998696,45,0.42704599999999004
18727,254.70734533333342,40,0.42704599999999004,49,1.2340849999999932
18728,255.01769008333343,33,0.31034475000001294,41,0.09523799999999483
18729,255.11292808333343,31,0.09523799999999483,44,0.30405375000000845
18730,255.41698183333344,33,0.30405375000000845,41,0.09740249999998696
18731,255.51438433333342,31,0.09740249999998696,45,0.42704599999999004
18732,255.94143033333341,30,0.42704599999999004,44,0.3422054999999773
18733,256.2836358333334,31,0.3422054999999773,41,0.1315789999999879
18734,256.4152148333334,35,0.1315789999999879,45,0.4878049999999803
18735,256.90301983333336,33,0.4878049999999803,44,0.4878050000000371
18736,257.3908248333334,35,0.4878050000000371,46,0.3658537499999852
18737,257.7566785833334,33,0.3658537499999852,42,0.09868425000001935
18738,257.8553628333334,31,0.09868425000001935,45,0.42402800000002117
18739,258.2793908333334,21,0.42402800000002117,39,0.4152250000000208
18740,258.69461583333344,26,0.4152250000000208,44,0.31034475000001294
18741,259.00496058333346,28,0.31034475000001294,41,0.09836074999998345
18742,259.10332133333344,30,0.09836074999998345,45,0.4087618333333012
18743,259.51208316666674,33,0.4087618333333012,44,0.44444399999997586
18744,259.9565271666667,34,0.44444399999997586,43,0.3673469999999952
18745,260.3238741666667,33,0.3673469999999952,39,0.10489499999999907
18746,260.4287691666667,31,0.10489499999999907,42,0.4379559999999856
18747,260.8667251666667,21,0.4379559999999856,36,0.4225349999999821
18748,261.2892601666667,26,0.4225349999999821,41,0.3409087499999828
18749,261.63016891666666,28,0.3409087499999828,38,0.10563374999998132
18750,261.73580266666664,29,0.10563374999998132,41,0.44444399999997586
18751,262.1802466666666,33,0.44444399999997586,40,0.4444440000000327
18752,262.62469066666665,34,0.4444440000000327,42,0.2281370000000038
18753,262.85282766666666,33,0.2281370000000038,38,0.2281370000000038
18754,263.08096466666666,31,0.2281370000000038,41,0.4379559999999856
18755,263.51892066666665,22,0.4379559999999856,35,0.46692600000000084
18756,263.98584666666665,34,0.46692600000000084,41,0.2281370000000038
18757,264.21398366666665,33,0.2281370000000038,37,0.2281370000000038
18758,264.44212066666665,31,0.2281370000000038,40,0.4379559999999856
18759,264.88007666666664,23,0.4379559999999856,34,0.47618999999997413
18760,265.3562666666666,34,0.47618999999997413,40,0.3501944999999864
18761,265.7064611666666,33,0.3501944999999864,36,0.11673150000001442
18762,265.8231926666666,31,0.11673150000001442,39,0.454544999999996
18763,266.2777376666666,24,0.454544999999996,34,0.4838710000000219
18764,266.76160866666663,34,0.4838710000000219,40,0.3688522499999749
18765,267.1304609166666,33,0.3688522499999749,36,0.12295075000002953
18766,267.25341166666664,31,0.12295075000002953,39,0.4743080000000077
18767,267.72771966666664,25,0.4743080000000077,33,0.521739000000025
18768,268.24945866666667,57,0.521739000000025,46,0.5042020000000207
18769,268.50155966666665,62,0.2521009999999819,42,0.25210100000003877
18770,268.7536606666667,58,0.25210100000003877,42,0.5071009999999774
18771,268.8227850416667,60,0.06912437500000124,42,0.06912437500000124
18772,268.8919094166667,58,0.06912437500000124,48,0.3688522499999749
18773,269.26076166666667,57,0.3688522499999749,45,0.4890439999999785
18774,269.49980566666665,55,0.2390439999999785,42,0.25
18775,269.74980566666665,57,0.25,46,0.5022728333333362
18776,270.0020785,50,0.25227283333333617,42,1.25
18777,270.2520785,41,0.25,26,0.5
18778,270.7520785,41,0.5,26,0.5
18779,271.2520785,52,0.5,49,0.5
18780,271.5020785,55,0.25,42,0.25
18781,271.7520785,53,0.25,42,0.506040750000011
18782,271.82217199999997,55,0.07009349999998449,42,0.07009350000004133
18783,271.8922655,53,0.07009350000004133,48,0.3658537499999852
18784,272.25811925,52,0.3658537499999852,45,0.4890439999999785
18785,272.74716324999997,53,0.4890439999999785,46,0.5022728333333362
18786,272.9994360833333,50,0.25227283333333617,42,1.25
18787,273.2494360833333,41,0.25,26,0.5
18788,273.7494360833333,41,0.5,26,0.5
18789,274.2494360833333,52,0.5,55,0.5
18790,274.4994360833333,50,0.25,47,0.25
18791,274.7494360833333,48,0.25,43,0.5136885000000007
18792,274.8226068333333,50,0.0731707499999743,44,0.07317075000003115
18793,274.8957775833333,48,0.07317075000003115,52,0.3673469999999952
18794,275.2631245833333,47,0.3673469999999952,50,0.4890439999999785
18795,275.7521685833333,48,0.4890439999999785,52,0.5022728333333362
18796,276.0044414166666,52,0.25227283333333617,47,0.5
18797,276.2544414166666,36,0.25,35,0.5
18798,276.7544414166666,40,0.5,68,0.7228920000000016
18799,277.4773334166666,38,0.7228920000000016,60,0.2476007500000037
18800,277.7249341666666,36,0.2476007500000037,57,0.05859375
18801,277.7835279166666,38,0.05859375,57,0.05859375
18802,277.8421216666666,36,0.05859375,68,0.3515625
18803,278.1936841666666,35,0.3515625,67,0.49180300000000443
18804,278.68548716666663,36,0.49180300000000443,71,0.46153800000001866
18805,279.14702516666665,40,0.46153800000001866,67,0.9462219999999775
18806,280.09324716666663,38,0.9462219999999775,71,1.3788664166666535
18807,280.5557495833333,36,0.46250241666666625,68,0.44943799999998646
18808,281.0051875833333,40,0.44943799999998646,68,0.46692600000000084
18809,281.4721135833333,38,0.46692600000000084,63,1.4087136666666424
18810,281.5387505833333,40,0.06663700000001427,63,0.06663699999995742
18811,281.60538758333325,38,0.06663699999995742,73,0.1110356666666803
18812,281.71642324999993,36,0.1110356666666803,66,0.21818200000001298
18813,281.93460524999995,40,0.21818200000001298,72,0.47311100000001716
18814,282.40771624999996,40,0.47311100000001716,68,0.4731109999999603
18815,282.8808272499999,38,0.4731109999999603,61,1.3972332499999993
18816,282.9471519999999,40,0.0663247499999784,61,0.06632475000003524
18817,283.01347674999994,38,0.06632475000003524,72,0.32800874999998086
18818,283.3414854999999,37,0.32800874999998086,72,0.46346399999998766
18819,283.8049494999999,40,0.46346399999998766,68,0.47311100000001716
18820,284.2780604999999,38,0.47311100000001716,62,0.47742450000004055
18821,284.3443852499999,40,0.0663247499999784,63,0.06632475000003524
18822,284.41070999999994,38,0.06632475000003524,73,0.11492500000002792
18823,284.52563499999997,37,0.11492500000002792,66,0.7029610000000162
18824,284.75548499999996,45,0.229849999999999,72,0.9731110000000172
18825,285.228596,57,0.47311100000001716,58,0.75
18826,285.728596,26,0.5,50,0.5
18827,285.978596,62,0.25,50,0.25
18828,286.228596,58,0.25,50,0.5071009999999774
18829,286.297720375,60,0.06912437500000124,50,0.06912437500000124
18830,286.36684475,58,0.06912437500000124,57,0.3688522499999749
18831,286.73569699999996,57,0.3688522499999749,53,0.4890439999999785
18832,286.97474099999994,55,0.2390439999999785,50,0.25
18833,287.22474099999994,57,0.25,55,0.5022728333333362
18834,287.4770138333333,50,0.25227283333333617,50,1.2280880000000138
18835,287.7270138333333,41,0.25,31,0.47808800000001384
18836,288.2051018333333,41,0.47808800000001384,31,0.5
18837,288.7051018333333,52,0.5,58,0.5
18838,288.9551018333333,55,0.25,50,0.25
18839,289.2051018333333,53,0.25,50,0.506040750000011
18840,289.2751953333333,55,0.07009349999998449,50,0.07009350000004133
18841,289.3452888333333,53,0.07009350000004133,57,0.3658537499999852
18842,289.7111425833333,52,0.3658537499999852,53,0.4890439999999785
18843,290.2001865833333,53,0.4890439999999785,55,0.5022728333333362
18844,290.4524594166666,50,0.25227283333333617,50,0.7338710000000219
18845,290.7024594166666,41,0.25,31,0.4838710000000219
18846,291.18633041666664,29,0.4838710000000219,66,0.7086615000000052
18847,291.65877141666664,44,0.47244100000000344,43,0.47244100000000344
18848,291.89499191666664,34,0.23622050000000172,58,0.23622050000000172
18849,292.13121241666664,31,0.23622050000000172,65,0.4332130000000234
18850,292.27561675,32,0.14440433333334113,57,0.14440433333334113
18851,292.4200210833333,31,0.14440433333334113,55,0.14440433333334113
18852,292.56442541666667,29,0.14440433333334113,63,0.47244100000000344
18853,292.80064591666667,27,0.23622050000000172,57,0.23622050000000172
18854,293.03686641666667,29,0.23622050000000172,64,0.47618999999997413
18855,293.3940089166667,22,0.357142500000009,55,0.11904749999996511
18856,293.51305641666664,29,0.11904749999996511,64,0.476190000000031
18857,293.9892464166667,27,0.476190000000031,59,0.46332000000001017
18858,294.4525664166667,29,0.46332000000001017,66,0.46244658333330335
18859,294.68424400000004,34,0.23167758333335087,58,0.23076899999995248
18860,294.915013,31,0.23076899999995248,65,0.4332130000000234
18861,295.05941733333333,32,0.14440433333334113,57,0.14440433333334113
18862,295.20382166666667,31,0.14440433333334113,55,0.14440433333334113
18863,295.348226,29,0.14440433333334113,63,0.47244100000000344
18864,295.5844465,27,0.23622050000000172,57,0.23622050000000172
18865,295.820667,29,0.23622050000000172,64,0.47618999999997413
18866,296.1778095,22,0.357142500000009,54,0.11904749999996511
18867,296.296857,29,0.11904749999996511,62,0.476190000000031
18868,296.773047,27,0.476190000000031,56,0.47618999999997413
18869,297.249237,29,0.47618999999997413,60,0.45283000000000584
18870,297.5888595,22,0.3396225000000186,51,0.11320749999998725
18871,297.702067,27,0.11320749999998725,58,0.4878049999999803
18872,298.189872,29,0.4878049999999803,57,0.46692600000000084
18873,298.54006649999997,22,0.3501944999999864,48,0.11673150000001442
18874,298.656798,27,0.11673150000001442,56,0.49382700000001023
18875,299.150625,29,0.49382700000001023,55,0.47058800000002066
18876,299.503566,22,0.35294099999998707,46,0.11764700000003359
18877,299.621213,27,0.11764700000003359,53,0.5020920000000046
18878,300.123305,29,0.5020920000000046,54,0.48979600000001255
18879,300.490652,22,0.3673469999999952,45,0.12244900000001735
18880,300.61310100000003,29,0.12244900000001735,51,0.48979600000001255
18881,301.10289700000004,27,0.48979600000001255,45,0.5106379999999717
18882,301.613535,29,0.5106379999999717,50,0.4979250000000093
18883,301.98697875,22,0.37344374999997854,41,0.12448125000003074
18884,302.11146,29,0.12448125000003074,46,0.512820999999974
18885,302.624281,27,0.512820999999974,41,0.5309730000000172
18886,303.155254,46,0.5309730000000172,40,1.5584430000000111
18887,304.713697,39,1.5584430000000111,45,1.5929189999999949
18888,306.306616,46,1.5929189999999949,40,1.5584430000000111
18889,307.86505900000003,39,1.5584430000000111,45,1.5999990000000253
18890,309.46505800000006,46,1.5999990000000253,41,3.1249992187500197
18891,312.59549200000004,46,3.1304339999999797,54,0.49382700000001023
18892,313.08931900000005,39,0.49382700000001023,59,0.6642059999999788
18893,313.753525,38,0.6642059999999788,52,0.24390249999999014
18894,313.9974275,40,0.24390249999999014,59,0.47058800000002066
18895,314.3503685,33,0.35294099999998707,45,0.6239760000000274
18896,314.46801550000004,37,0.11764700000003359,58,0.5063289999999938
18897,314.97434450000003,38,0.5063289999999938,56,0.5882349999999974
18898,0.0,42,0.0,88,0.5454549999999999
18899,0.8181824999999999,36,0.8181824999999999,47,0.10975633333333334
18900,0.9279388333333333,37,0.10975633333333334,50,0.10869666666666655
18901,1.0366354999999998,38,0.10869666666666655,53,0.10752783333333338
18902,1.1441633333333332,39,0.10752783333333338,55,0.10638383333333334
18903,1.2505471666666665,40,0.10638383333333334,58,0.1052639999999998
18904,1.3558111666666663,41,0.1052639999999998,61,0.10416749999999997
18905,1.4599786666666663,42,0.10416749999999997,68,0.1499999999999999
18906,2.0599786666666664,37,0.6000000000000001,61,0.15957450000000017
18907,2.7429309166666664,47,0.68295225,37,0.6896550000000001
18908,3.4325859166666666,46,0.6896550000000001,32,0.3615330000000001
18909,4.155651916666667,38,0.7230660000000002,42,0.15116291666666637
18910,4.295186916666667,37,0.1395350000000004,39,0.15116291666666637
18911,4.434721916666667,31,0.13953499999999952,40,0.15116291666666637
18912,4.574256916666667,30,0.1395350000000004,42,0.15116291666666637
18913,4.713791916666667,38,0.13953499999999952,47,0.15116291666666726
18914,4.853326916666667,37,0.1395350000000004,45,0.15116291666666637
18915,4.992861916666667,31,0.13953499999999952,47,0.15116291666666726
18916,5.132396916666667,30,0.1395350000000004,47,0.15116291666666637
18917,5.2719319166666665,38,0.13953499999999952,53,0.15110908333333395
18918,5.411466916666667,37,0.1395350000000004,50,0.1504097291666664
18919,5.550355916666667,31,0.13888899999999982,53,0.14971664583333322
18920,5.6886046666666665,30,0.1382487499999998,55,0.1490302708333333
18921,5.8262194166666665,38,0.13761475,61,0.14834989583333336
18922,5.963205666666666,37,0.13698624999999964,58,0.14767595833333313
18923,6.099569416666666,31,0.13636375000000012,59,0.1470077708333335
18924,6.235315916666666,30,0.13574649999999977,61,0.1463460208333336
18925,6.370451166666666,38,0.13513525000000026,70,0.14568995833333354
18926,6.504980416666666,37,0.13452924999999993,64,0.1450396041666666
18927,6.638908916666666,31,0.13392849999999967,66,0.1443951874999998
18928,6.772242166666666,30,0.13333324999999974,68,0.13254833333333327
18929,6.904790499999999,43,0.13254833333333327,88,0.5714290000000002
18930,7.761933999999999,37,0.8571435000000003,47,0.11224433333333383
18931,7.874178333333333,38,0.11224433333333383,50,0.105882583333333
18932,7.980060916666666,39,0.105882583333333,53,0.1053867499999992
18933,8.085447666666665,40,0.1053867499999992,55,0.10465133333333299
18934,8.190098999999998,41,0.10465133333333299,58,0.10404658333333217
18935,8.29414558333333,37,0.10404658333333217,61,0.10344908333333436
18936,8.397594666666665,43,0.10344908333333436,68,0.15000000000000036
18937,8.997594666666664,38,0.5999999999999996,54,0.1734504999999995
18938,9.691396666666664,52,0.6938019999999998,37,0.6818179999999998
18939,10.373214666666664,50,0.6818179999999998,32,0.3409089999999999
18940,11.055032666666664,40,0.6818179999999998,42,0.15046308333333336
18941,11.193921666666665,38,0.1388890000000007,39,0.15046308333333336
18942,11.332810666666663,33,0.13888899999999893,40,0.15046308333333336
18943,11.471699666666664,31,0.1388890000000007,42,0.15046308333333336
18944,11.610588666666663,40,0.13888899999999893,47,0.15046308333333336
18945,11.749477666666664,38,0.1388890000000007,45,0.15046308333333336
18946,11.888366666666665,33,0.1388890000000007,47,0.15046308333333336
18947,12.027255666666663,31,0.13888899999999893,47,0.15040972916666817
18948,12.166144666666664,40,0.1388890000000007,53,0.14976947916666639
18949,12.304393416666665,38,0.1382487500000007,50,0.1492939791666661
18950,12.442219499999998,33,0.13782608333333357,53,0.148820770833332
18951,12.579624749999997,31,0.1374052499999987,55,0.14834989583333247
18952,12.716610999999997,40,0.13698624999999964,61,0.14772739583333383
18953,12.852974749999996,38,0.13636374999999923,58,0.14726445833333557
18954,12.988926999999997,33,0.13595225000000077,59,0.14680402083333455
18955,13.124469749999998,31,0.13554275000000082,61,0.1463460208333327
18956,13.259604999999997,40,0.13513524999999937,70,0.14574002083333326
18957,13.394134249999997,38,0.13452924999999993,64,0.14528945833333395
18958,13.528262999999997,33,0.13412875000000035,66,0.14484118750000086
18959,13.66199308333333,31,0.13373008333333303,68,0.133136583333334
18960,13.795129666666664,44,0.133136583333334,88,0.5454550000000005
18961,14.613312166666665,41,0.8181825000000007,53,0.105882583333333
18962,14.719194749999998,42,0.105882583333333,56,0.10501775000000002
18963,14.824212499999998,43,0.10501775000000002,59,0.10416749999999908
18964,14.928379999999997,44,0.10416749999999908,59,0.10344908333333436
18965,15.031829083333331,46,0.10344908333333436,65,0.10262283333333322
18966,15.134451916666665,41,0.10262283333333322,68,0.10169566666666618
18967,15.23614758333333,48,0.10169566666666618,76,0.15000000000000036
18968,15.83614758333333,44,0.5999999999999996,74,0.15873024999999963
18969,16.47106858333333,51,0.6349210000000003,78,0.6839972500000009
18970,17.15506583333333,49,0.6839972500000009,73,0.2898549999999993
18971,18.024630833333333,43,0.8695650000000015,58,0.10714375000000231
18972,18.131774583333335,44,0.10714375000000231,61,0.10600791666666964
18973,18.237782500000005,45,0.10600791666666964,64,0.10489591666666698
18974,18.342678416666672,46,0.10489591666666698,64,0.10380708333333288
18975,18.446485500000005,47,0.10380708333333288,71,0.10274049999999946
18976,18.549226000000004,48,0.10274049999999946,74,0.10169566666666796
18977,18.650921666666672,49,0.10169566666666796,76,0.14999999999999858
18978,19.250921666666674,41,0.6000000000000014,75,0.1546392499999989
18979,19.869478666666673,56,0.6185569999999991,82,0.6666670000000003
18980,20.536145666666673,54,0.6666670000000003,77,0.27522949999999824
18981,21.086604666666673,56,0.550459,77,0.13574850000000183
18982,21.222353166666675,47,0.13574850000000183,72,0.13313658333333223
18983,21.355489750000007,46,0.13313658333333223,72,0.13177216666666425
18984,21.48726191666667,54,0.13177216666666425,72,0.13043641666666517
18985,21.617698333333337,56,0.13043641666666517,77,0.12912524999999775
18986,21.746823583333335,47,0.12912524999999775,70,0.1276611666666696
18987,21.874484750000004,46,0.1276611666666696,70,0.12658383333333134
18988,22.001068583333335,54,0.12658383333333134,70,0.12517433333333372
18989,22.12624291666667,56,0.12517433333333372,77,0.12605483333333467
18990,22.252297750000004,46,0.12605483333333467,71,0.12711875000000106
18991,22.379416500000005,42,0.12711875000000106,71,0.12765950000000004
18992,22.507076000000005,54,0.12765950000000004,71,0.12838858333333292
18993,22.635464583333338,51,0.12838858333333292,77,0.1298717499999995
18994,22.765336333333337,46,0.1298717499999995,72,0.12875691666666356
18995,22.89409325,42,0.12875691666666356,72,0.12747925000000038
18996,23.0215725,54,0.12747925000000038,72,0.12605191666666826
18997,23.14762441666667,56,0.12605191666666826,77,0.6411540833333298
18998,23.273499083333334,49,0.12587466666666458,71,0.1269399166666645
18999,23.400439,42,0.1269399166666645,71,0.12802333333333493
19000,23.528462333333334,54,0.12802333333333493,71,0.12931191666666564
19001,23.65777425,56,0.12931191666666564,73,0.13100425000000016
19002,23.7887785,49,0.13100425000000016,67,0.13100425000000016
19003,23.91978275,42,0.13100425000000016,68,0.13100425000000016
19004,24.050787,54,0.13100425000000016,68,0.13100425000000016
19005,24.18179125,52,0.13100425000000016,75,0.13100425000000016
19006,24.3127955,49,0.13100425000000016,70,0.13100425000000016
19007,24.44379975,42,0.13100425000000016,71,0.13043474999999916
19008,24.5742345,54,0.13043474999999916,71,0.13043474999999916
19009,24.70466925,56,0.13043474999999916,77,0.1304347500000027
19010,24.835104,49,0.1304347500000027,72,0.13043474999999916
19011,24.96553875,42,0.13043474999999916,73,0.13043474999999916
19012,25.0959735,54,0.13043474999999916,73,0.1302465833333315
19013,25.22622008333333,56,0.1302465833333315,80,0.1300584166666674
19014,25.3562785,49,0.1300584166666674,74,0.1308144166666665
19015,25.487092916666665,42,0.1308144166666665,75,0.13157899999999856
19016,25.618671916666663,54,0.13157899999999856,77,0.13235341666666756
19017,25.75102533333333,56,0.13235341666666756,83,0.13313658333333223
19018,25.884161916666663,49,0.13313658333333223,78,0.13373008333333303
19019,26.017891999999996,42,0.13373008333333303,79,0.13473125000000152
19020,26.152623249999998,54,0.13473125000000152,79,0.13488274999999916
19021,26.287505999999997,56,0.13488274999999916,85,0.13887725000000728
19022,26.426383250000004,49,0.13887725000000728,80,0.14857958333333698
19023,26.57496283333334,42,0.14857958333333698,81,0.1597649833333321
19024,26.734727816666673,54,0.1597649833333321,82,0.17275311250000058
19025,26.907480929166674,56,0.17275311250000058,89,0.5813635000000019
19026,27.348657429166675,42,0.44117650000000097,72,0.3006536666666655
19027,27.488844429166676,54,0.14018700000000095,85,0.14342121666666685
19028,27.64931109583334,54,0.16046666666666454,85,0.6837659999999985
19029,27.99022009583334,30,0.3409089999999999,78,0.08571424999999877
19030,28.33307709583334,35,0.34285699999999864,79,0.16666675000000097
19031,28.666410595833337,51,0.3333334999999984,80,0.3431372500000016
19032,28.83307734583334,52,0.16666675000000097,79,0.17647050000000064
19033,29.00954784583334,56,0.17647050000000064,85,0.3415032916666654
19034,29.184384387500003,54,0.1748365416666644,80,0.31020750000000064
19035,29.267717762500002,56,0.08333337499999871,74,0.08333337500000226
19036,29.351051137500004,54,0.08333337500000226,85,0.32211225
19037,29.494591887500004,53,0.14354074999999966,80,0.17857150000000033
19038,29.673163387500004,54,0.17857150000000033,80,0.6798919999999988
19039,30.012146387500003,30,0.3389829999999989,73,0.08522724999999909
19040,30.353055387500003,35,0.3409089999999999,79,0.1612902500000004
19041,30.675635887500004,51,0.3225805000000008,80,0.33615825000000044
19042,30.842302637500005,52,0.16666675000000097,79,0.16949149999999946
19043,31.011794137500004,56,0.16949149999999946,85,0.3333334999999984
19044,31.178460887500005,54,0.16666675000000097,80,0.30952399999999614
19045,31.261794262500004,56,0.08333337499999871,74,0.08333337499999871
19046,31.345127637500003,54,0.08333337499999871,85,0.31331175000000044
19047,31.4879848875,53,0.14285724999999871,80,0.17045450000000173
19048,31.658439387500003,56,0.17045450000000173,85,0.3333334999999984
19049,31.825106137500004,54,0.16666675000000097,80,0.31818199999999663
19050,31.908439512500003,56,0.08333337499999871,74,0.08333337499999871
19051,31.9917728875,54,0.08333337499999871,85,0.1515152499999992
19052,32.1432881375,53,0.1515152499999992,80,0.17241374999999692
19053,32.3157018875,54,0.17241374999999692,80,0.26801812499999755
19054,32.583720012499995,42,0.26801812499999755,66,0.4674228749999969
19055,32.63439569999999,49,0.05067568749999651,66,0.4167471875000004
19056,32.685071387499995,57,0.05067568750000362,78,0.3660714999999968
19057,32.917214262499996,20,0.23214287500000097,57,0.35714300000000065
19058,32.9618571375,27,0.04464287500000097,57,0.4464287499999955
19059,33.0065000125,30,0.04464287500000097,68,0.2678572499999987
19060,33.05114288749999,56,0.044642874999993865,76,0.35714300000000065
19061,33.2743572625,27,0.22321437500000485,56,0.1339286249999958
19062,33.3190001375,32,0.04464287500000097,56,0.3125001249999997
19063,33.36364301249999,36,0.044642874999993865,67,0.2678572500000058
19064,33.40828588749999,51,0.04464287500000097,76,0.35714300000000065
19065,33.6315002625,25,0.22321437500000485,58,0.49107162499999646
19066,33.6761431375,32,0.04464287500000097,58,0.4464287499999955
19067,33.72078601249999,37,0.044642874999993865,69,0.4017858750000016
19068,33.76542888749999,52,0.04464287500000097,76,0.35714300000000065
19069,34.122571887499994,45,0.35714300000000065,73,0.36363649999999836
19070,34.24378405416666,33,0.12121216666666612,73,0.12121216666666612
19071,34.364996220833326,45,0.12121216666666612,73,0.12121216666666612
19072,34.48620838749999,44,0.12121216666666612,77,0.3529410000000013
19073,34.839149387499994,40,0.3529410000000013,72,0.38709699999999714
19074,35.129472137499995,45,0.2903227500000014,78,0.09677424999999573
19075,35.22624638749999,57,0.09677424999999573,89,0.5496362499999989
19076,35.63165188749999,44,0.40540550000000053,72,0.3046930000000003
19077,35.77588263749999,56,0.1442307499999984,85,0.14441602499999817
19078,35.93634488749999,56,0.16046225000000192,85,0.6838994999999954
19079,36.27342338749999,32,0.33707849999999695,78,0.0867052500000014
19080,36.62024438749999,37,0.3468209999999985,79,0.16666674999999742
19081,36.95357788749999,52,0.33333350000000195,80,0.34313724999999806
19082,37.12024463749999,54,0.16666674999999742,79,0.17647050000000064
19083,37.29671513749999,57,0.17647050000000064,85,0.3415032916666618
19084,37.47155167916665,56,0.1748365416666644,80,0.3102074999999971
19085,37.554885054166654,57,0.08333337500000226,74,0.08333337499999516
19086,37.63821842916665,56,0.08333337499999516,85,0.32211224999999644
19087,37.78175917916665,55,0.14354074999999966,80,0.17857149999999677
19088,37.960330679166645,56,0.17857149999999677,80,0.6818179999999998
19089,38.30123967916665,32,0.34090900000000346,73,0.08522724999999554
19090,38.642148679166645,37,0.34090899999999635,79,0.1612902500000004
19091,38.964729179166646,58,0.3225805000000008,80,0.35961983333333336
19092,39.140167679166645,59,0.1754384999999985,79,0.18418133333333486
19093,39.32434901249998,63,0.18418133333333486,84,0.1734105000000028
19094,39.49775951249998,58,0.1734105000000028,73,0.1734104999999957
19095,39.67117001249998,63,0.1734104999999957,78,0.14285724999999871
19096,39.89925451249998,61,0.22808450000000136,77,0.07670452499999669
19097,39.984481762499975,61,0.08522724999999554,81,0.16666674999999742
19098,40.15114851249997,54,0.16666674999999742,70,0.16666675000000453
19099,40.31781526249998,61,0.16666675000000453,75,0.14285724999999871
19100,40.54589976249998,59,0.22808450000000136,67,0.07670452499999669
19101,40.631127012499974,59,0.08522724999999554,78,0.16666674999999742
19102,40.79779376249997,54,0.16666674999999742,66,0.16666675000000453
19103,40.964460512499976,59,0.16666675000000453,73,0.14285724999999871
19104,41.19254501249998,58,0.22808450000000136,66,0.07670452499999669
19105,41.27777226249997,58,0.08522724999999554,75,0.16666674999999742
19106,41.44443901249997,53,0.16666674999999742,65,0.16666675000000453
19107,41.611105762499975,58,0.16666675000000453,71,0.14285724999999871
19108,41.839190262499976,56,0.22808450000000136,68,0.07670452499999669
19109,41.92441751249997,56,0.08522724999999554,73,0.16666674999999742
19110,42.09108426249997,49,0.16666674999999742,63,0.16666675000000453
19111,42.25775101249997,56,0.16666675000000453,69,0.14285724999999871
19112,42.485835512499975,54,0.22808450000000136,63,0.08522724999999554
19113,42.57106276249997,52,0.08522724999999554,75,0.6466452499999988
19114,42.73772951249997,47,0.16666674999999742,63,0.16666675000000453
19115,42.90439626249997,52,0.16666675000000453,70,0.3133117499999969
19116,43.13248076249997,51,0.22808450000000136,62,0.08522724999999554
19117,43.21770801249997,44,0.08522724999999554,63,0.6690798750000084
19118,43.55861701249997,37,0.34090900000000346,53,0.32817087500000497
19119,43.88678788749998,27,0.32817087500000497,54,0.31519749999999647
19120,43.96846138749998,47,0.08167350000000084,55,0.07964950000000215
19121,44.04811088749998,46,0.07964950000000215,55,0.07785795833333253
19122,44.12596884583331,47,0.07785795833333253,56,0.07601654166666094
19123,44.201985387499974,44,0.07601654166666094,56,0.32594012499999536
19124,44.365028887499975,46,0.16304350000000056,57,0.1628966249999948
19125,44.52792551249997,20,0.1628966249999948,58,0.31236545833332485
19126,44.60814092916664,49,0.0802154166666682,59,0.07881249999999795
19127,44.686953429166635,47,0.07881249999999795,59,0.07732099999999775
19128,44.76427442916663,49,0.07732099999999775,60,0.07601654166666094
19129,44.840290970833294,46,0.07601654166666094,60,0.3260870000000011
19130,45.003334470833295,47,0.16304350000000056,61,0.16304350000000056
19131,45.166377970833295,48,0.16304350000000056,60,0.33071424999999977
19132,45.3294569708333,49,0.1630790000000033,56,0.16763524999999646
19133,45.497092220833295,51,0.16763524999999646,56,0.33373874999999487
19134,45.65841722083329,52,0.16132499999999794,56,0.17241374999999692
19135,45.83083097083329,51,0.17241374999999692,60,0.3260870000000011
19136,46.15691797083329,56,0.3260870000000011,68,0.24456525000000084
19137,46.40148322083329,54,0.24456525000000084,62,0.07336957500000096
19138,46.48300497083329,54,0.08152175000000028,69,0.16304350000000056
19139,46.64604847083329,47,0.16304350000000056,64,0.3315827500000026
19140,46.80909197083329,59,0.16304350000000056,76,0.33707849999999695
19141,47.06190084583329,58,0.2528088749999995,70,0.08426962499999746
19142,47.14617047083329,56,0.08426962499999746,70,0.679047875000002
19143,47.49704747083329,37,0.350876999999997,59,0.32817087500000497
19144,47.82521834583329,27,0.32817087500000497,69,0.31519749999999647
19145,47.986541345833295,58,0.161323000000003,65,0.05208474999999879
19146,48.038626095833294,59,0.05208474999999879,66,0.051283416666663584
19147,48.08990951249996,58,0.051283416666663584,65,0.0505063333333311
19148,48.14041584583329,56,0.0505063333333311,66,0.32594012499999536
19149,48.30345934583329,58,0.16304350000000056,67,0.1628966249999948
19150,48.466355970833284,20,0.1628966249999948,71,0.31236545833332485
19151,48.62538388749995,59,0.15902791666666616,65,0.051679958333330944
19152,48.67706384583328,61,0.051679958333330944,65,0.05115124999999665
19153,48.72821509583328,59,0.05115124999999665,65,0.0505063333333311
19154,48.77872142916661,58,0.0505063333333311,71,0.3260870000000011
19155,48.94176492916661,59,0.16304350000000056,72,0.16304350000000056
19156,49.10480842916661,60,0.16304350000000056,75,0.1630790000000033
19157,49.26788742916661,61,0.1630790000000033,70,0.16670375000000348
19158,49.43459117916662,63,0.16670375000000348,70,0.33172700000000077
19159,49.596788429166615,64,0.1621972499999984,70,0.16952975000000237
19160,49.76631817916662,63,0.16952975000000237,75,0.17045449999999818
19161,50.10722717916662,68,0.34090900000000346,76,0.26117112499999706
19162,50.36839830416662,66,0.26117112499999706,69,0.07988163750000155
19163,50.45715567916662,66,0.08875737500000014,77,0.17241374999999692
19164,50.71577630416662,54,0.25862062499999894,60,0.3362070000000017
19165,50.75887974166662,42,0.04310343750000101,56,0.2931035625000007
19166,50.80198317916662,64,0.04310343750000101,76,0.2500001249999997
19167,51.05198330416662,63,0.2500001249999997,70,0.34496112500000464
19168,51.09364999166662,32,0.04166668749999758,60,0.30329443750000706
19169,51.13531667916662,61,0.041666687500004684,76,0.2616277500000024
19170,51.39694442916662,18,0.2616277500000024,56,0.3400181250000003
19171,51.440549054166624,25,0.0436046250000004,56,0.2964134999999999
19172,51.484153679166624,49,0.0436046250000004,70,0.2528088749999995
19173,51.736962554166624,51,0.2528088749999995,70,0.34544504166666457
19174,51.779097366666626,20,0.04213481250000228,52,0.34716985416665835
19175,51.82123217916662,52,0.04213481249999518,74,0.34889466666666635
19176,52.17012684583329,52,0.34889466666666635,72,0.25139662499999815
19177,52.421523470833286,51,0.25139662499999815,69,0.34695662499999713
19178,52.463422908333285,20,0.04189943749999969,52,0.30505718749999744
19179,52.505322345833285,49,0.04189943749999969,75,0.350876999999997
19180,52.76848009583328,18,0.26315774999999775,51,0.3391158749999974
19181,52.812339720833286,25,0.04385962500000318,51,0.2952562499999942
19182,52.85619934583328,47,0.04385962499999607,72,0.25139662499999815
19183,53.10759597083328,45,0.25139662499999815,68,0.34197704166666654
19184,53.14949540833328,20,0.04189943749999969,56,0.30007760416666684
19185,53.19139484583328,44,0.04189943749999969,71,0.25817816666666715
19186,53.53627826249995,24,0.34488341666666855,59,0.08621258333333515
19187,53.62249084583328,25,0.08621258333333515,59,0.08522724999999554
19188,53.70771809583328,27,0.08522724999999554,60,0.08506675000000286
19189,53.79278484583328,28,0.08506675000000286,61,0.08474574999999618
19190,53.87753059583328,30,0.08474574999999618,61,0.08426962499999746
19191,53.961800220833275,32,0.08426962499999746,62,0.08395579166666778
19192,54.04575601249994,34,0.08395579166666778,63,0.08379887499999938
19193,54.12955488749994,36,0.08379887499999938,63,0.08348854166666086
19194,54.2130434291666,37,0.08348854166666086,64,0.08317987500000612
19195,54.29622330416661,39,0.08317987500000612,65,0.08287287499999962
19196,54.37909617916661,40,0.08287287499999962,65,0.08241762499999794
19197,54.46151380416661,42,0.08241762499999794,66,0.08241762500000505
19198,54.54393142916661,44,0.08241762500000505,67,0.08196724999999816
19199,54.62589867916661,46,0.08196724999999816,67,0.08167025000000194
19200,54.70756892916661,48,0.08167025000000194,68,0.08137487500000162
19201,54.788943804166614,49,0.08137487500000162,68,0.0810811250000043
19202,54.87002492916662,51,0.0810811250000043,69,0.08093579166666842
19203,54.95096072083329,52,0.08093579166666842,70,0.08064512499999665
19204,55.03160584583328,54,0.08064512499999665,70,0.08021387499999832
19205,55.11181972083328,56,0.08021387499999832,71,0.07992945833333209
19206,55.191749179166614,58,0.07992945833333209,72,0.07964654166666918
19207,55.27139572083328,60,0.07964654166666918,72,0.07936512500000248
19208,55.350760845833285,49,0.07936512500000248,77,0.17647050000000064
19209,55.61546659583328,63,0.2647057499999974,71,0.08823525000000387
19210,55.70370184583329,58,0.08823525000000387,76,0.1621622500000015
19211,55.86586409583329,57,0.1621622500000015,71,0.1621622500000015
19212,56.02802634583329,58,0.1621622500000015,75,0.3529410000000013
19213,56.38096734583329,42,0.3529410000000013,72,0.34090900000000346
19214,56.721876345833294,59,0.34090900000000346,73,0.3389829999999989
19215,57.06085934583329,54,0.3389829999999989,71,0.35502950000000055
19216,57.415888845833294,56,0.35502950000000055,77,0.34482750000000095
19217,57.760716345833295,59,0.34482750000000095,72,0.3592815000000016
19218,58.119997845833296,49,0.3592815000000016,81,0.350876999999997
19219,58.47087484583329,56,0.350876999999997,78,0.3921569999999974
19220,58.86303184583329,47,0.3921569999999974,87,0.4137929999999983
19221,59.27682484583329,54,0.4137929999999983,82,0.4761905000000013
19222,59.75301534583329,68,0.4761905000000013,97,0.5913149999999945
19223,60.20414334583329,42,0.4511279999999971,79,0.3006492499999993
19224,60.344330345833285,66,0.1401869999999974,93,0.14441602499999817
19225,60.50479259583329,66,0.16046225000000192,93,0.350876999999997
19226,60.767950345833285,42,0.26315774999999775,71,0.08771924999999925
19227,60.855669595833284,30,0.08771924999999925,85,0.08522725000000264
19228,60.92385139583328,44,0.06818179999999785,71,0.06818180000000496
19229,60.99203319583329,42,0.06818180000000496,71,0.06818179999999785
19230,61.060214995833284,41,0.06818179999999785,71,0.06818179999999785
19231,61.12839679583328,42,0.06818179999999785,71,0.06818180000000496
19232,61.19657859583329,47,0.06818180000000496,87,0.16666674999999742
19233,61.52991209583329,63,0.33333350000000195,88,0.34313724999999806
19234,61.69657884583329,64,0.16666674999999742,86,0.17647050000000064
19235,61.87304934583329,68,0.17647050000000064,93,0.3415032916666618
19236,62.131219262499954,66,0.25816991666666667,88,0.07500003749999706
19237,62.21455263749995,66,0.08333337499999516,93,0.32211224999999644
19238,62.35809338749995,65,0.14354074999999966,88,0.17857149999999677
19239,62.536664887499946,66,0.17857149999999677,88,0.35714300000000065
19240,62.80452213749995,42,0.2678572500000058,70,0.08928574999999483
19241,62.893807887499946,30,0.08928574999999483,80,0.08522725000000264
19242,62.961989687499944,44,0.06818179999999785,70,0.06818180000000496
19243,63.03017148749995,42,0.06818180000000496,70,0.06818179999999785
19244,63.09835328749995,41,0.06818179999999785,70,0.06818179999999785
19245,63.166535087499945,42,0.06818179999999785,70,0.06818180000000496
19246,63.23471688749995,47,0.06818180000000496,87,0.1612902500000004
19247,63.55729738749995,63,0.3225805000000008,88,0.3361582499999969
19248,63.72396413749995,64,0.16666674999999742,86,0.16949149999999946
19249,63.89345563749995,68,0.16949149999999946,93,0.33333350000000195
19250,64.06012238749994,66,0.16666674999999742,88,0.30952400000001035
19251,64.14345576249995,68,0.08333337500000937,81,0.08333337499999516
19252,64.22678913749995,66,0.08333337499999516,93,0.3133117500000111
19253,64.36964638749996,65,0.14285725000000582,88,0.17045450000000528
19254,64.54010088749996,68,0.17045450000000528,93,0.33333349999999484
19255,64.70676763749996,66,0.16666675000000453,88,0.3181819999999931
19256,64.79010101249996,68,0.08333337499999516,81,0.08333337499999516
19257,64.87343438749996,66,0.08333337499999516,93,0.15151525000000277
19258,65.02494963749996,65,0.15151525000000277,88,0.17241375000000403
19259,65.19736338749996,66,0.17241375000000403,88,0.2715618750000033
19260,65.46892526249997,54,0.2715618750000033,72,0.3816808750000007
19261,65.52137282499997,61,0.052447562500006484,72,0.3292333124999942
19262,65.57382038749996,69,0.05244756249999227,85,0.27678575000000194
19263,65.80596326249996,20,0.23214287499999386,62,0.35714300000000776
19264,65.85060613749997,54,0.044642875000008075,70,0.4464287499999955
19265,65.89524901249996,30,0.044642874999993865,74,0.3125001249999997
19266,65.93989188749997,68,0.044642875000008075,83,0.2678572499999916
19267,66.16310626249997,51,0.22321437499999774,70,0.4017858750000016
19268,66.20774913749996,54,0.044642874999993865,70,0.35714300000000776
19269,66.25239201249997,42,0.044642875000008075,73,0.3125001249999997
19270,66.29703488749996,63,0.044642874999993865,83,0.2678572500000058
19271,66.56489213749997,49,0.2678572500000058,70,0.4464287499999955
19272,66.60953501249996,32,0.044642874999993865,75,0.4017858750000016
19273,66.65417788749997,64,0.044642875000008075,83,0.35714299999999355
19274,67.01132088749996,57,0.35714299999999355,80,0.36363649999999836
19275,67.13253305416663,45,0.12121216666666612,80,0.12121216666666612
19276,67.2537452208333,57,0.12121216666666612,80,0.12121216666666612
19277,67.37495738749996,56,0.12121216666666612,84,0.3529410000000013
19278,67.72789838749996,52,0.3529410000000013,79,0.38709699999999714
19279,68.11499538749996,69,0.38709699999999714,97,0.5363877500000029
19280,68.50715238749996,44,0.3921569999999974,79,0.3063929999999999
19281,68.65138313749996,68,0.14423075000000551,93,0.14594602500000065
19282,68.81354538749996,68,0.1621622499999944,93,0.3468210000000056
19283,69.07366113749995,44,0.2601157499999971,71,0.0867052500000085
19284,69.16036638749996,32,0.0867052500000085,85,0.08522725000000264
19285,69.22854818749997,45,0.06818180000000496,71,0.06818179999999074
19286,69.29672998749996,44,0.06818179999999074,71,0.06818180000000496
19287,69.36491178749996,43,0.06818180000000496,71,0.06818180000000496
19288,69.43309358749997,44,0.06818180000000496,71,0.06818179999999074
19289,69.50127538749996,49,0.06818179999999074,87,0.16666675000000453
19290,69.83460888749995,64,0.33333349999999484,88,0.34313724999999806
19291,70.00127563749996,66,0.16666675000000453,86,0.17647049999999354
19292,70.17774613749995,69,0.17647049999999354,93,0.34150329166666893
19293,70.43591605416661,68,0.25816991666665956,88,0.07500003750000417
19294,70.51924942916662,68,0.08333337500000937,93,0.32211225000000354
19295,70.66279017916662,67,0.14354074999999966,88,0.17857150000000388
19296,70.84136167916662,56,0.17857150000000388,88,0.35714299999999355
19297,71.10921892916662,44,0.2678572499999916,71,0.08928575000000194
19298,71.19850467916662,32,0.08928575000000194,80,0.08522725000000264
19299,71.26668647916662,45,0.06818180000000496,71,0.06818179999999074
19300,71.33486827916661,44,0.06818179999999074,71,0.06818180000000496
19301,71.40305007916662,43,0.06818180000000496,71,0.06818180000000496
19302,71.47123187916662,44,0.06818180000000496,71,0.06818179999999074
19303,71.53941367916661,49,0.06818179999999074,87,0.3225805000000008
19304,71.86199417916662,70,0.3225805000000008,96,0.35961983333334047
19305,72.03743267916661,71,0.1754384999999985,94,0.18418133333334197
19306,72.22161401249996,75,0.18418133333334197,101,0.1734105000000028
19307,72.39502451249996,70,0.1734105000000028,88,0.1734105000000028
19308,72.56843501249996,75,0.1734105000000028,93,0.3133117500000111
19309,72.71129226249997,49,0.14285725000000582,70,0.17045450000000528
19310,72.79651951249997,73,0.08522725000000264,92,0.07670452499999669
19311,72.88174676249997,73,0.08522725000000264,97,0.16666675000000453
19312,73.04841351249998,66,0.16666675000000453,84,0.16666674999999032
19313,73.21508026249997,73,0.16666674999999032,90,0.3133117500000111
19314,73.35793751249997,47,0.14285725000000582,70,0.17045450000000528
19315,73.44316476249998,71,0.08522725000000264,80,0.07670452499999669
19316,73.52839201249998,71,0.08522725000000264,93,0.16666675000000453
19317,73.69505876249998,66,0.16666675000000453,79,0.16666674999999032
19318,73.86172551249997,71,0.16666674999999032,88,0.3133117500000111
19319,74.00458276249998,46,0.14285725000000582,70,0.17045450000000528
19320,74.08981001249998,70,0.08522725000000264,79,0.07670452499999669
19321,74.17503726249998,70,0.08522725000000264,90,0.16666675000000453
19322,74.34170401249999,65,0.16666675000000453,78,0.16666674999999032
19323,74.50837076249998,70,0.16666674999999032,85,0.3133117500000111
19324,74.65122801249998,44,0.14285725000000582,70,0.17045450000000528
19325,74.73645526249999,68,0.08522725000000264,81,0.07670452499999669
19326,74.82168251249999,68,0.08522725000000264,88,0.16666675000000453
19327,74.9883492625,61,0.16666675000000453,75,0.16666674999999032
19328,75.15501601249998,68,0.16666674999999032,82,0.3133117500000111
19329,75.29787326249999,42,0.14285725000000582,70,0.17045450000000528
19330,75.3831005125,66,0.08522725000000264,75,0.08522725000000264
19331,75.4683277625,64,0.08522725000000264,90,0.6466452500000059
19332,75.6349945125,59,0.16666675000000453,75,0.16666674999999032
19333,75.80166126249999,64,0.16666674999999032,84,0.3133117500000111
19334,75.9445185125,39,0.14285725000000582,70,0.17045450000000528
19335,76.0297457625,63,0.08522725000000264,74,0.08522725000000264
19336,76.1149730125,44,0.08522725000000264,92,0.6690798749999942
19337,76.4558820125,37,0.34090899999999635,64,0.32817087499999786
19338,76.7840528875,27,0.32817087499999786,75,0.31519749999999647
19339,76.8657263875,47,0.08167350000000795,71,0.07964949999998794
19340,76.94537588749999,46,0.07964949999998794,71,0.07785795833333964
19341,77.02323384583333,47,0.07785795833333964,72,0.07601654166666094
19342,77.09925038749999,44,0.07601654166666094,72,0.32594012500000247
19343,77.2622938875,46,0.16304350000000056,73,0.1628966250000019
19344,77.4251905125,20,0.1628966250000019,78,0.31236545833331775
19345,77.50540592916666,49,0.0802154166666611,75,0.07881249999999795
19346,77.58421842916665,47,0.07881249999999795,77,0.07732099999999775
19347,77.66153942916665,49,0.07732099999999775,77,0.07601654166666094
19348,77.73755597083331,46,0.07601654166666094,78,0.3260870000000011
19349,77.90059947083331,47,0.16304350000000056,79,0.16304350000000056
19350,78.06364297083331,48,0.16304350000000056,82,0.3389829999999989
19351,78.23313447083332,49,0.16949150000000657,77,0.16949149999999236
19352,78.40262597083331,51,0.16949149999999236,77,0.33287599999999884
19353,78.56308822083331,52,0.1604622499999948,77,0.17241375000000403
19354,78.73550197083331,51,0.17241375000000403,82,0.3260870000000011
19355,79.06158897083331,56,0.3260870000000011,83,0.24456524999999374
19356,79.3061542208333,54,0.24456524999999374,75,0.07336957500000096
19357,79.38767597083331,54,0.08152175000000739,84,0.16304350000000056
19358,79.55071947083331,47,0.16304350000000056,79,0.3315827499999955
19359,79.71376297083332,59,0.16304350000000056,83,0.33707850000000406
19360,79.96657184583331,58,0.2528088749999995,77,0.08426962500000457
19361,80.05084147083332,56,0.08426962500000457,77,0.6790478749999949
19362,80.40171847083332,37,0.350876999999997,64,0.32817087499999786
19363,80.72988934583331,27,0.32817087499999786,75,0.31519749999999647
19364,80.89121234583331,58,0.1613229999999959,71,0.0520847500000059
19365,80.94329709583332,59,0.0520847500000059,72,0.051283416666663584
19366,80.99458051249998,58,0.051283416666663584,71,0.0505063333333311
19367,81.04508684583331,56,0.0505063333333311,72,0.32594012500000247
19368,81.20813034583331,58,0.16304350000000056,73,0.1628966250000019
19369,81.37102697083331,20,0.1628966250000019,78,0.31236545833331775
19370,81.53005488749997,59,0.15902791666665905,71,0.05167995833333805
19371,81.58173484583331,61,0.05167995833333805,71,0.051151249999989545
19372,81.6328860958333,59,0.051151249999989545,71,0.0505063333333311
19373,81.68339242916663,58,0.0505063333333311,78,0.3260870000000011
19374,81.84643592916663,59,0.16304350000000056,79,0.16304350000000056
19375,82.00947942916663,60,0.16304350000000056,82,0.16397025000000554
19376,82.17344967916664,61,0.16397025000000554,77,0.16670374999999638
19377,82.34015342916663,63,0.16670374999999638,77,0.3299022500000035
19378,82.50147842916664,64,0.16132500000000505,77,0.16857724999999846
19379,82.67005567916664,63,0.16857724999999846,82,0.17045450000000528
19380,83.01096467916663,68,0.34090899999999635,83,0.26117112500000417
19381,83.27213580416664,66,0.26117112500000417,75,0.07988163749999444
19382,83.36089317916664,66,0.08875737500000014,84,0.17241375000000403
19383,83.57641036666664,32,0.21551718749999793,61,0.3793104374999956
19384,83.61951380416664,54,0.04310343750000811,66,0.3362069999999875
19385,83.66261724166664,42,0.0431034374999939,61,0.2931035624999936
19386,83.70572067916663,64,0.0431034374999939,83,0.2500001249999997
19387,83.95572080416663,63,0.2500001249999997,77,0.34496112499999754
19388,83.99738749166663,32,0.04166668749999758,66,0.30329443749999996
19389,84.03905417916663,61,0.04166668749999758,83,0.2616277500000024
19390,84.30068192916663,30,0.2616277500000024,61,0.3400181250000003
19391,84.34428655416663,37,0.0436046250000004,61,0.2964134999999999
19392,84.38789117916663,61,0.0436046250000004,77,0.2528088749999995
19393,84.64070005416663,63,0.2528088749999995,77,0.3454450416666788
19394,84.68283486666662,32,0.04213481249999518,57,0.3033102291666836
19395,84.72496967916663,64,0.04213481250000939,81,0.34889466666668056
19396,84.98614509583331,18,0.2611754166666742,57,0.3391158750000045
19397,85.0300047208333,25,0.04385962499999607,57,0.29525625000000844
19398,85.07386434583331,64,0.04385962500001028,79,0.25139662499999815
19399,85.32526097083331,63,0.25139662499999815,75,0.34695662500000424
19400,85.36716040833332,20,0.0418994375000068,57,0.30505718749999744
19401,85.40905984583331,61,0.04189943749999259,82,0.350876999999997
19402,85.67221759583332,18,0.26315775000000485,56,0.3391158749999903
19403,85.71607722083331,25,0.04385962499999607,56,0.2952562499999942
19404,85.75993684583331,59,0.04385962499999607,79,0.25139662499999815
19405,86.0113334708333,57,0.25139662499999815,74,0.34197704166668075
19406,86.05323290833331,32,0.0418994375000068,61,0.30007760416667395
19407,86.0951323458333,56,0.04189943749999259,78,0.25817816666668136
19408,86.44001576249998,24,0.34488341666667566,64,0.08400774999999783
19409,86.52402351249998,25,0.08400774999999783,64,0.08321057500000961
19410,86.60723408749999,27,0.08321057500000961,66,0.08287287499999252
19411,86.69010696249998,28,0.08287287499999252,67,0.08244797499999379
19412,86.77255493749998,30,0.08244797499999379,67,0.08214740000001086
19413,86.85470233749999,32,0.08214740000001086,68,0.08184844999999541
19414,86.93655078749998,34,0.08184844999999541,69,0.08152175000000739
19415,87.01807253749999,36,0.08152175000000739,69,0.08111049999999409
19416,87.09918303749998,37,0.08111049999999409,70,0.08081952499999545
19417,87.18000256249998,39,0.08081952499999545,71,0.08053012500000989
19418,87.26053268749999,40,0.08053012500000989,71,0.08021387499999832
19419,87.34074656249999,42,0.08021387499999832,72,0.07981569166666702
19420,87.42056225416665,44,0.07981569166666702,73,0.07953397499998971
19421,87.50009622916664,46,0.07953397499998971,73,0.07925372499998673
19422,87.57934995416663,48,0.07925372499998673,74,0.0789473750000127
19423,87.65829732916664,49,0.0789473750000127,74,0.07856155833331968
19424,87.73685888749996,51,0.07856155833331968,75,0.07828860000000759
19425,87.81514748749997,52,0.07828860000000759,77,0.07801706666667485
19426,87.89316455416665,54,0.07801706666667485,77,0.07772024999999871
19427,87.97088480416664,56,0.07772024999999871,78,0.07734633333333818
19428,88.04823113749998,58,0.07734633333333818,77,0.07708172499999932
19429,88.12531286249998,60,0.07708172499999932,77,0.07681845833333512
19430,88.20213132083332,61,0.07681845833333512,78,0.07653062500000374
19431,88.27866194583332,63,0.07653062500000374,79,0.07616802499998698
19432,88.35482997083331,64,0.07616802499998698,80,0.07591142500000103
19433,88.43074139583331,66,0.07591142500000103,80,0.07565609166667286
19434,88.50639748749998,68,0.07565609166667286,81,0.07537687500000345
19435,88.58177436249998,70,0.07537687500000345,82,0.09457000000000448
19436,88.67634436249999,72,0.09457000000000448,83,0.08928562500000226
19437,88.76562998749999,73,0.08928562500000226,92,0.17647049999999354
19438,89.0303357375,75,0.2647057500000045,85,0.08823524999999677
19439,89.1185709875,70,0.08823524999999677,91,0.1621622499999944
19440,89.28073323749999,69,0.1621622499999944,85,0.1621622500000086
19441,89.4428954875,73,0.1621622500000086,90,0.3529410000000013
19442,89.7958364875,70,0.3529410000000013,85,0.34090899999999635
19443,90.1367454875,71,0.34090899999999635,88,0.3389829999999989
19444,90.47572848749999,66,0.3389829999999989,85,0.35502950000000055
19445,90.8307579875,68,0.35502950000000055,85,0.20134224999999617
19446,91.2334424875,30,0.40268450000000655,69,0.7692310000000049
19447,91.5219041125,40,0.2884616249999965,67,0.08653848750000748
19448,91.6180579875,49,0.09615387499999883,72,0.7927790000000101
19449,92.0026734875,18,0.38461550000000955,61,0.20408175000000028
19450,92.4108369875,47,0.40816350000000057,67,0.20408175000000028
19451,93.2271639875,63,0.8163270000000011,78,0.20408175000000028
19452,93.6353274875,51,0.40816350000000057,51,0.18292674999999292
19453,93.9097176125,51,0.2743901249999965,47,0.09146337500000357
19454,94.0011809875,51,0.09146337500000357,55,0.38461549999999534
19455,94.3857964875,51,0.38461549999999534,51,0.1807230000000004
19456,94.6568809875,51,0.2710845000000006,47,0.0903615000000002
19457,94.7472424875,51,0.0903615000000002,58,0.3797469999999947
19458,95.1269894875,51,0.3797469999999947,55,0.1807230000000004
19459,95.3980739875,51,0.2710845000000006,52,0.0903615000000002
19460,95.4884354875,51,0.0903615000000002,62,0.3797469999999947
19461,95.8681824875,51,0.3797469999999947,58,0.1807230000000004
19462,96.1392669875,51,0.2710845000000006,55,0.0903615000000002
19463,96.2296284875,51,0.0903615000000002,67,0.3773584999999997
19464,96.6069869875,51,0.3773584999999997,61,0.1807230000000004
19465,96.8780714875,51,0.2710845000000006,56,0.0903615000000002
19466,96.9684329875,51,0.0903615000000002,68,0.3773584999999997
19467,97.3457914875,51,0.3773584999999997,66,0.17964075000000435
19468,97.6152526125,51,0.2694611250000065,61,0.08982037499998796
19469,97.70507298749999,55,0.08982037499998796,68,0.40540550000000053
19470,98.11047848749999,55,0.40540550000000053,71,0.7143164999999954
19471,98.28388898749999,46,0.1734105000000028,54,0.09803924999999936
19472,98.47996748749999,36,0.1960784999999987,60,0.17241375000000403
19473,98.6523812375,46,0.17241375000000403,56,0.17241374999998982
19474,98.82479498749998,65,0.17241374999998982,66,0.16853924999999492
19475,98.99333423749998,55,0.16853924999999492,69,0.17751475000000028
19476,99.17084898749998,56,0.17751475000000028,71,0.33519549999999754
19477,99.50604448749998,58,0.33519549999999754,71,0.33519549999999754
19478,99.75744111249998,65,0.25139662499999815,68,0.08379887499999938
19479,99.84123998749997,55,0.08379887499999938,68,0.33519550000001175
19480,100.17643548749999,39,0.33519550000001175,59,0.08287287500000673
19481,100.2593083625,43,0.08287287500000673,61,0.08287287499999252
19482,100.34218123749999,46,0.08287287499999252,62,0.08272112500000617
19483,100.42490236249999,50,0.08272112500000617,63,0.08241762500000505
19484,100.5073199875,51,0.08241762500000505,64,0.08226749999998617
19485,100.58958748749998,55,0.08226749999998617,66,0.08196725000000527
19486,100.67155473749999,58,0.08196725000000527,68,0.08196724999999105
19487,100.75352198749998,62,0.08196724999999105,68,0.08167025000001615
19488,100.8351922375,63,0.08167025000001615,70,0.16274974999998904
19489,100.91671398749999,67,0.08152174999999318,72,0.08122799999999586
19490,100.99794198749998,70,0.08122799999999586,73,0.16187158333333684
19491,101.0790231125,75,0.08108112500001141,74,0.08079045833332543
19492,101.15981357083332,76,0.08079045833332543,75,0.3499050833333541
19493,101.50971865416668,77,0.3499050833333541,79,0.3700997500000227
19494,101.8798184041667,78,0.3700997500000227,82,0.2097902499999975
19495,102.2993989041667,54,0.419580499999995,51,0.18292674999999292
19496,102.57378902916669,54,0.2743901249999965,47,0.09146337500000357
19497,102.6652524041667,54,0.09146337500000357,55,0.38461549999999534
19498,103.04986790416669,54,0.38461549999999534,51,0.1807230000000004
19499,103.32095240416669,54,0.2710845000000006,47,0.0903615000000002
19500,103.41131390416669,54,0.0903615000000002,58,0.3797469999999947
19501,103.79106090416668,54,0.3797469999999947,55,0.1807230000000004
19502,104.06214540416669,54,0.2710845000000006,52,0.0903615000000002
19503,104.15250690416669,54,0.0903615000000002,62,0.3797469999999947
19504,104.53225390416668,54,0.3797469999999947,58,0.1807230000000004
19505,104.80333840416668,54,0.2710845000000006,55,0.0903615000000002
19506,104.89369990416668,54,0.0903615000000002,67,0.3773584999999997
19507,105.27105840416668,54,0.3773584999999997,61,0.1807230000000004
19508,105.54214290416668,54,0.2710845000000006,56,0.0903615000000002
19509,105.63250440416668,54,0.0903615000000002,68,0.3773584999999997
19510,106.00986290416668,54,0.3773584999999997,66,0.17964075000000435
19511,106.27932402916669,54,0.2694611250000065,61,0.08982037499998796
19512,106.36914440416668,58,0.08982037499998796,68,0.40540550000000053
19513,106.77454990416668,58,0.40540550000000053,71,0.7143164999999954
19514,106.94796040416668,49,0.1734105000000028,54,0.09803924999999936
19515,107.14403890416668,51,0.1960784999999987,60,0.17241375000000403
19516,107.31645265416668,49,0.17241375000000403,56,0.17241374999998982
19517,107.48886640416667,65,0.17241374999998982,66,0.16853924999999492
19518,107.65740565416667,70,0.16853924999999492,69,0.17751475000000028
19519,107.83492040416667,71,0.17751475000000028,71,0.33519549999999754
19520,108.04441759166667,37,0.20949718750000557,53,0.4705258124999858
19521,108.08631702916666,44,0.04189943749999259,53,0.42862637499999323
19522,108.12821646666667,47,0.0418994375000068,53,0.38672693749998643
19523,108.17011590416666,70,0.04189943749999259,71,0.34482749999999385
19524,108.42873652916667,68,0.25862062500000604,68,0.0862068749999878
19525,108.51494340416666,70,0.0862068749999878,68,0.35714299999999355
19526,108.87208640416665,58,0.35714299999999355,67,0.35714300000000776
19527,109.13994365416666,56,0.2678572500000058,63,0.08928575000000194
19528,109.22922940416666,54,0.08928575000000194,59,0.35714299999999355
19529,109.58637240416665,46,0.35714299999999355,67,0.35714300000000776
19530,109.85422965416666,44,0.2678572500000058,63,0.08928575000000194
19531,109.94351540416666,42,0.08928575000000194,59,0.38709699999999714
19532,110.33061240416666,18,0.38709699999999714,45,0.19354850000000567
19533,110.71770940416665,44,0.38709699999999714,68,1.4842625000000282
19534,111.10480640416667,34,0.38709700000001135,45,0.12786993749999453
19535,111.27529965416667,34,0.17049325000000692,47,0.14614181250000513
19536,111.47015540416668,34,0.1948557500000021,49,0.2710845000000006
19537,111.83160140416668,34,0.3614460000000008,45,0.2777778749999982
19538,112.20197190416668,37,0.37037050000000704,63,0.7547169999999994
19539,112.57933040416668,34,0.3773584999999997,45,0.28301887499999623
19540,112.95668890416668,39,0.3773584999999997,67,1.4406542499999944
19541,113.32705940416669,34,0.37037050000000704,47,0.12643293749999884
19542,113.49563665416669,34,0.16857724999999846,47,0.13722862500000588
19543,113.67860815416668,34,0.18297149999999363,50,0.269525625
19544,114.03797565416669,39,0.3593675000000047,64,0.269525625
19545,114.30750127916669,40,0.269525625,62,0.08984187499999052
19546,114.39734315416668,25,0.08984187499999052,55,0.36147687500000814
19547,114.49051327916668,42,0.09317012500000033,54,0.09146566666667866
19548,114.58197894583336,40,0.09146566666667866,56,0.08928783333333001
19549,114.67126677916669,42,0.08928783333333001,56,0.08755324999999914
19550,114.75882002916669,40,0.08755324999999914,57,0.3529797916666695
19551,114.82841942916669,42,0.06959940000000131,57,0.07007339999999829
19552,114.89849282916668,40,0.07007339999999829,56,0.07058860833333824
19553,114.96908143750002,39,0.07058860833333824,56,0.07111157500000331
19554,115.04019301250003,40,0.07111157500000331,55,0.07160680833332833
19555,115.11179982083335,39,0.07160680833332833,67,1.3963337500000108
19556,115.47324582083336,34,0.3614460000000008,47,0.12572643750000623
19557,115.64088107083336,34,0.16763525000000357,47,0.13008787500000096
19558,115.81433157083336,34,0.17345050000000128,50,0.2601757500000019
19559,116.16123257083336,39,0.34690100000000257,64,0.2601757500000019
19560,116.42140832083336,40,0.2601757500000019,62,0.08672525000000064
19561,116.50813357083337,25,0.08672525000000064,55,0.35877784166663673
19562,116.60169483750003,42,0.09356126666666853,54,0.09098835833331975
19563,116.69268319583335,40,0.09098835833331975,56,0.08830977499998482
19564,116.78099297083334,42,0.08830977499998482,56,0.08591844166666363
19565,116.8669114125,40,0.08591844166666363,57,0.34931524166664474
19566,116.93512677916667,42,0.06821536666666361,57,0.06899987499998872
19567,117.00412665416665,40,0.06899987499998872,56,0.0698702000000111
19568,117.07399685416667,39,0.0698702000000111,56,0.07069344166664848
19569,117.14469029583331,40,0.07069344166664848,55,0.07153635833333283
19570,117.21622665416665,39,0.07153635833333283,64,0.3592815000000087
19571,117.57550815416666,41,0.3592815000000087,56,0.16487150000000383
19572,117.74037965416666,43,0.16487150000000383,58,0.17345050000000128
19573,117.91383015416666,44,0.17345050000000128,61,0.34867566666666505
19574,118.26250582083333,46,0.34867566666666505,64,0.3517778333333439
19575,118.61428365416667,49,0.3517778333333439,63,0.7278064125000157
19576,118.78904215416668,47,0.17475850000001003,62,0.17681858333334333
19577,118.96586073750002,46,0.17681858333334333,61,0.3762293291666623
19578,119.14514507083335,44,0.17928433333332805,59,0.0903615000000002
19579,119.23550657083335,44,0.0903615000000002,49,0.0530120583333229
19580,119.28851862916667,44,0.0530120583333229,48,0.05357143750001114
19581,119.34209006666669,56,0.05357143750001114,68,1.4504729999999881
19582,119.72183706666668,44,0.3797469999999947,45,0.1308444375000022
19583,119.89629631666668,44,0.17445924999999818,47,0.1380706875000044
19584,120.08039056666668,44,0.18409425000000113,49,0.2662721250000004
19585,120.43542006666668,44,0.35502950000000055,45,0.2678572500000058
19586,120.79256306666667,49,0.35714299999999355,63,0.7228920000000016
19587,121.15400906666667,44,0.3614460000000008,45,0.2710845000000006
19588,121.51545506666668,51,0.3614460000000008,67,1.0631999999999948
19589,121.87690106666668,43,0.3614460000000008,47,0.13157887500000243
19590,122.05233956666667,43,0.1754384999999985,47,0.13157887500000243
19591,122.22777806666667,43,0.1754384999999985,50,0.26315775000000485
19592,122.57865506666667,51,0.350876999999997,64,0.26315775000000485
19593,122.84181281666667,52,0.26315775000000485,62,0.04385962499999607
19594,122.88567244166667,40,0.04385962499999607,49,0.04385962500001028
19595,122.92953206666668,25,0.04385962500001028,55,0.35877784166663673
19596,123.02309333333335,54,0.09356126666666853,54,0.09098835833331975
19597,123.11408169166667,52,0.09098835833331975,56,0.08830977499998482
19598,123.20239146666665,54,0.08830977499998482,56,0.08591844166666363
19599,123.28830990833332,52,0.08591844166666363,57,0.34931524166664474
19600,123.35652527499998,54,0.06821536666666361,57,0.06899987499998872
19601,123.42552514999997,52,0.06899987499998872,56,0.0698702000000111
19602,123.49539534999998,51,0.0698702000000111,56,0.07069344166664848
19603,123.56608879166663,52,0.07069344166664848,55,0.07153635833333283
19604,123.63762514999996,51,0.07153635833333283,67,1.0574542500000064
19605,123.99907114999996,43,0.3614460000000008,47,0.12786993749999453
19606,124.16956439999997,43,0.17049325000000692,48,0.1339605000000006
19607,124.34817839999997,43,0.17861399999999605,50,0.2601757500000019
19608,124.69507939999997,51,0.34690100000000257,66,0.2601757500000019
19609,124.95525514999997,52,0.2601757500000019,64,0.04336262500000032
19610,124.99861777499997,40,0.04336262500000032,51,0.04336262500000032
19611,125.04198039999997,25,0.04336262500000032,57,0.35877784166663673
19612,125.13554166666664,54,0.09356126666666853,56,0.09098835833331975
19613,125.22653002499996,52,0.09098835833331975,58,0.08830977499998482
19614,125.31483979999994,54,0.08830977499998482,58,0.08591844166666363
19615,125.40075824166661,52,0.08591844166666363,60,0.34895389166665325
19616,125.46897360833327,54,0.06821536666666361,60,0.06899987499998872
19617,125.53797348333326,52,0.06899987499998872,59,0.0698702000000111
19618,125.60784368333327,51,0.0698702000000111,58,0.07069344166664848
19619,125.67853712499992,52,0.07069344166664848,57,0.07117500833334134
19620,125.74971213333326,25,0.07117500833334134,58,0.33880495000001076
19621,125.83570553749993,54,0.0859934041666719,57,0.08509903333333568
19622,125.92080457083327,53,0.08509903333333568,59,0.08427052083334274
19623,126.00507509166661,54,0.08427052083334274,60,0.08344199166666044
19624,126.08851708333327,53,0.08344199166666044,61,0.33333349999999484
19625,126.15518378333327,54,0.06666669999999897,61,0.06666669999999897
19626,126.22185048333327,53,0.06666669999999897,61,0.06666669999999897
19627,126.28851718333327,52,0.06666669999999897,60,0.06666669999999897
19628,126.35518388333327,53,0.06666669999999897,59,0.06666669999999897
19629,126.42185058333327,18,0.06666669999999897,62,0.3330893000000117
19630,126.50518395833328,56,0.08333337500000937,59,0.08333337499999516
19631,126.58851733333327,54,0.08333337499999516,60,0.08333337499999516
19632,126.67185070833327,56,0.08333337499999516,62,0.083089175000012
19633,126.75493988333328,54,0.083089175000012,62,0.3266338833333293
19634,126.83729745833327,56,0.08235757499998897,63,0.08184844999999541
19635,126.91914590833326,54,0.08184844999999541,64,0.0814629999999994
19636,127.00060890833326,56,0.0814629999999994,65,0.08096485833334555
19637,127.08157376666661,46,0.08096485833334555,68,0.32063882083332373
19638,127.1621613916666,56,0.08058762499999261,68,0.08010010833332615
19639,127.24226149999993,54,0.08010010833332615,69,0.07973096666667345
19640,127.3219924666666,53,0.07973096666667345,69,0.08022012083333152
19641,127.40221258749993,54,0.08022012083333152,67,0.46040739166663514
19642,127.45375052083327,56,0.05153793333333567,68,0.05304411666666908
19643,127.50679463749994,58,0.05304411666666908,70,0.05469628333332821
19644,127.56149092083326,59,0.05469628333332821,71,0.05633943333330649
19645,127.61783035416657,61,0.05633943333330649,72,0.058234216666662064
19646,127.67606457083323,63,0.058234216666662064,74,0.06016695000000993
19647,127.73623152083324,64,0.06016695000000993,75,0.06222936666667067
19648,127.79846088749991,66,0.06222936666667067,76,0.06415909166665301
19649,127.86261997916657,68,0.06415909166665301,97,0.5657190000000014
19650,128.28815197916657,42,0.425532000000004,79,0.2972880000000089
19651,128.42833897916657,66,0.1401869999999974,93,0.14139090000000465
19652,128.58543997916658,66,0.15710100000001148,93,0.350876999999997
19653,128.84859772916658,42,0.26315775000000485,71,0.08771924999999214
19654,128.93631697916658,30,0.08771924999999214,85,0.0867052499999943
19655,129.00568117916657,44,0.06936419999999544,71,0.06936419999999544
19656,129.07504537916657,42,0.06936419999999544,71,0.06936419999999544
19657,129.14440957916656,41,0.06936419999999544,71,0.06936420000002386
19658,129.2137737791666,42,0.06936420000002386,71,0.06936419999999544
19659,129.28313797916658,47,0.06936419999999544,87,0.16666674999999032
19660,129.6164714791666,63,0.33333350000000905,88,0.34313724999998385
19661,129.78313822916658,64,0.16666674999999032,86,0.17647049999999354
19662,129.95960872916658,68,0.17647049999999354,93,0.34150329166666893
19663,130.21777864583325,66,0.25816991666667377,88,0.07500003750001838
19664,130.30111202083324,66,0.08333337499999516,93,0.32211225000000354
19665,130.44465277083324,65,0.14354074999999966,88,0.17857150000000388
19666,130.62322427083325,66,0.17857150000000388,88,0.35714300000000776
19667,130.89108152083324,42,0.2678572499999916,70,0.08928575000001615
19668,130.98036727083326,30,0.08928575000001615,80,0.08522725000000264
19669,131.04854907083325,44,0.06818179999999074,70,0.06818180000001917
19670,131.11673087083327,42,0.06818180000001917,70,0.06818179999999074
19671,131.18491267083326,41,0.06818179999999074,70,0.06818179999999074
19672,131.25309447083325,42,0.06818179999999074,70,0.06818180000001917
19673,131.32127627083327,47,0.06818180000001917,87,0.16129025000000752
19674,131.64385677083325,63,0.3225804999999866,88,0.3361582499999827
19675,131.81052352083324,64,0.16666674999999032,86,0.16949149999999236
19676,131.98001502083324,68,0.16949149999999236,93,0.33333350000000905
19677,132.14668177083323,66,0.16666674999999032,88,0.30952400000001035
19678,132.23001514583325,68,0.08333337500002358,81,0.08333337499999516
19679,132.31334852083324,66,0.08333337499999516,93,0.3133117499999969
19680,132.45620577083324,65,0.1428572499999916,88,0.17045450000000528
19681,132.62666027083324,68,0.17045450000000528,93,0.33333350000000905
19682,132.79332702083323,66,0.16666674999999032,88,0.3181820000000073
19683,132.87666039583326,68,0.08333337500002358,81,0.08333337499999516
19684,132.95999377083325,66,0.08333337499999516,93,0.15151524999998855
19685,133.11150902083324,65,0.15151524999998855,88,0.17241375000000403
19686,133.28392277083324,66,0.17241375000000403,88,0.2715618750000033
19687,133.55548464583325,54,0.2715618750000033,72,0.3816808749999723
19688,133.60793220833324,61,0.05244756249999227,72,0.32923331249998
19689,133.66037977083323,69,0.05244756249999227,85,0.27678574999998773
19690,133.89252264583322,20,0.23214287499999386,62,0.35714300000000776
19691,133.93716552083322,54,0.044642874999993865,70,0.4464287500000239
19692,133.98180839583324,30,0.044642875000022286,74,0.3125001249999855
19693,134.02645127083323,68,0.044642874999993865,83,0.2678572499999916
19694,134.24966564583323,51,0.22321437499999774,70,0.4017858750000016
19695,134.29430852083323,54,0.044642874999993865,70,0.35714300000000776
19696,134.33895139583322,42,0.044642874999993865,73,0.3125001250000139
19697,134.38359427083324,63,0.044642875000022286,83,0.2678572499999916
19698,134.65145152083323,49,0.2678572499999916,70,0.4464287499999955
19699,134.69609439583323,32,0.044642874999993865,75,0.4017858750000016
19700,134.74073727083322,64,0.044642874999993865,83,0.35714300000000776
19701,135.09788027083323,57,0.35714300000000776,80,0.3636365000000126
19702,135.2190924374999,45,0.12121216666668033,80,0.12121216666665191
19703,135.34030460416656,57,0.12121216666665191,80,0.12121216666668033
19704,135.46151677083324,56,0.12121216666668033,84,0.35294099999998707
19705,135.81445777083323,52,0.35294099999998707,79,0.38709700000001135
19706,136.20155477083324,69,0.38709700000001135,97,0.5363877499999887
19707,136.59371177083324,40,0.3921569999999974,79,0.3038392499999816
19708,136.73794252083323,68,0.1442307499999913,93,0.14364764999999124
19709,136.89755102083322,68,0.15960849999999027,93,0.3468210000000056
19710,137.15766677083323,44,0.2601157500000113,71,0.0867052499999943
19711,137.24437202083323,32,0.0867052499999943,85,0.0867052499999943
19712,137.31373622083322,45,0.06936419999999544,71,0.06936419999999544
19713,137.38310042083322,44,0.06936419999999544,71,0.06936419999999544
19714,137.4524646208332,43,0.06936419999999544,71,0.06936419999999544
19715,137.5218288208332,44,0.06936419999999544,71,0.06936420000002386
19716,137.59119302083323,49,0.06936420000002386,87,0.33333350000000905
19717,137.92452652083324,64,0.33333350000000905,88,0.34313724999998385
19718,138.09119327083323,66,0.16666674999999032,86,0.17647049999999354
19719,138.26766377083322,69,0.17647049999999354,93,0.34150329166666893
19720,138.5258336874999,68,0.25816991666667377,88,0.08333337499999516
19721,138.6091670624999,68,0.08333337499999516,93,0.32211225000000354
19722,138.7527078124999,67,0.14354074999999966,88,0.17857150000000388
19723,138.9312793124999,56,0.17857150000000388,88,0.35714300000000776
19724,139.1991365624999,44,0.2678572499999916,71,0.08928575000001615
19725,139.2884223124999,32,0.08928575000001615,80,0.08522725000000264
19726,139.3566041124999,45,0.06818179999999074,71,0.06818180000001917
19727,139.4247859124999,44,0.06818180000001917,71,0.06818179999999074
19728,139.4929677124999,43,0.06818179999999074,71,0.06818179999999074
19729,139.5611495124999,44,0.06818179999999074,71,0.06818180000001917
19730,139.62933131249991,49,0.06818180000001917,87,0.3225804999999866
19731,139.9519118124999,70,0.3225804999999866,96,0.35961983333334047
19732,140.1273503124999,71,0.1754385000000127,94,0.18418133333332776
19733,140.31153164583324,75,0.18418133333332776,101,0.1734104999999886
19734,140.48494214583323,70,0.1734104999999886,88,0.173410500000017
19735,140.65835264583325,75,0.173410500000017,93,0.3133117499999969
19736,140.80120989583324,49,0.1428572499999916,70,0.17045450000000528
19737,140.88643714583324,73,0.08522725000000264,92,0.07670452499999669
19738,140.97166439583324,73,0.08522725000000264,97,0.16666674999999032
19739,141.13833114583323,66,0.16666674999999032,84,0.16666675000001874
19740,141.30499789583325,73,0.16666675000001874,90,0.3133117499999969
19741,141.44785514583324,47,0.1428572499999916,70,0.17045450000000528
19742,141.53308239583325,71,0.08522725000000264,80,0.07670452499999669
19743,141.61830964583325,71,0.08522725000000264,93,0.16666674999999032
19744,141.78497639583324,66,0.16666674999999032,79,0.16666675000001874
19745,141.95164314583326,71,0.16666675000001874,88,0.3133117499999969
19746,142.09450039583325,46,0.1428572499999916,70,0.17045450000000528
19747,142.17972764583325,70,0.08522725000000264,79,0.07670452499999669
19748,142.26495489583326,70,0.08522725000000264,90,0.16666674999999032
19749,142.43162164583325,65,0.16666674999999032,78,0.16666675000001874
19750,142.59828839583326,70,0.16666675000001874,85,0.3133117499999969
19751,142.74114564583326,44,0.1428572499999916,70,0.17045450000000528
19752,142.82637289583326,68,0.08522725000000264,81,0.07670452499999669
19753,142.91160014583326,68,0.08522725000000264,88,0.16666674999999032
19754,143.07826689583325,61,0.16666674999999032,75,0.16666675000001874
19755,143.24493364583327,68,0.16666675000001874,82,0.3133117499999969
19756,143.38779089583326,42,0.1428572499999916,70,0.17045450000000528
19757,143.47301814583327,66,0.08522725000000264,75,0.08522725000000264
19758,143.55824539583327,64,0.08522725000000264,90,0.6466452500000059
19759,143.72491214583326,59,0.16666674999999032,75,0.16666675000001874
19760,143.89157889583328,64,0.16666675000001874,84,0.3133117499999969
19761,144.03443614583327,39,0.1428572499999916,70,0.17045450000000528
19762,144.11966339583327,63,0.08522725000000264,74,0.08522725000000264
19763,144.20489064583327,44,0.08522725000000264,92,0.6690798749999658
19764,144.54579964583326,37,0.34090899999998214,64,0.32817087499998365
19765,144.87397052083324,27,0.32817087499998365,60,0.31519749999998226
19766,144.95564402083323,47,0.08167349999999374,56,0.07964950000001636
19767,145.03529352083325,46,0.07964950000001636,56,0.07785795833331122
19768,145.11315147916656,47,0.07785795833331122,57,0.07601654166666094
19769,145.18916802083322,44,0.07601654166666094,57,0.32594012499998826
19770,145.3522115208332,46,0.16304349999998635,58,0.1628966250000019
19771,145.5151081458332,20,0.1628966250000019,62,0.31236545833331775
19772,145.59532356249989,49,0.08021541666667531,60,0.07881249999999795
19773,145.67413606249988,47,0.07881249999999795,61,0.07732099999998354
19774,145.75145706249987,49,0.07732099999998354,61,0.07601654166666094
19775,145.82747360416653,46,0.07601654166666094,62,0.3260870000000011
19776,145.9905171041665,47,0.16304349999998635,63,0.16304350000001477
19777,146.15356060416653,48,0.16304350000001477,65,0.33623350000002006
19778,146.32026435416654,49,0.1667037500000106,61,0.16952975000000947
19779,146.48979410416655,51,0.16952975000000947,61,0.33461099999999533
19780,146.65199135416654,52,0.1621972499999913,61,0.17241375000000403
19781,146.82440510416654,51,0.17241375000000403,65,0.3260870000000011
19782,147.15049210416655,56,0.3260870000000011,66,0.24456524999999374
19783,147.39505735416654,54,0.24456524999999374,60,0.07336957500001517
19784,147.47657910416655,54,0.08152175000000739,67,0.16304349999998635
19785,147.63962260416653,47,0.16304349999998635,63,0.3315827500000239
19786,147.80266610416655,59,0.16304350000001477,75,0.33707849999998984
19787,148.05547497916655,58,0.2528088749999995,70,0.08426962499999036
19788,148.13974460416654,56,0.08426962499999036,70,0.6790478749999806
19789,148.49062160416653,37,0.350876999999997,58,0.32817087499998365
19790,148.81879247916652,27,0.32817087499998365,69,0.31519749999998226
19791,148.98011547916653,58,0.1613230000000101,64,0.052084749999977475
19792,149.0322002291665,59,0.052084749999977475,65,0.051283416666677795
19793,149.08348364583318,58,0.051283416666677795,64,0.05050633333331689
19794,149.1339899791665,56,0.05050633333331689,65,0.32594012499998826
19795,149.2970334791665,58,0.16304349999998635,66,0.1628966250000019
19796,149.4599301041665,20,0.1628966250000019,71,0.31236545833331775
19797,149.61895802083316,59,0.15902791666667326,64,0.05167995833332384
19798,149.6706379791665,61,0.05167995833332384,64,0.051151250000003756
19799,149.7217892291665,59,0.051151250000003756,64,0.05050633333331689
19800,149.7722955624998,58,0.05050633333331689,71,0.3260870000000011
19801,149.9353390624998,59,0.16304349999998635,72,0.16304350000001477
19802,150.0983825624998,60,0.16304350000001477,74,0.16574575000001346
19803,150.26412831249982,61,0.16574575000001346,70,0.16763524999998936
19804,150.4317635624998,63,0.16763524999998936,70,0.3299022500000035
19805,150.59308856249982,64,0.16132500000000505,70,0.16857724999999846
19806,150.7616658124998,63,0.16857724999999846,74,0.17045450000000528
19807,151.10257481249982,68,0.34090900000001056,75,0.26117112500000417
19808,151.36374593749983,66,0.26117112500000417,69,0.07988163749999444
19809,151.45250331249983,66,0.08875737500000014,77,0.17241375000000403
19810,151.66802049999984,32,0.21551718750001214,55,0.3793104375000098
19811,151.71112393749982,54,0.04310343749997969,59,0.3362070000000301
19812,151.75422737499983,42,0.04310343750000811,55,0.293103562500022
19813,151.79733081249984,64,0.04310343750000811,75,0.2500001250000139
19814,152.04733093749985,63,0.2500001250000139,70,0.34496112499999754
19815,152.08899762499985,32,0.04166668749999758,59,0.30329443749999996
19816,152.13066431249985,61,0.04166668749999758,75,0.2616277500000024
19817,152.39229206249985,30,0.2616277500000024,55,0.3400181250000003
19818,152.43589668749985,37,0.0436046250000004,55,0.2964134999999999
19819,152.47950131249985,61,0.0436046250000004,70,0.2528088749999995
19820,152.73231018749985,63,0.2528088749999995,70,0.34544504166666457
19821,152.77444499999984,32,0.04213481249999518,51,0.3033102291666694
19822,152.81657981249984,64,0.04213481249999518,73,0.34889466666666635
19823,153.0777552291665,18,0.2611754166666742,51,0.3391158750000045
19824,153.12161485416652,25,0.04385962500001028,51,0.2952562499999942
19825,153.1654744791665,64,0.04385962499998186,72,0.25139662500001236
19826,153.41687110416652,63,0.25139662500001236,69,0.34695662499999
19827,153.4587705416665,20,0.041899437499978376,51,0.30505718750001165
19828,153.5006699791665,61,0.0418994375000068,74,0.350876999999997
19829,153.7638277291665,18,0.26315775000000485,50,0.3391158750000045
19830,153.8076873541665,25,0.04385962499998186,50,0.29525625000002265
19831,153.8515469791665,59,0.04385962500001028,72,0.25139662500001236
19832,154.1029436041665,57,0.25139662500001236,67,0.34197704166666654
19833,154.1448430416665,32,0.041899437499978376,55,0.30007760416668816
19834,154.1867424791665,56,0.0418994375000068,71,0.25817816666668136
19835,154.53162589583317,24,0.34488341666667566,64,0.08400775000001204
19836,154.61563364583319,25,0.08400775000001204,64,0.08321057499998119
19837,154.69884422083317,27,0.08321057499998119,66,0.08287287500002094
19838,154.7817170958332,28,0.08287287500002094,67,0.082447975000008
19839,154.8641650708332,30,0.082447975000008,67,0.08214739999999665
19840,154.9463124708332,32,0.08214739999999665,68,0.08184844999999541
19841,155.0281609208332,34,0.08184844999999541,69,0.08152174999997897
19842,155.10968267083317,36,0.08152174999997897,69,0.08111050000002251
19843,155.1907931708332,37,0.08111050000002251,70,0.08081952499998124
19844,155.27161269583317,39,0.08081952499998124,71,0.0805301250000241
19845,155.3521428208332,40,0.0805301250000241,71,0.08021387499999832
19846,155.4323566958332,42,0.08021387499999832,72,0.07981569166665281
19847,155.51217238749985,44,0.07981569166665281,73,0.07953397500000392
19848,155.59170636249985,46,0.07953397500000392,73,0.07925372500000094
19849,155.67096008749985,48,0.07925372500000094,74,0.07894737499998428
19850,155.74990746249983,49,0.07894737499998428,74,0.0785615583333481
19851,155.82846902083318,51,0.0785615583333481,75,0.07828860000000759
19852,155.9067576208332,52,0.07828860000000759,77,0.07801706666666064
19853,155.98477468749985,54,0.07801706666666064,77,0.07772024999999871
19854,156.06249493749985,56,0.07772024999999871,78,0.07734633333330976
19855,156.13984127083316,58,0.07734633333330976,77,0.07708172499999932
19856,156.21692299583316,60,0.07708172499999932,77,0.07681845833334933
19857,156.2937414541665,61,0.07681845833334933,78,0.07653062500000374
19858,156.3702720791665,63,0.07653062500000374,79,0.07616802499998698
19859,156.4464401041665,64,0.07616802499998698,80,0.07591142499998682
19860,156.52235152916649,66,0.07591142499998682,80,0.07565609166667286
19861,156.59800762083316,68,0.07565609166667286,81,0.07537687499998924
19862,156.67338449583315,70,0.07537687499998924,82,0.09456999999997606
19863,156.76795449583312,72,0.09456999999997606,83,0.08928562500000226
19864,156.85724012083313,61,0.08928562500000226,92,0.17647049999999354
19865,157.12194587083312,75,0.2647057499999903,85,0.08823524999999677
19866,157.2101811208331,70,0.08823524999999677,91,0.1621622499999944
19867,157.3723433708331,72,0.1621622499999944,85,0.1621622499999944
19868,157.5345056208331,73,0.1621622499999944,90,0.35294099999998707
19869,157.8874466208331,70,0.35294099999998707,85,0.34090900000001056
19870,158.2283556208331,71,0.34090900000001056,88,0.33898300000001313
19871,158.5673386208331,66,0.33898300000001313,85,0.35502950000000055
19872,158.9223681208331,68,0.35502950000000055,85,0.20134225000001038
19873,159.3250526208331,30,0.40268449999999234,69,0.7692309999999907
19874,159.6135142458331,40,0.2884616249999965,67,0.08653848750000748
19875,159.7096681208331,40,0.09615387499999883,72,0.7927789999999959
19876,160.0942836208331,18,0.38461549999999534,61,0.20408175000000028
19877,160.5024471208331,47,0.40816350000000057,67,0.20408175000000028
19878,161.1657128083331,35,0.6632656875000009,67,0.7516620833333434
19879,161.21112870416644,38,0.04541589583334371,70,0.7062461874999997
19880,161.25374232916644,43,0.04261362500000132,74,0.6636325624999984
19881,161.29635595416644,47,0.04261362500000132,80,0.621018937499997
19882,161.91737489166644,35,0.621018937499997,67,0.7427397499999984
19883,161.96154703749977,38,0.04417214583332907,70,0.6985676041666693
19884,162.00391991249978,43,0.0423728750000123,74,0.656194729166657
19885,162.0462927874998,47,0.0423728750000123,79,0.6138218541666447
19886,162.66011464166644,35,0.6138218541666447,66,0.7437027500000113
19887,162.7044472874998,38,0.04433264583335017,69,0.6993701041666611
19888,162.7470609124998,43,0.04261362500000132,72,0.6567564791666598
19889,162.7896745374998,47,0.04261362500000132,78,0.6141428541666585
19890,163.40381739166645,35,0.6141428541666585,67,0.7512281666666638
19891,163.44831237083312,38,0.044494979166671556,70,0.7067331874999923
19892,163.49116949583313,43,0.04285712500001182,74,0.6638760624999804
19893,163.53402662083312,47,0.0428571249999834,79,0.621018937499997
19894,164.15504555833311,35,0.621018937499997,67,0.7499368333333507
19895,164.19921770416644,38,0.04417214583332907,70,0.7057646875000216
19896,164.24159057916646,43,0.0423728750000123,74,0.6633918125000093
19897,164.28396345416647,47,0.0423728750000123,79,0.621018937499997
19898,164.90498239166646,35,0.621018937499997,67,0.7389060208333547
19899,164.94931503749982,38,0.04433264583335017,70,0.6945733750000045
19900,164.99192866249982,43,0.04261362500000132,75,0.6519597500000032
19901,165.03164341249982,47,0.039714750000001686,81,0.6122450000000015
19902,165.64388841249982,47,0.6122450000000015,80,0.07281549999999015
19903,165.78951941249983,30,0.14563100000000873,28,0.07281549999999015
19904,165.9351504124998,28,0.1456309999999803,28,0.07281550000001857
19905,166.08078141249982,26,0.14563100000000873,28,0.07653062500000374
19906,166.23384266249982,31,0.15306125000000748,35,0.07281549999999015
19907,166.37947366249983,30,0.14563100000000873,32,0.07281549999999015
19908,166.5251046624998,28,0.1456309999999803,28,0.07281550000001857
19909,166.67073566249982,26,0.14563100000000873,28,0.07537687499998924
19910,166.82148941249983,31,0.1507537500000069,35,0.07211537500000986
19911,166.96572016249982,30,0.1442307499999913,28,0.07211537500000986
19912,167.10995091249984,28,0.14423075000001973,28,0.07211537499998144
19913,167.25418166249983,26,0.1442307499999913,28,0.07653062500000374
19914,167.40724291249984,31,0.15306125000000748,34,0.07177037499999983
19915,167.55078366249984,30,0.14354074999999966,28,0.07177037499999983
19916,167.69432441249984,28,0.14354074999999966,28,0.07177037499999983
19917,167.83786516249984,26,0.14354074999999966,28,0.07614212499998985
19918,167.99014941249985,31,0.15228425000000811,34,0.07177037499999983
19919,168.13369016249985,30,0.14354074999999966,32,0.07177037499999983
19920,168.27723091249985,28,0.14354074999999966,29,0.07177037499999983
19921,168.42077166249985,26,0.14354074999999966,29,0.07614212499998985
19922,168.57305591249985,31,0.15228425000000811,35,0.07211537500000986
19923,168.71728666249984,30,0.1442307499999913,28,0.07211537500000986
19924,168.86151741249986,28,0.14423075000001973,28,0.07211537499998144
19925,169.00574816249986,26,0.1442307499999913,28,0.07479987499999652
19926,169.15669016249987,38,0.1509420000000148,44,1.1799164999999903
19927,169.30232116249988,30,0.14563100000000873,29,0.07281549999999015
19928,169.44795216249986,28,0.1456309999999803,29,0.07281550000001857
19929,169.59358316249987,26,0.14563100000000873,29,0.07614212499998985
19930,169.74586741249988,31,0.15228425000000811,36,0.07281549999999015
19931,169.89149841249989,30,0.14563100000000873,34,0.07281549999999015
19932,170.03712941249987,28,0.1456309999999803,30,0.07281550000001857
19933,170.18276041249987,26,0.14563100000000873,30,0.07692312500000753
19934,170.33660666249986,38,0.15384624999998664,41,0.43689299999999776
19935,170.48223766249987,30,0.14563100000000873,29,0.07281549999999015
19936,170.62786866249985,28,0.1456309999999803,29,0.07281550000001857
19937,170.77349966249986,38,0.14563100000000873,43,0.15384624999998664
19938,170.92734591249985,38,0.15384624999998664,43,0.4307969999999841
19939,171.07297691249985,30,0.14563100000000873,30,0.07281549999999015
19940,171.21860791249983,28,0.1456309999999803,30,0.06976750000001175
19941,171.35814291249983,43,0.13953499999999508,41,0.15306125000000748
19942,171.51120416249984,47,0.15306125000000748,46,0.5836835000000065
19943,171.65474491249984,30,0.14354074999999966,33,0.07177037499999983
19944,171.79828566249984,28,0.14354074999999966,30,0.07177037499999983
19945,171.94182641249984,26,0.14354074999999966,30,0.07653062500000374
19946,172.09488766249984,45,0.15306125000000748,40,0.5899542500000052
19947,172.24051866249985,30,0.14563100000000873,30,0.07281549999999015
19948,172.38614966249983,28,0.1456309999999803,30,0.07281550000001857
19949,172.53178066249984,26,0.14563100000000873,30,0.07653062500000374
19950,172.68484191249985,38,0.15306125000000748,42,0.4307969999999841
19951,172.83047291249986,30,0.14563100000000873,30,0.07281549999999015
19952,172.97610391249984,28,0.1456309999999803,30,0.06976750000001175
19953,173.11563891249983,43,0.13953499999999508,41,0.15306125000000748
19954,173.26870016249984,47,0.15306125000000748,44,0.28846150000001103
19955,173.41293091249983,30,0.1442307499999913,35,0.07211537500000986
19956,173.55716166249985,28,0.14423075000001973,33,0.07211537499998144
19957,173.70139241249984,42,0.1442307499999913,40,0.152477041666657
19958,173.8538694541665,43,0.152477041666657,41,0.28561445833332755
19959,173.9958270791665,30,0.14195762500000342,32,0.07165645833330814
19960,174.13948391249983,47,0.14365683333332413,41,0.2986945833333152
19961,174.28511724583313,26,0.14563333333330775,33,0.07653062500000374
19962,174.43817849583314,50,0.15306125000000748,46,0.2870814999999993
19963,174.58171924583314,30,0.14354074999999966,33,0.07177037499999983
19964,174.72525999583314,52,0.14354074999999966,47,0.06944450000000302
19965,174.86414899583315,54,0.13888900000000604,48,0.07614212499998985
19966,175.01643324583316,55,0.15228425000000811,50,0.14354074999999966
19967,175.15997399583316,30,0.14354074999999966,38,0.07177037499999983
19968,175.30351474583316,50,0.14354074999999966,45,0.14705875000001356
19969,175.45057349583317,26,0.14705875000001356,35,0.07614212499998985
19970,175.60285774583318,59,0.15228425000000811,53,0.5899542500000052
19971,175.74848874583319,30,0.14563100000000873,34,0.07281549999999015
19972,175.89411974583317,28,0.1456309999999803,34,0.07281550000001857
19973,176.03975074583317,26,0.14563100000000873,34,0.07653062500000374
19974,176.19281199583318,50,0.15306125000000748,48,0.8804392499999949
19975,176.3384429958332,30,0.14563100000000873,34,0.07281549999999015
19976,176.48407399583317,28,0.1456309999999803,34,0.07281550000001857
19977,176.62970499583318,26,0.14563100000000873,34,0.07614212499998985
19978,176.7819892458332,31,0.15228425000000811,42,0.07281549999999015
19979,176.9276202458332,30,0.14563100000000873,39,0.07281549999999015
19980,177.07325124583318,50,0.1456309999999803,49,0.06976750000001175
19981,177.21278624583317,50,0.13953499999999508,49,0.07575762499999428
19982,177.36430149583316,50,0.15151524999998855,51,0.14563100000000873
19983,177.50993249583317,30,0.14563100000000873,34,0.07281549999999015
19984,177.65556349583315,50,0.1456309999999803,48,0.14563100000000873
19985,177.80119449583316,26,0.14563100000000873,34,0.07653062500000374
19986,177.95425574583317,50,0.15306125000000748,52,0.432107000000002
19987,178.09988674583317,30,0.14563100000000873,35,0.07281549999999015
19988,178.24551774583315,28,0.1456309999999803,35,0.0704225000000065
19989,178.38636274583317,55,0.140845000000013,50,0.13846162499999082
19990,178.54020899583315,55,0.15384624999998664,52,0.5907392499999844
19991,178.68583999583316,30,0.14563100000000873,39,0.07281549999999015
19992,178.83147099583314,28,0.1456309999999803,36,0.07281550000001857
19993,178.97710199583315,26,0.14563100000000873,35,0.07692312500000753
19994,179.13094824583314,47,0.15384624999998664,48,0.5907392499999844
19995,179.27657924583315,30,0.14563100000000873,35,0.07281549999999015
19996,179.42221024583313,28,0.1456309999999803,35,0.07281550000001857
19997,179.56784124583314,26,0.14563100000000873,35,0.07692312500000753
19998,179.72168749583312,45,0.15384624999998664,53,0.8752592499999707
19999,179.86731849583313,30,0.14563100000000873,35,0.07281549999999015
20000,180.0129494958331,38,0.1456309999999803,51,0.06944450000000302
20001,180.15183849583312,38,0.13888900000000604,51,0.07692312500000753
20002,180.3056847458331,38,0.15384624999998664,54,0.14563100000000873
20003,180.4513157458331,30,0.14563100000000873,39,0.07281549999999015
20004,180.5969467458331,45,0.1456309999999803,52,0.2981080416666657
20005,180.7425777458331,26,0.14563100000000873,36,0.07555391666664946
20006,180.89505478749976,47,0.152477041666657,52,0.07142862500001002
20007,181.03813987083308,45,0.14308508333331815,51,0.0722315000000151
20008,181.18295237083308,43,0.14481250000000045,50,0.0730523333333224
20009,181.3296548291664,45,0.14670245833332274,48,0.07653062500000374
20010,181.4827160791664,35,0.15306125000000748,52,1.0270902500000147
20011,181.6276435791664,30,0.14492749999999432,36,0.07246374999999716
20012,181.7725710791664,28,0.14492749999999432,36,0.07246374999999716
20013,181.91749857916642,40,0.14492750000002275,50,0.15384624999998664
20014,182.0713448291664,38,0.15384624999998664,52,1.1796392500000081
20015,182.2155755791664,30,0.1442307499999913,40,0.07211537500000986
20016,182.35980632916642,28,0.14423075000001973,37,0.07499999999998863
20017,182.50980632916642,50,0.15000000000000568,51,0.13846162499999082
20018,182.6636525791664,50,0.15384624999998664,51,0.5873315000000048
20019,182.8078833291664,30,0.1442307499999913,36,0.07211537500000986
20020,182.95211407916642,28,0.14423075000001973,37,0.07211537499998144
20021,183.0963448291664,26,0.1442307499999913,37,0.07731962500000122
20022,183.25098407916641,38,0.15463925000000245,53,0.8707650000000058
20023,183.39452482916641,30,0.14354074999999966,37,0.07177037499999983
20024,183.5380655791664,28,0.14354074999999966,37,0.07177037499999983
20025,183.6816063291664,26,0.14354074999999966,38,0.07653062500000374
20026,183.83466757916642,31,0.15306125000000748,45,0.07177037499999983
20027,183.97820832916642,30,0.14354074999999966,42,0.07177037499999983
20028,184.12174907916642,38,0.14354074999999966,54,0.07425737500000196
20029,184.27026382916642,38,0.14851475000000391,54,0.07692312500000753
20030,184.4241100791664,38,0.15384624999998664,57,0.14354074999999966
20031,184.5676508291664,30,0.14354074999999966,40,0.07177037499999983
20032,184.7111915791664,40,0.14354074999999966,55,0.07177037499999983
20033,184.8547323291664,42,0.14354074999999966,57,0.07653062500000374
20034,185.00779357916642,43,0.15306125000000748,61,0.4299710000000232
20035,185.1520243291664,30,0.1442307499999913,43,0.07211537500000986
20036,185.29625507916643,28,0.14423075000001973,43,0.07075474999999187
20037,185.43776457916644,38,0.14150950000001217,49,0.1377551250000124
20038,185.59082582916645,47,0.15306125000000748,61,0.5857535000000098
20039,185.73505657916644,30,0.1442307499999913,49,0.07211537500000986
20040,185.87928732916646,28,0.14423075000001973,46,0.07211537499998144
20041,186.02351807916645,26,0.1442307499999913,46,0.07653062500000374
20042,186.17657932916646,45,0.15306125000000748,63,0.5836835000000065
20043,186.32012007916646,30,0.14354074999999966,46,0.07177037499999983
20044,186.46366082916646,28,0.14354074999999966,47,0.07177037499999983
20045,186.60720157916646,26,0.14354074999999966,48,0.07653062500000374
20046,186.76026282916646,38,0.15306125000000748,67,0.4348647500000027
20047,186.90380357916646,30,0.14354074999999966,50,0.07177037499999983
20048,187.04734432916646,28,0.14354074999999966,50,0.07389162499998747
20049,187.19512757916647,43,0.14778325000000336,71,0.1377551250000124
20050,187.34818882916647,47,0.15306125000000748,72,0.2870814999999993
20051,187.49172957916647,30,0.14354074999999966,58,0.07177037499999983
20052,187.63527032916647,28,0.14354074999999966,55,0.07177037499999983
20053,187.77881107916647,42,0.14354074999999966,71,0.15306125000000748
20054,187.93187232916648,43,0.15306125000000748,73,0.28985499999998865
20055,188.07679982916648,30,0.14492749999999432,53,0.07246374999999716
20056,188.22172732916647,47,0.14492749999999432,76,0.2964427500000113
20057,188.3666548291665,26,0.14492750000002275,57,0.07575762499999428
20058,188.51817007916648,50,0.15151524999998855,78,0.5836835000000065
20059,188.66171082916648,30,0.14354074999999966,57,0.07177037499999983
20060,188.80525157916648,28,0.14354074999999966,57,0.07177037499999983
20061,188.94879232916648,26,0.14354074999999966,58,0.07653062500000374
20062,189.1018535791665,31,0.15306125000000748,73,0.14354074999999966
20063,189.2453943291665,54,0.14354074999999966,75,0.14354074999999966
20064,189.3889350791665,55,0.14354074999999966,77,0.14150950000001217
20065,189.5304445791665,57,0.14150950000001217,82,0.15306125000000748
20066,189.6835058291665,59,0.15306125000000748,85,0.5892605000000231
20067,189.8277365791665,30,0.1442307499999913,63,0.07211537500000986
20068,189.97196732916652,31,0.14423075000001973,64,0.07425737500000196
20069,190.12048207916652,49,0.14851475000000391,81,1.023049250000014
20070,190.27276632916653,58,0.15228425000000811,88,0.8707650000000058
20071,190.41630707916653,29,0.14354074999999966,65,0.07177037499999983
20072,190.55984782916653,27,0.14354074999999966,65,0.07177037499999983
20073,190.70338857916653,25,0.14354074999999966,65,0.07653062500000374
20074,190.85644982916654,30,0.15306125000000748,79,0.07177037499999983
20075,190.99999057916654,29,0.14354074999999966,75,0.07177037499999983
20076,191.14353132916654,49,0.14354074999999966,86,0.5893060000000219
20077,191.29131457916654,25,0.14778325000000336,69,0.07653062500000374
20078,191.44437582916655,54,0.15306125000000748,90,0.5849765000000104
20079,191.58860657916654,29,0.1442307499999913,68,0.07211537500000986
20080,191.73283732916656,58,0.14423075000001973,96,0.2965149999999994
20081,191.87706807916655,25,0.1442307499999913,71,0.07614212499998985
20082,192.02935232916656,61,0.15228425000000811,101,0.4285910000000115
20083,192.17289307916656,29,0.14354074999999966,68,0.07177037499999983
20084,192.31643382916656,27,0.14354074999999966,69,0.07075474999999187
20085,192.45794332916657,66,0.14150950000001217,99,1.034401750000029
20086,192.61100457916658,58,0.15306125000000748,100,0.43559625000000324
20087,192.75454532916658,29,0.14354074999999966,78,0.07177037499999983
20088,192.89808607916657,27,0.14354074999999966,73,0.07425737500000196
20089,193.04660082916658,58,0.14851475000000391,96,0.4457442500000184
20090,193.1996620791666,30,0.15306125000000748,87,0.2926830000000109
20091,193.3460035791666,29,0.14634150000000545,72,0.07317075000000273
20092,193.4923450791666,63,0.14634150000000545,92,0.14634149999997703
20093,193.63868657916657,25,0.14634149999997703,74,0.07614212499998985
20094,193.79097082916658,61,0.15228425000000811,102,0.5836835000000065
20095,193.93451157916658,29,0.14354074999999966,70,0.07177037499999983
20096,194.07805232916658,27,0.14354074999999966,70,0.07177037499999983
20097,194.22159307916658,25,0.14354074999999966,71,0.07653062500000374
20098,194.3746543291666,30,0.15306125000000748,87,0.07281549999999015
20099,194.5202853291666,29,0.14563100000000873,80,0.07281549999999015
20100,194.66591632916658,49,0.1456309999999803,98,0.07281550000001857
20101,194.8115473291666,49,0.14563100000000873,98,0.07653062500000374
20102,194.9646085791666,49,0.15306125000000748,106,0.14563100000000873
20103,195.1102395791666,29,0.14563100000000873,74,0.07281549999999015
20104,195.25587057916658,56,0.1456309999999803,101,0.14563100000000873
20105,195.4015015791666,25,0.14563100000000873,75,0.07614212499998985
20106,195.5537858291666,54,0.15228425000000811,111,0.18638175000000956
20107,195.7832809541666,30,0.2294951249999997,70,0.3436748125000122
20108,195.82639432916662,36,0.04311337500001855,72,0.3434283749999736
20109,195.8695077041666,38,0.04311337499999013,74,0.30031499999998346
20110,195.9126210791666,42,0.04311337499999013,77,0.25720162499999333
20111,196.1269557666666,30,0.2143346875000134,72,0.34293549999998163
20112,196.1698227041666,36,0.04286693749997994,75,0.34293550000001005
20113,196.2126896416666,38,0.04286693750000836,78,0.3000685625000017
20114,196.2555565791666,42,0.04286693750000836,81,0.25720162499999333
20115,196.4698912666666,30,0.21433468749998497,74,0.34293550000001005
20116,196.5127582041666,36,0.04286693750000836,78,0.3430102874999932
20117,196.5556251416666,38,0.04286693750000836,80,0.3001433499999848
20118,196.5984920791666,42,0.04286693749997994,83,0.2572764125000049
20119,196.8128267666666,30,0.2143346875000134,77,0.3493568062500003
20120,196.8557684916666,36,0.04294172499999149,80,0.3490383937499928
20121,196.8993833041666,38,0.0436148125000102,82,0.3054235812499826
20122,196.9431256791666,42,0.04374237499999367,86,0.2616812062499889
20123,197.1621835729166,30,0.21905789375000495,80,0.46885643749999417
20124,197.2048068854166,36,0.04262331249998397,83,0.4262331250000102
20125,197.2474301979166,38,0.04262331250001239,85,0.3836098124999978
20126,197.29005351041658,42,0.04262331249998397,89,0.34098650000001385
20127,197.6310400104166,43,0.34098650000001385,99,0.16487150000000383
20128,198.1578768229166,35,0.5268368124999938,79,0.6456521250000264
20129,198.1935345729166,38,0.03565775000001281,80,0.6099943750000136
20130,198.2306155729166,26,0.037081000000000586,80,0.572913375000013
20131,198.2676965729166,31,0.037081000000000586,80,0.5358323750000125
20132,198.80352894791662,35,0.5358323750000125,78,0.6519755833333534
20133,198.84212903124995,38,0.03860008333333553,78,0.6133755000000178
20134,198.87942021874994,43,0.03729118749998861,77,0.5760843125000292
20135,198.91671140624996,47,0.03729118750001703,77,0.5387931250000122
20136,199.45550453124997,35,0.5387931250000122,75,0.6496475833333193
20137,199.4943197395833,38,0.038815208333318196,75,0.6108323750000011
20138,199.53181973958328,43,0.037499999999994316,75,0.5733323750000068
20139,199.56931973958328,31,0.037499999999994316,74,0.5358323750000125
20140,200.1051521145833,35,0.5358323750000125,72,0.6514150833333474
20141,200.14361207291662,38,0.03845995833333404,72,0.6129551250000134
20142,200.18069307291663,43,0.037081000000000586,72,0.5758741250000128
20143,200.21777407291663,47,0.037081000000000586,72,0.5387931250000122
20144,200.75656719791664,35,0.5387931250000122,69,0.7048114895833066
20145,200.79524319791662,38,0.03867599999998106,69,0.6661354895833256
20146,200.8325343854166,26,0.03729118749998861,69,0.628844302083337
20147,200.86728619791663,47,0.03475181250001924,69,0.5940924895833177
20148,201.46137868749994,47,0.5940924895833177,66,0.07072800000000257
20149,201.60283468749995,30,0.14145600000000513,28,0.07072800000000257
20150,201.74429068749996,28,0.14145600000000513,28,0.07072800000000257
20151,201.88574668749993,26,0.1414559999999767,28,0.0743383749999964
20152,202.03442343749992,31,0.1486767499999928,35,0.07004762500000083
20153,202.17451868749993,30,0.14009525000000167,32,0.07004762500000083
20154,202.31461393749993,28,0.14009525000000167,28,0.07004762500000083
20155,202.45470918749993,26,0.14009525000000167,28,0.07321362499999395
20156,202.60113643749992,31,0.1464272499999879,35,0.0693802499999947
20157,202.7398969374999,30,0.1387604999999894,28,0.06938025000002312
20158,202.87865743749992,28,0.13876050000001783,28,0.0693802499999947
20159,203.0174179374999,26,0.1387604999999894,28,0.0743383749999964
20160,203.1660946874999,31,0.1486767499999928,35,0.06905437500000744
20161,203.3042034374999,30,0.13810874999998646,28,0.06905437500000744
20162,203.4423121874999,28,0.13810875000001488,28,0.06905437500000744
20163,203.5804209374999,26,0.13810874999998646,28,0.07395725000000652
20164,203.7283354374999,31,0.14791450000001305,34,0.06971550000000093
20165,203.8677664374999,30,0.13943100000000186,32,0.06971550000000093
20166,204.0071974374999,28,0.13943100000000186,29,0.06971550000000093
20167,204.1466284374999,26,0.13943100000000186,29,0.07395725000000652
20168,204.29454293749993,31,0.14791450000001305,35,0.07004762500000083
20169,204.43463818749993,30,0.14009525000000167,28,0.07004762500000083
20170,204.57473343749993,28,0.14009525000000167,28,0.07004762500000083
20171,204.71482868749993,26,0.14009525000000167,28,0.07265404166665235
20172,204.8614399791666,38,0.14661129166665887,44,1.1460827499999766
20173,205.0028959791666,30,0.14145600000000513,29,0.07072800000000257
20174,205.1443519791666,28,0.14145600000000513,29,0.07072800000000257
20175,205.28580797916658,26,0.1414559999999767,29,0.07395725000000652
20176,205.4337224791666,31,0.14791450000001305,36,0.07072800000000257
20177,205.5751784791666,30,0.14145600000000513,34,0.07072800000000257
20178,205.7166344791666,28,0.14145600000000513,30,0.07072800000000257
20179,205.85809047916658,26,0.1414559999999767,30,0.07471612500000901
20180,206.00752272916657,38,0.1494322499999896,42,0.424367999999987
20181,206.14897872916657,30,0.14145600000000513,29,0.07072800000000257
20182,206.29043472916658,28,0.14145600000000513,29,0.07072800000000257
20183,206.43189072916655,38,0.1414559999999767,44,0.1494322499999896
20184,206.58132297916654,38,0.1494322499999896,44,0.4184500000000071
20185,206.72277897916655,30,0.14145600000000513,30,0.07072800000000257
20186,206.86423497916655,28,0.14145600000000513,30,0.06776899999999841
20187,206.99977297916655,43,0.13553799999999683,41,0.13380907499998784
20188,207.14844972916654,47,0.1486767499999928,46,0.5669697499999984
20189,207.28788072916655,30,0.13943100000000186,33,0.06971550000000093
20190,207.42731172916655,28,0.13943100000000186,31,0.06971550000000093
20191,207.56674272916655,26,0.13943100000000186,31,0.0743383749999964
20192,207.71541947916654,45,0.1486767499999928,40,0.5730447499999798
20193,207.85687547916655,30,0.14145600000000513,30,0.07072800000000257
20194,207.99833147916655,28,0.14145600000000513,30,0.07072800000000257
20195,208.13978747916653,26,0.1414559999999767,30,0.0743383749999964
20196,208.28846422916652,38,0.1486767499999928,42,0.4190775000000144
20197,208.42992022916653,30,0.14145600000000513,30,0.07072800000000257
20198,208.57137622916653,28,0.14145600000000513,30,0.06808275000000208
20199,208.70754172916654,43,0.13616550000000416,42,0.13380907499998784
20200,208.85621847916653,47,0.1486767499999928,44,0.28019050000000334
20201,208.99631372916653,30,0.14009525000000167,36,0.07004762500000083
20202,209.13640897916653,28,0.14009525000000167,33,0.07004762500000083
20203,209.27650422916653,42,0.14009525000000167,41,0.14810287499997798
20204,209.4246071041665,43,0.14810287499997798,42,0.2774290416666645
20205,209.5624954791665,30,0.13788837499998863,32,0.06960375000002728
20206,209.70203614583318,47,0.13954066666667586,42,0.29013058333333674
20207,209.84348997916652,26,0.14145383333334394,33,0.0743383749999964
20208,209.9921667291665,50,0.1486767499999928,47,0.2788620000000037
20209,210.13159772916651,30,0.13943100000000186,34,0.06971550000000093
20210,210.27102872916652,52,0.13943100000000186,47,0.06653062500001283
20211,210.4040899791665,54,0.13306124999999724,49,0.07395725000000652
20212,210.55200447916653,55,0.14791450000001305,51,0.13943100000000186
20213,210.69143547916653,30,0.13943100000000186,39,0.06971550000000093
20214,210.83086647916653,50,0.13943100000000186,45,0.1428434999999979
20215,210.97370997916653,26,0.1428434999999979,35,0.07395725000000652
20216,211.12162447916654,59,0.14791450000001305,54,0.5730447499999798
20217,211.26308047916655,30,0.14145600000000513,34,0.07072800000000257
20218,211.40453647916655,28,0.14145600000000513,34,0.07072800000000257
20219,211.54599247916653,26,0.1414559999999767,34,0.0743383749999964
20220,211.69466922916652,50,0.1486767499999928,49,0.8455895000000169
20221,211.83420422916652,30,0.13953499999999508,35,0.06976750000001175
20222,211.9737392291665,28,0.13953499999999508,35,0.06976750000001175
20223,212.11327422916654,26,0.1395350000000235,35,0.07395725000000652
20224,212.26118872916655,31,0.14791450000001305,42,0.06976750000001175
20225,212.40072372916654,30,0.13953499999999508,39,0.06976750000001175
20226,212.54025872916654,50,0.13953499999999508,50,0.07142175000001316
20227,212.68310222916654,50,0.1428434999999979,50,0.07358712499998887
20228,212.83027647916654,50,0.14717425000000617,52,0.13953499999999508
20229,212.96981147916654,30,0.13953499999999508,35,0.06976750000001175
20230,213.10934647916653,50,0.13953499999999508,49,0.1395350000000235
20231,213.24888147916656,26,0.1395350000000235,35,0.0743383749999964
20232,213.39755822916655,50,0.1486767499999928,53,0.41972350000000347
20233,213.53901422916655,30,0.14145600000000513,35,0.07072800000000257
20234,213.68047022916656,28,0.14145600000000513,35,0.06840575000001081
20235,213.81728172916655,55,0.1368114999999932,50,0.1344890249999935
20236,213.96671397916654,55,0.1494322499999896,53,0.5680372500000033
20237,214.10624897916654,30,0.13953499999999508,39,0.06976750000001175
20238,214.24578397916653,28,0.13953499999999508,36,0.06976750000001175
20239,214.38531897916656,26,0.1395350000000235,36,0.07471612500000901
20240,214.53475122916655,47,0.1494322499999896,49,0.5699932499999818
20241,214.67493822916654,30,0.1401869999999974,36,0.07009350000001291
20242,214.81512522916654,28,0.1401869999999974,36,0.07009350000001291
20243,214.95531222916654,26,0.1401869999999974,36,0.07471612500000901
20244,215.10474447916653,45,0.1494322499999896,54,0.8437804999999798
20245,215.24493147916652,30,0.1401869999999974,36,0.07009350000001291
20246,215.38511847916652,38,0.1401869999999974,52,0.06745212499998843
20247,215.52002272916653,38,0.13490425000000528,52,0.07471612500000901
20248,215.66945497916652,38,0.1494322499999896,54,0.13953499999999508
20249,215.8089899791665,30,0.13953499999999508,40,0.06976750000001175
20250,215.9485249791665,45,0.13953499999999508,54,0.28731770833331893
20251,216.08805997916653,26,0.1395350000000235,37,0.07306658333331484
20252,216.23584268749983,47,0.14778270833329543,53,0.0693802499999947
20253,216.37482668749985,45,0.13898400000002198,52,0.07015937500000291
20254,216.5154839791665,43,0.1406572916666562,51,0.07095591666669065
20255,216.65797785416655,45,0.14249387500004218,50,0.0743383749999964
20256,216.80665460416654,47,0.1486767499999928,53,0.9888119999999674
20257,216.94618960416653,30,0.13953499999999508,36,0.06976750000001175
20258,217.08572460416653,28,0.13953499999999508,36,0.06776899999999841
20259,217.22126260416653,40,0.13553799999999683,51,0.1494322499999896
20260,217.37069485416652,38,0.1494322499999896,54,1.1413697083332863
20261,217.5102298541665,30,0.13953499999999508,41,0.06976750000001175
20262,217.6497648541665,28,0.13953499999999508,38,0.07285087500000031
20263,217.7954666041665,50,0.14570175000000063,52,0.13382920833331013
20264,217.94324931249983,50,0.14778270833332385,52,0.5688152499999717
20265,218.08278431249983,30,0.13953499999999508,37,0.06976750000001175
20266,218.22231931249982,28,0.13953499999999508,38,0.06976750000001175
20267,218.36185431249982,26,0.13953499999999508,38,0.07510512499999322
20268,218.5120645624998,38,0.15021024999998644,53,0.8463517499999966
20269,218.6515995624998,30,0.13953499999999508,37,0.06976750000001175
20270,218.7911345624998,28,0.13953499999999508,37,0.06976750000001175
20271,218.93066956249982,26,0.1395350000000235,38,0.0743383749999964
20272,219.0793463124998,31,0.1486767499999928,45,0.06976750000001175
20273,219.2188813124998,30,0.13953499999999508,42,0.06976750000001175
20274,219.3584163124998,38,0.13953499999999508,54,0.07212924999998904
20275,219.5026748124998,38,0.1442585000000065,54,0.07471612500000901
20276,219.6521070624998,38,0.1494322499999896,57,0.14145600000000513
20277,219.7935630624998,30,0.14145600000000513,40,0.07072800000000257
20278,219.9350190624998,40,0.14145600000000513,55,0.07072800000000257
20279,220.07647506249978,42,0.1414559999999767,57,0.0743383749999964
20280,220.22515181249977,43,0.1486767499999928,61,0.42036275000000956
20281,220.36660781249978,30,0.14145600000000513,43,0.07072800000000257
20282,220.50806381249978,28,0.14145600000000513,43,0.06872537500001386
20283,220.64551456249978,38,0.1374507499999993,49,0.13380907499998784
20284,220.79419131249978,47,0.1486767499999928,61,0.569237749999985
20285,220.93437831249977,30,0.1401869999999974,49,0.07009350000001291
20286,221.07456531249977,28,0.1401869999999974,46,0.07009350000001291
20287,221.21475231249977,26,0.1401869999999974,46,0.0743383749999964
20288,221.36342906249976,45,0.1486767499999928,63,0.5672817500000065
20289,221.50296406249976,30,0.13953499999999508,46,0.06976750000001175
20290,221.64249906249975,28,0.13953499999999508,47,0.06976750000001175
20291,221.78203406249978,26,0.1395350000000235,48,0.0743383749999964
20292,221.93071081249977,38,0.1486767499999928,67,0.42645275000000993
20293,222.07216681249977,30,0.14145600000000513,50,0.07072800000000257
20294,222.21362281249978,28,0.14145600000000513,50,0.07177037499999983
20295,222.35716356249978,43,0.14354074999999966,71,0.13380907499998784
20296,222.50584031249977,47,0.1486767499999928,72,0.27777800000001207
20297,222.64472931249978,30,0.13888900000000604,58,0.06944450000000302
20298,222.78361831249978,28,0.13888900000000604,55,0.0694444999999746
20299,222.92250731249976,42,0.1388889999999776,70,0.1486767499999928
20300,223.07118406249975,43,0.1486767499999928,73,0.28168999999999755
20301,223.21202906249977,30,0.140845000000013,53,0.07042249999997807
20302,223.35287406249975,47,0.14084499999998457,76,0.28801925000001916
20303,223.49371906249976,26,0.140845000000013,57,0.07358712499998887
20304,223.64089331249977,50,0.14717425000000617,78,0.5653437499999825
20305,223.77978231249978,30,0.13888900000000604,57,0.06944450000000302
20306,223.91867131249978,28,0.13888900000000604,57,0.0694444999999746
20307,224.05756031249976,26,0.1388889999999776,58,0.0743383749999964
20308,224.20623706249975,31,0.1486767499999928,73,0.13888900000000604
20309,224.34512606249976,54,0.13888900000000604,75,0.13888900000000604
20310,224.48401506249976,55,0.13888900000000604,77,0.1388889999999776
20311,224.62290406249974,57,0.1388889999999776,81,0.1486767499999928
20312,224.77158081249974,50,0.1486767499999928,85,0.5712430000000097
20313,224.91111581249973,30,0.13953499999999508,63,0.06976750000001175
20314,225.05065081249973,31,0.13953499999999508,64,0.07212924999998904
20315,225.19490931249973,49,0.1442585000000065,81,1.0194047499999783
20316,225.34282381249974,58,0.14791450000001305,88,0.8714902499999653
20317,225.49073831249973,29,0.14791449999998463,65,0.07395725000000652
20318,225.63865281249974,27,0.14791450000001305,65,0.0739572499999781
20319,225.78656731249973,25,0.14791449999998463,65,0.0743383749999964
20320,225.93524406249972,30,0.1486767499999928,79,0.06976750000001175
20321,226.07477906249972,29,0.13953499999999508,75,0.06976750000001175
20322,226.2143140624997,49,0.13953499999999508,86,0.56707375000002
20323,226.35384906249973,25,0.1395350000000235,69,0.0743383749999964
20324,226.50252581249973,54,0.1486767499999928,90,0.5662075000000186
20325,226.64195681249973,29,0.13943100000000186,68,0.06971550000000093
20326,226.78138781249973,58,0.13943100000000186,96,0.2873455000000149
20327,226.92081881249973,25,0.13943100000000186,71,0.07395725000000652
20328,227.06873331249975,61,0.14791450000001305,101,0.42036275000000956
20329,227.21018931249975,29,0.14145600000000513,68,0.07072800000000257
20330,227.35164531249976,27,0.14145600000000513,69,0.06872537500001386
20331,227.48909606249975,66,0.1374507499999993,99,0.9950284999999894
20332,227.63777281249975,58,0.1486767499999928,100,0.41860500000001366
20333,227.77730781249974,29,0.13953499999999508,78,0.06976750000001175
20334,227.91684281249974,27,0.13953499999999508,73,0.06976750000001175
20335,228.05637781249976,58,0.1395350000000235,96,0.42774674999998297
20336,228.20505456249975,30,0.1486767499999928,87,0.27906999999999016
20337,228.34458956249975,29,0.13953499999999508,72,0.06976750000001175
20338,228.48412456249974,63,0.13953499999999508,92,0.1395350000000235
20339,228.62365956249977,25,0.1395350000000235,74,0.07395725000000652
20340,228.77157406249978,61,0.14791450000001305,102,0.5672817500000065
20341,228.91110906249978,29,0.13953499999999508,70,0.06976750000001175
20342,229.05064406249977,27,0.13953499999999508,70,0.06976750000001175
20343,229.1901790624998,25,0.1395350000000235,71,0.0743383749999964
20344,229.3388558124998,30,0.1486767499999928,87,0.07072800000000257
20345,229.4803118124998,29,0.14145600000000513,80,0.07072800000000257
20346,229.6217678124998,49,0.14145600000000513,98,0.06939291666665781
20347,229.75988610416647,49,0.13811829166667167,98,0.0743383749999964
20348,229.90856285416646,49,0.1486767499999928,106,0.14145600000000513
20349,230.05001885416647,29,0.14145600000000513,74,0.07072800000000257
20350,230.19147485416647,56,0.14145600000000513,101,0.1414559999999767
20351,230.33293085416645,25,0.1414559999999767,75,0.07395725000000652
20352,230.48084535416646,54,0.14791450000001305,111,0.14853341666665187
20353,230.77716202083312,54,0.29631666666665524,79,0.07389162500001589
20354,230.92494527083312,54,0.14778325000000336,75,0.07389162500001589
20355,231.07272852083312,54,0.14778325000000336,81,0.2955665000000067
20356,231.36829502083313,54,0.2955665000000067,78,0.07389162499998747
20357,231.51607827083313,54,0.14778325000000336,73,0.07389162499998747
20358,231.66386152083314,54,0.14778325000000336,79,0.30411333333333346
20359,231.96797485416647,54,0.30411333333333346,74,0.07839912500000423
20360,232.12852527083314,54,0.16055041666666625,71,0.08771925000002057
20361,232.30396377083315,54,0.1754385000000127,81,0.6048450000000116
20362,232.61324227083315,42,0.3092785000000049,55,0.07389162499998747
20363,232.76102552083316,42,0.14778325000000336,54,0.07389162499998747
20364,232.90880877083316,49,0.14778325000000336,71,0.6016889999999933
20365,233.20437527083317,42,0.2955665000000067,54,0.07653062500000374
20366,233.35743652083318,42,0.15306125000000748,53,0.07653062500000374
20367,233.51049777083315,51,0.15306124999997905,68,0.30303050000000553
20368,233.81352827083316,56,0.30303050000000553,66,0.14778325000000336
20369,233.96131152083316,54,0.14778325000000336,64,0.14778325000000336
20370,234.10909477083317,54,0.14778325000000336,68,0.2955665000000067
20371,234.25687802083317,52,0.14778325000000336,64,0.14778325000000336
20372,234.40466127083317,52,0.14778325000000336,64,0.07614212499998985
20373,234.55694552083318,51,0.15228425000000811,59,0.07614212499998985
20374,234.70922977083316,49,0.1522842499999797,62,0.600135000000023
20375,235.01379827083318,44,0.30456850000001623,53,0.1330049249999945
20376,235.16158152083318,44,0.14778325000000336,53,0.1330049249999945
20377,235.30936477083318,51,0.14778325000000336,64,0.6016889999999933
20378,235.61548727083317,43,0.30612249999998653,54,0.1330049249999945
20379,235.76327052083317,43,0.14778325000000336,53,0.1330049249999945
20380,235.91105377083318,49,0.14778325000000336,68,0.30000000000001137
20381,236.06105377083318,47,0.15000000000000568,64,0.15000000000000568
20382,236.2110537708332,47,0.15000000000000568,64,0.07614212499998985
20383,236.3633380208332,46,0.15228425000000811,59,0.07614212499998985
20384,236.51562227083318,44,0.1522842499999797,62,0.600135000000023
20385,236.8201907708332,41,0.30456850000001623,50,0.1330049249999945
20386,236.9679740208332,41,0.14778325000000336,50,0.1330049249999945
20387,237.1157572708332,46,0.14778325000000336,64,0.6016889999999933
20388,237.4218797708332,41,0.30612249999998653,51,0.1330049249999945
20389,237.5696630208332,41,0.14778325000000336,50,0.1330049249999945
20390,237.7174462708332,42,0.14778325000000336,56,0.3076925000000017
20391,237.7943693958332,44,0.07692312500000753,56,0.07692312499997911
20392,237.87129252083318,42,0.07692312499997911,62,0.15384625000001506
20393,238.0251387708332,41,0.15384625000001506,58,0.15000000000000568
20394,238.1751387708332,42,0.15000000000000568,59,0.15000000000000568
20395,238.3251387708332,44,0.15000000000000568,56,0.30705145833331926
20396,238.4014208541665,46,0.07628208333329667,56,0.07692312500000753
20397,238.4783439791665,44,0.07692312500000753,62,0.15384625000001506
20398,238.63219022916653,42,0.15384625000001506,58,0.14975883333332263
20399,238.78194906249985,44,0.14975883333332263,59,0.14925375000001395
20400,238.93120281249986,46,0.14925375000001395,64,0.6125964999999951
20401,239.22971031249986,34,0.2985074999999995,51,0.1343283749999955
20402,239.37896406249985,42,0.14925374999998553,50,0.14835172499999771
20403,239.54379931249986,58,0.1648352500000101,81,0.628427500000015
20404,239.86294831249987,44,0.3191490000000101,55,0.13917532499999652
20405,240.01758756249987,46,0.15463925000000245,54,0.13917532499999652
20406,240.17222681249987,53,0.15463925000000245,71,0.6217785000000049
20407,240.48150531249988,46,0.3092785000000049,54,0.140625
20408,240.63775531249988,44,0.15625,53,0.140625
20409,240.79400531249988,55,0.15625,68,0.6062000000000012
20410,241.10169781249988,51,0.3076925000000017,56,0.1343283749999955
20411,241.2509515624999,51,0.14925375000001395,57,0.1343283749999955
20412,241.40020531249988,58,0.14925374999998553,68,0.2985074999999995
20413,241.5494590624999,56,0.14925375000001395,64,0.14925374999998553
20414,241.69871281249988,56,0.14925374999998553,64,0.07614212499998985
20415,241.85099706249989,54,0.15228425000000811,59,0.07614212499998985
20416,242.00328131249987,53,0.1522842499999797,62,0.600135000000023
20417,242.30784981249988,47,0.30456850000001623,53,0.1330049249999945
20418,242.45563306249988,44,0.14778325000000336,53,0.1330049249999945
20419,242.6034163124999,55,0.14778325000000336,64,0.6016889999999933
20420,242.90953881249987,51,0.30612249999998653,54,0.1330049249999945
20421,243.05732206249988,51,0.14778325000000336,53,0.1330049249999945
20422,243.20510531249988,58,0.14778325000000336,64,0.30000000000001137
20423,243.3551053124999,56,0.15000000000000568,61,0.15000000000000568
20424,243.5051053124999,56,0.15000000000000568,60,0.07731962500000122
20425,243.6597445624999,54,0.15463925000000245,54,0.07731962500000122
20426,243.8143838124999,54,0.15463925000000245,61,0.3038070833333393
20427,243.96590664583323,53,0.15152283333333116,56,0.15228425000000811
20428,244.11819089583324,53,0.15228425000000811,56,0.07853399999999056
20429,244.27525889583325,51,0.15706800000000953,51,0.07853399999999056
20430,244.43232689583323,51,0.1570679999999811,57,0.30612249999998653
20431,244.58538814583324,49,0.15306125000000748,53,0.15306124999997905
20432,244.73844939583321,49,0.15306124999997905,51,0.07853399999999056
20433,244.89551739583322,47,0.15706800000000953,45,0.07853399999999056
20434,245.0525853958332,46,0.1570679999999811,47,0.1621622499999944
20435,245.3769098958332,46,0.3243244999999888,39,0.15789474999999698
20436,245.5348046458332,46,0.15789474999999698,38,0.15789474999999698
20437,245.6926993958332,46,0.15789474999999698,44,0.17142849999999044
20438,246.0355563958332,46,0.3428570000000093,36,0.1621622499999944
20439,246.1977186458332,46,0.1621622499999944,35,0.1621622499999944
20440,246.3598808958332,41,0.1621622499999944,34,0.1754385000000127
20441,246.71075789583318,53,0.350876999999997,50,0.6476079999999911
20442,247.19003464583318,51,0.4792767499999968,39,0.16833124999999427
20443,247.35836589583317,50,0.16833124999999427,38,0.6836083750000057
20444,247.5266971458332,48,0.1683312500000227,37,0.17558224999999084
20445,247.7022793958332,47,0.17558224999999084,36,0.3396948749999922
20446,247.87234739583317,48,0.17006799999998634,36,0.16962687500000584
20447,248.04197427083318,50,0.16962687500000584,36,0.3373527083333272
20448,248.21101447916652,51,0.16904020833334243,36,0.16831249999998477
20449,248.3793269791665,52,0.16831249999998477,36,0.33500616666665906
20450,248.54690364583317,53,0.16757666666666182,36,0.16742949999999723
20451,248.71433314583317,58,0.16742949999999723,40,0.3348590000000229
20452,248.88176264583316,55,0.16742949999999723,36,0.16742950000002566
20453,249.0491921458332,17,0.16742950000002566,47,0.1866832499999873
20454,249.23587539583318,53,0.1866832499999873,38,0.17495708333331095
20455,249.4108324791665,57,0.17495708333331095,40,0.3425458750000132
20456,249.5831617291665,55,0.17232925000001842,38,0.1702166249999948
20457,249.7533783541665,53,0.1702166249999948,36,0.34014233333331845
20458,249.92285818749983,51,0.16947983333332672,36,0.17066249999999172
20459,250.09352068749982,43,0.17066249999999172,36,0.3472992916666726
20460,250.2652377291665,45,0.17171704166668178,36,0.17558224999999084
20461,250.4408199791665,46,0.17558224999999084,32,0.3401360000000011
20462,250.4833369791665,48,0.04251700000000369,32,0.04251700000000369
20463,250.5258539791665,46,0.04251700000000369,36,0.08503399999997896
20464,250.61088797916648,45,0.08503399999997896,36,0.17006800000001476
20465,250.7809559791665,46,0.17006800000001476,35,0.3401360000000011
20466,250.95102397916648,47,0.17006799999998634,36,0.17006800000001476
20467,251.1210919791665,48,0.17006800000001476,36,0.34476799999998775
20468,251.29667422916648,57,0.17558224999999084,40,0.16918574999999691
20469,251.46585997916648,55,0.16918574999999691,37,0.33837149999999383
20470,251.63504572916648,53,0.16918574999999691,36,0.16918574999999691
20471,251.80423147916648,52,0.16918574999999691,38,0.35306600000001254
20472,251.98076447916648,57,0.17653300000000627,37,0.17653300000000627
20473,252.1572974791665,58,0.17653300000000627,39,0.6899967916666583
20474,252.33383047916647,60,0.17653299999997785,40,0.17464200000000574
20475,252.50847247916647,63,0.17464200000000574,42,0.16860358333335057
20476,252.67707606249982,61,0.16860358333335057,40,0.17021820833332413
20477,252.84729427083315,58,0.17021820833332413,38,0.3454256250000185
20478,253.01931502083315,52,0.1720207500000015,36,0.173404875000017
20479,253.19271989583316,53,0.173404875000017,44,0.34527233333332674
20480,253.4515966041665,55,0.2588767083333323,36,0.08639562499999442
20481,253.5379922291665,53,0.08639562499999442,44,0.3468323062500076
20482,253.7979485354165,54,0.2599563062500181,36,0.08687599999998952
20483,253.8848245354165,53,0.08687599999998952,44,0.3529715437499874
20484,254.1486799041665,55,0.2638553687500007,36,0.0891161749999867
20485,254.2377960791665,53,0.0891161749999867,44,0.3620243104166718
20486,254.50839461666646,54,0.2705985374999784,36,0.0914257729166934
20487,254.59982038958316,53,0.0914257729166934,44,0.37159364375000337
20488,254.87766377083315,55,0.2778433812499941,36,0.09375026250000928
20489,254.97141403333316,53,0.09375026250000928,44,0.3767069645833203
20490,255.25691333124982,54,0.2854992979166582,36,0.09120766666666213
20491,255.34812099791648,53,0.09120766666666213,40,0.3570154999999886
20492,255.52662874791648,51,0.1785077499999943,39,0.1785077499999943
20493,255.70513649791647,49,0.1785077499999943,38,0.6937848750000342
20494,255.8836442479165,48,0.17850775000002272,36,0.17558224999999084
20495,256.0592264979165,47,0.17558224999999084,36,0.17006800000001476
20496,256.2292944979165,48,0.17006800000001476,36,0.16962687500000584
20497,256.3989213729165,49,0.16962687500000584,36,0.3373527083332988
20498,256.5679615812498,51,0.1690402083332856,36,0.1683125000000132
20499,256.7362740812498,52,0.1683125000000132,36,0.34708841666673607
20500,256.9038507479165,53,0.16757666666671867,39,0.1795117500000174
20501,257.08336249791654,58,0.1795117500000174,47,0.34379999999998745
20502,257.25526249791653,57,0.17189999999999372,40,0.08595000000002528
20503,257.4271624979165,56,0.17189999999999372,47,0.1899695000000179
20504,257.61713199791654,55,0.1899695000000179,40,0.08763441666667404
20505,257.7917773312499,54,0.17464533333333065,39,0.34193858333338767
20506,257.96364791458325,53,0.1718705833333729,38,0.08503400000000738
20507,258.13371591458326,52,0.17006800000001476,36,0.3392537500000117
20508,258.3034898312499,51,0.16977391666665653,36,0.16947983333335515
20509,258.4729696645833,48,0.16947983333335515,36,0.34579887500001405
20510,258.6431862895833,49,0.17021662500002321,36,0.17558224999999084
20511,258.8187685395833,46,0.17558224999999084,32,0.3401359999999727
20512,258.86128553958326,48,0.04251699999997527,32,0.04251700000003211
20513,258.9038025395833,46,0.04251700000003211,36,0.08503400000000738
20514,258.9888365395833,45,0.08503400000000738,41,0.17006799999995792
20515,259.15890453958326,46,0.17006799999995792,35,0.3401360000000295
20516,259.3289725395833,48,0.17006800000001476,40,0.17006800000001476
20517,259.4990405395833,49,0.17006800000001476,50,0.36311425000002373
20518,259.6846610395833,61,0.18562050000002728,54,0.17749374999999645
20519,259.8621547895833,60,0.17749374999999645,51,0.7042715000000044
20520,260.0396485395833,58,0.17749374999999645,49,0.17749374999999645
20521,260.2171422895833,60,0.17749374999999645,56,0.17464200000000574
20522,260.3917842895833,58,0.17464200000000574,55,0.17464200000000574
20523,260.5664262895833,56,0.17464200000000574,53,0.3492840000000115
20524,260.7410682895833,54,0.17464200000000574,51,0.17464200000000574
20525,260.91571028958333,56,0.17464200000000574,53,0.34391529166663304
20526,261.0865291645833,54,0.17081887499995219,51,0.17309641666668085
20527,261.25962558124996,49,0.17309641666668085,48,0.3516707083332449
20528,261.4348961645833,51,0.17527058333331524,45,0.17640012499992963
20529,261.6112962895832,53,0.17640012499992963,46,0.3616345833333412
20530,261.70288699791655,54,0.09159070833334226,43,0.09090237499998466
20531,261.79378937291654,53,0.09090237499998466,46,0.09006545833335622
20532,261.8838548312499,54,0.09006545833335622,44,0.08907604166665806
20533,261.97293087291655,53,0.08907604166665806,46,0.3538666250000233
20534,262.0616777479166,54,0.08874687500002665,46,0.08858674999999039
20535,262.15026449791657,53,0.08858674999999039,47,0.05884433333329753
20536,262.20910883124986,52,0.05884433333329753,46,0.05884433333335437
20537,262.2679531645832,53,0.05884433333335437,46,0.05884433333335437
20538,262.3267974979166,54,0.05884433333335437,50,0.34820854166667914
20539,262.4145886229166,56,0.08779112500002384,47,0.08732099999997445
20540,262.50190962291657,54,0.08732099999997445,51,0.08685587500002612
20541,262.5887654979166,56,0.08685587500002612,47,0.08624054166665474
20542,262.67500603958325,54,0.08624054166665474,52,0.3438756979166442
20543,262.7609364145833,56,0.0859303750000322,49,0.08593037499997536
20544,262.84686678958326,54,0.08593037499997536,54,0.057286916666669185
20545,262.90415370624993,53,0.057286916666669185,51,0.057286916666669185
20546,262.9614406229166,54,0.057286916666669185,51,0.05744111458329826
20547,263.0188817374999,55,0.05744111458329826,58,0.34378037499999436
20548,263.1048317374999,56,0.08595000000002528,52,0.08594999999996844
20549,263.1907817374999,55,0.08594999999996844,56,0.08595000000002528
20550,263.2767317374999,56,0.08595000000002528,53,0.08593037499997536
20551,263.3626621124999,55,0.08593037499997536,60,0.3782268750000526
20552,263.4496813624999,56,0.08701925000002575,55,0.09231291666662855
20553,263.54199427916654,55,0.09231291666662855,61,0.06523679166667762
20554,263.6072310708332,54,0.06523679166667762,57,0.06854162500002303
20555,263.67577269583325,55,0.06854162500002303,57,0.06511629166669763
20556,263.74088898749994,56,0.06511629166669763,64,0.17558224999999084
20557,263.91647123749993,54,0.17558224999999084,51,0.17558224999999084
20558,264.0920534874999,52,0.17558224999999084,51,0.6908593750000023
20559,264.2676357374999,51,0.17558224999999084,54,0.17558224999999084
20560,264.4432179874999,50,0.17558224999999084,45,0.17006800000001476
20561,264.6132859874999,51,0.17006800000001476,48,0.16962687500000584
20562,264.7829128624999,52,0.16962687500000584,45,0.3590339583332707
20563,264.9519530708332,54,0.1690402083332856,46,0.18999374999998508
20564,265.1419468208332,55,0.18999374999998508,54,0.35513524999998936
20565,265.31757032083317,56,0.17562349999997195,49,0.1795117500000174
20566,265.4970820708332,61,0.1795117500000174,59,0.34379999999998745
20567,265.6689820708332,60,0.17189999999999372,55,0.17189999999999372
20568,265.8408820708332,59,0.17189999999999372,59,0.1899695000000179
20569,266.0308515708332,58,0.1899695000000179,48,0.17464533333333065
20570,266.2054969041665,57,0.17464533333333065,51,0.34193858333338767
20571,266.3773674874999,56,0.1718705833333729,54,0.17006800000001476
20572,266.5474354874999,55,0.17006800000001476,50,0.3392537500000117
20573,266.71720940416657,54,0.16977391666665653,47,0.16947983333335515
20574,266.8866892374999,52,0.16947983333335515,51,0.34579887500001405
20575,267.05690586249995,51,0.17021662500002321,49,0.17558224999999084
20576,267.23248811249994,40,0.17558224999999084,44,0.3401359999999727
20577,267.2750051124999,51,0.04251699999997527,41,0.04251700000003211
20578,267.31752211249994,49,0.04251700000003211,50,0.08503400000000738
20579,267.40255611249995,48,0.08503400000000738,45,0.17006799999995792
20580,267.5726241124999,49,0.17006799999995792,50,0.3401360000000295
20581,267.7426921124999,51,0.17006800000001476,45,0.17006800000001476
20582,267.91276011249994,52,0.17006800000001476,49,0.36311425000002373
20583,268.09838061249997,64,0.18562050000002728,57,0.17749374999999645
20584,268.27587436249996,63,0.17749374999999645,53,0.7042715000000044
20585,268.45336811249996,61,0.17749374999999645,51,0.17749374999999645
20586,268.63086186249996,63,0.17749374999999645,56,0.17464200000000574
20587,268.80550386249996,61,0.17464200000000574,55,0.17464200000000574
20588,268.98014586249997,59,0.17464200000000574,53,0.3492840000000115
20589,269.1547878625,57,0.17464200000000574,51,0.17464200000000574
20590,269.3294298625,59,0.17464200000000574,53,0.34391529166663304
20591,269.50024873749993,57,0.17081887499995219,51,0.17309641666668085
20592,269.6733451541666,52,0.17309641666668085,48,0.3516707083332449
20593,269.8486157374999,54,0.17527058333331524,45,0.17640012499992963
20594,270.02501586249986,56,0.17640012499992963,46,0.3616345833333412
20595,270.1470201958332,57,0.12200433333333649,44,0.1206427500000018
20596,270.2676629458332,56,0.1206427500000018,43,0.11898750000000291
20597,270.3866504458332,55,0.11898750000000291,45,0.3538666250000233
20598,270.5049796124999,56,0.11832916666668325,42,0.11784879166663131
20599,270.6228284041665,57,0.11784879166663131,43,0.11768866666670874
20600,270.7405170708332,56,0.11768866666670874,43,0.34820854166667914
20601,270.85741519583325,57,0.11689812500003427,43,0.1161179166666102
20602,270.97353311249987,56,0.1161179166666102,41,0.11519250000003467
20603,271.0887256124999,55,0.11519250000003467,43,0.3436696000000552
20604,271.20329944583324,56,0.11457383333333837,40,0.11457383333333837
20605,271.3178732791666,57,0.11457383333333837,40,0.11452193333337846
20606,271.43239521249996,56,0.11452193333337846,42,0.35350065000000086
20607,271.54882554583327,57,0.11643033333331232,39,0.11781843333335473
20608,271.6666439791666,56,0.11781843333335473,38,0.11925188333333381
20609,271.78589586249996,55,0.11925188333333381,41,0.41463819166665417
20610,271.90698292916665,56,0.12108706666668922,39,0.13316844999997102
20611,272.0401513791666,57,0.13316844999997102,38,0.16038267499999392
20612,272.2005340541666,56,0.16038267499999392,43,0.36176654166672506
20613,272.3839489125,54,0.18341485833337856,41,0.1783516833333465
20614,272.56230059583334,52,0.1783516833333465,40,0.6963323999999602
20615,272.7392178958333,51,0.17691729999995687,39,0.1760239666666621
20616,272.91524186249995,50,0.1760239666666621,38,0.17186075000000756
20617,273.08710261249996,51,0.17186075000000756,38,0.1715303833333337
20618,273.2586329958333,52,0.1715303833333337,38,0.35876500000000533
20619,273.4295927458333,54,0.17095975000000863,39,0.1878052499999967
20620,273.6173979958333,55,0.1878052499999967,39,0.3451511333333315
20621,273.7920807458333,56,0.17468274999998812,39,0.17046838333334335
20622,273.96254912916663,61,0.17046838333334335,43,0.379745000000014
20623,274.23881725416663,60,0.2762681250000014,42,0.10347687500001257
20624,274.34229412916665,59,0.10347687500001257,49,0.18530684375002693
20625,274.5276009729167,58,0.18530684375002693,43,0.08850353124995536
20626,274.70403512916664,57,0.17643415624996805,41,0.3465102187500406
20627,274.8783923666667,56,0.17435723750003262,40,0.08636070000005702
20628,275.0505453479167,55,0.172152981250008,39,0.34130600625002216
20629,275.2215440979167,54,0.17099875000002385,39,0.17030725624999832
20630,275.3918513541667,51,0.17030725624999832,38,0.3454346604166858
20631,275.5617037645834,52,0.16985241041669497,38,0.17558224999999084
20632,275.7372860145834,49,0.17558224999999084,34,0.3401359999999727
20633,275.77980301458336,51,0.04251699999997527,34,0.04251700000003211
20634,275.8223200145834,49,0.04251700000003211,38,0.08503400000000738
20635,275.9073540145834,48,0.08503400000000738,38,0.17006799999995792
20636,276.07742201458336,49,0.17006799999995792,37,0.3401360000000295
20637,276.2474900145834,52,0.17006800000001476,38,0.17006800000001476
20638,276.4175580145834,20,0.17006800000001476,51,0.17186075000000756
20639,276.5894187645834,49,0.17186075000000756,41,0.17186075000000756
20640,276.7612795145834,47,0.17186075000000756,40,0.6834163749999789
20641,276.9331402645834,46,0.17186075000000756,39,0.1718607499999507
20642,277.10500101458337,45,0.1718607499999507,38,0.17006800000001476
20643,277.2750690145834,46,0.17006800000001476,38,0.16962687500000584
20644,277.4446958895834,47,0.16962687500000584,38,0.3579332083332929
20645,277.61373609791667,49,0.1690402083332856,39,0.1888930000000073
20646,277.8026290979167,50,0.1888930000000073,39,0.35232275000004165
20647,277.9754400979167,51,0.17281100000002425,47,0.1795117500000174
20648,278.1549518479167,56,0.1795117500000174,43,0.3349334999999769
20649,278.32241859791674,52,0.16746675000001687,42,0.16746674999996003
20650,278.4898853479167,51,0.16746674999996003,47,0.17279124999998885
20651,278.6626765979167,49,0.17279124999998885,41,0.17279124999998885
20652,278.8354678479167,47,0.17279124999998885,40,0.7005717500000515
20653,279.0082590979167,46,0.1727912500000457,39,0.17558224999999084
20654,279.1838413479167,45,0.17558224999999084,38,0.1737117499999954
20655,279.3575530979167,46,0.1737117499999954,45,0.17848650000001953
20656,279.5360395979167,51,0.17848650000001953,47,0.33837149999999383
20657,279.7052253479167,50,0.16918574999999691,39,0.16918574999999691
20658,279.8744110979167,16,0.16918574999999691,48,0.16772383333335483
20659,280.0421349312501,47,0.16772383333335483,39,0.16918724999999313
20660,280.21132218125007,46,0.16918724999999313,39,0.3429884999999899
20661,280.38198468125006,44,0.17066249999999172,38,0.1723259999999982
20662,280.55431068125006,15,0.1723259999999982,49,0.1866832499999873
20663,280.74099393125005,51,0.1866832499999873,49,0.17186075000000756
20664,280.91285468125005,49,0.17186075000000756,40,0.6834163750000357
20665,281.08471543125006,47,0.17186075000000756,39,0.17186075000000756
20666,281.25657618125007,45,0.17186075000000756,38,0.17006800000001476
20667,281.4266441812501,46,0.17006800000001476,38,0.16962687500000584
20668,281.5962710562501,47,0.16962687500000584,38,0.3557699583332692
20669,281.7653112645834,49,0.1690402083332856,39,0.1867297499999836
20670,281.95204101458336,50,0.1867297499999836,39,0.34251766666670846
20671,282.11991668125006,51,0.16787566666670273,49,0.17464200000000574
20672,282.29455868125007,56,0.17464200000000574,43,0.33666249999998854
20673,282.46288993125006,52,0.16833124999999427,42,0.16833124999999427
20674,282.63122118125005,18,0.16833124999999427,50,0.17279124999998885
20675,282.80401243125004,49,0.17279124999998885,41,0.17279124999998885
20676,282.97680368125003,47,0.17279124999998885,40,0.7005717500000515
20677,283.1495949312501,46,0.1727912500000457,39,0.17558224999999084
20678,283.32517718125007,45,0.17558224999999084,38,0.1737117499999954
20679,283.49888893125006,46,0.1737117499999954,38,0.17848650000001953
20680,283.6773754312501,51,0.17848650000001953,45,0.33837149999999383
20681,283.8465611812501,50,0.16918574999999691,39,0.16918574999999691
20682,284.0157469312501,16,0.16918574999999691,51,0.16772383333335483
20683,284.18347076458343,47,0.16772383333335483,39,0.16918724999999313
20684,284.3526580145834,46,0.16918724999999313,39,0.3429884999999899
20685,284.5233205145834,44,0.17066249999999172,38,0.1723259999999982
20686,284.6956465145834,15,0.1723259999999982,49,0.1866832499999873
20687,284.8823297645834,51,0.1866832499999873,46,0.17186075000000756
20688,285.0541905145834,49,0.17186075000000756,40,0.6834163750000357
20689,285.2260512645834,47,0.17186075000000756,39,0.17186075000000756
20690,285.3979120145834,45,0.17186075000000756,38,0.17006800000001476
20691,285.56798001458344,46,0.17006800000001476,38,0.16962687500000584
20692,285.73760688958345,47,0.16962687500000584,38,0.348551958333303
20693,285.90664709791673,49,0.1690402083332856,39,0.1795117500000174
20694,286.08615884791675,50,0.1795117500000174,39,0.34251766666670846
20695,286.25403451458345,51,0.16787566666670273,49,0.17464200000000574
20696,286.42867651458346,54,0.17464200000000574,43,0.33314849999999296
20697,286.59525076458345,52,0.16657424999999648,42,0.16657424999999648
20698,286.76182501458345,51,0.16657424999999648,50,0.3437215000000151
20699,286.93368576458346,49,0.17186075000000756,41,0.17186075000000756
20700,287.10554651458347,47,0.17186075000000756,40,0.6834163749999789
20701,287.2774072645835,46,0.17186075000000756,39,0.1718607499999507
20702,287.4492680145834,45,0.1718607499999507,36,0.17006800000001476
20703,287.61933601458344,46,0.17006800000001476,37,0.16962687500000584
20704,287.78896288958344,47,0.16962687500000584,38,0.3373527083332988
20705,287.95800309791673,49,0.1690402083332856,39,0.1683125000000132
20706,288.12631559791674,50,0.1683125000000132,39,0.3422186666667244
20707,288.29389226458346,51,0.16757666666671867,48,0.17464200000000574
20708,288.46853426458347,52,0.17464200000000574,40,0.33314849999999296
20709,288.63510851458346,50,0.16657424999999648,38,0.16657424999999648
20710,288.80168276458346,51,0.16657424999999648,49,0.3437215000000151
20711,288.97354351458347,49,0.17186075000000756,41,0.17186075000000756
20712,289.1454042645835,47,0.17186075000000756,40,0.6807747687499273
20713,289.3172650145835,46,0.17186075000000756,39,0.1718607499999507
20714,289.48912576458343,45,0.1718607499999507,36,0.16872201874997472
20715,289.6578477833334,46,0.16872201874997472,37,0.16833124999999427
20716,289.8261790333334,47,0.16833124999999427,38,0.3546010375000037
20717,289.9945102833334,49,0.16833124999999427,39,0.18626978750000944
20718,290.1807800708334,50,0.18626978750000944,39,0.3423705416666962
20719,290.3485086125001,51,0.1677285416666905,50,0.17464200000000574
20720,290.5231506125001,54,0.17464200000000574,40,0.33314849999999296
20721,290.6897248625001,52,0.16657424999999648,38,0.16657424999999648
20722,290.8562991125001,51,0.16657424999999648,49,0.3437215000000151
20723,291.0281598625001,49,0.17186075000000756,41,0.17186075000000756
20724,291.2000206125001,47,0.17186075000000756,40,0.6834163749999789
20725,291.3718813625001,46,0.17186075000000756,39,0.1718607499999507
20726,291.54374211250007,45,0.1718607499999507,36,0.17006800000001476
20727,291.7138101125001,46,0.17006800000001476,37,0.16962687500000584
20728,291.8834369875001,47,0.16962687500000584,38,0.3536557083332923
20729,292.0524771958334,49,0.1690402083332856,39,0.1846155000000067
20730,292.2370926958334,50,0.1846155000000067,39,0.3426663750000216
20731,292.4051170708334,51,0.16802437500001588,50,0.17464200000000574
20732,292.5797590708334,52,0.17464200000000574,40,0.6662969999999859
20733,292.7463333208334,50,0.16657424999999648,38,0.16657424999999648
20734,292.9129075708334,51,0.16657424999999648,50,0.33314849999999296
20735,293.0794818208334,49,0.16657424999999648,44,0.16657424999999648
20736,293.2460560708334,47,0.16657424999999648,43,0.16657424999999648
20737,293.4126303208334,46,0.16657424999999648,42,0.17464200000000574
20738,293.5872723208334,45,0.17464200000000574,45,0.16657424999999648
20739,293.7538465708334,46,0.16657424999999648,46,0.16657424999999648
20740,293.9204208208334,47,0.16657424999999648,50,0.16657424999999648
20741,294.0869950708334,49,0.16657424999999648,55,0.16657424999999648
20742,294.2535693208334,47,0.16657424999999648,57,0.16657424999999648
20743,294.4201435708334,46,0.16657424999999648,57,0.16657424999999648
20744,294.58671782083337,44,0.16657424999999648,57,0.16657424999999648
20745,294.75329207083337,43,0.16657424999999648,59,0.17558224999999084
20746,294.92887432083336,42,0.17558224999999084,58,0.16657424999999648
20747,295.09544857083336,43,0.16657424999999648,61,0.16657424999999648
20748,295.26202282083335,44,0.16657424999999648,63,0.16657424999999648
20749,295.42859707083335,46,0.16657424999999648,65,0.16657424999999648
20750,295.59517132083334,40,0.16657424999999648,74,0.3401359999999727
20751,295.76523932083336,46,0.17006800000001476,66,0.17006799999995792
20752,295.9353073208333,39,0.17006799999995792,71,0.3401360000000295
20753,296.10537532083333,46,0.17006800000001476,63,0.17006800000001476
20754,296.27544332083335,38,0.17006800000001476,60,0.17006800000001476
20755,296.44551132083336,39,0.17006800000001476,63,0.17006799999995792
20756,296.6155793208333,40,0.17006799999995792,65,0.17006800000001476
20757,296.78564732083333,42,0.17006800000001476,68,0.17006800000001476
20758,296.95571532083335,40,0.17006800000001476,70,0.17006800000001476
20759,297.12578332083336,39,0.17006800000001476,68,0.17006799999995792
20760,297.2958513208333,37,0.17006799999995792,67,0.17006800000001476
20761,297.46591932083334,35,0.17006800000001476,65,0.17006800000001476
20762,297.63598732083335,34,0.17006800000001476,76,0.512582000000009
20763,297.80664982083334,39,0.17066249999999172,69,0.17095975000000863
20764,297.97760957083335,37,0.17095975000000863,70,0.17095975000000863
20765,298.14856932083336,33,0.17095975000000863,70,0.17095975000000863
20766,298.31952907083337,32,0.17095975000000863,73,0.5211352499999862
20767,298.49324082083336,39,0.1737117499999954,70,0.1737117499999954
20768,298.66695257083336,37,0.1737117499999954,70,0.1737117499999954
20769,298.84066432083335,31,0.1737117499999954,70,0.1737117499999954
20770,299.01437607083335,30,0.1737117499999954,79,0.5324812499999894
20771,299.19186982083335,35,0.17749374999999645,72,0.17749374999999645
20772,299.36936357083334,34,0.17749374999999645,74,0.17749374999999645
20773,299.54685732083334,30,0.17749374999999645,75,0.17884820833336335
20774,299.7257055291667,28,0.17884820833336335,82,0.5685262499999908
20775,299.9120365708333,34,0.1863310416666195,78,0.1894118333333381
20776,300.10144840416666,32,0.1894118333333381,81,0.19278337500003317
20777,300.2942317791667,28,0.19278337500003317,82,0.19753083333330324
20778,300.4917626125,27,0.19753083333330324,88,0.4482808750000231
20779,300.70585857083336,30,0.2140959583333597,82,0.2341849166666634
20780,300.9400434875,25,0.2341849166666634,84,0.5560662916666388
20781,301.2010723208333,30,0.26102883333328464,86,0.29503745833335415
20782,301.49610977916666,68,0.29503745833335415,102,0.6178940000000352
20783,301.97381677916667,42,0.47770700000000943,79,0.29895075000001725
20784,302.1140037791667,66,0.14018700000002582,93,0.1428873749999866
20785,302.2727675291667,66,0.15876374999999143,93,0.3508770000000254
20786,302.5359252791667,42,0.26315775000000485,71,0.08771925000002057
20787,302.6236445291667,30,0.08771925000002057,85,0.08670525000002272
20788,302.6930087291667,44,0.06936419999999544,71,0.06936419999999544
20789,302.7623729291667,42,0.06936419999999544,71,0.06936419999999544
20790,302.8317371291667,41,0.06936419999999544,71,0.06936419999999544
20791,302.9011013291667,42,0.06936419999999544,71,0.06936419999999544
20792,302.9704655291667,47,0.06936419999999544,87,0.16666674999999032
20793,303.30379902916667,63,0.33333349999998063,88,0.3431372500000407
20794,303.4704657791667,64,0.16666675000004716,86,0.17647049999999354
20795,303.6469362791667,68,0.17647049999999354,93,0.3415032916666405
20796,303.90510619583335,66,0.25816991666664535,88,0.07500003749998996
20797,303.98843957083335,66,0.08333337499999516,93,0.3221122499999751
20798,304.13198032083335,65,0.14354074999999966,88,0.17857149999997546
20799,304.3105518208333,66,0.17857149999997546,88,0.35714300000000776
20800,304.57840907083335,42,0.26785725000002003,70,0.08928574999998773
20801,304.66769482083333,30,0.08928574999998773,80,0.08522725000000264
20802,304.7358766208333,44,0.06818179999999074,70,0.06818179999999074
20803,304.8040584208333,42,0.06818179999999074,70,0.06818179999999074
20804,304.8722402208333,41,0.06818179999999074,70,0.06818180000004759
20805,304.94042202083335,42,0.06818180000004759,70,0.06818179999999074
20806,305.00860382083334,47,0.06818179999999074,87,0.1612902499999791
20807,305.33118432083336,63,0.32258050000001504,88,0.3361582499999827
20808,305.49785107083335,64,0.16666674999999032,86,0.16949149999999236
20809,305.66734257083334,68,0.16949149999999236,93,0.33333349999998063
20810,305.83400932083333,66,0.16666674999999032,88,0.30952400000001035
20811,305.9173426958333,68,0.08333337499999516,81,0.08333337499999516
20812,306.0006760708333,66,0.08333337499999516,93,0.3133117500000253
20813,306.14353332083334,65,0.14285725000002003,88,0.17045450000000528
20814,306.31398782083335,68,0.17045450000000528,93,0.33333349999998063
20815,306.48065457083334,66,0.16666674999999032,88,0.31818199999997887
20816,306.56398794583333,68,0.08333337499999516,81,0.08333337499999516
20817,306.6473213208333,66,0.08333337499999516,93,0.15151524999998855
20818,306.7988365708333,65,0.15151524999998855,88,0.1724137499999756
20819,306.9712503208333,66,0.1724137499999756,88,0.27156187499997486
20820,307.24281219583327,54,0.27156187499997486,72,0.3816808750000291
20821,307.29525975833326,61,0.05244756249999227,72,0.32923331250003685
20822,307.3477073208333,69,0.052447562500049116,85,0.27678574999998773
20823,307.57985019583333,20,0.2321428750000223,62,0.3571429999999509
20824,307.6244930708333,54,0.04464287499996544,70,0.4464287499999955
20825,307.6691359458333,30,0.044642875000022286,74,0.3125001249999855
20826,307.7137788208333,68,0.04464287499996544,83,0.26785725000002003
20827,307.9369931958333,51,0.22321437499999774,70,0.40178587500003005
20828,307.9816360708333,54,0.044642875000022286,70,0.35714300000000776
20829,308.0262789458333,42,0.044642875000022286,73,0.3125001249999855
20830,308.0709218208333,63,0.04464287499996544,83,0.26785725000002003
20831,308.3387790708333,49,0.26785725000002003,70,0.4464287499999955
20832,308.38342194583333,32,0.044642875000022286,75,0.4017858749999732
20833,308.4280648208333,64,0.04464287499996544,83,0.35714300000000776
20834,308.7852078208333,57,0.35714300000000776,80,0.36363649999998415
20835,308.9064199875,45,0.12121216666668033,80,0.12121216666668033
20836,309.02763215416667,57,0.12121216666668033,80,0.12121216666662349
20837,309.1488443208333,56,0.12121216666662349,84,0.35294099999998707
20838,309.5017853208333,52,0.35294099999998707,79,0.3870969999999829
20839,309.88888232083326,69,0.3870969999999829,97,0.5363877500000171
20840,310.28103932083326,44,0.3921569999999974,79,0.30555574999999635
20841,310.4252700708333,68,0.14423075000001973,93,0.14519250000000739
20842,310.58659507083325,68,0.16132499999997663,93,0.3468209999999772
20843,310.84671082083327,44,0.2601157500000113,71,0.08670524999996587
20844,310.93341607083323,32,0.08670524999996587,85,0.08670525000002272
20845,311.0027802708332,45,0.06936419999999544,71,0.06936420000005228
20846,311.0721444708333,44,0.06936420000005228,71,0.06936419999999544
20847,311.1415086708333,43,0.06936419999999544,71,0.06936419999999544
20848,311.21087287083327,44,0.06936419999999544,71,0.06936419999999544
20849,311.28023707083327,49,0.06936419999999544,87,0.16666674999999032
20850,311.61357057083325,64,0.33333349999998063,88,0.3431372500000407
20851,311.7802373208333,66,0.16666675000004716,86,0.17647049999999354
20852,311.9567078208333,69,0.17647049999999354,93,0.3415032916666405
20853,312.21487773749993,68,0.25816991666664535,88,0.07500003749998996
20854,312.2982111124999,68,0.08333337499999516,93,0.3221122499999751
20855,312.4417518624999,67,0.14354074999999966,88,0.17857149999997546
20856,312.6203233624999,56,0.17857149999997546,88,0.35714300000000776
20857,312.8881806124999,44,0.26785725000002003,71,0.08928574999998773
20858,312.9774663624999,32,0.08928574999998773,80,0.08522725000000264
20859,313.0456481624999,45,0.06818179999999074,71,0.06818179999999074
20860,313.1138299624999,44,0.06818179999999074,71,0.06818179999999074
20861,313.1820117624999,43,0.06818179999999074,71,0.06818180000004759
20862,313.25019356249993,44,0.06818180000004759,71,0.06818179999999074
20863,313.3183753624999,49,0.06818179999999074,87,0.32258050000001504
20864,313.64095586249994,70,0.32258050000001504,96,0.3596198333332836
20865,313.8163943624999,71,0.1754384999999843,94,0.18418133333329934
20866,314.0005756958332,75,0.18418133333329934,101,0.1734104999999886
20867,314.1739861958332,70,0.1734104999999886,88,0.1734104999999886
20868,314.3473966958332,75,0.1734104999999886,93,0.3133117500000253
20869,314.4902539458332,49,0.14285725000002003,70,0.17045450000000528
20870,314.5754811958332,73,0.08522725000000264,92,0.07670452500002511
20871,314.6607084458332,73,0.08522725000000264,97,0.16666674999999032
20872,314.8273751958332,66,0.16666674999999032,84,0.16666674999999032
20873,314.9940419458332,73,0.16666674999999032,90,0.3133117500000253
20874,315.1368991958332,47,0.14285725000002003,70,0.17045450000000528
20875,315.2221264458332,71,0.08522725000000264,80,0.07670452500002511
20876,315.3073536958332,71,0.08522725000000264,93,0.16666674999999032
20877,315.4740204458332,66,0.16666674999999032,79,0.16666674999999032
20878,315.6406871958332,71,0.16666674999999032,88,0.3133117500000253
20879,315.78354444583323,46,0.14285725000002003,70,0.17045450000000528
20880,315.86877169583323,70,0.08522725000000264,79,0.07670452500002511
20881,315.95399894583323,70,0.08522725000000264,90,0.16666674999999032
20882,316.1206656958332,65,0.16666674999999032,78,0.16666674999999032
20883,316.2873324458332,70,0.16666674999999032,85,0.3133117500000253
20884,316.43018969583323,44,0.14285725000002003,70,0.17045450000000528
20885,316.51541694583324,68,0.08522725000000264,81,0.07670452500002511
20886,316.60064419583324,68,0.08522725000000264,88,0.16666674999999032
20887,316.76731094583323,61,0.16666674999999032,75,0.16666674999999032
20888,316.9339776958332,68,0.16666674999999032,82,0.3133117500000253
20889,317.07683494583324,42,0.14285725000002003,70,0.17045450000000528
20890,317.16206219583324,66,0.08522725000000264,75,0.08522725000000264
20891,317.24728944583325,64,0.08522725000000264,90,0.6466452500000059
20892,317.41395619583324,59,0.16666674999999032,75,0.16666674999999032
20893,317.5806229458332,64,0.16666674999999032,84,0.3133117500000253
20894,317.72348019583325,39,0.14285725000002003,68,0.17045450000000528
20895,317.80870744583325,63,0.08522725000000264,71,0.08522725000000264
20896,317.89393469583325,44,0.08522725000000264,88,0.6690798750000226
20897,318.23484369583326,37,0.34090900000001056,59,0.3281708750000121
20898,318.5630145708333,27,0.3281708750000121,63,0.31519749999995383
20899,318.64468807083324,47,0.08167349999996532,60,0.07964950000001636
20900,318.72433757083326,46,0.07964950000001636,61,0.07785795833331122
20901,318.80219552916657,47,0.07785795833331122,61,0.07601654166666094
20902,318.87821207083323,44,0.07601654166666094,62,0.32594012499998826
20903,319.04125557083324,46,0.16304350000001477,64,0.16289662499997348
20904,319.2041521958332,20,0.16289662499997348,69,0.3123654583333746
20905,319.2843676124999,49,0.08021541666670373,67,0.07881250000002638
20906,319.36318011249995,47,0.07881250000002638,69,0.07732099999998354
20907,319.44050111249993,49,0.07732099999998354,70,0.07601654166666094
20908,319.5165176541666,46,0.07601654166666094,71,0.3260869999999727
20909,319.6795611541666,47,0.16304350000001477,73,0.16304349999995793
20910,319.84260465416656,48,0.16304349999995793,77,0.33627574999997023
20911,320.00838715416654,49,0.16578249999997752,73,0.1704932499999927
20912,320.17888040416653,51,0.1704932499999927,73,0.33373874999995223
20913,320.3402054041665,52,0.16132499999997663,74,0.1724137499999756
20914,320.5126191541665,51,0.1724137499999756,81,0.3260869999999727
20915,320.83870615416646,56,0.3260869999999727,83,0.24456525000005058
20916,321.0832714041665,54,0.24456525000005058,75,0.07336957499995833
20917,321.1647931541665,54,0.08152174999997897,84,0.16304350000001477
20918,321.3278366541665,47,0.16304350000001477,79,0.33158274999993864
20919,321.49088015416646,59,0.16304349999995793,83,0.33707850000001827
20920,321.7436890291665,58,0.2528088750000279,77,0.08426962499999036
20921,321.8279586541665,56,0.08426962499999036,77,0.6790478750000375
20922,322.1788356541665,37,0.3508770000000254,64,0.3281708750000121
20923,322.5070065291665,27,0.3281708750000121,75,0.31519749999995383
20924,322.6683295291665,58,0.16132299999998168,71,0.0520847500000059
20925,322.7204142791665,59,0.0520847500000059,72,0.05128341666664937
20926,322.77169769583315,58,0.05128341666664937,71,0.05050633333331689
20927,322.82220402916647,56,0.05050633333331689,72,0.32594012499998826
20928,322.9852475291665,58,0.16304350000001477,73,0.16289662499997348
20929,323.14814415416646,20,0.16289662499997348,78,0.3123654583333746
20930,323.3071720708332,59,0.1590279166667301,71,0.05167995833329542
20931,323.3588520291665,61,0.05167995833329542,71,0.05115125000003218
20932,323.4100032791665,59,0.05115125000003218,71,0.05050633333331689
20933,323.46050961249983,58,0.05050633333331689,78,0.3260869999999727
20934,323.62355311249985,59,0.16304350000001477,79,0.16304349999995793
20935,323.7865966124998,60,0.16304349999995793,82,0.1639702499999771
20936,323.9505668624998,61,0.1639702499999771,77,0.1704932499999927
20937,324.1210601124998,63,0.1704932499999927,77,0.3290395000000217
20938,324.2815223624998,64,0.16046225000002323,77,0.16857724999999846
20939,324.4500996124998,63,0.16857724999999846,82,0.17045450000000528
20940,324.7910086124998,68,0.34090900000001056,83,0.26117112499997575
20941,325.0521797374998,66,0.26117112499997575,75,0.07988163750002286
20942,325.1409371124998,66,0.08875737500000014,84,0.1724137499999756
20943,325.35645429999977,32,0.21551718749998372,61,0.3793104375000098
20944,325.3995577374998,54,0.04310343750000811,66,0.3362070000000017
20945,325.4426611749998,42,0.04310343750000811,61,0.2931035624999936
20946,325.4857646124998,64,0.04310343750000811,83,0.2500001249999855
20947,325.7357647374998,63,0.2500001249999855,77,0.34496112499999754
20948,325.7774314249998,32,0.041666687500026,66,0.30329443749997154
20949,325.8190981124998,61,0.04166668749996916,83,0.2616277500000024
20950,326.0807258624998,30,0.2616277500000024,61,0.3400181250000287
20951,326.1243304874998,37,0.0436046250000004,61,0.2964135000000283
20952,326.1679351124998,61,0.0436046250000004,77,0.2528088750000279
20953,326.4207439874998,63,0.2528088750000279,77,0.3454450416666077
20954,326.46287879999977,32,0.042134812499966756,57,0.30331022916664097
20955,326.5050136124998,64,0.0421348125000236,81,0.34889466666663793
20956,326.7661890291664,18,0.26117541666661737,57,0.3391158750000045
20957,326.81004865416645,25,0.043859625000038704,57,0.2952562499999658
20958,326.85390827916643,64,0.04385962499998186,79,0.25139662499998394
20959,327.1053049041664,63,0.25139662499998394,75,0.34695662500001845
20960,327.14720434166645,20,0.04189943750003522,57,0.30505718749998323
20961,327.18910377916643,61,0.041899437499978376,82,0.3508770000000254
20962,327.45226152916644,18,0.26315775000000485,56,0.3391158750000045
20963,327.4961211541664,25,0.04385962499998186,56,0.29525625000002265
20964,327.53998077916646,59,0.043859625000038704,79,0.25139662499998394
20965,327.79137740416644,57,0.25139662499998394,74,0.34197704166666654
20966,327.8332768416665,32,0.04189943750003522,61,0.3000776041666313
20967,327.87517627916645,56,0.041899437499978376,78,0.25817816666665294
20968,328.22005969583313,24,0.34488341666667566,64,0.08400775000001204
20969,328.30406744583314,25,0.08400775000001204,64,0.08321057500000961
20970,328.38727802083315,27,0.08321057500000961,66,0.08287287500002094
20971,328.47015089583317,28,0.08287287500002094,67,0.08244797499997958
20972,328.55259887083315,30,0.08244797499997958,67,0.08214739999999665
20973,328.63474627083315,32,0.08214739999999665,68,0.08184844999999541
20974,328.71659472083314,34,0.08184844999999541,69,0.08152175000003581
20975,328.7981164708332,36,0.08152175000003581,69,0.08111050000002251
20976,328.8792269708332,37,0.08111050000002251,70,0.08081952499998124
20977,328.9600464958332,39,0.08081952499998124,71,0.08053012499999568
20978,329.0405766208332,40,0.08053012499999568,71,0.08021387500002675
20979,329.1207904958332,42,0.08021387500002675,72,0.07981569166662439
20980,329.20060618749983,44,0.07981569166662439,73,0.07953397500000392
20981,329.28014016249983,46,0.07953397500000392,73,0.07925372500000094
20982,329.35939388749983,48,0.07925372500000094,74,0.07894737499998428
20983,329.4383412624998,49,0.07894737499998428,74,0.07856155833331968
20984,329.51690282083314,51,0.07856155833331968,75,0.07828860000000759
20985,329.59519142083315,52,0.07828860000000759,77,0.07801706666668906
20986,329.67320848749983,54,0.07801706666668906,77,0.07772024999997029
20987,329.7509287374998,56,0.07772024999997029,78,0.0773463333333666
20988,329.8282750708332,58,0.0773463333333666,77,0.07708172500002775
20989,329.9053567958332,60,0.07708172500002775,77,0.07681845833326406
20990,329.98217525416646,61,0.07681845833326406,78,0.07653062500003216
20991,330.0587058791665,63,0.07653062500003216,79,0.07616802499995856
20992,330.13487390416645,64,0.07616802499995856,80,0.07591142500001524
20993,330.21078532916647,66,0.07591142500001524,80,0.07565609166664444
20994,330.2864414208331,68,0.07565609166664444,81,0.07537687499996082
20995,330.3618182958331,70,0.07537687499996082,82,0.0945700000000329
20996,330.4563882958331,72,0.0945700000000329,83,0.08928562500000226
20997,330.5456739208331,61,0.08928562500000226,92,0.16167858333335516
20998,330.78887425416644,75,0.24320033333333413,85,0.08152175000003581
20999,330.8703960041665,70,0.08152175000003581,91,0.1578947500000254
21000,331.0282907541665,69,0.1578947500000254,85,0.15789474999996855
21001,331.1861855041665,73,0.15789474999996855,90,0.33519549999999754
21002,331.52138100416647,70,0.33519549999999754,85,0.31413600000001907
21003,331.8355170041665,71,0.31413600000001907,88,0.3243244999999888
21004,332.1598415041665,66,0.3243244999999888,85,0.33577933333333476
21005,332.4956208374998,68,0.33577933333333476,88,0.3191489999999817
21006,332.8147698374998,66,0.3191489999999817,85,0.33707850000001827
21007,333.1518483374998,63,0.33707850000001827,83,0.3208554999999933
21008,333.4727038374998,59,0.3208554999999933,80,0.3373843333333184
21009,333.8100881708331,56,0.3373843333333184,83,0.32258050000001504
21010,334.13266867083314,54,0.32258050000001504,80,0.34285699999998087
21011,334.4755256708331,51,0.34285699999998087,80,0.1617249999999899
21012,334.7989756708331,39,0.3234499999999798,68,0.29702950000000783
21013,334.8732330458331,44,0.07425737500000196,61,0.07425737500000196
21014,334.9474904208331,42,0.07425737500000196,65,0.07425737500000196
21015,335.0217477958331,44,0.07425737500000196,61,0.07425737500000196
21016,335.0960051708331,41,0.07425737500000196,81,0.294433333333302
21017,335.3904385041664,44,0.294433333333302,71,0.14072625000000016
21018,335.4842560041664,47,0.09381750000000011,73,0.09355491666667604
21019,335.5778109208331,50,0.09355491666667604,75,0.09329233333335196
21020,335.67110325416644,53,0.09329233333335196,77,0.13912075000001778
21021,335.7638504208331,56,0.09274716666664062,79,0.09274716666669747
21022,335.8565975874998,59,0.09274716666669747,81,0.09177900000003092
21023,335.9483765874998,62,0.09177900000003092,83,0.2810855000000174
21024,336.04054450416646,65,0.09216791666665358,85,0.09367733333334627
21025,336.1342218374998,77,0.09367733333334627,87,0.09524025000001757
21026,336.2294620874998,66,0.09524025000001757,89,0.14881166666668832
21027,336.5290275041665,61,0.2995654166666668,89,0.06882000000001653
21028,336.66666750416647,61,0.13763999999997623,83,0.07178412500002196
21029,336.81023575416646,61,0.14356824999998707,89,0.14423075000001973
21030,337.09869725416644,60,0.2884614999999826,83,0.14781249999998636
21031,337.2465097541664,61,0.14781249999998636,87,0.1557347500000219
21032,337.40224450416645,63,0.1557347500000219,91,0.2941175000000271
21033,337.6963620041665,58,0.2941175000000271,89,0.3174604999999815
21034,338.01382250416646,59,0.3174604999999815,88,0.1492982500000153
21035,338.31241900416643,39,0.29859649999997373,68,0.2870814999999993
21036,338.38418937916646,44,0.07177037500002825,61,0.07177037499997141
21037,338.45595975416643,42,0.07177037499997141,65,0.07177037500002825
21038,338.52773012916646,44,0.07177037500002825,61,0.07177037499997141
21039,338.59950050416643,41,0.07177037499997141,81,0.2861433333333139
21040,338.88564383749974,44,0.2861433333333139,71,0.14072625000000016
21041,338.97946133749974,47,0.09381750000000011,73,0.09355491666667604
21042,339.0730162541664,50,0.09355491666667604,75,0.09329233333335196
21043,339.16630858749977,53,0.09329233333335196,77,0.13811674999999468
21044,339.2585537541664,56,0.0922451666666575,79,0.09195449999998573
21045,339.3505082541664,59,0.09195449999998573,81,0.09259266666668964
21046,339.4431009208331,62,0.09259266666668964,83,0.28148116666665146
21047,339.5363415874998,65,0.09324066666670205,85,0.09367733333328943
21048,339.6300189208331,77,0.09367733333328943,87,0.09456316666665998
21049,339.72458208749975,78,0.09456316666665998,89,0.14705874999998514
21050,340.0186995874998,61,0.2941175000000271,89,0.06757974999999306
21051,340.15385908749977,61,0.1351594999999861,83,0.06978037499999346
21052,340.29341983749975,61,0.1395607499999869,89,0.14285725000002003
21053,340.4362770874998,63,0.14285725000002003,75,0.1428572499999632
21054,340.57913433749974,60,0.1428572499999632,83,0.15306125000000748
21055,340.73219558749975,61,0.15306125000000748,87,0.15306125000000748
21056,340.88525683749975,63,0.15306125000000748,91,0.34482750000000806
21057,341.23008433749976,58,0.34482750000000806,89,0.35738474999999426
21058,341.58746908749976,59,0.35738474999999426,102,0.4283555000000092
21059,341.90140808749976,30,0.31393900000000485,79,0.11441650000000436
21060,342.01582458749976,54,0.11441650000000436,93,0.11491312499998685
21061,342.1435058374998,54,0.12768125000002328,93,0.5694685000000277
21062,342.4299018374998,42,0.28639600000002474,85,0.07076812499997231
21063,342.7129743374998,47,0.28307250000000295,86,0.1360297499999774
21064,342.9850338374998,63,0.27205950000001167,88,0.1360297499999774
21065,343.1210635874998,64,0.1360297499999774,86,0.14403674999999794
21066,343.2651003374998,68,0.14403674999999794,102,0.4303725000000327
21067,343.58105633749983,30,0.3159560000000283,79,0.11441650000000436
21068,343.69547283749984,66,0.11441650000000436,93,0.11491312499998685
21069,343.82315408749986,66,0.12768125000002328,93,0.5694685000000277
21070,344.1095500874999,42,0.28639600000002474,85,0.07076812499997231
21071,344.3926225874999,47,0.28307250000000295,86,0.1360297499999774
21072,344.6646820874999,63,0.27205950000001167,88,0.1360297499999774
21073,344.8007118374999,64,0.1360297499999774,86,0.14403674999999794
21074,344.9447485874999,68,0.14403674999999794,102,0.39610650000003034
21075,345.2264385874999,30,0.281690000000026,79,0.11441650000000436
21076,345.3408550874999,66,0.11441650000000436,93,0.13235674999998537
21077,345.4732118374999,68,0.13235674999998537,102,0.403652749999992
21078,345.7398783374999,42,0.26666649999998526,85,0.06849312499997495
21079,345.8768645874999,66,0.13698625000000675,93,0.13698625000000675
21080,346.0138508374999,68,0.13698625000000675,102,0.39473700000002054
21081,346.27700883749986,42,0.2631579999999758,73,0.13157900000004474
21082,346.4085878374999,66,0.13157900000004474,93,0.13888900000000604
21083,346.5474768374999,68,0.13888900000000604,102,0.3976078333333817
21084,346.8306681708333,30,0.2831913333333773,79,0.11441650000000436
21085,346.9450846708333,66,0.11441650000000436,93,0.11912107500000957
21086,347.0774414208333,66,0.13235674999998537,93,0.5694685000000277
21087,347.22063942083327,22,0.14319799999998395,80,0.07159899999999197
21088,347.3638374208333,20,0.1431980000000408,81,0.07076812499997231
21089,347.5053736708333,18,0.14153625000000147,81,0.07076812499997231
21090,347.6469099208333,68,0.14153625000000147,93,0.06891320833329928
21091,347.7852551708333,70,0.1383452499999862,96,0.14113649999995914
21092,347.92639167083325,71,0.14113649999995914,100,0.1441855833333534
21093,348.0705772541666,73,0.1441855833333534,105,0.2895772083332986
21094,348.2177989624999,71,0.14722170833329074,110,0.2847110000000157
21095,349.0719319624999,43,0.8541329999999903,93,0.07798687500002188
21096,349.2279057124999,43,0.15597374999998692,89,0.07798687500002188
21097,349.38387946249986,39,0.15597374999998692,93,0.15597375000004376
21098,349.6958269624999,43,0.3119475000000307,88,0.16657424999999648
21099,349.9011342749999,31,0.2053073124999969,78,0.39372168749997627
21100,349.9340463374999,34,0.032912062500031425,78,0.36080962499994484
21101,349.9669583999999,39,0.03291206249997458,92,0.32789756249997026
21102,349.99987046249987,43,0.03291206249997458,92,0.2949854999999957
21103,350.4749120874999,31,0.4750416250000171,79,0.3926756249999812
21104,350.5074754624999,34,0.032563374999995176,79,0.36011224999998603
21105,350.5400388374999,39,0.032563374999995176,93,0.32754887499999086
21106,350.5726022124999,43,0.032563374999995176,93,0.2949854999999957
21107,351.0478172749999,30,0.47521506250001266,79,0.3764519375000077
21108,351.0805540874999,34,0.03273681249999072,79,0.343715125000017
21109,351.11329089999987,40,0.03273681249999072,93,0.3109783125000263
21110,351.1460277124999,42,0.03273681250004756,93,0.2782414999999787
21111,351.70251071249993,47,0.5564830000000143,102,0.31094550000000254
21112,0.0,37,0.0,40,1.0443859999999998
21113,1.0443859999999998,37,1.0443859999999998,40,1.0830319999999998
21114,1.8566599999999998,37,0.8122739999999999,36,0.27075799999999983
21115,2.1274179999999996,37,0.27075799999999983,40,2.1581080000000004
21116,3.2024939999999997,33,1.0750760000000001,28,1.0830320000000002
21117,4.285526,37,1.0830320000000002,40,1.0443860000000003
21118,5.329912,37,1.0443860000000003,40,1.091107
21119,6.14824225,37,0.8183302499999998,36,0.27277675000000023
21120,6.421019,37,0.27277675000000023,40,2.1501519999999994
21121,7.496095,33,1.0750760000000001,28,1.0750759999999993
21122,8.571171,37,1.0750759999999993,40,1.0443859999999994
21123,9.615556999999999,37,1.0443859999999994,40,1.0750759999999993
21124,10.421864,37,0.8063070000000003,36,0.2418920999999994
21125,10.690632999999998,37,0.2687689999999989,40,1.0672359999999994
21126,11.757868999999998,40,1.0672359999999994,49,1.0443859999999994
21127,12.541158499999998,39,0.7832895000000004,45,0.23498684999999853
21128,12.802254999999997,39,0.26109649999999895,48,1.0443860000000011
21129,13.585544499999997,37,0.7832895000000004,42,0.2349868500000003
21130,13.846640999999998,37,0.26109650000000073,44,1.0595090000000003
21131,14.641272749999999,37,0.7946317500000006,36,0.23838952499999877
21132,14.906149999999998,37,0.2648772499999996,40,2.1501520000000003
21133,15.981225999999998,33,1.0750759999999993,28,1.075076000000001
21134,17.056302,40,1.075076000000001,50,1.0443859999999994
21135,18.100687999999998,40,1.0443859999999994,50,1.0750759999999993
21136,18.906995,40,0.8063070000000003,45,0.24189210000000116
21137,19.175763999999997,40,0.2687689999999989,50,1.0369859999999989
21138,20.212749999999996,44,1.0369859999999989,59,1.0711403333333358
21139,21.01610525,42,0.8033552500000027,53,0.1372368333333327
21140,21.15334208333333,44,0.1372368333333327,48,0.13054825000000037
21141,21.283890333333332,42,0.13054825000000037,57,1.0443859999999994
21142,22.06717983333333,40,0.7832894999999986,50,0.23498685000000208
21143,22.32827633333333,40,0.26109650000000073,55,1.0595089999999985
21144,23.122908083333332,40,0.7946317500000006,45,0.23838952499999877
21145,23.38778533333333,40,0.26487724999999784,50,2.1660639999999987
21146,24.47081733333333,33,1.0830319999999993,35,1.0830319999999993
21147,25.55384933333333,49,1.0830319999999993,73,0.9222169999999998
21148,26.02259933333333,47,0.46875,66,0.32846699999999984
21149,26.35106633333333,47,0.32846699999999984,58,0.125
21150,26.47606633333333,45,0.125,61,1.0169490000000003
21151,27.23877808333333,44,0.7627117500000011,53,0.22881352499999963
21152,27.49301533333333,44,0.2542372499999992,59,1.0830319999999993
21153,28.576047333333328,40,1.0830319999999993,51,1.0830319999999993
21154,29.659079333333327,49,1.0830319999999993,73,0.9405125000000041
21155,30.13526983333333,47,0.4761905000000013,65,0.33611687500000187
21156,30.47138670833333,47,0.33611687500000187,58,0.12820512500000092
21157,30.59959183333333,45,0.12820512500000092,61,0.992430458333331
21158,31.34408829166666,44,0.7444964583333302,54,0.2231406000000007
21159,31.592022291666662,44,0.24793400000000076,59,1.0830319999999993
21160,32.67505429166666,40,1.0830319999999993,51,1.0830320000000029
21161,33.758086291666665,37,1.0830320000000029,46,1.044386000000003
21162,34.80247229166667,37,1.044386000000003,46,1.0750760000000028
21163,35.608779291666664,37,0.8063069999999968,41,0.24189210000000116
21164,35.87754829166667,37,0.26876900000000603,46,1.0672360000000012
21165,36.94478429166667,40,1.0672360000000012,54,1.044386000000003
21166,37.728073791666674,39,0.7832895000000022,49,0.1305482499999968
21167,37.85862204166667,40,0.1305482499999968,45,0.13054825000000392
21168,37.989170291666674,39,0.13054825000000392,52,1.0443859999999958
21169,38.77245979166667,37,0.7832894999999951,46,0.23498684999999853
21170,39.03355629166667,37,0.26109650000000073,50,1.0595089999999985
21171,39.82818804166667,37,0.7946317500000006,41,0.23838952500000232
21172,40.09306529166667,37,0.26487724999999784,46,2.1501519999999985
21173,41.16814129166667,33,1.0750760000000028,32,1.0750759999999957
21174,42.24321729166667,61,1.0750759999999957,83,0.9515130916666692
21175,42.71940779166667,59,0.4761905000000013,73,0.33760687499999875
21176,43.05701466666667,47,0.33760687499999875,64,0.04417702500000331
21177,43.10119169166667,52,0.04417702500000331,57,0.046920041666666634
21178,43.14811173333334,59,0.046920041666666634,59,0.04661864999999921
21179,43.19473038333334,52,0.04661864999999921,74,1.0258697499999982
21180,43.95744213333334,56,0.7627117500000011,61,0.23684219999999812
21181,44.220600133333335,56,0.2631579999999971,69,1.0619470000000035
21182,45.28254713333334,49,1.0619470000000035,68,1.0619469999999964
21183,46.344494133333335,61,1.0619469999999964,83,0.9550443250000029
21184,46.82449413333333,59,0.4799999999999969,73,0.33926512499999717
21185,47.16375925833333,47,0.33926512499999717,66,0.038461541666670485
21186,47.2022208,52,0.038461541666670485,58,0.049417483333336065
21187,47.251638283333335,59,0.049417483333336065,58,0.04790017500000232
21188,47.29953845833334,52,0.04790017500000232,76,1.0323887499999955
21189,48.068769208333336,56,0.7692307499999984,61,0.23684219999999812
21190,48.33192720833333,52,0.2631579999999971,69,1.0619469999999964
21191,49.39387420833333,49,1.0619469999999964,68,1.0619470000000035
21192,50.45582120833333,49,1.0619470000000035,61,1.044386000000003
21193,51.500207208333336,49,1.044386000000003,63,1.0750760000000028
21194,52.30651420833333,49,0.8063069999999968,57,0.24189210000000116
21195,52.57528320833334,49,0.26876900000000603,65,1.0672360000000012
21196,53.64251920833334,52,1.0672360000000012,82,1.044386000000003
21197,54.42580870833334,51,0.7832895000000022,71,0.26109650000000073
21198,54.68690520833334,51,0.26109650000000073,79,1.0443859999999958
21199,55.47019470833334,49,0.7832894999999951,71,0.23498684999999853
21200,55.73129120833334,49,0.26109650000000073,77,1.0595089999999985
21201,56.52592295833334,49,0.7946317500000006,72,0.23838952500000232
21202,56.79080020833334,49,0.26487724999999784,76,1.0750760000000028
21203,57.86587620833334,51,1.0750760000000028,95,1.0750759999999957
21204,58.940952208333336,52,1.0750759999999957,100,1.0750760000000028
21205,60.01602820833334,56,1.0750760000000028,89,0.8063069999999968
21206,60.822335208333335,57,0.8063069999999968,89,0.2687689999999989
21207,61.091104208333334,59,0.2687689999999989,93,0.8063070000000039
21208,61.89741120833334,61,0.8063070000000039,93,0.2687689999999989
21209,62.16618020833334,63,0.2687689999999989,99,0.8256877500000002
21210,62.99186795833334,64,0.8256877500000002,102,0.2752292500000024
21211,63.26709720833334,68,0.2752292500000024,103,3.750001499999996
21212,64.33852620833333,51,1.0714289999999949,81,0.8035717500000032
21213,65.14209795833334,49,0.8035717500000032,76,0.2410715249999953
21214,65.40995520833334,66,0.2678572500000058,95,1.6071434999999923
21215,66.21352695833333,47,0.803571749999989,71,0.2410715250000095
21216,66.48138420833334,47,0.2678572500000058,68,0.8035717500000032
21217,67.28495595833334,57,0.8035717500000032,89,0.29411774999999807
21218,67.57907370833334,56,0.29411774999999807,102,1.0714289999999949
21219,68.65050270833333,56,1.0714289999999949,89,1.071429000000009
21220,69.45407445833334,58,0.8035717500000032,89,0.2678572500000058
21221,69.72193170833334,60,0.2678572500000058,93,1.0714289999999949
21222,70.52550345833333,61,0.803571749999989,93,0.2678572500000058
21223,70.79336070833334,63,0.2678572500000058,99,1.1985432500000144
21224,71.63719545833335,64,0.8438347500000134,102,0.1648351249999962
21225,71.80203058333335,49,0.1648351249999962,88,2.39170737500001
21226,71.86532170833335,55,0.06329112500000633,88,2.3284162500000036
21227,71.92861283333335,58,0.06329112499999212,88,2.2651251250000115
21228,71.99190395833335,64,0.06329112500000633,103,2.201834000000005
21229,73.09282095833335,46,1.1009169999999955,81,1.1009170000000097
21230,74.19373795833336,63,1.1009170000000097,90,1.1009169999999955
21231,75.29465495833335,32,1.1009169999999955,81,0.7407405000000011
21232,76.03539545833335,22,0.7407405000000011,61,0.10114737499999649
21233,76.13654283333335,23,0.10114737499999649,61,0.10472641666666505
21234,76.24126925000002,25,0.10472641666666505,61,0.1087117083333311
21235,76.34998095833335,47,0.1087117083333311,80,1.0668073333333297
21236,76.45414761458335,25,0.10416665625000121,56,0.1039542812499974
21237,76.55810189583335,23,0.1039542812499974,64,0.10289821874999916
21238,76.66100011458335,25,0.10289821874999916,57,0.10186321874999749
21239,76.76286333333334,23,0.10186321874999749,66,0.10084863541666778
21240,76.86371196875001,25,0.10084863541666778,59,0.0998538437499974
21241,76.96356581250001,23,0.0998538437499974,68,0.09887831249999124
21242,77.062444125,25,0.09887831249999124,61,0.0979214166666793
21243,77.16036554166668,23,0.0979214166666793,70,0.0968906770833371
21244,77.25725621875002,25,0.0968906770833371,65,0.09597276041667158
21245,77.35322897916669,23,0.09597276041667158,73,0.0950719062499843
21246,77.41678829166668,47,0.06355931249999003,80,1.0337038333333481
21247,77.44830088541667,25,0.03151259374999427,66,0.09418765625001413
21248,77.54248854166669,23,0.09418765625001413,72,0.09375
21249,77.63832187500002,25,0.09583333333333144,63,0.09429269375000615
21250,77.73051372916669,23,0.0921918541666713,69,0.09516092708332735
21251,77.82567465625002,25,0.09516092708332735,60,0.09821847500001013
21252,77.92173795833335,23,0.09606330208333702,66,0.1296851666666754
21253,78.05142312500003,25,0.1296851666666754,58,0.1311975833333321
21254,78.18262070833336,22,0.1311975833333321,64,0.1331384583333204
21255,78.31575916666668,23,0.1331384583333204,55,0.13473295833334475
21256,78.45049212500003,47,0.13473295833334475,80,1.1009169999999955
21257,79.55140912500002,28,1.1009169999999955,79,0.75
21258,80.30140912500002,19,0.75,61,0.10257087499999784
21259,80.40398000000002,20,0.10257087499999784,61,0.10582749999998953
21260,80.50980750000001,21,0.10582749999998953,61,0.109451291666673
21261,80.61925879166668,44,0.109451291666673,80,1.0668073333333297
21262,80.72342544791668,21,0.10416665625000121,56,0.1039542812499974
21263,80.82737972916668,20,0.1039542812499974,64,0.10289821874999916
21264,80.93027794791668,21,0.10289821874999916,57,0.10186321874999749
21265,81.03214116666668,20,0.10186321874999749,66,0.10084863541666778
21266,81.13298980208334,21,0.10084863541666778,59,0.0998538437499974
21267,81.23284364583334,20,0.0998538437499974,68,0.09887831249999124
21268,81.33172195833333,21,0.09887831249999124,61,0.0979214166666793
21269,81.42964337500001,20,0.0979214166666793,70,0.0968906770833371
21270,81.52653405208335,21,0.0968906770833371,65,0.09597276041667158
21271,81.62250681250002,20,0.09597276041667158,73,0.0950719062499843
21272,81.68606612500001,44,0.06355931249999003,80,1.0337038333333481
21273,81.71757871875,21,0.03151259374999427,66,0.09418765625001413
21274,81.81176637500002,20,0.09418765625001413,72,0.09375
21275,81.90759970833335,21,0.09583333333333144,63,0.09429269375000615
21276,81.99979156250002,20,0.0921918541666713,69,0.09516092708332735
21277,82.09495248958335,21,0.09516092708332735,60,0.09821847500001013
21278,82.19101579166669,20,0.09606330208333702,66,0.1296851666666754
21279,82.32070095833336,21,0.1296851666666754,58,0.1311975833333321
21280,82.4518985416667,19,0.1311975833333321,64,0.1331384583333204
21281,82.58503700000001,20,0.1331384583333204,55,0.13473295833334475
21282,82.71976995833336,37,0.13473295833334475,80,2.2551899999999847
21283,83.82068695833335,20,1.1009169999999955,49,0.5660374999999931
21284,84.38672445833335,16,0.5660374999999931,40,0.5882354999999961
21285,84.97495995833334,37,0.5882354999999961,46,1.044386000000003
21286,86.01934595833335,37,1.044386000000003,46,1.0750759999999957
21287,86.82565295833335,37,0.8063070000000039,41,0.2687689999999918
21288,87.09442195833334,37,0.2687689999999918,46,1.067235999999994
21289,88.16165795833334,40,1.067235999999994,54,1.044386000000003
21290,88.94494745833333,39,0.7832894999999951,49,0.13054825000000392
21291,89.07549570833334,40,0.13054825000000392,45,0.13054825000000392
21292,89.20604395833334,39,0.13054825000000392,52,1.044386000000003
21293,89.98933345833333,37,0.7832894999999951,46,0.26109650000000784
21294,90.25042995833334,37,0.26109650000000784,50,1.0595090000000056
21295,91.04506170833334,37,0.7946317499999935,41,0.26487725000001205
21296,91.30993895833335,37,0.26487725000001205,46,1.0750759999999957
21297,92.38501495833334,40,1.0750759999999957,97,0.8063070000000039
21298,93.19132195833335,42,0.8063070000000039,97,0.26876900000000603
21299,93.46009095833335,44,0.26876900000000603,101,1.0750759999999957
21300,94.53516695833335,56,1.0750759999999957,93,0.8063070000000039
21301,95.34147395833335,57,0.8063070000000039,93,0.2687689999999918
21302,95.61024295833334,59,0.2687689999999918,97,0.8063070000000039
21303,96.41654995833335,61,0.8063070000000039,97,0.2687689999999918
21304,96.68531895833334,63,0.2687689999999918,105,0.8256877500000002
21305,97.51100670833334,64,0.8256877500000002,108,0.2752292499999953
21306,97.78623595833334,68,0.2752292499999953,109,3.750001499999996
21307,98.85766495833333,51,1.0714289999999949,85,0.8035717500000032
21308,99.66123670833333,49,0.8035717500000032,79,0.2678572500000058
21309,99.92909395833334,66,0.2678572500000058,99,1.6071434999999923
21310,100.73266570833333,47,0.803571749999989,73,0.2678572500000058
21311,101.00052295833333,47,0.2678572500000058,71,0.8035717500000032
21312,101.80409470833334,57,0.8035717500000032,89,0.29411774999999807
21313,102.09821245833334,56,0.29411774999999807,102,1.0714289999999949
21314,103.16964145833333,56,1.0714289999999949,89,1.071429000000009
21315,103.97321320833333,58,0.8035717500000032,89,0.2678572500000058
21316,104.24107045833334,60,0.2678572500000058,93,1.0714289999999949
21317,105.04464220833333,61,0.803571749999989,93,0.2678572500000058
21318,105.31249945833333,63,0.2678572500000058,99,1.1985432500000144
21319,106.15633420833335,64,0.8438347500000134,102,0.1648351249999962
21320,106.32116933333334,49,0.1648351249999962,88,2.39170737500001
21321,106.38446045833335,55,0.06329112500000633,88,2.3284162500000036
21322,106.44775158333334,58,0.06329112499999212,88,2.2651251250000115
21323,106.51104270833335,64,0.06329112500000633,103,2.201834000000005
21324,107.61195970833334,46,1.1009169999999955,81,1.1009170000000097
21325,108.71287670833335,63,1.1009170000000097,90,1.1009169999999955
21326,109.81379370833335,32,1.1009169999999955,81,0.7407405000000011
21327,110.55453420833335,22,0.7407405000000011,61,0.10114737499999649
21328,110.65568158333335,23,0.10114737499999649,61,0.10472641666666505
21329,110.76040800000001,25,0.10472641666666505,61,0.1087117083333311
21330,110.86911970833334,47,0.1087117083333311,80,1.0668073333333297
21331,110.97328636458334,25,0.10416665625000121,56,0.1039542812499974
21332,111.07724064583334,23,0.1039542812499974,64,0.10289821874999916
21333,111.18013886458334,25,0.10289821874999916,57,0.10186321874999749
21334,111.28200208333334,23,0.10186321874999749,66,0.10084863541666778
21335,111.38285071875,25,0.10084863541666778,59,0.0998538437499974
21336,111.4827045625,23,0.0998538437499974,68,0.09887831249999124
21337,111.581582875,25,0.09887831249999124,61,0.0979214166666793
21338,111.67950429166667,23,0.0979214166666793,70,0.0968906770833371
21339,111.77639496875001,25,0.0968906770833371,65,0.09597276041667158
21340,111.87236772916668,23,0.09597276041667158,73,0.0950719062499843
21341,111.93592704166667,47,0.06355931249999003,80,1.0337038333333481
21342,111.96743963541667,25,0.03151259374999427,66,0.09418765625001413
21343,112.06162729166668,23,0.09418765625001413,72,0.09375
21344,112.15746062500001,25,0.09583333333333144,63,0.09429269375000615
21345,112.24965247916668,23,0.0921918541666713,69,0.09516092708332735
21346,112.34481340625001,25,0.09516092708332735,60,0.09821847500001013
21347,112.44087670833335,23,0.09606330208333702,66,0.1296851666666754
21348,112.57056187500002,25,0.1296851666666754,58,0.1311975833333321
21349,112.70175945833336,22,0.1311975833333321,64,0.1331384583333204
21350,112.83489791666668,23,0.1331384583333204,55,0.13473295833334475
21351,112.96963087500002,47,0.13473295833334475,80,1.1009169999999955
21352,114.07054787500002,28,1.1009169999999955,68,0.75
21353,114.82054787500002,19,0.75,61,0.10257087499999784
21354,114.92311875000001,20,0.10257087499999784,61,0.10582749999998953
21355,115.02894625,21,0.10582749999998953,61,0.109451291666673
21356,115.13839754166668,44,0.109451291666673,80,1.0668073333333297
21357,115.24256419791668,21,0.10416665625000121,56,0.1039542812499974
21358,115.34651847916668,20,0.1039542812499974,64,0.10289821874999916
21359,115.44941669791667,21,0.10289821874999916,57,0.10186321874999749
21360,115.55127991666667,20,0.10186321874999749,66,0.10084863541666778
21361,115.65212855208334,21,0.10084863541666778,59,0.0998538437499974
21362,115.75198239583334,20,0.0998538437499974,68,0.09887831249999124
21363,115.85086070833333,21,0.09887831249999124,61,0.0979214166666793
21364,115.94878212500001,20,0.0979214166666793,70,0.0968906770833371
21365,116.04567280208335,21,0.0968906770833371,65,0.09597276041667158
21366,116.14164556250002,20,0.09597276041667158,73,0.0950719062499843
21367,116.205204875,44,0.06355931249999003,80,1.0337038333333481
21368,116.23671746875,21,0.03151259374999427,66,0.09418765625001413
21369,116.33090512500002,20,0.09418765625001413,72,0.09375
21370,116.42673845833335,21,0.09583333333333144,63,0.09429269375000615
21371,116.51893031250002,20,0.0921918541666713,69,0.09516092708332735
21372,116.61409123958335,21,0.09516092708332735,60,0.09821847500001013
21373,116.71015454166668,20,0.09606330208333702,66,0.1296851666666754
21374,116.83983970833336,21,0.1296851666666754,58,0.1311975833333321
21375,116.97103729166669,19,0.1311975833333321,64,0.1331384583333204
21376,117.10417575000001,20,0.1331384583333204,55,0.13473295833334475
21377,117.23890870833335,37,0.13473295833334475,80,2.2551899999999847
21378,118.33982570833335,20,1.1009169999999955,51,0.5660374999999931
21379,118.90586320833334,16,0.5660374999999931,39,0.5882354999999961
21380,119.49409870833334,37,0.5882354999999961,46,1.044386000000003
21381,120.53848470833334,37,1.044386000000003,46,1.0750759999999957
21382,121.34479170833335,37,0.8063070000000039,41,0.2687689999999918
21383,121.61356070833334,37,0.2687689999999918,46,1.067235999999994
21384,122.68079670833333,40,1.067235999999994,54,1.044386000000003
21385,123.46408620833333,39,0.7832894999999951,49,0.13054825000000392
21386,123.59463445833333,40,0.13054825000000392,45,0.13054825000000392
21387,123.72518270833334,39,0.13054825000000392,52,1.044386000000003
21388,124.50847220833333,37,0.7832894999999951,46,0.26109650000000784
21389,124.76956870833334,37,0.26109650000000784,50,1.0595090000000056
21390,125.56420045833333,37,0.7946317499999935,41,0.26487725000001205
21391,125.82907770833334,37,0.26487725000001205,46,1.0750759999999957
21392,126.90415370833334,23,1.0750759999999957,39,1.07507600000001
21393,127.97922970833335,56,1.07507600000001,54,1.97962050000001
21394,128.49065170833336,23,0.5114220000000103,27,0.4837929999999915
21395,128.97444470833335,32,0.4837929999999915,27,0.48796350000000643
21396,129.46240820833336,40,0.48796350000000643,28,0.4964420000000018
21397,129.95885020833336,57,0.4964420000000018,50,0.4964420000000018
21398,130.45529220833336,56,0.4964420000000018,46,0.47573750000000814
21399,130.93102970833337,54,0.47573750000000814,50,0.4757374999999797
21400,131.40676720833335,52,0.4757374999999797,46,0.49212600000001316
21401,131.89889320833336,51,0.49212600000001316,50,0.9953464999999824
21402,132.39101920833335,23,0.49212599999998474,27,0.5032204999999976
21403,132.89423970833334,61,0.5032204999999976,54,0.9842519999999979
21404,133.38636570833336,39,0.49212600000001316,24,0.49212599999998474
21405,133.87849170833334,59,0.49212599999998474,52,1.9591420000000141
21406,134.37061770833336,23,0.49212600000001316,24,0.4797695000000033
21407,134.85038720833336,33,0.4797695000000033,27,0.4797695000000033
21408,135.33015670833336,39,0.4797695000000033,25,0.5074769999999944
21409,135.83763370833336,57,0.5074769999999944,51,1.9693960000000175
21410,136.34731770833335,23,0.5096839999999929,29,0.4837929999999915
21411,136.83111070833334,33,0.4837929999999915,29,0.4837930000000199
21412,137.31490370833336,39,0.4837930000000199,30,0.49212600000001316
21413,137.80702970833337,59,0.49212600000001316,50,0.49212599999998474
21414,138.29915570833336,57,0.49212599999998474,46,0.47573750000000814
21415,138.77489320833337,56,0.47573750000000814,50,0.4757374999999797
21416,139.25063070833335,54,0.4757374999999797,46,0.4964420000000018
21417,139.74707270833335,52,0.4964420000000018,50,0.9928840000000037
21418,140.24351470833335,23,0.4964420000000018,30,0.4964420000000018
21419,140.73995670833335,64,0.4964420000000018,53,1.006534500000015
21420,141.23639870833335,40,0.4964420000000018,25,0.5100925000000132
21421,141.74649120833337,59,0.5100925000000132,49,1.9641724999999894
21422,142.25396820833336,23,0.5074769999999944,27,0.47573750000000814
21423,142.72970570833337,32,0.47573750000000814,29,0.4757374999999797
21424,143.20544320833335,40,0.4757374999999797,27,0.5052205000000072
21425,143.71066370833336,56,0.5052205000000072,52,1.9561475000000144
21426,144.20278970833337,23,0.49212600000001316,27,0.4797695000000033
21427,144.68255920833337,32,0.4797695000000033,30,0.49212600000001316
21428,145.1746852083334,40,0.49212600000001316,28,0.49212599999998474
21429,145.66681120833337,57,0.49212599999998474,51,0.4797695000000033
21430,146.14658070833337,56,0.4797695000000033,46,0.4797695000000033
21431,146.62635020833338,54,0.4797695000000033,50,0.4797695000000033
21432,147.10611970833338,53,0.4797695000000033,46,0.47031824999999117
21433,147.37541945833337,54,0.2692997499999876,46,0.10050924999998756
21434,147.47592870833336,56,0.10050924999998756,42,0.10050925000001598
21435,147.57643795833337,54,0.10050925000001598,53,0.46924416666664115
21436,148.045682125,53,0.46924416666664115,51,0.4679455000000132
21437,148.51362762500003,54,0.4679455000000132,54,0.4679455000000132
21438,148.98157312500004,56,0.4679455000000132,55,0.47573750000000814
21439,149.45731062500005,57,0.47573750000000814,57,0.4757374999999797
21440,149.93304812500003,49,0.4757374999999797,52,0.47573750000000814
21441,150.40878562500004,56,0.47573750000000814,57,0.4964420000000018
21442,150.90522762500004,54,0.4964420000000018,50,0.2912622499999884
21443,151.19648987500003,51,0.2912622499999884,39,0.10266937500000495
21444,151.29915925000003,52,0.10266937500000495,39,0.09924706249998394
21445,151.40182862500004,52,0.10266937500000495,39,0.4978771666666546
21446,151.49571943750004,54,0.09389081250000686,36,0.09389081250000686
21447,151.58961025000005,52,0.09389081250000686,40,0.09362149999998337
21448,151.68323175000003,54,0.09362149999998337,37,0.09308287499999324
21449,151.77631462500003,52,0.09308287499999324,42,0.09263329166665812
21450,151.86894791666668,54,0.09263329166665812,38,0.09227362500001846
21451,151.8997057916667,31,0.030757875000006152,28,0.48590141666664977
21452,151.9612215416667,52,0.061515750000012304,44,0.09166659374997721
21453,152.05288813541668,54,0.09166659374997721,39,0.09149315625001009
21454,152.1443812916667,52,0.09149315625001009,46,0.09071118750000551
21455,152.2350924791667,54,0.09071118750000551,42,0.0905435416666478
21456,152.32563602083334,52,0.0905435416666478,48,0.0899567812500095
21457,152.38560720833334,40,0.05997118749999686,28,0.4831931666666378
21458,152.41559280208335,54,0.02998559375001264,42,0.08962078124997674
21459,152.50521358333333,52,0.08962078124997674,47,0.08962078125000517
21460,152.59683340416666,54,0.09161982083332987,40,0.09047648333333314
21461,152.68529408333333,52,0.08846067916667266,44,0.09131938541665363
21462,152.77661346874999,54,0.09131938541665363,38,0.09425541458332987
21463,152.86880037499998,52,0.09218690624999226,42,0.5355951250000146
21464,152.9943734583333,54,0.12557308333333594,37,0.1326117083333429
21465,153.12698516666666,51,0.1326117083333429,40,0.14135116666668068
21466,153.26833633333334,52,0.14135116666668068,35,0.13605916666665507
21467,153.4043955,61,0.13605916666665507,54,0.49212600000001316
21468,153.8965215,59,0.49212600000001316,50,0.49212599999998474
21469,154.3886475,57,0.49212599999998474,52,0.5052205000000072
21470,154.893868,47,0.5052205000000072,50,0.5052204999999788
21471,155.39908849999998,54,0.5052204999999788,54,2.0077875000000063
21472,155.90430899999998,23,0.5052205000000072,27,0.49212600000001316
21473,156.396435,33,0.49212600000001316,27,0.5052205000000072
21474,156.9016555,39,0.5052205000000072,26,0.5052204999999788
21475,157.40687599999998,52,0.5052204999999788,50,1.0104410000000144
21476,157.9120965,23,0.5052205000000072,28,0.5052205000000072
21477,158.417317,32,0.5052205000000072,28,0.5052205000000072
21478,158.9225375,40,0.5052205000000072,28,0.5385995000000037
21479,159.461137,56,0.5385995000000037,54,1.9825135000000103
21480,159.97545200000002,23,0.5143150000000105,27,0.4837929999999915
21481,160.459245,32,0.4837929999999915,27,0.48796350000000643
21482,160.94720850000002,40,0.48796350000000643,28,0.4964420000000018
21483,161.44365050000002,57,0.4964420000000018,50,0.4964420000000018
21484,161.94009250000002,56,0.4964420000000018,46,0.47573750000000814
21485,162.41583000000003,54,0.47573750000000814,50,0.4757374999999797
21486,162.8915675,52,0.4757374999999797,46,0.49212600000001316
21487,163.38369350000002,51,0.49212600000001316,50,0.9953464999999824
21488,163.8758195,23,0.49212599999998474,27,0.5032204999999976
21489,164.37904,61,0.5032204999999976,54,0.9842519999999979
21490,164.87116600000002,39,0.49212600000001316,24,0.49212599999998474
21491,165.363292,59,0.49212599999998474,52,1.9591420000000141
21492,165.85541800000001,23,0.49212600000001316,24,0.4797695000000033
21493,166.33518750000002,33,0.4797695000000033,27,0.4797695000000033
21494,166.81495700000002,39,0.4797695000000033,25,0.5074769999999944
21495,167.32243400000002,57,0.5074769999999944,51,1.9693960000000175
21496,167.832118,23,0.5096839999999929,29,0.4837929999999915
21497,168.315911,33,0.4837929999999915,29,0.4837930000000199
21498,168.79970400000002,39,0.4837930000000199,30,0.49212600000001316
21499,169.29183000000003,59,0.49212600000001316,50,0.49212599999998474
21500,169.78395600000002,57,0.49212599999998474,46,0.47573750000000814
21501,170.25969350000003,56,0.47573750000000814,50,0.4757374999999797
21502,170.735431,54,0.4757374999999797,46,0.4964420000000018
21503,171.231873,52,0.4964420000000018,50,0.9928840000000037
21504,171.728315,23,0.4964420000000018,30,0.4964420000000018
21505,172.224757,64,0.4964420000000018,53,1.006534500000015
21506,172.721199,40,0.4964420000000018,25,0.5100925000000132
21507,173.23129150000003,59,0.5100925000000132,49,1.9641724999999894
21508,173.73876850000002,23,0.5074769999999944,27,0.47573750000000814
21509,174.21450600000003,32,0.47573750000000814,29,0.4757374999999797
21510,174.6902435,40,0.4757374999999797,27,0.5052205000000072
21511,175.19546400000002,56,0.5052205000000072,52,1.9561475000000144
21512,175.68759000000003,23,0.49212600000001316,27,0.4797695000000033
21513,176.16735950000003,32,0.4797695000000033,30,0.49212600000001316
21514,176.65948550000005,40,0.49212600000001316,28,0.49212599999998474
21515,177.15161150000003,57,0.49212599999998474,51,0.4797695000000033
21516,177.63138100000003,56,0.4797695000000033,46,0.4797695000000033
21517,178.11115050000004,54,0.4797695000000033,50,0.4797695000000033
21518,178.59092000000004,53,0.4797695000000033,46,0.47031824999999117
21519,178.86021975000003,54,0.2692997499999876,46,0.10050924999998756
21520,178.96072900000001,56,0.10050924999998756,42,0.10050925000001598
21521,179.06123825000003,54,0.10050925000001598,53,0.46924416666664115
21522,179.53048241666667,53,0.46924416666664115,51,0.4679455000000132
21523,179.99842791666669,54,0.4679455000000132,54,0.4679455000000132
21524,180.4663734166667,56,0.4679455000000132,55,0.47573750000000814
21525,180.9421109166667,57,0.47573750000000814,57,0.4757374999999797
21526,181.4178484166667,49,0.4757374999999797,52,0.47573750000000814
21527,181.8935859166667,56,0.47573750000000814,57,0.4964420000000018
21528,182.3900279166667,54,0.4964420000000018,50,0.2912622499999884
21529,182.68129016666668,51,0.2912622499999884,39,0.10266937500000495
21530,182.7839595416667,52,0.10266937500000495,39,0.10266937500000495
21531,182.8866289166667,52,0.10266937500000495,39,0.4978771666666546
21532,182.9805197291667,54,0.09389081250000686,36,0.09389081250000686
21533,183.0744105416667,52,0.09389081250000686,40,0.09362149999998337
21534,183.1680320416667,54,0.09362149999998337,37,0.09308287499999324
21535,183.26111491666668,52,0.09308287499999324,42,0.09263329166665812
21536,183.35374820833334,54,0.09263329166665812,38,0.09227362500001846
21537,183.38450608333335,31,0.030757875000006152,28,0.48590141666664977
21538,183.44602183333336,52,0.061515750000012304,44,0.09166659374997721
21539,183.53768842708334,54,0.09166659374997721,39,0.09149315625001009
21540,183.62918158333335,52,0.09149315625001009,46,0.09071118750000551
21541,183.71989277083335,54,0.09071118750000551,42,0.0905435416666478
21542,183.8104363125,52,0.0905435416666478,48,0.0899567812500095
21543,183.8704075,40,0.05997118749999686,28,0.4831931666666378
21544,183.90039309375,54,0.02998559375001264,42,0.08962078124997674
21545,183.990013875,52,0.08962078124997674,47,0.08962078125000517
21546,184.08163369583332,54,0.09161982083332987,40,0.09047648333333314
21547,184.170094375,52,0.08846067916667266,44,0.09131938541665363
21548,184.26141376041664,54,0.09131938541665363,38,0.09425541458332987
21549,184.35360066666664,52,0.09218690624999226,42,0.5355951250000146
21550,184.47917374999997,54,0.12557308333333594,37,0.1326117083333429
21551,184.61178545833332,51,0.1326117083333429,40,0.14135116666668068
21552,184.753136625,52,0.14135116666668068,35,0.13605916666665507
21553,184.88919579166665,61,0.13605916666665507,54,0.49212600000001316
21554,185.38132179166666,59,0.49212600000001316,50,0.49212599999998474
21555,185.87344779166665,57,0.49212599999998474,52,0.5052205000000072
21556,186.37866829166666,47,0.5052205000000072,50,0.5052204999999788
21557,186.88388879166664,54,0.5052204999999788,54,2.0077875000000063
21558,187.38910929166664,23,0.5052205000000072,27,0.49212600000001316
21559,187.88123529166666,33,0.49212600000001316,27,0.5052205000000072
21560,188.38645579166666,39,0.5052205000000072,26,0.5052204999999788
21561,188.89167629166664,52,0.5052204999999788,50,1.0104410000000144
21562,189.39689679166665,23,0.5052205000000072,28,0.5052205000000072
21563,189.90211729166666,32,0.5052205000000072,28,0.5052205000000072
21564,190.40733779166666,40,0.5052205000000072,28,0.5385995000000037
21565,190.94593729166667,51,0.5385995000000037,56,1.9825135000000103
21566,191.46025229166668,23,0.5143150000000105,28,0.4837929999999915
21567,191.94404529166667,30,0.4837929999999915,28,0.48796350000000643
21568,192.43200879166668,39,0.48796350000000643,29,0.4964420000000018
21569,192.92845079166668,52,0.4964420000000018,52,0.4964420000000018
21570,193.42489279166668,51,0.4964420000000018,48,0.47573750000000814
21571,193.9006302916667,49,0.47573750000000814,52,0.4757374999999797
21572,194.37636779166667,47,0.4757374999999797,48,0.49212600000001316
21573,194.86849379166668,46,0.49212600000001316,52,0.9953464999999824
21574,195.36061979166666,25,0.49212599999998474,28,0.5032204999999976
21575,195.86384029166666,56,0.5032204999999976,56,0.9842519999999979
21576,196.35596629166668,40,0.49212600000001316,25,0.49212599999998474
21577,196.84809229166666,54,0.49212599999998474,54,1.9591420000000141
21578,197.34021829166667,25,0.49212600000001316,25,0.4797695000000033
21579,197.81998779166668,30,0.4797695000000033,28,0.4797695000000033
21580,198.29975729166668,40,0.4797695000000033,26,0.5074769999999944
21581,198.80723429166667,52,0.5074769999999944,55,1.9693960000000175
21582,199.31691829166667,25,0.5096839999999929,31,0.4837929999999915
21583,199.80071129166666,31,0.4837929999999915,31,0.4837930000000199
21584,200.28450429166668,40,0.4837930000000199,33,0.49212600000001316
21585,200.7766302916667,54,0.49212600000001316,55,0.49212599999998474
21586,201.26875629166668,52,0.49212599999998474,50,0.46287258333330783
21587,201.73162887499998,51,0.46287258333330783,55,0.47573750000000814
21588,202.207366375,49,0.47573750000000814,51,0.4964420000000018
21589,202.703808375,48,0.4964420000000018,55,0.9723260833333427
21590,203.200250375,27,0.4964420000000018,33,0.47588408333334087
21591,203.67613445833334,57,0.47588408333334087,59,1.006534500000015
21592,204.17257645833334,42,0.4964420000000018,28,0.5100925000000132
21593,204.68266895833335,56,0.5100925000000132,55,1.9641724999999894
21594,205.19014595833335,27,0.5074769999999944,30,0.47573750000000814
21595,205.66588345833335,30,0.47573750000000814,33,0.4757374999999797
21596,206.14162095833333,42,0.4757374999999797,30,0.5052205000000072
21597,206.64684145833334,56,0.5052205000000072,59,1.9397590000000378
21598,207.13896745833335,28,0.49212600000001316,31,0.4797695000000033
21599,207.61873695833336,37,0.4797695000000033,34,0.47573750000000814
21600,208.09447445833337,44,0.47573750000000814,32,0.49212600000001316
21601,208.58660045833338,57,0.49212600000001316,58,0.4797695000000033
21602,209.06636995833338,56,0.4797695000000033,52,0.4797695000000033
21603,209.54613945833339,54,0.4797695000000033,57,0.4797695000000033
21604,210.0259089583334,52,0.4797695000000033,52,0.49212600000001316
21605,210.5180349583334,52,0.49212600000001316,59,0.9562349999999924
21606,211.0101609583334,30,0.49212599999998474,35,0.46410900000000765
21607,211.4742699583334,51,0.46410900000000765,57,0.9595390000000066
21608,211.9540394583334,45,0.4797695000000033,33,0.4797695000000033
21609,212.4338089583334,20,0.4797695000000033,41,0.4797695000000033
21610,212.9135784583334,51,0.4797695000000033,56,0.4797695000000033
21611,213.33337677083338,54,0.419798312499978,55,0.05997118750002528
21612,213.3933479583334,52,0.05997118750002528,59,0.7258324999999672
21613,213.87311745833338,44,0.47976949999997487,35,0.49212600000001316
21614,214.11918045833337,51,0.24606299999999237,58,0.2358103749999998
21615,214.3652434583334,51,0.2460630000000208,59,0.9562349999999924
21616,214.85736945833338,30,0.49212599999998474,34,0.46410900000000765
21617,215.3214784583334,49,0.46410900000000765,56,0.9559090000000197
21618,215.8094419583334,42,0.48796350000000643,33,0.4679455000000132
21619,216.2773874583334,21,0.4679455000000132,38,0.48796350000000643
21620,216.7653509583334,51,0.48796350000000643,56,0.48796350000000643
21621,217.1923190208334,54,0.42696806249998076,59,0.06099543750002567
21622,217.25331445833342,52,0.06099543750002567,59,0.7319452499999954
21623,217.7412779583334,43,0.487963499999978,34,0.48796350000000643
21624,217.98525970833342,51,0.24398175000001743,56,0.243981749999989
21625,218.2292414583334,51,0.243981749999989,50,0.9759270000000129
21626,218.7172049583334,27,0.48796350000000643,32,0.48796350000000643
21627,219.20516845833342,56,0.48796350000000643,55,0.9822219166666457
21628,219.6938257083334,44,0.4886572499999886,31,0.4935646666666571
21629,220.18739037500006,57,0.4935646666666571,54,1.022118583333338
21630,220.69372837500006,30,0.5063379999999995,33,0.5157805833333384
21631,221.2095089583334,47,0.5157805833333384,46,1.1273814999999843
21632,221.7599674583334,45,0.5504584999999906,26,0.5769229999999936
21633,222.3368904583334,56,0.5769229999999936,54,1.9929481666666788
21634,222.86164012500006,23,0.5247496666666791,27,0.4837929999999915
21635,223.34543312500006,32,0.4837929999999915,27,0.48796350000000643
21636,223.83339662500006,40,0.48796350000000643,28,0.4964420000000018
21637,224.32983862500006,57,0.4964420000000018,50,0.4964420000000018
21638,224.82628062500007,56,0.4964420000000018,46,0.47573750000000814
21639,225.30201812500007,54,0.47573750000000814,50,0.4757374999999797
21640,225.77775562500005,52,0.4757374999999797,46,0.49212600000001316
21641,226.26988162500007,51,0.49212600000001316,50,0.9953464999999824
21642,226.76200762500005,23,0.49212599999998474,27,0.5032204999999976
21643,227.26522812500005,61,0.5032204999999976,54,0.9842519999999979
21644,227.75735412500006,39,0.49212600000001316,24,0.49212599999998474
21645,228.24948012500005,59,0.49212599999998474,52,1.9591420000000141
21646,228.74160612500006,23,0.49212600000001316,24,0.4797695000000033
21647,229.22137562500006,33,0.4797695000000033,27,0.4797695000000033
21648,229.70114512500007,39,0.4797695000000033,25,0.5074769999999944
21649,230.20862212500006,57,0.5074769999999944,51,1.9693960000000175
21650,230.71830612500005,23,0.5096839999999929,29,0.4837929999999915
21651,231.20209912500005,33,0.4837929999999915,29,0.4837930000000199
21652,231.68589212500007,39,0.4837930000000199,30,0.49212600000001316
21653,232.17801812500008,59,0.49212600000001316,50,0.49212599999998474
21654,232.67014412500006,57,0.49212599999998474,46,0.47573750000000814
21655,233.14588162500007,56,0.47573750000000814,50,0.4757374999999797
21656,233.62161912500005,54,0.4757374999999797,46,0.4964420000000018
21657,234.11806112500005,52,0.4964420000000018,50,0.9928840000000037
21658,234.61450312500006,23,0.4964420000000018,30,0.4964420000000018
21659,235.11094512500006,64,0.4964420000000018,53,1.006534500000015
21660,235.60738712500006,40,0.4964420000000018,25,0.5100925000000132
21661,236.11747962500007,59,0.5100925000000132,49,1.9641724999999894
21662,236.62495662500007,23,0.5074769999999944,27,0.47573750000000814
21663,237.10069412500008,32,0.47573750000000814,29,0.4757374999999797
21664,237.57643162500005,40,0.4757374999999797,27,0.5052205000000072
21665,238.08165212500006,56,0.5052205000000072,52,1.9561475000000144
21666,238.57377812500008,23,0.49212600000001316,27,0.4797695000000033
21667,239.05354762500008,32,0.4797695000000033,30,0.49212600000001316
21668,239.5456736250001,40,0.49212600000001316,28,0.49212599999998474
21669,240.03779962500008,57,0.49212599999998474,51,0.4797695000000033
21670,240.51756912500008,56,0.4797695000000033,46,0.4797695000000033
21671,240.99733862500008,54,0.4797695000000033,50,0.4797695000000033
21672,241.4771081250001,53,0.4797695000000033,46,0.47031824999999117
21673,241.74640787500007,54,0.2692997499999876,46,0.10050924999998756
21674,241.84691712500006,56,0.10050924999998756,42,0.10050925000001598
21675,241.94742637500008,54,0.10050925000001598,53,0.46924416666664115
21676,242.41667054166672,53,0.46924416666664115,51,0.4679455000000132
21677,242.88461604166673,54,0.4679455000000132,54,0.4679455000000132
21678,243.35256154166674,56,0.4679455000000132,55,0.47573750000000814
21679,243.82829904166675,57,0.47573750000000814,57,0.4757374999999797
21680,244.30403654166673,49,0.4757374999999797,52,0.47573750000000814
21681,244.77977404166674,56,0.47573750000000814,57,0.4964420000000018
21682,245.27621604166674,54,0.4964420000000018,50,0.2912622499999884
21683,245.56747829166673,51,0.2912622499999884,39,0.10266937500000495
21684,245.67014766666674,52,0.10266937500000495,39,0.10266937500000495
21685,245.77281704166674,52,0.10266937500000495,39,0.4978771666666546
21686,245.86670785416675,54,0.09389081250000686,36,0.09389081250000686
21687,245.96059866666675,52,0.09389081250000686,40,0.09362149999998337
21688,246.05422016666674,54,0.09362149999998337,37,0.09308287499999324
21689,246.14730304166673,52,0.09308287499999324,42,0.09263329166665812
21690,246.2399363333334,54,0.09263329166665812,38,0.09227362500001846
21691,246.2706942083334,31,0.030757875000006152,28,0.48590141666664977
21692,246.3322099583334,52,0.061515750000012304,44,0.09166659374997721
21693,246.42387655208339,54,0.09166659374997721,39,0.09149315625001009
21694,246.5153697083334,52,0.09149315625001009,46,0.09071118750000551
21695,246.6060808958334,54,0.09071118750000551,42,0.0905435416666478
21696,246.69662443750005,52,0.0905435416666478,48,0.0899567812500095
21697,246.75659562500005,40,0.05997118749999686,28,0.4831931666666378
21698,246.78658121875006,54,0.02998559375001264,42,0.08962078124997674
21699,246.87620200000003,52,0.08962078124997674,47,0.08962078125000517
21700,246.96782182083336,54,0.09161982083332987,40,0.09047648333333314
21701,247.05628250000004,52,0.08846067916667266,44,0.09131938541665363
21702,247.1476018854167,54,0.09131938541665363,38,0.09425541458332987
21703,247.23978879166668,52,0.09218690624999226,42,0.5355951250000146
21704,247.36536187500002,54,0.12557308333333594,37,0.1326117083333429
21705,247.49797358333336,51,0.1326117083333429,40,0.14135116666668068
21706,247.63932475000004,52,0.14135116666668068,35,0.13605916666665507
21707,247.7753839166667,61,0.13605916666665507,54,0.49212600000001316
21708,248.2675099166667,59,0.49212600000001316,50,0.49212599999998474
21709,248.7596359166667,57,0.49212599999998474,52,0.5052205000000072
21710,249.2648564166667,47,0.5052205000000072,50,0.5052204999999788
21711,249.77007691666668,54,0.5052204999999788,54,2.0077875000000063
21712,250.2752974166667,23,0.5052205000000072,27,0.49212600000001316
21713,250.7674234166667,33,0.49212600000001316,27,0.5052205000000072
21714,251.2726439166667,39,0.5052205000000072,26,0.5052204999999788
21715,251.7778644166667,52,0.5052204999999788,45,1.0104410000000144
21716,252.2830849166667,23,0.5052205000000072,25,0.5052205000000072
21717,252.7883054166667,32,0.5052205000000072,25,0.5052205000000072
21718,253.2935259166667,40,0.5052205000000072,25,0.5385995000000037
21719,253.8321254166667,51,0.5385995000000037,56,1.9825135000000103
21720,254.34644041666672,23,0.5143150000000105,28,0.4837929999999915
21721,254.83023341666672,30,0.4837929999999915,28,0.48796350000000643
21722,255.31819691666672,39,0.48796350000000643,29,0.4964420000000018
21723,255.81463891666672,52,0.4964420000000018,52,0.4964419999999734
21724,256.3110809166667,51,0.4964419999999734,48,0.4757374999999797
21725,256.7868184166667,49,0.4757374999999797,52,0.47573750000003656
21726,257.2625559166667,47,0.47573750000003656,48,0.49212599999998474
21727,257.7546819166667,46,0.49212599999998474,52,0.9953465000000392
21728,258.24680791666674,25,0.4921260000000416,28,0.5032204999999976
21729,258.75002841666674,56,0.5032204999999976,56,0.9842520000000263
21730,259.2421544166667,40,0.49212599999998474,25,0.4921260000000416
21731,259.73428041666676,54,0.4921260000000416,54,1.9591419999999857
21732,260.22640641666675,25,0.49212599999998474,25,0.47976949999997487
21733,260.7061759166667,30,0.47976949999997487,28,0.4797695000000317
21734,261.18594541666675,40,0.4797695000000317,26,0.5074769999999944
21735,261.69342241666675,52,0.5074769999999944,55,1.9693959999999606
21736,262.20310641666674,25,0.5096839999999929,31,0.4837929999999915
21737,262.68689941666673,31,0.4837929999999915,31,0.4837929999999915
21738,263.1706924166667,40,0.4837929999999915,33,0.49212599999998474
21739,263.6628184166667,54,0.49212599999998474,55,0.4921260000000416
21740,264.15494441666675,52,0.4921260000000416,50,0.46287258333330783
21741,264.61781700000006,51,0.46287258333330783,55,0.4757374999999797
21742,265.09355450000004,49,0.4757374999999797,51,0.4964420000000018
21743,265.58999650000004,48,0.4964420000000018,55,0.9723260833333143
21744,266.08643850000004,27,0.4964420000000018,33,0.47588408333331245
21745,266.56232258333335,57,0.47588408333331245,59,1.0065344999999866
21746,267.05876458333336,42,0.4964420000000018,28,0.5100924999999847
21747,267.56885708333334,56,0.5100924999999847,55,1.9641725000000179
21748,268.07633408333334,27,0.5074769999999944,30,0.4757374999999797
21749,268.5520715833333,30,0.4757374999999797,33,0.47573750000003656
21750,269.02780908333335,42,0.47573750000003656,30,0.5052205000000072
21751,269.53302958333336,56,0.5052205000000072,59,1.939758999999924
21752,270.02515558333334,28,0.49212599999998474,31,0.47976949999997487
21753,270.5049250833333,37,0.47976949999997487,34,0.4757374999999797
21754,270.9806625833333,44,0.4757374999999797,32,0.49212599999998474
21755,271.4727885833333,57,0.49212599999998474,58,0.47976949999997487
21756,271.95255808333326,56,0.47976949999997487,52,0.4797695000000317
21757,272.4323275833333,54,0.4797695000000317,57,0.47976949999997487
21758,272.91209708333326,52,0.47976949999997487,52,0.49212599999998474
21759,273.40422308333325,52,0.49212599999998474,59,0.9562350000000492
21760,273.8963490833333,30,0.4921260000000416,35,0.46410900000000765
21761,274.3604580833333,51,0.46410900000000765,57,0.9595390000000066
21762,274.8402275833333,45,0.47976949999997487,33,0.4797695000000317
21763,275.3199970833333,20,0.4797695000000317,41,0.47976949999997487
21764,275.7997665833333,51,0.47976949999997487,56,0.4797695000000317
21765,276.2195648958333,54,0.41979831250000643,55,0.05997118750002528
21766,276.2795360833333,52,0.05997118750002528,59,0.7258324999999672
21767,276.7593055833333,44,0.47976949999997487,35,0.49212599999998474
21768,277.0053685833333,51,0.24606299999999237,58,0.23170932499999708
21769,277.2514315833333,51,0.24606299999999237,59,0.9562350000000492
21770,277.7435575833333,30,0.4921260000000416,34,0.46410900000000765
21771,278.2076665833333,49,0.46410900000000765,56,0.9559089999999628
21772,278.6956300833333,42,0.487963499999978,33,0.4679454999999848
21773,279.1635755833333,21,0.4679454999999848,38,0.487963499999978
21774,279.65153908333326,51,0.487963499999978,56,0.48796350000003486
21775,280.07850714583327,54,0.4269680625000092,59,0.06099543750002567
21776,280.1395025833333,52,0.06099543750002567,59,0.731945249999967
21777,280.6274660833333,43,0.487963499999978,34,0.48796350000003486
21778,280.87144783333326,51,0.243981749999989,56,0.22974948124999628
21779,281.1154295833333,51,0.24398175000004585,50,0.975926999999956
21780,281.6033930833333,27,0.487963499999978,32,0.487963499999978
21781,282.09135658333327,56,0.487963499999978,55,0.9822219166666741
21782,282.5800138333333,44,0.48865725000001703,31,0.4935646666666571
21783,283.07357849999994,57,0.4935646666666571,54,1.022118583333338
21784,283.57991649999997,30,0.5063380000000279,33,0.51578058333331
21785,284.0956970833333,47,0.51578058333331,45,1.1273815000000127
21786,284.64615558333327,45,0.5504584999999906,26,0.5769230000000221
21787,285.2230785833333,56,0.5769230000000221,54,1.992948166666622
21788,285.74782824999994,23,0.5247496666666507,27,0.4837929999999915
21789,286.23162124999993,32,0.4837929999999915,27,0.487963499999978
21790,286.7195847499999,40,0.487963499999978,28,0.4964420000000018
21791,287.2160267499999,57,0.4964420000000018,50,0.4964420000000018
21792,287.7124687499999,56,0.4964420000000018,46,0.4757374999999797
21793,288.1882062499999,54,0.4757374999999797,50,0.47573750000003656
21794,288.66394374999993,52,0.47573750000003656,46,0.49212599999998474
21795,289.1560697499999,51,0.49212599999998474,50,0.9953465000000392
21796,289.64819574999996,23,0.4921260000000416,27,0.5032204999999976
21797,290.15141624999995,61,0.5032204999999976,54,0.9842520000000263
21798,290.64354224999994,39,0.49212599999998474,24,0.4921260000000416
21799,291.13566825,59,0.4921260000000416,52,1.9591419999999857
21800,291.62779424999997,23,0.49212599999998474,24,0.47976949999997487
21801,292.10756374999994,33,0.47976949999997487,27,0.4797695000000317
21802,292.58733325,39,0.4797695000000317,25,0.5074769999999944
21803,293.09481024999997,57,0.5074769999999944,51,1.9693959999999606
21804,293.60449424999996,23,0.5096839999999929,29,0.4837929999999915
21805,294.08828724999995,33,0.4837929999999915,29,0.4837929999999915
21806,294.57208024999994,39,0.4837929999999915,30,0.49212599999998474
21807,295.0642062499999,59,0.49212599999998474,50,0.4921260000000416
21808,295.55633224999997,57,0.4921260000000416,46,0.4757374999999797
21809,296.03206974999995,56,0.4757374999999797,50,0.47573750000003656
21810,296.50780725,54,0.47573750000003656,46,0.4964420000000018
21811,297.00424925,52,0.4964420000000018,50,0.9928840000000037
21812,297.50069125,23,0.4964420000000018,30,0.4964420000000018
21813,297.99713325,64,0.4964420000000018,53,1.0065344999999866
21814,298.49357525,40,0.4964420000000018,25,0.5100924999999847
21815,299.00366775,59,0.5100924999999847,49,1.9641725000000179
21816,299.51114474999997,23,0.5074769999999944,27,0.4757374999999797
21817,299.98688224999995,32,0.4757374999999797,29,0.47573750000003656
21818,300.46261975,40,0.47573750000003656,27,0.5052205000000072
21819,300.96784025,56,0.5052205000000072,52,1.956147499999986
21820,301.45996625,23,0.49212599999998474,27,0.47976949999997487
21821,301.93973574999995,32,0.47976949999997487,30,0.49212599999998474
21822,302.43186174999994,40,0.49212599999998474,28,0.4921260000000416
21823,302.92398775,57,0.4921260000000416,51,0.47976949999997487
21824,303.40375724999996,56,0.47976949999997487,46,0.4797695000000317
21825,303.88352675,54,0.4797695000000317,50,0.47976949999997487
21826,304.36329624999996,53,0.47976949999997487,46,0.47031824999999117
21827,304.632596,54,0.26929975000001605,46,0.10050925000001598
21828,304.73310525,56,0.10050925000001598,42,0.10050924999995914
21829,304.83361449999995,54,0.10050924999995914,53,0.46924416666666957
21830,305.3028586666666,53,0.46924416666666957,51,0.4679454999999848
21831,305.7708041666666,54,0.4679454999999848,54,0.4679454999999848
21832,306.2387496666666,56,0.4679454999999848,55,0.4757374999999797
21833,306.7144871666666,57,0.4757374999999797,57,0.47573750000003656
21834,307.1902246666666,49,0.47573750000003656,52,0.4757374999999797
21835,307.6659621666666,56,0.4757374999999797,57,0.4964420000000018
21836,308.1624041666666,54,0.4964420000000018,50,0.2912622499999884
21837,308.4536664166666,51,0.2912622499999884,39,0.10266937500000495
21838,308.5563357916666,52,0.10266937500000495,39,0.10266937500000495
21839,308.6590051666666,52,0.10266937500000495,39,0.497877166666683
21840,308.75289597916657,54,0.09389081249997844,36,0.09389081250003528
21841,308.8467867916666,52,0.09389081250003528,40,0.09362149999998337
21842,308.9404082916666,54,0.09362149999998337,37,0.09308287499999324
21843,309.0334911666666,52,0.09308287499999324,42,0.09263329166668655
21844,309.12612445833327,54,0.09263329166668655,38,0.09227362500001846
21845,309.1568823333333,31,0.030757875000006152,28,0.48590141666664977
21846,309.2183980833333,52,0.061515750000012304,44,0.09166659375000563
21847,309.3100646770833,54,0.09166659375000563,39,0.09149315624995324
21848,309.40155783333324,52,0.09149315624995324,46,0.09071118750000551
21849,309.49226902083325,54,0.09071118750000551,42,0.09054354166670464
21850,309.58281256249995,52,0.09054354166670464,48,0.08995678124995266
21851,309.6427837499999,40,0.05997118749996844,28,0.4831931666666378
21852,309.6727693437499,54,0.02998559374998422,42,0.08962078125000517
21853,309.7623901249999,52,0.08962078125000517,47,0.08962078125000517
21854,309.85400994583324,54,0.09161982083332987,40,0.09047648333330471
21855,309.9424706249999,52,0.08846067916664424,44,0.09131938541668205
21856,310.03379001041657,54,0.09131938541668205,38,0.09425541458330144
21857,310.12597691666656,52,0.09218690624999226,42,0.535595125000043
21858,310.2515499999999,54,0.12557308333333594,37,0.1326117083333429
21859,310.38416170833324,51,0.1326117083333429,40,0.1413511666667091
21860,310.52551287499995,52,0.1413511666667091,35,0.13605916666665507
21861,310.6615720416666,61,0.13605916666665507,54,0.49212599999998474
21862,311.1536980416666,59,0.49212599999998474,50,0.4921260000000416
21863,311.64582404166663,57,0.4921260000000416,52,0.5052205000000072
21864,312.15104454166664,47,0.5052205000000072,50,0.5052205000000072
21865,312.65626504166664,54,0.5052205000000072,54,2.054976999999951
21866,313.16148554166665,23,0.5052205000000072,27,0.49212599999998474
21867,313.65361154166663,33,0.49212599999998474,27,0.519030999999984
21868,314.1726425416666,39,0.519030999999984,23,0.5385994999999753
21869,314.7112420416666,52,0.5385994999999753,45,1.0771990000000073
21870,316.8656400416666,37,2.1543980000000147,40,1.0443859999999745
21871,317.9100260416666,37,1.0443859999999745,40,1.0830320000000029
21872,318.7223000416666,37,0.8122740000000022,36,0.24368220000002339
21873,318.9930580416666,37,0.2707580000000007,40,2.158108000000027
21874,320.0681340416666,28,1.0750760000000241,28,1.0830320000000029
21875,321.1511660416666,37,1.0830320000000029,40,1.0443859999999745
21876,322.1955520416666,37,1.0443859999999745,40,1.0911070000000223
21877,323.01388229166656,37,0.8183302499999741,36,0.2454990749999979
21878,323.2866590416666,37,0.2727767500000482,40,2.1501519999999914
21879,324.36173504166663,33,1.0750760000000241,28,1.0750759999999673
21880,325.4368110416666,37,1.0750759999999673,40,1.0443859999999745
21881,326.4811970416666,37,1.0443859999999745,40,1.0750760000000241
21882,327.2875040416666,37,0.8063070000000039,36,0.24189209999997274
21883,327.5562730416666,37,0.26876900000002024,40,1.0672359999999799
21884,328.6235090416666,40,1.0672359999999799,49,1.0443859999999745
21885,329.4067985416666,39,0.7832895000000235,45,0.23498684999998432
21886,329.66789504166655,39,0.261096499999951,48,1.0443860000000313
21887,330.4511845416666,37,0.7832895000000235,42,0.23498684999998432
21888,330.7122810416666,37,0.26109650000000784,44,1.0595089999999914
21889,331.5069127916666,37,0.7946317500000077,36,0.23838952500000232
21890,331.7717900416666,37,0.26487724999998363,40,2.1501519999999914
21891,332.8468660416666,33,1.0750760000000241,28,1.0750759999999673
21892,333.92194204166657,40,1.0750759999999673,50,1.0443859999999745
21893,334.96632804166654,40,1.0443859999999745,50,1.0750760000000241
21894,335.77263504166655,40,0.8063070000000039,45,0.24189209999997274
21895,336.04140404166657,40,0.26876900000002024,50,1.036986000000013
21896,337.0783900416666,44,1.036986000000013,59,1.0711403333333465
21897,337.8817452916666,42,0.8033552500000383,53,0.13723683333330428
21898,338.0189821249999,44,0.13723683333330428,48,0.13054825000000392
21899,338.1495303749999,42,0.13054825000000392,57,1.0443860000000313
21900,338.93281987499995,40,0.7832895000000235,50,0.23498684999998432
21901,339.19391637499996,40,0.26109650000000784,55,1.0595089999999914
21902,339.98854812499997,40,0.7946317500000077,45,0.23838952500000232
21903,340.25342537499995,40,0.26487724999998363,50,2.1660640000000058
21904,341.33645737499995,33,1.0830320000000029,35,1.0830320000000029
21905,342.41948937499996,49,1.0830320000000029,73,0.9369327499999827
21906,342.899489375,47,0.4800000000000182,67,0.3308823749999874
21907,343.23037174999996,47,0.3308823749999874,58,0.12605037499997707
21908,343.35642212499994,45,0.12605037499997707,61,1.0187223333333577
21909,344.1209072083333,44,0.7644850833333408,53,0.22881352500002095
21910,344.3751444583333,44,0.25423725000001696,59,1.0830320000000029
21911,345.4581764583333,40,1.0830320000000029,51,1.0830320000000029
21912,346.5412084583333,49,1.0830320000000029,73,0.9307078749999391
21913,347.0173989583333,47,0.47619049999997287,67,0.3284669999999892
21914,347.34586595833326,47,0.3284669999999892,58,0.12605037499997707
21915,347.47191633333324,45,0.12605037499997707,61,1.0256410000000074
21916,348.24114708333326,44,0.7692307500000197,54,0.23076922499996044
21917,348.49755733333325,44,0.2564102499999876,59,1.0830320000000029
21918,349.58058933333325,40,1.0830320000000029,51,1.0830320000000029
21919,350.66362133333325,37,1.0830320000000029,46,1.0443859999999745
21920,351.7080073333332,37,1.0443859999999745,46,1.0750760000000241
21921,352.51431433333323,37,0.8063070000000039,41,0.24189209999997274
21922,352.78308333333325,37,0.26876900000002024,46,1.0672359999999799
21923,353.85031933333323,40,1.0672359999999799,54,1.0443859999999745
21924,354.63360883333326,39,0.7832895000000235,49,0.13054825000000392
21925,354.76415708333326,40,0.13054825000000392,45,0.13054824999994707
21926,354.8947053333332,39,0.13054824999994707,52,1.0443860000000313
21927,355.67799483333323,37,0.7832895000000235,46,0.23498684999998432
21928,355.93909133333324,37,0.26109650000000784,50,1.0595089999999914
21929,356.73372308333325,37,0.7946317500000077,41,0.23838952500000232
21930,356.99860033333323,37,0.26487724999998363,46,2.1501519999999914
21931,358.07367633333325,33,1.0750760000000241,32,1.0750759999999673
21932,359.1487523333332,61,1.0750759999999673,83,0.9618429000000219
21933,359.6249428333332,59,0.47619049999997287,73,0.33737147499999764
21934,359.9623143083332,47,0.33737147499999764,64,0.04695072499998787
21935,360.0092650333332,52,0.04695072499998787,57,0.05129010000001699
21936,360.0605551333332,59,0.05129010000001699,59,0.05004010000004655
21937,360.11059523333324,52,0.05004010000004655,74,1.0258697499999698
21938,360.87330698333324,56,0.762711749999994,61,0.23684220000001233
21939,361.1364649833332,56,0.2631579999999758,69,1.0526320000000169
21940,362.18909698333323,49,1.0526320000000169,68,1.0526320000000169
21941,363.24172898333325,61,1.0526320000000169,83,0.9714728583333567
21942,363.72172898333326,59,0.4800000000000182,73,0.3394383749999861
21943,364.06116735833325,47,0.3394383749999861,66,0.048859550000031504
21944,364.1100269083333,52,0.048859550000031504,58,0.05279587500001526
21945,364.1628227833333,59,0.05279587500001526,58,0.05037905833330569
21946,364.2132018416666,52,0.05037905833330569,76,1.0323887499999955
21947,364.9824325916666,56,0.7692307500000197,61,0.23684220000001233
21948,365.2455905916666,56,0.2631579999999758,69,1.0714290000000233
21949,366.3170195916666,49,1.0714290000000233,68,1.0714289999999664
21950,367.3884485916666,49,1.0714289999999664,61,1.0443859999999745
21951,368.43283459166656,49,1.0443859999999745,63,1.0750760000000241
21952,369.23914159166657,49,0.8063070000000039,57,0.24189209999997274
21953,369.5079105916666,49,0.26876900000002024,65,1.0672359999999799
21954,370.57514659166657,52,1.0672359999999799,82,1.0443859999999745
21955,371.3584360916666,51,0.7832895000000235,71,0.23498684999998432
21956,371.61953259166654,51,0.261096499999951,79,1.0443860000000313
21957,372.40282209166656,49,0.7832895000000235,71,0.23498684999998432
21958,372.6639185916666,49,0.26109650000000784,77,1.0595089999999914
21959,373.4585503416666,49,0.7946317500000077,72,0.23838952500000232
21960,373.72342759166656,49,0.26487724999998363,76,1.0750760000000241
21961,374.7985035916666,51,1.0750760000000241,95,1.0750759999999673
21962,375.87357959166656,52,1.0750759999999673,100,1.0750760000000241
21963,376.9486555916666,56,1.0750760000000241,89,0.8063070000000039
21964,377.7549625916666,57,0.8063070000000039,89,0.2687689999999634
21965,378.02373159166655,59,0.2687689999999634,93,0.8063070000000039
21966,378.83003859166655,61,0.8063070000000039,93,0.26876900000002024
21967,379.09880759166657,63,0.26876900000002024,99,0.825687749999986
21968,379.92449534166656,64,0.825687749999986,102,0.2752292499999953
21969,380.19972459166655,68,0.2752292499999953,103,3.750001499999996
21970,381.2711535916666,51,1.0714290000000233,81,0.8035717500000032
21971,382.0747253416666,49,0.8035717500000032,76,0.2410715249999953
21972,382.34258259166654,66,0.2678572499999632,95,1.6071435000000065
21973,383.14615434166654,47,0.8035717500000032,71,0.2410715249999953
21974,383.41401159166656,47,0.26785725000002003,68,0.8035717500000032
21975,384.21758334166657,57,0.8035717500000032,89,0.29411774999999807
21976,384.51170109166657,56,0.29411774999999807,102,1.0714290000000233
21977,385.5831300916666,56,1.0714290000000233,89,1.0714289999999664
21978,386.3867018416666,58,0.8035717500000032,89,0.2678572499999632
21979,386.65455909166656,60,0.2678572499999632,93,1.0714290000000233
21980,387.45813084166656,61,0.8035717500000032,93,0.26785725000002003
21981,387.7259880916666,63,0.26785725000002003,99,1.1985432500000002
21982,388.56982284166656,64,0.843834749999985,102,0.16483512500002462
21983,388.7346579666666,49,0.16483512500002462,88,2.39170737500001
21984,388.79794909166657,55,0.06329112499997791,88,2.328416250000032
21985,388.8612402166666,58,0.06329112500003475,88,2.2651251249999973
21986,388.9245313416666,64,0.06329112499997791,103,2.2018340000000194
21987,390.02544834166656,46,1.1009169999999813,81,1.1009170000000381
21988,391.1263653416666,63,1.1009170000000381,90,1.1009169999999813
21989,392.2272823416666,32,1.1009169999999813,87,0.7407405000000153
21990,392.9680228416666,22,0.7407405000000153,61,0.10114737499998228
21991,393.0691702166666,23,0.10114737499998228,61,0.10472641666666505
21992,393.17389663333324,25,0.10472641666666505,61,0.10871170833331689
21993,393.28260834166656,47,0.10871170833331689,80,1.0668073333332586
21994,393.3867749979166,25,0.10416665625001542,56,0.10395428124996897
21995,393.49072927916654,23,0.10395428124996897,64,0.10289821874999916
21996,393.59362749791654,25,0.10289821874999916,57,0.10186321874994064
21997,393.6954907166665,23,0.10186321874994064,66,0.1008486354166962
21998,393.7963393520832,25,0.1008486354166962,59,0.0998538437499974
21999,393.8961931958332,23,0.0998538437499974,68,0.09887831250000545
22000,393.9950715083332,25,0.09887831250000545,61,0.09792141666662246
22001,394.0929929249998,23,0.09792141666662246,70,0.09689067708330867
22002,394.1898836020831,25,0.09689067708330867,65,0.09597276041665737
22003,394.28585636249977,23,0.09597276041665737,73,0.09507190625004114
22004,394.3494156749998,47,0.06355931250004687,80,1.033703833333334
22005,394.3809282687498,25,0.03151259374999427,66,0.09418765625002834
22006,394.47511592499984,23,0.09418765625002834,72,0.09375
22007,394.57094925833314,25,0.09583333333330302,63,0.09429269375004878
22008,394.66314111249983,23,0.09219185416668552,69,0.09516092708332735
22009,394.75830203958316,25,0.09516092708332735,60,0.09821847500006697
22010,394.85436534166655,23,0.09606330208339386,66,0.1296851666666612
22011,394.9840505083332,25,0.1296851666666612,58,0.13119758333328946
22012,395.1152480916665,22,0.13119758333328946,64,0.1331384583333488
22013,395.24838654999985,23,0.1331384583333488,55,0.13473295833330212
22014,395.38311950833315,47,0.13473295833330212,80,1.1009169999999813
22015,396.48403650833313,28,1.1009169999999813,82,0.75
22016,397.23403650833313,19,0.75,61,0.10257087499996942
22017,397.3366073833331,20,0.10257087499996942,61,0.10582750000003216
22018,397.44243488333314,21,0.10582750000003216,61,0.10945129166663037
22019,397.55188617499977,44,0.10945129166663037,80,1.0668073333332586
22020,397.6560528312498,21,0.10416665625001542,56,0.10395428124996897
22021,397.76000711249975,20,0.10395428124996897,64,0.10289821874999916
22022,397.86290533124975,21,0.10289821874999916,57,0.10186321874994064
22023,397.9647685499997,20,0.10186321874994064,66,0.1008486354166962
22024,398.0656171854164,21,0.1008486354166962,59,0.0998538437499974
22025,398.1654710291664,20,0.0998538437499974,68,0.09887831250000545
22026,398.2643493416664,21,0.09887831250000545,61,0.09792141666662246
22027,398.362270758333,20,0.09792141666662246,70,0.09689067708330867
22028,398.4591614354163,21,0.09689067708330867,65,0.09597276041665737
22029,398.555134195833,20,0.09597276041665737,73,0.09507190625004114
22030,398.618693508333,44,0.06355931250004687,80,1.033703833333334
22031,398.650206102083,21,0.03151259374999427,66,0.09418765625002834
22032,398.74439375833305,20,0.09418765625002834,72,0.09375
22033,398.84022709166635,21,0.09583333333330302,63,0.09429269375004878
22034,398.93241894583304,20,0.09219185416668552,69,0.09516092708332735
22035,399.02757987291636,21,0.09516092708332735,60,0.09821847500006697
22036,399.12364317499976,20,0.09606330208339386,66,0.1296851666666612
22037,399.2533283416664,21,0.1296851666666612,58,0.13119758333328946
22038,399.3845259249997,19,0.13119758333328946,64,0.1331384583333488
22039,399.51766438333306,20,0.1331384583333488,55,0.13473295833330212
22040,399.65239734166636,37,0.13473295833330212,80,2.2551899999999705
22041,400.75331434166634,20,1.1009169999999813,49,0.5660374999999931
22042,401.31935184166633,16,0.5660374999999931,39,0.5882354999999961
22043,401.90758734166633,37,0.5882354999999961,46,1.0443859999999745
22044,402.9519733416663,37,1.0443859999999745,46,1.0750760000000241
22045,403.7582803416663,37,0.8063070000000039,41,0.24189209999997274
22046,404.0270493416663,37,0.26876900000002024,46,1.0672359999999799
22047,405.0942853416663,40,1.0672359999999799,54,1.0443859999999745
22048,405.87757484166633,39,0.7832895000000235,49,0.13054825000000392
22049,406.00812309166633,40,0.13054825000000392,45,0.13054824999994707
22050,406.1386713416663,39,0.13054824999994707,52,1.0443860000000313
22051,406.9219608416663,37,0.7832895000000235,46,0.26109650000000784
22052,407.1830573416663,37,0.26109650000000784,50,1.0595089999999914
22053,407.9776890916663,37,0.7946317500000077,41,0.23838952500000232
22054,408.2425663416663,37,0.26487724999998363,46,1.0750760000000241
22055,409.3176423416663,40,1.0750760000000241,97,0.8063070000000039
22056,410.12394934166633,42,0.8063070000000039,97,0.2687689999999634
22057,410.3927183416663,44,0.2687689999999634,101,1.0750760000000241
22058,411.4677943416663,56,1.0750760000000241,89,0.8063070000000039
22059,412.2741013416663,57,0.8063070000000039,89,0.2687689999999634
22060,412.5428703416663,59,0.2687689999999634,93,0.8063070000000039
22061,413.3491773416663,61,0.8063070000000039,93,0.26876900000002024
22062,413.6179463416663,63,0.26876900000002024,100,0.825687749999986
22063,414.4436340916663,64,0.825687749999986,103,0.2752292499999953
22064,414.7188633416663,68,0.2752292499999953,104,3.750001499999996
22065,415.7902923416663,51,1.0714290000000233,81,0.8035717500000032
22066,416.5938640916663,49,0.8035717500000032,76,0.2410715249999953
22067,416.8617213416663,66,0.2678572499999632,95,1.6071435000000065
22068,417.6652930916663,47,0.8035717500000032,70,0.2410715249999953
22069,417.9331503416663,47,0.26785725000002003,68,0.8035717500000032
22070,418.7367220916663,57,0.8035717500000032,85,0.29411774999999807
22071,419.0308398416663,56,0.29411774999999807,98,1.0714290000000233
22072,420.10226884166633,56,1.0714290000000233,89,1.0714289999999664
22073,420.90584059166633,58,0.8035717500000032,89,0.2678572499999632
22074,421.1736978416663,60,0.2678572499999632,93,1.0714290000000233
22075,421.9772695916663,61,0.8035717500000032,93,0.26785725000002003
22076,422.2451268416663,63,0.26785725000002003,99,1.1985432500000002
22077,423.0889615916663,64,0.843834749999985,102,0.16483512500002462
22078,423.25379671666633,49,0.16483512500002462,88,2.39170737500001
22079,423.3170878416663,55,0.06329112499997791,88,2.328416250000032
22080,423.38037896666634,58,0.06329112500003475,88,2.2651251249999973
22081,423.4436700916663,64,0.06329112499997791,103,2.2018340000000194
22082,424.5445870916663,46,1.1009169999999813,81,1.1009170000000381
22083,425.64550409166634,63,1.1009170000000381,90,1.1009169999999813
22084,426.7464210916663,32,1.1009169999999813,81,0.7407405000000153
22085,427.48716159166634,22,0.7407405000000153,61,0.10114737499998228
22086,427.5883089666663,23,0.10114737499998228,61,0.10472641666666505
22087,427.693035383333,25,0.10472641666666505,61,0.10871170833331689
22088,427.8017470916663,47,0.10871170833331689,80,1.0668073333332586
22089,427.9059137479163,25,0.10416665625001542,56,0.10395428124996897
22090,428.0098680291663,23,0.10395428124996897,64,0.10289821874999916
22091,428.1127662479163,25,0.10289821874999916,57,0.10186321874994064
22092,428.2146294666662,23,0.10186321874994064,66,0.1008486354166962
22093,428.3154781020829,25,0.1008486354166962,59,0.0998538437499974
22094,428.4153319458329,23,0.0998538437499974,68,0.09887831250000545
22095,428.5142102583329,25,0.09887831250000545,61,0.09792141666662246
22096,428.61213167499955,23,0.09792141666662246,70,0.09689067708330867
22097,428.70902235208285,25,0.09689067708330867,65,0.09597276041665737
22098,428.8049951124995,23,0.09597276041665737,73,0.09507190625004114
22099,428.86855442499956,47,0.06355931250004687,80,1.033703833333334
22100,428.90006701874955,25,0.03151259374999427,66,0.09418765625002834
22101,428.9942546749996,23,0.09418765625002834,72,0.09375
22102,429.0900880083329,25,0.09583333333330302,63,0.09429269375004878
22103,429.18227986249957,23,0.09219185416668552,69,0.09516092708332735
22104,429.2774407895829,25,0.09516092708332735,60,0.09821847500006697
22105,429.3735040916663,23,0.09606330208339386,66,0.1296851666666612
22106,429.50318925833295,25,0.1296851666666612,58,0.13119758333328946
22107,429.63438684166624,22,0.13119758333328946,64,0.1331384583333488
22108,429.7675252999996,23,0.1331384583333488,55,0.13473295833330212
22109,429.9022582583329,47,0.13473295833330212,80,1.1009169999999813
22110,431.0031752583329,28,1.1009169999999813,68,0.75
22111,431.7531752583329,19,0.75,61,0.10257087499996942
22112,431.85574613333284,20,0.10257087499996942,61,0.10582750000003216
22113,431.9615736333329,21,0.10582750000003216,61,0.10945129166663037
22114,432.0710249249995,44,0.10945129166663037,80,1.0668073333332586
22115,432.1751915812495,21,0.10416665625001542,56,0.10395428124996897
22116,432.2791458624995,20,0.10395428124996897,64,0.10289821874999916
22117,432.3820440812495,21,0.10289821874999916,57,0.10186321874994064
22118,432.48390729999943,20,0.10186321874994064,66,0.1008486354166962
22119,432.5847559354161,21,0.1008486354166962,59,0.0998538437499974
22120,432.6846097791661,20,0.0998538437499974,68,0.09887831250000545
22121,432.78348809166613,21,0.09887831250000545,61,0.09792141666662246
22122,432.88140950833275,20,0.09792141666662246,70,0.09689067708330867
22123,432.97830018541606,21,0.09689067708330867,65,0.09597276041665737
22124,433.0742729458327,20,0.09597276041665737,73,0.09507190625004114
22125,433.13783225833276,44,0.06355931250004687,80,1.033703833333334
22126,433.16934485208276,21,0.03151259374999427,66,0.09418765625002834
22127,433.2635325083328,20,0.09418765625002834,72,0.09375
22128,433.3593658416661,21,0.09583333333330302,63,0.09429269375004878
22129,433.4515576958328,20,0.09219185416668552,69,0.09516092708332735
22130,433.5467186229161,21,0.09516092708332735,60,0.09821847500006697
22131,433.6427819249995,20,0.09606330208339386,66,0.1296851666666612
22132,433.77246709166616,21,0.1296851666666612,58,0.13119758333328946
22133,433.90366467499945,19,0.13119758333328946,64,0.1331384583333488
22134,434.0368031333328,20,0.1331384583333488,55,0.13473295833330212
22135,434.1715360916661,37,0.13473295833330212,80,2.2551899999999705
22136,435.2724530916661,20,1.1009169999999813,47,0.5660374999999931
22137,435.8384905916661,16,0.5660374999999931,39,0.5882354999999961
22138,436.42672609166607,37,0.5882354999999961,46,1.0593220000000088
22139,437.4860480916661,37,1.0593220000000088,46,1.0905129999999872
22140,438.3039328416661,37,0.8178847500000188,41,0.2453654249999886
22141,438.57656109166606,37,0.2726282499999684,46,1.0824460000000045
22142,439.65900709166607,40,1.0824460000000045,45,1.1560690000000022
22143,440.52605884166604,39,0.8670517499999733,40,0.1445086250000145
22144,440.67056746666606,40,0.1445086250000145,37,0.1445086250000145
22145,440.81507609166607,39,0.1445086250000145,42,1.263964499999986
22146,441.7550665916661,37,0.9399905000000217,36,0.29157659999998486
22147,442.07904059166606,37,0.32397399999996424,40,1.5864779999999996
22148,443.14287059166605,37,1.0638299999999958,28,0.47038320000001477
22149,443.66551859166606,37,0.5226480000000038,31,3.1999999999999886
22150,0.0,28,0.0,90,2.625
22151,2.625,19,2.625,90,0.45112799999999975
22152,3.0761279999999998,19,0.45112799999999975,90,3.178808000000001
22153,4.665532,40,1.589404,90,1.589404000000001
22154,6.254936000000001,28,1.589404000000001,72,0.1855780833333336
22155,6.440514083333334,28,0.1855780833333336,65,3.1128754166666672
22156,6.632424000000001,30,0.1919099166666669,79,5.9209655
22157,6.8311227500000005,36,0.19869874999999926,81,5.722266750000001
22158,7.035906500000001,40,0.2047837500000007,85,5.517483
22159,9.553389500000002,39,2.5174830000000004,64,3.0
22160,12.553389500000002,25,3.0,52,0.12520875000000053
22161,12.678598250000002,32,0.12520875000000053,29,0.12520874999999876
22162,12.803807,40,0.12520874999999876,26,0.12500766666666685
22163,12.928814666666668,20,0.12500766666666685,33,0.12460550000000126
22164,13.053420166666669,25,0.12460550000000126,29,0.12460549999999948
22165,13.178025666666668,32,0.12460549999999948,29,0.12421399999999849
22166,13.302239666666667,40,0.12421399999999849,27,0.12401825000000066
22167,13.426257916666668,20,0.12401825000000066,35,0.12401825000000066
22168,13.550276166666668,25,0.12401825000000066,33,0.1234365000000004
22169,13.673712666666669,32,0.1234365000000004,30,0.1234365000000004
22170,13.797149166666669,40,0.1234365000000004,29,0.12324441666666708
22171,13.920393583333336,20,0.12324441666666708,35,0.12286024999999867
22172,14.043253833333335,25,0.12286024999999867,34,0.12286025000000045
22173,14.166114083333335,32,0.12286025000000045,35,0.12247291666666804
22174,14.288587000000003,40,0.12247291666666804,31,0.12227925000000006
22175,14.410866250000003,20,0.12227925000000006,39,0.12227925000000006
22176,14.533145500000003,25,0.12227925000000006,38,0.12227925000000006
22177,14.655424750000003,32,0.12227925000000006,35,0.12227925000000006
22178,14.777704000000004,40,0.12227925000000006,34,0.12227924999999829
22179,14.899983250000002,20,0.12227924999999829,39,0.12227925000000006
22180,15.022262500000002,25,0.12227925000000006,35,0.12286025000000045
22181,15.145122750000002,32,0.12286025000000045,34,0.12286024999999867
22182,15.267983000000001,40,0.12286024999999867,30,0.12286025000000045
22183,15.390843250000001,20,0.12286025000000045,36,0.12286025000000045
22184,15.513703500000002,25,0.12286025000000045,33,0.1234365000000004
22185,15.637140000000002,32,0.1234365000000004,30,0.1234365000000004
22186,15.760576500000003,40,0.1234365000000004,29,0.12343649999999862
22187,15.884013000000001,20,0.12343649999999862,35,0.12343650000000217
22188,16.007449500000003,25,0.12343650000000217,29,0.12401824999999889
22189,16.131467750000002,32,0.12401824999999889,29,0.12401825000000244
22190,16.255486000000005,40,0.12401825000000244,28,0.12401824999999889
22191,16.379504250000004,32,0.12401824999999889,33,0.12401824999999889
22192,16.503522500000003,52,0.12401824999999889,54,0.12460550000000126
22193,16.628128000000004,49,0.12460550000000126,51,0.1246054999999977
22194,16.7527335,37,0.1246054999999977,30,0.12460550000000126
22195,16.877339000000003,51,0.12460550000000126,51,0.12460550000000126
22196,17.001944500000004,52,0.12460550000000126,54,0.12286024999999867
22197,17.124804750000003,49,0.12286024999999867,51,0.12286025000000222
22198,17.247665000000005,40,0.12286025000000222,31,0.12460550000000126
22199,17.372270500000006,32,0.12460550000000126,31,0.1246054999999977
22200,17.496876000000004,52,0.1246054999999977,54,0.12227924999999829
22201,17.619155250000002,49,0.12227924999999829,51,0.12227925000000184
22202,17.741434500000004,37,0.12227925000000184,31,0.12460550000000126
22203,17.866040000000005,51,0.12460550000000126,51,0.1246054999999977
22204,17.990645500000003,52,0.1246054999999977,54,0.12286024999999867
22205,18.11350575,49,0.12286024999999867,51,0.12286025000000222
22206,18.236366000000004,37,0.12286025000000222,31,0.12460550000000126
22207,18.360971500000005,32,0.12460550000000126,31,0.1246054999999977
22208,18.485577000000003,52,0.1246054999999977,54,0.12286024999999867
22209,18.60843725,49,0.12286024999999867,51,0.12286025000000222
22210,18.731297500000004,40,0.12286025000000222,31,0.12460550000000126
22211,18.855903000000005,51,0.12460550000000126,61,0.1246054999999977
22212,18.980508500000003,52,0.1246054999999977,66,0.12227924999999829
22213,19.10278775,61,0.12227924999999829,64,0.12227925000000184
22214,19.225067000000003,37,0.12227925000000184,34,0.12828199999999867
22215,19.353349,32,0.12828199999999867,34,0.12828200000000223
22216,19.481631000000004,60,0.12828200000000223,61,0.12286024999999867
22217,19.604491250000002,51,0.12286024999999867,57,0.12286025000000222
22218,19.727351500000005,36,0.12286025000000222,30,0.12460550000000126
22219,19.851957000000006,52,0.12460550000000126,49,0.1246054999999977
22220,19.976562500000004,54,0.1246054999999977,52,0.12286024999999867
22221,20.099422750000002,51,0.12286024999999867,49,0.12286025000000222
22222,20.222283000000004,36,0.12286025000000222,31,0.12460550000000126
22223,20.346888500000006,33,0.12460550000000126,31,0.1246054999999977
22224,20.471494000000003,57,0.1246054999999977,55,0.1234365000000004
22225,20.594930500000004,51,0.1234365000000004,49,0.1234365000000004
22226,20.718367000000004,36,0.1234365000000004,30,0.12460550000000126
22227,20.842972500000005,52,0.12460550000000126,49,0.1246054999999977
22228,20.967578000000003,54,0.1246054999999977,52,0.12286024999999867
22229,21.090438250000002,51,0.12286024999999867,49,0.12286025000000222
22230,21.213298500000004,36,0.12286025000000222,31,0.12460550000000126
22231,21.337904000000005,33,0.12460550000000126,31,0.1246054999999977
22232,21.462509500000003,57,0.1246054999999977,55,0.1234365000000004
22233,21.585946000000003,51,0.1234365000000004,49,0.1234365000000004
22234,21.709382500000004,36,0.1234365000000004,30,0.12460550000000126
22235,21.833988000000005,52,0.12460550000000126,49,0.1246054999999977
22236,21.958593500000003,54,0.1246054999999977,52,0.12286024999999867
22237,22.08145375,51,0.12286024999999867,49,0.12286025000000222
22238,22.204314000000004,42,0.12286025000000222,31,0.12460550000000126
22239,22.328919500000005,33,0.12460550000000126,31,0.1246054999999977
22240,22.453525000000003,57,0.1246054999999977,58,0.1234365000000004
22241,22.576961500000003,51,0.1234365000000004,51,0.1234365000000004
22242,22.700398000000003,36,0.1234365000000004,34,0.12460550000000126
22243,22.825003500000005,52,0.12460550000000126,65,0.1246054999999977
22244,22.949609000000002,54,0.1246054999999977,71,0.12286024999999867
22245,23.07246925,63,0.12286024999999867,64,0.12286025000000222
22246,23.195329500000003,36,0.12286025000000222,37,0.12764874999999876
22247,23.322978250000002,33,0.12764874999999876,38,0.1276487500000023
22248,23.450627000000004,63,0.1276487500000023,61,0.2468730000000008
22249,23.574063500000005,52,0.1234365000000004,57,0.1234365000000004
22250,23.697500000000005,36,0.1234365000000004,30,0.12460550000000126
22251,23.822105500000006,54,0.12460550000000126,49,0.1246054999999977
22252,23.946711000000004,56,0.1246054999999977,52,0.2457205000000009
22253,24.069571250000003,52,0.12286024999999867,49,0.12286025000000222
22254,24.192431500000005,37,0.12286025000000222,31,0.12764874999999876
22255,24.320080250000004,32,0.12764874999999876,31,0.1276487500000023
22256,24.447729000000006,64,0.1276487500000023,82,0.12460550000000126
22257,24.572334500000007,63,0.12460550000000126,75,0.1246054999999977
22258,24.696940000000005,46,0.1246054999999977,50,0.12642225000000096
22259,24.823362250000006,61,0.12642225000000096,72,0.1264222499999974
22260,24.949784500000003,60,0.1264222499999974,78,0.12286024999999867
22261,25.072644750000002,63,0.12286024999999867,68,0.12286025000000222
22262,25.195505000000004,48,0.12286025000000222,58,0.12764874999999876
22263,25.323153750000003,32,0.12764874999999876,51,0.1276487500000023
22264,25.450802500000005,57,0.1276487500000023,55,0.12460550000000126
22265,25.575408000000007,56,0.12460550000000126,50,0.1246054999999977
22266,25.700013500000004,42,0.1246054999999977,29,0.12764874999999876
22267,25.827662250000003,54,0.12764874999999876,49,0.1276487500000023
22268,25.955311000000005,52,0.1276487500000023,52,0.12286024999999867
22269,26.078171250000004,56,0.12286024999999867,49,0.12286025000000222
22270,26.201031500000006,40,0.12286025000000222,29,0.12764874999999876
22271,26.328680250000005,25,0.12764874999999876,29,0.1276487500000023
22272,26.456329000000007,64,0.1276487500000023,82,0.12460550000000126
22273,26.58093450000001,63,0.12460550000000126,75,0.1246054999999977
22274,26.705540000000006,46,0.1246054999999977,50,0.12764874999999876
22275,26.833188750000005,61,0.12764874999999876,72,0.1276487500000023
22276,26.960837500000007,60,0.1276487500000023,78,0.12286024999999867
22277,27.083697750000006,63,0.12286024999999867,68,0.12286025000000222
22278,27.20655800000001,48,0.12286025000000222,58,0.12764874999999876
22279,27.334206750000007,32,0.12764874999999876,51,0.1276487500000023
22280,27.46185550000001,57,0.1276487500000023,55,0.12460550000000126
22281,27.58646100000001,56,0.12460550000000126,50,0.1246054999999977
22282,27.71106650000001,42,0.1246054999999977,29,0.12764874999999876
22283,27.838715250000007,54,0.12764874999999876,49,0.1276487500000023
22284,27.96636400000001,53,0.1276487500000023,52,0.12286024999999867
22285,28.089224250000008,56,0.12286024999999867,49,0.12286025000000222
22286,28.21208450000001,40,0.12286025000000222,29,0.14354074999999966
22287,28.35562525000001,25,0.14354074999999966,29,0.14354074999999966
22288,28.49916600000001,68,0.14354074999999966,89,0.13043474999999916
22289,28.62960075000001,67,0.13043474999999916,83,0.13043474999999916
22290,28.760035500000008,28,0.13043474999999916,50,0.13157899999999856
22291,28.891614500000006,64,0.13157899999999856,72,0.1315790000000021
22292,29.02319350000001,63,0.1315790000000021,80,0.12658224999999845
22293,29.149775750000007,61,0.12658224999999845,75,0.126582250000002
22294,29.27635800000001,28,0.126582250000002,49,0.12931024999999963
22295,29.40566825000001,37,0.12931024999999963,49,0.12931024999999963
22296,29.53497850000001,61,0.12931024999999963,80,0.12460550000000126
22297,29.65958400000001,59,0.12460550000000126,73,0.1246054999999977
22298,29.784189500000007,28,0.1246054999999977,42,0.12642225000000096
22299,29.910611750000008,58,0.12642225000000096,68,0.1264222499999974
22300,30.037034000000006,57,0.1264222499999974,69,0.12286024999999867
22301,30.159894250000004,51,0.12286024999999867,64,0.12286025000000222
22302,30.282754500000006,30,0.12286025000000222,46,0.12764874999999876
22303,30.410403250000005,39,0.12764874999999876,44,0.1276487500000023
22304,30.538052000000008,59,0.1276487500000023,68,0.12460550000000126
22305,30.66265750000001,58,0.12460550000000126,62,0.1246054999999977
22306,30.787263000000006,32,0.1246054999999977,42,0.12580725000000115
22307,30.913070250000008,56,0.12580725000000115,61,0.1258072499999976
22308,31.038877500000005,54,0.1258072499999976,63,0.12286024999999867
22309,31.161737750000004,46,0.12286024999999867,52,0.12286025000000222
22310,31.284598000000006,34,0.12286025000000222,40,0.12764874999999876
22311,31.412246750000005,42,0.12764874999999876,39,0.1276487500000023
22312,31.539895500000007,54,0.1276487500000023,67,0.11949325000000144
22313,31.65938875000001,45,0.11949325000000144,59,0.11949324999999789
22314,31.778882000000007,33,0.11949324999999789,41,0.12711875000000106
22315,31.906000750000008,42,0.12711875000000106,42,0.1271187499999975
22316,32.033119500000005,54,0.1271187499999975,62,0.12448125000000232
22317,32.15760075000001,44,0.12448125000000232,56,0.12448124999999521
22318,32.282082,32,0.12448124999999521,42,0.13953500000000219
22319,32.421617000000005,42,0.13953500000000219,41,0.13953499999999508
22320,32.561152,52,0.13953499999999508,68,0.12875524999999755
22321,32.68990725,49,0.12875524999999755,59,0.12875525000000465
22322,32.8186625,37,0.12875525000000465,47,0.13043474999999916
22323,32.94909725,51,0.13043474999999916,67,0.13043474999999916
22324,33.079532,52,0.13043474999999916,68,0.12605049999999807
22325,33.2055825,49,0.12605049999999807,60,0.12605050000000517
22326,33.331633000000004,37,0.12605050000000517,48,0.1298702500000033
22327,33.46150325000001,20,0.1298702500000033,48,0.1298702499999962
22328,33.5913735,52,0.1298702499999962,68,0.12448125000000232
22329,33.715854750000005,49,0.12448125000000232,60,0.12448124999999521
22330,33.840336,37,0.12448124999999521,48,0.1282052500000006
22331,33.96854125,51,0.1282052500000006,68,0.1282052500000006
22332,34.0967465,52,0.1282052500000006,68,0.12605049999999807
22333,34.222797,49,0.12605049999999807,60,0.12605050000000517
22334,34.348847500000005,37,0.12605050000000517,48,0.1282052500000006
22335,34.477052750000006,20,0.1282052500000006,48,0.1282052500000006
22336,34.605258000000006,52,0.1282052500000006,68,0.125
22337,34.730258000000006,49,0.125,67,0.125
22338,34.855258000000006,37,0.125,48,0.1282052500000006
22339,34.98346325000001,51,0.1282052500000006,73,0.1282052500000006
22340,35.11166850000001,52,0.1282052500000006,84,0.12448125000000232
22341,35.23614975000001,61,0.12448125000000232,76,0.12448124999999521
22342,35.360631000000005,40,0.12448124999999521,50,0.12825032708333595
22343,35.48888132708334,28,0.12825032708333595,50,0.12828199999999867
22344,35.61716332708334,60,0.12828199999999867,76,0.12290543124999687
22345,35.74006875833334,51,0.12290543124999687,67,0.12286024999999512
22346,35.86292900833333,42,0.12286024999999512,47,0.12459095625000316
22347,35.987519964583335,52,0.12459095625000316,67,0.12460549999999415
22348,36.11212546458333,54,0.12460549999999415,68,0.12287479375000743
22349,36.235000258333336,51,0.12287479375000743,60,0.12286024999999512
22350,36.35786050833333,42,0.12286024999999512,48,0.12459095625000316
22351,36.482451464583335,27,0.12459095625000316,48,0.12460549999999415
22352,36.60705696458333,57,0.12460549999999415,71,0.12344624166667018
22353,36.73050320625,51,0.12344624166667018,59,0.12343650000000395
22354,36.85393970625,42,0.12343650000000395,47,0.12459575833333503
22355,36.97853546458334,52,0.12459575833333503,67,0.12460549999999415
22356,37.10314096458333,54,0.12460549999999415,68,0.12287479375000743
22357,37.22601575833334,51,0.12287479375000743,60,0.12286024999999512
22358,37.348876008333335,42,0.12286024999999512,48,0.12459095625000316
22359,37.47346696458334,27,0.12459095625000316,48,0.12460549999999415
22360,37.59807246458333,57,0.12460549999999415,71,0.12344624166667018
22361,37.72151870625,51,0.12344624166667018,59,0.12343650000000395
22362,37.844955206250006,42,0.12343650000000395,47,0.12459575833333503
22363,37.96955096458334,52,0.12459575833333503,67,0.12460549999999415
22364,38.094156464583335,54,0.12460549999999415,68,0.12287479375000743
22365,38.21703125833334,51,0.12287479375000743,60,0.12286024999999512
22366,38.33989150833334,42,0.12286024999999512,48,0.12459095625000316
22367,38.46448246458334,27,0.12459095625000316,48,0.12460549999999415
22368,38.589087964583335,57,0.12460549999999415,74,0.12344624166667018
22369,38.712534206250005,51,0.12344624166667018,63,0.12343650000000395
22370,38.83597070625001,42,0.12343650000000395,50,0.12459575833333503
22371,38.960566464583344,52,0.12459575833333503,78,0.12460549999999415
22372,39.08517196458334,54,0.12460549999999415,88,0.12287479375000743
22373,39.208046758333346,63,0.12287479375000743,78,0.12286024999999512
22374,39.33090700833334,42,0.12286024999999512,54,0.1276088458333362
22375,39.45851585416668,27,0.1276088458333362,55,0.12764874999999876
22376,39.586164604166676,63,0.12764874999999876,73,0.12347160208332753
22377,39.70963620625,52,0.12347160208332753,72,0.12343650000000395
22378,39.83307270625001,44,0.12343650000000395,47,0.12459575833333503
22379,39.95766846458334,54,0.12459575833333503,64,0.12460549999999415
22380,40.08227396458334,56,0.12460549999999415,69,0.12287479375000743
22381,40.205148758333344,61,0.12287479375000743,69,0.12286024999999512
22382,40.32800900833334,44,0.12286024999999512,48,0.1276088458333362
22383,40.455617854166675,28,0.1276088458333362,48,0.12764874999999876
22384,40.583266604166674,64,0.12764874999999876,85,0.12460550000000126
22385,40.707872104166675,63,0.12460550000000126,84,0.12460550000000126
22386,40.83247760416668,46,0.12460550000000126,55,0.1264222499999974
22387,40.958899854166674,61,0.1264222499999974,80,0.1264222500000045
22388,41.08532210416668,60,0.1264222500000045,86,0.12286025000000222
22389,41.20818235416668,63,0.12286025000000222,80,0.12286024999999512
22390,41.331042604166676,48,0.12286024999999512,57,0.12764874999999876
22391,41.458691354166675,32,0.12764874999999876,57,0.12764874999999876
22392,41.58634010416667,57,0.12764874999999876,67,0.12460550000000126
22393,41.710945604166675,56,0.12460550000000126,66,0.12460550000000126
22394,41.835551104166676,42,0.12460550000000126,44,0.12764874999999876
22395,41.963199854166675,54,0.12764874999999876,64,0.12764874999999876
22396,42.09084860416667,53,0.12764874999999876,69,0.12286025000000222
22397,42.213708854166676,56,0.12286025000000222,64,0.12286024999999512
22398,42.33656910416667,40,0.12286024999999512,44,0.12764874999999876
22399,42.46421785416667,25,0.12764874999999876,44,0.12764874999999876
22400,42.59186660416667,64,0.12764874999999876,85,0.12460550000000126
22401,42.71647210416667,63,0.12460550000000126,84,0.12460550000000126
22402,42.84107760416667,46,0.12460550000000126,55,0.12764874999999876
22403,42.96872635416667,61,0.12764874999999876,80,0.12764874999999876
22404,43.09637510416667,60,0.12764874999999876,86,0.12286025000000222
22405,43.21923535416667,63,0.12286025000000222,80,0.12286024999999512
22406,43.342095604166666,48,0.12286024999999512,57,0.12764874999999876
22407,43.469744354166664,32,0.12764874999999876,57,0.12764874999999876
22408,43.59739310416666,62,0.12764874999999876,84,0.12460550000000126
22409,43.721998604166664,61,0.12460550000000126,77,0.12460550000000126
22410,43.846604104166666,44,0.12460550000000126,55,0.12764874999999876
22411,43.974252854166664,59,0.12764874999999876,80,0.12764874999999876
22412,44.10190160416666,58,0.12764874999999876,86,0.12286025000000222
22413,44.224761854166665,61,0.12286025000000222,75,0.12286024999999512
22414,44.34762210416666,45,0.12286024999999512,55,0.15394100000000321
22415,44.501563104166664,30,0.15394100000000321,55,0.1539409999999961
22416,44.65550410416666,60,0.1539409999999961,99,0.8016365000000008
22417,44.79311885416666,25,0.13761474999999734,59,0.13761475000000445
22418,44.93073360416666,61,0.13761475000000445,79,0.2597404999999995
22419,45.060603854166665,25,0.1298702500000033,59,0.1298702499999962
22420,45.19047410416666,60,0.1298702499999962,89,0.2666664999999995
22421,45.32380735416666,25,0.13333324999999974,59,0.13333324999999974
22422,45.45714060416666,61,0.13333324999999974,79,0.25862049999999925
22423,45.586450854166664,25,0.12931025000000318,59,0.12931024999999607
22424,45.71576110416666,60,0.12931024999999607,92,0.26990550000000013
22425,45.850713854166656,25,0.1349527499999965,59,0.13495275000000362
22426,45.98566660416666,61,0.13495275000000362,80,0.5552674999999994
22427,46.12124135416666,25,0.13557475000000352,59,0.1355747499999964
22428,46.25681610416666,60,0.1355747499999964,89,0.2841179999999994
22429,46.39887510416666,30,0.14205900000000327,59,0.14205899999999616
22430,46.54093410416666,61,0.14205899999999616,80,0.2841179999999994
22431,46.68299310416666,30,0.14205900000000327,59,0.14205899999999616
22432,46.82505210416666,52,0.14205899999999616,100,0.14137600000000106
22433,47.10780410416666,51,0.2827520000000021,86,0.14137600000000106
22434,47.67330810416666,49,0.5655039999999971,66,0.28824000000000183
22435,47.96154810416666,49,0.28824000000000183,68,0.5764799999999966
22436,48.538028104166656,45,0.5764799999999966,62,0.43236000000000274
22437,48.97038810416666,32,0.43236000000000274,49,0.14412000000000091
22438,49.11450810416666,47,0.14412000000000091,49,1.8959142125000028
22439,50.38650210416666,44,1.2719939999999994,49,0.6239202125000034
22440,51.01042231666666,45,0.6239202125000034,44,0.6238949999999974
22441,51.63431731666666,44,0.6238949999999974,46,2.5788920000000033
22442,52.91254531666666,42,1.2782279999999986,41,1.3006640000000047
22443,53.23210231666666,24,0.3195570000000032,37,0.3195569999999961
22444,53.55165931666666,25,0.3195569999999961,39,0.3195570000000032
22445,53.87121631666666,23,0.3195570000000032,37,0.3419930000000022
22446,54.05421006666666,32,0.1829937500000014,41,0.8140922500000016
22447,54.13370969166666,40,0.07949962499999685,41,1.3896856250000056
22448,54.21320931666666,47,0.07949962500000396,49,1.3101860000000016
22449,54.868302316666664,44,0.6550930000000008,49,0.6550930000000008
22450,55.523395316666665,45,0.6550930000000008,49,0.6347319958333273
22451,55.835407812499994,44,0.31201249583332924,47,0.32271949999999805
22452,56.15812731249999,47,0.32271949999999805,44,0.6315045000000055
22453,56.470074812499995,45,0.31194750000000226,41,0.3195570000000032
22454,56.7896318125,44,0.3195570000000032,45,2.544235999999998
22455,58.0678598125,42,1.2782279999999986,41,1.2660079999999994
22456,58.38130681249999,24,0.3134469999999965,37,0.3134470000000036
22457,58.6947538125,27,0.3134470000000036,35,0.2130379999999974
22458,58.907791812499994,25,0.2130379999999974,34,0.2130380000000045
22459,59.1208298125,23,0.2130380000000045,34,0.2130379999999974
22460,59.333867812499996,47,0.2130379999999974,52,1.2782279999999986
22461,59.972981812499995,49,0.6391139999999993,51,0.6391139999999993
22462,60.612095812499994,51,0.6391139999999993,52,1.2478217062500008
22463,61.23602251875,52,0.6239267062500033,58,0.6238949999999974
22464,61.70394376875,54,0.4679212500000034,60,0.15597374999999403
22465,61.859917518749995,56,0.15597374999999403,61,0.6238950000000045
22466,62.48381251875,49,0.6238950000000045,51,0.6550930000000008
22467,63.13890551875,51,0.6550930000000008,52,1.2623494958333268
22468,63.68487863958333,37,0.5459731208333309,56,0.7163763749999958
22469,63.76286551458333,52,0.07798687500000057,58,0.5567789999999988
22470,64.23803401458332,54,0.4751684999999881,60,0.16322100000000717
22471,64.31964451458333,20,0.08161050000001069,41,0.7344944999999967
22472,64.40125501458333,56,0.08161049999999648,63,1.3057680000000005
22473,65.05413901458333,54,0.6528840000000002,60,1.3057680000000005
22474,65.70702301458333,52,0.6528840000000002,63,0.6528840000000002
22475,66.35990701458333,51,0.6528840000000002,63,0.4725404999999938
22476,66.83244751458332,49,0.4725404999999938,57,0.1575135000000074
22477,66.98996101458333,47,0.1575135000000074,61,0.6425661666666684
22478,67.63252718125,45,0.6425661666666684,59,0.4725404999999938
22479,68.10506768124999,44,0.4725404999999938,56,0.1575135000000074
22480,68.26258118125,42,0.1575135000000074,59,0.9626114999999942
22481,68.89263518125,39,0.6300540000000012,53,0.6829019999999986
22482,69.22519268125,43,0.33255749999999296,60,0.1751722500000028
22483,69.40036493125,44,0.1751722500000028,55,1.4534002500000014
22484,69.48795105625,52,0.0875861250000014,60,1.365814125
22485,69.57553718125,59,0.0875861250000014,72,1.2782279999999986
22486,69.78857518125,34,0.2130379999999974,33,0.2130379999999974
22487,70.00161318125,35,0.2130379999999974,31,0.2130380000000116
22488,70.21465118125,37,0.2130380000000116,37,0.2130379999999974
22489,70.42768918125,35,0.2130379999999974,31,0.2130379999999974
22490,70.64072718125,23,0.2130379999999974,31,0.2130379999999974
22491,70.85376518125,56,0.2130379999999974,60,0.6238950000000045
22492,71.06173018125,34,0.2079650000000015,35,0.2079650000000015
22493,71.26969518125,35,0.2079650000000015,35,0.2079650000000015
22494,71.47766018125,47,0.2079650000000015,39,0.3195570000000032
22495,71.69069818125,35,0.2130379999999974,33,0.21737149999999872
22496,71.79721718125,57,0.1065190000000058,55,0.33255749999999296
22497,71.90806968125,23,0.11085249999999292,33,0.22170500000000004
22498,72.12977468125,56,0.22170500000000004,65,1.2660079999999994
22499,72.33873934791666,34,0.20896466666665958,35,0.2089646666666738
22500,72.54770401458333,35,0.2089646666666738,35,0.20896466666665958
22501,72.75666868124999,37,0.20896466666665958,37,0.2130379999999974
22502,72.96970668124999,35,0.2130379999999974,33,0.2130379999999974
22503,73.07622568125,54,0.1065190000000058,55,0.3195570000000032
22504,73.18274468124999,23,0.10651899999999159,33,0.2130380000000116
22505,73.39578268125,49,0.2130380000000116,58,0.31194750000000226
22506,73.60374768125,34,0.2079650000000015,35,0.2079650000000015
22507,73.70773018125,47,0.10398250000000075,52,0.31194750000000226
22508,73.81171268125,35,0.10398250000000075,35,0.2079650000000015
22509,74.01967768125,40,0.2079650000000015,61,0.3211304999999953
22510,74.23376468125001,35,0.21408700000000636,33,0.2184516666666525
22511,74.34080818125,42,0.10704349999998897,55,0.1671122500000024
22512,74.45221634791666,23,0.11140816666666353,33,0.22281633333334128
22513,74.50792043125,44,0.05570408333333887,62,0.1671122500000024
22514,74.67503268125,59,0.1671122500000024,68,1.2782279999999986
22515,74.99458968125,34,0.3195570000000032,34,0.1597785000000016
22516,75.15436818125,35,0.1597785000000016,33,0.1597785000000016
22517,75.31414668125001,56,0.1597785000000016,62,0.6391139999999922
22518,75.47392518125,35,0.1597784999999874,31,0.14380065000000286
22519,75.63370368125,35,0.1597785000000016,37,0.1597785000000016
22520,75.79348218125,23,0.1597785000000016,37,0.1597785000000016
22521,75.95326068125,57,0.1597785000000016,66,0.6238950000000045
22522,76.26520818125,56,0.31194750000000226,55,0.31194750000000226
22523,76.42118193125,35,0.15597375000000113,35,0.15597375000000113
22524,76.57715568125,56,0.15597375000000113,57,0.2130379999999974
22525,76.73693418125,35,0.1597785000000016,33,0.14380065000000286
22526,76.79019368125,59,0.053259499999995796,55,0.2130379999999974
22527,76.89671268125001,35,0.1065190000000058,37,0.1597785000000016
22528,77.00323168125,57,0.10651899999999159,55,0.2130380000000116
22529,77.05649118125001,23,0.05325950000001001,31,0.1597785000000016
22530,77.21626968125001,56,0.1597785000000016,61,1.2660079999999994
22531,77.52971668125001,34,0.3134469999999965,35,0.15672349999999824
22532,77.68644018125,35,0.15672349999999824,35,0.15672349999999824
22533,77.84316368125,37,0.15672349999999824,37,0.1597785000000016
22534,78.00294218125,35,0.1597785000000016,33,0.14380065000000286
22535,78.16272068125001,54,0.1597785000000016,60,0.3195570000000032
22536,78.32249918125001,23,0.1597785000000016,33,0.1597785000000016
22537,78.48227768125001,49,0.1597785000000016,60,0.31194750000000226
22538,78.69024268125001,47,0.2079650000000015,51,0.2079650000000015
22539,78.79422518125001,34,0.10398250000000075,35,0.15597375000000113
22540,78.89820768125001,49,0.10398250000000075,51,0.2079650000000015
22541,78.95019893125001,35,0.05199125000000038,35,0.15597375000000113
22542,79.10617268125002,47,0.15597375000000113,58,0.21408700000000636
22543,79.26673793125002,35,0.16056525000000477,35,0.14450872499999434
22544,79.32025968125002,40,0.05352175000000159,53,0.22078333333331557
22545,79.42730318125001,35,0.10704349999998897,39,0.170609749999997
22546,79.54104301458334,42,0.1137398333333266,53,0.2274796666666674
22547,79.59791293125001,23,0.056869916666670406,35,0.170609749999997
22548,79.76852268125,59,0.170609749999997,73,1.2752389999999991
22549,79.92908793125001,35,0.16056525000000477,39,0.16056524999999056
22550,80.08965318125,37,0.16056524999999056,39,0.16056525000000477
22551,80.25021843125,35,0.16056525000000477,39,0.16056525000000477
22552,80.41078368125001,61,0.16056525000000477,68,0.6329779999999943
22553,80.56902818125,35,0.15824449999999501,40,0.15824450000000923
22554,80.72727268125001,37,0.15824450000000923,40,0.15824449999999501
22555,80.88551718125001,35,0.15824449999999501,41,0.15824449999999501
22556,81.04376168125,63,0.15824449999999501,73,1.2622590000000145
22557,81.20200618125001,35,0.15824450000000923,40,0.15824449999999501
22558,81.36025068125001,37,0.15824449999999501,41,0.15824449999999501
22559,81.51849518125,35,0.15824449999999501,41,0.15824450000000923
22560,81.67673968125001,64,0.15824450000000923,75,0.4679212500000034
22561,81.83271343125001,35,0.15597375000000113,44,0.15597375000000113
22562,81.98868718125001,37,0.15597375000000113,44,0.15597375000000113
22563,82.14466093125002,66,0.15597375000000113,73,0.16135975000000258
22564,82.30602068125002,68,0.16135975000000258,78,1.2659560000000027
22565,82.46426518125001,35,0.15824449999999501,42,0.15824450000000923
22566,82.62250968125002,37,0.15824450000000923,42,0.15824449999999501
22567,82.78075418125002,35,0.15824449999999501,42,0.15824449999999501
22568,82.93899868125001,61,0.15824449999999501,73,0.6329780000000085
22569,83.09724318125002,35,0.15824450000000923,46,0.15824449999999501
22570,83.25548768125002,37,0.15824449999999501,46,0.15824449999999501
22571,83.41373218125001,35,0.15824449999999501,46,0.15824450000000923
22572,83.57197668125002,63,0.15824450000000923,78,0.6329779999999943
22573,83.73022118125002,35,0.15824449999999501,46,0.15824450000000923
22574,83.88846568125003,37,0.15824450000000923,46,0.15824449999999501
22575,84.04671018125002,35,0.15824449999999501,46,0.15824449999999501
22576,84.20495468125002,64,0.15824449999999501,79,0.47865124999999864
22577,84.36319918125002,35,0.15824450000000923,49,0.15824449999999501
22578,84.52144368125002,37,0.15824449999999501,49,0.1621622499999944
22579,84.68360593125001,66,0.1621622499999944,77,0.1621622500000086
22580,84.84576818125002,68,0.1621622500000086,81,1.284645999999995
22581,85.00793043125002,31,0.1621622499999944,51,0.1621622500000086
22582,85.17009268125003,32,0.1621622500000086,51,0.1621622499999944
22583,85.33225493125002,39,0.1621622499999944,51,0.1621622499999944
22584,85.49441718125001,69,0.1621622499999944,78,0.9494439999999997
22585,85.65341643125001,43,0.1589992499999937,53,0.15899925000000792
22586,85.81241568125002,44,0.15899925000000792,53,0.1589992499999937
22587,85.97141493125001,51,0.1589992499999937,53,0.15899925000000792
22588,86.13041418125002,64,0.15899925000000792,74,1.2816054999999977
22589,86.28713768125002,31,0.15672349999999824,52,0.15672349999999824
22590,86.44386118125001,68,0.15672349999999824,77,0.32271950000000516
22591,86.60522093125002,40,0.16135975000000258,53,0.16135975000000258
22592,86.76658068125002,67,0.16135975000000258,75,0.32271949999999094
22593,86.92794043125001,43,0.16135974999998837,55,0.16135975000000258
22594,87.08930018125001,68,0.16135975000000258,75,0.32271950000000516
22595,87.25065993125001,52,0.16135975000000258,56,0.16135975000000258
22596,87.41201968125002,71,0.16135975000000258,85,1.2784169999999904
22597,87.57337943125002,34,0.16135975000000258,55,0.16135975000000258
22598,87.73473918125002,35,0.16135975000000258,55,0.16135974999998837
22599,87.89609893125001,42,0.16135974999998837,55,0.16135975000000258
22600,88.05745868125001,73,0.16135975000000258,84,0.9405439999999885
22601,88.21570318125,46,0.15824449999999501,57,0.15824450000000923
22602,88.37394768125002,47,0.15824450000000923,57,0.15824449999999501
22603,88.53219218125001,54,0.15824449999999501,57,0.15824449999999501
22604,88.69043668125,68,0.15824449999999501,81,0.6240549999999985
22605,88.84421968125001,36,0.15378300000000422,56,0.15378299999999
22606,88.99800268125,71,0.15378299999999,80,0.31648900000000424
22607,89.15624718125,44,0.15824449999999501,57,0.15824450000000923
22608,89.31449168125,69,0.15824450000000923,84,0.6329779999999943
22609,89.47273618125,48,0.15824449999999501,58,0.15824449999999501
22610,89.63098068125,49,0.15824449999999501,59,0.15824450000000923
22611,89.78922518125,68,0.15824450000000923,78,0.15824449999999501
22612,89.94746968125,71,0.15824449999999501,86,0.6315045000000055
22613,90.10344343125,25,0.15597375000000113,52,0.15597375000000113
22614,90.25941718125,69,0.15597375000000113,72,0.3195570000000032
22615,90.41919568125,37,0.1597785000000016,52,0.1597785000000016
22616,90.57897418125,68,0.1597785000000016,72,0.6345774999999918
22617,90.73569768125,25,0.15672349999999824,52,0.15672349999999824
22618,90.89242118125,65,0.15672349999999824,72,0.3211304999999953
22619,91.05298643125,35,0.16056525000000477,52,0.16056524999999056
22620,91.21355168125,68,0.16056524999999056,81,0.6315045000000055
22621,91.36952543125,25,0.15597375000000113,52,0.15597375000000113
22622,91.52549918125,66,0.15597375000000113,71,0.3195570000000032
22623,91.68527768125,37,0.1597785000000016,52,0.1597785000000016
22624,91.84505618125,61,0.1597785000000016,72,0.6238950000000045
22625,92.00102993125,28,0.15597375000000113,52,0.15597375000000113
22626,92.15700368125,64,0.15597375000000113,67,0.31194750000000226
22627,92.31297743125,37,0.15597375000000113,52,0.15597375000000113
22628,92.46895118125,61,0.15597375000000113,80,0.6330779999999976
22629,92.62492493125,28,0.15597375000000113,52,0.15597375000000113
22630,92.78089868125001,59,0.15597375000000113,73,0.3211304999999953
22631,92.94146393125001,40,0.16056525000000477,52,0.16056524999999056
22632,93.10202918125,52,0.16056524999999056,73,0.6422610000000049
22633,93.26259443125001,28,0.16056525000000477,52,0.16056525000000477
22634,93.42315968125001,57,0.16056525000000477,74,0.3211304999999953
22635,93.58372493125,40,0.16056524999999056,52,0.16056525000000477
22636,93.74429018125001,54,0.16056525000000477,80,0.6376194999999996
22637,93.90485543125001,30,0.16056525000000477,47,0.16056524999999056
22638,94.06542068125,35,0.16056524999999056,47,0.15824449999999501
22639,94.22366518125,40,0.15824449999999501,47,0.15824450000000923
22640,94.38190968125001,56,0.15824450000000923,75,0.6255124999999992
22641,94.53642143125,27,0.1545117499999975,47,0.1545117499999975
22642,94.69093318125,57,0.1545117499999975,70,0.31648900000000424
22643,94.84917768125,35,0.15824449999999501,47,0.15824450000000923
22644,95.00742218125,61,0.15824450000000923,77,0.6284365000000065
22645,95.16339593125001,23,0.15597375000000113,47,0.15597375000000113
22646,95.31936968125001,60,0.15597375000000113,68,0.31648900000000424
22647,95.47761418125,35,0.15824449999999501,47,0.15824450000000923
22648,95.63585868125001,59,0.15824450000000923,77,0.21408700000000636
22649,95.79642393125002,28,0.16056525000000477,47,0.16056524999999056
22650,95.84994568125002,52,0.05352175000000159,70,0.4281739999999985
22651,95.95698918125001,33,0.10704349999998897,47,0.16056525000000477
22652,96.06403268125001,57,0.10704350000000318,70,0.21408700000000636
22653,96.11755443125001,40,0.05352175000000159,47,0.16056525000000477
22654,96.27811968125002,54,0.16056525000000477,80,0.6316249999999997
22655,96.43868493125001,28,0.16056524999999056,47,0.16056525000000477
22656,96.59925018125001,56,0.16056525000000477,68,0.15524725000000217
22657,96.75449743125002,54,0.15524725000000217,63,0.15524725000000217
22658,96.90974468125002,53,0.15524725000000217,73,0.6487570000000034
22659,97.06952318125002,54,0.1597785000000016,68,0.1597785000000016
22660,97.22930168125002,56,0.1597785000000016,73,0.16459999999999297
22661,97.39390168125001,57,0.16459999999999297,69,0.16460000000000719
22662,97.55850168125002,58,0.16460000000000719,83,0.42300800000001004
22663,97.71674618125002,23,0.15824449999999501,47,0.15824450000000923
22664,97.76949434791669,59,0.05274816666667448,79,0.21201533333334055
22665,97.87499068125003,28,0.10549633333333475,46,0.1597785000000016
22666,97.98150968125003,68,0.1065190000000058,77,0.2130379999999974
22667,98.03476918125003,35,0.053259499999995796,46,0.1597785000000016
22668,98.19454768125003,66,0.1597785000000016,82,0.4260759999999948
22669,98.35432618125003,28,0.1597785000000016,45,0.1597785000000016
22670,98.40758568125003,64,0.053259499999995796,73,0.2130379999999974
22671,98.51410468125003,33,0.1065190000000058,44,0.1597784999999874
22672,98.62062368125002,57,0.10651899999999159,80,0.2130379999999974
22673,98.67388318125002,40,0.053259499999995796,44,0.1597785000000016
22674,98.83366168125002,54,0.1597785000000016,82,1.2463055000000054
22675,98.99826168125001,30,0.16459999999999297,42,0.16460000000000719
22676,99.16286168125002,35,0.16460000000000719,42,0.16459999999999297
22677,99.32746168125001,40,0.16459999999999297,41,0.16460000000000719
22678,99.49206168125002,51,0.16460000000000719,61,0.33594600000000696
22679,99.66003468125002,30,0.16797300000000348,41,0.16797300000000348
22680,99.82800768125003,35,0.16797300000000348,40,0.16797299999998927
22681,99.99598068125002,39,0.16797299999998927,40,0.16797300000000348
22682,100.07996718125003,52,0.08398650000000885,73,0.08398649999999463
22683,100.16395368125002,52,0.08398649999999463,85,0.18433166666666523
22684,100.34828534791669,49,0.18433166666666523,73,0.09216583333333972
22685,100.52703134791669,49,0.17874600000000385,73,0.08658016666666413
22686,100.70019168125003,49,0.17316033333334246,75,0.16881899999999916
22687,100.86901068125003,47,0.16881899999999916,71,0.08440950000000669
22688,101.03406534791671,57,0.165054666666677,74,0.08064516666665611
22689,101.19535568125004,57,0.16129033333332643,75,0.16285558333332517
22690,101.35821126458336,56,0.16285558333332517,74,0.08124800000000221
22691,101.5175780979167,61,0.1593668333333369,74,0.07811883333333469
22692,101.67381576458337,61,0.15623766666666938,78,0.15973166666667282
22693,101.83354743125004,59,0.15973166666667282,73,0.0798658333333293
22694,101.99186926458337,69,0.15832183333333205,73,0.07845600000000275
22695,102.14878126458336,69,0.15691199999999128,78,0.15910900000000083
22696,102.30789026458336,68,0.15910900000000083,73,0.07955450000000042
22697,102.46699926458336,61,0.15910900000000083,73,0.07825333333333617
22698,102.62350593125004,61,0.15650666666667234,75,0.15650666666665813
22699,102.7800125979167,59,0.15650666666665813,72,0.07825333333333617
22700,102.93651926458337,57,0.15650666666667234,74,0.07825333333333617
22701,103.09302593125003,57,0.15650666666665813,75,0.15650666666667234
22702,103.2495325979167,56,0.15650666666667234,71,0.07825333333333617
22703,103.40603926458337,49,0.15650666666667234,74,0.07825333333332196
22704,103.56254593125003,49,0.15650666666665813,78,0.15650666666667234
22705,103.7190525979167,47,0.15650666666667234,74,0.07825333333333617
22706,103.87648876458337,45,0.15743616666667037,74,0.0791828333333342
22707,104.03485443125004,45,0.1583656666666684,78,0.1631186666666622
22708,104.1979730979167,44,0.1631186666666622,67,0.0815593333333311
22709,104.36109176458338,48,0.1631186666666764,59,0.07804566666666801
22710,104.51718309791671,48,0.15609133333333602,62,0.15533966666666288
22711,104.67252276458338,47,0.15533966666666288,58,0.07766983333333144
22712,104.82786243125005,57,0.1553396666666771,52,0.07766983333333144
22713,104.98320209791672,57,0.15533966666666288,55,0.15533966666666288
22714,105.13854176458338,56,0.15533966666666288,52,0.07766983333333144
22715,105.29388143125004,60,0.15533966666666288,52,0.07766983333333144
22716,105.44922109791672,60,0.1553396666666771,55,0.15533966666666288
22717,105.60456076458338,59,0.15533966666666288,51,0.07766983333333144
22718,105.75990043125005,69,0.15533966666666288,46,0.07766983333333144
22719,105.91524009791671,69,0.15533966666666288,49,0.1553396666666771
22720,106.07057976458339,68,0.1553396666666771,46,0.07766983333333144
22721,106.22591943125005,60,0.15533966666666288,55,0.07766983333333144
22722,106.38125909791671,60,0.15533966666666288,59,0.15533966666666288
22723,106.53659876458337,59,0.15533966666666288,56,0.07766983333334565
22724,106.69384209791671,57,0.15724333333334073,56,0.07957350000000929
22725,106.85298909791672,57,0.15914700000000437,59,0.16148566666666397
22726,107.01447476458338,56,0.16148566666666397,55,0.08074283333333199
22727,107.17596043125005,48,0.16148566666666397,54,0.07766983333333144
22728,107.33130009791671,48,0.15533966666666288,59,0.15992333333333875
22729,107.49122343125005,47,0.15992333333333875,56,0.07996166666666227
22730,107.65650926458338,45,0.16528583333332847,62,0.0853241666666662
22731,107.82715759791671,45,0.1706483333333324,59,0.16148566666666397
22732,107.98864326458337,46,0.16148566666666397,49,0.08074283333333199
22733,108.14782976458338,51,0.15918650000000412,56,0.07844366666665792
22734,108.30471709791671,51,0.15688733333333005,59,0.15764166666666313
22735,108.46235876458337,50,0.15764166666666313,48,0.07882083333333867
22736,108.61853109791672,56,0.15617233333334468,56,0.0773514999999918
22737,108.77323409791671,56,0.15470299999999781,59,0.15470299999999781
22738,108.92793709791671,55,0.15470299999999781,52,0.0773514999999918
22739,109.08264009791671,63,0.15470299999999781,56,0.07735150000000601
22740,109.2373430979167,63,0.15470299999999781,59,0.15470299999999781
22741,109.3920460979167,62,0.15470299999999781,51,0.07735150000000601
22742,109.54858043125004,68,0.15653433333334021,55,0.0791828333333342
22743,109.70694609791671,68,0.1583656666666684,59,0.1583656666666684
22744,109.86531176458338,53,0.1583656666666684,63,0.1583656666666684
22745,110.02367743125005,59,0.1583656666666684,80,0.15779466666666053
22746,110.18147209791671,56,0.15779466666666053,74,0.15647083333333
22747,110.33794293125004,62,0.15647083333333,84,0.15535049999999728
22748,110.49329343125004,59,0.15535049999999728,79,0.15425650000000246
22749,110.64754993125004,65,0.15425650000000246,89,0.15261991666666574
22750,110.8001698479167,62,0.15261991666666574,85,0.1538893333333391
22751,110.95405918125005,68,0.1538893333333391,92,0.1551625833333361
22752,111.10922176458338,65,0.1551625833333361,86,0.15628408333333255
22753,111.26550584791671,71,0.15628408333333255,94,0.164405583333334
22754,111.42991143125005,74,0.164405583333334,90,0.16816599999999937
22755,111.59807743125005,75,0.16816599999999937,101,0.16816599999999937
22756,111.76624343125005,51,0.16816599999999937,77,0.1632846666666694
22757,111.92952809791672,51,0.1632846666666694,77,0.1603441666666754
22758,112.08987226458339,51,0.1603441666666754,77,0.16228499999999713
22759,112.25215726458339,51,0.16228499999999713,75,0.15764166666666313
22760,112.40979893125005,51,0.15764166666666313,75,0.15992333333333875
22761,112.56972226458339,51,0.15992333333333875,80,0.16148566666666397
22762,112.73120793125005,51,0.16148566666666397,77,0.15688733333333005
22763,112.88809526458338,51,0.15688733333333005,77,0.15992333333333875
22764,113.04801859791672,51,0.15992333333333875,81,0.15840333333333945
22765,113.20642193125006,51,0.15840333333333945,79,0.1518603333333317
22766,113.3582822645834,51,0.1518603333333317,79,0.15641908333333276
22767,113.51470134791673,51,0.15641908333333276,80,0.0815395000000052
22768,113.67550176458339,51,0.16080041666666034,81,0.07698233333333349
22769,113.82946643125005,51,0.15396466666666697,82,0.07996166666666227
22770,113.9893897645834,51,0.15992333333333875,83,0.07771216666667158
22771,114.14481409791672,52,0.15542433333332895,84,0.07557433333333563
22772,114.2959627645834,52,0.15114866666667126,85,0.07957983333332663
22773,114.45512243125006,52,0.15915966666666748,86,0.08074283333333199
22774,114.61660809791672,52,0.16148566666666397,88,0.07627766666666957
22775,114.76916343125006,52,0.15255533333333915,90,0.07882083333333867
22776,114.92680509791673,52,0.15764166666666313,91,0.07882083333333867
22777,115.08444676458339,52,0.15764166666666313,92,0.07498391666666748
22778,115.23483443125005,52,0.15038766666665992,93,0.07584120833334396
22779,115.38704097291674,52,0.15220654166668623,102,0.08720683333334023
22780,115.55859105625007,56,0.17155008333332944,95,0.16295933333333323
22781,115.7215503895834,56,0.16295933333333323,95,0.1683125833333321
22782,115.88986297291673,56,0.1683125833333321,101,0.1636393333333359
22783,116.05350230625007,54,0.1636393333333359,95,0.16482099999998923
22784,116.21832330625006,52,0.16482099999998923,95,0.16600266666667096
22785,116.38432597291673,21,0.16600266666667096,96,0.17636741666666467
22786,116.56069338958339,56,0.17636741666666467,95,0.1643926666666573
22787,116.72508605625005,56,0.1643926666666573,95,0.16930341666666493
22788,116.89438947291671,56,0.16930341666666493,101,0.16600266666667096
22789,117.06039213958339,54,0.16600266666667096,95,0.16763233333333005
22790,117.22802447291672,52,0.16763233333333005,95,0.16926200000000335
22791,117.39728647291672,23,0.16926200000000335,96,0.17529041666666956
22792,117.57257688958339,56,0.17529041666666956,95,0.1643926666666573
22793,117.73696955625005,56,0.1643926666666573,95,0.1699419166666729
22794,117.90691147291672,56,0.1699419166666729,101,0.1652210000000025
22795,118.07213247291672,54,0.1652210000000025,95,0.1652210000000025
22796,118.23735347291672,52,0.1652210000000025,95,0.1652209999999883
22797,118.40257447291671,25,0.1652209999999883,96,0.1817356666666683
22798,118.58431013958338,56,0.1817356666666683,95,0.1728664999999836
22799,118.75717663958336,56,0.1728664999999836,95,0.17787833333333936
22800,118.9350549729167,56,0.17787833333333936,101,0.18442362500000797
22801,119.11947859791671,54,0.18442362500000797,95,0.1899944166666785
22802,119.30947301458339,52,0.1899944166666785,95,0.1907669999999939
22803,119.50024001458338,42,0.1907669999999939,101,2.0339000000000027
22804,121.53414001458339,44,2.0339000000000027,95,2.1428559999999948
22805,123.67699601458338,25,2.1428559999999948,52,0.12520874999999876
22806,123.80220476458338,32,0.12520874999999876,29,0.12520874999999876
22807,123.92741351458338,40,0.12520874999999876,26,0.12500766666666152
22808,124.05242118125004,20,0.12500766666666152,33,0.12460550000000126
22809,124.17702668125004,25,0.12460550000000126,29,0.12460550000000126
22810,124.30163218125004,32,0.12460550000000126,29,0.12421399999999494
22811,124.42584618125004,40,0.12421399999999494,27,0.12401825000000599
22812,124.54986443125004,20,0.12401825000000599,35,0.12401824999999178
22813,124.67388268125003,25,0.12401824999999178,33,0.12345675000000256
22814,124.79733943125004,32,0.12345675000000256,30,0.12311941666666826
22815,124.9204588479167,40,0.12311941666666826,29,0.12261624999999299
22816,125.0430750979167,20,0.12261624999999299,35,0.12228308333332905
22817,125.16535818125003,25,0.12228308333332905,34,0.12178666666666516
22818,125.2871448479167,32,0.12178666666666516,35,0.12145749999999111
22819,125.40860234791668,40,0.12145749999999111,31,0.12096775000000548
22820,125.52957009791669,20,0.12096775000000548,39,0.12048199999999554
22821,125.65005209791669,25,0.12048199999999554,38,0.1206370000000021
22822,125.77068909791669,32,0.1206370000000021,35,0.12079933333332349
22823,125.89148843125001,40,0.12079933333332349,34,0.12112399999999468
22824,126.01261243125,20,0.12112399999999468,39,0.12145133333334002
22825,126.13406376458335,25,0.12145133333334002,35,0.12161500000000558
22826,126.25567876458335,32,0.12161500000000558,34,0.12211000000000638
22827,126.37778876458336,40,0.12211000000000638,30,0.12227633333333188
22828,126.50006509791669,20,0.12227633333333188,36,0.12260899999999708
22829,126.62267409791669,25,0.12260899999999708,33,0.12294450000000268
22830,126.74561859791669,32,0.12294450000000268,30,0.12311224999999126
22831,126.86873084791668,40,0.12311224999999126,29,0.12311225000000547
22832,126.99184309791669,20,0.12311225000000547,35,0.12311225000000547
22833,127.11495534791669,25,0.12311225000000547,29,0.12401825000000599
22834,127.2389735979167,32,0.12401825000000599,29,0.12401824999999178
22835,127.36299184791669,40,0.12401824999999178,28,0.12401825000000599
22836,127.4870100979167,32,0.12401825000000599,33,0.12401824999999178
22837,127.61102834791669,52,0.12401824999999178,54,0.12460550000000126
22838,127.73563384791669,49,0.12460550000000126,51,0.12460550000000126
22839,127.86023934791669,37,0.12460550000000126,30,0.12460550000000126
22840,127.98484484791669,51,0.12460550000000126,51,0.12460550000000126
22841,128.1094503479167,52,0.12460550000000126,54,0.12284999999999968
22842,128.2323003479167,49,0.12284999999999968,51,0.12284999999999968
22843,128.3551503479167,37,0.12284999999999968,31,0.12460550000000126
22844,128.4797558479167,32,0.12460550000000126,31,0.12460550000000126
22845,128.6043613479167,52,0.12460550000000126,54,0.12227924999999118
22846,128.72664059791668,49,0.12227924999999118,51,0.1222792500000196
22847,128.8489198479167,37,0.1222792500000196,31,0.12460550000000126
22848,128.9735253479167,51,0.12460550000000126,51,0.12460550000000126
22849,129.0981308479167,52,0.12460550000000126,54,0.12284999999999968
22850,129.2209808479167,49,0.12284999999999968,51,0.12284999999999968
22851,129.3438308479167,37,0.12284999999999968,31,0.12460550000000126
22852,129.4684363479167,32,0.12460550000000126,31,0.12460550000000126
22853,129.5930418479167,52,0.12460550000000126,54,0.12284999999999968
22854,129.7158918479167,49,0.12284999999999968,51,0.12284999999999968
22855,129.8387418479167,37,0.12284999999999968,31,0.12460550000000126
22856,129.9633473479167,51,0.12460550000000126,61,0.12460550000000126
22857,130.0879528479167,52,0.12460550000000126,66,0.12227924999999118
22858,130.2102320979167,61,0.12227924999999118,64,0.1222792500000196
22859,130.33251134791672,37,0.1222792500000196,34,0.12828200000001289
22860,130.46079334791673,32,0.12828200000001289,34,0.12828199999998446
22861,130.58907534791672,60,0.12828199999998446,64,0.12284999999999968
22862,130.71192534791672,51,0.12284999999999968,59,0.12284999999999968
22863,130.83477534791672,42,0.12284999999999968,30,0.12460550000000126
22864,130.95938084791672,52,0.12460550000000126,51,0.12460550000000126
22865,131.08398634791672,54,0.12460550000000126,54,0.12284999999999968
22866,131.20683634791672,51,0.12284999999999968,51,0.12284999999999968
22867,131.32968634791672,36,0.12284999999999968,31,0.12460550000000126
22868,131.45429184791672,33,0.12460550000000126,31,0.12460550000000126
22869,131.57889734791672,57,0.12460550000000126,57,0.1234262499999943
22870,131.70232359791672,51,0.1234262499999943,51,0.1234262499999943
22871,131.8257498479167,36,0.1234262499999943,30,0.12460550000000126
22872,131.9503553479167,52,0.12460550000000126,51,0.12460550000000126
22873,132.0749608479167,54,0.12460550000000126,54,0.12284999999999968
22874,132.1978108479167,51,0.12284999999999968,51,0.12284999999999968
22875,132.3206608479167,42,0.12284999999999968,31,0.12460550000000126
22876,132.44526634791671,33,0.12460550000000126,31,0.12460550000000126
22877,132.56987184791672,57,0.12460550000000126,57,0.1234262499999943
22878,132.6932980979167,51,0.1234262499999943,51,0.1234262499999943
22879,132.8167243479167,36,0.1234262499999943,30,0.12460550000000126
22880,132.9413298479167,52,0.12460550000000126,51,0.12460550000000126
22881,133.0659353479167,54,0.12460550000000126,54,0.12284999999999968
22882,133.1887853479167,51,0.12284999999999968,51,0.12284999999999968
22883,133.3116353479167,36,0.12284999999999968,31,0.12460550000000126
22884,133.4362408479167,33,0.12460550000000126,31,0.12460550000000126
22885,133.5608463479167,57,0.12460550000000126,60,0.1234262499999943
22886,133.6842725979167,51,0.1234262499999943,53,0.1234262499999943
22887,133.8076988479167,42,0.1234262499999943,34,0.12460550000000126
22888,133.9323043479167,52,0.12460550000000126,65,0.12460550000000126
22889,134.0569098479167,54,0.12460550000000126,71,0.12284999999999968
22890,134.1797598479167,63,0.12284999999999968,64,0.12284999999999968
22891,134.3026098479167,36,0.12284999999999968,37,0.12764874999999165
22892,134.4302585979167,33,0.12764874999999165,38,0.12764875000002007
22893,134.5579073479167,63,0.12764875000002007,61,0.2468524999999886
22894,134.6813335979167,52,0.1234262499999943,57,0.1234262499999943
22895,134.8047598479167,36,0.1234262499999943,30,0.12460550000000126
22896,134.9293653479167,54,0.12460550000000126,49,0.12460550000000126
22897,135.0539708479167,61,0.12460550000000126,52,0.24569999999999936
22898,135.1768208479167,52,0.12284999999999968,49,0.12284999999999968
22899,135.2996708479167,37,0.12284999999999968,31,0.12764874999999165
22900,135.4273195979167,32,0.12764874999999165,31,0.12764875000002007
22901,135.5549683479167,64,0.12764875000002007,82,0.12460550000000126
22902,135.6795738479167,63,0.12460550000000126,75,0.12460550000000126
22903,135.80417934791672,46,0.12460550000000126,50,0.12641149999998902
22904,135.9305908479167,61,0.12641149999998902,72,0.12641150000001744
22905,136.05700234791672,60,0.12641150000001744,78,0.12284999999999968
22906,136.17985234791672,63,0.12284999999999968,68,0.12284999999999968
22907,136.30270234791672,48,0.12284999999999968,58,0.12764874999999165
22908,136.4303510979167,32,0.12764874999999165,51,0.12764875000002007
22909,136.55799984791673,57,0.12764875000002007,55,0.12460550000000126
22910,136.68260534791673,56,0.12460550000000126,50,0.12460550000000126
22911,136.80721084791674,42,0.12460550000000126,29,0.12764874999999165
22912,136.93485959791673,54,0.12764874999999165,49,0.12764875000002007
22913,137.06250834791675,52,0.12764875000002007,52,0.12284999999999968
22914,137.18535834791675,56,0.12284999999999968,49,0.12284999999999968
22915,137.30820834791675,40,0.12284999999999968,29,0.12764874999999165
22916,137.43585709791674,25,0.12764874999999165,29,0.12764875000002007
22917,137.56350584791676,64,0.12764875000002007,82,0.12460550000000126
22918,137.68811134791676,63,0.12460550000000126,75,0.12460550000000126
22919,137.81271684791676,46,0.12460550000000126,50,0.12764874999999165
22920,137.94036559791675,61,0.12764874999999165,72,0.12764875000002007
22921,138.06801434791677,60,0.12764875000002007,78,0.12284999999999968
22922,138.19086434791677,63,0.12284999999999968,68,0.12284999999999968
22923,138.31371434791677,48,0.12284999999999968,58,0.12764874999999165
22924,138.44136309791676,32,0.12764874999999165,51,0.12764875000002007
22925,138.56901184791678,57,0.12764875000002007,55,0.12460550000000126
22926,138.69361734791678,56,0.12460550000000126,50,0.12460550000000126
22927,138.8182228479168,42,0.12460550000000126,29,0.12764874999999165
22928,138.94587159791678,54,0.12764874999999165,49,0.12764875000002007
22929,139.0735203479168,53,0.12764875000002007,52,0.12284999999999968
22930,139.1963703479168,56,0.12284999999999968,49,0.12284999999999968
22931,139.3192203479168,40,0.12284999999999968,29,0.15000000000000568
22932,139.4692203479168,25,0.15000000000000568,29,0.15000000000000568
22933,139.6192203479168,68,0.15000000000000568,89,0.1298702500000104
22934,139.74909059791682,67,0.1298702500000104,83,0.12987024999998198
22935,139.8789608479168,28,0.12987024999998198,50,0.13333324999999263
22936,140.0122940979168,64,0.13333324999999263,75,0.13333325000002105
22937,140.14562734791681,63,0.13333325000002105,80,0.12765949999999293
22938,140.2732868479168,61,0.12765949999999293,75,0.12765949999999293
22939,140.4009463479168,28,0.12765949999999293,49,0.13043475000000626
22940,140.5313810979168,37,0.13043475000000626,49,0.13043475000000626
22941,140.6618158479168,61,0.13043475000000626,80,0.12605049999999096
22942,140.7878663479168,59,0.12605049999999096,73,0.12605050000001938
22943,140.91391684791682,28,0.12605050000001938,42,0.12875525000001176
22944,141.04267209791684,58,0.12875525000001176,68,0.12875524999998333
22945,141.17142734791682,57,0.12875524999998333,69,0.12284999999999968
22946,141.29427734791682,51,0.12284999999999968,62,0.12284999999999968
22947,141.41712734791682,30,0.12284999999999968,46,0.12764874999999165
22948,141.5447760979168,39,0.12764874999999165,44,0.12764875000002007
22949,141.67242484791683,59,0.12764875000002007,68,0.12460550000000126
22950,141.79703034791683,58,0.12460550000000126,62,0.12460550000000126
22951,141.92163584791683,32,0.12460550000000126,42,0.12579675000000634
22952,142.04743259791684,56,0.12579675000000634,61,0.12579675000000634
22953,142.17322934791684,54,0.12579675000000634,63,0.12284999999999968
22954,142.29607934791684,46,0.12284999999999968,52,0.12284999999999968
22955,142.41892934791684,34,0.12284999999999968,40,0.12764874999999165
22956,142.54657809791684,42,0.12764874999999165,39,0.12764875000002007
22957,142.67422684791686,54,0.12764875000002007,67,0.12396699999999328
22958,142.79819384791685,45,0.12396699999999328,59,0.12396699999999328
22959,142.92216084791684,33,0.12396699999999328,41,0.12711874999999395
22960,143.04927959791684,42,0.12711874999999395,42,0.12711874999999395
22961,143.17639834791683,54,0.12711874999999395,62,0.12448125000000232
22962,143.30087959791683,44,0.12448125000000232,56,0.12448125000000232
22963,143.42536084791683,32,0.12448125000000232,42,0.1428572499999916
22964,143.56821809791683,42,0.1428572499999916,41,0.14285725000002003
22965,143.71107534791685,52,0.14285725000002003,68,0.12552299999998695
22966,143.83659834791683,49,0.12552299999998695,59,0.12552300000001537
22967,143.96212134791685,37,0.12552300000001537,47,0.12931025000000318
22968,144.09143159791685,51,0.12931025000000318,67,0.12931025000000318
22969,144.22074184791686,52,0.12931025000000318,68,0.12605049999999096
22970,144.34679234791685,49,0.12605049999999096,60,0.12605050000001938
22971,144.47284284791687,37,0.12605050000001938,48,0.12875525000001176
22972,144.60159809791688,20,0.12875525000001176,48,0.12875524999998333
22973,144.73035334791686,52,0.12875524999998333,68,0.12605049999999096
22974,144.85640384791685,49,0.12605049999999096,60,0.12605050000001938
22975,144.98245434791687,37,0.12605050000001938,48,0.12931025000000318
22976,145.11176459791687,51,0.12931025000000318,68,0.12931025000000318
22977,145.24107484791688,52,0.12931025000000318,68,0.12552299999998695
22978,145.36659784791686,49,0.12552299999998695,60,0.12552300000001537
22979,145.49212084791688,37,0.12552300000001537,48,0.1282052500000077
22980,145.6203260979169,20,0.1282052500000077,48,0.1282052499999793
22981,145.74853134791687,52,0.1282052499999793,68,0.12345675000000256
22982,145.87198809791687,49,0.12345675000000256,67,0.12345675000000256
22983,145.99544484791687,37,0.12345675000000256,48,0.12552299999998695
22984,146.12096784791686,51,0.12552299999998695,73,0.12552300000001537
22985,146.24649084791687,52,0.12552300000001537,84,0.12230628124999043
22986,146.36879712916686,61,0.12230628124999043,76,0.12227924999999118
22987,146.49107637916686,40,0.12227924999999118,50,0.12823197708334533
22988,146.6193083562502,28,0.12823197708334533,50,0.12828200000001289
22989,146.7475903562502,60,0.12828200000001289,76,0.12285930833331804
22990,146.87044966458353,51,0.12285930833331804,67,0.12284999999999968
22991,146.99329966458353,42,0.12284999999999968,47,0.125
22992,147.11829966458353,52,0.125,67,0.125
22993,147.24329966458353,54,0.125,68,0.12286791666667796
22994,147.3661675812502,51,0.12286791666667796,60,0.12284999999999968
22995,147.4890175812502,42,0.12284999999999968,48,0.12459087083334452
22996,147.61360845208355,27,0.12459087083334452,48,0.12460550000000126
22997,147.73821395208356,57,0.12460550000000126,71,0.12343607708331206
22998,147.86165002916687,51,0.12343607708331206,59,0.12342625000002272
22999,147.9850762791669,42,0.12342625000002272,47,0.12459567291665508
23000,148.10967195208354,52,0.12459567291665508,67,0.12460550000000126
23001,148.23427745208355,54,0.12460550000000126,68,0.12286462916665641
23002,148.3571420812502,51,0.12286462916665641,60,0.12284999999999968
23003,148.4799920812502,42,0.12284999999999968,48,0.12459087083334452
23004,148.60458295208355,27,0.12459087083334452,48,0.12460550000000126
23005,148.72918845208355,57,0.12460550000000126,71,0.12343607708331206
23006,148.85262452916686,51,0.12343607708331206,59,0.12342625000002272
23007,148.97605077916688,42,0.12342625000002272,47,0.12459567291665508
23008,149.10064645208354,52,0.12459567291665508,67,0.12460550000000126
23009,149.22525195208354,54,0.12460550000000126,68,0.12286462916665641
23010,149.3481165812502,51,0.12286462916665641,60,0.12284999999999968
23011,149.4709665812502,42,0.12284999999999968,48,0.12459087083334452
23012,149.59555745208354,27,0.12459087083334452,48,0.12460550000000126
23013,149.72016295208354,57,0.12460550000000126,74,0.12343607708331206
23014,149.84359902916685,51,0.12343607708331206,63,0.12342625000002272
23015,149.96702527916688,42,0.12342625000002272,50,0.12459567291665508
23016,150.09162095208353,52,0.12459567291665508,82,0.12460550000000126
23017,150.21622645208353,54,0.12460550000000126,88,0.12286462916665641
23018,150.3390910812502,63,0.12286462916665641,78,0.12284999999999968
23019,150.4619410812502,42,0.12284999999999968,54,0.12760876041667757
23020,150.58954984166687,27,0.12760876041667757,55,0.12764874999999165
23021,150.71719859166686,63,0.12764874999999165,73,0.12346143749999783
23022,150.84066002916686,52,0.12346143749999783,72,0.12342625000002272
23023,150.96408627916688,44,0.12342625000002272,47,0.12459567291665508
23024,151.08868195208353,54,0.12459567291665508,64,0.12460550000000126
23025,151.21328745208353,56,0.12460550000000126,69,0.12286462916665641
23026,151.3361520812502,61,0.12286462916665641,69,0.12284999999999968
23027,151.4590020812502,44,0.12284999999999968,48,0.12760876041667757
23028,151.58661084166687,28,0.12760876041667757,48,0.12764874999999165
23029,151.71425959166686,64,0.12764874999999165,85,0.12460550000000126
23030,151.83886509166686,63,0.12460550000000126,84,0.12460550000000126
23031,151.96347059166686,46,0.12460550000000126,55,0.12641149999998902
23032,152.08988209166685,61,0.12641149999998902,80,0.12641150000001744
23033,152.21629359166687,60,0.12641150000001744,86,0.12284999999999968
23034,152.33914359166687,63,0.12284999999999968,80,0.12284999999999968
23035,152.46199359166687,48,0.12284999999999968,57,0.12764874999999165
23036,152.58964234166686,32,0.12764874999999165,57,0.12764875000002007
23037,152.71729109166688,57,0.12764875000002007,67,0.12460550000000126
23038,152.84189659166688,56,0.12460550000000126,66,0.12460550000000126
23039,152.96650209166688,42,0.12460550000000126,44,0.12764874999999165
23040,153.09415084166687,54,0.12764874999999165,64,0.12764875000002007
23041,153.2217995916669,53,0.12764875000002007,69,0.12284999999999968
23042,153.3446495916669,56,0.12284999999999968,64,0.12284999999999968
23043,153.4674995916669,40,0.12284999999999968,44,0.12764874999999165
23044,153.59514834166689,25,0.12764874999999165,44,0.12764875000002007
23045,153.7227970916669,64,0.12764875000002007,85,0.12460550000000126
23046,153.8474025916669,63,0.12460550000000126,84,0.12460550000000126
23047,153.9720080916669,46,0.12460550000000126,55,0.12764874999999165
23048,154.0996568416669,61,0.12764874999999165,80,0.12764875000002007
23049,154.22730559166692,60,0.12764875000002007,86,0.12284999999999968
23050,154.35015559166692,63,0.12284999999999968,80,0.12284999999999968
23051,154.47300559166692,48,0.12284999999999968,57,0.12764874999999165
23052,154.6006543416669,32,0.12764874999999165,57,0.12764875000002007
23053,154.72830309166693,62,0.12764875000002007,84,0.12460550000000126
23054,154.85290859166693,61,0.12460550000000126,77,0.12460550000000126
23055,154.97751409166693,44,0.12460550000000126,55,0.12764874999999165
23056,155.10516284166692,59,0.12764874999999165,80,0.12764875000002007
23057,155.23281159166694,58,0.12764875000002007,86,0.12284999999999968
23058,155.35566159166694,61,0.12284999999999968,75,0.12284999999999968
23059,155.47851159166694,45,0.12284999999999968,55,0.15394100000000321
23060,155.63245259166695,30,0.15394100000000321,55,0.15394100000000321
23061,155.78639359166695,60,0.15394100000000321,99,0.8053140000000383
23062,155.92528259166696,25,0.13888900000000604,59,0.13888900000000604
23063,156.06417159166696,61,0.13888900000000604,79,0.2608695000000125
23064,156.19460634166697,25,0.13043475000000626,59,0.13043475000000626
23065,156.32504109166698,60,0.13043475000000626,89,0.2666665000000137
23066,156.45837434166697,25,0.13333324999999263,59,0.13333325000002105
23067,156.591707591667,61,0.13333325000002105,79,0.2597404999999924
23068,156.721577841667,25,0.1298702500000104,59,0.12987024999998198
23069,156.85144809166698,60,0.12987024999998198,92,0.2698570000000018
23070,156.98637659166698,25,0.1349285000000009,59,0.1349285000000009
23071,157.12130509166698,61,0.1349285000000009,80,0.5551644999999894
23072,157.25685534166698,25,0.13555024999999432,59,0.13555024999999432
23073,157.39240559166697,60,0.13555024999999432,89,0.28406400000000076
23074,157.53443759166697,30,0.14203200000000038,59,0.14203200000000038
23075,157.67646959166697,61,0.14203200000000038,80,0.28406400000000076
23076,157.81850159166697,30,0.14203200000000038,59,0.14203200000000038
23077,157.96053359166697,52,0.14203200000000038,100,0.1413494999999898
23078,158.24323259166698,51,0.282699000000008,86,0.1413494999999898
23079,158.80863059166697,49,0.5653979999999876,66,0.28818449999999984
23080,159.09681509166697,49,0.28818449999999984,68,0.5763689999999997
23081,159.67318409166697,45,0.5763689999999997,62,0.43227674999999977
23082,160.10546084166697,32,0.43227674999999977,49,0.14409224999999992
23083,160.24955309166697,47,0.14409224999999992,49,1.8959142125000028
23084,161.52154709166697,44,1.2719940000000065,49,0.6239202124999963
23085,162.14546730416697,45,0.6239202124999963,44,0.6238950000000045
23086,162.76936230416698,44,0.6238950000000045,47,2.5861209999999915
23087,164.047590304167,42,1.2782280000000128,41,1.3078929999999787
23088,164.36714730416696,24,0.3195569999999748,37,0.32317150000000083
23089,164.69031880416696,25,0.32317150000000083,39,0.32317150000000083
23090,165.01349030416696,23,0.32317150000000083,37,0.3419930000000022
23091,165.19648405416697,32,0.1829937500000085,41,0.8140922499999874
23092,165.27598367916698,40,0.07949962500001106,41,1.38968562499997
23093,165.35548330416697,47,0.07949962499998264,49,1.9448829958333533
23094,166.01057630416696,44,0.6550929999999937,49,0.6550929999999937
23095,166.66566930416695,45,0.6550929999999937,49,0.6346969958333659
23096,166.9776818000003,44,0.31201249583335766,47,0.32268450000000826
23097,167.30036630000032,47,0.32268450000000826,44,0.6315045000000055
23098,167.61231380000032,45,0.31194750000000226,41,0.3195570000000032
23099,167.93187080000033,44,0.3195570000000032,45,2.5442359999999837
23100,169.2100988000003,42,1.2782279999999844,41,1.2660079999999994
23101,169.5235458000003,24,0.3134469999999965,37,0.3134469999999965
23102,169.8369928000003,27,0.3134469999999965,35,0.2130380000000116
23103,170.05003080000031,25,0.2130380000000116,34,0.21303799999998319
23104,170.2630688000003,23,0.21303799999998319,34,0.2130380000000116
23105,170.4761068000003,47,0.2130380000000116,53,1.2782279999999844
23106,171.11522080000032,49,0.6391140000000064,51,0.639113999999978
23107,171.7543348000003,51,0.639113999999978,52,1.247821706250022
23108,172.3782615062503,52,0.6239267062500176,58,0.6238950000000045
23109,172.8461827562503,54,0.4679212499999892,60,0.15597375000001534
23110,173.00215650625032,56,0.15597375000001534,61,0.6238949999999761
23111,173.6260515062503,49,0.6238949999999761,51,0.6430180000000121
23112,174.2690695062503,51,0.6430180000000121,52,1.2703948395833322
23113,174.81501747083365,37,0.5459479645833483,56,0.724446874999984
23114,174.89300434583365,52,0.07798687499999346,58,0.5644121249999898
23115,175.37536859583363,54,0.48236424999998917,60,0.16409575000000132
23116,175.45741647083364,20,0.08204787500000066,41,0.7384308750000059
23117,175.53946434583364,56,0.08204787500000066,63,1.3127660000000105
23118,176.19584734583364,54,0.6563830000000053,60,1.3060150000000021
23119,176.85223034583365,52,0.6563830000000053,63,0.6496319999999969
23120,177.50186234583364,51,0.6496319999999969,63,0.4679212499999892
23121,177.96978359583363,49,0.4679212499999892,57,0.15597375000001534
23122,178.12575734583365,47,0.15597375000001534,61,0.6430180000000121
23123,178.76877534583366,45,0.6430180000000121,59,0.47263950000001387
23124,179.24141484583367,40,0.47263950000001387,56,0.15754649999999515
23125,179.39896134583367,40,0.15754649999999515,59,0.9671889999999905
23126,180.02914734583365,39,0.6301859999999806,53,0.6873065000000054
23127,180.36615034583366,43,0.33700300000000993,60,0.17515174999999772
23128,180.54130209583366,44,0.17515174999999772,55,1.4533797500000105
23129,180.62887797083366,52,0.08757587499999886,60,1.3658038750000117
23130,180.71645384583366,59,0.08757587499999886,72,1.2782280000000128
23131,180.92949184583367,34,0.2130380000000116,33,0.21303799999998319
23132,181.14252984583365,35,0.21303799999998319,31,0.2130380000000116
23133,181.35556784583366,37,0.2130380000000116,37,0.21303799999998319
23134,181.56860584583364,35,0.21303799999998319,31,0.2130380000000116
23135,181.78164384583366,23,0.2130380000000116,31,0.2130380000000116
23136,181.99468184583367,56,0.2130380000000116,60,0.6238950000000045
23137,182.20264684583367,34,0.2079650000000015,35,0.2079650000000015
23138,182.41061184583367,35,0.2079650000000015,35,0.2079650000000015
23139,182.61857684583367,47,0.2079650000000015,39,0.3195570000000032
23140,182.83161484583368,35,0.2130380000000116,33,0.2173591666666539
23141,182.93813384583368,57,0.10651899999999159,55,0.3325204999999869
23142,183.04897401250034,23,0.1108401666666623,33,0.2216803333333246
23143,183.27065434583366,56,0.2216803333333246,68,1.2660079999999994
23144,183.47961901250034,34,0.2089646666666738,35,0.20896466666664537
23145,183.68858367916698,35,0.20896466666664537,35,0.2089646666666738
23146,183.89754834583366,37,0.2089646666666738,37,0.2130380000000116
23147,184.11058634583367,35,0.2130380000000116,33,0.21303799999998319
23148,184.21710534583366,54,0.10651899999999159,55,0.3195570000000032
23149,184.32362434583365,23,0.10651899999999159,33,0.2130380000000116
23150,184.53666234583366,49,0.2130380000000116,58,0.31194750000000226
23151,184.74462734583366,34,0.2079650000000015,35,0.2079650000000015
23152,184.84860984583366,47,0.10398250000000075,52,0.31194750000000226
23153,184.95259234583366,35,0.10398250000000075,35,0.2079650000000015
23154,185.16055734583367,40,0.2079650000000015,61,0.32113050000000953
23155,185.37464434583367,35,0.21408700000000636,33,0.21845166666668092
23156,185.48168784583368,42,0.10704350000000318,55,0.1671122500000024
23157,185.59309601250035,23,0.11140816666667774,33,0.22281633333332707
23158,185.64880009583368,44,0.05570408333332466,62,0.1671122500000024
23159,185.81591234583368,59,0.1671122500000024,68,1.2782280000000128
23160,186.13546934583368,34,0.3195570000000032,34,0.1597784999999874
23161,186.29524784583367,35,0.1597784999999874,33,0.1597785000000158
23162,186.4550263458337,56,0.1597785000000158,62,0.6391140000000064
23163,186.61480484583367,35,0.1597784999999874,31,0.14380065000000286
23164,186.7745833458337,35,0.1597785000000158,37,0.1597784999999874
23165,186.93436184583368,23,0.1597784999999874,37,0.1597785000000158
23166,187.0941403458337,57,0.1597785000000158,66,0.6238950000000045
23167,187.4060878458337,56,0.31194750000000226,55,0.31194750000000226
23168,187.56206159583368,35,0.15597374999998692,35,0.15597375000001534
23169,187.7180353458337,56,0.15597375000001534,57,0.2130380000000116
23170,187.87781384583369,35,0.1597784999999874,33,0.14380065000000286
23171,187.9310733458337,59,0.05325950000002422,55,0.21303799999998319
23172,188.0375923458337,35,0.10651899999999159,37,0.1597784999999874
23173,188.1441113458337,57,0.10651899999999159,55,0.2130380000000116
23174,188.1973708458337,23,0.053259499999995796,31,0.1597785000000158
23175,188.3571493458337,56,0.1597785000000158,61,1.2660079999999994
23176,188.6705963458337,34,0.3134469999999965,35,0.15672349999999824
23177,188.8273198458337,35,0.15672349999999824,35,0.15672349999999824
23178,188.9840433458337,37,0.15672349999999824,37,0.1597784999999874
23179,189.14382184583368,35,0.1597784999999874,33,0.14380065000000286
23180,189.3036003458337,54,0.1597785000000158,60,0.3195570000000032
23181,189.4633788458337,23,0.1597784999999874,33,0.1597785000000158
23182,189.6231573458337,49,0.1597785000000158,60,0.31194750000000226
23183,189.8311223458337,47,0.2079650000000015,51,0.2079650000000015
23184,189.9351048458337,34,0.10398250000000075,35,0.15597374999998692
23185,190.0390873458337,49,0.10398250000000075,51,0.2079650000000015
23186,190.0910785958337,35,0.05199124999998617,35,0.15597375000001534
23187,190.2470523458337,47,0.15597375000001534,58,0.21408700000000636
23188,190.4076175958337,35,0.16056524999999056,35,0.14450872500000855
23189,190.46113934583371,40,0.0535217500000158,53,0.2207703333333484
23190,190.56818284583372,35,0.10704350000000318,39,0.1705902500000036
23191,190.68190967916706,42,0.11372683333334521,53,0.227453666666662
23192,190.73877309583372,23,0.056863416666658395,35,0.1705902500000036
23193,190.90936334583373,59,0.1705902500000036,73,1.2751719999999978
23194,191.06992859583372,35,0.16056524999999056,39,0.16056525000001898
23195,191.23049384583373,37,0.16056525000001898,39,0.16056524999999056
23196,191.39105909583373,35,0.16056524999999056,39,0.16056524999999056
23197,191.55162434583372,61,0.16056524999999056,68,0.6329110000000071
23198,191.70985209583372,35,0.15822775000000888,40,0.15822774999998046
23199,191.8680798458337,37,0.15822774999998046,40,0.15822775000000888
23200,192.0263075958337,35,0.15822775000000888,41,0.15822775000000888
23201,192.18453534583372,63,0.15822775000000888,73,1.2621744999999862
23202,192.3427630958337,35,0.15822774999998046,40,0.15822775000000888
23203,192.5009908458337,37,0.15822775000000888,41,0.15822775000000888
23204,192.65921859583372,35,0.15822775000000888,41,0.15822775000000888
23205,192.81744634583373,64,0.15822775000000888,75,0.4679212499999892
23206,192.97342009583372,35,0.15597374999998692,44,0.15597375000001534
23207,193.12939384583373,37,0.15597375000001534,44,0.15597374999998692
23208,193.28536759583372,66,0.15597374999998692,73,0.16134224999998992
23209,193.4467098458337,68,0.16134224999998992,78,1.2658220000000142
23210,193.60493759583372,35,0.15822775000000888,42,0.15822774999998046
23211,193.7631653458337,37,0.15822774999998046,42,0.15822775000000888
23212,193.9213930958337,35,0.15822775000000888,42,0.15822775000000888
23213,194.07962084583372,61,0.15822775000000888,73,0.6329110000000071
23214,194.2378485958337,35,0.15822774999998046,46,0.15822775000000888
23215,194.3960763458337,37,0.15822775000000888,46,0.15822775000000888
23216,194.55430409583371,35,0.15822775000000888,46,0.15822775000000888
23217,194.71253184583372,63,0.15822775000000888,78,0.6329109999999787
23218,194.8707595958337,35,0.15822774999998046,46,0.15822775000000888
23219,195.0289873458337,37,0.15822775000000888,46,0.15822775000000888
23220,195.18721509583372,35,0.15822775000000888,46,0.15822774999998046
23221,195.3454428458337,64,0.15822774999998046,79,0.4814175000000205
23222,195.5036705958337,35,0.15822775000000888,49,0.15822775000000888
23223,195.66189834583372,37,0.15822775000000888,49,0.16496200000000272
23224,195.82686034583372,66,0.16496200000000272,77,0.16496200000000272
23225,195.99182234583373,68,0.16496200000000272,81,1.3028659999999945
23226,196.15678434583373,31,0.16496200000000272,51,0.16496200000000272
23227,196.32174634583373,32,0.16496200000000272,51,0.16496200000000272
23228,196.48670834583373,39,0.16496200000000272,51,0.1649619999999743
23229,196.6516703458337,69,0.1649619999999743,78,0.9564650000000086
23230,196.8124248458337,43,0.16075449999999591,53,0.16075449999999591
23231,196.9731793458337,44,0.16075449999999591,53,0.16075449999999591
23232,197.1339338458337,51,0.16075449999999591,53,0.16075450000002434
23233,197.29468834583372,64,0.16075450000002434,74,1.2815004999999928
23234,197.45141184583372,31,0.15672349999999824,52,0.15672349999999824
23235,197.60813534583372,68,0.15672349999999824,77,0.32268450000000826
23236,197.7694775958337,40,0.16134224999998992,53,0.16134225000001834
23237,197.93081984583372,67,0.16134225000001834,75,0.32268449999997983
23238,198.09216209583371,43,0.16134224999998992,55,0.16134224999998992
23239,198.2535043458337,68,0.16134224999998992,75,0.32268450000000826
23240,198.41484659583372,52,0.16134225000001834,56,0.16134224999998992
23241,198.5761888458337,71,0.16134224999998992,85,1.2782800000000236
23242,198.7375310958337,34,0.16134224999998992,55,0.16134225000001834
23243,198.89887334583372,35,0.16134225000001834,55,0.16134224999998992
23244,199.0602155958337,42,0.16134224999998992,55,0.16134225000001834
23245,199.22155784583373,73,0.16134225000001834,84,0.9404455000000098
23246,199.37978559583374,46,0.15822775000000888,57,0.15822774999998046
23247,199.53801334583372,47,0.15822774999998046,57,0.15822775000000888
23248,199.69624109583373,54,0.15822775000000888,57,0.15822775000000888
23249,199.85446884583374,68,0.15822775000000888,81,0.623989999999992
23250,200.00823609583372,36,0.15376724999998714,56,0.15376725000001557
23251,200.16200334583374,71,0.15376725000001557,80,0.31645549999998934
23252,200.32023109583375,44,0.15822775000000888,57,0.15822774999998046
23253,200.47845884583373,69,0.15822774999998046,84,0.6329110000000071
23254,200.63668659583374,48,0.15822775000000888,58,0.15822775000000888
23255,200.79491434583375,49,0.15822775000000888,59,0.15822774999998046
23256,200.95314209583373,68,0.15822774999998046,78,0.15822775000000888
23257,201.11136984583374,71,0.15822775000000888,86,0.6315045000000055
23258,201.26734359583372,25,0.15597374999998692,52,0.15597375000001534
23259,201.42331734583374,69,0.15597375000001534,72,0.3195570000000032
23260,201.58309584583372,37,0.1597784999999874,52,0.1597785000000158
23261,201.74287434583374,68,0.1597785000000158,72,0.634577500000006
23262,201.89959784583374,25,0.15672349999999824,52,0.15672349999999824
23263,202.05632134583374,65,0.15672349999999824,72,0.32113050000000953
23264,202.21688659583373,35,0.16056524999999056,52,0.16056525000001898
23265,202.37745184583375,68,0.16056525000001898,81,0.6315045000000055
23266,202.53342559583373,25,0.15597374999998692,52,0.15597375000001534
23267,202.68939934583375,66,0.15597375000001534,71,0.3195570000000032
23268,202.84917784583374,37,0.1597784999999874,52,0.1597785000000158
23269,203.00895634583375,61,0.1597785000000158,72,0.6238950000000045
23270,203.16493009583374,28,0.15597374999998692,52,0.15597375000001534
23271,203.32090384583375,64,0.15597375000001534,67,0.31194750000000226
23272,203.47687759583374,37,0.15597374999998692,52,0.15597375000001534
23273,203.63285134583376,61,0.15597375000001534,80,0.6330780000000118
23274,203.78882509583374,28,0.15597374999998692,52,0.15597375000001534
23275,203.94479884583376,59,0.15597375000001534,73,0.32113050000000953
23276,204.10536409583375,40,0.16056524999999056,52,0.16056525000001898
23277,204.26592934583377,52,0.16056525000001898,73,0.6422609999999906
23278,204.42649459583376,28,0.16056524999999056,52,0.16056524999999056
23279,204.58705984583375,57,0.16056524999999056,74,0.32113050000000953
23280,204.74762509583377,40,0.16056525000001898,52,0.16056524999999056
23281,204.90819034583376,54,0.16056524999999056,80,0.6375859999999989
23282,205.06875559583375,30,0.16056524999999056,47,0.16056525000001898
23283,205.22932084583377,35,0.16056525000001898,47,0.15822775000000888
23284,205.38754859583378,40,0.15822775000000888,47,0.15822774999998046
23285,205.54577634583376,56,0.15822774999998046,75,0.6254469999999799
23286,205.70027209583375,27,0.15449574999999527,47,0.15449574999999527
23287,205.85476784583375,57,0.15449574999999527,70,0.31645549999998934
23288,206.01299559583376,35,0.15822775000000888,47,0.15822774999998046
23289,206.17122334583374,61,0.15822774999998046,77,0.6284029999999916
23290,206.32719709583372,23,0.15597374999998692,47,0.15597375000001534
23291,206.48317084583374,60,0.15597375000001534,70,0.31645549999998934
23292,206.64139859583375,35,0.15822775000000888,47,0.15822774999998046
23293,206.79962634583373,59,0.15822774999998046,77,0.21408700000000636
23294,206.96019159583372,28,0.16056524999999056,47,0.16056525000001898
23295,207.01371334583374,52,0.0535217500000158,70,0.4281739999999843
23296,207.12075684583374,33,0.10704350000000318,47,0.16056524999999056
23297,207.22780034583374,57,0.10704350000000318,70,0.21408699999997793
23298,207.28132209583373,40,0.05352174999998738,47,0.16056524999999056
23299,207.44188734583372,54,0.16056524999999056,80,0.6316250000000139
23300,207.60245259583374,28,0.16056525000001898,47,0.16056524999999056
23301,207.76301784583373,56,0.16056524999999056,68,0.15524725000000217
23302,207.91826509583373,54,0.15524725000000217,63,0.15524725000000217
23303,208.07351234583373,53,0.15524725000000217,73,0.6487569999999891
23304,208.23329084583372,54,0.1597784999999874,68,0.1597785000000158
23305,208.39306934583374,56,0.1597785000000158,73,0.16460000000000719
23306,208.55766934583374,57,0.16460000000000719,69,0.16459999999997876
23307,208.72226934583372,58,0.16459999999997876,83,0.42297449999998094
23308,208.88049709583373,23,0.15822775000000888,47,0.15822774999998046
23309,208.93323967916706,59,0.05274258333332682,79,0.21200416666664523
23310,209.0387248458337,28,0.10548516666665364,46,0.1597784999999874
23311,209.1452438458337,68,0.10651899999999159,77,0.2130380000000116
23312,209.1985033458337,35,0.053259499999995796,46,0.1597785000000158
23313,209.35828184583372,66,0.1597785000000158,82,0.4260759999999948
23314,209.5180603458337,28,0.1597784999999874,45,0.1597785000000158
23315,209.5713198458337,64,0.053259499999995796,73,0.2130380000000116
23316,209.67783884583372,33,0.10651900000002001,44,0.1597784999999874
23317,209.7843578458337,57,0.10651899999999159,80,0.2130380000000116
23318,209.8376173458337,40,0.053259499999995796,44,0.1597785000000158
23319,209.99739584583372,54,0.1597785000000158,82,1.2463055000000054
23320,210.16199584583373,30,0.16460000000000719,42,0.16459999999997876
23321,210.3265958458337,35,0.16459999999997876,42,0.16460000000000719
23322,210.49119584583372,40,0.16460000000000719,41,0.16460000000000719
23323,210.65579584583372,51,0.16460000000000719,61,0.33594600000000696
23324,210.8237688458337,30,0.16797299999998927,41,0.1679730000000177
23325,210.99174184583373,35,0.1679730000000177,40,0.16797299999998927
23326,211.15971484583372,39,0.16797299999998927,40,0.1679730000000177
23327,211.24370134583373,52,0.08398650000000885,73,0.08398650000000885
23328,211.32768784583374,52,0.08398650000000885,85,0.18348633333332032
23329,211.51117417916706,49,0.18348633333332032,73,0.09174316666667437
23330,211.6910230125004,49,0.17984883333335233,73,0.08810566666664954
23331,211.86723434583374,49,0.1762113333333275,75,0.16842099999999505
23332,212.03565534583373,47,0.16842099999999505,71,0.08421050000001173
23333,212.20217034583374,57,0.16651500000000397,74,0.08230450000002065
23334,212.36677934583375,57,0.16460900000001288,75,0.16183833333332132
23335,212.52861767916707,56,0.16183833333332132,74,0.08091916666668908
23336,212.68729734583377,61,0.15867966666669986,74,0.07776049999998236
23337,212.84281834583376,61,0.15552099999999314,78,0.15966800000001058
23338,213.00248634583377,59,0.15966800000001058,73,0.07983399999997687
23339,213.16075167916708,69,0.15826533333330417,73,0.0784313333333273
23340,213.31761434583376,69,0.15686266666668303,78,0.15864199999998618
23341,213.47625634583375,68,0.15864199999998618,73,0.07932100000002151
23342,213.63328351250044,61,0.15702716666669403,73,0.07770616666667252
23343,213.78869584583376,61,0.1554123333333166,75,0.15541233333334503
23344,213.9441081791671,59,0.15541233333334503,72,0.07770616666667252
23345,214.09952051250045,57,0.15541233333334503,74,0.0777061666666441
23346,214.25493284583376,57,0.1554123333333166,75,0.15541233333334503
23347,214.4103451791671,56,0.15541233333334503,71,0.07770616666667252
23348,214.56575751250043,49,0.1554123333333166,74,0.07770616666667252
23349,214.72116984583377,49,0.15541233333334503,78,0.15541233333334503
23350,214.87658217916712,47,0.15541233333334503,74,0.0777061666666441
23351,215.0338871791671,45,0.1573049999999796,74,0.0795988333333355
23352,215.19308484583377,45,0.159197666666671,78,0.16398833333332163
23353,215.3570731791671,44,0.16398833333332163,67,0.08199416666667503
23354,215.52106151250044,48,0.16398833333335006,59,0.07846216666666805
23355,215.67798584583377,48,0.1569243333333361,62,0.15616466666665474
23356,215.83415051250043,47,0.15616466666665474,58,0.07808233333335579
23357,215.9903151791671,57,0.15616466666668316,52,0.07808233333332737
23358,216.14647984583377,57,0.15616466666665474,55,0.15616466666668316
23359,216.30264451250045,56,0.15616466666668316,52,0.07808233333332737
23360,216.4588091791671,60,0.15616466666665474,52,0.07808233333332737
23361,216.6149738458338,60,0.15616466666668316,55,0.15616466666665474
23362,216.77113851250044,59,0.15616466666665474,51,0.07808233333332737
23363,216.9273031791671,69,0.15616466666665474,46,0.07808233333335579
23364,217.08346784583378,69,0.15616466666668316,49,0.15616466666665474
23365,217.23963251250044,68,0.15616466666665474,46,0.07808233333332737
23366,217.39579717916712,60,0.15616466666668316,55,0.07808233333332737
23367,217.55196184583377,60,0.15616466666665474,59,0.15616466666665474
23368,217.70812651250043,59,0.15616466666665474,56,0.07808233333335579
23369,217.86620251250045,57,0.15807600000002253,56,0.07999366666666674
23370,218.02618984583378,57,0.15998733333333348,59,0.16235100000000102
23371,218.18854084583378,56,0.16235100000000102,55,0.08117550000000051
23372,218.3508918458338,48,0.16235100000000102,56,0.07808233333332737
23373,218.50705651250044,48,0.15616466666665474,59,0.16109533333332138
23374,218.66815184583376,47,0.16109533333332138,56,0.08054766666668911
23375,218.83274017916713,45,0.16458833333336997,62,0.08404066666665244
23376,219.00082151250047,45,0.1680813333333333,59,0.16235100000000102
23377,219.16317251250047,46,0.16235100000000102,49,0.08117550000000051
23378,219.3228348458338,51,0.1596623333333298,56,0.07848683333332929
23379,219.47980851250045,51,0.15697366666665857,59,0.15923566666666034
23380,219.63904417916712,50,0.15923566666666034,48,0.07961783333334438
23381,219.79642251250047,56,0.15737833333335516,56,0.07776049999998236
23382,219.95194351250046,56,0.15552099999999314,59,0.15552099999999314
23383,220.10746451250046,55,0.15552099999999314,52,0.07776050000001078
23384,220.26298551250045,63,0.15552099999999314,56,0.07776050000001078
23385,220.41850651250047,63,0.15552100000002156,59,0.15552099999999314
23386,220.57402751250046,62,0.15552099999999314,51,0.07776049999998236
23387,220.73138684583378,68,0.15735933333331786,55,0.0795988333333355
23388,220.89058451250045,68,0.159197666666671,59,0.159197666666671
23389,221.04978217916712,53,0.159197666666671,63,0.1591976666666426
23390,221.20897984583377,59,0.1591976666666426,80,0.1586206666666783
23391,221.36760051250045,56,0.1586206666666783,74,0.15730166666665468
23392,221.5249021791671,62,0.15730166666665468,84,0.15617549999998914
23393,221.6810776791671,59,0.15617549999998914,79,0.15506966666669086
23394,221.83614734583378,65,0.15506966666669086,89,0.1534278333333532
23395,221.98957517916713,62,0.1534278333333532,85,0.15470166666665364
23396,222.1442768458338,68,0.15470166666665364,92,0.1559855833333188
23397,222.3002624291671,65,0.1559855833333188,86,0.15711283333334336
23398,222.45737526250045,71,0.15711283333334336,94,0.1652714999999887
23399,222.62264676250044,74,0.1652714999999887,90,0.16904733333333866
23400,222.79169409583378,75,0.16904733333333866,101,0.16638933333334194
23401,222.95808342916712,51,0.16638933333334194,77,0.16281250000000114
23402,223.12089592916712,51,0.16281250000000114,77,0.1611838333333253
23403,223.28207976250044,51,0.1611838333333253,77,0.16313199999999028
23404,223.44521176250043,51,0.16313199999999028,75,0.15846600000000421
23405,223.60367776250044,51,0.15846600000000421,75,0.16075866666668048
23406,223.76443642916712,51,0.16075866666668048,80,0.16235100000000102
23407,223.92678742916712,51,0.16235100000000102,77,0.15772866666665664
23408,224.08451609583378,51,0.15772866666665664,77,0.16075866666668048
23409,224.24527476250046,51,0.16075866666668048,81,0.15923566666666034
23410,224.40451042916712,51,0.15923566666666034,79,0.15265999999999735
23411,224.55717042916712,51,0.15265999999999735,79,0.1572424999999953
23412,224.7144129291671,51,0.1572424999999953,80,0.08196716666665793
23413,224.8760603458338,51,0.16164741666668192,81,0.0773933333333332
23414,225.03084701250046,51,0.1547866666666664,82,0.08037933333332603
23415,225.19160567916714,51,0.16075866666668048,83,0.07811883333332048
23416,225.3478433458338,52,0.15623766666666938,84,0.07597633333332965
23417,225.49979601250047,52,0.1519526666666593,85,0.0800000000000125
23418,225.65979601250046,52,0.1599999999999966,86,0.08117550000000051
23419,225.82214701250047,52,0.16235100000000102,88,0.07668116666667402
23420,225.97550934583379,52,0.1533623333333196,90,0.0792329999999879
23421,226.1339753458338,52,0.15846600000000421,91,0.0792329999999879
23422,226.2924413458338,52,0.15846600000000421,92,0.07537949999999682
23423,226.44362476250046,52,0.1511834166666688,93,0.07624158333331366
23424,226.59663463750044,52,0.15300987499998087,102,0.09062900000000695
23425,226.77290072083377,56,0.17626608333333138,95,0.16129033333334064
23426,226.93419105416712,56,0.16129033333334064,95,0.16700066666666658
23427,227.10119172083378,56,0.16700066666666658,101,0.16223233333332132
23428,227.2634240541671,54,0.16223233333332132,95,0.16301616666666519
23429,227.42644022083377,52,0.16301616666666519,95,0.16380000000000905
23430,227.59024022083378,21,0.16380000000000905,96,0.1700360000000103
23431,227.7602762208338,56,0.1700360000000103,95,0.16200899999998342
23432,227.92228522083377,56,0.16200899999998342,95,0.1670097500000054
23433,228.08929497083378,56,0.1670097500000054,101,0.16380000000000905
23434,228.25309497083379,54,0.16380000000000905,95,0.16664583333331962
23435,228.4197408041671,52,0.16664583333331962,95,0.1694916666666586
23436,228.58923247083376,23,0.1694916666666586,96,0.17596499999999082
23437,228.76519747083375,56,0.17596499999999082,95,0.16273400000000038
23438,228.92793147083376,56,0.16273400000000038,95,0.16780224999999405
23439,229.09573372083375,56,0.16780224999999405,101,0.16301233333334153
23440,229.2587460541671,54,0.16301233333334153,95,0.1630123333333131
23441,229.4217583875004,52,0.1630123333333131,95,0.16301233333334153
23442,229.58477072083375,25,0.16301233333334153,96,0.17939975000001596
23443,229.76417047083376,56,0.17939975000001596,95,0.17333375000001183
23444,229.93750422083377,56,0.17333375000001183,95,0.17753450000000726
23445,230.11503872083378,56,0.17753450000000726,101,0.18194375000001628
23446,230.2969824708338,54,0.18194375000001628,95,0.18919762499999138
23447,230.4861800958338,52,0.18919762499999138,95,0.19169933333333233
23448,230.67787942916712,42,0.19169933333333233,101,2.06771599999999
23449,232.7455954291671,44,2.06771599999999,95,2.218231750000001
23450,234.8760463041671,45,2.1304508749999798,86,0.0877808750000213
23451,234.9638271791671,45,0.0877808750000213,93,1.1077622500000075
23452,235.1020759291671,21,0.13824875000000247,60,0.13824875000000247
23453,235.37857342916712,23,0.27649750000000495,66,0.13215850000000273
23454,235.51073192916712,24,0.13215850000000273,62,0.13824875000000247
23455,235.64898067916712,21,0.13824875000000247,62,0.13824875000000247
23456,236.07158942916712,24,0.42260874999999487,44,0.13761475000001155
23457,236.20920417916713,21,0.13761475000001155,39,0.13761474999998313
23458,236.48443367916713,23,0.2752294999999947,44,0.1327432500000043
23459,236.61717692916713,24,0.1327432500000043,39,0.13824875000000247
23460,236.75542567916713,21,0.13824875000000247,39,0.13824875000000247
23461,237.18213592916715,24,0.4267102500000135,44,0.1421799999999962
23462,237.32431592916714,21,0.1421799999999962,39,0.1421799999999962
23463,237.60867592916713,23,0.2843599999999924,44,0.1363637499999868
23464,237.74503967916712,24,0.1363637499999868,39,0.14778325000000336
23465,237.89282292916712,33,0.14778325000000336,39,0.14778325000000336
23466,238.38944317916713,48,0.49662025000000654,47,1.561602999999991
23467,238.96636617916712,49,0.5769229999999936,44,0.5581400000000087
23468,239.52450617916713,50,0.5581400000000087,47,1.1294680000000028
23469,239.95104617916712,41,0.4265399999999886,40,0.14218000000002462
23470,240.09322617916715,41,0.14218000000002462,44,0.5607479999999896
23471,240.65397417916714,29,0.5607479999999896,39,0.4205610000000206
23472,241.07453517916716,22,0.4205610000000206,35,0.1401869999999974
23473,241.21472217916715,22,0.1401869999999974,37,0.5607479999999896
23474,241.77547017916714,17,0.5607479999999896,39,0.13824875000000247
23475,241.91371892916715,10,0.13824875000000247,36,0.13824875000000247
23476,242.19021642916715,12,0.27649750000000495,39,0.1327432500000043
23477,242.32295967916716,14,0.1327432500000043,36,0.13824875000000247
23478,242.46120842916716,10,0.13824875000000247,36,0.13824875000000247
23479,242.88247617916716,29,0.4212677499999984,41,0.13698625000000675
23480,243.01946242916716,22,0.13698625000000675,39,0.13698625000000675
23481,243.29343492916715,24,0.2739724999999851,42,0.1298702500000104
23482,243.42330517916716,26,0.1298702500000104,39,0.13574650000001043
23483,243.55905167916717,22,0.13574650000001043,39,0.135746499999982
23484,243.97257617916716,29,0.4135244999999941,46,0.13043475000000626
23485,244.10301092916717,23,0.13043475000000626,42,0.13043475000000626
23486,244.36388042916715,24,0.2608694999999841,47,0.12448125000000232
23487,244.48836167916716,26,0.12448125000000232,42,0.13452925000001414
23488,244.62289092916717,23,0.13452925000001414,45,0.1329762500000129
23489,245.0144910125005,29,0.3916000833333442,58,0.12802333333331717
23490,245.14251434583383,23,0.12802333333331717,53,0.1272989999999936
23491,245.39639559583384,24,0.2538812500000063,60,0.12244899999998893
23492,245.51884459583383,26,0.12244899999998893,53,0.13392849999999612
23493,245.65277309583382,23,0.13392849999999612,56,0.13392849999999612
23494,246.04985959583382,29,0.39708650000000034,63,0.13452925000001414
23495,246.18438884583384,26,0.13452925000001414,58,0.13452924999998572
23496,246.45344734583384,28,0.26905849999999987,67,0.12658225000001266
23497,246.58002959583385,29,0.12658225000001266,60,0.1428572499999916
23498,246.72288684583384,38,0.1428572499999916,62,0.14285725000002003
23499,247.16277359583387,50,0.43988675000002786,49,1.5317679999999712
23500,247.72352159583386,51,0.5607479999999896,47,0.5504589999999894
23501,248.27398059583385,52,0.5504589999999894,49,2.2180099999999925
23502,248.69454159583384,44,0.4205609999999922,44,0.1401869999999974
23503,248.83472859583384,44,0.1401869999999974,47,1.657262000000003
23504,249.39547659583386,24,0.560748000000018,39,0.1351352499999905
23505,249.53061184583385,20,0.1351352499999905,36,0.1351352500000189
23506,249.80088234583386,22,0.2702705000000094,39,0.12711874999999395
23507,249.92800109583385,24,0.12711874999999395,35,0.1363637499999868
23508,250.06436484583384,20,0.1363637499999868,35,0.13636375000001522
23509,250.49199059583384,52,0.42762575000000425,56,1.1209849999999904
23510,250.91853059583383,45,0.4265399999999886,55,0.13888900000000604
23511,251.05741959583384,45,0.13888900000000604,58,0.5555559999999957
23512,251.61297559583383,53,0.5555559999999957,61,1.1242149999999924
23513,252.03951559583382,46,0.4265399999999886,57,0.13953499999999508
23514,252.17905059583381,46,0.13953499999999508,60,0.5581400000000087
23515,252.73719059583382,54,0.5581400000000087,75,1.113897499999979
23516,252.87672559583382,22,0.13953499999999508,38,0.13953499999999508
23517,253.1557955958338,24,0.27906999999999016,46,0.12765949999999293
23518,253.2834550958338,26,0.12765949999999293,41,0.14492749999999432
23519,253.4283825958338,22,0.14492749999999432,42,0.14492749999999432
23520,253.5733100958338,53,0.14492749999999432,68,0.27777800000001207
23521,253.8510880958338,53,0.27777800000001207,73,0.558281500000021
23522,253.99193309583382,22,0.140845000000013,38,0.14084499999998457
23523,254.2736230958338,51,0.28168999999999755,51,0.558281500000021
23524,254.40936959583382,44,0.13574650000001043,44,0.5740502499999991
23525,254.55021459583384,22,0.140845000000013,42,0.14084499999998457
23526,254.83190459583383,49,0.28168999999999755,61,0.15151524999998855
23527,254.98341984583382,49,0.15151524999998855,68,1.1378655000000037
23528,255.12426484583384,22,0.140845000000013,31,0.14084499999998457
23529,255.41145134583383,47,0.28718649999999,55,0.14634150000000545
23530,255.55779284583383,47,0.14634150000000545,61,0.19675941666667995
23531,255.69668184583384,35,0.13888900000000604,30,0.13888900000000604
23532,255.74297817916715,51,0.0462963333333164,62,0.19973560416667624
23533,255.9308090125005,49,0.1878308333333507,61,0.20249556249996203
23534,256.1212853458338,47,0.19047633333332215,64,1.1538459999999873
23535,256.26551609583385,29,0.14423075000001973,31,0.14423074999996288
23536,256.5539775958338,30,0.2884614999999826,35,0.14423075000001973
23537,256.69820834583385,46,0.14423075000001973,58,0.2884614999999826
23538,256.8424390958338,41,0.14423074999996288,30,0.14423075000001973
23539,256.98666984583383,58,0.14423075000001973,70,0.2884614999999826
23540,257.2751313458338,49,0.2884614999999826,64,0.1809953333333283
23541,257.4108778458338,48,0.135746499999982,58,0.13574650000003885
23542,257.45612667916714,24,0.04524883333334628,39,0.3695676666666827
23543,257.6396476791672,34,0.18352100000004157,39,0.18604666666664116
23544,257.68615934583386,46,0.0465116666666745,61,0.13953499999996666
23545,257.8256943458338,45,0.13953499999996666,67,0.18181833333335362
23546,257.9620580958338,48,0.1363637499999868,61,0.1363637499999868
23547,258.0075126791672,24,0.04545458333336683,40,0.18436716666661823
23548,258.1918798458338,17,0.18436716666661823,40,0.18691599999999653
23549,258.2386088458338,51,0.046729000000027554,63,0.14018699999996898
23550,258.3787958458338,51,0.14018699999996898,68,0.17937233333333324
23551,258.5133250958338,50,0.13452925000001414,63,0.13452925000001414
23552,258.5581681791671,26,0.0448430833333191,38,0.3661836666667
23553,258.7400201791672,36,0.18185200000004897,39,0.18433166666665102
23554,258.7861030958338,48,0.04608291666664854,62,0.13824875000000247
23555,258.9243518458338,47,0.13824875000000247,68,0.17937233333333324
23556,259.05888109583384,50,0.13452925000001414,62,0.13452925000001414
23557,259.10372417916716,26,0.0448430833333191,39,0.18185200000004897
23558,259.2855761791672,19,0.18185200000004897,39,0.18433166666665102
23559,259.33165909583386,53,0.04608291666664854,64,0.13824875000000247
23560,259.46990784583386,53,0.13824875000000247,70,0.17937233333333324
23561,259.6044370958339,52,0.13452925000001414,64,0.13452925000001414
23562,259.6492801791672,28,0.0448430833333191,40,0.18185200000004897
23563,259.83113217916724,38,0.18185200000004897,40,0.18433166666665102
23564,259.8772150958339,50,0.04608291666664854,62,0.13824875000000247
23565,260.0154638458339,49,0.13824875000000247,64,0.17937233333333324
23566,260.1948361791672,52,0.17937233333333324,68,0.18270950000004405
23567,260.37754567916727,52,0.18270950000004405,72,0.18604666666664116
23568,260.5635923458339,55,0.18604666666664116,75,0.18161433333335708
23569,260.74520667916727,55,0.18161433333335708,78,0.1841224166666393
23570,260.9293290958339,61,0.1841224166666393,81,0.18670066666669527
23571,261.1160297625006,64,0.18670066666669527,86,0.18935208333334685
23572,261.30538184583395,67,0.18935208333334685,84,0.19207991666667112
23573,261.4974617625006,79,0.19207991666667112,86,0.19609016666663592
23574,261.69355192916726,51,0.19609016666663592,82,1.1343985000000316
23575,261.83709267916726,19,0.14354074999999966,53,0.14354074999999966
23576,262.11824817916727,21,0.2811555000000112,62,0.1298702500000104
23577,262.2481184291673,23,0.1298702500000104,56,0.14705874999998514
23578,262.39517717916726,19,0.14705874999998514,57,0.14705875000004198
23579,262.5422359291673,49,0.14705875000004198,72,0.2857144999999832
23580,262.8279504291673,49,0.2857144999999832,77,1.1170174999999745
23581,262.9601089291673,20,0.13215850000000273,53,0.14018700000002582
23582,263.2404829291673,22,0.2803739999999948,62,0.13043475000000626
23583,263.3709176791673,47,0.13043475000000626,73,0.4225349999999821
23584,263.5117626791673,20,0.140845000000013,57,0.140845000000013
23585,263.7934526791673,47,0.28168999999996913,67,0.15151524999998855
23586,263.94496792916726,47,0.15151524999998855,70,0.9319610833333627
23587,264.0783011791673,22,0.13333325000002105,42,0.140845000000013
23588,264.3606556791673,46,0.28235449999999673,60,0.1415095000000406
23589,264.5021651791673,46,0.1415095000000406,68,0.19767458333330978
23590,264.64170017916734,34,0.1395350000000235,47,0.13953499999996666
23591,264.68821184583396,44,0.04651166666661766,63,0.20067889583333454
23592,264.8769290125006,43,0.18871716666666316,60,0.19138766666668516
23593,265.0683166791673,46,0.19138766666668516,71,1.1444544999999948
23594,265.21254742916733,24,0.14423075000001973,39,0.14423074999996288
23595,265.5010089291673,25,0.2884614999999826,44,0.14423075000001973
23596,265.64523967916733,45,0.14423075000001973,62,0.2884614999999826
23597,265.7894704291673,39,0.14423074999996288,38,0.14423075000001973
23598,265.9337011791673,60,0.14423075000001973,68,0.27906999999999016
23599,266.2127711791673,51,0.27906999999999016,70,0.1809953333333283
23600,266.3485176791673,50,0.135746499999982,63,0.13574650000003885
23601,266.39376651250063,26,0.04524883333334628,42,0.37087166666668736
23602,266.5777221791673,36,0.18395566666669083,42,0.18691599999999653
23603,266.62445117916735,48,0.046729000000027554,67,0.14018699999996898
23604,266.7646381791673,47,0.14018699999996898,73,0.18348633333334874
23605,266.90225292916733,50,0.13761475000001155,67,0.13761475000001155
23606,266.94812451250067,26,0.045871583333337185,44,0.18476650000002337
23607,267.1328910125007,19,0.18476650000002337,44,0.18604666666664116
23608,267.17940267916737,53,0.0465116666666745,69,0.13953499999996666
23609,267.31893767916733,53,0.13953499999996666,74,0.1801803333333396
23610,267.45407292916735,52,0.1351352500000189,69,0.13513524999996207
23611,267.4991180125007,28,0.04504508333332069,41,0.3653196666666645
23612,267.680951345834,38,0.18183333333331575,42,0.18348633333334874
23613,267.7268229291673,50,0.045871583333337185,68,0.13761475000001155
23614,267.86443767916734,49,0.13761475000001155,74,0.1785713333333092
23615,267.99836617916736,52,0.13392850000002454,68,0.1339284999999677
23616,268.04300901250065,28,0.04464283333328467,42,0.1810288333333574
23617,268.224037845834,21,0.1810288333333574,42,0.18348633333334874
23618,268.26990942916734,55,0.045871583333337185,70,0.13761475000001155
23619,268.40752417916735,55,0.13761475000001155,77,0.1801803333333396
23620,268.5426594291674,54,0.1351352500000189,70,0.13513524999996207
23621,268.5877045125007,30,0.04504508333332069,44,0.3704641666666362
23622,268.77125267916733,40,0.18354816666663964,44,0.18691599999999653
23623,268.81798167916736,52,0.046729000000027554,68,0.14018699999996898
23624,268.95816867916733,51,0.14018699999996898,70,0.18691599999999653
23625,269.1450846791673,54,0.18691599999999653,74,0.18691599999999653
23626,269.3320006791673,54,0.18691599999999653,79,0.18648333333334222
23627,269.51848401250066,57,0.18648333333334222,82,0.186266000000046
23628,269.7047500125007,57,0.186266000000046,85,0.1886813333333066
23629,269.893431345834,60,0.1886813333333066,89,0.19116200000001982
23630,270.08459334583404,60,0.19116200000001982,94,0.19347341666667717
23631,270.2780667625007,65,0.19347341666667717,97,0.19608075000002145
23632,270.47414751250074,69,0.19608075000002145,104,0.19876108333335196
23633,270.6729085958341,70,0.19876108333335196,104,0.18073366666664015
23634,270.8084588458341,61,0.13555024999999432,93,0.13555024999999432
23635,270.8536422625007,37,0.045183416666645826,72,0.18333816666665825
23636,271.0369804291674,41,0.18333816666665825,80,0.18594266666667636
23637,271.08346609583407,63,0.0464856666666833,94,0.13945699999999306
23638,271.22292309583406,65,0.13945699999999306,100,0.1824316666666732
23639,271.3597468458341,58,0.13682375000001912,94,0.13682374999996227
23640,271.40535476250074,41,0.04560791666665409,75,0.18200116666662325
23641,271.67814126250073,17,0.27278649999999516,66,0.09078533333331507
23642,271.76892659583405,65,0.09078533333331507,104,0.18073366666664015
23643,271.90447684583404,58,0.13555024999999432,93,0.13555024999999432
23644,271.9496602625007,37,0.045183416666645826,72,0.18333816666665825
23645,272.13299842916734,41,0.18333816666665825,75,0.18594266666667636
23646,272.179484095834,60,0.0464856666666833,89,0.13945699999999306
23647,272.318941095834,61,0.13945699999999306,94,0.1824316666666732
23648,272.45576484583404,70,0.13682375000001912,89,0.13682374999996227
23649,272.5013727625007,41,0.04560791666665409,71,0.18418716666661794
23650,272.6855599291673,37,0.18418716666661794,62,0.18594266666667636
23651,272.871502595834,68,0.18594266666667636,101,0.18073366666664015
23652,273.007052845834,61,0.13555024999999432,90,0.13555024999999432
23653,273.0522362625006,40,0.045183416666645826,70,0.18333816666665825
23654,273.2355744291673,44,0.18333816666665825,77,0.18594266666667636
23655,273.28206009583397,63,0.0464856666666833,91,0.13945699999999306
23656,273.42151709583396,64,0.13945699999999306,96,0.1824316666666732
23657,273.558340845834,56,0.13682375000001912,91,0.13682374999996227
23658,273.60394876250064,44,0.04560791666665409,72,0.18200116666662325
23659,273.87673526250063,28,0.27278649999999516,63,0.09078533333331507
23660,273.96752059583395,68,0.09078533333331507,99,0.18073366666664015
23661,274.10307084583394,61,0.13555024999999432,90,0.13555024999999432
23662,274.1482542625006,40,0.045183416666645826,70,0.18333816666665825
23663,274.33159242916724,44,0.18333816666665825,72,0.18594266666667636
23664,274.3780780958339,63,0.0464856666666833,85,0.13945699999999306
23665,274.5175350958339,64,0.13945699999999306,91,0.1824316666666732
23666,274.65435884583394,73,0.13682375000001912,85,0.13682374999996227
23667,274.6999667625006,44,0.04560791666665409,69,0.18418716666661794
23668,274.8841539291672,40,0.18418716666661794,60,0.18594266666667636
23669,275.0700965958339,68,0.18594266666667636,104,0.18073366666664015
23670,275.2056468458339,59,0.13555024999999432,93,0.13555024999999432
23671,275.25083026250053,39,0.045183416666645826,72,0.18333816666665825
23672,275.4341684291672,44,0.18333816666665825,80,0.18594266666667636
23673,275.48065409583387,61,0.0464856666666833,91,0.13945699999999306
23674,275.62011109583386,63,0.13945699999999306,96,0.1824316666666732
23675,275.7569348458339,56,0.13682375000001912,91,0.13682374999996227
23676,275.80254276250054,44,0.04560791666665409,75,0.18200116666662325
23677,276.09802559583386,15,0.2954828333333239,66,0.09068070833330921
23678,276.16611459583385,63,0.0680889999999863,104,0.13555024999999432
23679,276.30166484583384,56,0.13555024999999432,93,0.13555024999999432
23680,276.3468482625005,39,0.045183416666645826,72,0.18333816666665825
23681,276.53018642916714,44,0.18333816666665825,75,0.18594266666667636
23682,276.5766720958338,58,0.0464856666666833,89,0.13945699999999306
23683,276.7161290958338,59,0.13945699999999306,94,0.1824316666666732
23684,276.85295284583384,68,0.13682375000001912,89,0.13682374999996227
23685,276.8985607625005,44,0.04560791666665409,71,0.18418716666661794
23686,277.0827479291671,39,0.18418716666661794,62,0.18594266666667636
23687,277.2686905958338,67,0.18594266666667636,107,0.18073366666664015
23688,277.4042408458338,59,0.13555024999999432,93,0.13555024999999432
23689,277.44942426250043,39,0.045183416666645826,72,0.18333816666665825
23690,277.6327624291671,43,0.18333816666665825,80,0.18594266666667636
23691,277.67924809583377,61,0.0464856666666833,91,0.13945699999999306
23692,277.81870509583376,63,0.13945699999999306,94,0.1824316666666732
23693,277.9555288458338,55,0.13682375000001912,91,0.13682374999996227
23694,278.00113676250044,43,0.04560791666665409,75,0.18200116666662325
23695,278.29661959583376,27,0.2954828333333239,66,0.09068070833330921
23696,278.36470859583375,63,0.0680889999999863,104,0.13555024999999432
23697,278.50025884583374,55,0.13555024999999432,93,0.13555024999999432
23698,278.5454422625004,39,0.045183416666645826,72,0.18333816666665825
23699,278.72878042916705,43,0.18333816666665825,75,0.18594266666667636
23700,278.77526609583373,58,0.0464856666666833,89,0.13945699999999306
23701,278.9147230958337,59,0.13945699999999306,94,0.1824316666666732
23702,279.05154684583374,67,0.13682375000001912,89,0.13682374999996227
23703,279.0971547625004,43,0.04560791666665409,71,0.18418716666661794
23704,279.281341929167,39,0.18418716666661794,62,0.18594266666667636
23705,279.4672845958337,67,0.18594266666667636,104,0.18073366666664015
23706,279.6028348458337,58,0.13555024999999432,93,0.13555024999999432
23707,279.64801826250033,43,0.045183416666645826,72,0.18333816666665825
23708,279.831356429167,46,0.18333816666665825,80,0.18594266666667636
23709,279.87784209583367,60,0.0464856666666833,91,0.13945699999999306
23710,280.01729909583366,62,0.13945699999999306,96,0.1824316666666732
23711,280.1541228458337,55,0.13682375000001912,91,0.13682374999996227
23712,280.19973076250034,46,0.04560791666665409,75,0.18200116666662325
23713,280.49521359583366,26,0.2954828333333239,66,0.09068070833330921
23714,280.56330259583365,62,0.0680889999999863,104,0.13555024999999432
23715,280.69885284583364,55,0.13555024999999432,93,0.13555024999999432
23716,280.7440362625003,43,0.045183416666645826,72,0.18333816666665825
23717,280.92737442916695,46,0.18333816666665825,75,0.18594266666667636
23718,280.97386009583363,57,0.0464856666666833,89,0.13945699999999306
23719,281.1133170958336,58,0.13945699999999306,94,0.1824316666666732
23720,281.25014084583364,67,0.13682375000001912,89,0.13682374999996227
23721,281.2957487625003,46,0.04560791666665409,71,0.18418716666661794
23722,281.4799359291669,43,0.18418716666661794,62,0.18594266666667636
23723,281.6658785958336,65,0.18594266666667636,104,0.18073366666664015
23724,281.8014288458336,58,0.13555024999999432,93,0.13555024999999432
23725,281.84661226250023,38,0.045183416666645826,72,0.18333816666665825
23726,282.0299504291669,41,0.18333816666665825,80,0.18594266666667636
23727,282.07643609583357,60,0.0464856666666833,91,0.13945699999999306
23728,282.21589309583356,62,0.13945699999999306,96,0.1824316666666732
23729,282.3527168458336,53,0.13682375000001912,91,0.13682374999996227
23730,282.39832476250024,41,0.04560791666665409,75,0.18200116666662325
23731,282.69380759583356,22,0.2954828333333239,66,0.09068070833330921
23732,282.76189659583355,65,0.0680889999999863,104,0.13555024999999432
23733,282.89744684583354,58,0.13555024999999432,93,0.13555024999999432
23734,282.9426302625002,38,0.045183416666645826,72,0.18333816666665825
23735,283.12596842916685,41,0.18333816666665825,75,0.18594266666667636
23736,283.17245409583353,60,0.0464856666666833,89,0.13945699999999306
23737,283.3119110958335,62,0.13945699999999306,94,0.1824316666666732
23738,283.44873484583354,70,0.13682375000001912,89,0.13682374999996227
23739,283.4943427625002,41,0.04560791666665409,71,0.18418716666661794
23740,283.6785299291668,38,0.18418716666661794,62,0.18594266666667636
23741,283.8644725958335,65,0.18594266666667636,104,0.18073366666664015
23742,284.0000228458335,57,0.13555024999999432,93,0.13555024999999432
23743,284.04520626250013,36,0.045183416666645826,72,0.18333816666665825
23744,284.2285444291668,41,0.18333816666665825,80,0.18594266666667636
23745,284.2750300958335,58,0.0464856666666833,91,0.13945699999999306
23746,284.41448709583346,60,0.13945699999999306,96,0.1824316666666732
23747,284.5513108458335,53,0.13682375000001912,91,0.13682374999996227
23748,284.59691876250014,41,0.04560791666665409,75,0.18200116666662325
23749,284.77891992916676,36,0.18200116666662325,66,0.18157066666668698
23750,284.96049059583345,60,0.18157066666668698,104,0.18073366666664015
23751,285.09604084583344,53,0.13555024999999432,93,0.13555024999999432
23752,285.1412242625001,36,0.045183416666645826,72,0.18333816666665825
23753,285.32456242916675,41,0.18333816666665825,75,0.18594266666667636
23754,285.37104809583343,55,0.0464856666666833,89,0.13945699999999306
23755,285.5105050958334,56,0.13945699999999306,94,0.1824316666666732
23756,285.64732884583344,65,0.13682375000001912,89,0.13682374999996227
23757,285.6929367625001,41,0.04560791666665409,71,0.18418716666661794
23758,285.8771239291667,36,0.18418716666661794,62,0.18594266666667636
23759,286.0630665958334,68,0.18594266666667636,92,0.18073366666664015
23760,286.24380026250003,57,0.18073366666664015,86,0.18333816666665825
23761,286.4271384291667,63,0.18333816666665825,90,0.18594266666667636
23762,286.61308109583337,56,0.18594266666667636,83,0.1824316666666732
23763,286.79551276250004,60,0.1824316666666732,91,0.18380849999999782
23764,286.97932126250004,48,0.18380849999999782,82,0.18518533333332243
23765,287.07191392916667,20,0.0925926666666328,59,0.09259266666668964
23766,287.16450659583336,56,0.09259266666668964,92,0.18604666666664116
23767,287.3505532625,45,0.18604666666664116,86,0.18826150000001007
23768,287.5388147625,51,0.18826150000001007,85,0.19047633333332215
23769,287.72929109583333,39,0.19047633333332215,78,0.18518533333332243
23770,287.91447642916665,44,0.18518533333332243,81,0.18385691666668436
23771,288.09833334583334,44,0.18385691666668436,73,0.18348633333334874
23772,288.2818196791667,45,0.18348633333334874,86,0.2756140833333234
23773,288.4186455958333,42,0.13682591666662347,69,0.1387881666666999
23774,288.5574337625,40,0.1387881666666999,68,0.14081641666666656
23775,288.6982501791667,38,0.14081641666666656,59,0.1505352499999617
23776,288.84878542916664,50,0.1505352499999617,68,0.1361779999999726
23777,288.9849634291666,42,0.1361779999999726,62,0.13617800000002944
23778,289.12114142916664,33,0.13617800000002944,39,0.140818749999994
23779,289.26196017916664,43,0.140818749999994,66,0.140818749999994
23780,289.40277892916663,45,0.140818749999994,69,0.1361779999999726
23781,289.5389569291666,54,0.1361779999999726,67,0.13617800000002944
23782,289.67513492916663,38,0.13617800000002944,42,0.14013449999998784
23783,289.8152694291666,30,0.14013449999998784,44,0.14013449999998784
23784,289.9554039291666,57,0.14013449999998784,72,0.1361779999999726
23785,290.0915819291666,50,0.1361779999999726,66,0.13617800000002944
23786,290.2277599291666,42,0.13617800000002944,44,0.13945699999999306
23787,290.3672169291666,52,0.13945699999999306,70,0.13945699999999306
23788,290.5066739291666,54,0.13945699999999306,74,0.13333325000002105
23789,290.6400071791666,62,0.13333325000002105,70,0.1333332499999642
23790,290.7733404291666,45,0.1333332499999642,44,0.1351352500000189
23791,290.9084756791666,38,0.1351352500000189,44,0.13513524999996207
23792,291.04361092916656,66,0.13513524999996207,79,0.1315789999999879
23793,291.17518992916655,57,0.1315789999999879,74,0.1315789999999879
23794,291.30676892916654,50,0.1315789999999879,48,0.13452925000001414
23795,291.44129817916655,61,0.13452925000001414,75,0.13452925000001414
23796,291.57582742916657,62,0.13452925000001414,80,0.1310042499999895
23797,291.70683167916656,69,0.1310042499999895,75,0.13337666666666337
23798,291.8402083458332,54,0.13337666666666337,51,0.1381215000000111
23799,291.97832984583323,45,0.1381215000000111,52,0.1395350000000235
23800,292.11786484583325,61,0.1395350000000235,89,0.18851933333337456
23801,292.2607220958333,37,0.14285725000002003,56,0.13698625000000675
23802,292.3063841791666,70,0.04566208333335453,79,0.18264833333330444
23803,292.3977083458333,46,0.09132416666665222,56,0.13698625000000675
23804,292.48903251249993,70,0.09132416666665222,79,0.18264833333336128
23805,292.5346945958333,40,0.04566208333335453,56,0.13698625000000675
23806,292.6716808458333,70,0.13698625000000675,85,0.1361779999999726
23807,292.80785884583327,69,0.1361779999999726,79,0.13617800000002944
23808,292.9440368458333,45,0.13617800000002944,53,0.13878599999998187
23809,293.0828228458333,38,0.13878599999998187,53,0.13918222916669265
23810,293.22200507499997,50,0.13918222916669265,68,0.1361779999999726
23811,293.35818307499994,42,0.1361779999999726,62,0.13617800000002944
23812,293.494361075,33,0.13617800000002944,39,0.140818749999994
23813,293.63517982499997,43,0.140818749999994,66,0.140818749999994
23814,293.77599857499996,45,0.140818749999994,69,0.1361779999999726
23815,293.91217657499993,54,0.1361779999999726,67,0.13617800000002944
23816,294.04835457499996,38,0.13617800000002944,42,0.14013449999998784
23817,294.18848907499995,30,0.14013449999998784,44,0.14013449999998784
23818,294.32862357499994,57,0.14013449999998784,72,0.1361779999999726
23819,294.4648015749999,50,0.1361779999999726,66,0.13617800000002944
23820,294.60097957499994,42,0.13617800000002944,44,0.13945699999999306
23821,294.74043657499993,52,0.13945699999999306,70,0.13945699999999306
23822,294.8798935749999,54,0.13945699999999306,74,0.1351352500000189
23823,295.01502882499994,62,0.1351352500000189,70,0.13513524999996207
23824,295.1501640749999,45,0.13513524999996207,44,0.13698625000000675
23825,295.2871503249999,38,0.13698625000000675,44,0.13698625000000675
23826,295.4241365749999,66,0.13698625000000675,79,0.13215850000000273
23827,295.5562950749999,57,0.13215850000000273,74,0.13215850000000273
23828,295.6884535749999,50,0.13215850000000273,48,0.1351352500000189
23829,295.82358882499994,61,0.1351352500000189,75,0.13513524999996207
23830,295.9587240749999,62,0.13513524999996207,80,0.1315789999999879
23831,296.0903030749999,69,0.1315789999999879,75,0.13375983333332897
23832,296.2240629083332,54,0.13375983333332897,51,0.1381215000000111
23833,296.36218440833323,45,0.1381215000000111,52,0.1395350000000235
23834,296.50171940833326,61,0.1395350000000235,89,0.186058583333363
23835,296.6419064083333,37,0.14018700000002582,56,0.13761475000001155
23836,296.6877779916666,70,0.045871583333337185,79,0.1839090000000283
23837,296.7795211583333,46,0.09174316666667437,56,0.13824875000000247
23838,296.87168699166665,70,0.09216583333335393,79,0.18433166666665102
23839,296.9177699083333,40,0.04608291666664854,56,0.13824875000000247
23840,297.0560186583333,71,0.13824875000000247,85,0.18157066666668698
23841,297.237589325,60,0.18157066666668698,80,0.19948099999999158
23842,297.437070325,49,0.19948099999999158,66,0.41281043750001345
23843,297.65283642916665,48,0.21576610416667563,58,0.19704433333333782
23844,297.8498807625,45,0.19704433333333782,61,0.20547399999998106
23845,298.0553547625,52,0.20547399999998106,70,0.39408866666667564
23846,298.2523990958333,51,0.19704433333333782,63,0.19704433333333782
23847,298.44944342916665,45,0.19704433333333782,63,0.20721783333334542
23848,298.6566612625,49,0.20721783333334542,72,0.39408866666667564
23849,298.85370559583333,48,0.19704433333333782,64,0.19704433333333782
23850,299.05074992916667,45,0.19704433333333782,68,0.2066303333333508
23851,299.2573802625,52,0.2066303333333508,74,0.39408866666667564
23852,299.45442459583336,51,0.19704433333333782,68,0.19704433333333782
23853,299.6514689291667,45,0.19704433333333782,71,0.2066303333333508
23854,299.85809926250005,57,0.2066303333333508,79,0.39408866666667564
23855,300.0551435958334,56,0.19704433333333782,70,0.19704433333333782
23856,300.2521879291667,54,0.19704433333333782,72,0.2049051666666628
23857,300.4570930958334,61,0.2049051666666628,80,0.3960538750000069
23858,300.65610263750006,60,0.19900954166666907,73,0.19704433333333782
23859,300.8531469708334,57,0.19704433333333782,75,0.20323416666667526
23860,301.05638113750007,64,0.20323416666667526,85,0.39408866666667564
23861,301.2534254708334,63,0.19704433333333782,75,0.19704433333333782
23862,301.45046980416674,57,0.19704433333333782,81,0.20323416666667526
23863,301.6537039708334,69,0.20323416666667526,89,0.39604933333333747
23864,301.85074830416676,48,0.19704433333333782,58,0.19900499999999965
23865,302.04975330416676,68,0.19900499999999965,75,0.20102533333334804
23866,302.2507786375001,67,0.20102533333334804,74,0.20304566666669643
23867,302.4538243041668,66,0.20304566666669643,77,0.2030456666666396
23868,302.65686997083344,65,0.2030456666666396,73,0.20304566666669643
23869,302.85991563750014,64,0.20304566666669643,70,0.2030456666666396
23870,303.0629613041668,63,0.2030456666666396,73,0.6091370000000325
23871,303.2660069708335,62,0.20304566666669643,68,0.2030456666666396
23872,303.4690526375001,61,0.2030456666666396,66,0.20304566666669643
23873,303.6720983041668,60,0.20304566666669643,69,0.6091369999999756
23874,303.87514397083345,59,0.2030456666666396,63,0.20304566666669643
23875,304.07818963750015,58,0.20304566666669643,63,0.2030456666666396
23876,304.2812353041668,57,0.2030456666666396,62,1.2216002083332569
23877,304.48249538750014,56,0.2012600833333522,59,0.20189341666667815
23878,304.6843888041668,55,0.20189341666667815,59,0.20291749999995545
23879,304.88730630416677,54,0.20291749999995545,59,0.20408166666663874
23880,305.0913879708334,53,0.20408166666663874,53,0.20512833333333447
23881,305.29651630416674,52,0.20512833333333447,53,0.20631920833329787
23882,305.50283551250004,51,0.20631920833329787,53,0.6217619999999897
23883,305.7100895125001,48,0.20725400000003447,49,0.20725399999997762
23884,305.91734351250005,42,0.20725399999997762,49,0.20725399999997762
23885,306.12459751250003,51,0.20725399999997762,52,0.5966463333333536
23886,306.34157534583335,58,0.216977833333317,53,0.2255431250000015
23887,306.56711847083335,56,0.2255431250000015,49,0.1541253750000351
23888,306.7212438458334,41,0.1541253750000351,39,0.10869562499999574
23889,306.8299394708334,56,0.10869562499999574,49,1.8976503958332955
23890,308.1031494708334,53,1.273210000000006,49,1.2488553958332886
23891,308.7275898666667,54,0.6244403958332896,44,0.624414999999999
23892,309.2739529916667,20,0.5463631250000276,29,2.659397874999911
23893,309.3520048666667,53,0.07805187499997146,47,2.5813459999999395
23894,310.63145886666666,51,1.279453999999987,41,1.3018919999999525
23895,310.95132236666666,33,0.31986349999999675,33,0.31986349999999675
23896,311.27118586666666,34,0.31986349999999675,35,0.31986349999999675
23897,311.59104936666665,32,0.31986349999999675,33,0.3423014999999623
23898,311.9333508666666,56,0.3423014999999623,49,1.311331999999993
23899,312.5890168666666,53,0.6556659999999965,49,0.6556659999999965
23900,313.2446828666666,54,0.6556659999999965,49,0.6352701062499477
23901,313.55695547291657,53,0.31227260624996234,47,0.3229974999999854
23902,313.87995297291656,56,0.3229974999999854,44,0.6320709999999963
23903,314.19216047291656,54,0.3122074999999995,41,0.31986349999999675
23904,314.51202397291655,53,0.31986349999999675,45,2.546598999999958
23905,314.83188747291655,33,0.31986349999999675,37,0.31986349999999675
23906,315.15175097291655,36,0.31986349999999675,35,0.21324233333336906
23907,315.3649933062499,34,0.21324233333336906,34,0.21324233333331222
23908,315.5782356395832,32,0.21324233333331222,34,0.21324233333331222
23909,315.79147797291654,51,0.21324233333331222,41,1.2671449999999709
23910,316.10518697291656,21,0.3137090000000171,37,0.31370899999996027
23911,316.4188959729165,24,0.31370899999996027,35,0.21324233333331222
23912,316.63213830624983,22,0.21324233333331222,34,0.21324233333336906
23913,316.8453806395832,20,0.21324233333336906,34,0.21324233333331222
23914,317.0586229729165,56,0.21324233333331222,53,0.6397269999999935
23915,317.6983499729165,58,0.6397269999999935,51,0.6397269999999935
23916,318.3380769729165,60,0.6397269999999935,52,1.2488619000000085
23917,318.9625238729165,61,0.6244469000000095,58,0.4683112499999993
23918,319.4308351229165,63,0.4683112499999993,60,0.15610374999999976
23919,319.50888699791653,25,0.0780518750000283,39,0.7024668749999705
23920,319.54791293541655,32,0.03902593750001415,39,0.03902593749995731
23921,319.5869388729165,65,0.03902593749995731,61,0.624414999999999
23922,320.2113538729165,58,0.624414999999999,51,0.6556659999999965
23923,320.8670198729165,60,0.6556659999999965,52,0.6244801062499619
23924,321.4134481041665,46,0.5464282312499904,56,0.7085618749999867
23925,321.4524740416665,51,0.03902593750001415,56,0.03902593749995731
23926,321.49149997916646,61,0.03902593749995731,58,0.6305100000000152
23927,321.96285872916644,63,0.47135874999997895,60,0.15915125000003627
23928,322.1220099791665,65,0.15915125000003627,63,0.6442609999999718
23929,322.76627097916645,63,0.6442609999999718,60,0.6442610000000286
23930,323.4105319791665,58,0.6442610000000286,63,0.6442609999999718
23931,324.05479297916645,60,0.6442609999999718,63,0.4683112499999993
23932,324.52310422916645,53,0.4683112499999993,57,0.15610374999999976
23933,324.67920797916645,56,0.15610374999999976,61,0.6397269999999935
23934,325.31893497916644,51,0.6397269999999935,59,0.4683112499999993
23935,325.78724622916644,53,0.4683112499999993,56,0.15610374999999976
23936,325.94334997916644,51,0.15610374999999976,59,1.3078615000000013
23937,326.56776497916644,48,0.624414999999999,49,0.6834465000000023
23938,326.9005804791664,46,0.33281549999998106,50,0.35063100000002123
23939,327.25121147916644,56,0.35063100000002123,64,1.279453999999987
23940,327.46445381249976,31,0.21324233333331222,33,0.21324233333336906
23941,327.6776961458331,32,0.21324233333336906,31,0.21324233333331222
23942,327.89093847916644,34,0.21324233333331222,37,0.21324233333331222
23943,328.10418081249975,32,0.21324233333331222,31,0.21324233333336906
23944,328.3174231458331,20,0.21324233333336906,31,0.21324233333331222
23945,328.53066547916643,53,0.21324233333331222,60,0.624414999999999
23946,328.7388038124998,31,0.20813833333335197,35,0.20813833333329512
23947,328.9469421458331,32,0.20813833333329512,35,0.20813833333335197
23948,329.15508047916643,44,0.20813833333335197,39,0.31986349999999675
23949,329.36832281249974,32,0.21324233333331222,33,0.21755966666665927
23950,329.4749439791664,54,0.10662116666668453,55,0.33281549999998106
23951,329.5858824791664,20,0.11093849999997474,33,0.22187700000000632
23952,329.8077594791664,53,0.22187700000000632,68,1.2671449999999709
23953,330.01689881249973,31,0.2091393333333258,35,0.2091393333333258
23954,330.22603814583306,32,0.2091393333333258,35,0.2091393333333258
23955,330.4351774791664,34,0.2091393333333258,37,0.21324233333331222
23956,330.6484198124997,32,0.21324233333331222,33,0.21324233333336906
23957,330.7550409791664,51,0.10662116666668453,55,0.31986349999999675
23958,330.86166214583307,20,0.10662116666668453,33,0.21324233333331222
23959,331.0749044791664,46,0.21324233333331222,58,0.3122074999999995
23960,331.28304281249973,31,0.20813833333335197,35,0.20813833333329512
23961,331.3871119791664,44,0.10406916666664756,52,0.3122074999999995
23962,331.491181145833,32,0.10406916666664756,35,0.20813833333335197
23963,331.6993194791664,37,0.20813833333335197,61,0.32140550000002577
23964,331.9135898124997,32,0.21427033333333156,33,0.21674841666668954
23965,332.0207249791664,39,0.1071351666666942,55,0.3316629166666871
23966,332.1303382291664,20,0.10961324999999533,33,0.2220496666666918
23967,332.3523878958331,56,0.2220496666666918,68,1.279453999999987
23968,332.6722513958331,31,0.31986349999999675,34,0.15993174999999837
23969,332.8321831458331,32,0.15993174999999837,33,0.15993174999999837
23970,332.9921148958331,53,0.15993174999999837,62,0.6397269999999935
23971,333.1520466458331,32,0.15993174999999837,31,0.14393857499999285
23972,333.3119783958331,32,0.15993174999999837,37,0.15993174999999837
23973,333.4719101458331,20,0.15993174999999837,37,0.15993174999999837
23974,333.6318418958331,54,0.15993174999999837,66,1.2641419999999925
23975,333.9440493958331,53,0.3122074999999995,55,0.3122074999999995
23976,334.1001531458331,32,0.15610374999999976,35,0.15610374999999976
23977,334.2562568958331,53,0.15610374999999976,57,0.21324233333331222
23978,334.4161886458331,32,0.15993174999999837,33,0.14393857499999285
23979,334.4694992291664,56,0.05331058333331384,55,0.21324233333336906
23980,334.5761203958331,32,0.10662116666668453,37,0.15993174999999837
23981,334.68274156249976,54,0.10662116666668453,55,0.21324233333331222
23982,334.73605214583307,20,0.05331058333331384,31,0.15993174999999837
23983,334.89598389583307,53,0.15993174999999837,64,1.2671449999999709
23984,335.2096928958331,31,0.3137090000000171,35,0.15685450000000856
23985,335.3665473958331,32,0.15685450000000856,35,0.1568544999999517
23986,335.52340189583305,34,0.1568544999999517,37,0.15993174999999837
23987,335.68333364583305,32,0.15993174999999837,33,0.14393857499999285
23988,335.84326539583304,51,0.15993174999999837,58,0.31986349999999675
23989,336.00319714583304,20,0.15993174999999837,33,0.15993174999999837
23990,336.16312889583304,46,0.15993174999999837,60,0.3122074999999995
23991,336.3712672291664,44,0.20813833333335197,51,0.20813833333329512
23992,336.47533639583304,31,0.10406916666664756,35,0.15610374999999976
23993,336.5794055624997,46,0.10406916666664756,51,0.20813833333335197
23994,336.63144014583304,32,0.0520345833333522,35,0.15610374999999976
23995,336.78754389583304,44,0.15610374999999976,58,0.21427033333333156
23996,336.948246645833,32,0.16070274999998446,35,0.14463247500003718
23997,337.00181422916637,37,0.0535675833333471,53,0.22097850000000108
23998,337.10894939583306,32,0.1071351666666942,39,0.17076500000001715
23999,337.2227927291664,39,0.11384333333330687,53,0.14230416666669043
24000,337.2797143958331,20,0.05692166666671028,35,0.1707649999999603
24001,337.36509689583306,41,0.08538249999998015,51,0.7281934999999748
24002,337.4077881458331,49,0.0426912500000185,61,1.31901524999995
24003,337.45047939583304,56,0.042691249999961656,73,0.6428109999999947
24004,337.611182145833,32,0.16070274999998446,39,0.1607027500000413
24005,337.77188489583307,34,0.1607027500000413,39,0.16070274999998446
24006,337.93258764583305,32,0.16070274999998446,39,0.16070274999998446
24007,338.09329039583304,58,0.16070274999998446,68,0.6335129999999936
24008,338.25166864583304,32,0.1583782499999984,40,0.1583782499999984
24009,338.41004689583303,34,0.1583782499999984,40,0.1583782499999984
24010,338.56842514583303,32,0.1583782499999984,41,0.1583782499999984
24011,338.72680339583303,60,0.1583782499999984,73,1.263323000000014
24012,338.88518164583303,32,0.1583782499999984,40,0.1583782499999984
24013,339.043559895833,34,0.1583782499999984,41,0.1583782499999984
24014,339.201938145833,32,0.1583782499999984,41,0.1583782499999984
24015,339.360316395833,61,0.1583782499999984,75,0.4683112499999993
24016,339.516420145833,32,0.15610374999999976,44,0.15610374999999976
24017,339.672523895833,34,0.15610374999999976,44,0.15610374999999976
24018,339.828627645833,63,0.15610374999999976,73,0.16149875000002112
24019,339.99012639583304,65,0.16149875000002112,80,1.267025999999987
24020,340.14850464583304,32,0.1583782499999984,42,0.1583782499999984
24021,340.30688289583304,34,0.1583782499999984,42,0.1583782499999984
24022,340.46526114583304,32,0.1583782499999984,42,0.1583782499999984
24023,340.62363939583304,58,0.1583782499999984,73,0.6335129999999936
24024,340.78201764583304,32,0.1583782499999984,46,0.1583782499999984
24025,340.94039589583303,34,0.1583782499999984,46,0.1583782499999984
24026,341.09877414583303,32,0.1583782499999984,46,0.1583782499999984
24027,341.25715239583303,60,0.1583782499999984,78,1.27487450000001
24028,341.41553064583303,32,0.1583782499999984,46,0.1583782499999984
24029,341.57390889583303,34,0.1583782499999984,46,0.1583782499999984
24030,341.732287145833,32,0.1583782499999984,46,0.1583782499999984
24031,341.890665395833,61,0.1583782499999984,81,0.47905900000000656
24032,342.049043645833,32,0.1583782499999984,49,0.1583782499999984
24033,342.207421895833,34,0.1583782499999984,49,0.1623025000000098
24034,342.36972439583303,63,0.1623025000000098,77,0.1623025000000098
24035,342.53202689583304,65,0.1623025000000098,88,1.2858149999999569
24036,342.694329395833,28,0.16230249999995294,51,0.1623025000000098
24037,342.856631895833,29,0.1623025000000098,51,0.1623025000000098
24038,343.018934395833,36,0.1623025000000098,51,0.1623025000000098
24039,343.181236895833,66,0.1623025000000098,91,0.9503139999999917
24040,343.340388145833,40,0.15915124999997943,53,0.15915125000003627
24041,343.49953939583304,41,0.15915125000003627,53,0.15915124999997943
24042,343.658690645833,48,0.15915124999997943,53,0.15915124999997943
24043,343.817841895833,61,0.15915124999997943,74,1.2827015000000301
24044,343.974696395833,28,0.15685450000000856,52,0.15685450000000856
24045,344.131550895833,65,0.15685450000000856,80,0.3229974999999854
24046,344.29304964583304,37,0.16149875000002112,53,0.16149874999996428
24047,344.454548395833,64,0.16149874999996428,79,0.32299750000004224
24048,344.616047145833,40,0.16149875000002112,55,0.16149875000002112
24049,344.77754589583304,65,0.16149875000002112,79,0.3229974999999854
24050,344.939044645833,49,0.16149874999996428,56,0.16149875000002112
24051,345.10054339583303,68,0.16149875000002112,90,1.2795079999999643
24052,345.262042145833,31,0.16149874999996428,55,0.16149875000002112
24053,345.423540895833,32,0.16149875000002112,55,0.16149875000002112
24054,345.58503964583304,39,0.16149875000002112,55,0.16149874999996428
24055,345.746538395833,70,0.16149874999996428,84,0.9413629999999671
24056,345.904916645833,43,0.1583782499999984,57,0.1583782499999984
24057,346.063294895833,44,0.1583782499999984,57,0.1583782499999984
24058,346.221673145833,51,0.1583782499999984,57,0.1583782499999984
24059,346.380051395833,65,0.1583782499999984,85,0.6246064999999703
24060,346.533976395833,33,0.1539250000000152,56,0.15392499999995835
24061,346.68790139583297,68,0.15392499999995835,77,0.3167564999999968
24062,346.84627964583296,41,0.1583782499999984,57,0.1583782499999984
24063,347.00465789583296,66,0.1583782499999984,84,0.6335129999999936
24064,347.16303614583296,45,0.1583782499999984,58,0.1583782499999984
24065,347.32141439583296,46,0.1583782499999984,59,0.1583782499999984
24066,347.47979264583296,65,0.1583782499999984,78,0.1583782499999984
24067,347.63817089583296,68,0.1583782499999984,88,0.6320709999999963
24068,347.79427464583296,22,0.15610374999999976,52,0.15610374999999976
24069,347.95037839583296,66,0.15610374999999976,76,0.31986349999999675
24070,348.11031014583295,34,0.15993174999999837,52,0.15993174999999837
24071,348.27024189583295,65,0.15993174999999837,73,0.6351145000000429
24072,348.42709639583296,22,0.15685450000000856,52,0.15685450000000856
24073,348.58395089583297,62,0.15685450000000856,68,0.32140550000002577
24074,348.74465364583295,34,0.16070274999998446,52,0.1607027500000413
24075,348.905356395833,65,0.1607027500000413,79,0.6190105000000017
24076,349.057826395833,22,0.1524699999999939,52,0.1524699999999939
24077,349.210296395833,63,0.1524699999999939,69,0.3140705000000139
24078,349.36733164583296,34,0.15703524999997853,52,0.15703525000003538
24079,349.524366895833,58,0.15703525000003538,72,0.6158739999999625
24080,349.677568895833,25,0.1532020000000216,52,0.15320199999996476
24081,349.830770895833,61,0.15320199999996476,67,0.6129294999999502
24082,349.985505895833,34,0.1547350000000165,52,0.15473499999995965
24083,350.14024089583296,51,0.15473499999995965,64,0.6159919999999488
24084,350.291970645833,27,0.15172975000001543,52,0.15172974999995859
24085,350.44370039583293,60,0.15172974999995859,71,0.6189364999999611
24086,350.5999666458329,36,0.1562662499999874,52,0.1562662499999874
24087,350.7562328958329,54,0.1562662499999874,73,0.6278095000000121
24088,350.90943489583293,25,0.1532020000000216,52,0.15320199999996476
24089,351.0626368958329,58,0.15320199999996476,72,0.6428109999999947
24090,351.2233396458329,37,0.16070274999998446,52,0.1607027500000413
24091,351.3840423958329,54,0.1607027500000413,80,0.6381619999999657
24092,351.5447451458329,27,0.16070274999998446,47,0.16070274999998446
24093,351.7054478958329,57,0.16070274999998446,71,0.626066499999979
24094,351.8638261458329,39,0.1583782499999984,47,0.1583782499999984
24095,352.0222043958329,54,0.1583782499999984,73,0.626066499999979
24096,352.1768593958329,30,0.1546549999999911,47,0.1546549999999911
24097,352.33151439583287,56,0.1546549999999911,70,0.6289639999999963
24098,352.48989264583287,42,0.1583782499999984,47,0.1583782499999984
24099,352.64827089583287,41,0.1583782499999984,55,0.3122074999999995
24100,352.96047839583287,57,0.3122074999999995,72,0.3167564999999968
24101,353.27723489583286,58,0.3167564999999968,77,0.32140550000002577
24102,353.5986403958329,56,0.32140550000002577,72,0.3214054999999689
24103,353.92004589583286,51,0.3214054999999689,69,0.32140550000002577
24104,354.2414513958329,53,0.32140550000002577,68,0.31072000000000344
24105,354.5521713958329,54,0.31072000000000344,70,0.31986349999999675
24106,354.8720348958329,48,0.31986349999999675,68,0.3294895000000224
24107,355.2015243958329,49,0.3294895000000224,69,0.3167564999999968
24108,355.5182808958329,51,0.3167564999999968,67,0.31986349999999675
24109,355.8381443958329,53,0.31986349999999675,70,0.31986349999999675
24110,356.1580078958329,46,0.31986349999999675,69,0.23989762500002598
24111,356.3979055208329,37,0.23989762500002598,50,0.07996587499997077
24112,356.4778713958329,49,0.07996587499997077,69,1.3314740000000143
24113,356.8073608958329,20,0.3294895000000224,48,1.0019844999999918
24114,357.1368503958329,48,0.3294894999999656,61,0.6724950000000263
24115,357.4730978958329,32,0.33624750000001313,51,0.5172428333333414
24116,357.8093453958329,49,0.33624750000001313,77,0.1809953333333283
24117,357.8161327208329,37,0.006787325000004785,65,0.1809953333333283
24118,357.99034072916623,45,0.1742080083333235,73,0.09049766666669257
24119,358.1677948958329,45,0.1774541666666778,73,0.08695650000004207
24120,358.34170789583294,45,0.1739130000000273,75,0.1694916666666586
24121,358.5111995624996,44,0.1694916666666586,66,0.0847458333333293
24122,358.6759005624996,54,0.16470099999997956,74,0.0799551666667071
24123,358.83581089583294,54,0.15991033333335736,75,0.16122533333333422
24124,358.99703622916627,53,0.16122533333333422,74,0.08061266666663869
24125,359.1560003958329,57,0.15896416666663526,74,0.07835149999999658
24126,359.3127033958329,57,0.15670299999999315,75,0.15670299999999315
24127,359.4694063958329,56,0.15670299999999315,69,0.07835149999999658
24128,359.6261093958329,66,0.15670299999999315,73,0.07835149999999658
24129,359.78281239583293,66,0.15670300000005,78,0.15670299999999315
24130,359.9395153958329,65,0.15670299999999315,73,0.07835149999999658
24131,360.0962183958329,57,0.15670299999999315,73,0.07835149999999658
24132,360.2529213958329,57,0.15670299999999315,78,0.15626291666660563
24133,360.4091843124995,56,0.15626291666660563,70,0.07747133333333522
24134,360.5641269791662,54,0.15494266666667045,74,0.07747133333333522
24135,360.71906964583286,54,0.15494266666667045,78,0.15494266666667045
24136,360.87401231249953,53,0.15494266666667045,69,0.07747133333333522
24137,361.0289549791662,45,0.15494266666667045,74,0.07747133333333522
24138,361.1838976458329,45,0.15494266666667045,75,0.15494266666667045
24139,361.33884031249954,44,0.15494266666667045,66,0.07747133333333522
24140,361.4965234791662,42,0.15768316666668625,74,0.08021183333329418
24141,361.6569471458329,42,0.1604236666666452,75,0.1652483333333521
24142,361.8221954791662,41,0.1652483333333521,63,0.08262416666667605
24143,361.9874438124995,46,0.16524833333329525,59,0.07906383333335043
24144,362.14557147916616,46,0.15812766666664402,62,0.15735633333332544
24145,362.3029278124995,44,0.15735633333332544,58,0.07867816666669114
24146,362.4602841458328,54,0.15735633333332544,52,0.07867816666669114
24147,362.61764047916614,54,0.15735633333332544,55,0.15735633333338228
24148,362.7749968124995,53,0.15735633333338228,52,0.0786781666666343
24149,362.93235314583285,58,0.15735633333332544,52,0.0786781666666343
24150,363.0897094791662,58,0.15735633333332544,55,0.15735633333332544
24151,363.2470658124995,56,0.15735633333332544,51,0.07867816666669114
24152,363.4044221458328,66,0.15735633333332544,46,0.07867816666669114
24153,363.56177847916615,66,0.15735633333332544,49,0.15735633333332544
24154,363.7191348124995,65,0.15735633333332544,46,0.07867816666669114
24155,363.87649114583286,58,0.15735633333338228,55,0.0786781666666343
24156,364.0338474791662,58,0.15735633333332544,59,0.15735633333332544
24157,364.1912038124995,56,0.15735633333332544,56,0.0786781666666343
24158,364.3504881458328,54,0.1592843333332894,56,0.0806061666666551
24159,364.51170047916617,54,0.16121233333336704,59,0.16357233333332033
24160,364.6752728124995,53,0.16357233333332033,55,0.08178616666668859
24161,364.8388451458328,46,0.16357233333332033,56,0.07867816666669114
24162,364.99620147916613,46,0.15735633333332544,59,0.1596933333333368
24163,365.15589481249947,44,0.1596933333333368,56,0.07984666666663998
24164,365.31958481249944,42,0.16368999999997413,62,0.08384333333333416
24165,365.4872714791661,42,0.16768666666666832,59,0.16520733333334192
24166,365.65247881249945,43,0.16520733333334192,52,0.08260366666667096
24167,365.8141776458328,48,0.16169883333333246,56,0.0790951666666615
24168,365.9723679791661,48,0.158190333333323,59,0.16122533333333422
24169,366.13359331249944,47,0.16122533333333422,51,0.08061266666663869
24170,366.2925574791661,53,0.15896416666663526,56,0.07835149999999658
24171,366.44926047916607,53,0.15670299999999315,59,0.15670299999999315
24172,366.60596347916606,52,0.15670299999999315,52,0.07835149999999658
24173,366.76266647916606,60,0.15670299999999315,56,0.07835149999999658
24174,366.9193694791661,60,0.15670300000005,59,0.15670299999999315
24175,367.0760724791661,59,0.15670299999999315,51,0.07835149999999658
24176,367.23463581249945,65,0.1585633333333476,55,0.08021183333329418
24177,367.3950594791661,65,0.1604236666666452,59,0.1604236666666452
24178,367.55548314583274,50,0.1604236666666452,63,0.16042366666670205
24179,367.71590681249944,56,0.16042366666670205,80,0.15983766666670363
24180,367.87574447916614,53,0.15983766666670363,74,0.15850449999999228
24181,368.03424897916614,59,0.15850449999999228,84,0.15737050000001318
24182,368.19161947916615,56,0.15737050000001318,79,0.15625700000003917
24183,368.3478764791662,62,0.15625700000003917,89,0.1546109999999885
24184,368.5024874791662,59,0.1546109999999885,85,0.15588633333339885
24185,368.6583738124996,65,0.15588633333339885,92,0.1571776666666551
24186,368.81555147916623,62,0.1571776666666551,86,0.15831600000001345
24187,368.97386747916624,68,0.15831600000001345,94,0.16654758333328346
24188,369.1404150624995,71,0.16654758333328346,90,0.17035766666668906
24189,369.3107727291662,72,0.17035766666668906,101,0.16768666666666832
24190,369.4784593958329,48,0.16768666666666832,77,0.1640679999999861
24191,369.6425273958329,48,0.1640679999999861,77,0.16242100000005166
24192,369.8049483958329,48,0.16242100000005166,77,0.16439266666662888
24193,369.96934106249955,48,0.16439266666662888,75,0.1596933333333368
24194,370.1290343958329,48,0.1596933333333368,75,0.16199566666665532
24195,370.29103006249954,48,0.16199566666665532,80,0.16357233333332033
24196,370.45460239583286,48,0.16357233333332033,77,0.15893199999999297
24197,370.61353439583286,48,0.15893199999999297,77,0.16199566666665532
24198,370.7755300624995,48,0.16199566666665532,81,0.16044933333336076
24199,370.9359793958329,48,0.16044933333336076,79,0.15383433333335006
24200,371.0898137291662,48,0.15383433333335006,79,0.15844674999999597
24201,371.2482604791662,48,0.15844674999999597,80,0.08260366666667096
24202,371.41115839583284,49,0.16289791666662268,81,0.07798483333334616
24203,371.56712806249953,49,0.15596966666669232,82,0.08099783333335608
24204,371.7291237291662,49,0.16199566666665532,83,0.07872149999997191
24205,371.8865667291662,49,0.15744300000000067,84,0.07655799999997726
24206,372.0396827291662,49,0.15311600000001135,85,0.08061266666663869
24207,372.20090806249954,49,0.16122533333333422,86,0.08178616666668859
24208,372.36448039583286,49,0.16357233333332033,88,0.07726183333335257
24209,372.5190040624995,49,0.1545236666666483,90,0.07984666666663998
24210,372.67869739583284,49,0.1596933333333368,91,0.07984666666663998
24211,372.8383907291662,49,0.1596933333333368,92,0.07595500000002176
24212,372.9907344791662,49,0.15234375,93,0.07682737499999348
24213,373.1449151458328,49,0.1541806666666048,102,0.08800500000000966
24214,373.31712206249944,53,0.1722069166666529,95,0.16079766666666728
24215,373.4779197291661,53,0.16079766666666728,95,0.16701716666665334
24216,373.64493689583276,53,0.16701716666665334,101,0.162667666666664
24217,373.8076045624994,51,0.162667666666664,95,0.16504383333335682
24218,373.9726483958328,49,0.16504383333335682,95,0.1674199999999928
24219,374.14006839583277,18,0.1674199999999928,96,0.1734296666666637
24220,374.31349806249943,53,0.1734296666666637,95,0.16293266666667705
24221,374.4764307291661,53,0.16293266666667705,95,0.16816491666668298
24222,374.6445956458328,53,0.16816491666668298,101,0.16501666666664505
24223,374.80961231249944,51,0.16501666666664505,95,0.16705350000000863
24224,374.97666581249945,49,0.16705350000000863,95,0.16909033333331536
24225,375.14575614583276,20,0.16909033333331536,96,0.1742286666666928
24226,375.31998481249946,53,0.1742286666666928,95,0.16343866666665008
24227,375.4834234791661,53,0.16343866666665008,95,0.16893341666667538
24228,375.6523568958328,53,0.16893341666667538,101,0.16421700000000783
24229,375.8165738958328,51,0.16421700000000783,95,0.16879366666665874
24230,375.98536756249945,49,0.16879366666665874,95,0.1733703333333665
24231,376.1587378958328,21,0.1733703333333665,96,0.1835536666666826
24232,376.3422915624995,53,0.1835536666666826,95,0.17184512500000437
24233,376.5141366874995,53,0.17184512500000437,95,0.17739283333332878
24234,376.69152952083283,53,0.17739283333332878,101,0.5618074999999862
24235,376.8748523958328,51,0.18332287499998756,95,0.18885729166669307
24236,377.0637096874995,49,0.18885729166669307,95,0.18962733333330561
24237,377.1111165208328,22,0.04740683333329798,72,0.14222050000000763
24238,377.2533370208328,49,0.14222050000000763,101,1.123121499999911
24239,377.3916877708328,20,0.13835074999997232,79,0.069175375000043
24240,377.6683892708328,22,0.2767015000000015,86,0.0720114999999737
24241,377.82018802083275,23,0.1517987499999549,81,0.0684993749999876
24242,377.9571867708327,20,0.1369987499999752,81,0.06849937500004444
24243,378.3764585208327,53,0.41927175000000716,84,0.5118391249999945
24244,378.50861702083273,20,0.13215850000000273,60,0.06607924999997294
24245,378.76898077083274,22,0.26036375000001044,62,0.11931687499998134
24246,378.8882976458327,53,0.11931687499998134,83,0.5129155000000196
24247,379.01846089583273,20,0.1301632500000096,61,0.0650816250000048
24248,379.40121314583274,49,0.38275225000001,82,0.49740775000003623
24249,379.5299683958327,20,0.12875524999998333,60,0.06437762500002009
24250,379.7808536458328,22,0.2508852500000671,66,0.11776724999998578
24251,379.8986208958328,50,0.11776724999998578,82,0.49839900000000625
24252,380.02433314583277,20,0.1257122499999923,63,0.06285612499999615
24253,380.3970198958328,54,0.37268675000001394,88,0.4881403333333765
24254,380.5236021458328,21,0.12658225000001266,63,0.06329112499997791
24255,380.7693738958328,22,0.24577175000001716,71,0.11578633333334665
24256,380.88516022916616,54,0.11578633333334665,88,0.4878661666667199
24257,381.00811097916613,33,0.12295074999997269,69,0.061475375000043186
24258,381.3730263958329,51,0.3649154166667472,88,0.47601824999998144
24259,381.49597714583285,22,0.12295074999997269,67,0.061475375000043186
24260,381.7357686458329,24,0.23979150000002392,71,0.11327599999998483
24261,381.84904464583286,52,0.11327599999998483,87,0.49079949999998007
24262,381.97199539583283,34,0.12295074999997269,71,0.061475375000043186
24263,382.33984414583284,52,0.3678487500000074,93,0.4816792500000133
24264,382.46130164583286,38,0.12145750000001954,73,0.060728749999952925
24265,382.82152339583286,56,0.3602217499999938,92,0.48500075000004017
24266,382.9753751458329,27,0.15385175000005802,74,0.1591060000000084
24267,383.1344811458329,40,0.1591060000000084,78,0.17204299999997374
24268,383.3065241458329,56,0.17204299999997374,93,0.49180300000000443
24269,383.7983271458329,57,0.49180300000000443,94,0.4979250000000093
24270,384.2962521458329,61,0.4979250000000093,95,0.48061500000000024
24271,384.7768671458329,60,0.48061500000000024,93,0.4987949999999728
24272,385.2756621458329,61,0.4987949999999728,102,0.4858300000000213
24273,385.7614921458329,57,0.4858300000000213,101,0.5051780000000008
24274,386.2666701458329,61,0.5051780000000008,101,0.5009180000000129
24275,386.7675881458329,57,0.5009180000000129,101,0.5161289999999781
24276,387.2837171458329,61,0.5161289999999781,108,1.032258000000013
24277,388.3159751458329,73,1.032258000000013,117,1.032258000000013
24278,389.3482331458329,41,1.032258000000013,105,2.968094000000008
24279,0.8585325,51,0.0,51,0.3257060416666667
24280,1.1842385416666668,51,0.3257060416666667,55,0.21026087500000012
24281,1.2833170416666668,52,0.09907850000000007,46,0.11118237500000006
24282,1.3821707916666668,50,0.09885374999999996,46,0.2086084791666667
24283,1.4807997916666669,51,0.09862900000000008,46,0.10997947916666662
24284,1.5789544583333335,54,0.09815466666666661,50,0.18985699999999994
24285,1.6735529583333335,52,0.09459850000000003,46,0.09525849999999991
24286,1.7688114583333334,51,0.09525849999999991,53,0.20980087500000022
24287,1.8674299583333336,52,0.09861850000000016,49,0.11118237500000006
24288,1.9662837083333335,50,0.09885374999999996,49,0.20831143749999992
24289,2.064675541666667,51,0.09839183333333335,49,0.10991960416666657
24290,2.162717541666667,57,0.09804199999999996,51,0.1904831250000001
24291,2.257738375,58,0.09502083333333333,48,0.09546229166666675
24292,2.353200666666667,51,0.09546229166666675,57,0.20545725000000026
24293,2.4503262083333337,52,0.09712554166666676,52,0.1083317083333335
24294,2.546670958333334,50,0.09634475000000009,48,0.20226152083333293
24295,2.6423514583333336,51,0.09568049999999984,49,0.1065810208333331
24296,2.737161125,54,0.09480966666666646,52,0.19047283333333365
24297,2.8313319583333336,52,0.09417083333333354,49,0.09630200000000011
24298,2.9276339583333337,51,0.09630200000000011,58,0.1983202291666668
24299,3.0209611250000004,52,0.09332716666666663,50,0.10499306250000018
24300,3.114288291666667,50,0.09332716666666663,50,0.1983202291666668
24301,3.2076154583333336,51,0.09332716666666663,50,0.10499306250000018
24302,3.3009426250000002,59,0.09332716666666663,53,0.19148183333333346
24303,3.394269791666667,56,0.09332716666666663,49,0.09815466666666683
24304,3.4924244583333337,55,0.09815466666666683,60,0.1981151875
24305,3.5855465833333335,56,0.09312212499999983,53,0.10499306250000018
24306,3.67887375,55,0.09332716666666663,55,0.1977598958333333
24307,3.7717908333333336,54,0.09291708333333348,56,0.10484281249999983
24308,3.864914166666667,55,0.09312333333333322,57,0.19177424999999992
24309,3.958984416666667,58,0.09407025000000013,60,0.09770399999999979
24310,4.056688416666667,61,0.09770399999999979,64,0.20763481250000027
24311,4.160703416666667,63,0.10401500000000041,60,0.10361981249999985
24312,4.252809916666667,61,0.09210649999999987,61,0.19572631249999972
24313,4.344916416666667,60,0.09210649999999987,63,0.10361981249999985
24314,4.437022916666667,61,0.09210649999999987,62,0.18757183333333405
24315,4.529129416666668,64,0.09210650000000076,66,0.09546533333333329
24316,4.624594750000001,63,0.09546533333333329,70,0.21206552083333374
24317,4.730718083333334,64,0.10612333333333357,61,0.10594218750000017
24318,4.8248889166666675,63,0.09417083333333309,61,0.20011302083333327
24319,4.9190597500000015,62,0.09417083333333398,61,0.10594218749999929
24320,5.013230583333335,63,0.09417083333333309,62,0.19324933333333316
24321,5.107401416666668,58,0.09417083333333309,60,0.09907850000000007
24322,5.206479916666668,59,0.09907850000000007,62,0.2037782916666666
24323,5.302375583333334,61,0.09589566666666638,56,0.10788262500000023
24324,5.398271250000001,59,0.09589566666666727,56,0.2037782916666666
24325,5.494166916666668,58,0.09589566666666638,56,0.10788262500000023
24326,5.590062583333334,59,0.09589566666666638,57,0.19179133333333365
24327,5.685958250000001,55,0.09589566666666727,52,0.09589566666666638
24328,5.781853916666668,56,0.09589566666666638,60,0.20323860416666673
24329,5.877749583333334,58,0.09589566666666638,51,0.10734293750000035
24330,5.9732149166666675,56,0.09546533333333329,51,0.2013906875000009
24331,6.068235750000001,55,0.09502083333333378,52,0.10636985416666711
24332,6.162834250000001,56,0.09459850000000003,55,0.1879266666666668
24333,6.257005083333334,51,0.09417083333333309,50,0.0937558333333337
24334,6.350760916666668,52,0.0937558333333337,60,0.19874718750000042
24335,6.444088083333335,54,0.09332716666666663,51,0.1054200208333338
24336,6.537736750000001,52,0.09364866666666671,51,0.20096502083333334
24337,6.632014500000001,51,0.09427774999999983,51,0.10668727083333351
24338,6.726824166666668,52,0.09480966666666646,55,0.1949162083333329
24339,6.822178375000001,50,0.09535420833333319,51,0.0995619999999997
24340,6.921740375000001,51,0.0995619999999997,58,0.20231097916666574
24341,7.017205708333334,52,0.09546533333333329,52,0.10684564583333245
24342,7.112226541666667,51,0.09502083333333289,48,0.20048881249999972
24343,7.206825041666667,50,0.09459850000000003,48,0.1058903124999997
24344,7.300995875,51,0.09417083333333309,55,0.1869810833333343
24345,7.394751708333334,46,0.0937558333333337,50,0.09322525000000059
24346,7.487976958333334,47,0.09322525000000059,56,0.19745393749999973
24347,7.580896458333334,49,0.09291949999999982,49,0.10453443749999991
24348,7.673815958333334,47,0.09291949999999982,48,0.19745393750000062
24349,7.766735458333334,46,0.09291949999999982,46,0.1045344375000008
24350,7.859654958333334,47,0.09291950000000071,55,0.19107416666666577
24351,7.952574458333334,44,0.09291949999999982,46,0.09815466666666595
24352,8.050729125,43,0.09815466666666595,60,0.20043889583333296
24353,8.145538791666667,46,0.09480966666666646,55,0.1056292291666665
24354,8.239502125,49,0.09396333333333295,56,0.19755585416666754
24355,8.332523541666667,52,0.09302141666666763,58,0.10453443749999991
24356,8.425443041666666,55,0.09291949999999893,60,0.1924815000000013
24357,8.518362541666667,58,0.09291950000000071,61,0.0995620000000006
24358,8.617924541666667,61,0.0995620000000006,67,0.22062125000000243
24359,8.725707458333334,64,0.1077829166666664,60,0.11283833333333604
24360,8.82610054166667,63,0.1003930833333353,61,0.20905477083333324
24361,8.92518754166667,61,0.09908700000000081,62,0.10996777083333242
24362,9.023000500000004,59,0.09781295833333381,61,0.20007629166666518
24363,9.119567791666668,58,0.09656729166666445,62,0.10350900000000074
24364,9.223076791666669,61,0.10350900000000074,68,0.21451231250000014
24365,9.326585791666668,63,0.10350899999999896,67,0.11100331250000117
24366,9.425204291666669,59,0.09861850000000061,63,0.2108439999999998
24367,9.52428279166667,58,0.09907850000000096,63,0.11176549999999885
24368,9.623603041666668,59,0.09932024999999811,59,0.1994811666666667
24369,9.723165041666668,56,0.0995620000000006,53,0.09991916666666611
24370,9.823084208333334,55,0.09991916666666611,61,0.21252066666666636
24371,9.922886375000001,58,0.09980216666666664,49,0.11271849999999972
24372,10.023039541666668,56,0.10015316666666685,48,0.2148711875
24373,10.123795708333335,55,0.10075616666666676,48,0.11411502083333325
24374,10.225162125,56,0.10136641666666613,48,0.20486595833333254
24375,10.327278999999999,52,0.10211687499999833,45,0.10274908333333421
24376,10.430028083333333,51,0.10274908333333421,53,0.2109691250000001
24377,10.529590083333334,52,0.0995620000000006,44,0.1114071249999995
24378,10.628668583333333,50,0.09907849999999918,44,0.20866127083333375
24379,10.727297583333334,51,0.09862900000000074,44,0.110032270833333
24380,10.82545225,54,0.09815466666666595,49,0.19554349999999943
24381,10.920473083333333,52,0.09502083333333289,45,0.10052266666666654
24382,11.020995749999999,51,0.10052266666666654,55,0.20829699999999995
24383,11.119150416666665,52,0.09815466666666595,46,0.11014233333333401
24384,11.21707975,50,0.09792933333333487,46,0.20692445833333473
24385,11.314667375,51,0.09758762500000095,46,0.10933683333333377
24386,11.411905875,57,0.09723849999999956,51,0.19438679166666795
24387,11.506730666666668,58,0.09482479166666735,46,0.0995620000000006
24388,11.606292666666668,51,0.0995620000000006,57,0.2059591249999997
24389,11.703531166666668,52,0.09723849999999956,46,0.10872062500000013
24390,11.80020825,50,0.0966770833333328,46,0.203572520833335
24391,11.896330250000002,51,0.09612200000000115,47,0.10745052083333384
24392,11.991903166666669,54,0.09557291666666679,52,0.19121724999999934
24393,12.086818416666668,52,0.09491524999999967,47,0.09630199999999967
24394,12.183120416666668,51,0.09630199999999967,58,0.1965773750000004
24395,12.275627416666667,52,0.09250699999999945,48,0.10407037500000094
24396,12.368134416666669,50,0.09250700000000123,49,0.1965773749999986
24397,12.460641416666668,51,0.09250699999999945,49,0.10407037499999916
24398,12.553148416666668,59,0.09250699999999945,53,0.1906616666666654
24399,12.645655416666667,56,0.09250699999999945,50,0.09815466666666595
24400,12.743810083333333,54,0.09815466666666595,60,0.1965773750000004
24401,12.836317083333332,56,0.09250699999999945,53,0.10407037500000094
24402,12.928824083333334,54,0.09250700000000123,56,0.19689093750000097
24403,13.021130833333332,53,0.09230674999999877,57,0.1045841875000022
24404,13.114049125000001,54,0.09291829166666865,60,0.1914564166666679
24405,13.207801541666669,58,0.09375241666666767,62,0.09770400000000024
24406,13.305505541666669,61,0.09770400000000024,70,0.19858891666666523
24407,13.400526375000002,63,0.09502083333333289,62,0.10356808333333234
24408,13.492632875000002,61,0.09210649999999987,64,0.19415335416666757
24409,13.584227166666668,60,0.09159429166666655,66,0.10255906250000102
24410,13.67542466666667,61,0.0911975000000016,64,0.18948833333333148
24411,13.766128000000002,68,0.09070333333333203,66,0.09878499999999946
24412,13.864913000000001,66,0.09878499999999946,82,0.2233958541666663
24413,13.982366666666667,68,0.11745366666666612,70,0.10594218750000017
24414,14.0765375,66,0.09417083333333309,70,0.20011302083333327
24415,14.170708333333334,65,0.09417083333333309,70,0.10594218750000017
24416,14.264879166666667,66,0.09417083333333309,66,0.19324933333333405
24417,14.359050000000002,62,0.09417083333333487,64,0.09907849999999918
24418,14.4581285,63,0.09907849999999918,68,0.20698545833333348
24419,14.556057833333334,64,0.09792933333333309,61,0.10905612500000039
24420,14.653070416666667,63,0.09701258333333307,61,0.20474020833333384
24421,14.74941875,62,0.09634833333333326,61,0.10839187500000058
24422,14.845767083333334,63,0.09634833333333326,61,0.19269666666666652
24423,14.942115416666667,58,0.09634833333333326,60,0.09634833333333326
24424,15.03846375,59,0.09634833333333326,70,0.2129000000000012
24425,15.14247875,61,0.10401500000000041,56,0.10888500000000079
24426,15.239265416666667,59,0.09678666666666658,56,0.20567166666666736
24427,15.336052083333334,58,0.09678666666666658,56,0.10888500000000079
24428,15.43283875,59,0.09678666666666658,58,0.19586516666666576
24429,15.529625416666667,55,0.09678666666666658,57,0.09907849999999918
24430,15.628703916666666,56,0.09907849999999918,61,0.20462704166666512
24431,15.724939083333332,58,0.09623516666666632,52,0.1083918749999988
24432,15.821287416666665,56,0.09634833333333326,52,0.20440639583333287
24433,15.917194249999998,55,0.09590683333333239,52,0.10849956250000048
24434,16.013538999999998,56,0.09634475000000009,53,0.19517316666666673
24435,16.111122916666666,52,0.0975839166666681,52,0.09758924999999863
24436,16.208712166666665,51,0.09758924999999863,60,0.2031898958333329
24437,16.304834166666662,52,0.0961219999999976,55,0.10706789583333531
24438,16.40007725,49,0.09524308333333664,52,0.20149743750000226
24439,16.49467625,46,0.09459900000000232,56,0.10689843749999994
24440,16.589697083333334,47,0.09502083333333289,57,0.19272483333333312
24441,16.684717916666667,49,0.09502083333333289,57,0.09770400000000024
24442,16.782421916666667,51,0.09770400000000024,60,0.20377829166666572
24443,16.878317583333335,52,0.09589566666666727,58,0.10788262499999846
24444,16.974213250000002,54,0.09589566666666727,60,0.20377829166666572
24445,17.07010891666667,56,0.09589566666666727,61,0.10788262499999846
24446,17.166004583333333,58,0.09589566666666371,61,0.19468066666666672
24447,17.26190025,59,0.09589566666666727,61,0.09878499999999946
24448,17.36068525,58,0.09878499999999946,68,0.20054068749999843
24449,17.45528375,59,0.09459850000000003,58,0.1059421874999984
24450,17.549454583333333,56,0.09417083333333309,58,0.20011302083333504
24451,17.643625416666666,54,0.09417083333333309,58,0.10594218750000195
24452,17.73779625,56,0.09417083333333309,61,0.19324933333333405
24453,17.831967083333332,52,0.09417083333333309,60,0.09907850000000096
24454,17.931045583333333,51,0.09907850000000096,64,0.20377829166666572
24455,18.02694125,52,0.09589566666666727,56,0.10788262499999846
24456,18.122836916666667,49,0.09589566666666727,53,0.20377829166666572
24457,18.218732583333335,51,0.09589566666666727,53,0.10788262499999846
24458,18.31462825,44,0.09589566666666371,57,0.19179133333333453
24459,18.410523916666666,46,0.09589566666666727,52,0.09589566666666727
24460,18.506419583333333,47,0.09589566666666727,60,0.19832022916666503
24461,18.59974675,49,0.0933271666666684,51,0.10499306249999663
24462,18.693073916666666,47,0.09332716666666485,51,0.19832022916666503
24463,18.786401083333335,46,0.0933271666666684,49,0.10499306249999663
24464,18.87972825,47,0.09332716666666485,51,0.19240566666666936
24465,18.973055416666668,48,0.0933271666666684,53,0.09907850000000096
24466,19.07213391666667,49,0.09907850000000096,60,0.20567166666666736
24467,19.168920583333335,51,0.09678666666666658,52,0.10888500000000079
24468,19.265707250000002,49,0.09678666666666658,52,0.20567166666666736
24469,19.36249391666667,51,0.09678666666666658,51,0.10888500000000079
24470,19.459280583333335,44,0.09678666666666658,49,0.19494133333333252
24471,19.55606725,46,0.09678666666666658,55,0.09815466666666595
24472,19.654221916666668,47,0.09815466666666595,60,0.19832022916666503
24473,19.747549083333336,49,0.0933271666666684,55,0.10499306249999663
24474,19.84087625,47,0.09332716666666485,49,0.19832022916666858
24475,19.93420341666667,46,0.0933271666666684,49,0.10499306250000018
24476,20.027530583333334,47,0.09332716666666485,51,0.19240566666666936
24477,20.120857750000003,48,0.0933271666666684,55,0.09907850000000096
24478,20.219936250000003,49,0.09907850000000096,60,0.20567166666666736
24479,20.31672291666667,51,0.09678666666666658,55,0.10888500000000079
24480,20.413509583333337,49,0.09678666666666658,55,0.20567166666666736
24481,20.510296250000003,51,0.09678666666666658,51,0.10888500000000079
24482,20.60708291666667,44,0.09678666666666658,51,0.19494133333333252
24483,20.703869583333336,46,0.09678666666666658,51,0.09815466666666595
24484,20.802024250000002,47,0.09815466666666595,60,0.19832022916666503
24485,20.89535141666667,49,0.0933271666666684,55,0.10499306249999663
24486,20.988678583333336,47,0.09332716666666485,50,0.19832022916666503
24487,21.082005750000004,46,0.0933271666666684,48,0.10499306249999663
24488,21.17533291666667,47,0.09332716666666485,51,0.19240566666666936
24489,21.268660083333337,49,0.0933271666666684,55,0.09907850000000096
24490,21.367738583333338,51,0.09907850000000096,60,0.20539939583333577
24491,21.464306083333337,52,0.09656749999999903,55,0.09667708333333636
24492,21.560983166666674,51,0.09667708333333636,50,0.20784187499999973
24493,21.658454416666675,50,0.09747125000000167,49,0.09804199999999952
24494,21.756496416666675,51,0.09804199999999952,52,0.1970084166666659
24495,21.855350166666675,52,0.09885374999999996,49,0.09815466666666595
24496,21.95350483333334,51,0.09815466666666595,57,0.3068653333333309
24497,22.054745666666673,52,0.10124083333333189,52,0.10224491666666324
24498,22.156990583333336,51,0.10224491666666324,51,0.10337958333333575
24499,22.26037016666667,50,0.10337958333333575,44,0.10454370833333115
24500,22.364913875000003,51,0.10454370833333115,46,0.10559520833333025
24501,22.470509083333333,52,0.10559520833333025,46,0.10695258333333513
24502,22.577461666666668,51,0.10695258333333513,48,0.10805625000000063
24503,22.68551791666667,52,0.10805625000000063,42,0.10947054166666348
24504,22.794988458333332,51,0.10947054166666348,39,0.11048558333333602
24505,22.90547404166667,52,0.11048558333333602,37,0.11556458333333097
24506,23.021038625,51,0.11556458333333097,36,0.12507708333333412
24507,23.146115708333333,52,0.12507708333333412,33,0.12419062499999711
24508,23.27030633333333,51,0.12419062499999711,53,0.21698516666666734
24509,23.374854166666665,52,0.10454783333333495,45,0.11243733333333239
24510,23.474962874999996,50,0.1001087083333303,45,0.2087168333333338
24511,23.57335470833333,51,0.09839183333333423,45,0.11032499999999956
24512,23.671746541666664,54,0.09839183333333423,49,0.19376991666666754
24513,23.767211874999997,52,0.09546533333333329,46,0.09830458333333425
24514,23.86551645833333,51,0.09830458333333425,55,0.2085400833333324
24515,23.964026875,52,0.0985104166666666,48,0.1100296666666658
24516,24.06184354166666,50,0.09781666666666311,48,0.20596635416666587
24517,24.159198416666662,51,0.09735487500000062,48,0.10861147916666525
24518,24.25598508333333,57,0.09678666666666658,51,0.19508441666666698
24519,24.350907874999994,58,0.09492279166666506,48,0.10016162500000192
24520,24.451069499999996,51,0.10016162500000192,57,0.20545724999999848
24521,24.548195041666663,52,0.0971255416666672,51,0.10833170833333128
24522,24.64453979166666,50,0.09634474999999654,47,0.2022615208333356
24523,24.740220291666663,51,0.09568050000000383,49,0.10658102083333176
24524,24.83502995833333,54,0.09480966666666646,52,0.19047283333333453
24525,24.929200791666663,52,0.09417083333333309,49,0.09630200000000144
24526,25.025502791666664,51,0.09630200000000144,58,0.19832022916666503
24527,25.118829958333333,52,0.0933271666666684,49,0.10499306249999663
24528,25.212157124999997,50,0.09332716666666485,50,0.19832022916666858
24529,25.305484291666666,51,0.0933271666666684,50,0.10499306250000018
24530,25.39881145833333,59,0.09332716666666485,53,0.19148183333333435
24531,25.492138625,56,0.0933271666666684,49,0.09815466666666595
24532,25.590293291666665,55,0.09815466666666595,60,0.1981151875000009
24533,25.683415416666666,56,0.09312212500000072,53,0.10499306250000018
24534,25.77674258333333,55,0.09332716666666485,55,0.19775989583333597
24535,25.869659666666664,54,0.09291708333333304,56,0.10484281250000294
24536,25.962782999999998,55,0.09312333333333456,57,0.1917742500000017
24537,26.05685325,58,0.09407025000000147,60,0.09770400000000024
24538,26.15455725,61,0.09770400000000024,68,0.20763481250000027
24539,26.25857225,63,0.10401500000000041,60,0.10361981249999985
24540,26.35067875,61,0.09210649999999987,61,0.19572631249999972
24541,26.44278525,60,0.09210649999999987,63,0.10361981249999985
24542,26.53489175,61,0.09210649999999987,62,0.19089149999999933
24543,26.62699825,64,0.09210649999999987,66,0.09878499999999946
24544,26.72578325,63,0.09878499999999946,70,0.22081868749999956
24545,26.84065975,64,0.11487650000000116,61,0.1059421874999984
24546,26.934830583333333,63,0.09417083333333309,61,0.20011302083333504
24547,27.029001416666667,62,0.09417083333333309,61,0.10594218750000195
24548,27.12317225,63,0.09417083333333309,62,0.19324933333333405
24549,27.217343083333333,58,0.09417083333333309,60,0.09907850000000096
24550,27.316421583333334,59,0.09907850000000096,63,0.20377829166666572
24551,27.41231725,61,0.09589566666666727,56,0.10788262499999846
24552,27.50821291666667,59,0.09589566666666727,56,0.20377829166666572
24553,27.604108583333336,58,0.09589566666666727,56,0.10788262499999846
24554,27.70000425,59,0.09589566666666371,57,0.19179133333333453
24555,27.795899916666666,55,0.09589566666666727,52,0.09589566666666727
24556,27.891795583333334,56,0.09589566666666727,59,0.205174958333334
24557,27.9883595,58,0.09656391666666764,51,0.10861104166666635
24558,28.084927,56,0.09656749999999903,51,0.20384325000000203
24559,28.181049,55,0.09612200000000115,52,0.10772125000000088
24560,28.276837083333337,56,0.09578808333333555,55,0.19026945833333286
24561,28.37219129166667,51,0.09535420833333319,50,0.09491524999999967
24562,28.46710654166667,52,0.09491524999999967,56,0.20215083333333084
24563,28.561916208333336,54,0.09480966666666646,51,0.10734116666666438
24564,28.657270416666666,52,0.09535420833332964,51,0.20467466666666922
24565,28.753279250000002,51,0.09600883333333599,51,0.10866583333333324
24566,28.84984675,52,0.09656749999999903,55,0.19668754166666602
24567,28.94697229166667,50,0.0971255416666672,51,0.09956199999999882
24568,29.046534291666667,51,0.09956199999999882,58,0.20434412499999866
24569,29.142882625000002,52,0.09634833333333503,52,0.10799579166666362
24570,29.238891458333335,51,0.09600883333333243,48,0.20291231250000052
24571,29.334571958333335,50,0.09568050000000028,48,0.10723181250000025
24572,29.429926166666668,51,0.09535420833333319,55,0.18961933333333292
24573,29.524947,46,0.09502083333333289,50,0.09459850000000003
24574,29.6195455,47,0.09459850000000003,57,0.20011302083333504
24575,29.713716333333334,49,0.09417083333333309,49,0.10594218750000195
24576,29.807887166666667,47,0.09417083333333309,48,0.20011302083333504
24577,29.902058,46,0.09417083333333309,46,0.10594218750000195
24578,29.996228833333333,47,0.09417083333333309,55,0.19232549999999904
24579,30.090399666666666,44,0.09417083333333309,46,0.09815466666666595
24580,30.188554333333332,43,0.09815466666666595,60,0.20043889583333296
24581,30.283364,46,0.09480966666666646,55,0.1056292291666665
24582,30.377327333333334,49,0.09396333333333473,56,0.19755585416666577
24583,30.47034875,52,0.09302141666666586,58,0.10453443749999991
24584,30.56326825,55,0.09291950000000071,60,0.19248149999999953
24585,30.65618775,58,0.09291950000000071,61,0.09956199999999882
24586,30.75574975,61,0.09956199999999882,70,0.22062124999999355
24587,30.863532666666664,64,0.10778291666666462,60,0.11283833333332893
24588,30.963925749999994,63,0.10039308333332997,61,0.20905477083333324
24589,31.063012749999995,61,0.09908700000000081,62,0.10996777083333242
24590,31.160825708333327,59,0.09781295833333203,61,0.20007629166666874
24591,31.257392999999997,58,0.09656729166666977,62,0.10350899999999896
24592,31.360901999999996,61,0.10350899999999896,70,0.21307687500000227
24593,31.464411,63,0.10350900000000252,67,0.10956787499999976
24594,31.561765874999995,59,0.09735487499999707,63,0.20893693750000253
24595,31.65969520833333,58,0.09792933333333309,63,0.11100760416666944
24596,31.758318,59,0.09862279166667065,59,0.1993564166666637
24597,31.857638249999997,56,0.09932024999999811,53,0.1000361666666656
24598,31.957674416666663,55,0.1000361666666656,61,0.21353304166667186
24599,32.057827583333335,58,0.10015316666667218,49,0.11337987499999969
24600,32.15858375,56,0.1007561666666632,48,0.2165481666666622
24601,32.260074374999995,55,0.10149062499999673,48,0.11505754166666549
24602,32.362319291666665,56,0.10224491666667035,48,0.2080652499999971
24603,32.465320375,52,0.10300108333333213,45,0.10506416666666496
24604,32.57038454166666,51,0.10506416666666496,53,0.21717633333332742
24605,32.67288554166666,52,0.10250099999999662,44,0.1146753333333308
24606,32.77487437499999,50,0.10198883333332986,44,0.21446862499999497
24607,32.87636637499999,51,0.10149200000000036,44,0.11297662499999461
24608,32.97735604166665,54,0.10098966666666342,49,0.19592566666666045
24609,33.073251708333316,52,0.09589566666666371,45,0.10002999999999673
24610,33.17328170833331,51,0.10002999999999673,55,0.21085674999999782
24611,33.27284370833331,52,0.09956199999999882,46,0.111294749999999
24612,33.37180983333331,50,0.09896612499999691,46,0.20808610416666795
24613,33.47020166666665,51,0.09839183333333779,46,0.10969427083333017
24614,33.56801833333331,57,0.09781666666666666,51,0.19745112500000062
24615,33.663480624999984,58,0.09546229166667075,46,0.10198883333332986
24616,33.765469458333314,51,0.10198883333332986,57,0.2059591249999997
24617,33.86270795833332,52,0.09723850000000311,46,0.10872062499999657
24618,33.95938504166665,50,0.0966770833333328,46,0.2035725208333261
24619,34.055507041666644,51,0.09612199999999405,47,0.10745052083333206
24620,34.15107995833331,54,0.09557291666666856,52,0.19121725000000112
24621,34.24599520833331,52,0.09491524999999967,47,0.09630200000000144
24622,34.342297208333314,51,0.09630200000000144,53,0.19945837499999897
24623,34.43768520833331,52,0.0953879999999998,48,0.10407037499999916
24624,34.53019220833331,50,0.09250699999999767,49,0.19657737500000394
24625,34.622699208333316,51,0.09250700000000478,49,0.10407037499999916
24626,34.71520620833331,59,0.09250699999999767,53,0.19066166666666362
24627,34.80771320833331,56,0.09250699999999767,50,0.09815466666666595
24628,34.90586787499998,54,0.09815466666666595,60,0.19657737499999683
24629,34.998374874999975,56,0.09250699999999767,53,0.10407037499999916
24630,35.09088187499998,54,0.09250700000000478,56,0.19689093749999387
24631,35.18318862499998,53,0.09230674999999877,57,0.1045841874999951
24632,35.276106916666635,54,0.09291829166665622,60,0.1914564166666679
24633,35.3698593333333,58,0.09375241666666767,62,0.09770400000000024
24634,35.4675633333333,61,0.09770400000000024,70,0.19858891666667233
24635,35.56258416666664,63,0.09502083333333644,62,0.10356808333333589
24636,35.65469066666664,61,0.09210649999999987,64,0.1941533541666658
24637,35.746284958333305,60,0.09159429166666655,66,0.10255906249999924
24638,35.837482458333305,61,0.09119749999999982,64,0.1894883333333297
24639,35.928185791666635,68,0.09070333333333025,66,0.09878499999999946
24640,36.026970791666635,66,0.09878499999999946,82,0.22339585416666807
24641,36.144424458333305,68,0.11745366666666968,70,0.1059421874999984
24642,36.23859529166664,66,0.09417083333333665,70,0.20011302083332794
24643,36.33276612499997,65,0.09417083333332954,70,0.1059421874999984
24644,36.42693695833331,66,0.09417083333333665,66,0.19324933333332694
24645,36.52110779166664,62,0.09417083333332954,64,0.0990784999999974
24646,36.620186291666634,63,0.0990784999999974,69,0.20698545833333526
24647,36.71811562499997,64,0.09792933333333309,61,0.10905612500000217
24648,36.815128208333306,63,0.0970125833333384,61,0.20474020833333384
24649,36.91147654166664,62,0.09634833333333148,61,0.10839187500000236
24650,37.007824874999976,63,0.09634833333333859,61,0.19269666666666296
24651,37.10417320833331,58,0.09634833333333148,60,0.09634833333333148
24652,37.20052154166664,59,0.09634833333333148,66,0.21828487499999483
24653,37.31173154166664,61,0.11120999999999981,56,0.10707487499999502
24654,37.40687324999997,59,0.09514170833332969,56,0.2028638333333319
24655,37.502338583333305,58,0.09546533333333684,56,0.10739849999999507
24656,37.597803916666635,59,0.09546533333332974,58,0.19454383333333425
24657,37.69326924999997,55,0.09546533333333684,57,0.0990784999999974
24658,37.79234774999997,56,0.0990784999999974,61,0.20377829166666572
24659,37.88824341666663,58,0.09589566666666371,52,0.10788262500000201
24660,37.984139083333304,56,0.09589566666667082,52,0.20418006250000786
24661,38.079819583333304,55,0.09568050000000028,52,0.10849956250000758
24662,38.17616433333331,56,0.0963447500000072,53,0.19541579166666168
24663,38.273748249999976,52,0.09758391666666455,52,0.09783187499999713
24664,38.37158012499997,51,0.09783187499999713,60,0.2045115000000024
24665,38.46803645833331,52,0.09645633333333592,55,0.10805516666666648
24666,38.56415845833331,49,0.09612200000000115,52,0.20214152083333659
24667,38.65940154166665,46,0.09524308333333664,56,0.10689843749999994
24668,38.754422374999976,47,0.09502083333332934,57,0.19272483333333668
24669,38.84944320833331,49,0.09502083333333644,57,0.09770400000000024
24670,38.94714720833331,51,0.09770400000000024,63,0.20377829166666572
24671,39.043042874999976,52,0.09589566666666371,58,0.10788262500000201
24672,39.13893854166665,54,0.09589566666667082,60,0.20377829166666572
24673,39.23483420833331,56,0.09589566666666371,61,0.10788262500000201
24674,39.33072987499998,58,0.09589566666667082,61,0.19468066666666317
24675,39.426625541666645,59,0.09589566666666371,61,0.09878499999999946
24676,39.525410541666645,58,0.09878499999999946,68,0.20054068749999487
24677,39.62000904166664,59,0.09459849999999648,58,0.1059421874999984
24678,39.71417987499998,56,0.09417083333333665,58,0.20011302083332794
24679,39.80835070833331,54,0.09417083333332954,58,0.1059421874999984
24680,39.902521541666644,56,0.09417083333333665,61,0.19324933333332694
24681,39.996692374999974,52,0.09417083333332954,60,0.0990784999999974
24682,40.09577087499997,51,0.0990784999999974,62,0.20377829166666572
24683,40.191666541666635,52,0.09589566666666371,56,0.10788262500000201
24684,40.287562208333306,49,0.09589566666667082,53,0.20377829166666572
24685,40.38345787499997,51,0.09589566666666371,53,0.10788262500000201
24686,40.47935354166664,44,0.09589566666667082,57,0.19179133333332743
24687,40.575249208333304,46,0.09589566666666371,52,0.09589566666666371
24688,40.67114487499997,47,0.09589566666666371,60,0.19832022916666858
24689,40.764472041666636,49,0.0933271666666684,51,0.10499306250000018
24690,40.857799208333304,47,0.0933271666666684,51,0.19832022916666148
24691,40.951126374999966,46,0.0933271666666613,49,0.10499306250000018
24692,41.044453541666634,47,0.0933271666666684,51,0.1924056666666658
24693,41.1377807083333,48,0.0933271666666684,53,0.0990784999999974
24694,41.2368592083333,49,0.0990784999999974,60,0.20567166666666736
24695,41.33364587499997,51,0.09678666666666658,52,0.10888500000000079
24696,41.43043254166663,49,0.09678666666666658,52,0.20567166666666736
24697,41.5272192083333,51,0.09678666666666658,51,0.10888500000000079
24698,41.624005874999966,44,0.09678666666666658,49,0.19494133333333252
24699,41.72079254166663,46,0.09678666666666658,55,0.09815466666666595
24700,41.8189472083333,47,0.09815466666666595,60,0.19832022916666858
24701,41.91227437499997,49,0.0933271666666684,55,0.10499306250000018
24702,42.005601541666636,47,0.0933271666666684,49,0.19832022916666148
24703,42.0989287083333,46,0.0933271666666613,49,0.10499306250000018
24704,42.192255874999965,47,0.0933271666666684,51,0.1924056666666658
24705,42.285583041666634,48,0.0933271666666684,55,0.0990784999999974
24706,42.38466154166663,49,0.0990784999999974,60,0.20567166666666736
24707,42.4814482083333,51,0.09678666666666658,55,0.10888500000000079
24708,42.578234874999964,49,0.09678666666666658,55,0.20567166666666736
24709,42.67502154166663,51,0.09678666666666658,51,0.10888500000000079
24710,42.7718082083333,44,0.09678666666666658,51,0.19494133333333252
24711,42.868594874999964,46,0.09678666666666658,51,0.09815466666666595
24712,42.96674954166663,47,0.09815466666666595,60,0.19832022916666858
24713,43.0600767083333,49,0.0933271666666684,55,0.10499306250000018
24714,43.15340387499997,47,0.0933271666666684,50,0.19832022916666148
24715,43.24673104166663,46,0.0933271666666613,48,0.10499306250000018
24716,43.340058208333296,47,0.0933271666666684,51,0.1924056666666658
24717,43.433385374999965,49,0.0933271666666684,55,0.0990784999999974
24718,43.53246387499996,51,0.0990784999999974,67,0.20451791666666708
24719,43.628589916666634,52,0.09612604166667182,61,0.09634833333333148
24720,43.724938249999965,51,0.09634833333333148,55,0.20474020833333384
24721,43.8212865833333,50,0.09634833333333148,55,0.09634833333333148
24722,43.91763491666663,51,0.09634833333333148,62,0.19450300000000453
24723,44.01398324999997,52,0.09634833333333859,55,0.09815466666666595
24724,44.11213791666663,54,0.09815466666666595,64,0.19832022916666858
24725,44.2054650833333,56,0.0933271666666684,61,0.10499306250000018
24726,44.29879224999997,54,0.0933271666666684,61,0.19832022916666148
24727,44.39211941666663,56,0.0933271666666613,66,0.10499306250000018
24728,44.4854465833333,54,0.0933271666666684,61,0.1924056666666658
24729,44.57877374999997,52,0.0933271666666684,61,0.0990784999999974
24730,44.677852249999965,51,0.0990784999999974,62,0.20539939583333222
24731,44.77441974999997,52,0.09656750000000613,61,0.0966770833333257
24732,44.8710968333333,51,0.0966770833333257,60,0.20784187500000684
24733,44.968568083333295,52,0.09747124999999812,58,0.09804200000000662
24734,45.0666100833333,46,0.09804200000000662,57,0.19700841666666946
24735,45.165463833333305,48,0.09885375000000352,52,0.09815466666666595
24736,45.26361849999997,49,0.09815466666666595,68,0.19832022916666858
24737,45.35694566666664,51,0.0933271666666684,57,0.10499306250000018
24738,45.45027283333331,49,0.0933271666666684,57,0.19832022916666148
24739,45.54359999999997,48,0.0933271666666613,55,0.10499306250000018
24740,45.63692716666664,49,0.0933271666666684,57,0.1924056666666658
24741,45.730254333333306,50,0.0933271666666684,60,0.0990784999999974
24742,45.829332833333304,51,0.0990784999999974,68,0.20567166666666736
24743,45.92611949999997,52,0.09678666666666658,60,0.10888500000000079
24744,46.02290616666664,51,0.09678666666666658,60,0.20567166666666736
24745,46.1196928333333,52,0.09678666666666658,58,0.10888500000000079
24746,46.21647949999997,46,0.09678666666666658,56,0.19494133333333252
24747,46.31326616666664,48,0.09678666666666658,62,0.09815466666666595
24748,46.4114208333333,49,0.09815466666666595,68,0.19832022916666858
24749,46.50474799999997,51,0.0933271666666684,58,0.10499306250000018
24750,46.59807516666664,49,0.0933271666666684,58,0.19832022916666148
24751,46.6914023333333,48,0.0933271666666613,56,0.10499306250000018
24752,46.78472949999997,49,0.0933271666666684,58,0.1924056666666658
24753,46.87805666666664,50,0.0933271666666684,61,0.0990784999999974
24754,46.977135166666635,51,0.0990784999999974,69,0.20567166666666736
24755,47.0739218333333,52,0.09678666666666658,60,0.10888500000000079
24756,47.17070849999997,51,0.09678666666666658,60,0.20567166666666736
24757,47.267495166666635,52,0.09678666666666658,58,0.10888500000000079
24758,47.3642818333333,46,0.09678666666666658,56,0.19494133333333252
24759,47.46106849999997,48,0.09678666666666658,63,0.09815466666666595
24760,47.559223166666634,49,0.09815466666666595,69,0.19832022916666858
24761,47.6525503333333,51,0.0933271666666684,60,0.10499306250000018
24762,47.74587749999997,49,0.0933271666666684,60,0.19832022916666148
24763,47.83920466666663,48,0.0933271666666613,58,0.10499306250000018
24764,47.9325318333333,49,0.0933271666666684,62,0.1924056666666658
24765,48.02585899999997,51,0.0933271666666684,64,0.0990784999999974
24766,48.124937499999966,53,0.0990784999999974,74,0.20102181250000228
24767,48.21953599999996,54,0.09459849999999648,64,0.1064233125000058
24768,48.314134499999966,53,0.09459850000000358,67,0.20102181250000228
24769,48.40873299999996,52,0.09459849999999648,67,0.1064233125000058
24770,48.503331499999966,53,0.09459850000000358,64,0.19275316666666242
24771,48.59792999999996,54,0.09459849999999648,73,0.09815466666666595
24772,48.69608466666663,56,0.09815466666666595,81,0.19832022916666858
24773,48.7894118333333,58,0.0933271666666684,69,0.10499306250000018
24774,48.882738999999965,56,0.0933271666666684,68,0.19832022916666148
24775,48.97606616666663,58,0.0933271666666613,64,0.10499306250000018
24776,49.069393333333295,56,0.0933271666666684,67,0.1924056666666658
24777,49.16272049999996,54,0.0933271666666684,69,0.0990784999999974
24778,49.26179899999996,53,0.0990784999999974,78,0.20567166666666736
24779,49.35858566666663,54,0.09678666666666658,67,0.10888500000000079
24780,49.455372333333294,53,0.09678666666666658,67,0.20567166666666736
24781,49.55215899999996,54,0.09678666666666658,64,0.10888500000000079
24782,49.64894566666663,48,0.09678666666666658,62,0.19494133333333252
24783,49.745732333333294,50,0.09678666666666658,68,0.09815466666666595
24784,49.84388699999996,51,0.09815466666666595,78,0.19832022916666858
24785,49.93721416666663,52,0.0933271666666684,69,0.10499306250000018
24786,50.0305413333333,51,0.0933271666666684,68,0.19832022916666148
24787,50.12386849999996,50,0.0933271666666613,64,0.10499306250000018
24788,50.217195666666626,51,0.0933271666666684,67,0.21013599999999855
24789,50.310522833333295,58,0.0933271666666684,69,0.11680883333333014
24790,50.427331666666625,59,0.11680883333333014,75,0.19796614583333394
24791,50.520251166666625,61,0.09291950000000071,69,0.10504664583333323
24792,50.613578333333294,59,0.0933271666666684,69,0.19996214583333938
24793,50.70743791666663,58,0.09385958333333377,66,0.1061025625000056
24794,50.80171566666663,59,0.09427775000000338,63,0.19296433333333596
24795,50.8965253333333,55,0.09480966666667001,70,0.09815466666666595
24796,50.99467999999997,56,0.09815466666666595,73,0.20011302083333504
24797,51.088850833333304,58,0.09417083333333665,69,0.1059421874999984
24798,51.18302166666663,56,0.09417083333332954,69,0.20011302083333504
24799,51.27719249999997,54,0.09417083333333665,62,0.1059421874999984
24800,51.3713633333333,52,0.09417083333332954,68,0.19324933333333405
24801,51.465534166666636,51,0.09417083333333665,68,0.0990784999999974
24802,51.56461266666663,49,0.0990784999999974,75,0.19959427083333736
24803,51.658368499999966,47,0.09375583333333282,68,0.10583843750000455
24804,51.7524355833333,46,0.09406708333333569,64,0.20128443750000002
24805,51.84692716666664,44,0.09449158333333685,62,0.10679285416666318
24806,51.94184241666664,46,0.09491524999999967,59,0.19350887499999914
24807,52.03719662499997,47,0.09535420833333319,58,0.09815466666666595
24808,52.13535129166664,46,0.09815466666666595,74,0.19923114583333046
24809,52.22910712499997,52,0.09375583333333282,58,0.10547531249999764
24810,52.3228629583333,51,0.09375583333333282,57,0.19923114583333756
24811,52.416618791666636,50,0.09375583333333282,53,0.10547531250000475
24812,52.51037462499997,51,0.09375583333333282,56,0.2172126666666685
24813,52.6041304583333,58,0.09375583333333282,58,0.12345683333333568
24814,52.72758729166664,59,0.12345683333333568,59,0.20567166666666736
24815,52.824373958333304,61,0.09678666666666658,49,0.10888500000000079
24816,52.92116062499997,59,0.09678666666666658,49,0.20567166666666736
24817,53.01794729166664,58,0.09678666666666658,48,0.10888500000000079
24818,53.114733958333304,59,0.09678666666666658,47,0.19494133333333252
24819,53.21152062499997,55,0.09678666666666658,50,0.09815466666666595
24820,53.309675291666636,56,0.09815466666666595,56,0.20091489583332844
24821,53.404166874999966,58,0.09449158333332974,49,0.1064233124999987
24822,53.49876537499997,56,0.09459850000000358,49,0.20102181249999518
24823,53.593363874999966,54,0.09459849999999648,46,0.1064233124999987
24824,53.68796237499997,52,0.09459850000000358,49,0.19367699999999388
24825,53.782560874999966,51,0.09459849999999648,49,0.0990784999999974
24826,53.88163937499996,49,0.0990784999999974,55,0.1998229791666688
24827,53.97583141666663,47,0.09419204166666617,49,0.10563093750000263
24828,54.06969099999996,46,0.09385958333333377,48,0.20123308333333512
24829,54.16407566666663,44,0.09438466666667011,45,0.106848416666665
24830,54.25899091666663,46,0.09491524999999967,42,0.19383516666666623
24831,54.35467141666663,47,0.09568050000000028,40,0.09815466666666595
24832,54.4528260833333,46,0.09815466666666595,56,0.20567166666666736
24833,54.549612749999966,58,0.09678666666666658,48,0.10888500000000079
24834,54.64639941666663,56,0.09678666666666658,49,0.20567166666666736
24835,54.7431860833333,55,0.09678666666666658,46,0.10888500000000079
24836,54.839972749999966,52,0.09678666666666658,49,0.19357333333333315
24837,54.93675941666663,51,0.09678666666666658,49,0.09678666666666658
24838,55.0335460833333,49,0.09678666666666658,52,0.203463416666672
24839,55.128789166666635,47,0.09524308333333664,49,0.10822033333333536
24840,55.22491116666664,46,0.09612200000000115,48,0.20773112500000224
24841,55.322153083333305,44,0.09724191666666826,45,0.11048920833333398
24842,55.42031366666664,46,0.09816058333333189,42,0.20220504166667297
24843,55.51952154166664,47,0.09920787500000472,40,0.10299716666666825
24844,55.62251870833331,46,0.10299716666666825,50,0.2297506249999941
24845,55.741311708333306,58,0.1187929999999966,48,0.1109576249999975
24846,55.83994070833331,56,0.09862900000000252,49,0.20958662500000003
24847,55.938569708333304,55,0.09862899999999541,46,0.11095762500000461
24848,56.03719870833331,52,0.09862900000000252,49,0.19702025000000134
24849,56.13582770833331,51,0.09862900000000252,49,0.09839124999999882
24850,56.23421895833331,49,0.09839124999999882,51,0.20864979166667297
24851,56.33214829166665,47,0.0979293333333402,49,0.11072045833333277
24852,56.43054012499998,46,0.09839183333333068,48,0.21091099999999585
24853,56.529506249999976,44,0.09896612499999691,45,0.11194487499999894
24854,56.628947374999974,46,0.09944112499999846,42,0.20066941666666338
24855,56.72897737499997,47,0.10002999999999673,40,0.10063941666666665
24856,56.82961679166664,46,0.10063941666666665,53,0.20958662500000003
24857,56.92824579166664,52,0.09862900000000252,49,0.1109576249999975
24858,57.026874791666636,51,0.09862899999999541,45,0.20958662500000003
24859,57.12550379166664,50,0.09862900000000252,42,0.1109576249999975
24860,57.22413279166664,51,0.09862900000000252,46,0.19770749999999282
24861,57.322761791666636,52,0.09862899999999541,49,0.0990784999999974
24862,57.42184029166663,51,0.0990784999999974,53,0.09656750000000613
24863,57.51840779166664,52,0.09656750000000613,49,0.0966770833333257
24864,57.615084874999965,51,0.0966770833333257,47,0.09747124999999812
24865,57.71255612499996,50,0.09747124999999812,47,0.09804200000000662
24866,57.81059812499997,51,0.09804200000000662,51,0.09885375000000352
24867,57.909451874999974,52,0.09885375000000352,49,0.09815466666666595
24868,58.00760654166664,51,0.09815466666666595,59,0.10124083333332834
24869,58.10884737499997,52,0.10124083333332834,56,0.10224491666667035
24870,58.21109229166664,51,0.10224491666667035,56,0.10337958333333575
24871,58.314471874999974,50,0.10337958333333575,49,0.10454370833333115
24872,58.419015583333305,51,0.10454370833333115,49,0.1055952083333338
24873,58.52461079166664,52,0.1055952083333338,50,0.10695258333333157
24874,58.63156337499997,51,0.10695258333333157,51,0.10805624999999708
24875,58.73961962499997,52,0.10805624999999708,46,0.10947054166667414
24876,58.84909016666664,51,0.10947054166667414,42,0.11048558333332892
24877,58.95957574999997,52,0.11048558333332892,39,0.11556458333333808
24878,59.07514033333331,51,0.11556458333333808,38,0.12507708333333056
24879,59.20021741666664,52,0.12507708333333056,35,0.12419062500000422
24880,59.32440804166664,51,0.12419062500000422,48,0.21698516666666734
24881,59.42895587499998,52,0.10454783333333495,41,0.11243733333333239
24882,59.52906458333331,50,0.1001087083333303,41,0.20866127083333197
24883,59.62745641666665,51,0.09839183333333779,40,0.11026943749999418
24884,59.72584824999998,54,0.09839183333333068,49,0.19094370833332874
24885,59.820869083333314,52,0.09502083333333644,46,0.0959228749999923
24886,59.916791958333306,51,0.0959228749999923,55,0.20888400000000473
24887,60.01542095833331,52,0.09862900000000252,48,0.11025500000000221
24888,60.11346295833331,50,0.09804199999999952,48,0.20641441666666793
24889,60.21093420833331,51,0.09747125000000523,48,0.1089431666666627
24890,60.30783383333331,57,0.09689962499999893,51,0.19393366666666623
24891,60.40406899999998,58,0.09623516666666632,48,0.09769849999999991
24892,60.50176749999998,51,0.09769849999999991,57,0.20545725000000914
24893,60.59889304166665,52,0.09712554166667076,51,0.10833170833333838
24894,60.695237791666656,50,0.0963447500000072,47,0.20226152083333915
24895,60.79091829166666,51,0.09568050000000028,49,0.10658102083333887
24896,60.88572795833333,54,0.09480966666667001,52,0.1904728333333381
24897,60.97989879166666,52,0.09417083333333665,49,0.09630200000000144
24898,61.076200791666665,51,0.09630200000000144,58,0.19832022916666858
24899,61.16952795833333,52,0.0933271666666684,49,0.10499306250000018
24900,61.262855125,50,0.0933271666666684,50,0.19832022916666148
24901,61.35618229166666,51,0.0933271666666613,50,0.10499306250000018
24902,61.44950945833333,59,0.0933271666666684,53,0.19148183333333435
24903,61.542836625,56,0.0933271666666684,49,0.09815466666666595
24904,61.640991291666666,55,0.09815466666666595,60,0.1981151875000009
24905,61.734113416666666,56,0.09312212500000072,53,0.10499306250000018
24906,61.827440583333335,55,0.0933271666666684,55,0.19775989583332887
24907,61.92035766666667,54,0.09291708333333304,56,0.10484281249999583
24908,62.013481,55,0.093123333333331,57,0.1917742499999946
24909,62.10755124999999,58,0.09407024999999436,60,0.09770400000000024
24910,62.20525524999999,61,0.09770400000000024,68,0.2076348124999967
24911,62.30927024999999,63,0.10401499999999686,60,0.10361981249999985
24912,62.40137674999999,61,0.09210649999999987,61,0.19572631249999972
24913,62.49348324999999,60,0.09210649999999987,63,0.10361981249999985
24914,62.58558974999999,61,0.09210649999999987,62,0.19089149999999933
24915,62.67769624999999,64,0.09210649999999987,66,0.09878499999999946
24916,62.77648124999999,63,0.09878499999999946,72,0.22081868749999956
24917,62.89135774999999,64,0.11487650000000116,61,0.1059421874999984
24918,62.98552858333333,63,0.09417083333333665,61,0.20011302083332794
24919,63.07969941666666,62,0.09417083333332954,61,0.1059421874999984
24920,63.17387024999999,63,0.09417083333333665,62,0.19324933333332694
24921,63.26804108333332,58,0.09417083333332954,60,0.0990784999999974
24922,63.36711958333332,59,0.0990784999999974,64,0.20377829166666572
24923,63.463015249999984,61,0.09589566666666371,56,0.10788262500000201
24924,63.558910916666655,59,0.09589566666667082,56,0.20377829166666572
24925,63.65480658333332,58,0.09589566666666371,56,0.10788262500000201
24926,63.75070224999999,59,0.09589566666667082,57,0.19179133333332743
24927,63.84659791666665,55,0.09589566666666371,52,0.09589566666666371
24928,63.94249358333332,56,0.09589566666666371,60,0.20323860416667117
24929,64.03838924999998,58,0.09589566666666371,51,0.10734293750000745
24930,64.13385458333332,56,0.09546533333333684,51,0.20139068750000888
24931,64.22887541666665,55,0.09502083333333644,52,0.10636985416667244
24932,64.32347391666666,56,0.09459850000000358,55,0.18792666666666946
24933,64.41764475,51,0.09417083333333665,50,0.09375583333333282
24934,64.51140058333333,52,0.09375583333333282,60,0.19874718750000397
24935,64.60472775,54,0.0933271666666684,51,0.10542002083333557
24936,64.69837641666666,52,0.09364866666666671,51,0.2009650208333369
24937,64.79265416666667,51,0.09427775000000338,51,0.10668727083333351
24938,64.88746383333333,52,0.0948096666666629,55,0.1949162083333391
24939,64.98281804166666,50,0.09535420833333319,51,0.09956200000000592
24940,65.08238004166667,51,0.09956200000000592,60,0.2023109791666684
24941,65.177845375,52,0.09546533333333684,52,0.10684564583333156
24942,65.27286620833334,51,0.09502083333333644,48,0.20048881250001216
24943,65.36746470833334,50,0.09459850000000358,48,0.10589031250000858
24944,65.46163554166668,51,0.09417083333333665,55,0.18698108333333607
24945,65.55539137500001,46,0.09375583333333282,50,0.09322525000000326
24946,65.64861662500002,47,0.09322525000000326,57,0.19745393750000062
24947,65.74153612500002,49,0.09291950000000782,49,0.1045344374999928
24948,65.83445562500002,47,0.0929194999999936,48,0.19745393750000062
24949,65.92737512500001,46,0.0929194999999936,46,0.10453443750000702
24950,66.02029462500002,47,0.09291950000000782,55,0.19107416666666666
24951,66.11321412500001,44,0.0929194999999936,46,0.09815466666667305
24952,66.21136879166669,43,0.09815466666667305,60,0.2004388958333294
24953,66.30617845833335,46,0.0948096666666629,55,0.1056292291666665
24954,66.40014179166668,49,0.09396333333333473,56,0.19755585416666577
24955,66.49316320833334,52,0.09302141666665875,58,0.10453443750000702
24956,66.58608270833335,55,0.09291950000000782,60,0.19248149999999953
24957,66.67900220833334,58,0.0929194999999936,61,0.09956200000000592
24958,66.77856420833335,61,0.09956200000000592,70,0.22062125000000776
24959,66.88634712500003,64,0.10778291666667883,60,0.07538558333332901
24960,66.98674020833336,63,0.10039308333332997,61,0.20905477083333324
24961,67.08582720833336,61,0.09908699999999726,62,0.07350333333333481
24962,67.18364016666669,59,0.09781295833333559,61,0.20007629166666163
24963,67.28020745833335,58,0.09656729166665912,62,0.07763174999999478
24964,67.38371645833335,61,0.10350900000000252,69,0.21307687499999872
24965,67.48722545833336,63,0.10350900000000252,67,0.1095678749999962
24966,67.58458033333336,59,0.09735487500000772,64,0.20893693749999898
24967,67.68250966666669,58,0.09792933333332599,66,0.11100760416667299
24968,67.78113245833336,59,0.09862279166667065,61,0.19935641666666015
24969,67.88045270833335,56,0.099320249999991,57,0.10003616666666915
24970,67.98048887500002,55,0.10003616666666915,64,0.2140258541666782
24971,68.08064204166669,58,0.10015316666667218,52,0.11387268750000601
24972,68.18176612500004,56,0.101124083333346,51,0.22016602083334647
24973,68.28451512500004,55,0.10274900000000287,52,0.1174170208333436
24974,68.38879912500006,56,0.10428400000002114,52,0.21146220833333018
24975,68.49466466666672,52,0.10586554166665962,50,0.10559666666667056
24976,68.60026133333339,51,0.10559666666667056,60,0.21717633333334163
24977,68.7027623333334,52,0.10250100000000373,49,0.1146753333333379
24978,68.80475116666673,50,0.10198883333333697,49,0.21452520833332756
24979,68.90624316666673,51,0.10149199999999325,49,0.1130332083333343
24980,69.00723283333339,54,0.10098966666666342,55,0.19637833333334243
24981,69.10358116666673,52,0.09634833333333859,49,0.10003000000000384
24982,69.20361116666673,51,0.10003000000000384,60,0.20899666666667827
24983,69.30224016666673,52,0.09862900000000252,50,0.11036766666667575
24984,69.40039483333341,50,0.09815466666667305,50,0.20692945833333454
24985,69.4980988333334,51,0.09770399999999313,50,0.10922545833334141
24986,69.5953373333334,57,0.09723850000000311,55,0.19799766666666585
24987,69.69134616666673,58,0.09600883333332888,49,0.10198883333333697
24988,69.79333500000007,51,0.10198883333333697,60,0.2059591250000068
24989,69.89057350000007,52,0.09723850000000311,49,0.10872062500000368
24990,69.9872505833334,50,0.0966770833333328,49,0.20357252083334743
24991,70.08337258333341,51,0.09612200000000826,49,0.10745052083333917
24992,70.17894550000008,54,0.09557291666666856,55,0.191217249999994
24993,70.27386075000008,52,0.09491524999999967,49,0.09630199999999434
24994,70.37016275000008,51,0.09630199999999434,57,0.19657737500000394
24995,70.46266975000007,52,0.09250699999999767,50,0.10407037500000627
24996,70.55517675000007,50,0.09250699999999767,50,0.19657737500000394
24997,70.64768375000007,51,0.09250699999999767,50,0.10407037500000627
24998,70.74019075000008,59,0.09250700000001189,55,0.19066166666667073
24999,70.83269775000008,56,0.09250699999999767,51,0.09815466666667305
25000,70.93085241666675,55,0.09815466666667305,60,0.19912660416666483
25001,71.02460825000009,56,0.09375583333333282,53,0.10537077083333202
25002,71.11836408333342,55,0.09375583333333282,56,0.20083195833332468
25003,71.21190741666675,54,0.09354333333332931,57,0.10728862499999536
25004,71.30715250000007,55,0.09524508333332449,60,0.19483604166666169
25005,71.40428454166674,58,0.09713204166666856,62,0.09770399999999313
25006,71.50198854166673,61,0.09770399999999313,70,0.2031288125000117
25007,71.59922704166674,63,0.09723850000000311,62,0.10589031250000858
25008,71.69339787500007,61,0.09417083333333665,64,0.19869793750000042
25009,71.7871537083334,60,0.09375583333333282,66,0.1049421041666676
25010,71.88048087500007,61,0.0933271666666684,64,0.19160137500000474
25011,71.97329725000007,64,0.09281637499999817,66,0.09878500000000656
25012,72.07208225000008,63,0.09878500000000656,77,0.24094493750000368
25013,72.19455625000008,71,0.12247399999999686,68,0.11847093750000681
25014,72.29986375000007,70,0.105307499999995,67,0.22377843750000181
25015,72.40517125000008,69,0.10530750000000921,70,0.1184709374999926
25016,72.51047875000008,68,0.105307499999995,67,0.2091064999999901
25017,72.61578625000007,67,0.105307499999995,64,0.10379899999999509
25018,72.71958525000007,66,0.10379899999999509,69,0.2215706875000052
25019,72.82363325000007,65,0.10404800000000591,61,0.11752268749999928
25020,72.9280559583334,64,0.10442270833333112,61,0.2234675833333455
25021,73.03285579166673,63,0.1047998333333311,61,0.1186677500000144
25022,73.13818879166675,62,0.10533300000001589,61,0.21827187500001344
25023,73.24597195833343,61,0.1077831666666782,60,0.11048870833333524
25024,73.35646066666676,60,0.11048870833333524,61,0.23631010416667664
25025,73.47241616666676,59,0.11595549999999832,56,0.12035460416667831
25026,73.5793673750001,58,0.10695120833334215,56,0.22785772916665792
25027,73.68659454166676,68,0.10722716666666088,59,0.12063056249999704
25028,73.79382170833344,64,0.10722716666667509,57,0.21137537500000292
25029,73.9010488750001,61,0.10722716666666088,56,0.10414820833334204
25030,74.00519708333344,58,0.10414820833334204,57,0.2245332916666456
25031,74.11026529166676,56,0.10506820833332142,52,0.11946508333332417
25032,74.21639562500009,52,0.10613033333332567,52,0.2291756458333225
25033,74.32362416666675,49,0.1072285416666574,52,0.1219471041666651
25034,74.43195916666674,46,0.10833499999999674,53,0.21858916666667483
25035,74.54142970833341,52,0.10947054166666703,52,0.1091186250000078
25036,74.65054833333342,51,0.1091186250000078,60,0.22785772916667213
25037,74.75777550000008,52,0.10722716666666088,55,0.12063056250001125
25038,74.86500266666675,50,0.10722716666667509,52,0.22785772916665792
25039,74.97222983333342,51,0.10722716666666088,55,0.12063056249999704
25040,75.07945700000009,47,0.10722716666667509,56,0.22017049999999472
25041,75.18668416666675,49,0.10722716666666088,55,0.11294333333333384
25042,75.29962750000008,51,0.11294333333333384,59,0.22750597916666493
25043,75.40650291666675,52,0.10687541666666789,55,0.12063056249999704
25044,75.51373008333341,51,0.10722716666666088,53,0.22785772916667213
25045,75.62095725000009,52,0.10722716666667509,55,0.12063056249999704
25046,75.72818441666675,56,0.10722716666666088,58,0.2178956666666636
25047,75.83541158333341,54,0.10722716666666088,52,0.11066850000000272
25048,75.94608008333341,51,0.11066850000000272,60,0.22669075000000305
25049,76.05275808333342,52,0.10667800000000227,50,0.12001275000000078
25050,76.15943608333342,49,0.10667800000000227,50,0.22669074999998884
25051,76.26611408333342,51,0.10667800000000227,51,0.12001274999998657
25052,76.37279208333341,54,0.10667799999998806,57,0.21903749999999889
25053,76.47947008333341,52,0.10667800000000227,53,0.11235949999999661
25054,76.5918295833334,49,0.11235949999999661,59,0.23457343750000348
25055,76.70221708333341,51,0.11038750000000164,46,0.12418593750000184
25056,76.81260458333341,47,0.11038750000000164,46,0.23457343750000348
25057,76.92299208333341,49,0.11038750000000164,49,0.12418593750000184
25058,77.03337958333341,52,0.11038750000000164,51,0.22077499999998906
25059,77.1437670833334,51,0.11038749999998743,47,0.11038750000000164
25060,77.2541545833334,44,0.11038750000000164,60,0.29165879166666286
25061,77.40340825000007,63,0.14925366666666662,53,0.14240512499999625
25062,77.5299905833334,61,0.12658233333333158,52,0.26898745833334203
25063,77.65657291666673,59,0.12658233333333158,51,0.14240512500001046
25064,77.78315525000006,58,0.12658233333333158,50,0.25197791666667513
25065,77.9097375833334,56,0.12658233333333158,49,0.12539558333334355
25066,78.03513316666674,54,0.12539558333334355,52,0.2701101250000164
25067,78.16131741666675,52,0.12618425000000855,44,0.14392587500000786
25068,78.28911425000008,51,0.1277968333333348,41,0.2766204166666597
25069,78.41856550000008,49,0.12945125000000246,39,0.14716916666665725
25070,78.54928729166674,51,0.13072179166665876,37,0.2666844583333301
25071,78.68174054166674,52,0.13245324999999752,35,0.13423120833333257
25072,78.81597175000007,44,0.13423120833333257,55,0.3051571249999938
25073,78.96841075000007,63,0.1524390000000011,51,0.1527181249999927
25074,79.1040055833334,61,0.13559483333332878,51,0.29601737500000525
25075,79.24193987500007,59,0.13793429166666726,50,0.15808308333333798
25076,79.38229245833341,58,0.140352583333339,49,0.28831720833332497
25077,79.52515325000007,56,0.14286079166666354,48,0.14545641666666143
25078,79.67060966666673,54,0.14545641666666143,42,0.3181817708333199
25079,79.81876187500006,52,0.14815220833332887,41,0.17002956249999102
25080,79.96970745833339,51,0.15094558333332486,39,0.3296319999999895
25081,80.12355820833338,49,0.1538507499999895,40,0.17578125
25082,80.27980820833338,51,0.15625,40,0.8420809999999932
25083,80.43605820833338,54,0.15625,50,0.15625
25084,80.59230820833338,52,0.15625,46,0.21511549999999602
25085,80.80742370833337,51,0.21511549999999602,44,0.3144654999999972
25086,81.12188920833337,32,0.3144654999999972,27,6.194267999999994
25087,81.23702583333338,39,0.11513662500000521,33,6.079131374999989
25088,81.35216245833337,44,0.115136624999991,40,5.963994749999998
25089,81.46729908333337,47,0.11513662500000521,40,5.8488581249999925
25090,81.58243570833338,51,0.11513662500000521,55,1.2121209999999962
25091,82.79455670833337,51,1.2121209999999962,44,0.674460499999995
25092,83.46901720833337,51,0.674460499999995,41,0.7694280000000049
25093,84.23844520833337,51,0.7694280000000049,40,3.077711999999991
25094,0.8290159999999999,51,0.0,61,0.414508
25095,1.2435239999999999,53,0.414508,73,0.20866525000000014
25096,1.34057375,51,0.09704975000000005,52,0.22323099999999996
25097,1.45218925,56,0.11161550000000009,64,0.11161549999999987
25098,1.6842867499999998,46,0.23209749999999985,67,0.20666675000000012
25099,1.7813364999999999,44,0.09704975000000005,47,0.21923399999999993
25100,1.8909535,51,0.10961700000000008,63,0.10961699999999985
25101,2.1159285,53,0.22497499999999993,69,0.20582425000000004
25102,2.21297825,51,0.09704975000000005,49,0.217549
25103,2.32175275,56,0.1087745,63,0.1087745
25104,2.546054,53,0.2243012499999999,73,0.20615175000000008
25105,2.64343125,51,0.09737725000000008,51,0.217549
25106,2.75220575,58,0.1087745,61,0.1087745
25107,2.976507,48,0.2243012499999999,64,0.20541549999999997
25108,3.07355675,46,0.09704975000000005,47,0.21673149999999985
25109,3.1819224999999998,51,0.10836574999999993,59,0.10836574999999993
25110,3.4054515,53,0.2235290000000001,69,0.2053297500000002
25111,3.50282875,51,0.09737725000000008,52,0.2159049999999998
25112,3.61078125,58,0.10795250000000012,66,0.10795249999999967
25113,3.8318132499999997,53,0.22103199999999967,76,0.20500224999999972
25114,3.9288629999999998,51,0.09704975000000005,53,0.21590500000000024
25115,4.0368154999999994,60,0.10795249999999967,65,0.10795250000000056
25116,4.2578475000000005,53,0.221032000000001,71,0.20549875000000029
25117,4.354571750000001,51,0.09672425000000029,49,0.217549
25118,4.463346250000001,56,0.1087745,63,0.1087745
25119,4.687647500000001,60,0.2243012499999999,72,0.20624399999999987
25120,4.784697250000001,58,0.09704975000000005,54,0.21838849999999965
25121,4.8938915000000005,65,0.10919424999999983,66,0.10919424999999983
25122,5.120374,53,0.22648249999999948,76,0.20624399999999987
25123,5.21742375,51,0.09704975000000005,57,0.21838849999999965
25124,5.326618,58,0.10919424999999983,66,0.10919424999999983
25125,5.5509755,60,0.2243575,72,0.2085019999999993
25126,5.649020999999999,58,0.09804549999999956,51,0.22091300000000036
25127,5.759477499999999,63,0.11045649999999974,64,0.11045650000000062
25128,5.986231,72,0.22675350000000094,75,0.22237200000000001
25129,6.092531,70,0.10630000000000006,53,0.2556327500000002
25130,6.208603,75,0.11607199999999995,69,0.13956075000000023
25131,6.4877245,53,0.2791214999999996,73,0.20866525000000014
25132,6.58477425,51,0.09704975000000005,51,0.22323100000000018
25133,6.69638975,56,0.11161550000000009,69,0.11161550000000009
25134,6.9339075,46,0.2375177500000003,67,0.20708500000000019
25135,7.03095725,44,0.09704975000000005,47,0.22007050000000028
25136,7.1409925,51,0.11003525000000014,65,0.11003525000000014
25137,7.37122975,53,0.23023725000000006,69,0.20822674999999968
25138,7.4682795,51,0.09704975000000005,53,0.22235400000000016
25139,7.5794565,56,0.11117699999999964,67,0.11117700000000053
25140,7.80552325,53,0.2260667500000002,73,0.20699424999999927
25141,7.9029005,51,0.09737725000000008,51,0.21923399999999926
25142,8.0125175,58,0.10961699999999919,65,0.10961700000000008
25143,8.238530749999999,48,0.2260132499999994,64,0.20624399999999987
25144,8.335580499999999,46,0.09704975000000005,47,0.21838849999999965
25145,8.444774749999999,51,0.10919424999999983,63,0.10919424999999983
25146,8.669327,53,0.22455225000000034,69,0.20615175000000008
25147,8.766704249999998,51,0.0973772499999992,49,0.217549
25148,8.87547875,58,0.10877450000000088,66,0.10877449999999911
25149,9.100649499999998,53,0.22517074999999842,76,0.20624399999999987
25150,9.197699249999998,51,0.09704975000000005,53,0.21838849999999965
25151,9.306893499999997,60,0.10919424999999983,70,0.10919424999999983
25152,9.531250999999997,55,0.2243575,71,0.20591849999999923
25153,9.627975249999997,53,0.0967242499999994,49,0.21838849999999965
25154,9.737169499999997,60,0.10919424999999983,66,0.10919424999999983
25155,9.962759999999996,53,0.22559049999999914,72,0.2090905000000003
25156,10.059809749999996,51,0.09704975000000005,53,0.2240815000000005
25157,10.171850499999996,58,0.11204075000000024,65,0.11204075000000024
25158,10.401179499999996,53,0.2293289999999999,80,0.2090905000000003
25159,10.498229249999996,51,0.09704975000000005,57,0.2240815000000005
25160,10.610269999999996,56,0.11204075000000024,71,0.11204075000000024
25161,10.840485999999997,65,0.23021600000000042,72,0.21275074999999966
25162,10.938531499999996,63,0.09804549999999956,51,0.22941050000000018
25163,11.053236749999996,68,0.11470525000000009,65,0.11470525000000009
25164,11.290902999999997,77,0.2376662500000002,75,0.22237200000000001
25165,11.397202999999996,75,0.10629999999999917,58,0.25362350000000156
25166,11.513274999999997,80,0.11607200000000084,71,0.13755150000000071
25167,11.788377999999996,53,0.27510299999999965,73,0.20866524999999925
25168,11.836902874999996,51,0.04852487500000002,58,0.04852487500000002
25169,11.885427749999996,53,0.04852487500000002,63,0.1116154999999992
25170,11.941235499999996,51,0.0558077499999996,52,0.16742325000000058
25171,11.997043249999995,56,0.0558077499999996,67,0.11161550000000098
25172,12.229140749999997,46,0.23209750000000184,67,0.20666675000000012
25173,12.277665624999997,44,0.04852487500000002,53,0.04852487500000002
25174,12.326190499999997,46,0.04852487500000002,57,0.10961700000000008
25175,12.380998999999997,44,0.05480850000000004,47,0.1644255000000001
25176,12.435807499999997,51,0.05480850000000004,66,0.10961700000000008
25177,12.660782499999998,53,0.2249750000000006,69,0.20582425000000093
25178,12.709307374999998,51,0.04852487500000002,55,0.04852487500000002
25179,12.757832249999998,53,0.04852487500000002,59,0.10877450000000088
25180,12.812219499999998,51,0.054387249999999554,49,0.16316175000000044
25181,12.866606749999999,56,0.05438725000000133,66,0.10877449999999911
25182,13.090907999999999,53,0.2243012499999999,73,0.20615175000000008
25183,13.139596625,51,0.048688625000000485,57,0.04868862499999871
25184,13.188285249999998,53,0.04868862499999871,63,0.10877450000000088
25185,13.242672499999998,51,0.054387249999999554,51,0.16316175000000044
25186,13.297059749999999,58,0.05438725000000133,66,0.10877449999999911
25187,13.521360999999999,48,0.2243012499999999,64,0.20541550000000086
25188,13.569885874999999,46,0.04852487500000002,53,0.04852487500000002
25189,13.618410749999999,48,0.04852487500000002,57,0.10836575000000082
25190,13.672593625,46,0.05418287500000041,57,0.16254862499999945
25191,13.7267765,51,0.05418287500000041,64,0.10836574999999904
25192,13.950305499999999,53,0.2235289999999992,69,0.20532974999999887
25193,13.998994125,51,0.048688625000000485,59,0.04868862499999871
25194,14.047682749999998,53,0.04868862499999871,61,0.10795249999999967
25195,14.101658999999998,51,0.05397624999999984,52,0.1619287499999995
25196,14.155635249999998,58,0.05397624999999984,65,0.10795249999999967
25197,14.376667249999997,53,0.22103199999999923,76,0.20500224999999972
25198,14.425192124999997,51,0.04852487500000002,57,0.04852487500000002
25199,14.473716999999997,53,0.04852487500000002,64,0.10795249999999967
25200,14.527693249999997,51,0.05397624999999984,53,0.1619287499999995
25201,14.581669499999997,60,0.05397624999999984,66,0.10795249999999967
25202,14.802701499999996,53,0.22103199999999923,71,0.2054987499999985
25203,14.851063624999997,51,0.04836212500000059,57,0.04836212499999881
25204,14.899425749999995,53,0.04836212499999881,63,0.10877449999999911
25205,14.953812999999995,51,0.054387249999999554,49,0.16316175000000044
25206,15.008200249999994,56,0.054387249999999554,67,0.10877450000000088
25207,15.232501499999996,60,0.22430125000000167,72,0.20624399999999987
25208,15.281026374999996,58,0.04852487500000002,58,0.04852487500000002
25209,15.329551249999996,60,0.04852487500000002,64,0.10919424999999983
25210,15.384148374999997,58,0.0545971250000008,54,0.16379137499999885
25211,15.438745499999996,65,0.054597124999999025,71,0.10919424999999983
25212,15.665227999999995,53,0.22648249999999948,76,0.20624399999999987
25213,15.713752874999996,51,0.04852487500000002,57,0.04852487500000002
25214,15.762277749999996,53,0.04852487500000002,65,0.10919424999999983
25215,15.816874874999996,51,0.0545971250000008,57,0.16379137499999885
25216,15.871471999999995,58,0.054597124999999025,70,0.10919424999999983
25217,16.095829499999994,60,0.2243574999999982,72,0.20850200000000285
25218,16.144852249999992,58,0.049022749999998894,55,0.049022750000002446
25219,16.193874999999995,60,0.049022750000002446,61,0.11045650000000151
25220,16.249103249999994,58,0.05522824999999898,51,0.1656847500000005
25221,16.304331499999996,63,0.05522825000000253,64,0.11045649999999796
25222,16.531084999999994,72,0.2267534999999974,75,0.22237200000000001
25223,16.584234999999993,70,0.0531499999999987,59,0.05315000000000225
25224,16.637384999999995,72,0.05315000000000225,63,0.11607199999999906
25225,16.695420999999996,70,0.05803600000000131,53,0.19759674999999888
25226,16.753456999999994,75,0.058035999999997756,72,0.13956075000000112
25227,17.032578499999993,53,0.2791214999999987,73,0.20866524999999925
25228,17.08110337499999,51,0.048524874999998246,53,0.0485248750000018
25229,17.129628249999993,53,0.0485248750000018,61,0.1116154999999992
25230,17.185435999999992,51,0.0558077499999996,51,0.1674232499999988
25231,17.24124374999999,56,0.0558077499999996,69,0.1116154999999992
25232,17.47876149999999,46,0.23751774999999853,67,0.2070849999999993
25233,17.52728637499999,44,0.048524874999998246,51,0.0485248750000018
25234,17.57581124999999,46,0.0485248750000018,59,0.11003524999999925
25235,17.63082887499999,44,0.0550176250000014,47,0.1650528749999971
25236,17.68584649999999,51,0.05501762499999785,65,0.11003524999999925
25237,17.916083749999988,53,0.23023724999999828,69,0.20822675000000146
25238,17.964608624999986,51,0.048524874999998246,54,0.0485248750000018
25239,18.013133499999988,53,0.0485248750000018,61,0.11117700000000141
25240,18.068721999999987,51,0.05558849999999893,53,0.16676550000000034
25241,18.12431049999999,56,0.05558850000000248,67,0.11117699999999786
25242,18.350377249999987,53,0.22606674999999754,73,0.20699425000000105
25243,18.399065874999987,51,0.048688625000000485,58,0.048688625000000485
25244,18.447754499999988,53,0.048688625000000485,65,0.10961700000000008
25245,18.502562999999988,51,0.05480850000000004,51,0.1644255000000001
25246,18.557371499999988,58,0.05480850000000004,65,0.10961700000000008
25247,18.78338474999999,48,0.22601325000000116,64,0.20624400000000165
25248,18.831909624999987,46,0.048524874999998246,51,0.0485248750000018
25249,18.88043449999999,48,0.0485248750000018,57,0.1091942500000016
25250,18.93503162499999,46,0.0545971250000008,47,0.16379137499999885
25251,18.98962874999999,51,0.0545971250000008,63,0.10919424999999805
25252,19.21418099999999,53,0.22455224999999857,69,0.20615175000000008
25253,19.26286962499999,51,0.048688625000000485,54,0.048688625000000485
25254,19.31155824999999,53,0.048688625000000485,61,0.10877449999999911
25255,19.36594549999999,51,0.05438725000000133,49,0.16316174999999689
25256,19.42033274999999,58,0.05438724999999778,66,0.10877449999999911
25257,19.64550349999999,53,0.2251707500000002,76,0.20624400000000165
25258,19.694028374999988,51,0.048524874999998246,59,0.0485248750000018
25259,19.74255324999999,53,0.0485248750000018,67,0.1091942500000016
25260,19.79715037499999,51,0.0545971250000008,53,0.16379137499999885
25261,19.85174749999999,60,0.0545971250000008,70,0.10919424999999805
25262,20.076104999999988,55,0.22435749999999643,71,0.20591850000000278
25263,20.12446712499999,53,0.04836212500000059,58,0.04836212500000059
25264,20.17282924999999,55,0.04836212500000059,65,0.1091942500000016
25265,20.22742637499999,53,0.0545971250000008,49,0.16379137499999885
25266,20.28202349999999,60,0.0545971250000008,66,0.10919424999999805
25267,20.50761399999999,53,0.22559049999999914,72,0.2090904999999985
25268,20.556138874999988,51,0.048524874999998246,58,0.0485248750000018
25269,20.60466374999999,53,0.0485248750000018,64,0.11204074999999847
25270,20.66068412499999,51,0.056020374999999234,53,0.16806112500000125
25271,20.716704499999988,58,0.056020374999999234,65,0.11204075000000202
25272,20.94603349999999,53,0.22932900000000345,80,0.21561375000000282
25273,20.99636912499999,51,0.050335624999998885,59,0.05033562500000244
25274,21.046704749999993,53,0.05033562500000244,66,0.1149425000000015
25275,21.104175999999992,51,0.057471249999998975,57,0.17241375000000048
25276,21.161647249999994,56,0.05747125000000253,71,0.11494249999999795
25277,21.399038749999992,65,0.23739149999999754,72,0.22344825000000057
25278,21.45076287499999,63,0.05172412499999979,55,0.05172412499999979
25279,21.50248699999999,65,0.05172412499999979,61,0.120000000000001
25280,21.56248699999999,63,0.05999999999999872,51,0.17999999999999972
25281,21.622486999999992,68,0.060000000000002274,65,0.11999999999999744
25282,21.87179724999999,77,0.24931024999999707,75,0.22237200000000001
25283,21.92494724999999,75,0.0531499999999987,60,0.05315000000000225
25284,21.97809724999999,77,0.05315000000000225,66,0.11607199999999906
25285,22.036133249999992,75,0.05803600000000131,58,0.20581924999999757
25286,22.09416924999999,80,0.058035999999997756,71,0.1477832499999998
25287,22.38973574999999,53,0.2955664999999996,58,0.21051424999999924
25288,22.48678549999999,51,0.09704975000000005,47,0.34741099999999747
25289,22.60024999999999,58,0.11346449999999919,65,0.23394649999999828
25290,22.834196499999987,53,0.23394649999999828,56,0.2075877499999983
25291,22.931246249999987,51,0.09704975000000005,44,0.33643400000000057
25292,23.041784249999985,58,0.11053799999999825,66,0.22589600000000232
25293,23.267680249999987,53,0.22589600000000232,58,0.20582424999999915
25294,23.364729999999987,51,0.09704975000000005,47,0.333075749999999
25295,23.473504499999986,60,0.10877449999999911,70,0.2243012499999999
25296,23.697805749999986,51,0.2243012499999999,61,0.2080782499999998
25297,23.795182999999987,49,0.09737725000000097,47,0.336928750000002
25298,23.905883999999986,61,0.11070099999999883,64,0.22622775000000317
25299,24.13211174999999,51,0.22622775000000317,52,0.20816075000000112
25300,24.22916149999999,49,0.09704975000000005,44,0.337385249999997
25301,24.34027249999999,56,0.11111100000000107,59,0.2262742499999959
25302,24.566546749999986,51,0.2262742499999959,50,0.20931750000000093
25303,24.663923999999987,49,0.09737725000000097,44,0.33696000000000126
25304,24.775864249999987,56,0.11194024999999996,59,0.2250197500000013
25305,25.00088399999999,51,0.2250197500000013,56,0.20866524999999925
25306,25.09793374999999,49,0.09704975000000005,47,0.3437129999999975
25307,25.209549249999988,56,0.1116154999999992,65,0.2320974999999983
25308,25.441646749999986,51,0.2320974999999983,56,0.20666675000000012
25309,25.538696499999986,49,0.09704975000000005,44,0.33459200000000067
25310,25.648313499999986,56,0.10961700000000008,66,0.2249750000000006
25311,25.873288499999987,51,0.2249750000000006,58,0.20582424999999915
25312,25.970338249999987,49,0.09704975000000005,47,0.33307575000000256
25313,26.079112749999986,58,0.10877449999999911,70,0.22430125000000345
25314,26.30341399999999,49,0.22430125000000345,61,0.2080782499999998
25315,26.40079124999999,47,0.09737725000000097,47,0.336928750000002
25316,26.51149224999999,59,0.11070099999999883,64,0.22622775000000317
25317,26.737719999999992,49,0.22622775000000317,52,0.2085739999999987
25318,26.834769749999992,47,0.09704975000000005,44,0.33821174999999926
25319,26.94629399999999,54,0.11152424999999866,59,0.2266875000000006
25320,27.17298149999999,49,0.2266875000000006,50,0.20931750000000093
25321,27.270358749999993,47,0.09737725000000097,44,0.33696000000000126
25322,27.382298999999993,54,0.11194024999999996,59,0.2250197500000013
25323,27.607318749999994,49,0.2250197500000013,56,0.20866524999999925
25324,27.704368499999994,47,0.09704975000000005,47,0.3437129999999975
25325,27.815983999999993,54,0.1116154999999992,65,0.2320974999999983
25326,28.04808149999999,49,0.2320974999999983,56,0.20666675000000012
25327,28.14513124999999,47,0.09704975000000005,44,0.33459200000000067
25328,28.25474824999999,54,0.10961700000000008,66,0.2249750000000006
25329,28.479723249999992,49,0.2249750000000006,59,0.2094092500000002
25330,28.576772999999992,47,0.09704975000000005,47,0.3402457500000011
25331,28.689132499999992,56,0.11235950000000017,68,0.22788625000000096
25332,28.917018749999993,47,0.22788625000000096,58,0.21188100000000176
25333,29.014395999999994,46,0.09737725000000097,46,0.3485295000000015
25334,29.128899749999995,54,0.11450375000000079,61,0.2340257500000007
25335,29.362925499999996,47,0.2340257500000007,52,0.2102572500000015
25336,29.459975249999996,46,0.09704975000000005,44,0.34157824999999775
25337,29.573182749999997,53,0.11320750000000146,59,0.2283707499999963
25338,29.801553499999994,47,0.2283707499999963,50,0.21144574999999932
25339,29.898930749999995,46,0.09737725000000097,44,0.34765900000000016
25340,30.012999249999993,53,0.11406849999999835,59,0.2335905000000018
25341,30.246589749999995,49,0.2335905000000018,48,0.20866524999999925
25342,30.343639499999995,47,0.09704975000000005,38,0.3437129999999975
25343,30.455254999999994,54,0.1116154999999992,55,0.2320974999999983
25344,30.687352499999992,61,0.2320974999999983,52,0.20666675000000012
25345,30.784402249999992,59,0.09704975000000005,42,0.33459200000000067
25346,30.894019249999992,66,0.10961700000000008,64,0.2249750000000006
25347,31.118994249999993,61,0.2249750000000006,58,0.2094092500000002
25348,31.216043999999993,59,0.09704975000000005,45,0.3402457500000011
25349,31.328403499999993,68,0.11235950000000017,66,0.22788625000000096
25350,31.556289749999994,59,0.22788625000000096,56,0.20848825000000204
25351,31.653666999999995,58,0.09737725000000097,44,0.3377487499999994
25352,31.764777999999996,66,0.11111100000000107,58,0.2266377499999983
25353,31.991415749999994,59,0.2266377499999983,50,0.21270124999999496
25354,32.08846549999999,58,0.09704974999999649,42,0.34646624999999887
25355,32.20411699999999,65,0.11565149999999846,57,0.2308147500000004
25356,32.43493174999999,59,0.2308147500000004,49,0.21438200000000052
25357,32.53230899999999,58,0.09737725000000097,42,0.3470889999999969
25358,32.64931374999999,65,0.11700474999999955,57,0.23008424999999733
25359,32.87939799999999,58,0.23008424999999733,50,0.2086652499999957
25360,32.976447749999984,57,0.09704974999999649,42,0.34371300000000105
25361,33.08806324999998,65,0.1116154999999992,59,0.23209750000000184
25362,33.320160749999985,46,0.23209750000000184,47,0.20666674999999657
25363,33.41721049999998,45,0.09704974999999649,36,0.33459200000000067
25364,33.52682749999998,53,0.10961700000000008,57,0.2249750000000006
25365,33.75180249999998,46,0.2249750000000006,51,0.20582424999999915
25366,33.84885224999998,45,0.09704974999999649,38,0.333075749999999
25367,33.95762674999998,55,0.10877450000000266,59,0.22430124999999634
25368,34.18192799999998,46,0.22430124999999634,50,0.20848825000000204
25369,34.27930524999998,45,0.09737725000000097,37,0.33774875000000293
25370,34.39041624999998,53,0.11111100000000107,51,0.22663775000000186
25371,34.61705399999998,46,0.22663775000000186,46,0.2085739999999987
25372,34.71410374999998,45,0.09704974999999649,36,0.33821174999999926
25373,34.82562799999998,52,0.11152425000000221,51,0.22668749999999704
25374,35.05231549999998,46,0.22668749999999704,43,0.20931750000000449
25375,35.14969274999998,45,0.09737725000000097,36,0.34408249999999896
25376,35.26163299999998,52,0.11194025000000352,51,0.23214224999999544
25377,35.49377524999998,46,0.23214224999999544,56,0.21029974999999723
25378,35.592459499999975,45,0.09868424999999803,47,0.34371300000000105
25379,35.704074999999975,50,0.1116154999999992,65,0.23209750000000184
25380,35.93617249999998,46,0.23209750000000184,56,0.21219150000000297
25381,36.03617249999998,45,0.10000000000000142,44,0.3397410000000036
25382,36.14836399999998,50,0.11219150000000155,67,0.22754950000000207
25383,36.37591349999998,46,0.22754950000000207,60,0.22088970833333121
25384,36.48044299999998,45,0.10452949999999817,47,0.3545492083333315
25385,36.59680320833331,52,0.11636020833333305,72,0.23818899999999843
25386,36.83499220833331,46,0.23818899999999843,61,0.22889599999999888
25387,36.94213495833331,45,0.10714275000000129,47,0.3685065000000023
25388,37.06388820833331,50,0.12175324999999759,63,0.2467532500000047
25389,37.310641458333315,46,0.2467532500000047,54,0.24413050000000425
25390,37.42342345833332,45,0.11278200000000282,44,0.39662550000000607
25391,37.55477195833332,49,0.13134850000000142,59,0.26527700000000465
25392,37.820048958333324,47,0.26527700000000465,50,0.25646325000000303
25393,37.937236458333324,45,0.1171875,43,0.42278224999999736
25394,38.07651220833333,49,0.13927575000000303,59,0.28350649999999433
25395,38.36001870833332,47,0.28350649999999433,72,0.2086652499999957
25396,38.45706845833332,45,0.09704974999999649,57,0.34371300000000105
25397,38.56868395833332,50,0.1116154999999992,78,0.23209750000000184
25398,38.80078145833332,40,0.23209750000000184,66,0.20666674999999657
25399,38.897831208333315,38,0.09704974999999649,51,0.33459200000000067
25400,39.007448208333315,45,0.10961700000000008,74,0.2249750000000006
25401,39.232423208333316,47,0.2249750000000006,67,0.20582424999999915
25402,39.32947295833331,45,0.09704974999999649,53,0.333075749999999
25403,39.438247458333315,50,0.10877450000000266,78,0.22430124999999634
25404,39.66254870833331,47,0.22430124999999634,72,0.20615175000000363
25405,39.75992595833331,45,0.09737725000000097,55,0.333075749999999
25406,39.868700458333315,52,0.10877450000000266,81,0.22430124999999634
25407,40.09300170833331,42,0.22430124999999634,66,0.20541549999999376
25408,40.19005145833331,40,0.09704974999999649,53,0.33189475000000357
25409,40.298417208333305,45,0.10836574999999726,75,0.2235290000000063
25410,40.52194620833331,47,0.2235290000000063,67,0.2053297500000042
25411,40.61932345833331,45,0.09737725000000097,57,0.3289844999999971
25412,40.727275958333315,52,0.10795250000000323,76,0.2210319999999939
25413,40.94830795833331,47,0.2210319999999939,75,0.20500224999999972
25414,41.045357708333306,45,0.09704974999999649,58,0.3289844999999971
25415,41.15331020833331,54,0.10795250000000323,78,0.2210319999999939
25416,41.3743422083333,47,0.2210319999999939,69,0.20549875000000384
25417,41.471066458333304,45,0.09672425000000118,53,0.333075749999999
25418,41.57984095833331,50,0.10877450000000266,76,0.22430124999999634
25419,41.8041422083333,54,0.22430124999999634,70,0.2062439999999981
25420,41.9011919583333,52,0.09704974999999649,59,0.33567675000000463
25421,42.0103862083333,59,0.1091942500000016,76,0.22648250000000303
25422,42.236868708333304,47,0.22648250000000303,75,0.2062439999999981
25423,42.3339184583333,45,0.09704974999999649,63,0.33355175000000514
25424,42.4431127083333,52,0.1091942500000016,81,0.22435750000000354
25425,42.667470208333306,54,0.22435750000000354,70,0.20850199999999575
25426,42.765515708333304,52,0.09804549999999779,55,0.337210000000006
25427,42.8759722083333,57,0.11045649999999796,76,0.22675350000000805
25428,43.10272570833331,66,0.22675350000000805,74,0.22237200000000001
25429,43.20902570833331,64,0.1062999999999974,58,0.39519350000000486
25430,43.32509770833331,69,0.11607200000000262,82,0.2442313124999984
25431,43.60421920833331,47,0.27912150000000224,72,0.2086652499999957
25432,43.70126895833331,45,0.09704974999999649,57,0.34371300000000105
25433,43.81288445833331,50,0.1116154999999992,78,0.23209750000000184
25434,44.04498195833331,40,0.23209750000000184,66,0.20666674999999657
25435,44.142031708333306,38,0.09704974999999649,46,0.33459200000000067
25436,44.251648708333306,45,0.10961700000000008,74,0.2249750000000006
25437,44.47662370833331,47,0.2249750000000006,67,0.20582424999999915
25438,44.5736734583333,45,0.09704974999999649,53,0.333075749999999
25439,44.682447958333306,50,0.10877450000000266,78,0.22430124999999634
25440,44.9067492083333,47,0.22430124999999634,72,0.20615175000000363
25441,45.0041264583333,45,0.09737725000000097,55,0.333075749999999
25442,45.112900958333306,52,0.10877450000000266,81,0.22430124999999634
25443,45.3372022083333,42,0.22430124999999634,66,0.20541549999999376
25444,45.4342519583333,40,0.09704974999999649,53,0.33189475000000357
25445,45.542617708333296,45,0.10836574999999726,75,0.2235290000000063
25446,45.7661467083333,47,0.2235290000000063,67,0.2053297500000042
25447,45.8635239583333,45,0.09737725000000097,57,0.3289844999999971
25448,45.971476458333306,52,0.10795250000000323,76,0.2210319999999939
25449,46.1925084583333,47,0.2210319999999939,75,0.20500224999999972
25450,46.2895582083333,45,0.09704974999999649,58,0.3289844999999971
25451,46.3975107083333,54,0.10795250000000323,78,0.2210319999999939
25452,46.618542708333294,49,0.2210319999999939,69,0.20549875000000384
25453,46.715266958333295,47,0.09672425000000118,53,0.333075749999999
25454,46.8240414583333,54,0.10877450000000266,76,0.22430124999999634
25455,47.048342708333294,47,0.22430124999999634,70,0.2062439999999981
25456,47.14539245833329,45,0.09704974999999649,59,0.33567675000000463
25457,47.25458670833329,52,0.1091942500000016,76,0.22648250000000303
25458,47.481069208333295,47,0.22648250000000303,75,0.2062439999999981
25459,47.57811895833329,45,0.09704974999999649,63,0.33355175000000514
25460,47.68731320833329,50,0.1091942500000016,81,0.22435750000000354
25461,47.9116707083333,59,0.22435750000000354,70,0.20850199999999575
25462,48.009716208333295,57,0.09804549999999779,55,0.337210000000006
25463,48.12017270833329,62,0.11045649999999796,76,0.22675350000000805
25464,48.3469262083333,71,0.22675350000000805,74,0.22237200000000001
25465,48.4532262083333,69,0.1062999999999974,58,0.39519350000000486
25466,48.5692982083333,74,0.11607200000000262,82,0.2442313124999984
25467,48.8484197083333,47,0.27912150000000224,65,0.21137899999999377
25468,48.9454694583333,45,0.09704974999999649,51,0.3491405000000043
25469,49.0597987083333,52,0.11432924999999727,71,0.23481125000000702
25470,49.294609958333304,47,0.23481125000000702,59,0.20966224999999383
25471,49.3916597083333,45,0.09704974999999649,48,0.3405830000000023
25472,49.5042722083333,52,0.11261249999999734,70,0.22797050000000496
25473,49.7322427083333,47,0.22797050000000496,65,0.20734374999999972
25474,49.8292924583333,45,0.09704974999999649,51,0.33611475000000013
25475,49.9395864583333,54,0.11029400000000322,76,0.2258207499999969
25476,50.1654072083333,48,0.2258207499999969,68,0.2080782499999998
25477,50.2627844583333,47,0.09737725000000097,52,0.33692874999999844
25478,50.3734854583333,55,0.11070099999999883,76,0.22622774999999962
25479,50.5997132083333,45,0.22622774999999962,56,0.2085739999999987
25480,50.696762958333295,43,0.09704974999999649,46,0.33821174999999926
25481,50.8082872083333,50,0.11152425000000221,63,0.22668749999999704
25482,51.034974708333294,45,0.22668749999999704,59,0.2080782499999998
25483,51.132351958333295,43,0.09737725000000097,49,0.33448149999999544
25484,51.243052958333294,50,0.11070099999999883,66,0.2237804999999966
25485,51.46683345833329,45,0.2237804999999966,65,0.2135997499999931
25486,51.56388320833329,43,0.09704974999999649,51,0.35358200000000295
25487,51.680433208333284,50,0.1165499999999966,71,0.23703200000000635
25488,51.91746520833329,45,0.23703200000000635,59,0.21094499999999528
25489,52.01451495833329,43,0.09704974999999649,48,0.3431484999999981
25490,52.128410208333285,50,0.11389524999999878,70,0.2292532499999993
25491,52.357663458333285,45,0.2292532499999993,65,0.20775074999999532
25492,52.45471320833328,43,0.09704974999999649,51,0.33692874999999844
25493,52.56541420833328,52,0.11070099999999883,76,0.22622774999999962
25494,52.79164195833328,46,0.22622774999999962,68,0.2080782499999998
25495,52.88901920833328,45,0.09737725000000097,52,0.33692874999999844
25496,52.99972020833328,53,0.11070099999999883,76,0.22622774999999962
25497,53.22594795833328,43,0.22622774999999962,56,0.2085739999999987
25498,53.322997708333276,41,0.09704974999999649,46,0.33821174999999926
25499,53.43452195833328,48,0.11152425000000221,63,0.22668749999999704
25500,53.661209458333275,43,0.22668749999999704,59,0.2080782499999998
25501,53.758586708333276,41,0.09737725000000097,49,0.33448149999999544
25502,53.869287708333275,48,0.11070099999999883,66,0.2237804999999966
25503,54.09306820833327,41,0.2237804999999966,60,0.2086652499999957
25504,54.19011795833327,40,0.09704974999999649,48,0.34371300000000105
25505,54.30173345833327,48,0.1116154999999992,67,0.23209750000000184
25506,54.53383095833327,53,0.23209750000000184,56,0.20666674999999657
25507,54.630880708333265,52,0.09704974999999649,45,0.33459200000000067
25508,54.740497708333265,60,0.10961700000000008,66,0.2249750000000006
25509,54.965472708333266,53,0.2249750000000006,60,0.20582424999999915
25510,55.06252245833326,52,0.09704974999999649,48,0.333075749999999
25511,55.171296958333265,62,0.10877450000000266,70,0.22430124999999634
25512,55.39559820833326,53,0.22430124999999634,68,0.2076712500000042
25513,55.49297545833326,52,0.09737725000000097,52,0.33611475000000013
25514,55.603269458333266,60,0.11029400000000322,72,0.2258207499999969
25515,55.82909020833326,53,0.2258207499999969,52,0.20775074999999532
25516,55.92613995833326,52,0.09704974999999649,46,0.3365652499999996
25517,56.03684095833326,59,0.11070099999999883,63,0.22586425000000077
25518,56.26270520833326,53,0.22586425000000077,55,0.2080782499999998
25519,56.36008245833326,52,0.09737725000000097,49,0.33448149999999544
25520,56.47078345833326,59,0.11070099999999883,66,0.2237804999999966
25521,56.694563958333255,53,0.2237804999999966,51,0.2086652499999957
25522,56.79161370833325,52,0.09704974999999649,40,0.34371300000000105
25523,56.90322920833325,60,0.1116154999999992,55,0.23209750000000184
25524,57.13532670833325,65,0.23209750000000184,53,0.20666674999999657
25525,57.23237645833325,64,0.09704974999999649,37,0.33459200000000067
25526,57.34199345833325,72,0.10961700000000008,54,0.2249750000000006
25527,57.56696845833325,65,0.2249750000000006,57,0.20582424999999915
25528,57.664018208333246,64,0.09704974999999649,40,0.333075749999999
25529,57.77279270833325,74,0.10877450000000266,60,0.22430124999999634
25530,57.997093958333245,65,0.22430124999999634,64,0.2080782499999998
25531,58.094471208333246,64,0.09737725000000097,44,0.33692874999999844
25532,58.205172208333245,72,0.11070099999999883,64,0.22622774999999962
25533,58.431399958333245,65,0.22622774999999962,53,0.20966224999999383
25534,58.52844970833324,64,0.09704974999999649,38,0.3403882500000037
25535,58.64106220833324,71,0.11261249999999734,53,0.22777575000000638
25536,58.868837958333245,65,0.22777575000000638,55,0.21170649999999824
25537,58.966215208333246,64,0.09737725000000097,40,0.34751750000000214
25538,59.08054445833324,71,0.11432924999999727,54,0.23318825000000487
25539,59.31373270833325,64,0.23318825000000487,57,0.2086652499999957
25540,59.410782458333244,63,0.09704974999999649,40,0.34371300000000105
25541,59.522397958333244,71,0.1116154999999992,55,0.23209750000000184
25542,59.754495458333245,52,0.23209750000000184,52,0.20666674999999657
25543,59.85154520833324,51,0.09704974999999649,36,0.33459200000000067
25544,59.96116220833324,59,0.10961700000000008,53,0.2249750000000006
25545,60.18613720833324,52,0.2249750000000006,55,0.20582424999999915
25546,60.28318695833324,51,0.09704974999999649,39,0.333075749999999
25547,60.39196145833324,61,0.10877450000000266,58,0.22430124999999634
25548,60.61626270833324,52,0.22430124999999634,61,0.20848825000000204
25549,60.71363995833324,51,0.09737725000000097,42,0.33774875000000293
25550,60.82475095833324,59,0.11111100000000107,60,0.22663775000000186
25551,61.05138870833324,52,0.22663775000000186,50,0.2085739999999987
25552,61.14843845833324,51,0.09704974999999649,36,0.33821174999999926
25553,61.25996270833324,58,0.11152425000000221,50,0.22668749999999704
25554,61.48665020833324,52,0.22668749999999704,52,0.2053297500000042
25555,61.58402745833324,51,0.09737725000000097,37,0.3371270000000024
25556,61.69197995833324,58,0.10795250000000323,51,0.22917449999999917
25557,61.92115445833324,53,0.22917449999999917,52,0.21533924999999954
25558,62.02084220833324,51,0.09968775000000107,37,0.35178499999999957
25559,62.13649370833324,56,0.11565149999999846,51,0.2361335000000011
25560,62.37262720833324,53,0.2361335000000011,49,0.2172819999999973
25561,62.47335920833324,51,0.10073200000000071,34,0.3528032500000009
25562,62.58990920833324,56,0.1165499999999966,49,0.2362532500000043
25563,62.82616245833324,53,0.2362532500000043,51,0.22420375000000092
25564,62.92761670833325,51,0.1014542500000033,36,0.3699802500000047
25565,63.050366208333244,58,0.12274949999999762,53,0.24723075000000705
25566,63.29759695833325,53,0.24723075000000705,55,0.23049524999999704
25567,63.40277895833325,51,0.10518199999999922,38,0.3810612500000019
25568,63.52809220833325,56,0.12531324999999782,55,0.2557480000000041
25569,63.78384020833325,53,0.2557480000000041,47,0.2399397499999978
25570,63.894134208333256,51,0.11029400000000322,32,0.39203475000000765
25571,64.02377995833325,55,0.12964574999999456,46,0.2623890000000131
25572,64.28616895833326,53,0.2623890000000131,48,0.23953183333333072
25573,64.40067270833326,51,0.11450374999999724,34,0.43209058333333417
25574,64.5257007916666,55,0.12502808333333348,47,0.26867968749999704
25575,64.8327632916666,53,0.3070625000000007,87,0.2086652499999957
25576,64.92981304166659,51,0.09704974999999649,63,0.1116154999999992
25577,65.04142854166659,56,0.1116154999999992,76,0.0558077499999996
25578,65.27352604166659,46,0.23209749999999474,80,0.20666674999999657
25579,65.37057579166658,44,0.09704974999999649,55,0.10961700000000008
25580,65.48019279166658,51,0.10961700000000008,75,0.05480849999999293
25581,65.70516779166658,53,0.2249750000000006,82,0.20582424999999205
25582,65.80221754166658,51,0.09704974999999649,58,0.10877449999999556
25583,65.91099204166657,56,0.10877449999999556,75,0.05438725000000488
25584,66.13529329166658,53,0.22430125000001055,87,0.20615174999998942
25585,66.23267054166658,51,0.09737724999999386,61,0.10877449999999556
25586,66.34144504166657,58,0.10877449999999556,73,0.05438725000000488
25587,66.56574629166658,48,0.22430125000001055,76,0.20541550000000086
25588,66.66279604166658,46,0.09704974999999649,55,0.10836575000000437
25589,66.77116179166659,51,0.10836575000000437,71,0.05418287499999508
25590,66.99469079166657,53,0.223528999999985,82,0.20532974999998999
25591,67.09206804166656,51,0.09737724999999386,63,0.10795249999999612
25592,67.20002054166656,58,0.10795249999999612,78,0.053976250000005166
25593,67.42105254166657,53,0.2210320000000081,92,0.20500224999999261
25594,67.51810229166657,51,0.09704974999999649,64,0.10795249999999612
25595,67.62605479166656,60,0.10795249999999612,77,0.053976250000005166
25596,67.84708679166657,53,0.2210320000000081,85,0.20549874999998963
25597,67.94381104166656,51,0.09672424999999407,58,0.10877449999999556
25598,68.05258554166656,56,0.10877449999999556,75,0.05438725000000488
25599,68.27688679166657,60,0.22430125000001055,86,0.2062439999999981
25600,68.37393654166657,58,0.09704974999999649,65,0.1091942500000016
25601,68.48313079166657,65,0.1091942500000016,78,0.0545971250000008
25602,68.70961329166657,53,0.22648250000000303,92,0.2062439999999981
25603,68.80666304166657,51,0.09704974999999649,69,0.1637913750000024
25604,68.91585729166657,58,0.1091942500000016,78,0.0545971250000008
25605,69.14021479166657,60,0.22435749999999643,86,0.20850199999999575
25606,69.23826029166656,58,0.09804549999999779,61,0.11045649999999796
25607,69.34871679166656,63,0.11045649999999796,76,0.05522824999999898
25608,69.57547029166656,72,0.22675350000000094,90,0.22237200000000712
25609,69.68177029166657,70,0.1063000000000045,64,0.11607200000000262
25610,69.79784229166657,75,0.11607200000000262,82,0.06978037499999346
25611,70.07696379166657,53,0.27912150000000224,87,0.2086652499999957
25612,70.17401354166657,51,0.09704974999999649,61,0.1116154999999992
25613,70.28562904166657,56,0.1116154999999992,82,0.0558077499999996
25614,70.52314679166656,46,0.23751774999999498,80,0.2070849999999922
25615,70.62019654166656,44,0.09704974999999649,55,0.1100352499999957
25616,70.73023179166655,51,0.1100352499999957,77,0.055017625000004955
25617,70.96046904166657,53,0.23023725000001605,82,0.20822674999999435
25618,71.05751879166657,51,0.09704974999999649,64,0.11117699999999786
25619,71.16869579166656,56,0.11117699999999786,80,0.05558849999999893
25620,71.39476254166657,53,0.2260667500000011,87,0.20699424999999394
25621,71.49213979166656,51,0.09737724999999386,61,0.10961700000000008
25622,71.60175679166656,58,0.10961700000000008,77,0.05480849999999293
25623,71.82777004166655,48,0.22601324999999406,76,0.2062439999999981
25624,71.92481979166655,46,0.09704974999999649,55,0.1091942500000016
25625,72.03401404166655,51,0.1091942500000016,75,0.0545971250000008
25626,72.25856629166655,53,0.22455225000000212,82,0.20615174999998942
25627,72.35594354166655,51,0.09737724999999386,58,0.10877449999999556
25628,72.46471804166654,58,0.10877449999999556,78,0.05438725000000488
25629,72.68988879166655,53,0.22517075000000375,92,0.2062439999999981
25630,72.78693854166654,51,0.09704974999999649,64,0.1091942500000016
25631,72.89613279166655,60,0.1091942500000016,84,0.0545971250000008
25632,73.12049029166654,55,0.22435749999999643,85,0.20591849999999567
25633,73.21721454166654,53,0.09672424999999407,58,0.1091942500000016
25634,73.32640879166654,60,0.1091942500000016,78,0.0545971250000008
25635,73.55199929166653,53,0.2255904999999956,86,0.20909050000000207
25636,73.64904904166653,51,0.09704974999999649,64,0.11204075000000557
25637,73.76108979166654,58,0.11204075000000557,77,0.056020374999988576
25638,73.99041879166653,53,0.2293289999999928,96,0.20909050000000207
25639,74.08746854166652,51,0.09704974999999649,69,0.11204075000000557
25640,74.19950929166653,56,0.11204075000000557,85,0.056020374999988576
25641,74.42972529166651,58,0.23021599999998443,86,0.20936274999999682
25642,74.52777079166651,56,0.09804549999999779,61,0.11131724999999904
25643,74.63908804166651,63,0.11131724999999904,77,0.05565862500000662
25644,74.8691137916665,60,0.2300257499999958,80,0.21163699999999608
25645,74.9664215416665,58,0.0973077499999988,63,0.11432924999999727
25646,75.0807507916665,63,0.11432924999999727,73,0.05716462499999864
25647,75.3142885416665,58,0.23353774999999644,86,0.20909050000000207
25648,75.4113382916665,56,0.09704974999999649,61,0.11204075000000557
25649,75.5233790416665,63,0.11204075000000557,75,0.056020374999988576
25650,75.75359504166649,70,0.23021599999998443,76,0.2089347499999974
25651,75.85164054166648,68,0.09804549999999779,54,0.1108892499999996
25652,75.96252979166648,75,0.1108892499999996,70,0.05544462500000691
25653,76.18971604166649,72,0.2271862500000026,77,0.20843175000000258
25654,76.28769129166649,70,0.09797525000000462,58,0.11045649999999796
25655,76.39814779166649,75,0.11045649999999796,69,0.05522824999999898
25656,76.62781279166649,70,0.22966499999999712,86,0.20909050000000207
25657,76.72486254166648,68,0.09704974999999649,61,0.11204075000000557
25658,76.83690329166649,75,0.11204075000000557,75,0.056020374999988576
25659,77.06711929166647,58,0.23021599999998443,61,0.2089347499999974
25660,77.16516479166647,56,0.09804549999999779,49,0.1108892499999996
25661,77.27605404166647,63,0.1108892499999996,61,0.2271862500000026
25662,77.50324029166647,60,0.2271862500000026,65,0.20843175000000258
25663,77.60121554166648,58,0.09797525000000462,54,0.11045649999999796
25664,77.71167204166647,63,0.11045649999999796,65,0.22966499999999712
25665,77.94133704166647,58,0.22966499999999712,68,0.20909050000000207
25666,78.03838679166647,56,0.09704974999999649,54,0.11204075000000557
25667,78.15042754166647,63,0.11204075000000557,67,0.23021599999998443
25668,78.38064354166646,70,0.23021599999998443,61,0.21194074999999657
25669,78.47868904166646,68,0.09804549999999779,49,0.11389524999999878
25670,78.59258429166645,75,0.11389524999999878,61,0.23019225000000176
25671,78.82277654166646,72,0.23019225000000176,65,0.215438000000006
25672,78.92075179166646,70,0.09797525000000462,54,0.11746275000000139
25673,79.03821454166646,75,0.11746275000000139,65,0.24021224999999902
25674,79.27842679166646,70,0.24021224999999902,68,0.20909050000000207
25675,79.37547654166646,68,0.09704974999999649,54,0.11204075000000557
25676,79.48751729166646,75,0.11204075000000557,67,0.23021599999998443
25677,79.71773329166645,70,0.23021599999998443,65,0.2089347499999974
25678,79.81577879166645,69,0.09804549999999779,46,0.1108892499999996
25679,79.92666804166645,74,0.1108892499999996,56,0.05544462500000691
25680,80.15385429166645,68,0.2271862500000026,66,0.20843175000000258
25681,80.25182954166645,67,0.09797525000000462,49,0.11045649999999796
25682,80.36228604166645,74,0.11045649999999796,61,0.05522824999999898
25683,80.59195104166645,68,0.22966499999999712,68,0.20909050000000207
25684,80.68900079166644,67,0.09704974999999649,48,0.11204075000000557
25685,80.80104154166645,72,0.11204075000000557,59,0.056020374999988576
25686,81.03125754166643,67,0.23021599999998443,61,0.2089347499999974
25687,81.12930304166643,65,0.09804549999999779,45,0.1108892499999996
25688,81.24019229166643,72,0.1108892499999996,55,0.05544462500000691
25689,81.46737854166643,65,0.2271862500000026,63,0.20843175000000258
25690,81.56535379166644,63,0.09797525000000462,47,0.11045649999999796
25691,81.67581029166644,70,0.11045649999999796,56,0.05522824999999898
25692,81.90547529166643,65,0.22966499999999712,65,0.20909050000000207
25693,82.00252504166643,63,0.09704974999999649,46,0.11204075000000557
25694,82.11456579166644,68,0.11204075000000557,56,0.056020374999988576
25695,82.34478179166642,58,0.23021599999998443,59,0.2089347499999974
25696,82.44282729166642,57,0.09804549999999779,43,0.1108892499999996
25697,82.55371654166642,62,0.1108892499999996,54,0.05544462500000691
25698,82.78090279166642,56,0.2271862500000026,58,0.20843175000000258
25699,82.87887804166643,55,0.09797525000000462,44,0.11045649999999796
25700,82.98933454166642,62,0.11045649999999796,54,0.05522824999999898
25701,83.21899954166642,56,0.22966499999999712,60,0.20909050000000207
25702,83.31604929166642,55,0.09704974999999649,43,0.11204075000000557
25703,83.42809004166642,60,0.11204075000000557,53,0.056020374999988576
25704,83.6583060416664,55,0.23021599999998443,58,0.2089347499999974
25705,83.7563515416664,53,0.09804549999999779,39,0.1108892499999996
25706,83.8672407916664,60,0.1108892499999996,51,0.05544462500000691
25707,84.0944270416664,53,0.2271862500000026,57,0.20843175000000258
25708,84.19240229166641,51,0.09797525000000462,44,0.11045649999999796
25709,84.30285879166641,58,0.11045649999999796,54,0.05522824999999898
25710,84.5325237916664,53,0.22966499999999712,60,0.20909050000000207
25711,84.6295735416664,51,0.09704974999999649,43,0.11204075000000557
25712,84.74161429166641,56,0.11204075000000557,54,0.23021599999998443
25713,84.9718302916664,58,0.23021599999998443,61,0.2089347499999974
25714,85.06987579166639,56,0.09804549999999779,44,0.1108892499999996
25715,85.18076504166639,63,0.1108892499999996,55,0.2271862500000026
25716,85.4079512916664,60,0.2271862500000026,61,0.20843175000000258
25717,85.5059265416664,58,0.09797525000000462,46,0.11045649999999796
25718,85.6163830416664,63,0.11045649999999796,59,0.22966499999999712
25719,85.84604804166639,58,0.22966499999999712,63,0.20909050000000207
25720,85.94309779166639,56,0.09704974999999649,46,0.11204075000000557
25721,86.0551385416664,63,0.11204075000000557,56,0.23021599999998443
25722,86.28535454166638,58,0.23021599999998443,63,0.2089347499999974
25723,86.38340004166638,56,0.09804549999999779,44,0.1108892499999996
25724,86.49428929166638,63,0.1108892499999996,54,0.2271862500000026
25725,86.72147554166638,60,0.2271862500000026,58,0.20843175000000258
25726,86.81945079166638,58,0.09797525000000462,44,0.11045649999999796
25727,86.92990729166638,63,0.11045649999999796,54,0.22966499999999712
25728,87.15957229166638,58,0.22966499999999712,59,0.20909050000000207
25729,87.25662204166638,56,0.09704974999999649,43,0.11204075000000557
25730,87.36866279166638,63,0.11204075000000557,54,0.23021599999998443
25731,87.59887879166637,58,0.23021599999998443,58,0.2089347499999974
25732,87.69692429166636,56,0.09804549999999779,40,0.1108892499999996
25733,87.80781354166636,63,0.1108892499999996,52,0.2271862500000026
25734,88.03499979166637,58,0.2271862500000026,56,0.4380967499999997
25735,88.13297504166637,56,0.09797525000000462,42,0.11045649999999796
25736,88.24343154166637,63,0.11045649999999796,51,0.22966499999999712
25737,88.47309654166637,58,0.22966499999999712,56,0.4393064999999865
25738,88.52162141666636,56,0.048524874999998246,40,0.048524874999998246
25739,88.57014629166636,58,0.048524874999998246,46,0.05602037500000279
25740,88.62616666666636,56,0.05602037500000279,38,0.05602037500000279
25741,88.68218704166637,63,0.05602037500000279,49,0.23021599999998443
25742,88.91240304166635,58,0.23021599999998443,54,0.2089347499999974
25743,88.96142579166636,56,0.049022750000006,37,0.04902274999999179
25744,89.01044854166635,58,0.04902274999999179,40,0.05544462500000691
25745,89.06589316666636,56,0.05544462500000691,37,0.0554446249999927
25746,89.12133779166635,63,0.0554446249999927,47,0.2271862500000026
25747,89.34852404166635,58,0.2271862500000026,51,0.445470499999999
25748,89.39751166666635,56,0.048987624999995205,37,0.048987625000009416
25749,89.44649929166636,58,0.048987625000009416,38,0.05522824999999898
25750,89.50172754166636,56,0.05522824999999898,37,0.05522824999999898
25751,89.55695579166635,63,0.05522824999999898,46,0.2370387499999964
25752,89.79399454166635,58,0.2370387499999964,51,0.44397461666666516
25753,89.84650476666636,56,0.05251022500000602,36,0.052966175000008775
25754,89.89947094166637,58,0.052966175000008775,40,0.055744899999993436
25755,89.95521584166636,56,0.055744899999993436,34,0.055602133333351844
25756,90.01081797499971,58,0.055602133333351844,48,0.22715118333330508
25757,90.06643020833305,56,0.05561223333333487,34,0.05613912499998719
25758,90.12256933333303,58,0.05613912499998719,48,0.0570175916666642
25759,90.1795869249997,56,0.0570175916666642,34,0.05838223333331882
25760,90.23796915833302,58,0.05838223333331882,47,0.21226539166666214
25761,90.28997020833302,56,0.052001050000001214,33,0.052583325000000514
25762,90.34255353333302,58,0.052583325000000514,35,0.05281687500000487
25763,90.39537040833302,56,0.05281687500000487,33,0.05486414166665554
25764,90.45023454999968,63,0.05486414166665554,42,0.22331967499999905
25765,90.505819958333,56,0.0555854083333287,33,0.05563904166666589
25766,90.56145899999967,58,0.05563904166666589,35,0.056012991666676726
25767,90.61747199166635,56,0.056012991666676726,32,0.056082233333327736
25768,90.67355422499968,58,0.056082233333327736,45,0.21454919166667707
25769,90.72550556666634,56,0.051951341666665485,32,0.05303335000000686
25770,90.77853891666635,58,0.05303335000000686,34,0.0544154416666629
25771,90.83295435833301,56,0.0544154416666629,32,0.05514905833334183
25772,90.88810341666635,63,0.05514905833334183,40,0.22167120833333342
25773,90.94313373333301,56,0.05503031666665947,32,0.05547776666666948
25774,90.99861149999968,58,0.05547776666666948,33,0.05543302499999925
25775,91.05404452499968,56,0.05543302499999925,31,0.05573010000000522
25776,91.10977462499969,56,0.05573010000000522,45,0.2163050666666635
25777,91.16358342499969,58,0.05380879999999877,32,0.05388180833332967
25778,91.21746523333302,56,0.05388180833332967,34,0.054113833333332195
25779,91.27157906666635,58,0.054113833333332195,32,0.054500625000002856
25780,91.32607969166635,56,0.054500625000002856,33,0.05497363333331862
25781,91.38105332499967,58,0.05497363333331862,32,0.055679583333329674
25782,91.436732908333,55,0.055679583333329674,33,0.11920849999999916
25783,91.555941408333,56,0.11920849999999916,44,0.05943758333333449
25784,91.61537899166633,59,0.05943758333333449,44,0.05943758333333449
25785,91.67481657499967,61,0.05943758333333449,45,0.059686708333330785
25786,91.734503283333,60,0.059686708333330785,46,0.059934749999996484
25787,91.794438033333,62,0.059934749999996484,46,0.0601864583333338
25788,91.85462449166633,65,0.0601864583333338,47,0.06035737500000948
25789,91.91498186666634,63,0.06035737500000948,48,0.06061099999999442
25790,91.97559286666633,67,0.06061099999999442,48,0.06078474999999628
25791,92.03637761666633,70,0.06078474999999628,49,0.060870750000006524
25792,92.09724836666634,68,0.060870750000006524,50,0.06165808333332734
25793,92.15890644999966,71,0.06165808333332734,50,0.06246783333332928
25794,92.22137428333299,73,0.06246783333332928,51,0.0632937499999997
25795,92.28466803333299,72,0.0632937499999997,51,0.06386141666666845
25796,92.34852944999966,74,0.06386141666666845,52,0.0647267500000055
25797,92.41325619999967,77,0.0647267500000055,53,0.06561962499999652
25798,92.47887582499966,75,0.06561962499999652,53,0.06653354166667214
25799,92.54540936666633,80,0.06653354166667214,60,0.75
25800,94.04540936666633,48,1.5,36,0.75
25801,94.79540936666633,48,0.75,36,2.25
25802,97.04540936666633,48,2.25,36,4.0
25803,0.004115225,62,0.0,103,0.7877341583333333
25804,0.24176946875,47,0.23765424375,73,0.10020379583333333
25805,0.3374822520833334,46,0.09571278333333338,73,0.09901133125
25806,0.42448158333333336,44,0.08699933124999998,79,0.09920986250000002
25807,0.5191733708333334,41,0.09469178750000001,72,0.09947727500000003
25808,0.6080766208333334,42,0.08890324999999999,72,0.09969795000000004
25809,0.6979558333333333,41,0.08987921249999997,71,0.09995415000000007
25810,0.7873039333333334,38,0.08934810000000004,79,0.1001611916666666
25811,0.88290585,34,0.09560191666666662,72,0.10043378333333342
25812,0.9741932833333333,35,0.09128743333333333,72,0.1006471166666667
25813,1.064901575,34,0.09070829166666661,70,0.1009173000000001
25814,1.1512929,32,0.08639132500000013,79,0.10112373333333347
25815,1.24934915,29,0.09805624999999996,71,0.10140634166666662
25816,1.3399862541666667,30,0.0906371041666667,71,0.10161920416666681
25817,1.430803,29,0.09081674583333332,68,0.10188042500000005
25818,1.5218522916666668,26,0.09104929166666675,79,0.10216239583333331
25819,1.6124047812500002,22,0.0905524895833334,71,0.10216717499999994
25820,1.7060580250000001,23,0.09365324374999995,71,0.10216717499999994
25821,1.80125925625,22,0.0952012312499999,69,0.10216717500000017
25822,1.891816525,20,0.09055726875000003,79,0.10216717500000017
25823,1.984695775,17,0.09287924999999997,71,0.10216717499999994
25824,2.0845409687500003,18,0.09984519375000023,71,0.10216717499999994
25825,2.17277625625,17,0.08823528749999987,68,0.1024391958333335
25826,2.263333525,15,0.09055726875000003,76,0.12609930416666648
25827,2.358282635416667,10,0.09494911041666665,69,0.12619822083333343
25828,2.4541293854166666,15,0.09584674999999976,70,0.12619822083333343
25829,2.5531710270833337,10,0.09904164166666707,68,0.1378154208333333
25830,2.6517915000000003,59,0.09862047291666665,102,0.38135625000000006
25831,2.779969572916667,10,0.1281780729166666,71,0.16737302083333327
25832,2.907088322916667,15,0.12711875000000017,75,0.1866184645833333
25833,3.0331477500000004,58,0.1260594270833333,95,0.1810626333333336
25834,3.0347005458333336,10,0.0015527958333332315,74,0.19172788750000036
25835,3.2106356333333337,14,0.1759350875000001,79,0.11259735000000015
25836,3.214210383333334,65,0.003574750000000293,106,0.7674695833333329
25837,3.4412713875000005,47,0.22706100416666652,71,0.09880227500000016
25838,3.5288461312500004,46,0.08757474374999985,70,0.09900683541666666
25839,3.6180932166666673,44,0.08924708541666693,79,0.09921212499999976
25840,3.706010154166667,41,0.08791693749999974,72,0.0994590750000004
25841,3.8009375041666673,42,0.0949273500000003,72,0.09969794999999992
25842,3.8930825791666672,41,0.09214507499999991,70,0.09996101249999967
25843,3.983952691666667,38,0.09087011249999977,79,0.10017271250000048
25844,4.072727216666667,34,0.08877452500000027,71,0.10042451666666619
25845,4.162480991666667,35,0.08975377500000015,71,0.10063314166666704
25846,4.258526983333334,34,0.09604599166666627,68,0.10091730000000076
25847,4.3487409333333344,32,0.09021395000000076,79,0.10113780833333319
25848,4.442976904166668,29,0.09423597083333313,72,0.10140870208333386
25849,4.535154831250001,30,0.09217792708333317,72,0.10162632291666718
25850,4.623663883333335,29,0.08850905208333426,70,0.10188042499999916
25851,4.713169966666668,26,0.08950608333333321,79,0.10215761666666623
25852,4.809135633333335,22,0.0959656666666664,71,0.10216717499999994
25853,4.899692902083334,23,0.09055726874999959,71,0.10216717499999994
25854,4.997990108333334,22,0.09829720624999982,70,0.10216717500000083
25855,5.085451402083335,20,0.08746129375000056,79,0.10216717499999994
25856,5.182974614583334,17,0.09752321249999962,71,0.10265405000000083
25857,5.276757691666668,18,0.09378307708333367,71,0.10645167499999975
25858,5.374338393750001,17,0.09758070208333347,69,0.10645167499999975
25859,5.4711126437500015,15,0.09677425000000017,79,0.12741942916666638
25860,5.564661085416668,10,0.0935484416666661,72,0.12741942916666726
25861,5.659822431250001,15,0.09516134583333358,73,0.12741942916666638
25862,5.754983777083335,10,0.09516134583333358,73,0.1370102854166655
25863,5.853047829166667,15,0.09806405208333224,76,0.16766956250000042
25864,5.854760041666667,59,0.0017122125000001986,101,0.3829785000000001
25865,5.986674858333334,10,0.13191481666666682,76,0.16808500833333362
25866,6.104759895833334,15,0.11808503750000021,79,0.1826774708333332
25867,6.2366747125,10,0.13191481666666593,76,0.18276929791666685
25868,6.237738541666667,58,0.0010638291666671407,95,0.17228829999999995
25869,6.4061114166666675,14,0.1683728750000002,79,0.10322374999999973
25870,6.410026841666667,68,0.00391542499999975,106,0.20546549999999986
25871,6.616989345833334,71,0.2069625041666665,87,0.09880227499999972
25872,6.701570081250001,70,0.084580735416667,80,0.09904280208333294
25873,6.707558097916667,58,0.005988016666666596,71,0.09906078541666652
25874,6.791603883333334,68,0.08404578541666652,87,0.0992958374999997
25875,6.796859133333333,56,0.0052552499999993785,79,0.09931167500000004
25876,6.885628633333333,53,0.08876949999999972,71,0.09956145000000038
25877,6.889393695833333,65,0.0037650625000003046,77,0.09957282500000009
25878,6.973105483333333,54,0.08371178749999952,71,0.09980775000000008
25879,6.974616058333333,66,0.0015105750000001805,77,0.09981232500000026
25880,7.065337483333333,65,0.09072142499999991,76,0.1000690250000007
25881,7.0660950583333335,53,0.000757575000000621,70,0.10007132916666617
25882,7.1585675958333335,62,0.09247253749999995,87,0.10033416666666639
25883,7.1608472333333335,50,0.0022796375000000424,79,0.1003411166666659
25884,7.245193820833333,46,0.08434658749999979,70,0.10059826666666627
25885,7.250517608333333,58,0.005323787500000066,77,0.10060984999999967
25886,7.340456716666666,47,0.08993910833333274,70,0.10087071666666692
25887,7.3435055,59,0.0030487833333339154,77,0.10088003333333262
25888,7.433682183333333,58,0.09017668333333262,76,0.10113780833333408
25889,7.523316929166667,44,0.08963474583333397,79,0.10139453958333355
25890,7.5240838,56,0.0007668708333330443,87,0.10139690000000012
25891,7.613173,41,0.08908920000000009,71,0.10165242500000016
25892,7.61394223125,53,0.0007692312500005016,77,0.10165479791666687
25893,7.7109674041666665,54,0.09702517291666624,77,0.10193538541666669
25894,7.7125106125,42,0.0015432083333335456,71,0.10194016458333355
25895,7.801292883333333,53,0.08878227083333279,76,0.10219602500000047
25896,7.805162852083333,41,0.003869968750000119,69,0.10220804583333365
25897,7.894172133333333,50,0.08900928125000007,87,0.10248452500000038
25898,7.89494853125,38,0.0007763979166668378,79,0.1024845249999995
25899,7.985787087499999,34,0.09083855624999959,71,0.10248452500000038
25900,7.991221872916666,46,0.005434785416666976,77,0.1024845249999995
25901,8.080507633333333,35,0.0892857604166668,71,0.1024845249999995
25902,8.082836827083334,47,0.0023291937500005133,77,0.1024845249999995
25903,8.170569791666667,46,0.08773296458333313,76,0.1024845249999995
25904,8.172898985416666,34,0.002329193749998737,69,0.10248452500000127
25905,8.26761953125,44,0.09472054583333467,87,0.1024845249999995
25906,8.269948724999999,32,0.002329193749998737,79,0.10248452500000127
25907,8.358458087499999,29,0.08850936249999997,71,0.10248452500000127
25908,8.359234485416666,41,0.0007763979166668378,77,0.10248452500000127
25909,8.453178633333334,30,0.09394414791666783,71,0.1024845249999995
25910,8.455507827083332,42,0.002329193749998737,77,0.10248452500000127
25911,8.544017189583332,29,0.08850936249999997,69,0.10248452500000127
25912,8.54712278125,41,0.003105591666667351,76,0.1024845249999995
25913,8.640290531249999,38,0.09316774999999922,87,0.10248452500000127
25914,8.643396122916666,26,0.003105591666667351,79,0.1024845249999995
25915,8.7311290875,34,0.08773296458333313,77,0.1024845249999995
25916,8.822744041666667,35,0.09161495416666732,77,0.1024845249999995
25917,8.828178827083333,23,0.005434785416666088,71,0.1024845249999995
25918,8.916688189583333,34,0.08850936249999997,76,0.1024845249999995
25919,8.91979378125,22,0.003105591666667351,69,0.1024845249999995
25920,9.009855939583332,20,0.09006215833333187,79,0.10248452500000127
25921,9.011408735416666,32,0.0015527958333336755,87,0.10248452500000127
25922,9.107682077083332,29,0.09627334166666657,77,0.10248452500000127
25923,9.198520633333333,30,0.09083855625000048,77,0.1024845249999995
25924,9.201626225,18,0.003105591666667351,71,0.1024845249999995
25925,9.290911985416667,17,0.0892857604166668,70,0.1024845249999995
25926,9.295570372916666,29,0.00465838749999925,76,0.1024845249999995
25927,9.384856133333333,15,0.0892857604166668,62,0.09316774999999922
25928,9.387185327083333,27,0.0023291937500005133,69,0.09316774999999922
25929,9.4764710875,26,0.0892857604166668,69,0.09316774999999922
25930,9.481129475,14,0.00465838749999925,62,0.09305616666666694
25931,9.567309643749999,22,0.08618016874999945,67,0.09003840625000059
25932,9.568086041666666,34,0.0007763979166668378,73,0.09001275833333366
25933,9.662603299999999,32,0.09451725833333313,72,0.09943427500000013
25934,9.664855549999999,20,0.0022522499999997336,66,0.09944788750000022
25935,9.751463549999999,30,0.08660800000000002,71,0.09993605000000017
25936,9.7522188375,18,0.0007552875000005344,65,0.09994064166666661
25937,9.838493174999998,29,0.08627433749999902,70,0.10044774583333549
25938,9.93360555,18,0.09511237500000114,64,0.10099269999999905
25939,9.935129941666666,30,0.0015243916666669577,69,0.10100204999999995
25940,10.0230951875,17,0.08796524583333287,63,0.1019627229166673
25941,10.0253958,29,0.0023006125000009092,69,0.10212921666666652
25942,10.114570174999999,27,0.08917437499999892,69,0.10834961666666665
25943,10.120946066666667,15,0.0063758916666678545,63,0.10855267499999854
25944,10.217163210416667,14,0.09621714374999968,62,0.09861489374999977
25945,10.220452685416666,26,0.003289474999998987,68,0.0983374687499996
25946,10.311735616666667,37,0.0912829312500012,76,0.09978427499999931
25947,10.316531116666665,25,0.004795499999998398,70,0.09952050000000057
25948,10.403211729166665,23,0.08668061250000036,68,0.09992227499999906
25949,10.408498741666666,35,0.005287012500000188,74,0.09995441666666594
25950,10.49781485,34,0.08931610833333359,76,0.10042915000000008
25951,10.499334608333331,22,0.0015197583333321774,69,0.10043378333333308
25952,10.584524474999998,20,0.08518986666666706,69,0.10083358333333159
25953,10.586048866666665,32,0.0015243916666669577,74,0.1008429333333325
25954,10.676164991666665,22,0.09011612499999977,68,0.10133086666666458
25955,10.678458566666665,34,0.0022935749999994925,74,0.10134498541666659
25956,10.76749585208333,32,0.08903728541666567,73,0.10211048749999918
25957,10.77364970208333,20,0.00615385000000046,68,0.10249258749999868
25958,10.86233939583333,18,0.08868969374999836,67,0.1077571749999997
25959,10.86797235208333,30,0.005632956250000376,73,0.10784317499999929
25960,10.963560620833329,29,0.09558826874999937,73,0.09797758750000085
25961,10.966011602083329,17,0.002450981249999984,67,0.09788509375000132
25962,11.05669790833333,42,0.09068630625000118,82,0.10401587499999998
25963,11.05833189583333,30,0.0016339874999999893,76,0.10395917499999996
25964,11.15282734583333,29,0.09449545000000015,73,0.10435070416666647
25965,11.15755920833333,41,0.004731862499999906,83,0.10438074166666667
25966,11.246076991666664,27,0.08851778333333371,74,0.10499467500000037
25967,11.252416149999997,39,0.006339158333332762,84,0.10504530000000223
25968,11.345480606249998,38,0.09306445625000137,85,0.1056005187500002
25969,11.347078052083331,26,0.0015974458333332109,75,0.10561078958333425
25970,11.438227122916665,39,0.09114907083333357,85,0.10622866250000129
25971,11.443846399999998,27,0.005619277083333429,76,0.10625455000000095
25972,11.533971908333333,38,0.09012550833333499,87,0.10670239166666562
25973,11.538810620833333,26,0.004838712499999787,77,0.10673380416666589
25974,11.6349924875,23,0.09618186666666695,79,0.10770643958333004
25975,11.6366158625,35,0.0016233749999994274,88,0.10772780208333188
25976,11.73200813333333,34,0.09539227083333124,89,0.10928495833333507
25977,11.73447523958333,22,0.0024671062500001284,80,0.10931785208333444
25978,11.827959758333332,35,0.0934845187500013,90,0.11084250000000218
25979,11.828793091666665,23,0.0008333333333325754,81,0.11085662500000382
25980,11.928644216666667,22,0.09985112500000248,83,0.11258422500000087
25981,11.932022591666668,34,0.0033783750000004886,89,0.11264227500000068
25982,12.030060060416668,20,0.0980374687500003,83,0.11428278124999913
25983,12.036932910416668,32,0.0068728500000005965,92,0.11440293124999812
25984,12.133868570833332,18,0.0969356604166638,85,0.11629324583333656
25985,12.137352887499999,30,0.003484316666666487,94,0.11644529583333707
25986,12.242025125000001,32,0.10467223750000265,97,0.11995496666666661
25987,12.246525450000002,20,0.004500325000000416,88,0.12000010000000039
25988,12.353798266666669,30,0.10727281666666677,102,0.12451356458333329
25989,12.356525541666668,18,0.002727274999999807,90,0.125555133333334
25990,12.458343808333336,15,0.10181826666666716,92,0.14936499166666728
25991,12.459252900000003,27,0.0009090916666671944,104,0.24938275625000017
25992,12.613553597916669,22,0.1543006979166659,49,0.10816199583333308
25993,12.706996310416669,27,0.09344271249999991,50,0.10773143333333302
25994,12.805770100000002,29,0.09877378958333338,52,0.10723807499999971
25995,12.905723987500002,30,0.0999538874999999,54,0.10666574374999982
25996,13.005938114583335,34,0.10021412708333344,55,0.10616661250000092
25997,13.101688070833337,39,0.09574995625000149,57,0.10576912500000013
25998,13.196239258333335,41,0.09455118749999869,59,0.10576912500000013
25999,13.288386602083337,42,0.09214734375000155,60,0.10576912500000013
26000,13.387745477083337,41,0.09935887500000007,59,0.10576912499999835
26001,13.482296664583336,39,0.09455118749999869,57,0.10576912500000013
26002,13.582456820833336,34,0.1001601562500003,57,0.10576912500000013
26003,13.675405445833336,30,0.092948625,57,0.10576912500000013
26004,13.772360477083335,29,0.09695503124999938,56,0.10576912500000013
26005,13.866911664583336,27,0.09455118750000047,55,0.10576912500000013
26006,13.966270539583336,22,0.09935887500000007,54,0.10605945833333408
26007,14.061623008333337,15,0.0953524687500007,56,0.10871712500000008
26008,14.16128037291667,22,0.09965736458333296,59,0.10871712500000008
26009,14.255996050000004,27,0.09471567708333417,62,0.10871712500000008
26010,14.358124258333337,29,0.10212820833333325,63,0.10871712500000008
26011,14.461076081250003,30,0.10295182291666549,68,0.10871712500000008
26012,14.557438987500003,29,0.09636290625000044,66,0.10871712500000008
26013,14.658743581250004,27,0.101304593750001,63,0.10871712500000008
26014,14.750988414583336,22,0.09224483333333211,59,0.09883375000000072
26015,14.850645779166669,15,0.09965736458333296,56,0.10871712500000186
26016,14.947832300000004,22,0.09718652083333446,59,0.10958477500000008
26017,15.054620862500004,27,0.10678856250000024,63,0.12479441874999964
26018,15.161997258333336,63,0.1073763958333327,95,0.13458904166666663
26019,15.284138175000002,65,0.12214091666666604,102,0.38338485416666757
26020,15.289324893750003,30,0.005186718750000097,67,0.13692937499999935
26021,15.404470050000002,29,0.11514515624999966,65,0.13692937499999935
26022,15.534138018750003,27,0.12966796875000064,63,0.1367633916666673
26023,15.652244400000002,22,0.11810638124999961,61,0.13464809999999972
26024,15.656261758333336,66,0.004017358333333831,107,0.13513524999999937
26025,15.790270881250002,15,0.134009122916666,59,0.11136432500000026
26026,15.791397008333336,66,0.0011261270833333725,114,0.7965324999999996
26027,15.896601643750003,22,0.10520463541666736,46,0.11057841874999852
26028,15.98878540416667,27,0.09218376041666687,47,0.11023693749999808
26029,16.096522341666667,29,0.1077369374999968,49,0.10969020000000285
26030,16.19130637916667,30,0.09478403750000197,51,0.10924971250000226
26031,16.289821814583334,34,0.0985154354166653,52,0.10878617916666755
26032,16.39367378125,39,0.1038519666666673,54,0.10840440416667008
26033,16.488963418750004,41,0.0952896375000023,55,0.10792373333333316
26034,16.585478527083335,42,0.09651510833333177,57,0.10749971250000101
26035,16.686463589583337,41,0.10098506250000128,55,0.10749172499999915
26036,16.784183339583336,39,0.09771974999999955,54,0.10955133124999605
26037,16.880274427083336,34,0.09609108749999962,52,0.12939927083333203
26038,16.881088758333334,58,0.0008143312499981903,47,0.11673150000000021
26039,16.997820258333334,30,0.11673150000000021,50,0.3879307499999989
26040,17.12820809375,29,0.13038783541666632,49,0.14224127499999994
26041,17.25751834375,27,0.12931024999999963,47,0.14393314375000088
26042,17.385751008333333,54,0.12823266458333293,54,0.1346990833333308
26043,17.390581925,22,0.004830916666666241,43,0.13342688333333186
26044,17.520450091666664,47,0.12986816666666456,55,0.8540920000000014
26045,17.52400880833333,15,0.0035587166666672942,33,0.1174376499999994
26046,17.62810127083333,22,0.10409246249999882,36,0.1174376499999994
26047,17.735752449999996,27,0.10765117916666611,39,0.1174376499999994
26048,17.841624270833332,29,0.10587182083333602,40,0.1174376499999994
26049,17.946606412499996,30,0.10498214166666386,45,0.11743765000000295
26050,18.051588554166663,29,0.10498214166666742,46,0.1174376499999994
26051,18.163688129166665,27,0.112099575000002,45,0.1174376499999994
26052,18.26867027083333,22,0.10498214166666386,43,0.10676150000000106
26053,18.374542091666665,54,0.10587182083333602,47,0.21352299999999858
26054,18.37810080833333,15,0.0035587166666637415,40,0.11743765000000295
26055,18.478634554166664,22,0.10053374583333508,45,0.11767350625000006
26056,18.585396054166665,27,0.10676150000000106,50,0.12150384999999986
26057,18.697971341666666,63,0.11257528750000034,95,0.12942093750000083
26058,18.698963404166665,29,0.0009920624999999461,54,0.13154090625000237
26059,18.817018841666666,65,0.11805543750000069,101,0.3844569583333346
26060,18.819093529166665,30,0.0020746874999986176,59,0.13692937500000113
26061,18.942537435416668,29,0.12344390625000301,57,0.13692937499999758
26062,19.063906654166665,27,0.12136921874999729,57,0.13756914583333568
26063,19.190462591666666,66,0.12655593750000094,107,0.13215849999999918
26064,19.3171144875,15,0.12665189583333358,53,0.11275010416666476
26065,19.322621091666665,66,0.005506604166665596,113,0.7991850833333345
26066,19.426497591666667,22,0.10387650000000193,51,0.11095573958333205
26067,19.525708352083335,27,0.09921076041666765,53,0.11058964375000002
26068,19.626264545833337,29,0.10055619375000191,54,0.11007271875000058
26069,19.72720105416667,30,0.10093650833333356,56,0.10959602499999832
26070,19.82769111875,34,0.10049006458332954,57,0.1091213062499996
26071,19.92113584166667,39,0.09344472291666861,60,0.10878069999999695
26072,20.024159960416668,41,0.10302411874999962,62,0.1082671333333316
26073,20.12507415,42,0.10091418958333165,64,0.10784317499999929
26074,20.22393039375,41,0.09885624374999935,61,0.10784317499999929
26075,20.31870166875,39,0.09477127499999938,59,0.11093098333333629
26076,20.417390687500003,58,0.09868901875000446,76,0.11300274999999971
26077,20.420215756250002,34,0.0028250687499991045,57,0.1253279625000019
26078,20.525684989583336,30,0.10546923333333424,55,0.13298082916666587
26079,20.530393437500003,58,0.004708447916666358,76,0.36360674999999887
26080,20.653615725,29,0.12322228749999908,52,0.13332247499999994
26081,20.777848031250002,27,0.12423230625000059,50,0.13463685833333372
26082,20.891980150000002,22,0.11413211874999973,48,0.1303256166666671
26083,20.8940001875,58,0.002020037499999461,82,0.13048025000000152
26084,21.024480437500003,60,0.13048025000000152,92,1.6302011250000064
26085,21.02533367916667,15,0.0008532416666682252,77,0.11253213124999917
26086,21.12511071666667,21,0.09977703749999733,53,0.11210076250000256
26087,21.225347062500003,27,0.10023634583333418,56,0.11166970833333423
26088,21.326881645833335,29,0.10153458333333276,54,0.11121354166667174
26089,21.434739479166673,30,0.10785783333333754,56,0.11063735000000108
26090,21.535343379166672,29,0.10060389999999941,57,0.11021184999999889
26091,21.634721895833337,27,0.09937851666666475,57,0.10979234374999791
26092,21.728733512500003,21,0.09401161666666624,59,0.09945875000000015
26093,21.82984789166667,15,0.10111437916666688,77,0.10910925416666828
26094,21.92647098958334,21,0.09662309791666956,56,0.1105692708333379
26095,22.026919354166676,27,0.10044836458333606,59,0.11218702708332984
26096,22.13482555833334,29,0.10790620416666385,57,0.11393311250000338
26097,22.240047879166678,30,0.10522232083333805,57,0.1149824499999994
26098,22.34109306250001,29,0.10104518333333345,60,0.1149824499999994
26099,22.44475148333334,27,0.10365842083333021,62,0.11498245000000296
26100,22.549280983333343,21,0.10452950000000172,60,0.10452949999999817
26101,22.652939404166677,14,0.10365842083333376,70,0.1338560125000008
26102,22.65468156250001,65,0.0017421583333323554,105,0.30487812499999833
26103,22.776632812500008,26,0.12195124999999862,54,0.13414637500000026
26104,22.89858406250001,29,0.12195125000000218,57,0.13414637500000026
26105,23.01647027083334,34,0.11788620833333141,61,0.13295687500000142
26106,23.140454041666676,41,0.123983770833334,61,0.11481700000000217
26107,23.14248656250001,58,0.002032520833335383,91,0.414817750000001
26108,23.24919803125001,34,0.10671146874999948,60,0.11424610416666425
26109,23.348744341666677,29,0.09954631041666673,59,0.1138765124999992
26110,23.457450229166675,26,0.10870588749999754,61,0.1032900333333373
26111,23.56159925000001,13,0.10414902083333644,57,0.11322211874999866
26112,23.66369198750001,25,0.10209273749999781,59,0.11289610833333796
26113,23.764602608333345,28,0.10091062083333568,62,0.11588095416666633
26114,23.864883733333343,34,0.10028112499999864,64,0.12932526250000365
26115,23.86675807916668,58,0.0018743458333361218,72,0.11764700000000161
26116,23.98440507916668,59,0.11764700000000161,89,0.35294099999999773
26117,23.989307037500012,40,0.00490195833333118,67,0.12941170000000213
26118,24.098130512500013,34,0.10882347500000122,65,0.12941169999999858
26119,24.214797120833346,28,0.11666660833333253,66,0.12941169999999858
26120,24.33734607916668,58,0.12254895833333279,71,0.11764700000000161
26121,24.34028725416668,25,0.002941175000000129,65,0.11775460625000278
26122,24.45499307916668,58,0.11470582500000148,81,0.2534082083333331
26123,24.57796058958335,24,0.12296751041666809,62,0.13329241041666506
26124,24.69889557916668,63,0.12093498958333271,76,0.11406849999999835
26125,24.70364843333335,27,0.00475285416666793,63,0.12547534999999854
26126,24.808211225000015,32,0.10456279166666604,65,0.12481409791666565
26127,24.92703257916668,56,0.11882135416666628,86,0.4109310000000015
26128,24.93045700416668,39,0.003424424999998621,67,0.11300602500000068
26129,25.031477541666682,32,0.10102053750000195,60,0.11300602500000068
26130,25.13078586666668,27,0.09930832499999909,62,0.11300602500000068
26131,25.231806404166683,24,0.10102053750000195,60,0.10273274999999771
26132,25.337963579166683,11,0.10615717499999988,57,0.11300602499999712
26133,25.43812801041668,23,0.10016443124999697,59,0.11300602500000068
26134,25.541716866666683,27,0.10358885625000269,59,0.11398694166666701
26135,25.646161829166683,56,0.10444496250000057,69,0.11450375000000079
26136,25.650932818750018,32,0.004770989583334995,56,0.1265311687499988
26137,25.760665579166684,58,0.1097327604166658,87,0.3557309999999987
26138,25.76165372083335,39,0.0009881416666672749,61,0.13043469999999857
26139,25.881218862500017,32,0.11956514166666565,57,0.13043470000000212
26140,25.99386701250002,27,0.11264815000000183,55,0.131004149999999
26141,26.116396579166683,56,0.12252956666666392,69,0.12711875000000106
26142,26.242456006250016,10,0.12605942708333373,47,0.11639271666666318
26143,26.243515329166684,55,0.0010593229166673268,84,1.5189146250000007
26144,26.34920907916668,22,0.10569374999999681,47,0.11531007500000001
26145,26.456685441666682,27,0.1074763625000017,48,0.11436570000000046
26146,26.558124579166684,26,0.10143913750000166,47,0.11346114999999912
26147,26.660456347916682,28,0.10233176874999828,51,0.11261093333333605
26148,26.76541265000002,27,0.1049563020833375,53,0.1117169333333301
26149,26.86533712083335,29,0.09992447083332934,55,0.11084643333333588
26150,26.96697760833335,28,0.10164048750000276,54,0.10998650416666678
26151,27.065357450000015,30,0.09837984166666303,56,0.10941194583333669
26152,27.161507662500018,29,0.09615021250000311,55,0.10940929999999938
26153,27.26677267083335,31,0.1052650083333333,57,0.10940929999999938
26154,27.36126252083335,30,0.09448984999999865,57,0.10940929999999938
26155,27.464869812500016,32,0.10360729166666616,59,0.10940930000000293
26156,27.56681938750002,31,0.10194957500000257,60,0.10940929999999938
26157,27.662966954166684,33,0.0961475666666658,57,0.11013914999999841
26158,27.762429954166684,54,0.09946300000000008,70,0.10676150000000106
26159,27.765098991666683,32,0.0026690374999986943,57,0.11803299375000265
26160,27.869191454166685,54,0.10409246250000237,75,0.8550820833333361
26161,27.979786335416687,33,0.11059488125000172,54,0.12267667499999746
26162,28.095028060416684,35,0.11524172499999707,54,0.12267667500000101
26163,28.204693572916685,34,0.10966551250000123,54,0.12187332916666449
26164,28.313429716666686,37,0.10873614375000074,54,0.1142101124999968
26165,28.315288454166684,53,0.0018587374999974315,63,0.40898508333333794
26166,28.423344891666684,35,0.10805643750000016,54,0.11290189375000281
26167,28.522638552083354,34,0.0992936604166701,54,0.1118343791666696
26168,28.620142579166686,32,0.09750402708333183,54,0.11080429166666761
26169,28.723436633333353,30,0.10329405416666759,54,0.11011273750000328
26170,28.821036870833353,29,0.09760023750000002,54,0.11011000000000237
26171,28.926976037500022,27,0.10593916666666914,52,0.11010999999999882
26172,29.028744370833355,26,0.10176833333333235,51,0.11010999999999882
26173,29.125507704166687,23,0.09676333333333176,47,0.11011000000000237
26174,29.220602704166687,22,0.0950950000000006,44,0.11011000000000237
26175,29.323205204166687,20,0.10260249999999971,40,0.11011000000000237
26176,29.42080270416669,17,0.09759750000000267,37,0.10009999999999764
26177,29.52679175000002,15,0.10598904583332924,31,0.1126285541666654
26178,29.624729862500022,22,0.09793811250000317,32,0.10633029166666219
26179,29.727844720833353,27,0.10311485833333123,35,0.10610929999999996
26180,29.824307720833353,29,0.09646299999999997,36,0.10610929999999996
26181,29.918359145833353,30,0.09405142499999997,39,0.10610929999999996
26182,30.015626004166684,34,0.09726685833333093,40,0.10610929999999996
26183,30.113696720833353,39,0.098070716666669,43,0.10610929999999996
26184,30.202924995833353,41,0.08922827499999997,44,0.10610929999999996
26185,30.300191854166684,42,0.09726685833333093,47,0.10610929999999996
26186,30.401478004166684,41,0.10128614999999996,44,0.10610929999999996
26187,30.497137145833353,39,0.095659141666669,43,0.10610929999999996
26188,30.59038471250002,34,0.09324756666666545,41,0.10610929999999996
26189,30.685239995833353,30,0.09485528333333448,39,0.10610929999999996
26190,30.782506854166684,29,0.09726685833333093,37,0.10610929999999996
26191,30.882989145833353,27,0.100482291666669,35,0.10610929999999996
26192,30.977040570833353,22,0.09405142499999997,33,0.09646299999999997
26193,31.073503570833353,15,0.09646299999999997,31,0.10610929999999996
26194,31.170770429166687,22,0.09726685833333448,35,0.10610929999999996
26195,31.269645004166684,27,0.09887457499999641,39,0.10610929999999996
26196,31.366911862500018,29,0.09726685833333448,43,0.10610929999999996
26197,31.463374862500018,30,0.09646299999999997,45,0.10610929999999996
26198,31.557426287500018,29,0.09405142499999997,42,0.10610929999999996
26199,31.654693145833352,27,0.09726685833333448,39,0.10610929999999996
26200,31.752763862500018,22,0.09807071666666545,35,0.09646299999999997
26201,31.850030720833352,15,0.09726685833333448,32,0.10610929999999996
26202,31.940062854166687,22,0.09003213333333449,34,0.10639660000000006
26203,32.04058105833335,27,0.10051820416666502,37,0.1121968750000022
26204,32.13967401666669,29,0.09909295833333687,40,0.12522613541666772
26205,32.14051378750002,63,0.0008397708333305332,67,0.12337010416666772
26206,32.25089110000002,30,0.11037731249999894,44,0.1339277812500015
26207,32.25372128750002,65,0.0028301875000025234,67,0.3769648541666655
26208,32.37160749583335,29,0.11788620833333141,44,0.13414637500000026
26209,32.50168882916669,27,0.1300813333333366,42,0.13566397499999994
26210,32.61449373541669,22,0.11280490624999828,38,0.13285899999999629
26211,32.61957503750002,66,0.005081302083333128,68,0.13333324999999974
26212,32.751797177083354,15,0.13222213958333384,31,0.1124739020833303
26213,32.75290828750002,66,0.0011111104166658947,79,0.8033267500000179
26214,32.85579649583335,22,0.1028882083333329,33,0.11171267708333232
26215,32.954840266666686,27,0.09904377083333316,35,0.1112022083333386
26216,33.05849213125003,29,0.10365186458334108,36,0.11058964375000357
26217,33.15570384166669,30,0.09721171041666565,39,0.1102313625000022
26218,33.25676853750003,34,0.10106469583333677,40,0.10972331250000167
26219,33.35489144583337,39,0.09812290833333748,42,0.1091514250000003
26220,33.45991745416671,41,0.10502600833333986,43,0.10861267708332889
26221,33.552945562500035,42,0.09302810833332842,47,0.10820760833333765
26222,33.6529564416667,41,0.10001087916666762,46,0.10819682500000027
26223,33.755415556250036,39,0.10245911458333268,44,0.10973935625000308
26224,33.85131728750004,58,0.09590173125000234,56,0.11070099999999883
26225,33.85500732083337,34,0.003690033333334952,43,0.12288396666666301
26226,33.96201828750004,58,0.10701096666666388,56,0.3571425000000019
26227,33.96499447500004,30,0.002976187500003391,41,0.13095225
26228,34.084041975000034,29,0.11904749999999353,39,0.13095225
26229,34.201105350000034,27,0.11706337500000075,38,0.13165376250000094
26230,34.31717666250004,22,0.11607131250000435,36,0.12541507499999938
26231,34.31916078750004,58,0.0019841249999998922,56,0.12552300000000116
26232,34.44468378750004,59,0.12552300000000116,66,0.8421060000000011
26233,34.44819256250004,15,0.0035087750000002416,38,0.11578957500000087
26234,34.54731545625004,22,0.09912289374999972,41,0.11578957500000087
26235,34.65871906250004,27,0.11140360625000056,43,0.11578957500000087
26236,34.75784195625004,29,0.09912289374999972,47,0.11578957500000087
26237,34.86310520625004,30,0.10526325000000014,50,0.11578957500000087
26238,34.97100003750004,29,0.10789483125000032,47,0.11578957500000087
26239,35.08064925625004,27,0.10964921875000044,45,0.11578957500000087
26240,35.17714056875004,22,0.09649131249999954,43,0.10526325000000014
26241,35.28240381875004,15,0.10526325000000014,41,0.11578957500000087
26242,35.28678978750004,58,0.004385968750000302,56,0.21052650000000028
26243,35.39205303750004,22,0.10526325000000014,43,0.11635217500000294
26244,35.49643909375004,27,0.10438605625000008,44,0.1219312916666695
26245,35.60450922916671,29,0.10807013541666777,49,0.12247260833333229
26246,35.60820553750004,63,0.003696308333331899,79,0.12074806249999881
26247,35.71632255625004,30,0.10811701875000068,51,0.12995091250000002
26248,35.71909478750004,65,0.0027722312499989243,92,0.36532610416666955
26249,35.84134406250004,29,0.12224927500000149,51,0.13013632499999517
26250,35.95274864375004,27,0.11140458124999952,49,0.1306313624999973
26251,36.07006851250004,22,0.11731986875000189,47,0.12468623333332829
26252,36.07401203750004,66,0.003943524999996839,101,0.12490625000000222
26253,36.19475474583337,15,0.12074270833333145,47,0.11261529166667117
26254,36.19891828750004,66,0.004163541666670767,107,0.8030708333333365
26255,36.30483625625004,22,0.10591796874999915,47,0.11143803125000318
26256,36.39774156875004,27,0.092905312500001,48,0.11099254166666839
26257,36.49866698541671,29,0.10092541666666932,50,0.11060648124999517
26258,36.599240016666705,30,0.1005730312499935,51,0.11023693750000518
26259,36.70197695416671,34,0.1027369375000049,51,0.10975081250000329
26260,36.80757494375005,39,0.10559798958333744,54,0.10936777500000261
26261,36.902042056250046,41,0.0944671124999985,55,0.10899312083333257
26262,37.00116403750005,42,0.0991219812500006,57,0.10855538958333
26263,37.10478521458338,41,0.1036211770833333,55,0.10855267499999854
26264,37.20264709583338,39,0.0978618812499974,55,0.10952904166666855
26265,37.29804187083338,58,0.0953947750000026,81,0.11750124999999656
26266,37.40404887083338,58,0.10600699999999819,81,0.34482750000000095
26267,37.40788028750004,30,0.003831416666663756,51,0.12643675000000343
26268,37.52090707916671,29,0.11302679166666962,50,0.12643675000000343
26269,37.63297601666671,27,0.11206893749999836,48,0.1269445375000018
26270,37.74600280833338,22,0.11302679166666962,47,0.12034351249999986
26271,37.74887637083338,58,0.0028735624999995935,83,0.12048200000000264
26272,37.86433828750005,15,0.11546191666666772,57,0.11730831250000051
26273,37.86935837083338,60,0.005020083333334924,95,1.6432163750000086
26274,37.97547070416672,22,0.10611233333333558,48,0.11603135000000009
26275,38.08536773541672,27,0.10989703125000005,50,0.11534010624999524
26276,38.18503743541672,29,0.09966969999999975,51,0.11466414999999586
26277,38.287587235416716,30,0.10254979999999847,54,0.11400498958332861
26278,38.39469805833338,29,0.10711082291666685,52,0.11334415208333581
26279,38.49434451041672,27,0.09964645208333422,51,0.11273586666666802
26280,38.599425745833386,20,0.10508123541666947,49,0.10189900000000307
26281,38.70555000625006,15,0.10612426041667078,57,0.11154687500000193
26282,38.80188594375006,22,0.09633593750000102,49,0.11154687499999483
26283,38.90751745416672,27,0.1056315104166643,51,0.11154687500000193
26284,39.001318235416726,29,0.09380078125000324,53,0.11154687499999483
26285,39.11117500625006,30,0.10985677083333201,55,0.11154687499999483
26286,39.20920104791672,29,0.09802604166666384,54,0.11154687500000193
26287,39.31229740208339,27,0.10309635416666652,53,0.11154687500000193
26288,39.41116849583339,20,0.0988710937499988,51,0.1014062500000037
26289,39.50919453750006,17,0.09802604166667095,73,0.1126100749999992
26290,39.51257474583339,61,0.003380208333332746,77,0.6144180000000006
26291,39.61241767083339,25,0.09984292499999725,42,0.112643300000002
26292,39.71652738750006,26,0.10410971666667024,42,0.112643300000002
26293,39.815516954166725,25,0.09898956666666692,41,0.10240300000000246
26294,39.921333387500056,37,0.1058164333333309,57,0.112643300000002
26295,40.02032295416672,25,0.09898956666666692,44,0.112643300000002
26296,40.12699274583339,61,0.10666979166666835,80,0.40961200000000275
26297,40.12869946250006,26,0.0017067166666677736,44,0.1126432999999949
26298,40.23280917916672,25,0.10410971666666313,43,0.10240300000000246
26299,40.32753195416672,18,0.09472277500000104,72,0.112643300000002
26300,40.43676182083339,25,0.10922986666666645,46,0.112643300000002
26301,40.536604745833394,61,0.09984292500000436,84,0.40961199999999565
26302,40.538311462500054,26,0.0017067166666606681,47,0.112643300000002
26303,40.64071446250006,25,0.10240300000000246,47,0.10240300000000246
26304,40.74397082083339,37,0.1032563583333328,63,0.112643300000002
26305,40.84381374583339,25,0.09984292499999725,49,0.112643300000002
26306,40.94621674583339,62,0.10240300000000246,87,0.40961200000000275
26307,40.94792346250006,26,0.0017067166666677736,49,0.112643300000002
26308,41.045206312500056,25,0.09728284999999914,49,0.10240300000000246
26309,41.152729462500055,19,0.10752314999999868,77,0.112643300000002
26310,41.25598582083339,25,0.1032563583333328,52,0.112643300000002
26311,41.35582874583339,63,0.09984292500000436,90,0.40961199999999565
26312,41.35838882083339,27,0.0025600749999981076,52,0.112643300000002
26313,41.45396495416672,25,0.09557613333333137,51,0.10240300000000246
26314,41.564048179166726,37,0.11008322500000389,63,0.1126432999999949
26315,41.66474446250006,25,0.10069628333333469,54,0.1126432999999949
26316,41.76544074583339,64,0.10069628333332759,93,0.40961200000000275
26317,41.767147462500056,27,0.0017067166666677736,54,0.112643300000002
26318,41.863576954166724,25,0.09642949166666881,56,0.10240300000000246
26319,41.97110010416672,20,0.10752314999999868,84,0.112643300000002
26320,42.076916537500054,25,0.1058164333333309,57,0.11283600208333411
26321,42.170785954166725,37,0.0938694166666707,57,0.11416063541666688
26322,42.17505274583339,65,0.004266791666665881,97,0.21680408333333645
26323,42.27713843333339,25,0.10208568750000069,57,0.10427344583333564
26324,42.37967105416673,21,0.10253262083333681,73,0.11518029999999158
26325,42.383152704166726,66,0.0034816499999976713,99,0.21875908333333172
26326,42.49222236041672,25,0.10906965624999287,60,0.11584446875000509
26327,42.593118870833386,67,0.1008965104166677,101,0.2207478750000078
26328,42.59399816250006,37,0.0008792916666706674,60,0.116283979166667
26329,42.69704807916673,25,0.10304991666667007,59,0.10621950833333216
26330,42.80504403750006,68,0.10799595833333342,107,0.8601141250000168
26331,42.809455391666724,20,0.004411354166663273,79,0.11634952083333872
26332,42.90997766250006,25,0.10052227083333776,63,0.11585631041666744
26333,43.01794699166673,29,0.10796932916667146,65,0.11535786249999802
26334,43.11849889791674,32,0.10055190625000421,68,0.11471471666666844
26335,43.221984704166736,37,0.10348580624999926,71,0.11441584166666985
26336,43.326769758333405,41,0.10478505416666906,73,0.1059547833333383
26337,43.43539357916674,46,0.10862382083333699,74,0.16903583333333927
26338,43.60442941250008,44,0.16903583333333927,76,0.06072874999999556
26339,43.66515816250008,65,0.06072874999999556,99,0.7144322500000015
26340,43.77062197083341,41,0.10546380833333302,76,0.1122679249999976
26341,43.868431147916745,37,0.09780917708333448,76,0.1122679249999976
26342,43.96709083958341,34,0.09865969166666844,73,0.1122679249999976
26343,44.07340516250008,60,0.10631432291666698,84,0.4082469999999958
26344,44.075956706250075,32,0.002551543749994778,71,0.11226792500000471
26345,44.17206485416674,30,0.09610814791666655,67,0.11226792500000471
26346,44.281781235416744,27,0.10971638125000283,65,0.1122679249999976
26347,44.37959041250008,63,0.09780917708333448,85,0.10206174999999718
26348,44.38214195625008,20,0.0025515437500018834,61,0.1122679249999976
26349,44.481652162500076,61,0.09951020624999529,83,0.19733200000000295
26350,44.48505422083341,13,0.0034020583333358445,61,0.10157315833333058
26351,44.58089925625008,28,0.09584503541666578,63,0.10525051874999747
26352,44.67898416250008,27,0.09808490625000132,62,0.10509564999999554
26353,44.770544766666745,26,0.09156060416666634,59,0.10509564999999554
26354,44.872455700000074,25,0.10191093333332901,57,0.10509565000000265
26355,44.96242394583341,27,0.08996824583333307,63,0.10509565000000265
26356,45.06035398333341,26,0.0979300374999994,61,0.10575270000000359
26357,45.155588870833405,25,0.09523488749999842,59,0.10719131250000657
26358,45.25869521458341,24,0.1031063437500066,56,0.1083028645833295
26359,45.34885981875008,26,0.0901646041666666,64,0.10904504583333363
26360,45.449607468750074,25,0.1007476499999953,61,0.11003453749999892
26361,45.54958330000007,24,0.0999758312499992,59,0.11100678958333532
26362,45.65046349583341,23,0.10088019583333363,64,0.11190009166666925
26363,45.75128305416674,25,0.10081955833333467,55,0.11301470833333127
26364,45.858284018750076,24,0.10700096458333519,61,0.11340202499999918
26365,45.96395408750008,23,0.10567006875000118,66,0.10325344999999686
26366,46.063610412500076,62,0.09965632499999799,91,1.170002999999987
26367,46.068106818750074,11,0.004496406249998586,71,0.10748900000000106
26368,46.26680091875008,22,0.19869410000000443,50,0.10699856249999584
26369,46.36896076875008,23,0.10215984999999961,52,0.10602515416666591
26370,46.464602525000075,26,0.09564175624999649,53,0.10543142499999902
26371,46.560449275000074,30,0.09584674999999976,56,0.10543142499999902
26372,46.65869219375008,25,0.09824291875000313,52,0.10543142499999902
26373,46.75054532916674,26,0.09185313541666318,53,0.10543142499999902
26374,46.85038569375008,30,0.09984036458333634,56,0.10557724999999607
26375,46.943943725000075,35,0.09355803124999795,57,0.10615143333333066
26376,47.0355790208334,29,0.09163529583332775,54,0.10680739166666342
26377,47.136704600000066,30,0.10112557916666276,56,0.10926623333332941
26378,47.23361341250006,54,0.09690881249999705,72,0.3422054999999986
26379,47.234563983333395,35,0.000950570833332165,59,0.1254753500000021
26380,47.34673134166673,38,0.11216735833333757,62,0.125475349999995
26381,47.46650326666673,34,0.1197719249999949,61,0.12695048958333643
26382,47.57581891250006,56,0.10931564583333397,81,0.12448125000000232
26383,47.70030016250006,57,0.12448125000000232,91,1.1732621249999937
26384,47.7012125708334,18,0.0009124083333347244,71,0.0547444999999982
26385,47.80978916250007,42,0.10857659166666878,55,0.1073542500000002
26386,47.90496810000006,32,0.09517893749999473,56,0.10688563125000172
26387,48.00378660000006,33,0.09881850000000014,55,0.10632200416667104
26388,48.0996584458334,37,0.09587184583333652,59,0.1058517791666631
26389,48.193516589583396,42,0.09385814374999768,61,0.1052229104166642
26390,48.295554783333394,29,0.10203819374999767,51,0.10533730625000004
26391,48.386515077083395,30,0.09096029375000114,54,0.1056823104166682
26392,48.48095625625006,33,0.09444117916666528,59,0.1061145708333342
26393,48.580621804166725,37,0.09966554791666482,61,0.1065822125000011
26394,48.679113391666725,24,0.09849158749999987,54,0.10693537499999906
26395,48.77143839166673,25,0.09232500000000243,56,0.10872766666666678
26396,48.87105157500005,30,0.09961318333332514,57,0.12420877500000671
26397,48.87356228750006,57,0.002510712500004786,80,0.3396224999999973
26398,48.982996204166724,33,0.10943391666666713,61,0.12452824999999734
26399,49.101864079166724,20,0.1188678749999994,63,0.12560642500000085
26400,49.21224139166672,21,0.11037731249999894,69,0.12237198749999578
26401,49.213184787500055,59,0.000943395833331806,85,0.12244900000000314
26402,49.33563378750006,60,0.12244900000000314,91,1.1693209583333442
26403,49.33656662291673,9,0.000932835416669775,74,0.11181386666666526
26404,49.54595600416673,20,0.2093893812500056,49,0.10597013750000173
26405,49.63990692291673,21,0.0939509187499965,50,0.1055083354166726
26406,49.7382496458334,24,0.09834272291666935,52,0.10509565000000265
26407,49.8314026083334,28,0.0931529624999996,55,0.10509565000000265
26408,49.93092500416673,23,0.09952239583333267,51,0.10509565000000265
26409,50.02407796666673,24,0.0931529624999996,52,0.10509565000000265
26410,50.11643475000007,28,0.09235678333333652,54,0.1052202937500013
26411,50.2184601520834,33,0.10202540208333488,56,0.10587764375000575
26412,50.31388763750007,27,0.09542748541667123,54,0.10655635833332866
26413,50.4066899333334,28,0.0928022958333301,56,0.10808623124999883
26414,50.5049547458334,52,0.0982648124999983,76,0.32142824999999675
26415,50.5094190270834,33,0.004464281250001534,57,0.11785702499999928
26416,50.609418927083404,36,0.09999990000000025,61,0.11785702499999928
26417,50.7228116708334,32,0.11339274374999775,65,0.11872282499999898
26418,50.8263829958334,54,0.10357132499999722,86,0.113636249999999
26419,50.8273299645834,33,0.00094696875000011,67,0.11357896041666748
26420,50.9390722770834,16,0.11174231249999877,70,0.05343803958333382
26421,50.9400192458334,55,0.00094696875000011,91,1.1682496249999943
26422,51.04758460416673,40,0.10756535833333203,60,0.10610929999999996
26423,51.144851462500064,30,0.09726685833333448,53,0.10610929999999996
26424,51.23568745416673,31,0.09083599166666545,56,0.10610929999999996
26425,51.334562029166726,35,0.09887457499999641,59,0.10610929999999996
26426,51.4302211708334,40,0.09565914166667255,61,0.10610929999999996
26427,51.52829188750006,27,0.0980707166666619,54,0.10610929999999996
26428,51.628774179166726,28,0.10048229166666545,55,0.10610929999999996
26429,51.723629462500064,31,0.09485528333333804,59,0.10610929999999996
26430,51.8208963208334,35,0.09726685833333448,62,0.10610929999999996
26431,51.918163179166726,22,0.09726685833332738,53,0.10610929999999996
26432,52.01060688750006,23,0.09244370833333448,56,0.1073792916666676
26433,52.10744525625006,28,0.0968383687499994,57,0.11654792291666638
26434,52.10826887083339,55,0.0008236145833322439,80,0.31802100000000166
26435,52.21780943750006,31,0.10954056666666645,61,0.11660770000000298
26436,52.31851608750006,18,0.10070664999999934,62,0.11777378333333388
26437,52.425406479166725,19,0.10689039166666703,65,0.11988339166666862
26438,52.42628987083339,57,0.0008833916666688424,86,0.11999999999999744
26439,52.54628987083339,59,0.11999999999999744,91,1.1973660000000024
26440,52.54712137500006,15,0.0008315041666691059,70,0.04989024999999714
26441,52.644407362500054,42,0.09728598749999406,60,0.10975855000000223
26442,52.748345383333394,34,0.1039380208333398,57,0.10975854999999513
26443,52.84812588333339,35,0.09978049999999428,59,0.10975855000000223
26444,52.94790638333339,36,0.09978050000000138,60,0.10975855000000223
26445,53.04768688333339,35,0.09978050000000138,61,0.10975855000000223
26446,53.14164685416672,33,0.09395997083333185,63,0.10975855000000223
26447,53.24225885833339,31,0.10061200416667049,64,0.10975854999999513
26448,53.34203935833339,30,0.09978049999999428,66,0.10975855000000223
26449,53.44597737916673,28,0.1039380208333398,65,0.10975854999999513
26450,53.54825239166672,27,0.10227501249999449,68,0.10975855000000223
26451,53.64304386666672,24,0.09479147500000096,70,0.1108350604166688
26452,53.74365587083339,59,0.10061200416667049,88,0.33457274999999953
26453,53.851462645833394,23,0.10780677500000024,71,0.12267667500000101
26454,53.97042184583339,18,0.11895919999999904,74,0.12361704166666954
26455,54.07544051458339,23,0.10501866874999877,75,0.11840068125000158
26456,54.07822862083339,61,0.0027881062500014764,92,0.11857700000000193
26457,54.196805620833395,62,0.11857700000000193,99,0.4195800000000034
26458,54.30344887083339,44,0.10664324999999764,73,0.11538450000000466
26459,54.4057214958334,36,0.10227262500000478,73,0.11538449999999756
26460,54.5132388708334,37,0.10751737500000047,71,0.11513223749999923
26461,54.6120149958334,38,0.09877612500000055,72,0.11309611875000058
26462,54.6163856208334,61,0.004370624999999961,99,0.821862000000003
26463,54.714837839583396,37,0.09845221874999766,69,0.11300602500000423
26464,54.8175705895834,35,0.10273275000000126,71,0.11300602500000423
26465,54.9203033395834,33,0.10273275000000126,69,0.11300602499999712
26466,55.0256044083334,32,0.105301068750002,68,0.11300602499999712
26467,55.1283371583334,30,0.10273275000000126,67,0.11300602499999712
26468,55.2344943333334,29,0.10615717499999988,67,0.11300602499999712
26469,55.3320904458334,26,0.09759611249999978,66,0.11425434166666548
26470,55.437391514583396,24,0.1053010687499949,64,0.1334472104166693
26471,55.4382476208334,61,0.0008561062500049843,102,0.36437250000000176
26472,55.554644391666734,25,0.11639677083333311,63,0.13360325000000017
26473,55.68318691250007,20,0.12854252083333506,63,0.1348516999999987
26474,55.8026201208334,63,0.1194332083333336,102,0.13215850000000273
26475,55.804822762500066,25,0.0022026416666633963,62,0.13184265000000295
26476,55.9314746583334,19,0.12665189583333358,60,0.05707752500000396
26477,55.934778620833406,64,0.0033039625000057526,106,0.45282999999999873
26478,56.04987291250007,46,0.11509429166666507,57,0.12452825000000445
26479,56.16213701666674,38,0.11226410416666965,57,0.12452824999999734
26480,56.276287912500074,39,0.11415089583333327,56,0.12330619583332947
26481,56.387608620833404,63,0.11132070833333074,97,0.4097653749999992
26482,56.48691694583341,39,0.09930832500000264,59,0.11281916666666802
26483,56.592909245833404,37,0.10599229999999693,59,0.11260917500000289
26484,56.69104545416674,35,0.09813620833333658,57,0.11228214375000078
26485,56.80162656875007,34,0.11058111458333286,57,0.11205906250000197
26486,56.89927299583341,32,0.09764642708333326,57,0.1118768750000001
26487,57.005234506250076,31,0.10596151041666957,57,0.11154687500000193
26488,57.10495065208341,34,0.09971614583333377,55,0.11101221874999823
26489,57.20339299583341,32,0.09844234375000127,56,0.11004564999999644
26490,57.305138500000076,31,0.10174550416666506,56,0.10905324166667185
26491,57.40430160000008,28,0.0991631000000055,55,0.10821940833332633
26492,57.50027675208341,27,0.09597515208332652,52,0.10708550833333419
26493,57.59776724583341,26,0.0974904937500014,55,0.10544176458333254
26494,57.69042944375007,27,0.09266219791665975,55,0.10543142500000613
26495,57.79266597708341,28,0.10223653333333971,57,0.10543142499999902
26496,57.88292166666674,27,0.09025568958332997,55,0.10543142499999902
26497,57.977969693750076,25,0.0950480270833367,57,0.10543142499999902
26498,58.07621261250007,23,0.09824291874999602,59,0.10543142499999902
26499,58.17605297708341,22,0.09984036458333634,60,0.10543142499999902
26500,58.26710738958341,20,0.09105441250000013,62,0.10543142499999902
26501,58.36375286250007,19,0.09664547291666281,63,0.11581482291666845
26502,58.461197058333404,16,0.09744419583333297,63,0.11581482291666845
26503,58.553050193750074,15,0.09185313541667028,67,0.11578938541666162
26504,58.65209183541674,14,0.09904164166666618,67,0.1158707354166566
26505,58.7483816208334,15,0.09628978541665845,71,0.11858409375000178
26506,58.8472612645834,13,0.0988796437500028,70,0.1194430520833265
26507,58.94770109375006,11,0.10043982916666039,74,0.12028831874999923
26508,59.043854491666735,10,0.0961533979166731,73,0.10015084999999146
26509,59.14316843750006,8,0.0993139458333232,76,0.11282905833333956
26510,59.144842245833395,71,0.001673808333336524,104,0.8067770416666846
26511,59.250878045833396,15,0.10603580000000079,63,0.11230319999999949
26512,59.35385920416673,20,0.10298115833333554,63,0.1117012187499995
26513,59.45204692291673,22,0.09818771874999754,63,0.11118520833333889
26514,59.5565207145834,23,0.10447379166667048,63,0.11057841875000207
26515,59.648704475000066,27,0.09218376041666687,64,0.11010605625001091
26516,59.75382714375007,32,0.1051226687500062,68,0.10948877500000265
26517,59.85586558750008,34,0.10203844375000415,68,0.10964260000000081
26518,59.95079691875008,35,0.09493133125000242,72,0.11453773750000096
26519,59.95161928750008,68,0.0008223687500006349,95,0.4166669999999968
26520,60.05404992500008,39,0.10243063749999948,75,0.1145834249999993
26521,60.15821667500008,44,0.10416674999999742,76,0.1145834250000064
26522,60.25977925625008,46,0.1015625812500005,77,0.11473478541666537
26523,60.36828628750008,63,0.10850703124999939,92,0.42704599999999715
26524,60.369175966666745,47,0.0008896791666685999,79,0.1174376499999994
26525,60.47415810833341,46,0.10498214166666742,77,0.1174376499999994
26526,60.57736089166674,44,0.10320278333333022,71,0.1174376499999994
26527,60.68412239166674,39,0.10676149999999751,67,0.10676150000000462
26528,60.795332287500074,61,0.1112098958333334,95,1.2223299999999924
26529,60.90149669583341,44,0.10616440833333485,63,0.11301372500000184
26530,61.00509261041674,40,0.10359591458333028,62,0.11301372500000184
26531,61.10269537291674,35,0.09760276250000288,61,0.11301372500000184
26532,61.20885978125008,32,0.10616440833333485,59,0.11301372499999474
26533,61.30988720208341,28,0.10102742083333283,57,0.11301372499999474
26534,61.41433928125007,23,0.10445207916666277,57,0.11301372500000184
26535,61.51793519583341,20,0.10359591458333739,56,0.10266270833332669
26536,61.61725028750007,59,0.09931509166666075,77,0.40041199999999577
26537,61.61808719166674,16,0.000836904166668262,55,0.1322308583333296
26538,61.71851569166674,11,0.10042849999999959,54,0.1319050958333321
26539,61.813717454166735,16,0.09520176249999679,55,0.13160397083333208
26540,61.920376300000065,20,0.10665884583332996,52,0.1196651624999987
26541,62.017662287500066,16,0.09728598750000117,55,0.1309596166666651
26542,62.1179541458334,11,0.10029185833333543,54,0.13064649791666483
26543,62.2172040145834,16,0.0992498687500003,55,0.13033749166666553
26544,62.3162441520834,20,0.09904013749999763,53,0.09879776458333822
26545,62.4142023708334,71,0.09795821875000144,92,0.805964000000003
26546,62.416721008333404,8,0.0025186375000032513,55,0.11082004999999384
26547,62.51662696250007,15,0.09990595416666537,53,0.11082005000000095
26548,62.61401427916673,20,0.09738731666666212,55,0.11082005000000095
26549,62.71224114166674,22,0.09822686250000601,53,0.11082004999999384
26550,62.8146657333334,23,0.10242459166666151,56,0.11082005000000095
26551,62.91625077916673,27,0.10158504583333183,57,0.11082005000000095
26552,63.0161567333334,32,0.09990595416667247,57,0.11082005000000095
26553,63.1219395083334,34,0.10578277499999444,57,0.11138476875000691
26554,63.21932682500007,35,0.09738731666666922,59,0.11575192708333759
26555,63.220166370833404,68,0.0008395458333367856,87,0.42105300000000057
26556,63.328938395833404,39,0.10877202500000038,57,0.11578957500000087
26557,63.427184095833404,44,0.09824569999999966,59,0.11578957500000087
26558,63.537710508333404,46,0.1105264125000005,57,0.11609880000000317
26559,63.641219370833404,63,0.10350886250000002,87,0.43165499999999923
26560,63.642118652083404,47,0.0008992812499997171,60,0.11870512499999819
26561,63.752730245833405,46,0.11061159375000074,63,0.11870512499999819
26562,63.8543490270834,44,0.10161878124999646,60,0.1187051250000053
26563,63.9649606208334,39,0.11061159375000074,57,0.10791375000000158
26564,64.0728743708334,63,0.10791375000000158,94,1.192296666666678
26565,64.07623255416674,41,0.0033581833333329314,59,0.11082005000000095
26566,64.17613850833341,44,0.09990595416667247,57,0.1102014458333258
26567,64.27799828750007,41,0.10185977916665934,59,0.10985173749999433
26568,64.37121994166674,39,0.09322165416666905,57,0.1095759874999942
26569,64.47665163750007,35,0.10543169583333167,59,0.10926194999998984
26570,64.57517263541673,32,0.09852099791666546,59,0.10897053749999941
26571,64.6759070270834,29,0.10073439166666276,59,0.108672995833345
26572,64.77390677916674,27,0.09799975208333933,57,0.10833317500001272
26573,64.87241870416675,23,0.09851192500001105,57,0.10817830000000583
26574,64.96828172291674,20,0.09586301874999492,57,0.10864985000000615
26575,65.0637197770834,17,0.09543805416666373,57,0.10918306874999928
26576,65.16627197916674,15,0.10255220208333071,55,0.1109360833333426
26577,65.26266853750008,11,0.09639655833333904,57,0.12194682500000908
26578,65.26517103750008,62,0.0025025000000056252,82,0.3333329999999961
26579,65.37350426250008,15,0.10833322499999554,61,0.12222210000000189
26580,65.49017081250008,17,0.11666655000000503,65,0.12321416249999118
26581,65.59850403750008,63,0.10833322499999554,93,0.11904749999999353
26582,65.60148022500007,23,0.0029761874999962856,68,0.11915773124999873
26583,65.71358328750007,10,0.11210306249999746,79,0.24676652499999818
26584,65.71755153750007,65,0.0039682499999997844,102,0.7888190833333368
26585,65.71960915000007,22,0.002057612499996253,79,0.24635289166667462
26586,65.96446503750008,47,0.24485588750000886,73,0.09880227499999705
26587,66.05054277708341,46,0.08607773958333098,72,0.09899784374999854
26588,66.14653762083341,44,0.095994843750006,79,0.09922343750000095
26589,66.23747792083341,41,0.09094029999999975,72,0.09947954999999808
26590,66.32185172083341,42,0.0843737999999945,72,0.09969795000000659
26591,66.41399679583341,41,0.0921450750000048,69,0.09994957499999657
26592,66.50712819583342,38,0.0931314000000043,79,0.10016810416666999
26593,66.59741787083341,34,0.09028967499999396,72,0.10042451666666352
26594,66.69098262500007,35,0.09356475416666399,72,0.10064478749998784
26595,66.77787295000007,34,0.08689032499999882,70,0.10091031249999105
26596,66.87419611250007,32,0.09632316249999917,79,0.10114015416667144
26597,66.9676675583334,29,0.09347144583333034,71,0.10140870208333297
26598,67.05215317291673,30,0.08448561458332904,71,0.1016025937500018
26599,67.1498977458334,29,0.0977445729166675,70,0.10188520416666336
26600,67.24249502500007,26,0.09259727916666805,79,0.10216717499999106
26601,67.33073031250007,22,0.0882352874999981,70,0.10216717499999106
26602,67.42283556875006,23,0.09210525624999377,71,0.10216717500000527
26603,67.51803680000006,22,0.09520123125000168,69,0.10216717500000527
26604,67.61401202500006,20,0.09597522500000366,79,0.10216717500000527
26605,67.70843926250006,17,0.0944272374999997,70,0.10216717500000527
26606,67.79899653125007,18,0.09055726875000403,71,0.10216717499999106
26607,67.89032779375006,17,0.0913312624999918,68,0.09287925000000996
26608,67.98637720625005,15,0.09604941249999399,79,0.12619822083333077
26609,68.07743161875005,10,0.09105441250000013,69,0.12619822083333077
26610,68.1772719833334,15,0.09984036458334344,72,0.12619822083333077
26611,68.26912511875005,10,0.09185313541665607,71,0.13729422083333986
26612,68.36665061875006,15,0.09752550000000326,75,0.16688747083333055
26613,68.36934303750006,59,0.0026924187500014796,103,0.38135624999999607
26614,68.5017584020834,10,0.1324153645833377,76,0.16737302083332395
26615,68.62146189166673,15,0.11970348958332977,77,0.18513804583332671
26616,68.74540267291673,10,0.12394078124999908,76,0.181890810416661
26617,68.75069928750005,58,0.005296614583329529,97,0.18106263333332606
26618,68.93176192083338,68,0.18106263333332606,107,0.7674695833333374
26619,68.93458147083338,14,0.0028195499999981166,79,0.11278199999999572
26620,69.15356652083338,47,0.21898505000000057,71,0.0995676666666725
26621,69.24340366041672,46,0.08983713958333794,71,0.09899784374999854
26622,69.33339250416672,44,0.08998884375000671,79,0.0992053374999955
26623,69.42582072916672,41,0.09242822499999193,72,0.09946590000001265
26624,69.51924432916672,42,0.09342360000000838,72,0.09969794999999237
26625,69.60685767916672,41,0.08761334999999804,71,0.09994957499999657
26626,69.69847392916672,38,0.09161625000000129,79,0.1001634958333284
26627,69.78951887500006,34,0.09104494583333178,71,0.10042219999999702
26628,69.87774594166672,35,0.08822706666666136,71,0.10062615416666176
26629,69.97302042083338,34,0.09527447916666176,69,0.1009173000000061
26630,70.06629247083337,32,0.09327204999999594,79,0.10113780833334829
26631,70.15516034583338,29,0.08886787500000537,72,0.1013921791666661
26632,70.25039867500004,30,0.09523832916666208,72,0.10161920416666703
26633,70.34430183750004,29,0.09390316249999842,71,0.10188998333333643
26634,70.43380792083337,26,0.08950608333333321,79,0.10216717500000527
26635,70.52746116458337,22,0.09365324374999773,71,0.10216717500000527
26636,70.61569645208337,23,0.0882352874999981,71,0.10216717500000527
26637,70.71244567083338,22,0.09674921875000564,70,0.10216717500000527
26638,70.80300293958338,20,0.09055726875000403,79,0.10216717499999106
26639,70.89743017708338,17,0.0944272374999997,71,0.10252421666666578
26640,70.99430922916672,18,0.09687905208333802,71,0.1064516749999882
26641,71.08785767083337,17,0.09354844166665544,70,0.10645167500000241
26642,71.1805996604167,15,0.09274198958333102,79,0.10645167500000241
26643,71.28221262291672,10,0.10161296250001328,71,0.1064516749999882
26644,71.37979332500004,15,0.09758070208332015,73,0.10645167500000241
26645,71.47737402708337,10,0.09758070208333436,74,0.11089498958334332
26646,71.57231157916671,59,0.0949375520833371,95,0.382978499999993
26647,71.57656689583338,15,0.004255316666672115,76,0.14042544999999507
26648,71.70422639583337,10,0.12765949999999293,76,0.14042544999999507
26649,71.82550292083337,15,0.12127652499999897,79,0.14484740833333376
26650,71.9552900791667,58,0.129787158333329,92,0.17228829999999107
26651,71.9613141791667,10,0.006024100000004751,79,0.16968862499999204
26652,72.12757837916669,70,0.16626419999998632,108,0.20546550000000252
26653,72.33454088333336,71,0.20696250416666828,87,0.09880227499999705
26654,72.42136712500003,58,0.08682624166667097,71,0.09904954583332426
26655,72.42510963541669,70,0.0037425104166572964,80,0.0990607854166683
26656,72.51365992083336,56,0.08855028541667309,79,0.09930941249999137
26657,72.51591217083336,68,0.0022522499999979573,87,0.09931619999998986
26658,72.60167414583334,53,0.08576197499998273,71,0.09955690000001027
26659,72.60543920833335,65,0.0037650625000082982,77,0.09956827500000998
26660,72.69443345833335,54,0.08899424999999894,71,0.09981918750000318
26661,72.69669932083336,66,0.002265862500010485,77,0.09982604999999012
26662,72.78591932083336,53,0.08921999999999741,70,0.10007824166666524
26663,72.78743447083335,65,0.0015151499999888074,76,0.10008285000000683
26664,72.87307961666669,50,0.0856451458333396,79,0.10032489999998973
26665,72.87915865000002,62,0.006079033333335815,87,0.10034343333332174
26666,72.96654475416668,58,0.08738610416665438,77,0.10060984999999789
26667,72.96730695000001,46,0.0007621958333317025,70,0.10060984999999789
26668,73.05724605833335,59,0.08993910833333985,77,0.10086838750000027
26669,73.05800825416668,47,0.0007621958333317025,70,0.10087071666666247
26670,73.14664657083334,58,0.08863831666666044,76,0.10112373333333835
26671,73.15352729583334,46,0.00688072500000203,69,0.10114484583333194
26672,73.24010159583334,56,0.08657429999999522,87,0.1013921791666661
26673,73.24316907916668,44,0.0030674833333392826,79,0.10140162083332882
26674,73.33610915625,41,0.09294007708332686,71,0.10166903541666272
26675,73.33687838750001,53,0.0007692312500040543,77,0.10167140833333121
26676,73.425432525,54,0.08855413749999741,77,0.10192582708333475
26677,73.42697573333334,42,0.001543208333330881,71,0.10193060624999362
26678,73.51574844583334,53,0.08877271250000263,76,0.10218640833333836
26679,73.51807042708333,41,0.0023219812499917225,69,0.10219362083334715
26680,73.60785370208333,50,0.08978327500000205,87,0.10247250416666986
26681,73.61405286458334,38,0.006199162500010402,79,0.10248452499999416
26682,73.70644421666668,46,0.09239135208333948,77,0.10248452499999416
26683,73.70722061458335,34,0.0007763979166668378,71,0.10248452499999416
26684,73.80038836458334,47,0.09316774999999211,77,0.10248452499999416
26685,73.80194116041667,35,0.0015527958333336755,71,0.10248452499999416
26686,73.88734493125001,46,0.08540377083333794,76,0.10248452499999416
26687,73.88889772708335,34,0.0015527958333336755,69,0.10248452499999416
26688,73.98051268125,44,0.09161495416665844,87,0.10248452500000838
26689,73.98517106875,32,0.004658387500001027,79,0.10248452500000838
26690,74.07678602291668,41,0.09161495416667265,77,0.10248452499999416
26691,74.08144441041668,29,0.004658387500001027,71,0.10248452499999416
26692,74.17150656875,30,0.09006215833332476,71,0.10248452500000838
26693,74.17228296666667,42,0.0007763979166668378,77,0.10248452500000838
26694,74.26622711458334,41,0.09394414791667316,76,0.10248452499999416
26695,74.26777991041668,29,0.0015527958333336755,69,0.10248452499999416
26696,74.35396007916667,38,0.08618016874999057,87,0.10248452500000838
26697,74.35706567083334,26,0.003105591666667351,79,0.10248452500000838
26698,74.44712782916667,34,0.09006215833333897,77,0.10248452499999416
26699,74.45023342083334,22,0.003105591666667351,71,0.10248452499999416
26700,74.53951918125001,35,0.08928576041667213,77,0.10248452499999416
26701,74.54262477291668,23,0.003105591666667351,71,0.10248452499999416
26702,74.635016125,34,0.09239135208332527,76,0.10248452500000838
26703,74.63967451250001,22,0.004658387500001027,69,0.10248452499999416
26704,74.72585468125001,32,0.08618016875000478,87,0.10248452499999416
26705,74.73361866041668,20,0.007763979166668378,79,0.10248452499999416
26706,74.82057522708334,17,0.08695656666665741,71,0.10248452500000838
26707,74.82678641041667,29,0.006211183333334702,77,0.10248452500000838
26708,74.91374297708334,18,0.08695656666667162,71,0.10248452499999416
26709,74.91762496666668,30,0.003881989583334189,76,0.10248452499999416
26710,75.00535793125,29,0.08773296458332425,76,0.10248452500000838
26711,75.00691072708334,17,0.0015527958333336755,69,0.10248452500000838
26712,75.10473686458334,15,0.09782613750000735,69,0.10248452499999416
26713,75.10628966041668,27,0.0015527958333336755,76,0.10248452499999416
26714,75.19712821666667,26,0.0908385562499916,76,0.09311195833333841
26715,75.19945741041667,14,0.0023291937500005133,65,0.09302827083334364
26716,75.28796677291668,34,0.0885093625000053,77,0.0989448145833336
26717,75.28949167291668,22,0.0015249000000068236,69,0.09892141458333015
26718,75.37489958750001,32,0.08540791458332819,76,0.09940251250000642
26719,75.46674922500002,30,0.09184963750000463,74,0.0999222750000115
26720,75.47052566250002,18,0.003776437500008001,67,0.0999452333333295
26721,75.55604471250003,17,0.08551905000000204,66,0.10044774583333549
26722,75.55907501250002,29,0.0030302999999918256,73,0.10046622916667047
26723,75.65191928333336,18,0.09284427083333924,65,0.10099737500000572
26724,75.65268147916669,30,0.0007621958333317025,72,0.10100205000000528
26725,75.74294733750003,17,0.09026585833333911,64,0.1021292166666683
26726,75.74524795000002,29,0.002300612499993804,71,0.1022957104166835
26727,75.83135010833337,27,0.08610215833334678,69,0.10829885208333678
26728,75.83443652500003,15,0.003086416666661762,63,0.10850191041667756
26729,75.9297805354167,14,0.0953440104166674,62,0.10806718125000714
26730,75.9371818541667,26,0.007401318749998609,69,0.09840682499999787
26731,76.0292871541667,37,0.09210530000000006,74,0.09978427500000464
26732,76.03634169166669,25,0.007054537499996627,68,0.09952732500001105
26733,76.1200079791667,23,0.08366628750000871,67,0.09991768333334505
26734,76.12378441666671,35,0.003776437500008001,73,0.09994064166666305
26735,76.21460650833338,34,0.09082209166666644,73,0.10042683333333002
26736,76.3013138166667,20,0.08670730833333096,65,0.1008289083333267
26737,76.30893577500004,32,0.007621958333331236,72,0.10087565833332235
26738,76.39371652916671,22,0.08478075416667252,64,0.10133086666665747
26739,76.3967746291667,34,0.0030580999999898495,72,0.10134969166666963
26740,76.48658585208337,32,0.08981122291666566,71,0.10220601250000527
26741,76.49043200833337,20,0.003846156250006061,63,0.10244482499999208
26742,76.57989093333336,30,0.0894589249999882,70,0.10775717500000326
26743,76.67784418333336,17,0.09795325000000332,61,0.10753486250000321
26744,76.68192915208337,29,0.004084968750007079,69,0.09794675624999627
26745,76.77588343333336,42,0.09395428124999228,76,0.10395917499999996
26746,76.77908974583336,30,0.003206312499997921,70,0.10390743749999842
26747,76.87116752708336,29,0.09207778124999777,71,0.10435571041668368
26748,76.87195617083337,41,0.000788643750013307,77,0.1043607166666618
26749,76.9660019479167,27,0.0940457770833234,72,0.1154008229166692
26750,76.96758673750004,39,0.0015847895833474013,80,0.11541347916666211
26751,77.0590487041667,38,0.09146196666665674,81,0.1160148249999935
26752,77.05984488333337,26,0.0007961791666701856,73,0.11602250416665072
26753,77.15979022083336,27,0.0999453374999888,75,0.1167332395833256
26754,77.16220179583335,39,0.0024115749999964464,82,0.11674102083333082
26755,77.25152344583336,26,0.08932165000000225,76,0.11725432916665568
26756,77.25716861041668,38,0.005645164583327755,84,0.11729097708332858
26757,77.34849608750001,35,0.09132747708332545,87,0.1183360416666801
26758,77.35173233750001,23,0.0032362500000004957,76,0.11840012500000796
26759,77.44955967083335,34,0.09782733333334193,88,0.12013222916665711
26760,77.55051129583335,35,0.10095162499999333,90,0.12196437708333008
26761,77.55134462916668,23,0.0008333333333325754,80,0.12198138333333475
26762,77.64872953541668,22,0.0973849062499994,82,0.12380799374999185
26763,77.65381142083335,34,0.005081885416672094,92,0.12389852083332187
26764,77.74761159791667,20,0.09380017708332389,84,0.12564640624999868
26765,77.75448444791668,32,0.006872850000007702,94,0.12579110624999146
26766,77.85403334583334,18,0.09954889791666233,86,0.1282254749999936
26767,77.85752375416668,30,0.0034904083333344715,95,0.1283714333333279
26768,77.96046318750001,20,0.10293943333333289,88,0.13179572500000347
26769,77.96225880416668,32,0.0017956166666692752,99,0.13181829166666148
26770,78.06680434583335,18,0.10454554166666696,90,0.1227776166666672
26771,78.07498617083334,30,0.008181824999994092,101,0.12590232291667292
26772,78.18330055625,15,0.10831438541666216,93,0.15928000000000964
26773,78.18455683750001,27,0.0012562812500078735,103,0.149007316666669
26774,78.33356415416668,22,0.149007316666669,51,0.10815395833333241
26775,78.43028020000001,27,0.09671604583333249,52,0.10769940000000133
26776,78.52820762500001,29,0.09792742499999463,53,0.10720646250000243
26777,78.62408721250002,30,0.0958795875000078,54,0.10666050833333429
26778,78.72348965208334,34,0.09940243958332928,56,0.10616661249999026
26779,78.82004088958334,39,0.09655123749999461,57,0.1057691249999948
26780,78.91779720208334,41,0.09775631249999606,57,0.1057691249999948
26781,79.00994454583333,42,0.09214734374999978,60,0.1057691249999948
26782,79.10449573333334,41,0.09455118750000224,60,0.1057691249999948
26783,79.19904692083334,39,0.09455118750000224,59,0.1057691249999948
26784,79.30161092083334,34,0.10256400000000099,57,0.1057691249999948
26785,79.39776467083334,30,0.09615374999999915,57,0.1057691249999948
26786,79.49071329583333,29,0.09294862499999113,57,0.10576912500000901
26787,79.58366192083334,27,0.09294862500000534,56,0.1057691249999948
26788,79.68622592083334,22,0.10256400000000099,55,0.09615374999999915
26789,79.78157838958333,15,0.09535246874999359,53,0.10576912500000901
26790,79.87132188958334,22,0.08974350000001152,55,0.1057691249999948
26791,79.97068076458334,27,0.09935887499999296,57,0.1057691249999948
26792,80.07164220208334,29,0.10096143750000408,59,0.1057691249999948
26793,80.15978313958334,30,0.0881409375000004,61,0.1057691249999948
26794,80.25673817083333,29,0.0969550312499905,61,0.10576912500000901
26795,80.35369320208333,27,0.09695503125000471,60,0.1057691249999948
26796,80.44904567083334,22,0.0953524687500078,59,0.09615374999999915
26797,80.54920582708334,15,0.10016015624999852,63,0.1057691249999948
26798,80.64135317083334,22,0.09214734374999978,59,0.10625924166666323
26799,80.74157459166666,27,0.10022142083332142,63,0.11553976666667154
26800,80.84421754583333,63,0.10264295416666869,97,0.12973127083333225
26801,80.84520960833333,29,0.0009920625000034988,66,0.13194433958332752
26802,80.96326504583332,64,0.11805543749999003,100,0.18337814583333056
26803,80.9654018,30,0.0021367541666705847,68,0.1410257750000028
26804,81.09467542708333,29,0.1292736270833359,64,0.15768917083332212
26805,81.13420537916666,65,0.03952995208332766,106,0.3293730416666705
26806,81.23992678541666,27,0.10572140624999804,60,0.18070686875000774
26807,81.39762752916666,22,0.15770074374999865,56,0.19204353749999825
26808,81.45590971249999,66,0.05828218333333268,100,0.11513431250000394
26809,81.58455754166665,15,0.12864782916666684,52,0.11613406666666037
26810,81.58793592083332,66,0.003378379166662171,114,0.8232967499999972
26811,81.6946387520833,22,0.10670283124999003,46,0.1140957312500035
26812,81.79494322708331,27,0.1003044750000015,47,0.11372605625000176
26813,81.90351535833332,29,0.10857213125001408,48,0.11333736874999545
26814,82.0048672395833,30,0.10135188124998251,49,0.11296480625000527
26815,82.1024633520833,34,0.09759611249999978,50,0.11262595000000886
26816,82.20402123749997,39,0.10155788541666766,51,0.11225760000000662
26817,82.30864590624998,41,0.10462466875000587,52,0.1118823375000062
26818,82.40784146249997,42,0.09919555624999532,53,0.11153600833333144
26819,82.51348123958331,41,0.10563977708333994,52,0.111186074999992
26820,82.61119021458332,39,0.0977089750000033,51,0.11133716249999281
26821,82.71479542083331,46,0.10360520624999481,49,0.10259395833332974
26822,82.7190909520833,34,0.004295531249994156,49,0.11489998958333558
26823,82.81488687916664,30,0.09579592708332996,48,0.12847906250000563
26824,82.81738937916664,51,0.0025025000000056252,49,0.3515625
26825,82.93360031666664,29,0.1162109375,47,0.12890625
26826,83.04981125416664,27,0.1162109375,45,0.1301538333333383
26827,83.16504562916664,22,0.115234375,44,0.13165946666666173
26828,83.16895187916664,51,0.00390625,56,0.13215850000000273
26829,83.29780641666665,15,0.12885453750000408,43,0.11646195624999223
26830,83.30111037916664,54,0.0033039624999986472,57,0.8421060000000011
26831,83.40198766041665,22,0.10087728125000694,45,0.11578957499999376
26832,83.51426846041664,27,0.11228079999999352,47,0.11578957499999376
26833,83.61953171041664,29,0.10526324999999304,50,0.11578957500000797
26834,83.72567215416665,30,0.10614044375000731,50,0.11578957499999376
26835,83.82304066041664,29,0.09736850624999249,50,0.11578957500000797
26836,83.93181268541665,27,0.10877202500000749,50,0.11578957499999376
26837,84.03707593541664,22,0.10526324999999304,49,0.10526325000000725
26838,84.14321637916665,58,0.10614044375000731,69,0.16180599999999856
26839,84.14607177916665,15,0.0028554000000013957,47,0.12563760000000457
26840,84.25743237916664,22,0.11136059999999759,49,0.12584209999999985
26841,84.29550437916664,62,0.03807199999999966,82,0.16333975000000578
26842,84.37164837916664,27,0.07614399999999932,51,0.12788709999999526
26843,84.44915571249997,63,0.0775073333333296,87,0.16521875000000819
26844,84.49081590416664,29,0.041660191666665014,53,0.12866060000000346
26845,84.60126385416665,30,0.11044795000000818,55,0.13453920000000608
26846,84.60417037916665,64,0.002906525000000215,95,0.17346524999999247
26847,84.72763978749998,29,0.1234694083333352,55,0.13877493124998352
26848,84.76743571249997,65,0.03979592499999285,109,0.18855116666665594
26849,84.84495507916664,27,0.07751936666666381,55,0.17999729999999659
26850,85.02064203541663,22,0.1756869562499901,53,0.17065662500000656
26851,85.07092937916663,66,0.05028734374999999,104,0.11603141666667227
26852,85.1869607958333,66,0.11603141666667227,115,0.8195729166666865
26853,85.19043108749997,15,0.00347029166667312,54,0.114415975
26854,85.29447073749998,22,0.10403965000000426,54,0.11391743333332727
26855,85.3902909833333,27,0.09582024583332327,55,0.11349143125001149
26856,85.49778967083331,29,0.10749868750001212,57,0.11286313333333453
26857,85.60126586249999,30,0.10347619166667243,59,0.11243570624999677
26858,85.70519642291664,34,0.10393056041665716,61,0.11185973749999789
26859,85.80691553541664,39,0.10171911249999255,63,0.11139654166667867
26860,85.90315033958332,41,0.09623480416668428,65,0.11091551041666037
26861,86.01071823333332,42,0.10756789375000153,67,0.11047134999999741
26862,86.10947292499999,41,0.09875469166667017,63,0.11047134999999741
26863,86.20487999999999,39,0.09540707499999712,61,0.11077346875001126
26864,86.3078192125,58,0.10293921250000437,54,0.1044567499999971
26865,86.30868968541667,34,0.0008704729166737479,59,0.116038381249993
26866,86.40792359791666,30,0.09923391249999725,56,0.1259998437499945
26867,86.41227596249999,58,0.004352364583326107,60,0.34482749999999385
26868,86.52721846249999,29,0.11494249999999795,53,0.12643674999999632
26869,86.64503452499999,27,0.11781606249999754,51,0.12775931250000383
26870,86.75710346249998,58,0.11206893749999836,73,0.12552300000000116
26871,86.75919551249999,22,0.0020920500000016773,49,0.1251954916666591
26872,86.87739633749999,15,0.1182008250000024,51,0.11713849999999582
26873,86.88262646249999,60,0.005230124999997088,82,1.3331139999999948
26874,86.99101767083332,21,0.10839120833333027,52,0.11568244791666871
26875,87.09447260625,27,0.1034549354166785,55,0.11507034374999137
26876,87.20257964999999,29,0.10810704374999602,56,0.11439810624999325
26877,87.30573673749998,30,0.1031570874999943,57,0.11375877499999376
26878,87.40832867499998,29,0.1025919374999944,54,0.11317025625000099
26879,87.50694512499999,27,0.09861645000000863,55,0.11256156666667039
26880,87.61015103124998,21,0.10320590624999681,54,0.10179521249999368
26881,87.71279129583331,15,0.10264026458332864,53,0.11145940833333157
26882,87.80993128541664,21,0.09713998958332581,54,0.11105574791666584
26883,87.91678930416664,27,0.10685801875000323,55,0.11062456666667231
26884,88.01151269166664,29,0.09472338749999665,57,0.11023318750001465
26885,88.11840921249998,30,0.10689652083334522,59,0.1097641249999981
26886,88.21822703749999,29,0.09981782500000236,57,0.110035675000006
26887,88.31267215624999,27,0.09444511875000217,57,0.1152408062500001
26888,88.36759833749998,48,0.054926181249996375,85,0.3083493749999917
26889,88.41654933749999,21,0.04895100000000241,56,0.10489499999999907
26890,88.42004583749998,53,0.003496499999997127,85,0.2559018749999922
26891,88.47249333749998,60,0.052447499999999536,87,0.20345437499999264
26892,88.52057021249999,14,0.04807687500000668,55,0.11091436458332282
26893,88.52494083749998,65,0.004370624999992856,95,0.1510068749999931
26894,88.62728994166665,26,0.1023491041666631,55,0.11073837499999684
26895,88.72208870208331,29,0.09479876041666557,56,0.11073837500001105
26896,88.82527673333331,34,0.10318803124999931,55,0.11079962500001272
26897,88.92762583749999,58,0.10234910416667731,104,0.40562500000000057
26898,88.92931594166666,41,0.0016901041666699257,57,0.11154687500000193
26899,89.03156724374999,34,0.10225130208333155,55,0.11154687500000193
26900,89.12959328541666,29,0.09802604166667095,55,0.11154687499998772
26901,89.23606984791665,26,0.10647656249999216,54,0.10140624999999659
26902,89.33409588958332,13,0.09802604166667095,55,0.11154687500000193
26903,89.43296698333332,25,0.0988710937499917,54,0.11154687500000193
26904,89.46845917083333,58,0.035492187500011596,76,0.13520833333332405
26905,89.53606333749998,28,0.06760416666665492,55,0.11154687500000193
26906,89.60366750416665,58,0.06760416666666913,73,0.13520833333333826
26907,89.64084979583332,34,0.03718229166666731,55,0.111907208333335
26908,89.73465057708331,40,0.09380078124999613,56,0.11440702083334031
26909,89.73887583749999,58,0.004225260416674814,76,0.138811666666669
26910,89.83951429583333,34,0.10063845833333573,53,0.11451962499999979
26911,89.87768750416666,59,0.038173208333333264,73,0.138811666666669
26912,89.94362304583332,28,0.06593554166666138,55,0.11451962499999979
26913,90.04773179583333,25,0.10410875000000885,50,0.10410874999999464
26914,90.08590500416666,58,0.038173208333333264,76,0.0694058333333345
26915,90.1553108375,58,0.0694058333333345,82,0.1150849375000007
26916,90.15973718125,12,0.004426343749997841,55,0.11685547500000837
26917,90.25977255,24,0.10003536874999952,55,0.11688503749999768
26918,90.2615430875,63,0.0017705375000076629,76,0.10623224999999081
26919,90.36689006875,27,0.10534698124999409,56,0.11724274374999766
26920,90.47702701249999,32,0.11013694374999261,55,0.11676391874999581
26921,90.57650821249999,39,0.0994811999999996,57,0.11316661875000023
26922,90.58094933749999,56,0.004441124999999602,91,0.41093100000000504
26923,90.68625040624998,32,0.1053010687499949,54,0.11300602500000423
26924,90.78384651874998,27,0.09759611249999978,56,0.11300602500000423
26925,90.89257201249998,24,0.10872549375000062,55,0.1028374083333432
26926,90.98931201874998,11,0.0967400062500019,55,0.11638125625000839
26927,91.09510602499999,23,0.10579400625000801,55,0.11668094374999782
26928,91.13304367083333,56,0.03793764583333825,74,0.14312949999998636
26929,91.200978525,27,0.06793485416666556,56,0.11963019374998396
26930,91.27617317083332,56,0.0751946458333208,72,0.14509566666666274
26931,91.30972654374999,32,0.033553372916671265,57,0.12048293124999532
26932,91.42126883749998,55,0.11154229374999147,74,0.12914254166666694
26933,91.42524245416665,39,0.003973616666669955,54,0.13112934999999482
26934,91.54047733749998,56,0.11523488333332921,77,0.1313444166666642
26935,91.54445095416665,32,0.003973616666669955,51,0.1346523499999961
26936,91.65968583749998,58,0.11523488333332921,81,0.10922324999999944
26937,91.66454020416664,27,0.004854366666663168,50,0.16019409999999823
26938,91.81017120416665,23,0.14563100000000873,48,0.16054894999999192
26939,91.87484950416665,56,0.06467829999999708,79,0.07668708333333996
26940,91.96687400416664,55,0.09202449999999374,87,0.23076899999999512
26941,91.96783554166664,10,0.0009615375000038284,46,0.12692294999999376
26942,92.07745081666664,22,0.1096152749999959,47,0.12692294999999376
26943,92.19379685416664,27,0.11634603749999428,48,0.12692295000000797
26944,92.31014289166664,26,0.11634603750000849,49,0.12462421666666046
26945,92.42506212916663,28,0.11491923749998989,51,0.11645975000000419
26946,92.42682667083331,54,0.0017645416666738356,76,1.2493575833333352
26947,92.53181689999997,27,0.10499022916665979,53,0.11612906250000776
26948,92.63563587916664,29,0.10381897916667526,55,0.1157438145833396
26949,92.74699803749998,28,0.11136215833333551,55,0.11545247499999789
26950,92.84934960624997,30,0.10235156874999518,56,0.11507034374999137
26951,92.95397499999997,29,0.10462539374999835,55,0.11480074375000981
26952,93.06183516041665,31,0.10786016041667779,57,0.11441309583332782
26953,93.16154846249997,30,0.09971330208331608,55,0.1139780666666752
26954,93.26782157291663,32,0.10627311041666587,59,0.11300602500000423
26955,93.37226653541664,31,0.10444496250001123,57,0.11300602499999002
26956,93.47499928541664,33,0.10273275000000126,61,0.11300602499999002
26957,93.57345150416664,54,0.09845221874999766,73,0.10273275000000126
26958,93.57687592916663,32,0.0034244249999915155,57,0.11300602500000423
26959,93.67618425416664,54,0.09930832500000975,77,0.8206963749999971
26960,93.67960867916663,34,0.0034244249999915155,64,0.11300602500000423
26961,93.77549257916664,33,0.09588390000000402,60,0.11300602500000423
26962,93.88079364791663,35,0.1053010687499949,62,0.11300602500000423
26963,93.98267029166664,34,0.10187664375000338,60,0.11300602500000423
26964,94.08369082916664,37,0.1010205375000055,63,0.11300602499999002
26965,94.08711525416663,53,0.0034244249999915155,76,0.4097653750000063
26966,94.19412853541664,35,0.10701328125000487,61,0.11279443541666012
26967,94.29497595416663,34,0.10084741874999281,63,0.11260064374999956
26968,94.3965199083333,32,0.10154395416667228,60,0.1122679249999976
26969,94.49262805624997,30,0.09610814791666655,63,0.11208618749999744
26970,94.6004752333333,29,0.10784717708332892,59,0.11187137499999267
26971,94.70305103541664,27,0.1025758020833365,60,0.11154687500000193
26972,94.80445728541663,26,0.10140624999999659,59,0.1113418749999937
26973,94.90653365416662,23,0.10207636874999082,57,0.11114170833333503
26974,95.00087335416663,22,0.09433970000000613,53,0.11083114166666519
26975,95.10666722083329,20,0.10579386666665869,51,0.11062456666667231
26976,95.20473822499996,17,0.0980710041666697,47,0.10042849999999248
26977,95.30765925833329,15,0.10292103333333102,41,0.10917866249999975
26978,95.40941217083329,22,0.10175291250000384,42,0.10870197708332796
26979,95.50742335416662,27,0.09801118333332681,43,0.10825100833334034
26980,95.59850409791663,29,0.09108074375001252,44,0.10778468333332114
26981,95.70303145624996,30,0.10452735833332838,45,0.10729344374999528
26982,95.79733789999996,34,0.09430644374999986,46,0.10687516041666356
26983,95.89129677499996,39,0.09395887499999844,47,0.10639469583333039
26984,95.98965288749996,41,0.09835611249999943,48,0.10588556250000636
26985,96.08757155624996,42,0.09791866874999755,50,0.10510075208334513
26986,96.18072962083329,41,0.09315806458333498,49,0.10537037499999258
26987,96.28370382708329,39,0.10297420624999631,48,0.10573075000000642
26988,96.3758127958333,34,0.0921089687500114,47,0.10605775833333553
26989,96.46981267916662,30,0.09399988333332487,47,0.10639201875000026
26990,96.57136598541663,29,0.10155330625001113,46,0.10675187291666077
26991,96.66921817083329,27,0.09785218541665586,45,0.10710075000000074
26992,96.7608968583333,22,0.09167868750000707,44,0.09765894374999107
26993,96.85692713958329,15,0.09603028124999469,45,0.10782986250001159
26994,96.9614890270833,22,0.10456188750001161,48,0.10784317499999929
26995,97.0546263145833,27,0.09313728749999939,51,0.10784317499999929
26996,97.1559335395833,29,0.10130722499999933,53,0.10784317499999929
26997,97.2556067770833,30,0.09967323749999935,56,0.10784317499999929
26998,97.3544630208333,29,0.09885624374999225,53,0.10784317499999929
26999,97.44760030833329,27,0.09313728749999939,51,0.10784317499999929
27000,97.54727354583329,22,0.09967323749999935,49,0.09803924999999936
27001,97.6500717958333,15,0.10279825000000642,47,0.12563759999999036
27002,97.76333599583329,22,0.11326419999998905,47,0.12591026666666494
27003,97.79760079583329,62,0.03426480000000254,89,0.16333975000000578
27004,97.87568247916663,27,0.07808168333333754,51,0.12788709999999526
27005,97.95125212916662,63,0.07556964999999138,92,0.16560789583334667
27006,97.98709927083328,29,0.035847141666664584,53,0.12870143125000766
27007,98.10626679583329,64,0.11916752500000882,95,0.18008489583333187
27008,98.10944476458329,30,0.003177968749994875,56,0.13983062500000187
27009,98.23232622291663,29,0.12288145833333886,54,0.1425009895833398
27010,98.27575846249997,65,0.04343223958333908,105,0.1889125000000007
27011,98.35944497291662,27,0.08368651041665487,51,0.182969858333351
27012,98.51802459791664,22,0.15857962500001577,48,0.17661612499999535
27013,98.58662212916663,66,0.06859753124999202,103,0.11603141666667227
27014,98.7026535458333,66,0.11603141666667227,116,0.8137941250000011
27015,98.7035126520833,15,0.0008591062500045155,47,0.11336378333332675
27016,98.8048871895833,22,0.10137453749999281,43,0.11292605625000363
27017,98.9050146208333,27,0.10012743125000156,44,0.11248860000000604
27018,99.00899982499998,29,0.10398520416667623,46,0.1121007624999919
27019,99.11601583749997,30,0.10701601249999726,47,0.11164679166665792
27020,99.21161534791663,34,0.09559951041666181,48,0.11123328124999432
27021,99.31948162916663,39,0.10786628124999709,49,0.11083717708332586
27022,99.41270133749997,41,0.09321970833333637,50,0.1104129999999941
27023,99.51978100416663,42,0.1070796666666638,52,0.10999999999999943
27024,99.61978100416664,41,0.10000000000000853,51,0.10999999999999943
27025,99.71561433749997,39,0.09583333333333144,51,0.11057612499999436
27026,99.8139476708333,34,0.09833333333332916,50,0.11730901250000159
27027,99.8164476708333,58,0.0024999999999977263,54,0.10628499999999974
27028,99.9227326708333,58,0.10628499999999974,54,0.3409604999999942
27029,99.9236797833333,30,0.0009471125000004577,49,0.12501885000000357
27030,100.0373332833333,29,0.11365349999999808,48,0.12501885000000357
27031,100.1509867833333,27,0.11365349999999808,47,0.12501885000000357
27032,100.26274605833329,22,0.11175927499999716,46,0.11365350000001229
27033,100.26369317083329,58,0.0009471125000004577,54,0.11365350000001229
27034,100.3726111083333,15,0.10891793750001,44,0.1173242375000001
27035,100.3773466708333,59,0.004735562500002288,62,0.8510639999999938
27036,100.4872757708333,22,0.10992910000000222,46,0.11702130000000466
27037,100.5865665708333,27,0.09929079999999146,47,0.11702130000000466
27038,100.6938360958333,29,0.10726952500000664,49,0.11702130000000466
27039,100.80110562083331,30,0.10726952500000664,51,0.11702129999999045
27040,100.9110347208333,29,0.10992909999998801,50,0.11702130000000466
27041,101.01653119583331,27,0.10549647500000958,49,0.11702129999999045
27042,101.12646029583331,22,0.10992910000000222,48,0.10668989583332689
27043,101.2284106708333,58,0.10195037499998705,77,0.15166466666666167
27044,101.22935857499996,15,0.0009479041666651256,47,0.12512334999999553
27045,101.3450028833333,22,0.11564430833333006,49,0.12551897500000564
27046,101.38007533749996,62,0.03507245416666649,77,0.16351745833333098
27047,101.45495976666663,27,0.07488442916667282,51,0.12857847499999764
27048,101.53385000416664,63,0.0788902375000049,79,0.1663178541666639
27049,101.57671828749996,29,0.04286828333331982,54,0.1297094833333432
27050,101.6897346708333,64,0.11301638333334552,89,0.13621145833333514
27051,101.69286462708331,30,0.0031299562500066713,57,0.1385881062499834
27052,101.8107596458333,29,0.11789501874999075,54,0.14845299166667303
27053,101.8149329208333,65,0.004173274999999421,92,0.14731002083333067
27054,101.9470914208333,68,0.13215850000000273,103,0.22121217500000512
27055,102.13561128541663,22,0.18851986458332703,51,0.24004179166666972
27056,102.24470071249996,66,0.10908942708333313,88,0.11904760416666704
27057,102.3756530770833,15,0.1309523645833366,45,0.121626158333342
27058,102.38755783749997,66,0.011904760416669546,110,0.8140353750000173
27059,102.49383096041663,22,0.10627312291666158,47,0.11346751250000864
27060,102.59273779166664,27,0.09890683125000521,48,0.11281500416667711
27061,102.70043334583332,29,0.10769555416668197,49,0.11218753333332643
27062,102.79906154583331,30,0.09862819999999317,52,0.11156683333334172
27063,102.90305262916665,34,0.10399108333334084,54,0.11095573958333205
27064,102.99722982708332,39,0.09417719791666457,55,0.11036284374999639
27065,103.10259267083332,41,0.10536284375000093,57,0.10976213125000811
27066,103.19744038958332,42,0.0948477187500032,60,0.10928527500000484
27067,103.30258659166665,41,0.1051462020833327,56,0.10927152499999693
27068,103.40440778541665,39,0.10182119374999843,57,0.10927152499999693
27069,103.49960646249998,58,0.09519867708333152,59,0.1103267499999987
27070,103.59894421249999,58,0.09933775000000367,61,0.329669999999993
27071,103.60077571249998,30,0.0018314999999944348,54,0.12087900000000218
27072,103.70608696249998,29,0.10531124999999975,51,0.12087900000000218
27073,103.82238721249999,27,0.11630025000000899,51,0.12354303333331984
27074,103.92861421249998,58,0.10622699999998986,70,0.1298702499999962
27075,103.93077871666665,22,0.002164504166671577,49,0.12945399583333028
27076,104.05848446249998,60,0.1277057458333246,82,1.652093624999992
27077,104.05935858749997,15,0.000874124999995729,60,0.1152839875000069
27078,104.1607053083333,21,0.10134672083333385,47,0.11477386875000661
27079,104.27113889583332,27,0.11043358750001175,50,0.1142472916666577
27080,104.37159308749997,29,0.10045419166665681,52,0.11363902499999767
27081,104.47750015624997,30,0.10590706874999967,53,0.11318140000000199
27082,104.5761267583333,29,0.09862660208332841,52,0.1126051416666769
27083,104.67597680624998,27,0.09985004791667507,51,0.112109406249985
27084,104.78215400416664,21,0.10617719791666502,49,0.1014658333333216
27085,104.88446158749997,15,0.10230758333332801,64,0.11111099999999396
27086,104.98378808749996,21,0.09932649999998944,55,0.11111100000000818
27087,105.08479808749996,27,0.10101000000000226,57,0.11111100000000818
27088,105.18244108749997,29,0.09764300000000503,63,0.11111099999999396
27089,105.28597633749996,30,0.10353524999999308,64,0.11111100000000818
27090,105.38951158749997,29,0.1035352500000073,62,0.1114529812499967
27091,105.49315206249996,27,0.10364047499999174,61,0.11625872500000867
27092,105.59297853124997,21,0.09982646875000967,59,0.11662679375000096
27093,105.71057808749997,61,0.11759955624999918,106,0.8761900833333129
27094,105.71520771249997,16,0.004629625000006854,63,0.12216401666665888
27095,105.82076316249997,28,0.10555544999999711,64,0.1216693749999962
27096,105.93232225416664,33,0.11155909166666333,69,0.12114833333332342
27097,106.03790283749996,35,0.10558058333332099,71,0.12072194166665895
27098,106.15679996249996,37,0.11889712500000371,77,0.12018251666665947
27099,106.26516428749996,35,0.1083643249999966,74,0.11968389999998408
27100,106.36944962291662,33,0.1042853354166624,73,0.11926767916665426
27101,106.48059455833328,28,0.11114493541666093,67,0.10796572916666491
27102,106.58496960833328,16,0.10437505000000158,62,0.11809402083333964
27103,106.58676817083328,59,0.0017985624999994343,91,0.43436233333335394
27104,106.69499910416661,28,0.10823093333333134,65,0.11892335625002204
27105,106.80214708749996,33,0.1071479833333484,69,0.11997448333333693
27106,106.91208507916663,35,0.10993799166666918,74,0.12103803333333474
27107,107.0165349208333,37,0.10444984166666416,76,0.12175414166667053
27108,107.02113050416663,57,0.004595583333340869,91,0.3321030000000036
27109,107.1309089958333,35,0.10977849166665976,72,0.12177110000000368
27110,107.23976497916664,33,0.10885598333334201,71,0.12265220000000454
27111,107.35323350416664,56,0.11346852500000182,91,0.12028899999999965
27112,107.3583355458333,28,0.005102041666660284,65,0.11974900000001298
27113,107.47352250416664,56,0.11518695833333936,98,1.2905059166666888
27114,107.47717213749998,16,0.0036496333333388975,60,0.12031849999999622
27115,107.58749062916664,28,0.11031849166666063,63,0.11987823124999863
27116,107.69287609374997,34,0.10538546458333542,66,0.11939197083333397
27117,107.8014377395833,37,0.10856164583333339,68,0.11896154583334351
27118,107.90421222291666,40,0.1027744833333486,70,0.11848918958332888
27119,108.01553294583331,39,0.11132072291665907,70,0.11805235208333897
27120,108.12197816666665,37,0.10644522083333641,69,0.11757108750001066
27121,108.23065246249999,35,0.10867429583333887,68,0.10650916666666888
27122,108.33272900416667,34,0.10207654166667623,68,0.11670796666666661
27123,108.33716162916666,55,0.00443262499999264,91,0.42686679166666863
27124,108.44677739583332,32,0.10961576666666417,68,0.11713484999999935
27125,108.54789802083333,31,0.10112062500000718,69,0.11766004583331835
27126,108.65930807291666,28,0.11141005208332899,67,0.11820956666666405
27127,108.76852482708333,27,0.10921675416666687,66,0.11926240208333638
27128,108.8732417625,25,0.10471693541667548,64,0.12059675833333472
27129,108.97913265416668,23,0.1058908916666752,63,0.12364015416666518
27130,109.09087632083335,22,0.11174366666666913,62,0.13354820833332326
27131,109.22665667083334,59,0.13578034999999034,100,0.8635472500000247
27132,109.2275657625,14,0.0009090916666707471,62,0.12000009999999861
27133,109.3393840375,26,0.11181827499999031,65,0.11961802500000829
27134,109.44179190208334,31,0.10240786458334128,67,0.11927422083333283
27135,109.55113832500001,33,0.10934642291667274,69,0.1189063666666641
27136,109.66285044166668,35,0.11171211666666636,72,0.11853108750000274
27137,109.77242094583335,33,0.10957050416666902,73,0.11816442500000335
27138,109.87362110208336,31,0.101200156250016,71,0.11782843124998976
27139,109.98076385208336,26,0.10714274999999418,67,0.10677103125000542
27140,110.08931424166668,14,0.10855038958332841,62,0.11702445416668183
27141,110.09020392083336,57,0.0008896791666757053,87,0.425532000000004
27142,110.20013302083336,26,0.10992910000000222,67,0.11702130000000466
27143,110.30385644583336,31,0.10372342499999831,72,0.11702130000000466
27144,110.40492029583336,33,0.10106385000000273,71,0.11729710000000182
27145,110.51573592083336,55,0.11081562500000075,87,0.3333329999999961
27146,110.52036554583337,35,0.004629625000006854,76,0.12222209999998768
27147,110.62221729583337,33,0.10185174999999447,73,0.12222210000000189
27148,110.73888384583337,31,0.11666655000000503,74,0.12278196666665053
27149,110.84629114583336,26,0.10740729999999132,70,0.1161498000000023
27150,110.84906892083336,54,0.002777774999998428,84,0.1162790000000058
27151,110.9614719541667,14,0.11240303333333657,64,0.11981810000000337
27152,110.96534792083337,54,0.0038759666666692283,95,1.304349000000002
27153,111.0704204791667,26,0.10507255833333318,65,0.11956532499999639
27154,111.18002202708337,32,0.1096015479166681,67,0.11956532499999639
27155,111.29143517083337,35,0.11141314374999922,71,0.11956532499999639
27156,111.4046599104167,38,0.11322473958333035,73,0.11956532499999639
27157,111.50429768125004,37,0.0996377708333398,73,0.11956532499999639
27158,111.61299343125003,35,0.10869574999999543,72,0.11956532499999639
27159,111.72440657500003,33,0.11141314374999922,71,0.11956532499999639
27160,111.83310232500003,32,0.10869574999999543,71,0.1195653250000106
27161,111.83491392083337,53,0.0018115958333453364,87,0.4347829999999959
27162,111.94360967083337,30,0.10869574999999543,71,0.11956532499999639
27163,112.05230542083336,29,0.10869574999999543,72,0.11956532499999639
27164,112.1600953729167,26,0.10778995208333697,71,0.12005782708332902
27165,112.27444977500004,25,0.11435440208333603,70,0.12609819999998706
27166,112.38516337500003,23,0.11071359999999686,67,0.12766579166665792
27167,112.49823772916669,21,0.11307435416665612,64,0.12932260833335363
27168,112.61767892083337,20,0.11944119166668088,62,0.11912849999998798
27169,112.73580742083337,13,0.11812849999999742,59,0.1255247791666534
27170,112.73680742083336,58,0.000999999999990564,87,1.735907999999995
27171,112.85562877500003,25,0.11882135416666983,54,0.1254753500000021
27172,112.96589499166669,30,0.11026621666665903,45,0.1254753500000021
27173,113.08281520416669,32,0.1169202125000055,48,0.12424051666666003
27174,113.19570160208335,34,0.11288639791665389,50,0.1152879750000011
27175,113.30050885208335,32,0.10480725000000746,47,0.1152879750000011
27176,113.40356931458335,30,0.10306046249999667,45,0.1152879750000011
27177,113.51099674583335,25,0.10742743125000231,43,0.10480724999999325
27178,113.61056363333336,13,0.09956688750000353,38,0.1152879750000011
27179,113.72148463958335,25,0.11092100624999546,41,0.1152879750000011
27180,113.81930473958334,30,0.09782009999999275,44,0.1152879750000011
27181,113.93109913958335,32,0.11179440000000795,46,0.11606526458334088
27182,114.03337765416669,34,0.10227851458333248,49,0.12132340000000852
27183,114.13815695416669,32,0.10477930000000413,48,0.12132339999999431
27184,114.25488477083336,30,0.11672781666666765,45,0.12132339999999431
27185,114.36242142083336,25,0.10753665000000012,44,0.11029399999999612
27186,114.46903895416669,14,0.10661753333333479,31,0.12004019999999116
27187,114.47271542083335,58,0.0036764666666613266,65,1.7454560000000043
27188,114.57726096250002,26,0.10454554166666696,33,0.12000009999999861
27189,114.68635196250003,29,0.10909100000000649,34,0.12000009999999861
27190,114.79998842083336,34,0.1136364583333318,35,0.12000009999999861
27191,114.91271578750002,41,0.11272736666666106,36,0.12000009999999861
27192,115.01453405416669,34,0.10181826666666893,35,0.12000009999999861
27193,115.12271596250002,29,0.10818190833333574,34,0.12000009999999861
27194,115.23362514583336,26,0.11090918333333377,32,0.10909099999999228
27195,115.34544342083335,46,0.11181827499999031,60,0.8727280000000093
27196,115.34907978750002,14,0.0036363666666687777,31,0.12000009999999861
27197,115.45726169583335,26,0.10818190833333574,31,0.12000009999999861
27198,115.56635269583336,29,0.10909100000000649,33,0.12000009999999861
27199,115.67453460416668,34,0.10818190833332153,34,0.12000010000001282
27200,115.77998923750002,41,0.10545463333333771,35,0.12000009999999861
27201,115.89362569583335,34,0.1136364583333318,34,0.12000009999999861
27202,115.99998942083336,56,0.10636372500000846,67,0.21818199999999877
27203,116.00453487916668,29,0.004545458333325314,34,0.12000009999999861
27204,116.11271678750002,26,0.10818190833333574,33,0.10909100000000649
27205,116.21544414583336,15,0.10272735833333968,32,0.11997045624998748
27206,116.21817142083336,56,0.0027272749999980306,74,1.7376204166666582
27207,116.32726242083335,22,0.10909099999999228,29,0.11939524166666615
27208,116.43131470208334,27,0.10405228124999155,30,0.1189810208333455
27209,116.53950434791669,29,0.10818964583334889,31,0.11840231666667478
27210,116.6471763791667,30,0.10767203125000435,32,0.1178954499999918
27211,116.75701370833336,34,0.10983732916666611,33,0.11843444166666472
27212,116.86825390000003,39,0.11124019166666699,34,0.11888039999999478
27213,116.97359639375001,41,0.10534249374998694,35,0.11946745208334164
27214,117.07944064583336,42,0.1058442520833438,35,0.11998692499999208
27215,117.08306383750002,54,0.003623191666662251,70,0.8727279999999951
27216,117.19033665416669,41,0.107272816666665,35,0.12000009999999861
27217,117.29851856250002,39,0.10818190833333574,35,0.12000009999999861
27218,117.41306411250002,34,0.11454555000000255,34,0.12000009999999861
27219,117.51579147083335,30,0.10272735833332547,34,0.12000009999999861
27220,117.62397337916669,29,0.10818190833333574,33,0.12000009999999861
27221,117.73760983750002,27,0.1136364583333318,32,0.12000009999999861
27222,117.84488265416668,22,0.107272816666665,32,0.10909100000000649
27223,117.95579183750002,44,0.11090918333333377,48,1.7454560000000043
27224,117.95851911250001,8,0.0027272749999980306,35,0.12000010000001282
27225,118.01033733750002,47,0.051818225000005214,48,1.690910500000001
27226,118.06124647083335,16,0.050909133333334466,35,0.12000009999999861
27227,118.06488283750002,54,0.0036363666666687777,57,0.10909099999999228
27228,118.17397383750001,56,0.10909099999999228,59,0.10909100000000649
27229,118.17761020416668,20,0.0036363666666687777,36,0.12000009999999861
27230,118.27942847083335,22,0.10181826666666893,38,0.12000009999999861
27231,118.28306483750002,54,0.0036363666666687777,62,0.10909100000000649
27232,118.38761037916669,23,0.10454554166666696,39,0.12000009999999861
27233,118.39215583750003,52,0.004545458333339525,66,0.32727299999999104
27234,118.49761047083335,28,0.1054546333333235,40,0.12000009999999861
27235,118.61306511250002,32,0.1154546416666733,42,0.12000009999999861
27236,118.71670156250002,34,0.10363644999999622,43,0.12000009999999861
27237,118.71942883750002,54,0.0027272749999980306,70,0.10909100000000649
27238,118.82851983750002,56,0.10909100000000649,75,0.43636399999999753
27239,118.82942892916668,35,0.0009090916666565363,44,0.12000010000001282
27240,118.93579265416669,34,0.10636372500000846,44,0.12000009999999861
27241,119.04670183750002,32,0.11090918333333377,43,0.12000009999999861
27242,119.15761102083336,28,0.11090918333333377,42,0.12000009999999861
27243,119.26488383750002,47,0.107272816666665,66,0.43636399999999753
27244,119.26852020416669,23,0.0036363666666687777,41,0.12000009999999861
27245,119.37852029583335,20,0.11000009166666302,40,0.12000009999999861
27246,119.48761129583336,16,0.10909100000000649,40,0.12000009999999861
27247,119.58852047083336,11,0.10090917499999819,39,0.10909099999999228
27248,119.69761147083335,10,0.10909099999999228,38,0.10728167500001007
27249,119.70124783750002,51,0.0036363666666687777,68,3.3461494166667194
27250,119.91770578541669,19,0.21645794791666617,42,0.1187051250000053
27251,120.02741809791668,18,0.10971231249999391,43,0.11839894791667405
27252,120.13596040416668,20,0.10854230625000127,43,0.11810038333334205
27253,120.23531080625003,19,0.09935040208334556,44,0.11785702499999218
27254,120.35048926250002,21,0.11517845624999268,44,0.11755202500000905
27255,120.45736513750003,20,0.10687587500001428,45,0.11726101666666011
27256,120.55955522916669,22,0.10219009166665671,45,0.11698683333334259
27257,120.66770814583336,21,0.10815291666666838,45,0.11660770000000298
27258,120.77459853750003,23,0.10689039166666703,46,0.11631532083335117
27259,120.87770963958337,22,0.1031111020833464,45,0.11616316250000125
27260,120.98246310833338,24,0.10475346875000469,47,0.11579574999998954
27261,121.09387288958337,23,0.11140978124998924,48,0.11549190624999994
27262,121.19887529583337,25,0.10500240625000856,49,0.1152108874999982
27263,121.30189107500003,24,0.10301577916665394,48,0.11493710625001086
27264,121.40467539375004,26,0.10278431875001104,49,0.11454437083334312
27265,121.50536991875003,25,0.10069452499999443,50,0.11404970416667481
27266,121.60821272916671,27,0.10284281041667498,50,0.1136508750000047
27267,121.7124134354167,26,0.10420070624999767,49,0.11311391041668628
27268,121.81870141250005,28,0.10628797708334048,52,0.11259017291666851
27269,121.92023717083339,27,0.10153575833334116,53,0.1120949999999965
27270,122.02046775416672,29,0.10023058333332813,53,0.1117212708333426
27271,122.12120930625007,28,0.100741552083349,52,0.11120787499999096
27272,122.22486683750006,30,0.10365753124999344,53,0.11088516666667658
27273,122.32733450416673,29,0.10246766666666929,51,0.11141841666666608
27274,122.4311257958334,31,0.10379129166666701,54,0.11219331666667642
27275,122.53052048750007,30,0.09939469166667436,55,0.1128269208333279
27276,122.63561545208339,32,0.10509496458331569,56,0.11357088750001765
27277,122.73194496458339,31,0.09632951250000588,54,0.11423300208335263
27278,122.83833825416674,33,0.1063932895833517,56,0.1149824499999994
27279,122.94025451666674,32,0.10191626249999786,55,0.11487469374999648
27280,123.04739725416674,51,0.10714273749999847,67,1.2447189999999893
27281,123.05083367916674,34,0.003436425000003851,57,0.11340202499999918
27282,123.15049000416674,33,0.09965632499999799,55,0.11340202499999918
27283,123.25186454166673,35,0.10137453749999281,57,0.11340202499999918
27284,123.35667550416674,34,0.10481096250001087,56,0.11340202499999918
27285,123.46062736041674,37,0.10395185624999215,57,0.11340202499999918
27286,123.56114279166674,35,0.10051543125000251,54,0.11383623333333048
27287,123.66423554166674,34,0.10309275000000184,53,0.11904673333333449
27288,123.66595375416674,50,0.00171821249999482,60,0.21660649999999748
27289,123.77064689583341,32,0.10469314166667232,50,0.11873929166665675
27290,123.88075520000007,30,0.1101083041666584,53,0.11272647083333709
27291,123.88256025416673,53,0.001805054166666764,67,0.4095559999999949
27292,123.98238952916674,29,0.09982927500000471,48,0.11262789999999256
27293,124.09160446250007,32,0.10921493333333387,51,0.11262789999999256
27294,124.19228697916674,30,0.10068251666666583,47,0.11262789999999256
27295,124.29467597916674,34,0.10238900000000228,52,0.11262789999999256
27296,124.39621173750007,32,0.10153575833332695,49,0.11262790000000678
27297,124.49860073750007,30,0.10238900000000228,51,0.11262789999999256
27298,124.59672352916674,29,0.09812279166666826,47,0.11262789999999256
27299,124.70423197916674,27,0.10750844999999742,51,0.11262789999999256
27300,124.7997950458334,26,0.09556306666667069,48,0.11237541874999124
27301,124.90791876666673,29,0.10812372083331923,53,0.1120892375000011
27302,125.0115334208334,27,0.1036146541666767,49,0.11186449999999581
27303,125.1081436708334,25,0.09661024999999768,51,0.11160668750000013
27304,125.2070814520834,23,0.09893778125000097,50,0.11135271875001251
27305,125.31254192083341,22,0.10546046875001025,50,0.11111099999999396
27306,125.40934317083341,21,0.09680124999999862,49,0.11086540624999941
27307,125.51769179583341,22,0.10834862500000497,49,0.11058122500000422
27308,125.61573120833341,23,0.09803941250000037,47,0.1103679500000112
27309,125.71522958750009,20,0.09949837916667548,48,0.11011150000000214
27310,125.81617442083342,22,0.1009448333333296,46,0.10988925000000904
27311,125.91606367083342,18,0.09988925000000393,46,0.11044466666666608
27312,126.0180908375001,20,0.102027166666673,44,0.11158192708333559
27313,126.11861835000009,17,0.10052751249999403,44,0.1127166416666796
27314,126.22102571666676,18,0.10240736666666805,43,0.10346698333333393
27315,126.3227565875001,39,0.10173087083333598,71,2.397863916666637
27316,126.53352246875009,40,0.21076588124999773,49,0.1070247749999993
27317,126.63162851250009,39,0.09810604374999343,48,0.10727297500000077
27318,126.72263390416676,37,0.09100539166666977,47,0.10748574999999505
27319,126.82277679791676,34,0.10014289375000374,46,0.10777472708332425
27320,126.92400402500009,35,0.10122722708332788,45,0.10803375000000415
27321,127.01566902500008,34,0.09166499999999189,44,0.10830994375000103
27322,127.11741081875009,31,0.10174179375000847,44,0.1085587791666569
27323,127.21279176458341,27,0.09538094583332679,43,0.10883991250000236
27324,127.31584808750009,28,0.10305632291667166,42,0.10909354999999721
27325,127.41251665625008,27,0.09666856874999041,41,0.10940140625001504
27326,127.51031404583343,25,0.0977973895833486,40,0.1096394874999902
27327,127.61163849166675,22,0.10132444583332756,39,0.10994226249999883
27328,127.71824408750008,23,0.1066055958333294,38,0.1102112874999932
27329,127.81422800416675,22,0.09598391666666828,37,0.11050304999999128
27330,127.91465650416674,44,0.10042849999999248,49,1.6066289166666365
27331,127.91549605000007,20,0.0008395458333296801,35,0.11082005000001516
27332,128.01120427500007,15,0.09570822499999565,32,0.11082005000000095
27333,128.1153079583334,20,0.10410368333333508,35,0.11082005000000095
27334,128.2210907333334,15,0.10578277499999444,28,0.11082005000000095
27335,128.32099668750007,20,0.09990595416667247,35,0.11082005000000095
27336,128.41670491250008,15,0.09570822500000986,31,0.11082005000000095
27337,128.51661086666675,20,0.09990595416667247,35,0.11082005000000095
27338,128.61819591250008,15,0.10158504583333183,28,0.11079363333331571
27339,128.71642277500007,20,0.09822686249998469,35,0.11048455833332582
27340,128.72062050416673,53,0.0041977291666626115,55,0.8006649166666477
27341,128.82523352500007,15,0.1046130208333409,32,0.1104713499999832
27342,128.91812988750007,20,0.09289636249999944,35,0.11033994999999663
27343,129.0176256708334,15,0.09949578333333875,30,0.11010999999999171
27344,129.11939400416674,20,0.10176833333332524,35,0.11010999999999171
27345,129.2203281708334,15,0.10093416666666144,32,0.1098171250000064
27346,129.32432476666673,20,0.10399659583333687,35,0.10975854999998091
27347,129.42327376250006,15,0.09894899583332517,28,0.10995867499997303
27348,129.52128542083338,55,0.09801165833331993,56,1.587156916666629
27349,129.72182462916672,40,0.20053920833333905,47,0.10668620624997516
27350,129.82044631458336,39,0.09862168541664573,46,0.10668400208334106
27351,129.9166125041667,37,0.09616618958332879,45,0.10702724999998736
27352,130.0147111916667,34,0.0980986874999985,44,0.10737804374997495
27353,130.11557458541668,35,0.10086339374998943,44,0.10773933749999287
27354,130.20942502916668,34,0.09385044375000007,44,0.10807894166666188
27355,130.31176626041668,31,0.10234123124999428,43,0.10844753750001246
27356,130.40623352916668,27,0.09446726875000877,42,0.10879155833333698
27357,130.5075993375,28,0.10136580833332687,41,0.10915954374999615
27358,130.61013636458335,27,0.10253702708334345,40,0.10953277499999103
27359,130.70554954166667,25,0.09541317708331576,39,0.10988371249999318
27360,130.80293325416667,22,0.09738371250000455,38,0.11013101250000545
27361,130.90553917916668,23,0.10260592500000598,37,0.1105082624999909
27362,131.009336025,22,0.1037968458333296,36,0.11089081250000277
27363,131.1084423375,51,0.09910631249999824,50,1.6899138333333497
27364,131.1118093375,20,0.0033669999999972333,35,0.11127025000001822
27365,131.21041068125,15,0.09860134375000484,33,0.11163819791664764
27366,131.31442175416666,20,0.10401107291664857,35,0.11202585000000909
27367,131.40859047291667,15,0.0941687187500122,30,0.11238122291666741
27368,131.51755872916667,20,0.10896825624999451,35,0.1127886604166406
27369,131.62178574375,15,0.10422701458332995,34,0.11318140000000199
27370,131.72122144374998,20,0.09943569999998658,35,0.11355903750001062
27371,131.82443565625,15,0.1032142125000064,29,0.11439617083337339
27372,131.92714117083335,44,0.10270551458336286,46,0.8712150000000065
27373,131.92804045208337,20,0.000899281250013928,35,0.11870512499999109
27374,132.03595420208336,15,0.10791374999999448,33,0.11870512499999109
27375,132.14027082708336,20,0.10431662499999561,35,0.11870512499999109
27376,132.25537882708335,15,0.11510799999999222,31,0.11898509375001254
27377,132.35609832708334,20,0.10071949999999674,35,0.12082959375001678
27378,132.35879617083336,53,0.0026978437500133623,55,0.4395600000000002
27379,132.46410742083336,15,0.10531124999999975,33,0.12087900000000218
27380,132.57582892083335,20,0.11172149999998737,35,0.12087900000000218
27381,132.68571892083335,15,0.10989000000000715,32,0.10989000000000715
27382,132.79835617083336,55,0.1126372500000059,64,0.21977999999998588
27383,133.01355742083337,59,0.2152012500000069,81,0.09414266666664162
27384,133.01722042083335,71,0.0036629999999888696,89,0.09359493333332125
27385,133.11159417083334,58,0.09437374999998838,80,0.10325240000000235
27386,133.11393792083334,70,0.0023437499999943157,88,0.10325975000000653
27387,133.20309107083335,67,0.08915315000001556,85,0.10366756249996456
27388,133.20622587083335,55,0.0031347999999979947,77,0.10367741249999085
27389,133.30282782083333,63,0.09660194999997884,84,0.1040515833333302
27390,133.30361398333332,51,0.0007861624999918604,76,0.10405656041666589
27391,133.3926438833333,52,0.08902989999998567,81,0.10455095416668314
27392,133.39343252708332,64,0.000788643750013307,91,0.10455596041666126
27393,133.49005198749998,51,0.0966194604166617,77,0.10489584583334022
27394,133.4916392875,63,0.0015873000000112825,87,0.1049009041666693
27395,133.58220896666666,61,0.09056967916666281,89,0.10534506874998328
27396,133.58698604166665,49,0.004777074999992692,79,0.10537568124999552
27397,133.67634888958332,58,0.08936284791667504,87,0.10577437291667025
27398,133.68354762916664,46,0.007198739583316183,77,0.1058103583333434
27399,133.7773001125,59,0.09375248333336117,89,0.1062467687499975
27400,133.78051554583334,47,0.003215433333338069,84,0.10625714374998552
27401,133.8714501,58,0.0909345541666653,88,0.106686612499999
27402,133.8762888125,46,0.004838712500003339,81,0.10670227500000351
27403,133.9684279625,55,0.09213914999997996,88,0.10679625000000215
27404,133.97085515,43,0.0024271875000181353,81,0.10679625000000215
27405,134.0655154625,39,0.09466031249999673,79,0.10679625000000215
27406,134.0687517125,51,0.003236249999986285,87,0.10679625000000215
27407,134.166648275,40,0.09789656250001144,84,0.10679625000000215
27408,134.1682664,52,0.0016181249999931424,91,0.10679625000000215
27409,134.2580723375,39,0.08980593750001731,80,0.10679625000000215
27410,134.2588814,51,0.0008090624999965712,88,0.10679625000000215
27411,134.3583960875,37,0.09951468750000458,80,0.10679624999997372
27412,134.3616323375,49,0.003236249999986285,89,0.10679625000000215
27413,134.4538654625,46,0.09223312500000702,88,0.10679625000000215
27414,134.4571017125,34,0.003236249999986285,80,0.10679625000000215
27415,134.551762025,35,0.09466031249999673,85,0.10679625000000215
27416,134.5566164,47,0.004854375000007849,95,0.10679625000000215
27417,134.6512767125,46,0.09466031249999673,92,0.10679625000000215
27418,134.6537039,34,0.0024271875000181353,82,0.10679625000000215
27419,134.7435098375,31,0.08980593749998889,83,0.10679625000000215
27420,134.7443189,43,0.0008090624999965712,90,0.10679625000000215
27421,134.8422154625,39,0.09789656250001144,89,0.10679625000000215
27422,134.843024525,27,0.0008090624999965712,81,0.10679625000000215
27423,134.936875775,28,0.09385125000000016,84,0.10679625000000215
27424,134.9393029625,40,0.0024271874999897136,93,0.10679625000000215
27425,135.0380085875,39,0.09870562500000801,92,0.10679625000000215
27426,135.0396267125,27,0.0016181249999931424,84,0.10679625000000215
27427,135.1326689,25,0.09304218750000359,83,0.10679625000000215
27428,135.1334779625,37,0.0008090624999965712,91,0.10679625000000215
27429,135.2289473375,22,0.0954693749999933,83,0.10679625000000215
27430,135.22975639999999,34,0.0008090624999965712,90,0.10679625000000215
27431,135.3260348375,35,0.0962784375000183,94,0.10679625000000215
27432,135.3268439,23,0.0008090624999965712,88,0.10679625000000215
27433,135.4231223375,34,0.09627843749998988,92,0.10679625000000215
27434,135.4239314,22,0.0008090624999965712,84,0.10679625000000215
27435,135.5250642125,31,0.10113281250002615,91,0.10679624999997372
27436,135.5266823375,19,0.0016181249999931424,83,0.10679625000000215
27437,135.622960775,15,0.09627843749998988,83,0.10679625000000215
27438,135.6237698375,27,0.0008090624999965712,90,0.10679625000000215
27439,135.713575775,16,0.08980593750001731,84,0.10679625000000215
27440,135.71923921249999,28,0.0056634374999759984,94,0.10679625000000215
27441,135.8147085875,15,0.09546937500002173,93,0.09677624999997647
27442,135.8179448375,27,0.003236249999986285,103,0.09746156666665229
27443,135.91148483749998,36,0.09353999999999019,110,0.921568166666674
27444,136.8526608375,39,0.9411760000000129,108,0.9336093750000032
27445,137.8485108375,34,0.9958499999999901,109,0.24096399999999107
27446,138.3304388375,34,0.48192800000001057,102,0.24096399999999107
27447,0.0010775854166666667,69,0.0,99,0.09698268750000001
27448,0.08620683333333334,73,0.08512924791666668,76,0.08620683333333334
27449,0.1724136666666667,64,0.08620683333333334,69,0.08620683333333334
27450,0.25862050000000003,69,0.08620683333333334,93,0.0969826875
27451,0.3448273333333334,66,0.08620683333333334,79,0.08620683333333329
27452,0.43103416666666666,69,0.08620683333333329,73,0.0862068333333334
27453,0.5172410000000001,64,0.0862068333333334,92,0.09698268749999994
27454,0.6034478333333334,69,0.08620683333333334,78,0.08620683333333334
27455,0.6896546666666667,61,0.08620683333333334,71,0.08620683333333323
27456,0.7758615,64,0.08620683333333323,84,0.08620683333333334
27457,0.8620683333333333,57,0.08620683333333334,72,0.08620683333333334
27458,0.9482751666666667,61,0.08620683333333334,68,0.08620683333333345
27459,1.0344820000000001,57,0.08620683333333345,74,0.09698268749999994
27460,1.1206888333333334,61,0.08620683333333323,64,0.08620683333333345
27461,1.2068956666666668,52,0.08620683333333345,58,0.08620683333333323
27462,1.2931025,57,0.08620683333333323,71,0.09698268749999994
27463,1.3793093333333335,54,0.08620683333333345,63,0.08620683333333323
27464,1.4655161666666667,57,0.08620683333333323,57,0.08620683333333323
27465,1.551723,52,0.08620683333333323,69,0.09698268750000016
27466,1.6379298333333334,57,0.08620683333333345,56,0.08620683333333323
27467,1.7241366666666667,49,0.08620683333333323,56,0.08620683333333345
27468,1.8103435,52,0.08620683333333345,67,0.08620683333333323
27469,1.8965503333333333,45,0.08620683333333323,55,0.08620683333333345
27470,1.9827571666666668,49,0.08620683333333345,53,0.08620683333333345
27471,2.0689640000000002,40,0.08620683333333345,74,0.09698268749999972
27472,2.1551708333333335,52,0.08620683333333323,69,0.08620683333333323
27473,2.2413776666666667,47,0.08620683333333323,63,0.08620683333333323
27474,2.3275845,52,0.08620683333333323,75,0.09698268750000016
27475,2.4137913333333336,47,0.08620683333333368,67,0.08620683333333323
27476,2.499998166666667,59,0.08620683333333323,61,0.08620683333333323
27477,2.586205,47,0.08620683333333323,75,0.09698268750000016
27478,2.6724118333333333,59,0.08620683333333323,68,0.08620683333333368
27479,2.758618666666667,54,0.08620683333333368,61,0.08620683333333323
27480,2.8448255000000002,59,0.08620683333333323,81,0.09698268749999972
27481,2.9310323333333335,54,0.08620683333333323,74,0.08620683333333323
27482,3.0172391666666667,66,0.08620683333333323,70,0.08620683333333323
27483,3.103446,54,0.08620683333333323,82,0.7827275
27484,3.1896528333333336,66,0.08620683333333368,73,0.08620683333333323
27485,3.275859666666667,59,0.08620683333333323,68,0.08620683333333323
27486,3.3620665,66,0.08620683333333323,86,0.25862050000000014
27487,3.4482733333333333,59,0.08620683333333323,69,0.08620683333333368
27488,3.534480166666667,71,0.08620683333333368,67,0.08620683333333323
27489,3.620687,59,0.08620683333333323,89,0.26548649999999974
27490,3.7091825000000003,71,0.08849550000000006,77,0.08849550000000006
27491,3.7976780000000003,64,0.08849550000000006,75,0.08849549999999962
27492,3.8861735,71,0.08849549999999962,92,0.08849550000000006
27493,3.974669,64,0.08849550000000006,83,0.08849550000000006
27494,4.0631645,76,0.08849550000000006,78,0.08849549999999962
27495,4.15166,69,0.08849549999999962,96,0.09698268749999972
27496,4.237866833333333,73,0.08620683333333368,78,0.08620683333333279
27497,4.324073666666666,64,0.08620683333333279,75,0.08620683333333368
27498,4.4102805,69,0.08620683333333368,95,0.09698268749999972
27499,4.496487333333333,66,0.08620683333333279,77,0.08620683333333368
27500,4.582694166666666,69,0.08620683333333368,74,0.08620683333333368
27501,4.668901,64,0.08620683333333368,95,0.09698268749999972
27502,4.755107833333333,69,0.08620683333333279,76,0.08620683333333368
27503,4.841314666666666,61,0.08620683333333368,74,0.08620683333333279
27504,4.927521499999999,64,0.08620683333333279,85,0.08620683333333368
27505,5.013728333333333,57,0.08620683333333368,75,0.08620683333333368
27506,5.099935166666667,61,0.08620683333333368,70,0.08620683333333368
27507,5.186142,57,0.08620683333333368,74,0.09698268749999972
27508,5.272348833333333,61,0.08620683333333279,69,0.08620683333333368
27509,5.358555666666667,52,0.08620683333333368,65,0.08620683333333279
27510,5.4447624999999995,57,0.08620683333333279,74,0.09698268750000061
27511,5.530969333333333,54,0.08620683333333368,69,0.08620683333333368
27512,5.617176166666667,57,0.08620683333333368,66,0.08620683333333279
27513,5.703383,52,0.08620683333333279,74,0.09698268749999972
27514,5.789589833333333,57,0.08620683333333368,67,0.08620683333333279
27515,5.875796666666666,49,0.08620683333333279,70,0.08620683333333368
27516,5.9620035,52,0.08620683333333368,74,0.08620683333333368
27517,6.0482103333333335,45,0.08620683333333368,65,0.08620683333333279
27518,6.134417166666666,49,0.08620683333333279,68,0.08620683333333368
27519,6.220624,42,0.08620683333333368,77,0.25862050000000014
27520,6.306830833333333,54,0.08620683333333279,69,0.08620683333333368
27521,6.393037666666666,47,0.08620683333333368,66,0.08620683333333368
27522,6.4792445,54,0.08620683333333368,77,0.5172410000000003
27523,6.565451333333334,47,0.08620683333333368,67,0.08620683333333279
27524,6.6516581666666665,59,0.08620683333333279,71,0.08620683333333279
27525,6.737864999999999,54,0.08620683333333279,77,0.08620683333333368
27526,6.824071833333333,59,0.08620683333333368,74,0.08620683333333368
27527,6.910278666666667,54,0.08620683333333368,70,0.08620683333333368
27528,6.9964855,54,0.08620683333333368,82,0.23542618749999988
27529,7.086171666666667,59,0.08968616666666662,73,0.08968616666666662
27530,7.175857833333334,71,0.08968616666666662,75,0.08968616666666662
27531,7.2319116875,25,0.05605385416666664,57,0.26905849999999987
27532,7.24872784375,32,0.01681615624999999,59,0.2522423437499999
27533,7.265544,61,0.01681615624999999,88,0.23542618749999988
27534,7.355230166666667,73,0.08968616666666662,78,0.08968616666666662
27535,7.4449163333333335,61,0.08968616666666662,70,0.08968616666666662
27536,7.5009701875,37,0.05605385416666664,56,0.30269081249999985
27537,7.51778634375,44,0.01681615624999999,56,0.28587465624999986
27538,7.5346025,73,0.01681615624999999,81,0.26905849999999987
27539,7.624288666666667,61,0.08968616666666662,75,0.08968616666666662
27540,7.713974833333333,73,0.08968616666666662,70,0.08968616666666662
27541,7.803661,61,0.08968616666666662,68,0.09345800000000004
27542,7.897119,73,0.09345800000000004,62,0.09345800000000004
27543,7.990577,61,0.09345800000000004,53,0.09345800000000004
27544,8.084035,73,0.09345800000000004,59,0.09345800000000004
27545,8.177493,61,0.09345800000000004,53,0.09345800000000004
27546,8.270951,73,0.09345800000000004,45,0.09345800000000004
27547,8.36551519375,69,0.09456419374999925,96,0.09955743750000146
27548,8.4529045,73,0.0873893062500013,73,0.08849549999999873
27549,8.5414,64,0.08849549999999873,67,0.0884955000000005
27550,8.6298955,69,0.0884955000000005,90,0.09698268750000061
27551,8.716102333333334,66,0.08620683333333368,67,0.08620683333333368
27552,8.802309166666667,69,0.08620683333333368,59,0.0862068333333319
27553,8.888516,64,0.0862068333333319,93,0.09698268750000061
27554,8.974722833333333,69,0.08620683333333368,68,0.08620683333333368
27555,9.060929666666667,61,0.08620683333333368,66,0.08620683333333368
27556,9.1471365,64,0.08620683333333368,84,0.08620683333333368
27557,9.233343333333334,57,0.08620683333333368,66,0.0862068333333319
27558,9.319550166666666,61,0.0862068333333319,63,0.08620683333333368
27559,9.405757,57,0.08620683333333368,74,0.09698268750000061
27560,9.491963833333333,61,0.08620683333333368,66,0.08620683333333368
27561,9.578170666666667,52,0.08620683333333368,63,0.08620683333333368
27562,9.6643775,57,0.08620683333333368,68,0.09698268749999883
27563,9.750584333333332,54,0.0862068333333319,65,0.08620683333333368
27564,9.836791166666666,57,0.08620683333333368,62,0.08620683333333368
27565,9.922998,52,0.08620683333333368,74,0.09698268750000061
27566,10.009204833333333,57,0.08620683333333368,65,0.08620683333333368
27567,10.095411666666667,49,0.08620683333333368,61,0.0862068333333319
27568,10.181618499999999,52,0.0862068333333319,74,0.08620683333333368
27569,10.267825333333333,45,0.08620683333333368,67,0.08620683333333368
27570,10.354032166666666,49,0.08620683333333368,65,0.08620683333333368
27571,10.440239,40,0.08620683333333368,74,0.09698268750000061
27572,10.526445833333334,52,0.08620683333333368,71,0.08620683333333368
27573,10.612652666666667,47,0.08620683333333368,67,0.08620683333333368
27574,10.698859500000001,52,0.08620683333333368,75,0.09698268749999883
27575,10.785066333333333,47,0.0862068333333319,70,0.08620683333333368
27576,10.871273166666667,59,0.08620683333333368,65,0.08620683333333368
27577,10.95748,47,0.08620683333333368,72,0.09698268749999883
27578,11.043686833333334,59,0.08620683333333368,70,0.08620683333333368
27579,11.129893666666668,54,0.08620683333333368,67,0.0862068333333319
27580,11.2161005,59,0.0862068333333319,78,0.09698268750000061
27581,11.302307333333333,54,0.08620683333333368,74,0.08620683333333368
27582,11.388514166666667,66,0.08620683333333368,72,0.08620683333333368
27583,11.474721,54,0.08620683333333368,82,0.780399000000001
27584,11.560927833333334,66,0.08620683333333368,78,0.0862068333333319
27585,11.647134666666666,59,0.0862068333333319,78,0.08620683333333368
27586,11.7333415,66,0.08620683333333368,80,0.25862050000000103
27587,11.819548333333334,59,0.08620683333333368,77,0.08620683333333368
27588,11.905755166666667,71,0.08620683333333368,73,0.08620683333333368
27589,11.991962000000001,59,0.08620683333333368,88,0.26315800000000067
27590,12.079681333333335,71,0.08771933333333415,81,0.08771933333333237
27591,12.167400666666667,64,0.08771933333333237,73,0.08771933333333415
27592,12.255120000000002,71,0.08771933333333415,92,0.08771933333333237
27593,12.342839333333334,64,0.08771933333333237,83,0.08771933333333415
27594,12.430558666666668,76,0.08771933333333415,83,0.08771933333333237
27595,12.518278,69,0.08771933333333237,98,0.09698268750000061
27596,12.604484833333334,73,0.08620683333333368,74,0.08620683333333368
27597,12.690691666666668,64,0.08620683333333368,70,0.0862068333333319
27598,12.7768985,69,0.0862068333333319,93,0.09698268750000061
27599,12.863105333333333,66,0.08620683333333368,72,0.08620683333333368
27600,12.949312166666667,69,0.08620683333333368,73,0.08620683333333368
27601,13.035519,64,0.08620683333333368,96,0.09698268749999883
27602,13.121725833333334,69,0.08620683333333368,75,0.08620683333333368
27603,13.207932666666668,61,0.08620683333333368,68,0.0862068333333319
27604,13.2941395,64,0.0862068333333319,84,0.08620683333333368
27605,13.380346333333334,57,0.08620683333333368,69,0.08620683333333368
27606,13.466553166666667,61,0.08620683333333368,64,0.08620683333333368
27607,13.552760000000001,57,0.08620683333333368,74,0.09698268749999883
27608,13.638966833333335,61,0.08620683333333368,68,0.0862068333333319
27609,13.725173666666667,52,0.0862068333333319,62,0.08620683333333368
27610,13.8113805,57,0.08620683333333368,71,0.09698268750000061
27611,13.897587333333334,54,0.08620683333333368,65,0.08620683333333368
27612,13.983794166666668,57,0.08620683333333368,67,0.08620683333333368
27613,14.070001000000001,52,0.08620683333333368,74,0.09698268749999883
27614,14.156207833333333,57,0.0862068333333319,65,0.08620683333333368
27615,14.242414666666667,49,0.08620683333333368,59,0.08620683333333368
27616,14.3286215,52,0.08620683333333368,74,0.08620683333333368
27617,14.414828333333334,45,0.08620683333333368,65,0.08620683333333368
27618,14.501035166666668,49,0.08620683333333368,59,0.0862068333333319
27619,14.587242,42,0.0862068333333319,77,0.12931024999999963
27620,14.673448833333333,54,0.08620683333333368,74,0.08620683333333368
27621,14.759655666666667,47,0.08620683333333368,67,0.08620683333333368
27622,14.8458625,54,0.08620683333333368,77,0.5172410000000003
27623,14.932069333333335,47,0.08620683333333368,67,0.0862068333333319
27624,15.018276166666666,59,0.0862068333333319,70,0.08620683333333368
27625,15.104483,54,0.08620683333333368,75,0.08620683333333368
27626,15.190689833333334,59,0.08620683333333368,71,0.08620683333333368
27627,15.276896666666667,54,0.08620683333333368,67,0.08620683333333368
27628,15.363103500000001,66,0.08620683333333368,82,0.13333324999999974
27629,15.451992333333335,59,0.08888883333333375,79,0.08888883333333375
27630,15.540881166666669,71,0.08888883333333375,74,0.08888883333333197
27631,15.62977,54,0.08888883333333197,85,0.13333324999999974
27632,15.718658833333334,66,0.08888883333333375,74,0.08888883333333375
27633,15.807547666666668,59,0.08888883333333375,71,0.08888883333333375
27634,15.896436500000002,66,0.08888883333333375,88,0.13333324999999796
27635,15.985325333333334,52,0.08888883333333197,76,0.08888883333333375
27636,16.074214166666668,64,0.08888883333333375,72,0.08888883333333197
27637,16.163103,59,0.08888883333333197,81,0.09259266666666832
27638,16.255695666666668,64,0.09259266666666832,73,0.09259266666666477
27639,16.348288333333333,59,0.09259266666666477,67,0.09259266666666832
27640,16.440881,71,0.09259266666666832,70,0.09259266666666477
27641,16.533473666666666,64,0.09259266666666477,66,0.09259266666666832
27642,16.626066333333334,76,0.09259266666666832,64,0.09259266666666477
27643,16.718659,71,0.09259266666666477,72,0.26431699999999836
27644,16.806764666666666,73,0.0881056666666673,67,0.0881056666666673
27645,16.894870333333333,71,0.0881056666666673,61,0.08810566666666375
27646,16.982975999999997,66,0.08810566666666375,72,0.2620085000000003
27647,17.070312166666664,78,0.08733616666666677,67,0.08733616666666677
27648,17.15764833333333,66,0.08733616666666677,58,0.08733616666666677
27649,17.244984499999997,64,0.08733616666666677,78,0.2564105000000012
27650,17.330454666666665,66,0.08547016666666707,74,0.08547016666666707
27651,17.41592483333333,64,0.08547016666666707,68,0.08547016666666707
27652,17.501395,59,0.08547016666666707,75,0.25862049999999925
27653,17.58760183333333,71,0.0862068333333319,71,0.08620683333333545
27654,17.673808666666666,59,0.08620683333333545,66,0.0862068333333319
27655,17.760015499999998,59,0.0862068333333319,72,0.26431699999999836
27656,17.848121166666665,61,0.0881056666666673,67,0.0881056666666673
27657,17.936226833333333,59,0.0881056666666673,65,0.08810566666666375
27658,18.024332499999996,54,0.08810566666666375,72,0.2553190000000001
27659,18.10943883333333,66,0.08510633333333217,67,0.08510633333333573
27660,18.194545166666664,54,0.08510633333333573,67,0.08510633333333217
27661,18.279651499999996,52,0.08510633333333217,75,0.25862049999999925
27662,18.36585833333333,54,0.0862068333333319,68,0.08620683333333545
27663,18.452065166666664,52,0.08620683333333545,67,0.0862068333333319
27664,18.538271999999996,47,0.0862068333333319,72,0.3448273333333347
27665,18.796892499999995,27,0.25862049999999925,62,0.12931025000000318
27666,18.88309933333333,54,0.08620683333333545,70,0.0862068333333319
27667,18.969306166666662,59,0.0862068333333319,67,0.08620683333333545
27668,19.055512999999998,61,0.08620683333333545,74,0.13215849999999918
27669,19.143618666666665,59,0.0881056666666673,70,0.0881056666666673
27670,19.231724333333332,54,0.0881056666666673,67,0.08810566666666375
27671,19.319829999999996,52,0.08810566666666375,71,0.1282052500000006
27672,19.405300166666663,59,0.08547016666666707,73,0.08547016666666707
27673,19.49077033333333,64,0.08547016666666707,72,0.08547016666666707
27674,19.576240499999997,66,0.08547016666666707,74,0.1282052500000006
27675,19.661710666666664,64,0.08547016666666707,69,0.08547016666666352
27676,19.747180833333328,61,0.08547016666666352,67,0.08547016666666707
27677,19.832650999999995,59,0.08547016666666707,72,0.1282052500000006
27678,19.918121166666662,66,0.08547016666666707,69,0.08547016666666707
27679,20.00359133333333,71,0.08547016666666707,67,0.08547016666666707
27680,20.089061499999996,73,0.08547016666666707,72,0.1282052500000006
27681,20.174531666666663,71,0.08547016666666707,64,0.08547016666666707
27682,20.26000183333333,66,0.08547016666666707,59,0.08547016666666707
27683,20.345471999999997,64,0.08547016666666707,77,0.12820524999999705
27684,20.430942166666664,71,0.08547016666666707,73,0.08547016666666352
27685,20.516412333333328,76,0.08547016666666352,68,0.08547016666666707
27686,20.601882499999995,78,0.08547016666666707,72,0.1282052500000006
27687,20.687352666666662,76,0.08547016666666707,68,0.08547016666666707
27688,20.77282283333333,73,0.08547016666666707,68,0.08547016666666707
27689,20.858292999999996,71,0.08547016666666707,72,0.26315800000000067
27690,20.94601233333333,73,0.08771933333333237,69,0.08771933333333592
27691,21.033731666666664,71,0.08771933333333592,63,0.08771933333333237
27692,21.121450999999997,66,0.08771933333333237,72,0.26315800000000067
27693,21.20917033333333,78,0.08771933333333237,67,0.08771933333333237
27694,21.29688966666666,66,0.08771933333333237,72,0.08771933333333592
27695,21.384608999999998,64,0.08771933333333592,81,0.25862049999999925
27696,21.47081583333333,66,0.0862068333333319,73,0.08620683333333545
27697,21.557022666666665,64,0.08620683333333545,67,0.0862068333333319
27698,21.643229499999997,59,0.0862068333333319,77,0.25862049999999925
27699,21.729436333333332,71,0.08620683333333545,75,0.0862068333333319
27700,21.815643166666664,59,0.0862068333333319,67,0.0862068333333319
27701,21.901849999999996,59,0.0862068333333319,79,0.2586205000000028
27702,21.98805683333333,61,0.08620683333333545,70,0.0862068333333319
27703,22.074263666666663,59,0.0862068333333319,65,0.08620683333333545
27704,22.1604705,54,0.08620683333333545,73,0.25862049999999925
27705,22.24667733333333,66,0.0862068333333319,68,0.0862068333333319
27706,22.332884166666663,54,0.0862068333333319,65,0.08620683333333545
27707,22.419090999999998,52,0.08620683333333545,75,0.25862049999999925
27708,22.50529783333333,54,0.0862068333333319,69,0.08620683333333545
27709,22.591504666666665,52,0.08620683333333545,63,0.0862068333333319
27710,22.677711499999997,47,0.0862068333333319,75,0.3551931666666661
27711,22.945568499999997,27,0.26785699999999935,68,0.13100425000000016
27712,23.032904666666663,59,0.08733616666666677,67,0.08733616666666677
27713,23.12024083333333,57,0.08733616666666677,64,0.08733616666666677
27714,23.207576999999997,59,0.08733616666666677,75,0.13100425000000016
27715,23.214127212499996,35,0.006550212499998764,52,0.13100425000000016
27716,23.294913166666664,57,0.080785954166668,68,0.08733616666666677
27717,23.38224933333333,59,0.08733616666666677,65,0.08733616666666677
27718,23.469585499999997,69,0.08733616666666677,82,0.0862068333333319
27719,23.55579233333333,59,0.0862068333333319,71,0.08620683333333545
27720,23.641999166666665,57,0.08620683333333545,65,0.0862068333333319
27721,23.728205999999997,59,0.0862068333333319,74,0.25862049999999925
27722,23.814412833333332,57,0.08620683333333545,67,0.0862068333333319
27723,23.900619666666664,59,0.0862068333333319,64,0.0862068333333319
27724,23.986826499999996,27,0.0862068333333319,72,0.13215849999999918
27725,24.074932166666663,59,0.0881056666666673,68,0.0881056666666673
27726,24.16303783333333,57,0.0881056666666673,63,0.08810566666666375
27727,24.251143499999994,59,0.08810566666666375,71,0.12987024999999974
27728,24.337723666666662,57,0.08658016666666768,65,0.08658016666666413
27729,24.424303833333326,59,0.08658016666666413,62,0.08658016666666768
27730,24.510883999999994,69,0.08658016666666768,81,0.08658016666666768
27731,24.59746416666666,59,0.08658016666666768,67,0.08658016666666768
27732,24.68404433333333,57,0.08658016666666768,63,0.08658016666666413
27733,24.770624499999993,27,0.08658016666666413,70,0.2666664999999995
27734,24.859513333333325,57,0.08888883333333197,67,0.08888883333333553
27735,24.94840216666666,59,0.08888883333333553,64,0.08888883333333197
27736,25.037290999999993,28,0.08888883333333197,77,0.13333324999999974
27737,25.126179833333328,61,0.08888883333333553,74,0.08888883333333197
27738,25.21506866666666,57,0.08888883333333197,66,0.08888883333333197
27739,25.303957499999992,61,0.08888883333333197,74,0.2620085000000003
27740,25.39129366666666,57,0.08733616666666677,70,0.08733616666666677
27741,25.478629833333326,61,0.08733616666666677,66,0.08733616666666677
27742,25.565965999999992,69,0.08733616666666677,83,0.2620085000000003
27743,25.65330216666666,61,0.08733616666666677,71,0.08733616666666677
27744,25.740638333333326,57,0.08733616666666677,68,0.08733616666666677
27745,25.827974499999993,61,0.08733616666666677,77,0.2620085000000003
27746,25.91531066666666,57,0.08733616666666677,72,0.08733616666666677
27747,26.002646833333326,61,0.08733616666666677,67,0.08733616666666677
27748,26.089982999999993,29,0.08733616666666677,81,0.2620085000000003
27749,26.17731916666666,61,0.08733616666666677,75,0.08733616666666677
27750,26.264655333333327,57,0.08733616666666677,72,0.08733616666666677
27751,26.351991499999993,61,0.08733616666666677,78,0.2620085000000003
27752,26.43932766666666,57,0.08733616666666677,72,0.08733616666666677
27753,26.526663833333327,61,0.08733616666666677,67,0.08733616666666677
27754,26.613999999999994,69,0.08733616666666677,85,0.26200849999999676
27755,26.70133616666666,61,0.08733616666666677,74,0.08733616666666677
27756,26.788672333333327,57,0.08733616666666677,71,0.08733616666666322
27757,26.87600849999999,61,0.08733616666666322,80,0.2620085000000003
27758,26.963344666666657,57,0.08733616666666677,77,0.08733616666666677
27759,27.050680833333324,61,0.08733616666666677,74,0.08733616666666677
27760,27.13801699999999,30,0.08733616666666677,82,0.2654865000000015
27761,27.22651249999999,61,0.0884955000000005,77,0.0884955000000005
27762,27.31500799999999,57,0.0884955000000005,78,0.0884955000000005
27763,27.403503499999992,73,0.0884955000000005,87,0.5274949999999983
27764,27.49199899999999,61,0.08849549999999695,76,0.0884955000000005
27765,27.58049449999999,57,0.0884955000000005,70,0.0884955000000005
27766,27.66898999999999,71,0.0884955000000005,89,0.08733616666666677
27767,27.756326166666657,61,0.08733616666666677,70,0.08733616666666677
27768,27.843662333333324,57,0.08733616666666677,73,0.08733616666666677
27769,27.93099849999999,69,0.08733616666666677,89,0.2620085000000003
27770,28.018334666666657,61,0.08733616666666677,78,0.08733616666666677
27771,28.105670833333324,57,0.08733616666666677,73,0.08733616666666677
27772,28.19300699999999,31,0.08733616666666677,88,0.2620085000000003
27773,28.280343166666658,61,0.08733616666666677,73,0.08733616666666677
27774,28.367679333333324,57,0.08733616666666677,76,0.08733616666666677
27775,28.45501549999999,73,0.08733616666666677,90,0.5240170000000006
27776,28.542351666666658,61,0.08733616666666677,76,0.08733616666666677
27777,28.629687833333325,57,0.08733616666666677,79,0.08733616666666677
27778,28.71702399999999,71,0.08733616666666677,94,0.08733616666666677
27779,28.804360166666658,61,0.08733616666666677,77,0.08733616666666677
27780,28.891696333333325,57,0.08733616666666677,76,0.08733616666666677
27781,28.97903249999999,69,0.08733616666666677,95,0.26200849999999676
27782,29.06636866666666,61,0.08733616666666677,76,0.08733616666666677
27783,29.153704833333325,57,0.08733616666666677,79,0.08733616666666322
27784,29.24104099999999,32,0.08733616666666322,91,0.1310042500000037
27785,29.328377166666655,64,0.08733616666666677,78,0.08733616666666677
27786,29.415713333333322,61,0.08733616666666677,75,0.08733616666666677
27787,29.50304949999999,44,0.08733616666666677,88,0.2620085000000003
27788,29.590385666666656,64,0.08733616666666677,75,0.08733616666666677
27789,29.677721833333322,76,0.08733616666666677,80,0.08733616666666677
27790,29.76505799999999,73,0.08733616666666677,94,0.2620085000000003
27791,29.852394166666656,76,0.08733616666666677,77,0.08733616666666677
27792,29.939730333333323,64,0.08733616666666677,76,0.08733616666666677
27793,30.02706649999999,32,0.08733616666666677,90,0.2620085000000003
27794,30.114402666666656,61,0.08733616666666677,77,0.08733616666666677
27795,30.201738833333323,64,0.08733616666666677,82,0.08733616666666677
27796,30.28907499999999,33,0.08733616666666677,97,0.13100425000000016
27797,30.376411166666657,64,0.08733616666666677,85,0.08733616666666677
27798,30.463747333333323,61,0.08733616666666677,81,0.08733616666666677
27799,30.55108349999999,43,0.08733616666666677,94,0.13100425000000016
27800,30.638419666666657,64,0.08733616666666677,85,0.08733616666666677
27801,30.725755833333324,76,0.08733616666666677,85,0.08733616666666677
27802,30.81309199999999,73,0.08733616666666677,101,0.2620085000000003
27803,30.900428166666657,76,0.08733616666666677,86,0.08733616666666677
27804,30.987764333333324,64,0.08733616666666677,84,0.08733616666666677
27805,31.07510049999999,64,0.08733616666666677,93,0.2620085000000003
27806,31.162436666666657,61,0.08733616666666677,85,0.08733616666666677
27807,31.249772833333324,64,0.08733616666666677,80,0.08733616666666677
27808,31.33710899999999,34,0.08733616666666677,105,0.2666664999999995
27809,31.425997833333323,64,0.08888883333333197,85,0.08888883333333553
27810,31.51488666666666,61,0.08888883333333553,81,0.08888883333333197
27811,31.60377549999999,43,0.08888883333333197,96,0.2666664999999995
27812,31.692664333333326,64,0.08888883333333553,84,0.08888883333333197
27813,31.781553166666658,76,0.08888883333333197,80,0.08888883333333197
27814,31.87044199999999,35,0.08888883333333197,96,0.2666664999999995
27815,31.959330833333325,76,0.08888883333333553,85,0.08888883333333553
27816,32.04821966666666,64,0.08888883333333553,83,0.08888883333332842
27817,32.13710849999999,44,0.08888883333332842,96,0.2666664999999995
27818,32.225997333333325,59,0.08888883333333553,90,0.08888883333333553
27819,32.31488616666666,64,0.08888883333333553,86,0.08888883333332842
27820,32.40377499999999,36,0.08888883333332842,103,0.2752295000000018
27821,32.495518166666656,64,0.09174316666666726,90,0.09174316666666726
27822,32.58726133333332,57,0.09174316666666726,85,0.09174316666666726
27823,32.67900449999999,45,0.09174316666666726,94,0.2752294999999947
27824,32.77074766666666,52,0.09174316666666726,87,0.09174316666666726
27825,32.862490833333325,52,0.09174316666666726,84,0.09174316666666016
27826,32.954233999999985,45,0.09174316666666016,95,0.09174316666666726
27827,33.04597716666665,52,0.09174316666666726,90,0.09174316666666726
27828,33.13772033333332,40,0.09174316666666726,85,0.09174316666666726
27829,33.22946349999999,24,0.09174316666666726,106,0.2926829999999967
27830,33.327024499999986,33,0.0975609999999989,89,0.0975609999999989
27831,33.424585499999985,40,0.0975609999999989,85,0.0975609999999989
27832,33.522146499999984,23,0.0975609999999989,106,1.061945999999999
27833,33.610641999999984,33,0.0884955000000005,71,0.0884955000000005
27834,33.699137499999985,40,0.0884955000000005,72,0.0884955000000005
27835,33.787632999999985,42,0.0884955000000005,77,0.0884955000000005
27836,33.876128499999986,33,0.0884955000000005,70,0.0884955000000005
27837,33.964623999999986,40,0.0884955000000005,72,0.0884955000000005
27838,34.05311949999999,42,0.0884955000000005,81,0.0884955000000005
27839,34.14161499999999,45,0.0884955000000005,78,0.0884954999999934
27840,34.23011049999998,40,0.0884954999999934,75,0.0884955000000005
27841,34.31860599999998,42,0.0884955000000005,83,0.0884955000000005
27842,34.40710149999998,45,0.0884955000000005,77,0.0884955000000005
27843,34.49559699999998,52,0.0884955000000005,73,0.0884955000000005
27844,34.58409249999998,42,0.0884955000000005,87,0.0884955000000005
27845,34.67258799999998,45,0.0884955000000005,80,0.0884955000000005
27846,34.761083499999984,52,0.0884955000000005,77,0.0884955000000005
27847,34.849578999999984,54,0.0884955000000005,89,0.0884955000000005
27848,34.938074499999985,45,0.0884955000000005,78,0.0884955000000005
27849,35.026569999999985,52,0.0884955000000005,75,0.0884955000000005
27850,35.115065499999986,45,0.0884955000000005,100,0.41284424999999914
27851,35.20680866666665,57,0.09174316666666726,78,0.09174316666666726
27852,35.29855183333332,52,0.09174316666666726,76,0.09174316666666726
27853,35.39029499999999,54,0.09174316666666726,89,0.09174316666666726
27854,35.482038166666655,64,0.09174316666666726,78,0.09174316666666726
27855,35.527909749999985,45,0.04587158333333008,92,0.13761475000000445
27856,35.57378133333332,57,0.045871583333337185,75,0.09174316666666726
27857,35.66552449999999,45,0.09174316666666726,100,1.061945999999999
27858,35.75401999999999,57,0.0884955000000005,81,0.0884955000000005
27859,35.84251549999999,66,0.0884955000000005,86,0.0884955000000005
27860,35.93101099999999,64,0.0884955000000005,85,0.0884955000000005
27861,36.01950649999999,57,0.0884955000000005,78,0.0884955000000005
27862,36.10800199999999,54,0.0884955000000005,84,0.0884955000000005
27863,36.19649749999999,64,0.0884955000000005,81,0.0884954999999934
27864,36.284992999999986,57,0.0884954999999934,76,0.0884955000000005
27865,36.373488499999986,54,0.0884955000000005,71,0.0884955000000005
27866,36.46198399999999,52,0.0884955000000005,78,0.0884955000000005
27867,36.55047949999999,57,0.0884955000000005,71,0.0884955000000005
27868,36.63897499999999,54,0.0884955000000005,75,0.0884955000000005
27869,36.72747049999999,52,0.0884955000000005,74,0.0884955000000005
27870,36.81596599999999,45,0.0884955000000005,69,0.0884955000000005
27871,36.90446149999999,54,0.0884955000000005,72,0.0884955000000005
27872,36.99295699999999,52,0.0884955000000005,71,0.0884955000000005
27873,37.08145249999999,45,0.0884955000000005,66,0.0884955000000005
27874,37.16994799999999,42,0.0884955000000005,69,0.0884955000000005
27875,37.25844349999999,52,0.0884955000000005,67,0.09174316666666726
27876,37.35018666666666,45,0.09174316666666726,61,0.09174316666666726
27877,37.441929833333326,42,0.09174316666666726,65,0.09174316666666726
27878,37.53367299999999,40,0.09174316666666726,64,0.09174316666666726
27879,37.62541616666666,45,0.09174316666666726,59,0.09174316666666726
27880,37.71715933333333,42,0.09174316666666726,62,0.09174316666666016
27881,37.80890249999999,23,0.09174316666666016,62,1.061945999999999
27882,37.89739799999999,42,0.0884955000000005,54,0.0884955000000005
27883,37.98589349999999,45,0.0884955000000005,54,0.0884955000000005
27884,38.07438899999999,47,0.0884955000000005,56,0.0884955000000005
27885,38.16288449999999,42,0.0884955000000005,56,0.0884955000000005
27886,38.25137999999999,45,0.0884955000000005,54,0.0884955000000005
27887,38.33987549999999,47,0.0884955000000005,58,0.0884954999999934
27888,38.428370999999984,54,0.0884954999999934,58,0.0884955000000005
27889,38.516866499999985,45,0.0884955000000005,56,0.0884955000000005
27890,38.605361999999985,47,0.0884955000000005,60,0.0884955000000005
27891,38.693857499999986,54,0.0884955000000005,60,0.0884955000000005
27892,38.782352999999986,57,0.0884955000000005,58,0.0884955000000005
27893,38.87084849999999,47,0.0884955000000005,62,0.0884955000000005
27894,38.95934399999999,54,0.0884955000000005,58,0.0884955000000005
27895,39.04783949999999,57,0.0884955000000005,62,0.0884955000000005
27896,39.13633499999999,59,0.0884955000000005,62,0.0884955000000005
27897,39.22483049999999,54,0.0884955000000005,54,0.0884955000000005
27898,39.31332599999999,57,0.0884955000000005,58,0.0884955000000005
27899,39.40182149999999,59,0.0884955000000005,62,0.3982297499999987
27900,39.49031699999999,66,0.0884955000000005,65,0.0884955000000005
27901,39.57881249999999,57,0.0884955000000005,60,0.0884955000000005
27902,39.66730799999999,59,0.0884955000000005,62,0.0884954999999934
27903,39.755803499999985,69,0.0884954999999934,58,0.0884955000000005
27904,39.80005124999999,47,0.044247750000003805,57,0.1327432499999972
27905,39.844298999999985,66,0.0442477499999967,59,0.0884955000000005
27906,39.932794499999986,47,0.0884955000000005,62,1.061945999999999
27907,40.021289999999986,57,0.0884955000000005,59,0.0884955000000005
27908,40.10978549999999,66,0.0884955000000005,58,0.0884955000000005
27909,40.19828099999999,59,0.0884955000000005,58,0.0884955000000005
27910,40.28677649999999,57,0.0884955000000005,57,0.0884955000000005
27911,40.37527199999999,54,0.0884955000000005,56,0.0884955000000005
27912,40.46376749999999,59,0.0884955000000005,56,0.0884955000000005
27913,40.55226299999999,57,0.0884955000000005,56,0.0884955000000005
27914,40.64075849999999,54,0.0884955000000005,54,0.0884955000000005
27915,40.72925399999999,47,0.0884955000000005,54,0.0884955000000005
27916,40.81774949999999,57,0.0884955000000005,52,0.0884954999999934
27917,40.906244999999984,54,0.0884954999999934,52,0.0884955000000005
27918,40.994740499999985,47,0.0884955000000005,52,0.08810566666666375
27919,41.08284616666665,45,0.08810566666666375,51,0.08830058333333568
27920,41.171146749999984,54,0.08830058333333568,51,0.0884955000000005
27921,41.259642249999985,47,0.0884955000000005,50,0.08888883333333553
27922,41.34853108333332,45,0.08888883333333553,49,0.08908724999999862
27923,41.43761833333332,42,0.08908724999999862,49,0.08928566666666882
27924,41.52690399999999,47,0.08928566666666882,48,0.08968616666666662
27925,41.616590166666654,45,0.08968616666666662,48,0.09029391666666697
27926,41.70688408333332,42,0.09029391666666697,48,0.09111666666666451
27927,41.798000749999986,35,0.09111666666666451,46,0.0915336666666633
27928,41.88953441666665,45,0.0915336666666633,46,0.09237925000000047
27929,41.98191366666665,42,0.09237925000000047,44,0.09302333333333479
27930,42.074936999999984,40,0.09302333333333479,65,0.14550400000000252
27931,42.17193966666665,52,0.09700266666666835,59,0.09700266666666835
27932,42.26894233333332,47,0.09700266666666835,55,0.09700266666666124
27933,42.36594499999998,52,0.09700266666666124,65,0.09700266666666835
27934,42.46294766666665,44,0.09700266666666835,59,0.09700266666666835
27935,42.55995033333332,59,0.09700266666666835,58,0.09700266666666835
27936,42.65695299999999,52,0.09700266666666835,70,1.0600700000000032
27937,42.74529216666665,59,0.08833916666666397,66,0.08833916666667108
27938,42.83363133333332,47,0.08833916666667108,66,0.08833916666666397
27939,42.921970499999986,52,0.08833916666666397,70,0.08833916666667108
27940,43.01030966666666,47,0.08833916666667108,66,0.08833916666666397
27941,43.09864883333332,52,0.08833916666666397,62,0.08833916666666397
27942,43.186987999999985,40,0.08833916666666397,65,0.08833916666667108
27943,43.275327166666656,52,0.08833916666667108,63,0.08833916666666397
27944,43.36366633333332,47,0.08833916666666397,58,0.08833916666666397
27945,43.452005499999984,52,0.08833916666666397,65,0.08833916666667108
27946,43.540344666666655,47,0.08833916666667108,63,0.08833916666666397
27947,43.62868383333332,59,0.08833916666666397,57,0.08833916666667108
27948,43.71702299999999,52,0.08833916666667108,65,0.4047855000000027
27949,43.80697533333333,59,0.0899523333333363,59,0.08995233333332919
27950,43.896927666666656,47,0.08995233333332919,55,0.0899523333333363
27951,43.98687999999999,52,0.0899523333333363,65,0.08995233333332919
27952,44.07683233333332,47,0.08995233333332919,63,0.0899523333333363
27953,44.12180849999999,44,0.0449761666666717,63,0.1349284999999938
27954,44.16678466666666,52,0.044976166666664597,58,0.08995233333332919
27955,44.25673699999999,40,0.08995233333332919,65,0.13935349999999858
27956,44.34963933333332,52,0.09290233333333475,58,0.09290233333333475
27957,44.442541666666656,47,0.09290233333333475,56,0.09290233333332765
27958,44.535443999999984,52,0.09290233333332765,65,0.09290233333333475
27959,44.62834633333332,52,0.09290233333333475,58,0.09290233333333475
27960,44.72124866666665,64,0.09290233333333475,55,0.09290233333333475
27961,44.81415099999999,44,0.09290233333333475,72,1.0600700000000032
27962,44.90249016666665,64,0.08833916666666397,64,0.08833916666667108
27963,44.99082933333332,52,0.08833916666667108,62,0.08833916666666397
27964,45.07916849999999,52,0.08833916666666397,71,0.08833916666667108
27965,45.16750766666666,47,0.08833916666667108,67,0.08833916666666397
27966,45.25584683333332,52,0.08833916666666397,62,0.08833916666666397
27967,45.344185999999986,47,0.08833916666666397,65,0.08833916666667108
27968,45.43252516666666,59,0.08833916666667108,59,0.08833916666666397
27969,45.52086433333332,52,0.08833916666666397,54,0.08833916666666397
27970,45.609203499999985,59,0.08833916666666397,65,0.08833916666667108
27971,45.697542666666656,59,0.08833916666667108,58,0.08833916666666397
27972,45.78588183333332,71,0.08833916666666397,59,0.08833916666667108
27973,45.87422099999999,43,0.08833916666667108,75,0.4066139999999976
27974,45.96457966666666,71,0.09035866666666692,57,0.09035866666666692
27975,46.054938333333325,59,0.09035866666666692,60,0.09035866666666692
27976,46.14529699999999,59,0.09035866666666692,65,0.09035866666666692
27977,46.23565566666666,52,0.09035866666666692,63,0.09035866666666692
27978,46.28083499999999,44,0.04517933333332991,69,0.13553800000000393
27979,46.326014333333326,59,0.04517933333333701,56,0.09035866666666692
27980,46.41637299999999,32,0.09035866666666692,77,0.13824875000000247
27981,46.508538833333326,54,0.09216583333333261,62,0.09216583333333261
27982,46.60070466666666,52,0.09216583333333261,57,0.09216583333333261
27983,46.69287049999999,66,0.09216583333333261,64,0.2654865000000015
27984,46.78136599999999,64,0.0884955000000005,61,0.0884955000000005
27985,46.86986149999999,78,0.0884955000000005,61,0.0884955000000005
27986,46.95835699999999,76,0.0884955000000005,73,0.27149299999999954
27987,47.04885466666666,78,0.09049766666666414,65,0.09049766666667125
27988,47.13935233333333,76,0.09049766666667125,66,0.09049766666666414
27989,47.22984999999999,64,0.09049766666666414,80,0.28406400000000076
27990,47.32453799999999,66,0.09468799999999788,75,0.09468800000000499
27991,47.419225999999995,64,0.09468800000000499,70,0.09468799999999788
27992,47.51391399999999,47,0.09468799999999788,84,0.5497020000000035
27993,47.60553099999999,54,0.0916169999999994,77,0.0916169999999994
27994,47.69714799999999,52,0.0916169999999994,73,0.0916169999999994
27995,47.78876499999999,66,0.0916169999999994,78,0.0916169999999994
27996,47.88038199999999,64,0.0916169999999994,70,0.0916169999999994
27997,47.97199899999999,78,0.0916169999999994,74,0.0916170000000065
27998,48.063615999999996,46,0.0916170000000065,77,0.2698570000000018
27999,48.15356833333333,78,0.0899523333333363,70,0.08995233333332919
28000,48.24352066666666,76,0.08995233333332919,66,0.0899523333333363
28001,48.333473,45,0.0899523333333363,72,0.2748509999999982
28002,48.42509,66,0.0916169999999994,67,0.0916169999999994
28003,48.516707,64,0.0916169999999994,66,0.0916169999999994
28004,48.608323999999996,44,0.0916169999999994,69,0.1400167500000009
28005,48.7016685,78,0.09334450000000061,65,0.09334450000000061
28006,48.795013,76,0.09334450000000061,62,0.09334450000000061
28007,48.8883575,64,0.09334450000000061,66,0.13678649999999948
28008,48.9795485,66,0.09119100000000202,69,0.09119099999999492
28009,49.070739499999995,64,0.09119099999999492,65,0.09119100000000202
28010,49.1619305,76,0.09119100000000202,71,0.5671150000000011
28011,49.255275,78,0.09334450000000061,68,0.09334450000000061
28012,49.3486195,76,0.09334450000000061,72,0.09334450000000061
28013,49.441964,64,0.09334450000000061,75,0.2870814999999993
28014,49.537657833333334,66,0.09569383333333548,72,0.09569383333332837
28015,49.63335166666666,64,0.09569383333332837,68,0.09569383333333548
28016,49.7290455,76,0.09569383333333548,79,1.1726845687500003
28017,49.825106999999996,78,0.09606149999999758,75,0.09606150000000468
28018,49.9211685,76,0.09606150000000468,70,0.09606149999999758
28019,50.01723,64,0.09606149999999758,74,0.09606149999999758
28020,50.113291499999995,66,0.09606149999999758,69,0.09606150000000468
28021,50.209353,64,0.09606150000000468,68,0.09606149999999758
28022,50.3054145,49,0.09606149999999758,72,0.28818449999999984
28023,50.401475999999995,78,0.09606149999999758,67,0.09606150000000468
28024,50.4975375,76,0.09606150000000468,64,0.09606149999999758
28025,50.593599,47,0.09606149999999758,71,0.30813106875000074
28026,50.6961315,66,0.10253250000000236,66,0.10253249999999525
28027,50.798663999999995,64,0.10253249999999525,65,0.10306606875000313
28028,50.90285114583333,69,0.1041871458333361,96,0.1008969375000035
28029,50.991416235416665,73,0.08856508958333364,70,0.08968616666666662
28030,51.08110240208333,64,0.08968616666666662,70,0.08968616666666662
28031,51.17078856875,69,0.08968616666666662,92,0.09698268750000238
28032,51.256995402083334,66,0.08620683333333545,74,0.08620683333332835
28033,51.34320223541666,69,0.08620683333332835,70,0.08620683333333545
28034,51.42940906875,64,0.08620683333333545,97,0.09698268750000238
28035,51.51561590208333,69,0.08620683333333545,74,0.08620683333333545
28036,51.60182273541667,61,0.08620683333333545,71,0.08620683333332835
28037,51.68802956875,64,0.08620683333332835,84,0.08620683333333545
28038,51.77423640208333,57,0.08620683333333545,73,0.08620683333333545
28039,51.86044323541667,61,0.08620683333333545,70,0.08620683333332835
28040,51.946650068749996,57,0.08620683333332835,74,0.09698268750000238
28041,52.03285690208333,61,0.08620683333333545,69,0.08620683333333545
28042,52.11906373541667,52,0.08620683333333545,66,0.08620683333332835
28043,52.205270568749995,57,0.08620683333332835,69,0.09698268750000238
28044,52.29147740208333,54,0.08620683333333545,66,0.08620683333333545
28045,52.377684235416666,57,0.08620683333333545,63,0.08620683333333545
28046,52.46389106875,52,0.08620683333333545,74,0.09698268749999528
28047,52.55009790208333,57,0.08620683333332835,68,0.08620683333333545
28048,52.636304735416665,49,0.08620683333333545,63,0.08620683333333545
28049,52.72251156875,52,0.08620683333333545,74,0.08620683333332835
28050,52.80871840208333,45,0.08620683333332835,64,0.08620683333333545
28051,52.894925235416665,49,0.08620683333333545,61,0.08620683333333545
28052,52.98113206875,40,0.08620683333333545,74,0.09698268749999528
28053,53.06733890208333,52,0.08620683333332835,72,0.08620683333333545
28054,53.153545735416664,47,0.08620683333333545,67,0.08620683333333545
28055,53.23975256875,52,0.08620683333333545,75,0.09698268749999528
28056,53.325959402083335,47,0.08620683333333545,66,0.08620683333332835
28057,53.41216623541666,59,0.08620683333332835,67,0.08620683333333545
28058,53.49837306875,47,0.08620683333333545,72,0.09698268750000238
28059,53.584579902083334,59,0.08620683333333545,73,0.08620683333332835
28060,53.67078673541666,54,0.08620683333332835,71,0.08620683333333545
28061,53.75699356875,59,0.08620683333333545,78,0.09698268750000238
28062,53.84320040208333,54,0.08620683333333545,76,0.08620683333332835
28063,53.92940723541666,66,0.08620683333332835,72,0.08620683333333545
28064,54.01561406875,54,0.08620683333333545,82,0.7827275
28065,54.10182090208333,66,0.08620683333333545,77,0.08620683333333545
28066,54.18802773541667,59,0.08620683333333545,72,0.08620683333332835
28067,54.274234568749996,66,0.08620683333332835,86,0.25862049999999925
28068,54.36044140208333,59,0.08620683333333545,74,0.08620683333333545
28069,54.44664823541667,71,0.08620683333333545,75,0.08620683333332835
28070,54.532855068749996,59,0.08620683333332835,88,0.2654865000000015
28071,54.621350568749996,71,0.0884955000000005,81,0.0884955000000005
28072,54.70984606875,64,0.0884955000000005,77,0.0884955000000005
28073,54.79834156875,71,0.0884955000000005,89,0.0884955000000005
28074,54.88683706875,64,0.0884955000000005,85,0.0884955000000005
28075,54.97533256875,76,0.0884955000000005,83,0.0884955000000005
28076,55.06382806875,69,0.0884955000000005,97,0.09698268750000238
28077,55.150034902083334,73,0.08620683333333545,74,0.08620683333332835
28078,55.23624173541666,64,0.08620683333332835,71,0.08620683333333545
28079,55.32244856875,69,0.08620683333333545,94,0.09698268750000238
28080,55.40865540208333,66,0.08620683333333545,75,0.08620683333333545
28081,55.49486223541667,69,0.08620683333333545,73,0.08620683333332835
28082,55.58106906875,64,0.08620683333332835,95,0.09698268750000238
28083,55.66727590208333,69,0.08620683333333545,76,0.08620683333333545
28084,55.75348273541667,61,0.08620683333333545,73,0.08620683333332835
28085,55.839689568749996,64,0.08620683333332835,86,0.08620683333333545
28086,55.92589640208333,57,0.08620683333333545,77,0.08620683333333545
28087,56.01210323541667,61,0.08620683333333545,73,0.08620683333332835
28088,56.098310068749996,57,0.08620683333332835,74,0.09698268750000238
28089,56.18451690208333,61,0.08620683333333545,66,0.08620683333333545
28090,56.27072373541667,52,0.08620683333333545,64,0.08620683333333545
28091,56.35693056875,57,0.08620683333333545,70,0.09698268749999528
28092,56.44313740208333,54,0.08620683333332835,67,0.08620683333333545
28093,56.529344235416666,57,0.08620683333333545,67,0.08620683333333545
28094,56.61555106875,52,0.08620683333333545,74,0.09698268749999528
28095,56.70175790208333,57,0.08620683333332835,62,0.08620683333333545
28096,56.787964735416665,49,0.08620683333333545,55,0.08620683333333545
28097,56.87417156875,52,0.08620683333333545,74,0.08620683333332835
28098,56.96037840208333,45,0.08620683333332835,64,0.08620683333333545
28099,57.046585235416664,49,0.08620683333333545,60,0.08620683333333545
28100,57.13279206875,42,0.08620683333333545,74,0.12931024999999607
28101,57.218998902083335,54,0.08620683333333545,71,0.08620683333332835
28102,57.30520573541666,47,0.08620683333332835,67,0.08620683333333545
28103,57.39141256875,54,0.08620683333333545,74,0.25862049999999925
28104,57.477619402083334,47,0.08620683333333545,72,0.08620683333332835
28105,57.56382623541666,59,0.08620683333332835,67,0.08620683333333545
28106,57.65003306875,49,0.08620683333333545,74,0.2654865000000015
28107,57.73852856875,61,0.0884955000000005,85,0.0884955000000005
28108,57.82702406875,49,0.0884955000000005,72,0.0884955000000005
28109,57.91551956875,61,0.0884955000000005,74,0.2654865000000015
28110,58.00401506875,49,0.0884955000000005,70,0.0884955000000005
28111,58.09251056875,61,0.0884955000000005,66,0.0884955000000005
28112,58.18100606875,54,0.0884955000000005,74,0.13761474999999734
28113,58.27274923541667,66,0.09174316666666726,70,0.09174316666666726
28114,58.364492402083336,59,0.09174316666666726,70,0.09174316666666726
28115,58.45623556875,66,0.09174316666666726,71,0.2752294999999947
28116,58.54797873541667,59,0.09174316666666726,69,0.09174316666666726
28117,58.63972190208334,71,0.09174316666666726,69,0.09174316666666016
28118,58.73146506875,41,0.09174316666666016,73,0.2819740833333313
28119,58.82384431875,73,0.09237925000000047,79,0.09389883333333415
28120,58.91774315208333,61,0.09389883333333415,69,0.09569599999999667
28121,59.01343915208333,73,0.09569599999999667,72,0.14635075000000342
28122,59.11052881875,61,0.09708966666666896,72,0.09901233333333437
28123,59.20954115208333,73,0.09901233333333437,70,0.1010126666666693
28124,59.31055381875,26,0.1010126666666693,80,0.1327432499999972
28125,59.39904931875,73,0.0884955000000005,72,0.0884955000000005
28126,59.48754481875,66,0.0884955000000005,72,0.0884955000000005
28127,59.57604031875,73,0.0884955000000005,74,0.12931025000000318
28128,59.66224715208334,59,0.08620683333333545,69,0.08620683333332835
28129,59.74845398541667,71,0.08620683333332835,67,0.08620683333333545
28130,59.83466081875,28,0.08620683333333545,82,0.12931025000000318
28131,59.92086765208334,71,0.08620683333333545,73,0.08620683333333545
28132,60.00707448541667,64,0.08620683333333545,70,0.08620683333332835
28133,60.09328131875,71,0.08620683333332835,77,0.12931025000000318
28134,60.17948815208334,57,0.08620683333333545,69,0.08620683333333545
28135,60.26569498541667,69,0.08620683333333545,70,0.08620683333332835
28136,60.35190181875,26,0.08620683333332835,84,0.12931025000000318
28137,60.438108652083336,64,0.08620683333333545,72,0.08620683333333545
28138,60.52431548541667,59,0.08620683333333545,69,0.08620683333332835
28139,60.61052231875,64,0.08620683333332835,78,0.12931025000000318
28140,60.696729152083336,59,0.08620683333333545,72,0.08620683333333545
28141,60.78293598541667,71,0.08620683333333545,75,0.08620683333333545
28142,60.86914281875001,25,0.08620683333333545,86,0.12931024999999607
28143,60.955349652083335,69,0.08620683333332835,74,0.08620683333333545
28144,61.04155648541667,64,0.08620683333333545,72,0.08620683333333545
28145,61.127763318750006,69,0.08620683333333545,80,0.12931024999999607
28146,61.213970152083334,64,0.08620683333332835,74,0.08620683333333545
28147,61.30017698541667,76,0.08620683333333545,78,0.08620683333333545
28148,61.386383818750005,26,0.08620683333333545,88,0.1327432499999972
28149,61.474879318750006,73,0.0884955000000005,74,0.0884955000000005
28150,61.563374818750006,66,0.0884955000000005,71,0.0884955000000005
28151,61.65187031875001,73,0.0884955000000005,81,0.12931025000000318
28152,61.73807715208334,59,0.08620683333333545,79,0.08620683333332835
28153,61.82428398541667,71,0.08620683333332835,76,0.08620683333333545
28154,61.910490818750006,28,0.08620683333333545,89,0.12931025000000318
28155,61.99669765208334,71,0.08620683333333545,76,0.08620683333333545
28156,62.08290448541668,64,0.08620683333333545,73,0.08620683333332835
28157,62.169111318750005,71,0.08620683333332835,82,0.12931025000000318
28158,62.25531815208334,57,0.08620683333333545,74,0.08620683333333545
28159,62.341524985416676,69,0.08620683333333545,70,0.08620683333332835
28160,62.427731818750004,26,0.08620683333332835,91,0.12931025000000318
28161,62.51393865208334,64,0.08620683333333545,74,0.08620683333333545
28162,62.600145485416675,59,0.08620683333333545,71,0.08620683333332835
28163,62.686352318750004,64,0.08620683333332835,83,0.12931025000000318
28164,62.77255915208334,59,0.08620683333333545,76,0.08620683333333545
28165,62.858765985416674,71,0.08620683333333545,82,0.08620683333333545
28166,62.94497281875001,25,0.08620683333333545,94,0.12931024999999607
28167,63.03117965208334,69,0.08620683333332835,76,0.08620683333333545
28168,63.117386485416674,64,0.08620683333333545,73,0.08620683333333545
28169,63.20359331875001,69,0.08620683333333545,87,0.12931024999999607
28170,63.28980015208334,64,0.08620683333332835,79,0.08620683333333545
28171,63.37600698541667,76,0.08620683333333545,75,0.08620683333333545
28172,63.46221381875001,26,0.08620683333333545,94,0.27149299999999954
28173,63.55271148541667,73,0.09049766666666414,74,0.09049766666667125
28174,63.643209152083344,66,0.09049766666667125,75,0.09049766666666414
28175,63.73370681875001,73,0.09049766666666414,86,0.5263159999999942
28176,63.82142615208334,59,0.08771933333333237,77,0.08771933333333237
28177,63.90914548541667,71,0.08771933333333237,74,0.08771933333333237
28178,63.996864818750005,61,0.08771933333333237,87,0.08771933333333237
28179,64.08458415208334,73,0.08771933333333237,80,0.08771933333333948
28180,64.17230348541668,66,0.08771933333333948,74,0.08771933333332527
28181,64.26002281875,26,0.08771933333332527,94,0.2631580000000042
28182,64.34774215208334,59,0.08771933333333948,78,0.08771933333333948
28183,64.43546148541668,71,0.08771933333333948,74,0.08771933333332527
28184,64.52318081875,27,0.08771933333332527,104,0.2702704999999952
28185,64.61327098541668,73,0.0900901666666698,85,0.0900901666666698
28186,64.70336115208335,66,0.0900901666666698,81,0.09009016666665559
28187,64.79345131875,73,0.09009016666665559,93,0.5263159999999942
28188,64.88117065208334,59,0.08771933333333948,85,0.08771933333332527
28189,64.96888998541667,71,0.08771933333332527,90,0.08771933333333948
28190,65.05660931875,61,0.08771933333333948,94,0.08771933333332527
28191,65.14432865208333,73,0.08771933333332527,86,0.08771933333333948
28192,65.23204798541667,66,0.08771933333333948,83,0.08771933333332527
28193,65.31976731875,27,0.08771933333332527,100,0.26785700000000645
28194,65.40905298541666,59,0.08928566666666882,80,0.08928566666666882
28195,65.49833865208333,71,0.08928566666666882,88,0.08928566666666882
28196,65.58762431875,28,0.08928566666666882,106,0.26785699999999224
28197,65.67690998541666,73,0.0892856666666546,90,0.08928566666666882
28198,65.76619565208333,59,0.08928566666666882,87,0.08928566666666882
28199,65.85548131875,71,0.08928566666666882,100,0.08928566666666882
28200,65.94476698541666,64,0.08928566666666882,90,0.08928566666666882
28201,66.03405265208333,73,0.08928566666666882,92,0.08928566666666882
28202,66.12333831875,59,0.08928566666666882,103,0.5479449999999986
28203,66.21466248541667,71,0.09132416666666643,93,0.09132416666666643
28204,66.30598665208333,64,0.09132416666666643,86,0.09132416666666643
28205,66.39731081875,73,0.09132416666666643,94,0.09132416666666643
28206,66.48863498541667,59,0.09132416666666643,90,0.09132416666666643
28207,66.57995915208333,71,0.09132416666666643,86,0.09132416666666643
28208,66.67128331875,64,0.09132416666666643,96,0.5479449999999986
28209,66.76260748541667,73,0.09132416666666643,91,0.09132416666666643
28210,66.85393165208333,59,0.09132416666666643,85,0.09132416666666643
28211,66.94525581875,71,0.09132416666666643,89,0.09132416666666643
28212,67.03657998541667,64,0.09132416666666643,82,0.09132416666666643
28213,67.12790415208333,73,0.09132416666666643,75,0.09132416666666643
28214,67.21922831875,59,0.09132416666666643,85,0.08914033333334714
28215,67.30836865208335,71,0.08914033333334714,77,0.09259458333332304
28216,67.40096323541667,64,0.09259458333332304,71,0.09456741666666346
28217,67.49553065208333,73,0.09456741666666346,75,0.09662058333333334
28218,67.59215123541667,59,0.09662058333333334,68,0.09901233333333437
28219,67.69116356875,71,0.09901233333333437,64,0.17370800000000486
28220,67.74141481875,16,0.0502512500000023,47,0.03086418750000064
28221,67.77227900625,28,0.03086418750000064,47,1.3776570791666671
28222,67.80314319375,35,0.03086418750000064,47,1.3467928916666665
28223,67.83400738125,40,0.03086418750000064,47,1.3159287041666659
28224,67.86487156875,78,0.03086418750000064,57,1.2850645166666652
28225,68.10194052708333,76,0.23706895833332453,57,0.052493791666663014
28226,68.15443431874999,73,0.052493791666663014,52,0.10296612499999469
28227,68.25740044374999,71,0.10296612499999469,57,0.10013062500000558
28228,68.35753106874999,69,0.10013062500000558,57,0.09756674999999859
28229,68.45509781874999,66,0.09756674999999859,54,0.09512958333333188
28230,68.55022740208332,64,0.09512958333333188,57,0.09291666666666742
28231,68.64314406874999,61,0.09291666666666742,57,0.09378808333333666
28232,68.73693215208333,59,0.09378808333333666,53,0.09512633333332587
28233,68.83205848541665,57,0.09512633333332587,57,0.09650333333333094
28234,68.92856181874998,54,0.09650333333333094,57,0.09792083333334745
28235,69.02648265208333,52,0.09792083333334745,54,0.12345343333333858
28236,69.14993608541667,47,0.12345343333333858,65,1.142858000000004
28237,69.72136508541666,49,0.5714289999999949,69,0.5714290000000091
28238,70.14993683541667,47,0.42857175000000325,64,0.14285725000000582
28239,70.29279408541667,45,0.14285725000000582,71,1.034481999999997
28240,70.55141458541668,40,0.25862050000000636,44,0.25862049999999215
28241,70.81003508541667,71,0.25862049999999215,63,0.25862050000000636
28242,70.89624191875001,73,0.08620683333333545,53,0.08620683333333545
28243,70.98244875208334,71,0.08620683333333545,57,0.08620683333333545
28244,71.06865558541668,64,0.08620683333333545,59,0.25862049999999215
28245,71.15486241875001,76,0.08620683333333545,59,0.08620683333332124
28246,71.24106925208334,64,0.08620683333332124,54,0.08620683333333545
28247,71.32727608541667,64,0.08620683333333545,63,1.034481999999997
28248,71.41348291875,66,0.08620683333333545,63,0.08620683333333545
28249,71.49968975208334,64,0.08620683333333545,63,0.08620683333333545
28250,71.58589658541668,57,0.08620683333333545,58,0.25862049999999215
28251,71.67210341875001,69,0.08620683333333545,55,0.08620683333332124
28252,71.75831025208333,57,0.08620683333332124,58,0.08620683333333545
28253,71.84451708541667,59,0.08620683333333545,63,0.25862050000000636
28254,71.93072391875,61,0.08620683333333545,54,0.08620683333333545
28255,72.01693075208334,59,0.08620683333333545,56,0.08620683333333545
28256,72.10313758541668,52,0.08620683333333545,78,0.3467261666666559
28257,72.36175808541667,45,0.25862049999999215,63,0.26431700000000546
28258,72.44986375208333,57,0.08810566666666375,62,0.08810566666666375
28259,72.53796941875,59,0.08810566666666375,57,0.08810566666667796
28260,72.62607508541667,61,0.08810566666667796,66,0.08810566666666375
28261,72.71418075208334,59,0.08810566666666375,64,0.08810566666666375
28262,72.80228641875,57,0.08810566666666375,57,0.08810566666666375
28263,72.89039208541666,42,0.08810566666666375,63,0.25862050000000636
28264,72.97659891875,59,0.08620683333333545,64,0.08620683333333545
28265,73.06280575208334,64,0.08620683333333545,61,0.08620683333333545
28266,73.14901258541667,66,0.08620683333333545,67,0.2631580000000042
28267,73.23673191875001,64,0.08771933333333948,65,0.08771933333332527
28268,73.32445125208334,59,0.08771933333332527,59,0.08771933333333948
28269,73.41217058541667,57,0.08771933333333948,66,0.2564105000000012
28270,73.49764075208334,64,0.08547016666666707,63,0.08547016666666707
28271,73.58311091875001,69,0.08547016666666707,59,0.08547016666666707
28272,73.66858108541668,71,0.08547016666666707,64,0.2631580000000042
28273,73.75630041875002,69,0.08771933333333948,64,0.08771933333332527
28274,73.84401975208334,66,0.08771933333332527,57,0.08771933333333948
28275,73.93173908541668,64,0.08771933333333948,70,0.2564105000000012
28276,74.01720925208335,71,0.08547016666666707,67,0.08547016666666707
28277,74.10267941875001,76,0.08547016666666707,65,0.08547016666666707
28278,74.18814958541668,78,0.08547016666666707,74,0.2631580000000042
28279,74.27586891875002,76,0.08771933333333948,67,0.08771933333332527
28280,74.36358825208335,71,0.08771933333332527,62,0.08771933333333948
28281,74.45130758541669,69,0.08771933333333948,62,1.034481999999997
28282,74.53751441875002,71,0.08620683333333545,57,0.08620683333333545
28283,74.62372125208336,69,0.08620683333333545,56,0.08620683333333545
28284,74.70992808541669,64,0.08620683333333545,63,0.25862049999999215
28285,74.79613491875001,76,0.08620683333332124,59,0.08620683333333545
28286,74.88234175208335,64,0.08620683333333545,59,0.08620683333333545
28287,74.96854858541668,64,0.08620683333333545,63,0.25862050000000636
28288,75.05475541875002,66,0.08620683333333545,60,0.08620683333333545
28289,75.14096225208336,64,0.08620683333333545,57,0.08620683333333545
28290,75.22716908541669,59,0.08620683333333545,59,0.25862049999999215
28291,75.31337591875003,71,0.08620683333333545,59,0.08620683333332124
28292,75.39958275208335,59,0.08620683333332124,59,0.08620683333333545
28293,75.48578958541668,59,0.08620683333333545,63,1.0401785000000103
28294,75.57199641875002,61,0.08620683333333545,59,0.08620683333333545
28295,75.65820325208335,59,0.08620683333333545,55,0.08620683333333545
28296,75.74441008541669,57,0.08620683333333545,58,0.26431700000000546
28297,75.83251575208335,69,0.08810566666666375,58,0.08810566666666375
28298,75.92062141875002,57,0.08810566666666375,55,0.08810566666667796
28299,76.0087270854167,52,0.08810566666667796,63,0.603447833333334
28300,76.2673475854167,44,0.25862050000000636,56,0.25862049999999215
28301,76.5259680854167,45,0.25862049999999215,64,0.25862050000000636
28302,76.61217491875003,57,0.08620683333333545,64,0.08620683333333545
28303,76.69838175208336,59,0.08620683333333545,62,0.08620683333333545
28304,76.7845885854167,61,0.08620683333333545,70,0.2631580000000042
28305,76.87230791875004,59,0.08771933333333948,64,0.08771933333332527
28306,76.96002725208336,57,0.08771933333332527,61,0.08771933333333948
28307,77.0477465854167,42,0.08771933333333948,70,0.2564105000000012
28308,77.13321675208337,59,0.08547016666666707,66,0.08547016666666707
28309,77.21868691875004,64,0.08547016666666707,64,0.08547016666666707
28310,77.3041570854167,66,0.08547016666666707,73,0.2620084999999932
28311,77.39149325208336,64,0.08733616666665966,67,0.08733616666667388
28312,77.47882941875004,59,0.08733616666667388,65,0.08733616666665966
28313,77.5661655854167,42,0.08733616666665966,79,0.2564105000000012
28314,77.65163575208337,64,0.08547016666666707,71,0.08547016666666707
28315,77.73710591875003,69,0.08547016666666707,70,0.08547016666666707
28316,77.8225760854167,71,0.08547016666666707,76,0.2620084999999932
28317,77.90991225208336,69,0.08733616666665966,70,0.08733616666667388
28318,77.99724841875003,64,0.08733616666667388,70,0.08733616666665966
28319,78.08458458541669,42,0.08733616666665966,84,0.25862050000000636
28320,78.17079141875003,64,0.08620683333333545,81,0.08620683333333545
28321,78.25699825208336,71,0.08620683333333545,78,0.08620683333333545
28322,78.3432050854167,73,0.08620683333333545,86,0.22629293749999135
28323,78.42941191875002,71,0.08620683333332124,78,0.08620683333333545
28324,78.51561875208336,64,0.08620683333333545,74,0.08620683333333545
28325,78.56949802291669,33,0.05387927083333466,68,0.5633005625000038
28326,78.58566180416669,40,0.016163781250000397,70,0.5471367812500034
28327,78.60182558541669,49,0.016163781250000397,90,0.530973000000003
28328,78.69032108541668,64,0.0884954999999934,77,0.08849550000000761
28329,78.77881658541669,71,0.08849550000000761,71,0.0884954999999934
28330,78.86731208541669,61,0.0884954999999934,83,0.08849550000000761
28331,78.9558075854167,71,0.08849550000000761,78,0.0884954999999934
28332,79.04430308541669,64,0.0884954999999934,70,0.08849550000000761
28333,79.1327985854167,69,0.08849550000000761,83,0.08695649999999944
28334,79.2197550854167,61,0.08695649999999944,76,0.08695649999999944
28335,79.30671158541669,66,0.08695649999999944,72,0.08695649999999944
28336,79.39366808541669,44,0.08695649999999944,94,0.2608694999999983
28337,79.48062458541669,64,0.08695649999999944,76,0.08695649999999944
28338,79.56758108541669,52,0.08695649999999944,72,0.08695649999999944
28339,79.65453758541669,45,0.08695649999999944,90,0.5217389999999966
28340,79.74149408541669,52,0.08695649999999944,78,0.08695649999999944
28341,79.82845058541669,59,0.08695649999999944,74,0.08695649999999944
28342,79.91540708541669,49,0.08695649999999944,83,0.08695649999999944
28343,80.00236358541669,59,0.08695649999999944,72,0.08695649999999944
28344,80.08932008541669,52,0.08695649999999944,72,0.08695649999999944
28345,80.17627658541669,57,0.08695649999999944,83,0.08695650000001365
28346,80.2632330854167,49,0.08695650000001365,78,0.08695649999999944
28347,80.3501895854167,54,0.08695649999999944,74,0.08695649999999944
28348,80.4371460854167,32,0.08695649999999944,93,0.2608694999999983
28349,80.5241025854167,52,0.08695649999999944,77,0.08695649999999944
28350,80.6110590854167,40,0.08695649999999944,76,0.08695649999999944
28351,80.6980155854167,33,0.08695649999999944,89,0.5217389999999966
28352,80.7849720854167,40,0.08695649999999944,82,0.08695649999999944
28353,80.8719285854167,47,0.08695649999999944,77,0.08695649999999944
28354,80.9588850854167,37,0.08695649999999944,88,0.08695649999999944
28355,81.0458415854167,47,0.08695649999999944,77,0.08695649999999944
28356,81.1327980854167,40,0.08695649999999944,81,0.08695649999999944
28357,81.2197545854167,45,0.08695649999999944,93,0.08695649999999944
28358,81.3067110854167,37,0.08695649999999944,87,0.08695649999999944
28359,81.3936675854167,42,0.08695649999999944,86,0.08695649999999944
28360,81.4806240854167,35,0.08695649999999944,97,0.2608694999999983
28361,81.56758058541669,40,0.08695649999999944,91,0.08695649999999944
28362,81.65453708541669,28,0.08695649999999944,88,0.08695649999999944
28363,81.74149358541669,37,0.08695649999999944,101,0.2608694999999983
28364,81.82845008541669,33,0.08695649999999944,92,0.08695649999999944
28365,81.91540658541669,42,0.08695649999999944,87,0.08695649999999944
28366,82.00236308541669,28,0.08695649999999944,101,0.2608694999999983
28367,82.08931958541669,40,0.08695649999999944,92,0.08695649999999944
28368,82.17627608541669,35,0.08695649999999944,86,0.08695649999999944
28369,82.26323258541669,37,0.08695649999999944,101,0.2608695000000125
28370,82.3501890854167,33,0.08695650000001365,93,0.08695649999999944
28371,82.4371455854167,42,0.08695649999999944,89,0.08695649999999944
28372,82.5241020854167,28,0.08695649999999944,101,0.2608694999999983
28373,82.6110585854167,40,0.08695649999999944,93,0.08695649999999944
28374,82.6980150854167,35,0.08695649999999944,89,0.08695649999999944
28375,82.7849715854167,37,0.08695649999999944,101,0.2654864999999944
28376,83.0504580854167,37,0.2654864999999944,60,0.08695649999999944
28377,83.13741458541669,35,0.08695649999999944,59,0.08695649999999944
28378,83.22437108541669,33,0.08695649999999944,54,0.08695649999999944
28379,83.31132758541669,45,0.08695649999999944,63,0.08695649999999944
28380,83.39828408541669,40,0.08695649999999944,60,0.08695649999999944
28381,83.48524058541669,37,0.08695649999999944,56,0.08695649999999944
28382,83.57219708541669,49,0.08695649999999944,64,0.08695649999999944
28383,83.65915358541669,42,0.08695649999999944,62,0.08695649999999944
28384,83.74611008541669,40,0.08695649999999944,58,0.08695649999999944
28385,83.83306658541669,52,0.08695649999999944,66,0.08695649999999944
28386,83.92002308541669,47,0.08695649999999944,64,0.08695649999999944
28387,84.00697958541669,45,0.08695649999999944,58,0.08695649999999944
28388,84.09393608541669,57,0.08695649999999944,69,0.08695650000001365
28389,84.1808925854167,52,0.08695650000001365,59,0.08695649999999944
28390,84.2678490854167,49,0.08695649999999944,59,0.08695649999999944
28391,84.3548055854167,61,0.08695649999999944,70,0.08695649999999944
28392,84.4417620854167,54,0.08695649999999944,65,0.08695649999999944
28393,84.5287185854167,52,0.08695649999999944,64,0.08695649999999944
28394,84.6156750854167,64,0.08695649999999944,71,0.08695649999999944
28395,84.7026315854167,59,0.08695649999999944,67,0.08695649999999944
28396,84.7895880854167,57,0.08695649999999944,67,0.08695649999999944
28397,84.8765445854167,69,0.08695649999999944,73,0.08658016666666413
28398,84.96312475208336,64,0.08658016666666413,67,0.08658016666666413
28399,85.04970491875002,61,0.08658016666666413,65,0.08658016666667834
28400,85.1362850854167,73,0.08658016666667834,75,0.08658016666666413
28401,85.22286525208337,66,0.08658016666666413,69,0.08695649999999944
28402,85.30982175208337,64,0.08695649999999944,66,0.08695649999999944
28403,85.39677825208337,69,0.08695649999999944,78,0.08695649999999944
28404,85.48373475208336,64,0.08695649999999944,70,0.08695649999999944
28405,85.57069125208336,61,0.08695649999999944,69,0.08733616666665966
28406,85.65802741875002,73,0.08733616666665966,78,0.08733616666667388
28407,85.7453635854167,66,0.08733616666667388,71,0.08733616666665966
28408,85.83269975208336,64,0.08733616666665966,70,0.08733616666667388
28409,85.92003591875003,69,0.08733616666667388,81,0.08771933333333948
28410,86.00775525208337,64,0.08771933333333948,74,0.08771933333332527
28411,86.0954745854167,61,0.08771933333332527,73,0.08771933333333948
28412,86.18319391875004,73,0.08771933333333948,81,0.08771933333332527
28413,86.27091325208336,66,0.08771933333332527,75,0.08810566666666375
28414,86.35901891875002,64,0.08810566666666375,74,0.08810566666666375
28415,86.44712458541669,69,0.08810566666666375,82,0.08810566666667796
28416,86.53523025208337,64,0.08810566666667796,75,0.08810566666666375
28417,86.62333591875003,61,0.08810566666666375,75,0.0884954999999934
28418,86.71183141875002,73,0.0884954999999934,85,0.08849550000000761
28419,86.80032691875003,66,0.08849550000000761,77,0.0884954999999934
28420,86.88882241875002,64,0.0884954999999934,75,0.08849550000000761
28421,86.97731791875003,69,0.08849550000000761,89,0.12987016666666307
28422,87.21465562708337,57,0.23733770833334233,94,0.10062941666666347
28423,87.31528504375004,54,0.10062941666666347,94,0.10126649999999415
28424,87.41655154375003,52,0.10126649999999415,95,0.10204216666666355
28425,87.5185937104167,61,0.10204216666666355,96,0.1028285000000011
28426,87.6214222104167,47,0.1028285000000011,97,0.10349345833333246
28427,87.72491566875003,45,0.10349345833333246,98,0.10430300000000159
28428,87.82921866875003,42,0.10430300000000159,98,0.10512537500000008
28429,87.93434404375003,40,0.10512537500000008,100,0.10596087499999385
28430,88.04030491875002,37,0.10596087499999385,101,0.10666741666666724
28431,88.14697233541669,35,0.10666741666666724,103,0.10752841666666768
28432,88.25450075208336,45,0.10752841666666768,111,0.1754384999999985
28433,88.91556871458336,33,0.6610679624999989,93,0.8809374374999948
28434,88.96130043333335,40,0.045731718749991046,98,0.8352057187500037
28435,89.00703215208335,73,0.04573171875000526,118,0.7894739999999985
28436,89.79650615208335,33,0.7894739999999985,112,1.578947999999997
28437,0.0,27,0.0,103,2.8075117499999998
28438,0.08620699999999999,27,0.08620699999999999,77,0.08620699999999999
28439,0.17241399999999998,34,0.08620699999999999,80,0.086207
28440,0.258621,39,0.086207,77,0.08620699999999998
28441,0.34482799999999997,43,0.08620699999999998,90,0.08620699999999998
28442,0.43103499999999995,39,0.08620699999999998,77,0.08620700000000003
28443,0.517242,46,0.08620700000000003,80,0.08620699999999992
28444,0.6034489999999999,51,0.08620699999999992,78,0.08620700000000003
28445,0.6896559999999999,55,0.08620700000000003,93,0.08620700000000003
28446,0.775863,51,0.08620700000000003,79,0.08620699999999992
28447,0.8620699999999999,58,0.08620699999999992,82,0.08620700000000003
28448,0.9482769999999999,63,0.08620700000000003,80,0.08620700000000003
28449,1.034484,67,0.08620700000000003,93,0.08620699999999992
28450,1.1206909999999999,63,0.08620699999999992,80,0.08620699999999992
28451,1.2068979999999998,70,0.08620699999999992,83,0.08620700000000014
28452,1.293105,75,0.08620700000000014,81,0.08620699999999992
28453,1.3793119999999999,79,0.08620699999999992,95,0.08620699999999992
28454,1.4655189999999998,75,0.08620699999999992,80,0.08620700000000014
28455,1.551726,70,0.08620700000000014,84,0.08620699999999992
28456,1.6379329999999999,63,0.08620699999999992,80,0.08620699999999992
28457,1.7241399999999998,67,0.08620699999999992,94,0.08620700000000014
28458,1.810347,63,0.08620700000000014,80,0.08620699999999992
28459,1.8965539999999999,58,0.08620699999999992,83,0.08620699999999992
28460,1.9827609999999998,51,0.08620699999999992,79,0.08620700000000014
28461,2.068968,55,0.08620700000000014,93,0.09009
28462,2.159058,51,0.09009,79,0.09009
28463,2.249148,46,0.09009,81,0.09009
28464,2.339238,39,0.09009,78,0.09009
28465,2.429328,43,0.09009,92,0.09009
28466,2.519418,39,0.09009,76,0.09009
28467,2.609508,34,0.09009,80,0.09009
28468,2.699598,27,0.09009,77,0.10791374999999981
28469,2.8075117499999998,20,0.10791374999999981,104,1.4200812500000008
28470,2.8947209999999997,27,0.0872092499999999,80,0.0872092499999999
28471,2.9819302499999996,36,0.0872092499999999,80,0.08720925000000035
28472,3.0691395,39,0.08720925000000035,77,0.0872092499999999
28473,3.15634875,44,0.0872092499999999,91,0.0872092499999999
28474,3.2435579999999997,39,0.0872092499999999,77,0.0872092499999999
28475,3.3307672499999996,48,0.0872092499999999,80,0.08720925000000035
28476,3.4179765,51,0.08720925000000035,78,0.0872092499999999
28477,3.50518575,56,0.0872092499999999,93,0.08955225000000011
28478,3.594738,51,0.08955225000000011,78,0.08955225000000011
28479,3.68429025,60,0.08955225000000011,82,0.08955224999999967
28480,3.7738424999999998,63,0.08955224999999967,80,0.08955225000000011
28481,3.86339475,68,0.08955225000000011,94,0.08955225000000011
28482,3.952947,63,0.08955225000000011,81,0.08955224999999967
28483,4.04249925,72,0.08955224999999967,83,0.08955225000000056
28484,4.1320515,75,0.08955225000000056,80,0.09554150000000039
28485,4.227593000000001,21,0.09554150000000039,101,1.4172297499999997
28486,4.3148022500000005,75,0.0872092499999999,80,0.0872092499999999
28487,4.4020115,72,0.0872092499999999,84,0.0872092499999999
28488,4.48922075,63,0.0872092499999999,80,0.0872092499999999
28489,4.57643,67,0.0872092499999999,95,0.0872092500000008
28490,4.663639250000001,63,0.0872092500000008,80,0.0872092499999999
28491,4.750848500000001,60,0.0872092499999999,83,0.0872092499999999
28492,4.838057750000001,51,0.0872092499999999,79,0.0872092499999999
28493,4.925267000000001,55,0.0872092499999999,93,0.0872092499999999
28494,5.012476250000001,51,0.0872092499999999,78,0.0872092499999999
28495,5.0996855000000005,48,0.0872092499999999,81,0.0872092499999999
28496,5.18689475,39,0.0872092499999999,77,0.0872092499999999
28497,5.274104,41,0.0872092499999999,92,0.0872092499999999
28498,5.36131325,39,0.0872092499999999,76,0.0872092500000008
28499,5.448522500000001,36,0.0872092500000008,80,0.08720924999999902
28500,5.53573175,27,0.08720924999999902,77,0.10909100000000027
28501,5.64482275,22,0.10909100000000027,101,0.7079639999999996
28502,5.73331825,26,0.08849549999999962,80,0.0884955000000005
28503,5.8218137500000005,34,0.0884955000000005,77,0.08849549999999962
28504,5.91030925,38,0.08849549999999962,80,0.0884955000000005
28505,5.998804750000001,41,0.0884955000000005,90,0.08849549999999962
28506,6.08730025,38,0.08849549999999962,77,0.0884955000000005
28507,6.175795750000001,46,0.0884955000000005,80,0.08849549999999962
28508,6.26429125,50,0.08849549999999962,78,0.08849549999999962
28509,6.35278675,21,0.08849549999999962,102,0.3692310000000001
28510,6.4450945,50,0.0923077499999998,79,0.0923077499999998
28511,6.5374022499999995,58,0.0923077499999998,82,0.09230775000000069
28512,6.62971,62,0.09230775000000069,80,0.0923077499999998
28513,6.72201775,19,0.0923077499999998,97,0.3773580000000001
28514,6.81635725,62,0.09433950000000024,80,0.09433949999999935
28515,6.91069675,70,0.09433949999999935,83,0.09433950000000024
28516,7.00503625,72,0.09433950000000024,79,0.09433950000000024
28517,7.09937575,17,0.09433950000000024,102,1.4493892499999994
28518,7.18946575,72,0.09009,80,0.09009
28519,7.27955575,69,0.09009,84,0.09009
28520,7.36964575,63,0.09009,80,0.09009
28521,7.45973575,65,0.09009,95,0.09009
28522,7.54982575,60,0.09009,80,0.09009
28523,7.63991575,57,0.09009,82,0.09009
28524,7.73000575,51,0.09009,79,0.09009
28525,7.82009575,53,0.09009,94,0.09009
28526,7.91018575,48,0.09009,77,0.09009
28527,8.00027575,45,0.09009,81,0.09009
28528,8.09036575,39,0.09009,77,0.09009
28529,8.18045575,41,0.09009,80,0.09009
28530,8.27054575,36,0.09009,80,0.09009
28531,8.36063575,33,0.09009,80,0.09009
28532,8.45072575,27,0.09009,80,0.09803924999999936
28533,8.548765,22,0.09803924999999936,101,2.79839125
28534,8.635721499999999,27,0.08695649999999944,77,0.08695650000000121
28535,8.722678,32,0.08695650000000121,80,0.08695649999999944
28536,8.8096345,35,0.08695649999999944,77,0.08695649999999944
28537,8.896590999999999,41,0.08695649999999944,91,0.08695650000000121
28538,8.9835475,39,0.08695650000000121,76,0.08695649999999944
28539,9.070504,44,0.08695649999999944,80,0.08695649999999944
28540,9.1574605,47,0.08695649999999944,77,0.08695650000000121
28541,9.244417,53,0.08695650000000121,92,0.08695649999999944
28542,9.3313735,51,0.08695649999999944,78,0.08695649999999944
28543,9.41833,56,0.08695649999999944,82,0.08695650000000121
28544,9.5052865,59,0.08695650000000121,79,0.08695649999999944
28545,9.592243,65,0.08695649999999944,93,0.08695649999999944
28546,9.6791995,63,0.08695649999999944,80,0.08695649999999944
28547,9.766155999999999,68,0.08695649999999944,83,0.08695650000000121
28548,9.8531125,71,0.08695650000000121,80,0.08695649999999944
28549,9.940069,77,0.08695649999999944,95,0.08695649999999944
28550,10.027025499999999,70,0.08695649999999944,79,0.08695650000000121
28551,10.113982,68,0.08695650000000121,84,0.08695649999999944
28552,10.2009385,62,0.08695649999999944,79,0.08695649999999944
28553,10.287894999999999,65,0.08695649999999944,94,0.08695650000000121
28554,10.3748515,58,0.08695650000000121,79,0.08695649999999944
28555,10.461808,56,0.08695649999999944,83,0.08695649999999944
28556,10.548764499999999,50,0.08695649999999944,78,0.08695650000000121
28557,10.635721,53,0.08695650000000121,93,0.08695649999999944
28558,10.7226775,46,0.08695649999999944,77,0.08695649999999944
28559,10.809633999999999,44,0.08695649999999944,81,0.08695650000000121
28560,10.8965905,38,0.08695650000000121,77,0.08695649999999944
28561,10.983547,42,0.08695649999999944,95,0.08695649999999944
28562,11.0705035,34,0.08695649999999944,77,0.08695650000000121
28563,11.15746,32,0.08695650000000121,80,0.08695649999999944
28564,11.2444165,26,0.08695649999999944,77,0.10273974999999957
28565,11.34715625,27,0.10273974999999957,101,2.7767539999999986
28566,11.43336325,27,0.08620699999999992,76,0.08620699999999992
28567,11.51957025,34,0.08620699999999992,80,0.08620699999999992
28568,11.60577725,39,0.08620699999999992,76,0.08620699999999992
28569,11.691984249999999,43,0.08620699999999992,85,0.08620699999999992
28570,11.778191249999999,39,0.08620699999999992,76,0.08620699999999992
28571,11.864398249999999,46,0.08620699999999992,80,0.08620699999999992
28572,11.950605249999999,51,0.08620699999999992,78,0.08620699999999992
28573,12.036812249999999,55,0.08620699999999992,89,0.08620699999999992
28574,12.123019249999999,51,0.08620699999999992,78,0.08620699999999992
28575,12.209226249999999,58,0.08620699999999992,82,0.08620699999999992
28576,12.295433249999999,63,0.08620699999999992,79,0.0862070000000017
28577,12.38164025,67,0.0862070000000017,90,0.08620699999999815
28578,12.467847249999998,63,0.08620699999999815,80,0.0862070000000017
28579,12.55405425,70,0.0862070000000017,83,0.08620699999999992
28580,12.64026125,75,0.08620699999999992,80,0.08620699999999992
28581,12.72646825,79,0.08620699999999992,92,0.08620699999999992
28582,12.81267525,75,0.08620699999999992,80,0.08620699999999992
28583,12.89888225,70,0.08620699999999992,84,0.08620699999999992
28584,12.98508925,63,0.08620699999999992,80,0.08620699999999992
28585,13.07129625,67,0.08620699999999992,92,0.08620699999999992
28586,13.15750325,63,0.08620699999999992,81,0.08620699999999992
28587,13.24371025,58,0.08620699999999992,83,0.08620699999999992
28588,13.32991725,51,0.08620699999999992,79,0.08620699999999992
28589,13.41612425,55,0.08620699999999992,90,0.08746350000000014
28590,13.50358775,51,0.08746350000000014,78,0.08746350000000014
28591,13.59105125,46,0.08746350000000014,81,0.08746350000000014
28592,13.67851475,39,0.08746350000000014,77,0.08746350000000014
28593,13.76597825,43,0.08746350000000014,89,0.08746350000000014
28594,13.85344175,39,0.08746350000000014,77,0.08746350000000014
28595,13.94090525,34,0.08746350000000014,80,0.08746349999999836
28596,14.028368749999998,27,0.08746349999999836,77,0.0955414999999995
28597,14.123910249999998,24,0.0955414999999995,103,2.792115749999997
28598,14.210615499999998,27,0.08670524999999962,77,0.08670524999999962
28599,14.297320749999997,32,0.08670524999999962,80,0.0867052500000014
28600,14.384025999999999,39,0.0867052500000014,77,0.08670524999999962
28601,14.470731249999998,44,0.08670524999999962,87,0.08670524999999962
28602,14.557436499999998,39,0.08670524999999962,76,0.08670524999999962
28603,14.644141749999998,44,0.08670524999999962,80,0.08670524999999962
28604,14.730846999999997,51,0.08670524999999962,77,0.0867052500000014
28605,14.817552249999999,56,0.0867052500000014,89,0.08670524999999962
28606,14.904257499999998,51,0.08670524999999962,77,0.08670524999999962
28607,14.990962749999998,56,0.08670524999999962,82,0.08670524999999962
28608,15.077667999999997,63,0.08670524999999962,79,0.08670524999999962
28609,15.164373249999997,68,0.08670524999999962,92,0.0867052500000014
28610,15.251078499999998,63,0.0867052500000014,80,0.08670524999999962
28611,15.337783749999998,68,0.08670524999999962,83,0.08670524999999962
28612,15.424488999999998,75,0.08670524999999962,80,0.08670524999999962
28613,15.511194249999997,79,0.08670524999999962,93,0.08746350000000014
28614,15.598657749999997,75,0.08746350000000014,80,0.08746350000000014
28615,15.686121249999998,69,0.08746350000000014,84,0.08746350000000014
28616,15.773584749999998,63,0.08746350000000014,79,0.08746350000000014
28617,15.861048249999998,67,0.08746350000000014,93,0.08746350000000014
28618,15.948511749999998,63,0.08746350000000014,80,0.08746349999999836
28619,16.035975249999996,57,0.08746349999999836,83,0.08746350000000191
28620,16.12343875,51,0.08746350000000191,79,0.08746349999999836
28621,16.210902249999997,55,0.08746349999999836,90,0.08746350000000191
28622,16.29836575,51,0.08746350000000191,79,0.08746349999999836
28623,16.385829249999997,45,0.08746349999999836,81,0.08746350000000191
28624,16.47329275,39,0.08746350000000191,78,0.08746349999999836
28625,16.560756249999997,43,0.08746349999999836,89,0.08746349999999836
28626,16.648219749999996,39,0.08746349999999836,77,0.08746350000000191
28627,16.735683249999997,33,0.08746350000000191,80,0.08746349999999836
28628,16.823146749999996,27,0.08746349999999836,77,0.0928792499999993
28629,16.916025999999995,22,0.0928792499999993,96,2.8120829999999977
28630,17.003235249999996,27,0.0872092500000008,73,0.0872092500000008
28631,17.090444499999997,34,0.0872092500000008,76,0.08720924999999724
28632,17.177653749999994,39,0.08720924999999724,74,0.0872092500000008
28633,17.264862999999995,41,0.0872092500000008,81,0.0872092500000008
28634,17.352072249999996,39,0.0872092500000008,73,0.0872092500000008
28635,17.439281499999996,46,0.0872092500000008,76,0.08720924999999724
28636,17.526490749999994,51,0.08720924999999724,74,0.0872092500000008
28637,17.613699999999994,53,0.0872092500000008,86,0.0872092500000008
28638,17.700909249999995,51,0.0872092500000008,74,0.0872092500000008
28639,17.788118499999996,58,0.0872092500000008,77,0.0872092500000008
28640,17.875327749999997,63,0.0872092500000008,75,0.08720924999999724
28641,17.962536999999994,65,0.08720924999999724,88,0.0872092500000008
28642,18.049746249999995,63,0.0872092500000008,76,0.0872092500000008
28643,18.136955499999996,70,0.0872092500000008,78,0.0872092500000008
28644,18.224164749999996,75,0.0872092500000008,76,0.08720924999999724
28645,18.311373999999994,77,0.08720924999999724,89,0.0879764999999999
28646,18.399350499999994,74,0.0879764999999999,76,0.0879764999999999
28647,18.487326999999993,70,0.0879764999999999,79,0.0879764999999999
28648,18.575303499999993,62,0.0879764999999999,75,0.0879764999999999
28649,18.663279999999993,65,0.0879764999999999,87,0.0879764999999999
28650,18.751256499999993,62,0.0879764999999999,75,0.0879764999999999
28651,18.839232999999993,58,0.0879764999999999,78,0.0879764999999999
28652,18.927209499999993,50,0.0879764999999999,74,0.0879764999999999
28653,19.015185999999993,53,0.0879764999999999,86,0.0879764999999999
28654,19.103162499999993,50,0.0879764999999999,75,0.0879764999999999
28655,19.191138999999993,46,0.0879764999999999,76,0.0879764999999999
28656,19.279115499999993,38,0.0879764999999999,74,0.0879764999999999
28657,19.367091999999992,41,0.0879764999999999,83,0.0879764999999999
28658,19.455068499999992,38,0.0879764999999999,73,0.0879764999999999
28659,19.543044999999992,34,0.0879764999999999,76,0.0879764999999999
28660,19.631021499999992,26,0.0879764999999999,71,0.09708750000000066
28661,19.728108999999993,27,0.09708750000000066,96,2.779122749999999
28662,19.814564249999993,29,0.0864552500000002,76,0.0864552500000002
28663,19.901019499999993,34,0.0864552500000002,73,0.0864552500000002
28664,19.987474749999993,41,0.0864552500000002,76,0.0864552500000002
28665,20.073929999999994,43,0.0864552500000002,77,0.0864552500000002
28666,20.160385249999994,41,0.0864552500000002,70,0.0864552500000002
28667,20.246840499999994,46,0.0864552500000002,75,0.0864552500000002
28668,20.333295749999994,53,0.0864552500000002,72,0.08645524999999665
28669,20.41975099999999,55,0.08645524999999665,77,0.0864552500000002
28670,20.50620624999999,53,0.0864552500000002,72,0.0864552500000002
28671,20.59266149999999,58,0.0864552500000002,74,0.0864552500000002
28672,20.67911674999999,65,0.0864552500000002,72,0.0864552500000002
28673,20.76557199999999,67,0.0864552500000002,80,0.0864552500000002
28674,20.852027249999992,65,0.0864552500000002,72,0.0864552500000002
28675,20.938482499999992,70,0.0864552500000002,74,0.0864552500000002
28676,21.024937749999992,77,0.0864552500000002,72,0.0864552500000002
28677,21.111392999999993,79,0.0864552500000002,78,0.0864552500000002
28678,21.197848249999993,75,0.0864552500000002,69,0.0864552500000002
28679,21.284303499999993,70,0.0864552500000002,73,0.0864552500000002
28680,21.370758749999993,63,0.0864552500000002,69,0.0864552500000002
28681,21.457213999999993,67,0.0864552500000002,78,0.0864552500000002
28682,21.543669249999994,63,0.0864552500000002,68,0.0864552500000002
28683,21.630124499999994,58,0.0864552500000002,71,0.0864552500000002
28684,21.716579749999994,51,0.0864552500000002,65,0.0864552500000002
28685,21.803034999999994,55,0.0864552500000002,75,0.0864552500000002
28686,21.889490249999994,51,0.0864552500000002,66,0.08645524999999665
28687,21.97594549999999,46,0.08645524999999665,69,0.0864552500000002
28688,22.06240074999999,39,0.0864552500000002,64,0.0864552500000002
28689,22.14885599999999,43,0.0864552500000002,71,0.0864552500000002
28690,22.23531124999999,39,0.0864552500000002,64,0.0864552500000002
28691,22.321766499999992,34,0.0864552500000002,67,0.0864552500000002
28692,22.408221749999992,27,0.0864552500000002,60,0.09900999999999982
28693,22.507231749999992,24,0.09900999999999982,69,1.3851295000000015
28694,22.593438749999994,31,0.0862070000000017,50,0.08620699999999815
28695,22.67964574999999,39,0.08620699999999815,54,0.0862070000000017
28696,22.765852749999993,43,0.0862070000000017,53,0.08620699999999815
28697,22.85205974999999,44,0.08620699999999815,59,0.0862070000000017
28698,22.938266749999993,43,0.0862070000000017,51,0.08620699999999815
28699,23.02447374999999,51,0.08620699999999815,54,0.0862070000000017
28700,23.110680749999993,55,0.0862070000000017,52,0.08620699999999815
28701,23.19688774999999,56,0.08620699999999815,61,0.0862070000000017
28702,23.283094749999993,55,0.0862070000000017,51,0.08620699999999815
28703,23.36930174999999,63,0.08620699999999815,56,0.0862070000000017
28704,23.455508749999993,67,0.0862070000000017,52,0.08620699999999815
28705,23.54171574999999,68,0.08620699999999815,62,0.0862070000000017
28706,23.627922749999993,67,0.0862070000000017,54,0.08620699999999815
28707,23.71412974999999,75,0.08620699999999815,56,0.0862070000000017
28708,23.800336749999992,79,0.0862070000000017,52,0.09202450000000084
28709,23.892361249999993,26,0.09202450000000084,69,0.6997080000000011
28710,23.97982474999999,77,0.08746349999999836,53,0.08746350000000191
28711,24.067288249999994,74,0.08746350000000191,56,0.08746349999999836
28712,24.154751749999992,65,0.08746349999999836,53,0.08746350000000191
28713,24.242215249999994,68,0.08746350000000191,62,0.08746349999999836
28714,24.329678749999992,65,0.08746349999999836,53,0.08746350000000191
28715,24.417142249999994,62,0.08746350000000191,56,0.08746349999999836
28716,24.504605749999993,53,0.08746349999999836,52,0.08746350000000191
28717,24.592069249999994,24,0.08746350000000191,69,0.719936999999998
28718,24.681354999999993,53,0.08928574999999839,51,0.08928575000000194
28719,24.770640749999995,50,0.08928575000000194,55,0.08928574999999839
28720,24.859926499999993,41,0.08928574999999839,51,0.08928575000000194
28721,24.949212249999995,44,0.08928575000000194,60,0.08928574999999839
28722,25.038497999999993,41,0.08928574999999839,50,0.08928575000000194
28723,25.127783749999995,38,0.08928575000000194,54,0.08928574999999839
28724,25.217069499999994,29,0.08928574999999839,51,0.09493674999999868
28725,25.312006249999992,23,0.09493674999999868,69,1.3793119999999988
28726,25.398213249999994,29,0.0862070000000017,51,0.08620699999999815
28727,25.484420249999992,38,0.08620699999999815,54,0.0862070000000017
28728,25.570627249999994,41,0.0862070000000017,51,0.08620699999999815
28729,25.656834249999992,43,0.08620699999999815,64,0.0862070000000017
28730,25.743041249999994,41,0.0862070000000017,51,0.08620699999999815
28731,25.829248249999992,50,0.08620699999999815,55,0.0862070000000017
28732,25.915455249999994,53,0.0862070000000017,53,0.08620699999999815
28733,26.001662249999992,55,0.08620699999999815,66,0.0862070000000017
28734,26.087869249999994,53,0.0862070000000017,52,0.08620699999999815
28735,26.17407624999999,62,0.08620699999999815,58,0.0862070000000017
28736,26.260283249999993,65,0.0862070000000017,53,0.08620699999999815
28737,26.34649024999999,67,0.08620699999999815,66,0.0862070000000017
28738,26.432697249999993,65,0.0862070000000017,54,0.08620699999999815
28739,26.51890424999999,74,0.08620699999999815,59,0.0862070000000017
28740,26.605111249999993,77,0.0862070000000017,55,0.08620699999999815
28741,26.69131824999999,24,0.08620699999999815,72,0.6976739999999992
28742,26.778527499999992,75,0.0872092500000008,57,0.0872092500000008
28743,26.865736749999993,72,0.0872092500000008,59,0.08720924999999724
28744,26.95294599999999,63,0.08720924999999724,57,0.0872092500000008
28745,27.04015524999999,67,0.0872092500000008,71,0.0872092500000008
28746,27.12736449999999,63,0.0872092500000008,58,0.0872092500000008
28747,27.214573749999992,60,0.0872092500000008,63,0.08720924999999724
28748,27.30178299999999,51,0.08720924999999724,61,0.0872092500000008
28749,27.38899224999999,22,0.0872092500000008,79,0.6976739999999992
28750,27.47620149999999,51,0.0872092500000008,61,0.0872092500000008
28751,27.563410749999992,48,0.0872092500000008,66,0.0872092500000008
28752,27.650619999999993,39,0.0872092500000008,61,0.08720924999999724
28753,27.73782924999999,43,0.08720924999999724,77,0.0872092500000008
28754,27.82503849999999,39,0.0872092500000008,63,0.0872092500000008
28755,27.91224774999999,36,0.0872092500000008,69,0.0872092500000008
28756,27.999456999999992,27,0.0872092500000008,64,0.08720924999999724
28757,28.08666624999999,20,0.08720924999999724,90,2.806067500000001
28758,28.17387549999999,27,0.0872092500000008,65,0.0872092500000008
28759,28.26108474999999,36,0.0872092500000008,72,0.0872092500000008
28760,28.348293999999992,39,0.0872092500000008,66,0.0872092500000008
28761,28.435503249999993,43,0.0872092500000008,82,0.08720924999999724
28762,28.52271249999999,39,0.08720924999999724,67,0.0872092500000008
28763,28.60992174999999,48,0.0872092500000008,72,0.0872092500000008
28764,28.69713099999999,51,0.0872092500000008,68,0.0872092500000008
28765,28.784340249999993,55,0.0872092500000008,82,0.08720924999999724
28766,28.87154949999999,51,0.08720924999999724,69,0.0872092500000008
28767,28.95875874999999,60,0.0872092500000008,73,0.0872092500000008
28768,29.04596799999999,63,0.0872092500000008,70,0.0872092500000008
28769,29.133177249999992,67,0.0872092500000008,83,0.08720924999999724
28770,29.22038649999999,63,0.08720924999999724,71,0.0872092500000008
28771,29.30759574999999,72,0.0872092500000008,74,0.0872092500000008
28772,29.39480499999999,75,0.0872092500000008,71,0.0872092500000008
28773,29.48201424999999,78,0.0872092500000008,86,0.0872092500000008
28774,29.569223499999993,74,0.0872092500000008,71,0.08720924999999724
28775,29.65643274999999,72,0.08720924999999724,75,0.0872092500000008
28776,29.74364199999999,62,0.0872092500000008,68,0.0872092500000008
28777,29.83085124999999,66,0.0872092500000008,78,0.0872092500000008
28778,29.918060499999992,62,0.0872092500000008,63,0.08720924999999724
28779,30.00526974999999,60,0.08720924999999724,67,0.0872092500000008
28780,30.09247899999999,50,0.0872092500000008,62,0.0872092500000008
28781,30.17968824999999,54,0.0872092500000008,72,0.08875749999999982
28782,30.26844574999999,50,0.08875749999999982,59,0.08875749999999982
28783,30.35720324999999,48,0.08875749999999982,63,0.08875749999999982
28784,30.44596074999999,38,0.08875749999999982,55,0.08875749999999982
28785,30.53471824999999,42,0.08875749999999982,61,0.08875749999999982
28786,30.62347574999999,38,0.08875749999999982,57,0.08875749999999982
28787,30.71223324999999,36,0.08875749999999982,56,0.08875749999999982
28788,30.80099074999999,26,0.08875749999999982,52,0.09174300000000102
28789,30.89273374999999,19,0.09174300000000102,68,2.802832000000002
28790,30.98019724999999,26,0.08746349999999836,50,0.08746350000000191
28791,31.06766074999999,36,0.08746350000000191,54,0.08746349999999836
28792,31.15512424999999,38,0.08746349999999836,50,0.08746350000000191
28793,31.24258774999999,43,0.08746350000000191,61,0.08746349999999836
28794,31.33005124999999,38,0.08746349999999836,50,0.08746350000000191
28795,31.41751474999999,48,0.08746350000000191,54,0.08746349999999836
28796,31.50497824999999,50,0.08746349999999836,49,0.08746350000000191
28797,31.592441749999992,55,0.08746350000000191,62,0.08746349999999836
28798,31.67990524999999,50,0.08746349999999836,50,0.08746350000000191
28799,31.767368749999992,60,0.08746350000000191,54,0.08746349999999836
28800,31.85483224999999,62,0.08746349999999836,50,0.08746350000000191
28801,31.942295749999992,67,0.08746350000000191,62,0.08746349999999836
28802,32.02975924999999,62,0.08746349999999836,50,0.08746349999999836
28803,32.11722274999999,72,0.08746349999999836,54,0.08746349999999836
28804,32.20468624999999,74,0.08746349999999836,50,0.08746350000000547
28805,32.29214974999999,79,0.08746350000000547,62,0.08746349999999836
28806,32.37961324999999,74,0.08746349999999836,49,0.08746349999999836
28807,32.46707674999999,71,0.08746349999999836,54,0.08746349999999836
28808,32.55454024999999,62,0.08746349999999836,49,0.08746350000000547
28809,32.64200374999999,67,0.08746350000000547,61,0.08746349999999836
28810,32.72946724999999,62,0.08746349999999836,50,0.08746349999999836
28811,32.81693074999999,59,0.08746349999999836,54,0.08746349999999836
28812,32.90439424999999,50,0.08746349999999836,50,0.08746350000000547
28813,32.991857749999994,55,0.08746350000000547,61,0.08746349999999836
28814,33.07932124999999,50,0.08746349999999836,50,0.08746349999999836
28815,33.16678474999999,47,0.08746349999999836,54,0.08746349999999836
28816,33.25424824999999,38,0.08746349999999836,50,0.08746349999999836
28817,33.34171174999999,43,0.08746349999999836,53,0.08746350000000547
28818,33.42917524999999,38,0.08746350000000547,50,0.08746349999999836
28819,33.51663874999999,35,0.08746349999999836,54,0.08746349999999836
28820,33.60410224999999,26,0.08746349999999836,49,0.09146350000000325
28821,33.69556574999999,24,0.09146350000000325,68,1.3793119999999988
28822,33.781772749999995,31,0.0862070000000017,50,0.0862070000000017
28823,33.867979749999996,36,0.0862070000000017,54,0.0862069999999946
28824,33.95418674999999,40,0.0862069999999946,50,0.0862070000000017
28825,34.04039374999999,46,0.0862070000000017,61,0.0862070000000017
28826,34.126600749999994,43,0.0862070000000017,50,0.0862070000000017
28827,34.212807749999996,48,0.0862070000000017,54,0.0862069999999946
28828,34.29901474999999,52,0.0862069999999946,51,0.0862070000000017
28829,34.38522174999999,58,0.0862070000000017,62,0.0862070000000017
28830,34.471428749999994,55,0.0862070000000017,50,0.0862070000000017
28831,34.557635749999996,60,0.0862070000000017,55,0.0862069999999946
28832,34.64384274999999,64,0.0862069999999946,50,0.0862070000000017
28833,34.73004974999999,70,0.0862070000000017,63,0.0862070000000017
28834,34.816256749999994,64,0.0862070000000017,52,0.0862070000000017
28835,34.902463749999995,60,0.0862070000000017,57,0.0862069999999946
28836,34.98867074999999,55,0.0862069999999946,52,0.0862070000000017
28837,35.07487774999999,29,0.0862070000000017,69,1.3913159999999962
28838,35.16158299999999,63,0.0867052500000014,52,0.0867052500000014
28839,35.248288249999995,60,0.0867052500000014,57,0.0867052499999943
28840,35.33499349999999,55,0.0867052499999943,52,0.0867052500000014
28841,35.42169874999999,58,0.0867052500000014,65,0.0867052500000014
28842,35.50840399999999,51,0.0867052500000014,53,0.0867052500000014
28843,35.59510924999999,48,0.0867052500000014,57,0.0867052500000014
28844,35.681814499999994,43,0.0867052500000014,53,0.0867052499999943
28845,35.76851974999999,46,0.0867052499999943,65,0.0872092500000008
28846,35.85572899999999,39,0.0872092500000008,53,0.0872092500000008
28847,35.94293824999999,36,0.0872092500000008,57,0.0872092500000008
28848,36.03014749999999,31,0.0872092500000008,53,0.0872092500000008
28849,36.11735674999999,45,0.0872092500000008,64,0.08720924999999369
28850,36.204565999999986,39,0.08720924999999369,56,0.0872092500000008
28851,36.291775249999986,36,0.0872092500000008,56,0.0872092500000008
28852,36.37898449999999,29,0.0872092500000008,52,0.0872092500000008
28853,36.46619374999999,22,0.0872092500000008,80,2.7622372500000054
28854,36.55240074999999,29,0.0862070000000017,59,0.0862070000000017
28855,36.63860774999999,34,0.0862070000000017,64,0.0862069999999946
28856,36.724814749999986,39,0.0862069999999946,60,0.0862070000000017
28857,36.81102174999999,44,0.0862070000000017,72,0.0862070000000017
28858,36.89722874999999,41,0.0862070000000017,59,0.0862070000000017
28859,36.98343574999999,46,0.0862070000000017,64,0.0862069999999946
28860,37.069642749999986,51,0.0862069999999946,62,0.0862070000000017
28861,37.15584974999999,56,0.0862070000000017,73,0.0862070000000017
28862,37.24205674999999,53,0.0862070000000017,63,0.0862070000000017
28863,37.32826374999999,58,0.0862070000000017,67,0.0862069999999946
28864,37.414470749999985,63,0.0862069999999946,62,0.0862070000000017
28865,37.50067774999999,68,0.0862070000000017,72,0.0862070000000017
28866,37.58688474999999,65,0.0862070000000017,64,0.0862070000000017
28867,37.67309174999999,70,0.0862070000000017,67,0.0862069999999946
28868,37.759298749999985,75,0.0862069999999946,64,0.0862070000000017
28869,37.84550574999999,80,0.0862070000000017,74,0.0862070000000017
28870,37.93171274999999,74,0.0862070000000017,64,0.0862070000000017
28871,38.01791974999999,70,0.0862070000000017,68,0.0862069999999946
28872,38.104126749999985,65,0.0862069999999946,64,0.0862070000000017
28873,38.190333749999986,68,0.0862070000000017,74,0.0862070000000017
28874,38.27654074999999,62,0.0862070000000017,65,0.0862070000000017
28875,38.36274774999999,58,0.0862070000000017,68,0.0862069999999946
28876,38.448954749999984,53,0.0862069999999946,64,0.0862070000000017
28877,38.535161749999986,56,0.0862070000000017,72,0.0862070000000017
28878,38.62136874999999,50,0.0862070000000017,64,0.0862070000000017
28879,38.70757574999999,46,0.0862070000000017,68,0.0862070000000017
28880,38.79378274999999,41,0.0862070000000017,68,0.0862069999999946
28881,38.879989749999986,44,0.0862069999999946,72,0.0862070000000017
28882,38.96619674999999,38,0.0862070000000017,62,0.0862070000000017
28883,39.05240374999999,34,0.0862070000000017,67,0.0862070000000017
28884,39.13861074999999,29,0.0862070000000017,64,0.08982025000000249
28885,39.22843099999999,27,0.08982025000000249,95,1.3865629999999953
28886,39.314637999999995,27,0.0862070000000017,71,0.0862070000000017
28887,39.400845,34,0.0862070000000017,76,0.0862069999999946
28888,39.48705199999999,37,0.0862069999999946,72,0.0862070000000017
28889,39.57325899999999,43,0.0862070000000017,80,0.0862070000000017
28890,39.659465999999995,39,0.0862070000000017,72,0.0862070000000017
28891,39.745673,46,0.0862070000000017,76,0.0862069999999946
28892,39.83187999999999,49,0.0862069999999946,73,0.0862070000000017
28893,39.91808699999999,55,0.0862070000000017,85,0.0862070000000017
28894,40.004293999999994,51,0.0862070000000017,73,0.0862070000000017
28895,40.090500999999996,58,0.0862070000000017,77,0.0862069999999946
28896,40.17670799999999,61,0.0862069999999946,73,0.0862070000000017
28897,40.26291499999999,67,0.0862070000000017,86,0.0862070000000017
28898,40.349121999999994,63,0.0862070000000017,75,0.0862070000000017
28899,40.435328999999996,70,0.0862070000000017,78,0.0862069999999946
28900,40.52153599999999,75,0.0862069999999946,75,0.09345799999999826
28901,40.61499399999999,21,0.09345799999999826,96,1.387284000000001
28902,40.70169924999999,73,0.0867052500000014,75,0.0867052500000014
28903,40.78840449999999,66,0.0867052500000014,79,0.0867052499999943
28904,40.875109749999986,63,0.0867052499999943,74,0.0867052500000014
28905,40.96181499999999,66,0.0867052500000014,87,0.0867052500000014
28906,41.04852024999999,61,0.0867052500000014,74,0.0867052500000014
28907,41.13522549999999,54,0.0867052500000014,78,0.0867052500000014
28908,41.22193074999999,51,0.0867052500000014,73,0.0867052499999943
28909,41.308635999999986,54,0.0867052499999943,85,0.0867052500000014
28910,41.39534124999999,49,0.0867052500000014,74,0.0867052500000014
28911,41.48204649999999,42,0.0867052500000014,76,0.0867052500000014
28912,41.56875174999999,39,0.0867052500000014,73,0.0867052500000014
28913,41.65545699999999,42,0.0867052500000014,83,0.0867052499999943
28914,41.742162249999986,37,0.0867052499999943,72,0.0867052500000014
28915,41.82886749999999,30,0.0867052500000014,76,0.0867052500000014
28916,41.91557274999999,27,0.0867052500000014,72,0.0867052500000014
28917,42.00227799999999,20,0.0867052500000014,97,1.387284000000001
28918,42.08898324999999,27,0.0867052500000014,72,0.0867052499999943
28919,42.175688499999985,30,0.0867052499999943,76,0.0867052500000014
28920,42.26239374999999,36,0.0867052500000014,73,0.0867052500000014
28921,42.34909899999999,42,0.0867052500000014,79,0.0867052500000014
28922,42.43580424999999,39,0.0867052500000014,71,0.0867052500000014
28923,42.52250949999999,42,0.0867052500000014,76,0.0867052499999943
28924,42.609214749999985,48,0.0867052499999943,73,0.0867052500000014
28925,42.69591999999999,54,0.0867052500000014,82,0.0867052500000014
28926,42.78262524999999,51,0.0867052500000014,75,0.0867052500000014
28927,42.86933049999999,54,0.0867052500000014,77,0.0867052500000014
28928,42.95603574999999,60,0.0867052500000014,74,0.0867052500000014
28929,43.04274099999999,66,0.0867052500000014,85,0.0867052499999943
28930,43.12944624999999,63,0.0867052499999943,75,0.0867052500000014
28931,43.21615149999999,66,0.0867052500000014,78,0.0867052500000014
28932,43.30285674999999,72,0.0867052500000014,75,0.0867052500000014
28933,43.38956199999999,26,0.0867052500000014,100,1.393349999999998
28934,43.47626724999999,71,0.0867052500000014,73,0.0867052499999943
28935,43.56297249999999,66,0.0867052499999943,77,0.0867052500000014
28936,43.64967774999999,62,0.0867052500000014,73,0.0867052500000014
28937,43.73638299999999,66,0.0867052500000014,85,0.0867052500000014
28938,43.82308824999999,59,0.0867052500000014,71,0.0867052500000014
28939,43.90979349999999,54,0.0867052500000014,76,0.0867052499999943
28940,43.996498749999986,50,0.0867052499999943,71,0.0867052500000014
28941,44.08320399999999,54,0.0867052500000014,80,0.08746349999999836
28942,44.170667499999986,47,0.08746349999999836,70,0.08746349999999836
28943,44.258130999999985,42,0.08746349999999836,72,0.08746350000000547
28944,44.34559449999999,38,0.08746350000000547,67,0.08746349999999836
28945,44.43305799999999,42,0.08746349999999836,71,0.08746349999999836
28946,44.52052149999999,35,0.08746349999999836,65,0.08746349999999836
28947,44.607984999999985,30,0.08746349999999836,69,0.08746350000000547
28948,44.69544849999999,26,0.08746350000000547,66,0.08746349999999836
28949,44.78291199999999,13,0.08746349999999836,84,2.7988319999999973
28950,44.87037549999999,25,0.08746349999999836,66,0.08746349999999836
28951,44.957838999999986,32,0.08746349999999836,70,0.08746350000000547
28952,45.04530249999999,35,0.08746350000000547,67,0.08746349999999836
28953,45.13276599999999,41,0.08746349999999836,76,0.08746349999999836
28954,45.22022949999999,37,0.08746349999999836,64,0.08746349999999836
28955,45.307692999999986,44,0.08746349999999836,69,0.08746349999999836
28956,45.395156499999985,47,0.08746349999999836,65,0.08746350000000547
28957,45.48261999999999,53,0.08746350000000547,76,0.08746349999999836
28958,45.57008349999999,49,0.08746349999999836,66,0.08746349999999836
28959,45.65754699999999,56,0.08746349999999836,71,0.08746349999999836
28960,45.745010499999985,59,0.08746349999999836,67,0.08746350000000547
28961,45.83247399999999,65,0.08746350000000547,76,0.08746349999999836
28962,45.91993749999999,61,0.08746349999999836,65,0.08746349999999836
28963,46.00740099999999,68,0.08746349999999836,71,0.08746349999999836
28964,46.094864499999986,71,0.08746349999999836,67,0.08746349999999836
28965,46.182327999999984,25,0.08746349999999836,87,1.3994160000000022
28966,46.26979149999999,71,0.08746350000000547,70,0.08746349999999836
28967,46.35725499999999,67,0.08746349999999836,74,0.08746349999999836
28968,46.444718499999986,61,0.08746349999999836,70,0.08746349999999836
28969,46.532181999999985,65,0.08746349999999836,84,0.08746350000000547
28970,46.61964549999999,59,0.08746350000000547,71,0.08746349999999836
28971,46.70710899999999,55,0.08746349999999836,76,0.08746349999999836
28972,46.79457249999999,49,0.08746349999999836,71,0.08746349999999836
28973,46.882035999999985,53,0.08746349999999836,87,0.08746350000000547
28974,46.96949949999999,47,0.08746350000000547,72,0.08746349999999836
28975,47.05696299999999,43,0.08746349999999836,76,0.08746349999999836
28976,47.14442649999999,37,0.08746349999999836,70,0.08746349999999836
28977,47.231889999999986,41,0.08746349999999836,86,0.08746350000000547
28978,47.31935349999999,35,0.08746350000000547,71,0.08746349999999836
28979,47.40681699999999,31,0.08746349999999836,76,0.08746349999999836
28980,47.49428049999999,25,0.08746349999999836,72,0.08746349999999836
28981,47.581743999999986,24,0.08746349999999836,94,2.7717547499999995
28982,47.66795099999999,24,0.0862070000000017,72,0.0862070000000017
28983,47.75415799999999,31,0.0862070000000017,76,0.0862069999999946
28984,47.840364999999984,36,0.0862069999999946,72,0.0862070000000017
28985,47.926571999999986,40,0.0862070000000017,81,0.0862070000000017
28986,48.01277899999999,36,0.0862070000000017,70,0.0862070000000017
28987,48.09898599999999,43,0.0862070000000017,76,0.0862069999999946
28988,48.185192999999984,48,0.0862069999999946,74,0.0862070000000017
28989,48.271399999999986,52,0.0862070000000017,83,0.0862070000000017
28990,48.35760699999999,48,0.0862070000000017,74,0.0862070000000017
28991,48.44381399999999,55,0.0862070000000017,77,0.0862069999999946
28992,48.530020999999984,60,0.0862069999999946,73,0.0862070000000017
28993,48.616227999999985,64,0.0862070000000017,85,0.0862070000000017
28994,48.70243499999999,60,0.0862070000000017,74,0.0862070000000017
28995,48.78864199999999,67,0.0862070000000017,78,0.0862069999999946
28996,48.87484899999998,72,0.0862069999999946,74,0.0862070000000017
28997,48.961055999999985,76,0.0862070000000017,87,0.0862070000000017
28998,49.04726299999999,72,0.0862070000000017,74,0.0862070000000017
28999,49.13346999999999,67,0.0862070000000017,79,0.0862069999999946
29000,49.21967699999998,60,0.0862069999999946,74,0.0862070000000017
29001,49.305883999999985,64,0.0862070000000017,85,0.0862070000000017
29002,49.392090999999986,60,0.0862070000000017,72,0.0862070000000017
29003,49.47829799999999,55,0.0862070000000017,77,0.0862069999999946
29004,49.56450499999998,48,0.0862069999999946,72,0.0862070000000017
29005,49.650711999999984,52,0.0862070000000017,86,0.0862070000000017
29006,49.736918999999986,48,0.0862070000000017,72,0.0862070000000017
29007,49.82312599999999,43,0.0862070000000017,74,0.0862070000000017
29008,49.90933299999999,36,0.0862070000000017,69,0.0862069999999946
29009,49.995539999999984,40,0.0862069999999946,84,0.0862070000000017
29010,50.081746999999986,36,0.0862070000000017,68,0.0862070000000017
29011,50.16795399999999,31,0.0862070000000017,72,0.0862070000000017
29012,50.25416099999999,24,0.0862070000000017,68,0.09933774999999656
29013,50.353498749999986,17,0.09933774999999656,90,1.391303999999998
29014,50.440455249999985,24,0.08695649999999944,69,0.08695649999999944
29015,50.527411749999985,29,0.08695649999999944,72,0.08695649999999944
29016,50.614368249999984,33,0.08695649999999944,69,0.08695649999999944
29017,50.70132474999998,39,0.08695649999999944,74,0.08695649999999944
29018,50.78828124999998,36,0.08695649999999944,68,0.08695649999999944
29019,50.87523774999998,41,0.08695649999999944,71,0.08695650000000654
29020,50.96219424999999,45,0.08695650000000654,66,0.08695649999999944
29021,51.04915074999999,51,0.08695649999999944,74,0.08695649999999944
29022,51.13610724999999,48,0.08695649999999944,66,0.08695649999999944
29023,51.22306374999999,53,0.08695649999999944,71,0.08695649999999944
29024,51.31002024999999,57,0.08695649999999944,68,0.08695649999999944
29025,51.396976749999986,63,0.08695649999999944,75,0.08695649999999944
29026,51.483933249999986,60,0.08695649999999944,67,0.08695649999999944
29027,51.570889749999985,65,0.08695649999999944,70,0.08695649999999944
29028,51.657846249999984,69,0.08695649999999944,67,0.08695649999999944
29029,51.744802749999984,22,0.08695649999999944,84,1.405120249999996
29030,51.83226624999998,68,0.08746349999999836,68,0.08746349999999836
29031,51.91972974999998,65,0.08746349999999836,71,0.08746350000000547
29032,52.007193249999986,58,0.08746350000000547,68,0.08746349999999836
29033,52.094656749999984,63,0.08746349999999836,73,0.08746349999999836
29034,52.18212024999998,56,0.08746349999999836,66,0.08746349999999836
29035,52.26958374999998,53,0.08746349999999836,69,0.08746350000000547
29036,52.35704724999999,46,0.08746350000000547,63,0.08746349999999836
29037,52.444510749999985,51,0.08746349999999836,74,0.08746349999999836
29038,52.53197424999998,44,0.08746349999999836,63,0.08746349999999836
29039,52.61943774999998,41,0.08746349999999836,66,0.08746350000000547
29040,52.70690124999999,34,0.08746350000000547,62,0.08746349999999836
29041,52.794364749999986,38,0.08746349999999836,76,0.08746349999999836
29042,52.881828249999984,32,0.08746349999999836,64,0.08746349999999836
29043,52.96929174999998,29,0.08746349999999836,61,0.08746349999999836
29044,53.05675524999998,22,0.08746349999999836,64,0.09316774999999922
29045,53.14992299999998,15,0.09316774999999922,79,1.387284000000001
29046,53.23662824999998,22,0.0867052500000014,64,0.0867052500000014
29047,53.32333349999998,27,0.0867052500000014,61,0.0867052499999943
29048,53.41003874999998,31,0.0867052499999943,64,0.0867052500000014
29049,53.49674399999998,38,0.0867052500000014,74,0.0867052500000014
29050,53.58344924999998,34,0.0867052500000014,61,0.0867052500000014
29051,53.67015449999998,39,0.0867052500000014,61,0.0867052500000014
29052,53.75685974999998,43,0.0867052500000014,65,0.0867052499999943
29053,53.84356499999998,50,0.0867052499999943,72,0.0867052500000014
29054,53.93027024999998,46,0.0867052500000014,61,0.0867052500000014
29055,54.01697549999998,51,0.0867052500000014,66,0.0867052500000014
29056,54.10368074999998,55,0.0867052500000014,61,0.0867052500000014
29057,54.19038599999998,62,0.0867052500000014,73,0.0867052499999943
29058,54.27709124999998,58,0.0867052499999943,64,0.0867052500000014
29059,54.36379649999998,63,0.0867052500000014,66,0.0867052500000014
29060,54.45050174999998,67,0.0867052500000014,63,0.0867052500000014
29061,54.53720699999998,20,0.0867052500000014,78,1.3953479999999985
29062,54.62441624999998,67,0.0872092500000008,65,0.0872092500000008
29063,54.71162549999998,63,0.0872092500000008,67,0.0872092500000008
29064,54.79883474999998,56,0.0872092500000008,67,0.0872092500000008
29065,54.886043999999984,62,0.0872092500000008,74,0.08720924999999369
29066,54.97325324999998,55,0.08720924999999369,64,0.0872092500000008
29067,55.06046249999998,51,0.0872092500000008,66,0.0872092500000008
29068,55.14767174999998,44,0.0872092500000008,61,0.0872092500000008
29069,55.23488099999998,50,0.0872092500000008,73,0.0872092500000008
29070,55.32209024999998,43,0.0872092500000008,66,0.0872092500000008
29071,55.40929949999998,39,0.0872092500000008,61,0.0872092500000008
29072,55.49650874999998,32,0.0872092500000008,62,0.0872092500000008
29073,55.58371799999998,36,0.0872092500000008,74,0.0872092500000008
29074,55.670927249999984,31,0.0872092500000008,60,0.08720924999999369
29075,55.75813649999998,27,0.08720924999999369,64,0.0872092500000008
29076,55.84534574999998,20,0.0872092500000008,61,0.0872092500000008
29077,55.93255499999998,14,0.0872092500000008,84,1.3953479999999985
29078,56.01976424999998,20,0.0872092500000008,65,0.0872092500000008
29079,56.10697349999998,26,0.0872092500000008,68,0.0872092500000008
29080,56.19418274999998,29,0.0872092500000008,64,0.0872092500000008
29081,56.28139199999998,36,0.0872092500000008,77,0.0872092500000008
29082,56.36860124999998,32,0.0872092500000008,63,0.0872092500000008
29083,56.455810499999984,38,0.0872092500000008,68,0.08720924999999369
29084,56.54301974999998,41,0.08720924999999369,66,0.0872092500000008
29085,56.63022899999998,48,0.0872092500000008,74,0.0872092500000008
29086,56.71743824999998,44,0.0872092500000008,64,0.0872092500000008
29087,56.80464749999998,50,0.0872092500000008,68,0.0872092500000008
29088,56.89185674999998,53,0.0872092500000008,63,0.0872092500000008
29089,56.97906599999998,60,0.0872092500000008,74,0.0872092500000008
29090,57.06627524999998,56,0.0872092500000008,64,0.0872092500000008
29091,57.15348449999998,62,0.0872092500000008,68,0.0872092500000008
29092,57.240693749999984,65,0.0872092500000008,64,0.08720924999999369
29093,57.32790299999998,19,0.08720924999999369,85,0.6916420000000016
29094,57.41435824999998,65,0.0864552500000002,65,0.0864552500000002
29095,57.50081349999998,62,0.0864552500000002,68,0.0864552500000002
29096,57.58726874999998,55,0.0864552500000002,65,0.0864552500000002
29097,57.67372399999998,58,0.0864552500000002,75,0.0864552500000002
29098,57.76017924999998,53,0.0864552500000002,65,0.0864552500000002
29099,57.84663449999998,50,0.0864552500000002,68,0.0864552500000002
29100,57.93308974999998,43,0.0864552500000002,64,0.0864552500000002
29101,58.01954499999998,24,0.0864552500000002,85,0.7048370000000048
29102,58.10700849999998,51,0.08746349999999836,64,0.08746349999999836
29103,58.194471999999976,58,0.08746349999999836,68,0.08746350000000547
29104,58.28193549999998,55,0.08746350000000547,64,0.08746349999999836
29105,58.36939899999998,60,0.08746349999999836,75,0.08746349999999836
29106,58.45686249999998,63,0.08746349999999836,65,0.08746349999999836
29107,58.54432599999998,70,0.08746349999999836,69,0.08746350000000547
29108,58.63178949999998,67,0.08746350000000547,65,0.09259250000000208
29109,58.724381999999984,17,0.09259250000000208,88,0.6916420000000016
29110,58.810837249999985,63,0.0864552500000002,67,0.0864552500000002
29111,58.897292499999985,60,0.0864552500000002,70,0.0864552500000002
29112,58.983747749999985,53,0.0864552500000002,66,0.0864552500000002
29113,59.070202999999985,56,0.0864552500000002,77,0.0864552500000002
29114,59.156658249999985,51,0.0864552500000002,67,0.0864552500000002
29115,59.243113499999986,48,0.0864552500000002,72,0.0864552500000002
29116,59.329568749999986,41,0.0864552500000002,67,0.0864552500000002
29117,59.416023999999986,22,0.0864552500000002,88,0.703708000000006
29118,59.503487499999984,50,0.08746349999999836,66,0.08746349999999836
29119,59.59095099999998,56,0.08746349999999836,72,0.08746350000000547
29120,59.67841449999999,53,0.08746350000000547,68,0.08746349999999836
29121,59.76587799999999,58,0.08746349999999836,78,0.08746349999999836
29122,59.853341499999985,62,0.08746349999999836,68,0.08746349999999836
29123,59.94080499999998,68,0.08746349999999836,74,0.08746350000000547
29124,60.02826849999999,65,0.08746350000000547,68,0.09146350000000325
29125,60.11973199999999,15,0.09146350000000325,94,0.6916420000000016
29126,60.20618724999999,62,0.0864552500000002,70,0.0864552500000002
29127,60.29264249999999,58,0.0864552500000002,75,0.0864552500000002
29128,60.37909774999999,51,0.0864552500000002,70,0.0864552500000002
29129,60.46555299999999,55,0.0864552500000002,83,0.0864552500000002
29130,60.55200824999999,50,0.0864552500000002,70,0.0864552500000002
29131,60.63846349999999,46,0.0864552500000002,76,0.0864552500000002
29132,60.72491874999999,39,0.0864552500000002,70,0.0864552500000002
29133,60.811373999999994,20,0.0864552500000002,97,0.6997080000000011
29134,60.89883749999999,48,0.08746349999999836,71,0.08746349999999836
29135,60.98630099999999,55,0.08746349999999836,77,0.08746350000000547
29136,61.073764499999996,51,0.08746350000000547,71,0.08746349999999836
29137,61.161227999999994,56,0.08746349999999836,86,0.08746349999999836
29138,61.24869149999999,60,0.08746349999999836,73,0.08746349999999836
29139,61.33615499999999,67,0.08746349999999836,79,0.08746350000000547
29140,61.423618499999996,63,0.08746350000000547,75,0.08746349999999836
29141,61.511081999999995,26,0.08746349999999836,101,1.034483999999999
29142,61.597288999999996,60,0.0862070000000017,76,0.0862070000000017
29143,61.683496,56,0.0862070000000017,80,0.0862069999999946
29144,61.76970299999999,50,0.0862069999999946,75,0.0862070000000017
29145,61.855909999999994,53,0.0862070000000017,90,0.0862070000000017
29146,61.942116999999996,48,0.0862070000000017,76,0.0862070000000017
29147,62.028324,44,0.0862070000000017,80,0.0862069999999946
29148,62.11453099999999,38,0.0862069999999946,74,0.0862070000000017
29149,62.200737999999994,41,0.0862070000000017,90,0.0862070000000017
29150,62.286944999999996,36,0.0862070000000017,75,0.0862070000000017
29151,62.373152,32,0.0862070000000017,80,0.0862069999999946
29152,62.45935899999999,26,0.0862069999999946,75,0.0862070000000017
29153,62.545565999999994,14,0.0862070000000017,102,1.394843999999999
29154,62.905925999999994,26,0.36036,100,1.034483999999999
29155,62.992132999999995,60,0.0862070000000017,75,0.0862070000000017
29156,63.07834,57,0.0862070000000017,80,0.0862069999999946
29157,63.16454699999999,50,0.0862069999999946,75,0.0862070000000017
29158,63.25075399999999,54,0.0862070000000017,91,0.0862070000000017
29159,63.336960999999995,48,0.0862070000000017,76,0.0862070000000017
29160,63.423168,45,0.0862070000000017,80,0.0862069999999946
29161,63.50937499999999,38,0.0862069999999946,74,0.0862070000000017
29162,63.59558199999999,42,0.0862070000000017,91,0.0862070000000017
29163,63.681788999999995,36,0.0862070000000017,75,0.0862070000000017
29164,63.767996,33,0.0862070000000017,80,0.0862069999999946
29165,63.85420299999999,26,0.0862069999999946,76,0.0862070000000017
29166,63.94040999999999,14,0.0862070000000017,93,0.36363600000000673
29167,64.304046,19,0.36363600000000673,100,2.422789999999992
29168,64.390253,26,0.0862070000000017,76,0.0862070000000017
29169,64.47646,31,0.0862070000000017,80,0.0862070000000017
29170,64.562667,35,0.0862070000000017,76,0.0862070000000017
29171,64.648874,43,0.0862070000000017,91,0.08620699999998749
29172,64.735081,38,0.08620699999998749,76,0.0862070000000017
29173,64.821288,43,0.0862070000000017,80,0.0862070000000017
29174,64.907495,47,0.0862070000000017,77,0.0862070000000017
29175,64.993702,55,0.0862070000000017,91,0.0862070000000017
29176,65.079909,50,0.0862070000000017,76,0.0862070000000017
29177,65.166116,55,0.0862070000000017,80,0.0862070000000017
29178,65.252323,59,0.0862070000000017,76,0.0862070000000017
29179,65.33853,67,0.0862070000000017,91,0.08620699999998749
29180,65.424737,62,0.08620699999998749,75,0.0862070000000017
29181,65.510944,67,0.0862070000000017,80,0.0862070000000017
29182,65.597151,71,0.0862070000000017,75,0.0862070000000017
29183,65.683358,79,0.0862070000000017,91,0.08695649999999944
29184,65.7703145,71,0.08695649999999944,77,0.08695649999999944
29185,65.857271,67,0.08695649999999944,79,0.08695649999999944
29186,65.9442275,62,0.08695649999999944,74,0.08695649999999944
29187,66.031184,67,0.08695649999999944,88,0.08695649999999944
29188,66.1181405,59,0.08695649999999944,72,0.08695649999999944
29189,66.205097,55,0.08695649999999944,76,0.08695649999999944
29190,66.2920535,50,0.08695649999999944,69,0.08695649999999944
29191,66.37901,55,0.08695649999999944,85,0.08695649999999944
29192,66.4659665,47,0.08695649999999944,69,0.08695649999999944
29193,66.55292299999999,43,0.08695649999999944,72,0.08695649999999944
29194,66.63987949999999,38,0.08695649999999944,67,0.08695649999999944
29195,66.72683599999999,17,0.08695649999999944,88,0.36036
29196,66.816926,38,0.09009000000000356,65,0.09009000000000356
29197,66.907016,34,0.09009000000000356,69,0.09008999999998935
29198,66.99710599999999,29,0.09008999999998935,64,0.09009000000000356
29199,67.08719599999999,15,0.09009000000000356,85,2.807511749999989
29200,67.173403,27,0.0862070000000017,64,0.0862070000000017
29201,67.25961,34,0.0862070000000017,68,0.0862070000000017
29202,67.345817,39,0.0862070000000017,63,0.0862070000000017
29203,67.432024,43,0.0862070000000017,72,0.08620699999998749
29204,67.51823099999999,39,0.08620699999998749,63,0.0862070000000017
29205,67.60443799999999,46,0.0862070000000017,68,0.0862070000000017
29206,67.69064499999999,51,0.0862070000000017,65,0.0862070000000017
29207,67.77685199999999,55,0.0862070000000017,76,0.0862070000000017
29208,67.86305899999999,51,0.0862070000000017,64,0.0862070000000017
29209,67.949266,58,0.0862070000000017,70,0.0862070000000017
29210,68.035473,63,0.0862070000000017,64,0.0862070000000017
29211,68.12168,67,0.0862070000000017,77,0.08620699999998749
29212,68.20788699999999,63,0.08620699999998749,65,0.0862070000000017
29213,68.29409399999999,70,0.0862070000000017,70,0.0862070000000017
29214,68.38030099999999,75,0.0862070000000017,65,0.0862070000000017
29215,68.46650799999999,27,0.0862070000000017,78,1.4281997499999903
29216,68.55271499999999,75,0.0862070000000017,66,0.0862070000000017
29217,68.638922,70,0.0862070000000017,71,0.0862070000000017
29218,68.725129,63,0.0862070000000017,68,0.0862070000000017
29219,68.811336,67,0.0862070000000017,77,0.08620699999998749
29220,68.89754299999998,63,0.08620699999998749,66,0.0862070000000017
29221,68.98374999999999,58,0.0862070000000017,70,0.0862070000000017
29222,69.06995699999999,51,0.0862070000000017,65,0.0862070000000017
29223,69.15616399999999,55,0.0862070000000017,76,0.09009000000000356
29224,69.246254,51,0.09009000000000356,65,0.09009000000000356
29225,69.336344,46,0.09009000000000356,69,0.09008999999998935
29226,69.42643399999999,39,0.09008999999998935,63,0.09009000000000356
29227,69.51652399999999,43,0.09009000000000356,75,0.09009000000000356
29228,69.606614,39,0.09009000000000356,63,0.09008999999998935
29229,69.69670399999998,34,0.09008999999998935,68,0.09009000000000356
29230,69.78679399999999,27,0.09009000000000356,63,0.10791374999999448
29231,69.89470774999998,20,0.10791374999999448,85,1.4200812499999955
29232,69.98191699999998,27,0.0872092500000008,64,0.0872092500000008
29233,70.06912624999998,36,0.0872092500000008,68,0.0872092500000008
29234,70.15633549999998,39,0.0872092500000008,64,0.0872092500000008
29235,70.24354474999998,44,0.0872092500000008,78,0.0872092500000008
29236,70.33075399999998,39,0.0872092500000008,64,0.0872092500000008
29237,70.41796324999999,48,0.0872092500000008,69,0.0872092500000008
29238,70.50517249999999,51,0.0872092500000008,67,0.0872092500000008
29239,70.59238174999999,56,0.0872092500000008,82,0.089552249999997
29240,70.68193399999998,51,0.089552249999997,68,0.089552249999997
29241,70.77148624999998,60,0.089552249999997,73,0.08955225000001121
29242,70.86103849999999,63,0.08955225000001121,69,0.089552249999997
29243,70.95059074999999,68,0.089552249999997,83,0.089552249999997
29244,71.04014299999999,63,0.089552249999997,69,0.089552249999997
29245,71.12969524999998,72,0.089552249999997,74,0.089552249999997
29246,71.21924749999998,75,0.089552249999997,70,0.09554149999999595
29247,71.31478899999998,21,0.09554149999999595,91,1.4172297500000042
29248,71.40199824999998,75,0.0872092500000008,70,0.0872092500000008
29249,71.48920749999998,72,0.0872092500000008,77,0.0872092500000008
29250,71.57641674999998,63,0.0872092500000008,71,0.0872092500000008
29251,71.66362599999998,67,0.0872092500000008,89,0.0872092500000008
29252,71.75083524999998,63,0.0872092500000008,72,0.0872092500000008
29253,71.83804449999998,60,0.0872092500000008,79,0.0872092500000008
29254,71.92525374999998,51,0.0872092500000008,73,0.0872092500000008
29255,72.01246299999998,55,0.0872092500000008,89,0.08720924999998658
29256,72.09967224999997,51,0.08720924999998658,73,0.0872092500000008
29257,72.18688149999997,48,0.0872092500000008,78,0.0872092500000008
29258,72.27409074999997,39,0.0872092500000008,72,0.0872092500000008
29259,72.36129999999997,41,0.0872092500000008,90,0.0872092500000008
29260,72.44850924999997,39,0.0872092500000008,72,0.0872092500000008
29261,72.53571849999997,36,0.0872092500000008,79,0.0872092500000008
29262,72.62292774999997,27,0.0872092500000008,71,0.10909100000000649
29263,72.73201874999998,22,0.10909100000000649,101,0.707964000000004
29264,72.82051424999997,26,0.0884954999999934,75,0.08849550000000761
29265,72.90900974999998,34,0.08849550000000761,80,0.0884954999999934
29266,72.99750524999997,38,0.0884954999999934,75,0.08849550000000761
29267,73.08600074999998,41,0.08849550000000761,91,0.0884954999999934
29268,73.17449624999998,38,0.0884954999999934,75,0.08849550000000761
29269,73.26299174999998,46,0.08849550000000761,80,0.0884954999999934
29270,73.35148724999998,50,0.0884954999999934,76,0.08849550000000761
29271,73.43998274999998,21,0.08849550000000761,102,0.3692309999999992
29272,73.53229049999999,50,0.09230775000000335,76,0.09230775000000335
29273,73.62459824999999,58,0.09230775000000335,82,0.09230774999998914
29274,73.71690599999998,62,0.09230774999998914,76,0.09230775000000335
29275,73.80921374999998,19,0.09230775000000335,103,0.37735800000000097
29276,73.90355324999999,62,0.0943395000000038,76,0.09433949999998958
29277,73.99789274999998,70,0.09433949999998958,83,0.0943395000000038
29278,74.09223224999998,72,0.0943395000000038,76,0.0943395000000038
29279,74.18657174999998,17,0.0943395000000038,101,1.4493892499999959
29280,74.27666174999999,72,0.09009000000000356,77,0.09009000000000356
29281,74.36675174999999,69,0.09009000000000356,84,0.09008999999998935
29282,74.45684174999998,63,0.09008999999998935,76,0.09009000000000356
29283,74.54693174999998,65,0.09009000000000356,95,0.09009000000000356
29284,74.63702174999999,60,0.09009000000000356,76,0.09008999999998935
29285,74.72711174999998,57,0.09008999999998935,83,0.09009000000000356
29286,74.81720174999998,51,0.09009000000000356,77,0.09009000000000356
29287,74.90729174999998,53,0.09009000000000356,93,0.09009000000000356
29288,74.99738174999999,48,0.09009000000000356,77,0.09009000000000356
29289,75.08747174999999,45,0.09009000000000356,81,0.09008999999998935
29290,75.17756174999998,39,0.09008999999998935,76,0.09009000000000356
29291,75.26765174999998,41,0.09009000000000356,91,0.09009000000000356
29292,75.35774174999999,36,0.09009000000000356,75,0.09008999999998935
29293,75.44783174999998,33,0.09008999999998935,80,0.09009000000000356
29294,75.53792174999998,27,0.09009000000000356,74,0.09803924999999936
29295,75.63596099999998,22,0.09803924999999936,102,2.7983912499999946
29296,75.72291749999998,27,0.08695649999999944,75,0.08695649999999944
29297,75.80987399999998,32,0.08695649999999944,80,0.08695649999999944
29298,75.89683049999998,35,0.08695649999999944,74,0.08695649999999944
29299,75.98378699999998,41,0.08695649999999944,91,0.08695649999999944
29300,76.07074349999998,39,0.08695649999999944,74,0.08695649999999944
29301,76.15769999999998,44,0.08695649999999944,80,0.08695649999999944
29302,76.24465649999998,47,0.08695649999999944,76,0.08695649999999944
29303,76.33161299999998,53,0.08695649999999944,93,0.08695649999999944
29304,76.41856949999998,51,0.08695649999999944,76,0.08695649999999944
29305,76.50552599999997,56,0.08695649999999944,82,0.08695649999999944
29306,76.59248249999997,59,0.08695649999999944,77,0.08695649999999944
29307,76.67943899999997,65,0.08695649999999944,94,0.08695650000001365
29308,76.76639549999999,63,0.08695650000001365,78,0.08695649999999944
29309,76.85335199999999,68,0.08695649999999944,83,0.08695649999999944
29310,76.94030849999999,71,0.08695649999999944,76,0.08695649999999944
29311,77.02726499999999,77,0.08695649999999944,95,0.08695649999999944
29312,77.11422149999999,70,0.08695649999999944,78,0.08695649999999944
29313,77.20117799999998,68,0.08695649999999944,84,0.08695649999999944
29314,77.28813449999998,62,0.08695649999999944,77,0.08695649999999944
29315,77.37509099999998,65,0.08695649999999944,94,0.08695649999999944
29316,77.46204749999998,58,0.08695649999999944,78,0.08695649999999944
29317,77.54900399999998,56,0.08695649999999944,83,0.08695649999999944
29318,77.63596049999998,50,0.08695649999999944,77,0.08695649999999944
29319,77.72291699999998,53,0.08695649999999944,92,0.08695649999999944
29320,77.80987349999998,46,0.08695649999999944,77,0.08695649999999944
29321,77.89682999999998,44,0.08695649999999944,81,0.08695649999999944
29322,77.98378649999998,38,0.08695649999999944,75,0.08695649999999944
29323,78.07074299999998,42,0.08695649999999944,91,0.08695649999999944
29324,78.15769949999998,34,0.08695649999999944,74,0.08695649999999944
29325,78.24465599999998,32,0.08695649999999944,80,0.08695649999999944
29326,78.33161249999998,26,0.08695649999999944,75,0.1027397499999978
29327,78.43435224999998,27,0.1027397499999978,95,2.776753999999997
29328,78.52055924999998,27,0.0862070000000017,75,0.0862070000000017
29329,78.60676624999998,34,0.0862070000000017,80,0.0862070000000017
29330,78.69297324999998,39,0.0862070000000017,75,0.0862070000000017
29331,78.77918024999998,43,0.0862070000000017,92,0.08620699999998749
29332,78.86538724999997,39,0.08620699999998749,75,0.0862070000000017
29333,78.95159424999997,46,0.0862070000000017,80,0.0862070000000017
29334,79.03780124999997,51,0.0862070000000017,76,0.0862070000000017
29335,79.12400824999997,55,0.0862070000000017,93,0.0862070000000017
29336,79.21021524999998,51,0.0862070000000017,76,0.0862070000000017
29337,79.29642224999998,58,0.0862070000000017,82,0.0862070000000017
29338,79.38262924999998,63,0.0862070000000017,76,0.0862070000000017
29339,79.46883624999998,67,0.0862070000000017,94,0.08620699999998749
29340,79.55504324999997,63,0.08620699999998749,78,0.0862070000000017
29341,79.64125024999997,70,0.0862070000000017,83,0.0862070000000017
29342,79.72745724999997,75,0.0862070000000017,78,0.0862070000000017
29343,79.81366424999997,79,0.0862070000000017,96,0.0862070000000017
29344,79.89987124999998,75,0.0862070000000017,77,0.0862070000000017
29345,79.98607824999998,70,0.0862070000000017,84,0.0862070000000017
29346,80.07228524999998,63,0.0862070000000017,77,0.0862070000000017
29347,80.15849224999998,67,0.0862070000000017,95,0.08620699999998749
29348,80.24469924999997,63,0.08620699999998749,76,0.0862070000000017
29349,80.33090624999997,58,0.0862070000000017,83,0.0862070000000017
29350,80.41711324999997,51,0.0862070000000017,76,0.0862070000000017
29351,80.50332024999997,55,0.0862070000000017,94,0.08746349999999836
29352,80.59078374999997,51,0.08746349999999836,77,0.08746349999999836
29353,80.67824724999997,46,0.08746349999999836,81,0.08746349999999836
29354,80.76571074999997,39,0.08746349999999836,77,0.08746349999999836
29355,80.85317424999997,43,0.08746349999999836,92,0.08746350000001257
29356,80.94063774999998,39,0.08746350000001257,76,0.08746349999999836
29357,81.02810124999998,34,0.08746349999999836,80,0.08746349999999836
29358,81.11556474999998,27,0.08746349999999836,74,0.09554149999999595
29359,81.21110624999997,24,0.09554149999999595,100,2.4368459999999885
29360,81.29781149999997,27,0.0867052499999943,75,0.0867052500000085
29361,81.38451674999997,32,0.0867052500000085,80,0.0867052499999943
29362,81.47122199999997,39,0.0867052499999943,75,0.0867052500000085
29363,81.55792724999998,44,0.0867052500000085,85,0.0867052499999943
29364,81.64463249999997,39,0.0867052499999943,75,0.0867052499999943
29365,81.73133774999997,44,0.0867052499999943,80,0.0867052500000085
29366,81.81804299999997,51,0.0867052500000085,76,0.0867052499999943
29367,81.90474824999997,56,0.0867052499999943,88,0.0867052500000085
29368,81.99145349999998,51,0.0867052500000085,76,0.0867052499999943
29369,82.07815874999997,56,0.0867052499999943,82,0.0867052499999943
29370,82.16486399999997,63,0.0867052499999943,77,0.0867052500000085
29371,82.25156924999997,68,0.0867052500000085,90,0.0867052499999943
29372,82.33827449999997,63,0.0867052499999943,78,0.0867052500000085
29373,82.42497974999998,68,0.0867052500000085,83,0.0867052499999943
29374,82.51168499999997,75,0.0867052499999943,78,0.0867052499999943
29375,82.59839024999997,79,0.0867052499999943,92,0.08746349999999836
29376,82.68585374999996,75,0.08746349999999836,78,0.08746349999999836
29377,82.77331724999996,69,0.08746349999999836,84,0.08746349999999836
29378,82.86078074999996,63,0.08746349999999836,78,0.08746349999999836
29379,82.94824424999996,67,0.08746349999999836,91,0.08746350000001257
29380,83.03570774999997,63,0.08746350000001257,79,0.08746349999999836
29381,83.12317124999997,57,0.08746349999999836,83,0.08746349999999836
29382,83.21063474999997,51,0.08746349999999836,76,0.08746349999999836
29383,83.29809824999997,54,0.08746349999999836,90,0.08746349999999836
29384,83.38556174999997,51,0.08746349999999836,78,0.08746349999999836
29385,83.47302524999996,45,0.08746349999999836,81,0.08746349999999836
29386,83.56048874999996,39,0.08746349999999836,75,0.08746349999999836
29387,83.64795224999996,23,0.08746349999999836,101,0.36073650000000157
29388,83.73723799999996,39,0.08928575000000194,74,0.08928575000000194
29389,83.82652374999996,33,0.08928575000000194,80,0.08928575000000194
29390,83.91580949999997,27,0.08928575000000194,73,0.09287924999999575
29391,84.00868874999996,22,0.09287924999999575,95,2.812083000000001
29392,84.09589799999996,27,0.0872092500000008,70,0.0872092500000008
29393,84.18310724999996,34,0.0872092500000008,76,0.0872092500000008
29394,84.27031649999996,39,0.0872092500000008,71,0.0872092500000008
29395,84.35752574999997,41,0.0872092500000008,78,0.0872092500000008
29396,84.44473499999997,39,0.0872092500000008,71,0.0872092500000008
29397,84.53194424999997,46,0.0872092500000008,76,0.0872092500000008
29398,84.61915349999997,51,0.0872092500000008,73,0.0872092500000008
29399,84.70636274999997,53,0.0872092500000008,83,0.08720924999998658
29400,84.79357199999995,51,0.08720924999998658,74,0.0872092500000008
29401,84.88078124999996,58,0.0872092500000008,76,0.0872092500000008
29402,84.96799049999996,63,0.0872092500000008,72,0.0872092500000008
29403,85.05519974999996,65,0.0872092500000008,85,0.0872092500000008
29404,85.14240899999996,63,0.0872092500000008,75,0.0872092500000008
29405,85.22961824999996,70,0.0872092500000008,77,0.0872092500000008
29406,85.31682749999996,75,0.0872092500000008,71,0.0872092500000008
29407,85.40403674999996,77,0.0872092500000008,87,0.08797649999999635
29408,85.49201324999996,74,0.08797649999999635,73,0.08797650000001056
29409,85.57998974999997,70,0.08797650000001056,78,0.08797649999999635
29410,85.66796624999996,62,0.08797649999999635,73,0.08797649999999635
29411,85.75594274999996,65,0.08797649999999635,83,0.08797649999999635
29412,85.84391924999996,62,0.08797649999999635,73,0.08797650000001056
29413,85.93189574999997,58,0.08797650000001056,76,0.08797649999999635
29414,86.01987224999996,50,0.08797649999999635,71,0.08797649999999635
29415,86.10784874999996,53,0.08797649999999635,82,0.08797649999999635
29416,86.19582524999996,50,0.08797649999999635,70,0.08797650000001056
29417,86.28380174999997,46,0.08797650000001056,74,0.08797649999999635
29418,86.37177824999996,38,0.08797649999999635,70,0.08797649999999635
29419,86.45975474999996,41,0.08797649999999635,80,0.08797649999999635
29420,86.54773124999996,38,0.08797649999999635,68,0.08797650000001056
29421,86.63570774999997,34,0.08797650000001056,73,0.08797649999999635
29422,86.72368424999996,26,0.08797649999999635,68,0.09708750000000066
29423,86.82077174999996,21,0.09708750000000066,92,1.3906592499999988
29424,86.90697874999996,27,0.0862070000000017,69,0.0862070000000017
29425,86.99318574999997,36,0.0862070000000017,73,0.0862070000000017
29426,87.07939274999997,39,0.0862070000000017,69,0.0862070000000017
29427,87.16559974999997,41,0.0862070000000017,75,0.08620699999998749
29428,87.25180674999996,39,0.08620699999998749,68,0.0862070000000017
29429,87.33801374999996,48,0.0862070000000017,73,0.0862070000000017
29430,87.42422074999996,51,0.0862070000000017,69,0.0862070000000017
29431,87.51042774999996,53,0.0862070000000017,77,0.08695649999999944
29432,87.59738424999996,51,0.08695649999999944,70,0.08695649999999944
29433,87.68434074999996,60,0.08695649999999944,73,0.08695649999999944
29434,87.77129724999996,63,0.08695649999999944,72,0.08695649999999944
29435,87.85825374999996,65,0.08695649999999944,81,0.08695649999999944
29436,87.94521024999996,63,0.08695649999999944,72,0.08695649999999944
29437,88.03216674999996,72,0.08695649999999944,74,0.08695649999999944
29438,88.11912324999996,75,0.08695649999999944,69,0.09230775000000335
29439,88.21143099999996,20,0.09230775000000335,90,1.3913062499999995
29440,88.29763799999996,75,0.0862070000000017,70,0.0862070000000017
29441,88.38384499999997,72,0.0862070000000017,75,0.0862070000000017
29442,88.47005199999997,63,0.0862070000000017,69,0.0862070000000017
29443,88.55625899999997,66,0.0862070000000017,81,0.08620699999998749
29444,88.64246599999996,63,0.08620699999998749,70,0.0862070000000017
29445,88.72867299999996,60,0.0862070000000017,74,0.0862070000000017
29446,88.81487999999996,51,0.0862070000000017,70,0.0862070000000017
29447,88.90108699999996,54,0.0862070000000017,79,0.0872092500000008
29448,88.98829624999996,50,0.0872092500000008,70,0.0872092500000008
29449,89.07550549999996,48,0.0872092500000008,71,0.0872092500000008
29450,89.16271474999996,38,0.0872092500000008,67,0.0872092500000008
29451,89.24992399999996,42,0.0872092500000008,78,0.0872092500000008
29452,89.33713324999997,38,0.0872092500000008,67,0.0872092500000008
29453,89.42434249999997,36,0.0872092500000008,71,0.0872092500000008
29454,89.51155174999997,26,0.0872092500000008,66,0.09118549999999459
29455,89.60273724999996,19,0.09118549999999459,90,2.7713542500000017
29456,89.68894424999996,26,0.0862070000000017,66,0.0862070000000017
29457,89.77515124999996,35,0.0862070000000017,71,0.0862070000000017
29458,89.86135824999997,38,0.0862070000000017,66,0.0862070000000017
29459,89.94756524999997,43,0.0862070000000017,74,0.08620699999998749
29460,90.03377224999996,38,0.08620699999998749,66,0.0862070000000017
29461,90.11997924999996,47,0.0862070000000017,70,0.0862070000000017
29462,90.20618624999996,50,0.0862070000000017,66,0.0862070000000017
29463,90.29239324999996,55,0.0862070000000017,78,0.0862070000000017
29464,90.37860024999996,50,0.0862070000000017,66,0.0862070000000017
29465,90.46480724999996,59,0.0862070000000017,71,0.0862070000000017
29466,90.55101424999997,62,0.0862070000000017,67,0.0862070000000017
29467,90.63722124999997,67,0.0862070000000017,80,0.08620699999998749
29468,90.72342824999996,62,0.08620699999998749,68,0.0862070000000017
29469,90.80963524999996,71,0.0862070000000017,71,0.0862070000000017
29470,90.89584224999996,74,0.0862070000000017,68,0.0862070000000017
29471,90.98204924999996,31,0.0862070000000017,88,0.693641999999997
29472,91.06875449999995,74,0.0867052499999943,69,0.0867052500000085
29473,91.15545974999996,71,0.0867052500000085,71,0.0867052499999943
29474,91.24216499999996,62,0.0867052499999943,65,0.0867052500000085
29475,91.32887024999997,67,0.0867052500000085,79,0.0867052499999943
29476,91.41557549999996,62,0.0867052499999943,66,0.0867052499999943
29477,91.50228074999995,59,0.0867052499999943,69,0.0867052500000085
29478,91.58898599999996,50,0.0867052500000085,62,0.0867052499999943
29479,91.67569124999996,55,0.0867052499999943,75,0.0867052500000085
29480,91.76239649999997,50,0.0867052500000085,62,0.0867052499999943
29481,91.84910174999996,47,0.0867052499999943,65,0.0867052499999943
29482,91.93580699999995,38,0.0867052499999943,60,0.0867052500000085
29483,92.02251224999996,43,0.0867052500000085,70,0.0867052499999943
29484,92.10921749999996,38,0.0867052499999943,59,0.0867052500000085
29485,92.19592274999997,35,0.0867052500000085,62,0.0867052499999943
29486,92.28262799999996,26,0.0867052499999943,55,0.09146350000000325
29487,92.37409149999996,17,0.09146350000000325,65,1.3793119999999988
29488,92.46029849999996,29,0.0862070000000017,50,0.0862070000000017
29489,92.54650549999997,36,0.0862070000000017,54,0.0862070000000017
29490,92.63271249999997,39,0.0862070000000017,49,0.0862070000000017
29491,92.71891949999997,44,0.0862070000000017,62,0.08620699999998749
29492,92.80512649999996,41,0.08620699999998749,50,0.0862070000000017
29493,92.89133349999996,48,0.0862070000000017,54,0.0862070000000017
29494,92.97754049999996,51,0.0862070000000017,52,0.0862070000000017
29495,93.06374749999996,56,0.0862070000000017,63,0.0862070000000017
29496,93.14995449999996,53,0.0862070000000017,51,0.0862070000000017
29497,93.23616149999997,60,0.0862070000000017,55,0.0862070000000017
29498,93.32236849999997,63,0.0862070000000017,52,0.0862070000000017
29499,93.40857549999997,68,0.0862070000000017,63,0.08620699999998749
29500,93.49478249999996,65,0.08620699999998749,53,0.0862070000000017
29501,93.58098949999996,72,0.0862070000000017,56,0.0862070000000017
29502,93.66719649999996,75,0.0862070000000017,53,0.0862070000000017
29503,93.75340349999996,22,0.0862070000000017,67,1.3829252499999996
29504,93.83961049999996,74,0.0862070000000017,53,0.0862070000000017
29505,93.92581749999997,70,0.0862070000000017,57,0.0862070000000017
29506,94.01202449999997,65,0.0862070000000017,52,0.0862070000000017
29507,94.09823149999997,68,0.0862070000000017,63,0.08620699999998749
29508,94.18443849999996,65,0.08620699999998749,50,0.0862070000000017
29509,94.27064549999996,58,0.0862070000000017,56,0.0862070000000017
29510,94.35685249999996,53,0.0862070000000017,51,0.0862070000000017
29511,94.44305949999996,56,0.0862070000000017,62,0.0862070000000017
29512,94.52926649999996,50,0.0862070000000017,52,0.0862070000000017
29513,94.61547349999996,46,0.0862070000000017,55,0.0862070000000017
29514,94.70168049999997,41,0.0862070000000017,52,0.0862070000000017
29515,94.78788749999997,44,0.0862070000000017,62,0.0862070000000017
29516,94.87409449999997,38,0.0862070000000017,50,0.08620699999998749
29517,94.96030149999996,34,0.08620699999998749,54,0.0862070000000017
29518,95.04650849999996,29,0.0862070000000017,50,0.08982025000000249
29519,95.13632874999996,15,0.08982025000000249,70,2.7830074999999965
29520,95.22253574999996,27,0.0862070000000017,52,0.0862070000000017
29521,95.30874274999996,34,0.0862070000000017,56,0.0862070000000017
29522,95.39494974999997,39,0.0862070000000017,51,0.0862070000000017
29523,95.48115674999997,43,0.0862070000000017,63,0.08620699999998749
29524,95.56736374999996,39,0.08620699999998749,53,0.0862070000000017
29525,95.65357074999996,46,0.0862070000000017,57,0.0862070000000017
29526,95.73977774999996,51,0.0862070000000017,52,0.0862070000000017
29527,95.82598474999996,55,0.0862070000000017,65,0.0862070000000017
29528,95.91219174999996,51,0.0862070000000017,52,0.0862070000000017
29529,95.99839874999996,61,0.0862070000000017,58,0.0862070000000017
29530,96.08460574999997,63,0.0862070000000017,53,0.0862070000000017
29531,96.17081274999997,70,0.0862070000000017,70,0.08620699999998749
29532,96.25701974999996,63,0.08620699999998749,61,0.0862070000000017
29533,96.34322674999996,61,0.0862070000000017,63,0.0862070000000017
29534,96.42943374999996,55,0.0862070000000017,63,0.0862070000000017
29535,96.51564074999996,27,0.0862070000000017,75,1.4036954999999978
29536,96.60310424999996,63,0.08746349999999836,61,0.08746349999999836
29537,96.69056774999996,60,0.08746349999999836,63,0.08746349999999836
29538,96.77803124999996,54,0.08746349999999836,61,0.08746349999999836
29539,96.86549474999995,57,0.08746349999999836,68,0.08746350000001257
29540,96.95295824999997,51,0.08746350000001257,62,0.08746349999999836
29541,97.04042174999996,48,0.08746349999999836,63,0.08746349999999836
29542,97.12788524999996,42,0.08746349999999836,61,0.08746349999999836
29543,97.21534874999996,56,0.08746349999999836,68,0.08746349999999836
29544,97.30281224999996,50,0.08746349999999836,60,0.08746349999999836
29545,97.39027574999996,47,0.08746349999999836,60,0.08746349999999836
29546,97.47773924999996,41,0.08746349999999836,58,0.08746349999999836
29547,97.56520274999995,44,0.08746349999999836,70,0.08746349999999836
29548,97.65266624999995,38,0.08746349999999836,61,0.08746350000001257
29549,97.74012974999997,35,0.08746350000001257,61,0.08746349999999836
29550,97.82759324999996,29,0.08746349999999836,57,0.09174299999999391
29551,97.91933624999996,15,0.09174299999999391,79,1.3793119999999988
29552,98.00554324999996,27,0.0862070000000017,60,0.0862070000000017
29553,98.09175024999996,34,0.0862070000000017,64,0.0862070000000017
29554,98.17795724999996,39,0.0862070000000017,60,0.0862070000000017
29555,98.26416424999996,43,0.0862070000000017,71,0.08620699999998749
29556,98.35037124999995,39,0.08620699999998749,65,0.0862070000000017
29557,98.43657824999995,46,0.0862070000000017,69,0.0862070000000017
29558,98.52278524999996,51,0.0862070000000017,65,0.0862070000000017
29559,98.60899224999996,58,0.0862070000000017,75,0.0862070000000017
29560,98.69519924999996,55,0.0862070000000017,67,0.0862070000000017
29561,98.78140624999996,58,0.0862070000000017,73,0.0862070000000017
29562,98.86761324999996,63,0.0862070000000017,68,0.0862070000000017
29563,98.95382024999996,67,0.0862070000000017,80,0.08620699999998749
29564,99.04002724999995,63,0.08620699999998749,72,0.0862070000000017
29565,99.12623424999995,58,0.0862070000000017,77,0.0862070000000017
29566,99.21244124999996,51,0.0862070000000017,73,0.0862070000000017
29567,99.29864824999996,22,0.0862070000000017,95,1.3904822500000051
29568,99.38485524999996,60,0.0862070000000017,75,0.0862070000000017
29569,99.47106224999996,57,0.0862070000000017,79,0.0862070000000017
29570,99.55726924999996,51,0.0862070000000017,73,0.0862070000000017
29571,99.64347624999996,54,0.0862070000000017,84,0.08620699999998749
29572,99.72968324999995,48,0.08620699999998749,70,0.0862070000000017
29573,99.81589024999995,45,0.0862070000000017,76,0.0862070000000017
29574,99.90209724999995,39,0.0862070000000017,71,0.0862070000000017
29575,99.98830424999996,53,0.0862070000000017,80,0.0872092500000008
29576,100.07551349999996,47,0.0872092500000008,70,0.0872092500000008
29577,100.16272274999996,44,0.0872092500000008,72,0.0872092500000008
29578,100.24993199999996,38,0.0872092500000008,68,0.0872092500000008
29579,100.33714124999996,41,0.0872092500000008,80,0.0872092500000008
29580,100.42435049999996,35,0.0872092500000008,66,0.0872092500000008
29581,100.51155974999996,32,0.0872092500000008,69,0.0872092500000008
29582,100.59876899999996,26,0.0872092500000008,64,0.0903615000000002
29583,100.68913049999996,22,0.0903615000000002,88,2.768774499999992
29584,100.77533749999996,25,0.0862070000000017,60,0.0862070000000017
29585,100.86154449999997,31,0.0862070000000017,64,0.0862070000000017
29586,100.94775149999997,34,0.0862070000000017,61,0.0862070000000017
29587,101.03395849999997,40,0.0862070000000017,76,0.08620699999998749
29588,101.12016549999996,37,0.08620699999998749,64,0.0862070000000017
29589,101.20637249999996,43,0.0862070000000017,69,0.0862070000000017
29590,101.29257949999996,46,0.0862070000000017,64,0.0862070000000017
29591,101.37878649999996,52,0.0862070000000017,75,0.0862070000000017
29592,101.46499349999996,49,0.0862070000000017,66,0.0862070000000017
29593,101.55120049999996,55,0.0862070000000017,73,0.0862070000000017
29594,101.63740749999997,58,0.0862070000000017,69,0.0862070000000017
29595,101.72361449999997,64,0.0862070000000017,80,0.08620699999998749
29596,101.80982149999996,61,0.08620699999998749,71,0.0862070000000017
29597,101.89602849999996,67,0.0862070000000017,77,0.0862070000000017
29598,101.98223549999996,70,0.0862070000000017,73,0.0903615000000002
29599,102.07259699999996,76,0.0903615000000002,84,0.0862070000000017
29600,102.15880399999996,69,0.0862070000000017,75,0.0862070000000017
29601,102.24501099999996,66,0.0862070000000017,79,0.0862070000000017
29602,102.33121799999996,60,0.0862070000000017,72,0.0862070000000017
29603,102.41742499999997,64,0.0862070000000017,82,0.08620699999998749
29604,102.50363199999995,57,0.08620699999998749,71,0.0862070000000017
29605,102.58983899999996,54,0.0862070000000017,76,0.0862070000000017
29606,102.67604599999996,48,0.0862070000000017,69,0.0862070000000017
29607,102.76225299999996,52,0.0862070000000017,81,0.08695649999999944
29608,102.84920949999996,45,0.08695649999999944,68,0.08695649999999944
29609,102.93616599999996,42,0.08695649999999944,72,0.08695649999999944
29610,103.02312249999996,36,0.08695649999999944,68,0.08695649999999944
29611,103.11007899999996,51,0.08695649999999944,78,0.08695649999999944
29612,103.19703549999996,45,0.08695649999999944,65,0.08695649999999944
29613,103.28399199999996,42,0.08695649999999944,69,0.08695649999999944
29614,103.37094849999995,36,0.08695649999999944,64,0.08695649999999944
29615,103.45790499999995,22,0.08695649999999944,89,2.78198633333335
29616,103.54411199999996,35,0.0862070000000017,68,0.0862070000000017
29617,103.63031899999996,41,0.0862070000000017,64,0.0862070000000017
29618,103.71652599999996,44,0.0862070000000017,69,0.0862070000000017
29619,103.80273299999996,51,0.0862070000000017,76,0.08620699999998749
29620,103.88893999999995,47,0.08620699999998749,68,0.0862070000000017
29621,103.97514699999995,53,0.0862070000000017,72,0.0862070000000017
29622,104.06135399999995,56,0.0862070000000017,69,0.0862070000000017
29623,104.14756099999995,63,0.0862070000000017,78,0.0862070000000017
29624,104.23376799999996,59,0.0862070000000017,71,0.0862070000000017
29625,104.31997499999996,65,0.0862070000000017,75,0.0862070000000017
29626,104.40618199999996,68,0.0862070000000017,72,0.0862070000000017
29627,104.49238899999996,75,0.0862070000000017,81,0.08620699999998749
29628,104.57859599999995,68,0.08620699999998749,74,0.0862070000000017
29629,104.66480299999995,65,0.0862070000000017,78,0.0862070000000017
29630,104.75100999999995,59,0.0862070000000017,74,0.0862070000000017
29631,104.83721699999995,74,0.0862070000000017,86,0.0862070000000017
29632,104.92342399999995,68,0.0862070000000017,74,0.0862070000000017
29633,105.00963099999996,65,0.0862070000000017,79,0.0862070000000017
29634,105.09583799999996,58,0.0862070000000017,74,0.0862070000000017
29635,105.18204499999996,62,0.0862070000000017,81,0.0864552500000002
29636,105.26850024999996,56,0.0864552500000002,73,0.0864552500000002
29637,105.35495549999996,53,0.0864552500000002,76,0.0864552500000002
29638,105.44141074999996,46,0.0864552500000002,71,0.0865385833333363
29639,105.5279493333333,50,0.0865385833333363,77,0.0867052499999943
29640,105.61465458333329,44,0.0867052499999943,69,0.0867052500000085
29641,105.7013598333333,41,0.0867052500000085,73,0.0867052499999943
29642,105.7880650833333,34,0.0867052499999943,69,0.0881902500000109
29643,105.8762553333333,38,0.0881902500000109,80,0.09090899999999635
29644,105.9671643333333,32,0.09090899999999635,66,0.09090899999999635
29645,106.0580733333333,29,0.09090899999999635,69,0.09090900000001056
29646,106.14898233333331,22,0.09090900000001056,68,0.09090899999999635
29647,106.2398913333333,15,0.09090899999999635,102,2.8038140000000027
29648,106.3265965833333,22,0.0867052499999943,66,0.0867052500000085
29649,106.4133018333333,31,0.0867052500000085,68,0.0867052499999943
29650,106.5000070833333,34,0.0867052499999943,65,0.0867052500000085
29651,106.58671233333331,39,0.0867052500000085,78,0.0867052499999943
29652,106.6734175833333,34,0.0867052499999943,71,0.0867052499999943
29653,106.7601228333333,43,0.0867052499999943,72,0.0864552500000002
29654,106.8465780833333,46,0.0864552500000002,68,0.0864552500000002
29655,106.9330333333333,51,0.0864552500000002,83,0.0864552500000002
29656,107.0194885833333,46,0.0864552500000002,70,0.0864552500000002
29657,107.1059438333333,55,0.0864552500000002,75,0.0864552500000002
29658,107.1923990833333,58,0.0864552500000002,72,0.0864552500000002
29659,107.2788543333333,63,0.0864552500000002,87,0.0862070000000017
29660,107.3650613333333,58,0.0862070000000017,72,0.0862070000000017
29661,107.4512683333333,67,0.0862070000000017,78,0.09090899999999635
29662,107.5421773333333,70,0.09090899999999635,75,0.09090900000001056
29663,107.63308633333331,75,0.09090900000001056,91,0.08695649999999944
29664,107.72004283333331,70,0.08695649999999944,75,0.08695649999999944
29665,107.80699933333331,67,0.08695649999999944,80,0.0872092500000008
29666,107.89420858333331,58,0.0872092500000008,75,0.0872092500000008
29667,107.98141783333331,63,0.0872092500000008,91,0.08746349999999836
29668,108.06888133333331,58,0.08746349999999836,73,0.08746349999999836
29669,108.1563448333333,55,0.08746349999999836,78,0.08771925000000635
29670,108.24406408333331,46,0.08771925000000635,74,0.08771924999999214
29671,108.3317833333333,51,0.08771924999999214,89,0.08797649999999635
29672,108.4197598333333,46,0.08797649999999635,77,0.08797650000001056
29673,108.50773633333331,43,0.08797650000001056,71,0.08823524999999677
29674,108.59597158333331,34,0.08823524999999677,73,0.08823524999999677
29675,108.6842068333333,39,0.08823524999999677,86,0.0884954999999934
29676,108.7727023333333,34,0.0884954999999934,73,0.08849550000000761
29677,108.8611978333333,31,0.08849550000000761,76,0.08875749999999982
29678,108.9499553333333,22,0.08875749999999982,70,0.09375
29679,109.0437053333333,15,0.09375,102,1.4243320000000068
29680,0.0,35,0.0,79,2.7303759999999997
29681,2.7303759999999997,28,2.7303759999999997,75,0.17407420000000018
29682,2.9044502,35,0.17407420000000018,60,0.12523525000000024
29683,3.02968545,40,0.12523525000000024,64,0.12251166666666657
29684,3.1521971166666667,43,0.12251166666666657,65,0.12176600000000004
29685,3.2739631166666667,40,0.12176600000000004,62,0.12102900000000005
29686,3.394992116666667,35,0.12102900000000005,61,0.12030099999999999
29687,3.5152931166666668,28,0.12030099999999999,57,0.11958166666666692
29688,3.6348747833333337,35,0.11958166666666692,58,0.11887099999999995
29689,3.7537457833333336,40,0.11887099999999995,60,0.11808191666666668
29690,3.8718277000000003,43,0.11808191666666668,60,0.11527525000000027
29691,3.9871029500000006,40,0.11527525000000027,58,0.1174795833333322
29692,4.104582533333333,35,0.1174795833333322,57,0.11799566666666639
29693,4.222578199999999,28,0.11799566666666639,53,0.11678850000000018
29694,4.339366699999999,35,0.11678850000000018,54,0.1175628333333334
29695,4.456929533333333,40,0.1175628333333334,55,0.1181711666666665
29696,4.575100699999999,43,0.1181711666666665,54,0.11670325000000048
29697,4.69180395,40,0.11670325000000048,52,0.11730349999999934
29698,4.809107449999999,35,0.11730349999999934,50,0.11730199999999957
29699,4.926409449999999,28,0.11730199999999957,45,0.11790833333333328
29700,5.044317783333332,35,0.11790833333333328,47,0.12012549999999944
29701,5.164443283333331,40,0.12012549999999944,49,0.12270516666666609
29702,5.2871484499999974,43,0.12270516666666609,46,0.12619741666666684
29703,5.413345866666664,40,0.12619741666666684,43,0.13326924999999967
29704,5.546615116666664,35,0.13326924999999967,38,0.14204833333333333
29705,5.688663449999997,28,0.14204833333333333,22,0.11782099999999929
29706,5.777158949999997,47,0.08849549999999962,37,0.08780499999999947
29707,5.806484449999997,35,0.02932549999999967,25,0.11704474999999981
29708,5.864963949999996,48,0.058479499999999796,41,0.08797700000000042
29709,5.923529199999996,40,0.05856525000000001,28,0.11887566666666682
29710,5.952940949999997,47,0.029411750000000403,38,0.08946391666666642
29711,6.042404866666663,46,0.08946391666666642,39,0.11817066666666687
29712,6.13116378333333,47,0.08875891666666647,40,0.08814899999999959
29713,6.16057553333333,40,0.029411750000000403,28,0.11773483333333257
29714,6.219312783333329,52,0.058737249999999186,42,0.08867116666666686
29715,6.278310366666663,35,0.05899758333333338,27,0.1186065833333334
29716,6.307983949999996,55,0.029673583333333475,43,0.08893299999999993
29717,6.396916949999996,54,0.08893299999999993,45,0.11756283333333428
29718,6.48524003333333,52,0.08832308333333394,43,0.08771925000000014
29719,6.51447978333333,35,0.029239750000000342,28,0.11704474999999892
29720,6.57295928333333,54,0.058479499999999796,45,0.08797699999999953
29721,6.631524533333329,40,0.058565249999999125,30,0.11825699999999983
29722,6.66093628333333,52,0.029411750000000403,43,0.08884524999999943
29723,6.749781533333329,51,0.08884524999999943,44,0.11738924999999956
29724,6.837845283333329,52,0.08806374999999989,46,0.08823574999999995
29725,6.867170783333329,40,0.02932549999999967,28,0.11790725000000002
29726,6.926081033333329,55,0.058910250000000275,49,0.0884955000000005
29727,6.985078033333329,35,0.058996999999999744,27,0.1343495000000008
29728,7.014576533333329,59,0.02949850000000076,47,0.10485100000000003
29729,7.1194275333333294,28,0.10485100000000003,27,0.13042616666666706
29730,7.22017303333333,47,0.10074550000000038,45,0.08885233333333353
29731,7.2498536999999965,35,0.02968066666666669,30,0.11808191666666712
29732,7.309025366666663,48,0.059171666666666844,49,0.08823574999999995
29733,7.367935616666664,40,0.058910250000000275,34,0.11713299999999993
29734,7.397261116666663,47,0.02932549999999967,45,0.08780750000000026
29735,7.485068616666664,46,0.08780750000000026,46,0.11799400000000038
29736,7.573564116666664,47,0.0884955000000005,48,0.08815000000000062
29737,7.603062616666664,40,0.029498499999999872,34,0.11713100000000054
29738,7.661714116666665,52,0.058651500000000745,50,0.08763399999999955
29739,7.7201936166666645,35,0.058479499999999796,33,0.11747699999999917
29740,7.749348116666664,55,0.02915449999999975,51,0.08832249999999942
29741,7.837670616666664,54,0.08832249999999942,54,0.11869699999999916
29742,7.926516866666663,52,0.08884624999999957,51,0.0892862499999989
29743,7.956367616666663,35,0.029850749999999593,33,0.11860716666666526
29744,8.015803116666662,54,0.05943549999999931,53,0.08858341666666547
29745,8.074974783333328,40,0.059171666666665956,36,0.11721675000000076
29746,8.104386533333328,52,0.029411749999999515,51,0.08780500000000124
29747,8.192191533333329,51,0.08780500000000124,52,0.11826158333333225
29748,8.280602366666661,52,0.08841083333333266,54,0.08946341666666591
29749,8.310453116666661,40,0.029850749999999593,34,0.11887208333333277
29750,8.370065783333327,55,0.059612666666666314,57,0.08875791666666721
29751,8.429325199999994,35,0.05925941666666645,32,0.13399175000000163
29752,8.458823699999995,59,0.02949850000000076,55,0.10449325000000087
29753,8.563316949999995,30,0.10449325000000087,31,0.13121866666666726
29754,8.664395199999996,48,0.10107825000000048,55,0.09032891666666742
29755,8.694535616666663,36,0.03014041666666678,35,0.12009749999999997
29756,8.754724116666663,52,0.060188500000000644,55,0.08977224999999933
29757,8.814633116666663,40,0.059908999999999324,39,0.11917791666666666
29758,8.844496366666663,54,0.029863250000000008,58,0.08931466666666665
29759,8.93381103333333,57,0.08931466666666665,61,0.11926799999999993
29760,9.02330828333333,60,0.08949725000000086,64,0.08922216666666571
29761,9.05307903333333,40,0.02977074999999907,39,0.11881275000000002
29762,9.112530449999996,64,0.059451416666666645,67,0.08895066666666729
29763,9.17189178333333,36,0.05936133333333338,37,0.11826824999999985
29764,9.201481116666663,66,0.02958933333333391,70,0.08867891666666594
29765,9.29016003333333,74,0.08867891666666594,74,0.1168742500000004
29766,9.37787978333333,72,0.08771975000000154,72,0.08746350000000014
29767,9.40703428333333,40,0.029154499999998862,40,0.11696050000000113
29768,9.46534328333333,71,0.058309000000001276,71,0.08806325000000115
29769,9.52399478333333,42,0.058651499999999857,44,0.1179072500000018
29770,9.553406533333332,69,0.02941175000000129,70,0.0884955000000005
29771,9.641902033333333,67,0.0884955000000005,69,0.1175652499999984
29772,9.730397533333331,66,0.08849549999999873,68,0.08729399999999998
29773,9.759467283333331,42,0.029069749999999672,44,0.11696150000000038
29774,9.817691533333331,69,0.05822425000000031,67,0.08823575000000083
29775,9.876428783333331,40,0.058737250000000074,41,0.11799399999999949
29776,9.905927283333332,64,0.02949850000000076,66,0.08849549999999873
29777,9.99442278333333,63,0.08849549999999873,68,0.11704525000000032
29778,10.08231353333333,66,0.08789074999999968,63,0.08789275000000174
29779,10.111468033333331,30,0.029154500000000638,35,0.11773525000000085
29780,10.170206283333332,60,0.0587382500000011,63,0.08849549999999873
29781,10.229203283333332,33,0.058996999999999744,38,0.11764750000000035
29782,10.258701783333331,59,0.029498499999998984,63,0.08814900000000137
29783,10.346850783333332,57,0.08814900000000137,60,0.11695899999999959
29784,10.434570033333332,60,0.08771924999999925,58,0.08771925000000103
29785,10.463809783333332,33,0.029239750000000342,36,0.11695899999999959
29786,10.522289283333333,55,0.058479500000000684,54,0.08771924999999925
29787,10.580768783333331,30,0.05847949999999891,34,0.11695900000000137
29788,10.610008533333332,54,0.029239750000000342,54,0.08771925000000103
29789,10.697727783333333,57,0.08771925000000103,53,0.11773024999999926
29790,10.785957783333332,52,0.08822999999999936,48,0.0885898333333337
29791,10.815458033333332,30,0.029500249999999895,31,0.11826824999999985
29792,10.874547616666666,51,0.059089583333333806,48,0.08885933333333185
29793,10.933726283333332,33,0.05917866666666605,33,0.11908658333333477
29794,10.963406949999998,54,0.0296806666666658,47,0.08940591666666897
29795,11.052812866666667,48,0.08940591666666897,45,0.12188549999999942
29796,11.143891199999999,47,0.09107833333333204,42,0.09301424999999952
29797,11.174698366666666,33,0.030807166666667385,29,0.1254229166666665
29798,11.236905449999998,50,0.062207083333332136,42,0.09492566666666669
29799,11.300121283333333,30,0.06321583333333436,26,0.14584783333333284
29800,11.331831116666665,48,0.03170983333333233,41,0.202721416666666
29801,11.445969116666665,28,0.11413800000000052,22,0.11790891666666603
29802,11.534552533333331,47,0.08858341666666547,37,0.08789074999999968
29803,11.563878033333332,35,0.02932550000000056,25,0.11704474999999803
29804,11.62244328333333,48,0.058565249999999125,41,0.08797799999999967
29805,11.68092278333333,40,0.05847949999999891,28,0.11878474999999966
29806,11.71042128333333,47,0.02949850000000076,38,0.0892862499999989
29807,11.79970753333333,46,0.0892862499999989,39,0.11940300000000015
29808,11.88925978333333,47,0.08955225000000056,40,0.08893508333333422
29809,11.91911053333333,40,0.029850749999999593,28,0.1178215833333347
29810,11.978194866666664,52,0.05908433333333463,42,0.08806274999999886
29811,12.036932116666664,35,0.058737250000000074,27,0.11730199999999869
29812,12.066257616666663,55,0.029325499999998783,43,0.0879764999999999
29813,12.154234116666663,54,0.0879764999999999,45,0.1185192500000003
29814,12.24307978333333,52,0.08884566666666771,43,0.08919741666666603
29815,12.272753366666663,35,0.029673583333332587,28,0.1187832499999999
29816,12.332277199999996,54,0.05952383333333344,45,0.08875791666666721
29817,12.391536616666663,40,0.05925941666666645,30,0.11756124999999962
29818,12.421035116666664,52,0.02949850000000076,43,0.08806274999999886
29819,12.509097866666663,51,0.08806274999999886,44,0.11773424999999982
29820,12.597333616666663,52,0.08823575000000083,46,0.08867016666666494
29821,12.626832116666662,40,0.029498499999998984,28,0.11834333333333369
29822,12.686003783333328,55,0.059171666666665956,49,0.0887575000000016
29823,12.745175449999996,35,0.05917166666666773,27,0.1358783333333342
29824,12.77476128333333,59,0.029585833333333866,47,0.10629250000000035
29825,12.88105378333333,28,0.10629250000000035,27,0.13033133333333424
29826,12.98179928333333,47,0.10074550000000038,45,0.08875749999999982
29827,13.011385116666665,35,0.029585833333333866,30,0.11834333333333369
29828,13.07055678333333,49,0.059171666666665956,49,0.08867016666666849
29829,13.129728449999998,37,0.05917166666666773,34,0.11808233333333362
29830,13.159226949999999,47,0.02949850000000076,45,0.08858383333333286
29831,13.247810783333332,46,0.08858383333333286,46,0.11869491666666754
29832,13.336919866666666,47,0.08910908333333367,48,0.08849608333333414
29833,13.3665057,37,0.029585833333333866,34,0.11756124999999962
29834,13.42541595,52,0.058910250000000275,50,0.0881495000000001
29835,13.484066949999999,35,0.05865099999999934,33,0.11869591666666679
29836,13.51356545,55,0.02949850000000076,51,0.08919741666666603
29837,13.602762866666666,54,0.08919741666666603,54,0.11887208333333277
29838,13.692049116666665,52,0.0892862499999989,51,0.08867016666666672
29839,13.721634949999999,35,0.029585833333333866,33,0.11799458333333135
29840,13.780719283333331,54,0.05908433333333285,53,0.08823574999999906
29841,13.83962953333333,37,0.0589102499999985,36,0.11738824999999942
29842,13.86895503333333,52,0.02932550000000056,51,0.08806274999999886
29843,13.95701778333333,51,0.08806274999999886,52,0.11869591666666679
29844,14.04595178333333,52,0.08893400000000007,54,0.0890223333333342
29845,14.075713699999996,37,0.02976191666666672,34,0.11834475000000211
29846,14.134974116666664,55,0.05926041666666748,57,0.08858283333333361
29847,14.194058449999998,35,0.05908433333333463,32,0.13579099999999933
29848,14.223556949999997,59,0.029498499999998984,55,0.10629250000000035
29849,14.329849449999998,54,0.10629250000000035,64,0.13056216666666742
29850,14.430271199999998,55,0.10042175000000064,58,0.09032891666666742
29851,14.460411616666665,35,0.03014041666666678,34,0.12009749999999997
29852,14.520600116666666,54,0.060188500000000644,61,0.08977224999999933
29853,14.580509116666665,38,0.059908999999999324,37,0.11917791666666666
29854,14.610372366666665,53,0.029863250000000008,50,0.08931466666666665
29855,14.699687033333332,54,0.08931466666666665,56,0.11926799999999993
29856,14.789184283333332,62,0.08949725000000086,68,0.08922216666666571
29857,14.818955033333332,38,0.02977074999999907,38,0.11881275000000002
29858,14.878406449999998,61,0.059451416666666645,62,0.08895066666666729
29859,14.937767783333332,35,0.05936133333333338,35,0.11826824999999985
29860,14.967357116666665,59,0.02958933333333391,65,0.08867891666666594
29861,15.056036033333331,58,0.08867891666666594,69,0.11687900000000084
29862,15.143760533333332,67,0.0877245000000002,73,0.08806475000000091
29863,15.172915033333332,37,0.029154500000000638,41,0.11790725000000002
29864,15.231825283333333,66,0.058910250000000275,72,0.08849549999999873
29865,15.290822283333332,40,0.058996999999999744,45,0.11790724999999824
29866,15.320320783333331,64,0.029498499999998984,72,0.08840874999999926
29867,15.40872953333333,62,0.08840874999999926,75,0.11678950000000121
29868,15.496193533333331,61,0.08746400000000065,69,0.0883225000000003
29869,15.525519033333332,40,0.02932550000000056,44,0.11799399999999949
29870,15.584516033333331,59,0.058996999999999744,68,0.0884955000000005
29871,15.643513033333331,37,0.058996999999999744,41,0.11799400000000126
29872,15.673011533333332,58,0.02949850000000076,68,0.0884955000000005
29873,15.761507033333332,61,0.0884955000000005,72,0.11799399999999949
29874,15.850002533333331,59,0.08849549999999873,70,0.08789275000000174
29875,15.879501033333332,30,0.02949850000000076,35,0.11678850000000018
29876,15.937895283333333,62,0.05839425000000098,64,0.08771974999999799
29877,15.996289533333332,35,0.058394249999999204,37,0.1177342500000016
29878,16.02561503333333,53,0.029325499999998783,57,0.08840875000000281
29879,16.114023783333334,55,0.08840875000000281,65,0.11799399999999949
29880,16.20251928333333,54,0.08849549999999695,57,0.08738575000000282
29881,16.232017783333333,35,0.029498500000002537,39,0.11577541666666846
29882,16.289905033333334,59,0.05788725000000028,63,0.08704266666666882
29883,16.3477932,30,0.057888166666668184,37,0.11687374999999989
29884,16.376947700000002,49,0.029154500000000638,57,0.08771924999999925
29885,16.46466695,52,0.08771924999999925,61,0.11773025000000104
29886,16.55289695,50,0.08822999999999936,59,0.0885898333333337
29887,16.582397200000003,30,0.02950025000000167,35,0.11826824999999985
29888,16.641486783333335,54,0.05908958333333203,58,0.0888593333333354
29889,16.700665450000002,35,0.05917866666666782,38,0.11908658333333122
29890,16.73034611666667,46,0.029680666666667577,56,0.08940591666666364
29891,16.819752033333334,49,0.08940591666666364,60,0.12255966666666396
29892,16.911259616666666,47,0.09150758333333187,51,0.09391608333332968
29893,16.942311699999998,35,0.031052083333332092,35,0.12690333333333115
29894,17.005175699999995,46,0.06286399999999759,55,0.09676825000000022
29895,17.06921503333333,30,0.06403933333333356,33,0.1341555000000021
29896,17.101943949999995,47,0.03272891666666666,50,0.10142658333333543
29897,17.20337053333333,47,0.10142658333333543,72,0.13944825000000094
29898,17.30822153333333,59,0.10485100000000003,58,0.10367491666666595
29899,17.342818783333332,28,0.03459725000000091,41,0.137810833333333
29900,17.411896449999997,51,0.06907766666666504,59,0.10298441666666847
29901,17.480629616666665,33,0.06873316666666796,43,0.1365544166666659
29902,17.514880866666665,52,0.03425125000000051,59,0.10230316666666539
29903,17.61718403333333,45,0.10230316666666539,71,0.1353206666666651
29904,17.71870261666666,57,0.10151858333333053,60,0.10106975000000062
29905,17.752504699999996,33,0.033802083333334565,44,0.13453533333333212
29906,17.819772366666662,51,0.06726766666666606,60,0.10090149999999909
29907,17.887040033333328,28,0.06726766666666606,42,0.13442933333333684
29908,17.92067386666666,52,0.03363383333333303,61,0.10079550000000381
29909,18.021469366666665,44,0.10079550000000381,75,0.13411133333333325
29910,18.122052866666664,56,0.10058349999999905,62,0.10068950000000143
29911,18.155580699999998,28,0.0335278333333342,44,0.1344293333333333
29912,18.222742366666665,51,0.06716166666666723,63,0.10090149999999909
29913,18.29001003333333,33,0.06726766666666606,45,0.13475316666666615
29914,18.323643866666664,52,0.03363383333333303,63,0.10111933333333312
29915,18.424763199999997,45,0.10111933333333312,74,0.13507833333333252
29916,18.525991449999996,57,0.10122824999999835,65,0.10187516666666951
29917,18.55984153333333,33,0.03385008333333417,45,0.1366058333333342
29918,18.627866616666665,51,0.06802508333333535,64,0.1030944166666643
29919,18.696447366666664,28,0.06858074999999886,44,0.13884866666666795
29920,18.73096103333333,52,0.034513666666665443,64,0.10433500000000251
29921,18.835296033333332,40,0.10433500000000251,77,0.13695083333333358
29922,18.938504116666667,52,0.10320808333333531,65,0.10090574999999546
29923,18.972246866666666,33,0.03374274999999827,46,0.13443066666666326
29924,19.039409866666663,45,0.0671629999999972,65,0.10090149999999909
29925,19.10667753333333,36,0.06726766666666606,48,0.13453533333333567
29926,19.140311366666662,48,0.03363383333333303,65,0.10090150000000264
29927,19.241212866666665,42,0.10090150000000264,75,0.13453533333333212
29928,19.342114366666664,54,0.10090149999999909,65,0.10090149999999909
29929,19.375748199999997,36,0.03363383333333303,47,0.13453533333333212
29930,19.443015866666663,45,0.06726766666666606,65,0.10079550000000026
29931,19.51028353333333,33,0.06726766666666606,45,0.13411133333333325
29932,19.543811366666663,48,0.0335278333333342,65,0.10058349999999905
29933,19.644394866666662,43,0.10058349999999905,79,0.1344293333333333
29934,19.745190366666662,55,0.10079550000000026,66,0.10101041666666433
29935,19.778824199999995,26,0.03363383333333303,46,0.13486208333333138
29936,19.846200783333327,47,0.0673765833333313,66,0.10122825000000191
29937,19.913686283333327,31,0.06748550000000009,48,0.13529300000000077
29938,19.94742903333333,50,0.03374275000000182,66,0.10155024999999895
29939,20.048979283333328,47,0.10155024999999895,77,0.13583333333333414
29940,20.150745699999995,59,0.10176641666666697,67,0.10253441666666774
29941,20.18481261666666,31,0.03406691666666717,46,0.13738324999999918
29942,20.253280116666662,50,0.06846750000000057,66,0.10354174999999799
29943,20.32219586666666,26,0.06891574999999861,45,0.13850400000000107
29944,20.35682186666666,55,0.03462599999999938,65,0.10387800000000169
29945,20.460699866666662,47,0.10387800000000169,81,0.13540033333333312
29946,20.56225011666666,59,0.10155024999999895,65,0.1015502500000025
29947,20.596100199999995,28,0.03385008333333417,46,0.13540033333333312
29948,20.663800366666663,51,0.06770016666666834,65,0.10144291666666305
29949,20.731500533333328,33,0.06770016666666478,48,0.13497100000000017
29950,20.765243283333326,52,0.03374274999999827,65,0.10122825000000191
29951,20.86647153333333,45,0.10122825000000191,78,0.13497100000000017
29952,20.967699783333327,57,0.10122824999999835,65,0.10101041666666788
29953,21.00144253333333,33,0.03374275000000182,47,0.13453533333333212
29954,21.068710199999995,51,0.06726766666666606,65,0.10090149999999909
29955,21.13597786666666,28,0.06726766666666606,45,0.13442933333333684
29956,21.169611699999994,52,0.03363383333333303,65,0.10079550000000381
29957,21.270407199999998,44,0.10079550000000381,79,0.13411133333333325
29958,21.370990699999997,56,0.10058349999999905,66,0.10068950000000143
29959,21.40451853333333,28,0.0335278333333342,46,0.1344293333333333
29960,21.471680199999998,51,0.06716166666666723,66,0.10090149999999909
29961,21.538947866666664,33,0.06726766666666606,48,0.13475316666666615
29962,21.572581699999997,52,0.03363383333333303,66,0.10111933333333312
29963,21.67370103333333,45,0.10111933333333312,77,0.13507833333333252
29964,21.77492928333333,57,0.10122824999999835,67,0.10187516666666951
29965,21.808779366666663,33,0.03385008333333417,46,0.1366058333333342
29966,21.876804449999998,51,0.06802508333333535,66,0.1030944166666643
29967,21.945385199999997,28,0.06858074999999886,45,0.13884866666666795
29968,21.979898866666662,52,0.034513666666665443,65,0.10433500000000251
29969,22.084233866666665,44,0.10433500000000251,81,0.1371553333333324
29970,22.187100366666666,56,0.10286650000000108,65,0.10286649999999753
29971,22.221389199999997,30,0.034288833333331326,46,0.13715533333333596
29972,22.289966866666663,50,0.0685776666666662,65,0.10275633333333545
29973,22.358544533333333,36,0.06857766666666976,48,0.13739133333333342
29974,22.3927232,54,0.03417866666666569,65,0.10321266666666773
29975,22.495935866666667,45,0.10321266666666773,78,0.14081933333333296
29976,22.601314283333334,57,0.10537841666666736,65,0.10692333333333082
29977,22.6367552,36,0.0354409166666656,47,0.14406791666666763
29978,22.708237616666665,50,0.07148241666666522,65,0.10977125000000143
29979,22.780823116666667,30,0.07258550000000241,45,0.15242433333333238
29980,22.818008866666666,54,0.03718574999999902,65,0.11523858333333337
29981,22.93324745,48,0.11523858333333337,79,0.1402314166666656
29982,23.03827503333333,60,0.10502758333333162,66,0.10572841666666832
29983,23.073478866666665,26,0.03520383333333399,46,0.1414064166666691
29984,23.14400345,50,0.07052458333333433,66,0.10644116666666648
29985,23.214885283333334,31,0.07088183333333475,48,0.14272291666666348
29986,23.250444616666666,55,0.03555933333333172,66,0.10716358333333176
29987,23.357608199999998,47,0.10716358333333176,77,0.14381008333333511
29988,23.46537445,59,0.10776625000000095,67,0.10825666666666933
29989,23.501418283333333,31,0.03604383333333416,46,0.14455083333333363
29990,23.573631116666668,50,0.07221283333333517,66,0.1086303333333305
29991,23.645969116666667,26,0.07233799999999846,45,0.14468508333333574
29992,23.68226145,55,0.03629233333333204,65,0.1083927500000037
29993,23.790654200000002,47,0.1083927500000037,52,0.13540033333333312
29994,23.89220445,59,0.10155024999999895,57,0.1015502500000025
29995,23.926054533333335,28,0.03385008333333417,33,0.13540033333333312
29996,23.993754700000004,51,0.06770016666666834,47,0.10144291666666305
29997,24.06145486666667,33,0.06770016666666478,34,0.13497100000000017
29998,24.095197616666667,52,0.03374274999999827,47,0.10122825000000191
29999,24.19642586666667,45,0.10122825000000191,49,0.13497100000000017
30000,24.297654116666667,57,0.10122824999999835,54,0.10101041666666788
30001,24.33139686666667,33,0.03374275000000182,34,0.13453533333333212
30002,24.398664533333335,51,0.06726766666666606,48,0.10090149999999909
30003,24.4659322,28,0.06726766666666606,34,0.13442933333333684
30004,24.499566033333334,52,0.03363383333333303,48,0.10079550000000381
30005,24.600361533333338,44,0.10079550000000381,51,0.13411133333333325
30006,24.700945033333337,56,0.10058349999999905,56,0.10068950000000143
30007,24.73447286666667,28,0.0335278333333342,34,0.1344293333333333
30008,24.80163453333334,51,0.06716166666666723,50,0.10090149999999909
30009,24.868902200000004,33,0.06726766666666606,36,0.13475316666666615
30010,24.902536033333337,52,0.03363383333333303,50,0.10111933333333312
30011,25.00365536666667,45,0.10111933333333312,53,0.13507833333333252
30012,25.10488361666667,57,0.10122824999999835,58,0.10187516666666951
30013,25.138733700000003,33,0.03385008333333417,35,0.1366058333333342
30014,25.20675878333334,51,0.06802508333333535,51,0.1030944166666643
30015,25.275339533333337,28,0.06858074999999886,34,0.13884866666666795
30016,25.309853200000003,52,0.034513666666665443,51,0.10433500000000251
30017,25.414188200000005,40,0.10433500000000251,55,0.13695083333333358
30018,25.51739628333334,52,0.10320808333333531,60,0.10090574999999546
30019,25.55113903333334,33,0.03374274999999827,37,0.13443066666666326
30020,25.618302033333336,45,0.0671629999999972,52,0.10090149999999909
30021,25.685569700000002,36,0.06726766666666606,38,0.13453533333333567
30022,25.719203533333335,48,0.03363383333333303,53,0.10090150000000264
30023,25.820105033333338,42,0.10090150000000264,55,0.13453533333333212
30024,25.921006533333337,54,0.10090149999999909,62,0.10090149999999909
30025,25.95464036666667,36,0.03363383333333303,38,0.13453533333333212
30026,26.021908033333336,45,0.06726766666666606,54,0.10079550000000026
30027,26.089175700000002,33,0.06726766666666606,38,0.13411133333333325
30028,26.122703533333336,48,0.0335278333333342,54,0.10058349999999905
30029,26.223287033333335,43,0.10058349999999905,57,0.1344293333333333
30030,26.324082533333335,55,0.10079550000000026,65,0.10101041666666433
30031,26.35771636666667,26,0.03363383333333303,39,0.13486208333333138
30032,26.42509295,47,0.0673765833333313,56,0.10122825000000191
30033,26.49257845,31,0.06748550000000009,40,0.13529300000000077
30034,26.5263212,50,0.03374275000000182,56,0.10155024999999895
30035,26.62787145,47,0.10155024999999895,60,0.13583333333333414
30036,26.729637866666668,59,0.10176641666666697,68,0.10253441666666774
30037,26.763704783333335,31,0.03406691666666717,40,0.13738324999999918
30038,26.832172283333335,50,0.06846750000000057,57,0.10354174999999799
30039,26.901088033333334,26,0.06891574999999861,39,0.1376093333333337
30040,26.935714033333333,55,0.03462599999999938,58,0.10298333333333431
30041,27.038697366666668,47,0.10298333333333431,62,0.13649116666666572
30042,27.141121616666666,59,0.10242424999999855,68,0.10209200000000251
30043,27.175188533333333,28,0.03406691666666717,42,0.13594141666666815
30044,27.24321361666667,51,0.06802508333333535,59,0.10176641666666697
30045,27.31112995,33,0.0679163333333328,43,0.13540033333333312
30046,27.344980033333336,52,0.03385008333333417,59,0.10155024999999895
30047,27.446530283333335,45,0.10155024999999895,62,0.13486208333333138
30048,27.547758533333333,57,0.10122824999999835,70,0.10090149999999909
30049,27.581392366666666,33,0.03363383333333303,43,0.13432333333333446
30050,27.648660033333332,51,0.06726766666666606,61,0.10058349999999905
30051,27.7157157,28,0.0670556666666684,42,0.133788583333331
30052,27.74924353333333,52,0.03352783333333065,61,0.10026075000000034
30053,27.84950428333333,54,0.10026075000000034,64,0.13432174999999802
30054,27.950192199999996,66,0.10068791666666499,73,0.10101041666666433
30055,27.98382603333333,30,0.03363383333333303,44,0.13486208333333138
30056,28.05120261666666,57,0.0673765833333313,62,0.10122825000000191
30057,28.11868811666666,33,0.06748550000000009,45,0.13529300000000077
30058,28.152430866666663,60,0.03374275000000182,62,0.10155024999999895
30059,28.25398111666666,52,0.10155024999999895,66,0.13583333333333414
30060,28.35574753333333,64,0.10176641666666697,74,0.10253441666666774
30061,28.389814449999996,33,0.03406691666666717,44,0.13738324999999918
30062,28.458281949999996,57,0.06846750000000057,62,0.10354174999999799
30063,28.527197699999995,30,0.06891574999999861,42,0.13805666666666738
30064,28.561823699999994,60,0.03462599999999938,62,0.103430666666668
30065,28.665254366666662,52,0.103430666666668,64,0.1366029166666678
30066,28.767790366666663,64,0.10253600000000063,73,0.1022007500000015
30067,28.80185728333333,30,0.03406691666666717,44,0.13615891666666613
30068,28.869991116666665,54,0.06813383333333434,61,0.10198324999999642
30069,28.938016199999996,33,0.06802508333333179,45,0.1357245833333316
30070,28.97197436666666,57,0.033958166666664624,61,0.10176641666666697
30071,29.073740783333328,51,0.10176641666666697,64,0.13518566666666487
30072,29.17518369999999,63,0.10144291666666305,71,0.10122825000000191
30073,29.208926449999993,33,0.03374275000000182,42,0.13475316666666615
30074,29.276411949999993,54,0.06748550000000009,60,0.10090149999999909
30075,29.34367961666666,30,0.06726766666666606,40,0.13432333333333446
30076,29.377313449999992,57,0.03363383333333303,59,0.10068950000000143
30077,29.478002949999993,51,0.10068950000000143,60,0.13378858333333454
30078,29.578263699999994,63,0.10026075000000034,69,0.10058349999999905
30079,29.611791533333328,30,0.0335278333333342,41,0.1343233333333309
30080,29.678847199999993,54,0.06705566666666485,58,0.10090149999999909
30081,29.74611486666666,33,0.06726766666666606,42,0.13486208333333138
30082,29.779748699999992,57,0.03363383333333303,58,0.10122824999999835
30083,29.88097694999999,51,0.10122824999999835,61,0.13550841666666713
30084,29.98252719999999,63,0.10155024999999895,68,0.10187450000000098
30085,30.016485366666657,33,0.03395816666666818,39,0.13605016666666714
30086,30.08440169999999,54,0.0679163333333328,57,0.1022007500000015
30087,30.152535533333324,30,0.06813383333333434,38,0.1366029166666678
30088,30.18660244999999,57,0.03406691666666717,56,0.10253600000000063
30089,30.289138449999992,51,0.10253600000000063,57,0.13688062500000342
30090,30.39195215833333,63,0.10281370833333625,65,0.1022007500000015
30091,30.426019074999996,30,0.03406691666666717,39,0.13615891666666613
30092,30.49415290833333,54,0.06813383333333434,55,0.10198324999999642
30093,30.562177991666662,33,0.06802508333333179,40,0.1357245833333316
30094,30.596136158333326,57,0.033958166666664624,55,0.10176641666666697
30095,30.697902574999993,50,0.10176641666666697,58,0.13518566666666487
30096,30.799345491666656,62,0.10144291666666305,64,0.10122825000000191
30097,30.83308824166666,33,0.03374275000000182,38,0.13475316666666615
30098,30.90057374166666,54,0.06748550000000009,53,0.10090149999999909
30099,30.967841408333324,30,0.06726766666666606,36,0.13432333333333446
30100,31.001475241666657,57,0.03363383333333303,53,0.10068950000000143
30101,31.10216474166666,50,0.10068950000000143,54,0.13378858333333454
30102,31.20242549166666,62,0.10026075000000034,62,0.10058349999999905
30103,31.235953324999993,30,0.0335278333333342,37,0.1343233333333309
30104,31.30300899166666,54,0.06705566666666485,52,0.10090149999999909
30105,31.370276658333324,33,0.06726766666666606,38,0.13486208333333138
30106,31.403910491666657,57,0.03363383333333303,52,0.10122824999999835
30107,31.505138741666656,49,0.10122824999999835,54,0.13550841666666713
30108,31.606688991666655,61,0.10155024999999895,60,0.10187450000000098
30109,31.640647158333323,33,0.03395816666666818,35,0.13605016666666714
30110,31.708563491666656,54,0.0679163333333328,50,0.1022007500000015
30111,31.77669732499999,30,0.06813383333333434,34,0.1366029166666678
30112,31.810764241666657,57,0.03406691666666717,50,0.10253600000000063
30113,31.913300241666658,49,0.10253600000000063,55,0.1371050000000018
30114,32.021448362499996,61,0.10814812083333791,49,0.1022007500000015
30115,32.05040524166666,30,0.028956879166663896,34,0.13615891666666613
30116,32.118539074999994,54,0.06813383333333434,48,0.10198325000000352
30117,32.186564158333326,33,0.06802508333333179,35,0.13572458333333515
30118,32.220522325,57,0.03395816666667173,48,0.10176641666666342
30119,32.32228874166666,48,0.10176641666666342,53,0.13518566666666487
30120,32.42879307083333,60,0.1065043291666683,48,0.10121191249999839
30121,32.457474408333326,33,0.028681337499996573,34,0.1347531666666697
30122,32.52495990833333,54,0.06748550000000364,47,0.10090149999999909
30123,32.592227574999995,30,0.06726766666666606,32,0.13432333333333446
30124,32.62586140833333,57,0.03363383333333303,47,0.10068950000000143
30125,32.72655090833333,48,0.10068950000000143,52,0.13378858333332744
30126,32.82681165833333,60,0.10026074999999679,49,0.10058349999999905
30127,32.86033949166666,30,0.03352783333333065,33,0.13432333333333446
30128,32.927395158333326,54,0.0670556666666684,45,0.10090149999999909
30129,32.99466282499999,33,0.06726766666666606,33,0.13481208333332972
30130,33.028296658333325,57,0.03363383333333303,45,0.1011782499999967
30131,33.12947490833332,48,0.1011782499999967,51,0.1365589166666652
30132,33.23155340833332,60,0.10207849999999752,47,0.10390874999999511
30133,33.26603382499999,33,0.03448041666666768,31,0.1398045833333299
30134,33.335462158333314,54,0.06942833333332743,44,0.1059280000000058
30135,33.40583840833332,30,0.07037625000000247,29,0.14332933333334097
30136,33.44139015833332,57,0.035551750000003324,44,0.10777758333333765
30137,33.54916774166666,51,0.10777758333333765,52,0.14445166666666154
30138,33.66297775833332,63,0.1138100166666618,47,0.10786078333332938
30139,33.69361940833332,30,0.030641649999999743,29,0.1434466666666694
30140,33.76546874166665,54,0.07184933333333277,46,0.107273416666672
30141,33.83706607499999,33,0.07159733333333662,29,0.1424556666666632
30142,33.872742158333324,57,0.035676083333335384,46,0.10677958333332782
30143,33.97952174166665,50,0.10677958333332782,49,0.14147816666666557
30144,34.08569165833332,62,0.10616991666666564,44,0.10568624999999798
30145,34.12099990833332,33,0.03530824999999993,29,0.14051399999999603
30146,34.191377908333315,54,0.07037799999999805,44,0.1050863333333325
30147,34.26151390833331,30,0.07013599999999798,28,0.1395628333333363
30148,34.29646424166665,57,0.03495033333333453,44,0.10461250000000177
30149,34.40107674166665,50,0.10461250000000177,48,0.13909216666666424
30150,34.50533782499998,62,0.10426108333332706,45,0.10473175000000623
30151,34.540168908333314,30,0.034831083333337176,26,0.14015766666667417
30152,34.61006957499998,54,0.06990066666666905,42,0.1054460000000006
30153,34.68032657499999,33,0.07025700000000512,27,0.14123633333333174
30154,34.71551557499998,57,0.035188999999995474,42,0.10604733333333627
30155,34.82156290833332,49,0.10604733333333627,47,0.1424556666666632
30156,34.928342491666655,61,0.10677958333333493,43,0.10739941666665942
30157,34.96401857499998,33,0.03567608333332828,27,0.14369699999999597
30158,35.035741908333314,54,0.07172333333333114,40,0.10802266666666327
30159,35.10771557499998,30,0.07197366666666483,25,0.14560949999999906
30160,35.14376457499998,57,0.03604899999999844,40,0.10956050000000062
30161,35.25332507499998,49,0.10956050000000062,46,0.1463730833333372
30162,35.36313774166665,61,0.10981266666667011,42,0.10942541666666727
30163,35.399698158333315,30,0.036560416666667095,26,0.14560041666666024
30164,35.472563158333315,54,0.07286500000000018,41,0.10903833333333068
30165,35.545298574999975,33,0.07273541666666006,27,0.1449594999999988
30166,35.581601491666646,57,0.036302916666670626,41,0.10865658333332817
30167,35.690258074999974,48,0.10865658333332817,44,0.14432383333333831
30168,35.79853290833331,60,0.10827483333333277,40,0.10789833333333831
30169,35.83458190833331,33,0.03604900000000555,27,0.1435726666666639
30170,35.906431241666645,54,0.07184933333333277,40,0.107522000000003
30171,35.97815457499998,30,0.07172333333333114,25,0.14294950000000028
30172,36.01395324166665,57,0.03579866666667186,39,0.10715083333332842
30173,36.12110407499998,48,0.10715083333332842,43,0.14320150000000353
30174,36.22825657499998,60,0.10715250000000509,40,0.10891233333332906
30175,36.26430557499998,30,0.03604899999999844,23,0.14651008333333237
30176,36.33716890833331,54,0.07286333333333062,37,0.11086850000000226
30177,36.41081565833331,33,0.07364675000000176,24,0.15010958333333235
30178,36.44803740833331,57,0.0372217500000005,37,0.11288783333333186
30179,36.560925241666645,47,0.11288783333333186,42,0.15360491666666576
30180,36.67577049166665,59,0.1148452500000019,38,0.11701641666666518
30181,36.71453015833331,33,0.03875966666666386,23,0.15756950000000103
30182,36.79278690833331,54,0.07825675000000132,36,0.11927758333333571
30183,36.87209965833331,30,0.07931274999999971,22,0.16143058333334181
30184,36.91206449166665,57,0.039964833333336,35,0.12146575000000581
30185,37.033530241666654,28,0.12146575000000581,22,0.1316998333333288
30186,37.13560574166665,47,0.10207549999999799,37,0.08844833333333213
30187,37.16523007499998,35,0.02962433333333081,25,0.11730349999999845
30188,37.224054074999984,48,0.05882400000000132,41,0.08771924999999925
30189,37.28253357499998,40,0.05847949999999713,28,0.11704475000000514
30190,37.31177332499998,47,0.029239750000002118,38,0.08780500000000302
30191,37.399578324999986,46,0.08780500000000302,39,0.11773583333334159
30192,37.488074408333325,47,0.08849608333333947,40,0.0875487500000034
30193,37.51731415833333,40,0.029239750000002118,28,0.11661800000000255
30194,37.57562315833333,52,0.058309000000001276,42,0.08763450000000006
30195,37.63393215833333,35,0.058309000000001276,27,0.11773424999999804
30196,37.66325765833333,55,0.029325499999998783,43,0.08840874999999926
30197,37.75166640833333,54,0.08840874999999926,45,0.1167047500000038
30198,37.83930140833333,52,0.0876349999999988,43,0.08754975000000087
30199,37.86837115833333,35,0.029069750000005,28,0.1173902499999997
30200,37.92685115833333,54,0.05847999999999587,45,0.08858383333333819
30201,37.98576140833333,40,0.05891025000000383,30,0.1177373333333378
30202,38.015434991666666,52,0.029673583333334363,43,0.08806375000000344
30203,38.10349874166667,51,0.08806375000000344,44,0.11738975000000096
30204,38.19138999166667,52,0.08789124999999842,46,0.08840874999999926
30205,38.22088849166667,40,0.029498500000002537,28,0.11756124999999429
30206,38.27979874166667,55,0.05891024999999672,49,0.08797650000000345
30207,38.338449741666665,35,0.058650999999997566,27,0.13900675000000717
30208,38.36777524166667,59,0.02932550000000589,47,0.10968125000000128
30209,38.47745649166667,28,0.10968125000000128,27,0.1302440000000047
30210,38.578201991666674,47,0.10074550000000215,45,0.0884955000000005
30211,38.60770049166668,35,0.029498500000002537,30,0.11799399999999594
30212,38.666697491666675,48,0.05899699999999797,49,0.0884955000000005
30213,38.72569449166667,40,0.05899699999999797,34,0.1175612500000014
30214,38.755192991666675,47,0.029498500000002537,45,0.08806274999999886
30215,38.843255741666674,46,0.08806274999999886,46,0.11851883333334001
30216,38.93218874166668,47,0.08893300000000437,48,0.08849608333333947
30217,38.961774575000014,40,0.029585833333335643,34,0.1177337499999993
30218,39.02068482500002,52,0.05891025000000383,50,0.08832199999999801
30219,39.07950832500001,35,0.05882349999999548,33,0.11782099999999929
30220,39.109006825000016,55,0.029498500000002537,51,0.08832249999999675
30221,39.19732932500001,54,0.08832249999999675,54,0.11747550000000473
30222,39.285306325000015,52,0.08797700000000219,51,0.08832249999999675
30223,39.31480482500002,35,0.029498500000002537,33,0.11730349999999135
30224,39.37362882500001,54,0.058823999999994214,53,0.08789124999999842
30225,39.43210832500001,40,0.05847949999999713,36,0.11808191666666801
30226,39.46152007500001,52,0.02941175000000129,51,0.08867016666666672
30227,39.55019024166668,51,0.08867016666666672,52,0.1171304999999947
30228,39.638080991666676,52,0.08789074999999968,54,0.0880632499999976
30229,39.66732074166667,40,0.029239749999995013,34,0.11764699999999806
30230,39.726144241666674,55,0.05882350000000258,57,0.08823524999999677
30231,39.78496774166667,35,0.05882349999999548,32,0.13680775000000267
30232,39.81437949166667,59,0.02941175000000129,55,0.10739600000000138
30233,39.92177549166667,30,0.10739600000000138,31,0.1308859166666707
30234,40.022520991666674,48,0.10074550000000215,56,0.09032891666666387
30235,40.05266140833334,36,0.030140416666668557,35,0.12009749999999286
30236,40.11284990833334,52,0.060188499999995315,57,0.08977224999999578
30237,40.172758908333336,40,0.05990899999999755,39,0.11917791666665778
30238,40.202622158333334,54,0.02986324999999823,59,0.08931466666665955
30239,40.29193682499999,57,0.08931466666665955,61,0.11926800000000526
30240,40.381434074999994,60,0.08949725000000086,66,0.08922216666666571
30241,40.411204825,40,0.029770750000004398,39,0.11881274999999647
30242,40.47065624166666,64,0.059451416666661316,69,0.08895066666666906
30243,40.530017574999995,36,0.05936133333333515,37,0.11817975000000303
30244,40.55960690833333,66,0.02958933333333391,71,0.08859041666666911
30245,40.648197325,74,0.08859041666666911,73,0.11721775000000179
30246,40.735916575,72,0.08771924999999925,71,0.08884566666667126
30247,40.765415075,40,0.029498500000002537,40,0.11860658333333873
30248,40.82476224166667,71,0.05934716666666873,71,0.0886711666666713
30249,40.88402165833334,42,0.059259416666670006,44,0.11747450000000015
30250,40.91343340833334,69,0.02941175000000129,70,0.08806274999999886
30251,41.00149615833334,67,0.08806274999999886,69,0.11825850000001026
30252,41.090081075000015,66,0.0885849166666759,68,0.08884566666667126
30253,41.11975465833335,42,0.029673583333334363,44,0.11790933333333697
30254,41.178926741666686,69,0.0591720833333369,67,0.08806274999999886
30255,41.237663991666686,40,0.058737250000000074,41,0.11799608333333111
30256,41.266989491666685,64,0.029325499999998783,67,0.08867058333333233
30257,41.35566007500002,63,0.08867058333333233,68,0.1176485833333345
30258,41.44398315833335,66,0.08832308333333572,64,0.08780499999999591
30259,41.47330865833335,30,0.029325499999998783,36,0.11747708333333406
30260,41.53178815833335,60,0.05847949999999713,65,0.08849608333333947
30261,41.590785741666686,33,0.058997583333336934,39,0.1175612500000014
30262,41.62028424166669,59,0.029498500000002537,65,0.08806274999999886
30263,41.70834699166669,57,0.08806274999999886,64,0.11773891666666714
30264,41.79641232500002,60,0.08806533333333277,62,0.08875791666667254
30265,41.826085908333354,33,0.029673583333334363,39,0.1179945833333349
30266,41.88517024166669,55,0.05908433333333818,59,0.0882357499999955
30267,41.94408049166669,30,0.05891024999999672,37,0.11730200000000224
30268,41.97340599166669,54,0.029325499999998783,59,0.08797650000000345
30269,42.06138249166669,57,0.08797650000000345,59,0.11773025000000104
30270,42.149612491666694,52,0.08823000000000292,55,0.08858983333333725
30271,42.17911274166669,30,0.029500249999998118,35,0.11826825000000696
30272,42.23820232500003,51,0.059089583333339135,55,0.08885933333333185
30273,42.2973809916667,33,0.05917866666666782,38,0.11908658333333477
30274,42.32706165833336,54,0.029680666666664024,55,0.08940591666667075
30275,42.416467575000034,48,0.08940591666667075,54,0.12188550000000475
30276,42.50754590833337,47,0.09107833333333559,51,0.09301425000000307
30277,42.53835307500004,33,0.03080716666666916,35,0.12542291666666472
30278,42.60056015833337,50,0.06220708333333391,51,0.09513408333332762
30279,42.663775991666704,30,0.0632158333333308,33,0.13890987499999596
30280,42.6956942416667,48,0.03191824999999682,50,0.19859825000000342
30281,42.8026858666667,28,0.10699162499999915,28,0.12110512500000681
30282,42.894292491666704,47,0.09160662500000427,47,0.08832200000000512
30283,42.923790991666706,35,0.029498500000002537,32,0.11721775000000179
30284,42.98261449166671,48,0.05882350000000258,51,0.08771974999999799
30285,43.04100874166671,40,0.058394249999999204,34,0.11790891666666425
30286,43.07033424166671,47,0.029325499999998783,47,0.08858341666666547
30287,43.15891765833337,46,0.08858341666666547,48,0.11773583333334159
30288,43.24741374166671,47,0.08849608333333947,49,0.08771924999999925
30289,43.276653491666714,40,0.029239750000002118,35,0.11713100000000054
30290,43.33513299166671,52,0.05847949999999713,51,0.08815000000000595
30291,43.393784491666715,35,0.05865150000000341,33,0.11799400000000304
30292,43.42328299166672,55,0.029498500000002537,52,0.0884955000000005
30293,43.51177849166672,54,0.0884955000000005,54,0.11756124999999429
30294,43.59992799166671,52,0.088149499999993,51,0.08849608333333947
30295,43.62933974166671,35,0.02941175000000129,33,0.11808191666666801
30296,43.68842407500005,54,0.05908433333333818,53,0.08832308333332861
30297,43.74742165833338,40,0.05899758333332983,35,0.11738825000000475
30298,43.77674715833338,52,0.029325499999998783,51,0.08806275000000596
30299,43.864809908333385,51,0.08806275000000596,51,0.11834375000000108
30300,43.95365515833338,52,0.08884524999999854,53,0.0884955000000005
30301,43.983153658333386,40,0.029498500000002537,33,0.11799399999999594
30302,44.042150658333384,55,0.05899699999999797,57,0.0884955000000005
30303,44.10114765833338,35,0.05899699999999797,31,0.1404707916666652
30304,44.130646158333384,59,0.029498500000002537,54,0.11097229166666267
30305,44.24161845000005,55,0.11097229166666267,52,0.12247008333334009
30306,44.334546450000055,54,0.09292800000000767,48,0.08827933333333249
30307,44.36408853333339,40,0.029542083333332414,33,0.11738825000000475
30308,44.42282578333339,55,0.058737250000000074,52,0.08797650000000345
30309,44.48147678333339,42,0.05865100000000467,35,0.11825850000000315
30310,44.51080228333339,54,0.029325499999998783,48,0.08893300000000437
30311,44.599735283333395,53,0.08893300000000437,49,0.11799516666666676
30312,44.68831870000006,54,0.08858341666666547,50,0.08806274999999886
30313,44.71773045000006,42,0.02941175000000129,36,0.11773533333333575
30314,44.77638145000006,57,0.058650999999997566,53,0.08867016666666672
30315,44.8354657833334,40,0.05908433333333818,34,0.11825600000000236
30316,44.865051616666726,60,0.029585833333328537,54,0.08867016666667382
30317,44.9537217833334,57,0.08867016666667382,56,0.11704474999999803
30318,45.041526783333396,56,0.08780499999999591,54,0.08806375000000344
30319,45.0707665333334,40,0.029239750000002118,34,0.1179956666666655
30320,45.1295905333334,57,0.05882400000000132,56,0.08875749999999982
30321,45.18876220000006,44,0.05917166666666418,37,0.11782158333333825
30322,45.2183480333334,56,0.029585833333335643,54,0.08823575000000261
30323,45.3065837833334,55,0.08823575000000261,54,0.11730349999999845
30324,45.3943887833334,56,0.08780499999999591,56,0.0884955000000005
30325,45.4238872833334,44,0.029498500000002537,34,0.11799399999999594
30326,45.4828842833334,59,0.05899699999999797,59,0.0884955000000005
30327,45.541881283333396,40,0.05899699999999797,33,0.14280000000000115
30328,45.5713797833334,64,0.029498500000002537,57,0.11330149999999861
30329,45.6846812833334,36,0.11330149999999861,30,0.1232916666666668
30330,45.77847445000006,52,0.09379316666666426,50,0.08840874999999926
30331,45.807972950000064,40,0.029498500000002537,34,0.11756124999999429
30332,45.86688320000006,53,0.05891024999999672,55,0.08797650000000345
30333,45.92553420000006,45,0.058650999999997566,37,0.11747500000000599
30334,45.954859700000064,52,0.02932550000000589,51,0.0881495000000001
30335,46.043009200000064,51,0.0881495000000001,52,0.11790891666666425
30336,46.13159261666673,52,0.08858341666666547,53,0.08797650000000345
30337,46.16091811666673,45,0.029325499999998783,39,0.11773533333334285
30338,46.21956911666673,57,0.05865100000000467,56,0.08875791666667254
30339,46.27865345000007,40,0.05908433333333818,35,0.11791041666666757
30340,46.308327033333406,60,0.029673583333334363,57,0.08823683333333321
30341,46.39656386666674,57,0.08823683333333321,59,0.11747450000000725
30342,46.484626616666745,56,0.08806275000000596,56,0.08858341666666547
30343,46.514038366666746,40,0.02941175000000129,36,0.11816925000000111
30344,46.57321003333341,57,0.05917166666666418,59,0.08832308333333572
30345,46.63220761666675,44,0.058997583333336934,39,0.1171304999999947
30346,46.661533116666746,56,0.029325499999998783,57,0.08780499999999591
30347,46.74933811666674,55,0.08780499999999591,57,0.11756074999999555
30348,46.83748711666674,56,0.08814900000000137,59,0.08823524999999677
30349,46.86689886666674,44,0.029411749999994186,37,0.11764700000000516
30350,46.92572236666674,59,0.05882350000000258,63,0.08823525000000387
30351,46.98454586666674,40,0.05882350000000258,34,0.13948725000000195
30352,47.013957616666744,64,0.02941175000000129,59,0.11007550000000066
30353,47.124033116666745,59,0.11007550000000066,58,0.12247008333334009
30354,47.21696111666675,57,0.09292800000000767,53,0.0887137499999966
30355,47.246503200000085,40,0.029542083333332414,36,0.11825600000000236
30356,47.30567486666675,59,0.05917166666666418,58,0.08849608333333947
30357,47.36475920000009,45,0.05908433333333818,39,0.11756074999999555
30358,47.39417095000009,57,0.02941175000000129,54,0.08814899999999426
30359,47.48231995000008,56,0.08814899999999426,55,0.11678849999999841
30360,47.56995395000008,57,0.08763399999999422,56,0.08763450000000006
30361,47.59910845000008,45,0.02915450000000419,40,0.11765166666666005
30362,47.65758845000008,60,0.05847999999999587,59,0.08858341666666547
30363,47.71676011666674,40,0.05917166666666418,38,0.11713149999999928
30364,47.74617186666674,64,0.02941175000000129,60,0.08771974999999799
30365,47.83389161666674,60,0.08771974999999799,63,0.11764908333334034
30366,47.921954866666745,59,0.0880632500000047,59,0.08884524999999854
30367,47.95154070000008,33,0.029585833333335643,38,0.11808341666666422
30368,48.01080011666674,60,0.0592594166666629,62,0.08806375000000344
30369,48.069624116666745,35,0.05882400000000132,41,0.11747550000000473
30370,48.09886386666675,59,0.029239750000002118,60,0.08823575000000261
30371,48.18709961666675,58,0.08823575000000261,60,0.11747549999999762
30372,48.275335366666745,59,0.0882357499999955,62,0.0880632500000047
30373,48.30457511666675,35,0.029239750000002118,39,0.11764699999999806
30374,48.36339861666675,63,0.05882350000000258,66,0.08823524999999677
30375,48.422222116666745,33,0.05882349999999548,37,0.1483837500000007
30376,48.45163386666675,66,0.02941175000000129,63,0.11897199999999941
30377,48.570605866666746,59,0.11897199999999941,69,0.12192279166666964
30378,48.66238457500008,60,0.09177870833333657,64,0.09033625
30379,48.692528658333416,35,0.03014408333333307,39,0.12010116666666448
30380,48.75272082500008,59,0.060192166666666935,67,0.08977224999999578
30381,48.81262982500008,40,0.05990899999999755,43,0.11917791666665778
30382,48.84249307500008,58,0.02986324999999823,58,0.08931466666665955
30383,48.93180774166674,59,0.08931466666665955,62,0.11926800000000526
30384,49.02130499166674,67,0.08949725000000086,71,0.08922216666666571
30385,49.05107574166674,40,0.029770750000004398,44,0.11881274999999647
30386,49.110527158333404,66,0.059451416666661316,71,0.08895066666666906
30387,49.16988849166674,35,0.05936133333333515,42,0.11828916666667055
30388,49.19947782500007,65,0.02958933333333391,70,0.08869983333333664
30389,49.28817765833341,64,0.08869983333333664,69,0.11816833333332966
30390,49.37680390833341,63,0.08862624999999724,69,0.08866737499999999
30391,49.40634599166674,35,0.029542083333332414,41,0.1183739583333363
30392,49.46547128333341,62,0.05912529166666758,68,0.08887299999999954
30393,49.524719950000076,39,0.059248666666668726,45,0.11858358333333285
30394,49.55434428333341,61,0.02962433333333081,67,0.08895925000000204
30395,49.64330353333341,60,0.08895925000000204,67,0.11884233333333327
30396,49.73243528333341,59,0.08913174999999995,66,0.0892592500000049
30397,49.76214586666674,39,0.029710583333333318,44,0.11913983333333533
30398,49.821694533333414,58,0.05954866666667158,65,0.08938674999999563
30399,49.88128570000008,35,0.05959116666666375,41,0.11971154166666764
30400,49.91108128333341,57,0.029795583333331876,64,0.08991595833333577
30401,50.000997241666745,55,0.08991595833333577,69,0.1208031250000019
30402,50.09183153333341,57,0.0908342916666669,64,0.08998575000000386
30403,50.12180036666675,35,0.029968833333335,39,0.11992591666666641
30404,50.181817283333416,55,0.06001691666666886,67,0.08977224999999578
30405,50.24172628333341,40,0.05990899999999755,43,0.11917791666665778
30406,50.27158953333341,54,0.02986324999999823,58,0.08931466666665955
30407,50.36090420000007,55,0.08931466666665955,62,0.11926800000000526
30408,50.45040145000007,67,0.08949725000000086,71,0.08922216666666571
30409,50.48017220000008,40,0.029770750000004398,44,0.11881274999999647
30410,50.53962361666674,66,0.059451416666661316,71,0.08895066666666906
30411,50.59898495000007,35,0.05936133333333515,42,0.11826824999999985
30412,50.62857428333341,65,0.02958933333333391,70,0.08867891666666594
30413,50.71725320000007,64,0.08867891666666594,70,0.11757808333333486
30414,50.80537445000007,63,0.08812125000000037,71,0.08837050000000346
30415,50.83483128333341,40,0.029456833333334487,41,0.1179978333333338
30416,50.89374495000008,62,0.05891366666666897,71,0.08862624999999724
30417,50.95282911666674,42,0.05908416666666483,45,0.11867258333332842
30418,50.982371200000074,61,0.029542083333332414,72,0.089130499999996
30419,51.07150170000007,60,0.089130499999996,73,0.12005283333333239
30420,51.16141045000007,59,0.08990874999999932,74,0.09069891666666763
30421,51.1915545333334,42,0.03014408333333307,48,0.12146741666666827
30422,51.25210936666674,58,0.06055483333333456,75,0.0915048333333317
30423,51.31302195000007,40,0.060912583333333714,51,0.12282449999999301
30424,51.34361420000007,57,0.03059224999999799,76,0.09223224999999502
30425,51.435846450000064,59,0.09223224999999502,76,0.18464950000000613
30426,51.62049595000007,71,0.18464950000000613,85,0.09232474999999596
30427,51.712820700000066,70,0.09232474999999596,85,0.09232475000000306
30428,51.80514545000007,69,0.09232475000000306,84,0.08938675000000273
30429,51.89453220000007,68,0.08938675000000273,84,0.08938674999999563
30430,51.98391895000007,67,0.08938674999999563,83,0.08938675000000273
30431,52.07330570000007,66,0.08938675000000273,83,0.08938674999999563
30432,52.162692450000065,65,0.08938674999999563,82,0.3585939999999965
30433,52.25234095000007,64,0.08964850000000268,81,0.08964849999999558
30434,52.341989450000064,63,0.08964849999999558,81,0.08964850000000268
30435,52.431637950000066,62,0.08964850000000268,80,0.08964849999999558
30436,52.52128645000006,61,0.08964849999999558,80,0.08990649999999789
30437,52.61119295000006,60,0.08990649999999789,79,0.089906500000005
30438,52.701099450000065,59,0.089906500000005,79,0.08990649999999789
30439,52.79100595000006,58,0.08990649999999789,78,0.08999474999999535
30440,52.88100070000006,57,0.08999474999999535,77,0.09017124999999737
30441,52.971171950000056,56,0.09017124999999737,77,0.09017125000000448
30442,53.06134320000006,55,0.09017125000000448,77,0.09017124999999737
30443,53.15151445000006,54,0.09017124999999737,77,0.09017125000000448
30444,53.24168570000006,53,0.09017125000000448,77,0.09017124999999737
30445,53.33185695000006,52,0.09017124999999737,77,0.09017124999999737
30446,53.42202820000006,51,0.09017124999999737,77,0.09017125000000448
30447,53.51219945000006,50,0.09017125000000448,77,0.09017124999999737
30448,53.60237070000006,49,0.09017124999999737,77,0.09017124999999737
30449,53.692541950000056,48,0.09017124999999737,78,0.09017125000000448
30450,53.78271320000006,47,0.09017125000000448,80,0.09017124999999737
30451,53.87288445000006,46,0.09017124999999737,82,0.09025824999999799
30452,53.963142700000056,45,0.09025824999999799,85,0.09069891666666763
30453,54.05384161666672,43,0.09069891666666763,87,0.0915048333333317
30454,54.145346450000055,42,0.0915048333333317,90,0.09232341666666599
30455,54.23766986666672,40,0.09232341666666599,92,0.0931586666666675
30456,54.33082853333339,35,0.0931586666666675,94,0.09881424999999666
30457,54.72608553333339,72,0.39525700000000086,90,0.3916203333333357
30458,54.824588116666725,71,0.09850258333333528,81,0.09787924999999831
30459,54.92246736666672,79,0.09787924999999831,77,0.09767124999999766
30460,55.02013861666672,67,0.09767124999999766,77,0.09756725000000444
30461,55.117705866666725,69,0.09756725000000444,90,0.3881359166666627
30462,55.21496961666673,67,0.09726375000000331,77,0.09716099999999983
30463,55.31213061666673,76,0.09716099999999983,77,0.09695549999999997
30464,55.40908611666673,64,0.09695549999999997,77,0.09675566666665958
30465,55.50584178333339,66,0.09675566666665958,89,0.385315250000005
30466,55.60249753333339,64,0.09665575000000359,77,0.09635149999999726
30467,55.69884903333339,71,0.09635149999999726,77,0.096252750000005
30468,55.79510178333339,59,0.096252750000005,77,0.09605524999999915
30469,55.89115703333339,60,0.09605524999999915,89,0.3783340000000024
30470,55.98574053333339,59,0.09458349999999882,77,0.09458349999999882
30471,56.08032403333339,67,0.09458349999999882,77,0.09458350000000593
30472,56.174907533333396,55,0.09458350000000593,77,0.09458349999999882
30473,56.269491033333395,57,0.09458349999999882,88,0.3783339999999953
30474,56.364074533333394,55,0.09458349999999882,77,0.09458349999999882
30475,56.45865803333339,64,0.09458349999999882,77,0.09458349999999882
30476,56.55324153333339,52,0.09458349999999882,77,0.09458349999999882
30477,56.64782503333339,54,0.09458349999999882,89,0.3783340000000024
30478,56.742408533333396,52,0.09458350000000593,77,0.09458349999999882
30479,56.836992033333395,59,0.09458349999999882,77,0.09458349999999882
30480,56.931575533333394,47,0.09458349999999882,77,0.09458349999999882
30481,57.02615903333339,48,0.09458349999999882,90,0.3783340000000024
30482,57.12074253333339,47,0.09458349999999882,77,0.09458349999999882
30483,57.21532603333339,55,0.09458349999999882,77,0.09458350000000593
30484,57.309909533333396,43,0.09458350000000593,77,0.09458349999999882
30485,57.404493033333395,45,0.09458349999999882,88,0.39026900000000353
30486,57.50206028333339,43,0.09756724999999733,77,0.09756725000000444
30487,57.5996275333334,52,0.09756725000000444,77,0.09756724999999733
30488,57.697194783333394,40,0.09756724999999733,77,0.09756725000000444
30489,57.7947620333334,42,0.09756725000000444,89,0.38184900000000255
30490,57.890224283333396,40,0.09546224999999708,77,0.09546225000000419
30491,57.9856865333334,47,0.09546225000000419,77,0.09546224999999708
30492,58.0811487833334,35,0.09546224999999708,77,0.09546225000000419
30493,58.1766110333334,42,0.09546225000000419,89,0.3878219999999999
30494,58.2735665333334,40,0.09695549999999997,77,0.09695549999999997
30495,58.3705220333334,47,0.09695549999999997,77,0.09695549999999997
30496,58.4674775333334,35,0.09695549999999997,77,0.09695549999999997
30497,58.5644330333334,42,0.09695549999999997,89,0.38703133333333284
30498,58.6613885333334,40,0.09695549999999997,77,0.09695549999999997
30499,58.7583440333334,48,0.09695549999999997,77,0.09695549999999997
30500,58.8552995333334,36,0.09695549999999997,77,0.09616483333333292
30501,58.951464366666734,42,0.09616483333333292,89,0.3923451666666651
30502,59.04903161666673,40,0.09756724999999733,75,0.09787924999999831
30503,59.14691086666673,47,0.09787924999999831,74,0.09829208333333384
30504,59.24520295000006,35,0.09829208333333384,73,0.0986065833333356
30505,59.3438095333334,42,0.0986065833333356,83,0.39845675000000114
30506,59.44283711666673,40,0.09902758333333139,71,0.09934458333333396
30507,59.542181700000064,46,0.09934458333333396,71,0.09977374999999711
30508,59.64195545000006,34,0.09977374999999711,70,0.10031083333333868
30509,59.7422662833334,42,0.10031083333333868,79,0.8994004166666798
30510,59.8443447833334,40,0.10207849999999752,68,0.1041457500000007
30511,59.9484905333334,47,0.1041457500000007,67,0.10629591666667437
30512,60.05478645000007,35,0.10629591666667437,66,0.10853050000000053
30513,60.16331695000007,42,0.10853050000000053,75,0.11168075000000499
30514,60.27499770000008,39,0.11168075000000499,63,0.11674016666666631
30515,60.391737866666745,47,0.11674016666666631,63,0.1222796666666639
30516,60.51401753333341,35,0.1222796666666639,62,0.12764916666667148
30517,60.64166670000008,16,0.12764916666667148,95,0.2516012500000002
30518,60.89326795000008,23,0.2516012500000002,55,0.22959949999999907
30519,61.12286745000008,28,0.22959949999999907,56,0.2264701666666653
30520,61.349337616666745,32,0.2264701666666653,56,0.2244069583333257
30521,61.57374457500007,35,0.2244069583333257,58,0.2225343333333356
30522,61.796278908333406,40,0.2225343333333356,59,0.22053908333332828
30523,62.016817991666734,44,0.22053908333332828,59,0.21872945833333546
30524,62.23554745000007,40,0.21872945833333546,57,0.21978195833333558
30525,62.455329408333405,35,0.21978195833333558,52,0.2214548333333326
30526,62.67678424166674,32,0.2214548333333326,49,0.22299816666666317
30527,62.8997824083334,28,0.22299816666666317,46,0.22472079166666958
30528,63.12450320000007,23,0.22472079166666958,41,0.22679116666666488
30529,63.351294366666735,16,0.22679116666666488,40,0.2264701666666653
30530,63.5777645333334,23,0.2264701666666653,41,0.22519512499999905
30531,63.8029596583334,28,0.22519512499999905,42,0.22393441666665836
30532,64.02689407500006,32,0.22393441666665836,43,0.22268783333333886
30533,64.2495819083334,35,0.22268783333333886,44,0.2214548333333255
30534,64.47103674166672,40,0.2214548333333255,45,0.22023558333333426
30535,64.69127232500006,44,0.22023558333333426,45,0.22053908333333538
30536,64.91181140833339,40,0.22053908333333538,45,0.2220688333333385
30537,65.13388024166673,35,0.2220688333333385,44,0.22346541666667008
30538,65.3573456583334,32,0.22346541666667008,43,0.22487770833332377
30539,65.58222336666672,28,0.22487770833332377,42,0.2264701666666724
30540,65.8086935333334,23,0.2264701666666724,41,0.45963950000002285
30541,66.03365820000008,47,0.22496466666667914,45,1.3855979166666685
30542,66.26833303333342,35,0.2346748333333437,26,0.23302008333332935
30543,66.50135311666675,39,0.23302008333332935,27,0.23108150000000194
30544,66.73243461666675,42,0.23108150000000194,28,0.2291555000000045
30545,66.96159011666676,39,0.2291555000000045,28,0.2288329999999945
30546,67.19042311666675,35,0.2288329999999945,27,0.2288329999999945
30547,67.41925611666674,49,0.2288329999999945,42,0.23120674999999835
30548,67.50366799166675,51,0.08441187500000069,42,0.08441187500000069
30549,67.58807986666675,49,0.08441187500000069,46,0.18714900000000512
30550,67.65046286666674,35,0.06238299999999697,27,0.23731516666667574
30551,67.77522886666675,47,0.12476600000000815,45,0.33764750000000276
30552,67.88777803333342,39,0.11254916666666759,28,0.22509833333333518
30553,68.11287636666675,52,0.22509833333333518,45,0.33764750000000276
30554,68.33797470000009,39,0.22509833333333518,27,0.23226666666666063
30555,68.45052386666676,54,0.11254916666666759,48,0.3591524999999933
30556,68.57024136666675,35,0.11971749999999304,26,0.2394350000000003
30557,68.80967636666675,56,0.2394350000000003,51,1.3884060000000034
30558,69.04107736666676,35,0.2314010000000053,28,0.23140099999999109
30559,69.27247836666675,40,0.23140099999999109,28,0.2314010000000053
30560,69.50387936666675,44,0.2314010000000053,29,0.2314010000000053
30561,69.73528036666676,40,0.2314010000000053,30,0.23140099999999109
30562,69.96668136666675,35,0.23140099999999109,28,0.2314010000000053
30563,70.19808236666675,59,0.2314010000000053,56,1.3771475000000066
30564,70.42566536666675,35,0.22758299999999565,28,0.22758300000000986
30565,70.65324836666676,44,0.22758300000000986,29,0.22758299999999565
30566,70.88083136666675,47,0.22758299999999565,49,0.6943985000000055
30567,71.10841436666675,44,0.22758299999999565,30,0.23146616666667796
30568,71.33988053333343,35,0.23146616666667796,29,0.23534933333333186
30569,71.57522986666676,57,0.23534933333333186,53,0.7060479999999956
30570,71.81057920000009,42,0.23534933333333186,26,0.23534933333333186
30571,72.04592853333342,35,0.23534933333333186,26,0.23534933333333186
30572,72.28127786666676,56,0.23534933333333186,51,0.6980800000000045
30573,72.51397120000009,40,0.2326933333333301,26,0.2326933333333301
30574,72.74666453333342,35,0.2326933333333301,26,0.2326933333333443
30575,72.97935786666676,54,0.2326933333333443,49,0.690369000000004
30576,73.20948086666677,39,0.23012300000000607,23,0.23012299999999186
30577,73.43960386666676,35,0.23012299999999186,23,0.23012300000000607
30578,73.66972686666676,56,0.23012300000000607,51,0.5389222499999988
30579,73.90924786666676,35,0.23952099999999632,24,0.23952100000001053
30580,74.14876886666677,32,0.23952100000001053,24,0.294255249999992
30581,74.20864911666676,52,0.059880249999991975,47,0.234375
30582,74.44302411666676,47,0.234375,48,1.4531597499999975
30583,74.70078986666677,30,0.25776575000000435,27,0.23952099999999632
30584,74.94031086666676,35,0.23952099999999632,27,0.23952099999999632
30585,75.17983186666676,39,0.23952099999999632,28,0.23534933333333186
30586,75.41518120000009,35,0.23534933333333186,27,0.23878400000000966
30587,75.6539652000001,30,0.23878400000000966,27,0.24221866666665903
30588,75.89618386666676,49,0.24221866666665903,48,2.8402360000000044
30589,76.1328702000001,33,0.23668633333333844,27,0.23668633333332423
30590,76.36955653333342,37,0.23668633333332423,28,0.23668633333333844
30591,76.60624286666676,40,0.23668633333333844,29,0.23668633333333844
30592,76.8429292000001,37,0.23668633333333844,28,0.23668633333332423
30593,77.07961553333342,33,0.23668633333332423,28,0.23668633333333844
30594,77.31630186666676,25,0.23668633333333844,27,0.23668633333332423
30595,77.55298820000009,32,0.23668633333332423,27,0.23668633333333844
30596,77.78967453333343,37,0.23668633333333844,28,0.23668633333333844
30597,78.02636086666676,41,0.23668633333333844,28,0.23668633333332423
30598,78.26304720000009,37,0.23668633333332423,28,0.23668633333333844
30599,78.49973353333343,32,0.23668633333333844,27,0.23668633333333844
30600,78.73641986666676,50,0.23668633333333844,42,0.23120674999999835
30601,78.82083174166677,52,0.08441187500000069,42,0.08441187500000069
30602,78.90524361666677,50,0.08441187500000069,46,0.18714900000000512
30603,78.96762661666676,37,0.06238299999999697,29,0.24037300000000528
30604,79.09239261666677,49,0.12476600000000815,45,0.3468210000000056
30605,79.20799961666677,41,0.11560699999999713,30,0.23121400000000847
30606,79.43921361666678,54,0.23121400000000847,45,0.3468209999999914
30607,79.67042761666677,41,0.23121399999999426,31,0.23532449999999017
30608,79.78603461666677,56,0.11560699999999713,48,0.3591524999999933
30609,79.90575211666676,37,0.11971749999999304,29,0.2394350000000003
30610,80.14518711666676,57,0.2394350000000003,51,0.6942030000000017
30611,80.37658811666677,45,0.2314010000000053,31,0.23140099999999109
30612,80.60798911666676,37,0.23140099999999109,28,0.2314010000000053
30613,80.83939011666676,56,0.2314010000000053,50,0.6942030000000017
30614,81.07079111666677,44,0.2314010000000053,30,0.23140099999999109
30615,81.30219211666676,36,0.23140099999999109,28,0.2314010000000053
30616,81.53359311666676,54,0.2314010000000053,51,0.6827490000000012
30617,81.76117611666676,42,0.22758299999999565,28,0.22758300000000986
30618,81.98875911666677,37,0.22758300000000986,29,0.22758299999999565
30619,82.21634211666677,56,0.22758299999999565,49,0.6943985000000055
30620,82.44392511666676,45,0.22758299999999565,27,0.23146616666667796
30621,82.67539128333344,39,0.23146616666667796,27,0.23534933333333186
30622,82.91074061666677,52,0.23534933333333186,48,1.0590720000000005
30623,83.1460899500001,35,0.23534933333333186,27,0.23534933333333186
30624,83.38143928333344,40,0.23534933333333186,29,0.23534933333333186
30625,83.61678861666677,44,0.23534933333333186,30,0.23534933333333186
30626,83.8521379500001,40,0.23534933333333186,29,0.24670700000000068
30627,83.96981261666677,51,0.11767466666667303,49,0.09677424999999573
30628,84.06658686666677,52,0.09677424999999573,45,0.09677425000000994
30629,84.0988449500001,35,0.03225808333333191,27,0.2580646666666695
30630,84.16336111666678,54,0.06451616666667803,45,0.09677424999999573
30631,84.26013536666677,52,0.09677424999999573,45,0.09677424999999573
30632,84.35690961666677,56,0.09677424999999573,50,1.0843380000000025
30633,84.59787361666677,34,0.24096400000000529,28,0.24096399999999107
30634,84.83883761666677,40,0.24096399999999107,29,0.24096400000000529
30635,85.07980161666677,42,0.24096400000000529,30,0.24096399999999107
30636,85.32076561666676,40,0.24096399999999107,29,0.2643668333333409
30637,85.44124761666677,54,0.12048200000000975,49,0.4316544999999934
30638,85.5851324500001,34,0.14388483333333113,27,0.28776966666666226
30639,85.87290211666676,54,0.28776966666666226,47,2.944219249999989
30640,86.1095884500001,30,0.23668633333333844,25,0.23668633333332423
30641,86.34627478333343,35,0.23668633333332423,27,0.23668633333333844
30642,86.58296111666677,39,0.23668633333333844,28,0.23668633333333844
30643,86.8196474500001,35,0.23668633333333844,27,0.23668633333332423
30644,87.05633378333343,30,0.23668633333332423,27,0.23806941666666148
30645,87.29440320000009,23,0.23806941666666148,25,0.23737924999998938
30646,87.53178245000008,30,0.23737924999998938,25,0.24436650000001237
30647,87.77614895000009,33,0.24436650000001237,27,0.24517316666666034
30648,88.02132211666675,37,0.24517316666666034,28,0.2492333333333363
30649,88.27055545000009,33,0.2492333333333363,26,0.2668455833333354
30650,88.53740103333342,30,0.2668455833333354,25,0.27972033333333
30651,88.81712136666675,47,0.27972033333333,45,1.4318085833333498
30652,89.0823080750001,30,0.2651867083333457,26,0.24006212499999435
30653,89.3223702000001,35,0.24006212499999435,27,0.23809741666667605
30654,89.56046761666677,39,0.23809741666667605,28,0.2307963333333447
30655,89.79126395000011,35,0.2307963333333447,28,0.2288329999999945
30656,90.02009695000011,30,0.2288329999999945,27,0.2288329999999945
30657,90.2489299500001,49,0.2288329999999945,42,0.23120674999999835
30658,90.3333418250001,51,0.08441187500000069,42,0.08441187500000069
30659,90.4177537000001,49,0.08441187500000069,46,0.18714900000000512
30660,90.4801367000001,35,0.06238299999999697,27,0.23905166666666844
30661,90.60490270000011,47,0.12476600000000815,45,0.3428569999999951
30662,90.71918836666677,39,0.11428566666666029,28,0.2285713333333348
30663,90.9477597000001,52,0.2285713333333348,45,0.3428570000000093
30664,91.17633103333344,39,0.2285713333333348,27,0.23400316666666754
30665,91.29061670000011,54,0.1142856666666745,48,0.3591524999999933
30666,91.41033420000011,37,0.11971749999999304,26,0.2394350000000003
30667,91.64976920000011,56,0.2394350000000003,51,1.3884060000000034
30668,91.88117020000011,35,0.2314010000000053,28,0.23140099999999109
30669,92.1125712000001,40,0.23140099999999109,28,0.2314010000000053
30670,92.34397220000011,44,0.2314010000000053,29,0.2314010000000053
30671,92.57537320000012,40,0.2314010000000053,30,0.23140099999999109
30672,92.8067742000001,35,0.23140099999999109,28,0.2314010000000053
30673,93.03817520000011,59,0.2314010000000053,56,1.3771475000000066
30674,93.2657582000001,35,0.22758299999999565,28,0.22758300000000986
30675,93.49334120000012,44,0.22758300000000986,29,0.22758299999999565
30676,93.72092420000011,47,0.22758299999999565,49,0.6943985000000055
30677,93.94850720000011,44,0.22758299999999565,30,0.23146616666667796
30678,94.17997336666679,35,0.23146616666667796,29,0.23534933333333186
30679,94.41532270000012,57,0.23534933333333186,53,0.7060479999999956
30680,94.65067203333345,42,0.23534933333333186,26,0.23534933333333186
30681,94.88602136666678,35,0.23534933333333186,26,0.23534933333333186
30682,95.12137070000011,56,0.23534933333333186,51,0.6980800000000045
30683,95.35406403333344,40,0.2326933333333301,26,0.2326933333333301
30684,95.58675736666677,35,0.2326933333333301,26,0.2326933333333443
30685,95.81945070000012,54,0.2326933333333443,49,0.345184500000002
30686,96.04957370000012,39,0.23012300000000607,23,0.244931666666659
30687,96.16463520000012,56,0.11506149999999593,47,0.09740262500000085
30688,96.26203782500012,54,0.09740262500000085,47,0.09740262500000085
30689,96.29450536666678,35,0.032467541666662214,23,0.25974033333334035
30690,96.35944045000012,52,0.06493508333333864,47,0.09740262500000085
30691,96.45684307500012,54,0.09740262500000085,47,0.09740262500000085
30692,96.55424570000012,56,0.09740262500000085,51,0.5660377500000067
30693,96.80581803333345,35,0.2515723333333284,24,0.2515723333333426
30694,97.0573903666668,32,0.2515723333333426,24,0.3009883333333363
30695,97.12028345000013,52,0.06289308333333565,47,0.23809525000000065
30696,97.35837870000013,47,0.23809525000000065,48,1.4349150000000037
30697,97.59789970000013,30,0.23952099999999632,27,0.23952100000001053
30698,97.83742070000014,35,0.23952100000001053,27,0.23952099999999632
30699,98.07694170000013,39,0.23952099999999632,28,0.23534933333333186
30700,98.31229103333347,35,0.23534933333333186,27,0.23878400000000966
30701,98.55107503333348,30,0.23878400000000966,27,0.24221866666665903
30702,98.79329370000013,49,0.24221866666665903,48,2.8402360000000044
30703,99.02998003333347,33,0.23668633333333844,27,0.23668633333332423
30704,99.2666663666668,37,0.23668633333332423,28,0.23668633333333844
30705,99.50335270000014,40,0.23668633333333844,29,0.23668633333333844
30706,99.74003903333347,37,0.23668633333333844,28,0.23668633333332423
30707,99.9767253666668,33,0.23668633333332423,28,0.23668633333333844
30708,100.21341170000014,25,0.23668633333333844,27,0.23668633333332423
30709,100.45009803333346,32,0.23668633333332423,27,0.23668633333333844
30710,100.6867843666668,37,0.23668633333333844,28,0.23668633333333844
30711,100.92347070000014,41,0.23668633333333844,28,0.23668633333332423
30712,101.16015703333346,37,0.23668633333332423,28,0.23668633333333844
30713,101.3968433666668,32,0.23668633333333844,27,0.23668633333333844
30714,101.63352970000014,50,0.23668633333333844,42,0.23120674999999835
30715,101.71794157500014,52,0.08441187500000069,42,0.08441187500000069
30716,101.80235345000014,50,0.08441187500000069,46,0.18714900000000512
30717,101.86473645000014,37,0.06238299999999697,29,0.23905166666666844
30718,101.98950245000015,49,0.12476600000000815,45,0.3428569999999951
30719,102.1037881166668,41,0.11428566666666029,30,0.2285713333333348
30720,102.33235945000014,54,0.2285713333333348,45,0.3428570000000093
30721,102.56093078333348,41,0.2285713333333348,31,0.23400316666666754
30722,102.67521645000015,56,0.1142856666666745,48,0.3591524999999933
30723,102.79493395000014,37,0.11971749999999304,29,0.2394350000000003
30724,103.03436895000014,57,0.2394350000000003,51,0.6942030000000017
30725,103.26576995000015,45,0.2314010000000053,31,0.23140099999999109
30726,103.49717095000014,37,0.23140099999999109,28,0.2314010000000053
30727,103.72857195000014,56,0.2314010000000053,50,0.6942030000000017
30728,103.95997295000015,44,0.2314010000000053,30,0.23140099999999109
30729,104.19137395000014,36,0.23140099999999109,28,0.2314010000000053
30730,104.42277495000015,54,0.2314010000000053,51,0.6827490000000012
30731,104.65035795000014,42,0.22758299999999565,28,0.22758300000000986
30732,104.87794095000015,37,0.22758300000000986,29,0.22758299999999565
30733,105.10552395000015,56,0.22758299999999565,49,0.6943985000000055
30734,105.33310695000014,45,0.22758299999999565,27,0.23146616666667796
30735,105.56457311666682,39,0.23146616666667796,27,0.23534933333333186
30736,105.79992245000015,52,0.23534933333333186,48,1.0590720000000005
30737,106.03527178333349,35,0.23534933333333186,27,0.23534933333333186
30738,106.27062111666682,40,0.23534933333333186,29,0.23534933333333186
30739,106.50597045000015,44,0.23534933333333186,30,0.23534933333333186
30740,106.74131978333348,40,0.23534933333333186,29,0.251008000000013
30741,106.85899445000015,46,0.11767466666667303,49,0.09999999999999432
30742,106.95899445000015,47,0.09999999999999432,45,0.10000000000000853
30743,106.9923277833335,35,0.03333333333334565,27,0.2666666666666657
30744,107.05899445000016,49,0.06666666666666288,45,0.09999999999999432
30745,107.15899445000015,47,0.09999999999999432,45,0.10000000000000853
30746,107.25899445000016,56,0.10000000000000853,50,1.111111500000007
30747,107.50590811666683,35,0.24691366666667136,28,0.24691366666665715
30748,107.75282178333349,39,0.24691366666665715,29,0.24691366666667136
30749,107.99973545000016,45,0.24691366666667136,30,0.24691366666667136
30750,108.24664911666683,39,0.24691366666667136,29,0.26838433333333
30751,108.37010595000017,54,0.12345683333333568,49,0.4347824999999972
30752,108.51503345000016,35,0.14492749999999432,27,0.28985500000000286
30753,108.80488845000016,54,0.28985500000000286,52,1.4460976666666596
30754,109.04585245000017,35,0.24096400000000529,28,0.24096399999999107
30755,109.28681645000016,39,0.24096399999999107,30,0.24096400000000529
30756,109.52778045000017,45,0.24096400000000529,31,0.24096399999999107
30757,109.76874445000016,39,0.24096399999999107,30,0.24096400000000529
30758,110.00970845000016,35,0.24096400000000529,28,0.24127766666666162
30759,110.25098611666682,52,0.24127766666666162,52,0.7331250000000153
30760,110.49355886666683,35,0.2425727500000079,27,0.24436650000001237
30761,110.73792536666684,40,0.24436650000001237,28,0.2461857499999951
30762,110.98411111666684,44,0.2461857499999951,30,0.2476490833333429
30763,111.23176020000018,40,0.2476490833333429,28,0.24310916666665605
30764,111.35652620000018,59,0.12476599999999394,60,0.35502950000000055
30765,111.47486936666684,35,0.11834316666666211,27,0.23668633333333844
30766,111.71155570000018,47,0.23668633333333844,65,1.4533119999999968
30767,111.95377436666685,30,0.24221866666667324,33,0.24221866666665903
30768,112.19599303333351,35,0.24221866666665903,34,0.24221866666667324
30769,112.43821170000018,39,0.24221866666667324,34,0.24221866666665903
30770,112.68043036666684,35,0.24221866666665903,33,0.24221866666667324
30771,112.92264903333351,30,0.24221866666667324,32,0.24221866666665903
30772,113.16486770000017,49,0.24221866666665903,65,0.23803866666666806
30773,113.25413220000017,51,0.08926449999999875,59,0.08926449999999875
30774,113.34339670000017,49,0.08926449999999875,60,0.08926449999999875
30775,113.40290636666684,30,0.05950966666667057,33,0.23803866666666806
30776,113.43266120000017,51,0.02975483333332818,59,0.08926449999999875
30777,113.52192570000017,49,0.08926449999999875,56,0.05950966666667057
30778,113.58143536666684,51,0.05950966666667057,56,0.05950966666667057
30779,113.64094503333351,49,0.05950966666667057,56,0.23803866666666806
30780,113.70045470000018,48,0.05950966666667057,62,0.1785289999999975
30781,113.87898370000018,49,0.1785289999999975,64,0.5430700000000002
30782,114.11702236666684,34,0.23803866666666806,33,0.24302733333333038
30783,114.36004970000018,30,0.24302733333333038,30,0.2480159999999927
30784,114.42205370000018,51,0.062004000000001724,62,0.18601199999999096
30785,114.60806570000017,47,0.18601199999999096,66,0.35100049999999783
30786,114.8420660333335,30,0.23400033333332715,30,0.23400033333334136
30787,115.07606636666684,35,0.23400033333334136,32,0.23400033333332715
30788,115.31006670000016,63,0.23400033333332715,66,0.9262766083333247
30789,115.55088536666683,35,0.2408186666666694,32,0.2408186666666694
30790,115.7917040333335,30,0.2408186666666694,30,0.2408186666666552
30791,116.03252270000016,28,0.2408186666666552,27,0.23803866666666806
30792,116.23634330833349,61,0.2038206083333307,63,0.2038206083333307
30793,116.27056136666683,35,0.03421805833333735,29,0.23803866666666806
30794,116.44016391666682,59,0.16960254999999336,62,0.20382060833334492
30795,116.5086000333335,40,0.0684361166666747,30,0.23803866666666806
30796,116.64398452500016,55,0.13538449166667021,61,0.2038206083333307
30797,116.74663870000016,43,0.10265417499999785,31,0.23873683333331996
30798,116.8478051333335,52,0.10116643333333286,59,0.20530064999998388
30799,116.98537553333348,40,0.1375703999999871,30,0.2411686666666526
30800,117.05310578333348,49,0.06773024999999677,58,0.3347040208333283
30801,117.22654420000013,35,0.17343841666665583,29,0.34170491666667147
30802,117.3878098041668,59,0.16126560416667246,55,0.180439312499999
30803,117.5682491166668,42,0.180439312499999,66,1.362480000000005
30804,117.81046778333348,30,0.24221866666667324,33,0.24221866666665903
30805,118.05268645000014,35,0.24221866666665903,34,0.24221866666667324
30806,118.29490511666681,39,0.24221866666667324,34,0.24221866666665903
30807,118.53712378333347,35,0.24221866666665903,33,0.24221866666667324
30808,118.77934245000014,30,0.24221866666667324,32,0.24221866666665903
30809,118.93072911666681,51,0.15138666666666722,59,0.09083199999999181
30810,119.0215611166668,49,0.09083199999999181,64,0.5355870000000067
30811,119.25959978333347,30,0.23803866666666806,33,0.23803866666666806
30812,119.49763845000014,34,0.23803866666666806,34,0.23803866666666806
30813,119.55714811666681,48,0.05950966666667057,57,0.1785289999999975
30814,119.7356771166668,49,0.1785289999999975,64,0.5430700000000002
30815,119.97371578333347,34,0.23803866666666806,33,0.24302733333333038
30816,120.2167431166668,30,0.24302733333333038,30,0.2480159999999927
30817,120.2787471166668,54,0.062004000000001724,62,0.18601199999999096
30818,120.4647591166668,47,0.18601199999999096,65,0.7020009999999957
30819,120.69875945000013,30,0.23400033333332715,30,0.23400033333334136
30820,120.93275978333347,35,0.23400033333334136,32,0.23400033333332715
30821,121.1667601166668,39,0.23400033333332715,33,0.23334683333334283
30822,121.40010695000014,35,0.23334683333334283,32,0.2370282499999945
30823,121.63713520000013,30,0.2370282499999945,30,0.24152683333332448
30824,121.87866203333346,49,0.24152683333332448,39,0.7474636666666612
30825,122.12376003333345,33,0.2450979999999987,20,0.2450979999999987
30826,122.36885803333345,37,0.2450979999999987,22,0.2572676666666638
30827,122.62612570000012,52,0.2572676666666638,44,0.24502925000000175
30828,122.87115495000012,51,0.24502925000000175,39,0.24961675000000128
30829,123.12077170000012,49,0.24961675000000128,39,0.25437391666667963
30830,123.3751456166668,47,0.25437391666667963,43,1.4084985833333405
30831,123.61702232500014,35,0.2418767083333364,22,0.24006212499999435
30832,123.85708445000013,39,0.24006212499999435,22,0.23809741666667605
30833,124.0951818666668,42,0.23809741666667605,23,0.2307963333333447
30834,124.32597820000015,39,0.2307963333333447,23,0.2288329999999945
30835,124.55481120000015,35,0.2288329999999945,22,0.2288329999999945
30836,124.78364420000014,49,0.2288329999999945,46,0.23375599999999963
30837,124.85423240000014,51,0.0705882000000031,42,0.07027859999999464
30838,124.92451100000014,49,0.07027859999999464,42,0.06976779999999394
30839,124.99427880000013,51,0.06976779999999394,44,0.06926452500000835
30840,125.01740020000014,35,0.023121400000007952,23,0.2292300833333485
30841,125.06354332500014,49,0.046143125000000396,42,0.06880129166667359
30842,125.13234461666681,47,0.06880129166667359,41,0.3428569999999951
30843,125.24663028333349,39,0.1142856666666745,25,0.22857133333332058
30844,125.47520161666681,52,0.22857133333332058,45,0.3428570000000093
30845,125.70377295000014,39,0.2285713333333348,26,0.23400316666666754
30846,125.81805861666682,54,0.1142856666666745,48,0.3591524999999933
30847,125.93777611666681,35,0.11971749999999304,25,0.2394350000000003
30848,126.17721111666681,56,0.2394350000000003,51,1.3884060000000034
30849,126.40861211666682,35,0.2314010000000053,28,0.23140099999999109
30850,126.64001311666681,40,0.23140099999999109,28,0.2314010000000053
30851,126.87141411666681,44,0.2314010000000053,29,0.2314010000000053
30852,127.10281511666682,40,0.2314010000000053,30,0.23140099999999109
30853,127.33421611666681,35,0.23140099999999109,28,0.2314010000000053
30854,127.56561711666681,59,0.2314010000000053,56,1.3771474999999924
30855,127.79320011666681,35,0.22758299999999565,28,0.22758300000000986
30856,128.02078311666682,44,0.22758300000000986,29,0.22758299999998144
30857,128.2483661166668,47,0.22758299999998144,49,0.6943985000000055
30858,128.4759491166668,44,0.22758300000000986,30,0.23146616666664954
30859,128.70741528333346,35,0.23146616666664954,29,0.23534933333334607
30860,128.9427646166668,57,0.23534933333334607,53,0.7060479999999814
30861,129.17811395000012,42,0.23534933333331765,26,0.23534933333334607
30862,129.41346328333347,35,0.23534933333334607,26,0.23534933333331765
30863,129.6488126166668,56,0.23534933333331765,51,0.6980800000000045
30864,129.88150595000013,40,0.2326933333333443,26,0.23269333333331588
30865,130.11419928333345,35,0.23269333333331588,26,0.2326933333333443
30866,130.3468926166668,54,0.2326933333333443,49,0.3451844999999878
30867,130.57701561666678,39,0.23012299999999186,23,0.23012300000002028
30868,130.69207711666678,56,0.11506149999999593,47,0.08629612500001826
30869,130.7783732416668,54,0.08629612500001826,47,0.08629612499998984
30870,130.8071386166668,35,0.028765375000006088,23,0.23012299999999186
30871,130.8646693666668,52,0.057530749999983755,47,0.08629612500001826
30872,130.9509654916668,54,0.08629612500001826,47,0.08629612499998984
30873,131.0372616166668,56,0.08629612499998984,51,0.3451844999999878
30874,131.2673846166668,35,0.23012299999999186,24,0.23554350000000568
30875,131.38244611666678,52,0.11506149999999593,47,0.3614460000000008
30876,131.5029281166668,32,0.12048200000000975,24,0.24096399999999107
30877,131.74389211666679,47,0.24096399999999107,48,1.4349149999999895
30878,131.98341311666678,30,0.23952099999999632,27,0.23952099999999632
30879,132.22293411666678,35,0.23952099999999632,27,0.23952099999999632
30880,132.46245511666677,39,0.23952099999999632,28,0.23534933333334607
30881,132.69780445000012,35,0.23534933333334607,27,0.23878399999998123
30882,132.9365884500001,30,0.23878399999998123,27,0.24221866666667324
30883,133.17880711666677,49,0.24221866666667324,48,2.8402360000000044
30884,133.4154934500001,33,0.23668633333332423,27,0.23668633333335265
30885,133.65217978333345,37,0.23668633333335265,28,0.23668633333332423
30886,133.88886611666678,40,0.23668633333332423,29,0.23668633333332423
30887,134.1255524500001,37,0.23668633333332423,28,0.23668633333335265
30888,134.36223878333345,33,0.23668633333335265,28,0.23668633333332423
30889,134.59892511666678,25,0.23668633333332423,27,0.23668633333332423
30890,134.8356114500001,32,0.23668633333332423,27,0.23668633333335265
30891,135.07229778333345,37,0.23668633333335265,28,0.23668633333332423
30892,135.30898411666678,41,0.23668633333332423,28,0.23668633333332423
30893,135.5456704500001,37,0.23668633333332423,28,0.23668633333335265
30894,135.78235678333346,32,0.23668633333335265,27,0.23668633333332423
30895,136.01904311666678,50,0.23668633333332423,45,0.23599841666666066
30896,136.0904012666668,52,0.07135815000000889,42,0.0708666666666602
30897,136.16126793333345,50,0.0708666666666602,41,0.07038179999997851
30898,136.23164973333343,52,0.07038179999997851,42,0.06990340000001538
30899,136.25504153333344,37,0.023391800000013063,29,0.23006254166665485
30900,136.30736708333345,50,0.05232555000000616,42,0.06916560833332142
30901,136.37081840833343,49,0.0634513249999884,45,0.3428570000000093
30902,136.4851040750001,41,0.11428566666666029,30,0.228571333333349
30903,136.71367540833344,54,0.228571333333349,45,0.34285699999998087
30904,136.94224674166676,41,0.22857133333332058,31,0.23400316666666754
30905,137.05653240833342,56,0.11428566666666029,48,0.3591524999999933
30906,137.17624990833343,37,0.11971750000000725,29,0.23943499999998608
30907,137.41568490833342,57,0.23943499999998608,51,0.6942029999999875
30908,137.64708590833342,45,0.2314010000000053,31,0.2314010000000053
30909,137.87848690833343,37,0.2314010000000053,28,0.23140099999997688
30910,138.1098879083334,56,0.23140099999997688,50,0.6942030000000159
30911,138.3412889083334,44,0.2314010000000053,30,0.2314010000000053
30912,138.57268990833342,36,0.2314010000000053,28,0.2314010000000053
30913,138.80409090833342,54,0.2314010000000053,51,0.6827490000000012
30914,139.03167390833343,42,0.22758300000000986,28,0.22758299999998144
30915,139.2592569083334,37,0.22758299999998144,29,0.22758300000000986
30916,139.48683990833342,56,0.22758300000000986,49,0.6943985000000055
30917,139.71442290833343,45,0.22758300000000986,27,0.23146616666664954
30918,139.94588907500008,39,0.23146616666664954,27,0.23534933333334607
30919,140.18123840833343,52,0.23534933333334607,48,1.0590719999999862
30920,140.41658774166675,35,0.23534933333331765,27,0.23534933333334607
30921,140.6519370750001,40,0.23534933333334607,29,0.23534933333331765
30922,140.8872864083334,44,0.23534933333331765,30,0.23534933333334607
30923,141.12263574166676,40,0.23534933333334607,29,0.24670699999998646
30924,141.24031040833341,46,0.11767466666665882,49,0.09677425000000994
30925,141.33708465833342,47,0.09677425000000994,45,0.09677424999998152
30926,141.36934274166674,35,0.0322580833333177,27,0.2580646666666837
30927,141.4338589083334,49,0.06451616666666382,45,0.09677425000000994
30928,141.53063315833342,47,0.09677425000000994,45,0.09677425000000994
30929,141.62740740833343,56,0.09677425000000994,50,1.0778444999999977
30930,141.86692840833342,35,0.23952099999999632,28,0.23952099999999632
30931,142.10644940833342,39,0.23952099999999632,29,0.23952099999999632
30932,142.34597040833341,45,0.23952099999999632,30,0.23952100000002474
30933,142.58549140833344,39,0.23952100000002474,29,0.25769149999999286
30934,142.70525190833342,54,0.11976049999998395,49,0.4137929999999983
30935,142.84318290833343,35,0.1379310000000089,27,0.2758619999999894
30936,143.11904490833342,54,0.2758619999999894,52,1.4460976666666738
30937,143.3600089083334,35,0.24096399999999107,28,0.2409640000000195
30938,143.60097290833343,39,0.2409640000000195,30,0.24096399999999107
30939,143.84193690833342,45,0.24096399999999107,31,0.24096399999999107
30940,144.08290090833341,39,0.24096399999999107,30,0.2409640000000195
30941,144.32386490833343,35,0.2409640000000195,28,0.24127766666666162
30942,144.5651425750001,52,0.24127766666666162,52,0.7331250000000011
30943,144.80771532500012,35,0.2425727500000221,27,0.24436649999998394
30944,145.0520818250001,40,0.24436649999998394,28,0.2461857499999951
30945,145.2982675750001,44,0.2461857499999951,30,0.2476490833333287
30946,145.54591665833343,40,0.2476490833333287,28,0.24310916666667026
30947,145.67068265833342,59,0.12476599999999394,60,0.35502950000000055
30948,145.7890258250001,35,0.11834316666667632,27,0.23668633333332423
30949,146.02571215833342,47,0.23668633333332423,65,1.453312000000011
30950,146.2679308250001,30,0.24221866666667324,33,0.24221866666667324
30951,146.51014949166677,35,0.24221866666667324,34,0.24221866666664482
30952,146.7523681583334,39,0.24221866666664482,34,0.24221866666667324
30953,146.99458682500008,35,0.24221866666667324,33,0.24221866666667324
30954,147.23680549166676,30,0.24221866666667324,32,0.24221866666667324
30955,147.47902415833343,49,0.24221866666667324,65,0.2258497083333566
30956,147.5645760750001,51,0.08555191666667383,59,0.08458704166667985
30957,147.64916311666678,49,0.08458704166667985,60,0.08348854166666797
30958,147.7048738666668,30,0.05571075000000292,33,0.2344207083333174
30959,147.73265165833345,51,0.027777791666665053,59,0.08241924999998673
30960,147.81507090833344,49,0.08241924999998673,56,0.06211183333334702
30961,147.8771827416668,51,0.06211183333334702,56,0.0621118333333186
30962,147.9392945750001,49,0.0621118333333186,56,0.23858233333334056
30963,148.00140640833345,48,0.06211183333334702,62,0.17647049999999354
30964,148.17787690833345,49,0.17647049999999354,64,0.5389530000000207
30965,148.41317090833346,34,0.23529400000001033,33,0.2416550000000086
30966,148.65482590833346,30,0.2416550000000086,30,0.2480160000000069
30967,148.71682990833347,51,0.062004000000001724,62,0.18601200000000517
30968,148.90284190833347,47,0.18601200000000517,66,0.35100049999999783
30969,149.1368422416668,30,0.23400033333334136,30,0.23400033333331294
30970,149.37084257500013,35,0.23400033333331294,32,0.23400033333334136
30971,149.60484290833347,63,0.23400033333334136,66,0.9262766083333247
30972,149.84566157500012,35,0.2408186666666552,32,0.2408186666666836
30973,150.0864802416668,30,0.2408186666666836,30,0.2408186666666552
30974,150.32729890833346,28,0.2408186666666552,27,0.23803866666665385
30975,150.5311195166668,61,0.2038206083333307,63,0.2038206083333307
30976,150.56533757500011,35,0.03421805833332314,29,0.23803866666668227
30977,150.73494012500012,59,0.16960255000000757,62,0.2038206083333307
30978,150.8033762416668,40,0.0684361166666747,30,0.23803866666665385
30979,150.93876073333345,55,0.135384491666656,61,0.2038206083333307
30980,151.04141490833345,43,0.10265417499999785,31,0.23873683333334839
30981,151.14258134166678,52,0.10116643333333286,59,0.2053006500000265
30982,151.2801517416668,40,0.13757040000001552,30,0.2411686666666526
30983,151.3478819916668,49,0.06773025000001098,58,0.33470402083329986
30984,151.52132040833345,35,0.17343841666664161,29,0.34170491666665725
30985,151.6825860125001,59,0.16126560416665825,55,0.180439312499999
30986,151.8630253250001,42,0.180439312499999,66,1.362480000000005
30987,152.10524399166678,30,0.24221866666667324,33,0.24221866666667324
30988,152.34746265833346,35,0.24221866666667324,34,0.24221866666664482
30989,152.5896813250001,39,0.24221866666664482,34,0.24221866666667324
30990,152.83189999166677,35,0.24221866666667324,33,0.24221866666667324
30991,153.07411865833345,30,0.24221866666667324,32,0.24221866666667324
30992,153.2255053250001,51,0.15138666666666722,59,0.09083200000000602
30993,153.31633732500012,49,0.09083200000000602,64,0.5355869999999925
30994,153.55437599166677,30,0.23803866666665385,33,0.23803866666668227
30995,153.79241465833346,34,0.23803866666668227,34,0.23803866666665385
30996,153.8519243250001,48,0.05950966666665636,57,0.1785289999999975
30997,154.0304533250001,49,0.1785289999999975,64,0.5430700000000286
30998,154.2684919916668,34,0.23803866666668227,33,0.2430273333333446
30999,154.51151932500014,30,0.2430273333333446,30,0.2480160000000069
31000,154.57352332500014,54,0.062004000000001724,62,0.18601200000000517
31001,154.75953532500014,47,0.18601200000000517,65,0.7020009999999957
31002,154.99353565833349,30,0.23400033333334136,30,0.23400033333331294
31003,155.2275359916668,35,0.23400033333331294,32,0.23400033333334136
31004,155.46153632500014,39,0.23400033333334136,33,0.23334683333334283
31005,155.69488315833348,35,0.23334683333334283,32,0.2370282500000087
31006,155.9319114083335,30,0.2370282500000087,30,0.24152683333332448
31007,156.17343824166682,49,0.24152683333332448,39,0.7474636666666754
31008,156.41853624166683,33,0.24509800000001292,20,0.2450979999999845
31009,156.6636342416668,37,0.2450979999999845,22,0.257267666666678
31010,156.9209019083335,52,0.257267666666678,44,0.24509800000001292
31011,157.1659999083335,51,0.24509800000001292,39,0.2450979999999845
31012,157.4110979083335,49,0.2450979999999845,39,0.24509800000001292
31013,157.6561959083335,47,0.24509800000001292,43,1.4063181583333346
31014,157.89589219166683,30,0.23969628333333048,22,0.24006212500000856
31015,158.13595431666684,35,0.24006212500000856,22,0.23809741666667605
31016,158.37405173333352,39,0.23809741666667605,23,0.2307963333333305
31017,158.60484806666685,35,0.2307963333333305,23,0.2288329999999803
31018,158.83368106666683,30,0.2288329999999803,22,0.22883300000000872
31019,159.06251406666684,49,0.22883300000000872,47,0.23461408333332656
31020,159.13345035000015,51,0.07093628333331026,43,0.07045060000001513
31021,159.20390095000016,49,0.07045060000001513,43,0.0699713999999858
31022,159.27387235000015,51,0.0699713999999858,43,0.06949860000000285
31023,159.29712815000016,35,0.02325580000001537,23,0.22956041666665783
31024,159.34337095000015,49,0.04624279999998748,43,0.06903195000001006
31025,159.41240290000016,47,0.06903195000001006,45,0.3428570000000093
31026,159.52668856666682,39,0.11428566666666029,25,0.228571333333349
31027,159.75525990000017,52,0.228571333333349,45,0.34285699999998087
31028,159.9838312333335,39,0.22857133333332058,26,0.23400316666666754
31029,160.09811690000015,54,0.11428566666666029,48,0.3591524999999933
31030,160.21783440000016,37,0.11971750000000725,25,0.23943499999998608
31031,160.45726940000014,56,0.23943499999998608,51,1.3884060000000034
31032,160.68867040000015,35,0.2314010000000053,28,0.2314010000000053
31033,160.92007140000015,40,0.2314010000000053,28,0.23140099999997688
31034,161.15147240000013,44,0.23140099999997688,29,0.2314010000000053
31035,161.38287340000014,40,0.2314010000000053,30,0.2314010000000053
31036,161.61427440000014,35,0.2314010000000053,28,0.2314010000000053
31037,161.84567540000015,59,0.2314010000000053,56,1.3771475000000066
31038,162.07325840000016,35,0.22758300000000986,28,0.22758299999998144
31039,162.30084140000014,44,0.22758299999998144,29,0.22758300000000986
31040,162.52842440000015,47,0.22758300000000986,49,0.6943985000000055
31041,162.75600740000016,44,0.22758300000000986,30,0.23146616666664954
31042,162.9874735666668,35,0.23146616666664954,29,0.23534933333334607
31043,163.22282290000015,57,0.23534933333334607,53,0.7060479999999814
31044,163.45817223333347,42,0.23534933333331765,26,0.23534933333334607
31045,163.69352156666682,35,0.23534933333334607,26,0.23534933333331765
31046,163.92887090000013,56,0.23534933333331765,51,0.6980800000000045
31047,164.16156423333348,40,0.2326933333333443,26,0.23269333333331588
31048,164.3942575666668,35,0.23269333333331588,26,0.2326933333333443
31049,164.62695090000014,54,0.2326933333333443,49,0.3451844999999878
31050,164.85707390000013,39,0.23012299999999186,23,0.23340466666667226
31051,164.97213540000013,56,0.11506149999999593,47,0.08875737500000014
31052,165.06089277500013,54,0.08875737500000014,47,0.08875737500000014
31053,165.0904785666668,35,0.029585791666676187,23,0.23668633333332423
31054,165.14965015000013,52,0.05917158333332395,47,0.08875737500000014
31055,165.23840752500013,54,0.08875737500000014,47,0.08875737500000014
31056,165.32716490000013,56,0.08875737500000014,51,0.35502950000000055
31057,165.56385123333345,35,0.23668633333332423,24,0.24573166666667134
31058,165.68219440000013,52,0.11834316666667632,47,0.3821655000000135
31059,165.80958290000012,32,0.12738849999999502,24,0.25477700000001846
31060,166.06435990000014,47,0.25477700000001846,48,1.4392440000000022
31061,166.30532390000013,30,0.24096399999999107,27,0.2409640000000195
31062,166.54628790000015,35,0.2409640000000195,27,0.24096399999999107
31063,166.78725190000014,39,0.24096399999999107,28,0.23534933333334607
31064,167.0226012333335,35,0.23534933333334607,27,0.23878399999998123
31065,167.26138523333347,30,0.23878399999998123,27,0.24221866666667324
31066,167.50360390000014,49,0.24221866666667324,48,2.8402360000000044
31067,167.74029023333347,33,0.23668633333332423,27,0.23668633333335265
31068,167.97697656666682,37,0.23668633333335265,28,0.23668633333332423
31069,168.21366290000014,40,0.23668633333332423,29,0.23668633333332423
31070,168.45034923333347,37,0.23668633333332423,28,0.23668633333335265
31071,168.68703556666682,33,0.23668633333335265,28,0.23668633333332423
31072,168.92372190000015,25,0.23668633333332423,27,0.23668633333332423
31073,169.16040823333347,32,0.23668633333332423,27,0.23668633333335265
31074,169.39709456666682,37,0.23668633333335265,28,0.23668633333332423
31075,169.63378090000015,41,0.23668633333332423,28,0.23668633333332423
31076,169.87046723333347,37,0.23668633333332423,28,0.23668633333335265
31077,170.10715356666682,32,0.23668633333335265,27,0.23668633333332423
31078,170.34383990000015,50,0.23668633333332423,48,0.23461408333332656
31079,170.41477618333346,52,0.07093628333331026,42,0.07045060000001513
31080,170.48522678333347,50,0.07045060000001513,43,0.0699713999999858
31081,170.55519818333346,52,0.0699713999999858,42,0.06949860000000285
31082,170.57845398333347,37,0.02325580000001537,29,0.22939620833332697
31083,170.62469678333346,50,0.04624279999998748,42,0.0688677416666792
31084,170.69356452500014,49,0.0688677416666792,45,0.3428570000000093
31085,170.8078501916668,41,0.11428566666666029,30,0.228571333333349
31086,171.03642152500015,54,0.228571333333349,45,0.34285699999998087
31087,171.26499285833347,41,0.22857133333332058,31,0.23400316666666754
31088,171.37927852500013,56,0.11428566666666029,48,0.3591524999999933
31089,171.49899602500014,37,0.11971750000000725,29,0.23943499999998608
31090,171.73843102500012,57,0.23943499999998608,51,0.6942029999999875
31091,171.96983202500013,45,0.2314010000000053,31,0.2314010000000053
31092,172.20123302500014,37,0.2314010000000053,28,0.23140099999997688
31093,172.4326340250001,56,0.23140099999997688,47,0.6942030000000159
31094,172.66403502500012,44,0.2314010000000053,28,0.2314010000000053
31095,172.89543602500012,36,0.2314010000000053,28,0.2314010000000053
31096,173.12683702500013,54,0.2314010000000053,49,0.6827490000000012
31097,173.35442002500014,42,0.22758300000000986,25,0.22758299999998144
31098,173.58200302500012,37,0.22758299999998144,25,0.22758300000000986
31099,173.80958602500013,56,0.22758300000000986,45,0.7050110000000132
31100,174.03716902500014,45,0.22758300000000986,27,0.23500366666667105
31101,174.2721726916668,39,0.23500366666667105,27,0.24242433333333224
31102,174.51459702500014,52,0.24242433333333224,43,1.0909094999999809
31103,174.75702135833347,35,0.24242433333333224,23,0.24242433333333224
31104,174.9994456916668,40,0.24242433333333224,26,0.24242433333333224
31105,175.24187002500014,44,0.24242433333333224,27,0.24242433333333224
31106,175.48429435833347,40,0.24242433333333224,26,0.2601009999999917
31107,175.60550652500012,46,0.12121216666665191,44,0.10416662500000484
31108,175.70967315000013,47,0.10416662500000484,40,0.10416662500000484
31109,175.74439535833346,35,0.03472220833333495,23,0.27777766666665116
31110,175.81383977500013,49,0.0694444166666699,40,0.10416662499997642
31111,175.9180064000001,47,0.10416662499997642,40,0.10416662500000484
31112,176.02217302500011,56,0.10416662500000484,45,1.1320755000000133
31113,176.27374535833346,35,0.2515723333333426,24,0.2515723333333142
31114,176.52531769166677,39,0.2515723333333142,26,0.2515723333333426
31115,176.7768900250001,45,0.2515723333333426,27,0.2515723333333426
31116,177.02846235833346,39,0.2515723333333426,26,0.2627725000000112
31117,177.15424852500013,54,0.1257861666666713,44,0.4109589999999912
31118,177.29123485833347,35,0.13698633333333987,23,0.2739726666666513
31119,177.56520752500012,54,0.2739726666666513,44,3.1203319999999906
31120,177.82161785833344,35,0.25641033333332075,21,0.25641033333334917
31121,178.0780281916668,39,0.25641033333334917,22,0.25641033333332075
31122,178.3344385250001,45,0.25641033333332075,24,0.25641033333334917
31123,178.59084885833346,39,0.25641033333334917,22,0.25641033333332075
31124,178.84725919166678,35,0.25641033333332075,22,0.2560019999999952
31125,179.10326119166677,28,0.2560019999999952,20,0.2555936666666696
31126,179.35885485833344,35,0.2555936666666696,21,0.2589025000000049
31127,179.61775735833345,39,0.2589025000000049,22,0.26229799999998704
31128,179.88005535833344,45,0.26229799999998704,22,0.26490650000002347
31129,180.14496185833346,39,0.26490650000002347,22,0.26846241666666515
31130,180.41342427500012,35,0.26846241666666515,21,0.2721152499999846
31131,180.6855395250001,28,0.2721152499999846,22,0.1177337499999851
31132,180.7738615250001,47,0.0883219999999767,37,0.08849608333332526
31133,180.8032732750001,35,0.029411750000008396,25,0.11843149999998559
31134,180.8623576083334,48,0.05908433333331686,41,0.08902075000000309
31135,180.92170477500008,40,0.05934716666666873,28,0.11816966666665962
31136,180.95137835833341,47,0.029673583333334363,38,0.08849608333332526
31137,181.03987444166674,46,0.08849608333332526,39,0.1173044999999604
31138,181.1276804416667,47,0.08780599999997207,40,0.08858283333333361
31139,181.1571789416667,40,0.029498499999988326,28,0.11843150000001401
31140,181.21626327500005,52,0.059084333333345285,42,0.08902075000000309
31141,181.27561044166671,35,0.05934716666666873,27,0.11843149999998559
31142,181.30528402500005,55,0.029673583333334363,43,0.08875791666665123
31143,181.3940419416667,54,0.08875791666665123,45,0.11747449999998594
31144,181.4821046916667,52,0.08806275000000596,43,0.0887589166666487
31145,181.51151644166669,35,0.029411749999979975,28,0.11869433333333745
31146,181.57086360833335,54,0.05934716666666873,45,0.08884566666665705
31147,181.63021077500002,40,0.05934716666666873,30,0.1186086666666597
31148,181.659709275,52,0.029498499999988326,43,0.08911016666667138
31149,181.74881944166668,51,0.08911016666667138,44,0.11904924999998912
31150,181.83828285833334,52,0.08946341666666058,46,0.08858283333333361
31151,181.86786869166667,40,0.029585833333328537,28,0.11799400000001015
31152,181.92686569166668,55,0.05899700000000507,49,0.0884954999999934
31153,181.98586269166668,35,0.05899700000000507,27,0.13451849999998444
31154,182.01536119166667,59,0.029498499999988326,47,0.10501999999999612
31155,182.12038119166667,28,0.10501999999999612,27,0.13063650000000848
31156,182.22128944166667,47,0.10090825000000336,45,0.08881258333332198
31157,182.25101769166668,35,0.02972825000000512,30,0.11782158333332404
31158,182.310102025,48,0.05908433333331686,49,0.08806275000000596
31159,182.368839275,40,0.05873725000000718,34,0.11799608333333822
31160,182.398164775,47,0.029325499999998783,45,0.08867058333333944
31161,182.48683535833334,46,0.08867058333333944,46,0.11825641666666797
31162,182.575593275,47,0.08875791666665123,48,0.08867058333333944
31163,182.605091775,40,0.029498500000016747,34,0.11869591666666679
31164,182.66426385833333,52,0.05917208333332269,50,0.08910966666667264
31165,182.72378769166667,35,0.0595238333333441,33,0.11773533333331443
31166,182.753373525,55,0.029585833333328537,51,0.08814949999998589
31167,182.841523025,54,0.08814949999998589,54,0.117994583333342
31168,182.929931775,52,0.08840875000001347,51,0.08875791666665123
31169,182.95951760833333,35,0.029585833333328537,33,0.11808233333334783
31170,183.01868969166665,54,0.05917208333332269,53,0.08823575000002393
31171,183.07759994166668,40,0.058910250000025144,36,0.11730199999999513
31172,183.10692544166668,52,0.029325499999998783,51,0.08797649999999635
31173,183.19490194166667,51,0.08797649999999635,52,0.11764800000000264
31174,183.28305144166666,52,0.08814949999998589,54,0.08867016666667382
31175,183.31254994166667,40,0.029498500000016747,34,0.11834333333334257
31176,183.37172160833333,55,0.059171666666657075,57,0.08875750000001403
31177,183.43089327500002,35,0.059171666666685496,32,0.13424683333332155
31178,183.46047910833335,59,0.029585833333328537,55,0.10466099999999301
31179,183.56514010833334,30,0.10466099999999301,31,0.13143158333335236
31180,183.66638210833335,48,0.10124200000001338,56,0.09047608333335688
31181,183.6965716916667,36,0.030189583333338987,35,0.12029250000000502
31182,183.7568581916667,52,0.060286500000017895,58,0.08991749999998433
31183,183.8168641916667,40,0.060005999999987125,39,0.1193699166666704
31184,183.8467756916667,54,0.029911499999997204,60,0.0894584166666732
31185,183.93623410833337,57,0.0894584166666732,63,0.11946033333333617
31186,184.02587577500003,60,0.08964166666666529,63,0.08936558333334688
31187,184.0556944416667,40,0.02981866666667088,39,0.11900341666665781
31188,184.11524135833338,64,0.059546916666676,66,0.08909316666665745
31189,184.17469785833336,36,0.059456499999981816,37,0.11845733333333897
31190,184.20433452500004,66,0.029636666666675637,72,0.08882066666666333
31191,184.2931551916667,74,0.08882066666666333,76,0.11735233333331507
31192,184.381267775,72,0.08811258333329874,75,0.08771925000002057
31193,184.410507525,40,0.02923975000001633,40,0.11721675000001142
31194,184.46898702500002,71,0.058479500000004236,70,0.0882357499999955
31195,184.52772427500003,42,0.05873725000000718,44,0.1180819166666538
31196,184.557222775,69,0.029498499999988326,69,0.08858341666666547
31197,184.64580619166668,67,0.08858341666666547,68,0.11730349999999135
31198,184.73361119166668,66,0.08780500000000302,67,0.08875791666665123
31199,184.76310969166667,42,0.029498499999988326,44,0.11843149999998559
31200,184.82236910833333,69,0.0592594166666629,66,0.08858383333333109
31201,184.88154119166666,40,0.05917208333332269,41,0.11704625000001556
31202,184.91095294166666,64,0.029411750000008396,67,0.08763450000000716
31203,184.99858744166667,63,0.08763450000000716,68,0.11791550000000939
31204,185.086741025,66,0.08815358333333734,63,0.08841341666666835
31205,185.11650294166668,30,0.02976191666667205,35,0.11704575000001682
31206,185.17515444166668,60,0.058651499999996304,63,0.08780600000002892
31207,185.2335486916667,33,0.05839425000002052,38,0.11799516666664545
31208,185.2629604416667,59,0.029411750000008396,63,0.08858341666663705
31209,185.35154385833334,57,0.08858341666663705,60,0.11808191666668222
31210,185.44021402500002,60,0.08867016666667382,58,0.08806275000000596
31211,185.46962577500003,33,0.029411750000008396,36,0.11747449999998594
31212,185.52827677500002,55,0.058650999999997566,54,0.0883219999999767
31213,185.587100275,30,0.05882349999998837,34,0.11782049999999344
31214,185.616598775,54,0.029498499999988326,54,0.08832200000000512
31215,185.704920775,57,0.08832200000000512,53,0.117923083333352
31216,185.79329652500002,52,0.08837575000001152,48,0.08873133333332817
31217,185.82284385833336,30,0.029547333333340475,31,0.11845733333331054
31218,185.88202785833334,51,0.05918399999998769,48,0.08900158333332797
31219,185.94130119166667,33,0.05927333333332285,33,0.11927816666667468
31220,185.97102944166667,54,0.02972825000000512,47,0.08954991666666956
31221,186.06057935833334,48,0.08954991666666956,45,0.122082666666671
31222,186.15180544166668,47,0.09122608333333915,42,0.09316250000000537
31223,186.182662025,33,0.030856583333331855,29,0.12562374999998838
31224,186.2449679416667,50,0.06230591666667351,42,0.09507999999999583
31225,186.308285775,30,0.06331783333331487,26,0.146073916666694
31226,186.34004794166668,48,0.03176216666668097,41,0.20303700000002323
31227,186.4543596916667,28,0.11431175000001303,22,0.11813700000001859
31228,186.5430849416667,47,0.08872525000001019,37,0.08806324999997628
31229,186.57249669166671,35,0.029411750000008396,25,0.11721774999998047
31230,186.63114819166668,48,0.05865149999996788,41,0.08823983333334695
31231,186.6897144416667,40,0.05856625000001259,28,0.11878266666667514
31232,186.71938802500003,47,0.029673583333334363,38,0.08910908333334078
31233,186.80849710833337,46,0.08910908333334078,39,0.1177337499999851
31234,186.89681910833335,47,0.0883219999999767,40,0.08823525000002519
31235,186.92623085833335,40,0.029411750000008396,28,0.11782050000002187
31236,186.98505435833337,52,0.05882350000001679,42,0.08858283333333361
31237,187.04405135833338,35,0.05899700000000507,27,0.118783250000007
31238,187.0736371916667,55,0.029585833333328537,43,0.08919741666667846
31239,187.16283460833338,54,0.08919741666667846,45,0.11825641666666797
31240,187.25159252500004,52,0.08875791666665123,43,0.08806375000000344
31241,187.28109102500005,35,0.029498500000016747,28,0.11721624999998426
31242,187.33965627500004,54,0.05856524999998669,45,0.08806275000000596
31243,187.39830727500004,40,0.058650999999997566,30,0.1181706666666571
31244,187.42771902500004,52,0.029411750000008396,43,0.0887589166666487
31245,187.5164779416667,51,0.0887589166666487,44,0.11782158333332404
31246,187.60497402500002,52,0.08849608333332526,46,0.08849716666665586
31247,187.63429952500002,40,0.029325499999998783,28,0.11834333333334257
31248,187.69347119166667,55,0.059171666666657075,49,0.08875750000001403
31249,187.75264285833336,35,0.059171666666685496,27,0.13604433333333077
31250,187.7822286916667,59,0.029585833333328537,47,0.10645850000000223
31251,187.8886871916667,28,0.10645850000000223,27,0.13063650000000848
31252,187.9895954416667,47,0.10090825000000336,45,0.08907541666667385
31253,188.0193236916667,35,0.02972825000000512,30,0.11843149999998559
31254,188.07867085833337,49,0.05934716666666873,49,0.08840983333331565
31255,188.13775519166668,37,0.05908433333331686,34,0.11738825000000475
31256,188.16708069166668,47,0.029325499999998783,45,0.08806275000000596
31257,188.2551434416667,46,0.08806275000000596,46,0.11887358333331122
31258,188.34434344166667,47,0.08919999999997685,48,0.08884524999999144
31259,188.374017025,37,0.029673583333334363,34,0.11816866666666215
31260,188.43318869166666,52,0.059171666666657075,50,0.08840875000001347
31261,188.49218569166666,35,0.05899700000000507,33,0.1177337499999851
31262,188.52159744166667,55,0.029411750000008396,51,0.0883219999999767
31263,188.60991944166665,54,0.0883219999999767,54,0.1188731666666456
31264,188.6989418583333,52,0.08902241666666555,51,0.08911016666664295
31265,188.7287926083333,35,0.029850749999980053,33,0.11816966666665962
31266,188.78805202499996,54,0.0592594166666629,53,0.0882357499999955
31267,188.84696227499995,37,0.05891024999999672,36,0.11808341666665001
31268,188.87628777499995,52,0.029325499999998783,51,0.08875791666665123
31269,188.9650456916666,51,0.08875791666665123,52,0.11869433333333745
31270,189.0540664416666,52,0.08902075000000309,54,0.08875791666665123
31271,189.08374002499994,37,0.029673583333334363,34,0.11808133333332194
31272,189.14282435833326,55,0.05908433333331686,57,0.08849550000002182
31273,189.20182135833326,35,0.05899700000000507,32,0.13595700000001898
31274,189.23131985833328,59,0.029498500000016747,55,0.10645850000000223
31275,189.33777835833328,54,0.10645850000000223,64,0.13077308333333804
31276,189.43836185833328,55,0.10058349999999905,58,0.09047608333335688
31277,189.46855144166662,35,0.030189583333338987,34,0.12029250000000502
31278,189.52883794166664,54,0.060286500000017895,61,0.08991749999998433
31279,189.58884394166662,38,0.060005999999987125,37,0.1193699166666704
31280,189.61875544166662,53,0.029911499999997204,50,0.0894584166666732
31281,189.7082138583333,54,0.0894584166666732,56,0.11946033333333617
31282,189.79785552499996,62,0.08964166666666529,68,0.08936558333334688
31283,189.82767419166663,38,0.02981866666667088,38,0.11900341666665781
31284,189.8872211083333,61,0.059546916666676,62,0.08909316666665745
31285,189.9466776083333,35,0.059456499999981816,35,0.11775333333332583
31286,189.97631427499996,59,0.029636666666675637,65,0.08811666666665019
31287,190.06443094166661,58,0.08811666666665019,68,0.11636375000000498
31288,190.15164019166662,67,0.0872092500000008,72,0.08763400000000843
31289,190.18079469166662,37,0.02915450000000419,41,0.11765116666666131
31290,190.23927419166662,66,0.058479500000004236,69,0.08875750000001403
31291,190.29844585833328,40,0.059171666666657075,45,0.11764958333333198
31292,190.32803169166664,64,0.02958583333335696,69,0.08806374999997502
31293,190.4160954416666,62,0.08806374999997502,74,0.11678949999998167
31294,190.5035594416666,61,0.08746399999998289,69,0.08806275000000596
31295,190.5328849416666,40,0.029325499999998783,44,0.11756074999999555
31296,190.5916221916666,59,0.05873725000000718,69,0.08840933333331691
31297,190.6504456916666,37,0.05882349999998837,41,0.11747858333330896
31298,190.68003152499992,58,0.029585833333328537,69,0.08789274999998042
31299,190.7679242749999,61,0.08789274999998042,72,0.11730299999999261
31300,190.8558155249999,59,0.08789125000001263,70,0.08823524999999677
31301,190.8852272749999,30,0.029411749999979975,35,0.11730300000002103
31302,190.9440507749999,62,0.05882350000001679,64,0.08763400000000843
31303,191.0025302749999,35,0.058479500000004236,37,0.11653325000000336
31304,191.03168477499992,53,0.02915450000000419,57,0.08737874999999917
31305,191.11906352499992,55,0.08737874999999917,65,0.11747858333330896
31306,191.2069562749999,54,0.08789274999998042,57,0.0886701666666454
31307,191.23654210833323,35,0.029585833333328537,39,0.117994583333342
31308,191.29562644166654,59,0.05908433333331686,63,0.08832200000000512
31309,191.35453669166657,30,0.058910250000025144,37,0.11764700000000516
31310,191.38394844166655,49,0.029411749999979975,57,0.08823525000002519
31311,191.47218369166657,52,0.08823525000002519,61,0.117923083333352
31312,191.56055944166658,50,0.08837575000001152,59,0.08873133333332817
31313,191.59010677499992,30,0.029547333333340475,35,0.11845733333331054
31314,191.6492907749999,54,0.05918399999998769,58,0.08900158333332797
31315,191.70856410833323,35,0.05927333333332285,38,0.11927816666667468
31316,191.73829235833324,46,0.02972825000000512,56,0.08954991666666956
31317,191.8278422749999,49,0.08954991666666956,60,0.12276091666666389
31318,191.9194990249999,47,0.09165674999999851,51,0.09407299999998031
31319,191.95060319166657,35,0.031104166666665378,35,0.12711291666664692
31320,192.0135720249999,46,0.06296883333331493,55,0.09692666666666128
31321,192.07771610833322,30,0.06414408333333199,33,0.13437416666667445
31322,192.11049869166655,47,0.032782583333329285,50,0.10159158333334517
31323,192.2120902749999,47,0.10159158333334517,72,0.13966983333332905
31324,192.31710769166656,59,0.1050174166666693,58,0.10384241666665162
31325,192.35176010833322,28,0.03465241666665975,41,0.13803683333333083
31326,192.42095010833322,51,0.06918999999999187,59,0.10315450000001647
31327,192.48979694166655,33,0.06884683333333896,43,0.13677400000000262
31328,192.52410460833323,52,0.034307666666677505,59,0.10246633333332511
31329,192.62657094166656,45,0.10246633333332511,71,0.13554066666668518
31330,192.72825460833323,57,0.10168366666667339,60,0.10122883333335153
31331,192.76211160833324,33,0.033857000000011794,44,0.13474366666667947
31332,192.82948344166658,51,0.06737183333333974,60,0.1010577499999954
31333,192.89685527499992,28,0.06737183333333974,42,0.1346373333333304
31334,192.93054119166658,52,0.03368591666665566,61,0.10095141666667473
31335,193.03149260833325,44,0.10095141666667473,75,0.13431833333333998
31336,193.13223135833326,56,0.10073875000000498,62,0.10084508333332565
31337,193.1658109416666,28,0.033579583333334995,44,0.1346373333333304
31338,193.23307644166658,51,0.06726549999999065,63,0.10105775000002382
31339,193.30044827499992,33,0.06737183333333974,45,0.13496216666666783
31340,193.3341341916666,52,0.03368591666668408,63,0.10127624999998375
31341,193.4354104416666,45,0.10127624999998375,74,0.13529066666666267
31342,193.53679594166658,57,0.10138549999999213,65,0.10203916666665691
31343,193.57070110833325,33,0.03390516666667054,45,0.1368230833333257
31344,193.63883510833324,51,0.06813399999998637,64,0.10326008333333903
31345,193.70752419166658,28,0.06868908333333934,44,0.1390757500000177
31346,193.74209519166658,52,0.034570999999999685,64,0.10450475000001802
31347,193.8465999416666,40,0.10450475000001802,77,0.13716916666666634
31348,193.9499739416666,52,0.1033740000000023,65,0.1010642500000074
31349,193.98376910833326,33,0.033795166666664045,46,0.1346409166666831
31350,194.0510381916666,45,0.06726908333334336,65,0.1010577499999954
31351,194.11841002499995,36,0.06737183333333974,48,0.13474366666665105
31352,194.1520959416666,48,0.03368591666665566,65,0.1010577499999954
31353,194.2531536916666,42,0.1010577499999954,75,0.13474366666667947
31354,194.3542114416666,54,0.1010577499999954,65,0.10105775000002382
31355,194.38789735833328,36,0.03368591666668408,47,0.13474366666665105
31356,194.45526919166662,45,0.06737183333333974,65,0.10095141666664631
31357,194.52264102499993,33,0.06737183333331132,45,0.13431833333333998
31358,194.55622060833326,48,0.033579583333334995,65,0.10073875000000498
31359,194.65695935833327,43,0.10073875000000498,79,0.1346373333333304
31360,194.75791077499994,55,0.10095141666667473,66,0.10116700000000378
31361,194.7915966916666,26,0.03368591666665566,46,0.13507141666667621
31362,194.85907777499995,47,0.06748108333334812,66,0.10138549999999213
31363,194.92666810833327,31,0.06759033333332809,48,0.13551066666667566
31364,194.96046327499994,50,0.033795166666664045,66,0.10171550000001162
31365,195.06217877499995,47,0.10171550000001162,77,0.13605049999998187
31366,195.16410660833327,59,0.10192783333332045,67,0.10269816666666998
31367,195.19822927499993,31,0.034122666666661416,46,0.13760308333334592
31368,195.26680477499994,50,0.06857550000000856,66,0.10370883333334291
31369,195.33583235833328,26,0.06902758333333736,45,0.13872499999999377
31370,195.37051360833328,55,0.03468125000000555,65,0.10404374999998822
31371,195.47455735833327,47,0.10404374999998822,81,0.13562066666665373
31372,195.57627285833328,59,0.10171550000001162,65,0.1017154999999832
31373,195.61017802499993,28,0.03390516666664212,46,0.13562066666668215
31374,195.67798835833327,51,0.06781033333334108,65,0.10160550000000512
31375,195.7457986916666,33,0.06781033333334108,48,0.13518066666665618
31376,195.77959385833327,52,0.033795166666664045,65,0.10138549999999213
31377,195.88097935833326,45,0.10138549999999213,78,0.1351806666666846
31378,195.98236485833328,57,0.10138550000002056,65,0.10116700000000378
31379,196.01616002499995,33,0.033795166666664045,47,0.13474366666667947
31380,196.0835318583333,51,0.06737183333333974,65,0.1010577499999954
31381,196.15090369166663,28,0.06737183333333974,45,0.1346373333333304
31382,196.18458960833328,52,0.03368591666665566,65,0.10095141666667473
31383,196.28554102499996,44,0.10095141666667473,79,0.13431833333333998
31384,196.38627977499996,56,0.10073875000000498,66,0.10084508333332565
31385,196.4198593583333,28,0.033579583333334995,46,0.1346373333333304
31386,196.4871248583333,51,0.06726549999999065,66,0.10105775000002382
31387,196.55449669166663,33,0.06737183333333974,48,0.13496216666666783
31388,196.5881826083333,52,0.03368591666668408,66,0.10127624999998375
31389,196.6894588583333,45,0.10127624999998375,77,0.13529066666666267
31390,196.7908443583333,57,0.10138549999999213,67,0.10203916666665691
31391,196.82474952499996,33,0.03390516666667054,46,0.1368230833333257
31392,196.89288352499995,51,0.06813399999998637,66,0.10326008333333903
31393,196.96157260833328,28,0.06868908333333934,45,0.1390757500000177
31394,196.99614360833328,52,0.034570999999999685,65,0.10450475000001802
31395,197.1006483583333,44,0.10450475000001802,81,0.13737199999999916
31396,197.2036773583333,56,0.10302899999999227,65,0.10302900000002069
31397,197.2380203583333,30,0.034343000000006896,46,0.13737199999999916
31398,197.30670635833332,50,0.06868600000001379,65,0.10291849999998703
31399,197.3753923583333,36,0.06868599999998537,48,0.13760641666667084
31400,197.4096248583333,54,0.034232500000001664,65,0.10337391666666917
31401,197.51299877499997,45,0.10337391666666917,78,0.14104508333332433
31402,197.6185476083333,57,0.1055488333333301,65,0.10709124999999631
31403,197.6540438583333,36,0.035496249999994234,47,0.14429666666666208
31404,197.7256388583333,50,0.07159500000000207,65,0.10994558333331383
31405,197.79834052499996,30,0.07270166666666,45,0.15266874999997526
31406,197.8355844416666,54,0.03724391666665383,65,0.11542483333332143
31407,197.95100927499993,48,0.11542483333332143,79,0.14046033333332275
31408,198.0562111916666,60,0.10520191666665824,66,0.10589249999998174
31409,198.09146960833326,26,0.035258416666664516,46,0.1416265833333057
31410,198.16210369166657,50,0.07063408333331722,66,0.10661008333332234
31411,198.23309619166656,31,0.07099249999998847,48,0.14294983333331857
31412,198.2687137749999,55,0.03561758333333387,66,0.1073322499999847
31413,198.37604602499988,47,0.1073322499999847,77,0.1440380833333279
31414,198.48398302499987,59,0.10793699999999262,67,0.10842883333333475
31415,198.5200841083332,31,0.03610108333333528,46,0.14478108333332784
31416,198.5924118583332,50,0.07232774999999947,66,0.10880374999999276
31417,198.66486519166654,26,0.07245333333332837,45,0.1449158333333287
31418,198.7012156083332,55,0.03635041666666439,65,0.1085654166666643
31419,198.80978102499986,47,0.1085654166666643,52,0.13562066666665373
31420,198.91149652499988,59,0.10171550000001162,57,0.1017154999999832
31421,198.94540169166652,28,0.03390516666664212,33,0.13562066666668215
31422,199.01321202499986,51,0.06781033333334108,47,0.10160550000000512
31423,199.0810223583332,33,0.06781033333334108,34,0.13518066666665618
31424,199.11481752499986,52,0.033795166666664045,47,0.10138549999999213
31425,199.21620302499986,45,0.10138549999999213,49,0.1351806666666846
31426,199.31758852499988,57,0.10138550000002056,54,0.10116700000000378
31427,199.35138369166654,33,0.033795166666664045,34,0.13474366666667947
31428,199.41875552499988,51,0.06737183333333974,48,0.1010577499999954
31429,199.48612735833322,28,0.06737183333333974,34,0.1346373333333304
31430,199.51981327499988,52,0.03368591666665566,48,0.10095141666667473
31431,199.62076469166655,44,0.10095141666667473,51,0.13431833333333998
31432,199.72150344166656,56,0.10073875000000498,56,0.10084508333332565
31433,199.7550830249999,28,0.033579583333334995,34,0.1346373333333304
31434,199.82234852499988,51,0.06726549999999065,50,0.10105775000002382
31435,199.88972035833322,33,0.06737183333333974,36,0.13496216666666783
31436,199.9234062749999,52,0.03368591666668408,50,0.10127624999998375
31437,200.0246825249999,45,0.10127624999998375,53,0.13529066666666267
31438,200.12606802499988,57,0.10138549999999213,58,0.10203916666665691
31439,200.15997319166655,33,0.03390516666667054,35,0.1368230833333257
31440,200.22810719166654,51,0.06813399999998637,51,0.10326008333333903
31441,200.29679627499988,28,0.06868908333333934,34,0.1390757500000177
31442,200.33136727499988,52,0.034570999999999685,51,0.10450475000001802
31443,200.4358720249999,40,0.10450475000001802,55,0.13716916666666634
31444,200.5392460249999,52,0.1033740000000023,60,0.1010642500000074
31445,200.57304119166656,33,0.033795166666664045,37,0.1346409166666831
31446,200.6403102749999,45,0.06726908333334336,52,0.1010577499999954
31447,200.70768210833324,36,0.06737183333333974,38,0.13474366666665105
31448,200.7413680249999,48,0.03368591666665566,53,0.1010577499999954
31449,200.8424257749999,42,0.1010577499999954,55,0.13474366666667947
31450,200.9434835249999,54,0.1010577499999954,62,0.10105775000002382
31451,200.97716944166658,36,0.03368591666668408,38,0.13474366666665105
31452,201.04454127499992,45,0.06737183333333974,54,0.10095141666664631
31453,201.11191310833323,33,0.06737183333331132,38,0.13431833333333998
31454,201.14549269166656,48,0.033579583333334995,54,0.10073875000000498
31455,201.24623144166657,43,0.10073875000000498,57,0.1346373333333304
31456,201.34718285833324,55,0.10095141666667473,65,0.10116700000000378
31457,201.3808687749999,26,0.03368591666665566,39,0.13507141666667621
31458,201.44834985833324,47,0.06748108333334812,56,0.10138549999999213
31459,201.51594019166657,31,0.06759033333332809,40,0.13551066666667566
31460,201.54973535833324,50,0.033795166666664045,56,0.10171550000001162
31461,201.65145085833325,47,0.10171550000001162,60,0.13605049999998187
31462,201.75337869166657,59,0.10192783333332045,68,0.10269816666666998
31463,201.78750135833323,31,0.034122666666661416,40,0.13760308333334592
31464,201.85607685833324,50,0.06857550000000856,57,0.10370883333334291
31465,201.92510444166658,26,0.06902758333333736,39,0.13782750000001442
31466,201.95978569166658,55,0.03468125000000555,58,0.10314625000000888
31467,202.0629319416666,47,0.10314625000000888,62,0.13671033333332616
31468,202.16551960833326,59,0.10258766666666475,68,0.10225666666667621
31469,202.19964227499992,28,0.034122666666661416,42,0.13615666666669313
31470,202.26777627499993,51,0.0681340000000148,59,0.10192783333334887
31471,202.3357989416666,33,0.06802266666667833,43,0.13562066666665373
31472,202.36970410833328,52,0.03390516666667054,59,0.1017154999999832
31473,202.47141960833326,45,0.1017154999999832,62,0.1350714166666478
31474,202.57280510833326,57,0.10138549999999213,70,0.1010577499999954
31475,202.6064910249999,33,0.03368591666665566,43,0.13453100000000973
31476,202.67386285833325,51,0.06737183333333974,61,0.10073875000000498
31477,202.74102202499992,28,0.06715916666666999,42,0.13400133333334452
31478,202.77460160833326,52,0.033579583333334995,61,0.10042175000000952
31479,202.87502335833327,54,0.10042175000000952,64,0.1345316666666463
31480,202.97586910833326,66,0.10084574999999063,73,0.10116700000000378
31481,203.0095550249999,30,0.03368591666665566,44,0.13507141666667621
31482,203.07703610833326,57,0.06748108333334812,62,0.10138549999999213
31483,203.1446264416666,33,0.06759033333332809,45,0.13551066666667566
31484,203.17842160833325,60,0.033795166666664045,62,0.10171550000001162
31485,203.28013710833326,52,0.10171550000001162,66,0.13605049999998187
31486,203.38206494166658,64,0.10192783333332045,74,0.10269816666666998
31487,203.41618760833325,33,0.034122666666661416,44,0.13760308333334592
31488,203.48476310833325,57,0.06857550000000856,62,0.10370883333334291
31489,203.5537906916666,30,0.06902758333333736,42,0.1382762499999899
31490,203.5884719416666,60,0.03468125000000555,62,0.10359499999998434
31491,203.69206694166658,52,0.10359499999998434,64,0.1368201666666664
31492,203.7947644416666,64,0.102697500000005,73,0.10236800000001267
31493,203.82888710833325,30,0.034122666666661416,44,0.13637933333333763
31494,203.8971324416666,54,0.06824533333335125,61,0.10214533333333975
31495,203.96526644166659,33,0.06813399999998637,45,0.13593916666667383
31496,203.99927777499994,57,0.03401133333335338,61,0.10192783333332045
31497,204.10120560833326,51,0.10192783333332045,64,0.13540066666666917
31498,204.20281110833326,63,0.10160550000000512,71,0.10138549999999213
31499,204.23660627499993,33,0.033795166666664045,42,0.13496216666666783
31500,204.30419660833326,54,0.06759033333332809,60,0.1010577499999954
31501,204.3715684416666,30,0.06737183333333974,40,0.13453100000000973
31502,204.40525435833325,57,0.03368591666665566,59,0.10084508333335407
31503,204.5060994416666,51,0.10084508333335407,60,0.13400133333334452
31504,204.60652119166662,63,0.10042175000000952,69,0.10073875000000498
31505,204.64010077499995,30,0.033579583333334995,41,0.13453100000000973
31506,204.70725994166662,54,0.06715916666666999,58,0.1010577499999954
31507,204.77463177499996,33,0.06737183333333974,42,0.1350714166666478
31508,204.80831769166662,57,0.03368591666665566,58,0.10138549999999213
31509,204.9097031916666,51,0.10138549999999213,61,0.13572683333333657
31510,205.01141869166662,63,0.10171550000001162,68,0.10203400000000329
31511,205.04543002499994,33,0.034011333333324956,39,0.13626800000000117
31512,205.11345269166662,54,0.06802266666667833,57,0.10236800000001267
31513,205.18169802499995,30,0.06824533333332283,38,0.13682016666669483
31514,205.21582069166664,57,0.03412266666668984,56,0.102697500000005
31515,205.31851819166664,51,0.102697500000005,57,0.13709983333333753
31516,205.42149535833332,63,0.10297716666667611,65,0.10236799999998425
31517,205.45561802499998,30,0.034122666666661416,39,0.1363793333333092
31518,205.5238633583333,54,0.06824533333332283,55,0.10214533333333975
31519,205.5919973583333,33,0.06813399999998637,40,0.13593916666667383
31520,205.62600869166664,57,0.03401133333335338,55,0.10192783333332045
31521,205.72793652499996,50,0.10192783333332045,58,0.13540066666666917
31522,205.82954202499997,62,0.10160550000000512,64,0.10138549999999213
31523,205.86333719166663,33,0.033795166666664045,38,0.13496216666666783
31524,205.93092752499996,54,0.06759033333332809,53,0.1010577499999954
31525,205.9982993583333,30,0.06737183333333974,36,0.13453100000000973
31526,206.03198527499995,57,0.03368591666665566,53,0.10084508333335407
31527,206.1328303583333,50,0.10084508333335407,54,0.13400133333334452
31528,206.23325210833332,62,0.10042175000000952,62,0.10073875000000498
31529,206.26683169166665,30,0.033579583333334995,37,0.13453100000000973
31530,206.33399085833332,54,0.06715916666666999,52,0.1010577499999954
31531,206.40136269166666,33,0.06737183333333974,38,0.1350714166666478
31532,206.43504860833332,57,0.03368591666665566,52,0.10138549999999213
31533,206.5364341083333,49,0.10138549999999213,54,0.13572683333333657
31534,206.63814960833332,61,0.10171550000001162,60,0.10203400000000329
31535,206.67216094166665,33,0.034011333333324956,35,0.13626800000000117
31536,206.74018360833333,54,0.06802266666667833,50,0.10236800000001267
31537,206.80842894166665,30,0.06824533333332283,34,0.13682016666669483
31538,206.84255160833334,57,0.03412266666668984,50,0.102697500000005
31539,206.94524910833334,49,0.102697500000005,55,0.13732616666666786
31540,207.05357100833334,61,0.10832189999999287,49,0.10236800000001267
31541,207.082575275,30,0.029004266666674994,34,0.1363793333333092
31542,207.15082060833333,54,0.06824533333332283,48,0.10214533333333975
31543,207.21895460833332,33,0.06813399999998637,35,0.13593916666667383
31544,207.25296594166667,57,0.03401133333335338,48,0.10192783333332045
31545,207.354893775,48,0.10192783333332045,53,0.13540066666666917
31546,207.46156855,60,0.1066747750000161,48,0.10136911249998093
31547,207.49029444166666,33,0.02872589166665307,34,0.13496216666666783
31548,207.557884775,54,0.06759033333332809,47,0.1010577499999954
31549,207.62525660833333,30,0.06737183333333974,32,0.13453100000000973
31550,207.658942525,57,0.03368591666665566,47,0.10084508333335407
31551,207.75978760833334,48,0.10084508333335407,52,0.13400133333334452
31552,207.86020935833335,60,0.10042175000000952,49,0.10073875000000498
31553,207.89378894166668,30,0.033579583333334995,33,0.13453100000000973
31554,207.96094810833335,54,0.06715916666666999,45,0.1010577499999954
31555,208.0283199416667,33,0.06737183333333974,33,0.13502358333332154
31556,208.06200585833335,57,0.03368591666665566,45,0.10133766666666588
31557,208.16334352500002,48,0.10133766666666588,51,0.13678308333334144
31558,208.26558902500003,60,0.10224550000000932,47,0.10407699999998954
31559,208.30012660833336,33,0.03453758333333212,31,0.1400297499999965
31560,208.36966602500001,54,0.06953941666665742,44,0.10610033333333035
31561,208.44015635833335,30,0.0704903333333391,29,0.1435582499999839
31562,208.47576635833335,57,0.03560999999999126,44,0.10794824999999264
31563,208.58371460833334,51,0.10794824999999264,52,0.14468166666665638
31564,208.69770589166666,63,0.11399128333331987,47,0.10803182500001185
31565,208.728396275,30,0.030690383333336513,29,0.14367350000000556
31566,208.80035944166667,54,0.07196316666667713,47,0.10744249999999056
31567,208.872069775,33,0.07171033333332844,30,0.1426843333333352
31568,208.90780194166666,57,0.035732166666662124,47,0.10695216666667307
31569,209.01475410833334,50,0.10695216666667307,51,0.14170366666667178
31570,209.12109210833336,62,0.10633800000002225,46,0.10585266666666371
31571,209.156457775,33,0.03536566666664953,31,0.14073633333333646
31572,209.22694477500002,54,0.07048700000001418,46,0.10525599999999713
31573,209.29719410833334,30,0.07024933333332228,29,0.1397873333333166
31574,209.33220077500002,57,0.035006666666674846,46,0.10478066666664176
31575,209.43698144166666,50,0.10478066666664176,51,0.13931016666666096
31576,209.54140460833332,62,0.10442316666666329,48,0.10490033333331894
31577,209.57629160833332,30,0.03488699999999767,28,0.1403814999999895
31578,209.64630494166664,54,0.07001333333332127,45,0.10561166666667532
31579,209.7166731083333,33,0.07036816666666823,29,0.1414609999999925
31580,209.75191660833332,57,0.03524350000000709,45,0.10621749999998542
31581,209.8581341083333,49,0.10621749999998542,51,0.1426843333333352
31582,209.96508627499998,61,0.10695216666667307,47,0.1075689166666507
31583,210.00081844166664,33,0.035732166666662124,29,0.14392466666666337
31584,210.07265519166663,54,0.07183674999998857,44,0.10819425000002525
31585,210.1447431083333,30,0.0720879166666748,28,0.14583783333335987
31586,210.18084944166665,57,0.03610633333335045,44,0.10973150000000942
31587,210.29058094166666,49,0.10973150000000942,52,0.1466064999999901
31588,210.40056810833332,61,0.10998716666665587,46,0.10959600000001046
31589,210.43718744166665,30,0.036619333333334225,28,0.14582599999999957
31590,210.51016410833333,54,0.07297666666667624,46,0.10921033333332275
31591,210.58301344166665,33,0.07284933333332333,28,0.14519100000001117
31592,210.61937444166665,57,0.03636099999999942,45,0.10883000000001175
31593,210.72820444166666,48,0.10883000000001175,48,0.14455349999997225
31594,210.8366516083333,60,0.10844716666665022,43,0.10806949999999915
31595,210.87275794166663,33,0.03610633333332203,28,0.1437999166666657
31596,210.9447211083333,54,0.07196316666667713,42,0.10769191666665279
31597,211.0165578583333,30,0.07183674999998857,27,0.14317466666665268
31598,211.05241302499996,57,0.03585516666666422,42,0.10731949999998847
31599,211.15973252499995,48,0.10731949999998847,45,0.14343008333329976
31600,211.26705627499993,60,0.10732374999997774,42,0.10908666666665567
31601,211.30316260833325,30,0.03610633333332203,24,0.14674116666665782
31602,211.3761429416666,54,0.07298033333333365,39,0.11104091666666704
31603,211.4499037749999,33,0.07376083333332417,25,0.15034658333337347
31604,211.48718385833325,57,0.03728008333334287,39,0.1130665000000306
31605,211.60025035833328,47,0.1130665000000306,43,0.15385016666667184
31606,211.71527760833328,59,0.11502724999999714,39,0.11720541666667827
31607,211.75410052499996,33,0.0388229166666747,24,0.15782125000001201
31608,211.83248302499996,54,0.07838250000000357,36,0.11946433333335449
31609,211.91192177499997,30,0.07943875000000844,22,0.1616784166666605
31610,211.9519473583333,57,0.04002558333334605,36,0.12165283333331445
31611,212.07360019166663,28,0.12165283333331445,22,0.13191608333332283
31612,212.17584269166662,47,0.10224249999998847,37,0.08867266666666751
31613,212.20551627499995,35,0.029673583333334363,25,0.11747858333333738
31614,212.26451535833328,48,0.05899908333333315,41,0.08771924999999214
31615,212.3229948583333,40,0.058479500000004236,28,0.11897175000001425
31616,212.35223460833328,47,0.029239749999987907,38,0.08973200000002635
31617,212.4419666083333,46,0.08973200000002635,39,0.12021108333334496
31618,212.5322376083333,47,0.09027100000000132,40,0.08946441666668647
31619,212.56217769166665,40,0.029940083333343637,28,0.11834833333332995
31620,212.621702025,52,0.05952433333334284,42,0.08806374999997502
31621,212.68052602499998,35,0.05882399999998711,27,0.1175638333333211
31622,212.70976577499997,55,0.029239749999987907,43,0.08832408333333319
31623,212.7980898583333,54,0.08832408333333319,45,0.11834333333334257
31624,212.8868473583333,52,0.08875750000001403,43,0.08840983333331565
31625,212.91643319166664,35,0.029585833333328537,28,0.11756224999996334
31626,212.97525719166663,54,0.05882399999998711,45,0.08832408333330477
31627,213.0339954416666,40,0.05873824999997623,30,0.11869550000000118
31628,213.06358127499993,52,0.029585833333328537,43,0.08910966666667264
31629,213.1526909416666,51,0.08910966666667264,44,0.11790783333330523
31630,213.24110027499992,52,0.08840933333331691,46,0.0884954999999934
31631,213.2705987749999,40,0.029498499999988326,28,0.11816866666666215
31632,213.32959577499992,55,0.05899700000000507,49,0.08875750000001403
31633,213.38876744166657,35,0.059171666666657075,27,0.13944383333335963
31634,213.41835327499993,59,0.02958583333335696,47,0.10985800000000268
31635,213.52821127499993,28,0.10985800000000268,27,0.13063650000000848
31636,213.62911952499994,47,0.10090825000000336,45,0.08907541666667385
31637,213.65884777499994,35,0.02972825000000512,30,0.1183441666666738
31638,213.7181949416666,48,0.05934716666666873,49,0.0884954999999934
31639,213.77719194166662,40,0.05899700000000507,34,0.11654024999998569
31640,213.8066904416666,47,0.029498499999988326,45,0.08704174999999736
31641,213.8937321916666,46,0.08704174999999736,46,0.11887516666666897
31642,213.9827566083333,47,0.08902441666668892,48,0.08919849999998064
31643,214.01260735833327,40,0.029850749999980053,34,0.11799874999999815
31644,214.07195510833327,52,0.05934775000000059,50,0.08806275000000596
31645,214.13060610833327,35,0.058650999999997566,33,0.11799516666664545
31646,214.16001785833328,55,0.029411750000008396,51,0.08858341666663705
31647,214.2486012749999,54,0.08858341666663705,54,0.11764849999997296
31648,214.3367512749999,52,0.08814999999998463,51,0.08893399999999474
31649,214.3662497749999,35,0.029498499999988326,33,0.11922633333335853
31650,214.4256852749999,54,0.059435500000006414,53,0.08964158333336059
31651,214.48547610833324,40,0.05979083333335211,36,0.11817583333333914
31652,214.51532685833325,52,0.029850750000008475,51,0.08832508333333067
31653,214.60365194166658,51,0.08832508333333067,52,0.11730349999999135
31654,214.6914569416666,52,0.08780500000000302,54,0.0884954999999934
31655,214.72095544166658,40,0.029498499999988326,34,0.11799400000001015
31656,214.77995244166658,55,0.05899700000000507,57,0.0884954999999934
31657,214.83894944166659,35,0.05899700000000507,32,0.13706399999998098
31658,214.86844794166657,59,0.029498499999988326,55,0.10756549999999265
31659,214.97601344166657,30,0.10756549999999265,31,0.13109783333334235
31660,215.07692169166657,48,0.10090825000000336,56,0.09047608333335688
31661,215.1071112749999,36,0.030189583333338987,35,0.12029250000000502
31662,215.16739777499993,52,0.060286500000017895,59,0.08991749999998433
31663,215.2274037749999,40,0.060005999999987125,39,0.1193699166666704
31664,215.2573152749999,54,0.029911499999997204,62,0.0894584166666732
31665,215.34677369166658,57,0.0894584166666732,63,0.11946033333333617
31666,215.43641535833325,60,0.08964166666666529,66,0.08936558333334688
31667,215.46623402499992,40,0.02981866666667088,39,0.11900341666665781
31668,215.5257809416666,64,0.059546916666676,69,0.08909316666665745
31669,215.58523744166658,36,0.059456499999981816,37,0.11832175000000689
31670,215.61487410833325,66,0.029636666666675637,72,0.08868508333333125
31671,215.70355919166659,74,0.08868508333333125,75,0.11636375000000498
31672,215.7908531916666,72,0.0872940000000142,73,0.08763600000000338
31673,215.8199229416666,40,0.02906974999999079,40,0.11773833333333528
31674,215.8784891916666,71,0.05856625000001259,72,0.08875791666665123
31675,215.93766127499993,42,0.05917208333332269,44,0.11782158333332404
31676,215.96724710833325,69,0.029585833333328537,71,0.0882357499999955
31677,216.05548285833325,67,0.0882357499999955,71,0.1164489999999887
31678,216.14286210833325,66,0.08737924999999791,70,0.08797999999998751
31679,216.17193185833324,42,0.02906974999999079,44,0.1179072500000018
31680,216.23084210833323,69,0.05891024999999672,68,0.08849550000002182
31681,216.28983910833324,40,0.05899700000000507,41,0.11816908333332776
31682,216.31933760833326,64,0.029498500000016747,67,0.08867058333331101
31683,216.40800819166657,63,0.08867058333331101,68,0.11782158333332404
31684,216.49624394166656,66,0.0882357499999955,63,0.0886701666666454
31685,216.5258297749999,30,0.029585833333328537,35,0.11765058333332945
31686,216.5849141083332,60,0.05908433333331686,63,0.08772075000001678
31687,216.64348035833322,33,0.05856625000001259,38,0.1172192500000051
31688,216.67263485833323,59,0.02915450000000419,63,0.08806475000000091
31689,216.76069960833323,57,0.08806475000000091,60,0.11808341666665001
31690,216.84945752499988,60,0.08875791666665123,58,0.08780500000000302
31691,216.87878302499988,33,0.029325499999998783,36,0.11695900000000847
31692,216.93726252499988,55,0.058479500000004236,54,0.08771924999999214
31693,216.99574202499988,30,0.058479500000004236,34,0.11695899999998005
31694,217.02498177499987,54,0.029239749999987907,54,0.08771924999999214
31695,217.11270102499986,57,0.08771924999999214,53,0.117923083333352
31696,217.20107677499988,52,0.08837575000001152,48,0.08873133333332817
31697,217.23062410833322,30,0.029547333333340475,31,0.11845733333331054
31698,217.2898081083332,51,0.05918399999998769,48,0.08900158333332797
31699,217.34908144166653,33,0.05927333333332285,33,0.11927816666667468
31700,217.37880969166653,54,0.02972825000000512,47,0.08954991666666956
31701,217.4683596083332,48,0.08954991666666956,45,0.122082666666671
31702,217.55958569166654,47,0.09122608333333915,42,0.09316250000000537
31703,217.59044227499987,33,0.030856583333331855,29,0.12562374999998838
31704,217.65274819166655,50,0.06230591666667351,42,0.095289166666646
31705,217.71606602499986,30,0.06331783333331487,26,0.13912891666666383
31706,217.7480373583332,48,0.03197133333333113,41,0.19938741666666715
31707,217.85519494166653,28,0.1071575833333327,22,0.12181741666665857
31708,217.94742477499986,47,0.09222983333333445,37,0.08867191666664098
31709,217.97701235833318,35,0.02958758333332412,25,0.11764958333330355
31710,218.0360966916665,48,0.05908433333331686,41,0.08771974999999088
31711,218.0946619416665,40,0.05856524999998669,28,0.11696050000000469
31712,218.1238164416665,47,0.02915450000000419,38,0.0878060000000005
31713,218.2116224416665,46,0.0878060000000005,39,0.11816924999999401
31714,218.30020585833313,47,0.08858341666663705,40,0.08849608333335368
31715,218.3297916916665,40,0.02958583333335696,28,0.1173902499999997
31716,218.38870194166648,52,0.05891024999999672,42,0.08763450000000716
31717,218.44718194166649,35,0.058480000000002974,27,0.11747649999998089
31718,218.4763364416665,55,0.02915450000000419,43,0.0883219999999767
31719,218.56465844166647,54,0.0883219999999767,45,0.11816925000002243
31720,218.65341594166648,52,0.08875750000001403,43,0.08806324999997628
31721,218.6828276916665,35,0.029411750000008396,28,0.11713099999997212
31722,218.74147919166646,54,0.05865149999996788,45,0.08780500000000302
31723,218.79995869166646,40,0.058479500000004236,30,0.11799566666664418
31724,218.82928419166646,52,0.029325499999998783,43,0.0886701666666454
31725,218.9179543583331,51,0.0886701666666454,44,0.11834333333334257
31726,219.00671185833312,52,0.08875750000001403,46,0.08875749999998561
31727,219.03629769166645,40,0.029585833333328537,28,0.11834333333334257
31728,219.0954693583331,55,0.059171666666657075,50,0.08875750000001403
31729,219.1546410249998,35,0.059171666666685496,27,0.14073545833332446
31730,219.18422685833312,59,0.029585833333328537,48,0.11114962499999592
31731,219.29537648333311,55,0.11114962499999592,46,0.12266537500002528
31732,219.38845427499982,54,0.09307779166670116,43,0.08858458333332919
31733,219.41804185833314,40,0.02958758333332412,29,0.1179072500000018
31734,219.47703885833315,55,0.05899700000000507,47,0.0882357499999955
31735,219.53594910833314,42,0.05891024999999672,32,0.11695949999997879
31736,219.56527460833314,54,0.029325499999998783,43,0.08763399999998
31737,219.65290860833312,53,0.08763399999998,45,0.11799558333331106
31738,219.7412306083331,54,0.0883219999999767,46,0.08893299999999726
31739,219.77090419166643,42,0.029673583333334363,33,0.11816966666665962
31740,219.8301636083331,57,0.0592594166666629,49,0.0882357499999955
31741,219.8890738583331,40,0.05891024999999672,31,0.11704474999999093
31742,219.9183993583331,60,0.029325499999998783,50,0.08771924999999214
31743,220.00611860833308,57,0.08771924999999214,53,0.11748116666669262
31744,220.0938378583331,56,0.08771925000002057,51,0.08928625000001489
31745,220.12359977499978,40,0.02976191666667205,32,0.11834833333332995
31746,220.18312410833312,57,0.05952433333334284,53,0.08806374999997502
31747,220.2419481083331,44,0.05882399999998711,35,0.11721774999998047
31748,220.2711878583331,56,0.029239749999987907,51,0.08797799999999256
31749,220.35916585833309,55,0.08797799999999256,52,0.11816866666666215
31750,220.44783602499976,56,0.08867016666667382,54,0.0883219999999767
31751,220.47733452499975,44,0.029498499999988326,34,0.11764700000000516
31752,220.53615802499974,59,0.05882349999998837,57,0.08823525000002519
31753,220.59498152499975,40,0.05882350000001679,32,0.1428932500000144
31754,220.62439327499976,64,0.029411750000008396,56,0.11348150000000601
31755,220.73787477499977,36,0.11348150000000601,30,0.1235361249999869
31756,220.83182331666643,52,0.09394854166666278,50,0.0887592499999812
31757,220.86141089999975,40,0.02958758333332412,34,0.1180819166666538
31758,220.9205825666664,53,0.059171666666657075,55,0.0883219999999767
31759,220.9794928166664,45,0.05891024999999672,37,0.11738874999997506
31760,221.0089045666664,52,0.029411749999979975,51,0.08797699999999509
31761,221.09688156666638,51,0.08797699999999509,52,0.11860658333333163
31762,221.18581456666638,52,0.08893299999999726,53,0.08902075000000309
31763,221.21548814999971,45,0.029673583333334363,39,0.11817116666665584
31764,221.27483531666638,57,0.05934716666666873,56,0.08806374999997502
31765,221.33365931666637,40,0.05882399999998711,35,0.1170457499999884
31766,221.36289906666636,60,0.029239749999987907,57,0.0878060000000005
31767,221.45070506666636,57,0.0878060000000005,59,0.1181696666666312
31768,221.53920114999966,56,0.08849608333329684,56,0.08884566666665705
31769,221.568874733333,40,0.029673583333334363,36,0.11773733333330938
31770,221.6280468166663,57,0.05917208333332269,59,0.08780500000000302
31771,221.6866120666663,44,0.05856524999998669,39,0.11704575000001682
31772,221.71585181666632,56,0.02923975000001633,57,0.0878060000000005
31773,221.80365781666632,55,0.0878060000000005,57,0.11808133333332194
31774,221.89224064999965,56,0.08858283333333361,59,0.0884954999999934
31775,221.92173914999964,44,0.029498499999988326,37,0.11799400000001015
31776,221.98073614999964,59,0.05899700000000507,63,0.0884954999999934
31777,222.03973314999965,40,0.05899700000000507,34,0.139743999999979
31778,222.06923164999964,64,0.029498499999988326,59,0.11024549999999067
31779,222.17947714999963,59,0.11024549999999067,58,0.12231754166668907
31780,222.27255494166633,57,0.09307779166670116,53,0.08754874999999629
31781,222.30179469166632,40,0.029239749999987907,36,0.11670325000000048
31782,222.36010369166632,59,0.05830900000000838,58,0.0878060000000005
31783,222.41849794166632,45,0.0583942499999921,39,0.11843875000002413
31784,222.44790969166633,57,0.029411750000008396,54,0.08902700000001573
31785,222.53693669166634,56,0.08902700000001573,55,0.11896399999997698
31786,222.62640219166633,57,0.08946549999998865,56,0.0882357499999955
31787,222.65590069166632,45,0.029498499999988326,40,0.11738825000000475
31788,222.71463794166633,60,0.05873725000000718,59,0.0882368333333261
31789,222.77328894166632,40,0.058650999999997566,38,0.118783250000007
31790,222.80287477499965,64,0.029585833333328537,60,0.08919741666667846
31791,222.89207219166633,60,0.08919741666667846,63,0.11791141666662952
31792,222.98065810833296,59,0.08858591666663074,59,0.08797649999999635
31793,223.00998360833296,33,0.029325499999998783,38,0.11713100000000054
31794,223.06863460833296,60,0.058650999999997566,62,0.08763450000000716
31795,223.12711460833296,35,0.058480000000002974,41,0.11730349999999135
31796,223.15626910833296,59,0.02915450000000419,60,0.08814899999998715
31797,223.24441810833295,58,0.08814899999998715,60,0.11764700000000516
31798,223.33265335833298,59,0.08823525000002519,62,0.08823524999999677
31799,223.36206510833296,35,0.029411749999979975,39,0.11764700000000516
31800,223.42088860833297,63,0.05882350000001679,66,0.08823524999999677
31801,223.47971210833296,33,0.05882349999998837,37,0.14856349999999452
31802,223.50912385833297,66,0.029411750000008396,63,0.11915174999998612
31803,223.62827560833296,59,0.11915174999998612,69,0.12212379166666665
31804,223.7202043166663,60,0.09192870833334155,64,0.09048708333335753
31805,223.75039939999962,35,0.0301950833333251,39,0.12029800000001956
31806,223.81069139999966,59,0.06029200000003243,67,0.08991749999998433
31807,223.87069739999964,40,0.060005999999987125,43,0.1193699166666704
31808,223.90060889999964,58,0.029911499999997204,58,0.0894584166666732
31809,223.9900673166663,59,0.0894584166666732,62,0.11946033333333617
31810,224.07970898333298,67,0.08964166666666529,71,0.08936558333334688
31811,224.10952764999965,40,0.02981866666667088,44,0.11900341666665781
31812,224.16907456666632,66,0.059546916666676,71,0.08909316666665745
31813,224.2285310666663,35,0.059456499999981816,42,0.11847745833333079
31814,224.25816773333298,65,0.029636666666675637,70,0.08884079166665515
31815,224.34700852499964,64,0.08884079166665515,69,0.1183503333333249
31816,224.43577127499964,63,0.08876275000000078,69,0.08880574999997748
31817,224.46535885833296,35,0.02958758333332412,41,0.11856533333332209
31818,224.52457702499962,62,0.05921816666665336,68,0.08902075000000309
31819,224.58392419166628,39,0.05934716666666873,45,0.11878091666667956
31820,224.61359777499962,61,0.029673583333334363,67,0.0891073333333452
31821,224.70270510833296,60,0.0891073333333452,67,0.11904066666664903
31822,224.79198560833296,59,0.08928050000000098,66,0.08940837499997656
31823,224.8217457749996,39,0.029760166666648047,44,0.1193390416666773
31824,224.88139398333294,58,0.05964820833332851,65,0.08953625000000898
31825,224.9410848166663,35,0.05969083333334879,41,0.11990904166665928
31826,224.97093023333295,57,0.029845416666660185,64,0.09006362499999909
31827,225.06099385833295,55,0.09006362499999909,69,0.12100229166668441
31828,225.15197873333295,57,0.09098487500000374,64,0.09013175000001183
31829,225.18199614999963,35,0.030017416666680674,39,0.12012033333331829
31830,225.24211048333297,55,0.06011433333333116,67,0.08991749999998433
31831,225.30211648333295,40,0.060005999999987125,43,0.1193699166666704
31832,225.33202798333295,54,0.029911499999997204,58,0.0894584166666732
31833,225.42148639999962,55,0.0894584166666732,62,0.11946033333333617
31834,225.5111280666663,67,0.08964166666666529,71,0.08936558333334688
31835,225.54094673333296,40,0.02981866666667088,44,0.11900341666665781
31836,225.60049364999963,66,0.059546916666676,71,0.08909316666665745
31837,225.65995014999962,35,0.059456499999981816,42,0.11845733333333897
31838,225.6895868166663,65,0.029636666666675637,70,0.08882066666666333
31839,225.77840748333296,64,0.08882066666666333,70,0.11776499999999146
31840,225.86666873333294,63,0.08826124999998797,71,0.08851125000001048
31841,225.89617248333295,40,0.029503750000003492,41,0.11818266666668364
31842,225.95517998333295,62,0.059007500000006985,71,0.08876275000000078
31843,226.01435514999963,42,0.05917516666667666,45,0.11886674999999514
31844,226.04394273333295,61,0.02958758333332412,72,0.08927916666667102
31845,226.13322189999963,60,0.08927916666667102,73,0.12025141666669015
31846,226.223278233333,59,0.09005633333336505,74,0.09084908333332464
31847,226.25347331666632,42,0.0301950833333251,48,0.12166691666666907
31848,226.31412731666632,58,0.06065399999999954,75,0.09165583333333416
31849,226.37514023333298,40,0.061012916666669526,51,0.1230247499999848
31850,226.40578314999965,57,0.030642916666664632,76,0.09238183333332017
31851,226.49816498333297,59,0.09238183333332017,76,0.18494549999999776
31852,226.68311048333297,71,0.18494549999999776,85,0.0924727500000131
31853,226.77558323333298,70,0.0924727500000131,85,0.0924727500000131
31854,226.868055983333,69,0.0924727500000131,84,0.08953625000000898
31855,226.957592233333,68,0.08953625000000898,84,0.08953624999998056
31856,227.04712848333298,67,0.08953624999998056,83,0.08953625000000898
31857,227.136664733333,66,0.08953625000000898,83,0.08953625000000898
31858,227.226200983333,65,0.08953625000000898,82,0.3591739999999959
31859,227.31599448333301,64,0.08979350000001318,81,0.08979349999998476
31860,227.405787983333,63,0.08979349999998476,81,0.08979350000001318
31861,227.495581483333,62,0.08979350000001318,80,0.08979349999998476
31862,227.585374983333,61,0.08979349999998476,80,0.0900522500000136
31863,227.675427233333,60,0.0900522500000136,79,0.09005224999998518
31864,227.765479483333,59,0.09005224999998518,79,0.0900522500000136
31865,227.855531733333,58,0.0900522500000136,78,0.09014258333334624
31866,227.94567431666636,57,0.09014258333334624,77,0.09032324999998309
31867,228.03599756666634,56,0.09032324999998309,77,0.09032325000001151
31868,228.12632081666635,55,0.09032325000001151,77,0.09032324999998309
31869,228.21664406666633,54,0.09032324999998309,77,0.09032325000001151
31870,228.30696731666634,53,0.09032325000001151,77,0.09032325000001151
31871,228.39729056666636,52,0.09032325000001151,77,0.09032324999998309
31872,228.48761381666634,51,0.09032324999998309,77,0.09032325000001151
31873,228.57793706666635,50,0.09032325000001151,77,0.09032324999998309
31874,228.66826031666633,49,0.09032324999998309,77,0.09032325000001151
31875,228.75858356666635,48,0.09032325000001151,80,0.09032324999998309
31876,228.84890681666633,47,0.09032324999998309,83,0.09032325000001151
31877,228.93923006666634,46,0.09032325000001151,85,0.0904105833333233
31878,229.02964064999966,45,0.0904105833333233,87,0.09084908333335306
31879,229.12048973333302,43,0.09084908333335306,89,0.09165583333333416
31880,229.21214556666635,42,0.09165583333333416,92,0.09247333333331653
31881,229.30461889999967,40,0.09247333333331653,94,0.093313083333328
31882,229.397931983333,35,0.093313083333328,96,0.09897724999999014
31883,229.79384098333298,72,0.39590899999998896,90,0.39224983333335217
31884,229.89250339999967,71,0.0986624166666843,81,0.09803274999998735
31885,229.99053614999966,79,0.09803274999998735,77,0.09782841666665831
31886,230.0883645666663,67,0.09782841666665831,77,0.09772625000002222
31887,230.18609081666634,69,0.09772625000002222,90,0.3887749166666765
31888,230.28351231666633,67,0.09742149999999583,77,0.09732058333335658
31889,230.3808328999997,76,0.09732058333335658,77,0.09711874999999281
31890,230.47795164999968,64,0.09711874999999281,77,0.09691408333333129
31891,230.574865733333,66,0.09691408333333129,89,0.38593491666665614
31892,230.671677483333,64,0.09681175000000053,77,0.09650650000000383
31893,230.76818398333302,71,0.09650650000000383,77,0.09640741666666486
31894,230.86459139999968,59,0.09640741666666486,77,0.09620924999998692
31895,230.96080064999967,60,0.09620924999998692,89,0.3789549999999906
31896,231.05553939999967,59,0.09473875000000476,77,0.09473875000000476
31897,231.15027814999968,67,0.09473875000000476,77,0.09473874999997633
31898,231.24501689999965,55,0.09473874999997633,77,0.09473875000000476
31899,231.33975564999966,57,0.09473875000000476,88,0.378955000000019
31900,231.43449439999966,55,0.09473875000000476,77,0.09473875000000476
31901,231.52923314999967,64,0.09473875000000476,77,0.09473875000000476
31902,231.62397189999967,52,0.09473875000000476,77,0.09473875000000476
31903,231.71871064999968,54,0.09473875000000476,89,0.3789549999999906
31904,231.81344939999966,52,0.09473874999997633,77,0.09473875000000476
31905,231.90818814999966,59,0.09473875000000476,77,0.09473875000000476
31906,232.00292689999966,47,0.09473875000000476,77,0.09473875000000476
31907,232.09766564999967,48,0.09473875000000476,90,0.3789549999999906
31908,232.19240439999967,47,0.09473875000000476,77,0.09473875000000476
31909,232.28714314999968,55,0.09473875000000476,77,0.09473874999997633
31910,232.38188189999966,43,0.09473874999997633,77,0.09473875000000476
31911,232.47662064999966,45,0.09473875000000476,88,0.3909050000000036
31912,232.57434689999965,43,0.0977262499999938,77,0.0977262499999938
31913,232.67207314999965,52,0.0977262499999938,77,0.09772625000002222
31914,232.76979939999967,40,0.09772625000002222,77,0.0977262499999938
31915,232.86752564999966,42,0.0977262499999938,89,0.3824820000000102
31916,232.96314614999966,40,0.09562049999999545,77,0.09562049999999545
31917,233.05876664999965,47,0.09562049999999545,77,0.09562049999999545
31918,233.15438714999965,35,0.09562049999999545,77,0.09562050000002387
31919,233.25000764999967,42,0.09562050000002387,89,0.3884749999999997
31920,233.34712639999967,40,0.09711874999999281,77,0.09711875000002124
31921,233.4442451499997,47,0.09711875000002124,77,0.09711874999999281
31922,233.54136389999968,35,0.09711874999999281,77,0.09711874999999281
31923,233.63848264999967,42,0.09711874999999281,89,0.3876816666666514
31924,233.73560139999967,40,0.09711874999999281,77,0.09711875000002124
31925,233.8327201499997,48,0.09711875000002124,77,0.09711874999999281
31926,233.92983889999968,36,0.09711874999999281,77,0.09632541666664451
31927,234.02616431666632,42,0.09632541666664451,89,0.3929813333333243
31928,234.12389056666632,40,0.0977262499999938,75,0.09803274999998735
31929,234.2219233166663,47,0.09803274999998735,74,0.09845341666667196
31930,234.32037673333298,35,0.09845341666667196,73,0.0987689166666712
31931,234.41914564999965,42,0.0987689166666712,83,0.39909975000000486
31932,234.51833256666632,40,0.09918691666666746,71,0.0995027499999992
31933,234.61783531666632,46,0.0995027499999992,71,0.09993349999999168
31934,234.7177688166663,34,0.09993349999999168,70,0.10047658333334653
31935,234.81824539999965,42,0.10047658333334653,79,0.9008294999999862
31936,234.92049089999966,40,0.10224550000000932,68,0.10431233333335399
31937,235.02480323333302,47,0.10431233333335399,67,0.10646183333332715
31938,235.13126506666634,35,0.10646183333332715,66,0.1087035833333232
31939,235.23996864999967,42,0.1087035833333232,75,0.11185574999998948
31940,235.35182439999966,39,0.11185574999998948,63,0.11692508333334217
31941,235.468749483333,47,0.11692508333334217,63,0.12246949999999401
31942,235.591218983333,35,0.12246949999999401,62,0.12785591666664686
31943,235.71907489999964,16,0.12785591666664686,93,0.19415649999999118
31944,235.81599914999964,40,0.09692425000000071,65,0.09723224999999047
31945,235.91323139999963,47,0.09723224999999047,65,0.19471837500000788
31946,236.01076689999962,35,0.09753549999999223,65,0.09718287500001566
31947,236.10794977499964,48,0.09718287500001566,69,0.19083950000000982
31948,236.20336952499966,47,0.09541975000001912,65,0.0954197499999907
31949,236.29878927499965,55,0.0954197499999907,83,0.19083950000000982
31950,236.39420902499964,43,0.0954197499999907,64,0.09541975000001912
31951,236.48962877499966,48,0.09541975000001912,70,0.19047599999998965
31952,236.58486677499965,47,0.09523799999999483,66,0.09523799999999483
31953,236.68010477499965,55,0.09523799999999483,83,0.19047600000001808
31954,236.77534277499967,43,0.09523800000002325,60,0.09523799999999483
31955,236.87058077499967,48,0.09523799999999483,68,0.19507100000001287
31956,236.96811627499966,47,0.09753549999999223,62,0.09753550000002065
31957,237.06565177499968,54,0.09753550000002065,79,0.19507099999998445
31958,237.16318727499967,42,0.09753549999999223,71,0.09753549999999223
31959,237.26072277499966,48,0.09753549999999223,68,0.19154474999999138
31960,237.35684777499966,47,0.09612500000000068,66,0.0954197499999907
31961,237.45226752499966,54,0.0954197499999907,83,0.19083950000000982
31962,237.54768727499967,43,0.09541975000001912,60,0.0954197499999907
31963,237.64310702499967,48,0.0954197499999907,68,0.19507100000001287
31964,237.74064252499966,47,0.09753549999999223,62,0.09753550000002065
31965,237.83817802499968,52,0.09753550000002065,79,0.19507099999998445
31966,237.93571352499967,40,0.09753549999999223,71,0.09753549999999223
31967,238.03324902499966,43,0.09753549999999223,54,0.19024650000000065
31968,238.12837227499966,42,0.09512325000000033,49,0.09512325000000033
31969,238.22349552499966,47,0.09512325000000033,62,0.19024650000000065
31970,238.31861877499966,35,0.09512325000000033,45,0.09512325000000033
31971,238.41374202499966,43,0.09512325000000033,51,0.19507100000001287
31972,238.51127752499966,42,0.09753549999999223,46,0.09753550000002065
31973,238.60881302499968,47,0.09753550000002065,59,0.19507099999998445
31974,238.70634852499967,35,0.09753549999999223,53,0.09753549999999223
31975,238.80388402499966,42,0.09753549999999223,54,0.19695400000000518
31976,238.90236102499966,40,0.09847700000000259,49,0.09847700000000259
31977,239.00083802499967,47,0.09847700000000259,62,0.19695400000000518
31978,239.09931502499967,35,0.09847700000000259,45,0.09847700000000259
31979,239.19779202499967,48,0.09847700000000259,67,0.19113766666666265
31980,239.29350994166634,47,0.09571791666667195,65,0.0954197499999907
31981,239.38892969166633,55,0.0954197499999907,83,0.19083950000000982
31982,239.48434944166635,43,0.09541975000001912,64,0.0954197499999907
31983,239.57976919166634,48,0.0954197499999907,68,0.19083950000000982
31984,239.67518894166633,47,0.0954197499999907,66,0.09541975000001912
31985,239.77060869166635,55,0.09541975000001912,83,0.1908394999999814
31986,239.86602844166634,43,0.0954197499999907,60,0.0954197499999907
31987,239.96144819166634,48,0.0954197499999907,65,0.19507100000001287
31988,240.05898369166633,47,0.09753549999999223,62,0.09753550000002065
31989,240.15651919166635,54,0.09753550000002065,79,0.19507099999998445
31990,240.25405469166634,42,0.09753549999999223,66,0.09753549999999223
31991,240.35159019166633,48,0.09753549999999223,66,0.19154474999999138
31992,240.44771519166633,47,0.09612500000000068,66,0.0954197499999907
31993,240.54313494166632,54,0.0954197499999907,83,0.19083950000000982
31994,240.63855469166634,43,0.09541975000001912,60,0.0954197499999907
31995,240.73397444166633,48,0.0954197499999907,67,0.19507100000001287
31996,240.83150994166633,47,0.09753549999999223,62,0.09753550000002065
31997,240.92904544166635,52,0.09753550000002065,79,0.19507099999998445
31998,241.02658094166634,40,0.09753549999999223,71,0.09753549999999223
31999,241.12411644166633,43,0.09753549999999223,54,0.19024650000000065
32000,241.21923969166633,42,0.09512325000000033,49,0.09512325000000033
32001,241.31436294166633,47,0.09512325000000033,62,0.19024650000000065
32002,241.40948619166633,35,0.09512325000000033,45,0.09512325000000033
32003,241.50460944166633,43,0.09512325000000033,51,0.19507100000001287
32004,241.60214494166632,42,0.09753549999999223,46,0.09753550000002065
32005,241.69968044166635,47,0.09753550000002065,59,0.19507099999998445
32006,241.79721594166634,35,0.09753549999999223,53,0.09753549999999223
32007,241.89475144166633,42,0.09753549999999223,54,0.19384850000000142
32008,241.99167569166633,40,0.09692425000000071,49,0.09692425000000071
32009,242.08859994166633,47,0.09692425000000071,62,0.19384850000000142
32010,242.18552419166633,35,0.09692425000000071,45,0.09692425000000071
32011,242.28244844166633,48,0.09692425000000071,55,0.19113766666666265
32012,242.378166358333,47,0.09571791666667195,48,0.0954197499999907
32013,242.473586108333,55,0.0954197499999907,62,0.19083950000000982
32014,242.569005858333,43,0.09541975000001912,48,0.0954197499999907
32015,242.664425608333,45,0.0954197499999907,54,0.19083950000000982
32016,242.759845358333,43,0.0954197499999907,49,0.09541975000001912
32017,242.85526510833301,52,0.09541975000001912,62,0.1908394999999814
32018,242.950684858333,40,0.0954197499999907,45,0.0954197499999907
32019,243.046104608333,48,0.0954197499999907,51,0.19507100000001287
32020,243.143640108333,47,0.09753549999999223,46,0.09753550000002065
32021,243.241175608333,55,0.09753550000002065,59,0.19507099999998445
32022,243.338711108333,43,0.09753549999999223,53,0.09753549999999223
32023,243.436246608333,42,0.09753549999999223,54,0.19384850000000142
32024,243.533170858333,40,0.09692425000000071,49,0.09692425000000071
32025,243.630095108333,47,0.09692425000000071,62,0.19384850000000142
32026,243.727019358333,35,0.09692425000000071,45,0.09692425000000071
32027,243.823943608333,48,0.09692425000000071,55,0.19113766666666265
32028,243.91966152499967,47,0.09571791666667195,48,0.0954197499999907
32029,244.01508127499966,55,0.0954197499999907,62,0.19083950000000982
32030,244.11050102499968,43,0.09541975000001912,48,0.0954197499999907
32031,244.20592077499967,45,0.0954197499999907,54,0.19083950000000982
32032,244.30134052499966,43,0.0954197499999907,49,0.09541975000001912
32033,244.39676027499968,52,0.09541975000001912,62,0.1908394999999814
32034,244.49218002499967,40,0.0954197499999907,45,0.0954197499999907
32035,244.58759977499966,48,0.0954197499999907,51,0.19507100000001287
32036,244.68513527499965,47,0.09753549999999223,46,0.09753550000002065
32037,244.78267077499967,55,0.09753550000002065,59,0.1952389166666535
32038,244.88020627499967,43,0.09753549999999223,53,0.09770341666666127
32039,244.97790969166633,45,0.09770341666666127,54,0.1960784999999987
32040,245.07594894166633,43,0.09803924999999936,49,0.09803924999999936
32041,245.17398819166633,52,0.09803924999999936,61,0.1960784999999987
32042,245.27202744166632,40,0.09803924999999936,44,0.09803924999999936
32043,245.37006669166632,48,0.09803924999999936,53,0.1910829999999919
32044,245.46560819166632,47,0.09554149999999595,46,0.09554149999999595
32045,245.56114969166632,52,0.09554149999999595,60,0.19108300000002032
32046,245.6566911916663,40,0.09554149999999595,46,0.09554150000002437
32047,245.75223269166634,45,0.09554150000002437,51,0.1910829999999919
32048,245.84777419166633,43,0.09554149999999595,46,0.09554149999999595
32049,245.94331569166633,52,0.09554149999999595,58,0.1910829999999919
32050,246.03885719166632,40,0.09554149999999595,42,0.09554149999999595
32051,246.13439869166632,48,0.09554149999999595,47,0.19507100000001287
32052,246.2319341916663,47,0.09753549999999223,42,0.09753550000002065
32053,246.32946969166633,52,0.09753550000002065,54,0.19507099999998445
32054,246.42700519166632,40,0.09753549999999223,48,0.09753549999999223
32055,246.52454069166632,45,0.09753549999999223,48,0.195439499999992
32056,246.62226044166633,43,0.09771975000001021,44,0.09771974999998179
32057,246.7199801916663,52,0.09771974999998179,55,0.19543950000002042
32058,246.81769994166632,40,0.09771975000001021,40,0.09771975000001021
32059,246.91541969166633,48,0.09771975000001021,48,0.1910829999999919
32060,247.01096119166633,47,0.09554149999999595,41,0.09554149999999595
32061,247.10650269166632,52,0.09554149999999595,53,0.19108300000002032
32062,247.20204419166632,40,0.09554149999999595,41,0.09554150000002437
32063,247.29758569166634,45,0.09554150000002437,45,0.1910829999999919
32064,247.39312719166634,43,0.09554149999999595,41,0.09554149999999595
32065,247.48866869166633,52,0.09554149999999595,52,0.1910829999999919
32066,247.58421019166633,40,0.09554149999999595,37,0.09554149999999595
32067,247.67975169166633,48,0.09554149999999595,42,0.19507100000001287
32068,247.77728719166632,47,0.09753549999999223,37,0.09753550000002065
32069,247.87482269166634,52,0.09753550000002065,48,0.19507099999998445
32070,247.97235819166633,40,0.09753549999999223,42,0.09753549999999223
32071,248.06989369166632,42,0.09753549999999223,43,0.3921569999999974
32072,248.16793294166632,40,0.09803924999999936,39,0.09803924999999936
32073,248.26597219166632,47,0.09803924999999936,49,0.09803924999999936
32074,248.36401144166632,35,0.09803924999999936,36,0.09803924999999936
32075,248.46205069166632,42,0.09803924999999936,44,0.09646299999999997
32076,248.55851369166632,40,0.09646299999999997,38,0.09646299999999997
32077,248.65497669166632,47,0.09646299999999997,49,0.09646299999999997
32078,248.75143969166632,35,0.09646299999999997,38,0.09646299999999997
32079,248.84790269166632,42,0.09646299999999997,43,0.09646299999999997
32080,248.94436569166632,40,0.09646299999999997,39,0.09646299999999997
32081,249.04082869166632,47,0.09646299999999997,49,0.09646299999999997
32082,249.13729169166632,35,0.09646299999999997,36,0.09646299999999997
32083,249.23375469166632,42,0.09646299999999997,40,0.09933774999998946
32084,249.3330924416663,40,0.09933774999998946,36,0.09933775000001788
32085,249.43243019166633,47,0.09933775000001788,47,0.09933774999998946
32086,249.53176794166632,35,0.09933774999998946,42,0.09933774999998946
32087,249.6311056916663,42,0.09933774999998946,43,0.09771975000001021
32088,249.72882544166632,40,0.09771975000001021,39,0.09771974999998179
32089,249.8265451916663,47,0.09771974999998179,48,0.09771975000001021
32090,249.9242649416663,35,0.09771975000001021,35,0.09771975000001021
32091,250.02198469166632,42,0.09771975000001021,42,0.09646299999999997
32092,250.11844769166632,40,0.09646299999999997,36,0.09646299999999997
32093,250.21491069166632,47,0.09646299999999997,46,0.09646299999999997
32094,250.31137369166632,35,0.09646299999999997,35,0.09646299999999997
32095,250.40783669166632,42,0.09646299999999997,39,0.09646299999999997
32096,250.50429969166632,40,0.09646299999999997,35,0.09646299999999997
32097,250.60076269166632,47,0.09646299999999997,44,0.09646299999999997
32098,250.69722569166632,35,0.09646299999999997,32,0.09646299999999997
32099,250.79368869166632,42,0.09646299999999997,35,0.09814775000000964
32100,250.89183644166633,40,0.09814775000000964,31,0.09967075000000136
32101,250.99150719166633,47,0.09967075000000136,40,0.10135441666665201
32102,251.09286160833298,35,0.10135441666665201,36,0.10309600000002206
32103,251.195957608333,23,0.10309600000002206,48,1.5414951666666639
32104,251.292881858333,40,0.09692425000000071,33,0.09692425000000071
32105,251.389806108333,47,0.09692425000000071,41,0.09692425000000071
32106,251.486730358333,35,0.09692425000000071,30,0.09692425000000071
32107,251.583654608333,42,0.09692425000000071,37,0.09571791666667195
32108,251.67937252499968,40,0.09571791666667195,32,0.0954197499999907
32109,251.77479227499967,47,0.0954197499999907,41,0.09541975000001912
32110,251.8702120249997,35,0.09541975000001912,32,0.0954197499999907
32111,251.96563177499968,42,0.0954197499999907,36,0.0954197499999907
32112,252.06105152499967,40,0.0954197499999907,33,0.09541975000001912
32113,252.1564712749997,47,0.09541975000001912,41,0.0954197499999907
32114,252.25189102499968,35,0.0954197499999907,30,0.0954197499999907
32115,252.34731077499967,42,0.0954197499999907,34,0.09753549999999223
32116,252.44484627499966,40,0.09753549999999223,30,0.09753550000002065
32117,252.54238177499968,47,0.09753550000002065,39,0.09753549999999223
32118,252.63991727499968,35,0.09753549999999223,35,0.09753549999999223
32119,252.73745277499967,25,0.09753549999999223,47,0.38769700000000284
32120,252.83437702499967,40,0.09692425000000071,33,0.09692425000000071
32121,252.93130127499967,47,0.09692425000000071,41,0.09692425000000071
32122,253.02822552499967,35,0.09692425000000071,30,0.09692425000000071
32123,253.12514977499967,23,0.09692425000000071,50,0.3819771666666725
32124,253.22086769166634,40,0.09571791666667195,32,0.0954197499999907
32125,253.31628744166633,47,0.0954197499999907,41,0.09541975000001912
32126,253.41170719166635,35,0.09541975000001912,32,0.0954197499999907
32127,253.50712694166634,28,0.0954197499999907,52,0.3816789999999912
32128,253.60254669166633,40,0.0954197499999907,33,0.09541975000001912
32129,253.69796644166635,47,0.09541975000001912,41,0.0954197499999907
32130,253.79338619166634,35,0.0954197499999907,30,0.0954197499999907
32131,253.88880594166633,30,0.0954197499999907,56,0.3901419999999973
32132,253.98634144166633,40,0.09753549999999223,30,0.09753550000002065
32133,254.08387694166635,47,0.09753550000002065,39,0.09753549999999223
32134,254.18141244166634,35,0.09753549999999223,35,0.09753549999999223
32135,254.27894794166633,32,0.09753549999999223,58,1.5414951666666639
32136,254.37587219166633,40,0.09692425000000071,33,0.09692425000000071
32137,254.47279644166633,47,0.09692425000000071,41,0.09692425000000071
32138,254.56972069166633,35,0.09692425000000071,30,0.09692425000000071
32139,254.66664494166633,42,0.09692425000000071,37,0.09571791666667195
32140,254.762362858333,40,0.09571791666667195,32,0.0954197499999907
32141,254.857782608333,47,0.0954197499999907,41,0.09541975000001912
32142,254.95320235833302,35,0.09541975000001912,32,0.0954197499999907
32143,255.048622108333,42,0.0954197499999907,36,0.0954197499999907
32144,255.144041858333,40,0.0954197499999907,33,0.09541975000001912
32145,255.23946160833302,47,0.09541975000001912,41,0.0954197499999907
32146,255.334881358333,35,0.0954197499999907,30,0.0954197499999907
32147,255.430301108333,42,0.0954197499999907,34,0.09753549999999223
32148,255.527836608333,40,0.09753549999999223,30,0.09753550000002065
32149,255.625372108333,47,0.09753550000002065,39,0.09753549999999223
32150,255.722907608333,35,0.09753549999999223,35,0.09753549999999223
32151,255.820443108333,35,0.09753549999999223,60,1.5414951666666639
32152,255.917367358333,40,0.09692425000000071,33,0.09692425000000071
32153,256.014291608333,47,0.09692425000000071,41,0.09692424999997229
32154,256.11121585833297,35,0.09692424999997229,30,0.09692425000002913
32155,256.208140108333,42,0.09692425000002913,37,0.09571791666661511
32156,256.3038580249996,40,0.09571791666661511,32,0.09541975000001912
32157,256.39927777499963,47,0.09541975000001912,41,0.09541975000001912
32158,256.49469752499965,35,0.09541975000001912,32,0.09541974999996228
32159,256.5901172749996,42,0.09541974999996228,36,0.09541975000001912
32160,256.68553702499963,40,0.09541975000001912,33,0.09541975000001912
32161,256.78095677499965,47,0.09541975000001912,41,0.09541974999996228
32162,256.8763765249996,35,0.09541974999996228,30,0.09541975000001912
32163,256.97179627499963,42,0.09541975000001912,34,0.09753549999999223
32164,257.0693317749996,40,0.09753549999999223,30,0.09753549999999223
32165,257.1668672749996,47,0.09753549999999223,39,0.09753549999999223
32166,257.2644027749996,35,0.09753549999999223,35,0.09753550000004907
32167,257.36193827499966,33,0.09753550000004907,56,0.7696741666666185
32168,257.45886252499963,40,0.09692424999997229,33,0.09692425000002913
32169,257.55578677499966,47,0.09692425000002913,41,0.09692424999997229
32170,257.65271102499963,35,0.09692424999997229,30,0.09692425000002913
32171,257.74963527499966,42,0.09692425000002913,37,0.09571791666661511
32172,257.8453531916663,40,0.09571791666661511,32,0.09541975000001912
32173,257.9407729416663,47,0.09541975000001912,41,0.09541975000001912
32174,258.0361926916663,35,0.09541975000001912,32,0.09541974999996228
32175,258.1316124416663,32,0.09541974999996228,56,0.7718210000000454
32176,258.2270321916663,40,0.09541975000001912,33,0.09541975000001912
32177,258.3224519416663,47,0.09541975000001912,41,0.09541974999996228
32178,258.4178716916663,35,0.09541974999996228,30,0.09541975000001912
32179,258.5132914416663,42,0.09541975000001912,34,0.09753549999999223
32180,258.6108269416663,40,0.09753549999999223,30,0.09753549999999223
32181,258.7083624416663,47,0.09753549999999223,39,0.09753549999999223
32182,258.8058979416663,35,0.09753549999999223,35,0.09753550000004907
32183,258.9034334416663,30,0.09753550000004907,57,0.7696741666666185
32184,259.0003576916663,40,0.09692424999997229,33,0.09692425000002913
32185,259.0972819416663,47,0.09692425000002913,41,0.09692424999997229
32186,259.1942061916663,35,0.09692424999997229,30,0.09692425000002913
32187,259.2911304416663,42,0.09692425000002913,37,0.09571791666661511
32188,259.38684835833294,40,0.09571791666661511,32,0.09541975000001912
32189,259.48226810833296,47,0.09541975000001912,41,0.09541975000001912
32190,259.577687858333,35,0.09541975000001912,32,0.09541974999996228
32191,259.67310760833294,32,0.09541974999996228,56,0.3870969999999829
32192,259.76988185833295,40,0.09677425000000994,33,0.09677425000000994
32193,259.86665610833296,47,0.09677425000000994,41,0.0967742499999531
32194,259.9634303583329,35,0.0967742499999531,30,0.09677425000000994
32195,260.0602046083329,28,0.09677425000000994,48,0.4026850000000195
32196,260.16087585833293,40,0.10067125000000487,30,0.10067125000000487
32197,260.26154710833293,47,0.10067125000000487,39,0.10067125000000487
32198,260.36221835833294,35,0.10067125000000487,35,0.10067125000000487
32199,260.46288960833294,23,0.10067125000000487,53,1.6592141666666862
32200,260.56741910833296,40,0.10452950000001238,29,0.10452950000001238
32201,260.67194860833297,47,0.10452950000001238,35,0.10452949999995553
32202,260.7764781083329,32,0.10452949999995553,37,0.10452950000001238
32203,260.88100760833294,42,0.10452950000001238,44,0.10171574999998256
32204,260.9827233583329,40,0.10171574999998256,28,0.10273975000001201
32205,261.08546310833293,47,0.10273975000001201,36,0.10273975000001201
32206,261.18820285833294,32,0.10273975000001201,37,0.10273975000001201
32207,261.29094260833295,42,0.10273975000001201,43,0.10273974999995517
32208,261.3936823583329,40,0.10273974999995517,29,0.10273975000001201
32209,261.4964221083329,47,0.10273975000001201,37,0.10273975000001201
32210,261.59916185833293,32,0.10273975000001201,37,0.10273975000001201
32211,261.70190160833295,42,0.10273975000001201,45,0.10551716666668653
32212,261.80741877499963,40,0.10551716666668653,27,0.10489499999999907
32213,261.91231377499963,47,0.10489499999999907,36,0.10489499999999907
32214,262.01720877499963,32,0.10489499999999907,31,0.10489499999999907
32215,262.12210377499963,11,0.10489499999999907,50,1.8578114166667206
32216,262.23420334999963,42,0.112099575000002,29,0.10676150000000462
32217,262.33562677499964,47,0.10142342500000723,35,0.10676150000000462
32218,262.44238827499964,33,0.10676150000000462,38,0.10676150000000462
32219,262.54914977499965,44,0.10676150000000462,44,0.11583116666668047
32220,262.66498094166633,42,0.11583116666668047,28,0.11703549999998586
32221,262.7820164416663,47,0.11703549999998586,35,0.11780266666664829
32222,262.89981910833296,33,0.11780266666664829,38,0.11826583333339613
32223,263.02401379166633,44,0.12419468333337136,42,0.11875735833336876
32224,263.1427711499997,42,0.11875735833336876,29,0.11922939166669266
32225,263.2560244416664,47,0.11325329166669462,37,0.11952199999996083
32226,263.37554644166636,33,0.11952199999996083,37,0.12000000000000455
32227,263.49554644166636,44,0.12000000000000455,40,0.12048199999998133
32228,263.61602844166634,42,0.12048199999998133,27,0.12080583333334971
32229,263.7368342749997,47,0.12080583333334971,35,0.12129424999994853
32230,263.85812852499964,33,0.12129424999994853,38,0.12178666666670779
32231,263.97991519166635,16,0.12178666666670779,33,2.5408149166666476
32232,264.09783348333303,23,0.11791829166668322,36,2.4228966249999644
32233,264.231007358333,33,0.13317387499995448,38,2.28972275000001
32234,264.35673673333304,35,0.12572937500004855,40,6.039658875000043
32235,264.47646052499965,39,0.1197237916666154,43,2.044269583333346
32236,264.698299108333,42,0.22183858333335138,48,1.8224309999999946
32237,266.520730108333,16,1.8224309999999946,31,3.875665500000082
32238,266.8003184416663,23,0.2795883333333222,37,3.5960771666667597
32239,267.06666610833304,32,0.26634766666671794,35,3.3297295000000418
32240,267.3139779416664,40,0.24731183333335593,42,3.082417666666686
32241,0.75,71,0.0,50,0.061349666666666636
32242,0.8113496666666666,72,0.061349666666666636,43,0.061349666666666636
32243,0.8726993333333333,71,0.061349666666666636,46,0.06134966666666675
32244,0.934049,72,0.06134966666666675,41,0.061349666666666636
32245,0.9953986666666667,71,0.061349666666666636,44,0.06134966666666675
32246,1.0260735,28,0.03067483333333343,34,0.4601225
32247,1.0567483333333334,70,0.030674833333333318,40,0.061349666666666636
32248,1.07208575,35,0.015337416666666659,36,0.41411025
32249,1.118098,76,0.04601224999999998,50,0.36809800000000004
32250,1.1794476666666667,72,0.061349666666666636,45,0.061349666666666636
32251,1.2407973333333333,71,0.061349666666666636,37,0.06134966666666686
32252,1.3021470000000002,67,0.06134966666666686,44,0.09202449999999995
32253,1.3941715000000001,66,0.09202449999999995,39,0.09202449999999995
32254,1.486196,71,0.09202449999999995,50,0.061349666666666636
32255,1.5475456666666667,66,0.061349666666666636,45,0.061349666666666636
32256,1.6088953333333333,64,0.061349666666666636,40,0.061349666666666636
32257,1.670245,60,0.061349666666666636,45,0.09202449999999995
32258,1.7622695,59,0.09202449999999995,40,0.2760735000000003
32259,1.80828175,28,0.04601224999999998,35,0.23006125000000033
32260,1.854294,64,0.0460122500000002,50,0.18404900000000013
32261,1.9156436666666667,59,0.061349666666666636,45,0.061349666666666636
32262,1.9769933333333334,57,0.061349666666666636,37,0.06134966666666686
32263,2.0383430000000002,55,0.06134966666666686,41,0.09202449999999995
32264,2.1303675,54,0.09202449999999995,37,0.27607349999999986
32265,2.1763797499999997,35,0.04601224999999953,36,0.23006125000000033
32266,2.222392,59,0.04601225000000042,50,0.1840489999999999
32267,2.283741666666667,54,0.061349666666666636,44,0.061349666666666636
32268,2.3450913333333334,52,0.061349666666666636,37,0.061349666666666636
32269,2.406441,48,0.061349666666666636,40,0.09202449999999995
32270,2.4984655,47,0.09202449999999995,38,0.2772095000000001
32271,2.54447775,28,0.04601224999999998,36,0.23119725000000013
32272,2.59049,52,0.04601224999999998,50,0.18518500000000016
32273,2.6522183333333333,47,0.061728333333333385,44,0.061728333333333385
32274,2.7139466666666667,45,0.061728333333333385,36,0.061728333333333385
32275,2.775675,43,0.061728333333333385,40,0.09259249999999986
32276,2.8682675,42,0.09259249999999986,36,0.2777775
32277,2.91456375,23,0.04629625000000015,36,0.23148124999999986
32278,2.96086,47,0.046296249999999706,50,0.18518500000000016
32279,3.022588333333333,42,0.061728333333333385,44,0.061728333333333385
32280,3.0843166666666666,40,0.061728333333333385,36,0.061728333333333385
32281,3.146045,38,0.061728333333333385,40,0.0925925000000003
32282,3.2386375000000003,36,0.0925925000000003,35,0.09259249999999986
32283,3.33123,35,0.09259249999999986,45,2.282742208333333
32284,3.685212,23,0.3539819999999998,49,0.7792200000000005
32285,4.074822,11,0.38961000000000023,46,0.38961000000000023
32286,4.464432,23,0.38961000000000023,43,0.2783772916666649
32287,4.759365583333333,40,0.2949335833333322,45,0.09988962500000031
32288,4.859255208333333,42,0.09988962500000031,42,1.2719580000000006
32289,5.613972208333333,35,0.7547170000000003,46,0.5172410000000003
32290,6.001902958333333,28,0.38793074999999977,30,0.49294625000000014
32291,6.066558083333334,35,0.0646551250000007,35,0.42829112499999944
32292,6.1312132083333335,76,0.06465512499999981,50,0.3636359999999996
32293,6.191819208333333,72,0.06060599999999994,45,0.06060599999999994
32294,6.252425208333333,71,0.06060599999999994,38,0.06060599999999994
32295,6.313031208333333,67,0.06060599999999994,43,0.0909089999999999
32296,6.403940208333333,66,0.0909089999999999,39,0.0909089999999999
32297,6.494849208333333,71,0.0909089999999999,50,0.06060599999999994
32298,6.555455208333333,66,0.06060599999999994,45,0.060606000000000826
32299,6.616061208333334,64,0.060606000000000826,40,0.06060599999999994
32300,6.676667208333334,60,0.06060599999999994,43,0.0909089999999999
32301,6.767576208333334,59,0.0909089999999999,39,0.2727269999999997
32302,6.813030708333334,28,0.04545449999999995,37,0.22727249999999977
32303,6.858485208333334,64,0.04545449999999995,50,0.1818179999999998
32304,6.919091208333334,59,0.06060599999999994,45,0.06060599999999994
32305,6.9796972083333335,57,0.06060599999999994,38,0.06060599999999994
32306,7.0403032083333335,55,0.06060599999999994,42,0.0909089999999999
32307,7.131212208333333,54,0.0909089999999999,38,0.2727270000000006
32308,7.176666708333333,35,0.04545449999999995,37,0.22727250000000065
32309,7.222121208333333,59,0.04545449999999995,50,0.1818180000000007
32310,7.282727208333333,54,0.06060599999999994,45,0.060606000000000826
32311,7.343333208333334,52,0.060606000000000826,38,0.06060599999999994
32312,7.403939208333334,48,0.06060599999999994,40,0.0909089999999999
32313,7.494848208333334,47,0.0909089999999999,38,0.2727269999999997
32314,7.540302708333334,28,0.04545449999999995,35,0.22727249999999977
32315,7.585757208333334,52,0.04545449999999995,50,0.1818179999999998
32316,7.646363208333334,47,0.06060599999999994,45,0.06060599999999994
32317,7.706969208333334,45,0.06060599999999994,36,0.06060599999999994
32318,7.767575208333334,43,0.06060599999999994,40,0.0909089999999999
32319,7.8584842083333335,42,0.0909089999999999,37,0.2727269999999997
32320,7.9039387083333335,23,0.04545449999999995,35,0.22727249999999977
32321,7.949393208333333,47,0.04545449999999995,50,0.1818179999999998
32322,8.009999208333333,42,0.06060599999999994,45,0.06060599999999994
32323,8.070605208333333,40,0.06060599999999994,36,0.06060599999999994
32324,8.131211208333333,38,0.06060599999999994,40,0.0909089999999999
32325,8.222120208333333,37,0.0909089999999999,38,0.0909089999999999
32326,8.313029208333333,35,0.0909089999999999,47,0.7780089999999991
32327,8.705186208333332,42,0.3921569999999992,55,0.7717039999999997
32328,8.994575208333332,17,0.2893889999999999,45,0.04823149999999998
32329,9.042806708333332,18,0.04823149999999998,45,0.03215433333333273
32330,9.091038208333332,37,0.04823149999999998,48,0.38585199999999986
32331,9.139269708333332,19,0.04823149999999998,45,0.04823149999999998
32332,9.187501208333332,18,0.04823149999999998,49,0.04823149999999998
32333,9.235732708333332,19,0.04823149999999998,51,0.04823149999999998
32334,9.283964208333332,18,0.04823149999999998,54,0.04823149999999998
32335,9.332195708333332,19,0.04823149999999998,56,0.04823149999999998
32336,9.380427208333332,18,0.04823149999999998,61,0.03215433333333273
32337,9.412581541666665,17,0.03215433333333273,61,0.032154333333334506
32338,9.444735875,18,0.032154333333334506,63,0.03215433333333273
32339,9.476890208333332,38,0.03215433333333273,66,0.27837729166666847
32340,9.771823791666666,40,0.29493358333333397,57,0.09988962499999943
32341,9.871713416666665,42,0.09988962499999943,63,0.7547169999999994
32342,10.626430416666665,47,0.7547169999999994,46,0.5172410000000003
32343,11.014361166666665,21,0.38793075000000066,25,0.48967024999999964
32344,11.079016291666665,28,0.06465512499999981,29,0.24483512499999982
32345,11.143671416666665,76,0.06465512499999981,45,0.18018
32346,11.203731416666665,71,0.06006,40,0.06006
32347,11.263791416666665,69,0.06006,36,0.06006
32348,11.323851416666665,65,0.06006,38,0.09009
32349,11.413941416666665,64,0.09009,36,0.27027
32350,11.458986416666665,33,0.045045,31,0.225225
32351,11.504031416666665,69,0.045045,45,0.18018
32352,11.564091416666665,64,0.06006,40,0.06006
32353,11.624151416666665,62,0.06006,36,0.06006
32354,11.684211416666665,60,0.06006,39,0.09009
32355,11.774301416666665,59,0.09009,36,0.27027
32356,11.819346416666665,28,0.045045,30,0.225225
32357,11.864391416666665,64,0.045045,45,0.18018
32358,11.924451416666665,59,0.06006,40,0.06006
32359,11.984511416666665,57,0.06006,36,0.06006
32360,12.044571416666665,53,0.06006,39,0.09009
32361,12.134661416666665,52,0.09009,35,0.27027
32362,12.179706416666665,33,0.045045,31,0.225225
32363,12.224751416666665,57,0.045045,45,0.18018
32364,12.284811416666665,52,0.06006,40,0.06006
32365,12.344871416666665,50,0.06006,35,0.06006
32366,12.404931416666665,48,0.06006,37,0.09009
32367,12.495021416666665,47,0.09009,36,0.2706777500000008
32368,12.540066416666665,28,0.045045,30,0.22563275000000083
32369,12.585111416666665,52,0.045045,45,0.18058775000000082
32370,12.645171416666665,47,0.06006,40,0.0601957500000001
32371,12.705367166666665,45,0.0601957500000001,34,0.06033200000000072
32372,12.765699166666666,41,0.06033200000000072,35,0.09077175000000004
32373,12.856470916666666,40,0.09077175000000004,30,0.09113941666666747
32374,12.947610333333333,45,0.09113941666666747,45,0.06097566666666587
32375,13.008586,40,0.06097566666666587,40,0.06111541666666831
32376,13.069701416666668,38,0.06111541666666831,35,0.061302749999999406
32377,13.131004166666667,36,0.061302749999999406,37,0.0922133333333317
32378,13.223217499999999,35,0.0922133333333317,32,0.09259283333333457
32379,13.315810333333333,33,0.09259283333333457,44,1.150712249999998
32380,13.676170333333333,40,0.36036,45,0.790352249999998
32381,14.068228374999999,42,0.39205804166666525,56,0.39829420833333273
32382,14.466522583333331,39,0.39829420833333273,38,0.2889046249999989
32383,14.772668583333331,40,0.30614600000000003,38,0.10422841666666649
32384,14.876896999999998,42,0.10422841666666649,37,1.3280350000000016
32385,15.671598999999999,43,0.7947020000000009,35,0.5333330000000007
32386,16.07159875,28,0.399999750000001,30,0.5014312499999996
32387,16.138265375,35,0.06666662499999987,36,0.4347646249999997
32388,16.204932,76,0.06666662499999987,50,0.3680979999999998
32389,16.266281666666668,72,0.06134966666666841,49,0.06134966666666486
32390,16.327631333333333,71,0.06134966666666486,40,0.06134966666666841
32391,16.388981,67,0.06134966666666841,45,0.09202449999999729
32392,16.4810055,66,0.09202449999999729,39,0.09202450000000084
32393,16.57303,71,0.09202450000000084,50,0.06134966666666841
32394,16.634379666666668,66,0.06134966666666841,45,0.06134966666666486
32395,16.695729333333333,64,0.06134966666666486,40,0.06134966666666841
32396,16.757079,60,0.06134966666666841,44,0.09202449999999729
32397,16.8491035,59,0.09202449999999729,39,0.2760735000000025
32398,16.89511575,28,0.04601225000000042,37,0.2300612500000021
32399,16.941128,64,0.04601225000000042,50,0.18404900000000168
32400,17.002477666666667,59,0.06134966666666841,44,0.06134966666666486
32401,17.063827333333332,57,0.06134966666666486,36,0.06134966666666841
32402,17.125177,55,0.06134966666666841,42,0.09202449999999729
32403,17.217201499999998,54,0.09202449999999729,37,0.2760735000000025
32404,17.26321375,35,0.04601225000000042,36,0.2300612500000021
32405,17.309226,59,0.04601225000000042,50,0.18404900000000168
32406,17.370575666666667,54,0.06134966666666841,45,0.06134966666666486
32407,17.431925333333332,52,0.06134966666666486,37,0.06134966666666841
32408,17.493275,48,0.06134966666666841,40,0.09202449999999729
32409,17.585299499999998,47,0.09202449999999729,35,0.27720950000000144
32410,17.63131175,28,0.04601225000000042,36,0.23119725000000102
32411,17.677324,52,0.04601225000000042,50,0.1851850000000006
32412,17.739052333333333,47,0.06172833333333472,45,0.061728333333331165
32413,17.800780666666665,45,0.061728333333331165,37,0.06172833333333472
32414,17.862509,43,0.06172833333333472,40,0.09259249999999852
32415,17.955101499999998,42,0.09259249999999852,35,0.2777774999999991
32416,18.00139775,23,0.04629625000000104,36,0.23148124999999808
32417,18.047694,47,0.04629625000000104,50,0.18518499999999705
32418,18.10942233333333,42,0.061728333333331165,45,0.06172833333333472
32419,18.171150666666666,40,0.06172833333333472,33,0.061728333333331165
32420,18.232878999999997,38,0.061728333333331165,38,0.09259250000000208
32421,18.3254715,36,0.09259250000000208,33,0.09259249999999852
32422,18.418063999999998,35,0.09259249999999852,49,1.1332019999999972
32423,18.772045999999996,39,0.35398199999999846,52,0.7792199999999987
32424,19.161655999999997,40,0.3896100000000011,55,0.38960999999999757
32425,19.551265999999995,42,0.38960999999999757,53,0.27837729166666847
32426,19.84619958333333,43,0.29493358333333575,57,0.09988962500000298
32427,19.946089208333333,40,0.09988962500000298,50,0.4597699999999989
32428,20.405859208333332,36,0.4597699999999989,50,1.8084280000000028
32429,21.325399208333334,39,0.9195400000000014,36,0.8888880000000015
32430,21.769843208333334,40,0.4444440000000007,36,0.4444440000000007
32431,22.214287208333335,42,0.4444440000000007,37,0.30927850000000134
32432,22.678204958333335,43,0.46391775000000024,35,0.12552300000000116
32433,22.803727958333337,40,0.12552300000000116,38,0.5020919999999975
32434,0.0,30,0.0,83,0.10550621874999999
32435,0.1063865,34,0.1063865,52,0.10330793125000001
32436,0.2105565,42,0.10417000000000001,52,0.10085625000000001
32437,0.3122545,42,0.10169799999999998,53,0.09873979791666665
32438,0.4118166666666666,46,0.09956216666666662,62,0.09732942291666669
32439,0.5099630833333333,54,0.09814641666666668,55,0.09680231250000004
32440,0.6075770833333333,54,0.09761399999999998,53,0.0963834375
32441,0.7047695833333333,58,0.09719250000000001,53,0.09586664166666659
32442,0.8014400833333332,66,0.09667049999999988,71,0.09545297499999994
32443,0.8976969166666664,58,0.09625683333333324,57,0.0958640479166667
32444,0.9943674166666665,54,0.0966705000000001,57,0.09638081249999986
32445,1.0915599166666665,54,0.09719250000000001,57,0.0967996687499999
32446,1.1891739166666664,46,0.09761399999999987,64,0.09906000000000015
32447,1.2890756666666665,42,0.09990175000000012,55,0.10211486458333341
32448,1.3920555833333332,42,0.10297991666666673,56,0.1051220604166665
32449,1.4980704999999999,34,0.10601491666666663,56,0.10652290624999994
32450,1.6054323333333331,29,0.10736183333333327,84,0.10153949375000004
32451,1.7078221666666664,35,0.10238983333333329,52,0.10040023958333344
32452,1.8090613333333332,41,0.10123916666666677,52,0.09917018541666667
32453,1.9090620833333332,41,0.10000074999999997,52,0.0980797145833332
32454,2.0079641666666666,47,0.09890208333333339,67,0.09775674374999976
32455,2.106540583333333,53,0.0985764166666665,55,0.09732942291666635
32456,2.2046869999999994,53,0.09814641666666635,53,0.09680231249999993
32457,2.3023009999999995,59,0.09761400000000009,53,0.09638343750000011
32458,2.3994934999999997,65,0.09719250000000024,77,0.09596779791666643
32459,2.49626775,59,0.09677425000000017,58,0.09638081250000008
32460,2.59346025,53,0.09719250000000024,58,0.09679966875000012
32461,2.6910742500000002,53,0.09761400000000009,58,0.09732674375000006
32462,2.789220666666667,47,0.09814641666666679,66,0.09905482291666656
32463,2.8891144166666667,41,0.09989374999999967,58,0.10164868124999993
32464,2.9916251666666667,41,0.10251074999999998,58,0.10450539166666672
32465,3.0970170833333337,35,0.10539191666666703,57,0.10739925833333341
32466,3.2053287500000005,32,0.1083116666666668,90,0.0994983791666666
32467,3.3056632500000003,39,0.10033449999999977,59,0.09916666666666663
32468,3.4056632500000004,44,0.10000000000000009,60,0.09872993541666641
32469,3.505221,44,0.09955774999999978,60,0.09840341666666674
32470,3.6044495000000003,51,0.09922850000000016,70,0.09807904791666644
32471,3.703350916666667,56,0.09890141666666663,61,0.0976489104166669
32472,3.8018195000000006,56,0.09846858333333364,61,0.09732942291666635
32473,3.899965916666667,63,0.09814641666666635,61,0.09701191874999981
32474,3.9977921666666667,68,0.09782624999999978,78,0.09659081249999968
32475,4.095194666666667,63,0.09740250000000028,63,0.09679966875000012
32476,4.192808666666667,56,0.09761400000000009,63,0.09711575625000002
32477,4.290741416666667,56,0.09793275000000001,63,0.09743391041666705
32478,4.388995000000001,51,0.09825358333333423,72,0.09850821250000052
32479,4.488339333333335,44,0.0993443333333337,63,0.10153409791666768
32480,4.590735500000002,44,0.10239616666666684,63,0.10475190416666624
32481,4.696377083333335,39,0.10564158333333307,63,0.10818046666666703
32482,4.805476666666668,30,0.10909958333333325,96,0.09983232291666688
32483,4.906147916666669,34,0.10067125000000043,62,0.09938966666666627
32484,5.006370916666668,42,0.10022299999999973,62,0.09894793541666669
32485,5.1061494166666686,42,0.09977850000000021,63,0.09840341666666674
32486,5.205377916666668,46,0.09922849999999972,74,0.0979704645833337
32487,5.304170750000002,54,0.09879283333333344,64,0.09743658958333334
32488,5.402424333333335,54,0.09825358333333334,63,0.09701191874999981
32489,5.500250583333335,58,0.09782624999999978,63,0.09648843750000058
32490,5.597548083333335,66,0.09729749999999981,86,0.09638081250000052
32491,5.694740583333335,58,0.09719250000000024,67,0.09679966875000012
32492,5.792354583333335,54,0.09761400000000009,67,0.09711575625000002
32493,5.890287333333335,54,0.09793275000000001,67,0.09754107708333315
32494,5.988648083333335,46,0.09836075000000033,74,0.09894558333333237
32495,6.088435416666668,42,0.09978733333333256,63,0.10258720833333346
32496,6.191896750000001,42,0.10346133333333274,63,0.10650411874999932
32497,6.299306666666667,34,0.10740991666666666,63,0.11045866458333364
32498,6.410698166666667,29,0.11139149999999987,97,0.0994983791666666
32499,6.511032666666667,35,0.10033449999999977,59,0.09905868541666685
32500,6.610921916666666,41,0.09988924999999949,59,0.0987299354166673
32501,6.710479666666667,41,0.09955775000000067,59,0.09829416666666635
32502,6.809598916666666,47,0.09911924999999933,72,0.09786188125000006
32503,6.908283166666666,53,0.0986842499999998,59,0.09743658958333334
32504,7.0065367499999995,53,0.09825358333333334,58,0.09711841875000005
32505,7.1044695,59,0.0979327500000009,58,0.09669656249999914
32506,7.20197775,65,0.09750824999999974,86,0.09627843749999965
32507,7.29906525,59,0.09708749999999977,61,0.09669391874999977
32508,7.396573500000001,53,0.09750825000000063,60,0.09700925624999979
32509,7.49439975,53,0.09782624999999978,60,0.09743391041666616
32510,7.592653333333334,47,0.09825358333333334,67,0.09818151875000058
32511,7.691665416666667,41,0.09901208333333322,59,0.10084583541666614
32512,7.793367416666666,41,0.10170199999999952,58,0.10401935833333287
32513,7.898270166666666,35,0.10490274999999993,57,0.10752958333333318
32514,8.0067155,30,0.10844533333333395,93,0.0994983791666666
32515,8.107050000000001,35,0.10033450000000066,59,0.09927816666666622
32516,8.2071615,42,0.1001114999999988,59,0.09905868541666685
32517,8.30705075,42,0.09988925000000037,58,0.09883718541666653
32518,8.4067185,47,0.09966775000000005,68,0.09850993541666675
32519,8.50605625,54,0.09933775000000011,58,0.09829416666666546
32520,8.6051755,54,0.09911924999999933,58,0.09807904791666644
32521,8.704076916666667,59,0.09890141666666707,58,0.09775674374999888
32522,8.802653333333332,66,0.09857641666666517,75,0.09764621458333345
32523,8.901121916666666,59,0.09846858333333408,59,0.09796774999999869
32524,8.999914749999999,54,0.09879283333333255,58,0.09840068541666724
32525,9.09914325,54,0.09922850000000061,58,0.09872718541666536
32526,9.198700999999998,47,0.09955774999999889,64,0.09982957291666672
32527,9.299375166666664,42,0.10067416666666595,57,0.10234811041666703
32528,9.40259133333333,42,0.103216166666666,57,0.10499815416666713
32529,9.508479166666662,35,0.10588783333333218,56,0.1018045833333332
32530,9.611117083333328,27,0.10263791666666577,88,0.10689372708333345
32531,9.71890366666666,30,0.10778658333333269,55,0.10488280625000002
32532,9.82466366666666,39,0.10576000000000008,55,0.10295039374999959
32533,9.92847316666666,39,0.10380949999999878,55,0.101199322916667
32534,10.030517083333326,42,0.10204391666666623,59,0.09939041666666704
32535,10.130740833333325,51,0.10022374999999961,66,0.40000000000000036
32536,10.230740833333325,42,0.09999999999999964,50,0.09916666666666707
32537,10.330740833333326,39,0.10000000000000142,49,0.09916666666666529
32538,10.430740833333326,42,0.09999999999999964,56,0.09916666666666707
32539,10.530740833333326,49,0.09999999999999964,61,0.40000000000000036
32540,10.630740833333325,42,0.09999999999999964,49,0.09916666666666707
32541,10.730740833333325,39,0.09999999999999964,48,0.09916666666666707
32542,10.830740833333326,42,0.10000000000000142,53,0.09916666666666529
32543,10.930740833333326,47,0.09999999999999964,57,0.39782683333333324
32544,11.030740833333326,42,0.09999999999999964,46,0.09916666666666707
32545,11.130740833333325,39,0.09999999999999964,46,0.09832247916666681
32546,11.229874999999991,41,0.09913416666666564,50,0.09786485208333495
32547,11.32856766666666,46,0.09869266666666832,56,0.4013519999999975
32548,11.428125416666658,41,0.09955774999999889,42,0.09927537916666651
32549,11.528236916666659,38,0.10011150000000058,42,0.09972007291666607
32550,11.628795916666657,40,0.10055899999999873,48,0.10027915625000006
32551,11.729919666666657,46,0.10112374999999929,52,0.40957133333333573
32552,11.831500083333324,40,0.10158041666666762,42,0.10130359166666736
32553,11.933656916666658,37,0.10215683333333381,40,0.10176666875000073
32554,12.036279749999991,39,0.10262283333333322,46,0.10234918125000014
32555,12.139490999999992,44,0.10321125000000109,49,0.4178985833333311
32556,12.243177916666658,39,0.10368691666666585,39,0.10341658749999993
32557,12.347465583333324,36,0.10428766666666611,38,0.10389904166666675
32558,12.45223874999999,38,0.10477316666666603,42,0.10426430833333278
32559,12.557389583333324,44,0.10515083333333308,47,0.36655158333333127
32560,12.669380833333323,38,0.1119912499999991,37,0.12048091666666672
32561,12.790903416666655,35,0.12152258333333243,35,0.1318909604166656
32562,12.923941166666655,30,0.13303774999999973,85,0.10664090416666738
32563,13.031471749999987,34,0.10753058333333243,56,0.10403044375000015
32564,13.136370249999986,42,0.10489849999999912,56,0.10143307291666659
32565,13.238647916666652,42,0.10227766666666582,56,0.0990686666666658
32566,13.338541666666652,46,0.09989374999999967,64,0.09872993541666553
32567,13.43809941666665,54,0.09955774999999889,57,0.09829416666666724
32568,13.537218666666652,54,0.0991192500000011,56,0.09775674374999888
32569,13.635795083333317,58,0.09857641666666517,56,0.09732942291666724
32570,13.733941499999984,66,0.09814641666666724,79,0.0970092562499989
32571,13.831767749999983,58,0.0978262499999989,58,0.09743391041666705
32572,13.930021333333316,54,0.09825358333333334,58,0.09796774999999869
32573,14.028814166666649,54,0.09879283333333255,58,0.09840068541666724
32574,14.12804266666665,46,0.09922850000000061,66,0.09861765624999919
32575,14.227499249999982,42,0.09945658333333185,56,0.10223467083333304
32576,14.33060499999998,42,0.10310574999999922,57,0.10625161874999911
32577,14.437762416666647,34,0.10715741666666645,57,0.10652290625000127
32578,14.545124249999981,29,0.10736183333333393,91,0.10131175208333332
32579,14.647292166666647,35,0.1021679166666658,53,0.1009671562500003
32580,14.749103916666646,41,0.10181174999999953,53,0.09961483333333554
32581,14.849552083333315,41,0.10044816666666811,53,0.09840416666666663
32582,14.948781333333315,47,0.09922925000000049,67,0.09775674374999888
32583,15.04735774999998,53,0.09857641666666517,55,0.09732942291666724
32584,15.145504166666647,53,0.09814641666666724,53,0.09680231250000126
32585,15.243118166666648,59,0.09761400000000009,53,0.09638343750000011
32586,15.340310666666648,65,0.09719250000000024,75,0.09596779791666599
32587,15.437084916666647,59,0.09677424999999928,58,0.09638081249999964
32588,15.534277416666646,53,0.09719249999999846,57,0.09679966875000012
32589,15.631891416666647,53,0.09761400000000187,57,0.09732674374999917
32590,15.730037833333313,47,0.09814641666666546,64,0.099054822916667
32591,15.829931583333313,41,0.09989374999999967,57,0.10164868124999948
32592,15.932442333333313,41,0.10251075000000043,57,0.10450539166666672
32593,16.03783424999998,35,0.1053919166666688,56,0.1073992583333343
32594,16.146145916666647,32,0.10831166666666547,92,0.09949837916666837
32595,16.246480416666646,39,0.10033449999999888,58,0.09916666666666529
32596,16.346480416666648,44,0.10000000000000142,58,0.0987299354166673
32597,16.44603816666665,44,0.09955775000000244,59,0.09840341666666674
32598,16.54526666666665,51,0.09922849999999883,69,0.09807904791666644
32599,16.644168083333316,56,0.09890141666666707,60,0.09764891041666601
32600,16.742636666666648,56,0.0984685833333323,60,0.09732942291666902
32601,16.840783083333317,63,0.09814641666666901,60,0.09701191874999893
32602,16.938609333333318,68,0.09782625000000067,80,0.09659081250000057
32603,17.03601183333332,63,0.09740250000000117,61,0.09679966874999835
32604,17.13362583333332,56,0.09761400000000009,61,0.09711575624999824
32605,17.231558583333317,56,0.09793274999999824,61,0.09743391041666527
32606,17.32981216666665,51,0.09825358333333156,69,0.09850821250000408
32607,17.429156499999987,44,0.09934433333333814,60,0.1015340979166659
32608,17.531552666666652,44,0.10239616666666507,60,0.10475190416666891
32609,17.637194249999986,39,0.10564158333333395,60,0.10818046666666703
32610,17.74629383333332,31,0.10909958333333236,93,0.0998323229166651
32611,17.84696508333332,39,0.10067125000000132,60,0.09938966666666715
32612,17.947188083333323,43,0.10022300000000328,60,0.09894793541666402
32613,18.046966583333322,43,0.09977849999999933,60,0.09840341666666674
32614,18.14619508333332,51,0.09922849999999883,70,0.0979704645833337
32615,18.244987916666656,55,0.09879283333333433,61,0.09743658958333157
32616,18.343241499999987,55,0.09825358333333156,60,0.09701191874999893
32617,18.441067749999988,63,0.09782625000000067,60,0.09648843749999969
32618,18.538365249999988,67,0.09729749999999981,81,0.09638081249999786
32619,18.635557749999986,63,0.09719249999999846,62,0.09679966874999835
32620,18.733171749999986,55,0.09761400000000009,62,0.09711575624999824
32621,18.831104499999984,55,0.09793274999999824,62,0.09754107708333493
32622,18.929465249999986,51,0.09836075000000122,70,0.09894558333333592
32623,19.02925258333332,43,0.09978733333333523,60,0.10258720833333257
32624,19.132713916666653,43,0.10346133333333185,60,0.10650411875000287
32625,19.24012383333332,39,0.10740991666666844,61,0.11045866458333364
32626,19.35151533333332,35,0.11139149999999987,96,0.09949837916666837
32627,19.45184983333332,40,0.10033449999999888,63,0.09905868541666507
32628,19.55173908333332,47,0.09988925000000037,63,0.09872993541666375
32629,19.65129683333332,47,0.09955774999999889,63,0.09829416666666546
32630,19.750416083333317,52,0.09911924999999755,79,0.09786188125000095
32631,19.84910033333332,59,0.09868425000000158,64,0.09743658958333157
32632,19.94735391666665,59,0.09825358333333156,63,0.09711841875000005
32633,20.045286666666648,64,0.09793274999999824,63,0.09669656250000358
32634,20.14279491666665,71,0.09750825000000063,83,0.09627843750000054
32635,20.23988241666665,64,0.09708750000000066,69,0.09669391874999889
32636,20.337390666666646,59,0.09750824999999708,67,0.09700925625000067
32637,20.435216916666647,59,0.09782625000000067,67,0.09743391041666527
32638,20.53347049999998,52,0.09825358333333156,77,0.0981815187499997
32639,20.632482583333314,47,0.099012083333335,67,0.10084583541666703
32640,20.734184583333317,47,0.10170200000000307,67,0.10401935833333198
32641,20.839087333333318,40,0.10490275000000082,66,0.10420735208333198
32642,20.944125249999985,34,0.10503791666666729,102,0.09883718541666653
32643,21.043792999999983,38,0.09966774999999828,70,0.0987299354166673
32644,21.143350749999986,46,0.09955775000000244,70,0.09850993541666497
32645,21.242688499999986,46,0.09933775000000011,70,0.09840341666666674
32646,21.341916999999984,50,0.09922849999999883,84,0.09818491666666773
32647,21.440926999999984,58,0.09900999999999982,73,0.09807904791666644
32648,21.53982841666665,58,0.09890141666666707,73,0.09786188125000095
32649,21.63851266666665,62,0.09868424999999803,73,0.09764891041666601
32650,21.73698124999998,70,0.0984685833333323,84,0.09775404791666986
32651,21.835557666666652,62,0.0985764166666705,74,0.09818491666666773
32652,21.934567666666652,58,0.09900999999999982,74,0.0986171854166642
32653,22.03401541666665,58,0.0994477499999995,75,0.09818775000000102
32654,22.133028249999985,50,0.0990128333333331,84,0.10188867083333619
32655,22.23578799999999,46,0.10275975000000415,74,0.10740763333333447
32656,22.34411474999999,46,0.1083267499999998,74,0.11355882083332958
32657,22.45864633333332,38,0.11453158333333135,74,0.12045760833333219
32658,22.580136999999986,31,0.12149066666666641,107,0.11125392083333097
32659,22.692261999999985,34,0.11212499999999892,71,0.10189257708333344
32660,22.795004916666652,43,0.10274291666666713,72,0.09962060208333412
32661,22.895456083333322,43,0.10045116666666942,72,0.09765032708333266
32662,22.99392608333332,46,0.09846999999999895,85,0.09743658958333512
32663,23.092179666666656,55,0.09825358333333511,74,0.09701191874999893
32664,23.190005916666657,55,0.09782625000000067,74,0.09669656250000003
32665,23.287514166666654,58,0.09750824999999708,74,0.09638343750000189
32666,23.384706666666656,67,0.09719250000000201,88,0.09606960416666865
32667,23.481585333333324,67,0.09687866666666878,77,0.09648581249999921
32668,23.57888283333332,70,0.09729749999999626,77,0.09700925625000067
32669,23.67670908333332,79,0.09782625000000067,77,0.09764491666666686
32670,23.77517908333332,70,0.09846999999999895,86,0.09971882291666745
32671,23.87574249999999,67,0.10056341666667024,75,0.10234811041666347
32672,23.978958666666657,67,0.103216166666666,75,0.10499815416666891
32673,24.08484649999999,58,0.10588783333333396,75,0.1018045833333332
32674,24.187484416666656,55,0.10263791666666577,75,0.10084754166666698
32675,24.289179416666656,55,0.10169499999999942,63,0.10050665625000121
32676,24.390530666666656,46,0.10135125000000045,63,0.10005815625000025
32677,24.491427749999993,43,0.10089708333333647,63,0.09972287916666644
32678,24.591986749999993,43,0.10055900000000051,95,0.4001115000000013
32679,24.692098249999994,34,0.10011150000000058,64,0.09916666666666529
32680,24.792098249999995,31,0.10000000000000142,64,0.09916666666666529
32681,24.892098249999993,34,0.09999999999999787,64,0.09916666666666885
32682,24.992098249999994,29,0.10000000000000142,95,0.09960857291666514
32683,25.092545749999992,34,0.1004474999999978,67,0.09961062916666918
32684,25.192992499999995,41,0.10044675000000325,84,0.09927816666666445
32685,25.293103999999992,34,0.10011149999999702,68,0.09873416666667012
32686,25.392663249999995,32,0.09955925000000221,94,0.09971882291666745
32687,25.493226666666665,34,0.10056341666667024,70,0.10234811041666347
32688,25.59644283333333,46,0.103216166666666,83,0.10499815416666891
32689,25.702330666666665,34,0.10588783333333396,64,0.1018045833333332
32690,25.80496858333333,31,0.10263791666666577,106,0.09883718541666653
32691,25.90463633333333,34,0.09966774999999828,69,0.09850993541666497
32692,26.00397408333333,43,0.09933775000000011,69,0.09807904791666644
32693,26.102875499999996,43,0.09890141666666707,69,0.19683000000000206
32694,26.201451916666663,46,0.09857641666666694,80,0.09743658958333512
32695,26.299705499999998,55,0.09825358333333511,70,0.09701191874999893
32696,26.39753175,55,0.09782625000000067,70,0.09669656250000003
32697,26.495039999999996,58,0.09750824999999708,70,0.09638343750000189
32698,26.592232499999998,67,0.09719250000000201,87,0.09606960416666865
32699,26.689111166666667,67,0.09687866666666878,71,0.09648581249999921
32700,26.786408666666663,70,0.09729749999999626,71,0.09700925625000067
32701,26.884234916666664,79,0.09782625000000067,71,0.09764491666666686
32702,26.982704916666663,70,0.09846999999999895,80,0.09971882291666745
32703,27.083268333333333,67,0.10056341666667024,69,0.10234811041666347
32704,27.1864845,67,0.103216166666666,69,0.10499815416666891
32705,27.292372333333333,58,0.10588783333333396,69,0.1018045833333332
32706,27.39501025,55,0.10263791666666577,72,0.10282484791666491
32707,27.498697166666663,55,0.10368691666666408,62,0.10235214375000368
32708,27.601908416666664,46,0.10321125000000109,62,0.10176959166666677
32709,27.704531249999995,43,0.10262283333333144,62,0.10130649375000189
32710,27.80668808333333,43,0.10215683333333558,92,0.4055195833333336
32711,27.908153916666663,34,0.10146583333333226,62,0.10050665625000121
32712,28.009505166666663,31,0.10135125000000045,62,0.10050665625000121
32713,28.110856416666664,34,0.10135125000000045,62,0.10050665625000121
32714,28.212207666666664,29,0.10135125000000045,89,0.10050665625000121
32715,28.313558916666665,34,0.10135125000000045,63,0.10050665624999766
32716,28.414910166666665,41,0.10135125000000045,69,0.4131387500000052
32717,28.516261416666666,34,0.10135125000000045,66,0.10073074374999891
32718,28.6178425,27,0.1015810833333326,86,0.10282075416666814
32719,28.721534333333334,34,0.10369183333333609,67,0.10561852500000057
32720,28.82804891666667,39,0.10651458333333608,68,0.22186874999999517
32721,28.937411,34,0.10936208333333042,62,0.11155969791666465
32722,29.049917666666666,29,0.11250666666666476,95,0.09883718541666653
32723,29.149585416666664,34,0.09966774999999828,67,0.09850993541666497
32724,29.248923166666664,41,0.09933775000000011,67,0.09807904791666644
32725,29.34782458333333,41,0.09890141666666707,67,0.19683000000000206
32726,29.446400999999998,46,0.09857641666666694,78,0.09743658958333512
32727,29.544654583333333,53,0.09825358333333511,68,0.09701191874999893
32728,29.642480833333334,53,0.09782625000000067,67,0.09669656250000003
32729,29.73998908333333,58,0.09750824999999708,67,0.09638343750000189
32730,29.837181583333333,65,0.09719250000000201,80,0.09606960416666865
32731,29.93406025,65,0.09687866666666878,68,0.09648581249999921
32732,30.031357749999998,70,0.09729749999999626,68,0.09700925625000067
32733,30.129184,77,0.09782625000000067,68,0.09764491666666686
32734,30.227653999999998,70,0.09846999999999895,78,0.09971882291666745
32735,30.328217416666668,65,0.10056341666667024,67,0.10234811041666347
32736,30.431433583333334,65,0.103216166666666,67,0.10499815416666891
32737,30.537321416666668,58,0.10588783333333396,67,0.10211891874999779
32738,30.6402965,53,0.10297508333333383,70,0.10165267499999686
32739,30.742802416666667,53,0.10250591666666509,60,0.10107804166666767
32740,30.844727916666667,46,0.10192550000000011,60,0.10062123958333302
32741,30.94619375,41,0.10146583333333226,60,0.10005815625000025
32742,31.047090833333336,41,0.10089708333333647,83,0.40575891666666664
32743,31.147875000000003,34,0.10078416666666712,53,0.10039290625000064
32744,31.249112500000003,29,0.10123749999999987,53,0.10073295833333518
32745,31.35069291666667,34,0.10158041666666762,53,0.10130359166666736
32746,31.452849750000002,27,0.10215683333333203,80,0.1016497520833326
32747,31.55535566666667,32,0.10250591666666864,55,0.10211597708333287
32748,31.65833075,39,0.10297508333333028,59,0.41753975000000665
32749,31.761779,32,0.10344824999999958,57,0.10305836041666439
32750,31.865705416666668,27,0.10392641666666691,75,0.10365629166666679
32751,31.970235833333334,32,0.10453041666666607,58,0.10475127500000525
32752,32.07587050000001,36,0.10563466666667409,59,0.21328375000000221
32753,32.18263291666667,32,0.10676241666666186,53,0.1056410520833353
32754,32.28915425000001,27,0.10652133333334035,77,0.09949837916666837
32755,32.38948875000001,32,0.10033450000000244,52,0.09916666666666885
32756,32.489488750000014,39,0.10000000000000142,52,0.09872993541667086
32757,32.589046500000016,39,0.09955775000000244,52,0.09840341666666319
32758,32.68827500000001,44,0.09922849999999528,61,0.09807904791666999
32759,32.787176416666675,51,0.09890141666666352,53,0.09764891041667312
32760,32.88564500000001,51,0.09846858333333586,53,0.09732942291666546
32761,32.983791416666676,56,0.09814641666666546,53,0.09701191874999893
32762,33.08161766666667,63,0.09782624999999712,69,0.09659081249999701
32763,33.179020166666675,56,0.09740250000000117,55,0.0967996687499948
32764,33.27663416666667,51,0.09761399999999298,55,0.09711575625000535
32765,33.37456691666667,51,0.09793275000000534,55,0.09743391041666882
32766,33.472820500000005,44,0.09825358333333156,61,0.09850821250000052
32767,33.57216483333334,39,0.09934433333333459,53,0.10153409791666235
32768,33.674561000000004,39,0.10239616666666507,53,0.10475190416666891
32769,33.78020258333334,32,0.10564158333333751,53,0.10818046666666703
32770,33.88930216666668,27,0.10909958333333947,77,0.09949837916666837
32771,33.989636666666684,31,0.10033450000000244,52,0.09916666666666885
32772,34.089636666666685,39,0.10000000000000142,52,0.09872993541667086
32773,34.18919441666669,39,0.09955775000000244,52,0.09840341666666319
32774,34.28842291666668,43,0.09922849999999528,61,0.09807904791666999
32775,34.387324333333346,51,0.09890141666666352,53,0.09764891041667312
32776,34.48579291666668,51,0.09846858333333586,53,0.09732942291666546
32777,34.58393933333335,55,0.09814641666666546,53,0.09701191874999893
32778,34.681765583333345,63,0.09782624999999712,69,0.09659081249999701
32779,34.779168083333346,55,0.09740250000000117,55,0.0967996687499948
32780,34.87678208333334,51,0.09761399999999298,55,0.09711575625000535
32781,34.974714833333344,51,0.09793275000000534,55,0.09743391041666882
32782,35.072968416666676,43,0.09825358333333156,61,0.10019819375000338
32783,35.17403466666668,39,0.10106625000000236,53,0.11178102083333386
32784,35.28679225000001,39,0.11275758333333386,53,0.12707817916666642
32785,35.41498650000001,31,0.12819424999999995,53,0.14750034999999428
32786,35.56379575000001,27,0.14880924999999934,75,0.10223364374999733
32787,35.66688850000001,30,0.10309275000000184,48,0.10176959166666677
32788,35.76951133333335,39,0.102622833333335,48,0.10130649375000189
32789,35.87166816666668,39,0.10215683333333203,48,0.10096279166666733
32790,35.97347841666668,42,0.10181024999999977,56,0.10039575000000411
32791,36.07471591666668,51,0.10123750000000342,49,0.10005815625000025
32792,36.17561300000002,51,0.10089708333333647,49,0.09961062916666918
32793,36.27605975000002,54,0.10044675000000325,49,0.09905868541667218
32794,36.37594900000003,63,0.09988925000000393,63,0.09883718541666298
32795,36.47561675000003,63,0.09966775000000183,49,0.09916666666666885
32796,36.57561675000003,66,0.10000000000000142,49,0.09949837916666837
32797,36.67595125000003,75,0.10033450000000244,49,0.09983232291666866
32798,36.77662250000003,66,0.10067124999999777,56,0.10016825000000296
32799,36.87763250000003,63,0.10101000000000226,49,0.10153409791666235
32800,36.9800286666667,63,0.10239616666666507,49,0.10475190416666891
32801,37.085670250000035,54,0.10564158333333751,49,0.10818046666666703
32802,37.194769833333375,51,0.10909958333333947,60,0.10258618124999686
32803,37.298218083333374,51,0.10344824999999958,48,0.10211891875000134
32804,37.40119316666671,42,0.10297508333333383,48,0.10165267500000397
32805,37.50369908333337,39,0.10250591666666509,48,0.10107804166666767
32806,37.60562458333337,39,0.10192550000000011,69,0.4026849999999982
32807,37.70629583333337,30,0.10067124999999777,49,0.09983232291666866
32808,37.806967083333376,27,0.10067125000000487,49,0.09983232291666155
32809,37.907638333333374,30,0.10067124999999777,49,0.09983232291666866
32810,38.00830958333337,25,0.10067124999999777,69,0.10016825000000296
32811,38.109319583333374,30,0.10101000000000226,49,0.10061837500000337
32812,38.21078541666671,37,0.10146583333333581,64,0.10107516041666997
32813,38.31271091666671,30,0.10192550000000011,51,0.1017666687499954
32814,38.415333750000045,28,0.102622833333335,68,0.10188358541666531
32815,38.51807350000004,30,0.1027397499999978,49,0.10211459791666755
32816,38.62105016666671,42,0.10297666666667027,60,0.10475190416666891
32817,38.72669175000005,30,0.10564158333333751,49,0.10818046666666703
32818,38.83579133333339,27,0.10909958333333947,75,0.09949837916666837
32819,38.93612583333339,30,0.10033450000000244,48,0.09916666666666885
32820,39.036125833333394,39,0.10000000000000142,48,0.09872993541667086
32821,39.135683583333396,39,0.09955775000000244,48,0.1981299166666588
32822,39.23491208333339,42,0.09922849999999528,56,0.09807904791666999
32823,39.333813500000055,51,0.09890141666666352,49,0.09764891041667312
32824,39.43228208333339,51,0.09846858333333586,49,0.09732942291666546
32825,39.530428500000056,54,0.09814641666666546,49,0.09701191874999893
32826,39.62825475000005,63,0.09782624999999712,63,0.09659081249999701
32827,39.725657250000054,63,0.09740250000000117,49,0.0967996687499948
32828,39.82327125000005,66,0.09761399999999298,49,0.09711575625000535
32829,39.92120400000005,75,0.09793275000000534,49,0.09743391041666882
32830,40.019457583333384,66,0.09825358333333156,56,0.09850821250000052
32831,40.11880191666672,63,0.09934433333333459,49,0.10153409791666235
32832,40.221198083333384,63,0.10239616666666507,49,0.10475190416666891
32833,40.32683966666672,54,0.10564158333333751,49,0.10630700416666627
32834,40.43401775000006,51,0.10717808333333778,60,0.10354052708333228
32835,40.53842633333339,51,0.10440858333333125,48,0.1030613645833327
32836,40.64235275000006,42,0.10392641666666691,48,0.10247064374999582
32837,40.74568250000006,39,0.10332975000000033,48,0.10200125208332622
32838,40.848539916666724,39,0.10285741666666581,69,0.40575958333332807
32839,40.95081283333339,30,0.1022729166666636,49,0.10016825000000296
32840,41.05182283333339,27,0.10101000000000226,49,0.10016824999999585
32841,41.152832833333385,30,0.10100999999999516,49,0.1006192083333346
32842,41.25429950000005,25,0.10146666666666704,69,0.10107516041666997
32843,41.35622500000005,30,0.10192550000000011,49,0.1016497520833326
32844,41.45873091666672,37,0.10250591666666509,64,0.1019983104166613
32845,41.56158833333338,30,0.10285741666666581,51,0.10246768124999761
32846,41.664918083333376,23,0.10332974999999323,68,0.10305836041666794
32847,41.76884450000004,30,0.10392641666666691,49,0.10153409791666235
32848,41.87124066666671,35,0.10239616666666507,60,0.10475190416666891
32849,41.976882250000045,30,0.10564158333333751,49,0.10818046666666703
32850,42.085981833333385,25,0.10909958333333947,75,0.09949837916666837
32851,42.18631633333339,30,0.10033450000000244,48,0.09916666666666885
32852,42.28631633333339,37,0.10000000000000142,48,0.09872993541667086
32853,42.38587408333339,37,0.09955775000000244,48,0.1981299166666588
32854,42.485102583333386,42,0.09922849999999528,56,0.09807904791666999
32855,42.58400400000005,49,0.09890141666666352,49,0.09764891041667312
32856,42.682472583333386,49,0.09846858333333586,49,0.09732942291666546
32857,42.78061900000005,54,0.09814641666666546,49,0.09701191874999893
32858,42.87844525000005,61,0.09782624999999712,63,0.09659081249999701
32859,42.97584775000005,61,0.09740250000000117,49,0.0967996687499948
32860,43.07346175000004,66,0.09761399999999298,49,0.09711575625000535
32861,43.17139450000005,73,0.09793275000000534,49,0.09743391041666882
32862,43.26964808333338,66,0.09825358333333156,56,0.09850821250000052
32863,43.368992416666714,61,0.09934433333333459,49,0.10153409791666235
32864,43.47138858333338,61,0.10239616666666507,49,0.10475190416666891
32865,43.57703016666672,54,0.10564158333333751,49,0.10818046666666703
32866,43.686129750000056,49,0.10909958333333947,60,0.10188358541666531
32867,43.788869500000054,49,0.1027397499999978,48,0.10188358541666531
32868,43.89160925000006,42,0.1027397500000049,48,0.10188358541666531
32869,43.99434900000006,37,0.1027397499999978,48,0.10188358541666531
32870,44.097088750000054,37,0.1027397499999978,66,0.41225583333333304
32871,44.19982850000006,30,0.1027397500000049,46,0.10211597708332931
32872,44.302803583333386,25,0.10297508333332672,46,0.10234918124999837
32873,44.40601483333339,30,0.10321125000000109,46,0.10247064374999582
32874,44.50934458333339,23,0.10332975000000033,66,0.10246768124999761
32875,44.61267433333338,28,0.10332974999999323,47,0.10317852708332964
32876,44.716720916666716,35,0.10404658333333572,61,0.422808416666669
32877,44.82137225000005,28,0.10465133333333654,49,0.10450646874999592
32878,44.926759000000054,23,0.10538675000000097,63,0.10512139166666401
32879,45.032766916666716,28,0.10600791666666254,46,0.1058695604166715
32880,45.139529333333385,32,0.10676241666666897,56,0.2214685000000003
32881,45.248628916666725,28,0.10909958333333947,46,0.11142194791666071
32882,45.360997833333386,23,0.11236891666666082,72,0.09949837916666837
32883,45.46133233333339,28,0.10033450000000244,45,0.09916666666666885
32884,45.56133233333339,35,0.10000000000000142,45,0.09872993541667086
32885,45.66089008333339,35,0.09955775000000244,45,0.09840341666666319
32886,45.76011858333339,40,0.09922849999999528,52,0.09807904791666999
32887,45.85902000000005,47,0.09890141666666352,45,0.09764891041667312
32888,45.95748858333339,47,0.09846858333333586,45,0.09732942291666546
32889,46.05563500000005,52,0.09814641666666546,44,0.09701191874999893
32890,46.15346125000005,59,0.09782624999999712,62,0.09659081249999701
32891,46.25086375000005,52,0.09740250000000117,45,0.0967996687499948
32892,46.34847775000004,47,0.09761399999999298,45,0.09711575625000535
32893,46.44641050000005,47,0.09793275000000534,44,0.09743391041666882
32894,46.54466408333338,40,0.09825358333333156,50,0.09850821250000052
32895,46.644008416666715,35,0.09934433333333459,42,0.10153409791666235
32896,46.74640458333338,35,0.10239616666666507,42,0.10475190416666891
32897,46.85204616666672,28,0.10564158333333751,42,0.10818046666666703
32898,46.96114575000006,23,0.10909958333333947,64,0.09949837916666837
32899,47.06148025000006,27,0.10033450000000244,42,0.09916666666666885
32900,47.16148025000006,35,0.10000000000000142,41,0.09872993541667086
32901,47.26103800000006,35,0.09955775000000244,41,0.09850993541666497
32902,47.36037575000006,39,0.09933774999999656,50,0.09850993541667208
32903,47.45971350000006,47,0.09933775000000367,39,0.09850993541666497
32904,47.55905125000006,39,0.09933774999999656,38,0.09850993541667208
32905,47.658389000000064,35,0.09933775000000367,38,0.09872516666666087
32906,47.75794750000006,21,0.09955849999999344,61,0.09916666666666885
32907,47.85794750000006,27,0.10000000000000142,39,0.09949837916666837
32908,47.95828200000006,33,0.10033450000000244,46,0.09983232291666866
32909,48.05895325000006,33,0.10067124999999777,40,0.10016825000000296
32910,48.15996325000006,39,0.10101000000000226,48,0.10235345833333298
32911,48.2631908333334,45,0.10322758333333582,37,0.10753379999999879
32912,48.37164375000007,39,0.10845291666667123,44,0.11438074999999515
32913,48.48602450000006,33,0.11438074999999515,36,0.11301149375000819
32914,48.5998863333334,22,0.11386183333333832,61,0.10119041041666321
32915,48.7019270833334,26,0.10204075000000046,38,0.10084754166666698
32916,48.8036220833334,34,0.10169499999999942,38,0.10050665624999766
32917,48.9049733333334,34,0.10135125000000045,38,0.10016825000000296
32918,49.005983333333404,38,0.10101000000000226,46,0.09983232291666866
32919,49.1066545833334,46,0.10067124999999777,39,0.09949837916666837
32920,49.206989083333404,46,0.10033450000000244,39,0.09916666666666885
32921,49.306989083333406,50,0.10000000000000142,40,0.09883718541667008
32922,49.40665683333341,58,0.09966775000000183,56,0.09829754791667256
32923,49.505776750000074,50,0.09911991666666609,41,0.09807633333333854
32924,49.604678166666744,46,0.09890141666667063,41,0.0986171854166713
32925,49.70412591666675,46,0.09944775000000305,41,0.09905591666666425
32926,49.80401516666675,38,0.09988925000000393,47,0.09916612916666878
32927,49.904017416666754,34,0.10000225000000285,41,0.10153409791666235
32928,50.00641358333342,34,0.10239616666666507,41,0.10475190416666891
32929,50.11205516666676,26,0.10564158333333751,41,0.10818046666666703
32930,50.221154750000096,23,0.10909958333333947,66,0.09949837916666837
32931,50.3214892500001,27,0.10033450000000244,41,0.09938966666666005
32932,50.42171225000009,35,0.10022299999999262,41,0.09916666666666885
32933,50.52171225000009,35,0.10000000000000142,41,0.09883718541667008
32934,50.621380000000094,39,0.09966775000000183,49,0.09861993541666436
32935,50.7208277500001,47,0.09944775000000305,44,0.09840341666666319
32936,50.82005625000009,47,0.09922849999999528,44,0.09818491666666773
32937,50.91906625000009,51,0.09900999999999982,44,0.0978618812499974
32938,51.01775050000009,59,0.09868424999999803,60,0.09754107708333493
32939,51.11611125000009,51,0.09836074999999767,45,0.09775404791666631
32940,51.214687666666755,47,0.09857641666666694,45,0.09796775000000224
32941,51.31348050000009,47,0.09879283333333433,45,0.09818491666666773
32942,51.41249050000009,39,0.09900999999999982,51,0.09850993541666497
32943,51.511828250000086,35,0.09933774999999656,45,0.099955847916668
32944,51.61264616666676,35,0.10081791666667073,45,0.10475190416666891
32945,51.718287750000094,27,0.10564158333333751,45,0.10818046666666703
32946,51.827387333333434,27,0.10909958333333947,72,0.09949837916666837
32947,51.927721833333436,32,0.10033450000000244,45,0.09916666666666885
32948,52.02772183333344,39,0.10000000000000142,45,0.09872993541667086
32949,52.12727958333344,39,0.09955775000000244,45,0.09840341666666319
32950,52.226508083333435,44,0.09922849999999528,52,0.09807904791666999
32951,52.3254095000001,51,0.09890141666666352,46,0.09764891041667312
32952,52.423878083333435,51,0.09846858333333586,46,0.09732942291666546
32953,52.5220245000001,56,0.09814641666666546,45,0.09701191874999893
32954,52.6198507500001,63,0.09782624999999712,64,0.09659081249999701
32955,52.7172532500001,56,0.09740250000000117,46,0.0967996687499948
32956,52.81486725000009,51,0.09761399999999298,46,0.09711575625000535
32957,52.9128000000001,51,0.09793275000000534,46,0.09743391041666882
32958,53.01105358333343,44,0.09825358333333156,51,0.09850821250000052
32959,53.11039791666676,39,0.09934433333333459,45,0.10153409791666235
32960,53.21279408333343,39,0.10239616666666507,45,0.10475190416666891
32961,53.318435666666765,32,0.10564158333333751,45,0.10818046666666703
32962,53.427535250000105,26,0.10909958333333947,69,0.09949837916666837
32963,53.52786975000011,32,0.10033450000000244,44,0.09916666666666885
32964,53.62786975000011,38,0.10000000000000142,44,0.09872993541667086
32965,53.72742750000011,38,0.09955775000000244,44,0.09840341666666319
32966,53.826656000000106,44,0.09922849999999528,51,0.09807904791666999
32967,53.92555741666677,50,0.09890141666666352,44,0.09764891041667312
32968,54.024026000000106,50,0.09846858333333586,44,0.09732942291666546
32969,54.12217241666677,56,0.09814641666666546,44,0.09701191874999893
32970,54.21999866666677,62,0.09782624999999712,62,0.09659081249999701
32971,54.31740116666677,56,0.09740250000000117,45,0.0967996687499948
32972,54.41501516666676,50,0.09761399999999298,45,0.09711575625000535
32973,54.51294791666677,50,0.09793275000000534,45,0.09743391041666882
32974,54.6112015000001,44,0.09825358333333156,50,0.09850821250000052
32975,54.710545833333434,38,0.09934433333333459,44,0.10153409791666235
32976,54.8129420000001,38,0.10239616666666507,44,0.10475190416666891
32977,54.91858358333344,32,0.10564158333333751,44,0.10818046666666703
32978,55.027683166666776,26,0.10909958333333947,68,0.09949837916666837
32979,55.12801766666678,32,0.10033450000000244,42,0.09916666666666885
32980,55.22801766666678,38,0.10000000000000142,42,0.09872993541667086
32981,55.32757541666678,38,0.09955775000000244,42,0.09840341666666319
32982,55.42680391666678,44,0.09922849999999528,50,0.09807904791666999
32983,55.52570533333344,50,0.09890141666666352,42,0.09764891041667312
32984,55.62417391666678,50,0.09846858333333586,42,0.09732942291666546
32985,55.72232033333344,56,0.09814641666666546,45,0.09701191874999893
32986,55.82014658333344,62,0.09782624999999712,62,0.09659081249999701
32987,55.91754908333344,56,0.09740250000000117,46,0.0967996687499948
32988,56.015163083333434,50,0.09761399999999298,46,0.09711575625000535
32989,56.11309583333344,50,0.09793275000000534,46,0.09743391041666882
32990,56.21134941666677,44,0.09825358333333156,51,0.09850821250000052
32991,56.310693750000105,38,0.09934433333333459,45,0.10153409791666235
32992,56.41308991666677,38,0.10239616666666507,45,0.10475190416666891
32993,56.51873150000011,32,0.10564158333333751,45,0.10818046666666703
32994,56.62783108333345,27,0.10909958333333947,73,0.09905943541667028
32995,56.72772108333345,32,0.09989000000000203,47,0.0984034166666703
32996,56.82694958333345,39,0.09922850000000238,47,0.0979704645833337
32997,56.925742416666786,39,0.09879283333333433,47,0.09743658958333157
32998,57.02399600000012,44,0.09825358333333156,56,0.09701191874999893
32999,57.121822250000115,51,0.09782624999999712,48,0.09648843749999969
33000,57.21911975000011,51,0.09729749999999626,48,0.09607221458333726
33001,57.31599841666678,56,0.09687866666666878,48,0.09545555208332956
33002,57.41225525000011,63,0.09625683333332802,69,0.0957602979166694
33003,57.50882200000011,56,0.09656675000000092,49,0.09617402083333104
33004,57.60580508333344,51,0.09698308333333472,50,0.09669391874999889
33005,57.70331333333344,51,0.09750824999999708,50,0.09711575624999824
33006,57.80124608333344,44,0.09793274999999824,57,0.09850821250000052
33007,57.90059041666677,39,0.09934433333333459,49,0.10153409791666235
33008,58.00298658333344,39,0.10239616666666507,49,0.10475190416666891
33009,58.108628166666776,32,0.10564158333333751,49,0.10461968541667233
33010,58.21407566666678,30,0.10544750000000391,79,0.09840341666666319
33011,58.313304166666775,33,0.09922849999999528,49,0.0979704645833337
33012,58.41209700000011,42,0.09879283333333433,49,0.09754107708333493
33013,58.51045775000011,42,0.09836074999999767,49,0.09711841875000005
33014,58.608390500000105,45,0.09793274999999824,59,0.09669656250000003
33015,58.7058987500001,54,0.09750824999999708,50,0.09627843749999698
33016,58.8029862500001,54,0.09708750000000066,50,0.09586664166666736
33017,58.8996567500001,57,0.09667049999999477,51,0.09545555208333667
33018,58.99591358333343,66,0.09625683333333512,69,0.09514780208333207
33019,59.09186266666677,57,0.09594908333333763,52,0.09596585416666414
33020,59.18863758333343,54,0.09677491666666072,52,0.09690350625000121
33021,59.28635808333343,54,0.09772050000000121,52,0.09775404791666631
33022,59.3849345000001,45,0.09857641666666694,60,0.09850821250000052
33023,59.484278833333434,42,0.09934433333333459,52,0.10153409791666235
33024,59.5866750000001,42,0.10239616666666507,52,0.10475190416666891
33025,59.69231658333344,33,0.10564158333333751,52,0.10818046666666703
33026,59.801416166666776,29,0.10909958333333947,84,0.09949837916666837
33027,59.90175066666678,34,0.10033450000000244,51,0.09916666666666885
33028,60.00175066666678,41,0.10000000000000142,51,0.09872993541667086
33029,60.10130841666678,41,0.09955775000000244,51,0.09840341666666319
33030,60.20053691666678,46,0.09922849999999528,63,0.09807904791666999
33031,60.29943833333344,53,0.09890141666666352,53,0.09764891041667312
33032,60.39790691666678,53,0.09846858333333586,53,0.09732942291666546
33033,60.49605333333344,58,0.09814641666666546,53,0.09701191874999893
33034,60.59387958333344,65,0.09782624999999712,77,0.09659081249999701
33035,60.69128208333344,58,0.09740250000000117,56,0.0967996687499948
33036,60.788896083333434,53,0.09761399999999298,57,0.09711575625000535
33037,60.88682883333344,53,0.09793275000000534,57,0.09743391041666882
33038,60.98508241666677,46,0.09825358333333156,66,0.09850821250000052
33039,61.084426750000105,41,0.09934433333333459,56,0.10153409791666235
33040,61.18682291666677,41,0.10239616666666507,56,0.10475190416666891
33041,61.29246450000011,34,0.10564158333333751,56,0.10818046666666703
33042,61.40156408333345,29,0.10909958333333947,91,0.09949837916666837
33043,61.50189858333345,35,0.10033450000000244,57,0.09916666666666885
33044,61.60189858333345,41,0.10000000000000142,57,0.09872993541667086
33045,61.701456333333454,41,0.09955775000000244,57,0.09840341666666319
33046,61.80068483333345,47,0.09922849999999528,68,0.09807904791666999
33047,61.89958625000011,53,0.09890141666666352,58,0.09764891041667312
33048,61.99805483333345,53,0.09846858333333586,58,0.09732942291666546
33049,62.096201250000114,59,0.09814641666666546,58,0.09701191874999893
33050,62.19402750000011,65,0.09782624999999712,77,0.09659081249999701
33051,62.29143000000011,59,0.09740250000000117,59,0.0967996687499948
33052,62.389044000000105,53,0.09761399999999298,59,0.09711575625000535
33053,62.48697675000011,53,0.09793275000000534,59,0.09743391041666882
33054,62.58523033333344,47,0.09825358333333156,69,0.09850821250000052
33055,62.68457466666678,41,0.09934433333333459,60,0.10153409791666235
33056,62.78697083333344,41,0.10239616666666507,60,0.10475190416666891
33057,62.89261241666678,35,0.10564158333333751,60,0.10818046666666703
33058,63.00171200000012,30,0.10909958333333947,94,0.09949837916666837
33059,63.10204650000012,35,0.10033450000000244,59,0.09916666666666885
33060,63.20204650000012,42,0.10000000000000142,59,0.09872993541667086
33061,63.301604250000125,42,0.09955775000000244,59,0.09840341666666319
33062,63.40083275000012,47,0.09922849999999528,71,0.09807904791666999
33063,63.499734166666784,54,0.09890141666666352,61,0.09764891041667312
33064,63.59820275000012,54,0.09846858333333586,61,0.09732942291666546
33065,63.696349166666785,59,0.09814641666666546,61,0.09701191874999893
33066,63.79417541666678,66,0.09782624999999712,84,0.09659081249999701
33067,63.89157791666678,59,0.09740250000000117,62,0.0967996687499948
33068,63.989191916666776,54,0.09761399999999298,64,0.09711575625001245
33069,64.08712466666678,54,0.09793275000000534,64,0.09743391041666882
33070,64.18537825000011,47,0.09825358333333156,73,0.09839896249999924
33071,64.28461333333345,42,0.09923508333334041,63,0.10247195833333933
33072,64.38795941666679,42,0.10334608333333506,63,0.11376991458332952
33073,64.50281158333345,35,0.11485216666666531,63,0.14114963541666725
33074,64.64520500000012,34,0.14239341666666405,97,0.09949837916666127
33075,64.74553950000012,39,0.10033450000000244,63,0.09916666666666174
33076,64.84553950000011,46,0.09999999999999432,63,0.09872993541667086
33077,64.94509725000012,46,0.09955775000000244,63,0.0984034166666703
33078,65.04432575000013,51,0.09922850000000949,74,0.09807904791666999
33079,65.14322716666679,58,0.09890141666666352,64,0.09764891041666601
33080,65.24169575000012,58,0.09846858333332875,64,0.09732942291667257
33081,65.33984216666678,63,0.09814641666666546,66,0.09701191874999893
33082,65.43766841666678,70,0.09782624999999712,88,0.09659081249999701
33083,65.53507091666678,63,0.09740250000000117,67,0.0967996687499948
33084,65.63268491666678,58,0.09761399999999298,67,0.09711575625000535
33085,65.73061766666677,58,0.09793274999999824,67,0.09743391041666882
33086,65.8288712500001,51,0.09825358333333156,77,0.09850821249999342
33087,65.92821558333344,46,0.09934433333333459,67,0.10153409791666945
33088,66.0306117500001,46,0.10239616666666507,67,0.1047519041666618
33089,66.13625333333344,39,0.10564158333333751,67,0.10472693541667866
33090,66.24181083333345,32,0.1055575000000033,101,0.09861993541667857
33091,66.34125858333346,39,0.09944775000001016,66,0.09807904791666999
33092,66.44016000000012,44,0.09890141666666352,66,0.09764891041666601
33093,66.53862858333345,44,0.09846858333332875,66,0.09711841875000005
33094,66.63656133333345,51,0.09793274999999824,80,0.09669656250000003
33095,66.73406958333345,56,0.09750825000000418,68,0.09617663124998899
33096,66.83105266666678,56,0.09698308333332761,68,0.0957628916666664
33097,66.92761941666677,63,0.09656674999999382,68,0.09525269374999823
33098,67.02367083333344,68,0.09605141666666839,88,0.09535064166665563
33099,67.11982533333344,62,0.09615449999999726,71,0.09617402083333104
33100,67.21680841666677,56,0.09698308333332761,72,0.09690350625000121
33101,67.31452891666676,56,0.0977204999999941,72,0.09754107708333493
33102,67.41288966666676,50,0.09836074999999767,81,0.09872604583331679
33103,67.51245183333342,44,0.09956216666665796,69,0.10107400208333672
33104,67.61438200000008,44,0.1019301666666621,69,0.11063951041666087
33105,67.7260808333334,38,0.11169883333332109,69,0.13595035625000662
33106,67.86322166666673,35,0.1371408333333335,108,0.09949837916666127
33107,67.96355616666673,38,0.10033450000000244,67,0.09916666666666174
33108,68.06355616666673,47,0.09999999999999432,67,0.09872993541667086
33109,68.16311391666673,47,0.09955775000000244,67,0.0984034166666703
33110,68.26234241666674,50,0.09922850000000949,81,0.09807904791666999
33111,68.3612438333334,59,0.09890141666666352,70,0.09764891041666601
33112,68.45971241666673,59,0.09846858333332875,70,0.09732942291667257
33113,68.5578588333334,62,0.09814641666666546,70,0.09701191874999893
33114,68.6556850833334,71,0.09782624999999712,92,0.09659081249999701
33115,68.7530875833334,62,0.09740250000000117,67,0.0967996687499948
33116,68.85070158333339,59,0.09761399999999298,69,0.09711575625000535
33117,68.94863433333339,59,0.09793274999999824,69,0.09743391041666882
33118,69.04688791666672,50,0.09825358333333156,82,0.09850821249999342
33119,69.14623225000005,47,0.09934433333333459,67,0.10153409791666945
33120,69.24862841666672,47,0.10239616666666507,67,0.1047519041666618
33121,69.35427000000006,38,0.10564158333333751,67,0.10818046666668124
33122,69.4633695833334,34,0.10909958333334657,106,0.09927816666666445
33123,69.5634810833334,38,0.10011149999999702,67,0.09872993541667086
33124,69.6630388333334,46,0.09955775000000244,67,0.09829416666666191
33125,69.7621580833334,46,0.0991192500000011,67,0.0977567437499971
33126,69.86073450000006,50,0.09857641666665984,81,0.09732942291667257
33127,69.95888091666673,58,0.09814641666666546,70,0.09680231250000304
33128,70.05649491666672,58,0.09761399999999298,70,0.096383437500009
33129,70.15368741666673,62,0.09719250000000557,70,0.09586664166666026
33130,70.25035791666673,70,0.09667050000000188,90,0.0954529750000006
33131,70.34661475000007,62,0.09625683333334223,67,0.096069604166658
33132,70.44349341666674,58,0.09687866666666878,69,0.09669391875000599
33133,70.54100166666674,58,0.09750825000000418,69,0.09743391041666882
33134,70.63925525000008,50,0.09825358333333156,82,0.09850821249999342
33135,70.73859958333341,46,0.09934433333333459,67,0.10153409791666945
33136,70.84099575000008,46,0.10239616666666507,67,0.1047519041666618
33137,70.94663733333341,38,0.10564158333333751,67,0.10584006041668204
33138,71.05333650000009,22,0.10669916666667234,100,0.10211891875000845
33139,71.15631158333342,26,0.10297508333333383,61,0.10165267500001107
33140,71.25881750000009,34,0.10250591666667219,62,0.10130649375000189
33141,71.36097433333343,34,0.10215683333333914,64,0.10084754166666698
33142,71.46266933333344,38,0.10169500000000653,75,0.1003957499999899
33143,71.56390683333343,46,0.10123749999999632,66,0.10005815625000025
33144,71.66480391666677,38,0.10089708333333647,67,0.09961062916666208
33145,71.76525066666677,34,0.10044675000000325,68,0.09917018541666778
33146,71.86525141666677,22,0.10000074999999242,105,0.09894516666666675
33147,71.96502991666677,27,0.09977849999999933,68,0.09938687916665856
33148,72.06525291666676,34,0.10022299999999973,68,0.09972007291666785
33149,72.16581191666677,34,0.10055900000000406,69,0.1002791562499965
33150,72.26693566666677,39,0.10112374999999929,80,0.10153314375001798
33151,72.36932791666678,46,0.10239225000000829,70,0.10329587500000059
33152,72.47349791666677,39,0.10416999999999632,71,0.10512090416666808
33153,72.57950850000012,34,0.10601058333334379,72,0.106351962500014
33154,72.68673154166679,22,0.10722304166667129,106,0.10211891875000845
33155,72.78970662500012,28,0.10297508333333383,69,0.10153949375001048
33156,72.89209645833347,34,0.10238983333334772,70,0.10085107291666873
33157,72.99379212500014,34,0.10169566666667151,71,0.10017190624999728
33158,73.09480295833347,40,0.1010108333333335,81,0.09983232291666866
33159,73.19547420833348,46,0.10067125000000487,72,0.09983232291665445
33160,73.29614545833347,40,0.10067124999999066,74,0.09983232291666866
33161,73.39681670833347,34,0.10067125000000487,76,0.09983232291666866
33162,73.49748795833348,22,0.10067125000000487,109,0.10061699374999478
33163,73.59895529166681,28,0.10146733333333202,73,0.10199693124999953
33164,73.7018142916668,34,0.10285899999999515,75,0.10341520833334528
33165,73.80610362500015,28,0.104289333333341,75,0.10369984166666768
33166,73.91065670833349,22,0.10455308333334301,96,0.10512988541667312
33167,74.01668587500016,29,0.10602916666667284,73,0.11115713541666139
33168,74.1287972083335,34,0.11211133333333123,72,0.11806668750000426
33169,74.24787604166683,29,0.11907883333333302,72,0.13461527916666682
33170,74.38362254166682,30,0.13574649999999622,108,0.10550621874999422
33171,74.49000904166682,34,0.10638649999999927,70,0.1033079312500007
33172,74.59417904166682,42,0.10416999999999632,70,0.10085625000000675
33173,74.69587704166683,42,0.10169800000001317,70,0.09873979791666443
33174,74.79543920833349,46,0.09956216666665796,82,0.09732942291667257
33175,74.89358562500016,54,0.09814641666666546,72,0.09680231250000304
33176,74.99119962500015,54,0.09761399999999298,70,0.096383437500009
33177,75.08839212500015,58,0.09719250000000557,70,0.09586664166666026
33178,75.18506262500016,66,0.09667050000000188,90,0.0954529750000006
33179,75.2813194583335,58,0.09625683333334223,74,0.09586404791666325
33180,75.37798995833349,54,0.09667049999998767,74,0.09638081250000141
33181,75.47518245833348,54,0.09719249999999136,74,0.096799668750009
33182,75.57279645833349,46,0.0976140000000072,82,0.09861765624999919
33183,75.67225304166682,42,0.0994565833333354,70,0.10223467083334015
33184,75.77535879166682,42,0.10310574999999744,70,0.10625161875000799
33185,75.88251620833348,34,0.10715741666666645,70,0.1065229062500066
33186,75.98987804166683,29,0.10736183333334282,107,0.10153949374999627
33187,76.09226787500016,35,0.10238983333333351,66,0.10040023958333677
33188,76.19350704166683,41,0.10123916666667299,66,0.09917018541666778
33189,76.29350779166683,41,0.10000074999999242,66,0.09807971458333498
33190,76.39240987500015,47,0.0989020833333285,82,0.09775674375001131
33191,76.49098629166683,53,0.09857641666667405,67,0.09732942291667257
33192,76.5891327083335,53,0.09814641666666546,66,0.09680231250000304
33193,76.68674670833349,59,0.09761399999999298,66,0.096383437500009
33194,76.78393920833349,65,0.09719250000000557,92,0.09596779791667132
33195,76.88071345833349,59,0.09677424999999573,72,0.09638081250000141
33196,76.97790595833348,53,0.09719249999999136,70,0.096799668750009
33197,77.07551995833349,53,0.0976140000000072,70,0.09732674375000272
33198,77.17366637500015,47,0.09814641666666546,79,0.09905482291667056
33199,77.27356012500016,41,0.09989375000000678,69,0.10164868125001192
33200,77.37607087500017,41,0.10251075000000753,69,0.10450539166666317
33201,77.48146279166683,35,0.1053919166666617,67,0.10739925833333075
33202,77.5897744583335,32,0.10831166666666547,107,0.09949837916666127
33203,77.6901089583335,39,0.10033450000000244,70,0.09916666666666174
33204,77.79010895833349,44,0.09999999999999432,70,0.09872993541667086
33205,77.8896667083335,44,0.09955775000000244,70,0.0984034166666703
33206,77.9888952083335,51,0.09922850000000949,82,0.09807904791666999
33207,78.08779662500017,56,0.09890141666666352,72,0.09764891041666601
33208,78.1862652083335,56,0.09846858333332875,72,0.09732942291667257
33209,78.28441162500016,63,0.09814641666666546,72,0.09701191874999893
33210,78.38223787500016,68,0.09782624999999712,88,0.09659081249999701
33211,78.47964037500016,63,0.09740250000000117,74,0.0967996687499948
33212,78.57725437500015,56,0.09761399999999298,74,0.09711575625000535
33213,78.67518712500015,56,0.09793274999999824,74,0.09743391041666882
33214,78.77344070833348,51,0.09825358333333156,82,0.09850821249999342
33215,78.87278504166682,44,0.09934433333333459,72,0.10153409791666945
33216,78.97518120833348,44,0.10239616666666507,72,0.1047519041666618
33217,79.08082279166682,39,0.10564158333333751,72,0.10818046666668124
33218,79.18992237500017,30,0.10909958333334657,109,0.09983232291666866
33219,79.29059362500017,34,0.10067125000000487,70,0.09938966666666715
33220,79.39081662500017,42,0.10022299999999973,70,0.09894793541666047
33221,79.49059512500017,42,0.09977849999999933,70,0.0984034166666703
33222,79.58982362500018,46,0.09922850000000949,82,0.09797046458332659
33223,79.6886164583335,54,0.09879283333332012,72,0.09743658958333867
33224,79.78687004166683,54,0.09825358333333156,70,0.09701191874999893
33225,79.88469629166683,58,0.09782624999999712,70,0.09648843749999969
33226,79.98199379166684,66,0.09729750000001047,91,0.09638081250000141
33227,80.07918629166683,58,0.09719249999999136,74,0.096799668750009
33228,80.17680029166684,54,0.0976140000000072,74,0.09711575625000535
33229,80.27473304166683,54,0.09793274999999824,74,0.09754107708333493
33230,80.37309379166683,46,0.09836074999999767,82,0.09894558333331815
33231,80.47288112500016,42,0.09978733333332457,70,0.10258720833333257
33232,80.57634245833349,42,0.1034613333333283,70,0.10650411875000998
33233,80.68375237500015,34,0.10740991666666844,70,0.11045866458333364
33234,80.79514387500016,29,0.11139150000001052,110,0.09949837916666127
33235,80.89547837500017,35,0.10033450000000244,66,0.09905868541666507
33236,80.99536762500016,41,0.09988924999998972,66,0.09872993541667086
33237,81.09492537500016,41,0.09955775000000244,66,0.09829416666666191
33238,81.19404462500016,47,0.0991192500000011,82,0.0978618812499974
33239,81.29272887500017,53,0.09868425000000514,67,0.09743658958333867
33240,81.3909824583335,53,0.09825358333333156,66,0.09711841875000005
33241,81.4889152083335,59,0.09793274999999824,66,0.09669656250000003
33242,81.5864234583335,65,0.09750825000000418,95,0.09627843750000409
33243,81.6835109583335,59,0.09708750000000066,72,0.09669391875000599
33244,81.7810192083335,53,0.09750825000000418,70,0.09700925625000423
33245,81.8788454583335,53,0.09782624999999712,70,0.09743391041666882
33246,81.97709904166683,47,0.09825358333333156,79,0.09818151874999614
33247,82.07611112500015,41,0.09901208333332079,69,0.10084583541667769
33248,82.17781312500016,41,0.10170200000000307,69,0.10401935833334619
33249,82.28271587500016,35,0.10490275000000793,67,0.1075295833333314
33250,82.3911612083335,30,0.10844533333333573,109,0.09916666666666174
33251,82.4911612083335,35,0.09999999999999432,70,0.09894793541667468
33252,82.59093970833351,42,0.09977850000001354,70,0.09872993541667086
33253,82.69049745833351,42,0.09955775000000244,70,0.09850993541667208
33254,82.78983520833351,47,0.09933775000000367,82,0.09818491666666773
33255,82.88884520833352,54,0.09901000000000693,72,0.09797046458332659
33256,82.98763804166684,54,0.09879283333332012,72,0.09775674375001131
33257,83.08621445833352,59,0.09857641666667405,72,0.09743658958333867
33258,83.18446804166685,66,0.09825358333333156,94,0.09722225625000647
33259,83.28250729166685,59,0.09803924999999936,74,0.09743391041666882
33260,83.38076087500018,54,0.09825358333333156,74,0.09754107708333493
33261,83.47912162500018,54,0.09836074999999767,74,0.09785991666666405
33262,83.57780662500018,47,0.09868500000000324,82,0.09971882291665679
33263,83.67837004166684,42,0.10056341666665958,72,0.10234811041667058
33264,83.78158620833351,42,0.10321616666666955,72,0.10749560416667236
33265,83.89002520833351,35,0.10843900000000417,72,0.12430067916666587
33266,84.01542720833352,27,0.12540200000000823,106,0.09861993541666436
33267,84.11487495833352,30,0.09944774999999595,70,0.0979704645833408
33268,84.21366779166685,39,0.09879283333333433,70,0.09732942291667257
33269,84.31181420833352,39,0.09814641666666546,70,0.0965941874999885
33270,84.40921745833352,42,0.09740324999999928,78,0.09754107708333493
33271,84.50757820833351,51,0.09836074999999767,85,0.39344300000000487
33272,84.60593895833351,42,0.09836074999999767,66,0.09754107708333493
33273,84.70429970833351,39,0.09836074999999767,64,0.09754107708333493
33274,84.80266045833352,42,0.09836075000001188,74,0.09754107708333493
33275,84.90102120833352,49,0.09836074999999767,81,0.39344299999999066
33276,84.99938195833352,42,0.09836074999999767,64,0.09754107708333493
33277,85.09774270833351,39,0.09836074999999767,64,0.09754107708333493
33278,85.19610345833351,42,0.09836074999999767,73,0.09754107708333493
33279,85.29446420833351,47,0.09836074999999767,77,0.39237683333334417
33280,85.39282495833352,42,0.09836075000001188,60,0.09754107708333493
33281,85.49118570833352,39,0.09836074999999767,60,0.09722964583333749
33282,85.58922704166685,41,0.09804133333332743,69,0.096799668750009
33283,85.68684104166685,46,0.0976140000000072,75,0.3957298333333341
33284,85.78498745833352,41,0.09814641666666546,58,0.09775404791666631
33285,85.88356387500018,38,0.09857641666665984,58,0.0984006854166779
33286,85.98279237500019,40,0.09922850000000949,66,0.09894516666666675
33287,86.08257087500019,46,0.09977849999999933,73,0.404511416666665
33288,86.18279387500019,40,0.10022299999999973,58,0.10005533333333005
33289,86.28369095833352,37,0.10089708333333647,56,0.10061837499999626
33290,86.38515679166686,39,0.10146583333333581,63,0.10107516041665576
33291,86.48708229166685,44,0.10192549999999301,70,0.4143063333333572
33292,86.5897051250002,39,0.1026228333333421,55,0.10234918125000547
33293,86.6929163750002,36,0.10321125000000109,53,0.10282186458334763
33294,86.79660329166687,38,0.10368691666667473,59,0.10389880833334075
33295,86.90138862500021,44,0.10478533333333928,66,0.36655158333334725
33296,87.01337987500021,38,0.11199125000000265,52,0.12048091666667915
33297,87.13490245833356,35,0.12152258333334487,50,0.13189096041666915
33298,87.26794020833356,30,0.13303774999999973,84,0.10664090416666738
33299,87.3754707916669,34,0.10753058333334309,52,0.10403044375000547
33300,87.4803692916669,42,0.10489850000000445,52,0.10143307291666304
33301,87.58264695833357,42,0.10227766666666582,53,0.09906866666666758
33302,87.68254070833358,46,0.09989375000000678,63,0.09691022916666725
33303,87.78026262500025,54,0.0977219166666714,56,0.09680231250000304
33304,87.87787662500024,54,0.09761399999999298,55,0.096383437500009
33305,87.97506912500025,58,0.09719250000000557,55,0.09586664166666026
33306,88.07173962500025,66,0.09667050000000188,79,0.0954529750000006
33307,88.16799645833359,58,0.09625683333334223,58,0.09586404791666325
33308,88.26466695833358,54,0.09667049999998767,59,0.09638081250000141
33309,88.36185945833357,54,0.09719249999999136,59,0.096799668750009
33310,88.45947345833358,46,0.0976140000000072,67,0.09861765624999919
33311,88.55893004166691,42,0.0994565833333354,56,0.10223467083334015
33312,88.66203579166691,42,0.10310574999999744,56,0.10625161875000799
33313,88.76919320833358,34,0.10715741666666645,57,0.1065229062500066
33314,88.87655504166692,29,0.10736183333334282,92,0.10131175208333332
33315,88.97872295833358,35,0.1021679166666587,55,0.1009671562500074
33316,89.08053470833359,41,0.10181175000001019,55,0.09961483333333376
33317,89.18098287500025,41,0.10044816666666634,55,0.09840416666665419
33318,89.28021212500025,47,0.09922924999999339,69,0.0977567437499971
33319,89.3787885416669,53,0.09857641666665984,56,0.09732942291667257
33320,89.47693495833357,53,0.09814641666666546,56,0.09680231250000304
33321,89.57454895833357,59,0.09761399999999298,56,0.096383437500009
33322,89.67174145833357,65,0.09719250000000557,79,0.09596779791667132
33323,89.76851570833357,59,0.09677424999999573,61,0.09638081250000141
33324,89.86570820833356,53,0.09719249999999136,59,0.096799668750009
33325,89.96332220833357,53,0.0976140000000072,60,0.09732674375000272
33326,90.06146862500023,47,0.09814641666666546,68,0.09905482291667056
33327,90.16136237500024,41,0.09989375000000678,60,0.10164868125001192
33328,90.26387312500025,41,0.10251075000000753,60,0.10450539166666317
33329,90.3692650416669,35,0.1053919166666617,59,0.10739925833333075
33330,90.47757670833357,31,0.10831166666666547,100,0.10235756875000845
33331,90.5807904416669,37,0.10321373333333383,58,0.1009671562500074
33332,90.68260219166692,43,0.10181175000001019,59,0.09961483333333376
33333,90.78305035833358,43,0.10044816666666634,59,0.09840416666665419
33334,90.88227960833358,49,0.09922924999999339,74,0.0977567437499971
33335,90.98085602500024,55,0.09857641666665984,61,0.09732942291667257
33336,91.0790024416669,55,0.09814641666666546,60,0.09680231250000304
33337,91.1766164416669,61,0.09761399999999298,60,0.096383437500009
33338,91.2738089416669,67,0.09719250000000557,84,0.09596779791667132
33339,91.3705831916669,61,0.09677424999999573,67,0.09638081250000141
33340,91.46777569166689,55,0.09719249999999136,64,0.096799668750009
33341,91.5653896916669,55,0.0976140000000072,64,0.09732674375000272
33342,91.66353610833356,49,0.09814641666666546,73,0.09905482291667056
33343,91.76342985833357,43,0.09989375000000678,63,0.10164868125001192
33344,91.86594060833357,43,0.10251075000000753,64,0.10450539166666317
33345,91.97133252500024,38,0.1053919166666617,63,0.211811449999999
33346,92.0796441916669,32,0.10831166666666547,102,0.10264361875000816
33347,92.18314397500023,35,0.10349978333333354,60,0.1009671562500074
33348,92.28495572500024,44,0.10181175000001019,60,0.09972354583332788
33349,92.38551539166691,44,0.10055966666666905,60,0.09927816666666445
33350,92.48562689166691,47,0.10011149999999702,74,0.09872993541667086
33351,92.58518464166691,56,0.09955775000000244,61,0.09829416666666191
33352,92.68430389166691,56,0.0991192500000011,60,0.0977567437499971
33353,92.78288030833357,59,0.09857641666665984,60,0.09732942291667257
33354,92.88102672500024,68,0.09814641666666546,83,0.09690541874999781
33355,92.97874647500024,59,0.097719749999996,64,0.09700925625000423
33356,93.07657272500023,56,0.09782624999999712,62,0.09722225625000647
33357,93.17461197500023,56,0.09803924999999936,62,0.09754107708333493
33358,93.27297272500023,47,0.09836074999999767,71,0.0983998229166616
33359,93.37221147500023,44,0.09923874999999782,62,0.10164868125001192
33360,93.47472222500024,44,0.10251075000000753,62,0.10450539166666317
33361,93.5801141416669,35,0.1053919166666617,61,0.10739925833333075
33362,93.68842580833356,32,0.10831166666666547,97,0.10226178541667252
33363,93.79154375833356,35,0.1031179499999979,58,0.1009671562500074
33364,93.89335550833357,44,0.10181175000001019,58,0.09961483333333376
33365,93.99380367500024,44,0.10044816666666634,58,0.09840416666665419
33366,94.09303292500023,47,0.09922924999999339,71,0.0977567437499971
33367,94.19160934166689,56,0.09857641666665984,59,0.09732942291667257
33368,94.28975575833356,56,0.09814641666666546,58,0.09680231250000304
33369,94.38736975833355,59,0.09761399999999298,58,0.096383437500009
33370,94.48456225833355,68,0.09719250000000557,81,0.09596779791667132
33371,94.58133650833355,59,0.09677424999999573,63,0.09638081250000141
33372,94.67852900833354,56,0.09719249999999136,62,0.096799668750009
33373,94.77614300833355,56,0.0976140000000072,62,0.09732674375000272
33374,94.87428942500021,47,0.09814641666666546,69,0.09905482291667056
33375,94.97418317500022,44,0.09989375000000678,60,0.10164868125001192
33376,95.07669392500023,44,0.10251075000000753,60,0.10450539166666317
33377,95.18208584166689,35,0.1053919166666617,59,0.10735792916666753
33378,95.29031485000021,31,0.10822900833332483,101,0.10248323125001946
33379,95.39365424583356,37,0.10333939583334484,59,0.1009671562500074
33380,95.49546599583357,43,0.10181175000001019,59,0.09961483333333376
33381,95.59591416250024,43,0.10044816666666634,59,0.09840416666665419
33382,95.69514341250023,49,0.09922924999999339,74,0.0977567437499971
33383,95.79371982916689,55,0.09857641666665984,60,0.09732942291667257
33384,95.89186624583355,55,0.09814641666666546,59,0.09680231250000304
33385,95.98948024583355,61,0.09761399999999298,59,0.096383437500009
33386,96.08667274583355,67,0.09719250000000557,85,0.09596779791667132
33387,96.18344699583355,61,0.09677424999999573,64,0.09638081250000141
33388,96.28063949583354,55,0.09719249999999136,63,0.096799668750009
33389,96.37825349583355,55,0.0976140000000072,63,0.09732674375000272
33390,96.47639991250021,49,0.09814641666666546,71,0.09905482291667056
33391,96.57629366250022,43,0.09989375000000678,61,0.10164868125001192
33392,96.67880441250023,43,0.10251075000000753,61,0.10450539166666317
33393,96.78419632916689,37,0.1053919166666617,60,0.1070000895833374
33394,96.89206447500023,32,0.10786814583333637,103,0.10247091041665612
33395,96.9953915500002,38,0.1033270749999815,61,0.1009671562500074
33396,97.09720330000022,44,0.10181175000001019,61,0.09950333333333106
33397,97.19753996666688,44,0.10033666666666363,61,0.09851341666666258
33398,97.29687846666688,50,0.09933850000000177,75,0.09786532708332629
33399,97.39556346666687,56,0.09868499999998903,62,0.09711841875000005
33400,97.49349621666687,56,0.09793274999999824,61,0.09638343749999478
33401,97.59068871666686,62,0.09719249999999136,61,0.0956623854166736
33402,97.68715238333353,68,0.09646366666666495,86,0.09565721458334053
33403,97.7836160500002,62,0.09646366666667916,67,0.09627639583334258
33404,97.88070413333354,56,0.09708808333333252,66,0.09690350625001543
33405,97.97842463333355,56,0.09772050000000831,66,0.09732674375000272
33406,98.07657105000021,50,0.09814641666666546,73,0.09905482291667056
33407,98.17646480000022,44,0.09989375000000678,64,0.10153314375001798
33408,98.27885705000023,44,0.10239225000000829,64,0.10943938541666398
33409,98.38925063333356,38,0.11039358333333382,62,0.22135824999999443
33410,98.50509863333355,34,0.11584799999998552,105,0.10463305625000885
33411,98.61060888333355,38,0.10551025000000891,61,0.1039020875000034
33412,98.71538205000022,46,0.1047731666666607,62,0.10318153125000151
33413,98.81942863333356,46,0.10404658333334282,63,0.10247064375001003
33414,98.92275838333356,50,0.10332975000000033,79,0.10188358541667242
33415,99.02549813333356,58,0.1027397499999978,62,0.10188358541667242
33416,99.12823788333355,50,0.1027397499999978,64,0.10188358541667242
33417,99.23097763333355,46,0.1027397499999978,66,0.10188358541667242
33418,99.33371738333356,35,0.10273975000001201,106,0.10211597708332931
33419,99.4366924666669,38,0.10297508333333383,70,0.10234918124999126
33420,99.53990371666688,47,0.10321124999998688,68,0.10258618125000396
33421,99.64335196666688,47,0.10344824999999958,68,0.1029411979166639
33422,99.74715821666689,50,0.1038062500000052,75,0.10401821874999939
33423,99.8520567166669,59,0.10489850000000445,67,0.10650188958332762
33424,99.95946113333356,50,0.10740441666666811,67,0.10910474166666972
33425,100.06949180000024,47,0.11003066666667394,64,0.11189716458332555
33426,100.18225702083356,34,0.11276522083332452,108,0.10236897708333004
33427,100.28548216250022,39,0.10322514166665542,64,0.1009671562500074
33428,100.38729391250023,46,0.10181175000001019,64,0.09961483333333376
33429,100.48774207916689,46,0.10044816666666634,64,0.09840416666665419
33430,100.58697132916689,51,0.09922924999999339,81,0.0977567437499971
33431,100.68554774583355,58,0.09857641666665984,67,0.09732942291667257
33432,100.78369416250021,58,0.09814641666666546,64,0.09680231250000304
33433,100.8813081625002,63,0.09761399999999298,64,0.096383437500009
33434,100.97850066250021,70,0.09719250000000557,93,0.09596779791667132
33435,101.0752749125002,63,0.09677424999999573,71,0.09638081250000141
33436,101.1724674125002,58,0.09719249999999136,70,0.096799668750009
33437,101.2700814125002,58,0.0976140000000072,70,0.09732674375000272
33438,101.36822782916687,51,0.09814641666666546,78,0.09905482291667056
33439,101.46812157916688,46,0.09989375000000678,69,0.10164868125001192
33440,101.57063232916688,46,0.10251075000000753,69,0.10767879583332274
33441,101.67927266250021,39,0.10864033333332657,68,0.14045995416665846
33442,101.82060674166688,39,0.1413340791666684,107,0.10255602291665866
33443,101.92401892916686,46,0.10341218749998404,67,0.1009671562500074
33444,102.02583067916687,51,0.10181175000001019,67,0.09961483333333376
33445,102.12627884583354,51,0.10044816666666634,67,0.09840416666665419
33446,102.22550809583353,58,0.09922924999999339,83,0.0977567437499971
33447,102.32408451250019,63,0.09857641666665984,69,0.09732942291667257
33448,102.42223092916686,63,0.09814641666666546,67,0.09680231250000304
33449,102.51984492916685,70,0.09761399999999298,67,0.096383437500009
33450,102.61703742916686,75,0.09719250000000557,95,0.09596779791667132
33451,102.71381167916685,70,0.09677424999999573,73,0.09638081250000141
33452,102.81100417916684,63,0.09719249999999136,72,0.096799668750009
33453,102.90861817916685,63,0.0976140000000072,72,0.09732674375000272
33454,103.00676459583352,58,0.09814641666666546,80,0.09905482291667056
33455,103.10665834583352,51,0.09989375000000678,71,0.10164868125001192
33456,103.20916909583353,51,0.10251075000000753,71,0.10450539166666317
33457,103.31456101250019,46,0.1053919166666617,69,0.10735792916666753
33458,103.42279002083352,37,0.10822900833332483,105,0.10402483750000613
33459,103.52768593750018,39,0.10489591666666342,64,0.10294501458334082
33460,103.63149302083352,49,0.10380708333333644,64,0.10188725833332057
33461,103.73423352083351,49,0.1027404999999959,64,0.10085107291666873
33462,103.83592918750018,51,0.10169566666667151,80,0.09983232291666866
33463,103.93660043750019,61,0.10067125000000487,64,0.09983232291666866
33464,104.03727168750018,51,0.10067124999999066,64,0.09983232291666866
33465,104.13794293750018,49,0.10067125000000487,64,0.09983232291666866
33466,104.23861418750019,35,0.10067125000000487,103,0.09994241666665005
33467,104.33939835416685,39,0.10078416666665646,69,0.10016824999999585
33468,104.44040835416685,47,0.10101000000000226,67,0.10016824999999585
33469,104.54141835416685,47,0.10101000000000226,67,0.10016824999999585
33470,104.64242835416684,51,0.10100999999998805,77,0.10016825000001006
33471,104.74343835416684,59,0.10101000000000226,66,0.10164868125001192
33472,104.84594910416685,51,0.10251075000000753,66,0.10450539166666317
33473,104.95134102083351,47,0.1053919166666617,64,0.10736097499999175
33474,105.05957612083351,32,0.1082351000000017,103,0.10475747291667403
33475,105.16521078750019,35,0.10563466666667409,64,0.10366236041666355
33476,105.26974120416685,44,0.10453041666666252,64,0.10223741874999348
33477,105.37283478750017,44,0.10309358333331886,64,0.10119412500000635
33478,105.47487637083351,47,0.1020415833333459,81,0.10016824999999585
33479,105.57588637083352,56,0.10101000000000226,66,0.10016824999999585
33480,105.67689637083352,47,0.10101000000000226,64,0.10016824999999585
33481,105.77790637083352,44,0.10101000000000226,64,0.10016824999999585
33482,105.87891637083351,29,0.10100999999998805,103,0.10016825000001006
33483,105.97992637083351,35,0.10101000000000226,70,0.10016824999999585
33484,106.08093637083351,41,0.10101000000000226,69,0.1002791562499965
33485,106.18206012083351,41,0.10112374999999929,69,0.1003957499999899
33486,106.28329762083351,47,0.10123749999999632,77,0.10118775208333375
33487,106.38534153750017,53,0.10204391666665913,67,0.10305692083333895
33488,106.48926953750016,47,0.10392799999999625,67,0.10499789166667028
33489,106.59515395416683,41,0.10588441666666881,66,0.10697087291666207
33490,106.70298987916684,34,0.10783592500000339,110,0.10232691874999489
33491,106.80617296250016,39,0.10318308333332027,70,0.1009671562500074
33492,106.90798471250017,46,0.10181175000001019,70,0.09961483333333376
33493,107.00843287916683,46,0.10044816666666634,70,0.09840416666665419
33494,107.10766212916683,51,0.09922924999999339,85,0.0977567437499971
33495,107.20623854583349,58,0.09857641666665984,71,0.09732942291667257
33496,107.30438496250015,58,0.09814641666666546,70,0.09680231250000304
33497,107.40199896250014,63,0.09761399999999298,70,0.096383437500009
33498,107.49919146250015,70,0.09719250000000557,97,0.09596779791667132
33499,107.59596571250015,63,0.09677424999999573,75,0.09638081250000141
33500,107.69315821250014,58,0.09719249999999136,73,0.096799668750009
33501,107.79077221250014,58,0.0976140000000072,73,0.09732674375000272
33502,107.88891862916681,51,0.09814641666666546,82,0.09905482291667056
33503,107.98881237916682,46,0.09989375000000678,72,0.10164868125001192
33504,108.09132312916682,46,0.10251075000000753,72,0.10438319166667043
33505,108.19658971250016,39,0.10526658333333216,71,0.13608876874999964
33506,108.33357133750015,35,0.13698162499999,108,0.10301266041666679
33507,108.43744016250014,39,0.10386882499999217,70,0.1009671562500074
33508,108.53925191250015,47,0.10181175000001019,70,0.09961483333333376
33509,108.63970007916681,47,0.10044816666666634,70,0.09840416666665419
33510,108.73892932916681,51,0.09922924999999339,85,0.0977567437499971
33511,108.83750574583347,59,0.09857641666665984,71,0.09732942291667257
33512,108.93565216250013,59,0.09814641666666546,70,0.09680231250000304
33513,109.03326616250013,63,0.09761399999999298,70,0.096383437500009
33514,109.13045866250013,71,0.09719250000000557,97,0.09596779791667132
33515,109.22723291250013,63,0.09677424999999573,75,0.09638081250000141
33516,109.32442541250012,59,0.09719249999999136,73,0.096799668750009
33517,109.42203941250013,59,0.0976140000000072,73,0.09732674375000272
33518,109.52018582916679,51,0.09814641666666546,82,0.09905482291667056
33519,109.6200795791668,47,0.09989375000000678,72,0.10164868125001192
33520,109.7225903291668,47,0.10251075000000753,72,0.10450539166666317
33521,109.82798224583347,39,0.1053919166666617,71,0.10735792916666753
33522,109.93621125416679,35,0.10822900833332483,110,0.10313994375002267
33523,110.04021625000016,38,0.10400499583336398,70,0.10223741874999348
33524,110.14330983333348,47,0.10309358333331886,70,0.10085107291666873
33525,110.24500550000015,47,0.10169566666667151,70,0.09972354583332788
33526,110.34556516666682,50,0.10055966666666905,85,0.09938966666666715
33527,110.44578816666682,59,0.10022299999999973,71,0.09905868541666507
33528,110.5456774166668,59,0.09988924999998972,70,0.09883718541667008
33529,110.64534516666681,62,0.09966775000000894,70,0.09850993541667208
33530,110.74468291666682,71,0.09933775000000367,97,0.09818491666666773
33531,110.84369291666682,62,0.09901000000000693,75,0.09850993541667208
33532,110.94303066666683,59,0.09933775000000367,73,0.09894516666666675
33533,111.04280916666683,59,0.09977849999999933,73,0.09927537916665585
33534,111.14292066666683,50,0.10011149999999702,82,0.09972007291666785
33535,111.24347966666683,47,0.10055900000000406,72,0.10164868125001192
33536,111.34599041666684,47,0.10251075000000753,72,0.10450539166666317
33537,111.4513823333335,38,0.1053919166666617,71,0.10705470833333663
33538,111.55931116666683,34,0.10792883333333236,108,0.1025899770833405
33539,111.66276025000016,38,0.1034490833333308,70,0.10153949374999627
33540,111.7651500833335,46,0.10238983333333351,70,0.10051033333333237
33541,111.86650216666683,46,0.10135208333333878,70,0.09950191666666797
33542,111.96683741666683,50,0.10033525000000054,85,0.09916666666666174
33543,112.06683741666684,58,0.10000000000000853,71,0.09883718541667008
33544,112.16650516666684,58,0.09966774999999473,70,0.09861993541667857
33545,112.26595291666685,62,0.09944775000001016,70,0.0984034166666703
33546,112.36518141666686,70,0.09922850000000949,97,0.09829143541666951
33547,112.46430066666686,62,0.0991192500000011,75,0.0986171854166713
33548,112.56374841666685,58,0.09944774999999595,73,0.09894516666666675
33549,112.66352691666685,58,0.09977849999999933,73,0.09927537916665585
33550,112.76363841666685,50,0.10011149999999702,82,0.09905482291667056
33551,112.86353216666686,46,0.09989375000000678,72,0.10177787291667073
33552,112.96620289583353,46,0.1026707291666753,72,0.1123166499999968
33553,113.07949993750019,38,0.11329704166665522,71,0.16059241041666894
33554,113.24132387500018,31,0.1618239374999888,108,0.10466369374999829
33555,113.3468437333335,34,0.10551985833332367,70,0.1009671562500074
33556,113.44865548333351,43,0.10181175000001019,70,0.09961483333333376
33557,113.54910365000018,43,0.10044816666666634,70,0.09840416666665419
33558,113.64833290000017,46,0.09922924999999339,85,0.0977567437499971
33559,113.74690931666683,55,0.09857641666665984,71,0.09732942291667257
33560,113.8450557333335,55,0.09814641666666546,70,0.09680231250000304
33561,113.94266973333349,58,0.09761399999999298,70,0.096383437500009
33562,114.0398622333335,67,0.09719250000000557,93,0.09596779791667132
33563,114.13663648333349,67,0.09677424999999573,75,0.09638081250000141
33564,114.23382898333348,70,0.09719249999999136,73,0.096799668750009
33565,114.33144298333349,79,0.0976140000000072,73,0.09732674375000272
33566,114.42958940000015,70,0.09814641666666546,82,0.09905482291667056
33567,114.52948315000016,67,0.09989375000000678,72,0.10164868125001192
33568,114.63199390000017,67,0.10251075000000753,72,0.10450539166666317
33569,114.73738581666683,58,0.1053919166666617,71,0.1060258895833357
33570,114.84428890000017,55,0.10690308333333576,81,0.10402483750000613
33571,114.94918481666683,55,0.10489591666666342,69,0.10330244791667553
33572,115.05335231666685,46,0.10416750000001684,69,0.10258997708332629
33573,115.15680140000016,43,0.1034490833333166,69,0.10188725833333478
33574,115.25954190000017,43,0.10274050000001012,101,0.4082790833333405
33575,115.36158265000017,34,0.10204075000000046,70,0.10119041041666321
33576,115.46362340000017,31,0.10204075000000046,70,0.10119041041666321
33577,115.56566415000017,34,0.10204075000000046,70,0.1013035916666638
33578,115.66782098333351,29,0.10215683333333914,106,0.1016497520833326
33579,115.77032690000017,34,0.10250591666665798,63,0.10199831041667551
33580,115.87318431666684,41,0.10285741666666581,82,0.10246768125000472
33581,115.97651406666685,34,0.10332975000001454,66,0.10282186458333342
33582,116.08020098333351,32,0.10368691666666052,102,0.10329869375000555
33583,116.18436773333352,34,0.10416675000000453,62,0.10377720833334081
33584,116.28901906666685,46,0.10465133333333654,75,0.21474116666668408
33585,116.39466065000019,34,0.10564158333333751,62,0.10818046666668124
33586,116.50376023333354,31,0.10909958333334657,108,0.10250100624999448
33587,116.60711740416686,34,0.10335717083331986,70,0.1009671562500074
33588,116.70892915416687,43,0.10181175000001019,70,0.09961483333333376
33589,116.80937732083353,43,0.10044816666666634,70,0.09840416666665419
33590,116.90860657083353,46,0.09922924999999339,85,0.0977567437499971
33591,117.00718298750019,55,0.09857641666665984,71,0.09732942291667257
33592,117.10532940416685,55,0.09814641666666546,70,0.09680231250000304
33593,117.20294340416685,58,0.09761399999999298,70,0.096383437500009
33594,117.30013590416685,67,0.09719250000000557,83,0.09596779791667132
33595,117.39691015416685,67,0.09677424999999573,75,0.09638081250000141
33596,117.49410265416684,70,0.09719249999999136,73,0.096799668750009
33597,117.59171665416685,79,0.0976140000000072,73,0.09732674375000272
33598,117.68986307083351,70,0.09814641666666546,82,0.09905482291667056
33599,117.78975682083352,67,0.09989375000000678,72,0.10164868125001192
33600,117.89226757083352,67,0.10251075000000753,72,0.10450539166666317
33601,117.99765948750019,58,0.1053919166666617,71,0.10739925833333075
33602,118.10597115416685,55,0.10831166666666547,81,0.1029411979166639
33603,118.20977740416686,55,0.1038062500000052,69,0.1029411979166639
33604,118.31358365416685,46,0.103806249999991,69,0.10282484791666491
33605,118.41727057083351,43,0.10368691666666052,69,0.10258618125000396
33606,118.52071882083351,43,0.10344824999999958,105,0.41272733333333633
33607,118.62416707083351,34,0.10344824999999958,70,0.10235214375001078
33608,118.72737832083352,31,0.1032112500000153,70,0.10223364374999733
33609,118.83047107083351,34,0.10309274999998763,70,0.10211891875000845
33610,118.93344615416684,29,0.10297508333333383,104,0.10188358541667242
33611,119.03618590416686,34,0.10273975000001201,63,0.10223364374999733
33612,119.13927865416686,41,0.10309275000000184,82,0.41918016666666347
33613,119.24272690416686,34,0.10344824999999958,66,0.10282186458333342
33614,119.34641382083352,27,0.10368691666666052,103,0.10401821874999939
33615,119.45131232083352,34,0.10489850000000445,62,0.1062472187499992
33616,119.55845882083352,39,0.10714649999999892,75,0.22143733333332705
33617,119.66795173750019,34,0.10949291666666738,62,0.11100456666666503
33618,119.77989615416685,29,0.11194441666665966,109,0.1025748812499927
33619,119.88332720000017,34,0.10343104583331808,70,0.1009671562500074
33620,119.98513895000018,41,0.10181175000001019,70,0.09961483333333376
33621,120.08558711666684,41,0.10044816666666634,70,0.19780566666665322
33622,120.18481636666684,46,0.09922924999999339,85,0.0977567437499971
33623,120.2833927833335,53,0.09857641666665984,71,0.09732942291667257
33624,120.38153920000016,53,0.09814641666666546,70,0.09680231250000304
33625,120.47915320000016,58,0.09761399999999298,70,0.096383437500009
33626,120.57634570000016,65,0.09719250000000557,87,0.09596779791667132
33627,120.67311995000016,65,0.09677424999999573,75,0.09638081250000141
33628,120.77031245000015,70,0.09719249999999136,73,0.096799668750009
33629,120.86792645000016,77,0.0976140000000072,73,0.09732674375000272
33630,120.96607286666682,70,0.09814641666666546,82,0.09905482291667056
33631,121.06596661666683,65,0.09989375000000678,72,0.10164868125001192
33632,121.16847736666683,65,0.10251075000000753,72,0.10450539166666317
33633,121.2738692833335,58,0.1053919166666617,71,0.10532047708333891
33634,121.38004886666683,53,0.10617958333332922,81,0.10223364374999733
33635,121.48314161666683,53,0.10309275000000184,69,0.10188358541667242
33636,121.58588136666683,46,0.1027397499999978,69,0.10165267500001107
33637,121.6883872833335,41,0.10250591666667219,69,0.10142257708332636
33638,121.79066020000016,41,0.1022729166666636,101,0.4064390833333391
33639,121.89270095000016,34,0.10204075000000046,70,0.10084754166666698
33640,121.99439595000017,29,0.10169500000000653,70,0.10062123958333302
33641,122.09586178333349,34,0.1014658333333216,70,0.10039575000000411
33642,122.1970992833335,27,0.10123750000001053,100,0.1002791562499965
33643,122.2982230333335,32,0.10112374999999929,63,0.10073295833332452
33644,122.39980345000016,39,0.10158041666666406,82,0.4164819166666689
33645,122.50172895000017,32,0.10192550000000722,66,0.10176447708333569
33646,122.6043525333335,27,0.102623583333326,99,0.10377621874999932
33647,122.7090090333335,32,0.10465650000000437,62,0.10637380624999082
33648,122.81628536666683,36,0.10727633333333131,75,0.22296091666666484
33649,122.9263160333335,32,0.11003066666667394,62,0.11197967916666585
33650,123.0392462833335,27,0.1129302499999909,100,0.10255008958333178
33651,123.14265253750015,32,0.10340625416665716,70,0.1009671562500074
33652,123.24446428750016,39,0.10181175000001019,70,0.09961483333333376
33653,123.34491245416683,39,0.10044816666666634,70,0.09840416666665419
33654,123.44414170416682,44,0.09922924999999339,85,0.0977567437499971
33655,123.54271812083348,51,0.09857641666665984,71,0.09732942291667257
33656,123.64086453750015,51,0.09814641666666546,70,0.09680231250000304
33657,123.73847853750014,56,0.09761399999999298,70,0.096383437500009
33658,123.83567103750015,63,0.09719250000000557,91,0.09596779791667132
33659,123.93244528750014,63,0.09677424999999573,73,0.09638081250000141
33660,124.02963778750014,68,0.09719249999999136,73,0.096799668750009
33661,124.12725178750014,75,0.0976140000000072,73,0.09732674375000272
33662,124.22539820416681,68,0.09814641666666546,82,0.09905482291667056
33663,124.32529195416681,63,0.09989375000000678,72,0.10164868125001192
33664,124.42780270416682,63,0.10251075000000753,72,0.10450539166666317
33665,124.53319462083348,56,0.1053919166666617,71,0.10497857708332958
33666,124.63902353750015,51,0.10582891666666683,81,0.10119041041666321
33667,124.74106428750015,51,0.10204075000000046,69,0.10084754166666698
33668,124.84275928750016,44,0.10169500000000653,69,0.10050665625000477
33669,124.94411053750015,39,0.10135124999999334,69,0.10028200000000709
33670,125.04523428750016,39,0.1011237500000135,104,0.4017891666666742
33671,125.14601845416684,32,0.10078416666667067,73,0.09972287916666289
33672,125.24657745416684,27,0.10055900000000406,73,0.09938966666666715
33673,125.34680045416684,32,0.10022299999999973,73,0.09938687916665856
33674,125.44702345416684,27,0.10022299999999973,103,0.09994241666666426
33675,125.54780762083351,32,0.10078416666667067,68,0.10050462499999924
33676,125.64915970416685,39,0.10135208333333878,82,0.40774924999998063
33677,125.75108520416684,32,0.10192549999999301,66,0.1016497520833326
33678,125.8535911208335,27,0.10250591666665798,100,0.10008554583332341
33679,125.95451278750016,32,0.10092166666666458,62,0.10153409791666945
33680,126.05690895416683,41,0.10239616666666507,75,0.21474116666668408
33681,126.16255053750017,32,0.10564158333333751,62,0.10818046666668124
33682,126.27165012083351,27,0.10909958333334657,107,0.10259368124999924
33683,126.37509996666684,32,0.10344984583332462,73,0.1009671562500074
33684,126.47691171666685,39,0.10181175000001019,73,0.09961483333333376
33685,126.57735988333351,39,0.10044816666666634,73,0.09840416666665419
33686,126.67658913333351,44,0.09922924999999339,85,0.0977567437499971
33687,126.77516555000017,51,0.09857641666665984,71,0.09732942291667257
33688,126.87331196666683,51,0.09814641666666546,70,0.09680231250000304
33689,126.97092596666683,56,0.09761399999999298,70,0.096383437500009
33690,127.06811846666683,63,0.09719250000000557,89,0.09596779791667132
33691,127.16489271666683,63,0.09677424999999573,75,0.09638081250000141
33692,127.26208521666682,68,0.09719249999999136,73,0.096799668750009
33693,127.35969921666683,75,0.0976140000000072,73,0.09732674375000272
33694,127.45784563333349,68,0.09814641666666546,82,0.09905482291667056
33695,127.5577393833335,63,0.09989375000000678,72,0.10164868125001192
33696,127.6602501333335,63,0.10251075000000753,72,0.10450539166666317
33697,127.76564205000017,56,0.1053919166666617,71,0.10739925833333075
33698,127.87395371666683,51,0.10831166666666547,81,0.10153575833332695
33699,127.97634271666684,51,0.10238900000000228,69,0.10119041041667742
33700,128.07838346666682,44,0.10204074999998625,69,0.10084754166666698
33701,128.18007846666683,39,0.10169500000000653,69,0.10050665624999056
33702,128.28142971666682,39,0.10135124999999334,106,0.4021272500000066
33703,128.38243971666682,32,0.10101000000000226,70,0.09983232291665445
33704,128.48311096666683,27,0.10067125000000487,70,0.09949837916667548
33705,128.58344546666683,32,0.10033450000000244,70,0.09927537916667006
33706,128.68355696666683,27,0.10011149999999702,105,0.09972007291665363
33707,128.78411596666683,32,0.10055900000000406,63,0.1002791562499965
33708,128.88523971666683,39,0.10112374999999929,82,0.40968983333334563
33709,128.9868201333335,32,0.10158041666667827,66,0.1013035916666638
33710,129.08897696666685,27,0.10215683333333914,104,0.10176666875000251
33711,129.19159980000018,32,0.10262283333332789,62,0.10246768125000472
33712,129.29492955000018,41,0.10332975000000033,75,0.21257858333331114
33713,129.4005711333335,32,0.1056415833333233,62,0.10607194791666075
33714,129.5075081333335,15,0.10693699999998785,101,0.1029411979166639
33715,129.61131438333348,34,0.103806249999991,69,0.10258618124998975
33716,129.7147626333335,43,0.10344825000001379,69,0.10235214374998236
33717,129.81797388333348,34,0.10321124999998688,70,0.10211891875002266
33718,129.92094896666683,10,0.10297508333334804,96,0.1018835854166582
33719,130.02368871666684,34,0.10273975000001201,72,0.1018835854166582
33720,130.12642846666682,43,0.10273974999998359,73,0.10188358541668663
33721,130.22916821666684,34,0.10273975000001201,73,0.1021159770833151
33722,130.33214330000015,15,0.10297508333331962,104,0.10293902708332325
33723,130.43595038333348,34,0.10380708333332223,72,0.103656291666681
33724,130.54048080000015,43,0.10453041666667673,73,0.10450646875000302
33725,130.64586755000016,34,0.10538675000000808,73,0.10537114166666584
33726,130.75212521666683,10,0.10625766666666436,97,0.1071410562500148
33727,130.86016880000017,34,0.10804358333334108,72,0.10778757500000324
33728,130.96886546666684,43,0.10869666666667399,73,0.10857425000003218
33729,131.07835546666686,34,0.10949000000002229,73,0.10766103541664052
33730,131.1869223000002,15,0.1085668333333274,107,0.10766238958333929
33731,131.29548721666686,34,0.10856491666666557,79,0.10714430208332715
33732,131.4035308000002,43,0.10804358333334108,79,0.10663094166667975
33733,131.5110578000002,34,0.10752700000000459,79,0.10612598750000757
33734,131.61807346666686,10,0.10701566666665485,104,0.10562264166668456
33735,131.72458263333354,34,0.10650916666668309,80,0.10549647499999537
33736,131.83096563333353,43,0.1063829999999939,80,0.10549647500002379
33737,131.93734863333356,34,0.10638300000002232,80,0.10537114166666584
33738,132.04360630000022,15,0.10625766666666436,113,0.10624769166668102
33739,132.15075005000023,34,0.10714375000000587,77,0.10739845208331644
33740,132.25905430000023,43,0.10830425000000332,77,0.10857425000000376
33741,132.36854430000022,34,0.10948999999999387,77,0.10937925000001769
33742,132.47883930000023,10,0.1102950000000078,108,0.11072923333333051
33743,132.59050838333357,34,0.11166908333333936,74,0.11383766666668294
33744,132.70531130000026,43,0.11480291666669018,74,0.11743281666664984
33745,132.8237401333336,34,0.11842883333332566,74,0.12109644374999107
33746,132.9458653833336,15,0.12212525000001051,111,0.5
33747,133.9458653833336,55,1.0,111,2.4000000000000057
33748,0.002659575,26,0.0,38,1.165761466666667
33749,0.312749125,29,0.31008955,32,0.29174729166666674
33750,0.6044964166666668,33,0.29174729166666674,36,0.5639246250000002
33751,0.8897700416666668,38,0.2852736250000001,41,0.2786510000000001
33752,1.168421041666667,41,0.2786510000000001,46,1.1669446249999997
33753,1.7353656666666668,50,0.5669446249999999,33,0.5999999999999999
33754,2.3353656666666667,40,0.5999999999999999,45,1.165465291666667
33755,2.896113166666667,50,0.5607475000000002,32,0.6047177916666668
33756,3.1850414583333335,41,0.28892829166666667,35,0.3105263416666668
33757,3.5008309583333337,38,0.31578950000000017,44,1.720195
33758,4.083355458333334,50,0.5825245000000003,33,0.5769229999999999
33759,4.660278458333334,50,0.5769229999999999,35,1.1489829999999994
33760,5.221025958333334,33,0.5607474999999997,40,0.5882354999999997
33761,5.809261458333333,29,0.5882354999999997,35,1.2000000000000002
33762,6.409261458333333,50,0.5999999999999996,32,0.6000000000000005
33763,7.0092614583333335,26,0.6000000000000005,38,1.156173
33764,7.320687541666667,33,0.3114260833333331,32,0.2852649999999999
33765,7.6059525416666665,38,0.2852649999999999,36,0.5594819166666669
33766,7.887648791666667,41,0.2816962500000004,41,0.2777856666666665
33767,8.165434458333333,45,0.2777856666666665,46,1.1660374999999998
33768,8.731471958333334,53,0.5660375000000002,35,0.5999999999999996
33769,9.331471958333333,43,0.5999999999999996,46,1.1673652499999996
33770,9.892219458333333,53,0.5607474999999997,35,0.6066177499999998
33771,10.186337208333333,45,0.29411774999999984,41,0.3072916666666661
33772,10.498837208333333,41,0.3125,44,1.7047314999999994
33773,11.087072708333332,53,0.5882354999999997,35,0.5660375000000002
33774,11.653110208333333,53,0.5660375000000002,35,1.1218869999999992
33775,12.203568708333332,38,0.5504584999999995,44,0.5714284999999997
33776,12.774997208333332,33,0.5714284999999997,39,1.2494231666666664
33777,13.387242208333332,29,0.6122449999999997,38,0.6371781666666667
33778,14.024420374999998,22,0.6371781666666667,45,1.1931962916666663
33779,14.336942958333331,29,0.31252258333333316,39,0.299009916666666
33780,14.635952874999997,38,0.299009916666666,42,0.5816637916666672
33781,14.929604125,41,0.2936512500000017,45,0.28801254166666546
33782,15.217616666666665,46,0.28801254166666546,49,1.1432719999999996
33783,15.778364166666664,53,0.5607474999999997,38,0.5825244999999999
33784,16.360888666666664,45,0.5825244999999999,48,1.171428500000001
33785,16.932317166666664,53,0.5714284999999997,38,0.6000000000000014
33786,17.532317166666665,45,0.6000000000000014,49,1.170982500000001
33787,18.109240166666666,53,0.5769230000000007,32,0.5940595000000002
33788,18.703299666666666,44,0.5940595000000002,48,1.1769230000000022
33789,19.280222666666667,52,0.5769230000000007,31,0.6000000000000014
33790,19.88022266666667,43,0.6000000000000014,49,1.111111000000001
33791,20.43577816666667,41,0.5555555000000005,44,0.5555555000000005
33792,20.99133366666667,40,0.5555555000000005,49,1.7054740000000024
33793,21.45403908333334,43,0.46270541666666887,28,0.08849558333333363
33794,21.542534666666672,41,0.08849558333333363,41,0.5882354999999997
33795,22.13077016666667,40,0.5882354999999997,49,0.5660375000000002
33796,22.696807666666672,57,0.5660375000000002,54,0.5660375000000002
33797,23.262845166666672,55,0.5660375000000002,49,0.5714284999999997
33798,23.548559416666674,53,0.2857142500000016,45,0.19047616666666656
33799,23.762845104166672,53,0.21428568749999855,42,0.07142856249999952
33800,23.83427366666667,52,0.07142856249999952,50,0.5714284999999997
33801,24.119987916666673,50,0.2857142500000016,44,0.28571424999999806
33802,24.40570216666667,31,0.28571424999999806,48,0.5825245000000017
33803,24.988226666666673,50,0.5825245000000017,48,0.5825244999999981
33804,25.57075116666667,53,0.5825244999999981,53,1.1650489999999998
33805,26.153275666666673,52,0.5825245000000017,48,0.5825244999999981
33806,26.73580016666667,29,0.5825244999999981,41,0.6041634999999985
33807,27.33996366666667,28,0.6041634999999985,35,0.636202083333334
33808,27.976165750000003,26,0.636202083333334,38,1.1730575000000023
33809,28.29197858333334,29,0.3158128333333359,32,0.2941365833333336
33810,28.586115166666673,33,0.2941365833333336,36,0.5631080833333328
33811,28.871846666666674,38,0.2857315000000007,41,0.27737658333333215
33812,29.149223250000006,41,0.27737658333333215,46,1.1769230000000022
33813,29.726146250000006,50,0.5769230000000007,33,0.6000000000000014
33814,30.326146250000008,40,0.6000000000000014,45,1.1868345000000033
33815,30.88689375000001,50,0.5607475000000015,32,0.6260870000000018
33816,31.18689375000001,41,0.3000000000000007,33,0.3206522166666659
33817,31.51298075000001,38,0.3260870000000011,44,1.7324784999999991
33818,32.11298075000001,50,0.6000000000000014,33,0.5769230000000007
33819,32.68990375000001,50,0.5769230000000007,35,1.138079999999995
33820,33.24545925000001,33,0.555555499999997,41,0.5825244999999981
33821,33.82798375000001,29,0.5825244999999981,35,1.2000000000000028
33822,34.42798375000001,50,0.6000000000000014,32,0.6000000000000014
33823,35.02798375000001,22,0.6000000000000014,51,1.1990154166666755
33824,35.33940983333335,29,0.31142608333333754,46,0.3030509166666704
33825,35.64246075000002,34,0.3030509166666704,48,0.5845384166666676
33826,35.93851983333335,38,0.29605908333333275,49,0.28847933333333486
33827,36.22699916666669,41,0.28847933333333486,50,1.1548069999999981
33828,36.787746666666685,50,0.560747499999998,41,0.5940595000000002
33829,37.381806166666685,43,0.5940595000000002,56,1.170982500000001
33830,37.958729166666686,44,0.5769230000000007,52,0.5940595000000002
33831,38.552788666666686,43,0.5940595000000002,56,1.1324784999999977
33832,39.10834416666668,51,0.555555499999997,49,0.5769230000000007
33833,39.685267166666684,51,0.5769230000000007,49,1.1273814999999985
33834,40.262190166666684,39,0.5769230000000007,54,0.5504584999999977
33835,40.81264866666668,34,0.5504584999999977,50,1.2086066666666682
33836,41.384077166666685,27,0.5714285000000032,48,0.6371781666666649
33837,42.02125533333335,15,0.6371781666666649,57,1.2128228333333269
33838,42.33377791666668,22,0.31252258333333316,50,0.3061436666666637
33839,42.63992158333335,31,0.3061436666666637,53,0.59415658333333
33840,42.93994158333334,34,0.3000199999999964,56,0.2941365833333336
33841,43.23407816666668,43,0.2941365833333336,58,1.1662098249999957
33842,43.816602666666675,51,0.5825244999999981,45,0.5836853249999976
33843,44.40028799166667,15,0.5836853249999976,59,1.216648174999996
33844,44.716635916666675,22,0.3163479250000023,47,0.3061436666666637
33845,45.02277958333334,31,0.3061436666666637,51,0.59415658333333
33846,45.322799583333335,34,0.3000199999999964,55,0.2941365833333336
33847,45.61693616666667,43,0.2941365833333336,59,2.3083209999999923
33848,46.19946066666667,51,0.5825244999999981,44,0.5825244999999981
33849,46.781985166666665,51,0.5825244999999981,40,1.143271999999996
33850,47.34273266666666,51,0.560747499999998,40,0.5825244999999981
33851,47.92525716666666,50,0.5825244999999981,38,1.1825245000000066
33852,48.507781666666666,50,0.5825245000000052,32,0.6000000000000014
33853,49.10778166666667,31,0.6000000000000014,48,1.7651585000000054
33854,49.68470466666667,49,0.5769230000000007,35,0.5882355000000032
33855,50.27294016666667,49,0.5882355000000032,36,1.1769230000000022
33856,50.87294016666667,33,0.6000000000000014,38,0.5769230000000007
33857,51.449863166666674,31,0.5769230000000007,48,1.156700249999993
33858,51.73557741666667,29,0.28571424999999806,40,0.2884614999999968
33859,52.02403891666667,28,0.2884614999999968,41,0.5825244999999981
33860,52.31530116666667,26,0.2912622500000026,36,0.2912622499999955
33861,52.60656341666667,31,0.2912622499999955,48,1.7483515000000054
33862,53.17799191666667,50,0.5714285000000032,35,0.5769230000000007
33863,53.75491491666667,49,0.5769230000000007,36,1.1769230000000022
33864,54.35491491666667,33,0.6000000000000014,38,0.5769230000000007
33865,54.93183791666667,31,0.5769230000000007,48,1.129870000000004
33866,55.21755216666667,29,0.28571424999999806,40,0.28571425000000517
33867,55.503266416666676,28,0.28571425000000517,41,0.5584415000000007
33868,55.788980666666674,26,0.28571424999999806,36,0.27272725000000264
33869,56.06170791666668,24,0.27272725000000264,45,1.2004953187499936
33870,56.34666459166667,22,0.28495667499999655,40,0.28830124374999855
33871,56.63496583541667,17,0.28830124374999855,41,0.6272373999999985
33872,56.93613796041667,19,0.3011721250000008,36,0.3260652749999977
33873,57.26220323541667,21,0.3260652749999977,48,2.3762380000000007
33874,57.85626273541667,50,0.5940595000000002,31,0.5940595000000002
33875,58.45032223541667,49,0.5940595000000002,36,1.1881190000000004
33876,59.04438173541667,49,0.5940595000000002,32,0.5940595000000002
33877,59.63844123541667,49,0.5940595000000002,36,2.3762380000000007
33878,60.23250073541667,49,0.5940595000000002,31,0.5940595000000002
33879,60.82656023541667,50,0.5940595000000002,36,1.1881190000000004
33880,61.42061973541667,50,0.5940595000000002,32,0.5940595000000002
33881,62.01467923541667,50,0.5940595000000002,36,1.1769230000000022
33882,62.59160223541667,50,0.5769230000000007,32,0.6000000000000014
33883,63.191602235416674,31,0.6000000000000014,48,1.759447499999986
33884,63.77412673541667,50,0.5825244999999981,35,0.5769229999999936
33885,64.35104973541667,49,0.5769229999999936,36,1.176922999999988
33886,64.95104973541666,33,0.5999999999999943,38,0.5769229999999936
33887,65.52797273541665,31,0.5769229999999936,47,1.15670025
33888,65.81368698541665,29,0.28571424999999806,40,0.2884614999999968
33889,66.10214848541665,28,0.2884614999999968,41,0.5825245000000052
33890,66.39341073541665,26,0.2912622500000026,36,0.2912622500000026
33891,66.68467298541665,31,0.2912622500000026,48,1.7538459999999958
33892,67.26159598541665,50,0.5769229999999936,35,0.5769230000000078
33893,67.83851898541666,49,0.5769230000000078,36,1.176922999999988
33894,68.43851898541665,33,0.5999999999999943,38,0.5769229999999936
33895,69.01544198541664,31,0.5769229999999936,48,1.1298699999999968
33896,69.30115623541664,29,0.28571424999999806,40,0.28571424999999806
33897,69.58687048541664,28,0.28571424999999806,41,0.5584415000000007
33898,69.87258473541664,26,0.28571424999999806,36,0.27272725000000264
33899,70.14531198541664,24,0.27272725000000264,45,1.2004953187499865
33900,70.43026866041664,22,0.28495667500000366,40,0.28830124374999855
33901,70.71856990416664,17,0.28830124374999855,41,0.6272373999999843
33902,71.01974202916662,19,0.3011721249999795,36,0.3260652750000048
33903,71.34580730416663,21,0.3260652750000048,48,2.404708999999997
33904,71.91723580416662,50,0.5714284999999961,31,0.5940595000000002
33905,72.51129530416662,49,0.5940595000000002,32,1.2392210000000006
33906,73.10535480416662,49,0.5940595000000002,28,0.6451615000000004
33907,73.75051630416662,14,0.6451615000000004,31,3.9343833333333293
33908,74.33304080416663,50,0.5825245000000052,26,0.5940595000000002
33909,74.92710030416663,50,0.5940595000000002,30,1.1654879999999963
33910,75.49852880416663,50,0.5714284999999961,27,0.5940595000000002
33911,76.09258830416663,48,0.5940595000000002,30,1.270874500000005
33912,76.69367030416663,48,0.6010820000000052,27,0.6697924999999998
33913,77.36346280416663,45,0.6697924999999998,29,1.249600833333318
33914,77.68489963749995,29,0.3214368333333226,27,0.3158128333333394
33915,78.00071247083329,33,0.3158128333333394,31,0.6123511666666559
33916,78.31001272083329,38,0.3093002499999926,35,0.3030509166666633
33917,78.61306363749995,41,0.3030509166666633,40,1.1882354999999905
33918,79.20129913749994,45,0.5882354999999961,28,0.5999999999999943
33919,79.80129913749994,40,0.5999999999999943,38,0.8825245000000024
33920,80.38382363749994,45,0.5825245000000052,28,0.5999999999999943
33921,80.68382363749994,41,0.29999999999999716,33,0.2950000000000017
33922,80.98382363749994,38,0.29999999999999716,36,1.7650490000000048
33923,81.58382363749995,45,0.6000000000000085,27,0.5825245000000052
33924,82.16634813749995,45,0.5825245000000052,27,1.2337074999999942
33925,82.74887263749994,33,0.582524499999991,28,0.6511830000000032
33926,83.40005563749995,29,0.6511830000000032,25,1.3529223645833355
33927,84.05383179999995,45,0.6537761625000087,22,0.6991462020833268
33928,84.75297800208328,26,0.6991462020833268,21,6.789349999999999
33929,85.45276800208329,45,0.6997900000000072,19,0.699789999999993
33930,87.54076950208328,45,2.08800149999999,19,1.7141014999999982
33931,88.33547150208328,45,0.7947020000000009,17,0.9193994999999973
33932,89.25487100208328,45,0.9193994999999973,19,2.2874570000000034
33933,90.39859950208327,45,1.1437284999999946,17,1.1437285000000088
33934,1.1832923416666667,43,0.0,52,0.6447449999999999
33935,1.8280373416666666,52,0.6447449999999999,58,0.6447450000000003
33936,2.311596091666667,53,0.48355875000000026,43,0.1611862500000001
33937,2.472782341666667,50,0.1611862500000001,38,0.6578949999999999
33938,3.130677341666667,43,0.6578949999999999,27,0.67659
33939,3.807267341666667,43,0.67659,24,1.3800805833333332
33940,5.216711341666667,53,1.4094439999999997,45,0.6447450000000003
33941,5.861456341666667,54,0.6447450000000003,52,0.6447449999999995
33942,6.345015091666666,55,0.48355874999999937,51,0.1611862500000001
33943,6.506201341666666,60,0.1611862500000001,44,0.6612299999999998
33944,7.167431341666666,60,0.6612299999999998,31,0.710985
33945,7.878416341666666,60,0.710985,31,1.392345624999999
33946,9.300386341666666,52,1.42197,48,0.7164180000000009
33947,10.016804341666667,49,0.7164180000000009,48,0.6612299999999998
33948,10.512726841666668,50,0.4959225000000007,38,2.9397104999999986
33949,10.678034341666667,53,0.16530749999999905,42,0.6612299999999998
33950,11.339264341666667,53,0.6612299999999998,32,0.7043909999999993
33951,12.043655341666666,53,0.7043909999999993,27,1.3794323750000004
33952,13.452437341666666,47,1.4087820000000004,37,0.7326899999999998
33953,14.185127341666666,47,0.7326899999999998,39,0.7862670000000005
33954,14.774827591666666,48,0.5897002499999999,37,0.19656675000000057
33955,14.971394341666667,52,0.19656675000000057,33,0.7432180000000006
33956,15.714612341666667,43,0.7432180000000006,27,0.7880219999999998
33957,16.502634341666667,52,0.7880219999999998,18,1.543209749999999
33958,18.078678341666667,43,1.5760439999999996,60,1.2894900000000007
33959,18.723423341666667,52,0.6447450000000003,57,0.6447450000000003
33960,19.206982091666667,53,0.48355875000000026,57,0.1611862500000001
33961,19.368168341666667,50,0.1611862500000001,49,0.6512540000000016
33962,20.01942234166667,50,0.6512540000000016,37,0.6765900000000009
33963,20.69601234166667,50,0.6765900000000009,32,1.5587687083333321
33964,22.287946341666668,57,1.5919339999999984,57,0.6447450000000003
33965,22.93269134166667,54,0.6447450000000003,64,0.6578949999999999
33966,23.42611259166667,55,0.4934212500000008,57,1.785268958333333
33967,23.59058634166667,64,0.16447374999999909,64,0.7060212083333326
33968,24.29660755,64,0.7060212083333326,68,0.9147740000000013
33969,25.211381550000002,64,0.9147740000000013,52,2.1042272083333344
33970,27.36037955,52,2.148997999999999,45,0.664598999999999
33971,28.02497855,52,0.664598999999999,48,0.6645990000000026
33972,28.5234278,53,0.4984492500000002,40,0.16614975000000243
33973,28.689577550000003,41,0.16614975000000243,42,0.6750679999999996
33974,29.364645550000002,57,0.6750679999999996,33,0.6969449999999995
33975,30.061590550000002,57,0.6969449999999995,28,1.485274416666666
33976,31.580444550000003,47,1.518854000000001,39,0.8059099999999972
33977,32.38635455,50,0.8059099999999972,43,1.3813110000000037
33978,33.02266655,48,0.6363119999999967,37,0.17675333333333754
33979,33.23477055,48,0.21210400000000362,43,3.793656999999996
33980,33.50944555,43,0.274675000000002,34,0.7746599999999972
33981,34.28410555,60,0.7746599999999972,32,0.9147740000000013
33982,35.19887955,60,0.9147740000000013,31,1.8295479999999955
33983,0.0045248833333333335,57,0.0,55,1.6275581166666668
33984,1.6289580000000001,56,1.6244331166666668,48,0.1875
33985,1.8164580000000001,57,0.1875,53,0.18396772916666682
33986,2.000425729166667,59,0.18396772916666682,57,0.16657169583333342
33987,2.1669974250000004,57,0.16657169583333342,55,0.1639879604166672
33988,2.3309853854166676,55,0.1639879604166672,52,0.16154856458333322
33989,2.4925339500000008,54,0.16154856458333322,49,0.18653200000000014
33990,2.679065950000001,52,0.18653200000000014,47,0.18072299999999997
33991,2.859788950000001,45,0.18072299999999997,40,0.18072299999999997
33992,2.9501504500000006,49,0.09036149999999976,36,0.0903615000000002
33993,3.040511950000001,47,0.0903615000000002,46,0.17523491666666713
33994,3.215746866666668,45,0.17523491666666713,42,0.1799217916666671
33995,3.395668658333335,45,0.1799217916666671,41,0.1605995
33996,3.556268158333335,54,0.1605995,41,0.1605995
33997,3.716867658333335,52,0.1605995,47,0.17291049999999997
33998,3.889778158333335,45,0.17291049999999997,44,0.17291049999999997
33999,3.976233408333335,49,0.08645524999999976,33,0.0864552500000002
34000,4.062688658333335,47,0.0864552500000002,45,0.1652319583333357
34001,4.227920616666671,45,0.1652319583333357,43,0.17209345833333245
34002,4.400014075000003,45,0.17209345833333245,43,0.16216200000000036
34003,4.5621760750000036,54,0.16216200000000036,43,0.16216199999999947
34004,4.724338075000003,52,0.16216199999999947,48,0.1599396208333328
34005,4.884277695833336,45,0.1599396208333328,52,0.15844373333333284
34006,5.042721429166669,50,0.15844373333333284,59,0.15711588541666632
34007,5.199837314583335,45,0.15711588541666632,56,0.15569151041666718
34008,5.355528825000002,54,0.15569151041666718,60,0.15440931666666646
34009,5.509938141666669,45,0.15440931666666646,56,0.15665837708333274
34010,5.666596518750001,56,0.15665837708333274,53,0.1508841875
34011,5.817480706250001,57,0.1508841875,56,0.15218544374999965
34012,5.969666150000001,59,0.15218544374999965,62,0.15383164583333286
34013,6.123497795833334,57,0.15383164583333286,57,0.15551491458333366
34014,6.2790127104166675,55,0.15551491458333366,55,0.15717107499999905
34015,6.436183785416667,54,0.15717107499999905,53,0.15811380833333377
34016,6.59429759375,52,0.15811380833333377,57,0.16901399999999978
34017,6.76331159375,45,0.16901399999999978,56,0.16901400000000066
34018,6.8478185937500005,49,0.08450700000000033,43,0.08450700000000033
34019,6.932325593750001,47,0.08450700000000033,55,0.16216200000000036
34020,7.094487593750001,45,0.16216200000000036,52,0.16216199999999947
34021,7.256649593750001,45,0.16216199999999947,52,0.1592355000000003
34022,7.415885093750001,54,0.1592355000000003,52,0.15923549999999942
34023,7.57512059375,52,0.15923549999999942,58,0.16129049999999978
34024,7.73641109375,45,0.16129049999999978,55,0.16129049999999978
34025,7.81705634375,49,0.08064524999999989,41,0.08064524999999989
34026,7.89770159375,47,0.08064524999999989,52,0.16129049999999978
34027,8.05899209375,45,0.16129049999999978,51,0.16129049999999978
34028,8.22028259375,45,0.16129049999999978,51,0.15923549999999942
34029,8.379518093749999,54,0.15923549999999942,51,0.1592355000000012
34030,8.53875359375,52,0.1592355000000012,61,0.16129049999999978
34031,8.70004409375,45,0.16129049999999978,56,0.16129049999999978
34032,8.86133459375,50,0.16129049999999978,64,0.16085799999999928
34033,9.022192593749999,45,0.16085799999999928,59,0.16039233333333414
34034,9.182584927083333,54,0.16039233333333414,67,0.15996454166666574
34035,9.342549468749999,45,0.15996454166666574,62,0.15953920833333335
34036,9.502088677083332,57,0.15953920833333335,70,0.15911591666666602
34037,9.661204593749998,45,0.15911591666666602,66,0.1586602500000005
34038,9.819864843749999,58,0.1586602500000005,74,0.15957449999999973
34039,9.979439343749998,46,0.15957449999999973,69,0.15957449999999973
34040,10.139013843749998,59,0.15957449999999973,76,0.16216200000000036
34041,10.301175843749999,47,0.16216200000000036,70,0.16216200000000036
34042,10.463337843749999,62,0.16216200000000036,76,0.15503900000000037
34043,10.61837684375,54,0.15503900000000037,66,0.15503900000000037
34044,10.695896343749999,57,0.0775194999999993,46,0.07751950000000107
34045,10.77341584375,55,0.07751950000000107,70,0.14814800000000083
34046,10.92156384375,54,0.14814800000000083,66,0.14814799999999906
34047,11.06971184375,50,0.14814799999999906,69,0.14814800000000083
34048,11.21785984375,62,0.14814800000000083,57,0.15087024999999876
34049,11.368730093749999,61,0.15087024999999876,64,0.1525107916666677
34050,11.521240885416667,54,0.1525107916666677,65,0.14814800000000083
34051,11.669388885416668,49,0.14814800000000083,65,0.14814799999999906
34052,11.743462885416667,52,0.07407399999999953,47,0.07407399999999953
34053,11.817536885416667,50,0.07407399999999953,65,0.14814800000000083
34054,11.965684885416668,49,0.14814800000000083,63,0.15228450000000038
34055,12.117969385416668,57,0.15228450000000038,57,0.15228450000000038
34056,12.270253885416668,50,0.15228450000000038,60,0.8535573333333311
34057,12.422538385416667,43,0.1522844999999986,58,0.17192000000000007
34058,12.508498385416667,47,0.08596000000000004,48,0.08596000000000004
34059,12.594458385416667,45,0.08596000000000004,63,0.17192000000000007
34060,12.766378385416667,43,0.17192000000000007,54,0.17814749999999968
34061,12.944525885416667,47,0.17814749999999968,57,0.3412723333333325
34062,13.12381121875,52,0.17928533333333263,59,0.16198699999999988
34063,13.28579821875,50,0.16198699999999988,61,1.0584327208333324
34064,13.45136901875,42,0.16557080000000113,51,0.1711353624999994
34065,13.62250438125,45,0.1711353624999994,51,0.17701276666666388
34066,13.799517147916664,42,0.17701276666666388,55,0.1815177916666677
34067,13.981034939583331,45,0.1815177916666677,51,0.18159799999999926
34068,14.16263293958333,47,0.18159799999999926,49,0.18159800000000104
34069,14.344230939583332,52,0.18159800000000104,57,0.17647050000000064
34070,14.520701439583332,45,0.17647050000000064,52,0.17647049999999886
34071,14.60893668958333,47,0.08823524999999854,40,0.04411762500000016
34072,14.653054314583331,49,0.04411762500000016,40,0.04411762500000016
34073,14.697171939583331,47,0.04411762500000016,50,0.17647050000000064
34074,14.873642439583332,45,0.17647050000000064,49,0.17647050000000064
34075,15.050112939583332,45,0.17647050000000064,49,0.17814749999999968
34076,15.228260439583332,54,0.17814749999999968,49,0.17814749999999968
34077,15.406407939583332,52,0.17814749999999968,54,0.17564400000000013
34078,15.582051939583332,45,0.17564400000000013,51,0.17564400000000013
34079,15.669873939583331,47,0.08782199999999918,40,0.043911000000001366
34080,15.713784939583332,49,0.043911000000001366,40,0.04391099999999959
34081,15.757695939583332,47,0.04391099999999959,48,0.17564400000000013
34082,15.933339939583332,45,0.17564400000000013,47,0.17564400000000013
34083,16.108983939583332,45,0.17564400000000013,47,0.1807230000000004
34084,16.289706939583333,54,0.1807230000000004,47,0.18085060416666465
34085,16.470557543749997,52,0.18085060416666465,51,0.18094656250000085
34086,16.651504106249998,45,0.18094656250000085,45,0.17913824583333238
34087,16.83064235208333,50,0.17913824583333238,52,0.1773665770833297
34088,17.00800892916666,45,0.1773665770833297,47,0.17570432500000166
34089,17.183713254166662,54,0.17570432500000166,52,0.17328272083333474
34090,17.356995974999997,45,0.17328272083333474,48,0.1875508916666675
34091,17.544546866666664,56,0.1875508916666675,44,0.1757199000000007
34092,17.720266766666665,57,0.1757199000000007,40,0.17978132291666782
34093,17.900048089583333,59,0.17978132291666782,44,0.18387016249999988
34094,18.083918252083333,57,0.18387016249999988,40,0.18831883541666627
34095,18.2722370875,55,0.18831883541666627,38,0.19354849999999857
34096,18.465785587499997,54,0.19354849999999857,38,0.19354850000000212
34097,18.6593340875,52,0.19354850000000212,46,0.18971750000000043
34098,18.8490515875,45,0.18971750000000043,47,0.09485875000000021
34099,18.9439103375,47,0.09485875000000021,32,0.04742937500000011
34100,18.9913397125,49,0.04742937500000011,32,0.04742937500000011
34101,19.0387690875,47,0.04742937500000011,44,0.18971750000000043
34102,19.2284865875,45,0.18971750000000043,44,0.18971750000000043
34103,19.4182040875,45,0.18971750000000043,44,0.18633549999999843
34104,19.6045395875,54,0.18633549999999843,44,0.18633550000000199
34105,19.7908750875,52,0.18633550000000199,50,0.18987350000000092
34106,19.980748587500003,45,0.18987350000000092,47,0.18987349999999736
34107,20.0756853375,47,0.09493674999999868,31,0.04746837500000112
34108,20.123153712500002,49,0.04746837500000112,31,0.047468374999997565
34109,20.1706220875,47,0.047468374999997565,43,0.18987350000000092
34110,20.3604955875,45,0.18987350000000092,43,0.19206420833333127
34111,20.552559795833332,45,0.19206420833333127,43,0.19770916666666238
34112,20.750268962499995,57,0.19770916666666238,43,0.25
34113,20.937768962499995,42,0.1875,50,1.3574650000000013
34114,21.000268962499995,57,0.0625,53,1.2949650000000013
34115,22.295233962499996,56,1.2949650000000013,58,0.20501183333333373
34116,22.50024579583333,57,0.20501183333333373,60,0.20606825000000129
34117,22.70631404583333,59,0.20606825000000129,63,0.20725450000000123
34118,22.913568545833332,57,0.20725450000000123,60,0.20845479166666436
34119,23.122023337499996,55,0.20845479166666436,58,0.191082999999999
34120,23.313106337499995,54,0.191082999999999,54,0.19108300000000256
34121,23.504189337499998,54,0.19108300000000256,51,0.6271769999999997
34122,24.131366337499998,53,0.6271769999999997,45,0.5621089999999995
34123,24.315641337499997,54,0.18427499999999952,50,0.188917
34124,24.504558337499997,55,0.188917,50,0.188917
34125,24.693475337499997,54,0.188917,44,0.5835125000000012
34126,24.877750337499997,52,0.18427499999999952,51,0.18796999999999997
34127,25.065720337499997,50,0.18796999999999997,49,0.21126750000000172
34128,25.2769878375,54,0.21126750000000172,46,0.6406700000000001
34129,25.486046837499998,52,0.20905899999999988,52,0.20905899999999988
34130,25.695105837499998,50,0.20905899999999988,49,0.2225520000000003
34131,25.9176578375,50,0.2225520000000003,46,1.246535999999999
34132,27.164193837499997,45,1.246535999999999,38,1.4453594999999986
34133,27.791370837499997,21,0.6271769999999997,26,0.8181824999999989
34134,28.609553337499996,42,0.8181824999999989,38,1.6363650000000014
34135,0.0,49,0.0,55,1.887204
34136,0.346821,32,0.346821,20,0.3314915000000001
34137,0.6783125000000001,35,0.3314915000000001,25,0.29411750000000003
34138,0.9724300000000001,33,0.29411750000000003,21,0.29411750000000003
34139,1.2665475000000002,37,0.29411750000000003,28,0.30150750000000004
34140,1.5680550000000002,28,0.30150750000000004,25,0.3191489999999999
34141,1.887204,49,0.3191489999999999,55,1.8256849999999996
34142,2.2223995000000003,32,0.3351955000000002,22,0.29702949999999984
34143,2.519429,35,0.29702949999999984,29,0.28708149999999977
34144,2.8065105,33,0.28708149999999977,23,0.29411750000000003
34145,3.100628,37,0.29411750000000003,31,0.3045684999999998
34146,3.4051964999999997,28,0.3045684999999998,27,0.3076924999999999
34147,3.7128889999999997,49,0.3076924999999999,55,1.832383
34148,4.0303495,32,0.31746050000000015,25,0.3076924999999999
34149,4.338042,35,0.3076924999999999,28,0.2912619999999997
34150,4.629303999999999,33,0.2912619999999997,25,0.2999999999999998
34151,4.929303999999999,37,0.2999999999999998,32,0.29850750000000037
34152,5.2278115,28,0.29850750000000037,28,0.31746050000000015
34153,5.545272,50,0.31746050000000015,55,1.8824492500000014
34154,5.8731409999999995,34,0.32786899999999974,29,0.30927850000000046
34155,6.1824195,37,0.30927850000000046,32,0.2999999999999998
34156,6.4824195,35,0.2999999999999998,28,0.30927850000000046
34157,6.791698,47,0.30927850000000046,49,0.6360232500000009
34158,7.103396750000001,28,0.3116987500000006,27,0.32432450000000035
34159,7.427721250000001,49,0.32432450000000035,51,1.858682
34160,7.748576750000002,32,0.3208555000000004,25,0.30927849999999957
34161,8.057855250000001,35,0.30927849999999957,28,0.3000000000000007
34162,8.357855250000002,33,0.3000000000000007,26,0.29999999999999893
34163,8.65785525,37,0.29999999999999893,28,0.3076924999999999
34164,8.96554775,28,0.3076924999999999,27,0.3208555000000004
34165,9.286403250000001,49,0.3208555000000004,57,1.848347500000001
34166,9.619736750000001,32,0.33333350000000017,33,0.30612250000000074
34167,9.925859250000002,35,0.30612250000000074,38,0.2941175000000005
34168,10.219976750000002,33,0.2941175000000005,33,0.2941175000000005
34169,10.514094250000003,49,0.2941175000000005,59,0.6206564999999991
34170,10.815601750000003,28,0.3015074999999996,33,0.31914899999999946
34171,11.134750750000002,49,0.31914899999999946,66,1.7891724999999976
34172,11.419110750000002,32,0.2843599999999995,33,0.28846150000000037
34173,11.476803050000001,50,0.057692299999999364,49,0.34899580000000086
34174,11.707572250000002,35,0.230769200000001,37,0.2955664999999996
34175,11.825798850000002,49,0.11822659999999985,49,0.34958879999999937
34176,12.003138750000002,33,0.17733989999999977,30,0.2870814999999993
34177,12.175387650000001,47,0.1722488999999996,49,0.3536386
34178,12.29022025,37,0.11483259999999973,38,0.2985074999999995
34179,12.529026250000001,49,0.2388060000000003,47,0.3948969999999985
34180,12.58872775,28,0.059701499999999186,33,0.3351954999999993
34181,12.92392325,52,0.3351954999999993,66,1.229376499999999
34182,13.25179225,34,0.32786899999999974,28,0.3015074999999996
34183,13.553299749999999,50,0.3015074999999996,49,0.5999999999999996
34184,13.85329975,35,0.3000000000000007,28,0.29999999999999893
34185,14.153299749999999,38,0.29999999999999893,32,0.3000000000000007
34186,14.45329975,47,0.3000000000000007,50,0.32432449999999946
34187,14.777624249999999,49,0.32432449999999946,55,1.8483474999999991
34188,15.110957749999999,32,0.33333350000000017,26,0.30612250000000074
34189,15.41708025,35,0.30612250000000074,31,0.2941175000000005
34190,15.71119775,33,0.2941175000000005,30,0.2941174999999987
34191,16.00531525,37,0.2941174999999987,35,0.3015074999999996
34192,16.30682275,28,0.3015074999999996,33,0.31914899999999946
34193,16.625971749999998,52,0.31914899999999946,66,1.8159455000000015
34194,16.94855225,32,0.3225805000000008,30,0.3000000000000007
34195,17.24855225,35,0.3000000000000007,43,0.2941174999999987
34196,17.542669749999998,33,0.2941174999999987,37,0.28846150000000037
34197,17.83113125,37,0.28846150000000037,46,0.3015074999999996
34198,18.132638749999998,28,0.3015074999999996,41,0.30927850000000134
34199,18.44191725,57,0.30927850000000134,72,1.7944964999999975
34200,18.75605325,36,0.3141360000000013,39,0.2985074999999995
34201,19.05456075,39,0.2985074999999995,46,0.2898549999999993
34202,19.34441575,37,0.2898549999999993,38,0.2898549999999993
34203,19.63427075,42,0.2898549999999993,43,0.2912619999999997
34204,19.92553275,33,0.2912619999999997,34,0.3108809999999984
34205,20.236413749999997,56,0.3108809999999984,60,1.8920540416666682
34206,20.54729475,34,0.31088100000000196,28,0.2970295000000007
34207,20.84432425,37,0.2970295000000007,33,0.2898549999999993
34208,21.13417925,35,0.2898549999999993,28,0.2898549999999993
34209,21.42403425,40,0.2898549999999993,31,0.3015074999999996
34210,21.725541749999998,32,0.3015074999999996,27,0.27625737500000014
34211,21.913041749999998,45,0.1875,36,2.058309041666668
34212,21.972213333333332,47,0.05917158333333461,42,0.15625445833333274
34213,22.031384916666664,56,0.05917158333333106,44,0.09708287500000168
34214,22.128467791666665,54,0.09708287500000168,56,1.8428830000000005
34215,22.456336791666665,34,0.32786899999999974,26,0.30612250000000074
34216,22.762459291666666,37,0.30612250000000074,29,0.2941174999999987
34217,23.056576791666664,35,0.2941174999999987,26,0.29411750000000225
34218,23.350694291666667,39,0.29411750000000225,29,0.3015074999999996
34219,23.652201791666666,30,0.3015074999999996,25,0.31914899999999946
34220,23.971350791666666,52,0.31914899999999946,45,1.8483474999999991
34221,24.304684291666664,34,0.3333334999999984,26,0.30612250000000074
34222,24.610806791666665,37,0.30612250000000074,29,0.2941174999999987
34223,24.904924291666664,35,0.2941174999999987,26,0.29411750000000225
34224,25.199041791666666,40,0.29411750000000225,29,0.3015074999999996
34225,25.500549291666665,32,0.3015074999999996,25,0.31914899999999946
34226,25.819698291666665,35,0.31914899999999946,33,0.30927850000000134
34227,26.128976791666666,33,0.30927850000000134,26,0.3000000000000007
34228,26.428976791666667,38,0.3000000000000007,30,0.2980172500000009
34229,26.726994041666668,30,0.2980172500000009,27,0.3015126666666639
34230,27.02850670833333,33,0.3015126666666639,31,0.30508916666666863
34231,27.333595875,32,0.30508916666666863,27,0.30928400000000167
34232,27.642879875000002,37,0.30928400000000167,30,0.3125
34233,27.955379875000002,28,0.3125,28,0.32432449999999946
34234,28.279704375,37,0.32432449999999946,31,0.31746049999999926
34235,28.597164875,26,0.31746049999999926,28,0.3409089999999999
34236,28.938073875,37,0.3409089999999999,33,0.3314914999999985
34237,29.269565375,35,0.3314914999999985,28,0.2307692500000016
34238,29.500334625,37,0.2307692500000016,27,0.1353047916666661
34239,29.607861625,49,0.10752700000000104,49,1.8483474999999991
34240,29.941195125,32,0.3333334999999984,21,0.30612250000000074
34241,30.247317625,35,0.30612250000000074,27,0.2941174999999987
34242,30.541435125,33,0.2941174999999987,26,0.29411750000000225
34243,30.835552625000002,37,0.29411750000000225,29,0.3015074999999996
34244,31.137060125,28,0.3015074999999996,25,0.31914899999999946
34245,31.456209125,49,0.31914899999999946,55,1.799562333333327
34246,31.775358125,32,0.31914899999999946,23,0.29702949999999717
34247,32.072387625,35,0.29702949999999717,27,0.2941174999999987
34248,32.366505124999996,33,0.2941174999999987,26,0.28571449999999743
34249,32.652219624999994,37,0.28571449999999743,31,0.2958593333333326
34250,32.948078958333326,28,0.2958593333333326,28,0.3076925000000017
34251,33.25577145833333,49,0.3076925000000017,55,3.708350750000008
34252,33.57323195833333,32,0.3174605000000028,25,0.3076925000000017
34253,33.88092445833333,35,0.3076925000000017,28,0.2970295000000007
34254,34.17795395833333,33,0.2970295000000007,25,0.2970295000000007
34255,34.474983458333334,37,0.2970295000000007,33,0.2985074999999995
34256,34.77349095833333,28,0.2985074999999995,29,0.3174605000000028
34257,35.090951458333336,50,0.3174605000000028,55,1.8731707499999999
34258,35.418820458333336,34,0.32786899999999974,25,0.3092784999999978
34259,35.728098958333334,37,0.3092784999999978,28,0.29999999999999716
34260,36.02809895833333,35,0.29999999999999716,25,0.30000000000000426
34261,36.328098958333335,38,0.30000000000000426,28,0.3116987499999979
34262,36.63979770833333,28,0.3116987499999979,25,0.324324500000003
34263,36.801959958333335,47,0.1621622500000015,46,0.1621622500000015
34264,36.964122208333336,49,0.1621622500000015,51,1.8586820000000017
34265,37.28497770833334,32,0.3208555000000004,25,0.3092784999999978
34266,37.594256208333334,35,0.3092784999999978,28,0.29999999999999716
34267,37.89425620833333,33,0.29999999999999716,26,0.30000000000000426
34268,38.194256208333336,37,0.30000000000000426,28,0.3076925000000017
34269,38.50194870833334,28,0.3076925000000017,26,0.3208555000000004
34270,38.82280420833334,49,0.3208555000000004,55,0.8355343333333352
34271,39.15613770833334,32,0.33333350000000195,32,0.30612250000000074
34272,39.46226020833334,35,0.30612250000000074,36,0.30304249999999655
34273,39.65833854166667,49,0.19607833333333247,48,0.2035083166666638
34274,39.76530270833334,33,0.10696416666666408,30,0.3166778333333298
34275,39.87254204166667,49,0.10723933333333235,49,0.1990757999999957
34276,40.08198054166667,49,0.20943849999999742,51,0.2985074999999995
34277,40.28098554166667,49,0.19900499999999965,52,0.19524719999999718
34278,40.380488041666666,28,0.09950249999999983,31,0.319149000000003
34279,40.48687104166667,49,0.106383000000001,56,0.20212769999999836
34280,40.69963704166667,49,0.212766000000002,66,1.7942114999999959
34281,40.99814454166667,32,0.2985074999999995,32,0.2884614999999968
34282,41.286606041666666,50,0.2884614999999968,57,0.2955664999999996
34283,41.582172541666665,49,0.2955664999999996,58,0.2870814999999993
34284,41.869254041666665,47,0.2870814999999993,60,0.2985074999999995
34285,42.167761541666664,49,0.2985074999999995,60,0.3260870000000011
34286,42.493848541666665,52,0.3260870000000011,66,1.2293765000000008
34287,42.821717541666665,34,0.32786899999999974,30,0.3015074999999996
34288,43.123225041666664,50,0.3015074999999996,46,0.6000000000000014
34289,43.42322504166666,35,0.29999999999999716,28,0.30000000000000426
34290,43.723225041666666,38,0.30000000000000426,34,0.29999999999999716
34291,44.02322504166666,47,0.29999999999999716,50,0.324324500000003
34292,44.347549541666666,49,0.324324500000003,55,1.8483475000000027
34293,44.68088304166667,32,0.33333350000000195,26,0.30612250000000074
34294,44.98700554166667,35,0.30612250000000074,31,0.2941174999999987
34295,45.28112304166667,33,0.2941174999999987,30,0.2941174999999987
34296,45.575240541666666,37,0.2941174999999987,35,0.3015074999999996
34297,45.876748041666666,28,0.3015074999999996,33,0.319149000000003
34298,46.19589704166667,49,0.319149000000003,66,1.8159454999999909
34299,46.51847754166667,32,0.3225805000000008,30,0.29999999999999716
34300,46.81847754166667,35,0.29999999999999716,40,0.2941174999999987
34301,47.112595041666665,33,0.2941174999999987,35,0.2884614999999968
34302,47.40105654166666,37,0.2884614999999968,42,0.3015074999999996
34303,47.70256404166666,28,0.3015074999999996,37,0.3092784999999978
34304,47.857203291666664,50,0.15463925000000245,62,0.15463924999999534
34305,48.01184254166666,52,0.15463924999999534,71,1.806196
34306,48.32597854166666,32,0.31413599999999775,34,0.2985074999999995
34307,48.62448604166666,35,0.2985074999999995,45,0.28985500000000286
34308,48.91434104166666,33,0.28985500000000286,37,0.28985499999999575
34309,49.204196041666656,37,0.28985499999999575,44,0.29126200000000324
34310,49.49545804166666,28,0.29126200000000324,29,0.3225805000000008
34311,49.81803854166666,54,0.3225805000000008,72,1.801172000000001
34312,50.12891954166666,32,0.31088100000000196,38,0.2970295000000007
34313,50.42594904166666,35,0.2970295000000007,46,0.28985500000000286
34314,50.715804041666665,33,0.28985500000000286,37,0.28985499999999575
34315,51.00565904166666,37,0.28985499999999575,44,0.3015074999999996
34316,51.30716654166666,28,0.3015074999999996,34,0.3120440000000002
34317,51.45792029166666,52,0.1507537499999998,60,0.1612902500000004
34318,51.61921054166666,52,0.1612902500000004,62,1.8428830000000005
34319,51.94707954166666,33,0.32786899999999974,29,0.30612250000000074
34320,52.25320204166666,35,0.30612250000000074,34,0.2941174999999987
34321,52.54731954166666,34,0.2941174999999987,29,0.2941174999999987
34322,52.84143704166666,37,0.2941174999999987,29,0.3015074999999996
34323,53.14294454166666,28,0.3015074999999996,25,0.319149000000003
34324,53.46209354166666,50,0.319149000000003,51,1.8483475000000027
34325,53.79542704166666,34,0.33333350000000195,26,0.30612250000000074
34326,54.101549541666664,37,0.30612250000000074,29,0.2941174999999987
34327,54.39566704166666,35,0.2941174999999987,26,0.2941174999999987
34328,54.68978454166666,38,0.2941174999999987,29,0.3015074999999996
34329,54.99129204166666,30,0.3015074999999996,25,0.319149000000003
34330,55.310441041666664,46,0.319149000000003,56,1.806196
34331,55.62457704166666,29,0.31413599999999775,30,0.2985074999999995
34332,55.92308454166666,31,0.2985074999999995,38,0.28985500000000286
34333,56.212939541666664,30,0.28985500000000286,30,0.28985499999999575
34334,56.50279454166666,34,0.28985499999999575,36,0.29126200000000324
34335,56.79405654166666,25,0.29126200000000324,29,0.3225805000000008
34336,57.116637041666664,50,0.3225805000000008,60,1.801172000000001
34337,57.427518041666666,29,0.31088100000000196,33,0.2970295000000007
34338,57.72454754166667,31,0.2970295000000007,37,0.28985500000000286
34339,58.01440254166667,30,0.28985500000000286,29,0.28985499999999575
34340,58.304257541666665,35,0.28985499999999575,34,0.3015074999999996
34341,58.605765041666665,23,0.3015074999999996,28,0.3120440000000002
34342,58.756518791666664,42,0.1507537499999998,49,0.1612902500000004
34343,58.917809041666665,47,0.1612902500000004,57,3.691230500000003
34344,59.245678041666665,27,0.32786899999999974,26,0.30612250000000074
34345,59.551800541666665,30,0.30612250000000074,29,0.2941174999999987
34346,59.845918041666664,28,0.2941174999999987,26,0.2941174999999987
34347,60.14003554166666,32,0.2941174999999987,29,0.3015074999999996
34348,60.44154304166666,23,0.3015074999999996,25,0.319149000000003
34349,60.760692041666665,49,0.319149000000003,51,1.8483475000000027
34350,61.09402554166667,27,0.33333350000000195,26,0.30612250000000074
34351,61.40014804166667,30,0.30612250000000074,29,0.2941174999999987
34352,61.69426554166667,28,0.2941174999999987,26,0.2941174999999987
34353,61.988383041666665,32,0.2941174999999987,29,0.3015074999999996
34354,62.289890541666665,23,0.3015074999999996,25,0.319149000000003
34355,62.60903954166667,45,0.319149000000003,51,1.227691
34356,62.94237304166667,27,0.33333350000000195,26,0.30612250000000074
34357,63.24849554166667,30,0.30612250000000074,29,0.2941174999999987
34358,63.54261304166667,28,0.2941174999999987,26,0.2941174999999987
34359,63.83673054166667,33,0.2941174999999987,29,0.3015074999999996
34360,64.13823804166667,21,0.3015074999999996,25,0.33519549999999754
34361,64.47343354166667,50,0.33519549999999754,53,1.801171999999994
34362,64.78431454166666,32,0.31088099999999486,29,0.2970294999999936
34363,65.08134404166665,35,0.2970294999999936,33,0.28985500000000286
34364,65.37119904166666,33,0.28985500000000286,26,0.28985500000000286
34365,65.66105404166666,38,0.28985500000000286,29,0.3015074999999996
34366,65.96256154166666,26,0.3015074999999996,25,0.3120440000000002
34367,66.27460554166666,47,0.3120440000000002,50,3.777180499999986
34368,66.61358854166666,27,0.3389829999999989,23,0.3125
34369,66.92608854166666,30,0.3125,25,0.3015074999999996
34370,67.22759604166666,28,0.3015074999999996,22,0.3015074999999996
34371,67.52910354166666,32,0.3015074999999996,24,0.3015074999999996
34372,67.83061104166666,23,0.3015074999999996,20,0.3191489999999959
34373,68.14976004166665,49,0.3191489999999959,42,1.9020259999999922
34374,68.48874304166665,27,0.3389829999999989,20,0.3191489999999959
34375,68.80789204166665,30,0.3191489999999959,23,0.30612250000000074
34376,69.11401454166665,28,0.30612250000000074,19,0.30612250000000074
34377,69.42013704166665,38,0.30612250000000074,39,0.6316489999999959
34378,69.73263704166665,23,0.3125,18,0.3191489999999959
34379,70.05178604166665,45,0.3191489999999959,38,2.6020799999999866
34380,70.39661354166664,27,0.34482749999999385,19,0.3208554999999933
34381,70.71746904166663,30,0.3208554999999933,22,0.3076925000000017
34382,71.02516154166663,28,0.3076925000000017,19,0.3076925000000017
34383,71.33285404166664,33,0.3076925000000017,22,0.3191489999999959
34384,71.65200304166663,16,0.3191489999999959,18,0.32786900000000685
34385,71.97987204166664,21,0.32786900000000685,26,0.3514134999999925
34386,72.33128554166663,27,0.3514134999999925,19,0.3225805000000008
34387,72.65386604166663,30,0.3225805000000008,22,0.31088099999999486
34388,72.96474704166663,28,0.31088099999999486,19,0.31088100000000907
34389,73.27562804166664,33,0.31088100000000907,22,0.3260870000000011
34390,73.60171504166664,20,0.3260870000000011,18,0.35714299999999355
34391,73.95885804166663,57,0.35714299999999355,60,2.3254585000000105
34392,74.36154254166664,37,0.40268450000000655,30,0.37012997499999756
34393,74.75115304166664,37,0.3896105000000034,33,0.35625000000000284
34394,75.12615304166664,37,0.375,36,0.35625000000000284
34395,75.50115304166664,42,0.375,40,0.35625000000000284
34396,75.87615304166664,37,0.375,36,0.38775532500000054
34397,76.28431654166664,49,0.40816350000000057,57,1.5386534999999952
34398,76.67647354166664,40,0.3921569999999974,37,0.3630572250000057
34399,77.05863904166664,39,0.38216549999999927,36,0.3630572250000057
34400,77.44080454166664,37,0.38216549999999927,34,0.3630572250000057
34401,77.82297004166664,51,0.38216549999999927,58,0.7894739999999985
34402,78.21770704166664,35,0.39473700000000633,33,0.3750001499999911
34403,78.61244404166663,51,0.3947369999999921,60,1.7252302500000098
34404,79.00718104166664,23,0.39473700000000633,28,0.367742149999998
34405,79.39427804166664,28,0.38709699999999714,33,0.3584905750000047
34406,79.77163654166664,30,0.3773584999999997,31,0.3584905750000047
34407,80.14899504166664,28,0.3773584999999997,28,0.35231567500001404
34408,80.33767429166664,52,0.18867925000000696,43,0.1818182500000063
34409,80.51949254166665,56,0.1818182500000063,42,0.33727802500000337
34410,80.69700729166665,54,0.17751475000000028,40,0.17751475000000028
34411,80.87452204166665,52,0.17751475000000028,52,2.2808541666666713
34412,81.24719304166665,30,0.37267099999999687,28,0.3529834249999908
34413,81.61835829166665,28,0.3711652500000042,28,0.3505215833333324
34414,81.98762987499998,33,0.36927158333332954,28,0.36395180833333995
34415,82.37106220833333,32,0.3834323333333458,28,0.37254914999999755
34416,82.76321920833333,23,0.3921569999999974,28,0.37254914999999755
34417,83.15537620833332,55,0.3921569999999974,60,2.3254585000000105
34418,83.55806070833333,35,0.40268450000000655,30,0.37012997499999756
34419,83.94767120833333,35,0.3896105000000034,33,0.35625000000000284
34420,84.32267120833333,35,0.375,36,0.35625000000000284
34421,84.69767120833333,40,0.375,40,0.35625000000000284
34422,85.07267120833333,35,0.375,36,0.38775532500000054
34423,85.48083470833333,47,0.40816350000000057,57,1.5386534999999952
34424,85.87299170833333,38,0.3921569999999974,37,0.3630572250000057
34425,86.25515720833333,37,0.38216549999999927,36,0.3630572250000057
34426,86.63732270833333,35,0.38216549999999927,34,0.3630572250000057
34427,87.01948820833333,49,0.38216549999999927,58,0.7894739999999985
34428,87.41422520833333,33,0.39473700000000633,33,0.3750001499999911
34429,87.80896220833333,49,0.3947369999999921,60,1.7157603125000094
34430,88.20369920833333,21,0.39473700000000633,28,0.367742149999998
34431,88.59079620833333,26,0.38709699999999714,33,0.3584905750000047
34432,88.96815470833333,28,0.3773584999999997,31,0.3584905750000047
34433,89.34508177083333,26,0.37692706250000185,28,0.34131742499999973
34434,89.52472252083334,50,0.17964075000000435,43,0.17964074999999013
34435,89.70436327083333,54,0.17964074999999013,42,0.3333331500000014
34436,89.87980177083332,52,0.1754384999999985,40,0.1754384999999985
34437,90.05524027083332,50,0.1754384999999985,45,1.5379424999999856
34438,90.44233727083332,28,0.38709699999999714,28,0.3652637416666664
34439,90.82589368749998,26,0.3835564166666643,28,0.36064872500000433
34440,91.20565068749998,21,0.3797569999999979,28,0.36792423333332636
34441,91.59318277083331,49,0.3875320833333262,56,0.7843139999999948
34442,91.9853397708333,28,0.3921569999999974,28,0.37254914999999755
34443,92.3774967708333,49,0.3921569999999974,60,0.7551950000000005
34444,92.7455947708333,38,0.36809800000000337,27,0.367742149999998
34445,93.1326917708333,47,0.38709699999999714,55,0.9047059999999902
34446,93.5100502708333,38,0.3773584999999997,30,0.3333331500000014
34447,93.8609272708333,33,0.350876999999997,26,0.3352939499999934
34448,94.0373977708333,49,0.17647049999999354,43,0.17647050000000775
34449,94.2138682708333,52,0.17647050000000775,42,0.32571414999999604
34450,94.3852967708333,50,0.17142850000000465,40,0.17142849999999044
34451,94.5567252708333,49,0.17142849999999044,60,0.7551950000000005
34452,94.9248232708333,42,0.36809800000000337,27,0.367742149999998
34453,95.3119202708333,47,0.38709699999999714,54,0.9229712500000034
34454,95.6892787708333,42,0.3773584999999997,30,0.3496930999999961
34455,96.0573767708333,40,0.36809800000000337,26,0.33727802500000337
34456,96.2348915208333,49,0.17751475000000028,40,0.17751475000000028
34457,96.4124062708333,52,0.17751475000000028,39,0.3275861249999963
34458,96.5848200208333,50,0.17241375000000403,38,0.17241374999998982
34459,96.7572337708333,49,0.17241374999998982,57,0.7551950000000005
34460,97.1253317708333,38,0.36809800000000337,29,0.367742149999998
34461,97.5124287708333,47,0.38709699999999714,53,2.610817250000011
34462,97.88509977083329,42,0.37267099999999687,44,0.35403745000000697
34463,98.25777077083329,44,0.37267099999999687,53,0.3499719250000197
34464,98.62592452083331,42,0.36815375000001893,42,0.33727802500000337
34465,98.98095402083331,44,0.35502950000000055,48,0.36809800000000337
34466,99.34905202083331,42,0.36809800000000337,42,0.38709699999999714
34467,99.73614902083331,44,0.38709699999999714,40,0.38709699999999714
34468,100.1232460208333,49,0.38709699999999714,55,0.38709700000001135
34469,100.51034302083332,52,0.38709700000001135,61,0.37536674999999775
34470,100.88570977083332,49,0.37536674999999775,55,0.36585350000000005
34471,101.25156327083332,45,0.36585350000000005,60,0.7773585000000054
34472,101.62892177083332,37,0.3773584999999997,34,0.37999999999999545
34473,102.02892177083332,45,0.4000000000000057,58,0.7692310000000049
34474,102.41353727083332,42,0.38461549999999534,34,0.3653847249999984
34475,102.79815277083333,45,0.38461550000000955,57,0.7677215000000075
34476,103.16852327083333,39,0.37037050000000704,37,0.3774834499999997
34477,103.56587427083333,45,0.39735100000000045,60,1.5578505000000007
34478,103.94684627083333,38,0.38097199999999987,41,0.38255027499999983
34479,104.34953077083334,44,0.40268450000000655,56,0.7741939999999943
34480,104.73662777083334,38,0.38709699999999714,41,0.367742149999998
34481,105.12372477083333,47,0.38709699999999714,56,0.7843139999999948
34482,105.51588177083333,38,0.3921569999999974,41,0.37254914999999755
34483,105.90803877083333,47,0.3921569999999974,56,0.7845470833333508
34484,106.28990135416667,28,0.3818625833333442,27,0.38255027499999983
34485,106.69258585416668,49,0.40268450000000655,52,0.7792210000000068
34486,107.08219635416668,28,0.3896105000000034,30,0.37012997499999756
34487,107.47180685416669,47,0.3896105000000034,50,0.7792209999999926
34488,107.86141735416668,32,0.3896104999999892,29,0.37012997499999756
34489,108.25102785416668,49,0.3896105000000034,51,2.241439999999997
34490,108.64318485416668,20,0.3921569999999974,29,0.36363649999999836
34491,109.00682135416668,23,0.36363649999999836,32,0.36363649999999836
34492,109.37045785416667,21,0.36363649999999836,29,0.36363649999999836
34493,109.73409435416667,25,0.36363649999999836,32,0.36363649999999836
34494,110.09773085416667,16,0.36363649999999836,29,0.39473700000000633
34495,110.49246785416668,49,0.39473700000000633,55,1.8618349999999992
34496,110.83928885416668,32,0.3468210000000056,26,0.30612250000000074
34497,111.14541135416668,35,0.30612250000000074,31,0.2941174999999987
34498,111.43952885416668,33,0.2941174999999987,30,0.2941174999999987
34499,111.73364635416668,37,0.2941174999999987,35,0.3015074999999996
34500,112.03515385416668,28,0.3015074999999996,33,0.3191489999999959
34501,112.35430285416668,49,0.3191489999999959,66,1.815945499999998
34502,112.67688335416668,32,0.3225805000000008,30,0.29999999999999716
34503,112.97688335416667,35,0.29999999999999716,40,0.2941174999999987
34504,113.27100085416667,33,0.2941174999999987,35,0.2884614999999968
34505,113.55946235416667,37,0.2884614999999968,42,0.3015074999999996
34506,113.86096985416667,28,0.3015074999999996,37,0.3092785000000049
34507,114.01560910416667,50,0.15463925000000245,62,0.15463925000000245
34508,114.17024835416667,52,0.15463925000000245,71,1.8061960000000141
34509,114.48438435416668,32,0.31413600000000486,34,0.2985074999999995
34510,114.78289185416668,35,0.2985074999999995,45,0.28985500000000286
34511,115.07274685416668,33,0.28985500000000286,37,0.28985500000000286
34512,115.36260185416668,37,0.28985500000000286,44,0.29126200000000324
34513,115.65386385416669,28,0.29126200000000324,29,0.3225805000000008
34514,115.97644435416669,54,0.3225805000000008,67,1.801171999999994
34515,116.28732535416668,32,0.31088099999999486,33,0.2970294999999936
34516,116.58435485416668,35,0.2970294999999936,39,0.28985500000000286
34517,116.87420985416668,33,0.28985500000000286,34,0.28985500000000286
34518,117.16406485416668,37,0.28985500000000286,38,0.3015074999999996
34519,117.46557235416668,28,0.3015074999999996,34,0.3120440000000002
34520,117.61632610416669,52,0.1507537500000069,66,0.1612902499999933
34521,117.77761635416668,57,0.1612902499999933,69,1.8428830000000005
34522,118.10548535416669,32,0.32786900000000685,29,0.30612250000000074
34523,118.41160785416669,35,0.30612250000000074,33,0.2941174999999987
34524,118.70572535416669,33,0.2941174999999987,29,0.2941174999999987
34525,118.99984285416669,37,0.2941174999999987,32,0.3015074999999996
34526,119.30135035416669,28,0.3015074999999996,27,0.3191489999999959
34527,119.62049935416668,54,0.3191489999999959,61,3.6545435000000026
34528,119.95383285416668,32,0.33333349999999484,28,0.30612250000000074
34529,120.25995535416668,35,0.30612250000000074,31,0.2941174999999987
34530,120.55407285416668,33,0.2941174999999987,28,0.2941174999999987
34531,120.84819035416668,38,0.2941174999999987,31,0.3015074999999996
34532,121.14969785416667,26,0.3015074999999996,26,0.3191489999999959
34533,121.46884685416667,50,0.3191489999999959,56,1.8061960000000141
34534,121.78298285416668,29,0.31413600000000486,30,0.2985074999999995
34535,122.08149035416668,31,0.2985074999999995,38,0.28985500000000286
34536,122.37134535416668,30,0.28985500000000286,30,0.28985500000000286
34537,122.66120035416668,34,0.28985500000000286,36,0.29126200000000324
34538,122.95246235416668,25,0.29126200000000324,29,0.3225805000000008
34539,123.27504285416668,50,0.3225805000000008,57,1.801171999999994
34540,123.58592385416668,29,0.31088099999999486,33,0.2970294999999936
34541,123.88295335416667,31,0.2970294999999936,37,0.28985500000000286
34542,124.17280835416668,30,0.28985500000000286,29,0.28985500000000286
34543,124.46266335416668,35,0.28985500000000286,34,0.3015074999999996
34544,124.76417085416668,23,0.3015074999999996,28,0.3120440000000002
34545,124.91492460416669,42,0.1507537500000069,49,0.1612902499999933
34546,125.07621485416668,47,0.1612902499999933,59,1.8076969999999903
34547,125.36889785416668,56,0.2926829999999967,54,3.3633615000000248
34548,125.67502035416668,30,0.30612250000000074,29,0.2941174999999987
34549,125.96913785416668,28,0.2941174999999987,26,0.2941174999999987
34550,126.26325535416667,32,0.2941174999999987,29,0.3015074999999996
34551,126.56476285416667,23,0.3015074999999996,25,0.3191489999999959
34552,126.88391185416667,47,0.3191489999999959,51,1.2276910000000072
34553,127.21724535416666,27,0.33333349999999484,26,0.30612250000000074
34554,127.52336785416666,30,0.30612250000000074,29,0.2941174999999987
34555,127.81748535416666,28,0.2941174999999987,26,0.2941175000000129
34556,128.11160285416668,49,0.2941175000000129,51,0.6206565000000239
34557,128.4131103541667,23,0.3015075000000138,25,0.3191490000000101
34558,128.7322593541667,45,0.3191490000000101,54,1.1928649999999834
34559,129.0307668541667,57,0.2985074999999995,59,1.5150140000000079
34560,129.3368893541667,30,0.30612249999998653,29,0.2941174999999987
34561,129.63100685416669,28,0.2941174999999987,26,0.2941174999999987
34562,129.92512435416668,33,0.2941174999999987,29,0.3015075000000138
34563,130.2266318541667,21,0.3015075000000138,25,0.3191490000000101
34564,130.5457808541667,50,0.3191490000000101,57,1.7829740000000243
34565,130.83846385416672,59,0.2926830000000109,61,1.4902910000000134
34566,131.13549335416673,32,0.29702950000000783,33,0.28985499999998865
34567,131.42534835416672,30,0.28985499999998865,26,0.28985500000001707
34568,131.71520335416673,38,0.28985500000001707,29,0.3015075000000138
34569,132.01671085416675,23,0.3015075000000138,25,0.312043999999986
34570,132.32875485416673,47,0.312043999999986,51,3.761599999999987
34571,132.63644735416673,56,0.3076925000000017,58,3.2899730000000034
34572,132.94894735416673,30,0.3125,25,0.3015075000000138
34573,133.25045485416675,28,0.3015075000000138,22,0.3015074999999854
34574,133.55196235416673,32,0.3015074999999854,24,0.3092785000000049
34575,133.86124085416674,23,0.3092785000000049,20,0.3225804999999866
34576,134.18382135416672,49,0.3225804999999866,56,1.9065334999999948
34577,134.52667835416673,27,0.3428570000000093,20,0.31578949999999395
34578,134.84246785416673,30,0.31578949999999395,23,0.3045684999999878
34579,135.14703635416672,28,0.3045684999999878,19,0.30456850000001623
34580,135.45160485416673,35,0.30456850000001623,23,0.31088099999999486
34581,135.76248585416673,16,0.31088099999999486,18,0.32786899999999264
34582,135.92642035416674,57,0.16393450000001053,54,0.1639344999999821
34583,136.09035485416672,45,0.1639344999999821,42,3.8118596666666633
34584,136.4012358541667,57,0.31088099999999486,57,3.5009786666666685
34585,136.7170253541667,30,0.31578949999999395,22,0.3045684999999878
34586,137.0215938541667,28,0.3045684999999878,19,0.30456850000001623
34587,137.3261623541667,33,0.30456850000001623,22,0.31088099999999486
34588,137.6370433541667,16,0.31088099999999486,18,0.3260870000000011
34589,137.9631303541667,21,0.3260870000000011,26,0.34090900000001056
34590,138.30403935416672,27,0.34090900000001056,19,0.33333350000000905
34591,138.63737285416673,30,0.33333350000000905,22,0.31088099999999486
34592,138.94825385416672,28,0.31088099999999486,19,0.31088099999999486
34593,139.25913485416672,33,0.31088099999999486,22,0.3134091666666734
34594,139.5725440208334,16,0.3134091666666734,18,0.32967049999999176
34595,139.90221452083338,9,0.32967049999999176,33,0.37037050000000704
34596,140.2725850208334,37,0.37037050000000704,30,0.33969007499999293
34597,140.6301535208334,37,0.3575685000000135,33,0.33969007499999293
34598,140.9877220208334,37,0.3575684999999851,34,0.33969007499999293
34599,141.3452905208334,42,0.3575685000000135,37,0.34144660833331386
34600,141.70536835416672,37,0.360077833333321,40,0.3773982499999988
34601,142.10110400416673,49,0.395735650000006,52,1.6896875541666532
34602,142.47450067500003,40,0.3733966708333014,38,0.36792650416663264
34603,142.86228627083335,38,0.3877855958333214,37,0.4009322625000209
34604,143.28574105833337,37,0.4234547875000203,30,0.47979797499999677
34605,143.79079155833338,48,0.5050505000000101,40,0.4279279749999887
34606,144.01601680833338,49,0.22522524999999405,35,0.22522524999999405
34607,144.24124205833337,52,0.22522524999999405,40,0.6553810500000168
34608,144.49721480833338,50,0.2559727500000122,35,0.44378699999998616
34609,144.94100180833337,49,0.44378699999998616,33,5.14285799999999
34610,0.0,43,0.0,60,0.8134489999999999
34611,0.8134489999999999,43,0.8134489999999999,60,0.61008675
34612,1.4235357499999999,43,0.61008675,57,0.20336224999999986
34613,1.6268979999999997,43,0.20336224999999986,60,0.8134489999999999
34614,2.4403469999999996,44,0.8134489999999999,58,0.8134489999999999
34615,3.2537959999999995,43,0.8134489999999999,60,0.8134490000000003
34616,4.067245,39,0.8134490000000003,58,0.8134489999999994
34617,4.880693999999999,43,0.8134489999999994,60,1.682086
34618,6.562779999999999,43,1.682086,38,0.8138899999999998
34619,7.376669999999999,43,0.8138899999999998,38,0.6104175000000005
34620,7.9870874999999995,43,0.6104175000000005,36,0.20347250000000017
34621,8.19056,43,0.20347250000000017,38,0.8138899999999989
34622,9.004449999999999,44,0.8138899999999989,36,0.8388089999999995
34623,9.843258999999998,43,0.8388089999999995,36,0.9142159999999997
34624,10.757474999999998,39,0.9142159999999997,34,0.9860310000000005
34625,11.743505999999998,43,0.9860310000000005,31,2.5701970000000003
34626,12.976804999999999,35,1.2332990000000006,19,1.3368979999999997
34627,14.308132591666665,80,1.3313275916666658,96,0.08400964583333348
34628,14.313702999999999,12,0.005570408333333887,112,0.24135150000000039
34629,14.395159131249999,75,0.0814561312500004,71,0.08045049999999954
34630,14.473598368749998,79,0.07843923749999959,91,0.08045049999999954
34631,14.557065762499999,72,0.08346739375000034,71,0.08045049999999954
34632,14.63651063125,78,0.07944486875000045,84,0.08045049999999954
34633,14.715955499999998,75,0.07944486874999868,71,0.08045050000000131
34634,14.796406,43,0.08045050000000131,88,0.3487019999999994
34635,14.876801183333333,72,0.08039518333333362,69,0.07748933333333241
34636,14.953321899999999,76,0.07652071666666593,79,0.07748933333333419
34637,15.030811233333333,72,0.07748933333333419,69,0.07748933333333241
34638,15.105394716666666,75,0.07458348333333298,79,0.07748933333333241
34639,15.145107999999999,43,0.03971328333333268,82,0.11623400000000039
34640,15.186758516666666,67,0.041650516666667414,69,0.07752189583333369
34641,15.261341999999999,43,0.07458348333333298,88,0.47014599999999973
34642,15.263300941666666,74,0.001958941666666547,78,0.07835766666666721
34643,15.340679137499999,67,0.07737819583333305,71,0.07835766666666721
34644,15.4170778625,73,0.07639872500000067,78,0.07835766666666721
34645,15.494456058333332,63,0.07737819583333305,71,0.07835766666666721
34646,15.572813725,72,0.07835766666666721,78,0.07835766666666544
34647,15.653130333333332,67,0.08031660833333198,71,0.07835766666666721
34648,15.729529058333332,71,0.07639872500000067,78,0.07615416666666697
34649,15.731487999999999,44,0.001958941666666547,92,0.4565860000000015
34650,15.805683225,63,0.07419522500000042,69,0.07609766666666573
34651,15.886536995833332,70,0.08085377083333256,71,0.07609766666666751
34652,15.959781,63,0.07324400416666776,69,0.07609766666666573
34653,16.033976225,69,0.07419522500000042,71,0.07609766666666573
34654,16.110073891666666,60,0.07609766666666573,69,0.07609766666666573
34655,16.18617155833333,68,0.07609766666666573,78,0.07858359166666773
34656,16.188074,43,0.0019024416666688637,88,0.4718839999999993
34657,16.266721333333333,63,0.07864733333333263,71,0.07864733333333263
34658,16.346351758333334,67,0.07963042500000128,78,0.07864733333333263
34659,16.424999091666667,60,0.07864733333333263,71,0.07864733333333263
34660,16.503646425,66,0.07864733333333263,78,0.07864733333333263
34661,16.582293758333332,63,0.07864733333333263,71,0.07870132708333344
34662,16.657991816666666,65,0.07569805833333376,78,0.08285884583333214
34663,16.659958,39,0.0019661833333337597,82,0.49780099999999905
34664,16.74396191875,60,0.08400391874999968,69,0.08296683333333377
34665,16.825891666666667,64,0.08192974791666785,71,0.08296683333333377
34666,16.9088585,60,0.08296683333333377,69,0.08296683333333377
34667,16.9897511625,63,0.08089266249999838,71,0.08296683333333377
34668,17.075829252083334,55,0.08607808958333507,69,0.08288796874999704
34669,17.157759,43,0.0819297479166643,82,0.9198920000000008
34670,17.159675441666664,62,0.0019164416666654915,71,0.0766576666666694
34671,17.236333108333334,55,0.0766576666666694,69,0.07665766666666585
34672,17.312032554166667,61,0.0756994458333331,71,0.07665766666666585
34673,17.386773779166667,51,0.07474122500000036,69,0.07665766666666585
34674,17.467264329166664,60,0.08049054999999683,71,0.0766576666666694
34675,17.542963774999997,55,0.0756994458333331,69,0.0766576666666694
34676,17.6205796625,59,0.07761588750000215,71,0.07665766666666585
34677,17.697237329166665,51,0.07665766666666585,69,0.07665766666666585
34678,17.771978554166665,58,0.07474122500000036,71,0.07665766666666585
34679,17.845761558333333,51,0.07378300416666761,69,0.07665766666666585
34680,17.924335666666664,57,0.07857410833333134,71,0.0766576666666694
34681,18.000035112499997,48,0.0756994458333331,69,0.0766576666666694
34682,18.077651,12,0.07761588750000215,99,0.23683600000000027
34683,18.08061145,56,0.0029604499999997813,56,0.07894533333333342
34684,18.155609516666665,51,0.07499806666666586,51,0.07894533333333342
34685,18.2375153,55,0.0819057833333332,56,0.07894533333333342
34686,18.31744745,48,0.0799321500000012,56,0.07894533333333342
34687,18.396392783333333,54,0.07894533333333342,56,0.07894533333333342
34688,18.475338116666666,51,0.07894533333333342,51,0.07889073333333485
34689,18.551323,31,0.07598488333333364,69,0.3487019999999994
34690,18.55229161666667,53,0.0009686166666682539,56,0.07748933333333241
34691,18.628812333333332,48,0.07652071666666416,51,0.07748933333333596
34692,18.70533305,52,0.07652071666666771,56,0.07748933333333241
34693,18.782822383333333,48,0.07748933333333241,51,0.07748933333333241
34694,18.864186183333334,51,0.08136380000000187,56,0.07748933333333241
34695,18.900025,31,0.035838816666665,61,0.11623400000000217
34696,18.936832433333333,43,0.03680743333333325,51,0.07748933333333241
34697,19.016259,31,0.07942656666666892,70,0.47367200000000054
34698,19.093230700000003,43,0.07697170000000142,50,0.07894533333333342
34699,19.1761233,49,0.08289259999999743,55,0.07894533333333342
34700,19.25112136666667,39,0.07499806666666942,49,0.07894533333333342
34701,19.330066700000003,48,0.07894533333333342,53,0.07894533333332987
34702,19.41394611666667,43,0.08387941666666521,47,0.07882880833333417
34703,19.488944183333334,47,0.07499806666666586,50,0.0758768416666662
34704,19.489931000000002,32,0.000986816666667778,62,0.45502799999999866
34705,19.564821025,39,0.07489002499999842,46,0.07583800000000096
34706,19.642554975000003,46,0.0777339500000025,49,0.07583799999999741
34707,19.719340950000003,39,0.07678597499999995,46,0.07583799999999741
34708,19.796126925000003,45,0.07678597499999995,47,0.07583800000000096
34709,19.87101695,36,0.07489002499999842,45,0.07590823333333319
34710,19.944959,31,0.07394204999999943,63,0.4718839999999993
34711,20.02262324166667,39,0.07766424166666752,45,0.07864733333333263
34712,20.10421985,43,0.08159660833333149,47,0.07864733333333263
34713,20.180901000000002,36,0.07668115000000242,45,0.07864733333333263
34714,20.259548333333335,42,0.07864733333333263,46,0.07864733333333263
34715,20.341144941666666,39,0.08159660833333149,44,0.07877308958333273
34716,20.416843,12,0.07569805833333376,60,1.425348999999997
34717,20.418893020833334,41,0.002050020833333832,45,0.08200083333333197
34718,20.4967938125,36,0.07790079166666786,42,0.08200083333333197
34719,20.581869677083333,40,0.08507586458333094,45,0.08200083333333552
34720,20.6628455,36,0.08097582291666683,40,0.08200083333333552
34721,20.746896354166665,39,0.0840508541666658,44,0.08200083333333552
34722,20.827872177083332,31,0.08097582291666683,42,0.08194805624999901
34723,20.908848,19,0.08097582291666683,68,0.9333439999999982
34724,20.90982023333333,38,0.0009722333333321842,44,0.0777786666666671
34725,20.986626666666666,31,0.07680643333333492,42,0.0777786666666671
34726,21.062460866666665,37,0.07583419999999919,47,0.0777786666666671
34727,21.141211766666665,27,0.07875089999999929,45,0.0777786666666671
34728,21.219962666666667,36,0.07875090000000284,49,0.07777866666666355
34729,21.2996858,31,0.07972313333333148,47,0.0777786666666671
34730,21.376492233333334,35,0.07680643333333492,53,0.07777866666666355
34731,21.456215366666665,27,0.07972313333333148,49,0.0777786666666671
34732,21.5330218,36,0.07680643333333492,56,0.0777786666666671
34733,21.608856,31,0.07583419999999919,53,0.0777786666666671
34734,21.68566243333333,39,0.07680643333333137,59,0.0777786666666671
34735,21.765385566666666,32,0.07972313333333503,59,0.07781571874999926
34736,21.842191999999997,11,0.07680643333333137,99,0.2422284999999995
34737,21.920916262499997,38,0.07872426249999975,59,0.08074283333333199
34738,22.005696237499997,41,0.08477997500000001,59,0.08074283333333199
34739,22.085429785416665,44,0.07973354791666765,59,0.08074283333333199
34740,22.163144762499996,55,0.07771497708333186,59,0.08074283333333554
34741,22.248934022916664,50,0.0857892604166679,59,0.08061050833333283
34742,22.324630429166664,53,0.07569640624999963,62,0.07730238333333261
34743,22.326648999999996,41,0.002018570833332234,77,0.3474637499999993
34744,22.40675869791666,56,0.08010969791666511,64,0.0772141666666677
34745,22.483007687499995,67,0.07624898958333404,67,0.0772141666666677
34746,22.557326322916662,62,0.07431863541666672,68,0.0772141666666677
34747,22.635505666666663,65,0.07817934375000135,69,0.0772141666666677
34748,22.674112749999995,41,0.03860708333333207,73,0.11582124999999976
34749,22.710789479166664,56,0.03667672916666831,70,0.07721416666666414
34750,22.789933999999995,39,0.07914452083333146,77,0.4632850000000026
34751,22.792829531249996,65,0.002895531250000971,69,0.0772141666666677
34752,22.86907852083333,60,0.07624898958333404,68,0.0772141666666677
34753,22.942431979166663,63,0.07335345833333307,67,0.0772141666666677
34754,23.024472031249996,56,0.08204005208333243,66,0.0772141666666677
34755,23.10072102083333,53,0.07624898958333404,64,0.0772141666666677
34756,23.176970010416664,48,0.07624898958333404,62,0.07723580625000181
34757,23.252253822916664,51,0.07528381250000038,58,0.0789236937499993
34758,23.253218999999998,24,0.000965177083333657,84,0.47367200000000054
34759,23.331177516666664,44,0.07795851666666564,58,0.07894533333333342
34760,23.413083299999997,41,0.0819057833333332,58,0.07894533333333342
34761,23.490054999999998,36,0.07697170000000142,58,0.07894533333333342
34762,23.5670267,39,0.07697170000000142,58,0.07894533333332987
34763,23.648932483333333,32,0.0819057833333332,58,0.07894533333333342
34764,23.726891,23,0.07795851666666564,86,0.23683600000000027
34765,23.72886463333333,43,0.0019736333333320033,59,0.07894533333333342
34766,23.805836333333332,38,0.07697170000000142,59,0.07894533333333342
34767,23.883794849999997,41,0.07795851666666564,59,0.07894533333333342
34768,23.964713816666663,44,0.08091896666666543,59,0.07894533333333342
34769,24.044645966666664,55,0.0799321500000012,59,0.07894533333333342
34770,24.123591299999998,50,0.07894533333333342,59,0.07890205416666873
34771,24.200563,34,0.07697170000000142,77,0.15442833333333184
34772,24.202493354166666,53,0.001930354166667314,64,0.0772141666666677
34773,24.277777166666667,56,0.07528381250000038,64,0.07721416666666414
34774,24.353060979166667,67,0.07528381250000038,66,0.07721416666666414
34775,24.35499133333333,32,0.0019303541666637614,72,0.1544283333333354
34776,24.4322055,62,0.0772141666666677,67,0.0772141666666677
34777,24.509419666666666,31,0.0772141666666677,73,0.15442833333333184
34778,24.512315197916667,65,0.002895531250000971,69,0.07721416666666414
34779,24.584703479166667,55,0.07238828124999941,69,0.07721416666666414
34780,24.663847999999998,31,0.07914452083333146,77,0.4632850000000026
34781,24.66481317708333,65,0.000965177083333657,67,0.0772141666666677
34782,24.74202734375,60,0.0772141666666677,66,0.0772141666666677
34783,24.818276333333333,63,0.07624898958333404,64,0.07721416666666414
34784,24.893560145833334,55,0.07528381250000038,62,0.07721416666666414
34785,24.975600197916666,53,0.08204005208333243,61,0.0772141666666677
34786,25.052814364583334,48,0.0772141666666677,60,0.07725704791666743
34787,25.127133,24,0.07431863541666672,81,0.47014599999999973
34788,25.128112470833333,51,0.0009794708333323854,59,0.07835766666666899
34789,25.205490666666666,43,0.07737819583333305,59,0.07835766666666899
34790,25.283848333333335,41,0.07835766666666899,59,0.07835766666666544
34791,25.362206,36,0.07835766666666544,59,0.07835766666666544
34792,25.443502079166667,39,0.08129607916666615,59,0.07835766666666899
34793,25.5179418625,38,0.07443978333333234,59,0.07835766666666899
34794,25.597279,26,0.07933713750000138,77,0.23507299999999987
34795,25.674657195833333,43,0.07737819583333305,58,0.07835766666666899
34796,25.756932745833335,47,0.08227555000000208,58,0.07835766666666544
34797,25.831372529166668,50,0.07443978333333234,58,0.07835766666666544
34798,25.912668608333334,60,0.08129607916666615,58,0.07835766666666544
34799,25.990046804166667,55,0.07737819583333305,58,0.07835042916666524
34800,26.066445529166668,59,0.07639872500000067,58,0.07778590416666731
34801,26.067425,43,0.0009794708333323854,70,0.4666719999999991
34802,26.147148133333335,62,0.07972313333333503,57,0.07777866666666355
34803,26.222982333333334,47,0.07583419999999919,66,0.1555573333333342
34804,26.225899033333334,72,0.0029167000000001053,58,0.0777786666666671
34805,26.300761,67,0.074861966666667,59,0.0777786666666671
34806,26.37853966666667,52,0.0777786666666671,70,0.15555733333333066
34807,26.3795119,71,0.0009722333333321842,59,0.0777786666666671
34808,26.459235033333332,62,0.07972313333333148,59,0.0777786666666671
34809,26.532152533333335,71,0.07291750000000263,60,0.07777866666666355
34810,26.534097,48,0.0019444666666643684,70,0.4666719999999991
34811,26.614792366666666,66,0.08069536666666721,60,0.0777786666666671
34812,26.690626566666666,69,0.07583419999999919,59,0.0777786666666671
34813,26.765488533333333,62,0.074861966666667,59,0.0777786666666671
34814,26.8461839,59,0.08069536666666721,59,0.0777786666666671
34815,26.9220181,54,0.07583419999999919,58,0.0777786666666671
34816,27.000769,38,0.07875089999999929,77,0.477212999999999
34817,27.003751581249997,57,0.002982581249998617,55,0.0795355000000022
34818,27.08129869375,50,0.07754711250000312,55,0.07953549999999865
34819,27.16083419375,47,0.07953549999999865,55,0.07953549999999865
34820,27.238381306249998,42,0.07754711249999957,55,0.07953549999999865
34821,27.32189358125,45,0.08351227500000036,55,0.07953549999999865
34822,27.3964581125,38,0.07456453125000095,55,0.07953549999999865
34823,27.475993612499998,48,0.07953549999999865,55,0.07953549999999865
34824,27.477981999999997,31,0.001988387499999078,77,0.2386064999999995
34825,27.5595058875,43,0.08152388750000128,55,0.07953549999999865
34826,27.63605880625,47,0.07655291875000003,55,0.07953549999999865
34827,27.71957108125,50,0.08351227500000036,55,0.07953549999999865
34828,27.79512980625,60,0.07555872500000049,55,0.07953549999999865
34829,27.875659499999998,55,0.08052969374999819,55,0.07953549999999865
34830,27.953206612499997,59,0.07754711249999957,55,0.0795355000000022
34831,27.955194999999996,47,0.001988387499999078,67,0.15907100000000085
34832,28.036718887499998,62,0.08152388750000128,59,0.0795355000000022
34833,28.114265999999997,46,0.07754711249999957,58,0.15907100000000085
34834,28.11724858125,72,0.0029825812500021698,59,0.07953549999999865
34835,28.1957898875,67,0.07854130624999911,59,0.07953549999999865
34836,28.273336999999998,47,0.07754711249999957,63,0.15907100000000085
34837,28.274331193749997,71,0.000994193749999539,59,0.0795355000000022
34838,28.3548608875,62,0.08052969375000174,59,0.07953549999999865
34839,28.432408,79,0.07754711249999957,81,0.2386064999999995
34840,29.385839806249997,80,0.9534318062499985,94,0.08043906249999822
34841,29.386833999999997,12,0.000994193749999539,100,0.24135150000000039
34842,29.465273237499996,75,0.07843923749999959,69,0.08045050000000131
34843,29.545723737499998,79,0.08045050000000131,90,0.08045049999999776
34844,29.626174237499995,72,0.08045049999999776,69,0.08045050000000131
34845,29.710647262499997,78,0.0844730250000012,84,0.08045050000000131
34846,29.792103393749997,75,0.0814561312500004,69,0.08033945625000172
34847,29.86853136875,77,0.07642797500000142,82,0.0775263479166668
34848,29.869536999999998,43,0.0010056312499990838,84,0.3487019999999994
34849,29.945089099999997,72,0.07555209999999946,67,0.07748933333333241
34850,30.02548428333333,76,0.08039518333333362,79,0.07748933333333241
34851,30.100067766666665,72,0.07458348333333475,67,0.07748933333333241
34852,30.177557099999998,75,0.07748933333333241,78,0.07748933333333241
34853,30.218238999999997,43,0.04068189999999916,79,0.11623400000000217
34854,30.256983666666663,67,0.038744666666666205,67,0.07748933333333596
34855,30.334473,43,0.07748933333333596,84,0.47014599999999973
34856,30.336431941666667,74,0.0019589416666683235,77,0.07835766666666544
34857,30.414789608333333,67,0.07835766666666544,69,0.07835766666666544
34858,30.492167804166666,73,0.07737819583333305,75,0.07835766666666544
34859,30.567587058333334,63,0.07541925416666828,69,0.07835766666666544
34860,30.647903666666664,72,0.08031660833333021,73,0.07835766666666899
34861,30.725281862499997,67,0.07737819583333305,69,0.07835766666666899
34862,30.804619,44,0.07933713750000138,88,0.46493600000000157
34863,30.806556233333332,71,0.001937233333332955,73,0.07748933333333241
34864,30.881139716666667,63,0.07458348333333475,67,0.07748933333333241
34865,30.959597666666667,70,0.07845795000000066,69,0.07748933333333241
34866,31.03611838333333,63,0.07652071666666416,67,0.07748933333333241
34867,31.11554495,69,0.07942656666666892,69,0.07748933333333241
34868,31.193034283333333,60,0.07748933333333241,67,0.07750380833333281
34869,31.269555,43,0.07652071666666771,84,0.4718839999999993
34870,31.270538091666666,68,0.0009830916666651035,73,0.07864733333333618
34871,31.34623615,63,0.07569805833333376,69,0.07864733333333618
34872,31.427832758333334,67,0.08159660833333504,73,0.07864733333333263
34873,31.508446275,60,0.08061351666666638,69,0.07864733333333263
34874,31.58611051666667,66,0.07766424166666752,73,0.07864733333333263
34875,31.665740941666666,63,0.07963042499999773,69,0.07880931458333507
34876,31.740455908333335,65,0.07471496666666866,73,0.08291283958333295
34877,31.741439,39,0.0009830916666651035,79,0.4978010000000026
34878,31.824405833333334,60,0.08296683333333377,67,0.08296683333333377
34879,31.90633558125,64,0.08192974791666785,69,0.08296683333333021
34880,31.99345075625,60,0.08711517499999744,67,0.08296683333333732
34881,32.073306333333335,63,0.07985557708333602,69,0.08296683333333021
34882,32.159384422916666,55,0.08607808958333152,67,0.08273023958333425
34883,32.23716582916666,62,0.07778140624999708,69,0.07681539583333574
34884,32.23924,43,0.0020741708333389397,79,0.9198919999999973
34885,32.316855887500004,55,0.07761588750000215,67,0.0766576666666623
34886,32.39063889166667,61,0.07378300416666406,69,0.0766576666666694
34887,32.469213,51,0.07857410833333489,67,0.0766576666666623
34888,32.54874532916667,60,0.07953232916666764,69,0.0766576666666623
34889,32.62061189166667,55,0.07186656249999857,67,0.0766576666666694
34890,32.7020606625,59,0.08144877083333313,69,0.0766576666666694
34891,32.774885445833334,51,0.07282478333333131,67,0.0766576666666694
34892,32.8515431125,58,0.0766576666666694,69,0.0766576666666623
34893,32.93107544166667,51,0.07953232916666764,67,0.0766576666666623
34894,33.00581666666667,57,0.0747412249999968,69,0.0766576666666694
34895,33.081516112500005,48,0.07569944583333665,67,0.0766576666666623
34896,33.159132,15,0.07761588749999504,80,0.23683599999999672
34897,33.16011881666667,56,0.000986816666667778,56,0.07894533333332987
34898,33.23906415,49,0.07894533333332987,56,0.07894533333333698
34899,33.31702266666667,55,0.0779585166666692,56,0.07894533333332987
34900,33.395967999999996,46,0.07894533333332987,51,0.07894533333333698
34901,33.47590015,54,0.07993215000000475,56,0.07894533333332987
34902,33.55484548333333,49,0.07894533333332987,51,0.07892713333333745
34903,33.632804,31,0.0779585166666692,69,0.34870200000000295
34904,33.63570985,53,0.002905849999997656,56,0.07748933333333241
34905,33.71223056666667,46,0.07652071666667126,51,0.07748933333333241
34906,33.78875128333333,52,0.07652071666666416,56,0.07748933333333241
34907,33.867209233333334,49,0.07845795000000066,51,0.07748933333333241
34908,33.94372995,51,0.07652071666666416,56,0.07748933333333241
34909,33.981506,31,0.03777605000000506,61,0.11623399999999862
34910,34.02025066666667,46,0.038744666666666205,51,0.07748933333333241
34911,34.09677138333333,50,0.07652071666666416,56,0.07892713333333745
34912,34.09774,31,0.0009686166666682539,70,0.47367200000000054
34913,34.17865896666667,46,0.08091896666666543,50,0.07894533333333698
34914,34.256617483333336,49,0.0779585166666692,55,0.07894533333332987
34915,34.33753645,43,0.08091896666666543,49,0.07894533333332987
34916,34.41253451666667,48,0.07499806666666586,53,0.07894533333333698
34917,34.491479850000005,39,0.07894533333333698,47,0.07894533333332987
34918,34.571412,32,0.07993214999999765,62,0.46493600000000157
34919,34.57238061666667,47,0.0009686166666682539,50,0.07748933333333241
34920,34.65083856666667,37,0.07845795000000066,46,0.07748933333333241
34921,34.727359283333335,46,0.07652071666666416,49,0.07748933333333241
34922,34.80388,39,0.07652071666666416,46,0.07748933333333952
34923,34.88136933333334,45,0.07748933333333952,47,0.07748933333333241
34924,34.956921433333335,37,0.0755520999999959,45,0.07748933333333241
34925,35.036348000000004,31,0.07942656666666892,58,0.47188400000000286
34926,35.038314183333334,44,0.001966183333330207,47,0.07864733333333618
34927,35.115978425,39,0.07766424166666752,45,0.07864733333333618
34928,35.19462575833334,43,0.07864733333333618,47,0.07864733333333618
34929,35.274256183333335,37,0.07963042499999773,45,0.07864733333333618
34930,35.35290351666667,42,0.07864733333333618,46,0.07864733333332907
34931,35.42761848333334,39,0.07471496666666866,44,0.07864733333332907
34932,35.50823200000001,27,0.08061351666666638,58,1.425348999999997
34933,35.509257010416675,41,0.0010250104166686924,45,0.08200083333333197
34934,35.59330786458334,34,0.08405085416666225,42,0.08200083333333907
34935,35.67530869791668,40,0.08200083333333907,45,0.08200083333333197
34936,35.75525951041667,37,0.07995081249999458,40,0.08200083333333197
34937,35.83828535416667,39,0.08302584375000066,44,0.08200083333333197
34938,35.91618614583334,34,0.07790079166667141,39,0.08200083333333197
34939,36.000237000000006,31,0.08405085416666225,58,0.9333439999999982
34940,36.00218146666667,38,0.0019444666666643684,44,0.0777786666666671
34941,36.08093236666667,34,0.07875090000000284,42,0.0777786666666671
34942,36.154822100000004,39,0.07388973333333126,47,0.0777786666666671
34943,36.234545233333336,37,0.07972313333333148,45,0.0777786666666671
34944,36.31037943333334,40,0.07583420000000274,49,0.0777786666666671
34945,36.388158100000005,34,0.0777786666666671,47,0.0777786666666671
34946,36.46496453333334,41,0.07680643333333137,53,0.0777786666666671
34947,36.547604366666675,37,0.08263983333333869,49,0.07777866666666
34948,36.625383033333335,42,0.07777866666666,56,0.0777786666666671
34949,36.702189466666674,34,0.07680643333333848,53,0.0777786666666671
34950,36.776079200000005,43,0.07388973333333126,59,0.0777786666666671
34951,36.85483010000001,37,0.07875090000000284,56,0.0777786666666671
34952,36.93163653333334,48,0.07680643333333137,59,0.07891616666666579
34953,36.933581000000004,15,0.0019444666666643684,74,0.23683599999999672
34954,37.010552700000005,43,0.07697170000000142,59,0.07894533333332987
34955,37.09245848333334,46,0.0819057833333332,59,0.07894533333332987
34956,37.172390633333336,49,0.07993214999999765,59,0.07894533333333698
34957,37.250349150000005,60,0.0779585166666692,59,0.07894533333332987
34958,37.32830766666667,55,0.07795851666666209,59,0.07894533333333698
34959,37.407253000000004,34,0.07894533333333698,61,0.1544283333333354
34960,37.48350198958334,61,0.07624898958333404,59,0.07721416666666414
34961,37.56168133333334,26,0.07817934375000135,62,0.15442833333332828
34962,37.63986067708334,67,0.07817934375000135,62,0.07721416666666414
34963,37.71417931250001,70,0.07431863541666672,64,0.07721416666666414
34964,37.71610966666667,27,0.0019303541666602086,63,0.1544283333333354
34965,37.79235865625,61,0.07624898958333404,66,0.07721416666667125
34966,37.870538,28,0.07817934375000135,69,0.46328499999999906
34967,37.87246835416667,72,0.001930354166667314,67,0.07721416666666414
34968,37.94678698958334,66,0.07431863541666672,67,0.07721416666666414
34969,38.026896687500006,70,0.08010969791666867,66,0.07721416666666414
34970,38.10507603125001,61,0.07817934375000135,64,0.07721416666666414
34971,38.18229019791667,60,0.07721416666666414,64,0.07721416666666414
34972,38.258539187500006,54,0.07624898958333404,62,0.0772427541666616
34973,38.33285782291667,58,0.07431863541666672,62,0.07834337291666316
34974,38.333823,28,0.0009651770833301043,72,0.47014599999999973
34975,38.41511907916667,49,0.0812960791666697,59,0.07835766666666188
34976,38.48857939166667,48,0.0734603124999964,59,0.07835766666666899
34977,38.56693705833334,42,0.07835766666666899,59,0.07835766666666188
34978,38.649212608333336,46,0.08227554999999853,59,0.07835766666666899
34979,38.72659080416667,37,0.07737819583333305,59,0.07835766666666899
34980,38.803969,29,0.07737819583333305,77,0.23507299999999987
34981,38.80494847083334,48,0.000979470833335938,59,0.07835766666666188
34982,38.88526507916667,41,0.08031660833333376,59,0.07835766666666188
34983,38.95872539166667,46,0.0734603124999964,59,0.07835766666666899
34984,39.0419804125,49,0.08325502083333447,59,0.07835766666666899
34985,39.1183791375,60,0.07639872499999711,59,0.07835766666666899
34986,39.194777862500004,53,0.07639872500000422,59,0.07835766666666188
34987,39.27215605833334,58,0.07737819583333305,59,0.0772427541666616
34988,39.274115,34,0.0019589416666647708,63,0.1544283333333354
34989,39.35229434375,61,0.07817934375000135,59,0.07721416666666414
34990,39.42757815625,72,0.07528381249999683,60,0.07721416666667125
34991,39.42854333333334,26,0.0009651770833372098,63,0.15442833333332828
34992,39.50479232291667,65,0.07624898958333404,62,0.07721416666666414
34993,39.582971666666666,28,0.07817934374999425,63,0.11582125000000332
34994,39.58586719791667,70,0.002895531250004524,66,0.07721416666666414
34995,39.66115101041667,61,0.07528381249999683,68,0.07721416666667125
34996,39.693967031250004,30,0.032816020833337234,70,0.5067179687499959
34997,39.708444687500005,34,0.014477656250001303,70,0.49224031249999456
34998,39.72292234375,37,0.014477656249994197,58,0.47776265625000036
34999,39.7374,42,0.014477656250001303,58,0.46328499999999906
35000,39.73836517708334,72,0.0009651770833372098,69,0.07721416666666414
35001,39.812683812500005,64,0.07431863541666672,69,0.07721416666666414
35002,39.891828333333336,70,0.07914452083333146,68,0.07721416666666414
35003,39.9690425,61,0.07721416666666414,67,0.07721416666667125
35004,40.04625666666667,60,0.07721416666667125,66,0.07721416666666414
35005,40.1254011875,52,0.07914452083333146,64,0.07724999583332703
35006,40.200685,30,0.07528381249999683,72,0.47188400000000286
35007,40.20166809166667,58,0.0009830916666686562,59,0.07864733333332907
35008,40.279332333333336,49,0.07766424166666752,59,0.07864733333332907
35009,40.35994585,48,0.08061351666666638,59,0.07864733333332907
35010,40.43761009166667,40,0.07766424166666752,59,0.07864733333332907
35011,40.516257425,46,0.07864733333332907,59,0.07864733333333618
35012,40.59392166666667,37,0.07766424166666752,59,0.07864733333333618
35013,40.670602816666666,48,0.07668114999999887,59,0.07864733333333618
35014,40.672569,31,0.0019661833333373124,80,0.23594199999999432
35015,40.75318251666667,39,0.08061351666666638,59,0.07864733333332907
35016,40.82789748333333,46,0.07471496666666155,59,0.07864733333333618
35017,40.909494091666666,37,0.08159660833333504,59,0.07864733333333618
35018,40.99010760833333,51,0.08061351666666638,59,0.07864733333333618
35019,41.06580566666667,48,0.07569805833333731,59,0.07864733333332907
35020,41.144453,39,0.07864733333332907,88,0.3539129999999986
35021,41.146419183333336,49,0.0019661833333373124,61,0.07864733333332907
35022,41.223100333333335,46,0.07668114999999887,62,0.07864733333332907
35023,41.301747666666664,60,0.07864733333332907,64,0.07864733333333618
35024,41.38236118333333,51,0.08061351666666638,64,0.07864733333333618
35025,41.460025425,58,0.07766424166666752,64,0.07864733333333618
35026,41.498366,39,0.03834057499999943,79,0.11797100000000427
35027,41.537689666666665,49,0.03932366666666809,64,0.07864733333333618
35028,41.616337,39,0.07864733333333618,88,0.47188399999999575
35029,41.619286275,63,0.0029492749999988632,64,0.07864733333333618
35030,41.695967425,60,0.07668114999999887,64,0.07864733333333618
35031,41.772648575,61,0.07668114999999887,62,0.07864733333333618
35032,41.852279,58,0.07963042500000483,61,0.07864733333332907
35033,41.92896015,72,0.07668114999999887,61,0.07864733333332907
35034,42.01153985,63,0.08257969999999659,60,0.07864733333333618
35035,42.088221,27,0.07668114999999887,63,0.47188400000000286
35036,42.091170275,70,0.0029492750000059686,59,0.07864733333332907
35037,42.167851425,61,0.07668114999999887,59,0.07864733333332907
35038,42.24354948333333,75,0.07569805833333021,59,0.07864733333333618
35039,42.32317990833333,72,0.07963042499999773,59,0.07864733333333618
35040,42.40084415,73,0.07766424166666752,59,0.07864733333333618
35041,42.48244075833333,70,0.08159660833333504,59,0.07864733333333618
35042,42.55813881666667,77,0.07569805833333731,59,0.07864733333332907
35043,42.560105,32,0.001966183333330207,70,0.23594200000000143
35044,42.641701608333335,72,0.08159660833333504,59,0.07864733333332907
35045,42.720348941666664,75,0.07864733333332907,59,0.07864733333333618
35046,42.79703009166667,68,0.07668115000000597,59,0.07864733333332907
35047,42.87666051666667,71,0.07963042499999773,59,0.07864733333332907
35048,42.956290941666666,68,0.07963042499999773,59,0.07860390833333497
35049,43.030022816666666,72,0.073731875,59,0.07751828333334032
35050,43.031989,48,0.0019661833333373124,74,0.34870200000000295
35051,43.107541100000006,63,0.07555210000000301,59,0.07748933333333241
35052,43.188904900000004,67,0.08136379999999832,59,0.07748933333333241
35053,43.26542561666667,63,0.07652071666666416,59,0.07748933333333241
35054,43.34097771666667,68,0.07555210000000301,59,0.07748933333333241
35055,43.380691000000006,36,0.03971328333333446,67,1.0461059999999947
35056,43.417498433333336,60,0.0368074333333297,59,0.07748933333333241
35057,43.495956383333336,64,0.07845795000000066,59,0.07748933333333241
35058,43.496925000000005,41,0.0009686166666682539,70,0.929871999999996
35059,43.575382950000005,60,0.07845795000000066,59,0.07748933333333241
35060,43.65190366666667,65,0.07652071666666416,59,0.07748933333333241
35061,43.72842438333333,56,0.07652071666666416,59,0.07748933333333952
35062,43.806882333333334,59,0.07845795000000066,59,0.07748933333333241
35063,43.845627,43,0.038744666666666205,67,0.11623400000000572
35064,43.885340283333335,56,0.03971328333333446,59,0.07748933333333241
35065,43.961861000000006,44,0.07652071666667126,70,0.46493599999999446
35066,43.963798233333335,60,0.0019372333333294023,59,0.07748933333333241
35067,44.04128756666667,53,0.07748933333333241,59,0.07748933333333241
35068,44.11780828333334,55,0.07652071666667126,59,0.07748933333333241
35069,44.19529761666667,53,0.07748933333333241,59,0.07748933333333241
35070,44.27375556666667,56,0.07845795000000066,59,0.07748933333333241
35071,44.35221351666667,48,0.07845795000000066,59,0.07754393333333098
35072,44.42485976666667,55,0.07264624999999825,59,0.07890893333333082
35073,44.426797,22,0.0019372333333294023,77,0.23683599999999672
35074,44.50672915,50,0.07993214999999765,59,0.07894533333333698
35075,44.58468766666667,53,0.0779585166666692,59,0.07894533333332987
35076,44.66264618333334,56,0.0779585166666692,59,0.07894533333332987
35077,44.7406047,67,0.07795851666666209,59,0.07894533333333698
35078,44.82448411666667,62,0.08387941666666876,59,0.07890158333333375
35079,44.898495366666666,65,0.07401124999999809,55,0.0778078333333383
35080,44.900469,38,0.001973633333335556,70,0.46667200000000264
35081,44.97824766666667,68,0.0777786666666671,53,0.0777786666666671
35082,45.056026333333335,44,0.0777786666666671,63,0.1555573333333342
35083,45.05699856666667,79,0.0009722333333357369,55,0.07777866666666
35084,45.13283276666667,74,0.07583419999999563,56,0.0777786666666671
35085,45.21158366666667,48,0.07875090000000284,63,0.1555573333333342
35086,45.2125559,77,0.0009722333333286315,57,0.0777786666666671
35087,45.2883901,68,0.07583420000000274,58,0.0777786666666671
35088,45.36616876666667,72,0.0777786666666671,57,0.0777786666666671
35089,45.367141000000004,46,0.0009722333333357369,70,0.46667199999999553
35090,45.4429752,68,0.07583419999999563,57,0.0777786666666671
35091,45.5246428,70,0.08166760000000295,56,0.0777786666666671
35092,45.598532533333334,62,0.07388973333333126,56,0.0777786666666671
35093,45.677283433333336,60,0.07875090000000284,55,0.0777786666666671
35094,45.757978800000004,56,0.08069536666666721,55,0.07781518333332826
35095,45.833813,44,0.07583419999999563,68,0.47543600000000197
35096,45.836784475,58,0.002971475000002499,55,0.07923933333333366
35097,45.915033316666666,50,0.0782488416666638,59,0.07923933333333366
35098,45.99427265,67,0.07923933333333366,59,0.07923933333333366
35099,46.07252149166666,58,0.0782488416666638,59,0.07923933333333366
35100,46.150770333333334,65,0.0782488416666709,59,0.07923933333333366
35101,46.23298114166666,56,0.08221080833332906,59,0.07923933333333366
35102,46.30825850833333,62,0.0752773666666684,59,0.07923933333333366
35103,46.309249,27,0.0009904916666698682,72,0.23771800000000098
35104,46.39145980833333,58,0.08221080833332906,59,0.07923933333333366
35105,46.466737175,63,0.0752773666666684,59,0.07923933333333366
35106,46.54597650833333,55,0.07923933333333366,59,0.07923933333333366
35107,46.627196825,66,0.08122031666666629,59,0.07923933333333366
35108,46.665825999999996,27,0.03862917499999696,55,0.5942950000000025
35109,46.708417141666665,63,0.04259114166666933,59,0.07923933333333366
35110,46.725255499999996,34,0.016838358333330916,55,0.5348655000000022
35111,46.78270401666666,67,0.057448516666667615,59,0.07923933333333366
35112,46.784684999999996,43,0.001980983333332631,63,0.47543600000000197
35113,46.86194335,58,0.07725835000000103,59,0.07923933333333366
35114,46.94415415833333,69,0.08221080833333616,59,0.07923933333333366
35115,47.022403,67,0.0782488416666638,55,0.07923933333333366
35116,47.09966135,70,0.07725835000000103,59,0.07923933333333366
35117,47.179891175,63,0.08022982500000353,55,0.07923933333333366
35118,47.263092475,73,0.08320129999999892,59,0.07923933333333366
35119,47.33836984166667,70,0.0752773666666684,51,0.07923933333332656
35120,47.41661868333333,74,0.0782488416666638,58,0.07923933333333366
35121,47.495858016666666,67,0.07923933333333366,55,0.07923933333333366
35122,47.580049808333335,75,0.08419179166666879,59,0.07923933333333366
35123,47.654336683333334,70,0.07428687499999853,58,0.07923933333333366
35124,47.73357601666667,76,0.07923933333333366,61,0.07923933333333366
35125,47.81281535,67,0.07923933333333366,59,0.07923933333333366
35126,47.89403566666667,77,0.08122031666666629,64,0.07923933333333366
35127,47.976246474999996,70,0.08221080833332906,62,0.07923933333333366
35128,48.052514333333335,78,0.07626785833333827,69,0.07923933333333366
35129,48.13175366666667,67,0.07923933333333366,67,0.07923933333333366
35130,48.210993,7,0.07923933333333366,90,0.24135150000000039
35131,48.21400989375,79,0.003016893750000804,89,0.08045049999999776
35132,48.29446039375,74,0.08045049999999776,64,0.08045050000000487
35133,48.37289963125,78,0.07843923749999959,75,0.08045050000000487
35134,48.45536139375,70,0.08246176250000303,64,0.08045049999999776
35135,48.534806262500005,77,0.07944486875000223,73,0.08045049999999776
35136,48.613245500000005,74,0.07843923749999959,64,0.08045049999999776
35137,48.69269036875,76,0.07944486874999512,61,0.0775263479166668
35138,48.693696,38,0.0010056312500026365,77,0.34870200000000295
35139,48.769248100000006,70,0.07555210000000301,59,0.07748933333333241
35140,48.849643283333336,75,0.08039518333333007,61,0.07748933333333241
35141,48.929069850000005,70,0.07942656666666892,59,0.07748933333333241
35142,49.00365333333334,74,0.07458348333333475,61,0.07748933333333241
35143,49.042398000000006,38,0.038744666666666205,72,0.11623399999999862
35144,49.080174050000004,67,0.03777604999999795,59,0.07748933333333241
35145,49.158632000000004,38,0.07845795000000066,77,0.47014599999999973
35146,49.15961147083334,73,0.000979470833335938,69,0.07835766666666188
35147,49.23601019583334,70,0.07639872499999711,64,0.07835766666666899
35148,49.31730627500001,72,0.0812960791666697,69,0.07835766666666188
35149,49.396643412500005,67,0.07933713749999782,64,0.07835766666666899
35150,49.47206266666667,71,0.07541925416666828,69,0.07835766666666188
35151,49.553358745833336,67,0.0812960791666626,64,0.0782729166666698
35152,49.62681905833334,70,0.07346031250000351,69,0.07615416666666164
35153,49.628778000000004,39,0.0019589416666647708,80,0.4565860000000015
35154,49.70772932916667,63,0.0789513291666637,59,0.07609766666666928
35155,49.78192455416667,69,0.07419522500000397,61,0.07609766666666218
35156,49.85897344166667,63,0.07704888749999839,59,0.07609766666666928
35157,49.9341198875,68,0.07514644583333308,61,0.07609766666666928
35158,50.00736389166667,58,0.07324400416666776,59,0.07609766666666928
35159,50.08441277916667,67,0.07704888749999839,69,0.07861546250000373
35160,50.085364000000006,38,0.0009512208333362082,77,0.47188400000000286
35161,50.16401133333334,62,0.07864733333333618,64,0.07864733333332907
35162,50.24069248333334,66,0.07668114999999887,69,0.07864733333332907
35163,50.32130600000001,58,0.08061351666666638,64,0.07864733333332907
35164,50.397987150000006,65,0.07668114999999887,69,0.07864733333333618
35165,50.47958375833334,62,0.08159660833333504,64,0.07870132708333699
35166,50.55724800000001,34,0.07766424166666752,72,0.4978010000000026
35167,50.56035925625001,64,0.003111256250001304,61,0.08296683333333021
35168,50.63814066250001,58,0.07778140624999708,59,0.08296683333333732
35169,50.72525583750001,63,0.08711517500000099,61,0.08296683333333732
35170,50.807185585416676,58,0.08192974791666785,59,0.08296683333333021
35171,50.891189504166675,62,0.08400391874999968,61,0.08296683333333021
35172,50.974156337500006,55,0.08296683333333021,59,0.08280910416667098
35173,51.05504900000001,38,0.08089266250000549,72,0.9198919999999973
35174,51.056007220833344,61,0.0009582208333327458,69,0.0766576666666694
35175,51.133623108333346,58,0.07761588750000215,64,0.0766576666666623
35176,51.20644789166668,60,0.07282478333333131,69,0.0766576666666694
35177,51.28693844166668,55,0.08049055000000038,64,0.0766576666666694
35178,51.36359610833335,59,0.0766576666666694,69,0.0766576666666623
35179,51.44025377500001,55,0.0766576666666623,64,0.0766576666666694
35180,51.51307855833335,58,0.07282478333333842,69,0.0766576666666623
35181,51.59452732916668,50,0.08144877083333313,59,0.0766576666666623
35182,51.66926855416668,57,0.0747412249999968,61,0.0766576666666694
35183,51.74688444166668,50,0.07761588750000215,59,0.0766576666666623
35184,51.81970922500001,56,0.07282478333333131,61,0.0766576666666694
35185,51.89924155416668,46,0.07953232916666764,59,0.07668626249999733
35186,51.97494100000001,7,0.07569944583332955,74,0.23683599999999672
35187,51.97790145000001,55,0.002960450000003334,59,0.07894533333332987
35188,52.05191270000001,50,0.07401124999999809,55,0.07894533333332987
35189,52.13184485000001,54,0.07993214999999765,59,0.07894533333333698
35190,52.20980336666668,46,0.0779585166666692,55,0.07894533333332987
35191,52.29368278333334,53,0.08387941666666165,59,0.07894533333333698
35192,52.37065448333334,50,0.07697170000000142,55,0.07892713333333745
35193,52.44762618333334,52,0.07697170000000142,59,0.07750753333333193
35194,52.44861300000001,26,0.000986816666667778,69,0.34870200000000295
35195,52.52900818333334,46,0.08039518333333007,55,0.07748933333333952
35196,52.603591666666674,51,0.07458348333333475,59,0.07748933333333241
35197,52.68301823333334,46,0.07942656666666892,55,0.07748933333333241
35198,52.75760171666668,50,0.07458348333333475,59,0.07748933333333241
35199,52.79731500000001,26,0.03971328333333446,61,0.11623399999999862
35200,52.83412243333334,43,0.0368074333333297,55,0.07748933333333241
35201,52.91258038333334,49,0.07845795000000066,59,0.07892713333333745
35202,52.91354900000001,26,0.0009686166666682539,70,0.47367200000000054
35203,52.99348115000001,46,0.07993214999999765,55,0.07894533333333698
35204,53.07440011666668,48,0.08091896666667253,59,0.07894533333332987
35205,53.14841136666668,43,0.07401124999999809,55,0.07894533333332987
35206,53.23229078333334,47,0.08387941666666165,59,0.07894533333333698
35207,53.308275666666674,43,0.07598488333333364,55,0.07894533333333698
35208,53.385247366666675,46,0.07697170000000142,59,0.07591568333333498
35209,53.38722100000001,27,0.001973633333335556,62,0.45502799999999866
35210,53.46495495000001,39,0.0777339500000025,55,0.07583799999999741
35211,53.53794902500001,45,0.07299407499999688,59,0.07583799999999741
35212,53.61757892500001,39,0.07962990000000048,55,0.07583799999999741
35213,53.69246895000001,44,0.07489002500000197,59,0.07583799999999741
35214,53.76925492500001,34,0.07678597499999995,55,0.07594334999999575
35215,53.841301025000014,43,0.07204610000000145,55,0.07861221666666296
35216,53.84224900000001,26,0.0009479749999954379,63,0.47188400000000286
35217,53.920896333333346,38,0.07864733333333618,50,0.07864733333332907
35218,53.997577483333345,42,0.07668114999999887,53,0.07864733333332907
35219,54.08015718333334,34,0.08257969999999659,47,0.07864733333333618
35220,54.15487215000001,41,0.07471496666666866,50,0.07864733333333618
35221,54.235485666666676,38,0.08061351666666638,46,0.07864733333333618
35222,54.313149908333344,40,0.07766424166666752,49,0.08195891458333193
35223,54.31413300000001,7,0.0009830916666686562,55,1.425348999999997
35224,54.39920886458334,34,0.08507586458333094,45,0.08200083333333907
35225,54.476084645833346,39,0.07687578125000272,47,0.08200083333333197
35226,54.55911048958335,34,0.08302584375000066,45,0.08200083333333197
35227,54.64111132291668,38,0.08200083333333197,46,0.08200083333333197
35228,54.72311215625001,31,0.08200083333333197,42,0.08200083333333197
35229,54.80408797916668,37,0.08097582291667038,45,0.07788422083333302
35230,54.80613800000001,14,0.0020500208333302794,58,0.9333439999999982
35231,54.884888900000014,34,0.07875090000000284,45,0.0777786666666671
35232,54.964612033333346,36,0.07972313333333148,47,0.0777786666666671
35233,55.04239070000001,26,0.0777786666666671,45,0.0777786666666671
35234,55.116280433333344,35,0.07388973333333126,47,0.0777786666666671
35235,55.19697580000001,31,0.08069536666666721,46,0.0777786666666671
35236,55.27378223333334,34,0.07680643333333137,49,0.0777786666666671
35237,55.35156090000001,26,0.0777786666666671,46,0.0777786666666671
35238,55.43128403333334,33,0.07972313333333148,49,0.0777786666666671
35239,55.50614600000001,31,0.074861966666667,46,0.0777786666666671
35240,55.586841366666675,34,0.08069536666666721,50,0.0777786666666671
35241,55.66267556666668,27,0.07583420000000274,50,0.07781571874999571
35242,55.737537533333345,38,0.074861966666667,59,0.08066872916666767
35243,55.73948200000001,6,0.0019444666666643684,70,0.24222850000000307
35244,55.82123411875001,33,0.08175211875000343,59,0.08074283333333199
35245,55.901976952083345,36,0.08074283333333199,59,0.08074283333333199
35246,55.98171050000001,39,0.07973354791666765,59,0.08074283333333199
35247,56.065481189583345,50,0.08377068958333211,59,0.08074283333333199
35248,56.14420545208334,45,0.0787242624999962,59,0.08070934791666673
35249,56.22393900000001,30,0.07973354791666765,77,0.3512879999999967
35250,56.22491480000001,48,0.000975799999999083,62,0.07806399999999769
35251,56.302978800000005,51,0.07806399999999769,66,0.0780640000000048
35252,56.37909120000001,62,0.07611240000000663,67,0.07806399999999769
35253,56.45813100000001,57,0.07903979999999677,69,0.07806399999999769
35254,56.536195000000006,60,0.07806399999999769,69,0.0780640000000048
35255,56.575227000000005,30,0.039031999999998845,73,0.11709600000000364
35256,56.612307400000006,51,0.03708040000000068,69,0.0780640000000048
35257,56.69232300000001,39,0.08001560000000296,77,0.46838400000000036
35258,56.69427460000001,60,0.001951599999998166,68,0.0780640000000048
35259,56.76941120000001,55,0.07513660000000044,67,0.07806399999999769
35260,56.846499400000006,58,0.07708819999999861,66,0.0780640000000048
35261,56.92651500000001,51,0.08001560000000296,62,0.07806399999999769
35262,57.005554800000006,48,0.07903979999999677,61,0.0780640000000048
35263,57.080691400000006,43,0.07513660000000044,60,0.0780640000000048
35264,57.15973120000001,46,0.07903980000000388,58,0.07893431666666828
35265,57.16070700000001,19,0.000975799999999083,77,0.47367200000000054
35266,57.23767870000001,39,0.07697170000000142,58,0.07894533333332987
35267,57.319584483333344,36,0.0819057833333332,58,0.07894533333332987
35268,57.397543000000006,31,0.07795851666666209,58,0.07894533333333698
35269,57.47747515000001,34,0.07993215000000475,58,0.07894533333332987
35270,57.55740730000001,27,0.07993214999999765,58,0.07897506666666487
35271,57.63437900000001,18,0.07697170000000142,67,0.24040399999999806
35272,57.716517033333346,33,0.08213803333333658,59,0.08013466666666602
35273,57.79464833333334,36,0.07813129999999546,59,0.08013466666666602
35274,57.87778805000001,39,0.08313971666666475,59,0.08013466666667313
35275,57.95591935000001,50,0.07813130000000257,59,0.08013466666666602
35276,58.03405065000001,45,0.07813130000000257,59,0.08013466666666602
35277,58.11518700000001,30,0.0811363500000013,77,0.16722399999999737
35278,58.118322450000015,48,0.003135450000002038,64,0.08361199999999513
35279,58.20193445000001,51,0.08361199999999513,66,0.08361200000000224
35280,58.28241100000001,30,0.0804765500000002,72,0.24388133333333428
35281,58.36902805000001,57,0.08661705000000097,68,0.08013466666666602
35282,58.44515598333334,60,0.07612793333333201,69,0.08013466666666602
35283,58.526292333333345,38,0.0811363500000013,73,0.08013466666666602
35284,58.52929738333334,50,0.0030050499999987323,70,0.08013466666666602
35285,58.60642700000001,31,0.07712961666666729,77,0.48080800000000323
35286,58.607428683333346,60,0.0010016833333352793,70,0.08013466666666602
35287,58.68656166666668,55,0.07913298333333074,69,0.08013466666666602
35288,58.76769801666668,58,0.0811363500000013,68,0.08013466666666602
35289,58.84883436666668,50,0.0811363500000013,67,0.08013466666666602
35290,58.92496230000001,48,0.07612793333333201,66,0.08013466666666602
35291,59.00609865000001,43,0.0811363500000013,64,0.08013466666666602
35292,59.08623331666668,46,0.08013466666666602,59,0.07837987916666833
35293,59.087235000000014,19,0.0010016833333352793,79,0.47014599999999973
35294,59.16559266666668,38,0.07835766666666899,59,0.07835766666666188
35295,59.246888745833346,36,0.0812960791666626,59,0.07835766666666899
35296,59.32426694166668,31,0.07737819583333305,59,0.07835766666666899
35297,59.40262460833335,34,0.07835766666666899,59,0.07835766666666899
35298,59.481961745833345,33,0.07933713749999782,59,0.07835766666666899
35299,59.557381000000014,9,0.07541925416666828,69,0.23507299999999987
35300,59.63573866666668,38,0.07835766666666899,58,0.07835766666666188
35301,59.717034745833345,42,0.0812960791666626,58,0.07835766666666899
35302,59.79147452916668,45,0.07443978333333234,58,0.07835766666666899
35303,59.87081166666668,55,0.07933713750000493,58,0.07835766666666188
35304,59.95014880416668,50,0.07933713749999782,58,0.07835042916666879
35305,60.02752700000001,38,0.07737819583333305,70,0.46667200000000264
35306,60.107250133333345,57,0.07972313333333148,58,0.0777786666666671
35307,60.18308433333335,42,0.07583420000000274,66,0.1555573333333342
35308,60.18502880000001,67,0.0019444666666643684,59,0.0777786666666671
35309,60.26280746666668,62,0.0777786666666671,59,0.0777786666666671
35310,60.33864166666668,47,0.07583420000000274,70,0.1555573333333342
35311,60.340586133333346,66,0.0019444666666643684,61,0.0777786666666671
35312,60.41447586666668,57,0.07388973333333126,62,0.0777786666666671
35313,60.49322676666668,66,0.07875090000000284,64,0.0777786666666671
35314,60.494199000000016,45,0.0009722333333357369,70,0.46667199999999553
35315,60.57100543333335,61,0.07680643333333137,64,0.0777786666666671
35316,60.651700800000015,64,0.08069536666666721,61,0.0777786666666671
35317,60.73045170000001,57,0.07875089999999574,60,0.0777786666666671
35318,60.80531366666668,54,0.074861966666667,59,0.0777786666666671
35319,60.88406456666668,49,0.07875090000000284,59,0.07780062708333446
35320,60.95892653333335,52,0.074861966666667,55,0.07949157916666394
35321,60.96087100000001,21,0.0019444666666643684,77,0.477212999999999
35322,61.04338908125001,45,0.08251808125000082,55,0.07953549999999865
35323,61.11894780625001,42,0.07555872500000049,55,0.07953549999999865
35324,61.20047169375001,37,0.08152388749999773,55,0.07953549999999865
35325,61.28000719375001,40,0.07953549999999865,55,0.07953550000000575
35326,61.35854850000001,33,0.07854130625000266,55,0.07953549999999865
35327,61.43808400000001,26,0.07953549999999865,77,0.23860650000000305
35328,61.44007238750001,42,0.001988387499999078,55,0.07953549999999865
35329,61.51563111250001,38,0.07555872500000049,55,0.07953549999999865
35330,61.59516661250001,42,0.07953549999999865,55,0.07953550000000575
35331,61.674702112500015,45,0.07953550000000575,55,0.07953549999999865
35332,61.75423761250001,55,0.07953549999999865,55,0.07953549999999865
35333,61.83576150000001,50,0.08152388749999773,55,0.07953549999999865
35334,61.914302806250014,54,0.07854130625000266,55,0.07953549999999865
35335,61.91529700000001,42,0.0009941937499959863,67,0.1590710000000044
35336,61.996820887500014,57,0.08152388750000483,59,0.07953549999999865
35337,62.072379612500015,67,0.07555872500000049,59,0.07953549999999865
35338,62.074368000000014,41,0.001988387499999078,58,0.1590709999999973
35339,62.15390350000001,62,0.07953549999999865,59,0.07953549999999865
35340,62.23145061250001,66,0.07754711249999957,59,0.07953549999999865
35341,62.23343900000001,42,0.001988387499999078,63,0.1590709999999973
35342,62.31496288750001,57,0.08152388749999773,59,0.07953549999999865
35343,62.39251000000001,74,0.07754711249999957,83,0.23860650000000305
35344,63.346936000000014,19,0.9544260000000051,90,0.24135150000000039
35345,63.34894726250001,75,0.0020112624999981676,94,0.08045050000000487
35346,63.426380868750016,70,0.07743360625000406,70,0.08045049999999776
35347,63.509848262500014,74,0.08346739374999856,90,0.08045049999999776
35348,63.58929313125002,67,0.07944486875000223,70,0.08045049999999776
35349,63.669743631250014,73,0.08045049999999776,88,0.08045049999999776
35350,63.75019413125001,70,0.08045049999999776,70,0.08041348541667048
35351,63.827627737500016,72,0.07743360625000406,85,0.07756336250000118
35352,63.829639000000014,38,0.0020112624999981676,77,0.34870200000000295
35353,63.908096950000015,67,0.07845795000000066,68,0.07748933333333241
35354,63.98268043333335,71,0.07458348333333475,84,0.0774893333333253
35355,64.06501285000002,67,0.08233241666666657,68,0.07748933333333241
35356,64.13959633333334,70,0.07458348333332765,80,0.07748933333333241
35357,64.17834100000002,38,0.03874466666667331,72,0.11623399999999151
35358,64.21999151666668,62,0.04165051666666386,68,0.07752189583332836
35359,64.29457500000001,38,0.07458348333332765,77,0.47014599999999973
35360,64.29653394166668,69,0.001958941666671876,81,0.07835766666666188
35361,64.37391213750001,62,0.07737819583333305,70,0.07835766666666188
35362,64.453249275,68,0.07933713749999072,77,0.0783576666666761
35363,64.53160694166668,58,0.0783576666666761,70,0.07835766666666188
35364,64.60800566666667,67,0.07639872499999001,77,0.0783576666666761
35365,64.68636333333335,62,0.0783576666666761,70,0.07835766666666188
35366,64.76276205833334,66,0.07639872499999001,77,0.07696471666666582
35367,64.76472100000001,39,0.001958941666671876,80,0.4615739999999988
35368,64.84357322500001,58,0.07885222500000566,68,0.0769289999999927
35369,64.9176173875,65,0.07404416249998746,73,0.07692900000000691
35370,64.993584775,58,0.07596738750000043,68,0.07692900000000691
35371,65.07147538750002,64,0.07789061250001339,70,0.0769289999999927
35372,65.15128922500001,55,0.07981383749999793,68,0.07697195833333126
35373,65.22533338750002,63,0.07404416250000168,77,0.07862585416665979
35374,65.22629500000001,38,0.0009616124999922704,77,0.47188400000000286
35375,65.30395924166667,58,0.07766424166666752,70,0.07864733333333618
35376,65.38358966666668,62,0.07963042500000483,77,0.07864733333332197
35377,65.46027081666668,55,0.07668114999999887,70,0.07864733333332197
35378,65.54088433333334,61,0.08061351666665928,77,0.07864733333333618
35379,65.62051475833334,58,0.07963042500000483,70,0.07870132708333699
35380,65.69817900000001,34,0.07766424166666752,72,0.4978009999999955
35381,65.69921608541668,60,0.0010370854166694699,77,0.08296683333333021
35382,65.78322000416668,55,0.08400391874999968,68,0.08296683333333021
35383,65.86411266666667,59,0.08089266249999127,70,0.08296683333334443
35384,65.94707950000002,55,0.08296683333334443,68,0.08296683333333021
35385,66.03315758958334,58,0.08607808958332441,70,0.08296683333334443
35386,66.11612442291668,50,0.08296683333334443,70,0.08273023958332715
35387,66.19598,38,0.0798555770833218,72,0.9198920000000044
35388,66.19693822083335,57,0.0009582208333398512,70,0.0766576666666623
35389,66.27551232916667,50,0.07857410833332779,68,0.0766576666666623
35390,66.34737889166668,56,0.07186656250000567,70,0.0766576666666623
35391,66.42691122083333,46,0.07953232916665343,68,0.0766576666666765
35392,66.50548532916667,55,0.078574108333342,70,0.0766576666666623
35393,66.57926833333335,50,0.07378300416667116,68,0.0766576666666623
35394,66.65496777916667,54,0.07569944583332244,70,0.0766576666666765
35395,66.73162544583334,46,0.0766576666666765,68,0.0766576666666623
35396,66.80732489166667,53,0.07569944583332244,70,0.0766576666666765
35397,66.88685722083333,46,0.07953232916666764,68,0.0766576666666765
35398,66.96255666666667,52,0.07569944583333665,70,0.0766576666666623
35399,67.03729789166667,43,0.0747412249999968,68,0.0766576666666765
35400,67.11395555833334,51,0.0766576666666765,61,0.07888814166666691
35401,67.11587200000001,10,0.0019164416666654915,62,0.23683599999999672
35402,67.19481733333335,46,0.07894533333333698,59,0.07894533333332276
35403,67.27672311666667,50,0.0819057833333261,61,0.07894533333333698
35404,67.35566845000001,43,0.07894533333333698,59,0.07894533333333698
35405,67.43165333333334,49,0.07598488333333364,61,0.07894533333333698
35406,67.51257230000002,46,0.08091896666667253,59,0.07890893333332372
35407,67.589544,26,0.07697169999998721,69,1.8754279999999852
35408,67.59051261666667,48,0.0009686166666682539,61,0.07748933333333241
35409,67.66897056666667,43,0.07845795000000066,59,0.07748933333333241
35410,67.74742851666667,47,0.07845795000000066,61,0.07748933333333241
35411,67.82298061666667,43,0.0755520999999959,59,0.07748933333333241
35412,67.90046995,46,0.07748933333333241,61,0.07748933333333241
35413,67.938246,26,0.03777605000000506,61,0.11623399999999151
35414,67.97505343333334,38,0.0368074333333368,59,0.07748933333333241
35415,68.05448,26,0.07942656666665471,70,0.47367199999999343
35416,68.05645363333333,45,0.001973633333335556,61,0.07894533333333698
35417,68.13342533333334,38,0.07697170000000142,58,0.07894533333332276
35418,68.21335748333333,44,0.07993214999999054,60,0.07894533333333698
35419,68.29230281666666,34,0.07894533333333698,56,0.07894533333333698
35420,68.37124815,43,0.07894533333333698,59,0.07894533333333698
35421,68.4511803,38,0.07993215000000475,55,0.07890893333332372
35422,68.52815199999999,27,0.07697169999998721,62,0.46493599999999446
35423,68.53008923333333,42,0.0019372333333365077,59,0.07748933333333241
35424,68.60564133333332,33,0.0755520999999959,53,0.07748933333333241
35425,68.68119343333332,41,0.0755520999999959,56,0.07748933333333241
35426,68.75965138333332,34,0.07845795000000066,51,0.07748933333333241
35427,68.83810933333332,40,0.07845795000000066,55,0.07748933333333241
35428,68.91463004999999,32,0.07652071666666416,49,0.07748933333334662
35429,68.99308799999999,26,0.07845795000000066,73,0.47188400000000286
35430,68.99505418333332,39,0.0019661833333373124,55,0.07864733333333618
35431,69.07173533333332,34,0.07668114999999887,50,0.07864733333333618
35432,69.15333194166665,38,0.08159660833332794,53,0.07864733333333618
35433,69.22706381666666,32,0.07373187500000711,49,0.07864733333332197
35434,69.30964351666665,37,0.08257969999999659,50,0.07864733333333618
35435,69.38730775833332,34,0.07766424166666752,47,0.07868925208333621
35436,69.46497199999999,10,0.07766424166666752,69,1.4253490000000113
35437,69.46804703125,36,0.0030750312500060772,49,0.08200083333332486
35438,69.54594782291666,29,0.0779007916666643,46,0.08200083333332486
35439,69.62999867708332,35,0.08405085416666225,49,0.08200083333333907
35440,69.71404953124998,32,0.08405085416666225,46,0.08200083333333907
35441,69.79502535416665,34,0.08097582291667038,49,0.08200083333333907
35442,69.87805119791666,26,0.08302584375000777,45,0.0818425020833331
35443,69.95595198958333,33,0.0779007916666643,49,0.07783144375000006
35444,69.956977,17,0.0010250104166686924,66,0.9333440000000053
35445,70.03767236666665,32,0.0806953666666601,46,0.07777866666667421
35446,70.1144788,34,0.07680643333334558,53,0.07777866666666
35447,70.19322969999999,26,0.07875089999998863,50,0.07777866666667421
35448,70.27100836666666,35,0.07777866666667421,56,0.07777866666666
35449,70.34878703333332,32,0.07777866666666,55,0.07777866666667421
35450,70.42462123333333,36,0.07583420000000274,59,0.07777866666667421
35451,70.50045543333333,29,0.07583420000000274,56,0.07777866666666
35452,70.58017856666666,37,0.07972313333333148,61,0.07777866666667421
35453,70.65601276666666,34,0.07583420000000274,59,0.07777866666666
35454,70.73379143333332,38,0.07777866666666,64,0.07777866666667421
35455,70.8144868,32,0.08069536666667432,64,0.0778078333333383
35456,70.890321,10,0.07583420000000274,75,0.23683599999999672
35457,70.89229463333334,43,0.001973633333335556,69,0.07894533333333698
35458,70.96827951666667,38,0.07598488333333364,69,0.07894533333333698
35459,71.0501853,41,0.0819057833333261,69,0.07894533333333698
35460,71.127157,44,0.07697170000000142,69,0.07894533333333698
35461,71.2041287,55,0.07697170000000142,69,0.07894533333333698
35462,71.2870213,50,0.08289260000000809,69,0.07890205416664742
35463,71.363993,38,0.07697169999998721,82,0.15442833333332828
35464,71.36688853125,53,0.002895531250004524,66,0.07721416666666414
35465,71.4392768125,56,0.07238828124999941,67,0.07721416666666414
35466,71.51745615624999,67,0.07817934374999425,69,0.07721416666666414
35467,71.51842133333332,21,0.0009651770833301043,73,0.1544283333333425
35468,71.59660067708333,62,0.07817934375000846,70,0.07721416666666414
35469,71.67284966666666,22,0.07624898958333404,79,0.15442833333332828
35470,71.75199418749999,56,0.07914452083332435,73,0.07721416666667835
35471,71.82631282291666,67,0.07431863541667383,77,0.07721416666666414
35472,71.82727799999999,37,0.0009651770833301043,82,0.46328499999999906
35473,71.90642252083333,61,0.07914452083333856,73,0.07721416666666414
35474,71.98460186458333,65,0.07817934374999425,72,0.07721416666666414
35475,72.05699014583332,56,0.07238828124999941,71,0.07721416666666414
35476,72.13709984375,55,0.08010969791666867,69,0.07721416666666414
35477,72.21527918749999,49,0.07817934374999425,69,0.07724275416667581
35478,72.28959782291666,53,0.07431863541667383,64,0.07834337291666316
35479,72.29056299999999,11,0.0009651770833301043,86,0.47014599999999973
35480,72.366961725,44,0.07639872500000422,64,0.07835766666666188
35481,72.44629886249999,43,0.07933713749999072,64,0.0783576666666761
35482,72.52759494166666,37,0.0812960791666768,64,0.07835766666666188
35483,72.60693207916665,41,0.07933713749999072,64,0.0783576666666761
35484,72.68333080416666,32,0.07639872500000422,64,0.07835766666666188
35485,72.76070899999999,12,0.07737819583333305,81,0.23507299999999987
35486,72.84102560833333,36,0.08031660833333376,69,0.07835766666666188
35487,72.91644486249999,41,0.07541925416666118,69,0.0783576666666761
35488,72.99676147083332,44,0.08031660833333376,69,0.0783576666666761
35489,73.07316019583332,55,0.07639872500000422,69,0.07835766666666188
35490,73.15151786249999,48,0.07835766666666188,69,0.0783576666666761
35491,73.23085499999999,41,0.07933713750000493,80,0.15442833333332828
35492,73.23375053125,53,0.002895531250004524,68,0.07721416666666414
35493,73.30710398958333,56,0.07335345833332951,68,0.07721416666666414
35494,73.38335297916666,67,0.07624898958333404,69,0.07721416666666414
35495,73.38528333333332,23,0.0019303541666602086,73,0.1544283333333425
35496,73.46442785416666,60,0.07914452083333856,70,0.07721416666666414
35497,73.53778131249999,65,0.07335345833332951,71,0.07721416666666414
35498,73.53971166666666,24,0.0019303541666744195,79,0.15442833333332828
35499,73.61499547916665,56,0.07528381249998972,72,0.07721416666667835
35500,73.69220964583333,67,0.07721416666667835,73,0.07721416666666414
35501,73.69413999999999,41,0.0019303541666602086,82,0.46328499999999906
35502,73.77135416666665,59,0.07721416666666414,72,0.07721416666666414
35503,73.84953351041666,65,0.07817934375000846,71,0.07721416666666414
35504,73.9257825,56,0.07624898958333404,70,0.07721416666666414
35505,74.00299666666666,55,0.07721416666666414,69,0.07721416666666414
35506,74.08021083333333,47,0.07721416666666414,69,0.07721416666666414
35507,74.15549464583333,53,0.07528381250000393,64,0.07861150416665907
35508,74.15742499999999,13,0.0019303541666602086,94,0.47188400000000286
35509,74.237055425,44,0.07963042500000483,64,0.07864733333332197
35510,74.31668584999998,43,0.07963042499999062,64,0.07864733333333618
35511,74.39336699999998,35,0.07668114999999887,64,0.07864733333333618
35512,74.47299742499999,41,0.07963042500000483,64,0.07864733333333618
35513,74.55361094166666,32,0.08061351666667349,64,0.07864733333332197
35514,74.62930899999999,14,0.07569805833333021,90,0.23594199999999432
35515,74.63029209166666,43,0.0009830916666686562,69,0.07864733333332197
35516,74.70893942499998,34,0.07864733333332197,69,0.07864733333333618
35517,74.78463748333333,41,0.07569805833334442,69,0.07864733333332197
35518,74.86525099999999,32,0.08061351666665928,69,0.07864733333333618
35519,74.94291524166665,46,0.07766424166666752,69,0.07864733333333618
35520,75.02254566666666,43,0.07963042500000483,69,0.07864733333333618
35521,75.101193,34,0.07864733333333618,96,0.3539129999999915
35522,75.10414227499999,44,0.002949274999991758,70,0.07864733333333618
35523,75.17984033333332,41,0.07569805833333021,70,0.07864733333333618
35524,75.25652148333332,55,0.07668114999999887,70,0.07864733333333618
35525,75.33811809166666,46,0.08159660833334215,70,0.07864733333333618
35526,75.41774851666666,53,0.07963042500000483,70,0.07864733333332197
35527,75.45510599999999,34,0.03735748333332367,86,0.11797099999999716
35528,75.49639584999998,44,0.041289849999998296,70,0.07864733333333618
35529,75.57307699999998,34,0.07668114999999887,96,0.47188400000000286
35530,75.57602627499999,58,0.0029492750000059686,69,0.07864733333333618
35531,75.65467360833333,55,0.07864733333333618,69,0.07864733333333618
35532,75.72938857499999,56,0.07471496666666155,69,0.07864733333333618
35533,75.81196827499998,53,0.08257969999999659,69,0.07864733333333618
35534,75.88864942499998,67,0.07668114999999887,69,0.07864733333333618
35535,75.96827984999999,58,0.07963042500000483,69,0.07864733333333618
35536,76.04496099999999,10,0.07668114999999887,55,0.47188400000000286
35537,76.04692718333332,65,0.0019661833333373124,64,0.07864733333333618
35538,76.12557451666666,56,0.07864733333333618,59,0.07864733333333618
35539,76.20520494166665,70,0.07963042499999062,59,0.07864733333333618
35540,76.28385227499999,67,0.07864733333333618,59,0.07864733333333618
35541,76.36249960833332,68,0.07864733333333618,59,0.07864733333333618
35542,76.43918075833332,65,0.07668114999999887,59,0.07864733333333618
35543,76.51684499999999,72,0.07766424166666752,62,0.23594199999999432
35544,76.59352614999999,67,0.07668114999999887,62,0.07864733333333618
35545,76.67413966666666,70,0.08061351666667349,62,0.07864733333332197
35546,76.75475318333332,63,0.08061351666665928,62,0.07864733333333618
35547,76.83143433333332,79,0.07668114999999887,68,0.07864733333333618
35548,76.90909857499999,70,0.07766424166666752,62,0.07864733333333618
35549,76.98676281666665,77,0.07766424166666752,66,0.07751828333333322
35550,76.98872899999999,31,0.0019661833333373124,57,0.15497866666666482
35551,77.06718694999999,67,0.07845795000000066,59,0.07748933333333241
35552,77.14370766666666,39,0.07652071666666416,57,0.15497866666666482
35553,77.1456449,75,0.0019372333333365077,63,0.07748933333333241
35554,77.21925976666665,71,0.0736148666666594,59,0.07748933333333241
35555,77.29674909999999,74,0.07748933333333241,63,0.07748933333334662
35556,77.29868633333332,47,0.0019372333333365077,57,0.15497866666666482
35557,77.37617566666665,67,0.07748933333333241,59,0.07748933333333241
35558,77.45366499999999,20,0.07748933333333241,57,0.23246800000001144
35559,77.45560223333332,73,0.0019372333333365077,62,0.07748933333333241
35560,77.53309156666666,68,0.07748933333333241,59,0.07748933333333241
35561,77.60670643333333,71,0.0736148666666736,62,0.07748933333333241
35562,77.68419576666666,64,0.07748933333333241,59,0.07748933333333241
35563,77.7616851,69,0.07748933333333241,62,0.07748933333333241
35564,77.84111166666666,64,0.07942656666666892,59,0.07748933333333241
35565,77.91666376666666,68,0.0755520999999959,62,0.07748933333333241
35566,77.918601,35,0.0019372333333365077,57,0.15497866666666482
35567,77.99899618333333,59,0.08039518333333717,59,0.07748933333333241
35568,78.07357966666666,40,0.07458348333332765,57,0.15497866666666482
35569,78.07454828333333,66,0.0009686166666682539,62,0.07748933333333241
35570,78.14913176666666,59,0.07458348333332765,59,0.07748933333333241
35571,78.22855833333332,47,0.07942656666666892,57,0.15497866666666482
35572,78.23146418333333,64,0.0029058500000047616,62,0.07748933333333241
35573,78.30701628333333,56,0.0755520999999959,59,0.07750753333333193
35574,78.38353699999999,22,0.07652071666666416,68,0.23683599999999672
35575,78.46050869999999,57,0.07697170000000142,59,0.07894533333333698
35576,78.54044085,63,0.07993215000000475,59,0.07894533333332276
35577,78.62037299999999,55,0.07993214999999054,59,0.07894533333333698
35578,78.70030514999999,58,0.07993215000000475,59,0.07894533333333698
35579,78.7802373,51,0.07993215000000475,59,0.07891616666665868
35580,78.85523536666666,59,0.07499806666666586,55,0.07780783333332408
35581,78.85720899999998,39,0.001973633333321345,62,0.1555573333333342
35582,78.93693213333331,55,0.07972313333333148,55,0.07777866666667421
35583,79.01082186666665,57,0.07388973333333126,55,0.07777866666667421
35584,79.01276633333332,43,0.0019444666666714738,57,0.1555573333333342
35585,79.09151723333332,51,0.07875090000000284,55,0.07777866666666
35586,79.16832366666665,46,0.07680643333333137,57,0.1555573333333342
35587,79.16929589999998,58,0.0009722333333286315,55,0.07777866666667421
35588,79.24901903333331,55,0.07972313333333148,55,0.07777866666667421
35589,79.32388099999999,22,0.0748619666666741,62,0.23333599999999421
35590,79.40068743333332,50,0.07680643333333137,55,0.07777866666666
35591,79.47846609999998,57,0.07777866666666,55,0.07777866666667421
35592,79.55916146666665,56,0.08069536666667432,55,0.07777866666666
35593,79.63499566666665,58,0.07583420000000274,55,0.07777866666666
35594,79.71277433333331,50,0.07777866666666,55,0.07777866666667421
35595,79.79055299999999,46,0.07777866666667421,57,0.47543600000000197
35596,79.79154349166666,62,0.0009904916666698682,55,0.07923933333333366
35597,79.86781134999998,56,0.07626785833332406,53,0.07923933333333366
35598,79.95200314166665,67,0.08419179166666879,53,0.07923933333333366
35599,80.03025198333332,58,0.0782488416666638,53,0.07923933333333366
35600,80.10552934999998,65,0.0752773666666684,53,0.07923933333333366
35601,80.18674966666666,56,0.0812203166666734,53,0.07923933333333366
35602,80.23627425,27,0.04952458333333709,60,0.5051507499999985
35603,80.25113162499999,34,0.01485737499999118,60,0.01485737500000539
35604,80.26598899999999,43,0.01485737500000539,60,0.47543600000000197
35605,80.26796998333332,65,0.0019809833333255256,55,0.07923933333333366
35606,80.34819980833332,58,0.08022982500000353,46,0.07923933333333366
35607,80.42644864999998,63,0.0782488416666638,55,0.07923933333333366
35608,80.50469749166666,55,0.078248841666678,46,0.07923933333333366
35609,80.583936825,60,0.07923933333333366,55,0.07923933333333366
35610,80.66515714166665,55,0.08122031666665919,47,0.07923933333333366
35611,80.74340598333332,58,0.0782488416666638,55,0.07923933333333366
35612,80.81967384166666,51,0.07626785833333827,47,0.07923933333333366
35613,80.90089415833332,56,0.08122031666665919,55,0.07923933333333366
35614,80.97815250833332,51,0.07725835000000814,47,0.07923933333333366
35615,81.05937282499998,55,0.08122031666665919,55,0.07923933333333366
35616,81.13960264999999,46,0.08022982500000353,47,0.07923933333333366
35617,81.21587050833332,60,0.07626785833333827,55,0.07923933333333366
35618,81.29709452708333,55,0.08122401875000662,49,0.07968514999998888
35619,81.37578183333332,58,0.07868730624998932,55,0.07998108333333676
35620,81.45877981041666,51,0.08299797708333756,49,0.08046146249999708
35621,81.53823198749998,56,0.07945217708332564,55,0.0809111833333418
35622,81.61914317083333,51,0.0809111833333418,47,0.08123397916666875
35623,81.69935615833333,55,0.08021298750000483,55,0.08167933333334076
35624,81.7800145,46,0.08065834166666264,49,0.08167933333334076
35625,81.86373581666666,60,0.0837213166666686,55,0.0819880791666634
35626,81.94572389583332,55,0.0819880791666634,47,0.09402916666667238
35627,82.04092842708333,58,0.09520453125000472,55,0.09402916666665817
35628,82.13025613541666,51,0.08932770833332881,47,0.09402916666667238
35629,82.22546066666666,58,0.09520453125000472,82,0.4821847958333336
35630,82.22646629791666,48,0.001005631249995531,66,0.08045049999999776
35631,82.30892806041666,43,0.08246176250000303,61,0.08045049999999776
35632,82.38736729791667,46,0.0784392375000067,66,0.08045049999999776
35633,82.46982906041666,40,0.08246176249998882,61,0.08045050000001197
35634,82.54826829791666,44,0.0784392375000067,66,0.08045049999999776
35635,82.62771316666667,40,0.07944486875000223,61,0.07993229583333061
35636,82.7076454625,58,0.07993229583333061,82,0.34870200000000295
35637,82.78804064583333,37,0.08039518333333717,61,0.07748933333333241
35638,82.86552997916667,41,0.07748933333333241,66,0.07748933333333241
35639,82.93914484583334,37,0.0736148666666736,61,0.07748933333333241
35640,83.01663417916667,40,0.07748933333333241,66,0.07748933333333241
35641,83.0563474625,58,0.039713283333327354,77,0.11638595833332488
35642,83.0941235125,34,0.03777605000000506,61,0.07763043749999099
35643,83.17273342083332,58,0.07860990833331982,82,0.4697505000000035
35644,83.1746923625,39,0.001958941666671876,66,0.07835766666666188
35645,83.2540295,34,0.07933713750000493,61,0.07835766666666188
35646,83.33042822499999,37,0.07639872499999001,66,0.0783576666666761
35647,83.40584747916667,31,0.07541925416667539,61,0.07835766666666188
35648,83.48714355833333,36,0.0812960791666626,66,0.07835766666666188
35649,83.56256281249999,31,0.07541925416666118,61,0.07801866666667934
35650,83.64248392083333,60,0.07992110833333754,85,0.45703219166667
35651,83.64343514166666,34,0.0009512208333291028,66,0.07609766666666928
35652,83.71953280833333,28,0.07609766666666928,61,0.07609766666666928
35653,83.79467925416667,32,0.07514644583334018,61,0.07609766666666928
35654,83.86887447916666,28,0.07419522499999687,57,0.07609766666666928
35655,83.94972824999999,31,0.08085377083332901,61,0.07609766666666928
35656,84.0210698125,25,0.07134156250000956,57,0.07648011666665866
35657,84.0995161125,58,0.07844629999999597,82,0.47263991250000004
35658,84.10049920416667,29,0.0009830916666686562,61,0.07864733333333618
35659,84.1761972625,25,0.07569805833333021,61,0.07864733333333618
35660,84.2558276875,28,0.07963042500000483,66,0.07864733333333618
35661,84.33644120416666,22,0.08061351666665928,61,0.07864733333333618
35662,84.41312235416666,27,0.07668114999999887,66,0.07864733333333618
35663,84.4917696875,22,0.07864733333333618,61,0.07934925208333254
35664,84.572156025,55,0.08038633750000201,77,0.4966968958333382
35665,84.57319311041667,25,0.0010370854166694699,66,0.08296683333333021
35666,84.65512285833333,19,0.08192974791666074,57,0.08296683333334443
35667,84.73808969166667,24,0.08296683333334443,61,0.08296683333333021
35668,84.82001943958333,19,0.08192974791666074,57,0.08296683333333021
35669,84.90609752916667,22,0.08607808958333862,61,0.08296683333333021
35670,84.98491602083334,16,0.07881849166666655,57,0.08202045833331795
35671,85.06885292083334,58,0.08393689999999765,77,0.9198919999999902
35672,85.14646880833332,16,0.07761588749998793,57,0.0766576666666765
35673,85.22408469583333,19,0.07761588750000215,61,0.0766576666666765
35674,85.29882592083334,13,0.07474122500001101,57,0.0766576666666623
35675,85.37356714583333,17,0.0747412249999968,61,0.0766576666666623
35676,85.45214125416666,13,0.07857410833332779,57,0.0766576666666623
35677,85.52879892083332,16,0.0766576666666623,61,0.0766576666666765
35678,85.60354014583334,10,0.07474122500001101,57,0.0766576666666623
35679,85.68403069583333,15,0.08049054999999328,61,0.0766576666666623
35680,85.76068836249999,10,0.0766576666666623,57,0.0766576666666765
35681,85.83830425,13,0.07761588750000215,61,0.0766576666666765
35682,85.913045475,7,0.07474122500001101,57,0.07670507708331797
35683,85.98874492083333,61,0.07569944583332244,82,0.4821847958333336
35684,85.98975055208332,51,0.001005631249995531,66,0.08045049999999776
35685,86.07020105208332,46,0.08045049999999776,61,0.08045050000001197
35686,86.15165718333333,49,0.0814561312500075,66,0.08045049999999776
35687,86.23210768333333,43,0.08045049999999776,61,0.08045049999999776
35688,86.31356381458333,48,0.0814561312500075,66,0.08045049999999776
35689,86.39099742083333,43,0.07743360624999696,61,0.07993229583333061
35690,86.47092971666666,61,0.07993229583333061,82,0.34870200000000295
35691,86.54648181666667,40,0.07555210000001011,61,0.07748933333333241
35692,86.62881423333333,44,0.08233241666665947,66,0.07748933333333241
35693,86.70533495,40,0.07652071666666416,61,0.07748933333333241
35694,86.78088705,43,0.07555210000001011,66,0.07748933333333241
35695,86.81963171666666,61,0.0387446666666591,77,0.11638595833332488
35696,86.85643915,37,0.0368074333333368,61,0.07761958333333041
35697,86.93601767499999,61,0.07957852499998808,82,0.4697505000000035
35698,86.93895608749999,41,0.002938412500000709,66,0.0783576666666761
35699,87.01633428333332,37,0.07737819583333305,61,0.0783576666666761
35700,87.09077406666665,40,0.07443978333333234,66,0.0783576666666761
35701,87.17109067499999,34,0.08031660833333376,61,0.0783576666666761
35702,87.25238675416666,39,0.0812960791666768,66,0.07835766666666188
35703,87.32584706666665,34,0.0734603124999893,61,0.07801866666667934
35704,87.40386573333333,37,0.07801866666667934,66,0.07609766666665507
35705,87.40576817499999,63,0.0019024416666582056,85,0.45703219166667
35706,87.48091462083333,31,0.07514644583334018,57,0.07609766666666928
35707,87.55606106666666,36,0.07514644583332597,61,0.07609766666666928
35708,87.63501239583333,31,0.0789513291666708,57,0.07609766666666928
35709,87.7082564,34,0.07324400416666776,61,0.07609766666666928
35710,87.78720772916667,28,0.0789513291666708,57,0.07657572916666311
35711,87.86280036666666,61,0.07559263749999445,82,0.47263991250000004
35712,87.86378345833333,32,0.0009830916666686562,61,0.07864733333333618
35713,87.94341388333333,28,0.07963042500000483,61,0.07864733333332197
35714,88.02206121666666,31,0.07864733333332197,66,0.07864733333333618
35715,88.10169164166666,25,0.07963042500000483,61,0.07864733333333618
35716,88.17935588333333,29,0.07766424166666752,66,0.07864733333333618
35717,88.25505394166666,25,0.07569805833333021,61,0.07934925208333254
35718,88.33544027916666,58,0.08038633750000201,81,0.4966968958333382
35719,88.33751445,28,0.0020741708333389397,66,0.08296683333333021
35720,88.41840711249999,22,0.08089266249999127,57,0.08296683333334443
35721,88.50448520208333,27,0.08607808958333862,61,0.08296683333333021
35722,88.58641495,22,0.08192974791667496,57,0.08296683333333021
35723,88.66627052708333,25,0.0798555770833218,61,0.08296683333334443
35724,88.74923736041667,19,0.08296683333334443,57,0.08194159374998833
35725,88.832137175,61,0.08289981458332818,84,0.9604254999999853
35726,88.90783662083332,19,0.07569944583332244,57,0.0766576666666765
35727,88.98641072916666,22,0.078574108333342,61,0.0766576666666623
35728,89.06115195416666,16,0.0747412249999968,57,0.0766576666666623
35729,89.14164250416665,20,0.08049054999999328,61,0.0766576666666765
35730,89.2144672875,16,0.07282478333334552,57,0.0766576666666623
35731,89.29208317499999,19,0.07761588749998793,61,0.07894533333333698
35732,89.37004169166666,13,0.0779585166666692,57,0.07894533333333698
35733,89.44800020833333,17,0.0779585166666692,61,0.07894533333332276
35734,89.52793235833332,13,0.07993214999999054,57,0.0877694687499968
35735,89.61460331249998,16,0.0866709541666637,61,0.08788116666667634
35736,89.70687853749999,10,0.09227522500000873,57,0.08766512083333566
35737,89.79256267499999,18,0.08568413749999593,74,0.23771800000000098
35738,89.79454365833332,75,0.0019809833333397364,67,0.07923933333333366
35739,89.79949611666665,6,0.004952458333320919,74,0.23771800000000098
35740,89.87477348333331,66,0.0752773666666684,58,0.07923933333333366
35741,89.94906035833331,73,0.07428687499999853,61,0.07923933333333366
35742,90.03028067499999,64,0.0812203166666734,58,0.07923933333333366
35743,90.10952000833332,71,0.07923933333333366,61,0.07923933333333366
35744,90.19074032499998,66,0.08122031666665919,58,0.07918870416666834
35745,90.26799867499999,42,0.07725835000000814,64,0.34746375000000285
35746,90.34521284166665,64,0.07721416666666414,52,0.07721416666666414
35747,90.42435736249999,68,0.07914452083333856,56,0.07721416666666414
35748,90.49867599791665,64,0.07431863541665962,52,0.07721416666666414
35749,90.57782051874999,66,0.07914452083333856,56,0.07721416666666414
35750,90.61546242499999,42,0.037641906250001966,61,0.11582124999999621
35751,90.65213915416665,58,0.03667672916665765,52,0.07721416666667835
35752,90.73128367499999,42,0.07914452083333856,66,0.46328499999999906
35753,90.73417920624999,68,0.002895531250004524,61,0.07721416666666414
35754,90.81139337291665,63,0.07721416666666414,58,0.07721416666666414
35755,90.88860753958332,66,0.07721416666666414,61,0.07721416666666414
35756,90.96099582083332,59,0.07238828124999941,58,0.07721416666666414
35757,91.04014034166666,64,0.07914452083333856,61,0.07721416666666414
35758,91.11831968541665,59,0.07817934374999425,58,0.07721416666666414
35759,91.19456867499999,47,0.07624898958333404,64,0.34746375000000285
35760,91.19649902916666,63,0.0019303541666744195,61,0.07721416666666414
35761,91.27371319583332,54,0.07721416666666414,52,0.07721416666666414
35762,91.34803183124998,61,0.07431863541665962,56,0.07721416666666414
35763,91.42910670624998,54,0.08107487499999877,52,0.07721416666667835
35764,91.50535569583332,59,0.07624898958333404,56,0.07721416666666414
35765,91.54203242499999,39,0.03667672916667186,61,0.11582124999999621
35766,91.57967433124999,51,0.037641906250001966,52,0.07721416666666414
35767,91.65785367499998,42,0.07817934374999425,61,1.3917760000000072
35768,91.65883676666665,63,0.0009830916666686562,61,0.07864733333333618
35769,91.73453482499998,54,0.07569805833333021,58,0.07864733333333618
35770,91.81613143333331,61,0.08159660833332794,61,0.07864733333333618
35771,91.89576185833332,52,0.07963042500000483,58,0.07864733333333618
35772,91.97440919166665,60,0.07864733333333618,61,0.07864733333333618
35773,92.04912415833331,54,0.07471496666666155,58,0.07864733333333618
35774,92.12973767499999,37,0.08061351666667349,64,0.34495950000000164
35775,92.13165411666665,61,0.0019164416666654915,56,0.0766576666666623
35776,92.20735356249999,52,0.07569944583333665,52,0.0766576666666623
35777,92.28592767083332,64,0.07857410833332779,56,0.0766576666666765
35778,92.3625853375,54,0.0766576666666765,52,0.0766576666666623
35779,92.43828478333332,58,0.07569944583332244,56,0.0766576666666765
35780,92.47469717499999,42,0.03641239166667276,61,0.11498650000000055
35781,92.51206778749999,52,0.0373706124999984,52,0.0766576666666623
35782,92.58968367499999,61,0.07761588750000215,61,0.4599460000000022
35783,92.66634134166665,54,0.0766576666666623,58,0.0766576666666623
35784,92.74108256666665,59,0.0747412249999968,61,0.0766576666666765
35785,92.82061489583332,51,0.07953232916666764,58,0.0766576666666765
35786,92.89439789999999,58,0.07378300416667116,61,0.0766576666666623
35787,92.97488844999998,54,0.08049054999999328,58,0.07672220833335075
35788,93.05161065833333,59,0.07672220833335075,61,0.07923933333333366
35789,93.12787851666666,51,0.07626785833332406,52,0.07923933333333366
35790,93.20612735833332,61,0.0782488416666638,56,0.07923933333333366
35791,93.28536669166665,54,0.07923933333333366,52,0.07923933333333366
35792,93.36856799166665,59,0.08320129999999892,56,0.07923933333333366
35793,93.44384535833332,51,0.0752773666666684,52,0.07923933333333366
35794,93.525065675,71,0.0812203166666734,50,0.23771800000000098
35795,93.60628599166665,62,0.08122031666665919,48,0.07923933333333366
35796,93.68552532499999,69,0.07923933333333366,50,0.07923933333333366
35797,93.762783675,60,0.07725835000000814,48,0.07923933333333366
35798,93.84499448333332,67,0.08221080833332906,50,0.07923933333333366
35799,93.92225283333333,62,0.07725835000000814,48,0.07922107499999242
35800,93.99951118333333,66,0.07725834999999392,48,0.07779692500000124
35801,94.000501675,38,0.0009904916666698682,53,0.3500039999999984
35802,94.07828034166666,60,0.07777866666666,44,0.07777866666667421
35803,94.15897570833333,64,0.08069536666667432,48,0.07777866666666
35804,94.23189320833333,60,0.07291750000000263,44,0.07777866666666
35805,94.30967187499999,62,0.07777866666666,48,0.07777866666667421
35806,94.350505675,38,0.040833800000001474,50,0.11666800000000421
35807,94.38745054166667,57,0.03694486666667274,44,0.07777866666666
35808,94.46522920833333,67,0.07777866666666,50,0.07777866666667421
35809,94.467173675,38,0.0019444666666714738,55,0.46667200000000264
35810,94.54786904166666,59,0.0806953666666601,48,0.07777866666667421
35811,94.62175877499999,66,0.07388973333333126,50,0.07777866666667421
35812,94.70050967499999,55,0.07875090000000284,48,0.07777866666667421
35813,94.78023280833332,64,0.07972313333333148,50,0.07777866666667421
35814,94.85412254166665,59,0.07388973333333126,48,0.07777866666667421
35815,94.933845675,43,0.07972313333334569,53,0.23333599999999421
35816,94.93579014166666,62,0.001944466666657263,50,0.07777866666667421
35817,95.01065210833333,55,0.0748619666666741,44,0.07777866666666
35818,95.09231970833333,60,0.08166760000000295,48,0.07777866666666
35819,95.16620944166667,55,0.07388973333333126,44,0.07777866666666
35820,95.24398810833333,59,0.07777866666666,48,0.07777866666667421
35821,95.283849675,35,0.03986156666667284,50,0.11666799999999
35822,95.321766775,50,0.03791710000000137,44,0.07777866666666
35823,95.39954544166666,59,0.07777866666666,50,0.07922107499999242
35824,95.40051767499999,38,0.0009722333333286315,50,0.9473200000000048
35825,95.48272848333332,54,0.08221080833332906,48,0.07923933333333366
35826,95.56196781666665,57,0.07923933333333366,50,0.07923933333333366
35827,95.64120714999999,48,0.07923933333333366,48,0.07923933333333366
35828,95.72044648333332,56,0.07923933333333366,50,0.07923933333333366
35829,95.79770483333333,54,0.07725835000000814,48,0.07923193333333245
35830,95.87397269166665,57,0.07626785833332406,48,0.0786621333333386
35831,95.87595367499999,33,0.0019809833333397364,50,0.15729466666667236
35832,95.95361791666666,48,0.07766424166666752,44,0.07864733333333618
35833,96.03226525,60,0.07864733333333618,48,0.07864733333333618
35834,96.03324834166666,35,0.0009830916666686562,42,0.15729466666665815
35835,96.11189567499999,50,0.07864733333332197,44,0.07864733333333618
35836,96.19054300833332,54,0.07864733333333618,48,0.1278019166666695
35837,96.26820724999999,48,0.07766424166666752,44,0.07864733333333618
35838,96.31834492499999,19,0.05013767500000199,38,0.5013767500000057
35839,96.33309129999999,26,0.014746375000001422,38,0.014746375000001422
35840,96.347837675,35,0.014746375000001422,45,0.47188400000000286
35841,96.35078694999999,57,0.002949274999991758,48,0.07864733333333618
35842,96.42746809999998,50,0.07668114999999887,44,0.07864733333333618
35843,96.50611543333332,56,0.07864733333333618,45,0.07864733333333618
35844,96.58672895,47,0.08061351666667349,42,0.07864733333333618
35845,96.6634101,55,0.07668114999999887,44,0.07864733333333618
35846,96.743040525,50,0.07963042500000483,41,0.0787231333333267
35847,96.82278465,54,0.07974412500000483,44,0.08167933333332655
35848,96.90446398333333,47,0.08167933333332655,41,0.08167933333334076
35849,96.98614331666667,53,0.08167933333334076,42,0.08167933333332655
35850,97.06782265,50,0.08167933333332655,40,0.08167933333332655
35851,97.144397025,52,0.07657437500000697,42,0.08167933333332655
35852,97.22811834166666,47,0.08372131666665439,40,0.08167933333334076
35853,97.30877668333333,52,0.08065834166667685,62,0.07956229791666658
35854,97.309797675,31,0.0010209916666639174,70,0.4772130000000061
35855,97.38833898125,47,0.07854130625000266,59,0.07953549999999154
35856,97.47185125625,50,0.08351227500000391,59,0.07953549999999154
35857,97.5503925625,41,0.07854130624998845,59,0.07953550000000575
35858,97.6299280625,52,0.07953550000000575,60,0.07953550000000575
35859,97.70548678749999,47,0.07555872499999339,61,0.07953550000000575
35860,97.787010675,26,0.08152388750001194,70,0.15671533333333798
35861,97.78799014583333,50,0.0009794708333288327,62,0.0783576666666761
35862,97.86732728333334,53,0.07933713750000493,64,0.07835766666666188
35863,97.94372600833334,23,0.07639872500000422,66,0.15671533333332377
35864,97.94568495,64,0.0019589416666576653,67,0.0783576666666761
35865,98.02404261666668,59,0.0783576666666761,68,0.07835766666666188
35866,98.09848240000001,62,0.07443978333333234,69,0.07835766666666188
35867,98.10044134166667,26,0.0019589416666576653,74,0.15671533333333798
35868,98.18075795,65,0.08031660833333376,70,0.07840209166667478
35869,98.257156675,19,0.07639872500000422,79,0.180302999999995
35870,98.338293025,71,0.0811363499999942,73,0.08013466666666602
35871,98.42043105833334,74,0.08213803333333658,71,0.08013466666666602
35872,98.500565725,65,0.08013466666666602,71,0.08013466666666602
35873,98.575691975,64,0.07512624999999673,71,0.08013466666666602
35874,98.61776267500001,31,0.042070700000010675,77,0.12020199999999193
35875,98.659833375,59,0.042070699999996464,71,0.08009024166666734
35876,98.737964675,33,0.07813129999999546,84,0.3526094999999998
35877,98.8143634,53,0.07639872500000422,69,0.07835766666666188
35878,98.8937005375,52,0.07933713749999072,69,0.0783576666666761
35879,98.973037675,47,0.07933713750000493,69,0.07835766666666188
35880,99.0494364,50,0.07639872500000422,69,0.07835766666666188
35881,99.090574175,31,0.04113777499999571,79,0.11753649999999993
35882,99.13269142083334,41,0.04211724583333876,69,0.07839072916665657
35883,99.208110675,30,0.07541925416666118,86,0.47543600000000197
35884,99.20910116666667,53,0.0009904916666698682,69,0.07923933333333366
35885,99.28635951666666,46,0.07725834999999392,69,0.07923933333333366
35886,99.36857032500001,51,0.08221080833334327,69,0.07923933333331945
35887,99.44880015,39,0.08022982499998932,69,0.07923933333333366
35888,99.52407751666667,56,0.0752773666666684,69,0.07923933333333366
35889,99.60232635833333,51,0.0782488416666638,69,0.07923933333333366
35890,99.683546675,27,0.0812203166666734,74,0.47543600000000197
35891,99.68552765833333,54,0.0019809833333255256,69,0.07923933333333366
35892,99.76179551666667,46,0.07626785833333827,61,0.07923933333333366
35893,99.84301583333334,59,0.0812203166666734,61,0.07923933333333366
35894,99.92324565833333,54,0.08022982499998932,61,0.07923933333333366
35895,100.00347548333333,58,0.08022982500000353,61,0.07923933333333366
35896,100.07875285,51,0.0752773666666684,61,0.07923933333333366
35897,100.158982675,30,0.08022982500000353,82,0.4808079999999961
35898,100.15998435833333,63,0.0010016833333281738,61,0.08013466666666602
35899,100.24212239166667,58,0.08213803333333658,61,0.08013466666666602
35900,100.32225705833334,62,0.08013466666666602,61,0.08013466666666602
35901,100.40038835833334,54,0.07813130000000967,61,0.08013466666666602
35902,100.47851965833334,61,0.07813129999999546,61,0.08013466666666602
35903,100.561659375,58,0.08313971666666475,61,0.08009024166666734
35904,100.639790675,32,0.07813129999999546,77,0.15671533333333798
35905,100.71814834166666,55,0.07835766666666188,62,0.0783576666666761
35906,100.79454706666667,59,0.07639872500000422,64,0.07835766666666188
35907,100.79650600833334,33,0.001958941666671876,70,0.15671533333332377
35908,100.87584314583333,55,0.07933713749999072,67,0.0783576666666761
35909,100.95322134166666,34,0.07737819583333305,74,0.15671533333333798
35910,101.02962006666667,51,0.07639872500000422,69,0.07835766666666188
35911,101.10895720416667,56,0.07933713750000493,66,0.0795207770833315
35912,101.109936675,35,0.0009794708333288327,77,0.4772130000000061
35913,101.19245475625,51,0.08251808125000082,59,0.07953550000000575
35914,101.26801348125,54,0.07555872499999339,59,0.07953550000000575
35915,101.35152575625,45,0.08351227500000391,59,0.07953550000000575
35916,101.4260902875,56,0.0745645312500045,60,0.07953549999999154
35917,101.51059675625,51,0.08450646874999279,61,0.0794913312500114
35918,101.587149675,30,0.07655291875001069,79,0.15671533333333798
35919,101.5900880875,54,0.002938412500000709,62,0.07835766666666188
35920,101.66550734166667,57,0.07541925416666118,64,0.0783576666666761
35921,101.7428855375,68,0.07737819583333305,67,0.0783576666666761
35922,101.74386500833334,27,0.0009794708333430435,70,0.15671533333332377
35923,101.82320214583333,63,0.07933713749999072,69,0.0783576666666761
35924,101.90058034166667,30,0.07737819583333305,74,0.15671533333333798
35925,101.90155981250001,66,0.0009794708333430435,70,0.07835766666666188
35926,101.97991747916667,69,0.07835766666666188,72,0.07837987916666123
35927,102.057295675,23,0.07737819583333305,79,0.180302999999995
35928,102.135426975,75,0.07813129999999546,61,0.08013466666666602
35929,102.22057005833334,78,0.08514308333333531,69,0.08013466666666602
35930,102.29569630833333,69,0.07512624999999673,69,0.08013466666666602
35931,102.37683265833334,68,0.0811363500000084,69,0.08013466666666602
35932,102.41790167500001,35,0.04106901666666829,77,0.12020199999999193
35933,102.45696732500001,63,0.03906564999999773,69,0.08013466666666602
35934,102.538103675,37,0.0811363499999942,84,0.3526094999999998
35935,102.54006261666667,66,0.001958941666671876,69,0.07835766666666188
35936,102.6174408125,57,0.07737819583333305,69,0.07835766666666188
35937,102.69775742083334,56,0.08031660833333376,69,0.07835766666666188
35938,102.77415614583333,51,0.07639872499999001,69,0.0783576666666761
35939,102.85349328333334,54,0.07933713750000493,69,0.07835766666666188
35940,102.890713175,35,0.03721989166666617,79,0.11753649999999993
35941,102.92989200833334,45,0.03917883333333805,69,0.07835766666666188
35942,103.008249675,34,0.07835766666666188,86,0.47543600000000197
35943,103.01023065833334,57,0.0019809833333397364,69,0.07923933333333366
35944,103.08946999166668,50,0.07923933333333366,69,0.07923933333333366
35945,103.16474735833333,55,0.07527736666665419,69,0.07923933333333366
35946,103.24695816666667,43,0.08221080833334327,69,0.07923933333333366
35947,103.323226025,60,0.07626785833332406,69,0.07923933333333366
35948,103.40246535833333,55,0.07923933333333366,69,0.07923933333333366
35949,103.483685675,31,0.0812203166666734,74,0.47543600000000197
35950,103.48566665833333,58,0.0019809833333255256,69,0.07923933333333366
35951,103.56292500833334,50,0.07725835000000814,61,0.07923933333333366
35952,103.64513581666667,63,0.08221080833332906,61,0.07923933333333366
35953,103.721403675,58,0.07626785833333827,61,0.07923933333333366
35954,103.80262399166666,62,0.08122031666665919,61,0.07923933333333366
35955,103.87790135833333,55,0.0752773666666684,61,0.07923933333333366
35956,103.959121675,34,0.0812203166666734,82,0.4808079999999961
35957,103.96012335833333,67,0.0010016833333281738,66,0.08013466666666602
35958,104.037252975,62,0.07712961666666729,66,0.08013466666666602
35959,104.12139437500001,66,0.08414140000000714,67,0.08013466666666602
35960,104.202530725,58,0.0811363499999942,68,0.08013466666666602
35961,104.28066202500001,65,0.07813130000000967,69,0.08013466666666602
35962,104.361798375,62,0.0811363499999942,69,0.08009024166666734
35963,104.43892799166667,64,0.07712961666666729,70,0.07837987916666123
35964,104.439929675,36,0.0010016833333281738,77,0.15671533333333798
35965,104.52024628333334,58,0.08031660833333376,71,0.07835766666666188
35966,104.59664500833334,37,0.07639872500000422,79,0.15671533333332377
35967,104.59762447916667,63,0.0009794708333288327,72,0.07835766666666188
35968,104.67598214583333,58,0.07835766666666188,73,0.0783576666666761
35969,104.75238087083333,62,0.07639872500000422,73,0.07835766666666188
35970,104.75336034166666,38,0.0009794708333288327,82,0.15671533333333798
35971,104.83465642083334,55,0.0812960791666768,75,0.07841087916666822
35972,104.910075675,39,0.07541925416666118,90,0.47866000000000497
35973,104.99184675833334,55,0.08177108333333649,64,0.07977666666666039
35974,105.06962900833334,60,0.0777822499999985,69,0.07977666666666039
35975,105.14741125833334,49,0.0777822499999985,64,0.07977666666666039
35976,105.22918234166667,59,0.08177108333333649,69,0.07977666666666039
35977,105.30995621666666,55,0.08077387499999134,64,0.07978907083334263
35978,105.35881942500001,15,0.04886320833334423,63,0.5145302499999929
35979,105.37377755,22,0.014958124999992606,63,0.49957212500000026
35980,105.388735675,31,0.014958125000006817,82,0.48461399999999344
35981,105.46950467500001,49,0.08076900000000364,64,0.08076899999998943
35982,105.54825445,60,0.07874977499999147,69,0.08076900000000364
35983,105.6300330625,55,0.08177861250000262,64,0.08076900000000364
35984,105.7128212875,58,0.0827882250000016,69,0.08076900000000364
35985,105.79560951250001,49,0.0827882250000016,64,0.08073178749999954
35986,105.8430613,20,0.04745178749999468,67,0.5089483750000028
35987,105.8582054875,27,0.015144187499998907,68,0.4938041875000039
35988,105.873349675,36,0.015144187499998907,89,0.47866000000000497
35989,105.95611796666667,51,0.08276829166666744,64,0.07977666666666039
35990,106.03290300833334,57,0.07678504166666755,69,0.07977666666666039
35991,106.11367688333333,48,0.08077387499999134,64,0.0797766666666746
35992,106.190461925,56,0.07678504166666755,69,0.0797766666666746
35993,106.27522463333334,51,0.08476270833334354,64,0.07980169166667395
35994,106.33705155,14,0.061826916666660736,60,0.4976221250000066
35995,106.352009675,33,0.014958125000006817,82,0.48266399999999976
35996,106.35502632500001,57,0.0030166500000063934,69,0.08044399999999996
35997,106.432453675,48,0.07742734999999357,64,0.08044399999999996
35998,106.51490877500001,58,0.08245510000000422,69,0.08044399999999996
35999,106.592336125,50,0.07742734999999357,64,0.08044399999999996
36000,106.674791225,57,0.08245510000000422,69,0.08044399999999996
36001,106.754229675,48,0.07943844999999783,64,0.08044399999999996
36002,106.80450717500001,19,0.05027750000000708,62,0.5088264999999978
36003,106.819590425,26,0.015083249999989334,63,0.4937432500000085
36004,106.834673675,34,0.015083250000003545,90,0.47866000000000497
36005,106.83567088333334,57,0.0009972083333309456,69,0.0797766666666746
36006,106.912455925,50,0.07678504166666755,64,0.0797766666666746
36007,106.99422700833334,56,0.08177108333333649,69,0.07977666666666039
36008,107.07300646666667,46,0.07877945833332944,64,0.0797766666666746
36009,107.15677196666667,55,0.08376549999999838,69,0.0797766666666746
36010,107.23654863333334,50,0.0797766666666746,64,0.07977666666666039
36011,107.28341742500001,24,0.04686879166666813,55,0.5085762499999902
36012,107.29837555,31,0.014958124999992606,56,0.4936181249999976
36013,107.31333367500001,40,0.014958125000006817,82,0.47865999999999076
36014,107.3163253,55,0.002991624999992837,69,0.0797766666666746
36015,107.39410755,46,0.0777822499999985,64,0.0797766666666746
36016,107.47388421666668,56,0.0797766666666746,69,0.07977666666666039
36017,107.55066925833334,48,0.07678504166666755,64,0.07977666666666039
36018,107.63244034166667,55,0.08177108333332228,69,0.0797766666666746
36019,107.71121980000001,46,0.07877945833334365,64,0.07977666666666039
36020,107.762077425,29,0.05085762499999191,62,0.5085762500000044
36021,107.77703555000001,36,0.014958125000006817,66,0.4936181249999976
36022,107.791993675,41,0.014958124999992606,89,0.47866000000000497
36023,107.869775925,48,0.0777822499999985,64,0.0797766666666746
36024,107.95453863333334,52,0.08476270833334354,69,0.07977666666666039
36025,108.03032646666666,44,0.0757878333333224,64,0.0797766666666746
36026,108.11309475833333,53,0.08276829166666744,69,0.0797766666666746
36027,108.19386863333334,48,0.08077387500000555,64,0.07977666666666039
36028,108.240737425,24,0.04686879166666813,55,0.5085762500000044
36029,108.25569555,31,0.014958124999992606,55,0.4936181250000118
36030,108.270653675,39,0.014958125000006817,82,0.47866000000000497
36031,108.27165088333334,53,0.0009972083333309456,69,0.0797766666666746
36032,108.34943313333333,43,0.0777822499999985,64,0.0797766666666746
36033,108.42920980000001,50,0.0797766666666746,69,0.07977666666666039
36034,108.51098088333333,48,0.08177108333332228,64,0.0797766666666746
36035,108.59275196666667,51,0.08177108333333649,69,0.0797766666666746
36036,108.6685398,43,0.07578783333333661,64,0.07977666666666039
36037,108.74831646666667,51,0.07977666666666039,70,0.0807307562500057
36038,108.74931367500001,29,0.0009972083333451565,94,0.24222849999999596
36039,108.83207507916667,48,0.08276140416666067,70,0.0807428333333462
36040,108.91382719791667,50,0.08175211875000343,70,0.08074283333333199
36041,108.99053288958335,44,0.07670569166667462,70,0.08074283333333199
36042,109.07127572291668,51,0.08074283333333199,70,0.08074283333333199
36043,109.15302784166667,48,0.08175211874998922,70,0.0807428333333462
36044,109.23377067500002,44,0.0807428333333462,90,0.46838400000000036
36045,109.23669807500002,50,0.0029274000000043543,70,0.07806399999999769
36046,109.31281047500002,56,0.07611239999999952,71,0.07806399999999769
36047,109.38794707500001,63,0.07513659999999334,72,0.07806399999999769
36048,109.47089007500001,60,0.08294300000000021,73,0.07806399999999769
36049,109.54407507500002,62,0.07318500000000938,75,0.07806399999999769
36050,109.62506647500001,68,0.08099139999998783,77,0.0780640000000119
36051,109.70117887500001,75,0.07611239999999952,77,0.0780640000000119
36052,109.70215467500002,37,0.0009758000000061884,88,0.23419199999999307
36053,109.77924287500002,72,0.07708820000000571,77,0.07806399999999769
36054,109.85633107500001,74,0.0770881999999915,75,0.07806399999999769
36055,109.93537087500002,68,0.07903980000000388,73,0.07806399999999769
36056,110.01441067500002,63,0.07903980000000388,73,0.07806399999999769
36057,110.05344267500001,39,0.03903199999999174,93,0.11709600000000364
36058,110.09540207500001,60,0.041959399999996094,72,0.07813013125000623
36059,110.16858707500002,62,0.07318500000000938,70,0.07978341249999232
36060,110.17053867500002,38,0.001951599999998166,89,0.4789650000000023
36061,110.24837048750001,56,0.07783181249999416,70,0.07982750000000749
36062,110.33019367500002,51,0.08182318750000661,70,0.07982749999999328
36063,110.40902333125001,48,0.07882965624999372,70,0.07982750000000749
36064,110.49084651875002,50,0.08182318750000661,70,0.07982749999999328
36065,110.56967617500001,44,0.07882965624999372,70,0.07982750000000749
36066,110.64950367500002,30,0.07982750000000749,94,0.24222849999999596
36067,110.73327436458335,45,0.08377068958333211,70,0.08074283333333199
36068,110.81199862708336,48,0.0787242625000033,70,0.08074283333333199
36069,110.89072288958336,39,0.0787242625000033,70,0.08074283333333199
36070,110.97247500833335,50,0.08175211874998922,70,0.08074283333333199
36071,111.05321784166668,45,0.08074283333333199,70,0.0807428333333462
36072,111.13396067500003,45,0.0807428333333462,90,0.46838400000000036
36073,111.13688807500003,48,0.0029274000000043543,70,0.07806399999999769
36074,111.21300047500003,51,0.07611239999999952,71,0.07806399999999769
36075,111.29301607500003,62,0.08001559999999586,72,0.07806399999999769
36076,111.37010427500003,57,0.07708820000000571,73,0.07806399999999769
36077,111.44816827500003,60,0.07806399999999769,75,0.07806399999999769
36078,111.52525647500002,63,0.0770881999999915,77,0.0780640000000119
36079,111.60234467500003,36,0.07708820000000571,88,0.23419199999999307
36080,111.60527207500003,74,0.0029274000000043543,79,0.07806399999999769
36081,111.67943287500003,69,0.07416080000000136,78,0.07806399999999769
36082,111.76140007500003,72,0.08196719999999402,77,0.07806399999999769
36083,111.83556087500003,63,0.07416080000000136,75,0.07806399999999769
36084,111.91752807500002,62,0.08196719999999402,72,0.07806399999999769
36085,111.95363267500002,41,0.036104600000001597,93,0.11709600000000364
36086,111.99461627500003,57,0.04098360000000412,71,0.07806399999999769
36087,112.06877707500003,60,0.07416080000000136,70,0.07806399999999769
36088,112.07072867500003,39,0.001951599999998166,89,0.46838400000000036
36089,112.15074427500002,51,0.08001559999999586,70,0.07806399999999769
36090,112.22685667500002,50,0.07611239999999952,70,0.07806399999999769
36091,112.30394487500003,45,0.07708820000000571,70,0.07806399999999769
36092,112.38103307500002,48,0.0770881999999915,70,0.0780640000000119
36093,112.45909707500003,39,0.0780640000000119,70,0.07806399999999769
36094,112.53911267500003,19,0.08001559999999586,62,1.8999809999999968
36095,112.62193370625003,43,0.08282103125000617,59,0.07982749999999328
36096,112.69677198750003,47,0.07483828124999548,59,0.07982749999999328
36097,112.77659948750002,50,0.07982749999999328,60,0.07982750000000749
36098,112.85742483125003,60,0.08082534375000705,60,0.07982749999999328
36099,112.94024586250002,55,0.08282103124999196,61,0.07980544583334392
36100,113.01807767500003,38,0.07783181250000837,80,0.3552540000000022
36101,113.02005130833336,59,0.001973633333335556,62,0.07894533333333698
36102,113.0989966416667,62,0.07894533333333698,62,0.07894533333332276
36103,113.17695515833336,72,0.07795851666665499,63,0.07894533333333698
36104,113.25392685833336,67,0.07697170000000142,63,0.07894533333333698
36105,113.3358326416667,71,0.08190578333334031,64,0.07894533333333698
36106,113.37333167500003,43,0.03749903333333293,77,0.11841799999999125
36107,113.41576479166669,62,0.04243311666665761,63,0.07894533333333698
36108,113.49174967500002,41,0.07598488333333364,77,0.9473440000000011
36109,113.49471012500003,71,0.002960450000003334,63,0.07894533333333698
36110,113.56970819166669,65,0.07499806666666586,63,0.07894533333333698
36111,113.6496403416667,69,0.07993215000000475,63,0.07894533333333698
36112,113.7266120416667,62,0.07697170000000142,63,0.07894533333333698
36113,113.80555737500003,59,0.07894533333333698,62,0.07894533333332276
36114,113.88450270833336,53,0.07894533333332276,62,0.07894533333333698
36115,113.96542167500003,57,0.08091896666667253,62,0.07894533333333698
36116,114.04634064166669,50,0.08091896666665832,61,0.07894533333333698
36117,114.12331234166669,47,0.07697170000000142,61,0.07894533333333698
36118,114.20127085833336,41,0.0779585166666692,61,0.07894533333333698
36119,114.2802161916667,45,0.07894533333333698,61,0.07894533333333698
36120,114.35916152500003,38,0.07894533333333698,61,0.07894533333332276
36121,114.43909367500002,19,0.07993214999999054,61,0.23948249999999405
36122,114.44108936250002,45,0.0019956874999991214,60,0.07982750000000749
36123,114.51692548750002,40,0.07583612499999504,59,0.07982750000000749
36124,114.59675298750003,43,0.07982750000000749,59,0.07982749999999328
36125,114.67957401875002,47,0.08282103124999196,60,0.07982750000000749
36126,114.75840367500003,57,0.07882965625000793,60,0.07982749999999328
36127,114.84022686250002,52,0.0818231874999924,61,0.07980544583334392
36128,114.91606298750003,55,0.07583612500000925,62,0.07896738750000054
36129,114.91805867500003,35,0.0019956874999991214,80,0.3552540000000022
36130,114.99996445833337,59,0.08190578333334031,66,0.07894533333332276
36131,115.07397570833336,69,0.07401124999999809,66,0.07894533333332276
36132,115.15292104166669,64,0.07894533333332276,66,0.07894533333333698
36133,115.23285319166669,67,0.07993215000000475,66,0.07894533333333698
36134,115.27331267500003,40,0.040459483333336266,77,0.11841799999999125
36135,115.31475897500003,59,0.041446300000004044,66,0.07894533333332276
36136,115.39074385833337,67,0.07598488333333364,66,0.07894533333332276
36137,115.39173067500002,38,0.0009868166666535672,77,0.9473440000000011
36138,115.47166282500002,62,0.07993215000000475,64,0.07894533333333698
36139,115.5496213416667,65,0.0779585166666692,64,0.07894533333333698
36140,115.6295534916667,57,0.07993215000000475,63,0.07894533333332276
36141,115.70849882500002,55,0.07894533333332276,63,0.07894533333333698
36142,115.7894177916667,50,0.08091896666667253,62,0.07894533333333698
36143,115.86836312500003,53,0.07894533333333698,62,0.07894533333332276
36144,115.94730845833335,45,0.07894533333332276,67,0.07894533333333698
36145,116.02131970833337,43,0.0740112500000123,64,0.07894533333332276
36146,116.10026504166669,38,0.07894533333332276,62,0.07894533333333698
36147,116.18217082500003,41,0.08190578333334031,62,0.07894533333333698
36148,116.26210297500002,33,0.07993214999999054,61,0.07900604166667335
36149,116.33907467500002,19,0.07697170000000142,74,3.8372889999999984
36150,116.34212618750001,40,0.0030515124999936916,71,0.08137366666667845
36151,116.41841400000003,35,0.07628781250001282,66,0.08137366666666423
36152,116.50487352083336,38,0.08645952083332986,71,0.08137366666666423
36153,116.58523001666669,32,0.08035649583332827,67,0.08137366666666423
36154,116.66456934166669,43,0.07933932500000651,71,0.08137366666666423
36155,116.74696017916669,38,0.0823908375000002,68,0.08135433958332783
36156,116.82731667500002,32,0.08035649583332827,79,0.3592237499999982
36157,116.82931236250002,41,0.0019956874999991214,71,0.07982750000000749
36158,116.90714417500001,35,0.07783181249999416,66,0.07982750000000749
36159,116.98597383125002,46,0.07882965625000793,71,0.07982749999999328
36160,117.06979270625003,41,0.08381887500000573,68,0.07982749999999328
36161,117.14962020625002,44,0.07982749999999328,71,0.07982749999999328
36162,117.18654042500002,32,0.03692021874999796,77,0.11974125000000413
36163,117.22844986250001,38,0.04190943749999576,68,0.07985038333333705
36164,117.30628167500002,32,0.07783181250000837,77,0.48445700000000613
36165,117.3072909604167,48,0.001009285416671446,71,0.08074283333333199
36166,117.38601522291668,44,0.0787242624999891,71,0.0807428333333462
36167,117.46574877083336,47,0.07973354791667475,71,0.08074283333333199
36168,117.54750088958336,41,0.08175211875000343,71,0.08074283333333199
36169,117.63026229375002,51,0.08276140416666067,71,0.08074283333333199
36170,117.70999584166668,47,0.07973354791666054,71,0.0807428333333462
36171,117.79073867500003,34,0.0807428333333462,80,0.47367199999999343
36172,117.8686971916667,44,0.0779585166666692,71,0.07894533333333698
36173,117.94862934166669,55,0.07993214999999054,71,0.07894533333333698
36174,118.02954830833336,50,0.08091896666667253,71,0.07894533333333698
36175,118.10948045833337,53,0.07993215000000475,71,0.07894533333332276
36176,118.18743897500003,47,0.0779585166666692,71,0.07897506666665777
36177,118.26441067500002,32,0.07697169999998721,79,0.4808079999999961
36178,118.26741572500002,58,0.0030050499999987323,71,0.08013466666666602
36179,118.34354365833336,53,0.07612793333333912,71,0.08013466666666602
36180,118.42568169166668,56,0.08213803333332237,73,0.08013466666668023
36181,118.50381299166669,50,0.07813130000000967,75,0.08013466666666602
36182,118.58795439166668,60,0.08414139999999293,77,0.08013466666666602
36183,118.66508400833335,56,0.07712961666666729,77,0.08013466666666602
36184,118.74421699166669,59,0.07913298333333785,77,0.08293143124998892
36185,118.74521867500002,29,0.0010016833333281738,79,0.4978009999999955
36186,118.82922259375002,53,0.08400391874999968,78,0.08296683333333021
36187,118.91218942708335,63,0.08296683333333021,78,0.08296683333333021
36188,118.99411917500002,59,0.08192974791667496,78,0.08296683333333021
36189,119.07708600833335,62,0.08296683333333021,79,0.08296683333333021
36190,119.15901575625001,56,0.08192974791666074,79,0.08296683333334443
36191,119.24198258958336,67,0.08296683333334443,77,0.07784351874998663
36192,119.24301967500001,32,0.001037085416655259,77,0.9333440000000053
36193,119.31982610833334,62,0.07680643333333137,77,0.07777866666667421
36194,119.40149370833335,65,0.08166760000000295,77,0.07777866666666
36195,119.47830014166668,59,0.07680643333333137,77,0.07777866666667421
36196,119.55607880833335,70,0.07777866666667421,77,0.07777866666666
36197,119.63288524166668,65,0.07680643333333137,77,0.07777866666666
36198,119.71163614166667,68,0.07875089999998863,75,0.07777866666667421
36199,119.78649810833335,62,0.0748619666666741,77,0.07777866666666
36200,119.86719347500001,72,0.0806953666666601,79,0.07777866666667421
36201,119.94108320833335,68,0.07388973333334548,80,0.07777866666666
36202,120.02275080833334,71,0.08166759999998874,82,0.07777866666667421
36203,120.10150170833334,65,0.07875090000000284,84,0.07778936666667846
36204,120.17539144166668,19,0.07388973333333126,82,0.0009722333333428423
36205,120.17636367500002,80,0.0009722333333428423,97,0.09367679999999723
36206,120.25247607500002,74,0.07611239999999952,88,0.09367679999999723
36207,120.25345187500002,26,0.0009758000000061884,70,0.09367679999999723
36208,120.33151587500002,23,0.07806399999999769,79,0.09367679999999723
36209,120.33249167500001,79,0.0009757999999919775,94,0.09367680000001144
36210,120.40860407500001,71,0.07611239999999952,85,0.09367680000001144
36211,120.41250727500002,29,0.0039032000000105427,68,0.09367679999999723
36212,120.48959547500002,23,0.0770881999999915,74,0.09367679999999723
36213,120.49154707500001,78,0.001951599999998166,94,0.09367680000001144
36214,120.56473207500002,29,0.07318500000000938,68,0.09367679999999723
36215,120.56765947500001,74,0.0029273999999901434,85,0.09367680000001144
36216,120.64377187500001,26,0.07611239999999952,74,0.09367680000001144
36217,120.64572347500003,77,0.0019516000000123768,90,0.09367679999999723
36218,120.72378747500002,71,0.07806399999999769,85,0.09367679999999723
36219,120.79989987500002,26,0.07611239999999952,74,0.09367679999999723
36220,120.80185147500002,76,0.001951599999998166,89,0.09367679999999723
36221,120.87991547500002,32,0.07806399999999769,67,0.09367679999999723
36222,120.88089127500002,71,0.0009758000000061884,84,0.09367679999999723
36223,120.95505207500001,29,0.07416079999998715,74,0.09367680000001144
36224,120.95797947500002,75,0.0029274000000043543,89,0.09367679999999723
36225,121.03506767500002,35,0.07708820000000571,66,0.09367679999999723
36226,121.03701927500002,68,0.001951599999998166,84,0.09367679999999723
36227,121.11313167500002,29,0.07611239999999952,74,0.09367679999999723
36228,121.11508327500002,74,0.001951599999998166,89,0.09367679999999723
36229,121.19021987500003,35,0.07513660000000755,66,0.09367679999999723
36230,121.19412307500002,68,0.003903199999996332,84,0.09367679999999723
36231,121.26730807500002,73,0.07318499999999517,89,0.09367679999999723
36232,121.27121127500001,32,0.003903199999996332,74,0.09367680000001144
36233,121.34732367500001,65,0.07611239999999952,84,0.09367680000001144
36234,121.35025107500002,38,0.0029274000000043543,66,0.09367679999999723
36235,121.42636347500002,32,0.07611239999999952,73,0.09367679999999723
36236,121.42733927500002,72,0.0009758000000061884,89,0.09367679999999723
36237,121.50150007500002,68,0.07416080000000136,82,0.09367679999999723
36238,121.50637907500001,38,0.004878999999988309,63,0.09367680000001144
36239,121.58151567500002,71,0.07513660000000755,88,0.09367679999999723
36240,121.58346727500002,35,0.001951599999998166,73,0.09367679999999723
36241,121.65762807500002,62,0.07416080000000136,82,0.09367679999999723
36242,121.66055547500002,41,0.0029274000000043543,63,0.09367679999999723
36243,121.73861947500002,70,0.07806399999999769,88,0.09367679999999723
36244,121.81473187500002,65,0.07611239999999952,82,0.09367679999999723
36245,121.81668347500002,41,0.001951599999998166,63,0.09367679999999723
36246,121.89182007500001,69,0.07513659999999334,88,0.09367680000001144
36247,121.89474747500002,38,0.0029274000000043543,72,0.09367679999999723
36248,121.97085987500002,59,0.07611239999999952,82,0.09367679999999723
36249,122.04892387500001,38,0.07806399999999769,72,0.09367680000001144
36250,122.05282707500002,68,0.0039032000000105427,88,0.09367679999999723
36251,122.12698787500003,44,0.07416080000000136,64,0.09367679999999723
36252,122.12893947500002,62,0.001951599999998166,82,0.09367679999999723
36253,122.20505187500002,41,0.07611239999999952,72,0.09367679999999723
36254,122.20700347500002,67,0.001951599999998166,88,0.09367679999999723
36255,122.28214007500002,59,0.07513659999999334,82,0.09367679999999723
36256,122.28409167500001,47,0.001951599999998166,63,0.09367680000001144
36257,122.36215567500003,66,0.0780640000000119,88,0.09367679999999723
36258,122.36410727500002,41,0.001951599999998166,72,0.09367679999999723
36259,122.43924387500002,47,0.07513659999999334,63,0.09367679999999723
36260,122.44314707500001,62,0.003903199999996332,82,0.09367680000001144
36261,122.52023527500002,44,0.07708820000000571,72,0.09367679999999723
36262,122.52121107500002,65,0.0009758000000061884,88,0.09367679999999723
36263,122.59537187500001,50,0.07416079999998715,63,0.09367680000001144
36264,122.59634767500002,58,0.0009758000000061884,82,0.09367679999999723
36265,122.67246007500002,44,0.07611239999999952,72,0.09367679999999723
36266,122.67343587500002,64,0.0009758000000061884,88,0.09367679999999723
36267,122.75149987500002,58,0.07806399999999769,82,0.09367679999999723
36268,122.75345147500002,50,0.001951599999998166,63,0.09367679999999723
36269,122.82858807500001,63,0.07513659999999334,88,0.09367680000001144
36270,122.83053967500003,47,0.0019516000000123768,72,0.09367679999999723
36271,122.90860367500002,53,0.07806399999999769,63,0.23419199999999307
36272,122.91153107500001,56,0.0029273999999901434,81,0.23419200000000728
36273,122.98666767500002,62,0.07513660000000755,103,0.11709600000000364
36274,123.92343567500002,14,0.9367680000000007,82,0.09367679999999723
36275,123.92538727500002,74,0.001951599999998166,103,0.09367679999999723
36276,124.00345127500002,20,0.07806399999999769,67,0.09367679999999723
36277,124.00442707500002,68,0.0009758000000061884,85,0.09367679999999723
36278,124.07858787500003,73,0.07416080000000136,99,0.09367679999999723
36279,124.15665187500002,23,0.07806399999999769,67,0.09367679999999723
36280,124.16055507500002,65,0.003903199999996332,85,0.09367679999999723
36281,124.23471587500002,17,0.07416080000000136,79,0.09367679999999723
36282,124.23569167500001,72,0.0009757999999919775,90,0.09367680000001144
36283,124.31277987500002,23,0.07708820000000571,67,0.09367679999999723
36284,124.31668307500001,68,0.003903199999996332,85,0.09367679999999723
36285,124.39279547500001,71,0.07611239999999952,90,0.09367679999999723
36286,124.39377127500002,20,0.0009758000000061884,74,0.09367679999999723
36287,124.46890787500001,65,0.07513659999999334,85,0.09367680000001144
36288,124.46988367500002,26,0.0009758000000061884,67,0.09367679999999723
36289,124.54599607500002,20,0.07611239999999952,74,0.09367679999999723
36290,124.54697187500003,70,0.0009758000000061884,89,0.09367679999999723
36291,124.62601167500002,65,0.07903979999998967,85,0.09367679999999723
36292,124.62893907500002,26,0.0029274000000043543,68,0.09367679999999723
36293,124.70212407500001,23,0.07318499999999517,74,0.09367680000001144
36294,124.70505147500002,69,0.0029274000000043543,89,0.09367679999999723
36295,124.78116387500002,62,0.07611239999999952,84,0.09367679999999723
36296,124.78311547500002,29,0.001951599999998166,67,0.09367679999999723
36297,124.85922787500002,68,0.07611239999999952,89,0.09367679999999723
36298,124.86117947500001,23,0.001951599999998166,74,0.09367680000001144
36299,124.93631607500002,62,0.07513660000000755,84,0.09367679999999723
36300,124.93826767500002,29,0.001951599999998166,66,0.09367679999999723
36301,125.01438007500002,67,0.07611239999999952,89,0.09367679999999723
36302,125.01633167500002,26,0.001951599999998166,74,0.09367679999999723
36303,125.09439567500002,32,0.07806399999999769,64,0.09367679999999723
36304,125.09634727500001,59,0.001951599999998166,84,0.09367680000001144
36305,125.17343547500002,26,0.07708820000000571,73,0.09367679999999723
36306,125.17538707500002,66,0.001951599999998166,89,0.09367679999999723
36307,125.25247527500002,62,0.07708820000000571,82,0.09367679999999723
36308,125.32761187500002,29,0.07513659999999334,73,0.09367679999999723
36309,125.33053927500002,65,0.0029274000000043543,88,0.09367679999999723
36310,125.40470007500002,56,0.07416080000000136,82,0.09367679999999723
36311,125.40762747500001,35,0.0029273999999901434,64,0.09367680000001144
36312,125.48276407500002,29,0.07513660000000755,72,0.09367679999999723
36313,125.48471567500002,64,0.001951599999998166,88,0.09367679999999723
36314,125.56375547500002,59,0.07903980000000388,82,0.09367679999999723
36315,125.64084367500001,32,0.0770881999999915,72,0.09367680000001144
36316,125.64377107500002,63,0.0029274000000043543,88,0.09367679999999723
36317,125.71793187500002,53,0.07416080000000136,84,0.09367679999999723
36318,125.72183507500002,38,0.003903199999996332,64,0.09367679999999723
36319,125.79697167500002,32,0.07513660000000755,73,0.09367679999999723
36320,125.79794747500002,62,0.0009757999999919775,88,0.09367679999999723
36321,125.87503567500002,38,0.07708820000000571,64,0.09367679999999723
36322,125.87698727500002,56,0.001951599999998166,84,0.09367679999999723
36323,125.95407547500002,35,0.07708820000000571,72,0.09367679999999723
36324,125.95602707500002,61,0.001951599999998166,88,0.09367679999999723
36325,126.03311527500001,41,0.0770881999999915,64,0.09367680000001144
36326,126.03409107500002,53,0.0009758000000061884,82,0.09367679999999723
36327,126.10727607500002,35,0.07318499999999517,72,0.09367679999999723
36328,126.11117927500001,60,0.003903199999996332,88,0.09367680000001144
36329,126.18534007500001,41,0.07416080000000136,63,0.09367680000001144
36330,126.18826747500002,56,0.0029274000000043543,84,0.09367679999999723
36331,126.26437987500002,59,0.07611239999999952,86,0.09367679999999723
36332,126.34537127500002,53,0.08099140000000205,82,0.09367679999999723
36333,126.41953207500002,58,0.07416080000000136,85,0.09367679999999723
36334,126.42441107500002,38,0.00487900000000252,72,0.09367679999999723
36335,126.49857187500002,44,0.07416080000000136,63,0.09367679999999723
36336,126.50052347500002,53,0.001951599999998166,81,0.09367679999999723
36337,126.57663587500002,41,0.07611239999999952,72,0.3278687999999903
36338,126.57956327500001,57,0.0029273999999901434,85,0.09367680000001144
36339,126.65567567500003,50,0.07611240000001374,81,0.07611239999999952
36340,126.65665147500002,47,0.0009757999999919775,63,0.07806399999999769
36341,126.73178807500003,56,0.07513660000000755,100,0.14051519999999584
36342,126.73373967500002,53,0.001951599999998166,90,0.11709599999998943
36343,126.73666707500001,47,0.0029273999999901434,90,0.11709600000000364
36344,127.67050767500002,56,0.9338406000000106,60,0.07806399999999769
36345,127.74857167500002,53,0.07806399999999769,55,0.07806399999999769
36346,127.82663567500002,55,0.07806399999999769,60,0.07806399999999769
36347,127.90469967500002,47,0.07806399999999769,60,0.23419200000000728
36348,128.607275675,56,0.7025759999999934,60,0.0780640000000119
36349,128.68533967500002,53,0.0780640000000119,53,0.07806399999998348
36350,128.763403675,55,0.07806399999998348,60,0.0780640000000119
36351,128.84146767500002,38,0.0780640000000119,60,0.23419200000000728
36352,129.544043675,56,0.7025759999999934,51,0.0780640000000119
36353,129.545019475,44,0.0009757999999919775,48,0.0780640000000119
36354,129.62210767500002,53,0.07708820000001992,51,0.07806399999998348
36355,129.62503507500003,41,0.0029274000000043543,48,0.07806399999998348
36356,129.700171675,55,0.07513659999997913,51,0.0780640000000119
36357,129.70212327500002,43,0.0019516000000123768,48,0.0780640000000119
36358,129.77823567500002,38,0.07611239999999952,49,0.0780640000000119
36359,129.779211475,47,0.0009757999999919775,52,0.0780640000000119
36360,129.859227075,56,0.08001559999999586,52,0.0780640000000119
36361,129.93338787500002,41,0.07416080000001557,50,0.07806399999998348
36362,129.93436367500001,53,0.0009757999999919775,53,0.0780640000000119
36363,130.01242767500003,55,0.0780640000000119,53,0.07806399999998348
36364,130.090491675,38,0.07806399999998348,50,0.0780640000000119
36365,130.093419075,47,0.0029274000000043543,53,0.0780640000000119
36366,130.169531475,56,0.07611239999999952,55,0.0780640000000119
36367,130.170507275,44,0.0009757999999919775,51,0.0780640000000119
36368,130.245643875,41,0.07513660000000755,51,0.0780640000000119
36369,130.24661967500003,53,0.0009758000000203992,55,0.07806399999998348
36370,130.325659475,55,0.07903979999997546,56,0.0780640000000119
36371,130.32761107500002,43,0.0019516000000123768,52,0.0780640000000119
36372,130.401771875,38,0.07416079999998715,52,0.0780640000000119
36373,130.404699275,47,0.0029274000000043543,56,0.0780640000000119
36374,130.47886007500003,56,0.07416080000001557,57,0.07806399999998348
36375,130.47983587500002,44,0.0009757999999919775,53,0.0780640000000119
36376,130.556924075,53,0.0770881999999915,57,0.0780640000000119
36377,130.560827275,41,0.003903199999996332,53,0.0780640000000119
36378,130.63596387500002,55,0.07513660000000755,57,0.0780640000000119
36379,130.63889127500002,43,0.0029274000000043543,53,0.0780640000000119
36380,130.713052075,47,0.07416079999998715,58,0.0780640000000119
36381,130.715979475,38,0.0029274000000043543,55,0.0780640000000119
36382,130.792091875,56,0.07611239999999952,58,0.0780640000000119
36383,130.79501927500002,44,0.0029274000000043543,55,0.0780640000000119
36384,130.86918007500003,41,0.07416080000001557,56,0.07806399999998348
36385,130.87113167500002,53,0.001951599999983955,59,0.0780640000000119
36386,130.948219875,43,0.0770881999999915,56,0.0780640000000119
36387,130.95017147500002,55,0.0019516000000123768,59,0.0780640000000119
36388,131.02628387500002,47,0.07611239999999952,60,0.0780640000000119
36389,131.103372075,56,0.0770881999999915,60,0.0780640000000119
36390,131.10825107500003,44,0.004879000000016731,57,0.07806399999998348
36391,131.18436347500003,53,0.07611239999999952,60,0.07806399999998348
36392,131.186315075,41,0.001951599999983955,57,0.0780640000000119
36393,131.259500075,55,0.07318499999999517,61,0.0780640000000119
36394,131.262427475,43,0.0029274000000043543,58,0.0780640000000119
36395,131.338539875,47,0.07611239999999952,61,0.0780640000000119
36396,131.341467275,38,0.0029274000000043543,58,0.0780640000000119
36397,131.41660387500002,44,0.07513660000000755,59,0.09367679999999723
36398,131.41953127500003,56,0.0029274000000043543,62,0.07806399999998348
36399,131.49564367500003,53,0.07611239999999952,62,0.07806399999998348
36400,131.49857107500003,43,0.0029274000000043543,59,0.09367679999999723
36401,131.573707675,42,0.07513659999997913,59,0.09367679999999723
36402,131.576635075,55,0.0029274000000043543,62,0.0780640000000119
36403,131.649820075,41,0.07318499999999517,60,0.09367679999999723
36404,131.65079587500003,47,0.0009758000000203992,63,0.07806399999998348
36405,131.72788407500002,56,0.0770881999999915,63,0.07806399999998348
36406,131.73178727500002,40,0.003903199999996332,60,0.09367679999999723
36407,131.805948075,39,0.07416079999998715,61,0.09367680000002565
36408,131.808875475,53,0.0029274000000043543,64,0.0780640000000119
36409,131.884987875,55,0.07611239999999952,64,0.09367679999999723
36410,131.96207607500003,47,0.07708820000001992,66,0.07806399999998348
36411,131.964027675,37,0.001951599999983955,62,0.09367679999999723
36412,132.04306747500002,56,0.07903980000000388,66,0.09367679999999723
36413,132.12113147500003,35,0.0780640000000119,62,0.09367679999999723
36414,132.12210727500002,53,0.0009757999999919775,66,0.0780640000000119
36415,132.196268075,55,0.07416079999998715,67,0.0780640000000119
36416,132.19821967500002,34,0.0019516000000123768,63,0.09367679999999723
36417,132.27433207500002,33,0.07611239999999952,63,0.09367679999999723
36418,132.279211075,47,0.004878999999988309,67,0.0780640000000119
36419,132.354347675,56,0.07513660000000755,68,0.0780640000000119
36420,132.35727507500002,32,0.0029274000000043543,64,0.09367679999999723
36421,132.430460075,31,0.07318499999999517,64,0.09367679999999723
36422,132.43533907500003,53,0.004879000000016731,68,0.07806399999998348
36423,132.50852407500003,30,0.07318499999999517,64,0.09367679999999723
36424,132.51145147500003,55,0.0029274000000043543,69,0.07806399999998348
36425,132.58756387500003,47,0.07611239999999952,69,0.07806399999998348
36426,132.59146707500003,29,0.003903199999996332,66,0.09367679999999723
36427,132.665627875,56,0.07416079999998715,69,0.0780640000000119
36428,132.66660367500003,28,0.0009758000000203992,66,0.09367679999999723
36429,132.74466767500002,53,0.07806399999998348,70,0.0780640000000119
36430,132.74661927500003,27,0.0019516000000123768,67,0.09367679999999723
36431,132.821755875,55,0.07513659999997913,70,0.09367679999999723
36432,132.89884407500003,25,0.07708820000001992,68,0.09367679999999723
36433,132.900795675,47,0.001951599999983955,71,0.0780640000000119
36434,132.97885967500002,24,0.0780640000000119,68,0.09367679999999723
36435,132.980811275,56,0.001951599999983955,71,0.0780640000000119
36436,133.05887527500002,23,0.0780640000000119,68,0.09367679999999723
36437,133.059851075,53,0.0009757999999919775,72,0.0780640000000119
36438,133.13498767500002,55,0.07513660000000755,72,0.0780640000000119
36439,133.135963475,22,0.0009757999999919775,69,0.09367679999999723
36440,133.21305167500003,47,0.07708820000001992,72,0.07806399999998348
36441,133.21500327500002,21,0.001951599999983955,69,0.09367679999999723
36442,133.29306727500003,56,0.0780640000000119,73,0.07806399999998348
36443,133.29404307500002,20,0.0009757999999919775,70,0.0780640000000119
36444,133.368203875,19,0.07416079999998715,70,0.0780640000000119
36445,133.371131275,53,0.0029274000000043543,73,0.0780640000000119
36446,133.44529207500003,55,0.07416080000001557,74,0.07806399999998348
36447,133.447243675,18,0.001951599999983955,70,0.0780640000000119
36448,133.523356075,47,0.07611239999999952,74,0.0780640000000119
36449,133.52823507500003,19,0.004879000000016731,71,0.07806399999998348
36450,133.60142007500002,20,0.07318499999999517,71,0.07806399999998348
36451,133.60532327500002,56,0.003903199999996332,74,0.0780640000000119
36452,133.68436307500002,53,0.07903980000000388,75,0.07806399999998348
36453,133.76047547500002,55,0.07611239999999952,75,0.07806399999998348
36454,133.83658787500002,19,0.07611239999999952,73,0.07806399999998348
36455,133.837563675,59,0.0009757999999919775,77,0.0780640000000119
36456,133.913676075,20,0.07611239999999952,73,0.0780640000000119
36457,133.91562767500002,68,0.0019516000000123768,77,0.07806399999998348
36458,133.99174007500002,65,0.07611239999999952,78,0.07806399999998348
36459,133.99271587500002,19,0.0009757999999919775,73,0.0780640000000119
36460,134.07077987500003,18,0.0780640000000119,74,0.07806399999998348
36461,134.07175567500002,67,0.0009757999999919775,78,0.07806399999998348
36462,134.148843875,71,0.0770881999999915,78,0.0780640000000119
36463,134.22690787500002,20,0.0780640000000119,75,0.07778223333332335
36464,134.22788367500002,80,0.0009757999999919775,79,0.07777866666666
36465,134.3085790416667,77,0.08069536666667432,79,0.07778936666665004
36466,134.382468775,79,0.07388973333331705,80,0.07806043333332013
36467,134.38441680833333,18,0.001948033333320609,77,0.0780640000000119
36468,134.46052920833333,71,0.07611239999999952,80,0.07820716250000714
36469,134.46345660833333,19,0.0029274000000043543,77,0.07821817500001771
36470,134.5377569,80,0.07430029166667396,81,0.0783576666666761
36471,134.53873637083333,20,0.0009794708333288327,77,0.0783576666666761
36472,134.61807350833334,77,0.07933713750000493,81,0.07864733333332197
36473,134.62003969166668,19,0.0019661833333373124,78,0.07864733333332197
36474,134.69573775,79,0.07569805833333021,81,0.07879260833334456
36475,134.698687025,18,0.002949274999991758,78,0.07880378333334193
36476,134.77453035833335,71,0.0758433333333528,82,0.07894533333333698
36477,134.77847762500002,19,0.003947266666671112,79,0.07895635833332904
36478,134.8534756916667,80,0.07499806666666586,82,0.07923565833331736
36479,134.85743398333335,20,0.003958291666663172,79,0.07923933333333366
36480,134.93271135,77,0.07527736666665419,83,0.07938371458331517
36481,134.93667331666668,19,0.003961966666679473,79,0.07939852291664806
36482,135.01209506458332,18,0.0754217479166357,80,0.07953550000001997
36483,135.01308925833334,79,0.0009941937500173026,83,0.07953549999999154
36484,135.09063637083332,71,0.07754711249998536,84,0.07982020000000034
36485,135.17045657083332,80,0.07982020000000034,97,0.08043492499999161
36486,135.17245225833332,12,0.0019956874999991214,119,0.2413515000000075
36487,135.25591965208332,75,0.08346739374999856,81,0.08045050000001197
36488,135.33134199583333,79,0.0754223437500059,90,0.08045049999998355
36489,135.41682065208332,72,0.08547865624998963,73,0.08045050000001197
36490,135.4942542583333,78,0.07743360624999696,93,0.08045050000001197
36491,135.5777216520833,75,0.08346739374999856,73,0.0803394562499875
36492,135.6551552583333,43,0.07743360624999696,92,0.34870200000000295
36493,135.73167597499997,72,0.07652071666666416,67,0.07748933333334662
36494,135.8120711583333,76,0.08039518333333717,79,0.0774893333333182
36495,135.8905291083333,72,0.07845795000000066,67,0.0774893333333182
36496,135.96511259166664,75,0.07458348333332765,78,0.07748933333334662
36497,136.0038572583333,43,0.03874466666667331,86,0.11623399999999151
36498,136.04260192499999,67,0.03874466666667331,67,0.0774893333333182
36499,136.1200912583333,43,0.0774893333333182,92,0.47014599999999973
36500,136.12205019999996,74,0.0019589416666576653,79,0.0783576666666761
36501,136.19746945416665,67,0.0754192541666896,73,0.07835766666664767
36502,136.27680659166663,73,0.0793371374999765,79,0.0783576666666761
36503,136.35614372916663,63,0.07933713750000493,73,0.0783576666666761
36504,136.43548086666664,72,0.07933713750000493,79,0.0783576666666761
36505,136.5138385333333,67,0.0783576666666761,73,0.07830116666664821
36506,136.5902372583333,44,0.07639872499999001,97,0.4565859999999873
36507,136.59213969999996,71,0.0019024416666582056,79,0.07609766666666928
36508,136.66633492499997,63,0.07419522500001108,67,0.07609766666666928
36509,136.7443350333333,70,0.07800010833332749,71,0.07609766666666928
36510,136.81948147916663,63,0.07514644583332597,67,0.07609766666666928
36511,136.89367670416664,69,0.07419522500001108,71,0.07609766666666928
36512,136.97072559166665,60,0.0770488875000126,67,0.07609766666664086
36513,137.04492081666663,68,0.07419522499998266,79,0.07858359166667128
36514,137.0468232583333,43,0.0019024416666582056,92,0.47188399999998865
36515,137.12841986666663,63,0.08159660833334215,73,0.07864733333332197
36516,137.2060841083333,67,0.07766424166666752,79,0.07864733333332197
36517,137.28276525833328,60,0.07668114999998465,73,0.07864733333335039
36518,137.36042949999995,66,0.07766424166666752,79,0.07864733333335039
36519,137.4390768333333,63,0.07864733333335039,73,0.07864733333332197
36520,137.51772416666662,65,0.07864733333332197,79,0.08291283958331519
36521,137.51870725833328,39,0.0009830916666544454,86,0.4978010000000097
36522,137.59959992083327,60,0.08089266249999127,67,0.08296683333333021
36523,137.68775218124995,64,0.08815226041667756,71,0.08296683333333021
36524,137.7665706729166,60,0.07881849166665233,67,0.08296683333335864
36525,137.8505745916666,63,0.08400391874999968,71,0.08296683333335864
36526,137.93146725416662,55,0.0808926625000197,67,0.08296683333333021
36527,138.0165082583333,43,0.08504100416666915,86,0.9198920000000044
36528,138.0193829208333,62,0.0028746625000053427,71,0.07665766666664808
36529,138.0941241458333,55,0.0747412249999968,67,0.0766576666666765
36530,138.1717400333333,61,0.07761588750000215,71,0.0766576666666765
36531,138.24552303749996,51,0.07378300416667116,67,0.07665766666664808
36532,138.32313892499997,60,0.07761588750000215,71,0.07665766666664808
36533,138.4017130333333,55,0.07857410833332779,67,0.07665766666664808
36534,138.4764542583333,59,0.0747412249999968,71,0.0766576666666765
36535,138.5540701458333,51,0.07761588750000215,67,0.0766576666666765
36536,138.6316860333333,58,0.07761588750000215,71,0.07665766666664808
36537,138.70546903749997,51,0.07378300416667116,67,0.07665766666664808
36538,138.78212670416661,57,0.07665766666664808,71,0.0766576666666765
36539,138.86261725416662,48,0.08049055000000749,67,0.07674345416666029
36540,138.9364002583333,12,0.07378300416667116,72,0.23683600000001093
36541,138.93837389166663,56,0.001973633333335556,53,0.07894533333333698
36542,139.01435877499995,51,0.07598488333331943,49,0.07894533333333698
36543,139.09725137499996,55,0.08289260000000809,53,0.07894533333333698
36544,139.17126262499997,48,0.0740112500000123,49,0.07894533333333698
36545,139.25415522499995,54,0.08289259999997967,53,0.07894533333333698
36546,139.32915329166661,51,0.07499806666666586,49,0.07894533333333698
36547,139.40809862499995,53,0.07894533333333698,53,0.07752573333334567
36548,139.4100722583333,31,0.001973633333335556,69,0.34870200000000295
36549,139.4856243583333,48,0.07555210000001011,49,0.0774893333333182
36550,139.56601954166663,52,0.08039518333333717,53,0.0774893333333182
36551,139.64350887499995,48,0.0774893333333182,49,0.07748933333334662
36552,139.7209982083333,51,0.07748933333334662,53,0.0774893333333182
36553,139.7587742583333,31,0.037776049999990846,61,0.11623399999999151
36554,139.79655030833328,43,0.037776049999990846,49,0.07748933333334662
36555,139.87307102499994,50,0.07652071666666416,53,0.07890893333333793
36556,139.87500825833328,31,0.0019372333333365077,70,0.47367199999999343
36557,139.95296677499994,43,0.07795851666665499,49,0.07894533333333698
36558,140.03092529166662,49,0.07795851666668341,51,0.07894533333333698
36559,140.1118442583333,39,0.08091896666667253,48,0.07894533333330855
36560,140.1888159583333,48,0.07697170000000142,50,0.07894533333330855
36561,140.26874810833328,43,0.07993214999999054,45,0.07894533333333698
36562,140.34868025833327,32,0.07993214999999054,62,0.45502799999999866
36563,140.35057620833328,47,0.0018959500000050866,49,0.07583800000000451
36564,140.42546623333328,39,0.07489002500000197,44,0.07583800000000451
36565,140.49940828333328,46,0.07394204999999943,47,0.07583800000000451
36566,140.57903818333327,39,0.07962989999998626,44,0.07583800000000451
36567,140.65487618333327,45,0.07583800000000451,45,0.07583800000000451
36568,140.72597430833326,36,0.0710981249999918,45,0.07583800000000451
36569,140.80276028333327,44,0.07678597500000706,45,0.07861221666667007
36570,140.80370825833327,31,0.0009479750000025433,58,0.47188399999998865
36571,140.88432177499993,39,0.08061351666665928,42,0.07864733333335039
36572,140.96100292499995,43,0.07668115000001308,45,0.07864733333332197
36573,141.0386671666666,36,0.07766424166666752,42,0.07864733333332197
36574,141.11829759166662,42,0.07963042500000483,44,0.07864733333332197
36575,141.1979280166666,39,0.07963042499997641,40,0.07868925208333621
36576,141.27559225833326,12,0.07766424166666752,55,1.4253490000000113
36577,141.2776422791666,41,0.002050020833337385,42,0.08200083333332486
36578,141.35861810208326,36,0.08097582291665617,39,0.08200083333335328
36579,141.4375439041666,40,0.07892580208334721,42,0.08200083333332486
36580,141.5236447791666,36,0.08610087499999963,39,0.08200083333332486
36581,141.60462060208326,39,0.08097582291665617,40,0.08200083333332486
36582,141.6835464041666,31,0.07892580208334721,38,0.08200083333332486
36583,141.76759725833327,19,0.08405085416666225,58,0.9333440000000053
36584,141.7685694916666,38,0.0009722333333286315,40,0.07777866666666
36585,141.84829262499994,31,0.07972313333334569,39,0.07777866666666
36586,141.92509905833327,37,0.07680643333333137,45,0.07777866666666
36587,142.00093325833328,27,0.07583420000000274,42,0.07777866666666
36588,142.07871192499994,36,0.07777866666666,47,0.07777866666666
36589,142.1594072916666,31,0.08069536666667432,45,0.07777866666666
36590,142.2352414916666,35,0.07583420000000274,50,0.07777866666666
36591,142.31204792499994,27,0.07680643333333137,48,0.07777866666666
36592,142.3927432916666,36,0.0806953666666459,53,0.07777866666668842
36593,142.4685774916666,31,0.07583420000000274,50,0.07777866666668842
36594,142.54343945833327,39,0.0748619666666741,56,0.07777866666666
36595,142.62413482499994,32,0.08069536666667432,53,0.07781571875000282
36596,142.6989967916666,43,0.07486196666664569,57,0.08066872916668899
36597,142.70094125833327,11,0.0019444666666856847,69,0.24222850000001017
36598,142.78067480624995,38,0.07973354791667475,57,0.08074283333331778
36599,142.8634362104166,41,0.08276140416666067,57,0.08074283333331778
36600,142.9451883291666,44,0.08175211874998922,57,0.0807428333333462
36601,143.0239125916666,55,0.0787242625000033,57,0.0807428333333462
36602,143.10768328124993,50,0.08377068958333211,57,0.08061050833333638
36603,143.18539825833327,41,0.07771497708333186,77,0.34746375000000285
36604,143.18732861249993,53,0.0019303541666602086,59,0.07721416666666414
36605,143.26261242499993,56,0.07528381250000393,60,0.07721416666666414
36606,143.3398265916666,67,0.07721416666666414,61,0.07721416666666414
36607,143.41704075833326,62,0.07721416666666414,62,0.07721416666666414
36608,143.49522010208327,65,0.07817934375000846,64,0.07721416666666414
36609,143.53286200833327,41,0.037641906250001966,73,0.11582125000001042
36610,143.5714690916666,56,0.03860708333331786,66,0.07721416666669256
36611,143.64868325833328,39,0.07721416666669256,77,0.46328499999998485
36612,143.6496484354166,65,0.0009651770833158935,67,0.07721416666666414
36613,143.72686260208326,60,0.07721416666666414,64,0.07721416666666414
36614,143.8031115916666,63,0.07624898958334825,61,0.07721416666666414
36615,143.88322128958328,56,0.08010969791666867,59,0.07721416666666414
36616,143.9565747479166,53,0.0733534583333153,59,0.07721416666666414
36617,144.03282373749994,48,0.07624898958334825,57,0.07721416666666414
36618,144.1100379041666,51,0.07721416666666414,55,0.07890205416666163
36619,144.11196825833326,24,0.0019303541666602086,77,0.47367199999999343
36620,144.18893995833326,44,0.07697170000000142,55,0.07894533333333698
36621,144.26887210833326,41,0.07993214999999054,55,0.07894533333333698
36622,144.3478174416666,36,0.07894533333333698,55,0.07894533333333698
36623,144.42774959166658,39,0.07993214999999054,55,0.07894533333333698
36624,144.50866855833326,32,0.08091896666667253,55,0.07894533333333698
36625,144.58564025833326,23,0.07697170000000142,66,0.23683600000001093
36626,144.66261195833326,38,0.07697170000000142,57,0.07894533333333698
36627,144.74451774166658,41,0.0819057833333261,57,0.07894533333333698
36628,144.82543670833326,44,0.08091896666667253,57,0.07894533333333698
36629,144.90339522499994,55,0.07795851666668341,57,0.07894533333333698
36630,144.97938010833326,50,0.07598488333331943,57,0.07894533333333698
36631,145.05931225833325,34,0.07993214999999054,73,0.15442833333332828
36632,145.06220778958325,53,0.002895531250004524,60,0.07721416666666414
36633,145.13556124791657,56,0.0733534583333153,60,0.07721416666669256
36634,145.21181023749992,67,0.07624898958334825,61,0.07721416666666414
36635,145.21374059166658,32,0.0019303541666602086,72,0.15442833333332828
36636,145.2919199354166,62,0.07817934375000846,64,0.07721416666666414
36637,145.36623857083325,65,0.07431863541665962,64,0.07721416666666414
36638,145.3681689249999,31,0.0019303541666602086,73,0.1544283333333567
36639,145.44827862291658,55,0.08010969791666867,66,0.07721416666666414
36640,145.52259725833326,31,0.07431863541668804,77,0.46328499999998485
36641,145.52356243541658,65,0.0009651770833158935,66,0.07721416666666414
36642,145.59981142499993,60,0.07624898958334825,64,0.07721416666666414
36643,145.6750952374999,63,0.07528381249997551,61,0.07721416666669256
36644,145.7532745812499,55,0.07817934375000846,59,0.07721416666666414
36645,145.83434945624992,53,0.08107487500001298,58,0.07721416666666414
36646,145.90963326874993,48,0.07528381250000393,56,0.07722846041664866
36647,145.9839519041666,51,0.07431863541665962,56,0.07832907916665022
36648,145.98588225833325,24,0.0019303541666602086,79,0.47014599999999973
36649,146.06228098333324,43,0.07639872499999001,56,0.0783576666666761
36650,146.1435770624999,41,0.0812960791666626,56,0.0783576666666761
36651,146.22389367083323,36,0.08031660833333376,56,0.0783576666666761
36652,146.30029239583325,39,0.07639872500001843,56,0.07835766666664767
36653,146.37669112083324,38,0.07639872499999001,56,0.0783576666666761
36654,146.45602825833325,26,0.07933713750000493,68,0.23507299999999987
36655,146.5373243374999,43,0.0812960791666626,55,0.0783576666666761
36656,146.6107846499999,47,0.07346031250000351,55,0.0783576666666761
36657,146.69110125833325,50,0.08031660833333376,55,0.0783576666666761
36658,146.77043839583325,60,0.07933713750000493,55,0.0783576666666761
36659,146.84781659166657,55,0.07737819583331884,55,0.0783576666666761
36660,146.92519478749992,59,0.07737819583334726,55,0.0777859041666602
36661,146.92617425833325,43,0.0009794708333288327,70,0.46667199999998843
36662,147.00492515833324,62,0.07875089999998863,55,0.07777866666668842
36663,147.08075935833324,72,0.07583420000000274,56,0.07777866666668842
36664,147.08173159166657,47,0.0009722333333286315,66,0.15555733333334842
36665,147.15853802499993,67,0.07680643333335979,57,0.07777866666666
36666,147.23728892499992,52,0.07875089999998863,70,0.15555733333332
36667,147.23826115833324,71,0.0009722333333286315,59,0.07777866666666
36668,147.3179842916666,62,0.07972313333334569,59,0.07777866666666
36669,147.39284625833324,48,0.07486196666664569,70,0.46667200000001685
36670,147.46965269166657,66,0.07680643333333137,59,0.07777866666668842
36671,147.55034805833324,69,0.08069536666667432,59,0.07777866666666
36672,147.62618225833324,62,0.07583420000000274,58,0.07777866666666
36673,147.70493315833326,59,0.07875090000001705,57,0.07777866666666
36674,147.7817395916666,54,0.07680643333333137,56,0.07777866666666
36675,147.85951825833325,38,0.07777866666666,77,0.4772130000000061
36676,147.86250083958325,57,0.0029825812499950644,51,0.07953549999999154
36677,147.93706537083327,50,0.07456453125001872,51,0.07953549999999154
36678,148.01958345208325,47,0.08251808124998661,51,0.07953549999999154
36679,148.09613637083325,42,0.07655291874999648,51,0.07953549999999154
36680,148.17666606458326,45,0.08052969375000885,51,0.07953549999999154
36681,148.25520737083326,38,0.07854130625000266,51,0.07953549999999154
36682,148.33474287083325,48,0.07953549999999154,51,0.07953549999999154
36683,148.33673125833326,31,0.0019883875000061835,77,0.23860650000000305
36684,148.41825514583326,43,0.08152388749999773,51,0.07953549999999154
36685,148.49779064583325,47,0.07953549999999154,51,0.07953549999999154
36686,148.57533775833326,50,0.07754711250001378,51,0.07953549999999154
36687,148.65487325833325,60,0.07953549999999154,51,0.07953549999999154
36688,148.73540295208326,55,0.08052969375000885,51,0.07953549999999154
36689,148.81394425833327,47,0.07854130625000266,67,0.1590709999999831
36690,148.89447395208325,62,0.08052969374998042,57,0.07953550000001997
36691,148.97102687083324,72,0.07655291874999648,57,0.07953550000001997
36692,148.97301525833325,46,0.0019883875000061835,58,0.1590710000000115
36693,149.05453914583325,67,0.08152388749999773,57,0.07953550000001997
36694,149.13208625833326,47,0.07754711250001378,63,0.1590709999999831
36695,149.21460433958325,62,0.08251808124998661,57,0.07953550000001997
36696,149.29115725833324,79,0.07655291874999648,76,0.23860650000000305
36697,150.24558325833326,12,0.9544260000000122,99,0.2413515000000075
36698,150.24658888958325,80,0.001005631249995531,99,0.08045050000001197
36699,150.32905065208325,75,0.08246176250000303,67,0.08045050000001197
36700,150.40648425833325,79,0.07743360624999696,89,0.08045050000001197
36701,150.48894602083325,72,0.08246176250000303,67,0.08045050000001197
36702,150.56839088958324,78,0.07944486874998802,82,0.08045050000001197
36703,150.64783575833326,75,0.07944486875001644,67,0.08045049999998355
36704,150.72828625833324,43,0.08045049999998355,84,0.34870200000000295
36705,150.73022349166658,77,0.0019372333333365077,79,0.0774893333333182
36706,150.80868144166658,72,0.07845795000000066,62,0.0774893333333182
36707,150.88132769166657,76,0.07264624999999114,77,0.07748933333334662
36708,150.96269149166656,72,0.08136379999999122,62,0.07748933333334662
36709,151.03824359166657,75,0.07555210000001011,77,0.07748933333334662
36710,151.07698825833324,43,0.03874466666667331,79,0.11623399999999151
36711,151.11476430833324,67,0.037776049999990846,62,0.07748933333334662
36712,151.19322225833324,43,0.07845795000000066,84,0.47014599999999973
36713,151.1951811999999,74,0.0019589416666576653,74,0.0783576666666761
36714,151.27353886666657,67,0.0783576666666761,67,0.0783576666666761
36715,151.34895812083323,73,0.07541925416666118,75,0.0783576666666761
36716,151.42927472916656,63,0.08031660833333376,67,0.0783576666666761
36717,151.50567345416658,72,0.07639872500001843,75,0.07835766666664767
36718,151.5830516499999,67,0.07737819583331884,67,0.0783576666666761
36719,151.66336825833324,44,0.08031660833333376,88,0.4565859999999873
36720,151.6652706999999,71,0.0019024416666582056,73,0.07609766666666928
36721,151.7394659249999,63,0.07419522500001108,62,0.07609766666666928
36722,151.81461237083323,70,0.07514644583332597,70,0.07609766666666928
36723,151.8907100374999,63,0.07609766666666928,62,0.07609766666666928
36724,151.96871014583323,69,0.07800010833332749,67,0.07609766666666928
36725,152.04290537083324,60,0.07419522500001108,62,0.07609766666666928
36726,152.1190030374999,68,0.07609766666666928,70,0.07861546249998241
36727,152.11995425833322,43,0.0009512208333148919,84,0.47188399999998865
36728,152.1976184999999,63,0.07766424166666752,67,0.07864733333332197
36729,152.27823201666655,67,0.08061351666665928,70,0.07864733333335039
36730,152.35786244166655,60,0.07963042500000483,67,0.07864733333332197
36731,152.43650977499988,66,0.07864733333332197,70,0.07864733333335039
36732,152.51417401666654,63,0.07766424166666752,67,0.07870132708333699
36733,152.5898720749999,65,0.07569805833335863,70,0.08285884583330017
36734,152.5918382583332,39,0.0019661833333088907,79,0.4978010000000097
36735,152.67376800624987,60,0.08192974791666074,62,0.08296683333333021
36736,152.76088318124988,64,0.0871151750000081,67,0.08296683333333021
36737,152.83970167291653,60,0.07881849166665233,62,0.08296683333335864
36738,152.9226685062499,63,0.08296683333335864,67,0.08296683333333021
36739,153.00459825416655,55,0.08192974791666074,62,0.08296683333333021
36740,153.08963925833322,43,0.08504100416666915,79,0.9198920000000044
36741,153.16533870416654,55,0.07569944583332244,62,0.0766576666666765
36742,153.24582925416655,61,0.08049055000000749,67,0.0766576666666765
36743,153.3186540374999,51,0.07282478333334552,62,0.07665766666664808
36744,153.39531170416655,60,0.07665766666664808,67,0.0766576666666765
36745,153.4738858124999,55,0.07857410833335621,62,0.07665766666664808
36746,153.55150169999987,59,0.07761588749997372,67,0.0766576666666765
36747,153.62720114583323,51,0.07569944583335086,62,0.0766576666666765
36748,153.70194237083322,58,0.0747412249999968,67,0.0766576666666765
36749,153.78147469999988,51,0.07953232916665343,62,0.0766576666666765
36750,153.8562159249999,57,0.07474122500002522,67,0.07665766666664808
36751,153.93479003333323,48,0.07857410833332779,62,0.07671485833333236
36752,154.00761481666655,56,0.0728247833333171,53,0.07888814166668112
36753,154.00953125833323,10,0.0019164416666797024,69,0.23683600000001093
36754,154.0904502249999,51,0.08091896666667253,49,0.07894533333333698
36755,154.16840874166655,55,0.07795851666665499,53,0.07894533333333698
36756,154.2443936249999,48,0.07598488333334785,49,0.07894533333333698
36757,154.32728622499988,54,0.08289259999997967,53,0.07894533333333698
36758,154.40425792499988,51,0.07697170000000142,49,0.07894533333333698
36759,154.48320325833322,31,0.07894533333333698,69,0.34870200000000295
36760,154.48417187499987,53,0.000968616666654043,53,0.07748933333334662
36761,154.56359844166656,48,0.07942656666668313,49,0.0774893333333182
36762,154.63915054166657,52,0.07555210000001011,53,0.0774893333333182
36763,154.71567125833323,48,0.07652071666666416,49,0.0774893333333182
36764,154.7912233583332,51,0.07555209999998169,53,0.07748933333334662
36765,154.83190525833322,31,0.04068190000000982,61,0.11623399999999151
36766,154.87258715833323,43,0.04068190000000982,49,0.07752573333331725
36767,154.9481392583332,31,0.07555209999998169,70,1.4090199999999697
36768,154.94912607499987,50,0.0009868166666535672,53,0.07894533333333698
36769,155.02708459166655,43,0.07795851666668341,49,0.07894533333333698
36770,155.10701674166654,49,0.07993214999999054,51,0.07894533333333698
36771,155.18694889166656,39,0.07993215000001896,48,0.07894533333330855
36772,155.26194695833323,48,0.07499806666666586,50,0.07894533333330855
36773,155.34089229166653,43,0.07894533333330855,45,0.07894533333333698
36774,155.4218112583332,32,0.08091896666667253,62,0.46346399999998766
36775,155.4227768083332,47,0.0009655499999894346,49,0.07724400000000742
36776,155.5009863583332,39,0.07820954999999685,44,0.07724400000000742
36777,155.5753337083332,46,0.07434735000001069,47,0.07724400000000742
36778,155.6554743583332,39,0.08014065000000414,44,0.07724400000000742
36779,155.7336839083332,45,0.07820954999999685,45,0.07724400000000742
36780,155.8099623583332,36,0.07627844999998956,42,0.07727908333333744
36781,155.8843097083332,44,0.07434735000001069,45,0.07862979166665696
36782,155.8852752583332,31,0.0009655499999894346,58,0.47188399999998865
36783,155.9649056833332,39,0.07963042500000483,42,0.07864733333332197
36784,156.04256992499987,43,0.07766424166666752,45,0.07864733333332197
36785,156.11925107499985,36,0.07668114999998465,42,0.07864733333335039
36786,156.19986459166654,42,0.0806135166666877,44,0.07864733333332197
36787,156.27654574166652,39,0.07668114999998465,40,0.07864733333335039
36788,156.35715925833318,27,0.08061351666665928,58,0.492005000000006
36789,156.35920927916652,41,0.002050020833337385,42,0.08200083333332486
36790,156.43711007083317,36,0.0779007916666501,39,0.08200083333335328
36791,156.52321094583317,40,0.08610087499999963,42,0.08200083333335328
36792,156.60521177916652,36,0.08200083333335328,39,0.08200083333332486
36793,156.68721261249985,39,0.08200083333332486,40,0.08200083333332486
36794,156.77023845624984,31,0.08302584374999356,38,0.0818425020833331
36795,156.8491642583332,20,0.07892580208334721,58,0.46667199999998843
36796,156.85110872499985,38,0.001944466666657263,40,0.07777866666668842
36797,156.92791515833318,32,0.07680643333333137,39,0.07777866666668842
36798,157.00374935833318,36,0.07583420000000274,45,0.07777866666668842
36799,157.0805557916665,27,0.07680643333333137,42,0.07777866666668842
36800,157.15930669166653,35,0.07875090000001705,47,0.07777866666666
36801,157.2400020583332,32,0.08069536666667432,45,0.07777866666666
36802,157.31583625833318,19,0.07583419999997432,58,0.46667200000001685
36803,157.3187529583332,36,0.002916700000014316,50,0.07777866666666
36804,157.39361492499987,27,0.0748619666666741,48,0.07777866666666
36805,157.4704213583332,38,0.07680643333333137,53,0.07777866666666
36806,157.55111672499984,31,0.0806953666666459,50,0.07777866666668842
36807,157.6279231583332,39,0.07680643333335979,56,0.07777866666666
36808,157.70472959166653,27,0.07680643333333137,53,0.07777866666666
36809,157.7825082583332,17,0.07777866666666,63,0.23683600000001093
36810,157.86441404166652,32,0.0819057833333261,57,0.07894533333333698
36811,157.94039892499987,38,0.07598488333334785,57,0.07499806666666586
36812,158.0223047083332,38,0.0819057833333261,57,0.07894533333333698
36813,158.09730277499986,51,0.07499806666666586,57,0.07894533333333698
36814,158.17822174166653,44,0.08091896666667253,57,0.0789236937499993
36815,158.2561802583332,36,0.07795851666665499,63,0.15442833333332828
36816,158.33339442499985,50,0.07721416666666414,57,0.07721416666666414
36817,158.41060859166652,28,0.07721416666666414,62,0.15442833333332828
36818,158.41350412291652,63,0.002895531250004524,58,0.07721416666666414
36819,158.48782275833318,56,0.07431863541665962,59,0.07721416666666414
36820,158.56503692499984,29,0.07721416666666414,63,0.1544283333333567
36821,158.6422510916665,62,0.07721416666666414,60,0.07721416666669256
36822,158.7194652583332,30,0.07721416666669256,69,0.46328499999998485
36823,158.72043043541652,75,0.0009651770833158935,61,0.07721416666666414
36824,158.79860977916653,69,0.07817934375000846,61,0.07721416666666414
36825,158.87196323749984,74,0.0733534583333153,60,0.07721416666669256
36826,158.9520729354165,62,0.08010969791666867,59,0.07721416666669256
36827,159.0273567479165,63,0.07528381250000393,59,0.07721416666666414
36828,159.10457091458318,57,0.07721416666666414,58,0.07721416666666414
36829,159.1827502583332,18,0.07817934375000846,72,0.4789649999999881
36830,159.18474594583319,62,0.0019956874999991214,56,0.07982749999999328
36831,159.2655712895832,50,0.08082534375000705,56,0.07982749999999328
36832,159.3444009458332,51,0.07882965625000793,56,0.07982749999999328
36833,159.42522628958318,45,0.08082534374997863,56,0.07982749999999328
36834,159.50305810208317,50,0.07783181249999416,56,0.0798275000000217
36835,159.5848812895832,38,0.08182318750002082,56,0.07978324374997214
36836,159.66171525833317,19,0.07683396874998039,73,0.23594199999999432
36837,159.66466453333317,53,0.002949274999991758,59,0.07864733333335039
36838,159.74134568333318,46,0.07668115000001308,59,0.07864733333332197
36839,159.81900992499985,52,0.07766424166666752,60,0.0737318749999929
36840,159.89765725833317,52,0.07864733333332197,61,0.07864733333335039
36841,159.97433840833318,65,0.07668115000001308,61,0.07864733333332197
36842,160.05691810833318,56,0.08257969999999659,64,0.07861150416664486
36843,160.13359925833316,37,0.07668114999998465,79,0.15442833333332828
36844,160.21081342499983,64,0.07721416666666414,66,0.07721416666666414
36845,160.2880275916665,30,0.07721416666666414,79,0.15442833333332828
36846,160.28899276874984,77,0.0009651770833443152,67,0.07721416666666414
36847,160.36717211249982,70,0.07817934374998003,68,0.07721416666669256
36848,160.44245592499982,31,0.07528381250000393,79,0.1544283333333567
36849,160.4443862791665,76,0.0019303541666886304,68,0.07721416666666414
36850,160.5225656229165,64,0.07817934374998003,69,0.07721416666666414
36851,160.5949539041665,78,0.07238828124999941,69,0.07721416666666414
36852,160.59688425833318,32,0.0019303541666886304,81,0.46328499999998485
36853,160.67409842499984,73,0.07721416666666414,69,0.07721416666666414
36854,160.75227776874982,77,0.07817934374998003,70,0.07721416666666414
36855,160.82852675833317,65,0.07624898958334825,71,0.07721416666666414
36856,160.90574092499983,66,0.07721416666666414,71,0.07721416666666414
36857,160.98488544583316,61,0.07914452083332435,72,0.07727950000000305
36858,161.06016925833316,32,0.07528381250000393,82,0.4789649999999881
36859,161.06116710208317,65,0.0009978437500137716,73,0.07982749999999328
36860,161.13999675833315,53,0.07882965624997951,73,0.07982749999999328
36861,161.22082210208316,54,0.08082534375000705,75,0.07982749999999328
36862,161.29965175833317,49,0.07882965625000793,78,0.07982749999999328
36863,161.38147494583316,53,0.0818231874999924,78,0.07982749999999328
36864,161.45731107083316,41,0.07583612499999504,79,0.07982749999999328
36865,161.53713857083315,55,0.07982749999999328,78,0.08043492499999161
36866,161.53913425833315,20,0.0019956874999991214,96,0.2413515000000075
36867,161.62260165208315,48,0.08346739374999856,72,0.08045050000001197
36868,161.69802399583315,54,0.0754223437500059,78,0.08045049999998355
36869,161.78048575833316,42,0.08246176250000303,72,0.08045049999998355
36870,161.85892499583315,55,0.07843923749999249,78,0.08045050000001197
36871,161.94138675833315,48,0.08246176250000303,72,0.08045049999998355
36872,162.02183725833314,44,0.08045049999998355,89,0.3526094999999998
36873,162.1001949249998,54,0.0783576666666761,75,0.07835766666664767
36874,162.17855259166646,67,0.07835766666664767,86,0.0783576666666761
36875,162.2559307874998,60,0.07737819583334726,79,0.0783576666666761
36876,162.3352679249998,66,0.07933713750000493,86,0.07835766666664767
36877,162.37444675833314,32,0.03917883333332384,89,0.11753649999999993
36878,162.41362559166646,66,0.03917883333332384,80,0.0783576666666761
36879,162.49198325833314,44,0.0783576666666761,89,0.4772130000000061
36880,162.49496583958313,79,0.0029825812499950644,86,0.07953549999999154
36881,162.57450133958312,72,0.07953549999999154,80,0.07953550000001997
36882,162.65105425833315,78,0.0765529187500249,86,0.07953549999999154
36883,162.73058975833314,66,0.07953549999999154,81,0.07953549999999154
36884,162.80913106458314,67,0.07854130625000266,86,0.07953549999999154
36885,162.89264333958315,60,0.08351227500000391,81,0.07946961874998237
36886,162.96919625833314,46,0.07655291874999648,90,0.46667199999998843
36887,162.9711407249998,66,0.001944466666657263,86,0.07777866666668842
36888,163.0469749249998,54,0.07583420000000274,80,0.07777866666666
36889,163.12669805833315,67,0.07972313333334569,86,0.07777866666666
36890,163.20350449166648,60,0.07680643333333137,86,0.07777866666666
36891,163.2803109249998,66,0.07680643333333137,86,0.07097303333333116
36892,163.35808959166647,66,0.07777866666666,80,0.07777866666666
36893,163.43586825833313,44,0.07777866666666,94,0.47188399999998865
36894,163.43783444166647,79,0.0019661833333373124,86,0.07864733333332197
36895,163.5135324999998,72,0.07569805833333021,80,0.07864733333332197
36896,163.59119674166647,78,0.07766424166666752,86,0.07864733333332197
36897,163.6727933499998,66,0.08159660833334215,86,0.07864733333332197
36898,163.75242377499978,67,0.07963042499997641,86,0.07864733333335039
36899,163.83008801666645,60,0.07766424166666752,80,0.07870132708333699
36900,163.9057860749998,66,0.07569805833335863,82,0.08285884583330017
36901,163.90775225833312,39,0.0019661833333088907,90,0.4978010000000097
36902,163.99175617708312,54,0.08400391874999968,78,0.08296683333333021
36903,164.07368592499978,67,0.08192974791666074,82,0.08296683333333021
36904,164.15976401458312,60,0.08607808958333862,82,0.08296683333333021
36905,164.23961959166644,66,0.0798555770833218,82,0.07674432083334182
36906,164.3225864249998,66,0.08296683333335864,78,0.08296683333333021
36907,164.40451617291646,79,0.08192974791666074,80,0.07673653124999191
36908,164.40555325833313,32,0.0010370854166694699,92,0.9198920000000044
36909,164.48029448333313,72,0.0747412249999968,68,0.0766576666666765
36910,164.55791037083313,78,0.07761588750000215,70,0.0766576666666765
36911,164.63552625833313,66,0.07761588750000215,62,0.0766576666666765
36912,164.71314214583313,79,0.07761588750000215,66,0.0766576666666765
36913,164.7869251499998,72,0.07378300416667116,60,0.07665766666664808
36914,164.86549925833313,78,0.07857410833332779,62,0.0766576666666765
36915,164.94024048333313,66,0.0747412249999968,58,0.0766576666666765
36916,165.02168925416646,79,0.08144877083333313,59,0.0766576666666765
36917,165.09738869999978,72,0.07569944583332244,53,0.0766576666666765
36918,165.17021348333313,78,0.07282478333334552,55,0.0766576666666765
36919,165.2468711499998,66,0.0766576666666765,49,0.07665766666664808
36920,165.32352881666645,20,0.07665766666664808,58,0.0766576666666765
36921,165.32736169999978,79,0.003832883333330983,60,0.0766576666666765
36922,165.40018648333313,26,0.07282478333334552,45,0.0766576666666765
36923,165.4049775874998,74,0.004791104166656623,55,0.0766576666666765
36924,165.47971881249978,24,0.0747412249999968,53,0.0766576666666765
36925,165.48067703333314,78,0.000958220833354062,61,0.07665766666664808
36926,165.5544600374998,30,0.07378300416667116,46,0.07665766666664808
36927,165.55733469999979,72,0.002874662499976921,56,0.0766576666666765
36928,165.63015948333313,79,0.07282478333334552,62,0.0766576666666765
36929,165.63399236666646,24,0.003832883333330983,55,0.0766576666666765
36930,165.71065003333314,74,0.0766576666666765,56,0.07665766666664808
36931,165.78634947916646,78,0.07569944583332244,63,0.0766576666666765
36932,165.7873076999998,26,0.0009582208333256403,56,0.0766576666666765
36933,165.86300714583314,72,0.07569944583335086,57,0.07665766666664808
36934,165.9367901499998,26,0.07378300416667116,56,0.07665766666664808
36935,165.94158125416646,79,0.004791104166656623,64,0.0766576666666765
36936,166.01344781666646,74,0.07186656249999146,60,0.0766576666666765
36937,166.01440603749978,32,0.0009582208333256403,50,0.0766576666666765
36938,166.0948965874998,78,0.08049055000000749,66,0.0766576666666765
36939,166.16867959166646,36,0.07378300416667116,50,0.0766576666666765
36940,166.17155425416647,72,0.0028746625000053427,60,0.0766576666666765
36941,166.24629547916646,79,0.0747412249999968,67,0.0766576666666765
36942,166.2472536999998,30,0.0009582208333256403,58,0.0766576666666765
36943,166.3248695874998,74,0.07761588750000215,60,0.0766576666666765
36944,166.3996108124998,78,0.0747412249999968,68,0.0766576666666765
36945,166.40152725416647,32,0.0019164416666797024,58,0.07665766666664808
36946,166.47339381666646,72,0.07186656249999146,62,0.0766576666666765
36947,166.47531025833314,38,0.0019164416666797024,51,0.07665766666664808
36948,166.5519679249998,32,0.07665766666664808,60,0.0766576666666765
36949,166.5548425874998,79,0.0028746625000053427,69,0.0766576666666765
36950,166.6295838124998,74,0.0747412249999968,63,0.0766576666666765
36951,166.63054203333314,38,0.000958220833354062,51,0.07665766666664808
36952,166.70432503749979,78,0.07378300416664274,70,0.0766576666666765
36953,166.7071996999998,36,0.0028746625000053427,61,0.0766576666666765
36954,166.78098270416646,72,0.07378300416667116,64,0.0766576666666765
36955,166.7819409249998,42,0.0009582208333256403,52,0.0766576666666765
36956,166.8595568124998,79,0.07761588750000215,72,0.0766576666666765
36957,166.86051503333312,36,0.0009582208333256403,61,0.0766576666666765
36958,166.9342980374998,42,0.07378300416667116,55,0.0766576666666765
36959,166.93813092083312,74,0.003832883333330983,66,0.0766576666666765
36960,167.0119139249998,38,0.07378300416667116,62,0.0766576666666765
36961,167.01383036666647,78,0.0019164416666797024,73,0.07665766666664808
36962,167.08665514999979,44,0.0728247833333171,53,0.0766576666666765
36963,167.09144625416647,72,0.004791104166685045,67,0.07665766666664808
36964,167.16522925833314,79,0.07378300416667116,74,0.07665766666664808
36965,167.1671456999998,38,0.0019164416666512807,62,0.0766576666666765
36966,167.24092870416646,44,0.07378300416667116,56,0.0766576666666765
36967,167.2447615874998,74,0.003832883333330983,67,0.0766576666666765
36968,167.3166281499998,42,0.07186656249999146,63,0.0766576666666765
36969,167.3195028124998,78,0.0028746625000053427,75,0.0766576666666765
36970,167.3942440374998,48,0.0747412249999968,56,0.0766576666666765
36971,167.3971186999998,72,0.0028746625000053427,67,0.0766576666666765
36972,167.46994348333314,79,0.07282478333334552,77,0.07665766666664808
36973,167.47281814583312,42,0.002874662499976921,64,0.0766576666666765
36974,167.55043403333312,74,0.07761588750000215,69,0.0766576666666765
36975,167.6242170374998,44,0.07378300416667116,64,0.0766576666666765
36976,167.6270916999998,78,0.0028746625000053427,78,0.0766576666666765
36977,167.70087470416647,50,0.07378300416667116,58,0.07665766666664808
36978,167.7047075874998,72,0.003832883333330983,69,0.0766576666666765
36979,167.77849059166647,44,0.07378300416667116,66,0.07665766666664808
36980,167.78136525416647,79,0.0028746625000053427,79,0.07665766666664808
36981,167.8541900374998,74,0.0728247833333171,69,0.0766576666666765
36982,167.8570646999998,50,0.0028746625000053427,58,0.0766576666666765
36983,167.92988948333314,78,0.07282478333334552,80,0.07665766666664808
36984,167.93276414583312,48,0.002874662499976921,67,0.0766576666666765
36985,168.00750537083312,72,0.0747412249999968,69,0.0766576666666765
36986,168.00846359166647,54,0.000958220833354062,58,0.07665766666664808
36987,168.0841630374998,79,0.07569944583332244,81,0.0766576666666765
36988,168.08799592083312,48,0.003832883333330983,67,0.0766576666666765
36989,168.16082070416647,54,0.07282478333334552,58,0.07665766666664808
36990,168.1646535874998,74,0.003832883333330983,70,0.0766576666666765
36991,168.24131125416648,78,0.0766576666666765,82,0.07665766666664808
36992,168.3141360374998,72,0.0728247833333171,74,0.0766576666666765
36993,168.31605247916647,56,0.0019164416666797024,60,0.07665766666664808
36994,168.39079370416647,79,0.0747412249999968,84,0.07665766666664808
36995,168.39271014583312,50,0.0019164416666512807,69,0.0766576666666765
36996,168.46840959166647,56,0.07569944583335086,62,0.07665766666664808
36997,168.47128425416645,74,0.002874662499976921,78,0.0766576666666765
36998,168.54506725833312,78,0.07378300416667116,86,0.0766576666666765
36999,168.5469836999998,54,0.0019164416666797024,69,0.07665766666664808
37000,168.62076670416647,72,0.07378300416667116,78,0.07665766666664808
37001,168.62364136666645,60,0.002874662499976921,62,0.0766576666666765
37002,168.70029903333312,54,0.0766576666666765,70,0.0766576666666765
37003,168.70125725416645,79,0.0009582208333256403,88,0.0766576666666765
37004,168.77504025833312,60,0.07378300416667116,63,0.0766576666666765
37005,168.7769566999998,74,0.0019164416666797024,80,0.07665766666664808
37006,168.84978148333312,56,0.0728247833333171,72,0.0766576666666765
37007,168.8516979249998,78,0.0019164416666797024,89,0.0766576666666765
37008,168.92835559166647,72,0.0766576666666765,81,0.07665766666664808
37009,168.9293138124998,62,0.0009582208333256403,63,0.0766576666666765
37010,169.0040550374998,48,0.0747412249999968,89,0.2299730000000011
37011,169.00501325833312,43,0.0009582208333256403,89,0.2299730000000011
37012,169.00597147916648,51,0.000958220833354062,89,0.22997299999997267
37013,169.08262914583312,75,0.07665766666664808,82,0.0766576666666765
37014,169.16120325416645,79,0.07857410833332779,89,0.0766576666666765
37015,169.2369026999998,72,0.07569944583335086,82,0.07665766666664808
37016,169.31356036666645,77,0.07665766666664808,79,0.0766576666666765
37017,169.3145185874998,65,0.000958220833354062,79,0.07665766666664808
37018,169.38830159166645,72,0.07378300416664274,72,0.0766576666666765
37019,169.39021803333313,60,0.0019164416666797024,69,0.0766576666666765
37020,169.46495925833312,63,0.0747412249999968,79,0.0766576666666765
37021,169.46591747916645,75,0.0009582208333256403,79,0.0766576666666765
37022,169.54065870416647,55,0.07474122500002522,70,0.07665766666664808
37023,169.5444915874998,67,0.003832883333330983,75,0.07665766666664808
37024,169.61827459166645,62,0.07378300416664274,79,0.0766576666666765
37025,169.6192328124998,74,0.000958220833354062,79,0.07665766666664808
37026,169.6939740374998,67,0.0747412249999968,75,0.0766576666666765
37027,169.69589047916645,55,0.0019164416666512807,71,0.0766576666666765
37028,169.7715899249998,72,0.07569944583335086,79,0.07665766666664808
37029,169.7744645874998,60,0.0028746625000053427,79,0.07665766666664808
37030,169.8492058124998,63,0.0747412249999968,72,0.076654154166647
37031,169.85112225416646,51,0.0019164416666512807,70,0.07664712916667327
37032,169.9268146749998,68,0.0756924208333487,79,0.0762301916666388
37033,170.00114242499978,63,0.0743277499999806,73,0.07609766666666928
37034,170.0039960874998,51,0.0028536625000015192,70,0.07609766666666928
37035,170.0791425333331,67,0.07514644583332597,79,0.07609766666666928
37036,170.08009375416646,55,0.0009512208333433136,79,0.07609766666666928
37037,170.15238653749978,60,0.07229278333332445,72,0.07609766666666928
37038,170.15428897916644,48,0.0019024416666582056,70,0.07609766666666928
37039,170.2275329833331,65,0.07324400416666776,79,0.07623019166669565
37040,170.3037631749998,60,0.07623019166669565,73,0.076376666666647
37041,170.30471788333313,48,0.000954708333324561,72,0.07637666666667542
37042,170.38013984166645,63,0.07542195833332244,79,0.07637666666667542
37043,170.3810945499998,51,0.0009547083333529827,79,0.076376666666647
37044,170.4584259249998,55,0.07733137499999998,72,0.076376666666647
37045,170.46033534166645,43,0.001909416666649122,70,0.07637666666667542
37046,170.53384788333312,50,0.07351254166667331,79,0.0765136541666891
37047,170.6103615374998,43,0.0765136541666891,71,0.07665766666664808
37048,170.61227797916646,55,0.0019164416666512807,72,0.0766576666666765
37049,170.6879774249998,48,0.07569944583332244,79,0.0766576666666765
37050,170.6908520874998,60,0.0028746625000053427,79,0.0766576666666765
37051,170.76367687083314,51,0.07282478333334552,72,0.0766576666666765
37052,170.76750975416647,39,0.003832883333330983,71,0.0766678416666764
37053,170.8403345374998,44,0.07282478333334552,79,0.07692560833331186
37054,170.84321598333315,56,0.002881445833338603,79,0.07692899999997849
37055,170.91726014583313,39,0.07404416249997325,71,0.07692900000000691
37056,170.91918337083314,51,0.0019232250000129625,72,0.07692900000000691
37057,170.99803559583313,43,0.07885222499999145,79,0.07692900000000691
37058,171.07015653333315,48,0.07212093750001713,72,0.07692899999997849
37059,171.07111814583314,36,0.0009616124999922704,71,0.07692900000000691
37060,171.14804714583315,53,0.07692900000000691,79,0.0772106020833121
37061,171.15190428958314,41,0.003857143749996794,79,0.07721416666666414
37062,171.2262229249998,48,0.07431863541665962,72,0.07721416666666414
37063,171.22815327916646,36,0.0019303541666602086,71,0.07721416666666414
37064,171.3015067374998,39,0.07335345833334372,79,0.07721416666666414
37065,171.30536744583313,51,0.0038607083333204173,79,0.07721416666666414
37066,171.38161643541648,31,0.07624898958334825,71,0.07721760624997387
37067,171.3825816124998,43,0.0009651770833158935,73,0.07722104583334044
37068,171.45593507083314,50,0.07335345833334372,79,0.07748245416667032
37069,171.45690024791648,38,0.0009651770833443152,79,0.07748589374998005
37070,171.53535475833314,43,0.07845451041666252,72,0.0774893333333182
37071,171.6118754749998,36,0.07652071666666416,79,0.0774893333333182
37072,171.61284409166646,48,0.000968616666654043,79,0.07748933333334662
37073,171.69227065833311,27,0.07942656666665471,70,0.07788227083335642
37074,171.6932392749998,39,0.0009686166666824647,72,0.07800640625001165
37075,171.7679674249998,48,0.07472814999999855,96,0.5245209999999929
37076,172.2924884249998,50,0.5245209999999929,96,0.5641750000000059
37077,172.85431269583313,72,0.5618242708333412,100,0.0713426291666508
37078,172.8595380874998,12,0.005225391666670021,101,0.11498649999998634
37079,172.93523753333312,67,0.07569944583332244,82,0.0766576666666765
37080,172.97260814583314,19,0.03737061250001261,77,0.11498649999998634
37081,173.0118951999998,71,0.03928705416666389,93,0.0766576666666765
37082,173.08471998333312,27,0.0728247833333171,77,0.11498650000001476
37083,173.08759464583312,63,0.0028746625000053427,84,0.0766576666666765
37084,173.1642523124998,70,0.0766576666666765,93,0.0766576666666765
37085,173.20162292499978,19,0.03737061249998419,77,0.11498650000001476
37086,173.23995175833312,67,0.03832883333333825,82,0.0766576666666765
37087,173.31469298333312,69,0.0747412249999968,93,0.0766576666666765
37088,173.31852586666645,12,0.003832883333330983,88,0.11498650000001476
37089,173.3913506499998,63,0.07282478333334552,83,0.0766576666666765
37090,173.43351236666646,19,0.042161716666669236,77,0.11498649999998634
37091,173.4718411999998,68,0.03832883333333825,93,0.07665766666664808
37092,173.54466598333312,63,0.0728247833333171,83,0.0766576666666765
37093,173.5494570874998,27,0.004791104166685045,77,0.11498649999998634
37094,173.62228187083312,67,0.0728247833333171,93,0.0766576666666765
37095,173.6644435874998,19,0.042161716666669236,77,0.11498650000001476
37096,173.6989395374998,60,0.03449595000000727,83,0.0766576666666765
37097,173.77463898333312,12,0.07569944583332244,97,0.11498650000001476
37098,173.8541713124998,63,0.07953232916668185,82,0.07665766666664808
37099,173.89250014583314,19,0.03832883333333825,77,0.11498649999998634
37100,173.9289125374998,65,0.03641239166665855,93,0.0766576666666765
37101,174.00844486666645,60,0.07953232916665343,82,0.0766576666666765
37102,174.0094030874998,27,0.000958220833354062,77,0.11498649999998634
37103,174.0841443124998,64,0.0747412249999968,93,0.07665766666664808
37104,174.12247314583314,19,0.03832883333333825,77,0.11498649999998634
37105,174.16080197916645,60,0.03832883333330983,82,0.0766576666666765
37106,174.23745964583313,12,0.0766576666666765,89,0.11498650000001476
37107,174.2393760874998,63,0.0019164416666797024,93,0.07665766666664808
37108,174.3141173124998,55,0.0747412249999968,82,0.07665766666664808
37109,174.35244614583314,19,0.03832883333333825,77,0.11498649999998634
37110,174.3917331999998,62,0.03928705416666389,93,0.07665766666664808
37111,174.46551620416645,27,0.07378300416664274,77,0.11498650000001476
37112,174.46743264583313,55,0.0019164416666797024,82,0.0766576666666765
37113,174.5412156499998,61,0.07378300416667116,93,0.0766576666666765
37114,174.58337736666647,19,0.042161716666669236,77,0.11498649999998634
37115,174.6188315374998,51,0.03545417083333291,82,0.07665766666664808
37116,174.69453098333312,60,0.07569944583332244,93,0.0766576666666765
37117,174.6993220874998,12,0.004791104166685045,101,0.11498649999998634
37118,174.77502153333313,55,0.07569944583332244,81,0.0766576666666765
37119,174.8143085874998,19,0.03928705416666389,77,0.11498649999998634
37120,174.85263742083313,59,0.03832883333333825,93,0.07665766666664808
37121,174.92450398333312,27,0.07186656249999146,77,0.11498650000001476
37122,174.92737864583313,51,0.0028746625000053427,82,0.0766576666666765
37123,175.00211987083313,58,0.0747412249999968,93,0.0766576666666765
37124,175.0414069249998,19,0.03928705416666389,77,0.11498650000001476
37125,175.07973575833313,55,0.03832883333333825,82,0.0766576666666765
37126,175.15447698333313,57,0.0747412249999968,93,0.0766576666666765
37127,175.1563934249998,7,0.0019164416666797024,101,0.11498649999998634
37128,175.2340093124998,51,0.07761588750000215,82,0.07665766666664808
37129,175.2713799249998,19,0.03737061249998419,77,0.11498650000001476
37130,175.3087505374998,56,0.03737061250001261,93,0.07665766666664808
37131,175.38444998333313,27,0.07569944583332244,77,0.11498650000001476
37132,175.38732464583313,51,0.0028746625000053427,82,0.0766576666666765
37133,175.46302409166645,55,0.07569944583332244,93,0.0766576666666765
37134,175.50039470416647,19,0.03737061250001261,77,0.11498649999998634
37135,175.54063997916646,48,0.04024527499998953,82,0.0766576666666765
37136,175.61825586666646,12,0.07761588750000215,96,0.11498650000001476
37137,175.69491353333314,51,0.0766576666666765,82,0.07665766666664808
37138,175.72940948333311,19,0.03449594999997885,77,0.11498650000001476
37139,175.77157119999978,53,0.042161716666669236,93,0.0766576666666765
37140,175.84727064583313,48,0.07569944583335086,82,0.07665766666664808
37141,175.84918708749979,27,0.0019164416666512807,77,0.11498650000001476
37142,175.9210536499998,52,0.07186656250001988,93,0.07665766666664808
37143,175.9612989249998,19,0.04024527499998953,77,0.11498649999998634
37144,176.00250242083314,48,0.041203495833343595,82,0.07665766666664808
37145,176.07724364583314,27,0.0747412249999968,83,0.11498649999998634
37146,176.07820186666646,51,0.0009582208333256403,93,0.0766576666666765
37147,176.1510266499998,43,0.07282478333334552,80,0.07665766666664808
37148,176.1912719249998,19,0.04024527499998953,73,0.11498649999998634
37149,176.2286425374998,50,0.03737061250001261,92,0.07665766666664808
37150,176.30625842499978,43,0.07761588749997372,79,0.0766576666666765
37151,176.30817486666646,27,0.0019164416666797024,71,0.11498649999998634
37152,176.3809996499998,49,0.07282478333334552,90,0.07665766666664808
37153,176.42220314583312,19,0.041203495833315174,70,0.11498650000001476
37154,176.46244842083314,39,0.040245275000017955,79,0.07665766666664808
37155,176.53623142499978,48,0.07378300416664274,89,0.0766576666666765
37156,176.53718964583314,12,0.000958220833354062,78,0.11498649999998634
37157,176.61480553333314,43,0.07761588750000215,77,0.07665766666664808
37158,176.6512179249998,19,0.03641239166665855,68,0.11498649999998634
37159,176.69050497916646,47,0.03928705416666389,88,0.0766576666666765
37160,176.76812086666646,39,0.07761588750000215,77,0.11498649999998634
37161,176.8438203124998,46,0.07569944583332244,86,0.0766576666666765
37162,176.8840655874998,19,0.040245275000017955,66,0.11498649999998634
37163,176.92239442083311,43,0.03832883333330983,75,0.0766576666666765
37164,176.99521920416646,45,0.07282478333334552,85,0.0766576666666765
37165,176.99713564583314,12,0.0019164416666797024,72,0.11498649999998634
37166,177.07570975416647,39,0.07857410833332779,74,0.07665766666664808
37167,177.11308036666645,19,0.03737061249998419,63,0.11498650000001476
37168,177.15236742083312,44,0.03928705416666389,84,0.0766576666666765
37169,177.2261504249998,39,0.07378300416667116,73,0.0766576666666765
37170,177.22806686666647,27,0.0019164416666797024,62,0.11498649999998634
37171,177.30089164999978,43,0.0728247833333171,81,0.0766576666666765
37172,177.3440115874998,19,0.0431199375000233,61,0.11498649999998634
37173,177.37754931666646,36,0.03353772916665321,72,0.0766576666666765
37174,177.45516520416646,12,0.07761588750000215,69,0.11498649999998634
37175,177.4589980874998,42,0.003832883333330983,79,0.0766576666666765
37176,177.53565575416647,39,0.0766576666666765,70,0.07665766666664808
37177,177.57206814583313,19,0.03641239166665855,60,0.11498649999998634
37178,177.61039697916647,41,0.03832883333333825,78,0.07665766666664808
37179,177.68417998333314,36,0.07378300416667116,68,0.07665766666664808
37180,177.6889710874998,27,0.004791104166656623,59,0.11498649999998634
37181,177.7608376499998,40,0.07186656249999146,75,0.0766576666666765
37182,177.80299936666646,19,0.042161716666669236,58,0.11498650000001476
37183,177.8384535374998,36,0.03545417083333291,67,0.0766576666666765
37184,177.9160694249998,39,0.07761588750000215,74,0.11498650000001476
37185,177.99272709166647,31,0.0766576666666765,63,0.07665766666664808
37186,178.03297236666646,19,0.04024527499998953,52,0.11498650000001476
37187,178.0713011999998,38,0.03832883333333825,72,0.0766576666666765
37188,178.14700064583312,27,0.07569944583332244,51,0.11498650000001476
37189,178.14795886666647,31,0.000958220833354062,60,0.07665766666664808
37190,178.2236583124998,37,0.07569944583332244,68,0.0766576666666765
37191,178.2610289249998,19,0.03737061250001261,50,0.11498649999998634
37192,178.30223242083312,27,0.041203495833315174,58,0.07669970416665706
37193,178.37698765833312,36,0.0747552374999998,100,0.07777866666666
37194,178.37893212499978,24,0.001944466666657263,89,0.10889013333334674
37195,178.45671079166647,31,0.07777866666668842,89,0.07777866666666
37196,178.53060052499978,35,0.07388973333331705,100,0.07777866666668842
37197,178.53254499166647,23,0.0019444666666856847,84,0.10889013333331832
37198,178.60837919166647,27,0.07583420000000274,91,0.07777866666666
37199,178.68615785833313,34,0.07777866666666,100,0.10889013333331832
37200,178.76490875833312,31,0.07875089999998863,89,0.07777866666666
37201,178.84171519166645,33,0.07680643333333137,100,0.07777866666666
37202,178.84365965833314,21,0.0019444666666856847,89,0.10889013333331832
37203,178.9194938583331,27,0.07583419999997432,90,0.0779177666666726
37204,179.0003390249998,20,0.08084516666667696,83,0.10956124166668246
37205,179.00131482499978,32,0.0009757999999919775,100,0.07822184583335456
37206,179.0785571999998,27,0.07724237500002573,90,0.07850974166666447
37207,179.15608384999982,19,0.07752665000001002,84,0.11022919166666156
37208,179.15805003333313,31,0.0019661833333088907,100,0.07865850833334775
37209,179.23374809166648,24,0.07569805833335863,90,0.07894533333333698
37210,179.31269342499982,30,0.07894533333333698,100,0.07923933333333366
37211,179.31566489999983,18,0.0029714750000096046,89,0.11106463958333279
37212,179.39491533958315,27,0.07925043958331912,88,0.07953549999999154
37213,179.46947987083317,29,0.07456453125001872,100,0.07967419999999947
37214,179.47246245208316,17,0.0029825812499950644,84,0.11161615000000324
37215,179.55314544583317,24,0.08068299375000265,88,0.07998876249999398
37216,179.63012915833315,28,0.07698371249998104,100,0.11246883541667785
37217,179.71242905624982,24,0.0822998979166698,88,0.08045415416668789
37218,179.79086829374984,27,0.07843923750002091,100,0.08073917916667028
37219,179.7928832104165,15,0.002014916666666977,89,0.11317224166668893
37220,179.8746433458332,19,0.08176013541668681,88,0.08107125416665895
37221,179.9526669645832,26,0.0780236187499952,100,0.11391925624999999
37222,180.03403675416652,19,0.0813697895833343,88,0.08152267916665323
37223,180.11964339999986,25,0.08560664583333732,100,0.11465247291667424
37224,180.1984205083332,19,0.07877710833332685,88,0.08216283333334218
37225,180.28058334166653,24,0.08216283333334218,121,0.4808079999999961
37226,180.76139134166652,43,0.4808079999999961,101,0.36060599999999
37227,181.1219973416665,48,0.36060599999999,96,0.12020200000000614
37228,181.24219934166652,48,0.12020200000000614,101,0.4808079999999961
37229,181.72300734166652,48,0.4808079999999961,97,0.48080800000002455
37230,182.20381534166654,48,0.48080800000002455,101,0.9616159999999923
37231,183.16543134166653,48,0.9616159999999923,99,0.9616159999999923
37232,184.12704734166653,43,0.9616159999999923,101,1.8085841041666697
37233,184.83149078124987,24,0.7044434395833434,70,0.09240632291664497
37234,184.83222534166651,12,0.0007345604166459907,68,0.09230893333335644
37235,184.90796169999984,26,0.07573635833333014,72,0.09144184583334436
37236,184.98488471041654,15,0.07692301041669225,69,0.09056240208334998
37237,184.98678108749988,27,0.0018963770833408944,72,0.0905412124999998
37238,185.0616957374999,17,0.07491465000001085,69,0.08917649999997934
37239,185.0623207999999,29,0.0006250625000063792,73,0.08915239999996061
37240,185.13644913749985,31,0.07412833749995684,74,0.08653860000001146
37241,185.13705009999987,19,0.0006009625000160668,70,0.08653859999998303
37242,185.20796367499986,21,0.07091357499999162,72,0.08639755000001514
37243,185.20856463749988,33,0.0006009625000160668,74,0.08639619375000507
37244,185.27997067499987,23,0.07140603749999741,72,0.0862031166666668
37245,185.2817694937499,35,0.001798818750017972,74,0.0861990729166564
37246,185.35061907499988,24,0.0688495812499923,73,0.08600937500000327
37247,185.35361036666654,36,0.002991291666660345,74,0.08600252083331839
37248,185.42409381249988,38,0.07048344583333233,75,0.08581136250001009
37249,185.42469069999987,26,0.0005968874999950913,73,0.08581002500000068
37250,185.49501642499987,27,0.07032572500000356,74,0.08561793333333867
37251,185.4956119749999,39,0.0005955500000141001,78,0.08561657499998887
37252,185.56577956666655,29,0.0701675916666602,74,0.08542991458332949
37253,185.56696794999988,41,0.001188383333328602,78,0.08542731874999276
37254,185.63638713749987,43,0.06941918749998877,79,0.08523942499999748
37255,185.63935160624987,31,0.002964468750008109,74,0.08523269583332649
37256,185.70920405624986,33,0.06985244999998486,75,0.08509758750000174
37257,185.70979560416654,45,0.0005915479166844761,80,0.08509627499998373
37258,185.78013599374987,35,0.0703403895833219,75,0.08491075416668536
37259,185.7813164645832,47,0.0011804708333329472,80,0.08490819583334996
37260,185.85091179791655,48,0.06959533333335344,81,0.08471964791664277
37261,185.85208971041655,36,0.0011779124999975465,78,0.08471687708333775
37262,185.92035460416653,50,0.06826489374998346,81,0.08453210625000906
37263,185.9215297458332,38,0.0011751416666641035,78,0.08452962708332734
37264,185.99022842916654,51,0.06869868333333784,81,0.08435006666664435
37265,185.99081476041653,39,0.0005863312499911899,79,0.08434875000000375
37266,186.0611231604165,41,0.07030839999998761,80,0.08415941250001424
37267,186.06346321874986,53,0.002340058333345496,82,0.08415416249999907
37268,186.13127372291652,43,0.06781050416665835,80,0.08397435000000542
37269,186.13302482916652,55,0.001751106249997747,84,0.08397059999998646
37270,186.2006867708332,57,0.06766194166667105,84,0.08379249999998706
37271,186.2024341270832,45,0.0017473562500072148,81,0.08378859999999122
37272,186.2705316208332,59,0.06809749375000251,85,0.0836574374999941
37273,186.27227507708318,47,0.0017434562499829553,81,0.08365355624999893
37274,186.3420120333332,48,0.06973695625001142,81,0.08346803749998344
37275,186.34317174999984,60,0.0011597166666490466,85,0.08346551249999834
37276,186.41101517499985,62,0.06784342500000662,86,0.08328830000002085
37277,186.4121723666665,50,0.0011571916666639481,81,0.08328584166667952
37278,186.48044667499985,51,0.06827430833334347,82,0.08311015000001021
37279,186.48160140833318,63,0.0011547333333226106,88,0.08310759583335425
37280,186.5485759416665,65,0.0669745333333367,88,0.0829314958333498
37281,186.5503067645832,53,0.0017308229166985711,84,0.08292512916665373
37282,186.61828533541654,67,0.0679785708333327,89,0.08274666041663181
37283,186.68669003749986,69,0.0684047020833134,90,0.08257129583330425
37284,186.68783967499985,57,0.0011496374999921954,85,0.08256639999999038
37285,186.7555220166665,71,0.06768234166665366,90,0.08239617916666475
37286,186.75666917499984,59,0.0011471583333388935,85,0.08239125000000058
37287,186.82535367499983,72,0.06868449999998916,97,0.1521504166666432
37288,0.0,50,0.0,45,0.143472
37289,0.143472,48,0.143472,40,0.143472
37290,0.286944,34,0.143472,38,0.14045025
37291,0.42739425,50,0.14045025,53,0.277015625
37292,0.5665414999999999,55,0.13914724999999994,51,0.13786837500000004
37293,0.704409875,48,0.13786837500000004,42,0.13651000000000002
37294,0.840919875,40,0.13651000000000002,46,0.13189471250000007
37295,0.9728145875,49,0.13189471250000007,65,0.2593541562499999
37296,1.1032420958333333,55,0.13042750833333328,57,0.12892664791666664
37297,1.23216874375,48,0.12892664791666664,50,0.1273971791666666
37298,1.3595659229166666,40,0.1273971791666666,59,0.12602645833333348
37299,1.48559238125,50,0.12602645833333348,67,0.24700596458333313
37300,1.6101566229166664,55,0.12456424166666635,69,0.12244172291666677
37301,1.7325983458333332,48,0.12244172291666677,60,0.12026672708333352
37302,1.8528650729166667,40,0.12026672708333352,63,0.1188212500000001
37303,1.9716863229166668,49,0.1188212500000001,72,0.23764249999999976
37304,2.0905075729166667,55,0.11882124999999988,62,0.11882124999999988
37305,2.2093288229166665,48,0.11882124999999988,58,0.11882125000000032
37306,2.328150072916667,40,0.11882125000000032,63,0.11975576250000008
37307,2.447905835416667,50,0.11975576250000008,67,0.24575604791666672
37308,2.5696994333333336,55,0.12179359791666666,61,0.12396245000000006
37309,2.6936618833333337,48,0.12396245000000006,50,0.12614803125000007
37310,2.8198099145833337,40,0.12614803125000007,48,0.13127945833333365
37311,2.9510893729166674,45,0.13127945833333365,46,0.13384537500000038
37312,3.0849347479166678,41,0.13384537500000038,49,0.1353797499999998
37313,3.2203144979166676,36,0.1353797499999998,45,0.1339636249999998
37314,3.3542781229166674,37,0.1339636249999998,45,0.13278295833333287
37315,3.4870610812500002,38,0.13278295833333287,44,0.13268475000000013
37316,3.6197458312500004,45,0.13268475000000013,48,0.12651825000000017
37317,3.7462640812500005,43,0.12651825000000017,49,0.10039256250000017
37318,3.879635914583334,41,0.13337183333333336,56,0.13248999999999977
37319,4.012125914583334,53,0.13248999999999977,51,0.13161866666666722
37320,4.143744581250001,45,0.13161866666666722,51,0.12980274999999963
37321,4.2735473312500005,48,0.12980274999999963,51,0.12980275000000052
37322,4.403350081250001,52,0.12980275000000052,57,0.12304150000000025
37323,4.526391581250001,50,0.12304150000000025,55,0.09907537499999997
37324,4.658492081250001,43,0.13210049999999995,58,0.13025585000000017
37325,4.788747931250001,48,0.13025585000000017,54,0.12830843958333382
37326,4.917056370833335,44,0.12830843958333382,54,0.126893229166666
37327,5.043949600000001,45,0.126893229166666,54,0.12677475000000005
37328,5.170724350000001,52,0.12677475000000005,59,0.12126099999999962
37329,5.291985350000001,50,0.12126099999999962,56,0.09821043749999969
37330,5.4226988500000015,48,0.1307135000000006,62,0.12740775416666583
37331,5.550106604166667,55,0.12740775416666583,52,0.12522840208333363
37332,5.675335006250001,43,0.12522840208333363,60,0.12337736666666643
37333,5.798712372916667,48,0.12337736666666643,57,0.12304150000000025
37334,5.921753872916668,51,0.12304150000000025,59,0.1200960000000002
37335,6.041849872916668,50,0.1200960000000002,60,0.10085156249999994
37336,6.176318622916668,38,0.13446874999999991,66,0.13229608333333331
37337,6.308614706250001,43,0.13229608333333331,57,0.13094883333333396
37338,6.439563539583335,39,0.13094883333333396,58,0.12980274999999963
37339,6.569366289583335,43,0.12980274999999963,57,0.129166791666667
37340,6.698533081250002,46,0.129166791666667,64,0.1259870000000003
37341,6.824520081250002,45,0.1259870000000003,63,0.09778350000000025
37342,6.954898081250002,43,0.13037800000000033,69,0.12777396250000006
37343,7.082672043750002,55,0.12777396250000006,61,0.1264875937500003
37344,7.209159637500003,46,0.1264875937500003,64,0.12516767291666664
37345,7.334327310416669,50,0.12516767291666664,64,0.12855016666666685
37346,7.462877477083336,53,0.12855016666666685,70,0.12067575000000019
37347,7.583553227083336,52,0.12067575000000019,64,0.09569587499999965
37348,7.711147727083336,50,0.12759449999999983,73,0.12705015208333403
37349,7.83819787916667,45,0.12705015208333403,63,0.12483260208333391
37350,7.963030481250004,46,0.12483260208333391,70,0.12299358333333199
37351,8.086024064583336,50,0.12299358333333199,72,0.12834774999999965
37352,8.214371814583336,53,0.12834774999999965,76,0.12033339999999981
37353,8.334705214583336,52,0.12033339999999981,77,0.09529856250000002
37354,8.462286381250003,50,0.1275811666666673,86,0.12620086666666808
37355,8.588487247916671,62,0.12620086666666808,75,0.12427177291666602
37356,8.712759020833337,59,0.12427177291666602,82,0.12223122291666577
37357,8.834990243750003,53,0.12223122291666577,83,0.12249981458333536
37358,8.957490058333338,52,0.12249981458333536,90,0.12148221666666537
37359,9.078972275000003,50,0.12148221666666537,85,0.13210049999999995
37360,9.211072775000003,49,0.13210049999999995,91,0.1299570833333341
37361,9.341029858333338,57,0.1299570833333341,77,0.06467216666666609
37362,9.470074483333336,50,0.1290446249999988,84,0.12834774999999965
37363,9.598422233333336,59,0.12834774999999965,73,0.06417387499999982
37364,9.726769983333336,44,0.12834774999999965,80,0.128645624999999
37365,9.855415608333335,61,0.128645624999999,71,0.06467216666666786
37366,9.984963233333335,49,0.12954762500000072,89,0.13281399999999977
37367,10.117777233333335,57,0.13281399999999977,73,0.06612035000000027
37368,10.249953583333335,50,0.13217634999999994,79,0.13141749999999952
37369,10.381371083333335,59,0.13141749999999952,70,0.065428122916666
37370,10.512164331250002,44,0.13079324791666735,75,0.13085796666666738
37371,10.64302229791667,61,0.13085796666666738,64,0.0663717020833321
37372,10.776539375000002,49,0.13351707708333294,74,0.13884237500000118
37373,10.915381750000003,57,0.13884237500000118,60,0.06913804791666678
37374,11.052965739583335,50,0.13758398958333196,69,0.13535709166666798
37375,11.188322831250003,59,0.13535709166666798,55,0.06747637500000003
37376,11.323275581250003,44,0.13495275000000007,64,0.13608565208333268
37377,11.459361233333336,61,0.13608565208333268,57,0.07004198541666717
37378,11.601041768750003,49,0.1416805354166666,63,0.14948389375000026
37379,11.750525662500003,57,0.14948389375000026,54,0.0764918124999987
37380,11.902913683333336,50,0.15238802083333347,55,0.15024004999999896
37381,12.053153733333335,59,0.15024004999999896,48,0.0743095750000009
37382,12.201289433333336,44,0.14813570000000098,49,0.1493546104166672
37383,12.350644043750004,60,0.1493546104166672,43,0.07830633749999905
37384,12.506977422916668,57,0.15633337916666434,45,0.141057
37385,12.648034422916668,45,0.141057,40,0.141057
37386,12.789091422916668,34,0.141057,38,0.13552841666666637
37387,12.924619839583334,50,0.13552841666666637,53,0.2687010000000001
37388,13.05939550625,55,0.13477566666666618,49,0.1339253333333339
37389,13.193320839583334,48,0.1339253333333339,42,0.13308400000000198
37390,13.326404839583336,40,0.13308400000000198,46,0.12924521249999898
37391,13.455650052083335,49,0.12924521249999898,65,0.25580875624999955
37392,13.58399934166667,55,0.12834928958333514,57,0.1274594666666644
37393,13.711458808333335,48,0.1274594666666644,50,0.1264566729166674
37394,13.837915481250002,40,0.1264566729166674,59,0.12553660000000022
37395,13.963452081250002,50,0.12553660000000022,67,0.24585116458333545
37396,14.087781868750003,55,0.12432978750000068,67,0.12152137708333477
37397,14.209303245833338,48,0.12152137708333477,61,0.1188313083333341
37398,14.328134554166672,40,0.1188313083333341,63,0.1165663583333334
37399,14.444700912500005,49,0.1165663583333334,70,0.2335010000000004
37400,14.561160662500006,55,0.11645975000000064,64,0.11704124999999976
37401,14.678201912500006,48,0.11704124999999976,58,0.11714891249999937
37402,14.795350825000005,40,0.11714891249999937,65,0.11854432083333322
37403,14.913895145833338,50,0.11854432083333322,58,0.24384370833333335
37404,15.034664854166673,55,0.12076970833333434,61,0.12307399999999902
37405,15.157738854166672,48,0.12307399999999902,50,0.12547265416666775
37406,15.28321150833334,40,0.12547265416666775,48,0.12802535833333373
37407,15.411236866666673,45,0.12802535833333373,46,0.13357481249999914
37408,15.544811679166672,41,0.13357481249999914,49,0.13466933333333309
37409,15.679481012500005,36,0.13466933333333309,45,0.1324924999999979
37410,15.811973512500003,37,0.1324924999999979,45,0.13094725000000018
37411,15.942920762500004,38,0.13094725000000018,44,0.13094725000000018
37412,16.073868012500004,46,0.13094725000000018,47,0.12706474999999884
37413,16.200932762500003,45,0.12706474999999884,46,0.0986409375000008
37414,16.3324540125,41,0.1315212499999987,56,0.13307624999999845
37415,16.4655302625,53,0.13307624999999845,51,0.13075808333333327
37416,16.596288345833333,45,0.13075808333333327,51,0.1292547500000012
37417,16.725543095833334,48,0.1292547500000012,51,0.12925474999999764
37418,16.854797845833332,51,0.12925474999999764,53,0.12598699999999852
37419,16.98078484583333,50,0.12598699999999852,51,0.09907537500000174
37420,17.11211507083333,43,0.13133022499999925,58,0.12739651458333157
37421,17.23951158541666,48,0.12739651458333157,54,0.1261503229166685
37422,17.36566190833333,44,0.1261503229166685,54,0.12486774999999994
37423,17.49052965833333,48,0.12486774999999994,54,0.12390431666666757
37424,17.614433974999997,51,0.12390431666666757,59,0.12243899999999996
37425,17.736872974999997,50,0.12243899999999996,56,0.09951356250000032
37426,17.868240887499997,48,0.13136791250000002,62,0.12533760000000171
37427,17.9935784875,55,0.12533760000000171,52,0.1246630645833342
37428,18.118241552083333,43,0.1246630645833342,60,0.1239882250000015
37429,18.242229777083335,48,0.1239882250000015,57,0.12320890624999947
37430,18.365438683333334,51,0.12320890624999947,59,0.12014731666666734
37431,18.485586,50,0.12014731666666734,60,0.10022902499999731
37432,18.6179955875,38,0.13240958749999976,66,0.12609237916666416
37433,18.744087966666665,43,0.12609237916666416,57,0.12505503750000102
37434,18.869143004166666,39,0.12505503750000102,58,0.12437855416666821
37435,18.993521558333335,43,0.12437855416666821,57,0.12370657916666872
37436,19.117228137500003,46,0.12370657916666872,64,0.12081849999999861
37437,19.238046637500002,45,0.12081849999999861,63,0.09735206250000061
37438,19.367060916666667,43,0.12901427916666464,69,0.12522457500000073
37439,19.492285491666667,55,0.12522457500000073,61,0.12420899374999905
37440,19.616494485416666,46,0.12420899374999905,64,0.12320947916666469
37441,19.73970396458333,50,0.12320947916666469,64,0.12747120416667101
37442,19.867175168750002,53,0.12747120416667101,70,0.12185224999999988
37443,19.989027418750002,52,0.12185224999999988,64,0.0961126874999998
37444,20.117177668750003,50,0.1281502500000009,77,0.12740435208333523
37445,20.244582020833338,45,0.12740435208333523,63,0.12427397291666509
37446,20.368855993750003,46,0.12427397291666509,70,0.12243899999999996
37447,20.491294993750003,50,0.12243899999999996,72,0.12834774999999965
37448,20.619642743750003,53,0.12834774999999965,76,0.12174582500000142
37449,20.741388568750004,52,0.12174582500000142,77,0.09651674999999926
37450,20.870323277083337,50,0.12893470833333254,86,0.12642892708333164
37451,20.99675220416667,62,0.12642892708333164,80,0.12483260208333391
37452,21.121584806250002,59,0.12483260208333391,82,0.123104041666668
37453,21.24468884791667,53,0.123104041666668,83,0.12795799999999957
37454,21.37264684791667,52,0.12795799999999957,92,0.12220690833333592
37455,21.494853756250006,50,0.12220690833333592,85,0.13210049999999995
37456,21.626954256250006,48,0.13210049999999995,92,0.1299570833333341
37457,21.75691133958334,53,0.1299570833333341,77,0.06467216666666786
37458,21.885955964583342,46,0.12904462500000236,86,0.12834774999999965
37459,22.014303714583342,55,0.12834774999999965,76,0.0641738750000016
37460,22.14265146458334,40,0.12834774999999965,83,0.12864562500000076
37461,22.271297089583342,57,0.12864562500000076,75,0.06467216666666786
37462,22.400844714583346,45,0.12954762500000427,91,0.13016324999999895
37463,22.531007964583345,53,0.13016324999999895,73,0.06487545833333286
37464,22.66065579791668,46,0.1296478333333333,80,0.12904370833333445
37465,22.789699506250013,55,0.12904370833333445,72,0.06447174999999916
37466,22.918643006250015,40,0.12894350000000188,78,0.12955049999999702
37467,23.048193506250012,57,0.12955049999999702,67,0.06548916666666571
37468,23.181090835416683,45,0.13289732916667063,78,0.13988008749999992
37469,23.320970922916683,53,0.13988008749999992,63,0.06941265416666553
37470,23.459451112500016,46,0.1384801895833334,72,0.13737166666666667
37471,23.596822779166683,55,0.13737166666666667,58,0.06818202083333347
37472,23.732847425000017,40,0.1360246458333343,66,0.13805656249999743
37473,23.870903987500014,57,0.13805656249999743,59,0.07025391875000153
37474,24.012503914583352,45,0.14159992708333746,65,0.14649275000000017
37475,24.158996664583352,53,0.14649275000000017,55,0.07235949374999961
37476,24.303188797916686,46,0.14419213333333403,55,0.14218130000000073
37477,24.445370097916687,55,0.14218130000000073,48,0.07149413749999667
37478,24.588876220833352,40,0.14350612291666565,50,0.1451681208333362
37479,24.73404434166669,57,0.1451681208333362,43,0.07332131666666442
37480,24.88107101250002,45,0.14702667083333054,45,0.13986364583333355
37481,25.020934658333353,53,0.13986364583333355,39,0.13791825000000202
37482,25.158852908333355,36,0.13791825000000202,37,0.13552841666666637
37483,25.29438132500002,49,0.13552841666666637,49,0.2687010000000001
37484,25.429156991666687,55,0.13477566666666618,42,0.1339253333333339
37485,25.56308232500002,48,0.1339253333333339,44,0.1330840000000002
37486,25.69616632500002,36,0.1330840000000002,41,0.1257924458333335
37487,25.821958770833355,46,0.1257924458333335,56,0.24943359166666923
37488,25.947013808333356,53,0.12505503750000102,45,0.062246179166667304
37489,26.071392362500024,45,0.12437855416666821,52,0.25225124583333525
37490,26.19549335833336,41,0.12410099583333434,50,0.1281502500000009
37491,26.32364360833336,49,0.1281502500000009,60,0.24634365833333405
37492,26.447548266666693,53,0.12390465833333408,51,0.12243899999999996
37493,26.569987266666693,48,0.12243899999999996,58,0.24439882083333586
37494,26.692426266666693,41,0.12243899999999996,57,0.1219598208333359
37495,26.81438608750003,46,0.1219598208333359,70,0.2432216458333336
37496,26.93623833750003,53,0.12185224999999988,57,0.060738895833331696
37497,27.057607733333363,45,0.12136939583333373,63,0.12126099999999695
37498,27.17886873333336,41,0.12126099999999695,69,0.12300487916666825
37499,27.301873612500028,49,0.12300487916666825,77,0.25323187499999733
37500,27.42754257083336,53,0.12566895833333191,70,0.06354399999999671
37501,27.555105487500025,48,0.12756291666666542,83,0.26124591666666674
37502,27.68482469583336,41,0.12971920833333428,91,0.13152670833333246
37503,27.816351404166692,53,0.13152670833333246,96,0.14417524999999998
37504,27.960526654166692,69,0.14417524999999998,108,0.13446874999999991
37505,28.599253216666693,24,0.6387265625000005,46,0.23532031250000074
37506,28.63287040416669,31,0.03361718749999909,51,0.20170312500000165
37507,28.66648759166669,40,0.03361718749999909,60,0.16808593750000256
37508,28.700104779166693,46,0.03361718750000264,79,0.2017031249999981
37509,28.733721966666693,55,0.03361718749999909,86,0.168085937499999
37510,28.76733915416669,60,0.03361718749999909,93,0.13446874999999991
37511,29.506917279166693,17,0.7395781250000013,58,0.06723437499999818
37512,29.57415165416669,57,0.06723437499999818,101,0.13446874999999991
37513,0.9473669999999998,38,0.0,55,0.83612025
37514,1.7834872499999999,50,0.83612025,52,0.28116224999999995
37515,2.0646495,50,0.28116224999999995,62,2.8309485000000008
37516,2.5855734999999997,43,0.5209239999999999,27,0.41221394999999994
37517,3.043589,43,0.45801550000000013,27,0.3970588500000001
37518,3.4847655,43,0.4411765000000001,27,0.40298489999999987
37519,3.9325265,43,0.44776099999999985,27,0.42681014999999967
37520,4.40676,43,0.4742335000000004,27,0.43995419999999985
37521,4.895598000000001,43,0.48883800000000033,24,0.45545178333333336
37522,4.916448708333334,51,0.02085070833333358,58,1.0400873750000015
37523,5.402711583333334,43,0.48626287499999954,24,0.47588751666666784
37524,5.935851000000002,43,0.5331394166666685,31,0.4467977999999997
37525,5.956536083333336,50,0.02068508333333341,62,2.777084875000001
37526,6.432293000000002,43,0.47575691666666664,27,0.42056055000000026
37527,6.899582500000002,43,0.4672894999999997,27,0.39717585
37528,7.340889000000002,43,0.4413065000000005,27,0.39717585
37529,7.782195500000002,42,0.4413064999999996,27,0.41442840000000025
37530,8.242671500000002,42,0.4604759999999999,27,0.42366239999999955
37531,8.713407500000002,42,0.4707360000000005,24,0.4413839666666668
37532,8.733620958333336,51,0.02021345833333399,58,1.0032533333333316
37533,9.204833166666669,42,0.4712122083333323,24,0.45909801666666716
37534,9.716023583333335,42,0.5111904166666665,31,0.45037529999999926
37535,9.736874291666668,50,0.02085070833333269,62,2.760639958333334
37536,10.216440583333336,42,0.47956629166666787,27,0.4131105166666664
37537,10.674943750000002,42,0.4585031666666666,27,0.3917015999999993
37538,11.110167750000002,42,0.43522399999999983,27,0.3917016000000011
37539,11.545391750000002,41,0.43522399999999983,27,0.42366239999999955
37540,12.016127750000003,41,0.4707360000000005,27,0.43324785000000077
37541,12.497514250000002,51,0.4813864999999993,59,0.9835658333333335
37542,12.982630083333335,41,0.4851158333333334,24,0.44801290000000016
37543,13.481080083333335,50,0.49845000000000006,64,2.748664999999999
37544,13.969918083333335,41,0.48883799999999944,27,0.40853384999999953
37545,14.423844583333334,41,0.4539264999999997,27,0.3802815000000006
37546,14.846379583333334,41,0.4225349999999999,27,0.3941604000000005
37547,15.284335583333334,41,0.4379559999999998,27,0.41538465
37548,15.745874083333334,41,0.46153849999999963,27,0.43548390000000126
37549,16.229745083333334,40,0.4838710000000006,24,0.43623203333333294
37550,16.23977396875,49,0.010028885416666355,58,0.9841283750000009
37551,16.71486091666667,40,0.47508694791666883,24,0.4480128999999984
37552,17.213310916666668,39,0.4984499999999983,31,0.4575496500000007
37553,17.22390234375,48,0.010591427083333826,62,2.747471458333333
37554,17.721699416666667,39,0.497797072916665,27,0.39994065000000134
37555,18.166077916666666,39,0.4443784999999991,28,0.39994065000000134
37556,18.610456416666665,39,0.4443784999999991,28,0.39994065000000134
37557,19.054834916666668,39,0.4443785000000027,31,0.3890488499999982
37558,19.487111416666668,39,0.4322765000000004,34,0.42681015000000144
37559,19.96134491666667,39,0.4742335000000004,31,0.4379869666666636
37560,19.971373802083335,50,0.010028885416666355,63,0.9933909166666659
37561,20.44897608333333,39,0.4776022812499967,32,0.4545127500000028
37562,20.954735833333334,39,0.5057597500000028,39,0.43324785000000077
37563,20.96476471875,48,0.010028885416666355,66,2.677124812499997
37564,21.436122333333334,39,0.4713576145833329,35,0.40274459999999834
37565,21.883616333333332,39,0.44749399999999895,35,0.3724136999999992
37566,22.29740933333333,39,0.4137929999999983,34,0.37241370000000273
37567,22.711202333333333,39,0.41379300000000185,32,0.4144283999999985
37568,23.171678333333332,39,0.4604759999999999,32,0.4144283999999985
37569,23.632154333333332,39,0.4604759999999999,27,0.42498101666666344
37570,23.641889531249998,50,0.009735197916665328,67,0.9686945937499978
37571,24.105273999999998,39,0.46338446875000017,26,0.4441965666666654
37572,24.599907666666663,39,0.4946336666666653,37,0.4612230000000004
37573,24.610584124999995,48,0.010676458333332306,67,2.764880770833333
37574,25.112377666666664,39,0.5017935416666681,32,0.4144283999999985
37575,25.572853666666663,39,0.4604759999999999,32,0.38571435000000065
37576,26.001425166666664,39,0.4285715000000003,32,0.38571435000000065
37577,26.429996666666664,39,0.4285715000000003,32,0.4114597499999988
37578,26.887174166666664,39,0.45717750000000024,32,0.43000470000000135
37579,27.364957166666663,50,0.47778299999999874,66,0.7816749999999999
37580,27.879620749999997,39,0.5146635833333342,26,0.4860103166666647
37581,28.146632166666663,48,0.2670114166666657,57,0.2747402500000007
37582,28.421372416666664,39,0.2747402500000007,31,0.4575496500000007
37583,28.44255527083333,48,0.021182854166667653,62,2.7779106458333267
37584,28.929760916666662,39,0.48720564583333115,27,0.4236624000000013
37585,29.40049691666666,39,0.4707359999999987,27,0.39994065000000134
37586,29.84487541666666,39,0.4443784999999991,27,0.39994065000000134
37587,30.28925391666666,38,0.4443784999999991,27,0.4144283999999985
37588,30.74972991666666,38,0.4604759999999999,27,0.4236624000000013
37589,31.220465916666658,47,0.4707359999999987,62,1.95425233333334
37590,31.708075249999993,38,0.4876093333333351,24,0.44801290000000193
37591,32.20652525,38,0.4984500000000054,29,0.45393389999999556
37592,32.71089625,31,0.504370999999999,28,0.4174397999999968
37593,33.17471825,48,0.4638220000000004,65,0.44749399999999895
37594,33.62221225,50,0.44749399999999895,69,0.4382760000000019
37595,34.06048825,53,0.4382760000000019,74,0.4583123333333319
37596,34.51880058333333,51,0.4583123333333319,65,0.4777830000000023
37597,34.99658358333333,43,0.4777830000000023,68,0.4777829999999952
37598,35.47436658333333,48,0.4777829999999952,62,0.504370999999999
37599,35.97873758333333,45,0.504370999999999,62,2.804910166666666
37600,36.46386058333333,31,0.4851230000000015,27,0.4205605499999976
37601,36.93115008333333,30,0.4672894999999997,27,0.40564890000000275
37602,37.38187108333333,36,0.4507210000000015,27,0.40564889999999565
37603,37.83259208333333,31,0.4507210000000015,27,0.42549436666666196
37604,38.30586475,31,0.47327266666666645,27,0.4300046999999978
37605,38.78364774999999,48,0.4777829999999952,57,0.9978972499999941
37606,39.27377241666666,36,0.49012466666666654,23,0.45611078333332955
37607,39.78154499999999,45,0.5077725833333275,62,2.6948237499999976
37608,40.29816299999999,36,0.5166180000000011,27,0.4205605499999976
37609,40.76545249999999,36,0.4672894999999997,27,0.3999406499999978
37610,41.20983099999999,30,0.4443784999999991,27,0.3999406499999978
37611,41.654209499999986,36,0.4443784999999991,27,0.4174397999999968
37612,42.11803149999999,36,0.4638220000000004,27,0.4300046999999978
37613,42.476368749999985,50,0.35833724999999816,52,0.11944575000000413
37614,42.59581449999999,48,0.11944575000000413,62,0.9899369166666645
37615,43.08467183333332,36,0.48885733333332837,23,0.45024073333333803
37616,43.58575141666665,46,0.5010795833333361,62,0.9897750000000016
37617,44.094139916666656,45,0.5083885000000024,46,0.4813864999999993
37618,44.575526416666655,39,0.4813864999999993,54,0.45392650000000145
37619,45.029452916666656,38,0.45392650000000145,42,0.45392650000000145
37620,45.48337941666666,42,0.45392650000000145,64,0.4322765000000004
37621,45.91565591666666,45,0.4322765000000004,59,0.4604759999999999
37622,46.37613191666666,53,0.4604759999999999,65,0.3173565000000025
37623,46.69348841666666,51,0.3173565000000025,62,0.3284700000000029
37624,47.02195841666666,50,0.3284700000000029,57,0.34102558333333377
37625,47.362984,50,0.34102558333333377,62,2.838952500000005
37626,47.883908,43,0.5209240000000008,27,0.39170159999999754
37627,48.319131999999996,43,0.43522399999999806,29,0.39717585000000355
37628,48.7604385,43,0.44130650000000315,29,0.4174397999999968
37629,49.2242605,43,0.4638220000000004,31,0.4399542000000025
37630,49.7130985,43,0.4888380000000012,32,0.4399542000000025
37631,50.2019365,43,0.4888380000000012,32,0.4554517833333378
37632,50.22278720833334,51,0.020850708333334467,68,1.040087375000006
37633,50.70905008333334,43,0.4862628750000013,33,0.47588751666667406
37634,51.24218950000001,43,0.5331394166666712,35,0.4467977999999988
37635,51.26287458333334,50,0.02068508333333341,71,2.8188613749999902
37636,51.73863150000001,43,0.4757569166666684,32,0.4205605499999976
37637,52.20592100000001,43,0.4672894999999997,33,0.3999406499999978
37638,52.65029950000001,43,0.4443784999999991,35,0.3999406499999978
37639,53.09467800000001,42,0.4443784999999991,35,0.42681015000000144
37640,53.568911500000006,42,0.47423349999999687,38,0.4433499000000012
37641,54.0615225,42,0.4926109999999966,38,0.44138396666667035
37642,54.07162922916667,51,0.010106729166665218,74,1.0024299895833337
37643,54.55294816666667,42,0.4813189374999993,38,0.4590980166666654
37644,55.06413858333333,42,0.5111904166666648,45,0.42857144999999974
37645,55.07405921875,50,0.009920635416669654,76,2.6111968645833343
37646,55.54032908333333,42,0.46626986458333164,40,0.39130424999999747
37647,55.97511158333333,41,0.4347824999999972,41,0.37762244999999695
37648,56.39469208333333,41,0.41958050000000213,41,0.3673471500000005
37649,56.80285558333333,41,0.40816350000000057,44,0.39416039999999697
37650,57.24081158333333,41,0.4379559999999998,45,0.4000000500000027
37651,57.685256083333336,51,0.444444500000003,77,0.937525083333334
37652,58.14778075,41,0.4625246666666669,41,0.4266133166666677
37653,58.62278116666667,50,0.47500041666666704,84,0.6431157499999998
37654,59.05756366666667,41,0.4347824999999972,42,0.392948650000001
37655,59.26589691666667,49,0.20833325000000258,78,0.2307692500000016
37656,59.49666616666667,49,0.2307692500000016,85,0.40816350000000057
37657,59.90482966666667,50,0.40816350000000057,70,0.3829787999999965
37658,60.01121266666667,49,0.106383000000001,73,0.106383000000001
37659,60.11759566666667,48,0.106383000000001,76,0.106383000000001
37660,60.223978666666675,49,0.106383000000001,79,0.1063829999999939
37661,60.33036166666667,58,0.1063829999999939,88,0.8083099999999988
37662,60.72771266666667,37,0.39735100000000045,52,0.36986310000000344
37663,61.13867166666667,57,0.4109589999999983,91,0.6030702500000018
37664,61.533408666666666,36,0.3947369999999992,54,0.3749998500000018
37665,61.74174191666667,55,0.20833325000000258,77,0.20833324999999547
37666,61.950075166666664,55,0.20833324999999547,89,0.40268449999999945
37667,62.352759666666664,54,0.40268449999999945,86,0.38461550000000244
37668,62.737375166666666,63,0.38461550000000244,92,0.3773584999999997
37669,63.114733666666666,54,0.3773584999999997,85,0.3915285416666663
37670,63.50626220833333,54,0.3915285416666663,88,0.38461549999999534
37671,63.89087770833333,55,0.38461549999999534,82,0.3947369999999992
37672,64.28561470833333,58,0.3947369999999992,85,0.3921569999999974
37673,64.67777170833332,50,0.3921569999999974,77,0.419580499999995
37674,65.09735220833332,53,0.419580499999995,80,0.40540550000000053
37675,65.50275770833332,51,0.40540550000000053,69,0.44767408333332526
37676,65.95043179166665,55,0.44767408333332526,77,0.3866407750000036
37677,66.23514729166665,43,0.28471550000000434,67,0.2941414583333284
37678,66.38113654166665,39,0.14598924999999952,44,0.40620294166664905
37679,66.52928874999998,48,0.14815220833332887,67,0.3045027499999833
37680,66.83379149999996,45,0.3045027499999833,73,1.3889150833333161
37681,67.28301962499995,38,0.44922812499999054,38,0.4084395249999915
37682,67.73761299999994,36,0.45459337499998753,38,0.4351624499999929
37683,68.22270658333328,48,0.4850935833333381,69,0.5170330416666502
37684,68.73973962499993,45,0.5170330416666502,64,2.664301541666674
37685,69.22754462499992,31,0.4878049999999945,27,0.4122139499999946
37686,69.68556012499992,38,0.4580155000000019,27,0.3970588499999934
37687,69.69291306666659,31,0.007352941666667334,27,0.3970588499999934
37688,70.12673662499992,38,0.4338235583333301,27,0.398799716666673
37689,70.5722652916666,31,0.4455286666666751,27,0.4236623999999978
37690,71.0430012916666,36,0.47073600000000226,27,0.43324785000000077
37691,71.4040411666666,50,0.361039875000003,47,0.12034662499999627
37692,71.5243877916666,48,0.12034662499999627,57,0.9899369166666787
37693,72.01324512499994,36,0.4888573333333426,23,0.4502407333333309
37694,72.51432470833328,45,0.5010795833333361,57,3.6328236666666953
37695,73.02679470833327,38,0.5124699999999933,27,0.43324785000000077
37696,73.50818120833327,38,0.4813864999999993,27,0.4205605500000047
37697,73.5159693666666,31,0.007788158333326578,27,0.4205605500000047
37698,73.97547070833328,38,0.4595013416666802,27,0.40564890000000275
37699,74.42619170833328,30,0.4507210000000015,27,0.43324785000000077
37700,74.90757820833328,30,0.4813864999999993,27,0.43349695000000565
37701,75.38958745833328,36,0.4820092500000044,23,0.44767240000001607
37702,75.8880987083333,36,0.4985112500000213,23,0.4933061499999951
37703,76.14714837499997,43,0.2590496666666695,52,0.2978023333333226
37704,76.4449507083333,43,0.2978023333333226,57,2.884273499999992
37705,76.95742070833329,34,0.5124699999999933,29,0.43324785000000077
37706,77.43880720833329,34,0.4813864999999993,29,0.4174397999999968
37707,77.90262920833328,34,0.4638219999999933,28,0.417439800000011
37708,78.36645120833329,37,0.4638220000000075,28,0.43324785000000077
37709,78.84783770833329,27,0.4813864999999993,28,0.43324785000000077
37710,79.32922420833329,45,0.4813864999999993,52,0.9899369166666787
37711,79.81808154166663,36,0.4888573333333426,23,0.4502407333333309
37712,80.31916112499997,43,0.5010795833333361,52,2.8993434166666674
37713,80.83163112499996,36,0.5124699999999933,27,0.43324785000000077
37714,81.31301762499996,35,0.4813864999999993,27,0.4236623999999978
37715,81.32086322499995,31,0.007845599999996011,27,0.4236623999999978
37716,81.78375362499996,35,0.46289040000000625,27,0.4236623999999978
37717,82.25448962499996,34,0.47073600000000226,27,0.43324785000000077
37718,82.73587612499996,34,0.4813864999999993,27,0.4337446166666723
37719,83.21850454166663,45,0.482628416666671,47,1.0910562500000083
37720,83.73555079166664,34,0.517046250000007,23,0.5134894999999915
37721,84.30956079166664,43,0.5740100000000012,47,2.100840000000005
37722,88.95223479166664,43,4.6426739999999995,33,2.1359920000000017
37723,91.08822679166664,42,2.1359920000000017,33,2.3538640000000015
37724,93.44209079166664,43,2.3538640000000015,33,5.083668000000003
37725,0.0009649520833333332,42,0.0,56,0.17272642291666665
37726,0.11579424999999999,43,0.11482929791666666,42,0.057897124999999994
37727,0.23158849999999997,43,0.11579424999999999,51,0.16952999999999996
37728,0.3446085,44,0.11302000000000001,43,0.05650999999999995
37729,0.4576285,44,0.11302000000000001,52,0.16998924999999987
37730,0.5706484999999999,45,0.1130199999999999,44,0.05696924999999997
37731,0.6845869999999998,45,0.11393849999999994,53,0.16888087499999993
37732,0.7971742499999999,46,0.11258725000000003,46,0.0562936249999999
37733,0.9097614999999999,46,0.11258725000000003,56,0.16888087499999993
37734,1.02234875,47,0.11258725000000003,47,0.0562936249999999
37735,1.1349359999999997,47,0.1125872499999998,57,0.1715985
37736,1.2493349999999996,48,0.11439899999999992,48,0.05719950000000007
37737,1.3637339999999998,48,0.11439900000000014,59,0.16888087499999993
37738,1.4763212499999998,49,0.11258725000000003,52,0.0562936249999999
37739,1.5889084999999998,49,0.11258725000000003,61,0.16888087499999993
37740,1.7014957499999999,50,0.11258725000000003,54,0.0562936249999999
37741,1.8140829999999997,50,0.1125872499999998,66,0.16888087500000015
37742,1.92667025,51,0.11258725000000025,56,0.0562936249999999
37743,2.0392574999999997,51,0.1125872499999998,69,0.1682118749999999
37744,2.15139875,52,0.11214125000000008,59,0.05607062499999982
37745,2.2629595,52,0.11156075000000021,71,0.16646291666666624
37746,2.373792666666666,53,0.1108331666666662,62,0.05562975000000003
37747,2.4850521666666663,53,0.11125950000000007,75,0.17434824999999998
37748,2.598533666666666,54,0.11348149999999979,66,0.06086675000000019
37749,2.720267166666666,54,0.12173349999999994,81,0.16843925000000004
37750,2.831965666666666,55,0.11169850000000014,77,0.056740749999999895
37751,2.945447166666666,55,0.11348149999999979,82,0.1649561249999998
37752,3.055417916666666,54,0.10997075,78,0.05498537499999978
37753,3.165388666666666,54,0.10997075,84,0.16952999999999996
37754,3.278408666666666,52,0.11302000000000012,84,0.05650999999999984
37755,3.3914286666666658,52,0.11301999999999968,82,0.17090775000000002
37756,3.505367166666666,50,0.11393850000000016,79,0.05696924999999986
37757,3.6193056666666656,50,0.11393849999999972,83,0.1682118749999999
37758,3.7314469166666657,52,0.11214125000000008,79,0.05607062499999982
37759,3.843588166666666,52,0.11214125000000008,85,0.1682118749999999
37760,3.9557294166666654,54,0.11214124999999964,86,0.05607062500000026
37761,4.067870666666666,54,0.11214125000000053,87,0.16952999999999996
37762,4.180890666666666,52,0.11301999999999968,86,0.05651000000000028
37763,4.293910666666666,52,0.11302000000000056,84,0.16952999999999996
37764,4.406930666666666,50,0.11301999999999968,83,0.05651000000000028
37765,4.519950666666666,50,0.11301999999999968,81,0.17369137499999976
37766,4.635744916666665,49,0.11579424999999954,80,0.057897125000000216
37767,4.7515391666666655,40,0.11579425000000043,79,0.2286444999999997
37768,4.865938166666665,50,0.1143989999999997,69,0.1142455
37769,4.980183666666665,50,0.1142455,66,0.22940616666666713
37770,5.094429166666666,49,0.11424550000000089,62,0.11516066666666624
37771,5.209589833333332,49,0.11516066666666624,57,0.24289637499999994
37772,5.328548958333332,42,0.11895912499999994,54,0.12393725
37773,5.452486208333332,42,0.12393725,53,0.17369137499999976
37774,5.568280458333332,43,0.11579424999999954,45,0.057897125000000216
37775,5.684074708333332,43,0.11579425000000043,54,0.17090774999999958
37776,5.798013208333332,44,0.11393849999999972,45,0.05696924999999986
37777,5.911951708333333,44,0.11393850000000061,55,0.17370075000000007
37778,6.028683208333333,45,0.11673150000000021,47,0.05696924999999986
37779,6.1426217083333325,45,0.11393849999999972,57,0.16888087500000015
37780,6.255208958333332,46,0.1125872499999998,48,0.05629362500000035
37781,6.367796208333332,46,0.1125872499999998,58,0.16888087500000015
37782,6.480383458333333,47,0.1125872500000007,50,0.05629362499999946
37783,6.592970708333333,47,0.1125872499999998,60,0.1715985
37784,6.707369708333332,48,0.1143989999999997,50,0.05719950000000029
37785,6.821768708333333,48,0.11439900000000058,62,0.16888087500000015
37786,6.934355958333333,49,0.1125872499999998,54,0.05629362500000035
37787,7.0469432083333325,49,0.1125872499999998,64,0.16888087500000015
37788,7.159530458333333,50,0.1125872500000007,56,0.05629362499999946
37789,7.272117708333333,50,0.1125872499999998,68,0.16888087500000015
37790,7.384704958333333,51,0.1125872499999998,59,0.05629362500000035
37791,7.497292208333333,51,0.1125872499999998,73,0.1682118749999999
37792,7.609433458333332,52,0.11214124999999964,69,0.05607062500000026
37793,7.720994208333332,52,0.11156074999999976,76,0.16646291666666713
37794,7.831827375,53,0.11083316666666754,71,0.05562974999999959
37795,7.943086875,50,0.11125950000000007,80,0.1726235833333325
37796,8.056568375,53,0.11348149999999979,75,0.05914208333333271
37797,8.176053208333332,54,0.11948483333333293,90,0.17003837500000074
37798,8.288194458333333,55,0.11214125000000053,85,0.057897125000000216
37799,8.403988708333333,55,0.11579425000000043,89,0.16952999999999996
37800,8.517008708333334,54,0.11302000000000056,87,0.056509999999999394
37801,8.630028708333333,54,0.11301999999999879,90,0.16952999999999996
37802,8.743048708333333,57,0.11302000000000056,88,0.056509999999999394
37803,8.856068708333334,57,0.11302000000000056,90,0.16688925000000054
37804,8.967328208333333,52,0.11125949999999918,85,0.055629750000001366
37805,9.078587708333334,52,0.11125950000000095,89,0.1649561249999998
37806,9.188558458333334,54,0.10997075000000045,87,0.05498537499999934
37807,9.298529208333335,54,0.10997075000000045,90,0.16952999999999996
37808,9.411549208333335,55,0.11302000000000056,88,0.056509999999999394
37809,9.524569208333334,55,0.11301999999999879,81,0.16688925000000054
37810,9.635828708333333,54,0.11125949999999918,75,0.055629750000001366
37811,9.747088208333334,54,0.11125950000000095,78,0.16688925000000054
37812,9.858347708333334,59,0.11125949999999918,75,0.055629750000001366
37813,9.969607208333334,59,0.11125950000000095,76,0.16952999999999996
37814,10.082627208333335,57,0.11302000000000056,73,0.056509999999999394
37815,10.195647208333334,57,0.11301999999999879,74,0.16626037500000024
37816,10.306487458333335,52,0.11084025000000075,69,0.05542012499999949
37817,10.417327708333334,52,0.11084024999999897,71,0.16626037500000024
37818,10.528167958333334,54,0.11084025000000075,68,0.05542012499999949
37819,10.639008208333333,54,0.11084024999999897,70,0.16952999999999996
37820,10.752028208333334,55,0.11302000000000056,67,0.056509999999999394
37821,10.865048208333333,55,0.11301999999999879,72,0.16648074999999984
37822,10.975018958333333,54,0.10997075000000045,68,0.056509999999999394
37823,11.088038958333334,54,0.11302000000000056,72,0.16432949999999913
37824,11.197591958333334,50,0.10955300000000001,72,0.05477649999999912
37825,11.307144958333334,50,0.10955300000000001,76,0.1682118750000008
37826,11.419286208333334,46,0.11214125000000053,75,0.05607062500000026
37827,11.531427458333333,46,0.11214124999999875,78,0.1722817499999998
37828,11.646281958333333,45,0.11485449999999986,74,0.05742724999999993
37829,11.761136458333333,45,0.11485449999999986,80,0.16688925000000054
37830,11.872395958333332,50,0.11125949999999918,75,0.055629750000001366
37831,11.983655458333333,50,0.11125950000000095,82,0.17509725000000032
37832,12.100386958333333,46,0.11673150000000021,78,0.058365750000000105
37833,12.217118458333333,45,0.11673150000000021,85,0.17022225000000013
37834,12.330599958333334,50,0.11348150000000068,81,0.05674074999999945
37835,12.444081458333333,50,0.1134814999999989,86,0.1796407500000008
37836,12.563841958333333,46,0.11976049999999994,85,0.059880250000000856
37837,12.683602458333333,45,0.11976049999999994,90,0.1740813750000001
37838,12.799656708333332,50,0.11605424999999947,88,0.05802712500000062
37839,12.915710958333333,50,0.11605425000000125,91,0.18314999999999948
37840,13.037810958333333,46,0.12209999999999965,87,0.06104999999999983
37841,13.159910958333333,45,0.12209999999999965,93,0.1751655000000003
37842,13.276687958333333,50,0.1167770000000008,92,0.05838849999999951
37843,13.393464958333333,50,0.11677699999999902,96,0.19555762500000107
37844,13.518830708333333,46,0.12536575000000028,95,0.07019187500000079
37845,13.659214458333333,46,0.1403837499999998,92,1.4082352499999988
37846,13.776658958333332,45,0.11744449999999951,87,0.11744450000000128
37847,13.864742333333332,46,0.08808337500000007,72,0.02936112500000121
37848,13.894103458333333,45,0.02936112500000121,92,0.11473149999999954
37849,14.008834958333333,43,0.11473149999999954,85,0.11473149999999954
37850,14.123566458333332,45,0.11473149999999954,92,0.4713149999999988
37851,14.360926958333332,46,0.23736049999999942,87,0.2339544999999994
37852,14.477904208333332,45,0.1169772499999997,82,0.1169772499999997
37853,14.565637145833332,46,0.08773293750000022,71,0.02924431249999948
37854,14.594881458333331,45,0.02924431249999948,87,0.11385199999999962
37855,14.708733458333331,43,0.11385199999999962,80,0.11385199999999962
37856,14.82258545833333,45,0.11385199999999962,87,0.2448642500000009
37857,15.067449708333331,50,0.2448642500000009,72,0.17369137500000065
37858,15.183243958333332,51,0.11579425000000043,72,0.057897125000000216
37859,15.299038208333332,51,0.11579425000000043,72,0.1715985
37860,15.413437208333333,50,0.11439900000000058,72,0.057199499999999404
37861,15.527836208333332,50,0.11439899999999881,72,0.1824905000000001
37862,15.643630458333332,51,0.11579425000000043,72,0.06669624999999968
37863,15.777022958333331,44,0.13339249999999936,87,0.7007780000000015
37864,15.894000208333331,43,0.1169772499999997,82,0.11697725000000148
37865,15.981733145833331,44,0.08773293750000022,63,0.029244312500001257
37866,16.010977458333333,43,0.029244312500001257,87,0.11473150000000132
37867,16.125708958333334,41,0.11473150000000132,80,0.11473149999999777
37868,16.24044045833333,43,0.11473149999999777,87,0.46894900000000206
37869,16.477800958333333,48,0.2373605000000012,84,1.3967892500000048
37870,16.593595208333333,43,0.11579425000000043,77,0.11579425000000043
37871,16.680440895833332,44,0.08684568749999855,59,0.028948562500001884
37872,16.709389458333334,43,0.028948562500001884,82,0.11301999999999879
37873,16.822409458333333,41,0.11301999999999879,76,0.11302000000000234
37874,16.935429458333335,43,0.11302000000000234,82,0.46894900000000206
37875,17.172789958333336,44,0.2373605000000012,82,0.23158850000000086
37876,17.288584208333337,43,0.11579425000000043,77,0.11579425000000043
37877,17.375429895833335,44,0.08684568749999855,59,0.028948562500001884
37878,17.404378458333337,43,0.028948562500001884,82,0.11301999999999879
37879,17.517398458333336,41,0.11301999999999879,76,0.11302000000000234
37880,17.630418458333338,43,0.11302000000000234,82,0.24417174999999958
37881,17.874590208333338,48,0.24417174999999958,72,0.17369137500000065
37882,17.990384458333338,50,0.11579425000000043,72,0.057897125000000216
37883,18.10617870833334,50,0.11579425000000043,72,0.17159850000000176
37884,18.220577708333337,48,0.11439899999999881,72,0.057199500000002956
37885,18.33497670833334,48,0.11439900000000236,72,0.17369137500000065
37886,18.45077095833334,50,0.11579425000000043,72,0.057897125000000216
37887,18.56656520833334,43,0.11579425000000043,78,0.7210265000000007
37888,18.68235945833334,41,0.11579425000000043,73,0.11579424999999688
37889,18.76920514583334,43,0.08684568749999855,56,0.02894856249999833
37890,18.798153708333338,41,0.02894856249999833,78,0.11301999999999879
37891,18.911173708333337,39,0.11301999999999879,72,0.11302000000000234
37892,19.02419370833334,41,0.11302000000000234,78,0.26339800000000224
37893,19.28759170833334,46,0.26339800000000224,44,0.17369137500000065
37894,19.40338595833334,48,0.11579425000000043,45,0.057897125000000216
37895,19.519180208333342,48,0.11579425000000043,49,0.1722817499999998
37896,19.634034708333342,50,0.11485449999999986,51,0.05742724999999993
37897,19.748889208333342,50,0.11485449999999986,54,0.1718237500000015
37898,19.86374370833334,51,0.11485449999999986,57,0.05696925000000164
37899,19.97768220833334,51,0.11393849999999972,61,0.16888087499999926
37900,20.090269458333342,53,0.1125872500000007,63,0.05629362499999857
37901,20.202856708333343,53,0.1125872500000007,66,0.16888087499999926
37902,20.31544395833334,55,0.11258724999999714,69,0.05629362500000212
37903,20.42803120833334,55,0.1125872500000007,72,0.18947225000000145
37904,20.551447458333342,53,0.12341625000000178,68,0.06605599999999967
37905,20.68355945833334,46,0.13211199999999934,47,0.17369137500000065
37906,20.799353708333342,48,0.11579425000000043,48,0.057897125000000216
37907,20.915147958333343,48,0.11579425000000043,50,0.17159850000000176
37908,21.02954695833334,50,0.11439899999999881,51,0.057199500000002956
37909,21.143945958333344,50,0.11439900000000236,54,0.17136825000000044
37910,21.258344958333343,51,0.11439899999999881,55,0.05696925000000164
37911,21.372283458333342,51,0.11393849999999972,57,0.16888087499999926
37912,21.484870708333343,53,0.1125872500000007,58,0.05629362499999857
37913,21.597457958333344,53,0.1125872500000007,61,0.49320724999999754
37914,21.71004520833334,55,0.11258724999999714,63,0.05629362500000212
37915,21.82263245833334,55,0.1125872500000007,64,0.19238212500000174
37916,21.93936395833334,54,0.11673150000000021,66,0.07565062500000153
37917,22.09066520833334,58,0.1513012499999995,67,0.11439899999999881
37918,22.319463208333342,58,0.22879800000000117,67,0.1715984999999982
37919,22.43386220833334,57,0.11439899999999881,64,0.057199499999999404
37920,22.54826120833334,57,0.11439899999999881,67,0.17159850000000176
37921,22.662660208333342,58,0.11439900000000236,65,0.057199499999999404
37922,22.776906291666673,58,0.11424608333333097,70,0.1743780000000008
37923,22.893158291666673,57,0.11625199999999936,69,0.058126000000001454
37924,23.009410291666672,57,0.11625199999999936,74,0.17534437500000166
37925,23.125662291666675,58,0.11625200000000291,72,0.059092374999998754
37926,23.243847041666676,58,0.11818475000000106,77,0.17369137500000065
37927,23.359641291666676,59,0.11579425000000043,73,0.057897125000000216
37928,23.475435541666677,59,0.11579425000000043,77,0.17069425000000038
37929,23.58931287500001,60,0.11387733333333472,73,0.05681691666666566
37930,23.70309904166668,60,0.1137861666666673,78,0.17220708333333334
37931,23.81772579166668,59,0.11462674999999933,75,0.05758033333333401
37932,23.93312316666668,59,0.11539737500000058,80,0.17454508333333507
37933,24.049302500000014,60,0.11617933333333497,77,0.058365750000000105
37934,24.16595475000001,60,0.11665224999999779,82,0.1759062083333376
37935,24.28292933333335,59,0.11697458333333799,78,0.0589316249999996
37936,24.401118500000017,59,0.11818916666666723,84,0.17985808333333608
37937,24.520717625000017,60,0.11959912500000058,81,0.0602589583333355
37938,24.641669500000017,60,0.12095187499999938,86,0.20362329166666626
37939,24.769026791666683,61,0.12735729166666587,82,0.07626600000000039
37940,24.921558791666683,61,0.15253200000000078,88,0.24447899999999834
37941,25.16603779166668,61,0.24447899999999834,83,0.1795259999999992
37942,25.28572179166668,59,0.11968399999999946,77,0.05984199999999973
37943,25.40540579166668,59,0.11968399999999946,75,0.1802296250000026
37944,25.522620791666682,57,0.11721500000000162,69,0.06301462500000099
37945,25.64865004166668,61,0.12602924999999843,88,0.24242399999999975
37946,25.89107404166668,61,0.24242399999999975,83,0.18365366666666816
37947,26.01333783333335,57,0.12226379166666845,77,0.061389874999999705
37948,26.13611758333335,57,0.12277974999999941,75,0.18416962499999912
37949,26.258897333333348,56,0.12277974999999941,69,0.061389874999999705
37950,26.381677083333347,61,0.12277974999999941,79,0.12413650000000231
37951,26.64476683333335,57,0.26308975000000245,63,0.639739500000001
37952,26.76914483333335,56,0.1243780000000001,68,0.06218900000000005
37953,26.89352283333335,56,0.1243780000000001,64,0.2603214999999999
37954,27.01790083333335,54,0.1243780000000001,59,0.06797175000000166
37955,27.15384433333335,54,0.13594349999999977,74,0.13066200000000094
37956,27.413680250000017,46,0.25983591666666683,52,0.1777874166666713
37957,27.531626541666686,43,0.11794629166666937,45,0.05984112500000194
37958,27.651814375000022,46,0.12018783333333616,48,0.243466999999999
37959,27.773547875000023,42,0.12173350000000127,35,0.06086674999999886
37960,27.89528137500002,42,0.12173349999999772,54,0.1743780000000008
37961,28.01153337500002,43,0.11625199999999936,42,0.058126000000001454
37962,28.12778537500002,43,0.11625199999999936,51,0.17090775000000136
37963,28.24172387500002,44,0.11393849999999972,43,0.05696925000000164
37964,28.35566237500002,44,0.11393849999999972,52,0.17090775000000136
37965,28.46960087500002,45,0.11393849999999972,44,0.05696925000000164
37966,28.58353937500002,45,0.11393849999999972,53,0.16888087499999926
37967,28.69612662500002,46,0.1125872500000007,46,0.05629362499999857
37968,28.80871387500002,46,0.1125872500000007,56,0.16888087499999926
37969,28.921301125000017,47,0.11258724999999714,47,0.05629362500000212
37970,29.033888375000018,47,0.1125872500000007,57,0.17159850000000176
37971,29.148287375000017,48,0.11439899999999881,49,0.057199500000002956
37972,29.26268637500002,48,0.11439900000000236,59,0.16888087499999926
37973,29.37527362500002,49,0.1125872500000007,52,0.05629362499999857
37974,29.48786087500002,49,0.1125872500000007,61,0.16888087499999926
37975,29.600448125000018,50,0.11258724999999714,54,0.05629362500000212
37976,29.71303537500002,50,0.1125872500000007,66,0.16888087499999926
37977,29.82562262500002,51,0.1125872500000007,56,0.05629362499999857
37978,29.93820987500002,51,0.1125872500000007,69,0.1682118750000008
37979,30.05035112500002,52,0.11214125000000053,60,0.05607062500000026
37980,30.16191187500002,52,0.11156074999999888,71,0.16646291666666357
37981,30.272745041666685,53,0.11083316666666576,62,0.05562974999999781
37982,30.384004541666684,53,0.11125949999999918,76,0.17022224999999835
37983,30.497486041666683,54,0.1134814999999989,66,0.05674074999999945
37984,30.610967541666685,54,0.11348150000000246,81,0.16671149999999813
37985,30.720938291666684,55,0.10997074999999867,77,0.05674074999999945
37986,30.834419791666683,55,0.1134814999999989,82,0.1649561249999998
37987,30.94439054166668,54,0.10997074999999867,78,0.05498537500000111
37988,31.054361291666684,54,0.10997075000000223,84,0.17555124999999805
37989,31.167381291666683,52,0.11301999999999879,84,0.06253124999999926
37990,31.29244379166668,52,0.12506249999999852,82,0.17090775000000136
37991,31.40638229166668,50,0.11393849999999972,79,0.05696925000000164
37992,31.52032079166668,50,0.11393849999999972,83,0.1682118750000008
37993,31.63246204166668,52,0.11214125000000053,79,0.05607062500000026
37994,31.74460329166668,52,0.11214125000000053,85,0.1746724999999998
37995,31.856744541666682,54,0.11214125000000053,86,0.06253124999999926
37996,31.98180704166668,54,0.12506249999999852,87,0.16848899999999745
37997,32.09413304166668,52,0.11232599999999948,86,0.056162999999997965
37998,32.20645904166668,52,0.11232600000000303,84,0.168489000000001
37999,32.31878504166668,50,0.11232599999999593,83,0.05616300000000507
38000,32.43111104166668,50,0.11232600000000303,81,0.1736913749999971
38001,32.54690529166668,49,0.11579425000000043,80,0.05789712499999666
38002,32.66269954166668,40,0.11579425000000043,79,0.22864450000000147
38003,32.77709854166668,50,0.11439899999999881,71,0.11424550000000266
38004,32.891344041666684,50,0.11424550000000266,70,0.22940616666666358
38005,33.00558954166668,49,0.11424549999999556,67,0.11516066666666802
38006,33.12075020833335,49,0.11516066666666802,64,0.248680052083337
38007,33.240934627083355,42,0.12018441875000718,62,0.1284956333333298
38008,33.369430260416685,35,0.1284956333333298,63,0.1736913749999971
38009,33.485224510416685,43,0.11579425000000043,45,0.05789712499999666
38010,33.601018760416686,23,0.11579425000000043,81,0.1709077499999978
38011,33.71495726041669,44,0.11393850000000327,46,0.05696924999999453
38012,33.828895760416685,44,0.11393849999999617,58,0.17370075000000185
38013,33.945627260416686,45,0.11673150000000021,49,0.05696925000000164
38014,34.05956576041669,35,0.11393850000000327,73,0.16888087499999926
38015,34.172153010416686,46,0.11258724999999714,51,0.05629362500000212
38016,34.28474026041669,21,0.11258725000000425,95,0.16888087499999926
38017,34.39732751041669,47,0.11258724999999714,54,0.05629362500000212
38018,34.50991476041669,47,0.11258725000000425,65,0.17159850000000176
38019,34.62431376041669,48,0.11439899999999881,56,0.057199500000002956
38020,34.73871276041669,35,0.11439899999999881,85,0.16888087499999926
38021,34.851300010416686,49,0.11258724999999714,61,0.05629362500000212
38022,34.96388726041669,19,0.11258725000000425,101,0.16888087499999926
38023,35.07647451041669,50,0.11258724999999714,62,0.05629362500000212
38024,35.18906176041669,50,0.11258725000000425,74,0.16888087499999926
38025,35.30164901041669,51,0.11258724999999714,64,0.05629362500000212
38026,35.414236260416686,38,0.11258724999999714,84,0.16821187499999724
38027,35.52637751041669,52,0.11214125000000053,72,0.05607062499999671
38028,35.63793826041669,18,0.11156075000000243,103,0.16646291666666713
38029,35.748771427083355,53,0.11083316666666576,73,0.055629750000001366
38030,35.86003092708335,53,0.11125949999999563,82,0.17922562500000083
38031,35.97951467708335,54,0.11948375000000055,76,0.05974187500000028
38032,36.09899842708335,54,0.11948375000000055,90,0.17004050000000603
38033,36.211324427083355,52,0.11232600000000303,77,0.057714500000003
38034,36.326753427083354,52,0.1154289999999989,81,0.11362774999999914
38035,36.44038117708335,50,0.11362774999999914,73,0.05681387500000312
38036,36.55400892708335,50,0.11362774999999914,78,0.1154289999999989
38037,36.66943792708335,49,0.1154289999999989,71,0.057714500000003
38038,36.78486692708335,52,0.1154289999999989,90,0.17134225000000214
38039,36.89849467708335,50,0.11362774999999914,77,0.057714500000003
38040,37.01392367708335,50,0.1154289999999989,81,0.11362774999999914
38041,37.12755142708335,49,0.11362774999999914,73,0.05681387500000312
38042,37.241179177083346,49,0.11362774999999914,78,0.12102624999999989
38043,37.362205427083346,47,0.12102624999999989,71,0.060513124999999945
38044,37.483231677083346,54,0.12102624999999989,90,0.1727982499999996
38045,37.59831542708334,52,0.1150837499999966,77,0.057714500000003
38046,37.71374442708334,52,0.1154289999999989,81,0.11362774999999914
38047,37.82737217708334,50,0.11362774999999914,73,0.05681387500000312
38048,37.94099992708334,50,0.11362774999999914,78,0.1154289999999989
38049,38.05642892708334,49,0.1154289999999989,71,0.057714500000003
38050,38.17185792708334,52,0.1154289999999989,90,0.17134225000000214
38051,38.28548567708334,50,0.11362774999999914,77,0.057714500000003
38052,38.400914677083335,50,0.1154289999999989,81,0.11362774999999914
38053,38.514542427083335,49,0.11362774999999914,73,0.05681387500000312
38054,38.628170177083334,49,0.11362774999999914,78,0.12181249999999721
38055,38.74998267708333,47,0.12181249999999721,71,0.06090625000000216
38056,38.871795177083335,50,0.12181250000000432,90,0.17350875000000343
38057,38.987589427083336,49,0.11579425000000043,77,0.057714500000003
38058,39.103018427083335,49,0.1154289999999989,81,0.11362774999999914
38059,39.216646177083334,50,0.11362774999999914,73,0.05681387500000312
38060,39.33027392708333,50,0.11362774999999914,79,0.1154289999999989
38061,39.44570292708333,49,0.1154289999999989,73,0.057714500000003
38062,39.56113192708333,49,0.1154289999999989,93,0.11362774999999914
38063,39.67475967708333,50,0.11362774999999914,80,0.057714500000003
38064,39.79018867708333,50,0.1154289999999989,85,0.11362774999999914
38065,39.90381642708333,49,0.11362774999999914,78,0.05681387500000312
38066,40.01744417708333,49,0.11362774999999914,84,0.1154289999999989
38067,40.132873177083326,50,0.1154289999999989,77,0.057714500000003
38068,40.248302177083325,50,0.1154289999999989,90,0.11362774999999914
38069,40.361929927083324,49,0.11362774999999914,83,0.057714500000003
38070,40.47735892708332,49,0.1154289999999989,85,0.11362774999999914
38071,40.59098667708332,50,0.11362774999999914,75,0.05681387500000312
38072,40.70461442708332,50,0.11362774999999914,79,0.1154289999999989
38073,40.82004342708332,49,0.1154289999999989,71,0.057714500000003
38074,40.93547242708332,49,0.1154289999999989,88,0.11362774999999914
38075,41.04910017708332,50,0.11362774999999914,73,0.057714500000003
38076,41.16452917708332,50,0.1154289999999989,76,0.11362774999999914
38077,41.278156927083316,49,0.11362774999999914,67,0.05681387500000312
38078,41.391784677083315,49,0.11362774999999914,70,0.11770250000000004
38079,41.509487177083315,50,0.11770250000000004,62,0.06605600000000322
38080,41.641599177083314,43,0.13211199999999934,72,2.5415942499999886
38081,41.756453677083314,42,0.11485449999999986,60,0.05860750000000081
38082,41.873668677083316,42,0.11721500000000162,62,0.11485449999999986
38083,41.988523177083316,40,0.11485449999999986,55,0.05742725000000348
38084,42.103377677083316,40,0.11485449999999986,58,0.1154289999999989
38085,42.218806677083315,38,0.1154289999999989,53,0.057714500000003
38086,42.33423567708331,38,0.1154289999999989,60,0.11362774999999914
38087,42.44786342708331,37,0.11362774999999914,52,0.057714500000003
38088,42.56329242708331,37,0.1154289999999989,54,0.11362774999999914
38089,42.67692017708331,35,0.11362774999999914,47,0.05681387500000312
38090,42.79054792708331,35,0.11362774999999914,53,0.1154289999999989
38091,42.90597692708331,33,0.1154289999999989,45,0.057714500000003
38092,43.02140592708331,33,0.1154289999999989,52,0.11362774999999914
38093,43.13503367708331,31,0.11362774999999914,44,0.057714500000003
38094,43.250462677083306,31,0.1154289999999989,46,0.11362774999999914
38095,43.364090427083305,30,0.11362774999999914,40,0.05681387500000312
38096,43.477718177083304,30,0.11362774999999914,44,0.1154289999999989
38097,43.5931471770833,28,0.1154289999999989,40,0.06622512500000255
38098,43.7255974270833,40,0.132450249999998,48,0.9373769999999979
38099,44.1831934270833,50,0.45759600000000233,48,0.22879799999999761
38100,44.4119914270833,47,0.22879799999999761,48,0.12549150000000253
38101,44.6629744270833,47,0.25098299999999796,53,0.1811741249999983
38102,44.783757177083295,50,0.1207827499999965,45,0.0603913750000018
38103,44.9045399270833,50,0.1207827500000036,53,0.17530200000000207
38104,45.021407927083295,49,0.11686799999999664,45,0.058434000000005426
38105,45.1382759270833,49,0.11686800000000375,53,0.17821412500000378
38106,45.2560986770833,47,0.11782275000000197,45,0.0603913750000018
38107,45.3768814270833,47,0.1207827499999965,53,0.1765749999999997
38108,45.494545052083296,50,0.11766362499999872,45,0.05891137500000099
38109,45.6123678020833,50,0.11782275000000197,53,0.17386612500000354
38110,45.728278552083296,49,0.11591074999999762,45,0.057955375000005915
38111,45.8441893020833,49,0.11591075000000473,53,0.1805895000000035
38112,45.9620120520833,47,0.11782275000000197,45,0.06276675000000154
38113,46.087545552083306,45,0.12553350000000307,53,0.17530200000000207
38114,46.2044135520833,54,0.11686799999999664,45,0.058434000000005426
38115,46.321281552083306,54,0.11686800000000375,53,0.17249325000000226
38116,46.436277052083305,52,0.11499549999999914,45,0.05749775000000312
38117,46.551272552083304,52,0.11499549999999914,53,0.1846855000000005
38118,46.669095302083306,50,0.11782275000000197,45,0.06686274999999853
38119,46.8028208020833,42,0.13372549999999706,53,0.17530200000000207
38120,46.9196888020833,50,0.11686799999999664,45,0.058434000000005426
38121,47.036556802083304,50,0.11686800000000375,53,0.178189500000002
38122,47.1553498020833,49,0.1187929999999966,45,0.0593965000000054
38123,47.274142802083304,47,0.1187930000000037,53,0.1340002499999997
38124,47.5421433020833,47,0.2680004999999994,53,0.17896912500000184
38125,47.6614560520833,50,0.11931274999999886,45,0.05965637500000298
38126,47.7807688020833,50,0.11931274999999886,53,0.17616675000000015
38127,47.8982133020833,49,0.11744449999999773,45,0.05872225000000242
38128,48.015657802083304,49,0.11744450000000484,53,0.17945579166666903
38129,48.13472221874997,47,0.11906441666666723,45,0.0603913750000018
38130,48.25550496874997,47,0.1207827499999965,53,0.17745862499999987
38131,48.373810718749965,50,0.11830574999999754,45,0.059152875000002325
38132,48.49211646874997,50,0.11830575000000465,53,0.1737135833333312
38133,48.6078746770833,49,0.11575820833333239,45,0.05795537499999881
38134,48.7237854270833,49,0.11591074999999762,53,0.19050487500000202
38135,48.8444709270833,47,0.12068550000000045,45,0.06981937500000157
38136,48.9841096770833,43,0.13963875000000314,53,0.1833592500000023
38137,49.1063491770833,52,0.12223949999999917,45,0.06111975000000314
38138,49.2285886770833,52,0.12223949999999917,53,0.17952600000000274
38139,49.3482726770833,50,0.11968399999999946,45,0.05984200000000328
38140,49.4679566770833,50,0.11968399999999946,53,0.18859624999999625
38141,49.5896901770833,48,0.12173349999999772,45,0.06686274999999853
38142,49.723415677083295,42,0.13372549999999706,53,0.18183499999999952
38143,49.84359842708329,50,0.1201827499999979,45,0.06165225000000163
38144,49.9669029270833,47,0.12330450000000326,53,0.3782297500000027
38145,50.094064677083296,46,0.12716174999999907,45,0.0671682500000017
38146,50.2284011770833,47,0.1343365000000034,53,0.11673150000000021
38147,50.9287901770833,42,0.7003890000000013,69,1.1433305000000047
38148,51.1603786770833,35,0.23158850000000086,59,0.11214125000000053
38149,51.2725199270833,37,0.11214125000000053,55,0.08410593749999862
38150,51.3846611770833,34,0.11214125000000053,55,0.11214125000000053
38151,51.4968024270833,40,0.11214125000000053,55,0.11214125000000053
38152,51.6089436770833,35,0.11214125000000053,63,0.23158850000000086
38153,52.072120677083305,43,0.4631770000000017,63,0.24770850000000166
38154,52.31982917708331,42,0.24770850000000166,69,0.9268640000000019
38155,52.55141767708331,38,0.23158850000000086,59,0.11214125000000053
38156,52.66355892708331,37,0.11214125000000053,55,0.08410593749999862
38157,52.77570017708331,37,0.11214125000000053,55,0.11214125000000053
38158,52.88784142708331,40,0.11214125000000053,55,0.11214125000000053
38159,52.99998267708331,35,0.11214125000000053,63,0.24671049999999894
38160,53.24669317708331,45,0.24671049999999894,63,0.2533784999999966
38161,53.500071677083305,43,0.2533784999999966,61,0.26041649999999805
38162,53.7604881770833,42,0.26041649999999805,70,1.0226804999999999
38163,54.0071986770833,38,0.24671049999999894,53,0.12330450000000326
38164,54.130503177083305,37,0.12330450000000326,49,0.09247837499999889
38165,54.2538076770833,37,0.12330449999999615,49,0.12330450000000326
38166,54.377112177083305,40,0.12330450000000326,49,0.12330449999999615
38167,54.5004166770833,35,0.12330449999999615,56,0.2827520000000021
38168,54.7831686770833,47,0.2827520000000021,54,0.27573550000000324
38169,55.058904177083306,45,0.27573550000000324,49,0.2884614999999968
38170,55.3473656770833,43,0.2884614999999968,48,0.30737700000000245
38171,55.654742677083306,42,0.30737700000000245,43,0.6674969999999973
38172,56.022389677083304,30,0.36764699999999806,99,0.1499250000000032
38173,56.3222396770833,35,0.2998499999999993,110,0.1499250000000032
38174,0.0015092979166666668,42,0.0,81,0.6930589520833333
38175,0.09055787500000001,48,0.08904857708333334,81,0.604010375
38176,0.18111575000000002,57,0.09055787500000001,96,0.5398071249999999
38177,0.69456825,56,0.5134525,80,0.44802862499999996
38178,1.11624225,55,0.421674,80,0.3895918749999998
38179,1.4859312499999997,54,0.3696889999999997,81,0.3392170000000001
38180,1.8043772499999997,52,0.318446,83,0.35310699999999984
38181,2.1367132499999997,51,0.33233599999999996,78,1.8515727916666664
38182,4.149057749999999,25,2.0123444999999993,53,0.16519800000000018
38183,4.231656749999999,54,0.08259900000000009,40,0.09589191666666697
38184,4.314255749999999,51,0.08259900000000009,41,0.09305041666666636
38185,4.3940132499999995,52,0.07975750000000037,42,0.0929256666666669
38186,4.473687583333333,44,0.07967433333333318,43,0.09275933333333342
38187,4.553195583333332,48,0.07950799999999969,45,0.0927187500000004
38188,4.632703583333333,49,0.07950800000000058,45,0.1585289999999997
38189,4.711968083333333,51,0.07926449999999985,46,0.09268370833333339
38190,4.791232583333333,25,0.07926449999999985,57,0.16103049999999985
38191,4.871747833333333,54,0.08051525000000037,49,0.09368283333333238
38192,4.9522630833333325,56,0.08051524999999948,51,0.09217308333333296
38193,5.031268583333333,58,0.07900550000000006,51,0.09209312499999989
38194,5.110274083333333,60,0.07900550000000006,52,0.09161337499999966
38195,5.1887998333333325,61,0.07852574999999984,53,0.0917343749999997
38196,5.267325583333332,63,0.07852574999999984,54,0.15850350000000013
38197,5.346577333333332,64,0.07925175000000007,56,0.09254466666666694
38198,5.4258290833333325,25,0.07925175000000007,65,0.15951499999999985
38199,5.505586583333333,68,0.07975750000000037,57,0.09272495833333316
38200,5.585344083333332,70,0.07975749999999948,58,0.0907722083333331
38201,5.663148833333333,72,0.07780475000000031,59,0.0907326666666659
38202,5.740953583333332,73,0.07780474999999942,61,0.09049541666666627
38203,5.818521083333332,75,0.07756749999999979,62,0.09045674999999953
38204,5.896088583333332,76,0.07756749999999979,64,0.15467099999999956
38205,5.973424083333332,78,0.07733550000000022,65,0.09046299999999974
38206,6.050759583333331,25,0.07733549999999934,68,0.1575300000000004
38207,6.129524583333331,80,0.07876499999999975,65,0.09189250000000015
38208,6.208289583333332,78,0.07876500000000064,65,0.09050249999999949
38209,6.285942583333331,76,0.07765299999999975,63,0.08994649999999993
38210,6.3630395833333315,75,0.0770970000000002,62,0.09014524999999995
38211,6.440295583333332,73,0.07725600000000021,61,0.09022474999999996
38212,6.517631083333332,72,0.07733550000000022,60,0.15505766666666698
38213,6.595121249999999,73,0.07749016666666719,59,0.07756749999999979
38214,6.672688749999999,25,0.07756749999999979,60,0.15801100000000012
38215,6.751694249999999,69,0.07900550000000006,57,0.09217308333333296
38216,6.830699749999999,68,0.07900550000000006,56,0.09137495833333364
38217,6.909066749999999,67,0.07836700000000008,56,0.09105570833333321
38218,6.987114499999999,68,0.07804774999999964,55,0.09125258333333353
38219,7.06531975,66,0.07820525000000078,54,0.09133133333333276
38220,7.14360375,64,0.07828400000000002,53,0.1569709166666664
38221,7.222048916666666,63,0.07844516666666657,52,0.09190116666666626
38222,7.300574666666666,25,0.07852574999999984,54,0.16050499999999968
38223,7.380827166666666,60,0.08025250000000028,50,0.0936279166666667
38224,7.461079666666666,61,0.0802524999999994,49,0.09258875
38225,7.540500833333333,59,0.0794211666666671,49,0.09217308333333296
38226,7.619506333333333,57,0.07900550000000006,48,0.09238891666666671
38227,7.6986845,56,0.07917816666666688,48,0.09247524999999968
38228,7.777949,54,0.07926449999999985,46,0.1591016666666656
38229,7.857375833333332,52,0.07942683333333278,45,0.09317158333333264
38230,7.937050666666665,25,0.0796748333333328,51,0.1619610000000007
38231,8.018031166666665,52,0.0809804999999999,45,0.09427341666666678
38232,8.099011666666666,54,0.08098050000000079,45,0.09305041666666725
38233,8.178769166666665,56,0.07975749999999948,46,0.09305041666666725
38234,8.258526666666667,57,0.07975750000000126,47,0.09284249999999794
38235,8.338117833333332,59,0.0795911666666651,47,0.09293154166666717
38236,8.417625833333332,61,0.07950800000000058,48,0.16108249999999913
38237,8.498167083333332,63,0.08054124999999956,49,0.09396479166666794
38238,8.578708333333331,25,0.08054124999999956,59,0.15954675000000051
38239,8.659249583333333,59,0.08054125000000134,48,0.09217308333333385
38240,8.738255083333332,57,0.07900549999999917,49,0.09217308333333385
38241,8.817260583333333,56,0.07900550000000095,49,0.09197266666666515
38242,8.896105749999998,54,0.07884516666666563,50,0.09189250000000015
38243,8.97487075,52,0.07876500000000064,51,0.09196474999999893
38244,9.053555999999999,51,0.07868524999999948,51,0.15935400000000044
38245,9.133232999999999,54,0.07967700000000022,51,0.09305241666666753
38246,9.212909999999999,25,0.07967700000000022,56,0.16050500000000056
38247,9.2931625,53,0.08025250000000028,48,0.09329983333333303
38248,9.373415,56,0.08025250000000028,51,0.09133133333333276
38249,9.451699,54,0.07828400000000002,45,0.09170320833333356
38250,9.529983,51,0.07828400000000002,45,0.09393445833333303
38251,9.61049825,45,0.08051524999999948,43,0.09389066666666857
38252,9.6910135,50,0.08051525000000126,44,0.16050500000000056
38253,9.771266,51,0.08025250000000028,45,0.09358725000000057
38254,9.851518500000001,25,0.08025250000000028,51,0.16001699999999985
38255,9.931527,51,0.08000849999999993,46,0.09330141666666592
38256,10.0115355,53,0.08000849999999993,48,0.09305041666666725
38257,10.091293,54,0.07975749999999948,48,0.0929256666666678
38258,10.170967333333335,56,0.07967433333333496,48,0.09275933333333342
38259,10.250475333333334,54,0.0795079999999988,50,0.09247416666666552
38260,10.329902166666667,55,0.07942683333333278,51,0.15680849999999857
38261,10.408186166666667,56,0.07828400000000002,51,0.07852449999999855
38262,10.486710666666665,25,0.07852449999999855,59,0.16044708333333446
38263,10.567225916666665,57,0.08051524999999948,53,0.09301945833333569
38264,10.64715775,60,0.07993183333333498,55,0.09161337499999966
38265,10.7256835,61,0.07852575000000073,56,0.09161337499999966
38266,10.80420925,64,0.07852574999999895,56,0.09161337499999966
38267,10.882735,63,0.07852575000000073,58,0.09141191666666693
38268,10.961099583333333,64,0.0783645833333324,59,0.15641049999999979
38269,11.039383583333333,65,0.07828400000000002,60,0.09169795833333261
38270,11.117510083333332,25,0.07812649999999977,68,0.16141733333333264
38271,11.198938833333333,66,0.0814287500000006,62,0.09316520833333186
38272,11.278927416666665,67,0.07998858333333203,62,0.09209591666666661
38273,11.357916499999998,68,0.0789890833333331,63,0.09161100000000033
38274,11.436488999999998,72,0.07857249999999993,64,0.0913391249999993
38275,11.514651499999998,73,0.07816249999999947,65,0.09334349999999958
38276,11.59427458333333,71,0.0796230833333329,67,0.17728308333333231
38277,11.678976416666663,70,0.08470183333333203,68,0.1057087499999998
38278,11.771557666666663,24,0.09258125000000028,73,0.1575299999999995
38279,11.850322666666663,80,0.07876500000000064,66,0.09157566666666561
38280,11.929087666666662,78,0.07876499999999886,66,0.08975325000000112
38281,12.005951666666663,66,0.07686400000000049,65,0.09022475000000085
38282,12.083287166666663,76,0.07733550000000022,63,0.09022474999999908
38283,12.160622666666663,75,0.07733550000000022,62,0.0902634166666676
38284,12.237958166666663,63,0.07733550000000022,62,0.15513499999999958
38285,12.315525666666664,73,0.07756750000000068,61,0.09090224999999919
38286,12.393093166666663,72,0.0775674999999989,60,0.16001699999999985
38287,12.473101666666663,60,0.08000849999999993,59,0.09297595833333361
38288,12.553110166666663,71,0.08000849999999993,57,0.09077220833333399
38289,12.630914916666663,69,0.07780475000000031,57,0.09081270833333299
38290,12.708719666666664,57,0.07780475000000031,56,0.0910557083333341
38291,12.786767416666663,68,0.07804774999999964,56,0.0910557083333341
38292,12.864815166666663,66,0.07804774999999964,55,0.15633175000000143
38293,12.942862916666664,57,0.07804775000000141,54,0.09133133333333276
38294,13.021146916666664,25,0.07828400000000002,55,0.15664858333333243
38295,13.099430916666664,66,0.07828400000000002,52,0.09145220833333312
38296,13.177795499999997,64,0.0783645833333324,51,0.09161337499999966
38297,13.256321249999997,56,0.07852575000000073,51,0.09161337499999966
38298,13.334846999999996,64,0.07852574999999895,50,0.0917330000000014
38299,13.413452499999998,63,0.07860550000000188,50,0.09189249999999838
38300,13.492217499999997,54,0.07876499999999886,49,0.15761016666666627
38301,13.570982499999998,63,0.07876500000000064,47,0.09201275000000031
38302,13.649827666666663,28,0.07884516666666563,49,0.15801100000000012
38303,13.728833166666664,61,0.07900550000000095,46,0.09217308333333385
38304,13.807838666666663,59,0.07900549999999917,45,0.09230258333333374
38305,13.886930499999997,51,0.07909183333333303,45,0.09247524999999968
38306,13.966194999999997,59,0.07926450000000074,44,0.09247524999999968
38307,14.045459499999996,57,0.07926449999999896,42,0.09259700000000137
38308,14.124805166666665,49,0.07934566666666854,42,0.15901599999999938
38309,14.204313166666664,57,0.0795079999999988,42,0.07950800000000058
38310,14.283821166666664,30,0.07950800000000058,41,0.15885366666666556
38311,14.363329166666665,49,0.07950800000000058,42,0.0925564166666657
38312,14.44267483333333,51,0.07934566666666498,42,0.09234575000000156
38313,14.521852999999997,52,0.07917816666666688,44,0.09213300000000046
38314,14.600858499999998,54,0.07900550000000095,45,0.09185262500000135
38315,14.679623499999998,55,0.07876500000000064,46,0.09161337499999966
38316,14.758149249999999,56,0.07852575000000073,47,0.15656983333333407
38317,14.836513833333331,57,0.0783645833333324,48,0.09141600000000238
38318,14.914719083333333,55,0.07820525000000167,51,0.1585289999999997
38319,14.993983583333334,56,0.07926450000000074,49,0.09227245833333164
38320,15.073248083333333,53,0.07926449999999896,47,0.09109508333333238
38321,15.151295833333332,54,0.07804774999999964,46,0.09137162500000073
38322,15.229579833333332,51,0.07828400000000002,45,0.09161337499999966
38323,15.308105583333333,52,0.07852575000000073,44,0.091812749999999
38324,15.386790833333333,51,0.07868524999999948,43,0.15801716666666543
38325,15.465716166666667,49,0.07892533333333418,41,0.07909183333333125
38326,15.544807999999998,30,0.07909183333333125,50,0.15785066666666658
38327,15.623813499999999,49,0.07900550000000095,41,0.09197266666666515
38328,15.702658666666665,51,0.07884516666666563,42,0.09185262500000135
38329,15.781423666666665,52,0.07876500000000064,44,0.09161337499999966
38330,15.859949416666666,54,0.07852575000000073,45,0.09149249999999931
38331,15.938394583333332,55,0.07844516666666657,47,0.09133133333333099
38332,16.01667858333333,56,0.07828399999999824,49,0.1560932500000014
38333,16.094805083333334,57,0.07812650000000332,50,0.0913014999999966
38334,16.172771833333332,55,0.07796674999999809,51,0.158709833333333
38335,16.252780333333334,56,0.0800085000000017,50,0.09170929166666397
38336,16.331481666666665,53,0.07870133333333129,48,0.09117383333333251
38337,16.40960816666666,54,0.07812649999999621,48,0.09133133333333276
38338,16.48789216666666,51,0.07828400000000002,46,0.09153279166666906
38339,16.56633733333333,52,0.07844516666666834,45,0.09173299999999784
38340,16.644942833333328,51,0.07860549999999833,45,0.15728950000000097
38341,16.72370783333333,49,0.07876500000000064,43,0.07852450000000033
38342,16.80223233333333,32,0.07852450000000033,42,0.15616899999999845
38343,16.880422583333328,51,0.07819024999999868,42,0.09093950000000106
38344,16.958401333333327,53,0.07797874999999976,44,0.09062075000000291
38345,17.036096166666663,54,0.07769483333333582,45,0.09037541666666371
38346,17.113580999999996,55,0.07748483333333311,48,0.09006179166666328
38347,17.19078666666666,56,0.07720566666666429,50,0.08978400000000164
38348,17.26778358333333,58,0.07699691666666908,51,0.15316874999999897
38349,17.34450608333333,59,0.07672249999999892,53,0.08953387500000076
38350,17.42095233333333,57,0.07644625000000005,54,0.15631249999999852
38351,17.49947808333333,58,0.07852575000000073,52,0.0905048750000006
38352,17.577264833333327,55,0.0777867499999978,51,0.08913000000000082
38353,17.653642333333327,56,0.07637749999999954,48,0.08937125000000279
38354,17.730226499999993,53,0.07658416666666668,48,0.08961183333333267
38355,17.80701716666666,54,0.07679066666666756,48,0.08985304166666808
38356,17.88401408333333,53,0.07699691666666908,46,0.15461983333333507
38357,17.961219749999998,51,0.07720566666666784,45,0.07741416666666723
38358,18.038633916666665,50,0.07741416666666723,43,0.15489900000000034
38359,18.116189416666664,51,0.077555499999999,44,0.09019962500000034
38360,18.193532916666665,53,0.07734350000000134,45,0.08999287500000008
38361,18.270669666666667,54,0.07713675000000109,47,0.08981808333333063
38362,18.347666583333332,55,0.07699691666666553,49,0.08957775000000012
38363,18.42445725,56,0.07679066666666756,51,0.08940583333333407
38364,18.501110583333332,58,0.0766533333333328,53,0.15268783333333502
38365,18.577556833333333,59,0.07644625000000005,54,0.08924954166666765
38366,18.653798416666667,57,0.07624158333333497,57,0.15544866666666834
38367,18.731846166666667,58,0.07804774999999964,56,0.09008545833333415
38368,18.809247083333336,55,0.0774009166666687,54,0.08879179166666518
38369,18.885354333333336,56,0.07610724999999974,51,0.08882537499999899
38370,18.961461583333335,53,0.07610724999999974,51,0.08913000000000082
38371,19.037839083333335,54,0.07637749999999954,51,0.08926750000000183
38372,19.114354083333335,53,0.07651500000000055,49,0.1529612500000006
38373,19.190869083333336,51,0.07651500000000055,48,0.07644625000000005
38374,19.267315333333336,32,0.07644625000000005,55,0.15467100000000045
38375,19.344650833333336,54,0.07733550000000022,45,0.09022475000000085
38376,19.421986333333336,56,0.07733550000000022,47,0.09010687500000003
38377,19.499321833333337,57,0.07733550000000022,49,0.08927879166666486
38378,19.575950083333336,59,0.07662824999999884,50,0.08855379166666566
38379,19.651853333333335,61,0.07590324999999964,51,0.08835529166666589
38380,19.727756583333335,62,0.07590324999999964,53,0.14942449999999852
38381,19.802468833333336,63,0.07471225000000103,55,0.08772020833333016
38382,19.877181083333333,64,0.07471224999999748,56,0.15562233333333353
38383,19.955228833333333,65,0.07804774999999964,57,0.09015825000000177
38384,20.032803416666667,68,0.07757458333333389,58,0.08818666666666886
38385,20.10837275,66,0.07556933333333404,56,0.08858937499999797
38386,20.184277583333333,63,0.07590483333333253,56,0.0889940833333327
38387,20.260519166666665,60,0.07624158333333142,54,0.0894744999999979
38388,20.337172499999998,57,0.0766533333333328,53,0.15457516666666749
38389,20.414169416666667,54,0.07699691666666908,51,0.0775782499999984
38390,20.491747666666665,32,0.0775782499999984,51,0.15574325000000044
38391,20.569726416666665,54,0.07797874999999976,51,0.09069041666666777
38392,20.647490916666666,56,0.07776450000000068,51,0.09037541666666726
38393,20.724975750000002,57,0.07748483333333667,53,0.09013070833333359
38394,20.802250333333337,59,0.07727458333333459,55,0.08981808333333063
38395,20.879247250000002,61,0.07699691666666553,56,0.08954316666666884
38396,20.95603791666667,62,0.07679066666666756,58,0.15275658333333553
38397,21.03255291666667,63,0.07651500000000055,58,0.08905225000000172
38398,21.108794500000005,64,0.07624158333333497,60,0.15649758333333352
38399,21.18676633333334,63,0.0779718333333328,62,0.09124387499999997
38400,21.26529208333334,66,0.07852575000000073,63,0.08913000000000082
38401,21.34166958333334,64,0.07637749999999954,60,0.08954266666666655
38402,21.41839108333334,61,0.07672150000000144,58,0.09002633333333421
38403,21.495526833333344,58,0.07713575000000361,56,0.09044558333333441
38404,21.573011666666677,55,0.07748483333333311,55,0.15644149999999613
38405,21.65091900000001,52,0.07790733333333222,52,0.07853416666666391
38406,21.729453166666673,30,0.07853416666666391,64,0.1571308333333299
38407,21.808138833333338,52,0.0786856666666651,56,0.09149250000000109
38408,21.886584000000003,53,0.07844516666666479,57,0.09121320833333613
38409,21.964789250000003,54,0.07820524999999989,59,0.09093420833333354
38410,22.042756000000004,55,0.07796675000000164,60,0.09073266666666413
38411,22.120560750000003,56,0.07780474999999853,61,0.09045675000000131
38412,22.198128250000003,57,0.07756750000000068,61,0.15443249999999864
38413,22.275463750000004,58,0.07733550000000022,62,0.08990766666666516
38414,22.352560750000002,28,0.07709699999999842,66,0.1539609999999989
38415,22.429424750000003,60,0.07686400000000049,62,0.08998624999999905
38416,22.50652175,63,0.07709699999999842,61,0.0903407499999993
38417,22.583934583333335,61,0.07741283333333371,61,0.0906140416666652
38418,22.661581166666668,57,0.0776465833333333,59,0.09097470833333432
38419,22.73954791666667,56,0.07796675000000164,58,0.0912928750000006
38420,22.81775316666667,54,0.07820524999999989,57,0.09165325000000024
38421,22.89627891666667,52,0.07852575000000073,56,0.07884516666666741
38422,22.975124083333338,20,0.07884516666666741,91,0.16151599999999888
38423,23.055882083333337,49,0.08075799999999944,65,0.09421766666666898
38424,23.136640083333337,48,0.08075799999999944,65,0.09421766666666898
38425,23.217398083333336,51,0.08075799999999944,65,0.09421766666666898
38426,23.237587583333337,27,0.02018950000000075,68,0.3836005
38427,23.257777083333337,32,0.02018950000000075,68,0.36341099999999926
38428,23.27796658333334,36,0.02018950000000075,68,0.3432214999999985
38429,23.29815608333334,42,0.02018950000000075,81,0.32303199999999777
38430,23.37891408333334,44,0.08075799999999944,65,0.09421766666666542
38431,23.459672083333338,43,0.08075799999999944,67,0.09421766666666542
38432,23.540430083333337,44,0.08075799999999944,69,0.09400162500000064
38433,23.621188083333337,45,0.08075799999999944,70,0.09274124999999955
38434,23.700649833333337,44,0.07946175000000011,68,0.09306262500000173
38435,23.78039758333334,49,0.07974775000000278,72,0.09338537499999688
38436,23.860431833333337,48,0.08003424999999709,71,0.0939029999999974
38437,23.94061441666667,52,0.0801825833333325,74,0.09991387500000215
38438,24.025480750000003,51,0.08486633333333415,71,0.11001587499999843
38439,24.118838833333335,59,0.09335808333333162,74,0.12227000000000032
38440,24.222454916666667,57,0.10361608333333194,75,0.10183250000000044
38441,24.324287416666667,25,0.10183250000000044,96,0.16519800000000018
38442,24.406886416666666,51,0.08259899999999831,77,0.09589191666666963
38443,24.489485416666668,54,0.08259900000000187,78,0.09305041666666725
38444,24.569242916666667,52,0.07975749999999948,79,0.09292566666666602
38445,24.64891725,44,0.07967433333333318,79,0.09275933333333342
38446,24.72842525,48,0.07950800000000058,80,0.09293154166666895
38447,24.80793325,49,0.07950800000000058,81,0.16108249999999913
38448,24.8884745,51,0.08054124999999956,81,0.09400237499999875
38449,24.96901575,25,0.08054124999999956,98,0.16153350000000088
38450,25.0497825,54,0.08076674999999867,83,0.09389425000000173
38451,25.13054925,56,0.08076675000000222,84,0.09189250000000015
38452,25.209314250000002,58,0.07876500000000064,84,0.09185262500000135
38453,25.288079250000003,60,0.07876500000000064,85,0.09161337500000144
38454,25.366605000000003,61,0.07852575000000073,86,0.09176937500000193
38455,25.445130750000004,63,0.07852575000000073,86,0.15892350000000022
38456,25.524592500000004,64,0.07946175000000011,87,0.09271308333333295
38457,25.604054250000004,25,0.07946175000000011,93,0.15901600000000116
38458,25.683562250000005,68,0.07950800000000058,89,0.09247545833333248
38459,25.763070250000006,70,0.07950800000000058,89,0.09077220833333399
38460,25.840875000000004,72,0.07780474999999853,90,0.09073266666666768
38461,25.918679750000006,73,0.07780475000000209,91,0.09049541666666627
38462,25.996247250000007,75,0.07756750000000068,91,0.09060258333333238
38463,26.073814750000007,76,0.07756750000000068,92,0.1564210000000017
38464,26.15202525000001,78,0.07821050000000085,93,0.09129812500000156
38465,26.23023575000001,25,0.07821050000000085,96,0.15705150000000145
38466,26.30876150000001,80,0.07852575000000073,92,0.09161337499999789
38467,26.38728725000001,78,0.07852575000000073,92,0.09042274999999833
38468,26.464860500000007,76,0.07757324999999682,91,0.08994649999999993
38469,26.54195750000001,75,0.07709700000000197,90,0.09014524999999907
38470,26.619213500000008,73,0.07725599999999844,88,0.09022475000000085
38471,26.696549000000008,72,0.07733550000000022,87,0.15505766666666787
38472,26.774039166666675,73,0.07749016666666719,86,0.09077824999999962
38473,26.851606666666676,25,0.07756750000000068,92,0.15852900000000147
38474,26.930871166666677,69,0.07926450000000074,85,0.09247524999999968
38475,27.010135666666677,68,0.07926450000000074,83,0.09146129166666483
38476,27.08858900000001,67,0.07845333333333215,82,0.09105570833333232
38477,27.16663675000001,68,0.07804774999999964,79,0.09125258333333264
38478,27.24484200000001,66,0.07820524999999989,77,0.09133133333333276
38479,27.32312600000001,64,0.07828400000000002,76,0.15697091666666552
38480,27.401571166666674,63,0.07844516666666479,74,0.09161337500000144
38481,27.480096916666675,25,0.07852575000000073,77,0.15745025000000012
38482,27.558782166666678,60,0.07868525000000304,69,0.09189250000000015
38483,27.637547166666675,61,0.07876499999999709,68,0.09209291666666886
38484,27.71647250000001,59,0.07892533333333418,67,0.09217308333333563
38485,27.79547800000001,57,0.07900550000000095,66,0.09238891666666404
38486,27.874656166666675,56,0.0791781666666651,65,0.09276125000000235
38487,27.953920666666676,54,0.07926450000000074,63,0.16163699999999892
38488,28.034901166666675,52,0.08098049999999901,61,0.08065649999999991
38489,28.115557666666675,25,0.08065649999999991,67,0.1664910000000006
38490,28.198803166666675,52,0.0832455000000003,61,0.09653841666666807
38491,28.282048666666675,54,0.0832455000000003,62,0.09305041666666725
38492,28.361806166666675,56,0.07975749999999948,64,0.09305041666666725
38493,28.441563666666674,57,0.07975749999999948,66,0.09284250000000327
38494,28.521154833333345,59,0.07959116666667043,66,0.09275933333333342
38495,28.60066283333334,61,0.07950799999999703,68,0.15869133333333352
38496,28.680089666666678,63,0.07942683333333633,70,0.09268370833332895
38497,28.759354166666675,25,0.07926449999999718,76,0.16103049999999897
38498,28.839869416666676,59,0.08051525000000126,71,0.09393445833333303
38499,28.920384666666674,57,0.0805152499999977,73,0.09393445833333303
38500,29.000899916666675,56,0.08051525000000126,75,0.09247591666666821
38501,29.080248333333344,54,0.0793484166666687,75,0.09189250000000015
38502,29.15901333333334,52,0.07876499999999709,73,0.0917728750000002
38503,29.237698583333344,51,0.07868525000000304,72,0.1570514999999979
38504,29.31622433333334,54,0.07852574999999717,73,0.09186049999999923
38505,29.394750083333342,24,0.07852575000000073,89,0.16001699999999985
38506,29.474758583333344,53,0.0800085000000017,68,0.09334324999999666
38507,29.554767083333342,55,0.08000849999999815,74,0.09334325000000021
38508,29.634775583333344,54,0.0800085000000017,66,0.09342770833332992
38509,29.714784083333342,51,0.08000849999999815,72,0.09393445833333303
38510,29.795299333333343,45,0.08051525000000126,68,0.09389066666666324
38511,29.87581458333334,50,0.0805152499999977,69,0.16050500000000056
38512,29.95606708333334,51,0.08025250000000028,70,0.09358724999999879
38513,30.03631958333334,24,0.08025250000000028,81,0.16001699999999985
38514,30.116328083333343,51,0.0800085000000017,73,0.09330141666666592
38515,30.19633658333334,53,0.08000849999999815,74,0.09305041666666725
38516,30.27609408333334,54,0.07975749999999948,74,0.09292566666666602
38517,30.355768416666674,55,0.07967433333333318,75,0.09275933333333342
38518,30.435276416666674,54,0.07950800000000058,76,0.09263758333333527
38519,30.51470325000001,18,0.07942683333333633,82,0.15844266666666584
38520,30.593967750000008,56,0.07926449999999718,79,0.07917816666666866
38521,30.673145916666677,24,0.07917816666666866,98,0.160866249999998
38522,30.753912666666675,57,0.08076674999999867,81,0.09318712500000004
38523,30.834012166666675,62,0.08009949999999932,82,0.09161337500000144
38524,30.912537916666675,63,0.07852575000000073,84,0.09161337499999789
38525,30.991063666666676,64,0.07852575000000073,85,0.09161337499999789
38526,31.069589416666673,63,0.07852574999999717,86,0.0914119166666687
38527,31.14795400000001,65,0.07836458333333596,87,0.15641049999999979
38528,31.22623800000001,66,0.07828400000000002,88,0.09146124999999827
38529,31.30436450000001,24,0.07812649999999977,93,0.1589683333333305
38530,31.38437300000001,66,0.0800085000000017,91,0.09199833333332919
38531,31.46333283333334,67,0.07895983333332879,92,0.09096245833333683
38532,31.54135800000001,68,0.07802516666667003,92,0.09049133333333259
38533,31.618845416666677,71,0.07748741666666703,93,0.09217158333333231
38534,31.697628666666677,73,0.07878325000000075,94,0.09482312500000134
38535,31.778692833333345,71,0.0810641666666676,96,0.16919541666666404
38536,31.862096333333344,70,0.0834034999999993,97,0.09883924999999749
38537,31.94788825000001,23,0.08579191666666475,99,0.1565680000000036
38538,32.02617225000001,80,0.07828400000000002,95,0.09133133333333632
38539,32.10445625000001,78,0.07828400000000357,93,0.0911732499999971
38540,32.18274025000001,69,0.07828399999999647,91,0.0902247499999973
38541,32.260075750000006,78,0.07733549999999667,89,0.0902247500000044
38542,32.33741125000001,76,0.07733550000000378,87,0.09065037499999562
38543,32.414746750000006,68,0.07733549999999667,85,0.1597785000000016
38544,32.49463600000001,76,0.0798892500000008,83,0.093132875000002
38545,32.57452525000001,23,0.0798892500000008,82,0.15892350000000022
38546,32.65398700000001,66,0.07946175000000011,80,0.09249683333333536
38547,32.73344875000001,75,0.07946175000000011,78,0.09124558333333255
38548,32.811659250000005,73,0.0782104999999973,76,0.09121845833333708
38549,32.88986975000001,64,0.0782105000000044,74,0.09105570833333587
38550,32.96791750000001,73,0.07804775000000319,73,0.09105570833332877
38551,33.04596525000001,71,0.07804774999999609,71,0.15633175000000676
38552,33.12401300000001,63,0.07804775000000319,69,0.07828400000000357
38553,33.202297000000016,23,0.07828400000000357,73,0.15992941666667093
38554,33.282549500000016,69,0.08025250000000028,67,0.09276454166666781
38555,33.36222641666669,61,0.07967691666667065,65,0.09161337500000144
38556,33.440752166666684,69,0.07852574999999717,64,0.09161337500000144
38557,33.51927791666669,68,0.07852575000000428,62,0.09173299999999784
38558,33.59788341666668,59,0.07860549999999478,61,0.09189250000000015
38559,33.67664841666669,68,0.07876500000000419,60,0.1576101666666645
38560,33.755413416666684,66,0.07876499999999709,59,0.09201274999999498
38561,33.83425858333335,23,0.07884516666666741,58,0.1580109999999948
38562,33.913264083333345,66,0.07900549999999384,56,0.09217308333333563
38563,33.992269583333346,64,0.07900550000000095,55,0.09230258333333552
38564,34.07136141666668,56,0.07909183333333658,54,0.09247524999999968
38565,34.150625916666684,61,0.07926450000000074,53,0.09247524999999968
38566,34.229890416666684,59,0.07926450000000074,51,0.09259700000000493
38567,34.30923608333335,56,0.07934566666666854,51,0.15901600000000116
38568,34.38874408333336,52,0.07950800000000413,50,0.07950799999999703
38569,34.468252083333354,23,0.07950799999999703,49,0.15746399999999738
38570,34.547091583333355,52,0.07883950000000084,49,0.09169229166666071
38571,34.62571608333335,54,0.07862449999999654,50,0.09143845833333586
38572,34.70412283333335,55,0.07840674999999919,51,0.09111620833333234
38573,34.78224258333335,56,0.07811974999999904,52,0.09086808333333352
38574,34.860149916666685,57,0.07790733333333577,53,0.09062074999999936
38575,34.93784475000002,59,0.07769483333333227,53,0.15499416666666832
38576,35.015329583333354,60,0.07748483333333667,55,0.09072008333333059
38577,35.092838916666686,58,0.07750933333333165,54,0.15852900000000147
38578,35.17210341666669,59,0.07926450000000074,53,0.09212062499999973
38579,35.25136791666669,54,0.07926450000000074,53,0.08999287500000008
38580,35.32850466666669,55,0.07713675000000109,51,0.09016516666666519
38581,35.40577925000002,47,0.07727458333333459,51,0.09041074999999665
38582,35.48326408333335,55,0.07748483333332956,50,0.09058591666666871
38583,35.560889250000024,54,0.07762516666667096,48,0.15588516666666408
38584,35.63872516666669,52,0.07783591666666467,47,0.0780492499999994
38585,35.71677441666669,23,0.0780492499999994,49,0.15703124999999574
38586,35.795398916666684,52,0.07862449999999654,47,0.09143845833333586
38587,35.873805666666684,54,0.07840674999999919,48,0.09118670833333198
38588,35.95199591666668,55,0.07819024999999868,50,0.09086808333333352
38589,36.02990325000002,56,0.07790733333333577,51,0.09062074999999936
38590,36.10759808333335,57,0.07769483333333227,52,0.09037541666666726
38591,36.18508291666669,59,0.07748483333333667,53,0.15464508333332816
38592,36.262357500000014,60,0.07727458333332748,53,0.09062183333333707
38593,36.339728000000015,58,0.07737050000000067,55,0.15901600000000116
38594,36.41923600000001,59,0.07950799999999703,53,0.09236412500000313
38595,36.498744000000016,54,0.07950800000000413,53,0.09002733333333168
38596,36.57588075000002,55,0.07713675000000109,52,0.09034008333333787
38597,36.65329491666669,47,0.07741416666667078,51,0.09065558333333712
38598,36.73098975000002,55,0.07769483333333227,51,0.09093904166667244
38599,36.808897083333356,52,0.07790733333333577,50,0.15681433333332961
38600,36.887159500000024,50,0.07826241666666789,48,0.07855191666666173
38601,36.965711416666686,21,0.07855191666666173,49,0.15688649999999882
38602,37.044263333333355,50,0.07855191666666883,48,0.09136629166666665
38603,37.122597916666685,52,0.07833458333332999,50,0.09111620833333234
38604,37.200717666666684,53,0.07811974999999904,51,0.09086808333333352
38605,37.27862500000002,54,0.07790733333333577,51,0.09062074999999936
38606,37.35631983333335,55,0.07769483333333227,53,0.09037541666666726
38607,37.43380466666669,57,0.07748483333333667,53,0.1543414166666608
38608,37.511079250000016,58,0.07727458333332748,54,0.09040158333333181
38609,37.58814608333335,56,0.0770668333333333,55,0.1600170000000034
38610,37.66815458333335,57,0.08000849999999815,54,0.09282966666667392
38611,37.74816308333335,54,0.08000850000000526,53,0.08978312499999674
38612,37.82509008333335,55,0.07692699999999775,53,0.09009625000000199
38613,37.90229575000002,52,0.07720566666667139,52,0.09044558333333441
38614,37.97978058333336,53,0.07748483333333667,51,0.09076095833333397
38615,38.05754508333336,50,0.07776450000000068,50,0.1563838333333294
38616,38.13559433333336,48,0.0780492499999994,49,0.07833458333332999
38617,38.21392891666669,19,0.07833458333332999,49,0.15767566666666966
38618,38.292553416666685,48,0.07862449999999654,49,0.09226191666667205
38619,38.37160458333336,50,0.07905116666667311,50,0.09234574999999268
38620,38.45078275000002,51,0.0791781666666651,51,0.09213299999999691
38621,38.52978825000002,52,0.07900549999999384,52,0.09185262499999425
38622,38.608553250000014,53,0.07876499999999709,53,0.09161337500000144
38623,38.68707900000001,55,0.07852574999999717,53,0.15656983333333585
38624,38.765443583333344,56,0.0783645833333324,55,0.09154000000000195
38625,38.84364883333335,54,0.07820525000000345,56,0.1600170000000034
38626,38.923657333333345,55,0.08000849999999815,53,0.09301645833333794
38627,39.00366583333335,52,0.08000850000000526,54,0.09109508333333594
38628,39.081713583333354,53,0.07804775000000319,52,0.09137162499999363
38629,39.15999758333335,50,0.07828399999999647,53,0.09161337500000144
38630,39.23852333333335,51,0.07852574999999717,51,0.09181275000000255
38631,39.31720858333335,50,0.07868524999999948,51,0.1580171666666672
38632,39.39613391666668,48,0.07892533333333063,50,0.07909183333333658
38633,39.475225750000014,47,0.07909183333333658,59,0.16673149999999737
38634,39.55859150000001,48,0.08336574999999868,57,0.09726004166666513
38635,39.64195725000001,52,0.08336574999999868,63,0.09726004166667224
38636,39.72532300000002,51,0.08336575000000579,58,0.3283172499999978
38637,39.76700587500002,32,0.04168287499999934,41,0.28663437499999844
38638,39.808688750000016,49,0.04168287499999934,61,0.2449514999999991
38639,39.89033925000002,48,0.08165050000000207,59,0.09525891666666553
38640,39.97198975000001,57,0.08165049999999496,63,0.09525891666667263
38641,40.053640250000015,56,0.08165050000000207,61,0.32933016666667214
38642,40.09446550000001,32,0.04082524999999748,44,0.28850491666667466
38643,40.13529075000002,54,0.04082525000000459,61,0.24767966666667007
38644,40.21546175000002,52,0.08017099999999999,63,0.08565074999999922
38645,40.301112500000016,63,0.08565074999999922,68,0.0951848333333345
38646,40.38297041666669,61,0.08185791666667086,66,0.32380799999999965
38647,40.422951166666685,37,0.03998074999999801,40,0.28382725000000164
38648,40.46293191666668,59,0.03998074999999801,65,0.24384650000000363
38649,40.54393416666668,57,0.08100224999999739,64,0.0946425833333393
38650,40.624936416666685,56,0.0810022500000045,63,0.09548233333333656
38651,40.70677841666669,54,0.08184200000000175,63,0.33054999999999524
38652,40.747699416666684,33,0.04092099999999732,48,0.2896289999999979
38653,40.78862041666669,52,0.040921000000004426,63,0.2487079999999935
38654,40.870044916666686,51,0.08142449999999712,57,0.08565074999999922
38655,40.955695666666685,61,0.08565074999999922,61,0.09523820833333474
38656,41.03732841666668,59,0.08163274999999715,60,0.32215850000000046
38657,41.07814479166669,35,0.04081637500000568,41,0.2813421249999948
38658,41.118961166666686,57,0.04081637499999857,59,0.2405257499999962
38659,41.19872291666669,56,0.07976175000000296,58,0.09326212499999542
38660,41.278484666666685,54,0.07976174999999586,57,0.09450262499999695
38661,41.35948691666668,52,0.08100224999999739,61,0.322964000000006
38662,41.39998804166669,28,0.0405011250000058,44,0.2824628750000002
38663,41.44048916666669,51,0.040501124999998694,61,0.24196175000000153
38664,41.520166166666684,49,0.07967699999999667,58,0.08292800000000256
38665,41.603094166666686,59,0.08292800000000256,62,0.09258287499999796
38666,41.68245091666669,57,0.07935675000000231,61,0.31782033333333004
38667,41.72204170833335,33,0.03959079166666157,40,0.27822954166666847
38668,41.76159750000002,56,0.03955579166667178,60,0.2386737499999967
38669,41.84091925000002,54,0.0793217499999983,59,0.09281299999999959
38670,41.92045275000002,52,0.07953349999999659,58,0.09313337500000074
38671,42.00027125000002,51,0.07981850000000179,57,0.09338537499999688
38672,42.080305500000016,49,0.08003424999999709,64,0.32014200000000415
38673,42.160412250000014,48,0.08010674999999878,62,0.09345787499999858
38674,42.24051900000001,47,0.08010674999999878,59,0.09345787500000569
38675,42.32062575000002,46,0.08010675000000589,57,0.07982175000000069
38676,42.40044750000002,47,0.07982175000000069,64,0.319138499999994
38677,42.47976925000002,46,0.0793217499999983,61,0.09292012499999203
38678,42.55937450000001,45,0.07960524999999308,58,0.0933128750000023
38679,42.639336250000014,44,0.0799617500000025,56,0.08024975000000012
38680,42.719586000000014,46,0.08024975000000012,63,0.0925653749999995
38681,42.79890775000002,45,0.07932175000000541,60,0.09292012499999203
38682,42.87851300000001,44,0.07960524999999308,58,0.0933128750000023
38683,42.958474750000015,43,0.0799617500000025,55,0.08024975000000012
38684,43.038724500000015,45,0.08024975000000012,63,0.09232120833333113
38685,43.11783708333335,44,0.07911258333333393,60,0.0926712500000022
38686,43.19722883333335,43,0.0793917499999992,57,0.09306262499999463
38687,43.276976583333344,42,0.07974774999999568,55,0.07961458333333837
38688,43.35659116666668,44,0.07961458333333837,64,0.09230508333333631
38689,43.43564983333335,43,0.07905866666666839,62,0.09300708333334029
38690,43.51533991666669,42,0.0796900833333396,58,0.09354224999999872
38691,43.59545716666669,41,0.0801172500000007,56,0.08076866666667115
38692,43.67622583333336,43,0.08076866666667115,62,0.09332787499999995
38693,43.7562004166667,42,0.07997458333333896,59,0.09368491666666046
38694,43.83646033333336,41,0.08025991666666243,56,0.09408337499999675
38695,43.91708258333336,40,0.08062224999999756,53,0.08098666666666787
38696,43.99806925000003,42,0.08098666666666787,59,0.0930774999999997
38697,44.07782975000003,41,0.07976049999999901,57,0.09343549999999823
38698,44.157876916666694,40,0.08004716666666667,54,0.0939377916666615
38699,44.23835358333336,39,0.08047666666666231,51,0.08084091666666637
38700,44.31919450000002,42,0.08084091666666637,58,0.09368929166667073
38701,44.399530500000026,40,0.08033600000000263,55,0.09379437500000165
38702,44.47986375000003,39,0.08033325000000247,52,0.09437491666666631
38703,44.560704666666695,37,0.08084091666666637,50,0.08142775000000313
38704,44.6421324166667,36,0.08142775000000313,40,0.15885366666667267
38705,44.721640416666695,37,0.07950799999999703,42,0.09255641666667458
38706,44.80098608333337,39,0.07934566666667564,42,0.09234574999999268
38707,44.880164250000036,40,0.0791781666666651,44,0.09213299999999691
38708,44.95916975000003,42,0.07900549999999384,45,0.09185262499999425
38709,45.037934750000026,43,0.07876499999999709,46,0.09161337500000144
38710,45.116460500000024,44,0.07852574999999717,47,0.15656983333333585
38711,45.194825083333356,45,0.0783645833333324,48,0.09141600000000238
38712,45.27303033333336,16,0.07820525000000345,54,0.15852900000000147
38713,45.35229483333336,44,0.07926450000000074,49,0.09227245833333342
38714,45.43155933333336,41,0.07926450000000074,47,0.09109508333333594
38715,45.509607083333364,42,0.07804775000000319,46,0.09137162499999363
38716,45.58789108333336,39,0.07828399999999647,45,0.09161337500000144
38717,45.66641683333336,40,0.07852574999999717,44,0.09181275000000255
38718,45.74510208333336,39,0.07868524999999948,43,0.1580171666666672
38719,45.82402741666669,37,0.07892533333333063,41,0.07909183333333658
38720,45.903119250000024,18,0.07909183333333658,41,0.15785066666666125
38721,45.98212475000002,37,0.07900549999999384,41,0.09197266666667048
38722,46.060969916666686,39,0.07884516666666741,42,0.09185262500000135
38723,46.13973491666669,40,0.07876500000000419,44,0.09161337500000144
38724,46.21826066666669,42,0.07852574999999717,45,0.09149250000000109
38725,46.296705833333355,43,0.07844516666666834,47,0.09133133333333632
38726,46.37498983333336,44,0.07828400000000357,49,0.15609324999999785
38727,46.453116333333355,45,0.07812649999999621,51,0.09130150000000015
38728,46.53108308333336,16,0.07796675000000164,56,0.158709833333333
38729,46.611091583333355,44,0.08000849999999815,50,0.09170929166666753
38730,46.68979291666669,41,0.07870133333333484,48,0.09117383333333606
38731,46.76791941666669,42,0.07812650000000332,48,0.09133133333333632
38732,46.8462034166667,39,0.07828400000000357,46,0.0915327916666655
38733,46.924648583333365,40,0.07844516666666834,45,0.09173299999999784
38734,47.00325408333336,39,0.07860549999999478,45,0.15728950000000452
38735,47.082019083333364,37,0.07876500000000419,43,0.07852450000000033
38736,47.160543583333364,39,0.07852450000000033,39,0.15652366666666495
38737,47.23894750000003,40,0.07840391666666591,41,0.09111620833333234
38738,47.31706725000003,42,0.07811974999999904,42,0.09086808333333352
38739,47.394974583333365,44,0.07790733333333577,44,0.09062074999999936
38740,47.4726694166667,45,0.07769483333333227,45,0.09037541666666726
38741,47.550154250000034,51,0.07748483333333667,47,0.09048320833332468
38742,47.62742883333336,49,0.07727458333332748,45,0.15802116666666421
38743,47.70668058333336,39,0.0792517499999974,47,0.09210416666666532
38744,47.785450000000026,20,0.07876941666666681,49,0.15838166666667064
38745,47.865458500000024,39,0.08000849999999815,41,0.09129908333333958
38746,47.943831666666696,40,0.07837316666667249,43,0.09027029166666978
38747,48.02124583333337,42,0.07741416666667078,45,0.08995791666666975
38748,48.09838258333337,44,0.07713675000000109,47,0.08964591666666877
38749,48.1752414166667,51,0.07685883333333265,49,0.09008808333333462
38750,48.25205000000003,49,0.07680858333333163,47,0.15935400000000044
38751,48.33172700000003,45,0.07967699999999667,48,0.07967700000000377
38752,48.41140400000003,43,0.07967700000000377,39,0.1568106666666651
38753,48.48995225000003,44,0.07854824999999721,41,0.09129412500000456
38754,48.5682146666667,45,0.07826241666666789,42,0.09100999999999715
38755,48.6462639166667,44,0.0780492499999994,44,0.09069041666666777
38756,48.7240284166667,49,0.07776450000000068,47,0.09044608333333315
38757,48.8015839166667,48,0.07755550000000255,45,0.09048320833333179
38758,48.878858500000035,57,0.07727458333333459,54,0.15802116666666421
38759,48.95811025000003,56,0.0792517499999974,52,0.09210416666666532
38760,49.0368796666667,25,0.07876941666666681,57,0.1580506666666679
38761,49.1168881666667,52,0.08000849999999815,53,0.09082925000000586
38762,49.19493033333337,49,0.07804216666666974,51,0.08971495833333165
38763,49.2717891666667,44,0.07685883333333265,47,0.09013158333333848
38764,49.34899483333337,42,0.07720566666667139,47,0.09058591666666871
38765,49.42662000000004,40,0.07762516666667096,45,0.0912573333333313
38766,49.50459783333337,37,0.0779778333333283,44,0.15893058333333698
38767,49.58427483333337,32,0.07967699999999667,42,0.07925358333334032
38768,49.66352841666671,18,0.07925358333334032,43,0.15659699999999788
38769,49.74193516666671,37,0.07840674999999919,42,0.09122195833333535
38770,49.820125416666706,39,0.07819024999999868,42,0.0910457083333327
38771,49.898174666666705,40,0.0780492499999994,44,0.09086808333333352
38772,49.97608200000004,42,0.07790733333333577,45,0.09069041666666777
38773,50.05384650000004,43,0.07776450000000068,46,0.09048141666666965
38774,50.131402000000044,44,0.07755550000000255,47,0.15468874999999827
38775,50.208816166666715,45,0.07741416666667078,48,0.09048533333332642
38776,50.28609075000004,16,0.07727458333332748,56,0.15852900000000147
38777,50.36535525000004,44,0.07926450000000074,49,0.09227245833333342
38778,50.444619750000044,41,0.07926450000000074,47,0.09046883333333255
38779,50.522198000000046,42,0.07757825000000196,46,0.0904455833333273
38780,50.599682833333375,39,0.07748483333332956,45,0.09076095833333397
38781,50.677447333333376,40,0.07776450000000068,44,0.09108095833333607
38782,50.755496583333375,39,0.0780492499999994,43,0.15722683333333265
38783,50.833831166666705,37,0.07833458333332999,41,0.07889225000000266
38784,50.91272341666671,18,0.07889225000000266,48,0.15710383333333056
38785,50.991347916666705,37,0.07862449999999654,49,0.09154712500000528
38786,51.06982725000004,39,0.07847933333333401,50,0.09136629166667376
38787,51.148161833333376,40,0.0783345833333371,52,0.09111620833333234
38788,51.226281583333375,42,0.07811974999999904,54,0.09093949999999751
38789,51.304260333333374,43,0.07797874999999976,56,0.09072524999999843
38790,51.382024833333375,44,0.07776450000000068,58,0.15519308333333726
38791,51.459650000000046,45,0.07762516666667096,60,0.0909026666666648
38792,51.53721791666671,16,0.07756791666666629,63,0.15847508333333593
38793,51.61722641666671,44,0.08000849999999815,59,0.09135716666666838
38794,51.69569300000005,41,0.07846658333333778,57,0.09026941666666488
38795,51.773036500000046,42,0.07734349999999779,57,0.09048141666666965
38796,51.85059200000005,39,0.07755550000000255,55,0.09065558333333712
38797,51.92828683333338,40,0.07769483333333227,53,0.09083237500000507
38798,52.00612275000005,39,0.07783591666667178,53,0.15684737499999812
38799,52.08417200000005,37,0.0780492499999994,51,0.07879812499999872
38800,52.16297012500005,33,0.07879812499999872,57,0.31449479166666805
38801,52.24180137500005,40,0.07883125000000035,53,0.09176304166666682
38802,52.320460333333386,42,0.07865895833333525,55,0.09165875000000057
38803,52.39904991666672,43,0.07858958333333277,56,0.09148416666666748
38804,52.47746491666672,45,0.07841499999999968,58,0.09148416666666748
38805,52.55587991666672,47,0.07841499999999968,60,0.09148416666666748
38806,52.63429491666672,49,0.07841499999999968,62,0.09148416666666748
38807,52.71270991666672,50,0.07841499999999968,63,0.09176612499999948
38808,52.79112491666672,52,0.07841499999999968,66,0.32042700000000224
38809,52.871231666666716,54,0.08010674999999878,68,0.09345787499999858
38810,52.951338416666715,55,0.08010674999999878,70,0.09345787500000569
38811,53.03144516666672,57,0.08010675000000589,72,0.09345787499999858
38812,53.11155191666672,59,0.08010674999999878,73,0.32042699999999513
38813,53.19165866666672,61,0.08010674999999878,76,0.09345787499999858
38814,53.27176541666672,62,0.08010674999999878,77,0.09345787499999858
38815,53.351872166666716,64,0.08010674999999878,80,0.09345787499999858
38816,53.431978916666715,67,0.08010674999999878,81,0.6408540000000045
38817,53.51208566666672,66,0.08010675000000589,78,0.09345787499999858
38818,53.59219241666672,62,0.08010674999999878,78,0.09345787499999858
38819,53.67229916666672,59,0.08010674999999878,77,0.09345787499999858
38820,53.75240591666672,57,0.08010674999999878,74,0.09345787499999858
38821,53.832512666666716,54,0.08010674999999878,72,0.09345787499999858
38822,53.912619416666715,50,0.08010674999999878,72,0.09345787500000569
38823,53.99272616666672,47,0.08010675000000589,70,0.09345787499999858
38824,54.07283291666672,45,0.08010674999999878,68,0.09345787499999858
38825,54.15293966666672,42,0.08010674999999878,64,0.09345787499999858
38826,54.23304641666672,38,0.08010674999999878,61,0.09345787499999858
38827,54.313153166666716,35,0.08010674999999878,61,0.09345787499999858
38828,54.393259916666715,33,0.08010674999999878,59,0.09345787500000569
38829,54.47336666666672,30,0.08010675000000589,59,0.09345787499999858
38830,54.55347341666672,26,0.08010674999999878,57,0.09345787499999858
38831,54.63358016666672,23,0.08010674999999878,56,0.07946899999999602
38832,54.713049166666714,19,0.07946899999999602,62,0.09295649999999966
38833,54.79272616666671,20,0.07967699999999667,63,0.09295650000000677
38834,54.872403166666714,25,0.07967700000000377,64,0.09295649999999966
38835,54.95208016666671,24,0.07967699999999667,64,0.09284887500000139
38836,55.03168541666672,21,0.07960525000000729,65,0.0927053749999942
38837,55.11114716666672,20,0.07946175000000011,65,0.0927053749999942
38838,55.19060891666672,28,0.07946175000000011,65,0.0927053749999942
38839,55.27007066666672,27,0.07946175000000011,65,0.0925303749999955
38840,55.34939241666672,25,0.0793217499999983,67,0.0924603749999946
38841,55.428644166666714,24,0.0792517499999974,67,0.0924603750000017
38842,55.50789591666671,33,0.0792517499999974,69,0.09242558333333761
38843,55.587147666666716,32,0.0792517500000045,70,0.09221683333333175
38844,55.666190666666715,28,0.07904299999999864,70,0.09221683333333175
38845,55.745233666666714,27,0.07904299999999864,70,0.09221683333333885
38846,55.82427666666672,37,0.07904300000000575,71,0.09211095833332905
38847,55.903249083333385,36,0.07897241666666588,71,0.09189904166666452
38848,55.982080333333386,33,0.07883125000000035,71,0.09147454166666336
38849,56.060487083333385,32,0.07840674999999919,72,0.09147454166667046
38850,56.138893833333384,40,0.07840674999999919,72,0.09136629166667376
38851,56.21722841666672,39,0.0783345833333371,72,0.09122195833333535
38852,56.29541866666672,37,0.07819024999999868,73,0.09118670833333198
38853,56.37360891666672,36,0.07819024999999868,73,0.09097520833333306
38854,56.45158766666672,45,0.07797874999999976,73,0.09097520833333306
38855,56.52956641666672,44,0.07797874999999976,74,0.09079666666666952
38856,56.60740233333338,40,0.07783591666666467,74,0.09072524999999843
38857,56.68516683333338,39,0.07776450000000068,75,0.09069041666666777
38858,56.762931333333384,49,0.07776450000000068,75,0.09048141666666965
38859,56.84048683333339,48,0.07755550000000255,75,0.09048141666666254
38860,56.91804233333338,45,0.07755549999999545,76,0.09030475000000138
38861,56.99545650000005,44,0.07741416666667078,76,0.09023408333332839
38862,57.07280000000005,52,0.07734349999999779,76,0.09013070833332648
38863,57.15007458333338,51,0.07727458333332748,77,0.07713675000000109
38864,57.22721133333338,49,0.07713675000000109,77,0.08999287500000008
38865,57.30434808333338,48,0.07713675000000109,77,0.08981808333333419
38866,57.381345000000046,57,0.07699691666666553,78,0.0897481666666664
38867,57.45827200000004,56,0.07692699999999775,78,0.08964591666666877
38868,57.535130833333376,52,0.07685883333333265,79,0.08950958333333148
38869,57.61185333333338,51,0.07672250000000247,79,0.0894750000000002
38870,57.68857583333338,61,0.07672250000000247,79,0.08926749999999828
38871,57.76509083333338,60,0.07651500000000055,80,0.08926749999999828
38872,57.84160583333338,57,0.07651500000000055,80,0.08916437499999574
38873,57.91805208333338,56,0.0764462499999965,80,0.08902687500000184
38874,57.99436083333338,64,0.07630875000000259,81,0.08899329166666092
38875,58.07066958333338,63,0.07630874999999548,81,0.08879179166666518
38876,58.14677683333338,61,0.07610724999999974,81,0.08879179166666518
38877,58.222884083333376,60,0.07610724999999974,82,0.08862179166666095
38878,58.29885533333337,69,0.07597124999999494,82,0.08855379166666921
38879,58.374758583333374,68,0.0759032500000032,82,0.08845416666666495
38880,58.45059541666671,64,0.07583683333333369,83,0.08852137499999202
38881,58.526432250000035,63,0.07583683333332658,83,0.08892691666666508
38882,58.6026066666667,73,0.07617441666666736,84,0.08937124999999924
38883,58.679190833333365,72,0.07658416666666312,84,0.08978487499999233
38884,58.75611958333336,69,0.07692874999999333,84,0.09027116666667467
38885,58.833464833333366,68,0.07734525000000758,85,0.09069129166666556
38886,58.9111596666667,76,0.07769483333333227,85,0.09118754166666321
38887,58.9892794166667,75,0.07811974999999904,85,0.09262295833333667
38888,59.067831333333366,80,0.07855191666666883,93,0.09849729166666776
38889,59.405536333333366,56,0.3377049999999997,100,0.08442624999999992
38890,59.662842583333365,13,0.2573062499999992,91,0.0977579999999989
38891,59.760600583333364,61,0.0977579999999989,113,0.34356400000000065
38892,0.0,16,0.0,30,0.3429878333333334
38893,0.3429878333333334,44,0.3429878333333334,26,0.32096274999999996
38894,0.6639505833333333,35,0.32096274999999996,26,0.29999999999999993
38895,0.9639505833333333,44,0.29999999999999993,26,0.30000000000000004
38896,1.2639505833333333,40,0.30000000000000004,26,0.30927825
38897,1.5732288333333333,32,0.30927825,26,0.30927825
38898,1.8825070833333333,28,0.30927825,30,0.31917308333333305
38899,2.2016801666666663,44,0.31917308333333305,26,0.3093002499999997
38900,2.510980416666666,35,0.3093002499999997,26,0.30303024999999995
38901,2.814010666666666,44,0.30303024999999995,25,0.3051567916666671
38902,3.119167458333333,40,0.3051567916666671,28,0.31417833333333345
38903,3.4333457916666665,32,0.31417833333333345,25,0.33801966666666683
38904,3.7713654583333334,56,0.33801966666666683,55,1.8366797916666666
38905,4.1035185,44,0.3321530416666665,26,0.31640774999999977
38906,4.41992625,35,0.31640774999999977,26,0.2970297500000001
38907,4.716956,44,0.2970297500000001,26,0.2970297500000001
38908,5.01398575,40,0.2970297500000001,26,0.2970297500000001
38909,5.3110155,32,0.2970297500000001,26,0.2970297500000001
38910,5.60804525,54,0.2970297500000001,55,0.6185565000000004
38911,5.9173235,44,0.3092782500000002,26,0.3092782500000002
38912,6.22660175,52,0.3092782500000002,55,0.9541677499999999
38913,6.545750750000001,44,0.31914900000000035,26,0.31914899999999946
38914,6.86489975,40,0.31914899999999946,26,0.31586975000000006
38915,7.1807695,44,0.31586975000000006,50,0.33757637500000026
38916,7.5183458750000005,47,0.33757637500000026,55,2.443974916666666
38917,7.849955708333334,44,0.33160983333333327,28,0.31200858333333326
38918,8.161964291666667,35,0.31200858333333326,28,0.29411774999999984
38919,8.456082041666667,44,0.29411774999999984,27,0.29411774999999984
38920,8.750199791666667,40,0.29411774999999984,27,0.30303025000000083
38921,9.053230041666668,32,0.30303025000000083,27,0.30303024999999906
38922,9.356260291666667,28,0.30303024999999906,31,0.30303025000000083
38923,9.659290541666667,44,0.30303025000000083,27,0.30303024999999906
38924,9.962320791666667,52,0.30303024999999906,58,0.5999999999999996
38925,10.262320791666667,44,0.3000000000000007,28,0.29999999999999893
38926,10.562320791666666,56,0.29999999999999893,61,0.6357699166666677
38927,10.870107541666666,32,0.30778675,30,0.3279831666666677
38928,11.198090708333334,61,0.3279831666666677,68,2.11672025
38929,11.507752208333335,44,0.3096615000000007,29,0.3096614999999989
38930,11.817413708333333,35,0.3096614999999989,28,0.2970297500000001
38931,12.114443458333334,44,0.2970297500000001,28,0.2970297500000001
38932,12.411473208333334,40,0.2970297500000001,28,0.2970297500000001
38933,12.708502958333334,32,0.2970297500000001,27,0.2970297500000001
38934,13.005532708333334,28,0.2970297500000001,30,0.3092782500000002
38935,13.314810958333334,59,0.3092782500000002,50,0.31545750000000083
38936,13.630268458333335,55,0.31545750000000083,56,0.30612250000000074
38937,13.936390958333336,56,0.30612250000000074,50,0.30612249999999896
38938,14.242513458333335,51,0.30612249999999896,55,0.31650074999999944
38939,14.559014208333334,52,0.31650074999999944,50,0.33060091666666835
38940,14.889615125000002,48,0.33060091666666835,63,3.626438249999996
38941,15.214571458333335,45,0.32495633333333274,26,0.3114596666666678
38942,15.526031125000003,36,0.3114596666666678,26,0.2970297500000001
38943,15.823060875000003,45,0.2970297500000001,26,0.2970297500000001
38944,16.120090625000003,42,0.2970297500000001,26,0.2970297500000001
38945,16.417120375000003,33,0.2970297500000001,26,0.2970297500000001
38946,16.714150125000003,28,0.2970297500000001,30,0.28846150000000037
38947,17.002611625000004,45,0.28846150000000037,26,0.28846150000000037
38948,17.291073125000004,36,0.28846150000000037,26,0.3000000000000007
38949,17.591073125000005,45,0.3000000000000007,25,0.3000000000000007
38950,17.891073125000005,42,0.3000000000000007,28,0.3051232499999941
38951,18.196196375,36,0.3051232499999941,25,0.31985699999999895
38952,18.516053375,49,0.31985699999999895,58,1.8631977500000012
38953,18.84220458333333,45,0.3261512083333322,26,0.3125565416666696
38954,19.154761125,37,0.3125565416666696,26,0.30612250000000074
38955,19.460883625,45,0.30612250000000074,26,0.30612250000000074
38956,19.767006125,42,0.30612250000000074,26,0.3061224999999972
38957,20.073128625,33,0.3061224999999972,26,0.30612250000000074
38958,20.379251125,28,0.30612250000000074,30,0.3225807500000002
38959,20.701831875,63,0.3225807500000002,56,0.308080750000002
38960,21.009912625000002,61,0.308080750000002,58,0.3108891249999992
38961,21.32080175,56,0.3108891249999992,52,0.31746925000000203
38962,21.638271000000003,59,0.31746925000000203,56,0.32433387500000066
38963,21.962604875000004,57,0.32433387500000066,51,0.33275025000000014
38964,22.295355125000004,56,0.33275025000000014,57,1.2526659166666718
38965,22.624467583333338,45,0.32911245833333425,26,0.3174929583333359
38966,22.941960541666674,36,0.3174929583333359,25,0.30303024999999906
38967,23.244990791666673,45,0.30303024999999906,24,0.3030302500000026
38968,23.548021041666676,54,0.3030302500000026,58,0.9090907499999972
38969,23.851051291666675,33,0.30303024999999906,23,0.30303024999999906
38970,24.154081541666674,25,0.30303024999999906,31,0.30303024999999906
38971,24.457111791666673,56,0.30303024999999906,52,0.3030302500000026
38972,24.532869354166674,54,0.07575756250000154,52,0.07575756249999799
38973,24.608626916666672,53,0.07575756249999799,52,0.07575756250000154
38974,24.684384479166674,54,0.07575756250000154,52,0.07575756250000154
38975,24.760142041666676,56,0.07575756250000154,61,0.6309150000000017
38976,25.075599541666676,45,0.31545750000000083,30,0.31545750000000083
38977,25.391057041666677,57,0.31545750000000083,69,0.4914319583333331
38978,25.712019791666677,33,0.32096274999999963,34,0.3476732499999997
38979,25.88248900000001,57,0.17046920833333346,57,0.17720404166666626
38980,26.059693041666677,69,0.17720404166666626,79,1.228045999999999
38981,26.369354541666677,45,0.3096615000000007,28,0.3096615000000007
38982,26.679016041666678,36,0.3096615000000007,27,0.30966149999999715
38983,26.988677541666675,45,0.30966149999999715,25,0.29906150000000054
38984,27.143508291666677,66,0.15483075000000213,56,0.1442307499999984
38985,27.287739041666676,64,0.1442307499999984,55,0.28846150000000037
38986,27.431969791666678,60,0.14423075000000196,54,0.1442307499999984
38987,27.576200541666676,57,0.1442307499999984,52,0.28846150000000037
38988,27.720431291666678,54,0.14423075000000196,49,0.1442307499999984
38989,27.864662041666676,51,0.1442307499999984,53,0.30303024999999906
38990,28.167692291666675,52,0.30303024999999906,54,0.31545750000000083
38991,28.483149791666676,53,0.31545750000000083,55,0.31545750000000083
38992,28.798607291666677,54,0.31545750000000083,56,0.3154574999999973
38993,29.114064791666674,56,0.3154574999999973,57,0.31650074999999944
38994,29.430565541666674,57,0.31650074999999944,58,0.33060091666666125
38995,29.761166458333335,58,0.33060091666666125,69,1.4025446250000009
38996,30.070827958333336,43,0.3096615000000007,29,0.15483074999999857
38997,30.380489458333336,34,0.3096615000000007,28,0.30966149999999715
38998,30.690150958333334,43,0.30966149999999715,28,0.15483075000000213
38999,30.999812458333334,37,0.3096615000000007,28,0.3277972499999997
39000,31.163711083333336,59,0.16389862500000163,54,0.16389862499999808
39001,31.327609708333334,61,0.16389862499999808,59,0.3277972499999997
39002,31.491508333333336,59,0.16389862500000163,50,0.16389862499999808
39003,31.655406958333334,56,0.16389862499999808,56,2.5536437500000027
39004,31.983204208333333,44,0.3277972499999997,23,0.31545750000000083
39005,32.298661708333334,35,0.31545750000000083,23,0.31545750000000083
39006,32.614119208333335,44,0.31545750000000083,23,0.31545750000000083
39007,32.929576708333336,40,0.31545750000000083,24,0.316500750000003
39008,33.24607745833334,32,0.316500750000003,25,0.3246752499999985
39009,33.57075270833334,52,0.3246752499999985,53,0.6382979999999989
39010,33.88990170833334,44,0.319149000000003,28,0.3191489999999959
39011,34.209050708333336,57,0.3191489999999959,65,0.882520999999997
39012,34.50608045833334,44,0.2970297500000001,27,0.2970297500000001
39013,34.80311020833334,40,0.2970297500000001,26,0.2884614999999968
39014,35.09157170833333,52,0.2884614999999968,60,0.319149000000003
39015,35.410720708333336,54,0.319149000000003,65,0.5882355000000032
39016,35.704838458333334,44,0.29411774999999807,28,0.2941177500000052
39017,35.99895620833334,56,0.2941177500000052,62,0.6060604999999981
39018,36.30198645833334,44,0.30303024999999906,28,0.30303024999999906
39019,36.60501670833334,51,0.30303024999999906,61,0.6411760000000015
39020,36.92151745833334,32,0.316500750000003,27,0.3246752499999985
39021,37.24619270833334,54,0.3246752499999985,65,0.6193230000000014
39022,37.555854208333336,44,0.30966149999999715,28,0.30966150000000425
39023,37.86551570833334,52,0.30966150000000425,59,0.2970297500000001
39024,38.16254545833334,44,0.2970297500000001,27,0.3133499999999998
39025,38.31106033333334,61,0.1485148749999965,64,0.1648351250000033
39026,38.47589545833334,61,0.1648351250000033,66,0.2985937499999949
39027,38.67296375,59,0.1970682916666604,65,0.20570341666666536
39028,38.774489208333335,32,0.10152545833333448,26,0.3147042916666649
39029,38.878667166666666,57,0.10417795833333088,64,0.21052633333333404
39030,39.0891935,56,0.21052633333333404,63,1.2218499999999963
39031,39.404983,44,0.31578950000000106,28,0.29999999999999716
39032,39.704983,48,0.29999999999999716,52,0.30303024999999906
39033,39.90700316666666,49,0.20202016666666367,54,0.20202016666667078
39034,40.00801325,44,0.10101008333333539,26,0.30303024999999906
39035,40.10902333333333,50,0.10101008333333539,56,0.20202016666666367
39036,40.3110435,56,0.20202016666666367,58,0.316500750000003
39037,40.520886624999996,56,0.20984312499999902,60,0.10665762500000397
39038,40.62754425,36,0.10665762500000397,30,0.3246752499999985
39039,40.73576933333333,56,0.10822508333333047,62,0.10822508333333758
39040,40.9522195,56,0.21645016666666805,63,0.6382979999999989
39041,41.2713685,44,0.319149000000003,28,0.3191489999999959
39042,41.5905175,57,0.3191489999999959,65,0.882520999999997
39043,41.88754725,44,0.2970297500000001,27,0.2970297500000001
39044,42.184577,40,0.2970297500000001,26,0.2884614999999968
39045,42.473038499999994,52,0.2884614999999968,60,0.319149000000003
39046,42.7921875,52,0.319149000000003,58,0.29411774999999807
39047,42.902481656249996,56,0.11029415624999928,65,0.3308824687499978
39048,43.086305249999995,44,0.1838235937499988,28,0.2941177500000052
39049,43.233364124999994,54,0.14705887499999903,58,0.3490790416666698
39050,43.306893562499994,56,0.07352943749999952,53,0.07352943750000662
39051,43.380423,54,0.07352943750000662,62,0.30303024999999906
39052,43.582443166666664,52,0.20202016666666367,55,0.20202016666667078
39053,43.68345325,44,0.10101008333333539,28,0.30303024999999906
39054,43.784463333333335,54,0.10101008333333539,55,0.20202016666666367
39055,43.9864835,56,0.20202016666666367,61,0.316500750000003
39056,44.30298425,32,0.316500750000003,27,0.3246752499999985
39057,44.465321875,51,0.16233762499999926,61,0.16233762499999926
39058,44.6276595,54,0.16233762499999926,65,0.6193230000000014
39059,44.937321,44,0.30966149999999715,28,0.30966150000000425
39060,45.2469825,52,0.30966150000000425,59,0.2970297500000001
39061,45.54401225,44,0.2970297500000001,27,0.2970297500000001
39062,45.841042,61,0.2970297500000001,66,0.8684582500000033
39063,46.13807175,32,0.2970297500000001,26,0.28571424999999806
39064,46.423786,53,0.28571424999999806,66,0.28571425000000517
39065,46.709500250000005,62,0.28571425000000517,62,0.2884614999999968
39066,46.99796175,61,0.2884614999999968,62,0.30303024999999906
39067,47.199981916666665,60,0.20202016666666367,58,0.20202016666667078
39068,47.300992,47,0.10101008333333539,28,0.30303024999999906
39069,47.402002083333336,61,0.10101008333333539,67,0.20202016666666367
39070,47.60402225,68,0.20202016666666367,70,0.316500750000003
39071,47.920523,32,0.316500750000003,32,0.3246752499999985
39072,48.082860625,61,0.16233762499999926,67,0.2155291249999962
39073,48.24519825,61,0.16233762499999926,68,0.6382979999999989
39074,48.564347250000004,45,0.319149000000003,31,0.3191489999999959
39075,48.88349625,62,0.3191489999999959,66,0.5940595000000002
39076,49.180526,45,0.2970297500000001,29,0.2970297500000001
39077,49.47755575,57,0.2970297500000001,64,0.6076104999999998
39078,49.76601725,33,0.2884614999999968,29,0.319149000000003
39079,50.08516625,61,0.319149000000003,64,0.29411774999999807
39080,50.28124475,59,0.1960784999999987,61,0.1960784999999987
39081,50.379284,47,0.09803924999999936,30,0.2941177500000052
39082,50.47732325,61,0.09803924999999936,61,0.19607850000000582
39083,50.673401750000004,59,0.19607850000000582,65,0.30303024999999906
39084,50.87542191666667,57,0.20202016666666367,61,0.20202016666667078
39085,50.976432,47,0.10101008333333539,30,0.30303024999999906
39086,51.07744208333334,59,0.10101008333333539,61,0.20202016666666367
39087,51.27946225,61,0.20202016666666367,65,0.316500750000003
39088,51.595963000000005,32,0.316500750000003,30,0.3246752499999985
39089,51.758300625000004,56,0.16233762499999926,60,0.16233762499999926
39090,51.92063825,59,0.16233762499999926,66,0.6193230000000014
39091,52.23029975,45,0.30966149999999715,31,0.30966150000000425
39092,52.539961250000005,57,0.30966150000000425,60,0.2970297500000001
39093,52.836991000000005,45,0.2970297500000001,31,0.31518149999999423
39094,52.985505875,66,0.1485148749999965,63,0.16666662499999774
39095,53.1521725,66,0.16666662499999774,68,0.30317470833333005
39096,53.35171749999999,64,0.19954499999999342,67,0.21001270833333763
39097,53.45534720833333,33,0.10362970833333662,29,0.319149000000003
39098,53.56173020833333,62,0.106383000000001,65,0.212766000000002
39099,53.77449620833333,61,0.212766000000002,59,0.3191489999999959
39100,53.98726220833333,61,0.2127659999999949,59,0.106383000000001
39101,54.09364520833333,47,0.106383000000001,30,0.29999999999999716
39102,54.19364520833333,61,0.10000000000000142,59,0.10000000000000142
39103,54.393645208333325,61,0.19999999999999574,60,0.30000000000000426
39104,54.59364520833333,61,0.20000000000000284,61,0.10000000000000142
39105,54.69364520833333,47,0.10000000000000142,34,0.3010204166666668
39106,54.79364520833333,61,0.10000000000000142,62,0.09999999999999432
39107,54.994665624999996,61,0.20102041666666537,64,0.3175640833333304
39108,55.20411841666666,61,0.20945279166666353,65,0.10811129166666689
39109,55.31222970833333,32,0.10811129166666689,37,0.33910933333333304
39110,55.42273029166666,61,0.11050058333333368,66,0.11299795833333093
39111,55.65133904166666,61,0.22860874999999936,54,0.319149000000003
39112,55.90665824166666,62,0.2553192000000024,57,0.2553191999999953
39113,55.97048804166666,45,0.0638298000000006,28,0.3191489999999959
39114,56.16197744166666,61,0.1914893999999947,60,0.2464714999999984
39115,56.28963704166666,37,0.1276596000000012,28,0.2970297500000001
39116,56.408448941666656,59,0.1188118999999972,63,0.2376238000000015
39117,56.58666679166666,45,0.1782178500000029,27,0.2970297500000001
39118,56.64607274166666,61,0.0594059499999986,65,0.2376238000000015
39119,56.88369654166666,62,0.2376238000000015,69,0.2884614999999968
39120,57.172158041666655,33,0.2884614999999968,26,0.319149000000003
39121,57.33173254166665,57,0.15957449999999795,66,0.13297874999999948
39122,57.49130704166666,57,0.15957450000000506,63,0.3092782499999984
39123,57.64594616666666,61,0.15463912500000276,70,0.15463912499999566
39124,57.80058529166666,47,0.15463912499999566,28,0.3092782499999984
39125,57.95522441666666,59,0.15463912500000276,64,0.15463912499999566
39126,58.109863541666655,59,0.15463912499999566,62,0.3419739166666673
39127,58.17010449999999,61,0.06024095833333121,55,0.06024095833333831
39128,58.230345458333325,56,0.06024095833333831,61,0.12048191666666241
39129,58.35082737499999,57,0.12048191666666241,63,0.20202016666666367
39130,58.45183745833332,47,0.10101008333333539,28,0.30303024999999906
39131,58.653857624999986,59,0.20202016666666367,64,0.07575756250000154
39132,58.75486770833332,59,0.10101008333333539,65,0.316500750000003
39133,58.96471083333332,61,0.20984312499999902,67,0.10665762500000397
39134,59.071368458333325,32,0.10665762500000397,27,0.3246752499999985
39135,59.28781862499999,56,0.21645016666666805,65,0.08116881249999608
39136,59.39604370833332,56,0.10822508333333047,59,0.3213057500000005
39137,59.56271033333332,59,0.16666662499999774,62,0.3092782499999984
39138,59.717349458333324,45,0.15463912500000276,34,0.3092782499999984
39139,60.02662770833332,37,0.3092782499999984,34,0.2970297500000001
39140,60.32365745833332,45,0.2970297500000001,34,0.2970297500000001
39141,60.62068720833332,57,0.2970297500000001,73,1.2363481666666658
39142,60.91771695833332,33,0.2970297500000001,34,0.319149000000003
39143,61.236865958333325,24,0.319149000000003,64,1.8136542499999848
39144,61.55601495833332,40,0.3191489999999959,40,0.3010204166666668
39145,61.85703537499999,57,0.3010204166666668,73,0.29516670833333336
39146,62.15220208333332,40,0.29516670833333336,44,0.29411774999999807
39147,62.44631983333332,57,0.29411774999999807,76,0.2932221249999927
39148,62.73954195833331,24,0.2932221249999927,48,0.310978249999998
39149,63.05052020833331,57,0.310978249999998,78,0.9098490000000012
39150,63.36630970833331,39,0.31578950000000106,47,0.2970297500000001
39151,63.66333945833331,30,0.2970297500000001,47,0.2970297500000001
39152,63.96036920833331,60,0.2970297500000001,74,0.3296702499999995
39153,64.29003945833331,59,0.3296702499999995,76,1.2341569999999962
39154,64.59616195833331,30,0.30612250000000074,46,0.30612250000000074
39155,64.90228445833331,24,0.30612250000000074,67,1.9439689583333575
39156,65.20840695833331,36,0.30612250000000074,51,0.31578949999999395
39157,65.52419645833331,57,0.31578949999999395,72,0.6413546666666861
39158,65.83998595833332,36,0.31578950000000816,51,0.3255651666666779
39159,66.165551125,52,0.3255651666666779,70,0.6807022916666767
39160,66.5013955,30,0.33584437500000774,51,0.344857916666669
39161,66.84625341666667,51,0.344857916666669,66,1.2193746250000004
39162,67.15506579166667,35,0.30881237500000225,32,0.3035207500000041
39163,67.45858654166668,30,0.3035207500000041,30,0.3035207500000041
39164,67.76210729166668,35,0.3035207500000041,28,0.3035207499999899
39165,68.06562804166667,47,0.3035207499999899,52,0.627494750000011
39166,68.36914879166667,30,0.3035207500000041,25,0.32397400000000687
39167,68.69312279166668,48,0.32397400000000687,57,0.3035207500000041
39168,68.89546995833335,50,0.2023471666666694,50,0.2023471666666694
39169,68.99664354166669,43,0.1011735833333347,27,0.3035207499999899
39170,69.09781712500002,48,0.1011735833333347,52,0.2023471666666552
39171,69.30016429166668,47,0.2023471666666552,51,0.29726524999999526
39172,69.59742954166667,48,0.29726524999999526,51,0.31507108333333633
39173,69.912500625,55,0.31507108333333633,57,0.486370375000007
39174,70.23122066666667,28,0.31872004166666557,28,0.339275083333348
39175,70.39887100000001,54,0.16765033333334145,53,0.17162475000000654
39176,70.57049575000002,54,0.17162475000000654,57,0.6226807500000007
39177,70.90191425000002,42,0.33141849999999806,30,0.2912622500000026
39178,71.19317650000002,33,0.2912622500000026,32,0.3035207500000041
39179,71.49669725000003,60,0.3035207500000041,73,0.32029974999998956
39180,71.81699700000001,59,0.32029974999998956,70,1.231015499999998
39181,72.11699700000001,33,0.29999999999999716,43,0.32397400000000687
39182,72.44097100000002,24,0.32397400000000687,49,0.3035207500000041
39183,72.74449175000002,40,0.3035207500000041,40,0.3035207499999899
39184,73.04801250000001,59,0.3035207499999899,65,0.320375999999996
39185,73.20820050000002,57,0.1601880000000051,64,0.1601879999999909
39186,73.36838850000001,59,0.1601879999999909,63,0.3203760000000102
39187,73.52857650000001,57,0.1601880000000051,62,0.1601880000000051
39188,73.68876450000002,55,0.1601880000000051,62,0.31488070000001755
39189,73.8443956666667,54,0.1556311666666801,61,0.15924953333333747
39190,74.00364520000004,55,0.15924953333333747,60,0.3265779166666647
39191,74.16551773333336,54,0.16187253333332308,59,0.16470538333334162
39192,74.3302231166667,51,0.16470538333334162,66,0.30881237500000225
39193,74.6390354916667,35,0.30881237500000225,32,0.3035207500000041
39194,74.94255624166671,30,0.3035207500000041,30,0.3035207500000041
39195,75.24607699166671,35,0.3035207500000041,28,0.3035207499999899
39196,75.5495977416667,33,0.3035207499999899,23,0.3035207500000041
39197,75.8531184916667,47,0.3035207500000041,46,0.32397400000000687
39198,76.17709249166671,48,0.32397400000000687,51,0.3035207500000041
39199,76.37943965833338,50,0.2023471666666694,45,0.2023471666666694
39200,76.48061324166672,43,0.1011735833333347,23,0.3035207499999899
39201,76.58178682500005,48,0.1011735833333347,46,0.2023471666666552
39202,76.7841339916667,47,0.2023471666666552,45,0.29726524999999526
39203,77.0813992416667,48,0.29726524999999526,45,0.31507108333333633
39204,77.23448332500004,48,0.15308408333334,46,0.16198699999999633
39205,77.39647032500004,55,0.16198699999999633,52,0.31872004166666557
39206,77.7151903666667,28,0.31872004166666557,24,0.339275083333348
39207,77.88284070000005,54,0.16765033333334145,49,0.17162475000000654
39208,78.05446545000005,54,0.17162475000000654,54,0.6226807500000007
39209,78.38588395000005,42,0.33141849999999806,24,0.2912622500000026
39210,78.67714620000005,33,0.2912622500000026,24,0.3035207500000041
39211,78.98066695000006,42,0.3035207500000041,24,0.32029974999998956
39212,79.30096670000005,36,0.32029974999998956,24,0.29999999999999716
39213,79.60096670000004,33,0.29999999999999716,24,0.32397400000000687
39214,79.92494070000005,54,0.32397400000000687,51,3.726016866666683
39215,80.22846145000005,42,0.3035207500000041,24,0.3035207499999899
39216,80.53198220000004,33,0.3035207499999899,24,0.3035207500000041
39217,80.83550295000005,42,0.3035207500000041,24,0.3035207500000041
39218,81.13902370000005,36,0.3035207500000041,24,0.31488070000001755
39219,81.45390440000007,33,0.31488070000001755,24,0.3265779166666647
39220,81.78048231666673,26,0.3265779166666647,31,0.33141849999999806
39221,82.11190081666673,42,0.33141849999999806,24,0.2912622500000026
39222,82.40316306666674,32,0.2912622500000026,24,0.3035207500000041
39223,82.70668381666674,42,0.3035207500000041,24,0.32029974999998956
39224,83.02698356666673,35,0.32029974999998956,24,0.29999999999999716
39225,83.32698356666673,32,0.29999999999999716,24,0.627494750000011
39226,83.65095756666673,53,0.32397400000000687,51,1.8485769333333337
39227,83.95447831666674,41,0.3035207500000041,24,0.3035207499999899
39228,84.25799906666673,31,0.3035207499999899,24,0.6088628333333332
39229,84.56330594166673,41,0.3053068749999994,24,0.3035559583333338
39230,84.86686190000006,35,0.3035559583333338,24,0.31143737500001123
39231,85.17829927500007,31,0.31143737500001123,24,0.32123522499999524
39232,85.49953450000007,52,0.32123522499999524,54,1.2465012499999943
39233,85.83095300000006,40,0.33141849999999806,24,0.2912622500000026
39234,86.12221525000007,31,0.2912622500000026,24,0.3035207500000041
39235,86.42573600000007,40,0.3035207500000041,24,0.32029974999998956
39236,86.74603575000006,36,0.32029974999998956,24,0.29999999999999716
39237,87.04603575000006,31,0.29999999999999716,24,0.32397400000000687
39238,87.37000975000007,52,0.32397400000000687,51,2.478222366666685
39239,87.67353050000007,40,0.3035207500000041,24,0.3035207499999899
39240,87.97705125000006,30,0.3035207499999899,24,0.3035207500000041
39241,88.28057200000006,40,0.3035207500000041,24,0.3035207500000041
39242,88.58409275000007,33,0.3035207500000041,24,0.31488070000001755
39243,88.89897345000008,30,0.31488070000001755,24,0.3265779166666647
39244,89.22555136666675,23,0.3265779166666647,31,0.33141849999999806
39245,89.55696986666675,39,0.33141849999999806,24,0.2912622500000026
39246,89.84823211666675,51,0.2912622500000026,49,0.607041499999994
39247,90.15175286666675,39,0.3035207500000041,24,0.3035207499999899
39248,90.45527361666674,49,0.3035207499999899,48,0.9465547500000042
39249,90.75527361666674,28,0.29999999999999716,24,0.32397400000000687
39250,91.07924761666675,23,0.32397400000000687,28,0.3225807500000002
39251,91.40182836666675,47,0.3225807500000002,42,0.3225807500000002
39252,91.72440911666675,49,0.3225807500000002,44,0.32456362500001035
39253,92.04897274166676,51,0.32456362500001035,45,0.3352338750000001
39254,92.38420661666676,52,0.3352338750000001,47,0.34686329166666496
39255,92.73106990833342,54,0.34686329166666496,48,0.35932866666665575
39256,93.09039857500008,56,0.35932866666665575,49,1.8366797916666684
39257,93.42255161666675,44,0.3321530416666718,22,0.3164077499999962
39258,93.73895936666675,35,0.3164077499999962,22,0.297029749999993
39259,94.03598911666674,44,0.297029749999993,22,0.2970297500000072
39260,94.33301886666675,40,0.2970297500000072,22,0.297029749999993
39261,94.63004861666674,32,0.297029749999993,22,0.2970297500000072
39262,94.92707836666675,54,0.2970297500000072,49,0.6185564999999968
39263,95.23635661666675,44,0.30927825000000553,22,0.3092782499999913
39264,95.54563486666675,52,0.3092782499999913,49,0.9442969999999917
39265,95.85491311666675,44,0.30927825000000553,22,0.3191489999999959
39266,96.17406211666675,40,0.3191489999999959,22,0.3158697499999903
39267,96.48993186666674,44,0.3158697499999903,45,0.36421645833333116
39268,96.85414832500007,47,0.36421645833333116,49,2.4629143333333303
39269,97.20469757500007,44,0.35054925000000026,24,0.3120085833333377
39270,97.5167061583334,35,0.3120085833333377,24,0.29411774999999807
39271,97.8108239083334,44,0.29411774999999807,23,0.29411774999999807
39272,98.1049416583334,40,0.29411774999999807,23,0.30303025000000616
39273,98.40797190833341,32,0.30303025000000616,23,0.30303024999999195
39274,98.7110021583334,28,0.30303024999999195,28,0.30303025000000616
39275,99.0140324083334,44,0.30303025000000616,23,0.30303024999999195
39276,99.3170626583334,52,0.30303024999999195,52,0.6310307499999936
39277,99.63285215833339,44,0.31578949999999395,24,0.3152412499999997
39278,99.94809340833339,56,0.3152412499999997,54,0.6600720833333611
39279,100.26905615833341,32,0.32096275000002095,27,0.33910933333334015
39280,100.60816549166675,61,0.33910933333334015,61,2.11672025
39281,100.91782699166676,44,0.30966150000000425,26,0.30966149999999004
39282,101.22748849166675,35,0.30966149999999004,25,0.297029749999993
39283,101.52451824166674,44,0.297029749999993,24,0.2970297500000072
39284,101.82154799166675,40,0.2970297500000072,24,0.297029749999993
39285,102.11857774166674,32,0.297029749999993,23,0.2970297500000072
39286,102.41560749166675,28,0.2970297500000072,27,0.30927825000000553
39287,102.72488574166675,59,0.30927825000000553,45,0.3225807500000002
39288,103.04746649166675,55,0.3225807500000002,50,0.32433387499999355
39289,103.37180036666675,56,0.32433387499999355,45,0.33150175000000104
39290,103.70330211666675,51,0.33150175000000104,49,0.3416355416666619
39291,104.04493765833341,52,0.3416355416666619,45,0.3678533749999957
39292,104.4127910333334,48,0.3678533749999957,56,3.7860700833333283
39293,104.76380828333342,45,0.3510172500000124,22,0.3279831666666695
39294,105.09179145000009,36,0.3279831666666695,22,0.3125
39295,105.40429145000009,45,0.3125,22,0.3125
39296,105.71679145000009,40,0.3125,22,0.31578949999999395
39297,106.03258095000008,33,0.31578949999999395,22,0.31578950000000816
39298,106.34837045000009,28,0.31578950000000816,27,0.30612250000000074
39299,106.65449295000009,45,0.30612250000000074,22,0.30612250000000074
39300,106.96061545000009,36,0.30612250000000074,22,0.30612250000000074
39301,107.26673795000009,45,0.30612250000000074,22,0.30612250000000074
39302,107.57286045000009,41,0.30612250000000074,26,0.3061436666666566
39303,107.87900411666675,33,0.3061436666666566,22,0.31985699999998474
39304,108.19886111666673,49,0.31985699999998474,52,1.8631977499999977
39305,108.52501232500006,45,0.32615120833332867,22,0.312556541666666
39306,108.83756886666673,37,0.312556541666666,22,0.30612250000000074
39307,109.14369136666673,45,0.30612250000000074,22,0.30612250000000074
39308,109.44981386666673,42,0.30612250000000074,22,0.30612250000000074
39309,109.75593636666673,33,0.30612250000000074,22,0.30612250000000074
39310,110.06205886666673,28,0.30612250000000074,27,0.3370787500000034
39311,110.39913761666674,63,0.3370787500000034,50,0.31597220833333495
39312,110.71510982500007,61,0.31597220833333495,52,0.314144749999997
39313,111.02925457500007,56,0.314144749999997,46,0.32086487499999805
39314,111.35011945000007,59,0.32086487499999805,50,0.32787862499999676
39315,111.67799807500006,57,0.32787862499999676,45,0.33584437500000774
39316,112.01384245000007,56,0.33584437500000774,51,1.2526659166666576
39317,112.34295490833341,45,0.32911245833334135,22,0.31749295833331814
39318,112.66044786666673,36,0.31749295833331814,22,0.30303025000000616
39319,112.96347811666674,45,0.30303025000000616,22,0.30303024999999195
39320,113.26650836666673,54,0.30303024999999195,52,1.0733905833333353
39321,113.56953861666673,33,0.30303025000000616,21,0.30303024999999195
39322,113.87256886666673,25,0.30303024999999195,28,0.3077435416666674
39323,114.18031240833339,53,0.3077435416666674,57,0.3226300416666703
39324,114.50294245000006,54,0.3226300416666703,57,0.3296702500000066
39325,114.83261270000007,55,0.3296702500000066,57,0.3296702499999924
39326,115.16228295000006,56,0.3296702499999924,62,0.5023175000000037
39327,115.49217149166672,33,0.32988854166666215,30,0.3654522416666879
39328,115.66460045000007,57,0.1724289583333416,51,0.08720931250000774
39329,115.75180976250007,57,0.08720931250000774,51,0.10581397083333854
39330,115.85762373333341,69,0.10581397083333854,71,0.8257640000000066
39331,116.16728523333342,45,0.30966150000000425,24,0.30966149999999004
39332,116.4769467333334,36,0.30966149999999004,23,0.30966150000000425
39333,116.68338773333342,66,0.2064410000000123,65,0.2064409999999981
39334,116.78660823333341,45,0.10322049999999194,22,0.29906150000000764
39335,116.88982873333342,64,0.10322050000000615,62,0.19584100000000149
39336,117.08566973333342,60,0.19584100000000149,60,0.2884614999999968
39337,117.27797740000008,57,0.19230766666666455,58,0.19230766666666455
39338,117.37413123333342,30,0.09615383333333227,21,0.2884614999999968
39339,117.47028506666675,54,0.09615383333333227,55,0.19230766666666455
39340,117.66259273333341,51,0.19230766666666455,47,0.30303025000000616
39341,117.96562298333342,45,0.30303025000000616,22,0.31545749999999373
39342,118.12335173333342,47,0.15772875000000397,49,0.15772874999998976
39343,118.28108048333341,54,0.15772874999998976,50,0.3225807500000002
39344,118.38860740000008,63,0.10752691666667147,50,0.10752691666665726
39345,118.49613431666674,48,0.10752691666665726,48,0.10752691666667147
39346,118.60366123333341,55,0.10752691666667147,52,0.3225807500000002
39347,118.71118815000008,64,0.10752691666667147,53,0.10752691666665726
39348,118.81871506666674,49,0.10752691666665726,50,0.10752691666667147
39349,118.92624198333341,56,0.10752691666667147,54,0.3282901083333343
39350,119.03376890000008,65,0.10752691666667147,55,0.10811129166665978
39351,119.14188019166674,50,0.10811129166665978,53,0.11265190000000302
39352,119.25453209166675,57,0.11265190000000302,56,0.38351718333332485
39353,119.37432099166675,66,0.1197889000000032,57,0.12859311666665008
39354,119.5029141083334,51,0.12859311666665008,54,0.13513516666667158
39355,119.63804927500007,67,0.13513516666667158,64,0.9175732500000038
39356,119.96063002500007,47,0.3225807500000002,24,0.28571424999999806
39357,120.24634427500007,35,0.28571424999999806,24,0.30927825000000553
39358,120.55562252500008,68,0.30927825000000553,58,0.3092782499999913
39359,120.86490077500007,68,0.3092782499999913,57,0.30927825000000553
39360,121.07108627500007,69,0.20618550000000369,61,0.10309275000000184
39361,121.17417902500007,32,0.10309275000000184,24,0.31947424999999896
39362,121.38376319166674,68,0.2095841666666729,54,0.10989008333332606
39363,121.49365327500007,68,0.10989008333332606,58,0.3296702500000066
39364,121.65848840000008,64,0.1648351250000104,54,1.7106759166666592
39365,121.82332352500008,44,0.1648351249999962,24,0.3180649166666569
39366,122.14138844166673,35,0.3180649166666569,24,0.3051232499999941
39367,122.44651169166673,44,0.3051232499999941,25,0.297029749999993
39368,122.74354144166672,40,0.297029749999993,25,0.30466012499999806
39369,123.04820156666672,35,0.30466012499999806,25,0.32096275000002095
39370,123.36916431666674,64,0.32096275000002095,60,0.6223001249999953
39371,123.69191915000007,43,0.32275483333333455,27,0.2995452916666608
39372,123.99146444166674,65,0.2995452916666608,57,0.5940595000000002
39373,124.28849419166673,43,0.297029749999993,26,0.2970297500000072
39374,124.58552394166674,60,0.2970297500000072,54,0.5940595000000002
39375,124.88255369166673,31,0.297029749999993,26,0.2970297500000072
39376,125.17958344166674,55,0.2970297500000072,61,0.29999999999999716
39377,125.47958344166673,62,0.29999999999999716,51,0.28571424999999806
39378,125.55101200416674,64,0.07142856250000307,51,0.07142856250000307
39379,125.62244056666674,62,0.07142856250000307,54,0.14285712499999192
39380,125.76529769166673,61,0.14285712499999192,54,0.28571424999999806
39381,126.05101194166673,62,0.28571424999999806,57,0.28571424999999806
39382,126.33672619166673,64,0.28571424999999806,60,0.29565024999999423
39383,126.63237644166672,31,0.29565024999999423,28,0.31722495833332687
39384,126.78702656666671,59,0.1546501249999892,54,0.16257483333333766
39385,126.94960140000005,62,0.16257483333333766,64,0.31777787500000443
39386,127.26737927500005,43,0.31777787500000443,29,0.297029749999993
39387,127.56440902500005,31,0.297029749999993,29,0.2970297500000072
39388,127.86143877500005,60,0.2970297500000072,61,0.30808937499999445
39389,128.16952815000005,60,0.30808937499999445,61,0.3191490000000101
39390,128.38229415000006,59,0.21276600000001622,59,0.1063829999999939
39391,128.48867715000006,31,0.1063829999999939,29,0.318589083333336
39392,128.59506015000005,57,0.1063829999999939,59,0.1063829999999939
39393,128.8072662333334,55,0.21220608333334212,61,0.9159090000000276
39394,129.11659935833342,43,0.3093331250000233,26,0.30303025000000616
39395,129.41962960833342,31,0.30303025000000616,28,0.30354562499999815
39396,129.72317523333342,55,0.30354562499999815,58,0.307174416666669
39397,130.0303496500001,55,0.307174416666669,61,0.31088912499998855
39398,130.34123877500008,55,0.31088912499998855,66,0.314692999999977
39399,130.65593177500006,55,0.314692999999977,67,1.2323574999999778
39400,130.97508077500007,43,0.3191490000000101,32,0.3191489999999817
39401,131.29422977500005,31,0.3191489999999817,32,0.2970297500000072
39402,131.59125952500005,43,0.2970297500000072,32,0.2970297499999788
39403,131.88828927500003,57,0.2970297499999788,61,0.28846150000001103
39404,132.17675077500004,52,0.28846150000001103,65,0.3191490000000101
39405,132.49589977500005,52,0.3191490000000101,59,0.30927825000000553
39406,132.65053890000004,55,0.15463912499998855,66,0.30927825000000553
39407,132.80517802500006,43,0.15463912500001697,34,0.30927825000000553
39408,132.95981715000005,53,0.15463912499998855,60,0.15463912500001697
39409,133.11445627500007,50,0.15463912500001697,58,0.3419739166666602
39410,133.1746972333334,55,0.06024095833333831,52,0.06024095833333831
39411,133.23493819166674,50,0.06024095833333831,57,0.1204819166666482
39412,133.3554201083334,52,0.1204819166666482,59,0.20202016666667078
39413,133.45643019166673,43,0.10101008333333539,35,0.30303025000000616
39414,133.55744027500006,53,0.10101008333333539,60,0.20202016666667078
39415,133.75946044166673,53,0.20202016666667078,61,0.3165007499999888
39416,133.96930356666672,55,0.20984312499999191,63,0.21488270833333445
39417,134.07596119166672,31,0.10665762499999687,35,0.32467525000001274
39418,134.2924113583334,50,0.21645016666667516,65,0.10822508333333758
39419,134.40063644166673,53,0.10822508333333758,62,0.6305839999999989
39420,134.72194219166673,43,0.3213057499999934,39,0.30927825000000553
39421,135.03122044166673,52,0.30927825000000553,62,0.594059499999986
39422,135.32825019166674,43,0.2970297500000072,39,0.2970297499999788
39423,135.62527994166672,60,0.2970297499999788,70,1.2363481666666587
39424,135.92230969166673,31,0.2970297500000072,39,0.3191490000000101
39425,136.24145869166674,18,0.3191490000000101,65,0.3191489999999817
39426,136.56060769166672,45,0.3191489999999817,40,0.3010204166666597
39427,136.86162810833338,60,0.3010204166666597,70,0.5892844583333101
39428,137.1567948166667,45,0.29516670833331204,44,0.29411774999999807
39429,137.4509125666667,60,0.29411774999999807,76,0.6042003750000049
39430,137.74413469166672,30,0.2932221250000282,48,0.3109782499999767
39431,138.0551129416667,59,0.3109782499999767,75,2.05358824999999
39432,138.3764186916667,45,0.3213057499999934,39,0.30927825000000553
39433,138.6856969416667,60,0.30927825000000553,74,0.8910892499999932
39434,138.9827266916667,45,0.2970297500000072,39,0.2970297499999788
39435,139.27975644166668,40,0.2970297499999788,39,0.2970297500000072
39436,139.57678619166668,59,0.2970297500000072,75,0.3191490000000101
39437,139.8959351916667,57,0.3191490000000101,73,0.8412604999999758
39438,140.10870119166668,54,0.2127659999999878,72,0.21276600000001622
39439,140.21508419166668,45,0.1063829999999939,40,0.31697791666667285
39440,140.3214671916667,52,0.10638300000002232,70,0.21059491666665053
39441,140.53206210833335,51,0.21059491666665053,70,0.8959690833333411
39442,140.73719569166667,55,0.2051335833333212,70,0.2015254583333217
39443,140.83872115,45,0.10152545833332738,44,0.29608791666666434
39444,140.93872115,57,0.09999999999999432,75,0.19608791666667003
39445,141.13480906666666,59,0.19608791666667003,75,0.2932221250000282
39446,141.4280311916667,30,0.2932221250000282,48,0.30303025000000616
39447,141.5795463166667,54,0.15151512500000308,72,0.15151512500000308
39448,141.7310614416667,57,0.15151512500000308,76,0.8286038333333181
39449,142.0523671916667,43,0.3213057499999934,39,0.30927825000000553
39450,142.3616454416667,35,0.30927825000000553,39,0.2970297500000072
39451,142.55966527500001,55,0.19801983333331918,73,0.09900991666668801
39452,142.6586751916667,43,0.09900991666668801,39,0.30808937499998024
39453,142.8603815666667,64,0.20170637499998634,73,0.1063829999999939
39454,142.96676456666668,64,0.1063829999999939,75,0.30000000000001137
39455,143.16676456666667,62,0.19999999999998863,73,0.20638300000001664
39456,143.2667645666667,31,0.10000000000002274,39,0.3191490000000101
39457,143.47953056666668,60,0.2127659999999878,70,0.10638300000002232
39458,143.5859135666667,59,0.10638300000002232,76,0.3086341666666499
39459,143.79650848333335,59,0.21059491666665053,68,0.09803924999999936
39460,143.89454773333335,43,0.09803924999999936,40,0.2975344999999834
39461,143.99307231666668,59,0.09852458333332947,69,0.09900991666665959
39462,144.19208223333334,59,0.1990099166666539,70,0.3035559583333338
39463,144.39359735833335,59,0.20151512500001445,71,0.10204083333331937
39464,144.49563819166667,43,0.10204083333331937,44,0.31318645833334813
39465,144.59820498333335,59,0.10256679166667482,72,0.10530983333333666
39466,144.80882465000002,59,0.2106196666666733,73,0.3288292500000125
39467,144.9358386166667,59,0.12701396666668074,73,0.11063615833333529
39468,145.0689466916667,59,0.13310807499999555,74,0.11576604166666016
39469,145.13765390000003,31,0.06870720833333621,48,0.3724321666666697
39470,145.20852563333338,59,0.07087173333334817,74,0.12166839166664545
39471,145.35519402500003,59,0.14666839166665113,75,0.1285762583333394
39472,145.5100860666667,59,0.15489204166667037,79,0.47594487500001037
39473,145.8313918166667,42,0.3213057499999934,51,0.2988698750000083
39474,145.9860309416667,62,0.15463912500001697,63,0.1442307499999913
39475,146.1302616916667,60,0.1442307499999913,78,0.6051191249999874
39476,146.4272914416667,42,0.2970297500000072,51,0.30808937499998024
39477,146.7353808166667,59,0.30808937499998024,79,0.6157895000000053
39478,147.0353808166667,30,0.30000000000001137,51,0.31578949999999395
39479,147.3511703166667,66,0.31578949999999395,88,0.306954416666656
39480,147.65812473333335,42,0.306954416666656,48,0.2975344999999834
39481,147.95565923333334,59,0.2975344999999834,81,0.6096784583333488
39482,148.25921519166667,42,0.3035559583333338,54,0.30612250000001495
39483,148.56533769166668,59,0.30612250000001495,85,0.6252714999999966
39484,148.87146019166667,30,0.30612249999998653,59,0.3191490000000101
39485,149.19060919166668,59,0.3191490000000101,89,1.8548521250000078
39486,149.51191494166667,42,0.3213057499999934,55,0.30927825000000553
39487,149.82119319166668,33,0.30927825000000553,56,0.2970297500000072
39488,150.1182229416667,42,0.2970297500000072,57,0.30808937499998024
39489,150.42631231666667,57,0.30808937499998024,80,0.6191490000000215
39490,150.72631231666668,30,0.30000000000001137,57,0.3191490000000101
39491,151.0454613166667,12,0.3191490000000101,82,0.3086341666666499
39492,151.35409548333334,42,0.3086341666666499,57,0.2965444166666771
39493,151.65063990000002,57,0.2965444166666771,76,0.594059499999986
39494,151.94766965,42,0.2970297499999788,59,0.2970297500000072
39495,152.2446994,57,0.2970297500000072,80,0.6127343749999739
39496,152.54376906666667,30,0.2990696666666679,63,0.31366470833330595
39497,152.85743377499998,25,0.31366470833330595,84,0.3333332500000097
39498,153.19076702499999,42,0.3333332500000097,52,0.30612249999998653
39499,153.343828275,57,0.15306125000000748,78,0.15306124999997905
39500,153.49688952499997,69,0.15306124999997905,97,1.5046418750000043
39501,153.79391927499998,42,0.2970297500000072,54,0.30808937499998024
39502,154.10200864999996,37,0.30808937499998024,54,0.30000000000001137
39503,154.40200864999997,30,0.30000000000001137,52,0.3191490000000101
39504,154.72115764999998,13,0.3191490000000101,80,0.2803737499999954
39505,155.00153139999998,65,0.2803737499999954,86,0.2803737499999954
39506,155.28190514999997,66,0.2803737499999954,79,0.281255416666653
39507,155.4688209833333,60,0.18691583333333028,77,0.18912841666667646
39508,155.56316056666662,42,0.09433958333332271,56,0.2861807500000282
39509,155.65794939999998,61,0.09478883333335375,77,0.19139191666667443
39510,155.84934131666665,56,0.19139191666667443,76,0.29079545833332077
39511,156.0430493583333,57,0.19370804166663902,75,0.19417483333333507
39512,156.14013677499997,30,0.09708741666668175,56,0.2912622499999884
39513,156.23722419166663,53,0.09708741666665333,75,0.19417483333333507
39514,156.43139902499996,57,0.19417483333333507,84,0.3333332500000097
39515,156.76473227499997,42,0.3333332500000097,52,0.30612249999998653
39516,156.91779352499998,57,0.15306125000000748,78,0.15306124999997905
39517,157.07085477499996,69,0.15306124999997905,97,1.5046418750000043
39518,157.36788452499997,42,0.2970297500000072,54,0.30808937499998024
39519,157.67597389999995,36,0.30808937499998024,54,0.30000000000001137
39520,157.97597389999996,30,0.30000000000001137,52,0.3191490000000101
39521,158.29512289999997,14,0.3191490000000101,79,0.2803737499999954
39522,158.57549664999996,65,0.2803737499999954,86,0.2803737499999954
39523,158.85587039999996,66,0.2803737499999954,79,0.281255416666653
39524,159.0427862333333,59,0.18691583333333028,77,0.18912841666667646
39525,159.1371258166666,42,0.09433958333332271,56,0.2861807500000282
39526,159.23191464999996,60,0.09478883333335375,77,0.19139191666667443
39527,159.42330656666664,56,0.19139191666667443,76,0.29079545833332077
39528,159.61701460833328,57,0.19370804166663902,75,0.19417483333333507
39529,159.71410202499996,30,0.09708741666668175,56,0.2912622499999884
39530,159.8111894416666,53,0.09708741666665333,75,0.19417483333333507
39531,160.00536427499995,57,0.19417483333333507,84,1.2445748749999836
39532,160.33869752499996,42,0.3333332500000097,52,0.30612249999998653
39533,160.49175877499997,57,0.15306125000000748,78,0.15306124999997905
39534,160.64482002499994,69,0.15306124999997905,97,1.224268125000009
39535,160.94184977499995,42,0.2970297500000072,54,0.30808937499998024
39536,161.24993914999993,36,0.30808937499998024,54,0.30000000000001137
39537,161.54993914999994,30,0.30000000000001137,52,0.3191490000000101
39538,161.86908814999995,57,0.3191490000000101,84,1.2445748749999836
39539,162.20242139999996,40,0.3333332500000097,52,0.30612249999998653
39540,162.35548264999997,57,0.15306125000000748,78,0.15306124999997905
39541,162.50854389999995,69,0.15306124999997905,97,0.6051191249999874
39542,162.80557364999996,36,0.2970297500000072,54,0.30808937499998024
39543,163.11366302499994,57,0.30808937499998024,84,1.2429297499999734
39544,163.44699627499995,39,0.3333332500000097,52,0.30612249999998653
39545,163.60005752499995,57,0.15306125000000748,78,0.15306124999997905
39546,163.75311877499993,69,0.15306124999997905,97,0.814000333333297
39547,164.05014852499994,36,0.2970297500000072,54,0.30644424999997
39548,164.3565927749999,30,0.30644424999997,66,1.2626097499999958
39549,164.56711910833323,68,0.21052633333331983,86,0.21052633333334825
39550,164.6723822749999,42,0.10526316666667412,52,0.31578949999999395
39551,164.77764544166658,67,0.10526316666667412,84,0.21052633333331983
39552,164.9881717749999,57,0.21052633333331983,89,0.31578950000002237
39553,165.19869810833325,66,0.21052633333334825,82,0.21052633333331983
39554,165.30396127499992,35,0.10526316666667412,55,0.3152412499999855
39555,165.40922444166657,65,0.1052631666666457,82,0.20997808333333978
39556,165.6192025249999,64,0.20997808333333978,87,0.3125
39557,165.82753585833322,54,0.20833333333331439,79,0.20942983333335974
39558,165.9317025249999,45,0.10416666666668561,52,0.31578949999999395
39559,166.03696569166658,63,0.10526316666667412,79,0.21052633333331983
39560,166.2474920249999,61,0.21052633333331983,83,0.31858908333336444
39561,166.45969810833324,60,0.21220608333334212,77,0.21276600000001622
39562,166.56608110833326,45,0.10638300000002232,50,0.32086487499998384
39563,166.67246410833326,51,0.1063829999999939,74,0.21448187499998994
39564,166.88694598333325,59,0.21448187499998994,81,0.3379016249999722
39565,167.10923681666657,58,0.222290833333318,75,0.23537554166665586
39566,167.22484760833322,33,0.11561079166665422,47,0.35313045833333945
39567,167.34461235833322,57,0.11976475000000164,73,0.2333657083333378
39568,167.57797806666656,56,0.2333657083333378,79,1.8366797916666542
39569,167.91013110833325,44,0.332153041666686,44,0.3164077499999678
39570,168.2265388583332,35,0.3164077499999678,48,0.2970297500000072
39571,168.52356860833322,44,0.2970297500000072,48,0.2970297499999788
39572,168.8205983583332,40,0.2970297499999788,48,0.2970297500000072
39573,169.1176281083332,32,0.2970297500000072,47,0.2970297500000072
39574,169.41465785833321,54,0.2970297500000072,82,0.6185565000000111
39575,169.72393610833322,44,0.30927825000000553,44,0.30927825000000553
39576,170.03321435833323,52,0.30927825000000553,77,0.9278457499999888
39577,170.3424926083332,44,0.3092782499999771,44,0.30927825000000553
39578,170.6517708583332,40,0.30927825000000553,44,0.3092892500000062
39579,170.9610601083332,44,0.3092892500000062,74,0.3375763749999976
39580,171.2986364833332,47,0.3375763749999976,81,2.443974916666633
39581,171.63024631666653,44,0.3316098333333173,48,0.3120085833333235
39582,171.94225489999985,35,0.3120085833333235,48,0.29411774999999807
39583,172.23637264999985,44,0.29411774999999807,46,0.29411774999999807
39584,172.53049039999985,40,0.29411774999999807,46,0.30303025000000616
39585,172.83352064999985,32,0.30303025000000616,46,0.30303025000000616
39586,173.13655089999986,28,0.30303025000000616,54,0.30303024999997774
39587,173.43958114999984,44,0.30303024999997774,46,0.30303025000000616
39588,173.74261139999984,52,0.30303025000000616,81,0.5999999999999943
39589,174.04261139999986,44,0.30000000000001137,48,0.29999999999998295
39590,174.34261139999984,56,0.29999999999998295,85,0.6357699166666464
39591,174.65039814999983,32,0.3077867499999911,52,0.3279831666666553
39592,174.97838131666649,61,0.3279831666666553,95,2.1167202500000144
39593,175.2880428166665,44,0.30966150000000425,51,0.30966150000000425
39594,175.5977043166665,35,0.30966150000000425,49,0.2970297500000072
39595,175.8947340666665,44,0.2970297500000072,48,0.2970297499999788
39596,176.19176381666648,40,0.2970297499999788,48,0.2970297500000072
39597,176.4887935666665,32,0.2970297500000072,46,0.2970297500000072
39598,176.7858233166665,28,0.2970297500000072,52,0.30927825000000553
39599,177.0951015666665,59,0.30927825000000553,69,0.31545750000000794
39600,177.4105590666665,55,0.31545750000000794,76,0.30612249999998653
39601,177.7166815666665,56,0.30612249999998653,70,0.30612250000001495
39602,178.0228040666665,51,0.30612250000001495,75,0.3165007499999888
39603,178.3393048166665,52,0.3165007499999888,69,0.33060091666663993
39604,178.66990573333314,50,0.33060091666663993,79,3.637139208333366
39605,178.99486206666649,44,0.32495633333334695,44,0.31145966666667846
39606,179.30632173333316,35,0.31145966666667846,44,0.2970297500000072
39607,179.60335148333317,44,0.2970297500000072,44,0.2970297499999788
39608,179.90038123333315,40,0.2970297499999788,44,0.2970297500000072
39609,180.19741098333316,32,0.2970297500000072,44,0.2970297500000072
39610,180.49444073333316,28,0.2970297500000072,52,0.2970297500000072
39611,180.79147048333317,44,0.2970297500000072,44,0.2970297499999788
39612,181.08850023333315,35,0.2970297499999788,44,0.2970297500000072
39613,181.38552998333316,44,0.2970297500000072,37,0.2970297500000072
39614,181.68255973333316,40,0.2970297500000072,42,0.3046282083333267
39615,181.9871879416665,32,0.3046282083333267,32,0.31985700000001316
39616,182.3070449416665,62,0.31985700000001316,61,2.0782515833332695
39617,182.6331961499998,44,0.32615120833330025,22,0.3125565416666234
39618,182.94575269166643,35,0.3125565416666234,22,0.30612250000001495
39619,183.25187519166644,44,0.30612250000001495,22,0.30612249999998653
39620,183.55799769166643,40,0.30612249999998653,22,0.30612250000001495
39621,183.86412019166644,32,0.30612250000001495,22,0.30612249999998653
39622,184.17024269166643,28,0.30612249999998653,27,0.322580749999986
39623,184.38529652499977,58,0.21505383333334294,50,0.20853699999997843
39624,184.49282344166642,44,0.10752691666664305,22,0.3080807500000162
39625,184.59383352499975,59,0.10101008333333539,50,0.20707066666668084
39626,184.80090419166643,58,0.20707066666668084,53,0.31088912499998855
39627,185.00762664999976,57,0.20672245833333136,50,0.20942983333333132
39628,185.11179331666642,44,0.10416666666665719,22,0.3174692499999878
39629,185.2170564833331,58,0.10526316666667412,50,0.2122060833333137
39630,185.4292625666664,61,0.2122060833333137,56,0.32433387499997934
39631,185.64490077499974,59,0.21563820833333125,52,0.21858574999998837
39632,185.7535964416664,32,0.1086956666666481,22,0.3327502500000037
39633,185.86348652499973,56,0.10989008333334027,50,0.22286016666666342
39634,186.0863466916664,54,0.22286016666666342,51,1.8714347000000373
39635,186.41545914999972,44,0.32911245833332714,22,0.3174929583333608
39636,186.73295210833308,35,0.3174929583333608,22,0.30303025000000616
39637,187.0359823583331,44,0.30303025000000616,22,0.30303025000000616
39638,187.3390126083331,38,0.30303025000000616,21,0.30347168333332775
39639,187.64248429166642,32,0.30347168333332775,21,0.3152971000000093
39640,187.95778139166643,52,0.3152971000000093,47,0.3517519749999849
39641,188.04040799166646,54,0.08262660000002597,43,0.09174050625000518
39642,188.11740347083312,52,0.07699547916666916,47,0.08585165416664609
39643,188.1892101770831,54,0.07180670624998697,43,0.08084950208331065
39644,188.25678979999975,52,0.06757962291663944,47,0.07878523333332055
39645,188.30953336666641,54,0.052743566666663355,43,0.31297051666663833
39646,188.3614019166664,52,0.051868549999994684,47,0.07731956250000849
39647,188.41294829166642,54,0.05154637500001513,43,0.07780282499999203
39648,188.46470944999976,52,0.051761158333334834,47,0.07839912499997581
39649,188.51679278333307,54,0.052083333333314386,43,0.07911534999999503
39650,188.5694243666664,52,0.05263158333332285,47,0.07936764166666421
39651,188.62250388333305,51,0.053079516666656446,47,0.31545750000000794
39652,188.72765638333306,52,0.10515250000000265,46,0.10515250000000265
39653,188.83280888333306,54,0.10515250000000265,47,0.10515250000000265
39654,188.93796138333306,56,0.10515250000000265,48,0.3154574999999795
39655,189.04311388333306,57,0.10515250000000265,49,0.10515250000000265
39656,189.14826638333307,59,0.10515250000000265,50,0.10515249999997422
39657,189.25341888333304,61,0.10515249999997422,51,0.3209627499999783
39658,189.3581337999997,62,0.10471491666666566,52,0.10695495833331847
39659,189.46508875833302,64,0.10695495833331847,53,0.10929287499999418
39660,189.57438163333302,66,0.10929287499999418,54,0.3476732499999855
39661,189.68737959166634,68,0.11299795833332382,55,0.11561079166665422
39662,189.802990383333,69,0.11561079166665422,55,0.11906450000000746
39663,189.922054883333,73,0.11906450000000746,57,0.35405933333331063
39664,190.012236008333,71,0.09018112499998665,55,0.08911170833331994
39665,190.1013477166663,74,0.08911170833331994,52,0.08789324999997916
39666,190.1892409666663,70,0.08789324999997916,52,0.08687325000002488
39667,190.27611421666631,71,0.08687325000002488,52,0.33526875000001155
39668,190.36150563333297,70,0.08539141666665273,52,0.08442833333336353
39669,190.44593396666633,74,0.08442833333336353,52,0.0831798749999848
39670,190.52911384166632,69,0.0831798749999848,52,0.08226912500001049
39671,190.61138296666633,70,0.08226912500001049,49,0.31613366666667275
39672,190.69204659166633,69,0.08066362499999968,49,0.0789473750000127
39673,190.77099396666634,74,0.0789473750000127,50,0.07839766666666037
39674,190.849391633333,68,0.07839766666666037,50,0.078125
39675,190.927516633333,69,0.078125,51,0.3077059166666629
39676,191.00510334166634,68,0.07758670833334236,52,0.07705529166665315
39677,191.082158633333,74,0.07705529166665315,52,0.07679229166669188
39678,191.1589509249997,67,0.07679229166669188,53,0.07627162499997553
39679,191.23522254999966,68,0.07627162499997553,53,0.30239591666665433
39680,191.31098017499966,67,0.07575762499999428,54,0.07537687499998924
39681,191.38635704999965,74,0.07537687499998924,55,0.07550379166667653
39682,191.46186084166632,66,0.07550379166667653,55,0.07575762499999428
39683,191.53761846666632,67,0.07575762499999428,56,0.3164216250000038
39684,191.6137605916663,66,0.07614212499998985,57,0.07666412500000774
39685,191.6904247166663,74,0.07666412500000774,57,0.07980079166665632
39686,191.77022550833297,65,0.07980079166665632,57,0.0838145833333499
39687,191.85404009166632,64,0.0838145833333499,57,0.3217070000000035
39688,191.93783896666633,66,0.0837988750000136,58,0.08028895833331262
39689,192.01812792499965,64,0.08028895833331262,59,0.0786717916666646
39690,192.0967997166663,63,0.0786717916666646,59,0.0789473750000127
39691,192.17574709166632,64,0.0789473750000127,60,0.31887208333333206
39692,192.25511221666633,66,0.07936512500000958,61,0.07964654166664786
39693,192.33475875833298,68,0.07964654166664786,61,0.0799294583333392
39694,192.41468821666632,69,0.0799294583333392,62,0.07993095833333541
39695,192.49461917499966,71,0.07993095833333541,62,0.3598083750000285
39696,192.577507258333,73,0.08288808333333009,62,0.08722695833333205
39697,192.66473421666632,74,0.08722695833333205,64,0.09204533333334552
39698,192.75677954999966,76,0.09204533333334552,66,0.09764800000002083
39699,192.85442754999968,80,0.09764800000002083,65,0.35294916666668996
39700,192.94214679999968,78,0.08771924999999214,64,0.0880632500000047
39701,193.03021004999968,76,0.0880632500000047,62,0.08840929166669298
39702,193.11861934166637,74,0.08840929166669298,61,0.08875737500000014
39703,193.20737671666637,71,0.08875737500000014,59,0.3671362499999873
39704,193.2966645499997,68,0.0892878333333158,58,0.090911333333338
39705,193.38757588333303,64,0.090911333333338,57,0.09259495833333631
39706,193.48017084166636,62,0.09259495833333631,56,0.09434212499999717
39707,193.57451296666636,59,0.09434212499999717,54,0.39555287500002123
39708,193.6706694666664,56,0.09615650000003484,53,0.09804204166667319
39709,193.76871150833307,52,0.09804204166667319,51,0.10000295833330597
39710,193.86871446666638,50,0.10000295833330597,50,0.10135137500000724
39711,193.97006584166638,49,0.10135137500000724,53,1.0267114999999762
39712,194.33158100833305,44,0.3615151666666634,22,0.3391093333333117
39713,194.67069034166636,35,0.3391093333333117,22,0.3260870000000011
39714,194.99677734166636,48,0.3260870000000011,48,0.3260870000000011
39715,195.15982084166635,49,0.16304349999998635,50,0.16304350000001477
39716,195.32286434166636,50,0.16304350000001477,53,0.3309315833333244
39717,195.4865050499997,49,0.16364070833333244,50,0.16729087499999196
39718,195.65379592499968,52,0.16729087499999196,52,0.3531394916666386
39719,195.76808534166634,50,0.11428941666665082,50,0.11682628333332445
39720,195.88491162499966,49,0.11682628333332445,48,0.12202379166666333
39721,196.00693541666632,49,0.12202379166666333,50,1.3054295249999939
39722,196.35886919166634,44,0.35193377500002043,23,0.322580749999986
39723,196.68144994166633,35,0.322580749999986,25,0.31545750000000794
39724,196.99690744166634,44,0.31545750000000794,27,0.3154574999999795
39725,197.31236494166632,61,0.3154574999999795,54,1.3013789999999688
39726,197.6333276916663,32,0.3209627499999783,30,0.34883725000000254
39727,197.9821649416663,57,0.34883725000000254,59,0.6315789999999879
39728,198.2979544416663,45,0.31578949999999395,28,0.31578949999999395
39729,198.61374394166629,62,0.31578949999999395,61,0.6185565000000111
39730,198.9230221916663,45,0.30927825000000553,28,0.30927825000000553
39731,199.2323004416663,57,0.30927825000000553,61,0.4480360000000019
39732,199.5207619416663,33,0.28846150000001103,28,0.3191490000000101
39733,199.6803364416663,57,0.15957449999999085,59,0.15957450000001927
39734,199.83991094166632,61,0.15957450000001927,66,0.30927825000000553
39735,200.14918919166632,47,0.30927825000000553,30,0.30927825000000553
39736,200.3038283166663,59,0.15463912499998855,60,0.15463912500001697
39737,200.45846744166633,56,0.15463912500001697,58,0.3419739166666602
39738,200.51870839999967,57,0.06024095833333831,52,0.06024095833333831
39739,200.578949358333,56,0.06024095833333831,57,0.1204819166666482
39740,200.69943127499965,57,0.1204819166666482,59,0.20202016666667078
39741,200.800441358333,47,0.10101008333333539,31,0.30303025000000616
39742,200.90145144166632,59,0.10101008333333539,60,0.20202016666667078
39743,201.103471608333,61,0.20202016666667078,63,0.3165007499999888
39744,201.41997235833298,32,0.3165007499999888,31,0.32467525000001274
39745,201.63642252499966,56,0.21645016666667516,65,0.10822508333333758
39746,201.744647608333,59,0.10822508333333758,62,0.6305839999999989
39747,202.065953358333,45,0.3213057499999934,34,0.30927825000000553
39748,202.375231608333,54,0.30927825000000553,57,0.2970297500000072
39749,202.672261358333,45,0.2970297500000072,34,0.2970297499999788
39750,202.820776233333,66,0.1485148749999894,66,0.1485148749999894
39751,202.96929110833298,66,0.1485148749999894,65,0.2970297500000072
39752,203.16731094166633,64,0.1980198333333476,61,0.2053929166666535
39753,203.266320858333,33,0.09900991666665959,34,0.3191490000000101
39754,203.37270385833298,62,0.1063829999999939,61,0.21276600000001622
39755,203.585469858333,61,0.21276600000001622,68,0.3191489999999817
39756,203.798235858333,61,0.2127659999999878,58,0.1063829999999939
39757,203.90461885833298,44,0.1063829999999939,35,0.302040833333308
39758,204.00461885833298,61,0.09999999999999432,60,0.09999999999999432
39759,204.2066596916663,61,0.20204083333331369,62,0.30876329166667915
39760,204.41179327499964,61,0.20513358333334963,63,0.10362970833332952
39761,204.51542298333297,44,0.10362970833332952,39,0.3152529166666511
39762,204.61958964999963,61,0.10416666666665719,66,0.10526316666667412
39763,204.83067589999962,61,0.21108624999999392,68,0.32499487499998736
39764,205.04517019166627,61,0.21449429166665368,70,0.11050058333333368
39765,205.1556707749996,32,0.11050058333333368,42,0.3469560833333105
39766,205.26866873333293,61,0.11299795833332382,71,0.11561079166665422
39767,205.50262685833292,61,0.2339581249999867,67,0.6382979999999918
39768,205.82177585833293,45,0.3191490000000101,28,0.3191489999999817
39769,206.1409248583329,62,0.3191489999999817,61,0.882520999999997
39770,206.43795460833292,45,0.2970297500000072,28,0.2970297499999788
39771,206.7349843583329,42,0.2970297499999788,28,0.28846150000001103
39772,207.0234458583329,57,0.28846150000001103,65,0.3191490000000101
39773,207.1830203583329,57,0.15957449999999085,59,0.15957450000001927
39774,207.34259485833292,61,0.15957450000001927,66,0.30927825000000553
39775,207.65187310833292,47,0.30927825000000553,30,0.30927825000000553
39776,207.8065122333329,59,0.15463912499998855,60,0.15463912500001697
39777,207.96115135833293,59,0.15463912500001697,58,0.3419739166666602
39778,208.02139231666627,57,0.06024095833333831,52,0.06024095833333831
39779,208.0816332749996,56,0.06024095833333831,57,0.1204819166666482
39780,208.20211519166625,57,0.1204819166666482,59,0.20202016666667078
39781,208.3031252749996,47,0.10101008333333539,31,0.30303025000000616
39782,208.40413535833292,59,0.10101008333333539,60,0.20202016666667078
39783,208.6061555249996,59,0.20202016666667078,61,0.3165007499999888
39784,208.81599864999959,61,0.20984312499999191,63,0.21488270833333445
39785,208.92265627499958,32,0.10665762499999687,31,0.32467525000001274
39786,209.13910644166626,56,0.21645016666667516,65,0.10822508333333758
39787,209.2473315249996,59,0.10822508333333758,62,0.6305839999999989
39788,209.5686372749996,45,0.3213057499999934,34,0.30927825000000553
39789,209.8779155249996,54,0.30927825000000553,57,0.2970297500000072
39790,210.1749452749996,45,0.2970297500000072,34,0.2970297499999788
39791,210.47197502499958,69,0.2970297499999788,71,0.9046402500000283
39792,210.7690047749996,33,0.2970297500000072,34,0.3191490000000101
39793,211.0881537749996,21,0.3191490000000101,65,0.28846150000001103
39794,211.3766152749996,68,0.28846150000001103,73,0.2986394583333265
39795,211.67525473333293,66,0.2986394583333265,67,0.28847933333332776
39796,211.8666466499996,64,0.19139191666667443,68,0.09708741666665333
39797,211.96373406666626,42,0.09708741666665333,44,0.29704916666665326
39798,212.06177331666626,63,0.09803924999999936,70,0.09900991666665959
39799,212.26078323333292,61,0.1990099166666539,71,0.3142366666666305
39800,212.46806494166623,59,0.20728170833331205,72,0.10695495833331847
39801,212.57501989999955,30,0.10695495833331847,48,0.34001391666666336
39802,212.68431277499954,57,0.10929287499999418,73,0.11237370833333671
39803,212.9150338166662,56,0.23072104166666918,72,0.6305839999999989
39804,213.2363395666662,40,0.3213057499999934,44,0.30927825000000553
39805,213.5456178166662,57,0.30927825000000553,76,0.594059499999986
39806,213.84264756666622,40,0.2970297500000072,44,0.2970297499999788
39807,214.1396773166662,56,0.2970297499999788,74,0.6161787500000173
39808,214.4367070666662,23,0.2970297500000072,44,0.3191490000000101
39809,214.7558560666662,54,0.3191490000000101,73,0.5970297500000186
39810,215.05288581666622,40,0.2970297500000072,48,0.30000000000001137
39811,215.35288581666623,52,0.30000000000001137,71,0.5999999999999943
39812,215.6528858166662,40,0.29999999999998295,48,0.30000000000001137
39813,215.95288581666622,44,0.30000000000001137,71,0.6403236666666317
39814,216.26712248333286,25,0.3142366666666305,49,0.3260870000000011
39815,216.59320948333286,47,0.3260870000000011,77,1.8720314999999914
39816,216.90570948333286,35,0.3125,51,0.3125
39817,217.21820948333286,28,0.3125,51,0.30000000000001137
39818,217.51820948333287,35,0.30000000000001137,51,0.29999999999998295
39819,217.81820948333285,28,0.29999999999998295,51,0.30612249999998653
39820,218.12433198333284,20,0.30612249999998653,52,0.34090900000001056
39821,218.46524098333285,49,0.34090900000001056,78,1.9283183333332943
39822,218.78438998333286,37,0.3191490000000101,51,0.3191489999999817
39823,219.10353898333284,28,0.3191489999999817,52,0.30303025000000616
39824,219.40656923333285,37,0.30303025000000616,54,0.3214492500000006
39825,219.72801848333285,30,0.3214492500000006,55,0.32908633333332205
39826,220.05710481666617,21,0.32908633333332205,56,0.3364544999999737
39827,220.39355931666614,42,0.3364544999999737,78,1.9294405083333288
39828,220.71614006666613,40,0.322580749999986,51,0.3225807500000144
39829,221.03872081666614,30,0.3225807500000144,51,0.31578949999999395
39830,221.35451031666614,40,0.31578949999999395,51,0.31578949999999395
39831,221.4597734833328,47,0.10526316666667412,61,0.10526316666667412
39832,221.56503664999948,52,0.10526316666667412,63,0.1052631666666457
39833,221.67029981666613,54,0.1052631666666457,65,0.3135334499999942
39834,221.7755629833328,59,0.10526316666667412,67,0.10526316666667412
39835,221.88082614999948,64,0.10526316666667412,68,0.10300711666664597
39836,221.98383326666612,66,0.10300711666664597,70,0.3391665583333463
39837,222.0909148833328,71,0.10708161666667593,72,0.1131401083333401
39838,222.20405499166614,76,0.1131401083333401,73,0.11894483333333028
39839,222.32299982499947,78,0.11894483333333028,92,1.100732333333326
39840,222.65267007499946,40,0.3296702499999924,51,0.3296702500000208
39841,222.98234032499948,30,0.3296702500000208,52,0.3302807499999858
39842,223.31262107499947,40,0.3302807499999858,54,0.33712170833331356
39843,223.4237321583328,76,0.11111108333332709,78,0.11235958333332974
39844,223.53609174166613,71,0.11235958333332974,76,0.11365104166665674
39845,223.64974278333278,66,0.11365104166665674,74,0.36169087499999364
39846,223.76670586666611,64,0.1169630833333315,72,0.12049941666666086
39847,223.88720528333278,59,0.12049941666666086,69,0.12422837500000128
39848,224.01143365833278,54,0.12422837500000128,67,0.39769437499998617
39849,224.1396598666661,52,0.12822620833333076,65,0.13245612500000448
39850,224.2721159916661,47,0.13245612500000448,63,0.13701204166665093
39851,224.40912803333276,42,0.13701204166665093,78,1.9783327499999643
39852,224.74620678333275,40,0.3370787499999892,51,0.33707875000001764
39853,225.08328553333277,30,0.33707875000001764,51,0.322580749999986
39854,225.40586628333276,40,0.322580749999986,51,0.3203636666666796
39855,225.72622994999944,33,0.3203636666666796,51,0.3215109999999868
39856,226.04774094999942,30,0.3215109999999868,52,0.33971983333330513
39857,226.38746078333273,47,0.33971983333330513,78,2.266878191666592
39858,226.72836978333274,39,0.34090900000001056,51,0.34090899999998214
39859,227.06927878333272,30,0.34090899999998214,52,0.34482750000000806
39860,227.41410628333273,42,0.34482750000000806,72,0.35145883333331085
39861,227.76556511666604,44,0.35145883333331085,78,0.40289641666663556
39862,228.0305239083327,42,0.2649587916666576,75,0.27978874999996606
39863,228.16846153333267,23,0.13793762499997797,56,0.4858774416666449
39864,228.31031265833266,40,0.1418511249999881,75,0.34402631666665684
39865,228.65433897499932,40,0.34402631666665684,78,1.2426202916666398
39866,228.986492016666,44,0.332153041666686,26,0.3164077499999678
39867,229.30289976666597,35,0.3164077499999678,26,0.2970297500000072
39868,229.59992951666598,44,0.2970297500000072,26,0.2970297499999788
39869,229.89695926666596,40,0.2970297499999788,26,0.2970297500000072
39870,230.19398901666597,32,0.2970297500000072,26,0.3333332500000097
39871,230.52732226666598,64,0.3333332500000097,62,0.6185565000000111
39872,230.83660051666598,43,0.30927825000000553,26,0.30927825000000553
39873,231.145878766666,58,0.30927825000000553,55,1.2285163333333458
39874,231.442908516666,43,0.2970297500000072,26,0.2970297499999788
39875,231.73993826666597,40,0.2970297499999788,26,0.3011235833333501
39876,232.04106184999932,34,0.3011235833333501,26,0.3333332500000097
39877,232.37439509999933,63,0.3333332500000097,62,0.6185565000000111
39878,232.68367334999934,42,0.30927825000000553,26,0.30927825000000553
39879,232.99295159999934,57,0.30927825000000553,55,1.2285163333333458
39880,233.28998134999935,42,0.2970297500000072,26,0.2970297499999788
39881,233.58701109999933,39,0.2970297499999788,26,0.3011235833333501
39882,233.88813468333268,33,0.3011235833333501,26,0.3333332500000097
39883,234.2214679333327,62,0.3333332500000097,62,1.8470728333333568
39884,234.5307461833327,41,0.30927825000000553,26,0.30927825000000553
39885,234.8400244333327,56,0.30927825000000553,54,1.2285163333333458
39886,235.1370541833327,41,0.2970297500000072,25,0.2970297499999788
39887,235.4340839333327,38,0.2970297499999788,25,0.3011235833333501
39888,235.73520751666604,32,0.3011235833333501,25,0.3333332500000097
39889,236.06854076666605,61,0.3333332500000097,60,1.8470728333333568
39890,236.37781901666605,40,0.30927825000000553,25,0.30927825000000553
39891,236.68709726666606,55,0.30927825000000553,52,1.2285163333333458
39892,236.98412701666606,40,0.2970297500000072,24,0.2970297499999788
39893,237.28115676666604,37,0.2970297499999788,24,0.3011235833333501
39894,237.5822803499994,31,0.3011235833333501,24,0.3333332500000097
39895,237.9156135999994,60,0.3333332500000097,58,1.8470728333333568
39896,238.2248918499994,40,0.30927825000000553,23,0.30927825000000553
39897,238.53417009999941,54,0.30927825000000553,51,1.2285163333333458
39898,238.83119984999942,40,0.2970297500000072,23,0.2970297499999788
39899,239.1282295999994,36,0.2970297499999788,23,0.3011235833333501
39900,239.42935318333275,30,0.3011235833333501,23,0.3333332500000097
39901,239.76268643333276,59,0.3333332500000097,60,4.943768541666657
39902,240.07196468333277,39,0.30927825000000553,22,0.30927825000000553
39903,240.38124293333277,33,0.30927825000000553,22,0.2970297500000072
39904,240.67827268333278,39,0.2970297500000072,22,0.2970297499999788
39905,240.97530243333276,47,0.2970297499999788,43,0.2970297500000072
39906,241.27233218333276,49,0.2970297500000072,44,0.2970297500000072
39907,241.56936193333277,51,0.2970297500000072,45,0.30254554166666026
39908,241.87190747499943,52,0.30254554166666026,46,0.30770037499999603
39909,242.17960784999943,53,0.30770037499999603,47,0.3125112916666808
39910,242.4921191416661,54,0.3125112916666808,48,0.3174692499999878
39911,242.8095883916661,56,0.3174692499999878,50,0.320913041666671
39912,243.13050143333277,57,0.320913041666671,51,0.3333332500000097
39913,243.46383468333278,56,0.3333332500000097,54,1.2426202916666398
39914,243.79598772499946,44,0.332153041666686,22,0.3164077499999678
39915,244.11239547499943,35,0.3164077499999678,22,0.2970297500000072
39916,244.40942522499944,44,0.2970297500000072,22,0.2970297499999788
39917,244.70645497499942,40,0.2970297499999788,22,0.2970297500000072
39918,245.00348472499942,32,0.2970297500000072,22,0.3333332500000097
39919,245.33681797499943,64,0.3333332500000097,55,0.6185565000000111
39920,245.64609622499944,43,0.30927825000000553,22,0.15463912499998855
39921,245.80073534999943,73,0.15463912499998855,41,0.15463912500001697
39922,245.95537447499945,58,0.15463912500001697,49,1.2285163333333458
39923,246.25240422499945,43,0.2970297500000072,22,0.1485148749999894
39924,246.54943397499943,40,0.2970297499999788,22,0.3011235833333501
39925,246.85055755833278,34,0.3011235833333501,22,0.3333332500000097
39926,247.1838908083328,63,0.3333332500000097,55,0.6185565000000111
39927,247.4931690583328,42,0.30927825000000553,22,0.30927825000000553
39928,247.64780818333278,72,0.15463912499998855,41,0.15463912500001697
39929,247.8024473083328,57,0.15463912500001697,49,1.2285163333333458
39930,248.0994770583328,42,0.2970297500000072,22,0.2970297499999788
39931,248.3965068083328,39,0.2970297499999788,22,0.3011235833333501
39932,248.69763039166614,33,0.3011235833333501,22,0.3333332500000097
39933,249.03096364166615,62,0.3333332500000097,55,0.6185565000000111
39934,249.34024189166615,41,0.30927825000000553,22,0.30927825000000553
39935,249.49488101666614,71,0.15463912499998855,41,0.15463912500001697
39936,249.64952014166616,56,0.15463912500001697,49,1.2285163333333458
39937,249.94654989166617,41,0.2970297500000072,22,0.2970297499999788
39938,250.24357964166614,38,0.2970297499999788,22,0.3011235833333501
39939,250.5447032249995,32,0.3011235833333501,22,0.3333332500000097
39940,250.8780364749995,61,0.3333332500000097,55,1.8470728333333568
39941,251.1873147249995,40,0.30927825000000553,22,0.30927825000000553
39942,251.3419538499995,70,0.15463912499998855,41,0.15463912500001697
39943,251.49659297499952,55,0.15463912500001697,49,1.2285163333333458
39944,251.79362272499952,40,0.2970297500000072,22,0.2970297499999788
39945,252.0906524749995,37,0.2970297499999788,22,0.3011235833333501
39946,252.39177605833285,31,0.3011235833333501,22,0.3333332500000097
39947,252.72510930833286,60,0.3333332500000097,55,1.8470728333333568
39948,253.03438755833287,40,0.30927825000000553,22,0.30927825000000553
39949,253.18902668333286,69,0.15463912499998855,41,0.15463912500001697
39950,253.34366580833287,54,0.15463912500001697,49,1.2285163333333458
39951,253.64069555833288,40,0.2970297500000072,22,0.2970297499999788
39952,253.93772530833286,36,0.2970297499999788,22,0.3011235833333501
39953,254.2388488916662,30,0.3011235833333501,22,0.3333332500000097
39954,254.57218214166622,59,0.3333332500000097,55,5.855459291666676
39955,254.89133114166623,39,0.3191490000000101,22,0.3191489999999817
39956,255.2104801416662,33,0.3191489999999817,22,0.30927825000000553
39957,255.51975839166622,39,0.30927825000000553,22,0.30927825000000553
39958,255.82903664166622,35,0.30927825000000553,22,0.3092782499999771
39959,256.1383148916662,30,0.3092782499999771,22,0.30927825000003395
39960,256.44759314166623,28,0.30927825000003395,27,0.3141447500000254
39961,256.76173789166626,58,0.3141447500000254,47,0.3125678333333326
39962,257.0743057249996,57,0.3125678333333326,46,0.3208893333333549
39963,257.39519505833294,56,0.3208893333333549,45,0.333999125000048
39964,257.729194183333,54,0.333999125000048,45,0.3468632916665797
39965,258.0760574749996,56,0.3468632916665797,43,0.3622335000000021
39966,258.4382909749996,52,0.3622335000000021,52,4.085989416666678
39967,258.7830392249996,40,0.3447482500000092,22,0.3447482500000092
39968,259.1277874749996,28,0.3447482500000092,22,0.32376425000001063
39969,259.4515517249996,40,0.32376425000001063,22,0.32376425000001063
39970,259.7753159749996,32,0.32376425000001063,22,0.3237642499999538
39971,260.09908022499957,23,0.3237642499999538,22,0.32856120833332625
39972,260.4276414333329,56,0.32856120833332625,46,0.33107450000005656
39973,260.75871593333295,57,0.33107450000005656,45,0.33956470833328467
39974,261.09828064166624,58,0.33956470833328467,46,0.34840291666665735
39975,261.4466835583329,59,0.34840291666665735,48,0.3577057916666604
39976,261.80438934999955,63,0.3577057916666604,48,0.3602650416667075
39977,262.16465439166626,61,0.3602650416667075,47,0.35962599999999156
39978,262.52428039166625,59,0.35962599999999156,53,2.348176999999964
39979,262.87110114166626,52,0.34682075000000623,45,0.34682075000000623
39980,263.21792189166626,53,0.34682075000000623,45,0.33482149999997546
39981,263.55274339166624,54,0.33482149999997546,45,0.3348215000000323
39982,263.8875648916663,57,0.3348215000000323,44,0.33112575000001243
39983,264.2186906416663,56,0.33112575000001243,44,0.33112575000001243
39984,264.5498163916663,54,0.33112575000001243,44,1.3187796666666713
39985,264.8724573916662,58,0.32264099999991913,44,0.325566125000023
39986,265.19802351666624,57,0.325566125000023,43,0.3323825833333558
39987,265.5304060999996,56,0.3323825833333558,42,0.3381899583333734
39988,265.86859605833297,54,0.3381899583333734,42,0.7394481666666479
39989,266.21475622499963,56,0.3461601666666638,39,0.3932879999999841
39990,266.6080442249996,52,0.3932879999999841,48,2.100331874999995
39991,266.96561272499963,47,0.3575685000000135,43,0.3575685000000135
39992,267.32318122499964,46,0.3575685000000135,43,0.3335683749999703
39993,267.6567495999996,47,0.3335683749999703,43,0.33112575000001243
39994,267.82231247499965,51,0.16556287500003464,37,0.1655628749999778
39995,267.9878753499996,49,0.1655628749999778,43,0.34285725000000866
39996,268.33073259999964,47,0.34285725000000866,42,0.3776434999999765
39997,268.7083760999996,56,0.3776434999999765,42,1.4178286666666509
39998,269.0567910999996,57,0.3484149999999886,41,0.3503928750000682
39999,269.40718397499967,58,0.3503928750000682,42,0.3569800833333261
40000,269.764164058333,59,0.3569800833333261,44,0.36204070833326796
40001,270.12620476666626,63,0.36204070833326796,45,0.3602650416667075
40002,270.48646980833297,61,0.3602650416667075,44,0.35962599999999156
40003,270.84609580833296,59,0.35962599999999156,48,2.4754672083333276
40004,271.21428430833294,52,0.36818849999997383,41,0.36818850000003067
40005,271.58247280833297,53,0.36818850000003067,41,0.3484320000000025
40006,271.93090480833297,54,0.3484320000000025,41,0.3484320000000025
40007,272.27933680833297,57,0.3484320000000025,41,0.3484320000000025
40008,272.627768808333,56,0.3484320000000025,41,0.3478180416666419
40009,272.9755868499996,54,0.3478180416666419,40,1.4170343333333904
40010,273.3215630166663,58,0.34597616666667363,40,0.3509408333333113
40011,273.6725038499996,57,0.3509408333333113,40,0.3573796666667022
40012,274.0298835166663,56,0.3573796666667022,38,0.36273766666670326
40013,274.392621183333,54,0.36273766666670326,38,0.7363770000000045
40014,274.760809683333,56,0.36818849999997383,36,0.36818850000003067
40015,275.128998183333,52,0.36818850000003067,39,4.38028149999991
40016,275.497186683333,40,0.36818849999997383,18,0.36818850000003067
40017,275.865375183333,28,0.36818850000003067,18,0.3521952500000225
40018,276.21757043333304,40,0.3521952500000225,18,0.35219524999996565
40019,276.569765683333,32,0.35219524999996565,18,0.3521952500000225
40020,276.921960933333,23,0.3521952500000225,18,0.3509408333333681
40021,277.2729017666664,16,0.3509408333333681,22,0.3509408333333113
40022,277.6238425999997,40,0.3509408333333113,18,0.3573796666667022
40023,277.9812222666664,28,0.3573796666667022,18,0.36409283333335907
40024,278.34531509999977,40,0.36409283333335907,18,0.36750337499995567
40025,278.7128184749997,32,0.36750337499995567,18,0.38070549999991954
40026,279.09352397499964,23,0.38070549999991954,18,0.415755708333279
40027,279.5092796833329,56,0.415755708333279,37,0.4481213750000279
40028,279.8898740583329,57,0.38059437499998694,37,0.3376350000000343
40029,279.95740105833295,40,0.06752700000004097,18,0.4501799999999889
40030,280.2725270583329,59,0.3151259999999638,37,0.3376350000000343
40031,280.40758105833294,28,0.1350540000000251,18,0.4501799999999889
40032,280.6551800583329,61,0.2475989999999797,36,0.3376350000000343
40033,280.8577610583329,40,0.20258100000000923,18,0.4501799999999889
40034,281.0378330583329,63,0.18007199999999557,36,0.3376350000000343
40035,281.3079410583329,32,0.27010799999999335,18,0.4501799999999889
40036,281.4204860583329,64,0.11254500000001144,35,0.3376349999999775
40037,281.7581210583329,23,0.3376349999999775,18,0.45018000000004577
40038,281.80313905833293,66,0.045018000000027314,35,0.3376349999999775
40039,282.20830105833295,68,0.40516200000001845,34,0.45223441666666986
40040,282.5920839874996,69,0.3837829291666708,34,0.3440227041666617
40041,282.6605354749996,40,0.06845148749999908,18,0.4618676666666488
40042,282.9824029916663,71,0.32186751666665714,33,0.3510232499999688
40043,283.12240314166627,28,0.14000014999999166,18,0.48038404166663895
40044,283.38143664166626,73,0.2590334999999868,33,0.37434005833330275
40045,283.6027871833329,40,0.22135054166665213,18,0.527369333333354
40046,283.8077666749996,75,0.20497949166667695,32,0.4062199291666957
40047,284.13015651666626,32,0.32238984166667706,18,0.5976243750000094
40048,284.27152637083293,76,0.14136985416666903,32,0.4562545208333404
40049,284.72778089166627,23,0.4562545208333404,18,0.7092070833332969
40050,284.7939184666663,78,0.06613757500002748,32,0.52726920833328
40051,285.43698797499957,80,0.6430695083332694,36,2.7517164999999864
40052,289.5680149749995,56,4.1310269999999605,36,3.4722224999999867
40053,293.0402374749995,52,3.4722224999999867,33,8.750607000000002
40054,0.0018115937499999996,15,0.0,46,0.1423890395833333
40055,0.1442006333333333,34,0.1423890395833333,36,0.5574006583333333
40056,0.2855001416666666,39,0.1412995083333333,49,0.13836668333333335
40057,0.42386682499999995,46,0.13836668333333335,53,0.2777344666666667
40058,0.563162175,39,0.13929535000000004,43,0.13843911666666664
40059,0.7016012916666666,48,0.13843911666666664,43,0.1342281666666666
40060,0.8358294583333332,14,0.1342281666666666,51,0.13666019166666665
40061,0.9724896499999999,34,0.13666019166666665,47,0.5395199583333335
40062,1.1079006166666665,41,0.13541096666666663,51,0.13338320000000015
40063,1.2412838166666667,46,0.13338320000000015,59,0.27072579166666677
40064,1.3776949666666667,41,0.13641115000000004,47,0.13431464166666673
40065,1.5120096083333334,48,0.13431464166666673,45,0.1292417916666666
40066,1.6412514,15,0.1292417916666666,53,0.13271756666666668
40067,1.7739689666666667,34,0.13271756666666668,56,0.5151515083333331
40068,1.9042249833333331,39,0.13025601666666642,59,0.12792090833333347
40069,2.0321458916666666,46,0.12792090833333347,67,0.25697458333333323
40070,2.161602558333333,39,0.12945666666666655,61,0.12751791666666668
40071,2.289120475,48,0.12751791666666668,65,0.12548737500000007
40072,2.41460785,19,0.12548737500000007,79,0.12779683333333347
40073,2.5424046833333334,38,0.12779683333333347,66,0.5025067000000005
40074,2.66819335,43,0.12578866666666677,70,0.12422604166666718
40075,2.7924193916666673,50,0.12422604166666718,75,0.2524919916666666
40076,2.9190143500000008,43,0.12659495833333345,70,0.12589703333333313
40077,3.044911383333334,51,0.12589703333333313,78,0.12126691666666645
40078,3.1661783000000003,20,0.12126691666666645,84,0.1250024583333338
40079,3.291180758333334,43,0.1250024583333338,79,0.49405944166666593
40080,3.4146399250000004,48,0.12345916666666623,75,0.12195345833333304
40081,3.5365933833333334,55,0.12195345833333304,80,0.24864681666666666
40082,3.6587476750000003,48,0.12215429166666691,75,0.12649252499999974
40083,3.7852402,53,0.12649252499999974,80,0.12521904166666697
40084,3.910459241666667,21,0.12521904166666697,91,0.12779683333333347
40085,4.0382560750000005,43,0.12779683333333347,86,0.516455016666665
40086,4.164639366666667,48,0.1263832916666665,82,0.12552355833333273
40087,4.290162925,55,0.12552355833333273,88,0.2645481666666658
40088,4.420989299999999,48,0.13082637499999894,82,0.13372179166666687
40089,4.5547110916666655,53,0.13372179166666687,84,0.14558166666666672
40090,4.700292758333332,22,0.14558166666666672,97,0.1391916000000002
40091,4.8394843583333325,43,0.1391916000000002,86,0.5574397083333347
40092,4.977282874999999,46,0.13779851666666687,82,0.13636737499999985
40093,5.113650249999999,55,0.13636737499999985,88,0.28327381666666795
40094,5.25194165,46,0.13829140000000084,74,0.1449824166666671
40095,5.396924066666667,53,0.1449824166666671,82,0.1476650666666659
40096,5.544589133333333,10,0.1476650666666659,58,0.1495517916666662
40097,5.694140924999999,38,0.1495517916666662,50,0.5757262416666649
40098,5.837934916666665,41,0.14379399166666573,56,0.13894948333333268
40099,5.976884399999998,50,0.13894948333333268,59,0.29298276666666645
40100,6.120998808333331,41,0.14411440833333344,50,0.148868358333333
40101,6.269867166666664,48,0.148868358333333,47,0.14925366666666662
40102,6.419120833333331,15,0.14925366666666662,51,0.13682993333333382
40103,6.5559507666666645,34,0.13682993333333382,44,0.544374416666666
40104,6.69132173333333,39,0.13537096666666582,53,0.13386690000000012
40105,6.8251886333333305,46,0.13386690000000012,60,0.27513655000000004
40106,6.964483983333331,39,0.13929535000000026,51,0.13584119999999977
40107,7.1003251833333305,48,0.13584119999999977,45,0.12903233333333386
40108,7.229357516666664,14,0.12903233333333386,53,0.13422816666666648
40109,7.363585683333331,34,0.13422816666666648,51,0.5352864833333335
40110,7.497142724999997,41,0.13355704166666627,58,0.13262673333333375
40111,7.629769458333331,46,0.13262673333333375,61,0.2691027083333335
40112,7.766180608333331,41,0.13641114999999981,58,0.13269155833333368
40113,7.898872166666664,48,0.13269155833333368,51,0.12578616666666687
40114,8.024658333333331,15,0.12578616666666687,63,0.12987016666666662
40115,8.154528499999998,34,0.12987016666666662,60,0.5211174416666697
40116,8.284398666666664,39,0.12987016666666662,64,0.12984487500000164
40117,8.414243541666666,46,0.12984487500000164,72,0.2614024000000015
40118,8.546470358333334,39,0.1322268166666678,66,0.12917558333333368
40119,8.675645941666668,48,0.12917558333333368,62,0.12614124999999987
40120,8.801787191666667,19,0.12614124999999987,79,0.12820516666666748
40121,8.929992358333335,31,0.12820516666666748,66,0.5183957666666679
40122,9.057993358333334,43,0.12800099999999937,70,0.12902670000000072
40123,9.187020058333335,50,0.12902670000000072,75,0.2613680666666678
40124,9.319366783333336,43,0.13234672500000144,70,0.12902134166666634
40125,9.448388125000003,51,0.12902134166666634,69,0.12121216666666612
40126,9.569600291666669,20,0.12121216666666612,84,0.12820516666666748
40127,9.697805458333336,27,0.12820516666666748,69,0.513104874999998
40128,9.825398125000001,44,0.1275926666666649,75,0.12698541666666507
40129,9.952383541666666,52,0.12698541666666507,80,0.25852679166666803
40130,10.081007583333335,44,0.12862404166666863,75,0.1299027499999994
40131,10.210910333333334,53,0.1299027499999994,73,0.12783150000000099
40132,10.338741833333335,22,0.12783150000000099,89,0.12738850000000035
40133,10.466130333333336,42,0.12738850000000035,72,0.5083777416666653
40134,10.592914208333335,46,0.1267838749999992,78,0.12618424999999966
40135,10.719098458333335,54,0.12618424999999966,82,0.2554096166666664
40136,10.847306250000003,46,0.12820779166666796,78,0.12720182499999844
40137,10.974508075000001,55,0.12720182499999844,78,0.12496066249999949
40138,11.0994687375,24,0.12496066249999949,91,0.12868078750000045
40139,11.228149525000001,46,0.12868078750000045,75,0.5105414583333356
40140,11.355803441666668,48,0.1276539166666666,80,0.12650346666666756
40141,11.482306908333335,58,0.12650346666666756,86,0.2563840750000015
40142,11.60877156666667,48,0.12646465833333487,75,0.12991941666666662
40143,11.738690983333337,56,0.12991941666666662,81,0.13135808333333365
40144,11.87004906666667,22,0.13135808333333365,91,0.12658233333333335
40145,11.996631400000004,42,0.12658233333333335,91,0.5040834874999991
40146,12.122676320833337,46,0.1260449208333334,82,0.1254520458333328
40147,12.24812836666667,54,0.1254520458333328,91,0.2525865208333329
40148,12.37419394166667,46,0.12606557500000015,79,0.12652094583333273
40149,12.500714887500003,55,0.12652094583333273,86,0.12195116666666728
40150,12.62266605416667,24,0.12195116666666728,92,0.12698541666666507
40151,12.749651470833335,43,0.12698541666666507,92,0.508861783333332
40152,12.874653929166668,48,0.12500245833333246,86,0.12404150000000058
40153,12.998695429166668,55,0.12404150000000058,96,0.25981782499999895
40154,13.126497512500002,48,0.12780208333333398,82,0.13201574166666497
40155,13.258513254166667,56,0.13201574166666497,85,0.13157900000000033
40156,13.390092254166667,45,0.13157900000000033,97,0.616821916666666
40157,13.5147040875,34,0.12461183333333281,72,0.1230780833333327
40158,13.576432504166666,50,0.061728416666666064,81,0.18274879166666658
40159,13.637782170833333,41,0.061349666666666636,74,0.12139912499999994
40160,13.759181295833333,57,0.12139912499999994,89,0.24773287500000052
40161,13.881511170833335,50,0.12232987500000192,84,0.1254029999999986
40162,14.006914170833333,58,0.1254029999999986,81,0.1263832916666665
40163,14.1332974625,47,0.1263832916666665,99,0.6103342916666676
40164,14.256982045833334,34,0.12368458333333443,80,0.12121437499999921
40165,14.317772879166666,51,0.06079083333333202,82,0.18018620833333365
40166,14.378196420833333,43,0.06042354166666719,80,0.11976266666666646
40167,14.4979590875,59,0.11976266666666646,91,0.24567266666666754
40168,14.618990920833333,51,0.12103183333333334,82,0.1246408333333342
40169,14.743631754166667,60,0.1246408333333342,85,0.12658233333333158
40170,14.870214087499999,49,0.12658233333333158,100,0.6121020000000019
40171,14.991980504166666,34,0.12176641666666654,84,0.12066454166666674
40172,15.052404045833333,53,0.06042354166666719,82,0.17964508333333384
40173,15.112645045833332,44,0.060240999999999545,84,0.1194040833333343
40174,15.232049129166667,61,0.1194040833333343,100,0.25026695833333434
40175,15.3519985875,53,0.11994945833333404,97,0.1303175000000003
40176,15.482316087500001,62,0.1303175000000003,93,0.14282820000000207
40177,15.625144287500003,31,0.14282820000000207,102,0.1533904333333318
40178,15.778534720833335,53,0.1533904333333318,103,0.581311495833333
40179,15.924061583333335,55,0.14552686250000058,97,0.14915816666666437
40180,16.07321975,65,0.14915816666666437,108,0.286626466666668
40181,16.218517491666667,55,0.14529774166666698,73,0.14132872500000104
40182,16.359846216666668,63,0.14132872500000104,75,0.13698633333333277
40183,16.49683255,21,0.13698633333333277,74,0.1465220833333305
40184,16.64335463333333,50,0.1465220833333305,66,0.5666402916666655
40185,16.787503883333333,51,0.14414925000000167,67,0.14159779166666553
40186,16.929101675,62,0.14159779166666553,72,0.2808932499999983
40187,17.07145225833333,51,0.14235058333333228,63,0.13854266666666604
40188,17.209994924999997,60,0.13854266666666604,62,0.13539333333333659
40189,17.345388258333333,48,0.13539333333333659,61,0.7230315000000012
40190,17.49164588333333,31,0.14625762499999695,61,0.1436316666666677
40191,17.563848966666665,51,0.07220308333333492,59,0.21227712499999996
40192,17.635277549999998,39,0.0714285833333328,56,0.14084854166666716
40193,17.776126091666665,60,0.14084854166666716,63,0.29229366666666934
40194,17.918005716666666,51,0.1418796250000014,61,0.15041404166666794
40195,18.068419758333334,58,0.15041404166666794,60,0.15267183333333278
40196,18.221091591666667,22,0.15267183333333278,59,0.1539112999999972
40197,18.375002891666664,43,0.1539112999999972,56,0.6098478749999998
40198,18.525611808333334,46,0.15060891666666976,55,0.1483164166666633
40199,18.673928224999997,55,0.1483164166666633,57,0.3109225416666668
40200,18.826030516666663,46,0.15210229166666522,49,0.15882025000000155
40201,18.984850766666664,53,0.15882025000000155,49,0.15995054166666733
40202,19.14480130833333,15,0.15995054166666733,48,0.6880963500000021
40203,19.281631241666663,22,0.13682993333333116,41,0.1353709666666667
40204,19.349505491666665,39,0.06787425000000269,51,0.20136361666666858
40205,19.41700220833333,31,0.06749671666666401,36,0.13386690000000456
40206,19.550869108333334,46,0.13386690000000456,56,0.2820285499999997
40207,19.69016445833333,39,0.1392953499999976,48,0.14273320000000211
40208,19.832897658333334,48,0.14273320000000211,48,0.14281633333333232
40209,19.975713991666666,15,0.14281633333333232,48,0.6891519333333385
40210,20.112543924999997,22,0.13682993333333116,41,0.1353709666666667
40211,20.180418175,46,0.06787425000000269,55,0.20136361666666858
40212,20.247914891666664,32,0.06749671666666401,46,0.13386690000000456
40213,20.38178179166667,55,0.13386690000000456,61,0.28308413333333604
40214,20.521077141666666,46,0.1392953499999976,48,0.14378878333333844
40215,20.664865925000004,53,0.14378878333333844,48,0.14492749999999788
40216,20.809793425000002,15,0.14492749999999788,48,0.13682993333333116
40217,20.946623358333333,22,0.13682993333333116,41,0.5488237500000075
40218,21.081994325,39,0.1353709666666667,51,0.13386690000000456
40219,21.215861225000005,46,0.13386690000000456,56,0.2795858833333362
40220,21.355156575000002,39,0.1392953499999976,48,0.14029053333333863
40221,21.49544710833334,48,0.14029053333333863,48,0.13793099999999825
40222,21.63337810833334,15,0.13793099999999825,48,0.13682993333333116
40223,21.77020804166667,43,0.13682993333333116,41,0.5523220000000073
40224,21.905579008333337,46,0.1353709666666667,55,0.13386690000000456
40225,22.03944590833334,55,0.13386690000000456,61,0.28308413333333604
40226,22.17874125833334,46,0.1392953499999976,48,0.14378878333333844
40227,22.322530041666678,53,0.14378878333333844,48,0.14492749999999788
40228,22.467457541666676,15,0.14492749999999788,48,0.13682993333333116
40229,22.604287475000007,39,0.13682993333333116,41,0.26923786666667127
40230,22.739658441666673,44,0.1353709666666667,51,0.13386690000000456
40231,22.873525341666678,51,0.13386690000000456,56,0.8309739333333361
40232,23.012820691666676,44,0.1392953499999976,45,0.14275361666667052
40233,23.155574308333346,46,0.14275361666667052,41,0.1428571666666656
40234,23.29843147500001,15,0.1428571666666656,48,0.13682993333333116
40235,23.435261408333343,39,0.13682993333333116,42,0.26923786666667127
40236,23.57063237500001,44,0.1353709666666667,56,0.13386690000000456
40237,23.704499275000014,51,0.13386690000000456,64,0.8841141333333375
40238,23.84379462500001,44,0.1392953499999976,45,0.14485445000000396
40239,23.988649075000016,46,0.14485445000000396,41,0.14705883333333247
40240,24.135707908333348,15,0.14705883333333247,48,0.15325900000000203
40241,24.28896690833335,39,0.15325900000000203,40,0.2996465000000015
40242,24.439912491666686,44,0.15094558333333552,49,0.14870091666666596
40243,24.58861340833335,51,0.14870091666666596,52,0.9554177083333322
40244,24.739031866666686,44,0.15041845833333412,41,0.16004587500000156
40245,24.899077741666687,46,0.16004587500000156,38,0.1629348749999977
40246,25.062012616666685,15,0.1629348749999977,42,0.1632680833333353
40247,25.22528070000002,39,0.1632680833333353,37,0.3187504166666635
40248,25.385925866666685,44,0.16064516666666506,44,0.15810524999999842
40249,25.544031116666684,51,0.15810524999999842,46,0.5221414166666634
40250,25.706094033333347,44,0.16206291666666317,36,0.17826033333333413
40251,25.88435436666668,46,0.17826033333333413,33,0.18181816666666606
40252,26.066172533333347,15,0.18181816666666606,38,3.3723362083333406
40253,26.27616228333335,22,0.20998975000000186,33,3.1623464583333387
40254,26.49298207500002,27,0.2168197916666692,37,2.9455266666666695
40255,26.717091116666687,31,0.22410904166666867,34,2.721417625000001
40256,26.94899670000002,34,0.231905583333333,38,2.489512041666668
40257,27.18926086666669,39,0.2402641666666696,33,2.2492478749999982
40258,27.438508741666688,43,0.24924787499999823,33,2.0
40259,0.0,39,0.0,34,0.27661862499999995
40260,0.2911774999999999,39,0.2911774999999999,35,0.26235864999999997
40261,0.5673444999999999,39,0.276167,37,0.2623586499999999
40262,0.8435115,39,0.27616700000000005,38,0.2512564749999999
40263,1.1079919999999999,39,0.2644804999999999,39,0.24776142499999998
40264,1.3687934999999998,39,0.2608014999999999,41,0.2477614250000002
40265,1.629595,39,0.26080150000000013,43,0.24776142499999998
40266,1.8903965,39,0.26080150000000013,45,0.24768638333333293
40267,2.1510329083333333,39,0.26063640833333324,47,0.25133948541666573
40268,2.415882243749999,39,0.2648493354166659,47,0.26243081666666646
40269,2.6922834354166656,39,0.27640119166666643,45,0.26952925000000016
40270,2.9759984354166655,39,0.28371499999999994,40,0.272310375
40271,3.2626409354166657,40,0.28664250000000013,48,0.2872116
40272,3.564968935416666,46,0.30232800000000015,55,0.24949660000000007
40273,3.8275969354166657,51,0.26262799999999986,57,0.26088760833333335
40274,4.102246018749999,52,0.27464908333333327,59,0.24605047499999966
40275,4.361246518749999,44,0.25900049999999997,56,0.2589025500000002
40276,4.633775518749999,46,0.27252900000000047,55,0.27091244999999997
40277,4.918946518749999,49,0.28517100000000006,61,0.8193390000000003
40278,5.214804518749999,45,0.29585799999999995,31,0.24605047499999966
40279,5.473805018749999,45,0.25900049999999997,31,0.2512564749999999
40280,5.73828551875,47,0.26448050000000034,52,1.1291724999999992
40281,6.002766018749999,45,0.26448049999999945,31,0.26815935000000035
40282,6.285039018749999,45,0.282273,31,0.27374915000000044
40283,6.573196018749999,28,0.288157,47,0.2795489
40284,6.867458018749999,52,0.2942619999999998,59,0.2530410500000002
40285,7.133817018749999,58,0.26635900000000046,63,0.2512564749999999
40286,7.39829751875,61,0.26448050000000034,68,0.2477614250000002
40287,7.65909901875,59,0.26080150000000035,61,0.2604405999999999
40288,7.93324701875,56,0.2741480000000003,61,0.272310375
40289,8.21988951875,54,0.28664249999999925,71,0.8441585000000007
40290,8.50653201875,49,0.286642500000001,50,0.25446415000000044
40291,8.77438901875,49,0.26785699999999935,50,0.27517605000000067
40292,9.06404801875,56,0.28965900000000033,69,1.1317719999999998
40293,9.33383201875,52,0.2697839999999996,50,0.26815934999999946
40294,9.61610501875,52,0.282273,48,0.26815934999999946
40295,9.89837801875,30,0.282273,47,0.2825699000000004
40296,10.19582001875,49,0.2974420000000002,59,0.2494966000000005
40297,10.45844801875,54,0.2626279999999994,63,0.2494966000000005
40298,10.72107601875,58,0.2626280000000012,64,0.24269792499999987
40299,10.976547518750001,56,0.2554715000000005,61,0.2477614250000002
40300,11.23734901875,52,0.26080149999999946,61,0.272310375
40301,11.52399151875,51,0.28664249999999925,70,0.8543110000000009
40302,11.810634018750001,48,0.286642500000001,45,0.2641090249999998
40303,12.08864351875,48,0.2780094999999996,45,0.27517605000000067
40304,12.37830251875,52,0.28965900000000033,58,1.1399974999999998
40305,12.65631201875,47,0.2780094999999996,35,0.26815934999999946
40306,12.93858501875,47,0.282273,34,0.26815934999999946
40307,13.22085801875,30,0.282273,39,0.8331210000000002
40308,13.51830001875,47,0.2974420000000002,50,0.25763857499999965
40309,13.789498518750001,49,0.27119850000000056,53,0.2512564749999999
40310,14.05397901875,52,0.26448049999999945,57,0.2443623249999991
40311,14.311202518750001,51,0.25722350000000027,51,0.2604406000000008
40312,14.585350518750001,47,0.2741480000000003,46,0.27807592499999956
40313,14.87806201875,49,0.29271149999999935,55,1.9810659999999984
40314,15.16470451875,46,0.28664249999999925,40,0.2614680249999992
40315,15.43993401875,46,0.2752295,39,0.2614680249999992
40316,15.71516351875,46,0.2752295,40,0.2614680249999992
40317,15.99039301875,46,0.2752295,38,0.261468025000001
40318,16.26562251875,46,0.2752295,38,0.2766186250000011
40319,16.55680001875,18,0.29117749999999987,69,0.2872115999999991
40320,16.85912801875,46,0.30232799999999926,68,0.2563874249999998
40321,17.12900951875,51,0.26988150000000033,70,0.2477614250000002
40322,17.38981101875,52,0.26080149999999946,72,0.24436232500000088
40323,17.647034518749997,44,0.2572234999999985,69,0.2589025499999984
40324,17.919563518749996,46,0.2725289999999987,68,0.27091245000000086
40325,18.204734518749994,49,0.2851709999999983,72,0.8174864999999976
40326,18.500592518749993,45,0.29585799999999907,44,0.24605047500000055
40327,18.759593018749992,45,0.2590004999999991,44,0.2494966000000005
40328,19.022221018749992,47,0.2626279999999994,73,1.127320000000001
40329,19.28484901874999,45,0.2626279999999994,44,0.26815935000000124
40330,19.56712201874999,45,0.282273,44,0.27374915000000044
40331,19.855279018749993,16,0.2881570000000018,71,0.2795488999999982
40332,20.149541018749993,52,0.2942619999999998,72,0.2530410500000002
40333,20.415900018749994,58,0.26635900000000134,75,0.24436232500000088
40334,20.673123518749993,61,0.2572234999999985,80,0.2394356249999987
40335,20.925161018749993,59,0.25203750000000014,75,0.2512564750000017
40336,21.189641518749994,56,0.26448050000000123,75,0.272310375
40337,21.476284018749993,54,0.28664249999999925,88,0.8385394999999995
40338,21.762926518749993,49,0.28664249999999925,65,0.24912610000000157
40339,22.025164518749992,49,0.26223799999999997,65,0.2751760499999989
40340,22.314823518749993,56,0.28965900000000033,84,1.1224045000000018
40341,22.575240018749994,52,0.2604165000000016,65,0.26815935000000124
40342,22.857513018749994,52,0.282273,62,0.26815935000000124
40343,23.139786018749994,30,0.282273,69,0.2825698999999986
40344,23.437228018749995,49,0.2974420000000002,72,0.2576385750000014
40345,23.708426518749995,54,0.27119850000000056,75,0.2512564750000017
40346,23.972907018749996,58,0.26448050000000123,80,0.24436232500000088
40347,24.230130518749995,56,0.2572234999999985,75,0.2530410500000002
40348,24.496489518749996,52,0.26635900000000134,75,0.272310375
40349,24.783132018749995,51,0.28664249999999925,81,0.8591674999999981
40350,25.069774518749995,48,0.28664249999999925,58,0.2566871500000012
40351,25.339971518749994,48,0.2701969999999996,58,0.2872115999999991
40352,25.642299518749994,52,0.30232799999999926,81,1.1642825000000023
40353,25.916447518749994,47,0.2741480000000003,56,0.2751760499999989
40354,26.206106518749994,47,0.28965900000000033,53,0.2751760499999989
40355,26.495765518749995,30,0.28965900000000033,57,0.2952756749999992
40356,26.806582018749996,40,0.3108165000000014,64,0.26815935000000124
40357,27.088855018749996,47,0.282273,68,0.272310375
40358,27.375497518749995,51,0.28664249999999925,57,0.272310375
40359,27.662140018749994,49,0.28664249999999925,57,0.4454260000000012
40360,27.956402018749994,46,0.2942619999999998,34,0.30483495000000005
40361,28.107566018749996,47,0.1511640000000014,51,0.17074549999999888
40362,28.278311518749994,47,0.17074549999999888,56,1.7313694999999996
40363,28.571023018749994,39,0.29271149999999935,39,0.26815935000000124
40364,28.853296018749994,39,0.282273,38,0.26815935000000124
40365,29.135569018749994,39,0.282273,39,0.26815935000000124
40366,29.417842018749994,39,0.282273,37,0.2766186250000011
40367,29.709019518749994,39,0.29117749999999987,37,0.28562842499999874
40368,30.009681018749994,47,0.30066150000000036,52,0.8586075000000015
40369,30.300858518749994,41,0.29117749999999987,34,0.2695292500000015
40370,30.584573518749995,41,0.2837150000000008,34,0.26952924999999794
40371,30.868288518749996,47,0.2837150000000008,51,0.2585501000000008
40372,31.140446518749997,45,0.272158000000001,49,0.28511130208333313
40373,31.431624018749996,43,0.29117749999999987,49,0.2766186250000011
40374,31.722801518749996,52,0.29117749999999987,62,1.672528750000005
40375,32.010958518749995,48,0.2881569999999982,48,0.2654657083333305
40376,32.29025547708333,48,0.2792969583333331,50,0.2605433416666685
40377,32.56442526875,48,0.2741697916666723,53,0.2530410500000002
40378,32.83078426875,48,0.26635900000000134,56,0.2681593499999977
40379,33.11305726875,48,0.28227299999999644,59,0.2681593500000048
40380,33.39533026875,52,0.28227300000000355,79,0.8341740000000044
40381,33.67904526875,47,0.2837150000000008,51,0.2614680249999992
40382,33.954274768750004,51,0.2752295000000018,67,0.2614680249999992
40383,34.229504268750006,51,0.2752295000000018,70,0.25485127500000004
40384,34.49776876875001,49,0.2682645000000008,69,0.2681593499999977
40385,34.78004176875001,47,0.28227300000000355,70,0.2681593499999977
40386,35.06231476875001,55,0.28227299999999644,72,1.6484670000000037
40387,35.34602976875001,52,0.2837150000000008,52,0.2544641499999969
40388,35.61388676875001,52,0.26785699999999935,54,0.2508802750000001
40389,35.87797126875001,52,0.2640845000000027,58,0.25485127500000004
40390,36.14623576875001,52,0.2682645000000008,61,0.2681593499999977
40391,36.42850876875001,51,0.28227299999999644,64,0.2681593500000048
40392,36.71078176875001,55,0.28227300000000355,82,0.8341740000000044
40393,36.99449676875001,50,0.2837150000000008,53,0.2614680249999992
40394,37.26972626875001,54,0.2752295000000018,75,0.2614680249999992
40395,37.544955768750015,54,0.2752295000000018,80,0.2530410500000002
40396,37.811314768750016,52,0.26635900000000134,77,0.2681593499999977
40397,38.09358776875001,50,0.28227299999999644,77,0.2681593500000048
40398,38.375860768750016,59,0.28227300000000355,84,0.5589445000000026
40399,38.65957576875002,53,0.2837150000000008,56,0.2614680249999992
40400,38.93480526875002,59,0.2752295000000018,73,0.25485127500000004
40401,39.20306976875002,59,0.2682645000000008,77,0.2530410500000002
40402,39.46942876875002,58,0.26635900000000134,70,0.2681593499999977
40403,39.751701768750024,54,0.28227300000000355,68,0.2751760499999989
40404,40.041360768750025,57,0.28965900000000033,61,0.5589445000000026
40405,40.325075768750025,51,0.2837150000000008,39,0.2614680249999992
40406,40.60030526875003,57,0.2752295000000018,55,0.2614680249999992
40407,40.87553476875003,57,0.2752295000000018,59,0.2530410500000002
40408,41.14189376875003,56,0.26635900000000134,54,0.2681593499999977
40409,41.42416676875003,52,0.28227299999999644,52,0.2780759250000031
40410,41.71687826875003,55,0.2927115000000029,58,0.27374915000000044
40411,42.00503526875003,54,0.2881569999999982,53,0.2681593499999977
40412,42.287308268750024,55,0.28227299999999644,53,0.27325881666666874
40413,42.5749749354167,59,0.2876666666666736,56,0.5661665000000013
40414,42.8529844354167,55,0.27800950000000313,36,0.27374915000000044
40415,43.1411414354167,57,0.2881569999999982,52,0.27374915000000044
40416,43.429298435416705,55,0.2881570000000053,55,1.9509329999999991
40417,43.713013435416705,50,0.2837150000000008,35,0.2614680249999992
40418,43.98824293541671,50,0.2752295000000018,36,0.2576385750000014
40419,44.259441435416704,50,0.271198499999997,37,0.25890255000000195
40420,44.5319704354167,50,0.2725289999999987,39,0.2681593499999977
40421,44.8142434354167,50,0.28227299999999644,40,0.2681593500000048
40422,45.0965164354167,31,0.28227300000000355,53,0.26952924999999794
40423,45.380231435416704,55,0.2837150000000008,60,0.2614680249999992
40424,45.655460935416706,54,0.2752295000000018,57,0.25485127500000004
40425,45.923725435416706,57,0.2682645000000008,64,0.2477614250000002
40426,46.184526935416706,55,0.26080149999999946,58,0.2681593499999977
40427,46.4667999354167,51,0.28227299999999644,59,0.2681593500000048
40428,46.749072935416706,55,0.28227300000000355,62,1.9325650000000039
40429,47.03278793541671,50,0.2837150000000008,39,0.2614680249999992
40430,47.30801743541671,50,0.2752295000000018,40,0.2530410500000002
40431,47.57437643541671,50,0.26635900000000134,42,0.246050474999997
40432,47.83337693541671,50,0.2590004999999991,44,0.2681593499999977
40433,48.11564993541671,50,0.28227300000000355,45,0.2681593499999977
40434,48.39792293541671,31,0.28227299999999644,53,0.26952924999999794
40435,48.68163793541671,55,0.2837150000000008,60,0.2614680249999992
40436,48.95686743541671,54,0.2752295000000018,57,0.2614680249999992
40437,49.232096935416706,57,0.2752294999999947,64,0.2494966000000005
40438,49.494724935416706,55,0.2626279999999994,58,0.2681593499999977
40439,49.7769979354167,51,0.28227299999999644,59,0.2681593500000048
40440,50.059270935416706,55,0.28227300000000355,62,2.497360999999998
40441,50.342985935416706,50,0.2837150000000008,39,0.2614680249999992
40442,50.61821543541671,50,0.2752295000000018,40,0.2576385750000014
40443,50.889413935416705,50,0.271198499999997,42,0.25890255000000195
40444,51.161942935416704,50,0.2725289999999987,44,0.2681593499999977
40445,51.44421593541671,50,0.28227300000000355,45,0.2681593499999977
40446,51.726488935416704,50,0.28227299999999644,42,0.26952924999999794
40447,52.010203935416705,50,0.2837150000000008,39,0.2614680249999992
40448,52.28543343541671,50,0.2752295000000018,41,0.2576385750000014
40449,52.5566319354167,54,0.271198499999997,64,0.5548019999999951
40450,52.8291609354167,50,0.2725289999999987,51,0.2681593499999977
40451,53.1114339354167,54,0.28227299999999644,67,0.2681593500000048
40452,53.3937069354167,54,0.28227300000000355,71,1.6672179999999983
40453,53.6774219354167,50,0.2837150000000008,48,0.2614680249999992
40454,53.952651435416705,50,0.2752295000000018,50,0.2576385750000014
40455,54.2238499354167,50,0.271198499999997,53,0.25890255000000195
40456,54.4963789354167,50,0.2725289999999987,56,0.2681593499999977
40457,54.778651935416704,50,0.28227300000000355,59,0.2681593499999977
40458,55.0609249354167,53,0.28227299999999644,78,1.6672179999999983
40459,55.3446399354167,47,0.2837150000000008,60,0.2614680249999992
40460,55.6198694354167,47,0.2752295000000018,63,0.2576385750000014
40461,55.8910679354167,50,0.271198499999997,67,0.25890255000000195
40462,56.1635969354167,47,0.2725289999999987,69,0.2681593499999977
40463,56.445869935416695,47,0.28227299999999644,73,0.2681593500000048
40464,56.7281429354167,18,0.28227300000000355,86,0.2872115999999991
40465,57.0304709354167,46,0.3023280000000028,78,0.2563874249999998
40466,57.3003524354167,51,0.2698814999999968,80,0.2494966000000005
40467,57.5629804354167,52,0.2626279999999994,82,0.24269792500000165
40468,57.8184519354167,44,0.25547149999999874,79,0.25890255000000195
40469,58.090980935416695,46,0.2725289999999987,78,0.2709124499999973
40470,58.376151935416694,49,0.2851709999999983,86,0.8288909999999987
40471,58.672009935416696,45,0.2958580000000026,50,0.2551248749999999
40472,58.940562435416695,45,0.2685524999999984,50,0.25125647499999815
40473,59.20504293541669,47,0.2644804999999977,84,1.1273200000000045
40474,59.46767093541669,45,0.2626279999999994,50,0.2681593499999977
40475,59.749943935416695,45,0.28227300000000355,50,0.27374915000000044
40476,60.03810093541669,16,0.2881569999999982,82,0.27954890000000177
40477,60.3323629354167,52,0.29426200000000335,82,0.2576385750000014
40478,60.603561435416694,58,0.271198499999997,86,0.2477614250000002
40479,60.86436293541669,61,0.26080149999999946,91,0.24269792500000165
40480,61.11983443541669,59,0.25547149999999874,86,0.2530410500000002
40481,61.38619343541669,56,0.26635900000000134,86,0.27231037499999644
40482,61.67283593541669,54,0.28664249999999925,101,0.8543110000000027
40483,61.95947843541669,49,0.28664249999999925,74,0.26410902500000333
40484,62.237487935416695,49,0.27800950000000313,74,0.2751760499999989
40485,62.527146935416695,56,0.28965900000000033,96,1.1399974999999998
40486,62.8051564354167,52,0.27800950000000313,74,0.2681593499999977
40487,63.087429435416695,52,0.28227299999999644,71,0.2681593500000048
40488,63.3697024354167,18,0.28227300000000355,71,0.2825698999999986
40489,63.667144435416695,49,0.29744199999999665,82,0.2576385750000014
40490,63.93834293541669,54,0.271198499999997,86,0.2530410500000002
40491,64.2047019354167,58,0.26635900000000134,89,0.2494966000000005
40492,64.4673299354167,56,0.2626280000000065,86,0.25485127499999294
40493,64.7355944354167,52,0.2682645000000008,86,0.27231037500000355
40494,65.0222369354167,51,0.28664249999999925,96,0.8675415000000015
40495,65.3149484354167,48,0.2927114999999958,66,0.2709124499999973
40496,65.6001194354167,48,0.2851710000000054,66,0.2751760499999989
40497,65.8897784354167,52,0.28965900000000033,95,1.1873575000000045
40498,66.1734934354167,47,0.2837150000000008,64,0.2751760499999989
40499,66.4631524354167,47,0.28965900000000033,61,0.2751760499999989
40500,66.7528114354167,30,0.28965900000000033,65,0.30810827499999505
40501,67.0771359354167,47,0.324324500000003,66,0.26952925000000505
40502,67.3608509354167,49,0.2837150000000008,69,0.278075924999996
40503,67.6535624354167,52,0.2927114999999958,69,0.2780759250000102
40504,67.94627393541671,51,0.29271150000001,69,0.27374915000000044
40505,68.23443093541671,47,0.2881569999999982,61,0.30106339999998966
40506,68.55205793541671,49,0.31762700000000166,70,1.745705000000001
40507,68.84631993541672,46,0.29426200000000335,43,0.2681593500000048
40508,69.12859293541672,46,0.28227300000000355,42,0.2681593499999906
40509,69.41086593541672,46,0.28227300000000355,43,0.2681593499999906
40510,69.69313893541671,46,0.28227299999998934,39,0.2744873000000041
40511,69.98207293541671,46,0.2889339999999976,37,0.29990549999999416
40512,70.29776293541671,50,0.3156900000000036,52,0.7122982500000035
40513,70.58591993541671,45,0.2881569999999982,34,0.26677899999999966
40514,70.86673993541672,45,0.2808200000000056,34,0.26766887500001246
40515,71.01006118541672,50,0.14332124999999962,34,0.07166062500000692
40516,71.08172181041672,52,0.07166062500000692,34,0.06585875000000385
40517,71.14758056041673,50,0.06585875000000385,51,0.2585500999999937
40518,71.41973856041673,49,0.27215800000000456,49,0.27374915000000044
40519,71.70789556041673,50,0.2881569999999982,49,0.27374915000000044
40520,71.99605256041673,52,0.2881569999999982,52,0.8500755000000026
40521,72.28723006041673,47,0.2911775000000034,33,0.2681593500000048
40522,72.56950306041674,47,0.28227300000000355,34,0.26279375000000016
40523,72.84612806041673,50,0.2766249999999957,51,0.5630930000000092
40524,73.12694806041674,47,0.2808200000000056,37,0.2681593500000048
40525,73.40922106041674,47,0.28227300000000355,38,0.2681593499999906
40526,73.69149406041674,50,0.28227300000000355,56,0.26952925000000505
40527,73.97520906041674,50,0.2837150000000008,47,0.2614680249999992
40528,74.25043856041674,52,0.2752294999999947,60,0.25125647500000525
40529,74.51491906041674,54,0.2644805000000048,63,0.2494966000000005
40530,74.77754706041675,55,0.2626280000000065,67,0.2681593500000048
40531,75.05982006041675,57,0.28227300000000355,67,0.270807149999996
40532,75.34503506041676,59,0.285215000000008,72,1.9423625000000015
40533,75.62875006041676,55,0.2837150000000008,48,0.2614680249999992
40534,75.90397956041676,55,0.2752294999999947,49,0.2494966000000005
40535,76.16660756041676,55,0.2626280000000065,51,0.25890255000000195
40536,76.43913656041677,55,0.2725290000000058,53,0.2681593500000048
40537,76.72140956041677,29,0.28227300000000355,55,0.2681593499999906
40538,77.00368256041676,28,0.28227299999998934,60,0.26952925000000505
40539,77.28739756041676,40,0.2837150000000008,31,0.2614680249999992
40540,77.56262706041676,52,0.2752294999999947,40,0.26330200000001014
40541,77.70303706041676,52,0.1404100000000028,40,0.0702050000000014
40542,77.77324206041676,54,0.0702050000000014,40,0.06585875000000385
40543,77.83910081041677,52,0.06585875000000385,61,0.2494966000000005
40544,78.10172881041677,51,0.2626280000000065,56,0.2681593500000048
40545,78.38400181041678,52,0.28227300000000355,58,0.2681593499999906
40546,78.66627481041678,54,0.28227300000000355,62,0.821572500000002
40547,78.94998981041678,49,0.2837150000000008,39,0.2614680249999992
40548,79.22521931041678,49,0.2752294999999947,40,0.2494966000000005
40549,79.48784731041678,52,0.2626280000000065,60,0.8370749999999987
40550,79.76037631041679,49,0.2725290000000058,44,0.2681593500000048
40551,80.04264931041679,49,0.28227300000000355,45,0.2681593499999906
40552,80.32492231041678,52,0.28227299999998934,56,0.26952925000000505
40553,80.60863731041678,52,0.2837150000000008,47,0.2614680249999992
40554,80.88386681041678,54,0.2752294999999947,60,0.25125647500000525
40555,81.14834731041678,56,0.2644805000000048,63,0.24436232499999733
40556,81.40557081041678,57,0.25722349999999494,67,0.2681593500000048
40557,81.68784381041678,59,0.28227300000000355,67,0.270807149999996
40558,81.97305881041679,61,0.285215000000008,72,1.6705860000000001
40559,82.25677381041679,57,0.2837150000000008,59,0.2614680249999992
40560,82.53200331041678,57,0.2752294999999947,55,0.25668715000000475
40561,82.80220031041678,57,0.270196999999996,62,0.25890255000000195
40562,83.07472931041679,57,0.2725290000000058,66,0.2681593500000048
40563,83.35700231041679,57,0.28227300000000355,70,0.27231037500000355
40564,83.64364481041679,62,0.28664249999999925,78,0.8371015000000028
40565,83.93028731041679,57,0.28664249999999925,58,0.2614680249999992
40566,84.20551681041678,57,0.2752294999999947,58,0.2614680249999992
40567,84.48074631041679,59,0.2752295000000089,74,0.8456594999999965
40568,84.7630193104168,55,0.28227300000000355,57,0.2614680249999992
40569,85.03824881041679,55,0.2752294999999947,57,0.27374915000000044
40570,85.32640581041679,61,0.2881569999999982,74,0.8270839999999993
40571,85.60303081041678,56,0.2766249999999957,55,0.2614680249999992
40572,85.87826031041678,56,0.2752294999999947,55,0.2614680249999992
40573,86.15348981041679,58,0.2752295000000089,70,0.8471614999999986
40574,86.43576281041679,54,0.28227300000000355,52,0.2614680249999992
40575,86.71099231041678,54,0.2752294999999947,52,0.2751760499999989
40576,87.00065131041679,60,0.28965900000000033,66,0.8270839999999993
40577,87.27727631041678,55,0.2766249999999957,51,0.2614680249999992
40578,87.55250581041678,55,0.2752294999999947,51,0.2614680249999992
40579,87.82773531041678,57,0.2752295000000089,63,2.513214833333336
40580,88.11000831041679,53,0.28227300000000355,48,0.2614680249999992
40581,88.38523781041678,52,0.2752294999999947,48,0.2614680249999992
40582,88.66046731041679,51,0.2752295000000089,56,0.2563874249999998
40583,88.93034881041679,51,0.2698814999999968,58,0.26011552500000334
40584,89.20422581041679,52,0.2738769999999988,60,0.26404362499999934
40585,89.48223981041679,53,0.2780139999999989,62,0.26808358333335036
40586,89.76450914375013,53,0.28226933333334614,64,0.2722990500000009
40587,90.05129114375012,54,0.2867819999999881,66,0.2751760500000131
40588,90.34095014375012,58,0.28965900000000033,77,1.1067030000000102
40589,90.62466514375012,54,0.2837150000000008,51,0.2614680249999992
40590,90.89989464375012,54,0.2752294999999947,55,0.2614680249999992
40591,91.17512414375012,52,0.2752295000000089,48,0.25890255000000195
40592,91.44765314375013,59,0.2725290000000058,66,0.2681593500000048
40593,91.72992614375013,55,0.28227300000000355,64,0.2751760499999989
40594,92.01958514375013,58,0.28965900000000033,69,0.2549147249999919
40595,92.15977214375013,56,0.1401869999999974,54,0.06373762500000169
40596,92.22350976875013,58,0.06373762500000169,49,0.06373762500000169
40597,92.28724739375014,56,0.06373762500000169,62,0.2614680249999992
40598,92.56247689375013,55,0.2752294999999947,64,0.2614680249999992
40599,92.83770639375014,56,0.2752295000000089,64,0.25890255000000195
40600,93.11023539375014,58,0.2725290000000058,60,0.2681593500000048
40601,93.39250839375015,53,0.28227300000000355,63,0.2681593499999906
40602,93.67478139375015,54,0.28227300000000355,62,1.939950500000009
40603,93.95849639375015,49,0.2837150000000008,41,0.2614680249999992
40604,94.23372589375015,49,0.2752294999999947,42,0.25125647500000525
40605,94.49820639375015,49,0.2644805000000048,44,0.25485127499999294
40606,94.76647089375015,49,0.2682645000000008,46,0.2681593500000048
40607,95.04874389375016,49,0.28227300000000355,47,0.2681593499999906
40608,95.33101689375016,30,0.28227300000000355,53,0.26952925000000505
40609,95.61473189375016,54,0.2837150000000008,60,0.2614680249999992
40610,95.88996139375016,53,0.2752294999999947,57,0.25485127499999294
40611,96.15822589375016,56,0.2682645000000008,62,0.2494966000000005
40612,96.42085389375016,54,0.2626280000000065,58,0.2681593500000048
40613,96.70312689375017,50,0.28227300000000355,59,0.2681593499999906
40614,96.98539989375016,54,0.28227299999998934,62,1.9423625000000015
40615,97.26911489375016,49,0.2837150000000008,41,0.2614680249999992
40616,97.54434439375015,49,0.2752294999999947,42,0.2494966000000005
40617,97.80697239375016,49,0.2626280000000065,44,0.25890255000000195
40618,98.07950139375016,49,0.2725290000000058,46,0.2681593500000048
40619,98.36177439375017,49,0.28227300000000355,47,0.2681593499999906
40620,98.64404739375016,30,0.28227299999998934,53,0.26952925000000505
40621,98.92776239375016,54,0.2837150000000008,51,0.2614680249999992
40622,99.20299189375015,53,0.2752294999999947,48,0.25125647500000525
40623,99.46747239375016,56,0.2644805000000048,52,0.25125647499999104
40624,99.73195289375015,54,0.26448049999999057,49,0.2681593500000048
40625,100.01422589375015,50,0.28227300000000355,50,0.2681593499999906
40626,100.29649889375014,54,0.28227299999998934,47,3.2992263499999126
40627,100.58021389375014,49,0.2837150000000008,28,0.2614680249999992
40628,100.85544339375014,49,0.2752294999999947,29,0.2576385750000014
40629,101.12664189375013,49,0.271198499999997,30,0.25890255000000195
40630,101.39917089375014,49,0.2725290000000058,31,0.26399384166666096
40631,101.6772492354168,49,0.27807834166665657,33,0.2648237166666405
40632,101.95602645208344,49,0.27877721666664,34,0.26163696666665714
40633,102.23123806875009,49,0.2752116166666525,34,0.25675697500000183
40634,102.50150856875008,49,0.2702704999999952,37,0.2522121749999968
40635,102.76699506875008,49,0.2654864999999944,39,0.25890255000000195
40636,103.03952406875008,49,0.2725290000000058,39,0.26318609166665397
40637,103.31679466041675,49,0.2772705916666638,42,0.2648460833332962
40638,103.59572524375005,49,0.278930583333306,43,0.26627376666665725
40639,103.87588791041671,49,0.280162666666655,42,0.26174795833331643
40640,104.15133449375003,49,0.27544658333331995,41,0.25723057500000834
40641,104.42201799375003,49,0.2706835000000041,39,0.2572491250000013
40642,104.69290349375004,49,0.27088550000000566,39,0.2615576833333222
40643,104.96835007708336,49,0.27544658333331995,36,0.26586083333333477
40644,105.24829541041669,49,0.2799453333333304,35,0.26952925000000505
40645,105.53201041041669,49,0.2837150000000008,34,0.2614680249999992
40646,105.80723991041668,49,0.2752294999999947,33,0.2633945833333371
40647,106.08467549375003,49,0.27743558333334306,32,0.27058308333333514
40648,106.36975132708336,49,0.2850758333333374,29,0.28333074166667416
40649,106.66831049375003,49,0.2985591666666636,28,0.6877060000000057
40650,106.99457049375003,11,0.3262600000000049,61,1.7070525000000032
40651,107.35601649375003,49,0.3614460000000008,39,0.2563874249999998
40652,107.62589799375003,51,0.2698814999999968,39,0.2477614249999931
40653,107.88669949375003,52,0.26080149999999946,41,0.24436232499999733
40654,108.14392299375002,44,0.25722349999999494,39,0.25890255000000195
40655,108.41645199375003,46,0.2725290000000058,39,0.2709124499999973
40656,108.70162299375004,49,0.2851710000000054,42,0.8356089999999909
40657,108.99748099375003,42,0.2958579999999955,20,0.255124875000007
40658,109.26603349375003,39,0.2685524999999984,19,0.2576385750000014
40659,109.53723199375003,47,0.271198499999997,40,0.8593100000000078
40660,109.80843049375002,42,0.271198499999997,20,0.2681593500000048
40661,110.09070349375003,42,0.28227300000000355,20,0.2896625000000057
40662,110.39654199375003,11,0.30583850000000723,57,1.6629444999999947
40663,110.71633749375003,52,0.3197954999999979,41,0.2533331749999945
40664,110.98300399375003,58,0.2666664999999995,44,0.25125647500000525
40665,111.24748449375004,61,0.2644805000000048,47,0.2460504750000041
40666,111.50648499375004,59,0.2590004999999991,42,0.2530410499999931
40667,111.77284399375003,56,0.26635899999999424,42,0.27231037500000355
40668,112.05948649375003,54,0.28664249999999925,49,0.8755069999999989
40669,112.35360399375003,49,0.2941174999999987,37,0.270142000000007
40670,112.63796399375003,49,0.2843600000000066,37,0.2821780249999932
40671,112.93499349375003,56,0.2970294999999936,48,0.8809025000000048
40672,113.21935349375003,52,0.2843600000000066,37,0.2753622500000006
40673,113.50920849375004,52,0.28985500000000286,36,0.2905114999999938
40674,113.81589599375003,11,0.30668749999999534,57,1.6767859999999928
40675,114.13941599375003,49,0.32352000000000203,41,0.2576385750000014
40676,114.41061449375003,54,0.271198499999997,44,0.25485127499999294
40677,114.67887899375003,58,0.2682645000000008,47,0.2477614249999931
40678,114.93968049375003,56,0.26080149999999946,42,0.2530410499999931
40679,115.20603949375003,52,0.26635899999999424,42,0.27231037500000355
40680,115.49268199375003,51,0.28664249999999925,49,0.8800735000000088
40681,115.78536499375002,47,0.2926829999999967,34,0.270142000000007
40682,116.06972499375003,47,0.2843600000000066,34,0.28787897499999815
40683,116.37275549375003,52,0.30303050000000553,48,0.9095985000000013
40684,116.66543849375003,47,0.2926829999999967,34,0.2864321250000046
40685,116.96694599375003,47,0.3015074999999996,32,0.2989425750000123
40686,117.28235399375004,11,0.315408000000005,58,1.6983384999999913
40687,117.61362599375003,40,0.33127199999999846,34,0.2576385750000014
40688,117.88482449375003,49,0.271198499999997,44,0.2585500999999937
40689,118.15698249375004,52,0.27215800000000456,47,0.2477614249999931
40690,118.41778399375004,51,0.26080149999999946,42,0.25668715000000475
40691,118.68798099375003,47,0.270196999999996,39,0.278075924999996
40692,118.98069249375003,49,0.2927114999999958,45,1.7194701666666674
40693,119.26733499375003,46,0.28664249999999925,32,0.2614680249999992
40694,119.54256449375002,46,0.2752294999999947,30,0.2611969583333291
40695,119.81758632708335,46,0.2750218333333265,32,0.26440921666667805
40696,120.09601424375002,46,0.2784279166666721,30,0.26814066666666747
40697,120.37837291041669,46,0.2823586666666671,30,0.30416965000000573
40698,120.7001626604167,11,0.32178975000000776,62,1.7128055833333633
40699,121.0481096604167,49,0.3479470000000049,39,0.2563874249999998
40700,121.3179911604167,51,0.2698814999999968,41,0.26088760833333424
40701,121.59264024375004,52,0.2746490833333439,42,0.2494966000000005
40702,121.85526824375005,44,0.2626280000000065,40,0.25890255000000195
40703,122.12779724375005,46,0.2725290000000058,39,0.2709124499999973
40704,122.41296824375006,49,0.2851710000000054,42,0.8356089999999909
40705,122.70882624375005,45,0.2958579999999955,24,0.255124875000007
40706,122.97737874375005,45,0.2685524999999984,24,0.2576385750000014
40707,123.24857724375005,47,0.271198499999997,43,0.8652040000000056
40708,123.51977574375005,45,0.271198499999997,24,0.2681593500000048
40709,123.80204874375005,45,0.28227300000000355,24,0.29496710000000803
40710,124.11378124375005,11,0.3117325000000051,56,1.695527499999983
40711,124.44704074375005,52,0.33325949999999693,42,0.2576385750000014
40712,124.71823924375005,58,0.271198499999997,45,0.2614680249999992
40713,124.99346874375004,61,0.2752294999999947,47,0.2460504750000041
40714,125.25246924375004,59,0.2590004999999991,45,0.25668715000000475
40715,125.52266624375004,56,0.270196999999996,45,0.27231037500000355
40716,125.80930874375004,54,0.28664249999999925,51,0.8779130000000066
40717,126.10487524375004,49,0.2955665000000067,37,0.2638891000000001
40718,126.38265324375004,49,0.27777799999999786,37,0.28934007499999836
40719,126.68722174375004,56,0.304568500000002,49,0.894070499999998
40720,126.97131274375005,52,0.28409100000000365,37,0.28078817499999786
40721,127.26687924375005,52,0.2955665000000067,34,0.29775002499998493
40722,127.58129224375004,11,0.3144129999999876,57,1.7011480000000034
40723,127.93632174375004,49,0.35502950000000055,42,0.2576385750000014
40724,128.20752024375005,54,0.2711985000000112,45,0.25125647499999104
40725,128.47200074375004,58,0.26448049999999057,48,0.24436232499999733
40726,128.72922424375005,56,0.25722350000000915,45,0.25668715000000475
40727,128.99942124375005,52,0.270196999999996,45,0.2688680500000089
40728,129.28244024375005,51,0.2830189999999959,47,0.895417000000009
40729,129.57800674375005,47,0.2955665000000067,33,0.27142877500000395
40730,129.86372124375006,47,0.28571450000001164,33,0.29842919999998685
40731,130.17785724375005,52,0.31413599999999064,47,0.9256777500000055
40732,130.47785724375007,47,0.30000000000001137,31,0.29381457499999897
40733,130.78713574375007,47,0.3092785000000049,27,0.30022325000001615
40734,131.10353499375006,11,0.31639924999998925,56,1.7551707499999907
40735,131.44639199375007,40,0.3428570000000093,38,0.26267262499999333
40736,131.72288949375007,47,0.27649750000000495,39,0.26235865000001013
40737,131.99905649375006,51,0.27616699999998673,39,0.25668715000000475
40738,132.26925349375006,49,0.270196999999996,39,0.2681593499999906
40739,132.55152649375006,47,0.28227300000000355,35,0.2910968999999852
40740,132.85870574375005,51,0.30717924999999013,46,2.3082725000000153
40741,133.14534824375005,39,0.28664249999999925,30,0.26635529999998653
40742,133.42572224375004,39,0.2803739999999948,30,0.26635530000001495
40743,133.70609624375004,39,0.2803739999999948,30,0.26635530000001495
40744,133.98647024375006,39,0.2803740000000232,29,0.2681593499999906
40745,134.26874324375007,39,0.28227300000000355,29,0.28562842499999874
40746,134.56940474375006,11,0.3006614999999897,56,1.7447845000000086
40747,134.88920024375005,40,0.3197954999999979,38,0.2638891000000001
40748,135.16697824375007,47,0.27777800000001207,39,0.2688680500000089
40749,135.44999724375006,51,0.2830189999999959,39,0.2688680500000089
40750,135.73301624375006,49,0.2830189999999959,39,0.2740384249999863
40751,136.02147774375007,47,0.28846150000001103,35,0.278075924999996
40752,136.31418924375006,51,0.2927114999999958,46,1.127801500000004
40753,136.60083174375006,39,0.28664249999999925,30,0.26511650000000486
40754,136.87990174375005,39,0.27906999999999016,30,0.26511650000000486
40755,137.15897174375007,40,0.2790700000000186,24,0.2688680500000089
40756,137.44199074375007,49,0.2830189999999959,39,0.2740384249999863
40757,137.73045224375008,47,0.28846150000001103,35,0.278075924999996
40758,138.02316374375008,51,0.2927114999999958,46,1.127801500000004
40759,138.30980624375007,39,0.28664249999999925,30,0.26511650000000486
40760,138.58887624375006,39,0.27906999999999016,30,0.26511650000000486
40761,138.86794624375008,39,0.2790700000000186,23,0.2688680500000089
40762,139.15096524375008,49,0.2830189999999959,39,0.2753622500000006
40763,139.44082024375007,47,0.28985499999998865,35,0.2910968999999852
40764,139.74799949375006,11,0.30717924999999013,55,1.7550424999999734
40765,140.07536749375006,39,0.327368000000007,30,0.26635529999998653
40766,140.35574149375006,39,0.2803739999999948,30,0.26635530000001495
40767,140.63611549375005,39,0.2803739999999948,23,0.2701419999999928
40768,140.92047549375005,37,0.2843599999999924,23,0.2753622500000006
40769,141.21033049375004,44,0.28985499999998865,20,0.278075924999996
40770,141.50304199375003,47,0.2927114999999958,45,1.7248357499999827
40771,141.78968449375003,39,0.28664249999999925,30,0.26511650000000486
40772,142.06875449375002,39,0.27906999999999016,30,0.26511650000000486
40773,142.34782449375004,39,0.2790700000000186,23,0.2688680500000089
40774,142.63084349375004,37,0.2830189999999959,23,0.2753622500000006
40775,142.92069849375002,44,0.28985499999998865,20,0.2910968999999852
40776,143.22787774375,47,0.30717924999999013,45,0.6101085000000239
40777,143.54952474375003,42,0.3216470000000129,18,0.2740384249999863
40778,143.83798624375004,37,0.28846150000001103,30,0.2740384249999863
40779,144.12644774375002,47,0.2884614999999826,45,0.5585979999999893
40780,144.39092824375,42,0.26448049999999057,20,0.2794116249999945
40781,144.68504574375,37,0.2941174999999987,20,0.278075924999996
40782,144.97775724375,47,0.2927114999999958,45,0.5944122083333241
40783,145.28008524375,42,0.3023279999999886,18,0.27729130833333215
40784,145.57216945208333,37,0.2920842083333355,30,0.28555877499996996
40785,145.8730109520833,47,0.30084149999996157,45,0.6351233333333539
40786,146.18471728541664,42,0.31170633333334763,20,0.3069515750000278
40787,146.50813428541665,37,0.3234170000000063,20,0.36531378333336306
40788,146.89557849375,11,0.38744420833336335,53,2.07743366666665
40789,147.31468999375002,39,0.41911150000001385,30,0.314629216666674
40790,147.6458937854167,39,0.3312037916666668,30,0.3136673083333221
40791,147.97604461875002,39,0.3301508333333345,23,0.316578724999971
40792,148.30910686875,39,0.33306224999998335,23,0.3167505249999749
40793,148.64207361874998,39,0.33296674999996867,20,0.3144550166666704
40794,148.97301216041666,39,0.3309385416666828,23,0.3196001583333725
40795,149.30968686875002,39,0.3366747083333621,30,0.3290886083333078
40796,149.65639557708334,39,0.346708708333324,30,0.3388786333332803
40797,150.01335303541663,39,0.35695745833328374,23,0.4042554000000109
40798,150.33250203541664,42,0.3191490000000101,23,0.1063829999999939
40799,150.43888503541663,40,0.1063829999999939,23,0.606383099999988
40800,151.07718303541662,39,0.6382979999999918,20,0.8382353499999908
40801,151.95953603541662,39,0.8823529999999948,17,4.5
40802,0.0,56,0.0,49,0.60467625
40803,0.40311749999999996,35,0.40311749999999996,24,0.41117300000000007
40804,0.60467625,52,0.20155875000000006,44,0.20961425
40805,0.8142905,47,0.20961425,47,1.5374999999999999
40806,1.2335189999999998,35,0.4192284999999998,21,0.3607596500000001
40807,1.6132659999999999,35,0.37974700000000006,23,0.35403744999999986
40808,1.9859369999999998,35,0.372671,19,0.34756082499999996
40809,2.3517905,49,0.36585350000000005,50,0.7914820000000002
40810,2.737593,35,0.38580250000000005,24,0.4056795000000002
40811,3.1432725,51,0.4056795000000002,49,2.2931289999999995
40812,3.548952,35,0.40567949999999975,26,0.3710453
40813,3.939526,35,0.390574,28,0.3642637249999998
40814,4.3229615,35,0.38343550000000004,32,0.34969309999999965
40815,4.6910595,37,0.3680979999999998,35,0.3726710000000004
40816,5.0637305,35,0.3726710000000004,32,0.37267099999999953
40817,5.4364015,52,0.37267099999999953,51,0.8141324999999995
40818,5.839518999999999,35,0.4031174999999996,31,0.4110149999999999
40819,6.250533999999999,54,0.4110149999999999,54,2.36151425
40820,6.648517499999999,35,0.3979834999999996,32,0.8155142500000006
40821,6.847509249999999,56,0.19899175000000024,56,0.2055075000000004
40822,7.053016749999999,57,0.2055075000000004,57,1.5590314999999997
40823,7.464031749999999,35,0.4110149999999999,35,0.3733789749999996
40824,7.857062249999999,35,0.39303050000000006,32,0.3653847249999993
40825,8.24167775,35,0.3846154999999998,32,0.7683540000000004
40826,8.612048249999999,56,0.37037049999999994,53,0.8116625000000006
40827,9.01003175,35,0.3979835000000005,29,0.41367900000000013
40828,9.42371075,56,0.41367900000000013,53,1.5623517499999995
40829,9.8139235,35,0.3902127499999999,26,0.3858025000000005
40830,10.199726,45,0.3858025000000005,34,0.3858024999999987
40831,10.585528499999999,54,0.3858024999999987,49,0.4005340000000004
40832,10.9860625,52,0.4005340000000004,46,0.7087952499999997
40833,11.3865965,35,0.4005340000000004,27,0.4110150000000008
40834,11.694857749999999,54,0.30826124999999927,45,0.10275375000000153
40835,11.7976115,54,0.10275375000000153,51,0.44382491666666724
40836,11.925417966666668,56,0.12780646666666762,46,0.12605261666666578
40837,12.051470583333334,54,0.12605261666666578,46,0.12429102499999978
40838,12.175761608333334,53,0.12429102499999978,51,0.1257155000000001
40839,12.241436416666668,35,0.06567480833333406,31,0.4923039583333342
40840,12.301477108333334,54,0.060040691666666035,46,0.13235810000000114
40841,12.433835208333335,56,0.13235810000000114,46,0.14108355833333341
40842,12.574918766666668,57,0.14108355833333341,46,0.15882160833333359
40843,12.733740375000002,56,0.15882160833333359,49,0.6206894999999992
40844,13.147533375000002,35,0.4137930000000001,30,0.4165107499999987
40845,13.354429875000001,52,0.20689649999999915,44,0.20961424999999956
40846,13.564044125,47,0.20961424999999956,46,2.3473710000000025
40847,13.983272625000001,35,0.4192285000000009,21,0.3665123749999992
40848,14.369075125000002,35,0.3858025000000005,24,0.3598485999999994
40849,14.747863125000002,35,0.3787880000000001,21,0.3534664999999997
40850,15.119933125000003,49,0.3720700000000008,50,0.7914820000000002
40851,15.505735625000003,35,0.3858025000000005,28,0.38539552499999985
40852,15.911415125000003,51,0.40567949999999975,49,2.309043499999996
40853,16.317094625000003,35,0.40567949999999975,31,0.3642637250000007
40854,16.700530125000004,35,0.38343550000000093,29,0.36426372499999715
40855,17.083965625,35,0.3834354999999974,32,0.3555831000000005
40856,17.458263625,37,0.3742979999999996,35,0.3810974999999992
40857,17.839361125,35,0.3810974999999992,32,0.3810974999999992
40858,18.220458625,52,0.3810974999999992,51,0.8141324999999995
40859,18.623576125,35,0.40311750000000046,31,0.411014999999999
40860,19.034591125,54,0.411014999999999,54,2.349442249999999
40861,19.432574624999997,35,0.3979834999999987,32,0.8155142499999997
40862,19.631566375,56,0.19899175000000113,56,0.2055074999999995
40863,19.837073874999998,57,0.2055074999999995,57,1.5469594999999998
40864,20.248088874999997,35,0.411014999999999,35,0.3562499999999993
40865,20.623088874999997,35,0.375,32,0.3518519749999989
40866,20.993459374999997,35,0.37037049999999994,32,0.7885574999999996
40867,21.384033374999998,56,0.39057400000000086,53,0.8116624999999971
40868,21.782016874999997,35,0.3979834999999987,29,0.41367899999999835
40869,22.195695874999995,56,0.41367899999999835,53,1.5602875000000012
40870,22.583844374999995,35,0.3881484999999998,31,0.3858025000000005
40871,22.969646874999995,45,0.3858025000000005,34,0.3858025000000005
40872,23.355449374999996,54,0.3858025000000005,49,0.4005340000000004
40873,23.755983374999996,52,0.4005340000000004,46,0.7959995000000006
40874,24.156517374999996,35,0.4005340000000004,24,0.39546550000000025
40875,24.551982874999997,51,0.39546550000000025,51,0.4005340000000004
40876,24.952516874999997,52,0.4005340000000004,49,0.4192284999999991
40877,25.371745374999996,54,0.4192284999999991,54,0.7886825000000002
40878,25.772279374999997,35,0.4005340000000004,32,0.3881484999999998
40879,26.160427874999996,54,0.3881484999999998,54,1.5458345000000016
40880,26.529431374999998,35,0.3690035000000016,25,0.3881484999999998
40881,26.917579874999998,42,0.3881484999999998,30,0.3881484999999998
40882,27.305728374999997,35,0.3881484999999998,32,0.4005340000000004
40883,27.706262374999998,56,0.4005340000000004,54,0.793448999999999
40884,28.101727874999998,40,0.39546550000000025,33,0.3979834999999987
40885,28.499711374999997,57,0.3979834999999987,57,0.3654079999999986
40886,28.865119374999995,56,0.3654079999999986,53,0.3858025000000005
40887,29.250921874999996,54,0.3858025000000005,53,0.3930304999999983
40888,29.643952374999994,52,0.3930304999999983,53,0.4109589999999983
40889,30.054911374999993,56,0.4109589999999983,55,1.6217989166666698
40890,30.465870374999994,35,0.41095900000000185,32,0.39148891666666685
40891,30.85735929166666,44,0.39148891666666685,34,0.40268449999999945
40892,31.26004379166666,35,0.40268449999999945,27,0.4166665000000016
40893,31.676710291666662,54,0.4166665000000016,57,0.3947370000000028
40894,32.071447291666665,50,0.3947370000000028,51,0.36809800000000337
40895,32.43954529166667,49,0.36809800000000337,54,0.37429800000000313
40896,32.81384329166667,47,0.37429800000000313,54,0.374297999999996
40897,33.18814129166667,49,0.374297999999996,59,0.6745895000000033
40898,33.56243929166667,34,0.37429800000000313,34,0.4065087500000004
40899,33.75651354166667,50,0.1940742499999999,51,0.0708114999999978
40900,33.82732504166667,49,0.0708114999999978,51,0.035405750000002456
40901,33.89813654166667,47,0.07081150000000491,51,0.0708114999999978
40902,33.96894804166667,49,0.0708114999999978,54,0.5947390000000041
40903,34.35952204166667,34,0.39057400000000086,29,0.4083299999999994
40904,34.563687041666675,50,0.20416500000000326,47,0.20416499999999616
40905,34.76785204166667,47,0.20416499999999616,51,0.7961480000000023
40906,35.16088254166667,35,0.39303050000000184,30,0.40311750000000046
40907,35.564000041666674,54,0.40311750000000046,62,0.7662435000000016
40908,35.942095041666676,35,0.37809500000000185,31,0.3881484999999998
40909,36.330243541666675,52,0.3881484999999998,65,0.7668710000000019
40910,36.71367904166667,35,0.3834354999999974,29,0.3834355000000045
40911,37.09711454166668,55,0.3834355000000045,59,0.7865529999999978
40912,37.480550041666675,35,0.3834354999999974,34,0.40311750000000046
40913,37.883667541666675,54,0.40311750000000046,63,0.8062350000000009
40914,38.286785041666676,35,0.40311750000000046,37,0.40311750000000046
40915,38.689902541666676,54,0.40311750000000046,56,1.5261015000000029
40916,39.093020041666676,35,0.40311750000000046,39,0.3598485999999994
40917,39.47180804166668,35,0.3787880000000001,43,0.3598485999999994
40918,39.85059604166668,35,0.3787880000000001,40,0.3471376000000035
40919,40.21600404166668,56,0.3654080000000022,57,0.8144190000000009
40920,40.61398754166668,35,0.39798350000000227,44,0.4164354999999986
40921,41.03042304166668,57,0.4164354999999986,63,0.3654080000000022
40922,41.39583104166668,56,0.3654080000000022,54,0.3834354999999974
40923,41.77926654166668,54,0.3834354999999974,54,0.4005340000000004
40924,42.17980054166668,52,0.4005340000000004,54,0.41922850000000267
40925,42.59902904166668,56,0.41922850000000267,51,1.9518215000000012
40926,43.00470854166668,32,0.405679499999998,36,0.38580249999999694
40927,43.39051104166668,44,0.38580249999999694,36,0.38580250000000404
40928,43.77631354166668,32,0.38580250000000404,31,0.39798350000000227
40929,44.174297041666684,20,0.39798350000000227,43,0.3765535
40930,44.550850541666684,52,0.3765535,54,0.3834354999999974
40931,44.93428604166668,51,0.3834354999999974,54,0.39303050000000184
40932,45.32731654166668,49,0.39303050000000184,54,0.39303049999999473
40933,45.72034704166668,51,0.39303049999999473,59,0.6979586250000054
40934,46.11337754166668,32,0.39303050000000184,33,0.4133410000000026
40935,46.309892791666684,52,0.19651525000000447,52,0.07227524999999702
40936,46.38216804166668,51,0.07227524999999702,52,0.03613762500000206
40937,46.454443291666685,49,0.07227525000000412,53,0.07227524999999702
40938,46.52671854166668,51,0.07227524999999702,55,0.4005340000000004
40939,46.92725254166668,52,0.4005340000000004,51,0.4005340000000004
40940,47.32778654166668,49,0.4005340000000004,51,0.7987099999999998
40941,47.720817041666685,32,0.39303050000000184,37,0.405679499999998
40942,48.12649654166668,56,0.405679499999998,59,0.7621949999999984
40943,48.507594041666685,32,0.38109750000000275,39,0.38109749999999565
40944,48.88869154166668,54,0.38109749999999565,59,0.7876446666666652
40945,49.27449404166668,32,0.38580249999999694,37,0.4018421666666683
40946,49.676336208333346,57,0.4018421666666683,63,0.8091445000000022
40947,50.071801708333346,32,0.39546550000000025,36,0.4136790000000019
40948,50.48548070833335,56,0.4136790000000019,57,0.3720700000000008
40949,50.85755070833335,52,0.3720700000000008,53,0.38109750000000275
40950,51.23864820833335,51,0.38109750000000275,53,0.3834354999999974
40951,51.62208370833335,49,0.3834354999999974,53,0.405679499999998
40952,52.02776320833335,51,0.405679499999998,59,0.6919481249999961
40953,52.413565708333344,32,0.38580249999999694,37,0.4145584999999983
40954,52.611298458333344,52,0.19773275000000012,55,0.07227524999999702
40955,52.68357370833334,51,0.07227524999999702,55,0.03613762500000206
40956,52.755848958333345,49,0.07227525000000412,55,0.07227524999999702
40957,52.82812420833334,51,0.07227524999999702,55,0.5931982500000004
40958,53.22358970833334,32,0.39546550000000025,39,0.39546550000000025
40959,53.42132245833334,52,0.19773275000000012,51,0.19773275000000012
40960,53.61905520833334,49,0.19773275000000012,51,0.7912660000000002
40961,54.00720370833334,32,0.3881484999999998,37,0.40311750000000046
40962,54.41032120833334,54,0.40311750000000046,62,0.7762969999999996
40963,54.79846970833334,32,0.3881484999999998,39,0.3881484999999998
40964,55.18661820833334,56,0.3881484999999998,65,0.8037954999999997
40965,55.58208370833334,32,0.39546550000000025,43,0.4083299999999994
40966,55.99041370833334,54,0.4083299999999994,62,0.8089985000000013
40967,56.388397208333345,32,0.39798350000000227,43,0.411014999999999
40968,56.799412208333344,56,0.411014999999999,66,2.474957250000017
40969,57.199946208333344,32,0.4005340000000004,39,0.4004450000000048
40970,57.60039120833335,32,0.4004450000000048,39,0.4022431666666719
40971,58.00263437500002,32,0.4022431666666719,39,0.4077100833333347
40972,58.410344458333356,44,0.4077100833333347,43,0.41958050000000213
40973,58.82992495833336,33,0.41958050000000213,36,0.9059830000000062
40974,59.27436945833336,54,0.444444500000003,51,0.9850985000000065
40975,59.735907958333364,35,0.4615385000000032,27,0.5235600000000034
40976,60.25946795833337,56,0.5235600000000034,49,0.6046762499999971
40977,60.66258545833337,35,0.40311750000000046,30,0.411172999999998
40978,60.864144208333364,52,0.20155874999999668,45,0.20961425000000133
40979,61.073758458333366,47,0.20961425000000133,49,1.5490514999999903
40980,61.49298695833336,35,0.41922849999999556,23,0.3881484999999998
40981,61.88113545833336,35,0.3881484999999998,23,0.36900349999999804
40982,62.25013895833336,35,0.36900349999999804,19,0.37267099999999687
40983,62.622809958333356,49,0.37267099999999687,49,0.7914819999999949
40984,63.00861245833335,35,0.38580249999999694,28,0.405679499999998
40985,63.41429195833335,51,0.405679499999998,49,2.309069000000008
40986,63.819971458333356,35,0.4056795000000051,26,0.3881484999999998
40987,64.20811995833336,35,0.3881484999999998,28,0.38109749999999565
40988,64.58921745833335,35,0.38109749999999565,32,0.38109750000000986
40989,64.97031495833336,37,0.38109750000000986,35,0.3728179999999952
40990,65.34313295833336,35,0.3728179999999952,32,0.38022800000000245
40991,65.72336095833336,52,0.38022800000000245,51,0.8141324999999995
40992,66.12647845833335,35,0.40311749999999336,29,0.4110150000000061
40993,66.53749345833336,54,0.4110150000000061,54,2.385526249999998
40994,66.93547695833335,35,0.39798349999999516,32,0.8155142500000068
40995,67.13446870833336,56,0.19899175000000469,56,0.20550749999999596
40996,67.33997620833335,57,0.20550749999999596,57,1.5830435000000023
40997,67.75099120833336,35,0.4110150000000061,35,0.37569222499999455
40998,68.14645670833336,35,0.39546550000000025,32,0.37569222499999455
40999,68.54192220833336,35,0.39546550000000025,32,0.7790809999999908
41000,68.92301970833336,56,0.38109749999999565,53,0.8116624999999971
41001,69.32100320833335,35,0.39798349999999516,29,0.4136790000000019
41002,69.73468220833335,56,0.4136790000000019,53,1.1482489999999927
41003,70.12283070833335,35,0.3881484999999998,31,0.38580249999999694
41004,70.50863320833335,39,0.38580249999999694,40,0.374297999999996
41005,70.88293120833335,54,0.374297999999996,49,0.4005339999999933
41006,71.28346520833334,52,0.4005339999999933,46,0.8147285000000011
41007,71.68399920833335,35,0.4005340000000075,27,0.4141944999999936
41008,72.09819370833334,53,0.4141944999999936,51,0.44284970833332693
41009,72.22508434166667,54,0.12689063333333195,50,0.12563453333332575
41010,72.350718875,55,0.12563453333332575,52,0.12436276666666402
41011,72.47508164166666,56,0.12436276666666402,56,0.12583159166666746
41012,72.54104341666667,35,0.06596177500000522,31,0.4796958749999902
41013,72.60091323333333,59,0.059869816666662246,54,0.13102776666666216
41014,72.73194099999999,58,0.13102776666666216,53,0.13686189166666907
41015,72.86880289166666,57,0.13686189166666907,52,0.15193639999999675
41016,73.02073929166666,56,0.15193639999999675,49,0.6206894999999975
41017,73.43453229166666,35,0.4137929999999983,30,0.4165107500000005
41018,73.64142879166666,52,0.20689649999999915,44,0.20961425000000133
41019,73.85104304166666,47,0.20961425000000133,46,2.354254499999996
41020,74.27027154166666,35,0.41922850000000267,23,0.36874107500000264
41021,74.65842004166666,35,0.3881484999999998,24,0.36204262500000084
41022,75.03951754166665,35,0.38109749999999565,21,0.35558310000000404
41023,75.41381554166665,49,0.374297999999996,48,0.791482000000002
41024,75.79961804166665,35,0.38580249999999694,28,0.38539552500000696
41025,76.20529754166665,51,0.4056795000000051,49,2.3045859999999863
41026,76.61097704166664,35,0.40567949999999087,31,0.36874107500000264
41027,76.99912554166664,35,0.3881484999999998,29,0.36204262500000084
41028,77.38022304166664,35,0.38109749999999565,32,0.35772582500000283
41029,77.75677654166664,37,0.3765535,35,0.3765535
41030,78.13333004166664,35,0.3765535,32,0.3765535
41031,78.50988354166664,52,0.3765535,51,0.8141324999999995
41032,78.91300104166663,35,0.40311749999999336,31,0.4110150000000061
41033,79.32401604166664,54,0.4110150000000061,54,2.4103067500000037
41034,79.72199954166663,35,0.39798349999999516,32,0.8155142500000068
41035,79.92099129166664,56,0.19899175000000469,56,0.20550749999999596
41036,80.12649879166663,57,0.20550749999999596,57,1.607824000000008
41037,80.53751379166664,35,0.4110150000000061,35,0.40311749999999336
41038,80.94063129166663,35,0.40311749999999336,32,0.40311750000000757
41039,81.34374879166664,35,0.40311750000000757,32,0.7962535000000059
41040,81.73432279166664,51,0.39057400000000086,46,0.8485495000000043
41041,82.14000229166665,35,0.4056795000000051,29,0.4428699999999992
41042,82.58287229166665,54,0.4428699999999992,46,1.5541750000000008
41043,82.98340629166664,35,0.4005339999999933,26,0.380507300000005
41044,83.38394029166665,35,0.4005340000000075,29,0.35772582500000283
41045,83.76049379166665,35,0.3765535,27,0.35772582500000283
41046,84.13704729166665,35,0.3765535,30,0.34935015000000647
41047,84.50478429166665,35,0.3677370000000053,27,0.34935014999999225
41048,84.87252129166664,35,0.3677369999999911,30,0.3598486000000065
41049,85.25130929166664,35,0.3787880000000001,26,0.36874107500000264
41050,85.63945779166664,35,0.3881484999999998,31,0.7414582916666603
41051,86.01065279166664,35,0.37119500000000016,30,0.352262566666667
41052,86.3809160833333,35,0.37026329166666017,31,0.7201034583333268
41053,86.73988004166664,35,0.3589639583333337,32,0.34292014999999765
41054,87.10101954166663,28,0.36113949999999306,35,0.72331179166666
41055,87.46214383333329,35,0.3611242916666555,33,0.34407812500001
41056,87.82433133333329,27,0.36218750000000455,33,0.7423900000000003
41057,88.19552633333329,35,0.37119500000000016,31,0.35263525000000584
41058,88.56672133333329,35,0.37119500000000016,39,0.7423900000000003
41059,88.93791633333329,35,0.37119500000000016,36,0.35263525000000584
41060,89.30911133333329,35,0.37119500000000016,37,0.7114059999999967
41061,89.6648143333333,35,0.35570300000000543,37,0.33791784999999663
41062,90.02051733333329,35,0.3557029999999912,45,0.7243749999999949
41063,90.38270483333329,35,0.36218750000000455,38,0.3440781249999958
41064,90.74489233333328,28,0.36218749999999034,38,0.7378259999999983
41065,91.11380533333329,35,0.36891300000000626,36,0.3504673499999882
41066,91.48271833333328,35,0.36891299999999205,49,0.7243749999999949
41067,91.84490583333329,35,0.36218750000000455,42,0.3440781249999958
41068,92.20709333333328,30,0.36218749999999034,46,0.7072139999999933
41069,92.56070033333327,35,0.3536069999999967,42,0.33592665000000466
41070,92.91430733333327,35,0.3536069999999967,49,0.7200289999999967
41071,93.27432183333327,35,0.36001450000000546,40,0.3420137749999981
41072,93.63433633333327,30,0.36001449999999124,46,0.7471050000000048
41073,94.00788883333327,35,0.3735525000000024,39,0.35487487499999304
41074,94.38144133333327,35,0.3735525000000024,49,3.5889624999999796
41075,94.75499383333326,35,0.3735524999999882,40,0.3482828249999983
41076,95.12160733333326,35,0.3666134999999997,42,0.3420137749999981
41077,95.48162183333326,35,0.36001450000000546,41,0.3420137749999981
41078,95.84163633333326,35,0.36001449999999124,42,0.3308010249999995
41079,96.19018883333325,35,0.3485524999999967,41,0.33727802500000337
41080,96.54521833333325,35,0.35502950000000055,40,0.33237552500000334
41081,96.89534533333325,35,0.3501270000000005,40,0.33727802500000337
41082,97.25037483333325,35,0.35502950000000055,44,0.3420137749999981
41083,97.61038933333326,35,0.36001450000000546,39,0.3420137749999981
41084,97.97040383333325,35,0.36001449999999124,39,0.7060796666666818
41085,98.32284099999993,35,0.35243716666667524,37,0.3358573499999977
41086,98.67648349999993,35,0.3536425000000065,41,0.7064807083333022
41087,99.03278833333324,35,0.3563048333333114,37,0.33259912499998734
41088,99.38296420833323,28,0.3501758749999908,37,0.7243749999999949
41089,99.74515170833324,35,0.36218750000000455,35,0.3440781249999958
41090,100.10733920833323,30,0.36218749999999034,41,0.7114059999999967
41091,100.46304220833323,35,0.35570300000000543,35,0.33791784999999663
41092,100.81874520833323,28,0.3557029999999912,37,0.7282306666666614
41093,101.18313220833322,35,0.3643869999999936,31,0.34595031666667353
41094,101.54697587499989,35,0.3638436666666678,38,0.7168742500000178
41095,101.90506079166657,35,0.35808491666668374,35,0.34056998333333866
41096,102.2638501249999,35,0.35878933333333407,35,0.7115626249999707
41097,102.61912783333324,35,0.3552777083333325,33,0.33817554166664365
41098,102.97541274999988,27,0.3562849166666382,39,0.717784916666659
41099,103.33244583333321,35,0.3570330833333344,40,0.34285848333333035
41100,103.69319766666653,35,0.3607518333333246,41,0.7200289999999967
41101,104.05321216666654,35,0.36001450000000546,44,0.3420137749999981
41102,104.41322666666653,35,0.36001449999999124,46,0.7114059999999967
41103,104.76892966666654,35,0.35570300000000543,48,0.33791784999999663
41104,105.12463266666653,35,0.3557029999999912,49,0.7332269999999994
41105,105.49124616666653,35,0.3666134999999997,51,0.3482828249999983
41106,105.85785966666653,35,0.3666134999999997,53,2.8106163437499845
41107,106.20492116666652,47,0.34706149999999525,53,0.3393666000000053
41108,106.56214916666653,47,0.3572280000000063,55,0.3249717249999975
41109,106.90422466666652,47,0.34207549999999287,56,0.33411499999999705
41110,107.25490191666653,47,0.35067725000000394,57,0.31790086874998735
41111,107.59003776874985,47,0.33513585208332586,59,0.3371882166666609
41112,107.94541001041651,47,0.3553722416666574,60,0.34345634999999675
41113,108.3069430104165,47,0.36153299999999433,61,0.34345635000001096
41114,108.66847601041651,23,0.36153300000000854,62,0.697126874999995
41115,109.01553751041651,47,0.34706149999999525,59,0.33309897499999863
41116,109.36560288541651,23,0.3500653749999998,61,0.6944834999999898
41117,109.7049308854165,47,0.33932799999999474,59,0.3373977250000024
41118,110.0600863854165,40,0.3551554999999951,67,0.7022170000000045
41119,110.4152418854165,47,0.3551555000000093,60,0.32970842500000686
41120,110.7623033854165,27,0.34706149999999525,62,0.7103110000000044
41121,111.1174588854165,47,0.3551554999999951,58,0.3373977250000024
41122,111.4726143854165,23,0.3551555000000093,67,0.694287999999986
41123,111.8137948854165,47,0.341180499999993,61,0.3354521250000033
41124,112.16690238541649,23,0.353107499999993,66,0.7002609999999976
41125,112.5120078854165,47,0.3451055000000025,61,0.3373977250000024
41126,112.86716338541649,42,0.3551554999999951,71,0.6961469999999963
41127,113.21226888541649,47,0.3451055000000025,61,0.33348942499999623
41128,113.56331038541649,28,0.3510414999999938,68,1.4129350000000045
41129,113.9143518854165,47,0.351041500000008,61,0.34549647500000447
41130,114.2780323854165,47,0.36368050000000096,74,0.6982129999999955
41131,114.6231378854165,47,0.3451055000000025,68,0.3354521250000033
41132,114.97624538541649,30,0.353107499999993,73,0.7027371666666511
41133,115.32749421874983,47,0.35124883333334367,68,0.3338329583333035
41134,115.67898255208314,43,0.3514883333333074,78,0.7052729166666722
41135,116.03181001041648,47,0.35282745833333706,68,0.33468768333334253
41136,116.38425546874981,42,0.3524454583333352,73,0.7262923333333333
41137,116.73564130208315,47,0.35138583333333884,68,0.3561611749999969
41138,116.92309455208316,11,0.18745325000000435,82,0.18745324999999013
41139,117.11054780208315,47,0.18745324999999013,79,2.860175374999926
41140,117.46129792708314,47,0.3507501249999905,74,0.3340428416666583
41141,117.8128928437498,47,0.3515949166666559,77,0.3324034666666478
41142,118.16264938541643,47,0.34975654166663617,78,0.33327908333332346
41143,118.51358384374976,47,0.35093445833332737,79,0.33765884999999685
41144,118.86910409374975,47,0.3555202499999979,78,0.342267558333333
41145,119.22955567708308,47,0.3604515833333295,79,0.3484834416666587
41146,119.59655534374976,47,0.36699966666667194,80,0.35530465833332414
41147,119.97072317708307,47,0.37416783333331693,92,1.4168970000000058
41148,120.33009067708308,50,0.3593675000000047,83,0.3316269500000004
41149,120.67917167708308,50,0.3490809999999982,83,0.3316269500000004
41150,121.02825267708307,50,0.3490809999999982,79,0.34139912499999525
41151,121.38762017708308,47,0.3593675000000047,92,1.417554999999993
41152,121.74072767708307,50,0.353107499999993,83,0.32970842500000686
41153,122.08778917708307,50,0.34706149999999525,83,0.32970842500000686
41154,122.43485067708308,50,0.34706150000000946,79,0.35180827499999623
41155,122.80517517708307,47,0.3703244999999953,92,1.406998999999999
41156,123.15828267708306,50,0.353107499999993,83,0.32785022500000593
41157,123.50338817708307,50,0.3451055000000025,83,0.3278502249999917
41158,123.84849367708307,50,0.3451055000000025,79,0.34549647500000447
41159,124.21217417708307,47,0.36368050000000096,92,1.4642704999999978
41160,124.56528167708306,50,0.353107499999993,83,0.3354521250000033
41161,124.91838917708307,50,0.35310750000000724,83,0.3476035749999937
41162,125.28428767708307,25,0.3658985000000001,88,0.3921569999999974
41163,125.67644467708307,47,0.3921569999999974,92,1.402721166666666
41164,126.02350617708306,50,0.34706149999999525,83,0.3354521250000033
41165,126.37661367708306,50,0.353107499999993,83,0.3345747166666797
41166,126.72874046874973,50,0.35212679166667726,79,0.33307229999999777
41167,127.07916584374973,46,0.35042537500000037,92,1.4220393333333163
41168,127.42942709374972,50,0.3502612499999884,83,0.3336058749999893
41169,127.78068834374972,50,0.3512612499999932,83,0.33486675833330537
41170,128.13310717708305,50,0.35241883333333135,79,0.3496930999999961
41171,128.50120517708305,50,0.36809800000000337,88,1.4334014999999738
41172,128.85431267708304,35,0.353107499999993,63,0.3393666000000053
41173,129.21154067708304,35,0.3572279999999921,57,0.34345634999999675
41174,129.57307367708304,35,0.36153300000000854,49,0.34345634999999675
41175,129.93460667708302,35,0.3615329999999801,46,0.3411521000000164
41176,130.29383542708302,35,0.35922874999999976,42,0.3415392249999911
41177,130.653236052083,35,0.35940062499997794,39,0.3400925083333277
41178,131.01088063541633,35,0.35764458333332527,36,0.34147543333330077
41179,131.37011384374964,23,0.35923320833330763,35,0.7410921666666468
41180,131.74112534374964,35,0.3710115000000087,33,0.35208859166664297
41181,132.11120601041628,35,0.3700806666666381,33,0.7198090416666787
41182,132.47001992708294,35,0.3588139166666622,33,0.3427824000000044
41183,132.83101505208296,35,0.3609951250000165,35,0.7230328333333205
41184,133.1919913854163,35,0.36097633333332624,33,0.3439536749999945
41185,133.55404788541628,27,0.36205649999999423,33,0.742022999999989
41186,133.9250593854163,35,0.3710115000000087,31,0.3524609250000026
41187,134.29607088541627,35,0.3710114999999803,39,0.7420230000000174
41188,134.66708238541628,35,0.3710115000000087,36,0.3524609250000026
41189,135.0380938854163,35,0.3710115000000087,37,0.711069000000009
41190,135.3936283854163,35,0.3555345000000045,37,0.33775777500000004
41191,135.7491628854163,35,0.3555345000000045,45,0.7241129999999885
41192,136.1112193854163,35,0.36205649999999423,38,0.3439536749999945
41193,136.47327588541629,28,0.36205649999999423,38,0.7374629999999911
41194,136.84200738541628,35,0.36873149999999555,36,0.35029492500001425
41195,137.21073888541628,35,0.36873149999999555,49,0.7241129999999885
41196,137.57279538541627,35,0.36205649999999423,42,0.3439536749999945
41197,137.93485188541626,30,0.36205649999999423,46,0.7069639999999993
41198,138.28833388541628,35,0.35348200000001384,42,0.33580789999999183
41199,138.64181588541626,35,0.3534819999999854,49,0.7196830000000034
41200,139.00165738541625,35,0.3598414999999875,40,0.3418494250000208
41201,139.36149888541627,30,0.3598415000000159,46,0.7467330000000061
41202,139.73486538541627,35,0.37336650000000304,39,0.35469817500001
41203,140.10823188541627,35,0.37336650000000304,49,3.571350499999994
41204,140.48159838541628,35,0.37336650000000304,40,0.3481555250000099
41205,140.84807788541627,35,0.36647949999999696,42,0.3279632750000019
41206,141.19330238541627,35,0.3452245000000005,41,0.34050185000000965
41207,141.55172538541626,35,0.3584229999999877,42,0.33775777500000004
41208,141.90725988541627,35,0.3555345000000045,41,0.33775777500000004
41209,142.26279438541627,35,0.3555345000000045,40,0.3249717250000117
41210,142.60486988541626,35,0.34207549999999287,40,0.33727802499998916
41211,142.95989938541626,35,0.35502950000000055,44,0.3418494249999924
41212,143.31974088541625,35,0.3598414999999875,39,0.3418494250000208
41213,143.67958238541627,35,0.3598415000000159,39,0.7057543750000264
41214,144.03185401041625,35,0.352271624999986,37,0.3357060250000359
41215,144.3853367604163,35,0.35348275000004037,41,0.7061549166666055
41216,144.74147917708294,35,0.3561424166666427,37,0.33244397499996126
41217,145.0914916770829,28,0.35001249999996276,37,0.7241129999999885
41218,145.4535481770829,35,0.36205649999999423,35,0.3439536749999945
41219,145.8156046770829,30,0.36205649999999423,41,0.711069000000009
41220,146.1711391770829,35,0.3555345000000045,35,0.33775777500000004
41221,146.5266736770829,28,0.3555345000000045,37,0.7279624999999896
41222,146.89092817708288,35,0.36425449999998705,31,0.3458231750000209
41223,147.2546361770829,35,0.3637080000000026,38,0.7165787916666773
41224,147.61257538541625,35,0.357939208333363,35,0.3404268583333021
41225,147.97121496874956,35,0.35863958333331425,35,0.7112469999999576
41226,148.32633909374957,35,0.35512412500000323,33,0.3380200499999546
41227,148.68246196874952,27,0.3561228749999543,39,0.7174707916666989
41228,149.03933967708286,35,0.356877708333343,40,0.34270825833337426
41229,149.39993276041622,35,0.36059308333335593,41,0.7196830000000034
41230,149.7597742604162,35,0.3598414999999875,44,0.3418494250000208
41231,150.11961576041622,35,0.3598415000000159,46,0.711069000000009
41232,150.47515026041623,35,0.3555345000000045,48,0.33775777500000004
41233,150.83068476041623,35,0.3555345000000045,49,0.7329589999999939
41234,151.19716426041623,35,0.36647949999999696,51,0.3481555250000099
41235,151.56364376041623,35,0.36647949999999696,53,2.840134999999975
41236,151.91070526041622,47,0.34706149999999525,53,0.3393666000000053
41237,152.2679332604162,47,0.3572279999999921,55,0.3354521249999891
41238,152.6210407604162,47,0.353107499999993,56,0.33545212500001753
41239,152.9741482604162,47,0.353107499999993,57,0.33075254166666923
41240,153.32255617708284,47,0.3484079166666447,59,0.3399725583333577
41241,153.6807127604162,47,0.3581565833333684,60,0.34345634999999675
41242,154.04224576041622,47,0.36153300000000854,61,0.34345634999999675
41243,154.4037787604162,23,0.3615329999999801,62,0.6971268750000092
41244,154.7508402604162,47,0.34706149999999525,59,0.33309897500001284
41245,155.1009056354162,23,0.350065375000014,61,0.7089672500000006
41246,155.4402336354162,47,0.33932799999999474,59,0.3504331000000036
41247,155.8098728854162,28,0.36963925000000586,67,0.705484499999983
41248,156.1682958854162,47,0.3584229999999877,60,0.32970842500000686
41249,156.5153573854162,27,0.34706149999999525,62,0.7103109999999901
41250,156.8705128854162,47,0.3551554999999951,58,0.33739772500001664
41251,157.22566838541618,23,0.3551554999999951,67,0.6942880000000002
41252,157.5668488854162,47,0.3411805000000072,61,0.3354521249999891
41253,157.91995638541619,23,0.353107499999993,66,0.7053872500000011
41254,158.26506188541617,47,0.3451054999999883,61,0.34201135000000704
41255,158.6253436354162,42,0.36028175000001283,71,0.7060710000000086
41256,158.9803731354162,47,0.35502950000000055,61,0.33348942500001044
41257,159.3314146354162,28,0.351041500000008,68,1.4129349999999476
41258,159.68245613541617,47,0.3510414999999796,61,0.34549647500000447
41259,160.04613663541616,47,0.36368049999998675,74,0.6982129999999813
41260,160.39124213541615,47,0.3451054999999883,68,0.3354521249999891
41261,160.74434963541614,30,0.353107499999993,73,0.7027371666666511
41262,161.09559846874947,47,0.35124883333332946,68,0.33383295833334614
41263,161.4470868020828,43,0.35148833333332163,78,0.7052729166666154
41264,161.7999142604161,47,0.35282745833330864,68,0.3346876833332999
41265,162.1523597187494,30,0.35244545833330676,73,0.7262923333333333
41266,162.50374555208273,47,0.3513858333333246,68,0.3561611750000111
41267,162.69119880208274,11,0.18745325000000435,82,0.18745325000000435
41268,162.87865205208274,47,0.18745325000000435,79,2.8601753749998693
41269,163.22940217708268,47,0.35075012499993363,74,0.3340428416666157
41270,163.5809970937493,47,0.35159491666661324,77,0.33240346666661935
41271,163.93075363541593,47,0.34975654166663617,78,0.33327908333333767
41272,164.28168809374924,47,0.35093445833331316,79,0.33765884999999685
41273,164.63720834374925,47,0.3555202500000121,78,0.342267558333333
41274,164.99765992708257,47,0.3604515833333153,79,0.3484834416666729
41275,165.36465959374925,47,0.36699966666668615,80,0.35530465833335256
41276,165.7388274270826,47,0.37416783333335957,92,1.4168969999999774
41277,166.0981949270826,50,0.3593674999999905,83,0.3316269499999862
41278,166.44727592708261,50,0.3490810000000124,83,0.3316269499999862
41279,166.7963569270826,50,0.349080999999984,79,0.34139912500000946
41280,167.1557244270826,47,0.3593674999999905,92,1.417554999999993
41281,167.50883192708258,50,0.353107499999993,83,0.32970842500000686
41282,167.85589342708258,50,0.34706149999999525,83,0.32970842500000686
41283,168.20295492708257,50,0.34706149999999525,79,0.35180827499999623
41284,168.57327942708258,47,0.3703245000000095,92,1.4069989999999848
41285,168.92638692708258,50,0.353107499999993,83,0.3278502249999917
41286,169.27149242708256,50,0.3451054999999883,83,0.32785022500002015
41287,169.61659792708258,50,0.3451055000000167,79,0.34549647500000447
41288,169.98027842708257,47,0.36368049999998675,92,1.4775189999999725
41289,170.33338592708256,50,0.353107499999993,83,0.33545212500001753
41290,170.68649342708255,50,0.353107499999993,83,0.3476035749999937
41291,171.05239192708254,25,0.3658984999999859,88,0.40540550000000053
41292,171.45779742708254,47,0.40540550000000053,92,1.4027211666665664
41293,171.80485892708253,50,0.34706149999999525,83,0.3354521249999891
41294,172.15796642708253,50,0.353107499999993,83,0.33457471666662286
41295,172.51009321874915,50,0.3521267916666204,79,0.33307229999996935
41296,172.8605185937491,46,0.35042537499995774,92,1.4220393333333163
41297,173.2107798437491,50,0.3502612499999884,83,0.3336058749999893
41298,173.56204109374906,50,0.3512612499999648,83,0.3348667583333338
41299,173.91445992708242,50,0.35241883333335977,79,0.3496930999999961
41300,174.28255792708242,50,0.36809800000000337,88,1.4105894999999862
41301,174.63566542708242,47,0.353107499999993,63,0.3393666000000053
41302,174.9928934270824,47,0.3572279999999921,57,0.3279632750000019
41303,175.3381179270824,47,0.3452245000000005,55,0.33727802499998916
41304,175.6931474270824,47,0.35502950000000055,52,0.32773627499997815
41305,176.0386351770824,47,0.34548774999998955,50,0.3404553083333042
41306,176.3969518854157,47,0.358316708333291,48,0.3400925083333277
41307,176.754596468749,47,0.35764458333332527,48,0.34147543333330077
41308,177.11382967708232,51,0.35923320833330763,56,1.4215485770833425
41309,177.48151425416566,47,0.3676845770833381,44,0.3337236000000132
41310,177.83280225416567,47,0.3512880000000109,44,0.3337235999999848
41311,178.18409025416565,47,0.3512879999999825,44,0.3337236000000132
41312,178.53537825416566,52,0.3512880000000109,59,1.4485195000000033
41313,178.89066025416565,47,0.35528199999998833,46,0.337517900000023
41314,179.24594225416567,47,0.35528200000001675,46,0.7379554999999982
41315,179.60734425416567,47,0.3614019999999982,46,0.3577258249999886
41316,179.98389775416567,54,0.3765535,61,2.089504749999975
41317,180.34529975416567,47,0.3614019999999982,46,0.3337236000000132
41318,180.69658775416568,47,0.3512880000000109,46,0.32822737500001153
41319,181.0420902541657,47,0.34550250000000915,46,0.3282273749999831
41320,181.38759275416567,47,0.34550249999998073,46,0.3233240249999767
41321,181.72817800416564,47,0.3405852499999753,47,0.3279632750000019
41322,182.07340250416564,54,0.3452245000000005,60,0.7228039999999964
41323,182.43480450416564,47,0.3614019999999982,48,0.3433319000000097
41324,182.79620650416564,55,0.3614019999999982,63,1.3979094999999973
41325,183.15760850416564,47,0.3614019999999982,48,0.32822737500001153
41326,183.50311100416565,55,0.34550250000000915,59,0.6910049999999899
41327,183.84861350416563,47,0.34550249999998073,48,0.32822737500001153
41328,184.19411600416564,52,0.34550250000000915,61,1.4582015000000013
41329,184.55344050416565,47,0.3593245000000138,46,0.3413582749999762
41330,184.91276500416564,54,0.3593244999999854,55,0.739552500000002
41331,185.27208950416565,47,0.3593245000000138,46,0.3612166000000059
41332,185.65231750416564,52,0.38022799999998824,59,2.8122765000000243
41333,186.01164200416565,47,0.3593245000000138,46,0.3337236000000132
41334,186.36293000416566,45,0.3512880000000109,45,0.3191486999999995
41335,186.69887600416567,45,0.33594600000000696,41,0.3279632750000019
41336,187.04410050416567,35,0.3452245000000005,51,0.7036474999999882
41337,187.38932500416567,47,0.3452245000000005,41,0.34050185000000965
41338,187.74774800416566,33,0.3584229999999877,44,0.7168460000000039
41339,188.10617100416567,48,0.35842300000001615,40,0.34050185000000965
41340,188.46459400416566,42,0.3584229999999877,56,1.409807760416669
41341,188.83210876458233,35,0.3675147604166682,39,0.3337236000000132
41342,189.18339676458234,35,0.3512880000000109,39,0.32822737500001153
41343,189.52889926458235,35,0.34550250000000915,39,0.3282273749999831
41344,189.87440176458233,43,0.34550249999998073,55,1.4333680000000015
41345,190.22968376458232,35,0.35528199999998833,38,0.337517900000023
41346,190.58496576458234,40,0.35528200000001675,55,0.7228039999999964
41347,190.94636776458233,35,0.3614019999999982,38,0.3433319000000097
41348,191.30776976458233,42,0.3614019999999982,56,0.7107264999999927
41349,191.66917176458233,35,0.3614019999999982,39,0.33185827500000187
41350,192.01849626458232,43,0.3493244999999945,55,2.1048140000000046
41351,192.36399876458233,35,0.34550250000000915,38,0.3282273749999831
41352,192.70950126458231,40,0.34550249999998073,55,0.6910050000000183
41353,193.05500376458232,35,0.34550250000000915,38,0.32822737500001153
41354,193.40050626458233,43,0.34550250000000915,55,0.7228039999999964
41355,193.76190826458233,35,0.3614019999999982,38,0.3433319000000097
41356,194.12331026458233,43,0.3614019999999982,60,0.708825499999989
41357,194.48471226458233,35,0.3614019999999982,42,0.3300523249999969
41358,194.83213576458232,42,0.3474234999999908,56,1.3917020000000093
41359,195.17955926458234,35,0.3474235000000192,39,0.3356098250000059
41360,195.53283276458234,45,0.35327350000000024,58,0.6910049999999899
41361,195.87833526458235,35,0.34550250000000915,41,0.3282273749999831
41362,196.22383776458233,43,0.34550249999998073,56,0.717572500000017
41363,196.56934026458234,35,0.34550250000000915,39,0.35346649999999613
41364,196.94141026458234,42,0.3720700000000079,56,2.862493999999998
41365,197.30073476458236,35,0.3593245000000138,39,0.3413582749999762
41366,197.66005926458234,35,0.3593244999999854,39,0.3356098250000059
41367,198.01333276458234,35,0.35327350000000024,39,0.3356098250000059
41368,198.36660626458234,35,0.35327350000000024,39,0.3413582750000046
41369,198.72593076458236,35,0.3593245000000138,39,0.3413582749999762
41370,199.08525526458234,35,0.3593244999999854,39,0.3413582750000046
41371,199.44457976458236,35,0.3593245000000138,39,0.3413582749999762
41372,199.80390426458234,51,0.3593244999999854,61,1.4213787604166725
41373,200.171419024999,47,0.3675147604166682,53,0.3337236000000132
41374,200.52270702499902,47,0.3512880000000109,57,0.3337235999999848
41375,200.873995024999,47,0.3512879999999825,57,0.3337236000000132
41376,201.22528302499902,52,0.3512880000000109,69,1.4485195000000033
41377,201.580565024999,47,0.35528199999998833,58,0.337517900000023
41378,201.93584702499902,47,0.35528200000001675,59,0.7379554999999982
41379,202.29724902499902,47,0.3614019999999982,61,0.3577258249999886
41380,202.67380252499902,52,0.3765535,77,2.826015500000011
41381,203.03520452499902,47,0.3614019999999982,66,0.3337236000000132
41382,203.38649252499903,47,0.3512880000000109,68,0.32822737500001153
41383,203.73199502499904,47,0.34550250000000915,69,0.3282273749999831
41384,204.07749752499902,47,0.34550249999998073,71,0.32822737500001153
41385,204.42300002499903,47,0.34550250000000915,73,0.32822737500001153
41386,204.76850252499904,51,0.34550250000000915,81,0.7313154999999938
41387,205.12990452499903,47,0.3614019999999982,73,0.35141782499999863
41388,205.49981802499903,55,0.36991349999999557,89,1.3979094999999973
41389,205.86122002499903,47,0.3614019999999982,67,0.32822737500001153
41390,206.20672252499904,52,0.34550250000000915,82,0.6910049999999899
41391,206.55222502499902,47,0.34550249999998073,67,0.32822737500001153
41392,206.89772752499903,54,0.34550250000000915,85,1.450043500000021
41393,207.25705202499904,47,0.3593245000000138,63,0.3413582749999762
41394,207.61637652499903,51,0.3593244999999854,77,0.7313945000000217
41395,207.97570102499904,47,0.3593245000000138,63,0.35346649999999613
41396,208.34777102499905,52,0.3720700000000079,77,1.4016175000000146
41397,208.70709552499906,40,0.3593245000000138,59,0.3337236000000132
41398,209.05838352499907,40,0.3512880000000109,58,0.32822737500001153
41399,209.40388602499908,40,0.34550250000000915,58,0.3282273749999831
41400,209.74938852499906,52,0.34550249999998073,72,1.4372979999999984
41401,210.10871302499908,40,0.3593245000000138,53,0.3413582749999762
41402,210.46803752499906,52,0.3593244999999854,72,0.7186489999999992
41403,210.82736202499908,40,0.3593245000000138,53,0.3413582749999762
41404,211.18668652499906,47,0.3593244999999854,67,1.409807760416669
41405,211.55420128541573,35,0.3675147604166682,47,0.3337236000000132
41406,211.90548928541574,35,0.3512880000000109,47,0.32822737500001153
41407,212.25099178541575,35,0.34550250000000915,48,0.3282273749999831
41408,212.59649428541573,47,0.34550249999998073,68,1.4333680000000015
41409,212.95177628541572,35,0.35528199999998833,48,0.337517900000023
41410,213.30705828541574,49,0.35528200000001675,69,0.7228039999999964
41411,213.66846028541573,35,0.3614019999999982,48,0.3433319000000097
41412,214.02986228541573,49,0.3614019999999982,69,2.092736500000001
41413,214.39126428541573,35,0.3614019999999982,50,0.33185827500000187
41414,214.74058878541572,35,0.3493244999999945,48,0.32822737500001153
41415,215.08609128541573,35,0.34550250000000915,48,0.3282273749999831
41416,215.4315937854157,47,0.34550249999998073,68,0.6910050000000183
41417,215.77709628541572,35,0.34550250000000915,47,0.32822737500001153
41418,216.12259878541573,49,0.34550250000000915,67,0.7228039999999964
41419,216.48400078541573,35,0.3614019999999982,46,0.3433319000000097
41420,216.84540278541573,49,0.3614019999999982,67,2.092736500000001
41421,217.20680478541573,35,0.3614019999999982,46,0.33185827500000187
41422,217.55612928541572,35,0.3493244999999945,44,0.32822737500001153
41423,217.90163178541573,35,0.34550250000000915,42,0.3282273749999831
41424,218.2471342854157,47,0.34550249999998073,60,0.6910050000000183
41425,218.59263678541572,35,0.34550250000000915,40,0.32822737500001153
41426,218.93813928541573,49,0.34550250000000915,57,0.7248620000000017
41427,219.29954128541573,35,0.3614019999999982,39,0.3452870000000132
41428,219.66300128541573,49,0.36346000000000345,55,2.2932483333333664
41429,220.02858728541574,35,0.3655860000000075,38,0.34935014999999225
41430,220.39632428541574,47,0.3677370000000053,49,0.7423548333333372
41431,220.76623778541574,35,0.36991349999999557,34,0.3537264333333212
41432,221.13867911874908,35,0.3724413333333416,37,0.37012997499999756
41433,221.52828961874908,35,0.3896105000000034,37,0.427960000000013
41434,221.9562496187491,35,0.427960000000013,40,0.45385799999999676
41435,222.4101076187491,35,0.45385799999999676,37,0.49586800000000153
41436,222.9059756187491,56,0.49586800000000153,53,0.6046762500000114
41437,223.3090931187491,35,0.40311750000000757,30,0.4111729999999909
41438,223.5106518687491,52,0.20155875000000378,45,0.20961424999998712
41439,223.7202661187491,47,0.20961424999998712,51,2.3337239999999895
41440,224.1394946187491,35,0.41922850000000267,19,0.36651237500001344
41441,224.5252971187491,35,0.38580250000001115,23,0.3598485999999923
41442,224.9040851187491,35,0.3787879999999859,19,0.34050185000000965
41443,225.26250811874908,49,0.3584229999999877,50,0.791482000000002
41444,225.6483106187491,35,0.38580250000001115,28,0.38539552500000696
41445,226.05399011874908,51,0.40567949999999087,51,2.2956489999999974
41446,226.4596696187491,35,0.4056795000000193,26,0.3710452999999916
41447,226.8502436187491,35,0.39057399999998665,28,0.3471375999999964
41448,227.2156516187491,35,0.3654080000000022,32,0.3575909250000109
41449,227.59206311874908,37,0.376411499999989,35,0.3787879999999859
41450,227.97085111874907,35,0.3787879999999859,32,0.37878800000001434
41451,228.34963911874908,52,0.37878800000001434,51,0.8141324999999995
41452,228.7527566187491,35,0.40311750000000757,31,0.4110149999999919
41453,229.16377161874908,54,0.4110149999999919,54,2.3806562500000155
41454,229.5617551187491,35,0.39798350000000937,32,0.8155142500000068
41455,229.7607468687491,56,0.19899175000000469,56,0.20550750000001017
41456,229.9662543687491,57,0.20550750000001017,57,1.5781734999999912
41457,230.3772693687491,35,0.4110149999999919,35,0.3733789750000085
41458,230.7702998687491,35,0.39303050000000894,32,0.3733789749999801
41459,231.1633303687491,35,0.3930304999999805,32,0.7790810000000192
41460,231.5444278687491,56,0.38109750000000986,53,0.8116625000000113
41461,231.9424113687491,35,0.39798350000000937,29,0.4136790000000019
41462,232.3560903687491,56,0.4136790000000019,53,1.5623517499999764
41463,232.7463031187491,35,0.39021274999998923,31,0.38580250000001115
41464,233.1321056187491,45,0.38580250000001115,34,0.38580249999998273
41465,233.5179081187491,54,0.38580249999998273,49,0.4005339999999933
41466,233.91844211874908,52,0.4005339999999933,46,0.6329333749999932
41467,234.3339842437491,35,0.41554212500000176,31,0.44810754166667266
41468,234.55137549374908,53,0.2173912499999915,45,0.23071629166668117
41469,234.78209178541576,54,0.23071629166668117,51,0.48848754166667163
41470,234.88045248541576,56,0.09836070000000063,45,0.09836070000000063
41471,234.97881318541576,54,0.09836070000000063,46,0.09762764166666216
41472,235.07644082708242,53,0.09762764166666216,44,0.09736430000000951
41473,235.17380512708243,54,0.09736430000000951,45,0.0967741999999987
41474,235.27057932708243,55,0.0967741999999987,46,0.6028053749999458
41475,235.36814329374909,56,0.09756396666665523,51,0.10754198333330578
41476,235.4756852770824,59,0.10754198333330578,55,0.118834325000023
41477,235.5945196020824,58,0.118834325000023,53,0.13153305833330364
41478,235.72605266041572,57,0.13153305833330364,51,0.14733204166665814
41479,235.87338470208238,56,0.14733204166665814,49,0.6164384999999868
41480,236.28434370208237,35,0.4109589999999912,30,0.4150937499999827
41481,236.48982320208236,52,0.2054794999999956,44,0.20961424999998712
41482,236.69943745208235,47,0.20961424999998712,46,2.3473710000000096
41483,237.11866595208235,35,0.41922850000000267,20,0.36651237500001344
41484,237.50446845208236,35,0.38580250000001115,24,0.3598485999999923
41485,237.88325645208235,35,0.3787879999999859,21,0.35346649999999613
41486,238.25532645208236,49,0.3720700000000079,51,0.791482000000002
41487,238.64112895208237,35,0.38580250000001115,28,0.38539552500000696
41488,239.04680845208236,51,0.40567949999999087,49,2.30904350000003
41489,239.45248795208238,35,0.4056795000000193,31,0.3642637250000007
41490,239.83592345208237,35,0.38343549999999027,29,0.3642637250000007
41491,240.2193589520824,35,0.3834355000000187,33,0.3555830999999898
41492,240.5936569520824,37,0.37429800000001023,38,0.38109750000000986
41493,240.9747544520824,35,0.38109750000000986,35,0.38109749999998144
41494,241.3558519520824,61,0.38109749999998144,63,1.6361625000000117
41495,242.9920144520824,59,1.6361625000000117,55,0.7909310000000005
41496,243.7829454520824,57,0.7909310000000005,54,0.8010679999999866
41497,244.5840134520824,51,0.8010679999999866,47,0.8273580000000038
41498,245.4113714520824,56,0.8273580000000038,53,0.7959669999999903
41499,246.20733845208238,54,0.7959669999999903,50,0.7989772500000356
41500,247.00631570208242,52,0.7989772500000356,46,0.8162182499999915
41501,247.8225339520824,49,0.8162182499999915,44,0.8450109999999995
41502,248.6675449520824,37,0.8450109999999995,37,3.2860869999999807
41503,249.07587495208242,35,0.4083300000000065,29,0.38791349999999625
41504,249.48420495208242,35,0.4083300000000065,29,0.38791349999999625
41505,249.8925349520824,35,0.4083299999999781,29,0.38791349999999625
41506,250.3008649520824,39,0.4083300000000065,37,1.652766999999983
41507,250.7091949520824,35,0.4083300000000065,29,0.38791349999999625
41508,251.11752495208242,35,0.4083300000000065,29,0.38791349999999625
41509,251.5258549520824,35,0.4083299999999781,29,0.40638814999999795
41510,251.9536319520824,40,0.42777699999999186,37,3.288437000000016
41511,252.3619619520824,35,0.4083300000000065,29,0.38791349999999625
41512,252.7702919520824,35,0.4083300000000065,29,0.38791349999999625
41513,253.17862195208238,35,0.4083299999999781,29,0.38791349999999625
41514,253.5869519520824,35,0.4083300000000065,29,0.38791349999999625
41515,253.9952819520824,40,0.4083300000000065,41,0.4083300000000065
41516,254.4036119520824,42,0.4083300000000065,44,0.6288427499999898
41517,254.8228404520824,35,0.41922850000000267,29,0.3982670750000068
41518,255.0324547020824,40,0.20961424999998712,41,0.20961425000001555
41519,255.2420689520824,40,0.20961425000001555,45,3.3094869999999617
41520,255.6503989520824,35,0.4083300000000065,29,0.3879134999999678
41521,256.0587289520824,39,0.4083299999999781,44,0.8273580000000038
41522,256.4724079520824,35,0.4136790000000019,29,0.39299505000002455
41523,256.8860869520824,49,0.4136790000000019,46,0.8113589999999817
41524,257.2917664520824,35,0.4056795000000193,27,0.38539552499997853
41525,257.6974459520824,39,0.40567949999996245,40,0.8541099999999915
41526,258.1031254520824,35,0.4056795000000193,26,0.426008975000002
41527,258.55155595208237,45,0.4484304999999722,37,3.4294345000000703
41528,259.0054139520824,35,0.4538580000000252,26,0.39748950000000605
41529,259.4238239520824,35,0.4184099999999944,26,0.39748950000000605
41530,259.8422339520824,35,0.4184099999999944,26,0.39748950000000605
41531,260.2606439520824,35,0.4184099999999944,26,0.39748950000000605
41532,260.67905395208237,35,0.4184099999999944,26,0.39748950000000605
41533,261.09746395208236,35,0.4184099999999944,26,0.39748950000000605
41534,261.5158739520824,35,0.41841000000005124,26,0.4418606749999867
41535,261.98099045208244,44,0.4651165000000219,34,3.976387083333293
41536,262.4189464520824,35,0.4379559999999856,26,0.41605820000000904
41537,262.85690245208247,35,0.4379560000000424,26,0.4160581999999522
41538,263.29485845208245,35,0.4379559999999856,26,0.41605820000000904
41539,263.73281445208244,35,0.4379559999999856,26,2.224563083333294
41540,264.1891976187491,35,0.4563831666666829,26,0.4399421812499895
41541,264.6526876749991,35,0.46349005624995243,26,0.4895619354166456
41542,265.16997603541574,35,0.5172883604166714,26,0.7414697458333421
41543,265.95737753541573,44,0.7874014999999872,27,4.192139999999995
41544,0.0007788166666666667,22,0.0,52,0.09267918333333335
41545,0.09345800000000001,29,0.09267918333333335,45,0.09336124999999998
41546,0.18681925,34,0.09336124999999998,48,0.09316775
41547,0.279987,36,0.09316775,40,0.09297541666666664
41548,0.37296241666666663,38,0.09297541666666664,48,0.10821575
41549,0.46574608333333334,36,0.09278366666666671,44,0.10802458333333331
41550,0.5583385833333333,34,0.09259249999999997,44,0.10778729166666667
41551,0.65074125,43,0.09240266666666674,52,0.10741
41552,0.74286075,41,0.09211949999999991,52,0.10708041666666668
41553,0.83460375,39,0.09174300000000002,45,0.10736191666666672
41554,0.9266282499999999,38,0.09202449999999995,41,0.10759795833333341
41555,1.0188415833333333,36,0.09221333333333337,42,0.1079296666666667
41556,1.1113391666666668,34,0.09249758333333347,49,0.10816795833333348
41557,1.2040272500000002,36,0.09268808333333345,41,0.10850337499999996
41558,1.2970026666666667,38,0.09297541666666653,45,0.10874408333333352
41559,1.3901704166666669,29,0.0931677500000001,41,0.10903433333333323
41560,1.483628416666667,22,0.09345800000000004,52,0.09345800000000004
41561,1.577086416666667,29,0.09345800000000004,45,0.09326449999999986
41562,1.6703509166666668,34,0.09326449999999986,48,0.09297541666666653
41563,1.7633263333333333,36,0.09297541666666653,40,0.09278366666666682
41564,1.8561100000000001,38,0.09278366666666682,48,0.10788220833333328
41565,1.9486075833333336,36,0.09249758333333347,44,0.10764516666666646
41566,2.0409153333333334,34,0.0923077499999998,44,0.10731499999999983
41567,2.1329398333333334,43,0.09202449999999995,52,0.1069869166666666
41568,2.2246828333333335,41,0.09174300000000013,52,0.10675400000000002
41569,2.3161463333333336,39,0.09146350000000014,45,0.10708041666666679
41570,2.4078893333333338,38,0.09174300000000013,41,0.10740912499999977
41571,2.4999138333333337,36,0.09202449999999995,42,0.10773983333333303
41572,2.5922215833333335,34,0.0923077499999998,49,0.10807237499999989
41573,2.6848140833333334,36,0.09259249999999986,41,0.1084072083333334
41574,2.7776933333333336,38,0.09287925000000019,45,0.1087440833333333
41575,2.8708610833333337,29,0.0931677500000001,41,0.10918033333333321
41576,2.964416416666667,41,0.09355533333333321,77,0.559015833333333
41577,3.058166416666667,29,0.09375,45,0.09345800000000004
41578,3.151624416666667,34,0.09345800000000004,48,0.09326450000000008
41579,3.244888916666667,36,0.09326450000000008,40,0.09307158333333332
41580,3.3379605000000003,38,0.09307158333333332,48,0.09287924999999975
41581,3.43083975,36,0.09287924999999975,44,0.09259249999999986
41582,3.52343225,34,0.09259249999999986,44,0.09240266666666708
41583,3.615834916666667,43,0.09240266666666708,52,0.09221333333333304
41584,3.70804825,50,0.09221333333333304,77,0.5534765000000004
41585,3.79979125,39,0.09174300000000013,45,0.09193066666666638
41586,3.8917219166666666,38,0.09193066666666638,41,0.09211891666666672
41587,3.9838408333333333,36,0.09211891666666672,42,0.09230775000000024
41588,4.0761485833333335,34,0.09230775000000024,49,0.0925925000000003
41589,4.168741083333334,36,0.0925925000000003,41,0.0927836666666666
41590,4.26152475,38,0.0927836666666666,45,0.09297541666666653
41591,4.354500166666667,55,0.09297541666666653,74,0.0931677500000001
41592,4.447667916666667,53,0.0931677500000001,82,1.110089666666668
41593,4.540835666666667,29,0.0931677500000001,46,0.09307158333333376
41594,4.633907250000001,34,0.09307158333333376,50,0.09287925000000019
41595,4.726786500000001,36,0.09287925000000019,44,0.0925925000000003
41596,4.819379000000001,38,0.0925925000000003,55,0.09249758333333258
41597,4.911876583333334,36,0.09249758333333258,53,0.09230775000000069
41598,5.004184333333335,34,0.09230775000000069,55,0.09202449999999995
41599,5.096208833333335,43,0.09202449999999995,68,0.0918368333333337
41600,5.188045666666668,41,0.0918368333333337,70,0.09193066666666638
41601,5.279976333333335,39,0.09193066666666638,61,0.09221333333333348
41602,5.372189666666668,38,0.09221333333333348,55,0.0925925000000003
41603,5.4647821666666685,36,0.0925925000000003,56,0.09297541666666653
41604,5.557757583333335,34,0.09297541666666653,66,0.09326450000000008
41605,5.651022083333335,36,0.09326450000000008,55,0.09365266666666727
41606,5.744674750000002,38,0.09365266666666727,60,0.09646299999999997
41607,5.841137750000002,63,0.09646299999999997,92,0.09646299999999997
41608,5.937600750000002,62,0.09646299999999997,89,1.4884044166666666
41609,6.031350750000002,29,0.09375,58,0.09365266666666638
41610,6.125003416666669,34,0.09365266666666638,60,0.09345800000000004
41611,6.218461416666669,36,0.09345800000000004,49,0.09326450000000097
41612,6.31172591666667,38,0.09326450000000097,58,0.09316774999999922
41613,6.404893666666669,36,0.09316774999999922,52,0.09287925000000019
41614,6.497772916666669,34,0.09287925000000019,52,0.0927836666666666
41615,6.590556583333336,43,0.0927836666666666,60,0.0925925000000003
41616,6.683149083333336,41,0.0925925000000003,60,0.0923077499999998
41617,6.775456833333336,39,0.0923077499999998,50,0.09240266666666663
41618,6.8678595000000024,38,0.09240266666666663,45,0.0925925000000003
41619,6.960452000000003,36,0.0925925000000003,45,0.0927836666666666
41620,7.053235666666669,34,0.0927836666666666,52,0.09287925000000019
41621,7.1461149166666695,36,0.09287925000000019,42,0.0931677500000001
41622,7.23928266666667,38,0.0931677500000001,46,0.0932644999999992
41623,7.332547166666669,29,0.0932644999999992,41,0.09345800000000004
41624,7.426005166666669,58,0.09345800000000004,74,0.744112583333334
41625,7.519755166666669,29,0.09375,40,0.09355533333333366
41626,7.6133105000000025,34,0.09355533333333366,42,0.09336124999999917
41627,7.706671750000002,36,0.09336124999999917,38,0.0931677500000001
41628,7.799839500000002,38,0.0931677500000001,46,0.09287925000000019
41629,7.892718750000002,36,0.09287925000000019,42,0.092688083333333
41630,7.985406833333335,34,0.092688083333333,44,0.09249758333333435
41631,8.07790441666667,43,0.09249758333333435,53,0.09221333333333348
41632,8.170117750000003,41,0.09221333333333348,55,0.10736191666666528
41633,8.262142250000002,39,0.09202449999999907,48,0.10759795833333463
41634,8.354355583333335,38,0.09221333333333348,41,0.10783475000000031
41635,8.446758250000004,36,0.09240266666666841,42,0.108072374999999
41636,8.539350750000002,34,0.09259249999999852,48,0.10835912499999978
41637,8.632230000000002,36,0.0928792499999993,39,0.10859954166666697
41638,8.725301583333335,38,0.09307158333333376,41,0.10884083333333372
41639,8.818566083333337,29,0.09326450000000186,37,0.10918033333333277
41640,8.91212141666667,57,0.09355533333333277,77,1.49878425
41641,9.00587141666667,31,0.09375,40,0.09355533333333277
41642,9.099426750000003,36,0.09355533333333277,42,0.09345800000000004
41643,9.192884750000003,38,0.09345800000000004,34,0.09316774999999922
41644,9.286052500000002,40,0.09316774999999922,42,0.09307158333333376
41645,9.379124083333336,38,0.09307158333333376,39,0.09287925000000108
41646,9.472003333333337,36,0.09287925000000108,39,0.09268808333333212
41647,9.564691416666669,45,0.09268808333333212,46,0.0925925000000003
41648,9.65728391666667,43,0.0925925000000003,46,0.0923077499999998
41649,9.749591666666669,41,0.0923077499999998,40,0.0923077499999998
41650,9.841899416666669,40,0.0923077499999998,36,0.0925925000000003
41651,9.93449191666667,38,0.0925925000000003,37,0.0925925000000003
41652,10.02708441666667,36,0.0925925000000003,44,0.0928792499999993
41653,10.119963666666669,38,0.0928792499999993,36,0.09287925000000108
41654,10.21284291666667,40,0.09287925000000108,40,0.09316774999999922
41655,10.306010666666669,55,0.09316774999999922,67,0.10489500000000085
41656,10.358458166666669,45,0.052447499999999536,55,0.4247338333333346
41657,10.384681916666668,53,0.026223749999999768,60,0.3985100833333348
41658,10.41090566666667,60,0.026223750000001544,69,0.7430386666666671
41659,10.50407341666667,24,0.09316774999999922,40,0.09316775000000099
41660,10.59724116666667,29,0.09316775000000099,42,0.09307158333333199
41661,10.690312750000002,31,0.09307158333333199,34,0.09287925000000108
41662,10.783192000000003,33,0.09287925000000108,42,0.10835912499999978
41663,10.876071250000003,31,0.0928792499999993,39,0.10812016666666757
41664,10.968759333333336,29,0.09268808333333389,39,0.10802458333333398
41665,11.061351833333337,38,0.0925925000000003,46,0.10797712499999967
41666,11.153944333333337,36,0.0925925000000003,46,0.10769237499999917
41667,11.246252083333337,34,0.0923077499999998,40,0.10792966666666715
41668,11.33874966666667,33,0.09249758333333347,36,0.10826354166666796
41669,11.431533333333338,31,0.09278366666666749,37,0.10859954166666519
41670,11.52460491666667,29,0.09307158333333199,44,0.10893758333333281
41671,11.617966166666669,31,0.09336124999999917,36,0.10927766666666727
41672,11.711618833333336,33,0.09365266666666727,40,0.1096199999999996
41673,11.805564833333337,26,0.09394600000000075,36,0.1097672499999991
41674,11.899608833333335,57,0.09404399999999846,69,1.5087268333333324
41675,11.993948333333336,31,0.09433950000000024,40,0.09424099999999846
41676,12.088189333333334,36,0.09424099999999846,42,0.09404400000000024
41677,12.182233333333334,38,0.09404400000000024,34,0.09384799999999949
41678,12.276081333333334,40,0.09384799999999949,44,0.09375
41679,12.369831333333334,38,0.09375,40,0.09345800000000004
41680,12.463289333333334,36,0.09345800000000004,41,0.09336124999999917
41681,12.556650583333333,45,0.09336124999999917,49,0.09316775000000099
41682,12.649818333333334,43,0.09316775000000099,50,0.0928792499999993
41683,12.742697583333333,41,0.0928792499999993,44,0.09316774999999922
41684,12.835865333333333,40,0.09316774999999922,40,0.09355533333333277
41685,12.929420666666665,38,0.09355533333333277,41,0.09384799999999949
41686,13.023268666666665,36,0.09384799999999949,50,0.09424100000000202
41687,13.117509666666667,38,0.09424100000000202,41,0.09453800000000001
41688,13.212047666666667,40,0.09453800000000001,46,0.09493675000000046
41689,13.306984416666667,55,0.09493675000000046,60,0.10135125000000045
41690,13.357660041666668,45,0.050675625000000224,49,0.4262636250000007
41691,13.382997854166668,51,0.025337812500000112,56,0.4009258125000006
41692,13.408335666666668,60,0.025337812500000112,72,0.7487433333333335
41693,13.502379666666668,24,0.09404400000000024,38,0.09404400000000024
41694,13.596423666666668,29,0.09404400000000024,38,0.09375
41695,13.690173666666668,31,0.09375,37,0.09375
41696,13.783923666666668,33,0.09375,45,0.10903433333333368
41697,13.877381666666668,31,0.09345800000000004,41,0.10898595833333324
41698,13.970839666666668,29,0.09345800000000004,41,0.1086957083333342
41699,14.064007416666668,38,0.09316774999999922,41,0.10855145833333424
41700,14.157079000000001,36,0.09307158333333376,46,0.10835912500000155
41701,14.249958250000002,34,0.09287925000000108,41,0.1084072083333325
41702,14.342837500000002,33,0.0928792499999993,37,0.1086957083333342
41703,14.436005250000001,31,0.09316774999999922,39,0.10874408333333463
41704,14.529173000000002,29,0.09316775000000099,45,0.10903433333333368
41705,14.622631000000002,31,0.09345800000000004,36,0.10908300000000004
41706,14.716089000000002,33,0.09345800000000004,40,0.109375
41707,14.809839000000002,24,0.09375,36,0.10942400000000063
41708,14.903589000000002,17,0.09375,46,0.09384799999999949
41709,14.997437000000001,24,0.09384799999999949,40,0.09365266666666727
41710,15.091089666666669,29,0.09365266666666727,42,0.09345800000000004
41711,15.184547666666669,31,0.09345800000000004,34,0.09316774999999922
41712,15.277715416666668,33,0.09316774999999922,42,0.0928792499999993
41713,15.370594666666667,31,0.0928792499999993,39,0.09268808333333389
41714,15.463282750000001,29,0.09268808333333389,39,0.09249758333333347
41715,15.555780333333335,63,0.09249758333333347,66,0.09221333333333348
41716,15.647993666666668,55,0.09221333333333348,70,0.5558534166666647
41717,15.740018166666667,34,0.09202449999999907,40,0.0923077499999998
41718,15.832325916666667,33,0.0923077499999998,36,0.09249758333333347
41719,15.9248235,31,0.09249758333333347,37,0.09278366666666749
41720,16.017607166666668,29,0.09278366666666749,44,0.09297541666666476
41721,16.110582583333333,31,0.09297541666666476,36,0.09326450000000008
41722,16.203847083333333,33,0.09326450000000008,40,0.09345799999999826
41723,16.29730508333333,53,0.09345799999999826,66,0.09384800000000126
41724,16.391153083333332,41,0.09384800000000126,77,0.5598914999999955
41725,16.485197083333333,29,0.09404400000000024,45,0.09375
41726,16.578947083333333,34,0.09375,48,0.09345799999999826
41727,16.67240508333333,36,0.09345799999999826,40,0.09316774999999922
41728,16.76557283333333,38,0.09316774999999922,48,0.0928792499999993
41729,16.85845208333333,36,0.0928792499999993,44,0.09259249999999852
41730,16.951044583333328,34,0.09259249999999852,44,0.0923077499999998
41731,17.043352333333328,43,0.0923077499999998,52,0.09202450000000084
41732,17.13537683333333,50,0.09202450000000084,77,0.5538569999999972
41733,17.22711983333333,39,0.09174300000000102,45,0.09193066666666638
41734,17.319050499999996,38,0.09193066666666638,41,0.09221333333333348
41735,17.41126383333333,36,0.09221333333333348,42,0.09240266666666486
41736,17.503666499999994,34,0.09240266666666486,49,0.09268808333333212
41737,17.596354583333326,36,0.09268808333333212,41,0.0928792499999993
41738,17.689233833333326,38,0.0928792499999993,45,0.09316774999999922
41739,17.782401583333325,55,0.09316774999999922,74,0.09345799999999826
41740,17.875859583333323,53,0.09345799999999826,82,1.1115504166666632
41741,17.969609583333323,29,0.09375,46,0.09365266666666727
41742,18.06326224999999,34,0.09365266666666727,50,0.0933612499999974
41743,18.156623499999988,36,0.0933612499999974,44,0.09307158333333376
41744,18.24969508333332,38,0.09307158333333376,55,0.09278366666666571
41745,18.342478749999987,36,0.09278366666666571,53,0.09249758333332991
41746,18.434976333333317,34,0.09249758333332991,55,0.09221333333333348
41747,18.52718966666665,43,0.09221333333333348,68,0.09193066666666994
41748,18.61912033333332,41,0.09193066666666994,70,0.09174299999999747
41749,18.710863333333318,39,0.09174299999999747,61,0.09193066666666994
41750,18.802793999999988,38,0.09193066666666994,55,0.09221333333333348
41751,18.89500733333332,36,0.09221333333333348,56,0.09240266666666486
41752,18.987409999999986,34,0.09240266666666486,66,0.09268808333333212
41753,19.08009808333332,36,0.09268808333333212,55,0.0928792499999993
41754,19.172977333333318,38,0.0928792499999993,60,0.09316774999999922
41755,19.266145083333317,63,0.09316774999999922,96,0.09345799999999826
41756,19.359603083333315,62,0.09345799999999826,89,1.4843104166666592
41757,19.45315841666665,29,0.09355533333333454,58,0.0933612499999974
41758,19.546519666666647,34,0.0933612499999974,60,0.09316774999999922
41759,19.639687416666646,36,0.09316774999999922,49,0.0928792499999993
41760,19.732566666666646,38,0.0928792499999993,58,0.09268808333333567
41761,19.82525474999998,36,0.09268808333333567,52,0.09249758333332991
41762,19.91775233333331,34,0.09249758333332991,52,0.0923077499999998
41763,20.01006008333331,43,0.0923077499999998,60,0.09193066666666994
41764,20.10199074999998,41,0.09193066666666994,60,0.09174299999999747
41765,20.19373374999998,39,0.09174299999999747,50,0.09202450000000084
41766,20.28575824999998,38,0.09202450000000084,45,0.0923077499999998
41767,20.37806599999998,36,0.0923077499999998,45,0.09259249999999852
41768,20.470658499999978,34,0.09259249999999852,52,0.0928792499999993
41769,20.563537749999977,36,0.0928792499999993,42,0.09316774999999922
41770,20.656705499999976,38,0.09316774999999922,46,0.09345799999999826
41771,20.750163499999974,29,0.09345799999999826,41,0.09375
41772,20.843913499999974,58,0.09375,74,0.7461259166666672
41773,20.937663499999974,29,0.09375,40,0.09375
41774,21.031413499999974,34,0.09375,42,0.09345799999999826
41775,21.124871499999973,36,0.09345799999999826,38,0.09336125000000095
41776,21.218232749999974,38,0.09336125000000095,46,0.09316774999999922
41777,21.311400499999973,36,0.09316774999999922,42,0.09307158333333376
41778,21.404472083333307,34,0.09307158333333376,44,0.0928792499999993
41779,21.497351333333306,43,0.0928792499999993,53,0.09268808333333567
41780,21.59003941666664,41,0.09268808333333567,55,0.10826354166666263
41781,21.682823083333304,39,0.09278366666666216,48,0.10864791666666562
41782,21.775894666666638,38,0.09307158333333376,41,0.10908299999999826
41783,21.869352666666636,36,0.09345799999999826,42,0.10952199999999834
41784,21.963200666666637,34,0.09384800000000126,48,0.10986574999999732
41785,22.057343166666637,36,0.09414250000000024,39,0.11031087499999614
41786,22.151881166666634,38,0.09453799999999646,41,0.11041012500000136
41787,22.246518416666635,29,0.09463725000000167,37,0.11011349999999709
41788,22.340957916666635,56,0.09443950000000001,75,1.4900450833333316
41789,22.435001916666636,29,0.09404400000000024,36,0.09375
41790,22.528751916666636,34,0.09375,38,0.09355533333333454
41791,22.62230724999997,36,0.09355533333333454,30,0.0933612499999974
41792,22.715668499999968,38,0.0933612499999974,38,0.09316774999999922
41793,22.808836249999967,36,0.09316774999999922,34,0.0928792499999993
41794,22.901715499999966,34,0.0928792499999993,34,0.09268808333333567
41795,22.994403583333302,43,0.09268808333333567,42,0.09249758333332991
41796,23.08690116666663,56,0.09249758333332991,70,0.6505465000000008
41797,23.17939874999997,39,0.09249758333333702,37,0.09259249999999852
41798,23.271991249999967,38,0.09259249999999852,31,0.09278366666666571
41799,23.364774916666633,36,0.09278366666666571,34,0.09287925000000286
41800,23.457654166666636,34,0.09287925000000286,41,0.09316774999999922
41801,23.550821916666635,36,0.09316774999999922,34,0.09316774999999922
41802,23.643989666666634,38,0.09316774999999922,38,0.09345799999999826
41803,23.737447666666633,56,0.09345799999999826,75,0.09355533333333454
41804,23.831002999999967,56,0.09355533333333454,75,1.558449233333338
41805,23.924752999999967,29,0.09375,39,0.09375
41806,24.018502999999967,34,0.09375,41,0.09375
41807,24.112252999999967,36,0.09375,31,0.09375
41808,24.206002999999967,38,0.09375,41,0.09375
41809,24.299752999999967,36,0.09375,38,0.09375
41810,24.393502999999967,56,0.09375,64,0.0911855000000017
41811,24.439095749999968,58,0.04559275000000085,59,0.04559275000000085
41812,24.48468849999997,56,0.04559275000000085,62,0.09523799999999838
41813,24.579926499999967,55,0.09523799999999838,68,0.6922160666666706
41814,24.675467999999967,39,0.0955414999999995,40,0.09594908333333052
41815,24.771417083333297,38,0.09594908333333052,37,0.09625683333333512
41816,24.867673916666632,36,0.09625683333333512,38,0.09669138333333294
41817,24.964365299999965,34,0.09669138333333294,44,0.09874914166666926
41818,25.063114441666634,36,0.09874914166666926,38,0.10250580833333345
41819,25.165620249999968,38,0.10250580833333345,41,0.10652231666666978
41820,25.272142566666638,54,0.10652231666666978,72,0.11730966666666731
41821,25.330628733333306,43,0.05848616666666828,46,3.040098999999991
41822,25.350236566666638,46,0.019607833333331826,50,3.020491166666659
41823,25.369844399999973,51,0.019607833333335378,51,3.0008833333333236
41824,25.389452233333305,55,0.019607833333331826,66,2.9812754999999918
41825,25.483496233333305,22,0.09404400000000024,39,0.10947300000000126
41826,25.577344233333307,27,0.09384800000000126,46,0.10922899999999913
41827,25.670996899999974,29,0.09365266666666727,41,0.10898595833333147
41828,25.764454899999972,31,0.09345799999999826,49,0.10869570833333242
41829,25.85762264999997,29,0.09316774999999922,45,0.10845529166666523
41830,25.950598066666636,27,0.09297541666666476,45,0.10821575000000294
41831,26.043381733333305,36,0.09278366666666926,53,0.10788220833333284
41832,26.135879316666635,34,0.09249758333332991,53,0.10773983333333348
41833,26.228187066666635,32,0.0923077499999998,45,0.1080245833333322
41834,26.320779566666634,31,0.09259249999999852,40,0.10826354166666619
41835,26.4135632333333,29,0.09278366666666571,41,0.10850337500000151
41836,26.506538649999968,27,0.09297541666666831,49,0.10874408333333108
41837,26.599706399999967,29,0.09316774999999922,40,0.10903433333333368
41838,26.693164399999965,31,0.09345799999999826,44,0.10927766666666727
41839,26.786817066666632,22,0.09365266666666727,40,0.10996899999999954
41840,26.881161066666632,15,0.09434399999999954,50,0.109375
41841,26.974911066666632,22,0.09375,44,0.10922899999999913
41842,27.0685637333333,27,0.09365266666666727,45,0.10903433333333368
41843,27.162021733333297,29,0.09345799999999826,37,0.10879245833333329
41844,27.255286233333297,31,0.09326450000000008,45,0.10855145833333424
41845,27.34835781666663,29,0.09307158333333376,41,0.10835912499999978
41846,27.44123706666663,27,0.0928792499999993,40,0.10812016666666935
41847,27.533925149999966,36,0.09268808333333567,49,0.10788220833333284
41848,27.626422733333296,34,0.09249758333332991,48,0.10769237500000273
41849,27.718730483333296,32,0.0923077499999998,41,0.1079296666666707
41850,27.811228066666633,31,0.09249758333333702,37,0.10816795833333259
41851,27.903916149999965,29,0.09268808333333212,37,0.1084072083333325
41852,27.996795399999964,27,0.0928792499999993,44,0.10869570833333242
41853,28.089963149999964,29,0.09316774999999922,36,0.10893758333333281
41854,28.183324399999965,31,0.09336125000000095,40,0.10918033333333099
41855,28.276879733333296,22,0.09355533333333099,36,0.10952199999999834
41856,28.370727733333297,51,0.09384800000000126,75,1.493926833333326
41857,28.464771733333297,22,0.09404400000000024,40,0.09384799999999771
41858,28.558619733333295,27,0.09384799999999771,42,0.09375
41859,28.652369733333295,29,0.09375,34,0.09345799999999826
41860,28.745827733333293,31,0.09345799999999826,42,0.09336125000000095
41861,28.839188983333294,29,0.09336125000000095,39,0.09316774999999922
41862,28.932356733333293,27,0.09316774999999922,39,0.09297541666666476
41863,29.025332149999958,36,0.09297541666666476,48,0.09278366666666926
41864,29.118115816666627,51,0.09278366666666926,75,0.6521992499999953
41865,29.210423566666627,32,0.0923077499999998,41,0.09259249999999852
41866,29.303016066666626,31,0.09259249999999852,37,0.0928792499999993
41867,29.395895316666625,29,0.0928792499999993,39,0.09316774999999922
41868,29.489063066666624,27,0.09316774999999922,46,0.09345799999999826
41869,29.582521066666622,29,0.09345799999999826,39,0.09375
41870,29.676271066666622,31,0.09375,42,0.09404400000000024
41871,29.770315066666623,51,0.09404400000000024,81,0.09433950000000024
41872,29.864654566666623,51,0.09433950000000024,78,1.5294119166666604
41873,29.959291816666624,22,0.09463725000000167,44,0.09463724999999812
41874,30.053929066666623,27,0.09463724999999812,48,0.09493674999999868
41875,30.14886581666662,29,0.09493674999999868,40,0.09493675000000223
41876,30.243802566666623,31,0.09493675000000223,50,0.09463725000000167
41877,30.338439816666625,29,0.09463725000000167,48,0.09463724999999812
41878,30.433077066666623,27,0.09463724999999812,49,0.09433950000000024
41879,30.527416566666624,36,0.09433950000000024,63,0.09424100000000024
41880,30.621657566666624,34,0.09424100000000024,63,0.09434024999999835
41881,30.715997816666622,32,0.09434024999999835,52,0.09493733333333054
41882,30.810935149999953,31,0.09493733333333054,46,0.09554208333333492
41883,30.906477233333288,29,0.09554208333333492,46,0.09615449999999726
41884,31.002631733333285,27,0.09615449999999726,55,0.09687866666666878
41885,31.099510399999954,29,0.09687866666666878,44,0.09750824999999708
41886,31.19701864999995,31,0.09750824999999708,48,0.09814641666666546
41887,31.295165066666616,50,0.09814641666666546,75,0.09890141666666707
41888,31.394066483333283,50,0.09890141666666707,74,3.0564540000000022
41889,31.489607983333283,22,0.0955414999999995,48,0.09533916666666897
41890,31.58494714999995,27,0.09533916666666897,50,0.09503716666666406
41891,31.679984316666616,29,0.09503716666666406,41,0.09483691666666871
41892,31.774821233333284,31,0.09483691666666871,49,0.11026125000000064
41893,31.869359233333288,29,0.09453800000000356,45,0.11001350000000087
41894,31.96369873333329,27,0.09433950000000024,45,0.10966899999999669
41895,32.057742733333285,36,0.09404399999999669,53,0.10922899999999913
41896,32.15139539999995,34,0.09365266666666372,53,0.10908300000000537
41897,32.244853399999954,33,0.09345800000000537,45,0.109375
41898,32.338603399999954,31,0.09375,40,0.1096199999999996
41899,32.43254939999996,29,0.09394600000000253,41,0.10986574999999732
41900,32.52669189999995,27,0.09414249999999669,49,0.11011237499999993
41901,32.62103139999995,29,0.09433949999999669,40,0.11041012500000136
41902,32.71566864999995,31,0.09463724999999812,44,0.11065970833332983
41903,32.81050556666661,22,0.09483691666666516,40,0.11116320833333049
41904,32.905643149999946,48,0.095137583333333,72,1.4417845833333374
41905,33.001796899999945,22,0.09615374999999915,44,0.09605141666666839
41906,33.097848316666614,27,0.09605141666666839,45,0.09584674999999976
41907,33.19369506666661,29,0.09584674999999976,37,0.09564325000000196
41908,33.289338316666615,31,0.09564325000000196,45,0.11131333333333515
41909,33.38477864999995,29,0.09544033333333601,41,0.11111100000000107
41910,33.48001664999995,27,0.09523800000000193,40,0.11085995833332873
41911,33.57505381666662,36,0.09503716666666406,49,0.1106097916666684
41912,33.66989073333328,34,0.09483691666666516,48,0.11081033333333323
41913,33.76482806666662,33,0.0949373333333341,41,0.11151654166666702
41914,33.860370149999945,31,0.09554208333332781,37,0.11223166666667339
41915,33.95652464999995,29,0.09615450000000436,37,0.1129561666666703
41916,34.05329956666662,27,0.09677491666666782,44,0.11368987500000571
41917,34.15070281666662,29,0.09740325000000638,36,0.11443337499999728
41918,34.24874273333329,31,0.09803991666666434,40,0.11586712499999408
41919,34.347427733333284,50,0.09868499999999614,70,0.11886562500000508
41920,34.398974108333285,36,0.05154637500000092,46,0.4286128749999918
41921,34.424747295833285,41,0.02577318750000046,49,1.5276819374999846
41922,34.450520483333285,46,0.02577318750000046,68,1.5019087499999841
41923,34.54515773333328,24,0.09463724999999812,44,0.0944387500000019
41924,34.639596483333285,27,0.0944387500000019,45,0.09414249999999669
41925,34.73373898333328,29,0.09414249999999669,37,0.09384799999999416
41926,34.827586983333276,31,0.09384799999999416,45,0.09365266666666372
41927,34.92123964999994,29,0.09365266666666372,41,0.09336125000000095
41928,35.01460089999994,27,0.09336125000000095,40,0.09307158333333376
41929,35.107672483333275,38,0.09307158333333376,49,0.09307158333333376
41930,35.20074406666661,36,0.09307158333333376,48,0.10874408333333463
41931,35.29391181666661,34,0.09316774999999922,41,0.10903433333333368
41932,35.387369816666606,31,0.09345799999999826,37,0.10927766666667083
41933,35.48102248333328,29,0.09365266666667083,37,0.10952199999999834
41934,35.57487048333328,27,0.09384800000000126,44,0.10976724999999732
41935,35.668914483333275,29,0.09404399999999669,36,0.11006274999999732
41936,35.76325398333327,31,0.09433949999999669,40,0.11031087500000325
41937,35.85779198333327,24,0.09453800000000001,36,0.11041012500000136
41938,35.95242923333327,45,0.09463724999999812,74,1.5155025000000109
41939,36.04696723333328,24,0.09453800000000712,44,0.09433949999999669
41940,36.14130673333327,29,0.09433949999999669,45,0.09404399999999669
41941,36.23535073333327,31,0.09404399999999669,37,0.09375
41942,36.32910073333327,33,0.09375,45,0.10913166666666996
41943,36.422656066666605,31,0.09355533333333454,41,0.10879245833333329
41944,36.5159205666666,29,0.09326449999999653,40,0.10855145833333069
41945,36.608992149999935,38,0.09307158333333376,49,0.10821574999999939
41946,36.701775816666604,36,0.09278366666666926,48,0.10816795833333259
41947,36.79446389999994,34,0.09268808333333567,41,0.10850337500000506
41948,36.88743931666661,33,0.09297541666666831,37,0.10884083333333194
41949,36.980703816666605,31,0.09326449999999653,37,0.10922933333333162
41950,37.07425914999994,29,0.09355533333333454,44,0.11036366666667163
41951,37.16869923333328,31,0.09444008333333898,36,0.11239024999999714
41952,37.26485573333328,33,0.09615649999999931,40,0.1144235000000009
41953,37.36154873333328,46,0.09669300000000192,67,0.12215587500000424
41954,37.46793173333328,46,0.106383000000001,73,1.4953902499999856
41955,37.56256898333328,29,0.09463724999999812,44,0.0944387500000019
41956,37.65700773333328,34,0.0944387500000019,45,0.09414249999999669
41957,37.75115023333328,36,0.09414249999999669,37,0.09384799999999416
41958,37.84499823333327,38,0.09384799999999416,45,0.10922899999999913
41959,37.938650899999935,36,0.09365266666666372,41,0.1088892083333377
41960,38.032012149999936,34,0.09336125000000095,40,0.10855145833333069
41961,38.12508373333327,43,0.09307158333333376,49,0.10821574999999939
41962,38.21786739999994,41,0.09278366666666926,48,0.1080245833333322
41963,38.31045989999994,39,0.09259250000000208,41,0.10816795833332549
41964,38.40314798333327,38,0.09268808333332856,37,0.10835912499999978
41965,38.496027233333265,36,0.09287924999999575,37,0.10859954166667052
41966,38.5890988166666,34,0.09307158333333376,44,0.10884083333333194
41967,38.682363316666596,36,0.09326449999999653,36,0.10903433333333368
41968,38.7758213166666,38,0.09345800000000537,40,0.10927766666666372
41969,38.869473983333265,29,0.09365266666666372,36,0.10952199999999834
41970,38.963321983333266,22,0.09384800000000126,50,0.0942410000000038
41971,39.05756298333327,29,0.0942410000000038,44,0.09433949999999669
41972,39.15190248333327,34,0.09433949999999669,45,0.09404399999999669
41973,39.24594648333326,36,0.09404399999999669,37,0.09394600000000253
41974,39.339892483333266,38,0.09394600000000253,45,0.09375
41975,39.433642483333266,36,0.09375,41,0.09345799999999826
41976,39.527100483333264,34,0.09345799999999826,40,0.09336125000000095
41977,39.620461733333265,43,0.09336125000000095,49,0.09316774999999922
41978,39.713629483333264,41,0.09316774999999922,48,0.09287925000000286
41979,39.80650873333327,39,0.09287925000000286,41,0.09287924999999575
41980,39.89938798333326,38,0.09287924999999575,37,0.09316774999999922
41981,39.99255573333326,36,0.09316774999999922,37,0.09316774999999922
41982,40.08572348333326,34,0.09316774999999922,44,0.09345799999999826
41983,40.17918148333326,36,0.09345799999999826,36,0.09345799999999826
41984,40.27263948333326,38,0.09345799999999826,40,0.09375
41985,40.36638948333326,29,0.09375,36,0.09384800000000126
41986,40.46023748333326,38,0.09384800000000126,46,0.0846395999999956
41987,40.554281483333256,41,0.09404399999999669,40,0.08457100000000395
41988,40.64822748333326,46,0.09394600000000253,41,0.08437500000000142
41989,40.74197748333326,48,0.09375,34,0.08411219999999986
41990,40.83543548333326,50,0.09345799999999826,41,0.08394772500000158
41991,40.92869998333326,48,0.09326450000000364,39,0.08378365833333135
41992,41.021771566666594,46,0.09307158333333376,39,0.08359132500000044
41993,41.11465081666659,55,0.09287924999999575,46,0.08333325000000258
41994,41.20724331666659,53,0.09259250000000208,46,0.08317189166666594
41995,41.29964598333326,51,0.09240266666666486,40,0.08314341666667246
41996,41.39204864999993,50,0.09240266666667196,36,0.08340015833333325
41997,41.484736733333264,48,0.09268808333333567,37,0.08365864166666626
41998,41.57771214999993,46,0.09297541666666831,42,0.08401545000000255
41999,41.67107339999993,48,0.09336125000000095,36,0.08427766666666514
42000,41.7647260666666,50,0.09365266666666372,40,0.08454160000000144
42001,41.8586720666666,41,0.09394600000000253,36,0.08480704999999489
42002,41.952913066666596,38,0.09424099999999669,46,0.0846396000000027
42003,42.04695706666659,41,0.09404399999999669,40,0.08447300000000268
42004,42.140805066666594,46,0.09384800000000126,41,0.08430686666666531
42005,42.23445773333326,48,0.09365266666666372,34,0.08411219999999986
42006,42.32791573333326,50,0.09345800000000537,41,0.08385097499999716
42007,42.42108348333326,48,0.09316774999999922,39,0.08368749166666589
42008,42.51405889999993,46,0.09297541666666831,39,0.08352441666666266
42009,42.60684256666659,55,0.09278366666666216,46,0.08340015833333325
42010,42.69953064999993,53,0.09268808333333567,46,0.08359132500000044
42011,42.792409899999925,51,0.09287924999999575,40,0.08375480833333171
42012,42.88548148333326,50,0.09307158333333376,36,0.08385097499999716
42013,42.97864923333326,48,0.09316774999999922,37,0.08411219999999986
42014,43.072107233333256,46,0.09345799999999826,42,0.08418033333333597
42015,43.16566256666659,48,0.09355533333333454,36,0.08437500000000142
42016,43.25941256666659,50,0.09375,40,0.08454160000000144
42017,43.35335856666659,41,0.09394600000000253,36,0.0846395999999956
42018,43.44740256666659,38,0.09404399999999669,46,0.0846396000000027
42019,43.54144656666659,41,0.09404400000000379,40,0.08437500000000142
42020,43.63519656666659,46,0.09375,41,0.08420953333333614
42021,43.72875189999993,48,0.09355533333333454,34,0.0840444749999989
42022,43.82211314999993,46,0.09336125000000095,41,0.08378365833333135
42023,43.91518473333326,48,0.09307158333333376,39,0.08359132500000044
42024,44.00806398333326,50,0.09287924999999575,39,0.08333325000000258
42025,44.10065648333326,41,0.09259250000000208,46,0.08317189166666594
42026,44.193059149999925,38,0.09240266666666486,46,0.08291646666667418
42027,44.285178066666596,41,0.09211891666667071,40,0.0828881416666718
42028,44.37729698333327,46,0.09211891666667071,36,0.08307697500000444
42029,44.46960473333327,48,0.09230775000000335,37,0.08333325000000258
42030,44.56219723333327,46,0.09259250000000208,42,0.08349574166666685
42031,44.65498089999994,48,0.09278366666666926,36,0.08365864166665915
42032,44.7479563166666,50,0.0929754166666612,40,0.08385097499999716
42033,44.8411240666666,41,0.09316774999999922,36,0.08411219999999986
42034,44.9345820666666,38,0.09345799999999826,46,0.08517352500000186
42035,45.0292193166666,41,0.09463724999999812,40,0.0850048000000001
42036,45.1236580666666,46,0.0944387500000019,41,0.0847380999999956
42037,45.2178005666666,48,0.09414249999999669,34,0.08457099999999684
42038,45.31174656666659,46,0.09394599999999542,41,0.08430686666666531
42039,45.405399233333256,48,0.09365266666666372,38,0.08411219999999986
42040,45.49885723333326,50,0.09345800000000537,37,0.08385097499999716
42041,45.59202498333326,53,0.09316774999999922,42,0.08359132500000044
42042,45.68490423333326,58,0.09287925000000286,42,0.09268808333333567
42043,45.7775923166666,60,0.09268808333333567,38,0.09345858333333013
42044,45.87105089999993,62,0.09345858333333013,40,0.0943402500000019
42045,45.96539114999993,65,0.0943402500000019,34,0.09523875000000004
42046,46.06062989999993,70,0.09523875000000004,39,0.09594908333333763
42047,46.15657898333327,72,0.09594908333333763,38,0.09677491666666072
42048,46.25335389999993,74,0.09677491666666072,37,0.09772050000000121
42049,46.35107439999993,77,0.09772050000000121,37,0.09868499999999614
42050,46.44975939999993,74,0.09868499999999614,50,0.5
42051,47.27629397499993,22,0.8265345750000037,31,1.216809783333332
42052,47.327831429166594,29,0.05153745416666311,33,1.165272329166669
42053,47.37816973333326,34,0.05033830416666518,36,1.1149340250000037
42054,47.42751439583326,38,0.04934466250000469,34,1.065589362499999
42055,47.47584186666659,41,0.048327470833328334,37,1.0172618916666707
42056,47.52315275833326,46,0.04731089166666891,40,0.9699510000000018
42057,47.57002775833326,50,0.046875,44,0.9230760000000018
42058,48.49310375833326,22,0.9230760000000018,27,2.644603458333343
42059,48.55053855833326,29,0.05743479999999579,30,2.587168658333347
42060,48.60588713333326,34,0.055348575000003564,35,2.5318200833333435
42061,48.6589848291666,38,0.0530976958333369,33,2.4787223875000066
42062,48.7100563166666,41,0.05107148750000334,35,2.4276509000000033
42063,48.7591471041666,46,0.04909078749999907,37,2.378560112500004
42064,48.80658246666661,50,0.04743536250001057,39,2.3311247499999936
42065,0.0,16,0.0,20,0.3703703333333333
42066,0.3703703333333333,23,0.3703703333333333,21,0.3333333333333333
42067,0.7037036666666666,35,0.3333333333333333,22,0.33333333333333337
42068,1.037037,28,0.33333333333333337,23,0.3310709999999999
42069,1.3681079999999999,23,0.3310709999999999,24,0.3310710000000001
42070,1.699179,16,0.3310710000000001,26,0.3310710000000001
42071,2.03025,23,0.3310710000000001,27,0.31746033333333346
42072,2.3477103333333336,28,0.31746033333333346,28,0.317460333333333
42073,2.6651706666666666,35,0.317460333333333,29,0.3168354166666667
42074,2.9820060833333333,28,0.3168354166666667,31,0.31621049999999995
42075,3.2982165833333332,23,0.31621049999999995,32,0.3193650833333339
42076,3.617581666666667,16,0.3193650833333339,33,0.3225806666666666
42077,3.9401623333333338,23,0.3225806666666666,34,0.3249390000000001
42078,4.265101333333334,28,0.3249390000000001,34,0.32493899999999964
42079,4.5900403333333335,35,0.32493899999999964,33,0.32594833333333373
42080,4.915988666666667,28,0.32594833333333373,32,0.3269576666666669
42081,5.242946333333334,23,0.3269576666666669,31,0.32695766666666604
42082,5.569904,16,0.32695766666666604,30,0.32900133333333326
42083,5.8989053333333334,23,0.32900133333333326,30,0.317460333333333
42084,6.2163656666666665,28,0.317460333333333,29,0.3174603333333339
42085,6.533826,35,0.3174603333333339,28,0.317460333333333
42086,6.851286333333333,28,0.317460333333333,27,0.33772716666666636
42087,7.1890135,23,0.33772716666666636,26,0.3706405833333335
42088,7.559654083333333,16,0.3706405833333335,25,0.3960396666666668
42089,7.95569375,55,0.3960396666666668,52,2.049762583333335
42090,8.334017833333334,28,0.3783240833333341,25,0.35961450000000106
42091,8.693632333333335,35,0.35961450000000106,26,0.3426549166666657
42092,9.03628725,28,0.3426549166666657,27,0.3272025833333334
42093,9.363489833333334,23,0.3272025833333334,28,0.3232363333333339
42094,9.686726166666668,16,0.3232363333333339,29,0.31873016666666665
42095,10.005456333333335,56,0.31873016666666665,51,0.9523810000000008
42096,10.322916666666668,28,0.317460333333333,29,0.317460333333333
42097,10.640377,38,0.317460333333333,30,0.3174603333333348
42098,10.957837333333336,56,0.3174603333333348,54,1.0057996666666682
42099,11.281750583333336,23,0.3239132500000004,31,0.334757333333334
42100,11.61650791666667,16,0.334757333333334,32,0.3471290833333338
42101,11.963637000000004,56,0.3471290833333338,56,1.9656685833333345
42102,12.309989833333338,28,0.34635283333333433,31,0.334757333333334
42103,12.644747166666672,38,0.334757333333334,30,0.32455841666666707
42104,12.96930558333334,28,0.32455841666666707,30,0.3200000000000003
42105,13.28930558333334,23,0.3200000000000003,29,0.3200000000000003
42106,13.60930558333334,16,0.3200000000000003,28,0.3199999999999985
42107,13.929305583333338,57,0.3199999999999985,55,2.9902507500000013
42108,14.249305583333339,28,0.3200000000000003,28,0.3200000000000003
42109,14.569305583333339,36,0.3200000000000003,28,0.3200000000000003
42110,14.88930558333334,28,0.3200000000000003,28,0.3252033333333326
42111,15.214508916666672,24,0.3252033333333326,28,0.3252033333333344
42112,15.539712250000006,16,0.3252033333333344,28,0.35402808333333446
42113,15.89374033333334,24,0.35402808333333446,32,0.3419386666666675
42114,16.235679000000008,29,0.3419386666666675,29,0.3419386666666675
42115,16.577617666666676,36,0.3419386666666675,29,0.34193866666666395
42116,16.91955633333334,55,0.34193866666666395,55,0.7402529999999992
42117,17.248557666666674,24,0.32900133333333414,27,0.32900133333333414
42118,17.577559000000008,16,0.32900133333333414,26,0.3290013333333306
42119,17.65980933333334,53,0.08225033333333087,51,0.24675099999999972
42120,17.90656033333334,52,0.24675099999999972,51,1.004450000000002
42121,18.24031966666667,29,0.3337593333333331,24,0.33534533333333627
42122,18.575665000000008,36,0.33534533333333627,24,0.3353453333333327
42123,18.91101033333334,51,0.3353453333333327,51,1.0817766666666628
42124,19.26038866666667,24,0.34937833333333046,24,0.3620279999999987
42125,19.62241666666667,16,0.3620279999999987,24,0.3703703333333337
42126,19.992787000000003,52,0.3703703333333337,53,1.0256410000000002
42127,20.334667333333336,31,0.34188033333333223,24,0.3418803333333358
42128,20.67654766666667,40,0.3418803333333358,23,0.34188033333333223
42129,21.018428000000004,59,0.34188033333333223,56,2.037536249999995
42130,21.351650333333335,23,0.33322233333333173,23,0.3332223333333353
42131,21.68487266666667,16,0.3332223333333353,23,0.33322233333333173
42132,22.018095000000002,14,0.33322233333333173,26,0.33828300000000056
42133,22.356378000000003,26,0.33828300000000056,24,0.34558999999999784
42134,22.701968,42,0.34558999999999784,24,0.353996249999998
42135,23.05596425,59,0.353996249999998,54,0.36037499999999767
42136,23.416339249999996,57,0.36037499999999767,51,0.6039388333333306
42137,23.805000333333325,14,0.3886610833333286,24,0.4374999166666669
42138,24.020278083333327,55,0.21527775000000204,49,0.22222216666666483
42139,24.242500249999992,55,0.22222216666666483,53,1.9901399999999967
42140,24.588853083333323,26,0.3463528333333308,27,0.335446000000001
42141,24.924299083333324,43,0.335446000000001,28,0.33333333333333215
42142,25.257632416666656,35,0.33333333333333215,28,0.32786899999999974
42143,25.585501416666656,26,0.32786899999999974,29,0.3252033333333344
42144,25.91070474999999,18,0.3252033333333344,30,0.3219354999999986
42145,26.23264024999999,55,0.3219354999999986,52,0.9369420000000019
42146,26.547600916666656,23,0.3149606666666678,32,0.3125
42147,26.860100916666656,35,0.3125,33,0.30948133333333416
42148,27.16958224999999,55,0.30948133333333416,56,0.9602199166666701
42149,27.477310999999993,23,0.30772875000000255,35,0.323944749999999
42150,27.801255749999992,16,0.323944749999999,36,0.3285464166666685
42151,28.12980216666666,56,0.3285464166666685,63,1.957304500000003
42152,28.459703416666663,28,0.3299012500000025,39,0.32720258333333163
42153,28.786905999999995,38,0.32720258333333163,38,0.32454766666666757
42154,29.111453666666662,28,0.32454766666666757,38,0.32258066666666707
42155,29.43403433333333,23,0.32258066666666707,37,0.3252033333333344
42156,29.759237666666664,16,0.3252033333333344,37,0.32786899999999974
42157,30.087106666666664,57,0.32786899999999974,63,2.975292000000003
42158,30.412309999999998,28,0.3252033333333344,36,0.3219354999999986
42159,30.734245499999997,36,0.3219354999999986,35,0.3187301666666684
42160,31.052975666666665,28,0.3187301666666684,34,0.32786899999999974
42161,31.380844666666665,24,0.32786899999999974,34,0.32786899999999974
42162,31.708713666666664,16,0.32786899999999974,33,0.3278690000000033
42163,32.03658266666667,24,0.3278690000000033,30,0.34193866666666395
42164,32.37852133333333,29,0.34193866666666395,28,0.34193866666667105
42165,32.72046,36,0.34193866666667105,26,0.34193866666666395
42166,33.06239866666667,55,0.34193866666666395,48,0.7402530000000027
42167,33.3914,24,0.3290013333333306,25,0.3290013333333377
42168,33.720401333333335,16,0.3290013333333377,25,0.3290013333333306
42169,33.80265166666667,53,0.08225033333333442,45,0.24675099999999617
42170,34.049402666666666,52,0.24675099999999617,43,0.9836069999999992
42171,34.377271666666665,29,0.32786899999999974,24,0.32786899999999974
42172,34.705140666666665,36,0.32786899999999974,24,0.32786899999999974
42173,35.033009666666665,51,0.32786899999999974,42,1.0402882500000032
42174,35.377184666666665,24,0.3441749999999999,24,0.3436013333333321
42175,35.720786,16,0.3436013333333321,24,0.35251191666667125
42176,36.07329791666667,24,0.35251191666667125,26,0.35974391666667316
42177,36.43304183333334,29,0.35974391666667316,24,0.33343816666666726
42178,36.76648000000001,36,0.33343816666666726,23,0.32922383333333016
42179,37.09570383333334,29,0.32922383333333016,23,0.3258697500000025
42180,37.42157358333334,24,0.3258697500000025,23,0.3252033333333344
42181,37.746776916666676,16,0.3252033333333344,23,0.3252033333333344
42182,38.07198025000001,24,0.3252033333333344,26,0.33967400000000225
42183,38.41165425000001,29,0.33967400000000225,24,0.33967399999999515
42184,38.75132825000001,36,0.33967399999999515,24,0.33967400000000225
42185,39.09100225000001,29,0.33967400000000225,24,0.3546768333333361
42186,39.445679083333346,24,0.3546768333333361,24,0.36277266666666463
42187,39.80845175000001,16,0.36277266666666463,24,0.4419705833333367
42188,40.25042233333335,64,0.4419705833333367,57,1.0041669166666622
42189,40.58576766666668,35,0.33534533333333627,28,0.33534533333332917
42190,40.92111300000001,40,0.33534533333332917,28,0.3334762499999968
42191,41.25458925000001,59,0.3334762499999968,60,0.9659419999999983
42192,41.58112541666668,23,0.3265361666666706,29,0.32193549999999505
42193,41.903060916666675,16,0.32193549999999505,29,0.31747033333333263
42194,42.22053125000001,57,0.31747033333333263,59,0.3389829999999989
42195,42.55951425000001,59,0.3389829999999989,52,0.31746033333333656
42196,42.87697458333334,57,0.31746033333333656,52,0.31746033333332946
42197,43.19443491666667,55,0.31746033333332946,56,0.7545270000000031
42198,43.52978025000001,23,0.33534533333333627,24,0.33534533333332917
42199,43.86512558333334,16,0.33534533333332917,24,0.35169358333333633
42200,43.948961916666676,54,0.08383633333333762,54,0.2678572499999987
42201,44.216819166666674,52,0.2678572499999987,62,1.9751764999999963
42202,44.55216450000001,23,0.33534533333333627,27,0.33534533333332917
42203,44.88750983333334,40,0.33534533333332917,28,0.3328098333333287
42204,45.22031966666667,31,0.3328098333333287,29,0.3252033333333344
42205,45.545523,23,0.3252033333333344,29,0.32389200000000073
42206,45.869415000000004,16,0.32389200000000073,30,0.32258066666666707
42207,46.19199566666667,54,0.32258066666666707,57,1.9459229999999934
42208,46.51199566666667,23,0.3200000000000003,31,0.3200000000000003
42209,46.83199566666667,39,0.3200000000000003,32,0.3200000000000003
42210,47.15199566666667,33,0.3200000000000003,32,0.3213110833333275
42211,47.47330675,23,0.3213110833333275,33,0.3312785833333294
42212,47.80458533333333,16,0.3312785833333294,33,0.3333333333333357
42213,48.137918666666664,55,0.3333333333333357,62,0.7545270000000031
42214,48.473264,23,0.33534533333333627,29,0.33534533333332917
42215,48.80860933333333,40,0.33534533333332917,30,0.3238363333333396
42216,48.89244566666667,57,0.08383633333333762,63,0.240000000000002
42217,49.13244566666667,59,0.240000000000002,65,0.9600000000000009
42218,49.45244566666667,23,0.3200000000000003,30,0.3200000000000003
42219,49.77244566666667,16,0.3200000000000003,30,0.3200000000000003
42220,50.09244566666667,57,0.3200000000000003,58,1.0190219999999997
42221,50.43211966666667,23,0.33967400000000225,24,0.33967399999999515
42222,50.77179366666667,39,0.33967399999999515,24,0.33967400000000225
42223,51.11146766666667,53,0.33967400000000225,56,1.094278166666676
42224,51.45635933333334,23,0.34489166666666904,24,0.36371150000000796
42225,51.82007083333335,11,0.36371150000000796,24,0.3856749999999991
42226,52.205745833333346,52,0.3856749999999991,59,2.0222001666666785
42227,52.559866916666685,23,0.35412108333333947,23,0.3347457500000033
42228,52.89461266666669,40,0.3347457500000033,24,0.3333333333333357
42229,53.227946000000024,31,0.3333333333333357,24,0.3333333333333286
42230,53.56127933333335,23,0.3333333333333286,24,0.3333333333333357
42231,53.89461266666669,16,0.3333333333333357,24,0.3333333333333357
42232,54.227946000000024,47,0.3333333333333357,51,1.0516560000000013
42233,54.572121000000024,23,0.3441749999999999,24,0.3441749999999999
42234,54.916296000000024,39,0.3441749999999999,24,0.36330600000000146
42235,55.279602000000025,59,0.36330600000000146,59,1.0596586666666639
42236,55.61494733333336,23,0.33534533333333627,24,0.33534533333332917
42237,55.95029266666669,16,0.33534533333332917,24,0.3889679999999984
42238,56.33926066666669,64,0.3889679999999984,60,1.0060360000000017
42239,56.674606000000026,23,0.33534533333333627,32,0.33534533333332917
42240,57.009951333333355,40,0.33534533333332917,32,0.33534533333333627
42241,57.34529666666669,59,0.33534533333333627,59,0.9828649166666636
42242,57.67706700000002,23,0.3317703333333313,31,0.32720258333333163
42243,58.004269583333354,16,0.32720258333333163,31,0.32389200000000073
42244,58.328161583333355,57,0.32389200000000073,58,0.3200000000000003
42245,58.648161583333355,59,0.3200000000000003,52,0.3200000000000003
42246,58.968161583333355,57,0.3200000000000003,52,0.3200000000000003
42247,59.288161583333356,55,0.3200000000000003,56,0.7545270000000031
42248,59.62350691666669,23,0.33534533333333627,24,0.33534533333332917
42249,59.95885225000002,16,0.33534533333332917,24,0.35656358333334026
42250,60.04268858333336,54,0.08383633333333762,54,0.27272725000000264
42251,60.31541583333336,52,0.27272725000000264,62,1.9772570833333418
42252,60.6507611666667,23,0.33534533333333627,26,0.33534533333332917
42253,60.98610650000003,40,0.33534533333332917,27,0.33534533333333627
42254,61.32145183333336,31,0.33534533333333627,27,0.32922383333333727
42255,61.6506756666667,23,0.32922383333333727,28,0.32389200000000073
42256,61.9745676666667,16,0.32389200000000073,29,0.3181052500000021
42257,62.2926729166667,54,0.3181052500000021,57,1.9252822499999809
42258,62.6146084166667,23,0.32193549999999505,30,0.31747033333333263
42259,62.93207875000003,39,0.31747033333333263,30,0.31250958333333045
42260,63.24458833333336,33,0.31250958333333045,31,0.3162302500000038
42261,63.560818583333365,23,0.3162302500000038,32,0.32655791666665834
42262,63.88737650000002,11,0.32655791666665834,32,0.3305786666666606
42263,64.21795516666668,55,0.3305786666666606,62,0.754526999999996
42264,64.55330050000002,23,0.33534533333333627,34,0.33534533333333627
42265,64.88864583333336,40,0.33534533333333627,33,0.33534533333332206
42266,64.97248216666668,57,0.08383633333332341,63,0.25150899999999865
42267,65.22399116666668,59,0.25150899999999865,65,0.9756100000000032
42268,65.54919450000001,23,0.3252033333333344,31,0.3252033333333344
42269,65.87439783333335,16,0.3252033333333344,29,0.3252033333333344
42270,66.19960116666668,57,0.3252033333333344,58,1.0190220000000068
42271,66.53927516666668,29,0.33967400000000225,24,0.33967400000000225
42272,66.87894916666669,36,0.33967400000000225,24,0.33967400000000225
42273,67.21862316666669,53,0.33967400000000225,56,1.0991156666666484
42274,67.56575225000002,33,0.3471290833333285,24,0.3653958333333236
42275,67.93114808333334,39,0.3653958333333236,24,0.3865907499999963
42276,68.31773883333334,52,0.3865907499999963,62,4.210487583333347
42277,68.66336733333334,23,0.34562850000000367,23,0.33196758333333776
42278,68.99533491666668,40,0.33196758333333776,24,0.3305786666666677
42279,69.32591358333335,31,0.3305786666666677,24,0.3305786666666677
42280,69.65649225000001,23,0.3305786666666677,24,0.3305786666666677
42281,69.98707091666668,16,0.3305786666666677,24,0.32438031666666234
42282,70.31764958333335,16,0.3305786666666677,26,0.344175000000007
42283,70.66182458333336,23,0.344175000000007,24,0.3441749999999928
42284,71.00599958333335,35,0.3441749999999928,24,0.34433816666667383
42285,71.35033775000002,28,0.34433816666667383,24,0.3532615000000021
42286,71.70359925000002,23,0.3532615000000021,24,0.3868799999999908
42287,72.09047925000002,16,0.3868799999999908,24,0.4377471666666679
42288,72.52822641666668,55,0.4377471666666679,54,2.0323424166666797
42289,72.93563266666669,28,0.4074062500000082,26,0.338306750000001
42290,73.27393941666669,35,0.338306750000001,26,0.31746033333334367
42291,73.59139975000004,28,0.31746033333334367,27,0.32720258333333163
42292,73.91860233333337,23,0.32720258333333163,28,0.3232363333333268
42293,74.2418386666667,16,0.3232363333333268,28,0.3187301666666684
42294,74.56056883333336,55,0.3187301666666684,51,0.9523809999999884
42295,74.87802916666669,28,0.31746033333332946,29,0.31746033333332946
42296,75.19548950000002,35,0.31746033333332946,30,0.31746033333332946
42297,75.51294983333335,55,0.31746033333332946,54,0.9666706666666727
42298,75.82916033333336,23,0.31621050000001105,31,0.32259116666665477
42299,76.15175150000002,16,0.32259116666665477,32,0.32786900000000685
42300,76.47962050000002,56,0.32786900000000685,56,1.9362239999999957
42301,76.80884433333335,28,0.32922383333333016,32,0.3232468333333287
42302,77.13209116666668,35,0.3232468333333287,31,0.31747033333333263
42303,77.44956150000002,52,0.31747033333333263,53,0.703125
42304,77.76206150000002,23,0.3125,30,0.3125
42305,78.07456150000002,16,0.3125,29,0.3412830000000042
42306,78.15268650000002,50,0.078125,49,0.2631580000000042
42307,78.41584450000002,57,0.2631580000000042,55,2.995389333333307
42308,78.74484583333336,28,0.3290013333333377,27,0.3290013333333235
42309,79.07384716666668,40,0.3290013333333235,27,0.3290013333333377
42310,79.40284850000002,48,0.3290013333333377,51,0.742637166666654
42311,79.72740691666668,28,0.32455841666666174,25,0.3340451666666553
42312,80.06145208333334,21,0.3340451666666553,23,0.34952033333333077
42313,80.14548566666667,47,0.08403358333333699,48,0.2654867499999938
42314,80.41097241666667,45,0.2654867499999938,50,4.091563583333311
42315,80.75000891666666,21,0.33903649999999175,24,0.3333449166666753
42316,81.08335383333333,36,0.3333449166666753,24,0.3278799999999933
42317,81.41123383333333,55,0.3278799999999933,56,0.7402529999999956
42318,81.74023516666666,21,0.3290013333333377,24,0.3290013333333235
42319,82.06923649999999,9,0.3290013333333235,24,0.34311983333333274
42320,82.15148683333332,53,0.08225033333333442,55,0.2608694999999983
42321,82.41235633333332,52,0.2608694999999983,54,1.0084030000000013
42322,82.74849066666665,23,0.33613433333333376,24,0.33613433333333376
42323,83.08462499999999,35,0.33613433333333376,24,0.33613433333333376
42324,83.42075933333332,51,0.33613433333333376,51,1.0817766666666557
42325,83.77013766666666,23,0.349378333333334,24,0.36202799999999513
42326,84.13216566666665,11,0.36202799999999513,24,0.3703703333333266
42327,84.50253599999998,52,0.3703703333333266,54,1.0256409999999931
42328,84.51108300833332,16,0.008547008333337658,26,0.3418803333333358
42329,84.84868983749998,23,0.33760682916665985,24,0.3418803333333358
42330,85.18629666666665,40,0.33760682916667406,23,0.3418803333333216
42331,85.52817699999997,59,0.3418803333333216,60,2.0966484166666532
42332,85.86139933333331,23,0.33322233333333884,23,0.3332223333333246
42333,86.19462166666663,16,0.3332223333333246,23,0.33322233333333884
42334,86.52784399999997,48,0.33322233333333884,41,0.3524571666666674
42335,86.73791806666665,50,0.21007406666667805,39,0.17841913333332116
42336,86.88030116666664,26,0.14238309999998933,24,0.3653348333333213
42337,86.9523732333333,48,0.07207206666666366,39,0.18232156666667265
42338,87.1715619333333,47,0.21918869999998947,41,0.18639989999999784
42339,87.24563599999996,42,0.07407406666666816,24,0.3791894166666623
42340,87.39569766666662,48,0.15006166666665877,39,0.1906662166666706
42341,87.62482541666662,57,0.22912775000000352,54,1.2510414166666664
42342,88.0278763333333,26,0.4030509166666718,24,0.41668924999999035
42343,88.44456558333329,14,0.41668924999999035,24,0.4313012500000042
42344,88.55094858333328,45,0.1063829999999939,40,0.3249182500000103
42345,88.87586683333329,55,0.3249182500000103,54,3.964567416666654
42346,89.25442691666662,26,0.37856008333332625,31,0.34070333333333735
42347,89.59513024999995,43,0.34070333333333735,31,0.32786899999999264
42348,89.92299924999995,35,0.32786899999999264,32,0.32786900000000685
42349,90.25086824999995,26,0.32786900000000685,32,0.3252033333333344
42350,90.57607158333329,18,0.3252033333333344,33,0.32193549999999505
42351,90.89800708333328,55,0.32193549999999505,54,0.960000000000008
42352,91.21800708333329,23,0.3200000000000074,34,0.3199999999999932
42353,91.53800708333328,35,0.3199999999999932,35,0.3200000000000074
42354,91.85800708333329,55,0.3200000000000074,58,0.9824271666666533
42355,92.18059824999995,23,0.32259116666665477,36,0.3278799999999933
42356,92.50847824999994,16,0.3278799999999933,36,0.33195600000000525
42357,92.84043424999994,56,0.33195600000000525,62,1.9652432499999861
42358,93.17033549999995,23,0.32990125000000603,37,0.32521408333332147
42359,93.49554958333327,40,0.32521408333332147,36,0.3200102499999815
42360,93.81555983333325,52,0.3200102499999815,56,0.7246309166666833
42361,94.1330201666666,23,0.31746033333334367,34,0.3252033333333344
42362,94.45822349999993,16,0.3252033333333344,33,0.34745399999999904
42363,94.54019074999994,50,0.08196725000000527,51,0.2654867499999938
42364,94.80567749999993,57,0.2654867499999938,60,2.966840250000004
42365,95.13088083333326,24,0.3252033333333344,31,0.32193549999999505
42366,95.45281633333326,40,0.32193549999999505,30,0.3187301666666684
42367,95.77154649999993,48,0.3187301666666684,57,0.7142857500000019
42368,96.08900683333326,24,0.31746033333332946,29,0.31746033333332946
42369,96.40646716666659,16,0.31746033333332946,28,0.34023458333334133
42370,96.48583224999993,47,0.07936508333334302,52,0.2608694999999983
42371,96.74670174999993,45,0.2608694999999983,53,3.995556250000007
42372,97.08864041666659,24,0.34193866666666395,24,0.34193866666666395
42373,97.43057908333326,36,0.34193866666666395,24,0.34193866666667816
42374,97.77251774999993,55,0.34193866666667816,56,0.7402529999999956
42375,98.10151908333327,24,0.3290013333333377,24,0.3290013333333235
42376,98.4305204166666,16,0.3290013333333235,24,0.35252058333333025
42377,98.51277074999993,53,0.08225033333333442,55,0.2702702499999958
42378,98.78304099999993,52,0.2702702499999958,54,0.9756100000000032
42379,99.10824433333326,24,0.3252033333333344,24,0.3252033333333344
42380,99.4334476666666,36,0.3252033333333344,24,0.3252033333333344
42381,99.75865099999993,51,0.3252033333333344,52,3.016588999999996
42382,100.08651999999994,24,0.32786900000000685,24,0.32786899999999264
42383,100.41438899999993,16,0.32786899999999264,24,0.32786900000000685
42384,100.74225799999994,45,0.32786900000000685,41,1.0
42385,101.07559133333326,24,0.3333333333333286,22,0.3333333333333428
42386,101.4089246666666,36,0.3333333333333428,24,0.3333333333333286
42387,101.74225799999994,43,0.3333333333333286,45,0.762711749999994
42388,102.08124099999993,24,0.3389829999999989,23,0.3389829999999989
42389,102.42022399999993,16,0.3389829999999989,23,0.355015999999992
42390,102.50496974999993,41,0.08474574999999618,34,0.2702702499999958
42391,102.77523999999993,40,0.2702702499999958,40,1.0190220000000068
42392,103.11491399999993,24,0.33967400000000225,24,0.33967400000000225
42393,103.45458799999993,36,0.33967400000000225,24,0.33967400000000225
42394,103.79426199999993,39,0.33967400000000225,36,1.153882749999994
42395,104.15054658333327,24,0.3562845833333341,24,0.38401958333332686
42396,104.5345661666666,16,0.38401958333332686,24,0.41357858333333297
42397,104.94814474999993,24,0.41357858333333297,26,0.3847933333333202
42398,105.33293808333325,29,0.3847933333333202,22,0.3572852499999897
42399,105.69022333333324,36,0.3572852499999897,24,0.3418803333333358
42400,106.03210366666657,41,0.3418803333333358,27,0.3397073333333367
42401,106.37181099999991,36,0.3397073333333367,23,0.33827083333333974
42402,106.71008183333325,29,0.33827083333333974,23,0.33613433333333376
42403,107.04621616666658,24,0.33613433333333376,26,0.3333333333333286
42404,107.37954949999991,29,0.3333333333333286,24,0.3333333333333428
42405,107.71288283333325,36,0.3333333333333428,25,0.33196725000000527
42406,108.04485008333326,29,0.33196725000000527,24,0.3312785833333294
42407,108.37612866666659,24,0.3312785833333294,24,0.33971950000000106
42408,108.71584816666659,16,0.33971950000000106,24,0.3478392500000069
42409,109.0636874166666,29,0.3478392500000069,26,0.35635283333333234
42410,109.42004024999993,36,0.35635283333333234,23,0.35320608333333325
42411,109.77324633333326,41,0.35320608333333325,25,0.3493516666666636
42412,110.12259799999993,45,0.3493516666666636,27,0.3440908333333397
42413,110.46668883333327,41,0.3440908333333397,23,0.34043166666667446
42414,110.80712049999994,36,0.34043166666667446,23,0.3354460000000046
42415,111.14256649999994,24,0.3354460000000046,26,0.33543408333332536
42416,111.47800058333327,29,0.33543408333332536,24,0.3397073333333367
42417,111.8177079166666,36,0.3397073333333367,24,0.34335400000000504
42418,112.16106191666661,29,0.34335400000000504,26,0.3518490000000014
42419,112.51291091666661,24,0.3518490000000014,24,0.36277266666667174
42420,112.87568358333328,16,0.36277266666667174,24,0.3499999999999943
42421,113.22568358333328,47,0.3499999999999943,38,1.517652499999997
42422,113.40941608333328,22,0.18373250000000496,26,0.18548714583334913
42423,113.58430999999996,23,0.17489391666667586,26,0.17698854166665967
42424,113.75117708333329,24,0.16686708333332945,26,0.17206479166667066
42425,113.91312041666663,23,0.16194333333334043,26,0.17206479166665645
42426,113.99409208333329,47,0.080971666666656,38,0.24291499999999644
42427,114.07506374999996,24,0.08097166666667022,26,0.17249185416666535
42428,114.23700708333328,47,0.16194333333332622,41,0.5063289999999938
42429,114.40578341666661,24,0.16877633333332653,26,0.17932485416667987
42430,114.57455974999995,23,0.16877633333334074,26,0.16877633333332653
42431,114.74333608333328,40,0.16877633333332653,41,1.44587700000001
42432,114.90269874999994,22,0.15936266666666654,26,0.16932283333333942
42433,115.06206141666661,23,0.15936266666666654,27,0.16932283333333942
42434,115.22142408333328,24,0.15936266666666654,27,0.16932283333333942
42435,115.38078674999994,23,0.15936266666666654,27,0.17077445833334082
42436,115.46046808333328,43,0.07968133333334038,38,0.24291499999999644
42437,115.54143974999995,24,0.08097166666667022,27,0.17206479166665645
42438,115.70338308333328,40,0.16194333333332622,39,0.4858300000000071
42439,115.86532641666662,24,0.16194333333334043,27,0.17206479166665645
42440,116.02726974999995,23,0.16194333333332622,27,0.16194333333334043
42441,116.18921308333329,47,0.16194333333334043,47,1.4147856666666456
42442,116.35383608333328,22,0.16462299999999175,33,0.1682794166666639
42443,116.51242558333327,23,0.15858949999999084,29,0.16310014583332588
42444,116.66598374999992,24,0.1535581666666559,29,0.16221364583333298
42445,116.81865541666659,23,0.152671666666663,29,0.16221364583333298
42446,116.89499124999992,47,0.0763358333333315,45,0.2290075000000087
42447,116.97132708333326,24,0.0763358333333457,29,0.1626716666666681
42448,117.12399874999993,47,0.152671666666663,48,0.480000000000004
42449,117.28399874999992,24,0.1599999999999966,30,0.1700000000000017
42450,117.44399874999992,23,0.1599999999999966,29,0.1600000000000108
42451,117.60399874999993,40,0.1600000000000108,48,1.3793100000000038
42452,117.7572554166666,22,0.15325666666666393,30,0.16283520833333398
42453,117.91051208333326,23,0.15325666666666393,30,0.16283520833333398
42454,118.06376874999994,24,0.15325666666667814,30,0.16283520833333398
42455,118.2170254166666,23,0.15325666666666393,30,0.16283520833333398
42456,118.29365374999993,43,0.07662833333333197,45,0.2298849999999959
42457,118.37028208333327,24,0.07662833333333197,30,0.16283520833333398
42458,118.52353874999993,40,0.15325666666666393,45,0.459770000000006
42459,118.6767954166666,24,0.15325666666666393,30,0.16283520833333398
42460,118.83005208333327,23,0.15325666666667814,30,0.15325666666666393
42461,118.98330874999994,52,0.15325666666666393,55,1.3434799166666522
42462,119.14205141666659,27,0.15874266666665449,45,0.162965666666679
42463,119.29561858333327,28,0.1535671666666758,40,0.1577999999999946
42464,119.4443276666666,29,0.14870908333332977,41,0.15454558333333068
42465,119.58978233333326,28,0.14545466666666584,41,0.15454558333333068
42466,119.6625096666666,52,0.07272733333333292,53,0.21818199999999877
42467,119.73523699999993,29,0.07272733333333292,41,0.15474835416667077
42468,119.88069166666659,52,0.14545466666666584,55,0.44609699999999464
42469,120.02939066666659,29,0.14869899999999348,41,0.1579926875000126
42470,120.1780896666666,28,0.1486990000000077,40,0.14869899999999348
42471,120.32678866666659,45,0.14869899999999348,57,1.3236729999999994
42472,120.47277399999992,27,0.14598533333332853,41,0.15510941666667577
42473,120.61875933333326,28,0.14598533333334274,43,0.15510941666666156
42474,120.76474466666659,29,0.14598533333332853,44,0.15510941666666156
42475,120.91072999999992,28,0.14598533333332853,44,0.15510941666667577
42476,120.9837226666666,48,0.07299266666667847,56,0.2189779999999928
42477,121.05671533333326,29,0.07299266666666426,44,0.15531368749999785
42478,121.20270066666659,45,0.14598533333332853,57,0.44776099999999985
42479,121.35195433333325,29,0.14925366666666662,44,0.15858202083333595
42480,121.50120799999992,28,0.14925366666666662,44,0.14925366666666662
42481,121.65046166666659,52,0.14925366666666662,66,1.3020533333333475
42482,121.80314449999992,27,0.15268283333332988,55,0.15724916666667355
42483,121.95130274999993,28,0.1481582500000087,49,0.15269706250001036
42484,122.09519699999994,29,0.14389425000001665,49,0.1496478125000067
42485,122.23604199999994,28,0.14084499999999878,50,0.1496478125000067
42486,122.30646449999995,52,0.0704225000000065,65,0.21126749999999106
42487,122.37688699999994,29,0.07042249999999228,50,0.14990297916666862
42488,122.51773199999994,52,0.14084499999999878,67,0.4347829999999959
42489,122.6626596666666,29,0.14492766666666057,50,0.15398564583334462
42490,122.80758733333327,28,0.14492766666667478,50,0.14492766666666057
42491,122.95251499999993,45,0.14492766666666057,69,1.3395188333333294
42492,123.09335999999993,27,0.14084499999999878,51,0.1496478125000067
42493,123.23420499999993,28,0.14084499999999878,52,0.1496478125000067
42494,123.37504999999993,29,0.14084499999999878,52,0.1496478125000067
42495,123.51589499999993,28,0.14084499999999878,52,0.1496478125000067
42496,123.58631749999994,48,0.0704225000000065,71,0.21126750000000527
42497,123.65673999999993,29,0.07042249999999228,53,0.1496478125000067
42498,123.79758499999994,45,0.140845000000013,73,0.49444883333332257
42499,123.93931083333327,29,0.1417258333333251,54,0.1587817916666694
42500,124.08797116666659,28,0.14866033333332496,54,0.2040626666666725
42501,124.29203383333326,59,0.2040626666666725,78,1.3454256666666708
42502,124.47591433333326,34,0.18388050000000078,65,0.14684408333333465
42503,124.6227584166666,35,0.14684408333333465,58,0.14257133333333627
42504,124.76532974999994,36,0.14257133333333627,58,0.14139266666666117
42505,124.9067224166666,35,0.14139266666666117,58,0.14139266666667538
42506,125.04811508333327,36,0.14139266666667538,58,0.14614741666666475
42507,125.08346324999994,59,0.03534816666666529,74,0.11079924999999946
42508,125.19426249999994,59,0.11079924999999946,78,0.44319699999999784
42509,125.34199483333327,42,0.14773233333333735,58,0.14773233333332314
42510,125.4897271666666,35,0.14773233333332314,56,0.14773233333333735
42511,125.63745949999993,59,0.14773233333333735,78,1.2914803333333396
42512,125.78026549999993,34,0.1428059999999931,58,0.14280600000000732
42513,125.92307149999993,35,0.14280600000000732,59,0.1428059999999931
42514,126.06587749999993,36,0.1428059999999931,59,0.14280600000000732
42515,126.20868349999994,35,0.14280600000000732,59,0.1428059999999931
42516,126.35148949999993,36,0.1428059999999931,59,0.14805275000000506
42517,126.38719099999993,55,0.03570150000000183,79,0.11235125000000323
42518,126.49954224999993,52,0.11235125000000323,79,0.42939758333334055
42519,126.64234824999993,43,0.1428059999999931,59,0.14280600000000732
42520,126.78515424999993,35,0.14280600000000732,59,0.14378558333334013
42521,126.92893983333327,59,0.14378558333334013,78,1.2809442500000188
42522,127.07441499999995,34,0.14547516666667093,65,0.1430454999999995
42523,127.21746049999994,35,0.1430454999999995,58,0.14069833333333293
42524,127.35815883333328,36,0.14069833333333293,58,0.13910133333332908
42525,127.4972601666666,35,0.13910133333332908,58,0.1391013333333433
42526,127.63636149999995,36,0.1391013333333433,58,0.1422405833333329
42527,127.67113683333328,59,0.03477533333332872,74,0.10746525000000418
42528,127.77860208333328,59,0.10746525000000418,78,0.43128200000001016
42529,127.92236274999995,45,0.14376066666666532,58,0.14376066666666532
42530,128.0661234166666,35,0.14376066666666532,56,0.14376066666667953
42531,128.2098840833333,52,0.14376066666667953,78,1.3147929166666756
42532,128.3517480833333,34,0.1418639999999982,58,0.1418639999999982
42533,128.4936120833333,35,0.1418639999999982,59,0.1418639999999982
42534,128.6354760833333,36,0.1418639999999982,59,0.1418639999999982
42535,128.77734008333329,35,0.1418639999999982,59,0.1418639999999982
42536,128.91920408333328,36,0.1418639999999982,59,0.14626525000002744
42537,128.9546700833333,55,0.035466000000013764,79,0.11079925000001367
42538,129.0654693333333,52,0.11079925000001367,79,0.45920766666665713
42539,129.2073333333333,47,0.1418639999999982,59,0.15323649999999134
42540,129.3605698333333,35,0.15323649999999134,59,0.16410716666666758
42541,129.52467699999997,64,0.16410716666666758,80,1.3048805000000527
42542,129.67606216666667,39,0.15138516666669943,68,0.14196083333334286
42543,129.818023,40,0.14196083333334286,59,0.14069833333334714
42544,129.95872133333336,41,0.14069833333334714,59,0.13921299999998382
42545,130.09793433333334,40,0.13921299999998382,60,0.1391013333333433
42546,130.23703566666669,41,0.1391013333333433,60,0.14971783333334088
42547,130.271811,64,0.03477533333332872,78,0.11494250000001216
42548,130.38675350000003,64,0.11494250000001216,71,0.14760133333334124
42549,130.53435483333337,64,0.14760133333334124,73,0.14760133333331282
42550,130.68195616666668,64,0.14760133333331282,80,0.14760133333334124
42551,130.82955750000002,64,0.14760133333334124,82,1.3038124166666591
42552,130.97236350000003,39,0.14280600000000732,61,0.1428059999999789
42553,131.1151695,40,0.1428059999999789,65,0.14280600000000732
42554,131.25797550000001,41,0.14280600000000732,65,0.14280600000000732
42555,131.40078150000002,40,0.14280600000000732,65,0.14280600000000732
42556,131.54358750000003,41,0.14280600000000732,65,0.14805274999997664
42557,131.57928900000002,60,0.03570149999998762,84,0.11235124999998902
42558,131.69164025,57,0.11235124999998902,84,0.44172966666667435
42559,131.83444625,48,0.14280600000000732,66,0.14773883333333515
42560,131.98218508333335,40,0.14773883333333515,66,0.15118483333333188
42561,132.13336991666668,64,0.15118483333333188,93,1.3023174999999867
42562,132.27884508333332,39,0.1454751666666425,74,0.1430454999999995
42563,132.42189058333332,40,0.1430454999999995,66,0.14069833333334714
42564,132.56258891666667,41,0.14069833333334714,66,0.1391013333333433
42565,132.70169025,64,0.1391013333333433,71,0.13910133333331487
42566,132.84079158333333,64,0.13910133333331487,71,0.14713483333332533
42567,132.98792641666665,64,0.14713483333332533,73,0.14925366666668083
42568,133.13718008333333,64,0.14925366666668083,75,0.1492536666666524
42569,133.28643375,64,0.1492536666666524,78,0.14925366666668083
42570,133.43568741666667,64,0.14925366666668083,93,1.313279250000022
42571,133.57755141666667,39,0.1418639999999982,70,0.1418639999999982
42572,133.71941541666666,40,0.1418639999999982,71,0.1418639999999982
42573,133.86127941666666,41,0.1418639999999982,71,0.1418639999999982
42574,134.00314341666666,40,0.1418639999999982,72,0.1418639999999982
42575,134.14500741666666,41,0.1418639999999982,72,0.14626525000002744
42576,134.18047341666667,60,0.035466000000013764,90,0.11079925000001367
42577,134.29127266666669,57,0.11079925000001367,90,0.4576940000000036
42578,134.43313666666668,52,0.1418639999999982,72,0.15256466666667734
42579,134.58570133333336,40,0.15256466666667734,73,0.16326533333332804
42580,134.7489666666667,67,0.16326533333332804,103,0.8263077500000122
42581,134.91323150000002,28,0.16426483333333408,69,0.08051666666668211
42582,135.07311675000003,16,0.1598852500000021,69,0.07825466666668035
42583,135.2286941666667,31,0.1555774166666879,69,0.07701783333331491
42584,135.4019842916667,19,0.17329012499999408,69,0.07701783333334333
42585,135.53676550000003,34,0.1347812083333224,69,0.07701783333334333
42586,135.5752744166667,67,0.038508916666671666,99,0.115526750000015
42587,135.69080116666672,67,0.115526750000015,102,0.4619534166666597
42588,135.84483683333337,37,0.15403566666665824,69,0.07701783333334333
42589,135.99887250000003,25,0.15403566666665824,69,0.07701783333334333
42590,136.15275458333338,67,0.1538820833333432,95,0.42105300000000057
42591,136.29310558333339,38,0.14035100000000966,70,0.14035099999998124
42592,136.43345658333337,35,0.14035099999998124,69,0.14035100000000966
42593,136.57380758333338,59,0.14035100000000966,91,0.43636399999999753
42594,136.71926225000004,38,0.14545466666666584,66,0.14545466666666584
42595,136.8647169166667,47,0.14545466666666584,65,0.14545466666666584
42596,137.01017158333337,59,0.14545466666666584,86,0.3913494999999898
42597,137.16054758333337,38,0.1503759999999943,60,0.1503759999999943
42598,137.31092358333336,35,0.1503759999999943,59,0.14360100000001808
42599,137.40152108333336,59,0.09059750000000122,79,0.05300350000001686
42600,137.45452458333338,57,0.05300350000001686,87,0.43165500000000634
42601,137.5984095833334,26,0.1438850000000116,61,0.14388499999998317
42602,137.74229458333338,33,0.14388499999998317,63,0.1438850000000116
42603,137.8861795833334,55,0.1438850000000116,88,0.4411760000000129
42604,138.03323825000007,33,0.14705866666668044,66,0.14705866666665202
42605,138.18029691666672,42,0.14705866666665202,67,0.14705866666668044
42606,138.3273555833334,57,0.14705866666668044,89,0.46392900000000736
42607,138.4819985833334,33,0.15464299999999298,69,0.15464299999999298
42608,138.6366415833334,26,0.15464299999999298,70,0.1546430000000214
42609,138.7912845833334,59,0.1546430000000214,90,1.4457966666666948
42610,138.9433758333334,31,0.1520912499999838,66,0.15267633333331787
42611,139.0960521666667,26,0.15267633333331787,66,0.15449241666667035
42612,139.25054458333338,19,0.15449241666667035,74,0.15635250000002543
42613,139.4068970833334,35,0.15635250000002543,68,0.15809358333331147
42614,139.4856220833334,54,0.0787249999999915,91,0.24030491666670173
42615,139.56499066666672,26,0.07936858333331998,70,0.16093633333338175
42616,139.7259270000001,53,0.16093633333338175,94,0.5111542500000041
42617,139.89139758333346,38,0.1654705833333594,71,0.17022824999997965
42618,140.06162583333344,26,0.17022824999997965,73,0.1754554166666651
42619,140.2370812500001,59,0.1754554166666651,103,0.8102906666666456
42620,140.38968341666677,30,0.15260216666666793,69,0.07617299999998295
42621,140.54202941666676,18,0.15234599999999432,69,0.07617299999998295
42622,140.69437541666676,35,0.15234599999999432,69,0.07844366666665792
42623,140.8512627500001,18,0.15688733333334426,69,0.07844366666665792
42624,141.00815008333342,39,0.15688733333331584,69,0.07844366666668634
42625,141.04737191666675,59,0.03922183333332896,99,0.1176655000000153
42626,141.16503741666676,59,0.1176655000000153,102,0.47066200000000435
42627,141.32192475000008,42,0.15688733333331584,69,0.07844366666668634
42628,141.47881208333342,18,0.15688733333334426,69,0.07844366666665792
42629,141.63569941666677,59,0.15688733333334426,100,0.66694099999998
42630,141.78219808333344,42,0.14649866666667322,70,0.07324933333333661
42631,141.9286967500001,51,0.14649866666667322,69,0.07324933333330819
42632,142.07519541666676,47,0.1464986666666448,68,0.07581500000000574
42633,142.22682541666677,42,0.15163000000001148,66,0.07581499999997732
42634,142.30264041666675,51,0.07581499999997732,86,0.22744500000001722
42635,142.37845541666675,39,0.07581500000000574,65,0.07581500000000574
42636,142.53008541666676,51,0.15163000000001148,81,0.48863900000000626
42637,142.69296508333343,30,0.16287966666666875,60,0.08143983333332017
42638,142.8558447500001,18,0.16287966666666875,59,0.16287966666666875
42639,143.01872441666677,51,0.16287966666666875,85,0.9477615000000128
42640,143.17221641666677,18,0.15349199999999996,56,0.15349199999999996
42641,143.32570841666677,25,0.15349199999999996,56,0.15349199999999996
42642,143.47920041666677,34,0.15349199999999996,56,0.15349199999999996
42643,143.63269241666677,30,0.15349199999999996,56,0.1624285000000043
42644,143.70943841666679,49,0.07674600000001419,76,0.25704749999999876
42645,143.79512091666678,25,0.08568249999999011,55,0.17136500000000865
42646,143.96648591666678,52,0.17136500000000865,75,0.5290982500000041
42647,144.1378509166668,30,0.17136500000000865,54,0.17136499999998023
42648,144.30921591666677,42,0.17136499999998023,53,0.18636825000001522
42649,144.35205716666678,51,0.04284125000000927,71,0.14352700000000596
42650,144.4955841666668,47,0.14352700000000596,59,1.4292572499999778
42651,144.65888366666678,30,0.1632994999999937,47,0.1535520833333237
42652,144.8124357500001,23,0.1535520833333237,46,0.15490791666667292
42653,144.96734366666678,30,0.15490791666667292,45,0.15656941666668445
42654,145.12391308333346,23,0.15656941666668445,44,0.15812558333331594
42655,145.28203866666678,30,0.15812558333331594,42,0.1597107499999879
42656,145.44174941666677,23,0.1597107499999879,46,0.16103066666667587
42657,145.60278008333344,30,0.16103066666667587,40,0.16103066666664745
42658,145.7638107500001,23,0.16103066666664745,39,0.16103066666667587
42659,145.92484141666677,48,0.16103066666667587,54,1.321091666666689
42660,146.07592875000012,23,0.15108733333335067,35,0.14939449999999965
42661,146.22532325000012,31,0.14939449999999965,35,0.1477390000000014
42662,146.37306225000012,23,0.1477390000000014,35,0.14611899999999878
42663,146.51918125000012,31,0.14611899999999878,35,0.14598533333332853
42664,146.59217391666678,48,0.07299266666666426,53,0.21858000000000288
42665,146.66516658333344,23,0.07299266666666426,35,0.14558733333333862
42666,146.81075391666678,48,0.14558733333333862,53,0.43517916666667134
42667,146.95620858333345,23,0.14545466666666584,36,0.14492766666666057
42668,147.1011362500001,31,0.14492766666666057,36,0.14479683333334492
42669,147.24593308333345,48,0.14479683333334492,56,1.3385360000000048
42670,147.3903374166668,30,0.14440433333334113,48,0.14492766666666057
42671,147.53526508333346,23,0.14492766666666057,37,0.14545466666666584
42672,147.68071975000012,30,0.14545466666666584,37,0.14585266666665575
42673,147.82657241666678,23,0.14585266666665575,37,0.14638633333333928
42674,147.8996987500001,47,0.07312633333333451,55,0.21977999999998588
42675,147.97295875000012,30,0.07326000000000477,37,0.1465199999999811
42676,148.1194787500001,42,0.1465199999999811,56,0.46499033333336115
42677,148.26805833333344,30,0.1485795833333441,37,0.15476491666666448
42678,148.4228232500001,23,0.15476491666666448,38,0.16164583333335258
42679,148.58446908333346,50,0.16164583333335258,59,1.279439750000023
42680,148.73058908333346,23,0.14611999999999625,38,0.14427550000002043
42681,148.87486458333348,32,0.14427550000002043,38,0.14260475000000383
42682,149.01746933333348,23,0.14260475000000383,38,0.14134266666667372
42683,149.15881200000015,32,0.14134266666667372,39,0.14134266666667372
42684,149.2294833333335,50,0.07067133333333686,58,0.21201399999998216
42685,149.30015466666683,23,0.07067133333333686,39,0.1413426666666453
42686,149.44149733333347,50,0.1413426666666453,58,0.4224115000000097
42687,149.5823423333335,23,0.140845000000013,39,0.14084499999998457
42688,149.72318733333347,32,0.14084499999998457,39,0.14072150000001216
42689,149.86390883333348,50,0.14072150000001216,61,1.3001307499999655
42690,150.0042598333335,33,0.14035100000000966,50,0.140845000000013
42691,150.1451048333335,23,0.140845000000013,40,0.14121824999998012
42692,150.28632308333349,33,0.14121824999998012,40,0.14171866666666233
42693,150.42804175000015,23,0.14171866666666233,40,0.14209633333334182
42694,150.49896375000014,49,0.07092199999999593,60,0.21339858333334405
42695,150.5701380833335,33,0.07117433333334588,40,0.14222424999999816
42696,150.7123623333335,54,0.14222424999999816,61,0.4516772499999604
42697,150.8569144166668,33,0.14455208333330916,41,0.15039391666667257
42698,151.00730833333347,23,0.15039391666667257,41,0.15673124999997867
42699,151.16403958333345,50,0.15673124999997867,65,1.2470357499999807
42700,151.30715458333344,23,0.14311499999999455,42,0.14109566666667206
42701,151.44825025000011,32,0.14109566666667206,42,0.1391324999999881
42702,151.5873827500001,23,0.1391324999999881,42,0.1379310000000089
42703,151.7253137500001,32,0.1379310000000089,42,0.13781249999999545
42704,151.7942792500001,50,0.06896549999999024,63,0.20630399999998872
42705,151.8631262500001,23,0.06884700000000521,42,0.1374569999999835
42706,152.0005832500001,50,0.1374569999999835,63,0.4104920833333381
42707,152.1376872500001,23,0.1371040000000221,43,0.13686941666665575
42708,152.27455666666677,32,0.13686941666665575,43,0.13651866666666024
42709,152.41107533333343,50,0.13651866666666024,69,0.8206429999999898
42710,152.5472457500001,33,0.1361704166666584,55,0.13617041666668683
42711,152.68341616666677,23,0.13617041666668683,44,0.13651866666666024
42712,152.81993483333343,33,0.13651866666666024,44,0.13698633333333987
42713,152.95692116666677,23,0.13698633333333987,44,0.13722166666664748
42714,153.02541433333343,49,0.06849316666665572,67,0.20630399999998872
42715,153.09414283333342,33,0.06872849999999175,44,0.13757549999999696
42716,153.23171833333342,42,0.13757549999999696,67,0.4274019166666676
42717,153.37085758333342,33,0.1391392499999995,44,0.14390075000000024
42718,153.51475833333342,23,0.14390075000000024,45,0.14436191666666787
42719,153.6591202500001,52,0.14436191666666787,71,1.2142415833332905
42720,153.79898116666675,23,0.13986091666666312,45,0.13840916666666203
42721,153.9373903333334,34,0.13840916666666203,45,0.13698708333333798
42722,154.07437741666675,23,0.13698708333333798,45,0.1357092499999908
42723,154.21008666666674,34,0.1357092499999908,46,0.1343419166666706
42724,154.27742666666674,52,0.06734000000000151,69,0.20000374999997916
42725,154.3444285833334,23,0.0670019166666691,46,0.13300183333331006
42726,154.47743041666672,52,0.13300183333331006,70,0.3959314166666559
42727,154.60944375000005,23,0.1320133333333331,46,0.1320133333333331
42728,154.7414570833334,34,0.1320133333333331,46,0.1319047499999897
42729,154.87336183333338,52,0.1319047499999897,74,1.2091153333333295
42730,155.0049408333334,35,0.13157900000001632,62,0.1319047499999897
42731,155.13684558333338,23,0.1319047499999897,49,0.13212258333334148
42732,155.26896816666672,35,0.13212258333334148,48,0.13245033333333822
42733,155.40141850000006,23,0.13245033333333822,48,0.1327803333333577
42734,155.46775366666674,51,0.0663351666666756,73,0.19944624999999405
42735,155.53419883333342,35,0.0664451666666821,48,0.13300108333331195
42736,155.66719991666673,56,0.13300108333331195,73,0.4152772499999742
42737,155.80143566666672,35,0.13423574999998777,49,0.13829966666665428
42738,155.93973533333337,23,0.13829966666665428,49,0.14274183333333212
42739,156.0824771666667,52,0.14274183333333212,77,1.1828872499999932
42740,156.22398175000004,23,0.1415045833333295,50,0.13536566666664385
42741,156.35934741666668,34,0.13536566666664385,50,0.13355783333332738
42742,156.49290525,23,0.13355783333332738,50,0.1317975833333378
42743,156.62470283333334,34,0.1317975833333378,50,0.13008300000001327
42744,156.68995583333336,52,0.06525300000001266,75,0.19314083333333087
42745,156.75478583333336,23,0.06483000000000061,50,0.12831083333333027
42746,156.8830966666667,52,0.12831083333333027,76,0.3822677500000111
42747,157.01058708333335,23,0.12749041666666017,51,0.12738866666666127
42748,157.13797575,34,0.12738866666666127,51,0.1273886666666897
42749,157.2653644166667,52,0.1273886666666897,80,0.764331999999996
42750,157.39275308333336,35,0.12738866666666127,69,0.12738866666666127
42751,157.52014175000002,23,0.12738866666666127,52,0.12738866666666127
42752,157.64753041666668,35,0.12738866666666127,52,0.12738866666666127
42753,157.77491908333334,23,0.12738866666666127,52,0.12738866666666127
42754,157.83861341666667,51,0.06369433333333063,78,0.19108300000002032
42755,157.90230775,35,0.06369433333333063,52,0.1273886666666897
42756,158.0296964166667,44,0.1273886666666897,79,0.4100318333333348
42757,158.16188100000002,35,0.13218458333332705,53,0.1369943333333481
42758,158.29887533333337,23,0.1369943333333481,54,0.14085291666665967
42759,158.43972825000003,54,0.14085291666665967,80,0.3835947499999861
42760,158.5671169166667,23,0.12738866666666127,60,0.12789799999998763
42761,158.69501491666668,36,0.12789799999998763,60,0.1283080833333372
42762,158.82332300000002,54,0.1283080833333372,80,0.38783099999997717
42763,158.95214783333336,36,0.12882483333333994,61,0.12924116666667373
42764,159.08138900000003,23,0.12924116666667373,61,0.1297649999999635
42765,159.211154,54,0.1297649999999635,82,0.3968116666666788
42766,159.343065,23,0.13191100000000233,61,0.13245033333333822
42767,159.47551533333333,36,0.13245033333333822,62,0.13245033333333822
42768,159.60796566666667,54,0.13245033333333822,83,0.3984903645833242
42769,160.01065066666666,54,0.4026849999999911,86,0.4181335937500137
42770,160.43318566666667,55,0.42253500000001054,91,0.5128210000000024
42771,160.94600666666668,56,0.5128210000000024,92,0.3566062499999987
42772,161.3063666666667,52,0.3603600000000142,85,0.3084412499999871
42773,161.6180546666667,47,0.31168800000000374,80,0.32094562500000734
42774,161.94237866666668,49,0.32432399999999006,85,0.9555850000000135
42775,162.26009066666668,21,0.3177120000000002,62,0.15475100000000452
42776,162.5695926666667,9,0.30950200000000905,62,0.1641855000000021
42777,162.8979636666667,47,0.3283710000000042,66,0.32247699999999213
42778,162.9382732916667,49,0.04030962499999191,66,0.04030962500002033
42779,162.9785829166667,47,0.04030962500002033,65,0.08061924999998382
42780,163.0592021666667,46,0.08061924999998382,69,0.16123849999999607
42781,163.2204406666667,47,0.16123849999999607,70,0.073568999999992
42782,163.36737716666667,49,0.14693649999998115,73,0.07310433333333322
42783,163.51338691666666,51,0.1460097499999904,74,0.07264408333332995
42784,163.65847966666666,52,0.14509275000000343,76,0.07712075000000596
42785,163.81272116666668,53,0.1542415000000119,80,0.29635716666666667
42786,164.10907833333334,54,0.29635716666666667,83,0.31413599999999064
42787,164.42321433333333,55,0.31413599999999064,87,0.3520192500000121
42788,164.77523358333335,56,0.3520192500000121,89,0.3452032812500079
42789,165.12407058333335,52,0.3488370000000032,85,0.3029332291666549
42790,165.43019258333334,47,0.3061219999999878,80,0.3116474999999923
42791,165.74512058333335,49,0.314928000000009,85,0.9555850000000135
42792,166.06283258333335,21,0.3177120000000002,62,0.15475100000000452
42793,166.37233458333336,9,0.30950200000000905,62,0.1641855000000021
42794,166.70070558333336,47,0.3283710000000042,66,0.32247699999999213
42795,166.74101520833335,49,0.04030962499999191,66,0.04030962500002033
42796,166.78132483333337,47,0.04030962500002033,65,0.08061924999998382
42797,166.86194408333336,46,0.08061924999998382,61,0.16123849999999607
42798,167.02318258333335,47,0.16123849999999607,70,0.07317075000000273
42799,167.16939125000002,49,0.14620866666666643,73,0.07283933333334858
42800,167.3148746666667,51,0.14548341666667852,74,0.07244866666667349
42801,167.45970658333337,52,0.14483191666667494,76,0.0833657500000129
42802,167.62643808333337,50,0.16673149999999737,67,0.303797000000003
42803,167.93023508333337,51,0.303797000000003,69,0.327368000000007
42804,168.25760308333338,53,0.327368000000007,63,0.3735686666666709
42805,168.63117175000005,55,0.3735686666666709,42,0.35291807291667965
42806,168.98780475000004,51,0.356632999999988,39,0.3307801041666778
42807,169.32206675000003,46,0.3342619999999954,37,0.3376839166666912
42808,169.66331191666671,48,0.34124516666668114,39,0.9986669999999833
42809,169.99779691666672,20,0.3344850000000008,28,0.16220599999999763
42810,170.3222089166667,8,0.32441199999999526,28,0.16988499999999362
42811,170.6619789166667,46,0.33976999999998725,39,0.32247699999999213
42812,170.7022885416667,48,0.04030962499999191,39,0.04030962500002033
42813,170.7425981666667,46,0.04030962500002033,38,0.08061924999998382
42814,170.8232174166667,45,0.08061924999998382,37,0.16123849999999607
42815,170.9844559166667,46,0.16123849999999607,42,0.07390758333332315
42816,171.13200008333337,48,0.1475441666666768,44,0.07330191666667929
42817,171.27833991666668,50,0.14633983333331457,44,0.07270866666667075
42818,171.42349725000003,51,0.14515733333334424,46,0.07978725000000964
42819,171.58307175000002,52,0.15957449999999085,47,0.30170499999999834
42820,171.88477675000001,53,0.30170499999999834,50,0.3196079999999881
42821,172.20438475,54,0.3196079999999881,54,0.3313431666666702
42822,172.53572791666667,55,0.3313431666666702,57,0.32896520833332943
42823,172.86815591666667,51,0.33242799999999306,55,0.31249953125001184
42824,173.18394491666666,46,0.3157889999999952,51,0.29987343749999695
42825,173.48697491666667,53,0.3030300000000068,59,0.28555483333332177
42826,173.77252975,54,0.28555483333332177,63,0.29197099999998954
42827,174.06450074999998,56,0.29197099999998954,68,0.29197100000001797
42828,174.35647175,57,0.29197100000001797,72,0.2961347916666739
42829,174.65572375,54,0.29925199999999563,72,0.29083051041666863
42830,174.94961049999998,48,0.29388674999998443,77,0.2864984479166708
42831,175.23912099999998,56,0.2895105000000058,78,0.2797199999999975
42832,175.51884099999998,57,0.2797199999999975,82,0.28846200000000977
42833,175.807303,59,0.28846200000000977,86,0.29776699999999323
42834,176.10506999999998,60,0.29776699999999323,87,0.30370807291666324
42835,176.41197499999998,60,0.3069050000000004,89,0.2964863229166781
42836,176.71163391666667,60,0.29965891666668654,91,0.30709862500000895
42837,177.02198775,60,0.31035383333332334,93,0.3121371041666521
42838,177.33744049999999,60,0.3154527499999915,95,0.3178449583333247
42839,177.65866383333332,60,0.32122333333333586,96,0.3238398020833415
42840,177.98594716666665,60,0.3272833333333267,99,1.4626519999999914
42841,178.34309016666666,54,0.35714300000000776,89,1.1055089999999836
42842,178.81367816666665,59,0.47058799999999223,85,0.6349209999999914
42843,179.44859916666664,39,0.6349209999999914,86,0.3682287499999859
42844,179.81682791666663,40,0.3682287499999859,91,0.303797000000003
42845,180.12062491666663,41,0.303797000000003,96,0.30927800000000616
42846,180.42990291666663,43,0.30927800000000616,99,0.5108612916666289
42847,180.94076420833326,42,0.5108612916666289,94,0.1924410000000023
42848,181.13320520833327,40,0.1924410000000023,93,0.18155791666669074
42849,181.31476312499996,39,0.18155791666669074,92,0.17596616666665454
42850,181.4907292916666,36,0.17596616666665454,91,0.1707093333333205
42851,181.66143862499993,35,0.1707093333333205,91,0.16560499999999934
42852,181.82704362499993,34,0.16560499999999934,90,0.16453199999997992
42853,181.9915756249999,35,0.16453199999997992,84,0.18560024999999314
42854,182.1771758749999,38,0.18560024999999314,88,0.08789324999997916
42855,182.3521098749999,36,0.17493400000000747,88,0.0866219166666724
42856,182.52502154166658,35,0.17291166666666413,88,0.08579616666665402
42857,182.69620679166658,33,0.17118525000000773,87,0.0850662499999828
42858,182.8658596249999,31,0.16965283333331627,87,0.084112250000004
42859,183.0344793749999,30,0.16861975000000484,87,0.08498625000001425
42860,183.20485470833324,28,0.17037533333333954,86,0.08587808333334124
42861,183.37778537499992,27,0.172930666666673,86,0.09340458333332435
42862,183.57350237499992,30,0.19571700000000192,86,0.11813925000004133
42863,183.8333995833333,24,0.2598972083333706,102,0.8602160000000083
42864,184.6936155833333,23,0.8602160000000083,92,0.41778708333333725
42865,185.11140266666663,22,0.41778708333333725,97,0.4166669999999897
42866,185.52806966666662,23,0.4166669999999897,97,0.4166670000000181
42867,185.94473666666664,18,0.4166670000000181,98,0.4067799999999977
42868,186.35151666666664,21,0.4067799999999977,94,0.5960264999999936
42869,186.94754316666663,19,0.5960264999999936,90,0.23076900000000933
42870,187.17831216666664,16,0.23076900000000933,102,0.3703703333333408
42871,187.54868249999998,23,0.3703703333333408,38,0.3333333333333428
42872,187.88201583333333,35,0.3333333333333428,39,0.3333333333333144
42873,188.21534916666664,28,0.3333333333333144,41,0.33107100000000855
42874,188.54642016666665,23,0.33107100000000855,43,0.33107099999998013
42875,188.87749116666663,16,0.33107099999998013,45,0.33107100000000855
42876,189.20856216666664,23,0.33107100000000855,47,0.31746033333334367
42877,189.52602249999998,28,0.31746033333334367,46,0.31746033333331525
42878,189.8434828333333,35,0.31746033333331525,44,0.31683541666669157
42879,190.16031825,28,0.31683541666669157,43,0.31621049999998263
42880,190.47652874999997,23,0.31621049999998263,42,0.3193650833333379
42881,190.7958938333333,16,0.3193650833333379,40,0.32258066666665286
42882,191.11847449999996,23,0.32258066666665286,42,0.32493900000000053
42883,191.44341349999996,28,0.32493900000000053,40,0.32493900000000053
42884,191.76835249999996,35,0.32493900000000053,38,0.3259483333333151
42885,192.09430083333328,28,0.3259483333333151,36,0.32695766666665804
42886,192.42125849999994,23,0.32695766666665804,34,0.32695766666668646
42887,192.74821616666662,16,0.32695766666668646,31,0.3290013333333377
42888,193.07721749999996,23,0.3290013333333377,30,0.31746033333334367
42889,193.3946778333333,28,0.31746033333334367,29,0.31746033333331525
42890,193.71213816666662,35,0.31746033333331525,28,0.31746033333334367
42891,194.02959849999996,28,0.31746033333334367,27,0.33772716666666724
42892,194.36732566666663,23,0.33772716666666724,26,0.3706405833333406
42893,194.73796624999997,16,0.3706405833333406,25,0.39461162500001024
42894,195.13257787499998,55,0.39461162500001024,52,2.001315500000004
42895,195.4966208333333,28,0.36404295833332867,25,0.3347701250000057
42896,195.83139095833332,35,0.3347701250000057,26,0.3333333333333428
42897,196.16472429166666,28,0.3333333333333428,27,0.32720258333333163
42898,196.491926875,23,0.32720258333333163,28,0.323236333333341
42899,196.81516320833333,16,0.323236333333341,29,0.3187301666666542
42900,197.13389337499999,56,0.3187301666666542,51,0.9523810000000026
42901,197.45135370833333,28,0.31746033333334367,29,0.31746033333334367
42902,197.76881404166667,38,0.31746033333334367,30,0.31746033333331525
42903,198.086274375,56,0.31746033333331525,54,0.9790825833333088
42904,198.40756470833333,23,0.32129033333333723,31,0.32721358333330386
42905,198.73477829166663,16,0.32721358333330386,32,0.3305786666666677
42906,199.0653569583333,56,0.3305786666666677,56,1.9396085000000198
42907,199.3932259583333,28,0.32786899999999264,31,0.3265361666666706
42908,199.71976212499996,38,0.3265361666666706,30,0.3252033333333486
42909,200.0449654583333,28,0.3252033333333486,30,0.3199999999999932
42910,200.3649654583333,23,0.3199999999999932,29,0.3199999999999932
42911,200.6849654583333,16,0.3199999999999932,28,0.3200000000000216
42912,201.00496545833332,57,0.3200000000000216,55,2.9614259999999604
42913,201.3249654583333,28,0.3199999999999932,28,0.3199999999999932
42914,201.6449654583333,36,0.3199999999999932,28,0.3199999999999932
42915,201.9649654583333,28,0.3199999999999932,28,0.3252033333333202
42916,202.29016879166662,24,0.3252033333333202,28,0.3252033333333486
42917,202.61537212499996,16,0.3252033333333486,28,0.3252033333333202
42918,202.94057545833329,24,0.3252033333333202,32,0.34193866666666395
42919,203.28251412499995,29,0.34193866666666395,29,0.34193866666666395
42920,203.6244527916666,36,0.34193866666666395,29,0.34193866666666395
42921,203.96639145833328,55,0.34193866666666395,55,0.7402529999999956
42922,204.29539279166661,24,0.3290013333333377,27,0.3290013333333377
42923,204.62439412499995,16,0.3290013333333377,26,0.3290013333333377
42924,204.70664445833327,53,0.08225033333332021,51,0.24675100000001748
42925,204.9533954583333,52,0.24675100000001748,51,1.0044499999999914
42926,205.2871547916666,29,0.33375933333331886,24,0.33534533333332206
42927,205.62250012499993,36,0.33534533333332206,24,0.3353453333333505
42928,205.95784545833328,51,0.3353453333333505,51,1.1306916249999404
42929,206.30723074999995,24,0.349385291666664,24,0.3727916666666715
42930,206.68002241666662,16,0.3727916666666715,24,0.40851466666660485
42931,207.08853708333322,52,0.40851466666660485,54,1.0573541249999892
42932,207.47703154166655,31,0.3884944583333265,24,0.3355263333333198
42933,207.81255787499987,40,0.3355263333333198,23,0.3333333333333428
42934,208.1458912083332,59,0.3333333333333428,60,2.145763791666667
42935,208.47911354166655,23,0.33322233333333884,23,0.33322233333333884
42936,208.8123358749999,16,0.33322233333333884,23,0.3581556666666472
42937,208.89564145833322,48,0.0833055833333276,36,0.2748500833333196
42938,209.17049154166654,48,0.2748500833333196,41,0.3607993333333468
42939,209.38550124166653,50,0.21500969999999597,39,0.182486866666693
42940,209.53129087499988,26,0.14578963333335082,24,0.37083491666666646
42941,209.60468534166657,48,0.07339446666668437,39,0.1848501166666381
42942,209.82691862499988,47,0.22223328333330983,41,0.1884146666666595
42943,209.90212579166655,42,0.07520716666667226,24,0.3895292083333288
42944,210.0535361583332,48,0.15141036666665286,39,0.1981188416666555
42945,210.29165499999988,57,0.23811884166667596,54,1.2515132916666118
42946,210.6993450416665,26,0.40769004166662626,24,0.42112266666666187
42947,211.12046770833317,14,0.42112266666666187,24,0.4227005833333237
42948,211.22857899999985,45,0.1081112916666882,40,0.3145892916666355
42949,211.5431682916665,55,0.3145892916666355,54,3.9570215416666485
42950,211.91623474999983,26,0.37306645833334073,31,0.3359414166666568
42951,212.2521761666665,43,0.3359414166666568,31,0.3305786666666677
42952,212.58275483333315,35,0.3305786666666677,32,0.32786899999999264
42953,212.91062383333315,26,0.32786899999999264,32,0.3252033333333202
42954,213.23582716666647,18,0.3252033333333202,33,0.32193550000002347
42955,213.5577626666665,55,0.32193550000002347,54,0.9599999999999795
42956,213.87776266666648,23,0.3199999999999932,34,0.3199999999999932
42957,214.19776266666648,35,0.3199999999999932,35,0.3199999999999932
42958,214.51776266666647,55,0.3199999999999932,58,0.9824271666666675
42959,214.84035383333315,23,0.3225911666666832,36,0.3278799999999933
42960,215.16823383333315,16,0.3278799999999933,36,0.33195599999999104
42961,215.50018983333314,56,0.33195599999999104,62,1.9652432500000145
42962,215.83009108333314,23,0.32990125000000603,37,0.3252140833333499
42963,216.1553051666665,40,0.3252140833333499,36,0.3200102499999957
42964,216.4753154166665,52,0.3200102499999957,56,0.7246309166666549
42965,216.79277574999983,23,0.31746033333334367,34,0.3252033333333202
42966,217.11797908333315,16,0.3252033333333202,33,0.34745399999999904
42967,217.19994633333314,50,0.08196724999999105,51,0.265486750000008
42968,217.46543308333315,57,0.265486750000008,60,2.9668402500000184
42969,217.79063641666647,24,0.3252033333333202,31,0.32193550000002347
42970,218.1125719166665,40,0.32193550000002347,30,0.3187301666666542
42971,218.43130208333315,48,0.3187301666666542,57,0.7142857500000162
42972,218.7487624166665,24,0.31746033333334367,29,0.31746033333334367
42973,219.06622274999984,16,0.31746033333334367,28,0.34023458333334133
42974,219.14558783333317,47,0.07936508333332881,52,0.2608695000000125
42975,219.40645733333318,45,0.2608695000000125,53,3.995556249999993
42976,219.74839599999984,24,0.34193866666666395,24,0.34193866666666395
42977,220.0903346666665,36,0.34193866666666395,24,0.34193866666666395
42978,220.43227333333317,55,0.34193866666666395,56,0.7402529999999956
42979,220.7612746666665,24,0.3290013333333377,24,0.3290013333333377
42980,221.09027599999985,16,0.3290013333333377,24,0.35252058333333025
42981,221.17252633333317,53,0.08225033333332021,55,0.27027025000001004
42982,221.44279658333318,52,0.27027025000001004,54,0.975609999999989
42983,221.7679999166665,24,0.3252033333333202,24,0.3252033333333486
42984,222.09320324999985,36,0.3252033333333486,24,0.3252033333333202
42985,222.41840658333317,51,0.3252033333333202,52,3.0165890000000104
42986,222.74627558333316,24,0.32786899999999264,24,0.32786900000002106
42987,223.07414458333318,16,0.32786900000002106,24,0.32786899999999264
42988,223.40201358333317,45,0.32786899999999264,60,1.0
42989,223.73534691666651,24,0.3333333333333428,26,0.3333333333333144
42990,224.06868024999983,36,0.3333333333333144,28,0.3333333333333428
42991,224.40201358333317,43,0.3333333333333428,58,0.762711749999994
42992,224.74099658333319,24,0.33898300000001313,27,0.3389829999999847
42993,225.07997958333317,16,0.3389829999999847,27,0.3550160000000062
42994,225.16472533333317,41,0.08474574999999618,47,0.27027025000001004
42995,225.43499558333318,40,0.27027025000001004,57,1.0190220000000068
42996,225.77466958333318,24,0.33967400000000225,28,0.33967400000000225
42997,226.11434358333318,36,0.33967400000000225,28,0.33967400000000225
42998,226.45401758333318,39,0.33967400000000225,56,1.0981996250000066
42999,226.8086944166665,24,0.3546768333333148,28,0.3605634999999836
43000,227.16925791666648,16,0.3605634999999836,28,0.38295929166670817
43001,227.5522172083332,40,0.38295929166670817,61,1.117432249999979
43002,227.93873579166652,23,0.3865185833333271,25,0.3721331666666572
43003,228.31086895833317,40,0.3721331666666572,30,0.3587804999999946
43004,228.66964945833317,56,0.3587804999999946,54,1.0526319999999885
43005,229.0205267916665,23,0.3508773333333295,27,0.3508773333333295
43006,229.37140412499983,16,0.3508773333333295,27,0.3508773333333295
43007,229.72228145833316,49,0.3508773333333295,48,1.0526320000000169
43008,230.07315879166651,23,0.3508773333333579,28,0.3508773333333295
43009,230.42403612499984,39,0.3508773333333295,32,0.3508773333333295
43010,230.77491345833317,51,0.3508773333333295,54,1.0457304999999906
43011,231.1138964583332,23,0.33898300000001313,27,0.3389829999999847
43012,231.45287945833317,16,0.3389829999999847,27,0.3677644999999927
43013,231.53762520833317,49,0.08474574999999618,47,0.28301874999999654
43014,231.82064395833316,47,0.28301874999999654,50,1.0636801666666997
43015,232.18019995833316,23,0.35955599999999777,26,0.35477250000002414
43016,232.5349724583332,37,0.35477250000002414,34,0.34935166666667783
43017,232.88432412499986,52,0.34935166666667783,51,1.0344829999999945
43018,233.22915179166654,23,0.3448276666666743,26,0.3448276666666459
43019,233.57397945833318,16,0.3448276666666459,26,0.3448276666666743
43020,233.91880712499986,45,0.3448276666666743,48,1.0344829999999945
43021,234.26363479166653,23,0.3448276666666743,26,0.3448276666666743
43022,234.6084624583332,35,0.3448276666666743,33,0.3448276666666459
43023,234.95329012499985,51,0.3448276666666459,50,0.7563022500000045
43024,235.28942445833317,23,0.33613433333331955,26,0.33613433333334797
43025,235.62555879166652,16,0.33613433333334797,26,0.4137038333333294
43026,235.70959237499986,49,0.08403358333333699,42,0.3296702499999924
43027,236.03926262499985,47,0.3296702499999924,47,2.255019374999989
43028,236.4130942916665,23,0.37383166666666057,25,0.37383166666666057
43029,236.78692595833317,40,0.37383166666666057,30,0.3719200416666695
43030,237.15884599999984,56,0.3719200416666695,47,2.226345000000009
43031,237.56700933333317,23,0.4081633333333343,25,0.36363633333334633
43032,237.93064566666652,16,0.36363633333334633,25,0.3636363333333179
43033,238.29428199999984,49,0.3636363333333179,44,2.257831249999981
43034,238.65791833333319,23,0.36363633333334633,25,0.3636363333333179
43035,239.0215546666665,39,0.3636363333333179,31,0.36363633333334633
43036,239.38519099999985,54,0.36363633333334633,45,2.366922249999959
43037,239.76168449999983,23,0.37649349999998094,25,0.3883679166666809
43038,240.1500524166665,16,0.3883679166666809,25,0.40206083333330866
43039,240.55211324999982,47,0.40206083333330866,43,2.338735999999983
43040,240.95211324999983,23,0.4000000000000057,24,0.4000000000000057
43041,241.35211324999983,37,0.4000000000000057,29,0.39999999999997726
43042,241.7521132499998,52,0.39999999999997726,45,2.277471999999989
43043,242.13169191666648,23,0.3795786666666743,23,0.37957866666664586
43044,242.51127058333313,16,0.37957866666664586,23,0.3795786666666743
43045,242.8908492499998,45,0.3795786666666743,42,2.3786634999999876
43046,243.27042791666648,23,0.3795786666666743,24,0.3795786666666743
43047,243.65000658333315,35,0.3795786666666743,28,0.37957866666664586
43048,244.0295852499998,51,0.37957866666664586,43,0.885652499999992
43049,244.42320858333312,23,0.39362333333332344,23,0.39362333333335187
43050,244.81683191666647,16,0.39362333333335187,23,0.4526808333333179
43051,244.9152377499998,49,0.09840583333331665,40,0.35427500000000123
43052,245.2695127499998,47,0.35427500000000123,42,5.34420958333331
43053,245.74570308333313,23,0.47619033333333505,22,0.41237100000000737
43054,246.15807408333313,35,0.41237100000000737,27,0.41237099999997895
43055,246.5704450833331,28,0.41237099999997895,22,0.41237100000000737
43056,246.98281608333312,23,0.41237100000000737,22,0.41237100000000737
43057,247.39518708333313,16,0.41237100000000737,22,0.41146508333332577
43058,247.80665216666645,23,0.41146508333332577,31,0.4377471666666679
43059,248.24439933333312,28,0.4377471666666679,26,0.43611949999998956
43060,248.6805188333331,35,0.43611949999998956,28,0.45476541666664616
43061,249.13528424999976,28,0.45476541666664616,30,0.47507699999999886
43062,249.61036124999976,23,0.47507699999999886,32,0.49728808333335905
43063,250.10764933333311,16,0.49728808333335905,35,0.5060729999999865
43064,250.6137223333331,49,0.5060729999999865,59,3.153368333333333
43065,251.2107373333331,28,0.597014999999999,30,0.4878050000000087
43066,251.6985423333331,40,0.4878050000000087,31,0.5063289999999938
43067,252.2048713333331,33,0.5063289999999938,33,0.5063289999999938
43068,252.7112003333331,28,0.5063289999999938,35,0.5003346666666744
43069,253.21153499999977,21,0.5003346666666744,36,0.5555556666666632
43070,253.76709066666643,49,0.5555556666666632,66,4.177931333333333
43071,254.35532599999976,28,0.5882353333333299,37,0.526315666666676
43072,254.88164166666644,40,0.526315666666676,37,0.5633803333333276
43073,255.44502199999977,33,0.5633803333333276,37,0.6666666666666856
43074,256.11168866666645,28,0.6666666666666856,37,0.8333333333333144
43075,256.94502199999977,21,0.8333333333333144,37,1.0
43076,257.94502199999977,52,1.0,66,8.006398958333193
43077,258.85411299999976,16,0.9090909999999894,44,0.3448276666666743
43078,259.5437683333331,23,0.6896553333333486,46,0.3448276666666743
43079,260.2334236666664,28,0.6896553333332918,48,0.33761933333335037
43080,260.93154966666634,35,0.6981259999999452,50,0.38853266666666286
43081,261.741368458333,40,0.8098187916666575,51,0.46007420833331025
43082,262.70817795833295,44,0.9668094999999539,58,3.2432430000000068
43083,265.95142095833296,35,3.2432430000000068,27,14.950558999999998
43084,269.19466395833297,44,3.2432430000000068,33,11.707315999999992
43085,0.0023809520833333333,26,0.0,40,0.5690475479166667
43086,0.5714285,34,0.5690475479166667,34,0.6
43087,1.1714285,26,0.6,40,0.5660375
43088,1.737466,34,0.5660375,34,0.5660374999999997
43089,2.3035034999999997,26,0.5660374999999997,40,0.5714285000000001
43090,2.874932,34,0.5714285000000001,34,0.5714285000000001
43091,3.4463605,26,0.5714285000000001,40,0.5714284999999997
43092,4.017789,34,0.5714284999999997,33,0.5999999999999996
43093,4.617788999999999,26,0.5999999999999996,40,0.5660375000000002
43094,5.1838264999999994,34,0.5660375000000002,33,0.5660374999999993
43095,5.749863999999999,26,0.5660374999999993,38,0.5714284999999997
43096,6.321292499999998,34,0.5714284999999997,31,0.5940595000000002
43097,6.915351999999999,26,0.5940595000000002,36,0.5714284999999997
43098,7.486780499999998,34,0.5714284999999997,29,0.5940595000000002
43099,8.080839999999998,26,0.5940595000000002,35,0.5940595000000002
43100,8.674899499999999,34,0.5940595000000002,26,0.6521740000000005
43101,9.3270735,43,0.6521740000000005,55,4.126388666666665
43102,9.909597999999999,34,0.5825244999999999,27,0.5999999999999996
43103,10.509597999999999,26,0.5999999999999996,33,0.5660375000000002
43104,11.075635499999999,34,0.5660375000000002,27,0.5660375000000002
43105,11.641672999999999,26,0.5660375000000002,33,0.5607474999999997
43106,12.202420499999999,34,0.5607474999999997,27,0.5999999999999996
43107,12.802420499999998,26,0.5999999999999996,33,0.625
43108,13.427420499999998,34,0.625,26,0.625
43109,13.453462166666665,38,0.026041666666666075,41,0.6105324062499999
43110,14.052420499999998,26,0.5989583333333339,33,0.5555555000000005
43111,14.063994572916664,41,0.011574072916666012,55,4.483946927083336
43112,14.607975999999999,34,0.5439814270833345,27,0.5555554999999988
43113,15.163531499999998,26,0.5555554999999988,33,0.5607474999999997
43114,15.724278999999997,34,0.5607474999999997,27,0.5882355000000015
43115,16.3125145,26,0.5882355000000015,33,0.5454545000000017
43116,16.857969,34,0.5454545000000017,27,0.5454544999999982
43117,17.4034235,26,0.5454544999999982,33,0.5504585000000013
43118,17.953882,34,0.5504585000000013,26,0.5940595000000002
43119,18.5479415,41,0.5940595000000002,55,1.619417875
43120,19.1479415,34,0.6000000000000014,27,0.5825245000000017
43121,19.730466000000003,24,0.5825245000000017,33,0.5825244999999981
43122,20.167359375,45,0.4368933749999968,44,0.1456311250000013
43123,20.3129905,43,0.1456311250000013,51,0.5825245000000017
43124,20.895515000000003,41,0.5825245000000017,53,1.7279888333333346
43125,21.445973500000004,33,0.5504585000000013,27,0.5714284999999997
43126,22.017402000000004,24,0.5714284999999997,33,0.6061018333333337
43127,22.623503833333338,36,0.6061018333333337,41,0.6261650000000003
43128,23.249668833333338,38,0.6261650000000003,52,1.1750000000000007
43129,23.84966883333334,34,0.6000000000000014,26,0.5999999999999979
43130,24.449668833333337,38,0.5999999999999979,48,0.9437723124999984
43131,25.09032766666667,34,0.6406588333333332,24,0.6705235000000016
43132,25.42121891666667,38,0.3308912500000005,44,0.31122316666666805
43133,25.760851166666672,38,0.3396322500000011,46,4.480236000000001
43134,26.337774166666673,34,0.5769230000000007,23,0.6000000000000014
43135,26.937774166666674,29,0.6000000000000014,27,0.5607475000000015
43136,27.498521666666676,34,0.5607475000000015,22,0.560747499999998
43137,28.059269166666674,29,0.560747499999998,29,0.5454545000000017
43138,28.604723666666676,34,0.5454545000000017,25,0.5454544999999982
43139,29.150178166666674,29,0.5454544999999982,30,0.5454545000000017
43140,29.695632666666675,34,0.5454545000000017,26,0.5454544999999982
43141,30.241087166666674,29,0.5454544999999982,31,0.5454545000000017
43142,30.786541666666675,34,0.5454545000000017,27,0.5555555000000005
43143,31.342097166666676,29,0.5555555000000005,33,0.5660375000000002
43144,31.908134666666676,34,0.5660375000000002,26,0.5660375000000002
43145,32.474172166666676,33,0.5660375000000002,33,0.5687329999999946
43146,33.04290516666667,41,0.5687329999999946,27,0.5714285000000032
43147,33.614333666666674,33,0.5714285000000032,33,0.5714284999999961
43148,34.18576216666667,41,0.5714284999999961,27,0.6207269166666691
43149,34.80648908333334,50,0.6207269166666691,62,1.7428570000000008
43150,35.40648908333334,41,0.6000000000000014,27,0.5714285000000032
43151,35.977917583333344,33,0.5714285000000032,33,0.5714284999999961
43152,36.54934608333334,41,0.5714284999999961,26,0.6382979999999989
43153,36.56264395833334,45,0.013297874999999237,53,0.6369048854166692
43154,37.18764408333334,33,0.6250001249999997,33,0.5714285000000032
43155,37.19954884375001,48,0.011904760416669546,59,4.531292239583337
43156,37.75907258333334,41,0.5595237395833337,27,0.5940595000000002
43157,38.35313208333334,33,0.5940595000000002,33,0.560747499999998
43158,38.91387958333334,41,0.560747499999998,27,0.5607475000000051
43159,39.474627083333345,33,0.5607475000000051,33,0.5454544999999982
43160,40.020081583333344,41,0.5454544999999982,27,0.5454545000000053
43161,40.56553608333335,33,0.5454545000000053,33,0.5751093333333301
43162,41.14064541666668,41,0.5751093333333301,26,0.5901956666666663
43163,41.730841083333345,48,0.5901956666666663,51,1.5927892500000027
43164,42.296878583333346,41,0.5660375000000002,27,0.5940595000000002
43165,42.890938083333346,31,0.5940595000000002,33,0.5769230000000007
43166,43.32363033333335,52,0.43269225000000233,38,0.1442307499999984
43167,43.46786108333335,50,0.1442307499999984,47,0.5769230000000007
43168,44.04478408333335,48,0.5769230000000007,51,1.6770505
43169,44.605531583333345,40,0.560747499999998,27,0.5607475000000051
43170,45.16627908333335,31,0.5607475000000051,33,0.555555499999997
43171,45.72183458333335,43,0.555555499999997,46,0.5825244999999981
43172,46.304359083333345,45,0.5825244999999981,53,1.1113076458333282
43173,46.85741408333334,40,0.5530549999999934,29,0.5825244999999981
43174,47.43993858333334,45,0.5825244999999981,58,0.901718708333334
43175,48.05218358333334,40,0.6122450000000015,34,0.6315790000000021
43176,48.36797308333334,45,0.31578950000000106,56,0.2894737083333325
43177,48.68376258333334,45,0.31578950000000106,63,4.440779000000006
43178,49.24980008333334,40,0.5660375000000002,36,0.5714285000000032
43179,49.821228583333344,30,0.5714285000000032,44,0.560747499999998
43180,50.38197608333334,40,0.560747499999998,35,0.5607475000000051
43181,50.94272358333335,30,0.5607475000000051,44,0.5454544999999982
43182,51.488178083333345,40,0.5454544999999982,36,0.5454545000000053
43183,52.03363258333335,30,0.5454545000000053,44,0.5454544999999982
43184,52.57908708333335,40,0.5454544999999982,36,0.5454544999999982
43185,53.12454158333335,30,0.5454544999999982,44,0.555555499999997
43186,53.680097083333344,39,0.555555499999997,36,0.5687830000000034
43187,54.24888008333335,30,0.5687830000000034,44,0.555555499999997
43188,54.804435583333344,39,0.555555499999997,35,0.5714285000000032
43189,55.37586408333335,30,0.5714285000000032,44,0.5660375000000002
43190,55.94190158333335,36,0.5660375000000002,35,0.560747499999998
43191,56.502649083333345,30,0.560747499999998,40,0.5454544999999982
43192,57.048103583333344,36,0.5454544999999982,33,0.5660375000000002
43193,57.614141083333344,30,0.5660375000000002,38,0.555555499999997
43194,58.16969658333334,36,0.555555499999997,30,0.5555555000000041
43195,58.725252083333345,30,0.5555555000000041,34,0.5714285000000032
43196,59.29668058333335,36,0.5714285000000032,26,0.5714284999999961
43197,59.868109083333344,30,0.5714284999999961,31,0.6000000000000014
43198,60.468109083333346,36,0.6000000000000014,26,0.6521740000000023
43199,61.12028308333335,48,0.6521740000000023,55,7.408152999999999
43200,61.69171158333335,36,0.5714285000000032,26,0.5882355000000032
43201,62.279947083333354,30,0.5882355000000032,30,0.5660375000000002
43202,62.845984583333355,36,0.5660375000000002,26,0.5660375000000002
43203,63.412022083333355,30,0.5660375000000002,30,0.5660375000000002
43204,63.978059583333355,36,0.5660375000000002,24,0.5660375000000002
43205,64.54409708333336,27,0.5660375000000002,30,0.5660374999999931
43206,65.11013458333335,36,0.5660374999999931,25,0.5660375000000073
43207,65.67617208333336,27,0.5660375000000073,29,0.5769229999999936
43208,66.25309508333335,36,0.5769229999999936,25,0.5769230000000078
43209,66.83001808333336,27,0.5769230000000078,29,0.5607475000000051
43210,67.39076558333336,36,0.5607475000000051,24,0.5607474999999909
43211,67.95151308333335,27,0.5607474999999909,29,0.5769229999999936
43212,68.52843608333335,43,0.5769229999999936,47,0.6451615000000004
43213,69.17359758333335,27,0.6451615000000004,29,0.5660374999999931
43214,69.19718247916668,44,0.023584895833337782,49,4.76770735416666
43215,69.73963508333334,36,0.5424526041666553,24,0.5714284999999961
43216,70.31106358333334,27,0.5714284999999961,28,0.5714285000000103
43217,70.88249208333335,36,0.5714285000000103,24,0.5714284999999961
43218,71.45392058333334,27,0.5714284999999961,28,0.6040610000000015
43219,72.05798158333334,36,0.6040610000000015,23,0.6186004999999994
43220,72.67658208333334,27,0.6186004999999994,28,0.6360824166666674
43221,73.31266450000001,36,0.6360824166666674,22,0.6522253333333339
43222,73.96488983333334,44,0.6522253333333339,46,1.8333328749999964
43223,75.79822270833334,48,1.8333328749999964,37,0.16666662500000484
43224,75.96488933333335,46,0.16666662500000484,42,0.6666665000000052
43225,76.63155583333335,44,0.6666665000000052,46,1.999999499999987
43226,78.63155533333334,39,1.999999499999987,42,0.6666665000000052
43227,79.29822183333334,41,0.6666665000000052,46,1.2368422083333286
43228,80.56137983333335,41,1.2631580000000042,44,0.9210527083333346
43229,81.50874833333334,41,0.9473684999999961,42,0.2894737083333325
43230,81.82453783333334,41,0.31578949999999395,46,4.6000684999999635
43231,82.39057533333333,32,0.5660374999999931,23,0.5825245000000052
43232,82.97309983333334,27,0.5825245000000052,27,0.5660374999999931
43233,83.53913733333333,32,0.5660374999999931,23,0.5769229999999936
43234,84.11606033333332,27,0.5769229999999936,27,0.5660374999999931
43235,84.68209783333332,32,0.5660374999999931,23,0.5882354999999961
43236,85.27033333333331,27,0.5882354999999961,27,0.5660374999999931
43237,85.8363708333333,32,0.5660374999999931,22,0.5882354999999961
43238,88.8246063333333,41,2.988235500000002,46,1.7934785000000062
43239,90.61808483333331,44,1.7934785000000062,37,0.16304350000000056
43240,90.78112833333331,43,0.16304350000000056,42,0.652173999999988
43241,91.4333023333333,41,0.652173999999988,46,1.9565220000000068
43242,93.38982433333331,36,1.9565220000000068,35,3.314578499999996
43243,94.09570683333331,38,0.7058825000000013,39,1.2771740833333354
43244,95.40005483333331,38,1.3043480000000045,44,0.9510870833333342
43245,96.3783158333333,38,0.9782609999999892,42,0.2989130833333462
43246,96.7044028333333,38,0.3260870000000011,38,1.3793100000000038
43247,98.08371283333331,38,1.3793100000000038,37,1.4814810000000023
43248,99.56519383333331,38,1.4814810000000023,38,2.9629619999999903
43249,101.9726004583333,29,2.407406624999993,31,3.673299374999999
43250,102.15778558333331,31,0.18518512500000384,31,3.4881142499999953
43251,102.34297070833331,35,0.18518512500000384,31,3.3029291249999915
43252,102.5281558333333,38,0.18518512499998963,38,3.117744000000002
43253,104.7503773333333,39,2.2222215000000034,38,0.8955224999999984
43254,105.6458998333333,12,0.8955224999999984,25,7.931585749999996
43255,105.91219054166665,19,0.2662907083333437,30,7.665295041666653
43256,106.16647654166664,27,0.25428599999999335,31,7.411009041666659
43257,106.41105612499997,31,0.24457958333333352,31,7.166429458333326
43258,106.64546929166663,36,0.23441316666665557,38,6.93201629166667
43259,0.0,30,0.0,29,0.12759216666666667
43260,0.12759216666666667,37,0.12759216666666667,26,0.12678316666666667
43261,0.25437533333333334,33,0.12678316666666667,27,0.126284
43262,0.38065933333333335,38,0.126284,33,0.12530133333333338
43263,0.5059606666666667,30,0.12530133333333338,30,0.12588658333333336
43264,0.6318472500000001,38,0.12588658333333336,32,0.12925591666666658
43265,0.7611031666666667,29,0.12925591666666658,36,0.12762383333333338
43266,0.888727,38,0.12762383333333338,29,0.12578674999999984
43267,1.0145137499999999,32,0.12578674999999984,29,0.12500066666666676
43268,1.1395144166666666,37,0.12500066666666676,32,0.12470800000000004
43269,1.2642224166666667,29,0.12470800000000004,28,0.12529400000000002
43270,1.3895164166666667,37,0.12529400000000002,27,0.12749875
43271,1.5170151666666667,30,0.12749875,33,0.12598450000000017
43272,1.6429996666666669,37,0.12598450000000017,30,0.12500066666666654
43273,1.7680003333333334,33,0.12500066666666654,30,0.12393575000000001
43274,1.8919360833333334,38,0.12393575000000001,37,0.12364783333333351
43275,2.015583916666667,30,0.12364783333333351,34,0.12422366666666651
43276,2.1398075833333334,38,0.12422366666666651,36,0.12629100000000015
43277,2.2660985833333336,29,0.12629100000000015,41,0.12568749999999973
43278,2.3917860833333333,38,0.12568749999999973,36,0.12509799999999993
43279,2.5168840833333332,32,0.12509799999999993,33,0.12441716666666647
43280,2.6413012499999997,37,0.12441716666666647,38,0.12441833333333374
43281,2.7657195833333335,29,0.12441833333333374,34,0.12598583333333302
43282,2.8917054166666665,37,0.12598583333333302,32,0.12769566666666687
43283,3.0194010833333333,30,0.12769566666666687,37,0.1272875
43284,3.1466885833333333,37,0.1272875,34,0.12658291666666655
43285,3.2732715,33,0.12658291666666655,35,0.12578675000000006
43286,3.39905825,38,0.12578675000000006,44,0.12345666666666677
43287,3.5225149166666667,30,0.12345666666666677,41,0.12317191666666627
43288,3.645686833333333,39,0.12317191666666627,44,0.1228881666666668
43289,3.768575,32,0.1228881666666668,48,0.1233624166666667
43290,3.8919374166666665,39,0.1233624166666667,45,0.12451449999999964
43291,4.016451916666666,35,0.12451449999999964,45,0.12740266666666678
43292,4.148571558333333,42,0.1321196416666668,49,0.12567272500000026
43293,4.278162783333333,36,0.12959122500000042,44,0.12500066666666587
43294,4.394542749999999,40,0.11637996666666606,39,0.12658866666666757
43295,4.521131416666667,33,0.12658866666666757,42,0.12689533333333358
43296,4.6480267500000005,40,0.12689533333333358,37,0.1257867500000005
43297,4.773813500000001,37,0.1257867500000005,38,0.12500066666666587
43298,4.898814166666667,42,0.12500066666666587,49,0.12269933333333327
43299,5.0215135,33,0.12269933333333327,45,0.12269933333333327
43300,5.1442128333333335,43,0.12269933333333327,49,0.12251166666666702
43301,5.2667245000000005,36,0.12251166666666702,54,0.12279433333333323
43302,5.389518833333334,43,0.12279433333333323,50,0.123839583333333
43303,5.513358416666667,39,0.123839583333333,51,0.1265051666666661
43304,5.639863583333333,45,0.1265051666666661,54,0.12599725000000017
43305,5.765860833333333,40,0.12599725000000017,43,0.12461125000000006
43306,5.890472083333333,44,0.12461125000000006,40,0.12383958333333389
43307,6.014311666666667,37,0.12383958333333389,47,0.12441716666666736
43308,6.138728833333334,44,0.12441716666666736,42,0.12364783333333307
43309,6.262376666666667,40,0.12364783333333307,44,0.12279433333333323
43310,6.385171000000001,33,0.12279433333333323,46,0.12288925000000006
43311,6.508060250000001,37,0.12288925000000006,52,0.12441833333333285
43312,6.6324785833333335,45,0.12441833333333285,54,0.12529691666666665
43313,6.7577755,36,0.12529691666666665,56,0.12403133333333383
43314,6.881806833333334,45,0.12403133333333383,50,0.12355225000000036
43315,7.005359083333334,39,0.12355225000000036,47,0.12298258333333312
43316,7.1283416666666675,44,0.12298258333333312,48,0.12307749999999995
43317,7.251419166666667,36,0.12307749999999995,45,0.12412808333333292
43318,7.37554725,44,0.12412808333333292,45,0.12509866666666714
43319,7.5006459166666675,37,0.12509866666666714,48,0.12519599999999986
43320,7.625841916666667,44,0.12519599999999986,45,0.12451450000000008
43321,7.750356416666667,40,0.12451450000000008,46,0.12345733333333264
43322,7.87381375,45,0.12345733333333264,57,0.12298308333333274
43323,7.996796833333333,36,0.12298308333333274,53,0.12441833333333285
43324,8.121215166666666,45,0.12441833333333285,55,0.12598583333333124
43325,8.247200999999997,35,0.12598583333333124,65,0.12549100000000024
43326,8.372691999999997,45,0.12549100000000024,60,0.12451450000000008
43327,8.497206499999997,41,0.12451450000000008,52,0.12345733333333264
43328,8.62066383333333,44,0.12345733333333264,54,0.12298308333333452
43329,8.743646916666664,38,0.12298308333333452,50,0.12393574999999757
43330,8.867582666666662,44,0.12393574999999757,47,0.12461241666666645
43331,8.992195083333328,35,0.12461241666666645,69,0.12364783333333307
43332,9.115842916666661,43,0.12364783333333307,58,0.12307750000000084
43333,9.238920416666662,38,0.12307750000000084,57,0.12251166666666613
43334,9.361432083333328,41,0.12251166666666613,62,0.12158166666666581
43335,9.483013749999994,35,0.12158166666666581,51,0.12176599999999915
43336,9.604779749999993,41,0.12176599999999915,52,0.12251166666666613
43337,9.72729141666666,34,0.12251166666666613,55,0.12326683333333222
43338,9.850558249999992,41,0.12326683333333222,49,0.12403133333333294
43339,9.974589583333325,37,0.12403133333333294,49,0.1242236666666674
43340,10.098813249999992,44,0.1242236666666674,50,0.12422366666666562
43341,10.223036916666658,34,0.12422366666666562,56,0.1242236666666674
43342,10.347260583333325,42,0.1242236666666674,55,0.1242236666666674
43343,10.471484249999992,32,0.1242236666666674,67,0.12374341666666666
43344,10.59522766666666,40,0.12374341666666666,59,0.12317191666666538
43345,10.718399583333325,34,0.12317191666666538,58,0.12251166666666613
43346,10.84091124999999,38,0.12251166666666613,63,0.12195133333333352
43347,10.962862583333324,32,0.12195133333333352,52,0.12241783333333345
43348,11.085280416666658,38,0.12241783333333345,53,0.12288816666666591
43349,11.208168583333324,31,0.12288816666666591,56,0.12326683333333399
43350,11.331435416666658,38,0.12326683333333399,50,0.12374341666666666
43351,11.455178833333324,34,0.12374341666666666,49,0.12432041666666649
43352,11.57949924999999,40,0.12432041666666649,51,0.12461066666666554
43353,11.704109916666656,31,0.12461066666666554,56,0.1251990833333334
43354,11.82930899999999,39,0.1251990833333334,58,0.1282117499999984
43355,11.957520749999988,33,0.1282117499999984,70,0.12279433333333323
43356,12.080315083333321,41,0.12279433333333323,59,0.12185916666666685
43357,12.202174249999988,36,0.12185916666666685,59,0.12084650000000074
43358,12.323020749999989,39,0.12084650000000074,63,0.1203915000000002
43359,12.443412249999989,33,0.1203915000000002,53,0.12093750000000014
43360,12.56434974999999,39,0.12093750000000014,54,0.12139633333333322
43361,12.685746083333322,32,0.12139633333333322,57,0.12185866666666634
43362,12.807604749999989,39,0.12185866666666634,51,0.12241783333333345
43363,12.930022583333322,35,0.12241783333333345,51,0.12288816666666591
43364,13.052910749999988,42,0.12288816666666591,53,0.12345666666666588
43365,13.176367416666654,32,0.12345666666666588,58,0.12374583333333433
43366,13.300113249999988,40,0.12374583333333433,59,0.12669099999999922
43367,13.426804249999988,30,0.12669099999999922,71,0.12288816666666591
43368,13.549692416666653,38,0.12288816666666591,61,0.12213766666666537
43369,13.671830083333319,32,0.12213766666666537,60,0.12139633333333322
43370,13.793226416666652,36,0.12139633333333322,61,0.12084600000000023
43371,13.914072416666652,30,0.12084600000000023,53,0.12121199999999988
43372,14.035284416666652,36,0.12121199999999988,54,0.12158066666666656
43373,14.156865083333319,29,0.12158066666666656,56,0.12195133333333352
43374,14.278816416666652,36,0.12195133333333352,51,0.12232400000000077
43375,14.401140416666653,32,0.12232400000000077,51,0.12279375000000137
43376,14.523934166666654,37,0.12279375000000137,66,0.12307700000000033
43377,14.647011166666655,33,0.12307700000000033,58,0.12307699999999855
43378,14.770088166666653,37,0.12307699999999855,60,0.12270291666666644
43379,14.89279108333332,30,0.12270291666666644,75,0.12102966666666681
43380,15.013820749999987,37,0.12102966666666681,68,0.12057300000000026
43381,15.134393749999987,33,0.12057300000000026,69,0.12021049999999889
43382,15.254604249999986,38,0.12021049999999889,78,0.11976033333333369
43383,15.37436458333332,33,0.11976033333333369,75,0.11940300000000015
43384,15.49376758333332,38,0.11940300000000015,77,0.11895933333333275
43385,15.612726916666652,29,0.11895933333333275,80,0.11887100000000039
43386,15.731597916666653,38,0.11887100000000039,67,0.11949233333333353
43387,15.851090249999986,32,0.11949233333333353,65,0.12003008333333298
43388,15.97112033333332,37,0.12003008333333298,67,0.12066399999999966
43389,16.09178433333332,29,0.12066399999999966,59,0.12130416666666832
43390,16.213088499999987,37,0.12130416666666832,58,0.12214000000000169
43391,16.33522849999999,30,0.12214000000000169,67,0.11963533333333132
43392,16.45486383333332,37,0.11963533333333132,59,0.1187002500000034
43393,16.573564083333324,33,0.1187002500000034,61,0.11768591666666595
43394,16.69124999999999,38,0.11768591666666595,80,0.11741250000000036
43395,16.80866249999999,34,0.11741250000000036,74,0.11795933333333508
43396,16.926621833333325,38,0.11795933333333508,75,0.11992641666666515
43397,17.04654824999999,29,0.11992641666666515,83,0.11935325000000319
43398,17.165901499999993,38,0.11935325000000319,73,0.11879499999999865
43399,17.284696499999992,33,0.11879499999999865,74,0.11814083333333159
43400,17.402837333333323,37,0.11814083333333159,80,0.11814366666666842
43401,17.520980999999992,32,0.11814366666666842,72,0.1196383333333344
43402,17.640619333333326,37,0.1196383333333344,69,0.12126016666666573
43403,17.761879499999992,30,0.12126016666666573,71,0.12087366666666455
43404,17.882753166666657,37,0.12087366666666455,63,0.1202055000000044
43405,18.00295866666666,33,0.1202055000000044,63,0.11944808333333157
43406,18.122406749999993,38,0.11944808333333157,78,0.11723333333333485
43407,18.239640083333327,30,0.11723333333333485,73,0.116961083333333
43408,18.35660116666666,38,0.116961083333333,73,0.11668983333333216
43409,18.473290999999993,32,0.11668983333333216,85,0.11714141666666578
43410,18.59043241666666,40,0.11714141666666578,76,0.11823558333333395
43411,18.708667999999992,36,0.11823558333333395,76,0.12098358333333437
43412,18.829651583333327,40,0.12098358333333437,86,0.11935325000000319
43413,18.94900483333333,32,0.11935325000000319,82,0.11870024999999984
43414,19.06770508333333,40,0.11870024999999984,78,0.11907599999999974
43415,19.18678108333333,33,0.11907599999999974,78,0.12087366666666455
43416,19.307654749999994,40,0.12087366666666455,71,0.1202055000000044
43417,19.42786025,36,0.1202055000000044,72,0.11944808333333157
43418,19.54730833333333,41,0.11944808333333157,83,0.11723333333333485
43419,19.664541666666665,33,0.11723333333333485,77,0.116961083333333
43420,19.781502749999998,41,0.116961083333333,79,0.11668983333333216
43421,19.89819258333333,37,0.11668983333333216,90,0.11714141666666578
43422,20.015333999999996,42,0.11714141666666578,83,0.11823558333333395
43423,20.13356958333333,33,0.11823558333333395,82,0.12098358333333437
43424,20.254553166666664,43,0.12098358333333437,97,0.11935325000000319
43425,20.373906416666667,34,0.11935325000000319,90,0.11870024999999984
43426,20.492606666666667,44,0.11870024999999984,85,0.12535252499999672
43427,20.617959191666664,35,0.12535252499999672,84,0.12066400000000144
43428,20.738623191666665,38,0.12066400000000144,74,0.11976091666666733
43429,20.858384108333333,33,0.11976091666666733,73,0.1187832499999999
43430,20.977167358333332,38,0.1187832499999999,80,0.11869491666666576
43431,21.095862274999998,32,0.11869491666666576,71,0.11940350000000066
43432,21.215265775,38,0.11940350000000066,70,0.12169424999999734
43433,21.336960024999996,30,0.12169424999999734,79,0.12030100000000132
43434,21.457261024999998,35,0.12030100000000132,70,0.1196710000000003
43435,21.576932024999998,29,0.1196710000000003,70,0.11904816666666562
43436,21.695980191666663,33,0.11904816666666562,73,0.1195827499999993
43437,21.815562941666663,30,0.1195827499999993,67,0.12103016666666733
43438,21.93659310833333,33,0.12103016666666733,66,0.12251233333333289
43439,22.059105441666663,23,0.12251233333333289,75,0.12176600000000093
43440,22.180871441666664,33,0.12176600000000093,64,0.12102900000000005
43441,22.301900441666664,30,0.12102900000000005,62,0.12030100000000132
43442,22.422201441666665,33,0.12030100000000132,65,0.12003066666666484
43443,22.54223210833333,23,0.12003066666666484,58,0.12139750000000049
43444,22.66362960833333,33,0.12139750000000049,57,0.12288925000000006
43445,22.78651885833333,25,0.12288925000000006,64,0.12298258333333223
43446,22.909501441666663,33,0.12298258333333223,56,0.122417833333337
43447,23.031919275,30,0.122417833333337,55,0.12176600000000093
43448,23.153685275,33,0.12176600000000093,58,0.12139633333333322
43449,23.275081608333334,25,0.12139633333333322,50,0.12213766666666714
43450,23.397219275,33,0.12213766666666714,49,0.12298308333333452
43451,23.520202358333336,30,0.12298308333333452,56,0.12451391666666467
43452,23.644716275,37,0.12451391666666467,49,0.12383958333333211
43453,23.768555858333333,30,0.12383958333333211,48,0.12307750000000084
43454,23.891633358333333,38,0.12307750000000084,51,0.12288816666666946
43455,24.014521525000003,30,0.12288816666666946,45,0.12355224999999947
43456,24.138073775000002,40,0.12355224999999947,43,0.12422424999999748
43457,24.262298025,30,0.12422424999999748,48,0.12558899999999795
43458,24.387887024999998,37,0.12558899999999795,43,0.12470858333333368
43459,24.51259560833333,30,0.12470858333333368,42,0.12383958333333211
43460,24.636435191666664,38,0.12383958333333211,45,0.12326683333333577
43461,24.759702025,30,0.12326683333333577,39,0.12422425000000104
43462,24.883926275,40,0.12422425000000104,38,0.12509866666666625
43463,25.009024941666667,30,0.12509866666666625,43,0.12588600000000127
43464,25.134910941666668,40,0.12588600000000127,37,0.1253924999999967
43465,25.260303441666665,30,0.1253924999999967,36,0.12459433333333436
43466,25.384897775,38,0.12459433333333436,39,0.12497533958333307
43467,25.509873114583332,30,0.12497533958333307,35,0.12679345833333144
43468,25.636666572916663,37,0.12679345833333144,35,0.1287525125000002
43469,25.765419085416664,30,0.1287525125000002,37,0.13397303541666616
43470,25.89939212083333,35,0.13397303541666616,34,0.13179567291666316
43471,26.031187793749993,30,0.13179567291666316,32,0.12936545208333428
43472,26.160553245833327,37,0.12936545208333428,34,0.1345301333333353
43473,26.295083379166662,30,0.1345301333333353,30,0.14932484375000854
43474,26.44440822291667,37,0.14932484375000854,29,0.21668466666666575
43475,26.661092889583337,30,0.21668466666666575,36,0.44280399999999887
