,pitch,step,velocity,duration
0,43.0,0.0,60.0,0.8134489999999999
1,43.0,0.8134489999999999,60.0,0.61008675
2,43.0,0.61008675,57.0,0.20336224999999986
3,43.0,0.20336224999999986,60.0,0.8134489999999999
4,44.0,0.8134489999999999,58.0,0.8134489999999999
5,43.0,0.8134489999999999,60.0,0.8134490000000003
6,39.0,0.8134490000000003,58.0,0.8134489999999994
7,43.0,0.8134489999999994,60.0,1.682086
8,43.0,1.682086,38.0,0.8138899999999998
9,43.0,0.8138899999999998,38.0,0.6104175000000005
10,43.0,0.6104175000000005,36.0,0.20347250000000017
11,43.0,0.20347250000000017,38.0,0.8138899999999989
12,44.0,0.8138899999999989,36.0,0.8388089999999995
13,43.0,0.8388089999999995,36.0,0.9142159999999997
14,39.0,0.9142159999999997,34.0,0.9860310000000005
15,43.0,0.9860310000000005,31.0,2.5701970000000003
16,35.0,1.2332990000000006,19.0,1.3368979999999997
17,80.0,1.3313275916666658,96.0,0.08400964583333348
18,12.0,0.005570408333333887,112.0,0.24135150000000039
19,75.0,0.0814561312500004,71.0,0.08045049999999954
20,79.0,0.07843923749999959,91.0,0.08045049999999954
21,72.0,0.08346739375000034,71.0,0.08045049999999954
22,78.0,0.07944486875000045,84.0,0.08045049999999954
23,75.0,0.07944486874999868,71.0,0.08045050000000131
24,43.0,0.08045050000000131,88.0,0.3487019999999994
25,72.0,0.08039518333333362,69.0,0.07748933333333241
26,76.0,0.07652071666666593,79.0,0.07748933333333419
27,72.0,0.07748933333333419,69.0,0.07748933333333241
28,75.0,0.07458348333333298,79.0,0.07748933333333241
29,43.0,0.03971328333333268,82.0,0.11623400000000039
30,67.0,0.041650516666667414,69.0,0.07752189583333369
31,43.0,0.07458348333333298,88.0,0.47014599999999973
32,74.0,0.001958941666666547,78.0,0.07835766666666721
33,67.0,0.07737819583333305,71.0,0.07835766666666721
34,73.0,0.07639872500000067,78.0,0.07835766666666721
35,63.0,0.07737819583333305,71.0,0.07835766666666721
36,72.0,0.07835766666666721,78.0,0.07835766666666544
37,67.0,0.08031660833333198,71.0,0.07835766666666721
38,71.0,0.07639872500000067,78.0,0.07615416666666697
39,44.0,0.001958941666666547,92.0,0.4565860000000015
40,63.0,0.07419522500000042,69.0,0.07609766666666573
41,70.0,0.08085377083333256,71.0,0.07609766666666751
42,63.0,0.07324400416666776,69.0,0.07609766666666573
43,69.0,0.07419522500000042,71.0,0.07609766666666573
44,60.0,0.07609766666666573,69.0,0.07609766666666573
45,68.0,0.07609766666666573,78.0,0.07858359166666773
46,43.0,0.0019024416666688637,88.0,0.4718839999999993
47,63.0,0.07864733333333263,71.0,0.07864733333333263
48,67.0,0.07963042500000128,78.0,0.07864733333333263
49,60.0,0.07864733333333263,71.0,0.07864733333333263
50,66.0,0.07864733333333263,78.0,0.07864733333333263
51,63.0,0.07864733333333263,71.0,0.07870132708333344
52,65.0,0.07569805833333376,78.0,0.08285884583333214
53,39.0,0.0019661833333337597,82.0,0.49780099999999905
54,60.0,0.08400391874999968,69.0,0.08296683333333377
55,64.0,0.08192974791666785,71.0,0.08296683333333377
56,60.0,0.08296683333333377,69.0,0.08296683333333377
57,63.0,0.08089266249999838,71.0,0.08296683333333377
58,55.0,0.08607808958333507,69.0,0.08288796874999704
59,43.0,0.0819297479166643,82.0,0.9198920000000008
60,62.0,0.0019164416666654915,71.0,0.0766576666666694
61,55.0,0.0766576666666694,69.0,0.07665766666666585
62,61.0,0.0756994458333331,71.0,0.07665766666666585
63,51.0,0.07474122500000036,69.0,0.07665766666666585
64,60.0,0.08049054999999683,71.0,0.0766576666666694
65,55.0,0.0756994458333331,69.0,0.0766576666666694
66,59.0,0.07761588750000215,71.0,0.07665766666666585
67,51.0,0.07665766666666585,69.0,0.07665766666666585
68,58.0,0.07474122500000036,71.0,0.07665766666666585
69,51.0,0.07378300416666761,69.0,0.07665766666666585
70,57.0,0.07857410833333134,71.0,0.0766576666666694
71,48.0,0.0756994458333331,69.0,0.0766576666666694
72,12.0,0.07761588750000215,99.0,0.23683600000000027
73,56.0,0.0029604499999997813,56.0,0.07894533333333342
74,51.0,0.07499806666666586,51.0,0.07894533333333342
75,55.0,0.0819057833333332,56.0,0.07894533333333342
76,48.0,0.0799321500000012,56.0,0.07894533333333342
77,54.0,0.07894533333333342,56.0,0.07894533333333342
78,51.0,0.07894533333333342,51.0,0.07889073333333485
79,31.0,0.07598488333333364,69.0,0.3487019999999994
80,53.0,0.0009686166666682539,56.0,0.07748933333333241
81,48.0,0.07652071666666416,51.0,0.07748933333333596
82,52.0,0.07652071666666771,56.0,0.07748933333333241
83,48.0,0.07748933333333241,51.0,0.07748933333333241
84,51.0,0.08136380000000187,56.0,0.07748933333333241
85,31.0,0.035838816666665,61.0,0.11623400000000217
86,43.0,0.03680743333333325,51.0,0.07748933333333241
87,31.0,0.07942656666666892,70.0,0.47367200000000054
88,43.0,0.07697170000000142,50.0,0.07894533333333342
89,49.0,0.08289259999999743,55.0,0.07894533333333342
90,39.0,0.07499806666666942,49.0,0.07894533333333342
91,48.0,0.07894533333333342,53.0,0.07894533333332987
92,43.0,0.08387941666666521,47.0,0.07882880833333417
93,47.0,0.07499806666666586,50.0,0.0758768416666662
94,32.0,0.000986816666667778,62.0,0.45502799999999866
95,39.0,0.07489002499999842,46.0,0.07583800000000096
96,46.0,0.0777339500000025,49.0,0.07583799999999741
97,39.0,0.07678597499999995,46.0,0.07583799999999741
98,45.0,0.07678597499999995,47.0,0.07583800000000096
99,36.0,0.07489002499999842,45.0,0.07590823333333319
100,31.0,0.07394204999999943,63.0,0.4718839999999993
101,39.0,0.07766424166666752,45.0,0.07864733333333263
102,43.0,0.08159660833333149,47.0,0.07864733333333263
103,36.0,0.07668115000000242,45.0,0.07864733333333263
104,42.0,0.07864733333333263,46.0,0.07864733333333263
105,39.0,0.08159660833333149,44.0,0.07877308958333273
106,12.0,0.07569805833333376,60.0,1.425348999999997
107,41.0,0.002050020833333832,45.0,0.08200083333333197
108,36.0,0.07790079166666786,42.0,0.08200083333333197
109,40.0,0.08507586458333094,45.0,0.08200083333333552
110,36.0,0.08097582291666683,40.0,0.08200083333333552
111,39.0,0.0840508541666658,44.0,0.08200083333333552
112,31.0,0.08097582291666683,42.0,0.08194805624999901
113,19.0,0.08097582291666683,68.0,0.9333439999999982
114,38.0,0.0009722333333321842,44.0,0.0777786666666671
115,31.0,0.07680643333333492,42.0,0.0777786666666671
116,37.0,0.07583419999999919,47.0,0.0777786666666671
117,27.0,0.07875089999999929,45.0,0.0777786666666671
118,36.0,0.07875090000000284,49.0,0.07777866666666355
119,31.0,0.07972313333333148,47.0,0.0777786666666671
120,35.0,0.07680643333333492,53.0,0.07777866666666355
121,27.0,0.07972313333333148,49.0,0.0777786666666671
122,36.0,0.07680643333333492,56.0,0.0777786666666671
123,31.0,0.07583419999999919,53.0,0.0777786666666671
124,39.0,0.07680643333333137,59.0,0.0777786666666671
125,32.0,0.07972313333333503,59.0,0.07781571874999926
126,11.0,0.07680643333333137,99.0,0.2422284999999995
127,38.0,0.07872426249999975,59.0,0.08074283333333199
128,41.0,0.08477997500000001,59.0,0.08074283333333199
129,44.0,0.07973354791666765,59.0,0.08074283333333199
130,55.0,0.07771497708333186,59.0,0.08074283333333554
131,50.0,0.0857892604166679,59.0,0.08061050833333283
132,53.0,0.07569640624999963,62.0,0.07730238333333261
133,41.0,0.002018570833332234,77.0,0.3474637499999993
134,56.0,0.08010969791666511,64.0,0.0772141666666677
135,67.0,0.07624898958333404,67.0,0.0772141666666677
136,62.0,0.07431863541666672,68.0,0.0772141666666677
137,65.0,0.07817934375000135,69.0,0.0772141666666677
138,41.0,0.03860708333333207,73.0,0.11582124999999976
139,56.0,0.03667672916666831,70.0,0.07721416666666414
140,39.0,0.07914452083333146,77.0,0.4632850000000026
141,65.0,0.002895531250000971,69.0,0.0772141666666677
142,60.0,0.07624898958333404,68.0,0.0772141666666677
143,63.0,0.07335345833333307,67.0,0.0772141666666677
144,56.0,0.08204005208333243,66.0,0.0772141666666677
145,53.0,0.07624898958333404,64.0,0.0772141666666677
146,48.0,0.07624898958333404,62.0,0.07723580625000181
147,51.0,0.07528381250000038,58.0,0.0789236937499993
148,24.0,0.000965177083333657,84.0,0.47367200000000054
149,44.0,0.07795851666666564,58.0,0.07894533333333342
150,41.0,0.0819057833333332,58.0,0.07894533333333342
151,36.0,0.07697170000000142,58.0,0.07894533333333342
152,39.0,0.07697170000000142,58.0,0.07894533333332987
153,32.0,0.0819057833333332,58.0,0.07894533333333342
154,23.0,0.07795851666666564,86.0,0.23683600000000027
155,43.0,0.0019736333333320033,59.0,0.07894533333333342
156,38.0,0.07697170000000142,59.0,0.07894533333333342
157,41.0,0.07795851666666564,59.0,0.07894533333333342
158,44.0,0.08091896666666543,59.0,0.07894533333333342
159,55.0,0.0799321500000012,59.0,0.07894533333333342
160,50.0,0.07894533333333342,59.0,0.07890205416666873
161,34.0,0.07697170000000142,77.0,0.15442833333333184
162,53.0,0.001930354166667314,64.0,0.0772141666666677
163,56.0,0.07528381250000038,64.0,0.07721416666666414
164,67.0,0.07528381250000038,66.0,0.07721416666666414
165,32.0,0.0019303541666637614,72.0,0.1544283333333354
166,62.0,0.0772141666666677,67.0,0.0772141666666677
167,31.0,0.0772141666666677,73.0,0.15442833333333184
168,65.0,0.002895531250000971,69.0,0.07721416666666414
169,55.0,0.07238828124999941,69.0,0.07721416666666414
170,31.0,0.07914452083333146,77.0,0.4632850000000026
171,65.0,0.000965177083333657,67.0,0.0772141666666677
172,60.0,0.0772141666666677,66.0,0.0772141666666677
173,63.0,0.07624898958333404,64.0,0.07721416666666414
174,55.0,0.07528381250000038,62.0,0.07721416666666414
175,53.0,0.08204005208333243,61.0,0.0772141666666677
176,48.0,0.0772141666666677,60.0,0.07725704791666743
177,24.0,0.07431863541666672,81.0,0.47014599999999973
178,51.0,0.0009794708333323854,59.0,0.07835766666666899
179,43.0,0.07737819583333305,59.0,0.07835766666666899
180,41.0,0.07835766666666899,59.0,0.07835766666666544
181,36.0,0.07835766666666544,59.0,0.07835766666666544
182,39.0,0.08129607916666615,59.0,0.07835766666666899
183,38.0,0.07443978333333234,59.0,0.07835766666666899
184,26.0,0.07933713750000138,77.0,0.23507299999999987
185,43.0,0.07737819583333305,58.0,0.07835766666666899
186,47.0,0.08227555000000208,58.0,0.07835766666666544
187,50.0,0.07443978333333234,58.0,0.07835766666666544
188,60.0,0.08129607916666615,58.0,0.07835766666666544
189,55.0,0.07737819583333305,58.0,0.07835042916666524
190,59.0,0.07639872500000067,58.0,0.07778590416666731
191,43.0,0.0009794708333323854,70.0,0.4666719999999991
192,62.0,0.07972313333333503,57.0,0.07777866666666355
193,47.0,0.07583419999999919,66.0,0.1555573333333342
194,72.0,0.0029167000000001053,58.0,0.0777786666666671
195,67.0,0.074861966666667,59.0,0.0777786666666671
196,52.0,0.0777786666666671,70.0,0.15555733333333066
197,71.0,0.0009722333333321842,59.0,0.0777786666666671
198,62.0,0.07972313333333148,59.0,0.0777786666666671
199,71.0,0.07291750000000263,60.0,0.07777866666666355
200,48.0,0.0019444666666643684,70.0,0.4666719999999991
201,66.0,0.08069536666666721,60.0,0.0777786666666671
202,69.0,0.07583419999999919,59.0,0.0777786666666671
203,62.0,0.074861966666667,59.0,0.0777786666666671
204,59.0,0.08069536666666721,59.0,0.0777786666666671
205,54.0,0.07583419999999919,58.0,0.0777786666666671
206,38.0,0.07875089999999929,77.0,0.477212999999999
207,57.0,0.002982581249998617,55.0,0.0795355000000022
208,50.0,0.07754711250000312,55.0,0.07953549999999865
209,47.0,0.07953549999999865,55.0,0.07953549999999865
210,42.0,0.07754711249999957,55.0,0.07953549999999865
211,45.0,0.08351227500000036,55.0,0.07953549999999865
212,38.0,0.07456453125000095,55.0,0.07953549999999865
213,48.0,0.07953549999999865,55.0,0.07953549999999865
214,31.0,0.001988387499999078,77.0,0.2386064999999995
215,43.0,0.08152388750000128,55.0,0.07953549999999865
216,47.0,0.07655291875000003,55.0,0.07953549999999865
217,50.0,0.08351227500000036,55.0,0.07953549999999865
218,60.0,0.07555872500000049,55.0,0.07953549999999865
219,55.0,0.08052969374999819,55.0,0.07953549999999865
220,59.0,0.07754711249999957,55.0,0.0795355000000022
221,47.0,0.001988387499999078,67.0,0.15907100000000085
222,62.0,0.08152388750000128,59.0,0.0795355000000022
223,46.0,0.07754711249999957,58.0,0.15907100000000085
224,72.0,0.0029825812500021698,59.0,0.07953549999999865
225,67.0,0.07854130624999911,59.0,0.07953549999999865
226,47.0,0.07754711249999957,63.0,0.15907100000000085
227,71.0,0.000994193749999539,59.0,0.0795355000000022
228,62.0,0.08052969375000174,59.0,0.07953549999999865
229,79.0,0.07754711249999957,81.0,0.2386064999999995
230,80.0,0.9534318062499985,94.0,0.08043906249999822
231,12.0,0.000994193749999539,100.0,0.24135150000000039
232,75.0,0.07843923749999959,69.0,0.08045050000000131
233,79.0,0.08045050000000131,90.0,0.08045049999999776
234,72.0,0.08045049999999776,69.0,0.08045050000000131
235,78.0,0.0844730250000012,84.0,0.08045050000000131
236,75.0,0.0814561312500004,69.0,0.08033945625000172
237,77.0,0.07642797500000142,82.0,0.0775263479166668
238,43.0,0.0010056312499990838,84.0,0.3487019999999994
239,72.0,0.07555209999999946,67.0,0.07748933333333241
240,76.0,0.08039518333333362,79.0,0.07748933333333241
241,72.0,0.07458348333333475,67.0,0.07748933333333241
242,75.0,0.07748933333333241,78.0,0.07748933333333241
243,43.0,0.04068189999999916,79.0,0.11623400000000217
244,67.0,0.038744666666666205,67.0,0.07748933333333596
245,43.0,0.07748933333333596,84.0,0.47014599999999973
246,74.0,0.0019589416666683235,77.0,0.07835766666666544
247,67.0,0.07835766666666544,69.0,0.07835766666666544
248,73.0,0.07737819583333305,75.0,0.07835766666666544
249,63.0,0.07541925416666828,69.0,0.07835766666666544
250,72.0,0.08031660833333021,73.0,0.07835766666666899
251,67.0,0.07737819583333305,69.0,0.07835766666666899
252,44.0,0.07933713750000138,88.0,0.46493600000000157
253,71.0,0.001937233333332955,73.0,0.07748933333333241
254,63.0,0.07458348333333475,67.0,0.07748933333333241
255,70.0,0.07845795000000066,69.0,0.07748933333333241
256,63.0,0.07652071666666416,67.0,0.07748933333333241
257,69.0,0.07942656666666892,69.0,0.07748933333333241
258,60.0,0.07748933333333241,67.0,0.07750380833333281
259,43.0,0.07652071666666771,84.0,0.4718839999999993
260,68.0,0.0009830916666651035,73.0,0.07864733333333618
261,63.0,0.07569805833333376,69.0,0.07864733333333618
262,67.0,0.08159660833333504,73.0,0.07864733333333263
263,60.0,0.08061351666666638,69.0,0.07864733333333263
264,66.0,0.07766424166666752,73.0,0.07864733333333263
265,63.0,0.07963042499999773,69.0,0.07880931458333507
266,65.0,0.07471496666666866,73.0,0.08291283958333295
267,39.0,0.0009830916666651035,79.0,0.4978010000000026
268,60.0,0.08296683333333377,67.0,0.08296683333333377
269,64.0,0.08192974791666785,69.0,0.08296683333333021
270,60.0,0.08711517499999744,67.0,0.08296683333333732
271,63.0,0.07985557708333602,69.0,0.08296683333333021
272,55.0,0.08607808958333152,67.0,0.08273023958333425
273,62.0,0.07778140624999708,69.0,0.07681539583333574
274,43.0,0.0020741708333389397,79.0,0.9198919999999973
275,55.0,0.07761588750000215,67.0,0.0766576666666623
276,61.0,0.07378300416666406,69.0,0.0766576666666694
277,51.0,0.07857410833333489,67.0,0.0766576666666623
278,60.0,0.07953232916666764,69.0,0.0766576666666623
279,55.0,0.07186656249999857,67.0,0.0766576666666694
280,59.0,0.08144877083333313,69.0,0.0766576666666694
281,51.0,0.07282478333333131,67.0,0.0766576666666694
282,58.0,0.0766576666666694,69.0,0.0766576666666623
283,51.0,0.07953232916666764,67.0,0.0766576666666623
284,57.0,0.0747412249999968,69.0,0.0766576666666694
285,48.0,0.07569944583333665,67.0,0.0766576666666623
286,15.0,0.07761588749999504,80.0,0.23683599999999672
287,56.0,0.000986816666667778,56.0,0.07894533333332987
288,49.0,0.07894533333332987,56.0,0.07894533333333698
289,55.0,0.0779585166666692,56.0,0.07894533333332987
290,46.0,0.07894533333332987,51.0,0.07894533333333698
291,54.0,0.07993215000000475,56.0,0.07894533333332987
292,49.0,0.07894533333332987,51.0,0.07892713333333745
293,31.0,0.0779585166666692,69.0,0.34870200000000295
294,60.0,0.07668114999999887,64.0,0.07864733333333618
295,61.0,0.07668114999999887,62.0,0.07864733333333618
296,58.0,0.07963042500000483,61.0,0.07864733333332907
297,72.0,0.07668114999999887,61.0,0.07864733333332907
298,63.0,0.08257969999999659,60.0,0.07864733333333618
299,27.0,0.07668114999999887,63.0,0.47188400000000286
300,70.0,0.0029492750000059686,59.0,0.07864733333332907
301,61.0,0.07668114999999887,59.0,0.07864733333332907
302,75.0,0.07569805833333021,59.0,0.07864733333333618
303,72.0,0.07963042499999773,59.0,0.07864733333333618
304,73.0,0.07766424166666752,59.0,0.07864733333333618
305,70.0,0.08159660833333504,59.0,0.07864733333333618
306,77.0,0.07569805833333731,59.0,0.07864733333332907
307,32.0,0.001966183333330207,70.0,0.23594200000000143
308,72.0,0.08159660833333504,59.0,0.07864733333332907
309,75.0,0.07864733333332907,59.0,0.07864733333333618
310,68.0,0.07668115000000597,59.0,0.07864733333332907
311,71.0,0.07963042499999773,59.0,0.07864733333332907
312,68.0,0.07963042499999773,59.0,0.07860390833333497
313,72.0,0.073731875,59.0,0.07751828333334032
314,48.0,0.0019661833333373124,74.0,0.34870200000000295
315,63.0,0.07555210000000301,59.0,0.07748933333333241
316,67.0,0.08136379999999832,59.0,0.07748933333333241
317,63.0,0.07652071666666416,59.0,0.07748933333333241
318,68.0,0.07555210000000301,59.0,0.07748933333333241
319,36.0,0.03971328333333446,67.0,1.0461059999999947
320,60.0,0.0368074333333297,59.0,0.07748933333333241
321,64.0,0.07845795000000066,59.0,0.07748933333333241
322,41.0,0.0009686166666682539,70.0,0.929871999999996
323,60.0,0.07845795000000066,59.0,0.07748933333333241
324,65.0,0.07652071666666416,59.0,0.07748933333333241
325,56.0,0.07652071666666416,59.0,0.07748933333333952
326,59.0,0.07845795000000066,59.0,0.07748933333333241
327,43.0,0.038744666666666205,67.0,0.11623400000000572
328,56.0,0.03971328333333446,59.0,0.07748933333333241
329,44.0,0.07652071666667126,70.0,0.46493599999999446
330,60.0,0.0019372333333294023,59.0,0.07748933333333241
331,53.0,0.07748933333333241,59.0,0.07748933333333241
332,55.0,0.07652071666667126,59.0,0.07748933333333241
333,53.0,0.07748933333333241,59.0,0.07748933333333241
334,56.0,0.07845795000000066,59.0,0.07748933333333241
335,48.0,0.07845795000000066,59.0,0.07754393333333098
336,55.0,0.07264624999999825,59.0,0.07890893333333082
337,22.0,0.0019372333333294023,77.0,0.23683599999999672
338,50.0,0.07993214999999765,59.0,0.07894533333333698
339,53.0,0.0779585166666692,59.0,0.07894533333332987
340,56.0,0.0779585166666692,59.0,0.07894533333332987
341,67.0,0.07795851666666209,59.0,0.07894533333333698
342,62.0,0.08387941666666876,59.0,0.07890158333333375
343,65.0,0.07401124999999809,55.0,0.0778078333333383
344,38.0,0.001973633333335556,70.0,0.46667200000000264
345,68.0,0.0777786666666671,53.0,0.0777786666666671
346,44.0,0.0777786666666671,63.0,0.1555573333333342
347,79.0,0.0009722333333357369,55.0,0.07777866666666
348,74.0,0.07583419999999563,56.0,0.0777786666666671
349,48.0,0.07875090000000284,63.0,0.1555573333333342
350,77.0,0.0009722333333286315,57.0,0.0777786666666671
351,68.0,0.07583420000000274,58.0,0.0777786666666671
352,72.0,0.0777786666666671,57.0,0.0777786666666671
353,46.0,0.0009722333333357369,70.0,0.46667199999999553
354,68.0,0.07583419999999563,57.0,0.0777786666666671
355,70.0,0.08166760000000295,56.0,0.0777786666666671
356,62.0,0.07388973333333126,56.0,0.0777786666666671
357,60.0,0.07875090000000284,55.0,0.0777786666666671
358,56.0,0.08069536666666721,55.0,0.07781518333332826
359,44.0,0.07583419999999563,68.0,0.47543600000000197
360,58.0,0.002971475000002499,55.0,0.07923933333333366
361,50.0,0.0782488416666638,59.0,0.07923933333333366
362,67.0,0.07923933333333366,59.0,0.07923933333333366
363,58.0,0.0782488416666638,59.0,0.07923933333333366
364,65.0,0.0782488416666709,59.0,0.07923933333333366
365,56.0,0.08221080833332906,59.0,0.07923933333333366
366,62.0,0.0752773666666684,59.0,0.07923933333333366
367,27.0,0.0009904916666698682,72.0,0.23771800000000098
368,58.0,0.08221080833332906,59.0,0.07923933333333366
369,63.0,0.0752773666666684,59.0,0.07923933333333366
370,55.0,0.07923933333333366,59.0,0.07923933333333366
371,66.0,0.08122031666666629,59.0,0.07923933333333366
372,27.0,0.03862917499999696,55.0,0.5942950000000025
373,63.0,0.04259114166666933,59.0,0.07923933333333366
374,34.0,0.016838358333330916,55.0,0.5348655000000022
375,67.0,0.057448516666667615,59.0,0.07923933333333366
376,43.0,0.001980983333332631,63.0,0.47543600000000197
377,58.0,0.07725835000000103,59.0,0.07923933333333366
378,69.0,0.08221080833333616,59.0,0.07923933333333366
379,67.0,0.0782488416666638,55.0,0.07923933333333366
380,70.0,0.07725835000000103,59.0,0.07923933333333366
381,63.0,0.08022982500000353,55.0,0.07923933333333366
382,73.0,0.08320129999999892,59.0,0.07923933333333366
383,70.0,0.0752773666666684,51.0,0.07923933333332656
384,74.0,0.0782488416666638,58.0,0.07923933333333366
385,67.0,0.07923933333333366,55.0,0.07923933333333366
386,75.0,0.08419179166666879,59.0,0.07923933333333366
387,70.0,0.07428687499999853,58.0,0.07923933333333366
388,76.0,0.07923933333333366,61.0,0.07923933333333366
389,67.0,0.07923933333333366,59.0,0.07923933333333366
390,77.0,0.08122031666666629,64.0,0.07923933333333366
391,70.0,0.08221080833332906,62.0,0.07923933333333366
392,78.0,0.07626785833333827,69.0,0.07923933333333366
393,67.0,0.07923933333333366,67.0,0.07923933333333366
394,7.0,0.07923933333333366,90.0,0.24135150000000039
395,79.0,0.003016893750000804,89.0,0.08045049999999776
396,74.0,0.08045049999999776,64.0,0.08045050000000487
397,78.0,0.07843923749999959,75.0,0.08045050000000487
398,70.0,0.08246176250000303,64.0,0.08045049999999776
399,77.0,0.07944486875000223,73.0,0.08045049999999776
400,74.0,0.07843923749999959,64.0,0.08045049999999776
401,76.0,0.07944486874999512,61.0,0.0775263479166668
402,38.0,0.0010056312500026365,77.0,0.34870200000000295
403,70.0,0.07555210000000301,59.0,0.07748933333333241
404,75.0,0.08039518333333007,61.0,0.07748933333333241
405,70.0,0.07942656666666892,59.0,0.07748933333333241
406,74.0,0.07458348333333475,61.0,0.07748933333333241
407,38.0,0.038744666666666205,72.0,0.11623399999999862
408,67.0,0.03777604999999795,59.0,0.07748933333333241
409,38.0,0.07845795000000066,77.0,0.47014599999999973
410,73.0,0.000979470833335938,69.0,0.07835766666666188
411,70.0,0.07639872499999711,64.0,0.07835766666666899
412,72.0,0.0812960791666697,69.0,0.07835766666666188
413,67.0,0.07933713749999782,64.0,0.07835766666666899
414,71.0,0.07541925416666828,69.0,0.07835766666666188
415,67.0,0.0812960791666626,64.0,0.0782729166666698
416,70.0,0.07346031250000351,69.0,0.07615416666666164
417,39.0,0.0019589416666647708,80.0,0.4565860000000015
418,63.0,0.0789513291666637,59.0,0.07609766666666928
419,69.0,0.07419522500000397,61.0,0.07609766666666218
420,63.0,0.07704888749999839,59.0,0.07609766666666928
421,68.0,0.07514644583333308,61.0,0.07609766666666928
422,58.0,0.07324400416666776,59.0,0.07609766666666928
423,67.0,0.07704888749999839,69.0,0.07861546250000373
424,38.0,0.0009512208333362082,77.0,0.47188400000000286
425,62.0,0.07864733333333618,64.0,0.07864733333332907
426,66.0,0.07668114999999887,69.0,0.07864733333332907
427,58.0,0.08061351666666638,64.0,0.07864733333332907
428,65.0,0.07668114999999887,69.0,0.07864733333333618
429,62.0,0.08159660833333504,64.0,0.07870132708333699
430,34.0,0.07766424166666752,72.0,0.4978010000000026
431,64.0,0.003111256250001304,61.0,0.08296683333333021
432,58.0,0.07778140624999708,59.0,0.08296683333333732
433,63.0,0.08711517500000099,61.0,0.08296683333333732
434,58.0,0.08192974791666785,59.0,0.08296683333333021
435,62.0,0.08400391874999968,61.0,0.08296683333333021
436,55.0,0.08296683333333021,59.0,0.08280910416667098
437,38.0,0.08089266250000549,72.0,0.9198919999999973
438,61.0,0.0009582208333327458,69.0,0.0766576666666694
439,58.0,0.07761588750000215,64.0,0.0766576666666623
440,60.0,0.07282478333333131,69.0,0.0766576666666694
441,55.0,0.08049055000000038,64.0,0.0766576666666694
442,59.0,0.0766576666666694,69.0,0.0766576666666623
443,55.0,0.0766576666666623,64.0,0.0766576666666694
444,58.0,0.07282478333333842,69.0,0.0766576666666623
445,50.0,0.08144877083333313,59.0,0.0766576666666623
446,57.0,0.0747412249999968,61.0,0.0766576666666694
447,50.0,0.07761588750000215,59.0,0.0766576666666623
448,56.0,0.07282478333333131,61.0,0.0766576666666694
449,46.0,0.07953232916666764,59.0,0.07668626249999733
450,7.0,0.07569944583332955,74.0,0.23683599999999672
451,55.0,0.002960450000003334,59.0,0.07894533333332987
452,50.0,0.07401124999999809,55.0,0.07894533333332987
453,54.0,0.07993214999999765,59.0,0.07894533333333698
454,46.0,0.0779585166666692,55.0,0.07894533333332987
455,53.0,0.08387941666666165,59.0,0.07894533333333698
456,50.0,0.07697170000000142,55.0,0.07892713333333745
457,52.0,0.07697170000000142,59.0,0.07750753333333193
458,26.0,0.000986816666667778,69.0,0.34870200000000295
459,46.0,0.08039518333333007,55.0,0.07748933333333952
460,51.0,0.07458348333333475,59.0,0.07748933333333241
461,46.0,0.07942656666666892,55.0,0.07748933333333241
462,50.0,0.07458348333333475,59.0,0.07748933333333241
463,26.0,0.03971328333333446,61.0,0.11623399999999862
464,43.0,0.0368074333333297,55.0,0.07748933333333241
465,49.0,0.07845795000000066,59.0,0.07892713333333745
466,26.0,0.0009686166666682539,70.0,0.47367200000000054
467,46.0,0.07993214999999765,55.0,0.07894533333333698
468,48.0,0.08091896666667253,59.0,0.07894533333332987
469,43.0,0.07401124999999809,55.0,0.07894533333332987
470,47.0,0.08387941666666165,59.0,0.07894533333333698
471,43.0,0.07598488333333364,55.0,0.07894533333333698
472,46.0,0.07697170000000142,59.0,0.07591568333333498
473,27.0,0.001973633333335556,62.0,0.45502799999999866
474,39.0,0.0777339500000025,55.0,0.07583799999999741
475,45.0,0.07299407499999688,59.0,0.07583799999999741
476,39.0,0.07962990000000048,55.0,0.07583799999999741
477,44.0,0.07489002500000197,59.0,0.07583799999999741
478,34.0,0.07678597499999995,55.0,0.07594334999999575
479,43.0,0.07204610000000145,55.0,0.07861221666666296
480,26.0,0.0009479749999954379,63.0,0.47188400000000286
481,38.0,0.07864733333333618,50.0,0.07864733333332907
482,42.0,0.07668114999999887,53.0,0.07864733333332907
483,34.0,0.08257969999999659,47.0,0.07864733333333618
484,41.0,0.07471496666666866,50.0,0.07864733333333618
485,38.0,0.08061351666666638,46.0,0.07864733333333618
486,40.0,0.07766424166666752,49.0,0.08195891458333193
487,7.0,0.0009830916666686562,55.0,1.425348999999997
488,34.0,0.08507586458333094,45.0,0.08200083333333907
489,39.0,0.07687578125000272,47.0,0.08200083333333197
490,34.0,0.08302584375000066,45.0,0.08200083333333197
491,38.0,0.08200083333333197,46.0,0.08200083333333197
492,31.0,0.08200083333333197,42.0,0.08200083333333197
493,37.0,0.08097582291667038,45.0,0.07788422083333302
494,14.0,0.0020500208333302794,58.0,0.9333439999999982
495,34.0,0.07875090000000284,45.0,0.0777786666666671
496,36.0,0.07972313333333148,47.0,0.0777786666666671
497,26.0,0.0777786666666671,45.0,0.0777786666666671
498,35.0,0.07388973333333126,47.0,0.0777786666666671
499,31.0,0.08069536666666721,46.0,0.0777786666666671
500,34.0,0.07680643333333137,49.0,0.0777786666666671
501,26.0,0.0777786666666671,46.0,0.0777786666666671
502,33.0,0.07972313333333148,49.0,0.0777786666666671
503,31.0,0.074861966666667,46.0,0.0777786666666671
504,34.0,0.08069536666666721,50.0,0.0777786666666671
505,27.0,0.07583420000000274,50.0,0.07781571874999571
506,38.0,0.074861966666667,59.0,0.08066872916666767
507,6.0,0.0019444666666643684,70.0,0.24222850000000307
508,33.0,0.08175211875000343,59.0,0.08074283333333199
509,36.0,0.08074283333333199,59.0,0.08074283333333199
510,39.0,0.07973354791666765,59.0,0.08074283333333199
511,50.0,0.08377068958333211,59.0,0.08074283333333199
512,45.0,0.0787242624999962,59.0,0.08070934791666673
513,30.0,0.07973354791666765,77.0,0.3512879999999967
514,48.0,0.000975799999999083,62.0,0.07806399999999769
515,51.0,0.07806399999999769,66.0,0.0780640000000048
516,62.0,0.07611240000000663,67.0,0.07806399999999769
517,57.0,0.07903979999999677,69.0,0.07806399999999769
518,60.0,0.07806399999999769,69.0,0.0780640000000048
519,30.0,0.039031999999998845,73.0,0.11709600000000364
520,51.0,0.03708040000000068,69.0,0.0780640000000048
521,39.0,0.08001560000000296,77.0,0.46838400000000036
522,60.0,0.001951599999998166,68.0,0.0780640000000048
523,55.0,0.07513660000000044,67.0,0.07806399999999769
524,58.0,0.07708819999999861,66.0,0.0780640000000048
525,51.0,0.08001560000000296,62.0,0.07806399999999769
526,48.0,0.07903979999999677,61.0,0.0780640000000048
527,43.0,0.07513660000000044,60.0,0.0780640000000048
528,46.0,0.07903980000000388,58.0,0.07893431666666828
529,19.0,0.000975799999999083,77.0,0.47367200000000054
530,39.0,0.07697170000000142,58.0,0.07894533333332987
531,36.0,0.0819057833333332,58.0,0.07894533333332987
532,31.0,0.07795851666666209,58.0,0.07894533333333698
533,34.0,0.07993215000000475,58.0,0.07894533333332987
534,27.0,0.07993214999999765,58.0,0.07897506666666487
535,18.0,0.07697170000000142,67.0,0.24040399999999806
536,33.0,0.08213803333333658,59.0,0.08013466666666602
537,36.0,0.07813129999999546,59.0,0.08013466666666602
538,39.0,0.08313971666666475,59.0,0.08013466666667313
539,50.0,0.07813130000000257,59.0,0.08013466666666602
540,45.0,0.07813130000000257,59.0,0.08013466666666602
541,30.0,0.0811363500000013,77.0,0.16722399999999737
542,48.0,0.003135450000002038,64.0,0.08361199999999513
543,51.0,0.08361199999999513,66.0,0.08361200000000224
544,30.0,0.0804765500000002,72.0,0.24388133333333428
545,57.0,0.08661705000000097,68.0,0.08013466666666602
546,60.0,0.07612793333333201,69.0,0.08013466666666602
547,38.0,0.0811363500000013,73.0,0.08013466666666602
548,50.0,0.0030050499999987323,70.0,0.08013466666666602
549,31.0,0.07712961666666729,77.0,0.48080800000000323
550,60.0,0.0010016833333352793,70.0,0.08013466666666602
551,55.0,0.07913298333333074,69.0,0.08013466666666602
552,58.0,0.0811363500000013,68.0,0.08013466666666602
553,50.0,0.0811363500000013,67.0,0.08013466666666602
554,48.0,0.07612793333333201,66.0,0.08013466666666602
555,43.0,0.0811363500000013,64.0,0.08013466666666602
556,46.0,0.08013466666666602,59.0,0.07837987916666833
557,19.0,0.0010016833333352793,79.0,0.47014599999999973
558,38.0,0.07835766666666899,59.0,0.07835766666666188
559,36.0,0.0812960791666626,59.0,0.07835766666666899
560,31.0,0.07737819583333305,59.0,0.07835766666666899
561,34.0,0.07835766666666899,59.0,0.07835766666666899
562,33.0,0.07933713749999782,59.0,0.07835766666666899
563,9.0,0.07541925416666828,69.0,0.23507299999999987
564,38.0,0.07835766666666899,58.0,0.07835766666666188
565,42.0,0.0812960791666626,58.0,0.07835766666666899
566,45.0,0.07443978333333234,58.0,0.07835766666666899
567,55.0,0.07933713750000493,58.0,0.07835766666666188
568,50.0,0.07933713749999782,58.0,0.07835042916666879
569,38.0,0.07737819583333305,70.0,0.46667200000000264
570,57.0,0.07972313333333148,58.0,0.0777786666666671
571,42.0,0.07583420000000274,66.0,0.1555573333333342
572,67.0,0.0019444666666643684,59.0,0.0777786666666671
573,62.0,0.0777786666666671,59.0,0.0777786666666671
574,47.0,0.07583420000000274,70.0,0.1555573333333342
575,66.0,0.0019444666666643684,61.0,0.0777786666666671
576,57.0,0.07388973333333126,62.0,0.0777786666666671
577,66.0,0.07875090000000284,64.0,0.0777786666666671
578,45.0,0.0009722333333357369,70.0,0.46667199999999553
579,61.0,0.07680643333333137,64.0,0.0777786666666671
580,64.0,0.08069536666666721,61.0,0.0777786666666671
581,57.0,0.07875089999999574,60.0,0.0777786666666671
582,54.0,0.074861966666667,59.0,0.0777786666666671
583,49.0,0.07875090000000284,59.0,0.07780062708333446
584,52.0,0.074861966666667,55.0,0.07949157916666394
585,21.0,0.0019444666666643684,77.0,0.477212999999999
586,45.0,0.08251808125000082,55.0,0.07953549999999865
587,34.0,0.07680643333334558,53.0,0.07777866666666
588,26.0,0.07875089999998863,50.0,0.07777866666667421
589,35.0,0.07777866666667421,56.0,0.07777866666666
590,32.0,0.07777866666666,55.0,0.07777866666667421
591,36.0,0.07583420000000274,59.0,0.07777866666667421
592,29.0,0.07583420000000274,56.0,0.07777866666666
593,37.0,0.07972313333333148,61.0,0.07777866666667421
594,34.0,0.07583420000000274,59.0,0.07777866666666
595,38.0,0.07777866666666,64.0,0.07777866666667421
596,32.0,0.08069536666667432,64.0,0.0778078333333383
597,10.0,0.07583420000000274,75.0,0.23683599999999672
598,43.0,0.001973633333335556,69.0,0.07894533333333698
599,38.0,0.07598488333333364,69.0,0.07894533333333698
600,41.0,0.0819057833333261,69.0,0.07894533333333698
601,44.0,0.07697170000000142,69.0,0.07894533333333698
602,55.0,0.07697170000000142,69.0,0.07894533333333698
603,50.0,0.08289260000000809,69.0,0.07890205416664742
604,38.0,0.07697169999998721,82.0,0.15442833333332828
605,53.0,0.002895531250004524,66.0,0.07721416666666414
606,56.0,0.07238828124999941,67.0,0.07721416666666414
607,67.0,0.07817934374999425,69.0,0.07721416666666414
608,21.0,0.0009651770833301043,73.0,0.1544283333333425
609,62.0,0.07817934375000846,70.0,0.07721416666666414
610,22.0,0.07624898958333404,79.0,0.15442833333332828
611,56.0,0.07914452083332435,73.0,0.07721416666667835
612,67.0,0.07431863541667383,77.0,0.07721416666666414
613,37.0,0.0009651770833301043,82.0,0.46328499999999906
614,61.0,0.07914452083333856,73.0,0.07721416666666414
615,65.0,0.07817934374999425,72.0,0.07721416666666414
616,56.0,0.07238828124999941,71.0,0.07721416666666414
617,55.0,0.08010969791666867,69.0,0.07721416666666414
618,49.0,0.07817934374999425,69.0,0.07724275416667581
619,53.0,0.07431863541667383,64.0,0.07834337291666316
620,11.0,0.0009651770833301043,86.0,0.47014599999999973
621,44.0,0.07639872500000422,64.0,0.07835766666666188
622,43.0,0.07933713749999072,64.0,0.0783576666666761
623,37.0,0.0812960791666768,64.0,0.07835766666666188
624,41.0,0.07933713749999072,64.0,0.0783576666666761
625,32.0,0.07639872500000422,64.0,0.07835766666666188
626,12.0,0.07737819583333305,81.0,0.23507299999999987
627,36.0,0.08031660833333376,69.0,0.07835766666666188
628,41.0,0.07541925416666118,69.0,0.0783576666666761
629,44.0,0.08031660833333376,69.0,0.0783576666666761
630,55.0,0.07639872500000422,69.0,0.07835766666666188
631,48.0,0.07835766666666188,69.0,0.0783576666666761
632,41.0,0.07933713750000493,80.0,0.15442833333332828
633,53.0,0.002895531250004524,68.0,0.07721416666666414
634,56.0,0.07335345833332951,68.0,0.07721416666666414
635,67.0,0.07624898958333404,69.0,0.07721416666666414
636,23.0,0.0019303541666602086,73.0,0.1544283333333425
637,60.0,0.07914452083333856,70.0,0.07721416666666414
638,65.0,0.07335345833332951,71.0,0.07721416666666414
639,24.0,0.0019303541666744195,79.0,0.15442833333332828
640,56.0,0.07528381249998972,72.0,0.07721416666667835
641,67.0,0.07721416666667835,73.0,0.07721416666666414
642,41.0,0.0019303541666602086,82.0,0.46328499999999906
643,59.0,0.07721416666666414,72.0,0.07721416666666414
644,65.0,0.07817934375000846,71.0,0.07721416666666414
645,56.0,0.07624898958333404,70.0,0.07721416666666414
646,55.0,0.07721416666666414,69.0,0.07721416666666414
647,47.0,0.07721416666666414,69.0,0.07721416666666414
648,53.0,0.07528381250000393,64.0,0.07861150416665907
649,13.0,0.0019303541666602086,94.0,0.47188400000000286
650,44.0,0.07963042500000483,64.0,0.07864733333332197
651,43.0,0.07963042499999062,64.0,0.07864733333333618
652,35.0,0.07668114999999887,64.0,0.07864733333333618
653,41.0,0.07963042500000483,64.0,0.07864733333333618
654,32.0,0.08061351666667349,64.0,0.07864733333332197
655,14.0,0.07569805833333021,90.0,0.23594199999999432
656,43.0,0.0009830916666686562,69.0,0.07864733333332197
657,34.0,0.07864733333332197,69.0,0.07864733333333618
658,41.0,0.07569805833334442,69.0,0.07864733333332197
659,32.0,0.08061351666665928,69.0,0.07864733333333618
660,46.0,0.07766424166666752,69.0,0.07864733333333618
661,43.0,0.07963042500000483,69.0,0.07864733333333618
662,34.0,0.07864733333333618,96.0,0.3539129999999915
663,44.0,0.002949274999991758,70.0,0.07864733333333618
664,41.0,0.07569805833333021,70.0,0.07864733333333618
665,55.0,0.07668114999999887,70.0,0.07864733333333618
666,46.0,0.08159660833334215,70.0,0.07864733333333618
667,53.0,0.07963042500000483,70.0,0.07864733333332197
668,34.0,0.03735748333332367,86.0,0.11797099999999716
669,44.0,0.041289849999998296,70.0,0.07864733333333618
670,34.0,0.07668114999999887,96.0,0.47188400000000286
671,58.0,0.0029492750000059686,69.0,0.07864733333333618
672,55.0,0.07864733333333618,69.0,0.07864733333333618
673,56.0,0.07471496666666155,69.0,0.07864733333333618
674,53.0,0.08257969999999659,69.0,0.07864733333333618
675,67.0,0.07668114999999887,69.0,0.07864733333333618
676,58.0,0.07963042500000483,69.0,0.07864733333333618
677,10.0,0.07668114999999887,55.0,0.47188400000000286
678,65.0,0.0019661833333373124,64.0,0.07864733333333618
679,56.0,0.07864733333333618,59.0,0.07864733333333618
680,70.0,0.07963042499999062,59.0,0.07864733333333618
681,67.0,0.07864733333333618,59.0,0.07864733333333618
682,68.0,0.07864733333333618,59.0,0.07864733333333618
683,65.0,0.07668114999999887,59.0,0.07864733333333618
684,72.0,0.07766424166666752,62.0,0.23594199999999432
685,67.0,0.07668114999999887,62.0,0.07864733333333618
686,70.0,0.08061351666667349,62.0,0.07864733333332197
687,63.0,0.08061351666665928,62.0,0.07864733333333618
688,79.0,0.07668114999999887,68.0,0.07864733333333618
689,70.0,0.07766424166666752,62.0,0.07864733333333618
690,77.0,0.07766424166666752,66.0,0.07751828333333322
691,31.0,0.0019661833333373124,57.0,0.15497866666666482
692,67.0,0.07845795000000066,59.0,0.07748933333333241
693,39.0,0.07652071666666416,57.0,0.15497866666666482
694,75.0,0.0019372333333365077,63.0,0.07748933333333241
695,71.0,0.0736148666666594,59.0,0.07748933333333241
696,74.0,0.07748933333333241,63.0,0.07748933333334662
697,47.0,0.0019372333333365077,57.0,0.15497866666666482
698,67.0,0.07748933333333241,59.0,0.07748933333333241
699,20.0,0.07748933333333241,57.0,0.23246800000001144
700,73.0,0.0019372333333365077,62.0,0.07748933333333241
701,68.0,0.07748933333333241,59.0,0.07748933333333241
702,71.0,0.0736148666666736,62.0,0.07748933333333241
703,64.0,0.07748933333333241,59.0,0.07748933333333241
704,69.0,0.07748933333333241,62.0,0.07748933333333241
705,64.0,0.07942656666666892,59.0,0.07748933333333241
706,68.0,0.0755520999999959,62.0,0.07748933333333241
707,35.0,0.0019372333333365077,57.0,0.15497866666666482
708,59.0,0.08039518333333717,59.0,0.07748933333333241
709,40.0,0.07458348333332765,57.0,0.15497866666666482
710,66.0,0.0009686166666682539,62.0,0.07748933333333241
711,59.0,0.07458348333332765,59.0,0.07748933333333241
712,47.0,0.07942656666666892,57.0,0.15497866666666482
713,64.0,0.0029058500000047616,62.0,0.07748933333333241
714,56.0,0.0755520999999959,59.0,0.07750753333333193
715,22.0,0.07652071666666416,68.0,0.23683599999999672
716,57.0,0.07697170000000142,59.0,0.07894533333333698
717,63.0,0.07993215000000475,59.0,0.07894533333332276
718,55.0,0.07993214999999054,59.0,0.07894533333333698
719,58.0,0.07993215000000475,59.0,0.07894533333333698
720,51.0,0.07993215000000475,59.0,0.07891616666665868
721,59.0,0.07499806666666586,55.0,0.07780783333332408
722,39.0,0.001973633333321345,62.0,0.1555573333333342
723,55.0,0.07972313333333148,55.0,0.07777866666667421
724,57.0,0.07388973333333126,55.0,0.07777866666667421
725,43.0,0.0019444666666714738,57.0,0.1555573333333342
726,51.0,0.07875090000000284,55.0,0.07777866666666
727,46.0,0.07680643333333137,57.0,0.1555573333333342
728,58.0,0.0009722333333286315,55.0,0.07777866666667421
729,55.0,0.07972313333333148,55.0,0.07777866666667421
730,22.0,0.0748619666666741,62.0,0.23333599999999421
731,50.0,0.07680643333333137,55.0,0.07777866666666
732,57.0,0.07777866666666,55.0,0.07777866666667421
733,56.0,0.08069536666667432,55.0,0.07777866666666
734,58.0,0.07583420000000274,55.0,0.07777866666666
735,50.0,0.07777866666666,55.0,0.07777866666667421
736,46.0,0.07777866666667421,57.0,0.47543600000000197
737,62.0,0.0009904916666698682,55.0,0.07923933333333366
738,56.0,0.07626785833332406,53.0,0.07923933333333366
739,67.0,0.08419179166666879,53.0,0.07923933333333366
740,58.0,0.0782488416666638,53.0,0.07923933333333366
741,65.0,0.0752773666666684,53.0,0.07923933333333366
742,56.0,0.0812203166666734,53.0,0.07923933333333366
743,27.0,0.04952458333333709,60.0,0.5051507499999985
744,34.0,0.01485737499999118,60.0,0.01485737500000539
745,43.0,0.01485737500000539,60.0,0.47543600000000197
746,65.0,0.0019809833333255256,55.0,0.07923933333333366
747,58.0,0.08022982500000353,46.0,0.07923933333333366
748,63.0,0.0782488416666638,55.0,0.07923933333333366
749,55.0,0.078248841666678,46.0,0.07923933333333366
750,60.0,0.07923933333333366,55.0,0.07923933333333366
751,55.0,0.08122031666665919,47.0,0.07923933333333366
752,58.0,0.0782488416666638,55.0,0.07923933333333366
753,51.0,0.07626785833333827,47.0,0.07923933333333366
754,56.0,0.08122031666665919,55.0,0.07923933333333366
755,51.0,0.07725835000000814,47.0,0.07923933333333366
756,55.0,0.08122031666665919,55.0,0.07923933333333366
757,46.0,0.08022982500000353,47.0,0.07923933333333366
758,60.0,0.07626785833333827,55.0,0.07923933333333366
759,55.0,0.08122401875000662,49.0,0.07968514999998888
760,58.0,0.07868730624998932,55.0,0.07998108333333676
761,51.0,0.08299797708333756,49.0,0.08046146249999708
762,56.0,0.07945217708332564,55.0,0.0809111833333418
763,51.0,0.0809111833333418,47.0,0.08123397916666875
764,55.0,0.08021298750000483,55.0,0.08167933333334076
765,46.0,0.08065834166666264,49.0,0.08167933333334076
766,60.0,0.0837213166666686,55.0,0.0819880791666634
767,55.0,0.0819880791666634,47.0,0.09402916666667238
768,58.0,0.09520453125000472,55.0,0.09402916666665817
769,51.0,0.08932770833332881,47.0,0.09402916666667238
770,58.0,0.09520453125000472,82.0,0.4821847958333336
771,48.0,0.001005631249995531,66.0,0.08045049999999776
772,43.0,0.08246176250000303,61.0,0.08045049999999776
773,46.0,0.0784392375000067,66.0,0.08045049999999776
774,40.0,0.08246176249998882,61.0,0.08045050000001197
775,44.0,0.0784392375000067,66.0,0.08045049999999776
776,40.0,0.07944486875000223,61.0,0.07993229583333061
777,58.0,0.07993229583333061,82.0,0.34870200000000295
778,37.0,0.08039518333333717,61.0,0.07748933333333241
779,41.0,0.07748933333333241,66.0,0.07748933333333241
780,37.0,0.0736148666666736,61.0,0.07748933333333241
781,40.0,0.07748933333333241,66.0,0.07748933333333241
782,58.0,0.039713283333327354,77.0,0.11638595833332488
783,34.0,0.03777605000000506,61.0,0.07763043749999099
784,58.0,0.07860990833331982,82.0,0.4697505000000035
785,39.0,0.001958941666671876,66.0,0.07835766666666188
786,34.0,0.07933713750000493,61.0,0.07835766666666188
787,37.0,0.07639872499999001,66.0,0.0783576666666761
788,31.0,0.07541925416667539,61.0,0.07835766666666188
789,36.0,0.0812960791666626,66.0,0.07835766666666188
790,31.0,0.07541925416666118,61.0,0.07801866666667934
791,60.0,0.07992110833333754,85.0,0.45703219166667
792,34.0,0.0009512208333291028,66.0,0.07609766666666928
793,28.0,0.07609766666666928,61.0,0.07609766666666928
794,32.0,0.07514644583334018,61.0,0.07609766666666928
795,28.0,0.07419522499999687,57.0,0.07609766666666928
796,31.0,0.08085377083332901,61.0,0.07609766666666928
797,25.0,0.07134156250000956,57.0,0.07648011666665866
798,58.0,0.07844629999999597,82.0,0.47263991250000004
799,29.0,0.0009830916666686562,61.0,0.07864733333333618
800,25.0,0.07569805833333021,61.0,0.07864733333333618
801,28.0,0.07963042500000483,66.0,0.07864733333333618
802,22.0,0.08061351666665928,61.0,0.07864733333333618
803,27.0,0.07668114999999887,66.0,0.07864733333333618
804,22.0,0.07864733333333618,61.0,0.07934925208333254
805,55.0,0.08038633750000201,77.0,0.4966968958333382
806,25.0,0.0010370854166694699,66.0,0.08296683333333021
807,19.0,0.08192974791666074,57.0,0.08296683333334443
808,24.0,0.08296683333334443,61.0,0.08296683333333021
809,19.0,0.08192974791666074,57.0,0.08296683333333021
810,22.0,0.08607808958333862,61.0,0.08296683333333021
811,16.0,0.07881849166666655,57.0,0.08202045833331795
812,58.0,0.08393689999999765,77.0,0.9198919999999902
813,16.0,0.07761588749998793,57.0,0.0766576666666765
814,19.0,0.07761588750000215,61.0,0.0766576666666765
815,13.0,0.07474122500001101,57.0,0.0766576666666623
816,17.0,0.0747412249999968,61.0,0.0766576666666623
817,13.0,0.07857410833332779,57.0,0.0766576666666623
818,16.0,0.0766576666666623,61.0,0.0766576666666765
819,10.0,0.07474122500001101,57.0,0.0766576666666623
820,15.0,0.08049054999999328,61.0,0.0766576666666623
821,10.0,0.0766576666666623,57.0,0.0766576666666765
822,13.0,0.07761588750000215,61.0,0.0766576666666765
823,7.0,0.07474122500001101,57.0,0.07670507708331797
824,61.0,0.07569944583332244,82.0,0.4821847958333336
825,51.0,0.001005631249995531,66.0,0.08045049999999776
826,46.0,0.08045049999999776,61.0,0.08045050000001197
827,49.0,0.0814561312500075,66.0,0.08045049999999776
828,43.0,0.08045049999999776,61.0,0.08045049999999776
829,48.0,0.0814561312500075,66.0,0.08045049999999776
830,43.0,0.07743360624999696,61.0,0.07993229583333061
831,61.0,0.07993229583333061,82.0,0.34870200000000295
832,40.0,0.07555210000001011,61.0,0.07748933333333241
833,44.0,0.08233241666665947,66.0,0.07748933333333241
834,40.0,0.07652071666666416,61.0,0.07748933333333241
835,43.0,0.07555210000001011,66.0,0.07748933333333241
836,61.0,0.0387446666666591,77.0,0.11638595833332488
837,37.0,0.0368074333333368,61.0,0.07761958333333041
838,61.0,0.07957852499998808,82.0,0.4697505000000035
839,41.0,0.002938412500000709,66.0,0.0783576666666761
840,37.0,0.07737819583333305,61.0,0.0783576666666761
841,40.0,0.07443978333333234,66.0,0.0783576666666761
842,34.0,0.08031660833333376,61.0,0.0783576666666761
843,39.0,0.0812960791666768,66.0,0.07835766666666188
844,34.0,0.0734603124999893,61.0,0.07801866666667934
845,37.0,0.07801866666667934,66.0,0.07609766666665507
846,63.0,0.0019024416666582056,85.0,0.45703219166667
847,31.0,0.07514644583334018,57.0,0.07609766666666928
848,36.0,0.07514644583332597,61.0,0.07609766666666928
849,31.0,0.0789513291666708,57.0,0.07609766666666928
850,34.0,0.07324400416666776,61.0,0.07609766666666928
851,28.0,0.0789513291666708,57.0,0.07657572916666311
852,61.0,0.07559263749999445,82.0,0.47263991250000004
853,32.0,0.0009830916666686562,61.0,0.07864733333333618
854,28.0,0.07963042500000483,61.0,0.07864733333332197
855,31.0,0.07864733333332197,66.0,0.07864733333333618
856,25.0,0.07963042500000483,61.0,0.07864733333333618
857,29.0,0.07766424166666752,66.0,0.07864733333333618
858,25.0,0.07569805833333021,61.0,0.07934925208333254
859,58.0,0.08038633750000201,81.0,0.4966968958333382
860,28.0,0.0020741708333389397,66.0,0.08296683333333021
861,22.0,0.08089266249999127,57.0,0.08296683333334443
862,27.0,0.08607808958333862,61.0,0.08296683333333021
863,22.0,0.08192974791667496,57.0,0.08296683333333021
864,25.0,0.0798555770833218,61.0,0.08296683333334443
865,19.0,0.08296683333334443,57.0,0.08194159374998833
866,61.0,0.08289981458332818,84.0,0.9604254999999853
867,19.0,0.07569944583332244,57.0,0.0766576666666765
868,22.0,0.078574108333342,61.0,0.0766576666666623
869,16.0,0.0747412249999968,57.0,0.0766576666666623
870,20.0,0.08049054999999328,61.0,0.0766576666666765
871,16.0,0.07282478333334552,57.0,0.0766576666666623
872,19.0,0.07761588749998793,61.0,0.07894533333333698
873,13.0,0.0779585166666692,57.0,0.07894533333333698
874,50.0,0.08351227500000391,59.0,0.07953549999999154
875,41.0,0.07854130624998845,59.0,0.07953550000000575
876,52.0,0.07953550000000575,60.0,0.07953550000000575
877,47.0,0.07555872499999339,61.0,0.07953550000000575
878,26.0,0.08152388750001194,70.0,0.15671533333333798
879,50.0,0.0009794708333288327,62.0,0.0783576666666761
880,53.0,0.07933713750000493,64.0,0.07835766666666188
881,23.0,0.07639872500000422,66.0,0.15671533333332377
882,64.0,0.0019589416666576653,67.0,0.0783576666666761
883,59.0,0.0783576666666761,68.0,0.07835766666666188
884,62.0,0.07443978333333234,69.0,0.07835766666666188
885,26.0,0.0019589416666576653,74.0,0.15671533333333798
886,65.0,0.08031660833333376,70.0,0.07840209166667478
887,19.0,0.07639872500000422,79.0,0.180302999999995
888,71.0,0.0811363499999942,73.0,0.08013466666666602
889,74.0,0.08213803333333658,71.0,0.08013466666666602
890,65.0,0.08013466666666602,71.0,0.08013466666666602
891,64.0,0.07512624999999673,71.0,0.08013466666666602
892,31.0,0.042070700000010675,77.0,0.12020199999999193
893,59.0,0.042070699999996464,71.0,0.08009024166666734
894,33.0,0.07813129999999546,84.0,0.3526094999999998
895,53.0,0.07639872500000422,69.0,0.07835766666666188
896,52.0,0.07933713749999072,69.0,0.0783576666666761
897,47.0,0.07933713750000493,69.0,0.07835766666666188
898,50.0,0.07639872500000422,69.0,0.07835766666666188
899,31.0,0.04113777499999571,79.0,0.11753649999999993
900,41.0,0.04211724583333876,69.0,0.07839072916665657
901,30.0,0.07541925416666118,86.0,0.47543600000000197
902,53.0,0.0009904916666698682,69.0,0.07923933333333366
903,46.0,0.07725834999999392,69.0,0.07923933333333366
904,51.0,0.08221080833334327,69.0,0.07923933333331945
905,39.0,0.08022982499998932,69.0,0.07923933333333366
906,56.0,0.0752773666666684,69.0,0.07923933333333366
907,51.0,0.0782488416666638,69.0,0.07923933333333366
908,27.0,0.0812203166666734,74.0,0.47543600000000197
909,54.0,0.0019809833333255256,69.0,0.07923933333333366
910,46.0,0.07626785833333827,61.0,0.07923933333333366
911,59.0,0.0812203166666734,61.0,0.07923933333333366
912,54.0,0.08022982499998932,61.0,0.07923933333333366
913,58.0,0.08022982500000353,61.0,0.07923933333333366
914,51.0,0.0752773666666684,61.0,0.07923933333333366
915,30.0,0.08022982500000353,82.0,0.4808079999999961
916,63.0,0.0010016833333281738,61.0,0.08013466666666602
917,58.0,0.08213803333333658,61.0,0.08013466666666602
918,62.0,0.08013466666666602,61.0,0.08013466666666602
919,54.0,0.07813130000000967,61.0,0.08013466666666602
920,61.0,0.07813129999999546,61.0,0.08013466666666602
921,58.0,0.08313971666666475,61.0,0.08009024166666734
922,32.0,0.07813129999999546,77.0,0.15671533333333798
923,55.0,0.07835766666666188,62.0,0.0783576666666761
924,59.0,0.07639872500000422,64.0,0.07835766666666188
925,33.0,0.001958941666671876,70.0,0.15671533333332377
926,55.0,0.07933713749999072,67.0,0.0783576666666761
927,34.0,0.07737819583333305,74.0,0.15671533333333798
928,51.0,0.07639872500000422,69.0,0.07835766666666188
929,56.0,0.07933713750000493,66.0,0.0795207770833315
930,35.0,0.0009794708333288327,77.0,0.4772130000000061
931,51.0,0.08251808125000082,59.0,0.07953550000000575
932,54.0,0.07555872499999339,59.0,0.07953550000000575
933,45.0,0.08351227500000391,59.0,0.07953550000000575
934,56.0,0.0745645312500045,60.0,0.07953549999999154
935,51.0,0.08450646874999279,61.0,0.0794913312500114
936,30.0,0.07655291875001069,79.0,0.15671533333333798
937,54.0,0.002938412500000709,62.0,0.07835766666666188
938,57.0,0.07541925416666118,64.0,0.0783576666666761
939,68.0,0.07737819583333305,67.0,0.0783576666666761
940,27.0,0.0009794708333430435,70.0,0.15671533333332377
941,63.0,0.07933713749999072,69.0,0.0783576666666761
942,30.0,0.07737819583333305,74.0,0.15671533333333798
943,66.0,0.0009794708333430435,70.0,0.07835766666666188
944,69.0,0.07835766666666188,72.0,0.07837987916666123
945,23.0,0.07737819583333305,79.0,0.180302999999995
946,75.0,0.07813129999999546,61.0,0.08013466666666602
947,78.0,0.08514308333333531,69.0,0.08013466666666602
948,69.0,0.07512624999999673,69.0,0.08013466666666602
949,68.0,0.0811363500000084,69.0,0.08013466666666602
950,35.0,0.04106901666666829,77.0,0.12020199999999193
951,63.0,0.03906564999999773,69.0,0.08013466666666602
952,37.0,0.0811363499999942,84.0,0.3526094999999998
953,66.0,0.001958941666671876,69.0,0.07835766666666188
954,57.0,0.07737819583333305,69.0,0.07835766666666188
955,56.0,0.08031660833333376,69.0,0.07835766666666188
956,51.0,0.07639872499999001,69.0,0.0783576666666761
957,54.0,0.07933713750000493,69.0,0.07835766666666188
958,35.0,0.03721989166666617,79.0,0.11753649999999993
959,45.0,0.03917883333333805,69.0,0.07835766666666188
960,34.0,0.07835766666666188,86.0,0.47543600000000197
961,57.0,0.0019809833333397364,69.0,0.07923933333333366
962,50.0,0.07923933333333366,69.0,0.07923933333333366
963,55.0,0.07527736666665419,69.0,0.07923933333333366
964,43.0,0.08221080833334327,69.0,0.07923933333333366
965,60.0,0.07626785833332406,69.0,0.07923933333333366
966,55.0,0.07923933333333366,69.0,0.07923933333333366
967,31.0,0.0812203166666734,74.0,0.47543600000000197
968,58.0,0.0019809833333255256,69.0,0.07923933333333366
969,50.0,0.07725835000000814,61.0,0.07923933333333366
970,63.0,0.08221080833332906,61.0,0.07923933333333366
971,58.0,0.07626785833333827,61.0,0.07923933333333366
972,62.0,0.08122031666665919,61.0,0.07923933333333366
973,55.0,0.0752773666666684,61.0,0.07923933333333366
974,34.0,0.0812203166666734,82.0,0.4808079999999961
975,67.0,0.0010016833333281738,66.0,0.08013466666666602
976,62.0,0.07712961666666729,66.0,0.08013466666666602
977,66.0,0.08414140000000714,67.0,0.08013466666666602
978,58.0,0.0811363499999942,68.0,0.08013466666666602
979,65.0,0.07813130000000967,69.0,0.08013466666666602
980,62.0,0.0811363499999942,69.0,0.08009024166666734
981,64.0,0.07712961666666729,70.0,0.07837987916666123
982,36.0,0.0010016833333281738,77.0,0.15671533333333798
983,58.0,0.08031660833333376,71.0,0.07835766666666188
984,37.0,0.07639872500000422,79.0,0.15671533333332377
985,63.0,0.0009794708333288327,72.0,0.07835766666666188
986,58.0,0.07835766666666188,73.0,0.0783576666666761
987,62.0,0.07639872500000422,73.0,0.07835766666666188
988,38.0,0.0009794708333288327,82.0,0.15671533333333798
989,55.0,0.0812960791666768,75.0,0.07841087916666822
990,39.0,0.07541925416666118,90.0,0.47866000000000497
991,55.0,0.08177108333333649,64.0,0.07977666666666039
992,60.0,0.0777822499999985,69.0,0.07977666666666039
993,49.0,0.0777822499999985,64.0,0.07977666666666039
994,59.0,0.08177108333333649,69.0,0.07977666666666039
995,55.0,0.08077387499999134,64.0,0.07978907083334263
996,15.0,0.04886320833334423,63.0,0.5145302499999929
997,22.0,0.014958124999992606,63.0,0.49957212500000026
998,31.0,0.014958125000006817,82.0,0.48461399999999344
999,49.0,0.08076900000000364,64.0,0.08076899999998943
1000,60.0,0.07874977499999147,69.0,0.08076900000000364
1001,55.0,0.08177861250000262,64.0,0.08076900000000364
1002,58.0,0.0827882250000016,69.0,0.08076900000000364
1003,49.0,0.0827882250000016,64.0,0.08073178749999954
1004,20.0,0.04745178749999468,67.0,0.5089483750000028
1005,27.0,0.015144187499998907,68.0,0.4938041875000039
1006,36.0,0.015144187499998907,89.0,0.47866000000000497
1007,51.0,0.08276829166666744,64.0,0.07977666666666039
1008,57.0,0.07678504166666755,69.0,0.07977666666666039
1009,48.0,0.08077387499999134,64.0,0.0797766666666746
1010,56.0,0.07678504166666755,69.0,0.0797766666666746
1011,51.0,0.08476270833334354,64.0,0.07980169166667395
1012,14.0,0.061826916666660736,60.0,0.4976221250000066
1013,33.0,0.014958125000006817,82.0,0.48266399999999976
1014,57.0,0.0030166500000063934,69.0,0.08044399999999996
1015,48.0,0.07742734999999357,64.0,0.08044399999999996
1016,58.0,0.08245510000000422,69.0,0.08044399999999996
1017,50.0,0.07742734999999357,64.0,0.08044399999999996
1018,57.0,0.08245510000000422,69.0,0.08044399999999996
1019,48.0,0.07943844999999783,64.0,0.08044399999999996
1020,19.0,0.05027750000000708,62.0,0.5088264999999978
1021,26.0,0.015083249999989334,63.0,0.4937432500000085
1022,34.0,0.015083250000003545,90.0,0.47866000000000497
1023,57.0,0.0009972083333309456,69.0,0.0797766666666746
1024,50.0,0.07678504166666755,64.0,0.0797766666666746
1025,56.0,0.08177108333333649,69.0,0.07977666666666039
1026,46.0,0.07877945833332944,64.0,0.0797766666666746
1027,55.0,0.08376549999999838,69.0,0.0797766666666746
1028,50.0,0.0797766666666746,64.0,0.07977666666666039
1029,24.0,0.04686879166666813,55.0,0.5085762499999902
1030,31.0,0.014958124999992606,56.0,0.4936181249999976
1031,40.0,0.014958125000006817,82.0,0.47865999999999076
1032,55.0,0.002991624999992837,69.0,0.0797766666666746
1033,46.0,0.0777822499999985,64.0,0.0797766666666746
1034,56.0,0.0797766666666746,69.0,0.07977666666666039
1035,48.0,0.07678504166666755,64.0,0.07977666666666039
1036,55.0,0.08177108333332228,69.0,0.0797766666666746
1037,46.0,0.07877945833334365,64.0,0.07977666666666039
1038,29.0,0.05085762499999191,62.0,0.5085762500000044
1039,36.0,0.014958125000006817,66.0,0.4936181249999976
1040,41.0,0.014958124999992606,89.0,0.47866000000000497
1041,48.0,0.0777822499999985,64.0,0.0797766666666746
1042,52.0,0.08476270833334354,69.0,0.07977666666666039
1043,44.0,0.0757878333333224,64.0,0.0797766666666746
1044,53.0,0.08276829166666744,69.0,0.0797766666666746
1045,48.0,0.08077387500000555,64.0,0.07977666666666039
1046,24.0,0.04686879166666813,55.0,0.5085762500000044
1047,31.0,0.014958124999992606,55.0,0.4936181250000118
1048,39.0,0.014958125000006817,82.0,0.47866000000000497
1049,53.0,0.0009972083333309456,69.0,0.0797766666666746
1050,43.0,0.0777822499999985,64.0,0.0797766666666746
1051,50.0,0.0797766666666746,69.0,0.07977666666666039
1052,48.0,0.08177108333332228,64.0,0.0797766666666746
1053,51.0,0.08177108333333649,69.0,0.0797766666666746
1054,43.0,0.07578783333333661,64.0,0.07977666666666039
1055,51.0,0.07977666666666039,70.0,0.0807307562500057
1056,29.0,0.0009972083333451565,94.0,0.24222849999999596
1057,48.0,0.08276140416666067,70.0,0.0807428333333462
1058,50.0,0.08175211875000343,70.0,0.08074283333333199
1059,44.0,0.07670569166667462,70.0,0.08074283333333199
1060,51.0,0.08074283333333199,70.0,0.08074283333333199
1061,48.0,0.08175211874998922,70.0,0.0807428333333462
1062,44.0,0.0807428333333462,90.0,0.46838400000000036
1063,50.0,0.0029274000000043543,70.0,0.07806399999999769
1064,56.0,0.07611239999999952,71.0,0.07806399999999769
1065,63.0,0.07513659999999334,72.0,0.07806399999999769
1066,60.0,0.08294300000000021,73.0,0.07806399999999769
1067,62.0,0.07318500000000938,75.0,0.07806399999999769
1068,68.0,0.08099139999998783,77.0,0.0780640000000119
1069,75.0,0.07611239999999952,77.0,0.0780640000000119
1070,37.0,0.0009758000000061884,88.0,0.23419199999999307
1071,72.0,0.07708820000000571,77.0,0.07806399999999769
1072,74.0,0.0770881999999915,75.0,0.07806399999999769
1073,68.0,0.07903980000000388,73.0,0.07806399999999769
1074,63.0,0.07903980000000388,73.0,0.07806399999999769
1075,39.0,0.03903199999999174,93.0,0.11709600000000364
1076,60.0,0.041959399999996094,72.0,0.07813013125000623
1077,62.0,0.07318500000000938,70.0,0.07978341249999232
1078,38.0,0.001951599999998166,89.0,0.4789650000000023
1079,56.0,0.07783181249999416,70.0,0.07982750000000749
1080,51.0,0.08182318750000661,70.0,0.07982749999999328
1081,48.0,0.07882965624999372,70.0,0.07982750000000749
1082,50.0,0.08182318750000661,70.0,0.07982749999999328
1083,44.0,0.07882965624999372,70.0,0.07982750000000749
1084,30.0,0.07982750000000749,94.0,0.24222849999999596
1085,45.0,0.08377068958333211,70.0,0.08074283333333199
1086,48.0,0.0787242625000033,70.0,0.08074283333333199
1087,39.0,0.0787242625000033,70.0,0.08074283333333199
1088,50.0,0.08175211874998922,70.0,0.08074283333333199
1089,45.0,0.08074283333333199,70.0,0.0807428333333462
1090,45.0,0.0807428333333462,90.0,0.46838400000000036
1091,48.0,0.0029274000000043543,70.0,0.07806399999999769
1092,51.0,0.07611239999999952,71.0,0.07806399999999769
1093,62.0,0.08001559999999586,72.0,0.07806399999999769
1094,57.0,0.07708820000000571,73.0,0.07806399999999769
1095,60.0,0.07806399999999769,75.0,0.07806399999999769
1096,63.0,0.0770881999999915,77.0,0.0780640000000119
1097,36.0,0.07708820000000571,88.0,0.23419199999999307
1098,74.0,0.0029274000000043543,79.0,0.07806399999999769
1099,69.0,0.07416080000000136,78.0,0.07806399999999769
1100,72.0,0.08196719999999402,77.0,0.07806399999999769
1101,63.0,0.07416080000000136,75.0,0.07806399999999769
1102,62.0,0.08196719999999402,72.0,0.07806399999999769
1103,41.0,0.036104600000001597,93.0,0.11709600000000364
1104,57.0,0.04098360000000412,71.0,0.07806399999999769
1105,60.0,0.07416080000000136,70.0,0.07806399999999769
1106,39.0,0.001951599999998166,89.0,0.46838400000000036
1107,51.0,0.08001559999999586,70.0,0.07806399999999769
1108,50.0,0.07611239999999952,70.0,0.07806399999999769
1109,45.0,0.07708820000000571,70.0,0.07806399999999769
1110,48.0,0.0770881999999915,70.0,0.0780640000000119
1111,39.0,0.0780640000000119,70.0,0.07806399999999769
1112,19.0,0.08001559999999586,62.0,1.8999809999999968
1113,43.0,0.08282103125000617,59.0,0.07982749999999328
1114,47.0,0.07483828124999548,59.0,0.07982749999999328
1115,50.0,0.07982749999999328,60.0,0.07982750000000749
1116,60.0,0.08082534375000705,60.0,0.07982749999999328
1117,55.0,0.08282103124999196,61.0,0.07980544583334392
1118,38.0,0.07783181250000837,80.0,0.3552540000000022
1119,59.0,0.001973633333335556,62.0,0.07894533333333698
1120,62.0,0.07894533333333698,62.0,0.07894533333332276
1121,72.0,0.07795851666665499,63.0,0.07894533333333698
1122,67.0,0.07697170000000142,63.0,0.07894533333333698
1123,71.0,0.08190578333334031,64.0,0.07894533333333698
1124,43.0,0.03749903333333293,77.0,0.11841799999999125
1125,62.0,0.04243311666665761,63.0,0.07894533333333698
1126,41.0,0.07598488333333364,77.0,0.9473440000000011
1127,71.0,0.002960450000003334,63.0,0.07894533333333698
1128,65.0,0.07499806666666586,63.0,0.07894533333333698
1129,69.0,0.07993215000000475,63.0,0.07894533333333698
1130,62.0,0.07697170000000142,63.0,0.07894533333333698
1131,59.0,0.07894533333333698,62.0,0.07894533333332276
1132,53.0,0.07894533333332276,62.0,0.07894533333333698
1133,57.0,0.08091896666667253,62.0,0.07894533333333698
1134,50.0,0.08091896666665832,61.0,0.07894533333333698
1135,47.0,0.07697170000000142,61.0,0.07894533333333698
1136,41.0,0.0779585166666692,61.0,0.07894533333333698
1137,45.0,0.07894533333333698,61.0,0.07894533333333698
1138,38.0,0.07894533333333698,61.0,0.07894533333332276
1139,19.0,0.07993214999999054,61.0,0.23948249999999405
1140,45.0,0.0019956874999991214,60.0,0.07982750000000749
1141,40.0,0.07583612499999504,59.0,0.07982750000000749
1142,43.0,0.07982750000000749,59.0,0.07982749999999328
1143,47.0,0.08282103124999196,60.0,0.07982750000000749
1144,57.0,0.07882965625000793,60.0,0.07982749999999328
1145,52.0,0.0818231874999924,61.0,0.07980544583334392
1146,55.0,0.07583612500000925,62.0,0.07896738750000054
1147,35.0,0.0019956874999991214,80.0,0.3552540000000022
1148,59.0,0.08190578333334031,66.0,0.07894533333332276
1149,69.0,0.07401124999999809,66.0,0.07894533333332276
1150,64.0,0.07894533333332276,66.0,0.07894533333333698
1151,67.0,0.07993215000000475,66.0,0.07894533333333698
1152,40.0,0.040459483333336266,77.0,0.11841799999999125
1153,59.0,0.041446300000004044,66.0,0.07894533333332276
1154,67.0,0.07598488333333364,66.0,0.07894533333332276
1155,38.0,0.0009868166666535672,77.0,0.9473440000000011
1156,62.0,0.07993215000000475,64.0,0.07894533333333698
1157,65.0,0.0779585166666692,64.0,0.07894533333333698
1158,57.0,0.07993215000000475,63.0,0.07894533333332276
1159,55.0,0.07894533333332276,63.0,0.07894533333333698
1160,50.0,0.08091896666667253,62.0,0.07894533333333698
1161,64.0,0.0009758000000061884,88.0,0.09367679999999723
1162,58.0,0.07806399999999769,82.0,0.09367679999999723
1163,50.0,0.001951599999998166,63.0,0.09367679999999723
1164,63.0,0.07513659999999334,88.0,0.09367680000001144
1165,47.0,0.0019516000000123768,72.0,0.09367679999999723
1166,53.0,0.07806399999999769,63.0,0.23419199999999307
1167,56.0,0.0029273999999901434,81.0,0.23419200000000728
1168,62.0,0.07513660000000755,103.0,0.11709600000000364
1169,14.0,0.9367680000000007,82.0,0.09367679999999723
1170,74.0,0.001951599999998166,103.0,0.09367679999999723
1171,20.0,0.07806399999999769,67.0,0.09367679999999723
1172,68.0,0.0009758000000061884,85.0,0.09367679999999723
1173,73.0,0.07416080000000136,99.0,0.09367679999999723
1174,23.0,0.07806399999999769,67.0,0.09367679999999723
1175,65.0,0.003903199999996332,85.0,0.09367679999999723
1176,17.0,0.07416080000000136,79.0,0.09367679999999723
1177,72.0,0.0009757999999919775,90.0,0.09367680000001144
1178,23.0,0.07708820000000571,67.0,0.09367679999999723
1179,68.0,0.003903199999996332,85.0,0.09367679999999723
1180,71.0,0.07611239999999952,90.0,0.09367679999999723
1181,20.0,0.0009758000000061884,74.0,0.09367679999999723
1182,65.0,0.07513659999999334,85.0,0.09367680000001144
1183,26.0,0.0009758000000061884,67.0,0.09367679999999723
1184,20.0,0.07611239999999952,74.0,0.09367679999999723
1185,70.0,0.0009758000000061884,89.0,0.09367679999999723
1186,65.0,0.07903979999998967,85.0,0.09367679999999723
1187,26.0,0.0029274000000043543,68.0,0.09367679999999723
1188,23.0,0.07318499999999517,74.0,0.09367680000001144
1189,69.0,0.0029274000000043543,89.0,0.09367679999999723
1190,62.0,0.07611239999999952,84.0,0.09367679999999723
1191,29.0,0.001951599999998166,67.0,0.09367679999999723
1192,68.0,0.07611239999999952,89.0,0.09367679999999723
1193,23.0,0.001951599999998166,74.0,0.09367680000001144
1194,62.0,0.07513660000000755,84.0,0.09367679999999723
1195,29.0,0.001951599999998166,66.0,0.09367679999999723
1196,67.0,0.07611239999999952,89.0,0.09367679999999723
1197,26.0,0.001951599999998166,74.0,0.09367679999999723
1198,32.0,0.07806399999999769,64.0,0.09367679999999723
1199,59.0,0.001951599999998166,84.0,0.09367680000001144
1200,26.0,0.07708820000000571,73.0,0.09367679999999723
1201,66.0,0.001951599999998166,89.0,0.09367679999999723
1202,62.0,0.07708820000000571,82.0,0.09367679999999723
1203,29.0,0.07513659999999334,73.0,0.09367679999999723
1204,65.0,0.0029274000000043543,88.0,0.09367679999999723
1205,56.0,0.07416080000000136,82.0,0.09367679999999723
1206,35.0,0.0029273999999901434,64.0,0.09367680000001144
1207,29.0,0.07513660000000755,72.0,0.09367679999999723
1208,64.0,0.001951599999998166,88.0,0.09367679999999723
1209,59.0,0.07903980000000388,82.0,0.09367679999999723
1210,32.0,0.0770881999999915,72.0,0.09367680000001144
1211,63.0,0.0029274000000043543,88.0,0.09367679999999723
1212,53.0,0.07416080000000136,84.0,0.09367679999999723
1213,38.0,0.003903199999996332,64.0,0.09367679999999723
1214,32.0,0.07513660000000755,73.0,0.09367679999999723
1215,62.0,0.0009757999999919775,88.0,0.09367679999999723
1216,38.0,0.07708820000000571,64.0,0.09367679999999723
1217,56.0,0.001951599999998166,84.0,0.09367679999999723
1218,35.0,0.07708820000000571,72.0,0.09367679999999723
1219,61.0,0.001951599999998166,88.0,0.09367679999999723
1220,41.0,0.0770881999999915,64.0,0.09367680000001144
1221,53.0,0.0009758000000061884,82.0,0.09367679999999723
1222,35.0,0.07318499999999517,72.0,0.09367679999999723
1223,60.0,0.003903199999996332,88.0,0.09367680000001144
1224,41.0,0.07416080000000136,63.0,0.09367680000001144
1225,56.0,0.0029274000000043543,84.0,0.09367679999999723
1226,59.0,0.07611239999999952,86.0,0.09367679999999723
1227,53.0,0.08099140000000205,82.0,0.09367679999999723
1228,58.0,0.07416080000000136,85.0,0.09367679999999723
1229,38.0,0.00487900000000252,72.0,0.09367679999999723
1230,44.0,0.07416080000000136,63.0,0.09367679999999723
1231,53.0,0.001951599999998166,81.0,0.09367679999999723
1232,41.0,0.07611239999999952,72.0,0.3278687999999903
1233,57.0,0.0029273999999901434,85.0,0.09367680000001144
1234,50.0,0.07611240000001374,81.0,0.07611239999999952
1235,47.0,0.0009757999999919775,63.0,0.07806399999999769
1236,56.0,0.07513660000000755,100.0,0.14051519999999584
1237,53.0,0.001951599999998166,90.0,0.11709599999998943
1238,47.0,0.0029273999999901434,90.0,0.11709600000000364
1239,56.0,0.9338406000000106,60.0,0.07806399999999769
1240,53.0,0.07806399999999769,55.0,0.07806399999999769
1241,55.0,0.07806399999999769,60.0,0.07806399999999769
1242,47.0,0.07806399999999769,60.0,0.23419200000000728
1243,56.0,0.7025759999999934,60.0,0.0780640000000119
1244,53.0,0.0780640000000119,53.0,0.07806399999998348
1245,55.0,0.07806399999998348,60.0,0.0780640000000119
1246,38.0,0.0780640000000119,60.0,0.23419200000000728
1247,56.0,0.7025759999999934,51.0,0.0780640000000119
1248,44.0,0.0009757999999919775,48.0,0.0780640000000119
1249,53.0,0.07708820000001992,51.0,0.07806399999998348
1250,41.0,0.0029274000000043543,48.0,0.07806399999998348
1251,55.0,0.07513659999997913,51.0,0.0780640000000119
1252,43.0,0.0019516000000123768,48.0,0.0780640000000119
1253,38.0,0.07611239999999952,49.0,0.0780640000000119
1254,47.0,0.0009757999999919775,52.0,0.0780640000000119
1255,56.0,0.08001559999999586,52.0,0.0780640000000119
1256,41.0,0.07416080000001557,50.0,0.07806399999998348
1257,53.0,0.0009757999999919775,53.0,0.0780640000000119
1258,55.0,0.0780640000000119,53.0,0.07806399999998348
1259,38.0,0.07806399999998348,50.0,0.0780640000000119
1260,47.0,0.0029274000000043543,53.0,0.0780640000000119
1261,56.0,0.07611239999999952,55.0,0.0780640000000119
1262,44.0,0.0009757999999919775,51.0,0.0780640000000119
1263,41.0,0.07513660000000755,51.0,0.0780640000000119
1264,53.0,0.0009758000000203992,55.0,0.07806399999998348
1265,55.0,0.07903979999997546,56.0,0.0780640000000119
1266,43.0,0.0019516000000123768,52.0,0.0780640000000119
1267,38.0,0.07416079999998715,52.0,0.0780640000000119
1268,47.0,0.0029274000000043543,56.0,0.0780640000000119
1269,56.0,0.07416080000001557,57.0,0.07806399999998348
1270,44.0,0.0009757999999919775,53.0,0.0780640000000119
1271,53.0,0.0770881999999915,57.0,0.0780640000000119
1272,41.0,0.003903199999996332,53.0,0.0780640000000119
1273,55.0,0.07513660000000755,57.0,0.0780640000000119
1274,43.0,0.0029274000000043543,53.0,0.0780640000000119
1275,47.0,0.07416079999998715,58.0,0.0780640000000119
1276,38.0,0.0029274000000043543,55.0,0.0780640000000119
1277,56.0,0.07611239999999952,58.0,0.0780640000000119
1278,44.0,0.0029274000000043543,55.0,0.0780640000000119
1279,41.0,0.07416080000001557,56.0,0.07806399999998348
1280,53.0,0.001951599999983955,59.0,0.0780640000000119
1281,43.0,0.0770881999999915,56.0,0.0780640000000119
1282,55.0,0.0019516000000123768,59.0,0.0780640000000119
1283,47.0,0.07611239999999952,60.0,0.0780640000000119
1284,56.0,0.0770881999999915,60.0,0.0780640000000119
1285,44.0,0.004879000000016731,57.0,0.07806399999998348
1286,53.0,0.07611239999999952,60.0,0.07806399999998348
1287,41.0,0.001951599999983955,57.0,0.0780640000000119
1288,55.0,0.07318499999999517,61.0,0.0780640000000119
1289,43.0,0.0029274000000043543,58.0,0.0780640000000119
1290,47.0,0.07611239999999952,61.0,0.0780640000000119
1291,38.0,0.0029274000000043543,58.0,0.0780640000000119
1292,44.0,0.07513660000000755,59.0,0.09367679999999723
1293,56.0,0.0029274000000043543,62.0,0.07806399999998348
1294,53.0,0.07611239999999952,62.0,0.07806399999998348
1295,43.0,0.0029274000000043543,59.0,0.09367679999999723
1296,42.0,0.07513659999997913,59.0,0.09367679999999723
1297,55.0,0.0029274000000043543,62.0,0.0780640000000119
1298,41.0,0.07318499999999517,60.0,0.09367679999999723
1299,47.0,0.0009758000000203992,63.0,0.07806399999998348
1300,56.0,0.0770881999999915,63.0,0.07806399999998348
1301,40.0,0.003903199999996332,60.0,0.09367679999999723
1302,39.0,0.07416079999998715,61.0,0.09367680000002565
1303,53.0,0.0029274000000043543,64.0,0.0780640000000119
1304,55.0,0.07611239999999952,64.0,0.09367679999999723
1305,47.0,0.07708820000001992,66.0,0.07806399999998348
1306,37.0,0.001951599999983955,62.0,0.09367679999999723
1307,56.0,0.07903980000000388,66.0,0.09367679999999723
1308,35.0,0.0780640000000119,62.0,0.09367679999999723
1309,53.0,0.0009757999999919775,66.0,0.0780640000000119
1310,55.0,0.07416079999998715,67.0,0.0780640000000119
1311,34.0,0.0019516000000123768,63.0,0.09367679999999723
1312,33.0,0.07611239999999952,63.0,0.09367679999999723
1313,47.0,0.004878999999988309,67.0,0.0780640000000119
1314,56.0,0.07513660000000755,68.0,0.0780640000000119
1315,32.0,0.0029274000000043543,64.0,0.09367679999999723
1316,31.0,0.07318499999999517,64.0,0.09367679999999723
1317,53.0,0.004879000000016731,68.0,0.07806399999998348
1318,30.0,0.07318499999999517,64.0,0.09367679999999723
1319,55.0,0.0029274000000043543,69.0,0.07806399999998348
1320,47.0,0.07611239999999952,69.0,0.07806399999998348
1321,29.0,0.003903199999996332,66.0,0.09367679999999723
1322,56.0,0.07416079999998715,69.0,0.0780640000000119
1323,28.0,0.0009758000000203992,66.0,0.09367679999999723
1324,53.0,0.07806399999998348,70.0,0.0780640000000119
1325,27.0,0.0019516000000123768,67.0,0.09367679999999723
1326,55.0,0.07513659999997913,70.0,0.09367679999999723
1327,25.0,0.07708820000001992,68.0,0.09367679999999723
1328,47.0,0.001951599999983955,71.0,0.0780640000000119
1329,24.0,0.0780640000000119,68.0,0.09367679999999723
1330,56.0,0.001951599999983955,71.0,0.0780640000000119
1331,23.0,0.0780640000000119,68.0,0.09367679999999723
1332,53.0,0.0009757999999919775,72.0,0.0780640000000119
1333,55.0,0.07513660000000755,72.0,0.0780640000000119
1334,22.0,0.0009757999999919775,69.0,0.09367679999999723
1335,47.0,0.07708820000001992,72.0,0.07806399999998348
1336,21.0,0.001951599999983955,69.0,0.09367679999999723
1337,56.0,0.0780640000000119,73.0,0.07806399999998348
1338,20.0,0.0009757999999919775,70.0,0.0780640000000119
1339,19.0,0.07416079999998715,70.0,0.0780640000000119
1340,53.0,0.0029274000000043543,73.0,0.0780640000000119
1341,55.0,0.07416080000001557,74.0,0.07806399999998348
1342,18.0,0.001951599999983955,70.0,0.0780640000000119
1343,47.0,0.07611239999999952,74.0,0.0780640000000119
1344,19.0,0.004879000000016731,71.0,0.07806399999998348
1345,20.0,0.07318499999999517,71.0,0.07806399999998348
1346,56.0,0.003903199999996332,74.0,0.0780640000000119
1347,53.0,0.07903980000000388,75.0,0.07806399999998348
1348,55.0,0.07611239999999952,75.0,0.07806399999998348
1349,19.0,0.07611239999999952,73.0,0.07806399999998348
1350,59.0,0.0009757999999919775,77.0,0.0780640000000119
1351,20.0,0.07611239999999952,73.0,0.0780640000000119
1352,68.0,0.0019516000000123768,77.0,0.07806399999998348
1353,65.0,0.07611239999999952,78.0,0.07806399999998348
1354,19.0,0.0009757999999919775,73.0,0.0780640000000119
1355,18.0,0.0780640000000119,74.0,0.07806399999998348
1356,67.0,0.0009757999999919775,78.0,0.07806399999998348
1357,71.0,0.0770881999999915,78.0,0.0780640000000119
1358,20.0,0.0780640000000119,75.0,0.07778223333332335
1359,80.0,0.0009757999999919775,79.0,0.07777866666666
1360,77.0,0.08069536666667432,79.0,0.07778936666665004
1361,79.0,0.07388973333331705,80.0,0.07806043333332013
1362,18.0,0.001948033333320609,77.0,0.0780640000000119
1363,71.0,0.07611239999999952,80.0,0.07820716250000714
1364,19.0,0.0029274000000043543,77.0,0.07821817500001771
1365,80.0,0.07430029166667396,81.0,0.0783576666666761
1366,20.0,0.0009794708333288327,77.0,0.0783576666666761
1367,77.0,0.07933713750000493,81.0,0.07864733333332197
1368,19.0,0.0019661833333373124,78.0,0.07864733333332197
1369,79.0,0.07569805833333021,81.0,0.07879260833334456
1370,18.0,0.002949274999991758,78.0,0.07880378333334193
1371,71.0,0.0758433333333528,82.0,0.07894533333333698
1372,19.0,0.003947266666671112,79.0,0.07895635833332904
1373,80.0,0.07499806666666586,82.0,0.07923565833331736
1374,20.0,0.003958291666663172,79.0,0.07923933333333366
1375,77.0,0.07527736666665419,83.0,0.07938371458331517
1376,19.0,0.003961966666679473,79.0,0.07939852291664806
1377,18.0,0.0754217479166357,80.0,0.07953550000001997
1378,79.0,0.0009941937500173026,83.0,0.07953549999999154
1379,71.0,0.07754711249998536,84.0,0.07982020000000034
1380,80.0,0.07982020000000034,97.0,0.08043492499999161
1381,12.0,0.0019956874999991214,119.0,0.2413515000000075
1382,75.0,0.08346739374999856,81.0,0.08045050000001197
1383,79.0,0.0754223437500059,90.0,0.08045049999998355
1384,72.0,0.08547865624998963,73.0,0.08045050000001197
1385,78.0,0.07743360624999696,93.0,0.08045050000001197
1386,75.0,0.08346739374999856,73.0,0.0803394562499875
1387,43.0,0.07743360624999696,92.0,0.34870200000000295
1388,72.0,0.07652071666666416,67.0,0.07748933333334662
1389,76.0,0.08039518333333717,79.0,0.0774893333333182
1390,72.0,0.07845795000000066,67.0,0.0774893333333182
1391,75.0,0.07458348333332765,78.0,0.07748933333334662
1392,43.0,0.03874466666667331,86.0,0.11623399999999151
1393,67.0,0.03874466666667331,67.0,0.0774893333333182
1394,43.0,0.0774893333333182,92.0,0.47014599999999973
1395,74.0,0.0019589416666576653,79.0,0.0783576666666761
1396,67.0,0.0754192541666896,73.0,0.07835766666664767
1397,73.0,0.0793371374999765,79.0,0.0783576666666761
1398,63.0,0.07933713750000493,73.0,0.0783576666666761
1399,72.0,0.07933713750000493,79.0,0.0783576666666761
1400,67.0,0.0783576666666761,73.0,0.07830116666664821
1401,44.0,0.07639872499999001,97.0,0.4565859999999873
1402,71.0,0.0019024416666582056,79.0,0.07609766666666928
1403,63.0,0.07419522500001108,67.0,0.07609766666666928
1404,70.0,0.07800010833332749,71.0,0.07609766666666928
1405,63.0,0.07514644583332597,67.0,0.07609766666666928
1406,69.0,0.07419522500001108,71.0,0.07609766666666928
1407,60.0,0.0770488875000126,67.0,0.07609766666664086
1408,68.0,0.07419522499998266,79.0,0.07858359166667128
1409,43.0,0.0019024416666582056,92.0,0.47188399999998865
1410,63.0,0.08159660833334215,73.0,0.07864733333332197
1411,67.0,0.07766424166666752,79.0,0.07864733333332197
1412,60.0,0.07668114999998465,73.0,0.07864733333335039
1413,66.0,0.07766424166666752,79.0,0.07864733333335039
1414,63.0,0.07864733333335039,73.0,0.07864733333332197
1415,65.0,0.07864733333332197,79.0,0.08291283958331519
1416,39.0,0.0009830916666544454,86.0,0.4978010000000097
1417,60.0,0.08089266249999127,67.0,0.08296683333333021
1418,64.0,0.08815226041667756,71.0,0.08296683333333021
1419,60.0,0.07881849166665233,67.0,0.08296683333335864
1420,63.0,0.08400391874999968,71.0,0.08296683333335864
1421,55.0,0.0808926625000197,67.0,0.08296683333333021
1422,43.0,0.08504100416666915,86.0,0.9198920000000044
1423,62.0,0.0028746625000053427,71.0,0.07665766666664808
1424,55.0,0.0747412249999968,67.0,0.0766576666666765
1425,61.0,0.07761588750000215,71.0,0.0766576666666765
1426,51.0,0.07378300416667116,67.0,0.07665766666664808
1427,60.0,0.07761588750000215,71.0,0.07665766666664808
1428,55.0,0.07857410833332779,67.0,0.07665766666664808
1429,59.0,0.0747412249999968,71.0,0.0766576666666765
1430,51.0,0.07761588750000215,67.0,0.0766576666666765
1431,58.0,0.07761588750000215,71.0,0.07665766666664808
1432,51.0,0.07378300416667116,67.0,0.07665766666664808
1433,57.0,0.07665766666664808,71.0,0.0766576666666765
1434,48.0,0.08049055000000749,67.0,0.07674345416666029
1435,12.0,0.07378300416667116,72.0,0.23683600000001093
1436,56.0,0.001973633333335556,53.0,0.07894533333333698
1437,51.0,0.07598488333331943,49.0,0.07894533333333698
1438,55.0,0.08289260000000809,53.0,0.07894533333333698
1439,48.0,0.0740112500000123,49.0,0.07894533333333698
1440,54.0,0.08289259999997967,53.0,0.07894533333333698
1441,51.0,0.07499806666666586,49.0,0.07894533333333698
1442,53.0,0.07894533333333698,53.0,0.07752573333334567
1443,31.0,0.001973633333335556,69.0,0.34870200000000295
1444,48.0,0.07555210000001011,49.0,0.0774893333333182
1445,52.0,0.08039518333333717,53.0,0.0774893333333182
1446,48.0,0.0774893333333182,49.0,0.07748933333334662
1447,51.0,0.07748933333334662,53.0,0.0774893333333182
1448,57.0,0.0029825812499950644,51.0,0.07953549999999154
1449,50.0,0.07456453125001872,51.0,0.07953549999999154
1450,47.0,0.08251808124998661,51.0,0.07953549999999154
1451,42.0,0.07655291874999648,51.0,0.07953549999999154
1452,45.0,0.08052969375000885,51.0,0.07953549999999154
1453,38.0,0.07854130625000266,51.0,0.07953549999999154
1454,48.0,0.07953549999999154,51.0,0.07953549999999154
1455,31.0,0.0019883875000061835,77.0,0.23860650000000305
1456,43.0,0.08152388749999773,51.0,0.07953549999999154
1457,47.0,0.07953549999999154,51.0,0.07953549999999154
1458,50.0,0.07754711250001378,51.0,0.07953549999999154
1459,60.0,0.07953549999999154,51.0,0.07953549999999154
1460,55.0,0.08052969375000885,51.0,0.07953549999999154
1461,47.0,0.07854130625000266,67.0,0.1590709999999831
1462,62.0,0.08052969374998042,57.0,0.07953550000001997
1463,72.0,0.07655291874999648,57.0,0.07953550000001997
1464,46.0,0.0019883875000061835,58.0,0.1590710000000115
1465,67.0,0.08152388749999773,57.0,0.07953550000001997
1466,47.0,0.07754711250001378,63.0,0.1590709999999831
1467,62.0,0.08251808124998661,57.0,0.07953550000001997
1468,79.0,0.07655291874999648,76.0,0.23860650000000305
1469,12.0,0.9544260000000122,99.0,0.2413515000000075
1470,80.0,0.001005631249995531,99.0,0.08045050000001197
1471,75.0,0.08246176250000303,67.0,0.08045050000001197
1472,79.0,0.07743360624999696,89.0,0.08045050000001197
1473,72.0,0.08246176250000303,67.0,0.08045050000001197
1474,78.0,0.07944486874998802,82.0,0.08045050000001197
1475,75.0,0.07944486875001644,67.0,0.08045049999998355
1476,43.0,0.08045049999998355,84.0,0.34870200000000295
1477,77.0,0.0019372333333365077,79.0,0.0774893333333182
1478,72.0,0.07845795000000066,62.0,0.0774893333333182
1479,76.0,0.07264624999999114,77.0,0.07748933333334662
1480,72.0,0.08136379999999122,62.0,0.07748933333334662
1481,75.0,0.07555210000001011,77.0,0.07748933333334662
1482,43.0,0.03874466666667331,79.0,0.11623399999999151
1483,67.0,0.037776049999990846,62.0,0.07748933333334662
1484,43.0,0.07845795000000066,84.0,0.47014599999999973
1485,74.0,0.0019589416666576653,74.0,0.0783576666666761
1486,67.0,0.0783576666666761,67.0,0.0783576666666761
1487,73.0,0.07541925416666118,75.0,0.0783576666666761
1488,63.0,0.08031660833333376,67.0,0.0783576666666761
1489,72.0,0.07639872500001843,75.0,0.07835766666664767
1490,67.0,0.07737819583331884,67.0,0.0783576666666761
1491,44.0,0.08031660833333376,88.0,0.4565859999999873
1492,71.0,0.0019024416666582056,73.0,0.07609766666666928
1493,63.0,0.07419522500001108,62.0,0.07609766666666928
1494,70.0,0.07514644583332597,70.0,0.07609766666666928
1495,63.0,0.07609766666666928,62.0,0.07609766666666928
1496,69.0,0.07800010833332749,67.0,0.07609766666666928
1497,60.0,0.07419522500001108,62.0,0.07609766666666928
1498,68.0,0.07609766666666928,70.0,0.07861546249998241
1499,43.0,0.0009512208333148919,84.0,0.47188399999998865
1500,63.0,0.07766424166666752,67.0,0.07864733333332197
1501,67.0,0.08061351666665928,70.0,0.07864733333335039
1502,60.0,0.07963042500000483,67.0,0.07864733333332197
1503,66.0,0.07864733333332197,70.0,0.07864733333335039
1504,63.0,0.07766424166666752,67.0,0.07870132708333699
1505,65.0,0.07569805833335863,70.0,0.08285884583330017
1506,39.0,0.0019661833333088907,79.0,0.4978010000000097
1507,60.0,0.08192974791666074,62.0,0.08296683333333021
1508,64.0,0.0871151750000081,67.0,0.08296683333333021
1509,60.0,0.07881849166665233,62.0,0.08296683333335864
1510,63.0,0.08296683333335864,67.0,0.08296683333333021
1511,55.0,0.08192974791666074,62.0,0.08296683333333021
1512,43.0,0.08504100416666915,79.0,0.9198920000000044
1513,55.0,0.07569944583332244,62.0,0.0766576666666765
1514,61.0,0.08049055000000749,67.0,0.0766576666666765
1515,51.0,0.07282478333334552,62.0,0.07665766666664808
1516,60.0,0.07665766666664808,67.0,0.0766576666666765
1517,55.0,0.07857410833335621,62.0,0.07665766666664808
1518,59.0,0.07761588749997372,67.0,0.0766576666666765
1519,51.0,0.07569944583335086,62.0,0.0766576666666765
1520,58.0,0.0747412249999968,67.0,0.0766576666666765
1521,51.0,0.07953232916665343,62.0,0.0766576666666765
1522,57.0,0.07474122500002522,67.0,0.07665766666664808
1523,48.0,0.07857410833332779,62.0,0.07671485833333236
1524,56.0,0.0728247833333171,53.0,0.07888814166668112
1525,10.0,0.0019164416666797024,69.0,0.23683600000001093
1526,51.0,0.08091896666667253,49.0,0.07894533333333698
1527,55.0,0.07795851666665499,53.0,0.07894533333333698
1528,48.0,0.07598488333334785,49.0,0.07894533333333698
1529,54.0,0.08289259999997967,53.0,0.07894533333333698
1530,51.0,0.07697170000000142,49.0,0.07894533333333698
1531,31.0,0.07894533333333698,69.0,0.34870200000000295
1532,53.0,0.000968616666654043,53.0,0.07748933333334662
1533,48.0,0.07942656666668313,49.0,0.0774893333333182
1534,52.0,0.07555210000001011,53.0,0.0774893333333182
1535,48.0,0.07652071666666416,49.0,0.0774893333333182
1536,51.0,0.07555209999998169,53.0,0.07748933333334662
1537,31.0,0.04068190000000982,61.0,0.11623399999999151
1538,43.0,0.04068190000000982,49.0,0.07752573333331725
1539,31.0,0.07555209999998169,70.0,1.4090199999999697
1540,50.0,0.0009868166666535672,53.0,0.07894533333333698
1541,43.0,0.07795851666668341,49.0,0.07894533333333698
1542,49.0,0.07993214999999054,51.0,0.07894533333333698
1543,39.0,0.07993215000001896,48.0,0.07894533333330855
1544,48.0,0.07499806666666586,50.0,0.07894533333330855
1545,43.0,0.07894533333330855,45.0,0.07894533333333698
1546,32.0,0.08091896666667253,62.0,0.46346399999998766
1547,47.0,0.0009655499999894346,49.0,0.07724400000000742
1548,39.0,0.07820954999999685,44.0,0.07724400000000742
1549,46.0,0.07434735000001069,47.0,0.07724400000000742
1550,39.0,0.08014065000000414,44.0,0.07724400000000742
1551,45.0,0.07820954999999685,45.0,0.07724400000000742
1552,36.0,0.07627844999998956,42.0,0.07727908333333744
1553,44.0,0.07434735000001069,45.0,0.07862979166665696
1554,31.0,0.0009655499999894346,58.0,0.47188399999998865
1555,39.0,0.07963042500000483,42.0,0.07864733333332197
1556,43.0,0.07766424166666752,45.0,0.07864733333332197
1557,36.0,0.07668114999998465,42.0,0.07864733333335039
1558,42.0,0.0806135166666877,44.0,0.07864733333332197
1559,39.0,0.07668114999998465,40.0,0.07864733333335039
1560,27.0,0.08061351666665928,58.0,0.492005000000006
1561,41.0,0.002050020833337385,42.0,0.08200083333332486
1562,36.0,0.0779007916666501,39.0,0.08200083333335328
1563,40.0,0.08610087499999963,42.0,0.08200083333335328
1564,36.0,0.08200083333335328,39.0,0.08200083333332486
1565,39.0,0.08200083333332486,40.0,0.08200083333332486
1566,31.0,0.08302584374999356,38.0,0.0818425020833331
1567,20.0,0.07892580208334721,58.0,0.46667199999998843
1568,38.0,0.001944466666657263,40.0,0.07777866666668842
1569,32.0,0.07680643333333137,39.0,0.07777866666668842
1570,36.0,0.07583420000000274,45.0,0.07777866666668842
1571,27.0,0.07680643333333137,42.0,0.07777866666668842
1572,35.0,0.07875090000001705,47.0,0.07777866666666
1573,32.0,0.08069536666667432,45.0,0.07777866666666
1574,19.0,0.07583419999997432,58.0,0.46667200000001685
1575,36.0,0.002916700000014316,50.0,0.07777866666666
1576,27.0,0.0748619666666741,48.0,0.07777866666666
1577,38.0,0.07680643333333137,53.0,0.07777866666666
1578,31.0,0.0806953666666459,50.0,0.07777866666668842
1579,39.0,0.07680643333335979,56.0,0.07777866666666
1580,27.0,0.07680643333333137,53.0,0.07777866666666
1581,17.0,0.07777866666666,63.0,0.23683600000001093
1582,32.0,0.0819057833333261,57.0,0.07894533333333698
1583,38.0,0.07598488333334785,57.0,0.07499806666666586
1584,38.0,0.0819057833333261,57.0,0.07894533333333698
1585,51.0,0.07499806666666586,57.0,0.07894533333333698
1586,44.0,0.08091896666667253,57.0,0.0789236937499993
1587,36.0,0.07795851666665499,63.0,0.15442833333332828
1588,50.0,0.07721416666666414,57.0,0.07721416666666414
1589,28.0,0.07721416666666414,62.0,0.15442833333332828
1590,63.0,0.002895531250004524,58.0,0.07721416666666414
1591,56.0,0.07431863541665962,59.0,0.07721416666666414
1592,29.0,0.07721416666666414,63.0,0.1544283333333567
1593,62.0,0.07721416666666414,60.0,0.07721416666669256
1594,30.0,0.07721416666669256,69.0,0.46328499999998485
1595,75.0,0.0009651770833158935,61.0,0.07721416666666414
1596,69.0,0.07817934375000846,61.0,0.07721416666666414
1597,74.0,0.0733534583333153,60.0,0.07721416666669256
1598,62.0,0.08010969791666867,59.0,0.07721416666669256
1599,63.0,0.07528381250000393,59.0,0.07721416666666414
1600,57.0,0.07721416666666414,58.0,0.07721416666666414
1601,18.0,0.07817934375000846,72.0,0.4789649999999881
1602,62.0,0.0019956874999991214,56.0,0.07982749999999328
1603,50.0,0.08082534375000705,56.0,0.07982749999999328
1604,51.0,0.07882965625000793,56.0,0.07982749999999328
1605,45.0,0.08082534374997863,56.0,0.07982749999999328
1606,50.0,0.07783181249999416,56.0,0.0798275000000217
1607,38.0,0.08182318750002082,56.0,0.07978324374997214
1608,19.0,0.07683396874998039,73.0,0.23594199999999432
1609,53.0,0.002949274999991758,59.0,0.07864733333335039
1610,46.0,0.07668115000001308,59.0,0.07864733333332197
1611,52.0,0.07766424166666752,60.0,0.0737318749999929
1612,52.0,0.07864733333332197,61.0,0.07864733333335039
1613,65.0,0.07668115000001308,61.0,0.07864733333332197
1614,56.0,0.08257969999999659,64.0,0.07861150416664486
1615,37.0,0.07668114999998465,79.0,0.15442833333332828
1616,64.0,0.07721416666666414,66.0,0.07721416666666414
1617,30.0,0.07721416666666414,79.0,0.15442833333332828
1618,77.0,0.0009651770833443152,67.0,0.07721416666666414
1619,70.0,0.07817934374998003,68.0,0.07721416666669256
1620,31.0,0.07528381250000393,79.0,0.1544283333333567
1621,76.0,0.0019303541666886304,68.0,0.07721416666666414
1622,64.0,0.07817934374998003,69.0,0.07721416666666414
1623,78.0,0.07238828124999941,69.0,0.07721416666666414
1624,32.0,0.0019303541666886304,81.0,0.46328499999998485
1625,73.0,0.07721416666666414,69.0,0.07721416666666414
1626,77.0,0.07817934374998003,70.0,0.07721416666666414
1627,65.0,0.07624898958334825,71.0,0.07721416666666414
1628,66.0,0.07721416666666414,71.0,0.07721416666666414
1629,61.0,0.07914452083332435,72.0,0.07727950000000305
1630,32.0,0.07528381250000393,82.0,0.4789649999999881
1631,65.0,0.0009978437500137716,73.0,0.07982749999999328
1632,53.0,0.07882965624997951,73.0,0.07982749999999328
1633,54.0,0.08082534375000705,75.0,0.07982749999999328
1634,49.0,0.07882965625000793,78.0,0.07982749999999328
1635,53.0,0.0818231874999924,78.0,0.07982749999999328
1636,41.0,0.07583612499999504,79.0,0.07982749999999328
1637,55.0,0.07982749999999328,78.0,0.08043492499999161
1638,20.0,0.0019956874999991214,96.0,0.2413515000000075
1639,48.0,0.08346739374999856,72.0,0.08045050000001197
1640,54.0,0.0754223437500059,78.0,0.08045049999998355
1641,42.0,0.08246176250000303,72.0,0.08045049999998355
1642,55.0,0.07843923749999249,78.0,0.08045050000001197
1643,48.0,0.08246176250000303,72.0,0.08045049999998355
1644,44.0,0.08045049999998355,89.0,0.3526094999999998
1645,54.0,0.0783576666666761,75.0,0.07835766666664767
1646,67.0,0.07835766666664767,86.0,0.0783576666666761
1647,60.0,0.07737819583334726,79.0,0.0783576666666761
1648,66.0,0.07933713750000493,86.0,0.07835766666664767
1649,32.0,0.03917883333332384,89.0,0.11753649999999993
1650,66.0,0.03917883333332384,80.0,0.0783576666666761
1651,44.0,0.0783576666666761,89.0,0.4772130000000061
1652,79.0,0.0029825812499950644,86.0,0.07953549999999154
1653,72.0,0.07953549999999154,80.0,0.07953550000001997
1654,78.0,0.0765529187500249,86.0,0.07953549999999154
1655,66.0,0.07953549999999154,81.0,0.07953549999999154
1656,67.0,0.07854130625000266,86.0,0.07953549999999154
1657,60.0,0.08351227500000391,81.0,0.07946961874998237
1658,46.0,0.07655291874999648,90.0,0.46667199999998843
1659,66.0,0.001944466666657263,86.0,0.07777866666668842
1660,54.0,0.07583420000000274,80.0,0.07777866666666
1661,67.0,0.07972313333334569,86.0,0.07777866666666
1662,60.0,0.07680643333333137,86.0,0.07777866666666
1663,66.0,0.07680643333333137,86.0,0.07097303333333116
1664,66.0,0.07777866666666,80.0,0.07777866666666
1665,44.0,0.07777866666666,94.0,0.47188399999998865
1666,79.0,0.0019661833333373124,86.0,0.07864733333332197
1667,72.0,0.07569805833333021,80.0,0.07864733333332197
1668,78.0,0.07766424166666752,86.0,0.07864733333332197
1669,66.0,0.08159660833334215,86.0,0.07864733333332197
1670,67.0,0.07963042499997641,86.0,0.07864733333335039
1671,60.0,0.07766424166666752,80.0,0.07870132708333699
1672,66.0,0.07569805833335863,82.0,0.08285884583330017
1673,39.0,0.0019661833333088907,90.0,0.4978010000000097
1674,54.0,0.08400391874999968,78.0,0.08296683333333021
1675,67.0,0.08192974791666074,82.0,0.08296683333333021
1676,60.0,0.08607808958333862,82.0,0.08296683333333021
1677,66.0,0.0798555770833218,82.0,0.07674432083334182
1678,66.0,0.08296683333335864,78.0,0.08296683333333021
1679,79.0,0.08192974791666074,80.0,0.07673653124999191
1680,32.0,0.0010370854166694699,92.0,0.9198920000000044
1681,72.0,0.0747412249999968,68.0,0.0766576666666765
1682,78.0,0.07761588750000215,70.0,0.0766576666666765
1683,66.0,0.07761588750000215,62.0,0.0766576666666765
1684,79.0,0.07761588750000215,66.0,0.0766576666666765
1685,72.0,0.07378300416667116,60.0,0.07665766666664808
1686,78.0,0.07857410833332779,62.0,0.0766576666666765
1687,66.0,0.0747412249999968,58.0,0.0766576666666765
1688,79.0,0.08144877083333313,59.0,0.0766576666666765
1689,72.0,0.07569944583332244,53.0,0.0766576666666765
1690,78.0,0.07282478333334552,55.0,0.0766576666666765
1691,66.0,0.0766576666666765,49.0,0.07665766666664808
1692,20.0,0.07665766666664808,58.0,0.0766576666666765
1693,79.0,0.003832883333330983,60.0,0.0766576666666765
1694,26.0,0.07282478333334552,45.0,0.0766576666666765
1695,74.0,0.004791104166656623,55.0,0.0766576666666765
1696,24.0,0.0747412249999968,53.0,0.0766576666666765
1697,78.0,0.000958220833354062,61.0,0.07665766666664808
1698,30.0,0.07378300416667116,46.0,0.07665766666664808
1699,72.0,0.002874662499976921,56.0,0.0766576666666765
1700,79.0,0.07282478333334552,62.0,0.0766576666666765
1701,24.0,0.003832883333330983,55.0,0.0766576666666765
1702,74.0,0.0766576666666765,56.0,0.07665766666664808
1703,78.0,0.07569944583332244,63.0,0.0766576666666765
1704,26.0,0.0009582208333256403,56.0,0.0766576666666765
1705,72.0,0.07569944583335086,57.0,0.07665766666664808
1706,26.0,0.07378300416667116,56.0,0.07665766666664808
1707,79.0,0.004791104166656623,64.0,0.0766576666666765
1708,74.0,0.07186656249999146,60.0,0.0766576666666765
1709,32.0,0.0009582208333256403,50.0,0.0766576666666765
1710,78.0,0.08049055000000749,66.0,0.0766576666666765
1711,36.0,0.07378300416667116,50.0,0.0766576666666765
1712,72.0,0.0028746625000053427,60.0,0.0766576666666765
1713,79.0,0.0747412249999968,67.0,0.0766576666666765
1714,30.0,0.0009582208333256403,58.0,0.0766576666666765
1715,74.0,0.07761588750000215,60.0,0.0766576666666765
1716,78.0,0.0747412249999968,68.0,0.0766576666666765
1717,32.0,0.0019164416666797024,58.0,0.07665766666664808
1718,72.0,0.07186656249999146,62.0,0.0766576666666765
1719,38.0,0.0019164416666797024,51.0,0.07665766666664808
1720,32.0,0.07665766666664808,60.0,0.0766576666666765
1721,79.0,0.0028746625000053427,69.0,0.0766576666666765
1722,74.0,0.0747412249999968,63.0,0.0766576666666765
1723,38.0,0.000958220833354062,51.0,0.07665766666664808
1724,78.0,0.07378300416664274,70.0,0.0766576666666765
1725,36.0,0.0028746625000053427,61.0,0.0766576666666765
1726,72.0,0.07378300416667116,64.0,0.0766576666666765
1727,42.0,0.0009582208333256403,52.0,0.0766576666666765
1728,79.0,0.07761588750000215,72.0,0.0766576666666765
1729,36.0,0.0009582208333256403,61.0,0.0766576666666765
1730,42.0,0.07378300416667116,55.0,0.0766576666666765
1731,74.0,0.003832883333330983,66.0,0.0766576666666765
1732,38.0,0.07378300416667116,62.0,0.0766576666666765
1733,78.0,0.0019164416666797024,73.0,0.07665766666664808
1734,44.0,0.0728247833333171,53.0,0.0766576666666765
1735,67.0,0.03832883333333825,82.0,0.0766576666666765
1736,69.0,0.0747412249999968,93.0,0.0766576666666765
1737,12.0,0.003832883333330983,88.0,0.11498650000001476
1738,63.0,0.07282478333334552,83.0,0.0766576666666765
1739,19.0,0.042161716666669236,77.0,0.11498649999998634
1740,68.0,0.03832883333333825,93.0,0.07665766666664808
1741,63.0,0.0728247833333171,83.0,0.0766576666666765
1742,27.0,0.004791104166685045,77.0,0.11498649999998634
1743,67.0,0.0728247833333171,93.0,0.0766576666666765
1744,19.0,0.042161716666669236,77.0,0.11498650000001476
1745,60.0,0.03449595000000727,83.0,0.0766576666666765
1746,12.0,0.07569944583332244,97.0,0.11498650000001476
1747,63.0,0.07953232916668185,82.0,0.07665766666664808
1748,19.0,0.03832883333333825,77.0,0.11498649999998634
1749,65.0,0.03641239166665855,93.0,0.0766576666666765
1750,60.0,0.07953232916665343,82.0,0.0766576666666765
1751,27.0,0.000958220833354062,77.0,0.11498649999998634
1752,64.0,0.0747412249999968,93.0,0.07665766666664808
1753,19.0,0.03832883333333825,77.0,0.11498649999998634
1754,60.0,0.03832883333330983,82.0,0.0766576666666765
1755,12.0,0.0766576666666765,89.0,0.11498650000001476
1756,63.0,0.0019164416666797024,93.0,0.07665766666664808
1757,55.0,0.0747412249999968,82.0,0.07665766666664808
1758,19.0,0.03832883333333825,77.0,0.11498649999998634
1759,62.0,0.03928705416666389,93.0,0.07665766666664808
1760,27.0,0.07378300416664274,77.0,0.11498650000001476
1761,55.0,0.0019164416666797024,82.0,0.0766576666666765
1762,61.0,0.07378300416667116,93.0,0.0766576666666765
1763,19.0,0.042161716666669236,77.0,0.11498649999998634
1764,51.0,0.03545417083333291,82.0,0.07665766666664808
1765,60.0,0.07569944583332244,93.0,0.0766576666666765
1766,12.0,0.004791104166685045,101.0,0.11498649999998634
1767,55.0,0.07569944583332244,81.0,0.0766576666666765
1768,19.0,0.03928705416666389,77.0,0.11498649999998634
1769,59.0,0.03832883333333825,93.0,0.07665766666664808
1770,27.0,0.07186656249999146,77.0,0.11498650000001476
1771,51.0,0.0028746625000053427,82.0,0.0766576666666765
1772,58.0,0.0747412249999968,93.0,0.0766576666666765
1773,19.0,0.03928705416666389,77.0,0.11498650000001476
1774,55.0,0.03832883333333825,82.0,0.0766576666666765
1775,57.0,0.0747412249999968,93.0,0.0766576666666765
1776,7.0,0.0019164416666797024,101.0,0.11498649999998634
1777,51.0,0.07761588750000215,82.0,0.07665766666664808
1778,19.0,0.03737061249998419,77.0,0.11498650000001476
1779,56.0,0.03737061250001261,93.0,0.07665766666664808
1780,27.0,0.07569944583332244,77.0,0.11498650000001476
1781,51.0,0.0028746625000053427,82.0,0.0766576666666765
1782,55.0,0.07569944583332244,93.0,0.0766576666666765
1783,19.0,0.03737061250001261,77.0,0.11498649999998634
1784,48.0,0.04024527499998953,82.0,0.0766576666666765
1785,12.0,0.07761588750000215,96.0,0.11498650000001476
1786,51.0,0.0766576666666765,82.0,0.07665766666664808
1787,19.0,0.03449594999997885,77.0,0.11498650000001476
1788,53.0,0.042161716666669236,93.0,0.0766576666666765
1789,48.0,0.07569944583335086,82.0,0.07665766666664808
1790,27.0,0.0019164416666512807,77.0,0.11498650000001476
1791,52.0,0.07186656250001988,93.0,0.07665766666664808
1792,19.0,0.04024527499998953,77.0,0.11498649999998634
1793,48.0,0.041203495833343595,82.0,0.07665766666664808
1794,27.0,0.0747412249999968,83.0,0.11498649999998634
1795,51.0,0.0009582208333256403,93.0,0.0766576666666765
1796,43.0,0.07282478333334552,80.0,0.07665766666664808
1797,19.0,0.04024527499998953,73.0,0.11498649999998634
1798,50.0,0.03737061250001261,92.0,0.07665766666664808
1799,43.0,0.07761588749997372,79.0,0.0766576666666765
1800,27.0,0.0019164416666797024,71.0,0.11498649999998634
1801,49.0,0.07282478333334552,90.0,0.07665766666664808
1802,19.0,0.041203495833315174,70.0,0.11498650000001476
1803,39.0,0.040245275000017955,79.0,0.07665766666664808
1804,48.0,0.07378300416664274,89.0,0.0766576666666765
1805,12.0,0.000958220833354062,78.0,0.11498649999998634
1806,43.0,0.07761588750000215,77.0,0.07665766666664808
1807,19.0,0.03641239166665855,68.0,0.11498649999998634
1808,47.0,0.03928705416666389,88.0,0.0766576666666765
1809,39.0,0.07761588750000215,77.0,0.11498649999998634
1810,46.0,0.07569944583332244,86.0,0.0766576666666765
1811,19.0,0.040245275000017955,66.0,0.11498649999998634
1812,43.0,0.03832883333330983,75.0,0.0766576666666765
1813,45.0,0.07282478333334552,85.0,0.0766576666666765
1814,12.0,0.0019164416666797024,72.0,0.11498649999998634
1815,39.0,0.07857410833332779,74.0,0.07665766666664808
1816,19.0,0.03737061249998419,63.0,0.11498650000001476
1817,44.0,0.03928705416666389,84.0,0.0766576666666765
1818,39.0,0.07378300416667116,73.0,0.0766576666666765
1819,27.0,0.0019164416666797024,62.0,0.11498649999998634
1820,43.0,0.0728247833333171,81.0,0.0766576666666765
1821,19.0,0.0431199375000233,61.0,0.11498649999998634
1822,36.0,0.03353772916665321,72.0,0.0766576666666765
1823,12.0,0.07761588750000215,69.0,0.11498649999998634
1824,42.0,0.003832883333330983,79.0,0.0766576666666765
1825,39.0,0.0766576666666765,70.0,0.07665766666664808
1826,19.0,0.03641239166665855,60.0,0.11498649999998634
1827,41.0,0.03832883333333825,78.0,0.07665766666664808
1828,36.0,0.07378300416667116,68.0,0.07665766666664808
1829,27.0,0.004791104166656623,59.0,0.11498649999998634
1830,40.0,0.07186656249999146,75.0,0.0766576666666765
1831,19.0,0.042161716666669236,58.0,0.11498650000001476
1832,36.0,0.03545417083333291,67.0,0.0766576666666765
1833,39.0,0.07761588750000215,74.0,0.11498650000001476
1834,31.0,0.0766576666666765,63.0,0.07665766666664808
1835,19.0,0.04024527499998953,52.0,0.11498650000001476
1836,38.0,0.03832883333333825,72.0,0.0766576666666765
1837,27.0,0.07569944583332244,51.0,0.11498650000001476
1838,31.0,0.000958220833354062,60.0,0.07665766666664808
1839,37.0,0.07569944583332244,68.0,0.0766576666666765
1840,19.0,0.03737061250001261,50.0,0.11498649999998634
1841,27.0,0.041203495833315174,58.0,0.07669970416665706
1842,36.0,0.0747552374999998,100.0,0.07777866666666
1843,24.0,0.001944466666657263,89.0,0.10889013333334674
1844,31.0,0.07777866666668842,89.0,0.07777866666666
1845,35.0,0.07388973333331705,100.0,0.07777866666668842
1846,23.0,0.0019444666666856847,84.0,0.10889013333331832
1847,27.0,0.07583420000000274,91.0,0.07777866666666
1848,34.0,0.07777866666666,100.0,0.10889013333331832
1849,31.0,0.07875089999998863,89.0,0.07777866666666
1850,33.0,0.07680643333333137,100.0,0.07777866666666
1851,21.0,0.0019444666666856847,89.0,0.10889013333331832
1852,27.0,0.07583419999997432,90.0,0.0779177666666726
1853,20.0,0.08084516666667696,83.0,0.10956124166668246
1854,32.0,0.0009757999999919775,100.0,0.07822184583335456
1855,27.0,0.07724237500002573,90.0,0.07850974166666447
1856,19.0,0.07752665000001002,84.0,0.11022919166666156
1857,31.0,0.0019661833333088907,100.0,0.07865850833334775
1858,24.0,0.07569805833335863,90.0,0.07894533333333698
1859,30.0,0.07894533333333698,100.0,0.07923933333333366
1860,18.0,0.0029714750000096046,89.0,0.11106463958333279
1861,27.0,0.07925043958331912,88.0,0.07953549999999154
1862,29.0,0.07456453125001872,100.0,0.07967419999999947
1863,17.0,0.0029825812499950644,84.0,0.11161615000000324
1864,24.0,0.08068299375000265,88.0,0.07998876249999398
1865,28.0,0.07698371249998104,100.0,0.11246883541667785
1866,24.0,0.0822998979166698,88.0,0.08045415416668789
1867,27.0,0.07843923750002091,100.0,0.08073917916667028
1868,15.0,0.002014916666666977,89.0,0.11317224166668893
1869,19.0,0.08176013541668681,88.0,0.08107125416665895
1870,26.0,0.0780236187499952,100.0,0.11391925624999999
1871,19.0,0.0813697895833343,88.0,0.08152267916665323
1872,25.0,0.08560664583333732,100.0,0.11465247291667424
1873,19.0,0.07877710833332685,88.0,0.08216283333334218
1874,24.0,0.08216283333334218,121.0,0.4808079999999961
1875,43.0,0.4808079999999961,101.0,0.36060599999999
1876,48.0,0.36060599999999,96.0,0.12020200000000614
1877,48.0,0.12020200000000614,101.0,0.4808079999999961
1878,48.0,0.4808079999999961,97.0,0.48080800000002455
1879,48.0,0.48080800000002455,101.0,0.9616159999999923
1880,48.0,0.9616159999999923,99.0,0.9616159999999923
1881,43.0,0.9616159999999923,101.0,1.8085841041666697
1882,24.0,0.7044434395833434,70.0,0.09240632291664497
1883,12.0,0.0007345604166459907,68.0,0.09230893333335644
1884,26.0,0.07573635833333014,72.0,0.09144184583334436
1885,15.0,0.07692301041669225,69.0,0.09056240208334998
1886,27.0,0.0018963770833408944,72.0,0.0905412124999998
1887,17.0,0.07491465000001085,69.0,0.08917649999997934
1888,29.0,0.0006250625000063792,73.0,0.08915239999996061
1889,31.0,0.07412833749995684,74.0,0.08653860000001146
1890,19.0,0.0006009625000160668,70.0,0.08653859999998303
1891,21.0,0.07091357499999162,72.0,0.08639755000001514
1892,33.0,0.0006009625000160668,74.0,0.08639619375000507
1893,23.0,0.07140603749999741,72.0,0.0862031166666668
1894,35.0,0.001798818750017972,74.0,0.0861990729166564
1895,24.0,0.0688495812499923,73.0,0.08600937500000327
1896,36.0,0.002991291666660345,74.0,0.08600252083331839
1897,38.0,0.07048344583333233,75.0,0.08581136250001009
1898,26.0,0.0005968874999950913,73.0,0.08581002500000068
1899,27.0,0.07032572500000356,74.0,0.08561793333333867
1900,39.0,0.0005955500000141001,78.0,0.08561657499998887
1901,29.0,0.0701675916666602,74.0,0.08542991458332949
1902,41.0,0.001188383333328602,78.0,0.08542731874999276
1903,43.0,0.06941918749998877,79.0,0.08523942499999748
1904,31.0,0.002964468750008109,74.0,0.08523269583332649
1905,33.0,0.06985244999998486,75.0,0.08509758750000174
1906,45.0,0.0005915479166844761,80.0,0.08509627499998373
1907,35.0,0.0703403895833219,75.0,0.08491075416668536
1908,47.0,0.0011804708333329472,80.0,0.08490819583334996
1909,48.0,0.06959533333335344,81.0,0.08471964791664277
1910,36.0,0.0011779124999975465,78.0,0.08471687708333775
1911,50.0,0.06826489374998346,81.0,0.08453210625000906
1912,38.0,0.0011751416666641035,78.0,0.08452962708332734
1913,51.0,0.06869868333333784,81.0,0.08435006666664435
1914,39.0,0.0005863312499911899,79.0,0.08434875000000375
1915,41.0,0.07030839999998761,80.0,0.08415941250001424
1916,53.0,0.002340058333345496,82.0,0.08415416249999907
1917,43.0,0.06781050416665835,80.0,0.08397435000000542
1918,55.0,0.001751106249997747,84.0,0.08397059999998646
1919,57.0,0.06766194166667105,84.0,0.08379249999998706
1920,45.0,0.0017473562500072148,81.0,0.08378859999999122
1921,59.0,0.06809749375000251,85.0,0.0836574374999941
1922,47.0,0.0017434562499829553,81.0,0.08365355624999893
1923,48.0,0.06973695625001142,81.0,0.08346803749998344
1924,60.0,0.0011597166666490466,85.0,0.08346551249999834
1925,62.0,0.06784342500000662,86.0,0.08328830000002085
1926,50.0,0.0011571916666639481,81.0,0.08328584166667952
1927,51.0,0.06827430833334347,82.0,0.08311015000001021
1928,63.0,0.0011547333333226106,88.0,0.08310759583335425
1929,65.0,0.0669745333333367,88.0,0.0829314958333498
1930,53.0,0.0017308229166985711,84.0,0.08292512916665373
1931,67.0,0.0679785708333327,89.0,0.08274666041663181
1932,69.0,0.0684047020833134,90.0,0.08257129583330425
1933,57.0,0.0011496374999921954,85.0,0.08256639999999038
1934,71.0,0.06768234166665366,90.0,0.08239617916666475
1935,59.0,0.0011471583333388935,85.0,0.08239125000000058
1936,72.0,0.06868449999998916,97.0,0.1521504166666432
1937,48.0,0.0,77.0,0.490954
1938,45.0,0.343859,68.0,0.29418999999999995
1939,52.0,0.14709499999999998,70.0,0.14709499999999998
1940,53.0,0.14709499999999998,71.0,0.28764600000000007
1941,55.0,0.14382300000000003,71.0,0.14382300000000003
1942,57.0,0.14382300000000003,72.0,0.3154945
1943,58.0,0.14859599999999995,73.0,0.08344924999999992
1944,57.0,0.08344924999999992,70.0,0.04172462500000007
1945,58.0,0.04172462500000007,68.0,0.04172462500000007
1946,57.0,0.04172462500000007,76.0,0.3024959999999999
1947,55.0,0.3024959999999999,74.0,0.29303999999999997
1948,53.0,0.1465200000000002,74.0,0.14651999999999976
1949,52.0,0.14651999999999976,73.0,0.29303999999999997
1950,50.0,0.1465200000000002,72.0,0.14651999999999976
1951,48.0,0.14651999999999976,74.0,0.1438229999999998
1952,53.0,0.1438229999999998,70.0,0.14382300000000026
1953,53.0,0.14382300000000026,74.0,0.3098369999999999
1954,55.0,0.10327900000000012,70.0,0.10327899999999968
1955,53.0,0.10327899999999968,70.0,0.10327900000000012
1956,52.0,0.10327900000000012,70.0,0.3033830000000002
1957,50.0,0.1516915000000001,70.0,0.1516915000000001
1958,52.0,0.1516915000000001,73.0,1.0148129999999997
1959,48.0,0.31657299999999955,53.0,0.3318950000000003
1960,48.0,0.3318950000000003,68.0,0.3663449999999999
1961,48.0,0.3663449999999999,74.0,0.1470950000000002
1962,52.0,0.1470950000000002,70.0,0.1470949999999993
1963,53.0,0.1470949999999993,71.0,0.2876459999999996
1964,55.0,0.14382300000000026,71.0,0.14382299999999937
1965,57.0,0.14382299999999937,72.0,0.308179
1966,58.0,0.1485960000000004,73.0,0.0797914999999998
1967,57.0,0.0797914999999998,70.0,0.03989575000000034
1968,58.0,0.03989575000000034,68.0,0.03989574999999945
1969,57.0,0.03989574999999945,76.0,0.30249599999999965
1970,55.0,0.30249599999999965,74.0,0.2930400000000004
1971,53.0,0.14651999999999976,74.0,0.14652000000000065
1972,52.0,0.14652000000000065,73.0,0.2930399999999995
1973,50.0,0.14651999999999976,72.0,0.14651999999999976
1974,48.0,0.14651999999999976,74.0,0.14382300000000026
1975,52.0,0.14382300000000026,70.0,0.14382299999999937
1976,52.0,0.14382299999999937,74.0,0.3098369999999999
1977,53.0,0.10327899999999968,70.0,0.10327900000000056
1978,52.0,0.10327900000000056,70.0,0.10327899999999968
1979,50.0,0.10327899999999968,70.0,0.3033830000000002
1980,48.0,0.1516915000000001,70.0,0.1516915000000001
1981,53.0,0.1516915000000001,73.0,0.9836200000000002
1982,45.0,0.31316900000000025,53.0,0.31742700000000035
1983,45.0,0.31742700000000035,47.0,0.654107999999999
1984,48.0,0.35302399999999956,40.0,0.15054199999999973
1985,52.0,0.15054199999999973,39.0,0.15054199999999973
1986,53.0,0.15054199999999973,39.0,0.2943920000000002
1987,55.0,0.14719599999999922,39.0,0.147196000000001
1988,57.0,0.147196000000001,40.0,0.31993649999999896
1989,58.0,0.1520759999999992,40.0,0.08393024999999987
1990,57.0,0.08393024999999987,39.0,0.041965125000000825
1991,58.0,0.041965125000000825,37.0,0.04196512499999905
1992,57.0,0.04196512499999905,42.0,0.3095979999999994
1993,55.0,0.3095979999999994,40.0,0.299925
1994,53.0,0.1499625000000009,40.0,0.1499624999999991
1995,52.0,0.1499624999999991,40.0,0.299925
1996,50.0,0.1499625000000009,40.0,0.1499624999999991
1997,48.0,0.1499624999999991,40.0,0.14719599999999922
1998,53.0,0.14719599999999922,39.0,0.147196000000001
1999,53.0,0.147196000000001,40.0,0.3171079999999993
2000,55.0,0.10570266666666583,39.0,0.10570266666666761
2001,53.0,0.10570266666666761,39.0,0.10570266666666583
2002,52.0,0.10570266666666583,39.0,0.3104949999999995
2003,50.0,0.15524749999999976,39.0,0.15524749999999976
2004,52.0,0.15524749999999976,40.0,1.0173000000000005
2005,48.0,0.32049600000000034,29.0,0.3416270000000008
2006,48.0,0.3416270000000008,37.0,0.6562609999999989
2007,48.0,0.3551769999999994,40.0,0.30108399999999946
2008,52.0,0.15054199999999973,39.0,0.15054199999999973
2009,53.0,0.15054199999999973,39.0,0.2943920000000002
2010,55.0,0.14719599999999922,39.0,0.147196000000001
2011,57.0,0.147196000000001,40.0,0.3180234999999989
2012,58.0,0.1520759999999992,40.0,0.08297375000000073
2013,57.0,0.08297375000000073,39.0,0.04148687499999859
2014,58.0,0.04148687499999859,37.0,0.04148687500000037
2015,57.0,0.04148687500000037,42.0,0.3095979999999994
2016,55.0,0.3095979999999994,40.0,0.299925
2017,53.0,0.1499625000000009,40.0,0.1499624999999991
2018,52.0,0.1499624999999991,40.0,0.299925
2019,50.0,0.1499625000000009,40.0,0.1499624999999991
2020,48.0,0.1499624999999991,40.0,0.14719599999999922
2021,52.0,0.14719599999999922,39.0,0.147196000000001
2022,48.0,0.3519470000000027,85.0,0.1470950000000002
2023,52.0,0.1470950000000002,80.0,0.1470950000000002
2024,53.0,0.1470950000000002,81.0,0.2876460000000023
2025,55.0,0.1438229999999976,81.0,0.1438230000000047
2026,57.0,0.1438230000000047,82.0,0.31360349999999926
2027,58.0,0.14859599999999773,83.0,0.08250375000000076
2028,57.0,0.08250375000000076,80.0,0.04125187500000038
2029,58.0,0.04125187500000038,78.0,0.04125187500000038
2030,57.0,0.04125187500000038,87.0,0.3024959999999979
2031,55.0,0.3024959999999979,85.0,0.29303999999999775
2032,53.0,0.14652000000000243,85.0,0.14651999999999532
2033,52.0,0.14651999999999532,83.0,0.29304000000000485
2034,50.0,0.14652000000000243,82.0,0.14652000000000243
2035,48.0,0.14652000000000243,85.0,0.1438229999999976
2036,52.0,0.1438229999999976,80.0,0.1438230000000047
2037,52.0,0.1438230000000047,85.0,0.3098370000000017
2038,53.0,0.10327900000000056,80.0,0.10327900000000056
2039,52.0,0.10327900000000056,80.0,0.10327900000000056
2040,50.0,0.10327900000000056,80.0,0.3033829999999966
2041,48.0,0.1516914999999983,80.0,0.1516914999999983
2042,53.0,0.1516914999999983,83.0,0.986610000000006
2043,45.0,0.31316900000000203,60.0,0.32360700000000264
2044,45.0,0.32360700000000264,54.0,0.6560029999999983
2045,48.0,0.3498340000000013,40.0,0.1530844999999985
2046,52.0,0.1530844999999985,39.0,0.1530844999999985
2047,53.0,0.1530844999999985,39.0,0.2993710000000007
2048,55.0,0.1496854999999968,39.0,0.1496855000000039
2049,57.0,0.1496855000000039,40.0,0.33610249999999553
2050,58.0,0.1546469999999971,40.0,0.09072774999999922
2051,57.0,0.09072774999999922,39.0,0.04536387499999961
2052,58.0,0.04536387499999961,37.0,0.04536387499999961
2053,57.0,0.04536387499999961,42.0,0.31482799999999855
2054,55.0,0.31482799999999855,40.0,0.304986999999997
2055,53.0,0.1524934999999985,40.0,0.1524934999999985
2056,52.0,0.1524934999999985,40.0,0.3049870000000041
2057,50.0,0.1524935000000056,40.0,0.1524934999999985
2058,48.0,0.1524934999999985,40.0,0.1496854999999968
2059,53.0,0.1496854999999968,39.0,0.1496855000000039
2060,53.0,0.1496855000000039,40.0,0.32245900000000205
2061,55.0,0.10748633333333402,39.0,0.10748633333333402
2062,53.0,0.10748633333333402,39.0,0.10748633333333402
2063,52.0,0.10748633333333402,39.0,0.31573999999999813
2064,50.0,0.15787000000000262,39.0,0.15786999999999551
2065,52.0,0.15786999999999551,40.0,1.0479270000000014
2066,48.0,0.33189500000000294,29.0,0.3426419999999979
2067,48.0,0.3426419999999979,37.0,0.697890000000001
2068,48.0,0.37339000000000055,40.0,0.32450000000000045
2069,52.0,0.16225000000000023,39.0,0.16225000000000023
2070,53.0,0.16225000000000023,39.0,0.31149400000000327
2071,55.0,0.15574699999999808,39.0,0.1557470000000052
2072,57.0,0.1557470000000052,40.0,0.33104799999999557
2073,58.0,0.1587134999999975,40.0,0.08616725000000258
2074,57.0,0.08616725000000258,39.0,0.043083624999994186
2075,58.0,0.043083624999994186,37.0,0.04308362500000129
2076,57.0,0.04308362500000129,42.0,0.33001500000000306
2077,55.0,0.33001500000000306,40.0,0.320923999999998
2078,53.0,0.16046200000000255,40.0,0.16046199999999544
2079,52.0,0.16046199999999544,40.0,0.3209240000000051
2080,50.0,0.16046200000000255,40.0,0.16046200000000255
2081,48.0,0.16046200000000255,40.0,0.1561604999999986
2082,52.0,0.1561604999999986,39.0,0.1561604999999986
2083,52.0,0.1561604999999986,40.0,0.34162700000000257
2084,53.0,0.11387566666666515,39.0,0.11387566666666515
2085,52.0,0.11387566666666515,39.0,0.11387566666667226
2086,50.0,0.11387566666667226,39.0,0.32360700000000264
2087,48.0,0.16180349999999777,39.0,0.16180350000000487
2088,53.0,0.16180350000000487,40.0,1.3466670000000036
2089,45.0,0.33670000000000044,29.0,0.3540869999999998
2090,45.0,0.3540869999999998,37.0,0.3870470000000026
2091,44.0,0.3870470000000026,54.0,0.7168879999999973
2092,53.0,0.26883300000000077,58.0,0.08961099999999789
2093,54.0,0.08961099999999789,62.0,0.35844399999999865
2094,55.0,0.35844399999999865,55.0,0.7296499999999995
2095,58.0,0.37556299999999965,64.0,0.3540869999999998
2096,56.0,0.26556525000000164,60.0,0.08852174999999818
2097,51.0,0.08852174999999818,64.0,0.3540869999999998
2098,46.0,0.17704350000000346,47.0,0.17704349999999636
2099,51.0,0.17704349999999636,57.0,0.7319269999999989
2100,53.0,0.37902700000000067,64.0,0.3528999999999982
2101,53.0,0.2646749999999969,64.0,0.08822500000000133
2102,54.0,0.08822500000000133,69.0,0.3529000000000053
2103,55.0,0.3529000000000053,61.0,0.7216769999999997
2104,58.0,0.36877700000000146,71.0,0.6175750000000022
2105,56.0,0.2646749999999969,66.0,0.08822500000000133
2106,51.0,0.08822500000000133,71.0,0.734847000000002
2107,22.0,0.264675000000004,48.0,0.08822500000000133
2108,56.0,0.08822500000000133,81.0,0.3819469999999967
2109,61.0,0.3819469999999967,86.0,0.365713999999997
2110,61.0,0.2799554999999998,82.0,0.08575849999999718
2111,61.0,0.08575849999999718,85.0,0.3699140000000014
2112,61.0,0.3699140000000014,83.0,0.3699140000000014
2113,61.0,0.3699140000000014,86.0,0.1866369999999975
2114,61.0,0.2799554999999998,82.0,0.08575849999999718
2115,61.0,0.08575849999999718,85.0,0.3699140000000014
2116,40.0,0.27743550000000283,68.0,0.09247849999999858
2117,60.0,0.09247849999999858,83.0,0.3699140000000014
2118,60.0,0.3699140000000014,78.0,0.1866369999999975
2119,60.0,0.2799554999999998,73.0,0.08575849999999718
2120,60.0,0.08575849999999718,76.0,0.3699140000000014
2121,41.0,0.27743550000000283,58.0,0.09247849999999858
2122,58.0,0.09247849999999858,72.0,0.3802039999999991
2123,58.0,0.3802039999999991,70.0,0.1901020000000031
2124,58.0,0.2851530000000011,62.0,0.08771924999999925
2125,58.0,0.08771924999999925,64.0,0.376694999999998
2126,43.0,0.28252125000000206,45.0,0.09417374999999595
2127,56.0,0.09417374999999595,56.0,0.3961439999999996
2128,53.0,0.3961439999999996,61.0,0.3538989999999984
2129,53.0,0.26542425000000236,58.0,0.08847474999999605
2130,54.0,0.08847474999999605,62.0,0.3538989999999984
2131,55.0,0.3538989999999984,55.0,0.3819469999999967
2132,57.0,0.3819469999999967,64.0,0.3528999999999982
2133,56.0,0.2646749999999969,60.0,0.08822500000000133
2134,51.0,0.08822500000000133,64.0,0.3529000000000053
2135,45.0,0.264675000000004,47.0,0.08822500000000133
2136,51.0,0.08822500000000133,57.0,0.37902700000000067
2137,52.0,0.37902700000000067,68.0,0.3528999999999982
2138,52.0,0.2646749999999969,64.0,0.08822500000000133
2139,54.0,0.08822500000000133,69.0,0.3529000000000053
2140,55.0,0.3529000000000053,60.0,0.36877700000000146
2141,57.0,0.36877700000000146,74.0,0.3528999999999982
2142,56.0,0.2646749999999969,72.0,0.08822500000000133
2143,59.0,0.08822500000000133,75.0,0.36748899999999907
2144,25.0,0.2756167499999975,54.0,0.09187225000000154
2145,64.0,0.09187225000000154,89.0,0.389636000000003
2146,57.0,0.389636000000003,94.0,0.365713999999997
2147,57.0,0.2799554999999998,90.0,0.08575849999999718
2148,57.0,0.08575849999999718,93.0,0.3699140000000014
2149,57.0,0.3699140000000014,90.0,0.3699140000000014
2150,57.0,0.3699140000000014,93.0,0.1866369999999975
2151,57.0,0.2799554999999998,88.0,0.08575849999999718
2152,57.0,0.08575849999999718,91.0,0.3699140000000014
2153,37.0,0.27743550000000283,72.0,0.09247849999999858
2154,56.0,0.09247849999999858,88.0,0.3699140000000014
2155,56.0,0.3699140000000014,81.0,0.1866369999999975
2156,56.0,0.2799554999999998,76.0,0.08575849999999718
2157,56.0,0.08575849999999718,77.0,0.3699140000000014
2158,36.0,0.27743550000000283,63.0,0.09247849999999858
2159,54.0,0.09247849999999858,74.0,0.3802039999999991
2160,54.0,0.3802039999999991,72.0,0.1901020000000031
2161,54.0,0.2851530000000011,63.0,0.08771924999999925
2162,54.0,0.08771924999999925,65.0,0.7728389999999976
2163,39.0,0.28252125000000206,45.0,0.09417374999999595
2164,52.0,0.09417374999999595,56.0,0.3961439999999996
2165,53.0,0.3961439999999996,62.0,0.1441820000000007
2166,41.0,0.09612133333333617,56.0,0.09612133333332906
2167,53.0,0.09612133333332906,56.0,0.8064245833333388
2168,41.0,0.09612133333332906,66.0,0.3508980000000008
2169,53.0,0.3508980000000008,63.0,0.3594052500000089
2170,53.0,0.3594052500000089,66.0,0.1524854999999974
2171,41.0,0.101657000000003,59.0,0.101657000000003
2172,53.0,0.101657000000003,60.0,0.8222619999999807
2173,41.0,0.10165699999998878,70.0,0.5296314999999936
2174,36.0,0.33865799999999524,38.0,0.3819469999999967
2175,52.0,0.19097349999999835,64.0,0.19097349999999835
2176,53.0,0.19097349999999835,70.0,0.1438229999999976
2177,41.0,0.09588200000000313,63.0,0.09588200000000313
2178,53.0,0.09588200000000313,63.0,0.7897169999999818
2179,41.0,0.09588199999998892,74.0,0.33865799999999524
2180,53.0,0.33865799999999524,70.0,0.35517699999999763
2181,53.0,0.35517699999999763,74.0,0.1512934999999942
2182,41.0,0.10086233333333894,66.0,0.10086233333332473
2183,53.0,0.10086233333332473,67.0,0.79687633333333
2184,41.0,0.10086233333333894,78.0,0.5173360000000002
2185,36.0,0.33865799999999524,43.0,0.3573559999999958
2186,52.0,0.178678000000005,72.0,0.1786779999999908
2187,53.0,0.1786779999999908,78.0,0.14276200000000472
2188,41.0,0.09517466666666508,70.0,0.09517466666666508
2189,53.0,0.09517466666666508,70.0,0.8043461666666758
2190,41.0,0.09517466666666508,82.0,0.3477450000000033
2191,53.0,0.3477450000000033,76.0,0.3614265000000074
2192,53.0,0.3614265000000074,78.0,0.15116274999999746
2193,41.0,0.10125008333334051,70.0,0.0998253333333281
2194,53.0,0.0998253333333281,70.0,0.7969273333333291
2195,41.0,0.0998253333333281,82.0,0.517879999999991
2196,36.0,0.33865799999999524,44.0,0.35844400000000576
2197,52.0,0.17922199999999577,73.0,0.17922200000000998
2198,53.0,0.17922200000000998,78.0,0.15828650000000266
2199,41.0,0.10552433333333511,70.0,0.10552433333333511
2200,53.0,0.10552433333333511,70.0,0.8299353333333244
2201,41.0,0.10552433333333511,82.0,0.33865799999999524
2202,53.0,0.33865799999999524,76.0,0.385752999999994
2203,53.0,0.385752999999994,78.0,0.17132100000000605
2204,41.0,0.11421400000000403,70.0,0.11421399999998982
2205,53.0,0.11421399999998982,70.0,0.8814749999999947
2206,41.0,0.11421400000000403,82.0,0.569136499999999
2207,36.0,0.37101199999999324,44.0,0.3962489999999974
2208,52.0,0.1981245000000058,73.0,0.1981244999999916
2209,53.0,0.1981244999999916,62.0,0.1645460000000014
2210,41.0,0.10969733333332954,56.0,0.10969733333334375
2211,53.0,0.10969733333334375,56.0,0.8393893333333295
2212,41.0,0.10969733333332954,65.0,0.3477450000000033
2213,53.0,0.3477450000000033,61.0,0.3819469999999967
2214,53.0,0.3819469999999967,63.0,0.16046199999999544
2215,41.0,0.1069746666666731,57.0,0.10697466666665889
2216,53.0,0.10697466666665889,58.0,0.8126576666666807
2217,41.0,0.1069746666666731,68.0,0.5236550000000051
2218,36.0,0.34162700000000257,36.0,0.36405600000000504
2219,52.0,0.18202800000000252,61.0,0.18202800000000252
2220,53.0,0.18202800000000252,66.0,0.1524854999999974
2221,41.0,0.101657000000003,59.0,0.101657000000003
2222,53.0,0.101657000000003,59.0,0.8090088333333227
2223,41.0,0.10165699999998878,69.0,0.33865799999999524
2224,53.0,0.33865799999999524,65.0,0.3686938333333387
2225,53.0,0.3686938333333387,67.0,0.1678605000000033
2226,41.0,0.1119070000000022,60.0,0.1119070000000022
2227,53.0,0.1119070000000022,61.0,0.8404740000000004
2228,41.0,0.1119070000000022,72.0,0.5418719999999979
2229,36.0,0.35517699999999763,39.0,0.37339000000000055
2230,52.0,0.18669500000000028,64.0,0.18669500000000028
2231,53.0,0.18669500000000028,70.0,0.15828650000000266
2232,41.0,0.10552433333333511,63.0,0.10552433333333511
2233,53.0,0.10552433333333511,63.0,0.8015383333333261
2234,41.0,0.10552433333333511,73.0,0.33865799999999524
2235,53.0,0.33865799999999524,68.0,0.3573559999999958
2236,53.0,0.3573559999999958,70.0,0.16180350000000487
2237,41.0,0.10786899999999378,63.0,0.10786900000000799
2238,53.0,0.10786900000000799,63.0,0.8365369999999928
2239,41.0,0.10786899999999378,73.0,0.5376945000000006
2240,36.0,0.3467210000000023,39.0,0.3819469999999967
2241,52.0,0.19097349999999835,65.0,0.19097349999999835
2242,53.0,0.19097349999999835,70.0,0.1673825000000022
2243,41.0,0.11158833333333007,63.0,0.11158833333333007
2244,53.0,0.11158833333333007,62.0,0.8476223333333479
2245,41.0,0.11158833333334428,72.0,0.3540870000000069
2246,53.0,0.3540870000000069,64.0,0.3819469999999967
2247,53.0,0.3819469999999967,64.0,0.17439849999999524
2248,41.0,0.11626566666666349,57.0,0.11626566666666349
2249,53.0,0.11626566666666349,56.0,0.9034686666666829
2250,41.0,0.1162656666666777,65.0,0.377003000000002
2251,40.0,0.377003000000002,53.0,0.41020000000000323
2252,52.0,0.20510000000000161,56.0,0.20510000000000161
2253,48.0,0.20510000000000161,68.0,0.17031900000000633
2254,52.0,0.17031900000000633,70.0,0.17031899999999212
2255,53.0,0.17031899999999212,71.0,0.3090080000000057
2256,55.0,0.15450400000000286,71.0,0.15450400000000286
2257,57.0,0.15450400000000286,72.0,0.3332034999999962
2258,58.0,0.15828650000000266,73.0,0.08745849999999677
2259,57.0,0.08745849999999677,70.0,0.04372924999999839
2260,58.0,0.04372924999999839,68.0,0.04372924999999839
2261,57.0,0.04372924999999839,76.0,0.310654999999997
2262,55.0,0.310654999999997,74.0,0.3049709999999948
2263,53.0,0.1524854999999974,74.0,0.1524854999999974
2264,52.0,0.1524854999999974,73.0,0.304971000000009
2265,50.0,0.1524855000000116,72.0,0.1524854999999974
2266,48.0,0.1524854999999974,74.0,0.14973799999999926
2267,53.0,0.14973799999999926,70.0,0.14973799999999926
2268,53.0,0.14973799999999926,74.0,0.3165730000000053
2269,55.0,0.10552433333333511,70.0,0.10552433333333511
2270,53.0,0.10552433333333511,70.0,0.10552433333333511
2271,52.0,0.10552433333333511,70.0,0.30737700000000245
2272,50.0,0.15368850000000123,70.0,0.15368850000000123
2273,52.0,0.15368850000000123,73.0,0.9976939999999956
2274,48.0,0.317426999999995,53.0,0.32724299999999573
2275,48.0,0.32724299999999573,68.0,0.3530240000000049
2276,48.0,0.3530240000000049,74.0,0.1512934999999942
2277,52.0,0.1512934999999942,70.0,0.1512935000000084
2278,53.0,0.1512935000000084,71.0,0.29492700000000127
2279,55.0,0.14746350000000064,71.0,0.14746350000000064
2280,57.0,0.14746350000000064,72.0,0.32043350000000714
2281,58.0,0.15208350000000337,73.0,0.08417500000000189
2282,57.0,0.08417500000000189,70.0,0.04208749999999384
2283,58.0,0.04208749999999384,68.0,0.04208750000000805
2284,57.0,0.04208750000000805,76.0,0.30657600000000684
2285,55.0,0.30657600000000684,74.0,0.2964280000000059
2286,53.0,0.14821399999999585,74.0,0.14821400000001006
2287,52.0,0.14821400000001006,73.0,0.2964279999999917
2288,50.0,0.14821399999999585,72.0,0.14821399999999585
2289,48.0,0.14821399999999585,74.0,0.14598549999999477
2290,52.0,0.14598549999999477,70.0,0.14598550000000898
2291,52.0,0.14598550000000898,74.0,0.31316900000000203
2292,53.0,0.1043896666666626,70.0,0.10438966666667682
2293,52.0,0.10438966666667682,70.0,0.1043896666666626
2294,50.0,0.1043896666666626,70.0,0.30576399999999637
2295,48.0,0.1528820000000053,70.0,0.15288199999999108
2296,53.0,0.15288199999999108,73.0,0.9997690000000148
2297,45.0,0.31316900000000203,53.0,0.328156000000007
2298,45.0,0.328156000000007,47.0,0.6595280000000088
2299,48.0,0.35844400000000576,40.0,0.1505420000000015
2300,52.0,0.1505420000000015,39.0,0.1505420000000015
2301,53.0,0.1505420000000015,39.0,0.294392000000002
2302,55.0,0.1471959999999939,39.0,0.1471960000000081
2303,57.0,0.1471960000000081,40.0,0.3218934999999874
2304,58.0,0.15207599999999388,40.0,0.08490874999999676
2305,57.0,0.08490874999999676,39.0,0.042454375000005484
2306,58.0,0.042454375000005484,37.0,0.04245437499999127
2307,57.0,0.04245437499999127,42.0,0.30959799999999404
2308,55.0,0.30959799999999404,40.0,0.2999250000000018
2309,45.0,0.1090809999999891,39.0,0.3165730000000053
2310,43.0,0.15828650000000266,39.0,0.15828650000000266
2311,48.0,0.15828650000000266,40.0,1.1698279999999954
2312,40.0,0.32724299999999573,37.0,0.3477450000000033
2313,40.0,0.3477450000000033,73.0,0.3477450000000033
2314,45.0,0.3477450000000033,78.0,0.2941900000000004
2315,52.0,0.1470949999999931,80.0,0.1470950000000073
2316,53.0,0.1470950000000073,81.0,0.2876459999999952
2317,55.0,0.1438229999999976,81.0,0.1438229999999976
2318,57.0,0.1438229999999976,82.0,0.3122175000000027
2319,58.0,0.14859599999999773,83.0,0.08181075000000249
2320,57.0,0.08181075000000249,80.0,0.04090537499999414
2321,58.0,0.04090537499999414,78.0,0.04090537500000835
2322,57.0,0.04090537500000835,87.0,0.302496000000005
2323,55.0,0.302496000000005,85.0,0.29304000000000485
2324,53.0,0.14651999999999532,85.0,0.14652000000000953
2325,52.0,0.14652000000000953,83.0,0.29303999999999064
2326,50.0,0.14651999999999532,82.0,0.14651999999999532
2327,48.0,0.14651999999999532,85.0,0.1438229999999976
2328,53.0,0.1438229999999976,80.0,0.1438229999999976
2329,53.0,0.1438229999999976,85.0,0.3098370000000017
2330,55.0,0.10327900000000056,80.0,0.10327900000000056
2331,53.0,0.10327900000000056,80.0,0.10327900000000056
2332,52.0,0.10327900000000056,80.0,0.3033829999999966
2333,50.0,0.1516914999999983,80.0,0.1516914999999983
2334,52.0,0.1516914999999983,83.0,0.9991559999999993
2335,48.0,0.317426999999995,60.0,0.33189500000000294
2336,48.0,0.33189500000000294,78.0,0.3498340000000013
2337,48.0,0.3498340000000013,85.0,0.1470949999999931
2338,52.0,0.1470949999999931,80.0,0.1470950000000073
2339,53.0,0.1470950000000073,81.0,0.2876459999999952
2340,55.0,0.1438229999999976,81.0,0.1438229999999976
2341,57.0,0.1438229999999976,82.0,0.3122175000000027
2342,58.0,0.14859599999999773,83.0,0.08181075000000249
2343,57.0,0.08181075000000249,80.0,0.04090537499999414
2344,58.0,0.04090537499999414,78.0,0.04090537500000835
2345,57.0,0.04090537500000835,87.0,0.302496000000005
2346,55.0,0.302496000000005,85.0,0.29304000000000485
2347,53.0,0.14651999999999532,85.0,0.14652000000000953
2348,52.0,0.14652000000000953,83.0,0.29303999999999064
2349,50.0,0.14651999999999532,82.0,0.14651999999999532
2350,48.0,0.14651999999999532,85.0,0.1438229999999976
2351,52.0,0.1438229999999976,80.0,0.1438229999999976
2352,52.0,0.1438229999999976,85.0,0.3098370000000017
2353,53.0,0.10327900000000056,80.0,0.10327900000000056
2354,52.0,0.10327900000000056,80.0,0.10327900000000056
2355,50.0,0.10327900000000056,80.0,0.3033829999999966
2356,48.0,0.1516914999999983,80.0,0.1516914999999983
2357,53.0,0.1516914999999983,83.0,0.9715920000000153
2358,45.0,0.31316900000000203,60.0,0.3227020000000067
2359,45.0,0.3227020000000067,54.0,0.6418900000000036
2360,48.0,0.3357210000000066,40.0,0.15308450000000562
2361,52.0,0.15308450000000562,39.0,0.1530844999999914
2362,53.0,0.1530844999999914,39.0,0.2993709999999936
2363,55.0,0.1496855000000039,39.0,0.1496854999999897
2364,57.0,0.1496854999999897,40.0,0.32956399999999064
2365,58.0,0.1546469999999971,40.0,0.08745849999999677
2366,57.0,0.08745849999999677,39.0,0.04372924999999839
2367,58.0,0.04372924999999839,37.0,0.04372924999999839
2368,57.0,0.04372924999999839,42.0,0.31482800000000566
2369,55.0,0.31482800000000566,40.0,0.304986999999997
2370,53.0,0.1524935000000056,40.0,0.1524934999999914
2371,52.0,0.1524934999999914,40.0,0.304986999999997
2372,50.0,0.1524935000000056,40.0,0.1524934999999914
2373,48.0,0.1524934999999914,40.0,0.1496855000000039
2374,53.0,0.1496855000000039,39.0,0.1496854999999897
2375,53.0,0.1496854999999897,40.0,0.32245899999999494
2376,55.0,0.10748633333332691,39.0,0.10748633333334112
2377,53.0,0.10748633333334112,39.0,0.10748633333332691
2378,52.0,0.10748633333332691,39.0,0.31574000000000524
2379,50.0,0.15787000000000262,39.0,0.15787000000000262
2380,52.0,0.15787000000000262,40.0,1.0595500000000015
2381,48.0,0.33285300000000007,29.0,0.3508980000000008
2382,48.0,0.3508980000000008,37.0,0.6994059999999962
2383,48.0,0.37579900000000066,40.0,0.32360699999999554
2384,52.0,0.16180350000000487,39.0,0.16180349999999066
2385,53.0,0.16180349999999066,39.0,0.310654999999997
2386,55.0,0.1553274999999985,39.0,0.1553274999999985
2387,57.0,0.1553274999999985,40.0,0.33003450000001067
2388,58.0,0.15871350000000461,40.0,0.08566050000000303
2389,57.0,0.08566050000000303,39.0,0.04283024999999441
2390,58.0,0.04283024999999441,37.0,0.04283025000000862
2391,57.0,0.04283025000000862,42.0,0.3290920000000028
2392,55.0,0.3290920000000028,40.0,0.3209240000000051
2393,53.0,0.16046199999999544,40.0,0.16046200000000965
2394,52.0,0.16046200000000965,40.0,0.3209239999999909
2395,50.0,0.16046199999999544,40.0,0.16046199999999544
2396,48.0,0.16046199999999544,40.0,0.1557470000000052
2397,52.0,0.1557470000000052,39.0,0.15574699999999098
2398,52.0,0.15574699999999098,40.0,0.35844400000000576
2399,53.0,0.11948133333333999,39.0,0.11948133333332578
2400,52.0,0.11948133333332578,39.0,0.11948133333333999
2401,50.0,0.11948133333333999,39.0,0.33189500000000294
2402,48.0,0.16594750000000147,39.0,0.16594750000000147
2403,53.0,0.16594750000000147,40.0,1.0749679999999984
2404,45.0,0.3426419999999979,29.0,0.3540870000000069
2405,45.0,0.3540870000000069,37.0,0.37823899999999355
2406,45.0,0.37823899999999355,47.0,0.9765775000000048
2407,48.0,0.16620500000000504,45.0,0.16620499999999083
2408,48.0,0.16620499999999083,49.0,0.31629850000000204
2409,50.0,0.1206434999999999,41.0,0.040214500000004705
2410,48.0,0.040214500000004705,46.0,0.15544049999999743
2411,47.0,0.15544049999999743,46.0,0.32786900000000685
2412,43.0,0.16393449999999632,45.0,0.16393450000001053
2413,43.0,0.16393450000001053,50.0,0.9793789999999944
2414,46.0,0.16666650000000516,47.0,0.16666649999999095
2415,46.0,0.16666649999999095,51.0,0.31546699999999817
2416,48.0,0.12032100000000412,43.0,0.0401069999999919
2417,46.0,0.0401069999999919,48.0,0.15503900000000215
2418,45.0,0.15503900000000215,48.0,0.3305790000000002
2419,41.0,0.1652895000000001,43.0,0.1652895000000001
2420,45.0,0.1652895000000001,50.0,0.9501200000000125
2421,48.0,0.16304350000000056,48.0,0.16304350000000056
2422,48.0,0.16304350000000056,52.0,0.30058300000000315
2423,50.0,0.11568112499999472,44.0,0.03856037500000298
2424,48.0,0.03856037500000298,48.0,0.14634150000000545
2425,47.0,0.14634150000000545,48.0,0.32345000000000823
2426,43.0,0.1617249999999899,44.0,0.16172500000001833
2427,43.0,0.16172500000001833,53.0,0.9488534166666795
2428,46.0,0.16348750000000223,50.0,0.16348750000000223
2429,46.0,0.16348750000000223,53.0,0.29842841666666686
2430,48.0,0.11542979166668488,46.0,0.03807112499998766
2431,46.0,0.03807112499998766,50.0,0.14492749999999432
2432,45.0,0.14492749999999432,51.0,0.32345000000000823
2433,41.0,0.1617249999999899,44.0,0.16172500000001833
2434,41.0,0.16172500000001833,53.0,0.9199110000000132
2435,45.0,0.16090950000000248,51.0,0.16090950000000248
2436,45.0,0.16090950000000248,55.0,0.2888140000000021
2437,46.0,0.11406262500000253,46.0,0.03802087500000084
2438,45.0,0.03802087500000084,51.0,0.13673049999999876
2439,43.0,0.13673049999999876,51.0,0.30927800000000616
2440,38.0,0.15463900000000308,46.0,0.15463900000000308
2441,40.0,0.15463900000000308,55.0,0.9185390000000382
2442,43.0,0.15748049999999125,52.0,0.15748050000001967
2443,43.0,0.15748050000001967,55.0,0.28615100000001803
2444,45.0,0.11230349999999589,47.0,0.03743450000001758
2445,43.0,0.03743450000001758,52.0,0.13641300000000456
2446,41.0,0.13641300000000456,52.0,0.31742700000000923
2447,36.0,0.15871350000000461,46.0,0.15871350000000461
2448,41.0,0.15871350000000461,53.0,0.8958669999999813
2449,45.0,0.15544049999999743,51.0,0.15544049999999743
2450,45.0,0.15544049999999743,54.0,0.27181699999999864
2451,46.0,0.10791374999999448,45.0,0.03597125000001711
2452,45.0,0.03597125000001711,50.0,0.12793199999998706
2453,43.0,0.12793199999998706,49.0,0.3131689999999878
2454,38.0,0.15658450000000812,45.0,0.1565844999999797
2455,40.0,0.1565844999999797,53.0,0.8895739999999819
2456,43.0,0.15228450000000748,50.0,0.15228449999997906
2457,43.0,0.15228449999997906,52.0,0.27888300000000754
2458,45.0,0.11259562500001152,45.0,0.03753187499998489
2459,43.0,0.03753187499998489,49.0,0.12875550000001112
2460,41.0,0.12875550000001112,49.0,0.3061219999999878
2461,36.0,0.1530610000000081,41.0,0.15306099999997969
2462,33.0,0.15306099999997969,44.0,0.8822590000000048
2463,36.0,0.1542415000000119,42.0,0.1542414999999835
2464,36.0,0.1542414999999835,45.0,0.273775999999998
2465,38.0,0.11138625000000957,38.0,0.037128749999993715
2466,36.0,0.037128749999993715,41.0,0.12526099999999474
2467,35.0,0.12526099999999474,41.0,0.30000000000001137
2468,31.0,0.15000000000000568,35.0,0.15000000000000568
2469,31.0,0.15000000000000568,44.0,0.8750550000000032
2470,34.0,0.15267199999999548,41.0,0.15267199999999548
2471,34.0,0.15267199999999548,44.0,0.2726810000000057
2472,36.0,0.11056500000000824,37.0,0.03685500000000275
2473,34.0,0.03685500000000275,41.0,0.12526099999999474
2474,33.0,0.12526099999999474,40.0,0.29703000000000657
2475,29.0,0.14851500000000328,34.0,0.14851500000000328
2476,33.0,0.14851500000000328,36.0,0.9042270000000201
2477,36.0,0.1586460000000045,35.0,0.1586460000000045
2478,36.0,0.1586460000000045,38.0,0.27876900000001115
2479,38.0,0.11188462499998764,31.0,0.03729487500001483
2480,36.0,0.03729487500001483,34.0,0.12958950000000868
2481,35.0,0.12958950000000868,34.0,0.30816599999999994
2482,31.0,0.15408300000001418,30.0,0.15408299999998576
2483,31.0,0.15408299999998576,37.0,0.9399209999999982
2484,34.0,0.1642035000000135,34.0,0.16420349999998507
2485,34.0,0.16420349999998507,37.0,0.29287400000001185
2486,36.0,0.11898450000001048,31.0,0.03966149999999402
2487,34.0,0.03966149999999402,34.0,0.13422800000000734
2488,33.0,0.13422800000000734,34.0,0.3186399999999878
2489,29.0,0.15932000000000812,30.0,0.1593199999999797
2490,36.0,0.1593199999999797,46.0,0.358208999999988
2491,48.0,0.358208999999988,49.0,0.3570863625000129
2492,53.0,0.3570863625000129,48.0,3.6920345937499235
2493,60.0,0.1734620041666517,49.0,0.17207676666666316
2494,65.0,0.17207676666666316,51.0,0.08816085624999914
2495,69.0,0.17868049791664475,53.0,0.09296959791666382
2496,71.0,0.18856614791667425,55.0,0.09833332291665897
2497,72.0,0.19961027083331828,57.0,0.10435380208329548
2498,74.0,0.2120823708332864,59.0,0.11393354166671088
2499,76.0,0.23697253541666896,62.0,0.17301050000000373
2500,77.0,0.34602100000000746,64.0,1.9845630000000085
2501,26.0,0.0,40.0,0.5690475479166667
2502,34.0,0.5690475479166667,34.0,0.6
2503,26.0,0.6,40.0,0.5660375
2504,34.0,0.5660375,34.0,0.5660374999999997
2505,26.0,0.5660374999999997,40.0,0.5714285000000001
2506,34.0,0.5714285000000001,34.0,0.5714285000000001
2507,26.0,0.5714285000000001,40.0,0.5714284999999997
2508,34.0,0.5714284999999997,33.0,0.5999999999999996
2509,26.0,0.5999999999999996,40.0,0.5660375000000002
2510,34.0,0.5660375000000002,33.0,0.5660374999999993
2511,26.0,0.5660374999999993,38.0,0.5714284999999997
2512,34.0,0.5714284999999997,31.0,0.5940595000000002
2513,26.0,0.5940595000000002,36.0,0.5714284999999997
2514,34.0,0.5714284999999997,29.0,0.5940595000000002
2515,26.0,0.5940595000000002,35.0,0.5940595000000002
2516,34.0,0.5940595000000002,26.0,0.6521740000000005
2517,43.0,0.6521740000000005,55.0,4.126388666666665
2518,34.0,0.5825244999999999,27.0,0.5999999999999996
2519,26.0,0.5999999999999996,33.0,0.5660375000000002
2520,34.0,0.5660375000000002,27.0,0.5660375000000002
2521,26.0,0.5660375000000002,33.0,0.5607474999999997
2522,34.0,0.5607474999999997,27.0,0.5999999999999996
2523,26.0,0.5999999999999996,33.0,0.625
2524,34.0,0.625,26.0,0.625
2525,38.0,0.026041666666666075,41.0,0.6105324062499999
2526,26.0,0.5989583333333339,33.0,0.5555555000000005
2527,41.0,0.011574072916666012,55.0,4.483946927083336
2528,34.0,0.5439814270833345,27.0,0.5555554999999988
2529,26.0,0.5555554999999988,33.0,0.5607474999999997
2530,34.0,0.5607474999999997,27.0,0.5882355000000015
2531,26.0,0.5882355000000015,33.0,0.5454545000000017
2532,34.0,0.5454545000000017,27.0,0.5454544999999982
2533,26.0,0.5454544999999982,33.0,0.5504585000000013
2534,34.0,0.5504585000000013,26.0,0.5940595000000002
2535,41.0,0.5940595000000002,55.0,1.619417875
2536,34.0,0.6000000000000014,27.0,0.5825245000000017
2537,24.0,0.5825245000000017,33.0,0.5825244999999981
2538,45.0,0.4368933749999968,44.0,0.1456311250000013
2539,43.0,0.1456311250000013,51.0,0.5825245000000017
2540,41.0,0.5825245000000017,53.0,1.7279888333333346
2541,33.0,0.5504585000000013,27.0,0.5714284999999997
2542,24.0,0.5714284999999997,33.0,0.6061018333333337
2543,36.0,0.6061018333333337,41.0,0.6261650000000003
2544,38.0,0.6261650000000003,52.0,1.1750000000000007
2545,34.0,0.6000000000000014,26.0,0.5999999999999979
2546,38.0,0.5999999999999979,48.0,0.9437723124999984
2547,34.0,0.6406588333333332,24.0,0.6705235000000016
2548,38.0,0.3308912500000005,44.0,0.31122316666666805
2549,38.0,0.3396322500000011,46.0,4.480236000000001
2550,34.0,0.5769230000000007,23.0,0.6000000000000014
2551,29.0,0.6000000000000014,27.0,0.5607475000000015
2552,34.0,0.5607475000000015,22.0,0.560747499999998
2553,29.0,0.560747499999998,29.0,0.5454545000000017
2554,34.0,0.5454545000000017,25.0,0.5454544999999982
2555,29.0,0.5454544999999982,30.0,0.5454545000000017
2556,34.0,0.5454545000000017,26.0,0.5454544999999982
2557,29.0,0.5454544999999982,31.0,0.5454545000000017
2558,34.0,0.5454545000000017,27.0,0.5555555000000005
2559,29.0,0.5555555000000005,33.0,0.5660375000000002
2560,34.0,0.5660375000000002,26.0,0.5660375000000002
2561,33.0,0.5660375000000002,33.0,0.5687329999999946
2562,41.0,0.5687329999999946,27.0,0.5714285000000032
2563,33.0,0.5714285000000032,33.0,0.5714284999999961
2564,41.0,0.5714284999999961,27.0,0.6207269166666691
2565,50.0,0.6207269166666691,62.0,1.7428570000000008
2566,41.0,0.6000000000000014,27.0,0.5714285000000032
2567,33.0,0.5714285000000032,33.0,0.5714284999999961
2568,41.0,0.5714284999999961,26.0,0.6382979999999989
2569,45.0,0.013297874999999237,53.0,0.6369048854166692
2570,33.0,0.6250001249999997,33.0,0.5714285000000032
2571,48.0,0.011904760416669546,59.0,4.531292239583337
2572,41.0,0.5595237395833337,27.0,0.5940595000000002
2573,33.0,0.5940595000000002,33.0,0.560747499999998
2574,41.0,0.560747499999998,27.0,0.5607475000000051
2575,33.0,0.5607475000000051,33.0,0.5454544999999982
2576,41.0,0.5454544999999982,27.0,0.5454545000000053
2577,33.0,0.5454545000000053,33.0,0.5751093333333301
2578,41.0,0.5751093333333301,26.0,0.5901956666666663
2579,48.0,0.5901956666666663,51.0,1.5927892500000027
2580,41.0,0.5660375000000002,27.0,0.5940595000000002
2581,31.0,0.5940595000000002,33.0,0.5769230000000007
2582,52.0,0.43269225000000233,38.0,0.1442307499999984
2583,50.0,0.1442307499999984,47.0,0.5769230000000007
2584,48.0,0.5769230000000007,51.0,1.6770505
2585,40.0,0.560747499999998,27.0,0.5607475000000051
2586,31.0,0.5607475000000051,33.0,0.555555499999997
2587,43.0,0.555555499999997,46.0,0.5825244999999981
2588,45.0,0.5825244999999981,53.0,1.1113076458333282
2589,40.0,0.5530549999999934,29.0,0.5825244999999981
2590,45.0,0.5825244999999981,58.0,0.901718708333334
2591,40.0,0.6122450000000015,34.0,0.6315790000000021
2592,45.0,0.31578950000000106,56.0,0.2894737083333325
2593,45.0,0.31578950000000106,63.0,4.440779000000006
2594,40.0,0.5660375000000002,36.0,0.5714285000000032
2595,30.0,0.5714285000000032,44.0,0.560747499999998
2596,49.0,0.13274900000000045,66.0,0.050598187500000336
2597,49.0,0.1349285,67.0,0.05012699999999981
2598,49.0,0.1336719999999998,67.0,0.05169093750000009
2599,49.0,0.13784249999999965,85.0,0.2790309999999998
2600,49.0,0.2790309999999998,78.0,0.2841579999999997
2601,47.0,0.2841579999999997,78.0,0.27667600000000014
2602,45.0,0.27667600000000014,74.0,0.2807463333333331
2603,44.0,0.2807463333333331,61.0,0.2727414999999995
2604,40.0,0.13669300000000018,59.0,0.13604849999999935
2605,52.0,0.13604849999999935,78.0,0.2702272500000005
2606,45.0,0.13540375000000004,73.0,0.13482350000000043
2607,57.0,0.13482350000000043,82.0,0.2678674166666646
2608,49.0,0.13424666666666596,71.0,0.13362074999999862
2609,61.0,0.13362074999999862,76.0,0.2661622500000007
2610,52.0,0.1331067499999996,69.0,0.1330555000000011
2611,64.0,0.1330555000000011,78.0,0.26922700000000077
2612,57.0,0.13461350000000039,73.0,0.13461350000000039
2613,69.0,0.13461350000000039,82.0,0.27767500000000034
2614,61.0,0.13883749999999928,75.0,0.13883750000000106
2615,73.0,0.13883750000000106,82.0,0.27767500000000034
2616,71.0,0.27767500000000034,76.0,0.27306199999999947
2617,64.0,0.27306199999999947,73.0,0.28299200000000013
2618,64.0,0.28299200000000013,75.0,0.5560390000000002
2619,69.0,0.27700800000000037,68.0,0.2790309999999998
2620,52.0,0.2790309999999998,56.0,0.2817559999999997
2621,52.0,0.2817559999999997,56.0,0.5601859999999999
2622,57.0,0.2797990000000006,56.0,0.2803869999999993
2623,52.0,0.2803869999999993,55.0,0.2880179999999992
2624,52.0,0.2880179999999992,55.0,0.578183000000001
2625,57.0,0.28491400000000056,56.0,0.29326900000000045
2626,52.0,0.29326900000000045,52.0,0.28454900000000016
2627,52.0,0.28454900000000016,56.0,0.8687670000000001
2628,49.0,0.8687670000000001,53.0,3.401565999999999
2629,35.0,0.8687670000000001,43.0,0.2767269999999993
2630,33.0,0.2767269999999993,37.0,0.28339300000000023
2631,30.0,0.28339300000000023,37.0,0.28339300000000023
2632,33.0,0.28339300000000023,43.0,0.2767269999999993
2633,32.0,0.2767269999999993,37.0,0.2841579999999997
2634,28.0,0.2841579999999997,37.0,0.2841579999999997
2635,30.0,0.2841579999999997,43.0,0.27745700000000006
2636,28.0,0.27745700000000006,37.0,0.28339300000000023
2637,25.0,0.28339300000000023,37.0,0.28339300000000023
2638,26.0,0.28339300000000023,39.0,0.28339300000000023
2639,25.0,0.28339300000000023,35.0,0.28339300000000023
2640,21.0,0.28339300000000023,35.0,0.28339300000000023
2641,42.0,0.28339300000000023,63.0,0.2658357500000008
2642,42.0,0.131533000000001,66.0,0.050480062500000145
2643,42.0,0.1343027499999998,67.0,0.049780874999999725
2644,42.0,0.13274900000000045,68.0,0.05322168749999889
2645,42.0,0.13897991666666698,80.0,0.2790050000000015
2646,44.0,0.2790050000000015,90.0,0.2751410000000014
2647,56.0,0.2751410000000014,76.0,0.2713579999999993
2648,54.0,0.13567899999999966,74.0,0.13567899999999966
2649,56.0,0.13567899999999966,76.0,0.27555849999999893
2650,57.0,0.13398249999999834,72.0,0.1415760000000006
2651,45.0,0.1415760000000006,63.0,0.26551549999999935
2652,45.0,0.131533000000001,66.0,0.05024343750000071
2653,45.0,0.13398249999999834,67.0,0.049664437499998826
2654,45.0,0.13243849999999924,66.0,0.05348474999999908
2655,45.0,0.14097983333333275,79.0,0.2782289999999996
2656,47.0,0.2782289999999996,87.0,0.2736230000000006
2657,59.0,0.2736230000000006,76.0,0.27063599999999965
2658,57.0,0.1353180000000016,74.0,0.13531799999999805
2659,59.0,0.13531799999999805,76.0,0.27352550000000164
2660,60.0,0.13367200000000068,71.0,0.13985350000000096
2661,48.0,0.13985350000000096,56.0,0.2623845833333327
2662,48.0,0.13004450000000034,60.0,0.049550812500001484
2663,48.0,0.13234008333333236,64.0,0.048987562499998916
2664,48.0,0.1306334999999983,68.0,0.05169093749999831
2665,48.0,0.13784250000000142,80.0,0.2736230000000006
2666,50.0,0.2736230000000006,64.0,0.2661873333333311
2667,50.0,0.13183349999999905,67.0,0.050480062500000145
2668,50.0,0.13435383333333206,71.0,0.049780874999999725
2669,48.0,0.13274900000000045,72.0,0.050910770833333174
2670,50.0,0.13726858333333425,81.0,0.2736230000000006
2671,51.0,0.2736230000000006,66.0,0.2658334999999994
2672,51.0,0.131533000000001,69.0,0.05036268750000161
2673,51.0,0.13430049999999838,74.0,0.049780874999999725
2674,51.0,0.13274900000000045,76.0,0.05036268750000161
2675,51.0,0.13430049999999838,86.0,0.28645099999999957
2676,55.0,0.28645099999999957,81.0,0.28415800000000146
2677,53.0,0.28415800000000146,81.0,0.27667599999999837
2678,41.0,0.27667599999999837,85.0,0.28138600000000125
2679,28.0,0.28138600000000125,61.0,0.2727077499999986
2680,40.0,0.13671274999999738,59.0,0.1359950000000012
2681,52.0,0.1359950000000012,78.0,0.27027999999999963
2682,45.0,0.13540374999999827,75.0,0.13487625000000136
2683,57.0,0.13487625000000136,82.0,0.26817908333333307
2684,48.0,0.13435183333333356,75.0,0.1338272499999995
2685,60.0,0.1338272499999995,76.0,0.26672599999999846
2686,52.0,0.13336299999999923,71.0,0.13336299999999923
2687,64.0,0.13336299999999923,78.0,0.2713579999999993
2688,57.0,0.13567899999999966,75.0,0.13567899999999966
2689,69.0,0.13567899999999966,82.0,0.27767499999999856
2690,60.0,0.13883750000000106,75.0,0.1388374999999975
2691,72.0,0.1388374999999975,82.0,0.2776750000000021
2692,71.0,0.2776750000000021,78.0,0.27436099999999897
2693,64.0,0.27436099999999897,73.0,0.28299200000000013
2694,64.0,0.28299200000000013,75.0,0.556714999999997
2695,69.0,0.2770079999999986,68.0,0.2797069999999984
2696,52.0,0.2797069999999984,58.0,0.28175600000000145
2697,52.0,0.28175600000000145,58.0,0.5601860000000016
2698,57.0,0.2797990000000006,56.0,0.28038700000000105
2699,52.0,0.28038700000000105,56.0,0.288018000000001
2700,52.0,0.288018000000001,56.0,0.5680660000000017
2701,57.0,0.28491400000000056,55.0,0.2831520000000012
2702,52.0,0.2831520000000012,81.0,0.5621399999999994
2703,53.0,0.5621399999999994,75.0,0.13685500000000062
2704,52.0,0.13685500000000062,71.0,0.13685500000000062
2705,47.0,0.13685500000000062,73.0,0.1391725000000008
2706,48.0,0.1391725000000008,65.0,0.1391725000000008
2707,45.0,0.1391725000000008,70.0,0.8536469999999987
2708,53.0,0.8536469999999987,84.0,0.2843273333333336
2709,41.0,0.2843273333333336,48.0,0.14019349999999875
2710,41.0,0.14019349999999875,49.0,0.1398274999999991
2711,40.0,0.1398274999999991,50.0,0.13945700000000016
2712,41.0,0.13945700000000016,51.0,0.13909500000000108
2713,42.0,0.13909500000000108,52.0,0.13872849999999914
2714,38.0,0.13872849999999914,53.0,0.13836350000000053
2715,44.0,0.13836350000000053,54.0,0.13800700000000177
2716,45.0,0.13800700000000177,55.0,0.1376459999999966
2717,41.0,0.1376459999999966,57.0,0.1372870000000006
2718,47.0,0.1372870000000006,59.0,0.13693649999999735
2719,48.0,0.13693649999999735,59.0,0.13658099999999962
2720,44.0,0.13658099999999962,60.0,0.13658099999999962
2721,50.0,0.13658099999999962,64.0,0.13658099999999962
2722,51.0,0.13658099999999962,65.0,0.13658099999999962
2723,47.0,0.13658099999999962,66.0,0.13658099999999962
2724,53.0,0.13658099999999962,67.0,0.13658099999999962
2725,53.0,0.13658099999999962,68.0,0.27316199999999924
2726,54.0,0.27316199999999924,73.0,0.27627350000000206
2727,54.0,0.27627350000000206,80.0,0.14245700000000028
2728,66.0,0.28491400000000056,91.0,0.28491400000000056
2729,42.0,0.28491400000000056,48.0,0.13982750000000266
2730,42.0,0.13982750000000266,49.0,0.13951874999999347
2731,36.0,0.13951874999999347,50.0,0.13921566666667218
2732,42.0,0.13921566666667218,51.0,0.1388506666666629
2733,43.0,0.1388506666666629,52.0,0.13854599999999806
2734,39.0,0.13854599999999806,53.0,0.13824466666666524
2735,45.0,0.13824466666666524,54.0,0.1378866666666667
2736,46.0,0.1378866666666667,55.0,0.13758616666666512
2737,42.0,0.13758616666666512,57.0,0.1372870000000006
2738,48.0,0.1372870000000006,59.0,0.13693649999999735
2739,49.0,0.13693649999999735,59.0,0.13658099999999962
2740,45.0,0.13658099999999962,60.0,0.13658099999999962
2741,51.0,0.13658099999999962,64.0,0.13658099999999962
2742,52.0,0.13658099999999962,65.0,0.13658099999999962
2743,53.0,0.13658099999999962,66.0,0.13658099999999962
2744,54.0,0.13658099999999962,67.0,0.13658099999999962
2745,54.0,0.13658099999999962,68.0,0.27316199999999924
2746,55.0,0.27316199999999924,73.0,0.2732340000000022
2747,62.0,0.2732340000000022,80.0,0.14245700000000028
2748,67.0,0.28491400000000056,91.0,0.28491400000000056
2749,55.0,0.28491400000000056,70.0,0.1376459999999966
2750,55.0,0.1376459999999966,70.0,0.1376460000000037
2751,54.0,0.1376460000000037,64.0,0.13982750000000266
2752,55.0,0.13982750000000266,64.0,0.13909549999999626
2753,56.0,0.13909549999999626,70.0,0.13806641666666764
2754,57.0,0.13806641666666764,64.0,0.13800700000000177
2755,58.0,0.13800700000000177,70.0,0.06842749999999853
2756,58.0,0.13685499999999706,65.0,0.06842750000000564
2757,58.0,0.13685500000000417,65.0,0.0702840000000009
2758,58.0,0.1405680000000018,65.0,0.0702840000000009
2759,58.0,0.1405679999999947,70.0,0.1376459999999966
2760,57.0,0.1376459999999966,65.0,0.1376460000000037
2761,57.0,0.1376460000000037,70.0,0.06826550000000253
2762,57.0,0.13653099999999796,65.0,0.06826550000000253
2763,56.0,0.13653100000000506,65.0,0.0702840000000009
2764,57.0,0.1405680000000018,65.0,0.0702840000000009
2765,58.0,0.1405679999999947,70.0,0.1376459999999966
2766,59.0,0.1376459999999966,63.0,0.1376460000000037
2767,60.0,0.1376460000000037,65.0,0.0681044999999969
2768,60.0,0.1362090000000009,67.0,0.0681044999999969
2769,60.0,0.1362090000000009,70.0,0.06991374999999778
2770,60.0,0.13982750000000266,72.0,0.06991374999999778
2771,60.0,0.13982749999999555,78.0,0.1376459999999966
2772,59.0,0.1376459999999966,72.0,0.1376460000000037
2773,59.0,0.1376460000000037,74.0,0.0681044999999969
2774,59.0,0.1362090000000009,76.0,0.0681044999999969
2775,58.0,0.1362090000000009,77.0,0.06991374999999778
2776,59.0,0.13982750000000266,80.0,0.06991374999999778
2777,59.0,0.13982749999999555,91.0,0.2859662500000013
2778,61.0,0.24864162499999765,63.0,0.037324625000003664
2779,59.0,0.037324625000003664,86.0,0.2770149999999987
2780,58.0,0.13784249999999787,79.0,0.1391725000000008
2781,59.0,0.1391725000000008,88.0,0.28874449999999996
2782,61.0,0.14298649999999924,82.0,0.14575800000000072
2783,59.0,0.14575800000000072,90.0,0.28668400000000105
2784,71.0,0.28668400000000105,95.0,0.13850399999999752
2785,57.0,0.27700800000000214,88.0,0.28175600000000145
2786,57.0,0.28175600000000145,77.0,0.2887817500000054
2787,59.0,0.2513603750000044,61.0,0.03742137500000098
2788,57.0,0.03742137500000098,82.0,0.277236666666667
2789,56.0,0.1380641666666662,79.0,0.1391725000000008
2790,57.0,0.1391725000000008,84.0,0.28957499999999925
2791,59.0,0.14478749999999962,79.0,0.14478749999999962
2792,57.0,0.14478749999999962,90.0,0.28525199999999984
2793,69.0,0.28525199999999984,92.0,0.13951550000000168
2794,55.0,0.27903100000000336,88.0,0.2815289166666659
2795,55.0,0.2815289166666659,91.0,0.28897650000000397
2796,57.0,0.25145775000000015,63.0,0.03751875000000382
2797,55.0,0.03751875000000382,91.0,0.2774569999999983
2798,54.0,0.13872849999999914,82.0,0.13872849999999914
2799,55.0,0.13872849999999914,88.0,0.28645099999999957
2800,57.0,0.14322549999999978,82.0,0.14322549999999978
2801,54.0,0.14322549999999978,90.0,0.2818889999999996
2802,42.0,0.14094450000000336,74.0,0.14094449999999625
2803,54.0,0.14094449999999625,84.0,0.28245341666666945
2804,54.0,0.14075625000000258,81.0,0.14169716666666687
2805,66.0,0.14169716666666687,89.0,0.2865239166666598
2806,66.0,0.1427139166666649,88.0,0.1438099999999949
2807,78.0,0.1438099999999949,93.0,0.28879500000000036
2808,48.0,0.28879500000000036,82.0,0.1444180000000017
2809,57.0,0.2888360000000034,79.0,0.14262599999999992
2810,56.0,0.28525199999999984,82.0,0.1440575000000024
2811,49.0,0.2881149999999977,61.0,0.14334199999999697
2812,54.0,0.28668400000000105,66.0,0.14478749999999962
2813,49.0,0.28957499999999925,68.0,0.1440575000000024
2814,44.0,0.2881149999999977,60.0,0.1440575000000024
2815,51.0,0.2881150000000048,58.0,0.1440574999999953
2816,49.0,0.2881149999999977,55.0,0.1440575000000024
2817,37.0,0.2881149999999977,48.0,0.14515200000000306
2818,42.0,0.290303999999999,50.0,0.14298649999999924
2819,40.0,0.2859729999999985,51.0,0.1440575000000024
2820,32.0,0.2881149999999977,45.0,0.1440575000000024
2821,39.0,0.2881150000000048,45.0,0.1440574999999953
2822,49.0,0.2881149999999977,46.0,1.1241862958333328
2823,35.0,0.2783450000000016,31.0,0.2845489999999984
2824,32.0,0.2845489999999984,31.0,0.2845489999999984
2825,33.0,0.2845489999999984,36.0,0.27674329583333446
2826,61.0,0.27674329583333446,46.0,0.2841425187500022
2827,73.0,0.2841425187500022,46.0,0.2841579999999979
2828,37.0,0.2841579999999979,46.0,1.127637593750002
2829,28.0,0.27747096041667163,31.0,0.28338063333332997
2830,25.0,0.28338063333332997,31.0,0.2833930000000038
2831,14.0,0.2833930000000038,38.0,0.2833929999999967
2832,61.0,0.2833929999999967,53.0,0.2833930000000038
2833,61.0,0.2833930000000038,59.0,0.2833929999999967
2834,42.0,0.2833929999999967,63.0,0.26706399999999775
2835,42.0,0.13213549999999685,66.0,0.050598187500000336
2836,42.0,0.1349285000000009,67.0,0.05012700000000336
2837,42.0,0.1335181666666685,68.0,0.05181468749999851
2838,42.0,0.13817250000000314,79.0,0.2819494999999961
2839,44.0,0.2819494999999961,88.0,0.27515624583333675
2840,56.0,0.27515624583333675,76.0,0.2713658812499915
2841,54.0,0.1356868812499954,74.0,0.1356789999999961
2842,56.0,0.1356789999999961,76.0,0.27516556875000475
2843,57.0,0.1356790000000032,72.0,0.13948656875000154
2844,45.0,0.13948656875000154,63.0,0.26644699999999943
2845,45.0,0.13183349999999905,66.0,0.050480062500000145
2846,45.0,0.13461350000000039,67.0,0.049664437499998826
2847,45.0,0.13243849999999924,66.0,0.052318312499998854
2848,45.0,0.13951550000000168,79.0,0.2831520000000012
2849,47.0,0.2831520000000012,87.0,0.2736428520833343
2850,59.0,0.2736428520833343,76.0,0.2706422229166705
2851,57.0,0.13532422291666535,74.0,0.13531800000000516
2852,59.0,0.13531800000000516,76.0,0.2740258166666649
2853,60.0,0.13531799999999805,72.0,0.13870781666666687
2854,48.0,0.13870781666666687,56.0,0.2636789999999962
2855,48.0,0.13092999999999932,60.0,0.04978087500000328
2856,48.0,0.1327489999999969,64.0,0.04909874999999886
2857,48.0,0.13092999999999932,68.0,0.05282925000000205
2858,48.0,0.13973611249999607,82.0,0.2783450000000016
2859,49.0,0.2783450000000016,63.0,0.26738049999999447
2860,49.0,0.13213549999999685,66.0,0.050716874999999106
2861,49.0,0.13524499999999762,71.0,0.05036268749999806
2862,49.0,0.13430050000000193,73.0,0.05257256250000353
2863,49.0,0.1401935000000023,81.0,0.2803869999999975
2864,49.0,0.2803869999999975,64.0,0.26891699999999474
2865,49.0,0.13367199999999713,68.0,0.050716874999999106
2866,49.0,0.13524499999999762,73.0,0.05036268749999806
2867,49.0,0.13430050000000193,75.0,0.052064062500001285
2868,49.0,0.13883750000000106,84.0,0.2864327166666669
2869,47.0,0.2864327166666669,90.0,0.2841579999999979
2870,54.0,0.2841579999999979,90.0,0.2766760000000019
2871,56.0,0.2766760000000019,85.0,0.2813859999999977
2872,57.0,0.2813859999999977,85.0,0.2813860000000048
2873,78.0,0.2813860000000048,101.0,0.14069299999999885
2874,62.0,0.2813859999999977,86.0,0.28384899999999647
2875,74.0,0.28384899999999647,99.0,0.14053499999999985
2876,59.0,0.2810699999999997,85.0,0.2845489999999984
2877,71.0,0.2845489999999984,99.0,0.14053499999999985
2878,57.0,0.2810699999999997,89.0,0.28957125208333423
2879,69.0,0.28957125208333423,99.0,0.1422744999999992
2880,56.0,0.2845489999999984,86.0,0.290303999999999
2881,68.0,0.290303999999999,99.0,0.14334199999999697
2882,56.0,0.28668400000000105,89.0,0.2917719999999946
2883,44.0,0.515552999999997,36.0,0.515552999999997
2884,44.0,0.515552999999997,35.0,0.5130270000000081
2885,42.0,0.5130270000000081,35.0,0.5163621666666671
2886,44.0,0.5163621666666671,32.0,0.5199513333333243
2887,44.0,0.5199513333333243,32.0,0.5235636666666608
2888,42.0,0.5235636666666608,31.0,0.5272366666666812
2889,44.0,0.5272366666666812,31.0,0.5341400000000078
2890,49.0,0.5341400000000078,54.0,0.5313030000000083
2891,44.0,0.5313030000000083,49.0,0.504413999999997
2892,45.0,0.504413999999997,52.0,0.51715200000001
2893,54.0,0.51715200000001,57.0,1.0179060000000106
2894,45.0,0.510421000000008,25.0,0.5074850000000026
2895,52.0,0.5074850000000026,52.0,0.5122949999999946
2896,52.0,0.5122949999999946,52.0,0.5091219999999907
2897,45.0,0.5091219999999907,45.0,0.5126009999999894
2898,47.0,0.5126009999999894,46.0,0.5288669999999911
2899,49.0,0.5288669999999911,52.0,3.5979839999999967
2900,45.0,0.5288670000000195,28.0,0.5091219999999907
2901,45.0,0.5091219999999907,27.0,0.5155530000000113
2902,45.0,0.5155530000000113,28.0,0.5155529999999828
2903,45.0,0.5155529999999828,24.0,0.5074850000000026
2904,45.0,0.5074850000000026,24.0,0.5139189999999871
2905,45.0,0.5139189999999871,24.0,0.5074850000000026
2906,40.0,0.5074850000000026,24.0,0.5074850000000026
2907,28.0,0.5074850000000026,24.0,0.5139189999999871
2908,40.0,0.5139189999999871,24.0,0.5187620000000095
2909,28.0,0.5187620000000095,23.0,0.5122949999999946
2910,28.0,0.5122949999999946,23.0,0.5122949999999946
2911,28.0,0.5122949999999946,23.0,0.512295000000023
2912,28.0,0.512295000000023,22.0,0.5187620000000095
2913,28.0,0.5187620000000095,22.0,0.5287739999999985
2914,50.0,0.5287739999999985,53.0,0.5155530000000113
2915,46.0,0.5155530000000113,49.0,0.504413999999997
2916,47.0,0.504413999999997,54.0,0.5165908124999987
2917,55.0,0.5165908124999987,58.0,1.015658000000002
2918,47.0,0.5081729999999993,27.0,0.5074850000000026
2919,54.0,0.5074850000000026,54.0,0.5122949999999946
2920,54.0,0.5122949999999946,54.0,0.5091219999999907
2921,47.0,0.5091219999999907,49.0,0.5091220000000192
2922,49.0,0.5091220000000192,51.0,0.5155530000000113
2923,52.0,0.5155530000000113,53.0,0.5155529999999828
2924,50.0,0.5155529999999828,51.0,3.0691169999999772
2925,47.0,0.5091219999999907,26.0,0.5155530000000113
2926,47.0,0.5155530000000113,28.0,0.5155529999999828
2927,47.0,0.5155529999999828,29.0,0.5074850000000026
2928,47.0,0.5074850000000026,27.0,0.5139189999999871
2929,47.0,0.5139189999999871,27.0,0.5074850000000026
2930,42.0,0.5074850000000026,26.0,0.5074850000000026
2931,42.0,0.5074850000000026,25.0,0.5139189999999871
2932,42.0,0.5139189999999871,25.0,0.5187620000000095
2933,42.0,0.5187620000000095,24.0,0.5122949999999946
2934,42.0,0.5122949999999946,24.0,0.5122949999999946
2935,42.0,0.5122949999999946,24.0,0.512295000000023
2936,42.0,0.512295000000023,23.0,0.5122949999999946
2937,42.0,0.5122949999999946,23.0,0.5122949999999946
2938,40.0,0.5122949999999946,28.0,0.5122949999999946
2939,47.0,0.5122949999999946,39.0,0.5122949999999946
2940,49.0,0.5122949999999946,39.0,0.522057999999987
2941,29.0,0.3891027500000064,26.0,0.06647762500000454
2942,30.0,0.06647762500000454,26.0,0.06647762499997611
2943,45.0,0.06647762499997611,46.0,1.050558291666647
2944,30.0,0.09226275000000328,21.0,0.09125662499999976
2945,32.0,0.09125662499999976,24.0,0.09008716666667738
2946,30.0,0.09008716666667738,22.0,0.0890222499999993
2947,32.0,0.0890222499999993,24.0,0.08790316666664921
2948,30.0,0.08790316666664921,21.0,0.08689899999998829
2949,38.0,0.08689899999998829,25.0,0.5131273333333297
2950,30.0,0.08608816666665575,21.0,0.08573383333333595
2951,32.0,0.08573383333333595,24.0,0.0856478333333257
2952,30.0,0.0856478333333257,21.0,0.0853898333333234
2953,32.0,0.0853898333333234,24.0,0.08521916666668972
2954,30.0,0.08521916666668972,21.0,0.0850484999999992
2955,42.0,0.0850484999999992,39.0,0.5295134583332697
2956,30.0,0.12835216666661609,21.0,0.13157987499997148
2957,32.0,0.13157987499997148,24.0,0.06705691666667235
2958,30.0,0.06705691666667235,20.0,0.06792741666666302
2959,28.0,0.06792741666666302,24.0,0.06847604166665633
2960,30.0,0.06847604166665633,18.0,0.06612104166669042
2961,40.0,0.06612104166669042,36.0,0.5123389999999972
2962,47.0,0.5123389999999972,39.0,0.5123389999999972
2963,49.0,0.5123389999999972,39.0,0.5198824999999943
2964,29.0,0.38802599999999643,26.0,0.06592825000001312
2965,30.0,0.06592825000001312,26.0,0.0659282499999847
2966,45.0,0.0659282499999847,46.0,1.0465800416666582
2967,30.0,0.091554583333334,21.0,0.09057029166666553
2968,32.0,0.09057029166666553,24.0,0.08969733333333352
2969,30.0,0.08969733333333352,22.0,0.0887381249999919
2970,32.0,0.0887381249999919,24.0,0.08790316666667763
2971,30.0,0.08790316666667763,21.0,0.08689899999998829
2972,38.0,0.08689899999998829,27.0,0.5112175416666673
2973,30.0,0.08573383333333595,21.0,0.08556183333334388
2974,32.0,0.08556183333334388,24.0,0.0853898333333234
2975,30.0,0.0853898333333234,21.0,0.0850484999999992
2976,32.0,0.0850484999999992,24.0,0.08487200000001849
2977,30.0,0.08487200000001849,21.0,0.08461154166664642
2978,42.0,0.08461154166664642,43.0,0.5231269583333074
2979,30.0,0.12731074999999237,21.0,0.12976366666663353
2980,32.0,0.12976366666663353,24.0,0.06592708333332098
2981,30.0,0.06592708333332098,20.0,0.06648229166668784
2982,28.0,0.06648229166668784,24.0,0.06804825000000392
2983,30.0,0.06804825000000392,18.0,0.06559491666666872
2984,32.0,0.06559491666666872,34.0,0.5081729999999993
2985,47.0,0.5081729999999993,44.0,0.5020920000000046
2986,49.0,0.5020920000000046,45.0,0.5123389999999972
2987,50.0,0.5123389999999972,47.0,0.5123389999999972
2988,51.0,0.5123389999999972,48.0,0.5252099999999871
2989,52.0,0.5252099999999871,52.0,0.5187170000000094
2990,53.0,0.5187170000000094,56.0,0.5274259999999913
2991,54.0,0.5274259999999913,52.0,0.5592320000000086
2992,44.0,0.5592320000000086,35.0,0.5487469999999917
2993,45.0,0.5487469999999917,36.0,0.5487470000000201
2994,37.0,0.5487470000000201,39.0,0.269299999999987
2995,35.0,0.269299999999987,37.0,0.2594283333333465
2996,33.0,0.2594283333333465,36.0,0.25862050000000636
2997,32.0,0.25862050000000636,35.0,0.2575104999999951
2998,32.0,0.2575104999999951,39.0,1.5246500000000083
2999,30.0,0.25210100000001034,39.0,0.2521009999999819
3000,28.0,0.2521009999999819,37.0,0.25210100000001034
3001,27.0,0.25210100000001034,36.0,0.25210100000001034
3002,25.0,0.25210100000001034,35.0,0.2542374999999879
3003,23.0,0.2542374999999879,35.0,0.2620085000000074
3004,47.0,0.2620085000000074,36.0,1.5682284999999752
3005,37.0,0.5309729999999888,42.0,0.26565149999998994
3006,35.0,0.26565149999998994,37.0,0.25960637500000416
3007,33.0,0.25960637500000416,36.0,0.2572430416666691
3008,32.0,0.2572430416666691,36.0,0.2547545833333231
3009,32.0,0.2547545833333231,39.0,1.5155550000000062
3010,30.0,0.2510460000000023,39.0,0.2510460000000023
3011,28.0,0.2510460000000023,37.0,0.24691350000000511
3012,27.0,0.24691350000000511,36.0,0.24691350000000511
3013,40.0,0.24691350000000511,42.0,0.25531899999998586
3014,42.0,0.25531899999998586,37.0,0.26431700000000546
3015,43.0,0.26431700000000546,45.0,1.2731914999999958
3016,44.0,0.5188960000000122,39.0,1.0197819999999922
3017,37.0,0.2594479999999919,36.0,0.24793399999998655
3018,39.0,0.24793399999998655,37.0,0.24691350000000511
3019,56.0,0.24691350000000511,52.0,0.2654865000000086
3020,56.0,0.2654865000000086,49.0,1.5459690000000137
3021,39.0,0.2581309999999917,37.0,0.2581310000000201
3022,31.0,0.2581310000000201,41.0,0.2531644999999969
3023,32.0,0.2531644999999969,36.0,0.2531644999999969
3024,48.0,0.2531644999999969,39.0,0.5233780000000081
3025,39.0,0.26168899999998985,35.0,0.26168900000001827
3026,49.0,0.26168900000001827,46.0,1.547996999999981
3027,25.0,0.5233779999999797,41.0,0.25837549999999965
3028,32.0,0.25837549999999965,35.0,0.25282300000000646
3029,52.0,0.25282300000000646,45.0,0.5134204999999952
3030,39.0,0.24793399999998655,35.0,0.2654865000000086
3031,46.0,0.2654865000000086,47.0,1.5483119999999815
3032,37.0,0.25706950000000006,35.0,0.25706950000000006
3033,29.0,0.25706950000000006,36.0,0.2531644999999969
3034,30.0,0.2531644999999969,35.0,0.2531644999999969
3035,39.0,0.2531644999999969,37.0,0.263922000000008
3036,37.0,0.263922000000008,35.0,0.26392199999997956
3037,47.0,0.26392199999997956,47.0,1.0477122500000462
3038,37.0,0.527844000000016,39.0,0.2605974999999887
3039,35.0,0.2605974999999887,37.0,0.2592707500000415
3040,47.0,0.2592707500000415,45.0,0.5137739166666506
3041,32.0,0.25760024999999587,35.0,0.25617366666665475
3042,32.0,0.25617366666665475,39.0,1.5225749999999891
3043,30.0,0.2531644999999969,39.0,0.2531644999999969
3044,28.0,0.2531644999999969,37.0,0.25
3045,27.0,0.25,36.0,0.25
3046,25.0,0.25,35.0,0.2542374999999879
3047,23.0,0.2542374999999879,35.0,0.2620085000000074
3048,47.0,0.2620085000000074,46.0,1.5644815833333325
3049,37.0,0.5291475833333266,42.0,0.2605974999999887
3050,35.0,0.2605974999999887,37.0,0.26059750000001713
3051,33.0,0.26059750000001713,36.0,0.5141390000000001
3052,32.0,0.25706950000000006,36.0,0.25706950000000006
3053,39.0,0.25706950000000006,45.0,1.5600967499999854
3054,30.0,0.25706950000000006,39.0,0.25706950000000006
3055,37.0,0.25706950000000006,38.0,0.25641941666665957
3056,27.0,0.25641941666665957,36.0,0.2594093333333376
3057,40.0,0.2594093333333376,42.0,0.26506449999999404
3058,42.0,0.26506449999999404,37.0,0.26506449999999404
3059,47.0,0.26506449999999404,47.0,1.5895820000000072
3060,35.0,0.5301290000000165,39.0,0.2614379999999983
3061,34.0,0.2614379999999983,36.0,0.2614379999999983
3062,43.0,0.2614379999999983,42.0,0.5365769999999941
3063,35.0,0.26828850000001125,34.0,0.26828849999998283
3064,47.0,0.26828849999998283,45.0,1.5867965000000197
3065,26.0,0.5313030000000083,43.0,0.2614379999999983
3066,32.0,0.2614379999999983,39.0,0.2614379999999983
3067,35.0,0.2614379999999983,43.0,0.5326175000000148
3068,33.0,0.26205450000000496,39.0,0.2705630000000099
3069,37.0,0.2705630000000099,45.0,1.070029500000004
3070,21.0,0.5313030000000083,41.0,1.070029500000004
3071,28.0,0.26565149999998994,36.0,0.27307500000000573
3072,52.0,0.27307500000000573,47.0,0.5313030000000083
3073,37.0,0.26565149999998994,36.0,0.26565150000001836
3074,52.0,0.26565150000001836,48.0,1.5939089999999965
3075,16.0,0.5313029999999799,39.0,0.26565150000001836
3076,23.0,0.26565150000001836,35.0,0.26565149999998994
3077,28.0,0.26565149999998994,39.0,0.26565149999998994
3078,35.0,0.26565149999998994,36.0,0.26565150000001836
3079,40.0,0.26565150000001836,39.0,1.611805000000004
3080,39.0,0.26565149999998994,34.0,0.26565150000001836
3081,38.0,0.26565150000001836,35.0,0.26565149999998994
3082,37.0,0.26565149999998994,34.0,0.26565149999998994
3083,48.0,0.26565149999998994,45.0,0.5491990000000158
3084,28.0,0.2696870000000047,35.0,0.2795120000000111
3085,49.0,0.2795120000000111,57.0,0.5386000000000024
3086,44.0,0.5386000000000024,49.0,0.504413999999997
3087,45.0,0.504413999999997,52.0,0.51687154166666
3088,54.0,0.51687154166666,56.0,1.0179059999999822
3089,45.0,0.5104209999999796,25.0,0.5074850000000026
3090,52.0,0.5074850000000026,52.0,0.51715200000001
3091,52.0,0.51715200000001,52.0,0.5091219999999907
3092,45.0,0.5091219999999907,44.0,0.5091220000000192
3093,47.0,0.5091220000000192,45.0,0.5155530000000113
3094,49.0,0.5155530000000113,52.0,3.58466999999996
3095,45.0,0.5155529999999828,28.0,0.5091219999999907
3096,45.0,0.5091219999999907,27.0,0.5155530000000113
3097,45.0,0.5155530000000113,27.0,0.5155529999999828
3098,45.0,0.5155529999999828,24.0,0.5074850000000026
3099,45.0,0.5074850000000026,24.0,0.5139189999999871
3100,45.0,0.5139189999999871,24.0,0.5074850000000026
3101,28.0,0.5074850000000026,24.0,0.5074850000000026
3102,40.0,0.5074850000000026,24.0,0.5139189999999871
3103,28.0,0.5139189999999871,24.0,0.5187620000000095
3104,28.0,0.5187620000000095,24.0,0.5122949999999946
3105,28.0,0.5122949999999946,24.0,0.5122949999999946
3106,28.0,0.5122949999999946,24.0,0.512295000000023
3107,40.0,0.512295000000023,24.0,0.5187620000000095
3108,28.0,0.5187620000000095,24.0,0.5287739999999985
3109,50.0,0.5287739999999985,53.0,0.5155530000000113
3110,46.0,0.5155530000000113,50.0,0.504413999999997
3111,47.0,0.504413999999997,57.0,0.51687154166666
3112,55.0,0.51687154166666,58.0,1.0179059999999822
3113,47.0,0.5104209999999796,30.0,0.5074850000000026
3114,54.0,0.5074850000000026,54.0,0.5122949999999946
3115,54.0,0.5122949999999946,54.0,0.5091219999999907
3116,47.0,0.5091219999999907,49.0,0.5091220000000192
3117,49.0,0.5091220000000192,52.0,0.5155530000000113
3118,52.0,0.5155530000000113,58.0,0.5155529999999828
3119,50.0,0.5155529999999828,54.0,3.0691169999999772
3120,47.0,0.5091219999999907,26.0,0.5155530000000113
3121,47.0,0.5155530000000113,28.0,0.5155529999999828
3122,47.0,0.5155529999999828,29.0,0.5074850000000026
3123,47.0,0.5074850000000026,27.0,0.5139189999999871
3124,47.0,0.5139189999999871,27.0,0.5074850000000026
3125,42.0,0.5074850000000026,27.0,0.5074850000000026
3126,42.0,0.5074850000000026,27.0,0.5139189999999871
3127,42.0,0.5139189999999871,27.0,0.5187620000000095
3128,42.0,0.5187620000000095,27.0,0.5122949999999946
3129,42.0,0.5122949999999946,27.0,0.5122949999999946
3130,42.0,0.5122949999999946,27.0,0.512295000000023
3131,42.0,0.512295000000023,27.0,0.5122949999999946
3132,42.0,0.5122949999999946,27.0,0.5122949999999946
3133,40.0,0.5122949999999946,28.0,0.5122949999999946
3134,47.0,0.5122949999999946,39.0,0.5122949999999946
3135,49.0,0.5122949999999946,39.0,0.522057999999987
3136,29.0,0.3891027500000064,26.0,0.06647762500000454
3137,30.0,0.06647762500000454,26.0,0.06647762499997611
3138,45.0,0.06647762499997611,46.0,1.050558291666647
3139,30.0,0.09226275000000328,21.0,0.09125662499999976
3140,32.0,0.09125662499999976,24.0,0.09008716666667738
3141,30.0,0.09008716666667738,22.0,0.0890222499999993
3142,32.0,0.0890222499999993,24.0,0.08790316666664921
3143,30.0,0.08790316666664921,21.0,0.08689899999998829
3144,38.0,0.08689899999998829,25.0,0.5131273333333297
3145,30.0,0.08608816666665575,21.0,0.08573383333333595
3146,32.0,0.08573383333333595,24.0,0.0856478333333257
3147,30.0,0.0856478333333257,21.0,0.0853898333333234
3148,32.0,0.0853898333333234,24.0,0.08521916666668972
3149,30.0,0.08521916666668972,21.0,0.0850484999999992
3150,42.0,0.0850484999999992,39.0,0.5295134583332697
3151,30.0,0.12835216666661609,21.0,0.13157987499997148
3152,32.0,0.13157987499997148,24.0,0.06705691666667235
3153,30.0,0.06705691666667235,20.0,0.06792741666666302
3154,28.0,0.06792741666666302,24.0,0.06847604166665633
3155,30.0,0.06847604166665633,18.0,0.06612104166669042
3156,40.0,0.06612104166669042,36.0,0.5123389999999972
3157,47.0,0.5123389999999972,39.0,0.5123389999999972
3158,49.0,0.5123389999999972,39.0,0.5198824999999943
3159,29.0,0.38802599999999643,26.0,0.06592825000001312
3160,30.0,0.06592825000001312,26.0,0.0659282499999847
3161,45.0,0.0659282499999847,46.0,1.0465800416666582
3162,30.0,0.091554583333334,21.0,0.09057029166666553
3163,32.0,0.09057029166666553,24.0,0.08969733333333352
3164,30.0,0.08969733333333352,22.0,0.0887381249999919
3165,32.0,0.0887381249999919,24.0,0.08790316666667763
3166,30.0,0.08790316666667763,21.0,0.08689899999998829
3167,38.0,0.08689899999998829,27.0,0.5112175416666673
3168,30.0,0.08573383333333595,21.0,0.08556183333334388
3169,32.0,0.08556183333334388,24.0,0.0853898333333234
3170,45.0,0.5148889999999824,24.0,0.5074849999999742
3171,45.0,0.5074849999999742,24.0,0.5139189999999871
3172,45.0,0.5139189999999871,24.0,0.5074849999999742
3173,40.0,0.5074849999999742,24.0,0.507485000000031
3174,28.0,0.507485000000031,24.0,0.5139189999999871
3175,28.0,0.5139189999999871,24.0,0.5187619999999811
3176,28.0,0.5187619999999811,24.0,0.5122949999999946
3177,28.0,0.5122949999999946,24.0,0.5122949999999946
3178,28.0,0.5122949999999946,24.0,0.5122949999999946
3179,28.0,0.5122949999999946,24.0,0.5187619999999811
3180,28.0,0.5187619999999811,24.0,0.5287739999999985
3181,50.0,0.5287739999999985,54.0,0.5155530000000113
3182,46.0,0.5155530000000113,52.0,0.504413999999997
3183,47.0,0.504413999999997,54.0,0.51687154166666
3184,55.0,0.51687154166666,59.0,1.0179059999999822
3185,47.0,0.510421000000008,30.0,0.5074849999999742
3186,54.0,0.5074849999999742,56.0,0.5122949999999946
3187,54.0,0.5122949999999946,58.0,0.5091219999999907
3188,47.0,0.5091219999999907,49.0,0.5091219999999907
3189,49.0,0.5091219999999907,51.0,0.5155530000000113
3190,52.0,0.5155530000000113,57.0,0.5155530000000113
3191,50.0,0.5155530000000113,52.0,3.069116999999949
3192,47.0,0.5091219999999907,26.0,0.5155530000000113
3193,47.0,0.5155530000000113,28.0,0.5155530000000113
3194,47.0,0.5155530000000113,29.0,0.5074849999999742
3195,47.0,0.5074849999999742,27.0,0.5139189999999871
3196,47.0,0.5139189999999871,27.0,0.5074849999999742
3197,42.0,0.5074849999999742,27.0,0.507485000000031
3198,42.0,0.507485000000031,27.0,0.5139189999999871
3199,42.0,0.5139189999999871,27.0,0.5187619999999811
3200,42.0,0.5187619999999811,27.0,0.5122949999999946
3201,42.0,0.5122949999999946,27.0,0.5122949999999946
3202,42.0,0.5122949999999946,27.0,0.5122949999999946
3203,42.0,0.5122949999999946,27.0,0.5122949999999946
3204,42.0,0.5122949999999946,27.0,0.5122949999999946
3205,40.0,0.5122949999999946,28.0,0.5122950000000515
3206,47.0,0.5122950000000515,39.0,0.5122949999999946
3207,49.0,0.5122949999999946,39.0,0.5220580000000155
3208,29.0,0.3891027500000064,26.0,0.06647762500000454
3209,30.0,0.06647762500000454,26.0,0.06647762500000454
3210,45.0,0.06647762500000454,46.0,1.0505582916667322
3211,30.0,0.09226274999997486,21.0,0.09125662500002818
3212,32.0,0.09125662500002818,24.0,0.09008716666664895
3213,30.0,0.09008716666664895,22.0,0.08902225000002773
3214,32.0,0.08902225000002773,24.0,0.08790316666664921
3215,30.0,0.08790316666664921,21.0,0.08689900000001671
3216,38.0,0.08689900000001671,25.0,0.5131273333333866
3217,30.0,0.08608816666668417,21.0,0.08573383333333595
3218,32.0,0.08573383333333595,24.0,0.0856478333333257
3219,30.0,0.0856478333333257,21.0,0.08538983333335182
3220,32.0,0.08538983333335182,24.0,0.0852191666666613
3221,30.0,0.0852191666666613,21.0,0.08504850000002762
3222,42.0,0.08504850000002762,39.0,0.5295134583333834
3223,30.0,0.12835216666667293,21.0,0.13157987500005675
3224,32.0,0.13157987500005675,24.0,0.0670569166667292
3225,30.0,0.0670569166667292,20.0,0.0679274166666346
3226,28.0,0.0679274166666346,24.0,0.06847604166665633
3227,30.0,0.06847604166665633,18.0,0.06612104166663357
3228,40.0,0.06612104166663357,36.0,0.5123389999999972
3229,47.0,0.5123389999999972,39.0,0.5123389999999972
3230,49.0,0.5123389999999972,39.0,0.5198824999999943
3231,29.0,0.38802600000002485,26.0,0.06592824999995628
3232,30.0,0.06592824999995628,26.0,0.06592825000001312
3233,45.0,0.06592825000001312,46.0,1.0465800416666298
3234,30.0,0.091554583333334,21.0,0.09057029166666553
3235,32.0,0.09057029166666553,24.0,0.08969733333333352
3236,30.0,0.08969733333333352,22.0,0.08873812500002032
3237,32.0,0.08873812500002032,24.0,0.08790316666659237
3238,30.0,0.08790316666659237,21.0,0.08689900000001671
3239,38.0,0.08689900000001671,27.0,0.5112175416666673
3240,30.0,0.08573383333333595,21.0,0.08556183333331546
3241,32.0,0.08556183333331546,24.0,0.08538983333335182
3242,30.0,0.08538983333335182,21.0,0.08504850000002762
3243,32.0,0.08504850000002762,24.0,0.08487199999996164
3244,30.0,0.08487199999996164,21.0,0.08461154166667484
3245,42.0,0.08461154166667484,43.0,0.523126958333421
3246,30.0,0.1273107500000492,21.0,0.12976366666669037
3247,32.0,0.12976366666669037,24.0,0.0659270833333494
3248,30.0,0.0659270833333494,20.0,0.06648229166665942
3249,28.0,0.06648229166665942,24.0,0.06804825000006076
3250,30.0,0.06804825000006076,18.0,0.06559491666661188
3251,32.0,0.06559491666661188,34.0,0.5081729999999993
3252,47.0,0.5081729999999993,44.0,0.49582383333330426
3253,49.0,0.49582383333330426,45.0,0.5037780000000112
3254,50.0,0.5037780000000112,47.0,0.5037780000000112
3255,51.0,0.5037780000000112,51.0,0.510421000000008
3256,52.0,0.510421000000008,57.0,0.518716999999981
3257,53.0,0.518716999999981,49.0,0.4958679999999731
3258,54.0,0.4958679999999731,51.0,0.7672739999999862
3259,38.0,0.5141094999999609,27.0,0.5063289999999938
3260,53.0,0.2531645000000253,49.0,0.2531644999999685
3261,53.0,0.2531644999999685,50.0,0.5240170000000148
3262,54.0,0.5240170000000148,51.0,0.7694869999999696
3263,53.0,0.7694869999999696,54.0,0.24390249999999014
3264,53.0,0.24390249999999014,58.0,0.4864210000000071
3265,52.0,0.4864210000000071,63.0,0.7207960000000071
3266,51.0,0.7207960000000071,55.0,0.234375
3267,51.0,0.234375,61.0,0.46153800000001866
3268,50.0,0.46153800000001866,61.0,0.6854184999999688
3269,49.0,0.6854184999999688,61.0,0.22388050000000703
3270,49.0,0.22388050000000703,66.0,0.44280400000002373
3271,48.0,0.44280400000002373,68.0,0.6570894999999837
3272,47.0,0.6570894999999837,67.0,0.21428549999995994
3273,47.0,0.21428549999995994,73.0,0.4225349999999821
3274,45.0,0.4225349999999821,73.0,0.34285699999998087
3275,37.0,0.34285699999998087,73.0,0.2930549999999812
3276,42.0,0.2930549999999812,56.0,0.2682815000000005
3277,42.0,0.1328965000000153,58.0,0.05076937500001577
3278,42.0,0.1353849999999852,64.0,0.049721625000017866
3279,42.0,0.1325909999999908,65.0,0.05300362499997391
3280,42.0,0.138783083333351,72.0,0.2847919999999817
3281,44.0,0.2847919999999817,80.0,0.27671400000002677
3282,23.0,0.22483012499998267,37.0,0.2736362500000382
3283,30.0,0.017294625000033648,37.0,0.25634162500000457
3284,32.0,0.017294624999976804,37.0,0.23904700000002777
3285,56.0,0.017294625000033648,68.0,0.22175237499999412
3286,54.0,0.136462999999992,66.0,0.136462999999992
3287,25.0,0.08528937500000211,37.0,0.32897712499999443
3288,32.0,0.017057874999977685,37.0,0.31191925000001675
3289,35.0,0.017057875000034528,37.0,0.2948613749999822
3290,56.0,0.017057874999977685,68.0,0.27780350000000453
3291,57.0,0.1350620000000049,65.0,0.14274149999999963
3292,45.0,0.14274149999999963,59.0,0.267975999999976
3293,45.0,0.1325909999999908,61.0,0.05076937500001577
3294,45.0,0.1353849999999852,67.0,0.049721625000017866
3295,45.0,0.1325909999999908,66.0,0.05366081250002708
3296,45.0,0.1400019999999813,75.0,0.2812940000000026
3297,47.0,0.2812940000000026,82.0,0.2751910000000066
3298,27.0,0.22359268750000183,39.0,0.2727469999999812
3299,33.0,0.01719943749998265,39.0,0.25554756249999855
3300,35.0,0.017199437500039494,39.0,0.23834812499995905
3301,59.0,0.01719943749998265,72.0,0.2211486874999764
3302,57.0,0.13609150000002046,70.0,0.13609149999996362
3303,28.0,0.08505718749995594,39.0,0.3275173124999924
3304,35.0,0.017011437500002557,39.0,0.31050587499998983
3305,38.0,0.017011437500002557,39.0,0.29349443749998727
3306,59.0,0.017011437500002557,72.0,0.2764829999999847
3307,60.0,0.13444449999997232,65.0,0.1420385000000124
3308,48.0,0.1420385000000124,56.0,0.26495233333332635
3309,48.0,0.13108449999998584,60.0,0.05018062499999587
3310,48.0,0.1338678333333405,64.0,0.04938318749998416
3311,48.0,0.13168849999999566,69.0,0.05352806249999276
3312,48.0,0.14120316666668487,79.0,0.2751910000000066
3313,49.0,0.2751910000000066,63.0,0.2673434999999813
3314,49.0,0.1325909999999908,66.0,0.05053218749998223
3315,49.0,0.1347524999999905,67.0,0.049836187499977314
3316,47.0,0.1328965000000153,68.0,0.05366081250002708
3317,49.0,0.14309550000001536,81.0,0.2786029999999755
3318,49.0,0.2786029999999755,63.0,0.2692149999999742
3319,49.0,0.13351149999999734,66.0,0.05088881249997712
3320,49.0,0.13570349999997688,67.0,0.05041668749998962
3321,49.0,0.13444449999997232,67.0,0.051984749999974156
3322,49.0,0.13862599999998793,85.0,0.28063600000001543
3323,49.0,0.28063600000001543,78.0,0.2857960000000048
3324,47.0,0.2857960000000048,78.0,0.278267000000028
3325,45.0,0.278267000000028,74.0,0.28236216666664404
3326,44.0,0.28236216666664404,61.0,0.27430050000003803
3327,40.0,0.13747625000002017,59.0,0.13682425000001786
3328,52.0,0.13682425000001786,78.0,0.2717815833332793
3329,45.0,0.13618424999998524,75.0,0.13559733333329405
3330,57.0,0.13559733333329405,82.0,0.26940433333334113
3331,49.0,0.13501266666668243,75.0,0.1343916666666587
3332,61.0,0.1343916666666587,76.0,0.26768283333331055
3333,52.0,0.1338678333333405,71.0,0.13381499999997004
3334,64.0,0.13381499999997004,78.0,0.27077000000002727
3335,57.0,0.1353849999999852,75.0,0.13538500000004206
3336,69.0,0.13538500000004206,82.0,0.2792910000000006
3337,61.0,0.1396454999999719,75.0,0.13964550000002873
3338,73.0,0.13964550000002873,82.0,0.2792910000000006
3339,71.0,0.2792910000000006,76.0,0.27462500000001455
3340,64.0,0.27462500000001455,73.0,0.28462999999999283
3341,64.0,0.28462999999999283,75.0,0.5592389999999909
3342,69.0,0.2786029999999755,68.0,0.28063600000001543
3343,52.0,0.28063600000001543,56.0,0.2833800000000224
3344,52.0,0.2833800000000224,56.0,0.5633940000000166
3345,57.0,0.2813990000000217,56.0,0.2819949999999949
3346,52.0,0.2819949999999949,55.0,0.2896870000000149
3347,52.0,0.2896870000000149,55.0,0.5814889999999764
3348,57.0,0.28654699999998456,56.0,0.2949419999999918
3349,52.0,0.2949419999999918,52.0,0.2861909999999739
3350,52.0,0.2861909999999739,56.0,0.8737439999999879
3351,49.0,0.8737439999999879,53.0,3.421175000000005
3352,35.0,0.8737439999999879,43.0,0.2783190000000104
3353,33.0,0.2783190000000104,37.0,0.28503599999999096
3354,30.0,0.28503599999999096,37.0,0.28503599999999096
3355,33.0,0.28503599999999096,43.0,0.2783190000000104
3356,32.0,0.2783190000000104,37.0,0.2857960000000048
3357,28.0,0.2857960000000048,37.0,0.2857960000000048
3358,30.0,0.2857960000000048,43.0,0.279057000000023
3359,28.0,0.279057000000023,37.0,0.28503599999999096
3360,25.0,0.28503599999999096,37.0,0.28503599999999096
3361,26.0,0.28503599999999096,39.0,0.28503599999999096
3362,25.0,0.28503599999999096,35.0,0.2850360000000478
3363,21.0,0.2850360000000478,35.0,0.28503599999999096
3364,42.0,0.28503599999999096,63.0,0.26735975000002554
3365,42.0,0.13228700000001936,66.0,0.05076937500001577
3366,42.0,0.13507275000000618,67.0,0.05006681250000611
3367,42.0,0.13351149999999734,68.0,0.05352806249999276
3368,42.0,0.13977891666672804,80.0,0.28061000000002423
3369,44.0,0.28061000000002423,90.0,0.27671400000002677
3370,56.0,0.27671400000002677,76.0,0.272925999999984
3371,54.0,0.136462999999992,74.0,0.136462999999992
3372,56.0,0.136462999999992,76.0,0.2771485000000098
3373,57.0,0.1347524999999905,72.0,0.14239600000001928
3374,45.0,0.14239600000001928,63.0,0.26703950000000987
3375,45.0,0.13228700000001936,66.0,0.05053218749998223
3376,45.0,0.1347524999999905,67.0,0.04995112500000687
3377,45.0,0.13320299999998042,66.0,0.053789062500015916
3378,45.0,0.14178316666669843,79.0,0.2798379999999838
3379,47.0,0.2798379999999838,87.0,0.2751910000000066
3380,59.0,0.2751910000000066,76.0,0.2721829999999841
3381,57.0,0.13609150000002046,74.0,0.13609149999996362
3382,59.0,0.13609149999996362,76.0,0.2750914999999736
3383,60.0,0.13444449999997232,71.0,0.1406470000000013
3384,48.0,0.1406470000000013,56.0,0.2638954166666281
3385,48.0,0.13079299999998284,60.0,0.049836187499977314
3386,48.0,0.13310241666664524,64.0,0.04927087499999061
3387,48.0,0.13138900000001286,68.0,0.051984749999974156
3388,48.0,0.13862599999998793,80.0,0.2751910000000066
3389,50.0,0.2751910000000066,64.0,0.2677143333333447
3390,50.0,0.1325909999999908,67.0,0.05076937500001577
3391,50.0,0.1351233333333539,71.0,0.05006681250000611
3392,50.0,0.13351149999999734,72.0,0.05120316666665303
3393,50.0,0.13805691666669873,81.0,0.2751910000000066
3394,51.0,0.2751910000000066,66.0,0.26734900000002426
3395,51.0,0.13228700000001936,69.0,0.05064824999999473
3396,51.0,0.1350620000000049,74.0,0.05006681250000611
3397,51.0,0.13351149999999734,76.0,0.05064824999999473
3398,51.0,0.1350620000000049,86.0,0.2881009999999833
3399,55.0,0.2881009999999833,81.0,0.2857960000000048
3400,53.0,0.2857960000000048,81.0,0.278267000000028
3401,41.0,0.278267000000028,85.0,0.2830060000000003
3402,40.0,0.2830060000000003,61.0,0.2742653333334033
3403,40.0,0.13749516666672434,59.0,0.13677016666667896
3404,52.0,0.13677016666667896,78.0,0.2718349166666485
3405,45.0,0.13618424999998524,75.0,0.13565066666666326
3406,57.0,0.13565066666666326,82.0,0.26971658333332016
3407,48.0,0.13511808333333875,73.0,0.1345984999999814
3408,60.0,0.1345984999999814,76.0,0.26826399999998785
3409,52.0,0.13413200000002234,71.0,0.1341319999999655
3410,64.0,0.1341319999999655,78.0,0.272925999999984
3411,57.0,0.136462999999992,75.0,0.136462999999992
3412,69.0,0.136462999999992,82.0,0.2792910000000006
3413,60.0,0.1396454999999719,75.0,0.13964550000002873
3414,72.0,0.13964550000002873,82.0,0.2792910000000006
3415,71.0,0.2792910000000006,78.0,0.2759510000000205
3416,64.0,0.2759510000000205,73.0,0.28462999999999283
3417,64.0,0.28462999999999283,75.0,0.5598969999999781
3418,69.0,0.2786029999999755,68.0,0.2812940000000026
3419,52.0,0.2812940000000026,58.0,0.2833800000000224
3420,52.0,0.2833800000000224,58.0,0.5633940000000166
3421,57.0,0.2813990000000217,56.0,0.2819949999999949
3422,52.0,0.2819949999999949,56.0,0.2896870000000149
3423,52.0,0.2896870000000149,56.0,0.5713389999999663
3424,57.0,0.28654699999998456,55.0,0.2847919999999817
3425,52.0,0.2847919999999817,81.0,0.5653720000000249
3426,53.0,0.5653720000000249,75.0,0.13763999999997623
3427,52.0,0.13763999999997623,71.0,0.13764000000003307
3428,47.0,0.13764000000003307,73.0,0.13997749999998632
3429,48.0,0.13997749999998632,65.0,0.13997749999998632
3430,45.0,0.13997749999998632,70.0,0.8585729999999785
3431,53.0,0.8585729999999785,84.0,0.28596675000000005
3432,41.0,0.28596675000000005,48.0,0.14099750000002587
3433,36.0,0.14099750000002587,49.0,0.14062050000001136
3434,40.0,0.14062050000001136,50.0,0.14025900000001457
3435,41.0,0.14025900000001457,51.0,0.13989950000001272
3436,37.0,0.13989950000001272,52.0,0.13952849999998307
3437,43.0,0.13952849999998307,53.0,0.1391595000000052
3438,44.0,0.1391595000000052,54.0,0.1387925000000223
3439,45.0,0.1387925000000223,55.0,0.13844000000000278
3440,46.0,0.13844000000000278,57.0,0.13808349999999336
3441,47.0,0.13808349999999336,59.0,0.13772199999999657
3442,48.0,0.13772199999999657,59.0,0.13736249999999472
3443,49.0,0.13736249999999472,60.0,0.13736249999999472
3444,50.0,0.13736249999999472,64.0,0.13736249999999472
3445,51.0,0.13736249999999472,65.0,0.13736249999999472
3446,52.0,0.13736249999999472,66.0,0.13736249999999472
3447,53.0,0.13736249999999472,67.0,0.13736250000005157
3448,48.0,0.13736250000005157,68.0,0.27472499999998945
3449,49.0,0.27472499999998945,73.0,0.2778642500000501
3450,61.0,0.2778642500000501,80.0,0.1432735000000207
3451,66.0,0.28654699999998456,91.0,0.2865470000000414
3452,42.0,0.2865470000000414,48.0,0.14062050000001136
3453,42.0,0.14062050000001136,49.0,0.14031924999994771
3454,41.0,0.14031924999994771,50.0,0.14001933333338457
3455,42.0,0.14001933333338457,51.0,0.13965216666667857
3456,43.0,0.13965216666667857,52.0,0.13934399999999414
3457,48.0,0.13168849999999566,68.0,0.053133749999972224
3458,48.0,0.14054201874995442,82.0,0.27995499999997264
3459,50.0,0.27995499999997264,63.0,0.2689200000000369
3460,50.0,0.1328965000000153,66.0,0.05100881250001521
3461,50.0,0.1360235000000216,71.0,0.05064824999999473
3462,48.0,0.1350620000000049,73.0,0.05287406249999549
3463,50.0,0.14099750000002587,81.0,0.2819949999999949
3464,51.0,0.2819949999999949,64.0,0.27046799999999394
3465,51.0,0.13444449999997232,68.0,0.05100881250001521
3466,51.0,0.1360235000000216,73.0,0.05064824999999473
3467,51.0,0.1350620000000049,75.0,0.052367062500024986
3468,51.0,0.1396454999999719,84.0,0.29197099999998954
3469,54.0,0.29197099999998954,93.0,0.2726900000000114
3470,69.0,0.2726900000000114,94.0,0.13731250000000728
3471,53.0,0.27462500000001455,94.0,0.2786029999999755
3472,52.0,0.2786029999999755,88.0,0.28368799999998373
3473,69.0,0.28368799999998373,98.0,0.1445785000000228
3474,53.0,0.2891569999999888,84.0,0.2843599999999924
3475,65.0,0.2843599999999924,98.0,0.14492749999999432
3476,50.0,0.28985499999998865,84.0,0.2843599999999924
3477,62.0,0.2843599999999924,98.0,0.14527850000001763
3478,48.0,0.2905569999999784,84.0,0.2857139999999845
3479,60.0,0.2857139999999845,96.0,0.14492749999999432
3480,47.0,0.28985499999998865,84.0,0.28503599999999096
3481,59.0,0.28503599999999096,94.0,0.14492749999999432
3482,47.0,0.28985499999998865,79.0,0.29556700000000546
3483,64.0,0.29556700000000546,80.0,0.14423099999999067
3484,64.0,0.28846199999998134,82.0,0.2891569999999888
3485,33.0,0.2530123750000257,42.0,0.3281156249999526
3486,40.0,0.018072312499953114,44.0,0.3100433124999995
3487,69.0,0.018072312500009957,74.0,0.29197099999998954
3488,52.0,0.29197099999998954,46.0,0.14705900000001293
3489,52.0,0.29411800000002586,46.0,0.2920700000000238
3490,21.0,0.25556125000002794,25.0,0.3291917500000068
3491,28.0,0.018254374999969514,25.0,0.31093737500003726
3492,57.0,0.018254375000026357,43.0,0.2926830000000109
3493,52.0,0.2926830000000109,42.0,0.2985069999999723
3494,52.0,0.2985069999999723,46.0,0.29411800000002586
3495,57.0,0.29411800000002586,43.0,0.29925200000002405
3496,52.0,0.29925200000002405,39.0,0.29776700000002165
3497,52.0,0.29776700000002165,43.0,0.294840000000022
3498,57.0,0.294840000000022,40.0,0.29925200000002405
3499,52.0,0.29925200000002405,36.0,0.3061220000000162
3500,52.0,0.3061220000000162,39.0,0.29925200000002405
3501,57.0,0.29925200000002405,37.0,0.3022669999999721
3502,52.0,0.3022669999999721,33.0,0.30456900000001497
3503,52.0,0.30456900000001497,37.0,0.30000000000001137
3504,57.0,0.30000000000001137,35.0,0.3029539999999997
3505,52.0,0.3029539999999997,32.0,0.30792900000000145
3506,52.0,0.30792900000000145,35.0,0.31307099999997945
3507,57.0,0.31307099999997945,33.0,0.31704100000001745
3508,52.0,0.31704100000001745,30.0,0.32388700000001336
3509,52.0,0.32388700000001336,33.0,0.32670799999999645
3510,57.0,0.32670799999999645,31.0,0.34158800000000156
3511,52.0,0.34158800000000156,30.0,0.34158800000000156
3512,49.0,0.34158800000000156,51.0,0.5640690000000177
3513,44.0,0.5640690000000177,42.0,0.5516230000000064
3514,45.0,0.5516230000000064,46.0,0.5770899999999983
3515,54.0,0.5770899999999983,51.0,1.0682390000000055
3516,45.0,0.524612999999988,22.0,0.5436260000000175
3517,52.0,0.5436260000000175,47.0,0.5640690000000177
3518,52.0,0.5640690000000177,47.0,0.5397140000000036
3519,45.0,0.5397140000000036,38.0,0.5557099999999764
3520,47.0,0.5557099999999764,38.0,0.600180000000023
3521,49.0,0.600180000000023,49.0,3.928611999999987
3522,45.0,0.5726829999999836,24.0,0.5475950000000012
3523,45.0,0.5475950000000012,24.0,0.5683430000000271
3524,45.0,0.5683430000000271,23.0,0.5683429999999703
3525,45.0,0.5683429999999703,22.0,0.5557099999999764
3526,45.0,0.5557099999999764,22.0,0.5683430000000271
3527,45.0,0.5683430000000271,23.0,0.5475950000000012
3528,40.0,0.5475950000000012,22.0,0.5475950000000012
3529,40.0,0.5475950000000012,22.0,0.5598580000000197
3530,40.0,0.5598580000000197,23.0,0.5475950000000012
3531,40.0,0.5475950000000012,22.0,0.5436260000000175
3532,40.0,0.5436260000000175,22.0,0.5436259999999606
3533,40.0,0.5436259999999606,23.0,0.5557099999999764
3534,40.0,0.5557099999999764,22.0,0.5516230000000064
3535,40.0,0.5516230000000064,23.0,1.1768350000000396
3536,40.0,0.5907260000000178,23.0,0.5861090000000218
3537,23.0,0.5861090000000218,20.0,0.5640690000000177
3538,21.0,0.5640690000000177,20.0,0.600180000000023
3539,21.0,0.600180000000023,20.0,0.6304509999999937
3540,23.0,0.6304509999999937,20.0,0.600180000000023
3541,21.0,0.600180000000023,20.0,0.7284210000000257
3542,33.0,0.7284210000000257,23.0,8.497332000000029
3543,16.0,1.9743330000000014,20.0,0.16452774999999065
3544,21.0,1.9743330000000014,20.0,0.16452774999999065
3545,42.0,0.0,81.0,0.6930589520833333
3546,48.0,0.08904857708333334,81.0,0.604010375
3547,57.0,0.09055787500000001,96.0,0.5398071249999999
3548,56.0,0.5134525,80.0,0.44802862499999996
3549,55.0,0.421674,80.0,0.3895918749999998
3550,54.0,0.3696889999999997,81.0,0.3392170000000001
3551,52.0,0.318446,83.0,0.35310699999999984
3552,51.0,0.33233599999999996,78.0,1.8515727916666664
3553,25.0,2.0123444999999993,53.0,0.16519800000000018
3554,54.0,0.08259900000000009,40.0,0.09589191666666697
3555,51.0,0.08259900000000009,41.0,0.09305041666666636
3556,52.0,0.07975750000000037,42.0,0.0929256666666669
3557,44.0,0.07967433333333318,43.0,0.09275933333333342
3558,48.0,0.07950799999999969,45.0,0.0927187500000004
3559,49.0,0.07950800000000058,45.0,0.1585289999999997
3560,51.0,0.07926449999999985,46.0,0.09268370833333339
3561,25.0,0.07926449999999985,57.0,0.16103049999999985
3562,54.0,0.08051525000000037,49.0,0.09368283333333238
3563,56.0,0.08051524999999948,51.0,0.09217308333333296
3564,58.0,0.07900550000000006,51.0,0.09209312499999989
3565,60.0,0.07900550000000006,52.0,0.09161337499999966
3566,61.0,0.07852574999999984,53.0,0.0917343749999997
3567,63.0,0.07852574999999984,54.0,0.15850350000000013
3568,64.0,0.07925175000000007,56.0,0.09254466666666694
3569,25.0,0.07925175000000007,65.0,0.15951499999999985
3570,68.0,0.07975750000000037,57.0,0.09272495833333316
3571,70.0,0.07975749999999948,58.0,0.0907722083333331
3572,72.0,0.07780475000000031,59.0,0.0907326666666659
3573,73.0,0.07780474999999942,61.0,0.09049541666666627
3574,75.0,0.07756749999999979,62.0,0.09045674999999953
3575,76.0,0.07756749999999979,64.0,0.15467099999999956
3576,78.0,0.07733550000000022,65.0,0.09046299999999974
3577,25.0,0.07733549999999934,68.0,0.1575300000000004
3578,80.0,0.07876499999999975,65.0,0.09189250000000015
3579,78.0,0.07876500000000064,65.0,0.09050249999999949
3580,76.0,0.07765299999999975,63.0,0.08994649999999993
3581,75.0,0.0770970000000002,62.0,0.09014524999999995
3582,73.0,0.07725600000000021,61.0,0.09022474999999996
3583,72.0,0.07733550000000022,60.0,0.15505766666666698
3584,73.0,0.07749016666666719,59.0,0.07756749999999979
3585,25.0,0.07756749999999979,60.0,0.15801100000000012
3586,69.0,0.07900550000000006,57.0,0.09217308333333296
3587,68.0,0.07900550000000006,56.0,0.09137495833333364
3588,67.0,0.07836700000000008,56.0,0.09105570833333321
3589,68.0,0.07804774999999964,55.0,0.09125258333333353
3590,66.0,0.07820525000000078,54.0,0.09133133333333276
3591,64.0,0.07828400000000002,53.0,0.1569709166666664
3592,63.0,0.07844516666666657,52.0,0.09190116666666626
3593,25.0,0.07852574999999984,54.0,0.16050499999999968
3594,60.0,0.08025250000000028,50.0,0.0936279166666667
3595,61.0,0.0802524999999994,49.0,0.09258875
3596,59.0,0.0794211666666671,49.0,0.09217308333333296
3597,57.0,0.07900550000000006,48.0,0.09238891666666671
3598,56.0,0.07917816666666688,48.0,0.09247524999999968
3599,54.0,0.07926449999999985,46.0,0.1591016666666656
3600,52.0,0.07942683333333278,45.0,0.09317158333333264
3601,25.0,0.0796748333333328,51.0,0.1619610000000007
3602,52.0,0.0809804999999999,45.0,0.09427341666666678
3603,54.0,0.08098050000000079,45.0,0.09305041666666725
3604,56.0,0.07975749999999948,46.0,0.09305041666666725
3605,57.0,0.07975750000000126,47.0,0.09284249999999794
3606,59.0,0.0795911666666651,47.0,0.09293154166666717
3607,61.0,0.07950800000000058,48.0,0.16108249999999913
3608,63.0,0.08054124999999956,49.0,0.09396479166666794
3609,25.0,0.08054124999999956,59.0,0.15954675000000051
3610,59.0,0.08054125000000134,48.0,0.09217308333333385
3611,57.0,0.07900549999999917,49.0,0.09217308333333385
3612,56.0,0.07900550000000095,49.0,0.09197266666666515
3613,54.0,0.07884516666666563,50.0,0.09189250000000015
3614,52.0,0.07876500000000064,51.0,0.09196474999999893
3615,51.0,0.07868524999999948,51.0,0.15935400000000044
3616,54.0,0.07967700000000022,51.0,0.09305241666666753
3617,25.0,0.07967700000000022,56.0,0.16050500000000056
3618,53.0,0.08025250000000028,48.0,0.09329983333333303
3619,56.0,0.08025250000000028,51.0,0.09133133333333276
3620,54.0,0.07828400000000002,45.0,0.09170320833333356
3621,51.0,0.07828400000000002,45.0,0.09393445833333303
3622,45.0,0.08051524999999948,43.0,0.09389066666666857
3623,50.0,0.08051525000000126,44.0,0.16050500000000056
3624,51.0,0.08025250000000028,45.0,0.09358725000000057
3625,25.0,0.08025250000000028,51.0,0.16001699999999985
3626,51.0,0.08000849999999993,46.0,0.09330141666666592
3627,53.0,0.08000849999999993,48.0,0.09305041666666725
3628,54.0,0.07975749999999948,48.0,0.0929256666666678
3629,56.0,0.07967433333333496,48.0,0.09275933333333342
3630,54.0,0.0795079999999988,50.0,0.09247416666666552
3631,55.0,0.07942683333333278,51.0,0.15680849999999857
3632,56.0,0.07828400000000002,51.0,0.07852449999999855
3633,25.0,0.07852449999999855,59.0,0.16044708333333446
3634,57.0,0.08051524999999948,53.0,0.09301945833333569
3635,60.0,0.07993183333333498,55.0,0.09161337499999966
3636,61.0,0.07852575000000073,56.0,0.09161337499999966
3637,64.0,0.07852574999999895,56.0,0.09161337499999966
3638,63.0,0.07852575000000073,58.0,0.09141191666666693
3639,64.0,0.0783645833333324,59.0,0.15641049999999979
3640,65.0,0.07828400000000002,60.0,0.09169795833333261
3641,25.0,0.07812649999999977,68.0,0.16141733333333264
3642,66.0,0.0814287500000006,62.0,0.09316520833333186
3643,67.0,0.07998858333333203,62.0,0.09209591666666661
3644,68.0,0.0789890833333331,63.0,0.09161100000000033
3645,72.0,0.07857249999999993,64.0,0.0913391249999993
3646,73.0,0.07816249999999947,65.0,0.09334349999999958
3647,71.0,0.0796230833333329,67.0,0.17728308333333231
3648,70.0,0.08470183333333203,68.0,0.1057087499999998
3649,24.0,0.09258125000000028,73.0,0.1575299999999995
3650,80.0,0.07876500000000064,66.0,0.09157566666666561
3651,78.0,0.07876499999999886,66.0,0.08975325000000112
3652,66.0,0.07686400000000049,65.0,0.09022475000000085
3653,76.0,0.07733550000000022,63.0,0.09022474999999908
3654,75.0,0.07733550000000022,62.0,0.0902634166666676
3655,63.0,0.07733550000000022,62.0,0.15513499999999958
3656,73.0,0.07756750000000068,61.0,0.09090224999999919
3657,72.0,0.0775674999999989,60.0,0.16001699999999985
3658,60.0,0.08000849999999993,59.0,0.09297595833333361
3659,71.0,0.08000849999999993,57.0,0.09077220833333399
3660,69.0,0.07780475000000031,57.0,0.09081270833333299
3661,57.0,0.07780475000000031,56.0,0.0910557083333341
3662,68.0,0.07804774999999964,56.0,0.0910557083333341
3663,66.0,0.07804774999999964,55.0,0.15633175000000143
3664,57.0,0.07804775000000141,54.0,0.09133133333333276
3665,25.0,0.07828400000000002,55.0,0.15664858333333243
3666,66.0,0.07828400000000002,52.0,0.09145220833333312
3667,64.0,0.0783645833333324,51.0,0.09161337499999966
3668,56.0,0.07852575000000073,51.0,0.09161337499999966
3669,64.0,0.07852574999999895,50.0,0.0917330000000014
3670,63.0,0.07860550000000188,50.0,0.09189249999999838
3671,54.0,0.07876499999999886,49.0,0.15761016666666627
3672,63.0,0.07876500000000064,47.0,0.09201275000000031
3673,28.0,0.07884516666666563,49.0,0.15801100000000012
3674,61.0,0.07900550000000095,46.0,0.09217308333333385
3675,59.0,0.07900549999999917,45.0,0.09230258333333374
3676,51.0,0.07909183333333303,45.0,0.09247524999999968
3677,59.0,0.07926450000000074,44.0,0.09247524999999968
3678,57.0,0.07926449999999896,42.0,0.09259700000000137
3679,49.0,0.07934566666666854,42.0,0.15901599999999938
3680,57.0,0.0795079999999988,42.0,0.07950800000000058
3681,30.0,0.07950800000000058,41.0,0.15885366666666556
3682,49.0,0.07950800000000058,42.0,0.0925564166666657
3683,51.0,0.07934566666666498,42.0,0.09234575000000156
3684,52.0,0.07917816666666688,44.0,0.09213300000000046
3685,54.0,0.07900550000000095,45.0,0.09185262500000135
3686,55.0,0.07876500000000064,46.0,0.09161337499999966
3687,56.0,0.07852575000000073,47.0,0.15656983333333407
3688,57.0,0.0783645833333324,48.0,0.09141600000000238
3689,55.0,0.07820525000000167,51.0,0.1585289999999997
3690,56.0,0.07926450000000074,49.0,0.09227245833333164
3691,53.0,0.07926449999999896,47.0,0.09109508333333238
3692,54.0,0.07804774999999964,46.0,0.09137162500000073
3693,51.0,0.07828400000000002,45.0,0.09161337499999966
3694,52.0,0.07852575000000073,44.0,0.091812749999999
3695,51.0,0.07868524999999948,43.0,0.15801716666666543
3696,49.0,0.07892533333333418,41.0,0.07909183333333125
3697,30.0,0.07909183333333125,50.0,0.15785066666666658
3698,49.0,0.07900550000000095,41.0,0.09197266666666515
3699,51.0,0.07884516666666563,42.0,0.09185262500000135
3700,52.0,0.07876500000000064,44.0,0.09161337499999966
3701,54.0,0.07852575000000073,45.0,0.09149249999999931
3702,55.0,0.07844516666666657,47.0,0.09133133333333099
3703,56.0,0.07828399999999824,49.0,0.1560932500000014
3704,57.0,0.07812650000000332,50.0,0.0913014999999966
3705,55.0,0.07796674999999809,51.0,0.158709833333333
3706,56.0,0.0800085000000017,50.0,0.09170929166666397
3707,53.0,0.07870133333333129,48.0,0.09117383333333251
3708,54.0,0.07812649999999621,48.0,0.09133133333333276
3709,51.0,0.07828400000000002,46.0,0.09153279166666906
3710,52.0,0.07844516666666834,45.0,0.09173299999999784
3711,51.0,0.07860549999999833,45.0,0.15728950000000097
3712,49.0,0.07876500000000064,43.0,0.07852450000000033
3713,32.0,0.07852450000000033,42.0,0.15616899999999845
3714,51.0,0.07819024999999868,42.0,0.09093950000000106
3715,53.0,0.07797874999999976,44.0,0.09062075000000291
3716,54.0,0.07769483333333582,45.0,0.09037541666666371
3717,55.0,0.07748483333333311,48.0,0.09006179166666328
3718,56.0,0.07720566666666429,50.0,0.08978400000000164
3719,58.0,0.07699691666666908,51.0,0.15316874999999897
3720,59.0,0.07672249999999892,53.0,0.08953387500000076
3721,57.0,0.07644625000000005,54.0,0.15631249999999852
3722,58.0,0.07852575000000073,52.0,0.0905048750000006
3723,55.0,0.0777867499999978,51.0,0.08913000000000082
3724,56.0,0.07637749999999954,48.0,0.08937125000000279
3725,53.0,0.07658416666666668,48.0,0.08961183333333267
3726,54.0,0.07679066666666756,48.0,0.08985304166666808
3727,53.0,0.07699691666666908,46.0,0.15461983333333507
3728,51.0,0.07720566666666784,45.0,0.07741416666666723
3729,50.0,0.07741416666666723,43.0,0.15489900000000034
3730,51.0,0.077555499999999,44.0,0.09019962500000034
3731,53.0,0.07734350000000134,45.0,0.08999287500000008
3732,54.0,0.07713675000000109,47.0,0.08981808333333063
3733,55.0,0.07699691666666553,49.0,0.08957775000000012
3734,56.0,0.07679066666666756,51.0,0.08940583333333407
3735,58.0,0.0766533333333328,53.0,0.15268783333333502
3736,59.0,0.07644625000000005,54.0,0.08924954166666765
3737,57.0,0.07624158333333497,57.0,0.15544866666666834
3738,58.0,0.07804774999999964,56.0,0.09008545833333415
3739,55.0,0.0774009166666687,54.0,0.08879179166666518
3740,56.0,0.07610724999999974,51.0,0.08882537499999899
3741,53.0,0.07610724999999974,51.0,0.08913000000000082
3742,54.0,0.07637749999999954,51.0,0.08926750000000183
3743,53.0,0.07651500000000055,49.0,0.1529612500000006
3744,63.0,0.07942683333333633,70.0,0.09268370833332895
3745,25.0,0.07926449999999718,76.0,0.16103049999999897
3746,59.0,0.08051525000000126,71.0,0.09393445833333303
3747,57.0,0.0805152499999977,73.0,0.09393445833333303
3748,56.0,0.08051525000000126,75.0,0.09247591666666821
3749,54.0,0.0793484166666687,75.0,0.09189250000000015
3750,52.0,0.07876499999999709,73.0,0.0917728750000002
3751,51.0,0.07868525000000304,72.0,0.1570514999999979
3752,54.0,0.07852574999999717,73.0,0.09186049999999923
3753,24.0,0.07852575000000073,89.0,0.16001699999999985
3754,53.0,0.0800085000000017,68.0,0.09334324999999666
3755,55.0,0.08000849999999815,74.0,0.09334325000000021
3756,54.0,0.0800085000000017,66.0,0.09342770833332992
3757,51.0,0.08000849999999815,72.0,0.09393445833333303
3758,45.0,0.08051525000000126,68.0,0.09389066666666324
3759,50.0,0.0805152499999977,69.0,0.16050500000000056
3760,51.0,0.08025250000000028,70.0,0.09358724999999879
3761,24.0,0.08025250000000028,81.0,0.16001699999999985
3762,51.0,0.0800085000000017,73.0,0.09330141666666592
3763,53.0,0.08000849999999815,74.0,0.09305041666666725
3764,54.0,0.07975749999999948,74.0,0.09292566666666602
3765,55.0,0.07967433333333318,75.0,0.09275933333333342
3766,54.0,0.07950800000000058,76.0,0.09263758333333527
3767,18.0,0.07942683333333633,82.0,0.15844266666666584
3768,56.0,0.07926449999999718,79.0,0.07917816666666866
3769,24.0,0.07917816666666866,98.0,0.160866249999998
3770,57.0,0.08076674999999867,81.0,0.09318712500000004
3771,62.0,0.08009949999999932,82.0,0.09161337500000144
3772,63.0,0.07852575000000073,84.0,0.09161337499999789
3773,64.0,0.07852575000000073,85.0,0.09161337499999789
3774,63.0,0.07852574999999717,86.0,0.0914119166666687
3775,65.0,0.07836458333333596,87.0,0.15641049999999979
3776,66.0,0.07828400000000002,88.0,0.09146124999999827
3777,24.0,0.07812649999999977,93.0,0.1589683333333305
3778,66.0,0.0800085000000017,91.0,0.09199833333332919
3779,67.0,0.07895983333332879,92.0,0.09096245833333683
3780,68.0,0.07802516666667003,92.0,0.09049133333333259
3781,71.0,0.07748741666666703,93.0,0.09217158333333231
3782,73.0,0.07878325000000075,94.0,0.09482312500000134
3783,71.0,0.0810641666666676,96.0,0.16919541666666404
3784,70.0,0.0834034999999993,97.0,0.09883924999999749
3785,23.0,0.08579191666666475,99.0,0.1565680000000036
3786,80.0,0.07828400000000002,95.0,0.09133133333333632
3787,78.0,0.07828400000000357,93.0,0.0911732499999971
3788,69.0,0.07828399999999647,91.0,0.0902247499999973
3789,78.0,0.07733549999999667,89.0,0.0902247500000044
3790,76.0,0.07733550000000378,87.0,0.09065037499999562
3791,68.0,0.07733549999999667,85.0,0.1597785000000016
3792,76.0,0.0798892500000008,83.0,0.093132875000002
3793,23.0,0.0798892500000008,82.0,0.15892350000000022
3794,66.0,0.07946175000000011,80.0,0.09249683333333536
3795,75.0,0.07946175000000011,78.0,0.09124558333333255
3796,73.0,0.0782104999999973,76.0,0.09121845833333708
3797,64.0,0.0782105000000044,74.0,0.09105570833333587
3798,73.0,0.07804775000000319,73.0,0.09105570833332877
3799,71.0,0.07804774999999609,71.0,0.15633175000000676
3800,63.0,0.07804775000000319,69.0,0.07828400000000357
3801,23.0,0.07828400000000357,73.0,0.15992941666667093
3802,69.0,0.08025250000000028,67.0,0.09276454166666781
3803,61.0,0.07967691666667065,65.0,0.09161337500000144
3804,69.0,0.07852574999999717,64.0,0.09161337500000144
3805,68.0,0.07852575000000428,62.0,0.09173299999999784
3806,59.0,0.07860549999999478,61.0,0.09189250000000015
3807,68.0,0.07876500000000419,60.0,0.1576101666666645
3808,66.0,0.07876499999999709,59.0,0.09201274999999498
3809,23.0,0.07884516666666741,58.0,0.1580109999999948
3810,66.0,0.07900549999999384,56.0,0.09217308333333563
3811,64.0,0.07900550000000095,55.0,0.09230258333333552
3812,56.0,0.07909183333333658,54.0,0.09247524999999968
3813,61.0,0.07926450000000074,53.0,0.09247524999999968
3814,59.0,0.07926450000000074,51.0,0.09259700000000493
3815,56.0,0.07934566666666854,51.0,0.15901600000000116
3816,52.0,0.07950800000000413,50.0,0.07950799999999703
3817,23.0,0.07950799999999703,49.0,0.15746399999999738
3818,52.0,0.07883950000000084,49.0,0.09169229166666071
3819,54.0,0.07862449999999654,50.0,0.09143845833333586
3820,55.0,0.07840674999999919,51.0,0.09111620833333234
3821,56.0,0.07811974999999904,52.0,0.09086808333333352
3822,57.0,0.07790733333333577,53.0,0.09062074999999936
3823,59.0,0.07769483333333227,53.0,0.15499416666666832
3824,60.0,0.07748483333333667,55.0,0.09072008333333059
3825,58.0,0.07750933333333165,54.0,0.15852900000000147
3826,59.0,0.07926450000000074,53.0,0.09212062499999973
3827,54.0,0.07926450000000074,53.0,0.08999287500000008
3828,55.0,0.07713675000000109,51.0,0.09016516666666519
3829,47.0,0.07727458333333459,51.0,0.09041074999999665
3830,55.0,0.07748483333332956,50.0,0.09058591666666871
3831,54.0,0.07762516666667096,48.0,0.15588516666666408
3832,52.0,0.07783591666666467,47.0,0.0780492499999994
3833,23.0,0.0780492499999994,49.0,0.15703124999999574
3834,52.0,0.07862449999999654,47.0,0.09143845833333586
3835,54.0,0.07840674999999919,48.0,0.09118670833333198
3836,55.0,0.07819024999999868,50.0,0.09086808333333352
3837,56.0,0.07790733333333577,51.0,0.09062074999999936
3838,57.0,0.07769483333333227,52.0,0.09037541666666726
3839,59.0,0.07748483333333667,53.0,0.15464508333332816
3840,60.0,0.07727458333332748,53.0,0.09062183333333707
3841,58.0,0.07737050000000067,55.0,0.15901600000000116
3842,59.0,0.07950799999999703,53.0,0.09236412500000313
3843,54.0,0.07950800000000413,53.0,0.09002733333333168
3844,55.0,0.07713675000000109,52.0,0.09034008333333787
3845,47.0,0.07741416666667078,51.0,0.09065558333333712
3846,55.0,0.07769483333333227,51.0,0.09093904166667244
3847,52.0,0.07790733333333577,50.0,0.15681433333332961
3848,50.0,0.07826241666666789,48.0,0.07855191666666173
3849,21.0,0.07855191666666173,49.0,0.15688649999999882
3850,50.0,0.07855191666666883,48.0,0.09136629166666665
3851,52.0,0.07833458333332999,50.0,0.09111620833333234
3852,53.0,0.07811974999999904,51.0,0.09086808333333352
3853,54.0,0.07790733333333577,51.0,0.09062074999999936
3854,55.0,0.07769483333333227,53.0,0.09037541666666726
3855,57.0,0.07748483333333667,53.0,0.1543414166666608
3856,58.0,0.07727458333332748,54.0,0.09040158333333181
3857,56.0,0.0770668333333333,55.0,0.1600170000000034
3858,57.0,0.08000849999999815,54.0,0.09282966666667392
3859,54.0,0.08000850000000526,53.0,0.08978312499999674
3860,55.0,0.07692699999999775,53.0,0.09009625000000199
3861,52.0,0.07720566666667139,52.0,0.09044558333333441
3862,53.0,0.07748483333333667,51.0,0.09076095833333397
3863,50.0,0.07776450000000068,50.0,0.1563838333333294
3864,48.0,0.0780492499999994,49.0,0.07833458333332999
3865,19.0,0.07833458333332999,49.0,0.15767566666666966
3866,48.0,0.07862449999999654,49.0,0.09226191666667205
3867,50.0,0.07905116666667311,50.0,0.09234574999999268
3868,51.0,0.0791781666666651,51.0,0.09213299999999691
3869,52.0,0.07900549999999384,52.0,0.09185262499999425
3870,53.0,0.07876499999999709,53.0,0.09161337500000144
3871,55.0,0.07852574999999717,53.0,0.15656983333333585
3872,56.0,0.0783645833333324,55.0,0.09154000000000195
3873,54.0,0.07820525000000345,56.0,0.1600170000000034
3874,55.0,0.08000849999999815,53.0,0.09301645833333794
3875,52.0,0.08000850000000526,54.0,0.09109508333333594
3876,53.0,0.07804775000000319,52.0,0.09137162499999363
3877,50.0,0.07828399999999647,53.0,0.09161337500000144
3878,51.0,0.07852574999999717,51.0,0.09181275000000255
3879,50.0,0.07868524999999948,51.0,0.1580171666666672
3880,48.0,0.07892533333333063,50.0,0.07909183333333658
3881,47.0,0.07909183333333658,59.0,0.16673149999999737
3882,48.0,0.08336574999999868,57.0,0.09726004166666513
3883,52.0,0.08336574999999868,63.0,0.09726004166667224
3884,51.0,0.08336575000000579,58.0,0.3283172499999978
3885,32.0,0.04168287499999934,41.0,0.28663437499999844
3886,49.0,0.04168287499999934,61.0,0.2449514999999991
3887,48.0,0.08165050000000207,59.0,0.09525891666666553
3888,57.0,0.08165049999999496,63.0,0.09525891666667263
3889,56.0,0.08165050000000207,61.0,0.32933016666667214
3890,32.0,0.04082524999999748,44.0,0.28850491666667466
3891,54.0,0.04082525000000459,61.0,0.24767966666667007
3892,52.0,0.08017099999999999,63.0,0.08565074999999922
3893,63.0,0.08565074999999922,68.0,0.0951848333333345
3894,61.0,0.08185791666667086,66.0,0.32380799999999965
3895,37.0,0.03998074999999801,40.0,0.28382725000000164
3896,59.0,0.03998074999999801,65.0,0.24384650000000363
3897,57.0,0.08100224999999739,64.0,0.0946425833333393
3898,56.0,0.0810022500000045,63.0,0.09548233333333656
3899,54.0,0.08184200000000175,63.0,0.33054999999999524
3900,33.0,0.04092099999999732,48.0,0.2896289999999979
3901,52.0,0.040921000000004426,63.0,0.2487079999999935
3902,51.0,0.08142449999999712,57.0,0.08565074999999922
3903,61.0,0.08565074999999922,61.0,0.09523820833333474
3904,59.0,0.08163274999999715,60.0,0.32215850000000046
3905,35.0,0.04081637500000568,41.0,0.2813421249999948
3906,57.0,0.04081637499999857,59.0,0.2405257499999962
3907,56.0,0.07976175000000296,58.0,0.09326212499999542
3908,54.0,0.07976174999999586,57.0,0.09450262499999695
3909,52.0,0.08100224999999739,61.0,0.322964000000006
3910,28.0,0.0405011250000058,44.0,0.2824628750000002
3911,51.0,0.040501124999998694,61.0,0.24196175000000153
3912,49.0,0.07967699999999667,58.0,0.08292800000000256
3913,59.0,0.08292800000000256,62.0,0.09258287499999796
3914,57.0,0.07935675000000231,61.0,0.31782033333333004
3915,33.0,0.03959079166666157,40.0,0.27822954166666847
3916,56.0,0.03955579166667178,60.0,0.2386737499999967
3917,54.0,0.0793217499999983,59.0,0.09281299999999959
3918,52.0,0.07953349999999659,58.0,0.09313337500000074
3919,51.0,0.07981850000000179,57.0,0.09338537499999688
3920,49.0,0.08003424999999709,64.0,0.32014200000000415
3921,48.0,0.08010674999999878,62.0,0.09345787499999858
3922,47.0,0.08010674999999878,59.0,0.09345787500000569
3923,46.0,0.08010675000000589,57.0,0.07982175000000069
3924,47.0,0.07982175000000069,64.0,0.319138499999994
3925,46.0,0.0793217499999983,61.0,0.09292012499999203
3926,45.0,0.07960524999999308,58.0,0.0933128750000023
3927,44.0,0.0799617500000025,56.0,0.08024975000000012
3928,46.0,0.08024975000000012,63.0,0.0925653749999995
3929,45.0,0.07932175000000541,60.0,0.09292012499999203
3930,44.0,0.07960524999999308,58.0,0.0933128750000023
3931,43.0,0.0799617500000025,55.0,0.08024975000000012
3932,45.0,0.08024975000000012,63.0,0.09232120833333113
3933,44.0,0.07911258333333393,60.0,0.0926712500000022
3934,43.0,0.0793917499999992,57.0,0.09306262499999463
3935,42.0,0.07974774999999568,55.0,0.07961458333333837
3936,44.0,0.07961458333333837,64.0,0.09230508333333631
3937,43.0,0.07905866666666839,62.0,0.09300708333334029
3938,42.0,0.0796900833333396,58.0,0.09354224999999872
3939,41.0,0.0801172500000007,56.0,0.08076866666667115
3940,43.0,0.08076866666667115,62.0,0.09332787499999995
3941,42.0,0.07997458333333896,59.0,0.09368491666666046
3942,41.0,0.08025991666666243,56.0,0.09408337499999675
3943,40.0,0.08062224999999756,53.0,0.08098666666666787
3944,42.0,0.08098666666666787,59.0,0.0930774999999997
3945,41.0,0.07976049999999901,57.0,0.09343549999999823
3946,40.0,0.08004716666666667,54.0,0.0939377916666615
3947,39.0,0.08047666666666231,51.0,0.08084091666666637
3948,42.0,0.08084091666666637,58.0,0.09368929166667073
3949,40.0,0.08033600000000263,55.0,0.09379437500000165
3950,39.0,0.08033325000000247,52.0,0.09437491666666631
3951,37.0,0.08084091666666637,50.0,0.08142775000000313
3952,36.0,0.08142775000000313,40.0,0.15885366666667267
3953,37.0,0.07950799999999703,42.0,0.09255641666667458
3954,39.0,0.07934566666667564,42.0,0.09234574999999268
3955,40.0,0.0791781666666651,44.0,0.09213299999999691
3956,42.0,0.07900549999999384,45.0,0.09185262499999425
3957,43.0,0.07876499999999709,46.0,0.09161337500000144
3958,44.0,0.07852574999999717,47.0,0.15656983333333585
3959,45.0,0.0783645833333324,48.0,0.09141600000000238
3960,16.0,0.07820525000000345,54.0,0.15852900000000147
3961,44.0,0.07926450000000074,49.0,0.09227245833333342
3962,41.0,0.07926450000000074,47.0,0.09109508333333594
3963,42.0,0.07804775000000319,46.0,0.09137162499999363
3964,39.0,0.07828399999999647,45.0,0.09161337500000144
3965,40.0,0.07852574999999717,44.0,0.09181275000000255
3966,39.0,0.07868524999999948,43.0,0.1580171666666672
3967,37.0,0.07892533333333063,41.0,0.07909183333333658
3968,18.0,0.07909183333333658,41.0,0.15785066666666125
3969,37.0,0.07900549999999384,41.0,0.09197266666667048
3970,39.0,0.07884516666666741,42.0,0.09185262500000135
3971,40.0,0.07876500000000419,44.0,0.09161337500000144
3972,42.0,0.07852574999999717,45.0,0.09149250000000109
3973,43.0,0.07844516666666834,47.0,0.09133133333333632
3974,44.0,0.07828400000000357,49.0,0.15609324999999785
3975,45.0,0.07812649999999621,51.0,0.09130150000000015
3976,16.0,0.07796675000000164,56.0,0.158709833333333
3977,44.0,0.08000849999999815,50.0,0.09170929166666753
3978,41.0,0.07870133333333484,48.0,0.09117383333333606
3979,42.0,0.07812650000000332,48.0,0.09133133333333632
3980,39.0,0.07828400000000357,46.0,0.0915327916666655
3981,40.0,0.07844516666666834,45.0,0.09173299999999784
3982,39.0,0.07860549999999478,45.0,0.15728950000000452
3983,37.0,0.07876500000000419,43.0,0.07852450000000033
3984,39.0,0.07852450000000033,39.0,0.15652366666666495
3985,40.0,0.07840391666666591,41.0,0.09111620833333234
3986,42.0,0.07811974999999904,42.0,0.09086808333333352
3987,44.0,0.07790733333333577,44.0,0.09062074999999936
3988,45.0,0.07769483333333227,45.0,0.09037541666666726
3989,51.0,0.07748483333333667,47.0,0.09048320833332468
3990,49.0,0.07727458333332748,45.0,0.15802116666666421
3991,39.0,0.0792517499999974,47.0,0.09210416666666532
3992,20.0,0.07876941666666681,49.0,0.15838166666667064
3993,39.0,0.08000849999999815,41.0,0.09129908333333958
3994,40.0,0.07837316666667249,43.0,0.09027029166666978
3995,42.0,0.07741416666667078,45.0,0.08995791666666975
3996,44.0,0.07713675000000109,47.0,0.08964591666666877
3997,51.0,0.07685883333333265,49.0,0.09008808333333462
3998,49.0,0.07680858333333163,47.0,0.15935400000000044
3999,45.0,0.07967699999999667,48.0,0.07967700000000377
4000,43.0,0.07967700000000377,39.0,0.1568106666666651
4001,44.0,0.07854824999999721,41.0,0.09129412500000456
4002,45.0,0.07826241666666789,42.0,0.09100999999999715
4003,44.0,0.0780492499999994,44.0,0.09069041666666777
4004,49.0,0.07776450000000068,47.0,0.09044608333333315
4005,48.0,0.07755550000000255,45.0,0.09048320833333179
4006,57.0,0.07727458333333459,54.0,0.15802116666666421
4007,56.0,0.0792517499999974,52.0,0.09210416666666532
4008,25.0,0.07876941666666681,57.0,0.1580506666666679
4009,52.0,0.08000849999999815,53.0,0.09082925000000586
4010,49.0,0.07804216666666974,51.0,0.08971495833333165
4011,44.0,0.07685883333333265,47.0,0.09013158333333848
4012,42.0,0.07720566666667139,47.0,0.09058591666666871
4013,40.0,0.07762516666667096,45.0,0.0912573333333313
4014,37.0,0.0779778333333283,44.0,0.15893058333333698
4015,32.0,0.07967699999999667,42.0,0.07925358333334032
4016,18.0,0.07925358333334032,43.0,0.15659699999999788
4017,37.0,0.07840674999999919,42.0,0.09122195833333535
4018,39.0,0.07819024999999868,42.0,0.0910457083333327
4019,40.0,0.0780492499999994,44.0,0.09086808333333352
4020,42.0,0.07790733333333577,45.0,0.09069041666666777
4021,43.0,0.07776450000000068,46.0,0.09048141666666965
4022,44.0,0.07755550000000255,47.0,0.15468874999999827
4023,45.0,0.07741416666667078,48.0,0.09048533333332642
4024,16.0,0.07727458333332748,56.0,0.15852900000000147
4025,44.0,0.07926450000000074,49.0,0.09227245833333342
4026,41.0,0.07926450000000074,47.0,0.09046883333333255
4027,42.0,0.07757825000000196,46.0,0.0904455833333273
4028,39.0,0.07748483333332956,45.0,0.09076095833333397
4029,40.0,0.07776450000000068,44.0,0.09108095833333607
4030,39.0,0.0780492499999994,43.0,0.15722683333333265
4031,25.0,0.12460550000000126,29.0,0.12460549999999948
4032,32.0,0.12460549999999948,29.0,0.12421399999999849
4033,40.0,0.12421399999999849,27.0,0.12401825000000066
4034,20.0,0.12401825000000066,35.0,0.12401825000000066
4035,25.0,0.12401825000000066,33.0,0.1234365000000004
4036,32.0,0.1234365000000004,30.0,0.1234365000000004
4037,40.0,0.1234365000000004,29.0,0.12324441666666708
4038,20.0,0.12324441666666708,35.0,0.12286024999999867
4039,25.0,0.12286024999999867,34.0,0.12286025000000045
4040,32.0,0.12286025000000045,35.0,0.12247291666666804
4041,40.0,0.12247291666666804,31.0,0.12227925000000006
4042,20.0,0.12227925000000006,39.0,0.12227925000000006
4043,25.0,0.12227925000000006,38.0,0.12227925000000006
4044,32.0,0.12227925000000006,35.0,0.12227925000000006
4045,40.0,0.12227925000000006,34.0,0.12227924999999829
4046,20.0,0.12227924999999829,39.0,0.12227925000000006
4047,25.0,0.12227925000000006,35.0,0.12286025000000045
4048,32.0,0.12286025000000045,34.0,0.12286024999999867
4049,40.0,0.12286024999999867,30.0,0.12286025000000045
4050,20.0,0.12286025000000045,36.0,0.12286025000000045
4051,25.0,0.12286025000000045,33.0,0.1234365000000004
4052,32.0,0.1234365000000004,30.0,0.1234365000000004
4053,40.0,0.1234365000000004,29.0,0.12343649999999862
4054,20.0,0.12343649999999862,35.0,0.12343650000000217
4055,25.0,0.12343650000000217,29.0,0.12401824999999889
4056,32.0,0.12401824999999889,29.0,0.12401825000000244
4057,40.0,0.12401825000000244,28.0,0.12401824999999889
4058,32.0,0.12401824999999889,33.0,0.12401824999999889
4059,52.0,0.12401824999999889,54.0,0.12460550000000126
4060,49.0,0.12460550000000126,51.0,0.1246054999999977
4061,37.0,0.1246054999999977,30.0,0.12460550000000126
4062,51.0,0.12460550000000126,51.0,0.12460550000000126
4063,52.0,0.12460550000000126,54.0,0.12286024999999867
4064,49.0,0.12286024999999867,51.0,0.12286025000000222
4065,40.0,0.12286025000000222,31.0,0.12460550000000126
4066,32.0,0.12460550000000126,31.0,0.1246054999999977
4067,52.0,0.1246054999999977,54.0,0.12227924999999829
4068,49.0,0.12227924999999829,51.0,0.12227925000000184
4069,37.0,0.12227925000000184,31.0,0.12460550000000126
4070,51.0,0.12460550000000126,51.0,0.1246054999999977
4071,52.0,0.1246054999999977,54.0,0.12286024999999867
4072,49.0,0.12286024999999867,51.0,0.12286025000000222
4073,37.0,0.12286025000000222,31.0,0.12460550000000126
4074,32.0,0.12460550000000126,31.0,0.1246054999999977
4075,52.0,0.1246054999999977,54.0,0.12286024999999867
4076,49.0,0.12286024999999867,51.0,0.12286025000000222
4077,40.0,0.12286025000000222,31.0,0.12460550000000126
4078,51.0,0.12460550000000126,61.0,0.1246054999999977
4079,52.0,0.1246054999999977,66.0,0.12227924999999829
4080,61.0,0.12227924999999829,64.0,0.12227925000000184
4081,37.0,0.12227925000000184,34.0,0.12828199999999867
4082,32.0,0.12828199999999867,34.0,0.12828200000000223
4083,60.0,0.12828200000000223,61.0,0.12286024999999867
4084,51.0,0.12286024999999867,57.0,0.12286025000000222
4085,36.0,0.12286025000000222,30.0,0.12460550000000126
4086,52.0,0.12460550000000126,49.0,0.1246054999999977
4087,54.0,0.1246054999999977,52.0,0.12286024999999867
4088,51.0,0.12286024999999867,49.0,0.12286025000000222
4089,36.0,0.12286025000000222,31.0,0.12460550000000126
4090,33.0,0.12460550000000126,31.0,0.1246054999999977
4091,57.0,0.1246054999999977,55.0,0.1234365000000004
4092,51.0,0.1234365000000004,49.0,0.1234365000000004
4093,36.0,0.1234365000000004,30.0,0.12460550000000126
4094,52.0,0.12460550000000126,49.0,0.1246054999999977
4095,54.0,0.1246054999999977,52.0,0.12286024999999867
4096,51.0,0.12286024999999867,49.0,0.12286025000000222
4097,36.0,0.12286025000000222,31.0,0.12460550000000126
4098,33.0,0.12460550000000126,31.0,0.1246054999999977
4099,57.0,0.1246054999999977,55.0,0.1234365000000004
4100,51.0,0.1234365000000004,49.0,0.1234365000000004
4101,36.0,0.1234365000000004,30.0,0.12460550000000126
4102,52.0,0.12460550000000126,49.0,0.1246054999999977
4103,54.0,0.1246054999999977,52.0,0.12286024999999867
4104,51.0,0.12286024999999867,49.0,0.12286025000000222
4105,42.0,0.12286025000000222,31.0,0.12460550000000126
4106,33.0,0.12460550000000126,31.0,0.1246054999999977
4107,57.0,0.1246054999999977,58.0,0.1234365000000004
4108,51.0,0.1234365000000004,51.0,0.1234365000000004
4109,36.0,0.1234365000000004,34.0,0.12460550000000126
4110,52.0,0.12460550000000126,65.0,0.1246054999999977
4111,54.0,0.1246054999999977,71.0,0.12286024999999867
4112,63.0,0.12286024999999867,64.0,0.12286025000000222
4113,36.0,0.12286025000000222,37.0,0.12764874999999876
4114,33.0,0.12764874999999876,38.0,0.1276487500000023
4115,63.0,0.1276487500000023,61.0,0.2468730000000008
4116,52.0,0.1234365000000004,57.0,0.1234365000000004
4117,36.0,0.1234365000000004,30.0,0.12460550000000126
4118,54.0,0.12460550000000126,49.0,0.1246054999999977
4119,56.0,0.1246054999999977,52.0,0.2457205000000009
4120,52.0,0.12286024999999867,49.0,0.12286025000000222
4121,37.0,0.12286025000000222,31.0,0.12764874999999876
4122,32.0,0.12764874999999876,31.0,0.1276487500000023
4123,64.0,0.1276487500000023,82.0,0.12460550000000126
4124,63.0,0.12460550000000126,75.0,0.1246054999999977
4125,46.0,0.1246054999999977,50.0,0.12642225000000096
4126,61.0,0.12642225000000096,72.0,0.1264222499999974
4127,60.0,0.1264222499999974,78.0,0.12286024999999867
4128,63.0,0.12286024999999867,68.0,0.12286025000000222
4129,48.0,0.12286025000000222,58.0,0.12764874999999876
4130,32.0,0.12764874999999876,51.0,0.1276487500000023
4131,57.0,0.1276487500000023,55.0,0.12460550000000126
4132,56.0,0.12460550000000126,50.0,0.1246054999999977
4133,42.0,0.1246054999999977,29.0,0.12764874999999876
4134,54.0,0.12764874999999876,49.0,0.1276487500000023
4135,52.0,0.1276487500000023,52.0,0.12286024999999867
4136,56.0,0.12286024999999867,49.0,0.12286025000000222
4137,40.0,0.12286025000000222,29.0,0.12764874999999876
4138,25.0,0.12764874999999876,29.0,0.1276487500000023
4139,64.0,0.1276487500000023,82.0,0.12460550000000126
4140,63.0,0.12460550000000126,75.0,0.1246054999999977
4141,46.0,0.1246054999999977,50.0,0.12764874999999876
4142,61.0,0.12764874999999876,72.0,0.1276487500000023
4143,60.0,0.1276487500000023,78.0,0.12286024999999867
4144,63.0,0.12286024999999867,68.0,0.12286025000000222
4145,48.0,0.12286025000000222,58.0,0.12764874999999876
4146,32.0,0.12764874999999876,51.0,0.1276487500000023
4147,57.0,0.1276487500000023,55.0,0.12460550000000126
4148,56.0,0.12460550000000126,50.0,0.1246054999999977
4149,42.0,0.1246054999999977,29.0,0.12764874999999876
4150,54.0,0.12764874999999876,49.0,0.1276487500000023
4151,53.0,0.1276487500000023,52.0,0.12286024999999867
4152,56.0,0.12286024999999867,49.0,0.12286025000000222
4153,40.0,0.12286025000000222,29.0,0.14354074999999966
4154,25.0,0.14354074999999966,29.0,0.14354074999999966
4155,68.0,0.14354074999999966,89.0,0.13043474999999916
4156,67.0,0.13043474999999916,83.0,0.13043474999999916
4157,28.0,0.13043474999999916,50.0,0.13157899999999856
4158,64.0,0.13157899999999856,72.0,0.1315790000000021
4159,63.0,0.1315790000000021,80.0,0.12658224999999845
4160,61.0,0.12658224999999845,75.0,0.126582250000002
4161,28.0,0.126582250000002,49.0,0.12931024999999963
4162,37.0,0.12931024999999963,49.0,0.12931024999999963
4163,61.0,0.12931024999999963,80.0,0.12460550000000126
4164,59.0,0.12460550000000126,73.0,0.1246054999999977
4165,28.0,0.1246054999999977,42.0,0.12642225000000096
4166,58.0,0.12642225000000096,68.0,0.1264222499999974
4167,57.0,0.1264222499999974,69.0,0.12286024999999867
4168,51.0,0.12286024999999867,64.0,0.12286025000000222
4169,30.0,0.12286025000000222,46.0,0.12764874999999876
4170,39.0,0.12764874999999876,44.0,0.1276487500000023
4171,59.0,0.1276487500000023,68.0,0.12460550000000126
4172,58.0,0.12460550000000126,62.0,0.1246054999999977
4173,32.0,0.1246054999999977,42.0,0.12580725000000115
4174,56.0,0.12580725000000115,61.0,0.1258072499999976
4175,54.0,0.1258072499999976,63.0,0.12286024999999867
4176,46.0,0.12286024999999867,52.0,0.12286025000000222
4177,34.0,0.12286025000000222,40.0,0.12764874999999876
4178,42.0,0.12764874999999876,39.0,0.1276487500000023
4179,54.0,0.1276487500000023,67.0,0.11949325000000144
4180,45.0,0.11949325000000144,59.0,0.11949324999999789
4181,33.0,0.11949324999999789,41.0,0.12711875000000106
4182,42.0,0.12711875000000106,42.0,0.1271187499999975
4183,54.0,0.1271187499999975,62.0,0.12448125000000232
4184,44.0,0.12448125000000232,56.0,0.12448124999999521
4185,32.0,0.12448124999999521,42.0,0.13953500000000219
4186,42.0,0.13953500000000219,41.0,0.13953499999999508
4187,52.0,0.13953499999999508,68.0,0.12875524999999755
4188,49.0,0.12875524999999755,59.0,0.12875525000000465
4189,37.0,0.12875525000000465,47.0,0.13043474999999916
4190,51.0,0.13043474999999916,67.0,0.13043474999999916
4191,52.0,0.13043474999999916,68.0,0.12605049999999807
4192,49.0,0.12605049999999807,60.0,0.12605050000000517
4193,37.0,0.12605050000000517,48.0,0.1298702500000033
4194,20.0,0.1298702500000033,48.0,0.1298702499999962
4195,52.0,0.1298702499999962,68.0,0.12448125000000232
4196,49.0,0.12448125000000232,60.0,0.12448124999999521
4197,37.0,0.12448124999999521,48.0,0.1282052500000006
4198,51.0,0.1282052500000006,68.0,0.1282052500000006
4199,52.0,0.1282052500000006,68.0,0.12605049999999807
4200,49.0,0.12605049999999807,60.0,0.12605050000000517
4201,37.0,0.12605050000000517,48.0,0.1282052500000006
4202,20.0,0.1282052500000006,48.0,0.1282052500000006
4203,52.0,0.1282052500000006,68.0,0.125
4204,49.0,0.125,67.0,0.125
4205,37.0,0.125,48.0,0.1282052500000006
4206,51.0,0.1282052500000006,73.0,0.1282052500000006
4207,52.0,0.1282052500000006,84.0,0.12448125000000232
4208,61.0,0.12448125000000232,76.0,0.12448124999999521
4209,40.0,0.12448124999999521,50.0,0.12825032708333595
4210,28.0,0.12825032708333595,50.0,0.12828199999999867
4211,60.0,0.12828199999999867,76.0,0.12290543124999687
4212,51.0,0.12290543124999687,67.0,0.12286024999999512
4213,42.0,0.12286024999999512,47.0,0.12459095625000316
4214,52.0,0.12459095625000316,67.0,0.12460549999999415
4215,54.0,0.12460549999999415,68.0,0.12287479375000743
4216,51.0,0.12287479375000743,60.0,0.12286024999999512
4217,42.0,0.12286024999999512,48.0,0.12459095625000316
4218,27.0,0.12459095625000316,48.0,0.12460549999999415
4219,57.0,0.12460549999999415,71.0,0.12344624166667018
4220,51.0,0.12344624166667018,59.0,0.12343650000000395
4221,42.0,0.12343650000000395,47.0,0.12459575833333503
4222,52.0,0.12459575833333503,67.0,0.12460549999999415
4223,54.0,0.12460549999999415,68.0,0.12287479375000743
4224,51.0,0.12287479375000743,60.0,0.12286024999999512
4225,42.0,0.12286024999999512,48.0,0.12459095625000316
4226,27.0,0.12459095625000316,48.0,0.12460549999999415
4227,57.0,0.12460549999999415,71.0,0.12344624166667018
4228,51.0,0.12344624166667018,59.0,0.12343650000000395
4229,42.0,0.12343650000000395,47.0,0.12459575833333503
4230,52.0,0.12459575833333503,67.0,0.12460549999999415
4231,54.0,0.12460549999999415,68.0,0.12287479375000743
4232,51.0,0.12287479375000743,60.0,0.12286024999999512
4233,42.0,0.12286024999999512,48.0,0.12459095625000316
4234,27.0,0.12459095625000316,48.0,0.12460549999999415
4235,57.0,0.12460549999999415,74.0,0.12344624166667018
4236,51.0,0.12344624166667018,63.0,0.12343650000000395
4237,42.0,0.12343650000000395,50.0,0.12459575833333503
4238,52.0,0.12459575833333503,78.0,0.12460549999999415
4239,54.0,0.12460549999999415,88.0,0.12287479375000743
4240,63.0,0.12287479375000743,78.0,0.12286024999999512
4241,42.0,0.12286024999999512,54.0,0.1276088458333362
4242,27.0,0.1276088458333362,55.0,0.12764874999999876
4243,63.0,0.12764874999999876,73.0,0.12347160208332753
4244,52.0,0.12347160208332753,72.0,0.12343650000000395
4245,44.0,0.12343650000000395,47.0,0.12459575833333503
4246,54.0,0.12459575833333503,64.0,0.12460549999999415
4247,56.0,0.12460549999999415,69.0,0.12287479375000743
4248,61.0,0.12287479375000743,69.0,0.12286024999999512
4249,44.0,0.12286024999999512,48.0,0.1276088458333362
4250,28.0,0.1276088458333362,48.0,0.12764874999999876
4251,64.0,0.12764874999999876,85.0,0.12460550000000126
4252,63.0,0.12460550000000126,84.0,0.12460550000000126
4253,46.0,0.12460550000000126,55.0,0.1264222499999974
4254,61.0,0.1264222499999974,80.0,0.1264222500000045
4255,60.0,0.1264222500000045,86.0,0.12286025000000222
4256,63.0,0.12286025000000222,80.0,0.12286024999999512
4257,48.0,0.12286024999999512,57.0,0.12764874999999876
4258,32.0,0.12764874999999876,57.0,0.12764874999999876
4259,57.0,0.12764874999999876,67.0,0.12460550000000126
4260,56.0,0.12460550000000126,66.0,0.12460550000000126
4261,42.0,0.12460550000000126,44.0,0.12764874999999876
4262,54.0,0.12764874999999876,64.0,0.12764874999999876
4263,53.0,0.12764874999999876,69.0,0.12286025000000222
4264,56.0,0.12286025000000222,64.0,0.12286024999999512
4265,40.0,0.12286024999999512,44.0,0.12764874999999876
4266,25.0,0.12764874999999876,44.0,0.12764874999999876
4267,64.0,0.12764874999999876,85.0,0.12460550000000126
4268,63.0,0.12460550000000126,84.0,0.12460550000000126
4269,46.0,0.12460550000000126,55.0,0.12764874999999876
4270,61.0,0.12764874999999876,80.0,0.12764874999999876
4271,60.0,0.12764874999999876,86.0,0.12286025000000222
4272,63.0,0.12286025000000222,80.0,0.12286024999999512
4273,48.0,0.12286024999999512,57.0,0.12764874999999876
4274,32.0,0.12764874999999876,57.0,0.12764874999999876
4275,62.0,0.12764874999999876,84.0,0.12460550000000126
4276,61.0,0.12460550000000126,77.0,0.12460550000000126
4277,44.0,0.12460550000000126,55.0,0.12764874999999876
4278,59.0,0.12764874999999876,80.0,0.12764874999999876
4279,58.0,0.12764874999999876,86.0,0.12286025000000222
4280,61.0,0.12286025000000222,75.0,0.12286024999999512
4281,45.0,0.12286024999999512,55.0,0.15394100000000321
4282,30.0,0.15394100000000321,55.0,0.1539409999999961
4283,60.0,0.1539409999999961,99.0,0.8016365000000008
4284,25.0,0.13761474999999734,59.0,0.13761475000000445
4285,61.0,0.13761475000000445,79.0,0.2597404999999995
4286,25.0,0.1298702500000033,59.0,0.1298702499999962
4287,60.0,0.1298702499999962,89.0,0.2666664999999995
4288,25.0,0.13333324999999974,59.0,0.13333324999999974
4289,61.0,0.13333324999999974,79.0,0.25862049999999925
4290,25.0,0.12931025000000318,59.0,0.12931024999999607
4291,60.0,0.12931024999999607,92.0,0.26990550000000013
4292,25.0,0.1349527499999965,59.0,0.13495275000000362
4293,61.0,0.13495275000000362,80.0,0.5552674999999994
4294,25.0,0.13557475000000352,59.0,0.1355747499999964
4295,60.0,0.1355747499999964,89.0,0.2841179999999994
4296,30.0,0.14205900000000327,59.0,0.14205899999999616
4297,61.0,0.14205899999999616,80.0,0.2841179999999994
4298,30.0,0.14205900000000327,59.0,0.14205899999999616
4299,52.0,0.14205899999999616,100.0,0.14137600000000106
4300,51.0,0.2827520000000021,86.0,0.14137600000000106
4301,49.0,0.5655039999999971,66.0,0.28824000000000183
4302,49.0,0.28824000000000183,68.0,0.5764799999999966
4303,45.0,0.5764799999999966,62.0,0.43236000000000274
4304,32.0,0.43236000000000274,49.0,0.14412000000000091
4305,47.0,0.14412000000000091,49.0,1.8959142125000028
4306,44.0,1.2719939999999994,49.0,0.6239202125000034
4307,45.0,0.6239202125000034,44.0,0.6238949999999974
4308,44.0,0.6238949999999974,46.0,2.5788920000000033
4309,42.0,1.2782279999999986,41.0,1.3006640000000047
4310,24.0,0.3195570000000032,37.0,0.3195569999999961
4311,25.0,0.3195569999999961,39.0,0.3195570000000032
4312,23.0,0.3195570000000032,37.0,0.3419930000000022
4313,32.0,0.1829937500000014,41.0,0.8140922500000016
4314,40.0,0.07949962499999685,41.0,1.3896856250000056
4315,47.0,0.07949962500000396,49.0,1.3101860000000016
4316,44.0,0.6550930000000008,49.0,0.6550930000000008
4317,45.0,0.6550930000000008,49.0,0.6347319958333273
4318,37.0,0.15824450000000923,46.0,0.15824449999999501
4319,35.0,0.15824449999999501,46.0,0.15824449999999501
4320,64.0,0.15824449999999501,79.0,0.47865124999999864
4321,35.0,0.15824450000000923,49.0,0.15824449999999501
4322,37.0,0.15824449999999501,49.0,0.1621622499999944
4323,66.0,0.1621622499999944,77.0,0.1621622500000086
4324,68.0,0.1621622500000086,81.0,1.284645999999995
4325,31.0,0.1621622499999944,51.0,0.1621622500000086
4326,32.0,0.1621622500000086,51.0,0.1621622499999944
4327,39.0,0.1621622499999944,51.0,0.1621622499999944
4328,69.0,0.1621622499999944,78.0,0.9494439999999997
4329,43.0,0.1589992499999937,53.0,0.15899925000000792
4330,44.0,0.15899925000000792,53.0,0.1589992499999937
4331,51.0,0.1589992499999937,53.0,0.15899925000000792
4332,64.0,0.15899925000000792,74.0,1.2816054999999977
4333,31.0,0.15672349999999824,52.0,0.15672349999999824
4334,68.0,0.15672349999999824,77.0,0.32271950000000516
4335,40.0,0.16135975000000258,53.0,0.16135975000000258
4336,67.0,0.16135975000000258,75.0,0.32271949999999094
4337,43.0,0.16135974999998837,55.0,0.16135975000000258
4338,68.0,0.16135975000000258,75.0,0.32271950000000516
4339,52.0,0.16135975000000258,56.0,0.16135975000000258
4340,71.0,0.16135975000000258,85.0,1.2784169999999904
4341,34.0,0.16135975000000258,55.0,0.16135975000000258
4342,35.0,0.16135975000000258,55.0,0.16135974999998837
4343,42.0,0.16135974999998837,55.0,0.16135975000000258
4344,73.0,0.16135975000000258,84.0,0.9405439999999885
4345,46.0,0.15824449999999501,57.0,0.15824450000000923
4346,47.0,0.15824450000000923,57.0,0.15824449999999501
4347,54.0,0.15824449999999501,57.0,0.15824449999999501
4348,68.0,0.15824449999999501,81.0,0.6240549999999985
4349,36.0,0.15378300000000422,56.0,0.15378299999999
4350,71.0,0.15378299999999,80.0,0.31648900000000424
4351,44.0,0.15824449999999501,57.0,0.15824450000000923
4352,69.0,0.15824450000000923,84.0,0.6329779999999943
4353,48.0,0.15824449999999501,58.0,0.15824449999999501
4354,49.0,0.15824449999999501,59.0,0.15824450000000923
4355,68.0,0.15824450000000923,78.0,0.15824449999999501
4356,71.0,0.15824449999999501,86.0,0.6315045000000055
4357,25.0,0.15597375000000113,52.0,0.15597375000000113
4358,69.0,0.15597375000000113,72.0,0.3195570000000032
4359,37.0,0.1597785000000016,52.0,0.1597785000000016
4360,68.0,0.1597785000000016,72.0,0.6345774999999918
4361,25.0,0.15672349999999824,52.0,0.15672349999999824
4362,65.0,0.15672349999999824,72.0,0.3211304999999953
4363,35.0,0.16056525000000477,52.0,0.16056524999999056
4364,68.0,0.16056524999999056,81.0,0.6315045000000055
4365,25.0,0.15597375000000113,52.0,0.15597375000000113
4366,66.0,0.15597375000000113,71.0,0.3195570000000032
4367,37.0,0.1597785000000016,52.0,0.1597785000000016
4368,61.0,0.1597785000000016,72.0,0.6238950000000045
4369,28.0,0.15597375000000113,52.0,0.15597375000000113
4370,64.0,0.15597375000000113,67.0,0.31194750000000226
4371,37.0,0.15597375000000113,52.0,0.15597375000000113
4372,61.0,0.15597375000000113,80.0,0.6330779999999976
4373,28.0,0.15597375000000113,52.0,0.15597375000000113
4374,59.0,0.15597375000000113,73.0,0.3211304999999953
4375,40.0,0.16056525000000477,52.0,0.16056524999999056
4376,52.0,0.16056524999999056,73.0,0.6422610000000049
4377,28.0,0.16056525000000477,52.0,0.16056525000000477
4378,57.0,0.16056525000000477,74.0,0.3211304999999953
4379,40.0,0.16056524999999056,52.0,0.16056525000000477
4380,54.0,0.16056525000000477,80.0,0.6376194999999996
4381,30.0,0.16056525000000477,47.0,0.16056524999999056
4382,35.0,0.16056524999999056,47.0,0.15824449999999501
4383,40.0,0.15824449999999501,47.0,0.15824450000000923
4384,56.0,0.15824450000000923,75.0,0.6255124999999992
4385,27.0,0.1545117499999975,47.0,0.1545117499999975
4386,57.0,0.1545117499999975,70.0,0.31648900000000424
4387,35.0,0.15824449999999501,47.0,0.15824450000000923
4388,61.0,0.15824450000000923,77.0,0.6284365000000065
4389,23.0,0.15597375000000113,47.0,0.15597375000000113
4390,60.0,0.15597375000000113,68.0,0.31648900000000424
4391,35.0,0.15824449999999501,47.0,0.15824450000000923
4392,59.0,0.15824450000000923,77.0,0.21408700000000636
4393,28.0,0.16056525000000477,47.0,0.16056524999999056
4394,52.0,0.05352175000000159,70.0,0.4281739999999985
4395,33.0,0.10704349999998897,47.0,0.16056525000000477
4396,57.0,0.10704350000000318,70.0,0.21408700000000636
4397,40.0,0.05352175000000159,47.0,0.16056525000000477
4398,54.0,0.16056525000000477,80.0,0.6316249999999997
4399,28.0,0.16056524999999056,47.0,0.16056525000000477
4400,56.0,0.16056525000000477,68.0,0.15524725000000217
4401,54.0,0.15524725000000217,63.0,0.15524725000000217
4402,53.0,0.15524725000000217,73.0,0.6487570000000034
4403,54.0,0.1597785000000016,68.0,0.1597785000000016
4404,56.0,0.1597785000000016,73.0,0.16459999999999297
4405,57.0,0.16459999999999297,69.0,0.16460000000000719
4406,58.0,0.16460000000000719,83.0,0.42300800000001004
4407,23.0,0.15824449999999501,47.0,0.15824450000000923
4408,59.0,0.05274816666667448,79.0,0.21201533333334055
4409,28.0,0.10549633333333475,46.0,0.1597785000000016
4410,68.0,0.1065190000000058,77.0,0.2130379999999974
4411,35.0,0.053259499999995796,46.0,0.1597785000000016
4412,66.0,0.1597785000000016,82.0,0.4260759999999948
4413,28.0,0.1597785000000016,45.0,0.1597785000000016
4414,64.0,0.053259499999995796,73.0,0.2130379999999974
4415,33.0,0.1065190000000058,44.0,0.1597784999999874
4416,57.0,0.10651899999999159,80.0,0.2130379999999974
4417,40.0,0.053259499999995796,44.0,0.1597785000000016
4418,54.0,0.1597785000000016,82.0,1.2463055000000054
4419,30.0,0.16459999999999297,42.0,0.16460000000000719
4420,35.0,0.16460000000000719,42.0,0.16459999999999297
4421,40.0,0.16459999999999297,41.0,0.16460000000000719
4422,51.0,0.16460000000000719,61.0,0.33594600000000696
4423,30.0,0.16797300000000348,41.0,0.16797300000000348
4424,35.0,0.16797300000000348,40.0,0.16797299999998927
4425,39.0,0.16797299999998927,40.0,0.16797300000000348
4426,52.0,0.08398650000000885,73.0,0.08398649999999463
4427,52.0,0.08398649999999463,85.0,0.18433166666666523
4428,49.0,0.18433166666666523,73.0,0.09216583333333972
4429,49.0,0.17874600000000385,73.0,0.08658016666666413
4430,49.0,0.17316033333334246,75.0,0.16881899999999916
4431,47.0,0.16881899999999916,71.0,0.08440950000000669
4432,57.0,0.165054666666677,74.0,0.08064516666665611
4433,57.0,0.16129033333332643,75.0,0.16285558333332517
4434,56.0,0.16285558333332517,74.0,0.08124800000000221
4435,61.0,0.1593668333333369,74.0,0.07811883333333469
4436,61.0,0.15623766666666938,78.0,0.15973166666667282
4437,59.0,0.15973166666667282,73.0,0.0798658333333293
4438,69.0,0.15832183333333205,73.0,0.07845600000000275
4439,69.0,0.15691199999999128,78.0,0.15910900000000083
4440,68.0,0.15910900000000083,73.0,0.07955450000000042
4441,61.0,0.15910900000000083,73.0,0.07825333333333617
4442,61.0,0.15650666666667234,75.0,0.15650666666665813
4443,59.0,0.15650666666665813,72.0,0.07825333333333617
4444,57.0,0.15650666666667234,74.0,0.07825333333333617
4445,57.0,0.15650666666665813,75.0,0.15650666666667234
4446,56.0,0.15650666666667234,71.0,0.07825333333333617
4447,49.0,0.15650666666667234,74.0,0.07825333333332196
4448,49.0,0.15650666666665813,78.0,0.15650666666667234
4449,47.0,0.15650666666667234,74.0,0.07825333333333617
4450,45.0,0.15743616666667037,74.0,0.0791828333333342
4451,45.0,0.1583656666666684,78.0,0.1631186666666622
4452,44.0,0.1631186666666622,67.0,0.0815593333333311
4453,48.0,0.1631186666666764,59.0,0.07804566666666801
4454,48.0,0.15609133333333602,62.0,0.15533966666666288
4455,47.0,0.15533966666666288,58.0,0.07766983333333144
4456,57.0,0.1553396666666771,52.0,0.07766983333333144
4457,57.0,0.15533966666666288,55.0,0.15533966666666288
4458,56.0,0.15533966666666288,52.0,0.07766983333333144
4459,60.0,0.15533966666666288,52.0,0.07766983333333144
4460,60.0,0.1553396666666771,55.0,0.15533966666666288
4461,59.0,0.15533966666666288,51.0,0.07766983333333144
4462,69.0,0.15533966666666288,46.0,0.07766983333333144
4463,69.0,0.15533966666666288,49.0,0.1553396666666771
4464,68.0,0.1553396666666771,46.0,0.07766983333333144
4465,60.0,0.15533966666666288,55.0,0.07766983333333144
4466,60.0,0.15533966666666288,59.0,0.15533966666666288
4467,59.0,0.15533966666666288,56.0,0.07766983333334565
4468,57.0,0.15724333333334073,56.0,0.07957350000000929
4469,57.0,0.15914700000000437,59.0,0.16148566666666397
4470,56.0,0.16148566666666397,55.0,0.08074283333333199
4471,48.0,0.16148566666666397,54.0,0.07766983333333144
4472,48.0,0.15533966666666288,59.0,0.15992333333333875
4473,47.0,0.15992333333333875,56.0,0.07996166666666227
4474,45.0,0.16528583333332847,62.0,0.0853241666666662
4475,45.0,0.1706483333333324,59.0,0.16148566666666397
4476,46.0,0.16148566666666397,49.0,0.08074283333333199
4477,51.0,0.15918650000000412,56.0,0.07844366666665792
4478,51.0,0.15688733333333005,59.0,0.15764166666666313
4479,50.0,0.15764166666666313,48.0,0.07882083333333867
4480,56.0,0.15617233333334468,56.0,0.0773514999999918
4481,56.0,0.15470299999999781,59.0,0.15470299999999781
4482,55.0,0.15470299999999781,52.0,0.0773514999999918
4483,63.0,0.15470299999999781,56.0,0.07735150000000601
4484,63.0,0.15470299999999781,59.0,0.15470299999999781
4485,62.0,0.15470299999999781,51.0,0.07735150000000601
4486,68.0,0.15653433333334021,55.0,0.0791828333333342
4487,68.0,0.1583656666666684,59.0,0.1583656666666684
4488,53.0,0.1583656666666684,63.0,0.1583656666666684
4489,59.0,0.1583656666666684,80.0,0.15779466666666053
4490,56.0,0.15779466666666053,74.0,0.15647083333333
4491,62.0,0.15647083333333,84.0,0.15535049999999728
4492,59.0,0.15535049999999728,79.0,0.15425650000000246
4493,65.0,0.15425650000000246,89.0,0.15261991666666574
4494,62.0,0.15261991666666574,85.0,0.1538893333333391
4495,68.0,0.1538893333333391,92.0,0.1551625833333361
4496,65.0,0.1551625833333361,86.0,0.15628408333333255
4497,71.0,0.15628408333333255,94.0,0.164405583333334
4498,74.0,0.164405583333334,90.0,0.16816599999999937
4499,75.0,0.16816599999999937,101.0,0.16816599999999937
4500,51.0,0.16816599999999937,77.0,0.1632846666666694
4501,51.0,0.1632846666666694,77.0,0.1603441666666754
4502,51.0,0.1603441666666754,77.0,0.16228499999999713
4503,51.0,0.16228499999999713,75.0,0.15764166666666313
4504,51.0,0.15764166666666313,75.0,0.15992333333333875
4505,51.0,0.15992333333333875,80.0,0.16148566666666397
4506,51.0,0.16148566666666397,77.0,0.15688733333333005
4507,51.0,0.15688733333333005,77.0,0.15992333333333875
4508,51.0,0.15992333333333875,81.0,0.15840333333333945
4509,51.0,0.15840333333333945,79.0,0.1518603333333317
4510,51.0,0.1518603333333317,79.0,0.15641908333333276
4511,51.0,0.15641908333333276,80.0,0.0815395000000052
4512,51.0,0.16080041666666034,81.0,0.07698233333333349
4513,51.0,0.15396466666666697,82.0,0.07996166666666227
4514,51.0,0.15992333333333875,83.0,0.07771216666667158
4515,52.0,0.15542433333332895,84.0,0.07557433333333563
4516,52.0,0.15114866666667126,85.0,0.07957983333332663
4517,52.0,0.15915966666666748,86.0,0.08074283333333199
4518,52.0,0.16148566666666397,88.0,0.07627766666666957
4519,52.0,0.15255533333333915,90.0,0.07882083333333867
4520,52.0,0.15764166666666313,91.0,0.07882083333333867
4521,52.0,0.15764166666666313,92.0,0.07498391666666748
4522,52.0,0.15038766666665992,93.0,0.07584120833334396
4523,52.0,0.15220654166668623,102.0,0.08720683333334023
4524,56.0,0.17155008333332944,95.0,0.16295933333333323
4525,56.0,0.16295933333333323,95.0,0.1683125833333321
4526,56.0,0.1683125833333321,101.0,0.1636393333333359
4527,54.0,0.1636393333333359,95.0,0.16482099999998923
4528,52.0,0.16482099999998923,95.0,0.16600266666667096
4529,21.0,0.16600266666667096,96.0,0.17636741666666467
4530,56.0,0.17636741666666467,95.0,0.1643926666666573
4531,56.0,0.1643926666666573,95.0,0.16930341666666493
4532,56.0,0.16930341666666493,101.0,0.16600266666667096
4533,54.0,0.16600266666667096,95.0,0.16763233333333005
4534,52.0,0.16763233333333005,95.0,0.16926200000000335
4535,23.0,0.16926200000000335,96.0,0.17529041666666956
4536,56.0,0.17529041666666956,95.0,0.1643926666666573
4537,56.0,0.1643926666666573,95.0,0.1699419166666729
4538,56.0,0.1699419166666729,101.0,0.1652210000000025
4539,54.0,0.1652210000000025,95.0,0.1652210000000025
4540,52.0,0.1652210000000025,95.0,0.1652209999999883
4541,25.0,0.1652209999999883,96.0,0.1817356666666683
4542,56.0,0.1817356666666683,95.0,0.1728664999999836
4543,56.0,0.1728664999999836,95.0,0.17787833333333936
4544,56.0,0.17787833333333936,101.0,0.18442362500000797
4545,54.0,0.18442362500000797,95.0,0.1899944166666785
4546,52.0,0.1899944166666785,95.0,0.1907669999999939
4547,42.0,0.1907669999999939,101.0,2.0339000000000027
4548,44.0,2.0339000000000027,95.0,2.1428559999999948
4549,25.0,2.1428559999999948,52.0,0.12520874999999876
4550,32.0,0.12520874999999876,29.0,0.12520874999999876
4551,40.0,0.12520874999999876,26.0,0.12500766666666152
4552,20.0,0.12500766666666152,33.0,0.12460550000000126
4553,25.0,0.12460550000000126,29.0,0.12460550000000126
4554,32.0,0.12460550000000126,29.0,0.12421399999999494
4555,40.0,0.12421399999999494,27.0,0.12401825000000599
4556,20.0,0.12401825000000599,35.0,0.12401824999999178
4557,25.0,0.12401824999999178,33.0,0.12345675000000256
4558,32.0,0.12345675000000256,30.0,0.12311941666666826
4559,40.0,0.12311941666666826,29.0,0.12261624999999299
4560,20.0,0.12261624999999299,35.0,0.12228308333332905
4561,25.0,0.12228308333332905,34.0,0.12178666666666516
4562,32.0,0.12178666666666516,35.0,0.12145749999999111
4563,40.0,0.12145749999999111,31.0,0.12096775000000548
4564,20.0,0.12096775000000548,39.0,0.12048199999999554
4565,25.0,0.12048199999999554,38.0,0.1206370000000021
4566,32.0,0.1206370000000021,35.0,0.12079933333332349
4567,40.0,0.12079933333332349,34.0,0.12112399999999468
4568,20.0,0.12112399999999468,39.0,0.12145133333334002
4569,25.0,0.12145133333334002,35.0,0.12161500000000558
4570,32.0,0.12161500000000558,34.0,0.12211000000000638
4571,40.0,0.12211000000000638,30.0,0.12227633333333188
4572,20.0,0.12227633333333188,36.0,0.12260899999999708
4573,25.0,0.12260899999999708,33.0,0.12294450000000268
4574,32.0,0.12294450000000268,30.0,0.12311224999999126
4575,40.0,0.12311224999999126,29.0,0.12311225000000547
4576,20.0,0.12311225000000547,35.0,0.12311225000000547
4577,25.0,0.12311225000000547,29.0,0.12401825000000599
4578,32.0,0.12401825000000599,29.0,0.12401824999999178
4579,40.0,0.12401824999999178,28.0,0.12401825000000599
4580,32.0,0.12401825000000599,33.0,0.12401824999999178
4581,52.0,0.12401824999999178,54.0,0.12460550000000126
4582,49.0,0.12460550000000126,51.0,0.12460550000000126
4583,37.0,0.12460550000000126,30.0,0.12460550000000126
4584,51.0,0.12460550000000126,51.0,0.12460550000000126
4585,52.0,0.12460550000000126,54.0,0.12284999999999968
4586,49.0,0.12284999999999968,51.0,0.12284999999999968
4587,37.0,0.12284999999999968,31.0,0.12460550000000126
4588,32.0,0.12460550000000126,31.0,0.12460550000000126
4589,52.0,0.12460550000000126,54.0,0.12227924999999118
4590,49.0,0.12227924999999118,51.0,0.1222792500000196
4591,37.0,0.1222792500000196,31.0,0.12460550000000126
4592,51.0,0.12460550000000126,51.0,0.12460550000000126
4593,52.0,0.12460550000000126,54.0,0.12284999999999968
4594,49.0,0.12284999999999968,51.0,0.12284999999999968
4595,37.0,0.12284999999999968,31.0,0.12460550000000126
4596,32.0,0.12460550000000126,31.0,0.12460550000000126
4597,52.0,0.12460550000000126,54.0,0.12284999999999968
4598,49.0,0.12284999999999968,51.0,0.12284999999999968
4599,37.0,0.12284999999999968,31.0,0.12460550000000126
4600,51.0,0.12460550000000126,61.0,0.12460550000000126
4601,52.0,0.12460550000000126,66.0,0.12227924999999118
4602,61.0,0.12227924999999118,64.0,0.1222792500000196
4603,37.0,0.1222792500000196,34.0,0.12828200000001289
4604,32.0,0.12828200000001289,34.0,0.12828199999998446
4605,51.0,0.12552299999998695,73.0,0.12552300000001537
4606,52.0,0.12552300000001537,84.0,0.12230628124999043
4607,61.0,0.12230628124999043,76.0,0.12227924999999118
4608,40.0,0.12227924999999118,50.0,0.12823197708334533
4609,28.0,0.12823197708334533,50.0,0.12828200000001289
4610,60.0,0.12828200000001289,76.0,0.12285930833331804
4611,51.0,0.12285930833331804,67.0,0.12284999999999968
4612,42.0,0.12284999999999968,47.0,0.125
4613,52.0,0.125,67.0,0.125
4614,54.0,0.125,68.0,0.12286791666667796
4615,51.0,0.12286791666667796,60.0,0.12284999999999968
4616,42.0,0.12284999999999968,48.0,0.12459087083334452
4617,27.0,0.12459087083334452,48.0,0.12460550000000126
4618,57.0,0.12460550000000126,71.0,0.12343607708331206
4619,51.0,0.12343607708331206,59.0,0.12342625000002272
4620,42.0,0.12342625000002272,47.0,0.12459567291665508
4621,52.0,0.12459567291665508,67.0,0.12460550000000126
4622,54.0,0.12460550000000126,68.0,0.12286462916665641
4623,51.0,0.12286462916665641,60.0,0.12284999999999968
4624,42.0,0.12284999999999968,48.0,0.12459087083334452
4625,27.0,0.12459087083334452,48.0,0.12460550000000126
4626,57.0,0.12460550000000126,71.0,0.12343607708331206
4627,51.0,0.12343607708331206,59.0,0.12342625000002272
4628,42.0,0.12342625000002272,47.0,0.12459567291665508
4629,52.0,0.12459567291665508,67.0,0.12460550000000126
4630,54.0,0.12460550000000126,68.0,0.12286462916665641
4631,51.0,0.12286462916665641,60.0,0.12284999999999968
4632,42.0,0.12284999999999968,48.0,0.12459087083334452
4633,27.0,0.12459087083334452,48.0,0.12460550000000126
4634,57.0,0.12460550000000126,74.0,0.12343607708331206
4635,51.0,0.12343607708331206,63.0,0.12342625000002272
4636,42.0,0.12342625000002272,50.0,0.12459567291665508
4637,52.0,0.12459567291665508,82.0,0.12460550000000126
4638,54.0,0.12460550000000126,88.0,0.12286462916665641
4639,63.0,0.12286462916665641,78.0,0.12284999999999968
4640,42.0,0.12284999999999968,54.0,0.12760876041667757
4641,27.0,0.12760876041667757,55.0,0.12764874999999165
4642,63.0,0.12764874999999165,73.0,0.12346143749999783
4643,52.0,0.12346143749999783,72.0,0.12342625000002272
4644,44.0,0.12342625000002272,47.0,0.12459567291665508
4645,54.0,0.12459567291665508,64.0,0.12460550000000126
4646,56.0,0.12460550000000126,69.0,0.12286462916665641
4647,61.0,0.12286462916665641,69.0,0.12284999999999968
4648,44.0,0.12284999999999968,48.0,0.12760876041667757
4649,28.0,0.12760876041667757,48.0,0.12764874999999165
4650,64.0,0.12764874999999165,85.0,0.12460550000000126
4651,63.0,0.12460550000000126,84.0,0.12460550000000126
4652,46.0,0.12460550000000126,55.0,0.12641149999998902
4653,61.0,0.12641149999998902,80.0,0.12641150000001744
4654,60.0,0.12641150000001744,86.0,0.12284999999999968
4655,63.0,0.12284999999999968,80.0,0.12284999999999968
4656,48.0,0.12284999999999968,57.0,0.12764874999999165
4657,32.0,0.12764874999999165,57.0,0.12764875000002007
4658,57.0,0.12764875000002007,67.0,0.12460550000000126
4659,56.0,0.12460550000000126,66.0,0.12460550000000126
4660,42.0,0.12460550000000126,44.0,0.12764874999999165
4661,54.0,0.12764874999999165,64.0,0.12764875000002007
4662,53.0,0.12764875000002007,69.0,0.12284999999999968
4663,56.0,0.12284999999999968,64.0,0.12284999999999968
4664,40.0,0.12284999999999968,44.0,0.12764874999999165
4665,25.0,0.12764874999999165,44.0,0.12764875000002007
4666,64.0,0.12764875000002007,85.0,0.12460550000000126
4667,63.0,0.12460550000000126,84.0,0.12460550000000126
4668,46.0,0.12460550000000126,55.0,0.12764874999999165
4669,61.0,0.12764874999999165,80.0,0.12764875000002007
4670,60.0,0.12764875000002007,86.0,0.12284999999999968
4671,63.0,0.12284999999999968,80.0,0.12284999999999968
4672,48.0,0.12284999999999968,57.0,0.12764874999999165
4673,32.0,0.12764874999999165,57.0,0.12764875000002007
4674,62.0,0.12764875000002007,84.0,0.12460550000000126
4675,61.0,0.12460550000000126,77.0,0.12460550000000126
4676,44.0,0.12460550000000126,55.0,0.12764874999999165
4677,59.0,0.12764874999999165,80.0,0.12764875000002007
4678,58.0,0.12764875000002007,86.0,0.12284999999999968
4679,61.0,0.12284999999999968,75.0,0.12284999999999968
4680,45.0,0.12284999999999968,55.0,0.15394100000000321
4681,30.0,0.15394100000000321,55.0,0.15394100000000321
4682,60.0,0.15394100000000321,99.0,0.8053140000000383
4683,25.0,0.13888900000000604,59.0,0.13888900000000604
4684,61.0,0.13888900000000604,79.0,0.2608695000000125
4685,25.0,0.13043475000000626,59.0,0.13043475000000626
4686,60.0,0.13043475000000626,89.0,0.2666665000000137
4687,25.0,0.13333324999999263,59.0,0.13333325000002105
4688,61.0,0.13333325000002105,79.0,0.2597404999999924
4689,25.0,0.1298702500000104,59.0,0.12987024999998198
4690,60.0,0.12987024999998198,92.0,0.2698570000000018
4691,25.0,0.1349285000000009,59.0,0.1349285000000009
4692,61.0,0.1349285000000009,80.0,0.5551644999999894
4693,25.0,0.13555024999999432,59.0,0.13555024999999432
4694,60.0,0.13555024999999432,89.0,0.28406400000000076
4695,30.0,0.14203200000000038,59.0,0.14203200000000038
4696,61.0,0.14203200000000038,80.0,0.28406400000000076
4697,30.0,0.14203200000000038,59.0,0.14203200000000038
4698,52.0,0.14203200000000038,100.0,0.1413494999999898
4699,51.0,0.282699000000008,86.0,0.1413494999999898
4700,49.0,0.5653979999999876,66.0,0.28818449999999984
4701,49.0,0.28818449999999984,68.0,0.5763689999999997
4702,45.0,0.5763689999999997,62.0,0.43227674999999977
4703,32.0,0.43227674999999977,49.0,0.14409224999999992
4704,47.0,0.14409224999999992,49.0,1.8959142125000028
4705,44.0,1.2719940000000065,49.0,0.6239202124999963
4706,45.0,0.6239202124999963,44.0,0.6238950000000045
4707,44.0,0.6238950000000045,47.0,2.5861209999999915
4708,42.0,1.2782280000000128,41.0,1.3078929999999787
4709,24.0,0.3195569999999748,37.0,0.32317150000000083
4710,25.0,0.32317150000000083,39.0,0.32317150000000083
4711,23.0,0.32317150000000083,37.0,0.3419930000000022
4712,32.0,0.1829937500000085,41.0,0.8140922499999874
4713,40.0,0.07949962500001106,41.0,1.38968562499997
4714,47.0,0.07949962499998264,49.0,1.9448829958333533
4715,44.0,0.6550929999999937,49.0,0.6550929999999937
4716,45.0,0.6550929999999937,49.0,0.6346969958333659
4717,44.0,0.31201249583335766,47.0,0.32268450000000826
4718,47.0,0.32268450000000826,44.0,0.6315045000000055
4719,45.0,0.31194750000000226,41.0,0.3195570000000032
4720,44.0,0.3195570000000032,45.0,2.5442359999999837
4721,42.0,1.2782279999999844,41.0,1.2660079999999994
4722,24.0,0.3134469999999965,37.0,0.3134469999999965
4723,27.0,0.3134469999999965,35.0,0.2130380000000116
4724,25.0,0.2130380000000116,34.0,0.21303799999998319
4725,23.0,0.21303799999998319,34.0,0.2130380000000116
4726,47.0,0.2130380000000116,53.0,1.2782279999999844
4727,49.0,0.6391140000000064,51.0,0.639113999999978
4728,51.0,0.639113999999978,52.0,1.247821706250022
4729,52.0,0.6239267062500176,58.0,0.6238950000000045
4730,54.0,0.4679212499999892,60.0,0.15597375000001534
4731,56.0,0.15597375000001534,61.0,0.6238949999999761
4732,49.0,0.6238949999999761,51.0,0.6430180000000121
4733,51.0,0.6430180000000121,52.0,1.2703948395833322
4734,37.0,0.5459479645833483,56.0,0.724446874999984
4735,52.0,0.07798687499999346,58.0,0.5644121249999898
4736,54.0,0.48236424999998917,60.0,0.16409575000000132
4737,20.0,0.08204787500000066,41.0,0.7384308750000059
4738,56.0,0.08204787500000066,63.0,1.3127660000000105
4739,54.0,0.6563830000000053,60.0,1.3060150000000021
4740,52.0,0.6563830000000053,63.0,0.6496319999999969
4741,51.0,0.6496319999999969,63.0,0.4679212499999892
4742,49.0,0.4679212499999892,57.0,0.15597375000001534
4743,47.0,0.15597375000001534,61.0,0.6430180000000121
4744,45.0,0.6430180000000121,59.0,0.47263950000001387
4745,40.0,0.47263950000001387,56.0,0.15754649999999515
4746,40.0,0.15754649999999515,59.0,0.9671889999999905
4747,39.0,0.6301859999999806,53.0,0.6873065000000054
4748,43.0,0.33700300000000993,60.0,0.17515174999999772
4749,44.0,0.17515174999999772,55.0,1.4533797500000105
4750,52.0,0.08757587499999886,60.0,1.3658038750000117
4751,59.0,0.08757587499999886,72.0,1.2782280000000128
4752,34.0,0.2130380000000116,33.0,0.21303799999998319
4753,35.0,0.21303799999998319,31.0,0.2130380000000116
4754,37.0,0.2130380000000116,37.0,0.21303799999998319
4755,35.0,0.21303799999998319,31.0,0.2130380000000116
4756,23.0,0.2130380000000116,31.0,0.2130380000000116
4757,56.0,0.2130380000000116,60.0,0.6238950000000045
4758,34.0,0.2079650000000015,35.0,0.2079650000000015
4759,35.0,0.2079650000000015,35.0,0.2079650000000015
4760,47.0,0.2079650000000015,39.0,0.3195570000000032
4761,35.0,0.2130380000000116,33.0,0.2173591666666539
4762,57.0,0.10651899999999159,55.0,0.3325204999999869
4763,23.0,0.1108401666666623,33.0,0.2216803333333246
4764,56.0,0.2216803333333246,68.0,1.2660079999999994
4765,34.0,0.2089646666666738,35.0,0.20896466666664537
4766,35.0,0.20896466666664537,35.0,0.2089646666666738
4767,37.0,0.2089646666666738,37.0,0.2130380000000116
4768,35.0,0.2130380000000116,33.0,0.21303799999998319
4769,54.0,0.10651899999999159,55.0,0.3195570000000032
4770,23.0,0.10651899999999159,33.0,0.2130380000000116
4771,49.0,0.2130380000000116,58.0,0.31194750000000226
4772,34.0,0.2079650000000015,35.0,0.2079650000000015
4773,47.0,0.10398250000000075,52.0,0.31194750000000226
4774,35.0,0.10398250000000075,35.0,0.2079650000000015
4775,40.0,0.2079650000000015,61.0,0.32113050000000953
4776,35.0,0.21408700000000636,33.0,0.21845166666668092
4777,42.0,0.10704350000000318,55.0,0.1671122500000024
4778,23.0,0.11140816666667774,33.0,0.22281633333332707
4779,44.0,0.05570408333332466,62.0,0.1671122500000024
4780,59.0,0.1671122500000024,68.0,1.2782280000000128
4781,34.0,0.3195570000000032,34.0,0.1597784999999874
4782,35.0,0.1597784999999874,33.0,0.1597785000000158
4783,56.0,0.1597785000000158,62.0,0.6391140000000064
4784,35.0,0.1597784999999874,31.0,0.14380065000000286
4785,35.0,0.1597785000000158,37.0,0.1597784999999874
4786,23.0,0.1597784999999874,37.0,0.1597785000000158
4787,57.0,0.1597785000000158,66.0,0.6238950000000045
4788,56.0,0.31194750000000226,55.0,0.31194750000000226
4789,35.0,0.15597374999998692,35.0,0.15597375000001534
4790,56.0,0.15597375000001534,57.0,0.2130380000000116
4791,35.0,0.1597784999999874,33.0,0.14380065000000286
4792,59.0,0.05325950000002422,55.0,0.21303799999998319
4793,35.0,0.10651899999999159,37.0,0.1597784999999874
4794,57.0,0.10651899999999159,55.0,0.2130380000000116
4795,23.0,0.053259499999995796,31.0,0.1597785000000158
4796,56.0,0.1597785000000158,61.0,1.2660079999999994
4797,34.0,0.3134469999999965,35.0,0.15672349999999824
4798,35.0,0.15672349999999824,35.0,0.15672349999999824
4799,37.0,0.15672349999999824,37.0,0.1597784999999874
4800,35.0,0.1597784999999874,33.0,0.14380065000000286
4801,54.0,0.1597785000000158,60.0,0.3195570000000032
4802,23.0,0.1597784999999874,33.0,0.1597785000000158
4803,49.0,0.1597785000000158,60.0,0.31194750000000226
4804,47.0,0.2079650000000015,51.0,0.2079650000000015
4805,34.0,0.10398250000000075,35.0,0.15597374999998692
4806,49.0,0.10398250000000075,51.0,0.2079650000000015
4807,35.0,0.05199124999998617,35.0,0.15597375000001534
4808,47.0,0.15597375000001534,58.0,0.21408700000000636
4809,35.0,0.16056524999999056,35.0,0.14450872500000855
4810,40.0,0.0535217500000158,53.0,0.2207703333333484
4811,35.0,0.10704350000000318,39.0,0.1705902500000036
4812,42.0,0.11372683333334521,53.0,0.227453666666662
4813,23.0,0.056863416666658395,35.0,0.1705902500000036
4814,59.0,0.1705902500000036,73.0,1.2751719999999978
4815,35.0,0.16056524999999056,39.0,0.16056525000001898
4816,37.0,0.16056525000001898,39.0,0.16056524999999056
4817,35.0,0.16056524999999056,39.0,0.16056524999999056
4818,61.0,0.16056524999999056,68.0,0.6329110000000071
4819,35.0,0.15822775000000888,40.0,0.15822774999998046
4820,37.0,0.15822774999998046,40.0,0.15822775000000888
4821,35.0,0.15822775000000888,41.0,0.15822775000000888
4822,63.0,0.15822775000000888,73.0,1.2621744999999862
4823,35.0,0.15822774999998046,40.0,0.15822775000000888
4824,37.0,0.15822775000000888,41.0,0.15822775000000888
4825,35.0,0.15822775000000888,41.0,0.15822775000000888
4826,64.0,0.15822775000000888,75.0,0.4679212499999892
4827,35.0,0.15597374999998692,44.0,0.15597375000001534
4828,37.0,0.15597375000001534,44.0,0.15597374999998692
4829,66.0,0.15597374999998692,73.0,0.16134224999998992
4830,68.0,0.16134224999998992,78.0,1.2658220000000142
4831,35.0,0.15822775000000888,42.0,0.15822774999998046
4832,37.0,0.15822774999998046,42.0,0.15822775000000888
4833,35.0,0.15822775000000888,42.0,0.15822775000000888
4834,61.0,0.15822775000000888,73.0,0.6329110000000071
4835,35.0,0.15822774999998046,46.0,0.15822775000000888
4836,37.0,0.15822775000000888,46.0,0.15822775000000888
4837,35.0,0.15822775000000888,46.0,0.15822775000000888
4838,63.0,0.15822775000000888,78.0,0.6329109999999787
4839,35.0,0.15822774999998046,46.0,0.15822775000000888
4840,37.0,0.15822775000000888,46.0,0.15822775000000888
4841,35.0,0.15822775000000888,46.0,0.15822774999998046
4842,64.0,0.15822774999998046,79.0,0.4814175000000205
4843,35.0,0.15822775000000888,49.0,0.15822775000000888
4844,37.0,0.15822775000000888,49.0,0.16496200000000272
4845,66.0,0.16496200000000272,77.0,0.16496200000000272
4846,68.0,0.16496200000000272,81.0,1.3028659999999945
4847,31.0,0.16496200000000272,51.0,0.16496200000000272
4848,32.0,0.16496200000000272,51.0,0.16496200000000272
4849,39.0,0.16496200000000272,51.0,0.1649619999999743
4850,69.0,0.1649619999999743,78.0,0.9564650000000086
4851,43.0,0.16075449999999591,53.0,0.16075449999999591
4852,44.0,0.16075449999999591,53.0,0.16075449999999591
4853,51.0,0.16075449999999591,53.0,0.16075450000002434
4854,64.0,0.16075450000002434,74.0,1.2815004999999928
4855,31.0,0.15672349999999824,52.0,0.15672349999999824
4856,68.0,0.15672349999999824,77.0,0.32268450000000826
4857,40.0,0.16134224999998992,53.0,0.16134225000001834
4858,67.0,0.16134225000001834,75.0,0.32268449999997983
4859,43.0,0.16134224999998992,55.0,0.16134224999998992
4860,68.0,0.16134224999998992,75.0,0.32268450000000826
4861,52.0,0.16134225000001834,56.0,0.16134224999998992
4862,71.0,0.16134224999998992,85.0,1.2782800000000236
4863,34.0,0.16134224999998992,55.0,0.16134225000001834
4864,35.0,0.16134225000001834,55.0,0.16134224999998992
4865,42.0,0.16134224999998992,55.0,0.16134225000001834
4866,73.0,0.16134225000001834,84.0,0.9404455000000098
4867,46.0,0.15822775000000888,57.0,0.15822774999998046
4868,47.0,0.15822774999998046,57.0,0.15822775000000888
4869,54.0,0.15822775000000888,57.0,0.15822775000000888
4870,68.0,0.15822775000000888,81.0,0.623989999999992
4871,36.0,0.15376724999998714,56.0,0.15376725000001557
4872,71.0,0.15376725000001557,80.0,0.31645549999998934
4873,44.0,0.15822775000000888,57.0,0.15822774999998046
4874,69.0,0.15822774999998046,84.0,0.6329110000000071
4875,48.0,0.15822775000000888,58.0,0.15822775000000888
4876,49.0,0.15822775000000888,59.0,0.15822774999998046
4877,68.0,0.15822774999998046,78.0,0.15822775000000888
4878,71.0,0.15822775000000888,86.0,0.6315045000000055
4879,25.0,0.15597374999998692,52.0,0.15597375000001534
4880,69.0,0.15597375000001534,72.0,0.3195570000000032
4881,37.0,0.1597784999999874,52.0,0.1597785000000158
4882,68.0,0.1597785000000158,72.0,0.634577500000006
4883,25.0,0.15672349999999824,52.0,0.15672349999999824
4884,65.0,0.15672349999999824,72.0,0.32113050000000953
4885,35.0,0.16056524999999056,52.0,0.16056525000001898
4886,68.0,0.16056525000001898,81.0,0.6315045000000055
4887,25.0,0.15597374999998692,52.0,0.15597375000001534
4888,66.0,0.15597375000001534,71.0,0.3195570000000032
4889,37.0,0.1597784999999874,52.0,0.1597785000000158
4890,61.0,0.1597785000000158,72.0,0.6238950000000045
4891,28.0,0.15597374999998692,52.0,0.15597375000001534
4892,65.0,0.15506966666669086,89.0,0.1534278333333532
4893,62.0,0.1534278333333532,85.0,0.15470166666665364
4894,68.0,0.15470166666665364,92.0,0.1559855833333188
4895,65.0,0.1559855833333188,86.0,0.15711283333334336
4896,71.0,0.15711283333334336,94.0,0.1652714999999887
4897,74.0,0.1652714999999887,90.0,0.16904733333333866
4898,75.0,0.16904733333333866,101.0,0.16638933333334194
4899,51.0,0.16638933333334194,77.0,0.16281250000000114
4900,51.0,0.16281250000000114,77.0,0.1611838333333253
4901,51.0,0.1611838333333253,77.0,0.16313199999999028
4902,51.0,0.16313199999999028,75.0,0.15846600000000421
4903,51.0,0.15846600000000421,75.0,0.16075866666668048
4904,51.0,0.16075866666668048,80.0,0.16235100000000102
4905,51.0,0.16235100000000102,77.0,0.15772866666665664
4906,51.0,0.15772866666665664,77.0,0.16075866666668048
4907,51.0,0.16075866666668048,81.0,0.15923566666666034
4908,51.0,0.15923566666666034,79.0,0.15265999999999735
4909,51.0,0.15265999999999735,79.0,0.1572424999999953
4910,51.0,0.1572424999999953,80.0,0.08196716666665793
4911,51.0,0.16164741666668192,81.0,0.0773933333333332
4912,51.0,0.1547866666666664,82.0,0.08037933333332603
4913,51.0,0.16075866666668048,83.0,0.07811883333332048
4914,52.0,0.15623766666666938,84.0,0.07597633333332965
4915,52.0,0.1519526666666593,85.0,0.0800000000000125
4916,52.0,0.1599999999999966,86.0,0.08117550000000051
4917,52.0,0.16235100000000102,88.0,0.07668116666667402
4918,52.0,0.1533623333333196,90.0,0.0792329999999879
4919,52.0,0.15846600000000421,91.0,0.0792329999999879
4920,52.0,0.15846600000000421,92.0,0.07537949999999682
4921,52.0,0.1511834166666688,93.0,0.07624158333331366
4922,52.0,0.15300987499998087,102.0,0.09062900000000695
4923,56.0,0.17626608333333138,95.0,0.16129033333334064
4924,56.0,0.16129033333334064,95.0,0.16700066666666658
4925,56.0,0.16700066666666658,101.0,0.16223233333332132
4926,54.0,0.16223233333332132,95.0,0.16301616666666519
4927,52.0,0.16301616666666519,95.0,0.16380000000000905
4928,21.0,0.16380000000000905,96.0,0.1700360000000103
4929,56.0,0.1700360000000103,95.0,0.16200899999998342
4930,56.0,0.16200899999998342,95.0,0.1670097500000054
4931,56.0,0.1670097500000054,101.0,0.16380000000000905
4932,54.0,0.16380000000000905,95.0,0.16664583333331962
4933,52.0,0.16664583333331962,95.0,0.1694916666666586
4934,23.0,0.1694916666666586,96.0,0.17596499999999082
4935,56.0,0.17596499999999082,95.0,0.16273400000000038
4936,56.0,0.16273400000000038,95.0,0.16780224999999405
4937,56.0,0.16780224999999405,101.0,0.16301233333334153
4938,54.0,0.16301233333334153,95.0,0.1630123333333131
4939,52.0,0.1630123333333131,95.0,0.16301233333334153
4940,25.0,0.16301233333334153,96.0,0.17939975000001596
4941,56.0,0.17939975000001596,95.0,0.17333375000001183
4942,56.0,0.17333375000001183,95.0,0.17753450000000726
4943,56.0,0.17753450000000726,101.0,0.18194375000001628
4944,54.0,0.18194375000001628,95.0,0.18919762499999138
4945,52.0,0.18919762499999138,95.0,0.19169933333333233
4946,42.0,0.19169933333333233,101.0,2.06771599999999
4947,44.0,2.06771599999999,95.0,2.218231750000001
4948,45.0,2.1304508749999798,86.0,0.0877808750000213
4949,45.0,0.0877808750000213,93.0,1.1077622500000075
4950,21.0,0.13824875000000247,60.0,0.13824875000000247
4951,23.0,0.27649750000000495,66.0,0.13215850000000273
4952,24.0,0.13215850000000273,62.0,0.13824875000000247
4953,21.0,0.13824875000000247,62.0,0.13824875000000247
4954,24.0,0.42260874999999487,44.0,0.13761475000001155
4955,21.0,0.13761475000001155,39.0,0.13761474999998313
4956,23.0,0.2752294999999947,44.0,0.1327432500000043
4957,24.0,0.1327432500000043,39.0,0.13824875000000247
4958,21.0,0.13824875000000247,39.0,0.13824875000000247
4959,24.0,0.4267102500000135,44.0,0.1421799999999962
4960,21.0,0.1421799999999962,39.0,0.1421799999999962
4961,23.0,0.2843599999999924,44.0,0.1363637499999868
4962,24.0,0.1363637499999868,39.0,0.14778325000000336
4963,33.0,0.14778325000000336,39.0,0.14778325000000336
4964,48.0,0.49662025000000654,47.0,1.561602999999991
4965,49.0,0.5769229999999936,44.0,0.5581400000000087
4966,50.0,0.5581400000000087,47.0,1.1294680000000028
4967,41.0,0.4265399999999886,40.0,0.14218000000002462
4968,41.0,0.14218000000002462,44.0,0.5607479999999896
4969,29.0,0.5607479999999896,39.0,0.4205610000000206
4970,22.0,0.4205610000000206,35.0,0.1401869999999974
4971,22.0,0.1401869999999974,37.0,0.5607479999999896
4972,17.0,0.5607479999999896,39.0,0.13824875000000247
4973,10.0,0.13824875000000247,36.0,0.13824875000000247
4974,12.0,0.27649750000000495,39.0,0.1327432500000043
4975,14.0,0.1327432500000043,36.0,0.13824875000000247
4976,10.0,0.13824875000000247,36.0,0.13824875000000247
4977,29.0,0.4212677499999984,41.0,0.13698625000000675
4978,22.0,0.13698625000000675,39.0,0.13698625000000675
4979,24.0,0.2739724999999851,42.0,0.1298702500000104
4980,26.0,0.1298702500000104,39.0,0.13574650000001043
4981,22.0,0.13574650000001043,39.0,0.135746499999982
4982,29.0,0.4135244999999941,46.0,0.13043475000000626
4983,23.0,0.13043475000000626,42.0,0.13043475000000626
4984,24.0,0.2608694999999841,47.0,0.12448125000000232
4985,26.0,0.12448125000000232,42.0,0.13452925000001414
4986,23.0,0.13452925000001414,45.0,0.1329762500000129
4987,29.0,0.3916000833333442,58.0,0.12802333333331717
4988,23.0,0.12802333333331717,53.0,0.1272989999999936
4989,24.0,0.2538812500000063,60.0,0.12244899999998893
4990,26.0,0.12244899999998893,53.0,0.13392849999999612
4991,23.0,0.13392849999999612,56.0,0.13392849999999612
4992,29.0,0.39708650000000034,63.0,0.13452925000001414
4993,26.0,0.13452925000001414,58.0,0.13452924999998572
4994,28.0,0.26905849999999987,67.0,0.12658225000001266
4995,29.0,0.12658225000001266,60.0,0.1428572499999916
4996,38.0,0.1428572499999916,62.0,0.14285725000002003
4997,50.0,0.43988675000002786,49.0,1.5317679999999712
4998,51.0,0.5607479999999896,47.0,0.5504589999999894
4999,52.0,0.5504589999999894,49.0,2.2180099999999925
5000,44.0,0.4205609999999922,44.0,0.1401869999999974
5001,44.0,0.1401869999999974,47.0,1.657262000000003
5002,24.0,0.560748000000018,39.0,0.1351352499999905
5003,20.0,0.1351352499999905,36.0,0.1351352500000189
5004,22.0,0.2702705000000094,39.0,0.12711874999999395
5005,24.0,0.12711874999999395,35.0,0.1363637499999868
5006,20.0,0.1363637499999868,35.0,0.13636375000001522
5007,52.0,0.42762575000000425,56.0,1.1209849999999904
5008,45.0,0.4265399999999886,55.0,0.13888900000000604
5009,45.0,0.13888900000000604,58.0,0.5555559999999957
5010,53.0,0.5555559999999957,61.0,1.1242149999999924
5011,46.0,0.4265399999999886,57.0,0.13953499999999508
5012,46.0,0.13953499999999508,60.0,0.5581400000000087
5013,54.0,0.5581400000000087,75.0,1.113897499999979
5014,22.0,0.13953499999999508,38.0,0.13953499999999508
5015,24.0,0.27906999999999016,46.0,0.12765949999999293
5016,26.0,0.12765949999999293,41.0,0.14492749999999432
5017,22.0,0.14492749999999432,42.0,0.14492749999999432
5018,53.0,0.14492749999999432,68.0,0.27777800000001207
5019,53.0,0.27777800000001207,73.0,0.558281500000021
5020,22.0,0.140845000000013,38.0,0.14084499999998457
5021,51.0,0.28168999999999755,51.0,0.558281500000021
5022,44.0,0.13574650000001043,44.0,0.5740502499999991
5023,22.0,0.140845000000013,42.0,0.14084499999998457
5024,49.0,0.28168999999999755,61.0,0.15151524999998855
5025,49.0,0.15151524999998855,68.0,1.1378655000000037
5026,22.0,0.140845000000013,31.0,0.14084499999998457
5027,47.0,0.28718649999999,55.0,0.14634150000000545
5028,47.0,0.14634150000000545,61.0,0.19675941666667995
5029,35.0,0.13888900000000604,30.0,0.13888900000000604
5030,51.0,0.0462963333333164,62.0,0.19973560416667624
5031,49.0,0.1878308333333507,61.0,0.20249556249996203
5032,47.0,0.19047633333332215,64.0,1.1538459999999873
5033,29.0,0.14423075000001973,31.0,0.14423074999996288
5034,30.0,0.2884614999999826,35.0,0.14423075000001973
5035,46.0,0.14423075000001973,58.0,0.2884614999999826
5036,41.0,0.14423074999996288,30.0,0.14423075000001973
5037,58.0,0.14423075000001973,70.0,0.2884614999999826
5038,49.0,0.2884614999999826,64.0,0.1809953333333283
5039,48.0,0.135746499999982,58.0,0.13574650000003885
5040,24.0,0.04524883333334628,39.0,0.3695676666666827
5041,34.0,0.18352100000004157,39.0,0.18604666666664116
5042,46.0,0.0465116666666745,61.0,0.13953499999996666
5043,45.0,0.13953499999996666,67.0,0.18181833333335362
5044,48.0,0.1363637499999868,61.0,0.1363637499999868
5045,24.0,0.04545458333336683,40.0,0.18436716666661823
5046,17.0,0.18436716666661823,40.0,0.18691599999999653
5047,51.0,0.046729000000027554,63.0,0.14018699999996898
5048,51.0,0.14018699999996898,68.0,0.17937233333333324
5049,50.0,0.13452925000001414,63.0,0.13452925000001414
5050,26.0,0.0448430833333191,38.0,0.3661836666667
5051,36.0,0.18185200000004897,39.0,0.18433166666665102
5052,48.0,0.04608291666664854,62.0,0.13824875000000247
5053,47.0,0.13824875000000247,68.0,0.17937233333333324
5054,50.0,0.13452925000001414,62.0,0.13452925000001414
5055,26.0,0.0448430833333191,39.0,0.18185200000004897
5056,19.0,0.18185200000004897,39.0,0.18433166666665102
5057,53.0,0.04608291666664854,64.0,0.13824875000000247
5058,53.0,0.13824875000000247,70.0,0.17937233333333324
5059,52.0,0.13452925000001414,64.0,0.13452925000001414
5060,28.0,0.0448430833333191,40.0,0.18185200000004897
5061,38.0,0.18185200000004897,40.0,0.18433166666665102
5062,50.0,0.04608291666664854,62.0,0.13824875000000247
5063,49.0,0.13824875000000247,64.0,0.17937233333333324
5064,52.0,0.17937233333333324,68.0,0.18270950000004405
5065,52.0,0.18270950000004405,72.0,0.18604666666664116
5066,55.0,0.18604666666664116,75.0,0.18161433333335708
5067,55.0,0.18161433333335708,78.0,0.1841224166666393
5068,61.0,0.1841224166666393,81.0,0.18670066666669527
5069,64.0,0.18670066666669527,86.0,0.18935208333334685
5070,67.0,0.18935208333334685,84.0,0.19207991666667112
5071,79.0,0.19207991666667112,86.0,0.19609016666663592
5072,51.0,0.19609016666663592,82.0,1.1343985000000316
5073,19.0,0.14354074999999966,53.0,0.14354074999999966
5074,21.0,0.2811555000000112,62.0,0.1298702500000104
5075,23.0,0.1298702500000104,56.0,0.14705874999998514
5076,19.0,0.14705874999998514,57.0,0.14705875000004198
5077,49.0,0.14705875000004198,72.0,0.2857144999999832
5078,49.0,0.2857144999999832,77.0,1.1170174999999745
5079,20.0,0.13215850000000273,53.0,0.14018700000002582
5080,22.0,0.2803739999999948,62.0,0.13043475000000626
5081,47.0,0.13043475000000626,73.0,0.4225349999999821
5082,20.0,0.140845000000013,57.0,0.140845000000013
5083,47.0,0.28168999999996913,67.0,0.15151524999998855
5084,47.0,0.15151524999998855,70.0,0.9319610833333627
5085,22.0,0.13333325000002105,42.0,0.140845000000013
5086,46.0,0.28235449999999673,60.0,0.1415095000000406
5087,46.0,0.1415095000000406,68.0,0.19767458333330978
5088,34.0,0.1395350000000235,47.0,0.13953499999996666
5089,44.0,0.04651166666661766,63.0,0.20067889583333454
5090,43.0,0.18871716666666316,60.0,0.19138766666668516
5091,46.0,0.19138766666668516,71.0,1.1444544999999948
5092,24.0,0.14423075000001973,39.0,0.14423074999996288
5093,25.0,0.2884614999999826,44.0,0.14423075000001973
5094,45.0,0.14423075000001973,62.0,0.2884614999999826
5095,39.0,0.14423074999996288,38.0,0.14423075000001973
5096,60.0,0.14423075000001973,68.0,0.27906999999999016
5097,51.0,0.27906999999999016,70.0,0.1809953333333283
5098,50.0,0.135746499999982,63.0,0.13574650000003885
5099,26.0,0.04524883333334628,42.0,0.37087166666668736
5100,36.0,0.18395566666669083,42.0,0.18691599999999653
5101,48.0,0.046729000000027554,67.0,0.14018699999996898
5102,47.0,0.14018699999996898,73.0,0.18348633333334874
5103,50.0,0.13761475000001155,67.0,0.13761475000001155
5104,26.0,0.045871583333337185,44.0,0.18476650000002337
5105,19.0,0.18476650000002337,44.0,0.18604666666664116
5106,53.0,0.0465116666666745,69.0,0.13953499999996666
5107,53.0,0.13953499999996666,74.0,0.1801803333333396
5108,52.0,0.1351352500000189,69.0,0.13513524999996207
5109,28.0,0.04504508333332069,41.0,0.3653196666666645
5110,38.0,0.18183333333331575,42.0,0.18348633333334874
5111,50.0,0.045871583333337185,68.0,0.13761475000001155
5112,49.0,0.13761475000001155,74.0,0.1785713333333092
5113,52.0,0.13392850000002454,68.0,0.1339284999999677
5114,28.0,0.04464283333328467,42.0,0.1810288333333574
5115,21.0,0.1810288333333574,42.0,0.18348633333334874
5116,55.0,0.045871583333337185,70.0,0.13761475000001155
5117,55.0,0.13761475000001155,77.0,0.1801803333333396
5118,54.0,0.1351352500000189,70.0,0.13513524999996207
5119,30.0,0.04504508333332069,44.0,0.3704641666666362
5120,40.0,0.18354816666663964,44.0,0.18691599999999653
5121,52.0,0.046729000000027554,68.0,0.14018699999996898
5122,51.0,0.14018699999996898,70.0,0.18691599999999653
5123,54.0,0.18691599999999653,74.0,0.18691599999999653
5124,54.0,0.18691599999999653,79.0,0.18648333333334222
5125,57.0,0.18648333333334222,82.0,0.186266000000046
5126,57.0,0.186266000000046,85.0,0.1886813333333066
5127,60.0,0.1886813333333066,89.0,0.19116200000001982
5128,60.0,0.19116200000001982,94.0,0.19347341666667717
5129,65.0,0.19347341666667717,97.0,0.19608075000002145
5130,69.0,0.19608075000002145,104.0,0.19876108333335196
5131,70.0,0.19876108333335196,104.0,0.18073366666664015
5132,61.0,0.13555024999999432,93.0,0.13555024999999432
5133,37.0,0.045183416666645826,72.0,0.18333816666665825
5134,41.0,0.18333816666665825,80.0,0.18594266666667636
5135,63.0,0.0464856666666833,94.0,0.13945699999999306
5136,65.0,0.13945699999999306,100.0,0.1824316666666732
5137,58.0,0.13682375000001912,94.0,0.13682374999996227
5138,41.0,0.04560791666665409,75.0,0.18200116666662325
5139,17.0,0.27278649999999516,66.0,0.09078533333331507
5140,65.0,0.09078533333331507,104.0,0.18073366666664015
5141,58.0,0.13555024999999432,93.0,0.13555024999999432
5142,37.0,0.045183416666645826,72.0,0.18333816666665825
5143,41.0,0.18333816666665825,75.0,0.18594266666667636
5144,60.0,0.0464856666666833,89.0,0.13945699999999306
5145,61.0,0.13945699999999306,94.0,0.1824316666666732
5146,70.0,0.13682375000001912,89.0,0.13682374999996227
5147,41.0,0.04560791666665409,71.0,0.18418716666661794
5148,37.0,0.18418716666661794,62.0,0.18594266666667636
5149,68.0,0.18594266666667636,101.0,0.18073366666664015
5150,61.0,0.13555024999999432,90.0,0.13555024999999432
5151,40.0,0.045183416666645826,70.0,0.18333816666665825
5152,44.0,0.18333816666665825,77.0,0.18594266666667636
5153,63.0,0.0464856666666833,91.0,0.13945699999999306
5154,64.0,0.13945699999999306,96.0,0.1824316666666732
5155,56.0,0.13682375000001912,91.0,0.13682374999996227
5156,44.0,0.04560791666665409,72.0,0.18200116666662325
5157,28.0,0.27278649999999516,63.0,0.09078533333331507
5158,68.0,0.09078533333331507,99.0,0.18073366666664015
5159,61.0,0.13555024999999432,90.0,0.13555024999999432
5160,40.0,0.045183416666645826,70.0,0.18333816666665825
5161,44.0,0.18333816666665825,72.0,0.18594266666667636
5162,63.0,0.0464856666666833,85.0,0.13945699999999306
5163,64.0,0.13945699999999306,91.0,0.1824316666666732
5164,73.0,0.13682375000001912,85.0,0.13682374999996227
5165,44.0,0.04560791666665409,69.0,0.18418716666661794
5166,40.0,0.18418716666661794,60.0,0.18594266666667636
5167,68.0,0.18594266666667636,104.0,0.18073366666664015
5168,59.0,0.13555024999999432,93.0,0.13555024999999432
5169,39.0,0.045183416666645826,72.0,0.18333816666665825
5170,44.0,0.18333816666665825,80.0,0.18594266666667636
5171,61.0,0.0464856666666833,91.0,0.13945699999999306
5172,63.0,0.13945699999999306,96.0,0.1824316666666732
5173,56.0,0.13682375000001912,91.0,0.13682374999996227
5174,44.0,0.04560791666665409,75.0,0.18200116666662325
5175,15.0,0.2954828333333239,66.0,0.09068070833330921
5176,63.0,0.0680889999999863,104.0,0.13555024999999432
5177,56.0,0.13555024999999432,93.0,0.13555024999999432
5178,39.0,0.045183416666645826,72.0,0.18333816666665825
5179,70.0,0.09132416666665222,79.0,0.18264833333336128
5180,40.0,0.04566208333335453,56.0,0.13698625000000675
5181,70.0,0.13698625000000675,85.0,0.1361779999999726
5182,69.0,0.1361779999999726,79.0,0.13617800000002944
5183,45.0,0.13617800000002944,53.0,0.13878599999998187
5184,38.0,0.13878599999998187,53.0,0.13918222916669265
5185,50.0,0.13918222916669265,68.0,0.1361779999999726
5186,42.0,0.1361779999999726,62.0,0.13617800000002944
5187,33.0,0.13617800000002944,39.0,0.140818749999994
5188,43.0,0.140818749999994,66.0,0.140818749999994
5189,45.0,0.140818749999994,69.0,0.1361779999999726
5190,54.0,0.1361779999999726,67.0,0.13617800000002944
5191,38.0,0.13617800000002944,42.0,0.14013449999998784
5192,30.0,0.14013449999998784,44.0,0.14013449999998784
5193,57.0,0.14013449999998784,72.0,0.1361779999999726
5194,50.0,0.1361779999999726,66.0,0.13617800000002944
5195,42.0,0.13617800000002944,44.0,0.13945699999999306
5196,52.0,0.13945699999999306,70.0,0.13945699999999306
5197,54.0,0.13945699999999306,74.0,0.1351352500000189
5198,62.0,0.1351352500000189,70.0,0.13513524999996207
5199,45.0,0.13513524999996207,44.0,0.13698625000000675
5200,38.0,0.13698625000000675,44.0,0.13698625000000675
5201,66.0,0.13698625000000675,79.0,0.13215850000000273
5202,57.0,0.13215850000000273,74.0,0.13215850000000273
5203,50.0,0.13215850000000273,48.0,0.1351352500000189
5204,61.0,0.1351352500000189,75.0,0.13513524999996207
5205,62.0,0.13513524999996207,80.0,0.1315789999999879
5206,69.0,0.1315789999999879,75.0,0.13375983333332897
5207,54.0,0.13375983333332897,51.0,0.1381215000000111
5208,45.0,0.1381215000000111,52.0,0.1395350000000235
5209,61.0,0.1395350000000235,89.0,0.186058583333363
5210,37.0,0.14018700000002582,56.0,0.13761475000001155
5211,70.0,0.045871583333337185,79.0,0.1839090000000283
5212,46.0,0.09174316666667437,56.0,0.13824875000000247
5213,70.0,0.09216583333335393,79.0,0.18433166666665102
5214,40.0,0.04608291666664854,56.0,0.13824875000000247
5215,71.0,0.13824875000000247,85.0,0.18157066666668698
5216,60.0,0.18157066666668698,80.0,0.19948099999999158
5217,49.0,0.19948099999999158,66.0,0.41281043750001345
5218,48.0,0.21576610416667563,58.0,0.19704433333333782
5219,45.0,0.19704433333333782,61.0,0.20547399999998106
5220,52.0,0.20547399999998106,70.0,0.39408866666667564
5221,51.0,0.19704433333333782,63.0,0.19704433333333782
5222,45.0,0.19704433333333782,63.0,0.20721783333334542
5223,49.0,0.20721783333334542,72.0,0.39408866666667564
5224,48.0,0.19704433333333782,64.0,0.19704433333333782
5225,45.0,0.19704433333333782,68.0,0.2066303333333508
5226,52.0,0.2066303333333508,74.0,0.39408866666667564
5227,51.0,0.19704433333333782,68.0,0.19704433333333782
5228,45.0,0.19704433333333782,71.0,0.2066303333333508
5229,57.0,0.2066303333333508,79.0,0.39408866666667564
5230,56.0,0.19704433333333782,70.0,0.19704433333333782
5231,54.0,0.19704433333333782,72.0,0.2049051666666628
5232,61.0,0.2049051666666628,80.0,0.3960538750000069
5233,60.0,0.19900954166666907,73.0,0.19704433333333782
5234,57.0,0.19704433333333782,75.0,0.20323416666667526
5235,64.0,0.20323416666667526,85.0,0.39408866666667564
5236,63.0,0.19704433333333782,75.0,0.19704433333333782
5237,57.0,0.19704433333333782,81.0,0.20323416666667526
5238,69.0,0.20323416666667526,89.0,0.39604933333333747
5239,48.0,0.19704433333333782,58.0,0.19900499999999965
5240,68.0,0.19900499999999965,75.0,0.20102533333334804
5241,67.0,0.20102533333334804,74.0,0.20304566666669643
5242,66.0,0.20304566666669643,77.0,0.2030456666666396
5243,65.0,0.2030456666666396,73.0,0.20304566666669643
5244,64.0,0.20304566666669643,70.0,0.2030456666666396
5245,63.0,0.2030456666666396,73.0,0.6091370000000325
5246,62.0,0.20304566666669643,68.0,0.2030456666666396
5247,61.0,0.2030456666666396,66.0,0.20304566666669643
5248,60.0,0.20304566666669643,69.0,0.6091369999999756
5249,59.0,0.2030456666666396,63.0,0.20304566666669643
5250,58.0,0.20304566666669643,63.0,0.2030456666666396
5251,57.0,0.2030456666666396,62.0,1.2216002083332569
5252,56.0,0.2012600833333522,59.0,0.20189341666667815
5253,55.0,0.20189341666667815,59.0,0.20291749999995545
5254,54.0,0.20291749999995545,59.0,0.20408166666663874
5255,53.0,0.20408166666663874,53.0,0.20512833333333447
5256,52.0,0.20512833333333447,53.0,0.20631920833329787
5257,51.0,0.20631920833329787,53.0,0.6217619999999897
5258,48.0,0.20725400000003447,49.0,0.20725399999997762
5259,42.0,0.20725399999997762,49.0,0.20725399999997762
5260,51.0,0.20725399999997762,52.0,0.5966463333333536
5261,58.0,0.216977833333317,53.0,0.2255431250000015
5262,56.0,0.2255431250000015,49.0,0.1541253750000351
5263,41.0,0.1541253750000351,39.0,0.10869562499999574
5264,56.0,0.10869562499999574,49.0,1.8976503958332955
5265,53.0,1.273210000000006,49.0,1.2488553958332886
5266,54.0,0.6244403958332896,44.0,0.624414999999999
5267,20.0,0.5463631250000276,29.0,2.659397874999911
5268,53.0,0.07805187499997146,47.0,2.5813459999999395
5269,51.0,1.279453999999987,41.0,1.3018919999999525
5270,33.0,0.31986349999999675,33.0,0.31986349999999675
5271,34.0,0.31986349999999675,35.0,0.31986349999999675
5272,32.0,0.31986349999999675,33.0,0.3423014999999623
5273,56.0,0.3423014999999623,49.0,1.311331999999993
5274,53.0,0.6556659999999965,49.0,0.6556659999999965
5275,54.0,0.6556659999999965,49.0,0.6352701062499477
5276,53.0,0.31227260624996234,47.0,0.3229974999999854
5277,56.0,0.3229974999999854,44.0,0.6320709999999963
5278,54.0,0.3122074999999995,41.0,0.31986349999999675
5279,53.0,0.31986349999999675,45.0,2.546598999999958
5280,33.0,0.31986349999999675,37.0,0.31986349999999675
5281,36.0,0.31986349999999675,35.0,0.21324233333336906
5282,34.0,0.21324233333336906,34.0,0.21324233333331222
5283,32.0,0.21324233333331222,34.0,0.21324233333331222
5284,51.0,0.21324233333331222,41.0,1.2671449999999709
5285,21.0,0.3137090000000171,37.0,0.31370899999996027
5286,24.0,0.31370899999996027,35.0,0.21324233333331222
5287,22.0,0.21324233333331222,34.0,0.21324233333336906
5288,20.0,0.21324233333336906,34.0,0.21324233333331222
5289,56.0,0.21324233333331222,53.0,0.6397269999999935
5290,58.0,0.6397269999999935,51.0,0.6397269999999935
5291,60.0,0.6397269999999935,52.0,1.2488619000000085
5292,61.0,0.6244469000000095,58.0,0.4683112499999993
5293,63.0,0.4683112499999993,60.0,0.15610374999999976
5294,25.0,0.0780518750000283,39.0,0.7024668749999705
5295,32.0,0.03902593750001415,39.0,0.03902593749995731
5296,65.0,0.03902593749995731,61.0,0.624414999999999
5297,58.0,0.624414999999999,51.0,0.6556659999999965
5298,60.0,0.6556659999999965,52.0,0.6244801062499619
5299,46.0,0.5464282312499904,56.0,0.7085618749999867
5300,51.0,0.03902593750001415,56.0,0.03902593749995731
5301,61.0,0.03902593749995731,58.0,0.6305100000000152
5302,63.0,0.47135874999997895,60.0,0.15915125000003627
5303,65.0,0.15915125000003627,63.0,0.6442609999999718
5304,63.0,0.6442609999999718,60.0,0.6442610000000286
5305,58.0,0.6442610000000286,63.0,0.6442609999999718
5306,60.0,0.6442609999999718,63.0,0.4683112499999993
5307,53.0,0.4683112499999993,57.0,0.15610374999999976
5308,56.0,0.15610374999999976,61.0,0.6397269999999935
5309,51.0,0.6397269999999935,59.0,0.4683112499999993
5310,53.0,0.4683112499999993,56.0,0.15610374999999976
5311,51.0,0.15610374999999976,59.0,1.3078615000000013
5312,48.0,0.624414999999999,49.0,0.6834465000000023
5313,46.0,0.33281549999998106,50.0,0.35063100000002123
5314,56.0,0.35063100000002123,64.0,1.279453999999987
5315,31.0,0.21324233333331222,33.0,0.21324233333336906
5316,32.0,0.21324233333336906,31.0,0.21324233333331222
5317,34.0,0.21324233333331222,37.0,0.21324233333331222
5318,32.0,0.21324233333331222,31.0,0.21324233333336906
5319,20.0,0.21324233333336906,31.0,0.21324233333331222
5320,53.0,0.21324233333331222,60.0,0.624414999999999
5321,31.0,0.20813833333335197,35.0,0.20813833333329512
5322,32.0,0.20813833333329512,35.0,0.20813833333335197
5323,44.0,0.20813833333335197,39.0,0.31986349999999675
5324,32.0,0.21324233333331222,33.0,0.21755966666665927
5325,54.0,0.10662116666668453,55.0,0.33281549999998106
5326,20.0,0.11093849999997474,33.0,0.22187700000000632
5327,53.0,0.22187700000000632,68.0,1.2671449999999709
5328,31.0,0.2091393333333258,35.0,0.2091393333333258
5329,32.0,0.2091393333333258,35.0,0.2091393333333258
5330,34.0,0.2091393333333258,37.0,0.21324233333331222
5331,32.0,0.21324233333331222,33.0,0.21324233333336906
5332,51.0,0.10662116666668453,55.0,0.31986349999999675
5333,20.0,0.10662116666668453,33.0,0.21324233333331222
5334,46.0,0.21324233333331222,58.0,0.3122074999999995
5335,31.0,0.20813833333335197,35.0,0.20813833333329512
5336,44.0,0.10406916666664756,52.0,0.3122074999999995
5337,32.0,0.10406916666664756,35.0,0.20813833333335197
5338,37.0,0.20813833333335197,61.0,0.32140550000002577
5339,32.0,0.21427033333333156,33.0,0.21674841666668954
5340,39.0,0.1071351666666942,55.0,0.3316629166666871
5341,20.0,0.10961324999999533,33.0,0.2220496666666918
5342,56.0,0.2220496666666918,68.0,1.279453999999987
5343,31.0,0.31986349999999675,34.0,0.15993174999999837
5344,32.0,0.15993174999999837,33.0,0.15993174999999837
5345,53.0,0.15993174999999837,62.0,0.6397269999999935
5346,32.0,0.15993174999999837,31.0,0.14393857499999285
5347,32.0,0.15993174999999837,37.0,0.15993174999999837
5348,20.0,0.15993174999999837,37.0,0.15993174999999837
5349,54.0,0.15993174999999837,66.0,1.2641419999999925
5350,53.0,0.3122074999999995,55.0,0.3122074999999995
5351,32.0,0.15610374999999976,35.0,0.15610374999999976
5352,53.0,0.15610374999999976,57.0,0.21324233333331222
5353,32.0,0.15993174999999837,33.0,0.14393857499999285
5354,56.0,0.05331058333331384,55.0,0.21324233333336906
5355,32.0,0.10662116666668453,37.0,0.15993174999999837
5356,54.0,0.10662116666668453,55.0,0.21324233333331222
5357,20.0,0.05331058333331384,31.0,0.15993174999999837
5358,53.0,0.15993174999999837,64.0,1.2671449999999709
5359,31.0,0.3137090000000171,35.0,0.15685450000000856
5360,32.0,0.15685450000000856,35.0,0.1568544999999517
5361,34.0,0.1568544999999517,37.0,0.15993174999999837
5362,32.0,0.15993174999999837,33.0,0.14393857499999285
5363,51.0,0.15993174999999837,58.0,0.31986349999999675
5364,20.0,0.15993174999999837,33.0,0.15993174999999837
5365,46.0,0.15993174999999837,60.0,0.3122074999999995
5366,44.0,0.20813833333335197,51.0,0.20813833333329512
5367,31.0,0.10406916666664756,35.0,0.15610374999999976
5368,46.0,0.10406916666664756,51.0,0.20813833333335197
5369,32.0,0.0520345833333522,35.0,0.15610374999999976
5370,44.0,0.15610374999999976,58.0,0.21427033333333156
5371,32.0,0.16070274999998446,35.0,0.14463247500003718
5372,37.0,0.0535675833333471,53.0,0.22097850000000108
5373,32.0,0.1071351666666942,39.0,0.17076500000001715
5374,39.0,0.11384333333330687,53.0,0.14230416666669043
5375,20.0,0.05692166666671028,35.0,0.1707649999999603
5376,41.0,0.08538249999998015,51.0,0.7281934999999748
5377,49.0,0.0426912500000185,61.0,1.31901524999995
5378,56.0,0.042691249999961656,73.0,0.6428109999999947
5379,32.0,0.16070274999998446,39.0,0.1607027500000413
5380,34.0,0.1607027500000413,39.0,0.16070274999998446
5381,32.0,0.16070274999998446,39.0,0.16070274999998446
5382,58.0,0.16070274999998446,68.0,0.6335129999999936
5383,32.0,0.1583782499999984,40.0,0.1583782499999984
5384,34.0,0.1583782499999984,40.0,0.1583782499999984
5385,32.0,0.1583782499999984,41.0,0.1583782499999984
5386,60.0,0.1583782499999984,73.0,1.263323000000014
5387,32.0,0.1583782499999984,40.0,0.1583782499999984
5388,34.0,0.1583782499999984,41.0,0.1583782499999984
5389,32.0,0.1583782499999984,41.0,0.1583782499999984
5390,61.0,0.1583782499999984,75.0,0.4683112499999993
5391,32.0,0.15610374999999976,44.0,0.15610374999999976
5392,34.0,0.15610374999999976,44.0,0.15610374999999976
5393,63.0,0.15610374999999976,73.0,0.16149875000002112
5394,65.0,0.16149875000002112,80.0,1.267025999999987
5395,32.0,0.1583782499999984,42.0,0.1583782499999984
5396,34.0,0.1583782499999984,42.0,0.1583782499999984
5397,32.0,0.1583782499999984,42.0,0.1583782499999984
5398,58.0,0.1583782499999984,73.0,0.6335129999999936
5399,32.0,0.1583782499999984,46.0,0.1583782499999984
5400,34.0,0.1583782499999984,46.0,0.1583782499999984
5401,32.0,0.1583782499999984,46.0,0.1583782499999984
5402,60.0,0.1583782499999984,78.0,1.27487450000001
5403,32.0,0.1583782499999984,46.0,0.1583782499999984
5404,34.0,0.1583782499999984,46.0,0.1583782499999984
5405,32.0,0.1583782499999984,46.0,0.1583782499999984
5406,61.0,0.1583782499999984,81.0,0.47905900000000656
5407,32.0,0.1583782499999984,49.0,0.1583782499999984
5408,34.0,0.1583782499999984,49.0,0.1623025000000098
5409,63.0,0.1623025000000098,77.0,0.1623025000000098
5410,65.0,0.1623025000000098,88.0,1.2858149999999569
5411,28.0,0.16230249999995294,51.0,0.1623025000000098
5412,29.0,0.1623025000000098,51.0,0.1623025000000098
5413,36.0,0.1623025000000098,51.0,0.1623025000000098
5414,66.0,0.1623025000000098,91.0,0.9503139999999917
5415,40.0,0.15915124999997943,53.0,0.15915125000003627
5416,41.0,0.15915125000003627,53.0,0.15915124999997943
5417,48.0,0.15915124999997943,53.0,0.15915124999997943
5418,61.0,0.15915124999997943,74.0,1.2827015000000301
5419,28.0,0.15685450000000856,52.0,0.15685450000000856
5420,65.0,0.15685450000000856,80.0,0.3229974999999854
5421,37.0,0.16149875000002112,53.0,0.16149874999996428
5422,64.0,0.16149874999996428,79.0,0.32299750000004224
5423,40.0,0.16149875000002112,55.0,0.16149875000002112
5424,65.0,0.16149875000002112,79.0,0.3229974999999854
5425,49.0,0.16149874999996428,56.0,0.16149875000002112
5426,68.0,0.16149875000002112,90.0,1.2795079999999643
5427,31.0,0.16149874999996428,55.0,0.16149875000002112
5428,32.0,0.16149875000002112,55.0,0.16149875000002112
5429,39.0,0.16149875000002112,55.0,0.16149874999996428
5430,70.0,0.16149874999996428,84.0,0.9413629999999671
5431,43.0,0.1583782499999984,57.0,0.1583782499999984
5432,44.0,0.1583782499999984,57.0,0.1583782499999984
5433,51.0,0.1583782499999984,57.0,0.1583782499999984
5434,65.0,0.1583782499999984,85.0,0.6246064999999703
5435,33.0,0.1539250000000152,56.0,0.15392499999995835
5436,68.0,0.15392499999995835,77.0,0.3167564999999968
5437,41.0,0.1583782499999984,57.0,0.1583782499999984
5438,66.0,0.1583782499999984,84.0,0.6335129999999936
5439,45.0,0.1583782499999984,58.0,0.1583782499999984
5440,46.0,0.1583782499999984,59.0,0.1583782499999984
5441,65.0,0.1583782499999984,78.0,0.1583782499999984
5442,68.0,0.1583782499999984,88.0,0.6320709999999963
5443,22.0,0.15610374999999976,52.0,0.15610374999999976
5444,66.0,0.15610374999999976,76.0,0.31986349999999675
5445,34.0,0.15993174999999837,52.0,0.15993174999999837
5446,65.0,0.15993174999999837,73.0,0.6351145000000429
5447,22.0,0.15685450000000856,52.0,0.15685450000000856
5448,62.0,0.15685450000000856,68.0,0.32140550000002577
5449,34.0,0.16070274999998446,52.0,0.1607027500000413
5450,65.0,0.1607027500000413,79.0,0.6190105000000017
5451,22.0,0.1524699999999939,52.0,0.1524699999999939
5452,63.0,0.1524699999999939,69.0,0.3140705000000139
5453,34.0,0.15703524999997853,52.0,0.15703525000003538
5454,58.0,0.15703525000003538,72.0,0.6158739999999625
5455,25.0,0.1532020000000216,52.0,0.15320199999996476
5456,61.0,0.15320199999996476,67.0,0.6129294999999502
5457,34.0,0.1547350000000165,52.0,0.15473499999995965
5458,51.0,0.15473499999995965,64.0,0.6159919999999488
5459,27.0,0.15172975000001543,52.0,0.15172974999995859
5460,60.0,0.15172974999995859,71.0,0.6189364999999611
5461,36.0,0.1562662499999874,52.0,0.1562662499999874
5462,54.0,0.1562662499999874,73.0,0.6278095000000121
5463,25.0,0.1532020000000216,52.0,0.15320199999996476
5464,58.0,0.15320199999996476,72.0,0.6428109999999947
5465,37.0,0.16070274999998446,52.0,0.1607027500000413
5466,53.0,0.1722069166666529,95.0,0.16079766666666728
5467,53.0,0.16079766666666728,95.0,0.16701716666665334
5468,53.0,0.16701716666665334,101.0,0.162667666666664
5469,51.0,0.162667666666664,95.0,0.16504383333335682
5470,49.0,0.16504383333335682,95.0,0.1674199999999928
5471,18.0,0.1674199999999928,96.0,0.1734296666666637
5472,53.0,0.1734296666666637,95.0,0.16293266666667705
5473,53.0,0.16293266666667705,95.0,0.16816491666668298
5474,53.0,0.16816491666668298,101.0,0.16501666666664505
5475,51.0,0.16501666666664505,95.0,0.16705350000000863
5476,49.0,0.16705350000000863,95.0,0.16909033333331536
5477,20.0,0.16909033333331536,96.0,0.1742286666666928
5478,53.0,0.1742286666666928,95.0,0.16343866666665008
5479,53.0,0.16343866666665008,95.0,0.16893341666667538
5480,53.0,0.16893341666667538,101.0,0.16421700000000783
5481,51.0,0.16421700000000783,95.0,0.16879366666665874
5482,49.0,0.16879366666665874,95.0,0.1733703333333665
5483,21.0,0.1733703333333665,96.0,0.1835536666666826
5484,53.0,0.1835536666666826,95.0,0.17184512500000437
5485,53.0,0.17184512500000437,95.0,0.17739283333332878
5486,53.0,0.17739283333332878,101.0,0.5618074999999862
5487,51.0,0.18332287499998756,95.0,0.18885729166669307
5488,49.0,0.18885729166669307,95.0,0.18962733333330561
5489,22.0,0.04740683333329798,72.0,0.14222050000000763
5490,49.0,0.14222050000000763,101.0,1.123121499999911
5491,20.0,0.13835074999997232,79.0,0.069175375000043
5492,22.0,0.2767015000000015,86.0,0.0720114999999737
5493,23.0,0.1517987499999549,81.0,0.0684993749999876
5494,20.0,0.1369987499999752,81.0,0.06849937500004444
5495,53.0,0.41927175000000716,84.0,0.5118391249999945
5496,20.0,0.13215850000000273,60.0,0.06607924999997294
5497,22.0,0.26036375000001044,62.0,0.11931687499998134
5498,53.0,0.11931687499998134,83.0,0.5129155000000196
5499,20.0,0.1301632500000096,61.0,0.0650816250000048
5500,49.0,0.38275225000001,82.0,0.49740775000003623
5501,20.0,0.12875524999998333,60.0,0.06437762500002009
5502,22.0,0.2508852500000671,66.0,0.11776724999998578
5503,50.0,0.11776724999998578,82.0,0.49839900000000625
5504,20.0,0.1257122499999923,63.0,0.06285612499999615
5505,54.0,0.37268675000001394,88.0,0.4881403333333765
5506,21.0,0.12658225000001266,63.0,0.06329112499997791
5507,22.0,0.24577175000001716,71.0,0.11578633333334665
5508,54.0,0.11578633333334665,88.0,0.4878661666667199
5509,33.0,0.12295074999997269,69.0,0.061475375000043186
5510,51.0,0.3649154166667472,88.0,0.47601824999998144
5511,22.0,0.12295074999997269,67.0,0.061475375000043186
5512,24.0,0.23979150000002392,71.0,0.11327599999998483
5513,52.0,0.11327599999998483,87.0,0.49079949999998007
5514,34.0,0.12295074999997269,71.0,0.061475375000043186
5515,52.0,0.3678487500000074,93.0,0.4816792500000133
5516,38.0,0.12145750000001954,73.0,0.060728749999952925
5517,56.0,0.3602217499999938,92.0,0.48500075000004017
5518,27.0,0.15385175000005802,74.0,0.1591060000000084
5519,40.0,0.1591060000000084,78.0,0.17204299999997374
5520,56.0,0.17204299999997374,93.0,0.49180300000000443
5521,57.0,0.49180300000000443,94.0,0.4979250000000093
5522,61.0,0.4979250000000093,95.0,0.48061500000000024
5523,60.0,0.48061500000000024,93.0,0.4987949999999728
5524,61.0,0.4987949999999728,102.0,0.4858300000000213
5525,57.0,0.4858300000000213,101.0,0.5051780000000008
5526,61.0,0.5051780000000008,101.0,0.5009180000000129
5527,57.0,0.5009180000000129,101.0,0.5161289999999781
5528,61.0,0.5161289999999781,108.0,1.032258000000013
5529,73.0,1.032258000000013,117.0,1.032258000000013
5530,41.0,1.032258000000013,105.0,2.968094000000008
5531,39.0,0.0,52.0,0.12835311875
5532,40.0,0.11840326458333335,48.0,0.12934810416666667
5533,36.0,0.11939825000000001,53.0,0.1293481041666667
5534,37.0,0.11939824999999998,49.0,0.12894241666666673
5535,34.0,0.11939825000000004,58.0,0.12407416666666671
5536,37.0,0.11453000000000002,62.0,0.12487683333333333
5537,46.0,0.11453000000000002,68.0,0.1345088333333333
5538,44.0,0.124162,70.0,0.124162
5539,44.0,0.124162,73.0,0.8592805
5540,37.0,0.2737474999999999,46.0,0.2600601250000001
5541,37.0,0.27374750000000003,46.0,0.2961962250000001
5542,43.0,0.31178550000000005,52.0,0.2806099999999998
5543,39.0,0.2806099999999998,52.0,0.12934810416666664
5544,40.0,0.11939825000000015,48.0,0.12934810416666664
5545,36.0,0.1193982499999997,53.0,0.12934810416666664
5546,37.0,0.11939825000000015,57.0,0.12894241666666684
5547,34.0,0.11939825000000015,57.0,0.12407416666666649
5548,37.0,0.1145299999999998,61.0,0.12452281250000041
5549,46.0,0.11453000000000024,63.0,0.1299065625
5550,44.0,0.11991374999999982,64.0,0.11991375000000026
5551,44.0,0.11991375000000026,67.0,0.8578950000000001
5552,37.0,0.27644650000000004,46.0,0.262624175
5553,37.0,0.27644650000000004,46.0,0.2897519000000002
5554,43.0,0.305002,52.0,0.28061000000000025
5555,39.0,0.28061000000000025,52.0,0.1193982499999997
5556,40.0,0.1193982499999997,48.0,0.1193982500000006
5557,36.0,0.1193982500000006,52.0,0.1193982499999997
5558,37.0,0.1193982499999997,48.0,0.1193982499999997
5559,34.0,0.1193982499999997,49.0,0.11453000000000024
5560,37.0,0.11453000000000024,50.0,0.11452999999999935
5561,46.0,0.11452999999999935,54.0,0.11789674999999988
5562,44.0,0.11789674999999988,55.0,0.11789674999999988
5563,42.0,0.11789674999999988,58.0,0.11991375000000026
5564,43.0,0.11991375000000026,55.0,0.11632458333333329
5565,49.0,0.11632458333333329,59.0,0.11437324999999987
5566,47.0,0.11437324999999987,57.0,0.11405975000000002
5567,45.0,0.11405975000000002,58.0,0.1136020000000002
5568,46.0,0.1136020000000002,62.0,0.11329349999999927
5569,52.0,0.11329349999999927,65.0,0.11298908333333291
5570,51.0,0.11298908333333291,61.0,0.11253975000000072
5571,48.0,0.11253975000000072,67.0,0.11499550000000003
5572,49.0,0.11499550000000003,66.0,0.11499550000000003
5573,64.0,0.11499550000000003,71.0,0.1215952291666671
5574,58.0,0.11224174999999992,67.0,0.1215209374999997
5575,63.0,0.11224174999999992,71.0,0.11872077083333377
5576,61.0,0.10962258333333352,70.0,0.118455916666667
5577,59.0,0.10932183333333345,68.0,0.11909922916666638
5578,58.0,0.10989316666666671,66.0,0.11985922916666691
5579,56.0,0.11061708333333353,65.0,0.12051793749999984
5580,55.0,0.11120208333333359,63.0,0.12129422916666677
5581,58.0,0.11194075000000048,61.0,0.12196802083333314
5582,49.0,0.11253974999999983,60.0,0.12272177083333347
5583,50.0,0.11329350000000016,61.0,0.0905730999999994
5584,51.0,0.0905730999999994,56.0,0.09088160000000034
5585,52.0,0.09088160000000034,59.0,0.09684478333333324
5586,46.0,0.09684478333333324,56.0,0.10385795000000009
5587,51.0,0.10385795000000009,56.0,0.10792339999999978
5588,49.0,0.10792339999999978,57.0,0.12934810416666664
5589,48.0,0.1193982499999997,53.0,0.12934810416666664
5590,44.0,0.1193982499999997,57.0,0.1296090000000003
5591,45.0,0.1193982499999997,59.0,0.13207316666666635
5592,41.0,0.12252900000000011,60.0,0.12483079166666755
5593,42.0,0.11453000000000024,64.0,0.13355935416666753
5594,51.0,0.1236095000000006,69.0,0.12934810416666664
5595,49.0,0.1193982499999997,69.0,0.1193982499999997
5596,49.0,0.1193982499999997,74.0,0.8487134999999988
5597,42.0,0.27510299999999965,51.0,0.26134784999999994
5598,42.0,0.27510299999999965,51.0,0.2835821250000006
5599,48.0,0.2985074999999995,57.0,0.28060999999999936
5600,44.0,0.28060999999999936,57.0,0.12934810416666664
5601,45.0,0.1193982499999997,53.0,0.12934810416666664
5602,41.0,0.1193982499999997,54.0,0.12934810416666664
5603,42.0,0.11939825000000148,54.0,0.12894241666666595
5604,39.0,0.1193982499999997,57.0,0.12474075000000084
5605,42.0,0.11453000000000024,68.0,0.13239560416666762
5606,51.0,0.12252900000000011,70.0,0.12826585416666703
5607,49.0,0.11839924999999951,73.0,0.11839925000000129
5608,49.0,0.11839925000000129,76.0,0.8451764999999991
5609,42.0,0.2764465000000005,51.0,0.2626241749999991
5610,42.0,0.2764464999999987,51.0,0.27766932499999974
5611,48.0,0.2922834999999999,57.0,0.28060999999999936
5612,44.0,0.28060999999999936,57.0,0.1193982499999997
5613,45.0,0.1193982499999997,53.0,0.1193982499999997
5614,41.0,0.1193982499999997,52.0,0.11939825000000148
5615,42.0,0.11939825000000148,50.0,0.1193982499999997
5616,39.0,0.1193982499999997,54.0,0.11453000000000024
5617,42.0,0.11453000000000024,55.0,0.11453000000000024
5618,51.0,0.11453000000000024,57.0,0.12613520833333247
5619,49.0,0.11643250000000016,59.0,0.12642531250000033
5620,47.0,0.11643250000000016,63.0,0.12990656250000043
5621,48.0,0.11991375000000026,57.0,0.12957595833333357
5622,57.0,0.11991375000000026,63.0,0.12560870833333304
5623,56.0,0.11594649999999973,58.0,0.12549066666666597
5624,53.0,0.11594649999999973,60.0,0.12407416666666649
5625,54.0,0.11453000000000024,60.0,0.12380918750000092
5626,64.0,0.11453000000000024,66.0,0.12062943749999988
5627,63.0,0.1113502499999992,64.0,0.12030889583333426
5628,61.0,0.11135025000000098,68.0,0.11685722916666563
5629,60.0,0.10750374999999934,68.0,0.12182470833333348
5630,66.0,0.1122417500000008,72.0,0.12427468749999981
5631,55.0,0.11499549999999914,70.0,0.11805862499999975
5632,56.0,0.10920154166666585,71.0,0.11381816666666644
5633,57.0,0.10509337499999916,73.0,0.11342229166666762
5634,51.0,0.10469750000000033,69.0,0.11342229166666584
5635,52.0,0.10469750000000033,74.0,0.11375193749999823
5636,56.0,0.10496149999999815,76.0,0.1147429166666658
5637,54.0,0.10588583333333368,76.0,0.11565039583333103
5638,52.0,0.10669174999999775,75.0,0.11667087499999873
5639,51.0,0.10764299999999949,72.0,0.11816149999999936
5640,49.0,0.10861733333333312,72.0,0.09168606666666612
5641,48.0,0.09168606666666612,76.0,0.09228320000000068
5642,51.0,0.09228320000000068,79.0,0.0929200666666663
5643,43.0,0.0929200666666663,79.0,0.09350138333333291
5644,44.0,0.09350138333333291,79.0,0.09408920000000087
5645,45.0,0.09408920000000087,83.0,0.09478573333333351
5646,39.0,0.09478573333333351,83.0,0.0954183000000004
5647,44.0,0.0954183000000004,83.0,0.09610073333333347
5648,42.0,0.09610073333333347,85.0,0.09672259999999788
5649,40.0,0.09672259999999788,85.0,0.09824180000000027
5650,39.0,0.09824180000000027,95.0,0.2472190000000012
5651,37.0,0.2472190000000012,89.0,0.2672370000000015
5652,44.0,0.2672370000000015,85.0,0.27242999999999995
5653,52.0,0.5102234999999986,66.0,0.1453758749999956
5654,46.0,0.1453758749999956,69.0,0.11594649999999973
5655,47.0,0.11594649999999973,74.0,0.1094744166666679
5656,48.0,0.1094744166666679,76.0,0.1087587499999998
5657,51.0,0.1087587499999998,80.0,0.10509349999999884
5658,49.0,0.10509349999999884,84.0,0.1050935000000024
5659,47.0,0.1050935000000024,88.0,0.10509349999999884
5660,46.0,0.10509349999999884,92.0,0.10509349999999884
5661,44.0,0.10509349999999884,95.0,0.1050935000000024
5662,43.0,0.1050935000000024,93.0,0.10509349999999884
5663,43.0,0.36135050000000035,90.0,0.26223799999999997
5664,59.0,0.499036499999999,90.0,0.1342522499999994
5665,49.0,0.1342522499999994,82.0,0.12042399999999986
5666,59.0,0.12042399999999986,86.0,0.11003524999999925
5667,58.0,0.11003524999999925,84.0,0.11003524999999925
5668,55.0,0.11003524999999925,81.0,0.10278200000000126
5669,52.0,0.10278200000000126,78.0,0.10278199999999771
5670,49.0,0.10278199999999771,76.0,0.10278200000000126
5671,46.0,0.10278200000000126,74.0,0.10278200000000126
5672,43.0,0.10278200000000126,71.0,0.10278199999999771
5673,44.0,0.10278199999999771,68.0,0.10278200000000126
5674,44.0,0.35671800000000076,90.0,0.26102849999999833
5675,63.0,0.49782699999999735,88.0,0.12639025000000004
5676,56.0,0.12639025000000004,84.0,0.11991374999999849
5677,57.0,0.11991374999999849,88.0,0.1136020000000002
5678,58.0,0.1136020000000002,86.0,0.1136020000000002
5679,61.0,0.1136020000000002,81.0,0.0947193999999989
5680,59.0,0.0947193999999989,77.0,0.08843274999999906
5681,56.0,0.08843274999999906,75.0,0.08633720000000267
5682,52.0,0.08633720000000267,73.0,0.08633719999999911
5683,51.0,0.08633719999999911,71.0,0.08633719999999911
5684,51.0,0.08633719999999911,70.0,0.1136020000000002
5685,50.0,0.1136020000000002,68.0,0.1136020000000002
5686,47.0,0.3675379999999997,91.0,0.2539359999999995
5687,71.0,0.507871999999999,85.0,0.15223466666666496
5688,65.0,0.15223466666666496,84.0,0.09965308333333311
5689,66.0,0.09965308333333311,84.0,0.07522125000000202
5690,67.0,0.07522125000000202,83.0,0.06946537500000005
5691,70.0,0.06946537500000005,81.0,0.06650033333333027
5692,68.0,0.06650033333333027,81.0,0.06387437500000104
5693,65.0,0.06387437500000104,80.0,0.06348399999999899
5694,62.0,0.06348399999999899,79.0,0.06348399999999899
5695,58.0,0.06348399999999899,79.0,0.06357937499999977
5696,59.0,0.06357937499999977,77.0,0.06377012500000134
5697,56.0,0.06377012500000134,76.0,0.06406425000000127
5698,53.0,0.06406425000000127,76.0,0.06406424999999771
5699,50.0,0.06406424999999771,76.0,0.051407341666667605
5700,46.0,0.051407341666667605,75.0,0.05196319999999943
5701,47.0,0.05196319999999943,75.0,0.05255160000000103
5702,44.0,0.05255160000000103,74.0,0.05315180833333244
5703,41.0,0.05315180833333244,74.0,0.05374619166666861
5704,38.0,0.05374619166666861,79.0,0.13555025000000143
5705,39.0,0.13555025000000143,71.0,0.13051425000000094
5706,44.0,0.13051425000000094,74.0,0.138940250000001
5707,42.0,0.138940250000001,70.0,0.1645457499999985
5708,51.0,0.1645457499999985,81.0,0.25508049999999827
5709,65.0,0.5086715000000019,83.0,0.17968158333333406
5710,64.0,0.17968158333333406,70.0,0.16465399999999875
5711,63.0,0.16465399999999875,68.0,0.14278986666666782
5712,63.0,0.15837833333333506,67.0,0.12900450000000063
5713,63.0,0.14333833333333246,66.0,0.12900450000000063
5714,63.0,0.14333833333333246,64.0,0.18097030000000203
5715,38.0,0.20147049999999922,72.0,0.13555025000000143
5716,39.0,0.13555025000000143,69.0,0.1252609999999983
5717,44.0,0.1252609999999983,72.0,0.11179024999999854
5718,43.0,0.11179024999999854,67.0,0.15086000000000155
5719,51.0,0.15086000000000155,81.0,0.25508049999999827
5720,65.0,0.5101610000000001,88.0,0.1790038333333328
5721,64.0,0.1790038333333328,76.0,0.16483183333333074
5722,63.0,0.16483183333333074,75.0,0.14340113333333449
5723,63.0,0.1590555000000009,71.0,0.09942547500000032
5724,63.0,0.11047274999999956,71.0,0.09942547500000032
5725,63.0,0.11047274999999956,69.0,0.09942547500000032
5726,63.0,0.11047274999999956,69.0,0.1494024749999987
5727,38.0,0.16600275000000053,76.0,0.13555025000000143
5728,39.0,0.13555025000000143,73.0,0.12146724999999847
5729,46.0,0.12146724999999847,76.0,0.10750374999999934
5730,44.0,0.10750374999999934,71.0,0.15589274999999958
5731,51.0,0.15589274999999958,86.0,0.25508049999999827
5732,38.0,0.5101610000000001,76.0,0.13555025000000143
5733,39.0,0.13555025000000143,73.0,0.11452999999999847
5734,49.0,0.11452999999999847,76.0,0.09950249999999983
5735,47.0,0.09950249999999983,71.0,0.15417825000000107
5736,51.0,0.15417825000000107,86.0,0.2516564999999993
5737,51.0,0.5033129999999986,77.0,0.16903312499999856
5738,63.0,0.22537750000000045,88.0,0.23382700000000156
5739,55.0,0.23382700000000156,77.0,0.1697088750000013
5740,64.0,0.22627849999999938,89.0,0.23481549999999984
5741,56.0,0.23481549999999984,77.0,0.17321025000000034
5742,71.0,0.23094700000000046,89.0,0.2483240000000002
5743,58.0,0.2483240000000002,77.0,0.17759887500000104
5744,70.0,0.237473416666667,89.0,0.2562570000000015
5745,50.0,0.2562570000000015,92.0,0.26595749999999896
5746,38.0,0.33244687500000225,73.0,0.8551715416666781
5747,40.0,0.06648937499999619,76.0,0.7886821666666819
5748,32.0,0.06648937500000329,77.0,0.7221927916666786
5749,56.0,0.06265220833333274,92.0,0.6595405833333459
5750,66.0,0.3972156250000012,85.0,0.13108741666667356
5751,64.0,0.13108741666667356,85.0,0.06831312500000308
5752,59.0,0.06831312500000308,84.0,0.06292441666666804
5753,54.0,0.029863250000000008,58.0,0.08931466666666665
5754,57.0,0.08931466666666665,61.0,0.11926799999999993
5755,60.0,0.08949725000000086,64.0,0.08922216666666571
5756,40.0,0.02977074999999907,39.0,0.11881275000000002
5757,64.0,0.059451416666666645,67.0,0.08895066666666729
5758,36.0,0.05936133333333338,37.0,0.11826824999999985
5759,66.0,0.02958933333333391,70.0,0.08867891666666594
5760,74.0,0.08867891666666594,74.0,0.1168742500000004
5761,72.0,0.08771975000000154,72.0,0.08746350000000014
5762,40.0,0.029154499999998862,40.0,0.11696050000000113
5763,71.0,0.058309000000001276,71.0,0.08806325000000115
5764,42.0,0.058651499999999857,44.0,0.1179072500000018
5765,69.0,0.02941175000000129,70.0,0.0884955000000005
5766,67.0,0.0884955000000005,69.0,0.1175652499999984
5767,66.0,0.08849549999999873,68.0,0.08729399999999998
5768,42.0,0.029069749999999672,44.0,0.11696150000000038
5769,69.0,0.05822425000000031,67.0,0.08823575000000083
5770,40.0,0.058737250000000074,41.0,0.11799399999999949
5771,64.0,0.02949850000000076,66.0,0.08849549999999873
5772,63.0,0.08849549999999873,68.0,0.11704525000000032
5773,66.0,0.08789074999999968,63.0,0.08789275000000174
5774,30.0,0.029154500000000638,35.0,0.11773525000000085
5775,60.0,0.0587382500000011,63.0,0.08849549999999873
5776,33.0,0.058996999999999744,38.0,0.11764750000000035
5777,59.0,0.029498499999998984,63.0,0.08814900000000137
5778,57.0,0.08814900000000137,60.0,0.11695899999999959
5779,60.0,0.08771924999999925,58.0,0.08771925000000103
5780,33.0,0.029239750000000342,36.0,0.11695899999999959
5781,55.0,0.058479500000000684,54.0,0.08771924999999925
5782,30.0,0.05847949999999891,34.0,0.11695900000000137
5783,54.0,0.029239750000000342,54.0,0.08771925000000103
5784,57.0,0.08771925000000103,53.0,0.11773024999999926
5785,52.0,0.08822999999999936,48.0,0.0885898333333337
5786,30.0,0.029500249999999895,31.0,0.11826824999999985
5787,51.0,0.059089583333333806,48.0,0.08885933333333185
5788,33.0,0.05917866666666605,33.0,0.11908658333333477
5789,54.0,0.0296806666666658,47.0,0.08940591666666897
5790,48.0,0.08940591666666897,45.0,0.12188549999999942
5791,47.0,0.09107833333333204,42.0,0.09301424999999952
5792,33.0,0.030807166666667385,29.0,0.1254229166666665
5793,50.0,0.062207083333332136,42.0,0.09492566666666669
5794,30.0,0.06321583333333436,26.0,0.14584783333333284
5795,48.0,0.03170983333333233,41.0,0.202721416666666
5796,28.0,0.11413800000000052,22.0,0.11790891666666603
5797,47.0,0.08858341666666547,37.0,0.08789074999999968
5798,35.0,0.02932550000000056,25.0,0.11704474999999803
5799,48.0,0.058565249999999125,41.0,0.08797799999999967
5800,40.0,0.05847949999999891,28.0,0.11878474999999966
5801,47.0,0.02949850000000076,38.0,0.0892862499999989
5802,46.0,0.0892862499999989,39.0,0.11940300000000015
5803,47.0,0.08955225000000056,40.0,0.08893508333333422
5804,40.0,0.029850749999999593,28.0,0.1178215833333347
5805,52.0,0.05908433333333463,42.0,0.08806274999999886
5806,35.0,0.058737250000000074,27.0,0.11730199999999869
5807,55.0,0.029325499999998783,43.0,0.0879764999999999
5808,54.0,0.0879764999999999,45.0,0.1185192500000003
5809,52.0,0.08884566666666771,43.0,0.08919741666666603
5810,35.0,0.029673583333332587,28.0,0.1187832499999999
5811,54.0,0.05952383333333344,45.0,0.08875791666666721
5812,40.0,0.05925941666666645,30.0,0.11756124999999962
5813,52.0,0.02949850000000076,43.0,0.08806274999999886
5814,51.0,0.08806274999999886,44.0,0.11773424999999982
5815,52.0,0.08823575000000083,46.0,0.08867016666666494
5816,40.0,0.029498499999998984,28.0,0.11834333333333369
5817,55.0,0.059171666666665956,49.0,0.0887575000000016
5818,35.0,0.05917166666666773,27.0,0.1358783333333342
5819,59.0,0.029585833333333866,47.0,0.10629250000000035
5820,28.0,0.10629250000000035,27.0,0.13033133333333424
5821,47.0,0.10074550000000038,45.0,0.08875749999999982
5822,35.0,0.029585833333333866,30.0,0.11834333333333369
5823,49.0,0.059171666666665956,49.0,0.08867016666666849
5824,37.0,0.05917166666666773,34.0,0.11808233333333362
5825,47.0,0.02949850000000076,45.0,0.08858383333333286
5826,46.0,0.08858383333333286,46.0,0.11869491666666754
5827,47.0,0.08910908333333367,48.0,0.08849608333333414
5828,37.0,0.029585833333333866,34.0,0.11756124999999962
5829,52.0,0.058910250000000275,50.0,0.0881495000000001
5830,35.0,0.05865099999999934,33.0,0.11869591666666679
5831,55.0,0.02949850000000076,51.0,0.08919741666666603
5832,54.0,0.08919741666666603,54.0,0.11887208333333277
5833,52.0,0.0892862499999989,51.0,0.08867016666666672
5834,35.0,0.029585833333333866,33.0,0.11799458333333135
5835,54.0,0.05908433333333285,53.0,0.08823574999999906
5836,37.0,0.0589102499999985,36.0,0.11738824999999942
5837,52.0,0.02932550000000056,51.0,0.08806274999999886
5838,51.0,0.08806274999999886,52.0,0.11869591666666679
5839,52.0,0.08893400000000007,54.0,0.0890223333333342
5840,37.0,0.02976191666666672,34.0,0.11834475000000211
5841,55.0,0.05926041666666748,57.0,0.08858283333333361
5842,35.0,0.05908433333333463,32.0,0.13579099999999933
5843,59.0,0.029498499999998984,55.0,0.10629250000000035
5844,54.0,0.10629250000000035,64.0,0.13056216666666742
5845,55.0,0.10042175000000064,58.0,0.09032891666666742
5846,35.0,0.03014041666666678,34.0,0.12009749999999997
5847,54.0,0.060188500000000644,61.0,0.08977224999999933
5848,38.0,0.059908999999999324,37.0,0.11917791666666666
5849,53.0,0.029863250000000008,50.0,0.08931466666666665
5850,54.0,0.08931466666666665,56.0,0.11926799999999993
5851,62.0,0.08949725000000086,68.0,0.08922216666666571
5852,38.0,0.02977074999999907,38.0,0.11881275000000002
5853,61.0,0.059451416666666645,62.0,0.08895066666666729
5854,35.0,0.05936133333333338,35.0,0.11826824999999985
5855,59.0,0.02958933333333391,65.0,0.08867891666666594
5856,58.0,0.08867891666666594,69.0,0.11687900000000084
5857,67.0,0.0877245000000002,73.0,0.08806475000000091
5858,37.0,0.029154500000000638,41.0,0.11790725000000002
5859,66.0,0.058910250000000275,72.0,0.08849549999999873
5860,40.0,0.058996999999999744,45.0,0.11790724999999824
5861,64.0,0.029498499999998984,72.0,0.08840874999999926
5862,62.0,0.08840874999999926,75.0,0.11678950000000121
5863,61.0,0.08746400000000065,69.0,0.0883225000000003
5864,40.0,0.02932550000000056,44.0,0.11799399999999949
5865,59.0,0.058996999999999744,68.0,0.0884955000000005
5866,37.0,0.058996999999999744,41.0,0.11799400000000126
5867,58.0,0.02949850000000076,68.0,0.0884955000000005
5868,61.0,0.0884955000000005,72.0,0.11799399999999949
5869,59.0,0.08849549999999873,70.0,0.08789275000000174
5870,30.0,0.02949850000000076,35.0,0.11678850000000018
5871,62.0,0.05839425000000098,64.0,0.08771974999999799
5872,35.0,0.058394249999999204,37.0,0.1177342500000016
5873,53.0,0.029325499999998783,57.0,0.08840875000000281
5874,55.0,0.08840875000000281,65.0,0.11799399999999949
5875,54.0,0.08849549999999695,57.0,0.08738575000000282
5876,35.0,0.029498500000002537,39.0,0.11577541666666846
5877,59.0,0.05788725000000028,63.0,0.08704266666666882
5878,30.0,0.057888166666668184,37.0,0.11687374999999989
5879,49.0,0.029154500000000638,57.0,0.08771924999999925
5880,52.0,0.08771924999999925,61.0,0.11773025000000104
5881,50.0,0.08822999999999936,59.0,0.0885898333333337
5882,30.0,0.02950025000000167,35.0,0.11826824999999985
5883,54.0,0.05908958333333203,58.0,0.0888593333333354
5884,35.0,0.05917866666666782,38.0,0.11908658333333122
5885,46.0,0.029680666666667577,56.0,0.08940591666666364
5886,49.0,0.08940591666666364,60.0,0.12255966666666396
5887,47.0,0.09150758333333187,51.0,0.09391608333332968
5888,35.0,0.031052083333332092,35.0,0.12690333333333115
5889,46.0,0.06286399999999759,55.0,0.09676825000000022
5890,30.0,0.06403933333333356,33.0,0.1341555000000021
5891,47.0,0.03272891666666666,50.0,0.10142658333333543
5892,47.0,0.10142658333333543,72.0,0.13944825000000094
5893,59.0,0.10485100000000003,58.0,0.10367491666666595
5894,28.0,0.03459725000000091,41.0,0.137810833333333
5895,51.0,0.06907766666666504,59.0,0.10298441666666847
5896,33.0,0.06873316666666796,43.0,0.1365544166666659
5897,52.0,0.03425125000000051,59.0,0.10230316666666539
5898,45.0,0.10230316666666539,71.0,0.1353206666666651
5899,57.0,0.10151858333333053,60.0,0.10106975000000062
5900,33.0,0.033802083333334565,44.0,0.13453533333333212
5901,51.0,0.06726766666666606,60.0,0.10090149999999909
5902,28.0,0.06726766666666606,42.0,0.13442933333333684
5903,52.0,0.03363383333333303,61.0,0.10079550000000381
5904,44.0,0.10079550000000381,75.0,0.13411133333333325
5905,56.0,0.10058349999999905,62.0,0.10068950000000143
5906,28.0,0.0335278333333342,44.0,0.1344293333333333
5907,51.0,0.06716166666666723,63.0,0.10090149999999909
5908,33.0,0.06726766666666606,45.0,0.13475316666666615
5909,52.0,0.03363383333333303,63.0,0.10111933333333312
5910,45.0,0.10111933333333312,74.0,0.13507833333333252
5911,57.0,0.10122824999999835,65.0,0.10187516666666951
5912,33.0,0.03385008333333417,45.0,0.1366058333333342
5913,51.0,0.06802508333333535,64.0,0.1030944166666643
5914,28.0,0.06858074999999886,44.0,0.13884866666666795
5915,52.0,0.034513666666665443,64.0,0.10433500000000251
5916,40.0,0.10433500000000251,77.0,0.13695083333333358
5917,52.0,0.10320808333333531,65.0,0.10090574999999546
5918,33.0,0.03374274999999827,46.0,0.13443066666666326
5919,45.0,0.0671629999999972,65.0,0.10090149999999909
5920,36.0,0.06726766666666606,48.0,0.13453533333333567
5921,48.0,0.03363383333333303,65.0,0.10090150000000264
5922,42.0,0.10090150000000264,75.0,0.13453533333333212
5923,54.0,0.10090149999999909,65.0,0.10090149999999909
5924,36.0,0.03363383333333303,47.0,0.13453533333333212
5925,45.0,0.06726766666666606,65.0,0.10079550000000026
5926,33.0,0.06726766666666606,45.0,0.13411133333333325
5927,48.0,0.0335278333333342,65.0,0.10058349999999905
5928,43.0,0.10058349999999905,79.0,0.1344293333333333
5929,55.0,0.10079550000000026,66.0,0.10101041666666433
5930,26.0,0.03363383333333303,46.0,0.13486208333333138
5931,47.0,0.0673765833333313,66.0,0.10122825000000191
5932,31.0,0.06748550000000009,48.0,0.13529300000000077
5933,50.0,0.03374275000000182,66.0,0.10155024999999895
5934,47.0,0.10155024999999895,77.0,0.13583333333333414
5935,59.0,0.10176641666666697,67.0,0.10253441666666774
5936,31.0,0.03406691666666717,46.0,0.13738324999999918
5937,50.0,0.06846750000000057,66.0,0.10354174999999799
5938,26.0,0.06891574999999861,45.0,0.13850400000000107
5939,55.0,0.03462599999999938,65.0,0.10387800000000169
5940,47.0,0.10387800000000169,81.0,0.13540033333333312
5941,59.0,0.10155024999999895,65.0,0.1015502500000025
5942,28.0,0.03385008333333417,46.0,0.13540033333333312
5943,51.0,0.06770016666666834,65.0,0.10144291666666305
5944,33.0,0.06770016666666478,48.0,0.13497100000000017
5945,52.0,0.03374274999999827,65.0,0.10122825000000191
5946,45.0,0.10122825000000191,78.0,0.13497100000000017
5947,57.0,0.10122824999999835,65.0,0.10101041666666788
5948,33.0,0.03374275000000182,47.0,0.13453533333333212
5949,51.0,0.06726766666666606,65.0,0.10090149999999909
5950,28.0,0.06726766666666606,45.0,0.13442933333333684
5951,52.0,0.03363383333333303,65.0,0.10079550000000381
5952,44.0,0.10079550000000381,79.0,0.13411133333333325
5953,56.0,0.10058349999999905,66.0,0.10068950000000143
5954,28.0,0.0335278333333342,46.0,0.1344293333333333
5955,51.0,0.06716166666666723,66.0,0.10090149999999909
5956,33.0,0.06726766666666606,48.0,0.13475316666666615
5957,52.0,0.03363383333333303,66.0,0.10111933333333312
5958,45.0,0.10111933333333312,77.0,0.13507833333333252
5959,57.0,0.10122824999999835,67.0,0.10187516666666951
5960,33.0,0.03385008333333417,46.0,0.1366058333333342
5961,51.0,0.06802508333333535,66.0,0.1030944166666643
5962,28.0,0.06858074999999886,45.0,0.13884866666666795
5963,52.0,0.034513666666665443,65.0,0.10433500000000251
5964,44.0,0.10433500000000251,81.0,0.1371553333333324
5965,56.0,0.10286650000000108,65.0,0.10286649999999753
5966,30.0,0.034288833333331326,46.0,0.13715533333333596
5967,50.0,0.0685776666666662,65.0,0.10275633333333545
5968,36.0,0.06857766666666976,48.0,0.13739133333333342
5969,54.0,0.03417866666666569,65.0,0.10321266666666773
5970,45.0,0.10321266666666773,78.0,0.14081933333333296
5971,57.0,0.10537841666666736,65.0,0.10692333333333082
5972,36.0,0.0354409166666656,47.0,0.14406791666666763
5973,50.0,0.07148241666666522,65.0,0.10977125000000143
5974,30.0,0.07258550000000241,45.0,0.15242433333333238
5975,54.0,0.03718574999999902,65.0,0.11523858333333337
5976,48.0,0.11523858333333337,79.0,0.1402314166666656
5977,60.0,0.10502758333333162,66.0,0.10572841666666832
5978,26.0,0.03520383333333399,46.0,0.1414064166666691
5979,50.0,0.07052458333333433,66.0,0.10644116666666648
5980,31.0,0.07088183333333475,48.0,0.14272291666666348
5981,55.0,0.03555933333333172,66.0,0.10716358333333176
5982,47.0,0.10716358333333176,77.0,0.14381008333333511
5983,59.0,0.10776625000000095,67.0,0.10825666666666933
5984,31.0,0.03604383333333416,46.0,0.14455083333333363
5985,50.0,0.07221283333333517,66.0,0.1086303333333305
5986,26.0,0.07233799999999846,45.0,0.14468508333333574
5987,55.0,0.03629233333333204,65.0,0.1083927500000037
5988,47.0,0.1083927500000037,52.0,0.13540033333333312
5989,59.0,0.10155024999999895,57.0,0.1015502500000025
5990,28.0,0.03385008333333417,33.0,0.13540033333333312
5991,51.0,0.06770016666666834,47.0,0.10144291666666305
5992,33.0,0.06770016666666478,34.0,0.13497100000000017
5993,52.0,0.03374274999999827,47.0,0.10122825000000191
5994,45.0,0.10122825000000191,49.0,0.13497100000000017
5995,57.0,0.10122824999999835,54.0,0.10101041666666788
5996,33.0,0.03374275000000182,34.0,0.13453533333333212
5997,51.0,0.06726766666666606,48.0,0.10090149999999909
5998,28.0,0.06726766666666606,34.0,0.13442933333333684
5999,52.0,0.03363383333333303,48.0,0.10079550000000381
6000,44.0,0.10079550000000381,51.0,0.13411133333333325
6001,56.0,0.10058349999999905,56.0,0.10068950000000143
6002,28.0,0.0335278333333342,34.0,0.1344293333333333
6003,51.0,0.06716166666666723,50.0,0.10090149999999909
6004,33.0,0.06726766666666606,36.0,0.13475316666666615
6005,52.0,0.03363383333333303,50.0,0.10111933333333312
6006,45.0,0.10111933333333312,53.0,0.13507833333333252
6007,57.0,0.10122824999999835,58.0,0.10187516666666951
6008,33.0,0.03385008333333417,35.0,0.1366058333333342
6009,51.0,0.06802508333333535,51.0,0.1030944166666643
6010,28.0,0.06858074999999886,34.0,0.13884866666666795
6011,52.0,0.034513666666665443,51.0,0.10433500000000251
6012,40.0,0.10433500000000251,55.0,0.13695083333333358
6013,52.0,0.10320808333333531,60.0,0.10090574999999546
6014,33.0,0.03374274999999827,37.0,0.13443066666666326
6015,45.0,0.0671629999999972,52.0,0.10090149999999909
6016,36.0,0.06726766666666606,38.0,0.13453533333333567
6017,48.0,0.03363383333333303,53.0,0.10090150000000264
6018,42.0,0.10090150000000264,55.0,0.13453533333333212
6019,54.0,0.10090149999999909,62.0,0.10090149999999909
6020,36.0,0.03363383333333303,38.0,0.13453533333333212
6021,45.0,0.06726766666666606,54.0,0.10079550000000026
6022,33.0,0.06726766666666606,38.0,0.13411133333333325
6023,48.0,0.0335278333333342,54.0,0.10058349999999905
6024,43.0,0.10058349999999905,57.0,0.1344293333333333
6025,55.0,0.10079550000000026,65.0,0.10101041666666433
6026,26.0,0.03363383333333303,39.0,0.13486208333333138
6027,47.0,0.0673765833333313,56.0,0.10122825000000191
6028,31.0,0.06748550000000009,40.0,0.13529300000000077
6029,50.0,0.03374275000000182,56.0,0.10155024999999895
6030,47.0,0.10155024999999895,60.0,0.13583333333333414
6031,59.0,0.10176641666666697,68.0,0.10253441666666774
6032,31.0,0.03406691666666717,40.0,0.13738324999999918
6033,50.0,0.06846750000000057,57.0,0.10354174999999799
6034,26.0,0.06891574999999861,39.0,0.1376093333333337
6035,55.0,0.03462599999999938,58.0,0.10298333333333431
6036,47.0,0.10298333333333431,62.0,0.13649116666666572
6037,59.0,0.10242424999999855,68.0,0.10209200000000251
6038,28.0,0.03406691666666717,42.0,0.13594141666666815
6039,51.0,0.06802508333333535,59.0,0.10176641666666697
6040,60.0,0.10827483333333277,40.0,0.10789833333333831
6041,33.0,0.03604900000000555,27.0,0.1435726666666639
6042,54.0,0.07184933333333277,40.0,0.107522000000003
6043,30.0,0.07172333333333114,25.0,0.14294950000000028
6044,57.0,0.03579866666667186,39.0,0.10715083333332842
6045,48.0,0.10715083333332842,43.0,0.14320150000000353
6046,60.0,0.10715250000000509,40.0,0.10891233333332906
6047,30.0,0.03604899999999844,23.0,0.14651008333333237
6048,54.0,0.07286333333333062,37.0,0.11086850000000226
6049,33.0,0.07364675000000176,24.0,0.15010958333333235
6050,57.0,0.0372217500000005,37.0,0.11288783333333186
6051,47.0,0.11288783333333186,42.0,0.15360491666666576
6052,59.0,0.1148452500000019,38.0,0.11701641666666518
6053,33.0,0.03875966666666386,23.0,0.15756950000000103
6054,54.0,0.07825675000000132,36.0,0.11927758333333571
6055,30.0,0.07931274999999971,22.0,0.16143058333334181
6056,57.0,0.039964833333336,35.0,0.12146575000000581
6057,28.0,0.12146575000000581,22.0,0.1316998333333288
6058,47.0,0.10207549999999799,37.0,0.08844833333333213
6059,35.0,0.02962433333333081,25.0,0.11730349999999845
6060,48.0,0.05882400000000132,41.0,0.08771924999999925
6061,40.0,0.05847949999999713,28.0,0.11704475000000514
6062,47.0,0.029239750000002118,38.0,0.08780500000000302
6063,46.0,0.08780500000000302,39.0,0.11773583333334159
6064,47.0,0.08849608333333947,40.0,0.0875487500000034
6065,40.0,0.029239750000002118,28.0,0.11661800000000255
6066,52.0,0.058309000000001276,42.0,0.08763450000000006
6067,35.0,0.058309000000001276,27.0,0.11773424999999804
6068,55.0,0.029325499999998783,43.0,0.08840874999999926
6069,54.0,0.08840874999999926,45.0,0.1167047500000038
6070,52.0,0.0876349999999988,43.0,0.08754975000000087
6071,35.0,0.029069750000005,28.0,0.1173902499999997
6072,54.0,0.05847999999999587,45.0,0.08858383333333819
6073,40.0,0.05891025000000383,30.0,0.1177373333333378
6074,52.0,0.029673583333334363,43.0,0.08806375000000344
6075,51.0,0.08806375000000344,44.0,0.11738975000000096
6076,52.0,0.08789124999999842,46.0,0.08840874999999926
6077,40.0,0.029498500000002537,28.0,0.11756124999999429
6078,55.0,0.05891024999999672,49.0,0.08797650000000345
6079,35.0,0.058650999999997566,27.0,0.13900675000000717
6080,59.0,0.02932550000000589,47.0,0.10968125000000128
6081,28.0,0.10968125000000128,27.0,0.1302440000000047
6082,47.0,0.10074550000000215,45.0,0.0884955000000005
6083,35.0,0.029498500000002537,30.0,0.11799399999999594
6084,48.0,0.05899699999999797,49.0,0.0884955000000005
6085,40.0,0.05899699999999797,34.0,0.1175612500000014
6086,47.0,0.029498500000002537,45.0,0.08806274999999886
6087,46.0,0.08806274999999886,46.0,0.11851883333334001
6088,47.0,0.08893300000000437,48.0,0.08849608333333947
6089,40.0,0.029585833333335643,34.0,0.1177337499999993
6090,52.0,0.05891025000000383,50.0,0.08832199999999801
6091,35.0,0.05882349999999548,33.0,0.11782099999999929
6092,55.0,0.029498500000002537,51.0,0.08832249999999675
6093,54.0,0.08832249999999675,54.0,0.11747550000000473
6094,52.0,0.08797700000000219,51.0,0.08832249999999675
6095,35.0,0.029498500000002537,33.0,0.11730349999999135
6096,54.0,0.058823999999994214,53.0,0.08789124999999842
6097,40.0,0.05847949999999713,36.0,0.11808191666666801
6098,52.0,0.02941175000000129,51.0,0.08867016666666672
6099,51.0,0.08867016666666672,52.0,0.1171304999999947
6100,52.0,0.08789074999999968,54.0,0.0880632499999976
6101,40.0,0.029239749999995013,34.0,0.11764699999999806
6102,55.0,0.05882350000000258,57.0,0.08823524999999677
6103,35.0,0.05882349999999548,32.0,0.13680775000000267
6104,59.0,0.02941175000000129,55.0,0.10739600000000138
6105,30.0,0.10739600000000138,31.0,0.1308859166666707
6106,48.0,0.10074550000000215,56.0,0.09032891666666387
6107,36.0,0.030140416666668557,35.0,0.12009749999999286
6108,52.0,0.060188499999995315,57.0,0.08977224999999578
6109,40.0,0.05990899999999755,39.0,0.11917791666665778
6110,54.0,0.02986324999999823,59.0,0.08931466666665955
6111,57.0,0.08931466666665955,61.0,0.11926800000000526
6112,60.0,0.08949725000000086,66.0,0.08922216666666571
6113,40.0,0.029770750000004398,39.0,0.11881274999999647
6114,64.0,0.059451416666661316,69.0,0.08895066666666906
6115,36.0,0.05936133333333515,37.0,0.11817975000000303
6116,66.0,0.02958933333333391,71.0,0.08859041666666911
6117,74.0,0.08859041666666911,73.0,0.11721775000000179
6118,72.0,0.08771924999999925,71.0,0.08884566666667126
6119,40.0,0.029498500000002537,40.0,0.11860658333333873
6120,71.0,0.05934716666666873,71.0,0.0886711666666713
6121,42.0,0.059259416666670006,44.0,0.11747450000000015
6122,69.0,0.02941175000000129,70.0,0.08806274999999886
6123,67.0,0.08806274999999886,69.0,0.11825850000001026
6124,66.0,0.0885849166666759,68.0,0.08884566666667126
6125,42.0,0.029673583333334363,44.0,0.11790933333333697
6126,69.0,0.0591720833333369,67.0,0.08806274999999886
6127,40.0,0.058737250000000074,41.0,0.11799608333333111
6128,64.0,0.029325499999998783,67.0,0.08867058333333233
6129,63.0,0.08867058333333233,68.0,0.1176485833333345
6130,66.0,0.08832308333333572,64.0,0.08780499999999591
6131,30.0,0.029325499999998783,36.0,0.11747708333333406
6132,60.0,0.05847949999999713,65.0,0.08849608333333947
6133,33.0,0.058997583333336934,39.0,0.1175612500000014
6134,59.0,0.029498500000002537,65.0,0.08806274999999886
6135,57.0,0.08806274999999886,64.0,0.11773891666666714
6136,60.0,0.08806533333333277,62.0,0.08875791666667254
6137,33.0,0.029673583333334363,39.0,0.1179945833333349
6138,55.0,0.05908433333333818,59.0,0.0882357499999955
6139,30.0,0.05891024999999672,37.0,0.11730200000000224
6140,54.0,0.029325499999998783,59.0,0.08797650000000345
6141,57.0,0.08797650000000345,59.0,0.11773025000000104
6142,52.0,0.08823000000000292,55.0,0.08858983333333725
6143,30.0,0.029500249999998118,35.0,0.11826825000000696
6144,51.0,0.059089583333339135,55.0,0.08885933333333185
6145,33.0,0.05917866666666782,38.0,0.11908658333333477
6146,54.0,0.029680666666664024,55.0,0.08940591666667075
6147,48.0,0.08940591666667075,54.0,0.12188550000000475
6148,47.0,0.09107833333333559,51.0,0.09301425000000307
6149,33.0,0.03080716666666916,35.0,0.12542291666666472
6150,50.0,0.06220708333333391,51.0,0.09513408333332762
6151,30.0,0.0632158333333308,33.0,0.13890987499999596
6152,48.0,0.03191824999999682,50.0,0.19859825000000342
6153,28.0,0.10699162499999915,28.0,0.12110512500000681
6154,47.0,0.09160662500000427,47.0,0.08832200000000512
6155,35.0,0.029498500000002537,32.0,0.11721775000000179
6156,48.0,0.05882350000000258,51.0,0.08771974999999799
6157,40.0,0.058394249999999204,34.0,0.11790891666666425
6158,47.0,0.029325499999998783,47.0,0.08858341666666547
6159,46.0,0.08858341666666547,48.0,0.11773583333334159
6160,47.0,0.08849608333333947,49.0,0.08771924999999925
6161,40.0,0.029239750000002118,35.0,0.11713100000000054
6162,52.0,0.05847949999999713,51.0,0.08815000000000595
6163,35.0,0.05865150000000341,33.0,0.11799400000000304
6164,55.0,0.029498500000002537,52.0,0.0884955000000005
6165,54.0,0.0884955000000005,54.0,0.11756124999999429
6166,52.0,0.088149499999993,51.0,0.08849608333333947
6167,35.0,0.02941175000000129,33.0,0.11808191666666801
6168,54.0,0.05908433333333818,53.0,0.08832308333332861
6169,40.0,0.05899758333332983,35.0,0.11738825000000475
6170,52.0,0.029325499999998783,51.0,0.08806275000000596
6171,51.0,0.08806275000000596,51.0,0.11834375000000108
6172,52.0,0.08884524999999854,53.0,0.0884955000000005
6173,40.0,0.029498500000002537,33.0,0.11799399999999594
6174,55.0,0.05899699999999797,57.0,0.0884955000000005
6175,35.0,0.05899699999999797,31.0,0.1404707916666652
6176,59.0,0.029498500000002537,54.0,0.11097229166666267
6177,55.0,0.11097229166666267,52.0,0.12247008333334009
6178,54.0,0.09292800000000767,48.0,0.08827933333333249
6179,40.0,0.029542083333332414,33.0,0.11738825000000475
6180,55.0,0.058737250000000074,52.0,0.08797650000000345
6181,42.0,0.05865100000000467,35.0,0.11825850000000315
6182,54.0,0.029325499999998783,48.0,0.08893300000000437
6183,53.0,0.08893300000000437,49.0,0.11799516666666676
6184,54.0,0.08858341666666547,50.0,0.08806274999999886
6185,42.0,0.02941175000000129,36.0,0.11773533333333575
6186,57.0,0.058650999999997566,53.0,0.08867016666666672
6187,40.0,0.05908433333333818,34.0,0.11825600000000236
6188,60.0,0.029585833333328537,54.0,0.08867016666667382
6189,57.0,0.08867016666667382,56.0,0.11704474999999803
6190,56.0,0.08780499999999591,54.0,0.08806375000000344
6191,40.0,0.029239750000002118,34.0,0.1179956666666655
6192,57.0,0.05882400000000132,56.0,0.08875749999999982
6193,44.0,0.05917166666666418,37.0,0.11782158333333825
6194,56.0,0.029585833333335643,54.0,0.08823575000000261
6195,55.0,0.08823575000000261,54.0,0.11730349999999845
6196,56.0,0.08780499999999591,56.0,0.0884955000000005
6197,44.0,0.029498500000002537,34.0,0.11799399999999594
6198,59.0,0.05899699999999797,59.0,0.0884955000000005
6199,40.0,0.05899699999999797,33.0,0.14280000000000115
6200,64.0,0.029498500000002537,57.0,0.11330149999999861
6201,36.0,0.11330149999999861,30.0,0.1232916666666668
6202,52.0,0.09379316666666426,50.0,0.08840874999999926
6203,40.0,0.029498500000002537,34.0,0.11756124999999429
6204,53.0,0.05891024999999672,55.0,0.08797650000000345
6205,45.0,0.058650999999997566,37.0,0.11747500000000599
6206,52.0,0.02932550000000589,51.0,0.0881495000000001
6207,51.0,0.0881495000000001,52.0,0.11790891666666425
6208,52.0,0.08858341666666547,53.0,0.08797650000000345
6209,45.0,0.029325499999998783,39.0,0.11773533333334285
6210,57.0,0.05865100000000467,56.0,0.08875791666667254
6211,40.0,0.05908433333333818,35.0,0.11791041666666757
6212,60.0,0.029673583333334363,57.0,0.08823683333333321
6213,57.0,0.08823683333333321,59.0,0.11747450000000725
6214,56.0,0.08806275000000596,56.0,0.08858341666666547
6215,40.0,0.02941175000000129,36.0,0.11816925000000111
6216,57.0,0.05917166666666418,59.0,0.08832308333333572
6217,44.0,0.058997583333336934,39.0,0.1171304999999947
6218,56.0,0.029325499999998783,57.0,0.08780499999999591
6219,55.0,0.08780499999999591,57.0,0.11756074999999555
6220,56.0,0.08814900000000137,59.0,0.08823524999999677
6221,44.0,0.029411749999994186,37.0,0.11764700000000516
6222,59.0,0.05882350000000258,63.0,0.08823525000000387
6223,40.0,0.05882350000000258,34.0,0.13948725000000195
6224,64.0,0.02941175000000129,59.0,0.11007550000000066
6225,59.0,0.11007550000000066,58.0,0.12247008333334009
6226,57.0,0.09292800000000767,53.0,0.0887137499999966
6227,40.0,0.029542083333332414,36.0,0.11825600000000236
6228,59.0,0.05917166666666418,58.0,0.08849608333333947
6229,45.0,0.05908433333333818,39.0,0.11756074999999555
6230,57.0,0.02941175000000129,54.0,0.08814899999999426
6231,56.0,0.08814899999999426,55.0,0.11678849999999841
6232,57.0,0.08763399999999422,56.0,0.08763450000000006
6233,45.0,0.02915450000000419,40.0,0.11765166666666005
6234,60.0,0.05847999999999587,59.0,0.08858341666666547
6235,40.0,0.05917166666666418,38.0,0.11713149999999928
6236,64.0,0.02941175000000129,60.0,0.08771974999999799
6237,60.0,0.08771974999999799,63.0,0.11764908333334034
6238,59.0,0.0880632500000047,59.0,0.08884524999999854
6239,33.0,0.029585833333335643,38.0,0.11808341666666422
6240,60.0,0.0592594166666629,62.0,0.08806375000000344
6241,35.0,0.05882400000000132,41.0,0.11747550000000473
6242,59.0,0.029239750000002118,60.0,0.08823575000000261
6243,58.0,0.08823575000000261,60.0,0.11747549999999762
6244,59.0,0.0882357499999955,62.0,0.0880632500000047
6245,35.0,0.029239750000002118,39.0,0.11764699999999806
6246,63.0,0.05882350000000258,66.0,0.08823524999999677
6247,33.0,0.05882349999999548,37.0,0.1483837500000007
6248,66.0,0.02941175000000129,63.0,0.11897199999999941
6249,59.0,0.11897199999999941,69.0,0.12192279166666964
6250,60.0,0.09177870833333657,64.0,0.09033625
6251,35.0,0.03014408333333307,39.0,0.12010116666666448
6252,59.0,0.060192166666666935,67.0,0.08977224999999578
6253,40.0,0.05990899999999755,43.0,0.11917791666665778
6254,58.0,0.02986324999999823,58.0,0.08931466666665955
6255,59.0,0.08931466666665955,62.0,0.11926800000000526
6256,67.0,0.08949725000000086,71.0,0.08922216666666571
6257,40.0,0.029770750000004398,44.0,0.11881274999999647
6258,66.0,0.059451416666661316,71.0,0.08895066666666906
6259,35.0,0.05936133333333515,42.0,0.11828916666667055
6260,65.0,0.02958933333333391,70.0,0.08869983333333664
6261,64.0,0.08869983333333664,69.0,0.11816833333332966
6262,63.0,0.08862624999999724,69.0,0.08866737499999999
6263,35.0,0.029542083333332414,41.0,0.1183739583333363
6264,62.0,0.05912529166666758,68.0,0.08887299999999954
6265,39.0,0.059248666666668726,45.0,0.11858358333333285
6266,61.0,0.02962433333333081,67.0,0.08895925000000204
6267,60.0,0.08895925000000204,67.0,0.11884233333333327
6268,59.0,0.08913174999999995,66.0,0.0892592500000049
6269,39.0,0.029710583333333318,44.0,0.11913983333333533
6270,58.0,0.05954866666667158,65.0,0.08938674999999563
6271,35.0,0.05959116666666375,41.0,0.11971154166666764
6272,57.0,0.029795583333331876,64.0,0.08991595833333577
6273,55.0,0.08991595833333577,69.0,0.1208031250000019
6274,57.0,0.0908342916666669,64.0,0.08998575000000386
6275,35.0,0.029968833333335,39.0,0.11992591666666641
6276,55.0,0.06001691666666886,67.0,0.08977224999999578
6277,40.0,0.05990899999999755,43.0,0.11917791666665778
6278,54.0,0.02986324999999823,58.0,0.08931466666665955
6279,55.0,0.08931466666665955,62.0,0.11926800000000526
6280,67.0,0.08949725000000086,71.0,0.08922216666666571
6281,40.0,0.029770750000004398,44.0,0.11881274999999647
6282,66.0,0.059451416666661316,71.0,0.08895066666666906
6283,35.0,0.05936133333333515,42.0,0.11826824999999985
6284,65.0,0.02958933333333391,70.0,0.08867891666666594
6285,64.0,0.08867891666666594,70.0,0.11757808333333486
6286,63.0,0.08812125000000037,71.0,0.08837050000000346
6287,40.0,0.029456833333334487,41.0,0.1179978333333338
6288,62.0,0.05891366666666897,71.0,0.08862624999999724
6289,42.0,0.05908416666666483,45.0,0.11867258333332842
6290,61.0,0.029542083333332414,72.0,0.089130499999996
6291,60.0,0.089130499999996,73.0,0.12005283333333239
6292,59.0,0.08990874999999932,74.0,0.09069891666666763
6293,42.0,0.03014408333333307,48.0,0.12146741666666827
6294,58.0,0.06055483333333456,75.0,0.0915048333333317
6295,40.0,0.060912583333333714,51.0,0.12282449999999301
6296,57.0,0.03059224999999799,76.0,0.09223224999999502
6297,59.0,0.09223224999999502,76.0,0.18464950000000613
6298,71.0,0.18464950000000613,85.0,0.09232474999999596
6299,70.0,0.09232474999999596,85.0,0.09232475000000306
6300,69.0,0.09232475000000306,84.0,0.08938675000000273
6301,68.0,0.08938675000000273,84.0,0.08938674999999563
6302,67.0,0.08938674999999563,83.0,0.08938675000000273
6303,66.0,0.08938675000000273,83.0,0.08938674999999563
6304,65.0,0.08938674999999563,82.0,0.3585939999999965
6305,64.0,0.08964850000000268,81.0,0.08964849999999558
6306,63.0,0.08964849999999558,81.0,0.08964850000000268
6307,62.0,0.08964850000000268,80.0,0.08964849999999558
6308,61.0,0.08964849999999558,80.0,0.08990649999999789
6309,60.0,0.08990649999999789,79.0,0.089906500000005
6310,59.0,0.089906500000005,79.0,0.08990649999999789
6311,58.0,0.08990649999999789,78.0,0.08999474999999535
6312,57.0,0.08999474999999535,77.0,0.09017124999999737
6313,56.0,0.09017124999999737,77.0,0.09017125000000448
6314,55.0,0.09017125000000448,77.0,0.09017124999999737
6315,54.0,0.09017124999999737,77.0,0.09017125000000448
6316,53.0,0.09017125000000448,77.0,0.09017124999999737
6317,52.0,0.09017124999999737,77.0,0.09017124999999737
6318,51.0,0.09017124999999737,77.0,0.09017125000000448
6319,50.0,0.09017125000000448,77.0,0.09017124999999737
6320,49.0,0.09017124999999737,77.0,0.09017124999999737
6321,48.0,0.09017124999999737,78.0,0.09017125000000448
6322,47.0,0.09017125000000448,80.0,0.09017124999999737
6323,46.0,0.09017124999999737,82.0,0.09025824999999799
6324,45.0,0.09025824999999799,85.0,0.09069891666666763
6325,43.0,0.09069891666666763,87.0,0.0915048333333317
6326,42.0,0.0915048333333317,90.0,0.09232341666666599
6327,56.0,0.23012300000000607,51.0,0.5389222499999988
6328,35.0,0.23952099999999632,24.0,0.23952100000001053
6329,32.0,0.23952100000001053,24.0,0.294255249999992
6330,52.0,0.059880249999991975,47.0,0.234375
6331,47.0,0.234375,48.0,1.4531597499999975
6332,30.0,0.25776575000000435,27.0,0.23952099999999632
6333,35.0,0.23952099999999632,27.0,0.23952099999999632
6334,39.0,0.23952099999999632,28.0,0.23534933333333186
6335,35.0,0.23534933333333186,27.0,0.23878400000000966
6336,30.0,0.23878400000000966,27.0,0.24221866666665903
6337,49.0,0.24221866666665903,48.0,2.8402360000000044
6338,33.0,0.23668633333333844,27.0,0.23668633333332423
6339,37.0,0.23668633333332423,28.0,0.23668633333333844
6340,40.0,0.23668633333333844,29.0,0.23668633333333844
6341,37.0,0.23668633333333844,28.0,0.23668633333332423
6342,33.0,0.23668633333332423,28.0,0.23668633333333844
6343,25.0,0.23668633333333844,27.0,0.23668633333332423
6344,32.0,0.23668633333332423,27.0,0.23668633333333844
6345,37.0,0.23668633333333844,28.0,0.23668633333333844
6346,41.0,0.23668633333333844,28.0,0.23668633333332423
6347,37.0,0.23668633333332423,28.0,0.23668633333333844
6348,32.0,0.23668633333333844,27.0,0.23668633333333844
6349,50.0,0.23668633333333844,42.0,0.23120674999999835
6350,52.0,0.08441187500000069,42.0,0.08441187500000069
6351,50.0,0.08441187500000069,46.0,0.18714900000000512
6352,37.0,0.06238299999999697,29.0,0.24037300000000528
6353,49.0,0.12476600000000815,45.0,0.3468210000000056
6354,41.0,0.11560699999999713,30.0,0.23121400000000847
6355,54.0,0.23121400000000847,45.0,0.3468209999999914
6356,41.0,0.23121399999999426,31.0,0.23532449999999017
6357,56.0,0.11560699999999713,48.0,0.3591524999999933
6358,37.0,0.11971749999999304,29.0,0.2394350000000003
6359,57.0,0.2394350000000003,51.0,0.6942030000000017
6360,45.0,0.2314010000000053,31.0,0.23140099999999109
6361,37.0,0.23140099999999109,28.0,0.2314010000000053
6362,56.0,0.2314010000000053,50.0,0.6942030000000017
6363,44.0,0.2314010000000053,30.0,0.23140099999999109
6364,36.0,0.23140099999999109,28.0,0.2314010000000053
6365,54.0,0.2314010000000053,51.0,0.6827490000000012
6366,42.0,0.22758299999999565,28.0,0.22758300000000986
6367,37.0,0.22758300000000986,29.0,0.22758299999999565
6368,56.0,0.22758299999999565,49.0,0.6943985000000055
6369,45.0,0.22758299999999565,27.0,0.23146616666667796
6370,39.0,0.23146616666667796,27.0,0.23534933333333186
6371,52.0,0.23534933333333186,48.0,1.0590720000000005
6372,35.0,0.23534933333333186,27.0,0.23534933333333186
6373,40.0,0.23534933333333186,29.0,0.23534933333333186
6374,44.0,0.23534933333333186,30.0,0.23534933333333186
6375,40.0,0.23534933333333186,29.0,0.24670700000000068
6376,51.0,0.11767466666667303,49.0,0.09677424999999573
6377,52.0,0.09677424999999573,45.0,0.09677425000000994
6378,35.0,0.03225808333333191,27.0,0.2580646666666695
6379,54.0,0.06451616666667803,45.0,0.09677424999999573
6380,52.0,0.09677424999999573,45.0,0.09677424999999573
6381,56.0,0.09677424999999573,50.0,1.0843380000000025
6382,34.0,0.24096400000000529,28.0,0.24096399999999107
6383,40.0,0.24096399999999107,29.0,0.24096400000000529
6384,42.0,0.24096400000000529,30.0,0.24096399999999107
6385,40.0,0.24096399999999107,29.0,0.2643668333333409
6386,54.0,0.12048200000000975,49.0,0.4316544999999934
6387,34.0,0.14388483333333113,27.0,0.28776966666666226
6388,54.0,0.28776966666666226,47.0,2.944219249999989
6389,30.0,0.23668633333333844,25.0,0.23668633333332423
6390,35.0,0.23668633333332423,27.0,0.23668633333333844
6391,39.0,0.23668633333333844,28.0,0.23668633333333844
6392,35.0,0.23668633333333844,27.0,0.23668633333332423
6393,30.0,0.23668633333332423,27.0,0.23806941666666148
6394,23.0,0.23806941666666148,25.0,0.23737924999998938
6395,30.0,0.23737924999998938,25.0,0.24436650000001237
6396,33.0,0.24436650000001237,27.0,0.24517316666666034
6397,37.0,0.24517316666666034,28.0,0.2492333333333363
6398,33.0,0.2492333333333363,26.0,0.2668455833333354
6399,30.0,0.2668455833333354,25.0,0.27972033333333
6400,47.0,0.27972033333333,45.0,1.4318085833333498
6401,30.0,0.2651867083333457,26.0,0.24006212499999435
6402,35.0,0.24006212499999435,27.0,0.23809741666667605
6403,39.0,0.23809741666667605,28.0,0.2307963333333447
6404,35.0,0.2307963333333447,28.0,0.2288329999999945
6405,30.0,0.2288329999999945,27.0,0.2288329999999945
6406,49.0,0.2288329999999945,42.0,0.23120674999999835
6407,51.0,0.08441187500000069,42.0,0.08441187500000069
6408,49.0,0.08441187500000069,46.0,0.18714900000000512
6409,35.0,0.06238299999999697,27.0,0.23905166666666844
6410,47.0,0.12476600000000815,45.0,0.3428569999999951
6411,39.0,0.11428566666666029,28.0,0.2285713333333348
6412,52.0,0.2285713333333348,45.0,0.3428570000000093
6413,39.0,0.2285713333333348,27.0,0.23400316666666754
6414,54.0,0.1142856666666745,48.0,0.3591524999999933
6415,37.0,0.11971749999999304,26.0,0.2394350000000003
6416,56.0,0.2394350000000003,51.0,1.3884060000000034
6417,35.0,0.2314010000000053,28.0,0.23140099999999109
6418,40.0,0.23140099999999109,28.0,0.2314010000000053
6419,44.0,0.2314010000000053,29.0,0.2314010000000053
6420,40.0,0.2314010000000053,30.0,0.23140099999999109
6421,35.0,0.23140099999999109,28.0,0.2314010000000053
6422,59.0,0.2314010000000053,56.0,1.3771475000000066
6423,35.0,0.22758299999999565,28.0,0.22758300000000986
6424,44.0,0.22758300000000986,29.0,0.22758299999999565
6425,47.0,0.22758299999999565,49.0,0.6943985000000055
6426,44.0,0.22758299999999565,30.0,0.23146616666667796
6427,35.0,0.23146616666667796,29.0,0.23534933333333186
6428,57.0,0.23534933333333186,53.0,0.7060479999999956
6429,42.0,0.23534933333333186,26.0,0.23534933333333186
6430,35.0,0.23534933333333186,26.0,0.23534933333333186
6431,56.0,0.23534933333333186,51.0,0.6980800000000045
6432,40.0,0.2326933333333301,26.0,0.2326933333333301
6433,35.0,0.2326933333333301,26.0,0.2326933333333443
6434,54.0,0.2326933333333443,49.0,0.345184500000002
6435,39.0,0.23012300000000607,23.0,0.244931666666659
6436,56.0,0.11506149999999593,47.0,0.09740262500000085
6437,54.0,0.09740262500000085,47.0,0.09740262500000085
6438,35.0,0.032467541666662214,23.0,0.25974033333334035
6439,52.0,0.06493508333333864,47.0,0.09740262500000085
6440,54.0,0.09740262500000085,47.0,0.09740262500000085
6441,56.0,0.09740262500000085,51.0,0.5660377500000067
6442,35.0,0.2515723333333284,24.0,0.2515723333333426
6443,32.0,0.2515723333333426,24.0,0.3009883333333363
6444,52.0,0.06289308333333565,47.0,0.23809525000000065
6445,47.0,0.23809525000000065,48.0,1.4349150000000037
6446,30.0,0.23952099999999632,27.0,0.23952100000001053
6447,35.0,0.23952100000001053,27.0,0.23952099999999632
6448,39.0,0.23952099999999632,28.0,0.23534933333333186
6449,35.0,0.23534933333333186,27.0,0.23878400000000966
6450,30.0,0.23878400000000966,27.0,0.24221866666665903
6451,49.0,0.24221866666665903,48.0,2.8402360000000044
6452,33.0,0.23668633333333844,27.0,0.23668633333332423
6453,37.0,0.23668633333332423,28.0,0.23668633333333844
6454,40.0,0.23668633333333844,29.0,0.23668633333333844
6455,37.0,0.23668633333333844,28.0,0.23668633333332423
6456,33.0,0.23668633333332423,28.0,0.23668633333333844
6457,25.0,0.23668633333333844,27.0,0.23668633333332423
6458,32.0,0.23668633333332423,27.0,0.23668633333333844
6459,37.0,0.23668633333333844,28.0,0.23668633333333844
6460,41.0,0.23668633333333844,28.0,0.23668633333332423
6461,37.0,0.23668633333332423,28.0,0.23668633333333844
6462,32.0,0.23668633333333844,27.0,0.23668633333333844
6463,50.0,0.23668633333333844,42.0,0.23120674999999835
6464,52.0,0.08441187500000069,42.0,0.08441187500000069
6465,50.0,0.08441187500000069,46.0,0.18714900000000512
6466,37.0,0.06238299999999697,29.0,0.23905166666666844
6467,49.0,0.12476600000000815,45.0,0.3428569999999951
6468,41.0,0.11428566666666029,30.0,0.2285713333333348
6469,54.0,0.2285713333333348,45.0,0.3428570000000093
6470,41.0,0.2285713333333348,31.0,0.23400316666666754
6471,56.0,0.1142856666666745,48.0,0.3591524999999933
6472,37.0,0.11971749999999304,29.0,0.2394350000000003
6473,57.0,0.2394350000000003,51.0,0.6942030000000017
6474,45.0,0.2314010000000053,31.0,0.23140099999999109
6475,37.0,0.23140099999999109,28.0,0.2314010000000053
6476,56.0,0.2314010000000053,50.0,0.6942030000000017
6477,44.0,0.2314010000000053,30.0,0.23140099999999109
6478,36.0,0.23140099999999109,28.0,0.2314010000000053
6479,54.0,0.2314010000000053,51.0,0.6827490000000012
6480,42.0,0.22758299999999565,28.0,0.22758300000000986
6481,37.0,0.22758300000000986,29.0,0.22758299999999565
6482,56.0,0.22758299999999565,49.0,0.6943985000000055
6483,45.0,0.22758299999999565,27.0,0.23146616666667796
6484,39.0,0.23146616666667796,27.0,0.23534933333333186
6485,52.0,0.23534933333333186,48.0,1.0590720000000005
6486,35.0,0.23534933333333186,27.0,0.23534933333333186
6487,40.0,0.23534933333333186,29.0,0.23534933333333186
6488,44.0,0.23534933333333186,30.0,0.23534933333333186
6489,40.0,0.23534933333333186,29.0,0.251008000000013
6490,46.0,0.11767466666667303,49.0,0.09999999999999432
6491,47.0,0.09999999999999432,45.0,0.10000000000000853
6492,35.0,0.03333333333334565,27.0,0.2666666666666657
6493,49.0,0.06666666666666288,45.0,0.09999999999999432
6494,47.0,0.09999999999999432,45.0,0.10000000000000853
6495,56.0,0.10000000000000853,50.0,1.111111500000007
6496,35.0,0.24691366666667136,28.0,0.24691366666665715
6497,39.0,0.24691366666665715,29.0,0.24691366666667136
6498,45.0,0.24691366666667136,30.0,0.24691366666667136
6499,39.0,0.24691366666667136,29.0,0.26838433333333
6500,54.0,0.12345683333333568,49.0,0.4347824999999972
6501,35.0,0.14492749999999432,27.0,0.28985500000000286
6502,54.0,0.28985500000000286,52.0,1.4460976666666596
6503,35.0,0.24096400000000529,28.0,0.24096399999999107
6504,39.0,0.24096399999999107,30.0,0.24096400000000529
6505,45.0,0.24096400000000529,31.0,0.24096399999999107
6506,39.0,0.24096399999999107,30.0,0.24096400000000529
6507,35.0,0.24096400000000529,28.0,0.24127766666666162
6508,52.0,0.24127766666666162,52.0,0.7331250000000153
6509,35.0,0.2425727500000079,27.0,0.24436650000001237
6510,40.0,0.24436650000001237,28.0,0.2461857499999951
6511,44.0,0.2461857499999951,30.0,0.2476490833333429
6512,40.0,0.2476490833333429,28.0,0.24310916666665605
6513,59.0,0.12476599999999394,60.0,0.35502950000000055
6514,35.0,0.11834316666666211,27.0,0.23668633333333844
6515,47.0,0.23668633333333844,65.0,1.4533119999999968
6516,30.0,0.24221866666667324,33.0,0.24221866666665903
6517,35.0,0.24221866666665903,34.0,0.24221866666667324
6518,39.0,0.24221866666667324,34.0,0.24221866666665903
6519,35.0,0.24221866666665903,33.0,0.24221866666667324
6520,30.0,0.24221866666667324,32.0,0.24221866666665903
6521,49.0,0.24221866666665903,65.0,0.23803866666666806
6522,51.0,0.08926449999999875,59.0,0.08926449999999875
6523,49.0,0.08926449999999875,60.0,0.08926449999999875
6524,30.0,0.05950966666667057,33.0,0.23803866666666806
6525,51.0,0.02975483333332818,59.0,0.08926449999999875
6526,49.0,0.08926449999999875,56.0,0.05950966666667057
6527,51.0,0.05950966666667057,56.0,0.05950966666667057
6528,49.0,0.05950966666667057,56.0,0.23803866666666806
6529,48.0,0.05950966666667057,62.0,0.1785289999999975
6530,49.0,0.1785289999999975,64.0,0.5430700000000002
6531,34.0,0.23803866666666806,33.0,0.24302733333333038
6532,30.0,0.24302733333333038,30.0,0.2480159999999927
6533,51.0,0.062004000000001724,62.0,0.18601199999999096
6534,47.0,0.18601199999999096,66.0,0.35100049999999783
6535,30.0,0.23400033333332715,30.0,0.23400033333334136
6536,35.0,0.23400033333334136,32.0,0.23400033333332715
6537,63.0,0.23400033333332715,66.0,0.9262766083333247
6538,35.0,0.2408186666666694,32.0,0.2408186666666694
6539,30.0,0.2408186666666694,30.0,0.2408186666666552
6540,28.0,0.2408186666666552,27.0,0.23803866666666806
6541,61.0,0.2038206083333307,63.0,0.2038206083333307
6542,35.0,0.03421805833333735,29.0,0.23803866666666806
6543,59.0,0.16960254999999336,62.0,0.20382060833334492
6544,40.0,0.0684361166666747,30.0,0.23803866666666806
6545,55.0,0.13538449166667021,61.0,0.2038206083333307
6546,43.0,0.10265417499999785,31.0,0.23873683333331996
6547,52.0,0.10116643333333286,59.0,0.20530064999998388
6548,40.0,0.1375703999999871,30.0,0.2411686666666526
6549,49.0,0.06773024999999677,58.0,0.3347040208333283
6550,35.0,0.17343841666665583,29.0,0.34170491666667147
6551,59.0,0.16126560416667246,55.0,0.180439312499999
6552,42.0,0.180439312499999,66.0,1.362480000000005
6553,30.0,0.24221866666667324,33.0,0.24221866666665903
6554,35.0,0.24221866666665903,34.0,0.24221866666667324
6555,39.0,0.24221866666667324,34.0,0.24221866666665903
6556,35.0,0.24221866666665903,33.0,0.24221866666667324
6557,30.0,0.24221866666667324,32.0,0.24221866666665903
6558,51.0,0.15138666666666722,59.0,0.09083199999999181
6559,49.0,0.09083199999999181,64.0,0.5355870000000067
6560,30.0,0.23803866666666806,33.0,0.23803866666666806
6561,34.0,0.23803866666666806,34.0,0.23803866666666806
6562,48.0,0.05950966666667057,57.0,0.1785289999999975
6563,49.0,0.1785289999999975,64.0,0.5430700000000002
6564,34.0,0.23803866666666806,33.0,0.24302733333333038
6565,30.0,0.24302733333333038,30.0,0.2480159999999927
6566,54.0,0.062004000000001724,62.0,0.18601199999999096
6567,47.0,0.18601199999999096,65.0,0.7020009999999957
6568,30.0,0.23400033333332715,30.0,0.23400033333334136
6569,35.0,0.23400033333334136,32.0,0.23400033333332715
6570,39.0,0.23400033333332715,33.0,0.23334683333334283
6571,35.0,0.23334683333334283,32.0,0.2370282499999945
6572,30.0,0.2370282499999945,30.0,0.24152683333332448
6573,49.0,0.24152683333332448,39.0,0.7474636666666612
6574,33.0,0.2450979999999987,20.0,0.2450979999999987
6575,37.0,0.2450979999999987,22.0,0.2572676666666638
6576,52.0,0.2572676666666638,44.0,0.24502925000000175
6577,51.0,0.24502925000000175,39.0,0.24961675000000128
6578,49.0,0.24961675000000128,39.0,0.25437391666667963
6579,47.0,0.25437391666667963,43.0,1.4084985833333405
6580,35.0,0.2418767083333364,22.0,0.24006212499999435
6581,39.0,0.24006212499999435,22.0,0.23809741666667605
6582,42.0,0.23809741666667605,23.0,0.2307963333333447
6583,39.0,0.2307963333333447,23.0,0.2288329999999945
6584,35.0,0.2288329999999945,22.0,0.2288329999999945
6585,49.0,0.2288329999999945,46.0,0.23375599999999963
6586,51.0,0.0705882000000031,42.0,0.07027859999999464
6587,49.0,0.07027859999999464,42.0,0.06976779999999394
6588,51.0,0.06976779999999394,44.0,0.06926452500000835
6589,35.0,0.023121400000007952,23.0,0.2292300833333485
6590,49.0,0.046143125000000396,42.0,0.06880129166667359
6591,47.0,0.06880129166667359,41.0,0.3428569999999951
6592,39.0,0.1142856666666745,25.0,0.22857133333332058
6593,52.0,0.22857133333332058,45.0,0.3428570000000093
6594,39.0,0.2285713333333348,26.0,0.23400316666666754
6595,54.0,0.1142856666666745,48.0,0.3591524999999933
6596,35.0,0.11971749999999304,25.0,0.2394350000000003
6597,56.0,0.2394350000000003,51.0,1.3884060000000034
6598,35.0,0.2314010000000053,28.0,0.23140099999999109
6599,40.0,0.23140099999999109,28.0,0.2314010000000053
6600,44.0,0.2314010000000053,29.0,0.2314010000000053
6601,40.0,0.2314010000000053,30.0,0.23140099999999109
6602,35.0,0.23140099999999109,28.0,0.2314010000000053
6603,59.0,0.2314010000000053,56.0,1.3771474999999924
6604,35.0,0.22758299999999565,28.0,0.22758300000000986
6605,44.0,0.22758300000000986,29.0,0.22758299999998144
6606,47.0,0.22758299999998144,49.0,0.6943985000000055
6607,44.0,0.22758300000000986,30.0,0.23146616666664954
6608,35.0,0.23146616666664954,29.0,0.23534933333334607
6609,57.0,0.23534933333334607,53.0,0.7060479999999814
6610,42.0,0.23534933333331765,26.0,0.23534933333334607
6611,35.0,0.23534933333334607,26.0,0.23534933333331765
6612,56.0,0.23534933333331765,51.0,0.6980800000000045
6613,40.0,0.2326933333333443,26.0,0.23269333333331588
6614,35.0,0.24221866666667324,34.0,0.24221866666664482
6615,39.0,0.24221866666664482,34.0,0.24221866666667324
6616,35.0,0.24221866666667324,33.0,0.24221866666667324
6617,30.0,0.24221866666667324,32.0,0.24221866666667324
6618,51.0,0.15138666666666722,59.0,0.09083200000000602
6619,49.0,0.09083200000000602,64.0,0.5355869999999925
6620,30.0,0.23803866666665385,33.0,0.23803866666668227
6621,34.0,0.23803866666668227,34.0,0.23803866666665385
6622,48.0,0.05950966666665636,57.0,0.1785289999999975
6623,49.0,0.1785289999999975,64.0,0.5430700000000286
6624,34.0,0.23803866666668227,33.0,0.2430273333333446
6625,30.0,0.2430273333333446,30.0,0.2480160000000069
6626,54.0,0.062004000000001724,62.0,0.18601200000000517
6627,47.0,0.18601200000000517,65.0,0.7020009999999957
6628,30.0,0.23400033333334136,30.0,0.23400033333331294
6629,35.0,0.23400033333331294,32.0,0.23400033333334136
6630,39.0,0.23400033333334136,33.0,0.23334683333334283
6631,35.0,0.23334683333334283,32.0,0.2370282500000087
6632,30.0,0.2370282500000087,30.0,0.24152683333332448
6633,49.0,0.24152683333332448,39.0,0.7474636666666754
6634,33.0,0.24509800000001292,20.0,0.2450979999999845
6635,37.0,0.2450979999999845,22.0,0.257267666666678
6636,52.0,0.257267666666678,44.0,0.24509800000001292
6637,51.0,0.24509800000001292,39.0,0.2450979999999845
6638,49.0,0.2450979999999845,39.0,0.24509800000001292
6639,47.0,0.24509800000001292,43.0,1.4063181583333346
6640,30.0,0.23969628333333048,22.0,0.24006212500000856
6641,35.0,0.24006212500000856,22.0,0.23809741666667605
6642,39.0,0.23809741666667605,23.0,0.2307963333333305
6643,35.0,0.2307963333333305,23.0,0.2288329999999803
6644,30.0,0.2288329999999803,22.0,0.22883300000000872
6645,49.0,0.22883300000000872,47.0,0.23461408333332656
6646,51.0,0.07093628333331026,43.0,0.07045060000001513
6647,49.0,0.07045060000001513,43.0,0.0699713999999858
6648,51.0,0.0699713999999858,43.0,0.06949860000000285
6649,35.0,0.02325580000001537,23.0,0.22956041666665783
6650,49.0,0.04624279999998748,43.0,0.06903195000001006
6651,47.0,0.06903195000001006,45.0,0.3428570000000093
6652,39.0,0.11428566666666029,25.0,0.228571333333349
6653,52.0,0.228571333333349,45.0,0.34285699999998087
6654,39.0,0.22857133333332058,26.0,0.23400316666666754
6655,54.0,0.11428566666666029,48.0,0.3591524999999933
6656,37.0,0.11971750000000725,25.0,0.23943499999998608
6657,56.0,0.23943499999998608,51.0,1.3884060000000034
6658,35.0,0.2314010000000053,28.0,0.2314010000000053
6659,40.0,0.2314010000000053,28.0,0.23140099999997688
6660,44.0,0.23140099999997688,29.0,0.2314010000000053
6661,40.0,0.2314010000000053,30.0,0.2314010000000053
6662,35.0,0.2314010000000053,28.0,0.2314010000000053
6663,59.0,0.2314010000000053,56.0,1.3771475000000066
6664,35.0,0.22758300000000986,28.0,0.22758299999998144
6665,44.0,0.22758299999998144,29.0,0.22758300000000986
6666,47.0,0.22758300000000986,49.0,0.6943985000000055
6667,44.0,0.22758300000000986,30.0,0.23146616666664954
6668,35.0,0.23146616666664954,29.0,0.23534933333334607
6669,57.0,0.23534933333334607,53.0,0.7060479999999814
6670,42.0,0.23534933333331765,26.0,0.23534933333334607
6671,35.0,0.23534933333334607,26.0,0.23534933333331765
6672,56.0,0.23534933333331765,51.0,0.6980800000000045
6673,40.0,0.2326933333333443,26.0,0.23269333333331588
6674,35.0,0.23269333333331588,26.0,0.2326933333333443
6675,54.0,0.2326933333333443,49.0,0.3451844999999878
6676,39.0,0.23012299999999186,23.0,0.23340466666667226
6677,56.0,0.11506149999999593,47.0,0.08875737500000014
6678,54.0,0.08875737500000014,47.0,0.08875737500000014
6679,35.0,0.029585791666676187,23.0,0.23668633333332423
6680,52.0,0.05917158333332395,47.0,0.08875737500000014
6681,54.0,0.08875737500000014,47.0,0.08875737500000014
6682,56.0,0.08875737500000014,51.0,0.35502950000000055
6683,35.0,0.23668633333332423,24.0,0.24573166666667134
6684,52.0,0.11834316666667632,47.0,0.3821655000000135
6685,32.0,0.12738849999999502,24.0,0.25477700000001846
6686,47.0,0.25477700000001846,48.0,1.4392440000000022
6687,30.0,0.24096399999999107,27.0,0.2409640000000195
6688,35.0,0.2409640000000195,27.0,0.24096399999999107
6689,39.0,0.24096399999999107,28.0,0.23534933333334607
6690,35.0,0.23534933333334607,27.0,0.23878399999998123
6691,30.0,0.23878399999998123,27.0,0.24221866666667324
6692,49.0,0.24221866666667324,48.0,2.8402360000000044
6693,33.0,0.23668633333332423,27.0,0.23668633333335265
6694,37.0,0.23668633333335265,28.0,0.23668633333332423
6695,40.0,0.23668633333332423,29.0,0.23668633333332423
6696,37.0,0.23668633333332423,28.0,0.23668633333335265
6697,33.0,0.23668633333335265,28.0,0.23668633333332423
6698,25.0,0.23668633333332423,27.0,0.23668633333332423
6699,32.0,0.23668633333332423,27.0,0.23668633333335265
6700,37.0,0.23668633333335265,28.0,0.23668633333332423
6701,41.0,0.23668633333332423,28.0,0.23668633333332423
6702,37.0,0.23668633333332423,28.0,0.23668633333335265
6703,32.0,0.23668633333335265,27.0,0.23668633333332423
6704,50.0,0.23668633333332423,48.0,0.23461408333332656
6705,52.0,0.07093628333331026,42.0,0.07045060000001513
6706,50.0,0.07045060000001513,43.0,0.0699713999999858
6707,52.0,0.0699713999999858,42.0,0.06949860000000285
6708,37.0,0.02325580000001537,29.0,0.22939620833332697
6709,50.0,0.04624279999998748,42.0,0.0688677416666792
6710,49.0,0.0688677416666792,45.0,0.3428570000000093
6711,41.0,0.11428566666666029,30.0,0.228571333333349
6712,54.0,0.228571333333349,45.0,0.34285699999998087
6713,41.0,0.22857133333332058,31.0,0.23400316666666754
6714,56.0,0.11428566666666029,48.0,0.3591524999999933
6715,37.0,0.11971750000000725,29.0,0.23943499999998608
6716,57.0,0.23943499999998608,51.0,0.6942029999999875
6717,45.0,0.2314010000000053,31.0,0.2314010000000053
6718,37.0,0.2314010000000053,28.0,0.23140099999997688
6719,56.0,0.23140099999997688,47.0,0.6942030000000159
6720,44.0,0.2314010000000053,28.0,0.2314010000000053
6721,36.0,0.2314010000000053,28.0,0.2314010000000053
6722,54.0,0.2314010000000053,49.0,0.6827490000000012
6723,42.0,0.22758300000000986,25.0,0.22758299999998144
6724,37.0,0.22758299999998144,25.0,0.22758300000000986
6725,56.0,0.22758300000000986,45.0,0.7050110000000132
6726,45.0,0.22758300000000986,27.0,0.23500366666667105
6727,39.0,0.23500366666667105,27.0,0.24242433333333224
6728,52.0,0.24242433333333224,43.0,1.0909094999999809
6729,35.0,0.24242433333333224,23.0,0.24242433333333224
6730,40.0,0.24242433333333224,26.0,0.24242433333333224
6731,44.0,0.24242433333333224,27.0,0.24242433333333224
6732,40.0,0.24242433333333224,26.0,0.2601009999999917
6733,46.0,0.12121216666665191,44.0,0.10416662500000484
6734,47.0,0.10416662500000484,40.0,0.10416662500000484
6735,35.0,0.03472220833333495,23.0,0.27777766666665116
6736,49.0,0.0694444166666699,40.0,0.10416662499997642
6737,47.0,0.10416662499997642,40.0,0.10416662500000484
6738,56.0,0.10416662500000484,45.0,1.1320755000000133
6739,35.0,0.2515723333333426,24.0,0.2515723333333142
6740,39.0,0.2515723333333142,26.0,0.2515723333333426
6741,45.0,0.2515723333333426,27.0,0.2515723333333426
6742,39.0,0.2515723333333426,26.0,0.2627725000000112
6743,54.0,0.1257861666666713,44.0,0.4109589999999912
6744,35.0,0.13698633333333987,23.0,0.2739726666666513
6745,54.0,0.2739726666666513,44.0,3.1203319999999906
6746,35.0,0.25641033333332075,21.0,0.25641033333334917
6747,39.0,0.25641033333334917,22.0,0.25641033333332075
6748,45.0,0.25641033333332075,24.0,0.25641033333334917
6749,39.0,0.25641033333334917,22.0,0.25641033333332075
6750,35.0,0.25641033333332075,22.0,0.2560019999999952
6751,28.0,0.2560019999999952,20.0,0.2555936666666696
6752,35.0,0.2555936666666696,21.0,0.2589025000000049
6753,39.0,0.2589025000000049,22.0,0.26229799999998704
6754,45.0,0.26229799999998704,22.0,0.26490650000002347
6755,39.0,0.26490650000002347,22.0,0.26846241666666515
6756,35.0,0.26846241666666515,21.0,0.2721152499999846
6757,28.0,0.2721152499999846,22.0,0.1177337499999851
6758,47.0,0.0883219999999767,37.0,0.08849608333332526
6759,35.0,0.029411750000008396,25.0,0.11843149999998559
6760,48.0,0.05908433333331686,41.0,0.08902075000000309
6761,40.0,0.05934716666666873,28.0,0.11816966666665962
6762,47.0,0.029673583333334363,38.0,0.08849608333332526
6763,46.0,0.08849608333332526,39.0,0.1173044999999604
6764,47.0,0.08780599999997207,40.0,0.08858283333333361
6765,40.0,0.029498499999988326,28.0,0.11843150000001401
6766,52.0,0.059084333333345285,42.0,0.08902075000000309
6767,35.0,0.05934716666666873,27.0,0.11843149999998559
6768,55.0,0.029673583333334363,43.0,0.08875791666665123
6769,54.0,0.08875791666665123,45.0,0.11747449999998594
6770,52.0,0.08806275000000596,43.0,0.0887589166666487
6771,35.0,0.029411749999979975,28.0,0.11869433333333745
6772,54.0,0.05934716666666873,45.0,0.08884566666665705
6773,40.0,0.05934716666666873,30.0,0.1186086666666597
6774,52.0,0.029498499999988326,43.0,0.08911016666667138
6775,51.0,0.08911016666667138,44.0,0.11904924999998912
6776,52.0,0.08946341666666058,46.0,0.08858283333333361
6777,40.0,0.029585833333328537,28.0,0.11799400000001015
6778,55.0,0.05899700000000507,49.0,0.0884954999999934
6779,35.0,0.05899700000000507,27.0,0.13451849999998444
6780,59.0,0.029498499999988326,47.0,0.10501999999999612
6781,28.0,0.10501999999999612,27.0,0.13063650000000848
6782,47.0,0.10090825000000336,45.0,0.08881258333332198
6783,35.0,0.02972825000000512,30.0,0.11782158333332404
6784,48.0,0.05908433333331686,49.0,0.08806275000000596
6785,40.0,0.05873725000000718,34.0,0.11799608333333822
6786,47.0,0.029325499999998783,45.0,0.08867058333333944
6787,46.0,0.08867058333333944,46.0,0.11825641666666797
6788,47.0,0.08875791666665123,48.0,0.08867058333333944
6789,40.0,0.029498500000016747,34.0,0.11869591666666679
6790,52.0,0.05917208333332269,50.0,0.08910966666667264
6791,35.0,0.0595238333333441,33.0,0.11773533333331443
6792,55.0,0.029585833333328537,51.0,0.08814949999998589
6793,54.0,0.08814949999998589,54.0,0.117994583333342
6794,52.0,0.08840875000001347,51.0,0.08875791666665123
6795,35.0,0.029585833333328537,33.0,0.11808233333334783
6796,54.0,0.05917208333332269,53.0,0.08823575000002393
6797,40.0,0.058910250000025144,36.0,0.11730199999999513
6798,52.0,0.029325499999998783,51.0,0.08797649999999635
6799,51.0,0.08797649999999635,52.0,0.11764800000000264
6800,52.0,0.08814949999998589,54.0,0.08867016666667382
6801,40.0,0.029498500000016747,34.0,0.11834333333334257
6802,55.0,0.059171666666657075,57.0,0.08875750000001403
6803,35.0,0.059171666666685496,32.0,0.13424683333332155
6804,59.0,0.029585833333328537,55.0,0.10466099999999301
6805,30.0,0.10466099999999301,31.0,0.13143158333335236
6806,48.0,0.10124200000001338,56.0,0.09047608333335688
6807,36.0,0.030189583333338987,35.0,0.12029250000000502
6808,52.0,0.060286500000017895,58.0,0.08991749999998433
6809,40.0,0.060005999999987125,39.0,0.1193699166666704
6810,54.0,0.029911499999997204,60.0,0.0894584166666732
6811,57.0,0.0894584166666732,63.0,0.11946033333333617
6812,60.0,0.08964166666666529,63.0,0.08936558333334688
6813,40.0,0.02981866666667088,39.0,0.11900341666665781
6814,64.0,0.059546916666676,66.0,0.08909316666665745
6815,36.0,0.059456499999981816,37.0,0.11845733333333897
6816,66.0,0.029636666666675637,72.0,0.08882066666666333
6817,74.0,0.08882066666666333,76.0,0.11735233333331507
6818,72.0,0.08811258333329874,75.0,0.08771925000002057
6819,40.0,0.02923975000001633,40.0,0.11721675000001142
6820,71.0,0.058479500000004236,70.0,0.0882357499999955
6821,42.0,0.05873725000000718,44.0,0.1180819166666538
6822,69.0,0.029498499999988326,69.0,0.08858341666666547
6823,67.0,0.08858341666666547,68.0,0.11730349999999135
6824,66.0,0.08780500000000302,67.0,0.08875791666665123
6825,42.0,0.029498499999988326,44.0,0.11843149999998559
6826,69.0,0.0592594166666629,66.0,0.08858383333333109
6827,40.0,0.05917208333332269,41.0,0.11704625000001556
6828,64.0,0.029411750000008396,67.0,0.08763450000000716
6829,63.0,0.08763450000000716,68.0,0.11791550000000939
6830,66.0,0.08815358333333734,63.0,0.08841341666666835
6831,30.0,0.02976191666667205,35.0,0.11704575000001682
6832,60.0,0.058651499999996304,63.0,0.08780600000002892
6833,33.0,0.05839425000002052,38.0,0.11799516666664545
6834,59.0,0.029411750000008396,63.0,0.08858341666663705
6835,57.0,0.08858341666663705,60.0,0.11808191666668222
6836,60.0,0.08867016666667382,58.0,0.08806275000000596
6837,33.0,0.029411750000008396,36.0,0.11747449999998594
6838,55.0,0.058650999999997566,54.0,0.0883219999999767
6839,30.0,0.05882349999998837,34.0,0.11782049999999344
6840,54.0,0.029498499999988326,54.0,0.08832200000000512
6841,57.0,0.08832200000000512,53.0,0.117923083333352
6842,52.0,0.08837575000001152,48.0,0.08873133333332817
6843,30.0,0.029547333333340475,31.0,0.11845733333331054
6844,51.0,0.05918399999998769,48.0,0.08900158333332797
6845,33.0,0.05927333333332285,33.0,0.11927816666667468
6846,54.0,0.02972825000000512,47.0,0.08954991666666956
6847,48.0,0.08954991666666956,45.0,0.122082666666671
6848,47.0,0.09122608333333915,42.0,0.09316250000000537
6849,33.0,0.030856583333331855,29.0,0.12562374999998838
6850,50.0,0.06230591666667351,42.0,0.09507999999999583
6851,30.0,0.06331783333331487,26.0,0.146073916666694
6852,48.0,0.03176216666668097,41.0,0.20303700000002323
6853,28.0,0.11431175000001303,22.0,0.11813700000001859
6854,47.0,0.08872525000001019,37.0,0.08806324999997628
6855,35.0,0.029411750000008396,25.0,0.11721774999998047
6856,48.0,0.05865149999996788,41.0,0.08823983333334695
6857,40.0,0.05856625000001259,28.0,0.11878266666667514
6858,47.0,0.029673583333334363,38.0,0.08910908333334078
6859,46.0,0.08910908333334078,39.0,0.1177337499999851
6860,47.0,0.0883219999999767,40.0,0.08823525000002519
6861,40.0,0.029411750000008396,28.0,0.11782050000002187
6862,52.0,0.05882350000001679,42.0,0.08858283333333361
6863,35.0,0.05899700000000507,27.0,0.118783250000007
6864,55.0,0.029585833333328537,43.0,0.08919741666667846
6865,54.0,0.08919741666667846,45.0,0.11825641666666797
6866,52.0,0.08875791666665123,43.0,0.08806375000000344
6867,35.0,0.029498500000016747,28.0,0.11721624999998426
6868,54.0,0.05856524999998669,45.0,0.08806275000000596
6869,40.0,0.058650999999997566,30.0,0.1181706666666571
6870,52.0,0.029411750000008396,43.0,0.0887589166666487
6871,51.0,0.0887589166666487,44.0,0.11782158333332404
6872,52.0,0.08849608333332526,46.0,0.08849716666665586
6873,40.0,0.029325499999998783,28.0,0.11834333333334257
6874,55.0,0.059171666666657075,49.0,0.08875750000001403
6875,35.0,0.059171666666685496,27.0,0.13604433333333077
6876,59.0,0.029585833333328537,47.0,0.10645850000000223
6877,28.0,0.10645850000000223,27.0,0.13063650000000848
6878,47.0,0.10090825000000336,45.0,0.08907541666667385
6879,35.0,0.02972825000000512,30.0,0.11843149999998559
6880,49.0,0.05934716666666873,49.0,0.08840983333331565
6881,37.0,0.05908433333331686,34.0,0.11738825000000475
6882,47.0,0.029325499999998783,45.0,0.08806275000000596
6883,46.0,0.08806275000000596,46.0,0.11887358333331122
6884,47.0,0.08919999999997685,48.0,0.08884524999999144
6885,37.0,0.029673583333334363,34.0,0.11816866666666215
6886,52.0,0.059171666666657075,50.0,0.08840875000001347
6887,35.0,0.05899700000000507,33.0,0.1177337499999851
6888,55.0,0.029411750000008396,51.0,0.0883219999999767
6889,54.0,0.0883219999999767,54.0,0.1188731666666456
6890,52.0,0.08902241666666555,51.0,0.08911016666664295
6891,35.0,0.029850749999980053,33.0,0.11816966666665962
6892,54.0,0.0592594166666629,53.0,0.0882357499999955
6893,37.0,0.05891024999999672,36.0,0.11808341666665001
6894,52.0,0.029325499999998783,51.0,0.08875791666665123
6895,51.0,0.08875791666665123,52.0,0.11869433333333745
6896,52.0,0.08902075000000309,54.0,0.08875791666665123
6897,37.0,0.029673583333334363,34.0,0.11808133333332194
6898,55.0,0.05908433333331686,57.0,0.08849550000002182
6899,35.0,0.05899700000000507,32.0,0.13595700000001898
6900,59.0,0.029498500000016747,55.0,0.10645850000000223
6901,50.0,0.06868600000001379,65.0,0.10291849999998703
6902,36.0,0.06868599999998537,48.0,0.13760641666667084
6903,54.0,0.034232500000001664,65.0,0.10337391666666917
6904,45.0,0.10337391666666917,78.0,0.14104508333332433
6905,57.0,0.1055488333333301,65.0,0.10709124999999631
6906,36.0,0.035496249999994234,47.0,0.14429666666666208
6907,50.0,0.07159500000000207,65.0,0.10994558333331383
6908,30.0,0.07270166666666,45.0,0.15266874999997526
6909,54.0,0.03724391666665383,65.0,0.11542483333332143
6910,48.0,0.11542483333332143,79.0,0.14046033333332275
6911,60.0,0.10520191666665824,66.0,0.10589249999998174
6912,26.0,0.035258416666664516,46.0,0.1416265833333057
6913,50.0,0.07063408333331722,66.0,0.10661008333332234
6914,31.0,0.07099249999998847,48.0,0.14294983333331857
6915,55.0,0.03561758333333387,66.0,0.1073322499999847
6916,47.0,0.1073322499999847,77.0,0.1440380833333279
6917,59.0,0.10793699999999262,67.0,0.10842883333333475
6918,31.0,0.03610108333333528,46.0,0.14478108333332784
6919,50.0,0.07232774999999947,66.0,0.10880374999999276
6920,26.0,0.07245333333332837,45.0,0.1449158333333287
6921,55.0,0.03635041666666439,65.0,0.1085654166666643
6922,47.0,0.1085654166666643,52.0,0.13562066666665373
6923,59.0,0.10171550000001162,57.0,0.1017154999999832
6924,28.0,0.03390516666664212,33.0,0.13562066666668215
6925,51.0,0.06781033333334108,47.0,0.10160550000000512
6926,33.0,0.06781033333334108,34.0,0.13518066666665618
6927,52.0,0.033795166666664045,47.0,0.10138549999999213
6928,45.0,0.10138549999999213,49.0,0.1351806666666846
6929,57.0,0.10138550000002056,54.0,0.10116700000000378
6930,33.0,0.033795166666664045,34.0,0.13474366666667947
6931,51.0,0.06737183333333974,48.0,0.1010577499999954
6932,28.0,0.06737183333333974,34.0,0.1346373333333304
6933,52.0,0.03368591666665566,48.0,0.10095141666667473
6934,44.0,0.10095141666667473,51.0,0.13431833333333998
6935,56.0,0.10073875000000498,56.0,0.10084508333332565
6936,28.0,0.033579583333334995,34.0,0.1346373333333304
6937,51.0,0.06726549999999065,50.0,0.10105775000002382
6938,33.0,0.06737183333333974,36.0,0.13496216666666783
6939,52.0,0.03368591666668408,50.0,0.10127624999998375
6940,45.0,0.10127624999998375,53.0,0.13529066666666267
6941,57.0,0.10138549999999213,58.0,0.10203916666665691
6942,33.0,0.03390516666667054,35.0,0.1368230833333257
6943,51.0,0.06813399999998637,51.0,0.10326008333333903
6944,28.0,0.06868908333333934,34.0,0.1390757500000177
6945,52.0,0.034570999999999685,51.0,0.10450475000001802
6946,40.0,0.10450475000001802,55.0,0.13716916666666634
6947,52.0,0.1033740000000023,60.0,0.1010642500000074
6948,33.0,0.033795166666664045,37.0,0.1346409166666831
6949,45.0,0.06726908333334336,52.0,0.1010577499999954
6950,36.0,0.06737183333333974,38.0,0.13474366666665105
6951,48.0,0.03368591666665566,53.0,0.1010577499999954
6952,42.0,0.1010577499999954,55.0,0.13474366666667947
6953,54.0,0.1010577499999954,62.0,0.10105775000002382
6954,36.0,0.03368591666668408,38.0,0.13474366666665105
6955,45.0,0.06737183333333974,54.0,0.10095141666664631
6956,33.0,0.06737183333331132,38.0,0.13431833333333998
6957,48.0,0.033579583333334995,54.0,0.10073875000000498
6958,43.0,0.10073875000000498,57.0,0.1346373333333304
6959,55.0,0.10095141666667473,65.0,0.10116700000000378
6960,26.0,0.03368591666665566,39.0,0.13507141666667621
6961,47.0,0.06748108333334812,56.0,0.10138549999999213
6962,31.0,0.06759033333332809,40.0,0.13551066666667566
6963,50.0,0.033795166666664045,56.0,0.10171550000001162
6964,47.0,0.10171550000001162,60.0,0.13605049999998187
6965,59.0,0.10192783333332045,68.0,0.10269816666666998
6966,31.0,0.034122666666661416,40.0,0.13760308333334592
6967,50.0,0.06857550000000856,57.0,0.10370883333334291
6968,26.0,0.06902758333333736,39.0,0.13782750000001442
6969,55.0,0.03468125000000555,58.0,0.10314625000000888
6970,47.0,0.10314625000000888,62.0,0.13671033333332616
6971,59.0,0.10258766666666475,68.0,0.10225666666667621
6972,28.0,0.034122666666661416,42.0,0.13615666666669313
6973,51.0,0.0681340000000148,59.0,0.10192783333334887
6974,33.0,0.06802266666667833,43.0,0.13562066666665373
6975,52.0,0.03390516666667054,59.0,0.1017154999999832
6976,45.0,0.1017154999999832,62.0,0.1350714166666478
6977,57.0,0.10138549999999213,70.0,0.1010577499999954
6978,33.0,0.03368591666665566,43.0,0.13453100000000973
6979,51.0,0.06737183333333974,61.0,0.10073875000000498
6980,28.0,0.06715916666666999,42.0,0.13400133333334452
6981,52.0,0.033579583333334995,61.0,0.10042175000000952
6982,54.0,0.10042175000000952,64.0,0.1345316666666463
6983,66.0,0.10084574999999063,73.0,0.10116700000000378
6984,30.0,0.03368591666665566,44.0,0.13507141666667621
6985,57.0,0.06748108333334812,62.0,0.10138549999999213
6986,33.0,0.06759033333332809,45.0,0.13551066666667566
6987,60.0,0.033795166666664045,62.0,0.10171550000001162
6988,52.0,0.10171550000001162,66.0,0.13605049999998187
6989,64.0,0.10192783333332045,74.0,0.10269816666666998
6990,33.0,0.034122666666661416,44.0,0.13760308333334592
6991,57.0,0.06857550000000856,62.0,0.10370883333334291
6992,30.0,0.06902758333333736,42.0,0.1382762499999899
6993,60.0,0.03468125000000555,62.0,0.10359499999998434
6994,52.0,0.10359499999998434,64.0,0.1368201666666664
6995,64.0,0.102697500000005,73.0,0.10236800000001267
6996,30.0,0.034122666666661416,44.0,0.13637933333333763
6997,54.0,0.06824533333335125,61.0,0.10214533333333975
6998,33.0,0.06813399999998637,45.0,0.13593916666667383
6999,57.0,0.03401133333335338,61.0,0.10192783333332045
7000,51.0,0.10192783333332045,64.0,0.13540066666666917
7001,63.0,0.10160550000000512,71.0,0.10138549999999213
7002,33.0,0.033795166666664045,42.0,0.13496216666666783
7003,54.0,0.06759033333332809,60.0,0.1010577499999954
7004,30.0,0.06737183333333974,40.0,0.13453100000000973
7005,57.0,0.03368591666665566,59.0,0.10084508333335407
7006,51.0,0.10084508333335407,60.0,0.13400133333334452
7007,63.0,0.10042175000000952,69.0,0.10073875000000498
7008,30.0,0.033579583333334995,41.0,0.13453100000000973
7009,54.0,0.06715916666666999,58.0,0.1010577499999954
7010,33.0,0.06737183333333974,42.0,0.1350714166666478
7011,57.0,0.03368591666665566,58.0,0.10138549999999213
7012,51.0,0.10138549999999213,61.0,0.13572683333333657
7013,63.0,0.10171550000001162,68.0,0.10203400000000329
7014,33.0,0.034011333333324956,39.0,0.13626800000000117
7015,54.0,0.06802266666667833,57.0,0.10236800000001267
7016,30.0,0.06824533333332283,38.0,0.13682016666669483
7017,57.0,0.03412266666668984,56.0,0.102697500000005
7018,51.0,0.102697500000005,57.0,0.13709983333333753
7019,63.0,0.10297716666667611,65.0,0.10236799999998425
7020,30.0,0.034122666666661416,39.0,0.1363793333333092
7021,54.0,0.06824533333332283,55.0,0.10214533333333975
7022,33.0,0.06813399999998637,40.0,0.13593916666667383
7023,57.0,0.03401133333335338,55.0,0.10192783333332045
7024,50.0,0.10192783333332045,58.0,0.13540066666666917
7025,62.0,0.10160550000000512,64.0,0.10138549999999213
7026,33.0,0.033795166666664045,38.0,0.13496216666666783
7027,54.0,0.06759033333332809,53.0,0.1010577499999954
7028,30.0,0.06737183333333974,36.0,0.13453100000000973
7029,57.0,0.03368591666665566,53.0,0.10084508333335407
7030,50.0,0.10084508333335407,54.0,0.13400133333334452
7031,62.0,0.10042175000000952,62.0,0.10073875000000498
7032,30.0,0.033579583333334995,37.0,0.13453100000000973
7033,54.0,0.06715916666666999,52.0,0.1010577499999954
7034,33.0,0.06737183333333974,38.0,0.1350714166666478
7035,57.0,0.03368591666665566,52.0,0.10138549999999213
7036,49.0,0.10138549999999213,54.0,0.13572683333333657
7037,61.0,0.10171550000001162,60.0,0.10203400000000329
7038,33.0,0.034011333333324956,35.0,0.13626800000000117
7039,54.0,0.06802266666667833,50.0,0.10236800000001267
7040,30.0,0.06824533333332283,34.0,0.13682016666669483
7041,57.0,0.03412266666668984,50.0,0.102697500000005
7042,49.0,0.102697500000005,55.0,0.13732616666666786
7043,61.0,0.10832189999999287,49.0,0.10236800000001267
7044,30.0,0.029004266666674994,34.0,0.1363793333333092
7045,54.0,0.06824533333332283,48.0,0.10214533333333975
7046,33.0,0.06813399999998637,35.0,0.13593916666667383
7047,57.0,0.03401133333335338,48.0,0.10192783333332045
7048,48.0,0.10192783333332045,53.0,0.13540066666666917
7049,60.0,0.1066747750000161,48.0,0.10136911249998093
7050,33.0,0.02872589166665307,34.0,0.13496216666666783
7051,54.0,0.06759033333332809,47.0,0.1010577499999954
7052,30.0,0.06737183333333974,32.0,0.13453100000000973
7053,57.0,0.03368591666665566,47.0,0.10084508333335407
7054,48.0,0.10084508333335407,52.0,0.13400133333334452
7055,60.0,0.10042175000000952,49.0,0.10073875000000498
7056,30.0,0.033579583333334995,33.0,0.13453100000000973
7057,54.0,0.06715916666666999,45.0,0.1010577499999954
7058,33.0,0.06737183333333974,33.0,0.13502358333332154
7059,57.0,0.03368591666665566,45.0,0.10133766666666588
7060,48.0,0.10133766666666588,51.0,0.13678308333334144
7061,60.0,0.10224550000000932,47.0,0.10407699999998954
7062,33.0,0.03453758333333212,31.0,0.1400297499999965
7063,54.0,0.06953941666665742,44.0,0.10610033333333035
7064,30.0,0.0704903333333391,29.0,0.1435582499999839
7065,57.0,0.03560999999999126,44.0,0.10794824999999264
7066,51.0,0.10794824999999264,52.0,0.14468166666665638
7067,63.0,0.11399128333331987,47.0,0.10803182500001185
7068,30.0,0.030690383333336513,29.0,0.14367350000000556
7069,54.0,0.07196316666667713,47.0,0.10744249999999056
7070,33.0,0.07171033333332844,30.0,0.1426843333333352
7071,57.0,0.035732166666662124,47.0,0.10695216666667307
7072,50.0,0.10695216666667307,51.0,0.14170366666667178
7073,62.0,0.10633800000002225,46.0,0.10585266666666371
7074,33.0,0.03536566666664953,31.0,0.14073633333333646
7075,54.0,0.07048700000001418,46.0,0.10525599999999713
7076,30.0,0.07024933333332228,29.0,0.1397873333333166
7077,57.0,0.035006666666674846,46.0,0.10478066666664176
7078,50.0,0.10478066666664176,51.0,0.13931016666666096
7079,62.0,0.10442316666666329,48.0,0.10490033333331894
7080,30.0,0.03488699999999767,28.0,0.1403814999999895
7081,54.0,0.07001333333332127,45.0,0.10561166666667532
7082,33.0,0.07036816666666823,29.0,0.1414609999999925
7083,57.0,0.03524350000000709,45.0,0.10621749999998542
7084,49.0,0.10621749999998542,51.0,0.1426843333333352
7085,61.0,0.10695216666667307,47.0,0.1075689166666507
7086,33.0,0.035732166666662124,29.0,0.14392466666666337
7087,54.0,0.07183674999998857,44.0,0.10819425000002525
7088,30.0,0.0720879166666748,28.0,0.14583783333335987
7089,57.0,0.03610633333335045,44.0,0.10973150000000942
7090,49.0,0.10973150000000942,52.0,0.1466064999999901
7091,61.0,0.10998716666665587,46.0,0.10959600000001046
7092,30.0,0.036619333333334225,28.0,0.14582599999999957
7093,54.0,0.07297666666667624,46.0,0.10921033333332275
7094,33.0,0.07284933333332333,28.0,0.14519100000001117
7095,57.0,0.03636099999999942,45.0,0.10883000000001175
7096,48.0,0.10883000000001175,48.0,0.14455349999997225
7097,60.0,0.10844716666665022,43.0,0.10806949999999915
7098,33.0,0.03610633333332203,28.0,0.1437999166666657
7099,54.0,0.07196316666667713,42.0,0.10769191666665279
7100,30.0,0.07183674999998857,27.0,0.14317466666665268
7101,57.0,0.03585516666666422,42.0,0.10731949999998847
7102,48.0,0.10731949999998847,45.0,0.14343008333329976
7103,60.0,0.10732374999997774,42.0,0.10908666666665567
7104,30.0,0.03610633333332203,24.0,0.14674116666665782
7105,54.0,0.07298033333333365,39.0,0.11104091666666704
7106,33.0,0.07376083333332417,25.0,0.15034658333337347
7107,57.0,0.03728008333334287,39.0,0.1130665000000306
7108,47.0,0.1130665000000306,43.0,0.15385016666667184
7109,59.0,0.11502724999999714,39.0,0.11720541666667827
7110,33.0,0.0388229166666747,24.0,0.15782125000001201
7111,54.0,0.07838250000000357,36.0,0.11946433333335449
7112,30.0,0.07943875000000844,22.0,0.1616784166666605
7113,57.0,0.04002558333334605,36.0,0.12165283333331445
7114,28.0,0.12165283333331445,22.0,0.13191608333332283
7115,47.0,0.10224249999998847,37.0,0.08867266666666751
7116,35.0,0.029673583333334363,25.0,0.11747858333333738
7117,48.0,0.05899908333333315,41.0,0.08771924999999214
7118,40.0,0.058479500000004236,28.0,0.11897175000001425
7119,47.0,0.029239749999987907,38.0,0.08973200000002635
7120,46.0,0.08973200000002635,39.0,0.12021108333334496
7121,47.0,0.09027100000000132,40.0,0.08946441666668647
7122,40.0,0.029940083333343637,28.0,0.11834833333332995
7123,52.0,0.05952433333334284,42.0,0.08806374999997502
7124,35.0,0.05882399999998711,27.0,0.1175638333333211
7125,55.0,0.029239749999987907,43.0,0.08832408333333319
7126,54.0,0.08832408333333319,45.0,0.11834333333334257
7127,52.0,0.08875750000001403,43.0,0.08840983333331565
7128,35.0,0.029585833333328537,28.0,0.11756224999996334
7129,54.0,0.05882399999998711,45.0,0.08832408333330477
7130,40.0,0.05873824999997623,30.0,0.11869550000000118
7131,52.0,0.029585833333328537,43.0,0.08910966666667264
7132,51.0,0.08910966666667264,44.0,0.11790783333330523
7133,52.0,0.08840933333331691,46.0,0.0884954999999934
7134,40.0,0.029498499999988326,28.0,0.11816866666666215
7135,55.0,0.05899700000000507,49.0,0.08875750000001403
7136,35.0,0.059171666666657075,27.0,0.13944383333335963
7137,59.0,0.02958583333335696,47.0,0.10985800000000268
7138,28.0,0.10985800000000268,27.0,0.13063650000000848
7139,47.0,0.10090825000000336,45.0,0.08907541666667385
7140,35.0,0.02972825000000512,30.0,0.1183441666666738
7141,48.0,0.05934716666666873,49.0,0.0884954999999934
7142,40.0,0.05899700000000507,34.0,0.11654024999998569
7143,47.0,0.029498499999988326,45.0,0.08704174999999736
7144,46.0,0.08704174999999736,46.0,0.11887516666666897
7145,47.0,0.08902441666668892,48.0,0.08919849999998064
7146,40.0,0.029850749999980053,34.0,0.11799874999999815
7147,52.0,0.05934775000000059,50.0,0.08806275000000596
7148,35.0,0.058650999999997566,33.0,0.11799516666664545
7149,55.0,0.029411750000008396,51.0,0.08858341666663705
7150,54.0,0.08858341666663705,54.0,0.11764849999997296
7151,52.0,0.08814999999998463,51.0,0.08893399999999474
7152,35.0,0.029498499999988326,33.0,0.11922633333335853
7153,54.0,0.059435500000006414,53.0,0.08964158333336059
7154,40.0,0.05979083333335211,36.0,0.11817583333333914
7155,52.0,0.029850750000008475,51.0,0.08832508333333067
7156,51.0,0.08832508333333067,52.0,0.11730349999999135
7157,52.0,0.08780500000000302,54.0,0.0884954999999934
7158,40.0,0.029498499999988326,34.0,0.11799400000001015
7159,55.0,0.05899700000000507,57.0,0.0884954999999934
7160,35.0,0.05899700000000507,32.0,0.13706399999998098
7161,59.0,0.029498499999988326,55.0,0.10756549999999265
7162,30.0,0.10756549999999265,31.0,0.13109783333334235
7163,48.0,0.10090825000000336,56.0,0.09047608333335688
7164,36.0,0.030189583333338987,35.0,0.12029250000000502
7165,52.0,0.060286500000017895,59.0,0.08991749999998433
7166,40.0,0.060005999999987125,39.0,0.1193699166666704
7167,54.0,0.029911499999997204,62.0,0.0894584166666732
7168,57.0,0.0894584166666732,63.0,0.11946033333333617
7169,60.0,0.08964166666666529,66.0,0.08936558333334688
7170,40.0,0.02981866666667088,39.0,0.11900341666665781
7171,64.0,0.059546916666676,69.0,0.08909316666665745
7172,36.0,0.059456499999981816,37.0,0.11832175000000689
7173,66.0,0.029636666666675637,72.0,0.08868508333333125
7174,74.0,0.08868508333333125,75.0,0.11636375000000498
7175,72.0,0.0872940000000142,73.0,0.08763600000000338
7176,40.0,0.02906974999999079,40.0,0.11773833333333528
7177,71.0,0.05856625000001259,72.0,0.08875791666665123
7178,42.0,0.05917208333332269,44.0,0.11782158333332404
7179,69.0,0.029585833333328537,71.0,0.0882357499999955
7180,67.0,0.0882357499999955,71.0,0.1164489999999887
7181,66.0,0.08737924999999791,70.0,0.08797999999998751
7182,42.0,0.02906974999999079,44.0,0.1179072500000018
7183,69.0,0.05891024999999672,68.0,0.08849550000002182
7184,40.0,0.05899700000000507,41.0,0.11816908333332776
7185,64.0,0.029498500000016747,67.0,0.08867058333331101
7186,63.0,0.08867058333331101,68.0,0.11782158333332404
7187,66.0,0.0882357499999955,63.0,0.0886701666666454
7188,58.0,0.029911499999997204,58.0,0.0894584166666732
7189,59.0,0.0894584166666732,62.0,0.11946033333333617
7190,67.0,0.08964166666666529,71.0,0.08936558333334688
7191,40.0,0.02981866666667088,44.0,0.11900341666665781
7192,66.0,0.059546916666676,71.0,0.08909316666665745
7193,35.0,0.059456499999981816,42.0,0.11847745833333079
7194,65.0,0.029636666666675637,70.0,0.08884079166665515
7195,64.0,0.08884079166665515,69.0,0.1183503333333249
7196,63.0,0.08876275000000078,69.0,0.08880574999997748
7197,35.0,0.02958758333332412,41.0,0.11856533333332209
7198,62.0,0.05921816666665336,68.0,0.08902075000000309
7199,39.0,0.05934716666666873,45.0,0.11878091666667956
7200,61.0,0.029673583333334363,67.0,0.0891073333333452
7201,60.0,0.0891073333333452,67.0,0.11904066666664903
7202,59.0,0.08928050000000098,66.0,0.08940837499997656
7203,39.0,0.029760166666648047,44.0,0.1193390416666773
7204,58.0,0.05964820833332851,65.0,0.08953625000000898
7205,35.0,0.05969083333334879,41.0,0.11990904166665928
7206,57.0,0.029845416666660185,64.0,0.09006362499999909
7207,55.0,0.09006362499999909,69.0,0.12100229166668441
7208,57.0,0.09098487500000374,64.0,0.09013175000001183
7209,35.0,0.030017416666680674,39.0,0.12012033333331829
7210,55.0,0.06011433333333116,67.0,0.08991749999998433
7211,40.0,0.060005999999987125,43.0,0.1193699166666704
7212,54.0,0.029911499999997204,58.0,0.0894584166666732
7213,55.0,0.0894584166666732,62.0,0.11946033333333617
7214,67.0,0.08964166666666529,71.0,0.08936558333334688
7215,40.0,0.02981866666667088,44.0,0.11900341666665781
7216,66.0,0.059546916666676,71.0,0.08909316666665745
7217,35.0,0.059456499999981816,42.0,0.11845733333333897
7218,65.0,0.029636666666675637,70.0,0.08882066666666333
7219,64.0,0.08882066666666333,70.0,0.11776499999999146
7220,63.0,0.08826124999998797,71.0,0.08851125000001048
7221,40.0,0.029503750000003492,41.0,0.11818266666668364
7222,62.0,0.059007500000006985,71.0,0.08876275000000078
7223,42.0,0.05917516666667666,45.0,0.11886674999999514
7224,61.0,0.02958758333332412,72.0,0.08927916666667102
7225,60.0,0.08927916666667102,73.0,0.12025141666669015
7226,59.0,0.09005633333336505,74.0,0.09084908333332464
7227,42.0,0.0301950833333251,48.0,0.12166691666666907
7228,58.0,0.06065399999999954,75.0,0.09165583333333416
7229,40.0,0.061012916666669526,51.0,0.1230247499999848
7230,57.0,0.030642916666664632,76.0,0.09238183333332017
7231,59.0,0.09238183333332017,76.0,0.18494549999999776
7232,71.0,0.18494549999999776,85.0,0.0924727500000131
7233,70.0,0.0924727500000131,85.0,0.0924727500000131
7234,69.0,0.0924727500000131,84.0,0.08953625000000898
7235,68.0,0.08953625000000898,84.0,0.08953624999998056
7236,67.0,0.08953624999998056,83.0,0.08953625000000898
7237,66.0,0.08953625000000898,83.0,0.08953625000000898
7238,65.0,0.08953625000000898,82.0,0.3591739999999959
7239,64.0,0.08979350000001318,81.0,0.08979349999998476
7240,63.0,0.08979349999998476,81.0,0.08979350000001318
7241,62.0,0.08979350000001318,80.0,0.08979349999998476
7242,61.0,0.08979349999998476,80.0,0.0900522500000136
7243,60.0,0.0900522500000136,79.0,0.09005224999998518
7244,59.0,0.09005224999998518,79.0,0.0900522500000136
7245,58.0,0.0900522500000136,78.0,0.09014258333334624
7246,57.0,0.09014258333334624,77.0,0.09032324999998309
7247,56.0,0.09032324999998309,77.0,0.09032325000001151
7248,55.0,0.09032325000001151,77.0,0.09032324999998309
7249,54.0,0.09032324999998309,77.0,0.09032325000001151
7250,53.0,0.09032325000001151,77.0,0.09032325000001151
7251,52.0,0.09032325000001151,77.0,0.09032324999998309
7252,51.0,0.09032324999998309,77.0,0.09032325000001151
7253,50.0,0.09032325000001151,77.0,0.09032324999998309
7254,49.0,0.09032324999998309,77.0,0.09032325000001151
7255,48.0,0.09032325000001151,80.0,0.09032324999998309
7256,47.0,0.09032324999998309,83.0,0.09032325000001151
7257,46.0,0.09032325000001151,85.0,0.0904105833333233
7258,45.0,0.0904105833333233,87.0,0.09084908333335306
7259,43.0,0.09084908333335306,89.0,0.09165583333333416
7260,42.0,0.09165583333333416,92.0,0.09247333333331653
7261,40.0,0.09247333333331653,94.0,0.093313083333328
7262,35.0,0.093313083333328,96.0,0.09897724999999014
7263,72.0,0.39590899999998896,90.0,0.39224983333335217
7264,71.0,0.0986624166666843,81.0,0.09803274999998735
7265,79.0,0.09803274999998735,77.0,0.09782841666665831
7266,67.0,0.09782841666665831,77.0,0.09772625000002222
7267,69.0,0.09772625000002222,90.0,0.3887749166666765
7268,67.0,0.09742149999999583,77.0,0.09732058333335658
7269,76.0,0.09732058333335658,77.0,0.09711874999999281
7270,64.0,0.09711874999999281,77.0,0.09691408333333129
7271,66.0,0.09691408333333129,89.0,0.38593491666665614
7272,64.0,0.09681175000000053,77.0,0.09650650000000383
7273,71.0,0.09650650000000383,77.0,0.09640741666666486
7274,59.0,0.09640741666666486,77.0,0.09620924999998692
7275,60.0,0.09620924999998692,89.0,0.3789549999999906
7276,59.0,0.09473875000000476,77.0,0.09473875000000476
7277,67.0,0.09473875000000476,77.0,0.09473874999997633
7278,55.0,0.09473874999997633,77.0,0.09473875000000476
7279,57.0,0.09473875000000476,88.0,0.378955000000019
7280,55.0,0.09473875000000476,77.0,0.09473875000000476
7281,64.0,0.09473875000000476,77.0,0.09473875000000476
7282,52.0,0.09473875000000476,77.0,0.09473875000000476
7283,54.0,0.09473875000000476,89.0,0.3789549999999906
7284,52.0,0.09473874999997633,77.0,0.09473875000000476
7285,59.0,0.09473875000000476,77.0,0.09473875000000476
7286,47.0,0.09473875000000476,77.0,0.09473875000000476
7287,48.0,0.09473875000000476,90.0,0.3789549999999906
7288,47.0,0.09473875000000476,77.0,0.09473875000000476
7289,55.0,0.09473875000000476,77.0,0.09473874999997633
7290,43.0,0.09473874999997633,77.0,0.09473875000000476
7291,45.0,0.09473875000000476,88.0,0.3909050000000036
7292,43.0,0.0977262499999938,77.0,0.0977262499999938
7293,52.0,0.0977262499999938,77.0,0.09772625000002222
7294,40.0,0.09772625000002222,77.0,0.0977262499999938
7295,42.0,0.0977262499999938,89.0,0.3824820000000102
7296,40.0,0.09562049999999545,77.0,0.09562049999999545
7297,47.0,0.09562049999999545,77.0,0.09562049999999545
7298,35.0,0.09562049999999545,77.0,0.09562050000002387
7299,42.0,0.09562050000002387,89.0,0.3884749999999997
7300,40.0,0.09711874999999281,77.0,0.09711875000002124
7301,47.0,0.09711875000002124,77.0,0.09711874999999281
7302,35.0,0.09711874999999281,77.0,0.09711874999999281
7303,42.0,0.09711874999999281,89.0,0.3876816666666514
7304,40.0,0.09711874999999281,77.0,0.09711875000002124
7305,48.0,0.09711875000002124,77.0,0.09711874999999281
7306,36.0,0.09711874999999281,77.0,0.09632541666664451
7307,42.0,0.09632541666664451,89.0,0.3929813333333243
7308,40.0,0.0977262499999938,75.0,0.09803274999998735
7309,47.0,0.09803274999998735,74.0,0.09845341666667196
7310,35.0,0.09845341666667196,73.0,0.0987689166666712
7311,42.0,0.0987689166666712,83.0,0.39909975000000486
7312,40.0,0.09918691666666746,71.0,0.0995027499999992
7313,46.0,0.0995027499999992,71.0,0.09993349999999168
7314,34.0,0.09993349999999168,70.0,0.10047658333334653
7315,42.0,0.10047658333334653,79.0,0.9008294999999862
7316,40.0,0.10224550000000932,68.0,0.10431233333335399
7317,47.0,0.10431233333335399,67.0,0.10646183333332715
7318,35.0,0.10646183333332715,66.0,0.1087035833333232
7319,42.0,0.1087035833333232,75.0,0.11185574999998948
7320,39.0,0.11185574999998948,63.0,0.11692508333334217
7321,47.0,0.11692508333334217,63.0,0.12246949999999401
7322,35.0,0.12246949999999401,62.0,0.12785591666664686
7323,16.0,0.12785591666664686,93.0,0.19415649999999118
7324,40.0,0.09692425000000071,65.0,0.09723224999999047
7325,47.0,0.09723224999999047,65.0,0.19471837500000788
7326,35.0,0.09753549999999223,65.0,0.09718287500001566
7327,48.0,0.09718287500001566,69.0,0.19083950000000982
7328,47.0,0.09541975000001912,65.0,0.0954197499999907
7329,55.0,0.0954197499999907,83.0,0.19083950000000982
7330,43.0,0.0954197499999907,64.0,0.09541975000001912
7331,48.0,0.09541975000001912,70.0,0.19047599999998965
7332,47.0,0.09523799999999483,66.0,0.09523799999999483
7333,55.0,0.09523799999999483,83.0,0.19047600000001808
7334,43.0,0.09523800000002325,60.0,0.09523799999999483
7335,48.0,0.09523799999999483,68.0,0.19507100000001287
7336,47.0,0.09753549999999223,62.0,0.09753550000002065
7337,54.0,0.09753550000002065,79.0,0.19507099999998445
7338,42.0,0.09753549999999223,71.0,0.09753549999999223
7339,48.0,0.09753549999999223,68.0,0.19154474999999138
7340,47.0,0.09612500000000068,66.0,0.0954197499999907
7341,54.0,0.0954197499999907,83.0,0.19083950000000982
7342,43.0,0.09541975000001912,60.0,0.0954197499999907
7343,48.0,0.0954197499999907,68.0,0.19507100000001287
7344,47.0,0.09753549999999223,62.0,0.09753550000002065
7345,52.0,0.09753550000002065,79.0,0.19507099999998445
7346,40.0,0.09753549999999223,71.0,0.09753549999999223
7347,43.0,0.09753549999999223,54.0,0.19024650000000065
7348,42.0,0.09512325000000033,49.0,0.09512325000000033
7349,47.0,0.09512325000000033,62.0,0.19024650000000065
7350,35.0,0.09512325000000033,45.0,0.09512325000000033
7351,43.0,0.09512325000000033,51.0,0.19507100000001287
7352,42.0,0.09753549999999223,46.0,0.09753550000002065
7353,47.0,0.09753550000002065,59.0,0.19507099999998445
7354,35.0,0.09753549999999223,53.0,0.09753549999999223
7355,42.0,0.09753549999999223,54.0,0.19695400000000518
7356,40.0,0.09847700000000259,49.0,0.09847700000000259
7357,47.0,0.09847700000000259,62.0,0.19695400000000518
7358,35.0,0.09847700000000259,45.0,0.09847700000000259
7359,48.0,0.09847700000000259,67.0,0.19113766666666265
7360,47.0,0.09571791666667195,65.0,0.0954197499999907
7361,55.0,0.0954197499999907,83.0,0.19083950000000982
7362,43.0,0.09541975000001912,64.0,0.0954197499999907
7363,48.0,0.0954197499999907,68.0,0.19083950000000982
7364,47.0,0.0954197499999907,66.0,0.09541975000001912
7365,55.0,0.09541975000001912,83.0,0.1908394999999814
7366,43.0,0.0954197499999907,60.0,0.0954197499999907
7367,48.0,0.0954197499999907,65.0,0.19507100000001287
7368,47.0,0.09753549999999223,62.0,0.09753550000002065
7369,54.0,0.09753550000002065,79.0,0.19507099999998445
7370,42.0,0.09753549999999223,66.0,0.09753549999999223
7371,48.0,0.09753549999999223,66.0,0.19154474999999138
7372,47.0,0.09612500000000068,66.0,0.0954197499999907
7373,54.0,0.0954197499999907,83.0,0.19083950000000982
7374,43.0,0.09541975000001912,60.0,0.0954197499999907
7375,48.0,0.0954197499999907,67.0,0.19507100000001287
7376,47.0,0.09753549999999223,62.0,0.09753550000002065
7377,52.0,0.09753550000002065,79.0,0.19507099999998445
7378,40.0,0.09753549999999223,71.0,0.09753549999999223
7379,43.0,0.09753549999999223,54.0,0.19024650000000065
7380,42.0,0.09512325000000033,49.0,0.09512325000000033
7381,47.0,0.09512325000000033,62.0,0.19024650000000065
7382,35.0,0.09512325000000033,45.0,0.09512325000000033
7383,43.0,0.09512325000000033,51.0,0.19507100000001287
7384,42.0,0.09753549999999223,46.0,0.09753550000002065
7385,47.0,0.09753550000002065,59.0,0.19507099999998445
7386,35.0,0.09753549999999223,53.0,0.09753549999999223
7387,42.0,0.09753549999999223,54.0,0.19384850000000142
7388,40.0,0.09692425000000071,49.0,0.09692425000000071
7389,47.0,0.09692425000000071,62.0,0.19384850000000142
7390,35.0,0.09692425000000071,45.0,0.09692425000000071
7391,48.0,0.09692425000000071,55.0,0.19113766666666265
7392,47.0,0.09571791666667195,48.0,0.0954197499999907
7393,55.0,0.0954197499999907,62.0,0.19083950000000982
7394,43.0,0.09541975000001912,48.0,0.0954197499999907
7395,45.0,0.0954197499999907,54.0,0.19083950000000982
7396,43.0,0.0954197499999907,49.0,0.09541975000001912
7397,52.0,0.09541975000001912,62.0,0.1908394999999814
7398,40.0,0.0954197499999907,45.0,0.0954197499999907
7399,48.0,0.0954197499999907,51.0,0.19507100000001287
7400,47.0,0.09753549999999223,46.0,0.09753550000002065
7401,55.0,0.09753550000002065,59.0,0.19507099999998445
7402,43.0,0.09753549999999223,53.0,0.09753549999999223
7403,42.0,0.09753549999999223,54.0,0.19384850000000142
7404,40.0,0.09692425000000071,49.0,0.09692425000000071
7405,47.0,0.09692425000000071,62.0,0.19384850000000142
7406,35.0,0.09692425000000071,45.0,0.09692425000000071
7407,48.0,0.09692425000000071,55.0,0.19113766666666265
7408,47.0,0.09571791666667195,48.0,0.0954197499999907
7409,55.0,0.0954197499999907,62.0,0.19083950000000982
7410,43.0,0.09541975000001912,48.0,0.0954197499999907
7411,45.0,0.0954197499999907,54.0,0.19083950000000982
7412,43.0,0.0954197499999907,49.0,0.09541975000001912
7413,52.0,0.09541975000001912,62.0,0.1908394999999814
7414,40.0,0.0954197499999907,45.0,0.0954197499999907
7415,48.0,0.0954197499999907,51.0,0.19507100000001287
7416,47.0,0.09753549999999223,46.0,0.09753550000002065
7417,55.0,0.09753550000002065,59.0,0.1952389166666535
7418,43.0,0.09753549999999223,53.0,0.09770341666666127
7419,45.0,0.09770341666666127,54.0,0.1960784999999987
7420,43.0,0.09803924999999936,49.0,0.09803924999999936
7421,52.0,0.09803924999999936,61.0,0.1960784999999987
7422,40.0,0.09803924999999936,44.0,0.09803924999999936
7423,48.0,0.09803924999999936,53.0,0.1910829999999919
7424,47.0,0.09554149999999595,46.0,0.09554149999999595
7425,52.0,0.09554149999999595,60.0,0.19108300000002032
7426,40.0,0.09554149999999595,46.0,0.09554150000002437
7427,45.0,0.09554150000002437,51.0,0.1910829999999919
7428,43.0,0.09554149999999595,46.0,0.09554149999999595
7429,52.0,0.09554149999999595,58.0,0.1910829999999919
7430,40.0,0.09554149999999595,42.0,0.09554149999999595
7431,48.0,0.09554149999999595,47.0,0.19507100000001287
7432,47.0,0.09753549999999223,42.0,0.09753550000002065
7433,52.0,0.09753550000002065,54.0,0.19507099999998445
7434,40.0,0.09753549999999223,48.0,0.09753549999999223
7435,45.0,0.09753549999999223,48.0,0.195439499999992
7436,43.0,0.09771975000001021,44.0,0.09771974999998179
7437,52.0,0.09771974999998179,55.0,0.19543950000002042
7438,40.0,0.09771975000001021,40.0,0.09771975000001021
7439,48.0,0.09771975000001021,48.0,0.1910829999999919
7440,47.0,0.09554149999999595,41.0,0.09554149999999595
7441,52.0,0.09554149999999595,53.0,0.19108300000002032
7442,40.0,0.09554149999999595,41.0,0.09554150000002437
7443,45.0,0.09554150000002437,45.0,0.1910829999999919
7444,43.0,0.09554149999999595,41.0,0.09554149999999595
7445,52.0,0.09554149999999595,52.0,0.1910829999999919
7446,40.0,0.09554149999999595,37.0,0.09554149999999595
7447,48.0,0.09554149999999595,42.0,0.19507100000001287
7448,47.0,0.09753549999999223,37.0,0.09753550000002065
7449,52.0,0.09753550000002065,48.0,0.19507099999998445
7450,40.0,0.09753549999999223,42.0,0.09753549999999223
7451,42.0,0.09753549999999223,43.0,0.3921569999999974
7452,40.0,0.09803924999999936,39.0,0.09803924999999936
7453,47.0,0.09803924999999936,49.0,0.09803924999999936
7454,35.0,0.09803924999999936,36.0,0.09803924999999936
7455,42.0,0.09803924999999936,44.0,0.09646299999999997
7456,40.0,0.09646299999999997,38.0,0.09646299999999997
7457,47.0,0.09646299999999997,49.0,0.09646299999999997
7458,35.0,0.09646299999999997,38.0,0.09646299999999997
7459,42.0,0.09646299999999997,43.0,0.09646299999999997
7460,40.0,0.09646299999999997,39.0,0.09646299999999997
7461,47.0,0.09646299999999997,49.0,0.09646299999999997
7462,35.0,0.09646299999999997,36.0,0.09646299999999997
7463,42.0,0.09646299999999997,40.0,0.09933774999998946
7464,40.0,0.09933774999998946,36.0,0.09933775000001788
7465,47.0,0.09933775000001788,47.0,0.09933774999998946
7466,35.0,0.09933774999998946,42.0,0.09933774999998946
7467,42.0,0.09933774999998946,43.0,0.09771975000001021
7468,40.0,0.09771975000001021,39.0,0.09771974999998179
7469,47.0,0.09771974999998179,48.0,0.09771975000001021
7470,35.0,0.09771975000001021,35.0,0.09771975000001021
7471,42.0,0.09771975000001021,42.0,0.09646299999999997
7472,40.0,0.09646299999999997,36.0,0.09646299999999997
7473,47.0,0.09646299999999997,46.0,0.09646299999999997
7474,35.0,0.09646299999999997,35.0,0.09646299999999997
7475,33.0,0.10676150000000462,38.0,0.10676150000000462
7476,44.0,0.10676150000000462,44.0,0.11583116666668047
7477,42.0,0.11583116666668047,28.0,0.11703549999998586
7478,47.0,0.11703549999998586,35.0,0.11780266666664829
7479,33.0,0.11780266666664829,38.0,0.11826583333339613
7480,44.0,0.12419468333337136,42.0,0.11875735833336876
7481,42.0,0.11875735833336876,29.0,0.11922939166669266
7482,47.0,0.11325329166669462,37.0,0.11952199999996083
7483,33.0,0.11952199999996083,37.0,0.12000000000000455
7484,44.0,0.12000000000000455,40.0,0.12048199999998133
7485,42.0,0.12048199999998133,27.0,0.12080583333334971
7486,47.0,0.12080583333334971,35.0,0.12129424999994853
7487,33.0,0.12129424999994853,38.0,0.12178666666670779
7488,16.0,0.12178666666670779,33.0,2.5408149166666476
7489,23.0,0.11791829166668322,36.0,2.4228966249999644
7490,33.0,0.13317387499995448,38.0,2.28972275000001
7491,35.0,0.12572937500004855,40.0,6.039658875000043
7492,39.0,0.1197237916666154,43.0,2.044269583333346
7493,42.0,0.22183858333335138,48.0,1.8224309999999946
7494,16.0,1.8224309999999946,31.0,3.875665500000082
7495,23.0,0.2795883333333222,37.0,3.5960771666667597
7496,32.0,0.26634766666671794,35.0,3.3297295000000418
7497,40.0,0.24731183333335593,42.0,3.082417666666686
7498,39.0,0.0,34.0,0.27661862499999995
7499,39.0,0.2911774999999999,35.0,0.26235864999999997
7500,39.0,0.276167,37.0,0.2623586499999999
7501,39.0,0.27616700000000005,38.0,0.2512564749999999
7502,39.0,0.2644804999999999,39.0,0.24776142499999998
7503,39.0,0.2608014999999999,41.0,0.2477614250000002
7504,39.0,0.26080150000000013,43.0,0.24776142499999998
7505,39.0,0.26080150000000013,45.0,0.24768638333333293
7506,39.0,0.26063640833333324,47.0,0.25133948541666573
7507,39.0,0.2648493354166659,47.0,0.26243081666666646
7508,39.0,0.27640119166666643,45.0,0.26952925000000016
7509,39.0,0.28371499999999994,40.0,0.272310375
7510,40.0,0.28664250000000013,48.0,0.2872116
7511,46.0,0.30232800000000015,55.0,0.24949660000000007
7512,51.0,0.26262799999999986,57.0,0.26088760833333335
7513,52.0,0.27464908333333327,59.0,0.24605047499999966
7514,44.0,0.25900049999999997,56.0,0.2589025500000002
7515,46.0,0.27252900000000047,55.0,0.27091244999999997
7516,49.0,0.28517100000000006,61.0,0.8193390000000003
7517,45.0,0.29585799999999995,31.0,0.24605047499999966
7518,45.0,0.25900049999999997,31.0,0.2512564749999999
7519,47.0,0.26448050000000034,52.0,1.1291724999999992
7520,45.0,0.26448049999999945,31.0,0.26815935000000035
7521,45.0,0.282273,31.0,0.27374915000000044
7522,28.0,0.288157,47.0,0.2795489
7523,52.0,0.2942619999999998,59.0,0.2530410500000002
7524,58.0,0.26635900000000046,63.0,0.2512564749999999
7525,61.0,0.26448050000000034,68.0,0.2477614250000002
7526,59.0,0.26080150000000035,61.0,0.2604405999999999
7527,56.0,0.2741480000000003,61.0,0.272310375
7528,54.0,0.28664249999999925,71.0,0.8441585000000007
7529,49.0,0.286642500000001,50.0,0.25446415000000044
7530,49.0,0.26785699999999935,50.0,0.27517605000000067
7531,56.0,0.28965900000000033,69.0,1.1317719999999998
7532,52.0,0.2697839999999996,50.0,0.26815934999999946
7533,52.0,0.282273,48.0,0.26815934999999946
7534,30.0,0.282273,47.0,0.2825699000000004
7535,49.0,0.2974420000000002,59.0,0.2494966000000005
7536,54.0,0.2626279999999994,63.0,0.2494966000000005
7537,58.0,0.2626280000000012,64.0,0.24269792499999987
7538,56.0,0.2554715000000005,61.0,0.2477614250000002
7539,52.0,0.26080149999999946,61.0,0.272310375
7540,51.0,0.28664249999999925,70.0,0.8543110000000009
7541,48.0,0.286642500000001,45.0,0.2641090249999998
7542,48.0,0.2780094999999996,45.0,0.27517605000000067
7543,52.0,0.28965900000000033,58.0,1.1399974999999998
7544,47.0,0.2780094999999996,35.0,0.26815934999999946
7545,47.0,0.282273,34.0,0.26815934999999946
7546,30.0,0.282273,39.0,0.8331210000000002
7547,47.0,0.2974420000000002,50.0,0.25763857499999965
7548,49.0,0.27119850000000056,53.0,0.2512564749999999
7549,52.0,0.26448049999999945,57.0,0.2443623249999991
7550,51.0,0.25722350000000027,51.0,0.2604406000000008
7551,47.0,0.2741480000000003,46.0,0.27807592499999956
7552,49.0,0.29271149999999935,55.0,1.9810659999999984
7553,46.0,0.28664249999999925,40.0,0.2614680249999992
7554,46.0,0.2752295,39.0,0.2614680249999992
7555,46.0,0.2752295,40.0,0.2614680249999992
7556,46.0,0.2752295,38.0,0.261468025000001
7557,46.0,0.2752295,38.0,0.2766186250000011
7558,18.0,0.29117749999999987,69.0,0.2872115999999991
7559,46.0,0.30232799999999926,68.0,0.2563874249999998
7560,51.0,0.26988150000000033,70.0,0.2477614250000002
7561,52.0,0.26080149999999946,72.0,0.24436232500000088
7562,44.0,0.2572234999999985,69.0,0.2589025499999984
7563,46.0,0.2725289999999987,68.0,0.27091245000000086
7564,49.0,0.2851709999999983,72.0,0.8174864999999976
7565,45.0,0.29585799999999907,44.0,0.24605047500000055
7566,45.0,0.2590004999999991,44.0,0.2494966000000005
7567,47.0,0.2626279999999994,73.0,1.127320000000001
7568,45.0,0.2626279999999994,44.0,0.26815935000000124
7569,45.0,0.282273,44.0,0.27374915000000044
7570,16.0,0.2881570000000018,71.0,0.2795488999999982
7571,52.0,0.2942619999999998,72.0,0.2530410500000002
7572,58.0,0.26635900000000134,75.0,0.24436232500000088
7573,61.0,0.2572234999999985,80.0,0.2394356249999987
7574,59.0,0.25203750000000014,75.0,0.2512564750000017
7575,56.0,0.26448050000000123,75.0,0.272310375
7576,54.0,0.28664249999999925,88.0,0.8385394999999995
7577,49.0,0.28664249999999925,65.0,0.24912610000000157
7578,49.0,0.26223799999999997,65.0,0.2751760499999989
7579,56.0,0.28965900000000033,84.0,1.1224045000000018
7580,52.0,0.2604165000000016,65.0,0.26815935000000124
7581,52.0,0.282273,62.0,0.26815935000000124
7582,30.0,0.282273,69.0,0.2825698999999986
7583,49.0,0.2974420000000002,72.0,0.2576385750000014
7584,54.0,0.27119850000000056,75.0,0.2512564750000017
7585,58.0,0.26448050000000123,80.0,0.24436232500000088
7586,56.0,0.2572234999999985,75.0,0.2530410500000002
7587,52.0,0.26635900000000134,75.0,0.272310375
7588,51.0,0.28664249999999925,81.0,0.8591674999999981
7589,48.0,0.28664249999999925,58.0,0.2566871500000012
7590,48.0,0.2701969999999996,58.0,0.2872115999999991
7591,52.0,0.30232799999999926,81.0,1.1642825000000023
7592,47.0,0.2741480000000003,56.0,0.2751760499999989
7593,47.0,0.28965900000000033,53.0,0.2751760499999989
7594,30.0,0.28965900000000033,57.0,0.2952756749999992
7595,40.0,0.3108165000000014,64.0,0.26815935000000124
7596,47.0,0.282273,68.0,0.272310375
7597,51.0,0.28664249999999925,57.0,0.272310375
7598,49.0,0.28664249999999925,57.0,0.4454260000000012
7599,46.0,0.2942619999999998,34.0,0.30483495000000005
7600,47.0,0.1511640000000014,51.0,0.17074549999999888
7601,47.0,0.17074549999999888,56.0,1.7313694999999996
7602,39.0,0.29271149999999935,39.0,0.26815935000000124
7603,39.0,0.282273,38.0,0.26815935000000124
7604,39.0,0.282273,39.0,0.26815935000000124
7605,39.0,0.282273,37.0,0.2766186250000011
7606,39.0,0.29117749999999987,37.0,0.28562842499999874
7607,47.0,0.30066150000000036,52.0,0.8586075000000015
7608,41.0,0.29117749999999987,34.0,0.2695292500000015
7609,41.0,0.2837150000000008,34.0,0.26952924999999794
7610,47.0,0.2837150000000008,51.0,0.2585501000000008
7611,45.0,0.272158000000001,49.0,0.28511130208333313
7612,43.0,0.29117749999999987,49.0,0.2766186250000011
7613,52.0,0.29117749999999987,62.0,1.672528750000005
7614,48.0,0.2881569999999982,48.0,0.2654657083333305
7615,48.0,0.2792969583333331,50.0,0.2605433416666685
7616,48.0,0.2741697916666723,53.0,0.2530410500000002
7617,48.0,0.26635900000000134,56.0,0.2681593499999977
7618,48.0,0.28227299999999644,59.0,0.2681593500000048
7619,52.0,0.28227300000000355,79.0,0.8341740000000044
7620,47.0,0.2837150000000008,51.0,0.2614680249999992
7621,51.0,0.2752295000000018,67.0,0.2614680249999992
7622,51.0,0.2752295000000018,70.0,0.25485127500000004
7623,49.0,0.2682645000000008,69.0,0.2681593499999977
7624,47.0,0.28227300000000355,70.0,0.2681593499999977
7625,55.0,0.28227299999999644,72.0,1.6484670000000037
7626,52.0,0.2837150000000008,52.0,0.2544641499999969
7627,52.0,0.26785699999999935,54.0,0.2508802750000001
7628,52.0,0.2640845000000027,58.0,0.25485127500000004
7629,52.0,0.2682645000000008,61.0,0.2681593499999977
7630,51.0,0.28227299999999644,64.0,0.2681593500000048
7631,55.0,0.28227300000000355,82.0,0.8341740000000044
7632,50.0,0.2837150000000008,53.0,0.2614680249999992
7633,54.0,0.2752295000000018,75.0,0.2614680249999992
7634,54.0,0.2752295000000018,80.0,0.2530410500000002
7635,52.0,0.26635900000000134,77.0,0.2681593499999977
7636,50.0,0.28227299999999644,77.0,0.2681593500000048
7637,59.0,0.28227300000000355,84.0,0.5589445000000026
7638,53.0,0.2837150000000008,56.0,0.2614680249999992
7639,59.0,0.2752295000000018,73.0,0.25485127500000004
7640,59.0,0.2682645000000008,77.0,0.2530410500000002
7641,58.0,0.26635900000000134,70.0,0.2681593499999977
7642,54.0,0.28227300000000355,68.0,0.2751760499999989
7643,57.0,0.28965900000000033,61.0,0.5589445000000026
7644,51.0,0.2837150000000008,39.0,0.2614680249999992
7645,57.0,0.2752295000000018,55.0,0.2614680249999992
7646,57.0,0.2752295000000018,59.0,0.2530410500000002
7647,56.0,0.26635900000000134,54.0,0.2681593499999977
7648,52.0,0.28227299999999644,52.0,0.2780759250000031
7649,55.0,0.2927115000000029,58.0,0.27374915000000044
7650,54.0,0.2881569999999982,53.0,0.2681593499999977
7651,55.0,0.28227299999999644,53.0,0.27325881666666874
7652,59.0,0.2876666666666736,56.0,0.5661665000000013
7653,55.0,0.27800950000000313,36.0,0.27374915000000044
7654,57.0,0.2881569999999982,52.0,0.27374915000000044
7655,55.0,0.2881570000000053,55.0,1.9509329999999991
7656,50.0,0.2837150000000008,35.0,0.2614680249999992
7657,50.0,0.2752295000000018,36.0,0.2576385750000014
7658,50.0,0.271198499999997,37.0,0.25890255000000195
7659,50.0,0.2725289999999987,39.0,0.2681593499999977
7660,50.0,0.28227299999999644,40.0,0.2681593500000048
7661,31.0,0.28227300000000355,53.0,0.26952924999999794
7662,55.0,0.2837150000000008,60.0,0.2614680249999992
7663,54.0,0.2752295000000018,57.0,0.25485127500000004
7664,57.0,0.2682645000000008,64.0,0.2477614250000002
7665,55.0,0.26080149999999946,58.0,0.2681593499999977
7666,51.0,0.28227299999999644,59.0,0.2681593500000048
7667,55.0,0.28227300000000355,62.0,1.9325650000000039
7668,50.0,0.2837150000000008,39.0,0.2614680249999992
7669,50.0,0.2752295000000018,40.0,0.2530410500000002
7670,50.0,0.26635900000000134,42.0,0.246050474999997
7671,50.0,0.2590004999999991,44.0,0.2681593499999977
7672,50.0,0.28227300000000355,45.0,0.2681593499999977
7673,31.0,0.28227299999999644,53.0,0.26952924999999794
7674,55.0,0.2837150000000008,60.0,0.2614680249999992
7675,54.0,0.2752295000000018,57.0,0.2614680249999992
7676,57.0,0.2752294999999947,64.0,0.2494966000000005
7677,55.0,0.2626279999999994,58.0,0.2681593499999977
7678,51.0,0.28227299999999644,59.0,0.2681593500000048
7679,55.0,0.28227300000000355,62.0,2.497360999999998
7680,50.0,0.2837150000000008,39.0,0.2614680249999992
7681,50.0,0.2752295000000018,40.0,0.2576385750000014
7682,50.0,0.271198499999997,42.0,0.25890255000000195
7683,50.0,0.2725289999999987,44.0,0.2681593499999977
7684,50.0,0.28227300000000355,45.0,0.2681593499999977
7685,50.0,0.28227299999999644,42.0,0.26952924999999794
7686,50.0,0.2837150000000008,39.0,0.2614680249999992
7687,50.0,0.2752295000000018,41.0,0.2576385750000014
7688,54.0,0.271198499999997,64.0,0.5548019999999951
7689,50.0,0.2725289999999987,51.0,0.2681593499999977
7690,54.0,0.28227299999999644,67.0,0.2681593500000048
7691,54.0,0.28227300000000355,71.0,1.6672179999999983
7692,50.0,0.2837150000000008,48.0,0.2614680249999992
7693,50.0,0.2752295000000018,50.0,0.2576385750000014
7694,50.0,0.271198499999997,53.0,0.25890255000000195
7695,50.0,0.2725289999999987,56.0,0.2681593499999977
7696,50.0,0.28227300000000355,59.0,0.2681593499999977
7697,53.0,0.28227299999999644,78.0,1.6672179999999983
7698,47.0,0.2837150000000008,60.0,0.2614680249999992
7699,47.0,0.2752295000000018,63.0,0.2576385750000014
7700,50.0,0.271198499999997,67.0,0.25890255000000195
7701,47.0,0.2725289999999987,69.0,0.2681593499999977
7702,47.0,0.28227299999999644,73.0,0.2681593500000048
7703,18.0,0.28227300000000355,86.0,0.2872115999999991
7704,46.0,0.3023280000000028,78.0,0.2563874249999998
7705,51.0,0.2698814999999968,80.0,0.2494966000000005
7706,52.0,0.2626279999999994,82.0,0.24269792500000165
7707,44.0,0.25547149999999874,79.0,0.25890255000000195
7708,46.0,0.2725289999999987,78.0,0.2709124499999973
7709,49.0,0.2851709999999983,86.0,0.8288909999999987
7710,45.0,0.2958580000000026,50.0,0.2551248749999999
7711,45.0,0.2685524999999984,50.0,0.25125647499999815
7712,47.0,0.2644804999999977,84.0,1.1273200000000045
7713,45.0,0.2626279999999994,50.0,0.2681593499999977
7714,45.0,0.28227300000000355,50.0,0.27374915000000044
7715,16.0,0.2881569999999982,82.0,0.27954890000000177
7716,52.0,0.29426200000000335,82.0,0.2576385750000014
7717,58.0,0.271198499999997,86.0,0.2477614250000002
7718,61.0,0.26080149999999946,91.0,0.24269792500000165
7719,59.0,0.25547149999999874,86.0,0.2530410500000002
7720,56.0,0.26635900000000134,86.0,0.27231037499999644
7721,54.0,0.28664249999999925,101.0,0.8543110000000027
7722,49.0,0.28664249999999925,74.0,0.26410902500000333
7723,49.0,0.27800950000000313,74.0,0.2751760499999989
7724,56.0,0.28965900000000033,96.0,1.1399974999999998
7725,52.0,0.27800950000000313,74.0,0.2681593499999977
7726,52.0,0.28227299999999644,71.0,0.2681593500000048
7727,18.0,0.28227300000000355,71.0,0.2825698999999986
7728,49.0,0.29744199999999665,82.0,0.2576385750000014
7729,54.0,0.271198499999997,86.0,0.2530410500000002
7730,58.0,0.26635900000000134,89.0,0.2494966000000005
7731,56.0,0.2626280000000065,86.0,0.25485127499999294
7732,52.0,0.2682645000000008,86.0,0.27231037500000355
7733,51.0,0.28664249999999925,96.0,0.8675415000000015
7734,48.0,0.2927114999999958,66.0,0.2709124499999973
7735,48.0,0.2851710000000054,66.0,0.2751760499999989
7736,52.0,0.28965900000000033,95.0,1.1873575000000045
7737,47.0,0.2837150000000008,64.0,0.2751760499999989
7738,47.0,0.28965900000000033,61.0,0.2751760499999989
7739,30.0,0.28965900000000033,65.0,0.30810827499999505
7740,47.0,0.324324500000003,66.0,0.26952925000000505
7741,49.0,0.2837150000000008,69.0,0.278075924999996
7742,52.0,0.2927114999999958,69.0,0.2780759250000102
7743,51.0,0.29271150000001,69.0,0.27374915000000044
7744,47.0,0.2881569999999982,61.0,0.30106339999998966
7745,49.0,0.31762700000000166,70.0,1.745705000000001
7746,46.0,0.29426200000000335,43.0,0.2681593500000048
7747,46.0,0.28227300000000355,42.0,0.2681593499999906
7748,46.0,0.28227300000000355,43.0,0.2681593499999906
7749,46.0,0.28227299999998934,39.0,0.2744873000000041
7750,46.0,0.2889339999999976,37.0,0.29990549999999416
7751,50.0,0.3156900000000036,52.0,0.7122982500000035
7752,45.0,0.2881569999999982,34.0,0.26677899999999966
7753,45.0,0.2808200000000056,34.0,0.26766887500001246
7754,50.0,0.14332124999999962,34.0,0.07166062500000692
7755,52.0,0.07166062500000692,34.0,0.06585875000000385
7756,50.0,0.06585875000000385,51.0,0.2585500999999937
7757,49.0,0.27215800000000456,49.0,0.27374915000000044
7758,50.0,0.2881569999999982,49.0,0.27374915000000044
7759,52.0,0.2881569999999982,52.0,0.8500755000000026
7760,47.0,0.2911775000000034,33.0,0.2681593500000048
7761,47.0,0.28227300000000355,34.0,0.26279375000000016
7762,49.0,0.2752294999999947,33.0,0.2633945833333371
7763,49.0,0.27743558333334306,32.0,0.27058308333333514
7764,49.0,0.2850758333333374,29.0,0.28333074166667416
7765,49.0,0.2985591666666636,28.0,0.6877060000000057
7766,11.0,0.3262600000000049,61.0,1.7070525000000032
7767,49.0,0.3614460000000008,39.0,0.2563874249999998
7768,51.0,0.2698814999999968,39.0,0.2477614249999931
7769,52.0,0.26080149999999946,41.0,0.24436232499999733
7770,44.0,0.25722349999999494,39.0,0.25890255000000195
7771,46.0,0.2725290000000058,39.0,0.2709124499999973
7772,49.0,0.2851710000000054,42.0,0.8356089999999909
7773,42.0,0.2958579999999955,20.0,0.255124875000007
7774,39.0,0.2685524999999984,19.0,0.2576385750000014
7775,47.0,0.271198499999997,40.0,0.8593100000000078
7776,42.0,0.271198499999997,20.0,0.2681593500000048
7777,42.0,0.28227300000000355,20.0,0.2896625000000057
7778,11.0,0.30583850000000723,57.0,1.6629444999999947
7779,52.0,0.3197954999999979,41.0,0.2533331749999945
7780,58.0,0.2666664999999995,44.0,0.25125647500000525
7781,61.0,0.2644805000000048,47.0,0.2460504750000041
7782,59.0,0.2590004999999991,42.0,0.2530410499999931
7783,56.0,0.26635899999999424,42.0,0.27231037500000355
7784,54.0,0.28664249999999925,49.0,0.8755069999999989
7785,49.0,0.2941174999999987,37.0,0.270142000000007
7786,49.0,0.2843600000000066,37.0,0.2821780249999932
7787,56.0,0.2970294999999936,48.0,0.8809025000000048
7788,52.0,0.2843600000000066,37.0,0.2753622500000006
7789,52.0,0.28985500000000286,36.0,0.2905114999999938
7790,11.0,0.30668749999999534,57.0,1.6767859999999928
7791,49.0,0.32352000000000203,41.0,0.2576385750000014
7792,54.0,0.271198499999997,44.0,0.25485127499999294
7793,58.0,0.2682645000000008,47.0,0.2477614249999931
7794,56.0,0.26080149999999946,42.0,0.2530410499999931
7795,52.0,0.26635899999999424,42.0,0.27231037500000355
7796,51.0,0.28664249999999925,49.0,0.8800735000000088
7797,47.0,0.2926829999999967,34.0,0.270142000000007
7798,47.0,0.2843600000000066,34.0,0.28787897499999815
7799,52.0,0.30303050000000553,48.0,0.9095985000000013
7800,47.0,0.2926829999999967,34.0,0.2864321250000046
7801,47.0,0.3015074999999996,32.0,0.2989425750000123
7802,11.0,0.315408000000005,58.0,1.6983384999999913
7803,40.0,0.33127199999999846,34.0,0.2576385750000014
7804,49.0,0.271198499999997,44.0,0.2585500999999937
7805,52.0,0.27215800000000456,47.0,0.2477614249999931
7806,51.0,0.26080149999999946,42.0,0.25668715000000475
7807,47.0,0.270196999999996,39.0,0.278075924999996
7808,49.0,0.2927114999999958,45.0,1.7194701666666674
7809,46.0,0.28664249999999925,32.0,0.2614680249999992
7810,46.0,0.2752294999999947,30.0,0.2611969583333291
7811,46.0,0.2750218333333265,32.0,0.26440921666667805
7812,46.0,0.2784279166666721,30.0,0.26814066666666747
7813,46.0,0.2823586666666671,30.0,0.30416965000000573
7814,11.0,0.32178975000000776,62.0,1.7128055833333633
7815,49.0,0.3479470000000049,39.0,0.2563874249999998
7816,51.0,0.2698814999999968,41.0,0.26088760833333424
7817,52.0,0.2746490833333439,42.0,0.2494966000000005
7818,44.0,0.2626280000000065,40.0,0.25890255000000195
7819,46.0,0.2725290000000058,39.0,0.2709124499999973
7820,49.0,0.2851710000000054,42.0,0.8356089999999909
7821,45.0,0.2958579999999955,24.0,0.255124875000007
7822,45.0,0.2685524999999984,24.0,0.2576385750000014
7823,47.0,0.271198499999997,43.0,0.8652040000000056
7824,45.0,0.271198499999997,24.0,0.2681593500000048
7825,45.0,0.28227300000000355,24.0,0.29496710000000803
7826,11.0,0.3117325000000051,56.0,1.695527499999983
7827,52.0,0.33325949999999693,42.0,0.2576385750000014
7828,58.0,0.271198499999997,45.0,0.2614680249999992
7829,61.0,0.2752294999999947,47.0,0.2460504750000041
7830,59.0,0.2590004999999991,45.0,0.25668715000000475
7831,56.0,0.270196999999996,45.0,0.27231037500000355
7832,54.0,0.28664249999999925,51.0,0.8779130000000066
7833,49.0,0.2955665000000067,37.0,0.2638891000000001
7834,49.0,0.27777799999999786,37.0,0.28934007499999836
7835,56.0,0.304568500000002,49.0,0.894070499999998
7836,52.0,0.28409100000000365,37.0,0.28078817499999786
7837,52.0,0.2955665000000067,34.0,0.29775002499998493
7838,11.0,0.3144129999999876,57.0,1.7011480000000034
7839,49.0,0.35502950000000055,42.0,0.2576385750000014
7840,54.0,0.2711985000000112,45.0,0.25125647499999104
7841,58.0,0.26448049999999057,48.0,0.24436232499999733
7842,56.0,0.25722350000000915,45.0,0.25668715000000475
7843,52.0,0.270196999999996,45.0,0.2688680500000089
7844,51.0,0.2830189999999959,47.0,0.895417000000009
7845,47.0,0.2955665000000067,33.0,0.27142877500000395
7846,47.0,0.28571450000001164,33.0,0.29842919999998685
7847,52.0,0.31413599999999064,47.0,0.9256777500000055
7848,47.0,0.30000000000001137,31.0,0.29381457499999897
7849,47.0,0.3092785000000049,27.0,0.30022325000001615
7850,11.0,0.31639924999998925,56.0,1.7551707499999907
7851,40.0,0.3428570000000093,38.0,0.26267262499999333
7852,47.0,0.27649750000000495,39.0,0.26235865000001013
7853,51.0,0.27616699999998673,39.0,0.25668715000000475
7854,49.0,0.270196999999996,39.0,0.2681593499999906
7855,47.0,0.28227300000000355,35.0,0.2910968999999852
7856,51.0,0.30717924999999013,46.0,2.3082725000000153
7857,39.0,0.28664249999999925,30.0,0.26635529999998653
7858,39.0,0.2803739999999948,30.0,0.26635530000001495
7859,39.0,0.2803739999999948,30.0,0.26635530000001495
7860,39.0,0.2803740000000232,29.0,0.2681593499999906
7861,39.0,0.28227300000000355,29.0,0.28562842499999874
7862,11.0,0.3006614999999897,56.0,1.7447845000000086
7863,40.0,0.3197954999999979,38.0,0.2638891000000001
7864,47.0,0.27777800000001207,39.0,0.2688680500000089
7865,51.0,0.2830189999999959,39.0,0.2688680500000089
7866,49.0,0.2830189999999959,39.0,0.2740384249999863
7867,47.0,0.28846150000001103,35.0,0.278075924999996
7868,51.0,0.2927114999999958,46.0,1.127801500000004
7869,39.0,0.28664249999999925,30.0,0.26511650000000486
7870,39.0,0.27906999999999016,30.0,0.26511650000000486
7871,40.0,0.2790700000000186,24.0,0.2688680500000089
7872,49.0,0.2830189999999959,39.0,0.2740384249999863
7873,47.0,0.28846150000001103,35.0,0.278075924999996
7874,51.0,0.2927114999999958,46.0,1.127801500000004
7875,39.0,0.28664249999999925,30.0,0.26511650000000486
7876,39.0,0.27906999999999016,30.0,0.26511650000000486
7877,39.0,0.2790700000000186,23.0,0.2688680500000089
7878,49.0,0.2830189999999959,39.0,0.2753622500000006
7879,47.0,0.28985499999998865,35.0,0.2910968999999852
7880,11.0,0.30717924999999013,55.0,1.7550424999999734
7881,39.0,0.327368000000007,30.0,0.26635529999998653
7882,39.0,0.2803739999999948,30.0,0.26635530000001495
7883,39.0,0.2803739999999948,23.0,0.2701419999999928
7884,37.0,0.2843599999999924,23.0,0.2753622500000006
7885,44.0,0.28985499999998865,20.0,0.278075924999996
7886,47.0,0.2927114999999958,45.0,1.7248357499999827
7887,39.0,0.28664249999999925,30.0,0.26511650000000486
7888,39.0,0.27906999999999016,30.0,0.26511650000000486
7889,39.0,0.2790700000000186,23.0,0.2688680500000089
7890,37.0,0.2830189999999959,23.0,0.2753622500000006
7891,44.0,0.28985499999998865,20.0,0.2910968999999852
7892,47.0,0.30717924999999013,45.0,0.6101085000000239
7893,42.0,0.3216470000000129,18.0,0.2740384249999863
7894,37.0,0.28846150000001103,30.0,0.2740384249999863
7895,47.0,0.2884614999999826,45.0,0.5585979999999893
7896,42.0,0.26448049999999057,20.0,0.2794116249999945
7897,37.0,0.2941174999999987,20.0,0.278075924999996
7898,47.0,0.2927114999999958,45.0,0.5944122083333241
7899,42.0,0.3023279999999886,18.0,0.27729130833333215
7900,37.0,0.2920842083333355,30.0,0.28555877499996996
7901,47.0,0.30084149999996157,45.0,0.6351233333333539
7902,42.0,0.31170633333334763,20.0,0.3069515750000278
7903,37.0,0.3234170000000063,20.0,0.36531378333336306
7904,11.0,0.38744420833336335,53.0,2.07743366666665
7905,39.0,0.41911150000001385,30.0,0.314629216666674
7906,39.0,0.3312037916666668,30.0,0.3136673083333221
7907,39.0,0.3301508333333345,23.0,0.316578724999971
7908,39.0,0.33306224999998335,23.0,0.3167505249999749
7909,39.0,0.33296674999996867,20.0,0.3144550166666704
7910,39.0,0.3309385416666828,23.0,0.3196001583333725
7911,39.0,0.3366747083333621,30.0,0.3290886083333078
7912,39.0,0.346708708333324,30.0,0.3388786333332803
7913,39.0,0.35695745833328374,23.0,0.4042554000000109
7914,42.0,0.3191490000000101,23.0,0.1063829999999939
7915,40.0,0.1063829999999939,23.0,0.606383099999988
7916,39.0,0.6382979999999918,20.0,0.8382353499999908
7917,39.0,0.8823529999999948,17.0,4.5
7918,27.0,0.0,103.0,2.8075117499999998
7919,27.0,0.08620699999999999,77.0,0.08620699999999999
7920,34.0,0.08620699999999999,80.0,0.086207
7921,39.0,0.086207,77.0,0.08620699999999998
7922,43.0,0.08620699999999998,90.0,0.08620699999999998
7923,39.0,0.08620699999999998,77.0,0.08620700000000003
7924,46.0,0.08620700000000003,80.0,0.08620699999999992
7925,51.0,0.08620699999999992,78.0,0.08620700000000003
7926,55.0,0.08620700000000003,93.0,0.08620700000000003
7927,51.0,0.08620700000000003,79.0,0.08620699999999992
7928,58.0,0.08620699999999992,82.0,0.08620700000000003
7929,63.0,0.08620700000000003,80.0,0.08620700000000003
7930,67.0,0.08620700000000003,93.0,0.08620699999999992
7931,63.0,0.08620699999999992,80.0,0.08620699999999992
7932,70.0,0.08620699999999992,83.0,0.08620700000000014
7933,75.0,0.08620700000000014,81.0,0.08620699999999992
7934,79.0,0.08620699999999992,95.0,0.08620699999999992
7935,75.0,0.08620699999999992,80.0,0.08620700000000014
7936,70.0,0.08620700000000014,84.0,0.08620699999999992
7937,63.0,0.08620699999999992,80.0,0.08620699999999992
7938,67.0,0.08620699999999992,94.0,0.08620700000000014
7939,63.0,0.08620700000000014,80.0,0.08620699999999992
7940,58.0,0.08620699999999992,83.0,0.08620699999999992
7941,51.0,0.08620699999999992,79.0,0.08620700000000014
7942,55.0,0.08620700000000014,93.0,0.09009
7943,51.0,0.09009,79.0,0.09009
7944,46.0,0.09009,81.0,0.09009
7945,39.0,0.09009,78.0,0.09009
7946,43.0,0.09009,92.0,0.09009
7947,39.0,0.09009,76.0,0.09009
7948,34.0,0.09009,80.0,0.09009
7949,27.0,0.09009,77.0,0.10791374999999981
7950,20.0,0.10791374999999981,104.0,1.4200812500000008
7951,27.0,0.0872092499999999,80.0,0.0872092499999999
7952,36.0,0.0872092499999999,80.0,0.08720925000000035
7953,39.0,0.08720925000000035,77.0,0.0872092499999999
7954,44.0,0.0872092499999999,91.0,0.0872092499999999
7955,39.0,0.0872092499999999,77.0,0.0872092499999999
7956,48.0,0.0872092499999999,80.0,0.08720925000000035
7957,51.0,0.08720925000000035,78.0,0.0872092499999999
7958,56.0,0.0872092499999999,93.0,0.08955225000000011
7959,51.0,0.08955225000000011,78.0,0.08955225000000011
7960,60.0,0.08955225000000011,82.0,0.08955224999999967
7961,63.0,0.08955224999999967,80.0,0.08955225000000011
7962,68.0,0.08955225000000011,94.0,0.08955225000000011
7963,63.0,0.08955225000000011,81.0,0.08955224999999967
7964,72.0,0.08955224999999967,83.0,0.08955225000000056
7965,75.0,0.08955225000000056,80.0,0.09554150000000039
7966,21.0,0.09554150000000039,101.0,1.4172297499999997
7967,75.0,0.0872092499999999,80.0,0.0872092499999999
7968,72.0,0.0872092499999999,84.0,0.0872092499999999
7969,63.0,0.0872092499999999,80.0,0.0872092499999999
7970,67.0,0.0872092499999999,95.0,0.0872092500000008
7971,63.0,0.0872092500000008,80.0,0.0872092499999999
7972,60.0,0.0872092499999999,83.0,0.0872092499999999
7973,51.0,0.0872092499999999,79.0,0.0872092499999999
7974,55.0,0.0872092499999999,93.0,0.0872092499999999
7975,51.0,0.0872092499999999,78.0,0.0872092499999999
7976,48.0,0.0872092499999999,81.0,0.0872092499999999
7977,39.0,0.0872092499999999,77.0,0.0872092499999999
7978,41.0,0.0872092499999999,92.0,0.0872092499999999
7979,39.0,0.0872092499999999,76.0,0.0872092500000008
7980,36.0,0.0872092500000008,80.0,0.08720924999999902
7981,27.0,0.08720924999999902,77.0,0.10909100000000027
7982,22.0,0.10909100000000027,101.0,0.7079639999999996
7983,26.0,0.08849549999999962,80.0,0.0884955000000005
7984,34.0,0.0884955000000005,77.0,0.08849549999999962
7985,38.0,0.08849549999999962,80.0,0.0884955000000005
7986,41.0,0.0884955000000005,90.0,0.08849549999999962
7987,38.0,0.08849549999999962,77.0,0.0884955000000005
7988,46.0,0.0884955000000005,80.0,0.08849549999999962
7989,50.0,0.08849549999999962,78.0,0.08849549999999962
7990,21.0,0.08849549999999962,102.0,0.3692310000000001
7991,50.0,0.0923077499999998,79.0,0.0923077499999998
7992,58.0,0.0923077499999998,82.0,0.09230775000000069
7993,62.0,0.09230775000000069,80.0,0.0923077499999998
7994,19.0,0.0923077499999998,97.0,0.3773580000000001
7995,62.0,0.09433950000000024,80.0,0.09433949999999935
7996,70.0,0.09433949999999935,83.0,0.09433950000000024
7997,72.0,0.09433950000000024,79.0,0.09433950000000024
7998,17.0,0.09433950000000024,102.0,1.4493892499999994
7999,72.0,0.09009,80.0,0.09009
8000,69.0,0.09009,84.0,0.09009
8001,63.0,0.09009,80.0,0.09009
8002,65.0,0.09009,95.0,0.09009
8003,60.0,0.09009,80.0,0.09009
8004,57.0,0.09009,82.0,0.09009
8005,51.0,0.09009,79.0,0.09009
8006,53.0,0.09009,94.0,0.09009
8007,48.0,0.09009,77.0,0.09009
8008,45.0,0.09009,81.0,0.09009
8009,39.0,0.09009,77.0,0.09009
8010,41.0,0.09009,80.0,0.09009
8011,36.0,0.09009,80.0,0.09009
8012,33.0,0.09009,80.0,0.09009
8013,27.0,0.09009,80.0,0.09803924999999936
8014,22.0,0.09803924999999936,101.0,2.79839125
8015,27.0,0.08695649999999944,77.0,0.08695650000000121
8016,32.0,0.08695650000000121,80.0,0.08695649999999944
8017,35.0,0.08695649999999944,77.0,0.08695649999999944
8018,41.0,0.08695649999999944,91.0,0.08695650000000121
8019,39.0,0.08695650000000121,76.0,0.08695649999999944
8020,44.0,0.08695649999999944,80.0,0.08695649999999944
8021,47.0,0.08695649999999944,77.0,0.08695650000000121
8022,53.0,0.08695650000000121,92.0,0.08695649999999944
8023,51.0,0.08695649999999944,78.0,0.08695649999999944
8024,56.0,0.08695649999999944,82.0,0.08695650000000121
8025,59.0,0.08695650000000121,79.0,0.08695649999999944
8026,65.0,0.08695649999999944,93.0,0.08695649999999944
8027,63.0,0.08695649999999944,80.0,0.08695649999999944
8028,68.0,0.08695649999999944,83.0,0.08695650000000121
8029,71.0,0.08695650000000121,80.0,0.08695649999999944
8030,77.0,0.08695649999999944,95.0,0.08695649999999944
8031,70.0,0.08695649999999944,79.0,0.08695650000000121
8032,68.0,0.08695650000000121,84.0,0.08695649999999944
8033,62.0,0.08695649999999944,79.0,0.08695649999999944
8034,65.0,0.08695649999999944,94.0,0.08695650000000121
8035,58.0,0.08695650000000121,79.0,0.08695649999999944
8036,56.0,0.08695649999999944,83.0,0.08695649999999944
8037,50.0,0.08695649999999944,78.0,0.08695650000000121
8038,53.0,0.08695650000000121,93.0,0.08695649999999944
8039,46.0,0.08695649999999944,77.0,0.08695649999999944
8040,44.0,0.08695649999999944,81.0,0.08695650000000121
8041,38.0,0.08695650000000121,77.0,0.08695649999999944
8042,42.0,0.08695649999999944,95.0,0.08695649999999944
8043,34.0,0.08695649999999944,77.0,0.08695650000000121
8044,32.0,0.08695650000000121,80.0,0.08695649999999944
8045,26.0,0.08695649999999944,77.0,0.10273974999999957
8046,27.0,0.10273974999999957,101.0,2.7767539999999986
8047,27.0,0.08620699999999992,76.0,0.08620699999999992
8048,34.0,0.08620699999999992,80.0,0.08620699999999992
8049,34.0,0.0864552500000002,67.0,0.0864552500000002
8050,27.0,0.0864552500000002,60.0,0.09900999999999982
8051,24.0,0.09900999999999982,69.0,1.3851295000000015
8052,31.0,0.0862070000000017,50.0,0.08620699999999815
8053,39.0,0.08620699999999815,54.0,0.0862070000000017
8054,43.0,0.0862070000000017,53.0,0.08620699999999815
8055,44.0,0.08620699999999815,59.0,0.0862070000000017
8056,43.0,0.0862070000000017,51.0,0.08620699999999815
8057,51.0,0.08620699999999815,54.0,0.0862070000000017
8058,55.0,0.0862070000000017,52.0,0.08620699999999815
8059,56.0,0.08620699999999815,61.0,0.0862070000000017
8060,55.0,0.0862070000000017,51.0,0.08620699999999815
8061,63.0,0.08620699999999815,56.0,0.0862070000000017
8062,67.0,0.0862070000000017,52.0,0.08620699999999815
8063,68.0,0.08620699999999815,62.0,0.0862070000000017
8064,67.0,0.0862070000000017,54.0,0.08620699999999815
8065,75.0,0.08620699999999815,56.0,0.0862070000000017
8066,79.0,0.0862070000000017,52.0,0.09202450000000084
8067,26.0,0.09202450000000084,69.0,0.6997080000000011
8068,77.0,0.08746349999999836,53.0,0.08746350000000191
8069,74.0,0.08746350000000191,56.0,0.08746349999999836
8070,65.0,0.08746349999999836,53.0,0.08746350000000191
8071,68.0,0.08746350000000191,62.0,0.08746349999999836
8072,65.0,0.08746349999999836,53.0,0.08746350000000191
8073,62.0,0.08746350000000191,56.0,0.08746349999999836
8074,53.0,0.08746349999999836,52.0,0.08746350000000191
8075,24.0,0.08746350000000191,69.0,0.719936999999998
8076,53.0,0.08928574999999839,51.0,0.08928575000000194
8077,50.0,0.08928575000000194,55.0,0.08928574999999839
8078,41.0,0.08928574999999839,51.0,0.08928575000000194
8079,44.0,0.08928575000000194,60.0,0.08928574999999839
8080,41.0,0.08928574999999839,50.0,0.08928575000000194
8081,38.0,0.08928575000000194,54.0,0.08928574999999839
8082,29.0,0.08928574999999839,51.0,0.09493674999999868
8083,23.0,0.09493674999999868,69.0,1.3793119999999988
8084,29.0,0.0862070000000017,51.0,0.08620699999999815
8085,38.0,0.08620699999999815,54.0,0.0862070000000017
8086,41.0,0.0862070000000017,51.0,0.08620699999999815
8087,43.0,0.08620699999999815,64.0,0.0862070000000017
8088,41.0,0.0862070000000017,51.0,0.08620699999999815
8089,50.0,0.08620699999999815,55.0,0.0862070000000017
8090,53.0,0.0862070000000017,53.0,0.08620699999999815
8091,55.0,0.08620699999999815,66.0,0.0862070000000017
8092,53.0,0.0862070000000017,52.0,0.08620699999999815
8093,62.0,0.08620699999999815,58.0,0.0862070000000017
8094,65.0,0.0862070000000017,53.0,0.08620699999999815
8095,67.0,0.08620699999999815,66.0,0.0862070000000017
8096,65.0,0.0862070000000017,54.0,0.08620699999999815
8097,74.0,0.08620699999999815,59.0,0.0862070000000017
8098,77.0,0.0862070000000017,55.0,0.08620699999999815
8099,24.0,0.08620699999999815,72.0,0.6976739999999992
8100,75.0,0.0872092500000008,57.0,0.0872092500000008
8101,72.0,0.0872092500000008,59.0,0.08720924999999724
8102,63.0,0.08720924999999724,57.0,0.0872092500000008
8103,67.0,0.0872092500000008,71.0,0.0872092500000008
8104,63.0,0.0872092500000008,58.0,0.0872092500000008
8105,60.0,0.0872092500000008,63.0,0.08720924999999724
8106,51.0,0.08720924999999724,61.0,0.0872092500000008
8107,22.0,0.0872092500000008,79.0,0.6976739999999992
8108,51.0,0.0872092500000008,61.0,0.0872092500000008
8109,48.0,0.0872092500000008,66.0,0.0872092500000008
8110,39.0,0.0872092500000008,61.0,0.08720924999999724
8111,43.0,0.08720924999999724,77.0,0.0872092500000008
8112,39.0,0.0872092500000008,63.0,0.0872092500000008
8113,36.0,0.0872092500000008,69.0,0.0872092500000008
8114,27.0,0.0872092500000008,64.0,0.08720924999999724
8115,20.0,0.08720924999999724,90.0,2.806067500000001
8116,27.0,0.0872092500000008,65.0,0.0872092500000008
8117,36.0,0.0872092500000008,72.0,0.0872092500000008
8118,39.0,0.0872092500000008,66.0,0.0872092500000008
8119,43.0,0.0872092500000008,82.0,0.08720924999999724
8120,39.0,0.08720924999999724,67.0,0.0872092500000008
8121,48.0,0.0872092500000008,72.0,0.0872092500000008
8122,51.0,0.0872092500000008,68.0,0.0872092500000008
8123,55.0,0.0872092500000008,82.0,0.08720924999999724
8124,51.0,0.08720924999999724,69.0,0.0872092500000008
8125,60.0,0.0872092500000008,73.0,0.0872092500000008
8126,63.0,0.0872092500000008,70.0,0.0872092500000008
8127,67.0,0.0872092500000008,83.0,0.08720924999999724
8128,63.0,0.08720924999999724,71.0,0.0872092500000008
8129,72.0,0.0872092500000008,74.0,0.0872092500000008
8130,75.0,0.0872092500000008,71.0,0.0872092500000008
8131,78.0,0.0872092500000008,86.0,0.0872092500000008
8132,74.0,0.0872092500000008,71.0,0.08720924999999724
8133,72.0,0.08720924999999724,75.0,0.0872092500000008
8134,62.0,0.0872092500000008,68.0,0.0872092500000008
8135,66.0,0.0872092500000008,78.0,0.0872092500000008
8136,62.0,0.0872092500000008,63.0,0.08720924999999724
8137,60.0,0.08720924999999724,67.0,0.0872092500000008
8138,50.0,0.0872092500000008,62.0,0.0872092500000008
8139,54.0,0.0872092500000008,72.0,0.08875749999999982
8140,50.0,0.08875749999999982,59.0,0.08875749999999982
8141,48.0,0.08875749999999982,63.0,0.08875749999999982
8142,38.0,0.08875749999999982,55.0,0.08875749999999982
8143,42.0,0.08875749999999982,61.0,0.08875749999999982
8144,38.0,0.08875749999999982,57.0,0.08875749999999982
8145,36.0,0.08875749999999982,56.0,0.08875749999999982
8146,26.0,0.08875749999999982,52.0,0.09174300000000102
8147,19.0,0.09174300000000102,68.0,2.802832000000002
8148,26.0,0.08746349999999836,50.0,0.08746350000000191
8149,36.0,0.08746350000000191,54.0,0.08746349999999836
8150,38.0,0.08746349999999836,50.0,0.08746350000000191
8151,43.0,0.08746350000000191,61.0,0.08746349999999836
8152,38.0,0.08746349999999836,50.0,0.08746350000000191
8153,48.0,0.08746350000000191,54.0,0.08746349999999836
8154,50.0,0.08746349999999836,49.0,0.08746350000000191
8155,55.0,0.08746350000000191,62.0,0.08746349999999836
8156,50.0,0.08746349999999836,50.0,0.08746350000000191
8157,60.0,0.08746350000000191,54.0,0.08746349999999836
8158,62.0,0.08746349999999836,50.0,0.08746350000000191
8159,67.0,0.08746350000000191,62.0,0.08746349999999836
8160,62.0,0.08746349999999836,50.0,0.08746349999999836
8161,72.0,0.08746349999999836,54.0,0.08746349999999836
8162,74.0,0.08746349999999836,50.0,0.08746350000000547
8163,79.0,0.08746350000000547,62.0,0.08746349999999836
8164,74.0,0.08746349999999836,49.0,0.08746349999999836
8165,71.0,0.08746349999999836,54.0,0.08746349999999836
8166,62.0,0.08746349999999836,49.0,0.08746350000000547
8167,67.0,0.08746350000000547,61.0,0.08746349999999836
8168,62.0,0.08746349999999836,50.0,0.08746349999999836
8169,59.0,0.08746349999999836,54.0,0.08746349999999836
8170,50.0,0.08746349999999836,50.0,0.08746350000000547
8171,55.0,0.08746350000000547,61.0,0.08746349999999836
8172,50.0,0.08746349999999836,50.0,0.08746349999999836
8173,47.0,0.08746349999999836,54.0,0.08746349999999836
8174,38.0,0.08746349999999836,50.0,0.08746349999999836
8175,43.0,0.08746349999999836,53.0,0.08746350000000547
8176,38.0,0.08746350000000547,50.0,0.08746349999999836
8177,35.0,0.08746349999999836,54.0,0.08746349999999836
8178,26.0,0.08746349999999836,49.0,0.09146350000000325
8179,24.0,0.09146350000000325,68.0,1.3793119999999988
8180,31.0,0.0862070000000017,50.0,0.0862070000000017
8181,36.0,0.0862070000000017,54.0,0.0862069999999946
8182,40.0,0.0862069999999946,50.0,0.0862070000000017
8183,46.0,0.0862070000000017,61.0,0.0862070000000017
8184,43.0,0.0862070000000017,50.0,0.0862070000000017
8185,48.0,0.0862070000000017,54.0,0.0862069999999946
8186,52.0,0.0862069999999946,51.0,0.0862070000000017
8187,58.0,0.0862070000000017,62.0,0.0862070000000017
8188,55.0,0.0862070000000017,50.0,0.0862070000000017
8189,60.0,0.0862070000000017,55.0,0.0862069999999946
8190,64.0,0.0862069999999946,50.0,0.0862070000000017
8191,70.0,0.0862070000000017,63.0,0.0862070000000017
8192,64.0,0.0862070000000017,52.0,0.0862070000000017
8193,60.0,0.0862070000000017,57.0,0.0862069999999946
8194,55.0,0.0862069999999946,52.0,0.0862070000000017
8195,29.0,0.0862070000000017,69.0,1.3913159999999962
8196,63.0,0.0867052500000014,52.0,0.0867052500000014
8197,60.0,0.0867052500000014,57.0,0.0867052499999943
8198,55.0,0.0867052499999943,52.0,0.0867052500000014
8199,58.0,0.0867052500000014,65.0,0.0867052500000014
8200,51.0,0.0867052500000014,53.0,0.0867052500000014
8201,48.0,0.0867052500000014,57.0,0.0867052500000014
8202,43.0,0.0867052500000014,53.0,0.0867052499999943
8203,46.0,0.0867052499999943,65.0,0.0872092500000008
8204,39.0,0.0872092500000008,53.0,0.0872092500000008
8205,36.0,0.0872092500000008,57.0,0.0872092500000008
8206,31.0,0.0872092500000008,53.0,0.0872092500000008
8207,45.0,0.0872092500000008,64.0,0.08720924999999369
8208,39.0,0.08720924999999369,56.0,0.0872092500000008
8209,36.0,0.0872092500000008,56.0,0.0872092500000008
8210,29.0,0.0872092500000008,52.0,0.0872092500000008
8211,22.0,0.0872092500000008,80.0,2.7622372500000054
8212,29.0,0.0862070000000017,59.0,0.0862070000000017
8213,34.0,0.0862070000000017,64.0,0.0862069999999946
8214,39.0,0.0862069999999946,60.0,0.0862070000000017
8215,44.0,0.0862070000000017,72.0,0.0862070000000017
8216,41.0,0.0862070000000017,59.0,0.0862070000000017
8217,46.0,0.0862070000000017,64.0,0.0862069999999946
8218,51.0,0.0862069999999946,62.0,0.0862070000000017
8219,56.0,0.0862070000000017,73.0,0.0862070000000017
8220,53.0,0.0862070000000017,63.0,0.0862070000000017
8221,58.0,0.0862070000000017,67.0,0.0862069999999946
8222,63.0,0.0862069999999946,62.0,0.0862070000000017
8223,68.0,0.0862070000000017,72.0,0.0862070000000017
8224,65.0,0.0862070000000017,64.0,0.0862070000000017
8225,70.0,0.0862070000000017,67.0,0.0862069999999946
8226,75.0,0.0862069999999946,64.0,0.0862070000000017
8227,80.0,0.0862070000000017,74.0,0.0862070000000017
8228,74.0,0.0862070000000017,64.0,0.0862070000000017
8229,70.0,0.0862070000000017,68.0,0.0862069999999946
8230,65.0,0.0862069999999946,64.0,0.0862070000000017
8231,68.0,0.0862070000000017,74.0,0.0862070000000017
8232,62.0,0.0862070000000017,65.0,0.0862070000000017
8233,58.0,0.0862070000000017,68.0,0.0862069999999946
8234,53.0,0.0862069999999946,64.0,0.0862070000000017
8235,56.0,0.0862070000000017,72.0,0.0862070000000017
8236,50.0,0.0862070000000017,64.0,0.0862070000000017
8237,46.0,0.0862070000000017,68.0,0.0862070000000017
8238,41.0,0.0862070000000017,68.0,0.0862069999999946
8239,44.0,0.0862069999999946,72.0,0.0862070000000017
8240,38.0,0.0862070000000017,62.0,0.0862070000000017
8241,34.0,0.0862070000000017,67.0,0.0862070000000017
8242,29.0,0.0862070000000017,64.0,0.08982025000000249
8243,27.0,0.08982025000000249,95.0,1.3865629999999953
8244,27.0,0.0862070000000017,71.0,0.0862070000000017
8245,34.0,0.0862070000000017,76.0,0.0862069999999946
8246,37.0,0.0862069999999946,72.0,0.0862070000000017
8247,43.0,0.0862070000000017,80.0,0.0862070000000017
8248,39.0,0.0862070000000017,72.0,0.0862070000000017
8249,46.0,0.0862070000000017,76.0,0.0862069999999946
8250,49.0,0.0862069999999946,73.0,0.0862070000000017
8251,55.0,0.0862070000000017,85.0,0.0862070000000017
8252,51.0,0.0862070000000017,73.0,0.0862070000000017
8253,58.0,0.0862070000000017,77.0,0.0862069999999946
8254,61.0,0.0862069999999946,73.0,0.0862070000000017
8255,67.0,0.0862070000000017,86.0,0.0862070000000017
8256,63.0,0.0862070000000017,75.0,0.0862070000000017
8257,70.0,0.0862070000000017,78.0,0.0862069999999946
8258,75.0,0.0862069999999946,75.0,0.09345799999999826
8259,21.0,0.09345799999999826,96.0,1.387284000000001
8260,73.0,0.0867052500000014,75.0,0.0867052500000014
8261,66.0,0.0867052500000014,79.0,0.0867052499999943
8262,63.0,0.0867052499999943,74.0,0.0867052500000014
8263,66.0,0.0867052500000014,87.0,0.0867052500000014
8264,61.0,0.0867052500000014,74.0,0.0867052500000014
8265,54.0,0.0867052500000014,78.0,0.0867052500000014
8266,51.0,0.0867052500000014,73.0,0.0867052499999943
8267,54.0,0.0867052499999943,85.0,0.0867052500000014
8268,49.0,0.0867052500000014,74.0,0.0867052500000014
8269,42.0,0.0867052500000014,76.0,0.0867052500000014
8270,39.0,0.0867052500000014,73.0,0.0867052500000014
8271,42.0,0.0867052500000014,83.0,0.0867052499999943
8272,37.0,0.0867052499999943,72.0,0.0867052500000014
8273,30.0,0.0867052500000014,76.0,0.0867052500000014
8274,27.0,0.0867052500000014,72.0,0.0867052500000014
8275,20.0,0.0867052500000014,97.0,1.387284000000001
8276,27.0,0.0867052500000014,72.0,0.0867052499999943
8277,30.0,0.0867052499999943,76.0,0.0867052500000014
8278,36.0,0.0867052500000014,73.0,0.0867052500000014
8279,42.0,0.0867052500000014,79.0,0.0867052500000014
8280,39.0,0.0867052500000014,71.0,0.0867052500000014
8281,42.0,0.0867052500000014,76.0,0.0867052499999943
8282,48.0,0.0867052499999943,73.0,0.0867052500000014
8283,54.0,0.0867052500000014,82.0,0.0867052500000014
8284,51.0,0.0867052500000014,75.0,0.0867052500000014
8285,54.0,0.0867052500000014,77.0,0.0867052500000014
8286,60.0,0.0867052500000014,74.0,0.0867052500000014
8287,66.0,0.0867052500000014,85.0,0.0867052499999943
8288,63.0,0.0867052499999943,75.0,0.0867052500000014
8289,66.0,0.0867052500000014,78.0,0.0867052500000014
8290,72.0,0.0867052500000014,75.0,0.0867052500000014
8291,26.0,0.0867052500000014,100.0,1.393349999999998
8292,71.0,0.0867052500000014,73.0,0.0867052499999943
8293,66.0,0.0867052499999943,77.0,0.0867052500000014
8294,62.0,0.0867052500000014,73.0,0.0867052500000014
8295,66.0,0.0867052500000014,85.0,0.0867052500000014
8296,59.0,0.0867052500000014,71.0,0.0867052500000014
8297,54.0,0.0867052500000014,76.0,0.0867052499999943
8298,50.0,0.0867052499999943,71.0,0.0867052500000014
8299,54.0,0.0867052500000014,80.0,0.08746349999999836
8300,47.0,0.08746349999999836,70.0,0.08746349999999836
8301,42.0,0.08746349999999836,72.0,0.08746350000000547
8302,38.0,0.08746350000000547,67.0,0.08746349999999836
8303,42.0,0.08746349999999836,71.0,0.08746349999999836
8304,35.0,0.08746349999999836,65.0,0.08746349999999836
8305,30.0,0.08746349999999836,69.0,0.08746350000000547
8306,26.0,0.08746350000000547,66.0,0.08746349999999836
8307,13.0,0.08746349999999836,84.0,2.7988319999999973
8308,25.0,0.08746349999999836,66.0,0.08746349999999836
8309,32.0,0.08746349999999836,70.0,0.08746350000000547
8310,35.0,0.08746350000000547,67.0,0.08746349999999836
8311,41.0,0.08746349999999836,76.0,0.08746349999999836
8312,37.0,0.08746349999999836,64.0,0.08746349999999836
8313,44.0,0.08746349999999836,69.0,0.08746349999999836
8314,47.0,0.08746349999999836,65.0,0.08746350000000547
8315,53.0,0.08746350000000547,76.0,0.08746349999999836
8316,49.0,0.08746349999999836,66.0,0.08746349999999836
8317,56.0,0.08746349999999836,71.0,0.08746349999999836
8318,59.0,0.08746349999999836,67.0,0.08746350000000547
8319,65.0,0.08746350000000547,76.0,0.08746349999999836
8320,61.0,0.08746349999999836,65.0,0.08746349999999836
8321,68.0,0.08746349999999836,71.0,0.08746349999999836
8322,71.0,0.08746349999999836,67.0,0.08746349999999836
8323,25.0,0.08746349999999836,87.0,1.3994160000000022
8324,71.0,0.08746350000000547,70.0,0.08746349999999836
8325,67.0,0.08746349999999836,74.0,0.08746349999999836
8326,61.0,0.08746349999999836,70.0,0.08746349999999836
8327,65.0,0.08746349999999836,84.0,0.08746350000000547
8328,59.0,0.08746350000000547,71.0,0.08746349999999836
8329,55.0,0.08746349999999836,76.0,0.08746349999999836
8330,49.0,0.08746349999999836,71.0,0.08746349999999836
8331,53.0,0.08746349999999836,87.0,0.08746350000000547
8332,47.0,0.08746350000000547,72.0,0.08746349999999836
8333,43.0,0.08746349999999836,76.0,0.08746349999999836
8334,37.0,0.08746349999999836,70.0,0.08746349999999836
8335,41.0,0.08746349999999836,86.0,0.08746350000000547
8336,24.0,0.0864552500000002,85.0,0.7048370000000048
8337,51.0,0.08746349999999836,64.0,0.08746349999999836
8338,58.0,0.08746349999999836,68.0,0.08746350000000547
8339,55.0,0.08746350000000547,64.0,0.08746349999999836
8340,60.0,0.08746349999999836,75.0,0.08746349999999836
8341,63.0,0.08746349999999836,65.0,0.08746349999999836
8342,70.0,0.08746349999999836,69.0,0.08746350000000547
8343,67.0,0.08746350000000547,65.0,0.09259250000000208
8344,17.0,0.09259250000000208,88.0,0.6916420000000016
8345,63.0,0.0864552500000002,67.0,0.0864552500000002
8346,60.0,0.0864552500000002,70.0,0.0864552500000002
8347,53.0,0.0864552500000002,66.0,0.0864552500000002
8348,56.0,0.0864552500000002,77.0,0.0864552500000002
8349,51.0,0.0864552500000002,67.0,0.0864552500000002
8350,48.0,0.0864552500000002,72.0,0.0864552500000002
8351,41.0,0.0864552500000002,67.0,0.0864552500000002
8352,22.0,0.0864552500000002,88.0,0.703708000000006
8353,50.0,0.08746349999999836,66.0,0.08746349999999836
8354,56.0,0.08746349999999836,72.0,0.08746350000000547
8355,53.0,0.08746350000000547,68.0,0.08746349999999836
8356,58.0,0.08746349999999836,78.0,0.08746349999999836
8357,62.0,0.08746349999999836,68.0,0.08746349999999836
8358,68.0,0.08746349999999836,74.0,0.08746350000000547
8359,65.0,0.08746350000000547,68.0,0.09146350000000325
8360,15.0,0.09146350000000325,94.0,0.6916420000000016
8361,62.0,0.0864552500000002,70.0,0.0864552500000002
8362,58.0,0.0864552500000002,75.0,0.0864552500000002
8363,51.0,0.0864552500000002,70.0,0.0864552500000002
8364,55.0,0.0864552500000002,83.0,0.0864552500000002
8365,50.0,0.0864552500000002,70.0,0.0864552500000002
8366,46.0,0.0864552500000002,76.0,0.0864552500000002
8367,39.0,0.0864552500000002,70.0,0.0864552500000002
8368,20.0,0.0864552500000002,97.0,0.6997080000000011
8369,48.0,0.08746349999999836,71.0,0.08746349999999836
8370,55.0,0.08746349999999836,77.0,0.08746350000000547
8371,51.0,0.08746350000000547,71.0,0.08746349999999836
8372,56.0,0.08746349999999836,86.0,0.08746349999999836
8373,60.0,0.08746349999999836,73.0,0.08746349999999836
8374,67.0,0.08746349999999836,79.0,0.08746350000000547
8375,63.0,0.08746350000000547,75.0,0.08746349999999836
8376,26.0,0.08746349999999836,101.0,1.034483999999999
8377,60.0,0.0862070000000017,76.0,0.0862070000000017
8378,56.0,0.0862070000000017,80.0,0.0862069999999946
8379,50.0,0.0862069999999946,75.0,0.0862070000000017
8380,53.0,0.0862070000000017,90.0,0.0862070000000017
8381,48.0,0.0862070000000017,76.0,0.0862070000000017
8382,44.0,0.0862070000000017,80.0,0.0862069999999946
8383,38.0,0.0862069999999946,74.0,0.0862070000000017
8384,41.0,0.0862070000000017,90.0,0.0862070000000017
8385,36.0,0.0862070000000017,75.0,0.0862070000000017
8386,32.0,0.0862070000000017,80.0,0.0862069999999946
8387,26.0,0.0862069999999946,75.0,0.0862070000000017
8388,14.0,0.0862070000000017,102.0,1.394843999999999
8389,26.0,0.36036,100.0,1.034483999999999
8390,60.0,0.0862070000000017,75.0,0.0862070000000017
8391,57.0,0.0862070000000017,80.0,0.0862069999999946
8392,50.0,0.0862069999999946,75.0,0.0862070000000017
8393,54.0,0.0862070000000017,91.0,0.0862070000000017
8394,48.0,0.0862070000000017,76.0,0.0862070000000017
8395,45.0,0.0862070000000017,80.0,0.0862069999999946
8396,38.0,0.0862069999999946,74.0,0.0862070000000017
8397,42.0,0.0862070000000017,91.0,0.0862070000000017
8398,36.0,0.0862070000000017,75.0,0.0862070000000017
8399,33.0,0.0862070000000017,80.0,0.0862069999999946
8400,26.0,0.0862069999999946,76.0,0.0862070000000017
8401,14.0,0.0862070000000017,93.0,0.36363600000000673
8402,19.0,0.36363600000000673,100.0,2.422789999999992
8403,26.0,0.0862070000000017,76.0,0.0862070000000017
8404,31.0,0.0862070000000017,80.0,0.0862070000000017
8405,35.0,0.0862070000000017,76.0,0.0862070000000017
8406,43.0,0.0862070000000017,91.0,0.08620699999998749
8407,38.0,0.08620699999998749,76.0,0.0862070000000017
8408,43.0,0.0862070000000017,80.0,0.0862070000000017
8409,47.0,0.0862070000000017,77.0,0.0862070000000017
8410,55.0,0.0862070000000017,91.0,0.0862070000000017
8411,50.0,0.0862070000000017,76.0,0.0862070000000017
8412,55.0,0.0862070000000017,80.0,0.0862070000000017
8413,59.0,0.0862070000000017,76.0,0.0862070000000017
8414,67.0,0.0862070000000017,91.0,0.08620699999998749
8415,62.0,0.08620699999998749,75.0,0.0862070000000017
8416,67.0,0.0862070000000017,80.0,0.0862070000000017
8417,71.0,0.0862070000000017,75.0,0.0862070000000017
8418,79.0,0.0862070000000017,91.0,0.08695649999999944
8419,71.0,0.08695649999999944,77.0,0.08695649999999944
8420,67.0,0.08695649999999944,79.0,0.08695649999999944
8421,62.0,0.08695649999999944,74.0,0.08695649999999944
8422,67.0,0.08695649999999944,88.0,0.08695649999999944
8423,59.0,0.08695649999999944,72.0,0.08695649999999944
8424,55.0,0.08695649999999944,76.0,0.08695649999999944
8425,50.0,0.08695649999999944,69.0,0.08695649999999944
8426,55.0,0.08695649999999944,85.0,0.08695649999999944
8427,47.0,0.08695649999999944,69.0,0.08695649999999944
8428,43.0,0.08695649999999944,72.0,0.08695649999999944
8429,38.0,0.08695649999999944,67.0,0.08695649999999944
8430,17.0,0.08695649999999944,88.0,0.36036
8431,38.0,0.09009000000000356,65.0,0.09009000000000356
8432,34.0,0.09009000000000356,69.0,0.09008999999998935
8433,29.0,0.09008999999998935,64.0,0.09009000000000356
8434,15.0,0.09009000000000356,85.0,2.807511749999989
8435,27.0,0.0862070000000017,64.0,0.0862070000000017
8436,34.0,0.0862070000000017,68.0,0.0862070000000017
8437,39.0,0.0862070000000017,63.0,0.0862070000000017
8438,43.0,0.0862070000000017,72.0,0.08620699999998749
8439,39.0,0.08620699999998749,63.0,0.0862070000000017
8440,46.0,0.0862070000000017,68.0,0.0862070000000017
8441,51.0,0.0862070000000017,65.0,0.0862070000000017
8442,55.0,0.0862070000000017,76.0,0.0862070000000017
8443,51.0,0.0862070000000017,64.0,0.0862070000000017
8444,58.0,0.0862070000000017,70.0,0.0862070000000017
8445,63.0,0.0862070000000017,64.0,0.0862070000000017
8446,67.0,0.0862070000000017,77.0,0.08620699999998749
8447,63.0,0.08620699999998749,65.0,0.0862070000000017
8448,70.0,0.0862070000000017,70.0,0.0862070000000017
8449,75.0,0.0862070000000017,65.0,0.0862070000000017
8450,27.0,0.0862070000000017,78.0,1.4281997499999903
8451,75.0,0.0862070000000017,66.0,0.0862070000000017
8452,70.0,0.0862070000000017,71.0,0.0862070000000017
8453,63.0,0.0862070000000017,68.0,0.0862070000000017
8454,67.0,0.0862070000000017,77.0,0.08620699999998749
8455,63.0,0.08620699999998749,66.0,0.0862070000000017
8456,58.0,0.0862070000000017,70.0,0.0862070000000017
8457,51.0,0.0862070000000017,65.0,0.0862070000000017
8458,55.0,0.0862070000000017,76.0,0.09009000000000356
8459,51.0,0.09009000000000356,65.0,0.09009000000000356
8460,46.0,0.09009000000000356,69.0,0.09008999999998935
8461,39.0,0.09008999999998935,63.0,0.09009000000000356
8462,43.0,0.09009000000000356,75.0,0.09009000000000356
8463,39.0,0.09009000000000356,63.0,0.09008999999998935
8464,34.0,0.09008999999998935,68.0,0.09009000000000356
8465,27.0,0.09009000000000356,63.0,0.10791374999999448
8466,20.0,0.10791374999999448,85.0,1.4200812499999955
8467,27.0,0.0872092500000008,64.0,0.0872092500000008
8468,36.0,0.0872092500000008,68.0,0.0872092500000008
8469,39.0,0.0872092500000008,64.0,0.0872092500000008
8470,44.0,0.0872092500000008,78.0,0.0872092500000008
8471,39.0,0.0872092500000008,64.0,0.0872092500000008
8472,48.0,0.0872092500000008,69.0,0.0872092500000008
8473,51.0,0.0872092500000008,67.0,0.0872092500000008
8474,56.0,0.0872092500000008,82.0,0.089552249999997
8475,51.0,0.089552249999997,68.0,0.089552249999997
8476,60.0,0.089552249999997,73.0,0.08955225000001121
8477,63.0,0.08955225000001121,69.0,0.089552249999997
8478,68.0,0.089552249999997,83.0,0.089552249999997
8479,63.0,0.089552249999997,69.0,0.089552249999997
8480,72.0,0.089552249999997,74.0,0.089552249999997
8481,75.0,0.089552249999997,70.0,0.09554149999999595
8482,21.0,0.09554149999999595,91.0,1.4172297500000042
8483,75.0,0.0872092500000008,70.0,0.0872092500000008
8484,72.0,0.0872092500000008,77.0,0.0872092500000008
8485,63.0,0.0872092500000008,71.0,0.0872092500000008
8486,67.0,0.0872092500000008,89.0,0.0872092500000008
8487,63.0,0.0872092500000008,72.0,0.0872092500000008
8488,60.0,0.0872092500000008,79.0,0.0872092500000008
8489,51.0,0.0872092500000008,73.0,0.0872092500000008
8490,55.0,0.0872092500000008,89.0,0.08720924999998658
8491,51.0,0.08720924999998658,73.0,0.0872092500000008
8492,48.0,0.0872092500000008,78.0,0.0872092500000008
8493,39.0,0.0872092500000008,72.0,0.0872092500000008
8494,41.0,0.0872092500000008,90.0,0.0872092500000008
8495,39.0,0.0872092500000008,72.0,0.0872092500000008
8496,36.0,0.0872092500000008,79.0,0.0872092500000008
8497,27.0,0.0872092500000008,71.0,0.10909100000000649
8498,22.0,0.10909100000000649,101.0,0.707964000000004
8499,26.0,0.0884954999999934,75.0,0.08849550000000761
8500,34.0,0.08849550000000761,80.0,0.0884954999999934
8501,38.0,0.0884954999999934,75.0,0.08849550000000761
8502,41.0,0.08849550000000761,91.0,0.0884954999999934
8503,38.0,0.0884954999999934,75.0,0.08849550000000761
8504,46.0,0.08849550000000761,80.0,0.0884954999999934
8505,50.0,0.0884954999999934,76.0,0.08849550000000761
8506,21.0,0.08849550000000761,102.0,0.3692309999999992
8507,50.0,0.09230775000000335,76.0,0.09230775000000335
8508,58.0,0.09230775000000335,82.0,0.09230774999998914
8509,62.0,0.09230774999998914,76.0,0.09230775000000335
8510,19.0,0.09230775000000335,103.0,0.37735800000000097
8511,62.0,0.0943395000000038,76.0,0.09433949999998958
8512,70.0,0.09433949999998958,83.0,0.0943395000000038
8513,72.0,0.0943395000000038,76.0,0.0943395000000038
8514,17.0,0.0943395000000038,101.0,1.4493892499999959
8515,72.0,0.09009000000000356,77.0,0.09009000000000356
8516,69.0,0.09009000000000356,84.0,0.09008999999998935
8517,63.0,0.09008999999998935,76.0,0.09009000000000356
8518,65.0,0.09009000000000356,95.0,0.09009000000000356
8519,60.0,0.09009000000000356,76.0,0.09008999999998935
8520,57.0,0.09008999999998935,83.0,0.09009000000000356
8521,51.0,0.09009000000000356,77.0,0.09009000000000356
8522,53.0,0.09009000000000356,93.0,0.09009000000000356
8523,48.0,0.09009000000000356,77.0,0.09009000000000356
8524,45.0,0.09009000000000356,81.0,0.09008999999998935
8525,39.0,0.09008999999998935,76.0,0.09009000000000356
8526,41.0,0.09009000000000356,91.0,0.09009000000000356
8527,36.0,0.09009000000000356,75.0,0.09008999999998935
8528,33.0,0.09008999999998935,80.0,0.09009000000000356
8529,27.0,0.09009000000000356,74.0,0.09803924999999936
8530,22.0,0.09803924999999936,102.0,2.7983912499999946
8531,27.0,0.08695649999999944,75.0,0.08695649999999944
8532,32.0,0.08695649999999944,80.0,0.08695649999999944
8533,35.0,0.08695649999999944,74.0,0.08695649999999944
8534,41.0,0.08695649999999944,91.0,0.08695649999999944
8535,39.0,0.08695649999999944,74.0,0.08695649999999944
8536,44.0,0.08695649999999944,80.0,0.08695649999999944
8537,47.0,0.08695649999999944,76.0,0.08695649999999944
8538,53.0,0.08695649999999944,93.0,0.08695649999999944
8539,51.0,0.08695649999999944,76.0,0.08695649999999944
8540,56.0,0.08695649999999944,82.0,0.08695649999999944
8541,59.0,0.08695649999999944,77.0,0.08695649999999944
8542,65.0,0.08695649999999944,94.0,0.08695650000001365
8543,63.0,0.08695650000001365,78.0,0.08695649999999944
8544,68.0,0.08695649999999944,83.0,0.08695649999999944
8545,71.0,0.08695649999999944,76.0,0.08695649999999944
8546,77.0,0.08695649999999944,95.0,0.08695649999999944
8547,70.0,0.08695649999999944,78.0,0.08695649999999944
8548,68.0,0.08695649999999944,84.0,0.08695649999999944
8549,62.0,0.08695649999999944,77.0,0.08695649999999944
8550,65.0,0.08695649999999944,94.0,0.08695649999999944
8551,58.0,0.08695649999999944,78.0,0.08695649999999944
8552,56.0,0.08695649999999944,83.0,0.08695649999999944
8553,50.0,0.08695649999999944,77.0,0.08695649999999944
8554,53.0,0.08695649999999944,92.0,0.08695649999999944
8555,46.0,0.08695649999999944,77.0,0.08695649999999944
8556,44.0,0.08695649999999944,81.0,0.08695649999999944
8557,38.0,0.08695649999999944,75.0,0.08695649999999944
8558,42.0,0.08695649999999944,91.0,0.08695649999999944
8559,34.0,0.08695649999999944,74.0,0.08695649999999944
8560,32.0,0.08695649999999944,80.0,0.08695649999999944
8561,26.0,0.08695649999999944,75.0,0.1027397499999978
8562,27.0,0.1027397499999978,95.0,2.776753999999997
8563,27.0,0.0862070000000017,75.0,0.0862070000000017
8564,34.0,0.0862070000000017,80.0,0.0862070000000017
8565,39.0,0.0862070000000017,75.0,0.0862070000000017
8566,43.0,0.0862070000000017,92.0,0.08620699999998749
8567,39.0,0.08620699999998749,75.0,0.0862070000000017
8568,46.0,0.0862070000000017,80.0,0.0862070000000017
8569,51.0,0.0862070000000017,76.0,0.0862070000000017
8570,55.0,0.0862070000000017,93.0,0.0862070000000017
8571,51.0,0.0862070000000017,76.0,0.0862070000000017
8572,58.0,0.0862070000000017,82.0,0.0862070000000017
8573,63.0,0.0862070000000017,76.0,0.0862070000000017
8574,67.0,0.0862070000000017,94.0,0.08620699999998749
8575,63.0,0.08620699999998749,78.0,0.0862070000000017
8576,70.0,0.0862070000000017,83.0,0.0862070000000017
8577,75.0,0.0862070000000017,78.0,0.0862070000000017
8578,79.0,0.0862070000000017,96.0,0.0862070000000017
8579,75.0,0.0862070000000017,77.0,0.0862070000000017
8580,70.0,0.0862070000000017,84.0,0.0862070000000017
8581,63.0,0.0862070000000017,77.0,0.0862070000000017
8582,67.0,0.0862070000000017,95.0,0.08620699999998749
8583,63.0,0.08620699999998749,76.0,0.0862070000000017
8584,58.0,0.0862070000000017,83.0,0.0862070000000017
8585,51.0,0.0862070000000017,76.0,0.0862070000000017
8586,55.0,0.0862070000000017,94.0,0.08746349999999836
8587,51.0,0.08746349999999836,77.0,0.08746349999999836
8588,46.0,0.08746349999999836,81.0,0.08746349999999836
8589,39.0,0.08746349999999836,77.0,0.08746349999999836
8590,43.0,0.08746349999999836,92.0,0.08746350000001257
8591,39.0,0.08746350000001257,76.0,0.08746349999999836
8592,34.0,0.08746349999999836,80.0,0.08746349999999836
8593,27.0,0.08746349999999836,74.0,0.09554149999999595
8594,24.0,0.09554149999999595,100.0,2.4368459999999885
8595,27.0,0.0867052499999943,75.0,0.0867052500000085
8596,32.0,0.0867052500000085,80.0,0.0867052499999943
8597,39.0,0.0867052499999943,75.0,0.0867052500000085
8598,44.0,0.0867052500000085,85.0,0.0867052499999943
8599,39.0,0.0867052499999943,75.0,0.0867052499999943
8600,44.0,0.0867052499999943,80.0,0.0867052500000085
8601,51.0,0.0867052500000085,76.0,0.0867052499999943
8602,56.0,0.0867052499999943,88.0,0.0867052500000085
8603,51.0,0.0867052500000085,76.0,0.0867052499999943
8604,56.0,0.0867052499999943,82.0,0.0867052499999943
8605,63.0,0.0867052499999943,77.0,0.0867052500000085
8606,68.0,0.0867052500000085,90.0,0.0867052499999943
8607,63.0,0.0867052499999943,78.0,0.0867052500000085
8608,68.0,0.0867052500000085,83.0,0.0867052499999943
8609,75.0,0.0867052499999943,78.0,0.0867052499999943
8610,79.0,0.0867052499999943,92.0,0.08746349999999836
8611,75.0,0.08746349999999836,78.0,0.08746349999999836
8612,69.0,0.08746349999999836,84.0,0.08746349999999836
8613,63.0,0.08746349999999836,78.0,0.08746349999999836
8614,67.0,0.08746349999999836,91.0,0.08746350000001257
8615,63.0,0.08746350000001257,79.0,0.08746349999999836
8616,57.0,0.08746349999999836,83.0,0.08746349999999836
8617,51.0,0.08746349999999836,76.0,0.08746349999999836
8618,54.0,0.08746349999999836,90.0,0.08746349999999836
8619,51.0,0.08746349999999836,78.0,0.08746349999999836
8620,45.0,0.08746349999999836,81.0,0.08746349999999836
8621,39.0,0.08746349999999836,75.0,0.08746349999999836
8622,23.0,0.08746349999999836,101.0,0.36073650000000157
8623,56.0,0.0862070000000017,62.0,0.0862070000000017
8624,50.0,0.0862070000000017,52.0,0.0862070000000017
8625,46.0,0.0862070000000017,55.0,0.0862070000000017
8626,41.0,0.0862070000000017,52.0,0.0862070000000017
8627,44.0,0.0862070000000017,62.0,0.0862070000000017
8628,38.0,0.0862070000000017,50.0,0.08620699999998749
8629,34.0,0.08620699999998749,54.0,0.0862070000000017
8630,29.0,0.0862070000000017,50.0,0.08982025000000249
8631,15.0,0.08982025000000249,70.0,2.7830074999999965
8632,27.0,0.0862070000000017,52.0,0.0862070000000017
8633,34.0,0.0862070000000017,56.0,0.0862070000000017
8634,39.0,0.0862070000000017,51.0,0.0862070000000017
8635,43.0,0.0862070000000017,63.0,0.08620699999998749
8636,39.0,0.08620699999998749,53.0,0.0862070000000017
8637,46.0,0.0862070000000017,57.0,0.0862070000000017
8638,51.0,0.0862070000000017,52.0,0.0862070000000017
8639,55.0,0.0862070000000017,65.0,0.0862070000000017
8640,51.0,0.0862070000000017,52.0,0.0862070000000017
8641,61.0,0.0862070000000017,58.0,0.0862070000000017
8642,63.0,0.0862070000000017,53.0,0.0862070000000017
8643,70.0,0.0862070000000017,70.0,0.08620699999998749
8644,63.0,0.08620699999998749,61.0,0.0862070000000017
8645,61.0,0.0862070000000017,63.0,0.0862070000000017
8646,55.0,0.0862070000000017,63.0,0.0862070000000017
8647,27.0,0.0862070000000017,75.0,1.4036954999999978
8648,63.0,0.08746349999999836,61.0,0.08746349999999836
8649,60.0,0.08746349999999836,63.0,0.08746349999999836
8650,54.0,0.08746349999999836,61.0,0.08746349999999836
8651,57.0,0.08746349999999836,68.0,0.08746350000001257
8652,51.0,0.08746350000001257,62.0,0.08746349999999836
8653,48.0,0.08746349999999836,63.0,0.08746349999999836
8654,42.0,0.08746349999999836,61.0,0.08746349999999836
8655,56.0,0.08746349999999836,68.0,0.08746349999999836
8656,50.0,0.08746349999999836,60.0,0.08746349999999836
8657,47.0,0.08746349999999836,60.0,0.08746349999999836
8658,41.0,0.08746349999999836,58.0,0.08746349999999836
8659,44.0,0.08746349999999836,70.0,0.08746349999999836
8660,38.0,0.08746349999999836,61.0,0.08746350000001257
8661,35.0,0.08746350000001257,61.0,0.08746349999999836
8662,29.0,0.08746349999999836,57.0,0.09174299999999391
8663,15.0,0.09174299999999391,79.0,1.3793119999999988
8664,27.0,0.0862070000000017,60.0,0.0862070000000017
8665,34.0,0.0862070000000017,64.0,0.0862070000000017
8666,39.0,0.0862070000000017,60.0,0.0862070000000017
8667,43.0,0.0862070000000017,71.0,0.08620699999998749
8668,39.0,0.08620699999998749,65.0,0.0862070000000017
8669,46.0,0.0862070000000017,69.0,0.0862070000000017
8670,51.0,0.0862070000000017,65.0,0.0862070000000017
8671,58.0,0.0862070000000017,75.0,0.0862070000000017
8672,55.0,0.0862070000000017,67.0,0.0862070000000017
8673,58.0,0.0862070000000017,73.0,0.0862070000000017
8674,63.0,0.0862070000000017,68.0,0.0862070000000017
8675,67.0,0.0862070000000017,80.0,0.08620699999998749
8676,63.0,0.08620699999998749,72.0,0.0862070000000017
8677,58.0,0.0862070000000017,77.0,0.0862070000000017
8678,51.0,0.0862070000000017,73.0,0.0862070000000017
8679,22.0,0.0862070000000017,95.0,1.3904822500000051
8680,60.0,0.0862070000000017,75.0,0.0862070000000017
8681,57.0,0.0862070000000017,79.0,0.0862070000000017
8682,51.0,0.0862070000000017,73.0,0.0862070000000017
8683,54.0,0.0862070000000017,84.0,0.08620699999998749
8684,48.0,0.08620699999998749,70.0,0.0862070000000017
8685,45.0,0.0862070000000017,76.0,0.0862070000000017
8686,39.0,0.0862070000000017,71.0,0.0862070000000017
8687,53.0,0.0862070000000017,80.0,0.0872092500000008
8688,47.0,0.0872092500000008,70.0,0.0872092500000008
8689,44.0,0.0872092500000008,72.0,0.0872092500000008
8690,38.0,0.0872092500000008,68.0,0.0872092500000008
8691,41.0,0.0872092500000008,80.0,0.0872092500000008
8692,35.0,0.0872092500000008,66.0,0.0872092500000008
8693,32.0,0.0872092500000008,69.0,0.0872092500000008
8694,26.0,0.0872092500000008,64.0,0.0903615000000002
8695,22.0,0.0903615000000002,88.0,2.768774499999992
8696,25.0,0.0862070000000017,60.0,0.0862070000000017
8697,31.0,0.0862070000000017,64.0,0.0862070000000017
8698,34.0,0.0862070000000017,61.0,0.0862070000000017
8699,40.0,0.0862070000000017,76.0,0.08620699999998749
8700,37.0,0.08620699999998749,64.0,0.0862070000000017
8701,43.0,0.0862070000000017,69.0,0.0862070000000017
8702,46.0,0.0862070000000017,64.0,0.0862070000000017
8703,52.0,0.0862070000000017,75.0,0.0862070000000017
8704,49.0,0.0862070000000017,66.0,0.0862070000000017
8705,55.0,0.0862070000000017,73.0,0.0862070000000017
8706,58.0,0.0862070000000017,69.0,0.0862070000000017
8707,64.0,0.0862070000000017,80.0,0.08620699999998749
8708,61.0,0.08620699999998749,71.0,0.0862070000000017
8709,67.0,0.0862070000000017,77.0,0.0862070000000017
8710,70.0,0.0862070000000017,73.0,0.0903615000000002
8711,76.0,0.0903615000000002,84.0,0.0862070000000017
8712,69.0,0.0862070000000017,75.0,0.0862070000000017
8713,66.0,0.0862070000000017,79.0,0.0862070000000017
8714,60.0,0.0862070000000017,72.0,0.0862070000000017
8715,64.0,0.0862070000000017,82.0,0.08620699999998749
8716,57.0,0.08620699999998749,71.0,0.0862070000000017
8717,54.0,0.0862070000000017,76.0,0.0862070000000017
8718,48.0,0.0862070000000017,69.0,0.0862070000000017
8719,52.0,0.0862070000000017,81.0,0.08695649999999944
8720,45.0,0.08695649999999944,68.0,0.08695649999999944
8721,42.0,0.08695649999999944,72.0,0.08695649999999944
8722,36.0,0.08695649999999944,68.0,0.08695649999999944
8723,51.0,0.08695649999999944,78.0,0.08695649999999944
8724,45.0,0.08695649999999944,65.0,0.08695649999999944
8725,42.0,0.08695649999999944,69.0,0.08695649999999944
8726,36.0,0.08695649999999944,64.0,0.08695649999999944
8727,22.0,0.08695649999999944,89.0,2.78198633333335
8728,35.0,0.0862070000000017,68.0,0.0862070000000017
8729,41.0,0.0862070000000017,64.0,0.0862070000000017
8730,44.0,0.0862070000000017,69.0,0.0862070000000017
8731,51.0,0.0862070000000017,76.0,0.08620699999998749
8732,47.0,0.08620699999998749,68.0,0.0862070000000017
8733,53.0,0.0862070000000017,72.0,0.0862070000000017
8734,56.0,0.0862070000000017,69.0,0.0862070000000017
8735,63.0,0.0862070000000017,78.0,0.0862070000000017
8736,59.0,0.0862070000000017,71.0,0.0862070000000017
8737,65.0,0.0862070000000017,75.0,0.0862070000000017
8738,68.0,0.0862070000000017,72.0,0.0862070000000017
8739,75.0,0.0862070000000017,81.0,0.08620699999998749
8740,68.0,0.08620699999998749,74.0,0.0862070000000017
8741,65.0,0.0862070000000017,78.0,0.0862070000000017
8742,59.0,0.0862070000000017,74.0,0.0862070000000017
8743,74.0,0.0862070000000017,86.0,0.0862070000000017
8744,68.0,0.0862070000000017,74.0,0.0862070000000017
8745,65.0,0.0862070000000017,79.0,0.0862070000000017
8746,58.0,0.0862070000000017,74.0,0.0862070000000017
8747,62.0,0.0862070000000017,81.0,0.0864552500000002
8748,56.0,0.0864552500000002,73.0,0.0864552500000002
8749,53.0,0.0864552500000002,76.0,0.0864552500000002
8750,46.0,0.0864552500000002,71.0,0.0865385833333363
8751,50.0,0.0865385833333363,77.0,0.0867052499999943
8752,44.0,0.0867052499999943,69.0,0.0867052500000085
8753,41.0,0.0867052500000085,73.0,0.0867052499999943
8754,34.0,0.0867052499999943,69.0,0.0881902500000109
8755,38.0,0.0881902500000109,80.0,0.09090899999999635
8756,32.0,0.09090899999999635,66.0,0.09090899999999635
8757,29.0,0.09090899999999635,69.0,0.09090900000001056
8758,22.0,0.09090900000001056,68.0,0.09090899999999635
8759,15.0,0.09090899999999635,102.0,2.8038140000000027
8760,22.0,0.0867052499999943,66.0,0.0867052500000085
8761,31.0,0.0867052500000085,68.0,0.0867052499999943
8762,34.0,0.0867052499999943,65.0,0.0867052500000085
8763,39.0,0.0867052500000085,78.0,0.0867052499999943
8764,34.0,0.0867052499999943,71.0,0.0867052499999943
8765,43.0,0.0867052499999943,72.0,0.0864552500000002
8766,46.0,0.0864552500000002,68.0,0.0864552500000002
8767,51.0,0.0864552500000002,83.0,0.0864552500000002
8768,46.0,0.0864552500000002,70.0,0.0864552500000002
8769,55.0,0.0864552500000002,75.0,0.0864552500000002
8770,58.0,0.0864552500000002,72.0,0.0864552500000002
8771,63.0,0.0864552500000002,87.0,0.0862070000000017
8772,58.0,0.0862070000000017,72.0,0.0862070000000017
8773,67.0,0.0862070000000017,78.0,0.09090899999999635
8774,70.0,0.09090899999999635,75.0,0.09090900000001056
8775,75.0,0.09090900000001056,91.0,0.08695649999999944
8776,70.0,0.08695649999999944,75.0,0.08695649999999944
8777,67.0,0.08695649999999944,80.0,0.0872092500000008
8778,58.0,0.0872092500000008,75.0,0.0872092500000008
8779,63.0,0.0872092500000008,91.0,0.08746349999999836
8780,58.0,0.08746349999999836,73.0,0.08746349999999836
8781,55.0,0.08746349999999836,78.0,0.08771925000000635
8782,46.0,0.08771925000000635,74.0,0.08771924999999214
8783,51.0,0.08771924999999214,89.0,0.08797649999999635
8784,46.0,0.08797649999999635,77.0,0.08797650000001056
8785,43.0,0.08797650000001056,71.0,0.08823524999999677
8786,34.0,0.08823524999999677,73.0,0.08823524999999677
8787,39.0,0.08823524999999677,86.0,0.0884954999999934
8788,34.0,0.0884954999999934,73.0,0.08849550000000761
8789,31.0,0.08849550000000761,76.0,0.08875749999999982
8790,22.0,0.08875749999999982,70.0,0.09375
8791,15.0,0.09375,102.0,1.4243320000000068
8792,37.0,0.0,41.0,0.4493945270833334
8793,36.0,0.44850167083333337,29.0,0.07142850000000006
8794,37.0,0.07142850000000006,31.0,0.0714284999999999
8795,40.0,0.0714284999999999,33.0,0.07142850000000012
8796,44.0,0.07142850000000012,37.0,0.11363625
8797,36.0,0.454545,29.0,0.07142850000000012
8798,37.0,0.07142850000000012,31.0,0.0714284999999999
8799,40.0,0.0714284999999999,32.0,0.0714284999999999
8800,44.0,0.0714284999999999,37.0,0.11278199999999994
8801,37.0,1.3533840000000001,100.0,0.09375
8802,69.0,0.5625,92.0,1.125
8803,66.0,1.125,61.0,0.28125
8804,68.0,0.28125,68.0,0.09375
8805,69.0,0.09375,71.0,0.20408150000000003
8806,68.0,0.20408150000000003,68.0,0.20408150000000003
8807,24.0,0.40816300000000005,27.0,0.06802716666666697
8808,37.0,0.06802716666666697,29.0,0.06802716666666608
8809,40.0,0.06802716666666608,30.0,0.06802716666666697
8810,44.0,0.06802716666666697,35.0,0.10204075000000046
8811,36.0,0.40816300000000005,27.0,0.06802716666666697
8812,37.0,0.06802716666666697,29.0,0.06802716666666608
8813,28.0,0.06802716666666608,30.0,0.06802716666666697
8814,44.0,0.06802716666666697,35.0,0.09433950000000024
8815,35.0,1.1320740000000002,100.0,0.08695650000000033
8816,35.0,0.47826075000000046,72.0,1.08695625
8817,44.0,0.02173912499999986,76.0,1.0652171250000002
8818,71.0,0.02173912499999986,90.0,1.0434780000000003
8819,66.0,1.0434780000000003,60.0,0.2608695000000001
8820,63.0,0.2608695000000001,65.0,0.09063450000000017
8821,69.0,0.09063450000000017,70.0,0.19354850000000035
8822,64.0,0.19354850000000035,67.0,0.17391300000000065
8823,48.0,0.5217390000000002,81.0,0.3478259999999995
8824,36.0,0.5217390000000002,81.0,0.3785489999999996
8825,20.0,0.5678234999999994,94.0,1.381579499999999
8826,21.0,1.381579499999999,97.0,0.1480263750000006
8827,36.0,1.9927410000000005,27.0,0.06896549999999912
8828,37.0,0.06896549999999912,29.0,0.0689655000000009
8829,40.0,0.0689655000000009,30.0,0.06896549999999912
8830,44.0,0.06896549999999912,34.0,0.10344825000000135
8831,36.0,0.4137930000000001,29.0,0.0689655000000009
8832,37.0,0.0689655000000009,30.0,0.06896549999999912
8833,40.0,0.06896549999999912,31.0,0.0689655000000009
8834,44.0,0.0689655000000009,36.0,0.10344824999999958
8835,37.0,1.2413790000000002,100.0,0.09375
8836,73.0,0.5625,92.0,0.84375
8837,63.0,0.84375,58.0,0.09375
8838,66.0,0.09375,58.0,0.1875
8839,66.0,0.1875,61.0,0.28125
8840,68.0,0.28125,68.0,0.09375
8841,69.0,0.09375,71.0,0.20408150000000091
8842,68.0,0.20408150000000091,68.0,0.20408150000000091
8843,36.0,0.4081629999999983,29.0,0.06802716666666697
8844,37.0,0.06802716666666697,30.0,0.06802716666666697
8845,40.0,0.06802716666666697,32.0,0.06802716666666697
8846,44.0,0.06802716666666697,37.0,0.10204075000000046
8847,36.0,0.4081629999999983,29.0,0.06802716666666697
8848,37.0,0.06802716666666697,30.0,0.06802716666666697
8849,40.0,0.06802716666666697,32.0,0.06802716666666697
8850,44.0,0.06802716666666697,37.0,0.09433950000000024
8851,27.0,1.0674300000000017,100.0,0.08356549999999885
8852,71.0,0.5013930000000002,90.0,1.0027860000000004
8853,70.0,1.0027860000000004,60.0,0.2506965000000001
8854,67.0,0.2506965000000001,65.0,0.09063450000000017
8855,73.0,0.09063450000000017,70.0,0.19354849999999857
8856,68.0,0.19354849999999857,67.0,0.17391299999999887
8857,59.0,0.5217390000000002,81.0,0.3625380000000007
8858,44.0,0.543807000000001,81.0,0.4225349999999999
8859,19.0,0.6338025000000016,94.0,1.3815795000000008
8860,20.0,1.3815795000000008,97.0,0.1480263750000006
8861,80.0,1.5789480000000005,97.0,0.9574570000000016
8862,35.0,0.5063290000000009,45.0,0.22556399999999854
8863,32.0,0.22556399999999854,53.0,0.2255640000000021
8864,78.0,0.2255640000000021,68.0,0.0884955000000005
8865,76.0,0.0884955000000005,62.0,0.0884955000000005
8866,71.0,0.0884955000000005,65.0,0.17699099999999746
8867,68.0,0.0884955000000005,59.0,0.08849549999999695
8868,66.0,0.08849549999999695,62.0,0.176991000000001
8869,64.0,0.0884955000000005,57.0,0.0884955000000005
8870,59.0,0.0884955000000005,58.0,0.0884955000000005
8871,56.0,0.0884955000000005,53.0,0.0884955000000005
8872,54.0,0.0884955000000005,55.0,0.0884955000000005
8873,52.0,0.0884955000000005,51.0,0.0884955000000005
8874,47.0,0.0884955000000005,52.0,0.17699099999999746
8875,51.0,0.5309729999999995,55.0,0.0888452500000021
8876,52.0,0.0888452500000021,52.0,0.08919741666666425
8877,54.0,0.08919741666666425,50.0,0.08964158333333216
8878,56.0,0.08964158333333216,47.0,0.09000008333333298
8879,57.0,0.09000008333333298,45.0,0.09045250000000138
8880,59.0,0.08516548750000297,42.0,0.09081300833333117
8881,60.0,0.09613216249999823,40.0,0.21818199999999877
8882,45.0,0.21818199999999877,35.0,0.1973684999999996
8883,39.0,0.1973684999999996,31.0,0.09868425000000158
8884,60.0,0.1973684999999996,50.0,0.09027100000000132
8885,59.0,0.09027100000000132,49.0,0.08991016666666596
8886,58.0,0.08991016666666596,47.0,0.08946341666666413
8887,57.0,0.08946341666666413,46.0,0.08910908333333367
8888,56.0,0.08910908333333367,44.0,0.08867016666666672
8889,55.0,0.08867016666666672,42.0,0.08829612500000295
8890,54.0,0.08829612500000295,41.0,0.21505400000000208
8891,35.0,0.21505400000000208,32.0,0.19736850000000317
8892,35.0,0.19736850000000317,28.0,0.09868424999999803
8893,80.0,0.19736849999999606,97.0,0.8721809999999977
8894,35.0,0.4511279999999971,45.0,0.21052650000000028
8895,32.0,0.21052650000000028,53.0,0.21052650000000028
8896,78.0,0.21052650000000028,68.0,0.0867052500000014
8897,76.0,0.0867052500000014,60.0,0.0867052500000014
8898,71.0,0.0867052500000014,65.0,0.1734104999999957
8899,68.0,0.0867052499999943,58.0,0.0867052500000014
8900,66.0,0.0867052500000014,62.0,0.1734105000000028
8901,64.0,0.0867052500000014,57.0,0.0867052500000014
8902,59.0,0.0867052500000014,58.0,0.0867052500000014
8903,56.0,0.0867052500000014,53.0,0.0867052499999943
8904,54.0,0.0867052499999943,55.0,0.0867052500000014
8905,52.0,0.0867052500000014,49.0,0.0867052500000014
8906,47.0,0.0867052500000014,52.0,0.1729105000000004
8907,51.0,0.5187315000000012,42.0,0.5342147416666663
8908,52.0,0.08827862500000094,41.0,0.08856536666666415
8909,54.0,0.08856536666666415,41.0,0.08887157500000598
8910,39.0,0.12552299999999406,41.0,0.12552300000000116
8911,35.0,0.12552300000000116,38.0,0.12552300000000116
8912,33.0,0.12552300000000116,38.0,0.7220208000000028
8913,35.0,0.12552300000000116,41.0,0.12552300000000116
8914,61.0,0.12552300000000116,63.0,0.3543307500000026
8915,42.0,0.11811025000000086,41.0,0.11811025000000086
8916,39.0,0.11811025000000086,38.0,0.11811025000000086
8917,59.0,0.11811025000000086,63.0,0.11664404999999789
8918,59.0,0.11664404999999789,63.0,0.608168841666668
8919,35.0,0.10319965000000053,33.0,0.10244787500000285
8920,40.0,0.10244787500000285,36.0,0.10171858333333006
8921,44.0,0.10171858333333006,39.0,0.10097670833333439
8922,40.0,0.10097670833333439,37.0,0.10027912500000014
8923,35.0,0.10027912500000014,35.0,0.0995469
8924,64.0,0.0995469,75.0,0.5940599999999989
8925,35.0,0.09900999999999982,38.0,0.09900999999999982
8926,40.0,0.09900999999999982,41.0,0.09900999999999982
8927,47.0,0.09900999999999982,42.0,0.09900999999999982
8928,40.0,0.09900999999999982,40.0,0.09900999999999982
8929,35.0,0.09900999999999982,37.0,0.09900999999999982
8930,64.0,0.09900999999999982,82.0,0.3960399999999993
8931,35.0,0.09900999999999982,38.0,0.09900999999999982
8932,39.0,0.09900999999999982,41.0,0.09900999999999982
8933,45.0,0.09900999999999982,41.0,0.09900999999999982
8934,63.0,0.09900999999999982,78.0,0.19801999999999964
8935,35.0,0.09900999999999982,36.0,0.09900999999999982
8936,63.0,0.09900999999999982,75.0,0.20833350000000195
8937,35.0,0.10416674999999742,34.0,0.10416675000000453
8938,61.0,0.10416675000000453,71.0,0.3608170000000044
8939,45.0,0.11764699999999806,39.0,0.11764700000000516
8940,39.0,0.11764700000000516,36.0,0.12552300000000116
8941,59.0,0.12552300000000116,63.0,0.12552300000000116
8942,68.0,0.12552300000000116,80.0,0.7531379999999999
8943,35.0,0.12552300000000116,31.0,0.12552299999999406
8944,38.0,0.12552299999999406,35.0,0.12552300000000116
8945,44.0,0.12552300000000116,37.0,0.12552300000000116
8946,38.0,0.12552300000000116,36.0,0.12552300000000116
8947,35.0,0.12552300000000116,34.0,0.12552300000000116
8948,68.0,0.12552300000000116,77.0,0.5825239999999994
8949,35.0,0.14563100000000162,30.0,0.14563100000000162
8950,37.0,0.14563100000000162,35.0,0.14563099999999451
8951,44.0,0.14563099999999451,37.0,0.14563100000000162
8952,68.0,0.14563100000000162,81.0,0.34226204166666463
8953,35.0,0.17857149999999677,34.0,0.17857150000000388
8954,68.0,0.17857150000000388,85.0,0.7806978749999942
8955,33.0,0.1340100666666615,35.0,0.1324526249999991
8956,37.0,0.1324526249999991,38.0,0.13083512499999728
8957,42.0,0.13083512499999728,39.0,0.12931191666666564
8958,37.0,0.12931191666666564,38.0,0.12777026666666558
8959,33.0,0.12777026666666558,36.0,0.12631787500000513
8960,66.0,0.12631787500000513,72.0,0.2631579999999971
8961,33.0,0.1315790000000021,31.0,0.131578999999995
8962,64.0,0.131578999999995,71.0,0.2631580000000042
8963,42.0,0.1315790000000021,38.0,0.1315790000000021
8964,61.0,0.1315790000000021,70.0,0.2631579999999971
8965,33.0,0.131578999999995,34.0,0.1315790000000021
8966,63.0,0.1315790000000021,75.0,0.7894739999999985
8967,32.0,0.1315790000000021,36.0,0.1315790000000021
8968,35.0,0.1315790000000021,37.0,0.131578999999995
8969,40.0,0.131578999999995,39.0,0.1315790000000021
8970,35.0,0.1315790000000021,37.0,0.1315790000000021
8971,32.0,0.1315790000000021,35.0,0.131578999999995
8972,61.0,0.131578999999995,71.0,0.2631580000000042
8973,32.0,0.1315790000000021,34.0,0.1315790000000021
8974,59.0,0.1315790000000021,68.0,0.2631579999999971
8975,40.0,0.1315790000000021,38.0,0.131578999999995
8976,56.0,0.131578999999995,63.0,0.2631580000000042
8977,32.0,0.1315790000000021,36.0,0.1315790000000021
8978,61.0,0.1315790000000021,69.0,0.2631579999999971
8979,33.0,0.131578999999995,34.0,0.1315790000000021
8980,59.0,0.1315790000000021,64.0,0.2631579999999971
8981,39.0,0.1315790000000021,36.0,0.131578999999995
8982,57.0,0.131578999999995,61.0,0.2631580000000042
8983,33.0,0.1315790000000021,34.0,0.1315790000000021
8984,57.0,0.1315790000000021,55.0,0.13698624999999964
8985,59.0,0.06849312500000337,55.0,0.06849312499999627
8986,57.0,0.06849312499999627,63.0,0.13698624999999964
8987,56.0,0.13698624999999964,58.0,0.47196199999999777
8988,39.0,0.1507537499999998,37.0,0.1507537499999998
8989,35.0,0.1507537499999998,35.0,0.17045449999999818
8990,55.0,0.17045449999999818,59.0,0.17045450000000528
8991,55.0,0.17045450000000528,59.0,0.867948808333324
8992,35.0,0.15000249999999937,33.0,0.1477855833333308
8993,40.0,0.1477855833333308,36.0,0.14563333333333617
8994,44.0,0.14563333333333617,37.0,0.14354291666666086
8995,40.0,0.14354291666666086,36.0,0.1415115
8996,37.0,0.1415115,35.0,0.13947297499999678
8997,56.0,0.13947297499999678,63.0,0.5529950000000028
8998,40.0,0.13824875000000247,36.0,0.13824875000000247
8999,44.0,0.13824875000000247,39.0,0.13824874999999537
9000,47.0,0.13824874999999537,40.0,0.13824875000000247
9001,59.0,0.13824875000000247,57.0,0.25862049999999925
9002,40.0,0.12931025000000318,38.0,0.12931024999999607
9003,47.0,0.12931024999999607,57.0,0.7758614999999978
9004,59.0,0.06465512500000159,57.0,0.7112063749999962
9005,35.0,0.06465512500000159,42.0,0.12931024999999607
9006,39.0,0.12931024999999607,42.0,0.12931025000000318
9007,42.0,0.12931025000000318,42.0,0.12931024999999607
9008,51.0,0.12931024999999607,63.0,0.5586204999999964
9009,35.0,0.12931025000000318,42.0,0.12931024999999607
9010,63.0,0.12931024999999607,63.0,0.7709747999999976
9011,35.0,0.14999999999999858,45.0,0.14999999999999858
9012,61.0,0.14999999999999858,63.0,0.3543307500000026
9013,42.0,0.11811025000000086,45.0,0.11811025000000086
9014,39.0,0.11811025000000086,41.0,0.11811025000000086
9015,59.0,0.11811025000000086,63.0,0.11664404999999789
9016,47.0,0.11664404999999789,63.0,1.2022288416666669
9017,35.0,0.10319965000000053,36.0,0.10244787500000285
9018,40.0,0.10244787500000285,39.0,0.10171858333333006
9019,44.0,0.10171858333333006,42.0,0.10097670833333439
9020,40.0,0.10097670833333439,40.0,0.10027912500000014
9021,35.0,0.10027912500000014,38.0,0.0995469
9022,64.0,0.0995469,75.0,0.5940599999999989
9023,35.0,0.09900999999999982,41.0,0.09900999999999982
9024,40.0,0.09900999999999982,45.0,0.09900999999999982
9025,47.0,0.09900999999999982,46.0,0.09900999999999982
9026,40.0,0.09900999999999982,44.0,0.09900999999999982
9027,35.0,0.09900999999999982,40.0,0.09900999999999982
9028,64.0,0.09900999999999982,75.0,0.9200404999999989
9029,35.0,0.09900999999999982,41.0,0.09900999999999982
9030,39.0,0.09900999999999982,45.0,0.09900999999999982
9031,45.0,0.09900999999999982,45.0,0.09900999999999982
9032,63.0,0.09900999999999982,78.0,0.19801999999999964
9033,35.0,0.09900999999999982,39.0,0.09900999999999982
9034,51.0,0.09900999999999982,75.0,0.3259805
9035,35.0,0.10416674999999742,37.0,0.10416675000000453
9036,39.0,0.10416675000000453,40.0,0.11764699999999806
9037,61.0,0.11764699999999806,71.0,0.11764700000000516
9038,59.0,0.11764700000000516,63.0,0.24096400000000529
9039,35.0,0.12048199999999554,34.0,0.12048200000000975
9040,59.0,0.12048200000000975,80.0,0.7228920000000016
9041,35.0,0.12048199999999554,37.0,0.12048199999999554
9042,38.0,0.12048199999999554,41.0,0.12048200000000975
9043,44.0,0.12048200000000975,44.0,0.12048199999999554
9044,38.0,0.12048199999999554,42.0,0.12048199999999554
9045,35.0,0.12048199999999554,40.0,0.12048200000000975
9046,68.0,0.12048200000000975,77.0,0.5263159999999942
9047,35.0,0.1315790000000021,36.0,0.1315790000000021
9048,37.0,0.1315790000000021,41.0,0.1315790000000021
9049,44.0,0.1315790000000021,44.0,0.1315789999999879
9050,68.0,0.1315789999999879,74.0,0.2874999999999943
9051,35.0,0.15000000000000568,40.0,0.14999999999999147
9052,68.0,0.14999999999999147,82.0,0.7806978749999871
9053,33.0,0.1340100666666615,38.0,0.1324526249999991
9054,37.0,0.1324526249999991,41.0,0.13083512500000438
9055,42.0,0.13083512500000438,42.0,0.12931191666666564
9056,37.0,0.12931191666666564,41.0,0.12777026666665847
9057,33.0,0.12777026666665847,39.0,0.12631787499999803
9058,66.0,0.12631787499999803,67.0,0.2631580000000042
9059,33.0,0.1315790000000021,34.0,0.1315790000000021
9060,64.0,0.1315790000000021,65.0,0.4068084999999968
9061,42.0,0.1315790000000021,41.0,0.13761474999999734
9062,37.0,0.13761474999999734,39.0,0.13761474999999734
9063,61.0,0.13761474999999734,64.0,0.14705874999999935
9064,63.0,0.14705874999999935,62.0,0.7894739999999985
9065,32.0,0.1315790000000021,39.0,0.1315790000000021
9066,35.0,0.1315790000000021,40.0,0.1315790000000021
9067,40.0,0.1315790000000021,42.0,0.1315789999999879
9068,35.0,0.1315789999999879,40.0,0.1315790000000021
9069,32.0,0.1315790000000021,38.0,0.1315790000000021
9070,61.0,0.1315790000000021,64.0,0.21660649999999748
9071,32.0,0.10830325000000585,35.0,0.10830324999999164
9072,59.0,0.10830324999999164,68.0,0.21660649999999748
9073,40.0,0.10830325000000585,39.0,0.10830324999999164
9074,61.0,0.10830324999999164,72.0,0.23529399999999612
9075,32.0,0.11764700000000516,35.0,0.11764699999999095
9076,62.0,0.11764699999999095,77.0,0.47058800000000645
9077,32.0,0.11764700000000516,37.0,0.11764700000000516
9078,35.0,0.11764700000000516,39.0,0.11764699999999095
9079,41.0,0.11764699999999095,41.0,0.11764700000000516
9080,61.0,0.11764700000000516,75.0,0.23529399999999612
9081,32.0,0.11764699999999095,36.0,0.11764700000000516
9082,62.0,0.11764700000000516,78.0,1.1764699999999948
9083,32.0,0.11764700000000516,39.0,0.11764699999999095
9084,35.0,0.11764699999999095,43.0,0.11764700000000516
9085,41.0,0.11764700000000516,48.0,0.11764700000000516
9086,35.0,0.11764700000000516,45.0,0.11764699999999095
9087,32.0,0.11764699999999095,41.0,0.11764700000000516
9088,23.0,0.11764700000000516,39.0,0.11764700000000516
9089,32.0,0.11764700000000516,40.0,0.11764699999999095
9090,35.0,0.11764699999999095,43.0,0.11764700000000516
9091,41.0,0.11764700000000516,45.0,0.11764699999999095
9092,61.0,0.11764699999999095,76.0,0.20905899999999633
9093,32.0,0.10452949999999817,36.0,0.10452949999999817
9094,62.0,0.10452949999999817,81.0,0.20618550000000369
9095,32.0,0.10309275000000184,40.0,0.10309275000000184
9096,61.0,0.10309275000000184,78.0,0.20618549999998947
9097,41.0,0.10309275000000184,47.0,0.10309274999998763
9098,62.0,0.10309274999998763,78.0,0.20618550000000369
9099,32.0,0.10309275000000184,40.0,0.10309275000000184
9100,62.0,0.10309275000000184,81.0,0.41237100000000737
9101,30.0,0.10309275000000184,43.0,0.10309275000000184
9102,33.0,0.10309275000000184,47.0,0.10309275000000184
9103,42.0,0.10309275000000184,50.0,0.10309275000000184
9104,61.0,0.10309275000000184,82.0,0.20618549999998947
9105,30.0,0.10309275000000184,43.0,0.10309274999998763
9106,73.0,0.10309274999998763,96.0,0.9278347500000024
9107,30.0,0.10309275000000184,50.0,0.10309275000000184
9108,33.0,0.10309275000000184,55.0,0.10309275000000184
9109,42.0,0.10309275000000184,58.0,0.10309275000000184
9110,33.0,0.10309275000000184,55.0,0.10309275000000184
9111,30.0,0.10309275000000184,52.0,0.10309275000000184
9112,23.0,0.10309275000000184,62.0,0.10309275000000184
9113,30.0,0.10309275000000184,50.0,0.10309274999998763
9114,33.0,0.10309274999998763,55.0,0.10309275000000184
9115,57.0,0.10309275000000184,80.0,0.10309275000000184
9116,57.0,0.10309275000000184,80.0,0.19759443750000116
9117,30.0,0.10309275000000184,51.0,0.10309275000000184
9118,63.0,0.10309275000000184,93.0,0.30927825000000553
9119,30.0,0.10309275000000184,57.0,0.10309275000000184
9120,33.0,0.10309275000000184,61.0,0.10309275000000184
9121,68.0,0.10309275000000184,89.0,0.10309274999998763
9122,57.0,0.10309274999998763,92.0,0.20618550000000369
9123,30.0,0.10309275000000184,59.0,0.10309275000000184
9124,64.0,0.10309275000000184,104.0,0.10309275000000184
9125,23.0,0.41237100000000737,70.0,0.10309274999998763
9126,32.0,0.10309274999998763,75.0,0.10309275000000184
9127,44.0,0.10309275000000184,97.0,0.19292599999999993
9128,52.0,0.09646299999999997,75.0,0.09646299999999997
9129,59.0,0.09646299999999997,79.0,0.09646299999999997
9130,56.0,0.09646299999999997,83.0,0.09646299999999997
9131,64.0,0.09646299999999997,87.0,0.09646299999999997
9132,73.0,0.09646299999999997,91.0,0.09646299999999997
9133,71.0,0.09646299999999997,96.0,0.19292599999999993
9134,23.0,0.38585199999999986,68.0,0.09646299999999997
9135,30.0,0.09646299999999997,74.0,0.09646299999999997
9136,45.0,0.09646299999999997,97.0,0.1846155000000067
9137,51.0,0.09230775000000335,75.0,0.09230775000000335
9138,59.0,0.09230775000000335,80.0,0.09230774999998914
9139,57.0,0.09230774999998914,84.0,0.09230775000000335
9140,63.0,0.09230775000000335,88.0,0.09230775000000335
9141,71.0,0.09230775000000335,93.0,0.09230775000000335
9142,68.0,0.09230775000000335,97.0,0.1846154999999925
9143,23.0,0.3692309999999992,70.0,0.09230774999998914
9144,32.0,0.09230774999998914,75.0,0.09230775000000335
9145,44.0,0.09230775000000335,97.0,0.18927449999999624
9146,52.0,0.09463725000000522,75.0,0.09463724999999101
9147,59.0,0.09463724999999101,79.0,0.09463725000000522
9148,56.0,0.09463725000000522,83.0,0.09463725000000522
9149,64.0,0.09463725000000522,87.0,0.09463724999999101
9150,73.0,0.09463724999999101,91.0,0.09463725000000522
9151,71.0,0.09463725000000522,96.0,0.18927449999999624
9152,23.0,0.3785489999999925,68.0,0.09463725000000522
9153,30.0,0.09463725000000522,74.0,0.09463725000000522
9154,45.0,0.09463725000000522,97.0,0.1829270000000065
9155,51.0,0.09146350000000325,75.0,0.09146350000000325
9156,59.0,0.09146350000000325,80.0,0.09146349999998904
9157,57.0,0.09146349999998904,84.0,0.09146350000000325
9158,63.0,0.09146350000000325,88.0,0.09146350000000325
9159,71.0,0.09146350000000325,93.0,0.09146350000000325
9160,68.0,0.09146350000000325,97.0,0.16666650000000516
9161,23.0,0.3333329999999961,68.0,0.08333325000000968
9162,32.0,0.08333325000000968,74.0,0.08333324999999547
9163,44.0,0.08333324999999547,97.0,0.1666061750000125
9164,52.0,0.0834880833333358,75.0,0.08311809166667672
9165,59.0,0.08311809166667672,78.0,0.08273604999999407
9166,56.0,0.08273604999999407,75.0,0.08234225000001061
9167,64.0,0.08234225000001061,79.0,0.08198238333332597
9168,71.0,0.08198238333332597,75.0,0.08161055000000772
9169,64.0,0.08161055000000772,78.0,0.08130074999999692
9170,56.0,0.08130074999999692,75.0,0.08130074999999692
9171,59.0,0.08130074999999692,80.0,0.08130075000001113
9172,52.0,0.08130075000001113,75.0,0.08130074999999692
9173,44.0,0.08130074999999692,79.0,0.08130074999999692
9174,47.0,0.08130074999999692,75.0,0.08130074999999692
9175,40.0,0.08130074999999692,78.0,0.08130075000001113
9176,32.0,0.08130075000001113,77.0,0.08130074999999692
9177,35.0,0.08130074999999692,82.0,0.08130074999999692
9178,28.0,0.08130074999999692,79.0,0.08130074999999692
9179,20.0,0.08130074999999692,87.0,0.08130074999999692
9180,28.0,0.08130074999999692,85.0,0.08130075000001113
9181,16.0,0.08130075000001113,102.0,0.09740250000000117
9182,52.0,0.584415000000007,102.0,0.5844149999999928
9183,36.0,2.2010059999999925,29.0,0.07462683333334041
9184,37.0,0.07462683333334041,31.0,0.0746268333333262
9185,40.0,0.0746268333333262,33.0,0.07462683333334041
9186,44.0,0.07462683333334041,38.0,0.1119402499999893
9187,36.0,0.44776099999999985,29.0,0.0746268333333262
9188,37.0,0.0746268333333262,31.0,0.07462683333334041
9189,40.0,0.07462683333334041,32.0,0.0746268333333262
9190,44.0,0.0746268333333262,38.0,0.11194025000000352
9191,37.0,1.3432829999999996,100.0,0.09375
9192,69.0,0.5625,92.0,1.125
9193,63.0,1.125,61.0,0.2871677499999947
9194,68.0,0.2871677499999947,68.0,0.09966775000000894
9195,69.0,0.09966775000000894,71.0,0.24193549999999675
9196,68.0,0.24193549999999675,68.0,0.20408150000000091
9197,51.0,0.5187315000000012,42.0,0.5342147416666876
9198,52.0,0.08827862500000094,41.0,0.08856536666667125
9199,54.0,0.08856536666667125,41.0,0.08887157499999887
9200,56.0,0.08887157499999887,40.0,0.08917975000001377
9201,57.0,0.08917975000001377,39.0,0.08949006666665582
9202,59.0,0.0842661854166522,38.0,0.08979798958334584
9203,60.0,0.09505323958335055,37.0,0.08982025000000249
9204,40.0,0.08982025000000249,32.0,0.08982025000000249
9205,42.0,0.08982025000000249,32.0,0.08982024999998828
9206,44.0,0.08982024999998828,32.0,0.08982025000000249
9207,45.0,0.08982025000000249,32.0,0.08982025000000249
9208,47.0,0.08982025000000249,32.0,0.08982025000000249
9209,60.0,0.08982025000000249,42.0,0.08823524999999677
9210,59.0,0.08823524999999677,41.0,0.08823524999999677
9211,58.0,0.08823524999999677,40.0,0.08823525000001098
9212,57.0,0.08823525000001098,39.0,0.08823524999999677
9213,56.0,0.08823524999999677,37.0,0.08823524999999677
9214,55.0,0.08823524999999677,36.0,0.08823524999999677
9215,54.0,0.08823524999999677,35.0,0.1906135250000034
9216,35.0,0.09402004999999747,29.0,0.09659347500000592
9217,34.0,0.09659347500000592,28.0,0.09934432500000412
9218,33.0,0.09934432500000412,27.0,0.10230371666663984
9219,32.0,0.10230371666663984,26.0,0.10535740833333307
9220,30.0,0.10535740833333307,25.0,0.10866498333334107
9221,56.0,0.10866498333334107,59.0,1.4124324000000144
9222,35.0,0.1162790000000058,28.0,0.11627899999999158
9223,40.0,0.11627899999999158,30.0,0.1162790000000058
9224,44.0,0.1162790000000058,34.0,0.11627899999999158
9225,40.0,0.11627899999999158,31.0,0.1162790000000058
9226,35.0,0.1162790000000058,30.0,0.1162790000000058
9227,28.0,0.1162790000000058,29.0,0.11627899999999158
9228,38.0,0.11627899999999158,28.0,0.1162790000000058
9229,54.0,0.1162790000000058,53.0,0.35399515000001713
9230,44.0,0.11637101666667604,31.0,0.11797283333334008
9231,40.0,0.11797283333334008,30.0,0.11965130000000102
9232,52.0,0.11965130000000102,52.0,0.1282052499999935
9233,52.0,0.1282052499999935,58.0,0.694980000000001
9234,38.0,0.11583000000000254,28.0,0.11583000000000254
9235,40.0,0.11583000000000254,31.0,0.11582999999998833
9236,45.0,0.11582999999998833,34.0,0.11583000000000254
9237,40.0,0.11583000000000254,31.0,0.11583000000000254
9238,38.0,0.11583000000000254,29.0,0.11583000000000254
9239,49.0,0.11583000000000254,56.0,1.0690271333333214
9240,37.0,0.10935633333333783,28.0,0.10872255833332645
9241,40.0,0.10872255833332645,30.0,0.10806954999999618
9242,45.0,0.10806954999999618,33.0,0.10739891666666779
9243,40.0,0.10739891666666779,31.0,0.10678737499999613
9244,37.0,0.10678737499999613,30.0,0.10615740000000073
9245,50.0,0.10615740000000073,50.0,1.323589516666658
9246,38.0,0.10563374999999553,28.0,0.10563375000000974
9247,40.0,0.10563375000000974,30.0,0.10563374999999553
9248,47.0,0.10563374999999553,33.0,0.10563374999999553
9249,56.0,0.10563374999999553,52.0,0.218978000000007
9250,38.0,0.1094889999999964,29.0,0.1094890000000106
9251,56.0,0.1094890000000106,51.0,0.21516068333332328
9252,38.0,0.10740163333332475,28.0,0.10775904999999852
9253,54.0,0.10775904999999852,50.0,0.21743313333332992
9254,44.0,0.1084340833333357,31.0,0.10899904999999421
9255,52.0,0.10899904999999421,49.0,0.2403252000000009
9256,38.0,0.12552300000000116,29.0,0.12395970000000034
9257,61.0,0.12395970000000034,56.0,0.6436250833333474
9258,37.0,0.10958306666667283,30.0,0.10865714166666862
9259,40.0,0.10865714166666862,34.0,0.10770791666666923
9260,45.0,0.10770791666666923,35.0,0.10678764999998691
9261,40.0,0.10678764999998691,34.0,0.105907925000011
9262,37.0,0.105907925000011,33.0,0.10498138333333884
9263,61.0,0.10498138333333884,62.0,0.7599608749999902
9264,37.0,0.12048199999999554,36.0,0.11992804999999862
9265,40.0,0.11992804999999862,39.0,0.12448125000000232
9266,47.0,0.12448125000000232,37.0,0.12479907499999854
9267,61.0,0.12479907499999854,64.0,0.2702704999999952
9268,37.0,0.1351352500000047,31.0,0.1351352499999905
9269,46.0,0.06756762499999525,44.0,0.06756762499999525
9270,61.0,0.06756762499999525,68.0,1.4985898499999877
9271,37.0,0.11952200000000346,38.0,0.11952200000000346
9272,40.0,0.11952200000000346,41.0,0.11952199999998925
9273,46.0,0.11952199999998925,45.0,0.11952200000000346
9274,54.0,0.11952200000000346,57.0,0.2651198499999907
9275,37.0,0.13215850000000273,39.0,0.132961349999988
9276,54.0,0.132961349999988,57.0,0.23622050000000172
9277,40.0,0.11811025000000086,38.0,0.11811025000000086
9278,56.0,0.11811025000000086,51.0,0.11811025000000086
9279,58.0,0.05905512500000043,51.0,0.05905512500000043
9280,56.0,0.05905512500000043,56.0,0.2575104999999951
9281,42.0,0.12875524999999755,42.0,0.12875524999999755
9282,54.0,0.12875524999999755,56.0,0.14354074999999966
9283,54.0,0.14354074999999966,59.0,0.6474824999999953
9284,40.0,0.10791374999999448,38.0,0.10791374999999448
9285,42.0,0.10791374999999448,42.0,0.1079137500000229
9286,47.0,0.1079137500000229,45.0,0.10791374999999448
9287,42.0,0.10791374999999448,41.0,0.10791374999999448
9288,40.0,0.10791374999999448,38.0,0.10791374999999448
9289,59.0,0.10791374999999448,64.0,0.8108100000000036
9290,39.0,0.10135124999999334,37.0,0.10135124999999334
9291,42.0,0.10135124999999334,40.0,0.10135125000002176
9292,47.0,0.10135125000002176,44.0,0.10135124999999334
9293,42.0,0.10135124999999334,41.0,0.10135124999999334
9294,39.0,0.10135124999999334,39.0,0.10135124999999334
9295,52.0,0.10135124999999334,55.0,1.4099744999999757
9296,40.0,0.10135125000002176,37.0,0.10135124999999334
9297,58.0,0.10135124999999334,60.0,0.20270249999998668
9298,49.0,0.10135124999999334,42.0,0.10135124999999334
9299,56.0,0.10135124999999334,59.0,0.20978999999999814
9300,40.0,0.10489499999999907,39.0,0.10489499999999907
9301,58.0,0.10489499999999907,60.0,0.20978999999999814
9302,40.0,0.10489499999999907,36.0,0.10489499999999907
9303,56.0,0.10489499999999907,59.0,0.42015424999999595
9304,46.0,0.12765949999999293,40.0,0.12765949999999293
9305,42.0,0.12765949999999293,40.0,0.1648352500000101
9306,54.0,0.1648352500000101,56.0,0.16483524999998167
9307,63.0,0.16483524999998167,56.0,1.5171521749999783
9308,39.0,0.11009200000000874,40.0,0.10928999999998723
9309,42.0,0.10928999999998723,44.0,0.10849949999999353
9310,47.0,0.10849949999999353,45.0,0.10772037500001375
9311,42.0,0.10772037500001375,44.0,0.10695212499999229
9312,39.0,0.10695212499999229,42.0,0.10615767499999151
9313,63.0,0.10615767499999151,64.0,0.8684404999999913
9314,35.0,0.1401869999999974,41.0,0.1401869999999974
9315,39.0,0.1401869999999974,45.0,0.1401869999999974
9316,42.0,0.1401869999999974,49.0,0.1401869999999974
9317,63.0,0.1401869999999974,63.0,0.29487197916665764
9318,35.0,0.15384624999998664,41.0,0.15384625000001506
9319,63.0,0.15384625000001506,68.0,1.0041840000000093
9320,35.0,0.12552299999998695,36.0,0.12552300000001537
9321,39.0,0.12552300000001537,39.0,0.12552299999998695
9322,42.0,0.12552299999998695,42.0,0.12552300000001537
9323,39.0,0.12552300000001537,41.0,0.12552299999998695
9324,35.0,0.12552299999998695,38.0,0.12552300000001537
9325,33.0,0.12552300000001537,47.0,0.7220207999999957
9326,35.0,0.12552299999998695,41.0,0.12552300000001537
9327,61.0,0.12552300000001537,63.0,0.3543307500000026
9328,42.0,0.11811025000000086,41.0,0.11811025000000086
9329,39.0,0.11811025000000086,38.0,0.11811025000000086
9330,59.0,0.11811025000000086,63.0,0.11664404999999078
9331,59.0,0.11664404999999078,63.0,0.6081688416666395
9332,35.0,0.103199649999965,33.0,0.10244787500002417
9333,40.0,0.10244787500002417,36.0,0.10171858333336559
9334,44.0,0.10171858333336559,39.0,0.10097670833332018
9335,40.0,0.10097670833332018,37.0,0.10027912499998592
9336,35.0,0.10027912499998592,35.0,0.09954689999997868
9337,64.0,0.09954689999997868,75.0,0.5940600000000131
9338,35.0,0.09900999999999271,38.0,0.09901000000002114
9339,40.0,0.09901000000002114,41.0,0.09900999999999271
9340,47.0,0.09900999999999271,42.0,0.09900999999999271
9341,40.0,0.09900999999999271,40.0,0.09900999999999271
9342,35.0,0.09900999999999271,37.0,0.09901000000002114
9343,64.0,0.09901000000002114,82.0,0.3960399999999993
9344,35.0,0.09900999999999271,38.0,0.09900999999999271
9345,39.0,0.09900999999999271,41.0,0.09900999999999271
9346,45.0,0.09900999999999271,41.0,0.09901000000002114
9347,63.0,0.09901000000002114,78.0,0.18976916666665034
9348,35.0,0.09900999999999271,36.0,0.09900999999999271
9349,63.0,0.09900999999999271,75.0,0.20833350000000905
9350,35.0,0.10416674999999032,34.0,0.10416675000001874
9351,61.0,0.10416675000001874,71.0,0.3608169999999973
9352,45.0,0.11764700000000516,39.0,0.11764700000000516
9353,39.0,0.11764700000000516,36.0,0.12552299999998695
9354,59.0,0.12552299999998695,63.0,0.12552300000001537
9355,68.0,0.12552300000001537,80.0,0.753138000000007
9356,35.0,0.12552299999998695,31.0,0.12552300000001537
9357,38.0,0.12552300000001537,35.0,0.12552299999998695
9358,44.0,0.12552299999998695,37.0,0.12552300000001537
9359,38.0,0.12552300000001537,36.0,0.12552299999998695
9360,35.0,0.12552299999998695,34.0,0.12552300000001537
9361,68.0,0.12552300000001537,77.0,0.5825240000000065
9362,35.0,0.14563100000000873,30.0,0.1456309999999803
9363,37.0,0.1456309999999803,35.0,0.14563100000000873
9364,44.0,0.14563100000000873,37.0,0.14563100000000873
9365,68.0,0.14563100000000873,81.0,0.3422620416666575
9366,35.0,0.17857150000000388,34.0,0.17857150000000388
9367,68.0,0.17857150000000388,85.0,0.7806978749999871
9368,33.0,0.1340100666666899,35.0,0.1324526249999849
9369,37.0,0.1324526249999849,38.0,0.13083512500000438
9370,42.0,0.13083512500000438,39.0,0.12931191666669406
9371,37.0,0.12931191666669406,38.0,0.12777026666663005
9372,33.0,0.12777026666663005,36.0,0.12631787499998381
9373,66.0,0.12631787499998381,72.0,0.2631580000000042
9374,33.0,0.1315789999999879,31.0,0.13157900000001632
9375,64.0,0.13157900000001632,71.0,0.2631580000000042
9376,42.0,0.1315789999999879,38.0,0.13157900000001632
9377,61.0,0.13157900000001632,70.0,0.2631580000000042
9378,33.0,0.1315789999999879,34.0,0.13157900000001632
9379,63.0,0.13157900000001632,75.0,0.7894739999999842
9380,32.0,0.1315789999999879,36.0,0.1315789999999879
9381,35.0,0.1315789999999879,37.0,0.13157900000001632
9382,40.0,0.13157900000001632,39.0,0.1315789999999879
9383,35.0,0.1315789999999879,37.0,0.13157900000001632
9384,32.0,0.13157900000001632,35.0,0.1315789999999879
9385,61.0,0.1315789999999879,71.0,0.2631580000000042
9386,32.0,0.13157900000001632,34.0,0.1315789999999879
9387,59.0,0.1315789999999879,68.0,0.2631580000000042
9388,40.0,0.1315789999999879,38.0,0.13157900000001632
9389,56.0,0.13157900000001632,63.0,0.2631580000000042
9390,32.0,0.1315789999999879,36.0,0.13157900000001632
9391,61.0,0.13157900000001632,69.0,0.2631580000000042
9392,33.0,0.1315789999999879,34.0,0.13157900000001632
9393,59.0,0.13157900000001632,64.0,0.2631579999999758
9394,39.0,0.1315789999999879,36.0,0.1315789999999879
9395,57.0,0.1315789999999879,61.0,0.25219308333333856
9396,33.0,0.13157900000001632,34.0,0.1315789999999879
9397,57.0,0.1315789999999879,55.0,0.13698625000000675
9398,59.0,0.06849312500000337,55.0,0.06849312500000337
9399,57.0,0.06849312500000337,63.0,0.13698625000000675
9400,56.0,0.13698625000000675,58.0,0.4719620000000191
9401,39.0,0.1507537500000069,37.0,0.1507537500000069
9402,35.0,0.1507537500000069,35.0,0.17045450000000528
9403,55.0,0.17045450000000528,59.0,0.17045450000000528
9404,55.0,0.17045450000000528,59.0,0.8679488083333808
9405,35.0,0.1500025000000278,33.0,0.14778558333335923
9406,40.0,0.14778558333335923,36.0,0.14563333333330775
9407,44.0,0.14563333333330775,37.0,0.14354291666666086
9408,40.0,0.14354291666666086,36.0,0.14151150000000712
9409,37.0,0.14151150000000712,35.0,0.1394729750000181
9410,56.0,0.1394729750000181,63.0,0.5529949999999815
9411,40.0,0.13824875000000247,36.0,0.13824874999997405
9412,44.0,0.13824874999997405,39.0,0.13824875000000247
9413,47.0,0.13824875000000247,40.0,0.13824875000000247
9414,59.0,0.13824875000000247,57.0,0.25862050000000636
9415,40.0,0.12931025000000318,38.0,0.12931025000000318
9416,47.0,0.12931025000000318,57.0,0.7594934999999907
9417,59.0,0.06329112500000633,57.0,0.6962023749999844
9418,35.0,0.06329112500000633,42.0,0.12658224999998424
9419,39.0,0.12658224999998424,42.0,0.12658225000001266
9420,42.0,0.12658225000001266,42.0,0.12658224999998424
9421,51.0,0.12658224999998424,63.0,0.5531645000000083
9422,35.0,0.12658225000001266,42.0,0.12658224999998424
9423,63.0,0.12658224999998424,63.0,0.7709748000000047
9424,35.0,0.15000000000000568,45.0,0.15000000000000568
9425,61.0,0.15000000000000568,63.0,0.3543307500000026
9426,42.0,0.11811025000000086,45.0,0.11811025000000086
9427,39.0,0.11811025000000086,41.0,0.11811025000000086
9428,59.0,0.11811025000000086,63.0,0.11664404999999078
9429,47.0,0.11664404999999078,63.0,1.2022288416666527
9430,35.0,0.103199649999965,36.0,0.10244787500002417
9431,40.0,0.10244787500002417,39.0,0.10171858333336559
9432,44.0,0.10171858333336559,42.0,0.10097670833332018
9433,40.0,0.10097670833332018,40.0,0.10027912499998592
9434,35.0,0.10027912499998592,38.0,0.09954689999997868
9435,64.0,0.09954689999997868,75.0,0.5940600000000131
9436,35.0,0.09900999999999271,41.0,0.09901000000002114
9437,40.0,0.09901000000002114,45.0,0.09900999999999271
9438,47.0,0.09900999999999271,46.0,0.09900999999999271
9439,40.0,0.09900999999999271,44.0,0.09900999999999271
9440,35.0,0.09900999999999271,40.0,0.09901000000002114
9441,64.0,0.09901000000002114,75.0,0.5940599999999847
9442,35.0,0.09900999999999271,41.0,0.09900999999999271
9443,39.0,0.09900999999999271,45.0,0.09900999999999271
9444,51.0,0.09900999999999271,71.0,0.09901000000002114
9445,63.0,0.09901000000002114,70.0,0.19801999999998543
9446,35.0,0.09900999999999271,39.0,0.09900999999999271
9447,51.0,0.09900999999999271,75.0,0.3259805000000142
9448,35.0,0.10416674999999032,37.0,0.10416675000001874
9449,39.0,0.10416675000001874,40.0,0.11764700000000516
9450,61.0,0.11764700000000516,71.0,0.11764700000000516
9451,59.0,0.11764700000000516,63.0,0.24096399999999107
9452,35.0,0.12048200000000975,34.0,0.12048199999998133
9453,68.0,0.12048199999998133,80.0,0.7228920000000016
9454,35.0,0.12048200000000975,37.0,0.12048200000000975
9455,38.0,0.12048200000000975,41.0,0.12048199999998133
9456,44.0,0.12048199999998133,44.0,0.12048200000000975
9457,38.0,0.12048200000000975,42.0,0.12048200000000975
9458,35.0,0.12048200000000975,40.0,0.12048199999998133
9459,68.0,0.12048199999998133,77.0,0.5263160000000084
9460,35.0,0.1315789999999879,36.0,0.13157900000001632
9461,37.0,0.13157900000001632,41.0,0.1315789999999879
9462,44.0,0.1315789999999879,44.0,0.13157900000001632
9463,68.0,0.13157900000001632,78.0,0.2874999999999943
9464,35.0,0.15000000000000568,40.0,0.15000000000000568
9465,68.0,0.15000000000000568,82.0,0.7806978749999871
9466,33.0,0.1340100666666899,38.0,0.1324526249999849
9467,37.0,0.1324526249999849,41.0,0.13083512500000438
9468,42.0,0.13083512500000438,42.0,0.12931191666669406
9469,37.0,0.12931191666669406,41.0,0.12777026666663005
9470,33.0,0.12777026666663005,39.0,0.12631787499998381
9471,57.0,0.12631787499998381,67.0,0.2631580000000042
9472,33.0,0.1315789999999879,34.0,0.13157900000001632
9473,64.0,0.13157900000001632,65.0,0.4068084999999826
9474,42.0,0.1315789999999879,41.0,0.13761475000001155
9475,37.0,0.13761475000001155,39.0,0.13761474999998313
9476,57.0,0.13761474999998313,64.0,0.14705875000001356
9477,63.0,0.14705875000001356,62.0,0.7894740000000127
9478,32.0,0.1315789999999879,39.0,0.13157900000001632
9479,35.0,0.13157900000001632,40.0,0.1315789999999879
9480,40.0,0.1315789999999879,42.0,0.13157900000001632
9481,35.0,0.13157900000001632,40.0,0.1315789999999879
9482,32.0,0.1315789999999879,38.0,0.13157900000001632
9483,57.0,0.13157900000001632,64.0,0.2166065000000117
9484,43.0,0.25862050000000636,60.0,0.23809499999998707
9485,41.0,0.23809499999998707,56.0,0.692951249999993
9486,40.0,0.692951249999993,56.0,0.29569902083335364
9487,40.0,0.3225807500000144,44.0,2.8745835
9488,38.0,1.1764709999999923,37.0,1.1320749999999862
9489,36.0,1.1320749999999862,32.0,2.8445195000000183
9490,40.0,0.5660375000000215,30.0,2.278481999999997
9491,52.0,2.278481999999997,53.0,0.8021387500000117
9492,37.0,0.6417109999999866,32.0,0.3208555000000217
9493,50.0,0.16042775000002507,45.0,0.08021387499999832
9494,52.0,0.08021387499999832,45.0,0.08021387499999832
9495,50.0,0.08021387499999832,50.0,0.4054057499999999
9496,48.0,0.4054057499999999,47.0,0.1351352499999905
9497,50.0,0.1351352499999905,50.0,0.2702705000000094
9498,52.0,0.2702705000000094,53.0,0.5405409999999904
9499,53.0,0.4054057499999999,50.0,0.1351352499999905
9500,52.0,0.1351352499999905,48.0,0.2702705000000094
9501,50.0,0.1351352500000189,43.0,0.06756762499998104
9502,52.0,0.06756762499998104,43.0,0.06756762500000946
9503,50.0,0.06756762500000946,52.0,0.459183749999994
9504,48.0,0.459183749999994,48.0,0.15306125000000748
9505,50.0,0.15306125000000748,47.0,0.4878050000000087
9506,52.0,0.4878050000000087,39.0,0.3584062500000016
9507,35.0,0.060975624999997535,29.0,0.29743062500000406
9508,44.0,0.060975624999997535,29.0,0.23645500000000652
9509,40.0,0.12195124999999507,29.0,0.11450375000001145
9510,52.0,0.11450375000001145,29.0,0.11450374999998303
9511,47.0,0.11450374999998303,29.0,0.11450375000001145
9512,52.0,0.11450375000001145,29.0,0.11450374999998303
9513,47.0,0.11450374999998303,29.0,0.11450375000001145
9514,59.0,0.11450375000001145,29.0,0.11450375000001145
9515,52.0,0.11450375000001145,29.0,0.11450374999998303
9516,59.0,0.11450374999998303,29.0,0.11450375000001145
9517,52.0,0.11450375000001145,29.0,0.11450374999998303
9518,64.0,0.11450374999998303,29.0,0.11450375000001145
9519,59.0,0.11450375000001145,29.0,0.11450375000001145
9520,64.0,0.11450375000001145,29.0,0.11904749999999353
9521,59.0,0.11904749999999353,29.0,0.11904749999999353
9522,71.0,0.11904749999999353,29.0,0.12295075000000111
9523,64.0,0.12295075000000111,29.0,0.12295075000000111
9524,71.0,0.12295075000000111,29.0,0.12295075000000111
9525,64.0,0.12295075000000111,29.0,0.12295075000000111
9526,76.0,0.12295075000000111,39.0,0.14150950000001217
9527,43.0,0.8490569999999877,52.0,3.822129500000017
9528,45.0,1.1320755000000133,44.0,2.6900540000000035
9529,38.0,1.5094339999999988,57.0,0.24096399999999107
9530,40.0,0.24096399999999107,57.0,0.2409640000000195
9531,43.0,0.2409640000000195,60.0,0.23076900000000933
9532,41.0,0.23076900000000933,56.0,0.2307689999999809
9533,40.0,0.2307689999999809,56.0,0.23715400000000386
9534,43.0,0.23715400000000386,52.0,5.029567250000014
9535,45.0,0.9890115000000037,44.0,4.04055575000001
9536,38.0,1.3186819999999955,57.0,0.23076900000000933
9537,40.0,0.23076900000000933,57.0,0.25862050000000636
9538,43.0,0.25862050000000636,60.0,0.23809499999998707
9539,41.0,0.23809499999998707,56.0,0.7192077500000096
9540,40.0,0.7192077500000096,56.0,0.09842520833333879
9541,40.0,0.11811025000000086,50.0,0.11811025000000086
9542,48.0,0.11811025000000086,56.0,0.35714300000000776
9543,45.0,0.35714300000000776,53.0,0.34090900000001056
9544,41.0,0.34090900000001056,51.0,0.34090899999998214
9545,40.0,0.34090899999998214,44.0,2.5350144999999884
9546,38.0,1.1764709999999923,37.0,0.8823529999999948
9547,36.0,0.8823529999999948,32.0,0.4761905000000013
9548,40.0,0.4761905000000013,30.0,2.278481999999997
9549,52.0,3.417722999999995,42.0,2.0744684999999947
9550,54.0,2.0744684999999947,42.0,0.2777777500000127
9551,57.0,0.2777777500000127,43.0,0.22556399999999144
9552,55.0,0.22556399999999144,41.0,0.17857150000000388
9553,52.0,0.17857150000000388,39.0,0.17857150000000388
9554,48.0,0.17857150000000388,39.0,0.24193550000001096
9555,47.0,0.24193550000001096,35.0,0.06048387499998853
9556,47.0,0.12096774999997706,35.0,0.12096775000000548
9557,59.0,0.12096775000000548,43.0,0.6818179999999927
9558,38.0,0.5113634999999874,26.0,0.34090900000001056
9559,57.0,0.17045450000000528,37.0,0.08522725000000264
9560,59.0,0.08522725000000264,37.0,0.08522725000000264
9561,57.0,0.08522725000000264,43.0,0.430622249999999
9562,55.0,0.430622249999999,39.0,0.14354074999999966
9563,57.0,0.14354074999999966,39.0,0.2870814999999993
9564,59.0,0.2870814999999993,42.0,0.5741629999999986
9565,60.0,0.430622249999999,40.0,0.14354074999999966
9566,59.0,0.14354074999999966,40.0,0.2870814999999993
9567,57.0,0.14354074999999966,37.0,0.07177037499999983
9568,59.0,0.07177037499999983,37.0,0.07177037499999983
9569,57.0,0.07177037499999983,44.0,0.5948932499999842
9570,55.0,0.5948932499999842,33.0,0.22222225000001572
9571,57.0,0.22222225000001572,31.0,0.42253500000001054
9572,59.0,0.42253500000001054,31.0,1.5882344999999987
9573,23.0,1.0588229999999896,24.0,0.3529410000000155
9574,47.0,0.529411500000009,25.0,0.13043475000000626
9575,59.0,0.13043475000000626,25.0,0.13043475000000626
9576,54.0,0.13043475000000626,25.0,0.13043474999997784
9577,59.0,0.13043474999997784,25.0,0.13043475000000626
9578,54.0,0.13043475000000626,25.0,0.13043475000000626
9579,66.0,0.13043475000000626,21.0,0.14705875000001356
9580,59.0,0.14705875000001356,21.0,0.14705874999998514
9581,66.0,0.14705874999998514,21.0,0.1744185000000016
9582,59.0,0.1744185000000016,21.0,0.22900774999999385
9583,71.0,0.22900774999999385,28.0,0.5
9584,59.0,1.0,44.0,0.3636365000000126
9585,57.0,0.3636365000000126,44.0,0.375
9586,55.0,0.375,45.0,1.371381499999984
9587,46.0,0.4000000000000057,34.0,0.3208554999999933
9588,47.0,0.16042774999999665,34.0,0.16042774999999665
9589,50.0,0.16042774999999665,34.0,0.6505259999999851
9590,48.0,0.10695183333334057,34.0,0.10695183333334057
9591,47.0,0.10695183333334057,34.0,0.10695183333331215
9592,47.0,0.10695183333331215,43.0,1.1799139999999966
9593,55.0,0.32967049999999176,42.0,0.2941174999999987
9594,54.0,0.2941174999999987,42.0,0.5561260000000061
9595,52.0,0.2941174999999987,44.0,0.7683375000000012
9596,46.0,0.2620085000000074,36.0,0.2531644999999969
9597,47.0,0.12658225000001266,32.0,0.12658224999998424
9598,50.0,0.12658224999998424,36.0,0.5063289999999938
9599,48.0,0.08438816666665616,36.0,0.08438816666668458
9600,47.0,0.08438816666668458,32.0,0.08438816666665616
9601,47.0,0.08438816666665616,44.0,1.0021969999999953
9602,59.0,0.2531644999999969,43.0,0.24793399999998655
9603,57.0,0.24793399999998655,40.0,0.5010985000000119
9604,55.0,0.24793400000001498,46.0,0.9940065000000118
9605,46.0,0.2531644999999969,38.0,0.24489800000000628
9606,47.0,0.12244899999998893,34.0,0.12244900000001735
9607,50.0,0.12244900000001735,38.0,0.4959440000000086
9608,48.0,0.08163266666664981,38.0,0.08163266666667823
9609,47.0,0.08163266666667823,35.0,0.08163266666667823
9610,47.0,0.08163266666667823,42.0,0.738851000000011
9611,55.0,0.2510460000000023,43.0,0.24390249999999014
9612,54.0,0.24390249999999014,41.0,0.49390250000001856
9613,52.0,0.24390250000001856,47.0,0.7338709999999935
9614,51.0,0.25,37.0,0.24193550000001096
9615,52.0,0.12096775000000548,37.0,0.12096775000000548
9616,55.0,0.12096775000000548,37.0,0.24193549999998254
9617,53.0,0.0806451666666419,37.0,0.08064516666667032
9618,52.0,0.08064516666667032,34.0,0.08064516666667032
9619,52.0,0.08064516666667032,41.0,1.0324383749999697
9620,64.0,0.25,46.0,0.23809499999998707
9621,62.0,0.23809499999998707,44.0,0.5443433749999826
9622,60.0,0.2531644999999969,53.0,1.0586988749999762
9623,51.0,0.29117887499998574,32.0,0.24291500000001065
9624,52.0,0.12145750000001954,30.0,0.12145749999999111
9625,55.0,0.12145749999999111,32.0,0.5246049999999798
9626,53.0,0.08097166666667022,32.0,0.08097166666667022
9627,52.0,0.08097166666667022,30.0,0.0809716666666418
9628,52.0,0.0809716666666418,37.0,1.0869555000000162
9629,60.0,0.28168999999999755,38.0,0.24390249999999014
9630,59.0,0.24390249999999014,36.0,0.5613630000000285
9631,57.0,0.24390250000001856,40.0,0.8531745000000228
9632,51.0,0.3174605000000099,27.0,0.26785699999999224
9633,52.0,0.13392849999999612,28.0,0.13392849999999612
9634,55.0,0.13392849999999612,30.0,0.5242675000000077
9635,53.0,0.08928566666668303,30.0,0.0892856666666546
9636,52.0,0.0892856666666546,27.0,0.08928566666668303
9637,52.0,0.08928566666668303,38.0,0.9689034999999819
9638,64.0,0.256410499999987,40.0,0.234375
9639,62.0,0.234375,37.0,0.47811799999999494
9640,60.0,0.23715400000000386,45.0,0.947647499999988
9641,51.0,0.24096399999999107,37.0,0.2298849999999959
9642,52.0,0.11494250000001216,37.0,0.11494249999998374
9643,55.0,0.11494249999998374,37.0,0.476798500000001
9644,53.0,0.07662833333333197,37.0,0.07662833333333197
9645,52.0,0.07662833333333197,34.0,0.07662833333333197
9646,52.0,0.07662833333333197,42.0,0.9633970000000147
9647,60.0,0.24691350000000511,44.0,0.22641500000000292
9648,59.0,0.22641500000000292,42.0,0.4900685000000067
9649,57.0,0.2325580000000116,47.0,1.033673499999992
9650,51.0,0.2575104999999951,37.0,0.24590150000000222
9651,52.0,0.12295075000000111,34.0,0.12295075000000111
9652,55.0,0.12295075000000111,37.0,0.24590150000000222
9653,53.0,0.08196716666665793,37.0,0.08196716666668635
9654,52.0,0.08196716666668635,34.0,0.08196716666665793
9655,52.0,0.08196716666665793,41.0,0.804191000000003
9656,59.0,0.2843599999999924,43.0,0.2531644999999969
9657,60.0,0.2531644999999969,42.0,0.2666665000000137
9658,59.0,0.2666665000000137,50.0,0.7136390000000006
9659,46.0,0.25210100000001034,32.0,0.23076900000000933
9660,47.0,0.11538450000000466,30.0,0.11538450000000466
9661,50.0,0.11538450000000466,32.0,0.2307689999999809
9662,48.0,0.07692299999999364,32.0,0.07692299999999364
9663,47.0,0.07692299999999364,30.0,0.07692299999999364
9664,47.0,0.07692299999999364,37.0,0.9765689999999836
9665,57.0,0.256410499999987,47.0,0.23076900000000933
9666,55.0,0.23076900000000933,47.0,0.2307689999999809
9667,54.0,0.2307689999999809,53.0,1.0356155000000058
9668,46.0,0.25862050000000636,38.0,0.24896250000000464
9669,47.0,0.12448125000000232,35.0,0.12448125000000232
9670,50.0,0.12448125000000232,38.0,0.5280324999999948
9671,48.0,0.08298750000000155,38.0,0.08298750000000155
9672,47.0,0.08298750000000155,35.0,0.08298750000000155
9673,47.0,0.08298750000000155,46.0,1.1008645000000001
9674,54.0,0.27906999999999016,47.0,0.2666665000000137
9675,52.0,0.2666665000000137,44.0,0.26666649999998526
9676,51.0,0.26666649999998526,52.0,0.8492095000000006
9677,46.0,0.28846150000001103,41.0,0.2803739999999948
9678,47.0,0.1401869999999974,39.0,0.1401869999999974
9679,50.0,0.1401869999999974,41.0,0.5494324999999947
9680,48.0,0.09345799999999826,41.0,0.09345799999999826
9681,47.0,0.09345799999999826,38.0,0.09345799999999826
9682,47.0,0.09345799999999826,52.0,1.006887000000006
9683,57.0,0.26905849999999987,43.0,0.23904400000000692
9684,55.0,0.23904400000000692,41.0,0.23904400000000692
9685,54.0,0.23904400000000692,47.0,2.3894214999999974
9686,49.0,0.2597404999999924,38.0,2.129681000000005
9687,50.0,0.12552299999998695,36.0,0.12552300000001537
9688,54.0,0.12552300000001537,38.0,1.8786350000000027
9689,52.0,0.09523816666666107,38.0,0.09523816666666107
9690,50.0,0.09523816666666107,35.0,0.0952381666666895
9691,50.0,0.0952381666666895,41.0,1.592920499999991
9692,55.0,0.5309734999999876,34.0,0.530973500000016
9693,57.0,0.530973500000016,34.0,0.5309734999999876
9694,47.0,0.5309734999999876,35.0,0.5625
9695,50.0,0.09375,37.0,0.09375
9696,55.0,0.09375,40.0,0.1875
9697,59.0,0.09375,42.0,0.09375
9698,57.0,0.09375,44.0,0.1875
9699,55.0,0.09375,42.0,0.09375
9700,59.0,0.09375,38.0,0.47868820833332393
9701,62.0,0.07978725000000964,40.0,0.07978724999998121
9702,67.0,0.07978724999998121,43.0,0.15957450000001927
9703,71.0,0.07978725000000964,46.0,0.07978725000000964
9704,69.0,0.07978725000000964,50.0,0.1595392083333138
9705,67.0,0.07978724999998121,47.0,0.0797519583333326
9706,62.0,0.0797519583333326,44.0,0.15932745833333684
9707,59.0,0.07957550000000424,43.0,0.0797519583333326
9708,57.0,0.0797519583333326,42.0,0.1600360833333241
9709,55.0,0.07992908333332593,41.0,0.08010699999999815
9710,50.0,0.08010699999999815,40.0,0.1607507083332962
9711,47.0,0.08028566666666848,39.0,0.08046504166662771
9712,45.0,0.08046504166662771,38.0,0.48678683333329786
9713,43.0,0.08064525000000344,37.0,0.08086249999999495
9714,38.0,0.08086249999999495,36.0,0.08104458333332332
9715,47.0,0.08104458333332332,39.0,0.08122750000001133
9716,45.0,0.08122750000001133,38.0,0.08141124999997373
9717,43.0,0.08141124999997373,37.0,0.08159574999999109
9718,40.0,0.08159574999999109,36.0,0.08057645833332572
9719,43.0,0.08057645833332572,34.0,0.07978758333334213
9720,45.0,0.07978758333334213,37.0,0.1577589583333463
9721,48.0,0.07915600000001177,39.0,0.07860295833333453
9722,52.0,0.07860295833333453,41.0,0.1554437083332516
9723,55.0,0.07802387499995689,43.0,0.07741983333329472
9724,57.0,0.07741983333329472,46.0,0.07698891666666441
9725,60.0,0.07698891666666441,48.0,0.07725325000001249
9726,64.0,0.07725325000001249,50.0,0.15560954166667784
9727,67.0,0.07761987500001055,51.0,0.07798966666666729
9728,69.0,0.07798966666666729,49.0,0.15703516666667383
9729,72.0,0.07832916666669121,47.0,0.07870599999998262
9730,71.0,0.07870599999998262,50.0,0.08064525000000344
9731,69.0,0.08064525000000344,49.0,0.08064525000000344
9732,66.0,0.08064525000000344,49.0,0.7881817083333544
9733,60.0,0.07853399999999056,48.0,0.07853400000001898
9734,59.0,0.07853400000001898,47.0,0.15703383333334386
9735,57.0,0.07853399999999056,46.0,0.07849983333335331
9736,54.0,0.07849983333335331,45.0,0.15703445833332808
9737,50.0,0.07839733333329946,44.0,0.07863712500002862
9738,54.0,0.07863712500002862,45.0,0.15799924999998893
9739,52.0,0.07887824999997406,42.0,0.07912100000001487
9740,35.0,0.07912100000001487,48.0,0.15904616666668403
9741,48.0,0.07940008333332571,37.0,0.07964608333335832
9742,31.0,0.07964608333335832,35.0,0.4645002499999862
9743,50.0,0.07809116666666682,37.0,0.07782112500001404
9744,55.0,0.07782112500001404,40.0,0.1548396666666747
9745,59.0,0.07758641666666222,42.0,0.07725325000001249
9746,57.0,0.07725325000001249,44.0,0.15374829166663062
9747,55.0,0.07702187499998558,42.0,0.07672641666664504
9748,59.0,0.07672641666664504,38.0,0.4609507500000234
9749,62.0,0.07653049999998984,40.0,0.07662837500001274
9750,67.0,0.07662837500001274,43.0,0.15364925000000085
9751,71.0,0.07672625000000721,46.0,0.07692299999999364
9752,69.0,0.07692299999999364,50.0,0.15414262500001996
9753,67.0,0.077021875000014,47.0,0.07712075000000596
9754,62.0,0.07712075000000596,44.0,0.15444024999996486
9755,59.0,0.07712074999997753,43.0,0.07731949999998733
9756,57.0,0.07731949999998733,42.0,0.15523974999999268
9757,55.0,0.07751949999999397,41.0,0.07772024999999871
9758,50.0,0.07772024999999871,40.0,0.15604700000000093
9759,47.0,0.07792200000000093,39.0,0.078125
9760,45.0,0.078125,38.0,0.47310633333333385
9761,43.0,0.07832899999999654,37.0,0.07853399999999056
9762,38.0,0.07853399999999056,36.0,0.07874025000000984
9763,47.0,0.07874025000000984,39.0,0.0789472499999988
9764,45.0,0.0789472499999988,38.0,0.0791557500000124
9765,43.0,0.0791557500000124,37.0,0.07940008333332571
9766,40.0,0.07940008333332571,36.0,0.07947025000001418
9767,43.0,0.07947025000001418,34.0,0.07455061875000979
9768,45.0,0.07915587499999788,37.0,0.15727491666666538
9769,48.0,0.07880925000000616,39.0,0.07846566666665922
9770,52.0,0.07846566666665922,41.0,0.1559462916667087
9771,36.0,0.8955220000000281,37.0,2.670638999999994
9772,40.0,0.3921569999999974,35.0,2.278481999999997
9773,52.0,2.278481999999997,53.0,0.828728749999982
9774,34.0,0.662982999999997,32.0,0.3314915000000269
9775,50.0,0.16574574999998504,45.0,0.08287287500002094
9776,52.0,0.08287287500002094,45.0,0.08287287500002094
9777,50.0,0.08287287500002094,50.0,0.4245285000000081
9778,48.0,0.4245285000000081,47.0,0.14150949999998375
9779,50.0,0.14150949999998375,50.0,0.28301900000002433
9780,52.0,0.28301900000002433,53.0,0.5660379999999918
9781,53.0,0.4245285000000081,50.0,0.14150949999998375
9782,52.0,0.14150949999998375,48.0,0.2830189999999675
9783,50.0,0.14150949999998375,43.0,0.07075474999999187
9784,52.0,0.07075474999999187,43.0,0.07075474999999187
9785,50.0,0.07075474999999187,52.0,0.45918375000002243
9786,48.0,0.45918375000002243,48.0,0.15306124999995063
9787,50.0,0.15306124999995063,47.0,0.4878049999999803
9788,52.0,0.4878049999999803,39.0,0.35840625000003
9789,35.0,0.06097562500002596,29.0,0.29743062500000406
9790,44.0,0.060975624999969114,29.0,0.23645500000003494
9791,40.0,0.12195125000005191,29.0,0.11450374999998303
9792,52.0,0.11450374999998303,29.0,0.11450375000003987
9793,47.0,0.11450375000003987,29.0,0.11450374999998303
9794,52.0,0.11450374999998303,29.0,0.11450374999998303
9795,47.0,0.11450374999998303,29.0,0.11450374999998303
9796,59.0,0.11450374999998303,29.0,0.11450375000003987
9797,52.0,0.11450375000003987,29.0,0.11450374999998303
9798,59.0,0.11450374999998303,29.0,0.11450374999998303
9799,52.0,0.11450374999998303,29.0,0.11450375000003987
9800,64.0,0.11450375000003987,29.0,0.11450374999998303
9801,59.0,0.11450374999998303,29.0,0.11450374999998303
9802,64.0,0.11450374999998303,29.0,0.11904750000002196
9803,59.0,0.11904750000002196,29.0,0.11904749999996511
9804,71.0,0.11904749999996511,29.0,0.12295074999997269
9805,64.0,0.12295074999997269,29.0,0.12295075000002953
9806,71.0,0.12295075000002953,29.0,0.12295074999997269
9807,64.0,0.12295074999997269,29.0,0.12295075000002953
9808,76.0,0.12295075000002953,39.0,0.14999999999997726
9809,40.0,0.8999999999999773,44.0,4.685231999999985
9810,45.0,1.2082154999999943,37.0,3.4770164999999906
9811,38.0,1.6109539999999924,48.0,0.2985075000000279
9812,40.0,0.2985075000000279,48.0,0.29850749999997106
9813,43.0,0.29850749999997106,51.0,0.3614460000000008
9814,41.0,0.3614460000000008,47.0,0.6323722500000031
9815,40.0,0.6323722500000031,47.0,0.2752292499999953
9816,40.0,0.2752292499999953,44.0,5.746693499999992
9817,45.0,1.0555949999999825,37.0,4.69109850000001
9818,38.0,1.4074600000000146,48.0,0.3076924999999733
9819,40.0,0.3076924999999733,48.0,0.3076925000000301
9820,43.0,0.3076925000000301,51.0,0.35714300000000776
9821,41.0,0.35714300000000776,47.0,0.35714300000000776
9822,40.0,0.35714300000000776,47.0,0.3899081041666932
9823,40.0,0.4128438750000214,40.0,1.3030283749999398
9824,48.0,0.13761462499996924,36.0,0.22556400000001986
9825,47.0,0.22556400000001986,33.0,0.22556399999996302
9826,50.0,0.22556399999996302,39.0,0.23809525000001486
9827,48.0,0.23809525000001486,38.0,0.23809524999995801
9828,45.0,0.23809524999995801,36.0,0.23809525000001486
9829,41.0,0.23809525000001486,35.0,0.23809525000001486
9830,40.0,0.23809525000001486,37.0,2.76216450000004
9831,38.0,1.2555810000000065,31.0,0.9756100000000174
9832,36.0,0.9756100000000174,27.0,2.9627495000000295
9833,40.0,0.530973500000016,25.0,2.4317760000000135
9834,52.0,3.5710170000000403,42.0,2.074468500000023
9835,54.0,2.074468500000023,42.0,0.2777777499999843
9836,57.0,0.2777777499999843,43.0,0.22556400000001986
9837,55.0,0.22556400000001986,41.0,0.17857149999997546
9838,52.0,0.17857149999997546,39.0,0.1785715000000323
9839,48.0,0.1785715000000323,39.0,0.24193550000001096
9840,47.0,0.24193550000001096,35.0,0.06048387499998853
9841,47.0,0.12096774999997706,35.0,0.1209677500000339
9842,59.0,0.1209677500000339,43.0,0.6818180000000211
9843,44.0,0.5113635000000158,26.0,0.34090900000001056
9844,57.0,0.17045450000000528,37.0,0.08522725000000264
9845,59.0,0.08522725000000264,37.0,0.08522725000000264
9846,57.0,0.08522725000000264,43.0,0.430622249999999
9847,55.0,0.430622249999999,39.0,0.14354074999999966
9848,57.0,0.14354074999999966,39.0,0.2870814999999993
9849,59.0,0.2870814999999993,42.0,0.5741629999999986
9850,60.0,0.430622249999999,40.0,0.14354074999999966
9851,59.0,0.14354074999999966,40.0,0.2870814999999993
9852,57.0,0.14354074999999966,37.0,0.07177037500002825
9853,59.0,0.07177037500002825,37.0,0.07177037499997141
9854,57.0,0.07177037499997141,44.0,0.594893250000041
9855,55.0,0.594893250000041,33.0,0.22222224999995888
9856,57.0,0.22222224999995888,31.0,0.4225349999999821
9857,59.0,0.4225349999999821,31.0,1.5882344999999987
9858,23.0,1.058823000000018,24.0,0.35294099999998707
9859,47.0,0.5294114999999806,25.0,0.13043475000000626
9860,59.0,0.13043475000000626,25.0,0.13043475000000626
9861,54.0,0.13043475000000626,25.0,0.13043475000000626
9862,59.0,0.13043475000000626,25.0,0.13043475000000626
9863,54.0,0.13043475000000626,25.0,0.13043474999994942
9864,66.0,0.13043474999994942,21.0,0.14705874999998514
9865,59.0,0.14705874999998514,21.0,0.14705875000004198
9866,66.0,0.14705875000004198,21.0,0.1744185000000016
9867,59.0,0.1744185000000016,21.0,0.22900774999999385
9868,71.0,0.22900774999999385,28.0,0.5
9869,59.0,1.0,44.0,0.36363649999998415
9870,57.0,0.36363649999998415,44.0,0.375
9871,55.0,0.375,45.0,1.371381499999984
9872,46.0,0.39999999999997726,34.0,0.3208554999999933
9873,47.0,0.16042774999999665,31.0,0.16042774999999665
9874,50.0,0.16042774999999665,34.0,0.6505260000000135
9875,48.0,0.10695183333331215,34.0,0.106951833333369
9876,47.0,0.106951833333369,32.0,0.10695183333331215
9877,47.0,0.10695183333331215,43.0,1.1799139999999966
9878,55.0,0.3296705000000202,42.0,0.2941175000000271
9879,54.0,0.2941175000000271,39.0,0.5561259999999493
9880,52.0,0.2941174999999703,44.0,0.7683374999999728
9881,46.0,0.262008499999979,36.0,0.2531645000000253
9882,47.0,0.12658225000001266,33.0,0.12658225000001266
9883,50.0,0.12658225000001266,36.0,0.5063289999999938
9884,48.0,0.08438816666665616,36.0,0.08438816666665616
9885,47.0,0.08438816666665616,33.0,0.08438816666665616
9886,47.0,0.08438816666665616,44.0,1.0021970000000238
9887,59.0,0.2531645000000253,43.0,0.24793399999998655
9888,57.0,0.24793399999998655,39.0,0.5010985000000119
9889,55.0,0.24793399999998655,46.0,0.9940065000000118
9890,46.0,0.2531645000000253,38.0,0.24489799999997786
9891,47.0,0.12244900000001735,35.0,0.1224489999999605
9892,50.0,0.1224489999999605,38.0,0.4959440000000086
9893,48.0,0.08163266666667823,38.0,0.08163266666667823
9894,47.0,0.08163266666667823,36.0,0.08163266666667823
9895,47.0,0.08163266666667823,42.0,0.7388509999999542
9896,55.0,0.2510459999999739,43.0,0.24390249999999014
9897,54.0,0.24390249999999014,38.0,0.49390249999999014
9898,52.0,0.24390249999999014,47.0,0.7338710000000219
9899,51.0,0.25,37.0,0.24193550000001096
9900,52.0,0.12096774999997706,35.0,0.1209677500000339
9901,55.0,0.1209677500000339,37.0,0.24193550000001096
9902,53.0,0.08064516666667032,37.0,0.08064516666667032
9903,52.0,0.08064516666667032,35.0,0.07056452083332942
9904,52.0,0.08064516666667032,41.0,1.0169533333333334
9905,64.0,0.25,46.0,0.23809499999998707
9906,62.0,0.23809499999998707,43.0,0.5288583333333463
9907,60.0,0.24291499999998223,53.0,1.036090333333334
9908,51.0,0.2859433333333641,32.0,0.24291499999998223
9909,52.0,0.12145749999996269,30.0,0.12145750000001954
9910,55.0,0.12145750000001954,32.0,0.5072319999999877
9911,53.0,0.0809716666666418,32.0,0.08097166666669864
9912,52.0,0.08097166666669864,30.0,0.07085020833329736
9913,52.0,0.0809716666666418,37.0,1.0390145000000075
9914,60.0,0.26431700000000546,38.0,0.23809499999998707
9915,59.0,0.23809499999998707,36.0,0.536602500000015
9916,57.0,0.23809499999998707,40.0,0.8390485000000467
9917,51.0,0.2985075000000279,27.0,0.270270499999981
9918,52.0,0.1351352500000189,27.0,0.13513524999996207
9919,55.0,0.13513524999996207,30.0,0.5311400000000503
9920,53.0,0.09009016666669822,30.0,0.09009016666664138
9921,52.0,0.09009016666664138,29.0,0.07882889583333963
9922,52.0,0.09009016666669822,38.0,0.9733625000000075
9923,64.0,0.2608695000000125,40.0,0.234375
9924,62.0,0.234375,38.0,0.47811799999999494
9925,60.0,0.23715399999997544,45.0,0.9476475000000164
9926,51.0,0.2409640000000195,37.0,0.22988500000002432
9927,52.0,0.11494249999998374,37.0,0.11494250000004058
9928,55.0,0.11494250000004058,37.0,0.4767984999999726
9929,53.0,0.07662833333330354,37.0,0.07662833333336039
9930,52.0,0.07662833333336039,34.0,0.0670497916666477
9931,52.0,0.07662833333330354,42.0,0.9633969999999863
9932,60.0,0.24691350000000511,44.0,0.2264149999999745
9933,59.0,0.2264149999999745,40.0,0.4900685000000067
9934,57.0,0.23255799999998317,47.0,1.0336735000000203
9935,51.0,0.2575105000000235,37.0,0.24590150000000222
9936,52.0,0.12295074999997269,35.0,0.12295075000002953
9937,55.0,0.12295075000002953,37.0,0.24590150000000222
9938,53.0,0.08196716666668635,37.0,0.08196716666662951
9939,52.0,0.08196716666662951,35.0,0.07172127083333635
9940,52.0,0.08196716666668635,41.0,0.804191000000003
9941,59.0,0.2843599999999924,43.0,0.2531645000000253
9942,60.0,0.2531645000000253,40.0,0.26666649999998526
9943,59.0,0.26666649999998526,50.0,0.7136390000000006
9944,46.0,0.2521009999999819,32.0,0.23076900000000933
9945,47.0,0.11538450000000466,30.0,0.11538450000000466
9946,50.0,0.11538450000000466,32.0,0.23076900000000933
9947,48.0,0.07692299999996521,32.0,0.07692300000002206
9948,47.0,0.07692300000002206,30.0,0.0673076250000122
9949,47.0,0.07692300000002206,37.0,0.9765690000000404
9950,57.0,0.2564105000000154,47.0,0.23076900000000933
9951,55.0,0.23076900000000933,44.0,0.23076900000000933
9952,54.0,0.23076900000000933,53.0,1.0356155000000058
9953,46.0,0.25862050000000636,38.0,0.24896250000000464
9954,47.0,0.1244812499999739,38.0,0.12448125000003074
9955,50.0,0.12448125000003074,38.0,0.5280324999999948
9956,48.0,0.08298750000000155,38.0,0.08298750000000155
9957,47.0,0.08298750000000155,35.0,0.07261406250000846
9958,47.0,0.08298750000000155,46.0,1.1008645000000001
9959,54.0,0.27906999999999016,47.0,0.26666649999998526
9960,52.0,0.26666649999998526,44.0,0.2666665000000421
9961,51.0,0.2666665000000421,52.0,0.8492094999999722
9962,46.0,0.2884614999999826,41.0,0.2803739999999948
9963,47.0,0.14018700000002582,38.0,0.14018699999996898
9964,50.0,0.14018699999996898,41.0,0.5494325000000231
9965,48.0,0.09345799999999826,41.0,0.09345799999999826
9966,47.0,0.09345799999999826,38.0,0.0817757500000198
9967,47.0,0.09345799999999826,52.0,1.006887000000063
9968,57.0,0.2690585000000283,43.0,0.2390439999999785
9969,55.0,0.2390439999999785,39.0,0.23904400000003534
9970,54.0,0.23904400000003534,47.0,2.389421499999969
9971,49.0,0.2597405000000208,38.0,2.129680999999948
9972,50.0,0.12552299999998695,36.0,0.12552299999998695
9973,54.0,0.12552299999998695,38.0,1.8786349999999743
9974,52.0,0.09523816666666107,38.0,0.09523816666666107
9975,50.0,0.09523816666666107,35.0,0.08333339583333554
9976,50.0,0.09523816666666107,41.0,1.592920499999991
9977,55.0,0.530973500000016,34.0,0.5309734999999591
9978,57.0,0.5309734999999591,34.0,0.530973500000016
9979,47.0,0.530973500000016,35.0,0.5625
9980,50.0,0.09375,37.0,0.09375
9981,55.0,0.09375,40.0,0.1875
9982,59.0,0.09375,42.0,0.09375
9983,57.0,0.09375,44.0,0.1875
9984,55.0,0.09375,42.0,0.09375
9985,59.0,0.09375,38.0,0.47868820833338077
9986,62.0,0.07978724999998121,40.0,0.07978725000003806
9987,67.0,0.07978725000003806,43.0,0.15957449999996243
9988,71.0,0.07978724999998121,46.0,0.07978724999998121
9989,69.0,0.07978724999998121,50.0,0.15953920833339907
9990,67.0,0.07978725000003806,47.0,0.07975195833336102
9991,62.0,0.07975195833336102,44.0,0.15932745833333684
9992,59.0,0.07957549999997582,43.0,0.07975195833336102
9993,57.0,0.07975195833336102,42.0,0.16003608333329566
9994,55.0,0.07992908333335436,41.0,0.08010699999994131
9995,50.0,0.08010699999994131,40.0,0.16075070833340988
9996,47.0,0.08028566666672532,39.0,0.08046504166668456
9997,45.0,0.08046504166668456,38.0,0.48678683333338313
9998,43.0,0.08064524999997502,37.0,0.08086250000002337
9999,38.0,0.08086250000002337,36.0,0.08104458333332332
10000,47.0,0.08104458333332332,39.0,0.08122750000001133
10001,45.0,0.08122750000001133,38.0,0.08141125000003058
10002,43.0,0.08141125000003058,37.0,0.0815957500000195
10003,40.0,0.0815957500000195,36.0,0.08057645833332572
10004,43.0,0.08057645833332572,34.0,0.0797875833333137
10005,45.0,0.0797875833333137,37.0,0.15775895833331788
10006,48.0,0.07915599999995493,39.0,0.07860295833336295
10007,52.0,0.07860295833336295,41.0,0.15544370833339372
10008,55.0,0.07802387500004215,43.0,0.07741983333335156
10009,57.0,0.07741983333335156,46.0,0.07698891666666441
10010,60.0,0.07698891666666441,48.0,0.07725324999995564
10011,64.0,0.07725324999995564,50.0,0.15560954166664942
10012,67.0,0.07761987499998213,51.0,0.07798966666666729
10013,69.0,0.07798966666666729,49.0,0.157035166666617
10014,72.0,0.07832916666660594,47.0,0.07870600000001104
10015,71.0,0.07870600000001104,50.0,0.08064524999997502
10016,69.0,0.08064524999997502,49.0,0.08064525000003187
10017,66.0,0.08064525000003187,49.0,0.7881817083333544
10018,60.0,0.07853399999999056,48.0,0.07853399999999056
10019,59.0,0.07853399999999056,47.0,0.15703383333334386
10020,57.0,0.07853399999999056,46.0,0.07849983333335331
10021,54.0,0.07849983333335331,45.0,0.15703445833332808
10022,50.0,0.07839733333332788,44.0,0.0786371250000002
10023,54.0,0.0786371250000002,45.0,0.15799924999998893
10024,52.0,0.07887825000000248,42.0,0.07912099999998645
10025,35.0,0.07912099999998645,48.0,0.15904616666671245
10026,48.0,0.07940008333338255,37.0,0.0796460833333299
10027,47.0,0.0796460833333299,35.0,0.46450024999995776
10028,50.0,0.07809116666669524,37.0,0.07782112499995719
10029,55.0,0.07782112499995719,40.0,0.15483966666658944
10030,59.0,0.0775864166666338,42.0,0.07725324999995564
10031,57.0,0.07725324999995564,44.0,0.15374829166671589
10032,55.0,0.077021875000014,42.0,0.07672641666670188
10033,59.0,0.07672641666670188,38.0,0.46095074999999497
10034,62.0,0.07653049999998984,40.0,0.07662837499998432
10035,67.0,0.07662837499998432,43.0,0.1536492500000577
10036,71.0,0.07672625000003563,46.0,0.07692300000002206
10037,69.0,0.07692300000002206,50.0,0.15414262499996312
10038,67.0,0.07702187499995716,47.0,0.07712075000000596
10039,62.0,0.07712075000000596,44.0,0.15444024999999328
10040,59.0,0.07712075000000596,43.0,0.07731949999998733
10041,57.0,0.07731949999998733,42.0,0.1552397500000211
10042,55.0,0.07751949999999397,41.0,0.07772025000002714
10043,50.0,0.07772025000002714,40.0,0.15604700000000093
10044,47.0,0.07792200000000093,39.0,0.078125
10045,45.0,0.078125,38.0,0.47310633333336227
10046,43.0,0.07832899999999654,37.0,0.07853399999999056
10047,38.0,0.07853399999999056,36.0,0.07874025000000984
10048,47.0,0.07874025000000984,39.0,0.0789472499999988
10049,45.0,0.0789472499999988,38.0,0.07915574999998398
10050,43.0,0.07915574999998398,37.0,0.07940008333338255
10051,40.0,0.07940008333338255,36.0,0.07947024999998575
10052,43.0,0.07947024999998575,34.0,0.07455061874998137
10053,45.0,0.07915587499996946,37.0,0.15727491666672222
10054,48.0,0.078809250000063,39.0,0.07846566666665922
10055,52.0,0.07846566666665922,41.0,0.15594629166662344
10056,55.0,0.07812516666666625,43.0,0.07782112499995719
10057,57.0,0.07782112499995719,46.0,0.07751949999999397
10058,50.0,0.07653049999998984,71.0,0.07653049999998984
10059,48.0,0.07653049999998984,71.0,0.07633600000002616
10060,47.0,0.07633600000002616,72.0,0.07653049999998984
10061,44.0,0.07653049999998984,73.0,0.07675904166666214
10062,38.0,0.07675904166666214,75.0,0.07695595833337165
10063,36.0,0.07695595833337165,77.0,0.07718700000003764
10064,35.0,0.07718700000003764,78.0,0.07738616666665621
10065,32.0,0.07738616666665621,80.0,0.07761987499998213
10066,26.0,0.07761987499998213,81.0,0.07782112500001404
10067,24.0,0.07782112500001404,82.0,0.07805733333333364
10068,23.0,0.07805733333333364,84.0,0.0782609999999977
10069,20.0,0.0782609999999977,86.0,0.07849983333335331
10070,14.0,0.07849983333335331,88.0,0.07870587499996873
10071,5.0,0.07870587499996873,96.0,0.9473669999999856
10072,16.0,0.9473669999999856,102.0,0.1759529999999927
10073,49.0,0.1759529999999927,66.0,0.07692300000002206
10074,47.0,0.07692300000002206,67.0,0.07692299999996521
10075,50.0,0.07692299999996521,68.0,0.07692300000002206
10076,56.0,0.07692300000002206,69.0,0.07692299999996521
10077,35.0,0.07692299999996521,84.0,0.15665799999999308
10078,59.0,0.07832899999999654,72.0,0.07832899999999654
10079,42.0,0.07832899999999654,90.0,0.15665799999999308
10080,68.0,0.07832899999999654,74.0,0.07832899999999654
10081,40.0,0.07832899999999654,84.0,0.15665799999999308
10082,71.0,0.07832899999999654,77.0,0.07832899999999654
10083,40.0,0.07832899999999654,95.0,0.30769199999997454
10084,67.0,0.07692300000002206,74.0,0.07692299999996521
10085,71.0,0.07692299999996521,77.0,0.07692300000002206
10086,70.0,0.07692300000002206,81.0,0.07692299999996521
10087,67.0,0.07692299999996521,80.0,0.07692300000002206
10088,61.0,0.07692300000002206,78.0,0.07692300000002206
10089,28.0,0.07692300000002206,90.0,0.0767918333333455
10090,58.0,0.0767918333333455,76.0,0.0770548333333636
10091,55.0,0.0770548333333636,76.0,0.07741950000001907
10092,49.0,0.07741950000001907,76.0,0.07772041666663654
10093,47.0,0.07772041666663654,74.0,0.0780573333332768
10094,46.0,0.0780573333332768,73.0,0.07839733333332788
10095,16.0,0.07839733333332788,90.0,0.16949149999999236
10096,42.0,0.0847457500000246,73.0,0.08474574999996776
10097,47.0,0.08474574999996776,74.0,0.07692300000002206
10098,45.0,0.07692300000002206,75.0,0.07692299999996521
10099,48.0,0.07692299999996521,76.0,0.07692300000002206
10100,54.0,0.07692300000002206,76.0,0.07692299999996521
10101,21.0,0.07692299999996521,82.0,0.15748050000001967
10102,57.0,0.07874025000000984,76.0,0.07874025000000984
10103,42.0,0.07874025000000984,87.0,0.15748049999996283
10104,66.0,0.078740249999953,81.0,0.07874025000000984
10105,71.0,0.07874025000000984,84.0,0.15748050000001967
10106,69.0,0.07874025000000984,86.0,0.07874025000000984
10107,40.0,0.07874025000000984,93.0,0.07874025000000984
10108,64.0,0.07874025000000984,87.0,0.07874025000000984
10109,69.0,0.07874025000000984,87.0,0.1542415000000119
10110,68.0,0.07712075000000596,85.0,0.07712075000000596
10111,64.0,0.07712075000000596,83.0,0.1542415000000119
10112,59.0,0.07712075000000596,82.0,0.07712075000000596
10113,57.0,0.07712075000000596,80.0,0.15424149999995507
10114,56.0,0.07712074999994911,78.0,0.07712075000000596
10115,52.0,0.07712075000000596,76.0,0.1542415000000119
10116,47.0,0.07712075000000596,74.0,0.07712075000000596
10117,28.0,0.07712075000000596,74.0,0.1542415000000119
10118,44.0,0.07712075000000596,71.0,0.07712075000000596
10119,29.0,0.07712075000000596,93.0,0.16085800000001882
10120,45.0,0.08042899999998099,71.0,0.08042900000003783
10121,50.0,0.08042900000003783,71.0,0.07692300000002206
10122,48.0,0.07692300000002206,71.0,0.07692299999996521
10123,51.0,0.07692299999996521,71.0,0.07692300000002206
10124,57.0,0.07692300000002206,71.0,0.07692299999996521
10125,36.0,0.07692299999996521,81.0,0.1583115000000248
10126,60.0,0.07915574999998398,71.0,0.07915575000004083
10127,31.0,0.07915575000004083,86.0,0.15831149999996796
10128,69.0,0.07915574999998398,75.0,0.07915574999998398
10129,41.0,0.07915574999998398,79.0,0.1583115000000248
10130,72.0,0.07915574999998398,78.0,0.07915575000004083
10131,41.0,0.07915575000004083,93.0,0.30769199999997454
10132,68.0,0.07692300000002206,82.0,0.07692299999996521
10133,72.0,0.07692299999996521,82.0,0.07692300000002206
10134,71.0,0.07692300000002206,80.0,0.07692299999996521
10135,68.0,0.07692299999996521,79.0,0.07692300000002206
10136,62.0,0.07692300000002206,78.0,0.07692300000002206
10137,29.0,0.07692300000002206,97.0,0.07692299999996521
10138,59.0,0.07692299999996521,76.0,0.07692300000002206
10139,56.0,0.07692300000002206,75.0,0.07692300000002206
10140,50.0,0.07692300000002206,74.0,0.07692299999996521
10141,48.0,0.07692299999996521,73.0,0.07692300000002206
10142,47.0,0.07692300000002206,72.0,0.07692299999996521
10143,17.0,0.07692299999996521,93.0,0.16085800000001882
10144,43.0,0.08042899999998099,71.0,0.08042900000003783
10145,48.0,0.08042900000003783,71.0,0.07692300000002206
10146,46.0,0.07692300000002206,71.0,0.07692299999996521
10147,49.0,0.07692299999996521,71.0,0.07692300000002206
10148,55.0,0.07692300000002206,71.0,0.07692299999996521
10149,34.0,0.07692299999996521,81.0,0.1583115000000248
10150,58.0,0.07915574999998398,71.0,0.07915575000004083
10151,43.0,0.07915575000004083,86.0,0.15831149999996796
10152,67.0,0.07915574999998398,75.0,0.07915574999998398
10153,41.0,0.07915574999998398,79.0,0.1583115000000248
10154,70.0,0.07915574999998398,78.0,0.07915575000004083
10155,41.0,0.07915575000004083,86.0,0.07692300000002206
10156,65.0,0.07692300000002206,82.0,0.07692299999996521
10157,70.0,0.07692299999996521,82.0,0.15384599999998727
10158,69.0,0.07692300000002206,80.0,0.07692299999996521
10159,65.0,0.07692299999996521,79.0,0.15384600000004411
10160,60.0,0.07692300000002206,78.0,0.07692300000002206
10161,29.0,0.07692300000002206,77.0,0.07692299999996521
10162,57.0,0.07692299999996521,75.0,0.07692300000002206
10163,53.0,0.07692300000002206,73.0,0.15384599999998727
10164,48.0,0.07692300000002206,71.0,0.07692299999996521
10165,27.0,0.07692299999996521,71.0,0.15384599999998727
10166,45.0,0.07692300000002206,68.0,0.07692299999996521
10167,25.0,0.07692299999996521,84.0,0.2390439999999785
10168,52.0,0.2390439999999785,58.0,0.2290075000000229
10169,53.0,0.11450374999998303,55.0,0.11450375000003987
10170,56.0,0.11450375000003987,58.0,0.22900749999996606
10171,54.0,0.07633583333330307,58.0,0.07633583333335991
10172,53.0,0.07633583333335991,55.0,0.07633583333330307
10173,24.0,0.07633583333330307,68.0,0.9061820000000012
10174,57.0,0.2400000000000091,66.0,0.4511279999999829
10175,63.0,0.22556400000001986,64.0,0.22556399999996302
10176,61.0,0.22556399999996302,70.0,0.21505400000000918
10177,52.0,0.21505400000000918,59.0,0.20689650000002757
10178,53.0,0.10344824999998536,55.0,0.10344825000004221
10179,56.0,0.10344825000004221,59.0,0.20689649999997073
10180,54.0,0.06896549999999024,59.0,0.06896549999999024
10181,53.0,0.06896549999999024,55.0,0.06896549999999024
10182,53.0,0.06896549999999024,69.0,0.8023979999999824
10183,61.0,0.20134250000000975,65.0,0.19672150000002375
10184,48.0,0.19672150000002375,62.0,0.1967214999999669
10185,58.0,0.1967214999999669,69.0,0.207612499999982
10186,52.0,0.207612499999982,59.0,0.19230750000002672
10187,53.0,0.09615374999998494,55.0,0.09615375000004178
10188,56.0,0.09615375000004178,59.0,0.19230749999996988
10189,54.0,0.06410249999998996,59.0,0.06410249999998996
10190,53.0,0.06410249999998996,55.0,0.06410249999998996
10191,53.0,0.06410249999998996,70.0,0.7822369999999523
10192,65.0,0.19736849999998185,65.0,0.3821659999999838
10193,63.0,0.1910829999999919,65.0,0.1910829999999919
10194,58.0,0.1910829999999919,69.0,0.20270249999998668
10195,45.0,0.20270249999998668,58.0,0.1941749999999729
10196,46.0,0.09708749999998645,53.0,0.09708749999998645
10197,49.0,0.09708749999998645,58.0,0.19417500000002974
10198,47.0,0.06472500000000991,58.0,0.06472500000000991
10199,46.0,0.06472500000000991,55.0,0.06472500000000991
10200,46.0,0.06472500000000991,70.0,0.7852274999999622
10201,58.0,0.20270249999998668,63.0,0.38835000000000264
10202,56.0,0.1941749999999729,63.0,0.19417500000002974
10203,54.0,0.19417500000002974,71.0,0.1941749999999729
10204,57.0,0.1941749999999729,57.0,0.19047599999998965
10205,58.0,0.09523799999999483,57.0,0.09523799999999483
10206,61.0,0.09523799999999483,57.0,0.19047599999998965
10207,59.0,0.06349199999999655,57.0,0.06349199999999655
10208,58.0,0.06349199999999655,54.0,0.06349199999999655
10209,58.0,0.06349199999999655,71.0,0.7628939999999602
10210,70.0,0.19736849999998185,63.0,0.37383199999999306
10211,68.0,0.18691599999999653,63.0,0.18691599999999653
10212,63.0,0.18691599999999653,71.0,0.1916934999999853
10213,57.0,0.1916934999999853,59.0,0.18518499999998994
10214,58.0,0.09259250000002339,56.0,0.09259249999996655
10215,61.0,0.09259249999996655,59.0,0.18518499999998994
10216,59.0,0.06172833333334893,59.0,0.06172833333334893
10217,58.0,0.06172833333334893,55.0,0.061728333333292085
10218,58.0,0.061728333333292085,70.0,0.5556209999999737
10219,54.0,0.1941749999999729,64.0,0.1807230000000004
10220,65.0,0.1807230000000004,64.0,0.1807230000000004
10221,63.0,0.1807230000000004,70.0,0.6379559999999742
10222,45.0,0.19999999999998863,59.0,0.2189779999999928
10223,46.0,0.1094889999999964,55.0,0.1094889999999964
10224,49.0,0.1094889999999964,59.0,0.2189779999999928
10225,47.0,0.07299266666666426,59.0,0.07299266666666426
10226,46.0,0.07299266666666426,56.0,0.07299266666666426
10227,46.0,0.07299266666666426,71.0,0.9624655000000075
10228,50.0,0.24291499999998223,56.0,0.47058800000002066
10229,56.0,0.23529400000001033,55.0,0.23529400000001033
10230,54.0,0.23529400000001033,60.0,0.7232705000000124
10231,41.0,0.24896250000000464,53.0,0.23715399999997544
10232,42.0,0.11857700000001614,53.0,0.1185769999999593
10233,46.0,0.1185769999999593,53.0,0.23715400000003228
10234,44.0,0.07905133333338199,53.0,0.07905133333332515
10235,42.0,0.07905133333332515,50.0,0.07905133333332515
10236,42.0,0.07905133333332515,61.0,0.9110405000000696
10237,54.0,0.2409640000000195,58.0,0.44280400000002373
10238,52.0,0.22140200000001187,56.0,0.22140200000001187
10239,50.0,0.22140200000001187,63.0,0.2272725000000264
10240,53.0,0.2272725000000264,54.0,0.2105265000000145
10241,54.0,0.10526325000000725,51.0,0.10526325000000725
10242,57.0,0.10526325000000725,54.0,0.21052649999995765
10243,55.0,0.07017550000000483,54.0,0.07017550000000483
10244,54.0,0.07017550000000483,51.0,0.07017549999994799
10245,54.0,0.07017549999994799,62.0,0.77819199999999
10246,61.0,0.19999999999998863,58.0,0.38338700000002746
10247,64.0,0.1916934999999853,59.0,0.19169350000004215
10248,62.0,0.19169350000004215,67.0,0.19480499999997392
10249,53.0,0.19480499999997392,59.0,0.18927450000001045
10250,54.0,0.09463725000000522,56.0,0.09463725000000522
10251,57.0,0.09463725000000522,59.0,0.18927450000001045
10252,55.0,0.06309149999998453,59.0,0.06309149999998453
10253,54.0,0.06309149999998453,55.0,0.05757099375000507
10254,54.0,0.06309150000004138,68.0,0.5734365000000139
10255,62.0,0.1960784999999987,63.0,0.18867899999997917
10256,49.0,0.18867899999997917,63.0,0.188679000000036
10257,59.0,0.188679000000036,69.0,0.20270249999998668
10258,53.0,0.20270249999998668,60.0,0.19736849999998185
10259,54.0,0.09868425000001935,56.0,0.0986842499999625
10260,57.0,0.0986842499999625,60.0,0.1973685000000387
10261,55.0,0.06578949999999395,60.0,0.0657895000000508
10262,54.0,0.0657895000000508,56.0,0.05838818124999534
10263,54.0,0.06578949999999395,74.0,0.7606854999999655
10264,66.0,0.1916934999999853,65.0,0.36697199999997565
10265,64.0,0.18348600000001625,65.0,0.1834859999999594
10266,62.0,0.1834859999999594,76.0,0.20202000000000453
10267,53.0,0.20202000000000453,66.0,0.2105265000000145
10268,54.0,0.10526325000000725,61.0,0.10526325000000725
10269,57.0,0.10526325000000725,66.0,0.21052649999995765
10270,55.0,0.07017550000000483,66.0,0.07017550000000483
10271,54.0,0.07017550000000483,61.0,0.06491233749994763
10272,54.0,0.07017549999994799,82.0,0.7202050000000213
10273,62.0,0.234375,73.0,0.24291499999998223
10274,61.0,0.24291499999998223,73.0,0.24291500000003907
10275,59.0,0.24291500000003907,87.0,0.24291499999998223
10276,35.0,0.48582999999996446,50.0,0.24291500000003907
10277,59.0,0.1821862500000293,70.0,0.06072875000000977
10278,71.0,0.06072875000000977,95.0,0.30000000000001137
10279,69.0,0.30000000000001137,81.0,0.08849550000002182
10280,67.0,0.08849550000002182,76.0,0.08849549999996498
10281,62.0,0.08849549999996498,79.0,0.1769909999999868
10282,59.0,0.08849550000002182,72.0,0.08849549999996498
10283,57.0,0.08849549999996498,76.0,0.17699100000004364
10284,55.0,0.08849550000002182,71.0,0.08849550000002182
10285,50.0,0.08849550000002182,74.0,0.08849549999996498
10286,47.0,0.08849549999996498,68.0,0.08849550000002182
10287,45.0,0.08849550000002182,71.0,0.08849550000002182
10288,43.0,0.08849550000002182,66.0,0.08849549999996498
10289,38.0,0.08849549999996498,69.0,0.1769909999999868
10290,54.0,0.5309730000000172,55.0,0.08884524999996302
10291,55.0,0.08884524999996302,52.0,0.08919741666670689
10292,57.0,0.08919741666670689,50.0,0.08964158333333216
10293,59.0,0.08964158333333216,44.0,0.09000008333339338
10294,60.0,0.09000008333339338,45.0,0.09045250000002625
10295,62.0,0.09045250000002625,42.0,0.09084515000000692
10296,63.0,0.09084515000000692,40.0,0.21818200000001298
10297,47.0,0.21818200000001298,44.0,0.19736849999998185
10298,39.0,0.19736849999998185,42.0,0.1973685000000387
10299,63.0,0.1973685000000387,50.0,0.08797650000002477
10300,62.0,0.08797650000002477,46.0,0.08797649999996793
10301,60.0,0.08797649999996793,47.0,0.08797650000002477
10302,59.0,0.08797650000002477,43.0,0.08797649999996793
10303,57.0,0.08797649999996793,44.0,0.08797650000002477
10304,55.0,0.08797650000002477,42.0,0.08812312499998143
10305,26.0,0.08812312499998143,53.0,0.20833349999998063
10306,12.0,0.20833349999998063,49.0,0.19543950000002042
10307,27.0,0.19543950000002042,53.0,0.19543949999996357
10308,59.0,0.14657962499995847,81.0,0.048859875000005104
10309,71.0,0.048859875000005104,115.0,0.748835999999983
10310,43.0,0.18691599999999653,45.0,0.18691599999999653
10311,43.0,0.18691599999999653,45.0,0.18691599999999653
10312,38.0,0.18691599999999653,51.0,0.27429499999999507
10313,69.0,0.18808799999999337,81.0,0.0862070000000017
10314,67.0,0.0862070000000017,73.0,0.0862070000000017
10315,62.0,0.0862070000000017,79.0,0.1724140000000034
10316,59.0,0.0862070000000017,73.0,0.0862070000000017
10317,57.0,0.0862070000000017,76.0,0.1724140000000034
10318,55.0,0.0862070000000017,70.0,0.0862070000000017
10319,50.0,0.0862070000000017,74.0,0.0862070000000017
10320,47.0,0.0862070000000017,69.0,0.0862070000000017
10321,45.0,0.0862070000000017,71.0,0.0862070000000017
10322,43.0,0.0862070000000017,70.0,0.0862070000000017
10323,38.0,0.0862070000000017,69.0,0.16901400000000422
10324,56.0,0.5070420000000126,57.0,0.08379899999999907
10325,57.0,0.08379899999999907,55.0,0.08379899999999907
10326,59.0,0.08379899999999907,53.0,0.08379899999999907
10327,60.0,0.08379899999999907,52.0,0.08379899999999907
10328,62.0,0.08379899999999907,50.0,0.08379899999999907
10329,64.0,0.08379899999999907,48.0,0.08453764999995883
10330,65.0,0.08453764999995883,46.0,0.179104499999994
10331,48.0,0.179104499999994,44.0,0.17492700000002515
10332,45.0,0.17492700000002515,42.0,0.1749269999999683
10333,65.0,0.1749269999999683,56.0,0.08379899999999907
10334,64.0,0.08379899999999907,54.0,0.08379899999999907
10335,62.0,0.08379899999999907,53.0,0.08379899999999907
10336,60.0,0.08379899999999907,52.0,0.08379899999999907
10337,59.0,0.08379899999999907,51.0,0.08379899999999907
10338,57.0,0.08379899999999907,50.0,0.08421674999999595
10339,29.0,0.08421674999999595,53.0,0.179104499999994
10340,15.0,0.179104499999994,53.0,0.1734104999999886
10341,16.0,0.1734104999999886,53.0,0.1734104999999886
10342,58.0,0.1734104999999886,66.0,0.08379899999999907
10343,59.0,0.08379899999999907,65.0,0.08379899999999907
10344,61.0,0.08379899999999907,64.0,0.08379899999999907
10345,61.0,0.19933550000001787,74.0,0.20689650000002757
10346,20.0,0.20689650000002757,75.0,0.20062849999999344
10347,27.0,0.012539281249985379,75.0,0.18808921875000806
10348,36.0,0.012539281250042222,75.0,0.17554993749996584
10349,60.0,0.012539281249985379,76.0,0.16301065624998046
10350,43.0,0.16301065624998046,65.0,0.10196450000000823
10351,44.0,0.10196450000000823,60.0,0.10196450000000823
10352,47.0,0.10196450000000823,65.0,0.08497041666663563
10353,45.0,0.06797633333331987,65.0,0.08497041666663563
10354,44.0,0.06797633333331987,61.0,0.05947929166666199
10355,32.0,0.06797633333331987,56.0,0.19998650000002272
10356,37.0,0.012499156249987209,56.0,0.1874873437500355
10357,40.0,0.012499156249987209,56.0,0.1749881875000483
10358,44.0,0.012499156250044052,56.0,0.16248903125000425
10359,66.0,0.16248903125000425,78.0,0.20270249999998668
10360,64.0,0.20270249999998668,78.0,0.21201400000001058
10361,20.0,0.21201400000001058,75.0,0.20062849999999344
10362,56.0,0.012539281249985379,75.0,0.18808921875000806
10363,60.0,0.012539281250042222,77.0,0.17554993749996584
10364,63.0,0.012539281249985379,80.0,0.16301065624998046
10365,43.0,0.16301065624998046,70.0,0.10096924999999146
10366,44.0,0.10096924999999146,67.0,0.10096924999999146
10367,47.0,0.10096924999999146,70.0,0.08414104166666903
10368,45.0,0.06731283333334659,70.0,0.08414104166666903
10369,44.0,0.06731283333334659,68.0,0.05889872916668537
10370,32.0,0.06731283333334659,62.0,0.1987020000000257
10371,37.0,0.01241887499998029,62.0,0.1862831250000454
10372,40.0,0.012418875000037133,62.0,0.17386425000000827
10373,44.0,0.01241887499998029,62.0,0.16144537500002798
10374,51.0,0.16144537500002798,77.0,0.20134250000000975
10375,61.0,0.20134250000000975,77.0,0.20062849999999344
10376,20.0,0.20062849999999344,75.0,0.20062849999999344
10377,27.0,0.012539281249985379,75.0,0.18808921875000806
10378,56.0,0.012539281250042222,77.0,0.17554993749996584
10379,60.0,0.012539281249985379,81.0,0.16301065624998046
10380,43.0,0.16301065624998046,67.0,0.09871674999999414
10381,44.0,0.09871674999999414,64.0,0.09871674999999414
10382,47.0,0.09871674999999414,67.0,0.08226395833332845
10383,45.0,0.06581116666666276,67.0,0.08226395833332845
10384,44.0,0.06581116666666276,64.0,0.05758477083332991
10385,44.0,0.06581116666666276,80.0,0.19743350000004511
10386,64.0,0.19743350000004511,77.0,0.20326599999998507
10387,63.0,0.20326599999998507,78.0,0.2094384999999761
10388,20.0,0.2094384999999761,76.0,0.19743349999998827
10389,27.0,0.012339593750027689,76.0,0.18509390624996058
10390,56.0,0.012339593749970845,78.0,0.17275431249998974
10391,60.0,0.012339593750027689,83.0,0.16041471874996205
10392,38.0,0.16041471874996205,70.0,0.10129649999998946
10393,39.0,0.10129649999998946,66.0,0.10129649999998946
10394,42.0,0.10129649999998946,70.0,0.08441375000001017
10395,40.0,0.06753100000003087,70.0,0.08441375000001017
10396,39.0,0.06753099999997403,66.0,0.0590896250000128
10397,39.0,0.06753100000003087,80.0,0.19807200000002467
10398,49.0,0.19807200000002467,78.0,0.20547950000002402
10399,48.0,0.20547950000002402,75.0,0.2105265000000145
10400,20.0,0.2105265000000145,69.0,0.20062849999999344
10401,27.0,0.012539281249985379,69.0,0.18808921875000806
10402,56.0,0.012539281250042222,71.0,0.17554993749996584
10403,60.0,0.012539281249985379,71.0,0.16301065624998046
10404,43.0,0.16301065624998046,70.0,0.10031424999999672
10405,44.0,0.10031424999999672,67.0,0.10031424999999672
10406,47.0,0.10031424999999672,70.0,0.08359520833334955
10407,45.0,0.06687616666670237,70.0,0.0835952083332927
10408,44.0,0.06687616666664553,66.0,0.058516645833321945
10409,44.0,0.06687616666664553,80.0,0.19936309791665963
10410,64.0,0.19936309791665963,77.0,0.2127659999999878
10411,63.0,0.2127659999999878,77.0,0.2127659999999878
10412,20.0,0.2127659999999878,68.0,0.21276600000004464
10413,27.0,0.013297875000034765,68.0,0.19946812500000988
10414,56.0,0.013297874999977921,70.0,0.18617025000003196
10415,60.0,0.013297875000034765,76.0,0.1728723749999972
10416,38.0,0.1728723749999972,69.0,0.11029400000001033
10417,39.0,0.11029400000001033,67.0,0.11029400000001033
10418,42.0,0.11029400000001033,69.0,0.09191166666664685
10419,40.0,0.07352933333334022,69.0,0.09191166666664685
10420,39.0,0.07352933333328338,66.0,0.0643381666666869
10421,39.0,0.07352933333334022,78.0,0.23715399999997544
10422,49.0,0.23715399999997544,77.0,0.22388050000000703
10423,48.0,0.22388050000000703,74.0,0.22388050000000703
10424,48.0,0.22388050000000703,62.0,0.22388050000000703
10425,51.0,0.013992531249982676,63.0,0.20988796875002436
10426,56.0,0.013992531249982676,65.0,0.19589543750004168
10427,60.0,0.01399253125003952,69.0,0.18190290625000216
10428,38.0,0.18190290625000216,64.0,0.1119402499999751
10429,39.0,0.1119402499999751,59.0,0.11194025000003194
10430,42.0,0.11194025000003194,64.0,0.09328354166666486
10431,40.0,0.07462683333329778,64.0,0.09328354166666486
10432,39.0,0.07462683333335463,60.0,0.06529847916664266
10433,39.0,0.07462683333329778,72.0,0.22388050000000703
10434,49.0,0.22388050000000703,71.0,0.2272725000000264
10435,48.0,0.2272725000000264,69.0,0.22727249999996957
10436,20.0,0.22727249999996957,62.0,0.2272725000000264
10437,27.0,0.014204531250015862,62.0,0.21306796875001055
10438,36.0,0.014204531250015862,62.0,0.1988634374999947
10439,60.0,0.014204531249959018,63.0,0.18465890625003567
10440,38.0,0.18465890625003567,59.0,0.1119402499999751
10441,39.0,0.1119402499999751,56.0,0.11194025000003194
10442,42.0,0.11194025000003194,59.0,0.09328354166666486
10443,40.0,0.07462683333335463,59.0,0.09328354166666486
10444,39.0,0.07462683333329778,55.0,0.06529847916669951
10445,39.0,0.07462683333335463,67.0,0.22388050000000703
10446,49.0,0.22388050000000703,67.0,0.22388050000000703
10447,48.0,0.22388050000000703,64.0,0.2238804999999502
10448,20.0,0.2238804999999502,56.0,0.2272725000000264
10449,27.0,0.014204531250015862,56.0,0.21306796875001055
10450,56.0,0.014204531249959018,56.0,0.19886343750005153
10451,60.0,0.014204531250015862,58.0,0.18465890625003567
10452,26.0,0.18465890625003567,53.0,0.1399253124999973
10453,27.0,0.1119402499999751,51.0,0.1399253124999973
10454,30.0,0.11194025000003194,53.0,0.09328354166666486
10455,28.0,0.07462683333335463,53.0,0.09328354166666486
10456,27.0,0.07462683333329778,49.0,0.06529847916669951
10457,27.0,0.07462683333335463,59.0,0.2564105000000154
10458,37.0,0.2564105000000154,56.0,0.12295074999997269
10459,36.0,0.24590150000000222,58.0,0.12295074999997269
10460,32.0,0.24590150000000222,62.0,0.2390439999999785
10461,26.0,0.2390439999999785,46.0,0.14940250000000788
10462,27.0,0.11952200000001767,43.0,0.14940250000000788
10463,30.0,0.11952200000001767,46.0,0.09960166666667192
10464,28.0,0.07968133333332617,46.0,0.09960166666667192
10465,27.0,0.07968133333332617,42.0,0.06972116666668171
10466,27.0,0.07968133333332617,51.0,0.2575105000000235
10467,37.0,0.2575105000000235,52.0,0.13452925000001414
10468,36.0,0.2690585000000283,52.0,0.14705874999998514
10469,32.0,0.2941175000000271,56.0,0.26785699999999224
10470,26.0,1.8228050000000167,47.0,0.16233781249997037
10471,27.0,0.12987024999995356,44.0,0.1623378125000272
10472,30.0,0.1298702500000104,47.0,0.10822520833335147
10473,28.0,0.08658016666669255,47.0,0.10822520833329463
10474,27.0,0.0865801666666357,44.0,0.07575764583333466
10475,27.0,0.08658016666669255,55.0,0.1298702500000104
10476,37.0,0.2597405000000208,52.0,0.13761475000001155
10477,36.0,0.2752295000000231,49.0,0.14705874999998514
10478,32.0,0.2941175000000271,55.0,0.2870814999999993
10479,25.0,1.1483259999999973,46.0,0.3296705000000202
10480,24.0,0.3296705000000202,45.0,0.4137929999999983
10481,20.0,0.4137929999999983,46.0,1.0285709999999995
10482,36.0,2.246678333333307,29.0,0.07142850000002454
10483,37.0,0.07142850000002454,31.0,0.0714284999999677
10484,40.0,0.0714284999999677,33.0,0.07142850000002454
10485,44.0,0.07142850000002454,37.0,0.1136362500000132
10486,36.0,0.454544999999996,29.0,0.07142850000002454
10487,37.0,0.07142850000002454,31.0,0.0714284999999677
10488,40.0,0.0714284999999677,32.0,0.07142850000002454
10489,44.0,0.07142850000002454,43.0,1.3533840000000055
10490,37.0,1.3533840000000055,100.0,0.09375
10491,69.0,0.5625,92.0,1.125
10492,66.0,1.125,61.0,0.28125
10493,63.0,0.28125,68.0,0.09375
10494,63.0,0.09375,71.0,0.2040814999999725
10495,68.0,0.2040814999999725,68.0,0.20408150000002934
10496,36.0,0.40816300000000183,27.0,0.0680271666666954
10497,37.0,0.0680271666666954,29.0,0.06802716666663855
10498,28.0,0.06802716666663855,30.0,0.0680271666666954
10499,44.0,0.0680271666666954,35.0,0.10204075000001467
10500,36.0,0.40816300000000183,27.0,0.06802716666663855
10501,37.0,0.06802716666663855,29.0,0.0680271666666954
10502,40.0,0.0680271666666954,30.0,0.06802716666663855
10503,44.0,0.06802716666663855,39.0,1.1320739999999887
10504,35.0,1.1320739999999887,100.0,0.08695649999998523
10505,35.0,0.478260750000004,75.0,1.0869562500000143
10506,44.0,0.021739125000010517,89.0,1.0652171250000038
10507,68.0,0.021739125000010517,90.0,1.0434779999999932
10508,63.0,1.0434779999999932,60.0,0.2608694999999557
10509,68.0,0.2608694999999557,65.0,0.09063450000002149
10510,69.0,0.09063450000002149,70.0,0.19354850000001989
10511,68.0,0.19354850000001989,67.0,0.1739130000000273
10512,56.0,0.521739000000025,81.0,0.34782599999999775
10513,44.0,0.5217389999999682,81.0,0.3785490000000209
10514,20.0,0.5678234999999745,94.0,1.3815794999999866
10515,21.0,1.3815794999999866,97.0,0.14802637500002902
10516,36.0,1.9927410000000236,27.0,0.06896549999999024
10517,37.0,0.06896549999999024,29.0,0.06896549999999024
10518,40.0,0.06896549999999024,30.0,0.06896550000004709
10519,44.0,0.06896550000004709,34.0,0.10344824999998536
10520,36.0,0.4137929999999983,29.0,0.06896549999999024
10521,37.0,0.06896549999999024,30.0,0.06896549999999024
10522,40.0,0.06896549999999024,31.0,0.06896549999999024
10523,44.0,0.06896549999999024,39.0,1.241378999999995
10524,37.0,1.241378999999995,100.0,0.09375
10525,73.0,0.5625,92.0,0.84375
10526,66.0,0.84375,58.0,0.09375
10527,63.0,0.09375,58.0,0.1875
10528,66.0,0.1875,61.0,0.28125
10529,63.0,0.28125,68.0,0.09375
10530,63.0,0.09375,71.0,0.2040814999999725
10531,68.0,0.2040814999999725,68.0,0.20408150000002934
10532,36.0,0.40816300000000183,29.0,0.0680271666666954
10533,37.0,0.0680271666666954,30.0,0.06802716666663855
10534,40.0,0.06802716666663855,32.0,0.0680271666666954
10535,44.0,0.0680271666666954,37.0,0.10204075000001467
10536,36.0,0.40816300000000183,29.0,0.06802716666663855
10537,37.0,0.06802716666663855,30.0,0.0680271666666954
10538,40.0,0.0680271666666954,32.0,0.06802716666663855
10539,44.0,0.06802716666663855,39.0,1.0674300000000017
10540,27.0,1.0674300000000017,100.0,0.08356550000002017
10541,75.0,0.5013930000000073,90.0,1.0027859999999578
10542,67.0,1.0027859999999578,60.0,0.25069650000000365
10543,71.0,0.25069650000000365,65.0,0.09063450000002149
10544,67.0,0.09063450000002149,70.0,0.19354850000001989
10545,68.0,0.19354850000001989,67.0,0.1739130000000273
10546,59.0,0.521739000000025,81.0,0.36253799999997227
10547,44.0,0.5438070000000153,81.0,0.4225349999999821
10548,19.0,0.6338025000000016,94.0,1.1842110000000048
10549,20.0,1.1842110000000048,94.0,0.7539674375000232
10550,17.0,0.7539674375000232,50.0,0.09818518749995064
10551,18.0,0.0873626666666496,51.0,0.0964548229166553
10552,20.0,0.08583906249998563,51.0,0.0947849687499911
10553,18.0,0.08436830208330548,52.0,0.09278809375001629
10554,20.0,0.0825840104166673,53.0,0.09091196875004925
10555,18.0,0.08085156250001546,55.0,0.09107438541673218
10556,20.0,0.07782152083336769,56.0,0.09222751250001693
10557,8.0,0.0030487812500155087,50.0,0.09227790624998988
10558,18.0,0.08194732291667606,56.0,0.09265634374997944
10559,20.0,0.08234702083331058,57.0,0.09299684374997241
10560,18.0,0.08262340624997933,58.0,0.07261406250000846
10561,20.0,0.06224062500001537,59.0,0.07261406250000846
10562,18.0,0.06224062499995853,60.0,0.07261406250000846
10563,20.0,0.06224062500001537,61.0,0.07270087500000955
10564,18.0,0.059128593750017444,62.0,0.06329198333332897
10565,6.0,0.0031120312499979264,55.0,0.07420760416670191
10566,20.0,0.06338508333334403,62.0,0.07700785416665212
10567,18.0,0.06579708333333656,62.0,0.07987254166670255
10568,20.0,0.06819029166672408,63.0,0.08312054166674443
10569,18.0,0.07098462500005098,64.0,0.12403556250001202
10570,17.0,0.0992830833333187,73.0,0.2227723125000125
10571,18.0,0.19801983333331918,73.0,0.2085683541666299
10572,80.0,0.19801983333331918,97.0,0.9574569999999767
10573,35.0,0.5063289999999938,45.0,0.22556400000001986
10574,32.0,0.22556400000001986,53.0,0.22556399999996302
10575,78.0,0.22556399999996302,68.0,0.08849550000002182
10576,76.0,0.08849550000002182,62.0,0.08849549999996498
10577,71.0,0.08849549999996498,65.0,0.1769909999999868
10578,68.0,0.08849550000002182,60.0,0.08849549999996498
10579,66.0,0.08849549999996498,62.0,0.17699100000004364
10580,64.0,0.08849550000002182,57.0,0.08849550000002182
10581,59.0,0.08849550000002182,58.0,0.08849549999996498
10582,56.0,0.08849549999996498,52.0,0.08849550000002182
10583,54.0,0.08849550000002182,55.0,0.08849550000002182
10584,52.0,0.08849550000002182,51.0,0.08849549999996498
10585,47.0,0.08849549999996498,52.0,0.1769909999999868
10586,51.0,0.5309730000000172,55.0,0.08884524999996302
10587,52.0,0.08884524999996302,52.0,0.08919741666670689
10588,54.0,0.08919741666670689,50.0,0.08964158333333216
10589,56.0,0.08964158333333216,47.0,0.09000008333339338
10590,57.0,0.09000008333339338,45.0,0.09045250000002625
10591,59.0,0.08516548750003494,42.0,0.09081300833332762
10592,60.0,0.09613216249999823,40.0,0.21818200000001298
10593,45.0,0.21818200000001298,35.0,0.19736849999998185
10594,45.0,0.19736849999998185,31.0,0.09868425000001935
10595,60.0,0.1973685000000387,50.0,0.09027100000002974
10596,59.0,0.09027100000002974,49.0,0.08991016666669793
10597,58.0,0.08991016666669793,47.0,0.08946341666666058
10598,57.0,0.08946341666666058,46.0,0.0891090833333692
10599,56.0,0.0891090833333692,44.0,0.0886701666666454
10600,55.0,0.0886701666666454,42.0,0.08829612499999939
10601,54.0,0.08829612499999939,41.0,0.21505400000000918
10602,45.0,0.21505400000000918,32.0,0.19736849999998185
10603,35.0,0.19736849999998185,28.0,0.09868425000001935
10604,80.0,0.1973685000000387,97.0,0.872180999999955
10605,35.0,0.4511279999999829,45.0,0.2105265000000145
10606,40.0,0.2105265000000145,53.0,0.21052649999995765
10607,78.0,0.21052649999995765,68.0,0.08670525000002272
10608,76.0,0.08670525000002272,61.0,0.08670524999996587
10609,71.0,0.08670524999996587,65.0,0.1734104999999886
10610,68.0,0.08670525000002272,59.0,0.08670524999996587
10611,66.0,0.08670524999996587,62.0,0.17341050000004543
10612,64.0,0.08670525000002272,57.0,0.08670525000002272
10613,59.0,0.08670525000002272,58.0,0.08670524999996587
10614,56.0,0.08670524999996587,57.0,0.08670525000002272
10615,54.0,0.08670525000002272,55.0,0.08670524999996587
10616,52.0,0.08670524999996587,51.0,0.08670525000002272
10617,47.0,0.08670525000002272,52.0,0.1729105000000004
10618,51.0,0.5187315000000012,42.0,0.5342147416666307
10619,52.0,0.08827862499998673,41.0,0.08856536666667125
10620,54.0,0.08856536666667125,41.0,0.0888715750000415
10621,56.0,0.0888715750000415,40.0,0.08917974999997114
10622,57.0,0.08917974999997114,39.0,0.08949006666665582
10623,59.0,0.0842661854166522,38.0,0.0897979895833032
10624,60.0,0.09505323958330791,37.0,0.08982025000000249
10625,40.0,0.08982025000000249,32.0,0.08982025000000249
10626,42.0,0.08982025000000249,32.0,0.08982025000000249
10627,44.0,0.08982025000000249,32.0,0.08982025000000249
10628,45.0,0.08982025000000249,32.0,0.08982025000000249
10629,47.0,0.08982025000000249,32.0,0.08982025000000249
10630,60.0,0.08982025000000249,42.0,0.08823525000002519
10631,59.0,0.08823525000002519,41.0,0.08823524999996835
10632,44.0,0.10171858333330874,39.0,0.1009767083333486
10633,40.0,0.1009767083333486,37.0,0.10027912500004277
10634,35.0,0.10027912500004277,35.0,0.0995469000000071
10635,64.0,0.0995469000000071,75.0,0.5940600000000131
10636,35.0,0.09901000000002114,38.0,0.0990099999999643
10637,40.0,0.0990099999999643,41.0,0.09901000000002114
10638,47.0,0.09901000000002114,42.0,0.09901000000002114
10639,40.0,0.09901000000002114,40.0,0.0990099999999643
10640,35.0,0.0990099999999643,37.0,0.09901000000002114
10641,64.0,0.09901000000002114,82.0,0.39603999999997086
10642,35.0,0.0990099999999643,38.0,0.09901000000002114
10643,39.0,0.09901000000002114,41.0,0.09901000000002114
10644,45.0,0.09901000000002114,41.0,0.0990099999999643
10645,63.0,0.0990099999999643,78.0,0.18976916666667876
10646,35.0,0.09901000000002114,36.0,0.09901000000002114
10647,63.0,0.09901000000002114,75.0,0.20833349999998063
10648,35.0,0.10416674999999032,34.0,0.10416674999999032
10649,61.0,0.10416674999999032,71.0,0.3608169999999973
10650,45.0,0.11764699999997674,39.0,0.11764700000003359
10651,39.0,0.11764700000003359,36.0,0.12552299999998695
10652,59.0,0.12552299999998695,63.0,0.12552299999998695
10653,68.0,0.12552299999998695,80.0,0.7531380000000354
10654,35.0,0.1255230000000438,31.0,0.12552299999998695
10655,38.0,0.12552299999998695,35.0,0.12552299999998695
10656,44.0,0.12552299999998695,37.0,0.12552299999998695
10657,38.0,0.12552299999998695,36.0,0.1255230000000438
10658,35.0,0.1255230000000438,34.0,0.12552299999998695
10659,68.0,0.12552299999998695,77.0,0.5825239999999781
10660,35.0,0.1456309999999803,30.0,0.14563100000003715
10661,37.0,0.14563100000003715,35.0,0.1456309999999803
10662,44.0,0.1456309999999803,37.0,0.1456309999999803
10663,68.0,0.1456309999999803,81.0,0.34226204166668595
10664,35.0,0.17857149999997546,34.0,0.1785715000000323
10665,68.0,0.1785715000000323,85.0,0.780697875000044
10666,33.0,0.13401006666663307,35.0,0.13245262500004173
10667,37.0,0.13245262500004173,38.0,0.13083512499997596
10668,42.0,0.13083512499997596,39.0,0.12931191666672248
10669,37.0,0.12931191666672248,38.0,0.1277702666666869
10670,33.0,0.1277702666666869,36.0,0.12631787499998381
10671,66.0,0.12631787499998381,72.0,0.2631579999999758
10672,33.0,0.1315789999999879,31.0,0.1315789999999879
10673,64.0,0.1315789999999879,71.0,0.26315800000003264
10674,42.0,0.13157900000004474,38.0,0.1315789999999879
10675,61.0,0.1315789999999879,70.0,0.2631579999999758
10676,33.0,0.1315789999999879,34.0,0.1315789999999879
10677,63.0,0.1315789999999879,75.0,0.7894740000000411
10678,32.0,0.1315789999999879,36.0,0.13157900000004474
10679,35.0,0.13157900000004474,37.0,0.1315789999999879
10680,40.0,0.1315789999999879,39.0,0.1315789999999879
10681,35.0,0.1315789999999879,37.0,0.1315789999999879
10682,32.0,0.1315789999999879,35.0,0.13157900000004474
10683,61.0,0.13157900000004474,71.0,0.2631579999999758
10684,32.0,0.1315789999999879,34.0,0.1315789999999879
10685,59.0,0.1315789999999879,68.0,0.2631579999999758
10686,40.0,0.1315789999999879,38.0,0.1315789999999879
10687,56.0,0.1315789999999879,63.0,0.26315800000003264
10688,32.0,0.13157900000004474,36.0,0.1315789999999879
10689,61.0,0.1315789999999879,69.0,0.2631579999999758
10690,33.0,0.1315789999999879,34.0,0.1315789999999879
10691,59.0,0.1315789999999879,64.0,0.26315800000003264
10692,39.0,0.1315789999999879,36.0,0.13157900000004474
10693,57.0,0.13157900000004474,61.0,0.25219308333333856
10694,33.0,0.1315789999999879,34.0,0.1315789999999879
10695,57.0,0.1315789999999879,55.0,0.13698625000000675
10696,59.0,0.06849312499997495,55.0,0.0684931250000318
10697,57.0,0.0684931250000318,63.0,0.13698625000000675
10698,56.0,0.13698625000000675,58.0,0.4719620000000191
10699,39.0,0.15075374999997848,37.0,0.15075375000003532
10700,35.0,0.15075375000003532,35.0,0.17045450000000528
10701,55.0,0.17045450000000528,59.0,0.17045450000000528
10702,55.0,0.17045450000000528,59.0,0.8679488083333808
10703,35.0,0.15000249999997095,33.0,0.14778558333330238
10704,40.0,0.14778558333330238,36.0,0.1456333333333646
10705,44.0,0.1456333333333646,37.0,0.1435429166667177
10706,40.0,0.1435429166667177,36.0,0.1415114999999787
10707,37.0,0.1415114999999787,35.0,0.13947297500004652
10708,56.0,0.13947297500004652,63.0,0.5529950000000099
10709,40.0,0.13824875000000247,36.0,0.13824875000000247
10710,44.0,0.13824875000000247,39.0,0.13824875000000247
10711,47.0,0.13824875000000247,40.0,0.13824875000000247
10712,59.0,0.13824875000000247,57.0,0.25862050000000636
10713,40.0,0.12931025000000318,38.0,0.12931025000000318
10714,47.0,0.12931025000000318,57.0,0.7594935000000191
10715,59.0,0.06329112499997791,57.0,0.6962023750000412
10716,35.0,0.06329112500003475,42.0,0.12658225000001266
10717,39.0,0.12658225000001266,42.0,0.12658224999995582
10718,42.0,0.12658224999995582,42.0,0.12658225000001266
10719,51.0,0.12658225000001266,63.0,0.5531645000000367
10720,35.0,0.12658225000001266,42.0,0.12658225000001266
10721,63.0,0.12658225000001266,63.0,0.7709748000000332
10722,35.0,0.14999999999997726,45.0,0.1500000000000341
10723,49.0,0.1500000000000341,63.0,0.35433074999997416
10724,42.0,0.11811024999997244,45.0,0.11811025000002928
10725,39.0,0.11811025000002928,41.0,0.11811024999997244
10726,59.0,0.11811024999997244,63.0,0.11664405000004763
10727,47.0,0.11664405000004763,63.0,1.202228841666738
10728,35.0,0.10319965000002185,36.0,0.10244787499999575
10729,40.0,0.10244787499999575,39.0,0.10171858333330874
10730,44.0,0.10171858333330874,42.0,0.1009767083333486
10731,40.0,0.1009767083333486,40.0,0.10027912500004277
10732,35.0,0.10027912500004277,38.0,0.0995469000000071
10733,64.0,0.0995469000000071,75.0,0.5940600000000131
10734,35.0,0.09901000000002114,41.0,0.0990099999999643
10735,40.0,0.0990099999999643,45.0,0.09901000000002114
10736,47.0,0.09901000000002114,46.0,0.09901000000002114
10737,40.0,0.09901000000002114,44.0,0.0990099999999643
10738,35.0,0.0990099999999643,40.0,0.09901000000002114
10739,52.0,0.09901000000002114,75.0,0.39603999999997086
10740,35.0,0.0990099999999643,41.0,0.09901000000002114
10741,39.0,0.09901000000002114,45.0,0.09901000000002114
10742,63.0,0.09901000000002114,71.0,0.0990099999999643
10743,51.0,0.0990099999999643,78.0,0.19802000000004227
10744,35.0,0.09901000000002114,39.0,0.09901000000002114
10745,63.0,0.09901000000002114,75.0,0.3259804999999574
10746,35.0,0.10416674999999032,37.0,0.10416674999999032
10747,39.0,0.10416674999999032,40.0,0.11764699999997674
10748,49.0,0.11764699999997674,71.0,0.11764700000003359
10749,59.0,0.11764700000003359,63.0,0.2409640000000195
10750,35.0,0.12048199999998133,34.0,0.12048200000003817
10751,68.0,0.12048200000003817,80.0,0.7228920000000016
10752,35.0,0.12048199999998133,37.0,0.12048199999998133
10753,38.0,0.12048199999998133,41.0,0.12048200000003817
10754,44.0,0.12048200000003817,44.0,0.12048199999998133
10755,38.0,0.12048199999998133,42.0,0.12048199999998133
10756,35.0,0.12048199999998133,40.0,0.12048200000003817
10757,68.0,0.12048200000003817,77.0,0.5263160000000084
10758,35.0,0.1315789999999879,36.0,0.1315789999999879
10759,37.0,0.1315789999999879,41.0,0.13157900000004474
10760,44.0,0.13157900000004474,44.0,0.1315789999999879
10761,68.0,0.1315789999999879,78.0,0.30000000000001137
10762,35.0,0.14999999999997726,40.0,0.1500000000000341
10763,68.0,0.1500000000000341,82.0,0.780697875000044
10764,33.0,0.13401006666663307,38.0,0.13245262500004173
10765,37.0,0.13245262500004173,41.0,0.13083512499997596
10766,42.0,0.13083512499997596,42.0,0.12931191666672248
10767,37.0,0.12931191666672248,41.0,0.1277702666666869
10768,33.0,0.1277702666666869,39.0,0.12631787499998381
10769,66.0,0.12631787499998381,67.0,0.2631579999999758
10770,33.0,0.1315789999999879,34.0,0.1315789999999879
10771,64.0,0.1315789999999879,65.0,0.40680850000006785
10772,42.0,0.13157900000004474,41.0,0.13761475000001155
10773,37.0,0.13761475000001155,39.0,0.13761475000001155
10774,61.0,0.13761475000001155,64.0,0.14705874999998514
10775,63.0,0.14705874999998514,62.0,0.7894739999999842
10776,32.0,0.1315789999999879,39.0,0.1315789999999879
10777,35.0,0.1315789999999879,40.0,0.13157900000004474
10778,40.0,0.13157900000004474,42.0,0.1315789999999879
10779,35.0,0.1315789999999879,40.0,0.1315789999999879
10780,32.0,0.1315789999999879,38.0,0.1315789999999879
10781,61.0,0.1315789999999879,64.0,0.2166065000000117
10782,32.0,0.10830325000000585,35.0,0.10830325000000585
10783,56.0,0.10830325000000585,68.0,0.2166065000000117
10784,40.0,0.10830325000000585,39.0,0.10830325000000585
10785,61.0,0.10830325000000585,72.0,0.23529400000001033
10786,32.0,0.11764699999997674,35.0,0.11764700000003359
10787,56.0,0.11764700000003359,77.0,0.4705879999999638
10788,32.0,0.11764699999997674,37.0,0.11764700000003359
10789,35.0,0.11764700000003359,39.0,0.11764699999997674
10790,41.0,0.11764699999997674,41.0,0.11764699999997674
10791,61.0,0.11764699999997674,75.0,0.23529400000001033
10792,32.0,0.11764700000003359,36.0,0.11764699999997674
10793,62.0,0.11764699999997674,78.0,1.1764699999999948
10794,32.0,0.11764700000003359,39.0,0.11764699999997674
10795,35.0,0.11764699999997674,43.0,0.11764700000003359
10796,41.0,0.11764700000003359,48.0,0.11764699999997674
10797,35.0,0.11764699999997674,45.0,0.11764699999997674
10798,32.0,0.11764699999997674,41.0,0.11764700000003359
10799,23.0,0.11764700000003359,40.0,0.11764699999997674
10800,32.0,0.11764699999997674,40.0,0.11764700000003359
10801,35.0,0.11764700000003359,43.0,0.11764699999997674
10802,41.0,0.11764699999997674,45.0,0.11764699999997674
10803,61.0,0.11764699999997674,76.0,0.20905900000002475
10804,32.0,0.10452950000001238,36.0,0.10452950000001238
10805,62.0,0.10452950000001238,81.0,0.20618550000000369
10806,32.0,0.10309274999997342,40.0,0.10309275000003026
10807,61.0,0.10309275000003026,78.0,0.20618550000000369
10808,41.0,0.10309274999997342,47.0,0.10309275000003026
10809,62.0,0.10309275000003026,78.0,0.20618550000000369
10810,32.0,0.10309274999997342,40.0,0.10309275000003026
10811,62.0,0.10309275000003026,81.0,0.41237100000000737
10812,30.0,0.10309274999997342,43.0,0.10309275000003026
10813,33.0,0.10309275000003026,47.0,0.10309274999997342
10814,42.0,0.10309274999997342,50.0,0.10309275000003026
10815,57.0,0.10309275000003026,82.0,0.25531899999998586
10816,30.0,0.12765949999999293,43.0,0.12765949999999293
10817,64.0,0.12765949999999293,88.0,1.1673149999999737
10818,31.0,0.11673150000001442,47.0,0.11673149999995758
10819,34.0,0.11673149999995758,49.0,0.11673150000001442
10820,43.0,0.11673150000001442,51.0,0.11673150000001442
10821,34.0,0.11673150000001442,49.0,0.11673150000001442
10822,31.0,0.11673150000001442,47.0,0.11673149999995758
10823,23.0,0.11673149999995758,57.0,0.11673150000001442
10824,31.0,0.11673150000001442,48.0,0.11673150000001442
10825,34.0,0.11673150000001442,51.0,0.11673150000001442
10826,43.0,0.11673150000001442,53.0,0.11673149999995758
10827,63.0,0.11673149999995758,82.0,0.20905900000002475
10828,31.0,0.10452950000001238,49.0,0.10452950000001238
10829,64.0,0.10452950000001238,86.0,0.20618550000000369
10830,31.0,0.10309274999997342,51.0,0.10309275000003026
10831,63.0,0.10309275000003026,81.0,0.20618550000000369
10832,43.0,0.10309274999997342,56.0,0.10309275000003026
10833,64.0,0.10309275000003026,85.0,0.20618550000000369
10834,31.0,0.10309274999997342,51.0,0.10309275000003026
10835,64.0,0.10309275000003026,88.0,0.41237100000000737
10836,32.0,0.10309274999997342,54.0,0.10309275000003026
10837,35.0,0.10309275000003026,56.0,0.10309274999997342
10838,44.0,0.10309274999997342,59.0,0.10309275000003026
10839,63.0,0.10309275000003026,91.0,0.233462999999972
10840,32.0,0.11673150000001442,52.0,0.11673149999995758
10841,66.0,0.11673149999995758,90.0,0.41237100000000737
10842,30.0,0.10309274999997342,55.0,0.10309275000003026
10843,33.0,0.10309275000003026,57.0,0.10309274999997342
10844,39.0,0.10309274999997342,60.0,0.10309275000003026
10845,66.0,0.10309275000003026,88.0,0.20618550000000369
10846,30.0,0.10309274999997342,55.0,0.10309275000003026
10847,59.0,0.10309275000003026,92.0,0.41237100000000737
10848,26.0,0.10309274999997342,57.0,0.10309275000003026
10849,32.0,0.10309275000003026,59.0,0.10309274999997342
10850,38.0,0.10309274999997342,60.0,0.10309275000003026
10851,59.0,0.10309275000003026,88.0,0.22988500000002432
10852,26.0,0.11494249999998374,57.0,0.11494250000004058
10853,62.0,0.11494250000004058,99.0,0.41237100000000737
10854,32.0,0.10309274999997342,56.0,0.10309275000003026
10855,35.0,0.10309275000003026,60.0,0.10309274999997342
10856,41.0,0.10309274999997342,62.0,0.10309275000003026
10857,68.0,0.10309275000003026,95.0,0.20618550000000369
10858,32.0,0.10309274999997342,57.0,0.10309275000003026
10859,61.0,0.10309275000003026,96.0,0.41237100000000737
10860,28.0,0.10309274999997342,59.0,0.10309275000003026
10861,34.0,0.10309275000003026,62.0,0.10309274999997342
10862,40.0,0.10309274999997342,65.0,0.10309275000003026
10863,67.0,0.10309275000003026,96.0,0.24193550000001096
10864,28.0,0.12096774999997706,59.0,0.1209677500000339
10865,64.0,0.1209677500000339,101.0,0.4152250000000208
10866,31.0,0.103806249999991,59.0,0.103806249999991
10867,37.0,0.103806249999991,64.0,0.103806249999991
10868,43.0,0.103806249999991,66.0,0.10380625000004784
10869,64.0,0.10380625000004784,98.0,0.21818200000001298
10870,31.0,0.10909099999997807,59.0,0.10909100000003491
10871,63.0,0.10909100000003491,98.0,0.4363639999999691
10872,30.0,0.10909099999997807,58.0,0.10909100000003491
10873,33.0,0.10909100000003491,63.0,0.10909099999997807
10874,42.0,0.10909099999997807,68.0,0.10909099999997807
10875,71.0,0.10909099999997807,94.0,0.281690000000026
10876,30.0,0.140845000000013,62.0,0.140845000000013
10877,72.0,0.140845000000013,110.0,0.521739000000025
10878,30.0,0.13043475000000626,60.0,0.13043475000000626
10879,33.0,0.13043475000000626,64.0,0.13043475000000626
10880,39.0,0.13043475000000626,69.0,0.13043475000000626
10881,63.0,0.13043475000000626,94.0,0.2510459999999739
10882,30.0,0.12552299999998695,63.0,0.12552299999998695
10883,56.0,0.12552299999998695,109.0,0.1612905000000069
10884,23.0,0.43327255833332856,68.0,0.09493675000004487
10885,30.0,0.09177219166667783,68.0,0.09493674999998802
10886,44.0,0.09493674999998802,97.0,0.18927450000001045
10887,52.0,0.09463725000000522,75.0,0.09463725000000522
10888,59.0,0.09463725000000522,79.0,0.09463725000000522
10889,56.0,0.09463725000000522,83.0,0.09463725000000522
10890,64.0,0.09463725000000522,87.0,0.09463725000000522
10891,73.0,0.09463725000000522,91.0,0.09463724999994838
10892,71.0,0.09463724999994838,96.0,0.18927450000001045
10893,23.0,0.3785490000000209,68.0,0.09463725000000522
10894,30.0,0.09463725000000522,74.0,0.09463725000000522
10895,45.0,0.09463725000000522,97.0,0.1846155000000067
10896,51.0,0.09230774999997493,75.0,0.09230775000003177
10897,59.0,0.09230775000003177,80.0,0.09230774999997493
10898,57.0,0.09230774999997493,84.0,0.09230775000003177
10899,63.0,0.09230775000003177,88.0,0.09230774999997493
10900,71.0,0.09230774999997493,93.0,0.09230775000003177
10901,68.0,0.09230775000003177,97.0,0.1846155000000067
10902,23.0,0.36923099999995657,70.0,0.09230775000003177
10903,32.0,0.09230775000003177,75.0,0.09230774999997493
10904,44.0,0.09230774999997493,97.0,0.18927450000001045
10905,52.0,0.09463725000000522,75.0,0.09463725000000522
10906,59.0,0.09463725000000522,79.0,0.09463725000000522
10907,56.0,0.09463725000000522,83.0,0.09463725000000522
10908,64.0,0.09463725000000522,87.0,0.09463725000000522
10909,73.0,0.09463725000000522,91.0,0.09463724999994838
10910,63.0,0.09463724999994838,96.0,0.18927450000001045
10911,23.0,0.3785490000000209,68.0,0.09463725000000522
10912,30.0,0.09463725000000522,74.0,0.09463725000000522
10913,45.0,0.09463725000000522,97.0,0.1829270000000065
10914,51.0,0.09146349999997483,75.0,0.09146350000003167
10915,59.0,0.09146350000003167,80.0,0.09146349999997483
10916,57.0,0.09146349999997483,84.0,0.09146350000003167
10917,63.0,0.09146350000003167,88.0,0.09146349999997483
10918,71.0,0.09146349999997483,93.0,0.045731750000015836
10919,66.0,0.27149300000002086,58.0,0.135746499999982
10920,61.0,0.135746499999982,62.0,0.4060220000000072
10921,67.0,0.27149300000002086,63.0,0.13452899999998635
10922,57.0,0.13452899999998635,67.0,0.4035870000000159
10923,67.0,0.26905800000002955,70.0,0.13452899999998635
10924,74.0,0.13452899999998635,74.0,0.4035870000000159
10925,56.0,0.2690579999999727,74.0,0.1345290000000432
10926,62.0,0.1345290000000432,78.0,0.4095729999999662
10927,56.0,0.2690579999999727,79.0,0.1405149999999935
10928,71.0,0.1405149999999935,84.0,0.4401809999999955
10929,57.0,0.281029999999987,86.0,0.15915100000000848
10930,80.0,0.15915100000000848,101.0,0.15384599999998727
10931,78.0,0.15384599999998727,100.0,0.15384599999998727
10932,76.0,0.07692300000002206,96.0,0.07692299999996521
10933,71.0,0.07692299999996521,98.0,0.15384600000004411
10934,68.0,0.07692300000002206,93.0,0.07692300000002206
10935,66.0,0.07692300000002206,95.0,0.1522205416666793
10936,64.0,0.07598141666665015,89.0,0.07623912500002916
10937,59.0,0.07623912500002916,92.0,0.15325749999999516
10938,56.0,0.07646566666664967,86.0,0.0767918333333455
10939,54.0,0.0767918333333455,89.0,0.1543415833332915
10940,52.0,0.07702187499995716,83.0,0.07731970833333435
10941,47.0,0.07731970833333435,86.0,0.07731949999998733
10942,44.0,0.07731949999998733,81.0,0.07731949999998733
10943,42.0,0.07731949999998733,83.0,0.1546390000000315
10944,40.0,0.07731950000004417,79.0,0.07731949999998733
10945,35.0,0.07731949999998733,80.0,0.15665799999999308
10946,48.0,0.15665799999999308,88.0,0.4522620000000188
10947,47.0,0.30150800000001254,83.0,0.15075400000000627
10948,80.0,0.15075400000000627,100.0,0.15384599999998727
10949,78.0,0.15384599999998727,99.0,0.15384599999998727
10950,76.0,0.07692300000002206,92.0,0.07692299999996521
10951,71.0,0.07692299999996521,96.0,0.15384600000004411
10952,68.0,0.07692300000002206,91.0,0.07692300000002206
10953,66.0,0.07692300000002206,93.0,0.1522205416666793
10954,64.0,0.07598141666665015,88.0,0.07623912500002916
10955,59.0,0.07623912500002916,90.0,0.15325749999999516
10956,56.0,0.07646566666664967,86.0,0.0767918333333455
10957,54.0,0.0767918333333455,87.0,0.1543415833332915
10958,52.0,0.07702187499995716,81.0,0.07731970833333435
10959,47.0,0.07731970833333435,84.0,0.07731949999998733
10960,44.0,0.07731949999998733,79.0,0.07731949999998733
10961,42.0,0.07731949999998733,82.0,0.1546390000000315
10962,40.0,0.07731950000004417,76.0,0.07731949999998733
10963,35.0,0.07731949999998733,79.0,0.15665799999999308
10964,48.0,0.15665799999999308,82.0,0.44117699999998194
10965,47.0,0.29411800000002586,77.0,0.14705899999995609
10966,35.0,0.14705899999995609,70.0,0.14705900000001293
10967,22.0,0.14705900000001293,68.0,0.14319799999998395
10968,23.0,0.14319799999998395,68.0,0.1431980000000408
10969,48.0,0.1431980000000408,82.0,0.28846199999998134
10970,33.0,0.14423099999999067,70.0,0.14423099999999067
10971,47.0,0.14423099999999067,77.0,0.14423099999999067
10972,47.0,0.14423099999999067,71.0,0.14423100000004752
10973,22.0,0.14423100000004752,69.0,0.1395350000000235
10974,23.0,0.1395350000000235,69.0,0.13953499999996666
10975,48.0,0.13953499999996666,83.0,0.281690000000026
10976,21.0,0.140845000000013,70.0,0.140845000000013
10977,47.0,0.140845000000013,77.0,0.14084499999995614
10978,47.0,0.14084499999995614,74.0,0.13761449999998376
10979,22.0,0.13761449999998376,69.0,0.1376145000000406
10980,23.0,0.1376145000000406,69.0,0.13761449999998376
10981,36.0,0.13761449999998376,86.0,0.27842199999997774
10982,33.0,0.13921099999998887,70.0,0.13921099999998887
10983,47.0,0.13921099999998887,81.0,0.14319799999998395
10984,36.0,0.14319799999998395,71.0,0.10739849999998796
10985,47.0,0.1431980000000408,73.0,0.10739849999998796
10986,36.0,0.14319799999998395,74.0,0.10538624999998092
10987,47.0,0.1405149999999935,76.0,0.10538624999998092
10988,48.0,0.1405149999999935,77.0,0.10344824999998536
10989,35.0,0.13793099999998049,79.0,0.10344825000004221
10990,48.0,0.13793100000003733,89.0,0.1063829999999939
10991,27.0,0.4255319999999756,101.0,0.1418440000000487
10992,32.0,0.42553200000003244,101.0,0.14184399999999187
10993,30.0,0.4255319999999756,101.0,0.14184399999999187
10994,35.0,0.4255319999999756,101.0,0.4255320000000893
10995,44.0,0.8510640000000649,101.0,0.4400984999999764
10996,28.0,0.7701723750000156,69.0,0.24500812500002667
10997,35.0,0.01833743750000849,82.0,0.22667068750001818
10998,47.0,0.01833743750000849,87.0,0.20833325000000968
10999,80.0,0.20833325000000968,123.0,1.719526500000029
11000,31.0,0.0,55.0,0.30660699999999996
11001,24.0,0.30660699999999996,55.0,0.07579941666666667
11002,55.0,0.15224816666666663,55.0,0.07644874999999995
11003,27.0,0.1528974999999999,55.0,0.07644874999999995
11004,60.0,0.15289750000000013,55.0,0.07644874999999995
11005,26.0,0.1528974999999999,55.0,0.07488399999999995
11006,60.0,0.14976800000000012,55.0,0.07488399999999995
11007,31.0,0.1497679999999999,55.0,0.07488399999999995
11008,59.0,0.1497679999999999,55.0,0.07488399999999995
11009,27.0,0.14976800000000035,55.0,0.07375350000000003
11010,55.0,0.14750700000000005,55.0,0.07375350000000003
11011,24.0,0.14750700000000005,55.0,0.07375350000000003
11012,63.0,0.14750700000000005,55.0,0.07375349999999958
11013,29.0,0.1488097499999994,56.0,0.07258299999999984
11014,63.0,0.14530916666666682,56.0,0.07294908333333305
11015,29.0,0.14611883333333298,58.0,0.07339041666666679
11016,62.0,0.14700408333333348,58.0,0.07383841666666635
11017,27.0,0.14790291666666677,60.0,0.07391350000000019
11018,60.0,0.14775191666666654,61.0,0.07368825000000001
11019,27.0,0.14722733333333382,61.0,0.07339041666666635
11020,67.0,0.1466326666666662,62.0,0.07324224999999984
11021,26.0,0.15221449999999948,63.0,0.07471275000000066
11022,65.0,0.1473673333333343,64.0,0.07287341666666691
11023,19.0,0.14597066666666692,66.0,0.07324224999999984
11024,67.0,0.14670674999999989,66.0,0.07368825000000001
11025,24.0,0.15292324999999973,68.0,0.07413999999999987
11026,63.0,0.14827999999999975,66.0,0.07413999999999987
11027,26.0,0.14828000000000063,66.0,0.07413999999999987
11028,59.0,0.14827999999999975,63.0,0.07413999999999987
11029,27.0,0.14827999999999975,61.0,0.07413999999999987
11030,60.0,0.14827999999999975,58.0,0.07414000000000076
11031,24.0,0.14828000000000063,58.0,0.07413999999999987
11032,63.0,0.14827999999999975,55.0,0.07413999999999987
11033,19.0,0.1520904999999999,55.0,0.07525916666666621
11034,62.0,0.14917266666666595,55.0,0.07391350000000063
11035,24.0,0.14782700000000037,55.0,0.07376333333333296
11036,60.0,0.14745158333333297,55.0,0.07368825000000001
11037,26.0,0.14737650000000002,55.0,0.07353908333333337
11038,55.0,0.1470035833333334,55.0,0.07346450000000004
11039,24.0,0.1469290000000001,55.0,0.07331633333333354
11040,60.0,0.14655858333333338,55.0,0.07324224999999984
11041,19.0,0.14648450000000057,55.0,0.07309725
11042,62.0,0.14612200000000009,55.0,0.07273025000000022
11043,24.0,0.14531325000000006,55.0,0.07258299999999984
11044,60.0,0.14516599999999968,55.0,0.07258299999999984
11045,26.0,0.14516600000000057,56.0,0.07258299999999984
11046,55.0,0.14516599999999968,57.0,0.07258299999999984
11047,24.0,0.14516600000000057,60.0,0.07258299999999984
11048,60.0,0.14516599999999968,61.0,0.07258299999999984
11049,22.0,0.14930550000000054,64.0,0.07436425000000035
11050,62.0,0.1487285000000007,66.0,0.07436424999999858
11051,24.0,0.14872849999999893,68.0,0.07436425000000035
11052,63.0,0.1487285000000007,72.0,0.07436425000000035
11053,26.0,0.14872849999999893,63.0,0.07346450000000004
11054,58.0,0.1469290000000001,63.0,0.07346450000000004
11055,26.0,0.1469290000000001,62.0,0.07346450000000004
11056,57.0,0.1469290000000001,62.0,0.07346450000000004
11057,31.0,0.1469290000000001,61.0,0.07301750000000062
11058,55.0,0.14621675000000067,62.0,0.07338550000000055
11059,30.0,0.14695100000000139,60.0,0.07375350000000047
11060,57.0,0.14768525000000032,61.0,0.07412899999999922
11061,29.0,0.14844524999999997,61.0,0.07450075000000034
11062,58.0,0.14919824999999953,58.0,0.07488400000000084
11063,19.0,0.14996275000000026,58.0,0.07526724999999956
11064,59.0,0.15073124999999976,55.0,0.07572324999999935
11065,24.0,0.15145265833333355,55.0,0.07579941666666556
11066,60.0,0.1522481666666664,56.0,0.07644874999999907
11067,27.0,0.1528974999999999,55.0,0.07644874999999907
11068,60.0,0.1528974999999999,71.0,0.6078670000000006
11069,26.0,0.1528974999999999,55.0,0.07772424999999927
11070,53.0,0.15544850000000032,57.0,0.07488024999999965
11071,31.0,0.1497604999999993,55.0,0.07488025000000142
11072,59.0,0.14976050000000107,53.0,0.07488024999999965
11073,27.0,0.1497604999999993,55.0,0.07375350000000047
11074,55.0,0.14750699999999917,56.0,0.07375350000000047
11075,24.0,0.14750700000000094,55.0,0.07375350000000047
11076,63.0,0.14750699999999917,71.0,0.5923873333333329
11077,29.0,0.14880974999999985,56.0,0.07488024999999965
11078,56.0,0.1497604999999993,56.0,0.07364324999999994
11079,29.0,0.14681299999999986,58.0,0.07339041666666724
11080,62.0,0.14700408333333392,56.0,0.295654833333332
11081,27.0,0.14790291666666633,60.0,0.07391349999999974
11082,60.0,0.14775191666666565,58.0,0.14722733333333515
11083,27.0,0.14722733333333515,61.0,0.07339041666666546
11084,67.0,0.1466326666666653,75.0,0.29194183333333257
11085,26.0,0.14648449999999968,63.0,0.07280274999999925
11086,65.0,0.14545733333333288,77.0,0.2926774166666668
11087,19.0,0.14597066666666692,66.0,0.07324224999999984
11088,67.0,0.14670674999999989,82.0,0.29565649999999977
11089,24.0,0.14737650000000002,68.0,0.07413999999999987
11090,63.0,0.14827999999999975,77.0,0.14827999999999975
11091,26.0,0.14827999999999975,66.0,0.07413999999999987
11092,62.0,0.14827999999999975,66.0,0.29656000000000127
11093,27.0,0.14828000000000152,61.0,0.07413999999999987
11094,60.0,0.14827999999999975,61.0,0.4486504999999994
11095,24.0,0.14827999999999975,58.0,0.07413999999999987
11096,55.0,0.14827999999999975,52.0,0.07413999999999987
11097,19.0,0.1520904999999999,55.0,0.07393533333333302
11098,62.0,0.14784883333333276,71.0,0.2952785833333351
11099,24.0,0.14782700000000126,55.0,0.07376333333333385
11100,60.0,0.14745158333333386,66.0,0.29438008333333165
11101,26.0,0.14737649999999825,55.0,0.07353908333333337
11102,55.0,0.1470035833333334,64.0,0.29348758333333436
11103,24.0,0.1469290000000001,55.0,0.07331633333333443
11104,60.0,0.14655858333333427,60.0,0.14648449999999968
11105,19.0,0.14648449999999968,55.0,0.07309725
11106,62.0,0.1461219999999983,67.0,0.29047925000000063
11107,24.0,0.14531325000000095,55.0,0.07258300000000162
11108,60.0,0.14516599999999968,69.0,0.2903320000000029
11109,26.0,0.14516599999999968,56.0,0.07258300000000162
11110,55.0,0.14516600000000324,75.0,0.29033199999999937
11111,24.0,0.14516599999999968,60.0,0.07258299999999807
11112,60.0,0.14516599999999968,67.0,0.14930549999999698
11113,22.0,0.14930549999999698,64.0,0.07479425000000006
11114,62.0,0.14958850000000012,75.0,0.29917700000000025
11115,24.0,0.14958850000000012,68.0,0.07479425000000006
11116,63.0,0.14958850000000012,77.0,0.29843500000000134
11117,26.0,0.14958850000000012,63.0,0.07442324999999883
11118,58.0,0.14884650000000121,73.0,0.2976929999999989
11119,26.0,0.14884649999999766,62.0,0.07442325000000238
11120,57.0,0.14884650000000121,68.0,0.29602709374999847
11121,31.0,0.14880851041666787,61.0,0.07351902083333073
11122,55.0,0.1472185833333306,64.0,1.0627866145833273
11123,24.0,0.14801757916666958,60.0,0.07428352708333108
11124,51.0,0.148788485416663,53.0,0.1496046416666701
11125,31.0,0.1496046416666701,61.0,0.0751018833333319
11126,50.0,0.15039224791666328,51.0,0.15123399374999735
11127,24.0,0.15123399374999735,58.0,0.07565358333333094
11128,51.0,0.153219,48.0,0.16153066666666405
11129,22.0,0.16153066666666405,55.0,0.08062350000000151
11130,62.0,0.16124699999999947,61.0,0.31993500000000097
11131,24.0,0.16124699999999947,57.0,0.07934399999999897
11132,63.0,0.1586880000000015,64.0,0.31489749999999717
11133,26.0,0.15868799999999794,53.0,0.07810475000000139
11134,58.0,0.15620949999999922,60.0,0.3187669999999976
11135,26.0,0.15620949999999922,52.0,0.08127874999999918
11136,57.0,0.16255749999999836,56.0,0.160593777083335
11137,31.0,0.160593777083335,59.0,0.07422212708333475
11138,55.0,0.1488010854166646,63.0,0.6034871270833335
11139,30.0,0.1497164416666692,63.0,0.07513948333333431
11140,50.0,0.1504675979166663,60.0,0.15123399374999735
11141,29.0,0.15123399374999735,72.0,0.07593827083333338
11142,56.0,0.15206909375000066,80.0,0.46092743124999913
11143,28.0,0.15284376041666548,77.0,0.07671493750000025
11144,50.0,0.15362642708333496,64.0,0.1544572437499987
11145,27.0,0.1544572437499987,77.0,0.0739353333333348
11146,60.0,0.14784883333333454,89.0,0.29527858333333157
11147,27.0,0.1478269999999995,77.0,0.07376333333333207
11148,59.0,0.14745158333333208,84.0,0.29438008333333343
11149,27.0,0.14737650000000002,77.0,0.07353908333333337
11150,58.0,0.1470035833333334,82.0,0.07346450000000004
11151,27.0,0.1469290000000001,77.0,0.07223700000000122
11152,51.0,0.14447399999999888,77.0,0.07223700000000122
11153,27.0,0.14447400000000243,77.0,0.07223699999999766
11154,58.0,0.14447399999999888,82.0,0.07223700000000122
11155,27.0,0.14447399999999888,77.0,0.07223700000000122
11156,51.0,0.14447400000000243,77.0,0.07223699999999766
11157,27.0,0.14447399999999888,77.0,0.07295483333333408
11158,58.0,0.1462685833333346,82.0,0.07331375000000051
11159,32.0,0.14662749999999747,77.0,0.07331375000000051
11160,56.0,0.14662750000000102,77.0,0.07331375000000051
11161,23.0,0.14662750000000102,61.0,0.0739353333333348
11162,56.0,0.14784883333333454,70.0,0.29527858333333157
11163,23.0,0.1478269999999995,61.0,0.07376333333333207
11164,55.0,0.14745158333333208,67.0,0.29438008333333343
11165,23.0,0.14737650000000002,61.0,0.07353908333333337
11166,54.0,0.1470035833333334,66.0,0.07346450000000004
11167,23.0,0.1469290000000001,61.0,0.07223700000000122
11168,47.0,0.14447399999999888,61.0,0.07223700000000122
11169,23.0,0.14447400000000243,61.0,0.07223699999999766
11170,54.0,0.14447399999999888,66.0,0.07223700000000122
11171,23.0,0.14447399999999888,61.0,0.07223700000000122
11172,47.0,0.14447400000000243,61.0,0.07397900000000135
11173,23.0,0.14795799999999915,61.0,0.07353550000000197
11174,54.0,0.14684925000000248,66.0,0.07331375000000051
11175,23.0,0.14662749999999747,61.0,0.07266750000000144
11176,52.0,0.14533499999999933,61.0,0.29196250000000035
11177,23.0,0.14533499999999933,61.0,0.07331375000000051
11178,51.0,0.14662750000000102,66.0,0.2932549999999985
11179,23.0,0.14662749999999747,61.0,0.07331375000000051
11180,49.0,0.14662750000000102,62.0,0.29325500000000204
11181,23.0,0.14662750000000102,62.0,0.07331375000000051
11182,47.0,0.14662750000000102,67.0,0.2968529999999987
11183,23.0,0.14662749999999747,63.0,0.07511274999999884
11184,54.0,0.15022550000000123,63.0,0.2968529999999987
11185,23.0,0.15022549999999768,64.0,0.07331375000000051
11186,52.0,0.14662750000000102,70.0,0.2932549999999985
11187,23.0,0.14662749999999747,64.0,0.07331375000000051
11188,49.0,0.14662750000000102,66.0,0.29325500000000204
11189,23.0,0.14662750000000102,67.0,0.07331375000000051
11190,52.0,0.14662750000000102,72.0,0.2950319999999991
11191,23.0,0.14662749999999747,67.0,0.07420224999999903
11192,51.0,0.1484045000000016,68.0,0.2950319999999991
11193,23.0,0.14840449999999805,68.0,0.07331375000000051
11194,54.0,0.14662750000000102,73.0,0.2932549999999985
11195,23.0,0.14662749999999747,69.0,0.07331375000000051
11196,52.0,0.14662750000000102,69.0,0.29325500000000204
11197,23.0,0.14662750000000102,70.0,0.07331375000000051
11198,51.0,0.14662750000000102,75.0,0.2932549999999985
11199,24.0,0.14662749999999747,71.0,0.07331375000000051
11200,56.0,0.14662750000000102,71.0,0.2932549999999985
11201,23.0,0.14662750000000102,72.0,0.07331375000000051
11202,54.0,0.14662749999999747,78.0,0.29325500000000204
11203,23.0,0.14662750000000102,73.0,0.07331375000000051
11204,51.0,0.14662750000000102,73.0,0.2932549999999985
11205,25.0,0.14662750000000102,73.0,0.07331374999999696
11206,24.0,0.15292324999999352,68.0,0.07413999999999987
11207,63.0,0.14827999999999975,72.0,0.07413999999999987
11208,26.0,0.14827999999999975,66.0,0.07413999999999987
11209,59.0,0.14827999999999975,63.0,0.07413999999999987
11210,27.0,0.14827999999999975,61.0,0.07413999999999987
11211,60.0,0.14827999999999975,58.0,0.07413999999999987
11212,24.0,0.14827999999999975,58.0,0.07413999999999987
11213,63.0,0.14827999999999975,55.0,0.07413999999999987
11214,19.0,0.1520904999999999,55.0,0.07525916666666888
11215,62.0,0.14917266666667217,55.0,0.07391349999999619
11216,24.0,0.1478269999999995,55.0,0.07376333333333207
11217,60.0,0.14745158333332853,55.0,0.07368825000000356
11218,26.0,0.14737650000000002,55.0,0.07353908333333692
11219,55.0,0.14700358333333696,55.0,0.07346450000000004
11220,24.0,0.1469290000000001,55.0,0.07331633333333087
11221,60.0,0.14655858333333072,55.0,0.07324224999999984
11222,19.0,0.14648449999999968,55.0,0.07309724999999645
11223,62.0,0.1461219999999983,55.0,0.07273024999999933
11224,24.0,0.14531325000000095,55.0,0.07258299999999451
11225,60.0,0.14516599999999613,55.0,0.07258300000000162
11226,26.0,0.14575366666667122,56.0,0.07346450000000004
11227,55.0,0.1469290000000001,57.0,0.07346450000000004
11228,24.0,0.1469290000000001,60.0,0.07346450000000004
11229,60.0,0.1469290000000001,61.0,0.07346450000000004
11230,22.0,0.1501870000000025,64.0,0.07436425000000213
11231,62.0,0.14872849999999715,66.0,0.07436425000000213
11232,24.0,0.14872850000000426,68.0,0.07436424999999502
11233,63.0,0.14872849999999715,72.0,0.07436425000000213
11234,26.0,0.14872850000000426,63.0,0.07346450000000004
11235,58.0,0.1469290000000001,63.0,0.07346450000000004
11236,26.0,0.1469290000000001,62.0,0.07346450000000004
11237,57.0,0.1469290000000001,62.0,0.07346450000000004
11238,31.0,0.1469290000000001,61.0,0.07301749999999885
11239,55.0,0.14621675000000067,62.0,0.07338550000000055
11240,30.0,0.14695100000000139,60.0,0.07375350000000225
11241,57.0,0.1476852500000021,61.0,0.07412899999999922
11242,29.0,0.14844525000000175,61.0,0.07395400000000052
11243,58.0,0.14860374999999948,58.0,0.07531689999999003
11244,19.0,0.15139964999998057,58.0,0.07681890000000635
11245,59.0,0.15438850000000315,55.0,0.07833624999999955
11246,24.0,0.15745359999999664,55.0,0.0765281666666695
11247,60.0,0.1529769166666668,56.0,0.07644874999999729
11248,27.0,0.15289750000000168,55.0,0.07644874999999729
11249,60.0,0.15289749999999458,71.0,0.6078669999999988
11250,26.0,0.15289750000000168,55.0,0.07772425000000283
11251,53.0,0.15544849999999855,57.0,0.07488024999999965
11252,31.0,0.1497604999999993,55.0,0.07488024999999965
11253,59.0,0.1497604999999993,53.0,0.2972674999999967
11254,27.0,0.1497604999999993,55.0,0.07375350000000225
11255,60.0,0.1475069999999974,58.0,0.2950140000000019
11256,24.0,0.1475070000000045,55.0,0.07375349999999514
11257,63.0,0.1475069999999974,71.0,0.5923873333333418
11258,29.0,0.14880975000000518,56.0,0.07488024999999965
11259,56.0,0.1497604999999993,56.0,0.07364324999999639
11260,29.0,0.14681300000000164,58.0,0.07339041666666901
11261,62.0,0.1470040833333357,56.0,0.2956548333333373
11262,27.0,0.14790291666666633,60.0,0.0739135000000033
11263,60.0,0.14775191666667098,58.0,0.2938599999999951
11264,27.0,0.14722733333333338,61.0,0.0733904166666619
11265,67.0,0.14663266666666175,73.0,0.29194183333333257
11266,26.0,0.14648449999999968,63.0,0.07280275000000103
11267,65.0,0.14545733333333288,70.0,0.29267741666667035
11268,19.0,0.14597066666667047,66.0,0.07324224999999984
11269,67.0,0.14670674999999989,82.0,0.29565649999999977
11270,24.0,0.14737650000000002,68.0,0.07413999999999987
11271,63.0,0.14827999999999975,70.0,0.14827999999999975
11272,26.0,0.14827999999999975,66.0,0.07413999999999987
11273,62.0,0.14827999999999975,66.0,0.2965599999999995
11274,27.0,0.14827999999999975,61.0,0.07413999999999987
11275,60.0,0.14827999999999975,61.0,0.4486504999999994
11276,24.0,0.14827999999999975,58.0,0.07413999999999987
11277,55.0,0.14827999999999975,52.0,0.1520904999999999
11278,19.0,0.1520904999999999,55.0,0.07393533333333124
11279,62.0,0.14784883333333454,69.0,0.295278583333328
11280,24.0,0.1478269999999995,55.0,0.07376333333333207
11281,60.0,0.14745158333332853,66.0,0.294380083333337
11282,26.0,0.14737650000000002,55.0,0.07353908333333692
11283,55.0,0.14700358333333696,64.0,0.2934875833333308
11284,24.0,0.1469290000000001,55.0,0.07331633333333087
11285,60.0,0.14655858333333072,60.0,0.292606499999998
11286,19.0,0.14648449999999968,55.0,0.07309724999999645
11287,62.0,0.1461219999999983,64.0,0.2904792499999971
11288,24.0,0.14531325000000095,55.0,0.07258299999999451
11289,60.0,0.14516599999999613,69.0,0.29033199999999937
11290,26.0,0.14516600000000324,56.0,0.07258299999999451
11291,55.0,0.14516599999999613,75.0,0.29033199999999937
11292,28.0,0.14516600000000324,60.0,0.07258300000000162
11293,58.0,0.14516599999999613,67.0,0.1493055000000041
11294,29.0,0.1493055000000041,64.0,0.6009019999999978
11295,57.0,0.15022549999999768,75.0,0.15022550000000479
11296,32.0,0.15022550000000479,68.0,0.07511274999999529
11297,56.0,0.15022549999999768,77.0,0.15022549999999768
11298,17.0,0.15022549999999768,63.0,0.07442700000000002
11299,53.0,0.14885400000000004,73.0,0.14885399999999294
11300,19.0,0.14885399999999294,62.0,0.07561250000000541
11301,50.0,0.1512249999999966,63.0,0.1512249999999966
11302,24.0,0.1512249999999966,58.0,0.07668700000000683
11303,48.0,0.15337399999999946,61.0,1.079431637500008
11304,29.0,0.15117321249999804,57.0,0.07561250000000541
11305,44.0,0.15131238333334807,50.0,0.15186626249999335
11306,24.0,0.15186626249999335,58.0,0.07612640416667205
11307,43.0,0.1523809041666766,48.0,0.1527685541666557
11308,29.0,0.1527685541666557,55.0,0.07731866875001003
11309,44.0,0.1563620625000084,45.0,0.16356825833332778
11310,24.0,0.16356825833332778,51.0,0.08377550000000156
11311,43.0,0.16755100000000311,38.0,0.33055000000000234
11312,15.0,0.16755100000000311,45.0,0.08149950000000672
11313,55.0,0.16299899999999923,51.0,0.32424600000000225
11314,17.0,0.16299899999999923,42.0,0.08062350000000151
11315,53.0,0.16124700000000303,50.0,0.3278674999999964
11316,19.0,0.16124700000000303,41.0,0.0833102499999967
11317,50.0,0.1666204999999934,44.0,0.3170663416666599
11318,24.0,0.16409900000000732,44.0,0.07624402291665433
11319,48.0,0.1529673416666526,50.0,1.5710887270833354
11320,29.0,0.15487352291665957,41.0,0.07776893125000583
11321,44.0,0.1557400395833355,45.0,0.15659390624998082
11322,24.0,0.15659390624998082,39.0,0.07862508333333551
11323,43.0,0.15745670833334202,47.0,0.15837089583332897
11324,29.0,0.15837089583332897,38.0,0.07950012083334457
11325,44.0,0.15925378333334095,48.0,0.16014637083334549
11326,24.0,0.16014637083334549,40.0,0.07851349999999968
11327,43.0,0.15702699999999936,50.0,0.15702699999999936
11328,27.0,0.15702699999999936,64.0,0.07729974999999456
11329,55.0,0.15459950000000333,75.0,0.30414824999999723
11330,26.0,0.15459950000000333,62.0,0.07498124999999334
11331,60.0,0.1495487499999939,73.0,0.30413350000000605
11332,31.0,0.14913500000000113,62.0,0.07749925000000246
11333,59.0,0.15499850000000492,69.0,0.3053369999999944
11334,24.0,0.1549984999999907,69.0,0.07516925000000185
11335,58.0,0.1503385000000037,73.0,0.3053369999999944
11336,29.0,0.1503384999999895,59.0,0.07749925000000246
11337,57.0,0.15499850000000492,69.0,0.30452824999998995
11338,17.0,0.1549984999999907,59.0,0.07516925000000185
11339,56.0,0.14952974999999924,62.0,0.3043065000000098
11340,19.0,0.14872100000000898,41.0,0.07779275000000041
11341,50.0,0.15558550000000082,44.0,0.3023856541666703
11342,24.0,0.15558550000000082,44.0,0.07328606875000787
11343,48.0,0.14680015416666947,50.0,0.44631641458332183
11344,29.0,0.1478295020833258,41.0,0.07424083541665993
11345,44.0,0.1487272604166776,48.0,0.45222130416665607
11346,17.0,0.14975965208331843,39.0,0.07523503125000275
11347,53.0,0.15072150625000802,47.0,0.3044687541666633
11348,19.0,0.15174014583332962,38.0,0.07621478541666704
11349,50.0,0.15272860833333368,42.0,0.30461549791667153
11350,20.0,0.15381649791666518,36.0,0.07539950000000317
11351,48.0,0.15079900000000634,45.0,0.302874999999986
11352,15.0,0.15079899999999213,55.0,0.07603799999999694
11353,55.0,0.15207599999999388,60.0,0.3018365000000074
11354,17.0,0.1520760000000081,55.0,0.07488025000000675
11355,53.0,0.1497604999999993,58.0,0.2995209999999986
11356,19.0,0.1497604999999993,55.0,0.07488025000000675
11357,47.0,0.1497604999999993,55.0,0.29937017291666734
11358,24.0,0.1497604999999993,41.0,0.07454246874999626
11359,48.0,0.14960967291666805,47.0,0.6103068645833218
11360,29.0,0.15089158958333826,39.0,0.07587056249998625
11361,44.0,0.1519969666666583,45.0,0.1531619895833245
11362,24.0,0.1531619895833245,38.0,0.07699606250000102
11363,43.0,0.1542563187500008,46.0,0.3119984458333249
11364,29.0,0.1554124479166603,36.0,0.0781555166666692
11365,49.0,0.1565859979166646,42.0,0.3165212625000038
11366,24.0,0.1577764416666696,39.0,0.07935032083332771
11367,48.0,0.1587448208333342,42.0,0.6491754999999984
11368,29.0,0.15878899999999874,36.0,0.08159725000000151
11369,44.0,0.16319450000000302,40.0,0.15897400000000061
11370,24.0,0.15897400000000061,35.0,0.08410899999999799
11371,51.0,0.16821799999999598,41.0,0.350876999999997
11372,24.0,0.1754384999999985,33.0,0.1754384999999985
11373,49.0,0.1754384999999985,38.0,0.1754384999999985
11374,24.0,0.1754384999999985,27.0,3.885629499999993
11375,29.0,0.07675374999999462,27.0,1.3284137499999957
11376,32.0,0.07675375000000884,33.0,3.7321219999999897
11377,37.0,0.07675374999999462,33.0,1.1749062499999923
11378,41.0,0.07675375000000884,35.0,3.5786144999999863
11379,44.0,0.07675374999999462,40.0,3.5018607499999916
11380,49.0,0.07675374999999462,49.0,1.8266729999999995
11381,53.0,1.8266729999999995,41.0,0.7357449999999943
11382,52.0,0.7357449999999943,41.0,0.8626890000000031
11383,24.0,0.8626890000000031,27.0,1.8727895000000103
11384,31.0,0.08469325000000083,27.0,1.7880962500000095
11385,36.0,0.08469325000000083,33.0,1.7034030000000087
11386,40.0,0.08469325000000083,35.0,1.6187097500000078
11387,43.0,0.08469325000000083,35.0,1.534016500000007
11388,48.0,0.08469325000000083,41.0,1.4493232500000062
11389,57.0,0.0,55.0,1.6275581166666668
11390,56.0,1.6244331166666668,48.0,0.1875
11391,57.0,0.1875,53.0,0.18396772916666682
11392,59.0,0.18396772916666682,57.0,0.16657169583333342
11393,57.0,0.16657169583333342,55.0,0.1639879604166672
11394,55.0,0.1639879604166672,52.0,0.16154856458333322
11395,54.0,0.16154856458333322,49.0,0.18653200000000014
11396,52.0,0.18653200000000014,47.0,0.18072299999999997
11397,45.0,0.18072299999999997,40.0,0.18072299999999997
11398,49.0,0.09036149999999976,36.0,0.0903615000000002
11399,47.0,0.0903615000000002,46.0,0.17523491666666713
11400,45.0,0.17523491666666713,42.0,0.1799217916666671
11401,45.0,0.1799217916666671,41.0,0.1605995
11402,54.0,0.1605995,41.0,0.1605995
11403,52.0,0.1605995,47.0,0.17291049999999997
11404,45.0,0.17291049999999997,44.0,0.17291049999999997
11405,49.0,0.08645524999999976,33.0,0.0864552500000002
11406,47.0,0.0864552500000002,45.0,0.1652319583333357
11407,45.0,0.1652319583333357,43.0,0.17209345833333245
11408,45.0,0.17209345833333245,43.0,0.16216200000000036
11409,54.0,0.16216200000000036,43.0,0.16216199999999947
11410,52.0,0.16216199999999947,48.0,0.1599396208333328
11411,45.0,0.1599396208333328,52.0,0.15844373333333284
11412,50.0,0.15844373333333284,59.0,0.15711588541666632
11413,45.0,0.15711588541666632,56.0,0.15569151041666718
11414,54.0,0.15569151041666718,60.0,0.15440931666666646
11415,45.0,0.15440931666666646,56.0,0.15665837708333274
11416,56.0,0.15665837708333274,53.0,0.1508841875
11417,57.0,0.1508841875,56.0,0.15218544374999965
11418,59.0,0.15218544374999965,62.0,0.15383164583333286
11419,57.0,0.15383164583333286,57.0,0.15551491458333366
11420,55.0,0.15551491458333366,55.0,0.15717107499999905
11421,54.0,0.15717107499999905,53.0,0.15811380833333377
11422,52.0,0.15811380833333377,57.0,0.16901399999999978
11423,45.0,0.16901399999999978,56.0,0.16901400000000066
11424,49.0,0.08450700000000033,43.0,0.08450700000000033
11425,47.0,0.08450700000000033,55.0,0.16216200000000036
11426,45.0,0.16216200000000036,52.0,0.16216199999999947
11427,45.0,0.16216199999999947,52.0,0.1592355000000003
11428,54.0,0.1592355000000003,52.0,0.15923549999999942
11429,52.0,0.15923549999999942,58.0,0.16129049999999978
11430,45.0,0.16129049999999978,55.0,0.16129049999999978
11431,49.0,0.08064524999999989,41.0,0.08064524999999989
11432,47.0,0.08064524999999989,52.0,0.16129049999999978
11433,45.0,0.16129049999999978,51.0,0.16129049999999978
11434,45.0,0.16129049999999978,51.0,0.15923549999999942
11435,54.0,0.15923549999999942,51.0,0.1592355000000012
11436,52.0,0.1592355000000012,61.0,0.16129049999999978
11437,45.0,0.16129049999999978,56.0,0.16129049999999978
11438,50.0,0.16129049999999978,64.0,0.16085799999999928
11439,45.0,0.16085799999999928,59.0,0.16039233333333414
11440,54.0,0.16039233333333414,67.0,0.15996454166666574
11441,45.0,0.15996454166666574,62.0,0.15953920833333335
11442,57.0,0.15953920833333335,70.0,0.15911591666666602
11443,45.0,0.15911591666666602,66.0,0.1586602500000005
11444,58.0,0.1586602500000005,74.0,0.15957449999999973
11445,46.0,0.15957449999999973,69.0,0.15957449999999973
11446,59.0,0.15957449999999973,76.0,0.16216200000000036
11447,47.0,0.16216200000000036,70.0,0.16216200000000036
11448,62.0,0.16216200000000036,76.0,0.15503900000000037
11449,54.0,0.15503900000000037,66.0,0.15503900000000037
11450,57.0,0.0775194999999993,46.0,0.07751950000000107
11451,55.0,0.07751950000000107,70.0,0.14814800000000083
11452,54.0,0.14814800000000083,66.0,0.14814799999999906
11453,50.0,0.14814799999999906,69.0,0.14814800000000083
11454,62.0,0.14814800000000083,57.0,0.15087024999999876
11455,61.0,0.15087024999999876,64.0,0.1525107916666677
11456,54.0,0.1525107916666677,65.0,0.14814800000000083
11457,49.0,0.14814800000000083,65.0,0.14814799999999906
11458,52.0,0.07407399999999953,47.0,0.07407399999999953
11459,50.0,0.07407399999999953,65.0,0.14814800000000083
11460,49.0,0.14814800000000083,63.0,0.15228450000000038
11461,57.0,0.15228450000000038,57.0,0.15228450000000038
11462,50.0,0.15228450000000038,60.0,0.8535573333333311
11463,43.0,0.1522844999999986,58.0,0.17192000000000007
11464,47.0,0.08596000000000004,48.0,0.08596000000000004
11465,45.0,0.08596000000000004,63.0,0.17192000000000007
11466,43.0,0.17192000000000007,54.0,0.17814749999999968
11467,47.0,0.17814749999999968,57.0,0.3412723333333325
11468,52.0,0.17928533333333263,59.0,0.16198699999999988
11469,50.0,0.16198699999999988,61.0,1.0584327208333324
11470,42.0,0.16557080000000113,51.0,0.1711353624999994
11471,45.0,0.1711353624999994,51.0,0.17701276666666388
11472,42.0,0.17701276666666388,55.0,0.1815177916666677
11473,45.0,0.1815177916666677,51.0,0.18159799999999926
11474,47.0,0.18159799999999926,49.0,0.18159800000000104
11475,52.0,0.18159800000000104,57.0,0.17647050000000064
11476,45.0,0.17647050000000064,52.0,0.17647049999999886
11477,47.0,0.08823524999999854,40.0,0.04411762500000016
11478,49.0,0.04411762500000016,40.0,0.04411762500000016
11479,47.0,0.04411762500000016,50.0,0.17647050000000064
11480,45.0,0.17647050000000064,49.0,0.17647050000000064
11481,45.0,0.17647050000000064,49.0,0.17814749999999968
11482,54.0,0.17814749999999968,49.0,0.17814749999999968
11483,52.0,0.17814749999999968,54.0,0.17564400000000013
11484,45.0,0.17564400000000013,51.0,0.17564400000000013
11485,47.0,0.08782199999999918,40.0,0.043911000000001366
11486,49.0,0.043911000000001366,40.0,0.04391099999999959
11487,47.0,0.04391099999999959,48.0,0.17564400000000013
11488,45.0,0.17564400000000013,47.0,0.17564400000000013
11489,45.0,0.17564400000000013,47.0,0.1807230000000004
11490,54.0,0.1807230000000004,47.0,0.18085060416666465
11491,52.0,0.18085060416666465,51.0,0.18094656250000085
11492,45.0,0.18094656250000085,45.0,0.17913824583333238
11493,22.0,0.6000000000000014,51.0,1.1990154166666755
11494,29.0,0.31142608333333754,46.0,0.3030509166666704
11495,34.0,0.3030509166666704,48.0,0.5845384166666676
11496,38.0,0.29605908333333275,49.0,0.28847933333333486
11497,41.0,0.28847933333333486,50.0,1.1548069999999981
11498,50.0,0.560747499999998,41.0,0.5940595000000002
11499,43.0,0.5940595000000002,56.0,1.170982500000001
11500,44.0,0.5769230000000007,52.0,0.5940595000000002
11501,43.0,0.5940595000000002,56.0,1.1324784999999977
11502,51.0,0.555555499999997,49.0,0.5769230000000007
11503,51.0,0.5769230000000007,49.0,1.1273814999999985
11504,39.0,0.5769230000000007,54.0,0.5504584999999977
11505,34.0,0.5504584999999977,50.0,1.2086066666666682
11506,27.0,0.5714285000000032,48.0,0.6371781666666649
11507,15.0,0.6371781666666649,57.0,1.2128228333333269
11508,22.0,0.31252258333333316,50.0,0.3061436666666637
11509,31.0,0.3061436666666637,53.0,0.59415658333333
11510,34.0,0.3000199999999964,56.0,0.2941365833333336
11511,43.0,0.2941365833333336,58.0,1.1662098249999957
11512,51.0,0.5825244999999981,45.0,0.5836853249999976
11513,15.0,0.5836853249999976,59.0,1.216648174999996
11514,22.0,0.3163479250000023,47.0,0.3061436666666637
11515,31.0,0.3061436666666637,51.0,0.59415658333333
11516,34.0,0.3000199999999964,55.0,0.2941365833333336
11517,43.0,0.2941365833333336,59.0,2.3083209999999923
11518,51.0,0.5825244999999981,44.0,0.5825244999999981
11519,51.0,0.5825244999999981,40.0,1.143271999999996
11520,51.0,0.560747499999998,40.0,0.5825244999999981
11521,50.0,0.5825244999999981,38.0,1.1825245000000066
11522,50.0,0.5825245000000052,32.0,0.6000000000000014
11523,31.0,0.6000000000000014,48.0,1.7651585000000054
11524,49.0,0.5769230000000007,35.0,0.5882355000000032
11525,49.0,0.5882355000000032,36.0,1.1769230000000022
11526,33.0,0.6000000000000014,38.0,0.5769230000000007
11527,31.0,0.5769230000000007,48.0,1.156700249999993
11528,29.0,0.28571424999999806,40.0,0.2884614999999968
11529,28.0,0.2884614999999968,41.0,0.5825244999999981
11530,26.0,0.2912622500000026,36.0,0.2912622499999955
11531,31.0,0.2912622499999955,48.0,1.7483515000000054
11532,50.0,0.5714285000000032,35.0,0.5769230000000007
11533,49.0,0.5769230000000007,36.0,1.1769230000000022
11534,33.0,0.6000000000000014,38.0,0.5769230000000007
11535,31.0,0.5769230000000007,48.0,1.129870000000004
11536,29.0,0.28571424999999806,40.0,0.28571425000000517
11537,28.0,0.28571425000000517,41.0,0.5584415000000007
11538,26.0,0.28571424999999806,36.0,0.27272725000000264
11539,24.0,0.27272725000000264,45.0,1.2004953187499936
11540,22.0,0.28495667499999655,40.0,0.28830124374999855
11541,17.0,0.28830124374999855,41.0,0.6272373999999985
11542,19.0,0.3011721250000008,36.0,0.3260652749999977
11543,21.0,0.3260652749999977,48.0,2.3762380000000007
11544,50.0,0.5940595000000002,31.0,0.5940595000000002
11545,49.0,0.5940595000000002,36.0,1.1881190000000004
11546,49.0,0.5940595000000002,32.0,0.5940595000000002
11547,49.0,0.5940595000000002,36.0,2.3762380000000007
11548,49.0,0.5940595000000002,31.0,0.5940595000000002
11549,50.0,0.5940595000000002,36.0,1.1881190000000004
11550,50.0,0.5940595000000002,32.0,0.5940595000000002
11551,50.0,0.5940595000000002,36.0,1.1769230000000022
11552,50.0,0.5769230000000007,32.0,0.6000000000000014
11553,31.0,0.6000000000000014,48.0,1.759447499999986
11554,50.0,0.5825244999999981,35.0,0.5769229999999936
11555,49.0,0.5769229999999936,36.0,1.176922999999988
11556,33.0,0.5999999999999943,38.0,0.5769229999999936
11557,31.0,0.5769229999999936,47.0,1.15670025
11558,29.0,0.28571424999999806,40.0,0.2884614999999968
11559,28.0,0.2884614999999968,41.0,0.5825245000000052
11560,26.0,0.2912622500000026,36.0,0.2912622500000026
11561,31.0,0.2912622500000026,48.0,1.7538459999999958
11562,50.0,0.5769229999999936,35.0,0.5769230000000078
11563,49.0,0.5769230000000078,36.0,1.176922999999988
11564,33.0,0.5999999999999943,38.0,0.5769229999999936
11565,31.0,0.5769229999999936,48.0,1.1298699999999968
11566,29.0,0.28571424999999806,40.0,0.28571424999999806
11567,28.0,0.28571424999999806,41.0,0.5584415000000007
11568,26.0,0.28571424999999806,36.0,0.27272725000000264
11569,24.0,0.27272725000000264,45.0,1.2004953187499865
11570,22.0,0.28495667500000366,40.0,0.28830124374999855
11571,17.0,0.28830124374999855,41.0,0.6272373999999843
11572,19.0,0.3011721249999795,36.0,0.3260652750000048
11573,21.0,0.3260652750000048,48.0,2.404708999999997
11574,50.0,0.5714284999999961,31.0,0.5940595000000002
11575,49.0,0.5940595000000002,32.0,1.2392210000000006
11576,49.0,0.5940595000000002,28.0,0.6451615000000004
11577,14.0,0.6451615000000004,31.0,3.9343833333333293
11578,50.0,0.5825245000000052,26.0,0.5940595000000002
11579,50.0,0.5940595000000002,30.0,1.1654879999999963
11580,50.0,0.5714284999999961,27.0,0.5940595000000002
11581,48.0,0.5940595000000002,30.0,1.270874500000005
11582,48.0,0.6010820000000052,27.0,0.6697924999999998
11583,45.0,0.6697924999999998,29.0,1.249600833333318
11584,29.0,0.3214368333333226,27.0,0.3158128333333394
11585,33.0,0.3158128333333394,31.0,0.6123511666666559
11586,38.0,0.3093002499999926,35.0,0.3030509166666633
11587,41.0,0.3030509166666633,40.0,1.1882354999999905
11588,45.0,0.5882354999999961,28.0,0.5999999999999943
11589,40.0,0.5999999999999943,38.0,0.8825245000000024
11590,45.0,0.5825245000000052,28.0,0.5999999999999943
11591,41.0,0.29999999999999716,33.0,0.2950000000000017
11592,38.0,0.29999999999999716,36.0,1.7650490000000048
11593,45.0,0.6000000000000085,27.0,0.5825245000000052
11594,45.0,0.5825245000000052,27.0,1.2337074999999942
11595,33.0,0.582524499999991,28.0,0.6511830000000032
11596,29.0,0.6511830000000032,25.0,1.3529223645833355
11597,45.0,0.6537761625000087,22.0,0.6991462020833268
11598,26.0,0.6991462020833268,21.0,6.789349999999999
11599,45.0,0.6997900000000072,19.0,0.699789999999993
11600,45.0,2.08800149999999,19.0,1.7141014999999982
11601,45.0,0.7947020000000009,17.0,0.9193994999999973
11602,45.0,0.9193994999999973,19.0,2.2874570000000034
11603,45.0,1.1437284999999946,17.0,1.1437285000000088
11604,16.0,0.0,30.0,0.3429878333333334
11605,44.0,0.3429878333333334,26.0,0.32096274999999996
11606,35.0,0.32096274999999996,26.0,0.29999999999999993
11607,44.0,0.29999999999999993,26.0,0.30000000000000004
11608,40.0,0.30000000000000004,26.0,0.30927825
11609,32.0,0.30927825,26.0,0.30927825
11610,28.0,0.30927825,30.0,0.31917308333333305
11611,44.0,0.31917308333333305,26.0,0.3093002499999997
11612,35.0,0.3093002499999997,26.0,0.30303024999999995
11613,44.0,0.30303024999999995,25.0,0.3051567916666671
11614,40.0,0.3051567916666671,28.0,0.31417833333333345
11615,32.0,0.31417833333333345,25.0,0.33801966666666683
11616,56.0,0.33801966666666683,55.0,1.8366797916666666
11617,44.0,0.3321530416666665,26.0,0.31640774999999977
11618,35.0,0.31640774999999977,26.0,0.2970297500000001
11619,44.0,0.2970297500000001,26.0,0.2970297500000001
11620,40.0,0.2970297500000001,26.0,0.2970297500000001
11621,32.0,0.2970297500000001,26.0,0.2970297500000001
11622,54.0,0.2970297500000001,55.0,0.6185565000000004
11623,44.0,0.3092782500000002,26.0,0.3092782500000002
11624,52.0,0.3092782500000002,55.0,0.9541677499999999
11625,44.0,0.31914900000000035,26.0,0.31914899999999946
11626,40.0,0.31914899999999946,26.0,0.31586975000000006
11627,44.0,0.31586975000000006,50.0,0.33757637500000026
11628,47.0,0.33757637500000026,55.0,2.443974916666666
11629,44.0,0.33160983333333327,28.0,0.31200858333333326
11630,35.0,0.31200858333333326,28.0,0.29411774999999984
11631,44.0,0.29411774999999984,27.0,0.29411774999999984
11632,40.0,0.29411774999999984,27.0,0.30303025000000083
11633,32.0,0.30303025000000083,27.0,0.30303024999999906
11634,28.0,0.30303024999999906,31.0,0.30303025000000083
11635,44.0,0.30303025000000083,27.0,0.30303024999999906
11636,52.0,0.30303024999999906,58.0,0.5999999999999996
11637,44.0,0.3000000000000007,28.0,0.29999999999999893
11638,56.0,0.29999999999999893,61.0,0.6357699166666677
11639,32.0,0.30778675,30.0,0.3279831666666677
11640,61.0,0.3279831666666677,68.0,2.11672025
11641,44.0,0.3096615000000007,29.0,0.3096614999999989
11642,35.0,0.3096614999999989,28.0,0.2970297500000001
11643,44.0,0.2970297500000001,28.0,0.2970297500000001
11644,40.0,0.2970297500000001,28.0,0.2970297500000001
11645,32.0,0.2970297500000001,27.0,0.2970297500000001
11646,28.0,0.2970297500000001,30.0,0.3092782500000002
11647,59.0,0.3092782500000002,50.0,0.31545750000000083
11648,55.0,0.31545750000000083,56.0,0.30612250000000074
11649,56.0,0.30612250000000074,50.0,0.30612249999999896
11650,51.0,0.30612249999999896,55.0,0.31650074999999944
11651,52.0,0.31650074999999944,50.0,0.33060091666666835
11652,48.0,0.33060091666666835,63.0,3.626438249999996
11653,45.0,0.32495633333333274,26.0,0.3114596666666678
11654,36.0,0.3114596666666678,26.0,0.2970297500000001
11655,45.0,0.2970297500000001,26.0,0.2970297500000001
11656,42.0,0.2970297500000001,26.0,0.2970297500000001
11657,33.0,0.2970297500000001,26.0,0.2970297500000001
11658,28.0,0.2970297500000001,30.0,0.28846150000000037
11659,45.0,0.28846150000000037,26.0,0.28846150000000037
11660,36.0,0.28846150000000037,26.0,0.3000000000000007
11661,45.0,0.3000000000000007,25.0,0.3000000000000007
11662,42.0,0.3000000000000007,28.0,0.3051232499999941
11663,36.0,0.3051232499999941,25.0,0.31985699999999895
11664,49.0,0.31985699999999895,58.0,1.8631977500000012
11665,45.0,0.3261512083333322,26.0,0.3125565416666696
11666,37.0,0.3125565416666696,26.0,0.30612250000000074
11667,45.0,0.30612250000000074,26.0,0.30612250000000074
11668,42.0,0.30612250000000074,26.0,0.3061224999999972
11669,33.0,0.3061224999999972,26.0,0.30612250000000074
11670,28.0,0.30612250000000074,30.0,0.3225807500000002
11671,63.0,0.3225807500000002,56.0,0.308080750000002
11672,61.0,0.308080750000002,58.0,0.3108891249999992
11673,56.0,0.3108891249999992,52.0,0.31746925000000203
11674,59.0,0.31746925000000203,56.0,0.32433387500000066
11675,57.0,0.32433387500000066,51.0,0.33275025000000014
11676,56.0,0.33275025000000014,57.0,1.2526659166666718
11677,45.0,0.32911245833333425,26.0,0.3174929583333359
11678,36.0,0.3174929583333359,25.0,0.30303024999999906
11679,45.0,0.30303024999999906,24.0,0.3030302500000026
11680,54.0,0.3030302500000026,58.0,0.9090907499999972
11681,33.0,0.30303024999999906,23.0,0.30303024999999906
11682,25.0,0.30303024999999906,31.0,0.30303024999999906
11683,56.0,0.30303024999999906,52.0,0.3030302500000026
11684,54.0,0.07575756250000154,52.0,0.07575756249999799
11685,53.0,0.07575756249999799,52.0,0.07575756250000154
11686,54.0,0.07575756250000154,52.0,0.07575756250000154
11687,56.0,0.07575756250000154,61.0,0.6309150000000017
11688,45.0,0.31545750000000083,30.0,0.31545750000000083
11689,57.0,0.31545750000000083,69.0,0.4914319583333331
11690,33.0,0.32096274999999963,34.0,0.3476732499999997
11691,57.0,0.17046920833333346,57.0,0.17720404166666626
11692,69.0,0.17720404166666626,79.0,1.228045999999999
11693,45.0,0.3096615000000007,28.0,0.3096615000000007
11694,36.0,0.3096615000000007,27.0,0.30966149999999715
11695,45.0,0.30966149999999715,25.0,0.29906150000000054
11696,66.0,0.15483075000000213,56.0,0.1442307499999984
11697,64.0,0.1442307499999984,55.0,0.28846150000000037
11698,60.0,0.14423075000000196,54.0,0.1442307499999984
11699,57.0,0.1442307499999984,52.0,0.28846150000000037
11700,54.0,0.14423075000000196,49.0,0.1442307499999984
11701,51.0,0.1442307499999984,53.0,0.30303024999999906
11702,52.0,0.30303024999999906,54.0,0.31545750000000083
11703,53.0,0.31545750000000083,55.0,0.31545750000000083
11704,54.0,0.31545750000000083,56.0,0.3154574999999973
11705,56.0,0.3154574999999973,57.0,0.31650074999999944
11706,57.0,0.31650074999999944,58.0,0.33060091666666125
11707,58.0,0.33060091666666125,69.0,1.4025446250000009
11708,43.0,0.3096615000000007,29.0,0.15483074999999857
11709,34.0,0.3096615000000007,28.0,0.30966149999999715
11710,43.0,0.30966149999999715,28.0,0.15483075000000213
11711,37.0,0.3096615000000007,28.0,0.3277972499999997
11712,59.0,0.16389862500000163,54.0,0.16389862499999808
11713,61.0,0.16389862499999808,59.0,0.3277972499999997
11714,59.0,0.16389862500000163,50.0,0.16389862499999808
11715,56.0,0.16389862499999808,56.0,2.5536437500000027
11716,44.0,0.3277972499999997,23.0,0.31545750000000083
11717,35.0,0.31545750000000083,23.0,0.31545750000000083
11718,44.0,0.31545750000000083,23.0,0.31545750000000083
11719,40.0,0.31545750000000083,24.0,0.316500750000003
11720,32.0,0.316500750000003,25.0,0.3246752499999985
11721,52.0,0.3246752499999985,53.0,0.6382979999999989
11722,44.0,0.319149000000003,28.0,0.3191489999999959
11723,57.0,0.3191489999999959,65.0,0.882520999999997
11724,44.0,0.2970297500000001,27.0,0.2970297500000001
11725,40.0,0.2970297500000001,26.0,0.2884614999999968
11726,52.0,0.2884614999999968,60.0,0.319149000000003
11727,54.0,0.319149000000003,65.0,0.5882355000000032
11728,44.0,0.29411774999999807,28.0,0.2941177500000052
11729,56.0,0.2941177500000052,62.0,0.6060604999999981
11730,44.0,0.30303024999999906,28.0,0.30303024999999906
11731,51.0,0.30303024999999906,61.0,0.6411760000000015
11732,32.0,0.316500750000003,27.0,0.3246752499999985
11733,54.0,0.3246752499999985,65.0,0.6193230000000014
11734,44.0,0.30966149999999715,28.0,0.30966150000000425
11735,52.0,0.30966150000000425,59.0,0.2970297500000001
11736,44.0,0.2970297500000001,27.0,0.3133499999999998
11737,61.0,0.1485148749999965,64.0,0.1648351250000033
11738,61.0,0.1648351250000033,66.0,0.2985937499999949
11739,59.0,0.1970682916666604,65.0,0.20570341666666536
11740,32.0,0.10152545833333448,26.0,0.3147042916666649
11741,57.0,0.10417795833333088,64.0,0.21052633333333404
11742,56.0,0.21052633333333404,63.0,1.2218499999999963
11743,44.0,0.31578950000000106,28.0,0.29999999999999716
11744,48.0,0.29999999999999716,52.0,0.30303024999999906
11745,49.0,0.20202016666666367,54.0,0.20202016666667078
11746,44.0,0.10101008333333539,26.0,0.30303024999999906
11747,50.0,0.10101008333333539,56.0,0.20202016666666367
11748,56.0,0.20202016666666367,58.0,0.316500750000003
11749,56.0,0.20984312499999902,60.0,0.10665762500000397
11750,36.0,0.10665762500000397,30.0,0.3246752499999985
11751,56.0,0.10822508333333047,62.0,0.10822508333333758
11752,56.0,0.21645016666666805,63.0,0.6382979999999989
11753,44.0,0.319149000000003,28.0,0.3191489999999959
11754,57.0,0.3191489999999959,65.0,0.882520999999997
11755,44.0,0.2970297500000001,27.0,0.2970297500000001
11756,40.0,0.2970297500000001,26.0,0.2884614999999968
11757,52.0,0.2884614999999968,60.0,0.319149000000003
11758,52.0,0.319149000000003,58.0,0.29411774999999807
11759,56.0,0.11029415624999928,65.0,0.3308824687499978
11760,44.0,0.1838235937499988,28.0,0.2941177500000052
11761,54.0,0.14705887499999903,58.0,0.3490790416666698
11762,56.0,0.07352943749999952,53.0,0.07352943750000662
11763,54.0,0.07352943750000662,62.0,0.30303024999999906
11764,52.0,0.20202016666666367,55.0,0.20202016666667078
11765,44.0,0.10101008333333539,28.0,0.30303024999999906
11766,54.0,0.10101008333333539,55.0,0.20202016666666367
11767,56.0,0.20202016666666367,61.0,0.316500750000003
11768,32.0,0.316500750000003,27.0,0.3246752499999985
11769,51.0,0.16233762499999926,61.0,0.16233762499999926
11770,54.0,0.16233762499999926,65.0,0.6193230000000014
11771,44.0,0.30966149999999715,28.0,0.30966150000000425
11772,52.0,0.30966150000000425,59.0,0.2970297500000001
11773,44.0,0.2970297500000001,27.0,0.2970297500000001
11774,61.0,0.2970297500000001,66.0,0.8684582500000033
11775,32.0,0.2970297500000001,26.0,0.28571424999999806
11776,53.0,0.28571424999999806,66.0,0.28571425000000517
11777,62.0,0.28571425000000517,62.0,0.2884614999999968
11778,61.0,0.2884614999999968,62.0,0.30303024999999906
11779,60.0,0.20202016666666367,58.0,0.20202016666667078
11780,54.0,0.16187253333332308,59.0,0.16470538333334162
11781,51.0,0.16470538333334162,66.0,0.30881237500000225
11782,35.0,0.30881237500000225,32.0,0.3035207500000041
11783,30.0,0.3035207500000041,30.0,0.3035207500000041
11784,35.0,0.3035207500000041,28.0,0.3035207499999899
11785,33.0,0.3035207499999899,23.0,0.3035207500000041
11786,47.0,0.3035207500000041,46.0,0.32397400000000687
11787,48.0,0.32397400000000687,51.0,0.3035207500000041
11788,50.0,0.2023471666666694,45.0,0.2023471666666694
11789,43.0,0.1011735833333347,23.0,0.3035207499999899
11790,48.0,0.1011735833333347,46.0,0.2023471666666552
11791,47.0,0.2023471666666552,45.0,0.29726524999999526
11792,48.0,0.29726524999999526,45.0,0.31507108333333633
11793,48.0,0.15308408333334,46.0,0.16198699999999633
11794,55.0,0.16198699999999633,52.0,0.31872004166666557
11795,28.0,0.31872004166666557,24.0,0.339275083333348
11796,54.0,0.16765033333334145,49.0,0.17162475000000654
11797,54.0,0.17162475000000654,54.0,0.6226807500000007
11798,42.0,0.33141849999999806,24.0,0.2912622500000026
11799,33.0,0.2912622500000026,24.0,0.3035207500000041
11800,42.0,0.3035207500000041,24.0,0.32029974999998956
11801,36.0,0.32029974999998956,24.0,0.29999999999999716
11802,33.0,0.29999999999999716,24.0,0.32397400000000687
11803,54.0,0.32397400000000687,51.0,3.726016866666683
11804,42.0,0.3035207500000041,24.0,0.3035207499999899
11805,33.0,0.3035207499999899,24.0,0.3035207500000041
11806,42.0,0.3035207500000041,24.0,0.3035207500000041
11807,36.0,0.3035207500000041,24.0,0.31488070000001755
11808,33.0,0.31488070000001755,24.0,0.3265779166666647
11809,26.0,0.3265779166666647,31.0,0.33141849999999806
11810,42.0,0.33141849999999806,24.0,0.2912622500000026
11811,32.0,0.2912622500000026,24.0,0.3035207500000041
11812,42.0,0.3035207500000041,24.0,0.32029974999998956
11813,35.0,0.32029974999998956,24.0,0.29999999999999716
11814,32.0,0.29999999999999716,24.0,0.627494750000011
11815,53.0,0.32397400000000687,51.0,1.8485769333333337
11816,41.0,0.3035207500000041,24.0,0.3035207499999899
11817,31.0,0.3035207499999899,24.0,0.6088628333333332
11818,41.0,0.3053068749999994,24.0,0.3035559583333338
11819,35.0,0.3035559583333338,24.0,0.31143737500001123
11820,31.0,0.31143737500001123,24.0,0.32123522499999524
11821,52.0,0.32123522499999524,54.0,1.2465012499999943
11822,40.0,0.33141849999999806,24.0,0.2912622500000026
11823,31.0,0.2912622500000026,24.0,0.3035207500000041
11824,40.0,0.3035207500000041,24.0,0.32029974999998956
11825,36.0,0.32029974999998956,24.0,0.29999999999999716
11826,31.0,0.29999999999999716,24.0,0.32397400000000687
11827,52.0,0.32397400000000687,51.0,2.478222366666685
11828,40.0,0.3035207500000041,24.0,0.3035207499999899
11829,30.0,0.3035207499999899,24.0,0.3035207500000041
11830,40.0,0.3035207500000041,24.0,0.3035207500000041
11831,33.0,0.3035207500000041,24.0,0.31488070000001755
11832,30.0,0.31488070000001755,24.0,0.3265779166666647
11833,23.0,0.3265779166666647,31.0,0.33141849999999806
11834,39.0,0.33141849999999806,24.0,0.2912622500000026
11835,51.0,0.2912622500000026,49.0,0.607041499999994
11836,39.0,0.3035207500000041,24.0,0.3035207499999899
11837,49.0,0.3035207499999899,48.0,0.9465547500000042
11838,28.0,0.29999999999999716,24.0,0.32397400000000687
11839,23.0,0.32397400000000687,28.0,0.3225807500000002
11840,47.0,0.3225807500000002,42.0,0.3225807500000002
11841,49.0,0.3225807500000002,44.0,0.32456362500001035
11842,51.0,0.32456362500001035,45.0,0.3352338750000001
11843,52.0,0.3352338750000001,47.0,0.34686329166666496
11844,54.0,0.34686329166666496,48.0,0.35932866666665575
11845,56.0,0.35932866666665575,49.0,1.8366797916666684
11846,44.0,0.3321530416666718,22.0,0.3164077499999962
11847,35.0,0.3164077499999962,22.0,0.297029749999993
11848,44.0,0.297029749999993,22.0,0.2970297500000072
11849,40.0,0.2970297500000072,22.0,0.297029749999993
11850,32.0,0.297029749999993,22.0,0.2970297500000072
11851,54.0,0.2970297500000072,49.0,0.6185564999999968
11852,44.0,0.30927825000000553,22.0,0.3092782499999913
11853,52.0,0.3092782499999913,49.0,0.9442969999999917
11854,44.0,0.30927825000000553,22.0,0.3191489999999959
11855,40.0,0.3191489999999959,22.0,0.3158697499999903
11856,44.0,0.3158697499999903,45.0,0.36421645833333116
11857,47.0,0.36421645833333116,49.0,2.4629143333333303
11858,44.0,0.35054925000000026,24.0,0.3120085833333377
11859,35.0,0.3120085833333377,24.0,0.29411774999999807
11860,44.0,0.29411774999999807,23.0,0.29411774999999807
11861,40.0,0.29411774999999807,23.0,0.30303025000000616
11862,32.0,0.30303025000000616,23.0,0.30303024999999195
11863,28.0,0.30303024999999195,28.0,0.30303025000000616
11864,44.0,0.30303025000000616,23.0,0.30303024999999195
11865,52.0,0.30303024999999195,52.0,0.6310307499999936
11866,44.0,0.31578949999999395,24.0,0.3152412499999997
11867,56.0,0.3152412499999997,54.0,0.6600720833333611
11868,32.0,0.32096275000002095,27.0,0.33910933333334015
11869,61.0,0.33910933333334015,61.0,2.11672025
11870,44.0,0.30966150000000425,26.0,0.30966149999999004
11871,35.0,0.30966149999999004,25.0,0.297029749999993
11872,44.0,0.297029749999993,24.0,0.2970297500000072
11873,40.0,0.2970297500000072,24.0,0.297029749999993
11874,32.0,0.297029749999993,23.0,0.2970297500000072
11875,28.0,0.2970297500000072,27.0,0.30927825000000553
11876,59.0,0.30927825000000553,45.0,0.3225807500000002
11877,55.0,0.3225807500000002,50.0,0.32433387499999355
11878,56.0,0.32433387499999355,45.0,0.33150175000000104
11879,51.0,0.33150175000000104,49.0,0.3416355416666619
11880,52.0,0.3416355416666619,45.0,0.3678533749999957
11881,48.0,0.3678533749999957,56.0,3.7860700833333283
11882,45.0,0.3510172500000124,22.0,0.3279831666666695
11883,36.0,0.3279831666666695,22.0,0.3125
11884,45.0,0.3125,22.0,0.3125
11885,40.0,0.3125,22.0,0.31578949999999395
11886,33.0,0.31578949999999395,22.0,0.31578950000000816
11887,28.0,0.31578950000000816,27.0,0.30612250000000074
11888,45.0,0.30612250000000074,22.0,0.30612250000000074
11889,36.0,0.30612250000000074,22.0,0.30612250000000074
11890,45.0,0.30612250000000074,22.0,0.30612250000000074
11891,41.0,0.30612250000000074,26.0,0.3061436666666566
11892,33.0,0.3061436666666566,22.0,0.31985699999998474
11893,49.0,0.31985699999998474,52.0,1.8631977499999977
11894,45.0,0.32615120833332867,22.0,0.312556541666666
11895,37.0,0.312556541666666,22.0,0.30612250000000074
11896,45.0,0.30612250000000074,22.0,0.30612250000000074
11897,42.0,0.30612250000000074,22.0,0.30612250000000074
11898,33.0,0.30612250000000074,22.0,0.30612250000000074
11899,28.0,0.30612250000000074,27.0,0.3370787500000034
11900,63.0,0.3370787500000034,50.0,0.31597220833333495
11901,61.0,0.31597220833333495,52.0,0.314144749999997
11902,56.0,0.314144749999997,46.0,0.32086487499999805
11903,59.0,0.32086487499999805,50.0,0.32787862499999676
11904,57.0,0.32787862499999676,45.0,0.33584437500000774
11905,56.0,0.33584437500000774,51.0,1.2526659166666576
11906,45.0,0.32911245833334135,22.0,0.31749295833331814
11907,36.0,0.31749295833331814,22.0,0.30303025000000616
11908,45.0,0.30303025000000616,22.0,0.30303024999999195
11909,54.0,0.30303024999999195,52.0,1.0733905833333353
11910,33.0,0.30303025000000616,21.0,0.30303024999999195
11911,25.0,0.30303024999999195,28.0,0.3077435416666674
11912,53.0,0.3077435416666674,57.0,0.3226300416666703
11913,54.0,0.3226300416666703,57.0,0.3296702500000066
11914,55.0,0.3296702500000066,57.0,0.3296702499999924
11915,56.0,0.3296702499999924,62.0,0.5023175000000037
11916,33.0,0.32988854166666215,30.0,0.3654522416666879
11917,57.0,0.1724289583333416,51.0,0.08720931250000774
11918,57.0,0.08720931250000774,51.0,0.10581397083333854
11919,69.0,0.10581397083333854,71.0,0.8257640000000066
11920,45.0,0.30966150000000425,24.0,0.30966149999999004
11921,36.0,0.30966149999999004,23.0,0.30966150000000425
11922,66.0,0.2064410000000123,65.0,0.2064409999999981
11923,45.0,0.10322049999999194,22.0,0.29906150000000764
11924,64.0,0.10322050000000615,62.0,0.19584100000000149
11925,60.0,0.19584100000000149,60.0,0.2884614999999968
11926,57.0,0.19230766666666455,58.0,0.19230766666666455
11927,30.0,0.09615383333333227,21.0,0.2884614999999968
11928,54.0,0.09615383333333227,55.0,0.19230766666666455
11929,51.0,0.19230766666666455,47.0,0.30303025000000616
11930,45.0,0.30303025000000616,22.0,0.31545749999999373
11931,47.0,0.15772875000000397,49.0,0.15772874999998976
11932,54.0,0.15772874999998976,50.0,0.3225807500000002
11933,63.0,0.10752691666667147,50.0,0.10752691666665726
11934,48.0,0.10752691666665726,48.0,0.10752691666667147
11935,55.0,0.10752691666667147,52.0,0.3225807500000002
11936,64.0,0.10752691666667147,53.0,0.10752691666665726
11937,49.0,0.10752691666665726,50.0,0.10752691666667147
11938,56.0,0.10752691666667147,54.0,0.3282901083333343
11939,65.0,0.10752691666667147,55.0,0.10811129166665978
11940,50.0,0.10811129166665978,53.0,0.11265190000000302
11941,57.0,0.11265190000000302,56.0,0.38351718333332485
11942,66.0,0.1197889000000032,57.0,0.12859311666665008
11943,51.0,0.12859311666665008,54.0,0.13513516666667158
11944,67.0,0.13513516666667158,64.0,0.9175732500000038
11945,47.0,0.3225807500000002,24.0,0.28571424999999806
11946,35.0,0.28571424999999806,24.0,0.30927825000000553
11947,68.0,0.30927825000000553,58.0,0.3092782499999913
11948,68.0,0.3092782499999913,57.0,0.30927825000000553
11949,69.0,0.20618550000000369,61.0,0.10309275000000184
11950,32.0,0.10309275000000184,24.0,0.31947424999999896
11951,68.0,0.2095841666666729,54.0,0.10989008333332606
11952,68.0,0.10989008333332606,58.0,0.3296702500000066
11953,64.0,0.1648351250000104,54.0,1.7106759166666592
11954,44.0,0.1648351249999962,24.0,0.3180649166666569
11955,35.0,0.3180649166666569,24.0,0.3051232499999941
11956,44.0,0.3051232499999941,25.0,0.297029749999993
11957,40.0,0.297029749999993,25.0,0.30466012499999806
11958,35.0,0.30466012499999806,25.0,0.32096275000002095
11959,64.0,0.32096275000002095,60.0,0.6223001249999953
11960,43.0,0.32275483333333455,27.0,0.2995452916666608
11961,65.0,0.2995452916666608,57.0,0.5940595000000002
11962,43.0,0.297029749999993,26.0,0.2970297500000072
11963,60.0,0.2970297500000072,54.0,0.5940595000000002
11964,31.0,0.297029749999993,26.0,0.2970297500000072
11965,55.0,0.2970297500000072,61.0,0.29999999999999716
11966,62.0,0.29999999999999716,51.0,0.28571424999999806
11967,64.0,0.07142856250000307,51.0,0.07142856250000307
11968,62.0,0.07142856250000307,54.0,0.14285712499999192
11969,61.0,0.14285712499999192,54.0,0.28571424999999806
11970,62.0,0.28571424999999806,57.0,0.28571424999999806
11971,64.0,0.28571424999999806,60.0,0.29565024999999423
11972,31.0,0.29565024999999423,28.0,0.31722495833332687
11973,59.0,0.1546501249999892,54.0,0.16257483333333766
11974,62.0,0.16257483333333766,64.0,0.31777787500000443
11975,43.0,0.31777787500000443,29.0,0.297029749999993
11976,31.0,0.297029749999993,29.0,0.2970297500000072
11977,60.0,0.2970297500000072,61.0,0.30808937499999445
11978,60.0,0.30808937499999445,61.0,0.3191490000000101
11979,59.0,0.21276600000001622,59.0,0.1063829999999939
11980,31.0,0.1063829999999939,29.0,0.318589083333336
11981,57.0,0.1063829999999939,59.0,0.1063829999999939
11982,55.0,0.21220608333334212,61.0,0.9159090000000276
11983,43.0,0.3093331250000233,26.0,0.30303025000000616
11984,31.0,0.30303025000000616,28.0,0.30354562499999815
11985,55.0,0.30354562499999815,58.0,0.307174416666669
11986,55.0,0.307174416666669,61.0,0.31088912499998855
11987,55.0,0.31088912499998855,66.0,0.314692999999977
11988,55.0,0.314692999999977,67.0,1.2323574999999778
11989,43.0,0.3191490000000101,32.0,0.3191489999999817
11990,31.0,0.3191489999999817,32.0,0.2970297500000072
11991,43.0,0.2970297500000072,32.0,0.2970297499999788
11992,57.0,0.2970297499999788,61.0,0.28846150000001103
11993,52.0,0.28846150000001103,65.0,0.3191490000000101
11994,52.0,0.3191490000000101,59.0,0.30927825000000553
11995,55.0,0.15463912499998855,66.0,0.30927825000000553
11996,43.0,0.15463912500001697,34.0,0.30927825000000553
11997,53.0,0.15463912499998855,60.0,0.15463912500001697
11998,50.0,0.15463912500001697,58.0,0.3419739166666602
11999,55.0,0.06024095833333831,52.0,0.06024095833333831
12000,50.0,0.06024095833333831,57.0,0.1204819166666482
12001,52.0,0.1204819166666482,59.0,0.20202016666667078
12002,43.0,0.10101008333333539,35.0,0.30303025000000616
12003,53.0,0.10101008333333539,60.0,0.20202016666667078
12004,53.0,0.20202016666667078,61.0,0.3165007499999888
12005,55.0,0.20984312499999191,63.0,0.21488270833333445
12006,31.0,0.10665762499999687,35.0,0.32467525000001274
12007,50.0,0.21645016666667516,65.0,0.10822508333333758
12008,53.0,0.10822508333333758,62.0,0.6305839999999989
12009,43.0,0.3213057499999934,39.0,0.30927825000000553
12010,52.0,0.30927825000000553,62.0,0.594059499999986
12011,43.0,0.2970297500000072,39.0,0.2970297499999788
12012,60.0,0.2970297499999788,70.0,1.2363481666666587
12013,31.0,0.2970297500000072,39.0,0.3191490000000101
12014,18.0,0.3191490000000101,65.0,0.3191489999999817
12015,45.0,0.3191489999999817,40.0,0.3010204166666597
12016,60.0,0.3010204166666597,70.0,0.5892844583333101
12017,45.0,0.29516670833331204,44.0,0.29411774999999807
12018,60.0,0.29411774999999807,76.0,0.6042003750000049
12019,30.0,0.2932221250000282,48.0,0.3109782499999767
12020,59.0,0.3109782499999767,75.0,2.05358824999999
12021,45.0,0.3213057499999934,39.0,0.30927825000000553
12022,60.0,0.30927825000000553,74.0,0.8910892499999932
12023,45.0,0.2970297500000072,39.0,0.2970297499999788
12024,40.0,0.2970297499999788,39.0,0.2970297500000072
12025,59.0,0.2970297500000072,75.0,0.3191490000000101
12026,57.0,0.3191490000000101,73.0,0.8412604999999758
12027,54.0,0.2127659999999878,72.0,0.21276600000001622
12028,45.0,0.1063829999999939,40.0,0.31697791666667285
12029,52.0,0.10638300000002232,70.0,0.21059491666665053
12030,51.0,0.21059491666665053,70.0,0.8959690833333411
12031,55.0,0.2051335833333212,70.0,0.2015254583333217
12032,45.0,0.10152545833332738,44.0,0.29608791666666434
12033,57.0,0.09999999999999432,75.0,0.19608791666667003
12034,59.0,0.19608791666667003,75.0,0.2932221250000282
12035,30.0,0.2932221250000282,48.0,0.30303025000000616
12036,54.0,0.15151512500000308,72.0,0.15151512500000308
12037,57.0,0.15151512500000308,76.0,0.8286038333333181
12038,43.0,0.3213057499999934,39.0,0.30927825000000553
12039,35.0,0.30927825000000553,39.0,0.2970297500000072
12040,55.0,0.19801983333331918,73.0,0.09900991666668801
12041,43.0,0.09900991666668801,39.0,0.30808937499998024
12042,64.0,0.20170637499998634,73.0,0.1063829999999939
12043,64.0,0.1063829999999939,75.0,0.30000000000001137
12044,62.0,0.19999999999998863,73.0,0.20638300000001664
12045,31.0,0.10000000000002274,39.0,0.3191490000000101
12046,60.0,0.2127659999999878,70.0,0.10638300000002232
12047,59.0,0.10638300000002232,76.0,0.3086341666666499
12048,59.0,0.21059491666665053,68.0,0.09803924999999936
12049,43.0,0.09803924999999936,40.0,0.2975344999999834
12050,59.0,0.09852458333332947,69.0,0.09900991666665959
12051,59.0,0.1990099166666539,70.0,0.3035559583333338
12052,59.0,0.20151512500001445,71.0,0.10204083333331937
12053,43.0,0.10204083333331937,44.0,0.31318645833334813
12054,59.0,0.10256679166667482,72.0,0.10530983333333666
12055,59.0,0.2106196666666733,73.0,0.3288292500000125
12056,59.0,0.12701396666668074,73.0,0.11063615833333529
12057,59.0,0.13310807499999555,74.0,0.11576604166666016
12058,31.0,0.06870720833333621,48.0,0.3724321666666697
12059,59.0,0.07087173333334817,74.0,0.12166839166664545
12060,59.0,0.14666839166665113,75.0,0.1285762583333394
12061,59.0,0.15489204166667037,79.0,0.47594487500001037
12062,42.0,0.3213057499999934,51.0,0.2988698750000083
12063,62.0,0.15463912500001697,63.0,0.1442307499999913
12064,60.0,0.1442307499999913,78.0,0.6051191249999874
12065,42.0,0.2970297500000072,51.0,0.30808937499998024
12066,59.0,0.30808937499998024,79.0,0.6157895000000053
12067,56.0,0.30612249999998653,70.0,0.30612250000001495
12068,51.0,0.30612250000001495,75.0,0.3165007499999888
12069,52.0,0.3165007499999888,69.0,0.33060091666663993
12070,50.0,0.33060091666663993,79.0,3.637139208333366
12071,44.0,0.32495633333334695,44.0,0.31145966666667846
12072,35.0,0.31145966666667846,44.0,0.2970297500000072
12073,44.0,0.2970297500000072,44.0,0.2970297499999788
12074,40.0,0.2970297499999788,44.0,0.2970297500000072
12075,32.0,0.2970297500000072,44.0,0.2970297500000072
12076,28.0,0.2970297500000072,52.0,0.2970297500000072
12077,44.0,0.2970297500000072,44.0,0.2970297499999788
12078,35.0,0.2970297499999788,44.0,0.2970297500000072
12079,44.0,0.2970297500000072,37.0,0.2970297500000072
12080,40.0,0.2970297500000072,42.0,0.3046282083333267
12081,32.0,0.3046282083333267,32.0,0.31985700000001316
12082,62.0,0.31985700000001316,61.0,2.0782515833332695
12083,44.0,0.32615120833330025,22.0,0.3125565416666234
12084,35.0,0.3125565416666234,22.0,0.30612250000001495
12085,44.0,0.30612250000001495,22.0,0.30612249999998653
12086,40.0,0.30612249999998653,22.0,0.30612250000001495
12087,32.0,0.30612250000001495,22.0,0.30612249999998653
12088,28.0,0.30612249999998653,27.0,0.322580749999986
12089,58.0,0.21505383333334294,50.0,0.20853699999997843
12090,44.0,0.10752691666664305,22.0,0.3080807500000162
12091,59.0,0.10101008333333539,50.0,0.20707066666668084
12092,58.0,0.20707066666668084,53.0,0.31088912499998855
12093,57.0,0.20672245833333136,50.0,0.20942983333333132
12094,44.0,0.10416666666665719,22.0,0.3174692499999878
12095,58.0,0.10526316666667412,50.0,0.2122060833333137
12096,61.0,0.2122060833333137,56.0,0.32433387499997934
12097,59.0,0.21563820833333125,52.0,0.21858574999998837
12098,32.0,0.1086956666666481,22.0,0.3327502500000037
12099,56.0,0.10989008333334027,50.0,0.22286016666666342
12100,54.0,0.22286016666666342,51.0,1.8714347000000373
12101,44.0,0.32911245833332714,22.0,0.3174929583333608
12102,35.0,0.3174929583333608,22.0,0.30303025000000616
12103,44.0,0.30303025000000616,22.0,0.30303025000000616
12104,38.0,0.30303025000000616,21.0,0.30347168333332775
12105,32.0,0.30347168333332775,21.0,0.3152971000000093
12106,52.0,0.3152971000000093,47.0,0.3517519749999849
12107,54.0,0.08262660000002597,43.0,0.09174050625000518
12108,52.0,0.07699547916666916,47.0,0.08585165416664609
12109,54.0,0.07180670624998697,43.0,0.08084950208331065
12110,52.0,0.06757962291663944,47.0,0.07878523333332055
12111,54.0,0.052743566666663355,43.0,0.31297051666663833
12112,52.0,0.051868549999994684,47.0,0.07731956250000849
12113,54.0,0.05154637500001513,43.0,0.07780282499999203
12114,52.0,0.051761158333334834,47.0,0.07839912499997581
12115,54.0,0.052083333333314386,43.0,0.07911534999999503
12116,52.0,0.05263158333332285,47.0,0.07936764166666421
12117,51.0,0.053079516666656446,47.0,0.31545750000000794
12118,52.0,0.10515250000000265,46.0,0.10515250000000265
12119,54.0,0.10515250000000265,47.0,0.10515250000000265
12120,56.0,0.10515250000000265,48.0,0.3154574999999795
12121,57.0,0.10515250000000265,49.0,0.10515250000000265
12122,59.0,0.10515250000000265,50.0,0.10515249999997422
12123,61.0,0.10515249999997422,51.0,0.3209627499999783
12124,62.0,0.10471491666666566,52.0,0.10695495833331847
12125,64.0,0.10695495833331847,53.0,0.10929287499999418
12126,66.0,0.10929287499999418,54.0,0.3476732499999855
12127,68.0,0.11299795833332382,55.0,0.11561079166665422
12128,69.0,0.11561079166665422,55.0,0.11906450000000746
12129,73.0,0.11906450000000746,57.0,0.35405933333331063
12130,71.0,0.09018112499998665,55.0,0.08911170833331994
12131,74.0,0.08911170833331994,52.0,0.08789324999997916
12132,70.0,0.08789324999997916,52.0,0.08687325000002488
12133,71.0,0.08687325000002488,52.0,0.33526875000001155
12134,70.0,0.08539141666665273,52.0,0.08442833333336353
12135,74.0,0.08442833333336353,52.0,0.0831798749999848
12136,69.0,0.0831798749999848,52.0,0.08226912500001049
12137,70.0,0.08226912500001049,49.0,0.31613366666667275
12138,69.0,0.08066362499999968,49.0,0.0789473750000127
12139,74.0,0.0789473750000127,50.0,0.07839766666666037
12140,68.0,0.07839766666666037,50.0,0.078125
12141,69.0,0.078125,51.0,0.3077059166666629
12142,68.0,0.07758670833334236,52.0,0.07705529166665315
12143,74.0,0.07705529166665315,52.0,0.07679229166669188
12144,67.0,0.07679229166669188,53.0,0.07627162499997553
12145,68.0,0.07627162499997553,53.0,0.30239591666665433
12146,67.0,0.07575762499999428,54.0,0.07537687499998924
12147,74.0,0.07537687499998924,55.0,0.07550379166667653
12148,66.0,0.07550379166667653,55.0,0.07575762499999428
12149,67.0,0.07575762499999428,56.0,0.3164216250000038
12150,66.0,0.07614212499998985,57.0,0.07666412500000774
12151,74.0,0.07666412500000774,57.0,0.07980079166665632
12152,65.0,0.07980079166665632,57.0,0.0838145833333499
12153,64.0,0.0838145833333499,57.0,0.3217070000000035
12154,66.0,0.0837988750000136,58.0,0.08028895833331262
12155,64.0,0.08028895833331262,59.0,0.0786717916666646
12156,63.0,0.0786717916666646,59.0,0.0789473750000127
12157,64.0,0.0789473750000127,60.0,0.31887208333333206
12158,66.0,0.07936512500000958,61.0,0.07964654166664786
12159,68.0,0.07964654166664786,61.0,0.0799294583333392
12160,69.0,0.0799294583333392,62.0,0.07993095833333541
12161,71.0,0.07993095833333541,62.0,0.3598083750000285
12162,73.0,0.08288808333333009,62.0,0.08722695833333205
12163,74.0,0.08722695833333205,64.0,0.09204533333334552
12164,76.0,0.09204533333334552,66.0,0.09764800000002083
12165,80.0,0.09764800000002083,65.0,0.35294916666668996
12166,78.0,0.08771924999999214,64.0,0.0880632500000047
12167,76.0,0.0880632500000047,62.0,0.08840929166669298
12168,74.0,0.08840929166669298,61.0,0.08875737500000014
12169,71.0,0.08875737500000014,59.0,0.3671362499999873
12170,68.0,0.0892878333333158,58.0,0.090911333333338
12171,64.0,0.090911333333338,57.0,0.09259495833333631
12172,62.0,0.09259495833333631,56.0,0.09434212499999717
12173,59.0,0.09434212499999717,54.0,0.39555287500002123
12174,56.0,0.09615650000003484,53.0,0.09804204166667319
12175,52.0,0.09804204166667319,51.0,0.10000295833330597
12176,50.0,0.10000295833330597,50.0,0.10135137500000724
12177,49.0,0.10135137500000724,53.0,1.0267114999999762
12178,44.0,0.3615151666666634,22.0,0.3391093333333117
12179,35.0,0.3391093333333117,22.0,0.3260870000000011
12180,48.0,0.3260870000000011,48.0,0.3260870000000011
12181,49.0,0.16304349999998635,50.0,0.16304350000001477
12182,50.0,0.16304350000001477,53.0,0.3309315833333244
12183,49.0,0.16364070833333244,50.0,0.16729087499999196
12184,52.0,0.16729087499999196,52.0,0.3531394916666386
12185,50.0,0.11428941666665082,50.0,0.11682628333332445
12186,49.0,0.11682628333332445,48.0,0.12202379166666333
12187,49.0,0.12202379166666333,50.0,1.3054295249999939
12188,44.0,0.35193377500002043,23.0,0.322580749999986
12189,35.0,0.322580749999986,25.0,0.31545750000000794
12190,44.0,0.31545750000000794,27.0,0.3154574999999795
12191,61.0,0.3154574999999795,54.0,1.3013789999999688
12192,32.0,0.3209627499999783,30.0,0.34883725000000254
12193,57.0,0.34883725000000254,59.0,0.6315789999999879
12194,45.0,0.31578949999999395,28.0,0.31578949999999395
12195,62.0,0.31578949999999395,61.0,0.6185565000000111
12196,45.0,0.30927825000000553,28.0,0.30927825000000553
12197,57.0,0.30927825000000553,61.0,0.4480360000000019
12198,33.0,0.28846150000001103,28.0,0.3191490000000101
12199,57.0,0.15957449999999085,59.0,0.15957450000001927
12200,61.0,0.15957450000001927,66.0,0.30927825000000553
12201,47.0,0.30927825000000553,30.0,0.30927825000000553
12202,59.0,0.15463912499998855,60.0,0.15463912500001697
12203,56.0,0.15463912500001697,58.0,0.3419739166666602
12204,57.0,0.06024095833333831,52.0,0.06024095833333831
12205,56.0,0.06024095833333831,57.0,0.1204819166666482
12206,57.0,0.1204819166666482,59.0,0.20202016666667078
12207,47.0,0.10101008333333539,31.0,0.30303025000000616
12208,59.0,0.10101008333333539,60.0,0.20202016666667078
12209,61.0,0.20202016666667078,63.0,0.3165007499999888
12210,32.0,0.3165007499999888,31.0,0.32467525000001274
12211,56.0,0.21645016666667516,65.0,0.10822508333333758
12212,59.0,0.10822508333333758,62.0,0.6305839999999989
12213,45.0,0.3213057499999934,34.0,0.30927825000000553
12214,54.0,0.30927825000000553,57.0,0.2970297500000072
12215,45.0,0.2970297500000072,34.0,0.2970297499999788
12216,66.0,0.1485148749999894,66.0,0.1485148749999894
12217,66.0,0.1485148749999894,65.0,0.2970297500000072
12218,64.0,0.1980198333333476,61.0,0.2053929166666535
12219,33.0,0.09900991666665959,34.0,0.3191490000000101
12220,62.0,0.1063829999999939,61.0,0.21276600000001622
12221,61.0,0.21276600000001622,68.0,0.3191489999999817
12222,61.0,0.2127659999999878,58.0,0.1063829999999939
12223,44.0,0.1063829999999939,35.0,0.302040833333308
12224,61.0,0.09999999999999432,60.0,0.09999999999999432
12225,61.0,0.20204083333331369,62.0,0.30876329166667915
12226,61.0,0.20513358333334963,63.0,0.10362970833332952
12227,44.0,0.10362970833332952,39.0,0.3152529166666511
12228,61.0,0.10416666666665719,66.0,0.10526316666667412
12229,61.0,0.21108624999999392,68.0,0.32499487499998736
12230,61.0,0.21449429166665368,70.0,0.11050058333333368
12231,32.0,0.11050058333333368,42.0,0.3469560833333105
12232,61.0,0.11299795833332382,71.0,0.11561079166665422
12233,61.0,0.2339581249999867,67.0,0.6382979999999918
12234,45.0,0.3191490000000101,28.0,0.3191489999999817
12235,62.0,0.3191489999999817,61.0,0.882520999999997
12236,45.0,0.2970297500000072,28.0,0.2970297499999788
12237,42.0,0.2970297499999788,28.0,0.28846150000001103
12238,57.0,0.28846150000001103,65.0,0.3191490000000101
12239,57.0,0.15957449999999085,59.0,0.15957450000001927
12240,61.0,0.15957450000001927,66.0,0.30927825000000553
12241,47.0,0.30927825000000553,30.0,0.30927825000000553
12242,59.0,0.15463912499998855,60.0,0.15463912500001697
12243,59.0,0.15463912500001697,58.0,0.3419739166666602
12244,57.0,0.06024095833333831,52.0,0.06024095833333831
12245,56.0,0.06024095833333831,57.0,0.1204819166666482
12246,57.0,0.1204819166666482,59.0,0.20202016666667078
12247,47.0,0.10101008333333539,31.0,0.30303025000000616
12248,59.0,0.10101008333333539,60.0,0.20202016666667078
12249,59.0,0.20202016666667078,61.0,0.3165007499999888
12250,61.0,0.20984312499999191,63.0,0.21488270833333445
12251,32.0,0.10665762499999687,31.0,0.32467525000001274
12252,56.0,0.21645016666667516,65.0,0.10822508333333758
12253,59.0,0.10822508333333758,62.0,0.6305839999999989
12254,45.0,0.3213057499999934,34.0,0.30927825000000553
12255,54.0,0.30927825000000553,57.0,0.2970297500000072
12256,45.0,0.2970297500000072,34.0,0.2970297499999788
12257,69.0,0.2970297499999788,71.0,0.9046402500000283
12258,33.0,0.2970297500000072,34.0,0.3191490000000101
12259,21.0,0.3191490000000101,65.0,0.28846150000001103
12260,68.0,0.28846150000001103,73.0,0.2986394583333265
12261,66.0,0.2986394583333265,67.0,0.28847933333332776
12262,64.0,0.19139191666667443,68.0,0.09708741666665333
12263,42.0,0.09708741666665333,44.0,0.29704916666665326
12264,63.0,0.09803924999999936,70.0,0.09900991666665959
12265,61.0,0.1990099166666539,71.0,0.3142366666666305
12266,59.0,0.20728170833331205,72.0,0.10695495833331847
12267,30.0,0.10695495833331847,48.0,0.34001391666666336
12268,57.0,0.10929287499999418,73.0,0.11237370833333671
12269,56.0,0.23072104166666918,72.0,0.6305839999999989
12270,40.0,0.3213057499999934,44.0,0.30927825000000553
12271,57.0,0.30927825000000553,76.0,0.594059499999986
12272,40.0,0.2970297500000072,44.0,0.2970297499999788
12273,56.0,0.2970297499999788,74.0,0.6161787500000173
12274,23.0,0.2970297500000072,44.0,0.3191490000000101
12275,54.0,0.3191490000000101,73.0,0.5970297500000186
12276,40.0,0.2970297500000072,48.0,0.30000000000001137
12277,52.0,0.30000000000001137,71.0,0.5999999999999943
12278,40.0,0.29999999999998295,48.0,0.30000000000001137
12279,44.0,0.30000000000001137,71.0,0.6403236666666317
12280,25.0,0.3142366666666305,49.0,0.3260870000000011
12281,47.0,0.3260870000000011,77.0,1.8720314999999914
12282,35.0,0.3125,51.0,0.3125
12283,28.0,0.3125,51.0,0.30000000000001137
12284,35.0,0.30000000000001137,51.0,0.29999999999998295
12285,28.0,0.29999999999998295,51.0,0.30612249999998653
12286,20.0,0.30612249999998653,52.0,0.34090900000001056
12287,49.0,0.34090900000001056,78.0,1.9283183333332943
12288,37.0,0.3191490000000101,51.0,0.3191489999999817
12289,28.0,0.3191489999999817,52.0,0.30303025000000616
12290,37.0,0.30303025000000616,54.0,0.3214492500000006
12291,30.0,0.3214492500000006,55.0,0.32908633333332205
12292,21.0,0.32908633333332205,56.0,0.3364544999999737
12293,42.0,0.3364544999999737,78.0,1.9294405083333288
12294,40.0,0.322580749999986,51.0,0.3225807500000144
12295,30.0,0.3225807500000144,51.0,0.31578949999999395
12296,40.0,0.31578949999999395,51.0,0.31578949999999395
12297,47.0,0.10526316666667412,61.0,0.10526316666667412
12298,52.0,0.10526316666667412,63.0,0.1052631666666457
12299,54.0,0.1052631666666457,65.0,0.3135334499999942
12300,59.0,0.10526316666667412,67.0,0.10526316666667412
12301,64.0,0.10526316666667412,68.0,0.10300711666664597
12302,66.0,0.10300711666664597,70.0,0.3391665583333463
12303,71.0,0.10708161666667593,72.0,0.1131401083333401
12304,76.0,0.1131401083333401,73.0,0.11894483333333028
12305,78.0,0.11894483333333028,92.0,1.100732333333326
12306,40.0,0.3296702499999924,51.0,0.3296702500000208
12307,30.0,0.3296702500000208,52.0,0.3302807499999858
12308,40.0,0.3302807499999858,54.0,0.33712170833331356
12309,76.0,0.11111108333332709,78.0,0.11235958333332974
12310,71.0,0.11235958333332974,76.0,0.11365104166665674
12311,66.0,0.11365104166665674,74.0,0.36169087499999364
12312,64.0,0.1169630833333315,72.0,0.12049941666666086
12313,59.0,0.12049941666666086,69.0,0.12422837500000128
12314,54.0,0.12422837500000128,67.0,0.39769437499998617
12315,52.0,0.12822620833333076,65.0,0.13245612500000448
12316,47.0,0.13245612500000448,63.0,0.13701204166665093
12317,42.0,0.13701204166665093,78.0,1.9783327499999643
12318,40.0,0.3370787499999892,51.0,0.33707875000001764
12319,30.0,0.33707875000001764,51.0,0.322580749999986
12320,40.0,0.322580749999986,51.0,0.3203636666666796
12321,33.0,0.3203636666666796,51.0,0.3215109999999868
12322,30.0,0.3215109999999868,52.0,0.33971983333330513
12323,47.0,0.33971983333330513,78.0,2.266878191666592
12324,39.0,0.34090900000001056,51.0,0.34090899999998214
12325,30.0,0.34090899999998214,52.0,0.34482750000000806
12326,42.0,0.34482750000000806,72.0,0.35145883333331085
12327,44.0,0.35145883333331085,78.0,0.40289641666663556
12328,42.0,0.2649587916666576,75.0,0.27978874999996606
12329,23.0,0.13793762499997797,56.0,0.4858774416666449
12330,40.0,0.1418511249999881,75.0,0.34402631666665684
12331,40.0,0.34402631666665684,78.0,1.2426202916666398
12332,44.0,0.332153041666686,26.0,0.3164077499999678
12333,35.0,0.3164077499999678,26.0,0.2970297500000072
12334,44.0,0.2970297500000072,26.0,0.2970297499999788
12335,40.0,0.2970297499999788,26.0,0.2970297500000072
12336,32.0,0.2970297500000072,26.0,0.3333332500000097
12337,64.0,0.3333332500000097,62.0,0.6185565000000111
12338,43.0,0.30927825000000553,26.0,0.30927825000000553
12339,58.0,0.30927825000000553,55.0,1.2285163333333458
12340,43.0,0.2970297500000072,26.0,0.2970297499999788
12341,40.0,0.2970297499999788,26.0,0.3011235833333501
12342,34.0,0.3011235833333501,26.0,0.3333332500000097
12343,63.0,0.3333332500000097,62.0,0.6185565000000111
12344,42.0,0.30927825000000553,26.0,0.30927825000000553
12345,57.0,0.30927825000000553,55.0,1.2285163333333458
12346,42.0,0.2970297500000072,26.0,0.2970297499999788
12347,39.0,0.2970297499999788,26.0,0.3011235833333501
12348,33.0,0.3011235833333501,26.0,0.3333332500000097
12349,62.0,0.3333332500000097,62.0,1.8470728333333568
12350,41.0,0.30927825000000553,26.0,0.30927825000000553
12351,56.0,0.30927825000000553,54.0,1.2285163333333458
12352,41.0,0.2970297500000072,25.0,0.2970297499999788
12353,38.0,0.2970297499999788,25.0,0.3011235833333501
12354,57.0,0.3509408333333113,40.0,0.3573796666667022
12355,56.0,0.3573796666667022,38.0,0.36273766666670326
12356,54.0,0.36273766666670326,38.0,0.7363770000000045
12357,56.0,0.36818849999997383,36.0,0.36818850000003067
12358,52.0,0.36818850000003067,39.0,4.38028149999991
12359,40.0,0.36818849999997383,18.0,0.36818850000003067
12360,28.0,0.36818850000003067,18.0,0.3521952500000225
12361,40.0,0.3521952500000225,18.0,0.35219524999996565
12362,32.0,0.35219524999996565,18.0,0.3521952500000225
12363,23.0,0.3521952500000225,18.0,0.3509408333333681
12364,16.0,0.3509408333333681,22.0,0.3509408333333113
12365,40.0,0.3509408333333113,18.0,0.3573796666667022
12366,28.0,0.3573796666667022,18.0,0.36409283333335907
12367,40.0,0.36409283333335907,18.0,0.36750337499995567
12368,32.0,0.36750337499995567,18.0,0.38070549999991954
12369,23.0,0.38070549999991954,18.0,0.415755708333279
12370,56.0,0.415755708333279,37.0,0.4481213750000279
12371,57.0,0.38059437499998694,37.0,0.3376350000000343
12372,40.0,0.06752700000004097,18.0,0.4501799999999889
12373,59.0,0.3151259999999638,37.0,0.3376350000000343
12374,28.0,0.1350540000000251,18.0,0.4501799999999889
12375,61.0,0.2475989999999797,36.0,0.3376350000000343
12376,40.0,0.20258100000000923,18.0,0.4501799999999889
12377,63.0,0.18007199999999557,36.0,0.3376350000000343
12378,32.0,0.27010799999999335,18.0,0.4501799999999889
12379,64.0,0.11254500000001144,35.0,0.3376349999999775
12380,23.0,0.3376349999999775,18.0,0.45018000000004577
12381,66.0,0.045018000000027314,35.0,0.3376349999999775
12382,68.0,0.40516200000001845,34.0,0.45223441666666986
12383,69.0,0.3837829291666708,34.0,0.3440227041666617
12384,40.0,0.06845148749999908,18.0,0.4618676666666488
12385,71.0,0.32186751666665714,33.0,0.3510232499999688
12386,28.0,0.14000014999999166,18.0,0.48038404166663895
12387,73.0,0.2590334999999868,33.0,0.37434005833330275
12388,40.0,0.22135054166665213,18.0,0.527369333333354
12389,75.0,0.20497949166667695,32.0,0.4062199291666957
12390,32.0,0.32238984166667706,18.0,0.5976243750000094
12391,76.0,0.14136985416666903,32.0,0.4562545208333404
12392,23.0,0.4562545208333404,18.0,0.7092070833332969
12393,78.0,0.06613757500002748,32.0,0.52726920833328
12394,80.0,0.6430695083332694,36.0,2.7517164999999864
12395,56.0,4.1310269999999605,36.0,3.4722224999999867
12396,52.0,3.4722224999999867,33.0,8.750607000000002
12397,56.0,0.0,52.0,1.800532
12398,32.0,0.35502949999999994,40.0,0.29646616666666664
12399,34.0,0.29646616666666664,40.0,0.2845812500000001
12400,36.0,0.2845812500000001,41.0,0.27896408333333333
12401,37.0,0.27896408333333333,44.0,0.2884614999999999
12402,39.0,0.2884614999999999,45.0,0.29702950000000006
12403,53.0,0.29702950000000006,52.0,1.0855346666666668
12404,41.0,0.33333350000000017,36.0,0.28557466666666675
12405,34.0,0.28557466666666675,44.0,0.2811321666666666
12406,36.0,0.2811321666666666,47.0,0.27824150000000003
12407,56.0,0.1854943333333332,53.0,0.11678562500000034
12408,54.0,0.09274716666666682,59.0,0.6025974999999999
12409,25.0,0.2884614999999999,40.0,0.31413599999999997
12410,53.0,0.31413599999999997,55.0,1.7459862499999996
12411,34.0,0.3045684999999998,39.0,0.2886058333333339
12412,36.0,0.2886058333333339,40.0,0.28407833333333254
12413,38.0,0.28407833333333254,39.0,0.27896408333333333
12414,39.0,0.27896408333333333,44.0,0.2912619999999997
12415,41.0,0.2912619999999997,47.0,0.29850750000000037
12416,46.0,0.29850750000000037,52.0,1.1703159999999997
12417,42.0,0.31578950000000017,41.0,0.28784099999999935
12418,36.0,0.28784099999999935,44.0,0.28482125000000025
12419,38.0,0.28482125000000025,47.0,0.2818642499999999
12420,39.0,0.2818642499999999,50.0,0.2789547500000005
12421,42.0,0.2789547500000005,52.0,0.2948694999999999
12422,48.0,0.2948694999999999,57.0,0.6067395000000007
12423,45.0,0.31914900000000035,42.0,0.2875905000000003
12424,54.0,0.2875905000000003,58.0,0.5637454999999996
12425,39.0,0.28382591666666634,39.0,0.2799195833333332
12426,54.0,0.2799195833333332,56.0,0.5868845
12427,37.0,0.2898549999999993,37.0,0.2970295000000007
12428,54.0,0.2970295000000007,58.0,0.5469916250000004
12429,42.0,0.30927849999999957,41.0,0.31835825000000106
12430,54.0,0.15706800000000065,49.0,0.0806451250000002
12431,56.0,0.053763416666667396,51.0,0.08064512499999843
12432,54.0,0.05376341666666562,54.0,0.07757295833333444
12433,53.0,0.053763416666667396,55.0,0.5681371666666681
12434,34.0,0.28548875000000073,39.0,0.2826484166666674
12435,54.0,0.2826484166666674,56.0,0.589969
12436,32.0,0.28846150000000037,36.0,0.3015074999999996
12437,58.0,0.3015074999999996,57.0,1.5932269999999988
12438,32.0,0.31933558333333245,41.0,0.28309516666666745
12439,34.0,0.28309516666666745,41.0,0.2777780000000014
12440,36.0,0.2777780000000014,36.0,0.27266449999999764
12441,37.0,0.27266449999999764,41.0,0.2857144999999992
12442,39.0,0.2857144999999992,36.0,0.30927849999999957
12443,56.0,0.15463925000000067,48.0,0.1546392499999989
12444,53.0,0.1546392499999989,52.0,1.1820396666666664
12445,41.0,0.3351954999999993,36.0,0.28301899999999947
12446,34.0,0.28301899999999947,41.0,0.28235450000000206
12447,36.0,0.28235450000000206,36.0,0.28147066666666554
12448,37.0,0.28147066666666554,41.0,0.28113600000000005
12449,39.0,0.28113600000000005,37.0,0.3076924999999999
12450,61.0,0.3076924999999999,70.0,1.7562784166666674
12451,41.0,0.31914899999999946,42.0,0.2855746666666672
12452,43.0,0.2855746666666672,42.0,0.28064975000000025
12453,45.0,0.28064975000000025,43.0,0.27613100000000124
12454,46.0,0.27613100000000124,46.0,0.2870814999999993
12455,48.0,0.2870814999999993,48.0,0.3076924999999999
12456,49.0,0.3076924999999999,61.0,1.6097851666666667
12457,37.0,0.3278690000000015,40.0,0.2855746666666654
12458,39.0,0.2855746666666654,40.0,0.2806497499999985
12459,41.0,0.2806497499999985,41.0,0.27613099999999946
12460,42.0,0.27613099999999946,44.0,0.285714500000001
12461,44.0,0.285714500000001,48.0,0.3214439999999996
12462,49.0,0.15384625000000085,54.0,0.16759774999999877
12463,58.0,0.16759774999999877,66.0,1.7513604166666639
12464,34.0,0.32786899999999974,40.0,0.2855746666666654
12465,36.0,0.2855746666666654,40.0,0.2806497499999985
12466,38.0,0.2806497499999985,41.0,0.27613099999999946
12467,39.0,0.27613099999999946,44.0,0.28113600000000005
12468,41.0,0.28113600000000005,46.0,0.3000000000000007
12469,46.0,0.3000000000000007,60.0,0.30456849999999847
12470,46.0,0.30456849999999847,49.0,0.32058187499999846
12471,48.0,0.0625,49.0,0.0625
12472,46.0,0.0625,49.0,0.0625
12473,45.0,0.0625,49.0,0.06411637500000111
12474,46.0,0.06411637500000111,51.0,0.06896549999999735
12475,54.0,0.06896549999999735,57.0,0.576728499999998
12476,38.0,0.2903262499999997,41.0,0.2864022499999983
12477,51.0,0.2864022499999983,55.0,0.6032590000000013
12478,42.0,0.2955664999999996,45.0,0.3076925000000017
12479,48.0,0.3076925000000017,55.0,0.3370785000000005
12480,65.0,0.3370785000000005,63.0,0.28407833333333343
12481,58.0,0.28407833333333343,60.0,0.2792087499999987
12482,60.0,0.2792087499999987,58.0,0.2747317500000044
12483,61.0,0.2747317500000044,55.0,0.2768295000000016
12484,56.0,0.2768295000000016,52.0,0.2917154999999987
12485,59.0,0.2917154999999987,60.0,0.29171550000000224
12486,57.0,0.29171550000000224,58.0,0.28407833333333343
12487,51.0,0.28407833333333343,57.0,0.2796818333333313
12488,53.0,0.2796818333333313,55.0,0.2754278333333353
12489,54.0,0.2754278333333353,54.0,0.2825924999999998
12490,49.0,0.2825924999999998,52.0,0.3208555000000004
12491,25.0,0.3208555000000004,50.0,0.30927850000000134
12492,53.0,0.30927850000000134,55.0,0.2886058333333317
12493,46.0,0.2886058333333317,54.0,0.28407833333333343
12494,48.0,0.28407833333333343,52.0,0.28113600000000005
12495,49.0,0.28113600000000005,50.0,0.29268300000000025
12496,44.0,0.29268300000000025,47.0,0.3108809999999984
12497,37.0,0.3108809999999984,51.0,0.2916399166666679
12498,41.0,0.2916399166666679,44.0,0.2907929999999972
12499,34.0,0.2907929999999972,41.0,0.28915824999999984
12500,36.0,0.28915824999999984,38.0,0.2875415000000032
12501,37.0,0.2875415000000032,36.0,0.29268300000000025
12502,25.0,0.29268300000000025,32.0,0.31746049999999926
12503,61.0,0.31746049999999926,90.0,1.7636734999999994
12504,37.0,0.30865216666666484,49.0,0.2938584999999989
12505,40.0,0.2938584999999989,53.0,0.28782500000000155
12506,42.0,0.28782500000000155,48.0,0.2919710000000002
12507,40.0,0.2919710000000002,55.0,0.28615050000000153
12508,37.0,0.28615050000000153,50.0,0.2952163333333324
12509,57.0,0.2952163333333324,84.0,1.1537529999999983
12510,42.0,0.2907259999999994,49.0,0.2907259999999994
12511,40.0,0.2907259999999994,53.0,0.28615050000000153
12512,37.0,0.28615050000000153,48.0,0.286150499999998
12513,62.0,0.286150499999998,78.0,0.5894849999999998
12514,42.0,0.28918450000000107,50.0,0.30030049999999875
12515,61.0,0.30030049999999875,84.0,1.7266704999999938
12516,37.0,0.28918450000000107,49.0,0.2891844999999975
12517,40.0,0.2891844999999975,53.0,0.286150499999998
12518,42.0,0.286150499999998,48.0,0.29197099999999665
12519,40.0,0.29197099999999665,55.0,0.28508999999999673
12520,37.0,0.28508999999999673,50.0,0.28509000000000384
12521,57.0,0.28509000000000384,80.0,1.7432620000000014
12522,42.0,0.29225499999999727,49.0,0.2922550000000044
12523,40.0,0.2922550000000044,53.0,0.286150499999998
12524,37.0,0.286150499999998,48.0,0.2861505000000051
12525,40.0,0.2861505000000051,55.0,0.286150499999998
12526,42.0,0.286150499999998,50.0,0.30030049999999875
12527,64.0,0.30030049999999875,90.0,1.1483014999999952
12528,37.0,0.286150499999998,49.0,0.29197099999999665
12529,40.0,0.29197099999999665,53.0,0.28508999999999673
12530,42.0,0.28508999999999673,48.0,0.28509000000000384
12531,61.0,0.28509000000000384,87.0,0.6001350000000016
12532,37.0,0.2955664999999996,50.0,0.304568500000002
12533,69.0,0.304568500000002,93.0,1.1555424166666697
12534,42.0,0.286150499999998,49.0,0.2861505000000051
12535,40.0,0.2861505000000051,53.0,0.29126200000000324
12536,37.0,0.29126200000000324,48.0,0.2919794166666634
12537,64.0,0.2919794166666634,84.0,0.4666555833333348
12538,42.0,0.3062155000000075,48.0,0.32651324999999076
12539,62.0,0.16044008333332727,79.0,0.1660731666666635
12540,62.0,0.1660731666666635,79.0,0.5797099999999986
12541,37.0,0.28985500000000286,46.0,0.28985499999999575
12542,61.0,0.28985499999999575,71.0,0.5940590000000014
12543,42.0,0.2970295000000007,42.0,0.2970295000000007
12544,40.0,0.2970295000000007,44.0,0.29317058333332824
12545,37.0,0.29317058333332824,42.0,0.29055850000000305
12546,40.0,0.29055850000000305,44.0,0.28846374999999114
12547,42.0,0.28846374999999114,40.0,0.2863979999999984
12548,40.0,0.2863979999999984,44.0,0.2845857500000051
12549,37.0,0.2845857500000051,39.0,0.2843599999999995
12550,40.0,0.2843599999999995,46.0,0.2843599999999995
12551,42.0,0.2843599999999995,42.0,0.2843599999999995
12552,61.0,0.2843599999999995,51.0,1.7433954999999912
12553,40.0,0.30357716666666335,27.0,0.286150499999998
12554,45.0,0.286150499999998,29.0,0.2861505000000051
12555,42.0,0.2861505000000051,27.0,0.286150499999998
12556,43.0,0.286150499999998,30.0,0.286150499999998
12557,40.0,0.286150499999998,28.0,0.29521633333332886
12558,57.0,0.29521633333332886,48.0,1.1497290000000007
12559,42.0,0.286150499999998,27.0,0.2933985000000021
12560,43.0,0.2933985000000021,29.0,0.28508999999999673
12561,40.0,0.28508999999999673,27.0,0.28509000000000384
12562,62.0,0.28509000000000384,44.0,0.5958669999999984
12563,42.0,0.2955664999999996,28.0,0.30030049999999875
12564,61.0,0.30030049999999875,48.0,1.7260539999999978
12565,40.0,0.2907259999999994,27.0,0.2907259999999994
12566,45.0,0.2907259999999994,29.0,0.286150499999998
12567,42.0,0.286150499999998,27.0,0.2861505000000051
12568,43.0,0.2861505000000051,30.0,0.286150499999998
12569,40.0,0.286150499999998,28.0,0.286150499999998
12570,57.0,0.286150499999998,46.0,1.7336919999999907
12571,42.0,0.286150499999998,27.0,0.29197099999999665
12572,43.0,0.29197099999999665,29.0,0.28508999999999673
12573,40.0,0.28508999999999673,27.0,0.28509000000000384
12574,45.0,0.28509000000000384,30.0,0.28508999999999673
12575,42.0,0.28508999999999673,28.0,0.30030049999999875
12576,64.0,0.30030049999999875,51.0,1.1629039999999975
12577,40.0,0.2907259999999994,27.0,0.2907259999999994
12578,45.0,0.2907259999999994,29.0,0.2907259999999994
12579,42.0,0.2907259999999994,27.0,0.2907259999999994
12580,61.0,0.2907259999999994,49.0,0.6073489999999993
12581,40.0,0.3036744999999996,28.0,0.3036744999999996
12582,69.0,0.3036744999999996,52.0,1.1882349999999988
12583,42.0,0.2941174999999987,27.0,0.2941174999999987
12584,43.0,0.2941174999999987,29.0,0.29999999999999716
12585,40.0,0.29999999999999716,27.0,0.30000000000000426
12586,64.0,0.30000000000000426,48.0,0.46946341666667024
12587,42.0,0.30931400000000764,28.0,0.32499791666666056
12588,62.0,0.1601494166666626,46.0,0.16484849999999796
12589,62.0,0.16484849999999796,46.0,0.6091369999999969
12590,40.0,0.304568500000002,27.0,0.3045684999999949
12591,61.0,0.3045684999999949,44.0,0.5914400833333318
12592,42.0,0.2977983333333327,27.0,0.29364174999999904
12593,43.0,0.29364174999999904,30.0,0.2903262499999997
12594,40.0,0.2903262499999997,28.0,0.2870858333333359
12595,45.0,0.2870858333333359,34.0,0.2880036666666612
12596,42.0,0.2880036666666612,33.0,0.2874422500000051
12597,43.0,0.2874422500000051,40.0,0.2870814999999993
12598,40.0,0.2870814999999993,39.0,0.2870814999999993
12599,43.0,0.2870814999999993,46.0,0.2870814999999993
12600,39.0,0.2870814999999993,45.0,0.2933793333333341
12601,56.0,0.2933793333333341,62.0,0.6079447374999987
12602,44.0,0.32892569375000136,46.0,0.2790190437499973
12603,46.0,0.2790190437499973,46.0,0.26895194166665704
12604,48.0,0.26895194166665704,48.0,0.2667347749999962
12605,49.0,0.2667347749999962,52.0,0.2870814999999993
12606,51.0,0.2870814999999993,50.0,0.2985074999999995
12607,53.0,0.2985074999999995,60.0,0.3260870000000011
12608,44.0,0.3260870000000011,49.0,0.2752060458333361
12609,46.0,0.2752060458333361,49.0,0.2652198437500033
12610,48.0,0.2652198437500033,51.0,0.2687335583333308
12611,49.0,0.2687335583333308,55.0,0.2884614999999968
12612,53.0,0.2884614999999968,53.0,0.2985074999999995
12613,58.0,0.2985074999999995,64.0,0.5713438124999897
12614,46.0,0.3056574124999969,52.0,0.2656863999999928
12615,48.0,0.2656863999999928,52.0,0.2622564812499988
12616,50.0,0.2622564812499988,54.0,0.26881700000000563
12617,51.0,0.26881700000000563,58.0,0.2792930500000068
12618,53.0,0.2792930500000068,56.0,0.29999999999999716
12619,54.0,0.29999999999999716,74.0,0.5999076187500023
12620,46.0,0.319149000000003,60.0,0.2807586187499993
12621,48.0,0.2807586187499993,62.0,0.2715308854166736
12622,50.0,0.2715308854166736,63.0,0.27167164374998976
12623,51.0,0.27167164374998976,70.0,0.2884614999999968
12624,54.0,0.2884614999999968,68.0,0.2985074999999995
12625,60.0,0.2985074999999995,81.0,0.5800667479166606
12626,48.0,0.30491986250000025,66.0,0.2751468854166603
12627,50.0,0.2751468854166603,67.0,0.2682451958333303
12628,52.0,0.2682451958333303,71.0,0.26466446458333337
12629,53.0,0.26466446458333337,76.0,0.28406400000000076
12630,56.0,0.28406400000000076,74.0,0.29171549999999513
12631,61.0,0.29171549999999513,90.0,0.5844157958333369
12632,49.0,0.29812200000000644,73.0,0.2862937958333305
12633,51.0,0.2862937958333305,75.0,0.2758759791666563
12634,53.0,0.2758759791666563,76.0,0.2696272583333297
12635,54.0,0.2696272583333297,83.0,0.28406400000000076
12636,57.0,0.28406400000000076,81.0,0.31545749999999373
12637,20.0,0.31545749999999373,101.0,0.31545750000000794
12638,56.0,0.31545750000000794,84.0,0.2932839999999999
12639,66.0,0.2932839999999999,92.0,0.27881050000000585
12640,56.0,0.27881050000000585,85.0,0.28735650000000135
12641,42.0,0.4712122083333323,24.0,0.45909801666666716
12642,42.0,0.5111904166666665,31.0,0.45037529999999926
12643,50.0,0.02085070833333269,62.0,2.760639958333334
12644,42.0,0.47956629166666787,27.0,0.4131105166666664
12645,42.0,0.4585031666666666,27.0,0.3917015999999993
12646,42.0,0.43522399999999983,27.0,0.3917016000000011
12647,41.0,0.43522399999999983,27.0,0.42366239999999955
12648,41.0,0.4707360000000005,27.0,0.43324785000000077
12649,51.0,0.4813864999999993,59.0,0.9835658333333335
12650,41.0,0.4851158333333334,24.0,0.44801290000000016
12651,50.0,0.49845000000000006,64.0,2.748664999999999
12652,41.0,0.48883799999999944,27.0,0.40853384999999953
12653,41.0,0.4539264999999997,27.0,0.3802815000000006
12654,41.0,0.4225349999999999,27.0,0.3941604000000005
12655,41.0,0.4379559999999998,27.0,0.41538465
12656,41.0,0.46153849999999963,27.0,0.43548390000000126
12657,40.0,0.4838710000000006,24.0,0.43623203333333294
12658,49.0,0.010028885416666355,58.0,0.9841283750000009
12659,40.0,0.47508694791666883,24.0,0.4480128999999984
12660,39.0,0.4984499999999983,31.0,0.4575496500000007
12661,48.0,0.010591427083333826,62.0,2.747471458333333
12662,39.0,0.497797072916665,27.0,0.39994065000000134
12663,39.0,0.4443784999999991,28.0,0.39994065000000134
12664,39.0,0.4443784999999991,28.0,0.39994065000000134
12665,39.0,0.4443785000000027,31.0,0.3890488499999982
12666,39.0,0.4322765000000004,34.0,0.42681015000000144
12667,39.0,0.4742335000000004,31.0,0.4379869666666636
12668,50.0,0.010028885416666355,63.0,0.9933909166666659
12669,39.0,0.4776022812499967,32.0,0.4545127500000028
12670,39.0,0.5057597500000028,39.0,0.43324785000000077
12671,48.0,0.010028885416666355,66.0,2.677124812499997
12672,39.0,0.4713576145833329,35.0,0.40274459999999834
12673,39.0,0.44749399999999895,35.0,0.3724136999999992
12674,39.0,0.4137929999999983,34.0,0.37241370000000273
12675,39.0,0.41379300000000185,32.0,0.4144283999999985
12676,39.0,0.4604759999999999,32.0,0.4144283999999985
12677,39.0,0.4604759999999999,27.0,0.42498101666666344
12678,50.0,0.009735197916665328,67.0,0.9686945937499978
12679,39.0,0.46338446875000017,26.0,0.4441965666666654
12680,39.0,0.4946336666666653,37.0,0.4612230000000004
12681,48.0,0.010676458333332306,67.0,2.764880770833333
12682,39.0,0.5017935416666681,32.0,0.4144283999999985
12683,39.0,0.4604759999999999,32.0,0.38571435000000065
12684,39.0,0.4285715000000003,32.0,0.38571435000000065
12685,39.0,0.4285715000000003,32.0,0.4114597499999988
12686,39.0,0.45717750000000024,32.0,0.43000470000000135
12687,50.0,0.47778299999999874,66.0,0.7816749999999999
12688,39.0,0.5146635833333342,26.0,0.4860103166666647
12689,48.0,0.2670114166666657,57.0,0.2747402500000007
12690,39.0,0.2747402500000007,31.0,0.4575496500000007
12691,48.0,0.021182854166667653,62.0,2.7779106458333267
12692,39.0,0.48720564583333115,27.0,0.4236624000000013
12693,39.0,0.4707359999999987,27.0,0.39994065000000134
12694,39.0,0.4443784999999991,27.0,0.39994065000000134
12695,38.0,0.4443784999999991,27.0,0.4144283999999985
12696,38.0,0.4604759999999999,27.0,0.4236624000000013
12697,47.0,0.4707359999999987,62.0,1.95425233333334
12698,38.0,0.4876093333333351,24.0,0.44801290000000193
12699,38.0,0.4984500000000054,29.0,0.45393389999999556
12700,31.0,0.504370999999999,28.0,0.4174397999999968
12701,48.0,0.4638220000000004,65.0,0.44749399999999895
12702,50.0,0.44749399999999895,69.0,0.4382760000000019
12703,53.0,0.4382760000000019,74.0,0.4583123333333319
12704,51.0,0.4583123333333319,65.0,0.4777830000000023
12705,43.0,0.4777830000000023,68.0,0.4777829999999952
12706,48.0,0.4777829999999952,62.0,0.504370999999999
12707,45.0,0.504370999999999,62.0,2.804910166666666
12708,31.0,0.4851230000000015,27.0,0.4205605499999976
12709,30.0,0.4672894999999997,27.0,0.40564890000000275
12710,36.0,0.4507210000000015,27.0,0.40564889999999565
12711,31.0,0.4507210000000015,27.0,0.42549436666666196
12712,31.0,0.47327266666666645,27.0,0.4300046999999978
12713,48.0,0.4777829999999952,57.0,0.9978972499999941
12714,36.0,0.49012466666666654,23.0,0.45611078333332955
12715,45.0,0.5077725833333275,62.0,2.6948237499999976
12716,36.0,0.5166180000000011,27.0,0.4205605499999976
12717,36.0,0.4672894999999997,27.0,0.3999406499999978
12718,30.0,0.4443784999999991,27.0,0.3999406499999978
12719,36.0,0.4443784999999991,27.0,0.4174397999999968
12720,36.0,0.4638220000000004,27.0,0.4300046999999978
12721,50.0,0.35833724999999816,52.0,0.11944575000000413
12722,48.0,0.11944575000000413,62.0,0.9899369166666645
12723,36.0,0.48885733333332837,23.0,0.45024073333333803
12724,46.0,0.5010795833333361,62.0,0.9897750000000016
12725,45.0,0.5083885000000024,46.0,0.4813864999999993
12726,39.0,0.4813864999999993,54.0,0.45392650000000145
12727,38.0,0.45392650000000145,42.0,0.45392650000000145
12728,42.0,0.45392650000000145,64.0,0.4322765000000004
12729,45.0,0.4322765000000004,59.0,0.4604759999999999
12730,53.0,0.4604759999999999,65.0,0.3173565000000025
12731,51.0,0.3173565000000025,62.0,0.3284700000000029
12732,50.0,0.3284700000000029,57.0,0.34102558333333377
12733,50.0,0.34102558333333377,62.0,2.838952500000005
12734,43.0,0.5209240000000008,27.0,0.39170159999999754
12735,43.0,0.43522399999999806,29.0,0.39717585000000355
12736,43.0,0.44130650000000315,29.0,0.4174397999999968
12737,43.0,0.4638220000000004,31.0,0.4399542000000025
12738,43.0,0.4888380000000012,32.0,0.4399542000000025
12739,43.0,0.4888380000000012,32.0,0.4554517833333378
12740,51.0,0.020850708333334467,68.0,1.040087375000006
12741,43.0,0.4862628750000013,33.0,0.47588751666667406
12742,43.0,0.5331394166666712,35.0,0.4467977999999988
12743,50.0,0.02068508333333341,71.0,2.8188613749999902
12744,43.0,0.4757569166666684,32.0,0.4205605499999976
12745,43.0,0.4672894999999997,33.0,0.3999406499999978
12746,43.0,0.4443784999999991,35.0,0.3999406499999978
12747,42.0,0.4443784999999991,35.0,0.42681015000000144
12748,42.0,0.47423349999999687,38.0,0.4433499000000012
12749,42.0,0.4926109999999966,38.0,0.44138396666667035
12750,51.0,0.010106729166665218,74.0,1.0024299895833337
12751,42.0,0.4813189374999993,38.0,0.4590980166666654
12752,42.0,0.5111904166666648,45.0,0.42857144999999974
12753,50.0,0.009920635416669654,76.0,2.6111968645833343
12754,42.0,0.46626986458333164,40.0,0.39130424999999747
12755,41.0,0.4347824999999972,41.0,0.37762244999999695
12756,41.0,0.41958050000000213,41.0,0.3673471500000005
12757,41.0,0.40816350000000057,44.0,0.39416039999999697
12758,41.0,0.4379559999999998,45.0,0.4000000500000027
12759,51.0,0.444444500000003,77.0,0.937525083333334
12760,41.0,0.4625246666666669,41.0,0.4266133166666677
12761,50.0,0.47500041666666704,84.0,0.6431157499999998
12762,41.0,0.4347824999999972,42.0,0.392948650000001
12763,49.0,0.20833325000000258,78.0,0.2307692500000016
12764,49.0,0.2307692500000016,85.0,0.40816350000000057
12765,50.0,0.40816350000000057,70.0,0.3829787999999965
12766,49.0,0.106383000000001,73.0,0.106383000000001
12767,48.0,0.106383000000001,76.0,0.106383000000001
12768,49.0,0.106383000000001,79.0,0.1063829999999939
12769,58.0,0.1063829999999939,88.0,0.8083099999999988
12770,37.0,0.39735100000000045,52.0,0.36986310000000344
12771,57.0,0.4109589999999983,91.0,0.6030702500000018
12772,36.0,0.3947369999999992,54.0,0.3749998500000018
12773,55.0,0.20833325000000258,77.0,0.20833324999999547
12774,55.0,0.20833324999999547,89.0,0.40268449999999945
12775,54.0,0.40268449999999945,86.0,0.38461550000000244
12776,63.0,0.38461550000000244,92.0,0.3773584999999997
12777,54.0,0.3773584999999997,85.0,0.3915285416666663
12778,54.0,0.3915285416666663,88.0,0.38461549999999534
12779,55.0,0.38461549999999534,82.0,0.3947369999999992
12780,58.0,0.3947369999999992,85.0,0.3921569999999974
12781,50.0,0.3921569999999974,77.0,0.419580499999995
12782,53.0,0.419580499999995,80.0,0.40540550000000053
12783,51.0,0.40540550000000053,69.0,0.44767408333332526
12784,55.0,0.44767408333332526,77.0,0.3866407750000036
12785,43.0,0.28471550000000434,67.0,0.2941414583333284
12786,39.0,0.14598924999999952,44.0,0.40620294166664905
12787,48.0,0.14815220833332887,67.0,0.3045027499999833
12788,45.0,0.3045027499999833,73.0,1.3889150833333161
12789,38.0,0.44922812499999054,38.0,0.4084395249999915
12790,36.0,0.45459337499998753,38.0,0.4351624499999929
12791,48.0,0.4850935833333381,69.0,0.5170330416666502
12792,45.0,0.5170330416666502,64.0,2.664301541666674
12793,31.0,0.4878049999999945,27.0,0.4122139499999946
12794,38.0,0.4580155000000019,27.0,0.3970588499999934
12795,31.0,0.007352941666667334,27.0,0.3970588499999934
12796,38.0,0.4338235583333301,27.0,0.398799716666673
12797,31.0,0.4455286666666751,27.0,0.4236623999999978
12798,36.0,0.47073600000000226,27.0,0.43324785000000077
12799,50.0,0.361039875000003,47.0,0.12034662499999627
12800,48.0,0.12034662499999627,57.0,0.9899369166666787
12801,36.0,0.4888573333333426,23.0,0.4502407333333309
12802,45.0,0.5010795833333361,57.0,3.6328236666666953
12803,38.0,0.5124699999999933,27.0,0.43324785000000077
12804,38.0,0.4813864999999993,27.0,0.4205605500000047
12805,31.0,0.007788158333326578,27.0,0.4205605500000047
12806,38.0,0.4595013416666802,27.0,0.40564890000000275
12807,30.0,0.4507210000000015,27.0,0.43324785000000077
12808,30.0,0.4813864999999993,27.0,0.43349695000000565
12809,36.0,0.4820092500000044,23.0,0.44767240000001607
12810,36.0,0.4985112500000213,23.0,0.4933061499999951
12811,43.0,0.2590496666666695,52.0,0.2978023333333226
12812,43.0,0.2978023333333226,57.0,2.884273499999992
12813,34.0,0.5124699999999933,29.0,0.43324785000000077
12814,34.0,0.4813864999999993,29.0,0.4174397999999968
12815,34.0,0.4638219999999933,28.0,0.417439800000011
12816,37.0,0.4638220000000075,28.0,0.43324785000000077
12817,27.0,0.4813864999999993,28.0,0.43324785000000077
12818,45.0,0.4813864999999993,52.0,0.9899369166666787
12819,36.0,0.4888573333333426,23.0,0.4502407333333309
12820,43.0,0.5010795833333361,52.0,2.8993434166666674
12821,36.0,0.5124699999999933,27.0,0.43324785000000077
12822,35.0,0.4813864999999993,27.0,0.4236623999999978
12823,31.0,0.007845599999996011,27.0,0.4236623999999978
12824,35.0,0.46289040000000625,27.0,0.4236623999999978
12825,34.0,0.47073600000000226,27.0,0.43324785000000077
12826,34.0,0.4813864999999993,27.0,0.4337446166666723
12827,45.0,0.482628416666671,47.0,1.0910562500000083
12828,34.0,0.517046250000007,23.0,0.5134894999999915
12829,43.0,0.5740100000000012,47.0,2.100840000000005
12830,43.0,4.6426739999999995,33.0,2.1359920000000017
12831,42.0,2.1359920000000017,33.0,2.3538640000000015
12832,43.0,2.3538640000000015,33.0,5.083668000000003
12833,15.0,0.0,46.0,0.1423890395833333
12834,34.0,0.1423890395833333,36.0,0.5574006583333333
12835,39.0,0.1412995083333333,49.0,0.13836668333333335
12836,46.0,0.13836668333333335,53.0,0.2777344666666667
12837,39.0,0.13929535000000004,43.0,0.13843911666666664
12838,48.0,0.13843911666666664,43.0,0.1342281666666666
12839,14.0,0.1342281666666666,51.0,0.13666019166666665
12840,34.0,0.13666019166666665,47.0,0.5395199583333335
12841,41.0,0.13541096666666663,51.0,0.13338320000000015
12842,46.0,0.13338320000000015,59.0,0.27072579166666677
12843,41.0,0.13641115000000004,47.0,0.13431464166666673
12844,48.0,0.13431464166666673,45.0,0.1292417916666666
12845,15.0,0.1292417916666666,53.0,0.13271756666666668
12846,34.0,0.13271756666666668,56.0,0.5151515083333331
12847,39.0,0.13025601666666642,59.0,0.12792090833333347
12848,46.0,0.12792090833333347,67.0,0.25697458333333323
12849,39.0,0.12945666666666655,61.0,0.12751791666666668
12850,48.0,0.12751791666666668,65.0,0.12548737500000007
12851,19.0,0.12548737500000007,79.0,0.12779683333333347
12852,38.0,0.12779683333333347,66.0,0.5025067000000005
12853,43.0,0.12578866666666677,70.0,0.12422604166666718
12854,50.0,0.12422604166666718,75.0,0.2524919916666666
12855,43.0,0.12659495833333345,70.0,0.12589703333333313
12856,51.0,0.12589703333333313,78.0,0.12126691666666645
12857,20.0,0.12126691666666645,84.0,0.1250024583333338
12858,43.0,0.1250024583333338,79.0,0.49405944166666593
12859,48.0,0.12345916666666623,75.0,0.12195345833333304
12860,55.0,0.12195345833333304,80.0,0.24864681666666666
12861,48.0,0.12215429166666691,75.0,0.12649252499999974
12862,53.0,0.12649252499999974,80.0,0.12521904166666697
12863,21.0,0.12521904166666697,91.0,0.12779683333333347
12864,43.0,0.12779683333333347,86.0,0.516455016666665
12865,48.0,0.1263832916666665,82.0,0.12552355833333273
12866,55.0,0.12552355833333273,88.0,0.2645481666666658
12867,48.0,0.13082637499999894,82.0,0.13372179166666687
12868,53.0,0.13372179166666687,84.0,0.14558166666666672
12869,22.0,0.14558166666666672,97.0,0.1391916000000002
12870,43.0,0.1391916000000002,86.0,0.5574397083333347
12871,46.0,0.13779851666666687,82.0,0.13636737499999985
12872,55.0,0.13636737499999985,88.0,0.28327381666666795
12873,46.0,0.13829140000000084,74.0,0.1449824166666671
12874,53.0,0.1449824166666671,82.0,0.1476650666666659
12875,10.0,0.1476650666666659,58.0,0.1495517916666662
12876,38.0,0.1495517916666662,50.0,0.5757262416666649
12877,41.0,0.14379399166666573,56.0,0.13894948333333268
12878,50.0,0.13894948333333268,59.0,0.29298276666666645
12879,41.0,0.14411440833333344,50.0,0.148868358333333
12880,48.0,0.148868358333333,47.0,0.14925366666666662
12881,15.0,0.14925366666666662,51.0,0.13682993333333382
12882,34.0,0.13682993333333382,44.0,0.544374416666666
12883,39.0,0.13537096666666582,53.0,0.13386690000000012
12884,46.0,0.13386690000000012,60.0,0.27513655000000004
12885,39.0,0.13929535000000026,51.0,0.13584119999999977
12886,48.0,0.13584119999999977,45.0,0.12903233333333386
12887,14.0,0.12903233333333386,53.0,0.13422816666666648
12888,34.0,0.13422816666666648,51.0,0.5352864833333335
12889,41.0,0.13355704166666627,58.0,0.13262673333333375
12890,46.0,0.13262673333333375,61.0,0.2691027083333335
12891,41.0,0.13641114999999981,58.0,0.13269155833333368
12892,48.0,0.13269155833333368,51.0,0.12578616666666687
12893,15.0,0.12578616666666687,63.0,0.12987016666666662
12894,34.0,0.12987016666666662,60.0,0.5211174416666697
12895,39.0,0.12987016666666662,64.0,0.12984487500000164
12896,46.0,0.12984487500000164,72.0,0.2614024000000015
12897,39.0,0.1322268166666678,66.0,0.12917558333333368
12898,48.0,0.12917558333333368,62.0,0.12614124999999987
12899,19.0,0.12614124999999987,79.0,0.12820516666666748
12900,31.0,0.12820516666666748,66.0,0.5183957666666679
12901,43.0,0.12800099999999937,70.0,0.12902670000000072
12902,50.0,0.12902670000000072,75.0,0.2613680666666678
12903,43.0,0.13234672500000144,70.0,0.12902134166666634
12904,51.0,0.12902134166666634,69.0,0.12121216666666612
12905,20.0,0.12121216666666612,84.0,0.12820516666666748
12906,27.0,0.12820516666666748,69.0,0.513104874999998
12907,44.0,0.1275926666666649,75.0,0.12698541666666507
12908,52.0,0.12698541666666507,80.0,0.25852679166666803
12909,44.0,0.12862404166666863,75.0,0.1299027499999994
12910,53.0,0.1299027499999994,73.0,0.12783150000000099
12911,22.0,0.12783150000000099,89.0,0.12738850000000035
12912,42.0,0.12738850000000035,72.0,0.5083777416666653
12913,46.0,0.1267838749999992,78.0,0.12618424999999966
12914,54.0,0.12618424999999966,82.0,0.2554096166666664
12915,46.0,0.12820779166666796,78.0,0.12720182499999844
12916,55.0,0.12720182499999844,78.0,0.12496066249999949
12917,24.0,0.12496066249999949,91.0,0.12868078750000045
12918,46.0,0.12868078750000045,75.0,0.5105414583333356
12919,48.0,0.1276539166666666,80.0,0.12650346666666756
12920,58.0,0.12650346666666756,86.0,0.2563840750000015
12921,48.0,0.12646465833333487,75.0,0.12991941666666662
12922,56.0,0.12991941666666662,81.0,0.13135808333333365
12923,22.0,0.13135808333333365,91.0,0.12658233333333335
12924,42.0,0.12658233333333335,91.0,0.5040834874999991
12925,46.0,0.1260449208333334,82.0,0.1254520458333328
12926,54.0,0.1254520458333328,91.0,0.2525865208333329
12927,46.0,0.12606557500000015,79.0,0.12652094583333273
12928,37.0,0.3680979999999998,35.0,0.3726710000000004
12929,35.0,0.3726710000000004,32.0,0.37267099999999953
12930,52.0,0.37267099999999953,51.0,0.8141324999999995
12931,35.0,0.4031174999999996,31.0,0.4110149999999999
12932,54.0,0.4110149999999999,54.0,2.36151425
12933,35.0,0.3979834999999996,32.0,0.8155142500000006
12934,56.0,0.19899175000000024,56.0,0.2055075000000004
12935,57.0,0.2055075000000004,57.0,1.5590314999999997
12936,35.0,0.4110149999999999,35.0,0.3733789749999996
12937,35.0,0.39303050000000006,32.0,0.3653847249999993
12938,35.0,0.3846154999999998,32.0,0.7683540000000004
12939,56.0,0.37037049999999994,53.0,0.8116625000000006
12940,35.0,0.3979835000000005,29.0,0.41367900000000013
12941,56.0,0.41367900000000013,53.0,1.5623517499999995
12942,35.0,0.3902127499999999,26.0,0.3858025000000005
12943,45.0,0.3858025000000005,34.0,0.3858024999999987
12944,54.0,0.3858024999999987,49.0,0.4005340000000004
12945,52.0,0.4005340000000004,46.0,0.7087952499999997
12946,35.0,0.4005340000000004,27.0,0.4110150000000008
12947,54.0,0.30826124999999927,45.0,0.10275375000000153
12948,54.0,0.10275375000000153,51.0,0.44382491666666724
12949,56.0,0.12780646666666762,46.0,0.12605261666666578
12950,54.0,0.12605261666666578,46.0,0.12429102499999978
12951,53.0,0.12429102499999978,51.0,0.1257155000000001
12952,35.0,0.06567480833333406,31.0,0.4923039583333342
12953,54.0,0.060040691666666035,46.0,0.13235810000000114
12954,56.0,0.13235810000000114,46.0,0.14108355833333341
12955,57.0,0.14108355833333341,46.0,0.15882160833333359
12956,56.0,0.15882160833333359,49.0,0.6206894999999992
12957,35.0,0.4137930000000001,30.0,0.4165107499999987
12958,52.0,0.20689649999999915,44.0,0.20961424999999956
12959,47.0,0.20961424999999956,46.0,2.3473710000000025
12960,35.0,0.4192285000000009,21.0,0.3665123749999992
12961,35.0,0.3858025000000005,24.0,0.3598485999999994
12962,35.0,0.3787880000000001,21.0,0.3534664999999997
12963,49.0,0.3720700000000008,50.0,0.7914820000000002
12964,35.0,0.3858025000000005,28.0,0.38539552499999985
12965,51.0,0.40567949999999975,49.0,2.309043499999996
12966,35.0,0.40567949999999975,31.0,0.3642637250000007
12967,35.0,0.38343550000000093,29.0,0.36426372499999715
12968,35.0,0.3834354999999974,32.0,0.3555831000000005
12969,37.0,0.3742979999999996,35.0,0.3810974999999992
12970,35.0,0.3810974999999992,32.0,0.3810974999999992
12971,52.0,0.3810974999999992,51.0,0.8141324999999995
12972,35.0,0.40311750000000046,31.0,0.411014999999999
12973,54.0,0.411014999999999,54.0,2.349442249999999
12974,35.0,0.3979834999999987,32.0,0.8155142499999997
12975,56.0,0.19899175000000113,56.0,0.2055074999999995
12976,57.0,0.2055074999999995,57.0,1.5469594999999998
12977,35.0,0.411014999999999,35.0,0.3562499999999993
12978,35.0,0.375,32.0,0.3518519749999989
12979,35.0,0.37037049999999994,32.0,0.7885574999999996
12980,56.0,0.39057400000000086,53.0,0.8116624999999971
12981,35.0,0.3979834999999987,29.0,0.41367899999999835
12982,56.0,0.41367899999999835,53.0,1.5602875000000012
12983,35.0,0.3881484999999998,31.0,0.3858025000000005
12984,45.0,0.3858025000000005,34.0,0.3858025000000005
12985,54.0,0.3858025000000005,49.0,0.4005340000000004
12986,52.0,0.4005340000000004,46.0,0.7959995000000006
12987,35.0,0.4005340000000004,24.0,0.39546550000000025
12988,51.0,0.39546550000000025,51.0,0.4005340000000004
12989,52.0,0.4005340000000004,49.0,0.4192284999999991
12990,54.0,0.4192284999999991,54.0,0.7886825000000002
12991,35.0,0.4005340000000004,32.0,0.3881484999999998
12992,54.0,0.3881484999999998,54.0,1.5458345000000016
12993,35.0,0.3690035000000016,25.0,0.3881484999999998
12994,42.0,0.3881484999999998,30.0,0.3881484999999998
12995,35.0,0.3881484999999998,32.0,0.4005340000000004
12996,56.0,0.4005340000000004,54.0,0.793448999999999
12997,40.0,0.39546550000000025,33.0,0.3979834999999987
12998,57.0,0.3979834999999987,57.0,0.3654079999999986
12999,56.0,0.3654079999999986,53.0,0.3858025000000005
13000,54.0,0.3858025000000005,53.0,0.3930304999999983
13001,52.0,0.3930304999999983,53.0,0.4109589999999983
13002,56.0,0.4109589999999983,55.0,1.6217989166666698
13003,35.0,0.41095900000000185,32.0,0.39148891666666685
13004,44.0,0.39148891666666685,34.0,0.40268449999999945
13005,35.0,0.40268449999999945,27.0,0.4166665000000016
13006,54.0,0.4166665000000016,57.0,0.3947370000000028
13007,50.0,0.3947370000000028,51.0,0.36809800000000337
13008,49.0,0.36809800000000337,54.0,0.37429800000000313
13009,47.0,0.37429800000000313,54.0,0.374297999999996
13010,49.0,0.374297999999996,59.0,0.6745895000000033
13011,34.0,0.37429800000000313,34.0,0.4065087500000004
13012,50.0,0.1940742499999999,51.0,0.0708114999999978
13013,49.0,0.0708114999999978,51.0,0.035405750000002456
13014,47.0,0.07081150000000491,51.0,0.0708114999999978
13015,49.0,0.0708114999999978,54.0,0.5947390000000041
13016,34.0,0.39057400000000086,29.0,0.4083299999999994
13017,50.0,0.20416500000000326,47.0,0.20416499999999616
13018,47.0,0.20416499999999616,51.0,0.7961480000000023
13019,35.0,0.39303050000000184,30.0,0.40311750000000046
13020,54.0,0.40311750000000046,62.0,0.7662435000000016
13021,35.0,0.37809500000000185,31.0,0.3881484999999998
13022,52.0,0.3881484999999998,65.0,0.7668710000000019
13023,35.0,0.3834354999999974,29.0,0.3834355000000045
13024,55.0,0.3834355000000045,59.0,0.7865529999999978
13025,35.0,0.3834354999999974,34.0,0.40311750000000046
13026,54.0,0.40311750000000046,63.0,0.8062350000000009
13027,35.0,0.40311750000000046,37.0,0.40311750000000046
13028,54.0,0.40311750000000046,56.0,1.5261015000000029
13029,35.0,0.40311750000000046,39.0,0.3598485999999994
13030,35.0,0.3787880000000001,43.0,0.3598485999999994
13031,35.0,0.3787880000000001,40.0,0.3471376000000035
13032,56.0,0.3654080000000022,57.0,0.8144190000000009
13033,35.0,0.39798350000000227,44.0,0.4164354999999986
13034,57.0,0.4164354999999986,63.0,0.3654080000000022
13035,56.0,0.3654080000000022,54.0,0.3834354999999974
13036,54.0,0.3834354999999974,54.0,0.4005340000000004
13037,52.0,0.4005340000000004,54.0,0.41922850000000267
13038,56.0,0.41922850000000267,51.0,1.9518215000000012
13039,32.0,0.405679499999998,36.0,0.38580249999999694
13040,44.0,0.38580249999999694,36.0,0.38580250000000404
13041,32.0,0.38580250000000404,31.0,0.39798350000000227
13042,20.0,0.39798350000000227,43.0,0.3765535
13043,52.0,0.3765535,54.0,0.3834354999999974
13044,51.0,0.3834354999999974,54.0,0.39303050000000184
13045,49.0,0.39303050000000184,54.0,0.39303049999999473
13046,51.0,0.39303049999999473,59.0,0.6979586250000054
13047,32.0,0.39303050000000184,33.0,0.4133410000000026
13048,52.0,0.19651525000000447,52.0,0.07227524999999702
13049,51.0,0.07227524999999702,52.0,0.03613762500000206
13050,49.0,0.07227525000000412,53.0,0.07227524999999702
13051,51.0,0.07227524999999702,55.0,0.4005340000000004
13052,52.0,0.4005340000000004,51.0,0.4005340000000004
13053,49.0,0.4005340000000004,51.0,0.7987099999999998
13054,32.0,0.39303050000000184,37.0,0.405679499999998
13055,56.0,0.405679499999998,59.0,0.7621949999999984
13056,32.0,0.38109750000000275,39.0,0.38109749999999565
13057,54.0,0.38109749999999565,59.0,0.7876446666666652
13058,32.0,0.38580249999999694,37.0,0.4018421666666683
13059,57.0,0.4018421666666683,63.0,0.8091445000000022
13060,32.0,0.39546550000000025,36.0,0.4136790000000019
13061,56.0,0.4136790000000019,57.0,0.3720700000000008
13062,52.0,0.3720700000000008,53.0,0.38109750000000275
13063,51.0,0.38109750000000275,53.0,0.3834354999999974
13064,49.0,0.3834354999999974,53.0,0.405679499999998
13065,51.0,0.405679499999998,59.0,0.6919481249999961
13066,32.0,0.38580249999999694,37.0,0.4145584999999983
13067,52.0,0.19773275000000012,55.0,0.07227524999999702
13068,51.0,0.07227524999999702,55.0,0.03613762500000206
13069,49.0,0.07227525000000412,55.0,0.07227524999999702
13070,51.0,0.07227524999999702,55.0,0.5931982500000004
13071,32.0,0.39546550000000025,39.0,0.39546550000000025
13072,52.0,0.19773275000000012,51.0,0.19773275000000012
13073,49.0,0.19773275000000012,51.0,0.7912660000000002
13074,32.0,0.3881484999999998,37.0,0.40311750000000046
13075,54.0,0.40311750000000046,62.0,0.7762969999999996
13076,32.0,0.3881484999999998,39.0,0.3881484999999998
13077,56.0,0.3881484999999998,65.0,0.8037954999999997
13078,32.0,0.39546550000000025,43.0,0.4083299999999994
13079,54.0,0.4083299999999994,62.0,0.8089985000000013
13080,32.0,0.39798350000000227,43.0,0.411014999999999
13081,56.0,0.411014999999999,66.0,2.474957250000017
13082,32.0,0.4005340000000004,39.0,0.4004450000000048
13083,32.0,0.4004450000000048,39.0,0.4022431666666719
13084,32.0,0.4022431666666719,39.0,0.4077100833333347
13085,44.0,0.4077100833333347,43.0,0.41958050000000213
13086,33.0,0.41958050000000213,36.0,0.9059830000000062
13087,54.0,0.444444500000003,51.0,0.9850985000000065
13088,35.0,0.4615385000000032,27.0,0.5235600000000034
13089,56.0,0.5235600000000034,49.0,0.6046762499999971
13090,35.0,0.40311750000000046,30.0,0.411172999999998
13091,52.0,0.20155874999999668,45.0,0.20961425000000133
13092,47.0,0.20961425000000133,49.0,1.5490514999999903
13093,35.0,0.41922849999999556,23.0,0.3881484999999998
13094,35.0,0.3881484999999998,23.0,0.36900349999999804
13095,35.0,0.36900349999999804,19.0,0.37267099999999687
13096,49.0,0.37267099999999687,49.0,0.7914819999999949
13097,35.0,0.38580249999999694,28.0,0.405679499999998
13098,51.0,0.405679499999998,49.0,2.309069000000008
13099,35.0,0.4056795000000051,26.0,0.3881484999999998
13100,35.0,0.3881484999999998,28.0,0.38109749999999565
13101,35.0,0.38109749999999565,32.0,0.38109750000000986
13102,37.0,0.38109750000000986,35.0,0.3728179999999952
13103,35.0,0.3728179999999952,32.0,0.38022800000000245
13104,52.0,0.38022800000000245,51.0,0.8141324999999995
13105,35.0,0.40311749999999336,29.0,0.4110150000000061
13106,54.0,0.4110150000000061,54.0,2.385526249999998
13107,35.0,0.39798349999999516,32.0,0.8155142500000068
13108,56.0,0.19899175000000469,56.0,0.20550749999999596
13109,57.0,0.20550749999999596,57.0,1.5830435000000023
13110,35.0,0.4110150000000061,35.0,0.37569222499999455
13111,35.0,0.39546550000000025,32.0,0.37569222499999455
13112,35.0,0.39546550000000025,32.0,0.7790809999999908
13113,56.0,0.38109749999999565,53.0,0.8116624999999971
13114,35.0,0.39798349999999516,29.0,0.4136790000000019
13115,56.0,0.4136790000000019,53.0,1.1482489999999927
13116,35.0,0.3881484999999998,31.0,0.38580249999999694
13117,39.0,0.38580249999999694,40.0,0.374297999999996
13118,54.0,0.374297999999996,49.0,0.4005339999999933
13119,52.0,0.4005339999999933,46.0,0.8147285000000011
13120,35.0,0.4005340000000075,27.0,0.4141944999999936
13121,53.0,0.4141944999999936,51.0,0.44284970833332693
13122,54.0,0.12689063333333195,50.0,0.12563453333332575
13123,55.0,0.12563453333332575,52.0,0.12436276666666402
13124,56.0,0.12436276666666402,56.0,0.12583159166666746
13125,35.0,0.06596177500000522,31.0,0.4796958749999902
13126,59.0,0.059869816666662246,54.0,0.13102776666666216
13127,58.0,0.13102776666666216,53.0,0.13686189166666907
13128,57.0,0.13686189166666907,52.0,0.15193639999999675
13129,56.0,0.15193639999999675,49.0,0.6206894999999975
13130,35.0,0.4137929999999983,30.0,0.4165107500000005
13131,52.0,0.20689649999999915,44.0,0.20961425000000133
13132,47.0,0.20961425000000133,46.0,2.354254499999996
13133,35.0,0.41922850000000267,23.0,0.36874107500000264
13134,35.0,0.3881484999999998,24.0,0.36204262500000084
13135,35.0,0.38109749999999565,21.0,0.35558310000000404
13136,49.0,0.374297999999996,48.0,0.791482000000002
13137,35.0,0.38580249999999694,28.0,0.38539552500000696
13138,51.0,0.4056795000000051,49.0,2.3045859999999863
13139,35.0,0.40567949999999087,31.0,0.36874107500000264
13140,35.0,0.3881484999999998,29.0,0.36204262500000084
13141,35.0,0.38109749999999565,32.0,0.35772582500000283
13142,37.0,0.3765535,35.0,0.3765535
13143,35.0,0.3765535,32.0,0.3765535
13144,52.0,0.3765535,51.0,0.8141324999999995
13145,35.0,0.40311749999999336,31.0,0.4110150000000061
13146,54.0,0.4110150000000061,54.0,2.4103067500000037
13147,35.0,0.39798349999999516,32.0,0.8155142500000068
13148,56.0,0.19899175000000469,56.0,0.20550749999999596
13149,57.0,0.20550749999999596,57.0,1.607824000000008
13150,35.0,0.4110150000000061,35.0,0.40311749999999336
13151,35.0,0.40311749999999336,32.0,0.40311750000000757
13152,35.0,0.40311750000000757,32.0,0.7962535000000059
13153,51.0,0.39057400000000086,46.0,0.8485495000000043
13154,35.0,0.4056795000000051,29.0,0.4428699999999992
13155,54.0,0.4428699999999992,46.0,1.5541750000000008
13156,35.0,0.4005339999999933,26.0,0.380507300000005
13157,35.0,0.4005340000000075,29.0,0.35772582500000283
13158,35.0,0.3765535,27.0,0.35772582500000283
13159,35.0,0.3765535,30.0,0.34935015000000647
13160,35.0,0.3677370000000053,27.0,0.34935014999999225
13161,35.0,0.3677369999999911,30.0,0.3598486000000065
13162,35.0,0.3787880000000001,26.0,0.36874107500000264
13163,35.0,0.3881484999999998,31.0,0.7414582916666603
13164,35.0,0.37119500000000016,30.0,0.352262566666667
13165,35.0,0.37026329166666017,31.0,0.7201034583333268
13166,35.0,0.3589639583333337,32.0,0.34292014999999765
13167,28.0,0.36113949999999306,35.0,0.72331179166666
13168,35.0,0.3611242916666555,33.0,0.34407812500001
13169,27.0,0.36218750000000455,33.0,0.7423900000000003
13170,35.0,0.37119500000000016,31.0,0.35263525000000584
13171,35.0,0.37119500000000016,39.0,0.7423900000000003
13172,35.0,0.37119500000000016,36.0,0.35263525000000584
13173,35.0,0.37119500000000016,37.0,0.7114059999999967
13174,35.0,0.35570300000000543,37.0,0.33791784999999663
13175,35.0,0.3557029999999912,45.0,0.7243749999999949
13176,35.0,0.36218750000000455,38.0,0.3440781249999958
13177,28.0,0.36218749999999034,38.0,0.7378259999999983
13178,35.0,0.36891300000000626,36.0,0.3504673499999882
13179,35.0,0.36891299999999205,49.0,0.7243749999999949
13180,35.0,0.36218750000000455,42.0,0.3440781249999958
13181,30.0,0.36218749999999034,46.0,0.7072139999999933
13182,35.0,0.3536069999999967,42.0,0.33592665000000466
13183,35.0,0.3536069999999967,49.0,0.7200289999999967
13184,35.0,0.36001450000000546,40.0,0.3420137749999981
13185,30.0,0.36001449999999124,46.0,0.7471050000000048
13186,35.0,0.3735525000000024,39.0,0.35487487499999304
13187,35.0,0.3735525000000024,49.0,3.5889624999999796
13188,35.0,0.3735524999999882,40.0,0.3482828249999983
13189,35.0,0.3666134999999997,42.0,0.3420137749999981
13190,35.0,0.36001450000000546,41.0,0.3420137749999981
13191,35.0,0.36001449999999124,42.0,0.3308010249999995
13192,35.0,0.3485524999999967,41.0,0.33727802500000337
13193,35.0,0.35502950000000055,40.0,0.33237552500000334
13194,35.0,0.3501270000000005,40.0,0.33727802500000337
13195,35.0,0.35502950000000055,44.0,0.3420137749999981
13196,35.0,0.36001450000000546,39.0,0.3420137749999981
13197,35.0,0.36001449999999124,39.0,0.7060796666666818
13198,35.0,0.35243716666667524,37.0,0.3358573499999977
13199,35.0,0.3536425000000065,41.0,0.7064807083333022
13200,35.0,0.3563048333333114,37.0,0.33259912499998734
13201,28.0,0.3501758749999908,37.0,0.7243749999999949
13202,35.0,0.36218750000000455,35.0,0.3440781249999958
13203,30.0,0.36218749999999034,41.0,0.7114059999999967
13204,35.0,0.35570300000000543,35.0,0.33791784999999663
13205,28.0,0.3557029999999912,37.0,0.7282306666666614
13206,35.0,0.3643869999999936,31.0,0.34595031666667353
13207,35.0,0.3638436666666678,38.0,0.7168742500000178
13208,35.0,0.35808491666668374,35.0,0.34056998333333866
13209,35.0,0.35878933333333407,35.0,0.7115626249999707
13210,35.0,0.3552777083333325,33.0,0.33817554166664365
13211,27.0,0.3562849166666382,39.0,0.717784916666659
13212,35.0,0.3570330833333344,40.0,0.34285848333333035
13213,35.0,0.3607518333333246,41.0,0.7200289999999967
13214,35.0,0.36001450000000546,44.0,0.3420137749999981
13215,35.0,0.35863958333331425,35.0,0.7112469999999576
13216,35.0,0.35512412500000323,33.0,0.3380200499999546
13217,27.0,0.3561228749999543,39.0,0.7174707916666989
13218,35.0,0.356877708333343,40.0,0.34270825833337426
13219,35.0,0.36059308333335593,41.0,0.7196830000000034
13220,35.0,0.3598414999999875,44.0,0.3418494250000208
13221,35.0,0.3598415000000159,46.0,0.711069000000009
13222,35.0,0.3555345000000045,48.0,0.33775777500000004
13223,35.0,0.3555345000000045,49.0,0.7329589999999939
13224,35.0,0.36647949999999696,51.0,0.3481555250000099
13225,35.0,0.36647949999999696,53.0,2.840134999999975
13226,47.0,0.34706149999999525,53.0,0.3393666000000053
13227,47.0,0.3572279999999921,55.0,0.3354521249999891
13228,47.0,0.353107499999993,56.0,0.33545212500001753
13229,47.0,0.353107499999993,57.0,0.33075254166666923
13230,47.0,0.3484079166666447,59.0,0.3399725583333577
13231,47.0,0.3581565833333684,60.0,0.34345634999999675
13232,47.0,0.36153300000000854,61.0,0.34345634999999675
13233,23.0,0.3615329999999801,62.0,0.6971268750000092
13234,47.0,0.34706149999999525,59.0,0.33309897500001284
13235,23.0,0.350065375000014,61.0,0.7089672500000006
13236,47.0,0.33932799999999474,59.0,0.3504331000000036
13237,28.0,0.36963925000000586,67.0,0.705484499999983
13238,47.0,0.3584229999999877,60.0,0.32970842500000686
13239,27.0,0.34706149999999525,62.0,0.7103109999999901
13240,47.0,0.3551554999999951,58.0,0.33739772500001664
13241,23.0,0.3551554999999951,67.0,0.6942880000000002
13242,47.0,0.3411805000000072,61.0,0.3354521249999891
13243,23.0,0.353107499999993,66.0,0.7053872500000011
13244,47.0,0.3451054999999883,61.0,0.34201135000000704
13245,42.0,0.36028175000001283,71.0,0.7060710000000086
13246,47.0,0.35502950000000055,61.0,0.33348942500001044
13247,28.0,0.351041500000008,68.0,1.4129349999999476
13248,47.0,0.3510414999999796,61.0,0.34549647500000447
13249,47.0,0.36368049999998675,74.0,0.6982129999999813
13250,47.0,0.3451054999999883,68.0,0.3354521249999891
13251,30.0,0.353107499999993,73.0,0.7027371666666511
13252,47.0,0.35124883333332946,68.0,0.33383295833334614
13253,43.0,0.35148833333332163,78.0,0.7052729166666154
13254,47.0,0.35282745833330864,68.0,0.3346876833332999
13255,30.0,0.35244545833330676,73.0,0.7262923333333333
13256,47.0,0.3513858333333246,68.0,0.3561611750000111
13257,11.0,0.18745325000000435,82.0,0.18745325000000435
13258,47.0,0.18745325000000435,79.0,2.8601753749998693
13259,47.0,0.35075012499993363,74.0,0.3340428416666157
13260,47.0,0.35159491666661324,77.0,0.33240346666661935
13261,47.0,0.34975654166663617,78.0,0.33327908333333767
13262,47.0,0.35093445833331316,79.0,0.33765884999999685
13263,47.0,0.3555202500000121,78.0,0.342267558333333
13264,47.0,0.3604515833333153,79.0,0.3484834416666729
13265,47.0,0.36699966666668615,80.0,0.35530465833335256
13266,47.0,0.37416783333335957,92.0,1.4168969999999774
13267,50.0,0.3593674999999905,83.0,0.3316269499999862
13268,50.0,0.3490810000000124,83.0,0.3316269499999862
13269,50.0,0.349080999999984,79.0,0.34139912500000946
13270,47.0,0.3593674999999905,92.0,1.417554999999993
13271,50.0,0.353107499999993,83.0,0.32970842500000686
13272,50.0,0.34706149999999525,83.0,0.32970842500000686
13273,50.0,0.34706149999999525,79.0,0.35180827499999623
13274,47.0,0.3703245000000095,92.0,1.4069989999999848
13275,50.0,0.353107499999993,83.0,0.3278502249999917
13276,50.0,0.3451054999999883,83.0,0.32785022500002015
13277,50.0,0.3451055000000167,79.0,0.34549647500000447
13278,47.0,0.36368049999998675,92.0,1.4775189999999725
13279,50.0,0.353107499999993,83.0,0.33545212500001753
13280,50.0,0.353107499999993,83.0,0.3476035749999937
13281,25.0,0.3658984999999859,88.0,0.40540550000000053
13282,47.0,0.40540550000000053,92.0,1.4027211666665664
13283,50.0,0.34706149999999525,83.0,0.3354521249999891
13284,50.0,0.353107499999993,83.0,0.33457471666662286
13285,50.0,0.3521267916666204,79.0,0.33307229999996935
13286,46.0,0.35042537499995774,92.0,1.4220393333333163
13287,50.0,0.3502612499999884,83.0,0.3336058749999893
13288,50.0,0.3512612499999648,83.0,0.3348667583333338
13289,50.0,0.35241883333335977,79.0,0.3496930999999961
13290,50.0,0.36809800000000337,88.0,1.4105894999999862
13291,47.0,0.353107499999993,63.0,0.3393666000000053
13292,47.0,0.3572279999999921,57.0,0.3279632750000019
13293,47.0,0.3452245000000005,55.0,0.33727802499998916
13294,47.0,0.35502950000000055,52.0,0.32773627499997815
13295,47.0,0.34548774999998955,50.0,0.3404553083333042
13296,47.0,0.358316708333291,48.0,0.3400925083333277
13297,47.0,0.35764458333332527,48.0,0.34147543333330077
13298,51.0,0.35923320833330763,56.0,1.4215485770833425
13299,47.0,0.3676845770833381,44.0,0.3337236000000132
13300,47.0,0.3512880000000109,44.0,0.3337235999999848
13301,47.0,0.3512879999999825,44.0,0.3337236000000132
13302,52.0,0.3512880000000109,59.0,1.4485195000000033
13303,47.0,0.35528199999998833,46.0,0.337517900000023
13304,47.0,0.35528200000001675,46.0,0.7379554999999982
13305,47.0,0.3614019999999982,46.0,0.3577258249999886
13306,54.0,0.3765535,61.0,2.089504749999975
13307,47.0,0.3614019999999982,46.0,0.3337236000000132
13308,47.0,0.3512880000000109,46.0,0.32822737500001153
13309,47.0,0.34550250000000915,46.0,0.3282273749999831
13310,47.0,0.34550249999998073,46.0,0.3233240249999767
13311,47.0,0.3405852499999753,47.0,0.3279632750000019
13312,54.0,0.3452245000000005,60.0,0.7228039999999964
13313,47.0,0.3614019999999982,48.0,0.3433319000000097
13314,55.0,0.3614019999999982,63.0,1.3979094999999973
13315,47.0,0.3614019999999982,48.0,0.32822737500001153
13316,55.0,0.34550250000000915,59.0,0.6910049999999899
13317,47.0,0.34550249999998073,48.0,0.32822737500001153
13318,52.0,0.34550250000000915,61.0,1.4582015000000013
13319,47.0,0.3593245000000138,46.0,0.3413582749999762
13320,54.0,0.3593244999999854,55.0,0.739552500000002
13321,47.0,0.3593245000000138,46.0,0.3612166000000059
13322,52.0,0.38022799999998824,59.0,2.8122765000000243
13323,47.0,0.3593245000000138,46.0,0.3337236000000132
13324,45.0,0.3512880000000109,45.0,0.3191486999999995
13325,45.0,0.33594600000000696,41.0,0.3279632750000019
13326,35.0,0.3452245000000005,51.0,0.7036474999999882
13327,47.0,0.3452245000000005,41.0,0.34050185000000965
13328,33.0,0.3584229999999877,44.0,0.7168460000000039
13329,48.0,0.35842300000001615,40.0,0.34050185000000965
13330,42.0,0.3584229999999877,56.0,1.409807760416669
13331,35.0,0.3675147604166682,39.0,0.3337236000000132
13332,35.0,0.3512880000000109,39.0,0.32822737500001153
13333,35.0,0.34550250000000915,39.0,0.3282273749999831
13334,43.0,0.34550249999998073,55.0,1.4333680000000015
13335,35.0,0.35528199999998833,38.0,0.337517900000023
13336,40.0,0.35528200000001675,55.0,0.7228039999999964
13337,35.0,0.3614019999999982,38.0,0.3433319000000097
13338,42.0,0.3614019999999982,56.0,0.7107264999999927
13339,35.0,0.3614019999999982,39.0,0.33185827500000187
13340,43.0,0.3493244999999945,55.0,2.1048140000000046
13341,35.0,0.34550250000000915,38.0,0.3282273749999831
13342,40.0,0.34550249999998073,55.0,0.6910050000000183
13343,35.0,0.34550250000000915,38.0,0.32822737500001153
13344,43.0,0.34550250000000915,55.0,0.7228039999999964
13345,35.0,0.3614019999999982,38.0,0.3433319000000097
13346,43.0,0.3614019999999982,60.0,0.708825499999989
13347,35.0,0.3614019999999982,42.0,0.3300523249999969
13348,42.0,0.3474234999999908,56.0,1.3917020000000093
13349,35.0,0.3474235000000192,39.0,0.3356098250000059
13350,45.0,0.35327350000000024,58.0,0.6910049999999899
13351,35.0,0.34550250000000915,41.0,0.3282273749999831
13352,43.0,0.34550249999998073,56.0,0.717572500000017
13353,35.0,0.34550250000000915,39.0,0.35346649999999613
13354,42.0,0.3720700000000079,56.0,2.862493999999998
13355,35.0,0.3593245000000138,39.0,0.3413582749999762
13356,35.0,0.3593244999999854,39.0,0.3356098250000059
13357,35.0,0.35327350000000024,39.0,0.3356098250000059
13358,35.0,0.35327350000000024,39.0,0.3413582750000046
13359,35.0,0.3593245000000138,39.0,0.3413582749999762
13360,35.0,0.3593244999999854,39.0,0.3413582750000046
13361,35.0,0.3593245000000138,39.0,0.3413582749999762
13362,51.0,0.3593244999999854,61.0,1.4213787604166725
13363,47.0,0.3675147604166682,53.0,0.3337236000000132
13364,47.0,0.3512880000000109,57.0,0.3337235999999848
13365,47.0,0.3512879999999825,57.0,0.3337236000000132
13366,52.0,0.3512880000000109,69.0,1.4485195000000033
13367,47.0,0.35528199999998833,58.0,0.337517900000023
13368,47.0,0.35528200000001675,59.0,0.7379554999999982
13369,47.0,0.3614019999999982,61.0,0.3577258249999886
13370,52.0,0.3765535,77.0,2.826015500000011
13371,47.0,0.3614019999999982,66.0,0.3337236000000132
13372,47.0,0.3512880000000109,68.0,0.32822737500001153
13373,47.0,0.34550250000000915,69.0,0.3282273749999831
13374,47.0,0.34550249999998073,71.0,0.32822737500001153
13375,47.0,0.34550250000000915,73.0,0.32822737500001153
13376,51.0,0.34550250000000915,81.0,0.7313154999999938
13377,47.0,0.3614019999999982,73.0,0.35141782499999863
13378,55.0,0.36991349999999557,89.0,1.3979094999999973
13379,47.0,0.3614019999999982,67.0,0.32822737500001153
13380,52.0,0.34550250000000915,82.0,0.6910049999999899
13381,47.0,0.34550249999998073,67.0,0.32822737500001153
13382,54.0,0.34550250000000915,85.0,1.450043500000021
13383,47.0,0.3593245000000138,63.0,0.3413582749999762
13384,51.0,0.3593244999999854,77.0,0.7313945000000217
13385,47.0,0.3593245000000138,63.0,0.35346649999999613
13386,52.0,0.3720700000000079,77.0,1.4016175000000146
13387,40.0,0.3593245000000138,59.0,0.3337236000000132
13388,40.0,0.3512880000000109,58.0,0.32822737500001153
13389,40.0,0.34550250000000915,58.0,0.3282273749999831
13390,52.0,0.34550249999998073,72.0,1.4372979999999984
13391,40.0,0.3593245000000138,53.0,0.3413582749999762
13392,52.0,0.3593244999999854,72.0,0.7186489999999992
13393,40.0,0.3593245000000138,53.0,0.3413582749999762
13394,47.0,0.3593244999999854,67.0,1.409807760416669
13395,35.0,0.3675147604166682,47.0,0.3337236000000132
13396,35.0,0.3512880000000109,47.0,0.32822737500001153
13397,35.0,0.34550250000000915,48.0,0.3282273749999831
13398,47.0,0.34550249999998073,68.0,1.4333680000000015
13399,35.0,0.35528199999998833,48.0,0.337517900000023
13400,49.0,0.35528200000001675,69.0,0.7228039999999964
13401,35.0,0.3614019999999982,48.0,0.3433319000000097
13402,49.0,0.3614019999999982,69.0,2.092736500000001
13403,35.0,0.3614019999999982,50.0,0.33185827500000187
13404,35.0,0.3493244999999945,48.0,0.32822737500001153
13405,35.0,0.34550250000000915,48.0,0.3282273749999831
13406,47.0,0.34550249999998073,68.0,0.6910050000000183
13407,35.0,0.34550250000000915,47.0,0.32822737500001153
13408,49.0,0.34550250000000915,67.0,0.7228039999999964
13409,35.0,0.3614019999999982,46.0,0.3433319000000097
13410,49.0,0.3614019999999982,67.0,2.092736500000001
13411,35.0,0.3614019999999982,46.0,0.33185827500000187
13412,35.0,0.3493244999999945,44.0,0.32822737500001153
13413,35.0,0.34550250000000915,42.0,0.3282273749999831
13414,47.0,0.34550249999998073,60.0,0.6910050000000183
13415,35.0,0.34550250000000915,40.0,0.32822737500001153
13416,49.0,0.34550250000000915,57.0,0.7248620000000017
13417,35.0,0.3614019999999982,39.0,0.3452870000000132
13418,49.0,0.36346000000000345,55.0,2.2932483333333664
13419,35.0,0.3655860000000075,38.0,0.34935014999999225
13420,47.0,0.3677370000000053,49.0,0.7423548333333372
13421,35.0,0.36991349999999557,34.0,0.3537264333333212
13422,35.0,0.3724413333333416,37.0,0.37012997499999756
13423,35.0,0.3896105000000034,37.0,0.427960000000013
13424,35.0,0.427960000000013,40.0,0.45385799999999676
13425,35.0,0.45385799999999676,37.0,0.49586800000000153
13426,56.0,0.49586800000000153,53.0,0.6046762500000114
13427,35.0,0.40311750000000757,30.0,0.4111729999999909
13428,52.0,0.20155875000000378,45.0,0.20961424999998712
13429,47.0,0.20961424999998712,51.0,2.3337239999999895
13430,35.0,0.41922850000000267,19.0,0.36651237500001344
13431,35.0,0.38580250000001115,23.0,0.3598485999999923
13432,35.0,0.3787879999999859,19.0,0.34050185000000965
13433,49.0,0.3584229999999877,50.0,0.791482000000002
13434,35.0,0.38580250000001115,28.0,0.38539552500000696
13435,51.0,0.40567949999999087,51.0,2.2956489999999974
13436,35.0,0.4056795000000193,26.0,0.3710452999999916
13437,35.0,0.39057399999998665,28.0,0.3471375999999964
13438,35.0,0.3654080000000022,32.0,0.3575909250000109
13439,37.0,0.376411499999989,35.0,0.3787879999999859
13440,35.0,0.3787879999999859,32.0,0.37878800000001434
13441,52.0,0.37878800000001434,51.0,0.8141324999999995
13442,35.0,0.40311750000000757,31.0,0.4110149999999919
13443,54.0,0.4110149999999919,54.0,2.3806562500000155
13444,35.0,0.39798350000000937,32.0,0.8155142500000068
13445,56.0,0.19899175000000469,56.0,0.20550750000001017
13446,57.0,0.20550750000001017,57.0,1.5781734999999912
13447,35.0,0.4110149999999919,35.0,0.3733789750000085
13448,35.0,0.39303050000000894,32.0,0.3733789749999801
13449,35.0,0.3930304999999805,32.0,0.7790810000000192
13450,56.0,0.38109750000000986,53.0,0.8116625000000113
13451,35.0,0.39798350000000937,29.0,0.4136790000000019
13452,56.0,0.4136790000000019,53.0,1.5623517499999764
13453,35.0,0.39021274999998923,31.0,0.38580250000001115
13454,45.0,0.38580250000001115,34.0,0.38580249999998273
13455,54.0,0.38580249999998273,49.0,0.4005339999999933
13456,52.0,0.4005339999999933,46.0,0.6329333749999932
13457,35.0,0.41554212500000176,31.0,0.44810754166667266
13458,53.0,0.2173912499999915,45.0,0.23071629166668117
13459,54.0,0.23071629166668117,51.0,0.48848754166667163
13460,56.0,0.09836070000000063,45.0,0.09836070000000063
13461,54.0,0.09836070000000063,46.0,0.09762764166666216
13462,53.0,0.09762764166666216,44.0,0.09736430000000951
13463,54.0,0.09736430000000951,45.0,0.0967741999999987
13464,55.0,0.0967741999999987,46.0,0.6028053749999458
13465,56.0,0.09756396666665523,51.0,0.10754198333330578
13466,59.0,0.10754198333330578,55.0,0.118834325000023
13467,58.0,0.118834325000023,53.0,0.13153305833330364
13468,57.0,0.13153305833330364,51.0,0.14733204166665814
13469,56.0,0.14733204166665814,49.0,0.6164384999999868
13470,35.0,0.4109589999999912,30.0,0.4150937499999827
13471,52.0,0.2054794999999956,44.0,0.20961424999998712
13472,47.0,0.20961424999998712,46.0,2.3473710000000096
13473,35.0,0.41922850000000267,20.0,0.36651237500001344
13474,35.0,0.38580250000001115,24.0,0.3598485999999923
13475,35.0,0.3787879999999859,21.0,0.35346649999999613
13476,49.0,0.3720700000000079,51.0,0.791482000000002
13477,35.0,0.38580250000001115,28.0,0.38539552500000696
13478,51.0,0.40567949999999087,49.0,2.30904350000003
13479,35.0,0.4056795000000193,31.0,0.3642637250000007
13480,35.0,0.38343549999999027,29.0,0.3642637250000007
13481,35.0,0.3834355000000187,33.0,0.3555830999999898
13482,37.0,0.37429800000001023,38.0,0.38109750000000986
13483,35.0,0.38109750000000986,35.0,0.38109749999998144
13484,61.0,0.38109749999998144,63.0,1.6361625000000117
13485,59.0,1.6361625000000117,55.0,0.7909310000000005
13486,57.0,0.7909310000000005,54.0,0.8010679999999866
13487,51.0,0.8010679999999866,47.0,0.8273580000000038
13488,56.0,0.8273580000000038,53.0,0.7959669999999903
13489,54.0,0.7959669999999903,50.0,0.7989772500000356
13490,52.0,0.7989772500000356,46.0,0.8162182499999915
13491,49.0,0.8162182499999915,44.0,0.8450109999999995
13492,37.0,0.8450109999999995,37.0,3.2860869999999807
13493,35.0,0.4083300000000065,29.0,0.38791349999999625
13494,35.0,0.4083300000000065,29.0,0.38791349999999625
13495,35.0,0.4083299999999781,29.0,0.38791349999999625
13496,39.0,0.4083300000000065,37.0,1.652766999999983
13497,35.0,0.4083300000000065,29.0,0.38791349999999625
13498,35.0,0.4083300000000065,29.0,0.38791349999999625
13499,35.0,0.4083299999999781,29.0,0.40638814999999795
13500,40.0,0.42777699999999186,37.0,3.288437000000016
13501,35.0,0.4083300000000065,29.0,0.38791349999999625
13502,57.0,0.14948389375000026,54.0,0.0764918124999987
13503,50.0,0.15238802083333347,55.0,0.15024004999999896
13504,59.0,0.15024004999999896,48.0,0.0743095750000009
13505,44.0,0.14813570000000098,49.0,0.1493546104166672
13506,60.0,0.1493546104166672,43.0,0.07830633749999905
13507,57.0,0.15633337916666434,45.0,0.141057
13508,45.0,0.141057,40.0,0.141057
13509,34.0,0.141057,38.0,0.13552841666666637
13510,50.0,0.13552841666666637,53.0,0.2687010000000001
13511,55.0,0.13477566666666618,49.0,0.1339253333333339
13512,48.0,0.1339253333333339,42.0,0.13308400000000198
13513,40.0,0.13308400000000198,46.0,0.12924521249999898
13514,49.0,0.12924521249999898,65.0,0.25580875624999955
13515,55.0,0.12834928958333514,57.0,0.1274594666666644
13516,48.0,0.1274594666666644,50.0,0.1264566729166674
13517,40.0,0.1264566729166674,59.0,0.12553660000000022
13518,50.0,0.12553660000000022,67.0,0.24585116458333545
13519,55.0,0.12432978750000068,67.0,0.12152137708333477
13520,48.0,0.12152137708333477,61.0,0.1188313083333341
13521,40.0,0.1188313083333341,63.0,0.1165663583333334
13522,49.0,0.1165663583333334,70.0,0.2335010000000004
13523,55.0,0.11645975000000064,64.0,0.11704124999999976
13524,48.0,0.11704124999999976,58.0,0.11714891249999937
13525,40.0,0.11714891249999937,65.0,0.11854432083333322
13526,50.0,0.11854432083333322,58.0,0.24384370833333335
13527,55.0,0.12076970833333434,61.0,0.12307399999999902
13528,48.0,0.12307399999999902,50.0,0.12547265416666775
13529,40.0,0.12547265416666775,48.0,0.12802535833333373
13530,45.0,0.12802535833333373,46.0,0.13357481249999914
13531,41.0,0.13357481249999914,49.0,0.13466933333333309
13532,36.0,0.13466933333333309,45.0,0.1324924999999979
13533,37.0,0.1324924999999979,45.0,0.13094725000000018
13534,38.0,0.13094725000000018,44.0,0.13094725000000018
13535,46.0,0.13094725000000018,47.0,0.12706474999999884
13536,45.0,0.12706474999999884,46.0,0.0986409375000008
13537,41.0,0.1315212499999987,56.0,0.13307624999999845
13538,53.0,0.13307624999999845,51.0,0.13075808333333327
13539,45.0,0.13075808333333327,51.0,0.1292547500000012
13540,48.0,0.1292547500000012,51.0,0.12925474999999764
13541,51.0,0.12925474999999764,53.0,0.12598699999999852
13542,50.0,0.12598699999999852,51.0,0.09907537500000174
13543,43.0,0.13133022499999925,58.0,0.12739651458333157
13544,48.0,0.12739651458333157,54.0,0.1261503229166685
13545,44.0,0.1261503229166685,54.0,0.12486774999999994
13546,48.0,0.12486774999999994,54.0,0.12390431666666757
13547,51.0,0.12390431666666757,59.0,0.12243899999999996
13548,50.0,0.12243899999999996,56.0,0.09951356250000032
13549,48.0,0.13136791250000002,62.0,0.12533760000000171
13550,55.0,0.12533760000000171,52.0,0.1246630645833342
13551,43.0,0.1246630645833342,60.0,0.1239882250000015
13552,48.0,0.1239882250000015,57.0,0.12320890624999947
13553,51.0,0.12320890624999947,59.0,0.12014731666666734
13554,50.0,0.12014731666666734,60.0,0.10022902499999731
13555,38.0,0.13240958749999976,66.0,0.12609237916666416
13556,43.0,0.12609237916666416,57.0,0.12505503750000102
13557,39.0,0.12505503750000102,58.0,0.12437855416666821
13558,43.0,0.12437855416666821,57.0,0.12370657916666872
13559,46.0,0.12370657916666872,64.0,0.12081849999999861
13560,45.0,0.12081849999999861,63.0,0.09735206250000061
13561,43.0,0.12901427916666464,69.0,0.12522457500000073
13562,55.0,0.12522457500000073,61.0,0.12420899374999905
13563,46.0,0.12420899374999905,64.0,0.12320947916666469
13564,50.0,0.12320947916666469,64.0,0.12747120416667101
13565,53.0,0.12747120416667101,70.0,0.12185224999999988
13566,52.0,0.12185224999999988,64.0,0.0961126874999998
13567,50.0,0.1281502500000009,77.0,0.12740435208333523
13568,45.0,0.12740435208333523,63.0,0.12427397291666509
13569,46.0,0.12427397291666509,70.0,0.12243899999999996
13570,50.0,0.12243899999999996,72.0,0.12834774999999965
13571,53.0,0.12834774999999965,76.0,0.12174582500000142
13572,52.0,0.12174582500000142,77.0,0.09651674999999926
13573,50.0,0.12893470833333254,86.0,0.12642892708333164
13574,62.0,0.12642892708333164,80.0,0.12483260208333391
13575,59.0,0.12483260208333391,82.0,0.123104041666668
13576,53.0,0.123104041666668,83.0,0.12795799999999957
13577,52.0,0.12795799999999957,92.0,0.12220690833333592
13578,50.0,0.12220690833333592,85.0,0.13210049999999995
13579,48.0,0.13210049999999995,92.0,0.1299570833333341
13580,53.0,0.1299570833333341,77.0,0.06467216666666786
13581,46.0,0.12904462500000236,86.0,0.12834774999999965
13582,55.0,0.12834774999999965,76.0,0.0641738750000016
13583,40.0,0.12834774999999965,83.0,0.12864562500000076
13584,57.0,0.12864562500000076,75.0,0.06467216666666786
13585,45.0,0.12954762500000427,91.0,0.13016324999999895
13586,53.0,0.13016324999999895,73.0,0.06487545833333286
13587,46.0,0.1296478333333333,80.0,0.12904370833333445
13588,55.0,0.12904370833333445,72.0,0.06447174999999916
13589,40.0,0.12894350000000188,78.0,0.12955049999999702
13590,57.0,0.12955049999999702,67.0,0.06548916666666571
13591,45.0,0.13289732916667063,78.0,0.13988008749999992
13592,53.0,0.13988008749999992,63.0,0.06941265416666553
13593,46.0,0.1384801895833334,72.0,0.13737166666666667
13594,55.0,0.13737166666666667,58.0,0.06818202083333347
13595,40.0,0.1360246458333343,66.0,0.13805656249999743
13596,57.0,0.13805656249999743,59.0,0.07025391875000153
13597,45.0,0.14159992708333746,65.0,0.14649275000000017
13598,53.0,0.14649275000000017,55.0,0.07235949374999961
13599,46.0,0.14419213333333403,55.0,0.14218130000000073
13600,55.0,0.14218130000000073,48.0,0.07149413749999667
13601,40.0,0.14350612291666565,50.0,0.1451681208333362
13602,57.0,0.1451681208333362,43.0,0.07332131666666442
13603,45.0,0.14702667083333054,45.0,0.13986364583333355
13604,53.0,0.13986364583333355,39.0,0.13791825000000202
13605,36.0,0.13791825000000202,37.0,0.13552841666666637
13606,49.0,0.13552841666666637,49.0,0.2687010000000001
13607,55.0,0.13477566666666618,42.0,0.1339253333333339
13608,48.0,0.1339253333333339,44.0,0.1330840000000002
13609,36.0,0.1330840000000002,41.0,0.1257924458333335
13610,46.0,0.1257924458333335,56.0,0.24943359166666923
13611,53.0,0.12505503750000102,45.0,0.062246179166667304
13612,45.0,0.12437855416666821,52.0,0.25225124583333525
13613,41.0,0.12410099583333434,50.0,0.1281502500000009
13614,49.0,0.1281502500000009,60.0,0.24634365833333405
13615,53.0,0.12390465833333408,51.0,0.12243899999999996
13616,48.0,0.12243899999999996,58.0,0.24439882083333586
13617,41.0,0.12243899999999996,57.0,0.1219598208333359
13618,46.0,0.1219598208333359,70.0,0.2432216458333336
13619,53.0,0.12185224999999988,57.0,0.060738895833331696
13620,45.0,0.12136939583333373,63.0,0.12126099999999695
13621,41.0,0.12126099999999695,69.0,0.12300487916666825
13622,49.0,0.12300487916666825,77.0,0.25323187499999733
13623,53.0,0.12566895833333191,70.0,0.06354399999999671
13624,48.0,0.12756291666666542,83.0,0.26124591666666674
13625,41.0,0.12971920833333428,91.0,0.13152670833333246
13626,53.0,0.13152670833333246,96.0,0.14417524999999998
13627,69.0,0.14417524999999998,108.0,0.13446874999999991
13628,24.0,0.6387265625000005,46.0,0.23532031250000074
13629,31.0,0.03361718749999909,51.0,0.20170312500000165
13630,40.0,0.03361718749999909,60.0,0.16808593750000256
13631,46.0,0.03361718750000264,79.0,0.2017031249999981
13632,55.0,0.03361718749999909,86.0,0.168085937499999
13633,60.0,0.03361718749999909,93.0,0.13446874999999991
13634,17.0,0.7395781250000013,58.0,0.06723437499999818
13635,57.0,0.06723437499999818,101.0,0.13446874999999991
13636,40.0,0.0,77.0,0.494537125
13637,52.0,0.083333375,53.0,0.08302637500000003
13638,28.0,0.027777791666666676,37.0,0.11034541666666667
13639,47.0,0.05524858333333335,61.0,0.082569375
13640,33.0,0.05509683333333332,39.0,0.10974004166666668
13641,50.0,0.027472541666666683,51.0,0.0822675
13642,48.0,0.0822675,55.0,0.32506674999999996
13643,45.0,0.08181875,46.0,0.08152175
13644,41.0,0.08152175,59.0,0.16172624999999996
13645,53.0,0.08108112499999998,48.0,0.08064512499999998
13646,40.0,0.08064512499999998,73.0,0.476218625
13647,52.0,0.08021387499999999,50.0,0.07992945833333331
13648,28.0,0.026737958333333367,40.0,0.10624229166666666
13649,47.0,0.05319149999999995,63.0,0.07950583333333339
13650,33.0,0.05305079166666671,44.0,0.10568091666666668
13651,50.0,0.02645504166666668,53.0,0.079225875
13652,48.0,0.079225875,57.0,0.31318883333333336
13653,47.0,0.07880958333333343,44.0,0.07853399999999988
13654,45.0,0.07853399999999988,74.0,0.15584525000000005
13655,57.0,0.078125,53.0,0.07772025000000005
13656,45.0,0.07772025000000005,89.0,0.46486491666666674
13657,57.0,0.07692312499999998,53.0,0.07705529166666669
13658,35.0,0.025641041666666586,49.0,0.10296066666666692
13659,49.0,0.051414250000000106,64.0,0.07731962500000011
13660,38.0,0.05154641666666682,52.0,0.10335991666666655
13661,52.0,0.025773208333333297,52.0,0.07758670833333325
13662,50.0,0.07758670833333325,58.0,0.3131874166666666
13663,47.0,0.0778551666666667,46.0,0.078125
13664,44.0,0.078125,62.0,0.1572072499999999
13665,56.0,0.07839766666666659,50.0,0.07880958333333332
13666,48.0,0.07880958333333332,82.0,0.4808979999999996
13667,60.0,0.07908662499999997,45.0,0.07950583333333294
13668,32.0,0.02645504166666668,42.0,0.10624229166666632
13669,51.0,0.053050791666666264,60.0,0.07992945833333343
13670,38.0,0.05319150000000006,50.0,0.10709558333333336
13671,53.0,0.026737958333333367,45.0,0.08035762499999999
13672,52.0,0.08035762499999999,52.0,0.3249292916666664
13673,50.0,0.08079045833333343,44.0,0.08122799999999986
13674,47.0,0.08122799999999986,52.0,0.16291083333333312
13675,59.0,0.08167025000000017,48.0,0.08124058333333295
13676,40.0,0.08124058333333295,80.0,0.47619950000000033
13677,52.0,0.07978725000000031,56.0,0.07978724999999987
13678,28.0,0.026595749999999807,39.0,0.10610158333333342
13679,47.0,0.05319150000000006,65.0,0.07936512499999981
13680,33.0,0.05291008333333336,48.0,0.10582016666666672
13681,50.0,0.026455041666666457,44.0,0.07936512500000026
13682,48.0,0.07936512500000026,56.0,0.3149627500000003
13683,45.0,0.07894737499999982,45.0,0.07894737500000026
13684,41.0,0.07894737500000026,52.0,0.1570680000000002
13685,53.0,0.07853399999999988,48.0,0.07853400000000033
13686,40.0,0.07853400000000033,75.0,0.4663297499999999
13687,52.0,0.078125,53.0,0.078125
13688,28.0,0.02604166666666652,38.0,0.10389683333333366
13689,47.0,0.05208333333333348,65.0,0.07772025000000005
13690,33.0,0.05181350000000018,46.0,0.10362699999999991
13691,50.0,0.025906749999999867,52.0,0.07772025000000005
13692,48.0,0.07772025000000005,59.0,0.30848549999999975
13693,47.0,0.07731962499999989,52.0,0.07731962499999989
13694,45.0,0.07731962499999989,73.0,0.15384624999999996
13695,57.0,0.07692312499999998,52.0,0.07692312499999998
13696,45.0,0.07692312499999998,83.0,0.45984858333333367
13697,57.0,0.07640112500000029,60.0,0.07614212499999962
13698,35.0,0.025380708333333057,45.0,0.10165233333333346
13699,49.0,0.05076141666666656,69.0,0.07640112500000029
13700,38.0,0.0508909166666669,51.0,0.102171666666667
13701,52.0,0.025510208333333395,48.0,0.0766614583333336
13702,50.0,0.0766614583333336,62.0,0.30968462500000005
13703,47.0,0.07692312499999954,46.0,0.07731962500000034
13704,44.0,0.07731962500000034,73.0,0.15544187500000017
13705,56.0,0.07758670833333259,55.0,0.07785516666666759
13706,48.0,0.07785516666666759,83.0,0.47370758333333374
13707,60.0,0.078125,55.0,0.07853400000000033
13708,32.0,0.026177999999999813,41.0,0.10484979166666708
13709,51.0,0.05235600000000051,65.0,0.07880958333333332
13710,38.0,0.05249379166666657,44.0,0.10540241666666716
13711,53.0,0.026315791666666755,53.0,0.07908662500000041
13712,52.0,0.07908662500000041,60.0,0.31795249999999964
13713,50.0,0.07936512499999981,46.0,0.07978724999999987
13714,47.0,0.07978724999999987,55.0,0.15880012499999996
13715,59.0,0.08007166666666699,52.0,0.07872845833333297
13716,52.0,0.07872845833333297,83.0,0.4564900000000005
13717,64.0,0.07646824999999957,55.0,0.07646825000000046
13718,42.0,0.02548941666666682,46.0,0.101699083333334
13719,59.0,0.05097883333333364,63.0,0.07608037500000009
13720,45.0,0.050720250000000355,55.0,0.10144049999999982
13721,62.0,0.025360124999999734,53.0,0.07608037500000009
13722,60.0,0.07608037500000009,62.0,0.30202550000000006
13723,57.0,0.0756963749999997,53.0,0.07569637500000059
13724,54.0,0.07569637500000059,62.0,0.15063274999999976
13725,66.0,0.07531637499999988,57.0,0.07531637499999988
13726,52.0,0.07531637499999988,80.0,0.4474122500000002
13727,64.0,0.07493999999999978,51.0,0.07493999999999978
13728,42.0,0.024980000000000224,50.0,0.0996716666666666
13729,56.0,0.04995999999999956,60.0,0.07456749999999968
13730,45.0,0.04971166666666704,57.0,0.0994233333333332
13731,59.0,0.024855833333332633,52.0,0.07456750000000056
13732,57.0,0.07456750000000056,59.0,0.2960640000000003
13733,53.0,0.07419862500000018,48.0,0.07419862500000018
13734,51.0,0.07419862500000018,60.0,0.14766674999999996
13735,63.0,0.07383337500000042,55.0,0.07383337499999953
13736,50.0,0.07383337499999953,77.0,0.4439665833333333
13737,62.0,0.0732710833333341,46.0,0.07340983333333284
13738,40.0,0.024390249999999725,49.0,0.09815991666666601
13739,57.0,0.04901958333333312,60.0,0.07377087500000012
13740,43.0,0.0491403333333329,57.0,0.09876600000000035
13741,60.0,0.024630541666667227,47.0,0.07413545833333313
13742,58.0,0.07413545833333313,56.0,0.3005138333333326
13743,55.0,0.07450370833333331,47.0,0.07487562499999978
13744,52.0,0.07487562499999978,57.0,0.1511344999999995
13745,64.0,0.0753768749999999,55.0,0.0757576249999996
13746,50.0,0.0757576249999996,73.0,0.46329770833333317
13747,62.0,0.07614212499999962,45.0,0.07653062500000019
13748,40.0,0.025510208333333395,47.0,0.10230250000000041
13749,54.0,0.05102041666666679,51.0,0.07705529166666736
13750,43.0,0.05128208333333362,53.0,0.1032263750000002
13751,57.0,0.02577320833333374,45.0,0.07745316666666646
13752,55.0,0.07745316666666646,52.0,0.3133323333333342
13753,52.0,0.0778551666666667,47.0,0.07826133333333285
13754,49.0,0.07826133333333285,57.0,0.15721583333333466
13755,61.0,0.07867179166666727,50.0,0.0785440416666674
13756,48.0,0.0785440416666674,75.0,0.47957675000000055
13757,60.0,0.07978724999999987,51.0,0.07978724999999987
13758,39.0,0.02659575000000025,49.0,0.10638300000000012
13759,53.0,0.053191499999999614,60.0,0.07978724999999987
13760,42.0,0.0531915000000005,55.0,0.10638300000000012
13761,56.0,0.026595749999999363,44.0,0.07978725000000075
13762,54.0,0.07978725000000075,51.0,0.3208554999999995
13763,51.0,0.0802138750000001,44.0,0.0802138750000001
13764,50.0,0.0802138750000001,59.0,0.16042774999999931
13765,62.0,0.08021387499999921,48.0,0.0802138750000001
13766,48.0,0.0802138750000001,73.0,0.48474275000000056
13767,60.0,0.0806451250000002,45.0,0.0806451250000002
13768,38.0,0.02688170833333281,48.0,0.10752683333333302
13769,52.0,0.053763416666667396,50.0,0.0806451250000002
13770,41.0,0.05376341666666562,52.0,0.10752683333333479
13771,55.0,0.026881708333334586,42.0,0.0806451250000002
13772,53.0,0.0806451250000002,48.0,0.32417916666666535
13773,50.0,0.08108112500000075,42.0,0.08108112499999898
13774,47.0,0.08108112499999898,59.0,0.16201691666666562
13775,59.0,0.08108112500000075,47.0,0.08093579166666487
13776,45.0,0.08093579166666487,74.0,0.507476041666667
13777,57.0,0.08108266666666886,42.0,0.08241925000000094
13778,35.0,0.027322416666667237,51.0,0.11080758333333307
13779,49.0,0.055096833333333706,48.0,0.08380062499999852
13780,38.0,0.055710749999999365,53.0,0.11331895833333228
13781,52.0,0.028089874999999154,42.0,0.08522908333333312
13782,29.0,0.08522908333333312,48.0,0.3562326250000005
13783,47.0,0.08670712499999844,38.0,0.08823729166666716
13784,44.0,0.08823729166666716,57.0,0.18128820833333492
13785,56.0,0.08982254166666692,45.0,0.091465666666668
13786,41.0,0.091465666666668,72.0,0.5869905000000006
13787,53.0,0.09317012500000033,37.0,0.09493924999999948
13788,28.0,0.03144654166666605,46.0,0.12780208333333398
13789,58.0,0.0721153749999992,47.0,0.29126666666666523
13790,55.0,0.07246375000000072,40.0,0.07269824999999841
13791,52.0,0.07269824999999841,55.0,0.1461046666666661
13792,64.0,0.07293391666666693,45.0,0.07317074999999917
13793,51.0,0.07317074999999917,76.0,0.45224583333333257
13794,63.0,0.07352937499999967,44.0,0.07427212500000024
13795,42.0,0.02450979166666656,46.0,0.10026741666666794
13796,56.0,0.049762333333333686,52.0,0.07575762499999783
13797,45.0,0.050505083333334255,51.0,0.1012664999999977
13798,59.0,0.025252541666663575,42.0,0.07601395833333413
13799,57.0,0.07601395833333413,48.0,0.30638950000000165
13800,54.0,0.0761421250000005,40.0,0.07653062500000019
13801,53.0,0.07653062500000019,55.0,0.15371675000000096
13802,65.0,0.0766614583333336,40.0,0.07705529166666736
13803,51.0,0.07705529166666736,73.0,0.47111387500000035
13804,63.0,0.07745316666666824,42.0,0.07785516666666581
13805,41.0,0.025906750000000756,45.0,0.1040317499999972
13806,55.0,0.051948416666665054,47.0,0.07826133333333374
13807,44.0,0.05208333333333215,49.0,0.10484979166666619
13808,58.0,0.02617800000000159,40.0,0.0786717916666646
13809,56.0,0.0786717916666646,47.0,0.3194454583333304
13810,53.0,0.07922587500000233,40.0,0.07964654166666563
13811,50.0,0.07964654166666563,55.0,0.16057304166666242
13812,62.0,0.08007166666666521,40.0,0.08050137499999721
13813,50.0,0.08050137499999721,73.0,0.5077996500000026
13814,62.0,0.08146397500000191,37.0,0.08290602499999977
13815,40.0,0.027472541666664796,42.0,0.11161323333333328
13816,54.0,0.055433483333334976,46.0,0.08458883333333134
13817,43.0,0.05617974999999831,49.0,0.1137669499999987
13818,57.0,0.02840908333333303,36.0,0.08535786666666567
13819,55.0,0.08535786666666567,45.0,0.34940625000000125
13820,52.0,0.08627370000000312,37.0,0.0872092500000008
13821,49.0,0.0872092500000008,53.0,0.17592329999999734
13822,61.0,0.08768804999999702,42.0,0.08823525000000032
13823,49.0,0.08823525000000032,67.0,0.5465975333333333
13824,61.0,0.08830528333333376,37.0,0.08928574999999839
13825,40.0,0.029761916666664945,40.0,0.11947796666666832
13826,54.0,0.05952383333333344,44.0,0.09007463333333376
13827,43.0,0.05995413333333488,47.0,0.12122023333333232
13828,57.0,0.030120499999998884,37.0,0.09109973333333343
13829,55.0,0.09109973333333343,44.0,0.3828301833333363
13830,52.0,0.09313273333333427,37.0,0.09469939999999966
13831,49.0,0.09469939999999966,58.0,0.19499805000000237
13832,61.0,0.09657012499999951,42.0,0.09842792500000286
13833,49.0,0.09842792500000286,81.0,0.3686042083333305
13834,62.0,0.06122450000000157,54.0,0.06122449999999802
13835,37.0,0.020408166666666006,40.0,0.08171629166666605
13836,55.0,0.04081633333333201,59.0,0.061391749999998524
13837,41.0,0.04089995833333404,49.0,0.08196716666666504
13838,58.0,0.020491791666664483,38.0,0.061475375000000554
13839,56.0,0.061475375000000554,54.0,0.24708499999999844
13840,53.0,0.06155970833333413,44.0,0.061728374999997726
13841,48.0,0.061728374999997726,58.0,0.12379691666666659
13842,60.0,0.0618134166666664,44.0,0.06198350000000019
13843,48.0,0.06198350000000019,78.0,0.3741390833333327
13844,60.0,0.06198350000000019,46.0,0.06224062500000116
13845,38.0,0.020746875000000387,41.0,0.082987499999998
13846,52.0,0.04149375000000077,56.0,0.06224062499999761
13847,41.0,0.04149374999999722,48.0,0.08324687500000039
13848,55.0,0.020746875000000387,37.0,0.0625
13849,53.0,0.0625,50.0,0.25087316666666837
13850,50.0,0.0625,44.0,0.06267433333333372
13851,47.0,0.06267433333333372,58.0,0.12569883333333465
13852,59.0,0.06276149999999703,44.0,0.06293733333333762
13853,47.0,0.06293733333333762,83.0,0.3799295416666624
13854,59.0,0.06302524999999903,38.0,0.0631138749999991
13855,34.0,0.02100841666666753,42.0,0.0842995416666632
13856,52.0,0.04210545833333157,50.0,0.06329112499999923
13857,38.0,0.04219408333333163,49.0,0.08447758333333155
13858,54.0,0.021097041666667593,38.0,0.06338054166666396
13859,53.0,0.06338054166666396,45.0,0.2547782500000011
13860,50.0,0.06355937500000053,40.0,0.06355937500000053
13861,46.0,0.06355937500000053,62.0,0.12765950000000004
13862,58.0,0.06382975000000002,46.0,0.06382975000000002
13863,46.0,0.06382975000000002,80.0,0.41999566666666865
13864,58.0,0.06831587499999969,42.0,0.07042249999999939
13865,34.0,0.023474166666666463,45.0,0.09389666666666585
13866,53.0,0.046948333333332926,46.0,0.07042249999999939
13867,39.0,0.046948333333332926,50.0,0.0938966666666694
13868,55.0,0.023474166666666463,42.0,0.07042250000000294
13869,54.0,0.07042250000000294,47.0,0.2789811666666644
13870,53.0,0.07042249999999939,46.0,0.06998979166666786
13871,51.0,0.06998979166666786,62.0,0.13856887499999715
13872,63.0,0.06912437499999768,46.0,0.06944449999999946
13873,51.0,0.06944449999999946,85.0,0.39492091666666695
13874,63.0,0.06759241666666682,53.0,0.06502920833333548
13875,39.0,0.021645041666669584,46.0,0.08686241666666561
13876,57.0,0.04338416666666589,61.0,0.06521737499999958
13877,42.0,0.04347824999999972,50.0,0.08724124999999816
13878,59.0,0.02173912499999986,42.0,0.0655021249999983
13879,58.0,0.0655021249999983,48.0,0.26403066666666675
13880,54.0,0.06569370833333465,44.0,0.06588608333333212
13881,50.0,0.06588608333333212,66.0,0.13245087499999997
13882,62.0,0.06607925000000137,48.0,0.0663716249999986
13883,50.0,0.0663716249999986,82.0,0.40241033333333576
13884,62.0,0.06637162500000215,51.0,0.06656829166666611
13885,40.0,0.02212387499999835,45.0,0.08898804166666707
13886,54.0,0.04444441666666776,62.0,0.06686504166666651
13887,43.0,0.04454362499999931,51.0,0.08948591666666772
13888,57.0,0.022321416666667204,45.0,0.06716450000000052
13889,55.0,0.06716450000000052,52.0,0.2723243750000002
13890,52.0,0.0675676249999988,45.0,0.06787325000000166
13891,49.0,0.06787325000000166,61.0,0.1368834999999997
13892,61.0,0.06828562500000146,50.0,0.06859787499999825
13893,49.0,0.06859787499999825,84.0,0.4188563750000007
13894,61.0,0.06891304166666856,46.0,0.06923108333333161
13895,36.0,0.023041458333331377,48.0,0.09259362500000279
13896,54.0,0.046189625000000234,55.0,0.06965983333333625
13897,40.0,0.046404000000002554,52.0,0.09324066666666653
13898,56.0,0.023255833333333698,48.0,0.06998483333333283
13899,55.0,0.06998483333333283,55.0,0.2837001249999993
13900,52.0,0.07031283333333249,47.0,0.07075474999999898
13901,48.0,0.07075474999999898,62.0,0.14263254166666783
13902,60.0,0.07109000000000165,51.0,0.07154254166666618
13903,48.0,0.07154254166666618,82.0,0.5231174166666683
13904,60.0,0.08452116666666853,47.0,0.08771924999999925
13905,36.0,0.029239749999998565,50.0,0.11695900000000137
13906,55.0,0.058479500000000684,59.0,0.08771924999999925
13907,41.0,0.058479500000000684,52.0,0.11695899999999781
13908,58.0,0.029239749999998565,50.0,0.08771924999999925
13909,56.0,0.08771924999999925,56.0,0.35087700000000055
13910,55.0,0.0877192500000028,48.0,0.08771924999999925
13911,53.0,0.08771924999999925,70.0,0.1754384999999985
13912,65.0,0.08771924999999925,52.0,0.08771924999999925
13913,53.0,0.08771924999999925,90.0,0.4512562499999966
13914,65.0,0.0753768749999999,58.0,0.0753768749999999
13915,36.0,0.02512562500000115,51.0,0.1005024999999975
13916,55.0,0.05025124999999875,68.0,0.07525124999999733
13917,42.0,0.05025124999999875,57.0,0.10000000000000142
13918,58.0,0.02499999999999858,47.0,0.07500000000000284
13919,56.0,0.07500000000000284,56.0,0.3010049999999964
13920,54.0,0.07499999999999929,47.0,0.07525124999999733
13921,51.0,0.07525124999999733,70.0,0.1507537499999998
13922,63.0,0.0753768749999999,55.0,0.0753768749999999
13923,51.0,0.0753768749999999,83.0,0.45608641666666827
13924,63.0,0.07575762500000138,55.0,0.07575762499999783
13925,32.0,0.025252541666663575,49.0,0.10101016666666851
13926,55.0,0.050505083333334255,66.0,0.07588579166666776
13927,37.0,0.050505083333334255,57.0,0.101522833333334
13928,58.0,0.0253807083333335,50.0,0.0761421250000005
13929,56.0,0.0761421250000005,56.0,0.30560450000000117
13930,53.0,0.0761421250000005,47.0,0.07640112500000029
13931,49.0,0.07640112500000029,66.0,0.15306125000000037
13932,61.0,0.07653062500000019,55.0,0.07653062500000019
13933,49.0,0.07653062500000019,93.0,0.4663672500000047
13934,61.0,0.0766614583333336,50.0,0.07705529166666736
13935,33.0,0.02564104166666681,51.0,0.10296066666666803
13936,52.0,0.05141425000000055,60.0,0.07745316666666824
13937,39.0,0.05154641666666748,58.0,0.10389683333333366
13938,54.0,0.025906750000000756,48.0,0.0779900833333329
13939,53.0,0.0779900833333329,57.0,0.31622037500000033
13940,51.0,0.07839766666666748,46.0,0.0788095833333351
13941,48.0,0.0788095833333351,70.0,0.15901312499999776
13942,60.0,0.07922587499999878,55.0,0.07978724999999898
13943,48.0,0.07978724999999898,88.0,0.4887410833333341
13944,60.0,0.08021387499999832,50.0,0.08079045833333254
13945,29.0,0.026881708333334586,50.0,0.10796283333333179
13946,52.0,0.05390874999999795,59.0,0.08122799999999941
13947,34.0,0.054054083333333836,56.0,0.10884416666666752
13948,54.0,0.027173916666665576,50.0,0.08167025000000194
13949,53.0,0.08167025000000194,60.0,0.32565895833333514
13950,50.0,0.08211737500000282,50.0,0.08272112499999906
13951,46.0,0.08272112499999906,72.0,0.16082045833333325
13952,58.0,0.08317987499999902,57.0,0.07764058333333423
13953,46.0,0.07764058333333423,93.0,0.3999997499999992
13954,58.0,0.06666662499999987,51.0,0.06666662499999987
13955,29.0,0.022222208333332105,56.0,0.08888883333333553
13956,48.0,0.04444441666666776,68.0,0.06666662499999987
13957,35.0,0.04444441666666776,63.0,0.08888883333333197
13958,51.0,0.022222208333332105,51.0,0.06666662499999987
13959,49.0,0.06666662499999987,60.0,0.2681409583333334
13960,47.0,0.06666662499999987,51.0,0.06666662499999987
13961,44.0,0.06666662499999987,77.0,0.13480770833333366
13962,56.0,0.06666662499999987,59.0,0.0681410833333338
13963,43.0,0.0681410833333338,90.0,0.42653999999999925
13964,55.0,0.07109000000000165,50.0,0.0710899999999981
13965,29.0,0.023696666666666033,58.0,0.09478666666666768
13966,48.0,0.047393333333332066,67.0,0.07109000000000165
13967,35.0,0.04739333333333562,63.0,0.09478666666666413
13968,51.0,0.023696666666666033,52.0,0.0710899999999981
13969,49.0,0.0710899999999981,61.0,0.2849351666666671
13970,47.0,0.07109000000000165,52.0,0.0710899999999981
13971,44.0,0.0710899999999981,78.0,0.14275516666666732
13972,56.0,0.07109000000000165,60.0,0.07166516666666567
13973,44.0,0.07166516666666567,97.0,0.43560512500000215
13974,56.0,0.07086650000000105,55.0,0.07154254166666618
13975,25.0,0.023809541666665268,58.0,0.09580991666666705
13976,48.0,0.047733000000000914,62.0,0.07223150000000089
13977,29.0,0.048076916666666136,64.0,0.09708850000000169
13978,50.0,0.024154583333334756,52.0,0.07293391666666693
13979,49.0,0.07293391666666693,63.0,0.2990420833333367
13980,47.0,0.07365012500000034,52.0,0.07438054166666674
13981,44.0,0.07438054166666674,78.0,0.15101141666666962
13982,56.0,0.07512562500000186,61.0,0.07588579166666776
13983,45.0,0.07588579166666776,93.0,0.4591837500000011
13984,57.0,0.07653062500000019,56.0,0.07653062500000019
13985,25.0,0.025510208333333395,60.0,0.10204083333333358
13986,53.0,0.05102041666666679,64.0,0.07653062500000019
13987,30.0,0.05102041666666679,63.0,0.10204083333333358
13988,56.0,0.025510208333333395,57.0,0.07653062500000019
13989,54.0,0.07653062500000019,64.0,0.3134890000000006
13990,49.0,0.07653062500000019,55.0,0.07653062500000019
13991,45.0,0.07653062500000019,77.0,0.1604277500000002
13992,57.0,0.08021387499999832,62.0,0.08021387500000188
13993,45.0,0.08021387500000188,99.0,0.4326922499999988
13994,57.0,0.0721153749999992,62.0,0.0721153749999992
13995,23.0,0.024038458333333068,56.0,0.09615383333333583
13996,46.0,0.048076916666666136,79.0,0.07211537500000276
13997,28.0,0.04807691666666969,64.0,0.09615383333333227
13998,49.0,0.024038458333333068,66.0,0.0721153749999992
13999,47.0,0.0721153749999992,73.0,0.28846150000000037
14000,45.0,0.0721153749999992,71.0,0.0721153749999992
14001,43.0,0.0721153749999992,78.0,0.14423075000000196
14002,55.0,0.07211537500000276,64.0,0.0721153749999992
14003,43.0,0.0721153749999992,93.0,0.4326922499999988
14004,55.0,0.0721153749999992,59.0,0.0721153749999992
14005,23.0,0.024038458333333068,63.0,0.09615383333333227
14006,46.0,0.048076916666666136,66.0,0.0721153749999992
14007,28.0,0.048076916666666136,66.0,0.09615383333333583
14008,49.0,0.024038458333333068,61.0,0.07211537500000276
14009,47.0,0.07211537500000276,70.0,0.28869374999999664
14010,43.0,0.0721153749999992,62.0,0.0721153749999992
14011,35.0,0.0721153749999992,78.0,0.14446299999999823
14012,47.0,0.0721153749999992,64.0,0.07234762499999903
14013,38.0,0.07234762499999903,94.0,0.4367815833333317
14014,50.0,0.07246375000000072,61.0,0.07246375000000072
14015,26.0,0.024154583333334756,63.0,0.09685283333333317
14016,44.0,0.04830916666666596,66.0,0.07281550000000081
14017,30.0,0.04854366666666721,66.0,0.09708733333333441
14018,47.0,0.024271833333333603,63.0,0.07281550000000081
14019,45.0,0.07281550000000081,71.0,0.2930427499999979
14020,42.0,0.0730523333333295,62.0,0.07317074999999917
14021,38.0,0.07317074999999917,73.0,0.14681966666666924
14022,50.0,0.07329029166666956,66.0,0.07352937499999967
14023,37.0,0.07352937499999967,92.0,0.44408599999999865
14024,49.0,0.07352937499999967,62.0,0.07389162500000168
14025,26.0,0.024630541666667227,63.0,0.09852216666666536
14026,44.0,0.049261083333334454,69.0,0.07389162499999813
14027,30.0,0.0492610833333309,69.0,0.09876600000000124
14028,47.0,0.024630541666667227,61.0,0.07413545833333401
14029,45.0,0.07413545833333401,71.0,0.2978916666666649
14030,42.0,0.0742573749999984,63.0,0.07438054166666674
14031,38.0,0.07438054166666674,72.0,0.14925374999999974
14032,50.0,0.07462687499999987,69.0,0.07462687499999987
14033,39.0,0.07462687499999987,96.0,0.45241495833333545
14034,51.0,0.07462687499999987,66.0,0.07487562500000067
14035,25.0,0.024875624999999957,65.0,0.10012562500000044
14036,44.0,0.05000000000000071,73.0,0.07525124999999733
14037,31.0,0.05012562499999973,72.0,0.10062941666666703
14038,47.0,0.025125624999997598,70.0,0.07550379166666943
14039,45.0,0.07550379166666943,78.0,0.30561116666666877
14040,43.0,0.07588579166666776,77.0,0.0762716250000004
14041,39.0,0.0762716250000004,78.0,0.1534537500000006
14042,51.0,0.07653062500000019,70.0,0.07692312500000043
14043,40.0,0.07692312500000043,92.0,0.46932383333333405
14044,52.0,0.07731962500000122,64.0,0.07772024999999871
14045,25.0,0.025906749999997203,63.0,0.10376191666667012
14046,44.0,0.05181350000000151,73.0,0.07799008333334001
14047,31.0,0.051948416666668606,72.0,0.10443933333333888
14048,47.0,0.026041666666671404,64.0,0.07839766666666748
14049,45.0,0.07839766666666748,72.0,0.31733150000000165
14050,43.0,0.07880958333332444,63.0,0.07908662500000219
14051,41.0,0.07908662500000219,84.0,0.15943529166667503
14052,53.0,0.07950583333333583,71.0,0.0799294583333392
14053,41.0,0.0799294583333392,96.0,0.5128706250000121
14054,53.0,0.08108266666666708,69.0,0.08272449999999765
14055,21.0,0.027322416666663685,65.0,0.11142491666666388
14056,44.0,0.05540208333333396,77.0,0.0844319166666665
14057,25.0,0.05602283333332991,72.0,0.11461787500000753
14058,47.0,0.028409083333336582,71.0,0.08620879166667095
14059,45.0,0.08620879166667095,77.0,0.3649834166666821
14060,43.0,0.08823729166667249,69.0,0.09018545833333746
14061,41.0,0.09018545833333746,82.0,0.18656066666667215
14062,53.0,0.09221854166666787,72.0,0.09434212500000427
14063,42.0,0.09434212500000427,98.0,0.5769232500000001
14064,54.0,0.09615387499999883,69.0,0.09615387499999883
14065,21.0,0.032051291666668646,64.0,0.12820516666666748
14066,49.0,0.06410258333333019,77.0,0.09615387499999883
14067,26.0,0.06410258333333729,70.0,0.12820516666666748
14068,52.0,0.03205129166666154,71.0,0.09615387500000594
14069,50.0,0.09615387500000594,77.0,0.37603837500000026
14070,45.0,0.09615387499999883,72.0,0.09615387499999883
14071,42.0,0.09615387499999883,80.0,0.1837306250000026
14072,54.0,0.09615387499999883,73.0,0.08757675000000376
14073,42.0,0.08757675000000376,103.0,0.41959099999999694
14074,54.0,0.07042249999999939,66.0,0.0702031666666656
14075,26.0,0.023474166666666463,66.0,0.09345799999999826
14076,50.0,0.07352937499999967,47.0,0.2909148750000057
14077,47.0,0.07317075000000273,40.0,0.07281549999999726
14078,42.0,0.07281549999999726,66.0,0.1449286250000057
14079,54.0,0.07258100000000667,46.0,0.07234762499999903
14080,41.0,0.07234762499999903,78.0,0.4279127500000044
14081,53.0,0.07200037500000178,40.0,0.07177037499999983
14082,26.0,0.02392345833332854,47.0,0.09546600000000183
14083,47.0,0.04784691666667129,46.0,0.07142862500000291
14084,30.0,0.047619083333330536,53.0,0.09501241666666971
14085,52.0,0.023809541666672374,40.0,0.07120287499999733
14086,50.0,0.07120287499999733,48.0,0.2820265000000006
14087,47.0,0.07086650000000105,40.0,0.07064400000000148
14088,42.0,0.07064400000000148,66.0,0.1405159999999981
14089,54.0,0.07042249999999939,47.0,0.0700934999999987
14090,44.0,0.0700934999999987,84.0,0.45698145833332404
14091,56.0,0.07009758333332883,44.0,0.07223825000000517
14092,32.0,0.023809541666665268,53.0,0.09793487500000708
14093,49.0,0.0484287083333399,48.0,0.07463179166666833
14094,37.0,0.049506166666667184,58.0,0.10232120833332914
14095,54.0,0.02512562500000115,45.0,0.07719558333332799
14096,53.0,0.07719558333332799,50.0,0.33780779166666264
14097,49.0,0.07993858333333037,45.0,0.08287966666666335
14098,44.0,0.08287966666666335,67.0,0.1749895416666689
14099,56.0,0.08605395833333773,48.0,0.08893558333333118
14100,44.0,0.08893558333333118,86.0,0.5921055000000024
14101,56.0,0.09868424999999803,44.0,0.09868425000000514
14102,28.0,0.03289475000000408,53.0,0.131578999999995
14103,51.0,0.06578950000000106,51.0,0.09868424999999803
14104,32.0,0.06578949999999395,62.0,0.1315790000000021
14105,53.0,0.03289475000000408,45.0,0.09868424999999803
14106,23.0,0.09868424999999803,55.0,0.3869982500000049
14107,50.0,0.09868424999999803,45.0,0.09868425000000514
14108,40.0,0.09868425000000514,77.0,0.1896297500000017
14109,52.0,0.09684541666666746,46.0,0.09278433333333425
14110,40.0,0.09278433333333425,92.0,0.5140390833333299
14111,52.0,0.0872092500000008,47.0,0.0865391250000016
14112,28.0,0.028901750000002835,55.0,0.11510862499999774
14113,47.0,0.05763737499999877,57.0,0.08604266666666405
14114,33.0,0.057471249999998975,59.0,0.1139609999999962
14115,50.0,0.028571416666665073,50.0,0.08538958333333113
14116,48.0,0.08538958333333113,59.0,0.3353733750000032
14117,45.0,0.08474575000000328,50.0,0.08411270833332907
14118,41.0,0.08411270833332907,71.0,0.16651491666667084
14119,53.0,0.08348854166666797,55.0,0.08302637500000287
14120,40.0,0.08302637500000287,83.0,0.4855368749999869
14121,52.0,0.08226750000000038,47.0,0.0818187500000036
14122,28.0,0.02732241666667079,55.0,0.1086972916666582
14123,47.0,0.054496333333332814,56.0,0.08122799999999586
14124,33.0,0.05420095833332539,61.0,0.10767216666666712
14125,50.0,0.02702704166667047,48.0,0.08064512499999665
14126,48.0,0.08064512499999665,57.0,0.31692687499999295
14127,47.0,0.08007166666666166,47.0,0.07950583333332872
14128,45.0,0.07950583333332872,75.0,0.15734937500000257
14129,57.0,0.07908662500000219,56.0,0.07826275000000038
14130,45.0,0.07826275000000038,93.0,0.4691675416666712
14131,57.0,0.07772025000000582,48.0,0.0778551666666587
14132,35.0,0.025906749999997203,59.0,0.1040317499999972
14133,49.0,0.0519484166666615,60.0,0.078125
14134,38.0,0.0520833333333357,64.0,0.10430300000000159
14135,52.0,0.026041666666664298,48.0,0.07826133333333729
14136,50.0,0.07826133333333729,61.0,0.31523979166666294
14137,47.0,0.07853399999999766,51.0,0.07867179166667171
14138,44.0,0.07867179166667171,70.0,0.15803399999999357
14139,56.0,0.07894737499999849,59.0,0.07908662499999508
14140,48.0,0.07908662499999508,84.0,0.4791591666666619
14141,60.0,0.07936512500000248,51.0,0.07950583333332872
14142,32.0,0.026455041666665124,59.0,0.10624229166666765
14143,51.0,0.0530507916666636,63.0,0.07978725000000253
14144,38.0,0.053191500000004055,66.0,0.10652520833333057
14145,53.0,0.026595749999998475,55.0,0.07992945833333209
14146,52.0,0.07992945833333209,63.0,0.3193702916666652
14147,50.0,0.08021387499999832,60.0,0.08035762499999777
14148,47.0,0.08035762499999777,67.0,0.1587987916666691
14149,59.0,0.08064512499999665,60.0,0.07815366666667245
14150,40.0,0.07815366666667245,93.0,0.4322743333333321
14151,52.0,0.0730523333333295,52.0,0.07269825000000196
14152,28.0,0.024271833333337156,60.0,0.09661945833333618
14153,47.0,0.04842641666666481,60.0,0.07223150000000089
14154,33.0,0.04819304166667138,68.0,0.09592383333333032
14155,50.0,0.024038458333329515,51.0,0.0718853750000008
14156,48.0,0.0718853750000008,61.0,0.283254041666666
14157,45.0,0.07142862500000291,51.0,0.07097824999999602
14158,41.0,0.07097824999999602,70.0,0.14084716666666708
14159,53.0,0.07064400000000148,60.0,0.0702031666666656
14160,40.0,0.0702031666666656,86.0,0.4133037500000043
14161,52.0,0.06987616666666696,55.0,0.06944450000000302
14162,28.0,0.023148166666665304,60.0,0.09237925000000757
14163,47.0,0.046296333333337714,63.0,0.06901870833333845
14164,33.0,0.04608291666666986,64.0,0.09163841666666883
14165,50.0,0.022935791666668592,52.0,0.06870262500000024
14166,48.0,0.06870262500000024,63.0,0.27099387499999494
14167,47.0,0.06828562499999435,52.0,0.06797612500000128
14168,45.0,0.06797612500000128,79.0,0.13473212499999931
14169,60.0,0.06756762500000235,62.0,0.06716449999999696
14170,48.0,0.06716449999999696,91.0,0.405624875000008
14171,60.0,0.06696425000000517,56.0,0.06726462499999997
14172,38.0,0.022421541666666656,60.0,0.08978716666666742
14173,52.0,0.04484308333333331,64.0,0.06746662500000156
14174,41.0,0.044944083333334106,66.0,0.09029391666666697
14175,55.0,0.02252254166666745,52.0,0.06777137499999952
14176,53.0,0.06777137499999952,64.0,0.2734585000000038
14177,50.0,0.06797612500000128,55.0,0.0681818750000005
14178,47.0,0.0681818750000005,75.0,0.13730050000000205
14179,59.0,0.06849312500000337,62.0,0.06880737499999867
14180,52.0,0.06880737499999867,100.0,0.41819216666667103
14181,64.0,0.06901870833333845,56.0,0.06933779166666199
14182,35.0,0.023041458333331377,59.0,0.09259266666666832
14183,54.0,0.04629633333333061,66.0,0.06955216666666786
14184,41.0,0.046296333333337714,66.0,0.09302333333333479
14185,57.0,0.023255833333330145,59.0,0.06976750000000465
14186,55.0,0.06976750000000465,69.0,0.2821382499999956
14187,53.0,0.0700934999999987,59.0,0.07042249999999939
14188,50.0,0.07042249999999939,78.0,0.1416222499999975
14189,62.0,0.07064400000000148,69.0,0.07097824999999602
14190,50.0,0.07097824999999602,101.0,0.4265400000000028
14191,62.0,0.0710899999999981,61.0,0.0710900000000052
14192,40.0,0.02369666666667314,66.0,0.09478666666666413
14193,54.0,0.047393333333332066,70.0,0.0710899999999981
14194,43.0,0.047393333333332066,73.0,0.09478666666666413
14195,57.0,0.023696666666666033,60.0,0.0710899999999981
14196,55.0,0.0710899999999981,70.0,0.2843599999999995
14197,52.0,0.0710900000000052,60.0,0.0710899999999981
14198,49.0,0.0710899999999981,84.0,0.1421799999999962
14199,61.0,0.0710899999999981,71.0,0.0710899999999981
14200,53.0,0.0710899999999981,98.0,0.4265400000000028
14201,65.0,0.0710900000000052,62.0,0.0710899999999981
14202,37.0,0.023696666666666033,70.0,0.09478666666666413
14203,56.0,0.047393333333332066,71.0,0.0710899999999981
14204,43.0,0.047393333333332066,77.0,0.09478666666666413
14205,58.0,0.023696666666666033,63.0,0.0710899999999981
14206,57.0,0.0710899999999981,71.0,0.2843599999999995
14207,55.0,0.0710900000000052,63.0,0.0710899999999981
14208,52.0,0.0710899999999981,79.0,0.1421799999999962
14209,64.0,0.0710899999999981,72.0,0.0710899999999981
14210,52.0,0.0710899999999981,107.0,0.43031854166665795
14211,64.0,0.07075474999999898,63.0,0.0710899999999981
14212,42.0,0.023696666666666033,72.0,0.0950124166666626
14213,56.0,0.047393333333332066,73.0,0.07154254166666618
14214,45.0,0.047619083333330536,79.0,0.09580883333333645
14215,59.0,0.023923458333335645,66.0,0.0718853750000008
14216,57.0,0.0718853750000008,73.0,0.29186674999999696
14217,54.0,0.07234762499999903,63.0,0.07269824999999486
14218,51.0,0.07269824999999486,84.0,0.14682087500000307
14219,63.0,0.07317075000000273,73.0,0.07365012500000034
14220,56.0,0.07365012500000034,105.0,0.49559398333333604
14221,68.0,0.0770040249999937,64.0,0.07797072500000013
14222,45.0,0.02577320833333374,74.0,0.1062021000000044
14223,59.0,0.05219751666666639,75.0,0.08129927500000633
14224,48.0,0.05400458333333802,79.0,0.11176019999999909
14225,62.0,0.027294691666668314,69.0,0.08446550833333077
14226,60.0,0.08446550833333077,75.0,0.35693938333333364
14227,59.0,0.08654099999999687,69.0,0.08831345000000823
14228,57.0,0.08831345000000823,84.0,0.18208493333332854
14229,69.0,0.08986122499999283,77.0,0.09222370833333571
14230,59.0,0.09222370833333571,108.0,0.45000000000000284
14231,71.0,0.07500000000000284,70.0,0.07499999999999574
14232,48.0,0.02499999999999858,76.0,0.10000000000000142
14233,65.0,0.04999999999999716,81.0,0.07500000000000284
14234,51.0,0.05000000000000426,84.0,0.09999999999999432
14235,68.0,0.02499999999999858,71.0,0.07499999999999574
14236,66.0,0.07499999999999574,78.0,0.30000000000000426
14237,63.0,0.07500000000000284,72.0,0.07500000000000284
14238,60.0,0.07500000000000284,95.0,0.14999999999999858
14239,72.0,0.07499999999999574,77.0,0.07500000000000284
14240,59.0,0.07500000000000284,106.0,0.44999999999999574
14241,71.0,0.07499999999999574,71.0,0.07500000000000284
14242,48.0,0.025000000000005684,78.0,0.09999999999999432
14243,65.0,0.04999999999999716,77.0,0.07500000000000284
14244,51.0,0.04999999999999716,87.0,0.10000000000000142
14245,68.0,0.025000000000005684,75.0,0.07499999999999574
14246,42.0,0.07499999999999574,78.0,0.30000000000000426
14247,63.0,0.07500000000000284,69.0,0.07499999999999574
14248,60.0,0.07499999999999574,89.0,0.15000000000000568
14249,72.0,0.07500000000000284,77.0,0.07500000000000284
14250,59.0,0.07500000000000284,109.0,0.46161950000001184
14251,71.0,0.07550379166666943,70.0,0.07601395833333413
14252,48.0,0.025252541666667128,78.0,0.1017818333333338
14253,64.0,0.050761416666667,77.0,0.0766614583333336
14254,51.0,0.05102041666666679,87.0,0.1028285000000011
14255,67.0,0.02564104166666681,72.0,0.07718745833333429
14256,65.0,0.07718745833333429,78.0,0.3151282083333342
14257,63.0,0.07785516666666581,71.0,0.07839766666667458
14258,60.0,0.07839766666667458,92.0,0.15887537499999382
14259,72.0,0.07908662499999508,77.0,0.07978874999999874
14260,59.0,0.07978874999999874,104.0,0.518037249999999
14261,71.0,0.08021387499999832,75.0,0.08422457500000036
14262,48.0,0.027406408333334298,81.0,0.11416183333333407
14263,64.0,0.05681816666666606,82.0,0.08641341666666591
14264,51.0,0.057343666666668014,87.0,0.11709980000000542
14265,67.0,0.029069749999997896,75.0,0.08803005000000752
14266,65.0,0.08803005000000752,78.0,0.36164133333332416
14267,63.0,0.08886554999999419,71.0,0.09028978333333271
14268,60.0,0.09028978333333271,86.0,0.18248599999999726
14269,72.0,0.0910226250000008,77.0,0.09146337499999646
14270,60.0,0.09146337499999646,109.0,0.47619075000000066
14271,72.0,0.07936512500000248,70.0,0.07936512499999537
14272,48.0,0.026455041666665124,76.0,0.1058201666666676
14273,68.0,0.05291008333333025,77.0,0.07936512500000248
14274,52.0,0.052910083333337354,83.0,0.1058201666666676
14275,71.0,0.026455041666665124,70.0,0.07936512500000248
14276,69.0,0.07936512500000248,77.0,0.3174604999999957
14277,64.0,0.07936512499999537,66.0,0.07936512500000248
14278,60.0,0.07936512500000248,90.0,0.15873024999999785
14279,72.0,0.07936512500000248,70.0,0.07936512499999537
14280,59.0,0.07936512499999537,105.0,0.47619075000000066
14281,71.0,0.07936512500000248,69.0,0.07936512499999537
14282,47.0,0.026455041666665124,77.0,0.1058201666666676
14283,66.0,0.05291008333333025,78.0,0.07936512500000248
14284,52.0,0.052910083333337354,83.0,0.1058201666666676
14285,69.0,0.026455041666665124,71.0,0.07936512500000248
14286,67.0,0.07936512500000248,77.0,0.3174604999999957
14287,64.0,0.07936512499999537,69.0,0.07936512500000248
14288,59.0,0.07936512500000248,86.0,0.15873024999999785
14289,71.0,0.07936512500000248,72.0,0.07936512499999537
14290,55.0,0.07936512499999537,106.0,0.43689299999999776
14291,67.0,0.07281549999999726,64.0,0.07281550000000436
14292,43.0,0.024271833333337156,77.0,0.09708733333333441
14293,62.0,0.04854366666666721,73.0,0.07281549999999726
14294,48.0,0.04854366666666721,84.0,0.09708733333333441
14295,65.0,0.02427183333333005,66.0,0.07281550000000436
14296,36.0,0.07281550000000436,76.0,0.29126199999999614
14297,60.0,0.07281549999999726,63.0,0.07281549999999726
14298,55.0,0.07281549999999726,94.0,0.14563100000000162
14299,67.0,0.07281550000000436,71.0,0.07281549999999726
14300,52.0,0.07281549999999726,100.0,0.43689299999999776
14301,64.0,0.07281549999999726,64.0,0.07281550000000436
14302,40.0,0.024271833333337156,73.0,0.09708733333333441
14303,59.0,0.04854366666666721,71.0,0.07281549999999726
14304,45.0,0.04854366666666721,79.0,0.09708733333333441
14305,62.0,0.02427183333333005,64.0,0.07281550000000436
14306,33.0,0.07281550000000436,74.0,0.29126199999999614
14307,57.0,0.07281549999999726,62.0,0.07281549999999726
14308,52.0,0.07281549999999726,86.0,0.14563100000000162
14309,64.0,0.07281550000000436,63.0,0.07281549999999726
14310,47.0,0.07281549999999726,100.0,0.439152
14311,59.0,0.07281550000000436,59.0,0.07281549999999726
14312,35.0,0.02427183333333005,68.0,0.09732416666666666
14313,54.0,0.04854366666666721,69.0,0.07317075000000273
14314,40.0,0.04878049999999945,78.0,0.0975609999999989
14315,57.0,0.024390250000003277,61.0,0.07317074999999562
14316,28.0,0.07317074999999562,67.0,0.29508466666666777
14317,52.0,0.07352937499999967,62.0,0.07365012500000034
14318,47.0,0.07365012500000034,84.0,0.14790516666666775
14319,59.0,0.07389162500000168,62.0,0.07401354166666607
14320,45.0,0.07401354166666607,96.0,0.44864045833333677
14321,57.0,0.07425737500000196,57.0,0.07450370833333153
14322,33.0,0.024752458333331617,67.0,0.09950249999999983
14323,52.0,0.049751249999999914,64.0,0.07462687499999987
14324,36.0,0.049751249999999914,74.0,0.09975124999999707
14325,55.0,0.024875624999999957,57.0,0.07487562499999711
14326,29.0,0.07487562499999711,68.0,0.301511375000004
14327,48.0,0.07500000000000284,52.0,0.07537687500000345
14328,45.0,0.07537687500000345,83.0,0.15113449999999773
14329,57.0,0.07537687499999635,61.0,0.07575762500000138
14330,43.0,0.07575762500000138,100.0,0.45854558333333273
14331,55.0,0.0758857916666642,55.0,0.07614212500000406
14332,31.0,0.025380708333337054,70.0,0.101522833333334
14333,50.0,0.050761416666667,64.0,0.07627162499999685
14334,36.0,0.050761416666667,79.0,0.10204083333333358
14335,53.0,0.025510208333329842,59.0,0.07653062500000374
14336,24.0,0.07653062500000374,67.0,0.3082224999999994
14337,48.0,0.07679229166666346,56.0,0.07692312500000043
14338,43.0,0.07692312500000043,79.0,0.15450708333333552
14339,55.0,0.07718745833333429,60.0,0.07731962500000122
14340,41.0,0.07731962500000122,90.0,0.4663214999999994
14341,53.0,0.07772024999999871,52.0,0.07772024999999871
14342,29.0,0.02590675000000431,67.0,0.10362699999999592
14343,48.0,0.051813499999994406,62.0,0.07772025000000582
14344,34.0,0.05181350000000151,77.0,0.10362700000000302
14345,52.0,0.02590675000000431,52.0,0.07772024999999871
14346,26.0,0.07772024999999871,69.0,0.31088099999999486
14347,46.0,0.07772024999999871,55.0,0.07772024999999871
14348,41.0,0.07772024999999871,76.0,0.15544049999999743
14349,53.0,0.07772024999999871,60.0,0.07772024999999871
14350,40.0,0.07772024999999871,89.0,0.4663215000000065
14351,52.0,0.07772025000000582,60.0,0.07772024999999871
14352,24.0,0.025906749999997203,67.0,0.10362700000000302
14353,47.0,0.05181350000000151,70.0,0.07772024999999871
14354,28.0,0.05181350000000151,75.0,0.10362699999999592
14355,50.0,0.025906749999997203,59.0,0.07772024999999871
14356,16.0,0.07772024999999871,66.0,0.31088100000000196
14357,45.0,0.07772024999999871,61.0,0.07772025000000582
14358,40.0,0.07772025000000582,73.0,0.15544049999999743
14359,52.0,0.07772024999999871,60.0,0.07772024999999871
14360,40.0,0.07772024999999871,87.0,0.4663214999999994
14361,52.0,0.07772024999999871,51.0,0.07772024999999871
14362,24.0,0.025906749999997203,66.0,0.10362700000000302
14363,50.0,0.08050137499999721,40.0,0.3173359166666643
14364,45.0,0.08007166666666876,35.0,0.07950583333332872
14365,41.0,0.07950583333332872,49.0,0.1577584166666668
14366,53.0,0.07908662500000219,42.0,0.0786717916666646
14367,41.0,0.0786717916666646,69.0,0.49017157499999087
14368,53.0,0.078125,37.0,0.07758670833332815
14369,21.0,0.02590675000000431,41.0,0.10366977500000019
14370,49.0,0.05167995833332384,44.0,0.07887152500001093
14371,26.0,0.05198981666667635,49.0,0.1085864833333261
14372,52.0,0.026881708333334586,36.0,0.08170477499999151
14373,50.0,0.08170477499999151,44.0,0.36424613333333866
14374,45.0,0.08486295000000155,35.0,0.08902061666665873
14375,41.0,0.08902061666665873,50.0,0.1903625666666784
14376,53.0,0.09308401666666555,44.0,0.09727855000001284
14377,45.0,0.09727855000001284,71.0,0.6081082500000008
14378,57.0,0.10135137500000724,46.0,0.10135137499999303
14379,21.0,0.03378379166666434,41.0,0.13513516666667158
14380,49.0,0.06756758333332868,51.0,0.10135137500000724
14381,26.0,0.0675675833333429,46.0,0.13513516666665737
14382,52.0,0.03378379166666434,45.0,0.10135137499999303
14383,50.0,0.10135137499999303,48.0,0.40540550000000053
14384,45.0,0.10135137500000724,42.0,0.10135137499999303
14385,41.0,0.10135137499999303,47.0,0.20270275000000026
14386,53.0,0.10135137500000724,36.0,0.10135137499999303
14387,40.0,0.10135137499999303,59.0,0.47368425000000514
14388,52.0,0.07894737499999849,28.0,0.07894737499999849
14389,28.0,0.026315791666661426,36.0,0.10526316666667412
14390,47.0,0.05263158333333706,36.0,0.07894737499999849
14391,33.0,0.05263158333333706,37.0,0.10526316666665991
14392,50.0,0.026315791666661426,29.0,0.07894737499999849
14393,21.0,0.07894737499999849,35.0,0.31578950000000816
14394,45.0,0.0789473750000127,30.0,0.07894737499999849
14395,40.0,0.07894737499999849,41.0,0.15789474999999698
14396,52.0,0.07894737499999849,35.0,0.07894737499999849
14397,40.0,0.07894737499999849,58.0,0.47368425000000514
14398,52.0,0.07894737499999849,27.0,0.07894737499999849
14399,28.0,0.026315791666661426,35.0,0.10526316666667412
14400,47.0,0.05263158333333706,34.0,0.07894737499999849
14401,33.0,0.05263158333333706,36.0,0.10526316666665991
14402,50.0,0.026315791666661426,27.0,0.07894737499999849
14403,21.0,0.07894737499999849,34.0,0.31578950000000816
14404,45.0,0.07894737499999849,28.0,0.0789473750000127
14405,40.0,0.0789473750000127,41.0,0.15789474999999698
14406,52.0,0.07894737499999849,34.0,0.07894737499999849
14407,40.0,0.07894737499999849,58.0,0.4736842499999909
14408,52.0,0.07894737499999849,28.0,0.07894737499999849
14409,28.0,0.026315791666661426,34.0,0.10526316666667412
14410,47.0,0.05263158333333706,34.0,0.07894737499999849
14411,33.0,0.05263158333333706,37.0,0.10526316666665991
14412,50.0,0.026315791666661426,28.0,0.07894737499999849
14413,49.0,0.07894737499999849,34.0,0.31578950000000816
14414,45.0,0.07894737499999849,28.0,0.07894737499999849
14415,40.0,0.07894737499999849,40.0,0.15789475000001119
14416,52.0,0.07894737499999849,31.0,0.0789473750000127
14417,40.0,0.0789473750000127,58.0,0.4736842499999909
14418,52.0,0.07894737499999849,28.0,0.07894737499999849
14419,28.0,0.026315791666661426,31.0,0.10526316666667412
14420,47.0,0.05263158333333706,31.0,0.07894737499999849
14421,33.0,0.05263158333333706,38.0,0.10526316666665991
14422,50.0,0.026315791666661426,27.0,0.07894737499999849
14423,21.0,0.07894737499999849,33.0,0.31578949999999395
14424,45.0,0.07894737499999849,25.0,0.07894737499999849
14425,40.0,0.07894737499999849,36.0,0.15789474999999698
14426,52.0,0.07894737499999849,31.0,0.07894737499999849
14427,42.0,0.07894737499999849,56.0,0.47368425000000514
14428,54.0,0.0789473750000127,22.0,0.07894737499999849
14429,21.0,0.026315791666661426,34.0,0.10526316666665991
14430,49.0,0.05263158333333706,28.0,0.07894737499999849
14431,26.0,0.05263158333332285,36.0,0.10526316666667412
14432,52.0,0.026315791666675636,22.0,0.07894737499999849
14433,14.0,0.07894737499999849,33.0,0.31578949999999395
14434,45.0,0.07894737499999849,23.0,0.07894737499999849
14435,42.0,0.07894737499999849,38.0,0.15789474999999698
14436,54.0,0.07894737499999849,29.0,0.07894737499999849
14437,42.0,0.07894737499999849,58.0,0.47368425000000514
14438,54.0,0.07894737499999849,23.0,0.07894737499999849
14439,21.0,0.026315791666675636,34.0,0.10526316666665991
14440,49.0,0.05263158333332285,29.0,0.0789473750000127
14441,26.0,0.05263158333333706,37.0,0.10526316666667412
14442,52.0,0.026315791666675636,23.0,0.07894737499999849
14443,14.0,0.07894737499999849,33.0,0.31578949999999395
14444,45.0,0.07894737499999849,23.0,0.07894737499999849
14445,42.0,0.07894737499999849,40.0,0.15789474999999698
14446,54.0,0.07894737499999849,30.0,0.07894737499999849
14447,42.0,0.07894737499999849,61.0,0.47803268333333904
14448,54.0,0.07894737499999849,27.0,0.07894737499999849
14449,21.0,0.026315791666675636,36.0,0.10526316666665991
14450,49.0,0.05263158333332285,31.0,0.07894737499999849
14451,26.0,0.05263158333333706,38.0,0.10537515000000042
14452,52.0,0.026315791666661426,27.0,0.07905935833333899
14453,14.0,0.07905935833333899,34.0,0.33420958333333317
14454,45.0,0.08013164999999844,30.0,0.08199955000000614
14455,42.0,0.08199955000000614,41.0,0.1720783833333286
14456,54.0,0.08473233333333496,34.0,0.08734604999999362
14457,45.0,0.08734604999999362,63.0,0.5660377500000067
14458,57.0,0.09433962500000348,37.0,0.09433962500000348
14459,21.0,0.03144654166666783,34.0,0.1257861666666571
14460,49.0,0.06289308333333565,38.0,0.09433962499998927
14461,26.0,0.06289308333332144,39.0,0.1257861666666713
14462,52.0,0.03144654166666783,36.0,0.09433962500000348
14463,14.0,0.09433962500000348,36.0,0.3773584999999997
14464,45.0,0.09433962500000348,34.0,0.09433962500000348
14465,42.0,0.09433962500000348,37.0,0.18867924999999275
14466,54.0,0.09433962499998927,27.0,0.09433962500000348
14467,40.0,0.09433962500000348,57.0,0.47619075000000066
14468,52.0,0.07936512499999537,20.0,0.07936512500000958
14469,28.0,0.026455041666665124,34.0,0.10582016666667471
14470,47.0,0.05291008333334446,27.0,0.07936512499999537
14471,33.0,0.05291008333333025,38.0,0.1058201666666605
14472,50.0,0.026455041666665124,22.0,0.07936512499999537
14473,21.0,0.07936512499999537,34.0,0.3174605000000099
14474,45.0,0.07936512500000958,23.0,0.07936512499999537
14475,40.0,0.07936512499999537,37.0,0.15873025000000496
14476,52.0,0.07936512499999537,27.0,0.07936512500000958
14477,40.0,0.07936512500000958,56.0,0.47619075000000066
14478,52.0,0.07936512499999537,23.0,0.07936512499999537
14479,28.0,0.026455041666665124,31.0,0.1058201666666605
14480,47.0,0.05291008333333025,28.0,0.07936512500000958
14481,33.0,0.05291008333333025,37.0,0.10582016666667471
14482,50.0,0.026455041666679335,23.0,0.07936512499999537
14483,21.0,0.07936512499999537,31.0,0.3174604999999957
14484,45.0,0.07936512499999537,22.0,0.07936512500000958
14485,40.0,0.07936512500000958,37.0,0.15873024999999075
14486,52.0,0.07936512499999537,29.0,0.07936512499999537
14487,40.0,0.07936512499999537,57.0,0.47619075000000066
14488,52.0,0.07936512500000958,25.0,0.07936512499999537
14489,28.0,0.026455041666665124,34.0,0.1058201666666605
14490,47.0,0.05291008333333025,29.0,0.07936512499999537
14491,33.0,0.05291008333333025,39.0,0.1058201666666605
14492,50.0,0.026455041666665124,23.0,0.07936512499999537
14493,21.0,0.07936512499999537,35.0,0.3174605000000099
14494,45.0,0.07936512500000958,23.0,0.07936512499999537
14495,40.0,0.07936512499999537,41.0,0.15873025000000496
14496,52.0,0.07936512499999537,29.0,0.07936512500000958
14497,40.0,0.07936512500000958,61.0,0.47619075000000066
14498,52.0,0.07936512499999537,23.0,0.07936512499999537
14499,28.0,0.026455041666665124,34.0,0.10582016666667471
14500,47.0,0.05291008333333025,30.0,0.07936512500000958
14501,33.0,0.05291008333334446,38.0,0.1058201666666605
14502,50.0,0.026455041666665124,23.0,0.07936512499999537
14503,21.0,0.07936512499999537,34.0,0.3174604999999957
14504,45.0,0.07936512499999537,23.0,0.07936512500000958
14505,40.0,0.07936512500000958,38.0,0.15873024999999075
14506,52.0,0.07936512499999537,29.0,0.07936512499999537
14507,40.0,0.07936512499999537,58.0,0.478667216666679
14508,52.0,0.07973096666667345,23.0,0.07978724999999542
14509,28.0,0.026595749999998475,33.0,0.10638300000000811
14510,47.0,0.05319149999999695,29.0,0.07978725000000964
14511,33.0,0.05319150000001116,37.0,0.1063829999999939
14512,50.0,0.026595749999998475,23.0,0.07978724999999542
14513,21.0,0.07978724999999542,35.0,0.3191489999999959
14514,45.0,0.07978724999999542,25.0,0.07978725000000964
14515,40.0,0.07978725000000964,38.0,0.15957449999999085
14516,52.0,0.07978724999999542,29.0,0.07978724999999542
14517,40.0,0.07978724999999542,55.0,0.4917941333333431
14518,52.0,0.08030197499999758,22.0,0.08182165833333954
14519,28.0,0.02711547500000222,35.0,0.10965126666667402
14520,47.0,0.05470618333333732,29.0,0.08241762500000505
14521,33.0,0.0549450833333367,39.0,0.1098901666666734
14522,50.0,0.02747254166666835,23.0,0.08241762500000505
14523,21.0,0.08241762500000505,36.0,0.32967049999999176
14524,45.0,0.08241762499999084,23.0,0.08241762500000505
14525,40.0,0.08241762500000505,34.0,0.16483524999999588
14526,52.0,0.08241762499999084,28.0,0.08241762500000505
14527,40.0,0.08241762500000505,49.0,0.4959764166666645
14528,52.0,0.08241762500000505,22.0,0.08241762499999084
14529,28.0,0.02747254166666835,34.0,0.10989016666665918
14530,47.0,0.054945083333322486,28.0,0.08241762500000505
14531,33.0,0.0549450833333367,37.0,0.1098901666666734
14532,50.0,0.02747254166666835,23.0,0.08241762500000505
14533,21.0,0.08241762500000505,33.0,0.3408799999999843
14534,45.0,0.08272287499998754,22.0,0.08358304166667097
14535,40.0,0.08358304166667097,34.0,0.1745740833333258
14536,52.0,0.08654403333332539,27.0,0.08803005000000041
14537,40.0,0.08803005000000041,44.0,0.5380128000000042
14538,52.0,0.08914568333332795,22.0,0.08928575000000194
14539,28.0,0.02976191666667205,30.0,0.11904766666667399
14540,47.0,0.05952383333332989,27.0,0.08928575000000194
14541,33.0,0.0595238333333441,34.0,0.11933453333332977
14542,50.0,0.02976191666665784,22.0,0.08957261666667193
14543,21.0,0.08957261666667193,31.0,0.36159291666665183
14544,45.0,0.0903615000000002,23.0,0.0903615000000002
14545,40.0,0.0903615000000002,36.0,0.18086991666665142
14546,52.0,0.0903615000000002,27.0,0.09050841666665121
14547,52.0,0.09050841666665121,46.0,1.4634140000000002
14548,50.0,1.4634140000000002,43.0,0.8426799333333435
14549,44.0,0.8426799333333435,39.0,1.2631580000000042
14550,44.0,1.2631580000000042,29.0,0.36144575000000145
14551,21.0,0.36144575000000145,31.0,5.159737750000005
14552,28.0,0.36144575000000145,31.0,4.7982920000000036
14553,36.0,0.30612250000000074,31.0,4.492169500000003
14554,40.0,0.30612250000000074,25.0,4.186047000000002
14555,45.0,0.34883725000000254,22.0,3.8372097499999995
14556,27.0,0.0,90.0,2.17115669375
14557,30.0,2.17115669375,79.0,0.4079415000000002
14558,35.0,0.4079415000000002,83.0,0.38961049999999986
14559,37.0,0.38961049999999986,76.0,0.4054055000000001
14560,39.0,0.4054055000000001,83.0,0.3870969999999998
14561,35.0,0.3870969999999998,75.0,0.39130816666666624
14562,42.0,0.39130816666666624,76.0,0.38216550000000016
14563,49.0,0.38216550000000016,72.0,0.3846154999999998
14564,51.0,0.3846154999999998,73.0,0.3921570000000001
14565,47.0,0.3921570000000001,68.0,0.40000000000000036
14566,54.0,0.40000000000000036,76.0,0.39735100000000045
14567,61.0,0.39735100000000045,68.0,0.3885525833333334
14568,63.0,0.3885525833333334,69.0,0.41562750000000026
14569,58.0,0.41562750000000026,58.0,0.43478249999999985
14570,61.0,0.43478249999999985,59.0,0.4411765000000001
14571,59.0,0.4411765000000001,53.0,0.516321333333333
14572,58.0,0.516321333333333,49.0,1.1111109999999993
14573,57.0,1.1111109999999993,44.0,0.5714284999999997
14574,57.0,1.7142855000000008,40.0,0.43750900000000037
14575,58.0,0.43750900000000037,44.0,0.4208754999999993
14576,57.0,0.4208754999999993,41.0,0.40540550000000053
14577,56.0,0.40540550000000053,44.0,0.4254079999999991
14578,57.0,0.4254079999999991,41.0,0.47938416666666583
14579,60.0,0.47938416666666583,45.0,0.29850733333333324
14580,58.0,0.29850733333333324,41.0,0.3125
14581,54.0,0.3125,44.0,0.3125
14582,54.0,0.3125,43.0,0.7512474166666667
14583,53.0,0.7512474166666667,39.0,0.2702702499999994
14584,56.0,0.2702702499999994,40.0,0.35398233333333273
14585,54.0,0.35398233333333273,39.0,0.3883496666666666
14586,53.0,0.3883496666666666,33.0,0.3999998999999992
14587,53.0,0.444444333333335,31.0,1.0230180000000004
14588,51.0,4.092072000000002,43.0,1.9475794999999962
14589,46.0,1.534526999999997,46.0,0.41305249999999916
14590,29.0,0.41305249999999916,44.0,3.4985581249999953
14591,34.0,0.18268862499999727,48.0,3.315869499999998
14592,49.0,0.22418474999999916,62.0,6.268944249999997
14593,17.0,5.308159749999998,46.0,0.3333334999999984
14594,39.0,0.3333334999999984,48.0,1.4823165000000031
14595,41.0,0.33333350000000195,44.0,1.1489830000000012
14596,45.0,0.2941174999999987,44.0,0.29411750000000225
14597,49.0,0.29411750000000225,49.0,0.28037399999999835
14598,48.0,0.28037399999999835,47.0,0.2803740000000019
14599,46.0,0.2803740000000019,44.0,1.6155930000000005
14600,41.0,0.5357139999999987,33.0,0.5163042187500011
14601,41.0,0.5217390000000002,33.0,0.5523260416666673
14602,53.0,0.5581400000000016,47.0,1.5859229999999975
14603,46.0,0.5263159999999978,33.0,0.5254420312500017
14604,46.0,0.530973000000003,33.0,0.5231273958333347
14605,51.0,0.5286339999999967,47.0,1.6077270000000041
14606,46.0,0.5504590000000036,28.0,0.5231273958333347
14607,46.0,0.5286339999999967,28.0,0.5231273958333347
14608,39.0,0.8184890000000067,48.0,1.4193229999999915
14609,17.0,0.28985499999999575,46.0,1.1294679999999957
14610,45.0,0.2843599999999995,44.0,0.2843599999999995
14611,49.0,0.2843599999999995,49.0,0.2803740000000019
14612,48.0,0.2803740000000019,47.0,0.2803739999999948
14613,46.0,0.2803739999999948,44.0,1.6040149999999969
14614,41.0,0.5286339999999967,33.0,0.511853072916665
14615,41.0,0.5172409999999985,33.0,0.5523260416666673
14616,43.0,0.5581400000000016,44.0,1.6234561666666707
14617,40.0,0.530973000000003,33.0,0.5287876145833295
14618,40.0,0.534343166666666,33.0,0.5523260416666673
14619,45.0,0.5581400000000016,44.0,1.6893859166666658
14620,41.0,0.5741629999999986,28.0,0.5512689583333312
14621,41.0,0.5570829166666655,28.0,0.5523260416666673
14622,39.0,0.8479950000000045,48.0,1.4193229999999915
14623,29.0,0.28985499999999575,46.0,1.1294679999999957
14624,45.0,0.2843599999999995,44.0,0.2843599999999995
14625,49.0,0.2843599999999995,49.0,0.5549068750000004
14626,48.0,0.2803740000000019,47.0,0.2803739999999948
14627,46.0,0.2803739999999948,44.0,1.6299109999999999
14628,41.0,0.5454549999999969,33.0,0.5208335416666685
14629,41.0,0.5263160000000013,33.0,0.5523260416666673
14630,58.0,0.5581400000000016,53.0,1.5753380000000021
14631,52.0,0.530973000000003,33.0,0.4961563020833353
14632,52.0,0.501379,33.0,0.5373298958333308
14633,56.0,0.5429859999999991,50.0,1.5542692499999973
14634,51.0,0.5286339999999967,34.0,0.49950546875000157
14635,51.0,0.5047562499999998,35.0,0.5154531770833302
14636,42.0,0.5208790000000008,48.0,1.7091779999999943
14637,44.0,0.28985500000000286,48.0,0.28985499999999575
14638,20.0,0.28985499999999575,46.0,1.1294679999999957
14639,54.0,0.2843599999999995,46.0,0.2843599999999995
14640,53.0,0.2843599999999995,51.0,0.5549068750000004
14641,52.0,0.4205609999999993,49.0,0.12850474999999761
14642,52.0,0.1401869999999974,46.0,1.618749000000001
14643,48.0,0.5454549999999969,28.0,0.5097878125000008
14644,48.0,0.5151540000000026,28.0,0.5523260416666673
14645,53.0,0.5581400000000016,46.0,1.6103909999999928
14646,49.0,0.5454549999999969,28.0,0.5140697395833342
14647,49.0,0.519480999999999,28.0,0.5397731770833332
14648,51.0,0.5454549999999969,47.0,1.6490500000000026
14649,46.0,0.5581400000000016,33.0,0.5397731770833332
14650,46.0,0.46515199999998913,43.0,0.46515200000000334
14651,37.0,0.46515200000000334,43.0,0.48363700000000165
14652,48.0,0.48363700000000165,56.0,1.4222821666666619
14653,46.0,0.48363700000000165,50.0,0.4691530000000057
14654,42.0,0.4691530000000057,50.0,0.4694921666666545
14655,48.0,0.4694921666666545,51.0,1.5715387500000162
14656,45.0,0.4837132500000081,42.0,0.506015000000005
14657,41.0,0.506015000000005,42.0,0.5818105000000031
14658,48.0,0.26014549999999304,51.0,0.19747225000000412
14659,36.0,0.19747225000000412,51.0,0.5966337500000094
14660,43.0,0.062096374999995874,51.0,0.5345373750000135
14661,48.0,0.062096375000010084,51.0,2.362205000000003
14662,43.0,0.47244100000000344,36.0,0.4675197395833237
14663,43.0,0.47244100000000344,34.0,0.4675197395833237
14664,43.0,0.47244099999998923,34.0,0.4675197395833379
14665,43.0,0.47244100000000344,34.0,0.4675197395833379
14666,48.0,0.47244100000000344,66.0,0.6040200000000056
14667,27.0,0.47244100000000344,42.0,0.5263159999999942
14668,49.0,0.1315790000000021,56.0,0.1315790000000021
14669,48.0,0.1315790000000021,56.0,0.1315790000000021
14670,47.0,0.1315790000000021,57.0,0.1315789999999879
14671,48.0,0.1315789999999879,58.0,0.4937757812499939
14672,58.0,0.125,60.0,0.125
14673,55.0,0.125,61.0,0.12448125000000232
14674,56.0,0.12448125000000232,62.0,0.12448125000000232
14675,56.0,0.12448125000000232,63.0,0.48970346874999393
14676,70.0,0.12396699999999328,64.0,0.12396700000000749
14677,68.0,0.12396700000000749,66.0,0.12345675000000256
14678,67.0,0.12345675000000256,66.0,0.12345675000000256
14679,66.0,0.12345675000000256,67.0,0.4855522812500084
14680,63.0,0.08196716666667214,58.0,0.08196716666665793
14681,60.0,0.08196716666665793,58.0,0.08196716666667214
14682,61.0,0.08196716666667214,62.0,0.08163266666666402
14683,65.0,0.08163266666666402,58.0,0.08163266666666402
14684,63.0,0.08163266666666402,58.0,0.08146675000000414
14685,61.0,0.08146675000000414,66.0,0.5027920833333752
14686,58.0,0.08163266666666402,58.0,0.08196716666667214
14687,56.0,0.08196716666667214,58.0,0.08247458333332247
14688,53.0,0.08247458333332247,62.0,0.08281608333334134
14689,54.0,0.08281608333334134,58.0,0.08634659166666836
14690,55.0,0.08634659166666836,58.0,0.0936229500000394
14691,56.0,0.0936229500000394,63.0,0.5671970249999845
14692,57.0,0.09429636666666852,58.0,0.09472135000000037
14693,60.0,0.09472135000000037,58.0,0.09270129166665697
14694,58.0,0.09270129166665697,58.0,0.09389774999999645
14695,56.0,0.09389774999999645,56.0,0.09512633333332587
14696,54.0,0.09512633333332587,56.0,0.10252189166666881
14697,52.0,0.10252189166666881,64.0,0.519480999999999
14698,53.0,0.519480999999999,66.0,1.530973000000003
14699,41.0,0.5,39.0,0.5
14700,18.0,0.5,40.0,0.530973000000003
14701,51.0,0.530973000000003,56.0,0.49586800000000153
14702,46.0,0.49586800000000153,57.0,0.5217389999999966
14703,49.0,0.5217389999999966,62.0,1.5864159999999998
14704,42.0,0.5405410000000046,35.0,0.5172409999999985
14705,41.0,0.5172409999999985,35.0,1.0572679999999934
14706,45.0,0.5286339999999967,53.0,1.646097999999995
14707,40.0,0.5286339999999967,35.0,0.5405410000000046
14708,39.0,0.5405410000000046,36.0,0.5769229999999936
14709,46.0,0.5769229999999936,47.0,0.5555559999999957
14710,61.0,0.5555559999999957,50.0,1.0045237916666565
14711,53.0,0.26431700000000546,45.0,0.24385024999999416
14712,56.0,0.24385024999999416,48.0,0.4963565416666569
14713,54.0,0.24211904166665477,45.0,0.7852105000000051
14714,21.0,0.2542375000000021,38.0,0.2654864999999944
14715,60.0,0.530973000000003,50.0,0.9908385000000237
14716,52.0,0.2597405000000066,44.0,0.23623874999999828
14717,54.0,0.23623874999999828,49.0,0.49485925000001885
14718,53.0,0.2362387500000125,45.0,0.7475185000000124
14719,22.0,0.25862050000000636,38.0,0.24793400000000076
14720,61.0,0.48889800000000605,50.0,0.9297657500000014
14721,53.0,0.23622050000000172,48.0,0.2234290000000101
14722,56.0,0.2234290000000101,50.0,0.4701162499999896
14723,54.0,0.22720124999999314,47.0,0.7081429999999926
14724,20.0,0.24291499999999644,40.0,0.23622050000000172
14725,59.0,0.4652279999999962,51.0,0.8921717500000028
14726,52.0,0.22471899999999323,47.0,0.21746949999999288
14727,54.0,0.21746949999999288,52.0,0.4499832500000167
14728,53.0,0.21832325000001163,47.0,0.6794210000000049
14729,18.0,0.23166000000000508,41.0,0.22388050000000703
14730,58.0,0.44776099999999985,53.0,0.8519705000000073
14731,50.0,0.21352299999999502,50.0,0.20811274999999796
14732,53.0,0.20811274999999796,53.0,0.4303347500000143
14733,51.0,0.20811275000001217,49.0,0.6383174999999994
14734,15.0,0.22222200000000214,42.0,0.21201399999999637
14735,51.0,0.4160954999999973,54.0,0.8136055000000084
14736,47.0,0.20408150000000091,49.0,0.19912825000000112
14737,49.0,0.19912825000000112,55.0,0.4103957500000064
14738,48.0,0.19912825000000112,49.0,0.6126055000000008
14739,17.0,0.21126750000000527,43.0,0.20066900000000487
14740,54.0,0.40133799999999553,55.0,0.7832099999999969
14741,50.0,0.19292599999999993,53.0,0.19021299999999997
14742,53.0,0.19021299999999997,56.0,0.40007099999999696
14743,51.0,0.19736849999999606,52.0,0.5948594999999983
14744,17.0,0.2027025000000009,44.0,0.1960784999999987
14745,46.0,0.3921569999999974,57.0,0.37735800000000097
14746,41.0,0.18867899999999338,51.0,0.1886790000000076
14747,48.0,0.1886790000000076,57.0,0.38775733333334017
14748,39.0,0.1954395000000062,52.0,0.19231783333333397
14749,49.0,0.19231783333333397,71.0,0.353982000000002
14750,61.0,0.353982000000002,71.0,0.6874316249999879
14751,53.0,0.17430099999999982,67.0,0.1679072083333324
14752,56.0,0.1679072083333324,71.0,0.3452234166666557
14753,54.0,0.17272224999999253,66.0,0.5183231666666615
14754,21.0,0.17250116666666315,62.0,0.17299404166666932
14755,60.0,0.3458219999999983,71.0,0.6632305833333305
14756,52.0,0.16834983333332332,65.0,0.16268374999999935
14757,54.0,0.16268374999999935,72.0,0.33219700000000785
14758,53.0,0.16645100000000923,66.0,0.49361500000000547
14759,22.0,0.16574599999999862,61.0,0.16393449999999632
14760,61.0,0.32786900000000685,72.0,0.6347577500000057
14761,53.0,0.16136945833333982,69.0,0.15568329166667638
14762,56.0,0.15568329166667638,73.0,0.31770499999998947
14763,54.0,0.1585539999999952,67.0,0.15915099999999427
14764,20.0,0.15915099999999427,63.0,0.15503900000000215
14765,59.0,0.3100780000000043,74.0,0.6045207500000203
14766,52.0,0.1524789999999996,67.0,0.14952225000000396
14767,54.0,0.14952225000000396,74.0,0.3025195000000167
14768,53.0,0.1494585000000086,67.0,0.1530610000000081
14769,30.0,0.1530610000000081,62.0,0.14814799999999195
14770,58.0,0.2962960000000123,75.0,0.5820954583332991
14771,50.0,0.147240499999981,71.0,0.1449947083333143
14772,53.0,0.1449947083333143,75.0,0.2898602500000038
14773,51.0,0.1445817500000146,70.0,0.1452784999999892
14774,15.0,0.1452784999999892,66.0,0.14492749999999432
14775,51.0,0.28985499999998865,75.0,0.5656999999999641
14776,47.0,0.1421799999999962,69.0,0.14080549999999903
14777,49.0,0.14080549999999903,76.0,0.2827144999999689
14778,48.0,0.1405344999999727,69.0,0.1421799999999962
14779,17.0,0.1421799999999962,64.0,0.14117650000000026
14780,54.0,0.2823530000000005,76.0,0.5528538333333586
14781,50.0,0.1396498333333227,73.0,0.13747875000001386
14782,53.0,0.13747875000001386,77.0,0.275725250000022
14783,51.0,0.13715725000002976,71.0,0.13856799999999225
14784,17.0,0.13856799999999225,67.0,0.13761450000001219
14785,45.0,0.27522899999999595,78.0,0.5449562499999843
14786,40.0,0.13636349999998743,71.0,0.1347005000000081
14787,42.0,0.1347005000000081,71.0,0.4952942500000006
14788,41.0,0.1356432499999869,71.0,0.13824900000000184
14789,46.0,0.13824900000000184,79.0,0.22140200000001187
14790,39.0,0.22140200000001187,78.0,0.21428549999998836
14791,37.0,0.10714275000000839,65.0,0.10714274999997997
14792,36.0,0.10714274999997997,64.0,0.10714275000000839
14793,34.0,0.10714275000000839,65.0,0.10714275000000839
14794,46.0,0.10714275000000839,77.0,0.21977999999998588
14795,39.0,0.21977999999998588,77.0,0.42857100000000514
14796,37.0,0.10714275000000839,64.0,0.10714274999997997
14797,36.0,0.10714274999997997,64.0,0.10714275000000839
14798,34.0,0.10714275000000839,63.0,0.10714275000000839
14799,44.0,0.10714275000000839,69.0,0.8614067083333055
14800,39.0,0.10909100000000649,52.0,0.10909100000000649
14801,42.0,0.10909100000000649,54.0,0.6432247083332925
14802,33.0,0.10909099999997807,55.0,0.10714275000000839
14803,39.0,0.10714275000000839,57.0,0.10714274999997997
14804,42.0,0.10714274999997997,58.0,0.10714275000000839
14805,45.0,0.10714275000000839,60.0,0.10663533333334385
14806,51.0,0.10663533333334385,62.0,0.10607012499997381
14807,56.0,0.10607012499997381,63.0,0.21239262500000677
14808,54.0,0.10582037500000752,65.0,0.10657224999999926
14809,53.0,0.10657224999999926,67.0,0.21524862499998676
14810,51.0,0.10733487499999228,68.0,0.10791374999999448
14811,58.0,0.10791374999999448,79.0,0.11070100000000593
14812,51.0,0.22140200000001187,78.0,0.42857100000000514
14813,49.0,0.10714275000000839,65.0,0.10714274999997997
14814,48.0,0.10714274999997997,64.0,0.10714275000000839
14815,46.0,0.10714275000000839,65.0,0.10714275000000839
14816,58.0,0.10714275000000839,77.0,0.21977999999998588
14817,51.0,0.21977999999998588,77.0,0.42857100000000514
14818,49.0,0.10714275000000839,64.0,0.10714274999997997
14819,48.0,0.10714274999997997,64.0,0.10714275000000839
14820,46.0,0.10714275000000839,63.0,0.10714275000000839
14821,56.0,0.10714275000000839,69.0,0.8614067083333055
14822,51.0,0.10909100000000649,52.0,0.10909100000000649
14823,54.0,0.10909100000000649,54.0,0.6432247083332925
14824,45.0,0.10909099999997807,55.0,0.10714275000000839
14825,51.0,0.10714275000000839,57.0,0.10714274999997997
14826,54.0,0.10714274999997997,58.0,0.10714275000000839
14827,57.0,0.10714275000000839,60.0,0.10663533333334385
14828,63.0,0.10663533333334385,62.0,0.10607012499997381
14829,68.0,0.10607012499997381,63.0,0.21239262500000677
14830,66.0,0.10582037500000752,65.0,0.10657224999999926
14831,65.0,0.10657224999999926,67.0,0.21524862499998676
14832,63.0,0.10733487499999228,68.0,0.10791374999999448
14833,70.0,0.10791374999999448,76.0,0.11070100000000593
14834,75.0,0.3321029999999894,75.0,0.10752700000000459
14835,73.0,0.10752700000000459,68.0,0.10752700000000459
14836,65.0,0.10752700000000459,68.0,0.10752700000000459
14837,73.0,0.10752700000000459,73.0,0.21264333333328977
14838,72.0,0.10657366666663393,67.0,0.10606966666665585
14839,65.0,0.10606966666665585,66.0,0.21245616666666933
14840,61.0,0.10582037500000752,71.0,0.10663579166666182
14841,60.0,0.10663579166666182,64.0,0.21428549999998836
14842,53.0,0.10714274999997997,64.0,0.10714275000000839
14843,63.0,0.10714275000000839,66.0,0.11029400000001033
14844,61.0,0.11029400000001033,60.0,0.1102939999999819
14845,65.0,0.1102939999999819,60.0,0.4322075833333372
14846,75.0,0.11278200000000993,74.0,0.10752700000000459
14847,73.0,0.10752700000000459,68.0,0.21189858333332268
14848,65.0,0.10626483333334136,69.0,0.10563374999998132
14849,73.0,0.10563374999998132,71.0,0.21114400000001865
14850,72.0,0.10563375000000974,64.0,0.10551025000000891
14851,65.0,0.10551025000000891,63.0,0.2115186249999681
14852,61.0,0.10544849999999428,66.0,0.10607012499997381
14853,60.0,0.10607012499997381,60.0,0.21352300000000923
14854,53.0,0.10676150000000462,60.0,0.10676150000000462
14855,63.0,0.10676150000000462,66.0,0.22058799999999223
14856,61.0,0.11029400000001033,60.0,0.1102939999999819
14857,65.0,0.1102939999999819,60.0,0.11278200000000993
14858,75.0,0.11278200000000993,74.0,0.10733633333333614
14859,73.0,0.10733633333333614,68.0,0.2127659999999878
14860,65.0,0.1063829999999939,69.0,0.1063829999999939
14861,73.0,0.1063829999999939,71.0,0.21276600000001622
14862,72.0,0.10638300000002232,64.0,0.1063829999999939
14863,65.0,0.1063829999999939,63.0,0.21333466666666823
14864,61.0,0.10644608333333849,66.0,0.10688858333332973
14865,60.0,0.10688858333332973,60.0,0.21428549999998836
14866,53.0,0.10714274999997997,60.0,0.10714275000000839
14867,51.0,0.10714275000000839,59.0,0.11029400000001033
14868,49.0,0.11029400000001033,54.0,0.1102939999999819
14869,53.0,0.1102939999999819,54.0,0.4353630000000237
14870,63.0,0.11278200000000993,66.0,0.10752700000000459
14871,61.0,0.10752700000000459,61.0,0.21505400000000918
14872,53.0,0.10752700000000459,62.0,0.10752700000000459
14873,61.0,0.10752700000000459,63.0,0.21441508333330717
14874,60.0,0.10746295833331487,57.0,0.10695212499999229
14875,53.0,0.10695212499999229,56.0,0.21397158333331845
14876,49.0,0.10657224999999926,59.0,0.10739933333331919
14877,48.0,0.10739933333331919,54.0,0.21582750000001738
14878,41.0,0.10791374999999448,54.0,0.1079137500000229
14879,51.0,0.1079137500000229,59.0,0.22058799999999223
14880,49.0,0.11029400000001033,54.0,0.1102939999999819
14881,53.0,0.1102939999999819,54.0,0.22030900000001452
14882,63.0,0.11278200000000993,59.0,0.10752700000000459
14883,61.0,0.10752700000000459,54.0,0.10752700000000459
14884,53.0,0.10752700000000459,55.0,0.11111099999999396
14885,28.0,0.11111099999999396,58.0,0.21505400000000918
14886,58.0,0.10752700000000459,51.0,0.10752700000000459
14887,49.0,0.10752700000000459,50.0,0.21505399999998076
14888,54.0,0.10752700000000459,53.0,0.10752699999997617
14889,53.0,0.10752699999997617,48.0,0.10752700000000459
14890,46.0,0.10752700000000459,48.0,0.10752700000000459
14891,10.0,0.10752700000000459,49.0,0.22058799999999223
14892,49.0,0.11029400000001033,40.0,0.1102939999999819
14893,41.0,0.1102939999999819,40.0,0.22030900000001452
14894,48.0,0.11278200000000993,50.0,0.10752700000000459
14895,46.0,0.10752700000000459,45.0,0.10752700000000459
14896,37.0,0.10752700000000459,46.0,0.11152425000000221
14897,16.0,0.11152425000000221,49.0,0.21505400000000918
14898,41.0,0.10752700000000459,43.0,0.10752700000000459
14899,34.0,0.10752700000000459,42.0,0.21505399999998076
14900,39.0,0.10752700000000459,45.0,0.10752699999997617
14901,37.0,0.10752699999997617,40.0,0.10752700000000459
14902,29.0,0.10752700000000459,40.0,0.1094889999999964
14903,39.0,0.1094889999999964,53.0,0.22058799999999223
14904,37.0,0.11029400000001033,48.0,0.1102939999999819
14905,29.0,0.1102939999999819,48.0,0.11278200000000993
14906,41.0,0.11278200000000993,55.0,0.10752700000000459
14907,39.0,0.10752700000000459,50.0,0.2190512500000068
14908,30.0,0.10752700000000459,51.0,0.11152425000000221
14909,39.0,0.11152425000000221,54.0,0.21505400000000918
14910,37.0,0.10752700000000459,50.0,0.10752700000000459
14911,29.0,0.10752700000000459,50.0,0.10752700000000459
14912,41.0,0.10752700000000459,53.0,0.10752699999997617
14913,39.0,0.10752699999997617,48.0,0.21822800000001052
14914,30.0,0.10752700000000459,48.0,0.11070100000000593
14915,39.0,0.11070100000000593,53.0,0.22058799999999223
14916,37.0,0.11029400000001033,48.0,0.1102939999999819
14917,29.0,0.1102939999999819,48.0,0.11278200000000993
14918,41.0,0.11278200000000993,55.0,0.10752700000000459
14919,39.0,0.10752700000000459,50.0,0.2190512500000068
14920,30.0,0.10752700000000459,51.0,0.11152425000000221
14921,39.0,0.11152425000000221,54.0,0.21505400000000918
14922,37.0,0.10752700000000459,50.0,0.10752700000000459
14923,29.0,0.10752700000000459,50.0,0.10752700000000459
14924,41.0,0.10752700000000459,53.0,0.10752699999997617
14925,39.0,0.10752699999997617,48.0,0.21822800000001052
14926,30.0,0.10752700000000459,48.0,0.11070100000000593
14927,34.0,0.11070100000000593,50.0,0.6785485416667143
14928,41.0,0.11560725000001071,51.0,0.11457745833334343
14929,37.0,0.11457745833334343,52.0,0.1135653750000074
14930,41.0,0.1135653750000074,53.0,0.11257075000000327
14931,46.0,0.11257075000000327,55.0,0.11159404166667741
14932,49.0,0.11159404166667741,56.0,0.11063366666667207
14933,53.0,0.11063366666667207,57.0,0.11015983333334134
14934,58.0,0.11015983333334134,58.0,0.1111804166666559
14935,61.0,0.1111804166666559,59.0,0.2067017500000361
14936,65.0,0.11229016666669622,61.0,0.1134230000000116
14937,53.0,0.38267700000000104,48.0,1.1889342499999884
14938,46.0,0.4013649999999984,30.0,0.38464124999998717
14939,53.0,0.38464124999998717,37.0,0.40292800000000284
14940,49.0,0.40292800000000284,40.0,1.1906920000000127
14941,32.0,0.40292800000000284,29.0,0.39388199999999074
14942,37.0,0.39388199999999074,29.0,0.39388200000001916
14943,61.0,0.39388200000001916,60.0,0.7809784999999749
14944,44.0,0.39388199999999074,32.0,0.3870964999999842
14945,61.0,0.3870964999999842,56.0,0.41302400000000716
14946,61.0,0.41302400000000716,59.0,0.7858540000000005
14947,42.0,0.39682500000000687,30.0,0.38902899999999363
14948,59.0,0.38902899999999363,55.0,0.40755300000000716
14949,59.0,0.40755300000000716,59.0,0.38074574999998845
14950,58.0,0.38074574999998845,56.0,0.3878822500000183
14951,57.0,0.3878822500000183,55.0,0.4148519999999962
14952,57.0,0.4148519999999962,58.0,0.7906700000000058
14953,41.0,0.39533499999998867,29.0,0.3953350000000171
14954,58.0,0.3953350000000171,56.0,0.8013440000000003
14955,35.0,0.39533499999998867,28.0,0.4060090000000116
14956,59.0,0.4060090000000116,62.0,0.5892069999999876
14957,46.0,0.39388199999999074,29.0,0.40072000000000685
14958,54.0,0.19532499999999686,56.0,0.20539500000001
14959,58.0,0.20539500000001,59.0,0.7937780000000032
14960,39.0,0.4013649999999984,31.0,0.3924130000000048
14961,56.0,0.3924130000000048,50.0,0.7923959999999965
14962,34.0,0.3924130000000048,30.0,0.39998299999999176
14963,58.0,0.39998299999999176,59.0,0.588619499999993
14964,44.0,0.3924130000000048,30.0,0.39841749999999365
14965,53.0,0.19620649999998818,53.0,0.20221100000000547
14966,56.0,0.20221100000000547,59.0,0.38112200000000485
14967,54.0,0.38112200000000485,55.0,0.3906499999999937
14968,53.0,0.3906499999999937,55.0,0.3906499999999937
14969,51.0,0.3906499999999937,55.0,0.39065000000002215
14970,53.0,0.13021666666668352,50.0,0.1302166666666551
14971,51.0,0.1302166666666551,50.0,0.13021666666668352
14972,50.0,0.13021666666668352,53.0,0.39523708333334184
14973,51.0,0.19632108333334486,50.0,0.19891599999999698
14974,53.0,0.19891599999999698,50.0,0.40589441666668336
14975,54.0,0.2017092500000217,50.0,0.1530395416666579
14976,39.0,0.1530395416666579,30.0,1.2691726250000102
14977,32.0,0.05114562500000375,36.0,1.2180270000000064
14978,35.0,0.4060090000000116,29.0,0.4060089999999832
14979,25.0,0.4060089999999832,29.0,0.4060090000000116
14980,46.0,0.4060090000000116,42.0,1.1834460000000036
14981,39.0,0.40292800000000284,31.0,0.38518300000001204
14982,46.0,0.38518300000001204,37.0,0.39533499999998867
14983,42.0,0.39533499999998867,42.0,1.568206000000032
14984,25.0,0.3953350000000171,30.0,0.388023000000004
14985,30.0,0.388023000000004,27.0,0.388023000000004
14986,34.0,0.388023000000004,31.0,0.39682500000000687
14987,54.0,0.39682500000000687,55.0,0.5791282499999966
14988,42.0,0.3799647499999992,28.0,0.40617449999999167
14989,53.0,0.19916349999999738,44.0,0.20701099999999428
14990,51.0,0.20701099999999428,53.0,1.174252999999993
14991,42.0,0.39533499999998867,30.0,0.389458999999988
14992,32.0,0.389458999999988,25.0,0.38945900000001643
14993,53.0,0.38945900000001643,52.0,1.1869700000000023
14994,46.0,0.4013649999999984,30.0,0.38267700000000104
14995,53.0,0.38267700000000104,47.0,0.40292800000000284
14996,49.0,0.40292800000000284,49.0,1.1906920000000127
14997,32.0,0.40292800000000284,32.0,0.39388199999999074
14998,37.0,0.39388199999999074,32.0,0.39388200000001916
14999,61.0,0.39388200000001916,66.0,0.7931969583333398
15000,44.0,0.40417600000000675,37.0,0.39729800000000637
15001,61.0,0.39729800000000637,60.0,0.47592599999998697
15002,61.0,0.47592599999998697,68.0,1.201203000000021
15003,43.0,0.39682500000000687,30.0,0.39682500000000687
15004,37.0,0.39682500000000687,26.0,0.40755300000000716
15005,51.0,0.40755300000000716,61.0,1.216871000000026
15006,43.0,0.39682500000000687,27.0,0.39682500000000687
15007,53.0,0.39682500000000687,55.0,0.4232210000000123
15008,54.0,0.4232210000000123,60.0,1.223984999999999
15009,56.0,0.13379699999998707,53.0,0.1337970000000155
15010,54.0,0.1337970000000155,53.0,0.13379699999998707
15011,53.0,0.13379699999998707,52.0,0.4112969999999905
15012,54.0,0.4112969999999905,55.0,0.4112970000000189
15013,58.0,0.4112970000000189,56.0,0.4247489999999914
15014,58.0,0.4247489999999914,61.0,0.557909333333356
15015,35.0,0.4070000000000107,31.0,0.4733453333333273
15016,56.0,0.15090933333334533,48.0,0.1509093333333169
15017,54.0,0.1509093333333169,48.0,0.15008583333332126
15018,54.0,0.17152666666666505,50.0,1.4716175000000078
15019,25.0,0.25879900000001044,26.0,0.24896250000000464
15020,34.0,0.24896250000000464,31.0,0.24096399999999107
15021,30.0,0.24096399999999107,27.0,0.2409640000000195
15022,37.0,0.2409640000000195,31.0,0.24096399999999107
15023,34.0,0.24096399999999107,27.0,0.24096399999999107
15024,42.0,0.24096399999999107,32.0,0.48192800000001057
15025,46.0,0.48192800000001057,36.0,0.24590150000000222
15026,47.0,0.24590150000000222,34.0,0.24590150000000222
15027,49.0,0.24590150000000222,37.0,0.1569120000000055
15028,53.0,0.1569120000000055,34.0,0.1569120000000055
15029,51.0,0.1569120000000055,34.0,0.17735200000001328
15030,49.0,0.17735200000001328,42.0,1.43858800000001
15031,25.0,0.2433680000000038,22.0,0.23904400000000692
15032,34.0,0.23904400000000692,26.0,0.23904400000000692
15033,30.0,0.23904400000000692,22.0,0.2390439999999785
15034,37.0,0.2390439999999785,26.0,0.23904400000000692
15035,34.0,0.23904400000000692,22.0,0.23904400000000692
15036,42.0,0.23904400000000692,27.0,0.4780879999999854
15037,46.0,0.4780879999999854,36.0,0.24291500000001065
15038,47.0,0.24291500000001065,34.0,0.24291499999998223
15039,49.0,0.24291499999998223,37.0,0.15816983333334633
15040,53.0,0.15816983333334633,34.0,0.1569120000000055
15041,51.0,0.1569120000000055,34.0,0.17735200000001328
15042,49.0,0.17735200000001328,42.0,1.43858800000001
15043,25.0,0.2433680000000038,22.0,0.23904400000000692
15044,35.0,0.23904400000000692,26.0,0.23904400000000692
15045,32.0,0.23904400000000692,22.0,0.2390439999999785
15046,37.0,0.2390439999999785,26.0,0.23904400000000692
15047,35.0,0.23904400000000692,22.0,0.23904400000000692
15048,41.0,0.23904400000000692,27.0,0.4780879999999854
15049,44.0,0.4780879999999854,36.0,0.24291500000001065
15050,47.0,0.24291500000001065,34.0,0.24291499999998223
15051,49.0,0.24291499999998223,37.0,0.15816983333334633
15052,53.0,0.15816983333334633,34.0,0.1569120000000055
15053,51.0,0.1569120000000055,34.0,0.17735200000001328
15054,49.0,0.17735200000001328,42.0,0.6546903333333489
15055,25.0,0.2433680000000038,25.0,0.2433680000000038
15056,34.0,0.2433680000000038,28.0,0.49529950000001577
15057,40.0,0.1679543333333413,34.0,0.494583166666672
15058,42.0,0.16509983333332912,34.0,0.16224533333334534
15059,46.0,0.16224533333334534,39.0,0.16723799999999756
15060,51.0,0.16723799999999756,34.0,0.16723799999999756
15061,49.0,0.16723799999999756,35.0,0.16723799999999756
15062,47.0,0.16723799999999756,38.0,0.7270379999999932
15063,30.0,0.24234599999999773,25.0,0.24234599999999773
15064,35.0,0.24234599999999773,29.0,0.48469199999999546
15065,38.0,0.24234599999999773,37.0,0.4788770000000113
15066,42.0,0.24234599999999773,38.0,0.2365310000000136
15067,44.0,0.2365310000000136,35.0,0.2558080000000018
15068,46.0,0.2558080000000018,46.0,1.4761299999999835
15069,25.0,0.25419400000001247,22.0,0.25419399999998404
15070,34.0,0.25419399999998404,26.0,0.24193550000001096
15071,30.0,0.24193550000001096,22.0,0.24193549999998254
15072,37.0,0.24193549999998254,26.0,0.24193550000001096
15073,34.0,0.24193550000001096,22.0,0.24193549999998254
15074,42.0,0.24193549999998254,27.0,0.49382700000001023
15075,46.0,0.49382700000001023,36.0,0.2469134999999767
15076,47.0,0.2469134999999767,34.0,0.24691350000000511
15077,49.0,0.24691350000000511,37.0,0.1569120000000055
15078,53.0,0.1569120000000055,34.0,0.1569120000000055
15079,51.0,0.1569120000000055,34.0,0.17735200000001328
15080,49.0,0.17735200000001328,42.0,0.4954544999999939
15081,25.0,0.23904400000000692,22.0,0.256410499999987
15082,61.0,0.256410499999987,51.0,1.4435181666666779
15083,30.0,0.24291500000001065,22.0,0.24291499999998223
15084,37.0,0.24291499999998223,26.0,0.24291500000001065
15085,34.0,0.24291500000001065,22.0,0.24291499999998223
15086,42.0,0.24291499999998223,27.0,0.4718581666666921
15087,46.0,0.6338015000000325,36.0,0.16194333333334043
15088,47.0,0.16194333333334043,34.0,0.161943333333312
15089,49.0,0.161943333333312,37.0,0.15816983333334633
15090,53.0,0.15816983333334633,34.0,0.1569120000000055
15091,51.0,0.1569120000000055,34.0,0.17735200000001328
15092,49.0,0.17735200000001328,42.0,0.49466449999999895
15093,25.0,0.23715400000000386,22.0,0.2575104999999951
15094,61.0,0.2575104999999951,50.0,1.4401829999999904
15095,32.0,0.24193550000001096,22.0,0.24193549999998254
15096,37.0,0.24193549999998254,26.0,0.24193550000001096
15097,35.0,0.24193550000001096,22.0,0.24193549999998254
15098,41.0,0.24193549999998254,27.0,0.47244100000000344
15099,44.0,0.6337313333333441,36.0,0.16129033333331222
15100,47.0,0.16129033333331222,34.0,0.16129033333334064
15101,49.0,0.16129033333334064,37.0,0.15800658333333217
15102,53.0,0.15800658333333217,34.0,0.1569120000000055
15103,51.0,0.1569120000000055,34.0,0.17735200000001328
15104,49.0,0.17735200000001328,42.0,0.6546903333333489
15105,25.0,0.2433680000000038,25.0,0.2433680000000038
15106,34.0,0.2433680000000038,28.0,0.49529950000001577
15107,40.0,0.1679543333333413,34.0,0.494583166666672
15108,42.0,0.16509983333332912,34.0,0.16224533333334534
15109,46.0,0.16224533333334534,39.0,0.16723799999999756
15110,51.0,0.16723799999999756,34.0,0.16723799999999756
15111,49.0,0.16723799999999756,35.0,0.16723799999999756
15112,47.0,0.16723799999999756,38.0,0.7270379999999932
15113,30.0,0.24234599999999773,25.0,0.24234599999999773
15114,35.0,0.24234599999999773,29.0,0.48469199999999546
15115,38.0,0.24234599999999773,37.0,0.4788770000000113
15116,42.0,0.24234599999999773,38.0,0.2365310000000136
15117,44.0,0.2365310000000136,35.0,0.2558080000000018
15118,46.0,0.2558080000000018,46.0,1.7309114999999906
15119,25.0,0.25419400000001247,22.0,0.25419399999998404
15120,34.0,0.25419399999998404,26.0,0.24390249999999014
15121,30.0,0.24390249999999014,22.0,0.24390250000001856
15122,37.0,0.24390250000001856,26.0,0.24390249999999014
15123,34.0,0.24390249999999014,22.0,0.24390249999999014
15124,42.0,0.24390249999999014,27.0,0.49382700000001023
15125,46.0,0.24691350000000511,34.0,0.24691350000000511
15126,49.0,0.24691350000000511,36.0,0.2469134999999767
15127,58.0,0.2469134999999767,37.0,0.24691350000000511
15128,56.0,0.24691350000000511,40.0,0.23536799999999403
15129,54.0,0.23536799999999403,37.0,0.25580800000003023
15130,53.0,0.25580800000003023,46.0,1.7463180000000023
15131,29.0,0.25419400000001247,22.0,0.25419399999998404
15132,37.0,0.25419399999998404,26.0,0.24758600000001252
15133,34.0,0.24758600000001252,22.0,0.2475859999999841
15134,41.0,0.2475859999999841,26.0,0.24758600000001252
15135,37.0,0.24758600000001252,22.0,0.2475859999999841
15136,46.0,0.2475859999999841,27.0,0.4951719999999966
15137,49.0,0.24758600000001252,34.0,0.2475859999999841
15138,53.0,0.2475859999999841,36.0,0.24758600000001252
15139,61.0,0.24758600000001252,37.0,0.2475859999999841
15140,53.0,0.2475859999999841,40.0,0.23536799999999403
15141,54.0,0.23536799999999403,37.0,0.25580800000003023
15142,55.0,0.25580800000003023,46.0,0.5083879999999965
15143,32.0,0.25419400000001247,22.0,0.25419399999998404
15144,56.0,0.25419399999998404,46.0,1.2379300000000057
15145,37.0,0.24758600000001252,22.0,0.2475859999999841
15146,44.0,0.2475859999999841,26.0,0.24758600000001252
15147,41.0,0.24758600000001252,22.0,0.2475859999999841
15148,49.0,0.2475859999999841,27.0,0.5040620000000047
15149,53.0,0.24758600000001252,39.0,0.25647599999999215
15150,56.0,0.25647599999999215,43.0,0.2564760000000206
15151,65.0,0.2564760000000206,50.0,0.25647599999999215
15152,63.0,0.25647599999999215,46.0,0.24758600000001252
15153,61.0,0.24758600000001252,41.0,0.25988066666667464
15154,59.0,0.25988066666667464,45.0,0.2660279999999773
15155,60.0,0.2660279999999773,40.0,0.2660280000000057
15156,68.0,0.2660280000000057,51.0,0.2660280000000057
15157,67.0,0.2660280000000057,46.0,0.2660280000000057
15158,65.0,0.2660280000000057,45.0,0.2660280000000057
15159,60.0,0.2660280000000057,40.0,0.2660279999999773
15160,53.0,0.2660279999999773,40.0,0.2668437499999925
15161,48.0,0.2668437499999925,36.0,0.26998125000002915
15162,44.0,0.26998125000002915,39.0,0.27366850000001364
15163,41.0,0.27366850000001364,34.0,0.2767519999999877
15164,43.0,0.2767519999999877,39.0,0.24512475000000222
15165,46.0,0.24512475000000222,31.0,0.08170824999999127
15166,44.0,0.08170824999999127,36.0,0.3268329999999935
15167,31.0,0.3268329999999935,28.0,1.9609980000000178
15168,19.0,0.6536660000000154,25.0,0.653665999999987
15169,19.0,0.653665999999987,25.0,0.6536660000000154
15170,41.0,0.9687590000000057,38.0,1.4012450000000172
15171,19.0,0.3150930000000187,39.0,1.0861519999999985
15172,47.0,0.2780349999999885,37.0,0.2780350000000169
15173,51.0,0.2780350000000169,41.0,0.26504099999999653
15174,50.0,0.26504099999999653,39.0,0.26504099999999653
15175,48.0,0.26504099999999653,37.0,1.527245000000022
15176,43.0,0.5064150000000041,28.0,0.4880803124999886
15177,43.0,0.49321800000001303,28.0,0.5221160416666635
15178,55.0,0.5276120000000049,41.0,1.4991449999999986
15179,48.0,0.4975120000000004,28.0,0.496695625000001
15180,48.0,0.5019240000000025,28.0,0.49450369791665594
15181,53.0,0.49970899999999574,39.0,1.5197539999999776
15182,48.0,0.5203359999999861,28.0,0.49450369791665594
15183,48.0,0.49970899999999574,28.0,0.49450369791668436
15184,41.0,0.773706500000003,40.0,1.3309474999999793
15185,19.0,0.2739974999999788,39.0,1.0569500000000005
15186,47.0,0.26881700000001274,37.0,0.2688169999999843
15187,51.0,0.2688169999999843,41.0,0.25462550000000306
15188,50.0,0.25462550000000306,39.0,0.2646905000000004
15189,48.0,0.2646905000000004,37.0,1.5162789999999973
15190,43.0,0.49970899999999574,28.0,0.4838646874999881
15191,43.0,0.4889579999999967,28.0,0.5221160416666635
15192,45.0,0.5276120000000049,37.0,1.5346481666666705
15193,43.0,0.5019240000000025,28.0,0.49986051041668134
15194,43.0,0.5051121666666631,28.0,0.5221160416666635
15195,47.0,0.5276120000000049,37.0,1.5969637500000147
15196,43.0,0.5427410000000066,23.0,0.5211147916666619
15197,43.0,0.5266107500000032,23.0,0.5221160416666635
15198,41.0,0.8016095000000121,40.0,1.3257179999999948
15199,19.0,0.2739974999999788,39.0,1.051720500000016
15200,47.0,0.26881700000001274,37.0,0.2688169999999843
15201,51.0,0.2688169999999843,41.0,0.5085408020833313
15202,50.0,0.2478930000000048,39.0,0.2661935000000142
15203,48.0,0.2661935000000142,37.0,1.5312520000000234
15204,43.0,0.5155970000000138,28.0,0.48295921875001113
15205,43.0,0.48804300000000467,28.0,0.5221160416666635
15206,55.0,0.5276120000000049,53.0,1.4752440000000036
15207,51.0,0.49180300000000443,32.0,0.4613437499999975
15208,51.0,0.4661999999999864,32.0,0.511853072916665
15209,57.0,0.5172410000000127,53.0,1.4459704999999587
15210,51.0,0.5020920000000046,32.0,0.46692132291664734
15211,51.0,0.4717297499999802,32.0,0.46719393749998517
15212,39.0,0.7388152499999592,40.0,1.2895485000000235
15213,19.0,0.2666665000000421,39.0,1.0228819999999814
15214,47.0,0.2608695000000125,37.0,0.2608695000000125
15215,50.0,0.2608695000000125,41.0,0.49586695833329486
15216,48.0,0.24789299999997638,39.0,0.25324999999998
15217,48.0,0.25324999999998,37.0,1.5407209999999623
15218,43.0,0.5155970000000138,28.0,0.4923295833333441
15219,43.0,0.497511999999972,28.0,0.5221160416666635
15220,57.0,0.5276119999999764,55.0,1.4733945000000404
15221,51.0,0.48979600000001255,34.0,0.4653904583333315
15222,51.0,0.4702955000000202,36.0,0.5079560937500105
15223,59.0,0.5133030000000076,58.0,1.45981450000005
15224,57.0,0.3203082083333584,79.0,0.31598900000000185
15225,59.0,0.07899724999998625,79.0,0.07899724999998625
15226,57.0,0.07899724999998625,83.0,0.15799450000002935
15227,56.0,0.15799450000002935,77.0,0.31503545833328417
15228,57.0,0.15753845833330615,79.0,0.15749699999997802
15229,43.0,0.15749699999997802,84.0,0.3140145833333463
15230,61.0,0.15702858333338554,84.0,0.15698599999996077
15231,62.0,0.15698599999996077,86.0,0.3164619583333774
15232,64.0,0.15690545833336955,89.0,0.15955650000000787
15233,65.0,0.15955650000000787,91.0,0.3275682083333322
15234,67.0,0.1622525416667031,94.0,0.1653156666666291
15235,69.0,0.1653156666666291,113.0,0.32049599999999145
15236,39.0,0.32049599999999145,74.0,0.31476199999997334
15237,42.0,0.31476199999997334,74.0,0.3147620000000302
15238,59.0,0.3147620000000302,94.0,0.6352579999999648
15239,42.0,0.32049599999999145,74.0,0.31476199999997334
15240,59.0,0.31476199999997334,94.0,0.3147620000000302
15241,19.0,0.3147620000000302,84.0,0.6362972083333602
15242,59.0,0.16024800000002415,74.0,0.16006020833333423
15243,60.0,0.16006020833333423,79.0,0.31598900000000185
15244,59.0,0.1579944999999725,74.0,0.15799450000002935
15245,58.0,0.15799450000002935,77.0,0.31503545833328417
15246,59.0,0.15753845833330615,79.0,0.15749699999997802
15247,45.0,0.15749699999997802,84.0,0.3140145833333463
15248,63.0,0.15702858333338554,84.0,0.15698599999996077
15249,64.0,0.15698599999996077,86.0,0.3164619583333774
15250,66.0,0.15690545833336955,89.0,0.15955650000000787
15251,67.0,0.15955650000000787,91.0,0.3275682083333322
15252,69.0,0.1622525416667031,94.0,0.1653156666666291
15253,71.0,0.1653156666666291,113.0,0.32049599999999145
15254,31.0,0.32049599999999145,74.0,0.31476199999997334
15255,43.0,0.31476199999997334,74.0,0.3147620000000302
15256,59.0,0.3147620000000302,94.0,0.6352579999999648
15257,38.0,0.32049599999999145,74.0,0.31476199999997334
15258,59.0,0.31476199999997334,94.0,0.3147620000000302
15259,28.0,0.3147620000000302,84.0,0.3203082083333584
15260,61.0,0.08012400000001207,74.0,0.08012400000001207
15261,59.0,0.08012400000001207,74.0,0.16006020833333423
15262,58.0,0.16006020833333423,77.0,0.31598900000000185
15263,59.0,0.1579944999999725,79.0,0.15799450000002935
15264,61.0,0.15799450000002935,82.0,0.31503545833328417
15265,62.0,0.15753845833330615,86.0,0.15749699999997802
15266,64.0,0.15749699999997802,90.0,0.3140145833333463
15267,66.0,0.15702858333338554,93.0,0.15698599999996077
15268,68.0,0.15698599999996077,95.0,0.3164619583333774
15269,70.0,0.15690545833336955,101.0,0.15955650000000787
15270,71.0,0.15955650000000787,101.0,0.3275682083333322
15271,73.0,0.1622525416667031,102.0,0.1653156666666291
15272,74.0,0.1653156666666291,112.0,0.375
15273,71.0,0.375,85.0,0.10752700000000459
15274,68.0,0.10752700000000459,79.0,0.10714274999997997
15275,66.0,0.10714274999997997,78.0,0.10676150000000462
15276,62.0,0.10676150000000462,77.0,0.10625766666663594
15277,32.0,0.026595750000012686,52.0,0.5008465833332707
15278,38.0,0.026595750000012686,54.0,0.474250833333258
15279,42.0,0.026564416666644775,56.0,0.44768641666661324
15280,59.0,0.026501749999965796,80.0,0.42118466666664744
15281,56.0,0.10588258333331169,78.0,0.10551025000000891
15282,54.0,0.10551025000000891,73.0,0.10514050000000452
15283,50.0,0.10514050000000452,73.0,0.10465133333332233
15284,47.0,0.10465133333332233,74.0,0.10428766666666434
15285,44.0,0.10428766666666434,64.0,0.10392641666669533
15286,42.0,0.10392641666669533,64.0,0.103806249999991
15287,38.0,0.103806249999991,63.0,0.103806249999991
15288,38.0,0.103806249999991,69.0,0.10416674999999032
15289,32.0,0.10416674999999032,61.0,0.10416674999999032
15290,30.0,0.10416674999999032,60.0,0.10440858333333836
15291,26.0,0.10440858333333836,60.0,0.10452950000001238
15292,35.0,0.10452950000001238,60.0,0.10465133333332233
15293,32.0,0.10465133333332233,62.0,0.10489499999999907
15294,30.0,0.10489499999999907,52.0,0.10489499999999907
15295,26.0,0.10489499999999907,52.0,0.10526325000000725
15296,35.0,0.10526325000000725,52.0,0.21077350000001616
15297,32.0,0.10526325000000725,51.0,0.10551025000000891
15298,37.0,0.10551025000000891,52.0,0.19629349999996748
15299,35.0,0.09836074999998345,48.0,0.10607606249999435
15300,38.0,0.09793274999998403,52.0,0.19449133333336022
15301,32.0,0.0975082500000326,47.0,0.10504760416665704
15302,37.0,0.09698308333332761,47.0,0.10457956250002098
15303,35.0,0.09656675000002224,47.0,0.10441262500000903
15304,38.0,0.0960514166666826,52.0,0.20066900000000487
15305,32.0,0.10033449999997401,47.0,0.1083217291666756
15306,37.0,0.10033450000003086,52.0,0.1916934999999853
15307,35.0,0.09584675000002107,47.0,0.10383397916666581
15308,38.0,0.09584674999996423,47.0,0.10383397916666581
15309,32.0,0.09584675000002107,47.0,0.10409758333332775
15310,37.0,0.09584675000002107,52.0,0.19801999999998543
15311,35.0,0.09901000000002114,48.0,0.10694649999999228
15312,38.0,0.0990099999999643,52.0,0.19047599999998965
15313,32.0,0.09523799999999483,47.0,0.10317450000002282
15314,37.0,0.09523799999999483,47.0,0.10317450000002282
15315,35.0,0.09523799999999483,47.0,0.10327658333335421
15316,38.0,0.09523799999999483,52.0,0.19292599999999993
15317,32.0,0.09646300000002839,47.0,0.10427549999997154
15318,37.0,0.09646299999997154,52.0,0.1875
15319,35.0,0.09375,47.0,0.1015625
15320,38.0,0.09375,47.0,0.1015625
15321,32.0,0.09375,47.0,0.10178858333335938
15322,37.0,0.09375,52.0,0.19292599999999993
15323,35.0,0.09646300000002839,48.0,0.10427549999997154
15324,38.0,0.09646299999997154,53.0,0.1875
15325,32.0,0.09375,48.0,0.1015625
15326,37.0,0.09375,48.0,0.1015625
15327,35.0,0.09375,49.0,0.10176281249999874
15328,38.0,0.09375,55.0,0.19230750000002672
15329,32.0,0.09615374999998494,50.0,0.10396625000004178
15330,37.0,0.09615375000004178,56.0,0.1875
15331,35.0,0.09375,51.0,0.1015625
15332,38.0,0.09375,51.0,0.1015625
15333,32.0,0.09375,52.0,0.10181452083332942
15334,37.0,0.09375,58.0,0.19354850000001989
15335,35.0,0.09677425000000994,54.0,0.10458675000000994
15336,38.0,0.09677425000000994,59.0,0.1875
15337,32.0,0.09375,54.0,0.1015625
15338,37.0,0.09375,54.0,0.1015625
15339,35.0,0.09375,54.0,0.10184062500002256
15340,38.0,0.09375,61.0,0.1941749999999729
15341,32.0,0.09708749999998645,55.0,0.10489999999998645
15342,37.0,0.09708749999998645,62.0,0.1875
15343,35.0,0.09375,56.0,0.1015625
15344,38.0,0.09375,57.0,0.1015625
15345,32.0,0.09375,57.0,0.1015625
15346,37.0,0.09375,65.0,0.1875
15347,37.0,0.1875,65.0,0.1015625
15348,41.0,0.09375,56.0,0.1015625
15349,38.0,0.09375,65.0,0.1015625
15350,41.0,0.09375,58.0,0.1015625
15351,40.0,0.09375,65.0,0.1870133333333115
15352,44.0,0.09355533333331323,58.0,0.10124616666666952
15353,41.0,0.09345799999999826,65.0,0.10124616666666952
15354,47.0,0.09345799999999826,58.0,0.10124616666666952
15355,43.0,0.09345799999999826,65.0,0.10124616666666952
15356,47.0,0.09345799999999826,58.0,0.10122197916672349
15357,44.0,0.09345800000005511,65.0,0.18623933333333298
15358,50.0,0.09316775000002053,58.0,0.1008115208333038
15359,46.0,0.09307158333331245,65.0,0.10061918750000132
15360,50.0,0.09287924999995312,58.0,0.10040412500001139
15361,47.0,0.0926880833333712,64.0,0.10028481249997867
15362,53.0,0.09259249999996655,57.0,0.10000006249998705
15363,49.0,0.09230774999997493,63.0,0.18423783333338406
15364,53.0,0.09221333333334769,56.0,0.09969320833334905
15365,50.0,0.09202450000003637,63.0,0.09948208333332786
15366,53.0,0.09183683333333192,57.0,0.09936495833329673
15367,52.0,0.09174299999995128,62.0,0.09908545833332028
15368,56.0,0.09146349999997483,56.0,0.09885441666671113
15369,53.0,0.09127866666671025,62.0,0.18181800000002113
15370,59.0,0.09090900000001056,56.0,0.09848475000001145
15371,55.0,0.09090900000001056,62.0,0.0984847499999546
15372,59.0,0.09090899999995372,55.0,0.09859995833335233
15373,56.0,0.0910011666666719,61.0,0.09878429166667502
15374,62.0,0.09118549999999459,55.0,0.09878429166667502
15375,58.0,0.09118549999999459,61.0,0.18246366666664926
15376,62.0,0.09118549999999459,54.0,0.09890012500000012
15377,59.0,0.09127816666665467,60.0,0.09920191666662959
15378,65.0,0.09155666666663365,54.0,0.09950554166670145
15379,61.0,0.09183683333333192,60.0,0.09981122916667573
15380,65.0,0.09211891666666361,54.0,0.10009497916666987
15381,62.0,0.09240266666665775,59.0,0.18471041666668953
15382,65.0,0.09230774999997493,52.0,0.10011870833335479
15383,64.0,0.0924026666667146,59.0,0.10030854166666359
15384,68.0,0.09259249999996655,53.0,0.10052360416665351
15385,65.0,0.09278366666666216,59.0,0.10064322916667834
15386,71.0,0.09287925000000996,54.0,0.10093172916668891
15387,67.0,0.09316775000002053,58.0,0.18672249999997348
15388,71.0,0.09326449999997521,54.0,0.10124616666666952
15389,68.0,0.09345799999999826,58.0,0.10146516666662819
15390,74.0,0.09365266666662819,53.0,0.10158699999999499
15391,70.0,0.09375,57.0,0.10188099999999167
15392,74.0,0.09404399999999669,54.0,0.10205349999995406
15393,73.0,0.09424099999995406,57.0,1.68440425
15394,71.0,0.09340991666670106,51.0,0.10161525000000893
15395,74.0,0.09375362500003348,57.0,0.10171233333323926
15396,68.0,0.09385070833326381,51.0,0.10200522916665022
15397,73.0,0.09424124999998185,57.0,0.10090945833331944
15398,71.0,0.09307245833332445,51.0,0.10190672916667154
15399,75.0,0.09414275000000316,57.0,0.10105400000003328
15400,68.0,0.0932170000000383,50.0,0.10198016666663534
15401,73.0,0.09419199999996408,57.0,0.10093231250004919
15402,71.0,0.09316833333338082,52.0,0.10117616666661888
15403,76.0,0.09346012499997869,60.0,0.10023862499997449
15404,68.0,0.09245045833330323,51.0,0.10183283333333293
15405,73.0,0.09399583333333794,61.0,0.10115047916667663
15406,71.0,0.09341054166668528,51.0,0.10132258333334221
15407,77.0,0.09346095833336676,63.0,0.10193149999997786
15408,68.0,0.0941433333333066,51.0,0.10081224999998994
15409,73.0,0.09302408333331869,57.0,0.10193108333334067
15410,71.0,0.09409408333334568,52.0,0.10100910416662146
15411,78.0,0.09331679166666618,63.0,0.5608119583332609
15412,68.0,0.09278670833327851,52.0,0.10173441666665894
15413,73.0,0.09394624999998769,61.0,0.10135341666671138
15414,71.0,0.09341691666668339,52.0,0.1028251249999812
15415,79.0,0.09498812499998621,59.0,0.10100847916663724
15416,68.0,0.09331616666668197,51.0,0.10017029166664315
15417,80.0,0.09235779166664315,63.0,0.7494491666666931
15418,77.0,0.09399500000000671,51.0,0.10188099999999167
15419,76.0,0.09404399999999669,52.0,0.10124904166667648
15420,79.0,0.09341204166668149,52.0,0.10190672916667154
15421,78.0,0.09414275000000316,57.0,0.10124720833334777
15422,75.0,0.09341020833335278,53.0,0.10127320833328213
15423,74.0,0.09355716666664193,57.0,0.18688800000001038
15424,77.0,0.09254774999999427,52.0,0.10212841666668737
15425,76.0,0.09434025000001611,52.0,0.10166275000000269
15426,73.0,0.09380112500002724,52.0,0.1013473958333293
15427,72.0,0.09365508333331718,57.0,0.10062337499999785
15428,75.0,0.09278637500000286,52.0,0.10195572916666151
15429,74.0,0.09419174999999314,57.0,0.10005064583333478
15430,71.0,0.09235833333332266,52.0,0.1010802916666762
15431,70.0,0.0932677916666762,52.0,0.1010295000000383
15432,73.0,0.0932170000000383,53.0,0.10195697916668678
15433,71.0,0.0941930000000184,57.0,0.10047706249997646
15434,68.0,0.0927371249999851,55.0,0.1013449999999807
15435,65.0,0.09355683333330944,57.0,0.10036095833334002
15436,61.0,0.09269225000002734,52.0,0.10055016666672145
15437,60.0,0.09273766666672145,52.0,0.10166156249999858
15438,61.0,0.0938975833333302,52.0,0.10100562500002752
15439,59.0,0.09316862500003253,57.0,0.10190672916667154
15440,61.0,0.09414275000000316,52.0,0.10152895833334696
15441,57.0,0.09316775000002053,56.0,0.10660747916665514
15442,58.0,0.0986639166666805,48.0,0.10297924999997576
15443,51.0,0.0953227499999798,48.0,0.38061191666668037
15444,65.0,0.09187800000000834,47.0,0.10015339583333116
15445,66.0,0.09187800000000834,51.0,0.1968559166666637
15446,62.0,0.09930474999998751,44.0,0.10538816666667117
15447,63.0,0.09755116666667618,49.0,0.10188099999999167
15448,58.0,0.09404399999999669,46.0,0.10195539583332902
15449,61.0,0.09404399999999669,50.0,0.3878019999999651
15450,59.0,0.09493674999998802,48.0,0.10318377083331143
15451,58.0,0.09493674999998802,47.0,0.19792849999998907
15452,56.0,0.09896424999999454,48.0,0.09896424999999454
15453,57.0,0.09896424999999454,52.0,0.10326631250001128
15454,58.0,0.0953227499999798,45.0,0.1029493541666966
15455,51.0,0.09532275000003665,48.0,0.3816479999999842
15456,65.0,0.09151924999997618,45.0,0.09979464583335584
15457,66.0,0.09151925000003303,50.0,0.19860949999997501
15458,62.0,0.09930474999998751,45.0,0.10724831249996214
15459,63.0,0.09930474999998751,49.0,0.10209412500000781
15460,58.0,0.09425712500001282,46.0,0.10198050000002468
15461,61.0,0.09404399999999669,48.0,0.3884044999999787
15462,59.0,0.09523799999999483,48.0,0.10348502083331823
15463,58.0,0.09523799999999483,47.0,0.19792849999998907
15464,56.0,0.09896424999999454,48.0,0.09896424999999454
15465,57.0,0.09896424999999454,52.0,0.10326631250001128
15466,58.0,0.0953227499999798,45.0,0.10330997916668139
15467,47.0,0.09532275000003665,48.0,0.3903029999999603
15468,65.0,0.09584675000002107,46.0,0.10412214583328705
15469,66.0,0.09584674999996423,52.0,0.19860949999997501
15470,62.0,0.09930474999998751,47.0,0.10724831249996214
15471,63.0,0.09930474999998751,52.0,0.10326631250001128
15472,58.0,0.0953227499999798,49.0,0.10326631250001128
15473,61.0,0.09532275000003665,52.0,0.3885739999999487
15474,59.0,0.0953227499999798,53.0,0.10356977083330321
15475,58.0,0.0953227499999798,52.0,0.19792849999998907
15476,56.0,0.09896424999999454,54.0,0.09896424999999454
15477,54.0,0.09896424999999454,64.0,0.19322449999998526
15478,60.0,0.09661225000002105,49.0,0.0966122499999642
15479,42.0,0.0966122499999642,50.0,0.38563508333334084
15480,53.0,0.09661225000002105,58.0,0.192766000000006
15481,60.0,0.09661225000002105,48.0,0.19241058333329875
15482,56.0,0.09615374999998494,48.0,0.09625683333331381
15483,51.0,0.09625683333331381,56.0,0.19323725000003833
15484,60.0,0.09646300000002839,48.0,0.09677425000000994
15485,56.0,0.09677425000000994,48.0,0.39210408333332225
15486,49.0,0.09698308333332761,54.0,0.1961567500000001
15487,60.0,0.09719250000000557,47.0,0.19792849999998907
15488,56.0,0.09896424999999454,47.0,0.09896424999999454
15489,57.0,0.09896424999999454,56.0,0.10717822916666364
15490,58.0,0.0991654166666649,48.0,0.1038102499999809
15491,51.0,0.09615374999998494,48.0,0.3823654999999917
15492,65.0,0.09187800000000834,47.0,0.10015339583333116
15493,66.0,0.09187800000000834,51.0,0.19860949999997501
15494,62.0,0.09930474999998751,44.0,0.10724831249996214
15495,63.0,0.09930474999998751,51.0,0.10236500000002025
15496,58.0,0.09450337499998795,46.0,0.10227600000007442
15497,61.0,0.09433950000004643,50.0,0.3884044999999787
15498,59.0,0.09523799999999483,48.0,0.10348502083331823
15499,58.0,0.09523799999999483,47.0,0.19792849999998907
15500,56.0,0.09896424999999454,48.0,0.09896424999999454
15501,57.0,0.09896424999999454,52.0,0.10326631250001128
15502,58.0,0.0953227499999798,45.0,0.1029493541666966
15503,51.0,0.09532275000003665,48.0,0.3816479999999842
15504,65.0,0.09151924999997618,45.0,0.09979464583335584
15505,66.0,0.09151925000003303,50.0,0.19860949999997501
15506,62.0,0.09930474999998751,45.0,0.10724831249996214
15507,63.0,0.09930474999998751,49.0,0.10326631250001128
15508,58.0,0.0953227499999798,46.0,0.10326631250001128
15509,61.0,0.09532275000003665,48.0,0.3885739999999487
15510,59.0,0.0953227499999798,48.0,0.10356977083330321
15511,52.0,0.09900325000000976,64.0,0.09877324999996517
15512,54.0,0.09877324999996517,65.0,0.19673591666668244
15513,56.0,0.0984836250000285,66.0,0.09825229166665395
15514,57.0,0.09825229166665395,67.0,0.19559950000001436
15515,59.0,0.09796875000000682,67.0,0.09763075000000754
15516,60.0,0.09763075000000754,68.0,0.19446820833337597
15517,62.0,0.09734595833333515,69.0,0.09712225000004082
15518,64.0,0.09712225000004082,70.0,0.1934696666666582
15519,66.0,0.09684516666669651,71.0,0.0966244999999617
15520,45.0,0.0966244999999617,72.0,0.5735122916667024
15521,69.0,0.09628974999998263,72.0,0.09601766666668254
15522,71.0,0.09601766666668254,73.0,0.09574691666665558
15523,72.0,0.09574691666665558,74.0,0.09552941666669312
15524,69.0,0.09552941666669312,75.0,0.09525741666664089
15525,64.0,0.09525741666664089,75.0,0.0946711250000476
15526,60.0,0.0946711250000476,76.0,0.09472533333331512
15527,57.0,0.09472533333331512,76.0,0.09536674999992556
15528,52.0,0.09536674999992556,74.0,0.09590950000000475
15529,48.0,0.09590950000000475,72.0,0.09656808333329536
15530,45.0,0.09656808333329536,71.0,0.205987499999992
15531,40.0,0.102993749999996,69.0,0.102993749999996
15532,27.0,0.102993749999996,86.0,0.19737895833338825
15533,45.0,0.0990117499999883,67.0,0.09836720833339996
15534,42.0,0.09836720833339996,68.0,0.09791241666664519
15535,48.0,0.09791241666664519,69.0,0.09757379166666169
15536,48.0,0.09757379166666169,70.0,0.19396783333331769
15537,57.0,0.09717783333331909,72.0,0.0967899999999986
15538,54.0,0.0967899999999986,73.0,0.19247341666670081
15539,60.0,0.09640133333334688,74.0,0.08807514583332932
15540,60.0,0.09607208333335393,75.0,0.09569283333331668
15541,69.0,0.09569283333331668,76.0,0.09525741666664089
15542,66.0,0.09525741666664089,77.0,0.19857591666669805
15543,72.0,0.09970750000002226,79.0,0.09886841666667578
15544,26.0,0.09886841666667578,88.0,0.1896107916666665
15545,72.0,0.09467300000000023,78.0,0.09493779166666627
15546,66.0,0.09493779166666627,77.0,0.09520408333332853
15547,60.0,0.09520408333332853,76.0,0.09542008333329477
15548,57.0,0.09542008333329477,75.0,0.19165608333338469
15549,60.0,0.09569283333337353,75.0,0.09596325000001116
15550,54.0,0.09596325000001116,74.0,0.19274824999996554
15551,48.0,0.09623533333331125,73.0,0.09651291666665429
15552,45.0,0.09651291666665429,72.0,0.09673483333330068
15553,48.0,0.09673483333330068,72.0,0.0970110833333706
15554,26.0,0.0970110833333706,72.0,0.2353390000000104
15555,36.0,0.102993749999996,70.0,0.1323452500000144
15556,25.0,0.1323452500000144,88.0,0.18934600000000046
15557,36.0,0.18934600000000046,46.0,0.10256241666667165
15558,37.0,0.09467300000000023,46.0,0.10256241666667165
15559,39.0,0.09467300000000023,47.0,0.10256241666667165
15560,41.0,0.09467300000000023,47.0,0.10256241666667165
15561,42.0,0.09467300000000023,48.0,0.10256241666667165
15562,43.0,0.09467300000000023,49.0,0.10269714583336054
15563,46.0,0.09467300000000023,49.0,0.1925795000000221
15564,44.0,0.09628974999998263,50.0,0.10431389583334294
15565,46.0,0.09628975000003948,50.0,0.19257949999996526
15566,44.0,0.09628974999998263,51.0,0.10417916666665406
15567,51.0,0.09628974999998263,52.0,0.18934600000000046
15568,49.0,0.09467300000000023,52.0,0.10256241666667165
15569,48.0,0.09467300000000023,53.0,0.10256241666667165
15570,49.0,0.09467300000000023,53.0,0.10256241666667165
15571,51.0,0.09467300000000023,54.0,0.10256241666667165
15572,53.0,0.09467300000000023,54.0,0.10256241666667165
15573,54.0,0.09467300000000023,55.0,0.10256241666667165
15574,55.0,0.09467300000000023,56.0,0.10272504166664476
15575,58.0,0.09467300000000023,56.0,0.19324899999998024
15576,56.0,0.09662450000001854,57.0,0.10467654166666307
15577,58.0,0.0966244999999617,57.0,0.19324900000003709
15578,56.0,0.09662450000001854,58.0,0.10448712499999147
15579,63.0,0.09662450000001854,59.0,0.18870299999997542
15580,61.0,0.09435150000001613,59.0,0.10221412499998905
15581,60.0,0.09435149999995929,60.0,0.1022141250000459
15582,61.0,0.09435150000001613,60.0,0.10221412499998905
15583,63.0,0.09435150000001613,61.0,0.10221412499998905
15584,65.0,0.09435150000001613,61.0,0.10221412499998905
15585,66.0,0.09435149999995929,62.0,0.10221412499998905
15586,67.0,0.09435150000001613,63.0,0.10234843750004075
15587,70.0,0.09435150000001613,63.0,0.19192650000002232
15588,68.0,0.09596325000001116,64.0,0.10396018749997893
15589,70.0,0.09596325000001116,64.0,0.19192649999996547
15590,68.0,0.09596324999995431,65.0,0.10382587499998408
15591,73.0,0.09596325000001116,66.0,0.18870299999997542
15592,60.0,0.18870299999997542,64.0,0.1022141250000459
15593,61.0,0.09435150000001613,65.0,0.10221412499998905
15594,63.0,0.09435150000001613,65.0,0.10221412499998905
15595,65.0,0.09435150000001613,66.0,0.10221412499998905
15596,66.0,0.09435149999995929,67.0,0.10221412499998905
15597,67.0,0.09435150000001613,68.0,0.10254391666666152
15598,70.0,0.09435150000001613,71.0,0.1927084166666191
15599,68.0,0.09674516666666477,68.0,0.1041556666665997
15600,70.0,0.09596324999995431,71.0,0.19661800000000085
15601,68.0,0.098308999999972,68.0,0.10633314583338915
15602,73.0,0.09830900000002885,68.0,0.1925795000000221
15603,68.0,0.5295936250000182,77.0,0.04751154166666538
15604,80.0,0.04751154166666538,89.0,0.1850805833333311
15605,79.0,0.09248974999997017,84.0,0.09259083333336093
15606,78.0,0.09259083333336093,83.0,0.09279299999997193
15607,77.0,0.09279299999997193,82.0,0.09294850000003407
15608,75.0,0.09294850000003407,81.0,0.09310399999998253
15609,73.0,0.09310399999998253,79.0,0.09330899999997655
15610,72.0,0.09330899999997655,78.0,0.09341150000000198
15611,70.0,0.09341150000000198,77.0,0.09366920833332415
15612,68.0,0.09366920833332415,76.0,0.09377362499998299
15613,67.0,0.09377362499998299,75.0,0.09403800000001183
15614,66.0,0.09403800000001183,74.0,0.09414249999997537
15615,65.0,0.09414249999997537,73.0,0.09435150000001613
15616,63.0,0.09435150000001613,72.0,0.09451224999992291
15617,61.0,0.09451224999992291,71.0,0.09467300000000023
15618,60.0,0.09467300000000023,70.0,0.09488483333336717
15619,58.0,0.09488483333336717,69.0,0.09499074999996537
15620,56.0,0.09499074999996537,68.0,0.09525741666669774
15621,55.0,0.09525741666669774,67.0,0.09536541666665244
15622,26.0,0.023827687499988315,69.0,0.2613073958332848
15623,30.0,0.023827687499988315,73.0,0.23747970833329646
15624,35.0,0.023827687500045158,77.0,0.2136520208332513
15625,42.0,0.023882354166630648,80.0,0.18976966666662065
15626,52.0,0.09499075000002222,65.0,0.09477891666659843
15627,50.0,0.09477891666659843,64.0,0.0945122500000366
15628,49.0,0.0945122500000366,63.0,0.09429925000000594
15629,47.0,0.09429925000000594,62.0,0.09403800000001183
15630,45.0,0.09403800000001183,61.0,0.09372074999998858
15631,44.0,0.09372074999998858,60.0,0.09346304166666641
15632,42.0,0.09346304166666641,59.0,0.09341150000000198
15633,40.0,0.09341150000000198,58.0,0.09341150000000198
15634,38.0,0.09341150000000198,57.0,0.09341150000000198
15635,37.0,0.09341150000000198,56.0,0.09341150000000198
15636,35.0,0.09341150000000198,55.0,0.09346304166666641
15637,14.0,0.09346304166666641,91.0,0.18840216666666265
15638,32.0,0.09351783333329422,59.0,0.09488433333336843
15639,30.0,0.09488433333336843,62.0,0.09640283333328625
15640,28.0,0.09640283333328625,64.0,0.09808591666666189
15641,26.0,0.09808591666666189,66.0,0.09959024999994881
15642,25.0,0.09959024999994881,68.0,0.10126441666665187
15643,23.0,0.10126441666665187,70.0,0.1031233333333148
15644,21.0,0.1031233333333148,72.0,0.10478741666662472
15645,20.0,0.10478741666662472,75.0,0.106642499999964
15646,18.0,0.106642499999964,77.0,0.10870349999999007
15647,16.0,0.10870349999999007,79.0,0.11055683333336219
15648,14.0,0.11055683333336219,81.0,0.10763683333334484
15649,13.0,0.10763683333334484,80.0,0.16088400000001002
15650,20.0,0.16088400000001002,55.0,0.1583418333333384
15651,25.0,0.1583418333333384,55.0,0.14510358333336626
15652,29.0,0.14510358333336626,55.0,0.14423099999999067
15653,25.0,0.14423099999999067,55.0,0.14388550000001032
15654,20.0,0.14388550000001032,55.0,0.14475358333334043
15655,46.0,0.14475358333334043,78.0,0.5798759999999561
15656,20.0,0.14720299999999042,55.0,0.14720299999999042
15657,25.0,0.14720299999999042,55.0,0.14273500000001604
15658,32.0,0.14273500000001604,55.0,0.1427349999999592
15659,46.0,0.1427349999999592,73.0,0.2888500000000249
15660,20.0,0.14442500000001246,55.0,0.14442500000001246
15661,42.0,0.14442500000001246,76.0,0.2862271666666629
15662,25.0,0.14342633333330923,54.0,0.1428008333333537
15663,30.0,0.1428008333333537,54.0,0.1437127499999633
15664,34.0,0.1437127499999633,54.0,0.14446291666666866
15665,54.0,0.14446291666666866,78.0,0.8544473333333258
15666,25.0,0.14285766666665722,53.0,0.1418444999999906
15667,18.0,0.1418444999999906,60.0,0.14150999999998248
15668,27.0,0.14150999999998248,53.0,0.14257516666668835
15669,30.0,0.14257516666668835,53.0,0.14283000000000357
15670,37.0,0.14283000000000357,53.0,0.14283000000000357
15671,53.0,0.14283000000000357,73.0,0.29009300000001303
15672,27.0,0.1450464999999781,53.0,0.14504650000003494
15673,51.0,0.14504650000003494,77.0,0.8522244166666724
15674,27.0,0.14283000000000357,52.0,0.14283000000000357
15675,30.0,0.14283000000000357,52.0,0.14208708333336517
15676,37.0,0.14208708333336517,53.0,0.1412877500000036
15677,30.0,0.1412877500000036,53.0,0.14117699999997058
15678,27.0,0.14117699999997058,53.0,0.1420125833333259
15679,53.0,0.1420125833333259,79.0,0.5731889999999566
15680,27.0,0.144299999999987,53.0,0.144299999999987
15681,30.0,0.144299999999987,53.0,0.14229449999999133
15682,36.0,0.14229449999999133,54.0,0.14229449999999133
15683,53.0,0.14229449999999133,74.0,0.2939106666667044
15684,27.0,0.14720299999999042,54.0,0.14670766666671398
15685,49.0,0.14670766666671398,71.0,0.2877709999999638
15686,32.0,0.14411566666660747,51.0,0.14365533333335634
15687,37.0,0.14365533333335634,51.0,0.14314116666668042
15688,41.0,0.14314116666668042,51.0,0.14268749999996544
15689,37.0,0.14268749999996544,51.0,0.14223633333335783
15690,32.0,0.14223633333335783,51.0,0.1426309999999944
15691,61.0,0.1426309999999944,75.0,0.5714953333333028
15692,32.0,0.14302750000001652,51.0,0.14354083333330436
15693,37.0,0.14354083333330436,51.0,0.1424635000000194
15694,44.0,0.1424635000000194,51.0,0.14246349999996255
15695,62.0,0.14246349999996255,77.0,0.288599999999974
15696,32.0,0.144299999999987,51.0,0.144299999999987
15697,63.0,0.144299999999987,77.0,0.14286354583333605
15698,34.0,0.14286354583333605,47.0,0.14039750833336484
15699,64.0,0.028265499999974963,72.0,0.10516538333337166
15700,39.0,0.11213200833338988,48.0,0.1392229500000326
15701,63.0,0.05551458125000863,73.0,0.10475411875000873
15702,43.0,0.08370836875002396,50.0,0.14093051249994915
15703,62.0,0.08435158750000937,74.0,0.10734519999994063
15704,39.0,0.05657892499993977,51.0,0.1450464999999781
15705,63.0,0.11603719999999385,79.0,0.0989947999999572
15706,34.0,0.02900929999998425,53.0,0.13997100000000273
15707,63.0,0.06998549999997294,69.0,0.06998550000002979
15708,71.0,0.06998550000002979,87.0,0.144299999999987
15709,35.0,0.144299999999987,51.0,0.1440397083333096
15710,39.0,0.1440397083333096,51.0,0.14117650000002868
15711,44.0,0.14117650000002868,51.0,0.14117649999997184
15712,39.0,0.14117649999997184,51.0,0.14117650000002868
15713,63.0,0.14117650000002868,81.0,0.1453243333332921
15714,61.0,0.1453243333332921,77.0,0.14168561249999811
15715,32.0,0.14168561249999811,47.0,0.14056358750002573
15716,63.0,0.028219400000011774,72.0,0.1053498874999832
15717,35.0,0.11234418750001396,48.0,0.13985541666664858
15718,61.0,0.05589720000000398,73.0,0.10506711666664614
15719,41.0,0.0839582166666446,50.0,0.14155432083333608
15720,60.0,0.08460532500004092,74.0,0.10784827083330129
15721,35.0,0.05694899583329516,51.0,0.14542649999998503
15722,61.0,0.11634120000002213,79.0,0.09924429999995255
15723,32.0,0.0290852999999629,53.0,0.1403179999999793
15724,61.0,0.07015899999998965,69.0,0.07015899999998965
15725,70.0,0.07015899999998965,87.0,0.144299999999987
15726,30.0,0.144299999999987,51.0,0.14409533333332547
15727,34.0,0.14409533333332547,51.0,0.14184399999999187
15728,42.0,0.14184399999999187,51.0,0.14184399999999187
15729,34.0,0.14184399999999187,51.0,0.14184399999999187
15730,61.0,0.14184399999999187,81.0,0.1456309999999803
15731,59.0,0.1456309999999803,77.0,0.144299999999987
15732,30.0,0.144299999999987,47.0,0.144299999999987
15733,61.0,0.028860000000008768,72.0,0.10822500000000446
15734,35.0,0.11543999999997823,48.0,0.14283000000000357
15735,59.0,0.05713200000002416,73.0,0.10743712499998992
15736,39.0,0.0856979999999794,50.0,0.14492749999999432
15737,58.0,0.08695649999998523,74.0,0.1135265000000345
15738,35.0,0.0579710000000091,51.0,0.15872999999999138
15739,59.0,0.1269839999999931,79.0,0.10208275000002232
15740,30.0,0.031745999999998276,53.0,0.14067349999999124
15741,59.0,0.07033675000002404,69.0,0.0703367499999672
15742,68.0,0.0703367499999672,87.0,0.144299999999987
15743,32.0,0.144299999999987,51.0,0.144299999999987
15744,35.0,0.144299999999987,51.0,0.14251799999999548
15745,41.0,0.14251799999999548,51.0,0.14251799999999548
15746,59.0,0.14251799999999548,78.0,0.2916020000000117
15747,32.0,0.14580100000000584,51.0,0.14580100000000584
15748,58.0,0.14580100000000584,78.0,0.21870150000000876
15749,32.0,0.14580100000000584,48.0,0.14580100000000584
15750,61.0,0.07290050000000292,71.0,0.07290050000000292
15751,59.0,0.07290050000000292,81.0,0.4329000000000178
15752,41.0,0.144299999999987,48.0,0.144299999999987
15753,34.0,0.144299999999987,48.0,0.14430000000004384
15754,58.0,0.14430000000004384,75.0,0.144299999999987
15755,58.0,0.144299999999987,74.0,0.2765749999999798
15756,30.0,0.144299999999987,46.0,0.144299999999987
15757,59.0,0.144299999999987,79.0,0.27945191666668734
15758,42.0,0.14580100000000584,51.0,0.14580100000000584
15759,60.0,0.14580100000000584,84.0,0.2794519166666305
15760,30.0,0.14580100000000584,49.0,0.14580100000000584
15761,61.0,0.14580100000000584,84.0,0.900560083333346
15762,35.0,0.16088400000001002,55.0,0.16088400000001002
15763,37.0,0.16088400000001002,55.0,0.1456316666666453
15764,44.0,0.1456316666666453,55.0,0.14457900000002155
15765,37.0,0.14457900000002155,55.0,0.14382783333331872
15766,35.0,0.14382783333331872,55.0,0.14475358333334043
15767,61.0,0.14475358333334043,78.0,0.5798759999999561
15768,32.0,0.14720299999999042,55.0,0.14720299999999042
15769,37.0,0.14720299999999042,55.0,0.14273500000001604
15770,41.0,0.14273500000001604,55.0,0.1427349999999592
15771,61.0,0.1427349999999592,73.0,0.2888500000000249
15772,32.0,0.14442500000001246,55.0,0.14442500000001246
15773,54.0,0.14442500000001246,76.0,0.2888499999999681
15774,25.0,0.14442499999995562,54.0,0.14442500000001246
15775,30.0,0.14442500000001246,54.0,0.1450464999999781
15776,34.0,0.1450464999999781,54.0,0.14504650000003494
15777,37.0,0.14504650000003494,54.0,0.1439265000000205
15778,42.0,0.1439265000000205,53.0,0.14392649999996365
15779,66.0,0.14392649999996365,86.0,0.5705869999999891
15780,42.0,0.1424635000000194,53.0,0.14246349999996255
15781,37.0,0.14246349999996255,53.0,0.14283000000000357
15782,34.0,0.14283000000000357,53.0,0.14283000000000357
15783,65.0,0.14283000000000357,80.0,0.29009300000001303
15784,25.0,0.1450464999999781,53.0,0.14504650000003494
15785,63.0,0.14504650000003494,85.0,0.8548380000000293
15786,27.0,0.14283000000000357,52.0,0.14283000000000357
15787,30.0,0.14283000000000357,52.0,0.14229449999999133
15788,37.0,0.14229449999999133,53.0,0.14229449999999133
15789,30.0,0.14229449999999133,53.0,0.14229449999999133
15790,27.0,0.14229449999999133,53.0,0.14229450000004817
15791,65.0,0.14229450000004817,87.0,0.5731889999999566
15792,27.0,0.144299999999987,53.0,0.144299999999987
15793,30.0,0.144299999999987,53.0,0.14229449999999133
15794,36.0,0.14229449999999133,54.0,0.14229449999999133
15795,65.0,0.14229449999999133,81.0,0.29440599999998085
15796,27.0,0.14720299999999042,54.0,0.14720299999999042
15797,61.0,0.14720299999999042,77.0,0.288599999999974
15798,73.0,0.2553634166666825,87.0,0.23827704166671992
15799,34.0,0.23827704166671992,37.0,0.23049879166666187
15800,30.0,0.23049879166666187,44.0,0.23033608333338407
15801,25.0,0.23033608333338407,37.0,0.23576691666670513
15802,18.0,0.23576691666670513,41.0,0.2290075000000229
15803,25.0,0.2290075000000229,29.0,0.22900749999996606
15804,30.0,0.22900749999996606,29.0,0.22585391666672194
15805,46.0,0.15108733333335067,38.0,0.14925475000006827
15806,37.0,0.07476658333337127,29.0,0.2218201666667028
15807,47.0,0.074488166666697,42.0,0.1473320000000058
15808,49.0,0.1473320000000058,46.0,0.2188058333333629
15809,53.0,0.14593550000000732,50.0,0.1457406666666543
15810,25.0,0.07287033333335557,29.0,0.23760133333331623
15811,51.0,0.07287033333329873,45.0,0.1647310000000175
15812,49.0,0.1647310000000175,56.0,0.2597405000000208
15813,61.0,0.2597405000000208,56.0,0.2581757916666447
15814,73.0,0.2581757916666447,67.0,0.23733450000008816
15815,35.0,0.23733450000008816,29.0,0.22968916666667383
15816,29.0,0.22968916666667383,35.0,0.22643008333341186
15817,25.0,0.22643008333341186,29.0,0.23363500000004933
15818,18.0,0.23363500000004933,37.0,0.23109649999997828
15819,25.0,0.23109649999997828,29.0,0.22988499999996748
15820,29.0,0.22988499999996748,29.0,0.2262763333333737
15821,44.0,0.15122916666666697,39.0,0.14981375000002117
15822,37.0,0.07504716666670674,29.0,0.22305341666663026
15823,47.0,0.07476658333331443,42.0,0.14828683333331583
15824,49.0,0.14828683333331583,45.0,0.21907616666669583
15825,53.0,0.14620583333334025,48.0,0.1457406666666543
15826,25.0,0.07287033333335557,29.0,0.23760133333331623
15827,51.0,0.07287033333329873,45.0,0.1647310000000175
15828,49.0,0.1647310000000175,56.0,0.6199583333333294
15829,25.0,0.2290075000000229,33.0,0.22900749999996606
15830,30.0,0.22900749999996606,33.0,0.24291499999998223
15831,40.0,0.16194333333334043,39.0,0.4743423333333112
15832,34.0,0.0809716666666418,33.0,0.23076900000000933
15833,42.0,0.07692300000002206,43.0,0.15384599999998727
15834,46.0,0.15384599999998727,46.0,0.24390249999999014
15835,51.0,0.1626016666666601,50.0,0.1626016666666601
15836,25.0,0.08130083333333005,33.0,0.24390249999999014
15837,49.0,0.08130083333333005,46.0,0.1626016666666601
15838,47.0,0.1626016666666601,51.0,0.692307000000028
15839,26.0,0.23076900000000933,33.0,0.23076900000000933
15840,30.0,0.23076900000000933,33.0,0.23076900000000933
15841,38.0,0.23076900000000933,49.0,0.4551042499999767
15842,42.0,0.23076899999995248,51.0,0.2243352500000242
15843,44.0,0.2243352500000242,46.0,0.23908050000005687
15844,46.0,0.23908050000005687,62.0,1.6516415000000393
15845,25.0,0.2390439999999785,29.0,0.23904400000003534
15846,30.0,0.23904400000003534,35.0,0.23165999999997666
15847,34.0,0.23165999999997666,29.0,0.2316600000000335
15848,30.0,0.2316600000000335,35.0,0.23165999999997666
15849,25.0,0.23165999999997666,29.0,0.2316600000000335
15850,18.0,0.2316600000000335,41.0,0.24691350000000511
15851,46.0,0.24691350000000511,51.0,0.24691350000000511
15852,49.0,0.24691350000000511,54.0,0.24691350000000511
15853,58.0,0.24691350000000511,55.0,0.24691350000000511
15854,56.0,0.24691350000000511,60.0,0.23536799999999403
15855,54.0,0.23536799999999403,55.0,0.2558080000000018
15856,49.0,0.2558080000000018,66.0,1.7066374999999994
15857,25.0,0.24793399999998655,33.0,0.24793399999998655
15858,30.0,0.24793399999998655,35.0,0.2409640000000195
15859,34.0,0.2409640000000195,35.0,0.24096399999996265
15860,30.0,0.24096399999996265,35.0,0.2409640000000195
15861,25.0,0.2409640000000195,33.0,0.2409640000000195
15862,18.0,0.2409640000000195,41.0,0.24691350000000511
15863,46.0,0.24691350000000511,51.0,0.24691350000000511
15864,49.0,0.24691350000000511,54.0,0.24691350000000511
15865,58.0,0.24691350000000511,55.0,0.24691350000000511
15866,56.0,0.24691350000000511,60.0,0.23536799999999403
15867,54.0,0.23536799999999403,55.0,0.2558080000000018
15868,53.0,0.2558080000000018,66.0,1.77556450000003
15869,29.0,0.2660280000000057,33.0,0.2660280000000057
15870,34.0,0.2660280000000057,31.0,0.24758600000001252
15871,37.0,0.24758600000001252,34.0,0.24758600000001252
15872,41.0,0.24758600000001252,37.0,0.24758599999995567
15873,37.0,0.24758599999995567,40.0,0.24758600000001252
15874,46.0,0.24758600000001252,45.0,0.2531645000000253
15875,49.0,0.2531645000000253,51.0,0.2531644999999685
15876,53.0,0.2531644999999685,54.0,0.2531645000000253
15877,61.0,0.2531645000000253,55.0,0.2531644999999685
15878,60.0,0.2531644999999685,60.0,0.24390249999999014
15879,58.0,0.24390249999999014,55.0,0.2586528333333149
15880,53.0,0.2586528333333149,69.0,1.77556450000003
15881,22.0,0.2660280000000057,32.0,0.2660280000000057
15882,29.0,0.2660280000000057,34.0,0.24758600000001252
15883,34.0,0.24758600000001252,37.0,0.24758600000001252
15884,37.0,0.24758600000001252,39.0,0.24758599999995567
15885,41.0,0.24758599999995567,41.0,0.24758600000001252
15886,49.0,0.24758600000001252,42.0,0.2531645000000253
15887,49.0,0.2531645000000253,51.0,0.2531644999999685
15888,53.0,0.2531644999999685,54.0,0.2531645000000253
15889,61.0,0.2531645000000253,55.0,0.2531644999999685
15890,60.0,0.2531644999999685,60.0,0.24691350000000511
15891,58.0,0.24691350000000511,55.0,0.2596565000000055
15892,53.0,0.2596565000000055,59.0,0.26785699999999224
15893,49.0,0.26785699999999224,55.0,0.26785699999999224
15894,53.0,0.26785699999999224,54.0,0.5286340000000109
15895,61.0,0.26431700000000546,53.0,0.26431700000000546
15896,60.0,0.26431700000000546,56.0,0.26431700000000546
15897,58.0,0.26431700000000546,51.0,0.26431700000000546
15898,53.0,0.26431700000000546,56.0,0.26431700000000546
15899,49.0,0.26431700000000546,51.0,0.2643169999999486
15900,53.0,0.2643169999999486,51.0,0.26431700000000546
15901,61.0,0.26431700000000546,54.0,0.26431700000000546
15902,60.0,0.26431700000000546,50.0,0.26431700000000546
15903,58.0,0.26431700000000546,49.0,0.26431700000000546
15904,53.0,0.26431700000000546,48.0,0.27649750000000495
15905,60.0,0.27649750000000495,45.0,0.27649750000000495
15906,63.0,0.27649750000000495,52.0,0.2709034166666697
15907,61.0,0.2709034166666697,47.0,0.2752331666666805
15908,58.0,0.2752331666666805,50.0,0.2786413333333826
15909,54.0,0.2786413333333826,46.0,0.2823586666666529
15910,49.0,0.2823586666666529,45.0,0.28571866666663936
15911,46.0,0.28571866666663936,45.0,0.2898594999999773
15912,39.0,0.2898594999999773,43.0,0.29364175000000614
15913,41.0,0.29364175000000614,42.0,0.2977734166667574
15914,44.0,0.2977734166667574,41.0,0.3015126666666106
15915,42.0,0.3015126666666106,39.0,0.306127833333278
15916,29.0,0.306127833333278,28.0,1.8000000000000114
15917,17.0,0.6000000000000227,25.0,0.59375
15918,17.0,0.5999999999999659,25.0,0.59375
15919,39.0,0.915093000000013,38.0,1.4012449999999603
15920,17.0,0.3150929999999903,39.0,1.08615199999997
15921,45.0,0.2780349999999885,37.0,0.2780349999999885
15922,49.0,0.2780349999999885,41.0,0.5245603125000002
15923,48.0,0.26504099999999653,39.0,0.26504099999999653
15924,46.0,0.26504099999999653,37.0,1.5272449999999935
15925,41.0,0.5064150000000041,28.0,0.48808031250001704
15926,41.0,0.49321800000001303,28.0,0.5221160416666635
15927,53.0,0.5276119999999764,41.0,1.5288169999999468
15928,46.0,0.497511999999972,28.0,0.49669562499997255
15929,46.0,0.5019239999999741,28.0,0.5238666145833122
15930,51.0,0.5293810000000008,39.0,1.7010420000000295
15931,46.0,0.5577240000000074,28.0,0.5794940624999754
15932,46.0,0.5855940000000146,28.0,0.5519143750000239
15933,39.0,0.8317215000000147,40.0,1.3417135000000258
15934,17.0,0.2739975000000072,39.0,1.0677160000000185
15935,45.0,0.26881700000001274,37.0,0.26881700000001274
15936,49.0,0.26881700000001274,41.0,0.5245603125000002
15937,48.0,0.26504099999999653,39.0,0.26504099999999653
15938,46.0,0.26504099999999653,37.0,1.5162789999999973
15939,41.0,0.49970899999999574,28.0,0.4838646874999881
15940,41.0,0.4889580000000251,28.0,0.5221160416666635
15941,43.0,0.5276119999999764,37.0,1.5346481666666136
15942,40.0,0.5019239999999741,28.0,0.49986051041668134
15943,40.0,0.5051121666666631,28.0,0.5221160416666635
15944,45.0,0.5276119999999764,37.0,1.5969637499999862
15945,41.0,0.5427409999999782,23.0,0.5211147916666619
15946,41.0,0.5266107500000317,23.0,0.5221160416666635
15947,39.0,0.8016094999999837,40.0,1.3417135000000258
15948,17.0,0.2739975000000072,39.0,1.0677160000000185
15949,45.0,0.26881700000001274,37.0,0.26881700000001274
15950,49.0,0.26881700000001274,41.0,0.5245603125000002
15951,48.0,0.26504099999999653,39.0,0.26504099999999653
15952,46.0,0.26504099999999653,37.0,1.5407209999999623
15953,41.0,0.5155970000000138,28.0,0.4923295833333441
15954,41.0,0.497511999999972,28.0,0.5221160416666635
15955,53.0,0.5276119999999764,58.0,1.4604600000000119
15956,49.0,0.4838710000000219,36.0,0.45456312499999285
15957,49.0,0.4593479999999772,36.0,0.511853072916665
15958,55.0,0.5172410000000127,59.0,1.479846000000009
15959,49.0,0.5020920000000046,36.0,0.47070718750001106
15960,49.0,0.4756619999999998,36.0,0.49686187499997914
15961,37.0,0.7687584999999899,40.0,1.2990435000000389
15962,17.0,0.2666665000000421,39.0,1.0323769999999968
15963,43.0,0.2608695000000125,37.0,0.2608695000000125
15964,48.0,0.2608695000000125,41.0,0.50531885416666
15965,46.0,0.25531899999998586,39.0,0.25531899999998586
15966,46.0,0.25531899999998586,37.0,1.5330050000000028
15967,43.0,0.5155970000000138,33.0,0.48469395833330964
15968,43.0,0.48979600000001255,33.0,0.5221160416666635
15969,55.0,0.5276119999999764,62.0,1.4624469999999974
15970,52.0,0.48979600000001255,39.0,0.45456312499999285
15971,52.0,0.4593479999999772,41.0,0.5079560937500105
15972,57.0,0.5133030000000076,64.0,1.4336810000000355
15973,52.0,0.4979250000000093,41.0,0.4529064583333593
15974,52.0,0.4576680000000124,43.0,0.4731079166666632
15975,55.0,0.47808800000001384,63.0,0.9688499999999749
15976,52.0,0.5019239999999741,44.0,0.4620621875000097
15977,57.0,0.7235774999999762,67.0,0.23526387500004375
15978,57.0,0.25665150000003223,67.0,1.4286846666666975
15979,52.0,0.5,47.0,0.4523464583333521
15980,52.0,0.4571080000000052,47.0,0.4666716250000036
15981,55.0,0.4715766666666923,73.0,0.9581979999999817
15982,52.0,0.5019239999999741,50.0,0.4562740000000076
15983,57.0,0.6917159999999853,73.0,0.2158218333333366
15984,57.0,0.23544200000003457,73.0,1.3671119999999632
15985,52.0,0.4593479999999772,52.0,0.43981437500002585
15986,52.0,0.44444399999997586,52.0,0.45849375000000236
15987,55.0,0.46332000000001017,75.0,0.9184660000000235
15988,52.0,0.4756619999999998,59.0,0.44280400000002373
15989,57.0,0.6780980000000341,77.0,0.23529400000001033
15990,60.0,0.23529400000001033,80.0,1.2908600000000092
15991,55.0,0.44280400000002373,72.0,0.41961104166665564
15992,55.0,0.42402800000002117,73.0,0.41961104166665564
15993,58.0,0.4240279999999643,85.0,0.856597000000022
15994,55.0,0.44280400000002373,79.0,0.4137929999999983
15995,60.0,0.4137929999999983,93.0,0.49382700000001023
15996,61.0,0.49382700000001023,101.0,0.44943799999998646
15997,37.0,0.44943799999998646,66.0,0.4656830000000127
15998,73.0,0.22471899999999323,95.0,0.2208836666666798
15999,75.0,0.2409640000000195,101.0,0.45902699999999186
16000,73.0,0.233462999999972,95.0,0.20676700000001347
16001,72.0,0.22556400000001986,97.0,0.44444399999997586
16002,70.0,0.22222199999998793,95.0,0.20370350000001736
16003,69.0,0.22222199999998793,94.0,0.4444440000000327
16004,70.0,0.22222200000004477,93.0,0.2037034999999605
16005,68.0,0.22222199999998793,93.0,0.4498892499999556
16006,66.0,0.3358207499999821,92.0,0.08555137500002274
16007,66.0,0.11406849999997348,91.0,0.44280400000002373
16008,65.0,0.22140200000001187,90.0,0.2029518333333158
16009,63.0,0.22140200000001187,89.0,0.4428039999999669
16010,61.0,0.22140199999995502,86.0,0.20295183333337263
16011,60.0,0.22140200000001187,85.0,0.45395999999999503
16012,58.0,0.22140200000001187,83.0,0.21317816666669387
16013,57.0,0.23255799999998317,85.0,0.4862835000000132
16014,54.0,0.16129033333334064,85.0,0.14112904166665885
16015,53.0,0.16129033333334064,86.0,0.14233529166665448
16016,53.0,0.1637028333333319,88.0,0.6115659999999252
16017,53.0,0.12010050000003503,88.0,0.11365075416665604
16018,53.0,0.12126496666661524,88.0,0.11475722083332585
16019,53.0,0.12244953333333797,89.0,0.1158881583333482
16020,53.0,0.12366018333329976,89.0,0.11639850416662512
16021,53.0,0.12409081666663724,90.0,0.6261620000000221
16022,53.0,0.15437491666665437,90.0,0.12966866666670285
16023,53.0,0.15571033333333162,91.0,0.13102779166666778
16024,53.0,0.1573435833333292,91.0,0.1321374166666942
16025,53.0,0.1587331666667069,91.0,0.2519950000000222
16026,73.0,0.2519950000000222,87.0,0.10062791666666726
16027,60.0,0.12075349999997798,76.0,0.10062791666666726
16028,46.0,0.12075350000003482,66.0,0.24270474999997305
16029,70.0,0.12075349999997798,79.0,0.10162604166669098
16030,70.0,0.12195124999999507,87.0,0.12048199999998133
16031,57.0,0.12048199999998133,75.0,0.10040166666669847
16032,46.0,0.12048200000003817,64.0,0.243432749999954
16033,65.0,0.12048199999998133,79.0,0.10245895833332952
16034,65.0,0.12295074999997269,87.0,0.12048199999998133
16035,52.0,0.12048199999998133,78.0,0.10040166666669847
16036,46.0,0.12048200000003817,64.0,0.2426031666666404
16037,61.0,0.12048199999998133,78.0,0.10171300000001793
16038,61.0,0.12212116666665906,87.0,0.12048199999998133
16039,49.0,0.12048199999998133,75.0,0.10040166666669847
16040,46.0,0.12048200000003817,64.0,0.2424332499999764
16041,63.0,0.12048199999998133,78.0,0.10162604166669098
16042,63.0,0.12195124999999507,87.0,0.12048199999998133
16043,53.0,0.12048199999998133,75.0,0.10040166666669847
16044,52.0,0.12048200000003817,75.0,0.2424332499999764
16045,51.0,0.12048199999998133,75.0,0.10162604166669098
16046,63.0,0.12195124999999507,87.0,0.12048199999998133
16047,53.0,0.12048199999998133,74.0,0.10040166666669847
16048,52.0,0.12048200000003817,76.0,0.24126470833328995
16049,51.0,0.12034204166661766,76.0,0.10071250000004284
16050,63.0,0.12092266666667228,87.0,0.121516999999983
16051,53.0,0.121516999999983,76.0,0.10173562500000344
16052,52.0,0.12211716666666916,76.0,0.2461110000000417
16053,51.0,0.12270633333332626,76.0,0.10276229166669282
16054,60.0,0.12340466666671546,87.0,0.12402541666665456
16055,51.0,0.12402541666665456,76.0,0.10381587500000933
16056,61.0,0.12463187500003414,87.0,0.25305800000001
16057,73.0,0.25305800000001,87.0,0.12177300000001878
16058,60.0,0.12177300000001878,76.0,0.10147749999998723
16059,46.0,0.12177299999996194,66.0,0.24522975000002134
16060,70.0,0.12177300000001878,79.0,0.1028806250000116
16061,70.0,0.12345675000000256,87.0,0.12145750000001954
16062,57.0,0.12145750000001954,75.0,0.10121458333333067
16063,46.0,0.12145749999996269,64.0,0.24440824999999222
16064,65.0,0.12145750000001954,79.0,0.10245895833332952
16065,65.0,0.12295074999997269,87.0,0.12145750000001954
16066,52.0,0.12145750000001954,78.0,0.10121458333333067
16067,46.0,0.12145749999996269,64.0,0.2454245000000128
16068,61.0,0.12145750000001954,78.0,0.10330583333330878
16069,61.0,0.12396699999999328,87.0,0.12145750000001954
16070,49.0,0.12145750000001954,75.0,0.10121458333333067
16071,46.0,0.12145749999996269,64.0,0.2454245000000128
16072,63.0,0.12145750000001954,78.0,0.10330583333330878
16073,63.0,0.12396699999999328,87.0,0.12177300000001878
16074,53.0,0.12177300000001878,75.0,0.10147749999998723
16075,52.0,0.12177299999996194,75.0,0.24354600000003757
16076,51.0,0.12177300000001878,75.0,0.10147749999998723
16077,63.0,0.12177300000001878,87.0,0.12177299999996194
16078,53.0,0.12177299999996194,74.0,0.10147750000004407
16079,52.0,0.12177300000001878,76.0,0.24354599999998072
16080,51.0,0.12177300000001878,76.0,0.10147749999998723
16081,63.0,0.12177299999996194,87.0,0.12194508333334397
16082,53.0,0.12194508333334397,76.0,0.10232887500001198
16083,52.0,0.12288133333333917,76.0,0.24946208333335562
16084,51.0,0.12411100000002762,76.0,0.10435150000000704
16085,54.0,0.12264241666667886,72.0,0.24354600000003757
16086,66.0,0.12177300000001878,74.0,0.12177300000001878
16087,53.0,0.12177300000001878,71.0,0.24354599999998072
16088,65.0,0.12177299999996194,81.0,0.12177300000001878
16089,54.0,0.12177300000001878,72.0,0.24354599999998072
16090,66.0,0.12177300000001878,73.0,0.12177299999996194
16091,54.0,0.12177299999996194,82.0,0.24963191666665807
16092,66.0,0.12698949999997922,75.0,0.12264241666667886
16093,57.0,0.12264241666667886,75.0,0.24354600000003757
16094,69.0,0.12177300000001878,76.0,0.12177300000001878
16095,56.0,0.12177300000001878,73.0,0.24354599999998072
16096,68.0,0.12177299999996194,84.0,0.12177300000001878
16097,57.0,0.12177300000001878,75.0,0.24354599999998072
16098,69.0,0.12177300000001878,75.0,0.12177299999996194
16099,57.0,0.12177299999996194,86.0,0.24963191666665807
16100,69.0,0.12698949999997922,78.0,0.12264241666667886
16101,60.0,0.12264241666667886,78.0,0.4870920000000183
16102,72.0,0.12177300000001878,79.0,0.12177300000001878
16103,61.0,0.12177300000001878,76.0,0.24354599999998072
16104,73.0,0.12177299999996194,87.0,0.12177300000001878
16105,63.0,0.12177300000001878,78.0,0.25251475000004575
16106,75.0,0.12177300000001878,78.0,0.13074175000002697
16107,63.0,0.13074175000002697,89.0,0.2499402499999519
16108,75.0,0.12698949999997922,81.0,0.12295074999997269
16109,61.0,0.12295074999997269,80.0,0.24590150000000222
16110,73.0,0.12295075000002953,81.0,0.12295074999997269
16111,61.0,0.12295074999997269,77.0,0.24590150000000222
16112,73.0,0.12295075000002953,89.0,0.12295074999997269
16113,60.0,0.12295074999997269,78.0,0.24590150000000222
16114,72.0,0.12295075000002953,78.0,0.12295074999997269
16115,60.0,0.12295074999997269,89.0,0.2547492500000317
16116,72.0,0.13130250000000387,81.0,0.1234467500000278
16117,58.0,0.1234467500000278,80.0,0.24689349999999877
16118,70.0,0.12344674999997096,81.0,0.1234467500000278
16119,58.0,0.1234467500000278,77.0,0.24689349999999877
16120,70.0,0.12344674999997096,89.0,0.1234467500000278
16121,53.0,0.1234467500000278,78.0,0.25310349999995196
16122,65.0,0.12344674999997096,78.0,0.129656749999981
16123,37.0,0.129656749999981,61.0,0.13185650000002624
16124,61.0,0.13185650000002624,77.0,0.12443999999999278
16125,73.0,0.12443999999999278,84.0,0.24887999999998556
16126,61.0,0.12443999999999278,80.0,0.12443999999999278
16127,73.0,0.12443999999999278,82.0,0.12444000000004962
16128,61.0,0.12444000000004962,79.0,0.12443999999999278
16129,72.0,0.12443999999999278,85.0,0.24887999999998556
16130,60.0,0.12443999999999278,81.0,0.12443999999999278
16131,72.0,0.12443999999999278,88.0,0.13130250000000387
16132,60.0,0.13130250000000387,79.0,0.12493749999998727
16133,70.0,0.12493749999998727,87.0,0.24987500000003138
16134,58.0,0.12493749999998727,80.0,0.12493750000004411
16135,70.0,0.12493750000004411,89.0,0.12493749999998727
16136,58.0,0.12493749999998727,79.0,0.12493749999998727
16137,65.0,0.12493749999998727,89.0,0.2567940000000135
16138,53.0,0.12493749999998727,81.0,0.13185650000002624
16139,37.0,0.13185650000002624,87.0,0.1318564999999694
16140,65.0,0.1318564999999694,87.0,0.1234467500000278
16141,77.0,0.1234467500000278,95.0,0.12344674999997096
16142,65.0,0.12344674999997096,86.0,0.1234467500000278
16143,65.0,0.1234467500000278,86.0,0.12344674999997096
16144,53.0,0.12344674999997096,78.0,0.1234467500000278
16145,65.0,0.1234467500000278,88.0,0.12344674999997096
16146,53.0,0.12344674999997096,78.0,0.13185650000002624
16147,53.0,0.13185650000002624,81.0,0.12394649999998819
16148,41.0,0.12394649999998819,77.0,0.12394649999998819
16149,53.0,0.12394649999998819,82.0,0.12394650000004503
16150,41.0,0.12394650000004503,76.0,0.12394649999998819
16151,41.0,0.12394649999998819,82.0,0.12394649999998819
16152,29.0,0.12394649999998819,74.0,0.12394649999998819
16153,41.0,0.12394649999998819,82.0,0.12394649999998819
16154,29.0,0.12394649999998819,64.0,0.13074175000002697
16155,21.0,0.13074175000002697,93.0,0.1284817916666725
16156,22.0,0.1284817916666725,81.0,0.12929224999999178
16157,43.0,0.12929224999999178,90.0,0.13010770833329843
16158,29.0,0.13010770833329843,77.0,0.13102212499995858
16159,28.0,0.13102212499995858,93.0,0.13185924999999088
16160,29.0,0.13185924999999088,85.0,0.1328026666666915
16161,43.0,0.1328026666666915,90.0,0.13376191666668547
16162,29.0,0.13376191666668547,81.0,0.13463500000000295
16163,21.0,0.13463500000000295,93.0,0.13492899999999963
16164,22.0,0.13492899999999963,81.0,0.1364021250000178
16165,43.0,0.1364021250000178,90.0,0.13791770833330474
16166,29.0,0.13791770833330474,77.0,0.139683166666714
16167,28.0,0.139683166666714,93.0,0.14448208333328694
16168,29.0,0.14448208333328694,85.0,0.1510677083333576
16169,43.0,0.1510677083333576,90.0,0.1581234583333071
16170,29.0,0.1581234583333071,81.0,0.1906212916666732
16171,17.0,0.1906212916666732,97.0,0.7594940000000179
16172,34.0,0.7594940000000179,54.0,0.09070529166666574
16173,35.0,0.09070529166666574,54.0,0.08978716666666742
16174,36.0,0.08978716666666742,55.0,0.09153466666668919
16175,37.0,0.09153466666668919,55.0,0.09111854166667399
16176,38.0,0.09111854166667399,56.0,0.09009104166671023
16177,39.0,0.09009104166671023,56.0,0.08999454166666965
16178,40.0,0.08999454166666965,56.0,0.09206016666666983
16179,41.0,0.09206016666666983,57.0,0.09163933333337582
16180,42.0,0.09163933333337582,57.0,0.09019391666669208
16181,43.0,0.09019391666669208,58.0,0.09060716666664348
16182,44.0,0.09060716666664348,58.0,0.09153466666668919
16183,45.0,0.09153466666668919,58.0,0.08978979166664658
16184,34.0,0.08978979166664658,69.0,0.406453041666623
16185,47.0,0.08978891666663458,59.0,0.09132416666665222
16186,48.0,0.09132416666665222,60.0,0.09029579166667645
16187,49.0,0.09029579166667645,60.0,0.08958958333334976
16188,50.0,0.08958958333334976,60.0,0.09111666666666451
16189,34.0,0.045454583333309984,62.0,0.13636737499996343
16190,51.0,0.04566208333335453,61.0,0.0907052916666089
16191,40.0,0.0907052916666089,69.0,0.5449826249999887
16192,53.0,0.08968616666669504,63.0,0.09091754166661303
16193,54.0,0.09091754166661303,63.0,0.09142991666669786
16194,55.0,0.09142991666669786,64.0,0.09019291666663776
16195,56.0,0.09019291666663776,64.0,0.09153466666668919
16196,57.0,0.09153466666668919,64.0,0.09122141666665584
16197,43.0,0.09122141666665584,69.0,0.4064431250000098
16198,59.0,0.08978716666666742,65.0,0.09029579166667645
16199,60.0,0.09029579166667645,66.0,0.09132416666665222
16200,61.0,0.09132416666665222,66.0,0.0901929166666946
16201,62.0,0.0901929166666946,66.0,0.08999004166662417
16202,37.0,0.0448430833333191,62.0,0.13636737499996343
16203,63.0,0.045146958333305065,67.0,0.09122041666665837
16204,34.0,0.09122041666665837,69.0,0.5403616250000596
16205,65.0,0.09029391666666697,68.0,0.08978716666666742
16206,66.0,0.08978716666666742,68.0,0.08938579166670024
16207,67.0,0.08938579166670024,68.0,0.09091191666669829
16208,68.0,0.09091191666669829,69.0,0.09029579166667645
16209,69.0,0.09029579166667645,69.0,0.0896870416666502
16210,70.0,0.0896870416666502,70.0,0.3411363749999623
16211,71.0,0.09153466666668919,70.0,0.09111854166667399
16212,72.0,0.09111854166667399,70.0,0.08999004166662417
16213,73.0,0.08999004166662417,71.0,0.09132416666665222
16214,29.0,0.06849312499997495,67.0,4.373317708333957
16215,74.0,0.022831041666677265,71.0,0.09122041666671521
16216,36.0,0.04566208333335453,68.0,4.304824583333925
16217,76.0,0.04555833333336068,72.0,0.09049766666669257
16218,39.0,0.02262441666664472,70.0,4.23664183333392
16219,78.0,0.06787325000004785,88.0,2.561768666666808
16220,77.0,0.10000000000002274,80.0,0.09189553333334288
16221,80.0,0.09189553333334288,80.0,0.08964349999996557
16222,78.0,0.08964349999996557,81.0,0.08978737500001444
16223,77.0,0.08978737500001444,79.0,0.09001853333336385
16224,75.0,0.09001853333336385,79.0,0.08992964166668571
16225,74.0,0.08992964166668571,79.0,0.08978583333333745
16226,77.0,0.08978583333333745,79.0,0.0898490416666391
16227,75.0,0.0898490416666391,79.0,0.0897954916667345
16228,73.0,0.0897954916667345,79.0,0.08984005833332276
16229,72.0,0.08984005833332276,79.0,0.08984947500005092
16230,70.0,0.08984947500005092,79.0,0.08942848333333586
16231,69.0,0.08942848333333586,79.0,0.08921587500003625
16232,72.0,0.08921587500003625,79.0,0.08949965833329543
16233,70.0,0.08949965833329543,79.0,0.08870570833335023
16234,69.0,0.08870570833335023,84.0,0.08840874999998505
16235,66.0,0.08840874999998505,80.0,0.08793387499997607
16236,65.0,0.08793387499997607,80.0,0.08746374999998352
16237,66.0,0.08746374999998352,80.0,0.08699887500006298
16238,65.0,0.08699887500006298,79.0,0.0865385833333221
16239,68.0,0.0865385833333221,79.0,0.08608349999997245
16240,66.0,0.08608349999997245,79.0,0.08559212500000513
16241,65.0,0.08559212500000513,78.0,0.08522725000000264
16242,63.0,0.08522725000000264,77.0,0.08522725000000264
16243,62.0,0.08522725000000264,77.0,0.08522725000000264
16244,65.0,0.08522725000000264,76.0,0.08502600000002758
16245,63.0,0.08502600000002758,76.0,0.08498574999998709
16246,61.0,0.08498574999998709,75.0,0.08498574999998709
16247,60.0,0.08498574999998709,75.0,0.08482574999999315
16248,45.0,0.08482574999999315,80.0,1.605591466667022
16249,57.0,0.08458658333336189,75.0,0.08478616666667449
16250,60.0,0.08478616666667449,75.0,0.08399562500005686
16251,58.0,0.08399562500005686,75.0,0.08486595833335286
16252,57.0,0.08486595833335286,75.0,0.08419233333336251
16253,54.0,0.08419233333336251,75.0,0.08470841666667184
16254,53.0,0.08470841666667184,75.0,0.08443099999999504
16255,54.0,0.08443099999999504,74.0,0.08478933333333316
16256,53.0,0.08478933333333316,74.0,0.0847087083333804
16257,56.0,0.0847087083333804,74.0,0.08490804166666521
16258,54.0,0.08490804166666521,74.0,0.0842705000000592
16259,53.0,0.0842705000000592,74.0,0.08458683333333283
16260,51.0,0.08458683333333283,74.0,0.0841927499999997
16261,50.0,0.0841927499999997,74.0,0.0849535833333448
16262,53.0,0.0849535833333448,73.0,0.08479325000001836
16263,51.0,0.08479325000001836,73.0,0.08470662500008075
16264,49.0,0.08470662500008075,73.0,0.08431033333329196
16265,48.0,0.08431033333329196,73.0,0.0847066250000239
16266,46.0,0.0847066250000239,73.0,0.08450725000005832
16267,45.0,0.08450725000005832,74.0,0.08450699999997369
16268,42.0,0.08450699999997369,75.0,0.08434883333330845
16269,41.0,0.08434883333330845,76.0,0.0839553333333356
16270,39.0,0.0839553333333356,76.0,0.08364333333327068
16271,37.0,0.08364333333327068,76.0,0.08325633333333826
16272,36.0,0.08325633333333826,79.0,0.08294950000004064
16273,34.0,0.08294950000004064,81.0,0.08256899999997813
16274,33.0,0.08256899999997813,83.0,0.08226700000000164
16275,30.0,0.08226700000000164,84.0,0.08189275000000862
16276,29.0,0.08189275000000862,84.0,0.08159574999996266
16277,27.0,0.08159574999996266,85.0,0.08141124999997373
16278,25.0,0.08141124999997373,86.0,0.08193016666672293
16279,24.0,0.08193016666672293,88.0,0.08241799999996147
16280,22.0,0.08241799999996147,89.0,0.08291145833328528
16281,21.0,0.08291145833328528,91.0,0.0834493749999865
16282,18.0,0.0834493749999865,93.0,0.08399470833336409
16283,17.0,0.08399470833336409,94.0,0.08450749999997242
16284,15.0,0.08450749999997242,94.0,0.08502624999999853
16285,13.0,0.08502624999999853,95.0,0.08559212500000513
16286,12.0,0.08559212500000513,97.0,0.0861660416666723
16287,10.0,0.0861660416666723,115.0,0.7790739166666185
16288,24.0,0.7790739166666185,75.0,0.08502600000002758
16289,25.0,0.08502600000002758,75.0,0.0847457500000246
16290,27.0,0.0847457500000246,76.0,0.0844674583333358
16291,29.0,0.0844674583333358,77.0,0.08423037500000419
16292,31.0,0.08423037500000419,77.0,0.0839553333333356
16293,33.0,0.0839553333333356,78.0,0.08372116666663487
16294,34.0,0.08372116666663487,78.0,0.08344937500004335
16295,36.0,0.08344937500004335,79.0,0.08317941666666684
16296,37.0,0.08317941666666684,80.0,0.08310249999999542
16297,39.0,0.08310249999999542,80.0,0.08310249999999542
16298,41.0,0.08310249999999542,81.0,0.08310249999999542
16299,43.0,0.08310249999999542,81.0,0.08310249999999542
16300,45.0,0.08310249999999542,82.0,0.08321787500000255
16301,46.0,0.08321787500000255,83.0,0.08376025000001164
16302,48.0,0.08376025000001164,83.0,0.08427008333330832
16303,49.0,0.08427008333330832,84.0,0.08478595833338431
16304,51.0,0.08478595833338431,84.0,0.08534862499999463
16305,53.0,0.08534862499999463,85.0,0.08591925000001766
16306,55.0,0.08591925000001766,86.0,0.08645583333327522
16307,57.0,0.08645583333327522,86.0,0.08699887500006298
16308,58.0,0.08699887500006298,89.0,0.37500000000005684
16309,37.0,1.5000000000000568,38.0,1.1842102499999783
16310,37.0,1.1842102499999783,38.0,0.39473674999999275
16311,37.0,0.39473674999999275,38.0,1.441647499999931
16312,29.0,1.6826113333332842,84.0,0.2315929999999753
16313,34.0,0.2315929999999753,80.0,0.22222216666671102
16314,36.0,0.22222216666671102,85.0,0.22471916666665948
16315,39.0,0.22471916666665948,89.0,0.2127659999999878
16316,37.0,0.2127659999999878,83.0,0.1988635833333774
16317,37.0,0.22727266666663581,92.0,0.2999999999999545
16318,25.0,1.2000000000000455,85.0,1.2514492499999506
16319,27.0,1.2514492499999506,71.0,0.08683087500003239
16320,29.0,0.08683087500003239,71.0,0.08670525000002272
16321,31.0,0.08670525000002272,71.0,0.08645524999997178
16322,33.0,0.08645524999997178,72.0,0.0863725000000386
16323,34.0,0.0863725000000386,72.0,0.08620700000005854
16324,36.0,0.08620700000005854,72.0,0.08600116666661961
16325,37.0,0.08600116666661961,73.0,0.08591904166667064
16326,39.0,0.08591904166667064,73.0,0.08571425000002364
16327,41.0,0.08571425000002364,73.0,0.08555141666658983
16328,43.0,0.08555141666658983,74.0,0.0854295416667128
16329,45.0,0.0854295416667128,74.0,0.08522725000000264
16330,46.0,0.08522725000000264,74.0,0.08510649999993802
16331,48.0,0.08510649999993802,75.0,0.08498574999998709
16332,49.0,0.08498574999998709,75.0,0.0847457500000246
16333,51.0,0.0847457500000246,75.0,0.08466616666669324
16334,53.0,0.08466616666669324,76.0,0.08450699999991684
16335,55.0,0.08450699999991684,76.0,0.0843092916667274
16336,57.0,0.0843092916667274,76.0,0.08419100000003255
16337,58.0,0.08419100000003255,77.0,0.08372149999991052
16338,60.0,0.08372149999991052,77.0,0.08372116666669172
16339,61.0,0.08372116666669172,77.0,0.08399441666654184
16340,63.0,0.08399441666654184,78.0,0.08430929166661372
16341,65.0,0.08430929166661372,78.0,0.08458658333336189
16342,67.0,0.08458658333336189,78.0,0.084865749999949
16343,69.0,0.084865749999949,79.0,0.08514674999992167
16344,70.0,0.08514674999992167,79.0,0.0854295416667128
16345,72.0,0.0854295416667128,79.0,0.08575520833335304
16346,73.0,0.08575520833335304,87.0,0.2999999999999545
16347,41.0,1.2000000000000455,45.0,1.084337249999976
16348,41.0,1.084337249999976,45.0,0.3614457500000299
16349,41.0,0.3614457500000299,45.0,1.368052999999918
16350,41.0,1.6061481666665713,94.0,0.2326839166667014
16351,46.0,0.2326839166667014,94.0,0.22727266666663581
16352,49.0,0.22727266666663581,99.0,0.22727266666663581
16353,54.0,0.22727266666663581,100.0,0.2127659999999878
16354,53.0,0.2127659999999878,94.0,0.20114937499999996
16355,53.0,0.22988499999996748,94.0,0.34750066666663315
16356,79.0,1.295776291666698,104.0,0.4788869187500495
16357,67.0,0.08249908333334588,109.0,0.30340879166669765
16358,78.0,0.3934116458333392,106.0,0.3834196458334418
16359,66.0,0.08928568750002341,108.0,0.2941339583334184
16360,77.0,0.38134327083332664,104.0,0.3719380208334542
16361,65.0,0.08654102083346515,107.0,0.285396999999989
16362,76.0,0.3696666874999437,100.0,0.3518907708333927
16363,64.0,0.08364543750008124,106.0,0.26824533333331146
16364,75.0,0.3480325833332927,102.0,0.3411814333333041
16365,63.0,0.0793393166666192,103.0,0.2618421166666849
16366,74.0,0.3396986375000779,103.0,0.33284664583322865
16367,62.0,0.07731956249995164,102.0,0.255527083333277
16368,73.0,0.33128464583330697,102.0,0.3252625208334621
16369,61.0,0.07575756250002996,101.0,0.24950495833343211
16370,72.0,0.32376239583334154,101.0,0.31782509583342744
16371,60.0,0.0738691708334045,100.0,0.24395592500002294
16372,54.0,0.13100425000000016,68.0,0.13100425000000016
16373,52.0,0.13100425000000016,75.0,0.13100425000000016
16374,49.0,0.13100425000000016,70.0,0.13100425000000016
16375,42.0,0.13100425000000016,71.0,0.13043474999999916
16376,54.0,0.13043474999999916,71.0,0.13043474999999916
16377,56.0,0.13043474999999916,77.0,0.1304347500000027
16378,49.0,0.1304347500000027,72.0,0.13043474999999916
16379,42.0,0.13043474999999916,73.0,0.13043474999999916
16380,54.0,0.13043474999999916,73.0,0.1302465833333315
16381,56.0,0.1302465833333315,80.0,0.1300584166666674
16382,49.0,0.1300584166666674,74.0,0.1308144166666665
16383,42.0,0.1308144166666665,75.0,0.13157899999999856
16384,54.0,0.13157899999999856,77.0,0.13235341666666756
16385,56.0,0.13235341666666756,83.0,0.13313658333333223
16386,49.0,0.13313658333333223,78.0,0.13373008333333303
16387,42.0,0.13373008333333303,79.0,0.13473125000000152
16388,54.0,0.13473125000000152,79.0,0.13488274999999916
16389,56.0,0.13488274999999916,85.0,0.13887725000000728
16390,49.0,0.13887725000000728,80.0,0.14857958333333698
16391,42.0,0.14857958333333698,81.0,0.1597649833333321
16392,54.0,0.1597649833333321,82.0,0.17275311250000058
16393,56.0,0.17275311250000058,89.0,0.5813635000000019
16394,42.0,0.44117650000000097,72.0,0.3006536666666655
16395,54.0,0.14018700000000095,85.0,0.14342121666666685
16396,54.0,0.16046666666666454,85.0,0.6837659999999985
16397,30.0,0.3409089999999999,78.0,0.08571424999999877
16398,35.0,0.34285699999999864,79.0,0.16666675000000097
16399,51.0,0.3333334999999984,80.0,0.3431372500000016
16400,52.0,0.16666675000000097,79.0,0.17647050000000064
16401,56.0,0.17647050000000064,85.0,0.3415032916666654
16402,54.0,0.1748365416666644,80.0,0.31020750000000064
16403,56.0,0.08333337499999871,74.0,0.08333337500000226
16404,54.0,0.08333337500000226,85.0,0.32211225
16405,53.0,0.14354074999999966,80.0,0.17857150000000033
16406,54.0,0.17857150000000033,80.0,0.6798919999999988
16407,30.0,0.3389829999999989,73.0,0.08522724999999909
16408,35.0,0.3409089999999999,79.0,0.1612902500000004
16409,51.0,0.3225805000000008,80.0,0.33615825000000044
16410,52.0,0.16666675000000097,79.0,0.16949149999999946
16411,56.0,0.16949149999999946,85.0,0.3333334999999984
16412,54.0,0.16666675000000097,80.0,0.30952399999999614
16413,56.0,0.08333337499999871,74.0,0.08333337499999871
16414,54.0,0.08333337499999871,85.0,0.31331175000000044
16415,53.0,0.14285724999999871,80.0,0.17045450000000173
16416,56.0,0.17045450000000173,85.0,0.3333334999999984
16417,54.0,0.16666675000000097,80.0,0.31818199999999663
16418,56.0,0.08333337499999871,74.0,0.08333337499999871
16419,54.0,0.08333337499999871,85.0,0.1515152499999992
16420,53.0,0.1515152499999992,80.0,0.17241374999999692
16421,54.0,0.17241374999999692,80.0,0.26801812499999755
16422,42.0,0.26801812499999755,66.0,0.4674228749999969
16423,49.0,0.05067568749999651,66.0,0.4167471875000004
16424,57.0,0.05067568750000362,78.0,0.3660714999999968
16425,20.0,0.23214287500000097,57.0,0.35714300000000065
16426,27.0,0.04464287500000097,57.0,0.4464287499999955
16427,30.0,0.04464287500000097,68.0,0.2678572499999987
16428,56.0,0.044642874999993865,76.0,0.35714300000000065
16429,27.0,0.22321437500000485,56.0,0.1339286249999958
16430,32.0,0.04464287500000097,56.0,0.3125001249999997
16431,36.0,0.044642874999993865,67.0,0.2678572500000058
16432,51.0,0.04464287500000097,76.0,0.35714300000000065
16433,25.0,0.22321437500000485,58.0,0.49107162499999646
16434,32.0,0.04464287500000097,58.0,0.4464287499999955
16435,37.0,0.044642874999993865,69.0,0.4017858750000016
16436,52.0,0.04464287500000097,76.0,0.35714300000000065
16437,45.0,0.35714300000000065,73.0,0.36363649999999836
16438,33.0,0.12121216666666612,73.0,0.12121216666666612
16439,45.0,0.12121216666666612,73.0,0.12121216666666612
16440,44.0,0.12121216666666612,77.0,0.3529410000000013
16441,40.0,0.3529410000000013,72.0,0.38709699999999714
16442,45.0,0.2903227500000014,78.0,0.09677424999999573
16443,57.0,0.09677424999999573,89.0,0.5496362499999989
16444,44.0,0.40540550000000053,72.0,0.3046930000000003
16445,56.0,0.1442307499999984,85.0,0.14441602499999817
16446,56.0,0.16046225000000192,85.0,0.6838994999999954
16447,32.0,0.33707849999999695,78.0,0.0867052500000014
16448,37.0,0.3468209999999985,79.0,0.16666674999999742
16449,52.0,0.33333350000000195,80.0,0.34313724999999806
16450,54.0,0.16666674999999742,79.0,0.17647050000000064
16451,57.0,0.17647050000000064,85.0,0.3415032916666618
16452,56.0,0.1748365416666644,80.0,0.3102074999999971
16453,57.0,0.08333337500000226,74.0,0.08333337499999516
16454,56.0,0.08333337499999516,85.0,0.32211224999999644
16455,55.0,0.14354074999999966,80.0,0.17857149999999677
16456,56.0,0.17857149999999677,80.0,0.6818179999999998
16457,32.0,0.34090900000000346,73.0,0.08522724999999554
16458,37.0,0.34090899999999635,79.0,0.1612902500000004
16459,58.0,0.3225805000000008,80.0,0.35961983333333336
16460,59.0,0.1754384999999985,79.0,0.18418133333333486
16461,63.0,0.18418133333333486,84.0,0.1734105000000028
16462,58.0,0.1734105000000028,73.0,0.1734104999999957
16463,63.0,0.1734104999999957,78.0,0.14285724999999871
16464,61.0,0.22808450000000136,77.0,0.07670452499999669
16465,61.0,0.08522724999999554,81.0,0.16666674999999742
16466,54.0,0.16666674999999742,70.0,0.16666675000000453
16467,61.0,0.16666675000000453,75.0,0.14285724999999871
16468,59.0,0.22808450000000136,67.0,0.07670452499999669
16469,59.0,0.08522724999999554,78.0,0.16666674999999742
16470,54.0,0.16666674999999742,66.0,0.16666675000000453
16471,59.0,0.16666675000000453,73.0,0.14285724999999871
16472,58.0,0.22808450000000136,66.0,0.07670452499999669
16473,58.0,0.08522724999999554,75.0,0.16666674999999742
16474,53.0,0.16666674999999742,65.0,0.16666675000000453
16475,58.0,0.16666675000000453,71.0,0.14285724999999871
16476,56.0,0.22808450000000136,68.0,0.07670452499999669
16477,56.0,0.08522724999999554,73.0,0.16666674999999742
16478,49.0,0.16666674999999742,63.0,0.16666675000000453
16479,56.0,0.16666675000000453,69.0,0.14285724999999871
16480,54.0,0.22808450000000136,63.0,0.08522724999999554
16481,52.0,0.08522724999999554,75.0,0.6466452499999988
16482,47.0,0.16666674999999742,63.0,0.16666675000000453
16483,52.0,0.16666675000000453,70.0,0.3133117499999969
16484,51.0,0.22808450000000136,62.0,0.08522724999999554
16485,44.0,0.08522724999999554,63.0,0.6690798750000084
16486,37.0,0.34090900000000346,53.0,0.32817087500000497
16487,27.0,0.32817087500000497,54.0,0.31519749999999647
16488,47.0,0.08167350000000084,55.0,0.07964950000000215
16489,46.0,0.07964950000000215,55.0,0.07785795833333253
16490,47.0,0.07785795833333253,56.0,0.07601654166666094
16491,44.0,0.07601654166666094,56.0,0.32594012499999536
16492,46.0,0.16304350000000056,57.0,0.1628966249999948
16493,20.0,0.1628966249999948,58.0,0.31236545833332485
16494,49.0,0.0802154166666682,59.0,0.07881249999999795
16495,47.0,0.07881249999999795,59.0,0.07732099999999775
16496,49.0,0.07732099999999775,60.0,0.07601654166666094
16497,46.0,0.07601654166666094,60.0,0.3260870000000011
16498,47.0,0.16304350000000056,61.0,0.16304350000000056
16499,48.0,0.16304350000000056,60.0,0.33071424999999977
16500,49.0,0.1630790000000033,56.0,0.16763524999999646
16501,51.0,0.16763524999999646,56.0,0.33373874999999487
16502,52.0,0.16132499999999794,56.0,0.17241374999999692
16503,51.0,0.17241374999999692,60.0,0.3260870000000011
16504,56.0,0.3260870000000011,68.0,0.24456525000000084
16505,54.0,0.24456525000000084,62.0,0.07336957500000096
16506,54.0,0.08152175000000028,69.0,0.16304350000000056
16507,47.0,0.16304350000000056,64.0,0.3315827500000026
16508,59.0,0.16304350000000056,76.0,0.33707849999999695
16509,58.0,0.2528088749999995,70.0,0.08426962499999746
16510,56.0,0.08426962499999746,70.0,0.679047875000002
16511,37.0,0.350876999999997,59.0,0.32817087500000497
16512,27.0,0.32817087500000497,69.0,0.31519749999999647
16513,58.0,0.161323000000003,65.0,0.05208474999999879
16514,59.0,0.05208474999999879,66.0,0.051283416666663584
16515,58.0,0.051283416666663584,65.0,0.0505063333333311
16516,56.0,0.0505063333333311,66.0,0.32594012499999536
16517,58.0,0.16304350000000056,67.0,0.1628966249999948
16518,20.0,0.1628966249999948,71.0,0.31236545833332485
16519,59.0,0.15902791666666616,65.0,0.051679958333330944
16520,61.0,0.051679958333330944,65.0,0.05115124999999665
16521,59.0,0.05115124999999665,65.0,0.0505063333333311
16522,58.0,0.0505063333333311,71.0,0.3260870000000011
16523,59.0,0.16304350000000056,72.0,0.16304350000000056
16524,60.0,0.16304350000000056,75.0,0.1630790000000033
16525,61.0,0.1630790000000033,70.0,0.16670375000000348
16526,63.0,0.16670375000000348,70.0,0.33172700000000077
16527,64.0,0.1621972499999984,70.0,0.16952975000000237
16528,63.0,0.16952975000000237,75.0,0.17045449999999818
16529,68.0,0.34090900000000346,76.0,0.26117112499999706
16530,66.0,0.26117112499999706,69.0,0.07988163750000155
16531,66.0,0.08875737500000014,77.0,0.17241374999999692
16532,54.0,0.25862062499999894,60.0,0.3362070000000017
16533,42.0,0.04310343750000101,56.0,0.2931035625000007
16534,64.0,0.04310343750000101,76.0,0.2500001249999997
16535,63.0,0.2500001249999997,70.0,0.34496112500000464
16536,32.0,0.04166668749999758,60.0,0.30329443750000706
16537,61.0,0.041666687500004684,76.0,0.2616277500000024
16538,18.0,0.2616277500000024,56.0,0.3400181250000003
16539,25.0,0.0436046250000004,56.0,0.2964134999999999
16540,49.0,0.0436046250000004,70.0,0.2528088749999995
16541,51.0,0.2528088749999995,70.0,0.34544504166666457
16542,20.0,0.04213481250000228,52.0,0.34716985416665835
16543,52.0,0.04213481249999518,74.0,0.34889466666666635
16544,52.0,0.34889466666666635,72.0,0.25139662499999815
16545,51.0,0.25139662499999815,69.0,0.34695662499999713
16546,20.0,0.04189943749999969,52.0,0.30505718749999744
16547,49.0,0.04189943749999969,75.0,0.350876999999997
16548,18.0,0.26315774999999775,51.0,0.3391158749999974
16549,25.0,0.04385962500000318,51.0,0.2952562499999942
16550,47.0,0.04385962499999607,72.0,0.25139662499999815
16551,45.0,0.25139662499999815,68.0,0.34197704166666654
16552,20.0,0.04189943749999969,56.0,0.30007760416666684
16553,44.0,0.04189943749999969,71.0,0.25817816666666715
16554,24.0,0.34488341666666855,59.0,0.08621258333333515
16555,25.0,0.08621258333333515,59.0,0.08522724999999554
16556,27.0,0.08522724999999554,60.0,0.08506675000000286
16557,28.0,0.08506675000000286,61.0,0.08474574999999618
16558,30.0,0.08474574999999618,61.0,0.08426962499999746
16559,32.0,0.08426962499999746,62.0,0.08395579166666778
16560,34.0,0.08395579166666778,63.0,0.08379887499999938
16561,36.0,0.08379887499999938,63.0,0.08348854166666086
16562,37.0,0.08348854166666086,64.0,0.08317987500000612
16563,39.0,0.08317987500000612,65.0,0.08287287499999962
16564,40.0,0.08287287499999962,65.0,0.08241762499999794
16565,42.0,0.08241762499999794,66.0,0.08241762500000505
16566,44.0,0.08241762500000505,67.0,0.08196724999999816
16567,46.0,0.08196724999999816,67.0,0.08167025000000194
16568,48.0,0.08167025000000194,68.0,0.08137487500000162
16569,49.0,0.08137487500000162,68.0,0.0810811250000043
16570,51.0,0.0810811250000043,69.0,0.08093579166666842
16571,52.0,0.08093579166666842,70.0,0.08064512499999665
16572,54.0,0.08064512499999665,70.0,0.08021387499999832
16573,56.0,0.08021387499999832,71.0,0.07992945833333209
16574,58.0,0.07992945833333209,72.0,0.07964654166666918
16575,60.0,0.07964654166666918,72.0,0.07936512500000248
16576,49.0,0.07936512500000248,77.0,0.17647050000000064
16577,63.0,0.2647057499999974,71.0,0.08823525000000387
16578,58.0,0.08823525000000387,76.0,0.1621622500000015
16579,57.0,0.1621622500000015,71.0,0.1621622500000015
16580,58.0,0.1621622500000015,75.0,0.3529410000000013
16581,42.0,0.3529410000000013,72.0,0.34090900000000346
16582,59.0,0.34090900000000346,73.0,0.3389829999999989
16583,54.0,0.3389829999999989,71.0,0.35502950000000055
16584,56.0,0.35502950000000055,77.0,0.34482750000000095
16585,59.0,0.34482750000000095,72.0,0.3592815000000016
16586,49.0,0.3592815000000016,81.0,0.350876999999997
16587,56.0,0.350876999999997,78.0,0.3921569999999974
16588,47.0,0.3921569999999974,87.0,0.4137929999999983
16589,54.0,0.4137929999999983,82.0,0.4761905000000013
16590,68.0,0.4761905000000013,97.0,0.5913149999999945
16591,42.0,0.4511279999999971,79.0,0.3006492499999993
16592,66.0,0.1401869999999974,93.0,0.14441602499999817
16593,66.0,0.16046225000000192,93.0,0.350876999999997
16594,42.0,0.26315774999999775,71.0,0.08771924999999925
16595,30.0,0.08771924999999925,85.0,0.08522725000000264
16596,44.0,0.06818179999999785,71.0,0.06818180000000496
16597,42.0,0.06818180000000496,71.0,0.06818179999999785
16598,41.0,0.06818179999999785,71.0,0.06818179999999785
16599,42.0,0.06818179999999785,71.0,0.06818180000000496
16600,47.0,0.06818180000000496,87.0,0.16666674999999742
16601,63.0,0.33333350000000195,88.0,0.34313724999999806
16602,64.0,0.16666674999999742,86.0,0.17647050000000064
16603,68.0,0.17647050000000064,93.0,0.3415032916666618
16604,66.0,0.25816991666666667,88.0,0.07500003749999706
16605,66.0,0.08333337499999516,93.0,0.32211224999999644
16606,65.0,0.14354074999999966,88.0,0.17857149999999677
16607,66.0,0.17857149999999677,88.0,0.35714300000000065
16608,42.0,0.2678572500000058,70.0,0.08928574999999483
16609,30.0,0.08928574999999483,80.0,0.08522725000000264
16610,44.0,0.06818179999999785,70.0,0.06818180000000496
16611,42.0,0.06818180000000496,70.0,0.06818179999999785
16612,41.0,0.06818179999999785,70.0,0.06818179999999785
16613,42.0,0.06818179999999785,70.0,0.06818180000000496
16614,47.0,0.06818180000000496,87.0,0.1612902500000004
16615,63.0,0.3225805000000008,88.0,0.3361582499999969
16616,64.0,0.16666674999999742,86.0,0.16949149999999946
16617,68.0,0.16949149999999946,93.0,0.33333350000000195
16618,66.0,0.16666674999999742,88.0,0.30952400000001035
16619,68.0,0.08333337500000937,81.0,0.08333337499999516
16620,66.0,0.08333337499999516,93.0,0.3133117500000111
16621,65.0,0.14285725000000582,88.0,0.17045450000000528
16622,68.0,0.17045450000000528,93.0,0.33333349999999484
16623,66.0,0.16666675000000453,88.0,0.3181819999999931
16624,68.0,0.08333337499999516,81.0,0.08333337499999516
16625,66.0,0.08333337499999516,93.0,0.15151525000000277
16626,65.0,0.15151525000000277,88.0,0.17241375000000403
16627,66.0,0.17241375000000403,88.0,0.2715618750000033
16628,54.0,0.2715618750000033,72.0,0.3816808750000007
16629,61.0,0.052447562500006484,72.0,0.3292333124999942
16630,69.0,0.05244756249999227,85.0,0.27678575000000194
16631,20.0,0.23214287499999386,62.0,0.35714300000000776
16632,54.0,0.044642875000008075,70.0,0.4464287499999955
16633,30.0,0.044642874999993865,74.0,0.3125001249999997
16634,68.0,0.044642875000008075,83.0,0.2678572499999916
16635,51.0,0.22321437499999774,70.0,0.4017858750000016
16636,54.0,0.044642874999993865,70.0,0.35714300000000776
16637,42.0,0.044642875000008075,73.0,0.3125001249999997
16638,63.0,0.044642874999993865,83.0,0.2678572500000058
16639,49.0,0.2678572500000058,70.0,0.4464287499999955
16640,32.0,0.044642874999993865,75.0,0.4017858750000016
16641,64.0,0.044642875000008075,83.0,0.35714299999999355
16642,57.0,0.35714299999999355,80.0,0.36363649999999836
16643,45.0,0.12121216666666612,80.0,0.12121216666666612
16644,57.0,0.12121216666666612,80.0,0.12121216666666612
16645,56.0,0.12121216666666612,84.0,0.3529410000000013
16646,52.0,0.3529410000000013,79.0,0.38709699999999714
16647,69.0,0.38709699999999714,97.0,0.5363877500000029
16648,44.0,0.3921569999999974,79.0,0.3063929999999999
16649,68.0,0.14423075000000551,93.0,0.14594602500000065
16650,68.0,0.1621622499999944,93.0,0.3468210000000056
16651,44.0,0.2601157499999971,71.0,0.0867052500000085
16652,32.0,0.0867052500000085,85.0,0.08522725000000264
16653,45.0,0.06818180000000496,71.0,0.06818179999999074
16654,44.0,0.06818179999999074,71.0,0.06818180000000496
16655,43.0,0.06818180000000496,71.0,0.06818180000000496
16656,44.0,0.06818180000000496,71.0,0.06818179999999074
16657,49.0,0.06818179999999074,87.0,0.16666675000000453
16658,64.0,0.33333349999999484,88.0,0.34313724999999806
16659,34.0,0.08184844999999541,69.0,0.08152175000000739
16660,36.0,0.08152175000000739,69.0,0.08111049999999409
16661,37.0,0.08111049999999409,70.0,0.08081952499999545
16662,39.0,0.08081952499999545,71.0,0.08053012500000989
16663,40.0,0.08053012500000989,71.0,0.08021387499999832
16664,42.0,0.08021387499999832,72.0,0.07981569166666702
16665,44.0,0.07981569166666702,73.0,0.07953397499998971
16666,46.0,0.07953397499998971,73.0,0.07925372499998673
16667,48.0,0.07925372499998673,74.0,0.0789473750000127
16668,49.0,0.0789473750000127,74.0,0.07856155833331968
16669,51.0,0.07856155833331968,75.0,0.07828860000000759
16670,52.0,0.07828860000000759,77.0,0.07801706666667485
16671,54.0,0.07801706666667485,77.0,0.07772024999999871
16672,56.0,0.07772024999999871,78.0,0.07734633333333818
16673,58.0,0.07734633333333818,77.0,0.07708172499999932
16674,60.0,0.07708172499999932,77.0,0.07681845833333512
16675,61.0,0.07681845833333512,78.0,0.07653062500000374
16676,63.0,0.07653062500000374,79.0,0.07616802499998698
16677,64.0,0.07616802499998698,80.0,0.07591142500000103
16678,66.0,0.07591142500000103,80.0,0.07565609166667286
16679,68.0,0.07565609166667286,81.0,0.07537687500000345
16680,70.0,0.07537687500000345,82.0,0.09457000000000448
16681,72.0,0.09457000000000448,83.0,0.08928562500000226
16682,73.0,0.08928562500000226,92.0,0.17647049999999354
16683,75.0,0.2647057500000045,85.0,0.08823524999999677
16684,70.0,0.08823524999999677,91.0,0.1621622499999944
16685,69.0,0.1621622499999944,85.0,0.1621622500000086
16686,73.0,0.1621622500000086,90.0,0.3529410000000013
16687,70.0,0.3529410000000013,85.0,0.34090899999999635
16688,71.0,0.34090899999999635,88.0,0.3389829999999989
16689,66.0,0.3389829999999989,85.0,0.35502950000000055
16690,68.0,0.35502950000000055,85.0,0.20134224999999617
16691,30.0,0.40268450000000655,69.0,0.7692310000000049
16692,40.0,0.2884616249999965,67.0,0.08653848750000748
16693,49.0,0.09615387499999883,72.0,0.7927790000000101
16694,18.0,0.38461550000000955,61.0,0.20408175000000028
16695,47.0,0.40816350000000057,67.0,0.20408175000000028
16696,63.0,0.8163270000000011,78.0,0.20408175000000028
16697,51.0,0.40816350000000057,51.0,0.18292674999999292
16698,51.0,0.2743901249999965,47.0,0.09146337500000357
16699,51.0,0.09146337500000357,55.0,0.38461549999999534
16700,51.0,0.38461549999999534,51.0,0.1807230000000004
16701,51.0,0.2710845000000006,47.0,0.0903615000000002
16702,51.0,0.0903615000000002,58.0,0.3797469999999947
16703,51.0,0.3797469999999947,55.0,0.1807230000000004
16704,51.0,0.2710845000000006,52.0,0.0903615000000002
16705,51.0,0.0903615000000002,62.0,0.3797469999999947
16706,51.0,0.3797469999999947,58.0,0.1807230000000004
16707,51.0,0.2710845000000006,55.0,0.0903615000000002
16708,51.0,0.0903615000000002,67.0,0.3773584999999997
16709,51.0,0.3773584999999997,61.0,0.1807230000000004
16710,51.0,0.2710845000000006,56.0,0.0903615000000002
16711,51.0,0.0903615000000002,68.0,0.3773584999999997
16712,51.0,0.3773584999999997,66.0,0.17964075000000435
16713,51.0,0.2694611250000065,61.0,0.08982037499998796
16714,55.0,0.08982037499998796,68.0,0.40540550000000053
16715,55.0,0.40540550000000053,71.0,0.7143164999999954
16716,46.0,0.1734105000000028,54.0,0.09803924999999936
16717,36.0,0.1960784999999987,60.0,0.17241375000000403
16718,46.0,0.17241375000000403,56.0,0.17241374999998982
16719,65.0,0.17241374999998982,66.0,0.16853924999999492
16720,55.0,0.16853924999999492,69.0,0.17751475000000028
16721,56.0,0.17751475000000028,71.0,0.33519549999999754
16722,58.0,0.33519549999999754,71.0,0.33519549999999754
16723,65.0,0.25139662499999815,68.0,0.08379887499999938
16724,55.0,0.08379887499999938,68.0,0.33519550000001175
16725,39.0,0.33519550000001175,59.0,0.08287287500000673
16726,43.0,0.08287287500000673,61.0,0.08287287499999252
16727,46.0,0.08287287499999252,62.0,0.08272112500000617
16728,50.0,0.08272112500000617,63.0,0.08241762500000505
16729,51.0,0.08241762500000505,64.0,0.08226749999998617
16730,55.0,0.08226749999998617,66.0,0.08196725000000527
16731,58.0,0.08196725000000527,68.0,0.08196724999999105
16732,62.0,0.08196724999999105,68.0,0.08167025000001615
16733,63.0,0.08167025000001615,70.0,0.16274974999998904
16734,67.0,0.08152174999999318,72.0,0.08122799999999586
16735,70.0,0.08122799999999586,73.0,0.16187158333333684
16736,75.0,0.08108112500001141,74.0,0.08079045833332543
16737,76.0,0.08079045833332543,75.0,0.3499050833333541
16738,77.0,0.3499050833333541,79.0,0.3700997500000227
16739,78.0,0.3700997500000227,82.0,0.2097902499999975
16740,54.0,0.419580499999995,51.0,0.18292674999999292
16741,54.0,0.2743901249999965,47.0,0.09146337500000357
16742,54.0,0.09146337500000357,55.0,0.38461549999999534
16743,54.0,0.38461549999999534,51.0,0.1807230000000004
16744,54.0,0.2710845000000006,47.0,0.0903615000000002
16745,54.0,0.0903615000000002,58.0,0.3797469999999947
16746,54.0,0.3797469999999947,55.0,0.1807230000000004
16747,54.0,0.2710845000000006,52.0,0.0903615000000002
16748,54.0,0.0903615000000002,62.0,0.3797469999999947
16749,54.0,0.3797469999999947,58.0,0.1807230000000004
16750,54.0,0.2710845000000006,55.0,0.0903615000000002
16751,54.0,0.0903615000000002,67.0,0.3773584999999997
16752,54.0,0.3773584999999997,61.0,0.1807230000000004
16753,54.0,0.2710845000000006,56.0,0.0903615000000002
16754,54.0,0.0903615000000002,68.0,0.3773584999999997
16755,54.0,0.3773584999999997,66.0,0.17964075000000435
16756,54.0,0.2694611250000065,61.0,0.08982037499998796
16757,58.0,0.08982037499998796,68.0,0.40540550000000053
16758,58.0,0.40540550000000053,71.0,0.7143164999999954
16759,49.0,0.1734105000000028,54.0,0.09803924999999936
16760,51.0,0.1960784999999987,60.0,0.17241375000000403
16761,49.0,0.17241375000000403,56.0,0.17241374999998982
16762,65.0,0.17241374999998982,66.0,0.16853924999999492
16763,70.0,0.16853924999999492,69.0,0.17751475000000028
16764,71.0,0.17751475000000028,71.0,0.33519549999999754
16765,37.0,0.20949718750000557,53.0,0.4705258124999858
16766,44.0,0.04189943749999259,53.0,0.42862637499999323
16767,47.0,0.0418994375000068,53.0,0.38672693749998643
16768,70.0,0.04189943749999259,71.0,0.34482749999999385
16769,68.0,0.25862062500000604,68.0,0.0862068749999878
16770,70.0,0.0862068749999878,68.0,0.35714299999999355
16771,58.0,0.35714299999999355,67.0,0.35714300000000776
16772,56.0,0.2678572500000058,63.0,0.08928575000000194
16773,54.0,0.08928575000000194,59.0,0.35714299999999355
16774,46.0,0.35714299999999355,67.0,0.35714300000000776
16775,44.0,0.2678572500000058,63.0,0.08928575000000194
16776,42.0,0.08928575000000194,59.0,0.38709699999999714
16777,18.0,0.38709699999999714,45.0,0.19354850000000567
16778,44.0,0.38709699999999714,68.0,1.4842625000000282
16779,34.0,0.38709700000001135,45.0,0.12786993749999453
16780,34.0,0.17049325000000692,47.0,0.14614181250000513
16781,34.0,0.1948557500000021,49.0,0.2710845000000006
16782,34.0,0.3614460000000008,45.0,0.2777778749999982
16783,37.0,0.37037050000000704,63.0,0.7547169999999994
16784,34.0,0.3773584999999997,45.0,0.28301887499999623
16785,39.0,0.3773584999999997,67.0,1.4406542499999944
16786,34.0,0.37037050000000704,47.0,0.12643293749999884
16787,34.0,0.16857724999999846,47.0,0.13722862500000588
16788,34.0,0.18297149999999363,50.0,0.269525625
16789,39.0,0.3593675000000047,64.0,0.269525625
16790,40.0,0.269525625,62.0,0.08984187499999052
16791,25.0,0.08984187499999052,55.0,0.36147687500000814
16792,42.0,0.09317012500000033,54.0,0.09146566666667866
16793,40.0,0.09146566666667866,56.0,0.08928783333333001
16794,42.0,0.08928783333333001,56.0,0.08755324999999914
16795,40.0,0.08755324999999914,57.0,0.3529797916666695
16796,42.0,0.06959940000000131,57.0,0.07007339999999829
16797,40.0,0.07007339999999829,56.0,0.07058860833333824
16798,39.0,0.07058860833333824,56.0,0.07111157500000331
16799,40.0,0.07111157500000331,55.0,0.07160680833332833
16800,39.0,0.07160680833332833,67.0,1.3963337500000108
16801,34.0,0.3614460000000008,47.0,0.12572643750000623
16802,34.0,0.16763525000000357,47.0,0.13008787500000096
16803,34.0,0.17345050000000128,50.0,0.2601757500000019
16804,39.0,0.34690100000000257,64.0,0.2601757500000019
16805,40.0,0.2601757500000019,62.0,0.08672525000000064
16806,25.0,0.08672525000000064,55.0,0.35877784166663673
16807,42.0,0.09356126666666853,54.0,0.09098835833331975
16808,40.0,0.09098835833331975,56.0,0.08830977499998482
16809,42.0,0.08830977499998482,56.0,0.08591844166666363
16810,40.0,0.08591844166666363,57.0,0.34931524166664474
16811,42.0,0.06821536666666361,57.0,0.06899987499998872
16812,40.0,0.06899987499998872,56.0,0.0698702000000111
16813,39.0,0.0698702000000111,56.0,0.07069344166664848
16814,40.0,0.07069344166664848,55.0,0.07153635833333283
16815,39.0,0.07153635833333283,64.0,0.3592815000000087
16816,41.0,0.3592815000000087,56.0,0.16487150000000383
16817,43.0,0.16487150000000383,58.0,0.17345050000000128
16818,44.0,0.17345050000000128,61.0,0.34867566666666505
16819,46.0,0.34867566666666505,64.0,0.3517778333333439
16820,49.0,0.3517778333333439,63.0,0.7278064125000157
16821,47.0,0.17475850000001003,62.0,0.17681858333334333
16822,46.0,0.17681858333334333,61.0,0.3762293291666623
16823,44.0,0.17928433333332805,59.0,0.0903615000000002
16824,44.0,0.0903615000000002,49.0,0.0530120583333229
16825,44.0,0.0530120583333229,48.0,0.05357143750001114
16826,56.0,0.05357143750001114,68.0,1.4504729999999881
16827,44.0,0.3797469999999947,45.0,0.1308444375000022
16828,44.0,0.17445924999999818,47.0,0.1380706875000044
16829,44.0,0.18409425000000113,49.0,0.2662721250000004
16830,44.0,0.35502950000000055,45.0,0.2678572500000058
16831,49.0,0.35714299999999355,63.0,0.7228920000000016
16832,44.0,0.3614460000000008,45.0,0.2710845000000006
16833,51.0,0.3614460000000008,67.0,1.0631999999999948
16834,43.0,0.3614460000000008,47.0,0.13157887500000243
16835,43.0,0.1754384999999985,47.0,0.13157887500000243
16836,43.0,0.1754384999999985,50.0,0.26315775000000485
16837,51.0,0.350876999999997,64.0,0.26315775000000485
16838,52.0,0.26315775000000485,62.0,0.04385962499999607
16839,40.0,0.04385962499999607,49.0,0.04385962500001028
16840,25.0,0.04385962500001028,55.0,0.35877784166663673
16841,54.0,0.09356126666666853,54.0,0.09098835833331975
16842,52.0,0.09098835833331975,56.0,0.08830977499998482
16843,54.0,0.08830977499998482,56.0,0.08591844166666363
16844,52.0,0.08591844166666363,57.0,0.34931524166664474
16845,54.0,0.06821536666666361,57.0,0.06899987499998872
16846,52.0,0.06899987499998872,56.0,0.0698702000000111
16847,51.0,0.0698702000000111,56.0,0.07069344166664848
16848,52.0,0.07069344166664848,55.0,0.07153635833333283
16849,51.0,0.07153635833333283,67.0,1.0574542500000064
16850,43.0,0.3614460000000008,47.0,0.12786993749999453
16851,43.0,0.17049325000000692,48.0,0.1339605000000006
16852,43.0,0.17861399999999605,50.0,0.2601757500000019
16853,51.0,0.34690100000000257,66.0,0.2601757500000019
16854,52.0,0.2601757500000019,64.0,0.04336262500000032
16855,40.0,0.04336262500000032,51.0,0.04336262500000032
16856,25.0,0.04336262500000032,57.0,0.35877784166663673
16857,54.0,0.09356126666666853,56.0,0.09098835833331975
16858,52.0,0.09098835833331975,58.0,0.08830977499998482
16859,54.0,0.08830977499998482,58.0,0.08591844166666363
16860,52.0,0.08591844166666363,60.0,0.34895389166665325
16861,54.0,0.06821536666666361,60.0,0.06899987499998872
16862,52.0,0.06899987499998872,59.0,0.0698702000000111
16863,51.0,0.0698702000000111,58.0,0.07069344166664848
16864,52.0,0.07069344166664848,57.0,0.07117500833334134
16865,25.0,0.07117500833334134,58.0,0.33880495000001076
16866,54.0,0.0859934041666719,57.0,0.08509903333333568
16867,53.0,0.08509903333333568,59.0,0.08427052083334274
16868,54.0,0.08427052083334274,60.0,0.08344199166666044
16869,53.0,0.08344199166666044,61.0,0.33333349999999484
16870,54.0,0.06666669999999897,61.0,0.06666669999999897
16871,53.0,0.06666669999999897,61.0,0.06666669999999897
16872,52.0,0.06666669999999897,60.0,0.06666669999999897
16873,53.0,0.06666669999999897,59.0,0.06666669999999897
16874,18.0,0.06666669999999897,62.0,0.3330893000000117
16875,56.0,0.08333337500000937,59.0,0.08333337499999516
16876,54.0,0.08333337499999516,60.0,0.08333337499999516
16877,56.0,0.08333337499999516,62.0,0.083089175000012
16878,54.0,0.083089175000012,62.0,0.3266338833333293
16879,56.0,0.08235757499998897,63.0,0.08184844999999541
16880,54.0,0.08184844999999541,64.0,0.0814629999999994
16881,56.0,0.0814629999999994,65.0,0.08096485833334555
16882,46.0,0.08096485833334555,68.0,0.32063882083332373
16883,56.0,0.08058762499999261,68.0,0.08010010833332615
16884,54.0,0.08010010833332615,69.0,0.07973096666667345
16885,53.0,0.07973096666667345,69.0,0.08022012083333152
16886,54.0,0.08022012083333152,67.0,0.46040739166663514
16887,56.0,0.05153793333333567,68.0,0.05304411666666908
16888,58.0,0.05304411666666908,70.0,0.05469628333332821
16889,59.0,0.05469628333332821,71.0,0.05633943333330649
16890,61.0,0.05633943333330649,72.0,0.058234216666662064
16891,63.0,0.058234216666662064,74.0,0.06016695000000993
16892,64.0,0.06016695000000993,75.0,0.06222936666667067
16893,66.0,0.06222936666667067,76.0,0.06415909166665301
16894,68.0,0.06415909166665301,97.0,0.5657190000000014
16895,42.0,0.425532000000004,79.0,0.2972880000000089
16896,66.0,0.1401869999999974,93.0,0.14139090000000465
16897,66.0,0.15710100000001148,93.0,0.350876999999997
16898,42.0,0.26315775000000485,71.0,0.08771924999999214
16899,30.0,0.08771924999999214,85.0,0.0867052499999943
16900,44.0,0.06936419999999544,71.0,0.06936419999999544
16901,42.0,0.06936419999999544,71.0,0.06936419999999544
16902,41.0,0.06936419999999544,71.0,0.06936420000002386
16903,42.0,0.06936420000002386,71.0,0.06936419999999544
16904,47.0,0.06936419999999544,87.0,0.16666674999999032
16905,63.0,0.33333350000000905,88.0,0.34313724999998385
16906,64.0,0.16666674999999032,86.0,0.17647049999999354
16907,68.0,0.17647049999999354,93.0,0.34150329166666893
16908,66.0,0.25816991666667377,88.0,0.07500003750001838
16909,66.0,0.08333337499999516,93.0,0.32211225000000354
16910,65.0,0.14354074999999966,88.0,0.17857150000000388
16911,66.0,0.17857150000000388,88.0,0.35714300000000776
16912,42.0,0.2678572499999916,70.0,0.08928575000001615
16913,30.0,0.08928575000001615,80.0,0.08522725000000264
16914,44.0,0.06818179999999074,70.0,0.06818180000001917
16915,42.0,0.06818180000001917,70.0,0.06818179999999074
16916,41.0,0.06818179999999074,70.0,0.06818179999999074
16917,42.0,0.06818179999999074,70.0,0.06818180000001917
16918,47.0,0.06818180000001917,87.0,0.16129025000000752
16919,63.0,0.3225804999999866,88.0,0.3361582499999827
16920,64.0,0.16666674999999032,86.0,0.16949149999999236
16921,68.0,0.16949149999999236,93.0,0.33333350000000905
16922,66.0,0.16666674999999032,88.0,0.30952400000001035
16923,68.0,0.08333337500002358,81.0,0.08333337499999516
16924,66.0,0.08333337499999516,93.0,0.3133117499999969
16925,65.0,0.1428572499999916,88.0,0.17045450000000528
16926,68.0,0.17045450000000528,93.0,0.33333350000000905
16927,66.0,0.16666674999999032,88.0,0.3181820000000073
16928,68.0,0.08333337500002358,81.0,0.08333337499999516
16929,66.0,0.08333337499999516,93.0,0.15151524999998855
16930,65.0,0.15151524999998855,88.0,0.17241375000000403
16931,66.0,0.17241375000000403,88.0,0.2715618750000033
16932,54.0,0.2715618750000033,72.0,0.3816808749999723
16933,61.0,0.05244756249999227,72.0,0.32923331249998
16934,69.0,0.05244756249999227,85.0,0.27678574999998773
16935,20.0,0.23214287499999386,62.0,0.35714300000000776
16936,54.0,0.044642874999993865,70.0,0.4464287500000239
16937,30.0,0.044642875000022286,74.0,0.3125001249999855
16938,68.0,0.044642874999993865,83.0,0.2678572499999916
16939,51.0,0.22321437499999774,70.0,0.4017858750000016
16940,54.0,0.044642874999993865,70.0,0.35714300000000776
16941,42.0,0.044642874999993865,73.0,0.3125001250000139
16942,63.0,0.044642875000022286,83.0,0.2678572499999916
16943,49.0,0.2678572499999916,70.0,0.4464287499999955
16944,32.0,0.044642874999993865,75.0,0.4017858750000016
16945,64.0,0.044642874999993865,83.0,0.35714300000000776
16946,25.0,0.04385962500001028,51.0,0.2952562499999942
16947,64.0,0.04385962499998186,72.0,0.25139662500001236
16948,63.0,0.25139662500001236,69.0,0.34695662499999
16949,20.0,0.041899437499978376,51.0,0.30505718750001165
16950,61.0,0.0418994375000068,74.0,0.350876999999997
16951,18.0,0.26315775000000485,50.0,0.3391158750000045
16952,25.0,0.04385962499998186,50.0,0.29525625000002265
16953,59.0,0.04385962500001028,72.0,0.25139662500001236
16954,57.0,0.25139662500001236,67.0,0.34197704166666654
16955,32.0,0.041899437499978376,55.0,0.30007760416668816
16956,56.0,0.0418994375000068,71.0,0.25817816666668136
16957,24.0,0.34488341666667566,64.0,0.08400775000001204
16958,25.0,0.08400775000001204,64.0,0.08321057499998119
16959,27.0,0.08321057499998119,66.0,0.08287287500002094
16960,28.0,0.08287287500002094,67.0,0.082447975000008
16961,30.0,0.082447975000008,67.0,0.08214739999999665
16962,32.0,0.08214739999999665,68.0,0.08184844999999541
16963,34.0,0.08184844999999541,69.0,0.08152174999997897
16964,36.0,0.08152174999997897,69.0,0.08111050000002251
16965,37.0,0.08111050000002251,70.0,0.08081952499998124
16966,39.0,0.08081952499998124,71.0,0.0805301250000241
16967,40.0,0.0805301250000241,71.0,0.08021387499999832
16968,42.0,0.08021387499999832,72.0,0.07981569166665281
16969,44.0,0.07981569166665281,73.0,0.07953397500000392
16970,46.0,0.07953397500000392,73.0,0.07925372500000094
16971,48.0,0.07925372500000094,74.0,0.07894737499998428
16972,49.0,0.07894737499998428,74.0,0.0785615583333481
16973,51.0,0.0785615583333481,75.0,0.07828860000000759
16974,52.0,0.07828860000000759,77.0,0.07801706666666064
16975,54.0,0.07801706666666064,77.0,0.07772024999999871
16976,56.0,0.07772024999999871,78.0,0.07734633333330976
16977,58.0,0.07734633333330976,77.0,0.07708172499999932
16978,60.0,0.07708172499999932,77.0,0.07681845833334933
16979,61.0,0.07681845833334933,78.0,0.07653062500000374
16980,63.0,0.07653062500000374,79.0,0.07616802499998698
16981,64.0,0.07616802499998698,80.0,0.07591142499998682
16982,66.0,0.07591142499998682,80.0,0.07565609166667286
16983,68.0,0.07565609166667286,81.0,0.07537687499998924
16984,70.0,0.07537687499998924,82.0,0.09456999999997606
16985,72.0,0.09456999999997606,83.0,0.08928562500000226
16986,61.0,0.08928562500000226,92.0,0.17647049999999354
16987,75.0,0.2647057499999903,85.0,0.08823524999999677
16988,70.0,0.08823524999999677,91.0,0.1621622499999944
16989,72.0,0.1621622499999944,85.0,0.1621622499999944
16990,73.0,0.1621622499999944,90.0,0.35294099999998707
16991,70.0,0.35294099999998707,85.0,0.34090900000001056
16992,71.0,0.34090900000001056,88.0,0.33898300000001313
16993,66.0,0.33898300000001313,85.0,0.35502950000000055
16994,68.0,0.35502950000000055,85.0,0.20134225000001038
16995,30.0,0.40268449999999234,69.0,0.7692309999999907
16996,40.0,0.2884616249999965,67.0,0.08653848750000748
16997,40.0,0.09615387499999883,72.0,0.7927789999999959
16998,18.0,0.38461549999999534,61.0,0.20408175000000028
16999,47.0,0.40816350000000057,67.0,0.20408175000000028
17000,35.0,0.6632656875000009,67.0,0.7516620833333434
17001,38.0,0.04541589583334371,70.0,0.7062461874999997
17002,43.0,0.04261362500000132,74.0,0.6636325624999984
17003,47.0,0.04261362500000132,80.0,0.621018937499997
17004,35.0,0.621018937499997,67.0,0.7427397499999984
17005,38.0,0.04417214583332907,70.0,0.6985676041666693
17006,43.0,0.0423728750000123,74.0,0.656194729166657
17007,47.0,0.0423728750000123,79.0,0.6138218541666447
17008,35.0,0.6138218541666447,66.0,0.7437027500000113
17009,38.0,0.04433264583335017,69.0,0.6993701041666611
17010,43.0,0.04261362500000132,72.0,0.6567564791666598
17011,47.0,0.04261362500000132,78.0,0.6141428541666585
17012,35.0,0.6141428541666585,67.0,0.7512281666666638
17013,38.0,0.044494979166671556,70.0,0.7067331874999923
17014,43.0,0.04285712500001182,74.0,0.6638760624999804
17015,47.0,0.0428571249999834,79.0,0.621018937499997
17016,35.0,0.621018937499997,67.0,0.7499368333333507
17017,38.0,0.04417214583332907,70.0,0.7057646875000216
17018,43.0,0.0423728750000123,74.0,0.6633918125000093
17019,47.0,0.0423728750000123,79.0,0.621018937499997
17020,35.0,0.621018937499997,67.0,0.7389060208333547
17021,38.0,0.04433264583335017,70.0,0.6945733750000045
17022,43.0,0.04261362500000132,75.0,0.6519597500000032
17023,47.0,0.039714750000001686,81.0,0.6122450000000015
17024,47.0,0.6122450000000015,80.0,0.07281549999999015
17025,30.0,0.14563100000000873,28.0,0.07281549999999015
17026,28.0,0.1456309999999803,28.0,0.07281550000001857
17027,26.0,0.14563100000000873,28.0,0.07653062500000374
17028,31.0,0.15306125000000748,35.0,0.07281549999999015
17029,30.0,0.14563100000000873,32.0,0.07281549999999015
17030,28.0,0.1456309999999803,28.0,0.07281550000001857
17031,26.0,0.14563100000000873,28.0,0.07537687499998924
17032,31.0,0.1507537500000069,35.0,0.07211537500000986
17033,30.0,0.1442307499999913,28.0,0.07211537500000986
17034,28.0,0.14423075000001973,28.0,0.07211537499998144
17035,26.0,0.1442307499999913,28.0,0.07653062500000374
17036,31.0,0.15306125000000748,34.0,0.07177037499999983
17037,30.0,0.14354074999999966,28.0,0.07177037499999983
17038,28.0,0.14354074999999966,28.0,0.07177037499999983
17039,26.0,0.14354074999999966,28.0,0.07614212499998985
17040,31.0,0.15228425000000811,34.0,0.07177037499999983
17041,30.0,0.14354074999999966,32.0,0.07177037499999983
17042,28.0,0.14354074999999966,29.0,0.07177037499999983
17043,26.0,0.14354074999999966,29.0,0.07614212499998985
17044,31.0,0.15228425000000811,35.0,0.07211537500000986
17045,30.0,0.1442307499999913,28.0,0.07211537500000986
17046,28.0,0.14423075000001973,28.0,0.07211537499998144
17047,26.0,0.1442307499999913,28.0,0.07479987499999652
17048,38.0,0.1509420000000148,44.0,1.1799164999999903
17049,30.0,0.14563100000000873,29.0,0.07281549999999015
17050,28.0,0.1456309999999803,29.0,0.07281550000001857
17051,26.0,0.14563100000000873,29.0,0.07614212499998985
17052,31.0,0.15228425000000811,36.0,0.07281549999999015
17053,30.0,0.14563100000000873,34.0,0.07281549999999015
17054,28.0,0.1456309999999803,30.0,0.07281550000001857
17055,26.0,0.14563100000000873,30.0,0.07692312500000753
17056,38.0,0.15384624999998664,41.0,0.43689299999999776
17057,30.0,0.14563100000000873,29.0,0.07281549999999015
17058,28.0,0.1456309999999803,29.0,0.07281550000001857
17059,38.0,0.14563100000000873,43.0,0.15384624999998664
17060,38.0,0.15384624999998664,43.0,0.4307969999999841
17061,30.0,0.14563100000000873,30.0,0.07281549999999015
17062,28.0,0.1456309999999803,30.0,0.06976750000001175
17063,43.0,0.13953499999999508,41.0,0.15306125000000748
17064,47.0,0.15306125000000748,46.0,0.5836835000000065
17065,30.0,0.14354074999999966,33.0,0.07177037499999983
17066,28.0,0.14354074999999966,30.0,0.07177037499999983
17067,26.0,0.14354074999999966,30.0,0.07653062500000374
17068,45.0,0.15306125000000748,40.0,0.5899542500000052
17069,30.0,0.14563100000000873,30.0,0.07281549999999015
17070,28.0,0.1456309999999803,30.0,0.07281550000001857
17071,26.0,0.14563100000000873,30.0,0.07653062500000374
17072,38.0,0.15306125000000748,42.0,0.4307969999999841
17073,30.0,0.14563100000000873,30.0,0.07281549999999015
17074,28.0,0.1456309999999803,30.0,0.06976750000001175
17075,43.0,0.13953499999999508,41.0,0.15306125000000748
17076,47.0,0.15306125000000748,44.0,0.28846150000001103
17077,30.0,0.1442307499999913,35.0,0.07211537500000986
17078,28.0,0.14423075000001973,33.0,0.07211537499998144
17079,42.0,0.1442307499999913,40.0,0.152477041666657
17080,43.0,0.152477041666657,41.0,0.28561445833332755
17081,30.0,0.14195762500000342,32.0,0.07165645833330814
17082,47.0,0.14365683333332413,41.0,0.2986945833333152
17083,26.0,0.14563333333330775,33.0,0.07653062500000374
17084,50.0,0.15306125000000748,46.0,0.2870814999999993
17085,30.0,0.14354074999999966,33.0,0.07177037499999983
17086,52.0,0.14354074999999966,47.0,0.06944450000000302
17087,54.0,0.13888900000000604,48.0,0.07614212499998985
17088,55.0,0.15228425000000811,50.0,0.14354074999999966
17089,30.0,0.14354074999999966,38.0,0.07177037499999983
17090,50.0,0.14354074999999966,45.0,0.14705875000001356
17091,26.0,0.14705875000001356,35.0,0.07614212499998985
17092,59.0,0.15228425000000811,53.0,0.5899542500000052
17093,30.0,0.14563100000000873,34.0,0.07281549999999015
17094,28.0,0.1456309999999803,34.0,0.07281550000001857
17095,26.0,0.14563100000000873,34.0,0.07653062500000374
17096,50.0,0.15306125000000748,48.0,0.8804392499999949
17097,30.0,0.14563100000000873,34.0,0.07281549999999015
17098,28.0,0.1456309999999803,34.0,0.07281550000001857
17099,26.0,0.14563100000000873,34.0,0.07614212499998985
17100,31.0,0.15228425000000811,42.0,0.07281549999999015
17101,30.0,0.14563100000000873,39.0,0.07281549999999015
17102,50.0,0.1456309999999803,49.0,0.06976750000001175
17103,50.0,0.13953499999999508,49.0,0.07575762499999428
17104,50.0,0.15151524999998855,51.0,0.14563100000000873
17105,30.0,0.14563100000000873,34.0,0.07281549999999015
17106,50.0,0.1456309999999803,48.0,0.14563100000000873
17107,26.0,0.14563100000000873,34.0,0.07653062500000374
17108,50.0,0.15306125000000748,52.0,0.432107000000002
17109,30.0,0.14563100000000873,35.0,0.07281549999999015
17110,28.0,0.1456309999999803,35.0,0.0704225000000065
17111,55.0,0.140845000000013,50.0,0.13846162499999082
17112,55.0,0.15384624999998664,52.0,0.5907392499999844
17113,30.0,0.14563100000000873,39.0,0.07281549999999015
17114,28.0,0.1456309999999803,36.0,0.07281550000001857
17115,26.0,0.14563100000000873,35.0,0.07692312500000753
17116,47.0,0.15384624999998664,48.0,0.5907392499999844
17117,30.0,0.14563100000000873,35.0,0.07281549999999015
17118,28.0,0.1456309999999803,35.0,0.07281550000001857
17119,26.0,0.14563100000000873,35.0,0.07692312500000753
17120,45.0,0.15384624999998664,53.0,0.8752592499999707
17121,30.0,0.14563100000000873,35.0,0.07281549999999015
17122,38.0,0.1456309999999803,51.0,0.06944450000000302
17123,38.0,0.13888900000000604,51.0,0.07692312500000753
17124,38.0,0.15384624999998664,54.0,0.14563100000000873
17125,30.0,0.14563100000000873,39.0,0.07281549999999015
17126,45.0,0.1456309999999803,52.0,0.2981080416666657
17127,26.0,0.14563100000000873,36.0,0.07555391666664946
17128,47.0,0.152477041666657,52.0,0.07142862500001002
17129,45.0,0.14308508333331815,51.0,0.0722315000000151
17130,43.0,0.14481250000000045,50.0,0.0730523333333224
17131,45.0,0.14670245833332274,48.0,0.07653062500000374
17132,35.0,0.15306125000000748,52.0,1.0270902500000147
17133,30.0,0.14492749999999432,36.0,0.07246374999999716
17134,28.0,0.14492749999999432,36.0,0.07246374999999716
17135,40.0,0.14492750000002275,50.0,0.15384624999998664
17136,38.0,0.15384624999998664,52.0,1.1796392500000081
17137,30.0,0.1442307499999913,40.0,0.07211537500000986
17138,28.0,0.14423075000001973,37.0,0.07499999999998863
17139,50.0,0.15000000000000568,51.0,0.13846162499999082
17140,50.0,0.15384624999998664,51.0,0.5873315000000048
17141,30.0,0.1442307499999913,36.0,0.07211537500000986
17142,28.0,0.14423075000001973,37.0,0.07211537499998144
17143,26.0,0.1442307499999913,37.0,0.07731962500000122
17144,38.0,0.15463925000000245,53.0,0.8707650000000058
17145,30.0,0.14354074999999966,37.0,0.07177037499999983
17146,28.0,0.14354074999999966,37.0,0.07177037499999983
17147,26.0,0.14354074999999966,38.0,0.07653062500000374
17148,31.0,0.15306125000000748,45.0,0.07177037499999983
17149,30.0,0.14354074999999966,42.0,0.07177037499999983
17150,38.0,0.14354074999999966,54.0,0.07425737500000196
17151,38.0,0.14851475000000391,54.0,0.07692312500000753
17152,38.0,0.15384624999998664,57.0,0.14354074999999966
17153,30.0,0.14354074999999966,40.0,0.07177037499999983
17154,40.0,0.14354074999999966,55.0,0.07177037499999983
17155,42.0,0.14354074999999966,57.0,0.07653062500000374
17156,43.0,0.15306125000000748,61.0,0.4299710000000232
17157,30.0,0.1442307499999913,43.0,0.07211537500000986
17158,28.0,0.14423075000001973,43.0,0.07075474999999187
17159,38.0,0.14150950000001217,49.0,0.1377551250000124
17160,47.0,0.15306125000000748,61.0,0.5857535000000098
17161,30.0,0.1442307499999913,49.0,0.07211537500000986
17162,28.0,0.14423075000001973,46.0,0.07211537499998144
17163,26.0,0.1442307499999913,46.0,0.07653062500000374
17164,45.0,0.15306125000000748,63.0,0.5836835000000065
17165,30.0,0.14354074999999966,46.0,0.07177037499999983
17166,28.0,0.14354074999999966,47.0,0.07177037499999983
17167,26.0,0.14354074999999966,48.0,0.07653062500000374
17168,38.0,0.15306125000000748,67.0,0.4348647500000027
17169,30.0,0.14354074999999966,50.0,0.07177037499999983
17170,28.0,0.14354074999999966,50.0,0.07389162499998747
17171,43.0,0.14778325000000336,71.0,0.1377551250000124
17172,47.0,0.15306125000000748,72.0,0.2870814999999993
17173,30.0,0.14354074999999966,58.0,0.07177037499999983
17174,28.0,0.14354074999999966,55.0,0.07177037499999983
17175,42.0,0.14354074999999966,71.0,0.15306125000000748
17176,43.0,0.15306125000000748,73.0,0.28985499999998865
17177,30.0,0.14492749999999432,53.0,0.07246374999999716
17178,47.0,0.14492749999999432,76.0,0.2964427500000113
17179,26.0,0.14492750000002275,57.0,0.07575762499999428
17180,50.0,0.15151524999998855,78.0,0.5836835000000065
17181,30.0,0.14354074999999966,57.0,0.07177037499999983
17182,28.0,0.14354074999999966,57.0,0.07177037499999983
17183,26.0,0.14354074999999966,58.0,0.07653062500000374
17184,31.0,0.15306125000000748,73.0,0.14354074999999966
17185,54.0,0.14354074999999966,75.0,0.14354074999999966
17186,55.0,0.14354074999999966,77.0,0.14150950000001217
17187,57.0,0.14150950000001217,82.0,0.15306125000000748
17188,59.0,0.15306125000000748,85.0,0.5892605000000231
17189,30.0,0.1442307499999913,63.0,0.07211537500000986
17190,31.0,0.14423075000001973,64.0,0.07425737500000196
17191,49.0,0.14851475000000391,81.0,1.023049250000014
17192,58.0,0.15228425000000811,88.0,0.8707650000000058
17193,29.0,0.14354074999999966,65.0,0.07177037499999983
17194,27.0,0.14354074999999966,65.0,0.07177037499999983
17195,25.0,0.14354074999999966,65.0,0.07653062500000374
17196,30.0,0.15306125000000748,79.0,0.07177037499999983
17197,29.0,0.14354074999999966,75.0,0.07177037499999983
17198,49.0,0.14354074999999966,86.0,0.5893060000000219
17199,25.0,0.14778325000000336,69.0,0.07653062500000374
17200,54.0,0.15306125000000748,90.0,0.5849765000000104
17201,29.0,0.1442307499999913,68.0,0.07211537500000986
17202,58.0,0.14423075000001973,96.0,0.2965149999999994
17203,25.0,0.1442307499999913,71.0,0.07614212499998985
17204,61.0,0.15228425000000811,101.0,0.4285910000000115
17205,29.0,0.14354074999999966,68.0,0.07177037499999983
17206,27.0,0.14354074999999966,69.0,0.07075474999999187
17207,66.0,0.14150950000001217,99.0,1.034401750000029
17208,58.0,0.15306125000000748,100.0,0.43559625000000324
17209,29.0,0.14354074999999966,78.0,0.07177037499999983
17210,27.0,0.14354074999999966,73.0,0.07425737500000196
17211,58.0,0.14851475000000391,96.0,0.4457442500000184
17212,30.0,0.15306125000000748,87.0,0.2926830000000109
17213,29.0,0.14634150000000545,72.0,0.07317075000000273
17214,63.0,0.14634150000000545,92.0,0.14634149999997703
17215,25.0,0.14634149999997703,74.0,0.07614212499998985
17216,61.0,0.15228425000000811,102.0,0.5836835000000065
17217,29.0,0.14354074999999966,70.0,0.07177037499999983
17218,27.0,0.14354074999999966,70.0,0.07177037499999983
17219,25.0,0.14354074999999966,71.0,0.07653062500000374
17220,30.0,0.15306125000000748,87.0,0.07281549999999015
17221,29.0,0.14563100000000873,80.0,0.07281549999999015
17222,49.0,0.1456309999999803,98.0,0.07281550000001857
17223,49.0,0.14563100000000873,98.0,0.07653062500000374
17224,49.0,0.15306125000000748,106.0,0.14563100000000873
17225,29.0,0.14563100000000873,74.0,0.07281549999999015
17226,56.0,0.1456309999999803,101.0,0.14563100000000873
17227,25.0,0.14563100000000873,75.0,0.07614212499998985
17228,54.0,0.15228425000000811,111.0,0.18638175000000956
17229,30.0,0.2294951249999997,70.0,0.3436748125000122
17230,36.0,0.04311337500001855,72.0,0.3434283749999736
17231,38.0,0.04311337499999013,74.0,0.30031499999998346
17232,42.0,0.04311337499999013,77.0,0.25720162499999333
17233,28.0,0.14145600000000513,35.0,0.06840575000001081
17234,55.0,0.1368114999999932,50.0,0.1344890249999935
17235,55.0,0.1494322499999896,53.0,0.5680372500000033
17236,30.0,0.13953499999999508,39.0,0.06976750000001175
17237,28.0,0.13953499999999508,36.0,0.06976750000001175
17238,26.0,0.1395350000000235,36.0,0.07471612500000901
17239,47.0,0.1494322499999896,49.0,0.5699932499999818
17240,30.0,0.1401869999999974,36.0,0.07009350000001291
17241,28.0,0.1401869999999974,36.0,0.07009350000001291
17242,26.0,0.1401869999999974,36.0,0.07471612500000901
17243,45.0,0.1494322499999896,54.0,0.8437804999999798
17244,30.0,0.1401869999999974,36.0,0.07009350000001291
17245,38.0,0.1401869999999974,52.0,0.06745212499998843
17246,38.0,0.13490425000000528,52.0,0.07471612500000901
17247,38.0,0.1494322499999896,54.0,0.13953499999999508
17248,30.0,0.13953499999999508,40.0,0.06976750000001175
17249,45.0,0.13953499999999508,54.0,0.28731770833331893
17250,26.0,0.1395350000000235,37.0,0.07306658333331484
17251,47.0,0.14778270833329543,53.0,0.0693802499999947
17252,45.0,0.13898400000002198,52.0,0.07015937500000291
17253,43.0,0.1406572916666562,51.0,0.07095591666669065
17254,45.0,0.14249387500004218,50.0,0.0743383749999964
17255,47.0,0.1486767499999928,53.0,0.9888119999999674
17256,30.0,0.13953499999999508,36.0,0.06976750000001175
17257,28.0,0.13953499999999508,36.0,0.06776899999999841
17258,40.0,0.13553799999999683,51.0,0.1494322499999896
17259,38.0,0.1494322499999896,54.0,1.1413697083332863
17260,30.0,0.13953499999999508,41.0,0.06976750000001175
17261,28.0,0.13953499999999508,38.0,0.07285087500000031
17262,50.0,0.14570175000000063,52.0,0.13382920833331013
17263,50.0,0.14778270833332385,52.0,0.5688152499999717
17264,30.0,0.13953499999999508,37.0,0.06976750000001175
17265,28.0,0.13953499999999508,38.0,0.06976750000001175
17266,26.0,0.13953499999999508,38.0,0.07510512499999322
17267,38.0,0.15021024999998644,53.0,0.8463517499999966
17268,30.0,0.13953499999999508,37.0,0.06976750000001175
17269,28.0,0.13953499999999508,37.0,0.06976750000001175
17270,26.0,0.1395350000000235,38.0,0.0743383749999964
17271,31.0,0.1486767499999928,45.0,0.06976750000001175
17272,30.0,0.13953499999999508,42.0,0.06976750000001175
17273,38.0,0.13953499999999508,54.0,0.07212924999998904
17274,38.0,0.1442585000000065,54.0,0.07471612500000901
17275,38.0,0.1494322499999896,57.0,0.14145600000000513
17276,30.0,0.14145600000000513,40.0,0.07072800000000257
17277,40.0,0.14145600000000513,55.0,0.07072800000000257
17278,42.0,0.1414559999999767,57.0,0.0743383749999964
17279,43.0,0.1486767499999928,61.0,0.42036275000000956
17280,30.0,0.14145600000000513,43.0,0.07072800000000257
17281,28.0,0.14145600000000513,43.0,0.06872537500001386
17282,38.0,0.1374507499999993,49.0,0.13380907499998784
17283,47.0,0.1486767499999928,61.0,0.569237749999985
17284,30.0,0.1401869999999974,49.0,0.07009350000001291
17285,28.0,0.1401869999999974,46.0,0.07009350000001291
17286,26.0,0.1401869999999974,46.0,0.0743383749999964
17287,45.0,0.1486767499999928,63.0,0.5672817500000065
17288,30.0,0.13953499999999508,46.0,0.06976750000001175
17289,28.0,0.13953499999999508,47.0,0.06976750000001175
17290,26.0,0.1395350000000235,48.0,0.0743383749999964
17291,38.0,0.1486767499999928,67.0,0.42645275000000993
17292,30.0,0.14145600000000513,50.0,0.07072800000000257
17293,28.0,0.14145600000000513,50.0,0.07177037499999983
17294,43.0,0.14354074999999966,71.0,0.13380907499998784
17295,47.0,0.1486767499999928,72.0,0.27777800000001207
17296,30.0,0.13888900000000604,58.0,0.06944450000000302
17297,28.0,0.13888900000000604,55.0,0.0694444999999746
17298,42.0,0.1388889999999776,70.0,0.1486767499999928
17299,43.0,0.1486767499999928,73.0,0.28168999999999755
17300,30.0,0.140845000000013,53.0,0.07042249999997807
17301,47.0,0.14084499999998457,76.0,0.28801925000001916
17302,26.0,0.140845000000013,57.0,0.07358712499998887
17303,50.0,0.14717425000000617,78.0,0.5653437499999825
17304,30.0,0.13888900000000604,57.0,0.06944450000000302
17305,28.0,0.13888900000000604,57.0,0.0694444999999746
17306,26.0,0.1388889999999776,58.0,0.0743383749999964
17307,31.0,0.1486767499999928,73.0,0.13888900000000604
17308,54.0,0.13888900000000604,75.0,0.13888900000000604
17309,55.0,0.13888900000000604,77.0,0.1388889999999776
17310,57.0,0.1388889999999776,81.0,0.1486767499999928
17311,50.0,0.1486767499999928,85.0,0.5712430000000097
17312,30.0,0.13953499999999508,63.0,0.06976750000001175
17313,31.0,0.13953499999999508,64.0,0.07212924999998904
17314,49.0,0.1442585000000065,81.0,1.0194047499999783
17315,58.0,0.14791450000001305,88.0,0.8714902499999653
17316,29.0,0.14791449999998463,65.0,0.07395725000000652
17317,27.0,0.14791450000001305,65.0,0.0739572499999781
17318,25.0,0.14791449999998463,65.0,0.0743383749999964
17319,30.0,0.1486767499999928,79.0,0.06976750000001175
17320,29.0,0.13953499999999508,75.0,0.06976750000001175
17321,49.0,0.13953499999999508,86.0,0.56707375000002
17322,25.0,0.1395350000000235,69.0,0.0743383749999964
17323,54.0,0.1486767499999928,90.0,0.5662075000000186
17324,29.0,0.13943100000000186,68.0,0.06971550000000093
17325,58.0,0.13943100000000186,96.0,0.2873455000000149
17326,25.0,0.13943100000000186,71.0,0.07395725000000652
17327,61.0,0.14791450000001305,101.0,0.42036275000000956
17328,29.0,0.14145600000000513,68.0,0.07072800000000257
17329,27.0,0.14145600000000513,69.0,0.06872537500001386
17330,66.0,0.1374507499999993,99.0,0.9950284999999894
17331,58.0,0.1486767499999928,100.0,0.41860500000001366
17332,29.0,0.13953499999999508,78.0,0.06976750000001175
17333,27.0,0.13953499999999508,73.0,0.06976750000001175
17334,58.0,0.1395350000000235,96.0,0.42774674999998297
17335,30.0,0.1486767499999928,87.0,0.27906999999999016
17336,29.0,0.13953499999999508,72.0,0.06976750000001175
17337,63.0,0.13953499999999508,92.0,0.1395350000000235
17338,25.0,0.1395350000000235,74.0,0.07395725000000652
17339,61.0,0.14791450000001305,102.0,0.5672817500000065
17340,29.0,0.13953499999999508,70.0,0.06976750000001175
17341,27.0,0.13953499999999508,70.0,0.06976750000001175
17342,25.0,0.1395350000000235,71.0,0.0743383749999964
17343,30.0,0.1486767499999928,87.0,0.07072800000000257
17344,29.0,0.14145600000000513,80.0,0.07072800000000257
17345,49.0,0.14145600000000513,98.0,0.06939291666665781
17346,49.0,0.13811829166667167,98.0,0.0743383749999964
17347,49.0,0.1486767499999928,106.0,0.14145600000000513
17348,29.0,0.14145600000000513,74.0,0.07072800000000257
17349,56.0,0.14145600000000513,101.0,0.1414559999999767
17350,25.0,0.1414559999999767,75.0,0.07395725000000652
17351,54.0,0.14791450000001305,111.0,0.14853341666665187
17352,54.0,0.29631666666665524,79.0,0.07389162500001589
17353,54.0,0.14778325000000336,75.0,0.07389162500001589
17354,54.0,0.14778325000000336,81.0,0.2955665000000067
17355,54.0,0.2955665000000067,78.0,0.07389162499998747
17356,54.0,0.14778325000000336,73.0,0.07389162499998747
17357,54.0,0.14778325000000336,79.0,0.30411333333333346
17358,54.0,0.30411333333333346,74.0,0.07839912500000423
17359,54.0,0.16055041666666625,71.0,0.08771925000002057
17360,54.0,0.1754385000000127,81.0,0.6048450000000116
17361,42.0,0.3092785000000049,55.0,0.07389162499998747
17362,42.0,0.14778325000000336,54.0,0.07389162499998747
17363,49.0,0.14778325000000336,71.0,0.6016889999999933
17364,42.0,0.2955665000000067,54.0,0.07653062500000374
17365,42.0,0.15306125000000748,53.0,0.07653062500000374
17366,51.0,0.15306124999997905,68.0,0.30303050000000553
17367,56.0,0.30303050000000553,66.0,0.14778325000000336
17368,54.0,0.14778325000000336,64.0,0.14778325000000336
17369,54.0,0.14778325000000336,68.0,0.2955665000000067
17370,52.0,0.14778325000000336,64.0,0.14778325000000336
17371,52.0,0.14778325000000336,64.0,0.07614212499998985
17372,51.0,0.15228425000000811,59.0,0.07614212499998985
17373,49.0,0.1522842499999797,62.0,0.600135000000023
17374,44.0,0.30456850000001623,53.0,0.1330049249999945
17375,44.0,0.14778325000000336,53.0,0.1330049249999945
17376,51.0,0.14778325000000336,64.0,0.6016889999999933
17377,43.0,0.30612249999998653,54.0,0.1330049249999945
17378,43.0,0.14778325000000336,53.0,0.1330049249999945
17379,49.0,0.14778325000000336,68.0,0.30000000000001137
17380,47.0,0.15000000000000568,64.0,0.15000000000000568
17381,47.0,0.15000000000000568,64.0,0.07614212499998985
17382,46.0,0.15228425000000811,59.0,0.07614212499998985
17383,44.0,0.1522842499999797,62.0,0.600135000000023
17384,41.0,0.30456850000001623,50.0,0.1330049249999945
17385,41.0,0.14778325000000336,50.0,0.1330049249999945
17386,46.0,0.14778325000000336,64.0,0.6016889999999933
17387,41.0,0.30612249999998653,51.0,0.1330049249999945
17388,41.0,0.14778325000000336,50.0,0.1330049249999945
17389,42.0,0.14778325000000336,56.0,0.3076925000000017
17390,44.0,0.07692312500000753,56.0,0.07692312499997911
17391,42.0,0.07692312499997911,62.0,0.15384625000001506
17392,41.0,0.15384625000001506,58.0,0.15000000000000568
17393,42.0,0.15000000000000568,59.0,0.15000000000000568
17394,44.0,0.15000000000000568,56.0,0.30705145833331926
17395,46.0,0.07628208333329667,56.0,0.07692312500000753
17396,44.0,0.07692312500000753,62.0,0.15384625000001506
17397,42.0,0.15384625000001506,58.0,0.14975883333332263
17398,44.0,0.14975883333332263,59.0,0.14925375000001395
17399,46.0,0.14925375000001395,64.0,0.6125964999999951
17400,34.0,0.2985074999999995,51.0,0.1343283749999955
17401,42.0,0.14925374999998553,50.0,0.14835172499999771
17402,58.0,0.1648352500000101,81.0,0.628427500000015
17403,44.0,0.3191490000000101,55.0,0.13917532499999652
17404,46.0,0.15463925000000245,54.0,0.13917532499999652
17405,53.0,0.15463925000000245,71.0,0.6217785000000049
17406,46.0,0.3092785000000049,54.0,0.140625
17407,44.0,0.15625,53.0,0.140625
17408,55.0,0.15625,68.0,0.6062000000000012
17409,51.0,0.3076925000000017,56.0,0.1343283749999955
17410,51.0,0.14925375000001395,57.0,0.1343283749999955
17411,58.0,0.14925374999998553,68.0,0.2985074999999995
17412,56.0,0.14925375000001395,64.0,0.14925374999998553
17413,56.0,0.14925374999998553,64.0,0.07614212499998985
17414,54.0,0.15228425000000811,59.0,0.07614212499998985
17415,53.0,0.1522842499999797,62.0,0.600135000000023
17416,47.0,0.30456850000001623,53.0,0.1330049249999945
17417,44.0,0.14778325000000336,53.0,0.1330049249999945
17418,55.0,0.14778325000000336,64.0,0.6016889999999933
17419,51.0,0.30612249999998653,54.0,0.1330049249999945
17420,51.0,0.14778325000000336,53.0,0.1330049249999945
17421,58.0,0.14778325000000336,64.0,0.30000000000001137
17422,56.0,0.15000000000000568,61.0,0.15000000000000568
17423,56.0,0.15000000000000568,60.0,0.07731962500000122
17424,54.0,0.15463925000000245,54.0,0.07731962500000122
17425,54.0,0.15463925000000245,61.0,0.3038070833333393
17426,53.0,0.15152283333333116,56.0,0.15228425000000811
17427,53.0,0.15228425000000811,56.0,0.07853399999999056
17428,51.0,0.15706800000000953,51.0,0.07853399999999056
17429,51.0,0.1570679999999811,57.0,0.30612249999998653
17430,49.0,0.15306125000000748,53.0,0.15306124999997905
17431,49.0,0.15306124999997905,51.0,0.07853399999999056
17432,47.0,0.15706800000000953,45.0,0.07853399999999056
17433,46.0,0.1570679999999811,47.0,0.1621622499999944
17434,46.0,0.3243244999999888,39.0,0.15789474999999698
17435,46.0,0.15789474999999698,38.0,0.15789474999999698
17436,46.0,0.15789474999999698,44.0,0.17142849999999044
17437,46.0,0.3428570000000093,36.0,0.1621622499999944
17438,46.0,0.1621622499999944,35.0,0.1621622499999944
17439,41.0,0.1621622499999944,34.0,0.1754385000000127
17440,53.0,0.350876999999997,50.0,0.6476079999999911
17441,51.0,0.4792767499999968,39.0,0.16833124999999427
17442,50.0,0.16833124999999427,38.0,0.6836083750000057
17443,48.0,0.1683312500000227,37.0,0.17558224999999084
17444,47.0,0.17558224999999084,36.0,0.3396948749999922
17445,48.0,0.17006799999998634,36.0,0.16962687500000584
17446,50.0,0.16962687500000584,36.0,0.3373527083333272
17447,51.0,0.16904020833334243,36.0,0.16831249999998477
17448,52.0,0.16831249999998477,36.0,0.33500616666665906
17449,53.0,0.16757666666666182,36.0,0.16742949999999723
17450,58.0,0.16742949999999723,40.0,0.3348590000000229
17451,55.0,0.16742949999999723,36.0,0.16742950000002566
17452,17.0,0.16742950000002566,47.0,0.1866832499999873
17453,53.0,0.1866832499999873,38.0,0.17495708333331095
17454,57.0,0.17495708333331095,40.0,0.3425458750000132
17455,55.0,0.17232925000001842,38.0,0.1702166249999948
17456,53.0,0.1702166249999948,36.0,0.34014233333331845
17457,51.0,0.16947983333332672,36.0,0.17066249999999172
17458,43.0,0.17066249999999172,36.0,0.3472992916666726
17459,45.0,0.17171704166668178,36.0,0.17558224999999084
17460,46.0,0.17558224999999084,32.0,0.3401360000000011
17461,48.0,0.04251700000000369,32.0,0.04251700000000369
17462,46.0,0.04251700000000369,36.0,0.08503399999997896
17463,45.0,0.08503399999997896,36.0,0.17006800000001476
17464,46.0,0.17006800000001476,35.0,0.3401360000000011
17465,47.0,0.17006799999998634,36.0,0.17006800000001476
17466,48.0,0.17006800000001476,36.0,0.34476799999998775
17467,57.0,0.17558224999999084,40.0,0.16918574999999691
17468,55.0,0.16918574999999691,37.0,0.33837149999999383
17469,53.0,0.16918574999999691,36.0,0.16918574999999691
17470,52.0,0.16918574999999691,38.0,0.35306600000001254
17471,57.0,0.17653300000000627,37.0,0.17653300000000627
17472,58.0,0.17653300000000627,39.0,0.6899967916666583
17473,60.0,0.17653299999997785,40.0,0.17464200000000574
17474,63.0,0.17464200000000574,42.0,0.16860358333335057
17475,61.0,0.16860358333335057,40.0,0.17021820833332413
17476,58.0,0.17021820833332413,38.0,0.3454256250000185
17477,52.0,0.1720207500000015,36.0,0.173404875000017
17478,53.0,0.173404875000017,44.0,0.34527233333332674
17479,55.0,0.2588767083333323,36.0,0.08639562499999442
17480,53.0,0.08639562499999442,44.0,0.3468323062500076
17481,54.0,0.2599563062500181,36.0,0.08687599999998952
17482,53.0,0.08687599999998952,44.0,0.3529715437499874
17483,55.0,0.2638553687500007,36.0,0.0891161749999867
17484,53.0,0.0891161749999867,44.0,0.3620243104166718
17485,54.0,0.2705985374999784,36.0,0.0914257729166934
17486,53.0,0.0914257729166934,44.0,0.37159364375000337
17487,55.0,0.2778433812499941,36.0,0.09375026250000928
17488,53.0,0.09375026250000928,44.0,0.3767069645833203
17489,54.0,0.2854992979166582,36.0,0.09120766666666213
17490,53.0,0.09120766666666213,40.0,0.3570154999999886
17491,51.0,0.1785077499999943,39.0,0.1785077499999943
17492,49.0,0.1785077499999943,38.0,0.6937848750000342
17493,48.0,0.17850775000002272,36.0,0.17558224999999084
17494,47.0,0.17558224999999084,36.0,0.17006800000001476
17495,48.0,0.17006800000001476,36.0,0.16962687500000584
17496,49.0,0.16962687500000584,36.0,0.3373527083332988
17497,51.0,0.1690402083332856,36.0,0.1683125000000132
17498,52.0,0.1683125000000132,36.0,0.34708841666673607
17499,53.0,0.16757666666671867,39.0,0.1795117500000174
17500,58.0,0.1795117500000174,47.0,0.34379999999998745
17501,57.0,0.17189999999999372,40.0,0.08595000000002528
17502,56.0,0.17189999999999372,47.0,0.1899695000000179
17503,55.0,0.1899695000000179,40.0,0.08763441666667404
17504,54.0,0.17464533333333065,39.0,0.34193858333338767
17505,53.0,0.1718705833333729,38.0,0.08503400000000738
17506,52.0,0.17006800000001476,36.0,0.3392537500000117
17507,51.0,0.16977391666665653,36.0,0.16947983333335515
17508,48.0,0.16947983333335515,36.0,0.34579887500001405
17509,49.0,0.17021662500002321,36.0,0.17558224999999084
17510,46.0,0.17558224999999084,32.0,0.3401359999999727
17511,48.0,0.04251699999997527,32.0,0.04251700000003211
17512,46.0,0.04251700000003211,36.0,0.08503400000000738
17513,45.0,0.08503400000000738,41.0,0.17006799999995792
17514,46.0,0.17006799999995792,35.0,0.3401360000000295
17515,48.0,0.17006800000001476,40.0,0.17006800000001476
17516,49.0,0.17006800000001476,50.0,0.36311425000002373
17517,61.0,0.18562050000002728,54.0,0.17749374999999645
17518,60.0,0.17749374999999645,51.0,0.7042715000000044
17519,58.0,0.17749374999999645,49.0,0.17749374999999645
17520,47.0,0.16962687500000584,38.0,0.3579332083332929
17521,49.0,0.1690402083332856,39.0,0.1888930000000073
17522,50.0,0.1888930000000073,39.0,0.35232275000004165
17523,51.0,0.17281100000002425,47.0,0.1795117500000174
17524,56.0,0.1795117500000174,43.0,0.3349334999999769
17525,52.0,0.16746675000001687,42.0,0.16746674999996003
17526,51.0,0.16746674999996003,47.0,0.17279124999998885
17527,49.0,0.17279124999998885,41.0,0.17279124999998885
17528,47.0,0.17279124999998885,40.0,0.7005717500000515
17529,46.0,0.1727912500000457,39.0,0.17558224999999084
17530,45.0,0.17558224999999084,38.0,0.1737117499999954
17531,46.0,0.1737117499999954,45.0,0.17848650000001953
17532,51.0,0.17848650000001953,47.0,0.33837149999999383
17533,50.0,0.16918574999999691,39.0,0.16918574999999691
17534,16.0,0.16918574999999691,48.0,0.16772383333335483
17535,47.0,0.16772383333335483,39.0,0.16918724999999313
17536,46.0,0.16918724999999313,39.0,0.3429884999999899
17537,44.0,0.17066249999999172,38.0,0.1723259999999982
17538,15.0,0.1723259999999982,49.0,0.1866832499999873
17539,51.0,0.1866832499999873,49.0,0.17186075000000756
17540,49.0,0.17186075000000756,40.0,0.6834163750000357
17541,47.0,0.17186075000000756,39.0,0.17186075000000756
17542,45.0,0.17186075000000756,38.0,0.17006800000001476
17543,46.0,0.17006800000001476,38.0,0.16962687500000584
17544,47.0,0.16962687500000584,38.0,0.3557699583332692
17545,49.0,0.1690402083332856,39.0,0.1867297499999836
17546,50.0,0.1867297499999836,39.0,0.34251766666670846
17547,51.0,0.16787566666670273,49.0,0.17464200000000574
17548,56.0,0.17464200000000574,43.0,0.33666249999998854
17549,52.0,0.16833124999999427,42.0,0.16833124999999427
17550,18.0,0.16833124999999427,50.0,0.17279124999998885
17551,49.0,0.17279124999998885,41.0,0.17279124999998885
17552,47.0,0.17279124999998885,40.0,0.7005717500000515
17553,46.0,0.1727912500000457,39.0,0.17558224999999084
17554,45.0,0.17558224999999084,38.0,0.1737117499999954
17555,46.0,0.1737117499999954,38.0,0.17848650000001953
17556,51.0,0.17848650000001953,45.0,0.33837149999999383
17557,50.0,0.16918574999999691,39.0,0.16918574999999691
17558,16.0,0.16918574999999691,51.0,0.16772383333335483
17559,47.0,0.16772383333335483,39.0,0.16918724999999313
17560,46.0,0.16918724999999313,39.0,0.3429884999999899
17561,44.0,0.17066249999999172,38.0,0.1723259999999982
17562,15.0,0.1723259999999982,49.0,0.1866832499999873
17563,51.0,0.1866832499999873,46.0,0.17186075000000756
17564,49.0,0.17186075000000756,40.0,0.6834163750000357
17565,47.0,0.17186075000000756,39.0,0.17186075000000756
17566,45.0,0.17186075000000756,38.0,0.17006800000001476
17567,46.0,0.17006800000001476,38.0,0.16962687500000584
17568,47.0,0.16962687500000584,38.0,0.348551958333303
17569,49.0,0.1690402083332856,39.0,0.1795117500000174
17570,50.0,0.1795117500000174,39.0,0.34251766666670846
17571,51.0,0.16787566666670273,49.0,0.17464200000000574
17572,54.0,0.17464200000000574,43.0,0.33314849999999296
17573,52.0,0.16657424999999648,42.0,0.16657424999999648
17574,51.0,0.16657424999999648,50.0,0.3437215000000151
17575,49.0,0.17186075000000756,41.0,0.17186075000000756
17576,47.0,0.17186075000000756,40.0,0.6834163749999789
17577,46.0,0.17186075000000756,39.0,0.1718607499999507
17578,45.0,0.1718607499999507,36.0,0.17006800000001476
17579,46.0,0.17006800000001476,37.0,0.16962687500000584
17580,47.0,0.16962687500000584,38.0,0.3373527083332988
17581,49.0,0.1690402083332856,39.0,0.1683125000000132
17582,50.0,0.1683125000000132,39.0,0.3422186666667244
17583,51.0,0.16757666666671867,48.0,0.17464200000000574
17584,52.0,0.17464200000000574,40.0,0.33314849999999296
17585,50.0,0.16657424999999648,38.0,0.16657424999999648
17586,51.0,0.16657424999999648,49.0,0.3437215000000151
17587,49.0,0.17186075000000756,41.0,0.17186075000000756
17588,47.0,0.17186075000000756,40.0,0.6807747687499273
17589,46.0,0.17186075000000756,39.0,0.1718607499999507
17590,45.0,0.1718607499999507,36.0,0.16872201874997472
17591,46.0,0.16872201874997472,37.0,0.16833124999999427
17592,47.0,0.16833124999999427,38.0,0.3546010375000037
17593,49.0,0.16833124999999427,39.0,0.18626978750000944
17594,50.0,0.18626978750000944,39.0,0.3423705416666962
17595,51.0,0.1677285416666905,50.0,0.17464200000000574
17596,54.0,0.17464200000000574,40.0,0.33314849999999296
17597,52.0,0.16657424999999648,38.0,0.16657424999999648
17598,51.0,0.16657424999999648,49.0,0.3437215000000151
17599,49.0,0.17186075000000756,41.0,0.17186075000000756
17600,47.0,0.17186075000000756,40.0,0.6834163749999789
17601,46.0,0.17186075000000756,39.0,0.1718607499999507
17602,45.0,0.1718607499999507,36.0,0.17006800000001476
17603,46.0,0.17006800000001476,37.0,0.16962687500000584
17604,47.0,0.16962687500000584,38.0,0.3536557083332923
17605,49.0,0.1690402083332856,39.0,0.1846155000000067
17606,50.0,0.1846155000000067,39.0,0.3426663750000216
17607,51.0,0.16802437500001588,50.0,0.17464200000000574
17608,52.0,0.17464200000000574,40.0,0.6662969999999859
17609,50.0,0.16657424999999648,38.0,0.16657424999999648
17610,51.0,0.16657424999999648,50.0,0.33314849999999296
17611,49.0,0.16657424999999648,44.0,0.16657424999999648
17612,47.0,0.16657424999999648,43.0,0.16657424999999648
17613,46.0,0.16657424999999648,42.0,0.17464200000000574
17614,45.0,0.17464200000000574,45.0,0.16657424999999648
17615,46.0,0.16657424999999648,46.0,0.16657424999999648
17616,47.0,0.16657424999999648,50.0,0.16657424999999648
17617,49.0,0.16657424999999648,55.0,0.16657424999999648
17618,47.0,0.16657424999999648,57.0,0.16657424999999648
17619,46.0,0.16657424999999648,57.0,0.16657424999999648
17620,44.0,0.16657424999999648,57.0,0.16657424999999648
17621,43.0,0.16657424999999648,59.0,0.17558224999999084
17622,42.0,0.17558224999999084,58.0,0.16657424999999648
17623,43.0,0.16657424999999648,61.0,0.16657424999999648
17624,44.0,0.16657424999999648,63.0,0.16657424999999648
17625,46.0,0.16657424999999648,65.0,0.16657424999999648
17626,40.0,0.16657424999999648,74.0,0.3401359999999727
17627,46.0,0.17006800000001476,66.0,0.17006799999995792
17628,39.0,0.17006799999995792,71.0,0.3401360000000295
17629,46.0,0.17006800000001476,63.0,0.17006800000001476
17630,38.0,0.17006800000001476,60.0,0.17006800000001476
17631,39.0,0.17006800000001476,63.0,0.17006799999995792
17632,40.0,0.17006799999995792,65.0,0.17006800000001476
17633,42.0,0.17006800000001476,68.0,0.17006800000001476
17634,40.0,0.17006800000001476,70.0,0.17006800000001476
17635,39.0,0.17006800000001476,68.0,0.17006799999995792
17636,37.0,0.17006799999995792,67.0,0.17006800000001476
17637,35.0,0.17006800000001476,65.0,0.17006800000001476
17638,34.0,0.17006800000001476,76.0,0.512582000000009
17639,39.0,0.17066249999999172,69.0,0.17095975000000863
17640,37.0,0.17095975000000863,70.0,0.17095975000000863
17641,33.0,0.17095975000000863,70.0,0.17095975000000863
17642,32.0,0.17095975000000863,73.0,0.5211352499999862
17643,39.0,0.1737117499999954,70.0,0.1737117499999954
17644,37.0,0.1737117499999954,70.0,0.1737117499999954
17645,31.0,0.1737117499999954,70.0,0.1737117499999954
17646,30.0,0.1737117499999954,79.0,0.5324812499999894
17647,35.0,0.17749374999999645,72.0,0.17749374999999645
17648,34.0,0.17749374999999645,74.0,0.17749374999999645
17649,30.0,0.17749374999999645,75.0,0.17884820833336335
17650,28.0,0.17884820833336335,82.0,0.5685262499999908
17651,34.0,0.1863310416666195,78.0,0.1894118333333381
17652,32.0,0.1894118333333381,81.0,0.19278337500003317
17653,28.0,0.19278337500003317,82.0,0.19753083333330324
17654,27.0,0.19753083333330324,88.0,0.4482808750000231
17655,30.0,0.2140959583333597,82.0,0.2341849166666634
17656,25.0,0.2341849166666634,84.0,0.5560662916666388
17657,30.0,0.26102883333328464,86.0,0.29503745833335415
17658,68.0,0.29503745833335415,102.0,0.6178940000000352
17659,42.0,0.47770700000000943,79.0,0.29895075000001725
17660,66.0,0.14018700000002582,93.0,0.1428873749999866
17661,66.0,0.15876374999999143,93.0,0.3508770000000254
17662,42.0,0.26315775000000485,71.0,0.08771925000002057
17663,30.0,0.08771925000002057,85.0,0.08670525000002272
17664,44.0,0.06936419999999544,71.0,0.06936419999999544
17665,42.0,0.06936419999999544,71.0,0.06936419999999544
17666,41.0,0.06936419999999544,71.0,0.06936419999999544
17667,42.0,0.06936419999999544,71.0,0.06936419999999544
17668,47.0,0.06936419999999544,87.0,0.16666674999999032
17669,63.0,0.33333349999998063,88.0,0.3431372500000407
17670,64.0,0.16666675000004716,86.0,0.17647049999999354
17671,68.0,0.17647049999999354,93.0,0.3415032916666405
17672,66.0,0.25816991666664535,88.0,0.07500003749998996
17673,66.0,0.08333337499999516,93.0,0.3221122499999751
17674,65.0,0.14354074999999966,88.0,0.17857149999997546
17675,66.0,0.17857149999997546,88.0,0.35714300000000776
17676,42.0,0.26785725000002003,70.0,0.08928574999998773
17677,30.0,0.08928574999998773,80.0,0.08522725000000264
17678,44.0,0.06818179999999074,70.0,0.06818179999999074
17679,42.0,0.06818179999999074,70.0,0.06818179999999074
17680,41.0,0.06818179999999074,70.0,0.06818180000004759
17681,42.0,0.06818180000004759,70.0,0.06818179999999074
17682,47.0,0.06818179999999074,87.0,0.1612902499999791
17683,63.0,0.32258050000001504,88.0,0.3361582499999827
17684,64.0,0.16666674999999032,86.0,0.16949149999999236
17685,68.0,0.16949149999999236,93.0,0.33333349999998063
17686,66.0,0.16666674999999032,88.0,0.30952400000001035
17687,68.0,0.08333337499999516,81.0,0.08333337499999516
17688,66.0,0.08333337499999516,93.0,0.3133117500000253
17689,65.0,0.14285725000002003,88.0,0.17045450000000528
17690,68.0,0.17045450000000528,93.0,0.33333349999998063
17691,66.0,0.16666674999999032,88.0,0.31818199999997887
17692,68.0,0.08333337499999516,81.0,0.08333337499999516
17693,66.0,0.08333337499999516,93.0,0.15151524999998855
17694,65.0,0.15151524999998855,88.0,0.1724137499999756
17695,66.0,0.1724137499999756,88.0,0.27156187499997486
17696,54.0,0.27156187499997486,72.0,0.3816808750000291
17697,61.0,0.05244756249999227,72.0,0.32923331250003685
17698,69.0,0.052447562500049116,85.0,0.27678574999998773
17699,20.0,0.2321428750000223,62.0,0.3571429999999509
17700,54.0,0.04464287499996544,70.0,0.4464287499999955
17701,30.0,0.044642875000022286,74.0,0.3125001249999855
17702,68.0,0.04464287499996544,83.0,0.26785725000002003
17703,51.0,0.22321437499999774,70.0,0.40178587500003005
17704,54.0,0.044642875000022286,70.0,0.35714300000000776
17705,42.0,0.044642875000022286,73.0,0.3125001249999855
17706,63.0,0.04464287499996544,83.0,0.26785725000002003
17707,49.0,0.26785725000002003,70.0,0.4464287499999955
17708,32.0,0.044642875000022286,75.0,0.4017858749999732
17709,64.0,0.04464287499996544,83.0,0.35714300000000776
17710,57.0,0.35714300000000776,80.0,0.36363649999998415
17711,45.0,0.12121216666668033,80.0,0.12121216666668033
17712,57.0,0.12121216666668033,80.0,0.12121216666662349
17713,56.0,0.12121216666662349,84.0,0.35294099999998707
17714,52.0,0.35294099999998707,79.0,0.3870969999999829
17715,69.0,0.3870969999999829,97.0,0.5363877500000171
17716,44.0,0.3921569999999974,79.0,0.30555574999999635
17717,68.0,0.14423075000001973,93.0,0.14519250000000739
17718,68.0,0.16132499999997663,93.0,0.3468209999999772
17719,44.0,0.2601157500000113,71.0,0.08670524999996587
17720,32.0,0.08670524999996587,85.0,0.08670525000002272
17721,45.0,0.06936419999999544,71.0,0.06936420000005228
17722,44.0,0.06936420000005228,71.0,0.06936419999999544
17723,43.0,0.06936419999999544,71.0,0.06936419999999544
17724,44.0,0.06936419999999544,71.0,0.06936419999999544
17725,49.0,0.06936419999999544,87.0,0.16666674999999032
17726,64.0,0.33333349999998063,88.0,0.3431372500000407
17727,66.0,0.16666675000004716,86.0,0.17647049999999354
17728,69.0,0.17647049999999354,93.0,0.3415032916666405
17729,68.0,0.25816991666664535,88.0,0.07500003749998996
17730,68.0,0.08333337499999516,93.0,0.3221122499999751
17731,67.0,0.14354074999999966,88.0,0.17857149999997546
17732,56.0,0.17857149999997546,88.0,0.35714300000000776
17733,44.0,0.26785725000002003,71.0,0.08928574999998773
17734,32.0,0.08928574999998773,80.0,0.08522725000000264
17735,45.0,0.06818179999999074,71.0,0.06818179999999074
17736,44.0,0.06818179999999074,71.0,0.06818179999999074
17737,43.0,0.06818179999999074,71.0,0.06818180000004759
17738,44.0,0.06818180000004759,71.0,0.06818179999999074
17739,49.0,0.06818179999999074,87.0,0.32258050000001504
17740,70.0,0.32258050000001504,96.0,0.3596198333332836
17741,71.0,0.1754384999999843,94.0,0.18418133333329934
17742,75.0,0.18418133333329934,101.0,0.1734104999999886
17743,70.0,0.1734104999999886,88.0,0.1734104999999886
17744,75.0,0.1734104999999886,93.0,0.3133117500000253
17745,49.0,0.14285725000002003,70.0,0.17045450000000528
17746,73.0,0.08522725000000264,92.0,0.07670452500002511
17747,73.0,0.08522725000000264,97.0,0.16666674999999032
17748,66.0,0.16666674999999032,84.0,0.16666674999999032
17749,73.0,0.16666674999999032,90.0,0.3133117500000253
17750,47.0,0.14285725000002003,70.0,0.17045450000000528
17751,71.0,0.08522725000000264,80.0,0.07670452500002511
17752,71.0,0.08522725000000264,93.0,0.16666674999999032
17753,66.0,0.16666674999999032,79.0,0.16666674999999032
17754,71.0,0.16666674999999032,88.0,0.3133117500000253
17755,46.0,0.14285725000002003,70.0,0.17045450000000528
17756,70.0,0.08522725000000264,79.0,0.07670452500002511
17757,70.0,0.08522725000000264,90.0,0.16666674999999032
17758,65.0,0.16666674999999032,78.0,0.16666674999999032
17759,70.0,0.16666674999999032,85.0,0.3133117500000253
17760,44.0,0.14285725000002003,70.0,0.17045450000000528
17761,68.0,0.08522725000000264,81.0,0.07670452500002511
17762,68.0,0.08522725000000264,88.0,0.16666674999999032
17763,61.0,0.16666674999999032,75.0,0.16666674999999032
17764,68.0,0.16666674999999032,82.0,0.3133117500000253
17765,42.0,0.14285725000002003,70.0,0.17045450000000528
17766,66.0,0.08522725000000264,75.0,0.08522725000000264
17767,64.0,0.08522725000000264,90.0,0.6466452500000059
17768,59.0,0.16666674999999032,75.0,0.16666674999999032
17769,64.0,0.16666674999999032,84.0,0.3133117500000253
17770,39.0,0.14285725000002003,68.0,0.17045450000000528
17771,63.0,0.08522725000000264,71.0,0.08522725000000264
17772,44.0,0.08522725000000264,88.0,0.6690798750000226
17773,37.0,0.34090900000001056,59.0,0.3281708750000121
17774,27.0,0.3281708750000121,63.0,0.31519749999995383
17775,47.0,0.08167349999996532,60.0,0.07964950000001636
17776,46.0,0.07964950000001636,61.0,0.07785795833331122
17777,47.0,0.07785795833331122,61.0,0.07601654166666094
17778,44.0,0.07601654166666094,62.0,0.32594012499998826
17779,46.0,0.16304350000001477,64.0,0.16289662499997348
17780,20.0,0.16289662499997348,69.0,0.3123654583333746
17781,49.0,0.08021541666670373,67.0,0.07881250000002638
17782,47.0,0.07881250000002638,69.0,0.07732099999998354
17783,49.0,0.07732099999998354,70.0,0.07601654166666094
17784,46.0,0.07601654166666094,71.0,0.3260869999999727
17785,47.0,0.16304350000001477,73.0,0.16304349999995793
17786,48.0,0.16304349999995793,77.0,0.33627574999997023
17787,49.0,0.16578249999997752,73.0,0.1704932499999927
17788,51.0,0.1704932499999927,73.0,0.33373874999995223
17789,52.0,0.16132499999997663,74.0,0.1724137499999756
17790,51.0,0.1724137499999756,81.0,0.3260869999999727
17791,56.0,0.3260869999999727,83.0,0.24456525000005058
17792,54.0,0.24456525000005058,75.0,0.07336957499995833
17793,54.0,0.08152174999997897,84.0,0.16304350000001477
17794,47.0,0.16304350000001477,79.0,0.33158274999993864
17795,59.0,0.16304349999995793,83.0,0.33707850000001827
17796,58.0,0.2528088750000279,77.0,0.08426962499999036
17797,56.0,0.08426962499999036,77.0,0.6790478750000375
17798,37.0,0.3508770000000254,64.0,0.3281708750000121
17799,27.0,0.3281708750000121,75.0,0.31519749999995383
17800,58.0,0.16132299999998168,71.0,0.0520847500000059
17801,59.0,0.0520847500000059,72.0,0.05128341666664937
17802,58.0,0.05128341666664937,71.0,0.05050633333331689
17803,56.0,0.05050633333331689,72.0,0.32594012499998826
17804,58.0,0.16304350000001477,73.0,0.16289662499997348
17805,20.0,0.16289662499997348,78.0,0.3123654583333746
17806,59.0,0.1590279166667301,71.0,0.05167995833329542
17807,60.0,0.1428572499999632,83.0,0.15306125000000748
17808,61.0,0.15306125000000748,87.0,0.15306125000000748
17809,63.0,0.15306125000000748,91.0,0.34482750000000806
17810,58.0,0.34482750000000806,89.0,0.35738474999999426
17811,59.0,0.35738474999999426,102.0,0.4283555000000092
17812,30.0,0.31393900000000485,79.0,0.11441650000000436
17813,54.0,0.11441650000000436,93.0,0.11491312499998685
17814,54.0,0.12768125000002328,93.0,0.5694685000000277
17815,42.0,0.28639600000002474,85.0,0.07076812499997231
17816,47.0,0.28307250000000295,86.0,0.1360297499999774
17817,63.0,0.27205950000001167,88.0,0.1360297499999774
17818,64.0,0.1360297499999774,86.0,0.14403674999999794
17819,68.0,0.14403674999999794,102.0,0.4303725000000327
17820,30.0,0.3159560000000283,79.0,0.11441650000000436
17821,66.0,0.11441650000000436,93.0,0.11491312499998685
17822,66.0,0.12768125000002328,93.0,0.5694685000000277
17823,42.0,0.28639600000002474,85.0,0.07076812499997231
17824,47.0,0.28307250000000295,86.0,0.1360297499999774
17825,63.0,0.27205950000001167,88.0,0.1360297499999774
17826,64.0,0.1360297499999774,86.0,0.14403674999999794
17827,68.0,0.14403674999999794,102.0,0.39610650000003034
17828,30.0,0.281690000000026,79.0,0.11441650000000436
17829,66.0,0.11441650000000436,93.0,0.13235674999998537
17830,68.0,0.13235674999998537,102.0,0.403652749999992
17831,42.0,0.26666649999998526,85.0,0.06849312499997495
17832,66.0,0.13698625000000675,93.0,0.13698625000000675
17833,68.0,0.13698625000000675,102.0,0.39473700000002054
17834,42.0,0.2631579999999758,73.0,0.13157900000004474
17835,66.0,0.13157900000004474,93.0,0.13888900000000604
17836,68.0,0.13888900000000604,102.0,0.3976078333333817
17837,30.0,0.2831913333333773,79.0,0.11441650000000436
17838,66.0,0.11441650000000436,93.0,0.11912107500000957
17839,66.0,0.13235674999998537,93.0,0.5694685000000277
17840,22.0,0.14319799999998395,80.0,0.07159899999999197
17841,20.0,0.1431980000000408,81.0,0.07076812499997231
17842,18.0,0.14153625000000147,81.0,0.07076812499997231
17843,68.0,0.14153625000000147,93.0,0.06891320833329928
17844,70.0,0.1383452499999862,96.0,0.14113649999995914
17845,71.0,0.14113649999995914,100.0,0.1441855833333534
17846,73.0,0.1441855833333534,105.0,0.2895772083332986
17847,71.0,0.14722170833329074,110.0,0.2847110000000157
17848,43.0,0.8541329999999903,93.0,0.07798687500002188
17849,43.0,0.15597374999998692,89.0,0.07798687500002188
17850,39.0,0.15597374999998692,93.0,0.15597375000004376
17851,43.0,0.3119475000000307,88.0,0.16657424999999648
17852,31.0,0.2053073124999969,78.0,0.39372168749997627
17853,34.0,0.032912062500031425,78.0,0.36080962499994484
17854,39.0,0.03291206249997458,92.0,0.32789756249997026
17855,43.0,0.03291206249997458,92.0,0.2949854999999957
17856,31.0,0.4750416250000171,79.0,0.3926756249999812
17857,34.0,0.032563374999995176,79.0,0.36011224999998603
17858,39.0,0.032563374999995176,93.0,0.32754887499999086
17859,43.0,0.032563374999995176,93.0,0.2949854999999957
17860,30.0,0.47521506250001266,79.0,0.3764519375000077
17861,34.0,0.03273681249999072,79.0,0.343715125000017
17862,40.0,0.03273681249999072,93.0,0.3109783125000263
17863,42.0,0.03273681250004756,93.0,0.2782414999999787
17864,47.0,0.5564830000000143,102.0,0.31094550000000254
17865,22.0,0.0,52.0,0.09267918333333335
17866,29.0,0.09267918333333335,45.0,0.09336124999999998
17867,34.0,0.09336124999999998,48.0,0.09316775
17868,36.0,0.09316775,40.0,0.09297541666666664
17869,38.0,0.09297541666666664,48.0,0.10821575
17870,36.0,0.09278366666666671,44.0,0.10802458333333331
17871,34.0,0.09259249999999997,44.0,0.10778729166666667
17872,43.0,0.09240266666666674,52.0,0.10741
17873,41.0,0.09211949999999991,52.0,0.10708041666666668
17874,39.0,0.09174300000000002,45.0,0.10736191666666672
17875,38.0,0.09202449999999995,41.0,0.10759795833333341
17876,36.0,0.09221333333333337,42.0,0.1079296666666667
17877,34.0,0.09249758333333347,49.0,0.10816795833333348
17878,36.0,0.09268808333333345,41.0,0.10850337499999996
17879,38.0,0.09297541666666653,45.0,0.10874408333333352
17880,29.0,0.0931677500000001,41.0,0.10903433333333323
17881,22.0,0.09345800000000004,52.0,0.09345800000000004
17882,29.0,0.09345800000000004,45.0,0.09326449999999986
17883,34.0,0.09326449999999986,48.0,0.09297541666666653
17884,36.0,0.09297541666666653,40.0,0.09278366666666682
17885,38.0,0.09278366666666682,48.0,0.10788220833333328
17886,36.0,0.09249758333333347,44.0,0.10764516666666646
17887,34.0,0.0923077499999998,44.0,0.10731499999999983
17888,43.0,0.09202449999999995,52.0,0.1069869166666666
17889,41.0,0.09174300000000013,52.0,0.10675400000000002
17890,39.0,0.09146350000000014,45.0,0.10708041666666679
17891,38.0,0.09174300000000013,41.0,0.10740912499999977
17892,36.0,0.09202449999999995,42.0,0.10773983333333303
17893,34.0,0.0923077499999998,49.0,0.10807237499999989
17894,36.0,0.09259249999999986,41.0,0.1084072083333334
17895,38.0,0.09287925000000019,45.0,0.1087440833333333
17896,29.0,0.0931677500000001,41.0,0.10918033333333321
17897,41.0,0.09355533333333321,77.0,0.559015833333333
17898,29.0,0.09375,45.0,0.09345800000000004
17899,34.0,0.09345800000000004,48.0,0.09326450000000008
17900,36.0,0.09326450000000008,40.0,0.09307158333333332
17901,38.0,0.09307158333333332,48.0,0.09287924999999975
17902,36.0,0.09287924999999975,44.0,0.09259249999999986
17903,34.0,0.09259249999999986,44.0,0.09240266666666708
17904,43.0,0.09240266666666708,52.0,0.09221333333333304
17905,50.0,0.09221333333333304,77.0,0.5534765000000004
17906,39.0,0.09174300000000013,45.0,0.09193066666666638
17907,38.0,0.09193066666666638,41.0,0.09211891666666672
17908,36.0,0.09211891666666672,42.0,0.09230775000000024
17909,34.0,0.09230775000000024,49.0,0.0925925000000003
17910,36.0,0.0925925000000003,41.0,0.0927836666666666
17911,38.0,0.0927836666666666,45.0,0.09297541666666653
17912,55.0,0.09297541666666653,74.0,0.0931677500000001
17913,53.0,0.0931677500000001,82.0,1.110089666666668
17914,29.0,0.0931677500000001,46.0,0.09307158333333376
17915,34.0,0.09307158333333376,50.0,0.09287925000000019
17916,36.0,0.09287925000000019,44.0,0.0925925000000003
17917,38.0,0.0925925000000003,55.0,0.09249758333333258
17918,36.0,0.09249758333333258,53.0,0.09230775000000069
17919,34.0,0.09230775000000069,55.0,0.09202449999999995
17920,43.0,0.09202449999999995,68.0,0.0918368333333337
17921,41.0,0.0918368333333337,70.0,0.09193066666666638
17922,39.0,0.09193066666666638,61.0,0.09221333333333348
17923,38.0,0.09221333333333348,55.0,0.0925925000000003
17924,36.0,0.0925925000000003,56.0,0.09297541666666653
17925,34.0,0.09297541666666653,66.0,0.09326450000000008
17926,36.0,0.09326450000000008,55.0,0.09365266666666727
17927,38.0,0.09365266666666727,60.0,0.09646299999999997
17928,63.0,0.09646299999999997,92.0,0.09646299999999997
17929,62.0,0.09646299999999997,89.0,1.4884044166666666
17930,29.0,0.09375,58.0,0.09365266666666638
17931,34.0,0.09365266666666638,60.0,0.09345800000000004
17932,36.0,0.09345800000000004,49.0,0.09326450000000097
17933,38.0,0.09326450000000097,58.0,0.09316774999999922
17934,36.0,0.09316774999999922,52.0,0.09287925000000019
17935,34.0,0.09287925000000019,52.0,0.0927836666666666
17936,43.0,0.0927836666666666,60.0,0.0925925000000003
17937,41.0,0.0925925000000003,60.0,0.0923077499999998
17938,39.0,0.0923077499999998,50.0,0.09240266666666663
17939,38.0,0.09240266666666663,45.0,0.0925925000000003
17940,36.0,0.0925925000000003,45.0,0.0927836666666666
17941,34.0,0.0927836666666666,52.0,0.09287925000000019
17942,36.0,0.09287925000000019,42.0,0.0931677500000001
17943,38.0,0.0931677500000001,46.0,0.0932644999999992
17944,29.0,0.0932644999999992,41.0,0.09345800000000004
17945,58.0,0.09345800000000004,74.0,0.744112583333334
17946,29.0,0.09375,40.0,0.09355533333333366
17947,34.0,0.09355533333333366,42.0,0.09336124999999917
17948,36.0,0.09336124999999917,38.0,0.0931677500000001
17949,38.0,0.0931677500000001,46.0,0.09287925000000019
17950,36.0,0.09287925000000019,42.0,0.092688083333333
17951,34.0,0.092688083333333,44.0,0.09249758333333435
17952,43.0,0.09249758333333435,53.0,0.09221333333333348
17953,41.0,0.09221333333333348,55.0,0.10736191666666528
17954,39.0,0.09202449999999907,48.0,0.10759795833333463
17955,38.0,0.09221333333333348,41.0,0.10783475000000031
17956,36.0,0.09240266666666841,42.0,0.108072374999999
17957,34.0,0.09259249999999852,48.0,0.10835912499999978
17958,36.0,0.0928792499999993,39.0,0.10859954166666697
17959,38.0,0.09307158333333376,41.0,0.10884083333333372
17960,29.0,0.09326450000000186,37.0,0.10918033333333277
17961,57.0,0.09355533333333277,77.0,1.49878425
17962,31.0,0.09375,40.0,0.09355533333333277
17963,36.0,0.09355533333333277,42.0,0.09345800000000004
17964,38.0,0.09345800000000004,34.0,0.09316774999999922
17965,40.0,0.09316774999999922,42.0,0.09307158333333376
17966,38.0,0.09307158333333376,39.0,0.09287925000000108
17967,36.0,0.09287925000000108,39.0,0.09268808333333212
17968,45.0,0.09268808333333212,46.0,0.0925925000000003
17969,43.0,0.0925925000000003,46.0,0.0923077499999998
17970,41.0,0.0923077499999998,40.0,0.0923077499999998
17971,40.0,0.0923077499999998,36.0,0.0925925000000003
17972,38.0,0.0925925000000003,37.0,0.0925925000000003
17973,36.0,0.0925925000000003,44.0,0.0928792499999993
17974,38.0,0.0928792499999993,36.0,0.09287925000000108
17975,40.0,0.09287925000000108,40.0,0.09316774999999922
17976,55.0,0.09316774999999922,67.0,0.10489500000000085
17977,45.0,0.052447499999999536,55.0,0.4247338333333346
17978,53.0,0.026223749999999768,60.0,0.3985100833333348
17979,60.0,0.026223750000001544,69.0,0.7430386666666671
17980,24.0,0.09316774999999922,40.0,0.09316775000000099
17981,29.0,0.09316775000000099,42.0,0.09307158333333199
17982,31.0,0.09307158333333199,34.0,0.09287925000000108
17983,33.0,0.09287925000000108,42.0,0.10835912499999978
17984,31.0,0.0928792499999993,39.0,0.10812016666666757
17985,29.0,0.09268808333333389,39.0,0.10802458333333398
17986,38.0,0.0925925000000003,46.0,0.10797712499999967
17987,36.0,0.0925925000000003,46.0,0.10769237499999917
17988,34.0,0.0923077499999998,40.0,0.10792966666666715
17989,33.0,0.09249758333333347,36.0,0.10826354166666796
17990,31.0,0.09278366666666749,37.0,0.10859954166666519
17991,29.0,0.09307158333333199,44.0,0.10893758333333281
17992,31.0,0.09336124999999917,36.0,0.10927766666666727
17993,33.0,0.09365266666666727,40.0,0.1096199999999996
17994,26.0,0.09394600000000075,36.0,0.1097672499999991
17995,57.0,0.09404399999999846,69.0,1.5087268333333324
17996,31.0,0.09433950000000024,40.0,0.09424099999999846
17997,36.0,0.09424099999999846,42.0,0.09404400000000024
17998,38.0,0.09404400000000024,34.0,0.09384799999999949
17999,40.0,0.09384799999999949,44.0,0.09375
18000,38.0,0.09375,40.0,0.09345800000000004
18001,36.0,0.09345800000000004,41.0,0.09336124999999917
18002,45.0,0.09336124999999917,49.0,0.09316775000000099
18003,43.0,0.09316775000000099,50.0,0.0928792499999993
18004,41.0,0.0928792499999993,44.0,0.09316774999999922
18005,40.0,0.09316774999999922,40.0,0.09355533333333277
18006,38.0,0.09355533333333277,41.0,0.09384799999999949
18007,36.0,0.09384799999999949,50.0,0.09424100000000202
18008,38.0,0.09424100000000202,41.0,0.09453800000000001
18009,40.0,0.09453800000000001,46.0,0.09493675000000046
18010,55.0,0.09493675000000046,60.0,0.10135125000000045
18011,45.0,0.050675625000000224,49.0,0.4262636250000007
18012,51.0,0.025337812500000112,56.0,0.4009258125000006
18013,60.0,0.025337812500000112,72.0,0.7487433333333335
18014,24.0,0.09404400000000024,38.0,0.09404400000000024
18015,29.0,0.09404400000000024,38.0,0.09375
18016,31.0,0.09375,37.0,0.09375
18017,33.0,0.09375,45.0,0.10903433333333368
18018,31.0,0.09345800000000004,41.0,0.10898595833333324
18019,29.0,0.09345800000000004,41.0,0.1086957083333342
18020,38.0,0.09316774999999922,41.0,0.10855145833333424
18021,36.0,0.09307158333333376,46.0,0.10835912500000155
18022,34.0,0.09287925000000108,41.0,0.1084072083333325
18023,33.0,0.0928792499999993,37.0,0.1086957083333342
18024,31.0,0.09316774999999922,39.0,0.10874408333333463
18025,29.0,0.09316775000000099,45.0,0.10903433333333368
18026,31.0,0.09345800000000004,36.0,0.10908300000000004
18027,33.0,0.09345800000000004,40.0,0.109375
18028,24.0,0.09375,36.0,0.10942400000000063
18029,17.0,0.09375,46.0,0.09384799999999949
18030,24.0,0.09384799999999949,40.0,0.09365266666666727
18031,29.0,0.09365266666666727,42.0,0.09345800000000004
18032,31.0,0.09345800000000004,34.0,0.09316774999999922
18033,33.0,0.09316774999999922,42.0,0.0928792499999993
18034,31.0,0.0928792499999993,39.0,0.09268808333333389
18035,29.0,0.09268808333333389,39.0,0.09249758333333347
18036,63.0,0.09249758333333347,66.0,0.09221333333333348
18037,55.0,0.09221333333333348,70.0,0.5558534166666647
18038,34.0,0.09202449999999907,40.0,0.0923077499999998
18039,33.0,0.0923077499999998,36.0,0.09249758333333347
18040,31.0,0.09249758333333347,37.0,0.09278366666666749
18041,29.0,0.09278366666666749,44.0,0.09297541666666476
18042,31.0,0.09297541666666476,36.0,0.09326450000000008
18043,33.0,0.09326450000000008,40.0,0.09345799999999826
18044,53.0,0.09345799999999826,66.0,0.09384800000000126
18045,41.0,0.09384800000000126,77.0,0.5598914999999955
18046,29.0,0.09404400000000024,45.0,0.09375
18047,34.0,0.09375,48.0,0.09345799999999826
18048,36.0,0.09345799999999826,40.0,0.09316774999999922
18049,38.0,0.09316774999999922,48.0,0.0928792499999993
18050,36.0,0.0928792499999993,44.0,0.09259249999999852
18051,34.0,0.09259249999999852,44.0,0.0923077499999998
18052,43.0,0.0923077499999998,52.0,0.09202450000000084
18053,50.0,0.09202450000000084,77.0,0.5538569999999972
18054,39.0,0.09174300000000102,45.0,0.09193066666666638
18055,38.0,0.09193066666666638,41.0,0.09221333333333348
18056,36.0,0.09221333333333348,42.0,0.09240266666666486
18057,34.0,0.09240266666666486,49.0,0.09268808333333212
18058,36.0,0.09268808333333212,41.0,0.0928792499999993
18059,38.0,0.0928792499999993,45.0,0.09316774999999922
18060,55.0,0.09316774999999922,74.0,0.09345799999999826
18061,53.0,0.09345799999999826,82.0,1.1115504166666632
18062,29.0,0.09375,46.0,0.09365266666666727
18063,34.0,0.09365266666666727,50.0,0.0933612499999974
18064,36.0,0.0933612499999974,44.0,0.09307158333333376
18065,38.0,0.09307158333333376,55.0,0.09278366666666571
18066,36.0,0.09278366666666571,53.0,0.09249758333332991
18067,34.0,0.09249758333332991,55.0,0.09221333333333348
18068,43.0,0.09221333333333348,68.0,0.09193066666666994
18069,41.0,0.09193066666666994,70.0,0.09174299999999747
18070,39.0,0.09174299999999747,61.0,0.09193066666666994
18071,38.0,0.09193066666666994,55.0,0.09221333333333348
18072,36.0,0.09221333333333348,56.0,0.09240266666666486
18073,34.0,0.09240266666666486,66.0,0.09268808333333212
18074,36.0,0.09268808333333212,55.0,0.0928792499999993
18075,38.0,0.0928792499999993,60.0,0.09316774999999922
18076,63.0,0.09316774999999922,96.0,0.09345799999999826
18077,62.0,0.09345799999999826,89.0,1.4843104166666592
18078,29.0,0.09355533333333454,58.0,0.0933612499999974
18079,34.0,0.0933612499999974,60.0,0.09316774999999922
18080,36.0,0.09316774999999922,49.0,0.0928792499999993
18081,38.0,0.0928792499999993,58.0,0.09268808333333567
18082,36.0,0.09268808333333567,52.0,0.09249758333332991
18083,34.0,0.09249758333332991,52.0,0.0923077499999998
18084,43.0,0.0923077499999998,60.0,0.09193066666666994
18085,41.0,0.09193066666666994,60.0,0.09174299999999747
18086,39.0,0.09174299999999747,50.0,0.09202450000000084
18087,38.0,0.09202450000000084,45.0,0.0923077499999998
18088,36.0,0.0923077499999998,45.0,0.09259249999999852
18089,34.0,0.09259249999999852,52.0,0.0928792499999993
18090,36.0,0.0928792499999993,42.0,0.09316774999999922
18091,38.0,0.09316774999999922,46.0,0.09345799999999826
18092,29.0,0.09345799999999826,41.0,0.09375
18093,58.0,0.09375,74.0,0.7461259166666672
18094,34.0,0.09365266666666372,53.0,0.10908300000000537
18095,33.0,0.09345800000000537,45.0,0.109375
18096,31.0,0.09375,40.0,0.1096199999999996
18097,29.0,0.09394600000000253,41.0,0.10986574999999732
18098,27.0,0.09414249999999669,49.0,0.11011237499999993
18099,29.0,0.09433949999999669,40.0,0.11041012500000136
18100,31.0,0.09463724999999812,44.0,0.11065970833332983
18101,22.0,0.09483691666666516,40.0,0.11116320833333049
18102,48.0,0.095137583333333,72.0,1.4417845833333374
18103,22.0,0.09615374999999915,44.0,0.09605141666666839
18104,27.0,0.09605141666666839,45.0,0.09584674999999976
18105,29.0,0.09584674999999976,37.0,0.09564325000000196
18106,31.0,0.09564325000000196,45.0,0.11131333333333515
18107,29.0,0.09544033333333601,41.0,0.11111100000000107
18108,27.0,0.09523800000000193,40.0,0.11085995833332873
18109,36.0,0.09503716666666406,49.0,0.1106097916666684
18110,34.0,0.09483691666666516,48.0,0.11081033333333323
18111,33.0,0.0949373333333341,41.0,0.11151654166666702
18112,31.0,0.09554208333332781,37.0,0.11223166666667339
18113,29.0,0.09615450000000436,37.0,0.1129561666666703
18114,27.0,0.09677491666666782,44.0,0.11368987500000571
18115,29.0,0.09740325000000638,36.0,0.11443337499999728
18116,31.0,0.09803991666666434,40.0,0.11586712499999408
18117,50.0,0.09868499999999614,70.0,0.11886562500000508
18118,36.0,0.05154637500000092,46.0,0.4286128749999918
18119,41.0,0.02577318750000046,49.0,1.5276819374999846
18120,46.0,0.02577318750000046,68.0,1.5019087499999841
18121,24.0,0.09463724999999812,44.0,0.0944387500000019
18122,27.0,0.0944387500000019,45.0,0.09414249999999669
18123,29.0,0.09414249999999669,37.0,0.09384799999999416
18124,31.0,0.09384799999999416,45.0,0.09365266666666372
18125,29.0,0.09365266666666372,41.0,0.09336125000000095
18126,27.0,0.09336125000000095,40.0,0.09307158333333376
18127,38.0,0.09307158333333376,49.0,0.09307158333333376
18128,36.0,0.09307158333333376,48.0,0.10874408333333463
18129,34.0,0.09316774999999922,41.0,0.10903433333333368
18130,31.0,0.09345799999999826,37.0,0.10927766666667083
18131,29.0,0.09365266666667083,37.0,0.10952199999999834
18132,27.0,0.09384800000000126,44.0,0.10976724999999732
18133,29.0,0.09404399999999669,36.0,0.11006274999999732
18134,31.0,0.09433949999999669,40.0,0.11031087500000325
18135,24.0,0.09453800000000001,36.0,0.11041012500000136
18136,45.0,0.09463724999999812,74.0,1.5155025000000109
18137,24.0,0.09453800000000712,44.0,0.09433949999999669
18138,29.0,0.09433949999999669,45.0,0.09404399999999669
18139,31.0,0.09404399999999669,37.0,0.09375
18140,33.0,0.09375,45.0,0.10913166666666996
18141,31.0,0.09355533333333454,41.0,0.10879245833333329
18142,29.0,0.09326449999999653,40.0,0.10855145833333069
18143,38.0,0.09307158333333376,49.0,0.10821574999999939
18144,36.0,0.09278366666666926,48.0,0.10816795833333259
18145,34.0,0.09268808333333567,41.0,0.10850337500000506
18146,33.0,0.09297541666666831,37.0,0.10884083333333194
18147,31.0,0.09326449999999653,37.0,0.10922933333333162
18148,29.0,0.09355533333333454,44.0,0.11036366666667163
18149,31.0,0.09444008333333898,36.0,0.11239024999999714
18150,33.0,0.09615649999999931,40.0,0.1144235000000009
18151,46.0,0.09669300000000192,67.0,0.12215587500000424
18152,46.0,0.106383000000001,73.0,1.4953902499999856
18153,29.0,0.09463724999999812,44.0,0.0944387500000019
18154,34.0,0.0944387500000019,45.0,0.09414249999999669
18155,36.0,0.09414249999999669,37.0,0.09384799999999416
18156,38.0,0.09384799999999416,45.0,0.10922899999999913
18157,36.0,0.09365266666666372,41.0,0.1088892083333377
18158,34.0,0.09336125000000095,40.0,0.10855145833333069
18159,43.0,0.09307158333333376,49.0,0.10821574999999939
18160,41.0,0.09278366666666926,48.0,0.1080245833333322
18161,39.0,0.09259250000000208,41.0,0.10816795833332549
18162,38.0,0.09268808333332856,37.0,0.10835912499999978
18163,36.0,0.09287924999999575,37.0,0.10859954166667052
18164,34.0,0.09307158333333376,44.0,0.10884083333333194
18165,36.0,0.09326449999999653,36.0,0.10903433333333368
18166,38.0,0.09345800000000537,40.0,0.10927766666666372
18167,29.0,0.09365266666666372,36.0,0.10952199999999834
18168,22.0,0.09384800000000126,50.0,0.0942410000000038
18169,29.0,0.0942410000000038,44.0,0.09433949999999669
18170,34.0,0.09433949999999669,45.0,0.09404399999999669
18171,36.0,0.09404399999999669,37.0,0.09394600000000253
18172,38.0,0.09394600000000253,45.0,0.09375
18173,36.0,0.09375,41.0,0.09345799999999826
18174,34.0,0.09345799999999826,40.0,0.09336125000000095
18175,43.0,0.09336125000000095,49.0,0.09316774999999922
18176,41.0,0.09316774999999922,48.0,0.09287925000000286
18177,39.0,0.09287925000000286,41.0,0.09287924999999575
18178,38.0,0.09287924999999575,37.0,0.09316774999999922
18179,36.0,0.09316774999999922,37.0,0.09316774999999922
18180,34.0,0.09316774999999922,44.0,0.09345799999999826
18181,36.0,0.09345799999999826,36.0,0.09345799999999826
18182,38.0,0.09345799999999826,40.0,0.09375
18183,29.0,0.09375,36.0,0.09384800000000126
18184,38.0,0.09384800000000126,46.0,0.0846395999999956
18185,41.0,0.09404399999999669,40.0,0.08457100000000395
18186,46.0,0.09394600000000253,41.0,0.08437500000000142
18187,48.0,0.09375,34.0,0.08411219999999986
18188,50.0,0.09345799999999826,41.0,0.08394772500000158
18189,48.0,0.09326450000000364,39.0,0.08378365833333135
18190,46.0,0.09307158333333376,39.0,0.08359132500000044
18191,55.0,0.09287924999999575,46.0,0.08333325000000258
18192,53.0,0.09259250000000208,46.0,0.08317189166666594
18193,51.0,0.09240266666666486,40.0,0.08314341666667246
18194,50.0,0.09240266666667196,36.0,0.08340015833333325
18195,48.0,0.09268808333333567,37.0,0.08365864166666626
18196,46.0,0.09297541666666831,42.0,0.08401545000000255
18197,48.0,0.09336125000000095,36.0,0.08427766666666514
18198,50.0,0.09365266666666372,40.0,0.08454160000000144
18199,41.0,0.09394600000000253,36.0,0.08480704999999489
18200,38.0,0.09424099999999669,46.0,0.0846396000000027
18201,41.0,0.09404399999999669,40.0,0.08447300000000268
18202,46.0,0.09384800000000126,41.0,0.08430686666666531
18203,48.0,0.09365266666666372,34.0,0.08411219999999986
18204,50.0,0.09345800000000537,41.0,0.08385097499999716
18205,48.0,0.09316774999999922,39.0,0.08368749166666589
18206,46.0,0.09297541666666831,39.0,0.08352441666666266
18207,55.0,0.09278366666666216,46.0,0.08340015833333325
18208,53.0,0.09268808333333567,46.0,0.08359132500000044
18209,51.0,0.09287924999999575,40.0,0.08375480833333171
18210,50.0,0.09307158333333376,36.0,0.08385097499999716
18211,48.0,0.09316774999999922,37.0,0.08411219999999986
18212,46.0,0.09345799999999826,42.0,0.08418033333333597
18213,48.0,0.09355533333333454,36.0,0.08437500000000142
18214,50.0,0.09375,40.0,0.08454160000000144
18215,41.0,0.09394600000000253,36.0,0.0846395999999956
18216,38.0,0.09404399999999669,46.0,0.0846396000000027
18217,41.0,0.09404400000000379,40.0,0.08437500000000142
18218,46.0,0.09375,41.0,0.08420953333333614
18219,48.0,0.09355533333333454,34.0,0.0840444749999989
18220,46.0,0.09336125000000095,41.0,0.08378365833333135
18221,48.0,0.09307158333333376,39.0,0.08359132500000044
18222,50.0,0.09287924999999575,39.0,0.08333325000000258
18223,41.0,0.09259250000000208,46.0,0.08317189166666594
18224,38.0,0.09240266666666486,46.0,0.08291646666667418
18225,41.0,0.09211891666667071,40.0,0.0828881416666718
18226,46.0,0.09211891666667071,36.0,0.08307697500000444
18227,48.0,0.09230775000000335,37.0,0.08333325000000258
18228,46.0,0.09259250000000208,42.0,0.08349574166666685
18229,48.0,0.09278366666666926,36.0,0.08365864166665915
18230,50.0,0.0929754166666612,40.0,0.08385097499999716
18231,41.0,0.09316774999999922,36.0,0.08411219999999986
18232,38.0,0.09345799999999826,46.0,0.08517352500000186
18233,41.0,0.09463724999999812,40.0,0.0850048000000001
18234,46.0,0.0944387500000019,41.0,0.0847380999999956
18235,48.0,0.09414249999999669,34.0,0.08457099999999684
18236,46.0,0.09394599999999542,41.0,0.08430686666666531
18237,48.0,0.09365266666666372,38.0,0.08411219999999986
18238,50.0,0.09345800000000537,37.0,0.08385097499999716
18239,53.0,0.09316774999999922,42.0,0.08359132500000044
18240,58.0,0.09287925000000286,42.0,0.09268808333333567
18241,60.0,0.09268808333333567,38.0,0.09345858333333013
18242,62.0,0.09345858333333013,40.0,0.0943402500000019
18243,65.0,0.0943402500000019,34.0,0.09523875000000004
18244,70.0,0.09523875000000004,39.0,0.09594908333333763
18245,72.0,0.09594908333333763,38.0,0.09677491666666072
18246,74.0,0.09677491666666072,37.0,0.09772050000000121
18247,77.0,0.09772050000000121,37.0,0.09868499999999614
18248,74.0,0.09868499999999614,50.0,0.5
18249,22.0,0.8265345750000037,31.0,1.216809783333332
18250,29.0,0.05153745416666311,33.0,1.165272329166669
18251,34.0,0.05033830416666518,36.0,1.1149340250000037
18252,38.0,0.04934466250000469,34.0,1.065589362499999
18253,41.0,0.048327470833328334,37.0,1.0172618916666707
18254,46.0,0.04731089166666891,40.0,0.9699510000000018
18255,50.0,0.046875,44.0,0.9230760000000018
18256,22.0,0.9230760000000018,27.0,2.644603458333343
18257,29.0,0.05743479999999579,30.0,2.587168658333347
18258,34.0,0.055348575000003564,35.0,2.5318200833333435
18259,38.0,0.0530976958333369,33.0,2.4787223875000066
18260,41.0,0.05107148750000334,35.0,2.4276509000000033
18261,46.0,0.04909078749999907,37.0,2.378560112500004
18262,50.0,0.04743536250001057,39.0,2.3311247499999936
18263,62.0,0.0,103.0,0.7877341583333333
18264,47.0,0.23765424375,73.0,0.10020379583333333
18265,46.0,0.09571278333333338,73.0,0.09901133125
18266,44.0,0.08699933124999998,79.0,0.09920986250000002
18267,41.0,0.09469178750000001,72.0,0.09947727500000003
18268,42.0,0.08890324999999999,72.0,0.09969795000000004
18269,41.0,0.08987921249999997,71.0,0.09995415000000007
18270,38.0,0.08934810000000004,79.0,0.1001611916666666
18271,34.0,0.09560191666666662,72.0,0.10043378333333342
18272,35.0,0.09128743333333333,72.0,0.1006471166666667
18273,34.0,0.09070829166666661,70.0,0.1009173000000001
18274,32.0,0.08639132500000013,79.0,0.10112373333333347
18275,29.0,0.09805624999999996,71.0,0.10140634166666662
18276,30.0,0.0906371041666667,71.0,0.10161920416666681
18277,29.0,0.09081674583333332,68.0,0.10188042500000005
18278,26.0,0.09104929166666675,79.0,0.10216239583333331
18279,22.0,0.0905524895833334,71.0,0.10216717499999994
18280,23.0,0.09365324374999995,71.0,0.10216717499999994
18281,22.0,0.0952012312499999,69.0,0.10216717500000017
18282,20.0,0.09055726875000003,79.0,0.10216717500000017
18283,17.0,0.09287924999999997,71.0,0.10216717499999994
18284,18.0,0.09984519375000023,71.0,0.10216717499999994
18285,17.0,0.08823528749999987,68.0,0.1024391958333335
18286,15.0,0.09055726875000003,76.0,0.12609930416666648
18287,10.0,0.09494911041666665,69.0,0.12619822083333343
18288,15.0,0.09584674999999976,70.0,0.12619822083333343
18289,10.0,0.09904164166666707,68.0,0.1378154208333333
18290,59.0,0.09862047291666665,102.0,0.38135625000000006
18291,10.0,0.1281780729166666,71.0,0.16737302083333327
18292,15.0,0.12711875000000017,75.0,0.1866184645833333
18293,58.0,0.1260594270833333,95.0,0.1810626333333336
18294,10.0,0.0015527958333332315,74.0,0.19172788750000036
18295,14.0,0.1759350875000001,79.0,0.11259735000000015
18296,65.0,0.003574750000000293,106.0,0.7674695833333329
18297,47.0,0.22706100416666652,71.0,0.09880227500000016
18298,46.0,0.08757474374999985,70.0,0.09900683541666666
18299,44.0,0.08924708541666693,79.0,0.09921212499999976
18300,41.0,0.08791693749999974,72.0,0.0994590750000004
18301,42.0,0.0949273500000003,72.0,0.09969794999999992
18302,41.0,0.09214507499999991,70.0,0.09996101249999967
18303,38.0,0.09087011249999977,79.0,0.10017271250000048
18304,34.0,0.08877452500000027,71.0,0.10042451666666619
18305,35.0,0.08975377500000015,71.0,0.10063314166666704
18306,34.0,0.09604599166666627,68.0,0.10091730000000076
18307,32.0,0.09021395000000076,79.0,0.10113780833333319
18308,29.0,0.09423597083333313,72.0,0.10140870208333386
18309,30.0,0.09217792708333317,72.0,0.10162632291666718
18310,29.0,0.08850905208333426,70.0,0.10188042499999916
18311,26.0,0.08950608333333321,79.0,0.10215761666666623
18312,22.0,0.0959656666666664,71.0,0.10216717499999994
18313,23.0,0.09055726874999959,71.0,0.10216717499999994
18314,22.0,0.09829720624999982,70.0,0.10216717500000083
18315,20.0,0.08746129375000056,79.0,0.10216717499999994
18316,17.0,0.09752321249999962,71.0,0.10265405000000083
18317,18.0,0.09378307708333367,71.0,0.10645167499999975
18318,17.0,0.09758070208333347,69.0,0.10645167499999975
18319,15.0,0.09677425000000017,79.0,0.12741942916666638
18320,10.0,0.0935484416666661,72.0,0.12741942916666726
18321,15.0,0.09516134583333358,73.0,0.12741942916666638
18322,10.0,0.09516134583333358,73.0,0.1370102854166655
18323,15.0,0.09806405208333224,76.0,0.16766956250000042
18324,59.0,0.0017122125000001986,101.0,0.3829785000000001
18325,10.0,0.13191481666666682,76.0,0.16808500833333362
18326,15.0,0.11808503750000021,79.0,0.1826774708333332
18327,10.0,0.13191481666666593,76.0,0.18276929791666685
18328,58.0,0.0010638291666671407,95.0,0.17228829999999995
18329,14.0,0.1683728750000002,79.0,0.10322374999999973
18330,68.0,0.00391542499999975,106.0,0.20546549999999986
18331,71.0,0.2069625041666665,87.0,0.09880227499999972
18332,70.0,0.084580735416667,80.0,0.09904280208333294
18333,58.0,0.005988016666666596,71.0,0.09906078541666652
18334,68.0,0.08404578541666652,87.0,0.0992958374999997
18335,56.0,0.0052552499999993785,79.0,0.09931167500000004
18336,53.0,0.08876949999999972,71.0,0.09956145000000038
18337,65.0,0.0037650625000003046,77.0,0.09957282500000009
18338,54.0,0.08371178749999952,71.0,0.09980775000000008
18339,66.0,0.0015105750000001805,77.0,0.09981232500000026
18340,65.0,0.09072142499999991,76.0,0.1000690250000007
18341,53.0,0.000757575000000621,70.0,0.10007132916666617
18342,62.0,0.09247253749999995,87.0,0.10033416666666639
18343,50.0,0.0022796375000000424,79.0,0.1003411166666659
18344,46.0,0.08434658749999979,70.0,0.10059826666666627
18345,58.0,0.005323787500000066,77.0,0.10060984999999967
18346,47.0,0.08993910833333274,70.0,0.10087071666666692
18347,59.0,0.0030487833333339154,77.0,0.10088003333333262
18348,58.0,0.09017668333333262,76.0,0.10113780833333408
18349,44.0,0.08963474583333397,79.0,0.10139453958333355
18350,56.0,0.0007668708333330443,87.0,0.10139690000000012
18351,41.0,0.08908920000000009,71.0,0.10165242500000016
18352,53.0,0.0007692312500005016,77.0,0.10165479791666687
18353,54.0,0.09702517291666624,77.0,0.10193538541666669
18354,42.0,0.0015432083333335456,71.0,0.10194016458333355
18355,53.0,0.08878227083333279,76.0,0.10219602500000047
18356,41.0,0.003869968750000119,69.0,0.10220804583333365
18357,50.0,0.08900928125000007,87.0,0.10248452500000038
18358,38.0,0.0007763979166668378,79.0,0.1024845249999995
18359,34.0,0.09083855624999959,71.0,0.10248452500000038
18360,46.0,0.005434785416666976,77.0,0.1024845249999995
18361,35.0,0.0892857604166668,71.0,0.1024845249999995
18362,47.0,0.0023291937500005133,77.0,0.1024845249999995
18363,46.0,0.08773296458333313,76.0,0.1024845249999995
18364,34.0,0.002329193749998737,69.0,0.10248452500000127
18365,44.0,0.09472054583333467,87.0,0.1024845249999995
18366,32.0,0.002329193749998737,79.0,0.10248452500000127
18367,29.0,0.08850936249999997,71.0,0.10248452500000127
18368,41.0,0.0007763979166668378,77.0,0.10248452500000127
18369,30.0,0.09394414791666783,71.0,0.1024845249999995
18370,42.0,0.002329193749998737,77.0,0.10248452500000127
18371,29.0,0.08850936249999997,69.0,0.10248452500000127
18372,41.0,0.003105591666667351,76.0,0.1024845249999995
18373,38.0,0.09316774999999922,87.0,0.10248452500000127
18374,26.0,0.003105591666667351,79.0,0.1024845249999995
18375,34.0,0.08773296458333313,77.0,0.1024845249999995
18376,35.0,0.09161495416666732,77.0,0.1024845249999995
18377,23.0,0.005434785416666088,71.0,0.1024845249999995
18378,34.0,0.08850936249999997,76.0,0.1024845249999995
18379,22.0,0.003105591666667351,69.0,0.1024845249999995
18380,20.0,0.09006215833333187,79.0,0.10248452500000127
18381,47.0,0.12986816666666456,55.0,0.8540920000000014
18382,15.0,0.0035587166666672942,33.0,0.1174376499999994
18383,22.0,0.10409246249999882,36.0,0.1174376499999994
18384,27.0,0.10765117916666611,39.0,0.1174376499999994
18385,29.0,0.10587182083333602,40.0,0.1174376499999994
18386,30.0,0.10498214166666386,45.0,0.11743765000000295
18387,29.0,0.10498214166666742,46.0,0.1174376499999994
18388,27.0,0.112099575000002,45.0,0.1174376499999994
18389,22.0,0.10498214166666386,43.0,0.10676150000000106
18390,54.0,0.10587182083333602,47.0,0.21352299999999858
18391,15.0,0.0035587166666637415,40.0,0.11743765000000295
18392,22.0,0.10053374583333508,45.0,0.11767350625000006
18393,27.0,0.10676150000000106,50.0,0.12150384999999986
18394,63.0,0.11257528750000034,95.0,0.12942093750000083
18395,29.0,0.0009920624999999461,54.0,0.13154090625000237
18396,65.0,0.11805543750000069,101.0,0.3844569583333346
18397,30.0,0.0020746874999986176,59.0,0.13692937500000113
18398,29.0,0.12344390625000301,57.0,0.13692937499999758
18399,27.0,0.12136921874999729,57.0,0.13756914583333568
18400,66.0,0.12655593750000094,107.0,0.13215849999999918
18401,15.0,0.12665189583333358,53.0,0.11275010416666476
18402,66.0,0.005506604166665596,113.0,0.7991850833333345
18403,22.0,0.10387650000000193,51.0,0.11095573958333205
18404,27.0,0.09921076041666765,53.0,0.11058964375000002
18405,29.0,0.10055619375000191,54.0,0.11007271875000058
18406,30.0,0.10093650833333356,56.0,0.10959602499999832
18407,34.0,0.10049006458332954,57.0,0.1091213062499996
18408,39.0,0.09344472291666861,60.0,0.10878069999999695
18409,41.0,0.10302411874999962,62.0,0.1082671333333316
18410,42.0,0.10091418958333165,64.0,0.10784317499999929
18411,41.0,0.09885624374999935,61.0,0.10784317499999929
18412,39.0,0.09477127499999938,59.0,0.11093098333333629
18413,58.0,0.09868901875000446,76.0,0.11300274999999971
18414,34.0,0.0028250687499991045,57.0,0.1253279625000019
18415,30.0,0.10546923333333424,55.0,0.13298082916666587
18416,58.0,0.004708447916666358,76.0,0.36360674999999887
18417,29.0,0.12322228749999908,52.0,0.13332247499999994
18418,27.0,0.12423230625000059,50.0,0.13463685833333372
18419,22.0,0.11413211874999973,48.0,0.1303256166666671
18420,58.0,0.002020037499999461,82.0,0.13048025000000152
18421,60.0,0.13048025000000152,92.0,1.6302011250000064
18422,15.0,0.0008532416666682252,77.0,0.11253213124999917
18423,21.0,0.09977703749999733,53.0,0.11210076250000256
18424,27.0,0.10023634583333418,56.0,0.11166970833333423
18425,29.0,0.10153458333333276,54.0,0.11121354166667174
18426,30.0,0.10785783333333754,56.0,0.11063735000000108
18427,29.0,0.10060389999999941,57.0,0.11021184999999889
18428,27.0,0.09937851666666475,57.0,0.10979234374999791
18429,21.0,0.09401161666666624,59.0,0.09945875000000015
18430,15.0,0.10111437916666688,77.0,0.10910925416666828
18431,21.0,0.09662309791666956,56.0,0.1105692708333379
18432,27.0,0.10044836458333606,59.0,0.11218702708332984
18433,29.0,0.10790620416666385,57.0,0.11393311250000338
18434,30.0,0.10522232083333805,57.0,0.1149824499999994
18435,29.0,0.10104518333333345,60.0,0.1149824499999994
18436,27.0,0.10365842083333021,62.0,0.11498245000000296
18437,21.0,0.10452950000000172,60.0,0.10452949999999817
18438,14.0,0.10365842083333376,70.0,0.1338560125000008
18439,65.0,0.0017421583333323554,105.0,0.30487812499999833
18440,26.0,0.12195124999999862,54.0,0.13414637500000026
18441,29.0,0.12195125000000218,57.0,0.13414637500000026
18442,34.0,0.11788620833333141,61.0,0.13295687500000142
18443,41.0,0.123983770833334,61.0,0.11481700000000217
18444,58.0,0.002032520833335383,91.0,0.414817750000001
18445,34.0,0.10671146874999948,60.0,0.11424610416666425
18446,29.0,0.09954631041666673,59.0,0.1138765124999992
18447,26.0,0.10870588749999754,61.0,0.1032900333333373
18448,13.0,0.10414902083333644,57.0,0.11322211874999866
18449,25.0,0.10209273749999781,59.0,0.11289610833333796
18450,28.0,0.10091062083333568,62.0,0.11588095416666633
18451,34.0,0.10028112499999864,64.0,0.12932526250000365
18452,58.0,0.0018743458333361218,72.0,0.11764700000000161
18453,59.0,0.11764700000000161,89.0,0.35294099999999773
18454,40.0,0.00490195833333118,67.0,0.12941170000000213
18455,34.0,0.10882347500000122,65.0,0.12941169999999858
18456,28.0,0.11666660833333253,66.0,0.12941169999999858
18457,58.0,0.12254895833333279,71.0,0.11764700000000161
18458,25.0,0.002941175000000129,65.0,0.11775460625000278
18459,58.0,0.11470582500000148,81.0,0.2534082083333331
18460,24.0,0.12296751041666809,62.0,0.13329241041666506
18461,63.0,0.12093498958333271,76.0,0.11406849999999835
18462,27.0,0.00475285416666793,63.0,0.12547534999999854
18463,32.0,0.10456279166666604,65.0,0.12481409791666565
18464,56.0,0.11882135416666628,86.0,0.4109310000000015
18465,39.0,0.003424424999998621,67.0,0.11300602500000068
18466,32.0,0.10102053750000195,60.0,0.11300602500000068
18467,27.0,0.09930832499999909,62.0,0.11300602500000068
18468,24.0,0.10102053750000195,60.0,0.10273274999999771
18469,11.0,0.10615717499999988,57.0,0.11300602499999712
18470,23.0,0.10016443124999697,59.0,0.11300602500000068
18471,27.0,0.10358885625000269,59.0,0.11398694166666701
18472,56.0,0.10444496250000057,69.0,0.11450375000000079
18473,32.0,0.004770989583334995,56.0,0.1265311687499988
18474,58.0,0.1097327604166658,87.0,0.3557309999999987
18475,39.0,0.0009881416666672749,61.0,0.13043469999999857
18476,32.0,0.11956514166666565,57.0,0.13043470000000212
18477,27.0,0.11264815000000183,55.0,0.131004149999999
18478,56.0,0.12252956666666392,69.0,0.12711875000000106
18479,10.0,0.12605942708333373,47.0,0.11639271666666318
18480,55.0,0.0010593229166673268,84.0,1.5189146250000007
18481,22.0,0.10569374999999681,47.0,0.11531007500000001
18482,27.0,0.1074763625000017,48.0,0.11436570000000046
18483,26.0,0.10143913750000166,47.0,0.11346114999999912
18484,28.0,0.10233176874999828,51.0,0.11261093333333605
18485,27.0,0.1049563020833375,53.0,0.1117169333333301
18486,29.0,0.09992447083332934,55.0,0.11084643333333588
18487,28.0,0.10164048750000276,54.0,0.10998650416666678
18488,30.0,0.09837984166666303,56.0,0.10941194583333669
18489,29.0,0.09615021250000311,55.0,0.10940929999999938
18490,31.0,0.1052650083333333,57.0,0.10940929999999938
18491,30.0,0.09448984999999865,57.0,0.10940929999999938
18492,32.0,0.10360729166666616,59.0,0.10940930000000293
18493,31.0,0.10194957500000257,60.0,0.10940929999999938
18494,33.0,0.0961475666666658,57.0,0.11013914999999841
18495,54.0,0.09946300000000008,70.0,0.10676150000000106
18496,32.0,0.0026690374999986943,57.0,0.11803299375000265
18497,54.0,0.10409246250000237,75.0,0.8550820833333361
18498,33.0,0.11059488125000172,54.0,0.12267667499999746
18499,35.0,0.11524172499999707,54.0,0.12267667500000101
18500,34.0,0.10966551250000123,54.0,0.12187332916666449
18501,37.0,0.10873614375000074,54.0,0.1142101124999968
18502,53.0,0.0018587374999974315,63.0,0.40898508333333794
18503,35.0,0.10805643750000016,54.0,0.11290189375000281
18504,34.0,0.0992936604166701,54.0,0.1118343791666696
18505,32.0,0.09750402708333183,54.0,0.11080429166666761
18506,30.0,0.10329405416666759,54.0,0.11011273750000328
18507,29.0,0.09760023750000002,54.0,0.11011000000000237
18508,27.0,0.10593916666666914,52.0,0.11010999999999882
18509,26.0,0.10176833333333235,51.0,0.11010999999999882
18510,23.0,0.09676333333333176,47.0,0.11011000000000237
18511,22.0,0.0950950000000006,44.0,0.11011000000000237
18512,20.0,0.10260249999999971,40.0,0.11011000000000237
18513,17.0,0.09759750000000267,37.0,0.10009999999999764
18514,15.0,0.10598904583332924,31.0,0.1126285541666654
18515,22.0,0.09793811250000317,32.0,0.10633029166666219
18516,27.0,0.10311485833333123,35.0,0.10610929999999996
18517,29.0,0.09646299999999997,36.0,0.10610929999999996
18518,30.0,0.09405142499999997,39.0,0.10610929999999996
18519,34.0,0.09726685833333093,40.0,0.10610929999999996
18520,39.0,0.098070716666669,43.0,0.10610929999999996
18521,41.0,0.08922827499999997,44.0,0.10610929999999996
18522,42.0,0.09726685833333093,47.0,0.10610929999999996
18523,41.0,0.10128614999999996,44.0,0.10610929999999996
18524,39.0,0.095659141666669,43.0,0.10610929999999996
18525,34.0,0.09324756666666545,41.0,0.10610929999999996
18526,30.0,0.09485528333333448,39.0,0.10610929999999996
18527,29.0,0.09726685833333093,37.0,0.10610929999999996
18528,27.0,0.100482291666669,35.0,0.10610929999999996
18529,22.0,0.09405142499999997,33.0,0.09646299999999997
18530,15.0,0.09646299999999997,31.0,0.10610929999999996
18531,22.0,0.09726685833333448,35.0,0.10610929999999996
18532,27.0,0.09887457499999641,39.0,0.10610929999999996
18533,29.0,0.09726685833333448,43.0,0.10610929999999996
18534,30.0,0.09646299999999997,45.0,0.10610929999999996
18535,29.0,0.09405142499999997,42.0,0.10610929999999996
18536,27.0,0.09726685833333448,39.0,0.10610929999999996
18537,22.0,0.09807071666666545,35.0,0.09646299999999997
18538,15.0,0.09726685833333448,32.0,0.10610929999999996
18539,22.0,0.09003213333333449,34.0,0.10639660000000006
18540,27.0,0.10051820416666502,37.0,0.1121968750000022
18541,29.0,0.09909295833333687,40.0,0.12522613541666772
18542,63.0,0.0008397708333305332,67.0,0.12337010416666772
18543,30.0,0.11037731249999894,44.0,0.1339277812500015
18544,65.0,0.0028301875000025234,67.0,0.3769648541666655
18545,29.0,0.11788620833333141,44.0,0.13414637500000026
18546,27.0,0.1300813333333366,42.0,0.13566397499999994
18547,22.0,0.11280490624999828,38.0,0.13285899999999629
18548,66.0,0.005081302083333128,68.0,0.13333324999999974
18549,15.0,0.13222213958333384,31.0,0.1124739020833303
18550,66.0,0.0011111104166658947,79.0,0.8033267500000179
18551,22.0,0.1028882083333329,33.0,0.11171267708333232
18552,27.0,0.09904377083333316,35.0,0.1112022083333386
18553,29.0,0.10365186458334108,36.0,0.11058964375000357
18554,30.0,0.09721171041666565,39.0,0.1102313625000022
18555,34.0,0.10106469583333677,40.0,0.10972331250000167
18556,39.0,0.09812290833333748,42.0,0.1091514250000003
18557,41.0,0.10502600833333986,43.0,0.10861267708332889
18558,42.0,0.09302810833332842,47.0,0.10820760833333765
18559,41.0,0.10001087916666762,46.0,0.10819682500000027
18560,39.0,0.10245911458333268,44.0,0.10973935625000308
18561,58.0,0.09590173125000234,56.0,0.11070099999999883
18562,34.0,0.003690033333334952,43.0,0.12288396666666301
18563,58.0,0.10701096666666388,56.0,0.3571425000000019
18564,30.0,0.002976187500003391,41.0,0.13095225
18565,29.0,0.11904749999999353,39.0,0.13095225
18566,27.0,0.11706337500000075,38.0,0.13165376250000094
18567,22.0,0.11607131250000435,36.0,0.12541507499999938
18568,58.0,0.0019841249999998922,56.0,0.12552300000000116
18569,59.0,0.12552300000000116,66.0,0.8421060000000011
18570,15.0,0.0035087750000002416,38.0,0.11578957500000087
18571,22.0,0.09912289374999972,41.0,0.11578957500000087
18572,27.0,0.11140360625000056,43.0,0.11578957500000087
18573,29.0,0.09912289374999972,47.0,0.11578957500000087
18574,30.0,0.10526325000000014,50.0,0.11578957500000087
18575,29.0,0.10789483125000032,47.0,0.11578957500000087
18576,27.0,0.10964921875000044,45.0,0.11578957500000087
18577,22.0,0.09649131249999954,43.0,0.10526325000000014
18578,15.0,0.10526325000000014,41.0,0.11578957500000087
18579,58.0,0.004385968750000302,56.0,0.21052650000000028
18580,22.0,0.10526325000000014,43.0,0.11635217500000294
18581,27.0,0.10438605625000008,44.0,0.1219312916666695
18582,29.0,0.10807013541666777,49.0,0.12247260833333229
18583,63.0,0.003696308333331899,79.0,0.12074806249999881
18584,30.0,0.10811701875000068,51.0,0.12995091250000002
18585,65.0,0.0027722312499989243,92.0,0.36532610416666955
18586,29.0,0.12224927500000149,51.0,0.13013632499999517
18587,27.0,0.11140458124999952,49.0,0.1306313624999973
18588,22.0,0.11731986875000189,47.0,0.12468623333332829
18589,66.0,0.003943524999996839,101.0,0.12490625000000222
18590,15.0,0.12074270833333145,47.0,0.11261529166667117
18591,66.0,0.004163541666670767,107.0,0.8030708333333365
18592,22.0,0.10591796874999915,47.0,0.11143803125000318
18593,27.0,0.092905312500001,48.0,0.11099254166666839
18594,29.0,0.10092541666666932,50.0,0.11060648124999517
18595,30.0,0.1005730312499935,51.0,0.11023693750000518
18596,34.0,0.1027369375000049,51.0,0.10975081250000329
18597,39.0,0.10559798958333744,54.0,0.10936777500000261
18598,41.0,0.0944671124999985,55.0,0.10899312083333257
18599,42.0,0.0991219812500006,57.0,0.10855538958333
18600,41.0,0.1036211770833333,55.0,0.10855267499999854
18601,39.0,0.0978618812499974,55.0,0.10952904166666855
18602,58.0,0.0953947750000026,81.0,0.11750124999999656
18603,58.0,0.10600699999999819,81.0,0.34482750000000095
18604,30.0,0.003831416666663756,51.0,0.12643675000000343
18605,29.0,0.11302679166666962,50.0,0.12643675000000343
18606,27.0,0.11206893749999836,48.0,0.1269445375000018
18607,22.0,0.11302679166666962,47.0,0.12034351249999986
18608,58.0,0.0028735624999995935,83.0,0.12048200000000264
18609,15.0,0.11546191666666772,57.0,0.11730831250000051
18610,60.0,0.005020083333334924,95.0,1.6432163750000086
18611,22.0,0.10611233333333558,48.0,0.11603135000000009
18612,27.0,0.10989703125000005,50.0,0.11534010624999524
18613,29.0,0.09966969999999975,51.0,0.11466414999999586
18614,30.0,0.10254979999999847,54.0,0.11400498958332861
18615,29.0,0.10711082291666685,52.0,0.11334415208333581
18616,27.0,0.09964645208333422,51.0,0.11273586666666802
18617,20.0,0.10508123541666947,49.0,0.10189900000000307
18618,15.0,0.10612426041667078,57.0,0.11154687500000193
18619,22.0,0.09633593750000102,49.0,0.11154687499999483
18620,27.0,0.1056315104166643,51.0,0.11154687500000193
18621,29.0,0.09380078125000324,53.0,0.11154687499999483
18622,30.0,0.10985677083333201,55.0,0.11154687499999483
18623,29.0,0.09802604166666384,54.0,0.11154687500000193
18624,27.0,0.10309635416666652,53.0,0.11154687500000193
18625,20.0,0.0988710937499988,51.0,0.1014062500000037
18626,17.0,0.09802604166667095,73.0,0.1126100749999992
18627,61.0,0.003380208333332746,77.0,0.6144180000000006
18628,25.0,0.09984292499999725,42.0,0.112643300000002
18629,26.0,0.10410971666667024,42.0,0.112643300000002
18630,25.0,0.09898956666666692,41.0,0.10240300000000246
18631,37.0,0.1058164333333309,57.0,0.112643300000002
18632,25.0,0.09898956666666692,44.0,0.112643300000002
18633,61.0,0.10666979166666835,80.0,0.40961200000000275
18634,26.0,0.0017067166666677736,44.0,0.1126432999999949
18635,25.0,0.10410971666666313,43.0,0.10240300000000246
18636,18.0,0.09472277500000104,72.0,0.112643300000002
18637,25.0,0.10922986666666645,46.0,0.112643300000002
18638,61.0,0.09984292500000436,84.0,0.40961199999999565
18639,26.0,0.0017067166666606681,47.0,0.112643300000002
18640,25.0,0.10240300000000246,47.0,0.10240300000000246
18641,37.0,0.1032563583333328,63.0,0.112643300000002
18642,25.0,0.09984292499999725,49.0,0.112643300000002
18643,62.0,0.10240300000000246,87.0,0.40961200000000275
18644,26.0,0.0017067166666677736,49.0,0.112643300000002
18645,25.0,0.09728284999999914,49.0,0.10240300000000246
18646,19.0,0.10752314999999868,77.0,0.112643300000002
18647,25.0,0.1032563583333328,52.0,0.112643300000002
18648,63.0,0.09984292500000436,90.0,0.40961199999999565
18649,27.0,0.0025600749999981076,52.0,0.112643300000002
18650,25.0,0.09557613333333137,51.0,0.10240300000000246
18651,37.0,0.11008322500000389,63.0,0.1126432999999949
18652,25.0,0.10069628333333469,54.0,0.1126432999999949
18653,64.0,0.10069628333332759,93.0,0.40961200000000275
18654,27.0,0.0017067166666677736,54.0,0.112643300000002
18655,25.0,0.09642949166666881,56.0,0.10240300000000246
18656,20.0,0.10752314999999868,84.0,0.112643300000002
18657,25.0,0.1058164333333309,57.0,0.11283600208333411
18658,37.0,0.0938694166666707,57.0,0.11416063541666688
18659,65.0,0.004266791666665881,97.0,0.21680408333333645
18660,25.0,0.10208568750000069,57.0,0.10427344583333564
18661,21.0,0.10253262083333681,73.0,0.11518029999999158
18662,66.0,0.0034816499999976713,99.0,0.21875908333333172
18663,25.0,0.10906965624999287,60.0,0.11584446875000509
18664,67.0,0.1008965104166677,101.0,0.2207478750000078
18665,37.0,0.0008792916666706674,60.0,0.116283979166667
18666,25.0,0.10304991666667007,59.0,0.10621950833333216
18667,68.0,0.10799595833333342,107.0,0.8601141250000168
18668,18.0,0.11895919999999904,74.0,0.12361704166666954
18669,23.0,0.10501866874999877,75.0,0.11840068125000158
18670,61.0,0.0027881062500014764,92.0,0.11857700000000193
18671,62.0,0.11857700000000193,99.0,0.4195800000000034
18672,44.0,0.10664324999999764,73.0,0.11538450000000466
18673,36.0,0.10227262500000478,73.0,0.11538449999999756
18674,37.0,0.10751737500000047,71.0,0.11513223749999923
18675,38.0,0.09877612500000055,72.0,0.11309611875000058
18676,61.0,0.004370624999999961,99.0,0.821862000000003
18677,37.0,0.09845221874999766,69.0,0.11300602500000423
18678,35.0,0.10273275000000126,71.0,0.11300602500000423
18679,33.0,0.10273275000000126,69.0,0.11300602499999712
18680,32.0,0.105301068750002,68.0,0.11300602499999712
18681,30.0,0.10273275000000126,67.0,0.11300602499999712
18682,29.0,0.10615717499999988,67.0,0.11300602499999712
18683,26.0,0.09759611249999978,66.0,0.11425434166666548
18684,24.0,0.1053010687499949,64.0,0.1334472104166693
18685,61.0,0.0008561062500049843,102.0,0.36437250000000176
18686,25.0,0.11639677083333311,63.0,0.13360325000000017
18687,20.0,0.12854252083333506,63.0,0.1348516999999987
18688,63.0,0.1194332083333336,102.0,0.13215850000000273
18689,25.0,0.0022026416666633963,62.0,0.13184265000000295
18690,19.0,0.12665189583333358,60.0,0.05707752500000396
18691,64.0,0.0033039625000057526,106.0,0.45282999999999873
18692,46.0,0.11509429166666507,57.0,0.12452825000000445
18693,38.0,0.11226410416666965,57.0,0.12452824999999734
18694,39.0,0.11415089583333327,56.0,0.12330619583332947
18695,63.0,0.11132070833333074,97.0,0.4097653749999992
18696,39.0,0.09930832500000264,59.0,0.11281916666666802
18697,37.0,0.10599229999999693,59.0,0.11260917500000289
18698,35.0,0.09813620833333658,57.0,0.11228214375000078
18699,34.0,0.11058111458333286,57.0,0.11205906250000197
18700,32.0,0.09764642708333326,57.0,0.1118768750000001
18701,31.0,0.10596151041666957,57.0,0.11154687500000193
18702,34.0,0.09971614583333377,55.0,0.11101221874999823
18703,32.0,0.09844234375000127,56.0,0.11004564999999644
18704,31.0,0.10174550416666506,56.0,0.10905324166667185
18705,28.0,0.0991631000000055,55.0,0.10821940833332633
18706,27.0,0.09597515208332652,52.0,0.10708550833333419
18707,26.0,0.0974904937500014,55.0,0.10544176458333254
18708,27.0,0.09266219791665975,55.0,0.10543142500000613
18709,28.0,0.10223653333333971,57.0,0.10543142499999902
18710,27.0,0.09025568958332997,55.0,0.10543142499999902
18711,25.0,0.0950480270833367,57.0,0.10543142499999902
18712,23.0,0.09824291874999602,59.0,0.10543142499999902
18713,22.0,0.09984036458333634,60.0,0.10543142499999902
18714,20.0,0.09105441250000013,62.0,0.10543142499999902
18715,19.0,0.09664547291666281,63.0,0.11581482291666845
18716,16.0,0.09744419583333297,63.0,0.11581482291666845
18717,15.0,0.09185313541667028,67.0,0.11578938541666162
18718,14.0,0.09904164166666618,67.0,0.1158707354166566
18719,15.0,0.09628978541665845,71.0,0.11858409375000178
18720,13.0,0.0988796437500028,70.0,0.1194430520833265
18721,11.0,0.10043982916666039,74.0,0.12028831874999923
18722,10.0,0.0961533979166731,73.0,0.10015084999999146
18723,8.0,0.0993139458333232,76.0,0.11282905833333956
18724,71.0,0.001673808333336524,104.0,0.8067770416666846
18725,15.0,0.10603580000000079,63.0,0.11230319999999949
18726,20.0,0.10298115833333554,63.0,0.1117012187499995
18727,22.0,0.09818771874999754,63.0,0.11118520833333889
18728,23.0,0.10447379166667048,63.0,0.11057841875000207
18729,27.0,0.09218376041666687,64.0,0.11010605625001091
18730,32.0,0.1051226687500062,68.0,0.10948877500000265
18731,34.0,0.10203844375000415,68.0,0.10964260000000081
18732,35.0,0.09493133125000242,72.0,0.11453773750000096
18733,68.0,0.0008223687500006349,95.0,0.4166669999999968
18734,39.0,0.10243063749999948,75.0,0.1145834249999993
18735,44.0,0.10416674999999742,76.0,0.1145834250000064
18736,46.0,0.1015625812500005,77.0,0.11473478541666537
18737,63.0,0.10850703124999939,92.0,0.42704599999999715
18738,47.0,0.0008896791666685999,79.0,0.1174376499999994
18739,46.0,0.10498214166666742,77.0,0.1174376499999994
18740,44.0,0.10320278333333022,71.0,0.1174376499999994
18741,39.0,0.10676149999999751,67.0,0.10676150000000462
18742,61.0,0.1112098958333334,95.0,1.2223299999999924
18743,44.0,0.10616440833333485,63.0,0.11301372500000184
18744,40.0,0.10359591458333028,62.0,0.11301372500000184
18745,35.0,0.09760276250000288,61.0,0.11301372500000184
18746,32.0,0.10616440833333485,59.0,0.11301372499999474
18747,28.0,0.10102742083333283,57.0,0.11301372499999474
18748,23.0,0.10445207916666277,57.0,0.11301372500000184
18749,20.0,0.10359591458333739,56.0,0.10266270833332669
18750,59.0,0.09931509166666075,77.0,0.40041199999999577
18751,16.0,0.000836904166668262,55.0,0.1322308583333296
18752,11.0,0.10042849999999959,54.0,0.1319050958333321
18753,16.0,0.09520176249999679,55.0,0.13160397083333208
18754,20.0,0.10665884583332996,52.0,0.1196651624999987
18755,16.0,0.09728598750000117,55.0,0.1309596166666651
18756,11.0,0.10029185833333543,54.0,0.13064649791666483
18757,16.0,0.0992498687500003,55.0,0.13033749166666553
18758,20.0,0.09904013749999763,53.0,0.09879776458333822
18759,71.0,0.09795821875000144,92.0,0.805964000000003
18760,8.0,0.0025186375000032513,55.0,0.11082004999999384
18761,15.0,0.09990595416666537,53.0,0.11082005000000095
18762,20.0,0.09738731666666212,55.0,0.11082005000000095
18763,22.0,0.09822686250000601,53.0,0.11082004999999384
18764,23.0,0.10242459166666151,56.0,0.11082005000000095
18765,27.0,0.10158504583333183,57.0,0.11082005000000095
18766,32.0,0.09990595416667247,57.0,0.11082005000000095
18767,34.0,0.10578277499999444,57.0,0.11138476875000691
18768,35.0,0.09738731666666922,59.0,0.11575192708333759
18769,68.0,0.0008395458333367856,87.0,0.42105300000000057
18770,39.0,0.10877202500000038,57.0,0.11578957500000087
18771,44.0,0.09824569999999966,59.0,0.11578957500000087
18772,46.0,0.1105264125000005,57.0,0.11609880000000317
18773,63.0,0.10350886250000002,87.0,0.43165499999999923
18774,47.0,0.0008992812499997171,60.0,0.11870512499999819
18775,46.0,0.11061159375000074,63.0,0.11870512499999819
18776,44.0,0.10161878124999646,60.0,0.1187051250000053
18777,39.0,0.11061159375000074,57.0,0.10791375000000158
18778,63.0,0.10791375000000158,94.0,1.192296666666678
18779,41.0,0.0033581833333329314,59.0,0.11082005000000095
18780,44.0,0.09990595416667247,57.0,0.1102014458333258
18781,41.0,0.10185977916665934,59.0,0.10985173749999433
18782,39.0,0.09322165416666905,57.0,0.1095759874999942
18783,35.0,0.10543169583333167,59.0,0.10926194999998984
18784,32.0,0.09852099791666546,59.0,0.10897053749999941
18785,29.0,0.10073439166666276,59.0,0.108672995833345
18786,27.0,0.09799975208333933,57.0,0.10833317500001272
18787,23.0,0.09851192500001105,57.0,0.10817830000000583
18788,20.0,0.09586301874999492,57.0,0.10864985000000615
18789,17.0,0.09543805416666373,57.0,0.10918306874999928
18790,15.0,0.10255220208333071,55.0,0.1109360833333426
18791,11.0,0.09639655833333904,57.0,0.12194682500000908
18792,62.0,0.0025025000000056252,82.0,0.3333329999999961
18793,15.0,0.10833322499999554,61.0,0.12222210000000189
18794,17.0,0.11666655000000503,65.0,0.12321416249999118
18795,63.0,0.10833322499999554,93.0,0.11904749999999353
18796,23.0,0.0029761874999962856,68.0,0.11915773124999873
18797,10.0,0.11210306249999746,79.0,0.24676652499999818
18798,65.0,0.0039682499999997844,102.0,0.7888190833333368
18799,22.0,0.002057612499996253,79.0,0.24635289166667462
18800,47.0,0.24485588750000886,73.0,0.09880227499999705
18801,46.0,0.08607773958333098,72.0,0.09899784374999854
18802,44.0,0.095994843750006,79.0,0.09922343750000095
18803,41.0,0.09094029999999975,72.0,0.09947954999999808
18804,42.0,0.0843737999999945,72.0,0.09969795000000659
18805,41.0,0.0921450750000048,69.0,0.09994957499999657
18806,38.0,0.0931314000000043,79.0,0.10016810416666999
18807,34.0,0.09028967499999396,72.0,0.10042451666666352
18808,35.0,0.09356475416666399,72.0,0.10064478749998784
18809,34.0,0.08689032499999882,70.0,0.10091031249999105
18810,32.0,0.09632316249999917,79.0,0.10114015416667144
18811,29.0,0.09347144583333034,71.0,0.10140870208333297
18812,30.0,0.08448561458332904,71.0,0.1016025937500018
18813,29.0,0.0977445729166675,70.0,0.10188520416666336
18814,26.0,0.09259727916666805,79.0,0.10216717499999106
18815,22.0,0.0882352874999981,70.0,0.10216717499999106
18816,23.0,0.09210525624999377,71.0,0.10216717500000527
18817,22.0,0.09520123125000168,69.0,0.10216717500000527
18818,20.0,0.09597522500000366,79.0,0.10216717500000527
18819,17.0,0.0944272374999997,70.0,0.10216717500000527
18820,18.0,0.09055726875000403,71.0,0.10216717499999106
18821,17.0,0.0913312624999918,68.0,0.09287925000000996
18822,15.0,0.09604941249999399,79.0,0.12619822083333077
18823,10.0,0.09105441250000013,69.0,0.12619822083333077
18824,15.0,0.09984036458334344,72.0,0.12619822083333077
18825,10.0,0.09185313541665607,71.0,0.13729422083333986
18826,15.0,0.09752550000000326,75.0,0.16688747083333055
18827,59.0,0.0026924187500014796,103.0,0.38135624999999607
18828,10.0,0.1324153645833377,76.0,0.16737302083332395
18829,15.0,0.11970348958332977,77.0,0.18513804583332671
18830,10.0,0.12394078124999908,76.0,0.181890810416661
18831,58.0,0.005296614583329529,97.0,0.18106263333332606
18832,68.0,0.18106263333332606,107.0,0.7674695833333374
18833,14.0,0.0028195499999981166,79.0,0.11278199999999572
18834,47.0,0.21898505000000057,71.0,0.0995676666666725
18835,46.0,0.08983713958333794,71.0,0.09899784374999854
18836,44.0,0.08998884375000671,79.0,0.0992053374999955
18837,41.0,0.09242822499999193,72.0,0.09946590000001265
18838,42.0,0.09342360000000838,72.0,0.09969794999999237
18839,41.0,0.08761334999999804,71.0,0.09994957499999657
18840,38.0,0.09161625000000129,79.0,0.1001634958333284
18841,34.0,0.09104494583333178,71.0,0.10042219999999702
18842,35.0,0.08822706666666136,71.0,0.10062615416666176
18843,34.0,0.09527447916666176,69.0,0.1009173000000061
18844,32.0,0.09327204999999594,79.0,0.10113780833334829
18845,29.0,0.08886787500000537,72.0,0.1013921791666661
18846,30.0,0.09523832916666208,72.0,0.10161920416666703
18847,29.0,0.09390316249999842,71.0,0.10188998333333643
18848,26.0,0.08950608333333321,79.0,0.10216717500000527
18849,22.0,0.09365324374999773,71.0,0.10216717500000527
18850,23.0,0.0882352874999981,71.0,0.10216717500000527
18851,22.0,0.09674921875000564,70.0,0.10216717500000527
18852,20.0,0.09055726875000403,79.0,0.10216717499999106
18853,17.0,0.0944272374999997,71.0,0.10252421666666578
18854,18.0,0.09687905208333802,71.0,0.1064516749999882
18855,17.0,0.09354844166665544,70.0,0.10645167500000241
18856,15.0,0.09274198958333102,79.0,0.10645167500000241
18857,10.0,0.10161296250001328,71.0,0.1064516749999882
18858,15.0,0.09758070208332015,73.0,0.10645167500000241
18859,10.0,0.09758070208333436,74.0,0.11089498958334332
18860,59.0,0.0949375520833371,95.0,0.382978499999993
18861,15.0,0.004255316666672115,76.0,0.14042544999999507
18862,10.0,0.12765949999999293,76.0,0.14042544999999507
18863,15.0,0.12127652499999897,79.0,0.14484740833333376
18864,58.0,0.129787158333329,92.0,0.17228829999999107
18865,10.0,0.006024100000004751,79.0,0.16968862499999204
18866,70.0,0.16626419999998632,108.0,0.20546550000000252
18867,71.0,0.20696250416666828,87.0,0.09880227499999705
18868,58.0,0.08682624166667097,71.0,0.09904954583332426
18869,70.0,0.0037425104166572964,80.0,0.0990607854166683
18870,56.0,0.08855028541667309,79.0,0.09930941249999137
18871,68.0,0.0022522499999979573,87.0,0.09931619999998986
18872,53.0,0.08576197499998273,71.0,0.09955690000001027
18873,65.0,0.0037650625000082982,77.0,0.09956827500000998
18874,54.0,0.08899424999999894,71.0,0.09981918750000318
18875,66.0,0.002265862500010485,77.0,0.09982604999999012
18876,53.0,0.08921999999999741,70.0,0.10007824166666524
18877,65.0,0.0015151499999888074,76.0,0.10008285000000683
18878,50.0,0.0856451458333396,79.0,0.10032489999998973
18879,62.0,0.006079033333335815,87.0,0.10034343333332174
18880,58.0,0.08738610416665438,77.0,0.10060984999999789
18881,46.0,0.0007621958333317025,70.0,0.10060984999999789
18882,59.0,0.08993910833333985,77.0,0.10086838750000027
18883,47.0,0.0007621958333317025,70.0,0.10087071666666247
18884,58.0,0.08863831666666044,76.0,0.10112373333333835
18885,46.0,0.00688072500000203,69.0,0.10114484583333194
18886,56.0,0.08657429999999522,87.0,0.1013921791666661
18887,44.0,0.0030674833333392826,79.0,0.10140162083332882
18888,41.0,0.09294007708332686,71.0,0.10166903541666272
18889,53.0,0.0007692312500040543,77.0,0.10167140833333121
18890,54.0,0.08855413749999741,77.0,0.10192582708333475
18891,42.0,0.001543208333330881,71.0,0.10193060624999362
18892,53.0,0.08877271250000263,76.0,0.10218640833333836
18893,41.0,0.0023219812499917225,69.0,0.10219362083334715
18894,50.0,0.08978327500000205,87.0,0.10247250416666986
18895,38.0,0.006199162500010402,79.0,0.10248452499999416
18896,46.0,0.09239135208333948,77.0,0.10248452499999416
18897,34.0,0.0007763979166668378,71.0,0.10248452499999416
18898,47.0,0.09316774999999211,77.0,0.10248452499999416
18899,35.0,0.0015527958333336755,71.0,0.10248452499999416
18900,46.0,0.08540377083333794,76.0,0.10248452499999416
18901,34.0,0.0015527958333336755,69.0,0.10248452499999416
18902,44.0,0.09161495416665844,87.0,0.10248452500000838
18903,32.0,0.004658387500001027,79.0,0.10248452500000838
18904,41.0,0.09161495416667265,77.0,0.10248452499999416
18905,29.0,0.004658387500001027,71.0,0.10248452499999416
18906,30.0,0.09006215833332476,71.0,0.10248452500000838
18907,42.0,0.0007763979166668378,77.0,0.10248452500000838
18908,41.0,0.09394414791667316,76.0,0.10248452499999416
18909,29.0,0.0015527958333336755,69.0,0.10248452499999416
18910,38.0,0.08618016874999057,87.0,0.10248452500000838
18911,26.0,0.003105591666667351,79.0,0.10248452500000838
18912,34.0,0.09006215833333897,77.0,0.10248452499999416
18913,22.0,0.003105591666667351,71.0,0.10248452499999416
18914,35.0,0.08928576041667213,77.0,0.10248452499999416
18915,23.0,0.003105591666667351,71.0,0.10248452499999416
18916,34.0,0.09239135208332527,76.0,0.10248452500000838
18917,22.0,0.004658387500001027,69.0,0.10248452499999416
18918,32.0,0.08618016875000478,87.0,0.10248452499999416
18919,20.0,0.007763979166668378,79.0,0.10248452499999416
18920,17.0,0.08695656666665741,71.0,0.10248452500000838
18921,29.0,0.006211183333334702,77.0,0.10248452500000838
18922,18.0,0.08695656666667162,71.0,0.10248452499999416
18923,30.0,0.003881989583334189,76.0,0.10248452499999416
18924,29.0,0.08773296458332425,76.0,0.10248452500000838
18925,17.0,0.0015527958333336755,69.0,0.10248452500000838
18926,15.0,0.09782613750000735,69.0,0.10248452499999416
18927,27.0,0.0015527958333336755,76.0,0.10248452499999416
18928,26.0,0.0908385562499916,76.0,0.09311195833333841
18929,14.0,0.0023291937500005133,65.0,0.09302827083334364
18930,34.0,0.0885093625000053,77.0,0.0989448145833336
18931,22.0,0.0015249000000068236,69.0,0.09892141458333015
18932,32.0,0.08540791458332819,76.0,0.09940251250000642
18933,30.0,0.09184963750000463,74.0,0.0999222750000115
18934,18.0,0.003776437500008001,67.0,0.0999452333333295
18935,17.0,0.08551905000000204,66.0,0.10044774583333549
18936,29.0,0.0030302999999918256,73.0,0.10046622916667047
18937,18.0,0.09284427083333924,65.0,0.10099737500000572
18938,30.0,0.0007621958333317025,72.0,0.10100205000000528
18939,17.0,0.09026585833333911,64.0,0.1021292166666683
18940,29.0,0.002300612499993804,71.0,0.1022957104166835
18941,27.0,0.08610215833334678,69.0,0.10829885208333678
18942,15.0,0.003086416666661762,63.0,0.10850191041667756
18943,14.0,0.0953440104166674,62.0,0.10806718125000714
18944,26.0,0.007401318749998609,69.0,0.09840682499999787
18945,37.0,0.09210530000000006,74.0,0.09978427500000464
18946,25.0,0.007054537499996627,68.0,0.09952732500001105
18947,23.0,0.08366628750000871,67.0,0.09991768333334505
18948,35.0,0.003776437500008001,73.0,0.09994064166666305
18949,34.0,0.09082209166666644,73.0,0.10042683333333002
18950,20.0,0.08670730833333096,65.0,0.1008289083333267
18951,32.0,0.007621958333331236,72.0,0.10087565833332235
18952,22.0,0.08478075416667252,64.0,0.10133086666665747
18953,34.0,0.0030580999999898495,72.0,0.10134969166666963
18954,32.0,0.08981122291666566,71.0,0.10220601250000527
18955,58.0,0.10293921250000437,54.0,0.1044567499999971
18956,34.0,0.0008704729166737479,59.0,0.116038381249993
18957,30.0,0.09923391249999725,56.0,0.1259998437499945
18958,58.0,0.004352364583326107,60.0,0.34482749999999385
18959,29.0,0.11494249999999795,53.0,0.12643674999999632
18960,27.0,0.11781606249999754,51.0,0.12775931250000383
18961,58.0,0.11206893749999836,73.0,0.12552300000000116
18962,22.0,0.0020920500000016773,49.0,0.1251954916666591
18963,15.0,0.1182008250000024,51.0,0.11713849999999582
18964,60.0,0.005230124999997088,82.0,1.3331139999999948
18965,21.0,0.10839120833333027,52.0,0.11568244791666871
18966,27.0,0.1034549354166785,55.0,0.11507034374999137
18967,29.0,0.10810704374999602,56.0,0.11439810624999325
18968,30.0,0.1031570874999943,57.0,0.11375877499999376
18969,29.0,0.1025919374999944,54.0,0.11317025625000099
18970,27.0,0.09861645000000863,55.0,0.11256156666667039
18971,21.0,0.10320590624999681,54.0,0.10179521249999368
18972,15.0,0.10264026458332864,53.0,0.11145940833333157
18973,21.0,0.09713998958332581,54.0,0.11105574791666584
18974,27.0,0.10685801875000323,55.0,0.11062456666667231
18975,29.0,0.09472338749999665,57.0,0.11023318750001465
18976,30.0,0.10689652083334522,59.0,0.1097641249999981
18977,29.0,0.09981782500000236,57.0,0.110035675000006
18978,27.0,0.09444511875000217,57.0,0.1152408062500001
18979,48.0,0.054926181249996375,85.0,0.3083493749999917
18980,21.0,0.04895100000000241,56.0,0.10489499999999907
18981,53.0,0.003496499999997127,85.0,0.2559018749999922
18982,60.0,0.052447499999999536,87.0,0.20345437499999264
18983,14.0,0.04807687500000668,55.0,0.11091436458332282
18984,65.0,0.004370624999992856,95.0,0.1510068749999931
18985,26.0,0.1023491041666631,55.0,0.11073837499999684
18986,29.0,0.09479876041666557,56.0,0.11073837500001105
18987,34.0,0.10318803124999931,55.0,0.11079962500001272
18988,58.0,0.10234910416667731,104.0,0.40562500000000057
18989,41.0,0.0016901041666699257,57.0,0.11154687500000193
18990,34.0,0.10225130208333155,55.0,0.11154687500000193
18991,29.0,0.09802604166667095,55.0,0.11154687499998772
18992,26.0,0.10647656249999216,54.0,0.10140624999999659
18993,13.0,0.09802604166667095,55.0,0.11154687500000193
18994,25.0,0.0988710937499917,54.0,0.11154687500000193
18995,58.0,0.035492187500011596,76.0,0.13520833333332405
18996,28.0,0.06760416666665492,55.0,0.11154687500000193
18997,58.0,0.06760416666666913,73.0,0.13520833333333826
18998,34.0,0.03718229166666731,55.0,0.111907208333335
18999,40.0,0.09380078124999613,56.0,0.11440702083334031
19000,58.0,0.004225260416674814,76.0,0.138811666666669
19001,34.0,0.10063845833333573,53.0,0.11451962499999979
19002,59.0,0.038173208333333264,73.0,0.138811666666669
19003,28.0,0.06593554166666138,55.0,0.11451962499999979
19004,25.0,0.10410875000000885,50.0,0.10410874999999464
19005,58.0,0.038173208333333264,76.0,0.0694058333333345
19006,58.0,0.0694058333333345,82.0,0.1150849375000007
19007,12.0,0.004426343749997841,55.0,0.11685547500000837
19008,24.0,0.10003536874999952,55.0,0.11688503749999768
19009,63.0,0.0017705375000076629,76.0,0.10623224999999081
19010,27.0,0.10534698124999409,56.0,0.11724274374999766
19011,32.0,0.11013694374999261,55.0,0.11676391874999581
19012,39.0,0.0994811999999996,57.0,0.11316661875000023
19013,56.0,0.004441124999999602,91.0,0.41093100000000504
19014,32.0,0.1053010687499949,54.0,0.11300602500000423
19015,27.0,0.09759611249999978,56.0,0.11300602500000423
19016,24.0,0.10872549375000062,55.0,0.1028374083333432
19017,11.0,0.0967400062500019,55.0,0.11638125625000839
19018,23.0,0.10579400625000801,55.0,0.11668094374999782
19019,56.0,0.03793764583333825,74.0,0.14312949999998636
19020,27.0,0.06793485416666556,56.0,0.11963019374998396
19021,56.0,0.0751946458333208,72.0,0.14509566666666274
19022,32.0,0.033553372916671265,57.0,0.12048293124999532
19023,55.0,0.11154229374999147,74.0,0.12914254166666694
19024,39.0,0.003973616666669955,54.0,0.13112934999999482
19025,56.0,0.11523488333332921,77.0,0.1313444166666642
19026,32.0,0.003973616666669955,51.0,0.1346523499999961
19027,58.0,0.11523488333332921,81.0,0.10922324999999944
19028,27.0,0.004854366666663168,50.0,0.16019409999999823
19029,23.0,0.14563100000000873,48.0,0.16054894999999192
19030,56.0,0.06467829999999708,79.0,0.07668708333333996
19031,55.0,0.09202449999999374,87.0,0.23076899999999512
19032,10.0,0.0009615375000038284,46.0,0.12692294999999376
19033,22.0,0.1096152749999959,47.0,0.12692294999999376
19034,27.0,0.11634603749999428,48.0,0.12692295000000797
19035,26.0,0.11634603750000849,49.0,0.12462421666666046
19036,28.0,0.11491923749998989,51.0,0.11645975000000419
19037,54.0,0.0017645416666738356,76.0,1.2493575833333352
19038,27.0,0.10499022916665979,53.0,0.11612906250000776
19039,29.0,0.10381897916667526,55.0,0.1157438145833396
19040,28.0,0.11136215833333551,55.0,0.11545247499999789
19041,30.0,0.10235156874999518,56.0,0.11507034374999137
19042,29.0,0.10462539374999835,55.0,0.11480074375000981
19043,31.0,0.10786016041667779,57.0,0.11441309583332782
19044,30.0,0.09971330208331608,55.0,0.1139780666666752
19045,32.0,0.10627311041666587,59.0,0.11300602500000423
19046,31.0,0.10444496250001123,57.0,0.11300602499999002
19047,33.0,0.10273275000000126,61.0,0.11300602499999002
19048,54.0,0.09845221874999766,73.0,0.10273275000000126
19049,32.0,0.0034244249999915155,57.0,0.11300602500000423
19050,54.0,0.09930832500000975,77.0,0.8206963749999971
19051,34.0,0.0034244249999915155,64.0,0.11300602500000423
19052,33.0,0.09588390000000402,60.0,0.11300602500000423
19053,35.0,0.1053010687499949,62.0,0.11300602500000423
19054,34.0,0.10187664375000338,60.0,0.11300602500000423
19055,37.0,0.1010205375000055,63.0,0.11300602499999002
19056,53.0,0.0034244249999915155,76.0,0.4097653750000063
19057,35.0,0.10701328125000487,61.0,0.11279443541666012
19058,34.0,0.10084741874999281,63.0,0.11260064374999956
19059,32.0,0.10154395416667228,60.0,0.1122679249999976
19060,30.0,0.09610814791666655,63.0,0.11208618749999744
19061,29.0,0.10784717708332892,59.0,0.11187137499999267
19062,27.0,0.1025758020833365,60.0,0.11154687500000193
19063,26.0,0.10140624999999659,59.0,0.1113418749999937
19064,23.0,0.10207636874999082,57.0,0.11114170833333503
19065,22.0,0.09433970000000613,53.0,0.11083114166666519
19066,20.0,0.10579386666665869,51.0,0.11062456666667231
19067,17.0,0.0980710041666697,47.0,0.10042849999999248
19068,15.0,0.10292103333333102,41.0,0.10917866249999975
19069,22.0,0.10175291250000384,42.0,0.10870197708332796
19070,27.0,0.09801118333332681,43.0,0.10825100833334034
19071,29.0,0.09108074375001252,44.0,0.10778468333332114
19072,30.0,0.10452735833332838,45.0,0.10729344374999528
19073,34.0,0.09430644374999986,46.0,0.10687516041666356
19074,39.0,0.09395887499999844,47.0,0.10639469583333039
19075,41.0,0.09835611249999943,48.0,0.10588556250000636
19076,42.0,0.09791866874999755,50.0,0.10510075208334513
19077,41.0,0.09315806458333498,49.0,0.10537037499999258
19078,39.0,0.10297420624999631,48.0,0.10573075000000642
19079,34.0,0.0921089687500114,47.0,0.10605775833333553
19080,30.0,0.09399988333332487,47.0,0.10639201875000026
19081,29.0,0.10155330625001113,46.0,0.10675187291666077
19082,27.0,0.09785218541665586,45.0,0.10710075000000074
19083,22.0,0.09167868750000707,44.0,0.09765894374999107
19084,15.0,0.09603028124999469,45.0,0.10782986250001159
19085,22.0,0.10456188750001161,48.0,0.10784317499999929
19086,27.0,0.09313728749999939,51.0,0.10784317499999929
19087,29.0,0.10130722499999933,53.0,0.10784317499999929
19088,30.0,0.09967323749999935,56.0,0.10784317499999929
19089,29.0,0.09885624374999225,53.0,0.10784317499999929
19090,27.0,0.09313728749999939,51.0,0.10784317499999929
19091,22.0,0.09967323749999935,49.0,0.09803924999999936
19092,15.0,0.10279825000000642,47.0,0.12563759999999036
19093,22.0,0.11326419999998905,47.0,0.12591026666666494
19094,62.0,0.03426480000000254,89.0,0.16333975000000578
19095,27.0,0.07808168333333754,51.0,0.12788709999999526
19096,63.0,0.07556964999999138,92.0,0.16560789583334667
19097,29.0,0.035847141666664584,53.0,0.12870143125000766
19098,64.0,0.11916752500000882,95.0,0.18008489583333187
19099,30.0,0.003177968749994875,56.0,0.13983062500000187
19100,29.0,0.12288145833333886,54.0,0.1425009895833398
19101,65.0,0.04343223958333908,105.0,0.1889125000000007
19102,27.0,0.08368651041665487,51.0,0.182969858333351
19103,22.0,0.15857962500001577,48.0,0.17661612499999535
19104,66.0,0.06859753124999202,103.0,0.11603141666667227
19105,66.0,0.11603141666667227,116.0,0.8137941250000011
19106,15.0,0.0008591062500045155,47.0,0.11336378333332675
19107,22.0,0.10137453749999281,43.0,0.11292605625000363
19108,27.0,0.10012743125000156,44.0,0.11248860000000604
19109,29.0,0.10398520416667623,46.0,0.1121007624999919
19110,30.0,0.10701601249999726,47.0,0.11164679166665792
19111,34.0,0.09559951041666181,48.0,0.11123328124999432
19112,39.0,0.10786628124999709,49.0,0.11083717708332586
19113,41.0,0.09321970833333637,50.0,0.1104129999999941
19114,42.0,0.1070796666666638,52.0,0.10999999999999943
19115,41.0,0.10000000000000853,51.0,0.10999999999999943
19116,39.0,0.09583333333333144,51.0,0.11057612499999436
19117,34.0,0.09833333333332916,50.0,0.11730901250000159
19118,58.0,0.0024999999999977263,54.0,0.10628499999999974
19119,58.0,0.10628499999999974,54.0,0.3409604999999942
19120,30.0,0.0009471125000004577,49.0,0.12501885000000357
19121,29.0,0.11365349999999808,48.0,0.12501885000000357
19122,27.0,0.11365349999999808,47.0,0.12501885000000357
19123,22.0,0.11175927499999716,46.0,0.11365350000001229
19124,58.0,0.0009471125000004577,54.0,0.11365350000001229
19125,15.0,0.10891793750001,44.0,0.1173242375000001
19126,59.0,0.004735562500002288,62.0,0.8510639999999938
19127,22.0,0.10992910000000222,46.0,0.11702130000000466
19128,27.0,0.09929079999999146,47.0,0.11702130000000466
19129,29.0,0.10726952500000664,49.0,0.11702130000000466
19130,30.0,0.10726952500000664,51.0,0.11702129999999045
19131,29.0,0.10992909999998801,50.0,0.11702130000000466
19132,27.0,0.10549647500000958,49.0,0.11702129999999045
19133,22.0,0.10992910000000222,48.0,0.10668989583332689
19134,58.0,0.10195037499998705,77.0,0.15166466666666167
19135,15.0,0.0009479041666651256,47.0,0.12512334999999553
19136,22.0,0.11564430833333006,49.0,0.12551897500000564
19137,62.0,0.03507245416666649,77.0,0.16351745833333098
19138,27.0,0.07488442916667282,51.0,0.12857847499999764
19139,63.0,0.0788902375000049,79.0,0.1663178541666639
19140,29.0,0.04286828333331982,54.0,0.1297094833333432
19141,64.0,0.11301638333334552,89.0,0.13621145833333514
19142,30.0,0.0031299562500066713,57.0,0.1385881062499834
19143,29.0,0.11789501874999075,54.0,0.14845299166667303
19144,65.0,0.004173274999999421,92.0,0.14731002083333067
19145,68.0,0.13215850000000273,103.0,0.22121217500000512
19146,22.0,0.18851986458332703,51.0,0.24004179166666972
19147,66.0,0.10908942708333313,88.0,0.11904760416666704
19148,15.0,0.1309523645833366,45.0,0.121626158333342
19149,66.0,0.011904760416669546,110.0,0.8140353750000173
19150,22.0,0.10627312291666158,47.0,0.11346751250000864
19151,27.0,0.09890683125000521,48.0,0.11281500416667711
19152,29.0,0.10769555416668197,49.0,0.11218753333332643
19153,30.0,0.09862819999999317,52.0,0.11156683333334172
19154,34.0,0.10399108333334084,54.0,0.11095573958333205
19155,39.0,0.09417719791666457,55.0,0.11036284374999639
19156,41.0,0.10536284375000093,57.0,0.10976213125000811
19157,42.0,0.0948477187500032,60.0,0.10928527500000484
19158,41.0,0.1051462020833327,56.0,0.10927152499999693
19159,39.0,0.10182119374999843,57.0,0.10927152499999693
19160,58.0,0.09519867708333152,59.0,0.1103267499999987
19161,58.0,0.09933775000000367,61.0,0.329669999999993
19162,30.0,0.0018314999999944348,54.0,0.12087900000000218
19163,29.0,0.10531124999999975,51.0,0.12087900000000218
19164,27.0,0.11630025000000899,51.0,0.12354303333331984
19165,58.0,0.10622699999998986,70.0,0.1298702499999962
19166,22.0,0.002164504166671577,49.0,0.12945399583333028
19167,60.0,0.1277057458333246,82.0,1.652093624999992
19168,15.0,0.000874124999995729,60.0,0.1152839875000069
19169,21.0,0.10134672083333385,47.0,0.11477386875000661
19170,27.0,0.11043358750001175,50.0,0.1142472916666577
19171,29.0,0.10045419166665681,52.0,0.11363902499999767
19172,30.0,0.10590706874999967,53.0,0.11318140000000199
19173,29.0,0.09862660208332841,52.0,0.1126051416666769
19174,27.0,0.09985004791667507,51.0,0.112109406249985
19175,21.0,0.10617719791666502,49.0,0.1014658333333216
19176,15.0,0.10230758333332801,64.0,0.11111099999999396
19177,21.0,0.09932649999998944,55.0,0.11111100000000818
19178,27.0,0.10101000000000226,57.0,0.11111100000000818
19179,29.0,0.09764300000000503,63.0,0.11111099999999396
19180,30.0,0.10353524999999308,64.0,0.11111100000000818
19181,29.0,0.1035352500000073,62.0,0.1114529812499967
19182,27.0,0.10364047499999174,61.0,0.11625872500000867
19183,21.0,0.09982646875000967,59.0,0.11662679375000096
19184,61.0,0.11759955624999918,106.0,0.8761900833333129
19185,16.0,0.004629625000006854,63.0,0.12216401666665888
19186,28.0,0.10555544999999711,64.0,0.1216693749999962
19187,33.0,0.11155909166666333,69.0,0.12114833333332342
19188,35.0,0.10558058333332099,71.0,0.12072194166665895
19189,37.0,0.11889712500000371,77.0,0.12018251666665947
19190,35.0,0.1083643249999966,74.0,0.11968389999998408
19191,33.0,0.1042853354166624,73.0,0.11926767916665426
19192,28.0,0.11114493541666093,67.0,0.10796572916666491
19193,16.0,0.10437505000000158,62.0,0.11809402083333964
19194,59.0,0.0017985624999994343,91.0,0.43436233333335394
19195,28.0,0.10823093333333134,65.0,0.11892335625002204
19196,33.0,0.1071479833333484,69.0,0.11997448333333693
19197,35.0,0.10993799166666918,74.0,0.12103803333333474
19198,37.0,0.10444984166666416,76.0,0.12175414166667053
19199,57.0,0.004595583333340869,91.0,0.3321030000000036
19200,35.0,0.10977849166665976,72.0,0.12177110000000368
19201,33.0,0.10885598333334201,71.0,0.12265220000000454
19202,56.0,0.11346852500000182,91.0,0.12028899999999965
19203,28.0,0.005102041666660284,65.0,0.11974900000001298
19204,56.0,0.11518695833333936,98.0,1.2905059166666888
19205,16.0,0.0036496333333388975,60.0,0.12031849999999622
19206,28.0,0.11031849166666063,63.0,0.11987823124999863
19207,34.0,0.10538546458333542,66.0,0.11939197083333397
19208,37.0,0.10856164583333339,68.0,0.11896154583334351
19209,40.0,0.1027744833333486,70.0,0.11848918958332888
19210,39.0,0.11132072291665907,70.0,0.11805235208333897
19211,37.0,0.10644522083333641,69.0,0.11757108750001066
19212,35.0,0.10867429583333887,68.0,0.10650916666666888
19213,34.0,0.10207654166667623,68.0,0.11670796666666661
19214,55.0,0.00443262499999264,91.0,0.42686679166666863
19215,32.0,0.10961576666666417,68.0,0.11713484999999935
19216,31.0,0.10112062500000718,69.0,0.11766004583331835
19217,28.0,0.11141005208332899,67.0,0.11820956666666405
19218,27.0,0.10921675416666687,66.0,0.11926240208333638
19219,25.0,0.10471693541667548,64.0,0.12059675833333472
19220,23.0,0.1058908916666752,63.0,0.12364015416666518
19221,22.0,0.11174366666666913,62.0,0.13354820833332326
19222,59.0,0.13578034999999034,100.0,0.8635472500000247
19223,14.0,0.0009090916666707471,62.0,0.12000009999999861
19224,26.0,0.11181827499999031,65.0,0.11961802500000829
19225,31.0,0.10240786458334128,67.0,0.11927422083333283
19226,33.0,0.10934642291667274,69.0,0.1189063666666641
19227,35.0,0.11171211666666636,72.0,0.11853108750000274
19228,33.0,0.10957050416666902,73.0,0.11816442500000335
19229,31.0,0.101200156250016,71.0,0.11782843124998976
19230,26.0,0.10714274999999418,67.0,0.10677103125000542
19231,14.0,0.10855038958332841,62.0,0.11702445416668183
19232,57.0,0.0008896791666757053,87.0,0.425532000000004
19233,26.0,0.10992910000000222,67.0,0.11702130000000466
19234,31.0,0.10372342499999831,72.0,0.11702130000000466
19235,33.0,0.10106385000000273,71.0,0.11729710000000182
19236,55.0,0.11081562500000075,87.0,0.3333329999999961
19237,35.0,0.004629625000006854,76.0,0.12222209999998768
19238,33.0,0.10185174999999447,73.0,0.12222210000000189
19239,31.0,0.11666655000000503,74.0,0.12278196666665053
19240,26.0,0.10740729999999132,70.0,0.1161498000000023
19241,54.0,0.002777774999998428,84.0,0.1162790000000058
19242,31.0,0.10379129166666701,54.0,0.11219331666667642
19243,30.0,0.09939469166667436,55.0,0.1128269208333279
19244,32.0,0.10509496458331569,56.0,0.11357088750001765
19245,31.0,0.09632951250000588,54.0,0.11423300208335263
19246,33.0,0.1063932895833517,56.0,0.1149824499999994
19247,32.0,0.10191626249999786,55.0,0.11487469374999648
19248,51.0,0.10714273749999847,67.0,1.2447189999999893
19249,34.0,0.003436425000003851,57.0,0.11340202499999918
19250,33.0,0.09965632499999799,55.0,0.11340202499999918
19251,35.0,0.10137453749999281,57.0,0.11340202499999918
19252,34.0,0.10481096250001087,56.0,0.11340202499999918
19253,37.0,0.10395185624999215,57.0,0.11340202499999918
19254,35.0,0.10051543125000251,54.0,0.11383623333333048
19255,34.0,0.10309275000000184,53.0,0.11904673333333449
19256,50.0,0.00171821249999482,60.0,0.21660649999999748
19257,32.0,0.10469314166667232,50.0,0.11873929166665675
19258,30.0,0.1101083041666584,53.0,0.11272647083333709
19259,53.0,0.001805054166666764,67.0,0.4095559999999949
19260,29.0,0.09982927500000471,48.0,0.11262789999999256
19261,32.0,0.10921493333333387,51.0,0.11262789999999256
19262,30.0,0.10068251666666583,47.0,0.11262789999999256
19263,34.0,0.10238900000000228,52.0,0.11262789999999256
19264,32.0,0.10153575833332695,49.0,0.11262790000000678
19265,30.0,0.10238900000000228,51.0,0.11262789999999256
19266,29.0,0.09812279166666826,47.0,0.11262789999999256
19267,27.0,0.10750844999999742,51.0,0.11262789999999256
19268,26.0,0.09556306666667069,48.0,0.11237541874999124
19269,29.0,0.10812372083331923,53.0,0.1120892375000011
19270,27.0,0.1036146541666767,49.0,0.11186449999999581
19271,25.0,0.09661024999999768,51.0,0.11160668750000013
19272,23.0,0.09893778125000097,50.0,0.11135271875001251
19273,22.0,0.10546046875001025,50.0,0.11111099999999396
19274,21.0,0.09680124999999862,49.0,0.11086540624999941
19275,22.0,0.10834862500000497,49.0,0.11058122500000422
19276,23.0,0.09803941250000037,47.0,0.1103679500000112
19277,20.0,0.09949837916667548,48.0,0.11011150000000214
19278,22.0,0.1009448333333296,46.0,0.10988925000000904
19279,18.0,0.09988925000000393,46.0,0.11044466666666608
19280,20.0,0.102027166666673,44.0,0.11158192708333559
19281,17.0,0.10052751249999403,44.0,0.1127166416666796
19282,18.0,0.10240736666666805,43.0,0.10346698333333393
19283,39.0,0.10173087083333598,71.0,2.397863916666637
19284,40.0,0.21076588124999773,49.0,0.1070247749999993
19285,39.0,0.09810604374999343,48.0,0.10727297500000077
19286,37.0,0.09100539166666977,47.0,0.10748574999999505
19287,34.0,0.10014289375000374,46.0,0.10777472708332425
19288,35.0,0.10122722708332788,45.0,0.10803375000000415
19289,34.0,0.09166499999999189,44.0,0.10830994375000103
19290,31.0,0.10174179375000847,44.0,0.1085587791666569
19291,27.0,0.09538094583332679,43.0,0.10883991250000236
19292,28.0,0.10305632291667166,42.0,0.10909354999999721
19293,27.0,0.09666856874999041,41.0,0.10940140625001504
19294,25.0,0.0977973895833486,40.0,0.1096394874999902
19295,22.0,0.10132444583332756,39.0,0.10994226249999883
19296,23.0,0.1066055958333294,38.0,0.1102112874999932
19297,22.0,0.09598391666666828,37.0,0.11050304999999128
19298,44.0,0.10042849999999248,49.0,1.6066289166666365
19299,20.0,0.0008395458333296801,35.0,0.11082005000001516
19300,15.0,0.09570822499999565,32.0,0.11082005000000095
19301,20.0,0.10410368333333508,35.0,0.11082005000000095
19302,15.0,0.10578277499999444,28.0,0.11082005000000095
19303,20.0,0.09990595416667247,35.0,0.11082005000000095
19304,15.0,0.09570822500000986,31.0,0.11082005000000095
19305,20.0,0.09990595416667247,35.0,0.11082005000000095
19306,15.0,0.10158504583333183,28.0,0.11079363333331571
19307,20.0,0.09822686249998469,35.0,0.11048455833332582
19308,53.0,0.0041977291666626115,55.0,0.8006649166666477
19309,15.0,0.1046130208333409,32.0,0.1104713499999832
19310,20.0,0.09289636249999944,35.0,0.11033994999999663
19311,15.0,0.09949578333333875,30.0,0.11010999999999171
19312,20.0,0.10176833333332524,35.0,0.11010999999999171
19313,15.0,0.10093416666666144,32.0,0.1098171250000064
19314,20.0,0.10399659583333687,35.0,0.10975854999998091
19315,15.0,0.09894899583332517,28.0,0.10995867499997303
19316,55.0,0.09801165833331993,56.0,1.587156916666629
19317,40.0,0.20053920833333905,47.0,0.10668620624997516
19318,39.0,0.09862168541664573,46.0,0.10668400208334106
19319,37.0,0.09616618958332879,45.0,0.10702724999998736
19320,34.0,0.0980986874999985,44.0,0.10737804374997495
19321,35.0,0.10086339374998943,44.0,0.10773933749999287
19322,34.0,0.09385044375000007,44.0,0.10807894166666188
19323,31.0,0.10234123124999428,43.0,0.10844753750001246
19324,27.0,0.09446726875000877,42.0,0.10879155833333698
19325,28.0,0.10136580833332687,41.0,0.10915954374999615
19326,27.0,0.10253702708334345,40.0,0.10953277499999103
19327,25.0,0.09541317708331576,39.0,0.10988371249999318
19328,22.0,0.09738371250000455,38.0,0.11013101250000545
19329,23.0,0.10260592500000598,37.0,0.1105082624999909
19330,22.0,0.1037968458333296,36.0,0.11089081250000277
19331,51.0,0.09910631249999824,50.0,1.6899138333333497
19332,20.0,0.0033669999999972333,35.0,0.11127025000001822
19333,15.0,0.09860134375000484,33.0,0.11163819791664764
19334,20.0,0.10401107291664857,35.0,0.11202585000000909
19335,15.0,0.0941687187500122,30.0,0.11238122291666741
19336,20.0,0.10896825624999451,35.0,0.1127886604166406
19337,15.0,0.10422701458332995,34.0,0.11318140000000199
19338,20.0,0.09943569999998658,35.0,0.11355903750001062
19339,15.0,0.1032142125000064,29.0,0.11439617083337339
19340,44.0,0.10270551458336286,46.0,0.8712150000000065
19341,20.0,0.000899281250013928,35.0,0.11870512499999109
19342,15.0,0.10791374999999448,33.0,0.11870512499999109
19343,20.0,0.10431662499999561,35.0,0.11870512499999109
19344,15.0,0.11510799999999222,31.0,0.11898509375001254
19345,20.0,0.10071949999999674,35.0,0.12082959375001678
19346,53.0,0.0026978437500133623,55.0,0.4395600000000002
19347,15.0,0.10531124999999975,33.0,0.12087900000000218
19348,20.0,0.11172149999998737,35.0,0.12087900000000218
19349,15.0,0.10989000000000715,32.0,0.10989000000000715
19350,55.0,0.1126372500000059,64.0,0.21977999999998588
19351,59.0,0.2152012500000069,81.0,0.09414266666664162
19352,71.0,0.0036629999999888696,89.0,0.09359493333332125
19353,58.0,0.09437374999998838,80.0,0.10325240000000235
19354,70.0,0.0023437499999943157,88.0,0.10325975000000653
19355,67.0,0.08915315000001556,85.0,0.10366756249996456
19356,55.0,0.0031347999999979947,77.0,0.10367741249999085
19357,63.0,0.09660194999997884,84.0,0.1040515833333302
19358,51.0,0.0007861624999918604,76.0,0.10405656041666589
19359,52.0,0.08902989999998567,81.0,0.10455095416668314
19360,64.0,0.000788643750013307,91.0,0.10455596041666126
19361,51.0,0.0966194604166617,77.0,0.10489584583334022
19362,63.0,0.0015873000000112825,87.0,0.1049009041666693
19363,61.0,0.09056967916666281,89.0,0.10534506874998328
19364,49.0,0.004777074999992692,79.0,0.10537568124999552
19365,58.0,0.08936284791667504,87.0,0.10577437291667025
19366,46.0,0.007198739583316183,77.0,0.1058103583333434
19367,59.0,0.09375248333336117,89.0,0.1062467687499975
19368,47.0,0.003215433333338069,84.0,0.10625714374998552
19369,58.0,0.0909345541666653,88.0,0.106686612499999
19370,46.0,0.004838712500003339,81.0,0.10670227500000351
19371,55.0,0.09213914999997996,88.0,0.10679625000000215
19372,43.0,0.0024271875000181353,81.0,0.10679625000000215
19373,39.0,0.09466031249999673,79.0,0.10679625000000215
19374,51.0,0.003236249999986285,87.0,0.10679625000000215
19375,40.0,0.09789656250001144,84.0,0.10679625000000215
19376,52.0,0.0016181249999931424,91.0,0.10679625000000215
19377,39.0,0.08980593750001731,80.0,0.10679625000000215
19378,51.0,0.0008090624999965712,88.0,0.10679625000000215
19379,37.0,0.09951468750000458,80.0,0.10679624999997372
19380,49.0,0.003236249999986285,89.0,0.10679625000000215
19381,46.0,0.09223312500000702,88.0,0.10679625000000215
19382,34.0,0.003236249999986285,80.0,0.10679625000000215
19383,35.0,0.09466031249999673,85.0,0.10679625000000215
19384,47.0,0.004854375000007849,95.0,0.10679625000000215
19385,46.0,0.09466031249999673,92.0,0.10679625000000215
19386,34.0,0.0024271875000181353,82.0,0.10679625000000215
19387,31.0,0.08980593749998889,83.0,0.10679625000000215
19388,43.0,0.0008090624999965712,90.0,0.10679625000000215
19389,39.0,0.09789656250001144,89.0,0.10679625000000215
19390,27.0,0.0008090624999965712,81.0,0.10679625000000215
19391,28.0,0.09385125000000016,84.0,0.10679625000000215
19392,40.0,0.0024271874999897136,93.0,0.10679625000000215
19393,39.0,0.09870562500000801,92.0,0.10679625000000215
19394,27.0,0.0016181249999931424,84.0,0.10679625000000215
19395,25.0,0.09304218750000359,83.0,0.10679625000000215
19396,37.0,0.0008090624999965712,91.0,0.10679625000000215
19397,22.0,0.0954693749999933,83.0,0.10679625000000215
19398,34.0,0.0008090624999965712,90.0,0.10679625000000215
19399,35.0,0.0962784375000183,94.0,0.10679625000000215
19400,23.0,0.0008090624999965712,88.0,0.10679625000000215
19401,34.0,0.09627843749998988,92.0,0.10679625000000215
19402,22.0,0.0008090624999965712,84.0,0.10679625000000215
19403,31.0,0.10113281250002615,91.0,0.10679624999997372
19404,19.0,0.0016181249999931424,83.0,0.10679625000000215
19405,15.0,0.09627843749998988,83.0,0.10679625000000215
19406,27.0,0.0008090624999965712,90.0,0.10679625000000215
19407,16.0,0.08980593750001731,84.0,0.10679625000000215
19408,28.0,0.0056634374999759984,94.0,0.10679625000000215
19409,15.0,0.09546937500002173,93.0,0.09677624999997647
19410,27.0,0.003236249999986285,103.0,0.09746156666665229
19411,36.0,0.09353999999999019,110.0,0.921568166666674
19412,39.0,0.9411760000000129,108.0,0.9336093750000032
19413,34.0,0.9958499999999901,109.0,0.24096399999999107
19414,34.0,0.48192800000001057,102.0,0.24096399999999107
19415,44.0,0.0,70.0,0.2083335
19416,44.0,0.31250025000000003,66.0,0.10416674999999997
19417,46.0,0.10416674999999997,70.0,0.401338
19418,48.0,0.401338,70.0,0.4075654999999999
19419,49.0,0.4075654999999999,71.0,0.20114941666666675
19420,51.0,0.3011494166666666,66.0,0.10000000000000009
19421,53.0,0.10000000000000009,70.0,0.3999999999999999
19422,54.0,0.3999999999999999,75.0,0.20000000000000018
19423,56.0,0.20000000000000018,79.0,0.20978999999999992
19424,58.0,0.20978999999999992,83.0,0.333820625
19425,60.0,0.30508500000000005,75.0,0.11494250000000017
19426,34.0,0.02873562499999993,59.0,0.49943729166666717
19427,37.0,0.02873562499999993,59.0,0.47070166666666724
19428,42.0,0.02873562499999993,59.0,0.4419660416666673
19429,61.0,0.028735625000000375,76.0,0.41323041666666693
19430,63.0,0.05257025000000004,67.0,0.052204750000000466
19431,61.0,0.052204750000000466,73.0,0.0516060416666666
19432,63.0,0.0516060416666666,66.0,0.05136987500000023
19433,61.0,0.05136987500000023,70.0,0.05136987499999979
19434,63.0,0.05136987499999979,64.0,0.05136987500000023
19435,61.0,0.05136987500000023,70.0,0.05136987499999979
19436,63.0,0.05136987499999979,64.0,0.05136987499999979
19437,60.0,0.05136987499999979,70.0,0.2072561666666668
19438,58.0,0.2072561666666668,56.0,0.16642012500000014
19439,56.0,0.16642012500000014,46.0,0.05370237499999986
19440,61.0,0.05370237499999986,53.0,0.26408450000000006
19441,61.0,0.39612674999999964,49.0,0.08116874999999979
19442,53.0,0.08116874999999979,44.0,0.7874621249999993
19443,41.0,0.4210529999999997,26.0,0.41813324999999946
19444,54.0,0.36640912499999967,45.0,0.05172412499999979
19445,58.0,0.05172412499999979,51.0,0.24671049999999983
19446,58.0,0.3700657500000002,46.0,0.08522724999999998
19447,48.0,0.08522724999999998,44.0,0.7852202916666666
19448,42.0,0.4171014166666662,25.0,0.4198430000000002
19449,49.0,0.3681188750000004,45.0,0.05172412499999979
19450,53.0,0.05172412499999979,49.0,0.21739149999999974
19451,53.0,0.3260872499999996,47.0,0.09101949999999981
19452,43.0,0.09101949999999981,44.0,0.8466104999999997
19453,41.0,0.4225349999999999,26.0,0.4240754999999998
19454,20.0,0.4240754999999998,57.0,0.20893808333333297
19455,48.0,0.31322574999999997,58.0,0.10416675000000009
19456,51.0,0.10416675000000009,59.0,0.41474849999999996
19457,54.0,0.2077326666666668,60.0,0.20701583333333318
19458,58.0,0.20701583333333318,67.0,0.46492449999999863
19459,56.0,0.335614249999999,63.0,0.06249995416666643
19460,56.0,0.06465512499999981,55.0,0.06465512499999981
19461,65.0,0.06465512499999981,75.0,0.21582749999999962
19462,63.0,0.32035699999999956,64.0,0.10452949999999994
19463,61.0,0.10452949999999994,55.0,0.41811799999999977
19464,63.0,0.05226475000000086,54.0,0.05226474999999908
19465,61.0,0.05226474999999908,60.0,0.10452949999999994
19466,58.0,0.10452949999999994,58.0,0.20905899999999988
19467,56.0,0.20905899999999988,55.0,0.4502024999999996
19468,58.0,0.3916087499999996,45.0,0.05859375
19469,61.0,0.05859375,51.0,0.2798505000000002
19470,61.0,0.41977574999999945,46.0,0.08640549999999969
19471,48.0,0.08640549999999969,44.0,0.733283916666668
19472,42.0,0.4174941666666676,25.0,0.4198429999999984
19473,49.0,0.3157897500000004,42.0,0.0523291249999982
19474,53.0,0.0523291249999982,41.0,0.05172412499999979
19475,56.0,0.05172412499999979,49.0,0.2419355000000003
19476,56.0,0.36290325000000045,47.0,0.09057974999999985
19477,43.0,0.09057974999999985,44.0,0.8421149999999997
19478,41.0,0.4225349999999999,26.0,0.41957999999999984
19479,20.0,0.41957999999999984,57.0,0.20893808333333297
19480,48.0,0.3132257499999991,58.0,0.10416675000000097
19481,51.0,0.10416675000000097,59.0,0.41474849999999996
19482,54.0,0.2077326666666668,60.0,0.20701583333333318
19483,53.0,0.20701583333333318,56.0,0.4190699999999996
19484,54.0,0.05166487499999839,56.0,0.05154637500000092
19485,53.0,0.05154637500000092,61.0,0.10309275000000007
19486,51.0,0.10309275000000007,56.0,0.21276600000000023
19487,53.0,0.21276600000000023,64.0,0.20978999999999992
19488,44.0,0.31468500000000077,57.0,0.10489499999999907
19489,49.0,0.10489499999999907,59.0,0.43351608333333225
19490,48.0,0.43351608333333225,64.0,0.22140199999999943
19491,46.0,0.22140199999999943,61.0,0.23076900000000045
19492,44.0,0.23076900000000045,70.0,0.21276600000000023
19493,44.0,0.31914899999999946,66.0,0.106383000000001
19494,46.0,0.106383000000001,70.0,0.405405
19495,48.0,0.405405,70.0,0.40959900000000005
19496,49.0,0.40959900000000005,71.0,0.20114941666667008
19497,51.0,0.30114941666666795,66.0,0.10000000000000142
19498,53.0,0.10000000000000142,70.0,0.3999999999999986
19499,54.0,0.3999999999999986,75.0,0.1999999999999993
19500,56.0,0.1999999999999993,79.0,0.2097900000000017
19501,58.0,0.2097900000000017,83.0,0.3338206250000013
19502,60.0,0.3050850000000018,75.0,0.1149425000000015
19503,34.0,0.028735624999999487,59.0,0.4994372916666663
19504,37.0,0.028735624999999487,59.0,0.4707016666666668
19505,42.0,0.028735624999999487,59.0,0.4419660416666673
19506,61.0,0.02873562500000304,76.0,0.41323041666666427
19507,63.0,0.05257024999999871,67.0,0.052204750000001354
19508,61.0,0.052204750000001354,73.0,0.05160604166666616
19509,63.0,0.05160604166666616,66.0,0.0513698749999989
19510,61.0,0.0513698749999989,70.0,0.0513698749999989
19511,63.0,0.0513698749999989,64.0,0.05136987500000245
19512,61.0,0.05136987500000245,70.0,0.0513698749999989
19513,63.0,0.0513698749999989,64.0,0.0513698749999989
19514,60.0,0.0513698749999989,70.0,0.20725616666666724
19515,58.0,0.20725616666666724,56.0,0.21146625000000085
19516,56.0,0.21146625000000085,46.0,0.0704887499999991
19517,61.0,0.0704887499999991,53.0,0.2604165000000016
19518,61.0,0.39062475000000063,49.0,0.0880282500000007
19519,53.0,0.0880282500000007,44.0,0.7874621250000011
19520,41.0,0.42105300000000057,26.0,0.41813325000000034
19521,54.0,0.36640912500000056,45.0,0.05172412499999979
19522,58.0,0.05172412499999979,51.0,0.2450979999999987
19523,58.0,0.3676470000000016,46.0,0.08886250000000118
19524,48.0,0.08886250000000118,44.0,0.7948911666666696
19525,42.0,0.4183131666666675,25.0,0.4319285000000015
19526,49.0,0.3765780000000021,45.0,0.055350499999999414
19527,53.0,0.055350499999999414,49.0,0.2358489999999982
19528,53.0,0.3537734999999991,47.0,0.08971299999999971
19529,58.0,0.39335700000000173,51.0,0.08844349999999679
19530,48.0,0.08844349999999679,49.0,0.7862923750000022
19531,42.0,0.41817350000000175,28.0,0.4198430000000002
19532,49.0,0.3681188750000004,50.0,0.05172412499999979
19533,53.0,0.05172412499999979,56.0,0.2516779999999983
19534,53.0,0.37751699999999744,52.0,0.08886249999999762
19535,43.0,0.08886249999999762,49.0,0.8466105000000042
19536,41.0,0.42253500000000344,29.0,0.4240755000000007
19537,20.0,0.4240755000000007,57.0,0.20893808333333652
19538,48.0,0.31322575000000796,58.0,0.10416674999999742
19539,51.0,0.10416674999999742,59.0,0.41474850000000174
19540,54.0,0.207732666666665,60.0,0.20701583333333673
19541,58.0,0.20701583333333673,67.0,0.4318680000000015
19542,56.0,0.31908600000000575,63.0,0.05357144999999974
19543,56.0,0.05639099999999786,55.0,0.05639099999999786
19544,65.0,0.05639099999999786,75.0,0.2197800000000001
19545,63.0,0.32467499999999916,68.0,0.10489499999999907
19546,61.0,0.10489499999999907,56.0,0.4195800000000034
19547,63.0,0.052447499999999536,55.0,0.052447499999999536
19548,61.0,0.052447499999999536,64.0,0.10489500000000618
19549,58.0,0.10489500000000618,58.0,0.20978999999999814
19550,56.0,0.20978999999999814,55.0,0.43165499999999923
19551,58.0,0.377698125000002,45.0,0.05395687499999724
19552,61.0,0.05395687499999724,51.0,0.2717389999999966
19553,61.0,0.40760850000000204,46.0,0.0880282500000007
19554,48.0,0.0880282500000007,44.0,0.7338248333333297
19555,42.0,0.4180350833333293,25.0,0.4198430000000002
19556,49.0,0.3157897500000004,42.0,0.052329124999999976
19557,53.0,0.052329124999999976,41.0,0.05172412499999979
19558,56.0,0.05172412499999979,49.0,0.26595749999999896
19559,56.0,0.39893624999999844,47.0,0.08902075000000309
19560,43.0,0.08902075000000309,44.0,0.8421150000000068
19561,41.0,0.42253500000000344,26.0,0.4195800000000034
19562,20.0,0.4195800000000034,57.0,0.20893808333333652
19563,48.0,0.31322575000000796,58.0,0.10416674999999742
19564,51.0,0.10416674999999742,59.0,0.41474850000000174
19565,54.0,0.207732666666665,60.0,0.20701583333333673
19566,53.0,0.20701583333333673,56.0,0.41907000000000494
19567,54.0,0.051664875000000166,56.0,0.05154637500000092
19568,53.0,0.05154637500000092,61.0,0.10309275000000184
19569,51.0,0.10309275000000184,56.0,0.212766000000002
19570,53.0,0.212766000000002,64.0,0.20978999999999814
19571,44.0,0.3146849999999972,57.0,0.10489500000000618
19572,49.0,0.10489500000000618,59.0,0.4195799999999963
19573,48.0,0.4195799999999963,44.0,0.21648150000000754
19574,49.0,0.21648150000000754,44.0,0.2210030833333363
19575,51.0,0.2210030833333363,46.0,0.44631899999999547
19576,53.0,0.3372279999999961,42.0,0.10909099999999938
19577,51.0,0.10909099999999938,46.0,0.43636400000000464
19578,55.0,0.43636400000000464,49.0,0.4195800000000034
19579,56.0,0.20978999999999814,51.0,0.20979000000000525
19580,58.0,0.20979000000000525,55.0,0.4445970000000017
19581,60.0,0.3355060000000023,52.0,0.10909099999999938
19582,58.0,0.10909099999999938,56.0,0.43636400000000464
19583,56.0,0.43636400000000464,52.0,0.4195855000000037
19584,53.0,0.21052650000000028,49.0,0.20905900000000344
19585,51.0,0.20905900000000344,56.0,0.41983199999999954
19586,53.0,0.20477799999999746,51.0,0.21505400000000208
19587,51.0,0.21505400000000208,56.0,0.43010799999999705
19588,55.0,0.43010799999999705,50.0,0.4367330000000038
19589,56.0,0.3243735000000001,55.0,0.11235950000000372
19590,58.0,0.11235950000000372,59.0,0.21201400000000348
19591,60.0,0.14134266666666662,56.0,0.14366400000000112
19592,58.0,0.14366400000000112,56.0,0.14598533333333563
19593,56.0,0.14598533333333563,53.0,0.6569339999999997
19594,20.0,0.4379559999999998,34.0,0.2189779999999999
19595,53.0,0.2189779999999999,50.0,0.21352300000000213
19596,51.0,0.21352300000000213,51.0,0.20774941666666535
19597,53.0,0.20774941666666535,49.0,0.21818199999999877
19598,51.0,0.21818199999999877,51.0,0.43636400000000464
19599,55.0,0.43636400000000464,49.0,0.20978999999999814
19600,56.0,0.20978999999999814,51.0,0.21505400000000208
19601,58.0,0.21505400000000208,55.0,0.21818199999999877
19602,60.0,0.21818199999999877,52.0,0.21818199999999877
19603,58.0,0.21818199999999877,50.0,0.2123956250000063
19604,60.0,0.054348333333336996,47.0,0.053508791666665445
19605,58.0,0.053508791666665445,52.0,0.05269420833333527
19606,60.0,0.05269420833333527,49.0,0.051844291666668596
19607,58.0,0.051844291666668596,56.0,0.05142908333333196
19608,60.0,0.05142908333333196,49.0,0.05137025000000506
19609,58.0,0.05137025000000506,51.0,0.05190354166666111
19610,60.0,0.05190354166666111,49.0,0.05238658333333035
19611,56.0,0.05238658333333035,52.0,0.21052650000000028
19612,53.0,0.21052650000000028,49.0,0.21582750000000317
19613,51.0,0.21582750000000317,56.0,0.20618550000000369
19614,53.0,0.20618550000000369,51.0,0.21505399999999497
19615,51.0,0.21505399999999497,56.0,0.43010800000000415
19616,55.0,0.43010800000000415,55.0,0.8692339999999916
19617,56.0,0.21201399999999637,59.0,0.22471899999999323
19618,58.0,0.22471899999999323,64.0,0.432501000000002
19619,60.0,0.14234866666666335,61.0,0.14416699999999594
19620,58.0,0.14416699999999594,61.0,0.14598533333334274
19621,56.0,0.14598533333334274,66.0,0.481520500000002
19622,46.0,0.3570392499999997,62.0,0.12448125000000232
19623,56.0,0.12448125000000232,68.0,0.16281833124999423
19624,45.0,0.16281833124999423,62.0,0.17213656458331172
19625,56.0,0.17213656458331172,69.0,0.11776849166666636
19626,56.0,0.12297682499999496,66.0,0.078125
19627,44.0,0.078125,70.0,0.212766000000002
19628,44.0,0.3191489999999959,66.0,0.10638300000000811
19629,46.0,0.10638300000000811,70.0,0.4054050000000018
19630,48.0,0.4054050000000018,70.0,0.40959900000000005
19631,49.0,0.40959900000000005,71.0,0.20114941666666653
19632,51.0,0.30114941666666084,66.0,0.09999999999999432
19633,53.0,0.09999999999999432,70.0,0.4000000000000057
19634,54.0,0.4000000000000057,75.0,0.20000000000000284
19635,56.0,0.20000000000000284,79.0,0.20978999999999814
19636,58.0,0.20978999999999814,83.0,0.3338206250000013
19637,60.0,0.3050850000000054,75.0,0.11494249999999795
19638,34.0,0.028735624999995935,59.0,0.4994372916666663
19639,37.0,0.028735625000010145,59.0,0.47070166666665614
19640,42.0,0.028735624999995935,59.0,0.4419660416666602
19641,61.0,0.028735624999995935,76.0,0.41323041666666427
19642,63.0,0.05257025000000226,67.0,0.052204750000001354
19643,61.0,0.052204750000001354,73.0,0.05160604166665905
19644,63.0,0.05160604166665905,66.0,0.051369875000006004
19645,61.0,0.051369875000006004,70.0,0.051369874999991794
19646,63.0,0.051369874999991794,64.0,0.051369875000006004
19647,61.0,0.051369875000006004,70.0,0.051369875000006004
19648,63.0,0.051369875000006004,64.0,0.051369874999991794
19649,60.0,0.051369874999991794,70.0,0.20725616666666724
19650,58.0,0.20725616666666724,56.0,0.1826298750000035
19651,56.0,0.1826298750000035,51.0,0.06087662499999169
19652,61.0,0.06087662499999169,60.0,0.2568495000000013
19653,61.0,0.3852742499999948,55.0,0.09287924999999575
19654,53.0,0.09287924999999575,49.0,0.7874621250000047
19655,41.0,0.42105300000000057,29.0,0.4181332499999968
19656,54.0,0.3664091250000041,50.0,0.05172412499999268
19657,58.0,0.05172412499999268,58.0,0.24834450000000174
19658,58.0,0.3725167500000026,51.0,0.08928575000000194
19659,48.0,0.08928575000000194,49.0,0.7865731249999897
19660,42.0,0.41845424999999636,28.0,0.4198430000000002
19661,49.0,0.3681188749999933,50.0,0.05172412500000689
19662,53.0,0.05172412500000689,56.0,0.26041650000000516
19663,53.0,0.39062475000000063,52.0,0.09063449999999307
19664,43.0,0.09063449999999307,49.0,0.846610499999997
19665,41.0,0.42253499999999633,29.0,0.4240755000000007
19666,20.0,0.4240755000000007,57.0,0.20893808333333652
19667,48.0,0.31322575000000086,58.0,0.10416674999999032
19668,51.0,0.10416674999999032,59.0,0.41474850000000174
19669,54.0,0.20773266666667212,60.0,0.20701583333332962
19670,58.0,0.20701583333332962,67.0,0.4683124999999819
19671,56.0,0.3373082499999924,63.0,0.06222701874999359
19672,56.0,0.06550212499999475,49.0,0.06550212499999475
19673,65.0,0.06550212499999475,67.0,0.2197800000000001
19674,63.0,0.32467499999999916,61.0,0.10489499999999907
19675,61.0,0.10489499999999907,50.0,0.4195799999999963
19676,63.0,0.052447499999999536,49.0,0.052447499999999536
19677,61.0,0.052447499999999536,57.0,0.10489499999999907
19678,58.0,0.10489499999999907,52.0,0.20978999999999814
19679,56.0,0.20978999999999814,49.0,0.4641720000000049
19680,58.0,0.4020858749999974,45.0,0.06208612500000754
19681,61.0,0.06208612500000754,51.0,0.2622379999999964
19682,61.0,0.3933569999999946,46.0,0.0884954999999934
19683,48.0,0.0884954999999934,44.0,0.7339805833333344
19684,42.0,0.41819083333334106,25.0,0.4198430000000002
19685,49.0,0.3157897499999933,42.0,0.052329124999999976
19686,53.0,0.052329124999999976,41.0,0.05172412500000689
19687,56.0,0.05172412500000689,49.0,0.2516779999999983
19688,56.0,0.37751699999999744,47.0,0.08886250000000473
19689,43.0,0.08886250000000473,44.0,0.8421149999999926
19690,41.0,0.42253499999999633,26.0,0.4195799999999963
19691,20.0,0.4195799999999963,57.0,0.20893808333333652
19692,48.0,0.31322575000000086,58.0,0.10416674999999032
19693,51.0,0.10416674999999032,59.0,0.41474850000000174
19694,54.0,0.20773266666667212,60.0,0.20701583333332962
19695,53.0,0.20701583333332962,56.0,0.4277059999999864
19696,54.0,0.051664875000000166,56.0,0.05154637500000092
19697,53.0,0.05154637500000092,61.0,0.10309274999998763
19698,51.0,0.10309274999998763,56.0,0.22140199999999766
19699,53.0,0.22140199999999766,64.0,0.21505399999999497
19700,44.0,0.32258099999999956,57.0,0.10805600000000481
19701,49.0,0.10805600000000481,59.0,0.4428039999999953
19702,25.0,0.4428039999999953,49.0,0.4428040000000095
19703,56.0,0.4428040000000095,46.0,0.4444440000000043
19704,56.0,0.3333329999999961,37.0,0.11111100000000818
19705,55.0,0.11111100000000818,41.0,0.44444399999999007
19706,52.0,0.44444399999999007,37.0,0.4444440000000043
19707,51.0,0.22222200000000214,37.0,0.22222200000000214
19708,49.0,0.22222200000000214,42.0,0.4511279999999971
19709,52.0,0.33834600000000137,37.0,0.11278199999999572
19710,51.0,0.11278199999999572,37.0,0.4411759999999987
19711,52.0,0.055147000000005164,37.0,0.05514699999999095
19712,51.0,0.05514699999999095,40.0,0.33088200000000256
19713,49.0,0.33088200000000256,37.0,0.4636590000000069
19714,43.0,0.3446114999999992,41.0,0.11904750000000774
19715,56.0,0.11904750000000774,46.0,0.4511279999999971
19716,56.0,0.33834600000000137,37.0,0.11278199999999572
19717,55.0,0.11278199999999572,41.0,0.4444440000000043
19718,52.0,0.4444440000000043,37.0,0.45283000000000584
19719,51.0,0.22641500000000292,37.0,0.22641500000000292
19720,49.0,0.22641500000000292,45.0,0.46511599999999476
19721,51.0,0.15503866666666966,40.0,0.15503866666666966
19722,49.0,0.15503866666666966,39.0,0.15503866666665544
19723,43.0,0.15503866666665544,42.0,0.9302320000000037
19724,28.0,0.46511600000000897,23.0,0.46511599999999476
19725,56.0,0.46511599999999476,46.0,0.4444440000000043
19726,56.0,0.3333329999999961,37.0,0.11111100000000818
19727,55.0,0.11111100000000818,41.0,0.44444399999999007
19728,52.0,0.44444399999999007,37.0,0.4444440000000043
19729,51.0,0.22222200000000214,37.0,0.22222200000000214
19730,49.0,0.22222200000000214,42.0,0.4511279999999971
19731,52.0,0.33834600000000137,37.0,0.11278199999999572
19732,51.0,0.11278199999999572,37.0,0.4439349999999962
19733,52.0,0.05632058333333134,33.0,0.05603999999999587
19734,51.0,0.05603999999999587,37.0,0.055487166666665644
19735,52.0,0.055487166666665644,35.0,0.05508016666667004
19736,51.0,0.05508016666667004,37.0,0.05487816666666845
19737,52.0,0.05487816666666845,34.0,0.05487816666666845
19738,51.0,0.05487816666666845,37.0,0.055418833333334305
19739,52.0,0.055418833333334305,37.0,0.055831916666662096
19740,49.0,0.055831916666662096,37.0,0.4636590000000069
19741,43.0,0.3446114999999992,41.0,0.11904750000000774
19742,56.0,0.11904750000000774,46.0,0.4511279999999971
19743,56.0,0.33834600000000137,37.0,0.11278199999999572
19744,55.0,0.11278199999999572,41.0,0.4444440000000043
19745,52.0,0.4444440000000043,37.0,0.45283000000000584
19746,51.0,0.3396225000000044,37.0,0.11320750000000146
19747,49.0,0.11320750000000146,45.0,1.3953479999999985
19748,51.0,0.15503866666666966,40.0,0.15503866666666966
19749,49.0,0.15503866666666966,39.0,0.15503866666665544
19750,48.0,0.15503866666665544,42.0,0.9302320000000037
19751,46.0,0.6976740000000063,53.0,0.23255799999999738
19752,44.0,0.23255799999999738,70.0,0.212766000000002
19753,44.0,0.3191489999999959,66.0,0.10638300000000811
19754,46.0,0.10638300000000811,70.0,0.4054050000000018
19755,48.0,0.4054050000000018,70.0,0.40959900000000005
19756,49.0,0.40959900000000005,71.0,0.20114941666666653
19757,51.0,0.30114941666666084,66.0,0.09999999999999432
19758,53.0,0.09999999999999432,70.0,0.4000000000000057
19759,54.0,0.4000000000000057,75.0,0.20000000000000284
19760,56.0,0.20000000000000284,79.0,0.20978999999999814
19761,58.0,0.20978999999999814,83.0,0.3338206250000013
19762,60.0,0.3050850000000054,75.0,0.11494249999999795
19763,34.0,0.028735624999995935,59.0,0.4994372916666663
19764,37.0,0.028735625000010145,59.0,0.47070166666665614
19765,42.0,0.028735624999995935,59.0,0.4419660416666602
19766,61.0,0.028735624999995935,76.0,0.41323041666666427
19767,63.0,0.05257025000000226,67.0,0.052204750000001354
19768,61.0,0.052204750000001354,73.0,0.05160604166665905
19769,63.0,0.05160604166665905,66.0,0.051369875000006004
19770,61.0,0.051369875000006004,70.0,0.051369874999991794
19771,63.0,0.051369874999991794,64.0,0.051369875000006004
19772,61.0,0.051369875000006004,70.0,0.051369874999991794
19773,63.0,0.051369874999991794,64.0,0.051369875000006004
19774,60.0,0.051369875000006004,70.0,0.20725616666666724
19775,58.0,0.20725616666666724,56.0,0.17578125
19776,56.0,0.17578125,51.0,0.05859375
19777,61.0,0.05859375,60.0,0.27573549999999614
19778,61.0,0.4136032499999942,55.0,0.08370524999999418
19779,53.0,0.08370524999999418,49.0,0.7975095000000039
19780,41.0,0.42105300000000057,29.0,0.4320120000000003
19781,54.0,0.3764565000000033,50.0,0.05555549999999698
19782,58.0,0.05555549999999698,58.0,0.26595749999999896
19783,58.0,0.39893625000000554,51.0,0.08802824999999359
19784,48.0,0.08802824999999359,49.0,0.7861539583333439
19785,42.0,0.4180350833333506,28.0,0.4198430000000002
19786,49.0,0.3681188749999933,50.0,0.05172412500000689
19787,53.0,0.05172412500000689,56.0,0.2533784999999966
19788,53.0,0.38006774999999493,52.0,0.08640549999999791
19789,43.0,0.08640549999999791,49.0,0.846610499999997
19790,41.0,0.42253499999999633,29.0,0.4240755000000007
19791,20.0,0.4240755000000007,57.0,0.20893808333333652
19792,48.0,0.31322575000000086,58.0,0.10416674999999032
19793,51.0,0.10416674999999032,59.0,0.41474850000000174
19794,54.0,0.20773266666667212,60.0,0.20701583333332962
19795,58.0,0.20701583333332962,67.0,0.4638144999999838
19796,56.0,0.33505924999998626,63.0,0.06223170416666335
19797,56.0,0.06437762500000588,55.0,0.06437762499999167
19798,65.0,0.06437762499999167,75.0,0.2197800000000001
19799,63.0,0.32467499999999916,68.0,0.10489499999999907
19800,61.0,0.10489499999999907,56.0,0.4195799999999963
19801,63.0,0.052447499999999536,55.0,0.052447499999999536
19802,61.0,0.052447499999999536,64.0,0.10489499999999907
19803,58.0,0.10489499999999907,58.0,0.20978999999999814
19804,56.0,0.20978999999999814,55.0,0.4473090000000042
19805,58.0,0.3894386249999968,45.0,0.05787037500000736
19806,61.0,0.05787037500000736,51.0,0.2551019999999937
19807,61.0,0.3826530000000048,46.0,0.0872092500000008
19808,48.0,0.0872092500000008,44.0,0.7335518333333368
19809,42.0,0.4177620833333435,25.0,0.4198430000000002
19810,49.0,0.3157897499999933,42.0,0.052329124999999976
19811,53.0,0.052329124999999976,41.0,0.05172412500000689
19812,56.0,0.05172412500000689,49.0,0.2533784999999966
19813,56.0,0.38006774999999493,47.0,0.0905797500000034
19814,43.0,0.0905797500000034,44.0,0.8421149999999926
19815,41.0,0.42253499999999633,26.0,0.4195799999999963
19816,43.0,0.09375,44.0,0.8805499999999995
19817,41.0,0.42253500000001054,26.0,0.45801499999998896
19818,20.0,0.45801499999998896,57.0,0.21264066666665826
19819,48.0,0.31864766666666355,60.0,0.10575816666667492
19820,51.0,0.10575816666667492,62.0,0.42093249999999216
19821,54.0,0.21089699999998857,66.0,0.2100355000000036
19822,53.0,0.2100355000000036,63.0,0.42983449999999834
19823,54.0,0.0519031249999955,63.0,0.0519031249999955
19824,53.0,0.0519031249999955,70.0,0.21491725000001338
19825,51.0,0.21491725000001338,64.0,0.11111099999999396
19826,53.0,0.11111099999999396,76.0,0.48634000000001265
19827,44.0,0.23529400000001033,68.0,0.2510460000000023
19828,61.0,0.2510460000000023,70.0,1.0041840000000093
19829,55.0,0.0,45.0,0.43010799999999993
19830,56.0,0.43010799999999993,46.0,0.31250025000000003
19831,55.0,0.31250025000000003,45.0,0.10416674999999986
19832,53.0,0.10416674999999986,45.0,0.4210995000000004
19833,56.0,0.4210995000000004,48.0,0.4966079999999997
19834,56.0,0.4966079999999997,47.0,0.8480334999999997
19835,44.0,0.42167949999999976,25.0,0.4263539999999999
19836,55.0,0.4263539999999999,43.0,0.4316549999999997
19837,53.0,0.4316549999999997,42.0,0.07042249999999983
19838,55.0,0.07042249999999983,43.0,0.07042249999999983
19839,53.0,0.07042249999999983,44.0,0.07042250000000028
19840,52.0,0.07042250000000028,45.0,0.21126749999999994
19841,53.0,0.21126749999999994,47.0,0.4316550000000001
19842,54.0,0.21582749999999962,45.0,0.2158275000000005
19843,55.0,0.2158275000000005,50.0,0.4633375000000006
19844,50.0,0.22140200000000032,50.0,0.2419355000000003
19845,53.0,0.2419355000000003,54.0,0.8633100000000002
19846,24.0,0.4316550000000001,30.0,0.4316550000000001
19847,51.0,0.4316550000000001,45.0,0.43165499999999923
19848,48.0,0.43165499999999923,62.0,0.13840833333333347
19849,50.0,0.13840833333333347,57.0,0.13840833333333347
19850,48.0,0.13840833333333347,57.0,0.13840833333333347
19851,47.0,0.13840833333333347,63.0,0.20761249999999976
19852,48.0,0.4152249999999995,67.0,0.20761250000000064
19853,50.0,0.4152250000000004,70.0,0.2150540000000003
19854,55.0,0.4301080000000006,72.0,0.8451120000000003
19855,26.0,0.41957999999999984,56.0,0.42553200000000047
19856,50.0,0.42553200000000047,76.0,0.20905899999999988
19857,46.0,0.20905899999999988,73.0,0.20905899999999988
19858,43.0,0.20905899999999988,76.0,0.41811799999999977
19859,50.0,0.20905899999999988,71.0,0.20905899999999988
19860,42.0,0.20905899999999988,73.0,0.4332130000000003
19861,43.0,0.4332130000000003,76.0,0.9374149999999997
19862,19.0,0.4332130000000003,50.0,0.5042019999999994
19863,55.0,0.5042019999999994,45.0,0.4301080000000006
19864,56.0,0.4301080000000006,46.0,0.31250024999999937
19865,55.0,0.31250024999999937,45.0,0.10416675000000097
19866,53.0,0.10416675000000097,45.0,0.42782000000000053
19867,56.0,0.42782000000000053,48.0,0.5148360000000007
19868,56.0,0.5148360000000007,47.0,0.8480334999999997
19869,44.0,0.42167949999999976,25.0,0.4263539999999999
19870,55.0,0.4263539999999999,43.0,0.431655000000001
19871,53.0,0.431655000000001,42.0,0.07042249999999939
19872,55.0,0.07042249999999939,43.0,0.07042250000000116
19873,53.0,0.07042250000000116,44.0,0.07042249999999939
19874,52.0,0.07042249999999939,45.0,0.21126749999999994
19875,53.0,0.21126749999999994,47.0,0.43165499999999923
19876,54.0,0.21582749999999962,45.0,0.21582749999999962
19877,55.0,0.21582749999999962,47.0,0.48672750000000065
19878,50.0,0.22471900000000034,42.0,0.12445403749999961
19879,50.0,0.13100425000000016,47.0,0.13100425000000016
19880,53.0,0.13100425000000016,51.0,0.8541899999999991
19881,41.0,0.4225349999999999,28.0,0.43165499999999923
19882,51.0,0.43165499999999923,45.0,0.43165499999999923
19883,48.0,0.43165499999999923,46.0,0.13840833333333435
19884,49.0,0.13840833333333435,43.0,0.1384083333333308
19885,48.0,0.1384083333333308,43.0,0.13840833333333435
19886,46.0,0.13840833333333435,47.0,0.45282999999999873
19887,48.0,0.45282999999999873,51.0,0.4819279999999999
19888,49.0,0.4819279999999999,53.0,1.0014089999999989
19889,53.0,0.519480999999999,54.0,0.4819279999999999
19890,48.0,1.0176419999999986,48.0,0.32028449999999964
19891,47.0,0.32028449999999964,44.0,0.10676150000000106
19892,43.0,0.10676150000000106,48.0,0.4444440000000007
19893,47.0,0.4444440000000007,45.0,0.44943800000000067
19894,48.0,0.44943800000000067,46.0,0.9579130000000013
19895,12.0,0.44943800000000067,36.0,0.5084750000000007
19896,55.0,0.5084750000000007,45.0,0.4301080000000006
19897,56.0,0.4301080000000006,46.0,0.31250024999999937
19898,55.0,0.31250024999999937,45.0,0.10416675000000097
19899,53.0,0.10416675000000097,45.0,0.427819999999997
19900,56.0,0.427819999999997,48.0,0.5269109999999984
19901,56.0,0.5269109999999984,47.0,0.8480334999999997
19902,44.0,0.4216795000000033,25.0,0.42635399999999635
19903,55.0,0.42635399999999635,43.0,0.43165499999999923
19904,53.0,0.43165499999999923,42.0,0.07042249999999939
19905,55.0,0.07042249999999939,43.0,0.07042249999999939
19906,53.0,0.07042249999999939,44.0,0.07042250000000294
19907,52.0,0.07042250000000294,45.0,0.21126749999999817
19908,53.0,0.21126749999999817,47.0,0.43165499999999923
19909,54.0,0.21582749999999962,45.0,0.21582749999999962
19910,55.0,0.21582749999999962,53.0,0.4633375000000015
19911,50.0,0.2214020000000012,48.0,0.2419355000000003
19912,53.0,0.2419355000000003,58.0,0.8633099999999985
19913,24.0,0.43165499999999923,30.0,0.43165499999999923
19914,51.0,0.43165499999999923,45.0,0.4316550000000028
19915,48.0,0.4316550000000028,62.0,0.13840833333333435
19916,50.0,0.13840833333333435,57.0,0.1384083333333308
19917,48.0,0.1384083333333308,57.0,0.13840833333333435
19918,47.0,0.13840833333333435,63.0,0.20761249999999976
19919,48.0,0.4152249999999995,67.0,0.20761249999999976
19920,50.0,0.4152249999999995,70.0,0.21505399999999852
19921,55.0,0.4301080000000006,72.0,0.8451120000000003
19922,26.0,0.41957999999999984,56.0,0.42553200000000047
19923,50.0,0.42553200000000047,76.0,0.20905899999999988
19924,46.0,0.20905899999999988,73.0,0.20905899999999988
19925,43.0,0.20905899999999988,76.0,0.41811799999999977
19926,50.0,0.20905899999999988,71.0,0.20905899999999988
19927,42.0,0.20905899999999988,73.0,0.4332129999999985
19928,43.0,0.4332129999999985,76.0,0.9242109999999997
19929,19.0,0.43321300000000207,50.0,0.4909979999999976
19930,55.0,0.4909979999999976,45.0,0.43010799999999705
19931,56.0,0.43010799999999705,46.0,0.31250024999999937
19932,55.0,0.31250024999999937,45.0,0.10416674999999742
19933,53.0,0.10416674999999742,45.0,0.4278200000000041
19934,56.0,0.4278200000000041,48.0,0.46387599999999907
19935,56.0,0.46387599999999907,47.0,0.8480334999999997
19936,44.0,0.4216794999999962,25.0,0.42635400000000345
19937,55.0,0.42635400000000345,43.0,0.43165499999999923
19938,53.0,0.43165499999999923,42.0,0.07042249999999939
19939,55.0,0.07042249999999939,43.0,0.07042249999999939
19940,53.0,0.07042249999999939,44.0,0.07042249999999939
19941,52.0,0.07042249999999939,45.0,0.21126750000000527
19942,53.0,0.21126750000000527,47.0,0.43165499999999923
19943,54.0,0.21582750000000317,45.0,0.21582749999999606
19944,55.0,0.21582749999999606,47.0,0.5012164999999982
19945,50.0,0.22471900000000034,42.0,0.13133631249999667
19946,50.0,0.13824875000000247,42.0,0.13824874999999537
19947,53.0,0.13824874999999537,46.0,0.8541900000000027
19948,41.0,0.42253500000000344,28.0,0.43165499999999923
19949,51.0,0.43165499999999923,45.0,0.43165499999999923
19950,48.0,0.43165499999999923,46.0,0.1384083333333308
19951,49.0,0.1384083333333308,43.0,0.1384083333333379
19952,48.0,0.1384083333333379,43.0,0.1384083333333308
19953,46.0,0.1384083333333308,47.0,0.45282999999999873
19954,48.0,0.45282999999999873,54.0,0.47619000000000256
19955,49.0,0.47619000000000256,62.0,0.999169000000002
19956,53.0,0.5172409999999985,59.0,0.48192800000000346
19957,48.0,1.0176420000000022,48.0,0.32028449999999964
19958,47.0,0.32028449999999964,44.0,0.10676149999999751
19959,43.0,0.10676149999999751,48.0,0.4444439999999972
19960,47.0,0.4444439999999972,45.0,0.44943800000000067
19961,48.0,0.44943800000000067,46.0,1.0101859999999974
19962,12.0,0.44943800000000067,30.0,0.5607479999999967
19963,50.0,0.5607479999999967,51.0,0.4444439999999972
19964,51.0,0.4444439999999972,52.0,0.2197800000000001
19965,53.0,0.2197800000000001,53.0,0.2197800000000001
19966,54.0,0.2197800000000001,55.0,0.4325460000000021
19967,54.0,0.4325460000000021,60.0,0.44984199999999674
19968,56.0,0.3340120000000013,55.0,0.11582999999999544
19969,54.0,0.11582999999999544,62.0,0.8527320000000032
19970,45.0,0.42857099999999804,33.0,0.4241610000000051
19971,53.0,0.4241610000000051,54.0,0.43165499999999923
19972,51.0,0.43165499999999923,52.0,0.2197800000000001
19973,53.0,0.2197800000000001,54.0,0.2197800000000001
19974,54.0,0.2197800000000001,57.0,0.4325460000000021
19975,54.0,0.4325460000000021,66.0,0.44984199999999674
19976,56.0,0.3340120000000013,62.0,0.11582999999999544
19977,54.0,0.11582999999999544,76.0,0.8558160000000044
19978,44.0,0.43165499999999923,48.0,0.4241610000000051
19979,53.0,0.4241610000000051,67.0,0.4395600000000002
19980,61.0,0.4395600000000002,86.0,0.8362105000000071
19981,44.0,0.4195800000000034,59.0,0.4166305000000037
19982,52.0,0.4166305000000037,66.0,0.43636399999999753
19983,60.0,0.43636399999999753,76.0,0.8424440000000075
19984,43.0,0.42253500000000344,54.0,0.4199090000000041
19985,51.0,0.4199090000000041,62.0,0.4379559999999998
19986,59.0,0.4379559999999998,76.0,0.8461830000000035
19987,42.0,0.42402799999999985,44.0,0.4221550000000036
19988,50.0,0.4221550000000036,56.0,0.43636399999999753
19989,58.0,0.43636399999999753,67.0,0.6515420833333323
19990,41.0,0.43571458333332913,36.0,0.4380495000000053
19991,49.0,0.21582750000000317,54.0,0.22222200000000214
19992,48.0,0.22222200000000214,45.0,0.4562799999999996
19993,55.0,0.227272499999998,45.0,0.22900750000000158
19994,56.0,0.22900750000000158,46.0,0.42704599999999715
19995,55.0,0.21352300000000213,45.0,0.21352299999999502
19996,53.0,0.21352299999999502,45.0,0.4317440000000019
19997,56.0,0.4317440000000019,48.0,0.5036079999999998
19998,56.0,0.5036079999999998,47.0,0.8480334999999997
19999,44.0,0.4216794999999962,25.0,0.42635400000000345
20000,55.0,0.42635400000000345,43.0,0.43165499999999923
20001,53.0,0.43165499999999923,42.0,0.07042249999999939
20002,55.0,0.07042249999999939,43.0,0.07042249999999939
20003,53.0,0.07042249999999939,44.0,0.07042249999999939
20004,52.0,0.07042249999999939,45.0,0.21126750000000527
20005,53.0,0.21126750000000527,47.0,0.43165499999999923
20006,54.0,0.21582750000000317,45.0,0.21582749999999606
20007,55.0,0.21582749999999606,49.0,0.47576500000000266
20008,50.0,0.22471900000000034,46.0,0.2510460000000023
20009,53.0,0.2510460000000023,55.0,0.8541900000000027
20010,41.0,0.42253500000000344,28.0,0.43165499999999923
20011,51.0,0.43165499999999923,45.0,0.43165499999999923
20012,48.0,0.43165499999999923,46.0,0.1384083333333308
20013,49.0,0.1384083333333308,43.0,0.1384083333333379
20014,48.0,0.1384083333333379,43.0,0.1384083333333308
20015,46.0,0.1384083333333308,47.0,0.454689083333335
20016,48.0,0.454689083333335,51.0,0.48192800000000346
20017,49.0,0.48192800000000346,53.0,1.0105620000000002
20018,53.0,0.5286339999999967,54.0,0.48192800000000346
20019,48.0,1.0176420000000022,48.0,0.32028449999999964
20020,47.0,0.32028449999999964,44.0,0.10676149999999751
20021,43.0,0.10676149999999751,48.0,0.4444439999999972
20022,47.0,0.4444439999999972,45.0,0.44943800000000067
20023,48.0,0.44943800000000067,46.0,1.0230519999999999
20024,12.0,0.44943799999999356,30.0,0.5736140000000063
20025,50.0,0.5736140000000063,51.0,0.4444440000000043
20026,51.0,0.4444440000000043,52.0,0.2197800000000001
20027,53.0,0.2197800000000001,53.0,0.2197800000000001
20028,54.0,0.2197800000000001,55.0,0.4325460000000021
20029,54.0,0.4325460000000021,60.0,0.44984200000000385
20030,56.0,0.3340120000000013,55.0,0.11583000000000254
20031,54.0,0.11583000000000254,62.0,0.8527320000000032
20032,45.0,0.42857100000000514,33.0,0.424160999999998
20033,53.0,0.424160999999998,54.0,0.43165499999999213
20034,51.0,0.43165499999999213,52.0,0.2197800000000001
20035,53.0,0.2197800000000001,54.0,0.2197800000000001
20036,54.0,0.2197800000000001,57.0,0.4325460000000021
20037,54.0,0.4325460000000021,66.0,0.44984200000000385
20038,56.0,0.3340120000000013,62.0,0.11583000000000254
20039,54.0,0.11583000000000254,76.0,0.8558160000000044
20040,44.0,0.43165500000000634,48.0,0.424160999999998
20041,53.0,0.424160999999998,62.0,0.43636399999999753
20042,61.0,0.43636399999999753,81.0,0.8336790000000036
20043,44.0,0.4181180000000069,59.0,0.41556099999999674
20044,52.0,0.41556099999999674,62.0,0.43636399999999753
20045,60.0,0.43636399999999753,76.0,0.8391654999999929
20046,43.0,0.42253499999999633,54.0,0.4166304999999966
20047,51.0,0.4166304999999966,55.0,0.4347829999999959
20048,59.0,0.4347829999999959,71.0,0.8454410000000081
20049,42.0,0.425532000000004,44.0,0.4199090000000041
20050,50.0,0.4199090000000041,42.0,0.43636399999999753
20051,58.0,0.43636399999999753,56.0,0.6511861666666761
20052,41.0,0.4369006666666735,36.0,0.4365075000000047
20053,49.0,0.21428550000000257,47.0,0.22222200000000214
20054,48.0,0.22222200000000214,45.0,0.4689290000000028
20055,55.0,0.2298849999999959,45.0,0.23904400000000692
20056,56.0,0.23904400000000692,46.0,0.43010800000000415
20057,55.0,0.21505399999999497,45.0,0.21505400000000918
20058,53.0,0.21505400000000918,45.0,0.427819999999997
20059,56.0,0.427819999999997,48.0,0.5125200000000092
20060,56.0,0.5125200000000092,47.0,0.8480334999999997
20061,44.0,0.4216794999999962,25.0,0.42635400000000345
20062,55.0,0.42635400000000345,43.0,0.43165499999999213
20063,53.0,0.43165499999999213,42.0,0.0704225000000065
20064,55.0,0.0704225000000065,43.0,0.07042249999999228
20065,53.0,0.07042249999999228,44.0,0.0704225000000065
20066,52.0,0.0704225000000065,45.0,0.21126749999999106
20067,53.0,0.21126749999999106,47.0,0.43165500000000634
20068,54.0,0.21582750000000317,45.0,0.21582750000000317
20069,55.0,0.21582750000000317,53.0,0.49020549999998764
20070,50.0,0.22471899999999323,46.0,0.2654864999999944
20071,53.0,0.2654864999999944,54.0,0.8541900000000027
20072,41.0,0.42253499999999633,28.0,0.43165500000000634
20073,51.0,0.43165500000000634,45.0,0.43165499999999213
20074,48.0,0.43165499999999213,46.0,0.1384083333333308
20075,49.0,0.1384083333333308,43.0,0.1384083333333308
20076,48.0,0.1384083333333308,43.0,0.138408333333345
20077,46.0,0.138408333333345,47.0,0.4562739999999934
20078,48.0,0.4562739999999934,51.0,0.4780879999999996
20079,49.0,0.4780879999999996,61.0,1.0426760000000002
20080,53.0,0.5607480000000038,61.0,0.48192799999999636
20081,48.0,1.017641999999995,48.0,0.32028449999999964
20082,47.0,0.32028449999999964,44.0,0.10676150000000462
20083,43.0,0.10676150000000462,48.0,0.4444440000000043
20084,47.0,0.4444440000000043,45.0,0.44943800000000067
20085,48.0,0.44943800000000067,46.0,0.9218790000000041
20086,43.0,0.44943800000000067,30.0,0.47244100000000344
20087,43.0,0.47244100000000344,31.0,0.9105569999999972
20088,52.0,0.47244100000000344,54.0,0.43811599999999373
20089,52.0,0.32858699999999885,49.0,0.10952899999999488
20090,53.0,0.10952899999999488,54.0,0.42366900000000385
20091,50.0,0.42366900000000385,53.0,0.43159300000000655
20092,47.0,0.43159300000000655,54.0,0.4299840000000046
20093,43.0,0.322488000000007,51.0,0.1074959999999976
20094,48.0,0.1074959999999976,54.0,0.6434095000000042
20095,31.0,0.4268030000000067,39.0,0.43321299999999496
20096,50.0,0.21660649999999748,54.0,0.21660649999999748
20097,52.0,0.21660649999999748,54.0,0.43645899999999926
20098,55.0,0.3273442499999959,54.0,0.10911475000000337
20099,53.0,0.10911475000000337,56.0,0.3212910000000022
20100,50.0,0.4283879999999982,54.0,0.43321299999999496
20101,47.0,0.43321299999999496,54.0,0.4268030000000067
20102,45.0,0.1422676666666689,56.0,0.1422676666666689
20103,50.0,0.12970166666666216,72.0,0.12970166666667637
20104,48.0,0.12970166666667637,72.0,0.13127241666666123
20105,53.0,0.13127241666666123,78.0,0.32010225000000503
20106,50.0,0.42707008333334784,73.0,0.33110175000000197
20107,52.0,0.4414689999999979,68.0,0.46304941666666366
20108,54.0,0.2258954166666598,71.0,1.185770000000005
20109,55.0,0.23715400000000386,74.0,1.4954145000000096
20110,52.0,0.9486160000000012,68.0,0.5467985000000084
20111,54.0,0.25553650000000516,71.0,1.2361440000000101
20112,57.0,0.14563099999999451,69.0,0.14563100000000873
20113,55.0,0.14563100000000873,74.0,0.9448820000000069
20114,53.0,0.7086615000000052,70.0,0.23622050000000172
20115,52.0,0.23622050000000172,60.0,0.43811599999999373
20116,52.0,0.32858700000001306,55.0,0.10952899999998067
20117,53.0,0.10952899999998067,61.0,0.42366899999998964
20118,50.0,0.42366899999998964,59.0,0.43159299999999234
20119,47.0,0.43159299999999234,60.0,0.4299839999999904
20120,43.0,0.3224879999999928,57.0,0.1074959999999976
20121,48.0,0.1074959999999976,60.0,0.6434095000000184
20122,31.0,0.4268030000000067,44.0,0.43321299999999496
20123,50.0,0.2166065000000117,60.0,0.21660649999998327
20124,52.0,0.21660649999998327,61.0,0.4364590000000135
20125,55.0,0.3273442500000101,60.0,0.10911475000000337
20126,53.0,0.10911475000000337,63.0,0.4283880000000124
20127,50.0,0.4283880000000124,60.0,0.43321299999999496
20128,47.0,0.43321299999999496,61.0,0.4268030000000067
20129,45.0,0.1422676666666689,63.0,0.1422676666666689
20130,43.0,0.1422676666666689,64.0,0.1422676666666689
20131,48.0,0.1422676666666689,69.0,0.6473895000000027
20132,31.0,0.43159299999999234,46.0,0.43159300000002077
20133,50.0,0.21579650000001038,60.0,0.21579650000001038
20134,52.0,0.21579650000001038,58.0,0.3811939999999936
20135,52.0,0.12706466666665506,60.0,0.047649250000006305
20136,52.0,0.12706466666668348,62.0,0.047649250000006305
20137,53.0,0.12706466666665506,66.0,0.42366899999998964
20138,50.0,0.42366899999998964,59.0,0.43159299999999234
20139,47.0,0.43159299999999234,61.0,0.3811939999999936
20140,45.0,0.12706466666665506,57.0,0.047649250000006305
20141,43.0,0.12706466666668348,57.0,0.047649250000006305
20142,48.0,0.12706466666665506,60.0,0.6434095000000184
20143,31.0,0.4268030000000067,44.0,0.43321299999999496
20144,50.0,0.2166065000000117,60.0,0.21660649999998327
20145,52.0,0.21660649999998327,57.0,0.3831419999999923
20146,53.0,0.12771399999999744,60.0,0.04789274999998838
20147,55.0,0.12771399999999744,63.0,0.047892750000016804
20148,53.0,0.12771399999999744,68.0,0.4283880000000124
20149,50.0,0.4283880000000124,60.0,0.43321299999999496
20150,47.0,0.43321299999999496,61.0,0.4431639999999959
20151,45.0,0.1477213333333225,63.0,0.05539550000000304
20152,43.0,0.1477213333333509,64.0,0.05539550000000304
20153,48.0,0.1477213333333225,68.0,0.8849559999999883
20154,55.0,0.8849559999999883,45.0,0.45801499999998896
20155,56.0,0.45801499999998896,46.0,0.31250024999999937
20156,55.0,0.31250024999999937,45.0,0.10416674999999032
20157,53.0,0.10416674999999032,45.0,0.427819999999997
20158,56.0,0.427819999999997,48.0,0.5293795000000046
20159,56.0,0.5293795000000046,47.0,0.8480335000000139
20160,44.0,0.4216795000000104,25.0,0.42635400000000345
20161,55.0,0.42635400000000345,43.0,0.43165500000000634
20162,53.0,0.43165500000000634,42.0,0.0704225000000065
20163,55.0,0.0704225000000065,43.0,0.0704225000000065
20164,53.0,0.0704225000000065,44.0,0.07042249999997807
20165,52.0,0.07042249999997807,45.0,0.21126750000001948
20166,53.0,0.21126750000001948,47.0,0.43165500000000634
20167,54.0,0.21582749999998896,45.0,0.21582750000001738
20168,55.0,0.21582750000001738,51.0,0.46333750000002283
20169,50.0,0.22140200000001187,46.0,0.24193550000001096
20170,53.0,0.24193550000001096,54.0,0.8633100000000127
20171,24.0,0.43165500000000634,30.0,0.43165500000000634
20172,51.0,0.43165500000000634,45.0,0.4316549999999779
20173,48.0,0.4316549999999779,62.0,0.1384083333333308
20174,50.0,0.1384083333333308,57.0,0.1384083333333308
20175,48.0,0.1384083333333308,57.0,0.1384083333333308
20176,47.0,0.1384083333333308,63.0,0.2076125000000104
20177,48.0,0.4152250000000208,67.0,0.207612499999982
20178,50.0,0.4152249999999924,70.0,0.21505400000000918
20179,55.0,0.43010799999998994,72.0,0.8451120000000003
20180,26.0,0.4195799999999963,56.0,0.425532000000004
20181,50.0,0.425532000000004,76.0,0.20905899999999633
20182,46.0,0.20905899999999633,73.0,0.20905899999999633
20183,43.0,0.20905899999999633,76.0,0.4181180000000211
20184,50.0,0.20905899999999633,71.0,0.20905900000002475
20185,42.0,0.20905900000002475,73.0,0.43321299999999496
20186,43.0,0.43321299999999496,76.0,0.8912279999999839
20187,19.0,0.43321299999999496,50.0,0.45801499999998896
20188,55.0,0.45801499999998896,45.0,0.43010799999998994
20189,56.0,0.43010799999998994,46.0,0.31250024999999937
20190,55.0,0.31250024999999937,45.0,0.10416674999999032
20191,53.0,0.10416674999999032,45.0,0.427819999999997
20192,56.0,0.427819999999997,48.0,0.5486484999999846
20193,56.0,0.5486484999999846,47.0,0.8480335000000139
20194,44.0,0.4216795000000104,25.0,0.42635400000000345
20195,55.0,0.42635400000000345,43.0,0.43165500000000634
20196,53.0,0.43165500000000634,42.0,0.0704225000000065
20197,55.0,0.0704225000000065,43.0,0.0704225000000065
20198,53.0,0.0704225000000065,44.0,0.07042249999997807
20199,52.0,0.07042249999997807,45.0,0.21126750000001948
20200,53.0,0.21126750000001948,47.0,0.43165500000000634
20201,54.0,0.21582749999998896,45.0,0.21582750000001738
20202,55.0,0.21582750000001738,47.0,0.48558850000000575
20203,50.0,0.22471899999999323,42.0,0.12499996874998942
20204,50.0,0.13043475000000626,42.0,0.13043475000000626
20205,53.0,0.13043475000000626,53.0,0.8541900000000169
20206,41.0,0.42253500000001054,28.0,0.43165500000000634
20207,51.0,0.43165500000000634,45.0,0.43165500000000634
20208,48.0,0.43165500000000634,41.0,0.1384083333333308
20209,49.0,0.1384083333333308,38.0,0.1384083333333308
20210,48.0,0.1384083333333308,38.0,0.1384083333333308
20211,46.0,0.1384083333333308,42.0,0.4562740000000076
20212,48.0,0.4562740000000076,45.0,0.49423400000000584
20213,49.0,0.49423400000000584,47.0,1.1116250000000036
20214,53.0,0.5825240000000065,48.0,0.5291009999999972
20215,48.0,1.0940730000000087,40.0,0.3588517500000137
20216,47.0,0.3588517500000137,37.0,0.11961724999997614
20217,43.0,0.11961724999997614,40.0,0.500834999999995
20218,47.0,0.500834999999995,38.0,0.5253940000000057
20219,48.0,0.5253940000000057,39.0,1.1102869999999996
20220,12.0,0.5736139999999921,25.0,0.5366730000000075
20221,30.0,0.0,83.0,0.10550621874999999
20222,34.0,0.1063865,52.0,0.10330793125000001
20223,42.0,0.10417000000000001,52.0,0.10085625000000001
20224,42.0,0.10169799999999998,53.0,0.09873979791666665
20225,46.0,0.09956216666666662,62.0,0.09732942291666669
20226,54.0,0.09814641666666668,55.0,0.09680231250000004
20227,54.0,0.09761399999999998,53.0,0.0963834375
20228,58.0,0.09719250000000001,53.0,0.09586664166666659
20229,66.0,0.09667049999999988,71.0,0.09545297499999994
20230,58.0,0.09625683333333324,57.0,0.0958640479166667
20231,54.0,0.0966705000000001,57.0,0.09638081249999986
20232,54.0,0.09719250000000001,57.0,0.0967996687499999
20233,46.0,0.09761399999999987,64.0,0.09906000000000015
20234,42.0,0.09990175000000012,55.0,0.10211486458333341
20235,42.0,0.10297991666666673,56.0,0.1051220604166665
20236,34.0,0.10601491666666663,56.0,0.10652290624999994
20237,29.0,0.10736183333333327,84.0,0.10153949375000004
20238,35.0,0.10238983333333329,52.0,0.10040023958333344
20239,41.0,0.10123916666666677,52.0,0.09917018541666667
20240,41.0,0.10000074999999997,52.0,0.0980797145833332
20241,47.0,0.09890208333333339,67.0,0.09775674374999976
20242,53.0,0.0985764166666665,55.0,0.09732942291666635
20243,53.0,0.09814641666666635,53.0,0.09680231249999993
20244,59.0,0.09761400000000009,53.0,0.09638343750000011
20245,65.0,0.09719250000000024,77.0,0.09596779791666643
20246,59.0,0.09677425000000017,58.0,0.09638081250000008
20247,53.0,0.09719250000000024,58.0,0.09679966875000012
20248,53.0,0.09761400000000009,58.0,0.09732674375000006
20249,47.0,0.09814641666666679,66.0,0.09905482291666656
20250,41.0,0.09989374999999967,58.0,0.10164868124999993
20251,41.0,0.10251074999999998,58.0,0.10450539166666672
20252,35.0,0.10539191666666703,57.0,0.10739925833333341
20253,32.0,0.1083116666666668,90.0,0.0994983791666666
20254,39.0,0.10033449999999977,59.0,0.09916666666666663
20255,44.0,0.10000000000000009,60.0,0.09872993541666641
20256,44.0,0.09955774999999978,60.0,0.09840341666666674
20257,51.0,0.09922850000000016,70.0,0.09807904791666644
20258,56.0,0.09890141666666663,61.0,0.0976489104166669
20259,56.0,0.09846858333333364,61.0,0.09732942291666635
20260,63.0,0.09814641666666635,61.0,0.09701191874999981
20261,68.0,0.09782624999999978,78.0,0.09659081249999968
20262,63.0,0.09740250000000028,63.0,0.09679966875000012
20263,56.0,0.09761400000000009,63.0,0.09711575625000002
20264,56.0,0.09793275000000001,63.0,0.09743391041666705
20265,51.0,0.09825358333333423,72.0,0.09850821250000052
20266,44.0,0.0993443333333337,63.0,0.10153409791666768
20267,44.0,0.10239616666666684,63.0,0.10475190416666624
20268,39.0,0.10564158333333307,63.0,0.10818046666666703
20269,30.0,0.10909958333333325,96.0,0.09983232291666688
20270,34.0,0.10067125000000043,62.0,0.09938966666666627
20271,42.0,0.10022299999999973,62.0,0.09894793541666669
20272,42.0,0.09977850000000021,63.0,0.09840341666666674
20273,46.0,0.09922849999999972,74.0,0.0979704645833337
20274,54.0,0.09879283333333344,64.0,0.09743658958333334
20275,54.0,0.09825358333333334,63.0,0.09701191874999981
20276,58.0,0.09782624999999978,63.0,0.09648843750000058
20277,66.0,0.09729749999999981,86.0,0.09638081250000052
20278,58.0,0.09719250000000024,67.0,0.09679966875000012
20279,54.0,0.09761400000000009,67.0,0.09711575625000002
20280,54.0,0.09793275000000001,67.0,0.09754107708333315
20281,46.0,0.09836075000000033,74.0,0.09894558333333237
20282,42.0,0.09978733333333256,63.0,0.10258720833333346
20283,42.0,0.10346133333333274,63.0,0.10650411874999932
20284,34.0,0.10740991666666666,63.0,0.11045866458333364
20285,29.0,0.11139149999999987,97.0,0.0994983791666666
20286,35.0,0.10033449999999977,59.0,0.09905868541666685
20287,41.0,0.09988924999999949,59.0,0.0987299354166673
20288,41.0,0.09955775000000067,59.0,0.09829416666666635
20289,47.0,0.09911924999999933,72.0,0.09786188125000006
20290,53.0,0.0986842499999998,59.0,0.09743658958333334
20291,53.0,0.09825358333333334,58.0,0.09711841875000005
20292,59.0,0.0979327500000009,58.0,0.09669656249999914
20293,65.0,0.09750824999999974,86.0,0.09627843749999965
20294,59.0,0.09708749999999977,61.0,0.09669391874999977
20295,53.0,0.09750825000000063,60.0,0.09700925624999979
20296,53.0,0.09782624999999978,60.0,0.09743391041666616
20297,47.0,0.09825358333333334,67.0,0.09818151875000058
20298,41.0,0.09901208333333322,59.0,0.10084583541666614
20299,41.0,0.10170199999999952,58.0,0.10401935833333287
20300,35.0,0.10490274999999993,57.0,0.10752958333333318
20301,30.0,0.10844533333333395,93.0,0.0994983791666666
20302,35.0,0.10033450000000066,59.0,0.09927816666666622
20303,42.0,0.1001114999999988,59.0,0.09905868541666685
20304,42.0,0.09988925000000037,58.0,0.09883718541666653
20305,47.0,0.09966775000000005,68.0,0.09850993541666675
20306,54.0,0.09933775000000011,58.0,0.09829416666666546
20307,54.0,0.09911924999999933,58.0,0.09807904791666644
20308,59.0,0.09890141666666707,58.0,0.09775674374999888
20309,66.0,0.09857641666666517,75.0,0.09764621458333345
20310,59.0,0.09846858333333408,59.0,0.09796774999999869
20311,54.0,0.09879283333333255,58.0,0.09840068541666724
20312,54.0,0.09922850000000061,58.0,0.09872718541666536
20313,47.0,0.09955774999999889,64.0,0.09982957291666672
20314,42.0,0.10067416666666595,57.0,0.10234811041666703
20315,42.0,0.103216166666666,57.0,0.10499815416666713
20316,35.0,0.10588783333333218,56.0,0.1018045833333332
20317,27.0,0.10263791666666577,88.0,0.10689372708333345
20318,30.0,0.10778658333333269,55.0,0.10488280625000002
20319,39.0,0.10576000000000008,55.0,0.10295039374999959
20320,39.0,0.10380949999999878,55.0,0.101199322916667
20321,42.0,0.10204391666666623,59.0,0.09939041666666704
20322,51.0,0.10022374999999961,66.0,0.40000000000000036
20323,42.0,0.09999999999999964,50.0,0.09916666666666707
20324,39.0,0.10000000000000142,49.0,0.09916666666666529
20325,42.0,0.09999999999999964,56.0,0.09916666666666707
20326,49.0,0.09999999999999964,61.0,0.40000000000000036
20327,42.0,0.09999999999999964,49.0,0.09916666666666707
20328,39.0,0.09999999999999964,48.0,0.09916666666666707
20329,42.0,0.10000000000000142,53.0,0.09916666666666529
20330,47.0,0.09999999999999964,57.0,0.39782683333333324
20331,42.0,0.09999999999999964,46.0,0.09916666666666707
20332,39.0,0.09999999999999964,46.0,0.09832247916666681
20333,41.0,0.09913416666666564,50.0,0.09786485208333495
20334,46.0,0.09869266666666832,56.0,0.4013519999999975
20335,41.0,0.09955774999999889,42.0,0.09927537916666651
20336,38.0,0.10011150000000058,42.0,0.09972007291666607
20337,40.0,0.10055899999999873,48.0,0.10027915625000006
20338,46.0,0.10112374999999929,52.0,0.40957133333333573
20339,40.0,0.10158041666666762,42.0,0.10130359166666736
20340,37.0,0.10215683333333381,40.0,0.10176666875000073
20341,39.0,0.10262283333333322,46.0,0.10234918125000014
20342,44.0,0.10321125000000109,49.0,0.4178985833333311
20343,39.0,0.10368691666666585,39.0,0.10341658749999993
20344,36.0,0.10428766666666611,38.0,0.10389904166666675
20345,38.0,0.10477316666666603,42.0,0.10426430833333278
20346,44.0,0.10515083333333308,47.0,0.36655158333333127
20347,38.0,0.1119912499999991,37.0,0.12048091666666672
20348,35.0,0.12152258333333243,35.0,0.1318909604166656
20349,30.0,0.13303774999999973,85.0,0.10664090416666738
20350,34.0,0.10753058333333243,56.0,0.10403044375000015
20351,42.0,0.10489849999999912,56.0,0.10143307291666659
20352,42.0,0.10227766666666582,56.0,0.0990686666666658
20353,46.0,0.09989374999999967,64.0,0.09872993541666553
20354,54.0,0.09955774999999889,57.0,0.09829416666666724
20355,54.0,0.0991192500000011,56.0,0.09775674374999888
20356,58.0,0.09857641666666517,56.0,0.09732942291666724
20357,66.0,0.09814641666666724,79.0,0.0970092562499989
20358,58.0,0.0978262499999989,58.0,0.09743391041666705
20359,54.0,0.09825358333333334,58.0,0.09796774999999869
20360,54.0,0.09879283333333255,58.0,0.09840068541666724
20361,46.0,0.09922850000000061,66.0,0.09861765624999919
20362,42.0,0.09945658333333185,56.0,0.10223467083333304
20363,42.0,0.10310574999999922,57.0,0.10625161874999911
20364,34.0,0.10715741666666645,57.0,0.10652290625000127
20365,29.0,0.10736183333333393,91.0,0.10131175208333332
20366,35.0,0.1021679166666658,53.0,0.1009671562500003
20367,41.0,0.10181174999999953,53.0,0.09961483333333554
20368,41.0,0.10044816666666811,53.0,0.09840416666666663
20369,47.0,0.09922925000000049,67.0,0.09775674374999888
20370,53.0,0.09857641666666517,55.0,0.09732942291666724
20371,53.0,0.09814641666666724,53.0,0.09680231250000126
20372,59.0,0.09761400000000009,53.0,0.09638343750000011
20373,65.0,0.09719250000000024,75.0,0.09596779791666599
20374,59.0,0.09677424999999928,58.0,0.09638081249999964
20375,53.0,0.09719249999999846,57.0,0.09679966875000012
20376,53.0,0.09761400000000187,57.0,0.09732674374999917
20377,47.0,0.09814641666666546,64.0,0.099054822916667
20378,41.0,0.09989374999999967,57.0,0.10164868124999948
20379,41.0,0.10251075000000043,57.0,0.10450539166666672
20380,35.0,0.1053919166666688,56.0,0.1073992583333343
20381,32.0,0.10831166666666547,92.0,0.09949837916666837
20382,39.0,0.10033449999999888,58.0,0.09916666666666529
20383,44.0,0.10000000000000142,58.0,0.0987299354166673
20384,44.0,0.09955775000000244,59.0,0.09840341666666674
20385,51.0,0.09922849999999883,69.0,0.09807904791666644
20386,56.0,0.09890141666666707,60.0,0.09764891041666601
20387,56.0,0.0984685833333323,60.0,0.09732942291666902
20388,63.0,0.09814641666666901,60.0,0.09701191874999893
20389,68.0,0.09782625000000067,80.0,0.09659081250000057
20390,46.0,0.09857641666666694,78.0,0.09743658958333512
20391,53.0,0.09825358333333511,68.0,0.09701191874999893
20392,53.0,0.09782625000000067,67.0,0.09669656250000003
20393,58.0,0.09750824999999708,67.0,0.09638343750000189
20394,65.0,0.09719250000000201,80.0,0.09606960416666865
20395,65.0,0.09687866666666878,68.0,0.09648581249999921
20396,70.0,0.09729749999999626,68.0,0.09700925625000067
20397,77.0,0.09782625000000067,68.0,0.09764491666666686
20398,70.0,0.09846999999999895,78.0,0.09971882291666745
20399,65.0,0.10056341666667024,67.0,0.10234811041666347
20400,65.0,0.103216166666666,67.0,0.10499815416666891
20401,58.0,0.10588783333333396,67.0,0.10211891874999779
20402,53.0,0.10297508333333383,70.0,0.10165267499999686
20403,53.0,0.10250591666666509,60.0,0.10107804166666767
20404,46.0,0.10192550000000011,60.0,0.10062123958333302
20405,41.0,0.10146583333333226,60.0,0.10005815625000025
20406,41.0,0.10089708333333647,83.0,0.40575891666666664
20407,34.0,0.10078416666666712,53.0,0.10039290625000064
20408,29.0,0.10123749999999987,53.0,0.10073295833333518
20409,34.0,0.10158041666666762,53.0,0.10130359166666736
20410,27.0,0.10215683333333203,80.0,0.1016497520833326
20411,32.0,0.10250591666666864,55.0,0.10211597708333287
20412,39.0,0.10297508333333028,59.0,0.41753975000000665
20413,32.0,0.10344824999999958,57.0,0.10305836041666439
20414,27.0,0.10392641666666691,75.0,0.10365629166666679
20415,32.0,0.10453041666666607,58.0,0.10475127500000525
20416,36.0,0.10563466666667409,59.0,0.21328375000000221
20417,32.0,0.10676241666666186,53.0,0.1056410520833353
20418,27.0,0.10652133333334035,77.0,0.09949837916666837
20419,32.0,0.10033450000000244,52.0,0.09916666666666885
20420,39.0,0.10000000000000142,52.0,0.09872993541667086
20421,39.0,0.09955775000000244,52.0,0.09840341666666319
20422,44.0,0.09922849999999528,61.0,0.09807904791666999
20423,51.0,0.09890141666666352,53.0,0.09764891041667312
20424,51.0,0.09846858333333586,53.0,0.09732942291666546
20425,56.0,0.09814641666666546,53.0,0.09701191874999893
20426,63.0,0.09782624999999712,69.0,0.09659081249999701
20427,56.0,0.09740250000000117,55.0,0.0967996687499948
20428,51.0,0.09761399999999298,55.0,0.09711575625000535
20429,51.0,0.09793275000000534,55.0,0.09743391041666882
20430,44.0,0.09825358333333156,61.0,0.09850821250000052
20431,39.0,0.09934433333333459,53.0,0.10153409791666235
20432,39.0,0.10239616666666507,53.0,0.10475190416666891
20433,32.0,0.10564158333333751,53.0,0.10818046666666703
20434,27.0,0.10909958333333947,77.0,0.09949837916666837
20435,31.0,0.10033450000000244,52.0,0.09916666666666885
20436,39.0,0.10000000000000142,52.0,0.09872993541667086
20437,39.0,0.09955775000000244,52.0,0.09840341666666319
20438,43.0,0.09922849999999528,61.0,0.09807904791666999
20439,51.0,0.09890141666666352,53.0,0.09764891041667312
20440,51.0,0.09846858333333586,53.0,0.09732942291666546
20441,55.0,0.09814641666666546,53.0,0.09701191874999893
20442,63.0,0.09782624999999712,69.0,0.09659081249999701
20443,55.0,0.09740250000000117,55.0,0.0967996687499948
20444,51.0,0.09761399999999298,55.0,0.09711575625000535
20445,51.0,0.09793275000000534,55.0,0.09743391041666882
20446,43.0,0.09825358333333156,61.0,0.10019819375000338
20447,39.0,0.10106625000000236,53.0,0.11178102083333386
20448,39.0,0.11275758333333386,53.0,0.12707817916666642
20449,31.0,0.12819424999999995,53.0,0.14750034999999428
20450,27.0,0.14880924999999934,75.0,0.10223364374999733
20451,30.0,0.10309275000000184,48.0,0.10176959166666677
20452,39.0,0.102622833333335,48.0,0.10130649375000189
20453,39.0,0.10215683333333203,48.0,0.10096279166666733
20454,42.0,0.10181024999999977,56.0,0.10039575000000411
20455,51.0,0.10123750000000342,49.0,0.10005815625000025
20456,51.0,0.10089708333333647,49.0,0.09961062916666918
20457,54.0,0.10044675000000325,49.0,0.09905868541667218
20458,63.0,0.09988925000000393,63.0,0.09883718541666298
20459,63.0,0.09966775000000183,49.0,0.09916666666666885
20460,66.0,0.10000000000000142,49.0,0.09949837916666837
20461,75.0,0.10033450000000244,49.0,0.09983232291666866
20462,66.0,0.10067124999999777,56.0,0.10016825000000296
20463,63.0,0.10101000000000226,49.0,0.10153409791666235
20464,63.0,0.10239616666666507,49.0,0.10475190416666891
20465,54.0,0.10564158333333751,49.0,0.10818046666666703
20466,51.0,0.10909958333333947,60.0,0.10258618124999686
20467,51.0,0.10344824999999958,48.0,0.10211891875000134
20468,42.0,0.10297508333333383,48.0,0.10165267500000397
20469,39.0,0.10250591666666509,48.0,0.10107804166666767
20470,39.0,0.10192550000000011,69.0,0.4026849999999982
20471,30.0,0.10067124999999777,49.0,0.09983232291666866
20472,27.0,0.10067125000000487,49.0,0.09983232291666155
20473,30.0,0.10067124999999777,49.0,0.09983232291666866
20474,25.0,0.10067124999999777,69.0,0.10016825000000296
20475,30.0,0.10101000000000226,49.0,0.10061837500000337
20476,37.0,0.10146583333333581,64.0,0.10107516041666997
20477,30.0,0.10192550000000011,51.0,0.1017666687499954
20478,28.0,0.102622833333335,68.0,0.10188358541666531
20479,30.0,0.1027397499999978,49.0,0.10211459791666755
20480,42.0,0.10297666666667027,60.0,0.10475190416666891
20481,30.0,0.10564158333333751,49.0,0.10818046666666703
20482,27.0,0.10909958333333947,75.0,0.09949837916666837
20483,30.0,0.10033450000000244,48.0,0.09916666666666885
20484,39.0,0.10000000000000142,48.0,0.09872993541667086
20485,39.0,0.09955775000000244,48.0,0.1981299166666588
20486,42.0,0.09922849999999528,56.0,0.09807904791666999
20487,51.0,0.09890141666666352,49.0,0.09764891041667312
20488,51.0,0.09846858333333586,49.0,0.09732942291666546
20489,54.0,0.09814641666666546,49.0,0.09701191874999893
20490,63.0,0.09782624999999712,63.0,0.09659081249999701
20491,63.0,0.09740250000000117,49.0,0.0967996687499948
20492,66.0,0.09761399999999298,49.0,0.09711575625000535
20493,75.0,0.09793275000000534,49.0,0.09743391041666882
20494,66.0,0.09825358333333156,56.0,0.09850821250000052
20495,63.0,0.09934433333333459,49.0,0.10153409791666235
20496,63.0,0.10239616666666507,49.0,0.10475190416666891
20497,54.0,0.10564158333333751,49.0,0.10630700416666627
20498,51.0,0.10717808333333778,60.0,0.10354052708333228
20499,51.0,0.10440858333333125,48.0,0.1030613645833327
20500,42.0,0.10392641666666691,48.0,0.10247064374999582
20501,39.0,0.10332975000000033,48.0,0.10200125208332622
20502,39.0,0.10285741666666581,69.0,0.40575958333332807
20503,30.0,0.1022729166666636,49.0,0.10016825000000296
20504,27.0,0.10101000000000226,49.0,0.10016824999999585
20505,30.0,0.10100999999999516,49.0,0.1006192083333346
20506,25.0,0.10146666666666704,69.0,0.10107516041666997
20507,30.0,0.10192550000000011,49.0,0.1016497520833326
20508,37.0,0.10250591666666509,64.0,0.1019983104166613
20509,30.0,0.10285741666666581,51.0,0.10246768124999761
20510,23.0,0.10332974999999323,68.0,0.10305836041666794
20511,30.0,0.10392641666666691,49.0,0.10153409791666235
20512,35.0,0.10239616666666507,60.0,0.10475190416666891
20513,30.0,0.10564158333333751,49.0,0.10818046666666703
20514,25.0,0.10909958333333947,75.0,0.09949837916666837
20515,30.0,0.10033450000000244,48.0,0.09916666666666885
20516,37.0,0.10000000000000142,48.0,0.09872993541667086
20517,37.0,0.09955775000000244,48.0,0.1981299166666588
20518,42.0,0.09922849999999528,56.0,0.09807904791666999
20519,49.0,0.09890141666666352,49.0,0.09764891041667312
20520,49.0,0.09846858333333586,49.0,0.09732942291666546
20521,54.0,0.09814641666666546,49.0,0.09701191874999893
20522,61.0,0.09782624999999712,63.0,0.09659081249999701
20523,61.0,0.09740250000000117,49.0,0.0967996687499948
20524,66.0,0.09761399999999298,49.0,0.09711575625000535
20525,73.0,0.09793275000000534,49.0,0.09743391041666882
20526,66.0,0.09825358333333156,56.0,0.09850821250000052
20527,61.0,0.09934433333333459,49.0,0.10153409791666235
20528,61.0,0.10239616666666507,49.0,0.10475190416666891
20529,54.0,0.10564158333333751,49.0,0.10818046666666703
20530,49.0,0.10909958333333947,60.0,0.10188358541666531
20531,49.0,0.1027397499999978,48.0,0.10188358541666531
20532,42.0,0.1027397500000049,48.0,0.10188358541666531
20533,37.0,0.1027397499999978,48.0,0.10188358541666531
20534,37.0,0.1027397499999978,66.0,0.41225583333333304
20535,30.0,0.1027397500000049,46.0,0.10211597708332931
20536,25.0,0.10297508333332672,46.0,0.10234918124999837
20537,30.0,0.10321125000000109,46.0,0.10247064374999582
20538,23.0,0.10332975000000033,66.0,0.10246768124999761
20539,28.0,0.10332974999999323,47.0,0.10317852708332964
20540,35.0,0.10404658333333572,61.0,0.422808416666669
20541,28.0,0.10465133333333654,49.0,0.10450646874999592
20542,23.0,0.10538675000000097,63.0,0.10512139166666401
20543,28.0,0.10600791666666254,46.0,0.1058695604166715
20544,32.0,0.10676241666666897,56.0,0.2214685000000003
20545,28.0,0.10909958333333947,46.0,0.11142194791666071
20546,23.0,0.11236891666666082,72.0,0.09949837916666837
20547,28.0,0.10033450000000244,45.0,0.09916666666666885
20548,35.0,0.10000000000000142,45.0,0.09872993541667086
20549,35.0,0.09955775000000244,45.0,0.09840341666666319
20550,40.0,0.09922849999999528,52.0,0.09807904791666999
20551,47.0,0.09890141666666352,45.0,0.09764891041667312
20552,47.0,0.09846858333333586,45.0,0.09732942291666546
20553,52.0,0.09814641666666546,44.0,0.09701191874999893
20554,59.0,0.09782624999999712,62.0,0.09659081249999701
20555,52.0,0.09740250000000117,45.0,0.0967996687499948
20556,47.0,0.09761399999999298,45.0,0.09711575625000535
20557,47.0,0.09793275000000534,44.0,0.09743391041666882
20558,40.0,0.09825358333333156,50.0,0.09850821250000052
20559,35.0,0.09934433333333459,42.0,0.10153409791666235
20560,35.0,0.10239616666666507,42.0,0.10475190416666891
20561,28.0,0.10564158333333751,42.0,0.10818046666666703
20562,23.0,0.10909958333333947,64.0,0.09949837916666837
20563,27.0,0.10033450000000244,42.0,0.09916666666666885
20564,35.0,0.10000000000000142,41.0,0.09872993541667086
20565,35.0,0.09955775000000244,41.0,0.09850993541666497
20566,39.0,0.09933774999999656,50.0,0.09850993541667208
20567,47.0,0.09933775000000367,39.0,0.09850993541666497
20568,39.0,0.09933774999999656,38.0,0.09850993541667208
20569,35.0,0.09933775000000367,38.0,0.09872516666666087
20570,21.0,0.09955849999999344,61.0,0.09916666666666885
20571,27.0,0.10000000000000142,39.0,0.09949837916666837
20572,33.0,0.10033450000000244,46.0,0.09983232291666866
20573,33.0,0.10067124999999777,40.0,0.10016825000000296
20574,39.0,0.10101000000000226,48.0,0.10235345833333298
20575,45.0,0.10322758333333582,37.0,0.10753379999999879
20576,39.0,0.10845291666667123,44.0,0.11438074999999515
20577,33.0,0.11438074999999515,36.0,0.11301149375000819
20578,22.0,0.11386183333333832,61.0,0.10119041041666321
20579,26.0,0.10204075000000046,38.0,0.10084754166666698
20580,34.0,0.10169499999999942,38.0,0.10050665624999766
20581,34.0,0.10135125000000045,38.0,0.10016825000000296
20582,38.0,0.10101000000000226,46.0,0.09983232291666866
20583,46.0,0.10067124999999777,39.0,0.09949837916666837
20584,46.0,0.10033450000000244,39.0,0.09916666666666885
20585,50.0,0.10000000000000142,40.0,0.09883718541667008
20586,58.0,0.09966775000000183,56.0,0.09829754791667256
20587,50.0,0.09911991666666609,41.0,0.09807633333333854
20588,46.0,0.09890141666667063,41.0,0.0986171854166713
20589,46.0,0.09944775000000305,41.0,0.09905591666666425
20590,38.0,0.09988925000000393,47.0,0.09916612916666878
20591,34.0,0.10000225000000285,41.0,0.10153409791666235
20592,34.0,0.10239616666666507,41.0,0.10475190416666891
20593,26.0,0.10564158333333751,41.0,0.10818046666666703
20594,23.0,0.10909958333333947,66.0,0.09949837916666837
20595,27.0,0.10033450000000244,41.0,0.09938966666666005
20596,35.0,0.10022299999999262,41.0,0.09916666666666885
20597,35.0,0.10000000000000142,41.0,0.09883718541667008
20598,39.0,0.09966775000000183,49.0,0.09861993541666436
20599,47.0,0.09944775000000305,44.0,0.09840341666666319
20600,47.0,0.09922849999999528,44.0,0.09818491666666773
20601,51.0,0.09900999999999982,44.0,0.0978618812499974
20602,59.0,0.09868424999999803,60.0,0.09754107708333493
20603,51.0,0.09836074999999767,45.0,0.09775404791666631
20604,47.0,0.09857641666666694,45.0,0.09796775000000224
20605,47.0,0.09879283333333433,45.0,0.09818491666666773
20606,39.0,0.09900999999999982,51.0,0.09850993541666497
20607,35.0,0.09933774999999656,45.0,0.099955847916668
20608,35.0,0.10081791666667073,45.0,0.10475190416666891
20609,27.0,0.10564158333333751,45.0,0.10818046666666703
20610,27.0,0.10909958333333947,72.0,0.09949837916666837
20611,32.0,0.10033450000000244,45.0,0.09916666666666885
20612,39.0,0.10000000000000142,45.0,0.09872993541667086
20613,39.0,0.09955775000000244,45.0,0.09840341666666319
20614,44.0,0.09922849999999528,52.0,0.09807904791666999
20615,51.0,0.09890141666666352,46.0,0.09764891041667312
20616,51.0,0.09846858333333586,46.0,0.09732942291666546
20617,56.0,0.09814641666666546,45.0,0.09701191874999893
20618,63.0,0.09782624999999712,64.0,0.09659081249999701
20619,56.0,0.09740250000000117,46.0,0.0967996687499948
20620,51.0,0.09761399999999298,46.0,0.09711575625000535
20621,51.0,0.09793275000000534,46.0,0.09743391041666882
20622,44.0,0.09825358333333156,51.0,0.09850821250000052
20623,39.0,0.09934433333333459,45.0,0.10153409791666235
20624,39.0,0.10239616666666507,45.0,0.10475190416666891
20625,32.0,0.10564158333333751,45.0,0.10818046666666703
20626,26.0,0.10909958333333947,69.0,0.09949837916666837
20627,32.0,0.10033450000000244,44.0,0.09916666666666885
20628,38.0,0.10000000000000142,44.0,0.09872993541667086
20629,38.0,0.09955775000000244,44.0,0.09840341666666319
20630,44.0,0.09922849999999528,51.0,0.09807904791666999
20631,50.0,0.09890141666666352,44.0,0.09764891041667312
20632,50.0,0.09846858333333586,44.0,0.09732942291666546
20633,56.0,0.09814641666666546,44.0,0.09701191874999893
20634,62.0,0.09782624999999712,62.0,0.09659081249999701
20635,56.0,0.09740250000000117,45.0,0.0967996687499948
20636,50.0,0.09761399999999298,45.0,0.09711575625000535
20637,50.0,0.09793275000000534,45.0,0.09743391041666882
20638,44.0,0.09825358333333156,50.0,0.09850821250000052
20639,38.0,0.09934433333333459,44.0,0.10153409791666235
20640,38.0,0.10239616666666507,44.0,0.10475190416666891
20641,32.0,0.10564158333333751,44.0,0.10818046666666703
20642,26.0,0.10909958333333947,68.0,0.09949837916666837
20643,32.0,0.10033450000000244,42.0,0.09916666666666885
20644,38.0,0.10000000000000142,42.0,0.09872993541667086
20645,38.0,0.09955775000000244,42.0,0.09840341666666319
20646,44.0,0.09922849999999528,50.0,0.09807904791666999
20647,50.0,0.09890141666666352,42.0,0.09764891041667312
20648,50.0,0.09846858333333586,42.0,0.09732942291666546
20649,56.0,0.09814641666666546,45.0,0.09701191874999893
20650,62.0,0.09782624999999712,62.0,0.09659081249999701
20651,56.0,0.09740250000000117,46.0,0.0967996687499948
20652,50.0,0.09761399999999298,46.0,0.09711575625000535
20653,50.0,0.09793275000000534,46.0,0.09743391041666882
20654,44.0,0.09825358333333156,51.0,0.09850821250000052
20655,38.0,0.09934433333333459,45.0,0.10153409791666235
20656,38.0,0.10239616666666507,45.0,0.10475190416666891
20657,32.0,0.10564158333333751,45.0,0.10818046666666703
20658,27.0,0.10909958333333947,73.0,0.09905943541667028
20659,32.0,0.09989000000000203,47.0,0.0984034166666703
20660,39.0,0.09922850000000238,47.0,0.0979704645833337
20661,39.0,0.09879283333333433,47.0,0.09743658958333157
20662,44.0,0.09825358333333156,56.0,0.09701191874999893
20663,51.0,0.09782624999999712,48.0,0.09648843749999969
20664,51.0,0.09729749999999626,48.0,0.09607221458333726
20665,56.0,0.09687866666666878,48.0,0.09545555208332956
20666,63.0,0.09625683333332802,69.0,0.0957602979166694
20667,56.0,0.09656675000000092,49.0,0.09617402083333104
20668,51.0,0.09698308333333472,50.0,0.09669391874999889
20669,51.0,0.09750824999999708,50.0,0.09711575624999824
20670,44.0,0.09793274999999824,57.0,0.09850821250000052
20671,39.0,0.09934433333333459,49.0,0.10153409791666235
20672,39.0,0.10239616666666507,49.0,0.10475190416666891
20673,32.0,0.10564158333333751,49.0,0.10461968541667233
20674,30.0,0.10544750000000391,79.0,0.09840341666666319
20675,33.0,0.09922849999999528,49.0,0.0979704645833337
20676,42.0,0.09879283333333433,49.0,0.09754107708333493
20677,46.0,0.10239616666666507,67.0,0.1047519041666618
20678,38.0,0.10564158333333751,67.0,0.10584006041668204
20679,22.0,0.10669916666667234,100.0,0.10211891875000845
20680,26.0,0.10297508333333383,61.0,0.10165267500001107
20681,34.0,0.10250591666667219,62.0,0.10130649375000189
20682,34.0,0.10215683333333914,64.0,0.10084754166666698
20683,38.0,0.10169500000000653,75.0,0.1003957499999899
20684,46.0,0.10123749999999632,66.0,0.10005815625000025
20685,38.0,0.10089708333333647,67.0,0.09961062916666208
20686,34.0,0.10044675000000325,68.0,0.09917018541666778
20687,22.0,0.10000074999999242,105.0,0.09894516666666675
20688,27.0,0.09977849999999933,68.0,0.09938687916665856
20689,34.0,0.10022299999999973,68.0,0.09972007291666785
20690,34.0,0.10055900000000406,69.0,0.1002791562499965
20691,39.0,0.10112374999999929,80.0,0.10153314375001798
20692,46.0,0.10239225000000829,70.0,0.10329587500000059
20693,39.0,0.10416999999999632,71.0,0.10512090416666808
20694,34.0,0.10601058333334379,72.0,0.106351962500014
20695,22.0,0.10722304166667129,106.0,0.10211891875000845
20696,28.0,0.10297508333333383,69.0,0.10153949375001048
20697,34.0,0.10238983333334772,70.0,0.10085107291666873
20698,34.0,0.10169566666667151,71.0,0.10017190624999728
20699,40.0,0.1010108333333335,81.0,0.09983232291666866
20700,46.0,0.10067125000000487,72.0,0.09983232291665445
20701,40.0,0.10067124999999066,74.0,0.09983232291666866
20702,34.0,0.10067125000000487,76.0,0.09983232291666866
20703,22.0,0.10067125000000487,109.0,0.10061699374999478
20704,28.0,0.10146733333333202,73.0,0.10199693124999953
20705,34.0,0.10285899999999515,75.0,0.10341520833334528
20706,28.0,0.104289333333341,75.0,0.10369984166666768
20707,22.0,0.10455308333334301,96.0,0.10512988541667312
20708,29.0,0.10602916666667284,73.0,0.11115713541666139
20709,34.0,0.11211133333333123,72.0,0.11806668750000426
20710,29.0,0.11907883333333302,72.0,0.13461527916666682
20711,30.0,0.13574649999999622,108.0,0.10550621874999422
20712,34.0,0.10638649999999927,70.0,0.1033079312500007
20713,42.0,0.10416999999999632,70.0,0.10085625000000675
20714,42.0,0.10169800000001317,70.0,0.09873979791666443
20715,46.0,0.09956216666665796,82.0,0.09732942291667257
20716,54.0,0.09814641666666546,72.0,0.09680231250000304
20717,54.0,0.09761399999999298,70.0,0.096383437500009
20718,58.0,0.09719250000000557,70.0,0.09586664166666026
20719,66.0,0.09667050000000188,90.0,0.0954529750000006
20720,58.0,0.09625683333334223,74.0,0.09586404791666325
20721,54.0,0.09667049999998767,74.0,0.09638081250000141
20722,54.0,0.09719249999999136,74.0,0.096799668750009
20723,46.0,0.0976140000000072,82.0,0.09861765624999919
20724,42.0,0.0994565833333354,70.0,0.10223467083334015
20725,42.0,0.10310574999999744,70.0,0.10625161875000799
20726,34.0,0.10715741666666645,70.0,0.1065229062500066
20727,29.0,0.10736183333334282,107.0,0.10153949374999627
20728,35.0,0.10238983333333351,66.0,0.10040023958333677
20729,41.0,0.10123916666667299,66.0,0.09917018541666778
20730,41.0,0.10000074999999242,66.0,0.09807971458333498
20731,47.0,0.0989020833333285,82.0,0.09775674375001131
20732,53.0,0.09857641666667405,67.0,0.09732942291667257
20733,53.0,0.09814641666666546,66.0,0.09680231250000304
20734,59.0,0.09761399999999298,66.0,0.096383437500009
20735,65.0,0.09719250000000557,92.0,0.09596779791667132
20736,59.0,0.09677424999999573,72.0,0.09638081250000141
20737,53.0,0.09719249999999136,70.0,0.096799668750009
20738,53.0,0.0976140000000072,70.0,0.09732674375000272
20739,47.0,0.09814641666666546,79.0,0.09905482291667056
20740,41.0,0.09989375000000678,69.0,0.10164868125001192
20741,41.0,0.10251075000000753,69.0,0.10450539166666317
20742,35.0,0.1053919166666617,67.0,0.10739925833333075
20743,32.0,0.10831166666666547,107.0,0.09949837916666127
20744,39.0,0.10033450000000244,70.0,0.09916666666666174
20745,44.0,0.09999999999999432,70.0,0.09872993541667086
20746,44.0,0.09955775000000244,70.0,0.0984034166666703
20747,51.0,0.09922850000000949,82.0,0.09807904791666999
20748,56.0,0.09890141666666352,72.0,0.09764891041666601
20749,56.0,0.09846858333332875,72.0,0.09732942291667257
20750,63.0,0.09814641666666546,72.0,0.09701191874999893
20751,68.0,0.09782624999999712,88.0,0.09659081249999701
20752,63.0,0.09740250000000117,74.0,0.0967996687499948
20753,56.0,0.09761399999999298,74.0,0.09711575625000535
20754,56.0,0.09793274999999824,74.0,0.09743391041666882
20755,51.0,0.09825358333333156,82.0,0.09850821249999342
20756,44.0,0.09934433333333459,72.0,0.10153409791666945
20757,44.0,0.10239616666666507,72.0,0.1047519041666618
20758,39.0,0.10564158333333751,72.0,0.10818046666668124
20759,30.0,0.10909958333334657,109.0,0.09983232291666866
20760,34.0,0.10067125000000487,70.0,0.09938966666666715
20761,42.0,0.10022299999999973,70.0,0.09894793541666047
20762,42.0,0.09977849999999933,70.0,0.0984034166666703
20763,46.0,0.09922850000000949,82.0,0.09797046458332659
20764,54.0,0.09879283333332012,72.0,0.09743658958333867
20765,54.0,0.09825358333333156,70.0,0.09701191874999893
20766,58.0,0.09782624999999712,70.0,0.09648843749999969
20767,66.0,0.09729750000001047,91.0,0.09638081250000141
20768,58.0,0.09719249999999136,74.0,0.096799668750009
20769,54.0,0.0976140000000072,74.0,0.09711575625000535
20770,54.0,0.09793274999999824,74.0,0.09754107708333493
20771,46.0,0.09836074999999767,82.0,0.09894558333331815
20772,42.0,0.09978733333332457,70.0,0.10258720833333257
20773,42.0,0.1034613333333283,70.0,0.10650411875000998
20774,34.0,0.10740991666666844,70.0,0.11045866458333364
20775,29.0,0.11139150000001052,110.0,0.09949837916666127
20776,35.0,0.10033450000000244,66.0,0.09905868541666507
20777,41.0,0.09988924999998972,66.0,0.09872993541667086
20778,41.0,0.09955775000000244,66.0,0.09829416666666191
20779,47.0,0.0991192500000011,82.0,0.0978618812499974
20780,53.0,0.09868425000000514,67.0,0.09743658958333867
20781,53.0,0.09825358333333156,66.0,0.09711841875000005
20782,59.0,0.09793274999999824,66.0,0.09669656250000003
20783,65.0,0.09750825000000418,95.0,0.09627843750000409
20784,59.0,0.09708750000000066,72.0,0.09669391875000599
20785,53.0,0.09750825000000418,70.0,0.09700925625000423
20786,53.0,0.09782624999999712,70.0,0.09743391041666882
20787,47.0,0.09825358333333156,79.0,0.09818151874999614
20788,41.0,0.09901208333332079,69.0,0.10084583541667769
20789,41.0,0.10170200000000307,69.0,0.10401935833334619
20790,35.0,0.10490275000000793,67.0,0.1075295833333314
20791,30.0,0.10844533333333573,109.0,0.09916666666666174
20792,35.0,0.09999999999999432,70.0,0.09894793541667468
20793,42.0,0.09977850000001354,70.0,0.09872993541667086
20794,42.0,0.09955775000000244,70.0,0.09850993541667208
20795,47.0,0.09933775000000367,82.0,0.09818491666666773
20796,54.0,0.09901000000000693,72.0,0.09797046458332659
20797,54.0,0.09879283333332012,72.0,0.09775674375001131
20798,59.0,0.09857641666667405,72.0,0.09743658958333867
20799,66.0,0.09825358333333156,94.0,0.09722225625000647
20800,59.0,0.09803924999999936,74.0,0.09743391041666882
20801,54.0,0.09825358333333156,74.0,0.09754107708333493
20802,54.0,0.09836074999999767,74.0,0.09785991666666405
20803,47.0,0.09868500000000324,82.0,0.09971882291665679
20804,42.0,0.10056341666665958,72.0,0.10234811041667058
20805,42.0,0.10321616666666955,72.0,0.10749560416667236
20806,35.0,0.10843900000000417,72.0,0.12430067916666587
20807,27.0,0.12540200000000823,106.0,0.09861993541666436
20808,30.0,0.09944774999999595,70.0,0.0979704645833408
20809,39.0,0.09879283333333433,70.0,0.09732942291667257
20810,39.0,0.09814641666666546,70.0,0.0965941874999885
20811,42.0,0.09740324999999928,78.0,0.09754107708333493
20812,51.0,0.09836074999999767,85.0,0.39344300000000487
20813,42.0,0.09836074999999767,66.0,0.09754107708333493
20814,39.0,0.09836074999999767,64.0,0.09754107708333493
20815,42.0,0.09836075000001188,74.0,0.09754107708333493
20816,49.0,0.09836074999999767,81.0,0.39344299999999066
20817,42.0,0.09836074999999767,64.0,0.09754107708333493
20818,39.0,0.09836074999999767,64.0,0.09754107708333493
20819,42.0,0.09836074999999767,73.0,0.09754107708333493
20820,47.0,0.09836074999999767,77.0,0.39237683333334417
20821,42.0,0.09836075000001188,60.0,0.09754107708333493
20822,39.0,0.09836074999999767,60.0,0.09722964583333749
20823,41.0,0.09804133333332743,69.0,0.096799668750009
20824,46.0,0.0976140000000072,75.0,0.3957298333333341
20825,41.0,0.09814641666666546,58.0,0.09775404791666631
20826,38.0,0.09857641666665984,58.0,0.0984006854166779
20827,40.0,0.09922850000000949,66.0,0.09894516666666675
20828,46.0,0.09977849999999933,73.0,0.404511416666665
20829,40.0,0.10022299999999973,58.0,0.10005533333333005
20830,37.0,0.10089708333333647,56.0,0.10061837499999626
20831,39.0,0.10146583333333581,63.0,0.10107516041665576
20832,44.0,0.10192549999999301,70.0,0.4143063333333572
20833,39.0,0.1026228333333421,55.0,0.10234918125000547
20834,36.0,0.10321125000000109,53.0,0.10282186458334763
20835,38.0,0.10368691666667473,59.0,0.10389880833334075
20836,44.0,0.10478533333333928,66.0,0.36655158333334725
20837,38.0,0.11199125000000265,52.0,0.12048091666667915
20838,35.0,0.12152258333334487,50.0,0.13189096041666915
20839,30.0,0.13303774999999973,84.0,0.10664090416666738
20840,34.0,0.10753058333334309,52.0,0.10403044375000547
20841,42.0,0.10489850000000445,52.0,0.10143307291666304
20842,42.0,0.10227766666666582,53.0,0.09906866666666758
20843,46.0,0.09989375000000678,63.0,0.09691022916666725
20844,54.0,0.0977219166666714,56.0,0.09680231250000304
20845,54.0,0.09761399999999298,55.0,0.096383437500009
20846,58.0,0.09719250000000557,55.0,0.09586664166666026
20847,66.0,0.09667050000000188,79.0,0.0954529750000006
20848,58.0,0.09625683333334223,58.0,0.09586404791666325
20849,54.0,0.09667049999998767,59.0,0.09638081250000141
20850,54.0,0.09719249999999136,59.0,0.096799668750009
20851,46.0,0.0976140000000072,67.0,0.09861765624999919
20852,42.0,0.0994565833333354,56.0,0.10223467083334015
20853,42.0,0.10310574999999744,56.0,0.10625161875000799
20854,34.0,0.10715741666666645,57.0,0.1065229062500066
20855,29.0,0.10736183333334282,92.0,0.10131175208333332
20856,35.0,0.1021679166666587,55.0,0.1009671562500074
20857,41.0,0.10181175000001019,55.0,0.09961483333333376
20858,41.0,0.10044816666666634,55.0,0.09840416666665419
20859,47.0,0.09922924999999339,69.0,0.0977567437499971
20860,53.0,0.09857641666665984,56.0,0.09732942291667257
20861,53.0,0.09814641666666546,56.0,0.09680231250000304
20862,59.0,0.09761399999999298,56.0,0.096383437500009
20863,65.0,0.09719250000000557,79.0,0.09596779791667132
20864,59.0,0.09677424999999573,61.0,0.09638081250000141
20865,53.0,0.09719249999999136,59.0,0.096799668750009
20866,53.0,0.0976140000000072,60.0,0.09732674375000272
20867,47.0,0.09814641666666546,68.0,0.09905482291667056
20868,41.0,0.09989375000000678,60.0,0.10164868125001192
20869,41.0,0.10251075000000753,60.0,0.10450539166666317
20870,35.0,0.1053919166666617,59.0,0.10739925833333075
20871,31.0,0.10831166666666547,100.0,0.10235756875000845
20872,37.0,0.10321373333333383,58.0,0.1009671562500074
20873,43.0,0.10181175000001019,59.0,0.09961483333333376
20874,43.0,0.10044816666666634,59.0,0.09840416666665419
20875,49.0,0.09922924999999339,74.0,0.0977567437499971
20876,55.0,0.09857641666665984,61.0,0.09732942291667257
20877,55.0,0.09814641666666546,60.0,0.09680231250000304
20878,61.0,0.09761399999999298,60.0,0.096383437500009
20879,67.0,0.09719250000000557,84.0,0.09596779791667132
20880,61.0,0.09677424999999573,67.0,0.09638081250000141
20881,55.0,0.09719249999999136,64.0,0.096799668750009
20882,55.0,0.0976140000000072,64.0,0.09732674375000272
20883,49.0,0.09814641666666546,73.0,0.09905482291667056
20884,43.0,0.09989375000000678,63.0,0.10164868125001192
20885,43.0,0.10251075000000753,64.0,0.10450539166666317
20886,38.0,0.1053919166666617,63.0,0.211811449999999
20887,32.0,0.10831166666666547,102.0,0.10264361875000816
20888,35.0,0.10349978333333354,60.0,0.1009671562500074
20889,44.0,0.10181175000001019,60.0,0.09972354583332788
20890,44.0,0.10055966666666905,60.0,0.09927816666666445
20891,47.0,0.10011149999999702,74.0,0.09872993541667086
20892,56.0,0.09955775000000244,61.0,0.09829416666666191
20893,56.0,0.0991192500000011,60.0,0.0977567437499971
20894,59.0,0.09857641666665984,60.0,0.09732942291667257
20895,68.0,0.09814641666666546,83.0,0.09690541874999781
20896,59.0,0.097719749999996,64.0,0.09700925625000423
20897,56.0,0.09782624999999712,62.0,0.09722225625000647
20898,56.0,0.09803924999999936,62.0,0.09754107708333493
20899,47.0,0.09836074999999767,71.0,0.0983998229166616
20900,44.0,0.09923874999999782,62.0,0.10164868125001192
20901,44.0,0.10251075000000753,62.0,0.10450539166666317
20902,35.0,0.1053919166666617,61.0,0.10739925833333075
20903,32.0,0.10831166666666547,97.0,0.10226178541667252
20904,35.0,0.1031179499999979,58.0,0.1009671562500074
20905,44.0,0.10181175000001019,58.0,0.09961483333333376
20906,44.0,0.10044816666666634,58.0,0.09840416666665419
20907,47.0,0.09922924999999339,71.0,0.0977567437499971
20908,56.0,0.09857641666665984,59.0,0.09732942291667257
20909,56.0,0.09814641666666546,58.0,0.09680231250000304
20910,59.0,0.09761399999999298,58.0,0.096383437500009
20911,68.0,0.09719250000000557,81.0,0.09596779791667132
20912,59.0,0.09677424999999573,63.0,0.09638081250000141
20913,56.0,0.09719249999999136,62.0,0.096799668750009
20914,56.0,0.0976140000000072,62.0,0.09732674375000272
20915,47.0,0.09814641666666546,69.0,0.09905482291667056
20916,44.0,0.09989375000000678,60.0,0.10164868125001192
20917,44.0,0.10251075000000753,60.0,0.10450539166666317
20918,35.0,0.1053919166666617,59.0,0.10735792916666753
20919,31.0,0.10822900833332483,101.0,0.10248323125001946
20920,37.0,0.10333939583334484,59.0,0.1009671562500074
20921,43.0,0.10181175000001019,59.0,0.09961483333333376
20922,43.0,0.10044816666666634,59.0,0.09840416666665419
20923,49.0,0.09922924999999339,74.0,0.0977567437499971
20924,55.0,0.09857641666665984,60.0,0.09732942291667257
20925,55.0,0.09814641666666546,59.0,0.09680231250000304
20926,61.0,0.09761399999999298,59.0,0.096383437500009
20927,67.0,0.09719250000000557,85.0,0.09596779791667132
20928,61.0,0.09677424999999573,64.0,0.09638081250000141
20929,55.0,0.09719249999999136,63.0,0.096799668750009
20930,55.0,0.0976140000000072,63.0,0.09732674375000272
20931,49.0,0.09814641666666546,71.0,0.09905482291667056
20932,43.0,0.09989375000000678,61.0,0.10164868125001192
20933,43.0,0.10251075000000753,61.0,0.10450539166666317
20934,37.0,0.1053919166666617,60.0,0.1070000895833374
20935,32.0,0.10786814583333637,103.0,0.10247091041665612
20936,38.0,0.1033270749999815,61.0,0.1009671562500074
20937,44.0,0.10181175000001019,61.0,0.09950333333333106
20938,44.0,0.10033666666666363,61.0,0.09851341666666258
20939,50.0,0.09933850000000177,75.0,0.09786532708332629
20940,56.0,0.09868499999998903,62.0,0.09711841875000005
20941,56.0,0.09793274999999824,61.0,0.09638343749999478
20942,62.0,0.09719249999999136,61.0,0.0956623854166736
20943,68.0,0.09646366666666495,86.0,0.09565721458334053
20944,62.0,0.09646366666667916,67.0,0.09627639583334258
20945,56.0,0.09708808333333252,66.0,0.09690350625001543
20946,56.0,0.09772050000000831,66.0,0.09732674375000272
20947,50.0,0.09814641666666546,73.0,0.09905482291667056
20948,44.0,0.09989375000000678,64.0,0.10153314375001798
20949,44.0,0.10239225000000829,64.0,0.10943938541666398
20950,38.0,0.11039358333333382,62.0,0.22135824999999443
20951,34.0,0.11584799999998552,105.0,0.10463305625000885
20952,38.0,0.10551025000000891,61.0,0.1039020875000034
20953,46.0,0.1047731666666607,62.0,0.10318153125000151
20954,46.0,0.10404658333334282,63.0,0.10247064375001003
20955,50.0,0.10332975000000033,79.0,0.10188358541667242
20956,58.0,0.1027397499999978,62.0,0.10188358541667242
20957,50.0,0.1027397499999978,64.0,0.10188358541667242
20958,46.0,0.1027397499999978,66.0,0.10188358541667242
20959,35.0,0.10273975000001201,106.0,0.10211597708332931
20960,38.0,0.10297508333333383,70.0,0.10234918124999126
20961,47.0,0.10321124999998688,68.0,0.10258618125000396
20962,47.0,0.10344824999999958,68.0,0.1029411979166639
20963,50.0,0.1038062500000052,75.0,0.10401821874999939
20964,70.0,0.09922850000000949,97.0,0.09829143541666951
20965,62.0,0.0991192500000011,75.0,0.0986171854166713
20966,58.0,0.09944774999999595,73.0,0.09894516666666675
20967,58.0,0.09977849999999933,73.0,0.09927537916665585
20968,50.0,0.10011149999999702,82.0,0.09905482291667056
20969,46.0,0.09989375000000678,72.0,0.10177787291667073
20970,46.0,0.1026707291666753,72.0,0.1123166499999968
20971,38.0,0.11329704166665522,71.0,0.16059241041666894
20972,31.0,0.1618239374999888,108.0,0.10466369374999829
20973,34.0,0.10551985833332367,70.0,0.1009671562500074
20974,43.0,0.10181175000001019,70.0,0.09961483333333376
20975,43.0,0.10044816666666634,70.0,0.09840416666665419
20976,46.0,0.09922924999999339,85.0,0.0977567437499971
20977,55.0,0.09857641666665984,71.0,0.09732942291667257
20978,55.0,0.09814641666666546,70.0,0.09680231250000304
20979,58.0,0.09761399999999298,70.0,0.096383437500009
20980,67.0,0.09719250000000557,93.0,0.09596779791667132
20981,67.0,0.09677424999999573,75.0,0.09638081250000141
20982,70.0,0.09719249999999136,73.0,0.096799668750009
20983,79.0,0.0976140000000072,73.0,0.09732674375000272
20984,70.0,0.09814641666666546,82.0,0.09905482291667056
20985,67.0,0.09989375000000678,72.0,0.10164868125001192
20986,67.0,0.10251075000000753,72.0,0.10450539166666317
20987,58.0,0.1053919166666617,71.0,0.1060258895833357
20988,55.0,0.10690308333333576,81.0,0.10402483750000613
20989,55.0,0.10489591666666342,69.0,0.10330244791667553
20990,46.0,0.10416750000001684,69.0,0.10258997708332629
20991,43.0,0.1034490833333166,69.0,0.10188725833333478
20992,43.0,0.10274050000001012,101.0,0.4082790833333405
20993,34.0,0.10204075000000046,70.0,0.10119041041666321
20994,31.0,0.10204075000000046,70.0,0.10119041041666321
20995,34.0,0.10204075000000046,70.0,0.1013035916666638
20996,29.0,0.10215683333333914,106.0,0.1016497520833326
20997,34.0,0.10250591666665798,63.0,0.10199831041667551
20998,41.0,0.10285741666666581,82.0,0.10246768125000472
20999,34.0,0.10332975000001454,66.0,0.10282186458333342
21000,32.0,0.10368691666666052,102.0,0.10329869375000555
21001,34.0,0.10416675000000453,62.0,0.10377720833334081
21002,46.0,0.10465133333333654,75.0,0.21474116666668408
21003,34.0,0.10564158333333751,62.0,0.10818046666668124
21004,31.0,0.10909958333334657,108.0,0.10250100624999448
21005,34.0,0.10335717083331986,70.0,0.1009671562500074
21006,43.0,0.10181175000001019,70.0,0.09961483333333376
21007,43.0,0.10044816666666634,70.0,0.09840416666665419
21008,46.0,0.09922924999999339,85.0,0.0977567437499971
21009,55.0,0.09857641666665984,71.0,0.09732942291667257
21010,55.0,0.09814641666666546,70.0,0.09680231250000304
21011,58.0,0.09761399999999298,70.0,0.096383437500009
21012,67.0,0.09719250000000557,83.0,0.09596779791667132
21013,67.0,0.09677424999999573,75.0,0.09638081250000141
21014,70.0,0.09719249999999136,73.0,0.096799668750009
21015,79.0,0.0976140000000072,73.0,0.09732674375000272
21016,70.0,0.09814641666666546,82.0,0.09905482291667056
21017,67.0,0.09989375000000678,72.0,0.10164868125001192
21018,67.0,0.10251075000000753,72.0,0.10450539166666317
21019,58.0,0.1053919166666617,71.0,0.10739925833333075
21020,55.0,0.10831166666666547,81.0,0.1029411979166639
21021,55.0,0.1038062500000052,69.0,0.1029411979166639
21022,46.0,0.103806249999991,69.0,0.10282484791666491
21023,43.0,0.10368691666666052,69.0,0.10258618125000396
21024,43.0,0.10344824999999958,105.0,0.41272733333333633
21025,34.0,0.10344824999999958,70.0,0.10235214375001078
21026,31.0,0.1032112500000153,70.0,0.10223364374999733
21027,34.0,0.10309274999998763,70.0,0.10211891875000845
21028,29.0,0.10297508333333383,104.0,0.10188358541667242
21029,34.0,0.10273975000001201,63.0,0.10223364374999733
21030,41.0,0.10309275000000184,82.0,0.41918016666666347
21031,34.0,0.10344824999999958,66.0,0.10282186458333342
21032,27.0,0.10368691666666052,103.0,0.10401821874999939
21033,34.0,0.10489850000000445,62.0,0.1062472187499992
21034,39.0,0.10714649999999892,75.0,0.22143733333332705
21035,34.0,0.10949291666666738,62.0,0.11100456666666503
21036,29.0,0.11194441666665966,109.0,0.1025748812499927
21037,34.0,0.10343104583331808,70.0,0.1009671562500074
21038,41.0,0.10181175000001019,70.0,0.09961483333333376
21039,41.0,0.10044816666666634,70.0,0.19780566666665322
21040,46.0,0.09922924999999339,85.0,0.0977567437499971
21041,53.0,0.09857641666665984,71.0,0.09732942291667257
21042,53.0,0.09814641666666546,70.0,0.09680231250000304
21043,58.0,0.09761399999999298,70.0,0.096383437500009
21044,65.0,0.09719250000000557,87.0,0.09596779791667132
21045,65.0,0.09677424999999573,75.0,0.09638081250000141
21046,70.0,0.09719249999999136,73.0,0.096799668750009
21047,77.0,0.0976140000000072,73.0,0.09732674375000272
21048,70.0,0.09814641666666546,82.0,0.09905482291667056
21049,65.0,0.09989375000000678,72.0,0.10164868125001192
21050,65.0,0.10251075000000753,72.0,0.10450539166666317
21051,58.0,0.1053919166666617,71.0,0.10532047708333891
21052,53.0,0.10617958333332922,81.0,0.10223364374999733
21053,53.0,0.10309275000000184,69.0,0.10188358541667242
21054,46.0,0.1027397499999978,69.0,0.10165267500001107
21055,41.0,0.10250591666667219,69.0,0.10142257708332636
21056,41.0,0.1022729166666636,101.0,0.4064390833333391
21057,34.0,0.10204075000000046,70.0,0.10084754166666698
21058,29.0,0.10169500000000653,70.0,0.10062123958333302
21059,34.0,0.1014658333333216,70.0,0.10039575000000411
21060,27.0,0.10123750000001053,100.0,0.1002791562499965
21061,32.0,0.10112374999999929,63.0,0.10073295833332452
21062,39.0,0.10158041666666406,82.0,0.4164819166666689
21063,32.0,0.10192550000000722,66.0,0.10176447708333569
21064,27.0,0.102623583333326,99.0,0.10377621874999932
21065,32.0,0.10465650000000437,62.0,0.10637380624999082
21066,36.0,0.10727633333333131,75.0,0.22296091666666484
21067,32.0,0.11003066666667394,62.0,0.11197967916666585
21068,27.0,0.1129302499999909,100.0,0.10255008958333178
21069,32.0,0.10340625416665716,70.0,0.1009671562500074
21070,39.0,0.10181175000001019,70.0,0.09961483333333376
21071,39.0,0.10044816666666634,70.0,0.09840416666665419
21072,44.0,0.09922924999999339,85.0,0.0977567437499971
21073,51.0,0.09857641666665984,71.0,0.09732942291667257
21074,51.0,0.09814641666666546,70.0,0.09680231250000304
21075,56.0,0.09761399999999298,70.0,0.096383437500009
21076,63.0,0.09719250000000557,91.0,0.09596779791667132
21077,63.0,0.09677424999999573,73.0,0.09638081250000141
21078,68.0,0.09719249999999136,73.0,0.096799668750009
21079,75.0,0.0976140000000072,73.0,0.09732674375000272
21080,68.0,0.09814641666666546,82.0,0.09905482291667056
21081,63.0,0.09989375000000678,72.0,0.10164868125001192
21082,63.0,0.10251075000000753,72.0,0.10450539166666317
21083,56.0,0.1053919166666617,71.0,0.10497857708332958
21084,51.0,0.10582891666666683,81.0,0.10119041041666321
21085,51.0,0.10204075000000046,69.0,0.10084754166666698
21086,44.0,0.10169500000000653,69.0,0.10050665625000477
21087,39.0,0.10135124999999334,69.0,0.10028200000000709
21088,39.0,0.1011237500000135,104.0,0.4017891666666742
21089,32.0,0.10078416666667067,73.0,0.09972287916666289
21090,27.0,0.10055900000000406,73.0,0.09938966666666715
21091,32.0,0.10022299999999973,73.0,0.09938687916665856
21092,27.0,0.10022299999999973,103.0,0.09994241666666426
21093,32.0,0.10078416666667067,68.0,0.10050462499999924
21094,39.0,0.10135208333333878,82.0,0.40774924999998063
21095,32.0,0.10192549999999301,66.0,0.1016497520833326
21096,27.0,0.10250591666665798,100.0,0.10008554583332341
21097,32.0,0.10092166666666458,62.0,0.10153409791666945
21098,41.0,0.10239616666666507,75.0,0.21474116666668408
21099,32.0,0.10564158333333751,62.0,0.10818046666668124
21100,27.0,0.10909958333334657,107.0,0.10259368124999924
21101,32.0,0.10344984583332462,73.0,0.1009671562500074
21102,39.0,0.10181175000001019,73.0,0.09961483333333376
21103,39.0,0.10044816666666634,73.0,0.09840416666665419
21104,44.0,0.09922924999999339,85.0,0.0977567437499971
21105,51.0,0.09857641666665984,71.0,0.09732942291667257
21106,51.0,0.09814641666666546,70.0,0.09680231250000304
21107,56.0,0.09761399999999298,70.0,0.096383437500009
21108,63.0,0.09719250000000557,89.0,0.09596779791667132
21109,63.0,0.09677424999999573,75.0,0.09638081250000141
21110,68.0,0.09719249999999136,73.0,0.096799668750009
21111,75.0,0.0976140000000072,73.0,0.09732674375000272
21112,68.0,0.09814641666666546,82.0,0.09905482291667056
21113,63.0,0.09989375000000678,72.0,0.10164868125001192
21114,63.0,0.10251075000000753,72.0,0.10450539166666317
21115,56.0,0.1053919166666617,71.0,0.10739925833333075
21116,51.0,0.10831166666666547,81.0,0.10153575833332695
21117,51.0,0.10238900000000228,69.0,0.10119041041667742
21118,44.0,0.10204074999998625,69.0,0.10084754166666698
21119,39.0,0.10169500000000653,69.0,0.10050665624999056
21120,39.0,0.10135124999999334,106.0,0.4021272500000066
21121,32.0,0.10101000000000226,70.0,0.09983232291665445
21122,27.0,0.10067125000000487,70.0,0.09949837916667548
21123,32.0,0.10033450000000244,70.0,0.09927537916667006
21124,27.0,0.10011149999999702,105.0,0.09972007291665363
21125,32.0,0.10055900000000406,63.0,0.1002791562499965
21126,39.0,0.10112374999999929,82.0,0.40968983333334563
21127,32.0,0.10158041666667827,66.0,0.1013035916666638
21128,27.0,0.10215683333333914,104.0,0.10176666875000251
21129,32.0,0.10262283333332789,62.0,0.10246768125000472
21130,41.0,0.10332975000000033,75.0,0.21257858333331114
21131,32.0,0.1056415833333233,62.0,0.10607194791666075
21132,15.0,0.10693699999998785,101.0,0.1029411979166639
21133,34.0,0.103806249999991,69.0,0.10258618124998975
21134,43.0,0.10344825000001379,69.0,0.10235214374998236
21135,34.0,0.10321124999998688,70.0,0.10211891875002266
21136,10.0,0.10297508333334804,96.0,0.1018835854166582
21137,34.0,0.10273975000001201,72.0,0.1018835854166582
21138,43.0,0.10273974999998359,73.0,0.10188358541668663
21139,34.0,0.10273975000001201,73.0,0.1021159770833151
21140,15.0,0.10297508333331962,104.0,0.10293902708332325
21141,34.0,0.10380708333332223,72.0,0.103656291666681
21142,43.0,0.10453041666667673,73.0,0.10450646875000302
21143,34.0,0.10538675000000808,73.0,0.10537114166666584
21144,10.0,0.10625766666666436,97.0,0.1071410562500148
21145,34.0,0.10804358333334108,72.0,0.10778757500000324
21146,43.0,0.10869666666667399,73.0,0.10857425000003218
21147,34.0,0.10949000000002229,73.0,0.10766103541664052
21148,15.0,0.1085668333333274,107.0,0.10766238958333929
21149,34.0,0.10856491666666557,79.0,0.10714430208332715
21150,43.0,0.10804358333334108,79.0,0.10663094166667975
21151,34.0,0.10752700000000459,79.0,0.10612598750000757
21152,10.0,0.10701566666665485,104.0,0.10562264166668456
21153,34.0,0.10650916666668309,80.0,0.10549647499999537
21154,43.0,0.1063829999999939,80.0,0.10549647500002379
21155,34.0,0.10638300000002232,80.0,0.10537114166666584
21156,15.0,0.10625766666666436,113.0,0.10624769166668102
21157,34.0,0.10714375000000587,77.0,0.10739845208331644
21158,43.0,0.10830425000000332,77.0,0.10857425000000376
21159,34.0,0.10948999999999387,77.0,0.10937925000001769
21160,10.0,0.1102950000000078,108.0,0.11072923333333051
21161,34.0,0.11166908333333936,74.0,0.11383766666668294
21162,43.0,0.11480291666669018,74.0,0.11743281666664984
21163,34.0,0.11842883333332566,74.0,0.12109644374999107
21164,15.0,0.12212525000001051,111.0,0.5
21165,55.0,1.0,111.0,2.4000000000000057
21166,51.0,0.0,61.0,0.414508
21167,53.0,0.414508,73.0,0.20866525000000014
21168,51.0,0.09704975000000005,52.0,0.22323099999999996
21169,56.0,0.11161550000000009,64.0,0.11161549999999987
21170,46.0,0.23209749999999985,67.0,0.20666675000000012
21171,44.0,0.09704975000000005,47.0,0.21923399999999993
21172,51.0,0.10961700000000008,63.0,0.10961699999999985
21173,53.0,0.22497499999999993,69.0,0.20582425000000004
21174,51.0,0.09704975000000005,49.0,0.217549
21175,56.0,0.1087745,63.0,0.1087745
21176,53.0,0.2243012499999999,73.0,0.20615175000000008
21177,51.0,0.09737725000000008,51.0,0.217549
21178,58.0,0.1087745,61.0,0.1087745
21179,48.0,0.2243012499999999,64.0,0.20541549999999997
21180,46.0,0.09704975000000005,47.0,0.21673149999999985
21181,51.0,0.10836574999999993,59.0,0.10836574999999993
21182,53.0,0.2235290000000001,69.0,0.2053297500000002
21183,51.0,0.09737725000000008,52.0,0.2159049999999998
21184,58.0,0.10795250000000012,66.0,0.10795249999999967
21185,53.0,0.22103199999999967,76.0,0.20500224999999972
21186,51.0,0.09704975000000005,53.0,0.21590500000000024
21187,60.0,0.10795249999999967,65.0,0.10795250000000056
21188,53.0,0.221032000000001,71.0,0.20549875000000029
21189,51.0,0.09672425000000029,49.0,0.217549
21190,56.0,0.1087745,63.0,0.1087745
21191,60.0,0.2243012499999999,72.0,0.20624399999999987
21192,58.0,0.09704975000000005,54.0,0.21838849999999965
21193,65.0,0.10919424999999983,66.0,0.10919424999999983
21194,53.0,0.22648249999999948,76.0,0.20624399999999987
21195,51.0,0.09704975000000005,57.0,0.21838849999999965
21196,58.0,0.10919424999999983,66.0,0.10919424999999983
21197,60.0,0.2243575,72.0,0.2085019999999993
21198,58.0,0.09804549999999956,51.0,0.22091300000000036
21199,63.0,0.11045649999999974,64.0,0.11045650000000062
21200,72.0,0.22675350000000094,75.0,0.22237200000000001
21201,70.0,0.10630000000000006,53.0,0.2556327500000002
21202,75.0,0.11607199999999995,69.0,0.13956075000000023
21203,53.0,0.2791214999999996,73.0,0.20866525000000014
21204,51.0,0.09704975000000005,51.0,0.22323100000000018
21205,56.0,0.11161550000000009,69.0,0.11161550000000009
21206,46.0,0.2375177500000003,67.0,0.20708500000000019
21207,44.0,0.09704975000000005,47.0,0.22007050000000028
21208,51.0,0.11003525000000014,65.0,0.11003525000000014
21209,53.0,0.23023725000000006,69.0,0.20822674999999968
21210,51.0,0.09704975000000005,53.0,0.22235400000000016
21211,56.0,0.11117699999999964,67.0,0.11117700000000053
21212,53.0,0.2260667500000002,73.0,0.20699424999999927
21213,51.0,0.09737725000000008,51.0,0.21923399999999926
21214,58.0,0.10961699999999919,65.0,0.10961700000000008
21215,48.0,0.2260132499999994,64.0,0.20624399999999987
21216,46.0,0.09704975000000005,47.0,0.21838849999999965
21217,51.0,0.10919424999999983,63.0,0.10919424999999983
21218,53.0,0.22455225000000034,69.0,0.20615175000000008
21219,51.0,0.0973772499999992,49.0,0.217549
21220,58.0,0.10877450000000088,66.0,0.10877449999999911
21221,53.0,0.22517074999999842,76.0,0.20624399999999987
21222,51.0,0.09704975000000005,53.0,0.21838849999999965
21223,60.0,0.10919424999999983,70.0,0.10919424999999983
21224,55.0,0.2243575,71.0,0.20591849999999923
21225,53.0,0.0967242499999994,49.0,0.21838849999999965
21226,60.0,0.10919424999999983,66.0,0.10919424999999983
21227,53.0,0.22559049999999914,72.0,0.2090905000000003
21228,51.0,0.09704975000000005,53.0,0.2240815000000005
21229,58.0,0.11204075000000024,65.0,0.11204075000000024
21230,53.0,0.2293289999999999,80.0,0.2090905000000003
21231,51.0,0.09704975000000005,57.0,0.2240815000000005
21232,56.0,0.11204075000000024,71.0,0.11204075000000024
21233,65.0,0.23021600000000042,72.0,0.21275074999999966
21234,63.0,0.09804549999999956,51.0,0.22941050000000018
21235,68.0,0.11470525000000009,65.0,0.11470525000000009
21236,77.0,0.2376662500000002,75.0,0.22237200000000001
21237,75.0,0.10629999999999917,58.0,0.25362350000000156
21238,80.0,0.11607200000000084,71.0,0.13755150000000071
21239,53.0,0.27510299999999965,73.0,0.20866524999999925
21240,51.0,0.04852487500000002,58.0,0.04852487500000002
21241,53.0,0.04852487500000002,63.0,0.1116154999999992
21242,51.0,0.0558077499999996,52.0,0.16742325000000058
21243,56.0,0.0558077499999996,67.0,0.11161550000000098
21244,46.0,0.23209750000000184,67.0,0.20666675000000012
21245,44.0,0.04852487500000002,53.0,0.04852487500000002
21246,46.0,0.04852487500000002,57.0,0.10961700000000008
21247,44.0,0.05480850000000004,47.0,0.1644255000000001
21248,51.0,0.05480850000000004,66.0,0.10961700000000008
21249,53.0,0.2249750000000006,69.0,0.20582425000000093
21250,51.0,0.04852487500000002,55.0,0.04852487500000002
21251,51.0,0.2262742499999959,50.0,0.20931750000000093
21252,49.0,0.09737725000000097,44.0,0.33696000000000126
21253,56.0,0.11194024999999996,59.0,0.2250197500000013
21254,51.0,0.2250197500000013,56.0,0.20866524999999925
21255,49.0,0.09704975000000005,47.0,0.3437129999999975
21256,56.0,0.1116154999999992,65.0,0.2320974999999983
21257,51.0,0.2320974999999983,56.0,0.20666675000000012
21258,49.0,0.09704975000000005,44.0,0.33459200000000067
21259,56.0,0.10961700000000008,66.0,0.2249750000000006
21260,51.0,0.2249750000000006,58.0,0.20582424999999915
21261,49.0,0.09704975000000005,47.0,0.33307575000000256
21262,58.0,0.10877449999999911,70.0,0.22430125000000345
21263,49.0,0.22430125000000345,61.0,0.2080782499999998
21264,47.0,0.09737725000000097,47.0,0.336928750000002
21265,59.0,0.11070099999999883,64.0,0.22622775000000317
21266,49.0,0.22622775000000317,52.0,0.2085739999999987
21267,47.0,0.09704975000000005,44.0,0.33821174999999926
21268,54.0,0.11152424999999866,59.0,0.2266875000000006
21269,49.0,0.2266875000000006,50.0,0.20931750000000093
21270,47.0,0.09737725000000097,44.0,0.33696000000000126
21271,54.0,0.11194024999999996,59.0,0.2250197500000013
21272,49.0,0.2250197500000013,56.0,0.20866524999999925
21273,47.0,0.09704975000000005,47.0,0.3437129999999975
21274,54.0,0.1116154999999992,65.0,0.2320974999999983
21275,49.0,0.2320974999999983,56.0,0.20666675000000012
21276,47.0,0.09704975000000005,44.0,0.33459200000000067
21277,54.0,0.10961700000000008,66.0,0.2249750000000006
21278,49.0,0.2249750000000006,59.0,0.2094092500000002
21279,47.0,0.09704975000000005,47.0,0.3402457500000011
21280,56.0,0.11235950000000017,68.0,0.22788625000000096
21281,47.0,0.22788625000000096,58.0,0.21188100000000176
21282,46.0,0.09737725000000097,46.0,0.3485295000000015
21283,54.0,0.11450375000000079,61.0,0.2340257500000007
21284,47.0,0.2340257500000007,52.0,0.2102572500000015
21285,46.0,0.09704975000000005,44.0,0.34157824999999775
21286,53.0,0.11320750000000146,59.0,0.2283707499999963
21287,47.0,0.2283707499999963,50.0,0.21144574999999932
21288,46.0,0.09737725000000097,44.0,0.34765900000000016
21289,53.0,0.11406849999999835,59.0,0.2335905000000018
21290,49.0,0.2335905000000018,48.0,0.20866524999999925
21291,47.0,0.09704975000000005,38.0,0.3437129999999975
21292,54.0,0.1116154999999992,55.0,0.2320974999999983
21293,61.0,0.2320974999999983,52.0,0.20666675000000012
21294,59.0,0.09704975000000005,42.0,0.33459200000000067
21295,66.0,0.10961700000000008,64.0,0.2249750000000006
21296,61.0,0.2249750000000006,58.0,0.2094092500000002
21297,59.0,0.09704975000000005,45.0,0.3402457500000011
21298,68.0,0.11235950000000017,66.0,0.22788625000000096
21299,59.0,0.22788625000000096,56.0,0.20848825000000204
21300,58.0,0.09737725000000097,44.0,0.3377487499999994
21301,66.0,0.11111100000000107,58.0,0.2266377499999983
21302,59.0,0.2266377499999983,50.0,0.21270124999999496
21303,58.0,0.09704974999999649,42.0,0.34646624999999887
21304,65.0,0.11565149999999846,57.0,0.2308147500000004
21305,59.0,0.2308147500000004,49.0,0.21438200000000052
21306,58.0,0.09737725000000097,42.0,0.3470889999999969
21307,65.0,0.11700474999999955,57.0,0.23008424999999733
21308,58.0,0.23008424999999733,50.0,0.2086652499999957
21309,57.0,0.09704974999999649,42.0,0.34371300000000105
21310,65.0,0.1116154999999992,59.0,0.23209750000000184
21311,46.0,0.23209750000000184,47.0,0.20666674999999657
21312,45.0,0.09704974999999649,36.0,0.33459200000000067
21313,53.0,0.10961700000000008,57.0,0.2249750000000006
21314,46.0,0.2249750000000006,51.0,0.20582424999999915
21315,45.0,0.09704974999999649,38.0,0.333075749999999
21316,55.0,0.10877450000000266,59.0,0.22430124999999634
21317,46.0,0.22430124999999634,50.0,0.20848825000000204
21318,45.0,0.09737725000000097,37.0,0.33774875000000293
21319,53.0,0.11111100000000107,51.0,0.22663775000000186
21320,46.0,0.22663775000000186,46.0,0.2085739999999987
21321,45.0,0.09704974999999649,36.0,0.33821174999999926
21322,52.0,0.11152425000000221,51.0,0.22668749999999704
21323,46.0,0.22668749999999704,43.0,0.20931750000000449
21324,45.0,0.09737725000000097,36.0,0.34408249999999896
21325,52.0,0.11194025000000352,51.0,0.23214224999999544
21326,46.0,0.23214224999999544,56.0,0.21029974999999723
21327,45.0,0.09868424999999803,47.0,0.34371300000000105
21328,50.0,0.1116154999999992,65.0,0.23209750000000184
21329,46.0,0.23209750000000184,56.0,0.21219150000000297
21330,45.0,0.10000000000000142,44.0,0.3397410000000036
21331,50.0,0.11219150000000155,67.0,0.22754950000000207
21332,46.0,0.22754950000000207,60.0,0.22088970833333121
21333,45.0,0.10452949999999817,47.0,0.3545492083333315
21334,52.0,0.11636020833333305,72.0,0.23818899999999843
21335,46.0,0.23818899999999843,61.0,0.22889599999999888
21336,45.0,0.10714275000000129,47.0,0.3685065000000023
21337,50.0,0.12175324999999759,63.0,0.2467532500000047
21338,46.0,0.2467532500000047,54.0,0.24413050000000425
21339,45.0,0.11278200000000282,44.0,0.39662550000000607
21340,49.0,0.13134850000000142,59.0,0.26527700000000465
21341,47.0,0.26527700000000465,50.0,0.25646325000000303
21342,45.0,0.1171875,43.0,0.42278224999999736
21343,49.0,0.13927575000000303,59.0,0.28350649999999433
21344,47.0,0.28350649999999433,72.0,0.2086652499999957
21345,45.0,0.09704974999999649,57.0,0.34371300000000105
21346,50.0,0.1116154999999992,78.0,0.23209750000000184
21347,40.0,0.23209750000000184,66.0,0.20666674999999657
21348,38.0,0.09704974999999649,51.0,0.33459200000000067
21349,45.0,0.10961700000000008,74.0,0.2249750000000006
21350,47.0,0.2249750000000006,67.0,0.20582424999999915
21351,45.0,0.09704974999999649,53.0,0.333075749999999
21352,50.0,0.10877450000000266,78.0,0.22430124999999634
21353,47.0,0.22430124999999634,72.0,0.20615175000000363
21354,45.0,0.09737725000000097,55.0,0.333075749999999
21355,52.0,0.10877450000000266,81.0,0.22430124999999634
21356,42.0,0.22430124999999634,66.0,0.20541549999999376
21357,40.0,0.09704974999999649,53.0,0.33189475000000357
21358,45.0,0.10836574999999726,75.0,0.2235290000000063
21359,47.0,0.2235290000000063,67.0,0.2053297500000042
21360,45.0,0.09737725000000097,57.0,0.3289844999999971
21361,52.0,0.10795250000000323,76.0,0.2210319999999939
21362,47.0,0.2210319999999939,75.0,0.20500224999999972
21363,45.0,0.09704974999999649,58.0,0.3289844999999971
21364,54.0,0.10795250000000323,78.0,0.2210319999999939
21365,47.0,0.2210319999999939,69.0,0.20549875000000384
21366,45.0,0.09672425000000118,53.0,0.333075749999999
21367,50.0,0.10877450000000266,76.0,0.22430124999999634
21368,54.0,0.22430124999999634,70.0,0.2062439999999981
21369,52.0,0.09704974999999649,59.0,0.33567675000000463
21370,59.0,0.1091942500000016,76.0,0.22648250000000303
21371,47.0,0.22648250000000303,75.0,0.2062439999999981
21372,45.0,0.09704974999999649,63.0,0.33355175000000514
21373,52.0,0.1091942500000016,81.0,0.22435750000000354
21374,54.0,0.22435750000000354,70.0,0.20850199999999575
21375,52.0,0.09804549999999779,55.0,0.337210000000006
21376,57.0,0.11045649999999796,76.0,0.22675350000000805
21377,66.0,0.22675350000000805,74.0,0.22237200000000001
21378,64.0,0.1062999999999974,58.0,0.39519350000000486
21379,69.0,0.11607200000000262,82.0,0.2442313124999984
21380,47.0,0.27912150000000224,72.0,0.2086652499999957
21381,45.0,0.09704974999999649,57.0,0.34371300000000105
21382,50.0,0.1116154999999992,78.0,0.23209750000000184
21383,40.0,0.23209750000000184,66.0,0.20666674999999657
21384,38.0,0.09704974999999649,46.0,0.33459200000000067
21385,45.0,0.10961700000000008,74.0,0.2249750000000006
21386,47.0,0.2249750000000006,67.0,0.20582424999999915
21387,45.0,0.09704974999999649,53.0,0.333075749999999
21388,50.0,0.10877450000000266,78.0,0.22430124999999634
21389,47.0,0.22430124999999634,72.0,0.20615175000000363
21390,45.0,0.09737725000000097,55.0,0.333075749999999
21391,52.0,0.10877450000000266,81.0,0.22430124999999634
21392,42.0,0.22430124999999634,66.0,0.20541549999999376
21393,40.0,0.09704974999999649,53.0,0.33189475000000357
21394,45.0,0.10836574999999726,75.0,0.2235290000000063
21395,47.0,0.2235290000000063,67.0,0.2053297500000042
21396,45.0,0.09737725000000097,57.0,0.3289844999999971
21397,52.0,0.10795250000000323,76.0,0.2210319999999939
21398,47.0,0.2210319999999939,75.0,0.20500224999999972
21399,45.0,0.09704974999999649,58.0,0.3289844999999971
21400,54.0,0.10795250000000323,78.0,0.2210319999999939
21401,49.0,0.2210319999999939,69.0,0.20549875000000384
21402,47.0,0.09672425000000118,53.0,0.333075749999999
21403,54.0,0.10877450000000266,76.0,0.22430124999999634
21404,47.0,0.22430124999999634,70.0,0.2062439999999981
21405,45.0,0.09704974999999649,59.0,0.33567675000000463
21406,52.0,0.1091942500000016,76.0,0.22648250000000303
21407,47.0,0.22648250000000303,75.0,0.2062439999999981
21408,45.0,0.09704974999999649,63.0,0.33355175000000514
21409,50.0,0.1091942500000016,81.0,0.22435750000000354
21410,59.0,0.22435750000000354,70.0,0.20850199999999575
21411,57.0,0.09804549999999779,55.0,0.337210000000006
21412,62.0,0.11045649999999796,76.0,0.22675350000000805
21413,71.0,0.22675350000000805,74.0,0.22237200000000001
21414,69.0,0.1062999999999974,58.0,0.39519350000000486
21415,74.0,0.11607200000000262,82.0,0.2442313124999984
21416,47.0,0.27912150000000224,65.0,0.21137899999999377
21417,45.0,0.09704974999999649,51.0,0.3491405000000043
21418,52.0,0.11432924999999727,71.0,0.23481125000000702
21419,47.0,0.23481125000000702,59.0,0.20966224999999383
21420,45.0,0.09704974999999649,48.0,0.3405830000000023
21421,52.0,0.11261249999999734,70.0,0.22797050000000496
21422,47.0,0.22797050000000496,65.0,0.20734374999999972
21423,45.0,0.09704974999999649,51.0,0.33611475000000013
21424,54.0,0.11029400000000322,76.0,0.2258207499999969
21425,48.0,0.2258207499999969,68.0,0.2080782499999998
21426,47.0,0.09737725000000097,52.0,0.33692874999999844
21427,55.0,0.11070099999999883,76.0,0.22622774999999962
21428,45.0,0.22622774999999962,56.0,0.2085739999999987
21429,43.0,0.09704974999999649,46.0,0.33821174999999926
21430,50.0,0.11152425000000221,63.0,0.22668749999999704
21431,45.0,0.22668749999999704,59.0,0.2080782499999998
21432,43.0,0.09737725000000097,49.0,0.33448149999999544
21433,50.0,0.11070099999999883,66.0,0.2237804999999966
21434,45.0,0.2237804999999966,65.0,0.2135997499999931
21435,43.0,0.09704974999999649,51.0,0.35358200000000295
21436,50.0,0.1165499999999966,71.0,0.23703200000000635
21437,45.0,0.23703200000000635,59.0,0.21094499999999528
21438,43.0,0.09704974999999649,48.0,0.3431484999999981
21439,50.0,0.11389524999999878,70.0,0.2292532499999993
21440,45.0,0.2292532499999993,65.0,0.20775074999999532
21441,43.0,0.09704974999999649,51.0,0.33692874999999844
21442,52.0,0.11070099999999883,76.0,0.22622774999999962
21443,46.0,0.22622774999999962,68.0,0.2080782499999998
21444,45.0,0.09737725000000097,52.0,0.33692874999999844
21445,53.0,0.11070099999999883,76.0,0.22622774999999962
21446,43.0,0.22622774999999962,56.0,0.2085739999999987
21447,41.0,0.09704974999999649,46.0,0.33821174999999926
21448,48.0,0.11152425000000221,63.0,0.22668749999999704
21449,43.0,0.22668749999999704,59.0,0.2080782499999998
21450,41.0,0.09737725000000097,49.0,0.33448149999999544
21451,48.0,0.11070099999999883,66.0,0.2237804999999966
21452,41.0,0.2237804999999966,60.0,0.2086652499999957
21453,40.0,0.09704974999999649,48.0,0.34371300000000105
21454,48.0,0.1116154999999992,67.0,0.23209750000000184
21455,53.0,0.23209750000000184,56.0,0.20666674999999657
21456,52.0,0.09704974999999649,45.0,0.33459200000000067
21457,60.0,0.10961700000000008,66.0,0.2249750000000006
21458,53.0,0.2249750000000006,60.0,0.20582424999999915
21459,52.0,0.09704974999999649,48.0,0.333075749999999
21460,62.0,0.10877450000000266,70.0,0.22430124999999634
21461,53.0,0.22430124999999634,68.0,0.2076712500000042
21462,52.0,0.09737725000000097,52.0,0.33611475000000013
21463,60.0,0.11029400000000322,72.0,0.2258207499999969
21464,53.0,0.2258207499999969,52.0,0.20775074999999532
21465,52.0,0.09704974999999649,46.0,0.3365652499999996
21466,59.0,0.11070099999999883,63.0,0.22586425000000077
21467,53.0,0.22586425000000077,55.0,0.2080782499999998
21468,52.0,0.09737725000000097,49.0,0.33448149999999544
21469,59.0,0.11070099999999883,66.0,0.2237804999999966
21470,53.0,0.2237804999999966,51.0,0.2086652499999957
21471,52.0,0.09704974999999649,40.0,0.34371300000000105
21472,60.0,0.1116154999999992,55.0,0.23209750000000184
21473,65.0,0.23209750000000184,53.0,0.20666674999999657
21474,64.0,0.09704974999999649,37.0,0.33459200000000067
21475,72.0,0.10961700000000008,54.0,0.2249750000000006
21476,65.0,0.2249750000000006,57.0,0.20582424999999915
21477,64.0,0.09704974999999649,40.0,0.333075749999999
21478,74.0,0.10877450000000266,60.0,0.22430124999999634
21479,65.0,0.22430124999999634,64.0,0.2080782499999998
21480,64.0,0.09737725000000097,44.0,0.33692874999999844
21481,72.0,0.11070099999999883,64.0,0.22622774999999962
21482,65.0,0.22622774999999962,53.0,0.20966224999999383
21483,64.0,0.09704974999999649,38.0,0.3403882500000037
21484,71.0,0.11261249999999734,53.0,0.22777575000000638
21485,65.0,0.22777575000000638,55.0,0.21170649999999824
21486,64.0,0.09737725000000097,40.0,0.34751750000000214
21487,71.0,0.11432924999999727,54.0,0.23318825000000487
21488,64.0,0.23318825000000487,57.0,0.2086652499999957
21489,63.0,0.09704974999999649,40.0,0.34371300000000105
21490,71.0,0.1116154999999992,55.0,0.23209750000000184
21491,52.0,0.23209750000000184,52.0,0.20666674999999657
21492,51.0,0.09704974999999649,36.0,0.33459200000000067
21493,59.0,0.10961700000000008,53.0,0.2249750000000006
21494,52.0,0.2249750000000006,55.0,0.20582424999999915
21495,51.0,0.09704974999999649,39.0,0.333075749999999
21496,61.0,0.10877450000000266,58.0,0.22430124999999634
21497,52.0,0.22430124999999634,61.0,0.20848825000000204
21498,51.0,0.09737725000000097,42.0,0.33774875000000293
21499,59.0,0.11111100000000107,60.0,0.22663775000000186
21500,52.0,0.22663775000000186,50.0,0.2085739999999987
21501,51.0,0.09704974999999649,36.0,0.33821174999999926
21502,58.0,0.11152425000000221,50.0,0.22668749999999704
21503,52.0,0.22668749999999704,52.0,0.2053297500000042
21504,51.0,0.09737725000000097,37.0,0.3371270000000024
21505,58.0,0.10795250000000323,51.0,0.22917449999999917
21506,53.0,0.22917449999999917,52.0,0.21533924999999954
21507,51.0,0.09968775000000107,37.0,0.35178499999999957
21508,56.0,0.11565149999999846,51.0,0.2361335000000011
21509,53.0,0.2361335000000011,49.0,0.2172819999999973
21510,51.0,0.10073200000000071,34.0,0.3528032500000009
21511,56.0,0.1165499999999966,49.0,0.2362532500000043
21512,53.0,0.2362532500000043,51.0,0.22420375000000092
21513,51.0,0.1014542500000033,36.0,0.3699802500000047
21514,58.0,0.12274949999999762,53.0,0.24723075000000705
21515,53.0,0.24723075000000705,55.0,0.23049524999999704
21516,51.0,0.10518199999999922,38.0,0.3810612500000019
21517,56.0,0.12531324999999782,55.0,0.2557480000000041
21518,53.0,0.2557480000000041,47.0,0.2399397499999978
21519,51.0,0.11029400000000322,32.0,0.39203475000000765
21520,55.0,0.12964574999999456,46.0,0.2623890000000131
21521,53.0,0.2623890000000131,48.0,0.23953183333333072
21522,51.0,0.11450374999999724,34.0,0.43209058333333417
21523,55.0,0.12502808333333348,47.0,0.26867968749999704
21524,53.0,0.3070625000000007,87.0,0.2086652499999957
21525,51.0,0.09704974999999649,63.0,0.1116154999999992
21526,56.0,0.1116154999999992,76.0,0.0558077499999996
21527,46.0,0.23209749999999474,80.0,0.20666674999999657
21528,44.0,0.09704974999999649,55.0,0.10961700000000008
21529,51.0,0.10961700000000008,75.0,0.05480849999999293
21530,53.0,0.2249750000000006,82.0,0.20582424999999205
21531,51.0,0.09704974999999649,58.0,0.10877449999999556
21532,56.0,0.10877449999999556,75.0,0.05438725000000488
21533,53.0,0.22430125000001055,87.0,0.20615174999998942
21534,51.0,0.09737724999999386,61.0,0.10877449999999556
21535,58.0,0.10877449999999556,73.0,0.05438725000000488
21536,48.0,0.22430125000001055,76.0,0.20541550000000086
21537,46.0,0.09704974999999649,55.0,0.10836575000000437
21538,56.0,0.11204075000000557,54.0,0.23021599999998443
21539,58.0,0.23021599999998443,61.0,0.2089347499999974
21540,56.0,0.09804549999999779,44.0,0.1108892499999996
21541,63.0,0.1108892499999996,55.0,0.2271862500000026
21542,60.0,0.2271862500000026,61.0,0.20843175000000258
21543,58.0,0.09797525000000462,46.0,0.11045649999999796
21544,63.0,0.11045649999999796,59.0,0.22966499999999712
21545,58.0,0.22966499999999712,63.0,0.20909050000000207
21546,56.0,0.09704974999999649,46.0,0.11204075000000557
21547,63.0,0.11204075000000557,56.0,0.23021599999998443
21548,58.0,0.23021599999998443,63.0,0.2089347499999974
21549,56.0,0.09804549999999779,44.0,0.1108892499999996
21550,63.0,0.1108892499999996,54.0,0.2271862500000026
21551,60.0,0.2271862500000026,58.0,0.20843175000000258
21552,58.0,0.09797525000000462,44.0,0.11045649999999796
21553,63.0,0.11045649999999796,54.0,0.22966499999999712
21554,58.0,0.22966499999999712,59.0,0.20909050000000207
21555,56.0,0.09704974999999649,43.0,0.11204075000000557
21556,63.0,0.11204075000000557,54.0,0.23021599999998443
21557,58.0,0.23021599999998443,58.0,0.2089347499999974
21558,56.0,0.09804549999999779,40.0,0.1108892499999996
21559,63.0,0.1108892499999996,52.0,0.2271862500000026
21560,58.0,0.2271862500000026,56.0,0.4380967499999997
21561,56.0,0.09797525000000462,42.0,0.11045649999999796
21562,63.0,0.11045649999999796,51.0,0.22966499999999712
21563,58.0,0.22966499999999712,56.0,0.4393064999999865
21564,56.0,0.048524874999998246,40.0,0.048524874999998246
21565,58.0,0.048524874999998246,46.0,0.05602037500000279
21566,56.0,0.05602037500000279,38.0,0.05602037500000279
21567,63.0,0.05602037500000279,49.0,0.23021599999998443
21568,58.0,0.23021599999998443,54.0,0.2089347499999974
21569,56.0,0.049022750000006,37.0,0.04902274999999179
21570,58.0,0.04902274999999179,40.0,0.05544462500000691
21571,56.0,0.05544462500000691,37.0,0.0554446249999927
21572,63.0,0.0554446249999927,47.0,0.2271862500000026
21573,58.0,0.2271862500000026,51.0,0.445470499999999
21574,56.0,0.048987624999995205,37.0,0.048987625000009416
21575,58.0,0.048987625000009416,38.0,0.05522824999999898
21576,56.0,0.05522824999999898,37.0,0.05522824999999898
21577,63.0,0.05522824999999898,46.0,0.2370387499999964
21578,58.0,0.2370387499999964,51.0,0.44397461666666516
21579,56.0,0.05251022500000602,36.0,0.052966175000008775
21580,58.0,0.052966175000008775,40.0,0.055744899999993436
21581,56.0,0.055744899999993436,34.0,0.055602133333351844
21582,58.0,0.055602133333351844,48.0,0.22715118333330508
21583,56.0,0.05561223333333487,34.0,0.05613912499998719
21584,58.0,0.05613912499998719,48.0,0.0570175916666642
21585,56.0,0.0570175916666642,34.0,0.05838223333331882
21586,58.0,0.05838223333331882,47.0,0.21226539166666214
21587,56.0,0.052001050000001214,33.0,0.052583325000000514
21588,58.0,0.052583325000000514,35.0,0.05281687500000487
21589,56.0,0.05281687500000487,33.0,0.05486414166665554
21590,63.0,0.05486414166665554,42.0,0.22331967499999905
21591,56.0,0.0555854083333287,33.0,0.05563904166666589
21592,58.0,0.05563904166666589,35.0,0.056012991666676726
21593,56.0,0.056012991666676726,32.0,0.056082233333327736
21594,58.0,0.056082233333327736,45.0,0.21454919166667707
21595,56.0,0.051951341666665485,32.0,0.05303335000000686
21596,58.0,0.05303335000000686,34.0,0.0544154416666629
21597,56.0,0.0544154416666629,32.0,0.05514905833334183
21598,63.0,0.05514905833334183,40.0,0.22167120833333342
21599,56.0,0.05503031666665947,32.0,0.05547776666666948
21600,58.0,0.05547776666666948,33.0,0.05543302499999925
21601,56.0,0.05543302499999925,31.0,0.05573010000000522
21602,56.0,0.05573010000000522,45.0,0.2163050666666635
21603,58.0,0.05380879999999877,32.0,0.05388180833332967
21604,56.0,0.05388180833332967,34.0,0.054113833333332195
21605,58.0,0.054113833333332195,32.0,0.054500625000002856
21606,56.0,0.054500625000002856,33.0,0.05497363333331862
21607,58.0,0.05497363333331862,32.0,0.055679583333329674
21608,55.0,0.055679583333329674,33.0,0.11920849999999916
21609,56.0,0.11920849999999916,44.0,0.05943758333333449
21610,59.0,0.05943758333333449,44.0,0.05943758333333449
21611,61.0,0.05943758333333449,45.0,0.059686708333330785
21612,60.0,0.059686708333330785,46.0,0.059934749999996484
21613,62.0,0.059934749999996484,46.0,0.0601864583333338
21614,65.0,0.0601864583333338,47.0,0.06035737500000948
21615,63.0,0.06035737500000948,48.0,0.06061099999999442
21616,67.0,0.06061099999999442,48.0,0.06078474999999628
21617,70.0,0.06078474999999628,49.0,0.060870750000006524
21618,68.0,0.060870750000006524,50.0,0.06165808333332734
21619,71.0,0.06165808333332734,50.0,0.06246783333332928
21620,73.0,0.06246783333332928,51.0,0.0632937499999997
21621,72.0,0.0632937499999997,51.0,0.06386141666666845
21622,74.0,0.06386141666666845,52.0,0.0647267500000055
21623,77.0,0.0647267500000055,53.0,0.06561962499999652
21624,75.0,0.06561962499999652,53.0,0.06653354166667214
21625,80.0,0.06653354166667214,60.0,0.75
21626,48.0,1.5,36.0,0.75
21627,48.0,0.75,36.0,2.25
21628,48.0,2.25,36.0,4.0
21629,20.0,0.0,30.0,1.2244177499999997
21630,27.0,0.07211537500000009,37.0,1.1523023749999997
21631,36.0,0.07211537499999987,44.0,1.0801869999999998
21632,48.0,0.1357465,32.0,0.1357465
21633,44.0,0.1357465,32.0,0.1357465
21634,41.0,0.1357465,33.0,0.13574649999999977
21635,39.0,0.13574649999999977,40.0,0.1343002499999999
21636,44.0,0.1343002499999999,36.0,0.1343002499999999
21637,56.0,0.1343002499999999,40.0,0.1343002499999999
21638,53.0,0.1343002499999999,36.0,0.13430025000000034
21639,51.0,0.13430025000000034,40.0,0.1343002499999999
21640,48.0,0.1343002499999999,32.0,0.1343002499999999
21641,44.0,0.1343002499999999,32.0,0.1343002499999999
21642,41.0,0.1343002499999999,32.0,0.13430025000000034
21643,39.0,0.13430025000000034,40.0,0.1343002499999999
21644,44.0,0.1343002499999999,37.0,0.1343002499999999
21645,56.0,0.1343002499999999,40.0,0.1343002499999999
21646,53.0,0.1343002499999999,36.0,0.1343002499999999
21647,15.0,0.1343002499999999,47.0,0.5320148750000007
21648,48.0,0.13271975000000014,35.0,0.13271975000000014
21649,44.0,0.13271975000000014,34.0,0.1327197499999997
21650,41.0,0.1327197499999997,34.0,0.1338556250000007
21651,27.0,0.06635987499999985,33.0,0.06749575000000085
21652,39.0,0.06749575000000085,40.0,0.13921991666666678
21653,27.0,0.07009449999999973,38.0,0.06912541666666705
21654,29.0,0.06912541666666705,39.0,0.13585225000000012
21655,27.0,0.06818275000000007,40.0,0.06766950000000005
21656,56.0,0.06766950000000005,40.0,0.1379395833333339
21657,27.0,0.06849412499999996,41.0,0.06944545833333393
21658,26.0,0.06944545833333393,42.0,0.140714
21659,27.0,0.07022525000000002,42.0,0.07048874999999999
21660,36.0,0.07048874999999999,47.0,1.0872520000000003
21661,48.0,0.13590649999999993,35.0,0.13590649999999993
21662,44.0,0.13590649999999993,35.0,0.13590649999999993
21663,41.0,0.13590649999999993,35.0,0.13590649999999993
21664,34.0,0.13590649999999993,45.0,0.5436260000000006
21665,43.0,0.13590649999999993,38.0,0.13590649999999993
21666,49.0,0.13590649999999993,40.0,0.13590649999999993
21667,46.0,0.13590649999999993,37.0,0.13590650000000082
21668,20.0,0.13590650000000082,47.0,0.27181299999999986
21669,44.0,0.13590649999999993,37.0,0.13590649999999993
21670,27.0,0.13590649999999993,37.0,0.13590649999999993
21671,36.0,0.13590649999999993,33.0,0.13590649999999993
21672,36.0,0.13590649999999993,41.0,0.2675225000000001
21673,44.0,0.13376125000000005,34.0,0.13376125000000005
21674,34.0,0.13376125000000005,41.0,0.2739975000000001
21675,46.0,0.13699875000000006,37.0,0.13699875000000006
21676,20.0,0.13699875000000006,48.0,0.2675225000000001
21677,44.0,0.13376125000000005,38.0,0.13376125000000005
21678,27.0,0.13376125000000005,41.0,0.13376125000000005
21679,32.0,0.13376125000000005,36.0,0.13376125000000005
21680,36.0,0.13376125000000005,42.0,0.2675225000000001
21681,44.0,0.13376125000000005,34.0,0.13376125000000005
21682,34.0,0.13376125000000005,40.0,0.2675225000000001
21683,46.0,0.13376124999999917,36.0,0.13376125000000094
21684,20.0,0.13376125000000094,47.0,0.27109791666666716
21685,44.0,0.13519141666666634,37.0,0.13590650000000082
21686,27.0,0.13590650000000082,45.0,0.13590649999999904
21687,32.0,0.13590649999999904,39.0,0.13590650000000082
21688,36.0,0.13590650000000082,45.0,0.1327197499999997
21689,32.0,0.1327197499999997,40.0,0.1327197499999997
21690,49.0,0.1327197499999997,45.0,0.1352069166666663
21691,47.0,0.1352069166666663,41.0,0.13645050000000047
21692,48.0,0.13645050000000047,45.0,0.27265024999999987
21693,49.0,0.13376124999999917,40.0,0.1388890000000007
21694,53.0,0.1388890000000007,45.0,0.13888899999999893
21695,50.0,0.13888899999999893,41.0,0.1388890000000007
21696,51.0,0.1388890000000007,48.0,0.27777799999999964
21697,55.0,0.13888899999999893,46.0,0.1388890000000007
21698,56.0,0.1388890000000007,50.0,0.1388890000000007
21699,60.0,0.1388890000000007,52.0,1.224367749999999
21700,34.0,0.07177037499999983,37.0,1.1525973749999991
21701,58.0,0.07177037499999983,52.0,1.0808269999999993
21702,55.0,0.13590650000000082,40.0,0.13590649999999904
21703,51.0,0.13590649999999904,45.0,0.13590650000000082
21704,48.0,0.13590650000000082,41.0,0.13590649999999904
21705,46.0,0.13590649999999904,45.0,0.1343002500000008
21706,51.0,0.1343002500000008,40.0,0.134300249999999
21707,63.0,0.134300249999999,48.0,0.1343002500000008
21708,60.0,0.1343002500000008,42.0,0.134300249999999
21709,58.0,0.134300249999999,45.0,0.1343002500000008
21710,55.0,0.1343002500000008,41.0,0.134300249999999
21711,51.0,0.134300249999999,41.0,0.1343002500000008
21712,48.0,0.1343002500000008,41.0,0.134300249999999
21713,46.0,0.134300249999999,45.0,0.1343002500000008
21714,51.0,0.1343002500000008,42.0,0.1343002500000008
21715,63.0,0.1343002500000008,48.0,0.134300249999999
21716,60.0,0.134300249999999,41.0,0.134300249999999
21717,22.0,0.134300249999999,47.0,0.5308790000000005
21718,55.0,0.1327197499999997,42.0,0.1327197499999997
21719,51.0,0.1327197499999997,42.0,0.13271975000000147
21720,48.0,0.13271975000000147,42.0,0.1327197499999997
21721,34.0,0.06635987499999985,33.0,0.06635987499999985
21722,46.0,0.06635987499999985,45.0,0.14041250000000005
21723,34.0,0.07064399999999971,38.0,0.06976850000000034
21724,51.0,0.06976850000000034,41.0,0.13678441666666785
21725,34.0,0.06880829166666658,40.0,0.06797612500000128
21726,63.0,0.06797612500000128,49.0,0.1386850000000006
21727,34.0,0.06915441666666666,41.0,0.06953058333333395
21728,60.0,0.06953058333333395,42.0,0.14059199999999983
21729,34.0,0.07010325000000073,42.0,0.0704887499999991
21730,43.0,0.0704887499999991,47.0,1.0872519999999994
21731,55.0,0.13590650000000082,41.0,0.13590649999999904
21732,51.0,0.13590649999999904,41.0,0.13590650000000082
21733,48.0,0.13590650000000082,41.0,0.13590649999999904
21734,46.0,0.13590649999999904,45.0,0.5436259999999997
21735,50.0,0.13590650000000082,43.0,0.13590649999999904
21736,56.0,0.13590649999999904,45.0,0.13590650000000082
21737,53.0,0.13590650000000082,42.0,0.13590649999999904
21738,27.0,0.13590649999999904,47.0,0.27181299999999986
21739,51.0,0.13590650000000082,42.0,0.13590649999999904
21740,34.0,0.13590649999999904,43.0,0.13590650000000082
21741,39.0,0.13590650000000082,39.0,0.13590649999999904
21742,43.0,0.13590649999999904,44.0,0.2675225000000001
21743,51.0,0.13376124999999917,38.0,0.13376125000000094
21744,56.0,0.13376125000000094,44.0,0.2739975000000001
21745,53.0,0.13699875000000006,42.0,0.13699875000000006
21746,27.0,0.13699875000000006,48.0,0.26752249999999833
21747,51.0,0.13376124999999917,43.0,0.13376124999999917
21748,34.0,0.13376124999999917,42.0,0.13376125000000272
21749,43.0,0.13376125000000272,39.0,0.13376124999999917
21750,43.0,0.13376124999999917,45.0,0.26752249999999833
21751,51.0,0.13376124999999917,38.0,0.13376124999999917
21752,41.0,0.13376124999999917,42.0,0.2675225000000019
21753,53.0,0.13376125000000272,41.0,0.13376124999999917
21754,27.0,0.13376124999999917,47.0,0.18049358333333387
21755,51.0,0.13519141666666812,42.0,0.13590649999999727
21756,34.0,0.045302166666665755,45.0,0.18120866666666657
21757,46.0,0.09060433333333151,37.0,0.13590650000000082
21758,39.0,0.09060433333333506,39.0,0.18120866666666657
21759,43.0,0.045302166666665755,37.0,0.12911117499999847
21760,43.0,0.13590650000000082,47.0,0.17695966666666507
21761,51.0,0.1327197499999997,36.0,0.1327197499999997
21762,49.0,0.04423991666666538,44.0,0.1782032500000028
21763,55.0,0.08847983333333431,51.0,0.13520691666666806
21764,58.0,0.13520691666666806,49.0,0.13645050000000225
21765,63.0,0.13645050000000225,51.0,0.13376124999999917
21766,67.0,0.13376124999999917,49.0,0.13824874999999892
21767,65.0,0.13824874999999892,51.0,0.13824875000000247
21768,58.0,0.13824875000000247,47.0,0.13824874999999892
21769,53.0,0.13824874999999892,51.0,0.13824874999999892
21770,58.0,0.13824874999999892,47.0,0.13824875000000247
21771,53.0,0.13824875000000247,49.0,0.13824874999999892
21772,55.0,0.13824874999999892,48.0,1.2190757499999982
21773,39.0,0.06912437499999768,37.0,1.1499513750000006
21774,63.0,0.06912437500000124,52.0,1.0808269999999993
21775,60.0,0.13590650000000082,42.0,0.13590650000000082
21776,56.0,0.13590650000000082,42.0,0.13590649999999727
21777,53.0,0.13590649999999727,43.0,0.13590650000000082
21778,51.0,0.13590650000000082,46.0,0.134300249999999
21779,56.0,0.134300249999999,42.0,0.13430025000000256
21780,68.0,0.13430025000000256,51.0,0.134300249999999
21781,65.0,0.134300249999999,46.0,0.134300249999999
21782,63.0,0.134300249999999,51.0,0.134300249999999
21783,60.0,0.134300249999999,46.0,0.13430025000000256
21784,56.0,0.13430025000000256,46.0,0.134300249999999
21785,53.0,0.134300249999999,46.0,0.134300249999999
21786,51.0,0.134300249999999,51.0,0.134300249999999
21787,56.0,0.134300249999999,47.0,0.13430025000000256
21788,68.0,0.13430025000000256,51.0,0.134300249999999
21789,65.0,0.134300249999999,46.0,0.134300249999999
21790,63.0,0.134300249999999,53.0,0.5308789999999988
21791,60.0,0.1327197499999997,44.0,0.1327197499999997
21792,56.0,0.1327197499999997,44.0,0.1327197499999997
21793,53.0,0.1327197499999997,44.0,0.1327197499999997
21794,39.0,0.06635987499999985,33.0,0.06635987499999985
21795,51.0,0.06635987499999985,46.0,0.13975829166666642
21796,39.0,0.07031283333333249,38.0,0.06944545833333393
21797,56.0,0.06944545833333393,43.0,0.13606262499999744
21798,39.0,0.0684941249999973,40.0,0.06756850000000014
21799,68.0,0.06756850000000014,51.0,0.1372873333333331
21800,39.0,0.06775675000000092,41.0,0.06953058333333217
21801,65.0,0.06953058333333217,47.0,0.1405920000000016
21802,39.0,0.0701032500000025,42.0,0.0704887499999991
21803,63.0,0.0704887499999991,51.0,1.0872519999999994
21804,60.0,0.13590650000000082,46.0,0.13590650000000082
21805,56.0,0.13590650000000082,46.0,0.13590649999999727
21806,53.0,0.13590649999999727,46.0,0.13590650000000082
21807,51.0,0.13590650000000082,51.0,0.5436259999999997
21808,55.0,0.13590650000000082,49.0,0.13590650000000082
21809,61.0,0.13590650000000082,51.0,0.13590649999999727
21810,58.0,0.13590649999999727,47.0,0.13590650000000082
21811,60.0,0.13590650000000082,51.0,0.27181300000000164
21812,56.0,0.13590650000000082,44.0,0.13590650000000082
21813,39.0,0.13590650000000082,44.0,0.13590649999999727
21814,44.0,0.13590649999999727,40.0,0.13590650000000082
21815,48.0,0.13590650000000082,46.0,0.26752249999999833
21816,56.0,0.13376124999999917,40.0,0.13376124999999917
21817,61.0,0.13376124999999917,44.0,0.2739975000000001
21818,58.0,0.13699875000000006,44.0,0.13699875000000006
21819,32.0,0.13699875000000006,48.0,0.26752249999999833
21820,56.0,0.13376124999999917,45.0,0.13376124999999917
21821,39.0,0.13376124999999917,43.0,0.13376125000000272
21822,48.0,0.13376125000000272,41.0,0.13376124999999917
21823,48.0,0.13376124999999917,45.0,0.26752249999999833
21824,56.0,0.13376124999999917,40.0,0.13376124999999917
21825,72.0,0.13590649999999727,42.0,0.13590650000000437
21826,68.0,0.13590650000000437,42.0,0.13590649999999727
21827,65.0,0.13590649999999727,42.0,0.13590650000000437
21828,63.0,0.13590650000000437,45.0,0.5436259999999962
21829,67.0,0.13590649999999727,44.0,0.13590649999999727
21830,73.0,0.13590649999999727,45.0,0.13590650000000437
21831,70.0,0.13590650000000437,43.0,0.13590649999999727
21832,72.0,0.13590649999999727,45.0,0.27181300000000164
21833,68.0,0.13590649999999727,43.0,0.13590650000000437
21834,39.0,0.13590650000000437,40.0,0.13590649999999727
21835,44.0,0.13590649999999727,38.0,0.13590650000000437
21836,56.0,0.13590650000000437,43.0,0.26752249999999833
21837,51.0,0.13376124999999917,39.0,0.13376124999999917
21838,61.0,0.13376124999999917,42.0,0.2739975000000001
21839,58.0,0.1369987499999965,43.0,0.1369987500000036
21840,60.0,0.1369987500000036,45.0,0.26752249999999833
21841,56.0,0.13376124999999917,44.0,0.13376124999999917
21842,51.0,0.13376124999999917,40.0,0.13376124999999917
21843,48.0,0.13376124999999917,40.0,0.13376124999999917
21844,44.0,0.13376124999999917,43.0,0.26431699999999836
21845,39.0,0.13215850000000273,39.0,0.13215849999999563
21846,49.0,0.13215849999999563,42.0,0.272727500000002
21847,46.0,0.136363750000001,42.0,0.136363750000001
21848,48.0,0.136363750000001,45.0,0.27149299999999954
21849,44.0,0.13574650000000332,44.0,0.13574649999999622
21850,39.0,0.13574649999999622,39.0,0.13574650000000332
21851,36.0,0.13574650000000332,39.0,0.13574649999999622
21852,39.0,0.13574649999999622,41.0,0.2666664999999995
21853,44.0,0.13333324999999974,36.0,0.13333324999999974
21854,49.0,0.13333324999999974,39.0,0.2803740000000019
21855,46.0,0.1401869999999974,39.0,0.1401870000000045
21856,48.0,0.1401870000000045,42.0,0.2702705000000023
21857,44.0,0.1351352499999976,41.0,0.1351352500000047
21858,27.0,0.1351352500000047,35.0,0.1351352499999976
21859,36.0,0.1351352499999976,34.0,0.1351352499999976
21860,39.0,0.1351352499999976,38.0,0.2654865000000015
21861,44.0,0.1327432499999972,34.0,0.1327432500000043
21862,49.0,0.1327432500000043,35.0,0.27906999999999726
21863,46.0,0.13953500000000219,35.0,0.13953499999999508
21864,48.0,0.13953499999999508,38.0,0.4117967500000006
21865,44.0,0.13740525000000048,38.0,0.13698624999999964
21866,39.0,0.13698624999999964,34.0,0.13740525000000048
21867,36.0,0.13740525000000048,34.0,0.13740525000000048
21868,39.0,0.13740525000000048,34.0,0.1371957499999965
21869,44.0,0.1371957499999965,32.0,0.1380374166666698
21870,48.0,0.1380374166666698,36.0,0.13910433333333572
21871,51.0,0.13910433333333572,33.0,0.14026441666666045
21872,56.0,0.14026441666666045,39.0,0.140735854166671
21873,60.0,0.140735854166671,34.0,0.14428381249999944
21874,63.0,0.14428381249999944,30.0,0.14780368125000365
21875,68.0,0.14780368125000365,26.0,0.15149596041666769
21876,72.0,0.15149596041666769,33.0,0.15599699999999928
21877,63.0,0.15599699999999928,31.0,0.16247508333333371
21878,68.0,0.16247508333333371,29.0,0.20746900000000323
21879,60.0,0.20746900000000323,26.0,0.33259424999999965
21880,80.0,0.33259424999999965,42.0,1.0084030000000013
21881,49.0,0.0,49.0,0.322078
21882,49.0,0.322078,48.0,0.10461983333333336
21883,37.0,0.10461983333333336,37.0,0.10489750000000009
21884,46.0,0.10489750000000009,37.0,0.10453433333333328
21885,54.0,0.10453433333333328,52.0,0.10438966666666682
21886,42.0,0.10438966666666682,39.0,0.10368016666666668
21887,49.0,0.10368016666666668,40.0,0.10283050000000005
21888,58.0,0.10283050000000005,56.0,0.10248133333333342
21889,46.0,0.10248133333333342,41.0,0.1022039166666664
21890,54.0,0.1022039166666664,44.0,0.10179041666666677
21891,61.0,0.10179041666666677,63.0,0.10144833333333336
21892,49.0,0.10144833333333336,49.0,0.10110849999999982
21893,58.0,0.10110849999999982,50.0,0.10070391666666678
21894,66.0,0.10070391666666678,68.0,0.10037166666666675
21895,54.0,0.10037166666666675,52.0,0.10004141666666655
21896,61.0,0.10004141666666655,55.0,0.09964525000000002
21897,70.0,0.09964525000000002,71.0,0.09860400000000036
21898,58.0,0.09860400000000036,54.0,0.09931808333333292
21899,61.0,0.09931808333333292,57.0,0.10010733333333377
21900,68.0,0.10010733333333377,75.0,0.10050266666666641
21901,53.0,0.10050266666666641,58.0,0.10185900000000014
21902,59.0,0.10185900000000014,56.0,0.1021346666666667
21903,66.0,0.1021346666666667,72.0,0.10241166666666679
21904,54.0,0.10241166666666679,56.0,0.10269033333333333
21905,59.0,0.10269033333333333,55.0,0.10297066666666677
21906,63.0,0.10297066666666677,68.0,0.10325233333333328
21907,51.0,0.10325233333333328,51.0,0.10325233333333328
21908,59.0,0.10325233333333328,49.0,0.10797400000000001
21909,63.0,0.10797400000000001,70.0,0.10325233333333328
21910,51.0,0.10325233333333328,51.0,0.10353566666666669
21911,58.0,0.10353566666666669,46.0,0.10382066666666656
21912,61.0,0.10382066666666656,62.0,0.10417366666666616
21913,49.0,0.10417366666666616,43.0,0.10446200000000072
21914,54.0,0.10446200000000072,43.0,0.10475183333333327
21915,58.0,0.10475183333333327,60.0,0.10504349999999985
21916,46.0,0.10504349999999985,43.0,0.1054103333333325
21917,49.0,0.1054103333333325,41.0,0.10484083333333327
21918,54.0,0.10484083333333327,53.0,0.10269033333333422
21919,42.0,0.10269033333333422,38.0,0.10241166666666679
21920,48.0,0.10241166666666679,38.0,0.10213466666666626
21921,53.0,0.10213466666666626,54.0,0.10185900000000014
21922,41.0,0.10185900000000014,44.0,0.10158466666666666
21923,48.0,0.10158466666666666,48.0,0.10131200000000007
21924,54.0,0.10131200000000007,64.0,0.101040666666667
21925,42.0,0.101040666666667,51.0,0.10077099999999994
21926,48.0,0.10077099999999994,55.0,0.10050266666666641
21927,58.0,0.10050266666666641,70.0,0.09847499999999965
21928,46.0,0.09847499999999965,55.0,0.09879733333333363
21929,49.0,0.09879733333333363,53.0,0.099121666666667
21930,56.0,0.099121666666667,65.0,0.09951374999999985
21931,44.0,0.09951374999999985,49.0,0.09984300000000079
21932,49.0,0.09984300000000079,47.0,0.10017425000000024
21933,53.0,0.10017425000000024,63.0,0.10056975000000001
21934,41.0,0.10056975000000001,42.0,0.10090583333333303
21935,44.0,0.10090583333333303,41.0,0.10077400000000036
21936,54.0,0.10077400000000036,53.0,0.10554099999999966
21937,42.0,0.10554099999999966,38.0,0.1039023333333331
21938,48.0,0.1039023333333331,38.0,0.1045070000000008
21939,53.0,0.1045070000000008,54.0,0.10403133333333336
21940,41.0,0.10403133333333336,44.0,0.10362733333333285
21941,48.0,0.10362733333333285,47.0,0.10315974999999966
21942,54.0,0.10315974999999966,59.0,0.10349374999999927
21943,42.0,0.10349374999999927,50.0,0.10457608333333379
21944,48.0,0.10457608333333379,54.0,0.12018799999999974
21945,58.0,0.12018799999999974,67.0,0.10430549999999972
21946,46.0,0.10430549999999972,49.0,0.10416699999999945
21947,51.0,0.10416699999999945,48.0,0.10362733333333374
21948,56.0,0.10362733333333374,60.0,0.10309266666666694
21949,44.0,0.10309266666666694,43.0,0.10309266666666606
21950,47.0,0.10309266666666606,42.0,0.10263058333333319
21951,51.0,0.10263058333333319,58.0,0.10423716666666749
21952,39.0,0.10423716666666749,42.0,0.10603316666666807
21953,44.0,0.10603316666666807,41.0,0.1059897499999991
21954,49.0,0.1059897499999991,53.0,0.10461983333333436
21955,37.0,0.10461983333333436,38.0,0.10489749999999987
21956,46.0,0.10489749999999987,37.0,0.1045343333333335
21957,54.0,0.1045343333333335,52.0,0.10438966666666616
21958,42.0,0.10438966666666616,39.0,0.10368016666666868
21959,49.0,0.10368016666666868,40.0,0.10283049999999783
21960,58.0,0.10283049999999783,56.0,0.10248133333333342
21961,46.0,0.10248133333333342,41.0,0.10220391666666728
21962,54.0,0.10220391666666728,44.0,0.10179041666666677
21963,61.0,0.10179041666666677,69.0,0.10200116666666581
21964,49.0,0.10200116666666581,49.0,0.10110850000000049
21965,58.0,0.10110850000000049,50.0,0.10070391666666545
21966,66.0,0.10070391666666545,74.0,0.10037166666666764
21967,54.0,0.10037166666666764,52.0,0.10004141666666655
21968,61.0,0.10004141666666655,55.0,0.09964525000000002
21969,70.0,0.09964525000000002,77.0,0.09860399999999991
21970,58.0,0.09860399999999991,63.0,0.09931808333333514
21971,61.0,0.09931808333333514,68.0,0.100107333333332
21972,68.0,0.100107333333332,81.0,0.1005026666666673
21973,53.0,0.1005026666666673,64.0,0.10185899999999926
21974,59.0,0.10185899999999926,61.0,0.10213466666666626
21975,66.0,0.10213466666666626,75.0,0.10241166666666679
21976,54.0,0.10241166666666679,56.0,0.10269033333333333
21977,59.0,0.10269033333333333,55.0,0.10297066666666588
21978,63.0,0.10297066666666588,67.0,0.10325233333333372
21979,51.0,0.10325233333333372,51.0,0.10325233333333372
21980,59.0,0.10325233333333372,49.0,0.10797400000000046
21981,63.0,0.10797400000000046,70.0,0.10325233333333372
21982,51.0,0.10325233333333372,42.0,0.1035356666666658
21983,58.0,0.1035356666666658,43.0,0.10382066666666745
21984,61.0,0.10382066666666745,62.0,0.10417366666666794
21985,49.0,0.10417366666666794,43.0,0.10446199999999806
21986,54.0,0.10446199999999806,43.0,0.10475183333333504
21987,58.0,0.10475183333333504,60.0,0.10504350000000073
21988,46.0,0.10504350000000073,43.0,0.10541033333333338
21989,54.0,0.10541033333333338,41.0,0.10484083333333416
21990,57.0,0.10484083333333416,57.0,0.10382066666666745
21991,45.0,0.10382066666666745,38.0,0.10241166666666679
21992,54.0,0.10241166666666679,37.0,0.10213466666666626
21993,56.0,0.10213466666666626,53.0,0.10185899999999926
21994,44.0,0.10185899999999926,39.0,0.10158466666666577
21995,54.0,0.10158466666666577,40.0,0.10131200000000007
21996,57.0,0.10131200000000007,59.0,0.10104066666666611
21997,45.0,0.10104066666666611,41.0,0.10077099999999994
21998,54.0,0.10077099999999994,44.0,0.1005026666666673
21999,58.0,0.1005026666666673,63.0,0.10104066666666611
22000,46.0,0.10104066666666611,42.0,0.10090583333333392
22001,53.0,0.10090583333333392,42.0,0.10070391666666545
22002,60.0,0.10070391666666545,67.0,0.1005026666666673
22003,48.0,0.1005026666666673,47.0,0.1002406666666662
22004,53.0,0.1002406666666662,52.0,0.10004141666666833
22005,61.0,0.10004141666666833,70.0,0.0998429999999999
22006,49.0,0.0998429999999999,51.0,0.0996452500000018
22007,53.0,0.0996452500000018,55.0,0.1005026666666673
22008,63.0,0.1005026666666673,75.0,0.10382066666666745
22009,51.0,0.10382066666666745,55.0,0.10241166666666679
22010,56.0,0.10241166666666679,55.0,0.10213466666666626
22011,65.0,0.10213466666666626,72.0,0.10185899999999926
22012,53.0,0.10185899999999926,54.0,0.10158466666666754
22013,56.0,0.10158466666666754,48.0,0.10131200000000007
22014,60.0,0.10131200000000007,67.0,0.10104066666666611
22015,48.0,0.10104066666666611,48.0,0.10077099999999994
22016,56.0,0.10077099999999994,50.0,0.11080333333333314
22017,63.0,0.11080333333333314,68.0,0.10236725000000035
22018,51.0,0.10236725000000035,52.0,0.10276175000000087
22019,56.0,0.10276175000000087,48.0,0.10322599999999937
22020,61.0,0.10322599999999937,67.0,0.10369425000000021
22021,49.0,0.10369425000000021,43.0,0.10416700000000034
22022,56.0,0.10416700000000034,42.0,0.11834333333333369
22023,56.0,0.11834333333333369,65.0,0.10309266666666694
22024,44.0,0.10309266666666694,42.0,0.10309266666666694
22025,49.0,0.10309266666666694,41.0,0.10128699999999746
22026,56.0,0.10128699999999746,59.0,0.10325233333333372
22027,44.0,0.10325233333333372,47.0,0.10425766666666725
22028,50.0,0.10425766666666725,41.0,0.105262999999999
22029,54.0,0.105262999999999,54.0,0.10204066666666733
22030,42.0,0.10204066666666733,41.0,0.10158466666666754
22031,49.0,0.10158466666666754,43.0,0.10131200000000007
22032,56.0,0.10131200000000007,64.0,0.10104066666666611
22033,40.0,0.10104066666666611,44.0,0.10077100000000172
22034,47.0,0.10077100000000172,47.0,0.10386591666666689
22035,59.0,0.10386591666666689,70.0,0.10424250000000157
22036,40.0,0.10424250000000157,53.0,0.09879733333333007
22037,49.0,0.09879733333333007,52.0,0.09912166666666877
22038,57.0,0.09912166666666877,67.0,0.09951374999999985
22039,40.0,0.09951374999999985,43.0,0.0998429999999999
22040,49.0,0.0998429999999999,42.0,0.10017424999999847
22041,52.0,0.10017424999999847,62.0,0.10056974999999824
22042,40.0,0.10056974999999824,42.0,0.10090583333333569
22043,49.0,0.10090583333333569,41.0,0.1007739999999977
22044,56.0,0.1007739999999977,53.0,0.10325233333333372
22045,40.0,0.10325233333333372,38.0,0.10241166666666501
22046,50.0,0.10241166666666501,38.0,0.10213466666666804
22047,54.0,0.10213466666666804,54.0,0.10185900000000103
22048,40.0,0.10185900000000103,41.0,0.10158466666666754
22049,49.0,0.10158466666666754,43.0,0.10131200000000007
22050,56.0,0.10131200000000007,59.0,0.10104066666666611
22051,40.0,0.10104066666666611,49.0,0.10077100000000172
22052,47.0,0.10077100000000172,47.0,0.1005026666666673
22053,59.0,0.1005026666666673,69.0,0.09847500000000053
22054,40.0,0.09847500000000053,51.0,0.09879733333333007
22055,49.0,0.09879733333333007,50.0,0.09912166666666877
22056,57.0,0.09912166666666877,67.0,0.09951374999999985
22057,40.0,0.09951374999999985,43.0,0.0998429999999999
22058,49.0,0.0998429999999999,42.0,0.10017424999999847
22059,52.0,0.10017424999999847,62.0,0.10056974999999824
22060,40.0,0.10056974999999824,42.0,0.10090583333333569
22061,49.0,0.10090583333333569,41.0,0.1007739999999977
22062,55.0,0.1007739999999977,58.0,0.11627899999999869
22063,43.0,0.11627899999999869,38.0,0.10241166666666501
22064,49.0,0.10241166666666501,38.0,0.10213466666666804
22065,61.0,0.10213466666666804,63.0,0.10185900000000103
22066,43.0,0.10185900000000103,44.0,0.10158466666666754
22067,52.0,0.10158466666666754,45.0,0.10131200000000007
22068,64.0,0.10131200000000007,68.0,0.10104066666666611
22069,49.0,0.10104066666666611,48.0,0.10077100000000172
22070,55.0,0.10077100000000172,51.0,0.1005026666666673
22071,65.0,0.1005026666666673,76.0,0.10104066666666611
22072,49.0,0.10104066666666611,53.0,0.10090583333333569
22073,56.0,0.10090583333333569,52.0,0.10070391666666723
22074,66.0,0.10070391666666723,72.0,0.1005026666666673
22075,49.0,0.1005026666666673,43.0,0.10024066666666798
22076,58.0,0.10024066666666798,43.0,0.10004141666666655
22077,62.0,0.10004141666666655,66.0,0.10010733333333377
22078,47.0,0.10010733333333377,53.0,0.10138166666666493
22079,53.0,0.10138166666666493,54.0,0.10262191666666709
22080,63.0,0.10262191666666709,71.0,0.10666666666666558
22081,48.0,0.10666666666666558,55.0,0.10437066666666794
22082,54.0,0.10437066666666794,52.0,0.10389641666666449
22083,65.0,0.10389641666666449,70.0,0.10335958333333295
22084,48.0,0.10335958333333295,51.0,0.10467158333333515
22085,56.0,0.10467158333333515,47.0,0.10542824999999922
22086,60.0,0.10542824999999922,62.0,0.10389599999999888
22087,48.0,0.10389599999999888,42.0,0.10389600000000243
22088,51.0,0.10389600000000243,43.0,0.10389599999999888
22089,63.0,0.10389599999999888,70.0,0.10178133333333506
22090,44.0,0.10178133333333506,48.0,0.1017813333333315
22091,54.0,0.1017813333333315,47.0,0.10178133333333506
22092,61.0,0.10178133333333506,65.0,0.10362699999999947
22093,44.0,0.10362699999999947,43.0,0.10362699999999947
22094,53.0,0.10362699999999947,42.0,0.11834333333333191
22095,56.0,0.11834333333333191,59.0,0.10178133333333506
22096,44.0,0.10178133333333506,42.0,0.1018395833333301
22097,49.0,0.1018395833333301,41.0,0.1009785833333332
22098,56.0,0.1009785833333332,57.0,0.10410166666666498
22099,44.0,0.10410166666666498,38.0,0.10241166666666501
22100,50.0,0.10241166666666501,38.0,0.10213466666666804
22101,54.0,0.10213466666666804,59.0,0.10185900000000103
22102,42.0,0.10185900000000103,45.0,0.10158466666666754
22103,49.0,0.10158466666666754,47.0,0.10131200000000007
22104,56.0,0.10131200000000007,66.0,0.10104066666666611
22105,40.0,0.10104066666666611,53.0,0.10077100000000172
22106,47.0,0.10077100000000172,56.0,0.1005026666666673
22107,59.0,0.1005026666666673,71.0,0.09847500000000053
22108,40.0,0.09847500000000053,53.0,0.09879733333333007
22109,49.0,0.09879733333333007,52.0,0.09912166666666877
22110,57.0,0.09912166666666877,66.0,0.09951374999999985
22111,40.0,0.09951374999999985,49.0,0.0998429999999999
22112,44.0,0.10443866666666679,43.0,0.10443866666666679
22113,47.0,0.10443866666666679,42.0,0.12461066666666909
22114,51.0,0.12461066666666909,58.0,0.10256400000000099
22115,39.0,0.10256400000000099,42.0,0.10256400000000099
22116,44.0,0.10256400000000099,41.0,0.10115483333333941
22117,49.0,0.10115483333333941,53.0,0.1046198333333308
22118,37.0,0.1046198333333308,38.0,0.10489749999999987
22119,46.0,0.10489749999999987,37.0,0.1045343333333335
22120,54.0,0.1045343333333335,51.0,0.10438966666666971
22121,42.0,0.10438966666666971,38.0,0.10368016666666335
22122,49.0,0.10368016666666335,40.0,0.10283049999999605
22123,58.0,0.10283049999999605,54.0,0.10248133333333698
22124,46.0,0.10248133333333698,40.0,0.10220391666666728
22125,54.0,0.10220391666666728,43.0,0.10179041666666677
22126,61.0,0.10179041666666677,65.0,0.10200116666666048
22127,49.0,0.10200116666666048,47.0,0.10110850000000227
22128,58.0,0.10110850000000227,47.0,0.10070391666666723
22129,66.0,0.10070391666666723,70.0,0.10037166666666764
22130,54.0,0.10037166666666764,49.0,0.1000414166666701
22131,61.0,0.1000414166666701,51.0,0.0996452500000018
22132,70.0,0.0996452500000018,73.0,0.09860400000000169
22133,58.0,0.09860400000000169,51.0,0.09931808333333692
22134,61.0,0.09931808333333692,53.0,0.09964866666666694
22135,69.0,0.09964866666666694,81.0,0.09866799999999643
22136,54.0,0.09866799999999643,57.0,0.09892666666666372
22137,60.0,0.09892666666666372,59.0,0.09912166666666877
22138,68.0,0.09912166666666877,77.0,0.0993173333333317
22139,53.0,0.0993173333333317,57.0,0.09951375000000695
22140,59.0,0.09951375000000695,58.0,0.09971099999999922
22141,67.0,0.09971099999999922,76.0,0.09997500000000059
22142,52.0,0.09997500000000059,52.0,0.10017425000000202
22143,58.0,0.10017425000000202,51.0,0.10037166666666764
22144,66.0,0.10037166666666764,84.0,0.10161366666666538
22145,51.0,0.10161366666666538,53.0,0.1000414166666701
22146,57.0,0.1000414166666701,53.0,0.10030616666666248
22147,65.0,0.10030616666666248,75.0,0.10056974999999824
22148,50.0,0.10056974999999824,52.0,0.10077099999999461
22149,56.0,0.10077099999999461,48.0,0.10104066666666967
22150,64.0,0.10104066666666967,70.0,0.10131200000000007
22151,52.0,0.10131200000000007,52.0,0.10158466666666754
22152,58.0,0.10158466666666754,51.0,0.10206683333333189
22153,63.0,0.10206683333333189,74.0,0.1038206666666639
22154,51.0,0.1038206666666639,50.0,0.10241166666666857
22155,56.0,0.10241166666666857,49.0,0.10213466666666449
22156,65.0,0.10213466666666449,79.0,0.10185899999999748
22157,51.0,0.10185899999999748,56.0,0.10158466666666754
22158,56.0,0.10158466666666754,58.0,0.10131200000000007
22159,66.0,0.10131200000000007,86.0,0.10104066666666967
22160,51.0,0.10104066666666967,61.0,0.10077100000000172
22161,56.0,0.10077100000000172,65.0,0.10050266666666374
22162,68.0,0.10050266666666374,89.0,0.10104066666666967
22163,56.0,0.10104066666666967,62.0,0.10090583333332859
22164,63.0,0.10090583333332859,63.0,0.10070391666666723
22165,70.0,0.10070391666666723,80.0,0.10050266666666374
22166,58.0,0.10050266666666374,50.0,0.10024066666666442
22167,63.0,0.10024066666666442,51.0,0.1000414166666701
22168,68.0,0.1000414166666701,75.0,0.0998429999999999
22169,56.0,0.0998429999999999,47.0,0.0996452500000018
22170,59.0,0.0996452500000018,48.0,0.10050266666666374
22171,63.0,0.10050266666666374,70.0,0.10989000000000004
22172,51.0,0.10989000000000004,51.0,0.10241166666666857
22173,56.0,0.10241166666666857,50.0,0.10213466666666449
22174,65.0,0.10213466666666449,68.0,0.10185899999999748
22175,53.0,0.10185899999999748,53.0,0.10158466666666754
22176,56.0,0.10158466666666754,49.0,0.10131200000000007
22177,63.0,0.10131200000000007,61.0,0.10104066666666967
22178,51.0,0.10104066666666967,44.0,0.10077100000000172
22179,56.0,0.10077100000000172,46.0,0.10050266666666374
22180,56.0,0.10050266666666374,57.0,0.1038206666666639
22181,44.0,0.1038206666666639,42.0,0.10241166666666857
22182,51.0,0.10241166666666857,41.0,0.10213466666666449
22183,58.0,0.10213466666666449,55.0,0.10185899999999748
22184,44.0,0.10185899999999748,44.0,0.10158466666666754
22185,51.0,0.10158466666666754,44.0,0.10124245833333134
22186,53.0,0.10124245833333134,50.0,0.10198195833333301
22187,41.0,0.10198195833333301,36.0,0.104719750000001
22188,49.0,0.104719750000001,37.0,0.1076437916666606
22189,54.0,0.1076437916666606,52.0,0.10200116666666048
22190,42.0,0.10200116666666048,40.0,0.10110850000000227
22191,49.0,0.10110850000000227,41.0,0.10070391666666723
22192,61.0,0.10070391666666723,61.0,0.10037166666666764
22193,46.0,0.10037166666666764,44.0,0.10114066666666588
22194,54.0,0.10114066666666588,47.0,0.125
22195,62.0,0.125,68.0,0.09860400000000169
22196,46.0,0.09860400000000169,48.0,0.09912166666666877
22197,54.0,0.09912166666666877,51.0,0.10410166666666498
22198,61.0,0.10410166666666498,68.0,0.09838079166667058
22199,35.0,0.09838079166667058,54.0,0.10185899999999748
22200,53.0,0.10185899999999748,49.0,0.10213466666666449
22201,60.0,0.10213466666666449,69.0,0.10241166666666857
22202,47.0,0.10241166666666857,49.0,0.1026903333333351
22203,53.0,0.1026903333333351,46.0,0.1029706666666641
22204,59.0,0.1029706666666641,63.0,0.10325233333333017
22205,47.0,0.10325233333333017,45.0,0.10325233333333728
22206,53.0,0.10325233333333728,40.0,0.10797399999999868
22207,58.0,0.10797399999999868,52.0,0.10200116666666048
22208,46.0,0.10200116666666048,40.0,0.10110850000000227
22209,54.0,0.10110850000000227,41.0,0.10070391666666723
22210,61.0,0.10070391666666723,61.0,0.10037166666666764
22211,46.0,0.10037166666666764,44.0,0.1000414166666701
22212,54.0,0.1000414166666701,47.0,0.10565575000000393
22213,63.0,0.10565575000000393,67.0,0.10077100000000172
22214,46.0,0.10077100000000172,48.0,0.10077100000000172
22215,54.0,0.10077100000000172,51.0,0.10410166666666498
22216,61.0,0.10410166666666498,69.0,0.09925566666666441
22217,47.0,0.09925566666666441,51.0,0.10185899999999748
22218,53.0,0.10185899999999748,49.0,0.10213466666666449
22219,60.0,0.10213466666666449,62.0,0.10241166666666857
22220,47.0,0.10241166666666857,49.0,0.1026903333333351
22221,53.0,0.1026903333333351,46.0,0.1029706666666641
22222,59.0,0.1029706666666641,55.0,0.10325233333333017
22223,47.0,0.10325233333333017,45.0,0.10325233333333728
22224,53.0,0.10325233333333728,40.0,0.10797399999999868
22225,58.0,0.10797399999999868,52.0,0.10200116666666048
22226,46.0,0.10200116666666048,40.0,0.10110850000000227
22227,54.0,0.10110850000000227,42.0,0.10070391666666723
22228,61.0,0.10070391666666723,65.0,0.10037166666666764
22229,46.0,0.10037166666666764,48.0,0.1000414166666701
22230,58.0,0.1000414166666701,50.0,0.0996452500000018
22231,66.0,0.0996452500000018,75.0,0.09860400000000169
22232,54.0,0.09860400000000169,54.0,0.09912166666666877
22233,61.0,0.09912166666666877,58.0,0.12345666666666943
22234,70.0,0.12345666666666943,82.0,0.09925566666666441
22235,53.0,0.09925566666666441,59.0,0.0998900416666686
22236,62.0,0.0998900416666686,56.0,0.10009416666666482
22237,68.0,0.10009416666666482,74.0,0.10069258333333408
22238,53.0,0.10069258333333408,55.0,0.10123412499999773
22239,58.0,0.10123412499999773,53.0,0.10181400000000451
22240,66.0,0.10181400000000451,71.0,0.10219212500000197
22241,51.0,0.10219212500000197,52.0,0.10269999999999868
22242,58.0,0.10269999999999868,51.0,0.10335933333333713
22243,66.0,0.10335933333333713,75.0,0.09975066666666521
22244,51.0,0.09975066666666521,57.0,0.10059754166666579
22245,57.0,0.10059754166666579,51.0,0.10101033333334186
22246,65.0,0.10101033333334186,70.0,0.1014264999999952
22247,50.0,0.1014264999999952,51.0,0.1019110000000012
22248,57.0,0.1019110000000012,50.0,0.1023674166666595
22249,63.0,0.1023674166666595,65.0,0.10325233333333017
22250,51.0,0.10325233333333017,45.0,0.10325233333333728
22251,57.0,0.10325233333333728,44.0,0.10325233333333017
22252,63.0,0.10325233333333017,61.0,0.10077100000000172
22253,47.0,0.10077100000000172,46.0,0.10185899999999748
22254,56.0,0.10185899999999748,45.0,0.10213466666666449
22255,61.0,0.10213466666666449,58.0,0.10241166666666857
22256,46.0,0.10241166666666857,44.0,0.1026903333333351
22257,51.0,0.1026903333333351,43.0,0.1029706666666641
22258,59.0,0.1029706666666641,55.0,0.10325233333333017
22259,44.0,0.10325233333333017,43.0,0.10325233333333728
22260,53.0,0.10325233333333728,39.0,0.10797399999999868
22261,58.0,0.10797399999999868,52.0,0.10200116666666048
22262,42.0,0.10200116666666048,40.0,0.10110850000000227
22263,54.0,0.10110850000000227,41.0,0.10070391666666723
22264,61.0,0.10070391666666723,61.0,0.10037166666666764
22265,46.0,0.10037166666666764,49.0,0.10127329166666499
22266,54.0,0.10127329166666499,51.0,0.10441195833333694
22267,62.0,0.10441195833333694,69.0,0.0993173333333317
22268,46.0,0.0993173333333317,55.0,0.09990941666666942
22269,54.0,0.09990941666666942,52.0,0.10410166666666498
22270,61.0,0.10410166666666498,68.0,0.09900999999999982
22271,47.0,0.09900999999999982,51.0,0.10185899999999748
22272,53.0,0.10185899999999748,49.0,0.10213466666666449
22273,60.0,0.10213466666666449,65.0,0.10241166666666857
22274,47.0,0.10241166666666857,49.0,0.1026903333333351
22275,53.0,0.1026903333333351,46.0,0.1029706666666641
22276,59.0,0.1029706666666641,63.0,0.10325233333333017
22277,47.0,0.10325233333333017,45.0,0.10325233333333728
22278,53.0,0.10325233333333728,40.0,0.10797399999999868
22279,58.0,0.10797399999999868,52.0,0.10200116666666048
22280,46.0,0.10200116666666048,40.0,0.10110850000000227
22281,54.0,0.10110850000000227,41.0,0.10070391666666723
22282,61.0,0.10070391666666723,61.0,0.10037166666666764
22283,46.0,0.10037166666666764,44.0,0.10063229166667043
22284,54.0,0.10063229166667043,47.0,0.10299745833333418
22285,63.0,0.10299745833333418,67.0,0.09860400000000169
22286,46.0,0.09860400000000169,48.0,0.09912166666666877
22287,54.0,0.09912166666666877,51.0,0.10410166666666498
22288,61.0,0.10410166666666498,66.0,0.09975066666666521
22289,47.0,0.09975066666666521,51.0,0.10185899999999748
22290,53.0,0.10185899999999748,49.0,0.10213466666666449
22291,60.0,0.10213466666666449,62.0,0.10241166666666857
22292,47.0,0.10241166666666857,49.0,0.1026903333333351
22293,53.0,0.1026903333333351,46.0,0.1029706666666641
22294,59.0,0.1029706666666641,55.0,0.10325233333333017
22295,47.0,0.10325233333333017,45.0,0.10325233333333728
22296,53.0,0.10325233333333728,40.0,0.10797399999999868
22297,58.0,0.10797399999999868,52.0,0.10200116666666048
22298,46.0,0.10200116666666048,40.0,0.10110850000000227
22299,54.0,0.10110850000000227,42.0,0.10070391666666723
22300,61.0,0.10070391666666723,65.0,0.10037166666666764
22301,49.0,0.10037166666666764,48.0,0.1000414166666701
22302,58.0,0.1000414166666701,50.0,0.0996452500000018
22303,66.0,0.0996452500000018,75.0,0.09860400000000169
22304,54.0,0.09860400000000169,54.0,0.09912166666666877
22305,61.0,0.09912166666666877,58.0,0.14285699999999935
22306,70.0,0.14285699999999935,69.0,0.10443866666666679
22307,53.0,0.10443866666666679,54.0,0.10302641666666545
22308,62.0,0.10302641666666545,53.0,0.10289391666666603
22309,68.0,0.10289391666666603,68.0,0.10262991666667176
22310,53.0,0.10262991666667176,55.0,0.10230166666666918
22311,62.0,0.10230166666666918,56.0,0.10197583333332716
22312,67.0,0.10197583333332716,73.0,0.10178133333333506
22313,53.0,0.10178133333333506,59.0,0.10178133333333506
22314,62.0,0.10178133333333506,58.0,0.3036226687500019
22315,67.0,0.10443866666666679,76.0,0.10178133333333506
22316,52.0,0.10178133333333506,54.0,0.10185899999999748
22317,60.0,0.10185899999999748,51.0,0.30723666666666816
22318,66.0,0.10213466666666449,70.0,0.10241166666666857
22319,51.0,0.10241166666666857,53.0,0.1026903333333351
22320,60.0,0.1026903333333351,53.0,0.3072254583333276
22321,63.0,0.1029706666666641,66.0,0.10178133333333506
22322,48.0,0.10178133333333506,47.0,0.10247345833332844
22323,54.0,0.10247345833332844,47.0,0.3062570000000022
22324,63.0,0.10362700000000302,65.0,0.10077100000000172
22325,48.0,0.10077100000000172,48.0,0.10185899999999748
22326,54.0,0.10185899999999748,47.0,0.10213466666666449
22327,61.0,0.10213466666666449,60.0,0.10241166666666857
22328,49.0,0.10241166666666857,45.0,0.1026903333333351
22329,54.0,0.1026903333333351,43.0,0.1029706666666641
22330,53.0,0.1029706666666641,55.0,0.10325233333333017
22331,41.0,0.10325233333333017,43.0,0.10325233333333728
22332,49.0,0.10325233333333728,39.0,0.10797399999999868
22333,54.0,0.10797399999999868,52.0,0.1006446666666676
22334,42.0,0.1006446666666676,40.0,0.0995469583333346
22335,49.0,0.0995469583333346,40.0,0.09870100000000548
22336,61.0,0.09870100000000548,66.0,0.09764766666666702
22337,42.0,0.09764766666666702,45.0,0.09695770833333484
22338,49.0,0.09695770833333484,45.0,0.09637362500000535
22339,54.0,0.09637362500000535,62.0,0.0961281249999999
22340,42.0,0.0961281249999999,44.0,0.09677312500000568
22341,49.0,0.09677312500000568,46.0,0.09745799999999605
22342,60.0,0.09745799999999605,71.0,0.09758599999999973
22343,42.0,0.09758599999999973,52.0,0.09680399999999878
22344,49.0,0.09680399999999878,52.0,0.09618937500000158
22345,54.0,0.09618937500000158,67.0,0.09615866666666761
22346,42.0,0.09615866666666761,49.0,0.09671149999999784
22347,49.0,0.09671149999999784,48.0,0.09720683333333824
22348,59.0,0.09720683333333824,75.0,0.09701933333333557
22349,42.0,0.09701933333333557,55.0,0.09661970833332845
22350,49.0,0.09661970833332845,52.0,0.09621991666666219
22351,54.0,0.09621991666666219,69.0,0.09622025000000178
22352,42.0,0.09622025000000178,49.0,0.09695858333333263
22353,49.0,0.09695858333333263,49.0,0.09771050000000514
22354,58.0,0.09771050000000514,76.0,0.0982508333333314
22355,42.0,0.0982508333333314,52.0,0.09761550000000341
22356,49.0,0.09761550000000341,52.0,0.09686549999999983
22357,54.0,0.09686549999999983,65.0,0.09677312500000568
22358,42.0,0.09677312500000568,49.0,0.09752099999999331
22359,49.0,0.09752099999999331,52.0,0.09828350000000086
22360,57.0,0.09828350000000086,71.0,0.09870066666666588
22361,42.0,0.09870066666666588,53.0,0.09809116666666995
22362,49.0,0.09809116666666995,52.0,0.09742649999999742
22363,54.0,0.09742649999999742,64.0,0.09799699999999234
22364,42.0,0.09799699999999234,45.0,0.09935162500000416
22365,49.0,0.09935162500000416,43.0,0.10077383333334211
22366,58.0,0.10077383333334211,63.0,0.10131200000000007
22367,42.0,0.10131200000000007,46.0,0.10131200000000007
22368,49.0,0.10131200000000007,41.0,0.10131200000000007
22369,54.0,0.10131200000000007,54.0,0.31491100000000216
22370,78.0,0.9447330000000065,102.0,0.31491099999999506
22371,46.0,0.9447329999999994,98.0,0.9447329999999994
22372,69.0,0.0,99.0,0.09698268750000001
22373,73.0,0.08512924791666668,76.0,0.08620683333333334
22374,64.0,0.08620683333333334,69.0,0.08620683333333334
22375,69.0,0.08620683333333334,93.0,0.0969826875
22376,66.0,0.08620683333333334,79.0,0.08620683333333329
22377,69.0,0.08620683333333329,73.0,0.0862068333333334
22378,64.0,0.0862068333333334,92.0,0.09698268749999994
22379,69.0,0.08620683333333334,78.0,0.08620683333333334
22380,61.0,0.08620683333333334,71.0,0.08620683333333323
22381,64.0,0.08620683333333323,84.0,0.08620683333333334
22382,57.0,0.08620683333333334,72.0,0.08620683333333334
22383,61.0,0.08620683333333334,68.0,0.08620683333333345
22384,57.0,0.08620683333333345,74.0,0.09698268749999994
22385,61.0,0.08620683333333323,64.0,0.08620683333333345
22386,52.0,0.08620683333333345,58.0,0.08620683333333323
22387,57.0,0.08620683333333323,71.0,0.09698268749999994
22388,54.0,0.08620683333333345,63.0,0.08620683333333323
22389,57.0,0.08620683333333323,57.0,0.08620683333333323
22390,52.0,0.08620683333333323,69.0,0.09698268750000016
22391,57.0,0.08620683333333345,56.0,0.08620683333333323
22392,49.0,0.08620683333333323,56.0,0.08620683333333345
22393,52.0,0.08620683333333345,67.0,0.08620683333333323
22394,45.0,0.08620683333333323,55.0,0.08620683333333345
22395,49.0,0.08620683333333345,53.0,0.08620683333333345
22396,40.0,0.08620683333333345,74.0,0.09698268749999972
22397,52.0,0.08620683333333323,69.0,0.08620683333333323
22398,47.0,0.08620683333333323,63.0,0.08620683333333323
22399,64.0,0.08620683333333368,70.0,0.0862068333333319
22400,69.0,0.0862068333333319,93.0,0.09698268750000061
22401,66.0,0.08620683333333368,72.0,0.08620683333333368
22402,69.0,0.08620683333333368,73.0,0.08620683333333368
22403,64.0,0.08620683333333368,96.0,0.09698268749999883
22404,69.0,0.08620683333333368,75.0,0.08620683333333368
22405,61.0,0.08620683333333368,68.0,0.0862068333333319
22406,64.0,0.0862068333333319,84.0,0.08620683333333368
22407,57.0,0.08620683333333368,69.0,0.08620683333333368
22408,61.0,0.08620683333333368,64.0,0.08620683333333368
22409,57.0,0.08620683333333368,74.0,0.09698268749999883
22410,61.0,0.08620683333333368,68.0,0.0862068333333319
22411,52.0,0.0862068333333319,62.0,0.08620683333333368
22412,57.0,0.08620683333333368,71.0,0.09698268750000061
22413,54.0,0.08620683333333368,65.0,0.08620683333333368
22414,57.0,0.08620683333333368,67.0,0.08620683333333368
22415,52.0,0.08620683333333368,74.0,0.09698268749999883
22416,57.0,0.0862068333333319,65.0,0.08620683333333368
22417,49.0,0.08620683333333368,59.0,0.08620683333333368
22418,52.0,0.08620683333333368,74.0,0.08620683333333368
22419,45.0,0.08620683333333368,65.0,0.08620683333333368
22420,49.0,0.08620683333333368,59.0,0.0862068333333319
22421,42.0,0.0862068333333319,77.0,0.12931024999999963
22422,54.0,0.08620683333333368,74.0,0.08620683333333368
22423,47.0,0.08620683333333368,67.0,0.08620683333333368
22424,54.0,0.08620683333333368,77.0,0.5172410000000003
22425,47.0,0.08620683333333368,67.0,0.0862068333333319
22426,59.0,0.0862068333333319,70.0,0.08620683333333368
22427,54.0,0.08620683333333368,75.0,0.08620683333333368
22428,59.0,0.08620683333333368,71.0,0.08620683333333368
22429,54.0,0.08620683333333368,67.0,0.08620683333333368
22430,66.0,0.08620683333333368,82.0,0.13333324999999974
22431,59.0,0.08888883333333375,79.0,0.08888883333333375
22432,71.0,0.08888883333333375,74.0,0.08888883333333197
22433,54.0,0.08888883333333197,85.0,0.13333324999999974
22434,66.0,0.08888883333333375,74.0,0.08888883333333375
22435,59.0,0.08888883333333375,71.0,0.08888883333333375
22436,66.0,0.08888883333333375,88.0,0.13333324999999796
22437,52.0,0.08888883333333197,76.0,0.08888883333333375
22438,64.0,0.08888883333333375,72.0,0.08888883333333197
22439,59.0,0.08888883333333197,81.0,0.09259266666666832
22440,64.0,0.09259266666666832,73.0,0.09259266666666477
22441,59.0,0.09259266666666477,67.0,0.09259266666666832
22442,71.0,0.09259266666666832,70.0,0.09259266666666477
22443,64.0,0.09259266666666477,66.0,0.09259266666666832
22444,76.0,0.09259266666666832,64.0,0.09259266666666477
22445,71.0,0.09259266666666477,72.0,0.26431699999999836
22446,73.0,0.0881056666666673,67.0,0.0881056666666673
22447,71.0,0.0881056666666673,61.0,0.08810566666666375
22448,66.0,0.08810566666666375,72.0,0.2620085000000003
22449,78.0,0.08733616666666677,67.0,0.08733616666666677
22450,66.0,0.08733616666666677,58.0,0.08733616666666677
22451,64.0,0.08733616666666677,78.0,0.2564105000000012
22452,66.0,0.08547016666666707,74.0,0.08547016666666707
22453,64.0,0.08547016666666707,68.0,0.08547016666666707
22454,59.0,0.08547016666666707,75.0,0.25862049999999925
22455,71.0,0.0862068333333319,71.0,0.08620683333333545
22456,59.0,0.08620683333333545,66.0,0.0862068333333319
22457,59.0,0.0862068333333319,72.0,0.26431699999999836
22458,61.0,0.0881056666666673,67.0,0.0881056666666673
22459,59.0,0.0881056666666673,65.0,0.08810566666666375
22460,54.0,0.08810566666666375,72.0,0.2553190000000001
22461,66.0,0.08510633333333217,67.0,0.08510633333333573
22462,54.0,0.08510633333333573,67.0,0.08510633333333217
22463,52.0,0.08510633333333217,75.0,0.25862049999999925
22464,54.0,0.0862068333333319,68.0,0.08620683333333545
22465,52.0,0.08620683333333545,67.0,0.0862068333333319
22466,47.0,0.0862068333333319,72.0,0.3448273333333347
22467,27.0,0.25862049999999925,62.0,0.12931025000000318
22468,54.0,0.08620683333333545,70.0,0.0862068333333319
22469,59.0,0.0862068333333319,67.0,0.08620683333333545
22470,61.0,0.08620683333333545,74.0,0.13215849999999918
22471,59.0,0.0881056666666673,70.0,0.0881056666666673
22472,54.0,0.0881056666666673,67.0,0.08810566666666375
22473,52.0,0.08810566666666375,71.0,0.1282052500000006
22474,59.0,0.08547016666666707,73.0,0.08547016666666707
22475,64.0,0.08547016666666707,72.0,0.08547016666666707
22476,66.0,0.08547016666666707,74.0,0.1282052500000006
22477,64.0,0.08547016666666707,69.0,0.08547016666666352
22478,61.0,0.08547016666666352,67.0,0.08547016666666707
22479,59.0,0.08547016666666707,72.0,0.1282052500000006
22480,66.0,0.08547016666666707,69.0,0.08547016666666707
22481,71.0,0.08547016666666707,67.0,0.08547016666666707
22482,73.0,0.08547016666666707,72.0,0.1282052500000006
22483,71.0,0.08547016666666707,64.0,0.08547016666666707
22484,66.0,0.08547016666666707,59.0,0.08547016666666707
22485,64.0,0.08547016666666707,77.0,0.12820524999999705
22486,71.0,0.08547016666666707,73.0,0.08547016666666352
22487,76.0,0.08547016666666352,68.0,0.08547016666666707
22488,78.0,0.08547016666666707,72.0,0.1282052500000006
22489,76.0,0.08547016666666707,68.0,0.08547016666666707
22490,73.0,0.08547016666666707,68.0,0.08547016666666707
22491,71.0,0.08547016666666707,72.0,0.26315800000000067
22492,73.0,0.08771933333333237,69.0,0.08771933333333592
22493,71.0,0.08771933333333592,63.0,0.08771933333333237
22494,66.0,0.08771933333333237,72.0,0.26315800000000067
22495,78.0,0.08771933333333237,67.0,0.08771933333333237
22496,66.0,0.08771933333333237,72.0,0.08771933333333592
22497,64.0,0.08771933333333592,81.0,0.25862049999999925
22498,66.0,0.0862068333333319,73.0,0.08620683333333545
22499,64.0,0.08620683333333545,67.0,0.0862068333333319
22500,59.0,0.0862068333333319,77.0,0.25862049999999925
22501,71.0,0.08620683333333545,75.0,0.0862068333333319
22502,59.0,0.0862068333333319,67.0,0.0862068333333319
22503,59.0,0.0862068333333319,79.0,0.2586205000000028
22504,61.0,0.08620683333333545,70.0,0.0862068333333319
22505,59.0,0.0862068333333319,65.0,0.08620683333333545
22506,54.0,0.08620683333333545,73.0,0.25862049999999925
22507,66.0,0.0862068333333319,68.0,0.0862068333333319
22508,54.0,0.0862068333333319,65.0,0.08620683333333545
22509,52.0,0.08620683333333545,75.0,0.25862049999999925
22510,54.0,0.0862068333333319,69.0,0.08620683333333545
22511,52.0,0.08620683333333545,63.0,0.0862068333333319
22512,47.0,0.0862068333333319,75.0,0.3551931666666661
22513,27.0,0.26785699999999935,68.0,0.13100425000000016
22514,59.0,0.08733616666666677,67.0,0.08733616666666677
22515,57.0,0.08733616666666677,64.0,0.08733616666666677
22516,59.0,0.08733616666666677,75.0,0.13100425000000016
22517,35.0,0.006550212499998764,52.0,0.13100425000000016
22518,57.0,0.080785954166668,68.0,0.08733616666666677
22519,59.0,0.08733616666666677,65.0,0.08733616666666677
22520,69.0,0.08733616666666677,82.0,0.0862068333333319
22521,59.0,0.0862068333333319,71.0,0.08620683333333545
22522,57.0,0.08620683333333545,65.0,0.0862068333333319
22523,59.0,0.0862068333333319,74.0,0.25862049999999925
22524,57.0,0.08620683333333545,67.0,0.0862068333333319
22525,59.0,0.0862068333333319,64.0,0.0862068333333319
22526,27.0,0.0862068333333319,72.0,0.13215849999999918
22527,59.0,0.0881056666666673,68.0,0.0881056666666673
22528,57.0,0.0881056666666673,63.0,0.08810566666666375
22529,59.0,0.08810566666666375,71.0,0.12987024999999974
22530,57.0,0.08658016666666768,65.0,0.08658016666666413
22531,59.0,0.08658016666666413,62.0,0.08658016666666768
22532,69.0,0.08658016666666768,81.0,0.08658016666666768
22533,59.0,0.08658016666666768,67.0,0.08658016666666768
22534,57.0,0.08658016666666768,63.0,0.08658016666666413
22535,27.0,0.08658016666666413,70.0,0.2666664999999995
22536,57.0,0.08888883333333197,67.0,0.08888883333333553
22537,59.0,0.08888883333333553,64.0,0.08888883333333197
22538,28.0,0.08888883333333197,77.0,0.13333324999999974
22539,61.0,0.08888883333333553,74.0,0.08888883333333197
22540,57.0,0.08888883333333197,66.0,0.08888883333333197
22541,61.0,0.08888883333333197,74.0,0.2620085000000003
22542,57.0,0.08733616666666677,70.0,0.08733616666666677
22543,61.0,0.08733616666666677,66.0,0.08733616666666677
22544,69.0,0.08733616666666677,83.0,0.2620085000000003
22545,61.0,0.08733616666666677,71.0,0.08733616666666677
22546,57.0,0.08733616666666677,68.0,0.08733616666666677
22547,61.0,0.08733616666666677,77.0,0.2620085000000003
22548,57.0,0.08733616666666677,72.0,0.08733616666666677
22549,61.0,0.08733616666666677,67.0,0.08733616666666677
22550,29.0,0.08733616666666677,81.0,0.2620085000000003
22551,61.0,0.08733616666666677,75.0,0.08733616666666677
22552,57.0,0.08733616666666677,72.0,0.08733616666666677
22553,61.0,0.08733616666666677,78.0,0.2620085000000003
22554,57.0,0.08733616666666677,72.0,0.08733616666666677
22555,61.0,0.08733616666666677,67.0,0.08733616666666677
22556,69.0,0.08733616666666677,85.0,0.26200849999999676
22557,61.0,0.08733616666666677,74.0,0.08733616666666677
22558,57.0,0.08733616666666677,71.0,0.08733616666666322
22559,61.0,0.08733616666666322,80.0,0.2620085000000003
22560,57.0,0.08733616666666677,77.0,0.08733616666666677
22561,61.0,0.08733616666666677,74.0,0.08733616666666677
22562,30.0,0.08733616666666677,82.0,0.2654865000000015
22563,61.0,0.0884955000000005,77.0,0.0884955000000005
22564,57.0,0.0884955000000005,78.0,0.0884955000000005
22565,73.0,0.0884955000000005,87.0,0.5274949999999983
22566,61.0,0.08849549999999695,76.0,0.0884955000000005
22567,57.0,0.0884955000000005,70.0,0.0884955000000005
22568,71.0,0.0884955000000005,89.0,0.08733616666666677
22569,61.0,0.08733616666666677,70.0,0.08733616666666677
22570,57.0,0.08733616666666677,73.0,0.08733616666666677
22571,69.0,0.08733616666666677,89.0,0.2620085000000003
22572,61.0,0.08733616666666677,78.0,0.08733616666666677
22573,57.0,0.08733616666666677,73.0,0.08733616666666677
22574,31.0,0.08733616666666677,88.0,0.2620085000000003
22575,61.0,0.08733616666666677,73.0,0.08733616666666677
22576,57.0,0.08733616666666677,76.0,0.08733616666666677
22577,73.0,0.08733616666666677,90.0,0.5240170000000006
22578,61.0,0.08733616666666677,76.0,0.08733616666666677
22579,57.0,0.08733616666666677,79.0,0.08733616666666677
22580,71.0,0.08733616666666677,94.0,0.08733616666666677
22581,61.0,0.08733616666666677,77.0,0.08733616666666677
22582,57.0,0.08733616666666677,76.0,0.08733616666666677
22583,69.0,0.08733616666666677,95.0,0.26200849999999676
22584,61.0,0.08733616666666677,76.0,0.08733616666666677
22585,57.0,0.08733616666666677,79.0,0.08733616666666322
22586,32.0,0.08733616666666322,91.0,0.1310042500000037
22587,64.0,0.08733616666666677,78.0,0.08733616666666677
22588,61.0,0.08733616666666677,75.0,0.08733616666666677
22589,44.0,0.08733616666666677,88.0,0.2620085000000003
22590,64.0,0.08733616666666677,75.0,0.08733616666666677
22591,76.0,0.08733616666666677,80.0,0.08733616666666677
22592,73.0,0.08733616666666677,94.0,0.2620085000000003
22593,76.0,0.08733616666666677,77.0,0.08733616666666677
22594,64.0,0.08733616666666677,76.0,0.08733616666666677
22595,32.0,0.08733616666666677,90.0,0.2620085000000003
22596,61.0,0.08733616666666677,77.0,0.08733616666666677
22597,64.0,0.08733616666666677,82.0,0.08733616666666677
22598,33.0,0.08733616666666677,97.0,0.13100425000000016
22599,64.0,0.08733616666666677,85.0,0.08733616666666677
22600,61.0,0.08733616666666677,81.0,0.08733616666666677
22601,43.0,0.08733616666666677,94.0,0.13100425000000016
22602,64.0,0.08733616666666677,85.0,0.08733616666666677
22603,76.0,0.08733616666666677,85.0,0.08733616666666677
22604,73.0,0.08733616666666677,101.0,0.2620085000000003
22605,76.0,0.08733616666666677,86.0,0.08733616666666677
22606,64.0,0.08733616666666677,84.0,0.08733616666666677
22607,64.0,0.08733616666666677,93.0,0.2620085000000003
22608,61.0,0.08733616666666677,85.0,0.08733616666666677
22609,64.0,0.08733616666666677,80.0,0.08733616666666677
22610,34.0,0.08733616666666677,105.0,0.2666664999999995
22611,64.0,0.08888883333333197,85.0,0.08888883333333553
22612,61.0,0.08888883333333553,81.0,0.08888883333333197
22613,43.0,0.08888883333333197,96.0,0.2666664999999995
22614,64.0,0.08888883333333553,84.0,0.08888883333333197
22615,76.0,0.08888883333333197,80.0,0.08888883333333197
22616,35.0,0.08888883333333197,96.0,0.2666664999999995
22617,76.0,0.08888883333333553,85.0,0.08888883333333553
22618,64.0,0.08888883333333553,83.0,0.08888883333332842
22619,44.0,0.08888883333332842,96.0,0.2666664999999995
22620,59.0,0.08888883333333553,90.0,0.08888883333333553
22621,64.0,0.08888883333333553,86.0,0.08888883333332842
22622,36.0,0.08888883333332842,103.0,0.2752295000000018
22623,64.0,0.09174316666666726,90.0,0.09174316666666726
22624,57.0,0.09174316666666726,85.0,0.09174316666666726
22625,45.0,0.09174316666666726,94.0,0.2752294999999947
22626,52.0,0.09174316666666726,87.0,0.09174316666666726
22627,52.0,0.09174316666666726,84.0,0.09174316666666016
22628,45.0,0.09174316666666016,95.0,0.09174316666666726
22629,52.0,0.09174316666666726,90.0,0.09174316666666726
22630,40.0,0.09174316666666726,85.0,0.09174316666666726
22631,24.0,0.09174316666666726,106.0,0.2926829999999967
22632,33.0,0.0975609999999989,89.0,0.0975609999999989
22633,40.0,0.0975609999999989,85.0,0.0975609999999989
22634,23.0,0.0975609999999989,106.0,1.061945999999999
22635,33.0,0.0884955000000005,71.0,0.0884955000000005
22636,40.0,0.0884955000000005,72.0,0.0884955000000005
22637,42.0,0.0884955000000005,77.0,0.0884955000000005
22638,33.0,0.0884955000000005,70.0,0.0884955000000005
22639,40.0,0.0884955000000005,72.0,0.0884955000000005
22640,42.0,0.0884955000000005,81.0,0.0884955000000005
22641,45.0,0.0884955000000005,78.0,0.0884954999999934
22642,40.0,0.0884954999999934,75.0,0.0884955000000005
22643,42.0,0.0884955000000005,83.0,0.0884955000000005
22644,45.0,0.0884955000000005,77.0,0.0884955000000005
22645,52.0,0.0884955000000005,73.0,0.0884955000000005
22646,42.0,0.0884955000000005,87.0,0.0884955000000005
22647,45.0,0.0884955000000005,80.0,0.0884955000000005
22648,52.0,0.0884955000000005,77.0,0.0884955000000005
22649,54.0,0.0884955000000005,89.0,0.0884955000000005
22650,45.0,0.0884955000000005,78.0,0.0884955000000005
22651,52.0,0.0884955000000005,75.0,0.0884955000000005
22652,45.0,0.0884955000000005,100.0,0.41284424999999914
22653,57.0,0.09174316666666726,78.0,0.09174316666666726
22654,52.0,0.09174316666666726,76.0,0.09174316666666726
22655,54.0,0.09174316666666726,89.0,0.09174316666666726
22656,64.0,0.09174316666666726,78.0,0.09174316666666726
22657,45.0,0.04587158333333008,92.0,0.13761475000000445
22658,57.0,0.045871583333337185,75.0,0.09174316666666726
22659,45.0,0.09174316666666726,100.0,1.061945999999999
22660,57.0,0.0884955000000005,81.0,0.0884955000000005
22661,66.0,0.0884955000000005,86.0,0.0884955000000005
22662,64.0,0.0884955000000005,85.0,0.0884955000000005
22663,57.0,0.0884955000000005,78.0,0.0884955000000005
22664,54.0,0.0884955000000005,84.0,0.0884955000000005
22665,64.0,0.0884955000000005,81.0,0.0884954999999934
22666,57.0,0.0884954999999934,76.0,0.0884955000000005
22667,54.0,0.0884955000000005,71.0,0.0884955000000005
22668,52.0,0.0884955000000005,78.0,0.0884955000000005
22669,57.0,0.0884955000000005,71.0,0.0884955000000005
22670,54.0,0.0884955000000005,75.0,0.0884955000000005
22671,52.0,0.0884955000000005,74.0,0.0884955000000005
22672,45.0,0.0884955000000005,69.0,0.0884955000000005
22673,54.0,0.0884955000000005,72.0,0.0884955000000005
22674,52.0,0.0884955000000005,71.0,0.0884955000000005
22675,45.0,0.0884955000000005,66.0,0.0884955000000005
22676,42.0,0.0884955000000005,69.0,0.0884955000000005
22677,52.0,0.0884955000000005,67.0,0.09174316666666726
22678,45.0,0.09174316666666726,61.0,0.09174316666666726
22679,42.0,0.09174316666666726,65.0,0.09174316666666726
22680,40.0,0.09174316666666726,64.0,0.09174316666666726
22681,45.0,0.09174316666666726,59.0,0.09174316666666726
22682,42.0,0.09174316666666726,62.0,0.09174316666666016
22683,23.0,0.09174316666666016,62.0,1.061945999999999
22684,42.0,0.0884955000000005,54.0,0.0884955000000005
22685,45.0,0.0884955000000005,54.0,0.0884955000000005
22686,64.0,0.09334450000000061,66.0,0.13678649999999948
22687,66.0,0.09119100000000202,69.0,0.09119099999999492
22688,64.0,0.09119099999999492,65.0,0.09119100000000202
22689,76.0,0.09119100000000202,71.0,0.5671150000000011
22690,78.0,0.09334450000000061,68.0,0.09334450000000061
22691,76.0,0.09334450000000061,72.0,0.09334450000000061
22692,64.0,0.09334450000000061,75.0,0.2870814999999993
22693,66.0,0.09569383333333548,72.0,0.09569383333332837
22694,64.0,0.09569383333332837,68.0,0.09569383333333548
22695,76.0,0.09569383333333548,79.0,1.1726845687500003
22696,78.0,0.09606149999999758,75.0,0.09606150000000468
22697,76.0,0.09606150000000468,70.0,0.09606149999999758
22698,64.0,0.09606149999999758,74.0,0.09606149999999758
22699,66.0,0.09606149999999758,69.0,0.09606150000000468
22700,64.0,0.09606150000000468,68.0,0.09606149999999758
22701,49.0,0.09606149999999758,72.0,0.28818449999999984
22702,78.0,0.09606149999999758,67.0,0.09606150000000468
22703,76.0,0.09606150000000468,64.0,0.09606149999999758
22704,47.0,0.09606149999999758,71.0,0.30813106875000074
22705,66.0,0.10253250000000236,66.0,0.10253249999999525
22706,64.0,0.10253249999999525,65.0,0.10306606875000313
22707,69.0,0.1041871458333361,96.0,0.1008969375000035
22708,73.0,0.08856508958333364,70.0,0.08968616666666662
22709,64.0,0.08968616666666662,70.0,0.08968616666666662
22710,69.0,0.08968616666666662,92.0,0.09698268750000238
22711,66.0,0.08620683333333545,74.0,0.08620683333332835
22712,69.0,0.08620683333332835,70.0,0.08620683333333545
22713,64.0,0.08620683333333545,97.0,0.09698268750000238
22714,69.0,0.08620683333333545,74.0,0.08620683333333545
22715,61.0,0.08620683333333545,71.0,0.08620683333332835
22716,64.0,0.08620683333332835,84.0,0.08620683333333545
22717,57.0,0.08620683333333545,73.0,0.08620683333333545
22718,61.0,0.08620683333333545,70.0,0.08620683333332835
22719,57.0,0.08620683333332835,74.0,0.09698268750000238
22720,61.0,0.08620683333333545,69.0,0.08620683333333545
22721,52.0,0.08620683333333545,66.0,0.08620683333332835
22722,57.0,0.08620683333332835,69.0,0.09698268750000238
22723,54.0,0.08620683333333545,66.0,0.08620683333333545
22724,57.0,0.08620683333333545,63.0,0.08620683333333545
22725,52.0,0.08620683333333545,74.0,0.09698268749999528
22726,57.0,0.08620683333332835,68.0,0.08620683333333545
22727,49.0,0.08620683333333545,63.0,0.08620683333333545
22728,52.0,0.08620683333333545,74.0,0.08620683333332835
22729,45.0,0.08620683333332835,64.0,0.08620683333333545
22730,49.0,0.08620683333333545,61.0,0.08620683333333545
22731,40.0,0.08620683333333545,74.0,0.09698268749999528
22732,52.0,0.08620683333332835,72.0,0.08620683333333545
22733,47.0,0.08620683333333545,67.0,0.08620683333333545
22734,52.0,0.08620683333333545,75.0,0.09698268749999528
22735,47.0,0.08620683333333545,66.0,0.08620683333332835
22736,59.0,0.08620683333332835,67.0,0.08620683333333545
22737,47.0,0.08620683333333545,72.0,0.09698268750000238
22738,59.0,0.08620683333333545,73.0,0.08620683333332835
22739,54.0,0.08620683333332835,71.0,0.08620683333333545
22740,59.0,0.08620683333333545,78.0,0.09698268750000238
22741,54.0,0.08620683333333545,76.0,0.08620683333332835
22742,66.0,0.08620683333332835,72.0,0.08620683333333545
22743,54.0,0.08620683333333545,82.0,0.7827275
22744,66.0,0.08620683333333545,77.0,0.08620683333333545
22745,59.0,0.08620683333333545,72.0,0.08620683333332835
22746,66.0,0.08620683333332835,86.0,0.25862049999999925
22747,59.0,0.08620683333333545,74.0,0.08620683333333545
22748,71.0,0.08620683333333545,75.0,0.08620683333332835
22749,59.0,0.08620683333332835,88.0,0.2654865000000015
22750,71.0,0.0884955000000005,81.0,0.0884955000000005
22751,64.0,0.0884955000000005,77.0,0.0884955000000005
22752,71.0,0.0884955000000005,89.0,0.0884955000000005
22753,64.0,0.0884955000000005,85.0,0.0884955000000005
22754,76.0,0.0884955000000005,83.0,0.0884955000000005
22755,69.0,0.0884955000000005,97.0,0.09698268750000238
22756,73.0,0.08620683333333545,74.0,0.08620683333332835
22757,64.0,0.08620683333332835,71.0,0.08620683333333545
22758,69.0,0.08620683333333545,94.0,0.09698268750000238
22759,66.0,0.08620683333333545,75.0,0.08620683333333545
22760,69.0,0.08620683333333545,73.0,0.08620683333332835
22761,64.0,0.08620683333332835,95.0,0.09698268750000238
22762,69.0,0.08620683333333545,76.0,0.08620683333333545
22763,61.0,0.08620683333333545,73.0,0.08620683333332835
22764,64.0,0.08620683333332835,86.0,0.08620683333333545
22765,57.0,0.08620683333333545,77.0,0.08620683333333545
22766,61.0,0.08620683333333545,73.0,0.08620683333332835
22767,57.0,0.08620683333332835,74.0,0.09698268750000238
22768,61.0,0.08620683333333545,66.0,0.08620683333333545
22769,52.0,0.08620683333333545,64.0,0.08620683333333545
22770,57.0,0.08620683333333545,70.0,0.09698268749999528
22771,54.0,0.08620683333332835,67.0,0.08620683333333545
22772,57.0,0.08620683333333545,67.0,0.08620683333333545
22773,52.0,0.08620683333333545,74.0,0.09698268749999528
22774,57.0,0.08620683333332835,62.0,0.08620683333333545
22775,49.0,0.08620683333333545,55.0,0.08620683333333545
22776,52.0,0.08620683333333545,74.0,0.08620683333332835
22777,45.0,0.08620683333332835,64.0,0.08620683333333545
22778,49.0,0.08620683333333545,60.0,0.08620683333333545
22779,42.0,0.08620683333333545,74.0,0.12931024999999607
22780,54.0,0.08620683333333545,71.0,0.08620683333332835
22781,47.0,0.08620683333332835,67.0,0.08620683333333545
22782,54.0,0.08620683333333545,74.0,0.25862049999999925
22783,47.0,0.08620683333333545,72.0,0.08620683333332835
22784,59.0,0.08620683333332835,67.0,0.08620683333333545
22785,49.0,0.08620683333333545,74.0,0.2654865000000015
22786,61.0,0.0884955000000005,85.0,0.0884955000000005
22787,49.0,0.0884955000000005,72.0,0.0884955000000005
22788,61.0,0.0884955000000005,74.0,0.2654865000000015
22789,49.0,0.0884955000000005,70.0,0.0884955000000005
22790,61.0,0.0884955000000005,66.0,0.0884955000000005
22791,54.0,0.0884955000000005,74.0,0.13761474999999734
22792,66.0,0.09174316666666726,70.0,0.09174316666666726
22793,59.0,0.09174316666666726,70.0,0.09174316666666726
22794,66.0,0.09174316666666726,71.0,0.2752294999999947
22795,59.0,0.09174316666666726,69.0,0.09174316666666726
22796,71.0,0.09174316666666726,69.0,0.09174316666666016
22797,41.0,0.09174316666666016,73.0,0.2819740833333313
22798,73.0,0.09237925000000047,79.0,0.09389883333333415
22799,61.0,0.09389883333333415,69.0,0.09569599999999667
22800,73.0,0.09569599999999667,72.0,0.14635075000000342
22801,61.0,0.09708966666666896,72.0,0.09901233333333437
22802,73.0,0.09901233333333437,70.0,0.1010126666666693
22803,26.0,0.1010126666666693,80.0,0.1327432499999972
22804,73.0,0.0884955000000005,72.0,0.0884955000000005
22805,66.0,0.0884955000000005,72.0,0.0884955000000005
22806,73.0,0.0884955000000005,74.0,0.12931025000000318
22807,59.0,0.08620683333333545,69.0,0.08620683333332835
22808,71.0,0.08620683333332835,67.0,0.08620683333333545
22809,28.0,0.08620683333333545,82.0,0.12931025000000318
22810,71.0,0.08620683333333545,73.0,0.08620683333333545
22811,64.0,0.08620683333333545,70.0,0.08620683333332835
22812,71.0,0.08620683333332835,77.0,0.12931025000000318
22813,57.0,0.08620683333333545,69.0,0.08620683333333545
22814,69.0,0.08620683333333545,70.0,0.08620683333332835
22815,26.0,0.08620683333332835,84.0,0.12931025000000318
22816,64.0,0.08620683333333545,72.0,0.08620683333333545
22817,59.0,0.08620683333333545,69.0,0.08620683333332835
22818,64.0,0.08620683333332835,78.0,0.12931025000000318
22819,59.0,0.08620683333333545,72.0,0.08620683333333545
22820,71.0,0.08620683333333545,75.0,0.08620683333333545
22821,25.0,0.08620683333333545,86.0,0.12931024999999607
22822,69.0,0.08620683333332835,74.0,0.08620683333333545
22823,64.0,0.08620683333333545,72.0,0.08620683333333545
22824,69.0,0.08620683333333545,80.0,0.12931024999999607
22825,64.0,0.08620683333332835,74.0,0.08620683333333545
22826,76.0,0.08620683333333545,78.0,0.08620683333333545
22827,26.0,0.08620683333333545,88.0,0.1327432499999972
22828,73.0,0.0884955000000005,74.0,0.0884955000000005
22829,66.0,0.0884955000000005,71.0,0.0884955000000005
22830,73.0,0.0884955000000005,81.0,0.12931025000000318
22831,59.0,0.08620683333333545,79.0,0.08620683333332835
22832,71.0,0.08620683333332835,76.0,0.08620683333333545
22833,28.0,0.08620683333333545,89.0,0.12931025000000318
22834,71.0,0.08620683333333545,76.0,0.08620683333333545
22835,64.0,0.08620683333333545,73.0,0.08620683333332835
22836,71.0,0.08620683333332835,82.0,0.12931025000000318
22837,57.0,0.08620683333333545,74.0,0.08620683333333545
22838,69.0,0.08620683333333545,70.0,0.08620683333332835
22839,26.0,0.08620683333332835,91.0,0.12931025000000318
22840,64.0,0.08620683333333545,74.0,0.08620683333333545
22841,59.0,0.08620683333333545,71.0,0.08620683333332835
22842,64.0,0.08620683333332835,83.0,0.12931025000000318
22843,59.0,0.08620683333333545,76.0,0.08620683333333545
22844,71.0,0.08620683333333545,82.0,0.08620683333333545
22845,25.0,0.08620683333333545,94.0,0.12931024999999607
22846,69.0,0.08620683333332835,76.0,0.08620683333333545
22847,64.0,0.08620683333333545,73.0,0.08620683333333545
22848,69.0,0.08620683333333545,87.0,0.12931024999999607
22849,64.0,0.08620683333332835,79.0,0.08620683333333545
22850,76.0,0.08620683333333545,75.0,0.08620683333333545
22851,26.0,0.08620683333333545,94.0,0.27149299999999954
22852,73.0,0.09049766666666414,74.0,0.09049766666667125
22853,66.0,0.09049766666667125,75.0,0.09049766666666414
22854,73.0,0.09049766666666414,86.0,0.5263159999999942
22855,59.0,0.08771933333333237,77.0,0.08771933333333237
22856,71.0,0.08771933333333237,74.0,0.08771933333333237
22857,61.0,0.08771933333333237,87.0,0.08771933333333237
22858,73.0,0.08771933333333237,80.0,0.08771933333333948
22859,66.0,0.08771933333333948,74.0,0.08771933333332527
22860,26.0,0.08771933333332527,94.0,0.2631580000000042
22861,59.0,0.08771933333333948,78.0,0.08771933333333948
22862,71.0,0.08771933333333948,74.0,0.08771933333332527
22863,27.0,0.08771933333332527,104.0,0.2702704999999952
22864,73.0,0.0900901666666698,85.0,0.0900901666666698
22865,66.0,0.0900901666666698,81.0,0.09009016666665559
22866,73.0,0.09009016666665559,93.0,0.5263159999999942
22867,59.0,0.08771933333333948,85.0,0.08771933333332527
22868,71.0,0.08771933333332527,90.0,0.08771933333333948
22869,61.0,0.08771933333333948,94.0,0.08771933333332527
22870,73.0,0.08771933333332527,86.0,0.08771933333333948
22871,66.0,0.08771933333333948,83.0,0.08771933333332527
22872,27.0,0.08771933333332527,100.0,0.26785700000000645
22873,59.0,0.08928566666666882,80.0,0.08928566666666882
22874,71.0,0.08928566666666882,88.0,0.08928566666666882
22875,28.0,0.08928566666666882,106.0,0.26785699999999224
22876,73.0,0.0892856666666546,90.0,0.08928566666666882
22877,59.0,0.08928566666666882,87.0,0.08928566666666882
22878,71.0,0.08928566666666882,100.0,0.08928566666666882
22879,64.0,0.08928566666666882,90.0,0.08928566666666882
22880,73.0,0.08928566666666882,92.0,0.08928566666666882
22881,59.0,0.08928566666666882,103.0,0.5479449999999986
22882,71.0,0.09132416666666643,93.0,0.09132416666666643
22883,64.0,0.09132416666666643,86.0,0.09132416666666643
22884,73.0,0.09132416666666643,94.0,0.09132416666666643
22885,59.0,0.09132416666666643,90.0,0.09132416666666643
22886,71.0,0.09132416666666643,86.0,0.09132416666666643
22887,64.0,0.09132416666666643,96.0,0.5479449999999986
22888,73.0,0.09132416666666643,91.0,0.09132416666666643
22889,59.0,0.09132416666666643,85.0,0.09132416666666643
22890,71.0,0.09132416666666643,89.0,0.09132416666666643
22891,64.0,0.09132416666666643,82.0,0.09132416666666643
22892,73.0,0.09132416666666643,75.0,0.09132416666666643
22893,59.0,0.09132416666666643,85.0,0.08914033333334714
22894,71.0,0.08914033333334714,77.0,0.09259458333332304
22895,64.0,0.09259458333332304,71.0,0.09456741666666346
22896,73.0,0.09456741666666346,75.0,0.09662058333333334
22897,59.0,0.09662058333333334,68.0,0.09901233333333437
22898,71.0,0.09901233333333437,64.0,0.17370800000000486
22899,16.0,0.0502512500000023,47.0,0.03086418750000064
22900,28.0,0.03086418750000064,47.0,1.3776570791666671
22901,35.0,0.03086418750000064,47.0,1.3467928916666665
22902,40.0,0.03086418750000064,47.0,1.3159287041666659
22903,78.0,0.03086418750000064,57.0,1.2850645166666652
22904,76.0,0.23706895833332453,57.0,0.052493791666663014
22905,73.0,0.052493791666663014,52.0,0.10296612499999469
22906,71.0,0.10296612499999469,57.0,0.10013062500000558
22907,69.0,0.10013062500000558,57.0,0.09756674999999859
22908,66.0,0.09756674999999859,54.0,0.09512958333333188
22909,64.0,0.09512958333333188,57.0,0.09291666666666742
22910,61.0,0.09291666666666742,57.0,0.09378808333333666
22911,59.0,0.09378808333333666,53.0,0.09512633333332587
22912,57.0,0.09512633333332587,57.0,0.09650333333333094
22913,54.0,0.09650333333333094,57.0,0.09792083333334745
22914,52.0,0.09792083333334745,54.0,0.12345343333333858
22915,47.0,0.12345343333333858,65.0,1.142858000000004
22916,49.0,0.5714289999999949,69.0,0.5714290000000091
22917,47.0,0.42857175000000325,64.0,0.14285725000000582
22918,45.0,0.14285725000000582,71.0,1.034481999999997
22919,40.0,0.25862050000000636,44.0,0.25862049999999215
22920,71.0,0.25862049999999215,63.0,0.25862050000000636
22921,73.0,0.08620683333333545,53.0,0.08620683333333545
22922,71.0,0.08620683333333545,57.0,0.08620683333333545
22923,64.0,0.08620683333333545,59.0,0.25862049999999215
22924,76.0,0.08620683333333545,59.0,0.08620683333332124
22925,64.0,0.08620683333332124,54.0,0.08620683333333545
22926,64.0,0.08620683333333545,63.0,1.034481999999997
22927,66.0,0.08620683333333545,63.0,0.08620683333333545
22928,64.0,0.08620683333333545,63.0,0.08620683333333545
22929,57.0,0.08620683333333545,58.0,0.25862049999999215
22930,69.0,0.08620683333333545,55.0,0.08620683333332124
22931,57.0,0.08620683333332124,58.0,0.08620683333333545
22932,59.0,0.08620683333333545,63.0,0.25862050000000636
22933,61.0,0.08620683333333545,54.0,0.08620683333333545
22934,59.0,0.08620683333333545,56.0,0.08620683333333545
22935,52.0,0.08620683333333545,78.0,0.3467261666666559
22936,45.0,0.25862049999999215,63.0,0.26431700000000546
22937,57.0,0.08810566666666375,62.0,0.08810566666666375
22938,59.0,0.08810566666666375,57.0,0.08810566666667796
22939,61.0,0.08810566666667796,66.0,0.08810566666666375
22940,59.0,0.08810566666666375,64.0,0.08810566666666375
22941,57.0,0.08810566666666375,57.0,0.08810566666666375
22942,42.0,0.08810566666666375,63.0,0.25862050000000636
22943,59.0,0.08620683333333545,64.0,0.08620683333333545
22944,64.0,0.08620683333333545,61.0,0.08620683333333545
22945,66.0,0.08620683333333545,67.0,0.2631580000000042
22946,64.0,0.08771933333333948,65.0,0.08771933333332527
22947,59.0,0.08771933333332527,59.0,0.08771933333333948
22948,57.0,0.08771933333333948,66.0,0.2564105000000012
22949,64.0,0.08547016666666707,63.0,0.08547016666666707
22950,69.0,0.08547016666666707,59.0,0.08547016666666707
22951,71.0,0.08547016666666707,64.0,0.2631580000000042
22952,69.0,0.08771933333333948,64.0,0.08771933333332527
22953,66.0,0.08771933333332527,57.0,0.08771933333333948
22954,64.0,0.08771933333333948,70.0,0.2564105000000012
22955,71.0,0.08547016666666707,67.0,0.08547016666666707
22956,76.0,0.08547016666666707,65.0,0.08547016666666707
22957,78.0,0.08547016666666707,74.0,0.2631580000000042
22958,76.0,0.08771933333333948,67.0,0.08771933333332527
22959,71.0,0.08771933333332527,62.0,0.08771933333333948
22960,69.0,0.08771933333333948,62.0,1.034481999999997
22961,71.0,0.08620683333333545,57.0,0.08620683333333545
22962,69.0,0.08620683333333545,56.0,0.08620683333333545
22963,64.0,0.08620683333333545,63.0,0.25862049999999215
22964,76.0,0.08620683333332124,59.0,0.08620683333333545
22965,64.0,0.08620683333333545,59.0,0.08620683333333545
22966,64.0,0.08620683333333545,63.0,0.25862050000000636
22967,66.0,0.08620683333333545,60.0,0.08620683333333545
22968,64.0,0.08620683333333545,57.0,0.08620683333333545
22969,59.0,0.08620683333333545,59.0,0.25862049999999215
22970,71.0,0.08620683333333545,59.0,0.08620683333332124
22971,59.0,0.08620683333332124,59.0,0.08620683333333545
22972,59.0,0.08620683333333545,63.0,1.0401785000000103
22973,61.0,0.08810566666666375,75.0,0.0884954999999934
22974,73.0,0.0884954999999934,85.0,0.08849550000000761
22975,66.0,0.08849550000000761,77.0,0.0884954999999934
22976,64.0,0.0884954999999934,75.0,0.08849550000000761
22977,69.0,0.08849550000000761,89.0,0.12987016666666307
22978,57.0,0.23733770833334233,94.0,0.10062941666666347
22979,54.0,0.10062941666666347,94.0,0.10126649999999415
22980,52.0,0.10126649999999415,95.0,0.10204216666666355
22981,61.0,0.10204216666666355,96.0,0.1028285000000011
22982,47.0,0.1028285000000011,97.0,0.10349345833333246
22983,45.0,0.10349345833333246,98.0,0.10430300000000159
22984,42.0,0.10430300000000159,98.0,0.10512537500000008
22985,40.0,0.10512537500000008,100.0,0.10596087499999385
22986,37.0,0.10596087499999385,101.0,0.10666741666666724
22987,35.0,0.10666741666666724,103.0,0.10752841666666768
22988,45.0,0.10752841666666768,111.0,0.1754384999999985
22989,33.0,0.6610679624999989,93.0,0.8809374374999948
22990,40.0,0.045731718749991046,98.0,0.8352057187500037
22991,73.0,0.04573171875000526,118.0,0.7894739999999985
22992,33.0,0.7894739999999985,112.0,1.578947999999997
22993,42.0,0.0,56.0,0.17272642291666665
22994,43.0,0.11482929791666666,42.0,0.057897124999999994
22995,43.0,0.11579424999999999,51.0,0.16952999999999996
22996,44.0,0.11302000000000001,43.0,0.05650999999999995
22997,44.0,0.11302000000000001,52.0,0.16998924999999987
22998,45.0,0.1130199999999999,44.0,0.05696924999999997
22999,45.0,0.11393849999999994,53.0,0.16888087499999993
23000,46.0,0.11258725000000003,46.0,0.0562936249999999
23001,46.0,0.11258725000000003,56.0,0.16888087499999993
23002,47.0,0.11258725000000003,47.0,0.0562936249999999
23003,47.0,0.1125872499999998,57.0,0.1715985
23004,48.0,0.11439899999999992,48.0,0.05719950000000007
23005,48.0,0.11439900000000014,59.0,0.16888087499999993
23006,49.0,0.11258725000000003,52.0,0.0562936249999999
23007,49.0,0.11258725000000003,61.0,0.16888087499999993
23008,50.0,0.11258725000000003,54.0,0.0562936249999999
23009,50.0,0.1125872499999998,66.0,0.16888087500000015
23010,51.0,0.11258725000000025,56.0,0.0562936249999999
23011,51.0,0.1125872499999998,69.0,0.1682118749999999
23012,52.0,0.11214125000000008,59.0,0.05607062499999982
23013,52.0,0.11156075000000021,71.0,0.16646291666666624
23014,53.0,0.1108331666666662,62.0,0.05562975000000003
23015,53.0,0.11125950000000007,75.0,0.17434824999999998
23016,54.0,0.11348149999999979,66.0,0.06086675000000019
23017,54.0,0.12173349999999994,81.0,0.16843925000000004
23018,55.0,0.11169850000000014,77.0,0.056740749999999895
23019,55.0,0.11348149999999979,82.0,0.1649561249999998
23020,54.0,0.10997075,78.0,0.05498537499999978
23021,54.0,0.10997075,84.0,0.16952999999999996
23022,52.0,0.11302000000000012,84.0,0.05650999999999984
23023,52.0,0.11301999999999968,82.0,0.17090775000000002
23024,50.0,0.11393850000000016,79.0,0.05696924999999986
23025,50.0,0.11393849999999972,83.0,0.1682118749999999
23026,52.0,0.11214125000000008,79.0,0.05607062499999982
23027,52.0,0.11214125000000008,85.0,0.1682118749999999
23028,54.0,0.11214124999999964,86.0,0.05607062500000026
23029,54.0,0.11214125000000053,87.0,0.16952999999999996
23030,52.0,0.11301999999999968,86.0,0.05651000000000028
23031,52.0,0.11302000000000056,84.0,0.16952999999999996
23032,50.0,0.11301999999999968,83.0,0.05651000000000028
23033,50.0,0.11301999999999968,81.0,0.17369137499999976
23034,49.0,0.11579424999999954,80.0,0.057897125000000216
23035,40.0,0.11579425000000043,79.0,0.2286444999999997
23036,50.0,0.1143989999999997,69.0,0.1142455
23037,50.0,0.1142455,66.0,0.22940616666666713
23038,49.0,0.11424550000000089,62.0,0.11516066666666624
23039,49.0,0.11516066666666624,57.0,0.24289637499999994
23040,42.0,0.11895912499999994,54.0,0.12393725
23041,42.0,0.12393725,53.0,0.17369137499999976
23042,43.0,0.11579424999999954,45.0,0.057897125000000216
23043,43.0,0.11579425000000043,54.0,0.17090774999999958
23044,44.0,0.11393849999999972,45.0,0.05696924999999986
23045,44.0,0.11393850000000061,55.0,0.17370075000000007
23046,45.0,0.11673150000000021,47.0,0.05696924999999986
23047,45.0,0.11393849999999972,57.0,0.16888087500000015
23048,46.0,0.1125872499999998,48.0,0.05629362500000035
23049,46.0,0.1125872499999998,58.0,0.16888087500000015
23050,47.0,0.1125872500000007,50.0,0.05629362499999946
23051,47.0,0.1125872499999998,60.0,0.1715985
23052,48.0,0.1143989999999997,50.0,0.05719950000000029
23053,48.0,0.11439900000000058,62.0,0.16888087500000015
23054,49.0,0.1125872499999998,54.0,0.05629362500000035
23055,49.0,0.1125872499999998,64.0,0.16888087500000015
23056,50.0,0.1125872500000007,56.0,0.05629362499999946
23057,50.0,0.1125872499999998,68.0,0.16888087500000015
23058,51.0,0.1125872499999998,59.0,0.05629362500000035
23059,51.0,0.1125872499999998,73.0,0.1682118749999999
23060,52.0,0.11214124999999964,69.0,0.05607062500000026
23061,52.0,0.11156074999999976,76.0,0.16646291666666713
23062,53.0,0.11083316666666754,71.0,0.05562974999999959
23063,50.0,0.11125950000000007,80.0,0.1726235833333325
23064,53.0,0.11348149999999979,75.0,0.05914208333333271
23065,54.0,0.11948483333333293,90.0,0.17003837500000074
23066,55.0,0.11214125000000053,85.0,0.057897125000000216
23067,55.0,0.11579425000000043,89.0,0.16952999999999996
23068,54.0,0.11302000000000056,87.0,0.056509999999999394
23069,54.0,0.11301999999999879,90.0,0.16952999999999996
23070,57.0,0.11302000000000056,88.0,0.056509999999999394
23071,57.0,0.11302000000000056,90.0,0.16688925000000054
23072,52.0,0.11125949999999918,85.0,0.055629750000001366
23073,52.0,0.11125950000000095,89.0,0.1649561249999998
23074,54.0,0.10997075000000045,87.0,0.05498537499999934
23075,54.0,0.10997075000000045,90.0,0.16952999999999996
23076,55.0,0.11302000000000056,88.0,0.056509999999999394
23077,55.0,0.11301999999999879,81.0,0.16688925000000054
23078,54.0,0.11125949999999918,75.0,0.055629750000001366
23079,54.0,0.11125950000000095,78.0,0.16688925000000054
23080,59.0,0.11125949999999918,75.0,0.055629750000001366
23081,59.0,0.11125950000000095,76.0,0.16952999999999996
23082,57.0,0.11302000000000056,73.0,0.056509999999999394
23083,57.0,0.11301999999999879,74.0,0.16626037500000024
23084,52.0,0.11084025000000075,69.0,0.05542012499999949
23085,52.0,0.11084024999999897,71.0,0.16626037500000024
23086,54.0,0.11084025000000075,68.0,0.05542012499999949
23087,54.0,0.11084024999999897,70.0,0.16952999999999996
23088,55.0,0.11302000000000056,67.0,0.056509999999999394
23089,55.0,0.11301999999999879,72.0,0.16648074999999984
23090,54.0,0.10997075000000045,68.0,0.056509999999999394
23091,54.0,0.11302000000000056,72.0,0.16432949999999913
23092,50.0,0.10955300000000001,72.0,0.05477649999999912
23093,50.0,0.10955300000000001,76.0,0.1682118750000008
23094,46.0,0.11214125000000053,75.0,0.05607062500000026
23095,46.0,0.11214124999999875,78.0,0.1722817499999998
23096,45.0,0.11485449999999986,74.0,0.05742724999999993
23097,45.0,0.11485449999999986,80.0,0.16688925000000054
23098,50.0,0.11125949999999918,75.0,0.055629750000001366
23099,50.0,0.11125950000000095,82.0,0.17509725000000032
23100,46.0,0.11673150000000021,78.0,0.058365750000000105
23101,45.0,0.11673150000000021,85.0,0.17022225000000013
23102,50.0,0.11348150000000068,81.0,0.05674074999999945
23103,50.0,0.1134814999999989,86.0,0.1796407500000008
23104,46.0,0.11976049999999994,85.0,0.059880250000000856
23105,45.0,0.11976049999999994,90.0,0.1740813750000001
23106,50.0,0.11605424999999947,88.0,0.05802712500000062
23107,50.0,0.11605425000000125,91.0,0.18314999999999948
23108,46.0,0.12209999999999965,87.0,0.06104999999999983
23109,45.0,0.12209999999999965,93.0,0.1751655000000003
23110,50.0,0.1167770000000008,92.0,0.05838849999999951
23111,50.0,0.11677699999999902,96.0,0.19555762500000107
23112,46.0,0.12536575000000028,95.0,0.07019187500000079
23113,46.0,0.1403837499999998,92.0,1.4082352499999988
23114,45.0,0.11744449999999951,87.0,0.11744450000000128
23115,46.0,0.08808337500000007,72.0,0.02936112500000121
23116,45.0,0.02936112500000121,92.0,0.11473149999999954
23117,43.0,0.11473149999999954,85.0,0.11473149999999954
23118,45.0,0.11473149999999954,92.0,0.4713149999999988
23119,46.0,0.23736049999999942,87.0,0.2339544999999994
23120,45.0,0.1169772499999997,82.0,0.1169772499999997
23121,46.0,0.08773293750000022,71.0,0.02924431249999948
23122,45.0,0.02924431249999948,87.0,0.11385199999999962
23123,43.0,0.11385199999999962,80.0,0.11385199999999962
23124,45.0,0.11385199999999962,87.0,0.2448642500000009
23125,50.0,0.2448642500000009,72.0,0.17369137500000065
23126,51.0,0.11579425000000043,72.0,0.057897125000000216
23127,51.0,0.11579425000000043,72.0,0.1715985
23128,50.0,0.11439900000000058,72.0,0.057199499999999404
23129,50.0,0.11439899999999881,72.0,0.1824905000000001
23130,51.0,0.11579425000000043,72.0,0.06669624999999968
23131,44.0,0.13339249999999936,87.0,0.7007780000000015
23132,43.0,0.1169772499999997,82.0,0.11697725000000148
23133,44.0,0.08773293750000022,63.0,0.029244312500001257
23134,43.0,0.029244312500001257,87.0,0.11473150000000132
23135,41.0,0.11473150000000132,80.0,0.11473149999999777
23136,43.0,0.11473149999999777,87.0,0.46894900000000206
23137,48.0,0.2373605000000012,84.0,1.3967892500000048
23138,43.0,0.11579425000000043,77.0,0.11579425000000043
23139,44.0,0.08684568749999855,59.0,0.028948562500001884
23140,43.0,0.028948562500001884,82.0,0.11301999999999879
23141,41.0,0.11301999999999879,76.0,0.11302000000000234
23142,43.0,0.11302000000000234,82.0,0.46894900000000206
23143,44.0,0.2373605000000012,82.0,0.23158850000000086
23144,43.0,0.11579425000000043,77.0,0.11579425000000043
23145,44.0,0.08684568749999855,59.0,0.028948562500001884
23146,43.0,0.028948562500001884,82.0,0.11301999999999879
23147,41.0,0.11301999999999879,76.0,0.11302000000000234
23148,43.0,0.11302000000000234,82.0,0.24417174999999958
23149,48.0,0.24417174999999958,72.0,0.17369137500000065
23150,50.0,0.11579425000000043,72.0,0.057897125000000216
23151,50.0,0.11579425000000043,72.0,0.17159850000000176
23152,48.0,0.11439899999999881,72.0,0.057199500000002956
23153,48.0,0.11439900000000236,72.0,0.17369137500000065
23154,50.0,0.11579425000000043,72.0,0.057897125000000216
23155,43.0,0.11579425000000043,78.0,0.7210265000000007
23156,41.0,0.11579425000000043,73.0,0.11579424999999688
23157,43.0,0.08684568749999855,56.0,0.02894856249999833
23158,41.0,0.02894856249999833,78.0,0.11301999999999879
23159,39.0,0.11301999999999879,72.0,0.11302000000000234
23160,41.0,0.11302000000000234,78.0,0.26339800000000224
23161,46.0,0.26339800000000224,44.0,0.17369137500000065
23162,48.0,0.11579425000000043,45.0,0.057897125000000216
23163,48.0,0.11579425000000043,49.0,0.1722817499999998
23164,50.0,0.11485449999999986,51.0,0.05742724999999993
23165,50.0,0.11485449999999986,54.0,0.1718237500000015
23166,51.0,0.11485449999999986,57.0,0.05696925000000164
23167,51.0,0.11393849999999972,61.0,0.16888087499999926
23168,53.0,0.1125872500000007,63.0,0.05629362499999857
23169,53.0,0.1125872500000007,66.0,0.16888087499999926
23170,55.0,0.11258724999999714,69.0,0.05629362500000212
23171,55.0,0.1125872500000007,72.0,0.18947225000000145
23172,53.0,0.12341625000000178,68.0,0.06605599999999967
23173,46.0,0.13211199999999934,47.0,0.17369137500000065
23174,48.0,0.11579425000000043,48.0,0.057897125000000216
23175,48.0,0.11579425000000043,50.0,0.17159850000000176
23176,50.0,0.11439899999999881,51.0,0.057199500000002956
23177,50.0,0.11439900000000236,54.0,0.17136825000000044
23178,51.0,0.11439899999999881,55.0,0.05696925000000164
23179,51.0,0.11393849999999972,57.0,0.16888087499999926
23180,53.0,0.1125872500000007,58.0,0.05629362499999857
23181,53.0,0.1125872500000007,61.0,0.49320724999999754
23182,55.0,0.11258724999999714,63.0,0.05629362500000212
23183,55.0,0.1125872500000007,64.0,0.19238212500000174
23184,54.0,0.11673150000000021,66.0,0.07565062500000153
23185,58.0,0.1513012499999995,67.0,0.11439899999999881
23186,58.0,0.22879800000000117,67.0,0.1715984999999982
23187,57.0,0.11439899999999881,64.0,0.057199499999999404
23188,57.0,0.11439899999999881,67.0,0.17159850000000176
23189,58.0,0.11439900000000236,65.0,0.057199499999999404
23190,58.0,0.11424608333333097,70.0,0.1743780000000008
23191,57.0,0.11625199999999936,69.0,0.058126000000001454
23192,57.0,0.11625199999999936,74.0,0.17534437500000166
23193,58.0,0.11625200000000291,72.0,0.059092374999998754
23194,58.0,0.11818475000000106,77.0,0.17369137500000065
23195,59.0,0.11579425000000043,73.0,0.057897125000000216
23196,59.0,0.11579425000000043,77.0,0.17069425000000038
23197,60.0,0.11387733333333472,73.0,0.05681691666666566
23198,60.0,0.1137861666666673,78.0,0.17220708333333334
23199,59.0,0.11462674999999933,75.0,0.05758033333333401
23200,59.0,0.11539737500000058,80.0,0.17454508333333507
23201,60.0,0.11617933333333497,77.0,0.058365750000000105
23202,60.0,0.11665224999999779,82.0,0.1759062083333376
23203,59.0,0.11697458333333799,78.0,0.0589316249999996
23204,59.0,0.11818916666666723,84.0,0.17985808333333608
23205,60.0,0.11959912500000058,81.0,0.0602589583333355
23206,60.0,0.12095187499999938,86.0,0.20362329166666626
23207,61.0,0.12735729166666587,82.0,0.07626600000000039
23208,61.0,0.15253200000000078,88.0,0.24447899999999834
23209,61.0,0.24447899999999834,83.0,0.1795259999999992
23210,59.0,0.11968399999999946,77.0,0.05984199999999973
23211,59.0,0.11968399999999946,75.0,0.1802296250000026
23212,57.0,0.11721500000000162,69.0,0.06301462500000099
23213,61.0,0.12602924999999843,88.0,0.24242399999999975
23214,61.0,0.24242399999999975,83.0,0.18365366666666816
23215,57.0,0.12226379166666845,77.0,0.061389874999999705
23216,57.0,0.12277974999999941,75.0,0.18416962499999912
23217,56.0,0.12277974999999941,69.0,0.061389874999999705
23218,61.0,0.12277974999999941,79.0,0.12413650000000231
23219,57.0,0.26308975000000245,63.0,0.639739500000001
23220,56.0,0.1243780000000001,68.0,0.06218900000000005
23221,56.0,0.1243780000000001,64.0,0.2603214999999999
23222,54.0,0.1243780000000001,59.0,0.06797175000000166
23223,54.0,0.13594349999999977,74.0,0.13066200000000094
23224,46.0,0.25983591666666683,52.0,0.1777874166666713
23225,43.0,0.11794629166666937,45.0,0.05984112500000194
23226,46.0,0.12018783333333616,48.0,0.243466999999999
23227,42.0,0.12173350000000127,35.0,0.06086674999999886
23228,42.0,0.12173349999999772,54.0,0.1743780000000008
23229,43.0,0.11625199999999936,42.0,0.058126000000001454
23230,43.0,0.11625199999999936,51.0,0.17090775000000136
23231,44.0,0.11393849999999972,43.0,0.05696925000000164
23232,44.0,0.11393849999999972,52.0,0.17090775000000136
23233,45.0,0.11393849999999972,44.0,0.05696925000000164
23234,45.0,0.11393849999999972,53.0,0.16888087499999926
23235,46.0,0.1125872500000007,46.0,0.05629362499999857
23236,46.0,0.1125872500000007,56.0,0.16888087499999926
23237,47.0,0.11258724999999714,47.0,0.05629362500000212
23238,47.0,0.1125872500000007,57.0,0.17159850000000176
23239,48.0,0.11439899999999881,49.0,0.057199500000002956
23240,48.0,0.11439900000000236,59.0,0.16888087499999926
23241,49.0,0.1125872500000007,52.0,0.05629362499999857
23242,49.0,0.1125872500000007,61.0,0.16888087499999926
23243,50.0,0.11258724999999714,54.0,0.05629362500000212
23244,50.0,0.1125872500000007,66.0,0.16888087499999926
23245,51.0,0.1125872500000007,56.0,0.05629362499999857
23246,51.0,0.1125872500000007,69.0,0.1682118750000008
23247,52.0,0.11214125000000053,60.0,0.05607062500000026
23248,52.0,0.11156074999999888,71.0,0.16646291666666357
23249,53.0,0.11083316666666576,62.0,0.05562974999999781
23250,53.0,0.11125949999999918,76.0,0.17022224999999835
23251,54.0,0.1134814999999989,66.0,0.05674074999999945
23252,54.0,0.11348150000000246,81.0,0.16671149999999813
23253,55.0,0.10997074999999867,77.0,0.05674074999999945
23254,55.0,0.1134814999999989,82.0,0.1649561249999998
23255,54.0,0.10997074999999867,78.0,0.05498537500000111
23256,54.0,0.10997075000000223,84.0,0.17555124999999805
23257,52.0,0.11301999999999879,84.0,0.06253124999999926
23258,52.0,0.12506249999999852,82.0,0.17090775000000136
23259,50.0,0.11393849999999972,79.0,0.05696925000000164
23260,54.0,0.11686800000000375,53.0,0.17249325000000226
23261,52.0,0.11499549999999914,45.0,0.05749775000000312
23262,52.0,0.11499549999999914,53.0,0.1846855000000005
23263,50.0,0.11782275000000197,45.0,0.06686274999999853
23264,42.0,0.13372549999999706,53.0,0.17530200000000207
23265,50.0,0.11686799999999664,45.0,0.058434000000005426
23266,50.0,0.11686800000000375,53.0,0.178189500000002
23267,49.0,0.1187929999999966,45.0,0.0593965000000054
23268,47.0,0.1187930000000037,53.0,0.1340002499999997
23269,47.0,0.2680004999999994,53.0,0.17896912500000184
23270,50.0,0.11931274999999886,45.0,0.05965637500000298
23271,50.0,0.11931274999999886,53.0,0.17616675000000015
23272,49.0,0.11744449999999773,45.0,0.05872225000000242
23273,49.0,0.11744450000000484,53.0,0.17945579166666903
23274,47.0,0.11906441666666723,45.0,0.0603913750000018
23275,47.0,0.1207827499999965,53.0,0.17745862499999987
23276,50.0,0.11830574999999754,45.0,0.059152875000002325
23277,50.0,0.11830575000000465,53.0,0.1737135833333312
23278,49.0,0.11575820833333239,45.0,0.05795537499999881
23279,49.0,0.11591074999999762,53.0,0.19050487500000202
23280,47.0,0.12068550000000045,45.0,0.06981937500000157
23281,43.0,0.13963875000000314,53.0,0.1833592500000023
23282,52.0,0.12223949999999917,45.0,0.06111975000000314
23283,52.0,0.12223949999999917,53.0,0.17952600000000274
23284,50.0,0.11968399999999946,45.0,0.05984200000000328
23285,50.0,0.11968399999999946,53.0,0.18859624999999625
23286,48.0,0.12173349999999772,45.0,0.06686274999999853
23287,42.0,0.13372549999999706,53.0,0.18183499999999952
23288,50.0,0.1201827499999979,45.0,0.06165225000000163
23289,47.0,0.12330450000000326,53.0,0.3782297500000027
23290,46.0,0.12716174999999907,45.0,0.0671682500000017
23291,47.0,0.1343365000000034,53.0,0.11673150000000021
23292,42.0,0.7003890000000013,69.0,1.1433305000000047
23293,35.0,0.23158850000000086,59.0,0.11214125000000053
23294,37.0,0.11214125000000053,55.0,0.08410593749999862
23295,34.0,0.11214125000000053,55.0,0.11214125000000053
23296,40.0,0.11214125000000053,55.0,0.11214125000000053
23297,35.0,0.11214125000000053,63.0,0.23158850000000086
23298,43.0,0.4631770000000017,63.0,0.24770850000000166
23299,42.0,0.24770850000000166,69.0,0.9268640000000019
23300,38.0,0.23158850000000086,59.0,0.11214125000000053
23301,37.0,0.11214125000000053,55.0,0.08410593749999862
23302,37.0,0.11214125000000053,55.0,0.11214125000000053
23303,40.0,0.11214125000000053,55.0,0.11214125000000053
23304,35.0,0.11214125000000053,63.0,0.24671049999999894
23305,45.0,0.24671049999999894,63.0,0.2533784999999966
23306,43.0,0.2533784999999966,61.0,0.26041649999999805
23307,42.0,0.26041649999999805,70.0,1.0226804999999999
23308,38.0,0.24671049999999894,53.0,0.12330450000000326
23309,37.0,0.12330450000000326,49.0,0.09247837499999889
23310,37.0,0.12330449999999615,49.0,0.12330450000000326
23311,40.0,0.12330450000000326,49.0,0.12330449999999615
23312,35.0,0.12330449999999615,56.0,0.2827520000000021
23313,47.0,0.2827520000000021,54.0,0.27573550000000324
23314,45.0,0.27573550000000324,49.0,0.2884614999999968
23315,43.0,0.2884614999999968,48.0,0.30737700000000245
23316,42.0,0.30737700000000245,43.0,0.6674969999999973
23317,30.0,0.36764699999999806,99.0,0.1499250000000032
23318,35.0,0.2998499999999993,110.0,0.1499250000000032
23319,32.0,0.0,35.0,0.123171
23320,34.0,0.09924066666666667,29.0,0.11917675
23321,37.0,0.09572133333333332,30.0,0.1179355
23322,40.0,0.09382166666666666,30.0,0.11973716666666667
23323,31.0,0.09645533333333334,33.0,0.11675908333333329
23324,34.0,0.09312733333333334,31.0,0.09452700000000003
23325,32.0,0.09452700000000003,37.0,0.11752608333333325
23326,34.0,0.09452699999999992,30.0,0.11527816666666668
23327,37.0,0.09199633333333335,31.0,0.11640916666666667
23328,40.0,0.09312733333333334,32.0,0.11595941666666665
23329,31.0,0.09312733333333334,34.0,0.11455391666666648
23330,34.0,0.09132833333333323,33.0,0.08361210000000008
23331,34.0,0.09290233333333342,40.0,0.11562441666666645
23332,36.0,0.0929023333333332,33.0,0.11394358333333332
23333,39.0,0.09088833333333324,35.0,0.11527624999999997
23334,42.0,0.09222099999999989,36.0,0.1147273333333334
23335,33.0,0.09222100000000011,34.0,0.11285741666666671
23336,36.0,0.0900253333333334,36.0,0.09114108333333326
23337,34.0,0.09114108333333326,40.0,0.11347808333333331
23338,36.0,0.09107866666666675,34.0,0.11242975
23339,39.0,0.08959766666666669,34.0,0.11416041666666676
23340,42.0,0.09132833333333323,35.0,0.11367466666666659
23341,33.0,0.09132833333333346,34.0,0.11203025000000011
23342,36.0,0.08938533333333343,36.0,0.09057966666666672
23343,37.0,0.09057966666666672,45.0,0.11250566666666684
23344,39.0,0.09057966666666672,35.0,0.11089883333333361
23345,42.0,0.08833875000000013,38.0,0.11264075000000018
23346,45.0,0.09024033333333348,43.0,0.11152766666666691
23347,36.0,0.0896016666666668,39.0,0.1101044166666667
23348,39.0,0.087704,38.0,0.0896016666666668
23349,40.0,0.0896016666666668,41.0,0.11164366666666625
23350,42.0,0.08960166666666636,39.0,0.11050841666666678
23351,45.0,0.08816800000000002,39.0,0.11170208333333331
23352,48.0,0.08936166666666656,43.0,0.1113445000000004
23353,39.0,0.089361666666667,39.0,0.11033174999999984
23354,42.0,0.08793133333333314,39.0,0.0896016666666668
23355,40.0,0.0896016666666668,49.0,0.11152766666666647
23356,42.0,0.08960166666666636,42.0,0.11016483333333316
23357,45.0,0.087704,39.0,0.0898433333333335
23358,48.0,0.0898433333333335,40.0,0.11152766666666691
23359,39.0,0.0896016666666668,42.0,0.1101044166666667
23360,42.0,0.087704,43.0,0.0896016666666668
23361,45.0,0.0896016666666668,50.0,0.11164366666666625
23362,49.0,0.08960166666666636,40.0,0.11050841666666633
23363,51.0,0.08816800000000002,41.0,0.11170208333333331
23364,54.0,0.089361666666667,44.0,0.11117191666666582
23365,44.0,0.08936166666666612,44.0,0.1101368333333328
23366,48.0,0.08724099999999968,44.0,0.09158333333333335
23367,49.0,0.09158333333333335,56.0,0.11350933333333302
23368,52.0,0.09158333333333335,45.0,0.11016483333333316
23369,57.0,0.08770399999999956,49.0,0.1122437500000002
23370,56.0,0.0898433333333335,46.0,0.11152766666666647
23371,51.0,0.0896016666666668,45.0,0.11010441666666626
23372,52.0,0.08770399999999956,45.0,0.0896016666666668
23373,55.0,0.0896016666666668,50.0,0.17593499999999995
23374,51.0,0.0896016666666668,46.0,0.08633333333333315
23375,52.0,0.08633333333333315,45.0,0.11050708333333326
23376,48.0,0.0884056666666666,43.0,0.0884056666666666
23377,49.0,0.0884056666666666,47.0,0.10918341666666631
23378,45.0,0.08678299999999961,44.0,0.0896016666666668
23379,43.0,0.0896016666666668,48.0,0.11152766666666647
23380,44.0,0.0896016666666668,44.0,0.10998266666666634
23381,49.0,0.08770399999999956,44.0,0.08911466666666623
23382,47.0,0.08911466666666623,45.0,0.11124108333333371
23383,48.0,0.0896016666666668,45.0,0.1087178333333334
23384,52.0,0.08655766666666675,45.0,0.08864066666666659
23385,48.0,0.08864066666666659,47.0,0.11000183333333347
23386,49.0,0.08864066666666659,44.0,0.10754608333333326
23387,52.0,0.08544466666666661,45.0,0.0884056666666666
23388,50.0,0.0884056666666666,46.0,0.10987683333333287
23389,51.0,0.0884056666666666,45.0,0.10828508333333353
23390,56.0,0.08588466666666683,45.0,0.0896016666666668
23391,47.0,0.0896016666666668,48.0,0.11118499999999987
23392,50.0,0.0896016666666668,43.0,0.10855258333333317
23393,55.0,0.08633333333333315,45.0,0.1112774166666668
23394,54.0,0.0888770000000001,44.0,0.11152766666666647
23395,49.0,0.0896016666666668,40.0,0.11010441666666626
23396,50.0,0.08770399999999956,38.0,0.0896016666666668
23397,53.0,0.0896016666666668,51.0,0.17776966666666638
23398,49.0,0.0896016666666668,43.0,0.11050841666666589
23399,50.0,0.08816799999999958,42.0,0.11170208333333331
23400,46.0,0.089361666666667,43.0,0.1766026666666658
23401,47.0,0.08936166666666612,45.0,0.10964141666666638
23402,43.0,0.08724099999999968,43.0,0.0896016666666668
23403,41.0,0.0896016666666668,47.0,0.1780073333333334
23404,42.0,0.0896016666666668,41.0,0.11074608333333291
23405,47.0,0.0884056666666666,41.0,0.089361666666667
23406,43.0,0.089361666666667,44.0,0.17615933333333356
23407,44.0,0.0896016666666668,42.0,0.1086590833333343
23408,50.0,0.08655766666666675,42.0,0.08840566666666749
23409,44.0,0.08840566666666749,47.0,0.17406966666666612
23410,45.0,0.0884056666666666,45.0,0.10776541666666617
23411,50.0,0.08566399999999952,43.0,0.0884056666666666
23412,48.0,0.0884056666666666,45.0,0.17451600000000056
23413,49.0,0.0884056666666666,44.0,0.10851075000000066
23414,54.0,0.08611033333333395,44.0,0.0896016666666668
23415,52.0,0.0896016666666668,51.0,0.17730566666666725
23416,44.0,0.0896016666666668,45.0,0.11016483333333404
23417,49.0,0.08770400000000045,41.0,0.11224374999999931
23418,40.0,0.08984333333333261,45.0,0.17730566666666725
23419,43.0,0.0896016666666668,43.0,0.11072641666666705
23420,48.0,0.08770400000000045,43.0,0.0920896666666664
23421,51.0,0.0920896666666664,45.0,0.17752966666666659
23422,42.0,0.089361666666667,41.0,0.11050841666666678
23423,47.0,0.08816799999999958,42.0,0.1117020833333342
23424,38.0,0.089361666666667,42.0,0.17660266666666757
23425,41.0,0.089361666666667,41.0,0.10964141666666727
23426,46.0,0.08724100000000057,42.0,0.0896016666666668
23427,50.0,0.0896016666666668,53.0,0.11152766666666736
23428,41.0,0.0896016666666668,45.0,0.11016483333333404
23429,45.0,0.08770400000000045,45.0,0.11224374999999931
23430,37.0,0.08984333333333261,42.0,0.11152766666666736
23431,40.0,0.0896016666666668,42.0,0.11010441666666715
23432,45.0,0.08770400000000045,43.0,0.0896016666666668
23433,49.0,0.0896016666666668,50.0,0.11164366666666758
23434,45.0,0.0896016666666668,45.0,0.11050841666666678
23435,50.0,0.08816799999999958,42.0,0.11111499999999985
23436,51.0,0.089361666666667,46.0,0.10819941666666466
23437,52.0,0.08667183333333206,51.0,0.10708149999999961
23438,54.0,0.08577591666666606,54.0,0.08522233333333418
23439,55.0,0.08522233333333418,57.0,0.11080300000000065
23440,46.0,0.0888770000000001,45.0,0.11016483333333404
23441,51.0,0.08770400000000045,45.0,0.11224374999999931
23442,42.0,0.08984333333333261,43.0,0.17730566666666725
23443,45.0,0.0896016666666668,44.0,0.11010441666666715
23444,50.0,0.08770400000000045,44.0,0.0896016666666668
23445,53.0,0.0896016666666668,48.0,0.1750463333333343
23446,44.0,0.0896016666666668,42.0,0.10748666666666828
23447,49.0,0.0854446666666675,43.0,0.11021000000000036
23448,40.0,0.08816799999999958,43.0,0.17540900000000015
23449,43.0,0.08816799999999958,45.0,0.10964141666666727
23450,48.0,0.08724100000000057,45.0,0.0896016666666668
23451,51.0,0.0896016666666668,49.0,0.11152766666666736
23452,43.0,0.0896016666666668,45.0,0.11016483333333404
23453,47.0,0.08770400000000045,45.0,0.11224374999999931
23454,38.0,0.08984333333333261,45.0,0.11152766666666736
23455,41.0,0.0896016666666668,43.0,0.11010441666666715
23456,46.0,0.08770400000000045,43.0,0.0896016666666668
23457,50.0,0.0896016666666668,50.0,0.11164366666666758
23458,45.0,0.0896016666666668,45.0,0.11050841666666678
23459,52.0,0.08816799999999958,45.0,0.11094500000000096
23460,53.0,0.089361666666667,50.0,0.10724883333333324
23461,54.0,0.0859432499999997,52.0,0.1057712500000001
23462,55.0,0.08478841666666703,54.0,0.08393133333333402
23463,56.0,0.08393133333333402,56.0,0.11056666666666715
23464,48.0,0.08864066666666659,45.0,0.11072641666666705
23465,54.0,0.08770400000000045,45.0,0.11323224999999937
23466,55.0,0.0920896666666664,54.0,0.10539283333333138
23467,56.0,0.08440999999999832,53.0,0.10593191666666613
23468,57.0,0.08377174999999859,56.0,0.08864066666666659
23469,56.0,0.08864066666666659,61.0,0.11068266666666737
23470,49.0,0.08864066666666659,46.0,0.11050841666666678
23471,52.0,0.08816799999999958,50.0,0.11050424999999997
23472,55.0,0.089361666666667,55.0,0.10539283333333138
23473,56.0,0.08440999999999832,57.0,0.10593191666666613
23474,57.0,0.08377174999999859,59.0,0.08864066666666659
23475,58.0,0.08864066666666659,64.0,0.10855300000000057
23476,50.0,0.08724741666666702,47.0,0.107089833333335
23477,56.0,0.08522233333333418,54.0,0.10855899999999963
23478,57.0,0.08746999999999971,60.0,0.10512591666666538
23479,58.0,0.08419666666666537,60.0,0.10515599999999736
23480,59.0,0.08340266666666452,65.0,0.08701333333333316
23481,58.0,0.08701333333333316,68.0,0.10905533333333395
23482,51.0,0.08701333333333316,51.0,0.11050841666666678
23483,54.0,0.08816799999999958,60.0,0.11122916666666782
23484,57.0,0.089361666666667,64.0,0.10876624999999862
23485,58.0,0.0871268333333326,67.0,0.10838166666666638
23486,59.0,0.08622149999999884,68.0,0.08864066666666659
23487,54.0,0.08864066666666659,68.0,0.1743046666666661
23488,51.0,0.08864066666666659,58.0,0.10782416666666705
23489,56.0,0.08566399999999952,51.0,0.11104108333333329
23490,54.0,0.08864066666666659,53.0,0.17593500000000084
23491,47.0,0.0896016666666668,49.0,0.10855258333333317
23492,52.0,0.08633333333333404,52.0,0.0888770000000001
23493,51.0,0.0888770000000001,57.0,0.1756600000000006
23494,42.0,0.0888770000000001,45.0,0.1091234166666677
23495,49.0,0.0867830000000005,47.0,0.1117020833333342
23496,47.0,0.089361666666667,50.0,0.17660266666666757
23497,39.0,0.089361666666667,47.0,0.10964141666666727
23498,44.0,0.08724100000000057,47.0,0.08960166666666503
23499,42.0,0.08960166666666503,56.0,0.11152766666666736
23500,35.0,0.0896016666666668,45.0,0.11016483333333227
23501,40.0,0.08770399999999867,45.0,0.11224375000000109
23502,39.0,0.08984333333333439,45.0,0.11152766666666736
23503,34.0,0.0896016666666668,42.0,0.11010441666666537
23504,35.0,0.08770399999999867,43.0,0.0896016666666668
23505,39.0,0.0896016666666668,47.0,0.11164366666666581
23506,33.0,0.0896016666666668,39.0,0.110508416666665
23507,41.0,0.08816799999999958,38.0,0.1117020833333342
23508,39.0,0.08936166666666523,40.0,0.11117191666667026
23509,32.0,0.08936166666666878,39.0,0.10964141666666549
23510,33.0,0.08724099999999879,37.0,0.0896016666666668
23511,34.0,0.0896016666666668,42.0,0.10730366666666669
23512,36.0,0.08572033333333451,38.0,0.10848208333333176
23513,38.0,0.08667183333333028,35.0,0.10962958333333361
23514,39.0,0.0875875833333346,36.0,0.11080149999999733
23515,41.0,0.08852283333333233,38.0,0.11206391666666349
23516,42.0,0.08948033333333072,42.0,0.09033433333333463
23517,35.0,0.09033433333333463,45.0,0.1076926666666651
23518,37.0,0.08605324999999908,36.0,0.10876624999999862
23519,38.0,0.08689874999999958,34.0,0.10980316666666567
23520,39.0,0.08776116666666667,38.0,0.11080149999999733
23521,40.0,0.08852283333333233,37.0,0.11200283333333161
23522,42.0,0.08948033333333072,37.0,0.09009
23523,36.0,0.09009,48.0,0.10797366666666264
23524,37.0,0.0862779166666634,41.0,0.10905283333333315
23525,39.0,0.0871268333333326,38.0,0.11021341666666729
23526,40.0,0.08805325000000153,43.0,0.11139891666666202
23527,42.0,0.08899849999999532,41.0,0.11261225000000152
23528,44.0,0.08996733333333395,42.0,0.09057966666666672
23529,37.0,0.09057966666666672,48.0,0.10814124999999919
23530,38.0,0.08644549999999995,38.0,0.10888016666666545
23531,39.0,0.0870126666666664,39.0,0.10962866666666926
23532,40.0,0.08764483333333573,43.0,0.1103888333333316
23533,42.0,0.08822866666666584,39.0,0.11121774999999445
23534,44.0,0.08887733333332903,43.0,0.08936166666666523
23535,39.0,0.08936166666666523,51.0,0.11218333333333419
23536,40.0,0.08978291666666749,43.0,0.11163858333333465
23537,41.0,0.0893599166666661,39.0,0.1110375000000019
23538,42.0,0.08887733333333259,44.0,0.11044700000000418
23539,44.0,0.08840500000000162,43.0,0.11033608333333689
23540,45.0,0.08793566666667019,45.0,0.0896016666666668
23541,36.0,0.0896016666666668,51.0,0.11188208333333449
23542,40.0,0.08954166666666552,43.0,0.111217749999998
23543,41.0,0.08905758333333225,43.0,0.11050575000000507
23544,42.0,0.0884637500000025,47.0,0.10980316666666923
23545,44.0,0.08793566666667019,45.0,0.10969900000000266
23546,45.0,0.08729858333333596,48.0,0.0896016666666668
23547,42.0,0.0963716666666663,48.0,0.120197000000001
23548,39.0,0.09665100000000137,47.0,0.11834674999999706
23549,44.0,0.09418399999999849,43.0,0.09665100000000137
23550,42.0,0.09665100000000137,51.0,0.12033083333333039
23551,37.0,0.09665099999999782,46.0,0.119095333333334
23552,44.0,0.09471933333333382,47.0,0.12188000000000088
23553,42.0,0.0975040000000007,49.0,0.12138858333333502
23554,35.0,0.0975040000000007,48.0,0.12027858333333086
23555,44.0,0.09553833333333017,49.0,0.09896100000000274
23556,45.0,0.09896100000000274,53.0,0.12522391666666977
23557,44.0,0.10159000000000162,49.0,0.11778233333333787
23558,42.0,0.09434333333333456,51.0,0.11661983333333836
23559,40.0,0.09337266666666721,49.0,0.11560550000000092
23560,39.0,0.09260958333333491,48.0,0.1146085833333288
23561,37.0,0.09161266666666279,44.0,0.09198366666666402
23562,36.0,0.09198366666666402,54.0,0.18524066666666528
23563,44.0,0.09350166666666837,47.0,0.11524408333333014
23564,39.0,0.0917389999999969,46.0,0.11752541666666616
23565,42.0,0.09402033333333293,49.0,0.11707883333333058
23566,40.0,0.09402033333333293,47.0,0.11586791666666585
23567,37.0,0.0922339999999977,47.0,0.09453566666666546
23568,36.0,0.09453566666666546,54.0,0.18549499999999597
23569,44.0,0.09375599999999906,47.0,0.11543908333332809
23570,39.0,0.0917389999999969,46.0,0.11856683333333251
23571,42.0,0.09480033333333182,47.0,0.11818741666667165
23572,40.0,0.09506600000000276,45.0,0.11618574999999964
23573,37.0,0.09248566666666846,45.0,0.09480033333333182
23574,36.0,0.09480033333333182,54.0,0.1877889999999951
23575,44.0,0.09480033333333182,47.0,0.11688924999999983
23576,39.0,0.09298866666666328,46.0,0.11950291666666857
23577,42.0,0.09560233333333201,49.0,0.1189777499999991
23578,40.0,0.09560233333333201,47.0,0.11767375000000158
23579,37.0,0.09350166666666837,45.0,0.09668833333333282
23580,47.0,0.09668833333333282,53.0,0.11831258333333494
23581,46.0,0.09502100000000269,47.0,0.11607091666665781
23582,44.0,0.09297299999999353,45.0,0.11504708333333014
23583,42.0,0.09213866666666348,49.0,0.11404366666666732
23584,41.0,0.09132258333333709,45.0,0.11311583333332464
23585,39.0,0.0905169999999913,47.0,0.09039533333333338
23586,38.0,0.09039533333333338,49.0,0.18129466666666616
23587,46.0,0.09138266666666794,47.0,0.11275766666666698
23588,41.0,0.08991199999999822,43.0,0.1142283333333367
23589,44.0,0.09138266666666794,47.0,0.11398150000000129
23590,42.0,0.09138266666666794,47.0,0.11349324999999766
23591,39.0,0.09039533333333338,47.0,0.09239166666666421
23592,38.0,0.09239166666666421,49.0,0.18352866666667467
23593,46.0,0.09239166666667131,47.0,0.11442858333333561
23594,41.0,0.09113700000000335,44.0,0.11652316666666707
23595,44.0,0.09316633333333613,51.0,0.11646241666666413
23596,42.0,0.09342733333333086,47.0,0.11582800000000049
23597,39.0,0.09214033333333305,47.0,0.09475066666666976
23598,38.0,0.09475066666666976,54.0,0.18714233333332686
23599,46.0,0.09475066666666265,47.0,0.1164197499999986
23600,41.0,0.09239166666666421,43.0,0.1196008333333296
23601,44.0,0.09611233333333047,51.0,0.11763383333332911
23602,42.0,0.09395399999999654,47.0,0.12037875000000042
23603,39.0,0.09471933333333027,47.0,0.1026376666666664
23604,52.0,0.1026376666666664,67.0,0.11335733333333309
23605,51.0,0.09107866666666808,58.0,0.11207358333333417
23606,49.0,0.08911466666666712,56.0,0.114605333333337
23607,47.0,0.0918356666666682,56.0,0.1134190833333335
23608,46.0,0.09107866666666808,55.0,0.11213133333333758
23609,44.0,0.08936166666666878,55.0,0.09107866666666808
23610,49.0,0.09107866666666808,61.0,0.11617283333333717
23611,43.0,0.09365033333333628,55.0,0.11292208333333775
23612,46.0,0.09009000000000356,54.0,0.11416041666666388
23613,40.0,0.09132833333333679,56.0,0.11474091666666197
23614,43.0,0.09132833333332968,55.0,0.12047291666667093
23615,39.0,0.09365033333333628,52.0,0.10729033333333149
23616,52.0,0.10729033333333149,67.0,0.11335733333333309
23617,51.0,0.09107866666666808,56.0,0.11207358333333417
23618,49.0,0.08911466666666712,59.0,0.114605333333337
23619,47.0,0.0918356666666682,58.0,0.1134190833333335
23620,46.0,0.09107866666666808,56.0,0.11264241666666663
23621,44.0,0.08936166666666878,56.0,0.09312299999999851
23622,49.0,0.09312299999999851,62.0,0.11740991666666645
23623,43.0,0.0944509999999994,55.0,0.11473150000000487
23624,46.0,0.0918356666666682,56.0,0.09158333333333246
23625,40.0,0.09158333333333246,54.0,0.11499591666666475
23626,43.0,0.09158333333333246,55.0,0.12047291666667093
23627,39.0,0.09365033333333628,57.0,0.10729033333333149
23628,49.0,0.10729033333333149,59.0,0.12050683333333723
23629,43.0,0.09780433333333605,53.0,0.11406691666666546
23630,46.0,0.09080999999999761,53.0,0.11622091666666279
23631,40.0,0.09302766666666429,51.0,0.11547550000000228
23632,43.0,0.0927730000000011,48.0,0.11448983333333018
23633,39.0,0.09080999999999761,48.0,0.09471933333333027
23634,46.0,0.09471933333333027,57.0,0.11754416666666856
23635,40.0,0.09471933333333737,51.0,0.11471191666666414
23636,43.0,0.09129933333333184,49.0,0.11706291666666857
23637,39.0,0.09365033333333628,50.0,0.11660924999999622
23638,43.0,0.09365033333332917,48.0,0.11538166666667138
23639,37.0,0.0918356666666682,48.0,0.09418399999999849
23640,43.0,0.09418399999999849,59.0,0.11727016666666401
23641,37.0,0.09418399999999849,50.0,0.11595741666666726
23642,40.0,0.09234466666666918,48.0,0.11786358333333169
23643,36.0,0.0944509999999994,51.0,0.1167365000000018
23644,37.0,0.09365033333333628,49.0,0.11595741666666726
23645,35.0,0.09234466666666918,50.0,0.0944509999999994
23646,40.0,0.0944509999999994,51.0,0.11760233333333048
23647,35.0,0.0944509999999994,48.0,0.1162180833333295
23648,37.0,0.09260533333333143,48.0,0.11806374999999747
23649,34.0,0.0944509999999994,50.0,0.11766683333333106
23650,37.0,0.0944509999999994,48.0,0.11667966666666985
23651,33.0,0.09286333333333374,41.0,0.0952653333333302
23652,32.0,0.0952653333333302,51.0,0.11718016666666387
23653,34.0,0.09471933333333027,46.0,0.11286575000000454
23654,37.0,0.08984333333333439,45.0,0.11511208333333656
23655,40.0,0.0920896666666664,45.0,0.11461216666666729
23656,31.0,0.0920896666666664,45.0,0.1130489166666635
23657,34.0,0.09008999999999645,46.0,0.0918356666666682
23658,32.0,0.0918356666666682,51.0,0.11423608333333135
23659,34.0,0.0918356666666682,46.0,0.11256058333333385
23660,37.0,0.0896016666666668,45.0,0.11479458333333525
23661,40.0,0.0918356666666682,45.0,0.11423608333333135
23662,31.0,0.0918356666666682,45.0,0.11256058333333385
23663,34.0,0.0896016666666668,46.0,0.08265209999999712
23664,34.0,0.0918356666666682,53.0,0.11417608333333362
23665,36.0,0.0918356666666682,45.0,0.11219375000000298
23666,39.0,0.08936166666666878,46.0,0.11416041666666388
23667,42.0,0.09132833333333679,47.0,0.11388370833332573
23668,33.0,0.09132833333332968,45.0,0.11167004166666317
23669,36.0,0.08939137499999816,48.0,0.09058766666666429
23670,34.0,0.09058766666666429,53.0,0.11329791666666722
23671,36.0,0.09107866666666808,47.0,0.11158466666666556
23672,39.0,0.08887699999999654,46.0,0.11353833333333085
23673,42.0,0.09083066666666895,49.0,0.1129908333333276
23674,33.0,0.09083066666666184,48.0,0.11128558333333416
23675,36.0,0.08864066666667014,46.0,0.09057966666666317
23676,37.0,0.09057966666666317,55.0,0.11250566666667083
23677,39.0,0.09057966666667028,47.0,0.11016483333333582
23678,42.0,0.08770400000000222,48.0,0.11224374999999753
23679,45.0,0.08984333333333439,49.0,0.11152766666666736
23680,36.0,0.0896016666666668,48.0,0.11010441666666537
23681,39.0,0.08770400000000222,45.0,0.0896016666666668
23682,40.0,0.0896016666666668,50.0,0.11164366666666581
23683,42.0,0.0896016666666668,49.0,0.11050841666666855
23684,45.0,0.08816800000000313,48.0,0.1117020833333342
23685,48.0,0.08936166666666878,49.0,0.11117191666666315
23686,39.0,0.08936166666666168,49.0,0.10964141666666194
23687,42.0,0.08724099999999879,50.0,0.0896016666666668
23688,40.0,0.0896016666666668,55.0,0.11152766666666736
23689,42.0,0.0896016666666668,49.0,0.11016483333333582
23690,45.0,0.08770400000000222,48.0,0.11224374999999753
23691,48.0,0.08984333333333439,50.0,0.11152766666666736
23692,39.0,0.0896016666666668,49.0,0.11010441666666537
23693,42.0,0.08770400000000222,50.0,0.0896016666666668
23694,45.0,0.0896016666666668,57.0,0.11164366666666581
23695,49.0,0.0896016666666668,51.0,0.11050841666666855
23696,51.0,0.08816800000000313,52.0,0.1117020833333342
23697,54.0,0.08936166666666878,54.0,0.11117191666666315
23698,44.0,0.08936166666666168,54.0,0.10964141666666194
23699,48.0,0.08724099999999879,55.0,0.0896016666666668
23700,49.0,0.0896016666666668,65.0,0.11112924999999763
23701,52.0,0.0896016666666668,56.0,0.10832958333332954
23702,57.0,0.0861103333333304,55.0,0.11109625000000278
23703,56.0,0.08887699999999654,55.0,0.11051641666666967
23704,51.0,0.08887700000000365,54.0,0.10877691666666323
23705,52.0,0.08655766666666409,55.0,0.08887699999999654
23706,55.0,0.08887699999999654,62.0,0.17589033333333504
23707,51.0,0.08887700000000365,57.0,0.10935374999999681
23708,52.0,0.08701333333333139,55.0,0.1117020833333342
23709,48.0,0.08936166666666878,56.0,0.17660266666666047
23710,49.0,0.08936166666666168,55.0,0.10964141666666194
23711,45.0,0.08724099999999879,51.0,0.0896016666666668
23712,43.0,0.0896016666666668,56.0,0.17730566666666903
23713,44.0,0.0896016666666668,51.0,0.11016483333333582
23714,49.0,0.08770400000000222,51.0,0.08984333333333439
23715,47.0,0.08984333333333439,56.0,0.17638466666666375
23716,48.0,0.0896016666666668,51.0,0.10900224999999608
23717,52.0,0.08678299999999695,51.0,0.08887699999999654
23718,48.0,0.08887699999999654,58.0,0.17521033333333946
23719,49.0,0.08887700000000365,55.0,0.10837533333333482
23720,52.0,0.08633333333333582,56.0,0.08816800000000313
23721,50.0,0.08816800000000313,59.0,0.1733903333333302
23722,51.0,0.08816799999999603,56.0,0.10762274999999732
23723,56.0,0.08522233333333418,53.0,0.0896016666666668
23724,47.0,0.0896016666666668,65.0,0.10957475000000017
23725,50.0,0.08793533333333414,59.0,0.10877691666666323
23726,55.0,0.08655766666666409,56.0,0.11127741666665969
23727,54.0,0.08887699999999654,62.0,0.1113550000000032
23728,49.0,0.0896016666666668,58.0,0.10941374999999454
23729,50.0,0.08701333333333139,54.0,0.0896016666666668
23730,53.0,0.0896016666666668,62.0,0.17776966666666993
23731,49.0,0.0896016666666668,56.0,0.11050841666666855
23732,50.0,0.08816800000000313,53.0,0.1117020833333342
23733,46.0,0.08936166666666878,58.0,0.17660266666666047
23734,47.0,0.08936166666666168,51.0,0.10964141666666194
23735,43.0,0.08724099999999879,51.0,0.0896016666666668
23736,41.0,0.0896016666666668,56.0,0.17730566666666903
23737,42.0,0.0896016666666668,51.0,0.11016483333333582
23738,47.0,0.08770400000000222,51.0,0.08984333333333439
23739,43.0,0.08984333333333439,56.0,0.17638466666666375
23740,44.0,0.0896016666666668,53.0,0.1089431666666627
23741,50.0,0.08678299999999695,54.0,0.08864066666667014
23742,44.0,0.08864066666667014,61.0,0.17519833333332713
23743,45.0,0.08864066666666304,55.0,0.10854149999999407
23744,50.0,0.08655766666666409,56.0,0.08793533333333414
23745,48.0,0.08793533333333414,64.0,0.1738199999999992
23746,49.0,0.08793533333333414,56.0,0.1082850833333282
23747,54.0,0.08588466666666505,58.0,0.0896016666666668
23748,52.0,0.0896016666666668,64.0,0.11124108333333282
23749,51.0,0.0896016666666668,53.0,0.10901849999999769
23750,50.0,0.08655766666666409,47.0,0.11224374999999753
23751,49.0,0.08984333333333439,56.0,0.11152766666666736
23752,48.0,0.0896016666666668,52.0,0.11010441666666537
23753,56.0,0.08770400000000222,56.0,0.0896016666666668
23754,54.0,0.0896016666666668,64.0,0.11164366666666581
23755,53.0,0.0896016666666668,55.0,0.11050841666666855
23756,52.0,0.08816800000000313,55.0,0.1117020833333342
23757,51.0,0.08936166666666878,57.0,0.11117191666666315
23758,49.0,0.08936166666666168,54.0,0.10964141666666194
23759,57.0,0.08724099999999879,58.0,0.0896016666666668
23760,56.0,0.0896016666666668,67.0,0.11152766666666736
23761,54.0,0.0896016666666668,59.0,0.11016483333333582
23762,53.0,0.08770400000000222,56.0,0.11224374999999753
23763,52.0,0.08984333333333439,60.0,0.11152766666666736
23764,51.0,0.0896016666666668,58.0,0.11047366666667102
23765,60.0,0.08770400000000222,63.0,0.09107866666666808
23766,51.0,0.09107866666666808,68.0,0.18044033333333687
23767,52.0,0.09107866666666808,62.0,0.11232058333333583
23768,61.0,0.08936166666666878,62.0,0.0918356666666682
23769,53.0,0.0918356666666682,71.0,0.18119733333333699
23770,54.0,0.0918356666666682,62.0,0.1124478333333343
23771,61.0,0.08936166666666878,67.0,0.09234466666666918
23772,63.0,0.09234466666666918,72.0,0.10685949999999877
23773,61.0,0.08538833333333429,60.0,0.10780483333332569
23774,59.0,0.08616541666665967,56.0,0.10876625000000217
23775,57.0,0.08689875000000313,62.0,0.10968683333332763
23776,56.0,0.08764483333332862,60.0,0.1108632499999942
23777,55.0,0.08852283333332878,60.0,0.08936166666666878
23778,63.0,0.08936166666666878,72.0,0.11072283333332678
23779,61.0,0.08936166666666168,62.0,0.10735924999999469
23780,59.0,0.08577591666666251,59.0,0.10853933333333288
23781,57.0,0.08667183333333384,63.0,0.10992074999999346
23782,56.0,0.08781933333332859,59.0,0.11122166666665834
23783,55.0,0.08882124999999519,58.0,0.0896016666666668
23784,57.0,0.0896016666666668,67.0,0.10848124999999698
23785,56.0,0.08672791666666768,58.0,0.1092245833333294
23786,55.0,0.08729858333332885,56.0,0.11009524999999343
23787,54.0,0.08799383333332855,60.0,0.11091966666666053
23788,53.0,0.08864099999999553,56.0,0.11175899999999217
23789,52.0,0.08929816666665857,55.0,0.08984333333333439
23790,54.0,0.08984333333333439,58.0,0.11188533333333339
23791,50.0,0.08984333333333439,54.0,0.11050841666666855
23792,51.0,0.08816800000000313,50.0,0.1117020833333342
23793,52.0,0.08936166666666878,51.0,0.11117191666666315
23794,48.0,0.08936166666666168,47.0,0.10964141666666194
23795,49.0,0.08724099999999879,50.0,0.0896016666666668
23796,51.0,0.0896016666666668,53.0,0.17730566666666903
23797,46.0,0.0896016666666668,45.0,0.11016483333333582
23798,47.0,0.08770400000000222,45.0,0.11224374999999753
23799,50.0,0.08984333333333439,46.0,0.17730566666666903
23800,45.0,0.0896016666666668,42.0,0.11010441666666537
23801,54.0,0.08770400000000222,39.0,0.0896016666666668
23802,49.0,0.0896016666666668,46.0,0.17776966666666993
23803,44.0,0.0896016666666668,42.0,0.11050841666666855
23804,45.0,0.08816800000000313,45.0,0.1117020833333342
23805,48.0,0.08936166666666878,43.0,0.17660266666666047
23806,43.0,0.08936166666666168,41.0,0.10964141666666194
23807,52.0,0.08724099999999879,39.0,0.0896016666666668
23808,47.0,0.0896016666666668,51.0,0.17730566666666903
23809,42.0,0.0896016666666668,44.0,0.11016483333333582
23810,43.0,0.08770400000000222,44.0,0.11224374999999753
23811,46.0,0.08984333333333439,43.0,0.17730566666666903
23812,41.0,0.0896016666666668,41.0,0.11010441666666537
23813,50.0,0.08770400000000222,41.0,0.0896016666666668
23814,45.0,0.0896016666666668,47.0,0.17776966666666993
23815,40.0,0.0896016666666668,40.0,0.11050841666666855
23816,41.0,0.08816800000000313,40.0,0.1117020833333342
23817,44.0,0.08936166666666878,44.0,0.17660266666666047
23818,39.0,0.08936166666666168,38.0,0.10964141666666194
23819,48.0,0.08724099999999879,40.0,0.0896016666666668
23820,53.0,0.0896016666666668,49.0,0.1752656666666681
23821,48.0,0.0896016666666668,42.0,0.1077060000000003
23822,49.0,0.0856640000000013,45.0,0.11032816666666889
23823,52.0,0.08816800000000313,48.0,0.17475100000000054
23824,47.0,0.08864066666667014,42.0,0.10821174999999528
23825,56.0,0.0861103333333304,39.0,0.0884056666666666
23826,51.0,0.0884056666666666,47.0,0.1749633333333307
23827,46.0,0.0884056666666666,42.0,0.10889808333332951
23828,47.0,0.08655766666666409,42.0,0.1117020833333342
23829,50.0,0.08936166666666878,44.0,0.17660266666666047
23830,45.0,0.08936166666666168,43.0,0.10964141666666194
23831,54.0,0.08724099999999879,39.0,0.0896016666666668
23832,49.0,0.0896016666666668,47.0,0.17730566666666903
23833,44.0,0.0896016666666668,39.0,0.11016483333333582
23834,33.0,0.08735550000000103,44.0,0.0876454999999936
23835,32.0,0.0876454999999936,49.0,0.11009366666665699
23836,31.0,0.08805166666665798,43.0,0.1105064166666665
23837,28.0,0.08834625000000074,39.0,0.11097808333333603
23838,27.0,0.08875883333332979,43.0,0.11139566666666667
23839,25.0,0.08905525000000125,36.0,0.11188208333332739
23840,21.0,0.08948166666665713,34.0,0.0896016666666668
23841,20.0,0.0896016666666668,39.0,0.17730566666666903
23842,25.0,0.0896016666666668,33.0,0.11016483333332872
23843,23.0,0.08770400000000222,33.0,0.11224375000000464
23844,24.0,0.08984333333333439,36.0,0.1766149999999982
23845,28.0,0.0896016666666668,34.0,0.10917349999999715
23846,24.0,0.08701333333333139,34.0,0.08864066666666304
23847,25.0,0.08864066666666304,41.0,0.17519833333334134
23848,30.0,0.08864066666667725,37.0,0.1085996666666631
23849,26.0,0.08655766666666409,37.0,0.11020999999999503
23850,27.0,0.08816799999999603,39.0,0.17427833333334775
23851,32.0,0.08816800000001024,39.0,0.1080941666666746
23852,27.0,0.08611033333333751,39.0,0.08793533333333414
23853,28.0,0.08793533333333414,43.0,0.1738200000000063
23854,33.0,0.08793533333333414,39.0,0.10792666666667117
23855,29.0,0.08588466666667216,39.0,0.11032816666666179
23856,30.0,0.08816799999999603,41.0,0.17475100000000054
23857,36.0,0.08864066666666304,39.0,0.10851075000000776
23858,32.0,0.08611033333333751,39.0,0.0896016666666668
23859,33.0,0.0896016666666668,46.0,0.1780073333333405
23860,40.0,0.0896016666666668,40.0,0.11098925000000293
23861,36.0,0.08840566666667371,39.0,0.11291791666666029
23862,39.0,0.09033433333333107,40.0,0.1785023333333271
23863,45.0,0.09033433333333107,42.0,0.11081291666666004
23864,44.0,0.08816799999999603,40.0,0.09057966666667028
23865,36.0,0.09057966666667028,45.0,0.1782836666666583
23866,40.0,0.09057966666665607,39.0,0.11016483333332872
23867,36.0,0.08770400000000222,41.0,0.11224375000000464
23868,39.0,0.08984333333333439,42.0,0.17730566666666903
23869,45.0,0.0896016666666668,43.0,0.11028758333333144
23870,44.0,0.08770400000000222,43.0,0.09033433333333107
23871,36.0,0.09033433333333107,45.0,0.1785023333333271
23872,40.0,0.09033433333333107,39.0,0.11075158333332524
23873,36.0,0.08816799999999603,41.0,0.11291791666666029
23874,39.0,0.09033433333333107,43.0,0.17757533333333697
23875,45.0,0.09033433333333107,43.0,0.11032716666667852
23876,44.0,0.0872410000000059,43.0,0.09234466666666208
23877,39.0,0.09234466666666208,47.0,0.18292433333334657
23878,45.0,0.09234466666667629,43.0,0.11347550000000695
23879,44.0,0.09057966666667028,40.0,0.11447916666666913
23880,39.0,0.09158333333333246,41.0,0.18216300000000274
23881,45.0,0.09158333333333246,43.0,0.11341174999999737
23882,44.0,0.09057966666667028,40.0,0.09132833333333679
23883,39.0,0.09132833333333679,45.0,0.18190800000000706
23884,45.0,0.09132833333333679,43.0,0.11341174999999737
23885,44.0,0.09057966666667028,40.0,0.11416041666666388
23886,37.0,0.09132833333333679,44.0,0.1804429999999968
23887,45.0,0.09132833333333679,43.0,0.11151508333333027
23888,44.0,0.08911466666666001,43.0,0.08954166666666197
23889,40.0,0.08954166666666197,45.0,0.17811549999998988
23890,32.0,0.08923816666666085,36.0,0.1110374999999948
23891,42.0,0.08887733333332903,39.0,0.11062458333333325
23892,44.0,0.08852316666666127,39.0,0.11021341666666729
23893,42.0,0.08805325000000153,40.0,0.1114589166666633
23894,40.0,0.08905850000000726,40.0,0.0896016666666668
23895,37.0,0.0896016666666668,44.0,0.11194116666666787
23896,32.0,0.08966250000000286,39.0,0.11103816666667399
23897,39.0,0.08893675000000201,39.0,0.1101546666666593
23898,40.0,0.08822866666666584,40.0,0.10980474999999501
23899,39.0,0.08770333333332303,39.0,0.11122166666667965
23900,37.0,0.0888212500000094,40.0,0.0896016666666668
23901,40.0,0.0896016666666668,45.0,0.11249466666666308
23902,32.0,0.09107866666666098,39.0,0.10794266666665919
23903,42.0,0.08566399999999419,39.0,0.11151508333333027
23904,44.0,0.08911466666666001,41.0,0.11152766666666025
23905,42.0,0.0896016666666668,40.0,0.11010441666667248
23906,40.0,0.08770400000000222,40.0,0.0896016666666668
23907,37.0,0.0896016666666668,44.0,0.1110728333333384
23908,32.0,0.0896016666666668,39.0,0.10822508333333758
23909,39.0,0.08588466666667216,39.0,0.1117020833333271
23910,40.0,0.08936166666666168,40.0,0.11117191666667736
23911,39.0,0.08936166666667589,40.0,0.10964141666667615
23912,37.0,0.0872410000000059,40.0,0.0896016666666668
23913,30.0,0.0896016666666668,44.0,0.11112925000000473
23914,32.0,0.0896016666666668,39.0,0.108571166666664
23915,37.0,0.08611033333333751,34.0,0.11224375000000464
23916,40.0,0.08984333333333439,37.0,0.11152766666666025
23917,28.0,0.0896016666666668,35.0,0.11010441666667248
23918,32.0,0.08770400000000222,35.0,0.0896016666666668
23919,30.0,0.0896016666666668,44.0,0.11118500000000608
23920,32.0,0.0896016666666668,39.0,0.10867374999999413
23921,37.0,0.08633333333332871,34.0,0.1117020833333271
23922,40.0,0.08936166666666168,36.0,0.11117191666667736
23923,28.0,0.08936166666667589,35.0,0.10964141666667615
23924,32.0,0.0872410000000059,35.0,0.0896016666666668
23925,27.0,0.0896016666666668,44.0,0.11118500000000608
23926,28.0,0.0896016666666668,39.0,0.1087941666666552
23927,32.0,0.08633333333332871,34.0,0.11224375000000464
23928,37.0,0.08984333333333439,36.0,0.11152766666666025
23929,25.0,0.0896016666666668,35.0,0.11010441666667248
23930,28.0,0.08770400000000222,35.0,0.0896016666666668
23931,27.0,0.0896016666666668,44.0,0.1110728333333384
23932,28.0,0.0896016666666668,39.0,0.10822508333333758
23933,32.0,0.08588466666667216,34.0,0.1117020833333271
23934,37.0,0.08936166666666168,36.0,0.11117191666667736
23935,25.0,0.08936166666667589,35.0,0.10964141666667615
23936,28.0,0.0872410000000059,35.0,0.0896016666666668
23937,27.0,0.623658000000006,44.0,0.1110728333333384
23938,28.0,0.0896016666666668,39.0,0.10822508333333758
23939,32.0,0.08588466666667216,34.0,0.1117020833333271
23940,37.0,0.08936166666666168,35.0,0.11117191666667736
23941,25.0,0.08936166666667589,35.0,0.10964141666667615
23942,28.0,0.0872410000000059,35.0,0.0896016666666668
23943,27.0,0.6272116666666676,57.0,0.11112925000000473
23944,28.0,0.0896016666666668,51.0,0.108571166666664
23945,32.0,0.08611033333333751,46.0,0.11230416666666088
23946,37.0,0.08984333333333439,47.0,0.11188533333333339
23947,25.0,0.08984333333333439,48.0,0.1117807499999941
23948,28.0,0.08816799999999603,49.0,0.0944510000000065
23949,25.0,0.0944510000000065,100.0,0.2833529999999911
23950,73.0,0.5667059999999964,99.0,0.5667059999999964
23951,71.0,0.0,50.0,0.061349666666666636
23952,72.0,0.061349666666666636,43.0,0.061349666666666636
23953,71.0,0.061349666666666636,46.0,0.06134966666666675
23954,72.0,0.06134966666666675,41.0,0.061349666666666636
23955,71.0,0.061349666666666636,44.0,0.06134966666666675
23956,28.0,0.03067483333333343,34.0,0.4601225
23957,70.0,0.030674833333333318,40.0,0.061349666666666636
23958,35.0,0.015337416666666659,36.0,0.41411025
23959,76.0,0.04601224999999998,50.0,0.36809800000000004
23960,72.0,0.061349666666666636,45.0,0.061349666666666636
23961,71.0,0.061349666666666636,37.0,0.06134966666666686
23962,67.0,0.06134966666666686,44.0,0.09202449999999995
23963,66.0,0.09202449999999995,39.0,0.09202449999999995
23964,71.0,0.09202449999999995,50.0,0.061349666666666636
23965,66.0,0.061349666666666636,45.0,0.061349666666666636
23966,64.0,0.061349666666666636,40.0,0.061349666666666636
23967,60.0,0.061349666666666636,45.0,0.09202449999999995
23968,59.0,0.09202449999999995,40.0,0.2760735000000003
23969,28.0,0.04601224999999998,35.0,0.23006125000000033
23970,64.0,0.0460122500000002,50.0,0.18404900000000013
23971,59.0,0.061349666666666636,45.0,0.061349666666666636
23972,57.0,0.061349666666666636,37.0,0.06134966666666686
23973,55.0,0.06134966666666686,41.0,0.09202449999999995
23974,54.0,0.09202449999999995,37.0,0.27607349999999986
23975,35.0,0.04601224999999953,36.0,0.23006125000000033
23976,59.0,0.04601225000000042,50.0,0.1840489999999999
23977,54.0,0.061349666666666636,44.0,0.061349666666666636
23978,52.0,0.061349666666666636,37.0,0.061349666666666636
23979,48.0,0.061349666666666636,40.0,0.09202449999999995
23980,47.0,0.09202449999999995,38.0,0.2772095000000001
23981,28.0,0.04601224999999998,36.0,0.23119725000000013
23982,52.0,0.04601224999999998,50.0,0.18518500000000016
23983,47.0,0.061728333333333385,44.0,0.061728333333333385
23984,45.0,0.061728333333333385,36.0,0.061728333333333385
23985,43.0,0.061728333333333385,40.0,0.09259249999999986
23986,42.0,0.09259249999999986,36.0,0.2777775
23987,23.0,0.04629625000000015,36.0,0.23148124999999986
23988,47.0,0.046296249999999706,50.0,0.18518500000000016
23989,42.0,0.061728333333333385,44.0,0.061728333333333385
23990,40.0,0.061728333333333385,36.0,0.061728333333333385
23991,38.0,0.061728333333333385,40.0,0.0925925000000003
23992,36.0,0.0925925000000003,35.0,0.09259249999999986
23993,35.0,0.09259249999999986,45.0,2.282742208333333
23994,23.0,0.3539819999999998,49.0,0.7792200000000005
23995,11.0,0.38961000000000023,46.0,0.38961000000000023
23996,23.0,0.38961000000000023,43.0,0.2783772916666649
23997,40.0,0.2949335833333322,45.0,0.09988962500000031
23998,42.0,0.09988962500000031,42.0,1.2719580000000006
23999,35.0,0.7547170000000003,46.0,0.5172410000000003
24000,28.0,0.38793074999999977,30.0,0.49294625000000014
24001,35.0,0.0646551250000007,35.0,0.42829112499999944
24002,76.0,0.06465512499999981,50.0,0.3636359999999996
24003,72.0,0.06060599999999994,45.0,0.06060599999999994
24004,71.0,0.06060599999999994,38.0,0.06060599999999994
24005,67.0,0.06060599999999994,43.0,0.0909089999999999
24006,66.0,0.0909089999999999,39.0,0.0909089999999999
24007,71.0,0.0909089999999999,50.0,0.06060599999999994
24008,66.0,0.06060599999999994,45.0,0.060606000000000826
24009,64.0,0.060606000000000826,40.0,0.06060599999999994
24010,60.0,0.06060599999999994,43.0,0.0909089999999999
24011,59.0,0.0909089999999999,39.0,0.2727269999999997
24012,28.0,0.04545449999999995,37.0,0.22727249999999977
24013,64.0,0.04545449999999995,50.0,0.1818179999999998
24014,59.0,0.06060599999999994,45.0,0.06060599999999994
24015,57.0,0.06060599999999994,38.0,0.06060599999999994
24016,55.0,0.06060599999999994,42.0,0.0909089999999999
24017,54.0,0.0909089999999999,38.0,0.2727270000000006
24018,35.0,0.04545449999999995,37.0,0.22727250000000065
24019,59.0,0.04545449999999995,50.0,0.1818180000000007
24020,54.0,0.06060599999999994,45.0,0.060606000000000826
24021,52.0,0.060606000000000826,38.0,0.06060599999999994
24022,48.0,0.06060599999999994,40.0,0.0909089999999999
24023,47.0,0.0909089999999999,38.0,0.2727269999999997
24024,28.0,0.04545449999999995,35.0,0.22727249999999977
24025,52.0,0.04545449999999995,50.0,0.1818179999999998
24026,47.0,0.06060599999999994,45.0,0.06060599999999994
24027,45.0,0.06060599999999994,36.0,0.06060599999999994
24028,43.0,0.06060599999999994,40.0,0.0909089999999999
24029,42.0,0.0909089999999999,37.0,0.2727269999999997
24030,23.0,0.04545449999999995,35.0,0.22727249999999977
24031,47.0,0.04545449999999995,50.0,0.1818179999999998
24032,42.0,0.06060599999999994,45.0,0.06060599999999994
24033,40.0,0.06060599999999994,36.0,0.06060599999999994
24034,38.0,0.06060599999999994,40.0,0.0909089999999999
24035,37.0,0.0909089999999999,38.0,0.0909089999999999
24036,35.0,0.0909089999999999,47.0,0.7780089999999991
24037,42.0,0.3921569999999992,55.0,0.7717039999999997
24038,17.0,0.2893889999999999,45.0,0.04823149999999998
24039,18.0,0.04823149999999998,45.0,0.03215433333333273
24040,37.0,0.04823149999999998,48.0,0.38585199999999986
24041,19.0,0.04823149999999998,45.0,0.04823149999999998
24042,18.0,0.04823149999999998,49.0,0.04823149999999998
24043,19.0,0.04823149999999998,51.0,0.04823149999999998
24044,18.0,0.04823149999999998,54.0,0.04823149999999998
24045,19.0,0.04823149999999998,56.0,0.04823149999999998
24046,18.0,0.04823149999999998,61.0,0.03215433333333273
24047,17.0,0.03215433333333273,61.0,0.032154333333334506
24048,18.0,0.032154333333334506,63.0,0.03215433333333273
24049,38.0,0.03215433333333273,66.0,0.27837729166666847
24050,40.0,0.29493358333333397,57.0,0.09988962499999943
24051,42.0,0.09988962499999943,63.0,0.7547169999999994
24052,47.0,0.7547169999999994,46.0,0.5172410000000003
24053,21.0,0.38793075000000066,25.0,0.48967024999999964
24054,28.0,0.06465512499999981,29.0,0.24483512499999982
24055,76.0,0.06465512499999981,45.0,0.18018
24056,71.0,0.06006,40.0,0.06006
24057,69.0,0.06006,36.0,0.06006
24058,65.0,0.06006,38.0,0.09009
24059,64.0,0.09009,36.0,0.27027
24060,33.0,0.045045,31.0,0.225225
24061,69.0,0.045045,45.0,0.18018
24062,64.0,0.06006,40.0,0.06006
24063,62.0,0.06006,36.0,0.06006
24064,60.0,0.06006,39.0,0.09009
24065,59.0,0.09009,36.0,0.27027
24066,28.0,0.045045,30.0,0.225225
24067,64.0,0.045045,45.0,0.18018
24068,59.0,0.06006,40.0,0.06006
24069,57.0,0.06006,36.0,0.06006
24070,53.0,0.06006,39.0,0.09009
24071,52.0,0.09009,35.0,0.27027
24072,33.0,0.045045,31.0,0.225225
24073,57.0,0.045045,45.0,0.18018
24074,52.0,0.06006,40.0,0.06006
24075,50.0,0.06006,35.0,0.06006
24076,48.0,0.06006,37.0,0.09009
24077,47.0,0.09009,36.0,0.2706777500000008
24078,28.0,0.045045,30.0,0.22563275000000083
24079,52.0,0.045045,45.0,0.18058775000000082
24080,47.0,0.06006,40.0,0.0601957500000001
24081,45.0,0.0601957500000001,34.0,0.06033200000000072
24082,41.0,0.06033200000000072,35.0,0.09077175000000004
24083,40.0,0.09077175000000004,30.0,0.09113941666666747
24084,45.0,0.09113941666666747,45.0,0.06097566666666587
24085,40.0,0.06097566666666587,40.0,0.06111541666666831
24086,38.0,0.06111541666666831,35.0,0.061302749999999406
24087,36.0,0.061302749999999406,37.0,0.0922133333333317
24088,35.0,0.0922133333333317,32.0,0.09259283333333457
24089,33.0,0.09259283333333457,44.0,1.150712249999998
24090,40.0,0.36036,45.0,0.790352249999998
24091,42.0,0.39205804166666525,56.0,0.39829420833333273
24092,39.0,0.39829420833333273,38.0,0.2889046249999989
24093,40.0,0.30614600000000003,38.0,0.10422841666666649
24094,42.0,0.10422841666666649,37.0,1.3280350000000016
24095,43.0,0.7947020000000009,35.0,0.5333330000000007
24096,28.0,0.399999750000001,30.0,0.5014312499999996
24097,35.0,0.06666662499999987,36.0,0.4347646249999997
24098,76.0,0.06666662499999987,50.0,0.3680979999999998
24099,72.0,0.06134966666666841,49.0,0.06134966666666486
24100,71.0,0.06134966666666486,40.0,0.06134966666666841
24101,67.0,0.06134966666666841,45.0,0.09202449999999729
24102,66.0,0.09202449999999729,39.0,0.09202450000000084
24103,71.0,0.09202450000000084,50.0,0.06134966666666841
24104,66.0,0.06134966666666841,45.0,0.06134966666666486
24105,64.0,0.06134966666666486,40.0,0.06134966666666841
24106,60.0,0.06134966666666841,44.0,0.09202449999999729
24107,59.0,0.09202449999999729,39.0,0.2760735000000025
24108,28.0,0.04601225000000042,37.0,0.2300612500000021
24109,64.0,0.04601225000000042,50.0,0.18404900000000168
24110,59.0,0.06134966666666841,44.0,0.06134966666666486
24111,57.0,0.06134966666666486,36.0,0.06134966666666841
24112,55.0,0.06134966666666841,42.0,0.09202449999999729
24113,54.0,0.09202449999999729,37.0,0.2760735000000025
24114,35.0,0.04601225000000042,36.0,0.2300612500000021
24115,59.0,0.04601225000000042,50.0,0.18404900000000168
24116,54.0,0.06134966666666841,45.0,0.06134966666666486
24117,52.0,0.06134966666666486,37.0,0.06134966666666841
24118,48.0,0.06134966666666841,40.0,0.09202449999999729
24119,47.0,0.09202449999999729,35.0,0.27720950000000144
24120,28.0,0.04601225000000042,36.0,0.23119725000000102
24121,51.0,1.0714289999999949,81.0,0.8035717500000032
24122,49.0,0.8035717500000032,76.0,0.2410715249999953
24123,66.0,0.2678572500000058,95.0,1.6071434999999923
24124,47.0,0.803571749999989,71.0,0.2410715250000095
24125,47.0,0.2678572500000058,68.0,0.8035717500000032
24126,57.0,0.8035717500000032,89.0,0.29411774999999807
24127,56.0,0.29411774999999807,102.0,1.0714289999999949
24128,56.0,1.0714289999999949,89.0,1.071429000000009
24129,58.0,0.8035717500000032,89.0,0.2678572500000058
24130,60.0,0.2678572500000058,93.0,1.0714289999999949
24131,61.0,0.803571749999989,93.0,0.2678572500000058
24132,63.0,0.2678572500000058,99.0,1.1985432500000144
24133,64.0,0.8438347500000134,102.0,0.1648351249999962
24134,49.0,0.1648351249999962,88.0,2.39170737500001
24135,55.0,0.06329112500000633,88.0,2.3284162500000036
24136,58.0,0.06329112499999212,88.0,2.2651251250000115
24137,64.0,0.06329112500000633,103.0,2.201834000000005
24138,46.0,1.1009169999999955,81.0,1.1009170000000097
24139,63.0,1.1009170000000097,90.0,1.1009169999999955
24140,32.0,1.1009169999999955,81.0,0.7407405000000011
24141,22.0,0.7407405000000011,61.0,0.10114737499999649
24142,23.0,0.10114737499999649,61.0,0.10472641666666505
24143,25.0,0.10472641666666505,61.0,0.1087117083333311
24144,47.0,0.1087117083333311,80.0,1.0668073333333297
24145,25.0,0.10416665625000121,56.0,0.1039542812499974
24146,23.0,0.1039542812499974,64.0,0.10289821874999916
24147,25.0,0.10289821874999916,57.0,0.10186321874999749
24148,23.0,0.10186321874999749,66.0,0.10084863541666778
24149,25.0,0.10084863541666778,59.0,0.0998538437499974
24150,23.0,0.0998538437499974,68.0,0.09887831249999124
24151,25.0,0.09887831249999124,61.0,0.0979214166666793
24152,23.0,0.0979214166666793,70.0,0.0968906770833371
24153,25.0,0.0968906770833371,65.0,0.09597276041667158
24154,23.0,0.09597276041667158,73.0,0.0950719062499843
24155,47.0,0.06355931249999003,80.0,1.0337038333333481
24156,25.0,0.03151259374999427,66.0,0.09418765625001413
24157,23.0,0.09418765625001413,72.0,0.09375
24158,25.0,0.09583333333333144,63.0,0.09429269375000615
24159,23.0,0.0921918541666713,69.0,0.09516092708332735
24160,25.0,0.09516092708332735,60.0,0.09821847500001013
24161,23.0,0.09606330208333702,66.0,0.1296851666666754
24162,25.0,0.1296851666666754,58.0,0.1311975833333321
24163,22.0,0.1311975833333321,64.0,0.1331384583333204
24164,23.0,0.1331384583333204,55.0,0.13473295833334475
24165,47.0,0.13473295833334475,80.0,1.1009169999999955
24166,28.0,1.1009169999999955,79.0,0.75
24167,19.0,0.75,61.0,0.10257087499999784
24168,20.0,0.10257087499999784,61.0,0.10582749999998953
24169,21.0,0.10582749999998953,61.0,0.109451291666673
24170,44.0,0.109451291666673,80.0,1.0668073333333297
24171,21.0,0.10416665625000121,56.0,0.1039542812499974
24172,20.0,0.1039542812499974,64.0,0.10289821874999916
24173,21.0,0.10289821874999916,57.0,0.10186321874999749
24174,20.0,0.10186321874999749,66.0,0.10084863541666778
24175,21.0,0.10084863541666778,59.0,0.0998538437499974
24176,20.0,0.0998538437499974,68.0,0.09887831249999124
24177,21.0,0.09887831249999124,61.0,0.0979214166666793
24178,20.0,0.0979214166666793,70.0,0.0968906770833371
24179,21.0,0.0968906770833371,65.0,0.09597276041667158
24180,20.0,0.09597276041667158,73.0,0.0950719062499843
24181,44.0,0.06355931249999003,80.0,1.0337038333333481
24182,21.0,0.03151259374999427,66.0,0.09418765625001413
24183,20.0,0.09418765625001413,72.0,0.09375
24184,21.0,0.09583333333333144,63.0,0.09429269375000615
24185,20.0,0.0921918541666713,69.0,0.09516092708332735
24186,21.0,0.09516092708332735,60.0,0.09821847500001013
24187,20.0,0.09606330208333702,66.0,0.1296851666666754
24188,21.0,0.1296851666666754,58.0,0.1311975833333321
24189,19.0,0.1311975833333321,64.0,0.1331384583333204
24190,20.0,0.1331384583333204,55.0,0.13473295833334475
24191,37.0,0.13473295833334475,80.0,2.2551899999999847
24192,20.0,1.1009169999999955,49.0,0.5660374999999931
24193,16.0,0.5660374999999931,40.0,0.5882354999999961
24194,37.0,0.5882354999999961,46.0,1.044386000000003
24195,37.0,1.044386000000003,46.0,1.0750759999999957
24196,37.0,0.8063070000000039,41.0,0.2687689999999918
24197,37.0,0.2687689999999918,46.0,1.067235999999994
24198,40.0,1.067235999999994,54.0,1.044386000000003
24199,39.0,0.7832894999999951,49.0,0.13054825000000392
24200,40.0,0.13054825000000392,45.0,0.13054825000000392
24201,39.0,0.13054825000000392,52.0,1.044386000000003
24202,37.0,0.7832894999999951,46.0,0.26109650000000784
24203,37.0,0.26109650000000784,50.0,1.0595090000000056
24204,37.0,0.7946317499999935,41.0,0.26487725000001205
24205,37.0,0.26487725000001205,46.0,1.0750759999999957
24206,40.0,1.0750759999999957,97.0,0.8063070000000039
24207,42.0,0.8063070000000039,97.0,0.26876900000000603
24208,44.0,0.26876900000000603,101.0,1.0750759999999957
24209,56.0,1.0750759999999957,93.0,0.8063070000000039
24210,57.0,0.8063070000000039,93.0,0.2687689999999918
24211,59.0,0.2687689999999918,97.0,0.8063070000000039
24212,61.0,0.8063070000000039,97.0,0.2687689999999918
24213,63.0,0.2687689999999918,105.0,0.8256877500000002
24214,64.0,0.8256877500000002,108.0,0.2752292499999953
24215,68.0,0.2752292499999953,109.0,3.750001499999996
24216,51.0,1.0714289999999949,85.0,0.8035717500000032
24217,49.0,0.8035717500000032,79.0,0.2678572500000058
24218,66.0,0.2678572500000058,99.0,1.6071434999999923
24219,47.0,0.803571749999989,73.0,0.2678572500000058
24220,47.0,0.2678572500000058,71.0,0.8035717500000032
24221,57.0,0.8035717500000032,89.0,0.29411774999999807
24222,56.0,0.29411774999999807,102.0,1.0714289999999949
24223,56.0,1.0714289999999949,89.0,1.071429000000009
24224,58.0,0.8035717500000032,89.0,0.2678572500000058
24225,60.0,0.2678572500000058,93.0,1.0714289999999949
24226,61.0,0.803571749999989,93.0,0.2678572500000058
24227,63.0,0.2678572500000058,99.0,1.1985432500000144
24228,64.0,0.8438347500000134,102.0,0.1648351249999962
24229,49.0,0.1648351249999962,88.0,2.39170737500001
24230,55.0,0.06329112500000633,88.0,2.3284162500000036
24231,58.0,0.06329112499999212,88.0,2.2651251250000115
24232,64.0,0.06329112500000633,103.0,2.201834000000005
24233,46.0,1.1009169999999955,81.0,1.1009170000000097
24234,63.0,1.1009170000000097,90.0,1.1009169999999955
24235,32.0,1.1009169999999955,81.0,0.7407405000000011
24236,22.0,0.7407405000000011,61.0,0.10114737499999649
24237,23.0,0.10114737499999649,61.0,0.10472641666666505
24238,25.0,0.10472641666666505,61.0,0.1087117083333311
24239,47.0,0.1087117083333311,80.0,1.0668073333333297
24240,25.0,0.10416665625000121,56.0,0.1039542812499974
24241,23.0,0.1039542812499974,64.0,0.10289821874999916
24242,25.0,0.10289821874999916,57.0,0.10186321874999749
24243,23.0,0.10186321874999749,66.0,0.10084863541666778
24244,25.0,0.10084863541666778,59.0,0.0998538437499974
24245,23.0,0.0998538437499974,68.0,0.09887831249999124
24246,25.0,0.09887831249999124,61.0,0.0979214166666793
24247,23.0,0.0979214166666793,70.0,0.0968906770833371
24248,25.0,0.0968906770833371,65.0,0.09597276041667158
24249,23.0,0.09597276041667158,73.0,0.0950719062499843
24250,47.0,0.06355931249999003,80.0,1.0337038333333481
24251,25.0,0.03151259374999427,66.0,0.09418765625001413
24252,23.0,0.09418765625001413,72.0,0.09375
24253,25.0,0.09583333333333144,63.0,0.09429269375000615
24254,23.0,0.0921918541666713,69.0,0.09516092708332735
24255,25.0,0.09516092708332735,60.0,0.09821847500001013
24256,23.0,0.09606330208333702,66.0,0.1296851666666754
24257,25.0,0.1296851666666754,58.0,0.1311975833333321
24258,22.0,0.1311975833333321,64.0,0.1331384583333204
24259,23.0,0.1331384583333204,55.0,0.13473295833334475
24260,47.0,0.13473295833334475,80.0,1.1009169999999955
24261,28.0,1.1009169999999955,68.0,0.75
24262,19.0,0.75,61.0,0.10257087499999784
24263,20.0,0.10257087499999784,61.0,0.10582749999998953
24264,21.0,0.10582749999998953,61.0,0.109451291666673
24265,44.0,0.109451291666673,80.0,1.0668073333333297
24266,21.0,0.10416665625000121,56.0,0.1039542812499974
24267,20.0,0.1039542812499974,64.0,0.10289821874999916
24268,21.0,0.10289821874999916,57.0,0.10186321874999749
24269,20.0,0.10186321874999749,66.0,0.10084863541666778
24270,21.0,0.10084863541666778,59.0,0.0998538437499974
24271,20.0,0.0998538437499974,68.0,0.09887831249999124
24272,21.0,0.09887831249999124,61.0,0.0979214166666793
24273,20.0,0.0979214166666793,70.0,0.0968906770833371
24274,21.0,0.0968906770833371,65.0,0.09597276041667158
24275,20.0,0.09597276041667158,73.0,0.0950719062499843
24276,44.0,0.06355931249999003,80.0,1.0337038333333481
24277,21.0,0.03151259374999427,66.0,0.09418765625001413
24278,20.0,0.09418765625001413,72.0,0.09375
24279,21.0,0.09583333333333144,63.0,0.09429269375000615
24280,20.0,0.0921918541666713,69.0,0.09516092708332735
24281,21.0,0.09516092708332735,60.0,0.09821847500001013
24282,20.0,0.09606330208333702,66.0,0.1296851666666754
24283,21.0,0.1296851666666754,58.0,0.1311975833333321
24284,19.0,0.1311975833333321,64.0,0.1331384583333204
24285,20.0,0.1331384583333204,55.0,0.13473295833334475
24286,37.0,0.13473295833334475,80.0,2.2551899999999847
24287,20.0,1.1009169999999955,51.0,0.5660374999999931
24288,16.0,0.5660374999999931,39.0,0.5882354999999961
24289,37.0,0.5882354999999961,46.0,1.044386000000003
24290,37.0,1.044386000000003,46.0,1.0750759999999957
24291,37.0,0.8063070000000039,41.0,0.2687689999999918
24292,37.0,0.2687689999999918,46.0,1.067235999999994
24293,40.0,1.067235999999994,54.0,1.044386000000003
24294,39.0,0.7832894999999951,49.0,0.13054825000000392
24295,40.0,0.13054825000000392,45.0,0.13054825000000392
24296,39.0,0.13054825000000392,52.0,1.044386000000003
24297,37.0,0.7832894999999951,46.0,0.26109650000000784
24298,37.0,0.26109650000000784,50.0,1.0595090000000056
24299,37.0,0.7946317499999935,41.0,0.26487725000001205
24300,37.0,0.26487725000001205,46.0,1.0750759999999957
24301,23.0,1.0750759999999957,39.0,1.07507600000001
24302,56.0,1.07507600000001,54.0,1.97962050000001
24303,23.0,0.5114220000000103,27.0,0.4837929999999915
24304,32.0,0.4837929999999915,27.0,0.48796350000000643
24305,40.0,0.48796350000000643,28.0,0.4964420000000018
24306,57.0,0.4964420000000018,50.0,0.4964420000000018
24307,56.0,0.4964420000000018,46.0,0.47573750000000814
24308,54.0,0.47573750000000814,50.0,0.4757374999999797
24309,52.0,0.4757374999999797,46.0,0.49212600000001316
24310,51.0,0.49212600000001316,50.0,0.9953464999999824
24311,23.0,0.49212599999998474,27.0,0.5032204999999976
24312,61.0,0.5032204999999976,54.0,0.9842519999999979
24313,39.0,0.49212600000001316,24.0,0.49212599999998474
24314,59.0,0.49212599999998474,52.0,1.9591420000000141
24315,23.0,0.49212600000001316,24.0,0.4797695000000033
24316,33.0,0.4797695000000033,27.0,0.4797695000000033
24317,39.0,0.4797695000000033,25.0,0.5074769999999944
24318,57.0,0.5074769999999944,51.0,1.9693960000000175
24319,23.0,0.5096839999999929,29.0,0.4837929999999915
24320,33.0,0.4837929999999915,29.0,0.4837930000000199
24321,39.0,0.4837930000000199,30.0,0.49212600000001316
24322,59.0,0.49212600000001316,50.0,0.49212599999998474
24323,57.0,0.49212599999998474,46.0,0.47573750000000814
24324,56.0,0.47573750000000814,50.0,0.4757374999999797
24325,54.0,0.4757374999999797,46.0,0.4964420000000018
24326,52.0,0.4964420000000018,50.0,0.9928840000000037
24327,23.0,0.4964420000000018,30.0,0.4964420000000018
24328,64.0,0.4964420000000018,53.0,1.006534500000015
24329,40.0,0.4964420000000018,25.0,0.5100925000000132
24330,59.0,0.5100925000000132,49.0,1.9641724999999894
24331,23.0,0.5074769999999944,27.0,0.47573750000000814
24332,32.0,0.47573750000000814,29.0,0.4757374999999797
24333,40.0,0.4757374999999797,27.0,0.5052205000000072
24334,56.0,0.5052205000000072,52.0,1.9561475000000144
24335,23.0,0.49212600000001316,27.0,0.4797695000000033
24336,32.0,0.4797695000000033,30.0,0.49212600000001316
24337,40.0,0.49212600000001316,28.0,0.49212599999998474
24338,57.0,0.49212599999998474,51.0,0.4797695000000033
24339,56.0,0.4797695000000033,46.0,0.4797695000000033
24340,54.0,0.4797695000000033,50.0,0.4797695000000033
24341,53.0,0.4797695000000033,46.0,0.47031824999999117
24342,54.0,0.2692997499999876,46.0,0.10050924999998756
24343,56.0,0.10050924999998756,42.0,0.10050925000001598
24344,54.0,0.10050925000001598,53.0,0.46924416666664115
24345,53.0,0.46924416666664115,51.0,0.4679455000000132
24346,54.0,0.4679455000000132,54.0,0.4679455000000132
24347,56.0,0.4679455000000132,55.0,0.47573750000000814
24348,57.0,0.47573750000000814,57.0,0.4757374999999797
24349,49.0,0.4757374999999797,52.0,0.47573750000000814
24350,56.0,0.47573750000000814,57.0,0.4964420000000018
24351,54.0,0.4964420000000018,50.0,0.2912622499999884
24352,51.0,0.2912622499999884,39.0,0.10266937500000495
24353,52.0,0.10266937500000495,39.0,0.09924706249998394
24354,52.0,0.10266937500000495,39.0,0.4978771666666546
24355,54.0,0.09389081250000686,36.0,0.09389081250000686
24356,52.0,0.09389081250000686,40.0,0.09362149999998337
24357,54.0,0.09362149999998337,37.0,0.09308287499999324
24358,52.0,0.09308287499999324,42.0,0.09263329166665812
24359,54.0,0.09263329166665812,38.0,0.09227362500001846
24360,31.0,0.030757875000006152,28.0,0.48590141666664977
24361,52.0,0.061515750000012304,44.0,0.09166659374997721
24362,54.0,0.09166659374997721,39.0,0.09149315625001009
24363,52.0,0.09149315625001009,46.0,0.09071118750000551
24364,54.0,0.09071118750000551,42.0,0.0905435416666478
24365,52.0,0.0905435416666478,48.0,0.0899567812500095
24366,40.0,0.05997118749999686,28.0,0.4831931666666378
24367,54.0,0.02998559375001264,42.0,0.08962078124997674
24368,52.0,0.08962078124997674,47.0,0.08962078125000517
24369,54.0,0.09161982083332987,40.0,0.09047648333333314
24370,52.0,0.08846067916667266,44.0,0.09131938541665363
24371,54.0,0.09131938541665363,38.0,0.09425541458332987
24372,52.0,0.09218690624999226,42.0,0.5355951250000146
24373,54.0,0.12557308333333594,37.0,0.1326117083333429
24374,51.0,0.1326117083333429,40.0,0.14135116666668068
24375,52.0,0.14135116666668068,35.0,0.13605916666665507
24376,61.0,0.13605916666665507,54.0,0.49212600000001316
24377,59.0,0.49212600000001316,50.0,0.49212599999998474
24378,57.0,0.49212599999998474,52.0,0.5052205000000072
24379,47.0,0.5052205000000072,50.0,0.5052204999999788
24380,54.0,0.5052204999999788,54.0,2.0077875000000063
24381,23.0,0.5052205000000072,27.0,0.49212600000001316
24382,33.0,0.49212600000001316,27.0,0.5052205000000072
24383,39.0,0.5052205000000072,26.0,0.5052204999999788
24384,52.0,0.5052204999999788,50.0,1.0104410000000144
24385,23.0,0.5052205000000072,28.0,0.5052205000000072
24386,32.0,0.5052205000000072,28.0,0.5052205000000072
24387,40.0,0.5052205000000072,28.0,0.5385995000000037
24388,56.0,0.5385995000000037,54.0,1.9825135000000103
24389,23.0,0.5143150000000105,27.0,0.4837929999999915
24390,32.0,0.4837929999999915,27.0,0.48796350000000643
24391,40.0,0.48796350000000643,28.0,0.4964420000000018
24392,57.0,0.4964420000000018,50.0,0.4964420000000018
24393,56.0,0.4964420000000018,46.0,0.47573750000000814
24394,54.0,0.47573750000000814,50.0,0.4757374999999797
24395,52.0,0.4757374999999797,46.0,0.49212600000001316
24396,51.0,0.49212600000001316,50.0,0.9953464999999824
24397,23.0,0.49212599999998474,27.0,0.5032204999999976
24398,61.0,0.5032204999999976,54.0,0.9842519999999979
24399,39.0,0.49212600000001316,24.0,0.49212599999998474
24400,59.0,0.49212599999998474,52.0,1.9591420000000141
24401,23.0,0.49212600000001316,24.0,0.4797695000000033
24402,33.0,0.4797695000000033,27.0,0.4797695000000033
24403,39.0,0.4797695000000033,25.0,0.5074769999999944
24404,57.0,0.5074769999999944,51.0,1.9693960000000175
24405,23.0,0.5096839999999929,29.0,0.4837929999999915
24406,33.0,0.4837929999999915,29.0,0.4837930000000199
24407,39.0,0.4837930000000199,30.0,0.49212600000001316
24408,52.0,0.06099543750002567,59.0,0.7319452499999954
24409,43.0,0.487963499999978,34.0,0.48796350000000643
24410,51.0,0.24398175000001743,56.0,0.243981749999989
24411,51.0,0.243981749999989,50.0,0.9759270000000129
24412,27.0,0.48796350000000643,32.0,0.48796350000000643
24413,56.0,0.48796350000000643,55.0,0.9822219166666457
24414,44.0,0.4886572499999886,31.0,0.4935646666666571
24415,57.0,0.4935646666666571,54.0,1.022118583333338
24416,30.0,0.5063379999999995,33.0,0.5157805833333384
24417,47.0,0.5157805833333384,46.0,1.1273814999999843
24418,45.0,0.5504584999999906,26.0,0.5769229999999936
24419,56.0,0.5769229999999936,54.0,1.9929481666666788
24420,23.0,0.5247496666666791,27.0,0.4837929999999915
24421,32.0,0.4837929999999915,27.0,0.48796350000000643
24422,40.0,0.48796350000000643,28.0,0.4964420000000018
24423,57.0,0.4964420000000018,50.0,0.4964420000000018
24424,56.0,0.4964420000000018,46.0,0.47573750000000814
24425,54.0,0.47573750000000814,50.0,0.4757374999999797
24426,52.0,0.4757374999999797,46.0,0.49212600000001316
24427,51.0,0.49212600000001316,50.0,0.9953464999999824
24428,23.0,0.49212599999998474,27.0,0.5032204999999976
24429,61.0,0.5032204999999976,54.0,0.9842519999999979
24430,39.0,0.49212600000001316,24.0,0.49212599999998474
24431,59.0,0.49212599999998474,52.0,1.9591420000000141
24432,23.0,0.49212600000001316,24.0,0.4797695000000033
24433,33.0,0.4797695000000033,27.0,0.4797695000000033
24434,39.0,0.4797695000000033,25.0,0.5074769999999944
24435,57.0,0.5074769999999944,51.0,1.9693960000000175
24436,23.0,0.5096839999999929,29.0,0.4837929999999915
24437,33.0,0.4837929999999915,29.0,0.4837930000000199
24438,39.0,0.4837930000000199,30.0,0.49212600000001316
24439,59.0,0.49212600000001316,50.0,0.49212599999998474
24440,57.0,0.49212599999998474,46.0,0.47573750000000814
24441,56.0,0.47573750000000814,50.0,0.4757374999999797
24442,54.0,0.4757374999999797,46.0,0.4964420000000018
24443,52.0,0.4964420000000018,50.0,0.9928840000000037
24444,23.0,0.4964420000000018,30.0,0.4964420000000018
24445,64.0,0.4964420000000018,53.0,1.006534500000015
24446,40.0,0.4964420000000018,25.0,0.5100925000000132
24447,59.0,0.5100925000000132,49.0,1.9641724999999894
24448,23.0,0.5074769999999944,27.0,0.47573750000000814
24449,32.0,0.47573750000000814,29.0,0.4757374999999797
24450,40.0,0.4757374999999797,27.0,0.5052205000000072
24451,56.0,0.5052205000000072,52.0,1.9561475000000144
24452,23.0,0.49212600000001316,27.0,0.4797695000000033
24453,32.0,0.4797695000000033,30.0,0.49212600000001316
24454,40.0,0.49212600000001316,28.0,0.49212599999998474
24455,57.0,0.49212599999998474,51.0,0.4797695000000033
24456,56.0,0.4797695000000033,46.0,0.4797695000000033
24457,54.0,0.4797695000000033,50.0,0.4797695000000033
24458,53.0,0.4797695000000033,46.0,0.47031824999999117
24459,54.0,0.2692997499999876,46.0,0.10050924999998756
24460,56.0,0.10050924999998756,42.0,0.10050925000001598
24461,54.0,0.10050925000001598,53.0,0.46924416666664115
24462,53.0,0.46924416666664115,51.0,0.4679455000000132
24463,54.0,0.4679455000000132,54.0,0.4679455000000132
24464,56.0,0.4679455000000132,55.0,0.47573750000000814
24465,57.0,0.47573750000000814,57.0,0.4757374999999797
24466,49.0,0.4757374999999797,52.0,0.47573750000000814
24467,56.0,0.47573750000000814,57.0,0.4964420000000018
24468,54.0,0.4964420000000018,50.0,0.2912622499999884
24469,51.0,0.2912622499999884,39.0,0.10266937500000495
24470,52.0,0.10266937500000495,39.0,0.10266937500000495
24471,52.0,0.10266937500000495,39.0,0.4978771666666546
24472,54.0,0.09389081250000686,36.0,0.09389081250000686
24473,52.0,0.09389081250000686,40.0,0.09362149999998337
24474,54.0,0.09362149999998337,37.0,0.09308287499999324
24475,52.0,0.09308287499999324,42.0,0.09263329166665812
24476,54.0,0.09263329166665812,38.0,0.09227362500001846
24477,31.0,0.030757875000006152,28.0,0.48590141666664977
24478,52.0,0.061515750000012304,44.0,0.09166659374997721
24479,54.0,0.09166659374997721,39.0,0.09149315625001009
24480,52.0,0.09149315625001009,46.0,0.09071118750000551
24481,54.0,0.09071118750000551,42.0,0.0905435416666478
24482,52.0,0.0905435416666478,48.0,0.0899567812500095
24483,40.0,0.05997118749999686,28.0,0.4831931666666378
24484,54.0,0.02998559375001264,42.0,0.08962078124997674
24485,52.0,0.08962078124997674,47.0,0.08962078125000517
24486,54.0,0.09161982083332987,40.0,0.09047648333333314
24487,52.0,0.08846067916667266,44.0,0.09131938541665363
24488,54.0,0.09131938541665363,38.0,0.09425541458332987
24489,52.0,0.09218690624999226,42.0,0.5355951250000146
24490,54.0,0.12557308333333594,37.0,0.1326117083333429
24491,51.0,0.1326117083333429,40.0,0.14135116666668068
24492,52.0,0.14135116666668068,35.0,0.13605916666665507
24493,61.0,0.13605916666665507,54.0,0.49212600000001316
24494,59.0,0.49212600000001316,50.0,0.49212599999998474
24495,57.0,0.49212599999998474,52.0,0.5052205000000072
24496,47.0,0.5052205000000072,50.0,0.5052204999999788
24497,54.0,0.5052204999999788,54.0,2.0077875000000063
24498,23.0,0.5052205000000072,27.0,0.49212600000001316
24499,33.0,0.49212600000001316,27.0,0.5052205000000072
24500,39.0,0.5052205000000072,26.0,0.5052204999999788
24501,52.0,0.5052204999999788,45.0,1.0104410000000144
24502,23.0,0.5052205000000072,25.0,0.5052205000000072
24503,32.0,0.5052205000000072,25.0,0.5052205000000072
24504,40.0,0.5052205000000072,25.0,0.5385995000000037
24505,51.0,0.5385995000000037,56.0,1.9825135000000103
24506,23.0,0.5143150000000105,28.0,0.4837929999999915
24507,30.0,0.4837929999999915,28.0,0.48796350000000643
24508,39.0,0.48796350000000643,29.0,0.4964420000000018
24509,52.0,0.4964420000000018,52.0,0.4964419999999734
24510,51.0,0.4964419999999734,48.0,0.4757374999999797
24511,49.0,0.4757374999999797,52.0,0.47573750000003656
24512,47.0,0.47573750000003656,48.0,0.49212599999998474
24513,46.0,0.49212599999998474,52.0,0.9953465000000392
24514,25.0,0.4921260000000416,28.0,0.5032204999999976
24515,56.0,0.5032204999999976,56.0,0.9842520000000263
24516,40.0,0.49212599999998474,25.0,0.4921260000000416
24517,54.0,0.4921260000000416,54.0,1.9591419999999857
24518,25.0,0.49212599999998474,25.0,0.47976949999997487
24519,30.0,0.47976949999997487,28.0,0.4797695000000317
24520,40.0,0.4797695000000317,26.0,0.5074769999999944
24521,52.0,0.5074769999999944,55.0,1.9693959999999606
24522,25.0,0.5096839999999929,31.0,0.4837929999999915
24523,31.0,0.4837929999999915,31.0,0.4837929999999915
24524,40.0,0.4837929999999915,33.0,0.49212599999998474
24525,54.0,0.49212599999998474,55.0,0.4921260000000416
24526,52.0,0.4921260000000416,50.0,0.46287258333330783
24527,51.0,0.46287258333330783,55.0,0.4757374999999797
24528,49.0,0.4757374999999797,51.0,0.4964420000000018
24529,48.0,0.4964420000000018,55.0,0.9723260833333143
24530,27.0,0.4964420000000018,33.0,0.47588408333331245
24531,57.0,0.47588408333331245,59.0,1.0065344999999866
24532,42.0,0.4964420000000018,28.0,0.5100924999999847
24533,56.0,0.5100924999999847,55.0,1.9641725000000179
24534,27.0,0.5074769999999944,30.0,0.4757374999999797
24535,30.0,0.4757374999999797,33.0,0.47573750000003656
24536,42.0,0.47573750000003656,30.0,0.5052205000000072
24537,56.0,0.5052205000000072,59.0,1.939758999999924
24538,28.0,0.49212599999998474,31.0,0.47976949999997487
24539,37.0,0.47976949999997487,34.0,0.4757374999999797
24540,44.0,0.4757374999999797,32.0,0.49212599999998474
24541,57.0,0.49212599999998474,58.0,0.47976949999997487
24542,56.0,0.47976949999997487,52.0,0.4797695000000317
24543,54.0,0.4797695000000317,57.0,0.47976949999997487
24544,52.0,0.47976949999997487,52.0,0.49212599999998474
24545,52.0,0.49212599999998474,59.0,0.9562350000000492
24546,30.0,0.4921260000000416,35.0,0.46410900000000765
24547,51.0,0.46410900000000765,57.0,0.9595390000000066
24548,45.0,0.47976949999997487,33.0,0.4797695000000317
24549,20.0,0.4797695000000317,41.0,0.47976949999997487
24550,51.0,0.47976949999997487,56.0,0.4797695000000317
24551,54.0,0.41979831250000643,55.0,0.05997118750002528
24552,52.0,0.05997118750002528,59.0,0.7258324999999672
24553,44.0,0.47976949999997487,35.0,0.49212599999998474
24554,51.0,0.24606299999999237,58.0,0.23170932499999708
24555,51.0,0.24606299999999237,59.0,0.9562350000000492
24556,30.0,0.4921260000000416,34.0,0.46410900000000765
24557,49.0,0.46410900000000765,56.0,0.9559089999999628
24558,42.0,0.487963499999978,33.0,0.4679454999999848
24559,21.0,0.4679454999999848,38.0,0.487963499999978
24560,51.0,0.487963499999978,56.0,0.48796350000003486
24561,54.0,0.4269680625000092,59.0,0.06099543750002567
24562,52.0,0.06099543750002567,59.0,0.731945249999967
24563,43.0,0.487963499999978,34.0,0.48796350000003486
24564,51.0,0.243981749999989,56.0,0.22974948124999628
24565,51.0,0.24398175000004585,50.0,0.975926999999956
24566,27.0,0.487963499999978,32.0,0.487963499999978
24567,56.0,0.487963499999978,55.0,0.9822219166666741
24568,44.0,0.48865725000001703,31.0,0.4935646666666571
24569,57.0,0.4935646666666571,54.0,1.022118583333338
24570,30.0,0.5063380000000279,33.0,0.51578058333331
24571,47.0,0.51578058333331,45.0,1.1273815000000127
24572,45.0,0.5504584999999906,26.0,0.5769230000000221
24573,56.0,0.5769230000000221,54.0,1.992948166666622
24574,23.0,0.5247496666666507,27.0,0.4837929999999915
24575,32.0,0.4837929999999915,27.0,0.487963499999978
24576,40.0,0.487963499999978,28.0,0.4964420000000018
24577,57.0,0.4964420000000018,50.0,0.4964420000000018
24578,56.0,0.4964420000000018,46.0,0.4757374999999797
24579,54.0,0.4757374999999797,50.0,0.47573750000003656
24580,52.0,0.47573750000003656,46.0,0.49212599999998474
24581,51.0,0.49212599999998474,50.0,0.9953465000000392
24582,23.0,0.4921260000000416,27.0,0.5032204999999976
24583,61.0,0.5032204999999976,54.0,0.9842520000000263
24584,39.0,0.49212599999998474,24.0,0.4921260000000416
24585,59.0,0.4921260000000416,52.0,1.9591419999999857
24586,23.0,0.49212599999998474,24.0,0.47976949999997487
24587,33.0,0.47976949999997487,27.0,0.4797695000000317
24588,39.0,0.4797695000000317,25.0,0.5074769999999944
24589,57.0,0.5074769999999944,51.0,1.9693959999999606
24590,23.0,0.5096839999999929,29.0,0.4837929999999915
24591,33.0,0.4837929999999915,29.0,0.4837929999999915
24592,39.0,0.4837929999999915,30.0,0.49212599999998474
24593,59.0,0.49212599999998474,50.0,0.4921260000000416
24594,57.0,0.4921260000000416,46.0,0.4757374999999797
24595,56.0,0.4757374999999797,50.0,0.47573750000003656
24596,54.0,0.47573750000003656,46.0,0.4964420000000018
24597,52.0,0.4964420000000018,50.0,0.9928840000000037
24598,23.0,0.4964420000000018,30.0,0.4964420000000018
24599,64.0,0.4964420000000018,53.0,1.0065344999999866
24600,40.0,0.4964420000000018,25.0,0.5100924999999847
24601,59.0,0.5100924999999847,49.0,1.9641725000000179
24602,23.0,0.5074769999999944,27.0,0.4757374999999797
24603,32.0,0.4757374999999797,29.0,0.47573750000003656
24604,40.0,0.47573750000003656,27.0,0.5052205000000072
24605,56.0,0.5052205000000072,52.0,1.956147499999986
24606,23.0,0.49212599999998474,27.0,0.47976949999997487
24607,32.0,0.47976949999997487,30.0,0.49212599999998474
24608,40.0,0.49212599999998474,28.0,0.4921260000000416
24609,57.0,0.4921260000000416,51.0,0.47976949999997487
24610,56.0,0.47976949999997487,46.0,0.4797695000000317
24611,54.0,0.4797695000000317,50.0,0.47976949999997487
24612,53.0,0.47976949999997487,46.0,0.47031824999999117
24613,54.0,0.26929975000001605,46.0,0.10050925000001598
24614,56.0,0.10050925000001598,42.0,0.10050924999995914
24615,54.0,0.10050924999995914,53.0,0.46924416666666957
24616,53.0,0.46924416666666957,51.0,0.4679454999999848
24617,54.0,0.4679454999999848,54.0,0.4679454999999848
24618,56.0,0.4679454999999848,55.0,0.4757374999999797
24619,57.0,0.4757374999999797,57.0,0.47573750000003656
24620,49.0,0.47573750000003656,52.0,0.4757374999999797
24621,56.0,0.4757374999999797,57.0,0.4964420000000018
24622,54.0,0.4964420000000018,50.0,0.2912622499999884
24623,51.0,0.2912622499999884,39.0,0.10266937500000495
24624,52.0,0.10266937500000495,39.0,0.10266937500000495
24625,52.0,0.10266937500000495,39.0,0.497877166666683
24626,54.0,0.09389081249997844,36.0,0.09389081250003528
24627,52.0,0.09389081250003528,40.0,0.09362149999998337
24628,54.0,0.09362149999998337,37.0,0.09308287499999324
24629,52.0,0.09308287499999324,42.0,0.09263329166668655
24630,54.0,0.09263329166668655,38.0,0.09227362500001846
24631,31.0,0.030757875000006152,28.0,0.48590141666664977
24632,52.0,0.061515750000012304,44.0,0.09166659375000563
24633,54.0,0.09166659375000563,39.0,0.09149315624995324
24634,52.0,0.09149315624995324,46.0,0.09071118750000551
24635,54.0,0.09071118750000551,42.0,0.09054354166670464
24636,52.0,0.09054354166670464,48.0,0.08995678124995266
24637,40.0,0.05997118749996844,28.0,0.4831931666666378
24638,54.0,0.02998559374998422,42.0,0.08962078125000517
24639,52.0,0.08962078125000517,47.0,0.08962078125000517
24640,54.0,0.09161982083332987,40.0,0.09047648333330471
24641,52.0,0.08846067916664424,44.0,0.09131938541668205
24642,54.0,0.09131938541668205,38.0,0.09425541458330144
24643,52.0,0.09218690624999226,42.0,0.535595125000043
24644,54.0,0.12557308333333594,37.0,0.1326117083333429
24645,51.0,0.1326117083333429,40.0,0.1413511666667091
24646,52.0,0.1413511666667091,35.0,0.13605916666665507
24647,61.0,0.13605916666665507,54.0,0.49212599999998474
24648,59.0,0.49212599999998474,50.0,0.4921260000000416
24649,57.0,0.4921260000000416,52.0,0.5052205000000072
24650,47.0,0.5052205000000072,50.0,0.5052205000000072
24651,54.0,0.5052205000000072,54.0,2.054976999999951
24652,23.0,0.5052205000000072,27.0,0.49212599999998474
24653,33.0,0.49212599999998474,27.0,0.519030999999984
24654,39.0,0.519030999999984,23.0,0.5385994999999753
24655,52.0,0.5385994999999753,45.0,1.0771990000000073
24656,37.0,2.1543980000000147,40.0,1.0443859999999745
24657,37.0,1.0443859999999745,40.0,1.0830320000000029
24658,37.0,0.8122740000000022,36.0,0.24368220000002339
24659,37.0,0.2707580000000007,40.0,2.158108000000027
24660,28.0,1.0750760000000241,28.0,1.0830320000000029
24661,37.0,1.0830320000000029,40.0,1.0443859999999745
24662,37.0,1.0443859999999745,40.0,1.0911070000000223
24663,37.0,0.8183302499999741,36.0,0.2454990749999979
24664,37.0,0.2727767500000482,40.0,2.1501519999999914
24665,33.0,1.0750760000000241,28.0,1.0750759999999673
24666,37.0,1.0750759999999673,40.0,1.0443859999999745
24667,37.0,1.0443859999999745,40.0,1.0750760000000241
24668,37.0,0.8063070000000039,36.0,0.24189209999997274
24669,37.0,0.26876900000002024,40.0,1.0672359999999799
24670,40.0,1.0672359999999799,49.0,1.0443859999999745
24671,39.0,0.7832895000000235,45.0,0.23498684999998432
24672,39.0,0.261096499999951,48.0,1.0443860000000313
24673,37.0,0.7832895000000235,42.0,0.23498684999998432
24674,37.0,0.26109650000000784,44.0,1.0595089999999914
24675,37.0,0.7946317500000077,36.0,0.23838952500000232
24676,37.0,0.26487724999998363,40.0,2.1501519999999914
24677,33.0,1.0750760000000241,28.0,1.0750759999999673
24678,40.0,1.0750759999999673,50.0,1.0443859999999745
24679,40.0,1.0443859999999745,50.0,1.0750760000000241
24680,40.0,0.8063070000000039,45.0,0.24189209999997274
24681,40.0,0.26876900000002024,50.0,1.036986000000013
24682,44.0,1.036986000000013,59.0,1.0711403333333465
24683,42.0,0.8033552500000383,53.0,0.13723683333330428
24684,44.0,0.13723683333330428,48.0,0.13054825000000392
24685,42.0,0.13054825000000392,57.0,1.0443860000000313
24686,40.0,0.7832895000000235,50.0,0.23498684999998432
24687,40.0,0.26109650000000784,55.0,1.0595089999999914
24688,40.0,0.7946317500000077,45.0,0.23838952500000232
24689,40.0,0.26487724999998363,50.0,2.1660640000000058
24690,33.0,1.0830320000000029,35.0,1.0830320000000029
24691,49.0,1.0830320000000029,73.0,0.9369327499999827
24692,47.0,0.4800000000000182,67.0,0.3308823749999874
24693,47.0,0.3308823749999874,58.0,0.12605037499997707
24694,45.0,0.12605037499997707,61.0,1.0187223333333577
24695,20.0,0.09418765625002834,72.0,0.09375
24696,21.0,0.09583333333330302,63.0,0.09429269375004878
24697,20.0,0.09219185416668552,69.0,0.09516092708332735
24698,21.0,0.09516092708332735,60.0,0.09821847500006697
24699,20.0,0.09606330208339386,66.0,0.1296851666666612
24700,21.0,0.1296851666666612,58.0,0.13119758333328946
24701,19.0,0.13119758333328946,64.0,0.1331384583333488
24702,20.0,0.1331384583333488,55.0,0.13473295833330212
24703,37.0,0.13473295833330212,80.0,2.2551899999999705
24704,20.0,1.1009169999999813,49.0,0.5660374999999931
24705,16.0,0.5660374999999931,39.0,0.5882354999999961
24706,37.0,0.5882354999999961,46.0,1.0443859999999745
24707,37.0,1.0443859999999745,46.0,1.0750760000000241
24708,37.0,0.8063070000000039,41.0,0.24189209999997274
24709,37.0,0.26876900000002024,46.0,1.0672359999999799
24710,40.0,1.0672359999999799,54.0,1.0443859999999745
24711,39.0,0.7832895000000235,49.0,0.13054825000000392
24712,40.0,0.13054825000000392,45.0,0.13054824999994707
24713,39.0,0.13054824999994707,52.0,1.0443860000000313
24714,37.0,0.7832895000000235,46.0,0.26109650000000784
24715,37.0,0.26109650000000784,50.0,1.0595089999999914
24716,37.0,0.7946317500000077,41.0,0.23838952500000232
24717,37.0,0.26487724999998363,46.0,1.0750760000000241
24718,40.0,1.0750760000000241,97.0,0.8063070000000039
24719,42.0,0.8063070000000039,97.0,0.2687689999999634
24720,44.0,0.2687689999999634,101.0,1.0750760000000241
24721,56.0,1.0750760000000241,89.0,0.8063070000000039
24722,57.0,0.8063070000000039,89.0,0.2687689999999634
24723,59.0,0.2687689999999634,93.0,0.8063070000000039
24724,61.0,0.8063070000000039,93.0,0.26876900000002024
24725,63.0,0.26876900000002024,100.0,0.825687749999986
24726,64.0,0.825687749999986,103.0,0.2752292499999953
24727,68.0,0.2752292499999953,104.0,3.750001499999996
24728,51.0,1.0714290000000233,81.0,0.8035717500000032
24729,49.0,0.8035717500000032,76.0,0.2410715249999953
24730,66.0,0.2678572499999632,95.0,1.6071435000000065
24731,47.0,0.8035717500000032,70.0,0.2410715249999953
24732,47.0,0.26785725000002003,68.0,0.8035717500000032
24733,57.0,0.8035717500000032,85.0,0.29411774999999807
24734,56.0,0.29411774999999807,98.0,1.0714290000000233
24735,56.0,1.0714290000000233,89.0,1.0714289999999664
24736,58.0,0.8035717500000032,89.0,0.2678572499999632
24737,60.0,0.2678572499999632,93.0,1.0714290000000233
24738,61.0,0.8035717500000032,93.0,0.26785725000002003
24739,63.0,0.26785725000002003,99.0,1.1985432500000002
24740,64.0,0.843834749999985,102.0,0.16483512500002462
24741,49.0,0.16483512500002462,88.0,2.39170737500001
24742,55.0,0.06329112499997791,88.0,2.328416250000032
24743,58.0,0.06329112500003475,88.0,2.2651251249999973
24744,64.0,0.06329112499997791,103.0,2.2018340000000194
24745,46.0,1.1009169999999813,81.0,1.1009170000000381
24746,63.0,1.1009170000000381,90.0,1.1009169999999813
24747,32.0,1.1009169999999813,81.0,0.7407405000000153
24748,22.0,0.7407405000000153,61.0,0.10114737499998228
24749,23.0,0.10114737499998228,61.0,0.10472641666666505
24750,25.0,0.10472641666666505,61.0,0.10871170833331689
24751,47.0,0.10871170833331689,80.0,1.0668073333332586
24752,25.0,0.10416665625001542,56.0,0.10395428124996897
24753,23.0,0.10395428124996897,64.0,0.10289821874999916
24754,25.0,0.10289821874999916,57.0,0.10186321874994064
24755,23.0,0.10186321874994064,66.0,0.1008486354166962
24756,25.0,0.1008486354166962,59.0,0.0998538437499974
24757,23.0,0.0998538437499974,68.0,0.09887831250000545
24758,25.0,0.09887831250000545,61.0,0.09792141666662246
24759,23.0,0.09792141666662246,70.0,0.09689067708330867
24760,25.0,0.09689067708330867,65.0,0.09597276041665737
24761,23.0,0.09597276041665737,73.0,0.09507190625004114
24762,47.0,0.06355931250004687,80.0,1.033703833333334
24763,25.0,0.03151259374999427,66.0,0.09418765625002834
24764,23.0,0.09418765625002834,72.0,0.09375
24765,25.0,0.09583333333330302,63.0,0.09429269375004878
24766,23.0,0.09219185416668552,69.0,0.09516092708332735
24767,25.0,0.09516092708332735,60.0,0.09821847500006697
24768,23.0,0.09606330208339386,66.0,0.1296851666666612
24769,25.0,0.1296851666666612,58.0,0.13119758333328946
24770,22.0,0.13119758333328946,64.0,0.1331384583333488
24771,23.0,0.1331384583333488,55.0,0.13473295833330212
24772,47.0,0.13473295833330212,80.0,1.1009169999999813
24773,28.0,1.1009169999999813,68.0,0.75
24774,19.0,0.75,61.0,0.10257087499996942
24775,20.0,0.10257087499996942,61.0,0.10582750000003216
24776,21.0,0.10582750000003216,61.0,0.10945129166663037
24777,44.0,0.10945129166663037,80.0,1.0668073333332586
24778,21.0,0.10416665625001542,56.0,0.10395428124996897
24779,20.0,0.10395428124996897,64.0,0.10289821874999916
24780,21.0,0.10289821874999916,57.0,0.10186321874994064
24781,20.0,0.10186321874994064,66.0,0.1008486354166962
24782,21.0,0.1008486354166962,59.0,0.0998538437499974
24783,20.0,0.0998538437499974,68.0,0.09887831250000545
24784,21.0,0.09887831250000545,61.0,0.09792141666662246
24785,20.0,0.09792141666662246,70.0,0.09689067708330867
24786,21.0,0.09689067708330867,65.0,0.09597276041665737
24787,20.0,0.09597276041665737,73.0,0.09507190625004114
24788,44.0,0.06355931250004687,80.0,1.033703833333334
24789,21.0,0.03151259374999427,66.0,0.09418765625002834
24790,20.0,0.09418765625002834,72.0,0.09375
24791,21.0,0.09583333333330302,63.0,0.09429269375004878
24792,20.0,0.09219185416668552,69.0,0.09516092708332735
24793,21.0,0.09516092708332735,60.0,0.09821847500006697
24794,20.0,0.09606330208339386,66.0,0.1296851666666612
24795,21.0,0.1296851666666612,58.0,0.13119758333328946
24796,19.0,0.13119758333328946,64.0,0.1331384583333488
24797,20.0,0.1331384583333488,55.0,0.13473295833330212
24798,37.0,0.13473295833330212,80.0,2.2551899999999705
24799,20.0,1.1009169999999813,47.0,0.5660374999999931
24800,16.0,0.5660374999999931,39.0,0.5882354999999961
24801,37.0,0.5882354999999961,46.0,1.0593220000000088
24802,37.0,1.0593220000000088,46.0,1.0905129999999872
24803,37.0,0.8178847500000188,41.0,0.2453654249999886
24804,37.0,0.2726282499999684,46.0,1.0824460000000045
24805,40.0,1.0824460000000045,45.0,1.1560690000000022
24806,39.0,0.8670517499999733,40.0,0.1445086250000145
24807,40.0,0.1445086250000145,37.0,0.1445086250000145
24808,39.0,0.1445086250000145,42.0,1.263964499999986
24809,37.0,0.9399905000000217,36.0,0.29157659999998486
24810,37.0,0.32397399999996424,40.0,1.5864779999999996
24811,37.0,1.0638299999999958,28.0,0.47038320000001477
24812,37.0,0.5226480000000038,31.0,3.1999999999999886
24813,43.0,0.0,52.0,0.6447449999999999
24814,52.0,0.6447449999999999,58.0,0.6447450000000003
24815,53.0,0.48355875000000026,43.0,0.1611862500000001
24816,50.0,0.1611862500000001,38.0,0.6578949999999999
24817,43.0,0.6578949999999999,27.0,0.67659
24818,43.0,0.67659,24.0,1.3800805833333332
24819,53.0,1.4094439999999997,45.0,0.6447450000000003
24820,54.0,0.6447450000000003,52.0,0.6447449999999995
24821,55.0,0.48355874999999937,51.0,0.1611862500000001
24822,60.0,0.1611862500000001,44.0,0.6612299999999998
24823,60.0,0.6612299999999998,31.0,0.710985
24824,60.0,0.710985,31.0,1.392345624999999
24825,52.0,1.42197,48.0,0.7164180000000009
24826,49.0,0.7164180000000009,48.0,0.6612299999999998
24827,50.0,0.4959225000000007,38.0,2.9397104999999986
24828,53.0,0.16530749999999905,42.0,0.6612299999999998
24829,53.0,0.6612299999999998,32.0,0.7043909999999993
24830,53.0,0.7043909999999993,27.0,1.3794323750000004
24831,47.0,1.4087820000000004,37.0,0.7326899999999998
24832,47.0,0.7326899999999998,39.0,0.7862670000000005
24833,48.0,0.5897002499999999,37.0,0.19656675000000057
24834,52.0,0.19656675000000057,33.0,0.7432180000000006
24835,43.0,0.7432180000000006,27.0,0.7880219999999998
24836,52.0,0.7880219999999998,18.0,1.543209749999999
24837,43.0,1.5760439999999996,60.0,1.2894900000000007
24838,52.0,0.6447450000000003,57.0,0.6447450000000003
24839,53.0,0.48355875000000026,57.0,0.1611862500000001
24840,50.0,0.1611862500000001,49.0,0.6512540000000016
24841,50.0,0.6512540000000016,37.0,0.6765900000000009
24842,50.0,0.6765900000000009,32.0,1.5587687083333321
24843,57.0,1.5919339999999984,57.0,0.6447450000000003
24844,54.0,0.6447450000000003,64.0,0.6578949999999999
24845,55.0,0.4934212500000008,57.0,1.785268958333333
24846,64.0,0.16447374999999909,64.0,0.7060212083333326
24847,64.0,0.7060212083333326,68.0,0.9147740000000013
24848,64.0,0.9147740000000013,52.0,2.1042272083333344
24849,52.0,2.148997999999999,45.0,0.664598999999999
24850,52.0,0.664598999999999,48.0,0.6645990000000026
24851,53.0,0.4984492500000002,40.0,0.16614975000000243
24852,41.0,0.16614975000000243,42.0,0.6750679999999996
24853,57.0,0.6750679999999996,33.0,0.6969449999999995
24854,57.0,0.6969449999999995,28.0,1.485274416666666
24855,47.0,1.518854000000001,39.0,0.8059099999999972
24856,50.0,0.8059099999999972,43.0,1.3813110000000037
24857,48.0,0.6363119999999967,37.0,0.17675333333333754
24858,48.0,0.21210400000000362,43.0,3.793656999999996
24859,43.0,0.274675000000002,34.0,0.7746599999999972
24860,60.0,0.7746599999999972,32.0,0.9147740000000013
24861,60.0,0.9147740000000013,31.0,1.8295479999999955
24862,46.0,0.0,91.0,1.4323230000000002
24863,47.0,1.4323230000000002,87.0,1.4323230000000002
24864,46.0,1.4323230000000002,89.0,1.4323230000000002
24865,41.0,1.0742422499999997,79.0,0.3580807500000005
24866,39.0,0.3580807500000005,82.0,1.4398274499999992
24867,42.0,1.5160082499999996,91.0,1.4399307499999994
24868,44.0,1.4399307499999994,89.0,1.4323230000000002
24869,42.0,1.4323230000000002,89.0,1.4551462500000003
24870,37.0,1.074242250000001,82.0,0.38090399999999924
24871,39.0,0.38090399999999924,85.0,1.447435200000001
24872,41.0,1.5236160000000005,86.0,1.4181039999999996
24873,43.0,1.4181039999999996,87.0,1.471521833333334
24874,46.0,1.471521833333334,90.0,1.4181039999999996
24875,44.0,1.0635779999999997,80.0,0.3545259999999999
24876,39.0,0.3545259999999999,90.0,1.4181039999999996
24877,39.0,1.4181039999999996,92.0,1.4181039999999996
24878,46.0,1.4181039999999996,93.0,1.5236160000000005
24879,50.0,1.5236160000000005,90.0,1.446829000000001
24880,48.0,1.085121749999999,76.0,0.36170725000000203
24881,46.0,0.36170725000000203,80.0,1.5767634500000014
24882,46.0,1.659751,45.0,1.4781970000000015
24883,47.0,1.4781970000000015,45.0,1.478196999999998
24884,47.0,1.478196999999998,45.0,1.4781970000000015
24885,45.0,1.1086477499999994,41.0,0.36954925000000216
24886,53.0,0.36954925000000216,45.0,1.478598999999999
24887,46.0,1.5564199999999992,45.0,1.4781970000000015
24888,53.0,1.4781970000000015,45.0,1.4781970000000015
24889,46.0,1.4781970000000015,46.0,1.514601749999997
24890,48.0,1.1086477499999958,44.0,0.40595400000000126
24891,41.0,0.40595400000000126,46.0,1.4785990000000027
24892,51.0,1.5564200000000028,49.0,1.5564199999999957
24893,39.0,1.5564199999999957,49.0,1.4781970000000015
24894,46.0,1.4781970000000015,53.0,1.5894040000000018
24895,44.0,1.1920530000000014,45.0,0.39735100000000045
24896,39.0,0.39735100000000045,49.0,1.6497833000000028
24897,39.0,1.736614000000003,48.0,1.5898249999999976
24898,44.0,1.5898249999999976,46.0,1.529052
24899,38.0,1.529052,48.0,1.6143265000000042
24900,41.0,1.1801730000000035,44.0,0.43415350000000075
24901,39.0,0.43415350000000075,44.0,1.876852300000003
24902,54.0,1.9756339999999994,29.0,1.4781970000000015
24903,54.0,1.4781970000000015,29.0,1.4781970000000015
24904,47.0,1.4781970000000015,29.0,1.5181480000000036
24905,45.0,1.1207970000000032,27.0,0.39735100000000045
24906,46.0,0.39735100000000045,29.0,1.4785990000000027
24907,46.0,1.5564200000000028,29.0,1.4781970000000015
24908,53.0,1.4781970000000015,30.0,1.4781970000000015
24909,50.0,1.4781970000000015,31.0,1.5689739999999972
24910,48.0,1.1540362499999972,28.0,0.41493775
24911,46.0,0.41493775,31.0,1.4785990000000027
24912,46.0,1.5564200000000028,41.0,1.5894040000000018
24913,47.0,1.5894040000000018,41.0,1.6973130000000012
24914,41.0,1.6973130000000012,45.0,1.7171149999999997
24915,44.0,1.2386459999999957,38.0,0.47846900000000403
24916,39.0,0.47846900000000403,41.0,1.9003378124999983
24917,42.0,2.027027000000004,40.0,1.7777779999999979
24918,44.0,1.7777779999999979,39.0,1.7777779999999979
24919,42.0,1.7777779999999979,40.0,1.9481349999999935
24920,41.0,1.399688999999995,36.0,0.5484459999999984
24921,39.0,0.5484459999999984,36.0,1.9455250000000035
24922,51.0,1.9455250000000035,63.0,7.7821
24923,49.0,0.0,55.0,1.887204
24924,32.0,0.346821,20.0,0.3314915000000001
24925,35.0,0.3314915000000001,25.0,0.29411750000000003
24926,33.0,0.29411750000000003,21.0,0.29411750000000003
24927,37.0,0.29411750000000003,28.0,0.30150750000000004
24928,28.0,0.30150750000000004,25.0,0.3191489999999999
24929,49.0,0.3191489999999999,55.0,1.8256849999999996
24930,32.0,0.3351955000000002,22.0,0.29702949999999984
24931,35.0,0.29702949999999984,29.0,0.28708149999999977
24932,33.0,0.28708149999999977,23.0,0.29411750000000003
24933,37.0,0.29411750000000003,31.0,0.3045684999999998
24934,28.0,0.3045684999999998,27.0,0.3076924999999999
24935,49.0,0.3076924999999999,55.0,1.832383
24936,32.0,0.31746050000000015,25.0,0.3076924999999999
24937,35.0,0.3076924999999999,28.0,0.2912619999999997
24938,33.0,0.2912619999999997,25.0,0.2999999999999998
24939,37.0,0.2999999999999998,32.0,0.29850750000000037
24940,28.0,0.29850750000000037,28.0,0.31746050000000015
24941,50.0,0.31746050000000015,55.0,1.8824492500000014
24942,34.0,0.32786899999999974,29.0,0.30927850000000046
24943,37.0,0.30927850000000046,32.0,0.2999999999999998
24944,35.0,0.2999999999999998,28.0,0.30927850000000046
24945,47.0,0.30927850000000046,49.0,0.6360232500000009
24946,28.0,0.3116987500000006,27.0,0.32432450000000035
24947,49.0,0.32432450000000035,51.0,1.858682
24948,32.0,0.3208555000000004,25.0,0.30927849999999957
24949,35.0,0.30927849999999957,28.0,0.3000000000000007
24950,33.0,0.3000000000000007,26.0,0.29999999999999893
24951,37.0,0.29999999999999893,28.0,0.3076924999999999
24952,28.0,0.3076924999999999,27.0,0.3208555000000004
24953,49.0,0.3208555000000004,57.0,1.848347500000001
24954,32.0,0.33333350000000017,33.0,0.30612250000000074
24955,35.0,0.30612250000000074,38.0,0.2941175000000005
24956,33.0,0.2941175000000005,33.0,0.2941175000000005
24957,49.0,0.2941175000000005,59.0,0.6206564999999991
24958,28.0,0.3015074999999996,33.0,0.31914899999999946
24959,49.0,0.31914899999999946,66.0,1.7891724999999976
24960,32.0,0.2843599999999995,33.0,0.28846150000000037
24961,50.0,0.057692299999999364,49.0,0.34899580000000086
24962,35.0,0.230769200000001,37.0,0.2955664999999996
24963,49.0,0.11822659999999985,49.0,0.34958879999999937
24964,33.0,0.17733989999999977,30.0,0.2870814999999993
24965,47.0,0.1722488999999996,49.0,0.3536386
24966,37.0,0.11483259999999973,38.0,0.2985074999999995
24967,49.0,0.2388060000000003,47.0,0.3948969999999985
24968,28.0,0.059701499999999186,33.0,0.3351954999999993
24969,52.0,0.3351954999999993,66.0,1.229376499999999
24970,34.0,0.32786899999999974,28.0,0.3015074999999996
24971,50.0,0.3015074999999996,49.0,0.5999999999999996
24972,35.0,0.3000000000000007,28.0,0.29999999999999893
24973,38.0,0.29999999999999893,32.0,0.3000000000000007
24974,47.0,0.3000000000000007,50.0,0.32432449999999946
24975,49.0,0.32432449999999946,55.0,1.8483474999999991
24976,32.0,0.33333350000000017,26.0,0.30612250000000074
24977,35.0,0.30612250000000074,31.0,0.2941175000000005
24978,33.0,0.2941175000000005,30.0,0.2941174999999987
24979,37.0,0.2941174999999987,35.0,0.3015074999999996
24980,28.0,0.3015074999999996,33.0,0.31914899999999946
24981,52.0,0.31914899999999946,66.0,1.8159455000000015
24982,52.0,0.1507537499999998,60.0,0.1612902500000004
24983,52.0,0.1612902500000004,62.0,1.8428830000000005
24984,33.0,0.32786899999999974,29.0,0.30612250000000074
24985,35.0,0.30612250000000074,34.0,0.2941174999999987
24986,34.0,0.2941174999999987,29.0,0.2941174999999987
24987,37.0,0.2941174999999987,29.0,0.3015074999999996
24988,28.0,0.3015074999999996,25.0,0.319149000000003
24989,50.0,0.319149000000003,51.0,1.8483475000000027
24990,34.0,0.33333350000000195,26.0,0.30612250000000074
24991,37.0,0.30612250000000074,29.0,0.2941174999999987
24992,35.0,0.2941174999999987,26.0,0.2941174999999987
24993,38.0,0.2941174999999987,29.0,0.3015074999999996
24994,30.0,0.3015074999999996,25.0,0.319149000000003
24995,46.0,0.319149000000003,56.0,1.806196
24996,29.0,0.31413599999999775,30.0,0.2985074999999995
24997,31.0,0.2985074999999995,38.0,0.28985500000000286
24998,30.0,0.28985500000000286,30.0,0.28985499999999575
24999,34.0,0.28985499999999575,36.0,0.29126200000000324
25000,25.0,0.29126200000000324,29.0,0.3225805000000008
25001,50.0,0.3225805000000008,60.0,1.801172000000001
25002,29.0,0.31088100000000196,33.0,0.2970295000000007
25003,31.0,0.2970295000000007,37.0,0.28985500000000286
25004,30.0,0.28985500000000286,29.0,0.28985499999999575
25005,35.0,0.28985499999999575,34.0,0.3015074999999996
25006,23.0,0.3015074999999996,28.0,0.3120440000000002
25007,42.0,0.1507537499999998,49.0,0.1612902500000004
25008,47.0,0.1612902500000004,57.0,3.691230500000003
25009,27.0,0.32786899999999974,26.0,0.30612250000000074
25010,30.0,0.30612250000000074,29.0,0.2941174999999987
25011,28.0,0.2941174999999987,26.0,0.2941174999999987
25012,32.0,0.2941174999999987,29.0,0.3015074999999996
25013,23.0,0.3015074999999996,25.0,0.319149000000003
25014,49.0,0.319149000000003,51.0,1.8483475000000027
25015,27.0,0.33333350000000195,26.0,0.30612250000000074
25016,30.0,0.30612250000000074,29.0,0.2941174999999987
25017,28.0,0.2941174999999987,26.0,0.2941174999999987
25018,32.0,0.2941174999999987,29.0,0.3015074999999996
25019,23.0,0.3015074999999996,25.0,0.319149000000003
25020,45.0,0.319149000000003,51.0,1.227691
25021,27.0,0.33333350000000195,26.0,0.30612250000000074
25022,30.0,0.30612250000000074,29.0,0.2941174999999987
25023,28.0,0.2941174999999987,26.0,0.2941174999999987
25024,33.0,0.2941174999999987,29.0,0.3015074999999996
25025,21.0,0.3015074999999996,25.0,0.33519549999999754
25026,50.0,0.33519549999999754,53.0,1.801171999999994
25027,32.0,0.31088099999999486,29.0,0.2970294999999936
25028,35.0,0.2970294999999936,33.0,0.28985500000000286
25029,33.0,0.28985500000000286,26.0,0.28985500000000286
25030,38.0,0.28985500000000286,29.0,0.3015074999999996
25031,26.0,0.3015074999999996,25.0,0.3120440000000002
25032,47.0,0.3120440000000002,50.0,3.777180499999986
25033,27.0,0.3389829999999989,23.0,0.3125
25034,30.0,0.3125,25.0,0.3015074999999996
25035,28.0,0.3015074999999996,22.0,0.3015074999999996
25036,32.0,0.3015074999999996,24.0,0.3015074999999996
25037,23.0,0.3015074999999996,20.0,0.3191489999999959
25038,49.0,0.3191489999999959,42.0,1.9020259999999922
25039,27.0,0.3389829999999989,20.0,0.3191489999999959
25040,30.0,0.3191489999999959,23.0,0.30612250000000074
25041,28.0,0.30612250000000074,19.0,0.30612250000000074
25042,38.0,0.30612250000000074,39.0,0.6316489999999959
25043,23.0,0.3125,18.0,0.3191489999999959
25044,45.0,0.3191489999999959,38.0,2.6020799999999866
25045,27.0,0.34482749999999385,19.0,0.3208554999999933
25046,30.0,0.3208554999999933,22.0,0.3076925000000017
25047,28.0,0.3076925000000017,19.0,0.3076925000000017
25048,33.0,0.3076925000000017,22.0,0.3191489999999959
25049,16.0,0.3191489999999959,18.0,0.32786900000000685
25050,21.0,0.32786900000000685,26.0,0.3514134999999925
25051,27.0,0.3514134999999925,19.0,0.3225805000000008
25052,30.0,0.3225805000000008,22.0,0.31088099999999486
25053,28.0,0.31088099999999486,19.0,0.31088100000000907
25054,33.0,0.31088100000000907,22.0,0.3260870000000011
25055,20.0,0.3260870000000011,18.0,0.35714299999999355
25056,57.0,0.35714299999999355,60.0,2.3254585000000105
25057,37.0,0.40268450000000655,30.0,0.37012997499999756
25058,37.0,0.3896105000000034,33.0,0.35625000000000284
25059,37.0,0.375,36.0,0.35625000000000284
25060,42.0,0.375,40.0,0.35625000000000284
25061,37.0,0.375,36.0,0.38775532500000054
25062,49.0,0.40816350000000057,57.0,1.5386534999999952
25063,40.0,0.3921569999999974,37.0,0.3630572250000057
25064,39.0,0.38216549999999927,36.0,0.3630572250000057
25065,37.0,0.38216549999999927,34.0,0.3630572250000057
25066,51.0,0.38216549999999927,58.0,0.7894739999999985
25067,35.0,0.39473700000000633,33.0,0.3750001499999911
25068,51.0,0.3947369999999921,60.0,1.7252302500000098
25069,23.0,0.39473700000000633,28.0,0.367742149999998
25070,28.0,0.38709699999999714,33.0,0.3584905750000047
25071,30.0,0.3773584999999997,31.0,0.3584905750000047
25072,28.0,0.3773584999999997,28.0,0.35231567500001404
25073,52.0,0.18867925000000696,43.0,0.1818182500000063
25074,56.0,0.1818182500000063,42.0,0.33727802500000337
25075,54.0,0.17751475000000028,40.0,0.17751475000000028
25076,52.0,0.17751475000000028,52.0,2.2808541666666713
25077,30.0,0.37267099999999687,28.0,0.3529834249999908
25078,28.0,0.3711652500000042,28.0,0.3505215833333324
25079,33.0,0.36927158333332954,28.0,0.36395180833333995
25080,32.0,0.3834323333333458,28.0,0.37254914999999755
25081,23.0,0.3921569999999974,28.0,0.37254914999999755
25082,55.0,0.3921569999999974,60.0,2.3254585000000105
25083,35.0,0.40268450000000655,30.0,0.37012997499999756
25084,35.0,0.3896105000000034,33.0,0.35625000000000284
25085,35.0,0.375,36.0,0.35625000000000284
25086,40.0,0.375,40.0,0.35625000000000284
25087,35.0,0.375,36.0,0.38775532500000054
25088,47.0,0.40816350000000057,57.0,1.5386534999999952
25089,38.0,0.3921569999999974,37.0,0.3630572250000057
25090,37.0,0.38216549999999927,36.0,0.3630572250000057
25091,35.0,0.38216549999999927,34.0,0.3630572250000057
25092,49.0,0.38216549999999927,58.0,0.7894739999999985
25093,33.0,0.39473700000000633,33.0,0.3750001499999911
25094,49.0,0.3947369999999921,60.0,1.7157603125000094
25095,21.0,0.39473700000000633,28.0,0.367742149999998
25096,26.0,0.38709699999999714,33.0,0.3584905750000047
25097,28.0,0.3773584999999997,31.0,0.3584905750000047
25098,26.0,0.37692706250000185,28.0,0.34131742499999973
25099,50.0,0.17964075000000435,43.0,0.17964074999999013
25100,54.0,0.17964074999999013,42.0,0.3333331500000014
25101,52.0,0.1754384999999985,40.0,0.1754384999999985
25102,50.0,0.1754384999999985,45.0,1.5379424999999856
25103,28.0,0.38709699999999714,28.0,0.3652637416666664
25104,26.0,0.3835564166666643,28.0,0.36064872500000433
25105,21.0,0.3797569999999979,28.0,0.36792423333332636
25106,49.0,0.3875320833333262,56.0,0.7843139999999948
25107,28.0,0.3921569999999974,28.0,0.37254914999999755
25108,49.0,0.3921569999999974,60.0,0.7551950000000005
25109,38.0,0.36809800000000337,27.0,0.367742149999998
25110,47.0,0.38709699999999714,55.0,0.9047059999999902
25111,38.0,0.3773584999999997,30.0,0.3333331500000014
25112,33.0,0.350876999999997,26.0,0.3352939499999934
25113,49.0,0.17647049999999354,43.0,0.17647050000000775
25114,52.0,0.17647050000000775,42.0,0.32571414999999604
25115,50.0,0.17142850000000465,40.0,0.17142849999999044
25116,49.0,0.17142849999999044,60.0,0.7551950000000005
25117,42.0,0.36809800000000337,27.0,0.367742149999998
25118,47.0,0.38709699999999714,54.0,0.9229712500000034
25119,42.0,0.3773584999999997,30.0,0.3496930999999961
25120,40.0,0.36809800000000337,26.0,0.33727802500000337
25121,49.0,0.17751475000000028,40.0,0.17751475000000028
25122,52.0,0.17751475000000028,39.0,0.3275861249999963
25123,50.0,0.17241375000000403,38.0,0.17241374999998982
25124,49.0,0.17241374999998982,57.0,0.7551950000000005
25125,38.0,0.36809800000000337,29.0,0.367742149999998
25126,47.0,0.38709699999999714,53.0,2.610817250000011
25127,42.0,0.37267099999999687,44.0,0.35403745000000697
25128,44.0,0.37267099999999687,53.0,0.3499719250000197
25129,42.0,0.36815375000001893,42.0,0.33727802500000337
25130,44.0,0.35502950000000055,48.0,0.36809800000000337
25131,42.0,0.36809800000000337,42.0,0.38709699999999714
25132,44.0,0.38709699999999714,40.0,0.38709699999999714
25133,49.0,0.38709699999999714,55.0,0.38709700000001135
25134,52.0,0.38709700000001135,61.0,0.37536674999999775
25135,49.0,0.37536674999999775,55.0,0.36585350000000005
25136,45.0,0.36585350000000005,60.0,0.7773585000000054
25137,37.0,0.3773584999999997,34.0,0.37999999999999545
25138,45.0,0.4000000000000057,58.0,0.7692310000000049
25139,42.0,0.38461549999999534,34.0,0.3653847249999984
25140,45.0,0.38461550000000955,57.0,0.7677215000000075
25141,39.0,0.37037050000000704,37.0,0.3774834499999997
25142,45.0,0.39735100000000045,60.0,1.5578505000000007
25143,38.0,0.38097199999999987,41.0,0.38255027499999983
25144,44.0,0.40268450000000655,56.0,0.7741939999999943
25145,38.0,0.38709699999999714,41.0,0.367742149999998
25146,47.0,0.38709699999999714,56.0,0.7843139999999948
25147,38.0,0.3921569999999974,41.0,0.37254914999999755
25148,47.0,0.3921569999999974,56.0,0.7845470833333508
25149,28.0,0.3818625833333442,27.0,0.38255027499999983
25150,49.0,0.40268450000000655,52.0,0.7792210000000068
25151,28.0,0.3896105000000034,30.0,0.37012997499999756
25152,47.0,0.3896105000000034,50.0,0.7792209999999926
25153,32.0,0.3896104999999892,29.0,0.37012997499999756
25154,49.0,0.3896105000000034,51.0,2.241439999999997
25155,20.0,0.3921569999999974,29.0,0.36363649999999836
25156,23.0,0.36363649999999836,32.0,0.36363649999999836
25157,21.0,0.36363649999999836,29.0,0.36363649999999836
25158,25.0,0.36363649999999836,32.0,0.36363649999999836
25159,16.0,0.36363649999999836,29.0,0.39473700000000633
25160,49.0,0.39473700000000633,55.0,1.8618349999999992
25161,32.0,0.3468210000000056,26.0,0.30612250000000074
25162,35.0,0.30612250000000074,31.0,0.2941174999999987
25163,33.0,0.2941174999999987,30.0,0.2941174999999987
25164,37.0,0.2941174999999987,35.0,0.3015074999999996
25165,28.0,0.3015074999999996,33.0,0.3191489999999959
25166,49.0,0.3191489999999959,66.0,1.815945499999998
25167,32.0,0.3225805000000008,30.0,0.29999999999999716
25168,35.0,0.29999999999999716,40.0,0.2941174999999987
25169,33.0,0.2941174999999987,35.0,0.2884614999999968
25170,37.0,0.2884614999999968,42.0,0.3015074999999996
25171,28.0,0.3015074999999996,37.0,0.3092785000000049
25172,50.0,0.15463925000000245,62.0,0.15463925000000245
25173,52.0,0.15463925000000245,71.0,1.8061960000000141
25174,32.0,0.31413600000000486,34.0,0.2985074999999995
25175,35.0,0.2985074999999995,45.0,0.28985500000000286
25176,33.0,0.28985500000000286,37.0,0.28985500000000286
25177,37.0,0.28985500000000286,44.0,0.29126200000000324
25178,28.0,0.29126200000000324,29.0,0.3225805000000008
25179,54.0,0.3225805000000008,67.0,1.801171999999994
25180,32.0,0.31088099999999486,33.0,0.2970294999999936
25181,35.0,0.2970294999999936,39.0,0.28985500000000286
25182,33.0,0.28985500000000286,34.0,0.28985500000000286
25183,37.0,0.28985500000000286,38.0,0.3015074999999996
25184,28.0,0.3015074999999996,34.0,0.3120440000000002
25185,52.0,0.1507537500000069,66.0,0.1612902499999933
25186,57.0,0.1612902499999933,69.0,1.8428830000000005
25187,32.0,0.32786900000000685,29.0,0.30612250000000074
25188,35.0,0.30612250000000074,33.0,0.2941174999999987
25189,33.0,0.2941174999999987,29.0,0.2941174999999987
25190,37.0,0.2941174999999987,32.0,0.3015074999999996
25191,28.0,0.3015074999999996,27.0,0.3191489999999959
25192,54.0,0.3191489999999959,61.0,3.6545435000000026
25193,32.0,0.33333349999999484,28.0,0.30612250000000074
25194,35.0,0.30612250000000074,31.0,0.2941174999999987
25195,33.0,0.2941174999999987,28.0,0.2941174999999987
25196,38.0,0.2941174999999987,31.0,0.3015074999999996
25197,26.0,0.3015074999999996,26.0,0.3191489999999959
25198,50.0,0.3191489999999959,56.0,1.8061960000000141
25199,29.0,0.31413600000000486,30.0,0.2985074999999995
25200,31.0,0.2985074999999995,38.0,0.28985500000000286
25201,30.0,0.28985500000000286,30.0,0.28985500000000286
25202,34.0,0.28985500000000286,36.0,0.29126200000000324
25203,25.0,0.29126200000000324,29.0,0.3225805000000008
25204,50.0,0.3225805000000008,57.0,1.801171999999994
25205,29.0,0.31088099999999486,33.0,0.2970294999999936
25206,31.0,0.2970294999999936,37.0,0.28985500000000286
25207,30.0,0.28985500000000286,29.0,0.28985500000000286
25208,35.0,0.28985500000000286,34.0,0.3015074999999996
25209,23.0,0.3015074999999996,28.0,0.3120440000000002
25210,42.0,0.1507537500000069,49.0,0.1612902499999933
25211,47.0,0.1612902499999933,59.0,1.8076969999999903
25212,56.0,0.2926829999999967,54.0,3.3633615000000248
25213,30.0,0.30612250000000074,29.0,0.2941174999999987
25214,28.0,0.2941174999999987,26.0,0.2941174999999987
25215,32.0,0.2941174999999987,29.0,0.3015074999999996
25216,23.0,0.3015074999999996,25.0,0.3191489999999959
25217,47.0,0.3191489999999959,51.0,1.2276910000000072
25218,27.0,0.33333349999999484,26.0,0.30612250000000074
25219,30.0,0.30612250000000074,29.0,0.2941174999999987
25220,28.0,0.2941174999999987,26.0,0.2941175000000129
25221,49.0,0.2941175000000129,51.0,0.6206565000000239
25222,23.0,0.3015075000000138,25.0,0.3191490000000101
25223,45.0,0.3191490000000101,54.0,1.1928649999999834
25224,57.0,0.2985074999999995,59.0,1.5150140000000079
25225,30.0,0.30612249999998653,29.0,0.2941174999999987
25226,28.0,0.2941174999999987,26.0,0.2941174999999987
25227,33.0,0.2941174999999987,29.0,0.3015075000000138
25228,21.0,0.3015075000000138,25.0,0.3191490000000101
25229,50.0,0.3191490000000101,57.0,1.7829740000000243
25230,59.0,0.2926830000000109,61.0,1.4902910000000134
25231,32.0,0.29702950000000783,33.0,0.28985499999998865
25232,30.0,0.28985499999998865,26.0,0.28985500000001707
25233,38.0,0.28985500000001707,29.0,0.3015075000000138
25234,23.0,0.3015075000000138,25.0,0.312043999999986
25235,47.0,0.312043999999986,51.0,3.761599999999987
25236,56.0,0.3076925000000017,58.0,3.2899730000000034
25237,30.0,0.3125,25.0,0.3015075000000138
25238,28.0,0.3015075000000138,22.0,0.3015074999999854
25239,32.0,0.3015074999999854,24.0,0.3092785000000049
25240,23.0,0.3092785000000049,20.0,0.3225804999999866
25241,49.0,0.3225804999999866,56.0,1.9065334999999948
25242,27.0,0.3428570000000093,20.0,0.31578949999999395
25243,30.0,0.31578949999999395,23.0,0.3045684999999878
25244,28.0,0.3045684999999878,19.0,0.30456850000001623
25245,35.0,0.30456850000001623,23.0,0.31088099999999486
25246,16.0,0.31088099999999486,18.0,0.32786899999999264
25247,57.0,0.16393450000001053,54.0,0.1639344999999821
25248,45.0,0.1639344999999821,42.0,3.8118596666666633
25249,57.0,0.31088099999999486,57.0,3.5009786666666685
25250,30.0,0.31578949999999395,22.0,0.3045684999999878
25251,28.0,0.3045684999999878,19.0,0.30456850000001623
25252,33.0,0.30456850000001623,22.0,0.31088099999999486
25253,16.0,0.31088099999999486,18.0,0.3260870000000011
25254,21.0,0.3260870000000011,26.0,0.34090900000001056
25255,27.0,0.34090900000001056,19.0,0.33333350000000905
25256,30.0,0.33333350000000905,22.0,0.31088099999999486
25257,28.0,0.31088099999999486,19.0,0.31088099999999486
25258,33.0,0.31088099999999486,22.0,0.3134091666666734
25259,16.0,0.3134091666666734,18.0,0.32967049999999176
25260,9.0,0.32967049999999176,33.0,0.37037050000000704
25261,37.0,0.37037050000000704,30.0,0.33969007499999293
25262,37.0,0.3575685000000135,33.0,0.33969007499999293
25263,37.0,0.3575684999999851,34.0,0.33969007499999293
25264,42.0,0.3575685000000135,37.0,0.34144660833331386
25265,37.0,0.360077833333321,40.0,0.3773982499999988
25266,49.0,0.395735650000006,52.0,1.6896875541666532
25267,40.0,0.3733966708333014,38.0,0.36792650416663264
25268,38.0,0.3877855958333214,37.0,0.4009322625000209
25269,56.0,0.10017033333333458,40.0,0.10031666666666617
25270,46.0,0.10031666666666617,42.0,0.10179395833333338
25271,52.0,0.10179395833333338,42.0,0.10330824999999955
25272,56.0,0.10330824999999955,42.0,0.10727541666666518
25273,63.0,0.10727541666666518,80.0,0.6060183333333331
25274,51.0,0.10134799999999977,40.0,0.10134799999999977
25275,56.0,0.10134799999999977,40.0,0.10134799999999977
25276,46.0,0.10134799999999977,39.0,0.10075566666666624
25277,51.0,0.10075566666666624,39.0,0.10075566666666624
25278,56.0,0.10075566666666624,39.0,0.1004630000000013
25279,61.0,0.1004630000000013,77.0,0.598216666666664
25280,51.0,0.09902950000000033,38.0,0.09902949999999855
25281,55.0,0.09902949999999855,38.0,0.10134800000000155
25282,46.0,0.10134800000000155,38.0,0.10046299999999775
25283,51.0,0.10046299999999775,37.0,0.0987467500000001
25284,55.0,0.0987467500000001,37.0,0.09959991666666568
25285,59.0,0.09959991666666568,77.0,0.6043038333333293
25286,51.0,0.10134800000000155,36.0,0.10046299999999775
25287,56.0,0.10046299999999775,35.0,0.0987467500000001
25288,47.0,0.0987467500000001,35.0,0.10046299999999775
25289,51.0,0.10046299999999775,35.0,0.10193683333333325
25290,56.0,0.10193683333333325,34.0,0.10134624999999886
25291,56.0,0.10134624999999886,70.0,0.618800249999996
25292,50.0,0.10046983333333515,33.0,0.1016424166666674
25293,54.0,0.1016424166666674,33.0,0.10284983333333031
25294,44.0,0.10284983333333031,31.0,0.1034616666666679
25295,50.0,0.1034616666666679,31.0,0.10471299999999673
25296,54.0,0.10471299999999673,31.0,0.10566349999999858
25297,56.0,0.10566349999999858,72.0,0.6230236666666649
25298,49.0,0.10566350000000213,31.0,0.10503100000000032
25299,54.0,0.10503100000000032,31.0,0.10408083333333096
25300,44.0,0.10408083333333096,33.0,0.10346166666666434
25301,49.0,0.10346166666666434,33.0,0.10284983333333386
25302,54.0,0.10284983333333386,34.0,0.10193683333333325
25303,58.0,0.10193683333333325,72.0,0.604830166666666
25304,49.0,0.10105183333333301,35.0,0.10075566666666802
25305,54.0,0.10075566666666802,35.0,0.10075566666666802
25306,44.0,0.10075566666666802,36.0,0.10075566666666447
25307,49.0,0.10075566666666447,36.0,0.10075566666666802
25308,54.0,0.10075566666666802,37.0,0.10075566666666447
25309,59.0,0.10075566666666447,75.0,0.604534000000001
25310,49.0,0.10075566666666802,38.0,0.10075566666666802
25311,53.0,0.10075566666666802,38.0,0.10075566666666447
25312,44.0,0.10075566666666447,37.0,0.10075566666666802
25313,47.0,0.10075566666666802,37.0,0.10075566666666802
25314,49.0,0.10075566666666802,36.0,0.10075566666666447
25315,25.0,0.10075566666666447,31.0,0.10254300000000072
25316,49.0,0.012817874999999646,68.0,0.6101777083333317
25317,44.0,0.08972512500000107,36.0,0.10284983333333031
25318,47.0,0.10284983333333031,35.0,0.1034616666666679
25319,37.0,0.1034616666666679,35.0,0.10408083333333096
25320,44.0,0.10408083333333096,35.0,0.10471300000000028
25321,47.0,0.10471300000000028,37.0,0.10534725000000122
25322,49.0,0.10534725000000122,70.0,0.6389223333333263
25323,44.0,0.10665308333333101,39.0,0.107642666666667
25324,47.0,0.107642666666667,39.0,0.10697483333333224
25325,37.0,0.10697483333333224,39.0,0.1063151666666684
25326,44.0,0.1063151666666684,40.0,0.10598933333332994
25327,47.0,0.10598933333332994,42.0,0.10534724999999767
25328,51.0,0.10534724999999767,62.0,0.6266880000000015
25329,42.0,0.10471300000000028,35.0,0.10439500000000024
25330,47.0,0.10439500000000024,36.0,0.10439500000000024
25331,37.0,0.10439500000000024,36.0,0.10439500000000024
25332,42.0,0.10439500000000024,37.0,0.10439500000000024
25333,47.0,0.10439500000000024,37.0,0.10439500000000024
25334,52.0,0.10439500000000024,63.0,0.6412595416666633
25335,42.0,0.10392374999999987,33.0,0.10503012499999897
25336,46.0,0.10503012499999897,32.0,0.1063171666666669
25337,37.0,0.1063171666666669,32.0,0.10730874999999784
25338,40.0,0.10730874999999784,31.0,0.10864950000000206
25339,42.0,0.10864950000000206,29.0,0.11003024999999766
25340,42.0,0.11003024999999766,55.0,0.7638493749999995
25341,37.0,0.11126658333333239,35.0,0.11555925000000045
25342,40.0,0.11555925000000045,34.0,0.1214217083333331
25343,30.0,0.1214217083333331,31.0,0.12815691666666496
25344,37.0,0.12815691666666496,30.0,0.13543258333333696
25345,40.0,0.13543258333333696,29.0,0.15201233333333164
25346,54.0,0.15201233333333164,51.0,0.6987170833333316
25347,47.0,0.12076708333333386,22.0,0.11910574999999923
25348,51.0,0.11910574999999923,22.0,0.11749633333333165
25349,42.0,0.11749633333333165,22.0,0.11553858333333267
25350,47.0,0.11553858333333267,22.0,0.11363766666666919
25351,51.0,0.11363766666666919,23.0,0.112171666666665
25352,54.0,0.112171666666665,44.0,0.6503024999999987
25353,47.0,0.11038583333333207,23.0,0.10933849999999978
25354,51.0,0.10933849999999978,24.0,0.10864950000000206
25355,42.0,0.10864950000000206,24.0,0.10797491666666303
25356,47.0,0.10797491666666303,24.0,0.1073087500000014
25357,51.0,0.1073087500000014,24.0,0.10664500000000032
25358,54.0,0.10664500000000032,49.0,0.6339809999999986
25359,47.0,0.10566349999999858,26.0,0.10566350000000213
25360,51.0,0.10566350000000213,26.0,0.10566349999999858
25361,42.0,0.10566349999999858,26.0,0.10566350000000213
25362,47.0,0.10566350000000213,27.0,0.10566349999999858
25363,51.0,0.10566349999999858,27.0,0.10566349999999858
25364,54.0,0.10566349999999858,52.0,0.6439285000000048
25365,47.0,0.10566350000000213,27.0,0.10598933333333349
25366,51.0,0.10598933333333349,28.0,0.10664500000000032
25367,42.0,0.10664500000000032,28.0,0.107642666666667
25368,47.0,0.107642666666667,28.0,0.10864950000000206
25369,51.0,0.10864950000000206,28.0,0.10933849999999978
25370,56.0,0.10933849999999978,55.0,0.6381967499999988
25371,47.0,0.11037533333333371,30.0,0.10831724999999892
25372,51.0,0.10831724999999892,29.0,0.10631916666666541
25373,42.0,0.10631916666666541,29.0,0.10439500000000024
25374,47.0,0.10439500000000024,29.0,0.10439500000000024
25375,51.0,0.10439500000000024,29.0,0.10439500000000024
25376,54.0,0.10439500000000024,52.0,0.6204631666666636
25377,47.0,0.10376666666666523,29.0,0.10376666666666878
25378,51.0,0.10376666666666878,29.0,0.10376666666666523
25379,42.0,0.10376666666666523,29.0,0.10315666666666701
25380,47.0,0.10315666666666701,28.0,0.10315666666666701
25381,51.0,0.10315666666666701,28.0,0.10284983333333031
25382,54.0,0.10284983333333031,50.0,0.6108044166666708
25383,47.0,0.10194550000000291,27.0,0.10105183333333301
25384,51.0,0.10105183333333301,27.0,0.10195616666666751
25385,42.0,0.10195616666666751,27.0,0.10315666666666701
25386,47.0,0.10315666666666701,27.0,0.1016424166666674
25387,51.0,0.1016424166666674,27.0,0.10105183333333301
25388,54.0,0.10105183333333301,51.0,0.6084086666666657
25389,47.0,0.10164933333333437,26.0,0.1022523333333325
25390,51.0,0.1022523333333325,26.0,0.10046299999999775
25391,42.0,0.10046299999999775,26.0,0.10134800000000155
25392,47.0,0.10134800000000155,26.0,0.101347999999998
25393,51.0,0.101347999999998,26.0,0.10134800000000155
25394,54.0,0.10134800000000155,59.0,0.6083824166666645
25395,49.0,0.101347999999998,30.0,0.10134800000000155
25396,52.0,0.10134800000000155,31.0,0.101347999999998
25397,42.0,0.101347999999998,31.0,0.10134800000000155
25398,49.0,0.10134800000000155,33.0,0.10134800000000155
25399,52.0,0.10134800000000155,34.0,0.10164241666666385
25400,61.0,0.10164241666666385,68.0,0.6092639166666665
25401,49.0,0.10193683333333325,35.0,0.10193683333333325
25402,52.0,0.10193683333333325,35.0,0.1016424166666674
25403,42.0,0.1016424166666674,36.0,0.101347999999998
25404,49.0,0.101347999999998,38.0,0.10134800000000155
25405,52.0,0.10134800000000155,38.0,0.10105183333333301
25406,63.0,0.10105183333333301,71.0,0.6042413333333343
25407,49.0,0.10075566666666802,39.0,0.10075566666666802
25408,52.0,0.10075566666666802,40.0,0.10075566666666447
25409,42.0,0.10075566666666447,41.0,0.10075566666666802
25410,49.0,0.10075566666666802,41.0,0.10075566666666447
25411,52.0,0.10075566666666447,42.0,0.1004630000000013
25412,58.0,0.1004630000000013,66.0,0.6146993416666646
25413,49.0,0.10017033333333458,41.0,0.10075566666666802
25414,52.0,0.10075566666666802,40.0,0.10096298333333209
25415,42.0,0.10096298333333209,38.0,0.10257593333333048
25416,49.0,0.10257593333333048,37.0,0.1042080333333324
25417,52.0,0.1042080333333324,36.0,0.10602639166666705
25418,61.0,0.10602639166666705,72.0,0.6098752499999982
25419,51.0,0.10254300000000072,45.0,0.10223991666666521
25420,54.0,0.10223991666666521,44.0,0.10193683333333325
25421,42.0,0.10193683333333325,44.0,0.10134800000000155
25422,51.0,0.10134800000000155,42.0,0.10105183333332945
25423,54.0,0.10105183333332945,42.0,0.10075566666666802
25424,59.0,0.10075566666666802,71.0,0.5990745833333335
25425,51.0,0.09931058333333453,41.0,0.09846399999999988
25426,54.0,0.09846399999999988,41.0,0.10075566666666802
25427,42.0,0.10075566666666802,40.0,0.10046299999999775
25428,51.0,0.10046299999999775,41.0,0.09902950000000033
25429,54.0,0.09902950000000033,39.0,0.10105183333333301
25430,59.0,0.10105183333333301,80.0,0.5984494166666643
25431,51.0,0.10046299999999775,38.0,0.09902950000000033
25432,55.0,0.09902950000000033,39.0,0.09959991666666568
25433,43.0,0.09959991666666568,40.0,0.1001736666666666
25434,51.0,0.1001736666666666,41.0,0.09959166666666519
25435,55.0,0.09959166666666519,42.0,0.09959166666666874
25436,59.0,0.09959166666666874,82.0,0.6307014166666747
25437,51.0,0.10046300000000485,45.0,0.10164241666667095
25438,55.0,0.10164241666667095,46.0,0.10284983333333031
25439,43.0,0.10284983333333031,47.0,0.10439883333333455
25440,51.0,0.10439883333333455,48.0,0.11112750000000204
25441,55.0,0.11112750000000204,49.0,0.11021983333333196
25442,59.0,0.11021983333333196,80.0,0.6095790833333439
25443,52.0,0.10254300000000427,41.0,0.10223991666666876
25444,56.0,0.10223991666666876,41.0,0.10193683333333325
25445,47.0,0.10193683333333325,42.0,0.10105183333333656
25446,52.0,0.10105183333333656,42.0,0.10075566666666447
25447,56.0,0.10075566666666447,42.0,0.10105183333333656
25448,59.0,0.10105183333333656,81.0,0.6045480000000012
25449,52.0,0.10134800000000155,44.0,0.10134799999999444
25450,56.0,0.10134799999999444,44.0,0.10075566666666447
25451,47.0,0.10075566666666447,45.0,0.10075566666667157
25452,52.0,0.10075566666667157,45.0,0.10017033333333103
25453,56.0,0.10017033333333103,45.0,0.10017033333333814
25454,59.0,0.10017033333333814,84.0,0.5975499999999982
25455,52.0,0.09959166666666874,46.0,0.09959166666666164
25456,56.0,0.09959166666666164,46.0,0.09959166666666874
25457,47.0,0.09959166666666874,47.0,0.09959166666666874
25458,52.0,0.09959166666666874,47.0,0.09959166666666874
25459,56.0,0.09959166666666874,47.0,0.09959166666666164
25460,61.0,0.09959166666666164,84.0,0.613034958333337
25461,52.0,0.10017033333333103,48.0,0.10017033333333814
25462,56.0,0.10017033333333814,48.0,0.10031666666666439
25463,46.0,0.10031666666666439,49.0,0.1017939583333316
25464,52.0,0.1017939583333316,49.0,0.10330825000000488
25465,56.0,0.10330825000000488,49.0,0.10727541666666696
25466,63.0,0.10727541666666696,88.0,0.6060183333333313
25467,51.0,0.10134800000000155,44.0,0.10134800000000155
25468,56.0,0.10134800000000155,44.0,0.10134799999999444
25469,46.0,0.10134799999999444,42.0,0.10075566666666447
25470,51.0,0.10075566666666447,42.0,0.10075566666667157
25471,56.0,0.10075566666667157,41.0,0.10046299999999775
25472,58.0,0.10046299999999775,82.0,0.5982166666666799
25473,51.0,0.09902950000000033,40.0,0.09902950000000033
25474,56.0,0.09902950000000033,40.0,0.10134800000000155
25475,46.0,0.10134800000000155,40.0,0.10046300000000485
25476,51.0,0.10046300000000485,39.0,0.09874675000000366
25477,56.0,0.09874675000000366,39.0,0.09959991666666923
25478,58.0,0.09959991666666923,80.0,0.6043038333333541
25479,51.0,0.10134800000000155,37.0,0.10046300000000485
25480,55.0,0.10046300000000485,36.0,0.09874675000000366
25481,46.0,0.09874675000000366,36.0,0.10046300000000485
25482,51.0,0.10046300000000485,36.0,0.10193683333333325
25483,55.0,0.10193683333333325,34.0,0.10134625000000597
25484,58.0,0.10134625000000597,71.0,0.6404141666666732
25485,51.0,0.10046983333333515,33.0,0.10164241666667095
25486,55.0,0.10164241666667095,33.0,0.10284983333333031
25487,46.0,0.10284983333333031,31.0,0.10570466666666789
25488,51.0,0.10570466666666789,31.0,0.11481625000000406
25489,55.0,0.11481625000000406,31.0,0.11493116666666481
25490,58.0,0.11493116666666481,64.0,0.6374656666666709
25491,50.0,0.10695183333333347,28.0,0.10666741666666724
25492,55.0,0.10666741666666724,28.0,0.106383000000001
25493,44.0,0.106383000000001,33.0,0.1061015833333343
25494,50.0,0.1061015833333343,29.0,0.1058201666666676
25495,55.0,0.1058201666666676,29.0,0.10554166666666731
25496,58.0,0.10554166666666731,66.0,0.6283676250000028
25497,50.0,0.10697687500000086,28.0,0.10518825000000476
25498,53.0,0.10518825000000476,28.0,0.10369683333333768
25499,44.0,0.10369683333333768,28.0,0.10362699999999592
25500,50.0,0.10362699999999592,28.0,0.1041666666666643
25501,53.0,0.1041666666666643,28.0,0.10471199999999925
25502,58.0,0.10471199999999925,68.0,0.6373611666666577
25503,50.0,0.10788850000000139,29.0,0.10673141666666197
25504,56.0,0.10673141666666197,29.0,0.10526608333334053
25505,44.0,0.10526608333334053,29.0,0.10498758333332603
25506,50.0,0.10498758333332603,29.0,0.1058201666666676
25507,56.0,0.1058201666666676,28.0,0.10666741666666013
25508,58.0,0.10666741666666013,60.0,0.6549607833333297
25509,50.0,0.10723933333333946,28.0,0.10770845833333453
25510,55.0,0.10770845833333453,28.0,0.10583120833332771
25511,44.0,0.10583120833332771,30.0,0.10620153333333349
25512,50.0,0.10620153333333349,30.0,0.1111807499999955
25513,55.0,0.1111807499999955,33.0,0.11679949999999906
25514,53.0,0.11679949999999906,53.0,0.634088416666664
25515,44.0,0.1061015833333272,25.0,0.1058201666666676
25516,27.0,0.1058201666666676,25.0,0.1058201666666676
25517,39.0,0.1058201666666676,25.0,0.1058201666666676
25518,44.0,0.1058201666666676,26.0,0.10526316666666702
25519,46.0,0.10526316666666702,27.0,0.10526316666666702
25520,51.0,0.10526316666666702,52.0,0.631869166666668
25521,43.0,0.10526316666666702,26.0,0.10498758333333313
25522,46.0,0.10498758333333313,26.0,0.10498758333334024
25523,39.0,0.10498758333334024,26.0,0.10498758333332603
25524,43.0,0.10498758333332603,26.0,0.10554166666666731
25525,46.0,0.10554166666666731,26.0,0.1061015833333343
25526,51.0,0.1061015833333343,53.0,0.6422235000000001
25527,41.0,0.106383000000001,26.0,0.1058201666666676
25528,46.0,0.1058201666666676,26.0,0.10666741666666013
25529,39.0,0.10666741666666013,26.0,0.10723933333333946
25530,41.0,0.10723933333333946,26.0,0.10813866666666883
25531,46.0,0.10813866666666883,25.0,0.10797491666666303
25532,51.0,0.10797491666666303,47.0,0.6477521666666703
25533,43.0,0.10848337499999872,25.0,0.10664904166666389
25534,27.0,0.10664904166666389,25.0,0.10471404166667497
25535,39.0,0.10471404166667497,24.0,0.16000375000000133
25536,43.0,0.10567900000000208,22.0,0.10969020833333332
25537,27.0,0.054324749999999256,19.0,0.16790195833333144
25538,46.0,0.05536545833333406,20.0,0.11253649999999737
25539,51.0,0.11253649999999737,49.0,0.6987170833333423
25540,46.0,0.12076708333333386,22.0,0.11910575000000279
25541,27.0,0.05975858333333406,24.0,0.17684350000000393
25542,49.0,0.05934716666666873,22.0,0.1174963333333352
25543,37.0,0.1174963333333352,33.0,0.172544666666667
25544,46.0,0.11553858333333267,22.0,0.11363766666666919
25545,27.0,0.057006083333334345,24.0,0.1688032500000034
25546,49.0,0.056631583333334845,23.0,0.11217166666666856
25547,51.0,0.11217166666666856,44.0,0.6503024999999951
25548,46.0,0.11038583333333207,23.0,0.10933849999999978
25549,27.0,0.054842583333332584,24.0,0.1631454166666657
25550,49.0,0.0544959166666672,24.0,0.10864949999999851
25551,37.0,0.10864949999999851,33.0,0.16179625000000186
25552,46.0,0.10797491666667014,24.0,0.1073087500000014
25553,27.0,0.05382133333333172,24.0,0.1601324166666629
25554,49.0,0.053487416666669674,24.0,0.10664499999999322
25555,52.0,0.10664499999999322,51.0,0.6339809999999986
25556,46.0,0.10075566666666447,52.0,0.15084083333334064
25557,51.0,0.10075566666667157,53.0,0.10017033333333103
25558,34.0,0.05008516666666907,38.0,0.1502555000000001
25559,54.0,0.05008516666666196,53.0,0.10017033333333814
25560,59.0,0.10017033333333814,84.0,0.5975499999999982
25561,51.0,0.09959166666666874,50.0,0.09959166666666164
25562,29.0,0.04979583333333437,34.0,0.149387499999996
25563,53.0,0.049795833333327266,49.0,0.09959166666666874
25564,44.0,0.09959166666666874,48.0,0.14938750000000312
25565,51.0,0.09959166666666874,47.0,0.09959166666666874
25566,29.0,0.04979583333333437,30.0,0.149387499999996
25567,53.0,0.04979583333333437,46.0,0.09959166666666164
25568,56.0,0.09959166666666164,75.0,0.613034958333337
25569,50.0,0.10017033333333103,44.0,0.10017033333333814
25570,29.0,0.05008516666666907,30.0,0.15040183333333346
25571,53.0,0.05008516666666907,42.0,0.10031666666666439
25572,44.0,0.10031666666666439,41.0,0.1017939583333316
25573,50.0,0.1017939583333316,40.0,0.10330825000000488
25574,53.0,0.10330825000000488,39.0,0.10727541666666696
25575,55.0,0.10727541666666696,64.0,0.6060183333333313
25576,46.0,0.10134800000000155,28.0,0.10134800000000155
25577,51.0,0.10134800000000155,28.0,0.10134799999999444
25578,43.0,0.10134799999999444,28.0,0.10075566666666447
25579,46.0,0.10075566666666447,29.0,0.10075566666667157
25580,51.0,0.10075566666667157,29.0,0.10046299999999775
25581,53.0,0.10046299999999775,58.0,0.5982166666666799
25582,47.0,0.09902950000000033,30.0,0.09902950000000033
25583,50.0,0.09902950000000033,30.0,0.10134800000000155
25584,41.0,0.10134800000000155,30.0,0.10046300000000485
25585,47.0,0.10046300000000485,31.0,0.09874675000000366
25586,50.0,0.09874675000000366,31.0,0.09959991666666923
25587,56.0,0.09959991666666923,61.0,0.6043038333333541
25588,47.0,0.10134800000000155,33.0,0.10046300000000485
25589,50.0,0.10046300000000485,31.0,0.09874675000000366
25590,44.0,0.09874675000000366,31.0,0.10046300000000485
25591,47.0,0.10046300000000485,31.0,0.10193683333333325
25592,50.0,0.10193683333333325,30.0,0.10134625000000597
25593,55.0,0.10134625000000597,57.0,0.651604583333345
25594,47.0,0.10046983333333515,29.0,0.10164241666667095
25595,50.0,0.10164241666667095,29.0,0.10284983333333031
25596,43.0,0.10284983333333031,29.0,0.10570466666666789
25597,47.0,0.10570466666666789,28.0,0.11481625000000406
25598,50.0,0.11481625000000406,28.0,0.12612158333333667
25599,55.0,0.12612158333333667,64.0,0.6060183333333313
25600,46.0,0.10134800000000155,29.0,0.10134800000000155
25601,51.0,0.10134800000000155,30.0,0.10134799999999444
25602,43.0,0.10134799999999444,31.0,0.10075566666666447
25603,46.0,0.10075566666666447,31.0,0.10075566666667157
25604,51.0,0.10075566666667157,33.0,0.10046299999999775
25605,53.0,0.10046299999999775,58.0,0.5982166666666799
25606,47.0,0.09902950000000033,34.0,0.09902950000000033
25607,50.0,0.09902950000000033,35.0,0.10134800000000155
25608,41.0,0.10134800000000155,36.0,0.10046300000000485
25609,47.0,0.10046300000000485,36.0,0.09874675000000366
25610,50.0,0.09874675000000366,37.0,0.09959991666666923
25611,56.0,0.09959991666666923,61.0,0.6043038333333541
25612,47.0,0.10134800000000155,37.0,0.10046300000000485
25613,50.0,0.10046300000000485,36.0,0.09874675000000366
25614,44.0,0.09874675000000366,36.0,0.10046300000000485
25615,47.0,0.10046300000000485,36.0,0.10193683333333325
25616,50.0,0.10193683333333325,34.0,0.10134625000000597
25617,55.0,0.10134625000000597,57.0,0.6367970833333416
25618,47.0,0.10046983333333515,33.0,0.10164241666667095
25619,50.0,0.10164241666667095,33.0,0.10284983333333031
25620,43.0,0.10284983333333031,31.0,0.10570466666666789
25621,47.0,0.10570466666666789,31.0,0.10764266666667055
25622,50.0,0.10764266666667055,31.0,0.11848766666666677
25623,55.0,0.11848766666666677,67.0,0.6060183333333313
25624,48.0,0.10134800000000155,29.0,0.10134800000000155
25625,52.0,0.10134800000000155,30.0,0.10134799999999444
25626,43.0,0.10134799999999444,31.0,0.10075566666666447
25627,48.0,0.10075566666666447,31.0,0.10075566666667157
25628,52.0,0.10075566666667157,33.0,0.10046299999999775
25629,53.0,0.10046299999999775,62.0,0.5982166666666799
25630,48.0,0.09902950000000033,34.0,0.09902950000000033
25631,50.0,0.09902950000000033,35.0,0.10134800000000155
25632,41.0,0.10134800000000155,36.0,0.10046300000000485
25633,48.0,0.10046300000000485,36.0,0.09874675000000366
25634,50.0,0.09874675000000366,37.0,0.09959991666666923
25635,57.0,0.09959991666666923,69.0,0.6043038333333541
25636,48.0,0.10134800000000155,37.0,0.10046300000000485
25637,50.0,0.10046300000000485,36.0,0.09874675000000366
25638,45.0,0.09874675000000366,36.0,0.10046300000000485
25639,48.0,0.10046300000000485,36.0,0.10193683333333325
25640,50.0,0.10193683333333325,34.0,0.10134625000000597
25641,55.0,0.10134625000000597,67.0,0.6162620833333392
25642,47.0,0.10046983333333515,33.0,0.10164241666667095
25643,53.0,0.10164241666667095,33.0,0.10284983333333031
25644,43.0,0.10284983333333031,31.0,0.10376666666666523
25645,47.0,0.10376666666666523,31.0,0.10376666666666523
25646,53.0,0.10376666666666523,31.0,0.10376666666667234
25647,55.0,0.10376666666667234,72.0,0.6060183333333313
25648,48.0,0.10134800000000155,36.0,0.10134800000000155
25649,52.0,0.10134800000000155,36.0,0.10134799999999444
25650,43.0,0.10134799999999444,38.0,0.10075566666666447
25651,48.0,0.10075566666666447,38.0,0.10075566666667157
25652,52.0,0.10075566666667157,39.0,0.10046299999999775
25653,60.0,0.10046299999999775,74.0,0.5982166666666799
25654,52.0,0.09902950000000033,40.0,0.09902950000000033
25655,55.0,0.09902950000000033,40.0,0.10134800000000155
25656,48.0,0.10134800000000155,42.0,0.10046300000000485
25657,52.0,0.10046300000000485,42.0,0.09874675000000366
25658,55.0,0.09874675000000366,44.0,0.09959991666666923
25659,62.0,0.09959991666666923,82.0,0.6043038333333328
25660,54.0,0.10134800000000155,45.0,0.10046300000000485
25661,57.0,0.10046300000000485,45.0,0.09874675000000366
25662,48.0,0.09874675000000366,46.0,0.10046299999999064
25663,54.0,0.10046299999999064,46.0,0.10193683333334036
25664,57.0,0.10193683333334036,48.0,0.10134624999999176
25665,63.0,0.10134624999999176,79.0,0.6017437499999971
25666,54.0,0.10046983333333515,49.0,0.10164241666666385
25667,57.0,0.10164241666666385,49.0,0.10254299999999716
25668,47.0,0.10254299999999716,50.0,0.09902950000000033
25669,54.0,0.09902950000000033,50.0,0.09902950000000033
25670,57.0,0.09902950000000033,52.0,0.09902950000000033
25671,63.0,0.09902950000000033,84.0,0.6060183333333384
25672,52.0,0.10134800000000155,52.0,0.10134800000000155
25673,56.0,0.10134800000000155,53.0,0.10134800000000155
25674,44.0,0.10134800000000155,53.0,0.10075566666667157
25675,52.0,0.10075566666667157,53.0,0.10075566666665736
25676,56.0,0.10075566666665736,55.0,0.10046300000000485
25677,61.0,0.10046300000000485,82.0,0.5982166666666586
25678,52.0,0.09902950000000033,57.0,0.09902950000000033
25679,56.0,0.09902950000000033,57.0,0.10134800000000155
25680,44.0,0.10134800000000155,58.0,0.10046299999999064
25681,52.0,0.10046299999999064,58.0,0.09874675000000366
25682,56.0,0.09874675000000366,59.0,0.09959991666666212
25683,64.0,0.09959991666666212,86.0,0.6043038333333186
25684,49.0,0.10134800000000155,59.0,0.10046299999999064
25685,52.0,0.10046299999999064,60.0,0.09874675000000366
25686,44.0,0.09874675000000366,60.0,0.10046299999999064
25687,49.0,0.10046299999999064,62.0,0.10193683333334036
25688,52.0,0.10193683333334036,62.0,0.10134624999999176
25689,56.0,0.10134624999999176,79.0,0.6259520833333454
25690,49.0,0.10046983333333515,53.0,0.10164241666666385
25691,52.0,0.10164241666666385,53.0,0.10284983333333741
25692,44.0,0.10284983333333741,53.0,0.10570466666666789
25693,49.0,0.10570466666666789,52.0,0.10764266666666344
25694,52.0,0.10764266666666344,53.0,0.10764266666667766
25695,61.0,0.10764266666667766,84.0,0.6060183333333384
25696,51.0,0.10134800000000155,52.0,0.10134800000000155
25697,54.0,0.10134800000000155,53.0,0.10134800000000155
25698,42.0,0.10134800000000155,53.0,0.10075566666667157
25699,51.0,0.10075566666667157,53.0,0.10075566666665736
25700,54.0,0.10075566666665736,55.0,0.10046300000000485
25701,59.0,0.10046300000000485,81.0,0.5982166666666586
25702,51.0,0.09902950000000033,57.0,0.09902950000000033
25703,54.0,0.09902950000000033,57.0,0.10134800000000155
25704,42.0,0.10134800000000155,58.0,0.10046299999999064
25705,51.0,0.10046299999999064,58.0,0.09874675000000366
25706,54.0,0.09874675000000366,59.0,0.09959991666666212
25707,63.0,0.09959991666666212,82.0,0.6043038333333186
25708,47.0,0.10134800000000155,59.0,0.10046299999999064
25709,51.0,0.10046299999999064,60.0,0.09874675000000366
25710,42.0,0.09874675000000366,60.0,0.10046299999999064
25711,47.0,0.10046299999999064,62.0,0.10193683333334036
25712,51.0,0.10193683333334036,62.0,0.10134624999999176
25713,54.0,0.10134624999999176,79.0,0.6259520833333454
25714,47.0,0.10046983333333515,57.0,0.10164241666666385
25715,51.0,0.10164241666666385,57.0,0.10284983333333741
25716,42.0,0.10284983333333741,57.0,0.10570466666666789
25717,47.0,0.10570466666666789,57.0,0.10764266666666344
25718,51.0,0.10764266666666344,57.0,0.10764266666667766
25719,54.0,0.10764266666667766,84.0,0.6060183333333384
25720,46.0,0.10134800000000155,52.0,0.10134800000000155
25721,49.0,0.10134800000000155,53.0,0.10134800000000155
25722,40.0,0.10134800000000155,53.0,0.10075566666667157
25723,46.0,0.10075566666667157,53.0,0.10075566666665736
25724,49.0,0.10075566666665736,55.0,0.10046300000000485
25725,55.0,0.10046300000000485,81.0,0.5982166666666586
25726,46.0,0.09902950000000033,57.0,0.09902950000000033
25727,49.0,0.09902950000000033,57.0,0.10134800000000155
25728,40.0,0.10134800000000155,58.0,0.10046299999999064
25729,46.0,0.10046299999999064,58.0,0.09874675000000366
25730,49.0,0.09874675000000366,59.0,0.09959991666666212
25731,56.0,0.09959991666666212,82.0,0.6043038333333186
25732,46.0,0.10134800000000155,59.0,0.10046299999999064
25733,49.0,0.10046299999999064,60.0,0.09874675000000366
25734,40.0,0.09874675000000366,60.0,0.10046299999999064
25735,46.0,0.10046299999999064,62.0,0.10193683333334036
25736,49.0,0.10193683333334036,62.0,0.10134624999999176
25737,54.0,0.10134624999999176,79.0,0.6259520833333454
25738,46.0,0.10046983333333515,57.0,0.10164241666666385
25739,49.0,0.10164241666666385,57.0,0.10284983333333741
25740,40.0,0.10284983333333741,57.0,0.10570466666666789
25741,46.0,0.10570466666666789,57.0,0.10764266666666344
25742,49.0,0.10764266666666344,57.0,0.10764266666667766
25743,52.0,0.10764266666667766,84.0,0.6060183333333384
25744,44.0,0.10134800000000155,50.0,0.10134800000000155
25745,32.0,0.050674000000000774,40.0,0.15202200000000232
25746,47.0,0.050674000000000774,50.0,0.10134800000000155
25747,40.0,0.10134800000000155,50.0,0.15113350000000025
25748,44.0,0.10075566666667157,50.0,0.10075566666665736
25749,32.0,0.05037783333332868,40.0,0.15084083333333353
25750,47.0,0.05037783333332868,50.0,0.10046300000000485
25751,51.0,0.10046300000000485,77.0,0.5982166666666586
25752,44.0,0.09902950000000033,49.0,0.09902950000000033
25753,32.0,0.04951475000000016,40.0,0.1508627500000017
25754,47.0,0.04951475000000016,49.0,0.10134800000000155
25755,39.0,0.10134800000000155,49.0,0.10046299999999064
25756,44.0,0.10046299999999064,49.0,0.09874675000000366
25757,47.0,0.09874675000000366,49.0,0.09959991666666212
25758,51.0,0.09959991666666212,75.0,0.6043038333333186
25759,42.0,0.10134800000000155,48.0,0.10046299999999064
25760,32.0,0.05037783333332868,39.0,0.14883191666666562
25761,44.0,0.05008516666666196,48.0,0.09874675000000366
25762,39.0,0.09874675000000366,48.0,0.15143141666665372
25763,42.0,0.10046299999999064,48.0,0.10193683333334036
25764,30.0,0.050968416666663074,39.0,0.15231466666666904
25765,44.0,0.050968416666677285,48.0,0.10134624999999176
25766,63.0,0.10134624999999176,82.0,0.6017437499999971
25767,54.0,0.10046983333333515,49.0,0.10164241666666385
25768,32.0,0.050674000000000774,44.0,0.15351141666666024
25769,56.0,0.050968416666663074,49.0,0.10254299999999716
25770,51.0,0.10254299999999716,50.0,0.09902950000000033
25771,54.0,0.09902950000000033,50.0,0.09902950000000033
25772,56.0,0.09902950000000033,52.0,0.09902950000000033
25773,63.0,0.09902950000000033,84.0,0.6060183333333384
25774,52.0,0.10134800000000155,52.0,0.10134800000000155
25775,56.0,0.10134800000000155,53.0,0.10134800000000155
25776,44.0,0.10134800000000155,53.0,0.10075566666667157
25777,52.0,0.10075566666667157,53.0,0.10075566666665736
25778,56.0,0.10075566666665736,55.0,0.10046300000000485
25779,61.0,0.10046300000000485,82.0,0.5982166666666586
25780,52.0,0.09902950000000033,57.0,0.09902950000000033
25781,56.0,0.09902950000000033,57.0,0.10134800000000155
25782,44.0,0.10134800000000155,58.0,0.10046299999999064
25783,52.0,0.10046299999999064,58.0,0.09874675000000366
25784,56.0,0.09874675000000366,59.0,0.09959991666666212
25785,64.0,0.09959991666666212,86.0,0.6043038333333186
25786,49.0,0.10134800000000155,57.0,0.10046299999999064
25787,52.0,0.10046299999999064,57.0,0.09874675000000366
25788,43.0,0.09874675000000366,55.0,0.10046299999999064
25789,49.0,0.10046299999999064,55.0,0.10193683333334036
25790,52.0,0.10193683333334036,55.0,0.10134624999999176
25791,55.0,0.10134624999999176,79.0,0.6259520833333454
25792,49.0,0.10046983333333515,53.0,0.10164241666666385
25793,52.0,0.10164241666666385,53.0,0.10284983333333741
25794,43.0,0.10284983333333741,53.0,0.10570466666666789
25795,49.0,0.10570466666666789,52.0,0.10764266666666344
25796,52.0,0.10764266666666344,53.0,0.10764266666667766
25797,61.0,0.10764266666667766,74.0,0.6060183333333384
25798,51.0,0.10134800000000155,52.0,0.10134800000000155
25799,54.0,0.10134800000000155,53.0,0.10134800000000155
25800,42.0,0.10134800000000155,53.0,0.10075566666667157
25801,51.0,0.10075566666667157,53.0,0.10075566666665736
25802,54.0,0.10075566666665736,55.0,0.10046300000000485
25803,59.0,0.10046300000000485,78.0,0.5982166666666586
25804,51.0,0.09902950000000033,52.0,0.09902950000000033
25805,54.0,0.09902950000000033,52.0,0.10134800000000155
25806,42.0,0.10134800000000155,53.0,0.10046299999999064
25807,51.0,0.10046299999999064,53.0,0.09874675000000366
25808,54.0,0.09874675000000366,53.0,0.09959991666666212
25809,63.0,0.09959991666666212,82.0,0.6043038333333186
25810,47.0,0.10134800000000155,55.0,0.10046299999999064
25811,51.0,0.10046299999999064,56.0,0.09874675000000366
25812,42.0,0.09874675000000366,56.0,0.10046299999999064
25813,47.0,0.10046299999999064,56.0,0.10193683333334036
25814,51.0,0.10193683333334036,57.0,0.10134624999999176
25815,54.0,0.10134624999999176,79.0,0.6144320833333268
25816,47.0,0.10046983333333515,58.0,0.10164241666666385
25817,51.0,0.10164241666666385,57.0,0.10284983333333741
25818,42.0,0.10284983333333741,57.0,0.10315666666666345
25819,47.0,0.10315666666666345,57.0,0.10315666666666345
25820,51.0,0.10315666666666345,57.0,0.10315666666666345
25821,54.0,0.10315666666666345,69.0,0.6048676666666779
25822,48.0,0.10048316666666324,40.0,0.10193683333334036
25823,36.0,0.050968416666677285,36.0,0.15231641666666462
25824,51.0,0.050968416666663074,41.0,0.10134800000000155
25825,42.0,0.10134800000000155,41.0,0.15113350000000025
25826,48.0,0.10075566666667157,42.0,0.10046299999999064
25827,36.0,0.05037783333332868,38.0,0.1499661666666725
25828,51.0,0.05008516666666196,42.0,0.09988100000001054
25829,56.0,0.09988100000001054,64.0,0.5899909166666646
25830,48.0,0.09959166666666874,45.0,0.09902950000000033
25831,36.0,0.04951475000000016,39.0,0.14797875000000715
25832,51.0,0.04951475000000016,45.0,0.09846400000000699
25833,42.0,0.09846400000000699,46.0,0.09818441666665478
25834,48.0,0.09818441666665478,46.0,0.0976331666666681
25835,51.0,0.0976331666666681,47.0,0.09708816666666564
25836,57.0,0.09708816666666564,73.0,0.5948164166666743
25837,48.0,0.09708816666667985,48.0,0.098184416666669
25838,36.0,0.0489524166666655,42.0,0.14826150000000382
25839,51.0,0.049232000000003495,49.0,0.09902950000000033
25840,42.0,0.09902950000000033,49.0,0.15025883333332501
25841,48.0,0.09988099999999633,50.0,0.10046299999999064
25842,36.0,0.05037783333332868,44.0,0.1502555000000001
25843,52.0,0.09902950000000033,44.0,0.10134800000000155
25844,42.0,0.10134800000000155,44.0,0.10046299999999064
25845,49.0,0.10046299999999064,44.0,0.09874675000000366
25846,52.0,0.09874675000000366,44.0,0.09959991666666212
25847,63.0,0.09959991666666212,73.0,0.6043038333333186
25848,49.0,0.10134800000000155,44.0,0.10046299999999064
25849,52.0,0.10046299999999064,44.0,0.09874675000000366
25850,42.0,0.09874675000000366,44.0,0.10046299999999064
25851,49.0,0.10046299999999064,44.0,0.10193683333334036
25852,52.0,0.10193683333334036,44.0,0.10134624999999176
25853,58.0,0.10134624999999176,69.0,0.6259520833333454
25854,49.0,0.10046983333333515,42.0,0.10164241666666385
25855,52.0,0.10164241666666385,40.0,0.10284983333333741
25856,40.0,0.10284983333333741,41.0,0.10570466666666789
25857,34.0,0.10570466666666789,41.0,0.10764266666666344
25858,30.0,0.10764266666666344,41.0,0.10764266666667766
25859,59.0,0.10764266666667766,72.0,0.6060183333333384
25860,47.0,0.10134800000000155,36.0,0.10134800000000155
25861,51.0,0.10134800000000155,36.0,0.10134800000000155
25862,42.0,0.10134800000000155,36.0,0.10075566666667157
25863,35.0,0.10075566666667157,36.0,0.10075566666665736
25864,51.0,0.10075566666665736,37.0,0.10046300000000485
25865,54.0,0.10046300000000485,61.0,0.5982166666666586
25866,47.0,0.09902950000000033,33.0,0.09902950000000033
25867,51.0,0.09902950000000033,34.0,0.10134800000000155
25868,42.0,0.10134800000000155,34.0,0.10046299999999064
25869,47.0,0.10046299999999064,35.0,0.09874675000000366
25870,51.0,0.09874675000000366,35.0,0.09959991666666212
25871,54.0,0.09959991666666212,64.0,0.6043038333333186
25872,47.0,0.10134800000000155,36.0,0.10046299999999064
25873,51.0,0.10046299999999064,37.0,0.09874675000000366
25874,42.0,0.09874675000000366,37.0,0.10046299999999064
25875,47.0,0.10046299999999064,38.0,0.10193683333334036
25876,51.0,0.10193683333334036,38.0,0.10134624999999176
25877,54.0,0.10134624999999176,69.0,0.6144320833333268
25878,47.0,0.10046983333333515,39.0,0.10164241666666385
25879,51.0,0.10164241666666385,40.0,0.10284983333333741
25880,42.0,0.10284983333333741,40.0,0.10315666666666345
25881,47.0,0.10315666666666345,41.0,0.10315666666666345
25882,51.0,0.10315666666666345,41.0,0.10315666666666345
25883,56.0,0.10315666666666345,75.0,0.6060183333333384
25884,49.0,0.10134800000000155,44.0,0.10134800000000155
25885,52.0,0.10134800000000155,42.0,0.10134800000000155
25886,42.0,0.10134800000000155,42.0,0.10075566666667157
25887,49.0,0.10075566666667157,41.0,0.10075566666665736
25888,52.0,0.10075566666665736,40.0,0.10046300000000485
25889,54.0,0.10046300000000485,61.0,0.6196532499999989
25890,49.0,0.09902950000000033,39.0,0.09902950000000033
25891,52.0,0.09902950000000033,39.0,0.09902950000000033
25892,42.0,0.09902950000000033,38.0,0.1089918333333344
25893,49.0,0.1089918333333344,37.0,0.1089918333333344
25894,52.0,0.1089918333333344,37.0,0.10458108333332916
25895,68.0,0.10458108333332916,66.0,0.6043038333333186
25896,49.0,0.10134800000000155,31.0,0.10046299999999064
25897,52.0,0.10046299999999064,31.0,0.09874675000000366
25898,42.0,0.09874675000000366,31.0,0.10046299999999064
25899,49.0,0.10046299999999064,31.0,0.10193683333334036
25900,52.0,0.10193683333334036,31.0,0.10134624999999176
25901,58.0,0.10134624999999176,61.0,0.6259520833333454
25902,49.0,0.10046983333333515,34.0,0.10164241666666385
25903,52.0,0.10164241666666385,34.0,0.10284983333333741
25904,42.0,0.10284983333333741,34.0,0.10570466666666789
25905,49.0,0.10570466666666789,34.0,0.10764266666666344
25906,52.0,0.10764266666666344,34.0,0.10764266666667766
25907,59.0,0.10764266666667766,64.0,0.6060183333333384
25908,47.0,0.10134800000000155,35.0,0.10134800000000155
25909,51.0,0.10134800000000155,35.0,0.10134800000000155
25910,42.0,0.10134800000000155,35.0,0.10075566666667157
25911,47.0,0.10075566666667157,35.0,0.10075566666665736
25912,51.0,0.10075566666665736,34.0,0.10046300000000485
25913,54.0,0.10046300000000485,55.0,0.5982166666666586
25914,47.0,0.09902950000000033,34.0,0.09902950000000033
25915,51.0,0.09902950000000033,34.0,0.10134800000000155
25916,42.0,0.10134800000000155,34.0,0.10046299999999064
25917,47.0,0.10046299999999064,33.0,0.09874675000000366
25918,51.0,0.09874675000000366,33.0,0.09959991666666212
25919,56.0,0.09959991666666212,55.0,0.6043038333333186
25920,47.0,0.10134800000000155,33.0,0.10046299999999064
25921,51.0,0.10046299999999064,31.0,0.09874675000000366
25922,42.0,0.09874675000000366,31.0,0.10046299999999064
25923,47.0,0.10046299999999064,31.0,0.10193683333334036
25924,51.0,0.10193683333334036,31.0,0.10134624999999176
25925,54.0,0.10134624999999176,56.0,0.6144320833333268
25926,47.0,0.10046983333333515,33.0,0.10164241666666385
25927,51.0,0.10164241666666385,33.0,0.10284983333333741
25928,42.0,0.10284983333333741,33.0,0.10315666666666345
25929,47.0,0.10315666666666345,33.0,0.10315666666666345
25930,51.0,0.10315666666666345,33.0,0.10315666666666345
25931,52.0,0.10315666666666345,60.0,0.6060183333333384
25932,42.0,0.10134800000000155,34.0,0.10134800000000155
25933,47.0,0.10134800000000155,34.0,0.10134800000000155
25934,40.0,0.10134800000000155,34.0,0.10075566666667157
25935,42.0,0.10075566666667157,34.0,0.10075566666665736
25936,47.0,0.10075566666665736,34.0,0.10046300000000485
25937,51.0,0.10046300000000485,51.0,0.5982166666666586
25938,42.0,0.09902950000000033,33.0,0.09902950000000033
25939,47.0,0.09902950000000033,33.0,0.10134800000000155
25940,39.0,0.10134800000000155,33.0,0.10046299999999064
25941,42.0,0.10046299999999064,33.0,0.09874675000000366
25942,47.0,0.09874675000000366,33.0,0.09959991666666212
25943,52.0,0.09959991666666212,57.0,0.6043038333333186
25944,42.0,0.10134800000000155,31.0,0.10046299999999064
25945,47.0,0.10046299999999064,31.0,0.09874675000000366
25946,40.0,0.09874675000000366,30.0,0.10046299999999064
25947,42.0,0.10046299999999064,30.0,0.10193683333334036
25948,47.0,0.10193683333334036,30.0,0.10134624999999176
25949,51.0,0.10134624999999176,51.0,0.6144320833333268
25950,42.0,0.10046983333333515,29.0,0.10164241666666385
25951,47.0,0.10164241666666385,29.0,0.10284983333333741
25952,39.0,0.10284983333333741,29.0,0.10315666666666345
25953,42.0,0.10315666666666345,29.0,0.10315666666666345
25954,47.0,0.10315666666666345,29.0,0.10315666666666345
25955,49.0,0.10315666666666345,61.0,0.6060183333333384
25956,39.0,0.10134800000000155,29.0,0.10134800000000155
25957,42.0,0.10134800000000155,29.0,0.10134800000000155
25958,37.0,0.10134800000000155,29.0,0.10075566666667157
25959,39.0,0.10075566666667157,29.0,0.10075566666665736
25960,42.0,0.10075566666665736,29.0,0.10046300000000485
25961,47.0,0.10046300000000485,49.0,0.5982166666666586
25962,39.0,0.09902950000000033,29.0,0.09902950000000033
25963,42.0,0.09902950000000033,29.0,0.10134800000000155
25964,35.0,0.10134800000000155,29.0,0.10046299999999064
25965,39.0,0.10046299999999064,29.0,0.09874675000000366
25966,42.0,0.09874675000000366,29.0,0.09959991666666212
25967,49.0,0.09959991666666212,52.0,0.6043038333333186
25968,39.0,0.10134800000000155,28.0,0.10046299999999064
25969,42.0,0.10046299999999064,28.0,0.09874675000000366
25970,37.0,0.09874675000000366,28.0,0.10046299999999064
25971,39.0,0.10046299999999064,28.0,0.10193683333334036
25972,42.0,0.10193683333334036,28.0,0.10134624999999176
25973,47.0,0.10134624999999176,49.0,0.6144320833333268
25974,39.0,0.10046983333333515,28.0,0.10164241666666385
25975,42.0,0.10164241666666385,28.0,0.10284983333333741
25976,35.0,0.10284983333333741,28.0,0.10315666666666345
25977,39.0,0.10315666666666345,28.0,0.10315666666666345
25978,42.0,0.10315666666666345,27.0,0.10315666666666345
25979,49.0,0.10315666666666345,55.0,0.6060183333333384
25980,39.0,0.10134800000000155,29.0,0.10134800000000155
25981,42.0,0.10134800000000155,29.0,0.10134800000000155
25982,37.0,0.10134800000000155,29.0,0.10075566666667157
25983,39.0,0.10075566666667157,29.0,0.10075566666665736
25984,42.0,0.10075566666665736,29.0,0.10046300000000485
25985,47.0,0.10046300000000485,40.0,0.5982166666666586
25986,39.0,0.09902950000000033,28.0,0.09902950000000033
25987,42.0,0.09902950000000033,28.0,0.10134800000000155
25988,35.0,0.10134800000000155,28.0,0.10046299999999064
25989,39.0,0.10046299999999064,28.0,0.09874675000000366
25990,42.0,0.09874675000000366,28.0,0.09959991666666212
25991,49.0,0.09959991666666212,50.0,0.6043038333333186
25992,39.0,0.10134800000000155,27.0,0.10046299999999064
25993,42.0,0.10046299999999064,27.0,0.09874675000000366
25994,37.0,0.09874675000000366,27.0,0.10046299999999064
25995,39.0,0.10046299999999064,27.0,0.10193683333334036
25996,42.0,0.10193683333334036,26.0,0.10134624999999176
25997,47.0,0.10134624999999176,42.0,0.6144320833333268
25998,39.0,0.10046983333333515,26.0,0.10164241666666385
25999,42.0,0.10164241666666385,26.0,0.10284983333333741
26000,35.0,0.10284983333333741,26.0,0.10315666666666345
26001,39.0,0.10315666666666345,26.0,0.10315666666666345
26002,42.0,0.10315666666666345,27.0,0.10315666666666345
26003,11.0,0.10315666666666345,35.0,0.103461666666675
26004,27.0,0.103461666666675,28.0,0.10376666666665812
26005,30.0,0.10376666666665812,28.0,0.10376666666667234
26006,35.0,0.10376666666667234,29.0,0.10315666666666345
26007,39.0,0.10315666666666345,30.0,0.10315666666666345
26008,42.0,0.10315666666666345,30.0,0.10284983333333741
26009,47.0,0.10284983333333741,31.0,0.10254299999999716
26010,51.0,0.10254299999999716,33.0,0.10223991666666166
26011,54.0,0.10223991666666166,33.0,0.10193683333334036
26012,59.0,0.10193683333334036,34.0,0.10193683333332615
26013,63.0,0.10193683333332615,35.0,0.10134800000000155
26014,66.0,0.10134800000000155,36.0,0.10134800000000155
26015,71.0,0.10134800000000155,44.0,0.10254299999999716
26016,66.0,0.10254299999999716,36.0,0.10254299999999716
26017,63.0,0.10254299999999716,35.0,0.10254300000001138
26018,59.0,0.10254300000001138,34.0,0.10254299999999716
26019,54.0,0.10254299999999716,33.0,0.10254299999999716
26020,51.0,0.10254299999999716,31.0,0.10254299999999716
26021,47.0,0.10254299999999716,37.0,0.103461666666675
26022,51.0,0.103461666666675,31.0,0.103461666666675
26023,54.0,0.103461666666675,33.0,0.1028498333333232
26024,59.0,0.1028498333333232,34.0,0.10223991666666166
26025,63.0,0.10223991666666166,35.0,0.10164241666667806
26026,66.0,0.10164241666667806,36.0,0.10105183333332945
26027,71.0,0.10105183333332945,40.0,0.10017033333333814
26028,66.0,0.10017033333333814,35.0,0.10046299999999064
26029,63.0,0.10046299999999064,34.0,0.10075566666667157
26030,59.0,0.10075566666667157,33.0,0.10134800000000155
26031,54.0,0.10134800000000155,31.0,0.10164241666666385
26032,51.0,0.10164241666666385,30.0,0.10193683333334036
26033,47.0,0.10193683333334036,34.0,0.10254299999999716
26034,51.0,0.10254299999999716,29.0,0.10315666666666345
26035,54.0,0.10315666666666345,30.0,0.10315666666666345
26036,59.0,0.10315666666666345,31.0,0.10284983333333741
26037,63.0,0.10284983333333741,33.0,0.10254299999999716
26038,66.0,0.10254299999999716,35.0,0.10254299999999716
26039,71.0,0.10254299999999716,40.0,0.10193683333334036
26040,66.0,0.10193683333334036,35.0,0.10193683333332615
26041,63.0,0.10193683333332615,34.0,0.10164241666666385
26042,59.0,0.10164241666666385,33.0,0.10134800000000155
26043,54.0,0.10134800000000155,31.0,0.10134800000000155
26044,51.0,0.10134800000000155,31.0,0.10193683333334036
26045,47.0,0.10193683333334036,34.0,0.10193683333332615
26046,51.0,0.10193683333332615,28.0,0.10223991666666166
26047,54.0,0.10223991666666166,30.0,0.10254299999999716
26048,59.0,0.10254299999999716,31.0,0.10254299999999716
26049,63.0,0.10254299999999716,33.0,0.10315666666666345
26050,66.0,0.10315666666666345,34.0,0.10315666666666345
26051,71.0,0.10315666666666345,39.0,0.10376666666667234
26052,66.0,0.10376666666667234,33.0,0.10376666666665812
26053,63.0,0.10376666666665812,33.0,0.10376666666667234
26054,59.0,0.10376666666667234,33.0,0.10376666666665812
26055,54.0,0.10376666666665812,31.0,0.10284983333333741
26056,51.0,0.10284983333333741,31.0,0.10223991666666166
26057,35.0,0.10223991666666166,35.0,0.10134800000000155
26058,51.0,0.10134800000000155,34.0,0.10134800000000155
26059,59.0,0.10134800000000155,35.0,0.10134800000000155
26060,63.0,0.10134800000000155,38.0,0.10105183333332945
26061,59.0,0.10105183333332945,36.0,0.10223991666666166
26062,51.0,0.10223991666666166,35.0,0.10315666666666345
26063,47.0,0.10315666666666345,35.0,0.10284983333333741
26064,51.0,0.10284983333333741,34.0,0.10223991666666166
26065,59.0,0.10223991666666166,37.0,0.10134625000000597
26066,63.0,0.10134625000000597,39.0,0.10164241666666385
26067,59.0,0.10164241666666385,38.0,0.10284983333333741
26068,51.0,0.10284983333333741,37.0,0.10439883333333455
26069,47.0,0.10439883333333455,37.0,0.10376666666667234
26070,51.0,0.10376666666667234,38.0,0.10284983333333741
26071,59.0,0.10284983333333741,41.0,0.10254299999999716
26072,63.0,0.10254299999999716,42.0,0.103461666666675
26073,59.0,0.103461666666675,42.0,0.10471300000000383
26074,51.0,0.10471300000000383,39.0,0.10598933333332639
26075,47.0,0.10598933333332639,39.0,0.10697483333333935
26076,51.0,0.10697483333333935,41.0,0.1063151666666613
26077,59.0,0.1063151666666613,42.0,0.10566350000000568
26078,63.0,0.10566350000000568,44.0,0.10471300000000383
26079,59.0,0.10471300000000383,40.0,0.10697891666666237
26080,51.0,0.10697891666666237,38.0,0.10797491666666303
26081,47.0,0.10797491666666303,37.0,0.10764266666666344
26082,51.0,0.10764266666666344,35.0,0.10697483333333935
26083,59.0,0.10697483333333935,37.0,0.1063151666666613
26084,63.0,0.1063151666666613,38.0,0.10598933333332639
26085,59.0,0.10598933333332639,35.0,0.1073087500000014
26086,51.0,0.1073087500000014,34.0,0.10864949999999851
26087,47.0,0.10864949999999851,33.0,0.11037533333333727
26088,51.0,0.11037533333333727,33.0,0.10968516666666517
26089,59.0,0.10968516666666517,34.0,0.1089918333333344
26090,63.0,0.1089918333333344,34.0,0.10697483333333935
26091,59.0,0.10697483333333935,33.0,0.10797491666666303
26092,51.0,0.10797491666666303,29.0,0.10864949999999851
26093,47.0,0.10864949999999851,29.0,0.11037533333333727
26094,51.0,0.11037533333333727,29.0,0.11003025000000832
26095,59.0,0.11003025000000832,30.0,0.10968516666666517
26096,63.0,0.10968516666666517,31.0,0.11264900000000466
26097,59.0,0.11264900000000466,30.0,0.11870691666666744
26098,51.0,0.11870691666666744,29.0,0.12248016666666217
26099,47.0,0.12248016666666217,39.0,0.371333000000007
26100,59.0,0.7426659999999998,41.0,0.371333000000007
26101,17.0,1.1374030000000062,26.0,0.20432619166665233
26102,18.0,0.20432619166665233,31.0,0.16647807500000056
26103,18.0,0.2248173249999894,33.0,1.013937541666678
26104,20.0,0.08695649999999944,27.0,0.08591218333333472
26105,18.0,0.08591218333333472,33.0,0.08518035000000168
26106,20.0,0.08518035000000168,27.0,0.08424723333332906
26107,18.0,0.08424723333332906,33.0,0.08354340833334106
26108,20.0,0.08354340833334106,27.0,0.0823737000000051
26109,18.0,0.0823737000000051,30.0,0.08223821666666709
26110,20.0,0.08223821666666709,24.0,0.0831267333333301
26111,18.0,0.0831267333333301,30.0,0.08431844999999782
26112,20.0,0.08431844999999782,26.0,0.0852527833333312
26113,18.0,0.0852527833333312,30.0,0.08650674999999808
26114,20.0,0.08650674999999808,26.0,0.0842812333333427
26115,11.0,0.0842812333333427,28.0,3.872628999999961
26116,23.0,0.2290165833333191,31.0,3.6436124166666417
26117,30.0,0.22169358333333378,35.0,3.421918833333308
26118,39.0,0.2163485833333283,33.0,3.2055702499999796
26119,47.0,0.23036224999998467,37.0,2.975207999999995
26120,51.0,0.0,51.0,0.3257060416666667
26121,51.0,0.3257060416666667,55.0,0.21026087500000012
26122,52.0,0.09907850000000007,46.0,0.11118237500000006
26123,50.0,0.09885374999999996,46.0,0.2086084791666667
26124,51.0,0.09862900000000008,46.0,0.10997947916666662
26125,54.0,0.09815466666666661,50.0,0.18985699999999994
26126,52.0,0.09459850000000003,46.0,0.09525849999999991
26127,51.0,0.09525849999999991,53.0,0.20980087500000022
26128,52.0,0.09861850000000016,49.0,0.11118237500000006
26129,50.0,0.09885374999999996,49.0,0.20831143749999992
26130,66.0,0.09878499999999946,82.0,0.2233958541666663
26131,68.0,0.11745366666666612,70.0,0.10594218750000017
26132,66.0,0.09417083333333309,70.0,0.20011302083333327
26133,65.0,0.09417083333333309,70.0,0.10594218750000017
26134,66.0,0.09417083333333309,66.0,0.19324933333333405
26135,62.0,0.09417083333333487,64.0,0.09907849999999918
26136,63.0,0.09907849999999918,68.0,0.20698545833333348
26137,64.0,0.09792933333333309,61.0,0.10905612500000039
26138,63.0,0.09701258333333307,61.0,0.20474020833333384
26139,62.0,0.09634833333333326,61.0,0.10839187500000058
26140,63.0,0.09634833333333326,61.0,0.19269666666666652
26141,58.0,0.09634833333333326,60.0,0.09634833333333326
26142,59.0,0.09634833333333326,70.0,0.2129000000000012
26143,61.0,0.10401500000000041,56.0,0.10888500000000079
26144,59.0,0.09678666666666658,56.0,0.20567166666666736
26145,58.0,0.09678666666666658,56.0,0.10888500000000079
26146,59.0,0.09678666666666658,58.0,0.19586516666666576
26147,55.0,0.09678666666666658,57.0,0.09907849999999918
26148,56.0,0.09907849999999918,61.0,0.20462704166666512
26149,58.0,0.09623516666666632,52.0,0.1083918749999988
26150,56.0,0.09634833333333326,52.0,0.20440639583333287
26151,55.0,0.09590683333333239,52.0,0.10849956250000048
26152,56.0,0.09634475000000009,53.0,0.19517316666666673
26153,52.0,0.0975839166666681,52.0,0.09758924999999863
26154,51.0,0.09758924999999863,60.0,0.2031898958333329
26155,52.0,0.0961219999999976,55.0,0.10706789583333531
26156,49.0,0.09524308333333664,52.0,0.20149743750000226
26157,46.0,0.09459900000000232,56.0,0.10689843749999994
26158,47.0,0.09502083333333289,57.0,0.19272483333333312
26159,49.0,0.09502083333333289,57.0,0.09770400000000024
26160,51.0,0.09770400000000024,60.0,0.20377829166666572
26161,52.0,0.09589566666666727,58.0,0.10788262499999846
26162,54.0,0.09589566666666727,60.0,0.20377829166666572
26163,56.0,0.09589566666666727,61.0,0.10788262499999846
26164,58.0,0.09589566666666371,61.0,0.19468066666666672
26165,59.0,0.09589566666666727,61.0,0.09878499999999946
26166,58.0,0.09878499999999946,68.0,0.20054068749999843
26167,59.0,0.09459850000000003,58.0,0.1059421874999984
26168,56.0,0.09417083333333309,58.0,0.20011302083333504
26169,54.0,0.09417083333333309,58.0,0.10594218750000195
26170,56.0,0.09417083333333309,61.0,0.19324933333333405
26171,52.0,0.09417083333333309,60.0,0.09907850000000096
26172,51.0,0.09907850000000096,64.0,0.20377829166666572
26173,52.0,0.09589566666666727,56.0,0.10788262499999846
26174,49.0,0.09589566666666727,53.0,0.20377829166666572
26175,51.0,0.09589566666666727,53.0,0.10788262499999846
26176,44.0,0.09589566666666371,57.0,0.19179133333333453
26177,46.0,0.09589566666666727,52.0,0.09589566666666727
26178,47.0,0.09589566666666727,60.0,0.19832022916666503
26179,49.0,0.0933271666666684,51.0,0.10499306249999663
26180,47.0,0.09332716666666485,51.0,0.19832022916666503
26181,46.0,0.0933271666666684,49.0,0.10499306249999663
26182,47.0,0.09332716666666485,51.0,0.19240566666666936
26183,48.0,0.0933271666666684,53.0,0.09907850000000096
26184,49.0,0.09907850000000096,60.0,0.20567166666666736
26185,51.0,0.09678666666666658,52.0,0.10888500000000079
26186,49.0,0.09678666666666658,52.0,0.20567166666666736
26187,51.0,0.09678666666666658,51.0,0.10888500000000079
26188,44.0,0.09678666666666658,49.0,0.19494133333333252
26189,46.0,0.09678666666666658,55.0,0.09815466666666595
26190,47.0,0.09815466666666595,60.0,0.19832022916666503
26191,49.0,0.0933271666666684,55.0,0.10499306249999663
26192,47.0,0.09332716666666485,49.0,0.19832022916666858
26193,46.0,0.0933271666666684,49.0,0.10499306250000018
26194,47.0,0.09332716666666485,51.0,0.19240566666666936
26195,48.0,0.0933271666666684,55.0,0.09907850000000096
26196,49.0,0.09907850000000096,60.0,0.20567166666666736
26197,51.0,0.09678666666666658,55.0,0.10888500000000079
26198,49.0,0.09678666666666658,55.0,0.20567166666666736
26199,51.0,0.09678666666666658,51.0,0.10888500000000079
26200,44.0,0.09678666666666658,51.0,0.19494133333333252
26201,46.0,0.09678666666666658,51.0,0.09815466666666595
26202,47.0,0.09815466666666595,60.0,0.19832022916666503
26203,49.0,0.0933271666666684,55.0,0.10499306249999663
26204,47.0,0.09332716666666485,50.0,0.19832022916666503
26205,46.0,0.0933271666666684,48.0,0.10499306249999663
26206,47.0,0.09332716666666485,51.0,0.19240566666666936
26207,49.0,0.0933271666666684,55.0,0.09907850000000096
26208,51.0,0.09907850000000096,60.0,0.20539939583333577
26209,52.0,0.09656749999999903,55.0,0.09667708333333636
26210,51.0,0.09667708333333636,50.0,0.20784187499999973
26211,50.0,0.09747125000000167,49.0,0.09804199999999952
26212,51.0,0.09804199999999952,52.0,0.1970084166666659
26213,52.0,0.09885374999999996,49.0,0.09815466666666595
26214,51.0,0.09815466666666595,57.0,0.3068653333333309
26215,52.0,0.10124083333333189,52.0,0.10224491666666324
26216,51.0,0.10224491666666324,51.0,0.10337958333333575
26217,50.0,0.10337958333333575,44.0,0.10454370833333115
26218,51.0,0.10454370833333115,46.0,0.10559520833333025
26219,52.0,0.10559520833333025,46.0,0.10695258333333513
26220,51.0,0.10695258333333513,48.0,0.10805625000000063
26221,52.0,0.10805625000000063,42.0,0.10947054166666348
26222,51.0,0.10947054166666348,39.0,0.11048558333333602
26223,52.0,0.11048558333333602,37.0,0.11556458333333097
26224,51.0,0.11556458333333097,36.0,0.12507708333333412
26225,52.0,0.12507708333333412,33.0,0.12419062499999711
26226,51.0,0.12419062499999711,53.0,0.21698516666666734
26227,52.0,0.10454783333333495,45.0,0.11243733333333239
26228,50.0,0.1001087083333303,45.0,0.2087168333333338
26229,51.0,0.09839183333333423,45.0,0.11032499999999956
26230,54.0,0.09839183333333423,49.0,0.19376991666666754
26231,52.0,0.09546533333333329,46.0,0.09830458333333425
26232,51.0,0.09830458333333425,55.0,0.2085400833333324
26233,52.0,0.0985104166666666,48.0,0.1100296666666658
26234,50.0,0.09781666666666311,48.0,0.20596635416666587
26235,51.0,0.09735487500000062,48.0,0.10861147916666525
26236,57.0,0.09678666666666658,51.0,0.19508441666666698
26237,58.0,0.09492279166666506,48.0,0.10016162500000192
26238,51.0,0.10016162500000192,57.0,0.20545724999999848
26239,52.0,0.0971255416666672,51.0,0.10833170833333128
26240,50.0,0.09634474999999654,47.0,0.2022615208333356
26241,51.0,0.09568050000000383,49.0,0.10658102083333176
26242,54.0,0.09480966666666646,52.0,0.19047283333333453
26243,52.0,0.09417083333333309,49.0,0.09630200000000144
26244,51.0,0.09630200000000144,58.0,0.19832022916666503
26245,52.0,0.0933271666666684,49.0,0.10499306249999663
26246,50.0,0.09332716666666485,50.0,0.19832022916666858
26247,51.0,0.0933271666666684,50.0,0.10499306250000018
26248,59.0,0.09332716666666485,53.0,0.19148183333333435
26249,56.0,0.0933271666666684,49.0,0.09815466666666595
26250,55.0,0.09815466666666595,60.0,0.1981151875000009
26251,56.0,0.09312212500000072,53.0,0.10499306250000018
26252,55.0,0.09332716666666485,55.0,0.19775989583333597
26253,54.0,0.09291708333333304,56.0,0.10484281250000294
26254,55.0,0.09312333333333456,57.0,0.1917742500000017
26255,58.0,0.09407025000000147,60.0,0.09770400000000024
26256,61.0,0.09770400000000024,68.0,0.20763481250000027
26257,63.0,0.10401500000000041,60.0,0.10361981249999985
26258,61.0,0.09210649999999987,61.0,0.19572631249999972
26259,60.0,0.09210649999999987,63.0,0.10361981249999985
26260,61.0,0.09210649999999987,62.0,0.19089149999999933
26261,64.0,0.09210649999999987,66.0,0.09878499999999946
26262,63.0,0.09878499999999946,70.0,0.22081868749999956
26263,64.0,0.11487650000000116,61.0,0.1059421874999984
26264,63.0,0.09417083333333309,61.0,0.20011302083333504
26265,62.0,0.09417083333333309,61.0,0.10594218750000195
26266,63.0,0.09417083333333309,62.0,0.19324933333333405
26267,58.0,0.09417083333333309,60.0,0.09907850000000096
26268,59.0,0.09907850000000096,63.0,0.20377829166666572
26269,61.0,0.09589566666666727,56.0,0.10788262499999846
26270,59.0,0.09589566666666727,56.0,0.20377829166666572
26271,58.0,0.09589566666666727,56.0,0.10788262499999846
26272,59.0,0.09589566666666371,57.0,0.19179133333333453
26273,55.0,0.09589566666666727,52.0,0.09589566666666727
26274,56.0,0.09589566666666727,59.0,0.205174958333334
26275,58.0,0.09656391666666764,51.0,0.10861104166666635
26276,56.0,0.09656749999999903,51.0,0.20384325000000203
26277,55.0,0.09612200000000115,52.0,0.10772125000000088
26278,56.0,0.09578808333333555,55.0,0.19026945833333286
26279,51.0,0.09535420833333319,50.0,0.09491524999999967
26280,52.0,0.09491524999999967,56.0,0.20215083333333084
26281,54.0,0.09480966666666646,51.0,0.10734116666666438
26282,52.0,0.09535420833332964,51.0,0.20467466666666922
26283,51.0,0.09600883333333599,51.0,0.10866583333333324
26284,52.0,0.09656749999999903,55.0,0.19668754166666602
26285,50.0,0.0971255416666672,51.0,0.09956199999999882
26286,51.0,0.09956199999999882,58.0,0.20434412499999866
26287,52.0,0.09634833333333503,52.0,0.10799579166666362
26288,51.0,0.09600883333333243,48.0,0.20291231250000052
26289,50.0,0.09568050000000028,48.0,0.10723181250000025
26290,51.0,0.09535420833333319,55.0,0.18961933333333292
26291,46.0,0.09502083333333289,50.0,0.09459850000000003
26292,47.0,0.09459850000000003,57.0,0.20011302083333504
26293,49.0,0.09417083333333309,49.0,0.10594218750000195
26294,47.0,0.09417083333333309,48.0,0.20011302083333504
26295,46.0,0.09417083333333309,46.0,0.10594218750000195
26296,47.0,0.09417083333333309,55.0,0.19232549999999904
26297,44.0,0.09417083333333309,46.0,0.09815466666666595
26298,43.0,0.09815466666666595,60.0,0.20043889583333296
26299,46.0,0.09480966666666646,55.0,0.1056292291666665
26300,49.0,0.09396333333333473,56.0,0.19755585416666577
26301,52.0,0.09302141666666586,58.0,0.10453443749999991
26302,55.0,0.09291950000000071,60.0,0.19248149999999953
26303,58.0,0.09291950000000071,61.0,0.09956199999999882
26304,61.0,0.09956199999999882,70.0,0.22062124999999355
26305,64.0,0.10778291666666462,60.0,0.11283833333332893
26306,63.0,0.10039308333332997,61.0,0.20905477083333324
26307,61.0,0.09908700000000081,62.0,0.10996777083333242
26308,59.0,0.09781295833333203,61.0,0.20007629166666874
26309,58.0,0.09656729166666977,62.0,0.10350899999999896
26310,61.0,0.10350899999999896,70.0,0.21307687500000227
26311,63.0,0.10350900000000252,67.0,0.10956787499999976
26312,59.0,0.09735487499999707,63.0,0.20893693750000253
26313,58.0,0.09792933333333309,63.0,0.11100760416666944
26314,59.0,0.09862279166667065,59.0,0.1993564166666637
26315,56.0,0.09932024999999811,53.0,0.1000361666666656
26316,55.0,0.1000361666666656,61.0,0.21353304166667186
26317,58.0,0.10015316666667218,49.0,0.11337987499999969
26318,56.0,0.1007561666666632,48.0,0.2165481666666622
26319,55.0,0.10149062499999673,48.0,0.11505754166666549
26320,56.0,0.10224491666667035,48.0,0.2080652499999971
26321,52.0,0.10300108333333213,45.0,0.10506416666666496
26322,51.0,0.10506416666666496,53.0,0.21717633333332742
26323,52.0,0.10250099999999662,44.0,0.1146753333333308
26324,50.0,0.10198883333332986,44.0,0.21446862499999497
26325,51.0,0.10149200000000036,44.0,0.11297662499999461
26326,54.0,0.10098966666666342,49.0,0.19592566666666045
26327,52.0,0.09589566666666371,45.0,0.10002999999999673
26328,51.0,0.10002999999999673,55.0,0.21085674999999782
26329,52.0,0.09956199999999882,46.0,0.111294749999999
26330,50.0,0.09896612499999691,46.0,0.20808610416666795
26331,51.0,0.09839183333333779,46.0,0.10969427083333017
26332,57.0,0.09781666666666666,51.0,0.19745112500000062
26333,58.0,0.09546229166667075,46.0,0.10198883333332986
26334,51.0,0.10198883333332986,57.0,0.2059591249999997
26335,52.0,0.09723850000000311,46.0,0.10872062499999657
26336,50.0,0.0966770833333328,46.0,0.2035725208333261
26337,51.0,0.09612199999999405,47.0,0.10745052083333206
26338,54.0,0.09557291666666856,52.0,0.19121725000000112
26339,52.0,0.09491524999999967,47.0,0.09630200000000144
26340,51.0,0.09630200000000144,53.0,0.19945837499999897
26341,52.0,0.0953879999999998,48.0,0.10407037499999916
26342,50.0,0.09250699999999767,49.0,0.19657737500000394
26343,51.0,0.09250700000000478,49.0,0.10407037499999916
26344,59.0,0.09250699999999767,53.0,0.19066166666666362
26345,56.0,0.09250699999999767,50.0,0.09815466666666595
26346,54.0,0.09815466666666595,60.0,0.19657737499999683
26347,56.0,0.09250699999999767,53.0,0.10407037499999916
26348,54.0,0.09250700000000478,56.0,0.19689093749999387
26349,53.0,0.09230674999999877,57.0,0.1045841874999951
26350,54.0,0.09291829166665622,60.0,0.1914564166666679
26351,58.0,0.09375241666666767,62.0,0.09770400000000024
26352,61.0,0.09770400000000024,70.0,0.19858891666667233
26353,63.0,0.09502083333333644,62.0,0.10356808333333589
26354,61.0,0.09210649999999987,64.0,0.1941533541666658
26355,60.0,0.09159429166666655,66.0,0.10255906249999924
26356,61.0,0.09119749999999982,64.0,0.1894883333333297
26357,68.0,0.09070333333333025,66.0,0.09878499999999946
26358,66.0,0.09878499999999946,82.0,0.22339585416666807
26359,68.0,0.11745366666666968,70.0,0.1059421874999984
26360,66.0,0.09417083333333665,70.0,0.20011302083332794
26361,65.0,0.09417083333332954,70.0,0.1059421874999984
26362,66.0,0.09417083333333665,66.0,0.19324933333332694
26363,62.0,0.09417083333332954,64.0,0.0990784999999974
26364,63.0,0.0990784999999974,69.0,0.20698545833333526
26365,64.0,0.09792933333333309,61.0,0.10905612500000217
26366,63.0,0.0970125833333384,61.0,0.20474020833333384
26367,62.0,0.09634833333333148,61.0,0.10839187500000236
26368,63.0,0.09634833333333859,61.0,0.19269666666666296
26369,58.0,0.09634833333333148,60.0,0.09634833333333148
26370,59.0,0.09634833333333148,66.0,0.21828487499999483
26371,61.0,0.11120999999999981,56.0,0.10707487499999502
26372,59.0,0.09514170833332969,56.0,0.2028638333333319
26373,58.0,0.09546533333333684,56.0,0.10739849999999507
26374,59.0,0.09546533333332974,58.0,0.19454383333333425
26375,55.0,0.09546533333333684,57.0,0.0990784999999974
26376,56.0,0.0990784999999974,61.0,0.20377829166666572
26377,58.0,0.09589566666666371,52.0,0.10788262500000201
26378,56.0,0.09589566666667082,52.0,0.20418006250000786
26379,55.0,0.09568050000000028,52.0,0.10849956250000758
26380,56.0,0.0963447500000072,53.0,0.19541579166666168
26381,52.0,0.09758391666666455,52.0,0.09783187499999713
26382,51.0,0.09783187499999713,60.0,0.2045115000000024
26383,52.0,0.09645633333333592,55.0,0.10805516666666648
26384,49.0,0.09612200000000115,52.0,0.20214152083333659
26385,46.0,0.09524308333333664,56.0,0.10689843749999994
26386,47.0,0.09502083333332934,57.0,0.19272483333333668
26387,49.0,0.09502083333333644,57.0,0.09770400000000024
26388,51.0,0.09770400000000024,63.0,0.20377829166666572
26389,52.0,0.09589566666666371,58.0,0.10788262500000201
26390,54.0,0.09589566666667082,60.0,0.20377829166666572
26391,56.0,0.09589566666666371,61.0,0.10788262500000201
26392,58.0,0.09589566666667082,61.0,0.19468066666666317
26393,59.0,0.09589566666666371,61.0,0.09878499999999946
26394,58.0,0.09878499999999946,68.0,0.20054068749999487
26395,59.0,0.09459849999999648,58.0,0.1059421874999984
26396,56.0,0.09417083333333665,58.0,0.20011302083332794
26397,54.0,0.09417083333332954,58.0,0.1059421874999984
26398,56.0,0.09417083333333665,61.0,0.19324933333332694
26399,52.0,0.09417083333332954,60.0,0.0990784999999974
26400,51.0,0.0990784999999974,62.0,0.20377829166666572
26401,52.0,0.09589566666666371,56.0,0.10788262500000201
26402,49.0,0.09589566666667082,53.0,0.20377829166666572
26403,51.0,0.09589566666666371,53.0,0.10788262500000201
26404,44.0,0.09589566666667082,57.0,0.19179133333332743
26405,46.0,0.09589566666666371,52.0,0.09589566666666371
26406,47.0,0.09589566666666371,60.0,0.19832022916666858
26407,49.0,0.0933271666666684,51.0,0.10499306250000018
26408,47.0,0.0933271666666684,51.0,0.19832022916666148
26409,46.0,0.0933271666666613,49.0,0.10499306250000018
26410,47.0,0.0933271666666684,51.0,0.1924056666666658
26411,48.0,0.0933271666666684,53.0,0.0990784999999974
26412,49.0,0.0990784999999974,60.0,0.20567166666666736
26413,51.0,0.09678666666666658,52.0,0.10888500000000079
26414,49.0,0.09678666666666658,52.0,0.20567166666666736
26415,51.0,0.09678666666666658,51.0,0.10888500000000079
26416,44.0,0.09678666666666658,49.0,0.19494133333333252
26417,56.0,0.09459850000000358,49.0,0.20102181249999518
26418,54.0,0.09459849999999648,46.0,0.1064233124999987
26419,52.0,0.09459850000000358,49.0,0.19367699999999388
26420,51.0,0.09459849999999648,49.0,0.0990784999999974
26421,49.0,0.0990784999999974,55.0,0.1998229791666688
26422,47.0,0.09419204166666617,49.0,0.10563093750000263
26423,46.0,0.09385958333333377,48.0,0.20123308333333512
26424,44.0,0.09438466666667011,45.0,0.106848416666665
26425,46.0,0.09491524999999967,42.0,0.19383516666666623
26426,47.0,0.09568050000000028,40.0,0.09815466666666595
26427,46.0,0.09815466666666595,56.0,0.20567166666666736
26428,58.0,0.09678666666666658,48.0,0.10888500000000079
26429,56.0,0.09678666666666658,49.0,0.20567166666666736
26430,55.0,0.09678666666666658,46.0,0.10888500000000079
26431,52.0,0.09678666666666658,49.0,0.19357333333333315
26432,51.0,0.09678666666666658,49.0,0.09678666666666658
26433,49.0,0.09678666666666658,52.0,0.203463416666672
26434,47.0,0.09524308333333664,49.0,0.10822033333333536
26435,46.0,0.09612200000000115,48.0,0.20773112500000224
26436,44.0,0.09724191666666826,45.0,0.11048920833333398
26437,46.0,0.09816058333333189,42.0,0.20220504166667297
26438,47.0,0.09920787500000472,40.0,0.10299716666666825
26439,46.0,0.10299716666666825,50.0,0.2297506249999941
26440,58.0,0.1187929999999966,48.0,0.1109576249999975
26441,56.0,0.09862900000000252,49.0,0.20958662500000003
26442,55.0,0.09862899999999541,46.0,0.11095762500000461
26443,52.0,0.09862900000000252,49.0,0.19702025000000134
26444,51.0,0.09862900000000252,49.0,0.09839124999999882
26445,49.0,0.09839124999999882,51.0,0.20864979166667297
26446,47.0,0.0979293333333402,49.0,0.11072045833333277
26447,46.0,0.09839183333333068,48.0,0.21091099999999585
26448,44.0,0.09896612499999691,45.0,0.11194487499999894
26449,46.0,0.09944112499999846,42.0,0.20066941666666338
26450,47.0,0.10002999999999673,40.0,0.10063941666666665
26451,46.0,0.10063941666666665,53.0,0.20958662500000003
26452,52.0,0.09862900000000252,49.0,0.1109576249999975
26453,51.0,0.09862899999999541,45.0,0.20958662500000003
26454,50.0,0.09862900000000252,42.0,0.1109576249999975
26455,51.0,0.09862900000000252,46.0,0.19770749999999282
26456,52.0,0.09862899999999541,49.0,0.0990784999999974
26457,51.0,0.0990784999999974,53.0,0.09656750000000613
26458,52.0,0.09656750000000613,49.0,0.0966770833333257
26459,51.0,0.0966770833333257,47.0,0.09747124999999812
26460,50.0,0.09747124999999812,47.0,0.09804200000000662
26461,51.0,0.09804200000000662,51.0,0.09885375000000352
26462,52.0,0.09885375000000352,49.0,0.09815466666666595
26463,51.0,0.09815466666666595,59.0,0.10124083333332834
26464,52.0,0.10124083333332834,56.0,0.10224491666667035
26465,51.0,0.10224491666667035,56.0,0.10337958333333575
26466,50.0,0.10337958333333575,49.0,0.10454370833333115
26467,51.0,0.10454370833333115,49.0,0.1055952083333338
26468,52.0,0.1055952083333338,50.0,0.10695258333333157
26469,51.0,0.10695258333333157,51.0,0.10805624999999708
26470,52.0,0.10805624999999708,46.0,0.10947054166667414
26471,51.0,0.10947054166667414,42.0,0.11048558333332892
26472,52.0,0.11048558333332892,39.0,0.11556458333333808
26473,51.0,0.11556458333333808,38.0,0.12507708333333056
26474,52.0,0.12507708333333056,35.0,0.12419062500000422
26475,51.0,0.12419062500000422,48.0,0.21698516666666734
26476,52.0,0.10454783333333495,41.0,0.11243733333333239
26477,50.0,0.1001087083333303,41.0,0.20866127083333197
26478,51.0,0.09839183333333779,40.0,0.11026943749999418
26479,54.0,0.09839183333333068,49.0,0.19094370833332874
26480,52.0,0.09502083333333644,46.0,0.0959228749999923
26481,51.0,0.0959228749999923,55.0,0.20888400000000473
26482,52.0,0.09862900000000252,48.0,0.11025500000000221
26483,50.0,0.09804199999999952,48.0,0.20641441666666793
26484,51.0,0.09747125000000523,48.0,0.1089431666666627
26485,57.0,0.09689962499999893,51.0,0.19393366666666623
26486,58.0,0.09623516666666632,48.0,0.09769849999999991
26487,51.0,0.09769849999999991,57.0,0.20545725000000914
26488,52.0,0.09712554166667076,51.0,0.10833170833333838
26489,50.0,0.0963447500000072,47.0,0.20226152083333915
26490,51.0,0.09568050000000028,49.0,0.10658102083333887
26491,54.0,0.09480966666667001,52.0,0.1904728333333381
26492,52.0,0.09417083333333665,49.0,0.09630200000000144
26493,51.0,0.09630200000000144,58.0,0.19832022916666858
26494,52.0,0.0933271666666684,49.0,0.10499306250000018
26495,50.0,0.0933271666666684,50.0,0.19832022916666148
26496,51.0,0.0933271666666613,50.0,0.10499306250000018
26497,59.0,0.0933271666666684,53.0,0.19148183333333435
26498,56.0,0.0933271666666684,49.0,0.09815466666666595
26499,55.0,0.09815466666666595,60.0,0.1981151875000009
26500,56.0,0.09312212500000072,53.0,0.10499306250000018
26501,55.0,0.0933271666666684,55.0,0.19775989583332887
26502,54.0,0.09291708333333304,56.0,0.10484281249999583
26503,55.0,0.093123333333331,57.0,0.1917742499999946
26504,58.0,0.09407024999999436,60.0,0.09770400000000024
26505,61.0,0.09770400000000024,68.0,0.2076348124999967
26506,63.0,0.10401499999999686,60.0,0.10361981249999985
26507,61.0,0.09210649999999987,61.0,0.19572631249999972
26508,60.0,0.09210649999999987,63.0,0.10361981249999985
26509,61.0,0.09210649999999987,62.0,0.19089149999999933
26510,64.0,0.09210649999999987,66.0,0.09878499999999946
26511,63.0,0.09878499999999946,72.0,0.22081868749999956
26512,64.0,0.11487650000000116,61.0,0.1059421874999984
26513,63.0,0.09417083333333665,61.0,0.20011302083332794
26514,62.0,0.09417083333332954,61.0,0.1059421874999984
26515,63.0,0.09417083333333665,62.0,0.19324933333332694
26516,58.0,0.09417083333332954,60.0,0.0990784999999974
26517,59.0,0.0990784999999974,64.0,0.20377829166666572
26518,61.0,0.09589566666666371,56.0,0.10788262500000201
26519,59.0,0.09589566666667082,56.0,0.20377829166666572
26520,58.0,0.09589566666666371,56.0,0.10788262500000201
26521,59.0,0.09589566666667082,57.0,0.19179133333332743
26522,55.0,0.09589566666666371,52.0,0.09589566666666371
26523,56.0,0.09589566666666371,60.0,0.20323860416667117
26524,58.0,0.09589566666666371,51.0,0.10734293750000745
26525,56.0,0.09546533333333684,51.0,0.20139068750000888
26526,55.0,0.09502083333333644,52.0,0.10636985416667244
26527,56.0,0.09459850000000358,55.0,0.18792666666666946
26528,51.0,0.09417083333333665,50.0,0.09375583333333282
26529,52.0,0.09375583333333282,60.0,0.19874718750000397
26530,54.0,0.0933271666666684,51.0,0.10542002083333557
26531,52.0,0.09364866666666671,51.0,0.2009650208333369
26532,51.0,0.09427775000000338,51.0,0.10668727083333351
26533,52.0,0.0948096666666629,55.0,0.1949162083333391
26534,50.0,0.09535420833333319,51.0,0.09956200000000592
26535,51.0,0.09956200000000592,60.0,0.2023109791666684
26536,52.0,0.09546533333333684,52.0,0.10684564583333156
26537,51.0,0.09502083333333644,48.0,0.20048881250001216
26538,50.0,0.09459850000000358,48.0,0.10589031250000858
26539,51.0,0.09417083333333665,55.0,0.18698108333333607
26540,46.0,0.09375583333333282,50.0,0.09322525000000326
26541,47.0,0.09322525000000326,57.0,0.19745393750000062
26542,49.0,0.09291950000000782,49.0,0.1045344374999928
26543,47.0,0.0929194999999936,48.0,0.19745393750000062
26544,46.0,0.0929194999999936,46.0,0.10453443750000702
26545,47.0,0.09291950000000782,55.0,0.19107416666666666
26546,44.0,0.0929194999999936,46.0,0.09815466666667305
26547,43.0,0.09815466666667305,60.0,0.2004388958333294
26548,46.0,0.0948096666666629,55.0,0.1056292291666665
26549,49.0,0.09396333333333473,56.0,0.19755585416666577
26550,52.0,0.09302141666665875,58.0,0.10453443750000702
26551,55.0,0.09291950000000782,60.0,0.19248149999999953
26552,58.0,0.0929194999999936,61.0,0.09956200000000592
26553,61.0,0.09956200000000592,70.0,0.22062125000000776
26554,64.0,0.10778291666667883,60.0,0.07538558333332901
26555,63.0,0.10039308333332997,61.0,0.20905477083333324
26556,61.0,0.09908699999999726,62.0,0.07350333333333481
26557,59.0,0.09781295833333559,61.0,0.20007629166666163
26558,58.0,0.09656729166665912,62.0,0.07763174999999478
26559,61.0,0.10350900000000252,69.0,0.21307687499999872
26560,63.0,0.10350900000000252,67.0,0.1095678749999962
26561,59.0,0.09735487500000772,64.0,0.20893693749999898
26562,58.0,0.09792933333332599,66.0,0.11100760416667299
26563,59.0,0.09862279166667065,61.0,0.19935641666666015
26564,56.0,0.099320249999991,57.0,0.10003616666666915
26565,55.0,0.10003616666666915,64.0,0.2140258541666782
26566,58.0,0.10015316666667218,52.0,0.11387268750000601
26567,56.0,0.101124083333346,51.0,0.22016602083334647
26568,55.0,0.10274900000000287,52.0,0.1174170208333436
26569,56.0,0.10428400000002114,52.0,0.21146220833333018
26570,52.0,0.10586554166665962,50.0,0.10559666666667056
26571,51.0,0.10559666666667056,60.0,0.21717633333334163
26572,52.0,0.10250100000000373,49.0,0.1146753333333379
26573,50.0,0.10198883333333697,49.0,0.21452520833332756
26574,51.0,0.10149199999999325,49.0,0.1130332083333343
26575,54.0,0.10098966666666342,55.0,0.19637833333334243
26576,52.0,0.09634833333333859,49.0,0.10003000000000384
26577,51.0,0.10003000000000384,60.0,0.20899666666667827
26578,52.0,0.09862900000000252,50.0,0.11036766666667575
26579,50.0,0.09815466666667305,50.0,0.20692945833333454
26580,51.0,0.09770399999999313,50.0,0.10922545833334141
26581,57.0,0.09723850000000311,55.0,0.19799766666666585
26582,58.0,0.09600883333332888,49.0,0.10198883333333697
26583,51.0,0.10198883333333697,60.0,0.2059591250000068
26584,52.0,0.09723850000000311,49.0,0.10872062500000368
26585,50.0,0.0966770833333328,49.0,0.20357252083334743
26586,51.0,0.09612200000000826,49.0,0.10745052083333917
26587,54.0,0.09557291666666856,55.0,0.191217249999994
26588,52.0,0.09491524999999967,49.0,0.09630199999999434
26589,51.0,0.09630199999999434,57.0,0.19657737500000394
26590,52.0,0.09250699999999767,50.0,0.10407037500000627
26591,50.0,0.09250699999999767,50.0,0.19657737500000394
26592,51.0,0.09250699999999767,50.0,0.10407037500000627
26593,59.0,0.09250700000001189,55.0,0.19066166666667073
26594,56.0,0.09250699999999767,51.0,0.09815466666667305
26595,55.0,0.09815466666667305,60.0,0.19912660416666483
26596,56.0,0.09375583333333282,53.0,0.10537077083333202
26597,55.0,0.09375583333333282,56.0,0.20083195833332468
26598,54.0,0.09354333333332931,57.0,0.10728862499999536
26599,55.0,0.09524508333332449,60.0,0.19483604166666169
26600,58.0,0.09713204166666856,62.0,0.09770399999999313
26601,61.0,0.09770399999999313,70.0,0.2031288125000117
26602,63.0,0.09723850000000311,62.0,0.10589031250000858
26603,61.0,0.09417083333333665,64.0,0.19869793750000042
26604,60.0,0.09375583333333282,66.0,0.1049421041666676
26605,61.0,0.0933271666666684,64.0,0.19160137500000474
26606,64.0,0.09281637499999817,66.0,0.09878500000000656
26607,63.0,0.09878500000000656,77.0,0.24094493750000368
26608,71.0,0.12247399999999686,68.0,0.11847093750000681
26609,70.0,0.105307499999995,67.0,0.22377843750000181
26610,69.0,0.10530750000000921,70.0,0.1184709374999926
26611,68.0,0.105307499999995,67.0,0.2091064999999901
26612,67.0,0.105307499999995,64.0,0.10379899999999509
26613,66.0,0.10379899999999509,69.0,0.2215706875000052
26614,65.0,0.10404800000000591,61.0,0.11752268749999928
26615,64.0,0.10442270833333112,61.0,0.2234675833333455
26616,63.0,0.1047998333333311,61.0,0.1186677500000144
26617,62.0,0.10533300000001589,61.0,0.21827187500001344
26618,61.0,0.1077831666666782,60.0,0.11048870833333524
26619,60.0,0.11048870833333524,61.0,0.23631010416667664
26620,59.0,0.11595549999999832,56.0,0.12035460416667831
26621,58.0,0.10695120833334215,56.0,0.22785772916665792
26622,68.0,0.10722716666666088,59.0,0.12063056249999704
26623,64.0,0.10722716666667509,57.0,0.21137537500000292
26624,61.0,0.10722716666666088,56.0,0.10414820833334204
26625,58.0,0.10414820833334204,57.0,0.2245332916666456
26626,56.0,0.10506820833332142,52.0,0.11946508333332417
26627,52.0,0.10613033333332567,52.0,0.2291756458333225
26628,49.0,0.1072285416666574,52.0,0.1219471041666651
26629,46.0,0.10833499999999674,53.0,0.21858916666667483
26630,52.0,0.10947054166666703,52.0,0.1091186250000078
26631,51.0,0.1091186250000078,60.0,0.22785772916667213
26632,52.0,0.10722716666666088,55.0,0.12063056250001125
26633,50.0,0.10722716666667509,52.0,0.22785772916665792
26634,51.0,0.10722716666666088,55.0,0.12063056249999704
26635,47.0,0.10722716666667509,56.0,0.22017049999999472
26636,49.0,0.10722716666666088,55.0,0.11294333333333384
26637,51.0,0.11294333333333384,59.0,0.22750597916666493
26638,52.0,0.10687541666666789,55.0,0.12063056249999704
26639,51.0,0.10722716666666088,53.0,0.22785772916667213
26640,52.0,0.10722716666667509,55.0,0.12063056249999704
26641,56.0,0.10722716666666088,58.0,0.2178956666666636
26642,54.0,0.10722716666666088,52.0,0.11066850000000272
26643,51.0,0.11066850000000272,60.0,0.22669075000000305
26644,52.0,0.10667800000000227,50.0,0.12001275000000078
26645,49.0,0.10667800000000227,50.0,0.22669074999998884
26646,51.0,0.10667800000000227,51.0,0.12001274999998657
26647,54.0,0.10667799999998806,57.0,0.21903749999999889
26648,52.0,0.10667800000000227,53.0,0.11235949999999661
26649,49.0,0.11235949999999661,59.0,0.23457343750000348
26650,51.0,0.11038750000000164,46.0,0.12418593750000184
26651,47.0,0.11038750000000164,46.0,0.23457343750000348
26652,49.0,0.11038750000000164,49.0,0.12418593750000184
26653,52.0,0.11038750000000164,51.0,0.22077499999998906
26654,51.0,0.11038749999998743,47.0,0.11038750000000164
26655,44.0,0.11038750000000164,60.0,0.29165879166666286
26656,63.0,0.14925366666666662,53.0,0.14240512499999625
26657,61.0,0.12658233333333158,52.0,0.26898745833334203
26658,59.0,0.12658233333333158,51.0,0.14240512500001046
26659,58.0,0.12658233333333158,50.0,0.25197791666667513
26660,56.0,0.12658233333333158,49.0,0.12539558333334355
26661,54.0,0.12539558333334355,52.0,0.2701101250000164
26662,52.0,0.12618425000000855,44.0,0.14392587500000786
26663,51.0,0.1277968333333348,41.0,0.2766204166666597
26664,49.0,0.12945125000000246,39.0,0.14716916666665725
26665,51.0,0.13072179166665876,37.0,0.2666844583333301
26666,52.0,0.13245324999999752,35.0,0.13423120833333257
26667,44.0,0.13423120833333257,55.0,0.3051571249999938
26668,63.0,0.1524390000000011,51.0,0.1527181249999927
26669,61.0,0.13559483333332878,51.0,0.29601737500000525
26670,59.0,0.13793429166666726,50.0,0.15808308333333798
26671,58.0,0.140352583333339,49.0,0.28831720833332497
26672,56.0,0.14286079166666354,48.0,0.14545641666666143
26673,54.0,0.14545641666666143,42.0,0.3181817708333199
26674,52.0,0.14815220833332887,41.0,0.17002956249999102
26675,51.0,0.15094558333332486,39.0,0.3296319999999895
26676,49.0,0.1538507499999895,40.0,0.17578125
26677,51.0,0.15625,40.0,0.8420809999999932
26678,54.0,0.15625,50.0,0.15625
26679,52.0,0.15625,46.0,0.21511549999999602
26680,51.0,0.21511549999999602,44.0,0.3144654999999972
26681,32.0,0.3144654999999972,27.0,6.194267999999994
26682,39.0,0.11513662500000521,33.0,6.079131374999989
26683,44.0,0.115136624999991,40.0,5.963994749999998
26684,47.0,0.11513662500000521,40.0,5.8488581249999925
26685,51.0,0.11513662500000521,55.0,1.2121209999999962
26686,51.0,1.2121209999999962,44.0,0.674460499999995
26687,51.0,0.674460499999995,41.0,0.7694280000000049
26688,51.0,0.7694280000000049,40.0,3.077711999999991
26689,25.0,0.0,74.0,0.211179
26690,24.0,0.211179,77.0,0.3337629999999999
26691,22.0,0.3337629999999999,74.0,0.057440500000000005
26692,22.0,0.11488100000000001,77.0,0.7151663333333333
26693,42.0,0.19924300000000006,68.0,0.6729913333333333
26694,30.0,0.18207433333333323,64.0,0.16483500000000006
26695,29.0,0.16483500000000006,64.0,0.326082
26696,21.0,0.169014,77.0,0.15706799999999999
26697,24.0,0.15706799999999999,73.0,0.11780100000000004
26698,24.0,0.1570680000000002,77.0,0.6162509999999997
26699,45.0,0.15706799999999976,66.0,0.6146235
26700,33.0,0.1530610000000001,61.0,0.15306099999999967
26701,46.0,0.15306099999999967,66.0,0.3085015000000002
26702,25.0,0.1530610000000001,77.0,0.1554405000000001
26703,22.0,0.1554405000000001,75.0,0.1554405000000001
26704,30.0,0.14827249999999736,86.0,0.30133358333333504
26705,46.0,0.15251658333333395,75.0,0.2976340000000022
26706,34.0,0.1488170000000011,77.0,0.1488170000000011
26707,12.0,0.1488170000000011,86.0,0.30125241666666724
26708,51.0,0.15155349999999856,77.0,0.29902691666666925
26709,39.0,0.14969891666666868,73.0,0.14932800000000057
26710,29.0,0.14932800000000057,86.0,0.3025669999999998
26711,49.0,0.15267199999999903,70.0,0.14989500000000078
26712,39.0,0.14989500000000078,77.0,0.14989500000000078
26713,28.0,0.14989500000000078,101.0,0.11242124999999703
26714,40.0,0.14989499999999722,92.0,0.29979000000000156
26715,40.0,0.14989500000000078,92.0,0.14989500000000078
26716,40.0,0.14989500000000078,96.0,0.11242125000000058
26717,40.0,0.14989500000000078,92.0,0.299789999999998
26718,40.0,0.14989499999999722,86.0,0.14989500000000078
26719,39.0,0.14989500000000078,96.0,0.14730333333333334
26720,37.0,0.14730333333333334,92.0,0.29645724999999956
26721,35.0,0.14791250000000034,92.0,0.14854474999999923
26722,34.0,0.14854474999999923,97.0,0.14924283333333221
26723,32.0,0.14924283333333221,92.0,0.300699250000001
26724,30.0,0.1499865000000007,89.0,0.15071275000000028
26725,28.0,0.15071275000000028,101.0,0.1128329999999984
26726,40.0,0.15044400000000024,92.0,0.3008880000000005
26727,40.0,0.15044400000000024,92.0,0.15044400000000024
26728,40.0,0.15044400000000024,96.0,0.1128329999999984
26729,40.0,0.15044400000000024,92.0,0.3008880000000005
26730,40.0,0.15044400000000024,86.0,0.15044400000000024
26731,39.0,0.15044400000000024,96.0,0.14623950000000008
26732,37.0,0.14623950000000008,92.0,0.2946914166666623
26733,35.0,0.14695474999999547,92.0,0.14773666666666685
26734,34.0,0.14773666666666685,97.0,0.14854474999999923
26735,32.0,0.14854474999999923,92.0,0.29950683333333217
26736,30.0,0.14933733333333166,89.0,0.1501695000000005
26737,29.0,0.1501695000000005,90.0,0.15044400000000024
26738,39.0,0.15044400000000024,82.0,0.3008880000000005
26739,39.0,0.15044400000000024,82.0,0.15044400000000024
26740,39.0,0.15044400000000024,86.0,0.1128329999999984
26741,39.0,0.15044400000000024,82.0,0.3008880000000005
26742,39.0,0.15044400000000024,78.0,0.15044400000000024
26743,37.0,0.15044400000000024,86.0,0.1472175
26744,36.0,0.1472175,82.0,0.29627650000000116
26745,34.0,0.1478225000000002,82.0,0.14845400000000097
26746,30.0,0.14845400000000097,88.0,0.14898733333333425
26747,29.0,0.14898733333333425,82.0,0.2998724999999993
26748,27.0,0.1496114999999989,79.0,0.15026100000000042
26749,25.0,0.15026100000000042,86.0,0.3014384999999997
26750,53.0,0.15440849999999884,77.0,0.29406000000000176
26751,41.0,0.14703000000000088,73.0,0.14703000000000088
26752,30.0,0.14703000000000088,86.0,0.29858349999999945
26753,46.0,0.15155349999999856,75.0,0.29406000000000176
26754,34.0,0.14703000000000088,77.0,0.14703000000000088
26755,24.0,0.14703000000000088,86.0,0.2990169999999992
26756,51.0,0.15155349999999856,77.0,0.29492700000000127
26757,39.0,0.14746350000000064,73.0,0.14746350000000064
26758,17.0,0.14746350000000064,86.0,0.30037049999999965
26759,49.0,0.15155349999999856,70.0,0.1488170000000011
26760,39.0,0.1488170000000011,77.0,0.14881699999999753
26761,25.0,0.14881699999999753,86.0,0.2975874999999988
26762,53.0,0.15098150000000032,77.0,0.2932120000000005
26763,41.0,0.14660599999999846,73.0,0.146606000000002
26764,30.0,0.146606000000002,86.0,0.2990169999999992
26765,46.0,0.15155349999999856,75.0,0.29492700000000127
26766,34.0,0.14746350000000064,77.0,0.14746350000000064
26767,12.0,0.14746350000000064,86.0,0.46385399999999777
26768,51.0,0.1538144999999993,77.0,0.31003949999999847
26769,39.0,0.1518985000000015,73.0,0.15814099999999698
26770,25.0,0.15814099999999698,81.0,0.16806700000000063
26771,24.0,0.16806700000000063,84.0,0.3515529999999991
26772,34.0,0.16806700000000063,77.0,0.18348599999999848
26773,22.0,0.09174300000000102,81.0,0.04587150000000051
26774,22.0,0.09174299999999747,92.0,0.6306150000000024
26775,42.0,0.16429349999999943,75.0,0.6178365000000063
26776,30.0,0.15544050000000098,70.0,0.15544049999999743
26777,29.0,0.15544049999999743,70.0,0.30695550000000793
26778,21.0,0.15544050000000453,84.0,0.1515150000000034
26779,24.0,0.1515150000000034,80.0,0.113636249999999
26780,24.0,0.1515149999999963,84.0,0.5937750000000008
26781,45.0,0.1515150000000034,75.0,0.5915879999999945
26782,33.0,0.14741999999999678,68.0,0.14742000000000388
26783,46.0,0.14742000000000388,74.0,0.2967479999999938
26784,25.0,0.14741999999999678,89.0,0.14932799999999702
26785,22.0,0.14932799999999702,88.0,0.14932800000000412
26786,24.0,0.14932800000000412,91.0,0.5866244999999992
26787,45.0,0.14932799999999702,82.0,0.5856130000000022
26788,33.0,0.1457655000000031,75.0,0.145765499999996
26789,46.0,0.145765499999996,82.0,0.29408200000000306
26790,25.0,0.1457655000000031,97.0,0.14831649999999996
26791,22.0,0.14831649999999996,96.0,0.14831649999999996
26792,24.0,0.14831649999999996,101.0,0.5868490000000008
26793,57.0,0.14831649999999996,92.0,0.6131935770833294
26794,45.0,0.1461775000000003,82.0,0.1461775000000003
26795,58.0,0.1461775000000003,90.0,0.32083857708332886
26796,25.0,0.1461775000000003,107.0,0.17466107708332856
26797,22.0,0.17466107708332856,105.0,0.18683450000000335
26798,16.0,0.18683450000000335,110.0,0.3736689999999996
26799,53.0,1.1210069999999988,101.0,0.5485125000000011
26800,45.0,0.5485125000000011,97.0,0.5159645833333357
26801,10.0,0.4302895833333338,105.0,0.08567500000000194
26802,22.0,0.08567500000000194,68.0,1.586095499999999
26803,29.0,0.022854687500000637,75.0,1.5632408124999984
26804,34.0,0.022854687500000637,73.0,1.5403861249999977
26805,37.0,0.022854687500000637,80.0,1.517531437499997
26806,41.0,0.022854687500000637,96.0,1.4946767499999964
26807,46.0,0.022854687500000637,105.0,1.4718220624999958
26808,38.0,0.0,80.0,1.7107145708333333
26809,19.0,0.0107142875,61.0,1.7142860000000002
26810,26.0,0.55714295,52.0,0.5714286666666667
26811,35.0,0.5714286666666667,48.0,0.5714286666666666
26812,38.0,0.5714286666666666,74.0,1.714286
26813,26.0,0.5714286666666668,51.0,0.5714286666666664
26814,33.0,0.5714286666666664,45.0,0.5714286666666668
26815,38.0,0.2857143333333334,77.0,0.2857143333333334
26816,38.0,0.2857143333333334,80.0,1.7142860000000004
26817,26.0,0.5714286666666668,46.0,0.5714286666666668
26818,35.0,0.5714286666666668,40.0,0.5714286666666668
26819,40.0,0.5714286666666668,75.0,1.784714666666666
26820,28.0,0.5755693333333332,46.0,0.594853333333333
26821,36.0,0.594853333333333,42.0,0.6142919999999998
26822,23.0,0.38111891666666686,64.0,0.23317308333333298
26823,40.0,0.23317308333333298,76.0,3.505331
26824,28.0,0.5970149999999999,45.0,0.5970149999999999
26825,36.0,0.5970149999999999,43.0,0.5970150000000007
26826,42.0,0.5970150000000007,78.0,1.4285716666666666
26827,28.0,0.5714286666666659,42.0,0.5714286666666677
26828,36.0,0.5714286666666677,37.0,0.5714286666666659
26829,42.0,0.28571433333333296,75.0,0.28571433333333296
26830,42.0,0.28571433333333296,75.0,1.7647060000000003
26831,30.0,0.5882353333333334,42.0,0.5882353333333334
26832,38.0,0.5882353333333334,42.0,0.5882353333333334
26833,42.0,0.5882353333333334,73.0,1.6666670000000003
26834,30.0,0.5555556666666668,44.0,0.5555556666666668
26835,38.0,0.5555556666666668,44.0,0.5555556666666668
26836,26.0,0.3472222916666663,62.0,0.2083333750000005
26837,43.0,0.2083333750000005,75.0,1.7391299999999994
26838,31.0,0.5797100000000004,48.0,0.5797099999999986
26839,38.0,0.5797099999999986,44.0,0.5797100000000004
26840,43.0,0.5797100000000004,76.0,1.521738749999999
26841,31.0,0.5797100000000004,45.0,0.5797099999999986
26842,40.0,0.5797099999999986,43.0,0.5797100000000022
26843,43.0,0.2898549999999993,80.0,0.28985500000000286
26844,24.0,0.07246375000000072,68.0,0.21739125000000215
26845,43.0,0.21739125000000215,80.0,1.8181820000000002
26846,31.0,0.6060606666666679,45.0,0.6060606666666644
26847,38.0,0.6060606666666644,43.0,0.6060606666666679
26848,13.0,0.4242424666666693,40.0,0.09090909999999752
26849,14.0,0.09090909999999752,40.0,0.09090910000000108
26850,42.0,0.09090910000000108,85.0,1.515151666666668
26851,14.0,0.09090910000000108,40.0,0.09090909999999752
26852,16.0,0.09090909999999752,40.0,0.09090910000000108
26853,14.0,0.09090910000000108,40.0,0.09090910000000108
26854,16.0,0.09090910000000108,40.0,0.09090909999999752
26855,14.0,0.09090909999999752,40.0,0.09090910000000108
26856,16.0,0.09090910000000108,40.0,0.09090910000000108
26857,30.0,0.06060606666666857,45.0,0.6060606666666644
26858,14.0,0.030303033333332507,40.0,0.09090910000000108
26859,16.0,0.09090910000000108,39.0,0.09090909999999752
26860,14.0,0.09090909999999752,41.0,0.09090910000000108
26861,16.0,0.09090910000000108,44.0,0.09090910000000108
26862,14.0,0.09090910000000108,45.0,0.09090909999999752
26863,16.0,0.09090909999999752,47.0,0.09090910000000108
26864,14.0,0.09090910000000108,49.0,0.09090910000000108
26865,38.0,0.030303033333332507,49.0,0.6060606666666679
26866,16.0,0.06060606666666857,51.0,0.09090909999999752
26867,14.0,0.09090909999999752,53.0,0.09090910000000108
26868,16.0,0.09090910000000108,54.0,0.09090910000000108
26869,42.0,0.06060606666666857,85.0,0.3030303333333322
26870,14.0,0.030303033333332507,56.0,0.09090909999999752
26871,13.0,0.09090909999999752,58.0,0.09090910000000108
26872,14.0,0.09090910000000108,61.0,0.09090910000000108
26873,42.0,0.09090910000000108,90.0,1.8181820000000002
26874,31.0,0.6060606666666644,49.0,0.6060606666666679
26875,38.0,0.6060606666666679,46.0,0.6060606666666679
26876,42.0,0.6060606666666679,80.0,1.5980114999999984
26877,31.0,0.6060606666666644,45.0,0.6060606666666679
26878,37.0,0.6060606666666679,42.0,0.6394537499999977
26879,40.0,0.3077651666666661,64.0,0.3316885833333316
26880,21.0,0.078125,54.0,0.2535635833333316
26881,40.0,0.2535635833333316,64.0,1.7899475416666668
26882,28.0,0.597014999999999,42.0,0.5970150000000025
26883,36.0,0.5970150000000025,42.0,0.5959175416666653
26884,17.0,0.41791049999999785,44.0,0.08955225000000056
26885,18.0,0.08955225000000056,44.0,0.08845479166666692
26886,40.0,0.08845479166666692,64.0,1.5969846666666676
26887,18.0,0.08845479166666692,43.0,0.08955225000000056
26888,19.0,0.08955225000000056,43.0,0.09023067499999726
26889,18.0,0.09023067499999726,43.0,0.09090910000000108
26890,19.0,0.09090910000000108,42.0,0.09207460000000012
26891,18.0,0.09207460000000012,42.0,0.09254808333333386
26892,19.0,0.09254808333333386,42.0,0.09375
26893,26.0,0.0625,42.0,0.6454132500000007
26894,18.0,0.03125,40.0,0.09449405000000155
26895,19.0,0.09449405000000155,41.0,0.09523809999999955
26896,18.0,0.09523809999999955,40.0,0.09651818333333395
26897,19.0,0.09651818333333395,41.0,0.09703860833333167
26898,18.0,0.09703860833333167,42.0,0.09836065000000005
26899,19.0,0.09836065000000005,42.0,0.09918032500000251
26900,18.0,0.09918032500000251,43.0,0.09999999999999787
26901,36.0,0.03333333333333144,33.0,0.7953699166666652
26902,19.0,0.06666666666666643,43.0,0.20718115000000026
26903,18.0,0.10000000000000142,43.0,0.21436230000000123
26904,16.0,0.10718114999999884,44.0,0.10718115000000239
26905,38.0,0.07145410000000041,46.0,0.45006799999999814
26906,18.0,0.03572705000000198,44.0,0.12574064999999734
26907,19.0,0.12574064999999734,43.0,0.1443001499999994
26908,21.0,0.1443001499999994,51.0,0.1443001499999994
26909,38.0,0.1443001499999994,41.0,1.875
26910,26.0,0.625,25.0,0.625
26911,35.0,0.625,25.0,0.625
26912,38.0,0.625,44.0,1.7910450000000004
26913,26.0,0.597014999999999,27.0,0.5970150000000025
26914,33.0,0.5970150000000025,27.0,0.597014999999999
26915,38.0,0.2985074999999995,47.0,0.2985074999999995
26916,38.0,0.2985074999999995,47.0,1.6666669999999968
26917,26.0,0.5555556666666632,28.0,0.5555556666666703
26918,34.0,0.5555556666666703,27.0,0.5555556666666632
26919,38.0,0.5555556666666632,51.0,1.5000002499999994
26920,26.0,0.5714286666666695,30.0,0.5714286666666624
26921,34.0,0.5714286666666624,30.0,0.5714286666666695
26922,38.0,0.2857143333333312,61.0,0.2857143333333383
26923,20.0,0.07142858333333635,52.0,0.21428575000000194
26924,39.0,0.21428575000000194,62.0,1.7142860000000013
26925,27.0,0.5714286666666624,40.0,0.5714286666666695
26926,34.0,0.5714286666666695,40.0,0.5714286666666695
26927,41.0,0.5714286666666695,66.0,1.7142859999999942
26928,29.0,0.5714286666666624,43.0,0.5714286666666695
26929,37.0,0.5714286666666695,43.0,0.5714286666666624
26930,43.0,0.5714286666666624,72.0,1.6438360000000003
26931,31.0,0.5479453333333311,46.0,0.5479453333333382
26932,37.0,0.5479453333333382,48.0,0.5479453333333311
26933,43.0,0.5479453333333311,76.0,1.4583336250000016
26934,31.0,0.5555556666666632,52.0,0.5555556666666703
26935,39.0,0.5555556666666703,50.0,0.5555556666666632
26936,43.0,0.2777778333333316,80.0,0.2777778333333316
26937,26.0,0.06944445833333646,52.0,0.20833337499999516
26938,43.0,0.20833337499999516,83.0,1.739130000000003
26939,31.0,0.5797099999999986,58.0,0.5797099999999986
26940,40.0,0.5797099999999986,53.0,0.5797100000000057
26941,43.0,0.5797100000000057,86.0,1.4383564999999976
26942,31.0,0.5479453333333311,58.0,0.5479453333333382
26943,40.0,0.5479453333333382,54.0,0.5479453333333311
26944,43.0,0.27397266666666553,87.0,0.27397266666666553
26945,22.0,0.06849316666666283,56.0,0.2054795000000027
26946,44.0,0.2054795000000027,89.0,1.6438360000000003
26947,32.0,0.5479453333333311,59.0,0.5479453333333382
26948,40.0,0.5479453333333382,55.0,0.5479453333333311
26949,46.0,0.5479453333333311,91.0,1.788018666666666
26950,34.0,0.5714286666666695,61.0,0.5714286666666624
26951,40.0,0.5714286666666624,56.0,0.6451613333333341
26952,47.0,0.6451613333333341,96.0,3.519668000000003
26953,30.0,0.5797099999999986,62.0,0.5797099999999986
26954,42.0,0.5797099999999986,91.0,0.6211180000000027
26955,42.0,0.6211180000000027,88.0,1.449275
26956,30.0,0.5797099999999986,57.0,0.5797099999999986
26957,37.0,0.5797099999999986,57.0,0.5797100000000057
26958,40.0,0.28985500000000286,78.0,0.28985500000000286
26959,39.0,0.28985500000000286,75.0,1.7391299999999958
26960,30.0,0.5797099999999986,45.0,0.5797099999999986
26961,35.0,0.5797099999999986,45.0,0.5797099999999986
26962,38.0,0.28985500000000286,71.0,0.28985499999999575
26963,38.0,0.28985499999999575,69.0,2.378488516666664
26964,26.0,0.6695214333333297,39.0,0.7692306666666653
26965,36.0,0.7692306666666653,39.0,0.9397364166666691
26966,38.0,0.4492999166666678,44.0,0.4904365000000013
26967,38.0,0.4904365000000013,36.0,1.8369226166666692
26968,26.0,0.6248012833333334,21.0,0.6060606666666715
26969,35.0,0.6060606666666715,22.0,0.6060606666666644
26970,38.0,0.6060606666666644,39.0,1.8181820000000002
26971,26.0,0.6060606666666644,24.0,0.6060606666666715
26972,33.0,0.6060606666666715,24.0,0.6060606666666644
26973,38.0,0.3787879166666599,40.0,0.22727275000000446
26974,38.0,0.22727275000000446,42.0,1.739130000000003
26975,26.0,0.5797099999999986,25.0,0.5797099999999986
26976,35.0,0.5797099999999986,25.0,0.5797100000000057
26977,39.0,0.5797100000000057,45.0,1.8181820000000002
26978,27.0,0.6060606666666644,31.0,0.6060606666666715
26979,36.0,0.6060606666666715,31.0,0.6060606666666644
26980,24.0,0.378787916666667,39.0,0.22727274999999736
26981,39.0,0.22727274999999736,49.0,1.8181820000000002
26982,27.0,0.6060606666666715,27.0,0.6060606666666644
26983,36.0,0.6060606666666644,28.0,0.6060606666666644
26984,39.0,0.6060606666666644,42.0,1.818181999999993
26985,27.0,0.6060606666666644,24.0,0.6060606666666644
26986,34.0,0.6060606666666644,25.0,0.6060606666666644
26987,39.0,0.378787916666667,45.0,0.22727274999999736
26988,39.0,0.22727274999999736,46.0,1.739130000000003
26989,27.0,0.5797100000000057,28.0,0.5797099999999915
26990,36.0,0.5797099999999915,30.0,0.5797100000000057
26991,39.0,0.1251990833333334,58.0,0.1282117499999984
26992,33.0,0.1282117499999984,70.0,0.12279433333333323
26993,41.0,0.12279433333333323,59.0,0.12185916666666685
26994,36.0,0.12185916666666685,59.0,0.12084650000000074
26995,39.0,0.12084650000000074,63.0,0.1203915000000002
26996,33.0,0.1203915000000002,53.0,0.12093750000000014
26997,39.0,0.12093750000000014,54.0,0.12139633333333322
26998,32.0,0.12139633333333322,57.0,0.12185866666666634
26999,39.0,0.12185866666666634,51.0,0.12241783333333345
27000,35.0,0.12241783333333345,51.0,0.12288816666666591
27001,42.0,0.12288816666666591,53.0,0.12345666666666588
27002,32.0,0.12345666666666588,58.0,0.12374583333333433
27003,40.0,0.12374583333333433,59.0,0.12669099999999922
27004,30.0,0.12669099999999922,71.0,0.12288816666666591
27005,38.0,0.12288816666666591,61.0,0.12213766666666537
27006,32.0,0.12213766666666537,60.0,0.12139633333333322
27007,36.0,0.12139633333333322,61.0,0.12084600000000023
27008,30.0,0.12084600000000023,53.0,0.12121199999999988
27009,36.0,0.12121199999999988,54.0,0.12158066666666656
27010,29.0,0.12158066666666656,56.0,0.12195133333333352
27011,36.0,0.12195133333333352,51.0,0.12232400000000077
27012,32.0,0.12232400000000077,51.0,0.12279375000000137
27013,37.0,0.12279375000000137,66.0,0.12307700000000033
27014,33.0,0.12307700000000033,58.0,0.12307699999999855
27015,37.0,0.12307699999999855,60.0,0.12270291666666644
27016,30.0,0.12270291666666644,75.0,0.12102966666666681
27017,37.0,0.12102966666666681,68.0,0.12057300000000026
27018,33.0,0.12057300000000026,69.0,0.12021049999999889
27019,38.0,0.12021049999999889,78.0,0.11976033333333369
27020,33.0,0.11976033333333369,75.0,0.11940300000000015
27021,38.0,0.11940300000000015,77.0,0.11895933333333275
27022,29.0,0.11895933333333275,80.0,0.11887100000000039
27023,38.0,0.11887100000000039,67.0,0.11949233333333353
27024,32.0,0.11949233333333353,65.0,0.12003008333333298
27025,37.0,0.12003008333333298,67.0,0.12066399999999966
27026,29.0,0.12066399999999966,59.0,0.12130416666666832
27027,37.0,0.12130416666666832,58.0,0.12214000000000169
27028,30.0,0.12214000000000169,67.0,0.11963533333333132
27029,37.0,0.11963533333333132,59.0,0.1187002500000034
27030,33.0,0.1187002500000034,61.0,0.11768591666666595
27031,38.0,0.11768591666666595,80.0,0.11741250000000036
27032,34.0,0.11741250000000036,74.0,0.11795933333333508
27033,38.0,0.11795933333333508,75.0,0.11992641666666515
27034,29.0,0.11992641666666515,83.0,0.11935325000000319
27035,38.0,0.11935325000000319,73.0,0.11879499999999865
27036,33.0,0.11879499999999865,74.0,0.11814083333333159
27037,37.0,0.11814083333333159,80.0,0.11814366666666842
27038,32.0,0.11814366666666842,72.0,0.1196383333333344
27039,37.0,0.1196383333333344,69.0,0.12126016666666573
27040,30.0,0.12126016666666573,71.0,0.12087366666666455
27041,37.0,0.12087366666666455,63.0,0.1202055000000044
27042,33.0,0.1202055000000044,63.0,0.11944808333333157
27043,38.0,0.11944808333333157,78.0,0.11723333333333485
27044,30.0,0.11723333333333485,73.0,0.116961083333333
27045,38.0,0.116961083333333,73.0,0.11668983333333216
27046,32.0,0.11668983333333216,85.0,0.11714141666666578
27047,40.0,0.11714141666666578,76.0,0.11823558333333395
27048,36.0,0.11823558333333395,76.0,0.12098358333333437
27049,40.0,0.12098358333333437,86.0,0.11935325000000319
27050,32.0,0.11935325000000319,82.0,0.11870024999999984
27051,40.0,0.11870024999999984,78.0,0.11907599999999974
27052,33.0,0.11907599999999974,78.0,0.12087366666666455
27053,40.0,0.12087366666666455,71.0,0.1202055000000044
27054,36.0,0.1202055000000044,72.0,0.11944808333333157
27055,41.0,0.11944808333333157,83.0,0.11723333333333485
27056,33.0,0.11723333333333485,77.0,0.116961083333333
27057,41.0,0.116961083333333,79.0,0.11668983333333216
27058,37.0,0.11668983333333216,90.0,0.11714141666666578
27059,42.0,0.11714141666666578,83.0,0.11823558333333395
27060,33.0,0.11823558333333395,82.0,0.12098358333333437
27061,43.0,0.12098358333333437,97.0,0.11935325000000319
27062,34.0,0.11935325000000319,90.0,0.11870024999999984
27063,44.0,0.11870024999999984,85.0,0.12535252499999672
27064,35.0,0.12535252499999672,84.0,0.12066400000000144
27065,38.0,0.12066400000000144,74.0,0.11976091666666733
27066,33.0,0.11976091666666733,73.0,0.1187832499999999
27067,38.0,0.1187832499999999,80.0,0.11869491666666576
27068,32.0,0.11869491666666576,71.0,0.11940350000000066
27069,38.0,0.11940350000000066,70.0,0.12169424999999734
27070,30.0,0.12169424999999734,79.0,0.12030100000000132
27071,35.0,0.12030100000000132,70.0,0.1196710000000003
27072,29.0,0.1196710000000003,70.0,0.11904816666666562
27073,33.0,0.11904816666666562,73.0,0.1195827499999993
27074,30.0,0.1195827499999993,67.0,0.12103016666666733
27075,33.0,0.12103016666666733,66.0,0.12251233333333289
27076,23.0,0.12251233333333289,75.0,0.12176600000000093
27077,33.0,0.12176600000000093,64.0,0.12102900000000005
27078,30.0,0.12102900000000005,62.0,0.12030100000000132
27079,33.0,0.12030100000000132,65.0,0.12003066666666484
27080,23.0,0.12003066666666484,58.0,0.12139750000000049
27081,33.0,0.12139750000000049,57.0,0.12288925000000006
27082,25.0,0.12288925000000006,64.0,0.12298258333333223
27083,33.0,0.12298258333333223,56.0,0.122417833333337
27084,30.0,0.122417833333337,55.0,0.12176600000000093
27085,33.0,0.12176600000000093,58.0,0.12139633333333322
27086,25.0,0.12139633333333322,50.0,0.12213766666666714
27087,33.0,0.12213766666666714,49.0,0.12298308333333452
27088,30.0,0.12298308333333452,56.0,0.12451391666666467
27089,37.0,0.12451391666666467,49.0,0.12383958333333211
27090,30.0,0.12383958333333211,48.0,0.12307750000000084
27091,38.0,0.12307750000000084,51.0,0.12288816666666946
27092,30.0,0.12288816666666946,45.0,0.12355224999999947
27093,40.0,0.12355224999999947,43.0,0.12422424999999748
27094,30.0,0.12422424999999748,48.0,0.12558899999999795
27095,37.0,0.12558899999999795,43.0,0.12470858333333368
27096,30.0,0.12470858333333368,42.0,0.12383958333333211
27097,38.0,0.12383958333333211,45.0,0.12326683333333577
27098,30.0,0.12326683333333577,39.0,0.12422425000000104
27099,40.0,0.12422425000000104,38.0,0.12509866666666625
27100,30.0,0.12509866666666625,43.0,0.12588600000000127
27101,40.0,0.12588600000000127,37.0,0.1253924999999967
27102,30.0,0.1253924999999967,36.0,0.12459433333333436
27103,38.0,0.12459433333333436,39.0,0.12497533958333307
27104,30.0,0.12497533958333307,35.0,0.12679345833333144
27105,37.0,0.12679345833333144,35.0,0.1287525125000002
27106,30.0,0.1287525125000002,37.0,0.13397303541666616
27107,35.0,0.13397303541666616,34.0,0.13179567291666316
27108,30.0,0.13179567291666316,32.0,0.12936545208333428
27109,37.0,0.12936545208333428,34.0,0.1345301333333353
27110,30.0,0.1345301333333353,30.0,0.14932484375000854
27111,37.0,0.14932484375000854,29.0,0.21668466666666575
27112,30.0,0.21668466666666575,36.0,0.44280399999999887
27113,49.0,0.0,80.0,0.5767279999999999
27114,49.0,0.5767279999999999,74.0,0.07107649999999999
27115,49.0,0.14215299999999997,70.0,0.07107649999999999
27116,49.0,0.14215299999999997,79.0,0.5686120000000001
27117,49.0,0.5686120000000001,75.0,0.06713499999999994
27118,49.0,0.1342699999999999,69.0,0.06713500000000017
27119,49.0,0.1342700000000001,78.0,0.26854
27120,49.0,0.26854,72.0,0.06713499999999994
27121,49.0,0.1342699999999999,67.0,0.06713499999999994
27122,49.0,0.13427000000000033,74.0,0.2685399999999998
27123,49.0,0.2685399999999998,69.0,0.0697675000000002
27124,49.0,0.13953499999999996,66.0,0.0697675000000002
27125,49.0,0.13953499999999996,73.0,0.27906999999999993
27126,49.0,0.27906999999999993,59.0,0.0697675000000002
27127,49.0,0.1395350000000004,59.0,0.07313849999999977
27128,49.0,0.146277,72.0,0.2721580000000001
27129,53.0,0.2721580000000001,60.0,0.18977125000000017
27130,54.0,0.12765950000000004,49.0,0.13528545833333316
27131,56.0,0.12422349999999982,57.0,0.20063224999999996
27132,49.0,0.2685209999999998,67.0,0.13274350000000013
27133,54.0,0.26548700000000025,64.0,0.1884882500000007
27134,56.0,0.12738850000000035,48.0,0.13309274999999943
27135,58.0,0.1221994999999998,56.0,0.1960784999999996
27136,49.0,0.26143800000000006,72.0,0.1290325000000001
27137,56.0,0.2580650000000002,67.0,0.18987375000000029
27138,58.0,0.1265824999999996,52.0,0.13743462500000092
27139,59.0,0.1265825000000005,75.0,0.19533824999999982
27140,58.0,0.26045099999999977,82.0,0.5084740000000005
27141,40.0,0.2542369999999998,62.0,0.1271184999999999
27142,31.0,0.2542370000000007,70.0,0.2697479999999999
27143,61.0,0.13487399999999994,58.0,0.13487399999999994
27144,58.0,0.13487399999999994,63.0,0.5224787083333329
27145,63.0,0.2631579999999998,52.0,0.1369714583333339
27146,61.0,0.12685000000000013,48.0,0.13247070833333296
27147,51.0,0.1214575,54.0,0.13215850000000007
27148,59.0,0.26431700000000014,67.0,0.5074289999999992
27149,61.0,0.2591789999999996,47.0,0.18715025000000018
27150,59.0,0.12605049999999984,44.0,0.13316970833333297
27151,49.0,0.1221994999999998,54.0,0.13164249999999988
27152,58.0,0.26328500000000066,66.0,0.5051495000000017
27153,59.0,0.25604900000000086,59.0,0.1874987499999996
27154,58.0,0.12589700000000015,53.0,0.13451829166666762
27155,56.0,0.12320350000000069,59.0,0.13577749999999966
27156,56.0,0.2715549999999993,64.0,0.7866900000000001
27157,58.0,0.26045099999999977,60.0,0.19327424999999998
27158,56.0,0.1288494999999994,49.0,0.1400386666666673
27159,37.0,0.12884950000000117,57.0,0.13427000000000078
27160,49.0,0.2685399999999998,65.0,0.1360790000000005
27161,53.0,0.27215799999999923,49.0,0.1910980000000002
27162,54.0,0.12820499999999946,60.0,0.13658512499999986
27163,53.0,0.12578599999999973,63.0,0.19747824999999963
27164,49.0,0.26536699999999946,69.0,0.13193200000000083
27165,54.0,0.26325841666666605,68.0,0.18764174999999916
27166,56.0,0.12578599999999973,64.0,0.13426004166666772
27167,58.0,0.12371150000000064,73.0,0.18987375000000029
27168,49.0,0.2531649999999992,76.0,0.1277519999999992
27169,56.0,0.2555040000000002,72.0,0.18728175000000036
27170,58.0,0.12485449999999965,62.0,0.1358488333333323
27171,59.0,0.12485449999999965,75.0,0.19789800000000035
27172,61.0,0.2638639999999999,89.0,0.38005199999999917
27173,37.0,0.25336800000000004,42.0,0.12668399999999913
27174,61.0,0.12668399999999913,74.0,0.1266840000000009
27175,52.0,0.1266840000000009,80.0,0.2697479999999999
27176,58.0,0.13487399999999994,73.0,0.13487399999999994
27177,52.0,0.13487399999999994,64.0,0.5110634999999988
27178,61.0,0.12994899999999987,72.0,0.14050600000000024
27179,63.0,0.12994899999999987,64.0,0.1370574583333326
27180,61.0,0.12668399999999913,58.0,0.1353813749999997
27181,59.0,0.12448149999999991,54.0,0.13079849999999915
27182,50.0,0.2615970000000001,65.0,0.510985999999999
27183,59.0,0.1291209999999996,69.0,0.1397227499999989
27184,61.0,0.1291209999999996,65.0,0.25274399999999986
27185,59.0,0.12722100000000047,63.0,0.13656541666666655
27186,58.0,0.12552299999999939,51.0,0.13250900000000065
27187,49.0,0.26501799999999953,63.0,0.5556280000000005
27188,58.0,0.13731849999999923,46.0,0.14902645833333494
27189,59.0,0.137318500000001,58.0,0.2809910000000002
27190,58.0,0.1404955000000001,45.0,0.15251066666666624
27191,56.0,0.1404955000000001,50.0,0.5674340000000004
27192,54.0,0.2883639999999996,59.0,0.2790700000000008
27193,49.0,0.2790700000000008,57.0,0.06976749999999932
27194,49.0,0.13953499999999863,50.0,0.06976750000000109
27195,49.0,0.1395350000000004,56.0,0.06976749999999932
27196,49.0,0.1395350000000004,58.0,0.07313850000000066
27197,49.0,0.14627699999999955,78.0,0.27215799999999923
27198,53.0,0.27215799999999923,65.0,0.19427824999999999
27199,54.0,0.13071899999999914,57.0,0.13818045833333414
27200,56.0,0.1271185000000017,66.0,0.20063225000000173
27201,49.0,0.2685209999999998,69.0,0.13274350000000013
27202,54.0,0.26548700000000025,66.0,0.19191350000000185
27203,56.0,0.12875550000000047,56.0,0.13720924999999795
27204,58.0,0.1263159999999992,73.0,0.1960784999999987
27205,49.0,0.2614379999999983,77.0,0.129032500000001
27206,56.0,0.25806499999999843,75.0,0.1881842500000026
27207,58.0,0.12658250000000137,58.0,0.13405562499999846
27208,59.0,0.12320349999999891,75.0,0.19533824999999894
27209,58.0,0.26045099999999977,85.0,0.5067360000000001
27210,40.0,0.25336799999999826,56.0,0.1266840000000009
27211,58.0,0.2533680000000018,69.0,0.2697479999999999
27212,58.0,0.13487399999999994,47.0,0.13487399999999994
27213,58.0,0.13487399999999994,65.0,0.5148095000000019
27214,63.0,0.2637360000000015,53.0,0.13720195833333548
27215,61.0,0.12685000000000102,49.0,0.13526104166666642
27216,59.0,0.12422349999999938,51.0,0.13245050000000091
27217,59.0,0.26490100000000183,68.0,0.5081185000000019
27218,61.0,0.25862100000000154,47.0,0.24949750000000037
27219,59.0,0.1257860000000015,46.0,0.13468170833333204
27220,58.0,0.12371149999999886,53.0,0.13164250000000166
27221,49.0,0.26328499999999977,68.0,0.5056574999999981
27222,59.0,0.25604900000000086,51.0,0.24960849999999724
27223,58.0,0.12589699999999837,49.0,0.1350262916666658
27224,56.0,0.12371149999999886,61.0,0.13577749999999966
27225,56.0,0.2715549999999993,74.0,0.7866900000000001
27226,58.0,0.26045099999999977,69.0,0.2576989999999988
27227,56.0,0.12884950000000117,53.0,0.14003866666666553
27228,46.0,0.12884949999999762,68.0,0.13427000000000078
27229,49.0,0.26854000000000156,70.0,0.13607899999999873
27230,53.0,0.272158000000001,68.0,0.19015950000000004
27231,54.0,0.12765950000000004,60.0,0.1357758750000002
27232,56.0,0.125,63.0,0.1971992500000006
27233,49.0,0.26508799999999866,72.0,0.13193199999999905
27234,54.0,0.26325841666666605,65.0,0.18648549999999986
27235,56.0,0.1252609999999983,60.0,0.13301983333333212
27236,58.0,0.12244899999999959,68.0,0.19027499999999975
27237,49.0,0.2536999999999985,76.0,0.12775200000000098
27238,56.0,0.2555039999999984,77.0,0.186079000000003
27239,58.0,0.12485450000000142,70.0,0.13344333333333225
27240,56.0,0.12244899999999959,77.0,0.19789799999999858
27241,58.0,0.26386400000000165,84.0,0.38005199999999917
27242,37.0,0.25336799999999826,48.0,0.1266840000000009
27243,61.0,0.1266840000000009,72.0,0.1266840000000009
27244,52.0,0.1266840000000009,80.0,0.2697479999999999
27245,58.0,0.13487399999999994,65.0,0.13487399999999994
27246,52.0,0.13487399999999994,67.0,0.513265999999998
27247,61.0,0.12994899999999987,58.0,0.14050599999999847
27248,63.0,0.12994899999999987,48.0,0.1372409999999995
27249,61.0,0.1266840000000009,60.0,0.13758387499999714
27250,59.0,0.12668399999999735,54.0,0.13079850000000093
27251,50.0,0.2615969999999983,70.0,0.5126840000000001
27252,59.0,0.12912100000000137,69.0,0.13972274999999712
27253,61.0,0.12912099999999782,45.0,0.1908315000000016
27254,59.0,0.1272209999999987,65.0,0.13826341666666764
27255,58.0,0.12722100000000225,55.0,0.13250899999999888
27256,49.0,0.2650180000000013,65.0,0.5556279999999987
27257,58.0,0.13731849999999923,50.0,0.1490264583333314
27258,59.0,0.13731849999999923,44.0,0.2809910000000002
27259,58.0,0.1404955000000001,62.0,0.15251066666666802
27260,56.0,0.1404955000000001,57.0,0.2883640000000014
27261,46.0,0.2883640000000014,48.0,0.5446740000000005
27262,54.0,0.2790700000000008,53.0,0.26560399999999973
27263,54.0,0.13280200000000164,64.0,0.06640099999999904
27264,54.0,0.1328019999999981,67.0,0.26560399999999973
27265,54.0,0.13280200000000164,69.0,0.06640099999999904
27266,54.0,0.1328019999999981,75.0,0.26328499999999977
27267,54.0,0.13164250000000166,64.0,0.06582124999999905
27268,54.0,0.1316424999999981,75.0,0.19746375000000072
27269,54.0,0.13164250000000166,74.0,0.06582124999999905
27270,54.0,0.1316424999999981,69.0,0.20076700000000258
27271,54.0,0.13164250000000166,69.0,0.06912450000000092
27272,56.0,0.1382489999999983,65.0,0.24717800000000167
27273,54.0,0.12358899999999906,58.0,0.13388808333333557
27274,51.0,0.12358900000000261,56.0,0.18538349999999681
27275,47.0,0.12358899999999906,49.0,0.13388808333333202
27276,42.0,0.12358899999999906,49.0,0.18538350000000037
27277,43.0,0.12358899999999906,51.0,0.12358900000000261
27278,55.0,0.12722333333332614,73.0,0.12639937500000542
27279,56.0,0.12639937500000542,70.0,0.1872817499999968
27280,58.0,0.12485449999999787,64.0,0.12485450000000498
27281,59.0,0.12485450000000498,80.0,0.19789800000000213
27282,61.0,0.2638639999999981,74.0,0.38005199999999917
27283,37.0,0.2533680000000018,54.0,0.12668399999999735
27284,61.0,0.12668399999999735,44.0,0.14598550000000188
27285,52.0,0.14598550000000188,62.0,0.2843599999999995
27286,58.0,0.1421800000000033,52.0,0.1421799999999962
27287,52.0,0.1421799999999962,48.0,0.510038999999999
27288,61.0,0.12994900000000342,56.0,0.1405059999999949
27289,63.0,0.12994899999999632,54.0,0.13697208333333322
27290,61.0,0.12668399999999735,51.0,0.1343568750000017
27291,59.0,0.12345700000000193,56.0,0.13079849999999738
27292,50.0,0.26159700000000186,47.0,0.5096865000000008
27293,59.0,0.12912099999999782,51.0,0.13972275000000423
27294,61.0,0.12912100000000493,54.0,0.18933274999999838
27295,59.0,0.1272209999999987,50.0,0.13526591666666832
27296,58.0,0.12422349999999938,50.0,0.13250899999999888
27297,49.0,0.26501799999999776,63.0,0.5556279999999987
27298,58.0,0.13731849999999923,46.0,0.1490264583333314
27299,59.0,0.13731849999999923,59.0,0.2809910000000002
27300,58.0,0.1404955000000001,54.0,0.15251066666666446
27301,56.0,0.1404955000000001,50.0,0.5674339999999987
27302,54.0,0.2883640000000014,45.0,0.27906999999999726
27303,54.0,0.27906999999999726,59.0,0.06640099999999904
27304,54.0,0.1328019999999981,52.0,0.06640099999999904
27305,54.0,0.1328020000000052,61.0,0.2656039999999962
27306,54.0,0.1328019999999981,57.0,0.06640099999999904
27307,54.0,0.1328019999999981,64.0,0.2632850000000033
27308,54.0,0.1316424999999981,67.0,0.06582124999999905
27309,54.0,0.1316425000000052,70.0,0.19746374999999716
27310,54.0,0.1316424999999981,64.0,0.06582124999999905
27311,54.0,0.1316424999999981,71.0,0.20076699999999903
27312,54.0,0.1316424999999981,67.0,0.06912450000000092
27313,56.0,0.13824900000000184,61.0,0.24717799999999812
27314,54.0,0.12358900000000261,57.0,0.12358899999999551
27315,51.0,0.12358899999999551,50.0,0.18538350000000037
27316,47.0,0.12358900000000261,56.0,0.12358900000000261
27317,42.0,0.12358900000000261,51.0,0.18538349999999326
27318,43.0,0.12358899999999551,55.0,0.12358900000000261
27319,44.0,0.12358900000000261,68.0,0.24717533333333108
27320,44.0,0.12341966666666337,62.0,0.061836166666665804
27321,44.0,0.12375566666666771,62.0,0.1863913333333329
27322,44.0,0.12417733333332848,53.0,0.06221400000000443
27323,44.0,0.1245140000000049,55.0,0.18754566666666506
27324,44.0,0.1249430000000018,62.0,0.06260266666666325
27325,42.0,0.12529066666666466,68.0,0.25082087499999517
27326,47.0,0.12557287499999603,55.0,0.12524799999999914
27327,51.0,0.12524799999999914,50.0,0.18722087500000129
27328,54.0,0.12492087500000082,58.0,0.12453550000000035
27329,59.0,0.12453550000000035,59.0,0.18620200000000153
27330,55.0,0.12421849999999779,56.0,0.12388216666667518
27331,29.0,0.12388216666667518,44.0,0.2533680000000018
27332,56.0,0.12668399999999735,63.0,0.06334200000000578
27333,56.0,0.12668400000000446,61.0,0.19002599999999603
27334,56.0,0.12668399999999735,63.0,0.06334199999999868
27335,56.0,0.12668399999999735,58.0,0.19002600000000314
27336,56.0,0.12668400000000446,54.0,0.06334199999999868
27337,56.0,0.12668399999999735,58.0,0.26442200000000327
27338,58.0,0.08814066666666776,52.0,0.08814066666666776
27339,56.0,0.08814066666666776,52.0,0.08814066666666776
27340,54.0,0.08814066666666776,55.0,0.2638136249999974
27341,59.0,0.1315730416666625,68.0,0.13224058333333488
27342,47.0,0.13224058333333488,50.0,0.13301983333333567
27343,68.0,0.2667244583333357,55.0,0.25824200000000275
27344,66.0,0.25824200000000275,55.0,0.19162800000000146
27345,64.0,0.12775200000000098,51.0,0.12775200000000098
27346,58.0,0.12775200000000098,55.0,0.1316424999999981
27347,61.0,0.2632850000000033,60.0,0.7764489999999995
27348,59.0,0.25824200000000275,58.0,0.19203674999999976
27349,54.0,0.1280245000000022,50.0,0.1280244999999951
27350,42.0,0.1280244999999951,45.0,0.13107899999999972
27351,54.0,0.26215799999999945,48.0,0.2632850000000033
27352,54.0,0.1316424999999981,55.0,0.06582124999999905
27353,54.0,0.1316425000000052,66.0,0.19746374999999716
27354,54.0,0.1316424999999981,73.0,0.06582124999999905
27355,54.0,0.1316424999999981,69.0,0.20076699999999903
27356,54.0,0.1316424999999981,64.0,0.06912450000000092
27357,56.0,0.13824900000000184,53.0,0.24717799999999812
27358,54.0,0.12358900000000261,61.0,0.12358899999999551
27359,51.0,0.12358899999999551,50.0,0.18538350000000037
27360,47.0,0.12358900000000261,40.0,0.12358900000000261
27361,42.0,0.12358900000000261,48.0,0.18538349999999326
27362,43.0,0.12358899999999551,43.0,0.12358900000000261
27363,44.0,0.12358900000000261,43.0,0.24667000000000172
27364,44.0,0.12333499999999731,50.0,0.06166750000000576
27365,44.0,0.12333500000000441,53.0,0.18500249999999596
27366,44.0,0.12333499999999731,56.0,0.061667499999998654
27367,44.0,0.12333500000000441,46.0,0.18500249999999596
27368,44.0,0.12333499999999731,43.0,0.061667499999998654
27369,42.0,0.12333499999999731,48.0,0.24667000000000172
27370,47.0,0.12333500000000441,48.0,0.12333499999999731
27371,51.0,0.12333499999999731,45.0,0.18500250000000307
27372,54.0,0.12333499999999731,61.0,0.12333500000000441
27373,59.0,0.12333500000000441,52.0,0.18500249999999596
27374,55.0,0.12333499999999731,45.0,0.12335616666666738
27375,56.0,0.12335616666666738,50.0,0.2533680000000018
27376,56.0,0.12668399999999735,45.0,0.06334200000000578
27377,56.0,0.12668400000000446,60.0,0.19002599999999603
27378,56.0,0.12668399999999735,65.0,0.06334199999999868
27379,56.0,0.12668399999999735,66.0,0.19002600000000314
27380,56.0,0.12668400000000446,51.0,0.06334199999999868
27381,56.0,0.12668399999999735,70.0,0.7949600833333363
27382,58.0,0.08814066666666776,55.0,0.08814066666666776
27383,56.0,0.08814066666666776,48.0,0.08814066666666776
27384,54.0,0.08814066666666776,55.0,0.19760879166666712
27385,59.0,0.1315730416666625,51.0,0.13224058333333488
27386,63.0,0.13224058333333488,46.0,0.13301983333333567
27387,68.0,0.2667244583333357,55.0,0.7770309999999938
27388,66.0,0.25824199999999564,42.0,0.19162799999999436
27389,64.0,0.12775200000000098,39.0,0.12775200000000098
27390,58.0,0.12775200000000098,47.0,0.1316424999999981
27391,59.0,0.2632849999999962,57.0,0.5265700000000066
27392,39.0,0.2632850000000104,24.0,0.2632849999999962
27393,47.0,0.2632849999999962,55.0,0.3007520000000028
27394,57.0,0.3007520000000028,62.0,0.5417327083333277
27395,30.0,0.26548699999999315,44.0,0.2762457083333345
27396,50.0,0.26548700000000736,48.0,0.2693782083333218
27397,51.0,0.2582089999999937,48.0,0.1340304999999944
27398,47.0,0.268061000000003,50.0,0.2664056250000044
27399,47.0,0.12938300000000424,42.0,0.06302524999999548
27400,47.0,0.12605050000000517,56.0,0.2705545000000029
27401,61.0,0.2705545000000029,60.0,0.5493115833333349
27402,32.0,0.2692880000000031,34.0,0.28002358333333177
27403,55.0,0.2692880000000031,48.0,0.26897595833334265
27404,56.0,0.25765400000000227,49.0,0.13586349999999925
27405,47.0,0.2717269999999985,49.0,0.2654695000000089
27406,47.0,0.12882700000000114,42.0,0.06276149999999348
27407,47.0,0.12552300000000116,55.0,0.2668680000000023
27408,57.0,0.2668680000000023,58.0,0.5505215833333352
27409,30.0,0.26989299999999616,35.0,0.28062858333333907
27410,50.0,0.2698930000000104,44.0,0.2688232083333304
27411,51.0,0.25765400000000227,48.0,0.1340304999999944
27412,47.0,0.268061000000003,51.0,0.27764995833334183
27413,47.0,0.13313800000000242,43.0,0.06656900000000121
27414,47.0,0.13313800000000242,52.0,0.2729750000000024
27415,57.0,0.2729750000000024,53.0,0.8573099999999982
27416,47.0,0.29556700000000546,45.0,0.28776999999999475
27417,54.0,0.28776999999999475,49.0,0.273972999999998
27418,52.0,0.273972999999998,47.0,0.14285700000000645
27419,47.0,0.2857139999999987,40.0,0.2895529583333314
27420,47.0,0.13903700000000185,36.0,0.06951850000000093
27421,47.0,0.13903700000000185,40.0,0.2870010000000036
27422,57.0,0.2870010000000036,47.0,0.5444947083333318
27423,30.0,0.2668680000000023,31.0,0.2776267083333295
27424,50.0,0.2668680000000023,42.0,0.2693782083333218
27425,51.0,0.2582089999999937,42.0,0.1340304999999944
27426,47.0,0.268061000000003,44.0,0.2653792500000094
27427,47.0,0.12938300000000424,39.0,0.0625
27428,47.0,0.125,53.0,0.2751530000000031
27429,61.0,0.2751530000000031,64.0,0.5421327083333267
27430,40.0,0.2656869999999998,30.0,0.27644570833332693
27431,44.0,0.2656869999999998,53.0,0.26953095833333407
27432,56.0,0.2582089999999937,52.0,0.13586349999999925
27433,47.0,0.2717269999999985,45.0,0.2656719583333427
27434,47.0,0.12882700000000114,36.0,0.06276149999999348
27435,47.0,0.12552300000000116,55.0,0.2717269999999985
27436,59.0,0.2717269999999985,63.0,0.13224599999999498
27437,49.0,0.26449200000000417,63.0,0.27001154166666197
27438,59.0,0.12938300000000424,49.0,0.12938299999999003
27439,54.0,0.12938299999999003,56.0,0.6663704999999993
27440,23.0,0.26989299999999616,37.0,0.13254999999999484
27441,47.0,0.2651000000000039,53.0,0.27420766666666907
27442,57.0,0.13137749999999926,46.0,0.13137749999999926
27443,52.0,0.13137749999999926,50.0,0.6851624999999899
27444,23.0,0.2748639999999938,33.0,0.13464399999999443
27445,45.0,0.2692880000000031,40.0,0.2820210000000003
27446,56.0,0.14101049999999304,40.0,0.14101050000000726
27447,54.0,0.14101050000000726,38.0,0.3027699999999953
27448,35.0,0.3027699999999953,45.0,0.30277000000000953
27449,47.0,0.30277000000000953,43.0,0.0659339999999986
27450,47.0,0.1318679999999972,35.0,0.0659339999999986
27451,47.0,0.1318679999999972,43.0,0.276591499999995
27452,57.0,0.276591499999995,48.0,0.5470127083333267
27453,39.0,0.2723440000000039,44.0,0.2746687083333228
27454,45.0,0.26390999999999565,49.0,0.2693782083333218
27455,51.0,0.2582089999999937,45.0,0.1340304999999944
27456,47.0,0.268061000000003,47.0,0.266671125000002
27457,47.0,0.12938300000000424,42.0,0.06315800000000138
27458,47.0,0.12631600000000276,56.0,0.27251049999999566
27459,61.0,0.27251049999999566,60.0,0.5493115833333349
27460,40.0,0.2692880000000031,45.0,0.28002358333333177
27461,44.0,0.2692880000000031,50.0,0.26897595833334265
27462,28.0,0.25765400000000227,52.0,0.13586349999999925
27463,47.0,0.2717269999999985,47.0,0.2659970000000129
27464,47.0,0.12882700000000114,40.0,0.06302524999999548
27465,47.0,0.12605050000000517,55.0,0.2668680000000023
27466,57.0,0.2668680000000023,58.0,0.5505215833333352
27467,39.0,0.26989299999999616,34.0,0.28062858333333907
27468,50.0,0.2698930000000104,44.0,0.2688232083333304
27469,54.0,0.25765400000000227,48.0,0.1340304999999944
27470,47.0,0.268061000000003,44.0,0.2778350833333434
27471,47.0,0.13313800000000242,39.0,0.06656900000000121
27472,47.0,0.13313800000000242,52.0,0.2774179999999973
27473,49.0,0.2774179999999973,53.0,0.8611180000000047
27474,56.0,0.29748600000000636,46.0,0.28776999999999475
27475,54.0,0.28776999999999475,49.0,0.2758620000000036
27476,52.0,0.2758620000000036,47.0,0.14101049999999304
27477,47.0,0.2820210000000003,40.0,0.2780740000000037
27478,47.0,0.13903700000000185,33.0,0.06951850000000093
27479,47.0,0.13903700000000185,40.0,0.2790054999999967
27480,57.0,0.2790054999999967,47.0,0.5444947083333318
27481,30.0,0.2668680000000023,38.0,0.2776267083333295
27482,53.0,0.2668680000000023,42.0,0.2693782083333218
27483,23.0,0.2582089999999937,61.0,0.1340304999999944
27484,30.0,0.268061000000003,49.0,0.26671950000000777
27485,47.0,0.12938300000000424,29.0,0.06315800000000138
27486,45.0,0.12631600000000276,57.0,0.26449200000000417
27487,61.0,0.26449200000000417,64.0,0.5421327083333267
27488,32.0,0.2656869999999998,47.0,0.27644570833332693
27489,44.0,0.2656869999999998,57.0,0.26953095833333407
27490,28.0,0.2582089999999937,53.0,0.13586349999999925
27491,47.0,0.2717269999999985,45.0,0.2551430000000039
27492,47.0,0.12882700000000114,41.0,0.06315800000000138
27493,47.0,0.12631600000000276,55.0,0.2717269999999985
27494,59.0,0.2717269999999985,63.0,0.13224599999999498
27495,49.0,0.26449200000000417,63.0,0.27001154166666197
27496,59.0,0.12938300000000424,49.0,0.12938299999999003
27497,54.0,0.12938299999999003,56.0,0.6663704999999993
27498,23.0,0.26989299999999616,42.0,0.13254999999999484
27499,47.0,0.2651000000000039,53.0,0.27420766666666907
27500,57.0,0.13137749999999926,46.0,0.13137749999999926
27501,52.0,0.13137749999999926,50.0,0.6851624999999899
27502,23.0,0.2748639999999938,43.0,0.13464399999999443
27503,45.0,0.2692880000000031,40.0,0.2820210000000003
27504,56.0,0.14101049999999304,40.0,0.14101050000000726
27505,30.0,0.14101050000000726,46.0,0.3027699999999953
27506,28.0,0.3027699999999953,46.0,0.30277000000000953
27507,56.0,0.6055400000000049,77.0,0.13195500000000493
27508,56.0,0.23092124999999442,69.0,0.03298875000000123
27509,54.0,0.03298875000000123,82.0,0.13195500000000493
27510,46.0,0.26391000000000986,68.0,0.13195499999999072
27511,56.0,0.23092124999999442,55.0,0.03298875000000123
27512,40.0,0.03298875000000123,67.0,0.13195500000000493
27513,46.0,0.26390999999999565,81.0,0.13195500000000493
27514,56.0,0.23092125000000863,59.0,0.03298875000000123
27515,54.0,0.03298875000000123,69.0,0.13195499999999072
27516,46.0,0.26390999999999565,66.0,0.13195499999999072
27517,47.0,0.2635797500000052,59.0,0.2549660416666768
27518,51.0,0.12778779166667675,47.0,0.12717825000000005
27519,54.0,0.12717825000000005,53.0,0.25253162500000315
27520,59.0,0.12656566666666436,53.0,0.1259659583333388
27521,63.0,0.1259659583333388,59.0,0.13109000000000037
27522,59.0,0.26218000000000075,63.0,0.25114100000000406
27523,61.0,0.08371366666666802,44.0,0.08371366666666802
27524,59.0,0.08371366666666802,51.0,0.08371366666666802
27525,29.0,0.08371366666666802,39.0,0.25114099999998984
27526,53.0,0.12557049999999492,58.0,0.12557049999999492
27527,54.0,0.12557049999999492,63.0,0.13195500000000493
27528,56.0,0.23092124999999442,64.0,0.03298875000000123
27529,54.0,0.03298875000000123,78.0,0.13373149999999612
27530,46.0,0.26746300000000645,60.0,0.13373149999999612
27531,56.0,0.23403012499998965,53.0,0.03343287500000258
27532,54.0,0.03343287500000258,71.0,0.13373149999999612
27533,46.0,0.26746300000000645,81.0,0.13373149999999612
27534,56.0,0.23403012499998965,51.0,0.03343287500000258
27535,54.0,0.03343287500000258,72.0,0.13373149999999612
27536,46.0,0.26746300000000645,72.0,0.13373149999999612
27537,42.0,0.2669847083333252,64.0,0.255983999999998
27538,44.0,0.08532800000000407,52.0,0.08532799999998986
27539,42.0,0.08532799999998986,60.0,0.08532800000000407
27540,41.0,0.08532800000000407,44.0,0.2622082500000147
27541,42.0,0.1304198750000154,54.0,0.1317883749999993
27542,51.0,0.1317883749999993,58.0,0.2729750000000024
27543,49.0,0.1364875000000012,53.0,0.1364875000000012
27544,47.0,0.1364875000000012,48.0,0.2718742499999962
27545,49.0,0.03571424999999806,41.0,0.03571424999999806
27546,47.0,0.03571424999999806,64.0,0.06681525000000477
27547,46.0,0.06681525000000477,49.0,0.13363049999999532
27548,47.0,0.13363049999999532,71.0,0.26514404166665884
27549,49.0,0.13308949999998276,66.0,0.13205454166667607
27550,51.0,0.13205454166667607,77.0,0.2732108333333372
27551,52.0,0.1309944999999999,56.0,0.10753724999999292
27552,56.0,0.10753724999999292,69.0,0.03467908333334435
27553,54.0,0.03467908333334435,85.0,0.13195500000000493
27554,46.0,0.26390999999999565,63.0,0.13195500000000493
27555,56.0,0.23092125000000863,57.0,0.03298875000000123
27556,54.0,0.03298875000000123,70.0,0.13195499999999072
27557,46.0,0.26390999999999565,86.0,0.13195500000000493
27558,56.0,0.23092124999999442,67.0,0.03298875000000123
27559,54.0,0.03298875000000123,74.0,0.13195500000000493
27560,46.0,0.26391000000000986,65.0,0.13195499999999072
27561,47.0,0.263579749999991,57.0,0.2549660416666768
27562,51.0,0.12778779166667675,38.0,0.12717825000000005
27563,54.0,0.12717825000000005,43.0,0.25253162500000315
27564,59.0,0.12656566666666436,53.0,0.1259659583333388
27565,59.0,0.2736099999999908,77.0,0.14033750000000111
27566,61.0,0.035084374999996726,78.0,0.035084374999996726
27567,59.0,0.035084374999996726,86.0,0.07016875000000766
27568,50.0,0.2085577500000113,45.0,0.27050199999999336
27569,57.0,0.13525099999999668,80.0,0.13525099999999668
27570,59.0,0.13525099999999668,80.0,0.27050200000000757
27571,61.0,0.27050200000000757,88.0,0.13343399999999406
27572,40.0,0.2668680000000023,49.0,0.2686730000000068
27573,61.0,0.2686730000000068,88.0,0.13617200000000196
27574,61.0,0.2723440000000039,94.0,0.8123080000000016
27575,49.0,0.2651000000000039,43.0,0.2748639999999938
27576,42.0,0.2748639999999938,43.0,0.2723440000000039
27577,68.0,0.2723440000000039,58.0,0.13254999999999484
27578,51.0,0.2651000000000039,42.0,0.2604510000000033
27579,66.0,0.13022550000000876,48.0,0.06511274999999728
27580,66.0,0.13022549999999455,56.0,0.2604509999999891
27581,59.0,0.2604509999999891,59.0,0.132843500000007
27582,42.0,0.265687000000014,36.0,0.259886999999992
27583,66.0,0.129943499999996,55.0,0.06497175000001221
27584,66.0,0.129943499999996,55.0,0.2598870000000204
27585,68.0,0.2598870000000204,59.0,0.13373150000001033
27586,51.0,0.26746299999999223,32.0,0.2820209999999861
27587,66.0,0.14101049999999304,50.0,0.07050524999999652
27588,66.0,0.14101049999999304,55.0,0.29601900000000114
27589,56.0,0.29601900000000114,59.0,0.29601900000000114
27590,40.0,0.5920380000000023,67.0,0.29601900000000114
27591,47.0,0.29601900000000114,72.0,0.14268749999999386
27592,28.0,0.2853749999999877,49.0,0.28537500000001614
27593,47.0,0.28537500000001614,69.0,0.14268749999999386
27594,47.0,0.2853749999999877,66.0,0.14268750000002228
27595,49.0,0.03567187500001978,66.0,0.03567187499999136
27596,47.0,0.03567187499999136,72.0,0.07134375000001114
27597,28.0,0.214031250000005,50.0,0.2780740000000037
27598,45.0,0.13903700000000185,68.0,0.13903700000000185
27599,47.0,0.13903700000000185,72.0,0.2780740000000037
27600,49.0,0.2780740000000037,76.0,0.13617199999998775
27601,37.0,0.2723440000000039,51.0,0.2780740000000037
27602,52.0,0.2780740000000037,81.0,0.13743199999998978
27603,57.0,0.274864000000008,87.0,0.8420250000000067
27604,37.0,0.28067500000000223,51.0,0.28067500000000223
27605,37.0,0.28067500000000223,54.0,0.28067500000000223
27606,56.0,0.28067500000000223,61.0,0.13838899999998944
27607,39.0,0.2767780000000073,34.0,0.2711130000000139
27608,54.0,0.13555650000000696,52.0,0.06777825000000348
27609,54.0,0.13555650000000696,56.0,0.2711129999999855
27610,56.0,0.2711129999999855,60.0,0.13870900000000574
27611,30.0,0.2774180000000115,34.0,0.2729750000000024
27612,54.0,0.136487499999987,52.0,0.06824375000002192
27613,45.0,0.13648750000001542,56.0,0.2729750000000024
27614,56.0,0.2729750000000024,60.0,0.13838899999998944
27615,30.0,0.2767780000000073,36.0,0.28067500000000223
27616,54.0,0.1403374999999869,55.0,0.07016875000002187
27617,54.0,0.14033750000001532,57.0,0.28067500000000223
27618,43.0,0.28067500000000223,68.0,0.8420250000000067
27619,35.0,0.28067500000000223,45.0,0.28067500000000223
27620,52.0,0.1403374999999869,58.0,0.07016874999999345
27621,52.0,0.14033750000001532,62.0,0.28067500000000223
27622,59.0,0.28067500000000223,86.0,0.13870900000000574
27623,40.0,0.2774180000000115,50.0,0.2736099999999908
27624,56.0,0.1368050000000096,80.0,0.0684024999999906
27625,59.0,0.1368049999999812,80.0,0.2736100000000192
27626,59.0,0.2736100000000192,77.0,0.1403374999999869
27627,61.0,0.035084374999996726,78.0,0.035084374999996726
27628,59.0,0.035084374999996726,86.0,0.07016874999999345
27629,50.0,0.2085577499999829,47.0,0.27050199999999336
27630,57.0,0.1352510000000109,75.0,0.13525099999998247
27631,59.0,0.13525099999998247,80.0,0.27050199999999336
27632,57.0,0.27050199999999336,88.0,0.13343399999999406
27633,40.0,0.2668679999999881,56.0,0.2686730000000068
27634,61.0,0.2686730000000068,92.0,0.13617199999998775
27635,69.0,0.2723440000000039,101.0,0.8123080000000016
27636,41.0,0.2650999999999897,61.0,0.274864000000008
27637,49.0,0.274864000000008,62.0,0.2723440000000039
27638,59.0,0.2723440000000039,59.0,0.13255000000000905
27639,51.0,0.2650999999999897,35.0,0.2604509999999891
27640,66.0,0.13022549999999455,56.0,0.06511274999999728
27641,66.0,0.13022549999999455,56.0,0.26045100000001753
27642,59.0,0.26045100000001753,59.0,0.132843500000007
27643,42.0,0.265687000000014,35.0,0.259886999999992
27644,66.0,0.129943499999996,51.0,0.06497175000001221
27645,66.0,0.129943499999996,55.0,0.2598870000000204
27646,68.0,0.2598870000000204,59.0,0.13373150000001033
27647,47.0,0.26746299999999223,36.0,0.2820209999999861
27648,66.0,0.14101049999999304,52.0,0.07050524999999652
27649,66.0,0.14101049999999304,55.0,0.29601900000000114
27650,56.0,0.29601900000000114,59.0,0.29601900000000114
27651,56.0,0.5920380000000023,50.0,0.22150677083334358
27652,56.0,0.2269093749999911,45.0,0.03241562499999873
27653,57.0,0.03241562499999873,52.0,0.12966250000002333
27654,57.0,0.2269093750000195,41.0,0.03241562499999873
27655,55.0,0.03241562499999873,46.0,0.1296624999999949
27656,55.0,0.2269093749999911,43.0,0.03241562499999873
27657,56.0,0.03241562499999873,50.0,0.1296624999999949
27658,56.0,0.2269093749999911,46.0,0.03241562499999873
27659,57.0,0.03241562499999873,53.0,0.1285455000000013
27660,57.0,0.2249546250000094,44.0,0.03213637499999322
27661,55.0,0.03213637499999322,50.0,0.1285455000000013
27662,55.0,0.2249546250000094,45.0,0.03213637499999322
27663,56.0,0.03213637499999322,50.0,0.1285455000000013
27664,56.0,0.22495462499998098,50.0,0.032136375000021644
27665,64.0,0.032136375000021644,57.0,0.12219949999999358
27666,64.0,0.21384912499999587,50.0,0.03054987499999129
27667,63.0,0.03054987499999129,59.0,0.122199500000022
27668,63.0,0.2138491250000243,56.0,0.03054987499999129
27669,62.0,0.03054987499999129,66.0,0.12219949999999358
27670,62.0,0.21384912499999587,64.0,0.03054987499999129
27671,61.0,0.03054987499999129,75.0,0.12096750000000611
27672,61.0,0.2116931250000107,63.0,0.030241875000001528
27673,60.0,0.030241875000001528,73.0,0.12096749999997769
27674,60.0,0.21169312499998227,63.0,0.030241875000001528
27675,59.0,0.030241875000001528,70.0,0.12096750000000611
27676,59.0,0.2116931250000107,58.0,0.030241875000001528
27677,58.0,0.030241875000001528,67.0,0.12096749999997769
27678,58.0,0.21169312499998227,54.0,0.030241875000001528
27679,57.0,0.030241875000001528,65.0,0.12096750000000611
27680,57.0,0.2116931250000107,51.0,0.030241875000001528
27681,56.0,0.030241875000001528,63.0,0.12096750000000611
27682,56.0,0.21169312499998227,49.0,0.030241875000001528
27683,55.0,0.030241875000001528,60.0,0.12082016666664686
27684,55.0,0.21165891666666425,46.0,0.030306749999994054
27685,54.0,0.030306749999994054,58.0,0.12155749999999443
27686,54.0,0.21297762500000772,44.0,0.030514708333328144
27687,51.0,0.030514708333328144,54.0,0.12232845833332817
27688,51.0,0.2143092083333329,44.0,0.0307230416666755
27689,52.0,0.0307230416666755,52.0,0.1229759999999942
27690,52.0,0.21520799999998985,38.0,0.03074399999999855
27691,48.0,0.03074399999999855,48.0,0.1229759999999942
27692,48.0,0.21520799999998985,39.0,0.030744000000026972
27693,49.0,0.030744000000026972,50.0,0.1229759999999942
27694,49.0,0.21520799999998985,39.0,0.03074399999999855
27695,52.0,0.03074399999999855,50.0,0.12477649999999585
27696,52.0,0.21835887500000695,39.0,0.03119412499998475
27697,54.0,0.03119412499998475,50.0,0.12477649999999585
27698,54.0,0.21835887500000695,37.0,0.031194125000013173
27699,55.0,0.031194125000013173,51.0,0.12711849999999458
27700,55.0,0.22245737500000473,40.0,0.031779624999984435
27701,57.0,0.031779624999984435,54.0,0.12502183333333505
27702,57.0,0.21901124999996568,44.0,0.03138075000001095
27703,55.0,0.03138075000001095,55.0,0.12569833333333236
27704,55.0,0.22023620833331847,44.0,0.031578999999993584
27705,56.0,0.031578999999993584,58.0,0.1264492500000074
27706,56.0,0.2215198750000127,49.0,0.03173487500001215
27707,57.0,0.03173487500001215,62.0,0.12474000000000274
27708,57.0,0.2182950000000119,51.0,0.03118499999999358
27709,55.0,0.03118499999999358,68.0,0.12474000000000274
27710,55.0,0.21829499999998347,54.0,0.031185000000022
27711,56.0,0.031185000000022,73.0,0.12474000000000274
27712,56.0,0.21829499999998347,71.0,0.03118499999999358
27713,68.0,0.03118499999999358,83.0,0.12170399999999404
27714,68.0,0.21298200000001088,68.0,0.030425999999977194
27715,64.0,0.030425999999977194,80.0,0.12170400000002246
27716,64.0,0.21298200000001088,63.0,0.030426000000005615
27717,61.0,0.030426000000005615,76.0,0.12170399999999404
27718,61.0,0.21298199999998246,57.0,0.030426000000005615
27719,57.0,0.030426000000005615,71.0,0.122058833333341
27720,57.0,0.21383116666666524,52.0,0.03061850000000277
27721,54.0,0.03061850000000277,66.0,0.12280833333332453
27722,54.0,0.2151476250000144,44.0,0.03080837499999234
27723,51.0,0.03080837499999234,57.0,0.12357733333331566
27724,57.0,0.21649424999998246,41.0,0.031022124999992684
27725,32.0,0.031022124999992684,56.0,0.12098249999999666
27726,56.0,0.21171937500000126,42.0,0.03024562499999206
27727,55.0,0.03024562499999206,53.0,0.12098249999999666
27728,55.0,0.21171937500000126,42.0,0.03024562499999206
27729,54.0,0.03024562499999206,55.0,0.12098250000002508
27730,54.0,0.21171937500000126,43.0,0.030245625000020482
27731,53.0,0.030245625000020482,56.0,0.12098249999999666
27732,53.0,0.21171937500000126,44.0,0.03024562499999206
27733,52.0,0.03024562499999206,58.0,0.12098249999999666
27734,52.0,0.21171937500000126,46.0,0.03024562499999206
27735,51.0,0.03024562499999206,60.0,0.12098249999999666
27736,51.0,0.21171937500000126,46.0,0.03024562499999206
27737,50.0,0.03024562499999206,62.0,0.24642670833333113
27738,50.0,0.21548995833333606,49.0,0.030936749999995072
27739,49.0,0.030936749999995072,64.0,0.1241742916666908
27740,49.0,0.21771400000000085,48.0,0.03126037500001644
27741,48.0,0.03126037500001644,66.0,0.12546087499998748
27742,48.0,0.21999037499998053,47.0,0.031590875000006235
27743,47.0,0.031590875000006235,67.0,0.12676991666666027
27744,47.0,0.22231104166667137,51.0,0.031929875000002994
27745,46.0,0.031929875000002994,69.0,0.1281293749999861
27746,46.0,0.2246789166666474,55.0,0.03227612500000987
27747,45.0,0.03227612500000987,71.0,0.14101049999999304
27748,47.0,0.2820209999999861,72.0,0.14268749999999386
27749,38.0,0.2853749999999877,49.0,0.28537500000001614
27750,47.0,0.28537500000001614,69.0,0.2853749999999877
27751,47.0,0.2853749999999877,66.0,0.14268750000002228
27752,49.0,0.03567187500001978,66.0,0.03567187499999136
27753,47.0,0.03567187499999136,72.0,0.07134375000001114
27754,38.0,0.214031250000005,50.0,0.2780740000000037
27755,45.0,0.13903700000000185,68.0,0.13903700000000185
27756,47.0,0.13903700000000185,72.0,0.2780740000000037
27757,49.0,0.2780740000000037,76.0,0.13617199999998775
27758,33.0,0.2723440000000039,51.0,0.2780740000000037
27759,52.0,0.2780740000000037,81.0,0.1396844999999871
27760,49.0,0.27936900000000264,87.0,0.8420250000000067
27761,29.0,0.28067500000000223,54.0,0.28067500000000223
27762,30.0,0.28067500000000223,54.0,0.28067500000000223
27763,56.0,0.28067500000000223,61.0,0.13838899999998944
27764,30.0,0.2767780000000073,36.0,0.2711130000000139
27765,54.0,0.13555650000000696,52.0,0.06777825000000348
27766,54.0,0.13555650000000696,56.0,0.2711129999999855
27767,56.0,0.2711129999999855,60.0,0.13870900000000574
27768,39.0,0.2774180000000115,37.0,0.2729750000000024
27769,54.0,0.136487499999987,53.0,0.06824375000002192
27770,54.0,0.13648750000001542,56.0,0.2729750000000024
27771,56.0,0.2729750000000024,60.0,0.13838899999998944
27772,30.0,0.2767780000000073,39.0,0.28067500000000223
27773,54.0,0.1403374999999869,53.0,0.07016875000002187
27774,45.0,0.14033750000001532,57.0,0.28067500000000223
27775,51.0,0.28067500000000223,68.0,0.8420250000000067
27776,35.0,0.28067500000000223,43.0,0.28067500000000223
27777,52.0,0.1403374999999869,57.0,0.07016874999999345
27778,52.0,0.14033750000001532,62.0,0.28067500000000223
27779,59.0,0.28067500000000223,86.0,0.13870900000000574
27780,50.0,0.2774180000000115,54.0,0.2736099999999908
27781,56.0,0.1368050000000096,76.0,0.0684024999999906
27782,59.0,0.1368049999999812,80.0,0.2736100000000192
27783,59.0,0.2736100000000192,77.0,0.1403374999999869
27784,61.0,0.035084374999996726,78.0,0.035084374999996726
27785,59.0,0.035084374999996726,86.0,0.07016874999999345
27786,50.0,0.2085577499999829,53.0,0.27050199999999336
27787,54.0,0.1352510000000109,76.0,0.13525099999998247
27788,59.0,0.13525099999998247,80.0,0.27050199999999336
27789,57.0,0.27050199999999336,88.0,0.13343399999999406
27790,40.0,0.2668679999999881,56.0,0.2686730000000068
27791,61.0,0.2686730000000068,92.0,0.13774749999998903
27792,61.0,0.2754950000000065,96.0,0.8123080000000016
27793,49.0,0.2650999999999897,58.0,0.274864000000008
27794,42.0,0.274864000000008,62.0,0.2723440000000039
27795,59.0,0.2723440000000039,59.0,0.13255000000000905
27796,51.0,0.2650999999999897,36.0,0.2604509999999891
27797,66.0,0.13022549999999455,52.0,0.06511274999999728
27798,57.0,0.13022549999999455,56.0,0.26045100000001753
27799,59.0,0.26045100000001753,59.0,0.132843500000007
27800,42.0,0.265687000000014,34.0,0.259886999999992
27801,66.0,0.129943499999996,52.0,0.06497175000001221
27802,66.0,0.129943499999996,55.0,0.2598870000000204
27803,59.0,0.2598870000000204,59.0,0.13373150000001033
27804,42.0,0.26746299999999223,37.0,0.2820209999999861
27805,66.0,0.14101049999999304,53.0,0.07050524999999652
27806,66.0,0.14101049999999304,55.0,0.29601900000000114
27807,56.0,0.29601900000000114,59.0,0.29601900000000114
27808,56.0,0.5920380000000023,50.0,0.22150677083334358
27809,56.0,0.2269093749999911,45.0,0.03241562499999873
27810,57.0,0.03241562499999873,52.0,0.12966250000002333
27811,57.0,0.2269093750000195,44.0,0.03241562499999873
27812,55.0,0.03241562499999873,50.0,0.1296624999999949
27813,55.0,0.2269093749999911,43.0,0.03241562499999873
27814,56.0,0.03241562499999873,50.0,0.1296624999999949
27815,56.0,0.2269093749999911,46.0,0.03241562499999873
27816,57.0,0.03241562499999873,53.0,0.1285455000000013
27817,57.0,0.2249546250000094,44.0,0.03213637499999322
27818,55.0,0.03213637499999322,50.0,0.1285455000000013
27819,55.0,0.2249546250000094,45.0,0.03213637499999322
27820,56.0,0.03213637499999322,50.0,0.1285455000000013
27821,56.0,0.22495462499998098,50.0,0.032136375000021644
27822,64.0,0.032136375000021644,57.0,0.12269950000001018
27823,64.0,0.2147241250000036,50.0,0.030674874999988333
27824,63.0,0.030674874999988333,59.0,0.12269950000001018
27825,63.0,0.2147241250000036,56.0,0.030674875000016755
27826,62.0,0.030674875000016755,66.0,0.12240783333331251
27827,62.0,0.21366537499997662,64.0,0.03030300000000352
27828,61.0,0.03030300000000352,75.0,0.12096750000000611
27829,61.0,0.2116931250000107,63.0,0.030241875000001528
27830,60.0,0.030241875000001528,73.0,0.12096749999997769
27831,60.0,0.21169312499998227,63.0,0.030241875000001528
27832,59.0,0.030241875000001528,70.0,0.12096750000000611
27833,59.0,0.2116931250000107,58.0,0.030241875000001528
27834,58.0,0.030241875000001528,67.0,0.12096749999997769
27835,58.0,0.21169312499998227,54.0,0.030241875000001528
27836,57.0,0.030241875000001528,65.0,0.12096750000000611
27837,57.0,0.2116931250000107,51.0,0.030241875000001528
27838,56.0,0.030241875000001528,63.0,0.12096750000000611
27839,56.0,0.21169312499998227,49.0,0.030241875000001528
27840,55.0,0.030241875000001528,60.0,0.12082016666664686
27841,55.0,0.21165891666666425,46.0,0.030306749999994054
27842,54.0,0.030306749999994054,58.0,0.12155749999999443
27843,54.0,0.21297762500000772,44.0,0.030514708333328144
27844,51.0,0.030514708333328144,54.0,0.12232845833332817
27845,51.0,0.2143092083333329,44.0,0.0307230416666755
27846,52.0,0.0307230416666755,52.0,0.1229759999999942
27847,52.0,0.21520799999998985,38.0,0.03074399999999855
27848,48.0,0.03074399999999855,50.0,0.1229759999999942
27849,48.0,0.21520799999998985,39.0,0.030744000000026972
27850,49.0,0.030744000000026972,50.0,0.1229759999999942
27851,49.0,0.21520799999998985,39.0,0.03074399999999855
27852,54.0,0.32876699999999914,50.0,0.32390399999999886
27853,47.0,0.32390399999999886,50.0,1.0125449999999887
27854,49.0,0.16875749999999812,50.0,0.16875749999999812
27855,47.0,0.16875749999999812,50.0,0.33751499999999623
27856,46.0,0.16875749999999812,50.0,0.16875749999999812
27857,47.0,0.16875749999999812,50.0,0.33751499999999623
27858,48.0,0.16875749999999812,50.0,0.16875749999999812
27859,49.0,0.16875749999999812,61.0,0.34372099999998795
27860,45.0,0.34372099999998795,50.0,0.33751499999999623
27861,49.0,0.16875749999999812,51.0,0.16875749999999812
27862,50.0,0.16875749999999812,54.0,0.33751499999999623
27863,51.0,0.16875749999999812,56.0,0.16875749999999812
27864,52.0,0.16875749999999812,50.0,1.0330914999999834
27865,54.0,0.04532274999999686,50.0,0.04532274999999686
27866,52.0,0.04532274999999686,50.0,0.09064549999999372
27867,51.0,0.09064549999999372,55.0,0.16875749999999812
27868,52.0,0.16875749999999812,57.0,0.34018599999998855
27869,61.0,0.16875749999999812,58.0,0.17142849999999044
27870,59.0,0.17142849999999044,60.0,0.3428570000000093
27871,57.0,0.17142850000001886,62.0,0.17142849999999044
27872,56.0,0.17142849999999044,64.0,0.6572820000000092
27873,33.0,0.3286410000000046,29.0,0.3286410000000046
27874,54.0,0.3286410000000046,56.0,0.35122599999999693
27875,47.0,0.35122599999999693,52.0,1.0952894999999785
27876,49.0,0.12446333333332404,50.0,0.12446333333335247
27877,47.0,0.12446333333335247,50.0,0.12446333333332404
27878,46.0,0.12446333333332404,52.0,0.36509649999999283
27879,47.0,0.18669499999998607,50.0,0.17840150000000676
27880,50.0,0.17840150000000676,56.0,0.3568029999999851
27881,49.0,0.17840150000000676,50.0,0.17840149999997834
27882,45.0,0.17840149999997834,50.0,0.360138500000005
27883,39.0,0.18304950000000986,42.0,0.17708899999999517
27884,40.0,0.17708899999999517,43.0,0.35159558333330665
27885,44.0,0.17625408333330483,45.0,0.17534150000000182
27886,45.0,0.17534150000000182,47.0,0.34815595833333646
27887,49.0,0.1744833749999941,48.0,0.17367258333334235
27888,52.0,0.17367258333334235,50.0,1.0552868333333265
27889,54.0,0.17313549999997235,51.0,0.1741667916666927
27890,52.0,0.1741667916666927,53.0,0.3516909999999882
27891,51.0,0.1752512500000023,55.0,0.1764397499999859
27892,52.0,0.1764397499999859,56.0,0.35629354166667326
27893,53.0,0.17755725000000666,58.0,0.1339448749999974
27894,53.0,0.1339448749999974,54.0,0.04479141666666919
27895,56.0,0.04479141666666919,67.0,0.7093120000000113
27896,42.0,0.3602520000000027,30.0,0.3490600000000086
27897,54.0,0.3490600000000086,59.0,0.34905999999998016
27898,47.0,0.34905999999998016,50.0,1.0552197083332828
27899,49.0,0.1745300000000043,50.0,0.1745300000000043
27900,47.0,0.1745300000000043,41.0,0.349329124999997
27901,49.0,0.04363250000000107,41.0,0.04363250000000107
27902,47.0,0.04363250000000107,49.0,0.08726500000000215
27903,46.0,0.08726500000000215,50.0,0.17479912499999273
27904,47.0,0.17479912499999273,52.0,0.3568305833332772
27905,48.0,0.17718533333331266,55.0,0.17964524999996456
27906,49.0,0.17964524999996456,64.0,0.3625820000000033
27907,45.0,0.3625820000000033,54.0,0.3625820000000033
27908,49.0,0.18129099999998743,53.0,0.18129100000001586
27909,50.0,0.18129100000001586,55.0,0.3625820000000033
27910,51.0,0.18129099999998743,57.0,0.18129100000001586
27911,52.0,0.18129100000001586,50.0,1.225121999999999
27912,54.0,0.049645875000010165,50.0,0.04964587499998174
27913,52.0,0.04964587499998174,59.0,0.09929175000002033
27914,51.0,0.09929175000002033,57.0,0.19858349999998381
27915,52.0,0.19858349999998381,58.0,0.442103000000003
27916,62.0,0.16432499999999095,67.0,0.13888900000000604
27917,61.0,0.13888900000000604,65.0,0.13888900000000604
27918,61.0,0.13888900000000604,63.0,0.38585199999999986
27919,59.0,0.1286173333333238,61.0,0.12861733333335224
27920,57.0,0.12861733333335224,59.0,0.1286173333333238
27921,56.0,0.1286173333333238,57.0,0.7228920000000016
27922,33.0,0.3614460000000008,30.0,0.3614460000000008
27923,54.0,0.3614460000000008,55.0,0.3614460000000008
27924,47.0,0.3614460000000008,46.0,1.1483781916666942
27925,49.0,0.11893433333332837,46.0,0.11893433333332837
27926,47.0,0.11893433333332837,46.0,0.11893433333335679
27927,46.0,0.11893433333335679,46.0,0.36865900000000806
27928,47.0,0.1807009999999991,47.0,0.18795800000000895
27929,50.0,0.18795800000000895,49.0,0.4229161916666726
27930,49.0,0.20989319166667997,45.0,0.21302299999999263
27931,45.0,0.21302299999999263,39.0,0.4260460000000137
27932,37.0,0.4260460000000137,27.0,0.42604599999998527
27933,49.0,0.42604599999998527,39.0,0.07075474999999187
27934,49.0,0.14150950000001217,39.0,0.07075474999999187
27935,49.0,0.14150949999998375,39.0,0.14150950000001217
27936,49.0,0.5660379999999918,39.0,0.28301900000002433
27937,49.0,0.14150950000001217,39.0,0.07075474999999187
27938,49.0,0.14150950000001217,39.0,0.14150949999998375
27939,49.0,0.5660379999999918,39.0,0.2830189999999959
27940,49.0,0.14150949999998375,39.0,0.0707547500000203
27941,49.0,0.14150950000001217,39.0,0.14150950000001217
27942,61.0,0.2830189999999959,94.0,0.07075474999999187
27943,61.0,0.14150950000001217,91.0,0.07075474999999187
27944,49.0,0.14150949999998375,95.0,0.14150950000001217
27945,61.0,0.2830189999999959,95.0,0.0707547500000203
27946,61.0,0.14150950000001217,91.0,0.07075474999999187
27947,61.0,0.14150950000001217,95.0,0.14150949999998375
27948,61.0,0.2830189999999959,95.0,0.07075474999999187
27949,61.0,0.14150949999998375,91.0,0.0707547500000203
27950,61.0,0.14150950000001217,95.0,0.14150949999998375
27951,49.0,0.5660379999999918,39.0,0.2891569999999888
27952,49.0,0.1445784999999944,39.0,0.0722892500000114
27953,43.0,0.1445784999999944,39.0,0.1445785000000228
27954,49.0,0.578314000000006,39.0,0.32104150000000686
27955,37.0,0.15665799999999308,39.0,0.08219174999999268
27956,49.0,0.16438350000001378,39.0,0.15228450000000748
27957,37.0,0.30456899999998654,43.0,0.06880724999999188
27958,37.0,0.13761450000001219,47.0,0.06880724999999188
27959,49.0,0.13761449999998376,52.0,0.27522899999999595
27960,49.0,0.27522899999999595,55.0,0.07025749999999675
27961,49.0,0.1405149999999935,57.0,0.07025749999999675
27962,49.0,0.1405149999999935,66.0,0.28103000000001543
27963,37.0,0.28103000000001543,72.0,0.08264474999998583
27964,49.0,0.1652895000000001,67.0,0.08264474999998583
27965,49.0,0.1616646666666668,97.0,0.13888900000000604
27966,53.0,0.27777800000001207,56.0,0.194985250000002
27967,54.0,0.1312910000000045,51.0,0.13832941666666443
27968,56.0,0.12738849999999502,64.0,0.1991797500000132
27969,49.0,0.2670684999999935,96.0,0.13274350000000368
27970,54.0,0.26548700000000736,59.0,0.19441324999999665
27971,56.0,0.13071899999999914,55.0,0.13828175000000442
27972,58.0,0.12738849999999502,67.0,0.1960784999999987
27973,49.0,0.2614379999999983,97.0,0.1290324999999939
27974,56.0,0.2580649999999878,67.0,0.18869425000002593
27975,58.0,0.12658250000001203,65.0,0.13507562500001313
27976,59.0,0.12422349999999938,75.0,0.19533824999999183
27977,30.0,0.2604509999999891,97.0,0.5067359999999894
27978,46.0,0.2533679999999947,71.0,0.12668400000001157
27979,31.0,0.2533679999999947,92.0,0.13487399999999639
27980,52.0,0.13487399999999639,69.0,0.13487399999999639
27981,58.0,0.13487399999999639,77.0,0.5150674999999865
27982,63.0,0.2637359999999944,60.0,0.13722345833332383
27983,61.0,0.12684999999999036,54.0,0.13551904166666873
27984,59.0,0.12448150000000169,58.0,0.13245050000000447
27985,59.0,0.26490100000000893,76.0,0.5078640000000121
27986,61.0,0.2586210000000051,57.0,0.1875144999999918
27987,59.0,0.12578600000000506,53.0,0.1344272083333351
27988,58.0,0.12345700000000193,56.0,0.1316424999999981
27989,58.0,0.2632849999999962,71.0,0.5054030000000012
27990,59.0,0.2560489999999902,55.0,0.24935400000001096
27991,58.0,0.12589700000000903,51.0,0.13477179166667952
27992,56.0,0.12345700000000193,54.0,0.135777499999989
27993,47.0,0.27155500000000643,64.0,0.7902589999999918
27994,58.0,0.2604509999999891,48.0,0.19327425000000176
27995,56.0,0.12884950000000117,45.0,0.14018737500001066
27996,46.0,0.12884950000000117,48.0,0.1360545000000002
27997,49.0,0.2721090000000004,96.0,0.4018259999999998
27998,53.0,0.27215799999999035,57.0,0.19322725000000673
27999,54.0,0.12966800000000944,52.0,0.13791762500000004
28000,56.0,0.12711849999999458,63.0,0.1974782500000174
28001,49.0,0.2653669999999977,95.0,0.3902159166666763
28002,46.0,0.26325841666667316,64.0,0.18906925000001706
28003,56.0,0.12695750000000317,57.0,0.1347943333333319
28004,46.0,0.12422349999999938,69.0,0.19027500000001396
28005,25.0,0.25370000000000914,95.0,0.3803584999999998
28006,56.0,0.25550400000000195,72.0,0.1863299999999981
28007,58.0,0.12485449999999787,68.0,0.1339453333333438
28008,59.0,0.12295100000000048,80.0,0.19789800000000923
28009,61.0,0.2638640000000123,101.0,0.3800520000000063
28010,37.0,0.2533679999999947,48.0,0.12668400000001157
28011,61.0,0.12668400000001157,76.0,0.13483149999999
28012,52.0,0.13483149999999,68.0,0.288463500000006
28013,58.0,0.1438850000000116,74.0,0.1445784999999944
28014,52.0,0.1445784999999944,64.0,0.5102935000000173
28015,61.0,0.12994900000001053,72.0,0.1405059999999878
28016,63.0,0.1299489999999821,64.0,0.13699329166666985
28017,61.0,0.12668400000001157,57.0,0.13461137500001996
28018,51.0,0.12371150000001307,54.0,0.13079849999999738
28019,50.0,0.26159699999999475,65.0,0.5104629999999872
28020,59.0,0.12912099999999782,69.0,0.13972275000000423
28021,61.0,0.12912099999999782,65.0,0.1897209999999916
28022,59.0,0.1272209999999916,55.0,0.13604241666666894
28023,49.0,0.125,51.0,0.13250899999999888
28024,49.0,0.26501799999999776,63.0,0.5556280000000129
28025,58.0,0.13731849999999213,46.0,0.14902645833336692
28026,59.0,0.13731850000002055,58.0,0.2809910000000002
28027,58.0,0.1404954999999859,45.0,0.15251066666667157
28028,56.0,0.14049550000001432,50.0,0.5674339999999916
28029,46.0,0.2883640000000014,59.0,0.27906999999999016
28030,54.0,0.27906999999999016,53.0,0.06640100000001325
28031,54.0,0.1328019999999981,64.0,0.06640100000001325
28032,54.0,0.1328019999999981,67.0,0.2656039999999962
28033,54.0,0.1328019999999981,69.0,0.06640100000001325
28034,54.0,0.1328019999999981,78.0,0.3949274999999943
28035,54.0,0.1316424999999981,64.0,0.06582124999999905
28036,54.0,0.1316424999999981,78.0,0.19746374999999716
28037,54.0,0.1316424999999981,74.0,0.06582124999999905
28038,54.0,0.1316424999999981,69.0,0.20076699999998482
28039,54.0,0.1316424999999981,69.0,0.06912449999998671
28040,56.0,0.13824900000000184,65.0,0.24717799999999102
28041,54.0,0.12358900000000972,58.0,0.1338880833333178
28042,51.0,0.1235889999999813,56.0,0.18538350000000037
28043,47.0,0.12358900000000972,48.0,0.13388808333334623
28044,42.0,0.12358900000000972,52.0,0.18538350000000037
28045,43.0,0.1235889999999813,44.0,0.12358900000000972
28046,44.0,0.12358900000000972,58.0,0.24717533333333108
28047,44.0,0.12341966666667759,51.0,0.06183616666663738
28048,44.0,0.1237556666666535,55.0,0.18639133333334712
28049,44.0,0.12417733333333558,46.0,0.06221400000001154
28050,44.0,0.1245140000000049,54.0,0.18754566666666506
28051,44.0,0.1249430000000018,64.0,0.06260266666666325
28052,42.0,0.12529066666667177,61.0,0.25082087499998806
28053,47.0,0.12557287499998893,53.0,0.13567466666668793
28054,51.0,0.12524799999999914,46.0,0.1872208750000084
28055,54.0,0.12492087500001503,64.0,0.13489733333332765
28056,59.0,0.12453549999997904,59.0,0.18620200000000864
28057,55.0,0.124218500000012,52.0,0.12388216666667518
28058,29.0,0.12388216666667518,55.0,0.2533679999999947
28059,56.0,0.12668400000001157,48.0,0.06334199999997736
28060,56.0,0.12668399999998314,64.0,0.19002600000001735
28061,56.0,0.12668400000001157,60.0,0.06334200000000578
28062,56.0,0.12668399999998314,53.0,0.19002600000001735
28063,56.0,0.12668400000001157,73.0,0.06334200000000578
28064,56.0,0.12668400000001157,77.0,0.26442199999999616
28065,58.0,0.08814066666667486,55.0,0.0991582499999879
28066,56.0,0.08814066666664644,55.0,0.09908733333332975
28067,54.0,0.08814066666667486,65.0,0.1976087916666529
28068,59.0,0.1315730416666554,57.0,0.143307416666687
28069,63.0,0.1322405833333562,51.0,0.13301983333332146
28070,68.0,0.2667244583333286,66.0,0.268888000000004
28071,66.0,0.25824199999999564,50.0,0.19162800000000857
28072,64.0,0.12775199999998677,45.0,0.13872220833334836
28073,58.0,0.1277520000000152,52.0,0.1316424999999981
28074,61.0,0.2632849999999962,58.0,0.6453699999999856
28075,59.0,0.25824199999999564,43.0,0.19203674999999976
28076,54.0,0.1280245000000093,44.0,0.1389477499999714
28077,42.0,0.1280244999999809,38.0,0.13107899999999972
28078,54.0,0.26215799999999945,48.0,0.2632849999999962
28079,54.0,0.1316424999999981,44.0,0.06582124999999905
28080,54.0,0.1316424999999981,65.0,0.19746374999999716
28081,54.0,0.1316424999999981,69.0,0.06582124999999905
28082,54.0,0.1316424999999981,63.0,0.20076699999998482
28083,54.0,0.1316424999999981,71.0,0.06912449999998671
28084,56.0,0.13824900000000184,61.0,0.24717799999999102
28085,54.0,0.12358900000000972,56.0,0.1338880833333178
28086,51.0,0.1235889999999813,50.0,0.18538350000000037
28087,47.0,0.12358900000000972,50.0,0.13388808333334623
28088,39.0,0.12358900000000972,52.0,0.18538350000000037
28089,43.0,0.1235889999999813,53.0,0.12358900000000972
28090,44.0,0.12358900000000972,57.0,0.24666999999999462
28091,44.0,0.12333499999999731,51.0,0.061667499999998654
28092,44.0,0.12333499999999731,55.0,0.18500249999999596
28093,44.0,0.12333499999999731,55.0,0.061667499999998654
28094,44.0,0.12333499999999731,61.0,0.18500250000002438
28095,44.0,0.12333499999999731,65.0,0.061667500000027076
28096,42.0,0.12333500000002573,58.0,0.24666999999999462
28097,47.0,0.12333499999999731,52.0,0.13361291666666375
28098,51.0,0.12333499999999731,49.0,0.18500249999999596
28099,54.0,0.12333499999999731,45.0,0.13361291666666375
28100,59.0,0.12333499999999731,52.0,0.18500249999999596
28101,55.0,0.12333499999999731,48.0,0.12335616666666738
28102,56.0,0.12335616666666738,58.0,0.2533679999999947
28103,56.0,0.12668400000001157,49.0,0.06334199999997736
28104,56.0,0.12668399999998314,61.0,0.19002600000001735
28105,56.0,0.12668400000001157,57.0,0.06334200000000578
28106,56.0,0.12668399999998314,65.0,0.19002600000001735
28107,56.0,0.12668400000001157,65.0,0.06334200000000578
28108,56.0,0.12668400000001157,75.0,0.26442199999999616
28109,58.0,0.08814066666667486,55.0,0.0991582499999879
28110,56.0,0.08814066666664644,55.0,0.09908733333332975
28111,54.0,0.08814066666667486,66.0,0.1976087916666529
28112,59.0,0.1315730416666554,64.0,0.143307416666687
28113,63.0,0.1322405833333562,60.0,0.13301983333332146
28114,68.0,0.2667244583333286,67.0,0.268888000000004
28115,66.0,0.25824199999999564,52.0,0.25550400000000195
28116,64.0,0.12775199999998677,50.0,0.13872220833334836
28117,58.0,0.1277520000000152,52.0,0.1316424999999981
28118,59.0,0.2632849999999962,65.0,0.8005799999999965
28119,39.0,0.2632849999999962,35.0,0.2632849999999962
28120,51.0,0.2632849999999962,55.0,0.2740100000000041
28121,53.0,0.04566833333333875,49.0,0.04566833333333875
28122,51.0,0.04566833333333875,65.0,0.04566833333331033
28123,53.0,0.04566833333331033,53.0,0.04566833333333875
28124,51.0,0.04566833333333875,67.0,0.04566833333333875
28125,50.0,0.04566833333333875,56.0,0.04566833333333875
28126,49.0,0.04566833333333875,87.0,0.27215799999999035
28127,53.0,0.27215799999999035,62.0,0.19746374999999716
28128,54.0,0.1316424999999981,62.0,0.14261270833333128
28129,53.0,0.1316424999999981,67.0,0.19953125000000682
28130,49.0,0.2674199999999871,85.0,0.2638640000000123
28131,54.0,0.2638640000000123,73.0,0.19450199999999995
28132,56.0,0.12966800000000944,69.0,0.14047366666665084
28133,58.0,0.12966799999998102,76.0,0.19450199999999995
28134,49.0,0.2593360000000189,87.0,0.25550400000000195
28135,56.0,0.25550400000000195,73.0,0.18806399999999712
28136,58.0,0.1253759999999886,68.0,0.1362281250000308
28137,56.0,0.12537600000001703,83.0,0.19533824999999183
28138,61.0,0.2604509999999891,77.0,0.5067359999999894
28139,57.0,0.2117350416666568,65.0,0.030364375000033306
28140,56.0,0.030364375000033306,76.0,0.19003291666666655
28141,56.0,0.22427947916668245,70.0,0.0342465625000159
28142,70.0,0.0342465625000159,88.0,0.18000000000000682
28143,70.0,0.20999999999997954,71.0,0.03000000000002956
28144,68.0,0.03000000000002956,80.0,0.18000000000000682
28145,68.0,0.20999999999997954,70.0,0.03000000000002956
28146,67.0,0.03000000000002956,80.0,0.18000000000000682
28147,67.0,0.20999999999997954,69.0,0.03000000000002956
28148,66.0,0.03000000000002956,80.0,0.17532583333331786
28149,66.0,0.20439558333328023,72.0,0.02899491666664744
28150,65.0,0.02899491666664744,80.0,0.173078500000031
28151,65.0,0.2017775625000695,70.0,0.028625937500009968
28152,64.0,0.028625937500009968,80.0,0.17095966666670392
28153,64.0,0.19926154166671495,70.0,0.028301875000011023
28154,63.0,0.028301875000011023,80.0,0.16945666666663328
28155,63.0,0.19786572916660816,70.0,0.028409062500031723
28156,62.0,0.028409062500031723,83.0,0.17117629166671122
28157,62.0,0.19983879166670704,71.0,0.028735625000024356
28158,61.0,0.028735625000024356,86.0,0.1730042500000195
28159,61.0,0.2019617500000095,73.0,0.028957499999989977
28160,60.0,0.028957499999989977,89.0,0.17487158333329944
28161,60.0,0.20416845833329944,77.0,0.029296875
28162,59.0,0.029296875,92.0,0.17670275000000402
28163,59.0,0.20634699999999384,79.0,0.029722666666714304
28164,56.0,0.029722666666714304,95.0,0.19230787499998314
28165,54.0,0.2564105000000154,100.0,0.125
28166,58.0,0.25,75.0,0.1807230000000004
28167,59.0,0.12048199999998133,84.0,0.12048200000003817
28168,58.0,0.12048200000003817,87.0,0.18987337499999057
28169,54.0,0.2531645000000253,100.0,0.125
28170,57.0,0.25,78.0,0.18145162500002243
28171,59.0,0.12096774999997706,83.0,0.1209677500000339
28172,57.0,0.1209677500000339,86.0,0.18907574999997223
28173,54.0,0.2521009999999819,100.0,0.12605050000001938
28174,56.0,0.25210100000003877,86.0,0.19086366666670074
28175,58.0,0.12685200000004215,82.0,0.1284817916666725
28176,59.0,0.1284817916666725,89.0,0.19584779166666522
28177,58.0,0.26202449999999544,100.0,0.5555560000000241
28178,34.0,0.27777800000001207,78.0,0.27777800000001207
28179,61.0,0.27777800000001207,95.0,0.30612250000001495
28180,49.0,0.15306125000000748,92.0,0.15306125000000748
28181,58.0,0.15306125000000748,100.0,0.7842971249999664
28182,59.0,0.2631579999999758,96.0,0.19313287500000342
28183,58.0,0.12875524999998333,91.0,0.12922587500003146
28184,56.0,0.12922587500003146,96.0,0.1315789999999879
28185,61.0,0.2631579999999758,94.0,0.7782174999999825
28186,58.0,0.2597405000000208,84.0,0.19148925000001782
28187,56.0,0.12765949999999293,78.0,0.12765949999999293
28188,54.0,0.12765949999999293,75.0,0.1315789999999879
28189,49.0,0.2631579999999758,77.0,0.5435319999999706
28190,51.0,0.2803739999999948,69.0,0.19736849999998185
28191,49.0,0.1315789999999879,58.0,0.1315789999999879
28192,47.0,0.1315789999999879,62.0,0.1351352500000189
28193,47.0,0.270270499999981,71.0,0.5507485000000543
28194,49.0,0.281690000000026,62.0,0.20179387500002122
28195,47.0,0.13452925000001414,52.0,0.13452925000001414
28196,46.0,0.13452925000001414,56.0,0.1395350000000235
28197,42.0,0.27906999999999016,68.0,0.7990695000000301
28198,47.0,0.270270499999981,55.0,0.19480537499998718
28199,49.0,0.1298702500000104,57.0,0.1298702500000104
28200,51.0,0.1298702500000104,59.0,0.13452925000001414
28201,54.0,0.2690585000000283,65.0,0.7920555000000036
28202,47.0,0.26905849999997145,51.0,0.19313287500000342
28203,49.0,0.12875524999998333,54.0,0.12875525000004018
28204,50.0,0.12875525000004018,56.0,0.1327432499999759
28205,54.0,0.2654865000000086,62.0,0.8210425000000328
28206,46.0,0.27777800000001207,46.0,0.19911487500002067
28207,47.0,0.1327432499999759,49.0,0.13274325000003273
28208,46.0,0.13274325000003273,51.0,0.13888900000000604
28209,49.0,0.27777800000001207,59.0,0.5555559999999673
28210,34.0,0.27777800000001207,41.0,0.20833349999998063
28211,46.0,0.2777779999999552,49.0,0.2184465000000273
28212,46.0,0.1456309999999803,45.0,0.14563100000003715
28213,37.0,0.14563100000003715,55.0,0.8361075000000255
28214,47.0,0.281690000000026,48.0,0.2045456249999802
28215,46.0,0.1363637499999868,43.0,0.1363637499999868
28216,44.0,0.1363637499999868,48.0,0.140845000000013
28217,44.0,0.281690000000026,55.0,0.87669649999998
28218,46.0,0.2884614999999826,46.0,0.22058812500000613
28219,44.0,0.14705874999998514,44.0,0.14705875000004198
28220,42.0,0.14705875000004198,47.0,0.14705874999998514
28221,50.0,0.2941174999999703,50.0,0.2626790416666722
28222,50.0,0.1315789999999879,46.0,0.06559791666666115
28223,50.0,0.13110004166668432,50.0,0.1958419583333466
28224,50.0,0.13062458333331506,45.0,0.06521737500003155
28225,25.0,0.13015250000000833,39.0,0.19433870833336186
28226,50.0,0.12968358333336027,46.0,0.06465512500000159
28227,50.0,0.12921775000000935,48.0,0.24691350000000511
28228,49.0,0.12345675000000256,43.0,0.12345675000000256
28229,46.0,0.12345675000000256,47.0,0.18518512499997541
28230,42.0,0.12345675000000256,41.0,0.12345675000000256
28231,37.0,0.12345675000000256,46.0,0.12345675000000256
28232,37.0,0.24691350000000511,55.0,0.7672410000000127
28233,47.0,0.25862050000000636,42.0,0.1875
28234,46.0,0.125,45.0,0.125
28235,44.0,0.125,48.0,0.12931025000000318
28236,44.0,0.25862050000000636,55.0,0.7574904999999603
28237,46.0,0.25531899999998586,46.0,0.18595049999998992
28238,44.0,0.12396699999999328,44.0,0.12396699999999328
28239,25.0,0.12396699999999328,41.0,0.12711875000002237
28240,41.0,0.2542374999999879,50.0,0.24291499999998223
28241,51.0,0.12145750000001954,48.0,0.060728749999952925
28242,51.0,0.12145749999996269,50.0,0.1821862500000293
28243,51.0,0.12145750000001954,47.0,0.06072875000000977
28244,51.0,0.12145750000001954,44.0,0.18218624999997246
28245,51.0,0.12145749999996269,47.0,0.06072875000000977
28246,51.0,0.12145750000001954,48.0,0.23809499999998707
28247,49.0,0.11904750000002196,45.0,0.11904749999996511
28248,46.0,0.11904749999996511,47.0,0.1785712500000045
28249,42.0,0.11904750000002196,42.0,0.11904749999996511
28250,37.0,0.11904749999996511,46.0,0.11904750000002196
28251,50.0,0.2380950000000439,52.0,0.24390249999999014
28252,50.0,0.12195124999999507,50.0,0.06097562500002596
28253,50.0,0.12195124999999507,53.0,0.18292687500002103
28254,50.0,0.12195124999999507,51.0,0.06097562500002596
28255,50.0,0.12195124999999507,48.0,0.18292687500002103
28256,50.0,0.12195124999999507,53.0,0.06097562500002596
28257,50.0,0.12195125000005191,56.0,0.2390439999999785
28258,49.0,0.11952200000001767,53.0,0.11952199999996083
28259,47.0,0.11952199999996083,57.0,0.17928299999999808
28260,44.0,0.11952200000001767,56.0,0.11952200000001767
28261,41.0,0.11952200000001767,55.0,0.11952199999996083
28262,58.0,0.2390439999999785,73.0,0.23182983333333596
28263,56.0,0.11607408333333069,59.0,0.11575575000000526
28264,53.0,0.11575575000000526,64.0,0.1745699166667123
28265,50.0,0.11620416666670508,59.0,0.11673150000001442
28266,47.0,0.11673150000001442,58.0,0.1171875
28267,62.0,0.2346065000000408,80.0,0.23316191666668828
28268,59.0,0.11635441666669522,67.0,0.11680749999999307
28269,56.0,0.11680749999999307,71.0,0.17608758333335572
28270,53.0,0.11726408333333893,67.0,0.11772420833329988
28271,50.0,0.11772420833329988,68.0,0.11818804166665586
28272,74.0,0.23684345833333964,90.0,0.3425854999999842
28273,70.0,0.18633549999998422,74.0,0.15625
28274,74.0,0.15625,77.0,0.25824099999999817
28275,71.0,0.14150949999998375,76.0,0.11673150000001442
28276,68.0,0.11673150000001442,74.0,0.11673149999995758
28277,65.0,0.11673149999995758,72.0,0.11673150000001442
28278,62.0,0.11673150000001442,80.0,0.173076750000007
28279,58.0,0.11538450000000466,73.0,0.11538450000000466
28280,62.0,0.11538450000000466,77.0,0.1724137499999756
28281,59.0,0.11494249999998374,76.0,0.11494250000004058
28282,56.0,0.11494250000004058,76.0,0.11450374999998303
28283,53.0,0.11450374999998303,75.0,0.11450375000003987
28284,50.0,0.11450375000003987,80.0,0.16917300000000068
28285,46.0,0.11278199999998151,73.0,0.11278200000003835
28286,49.0,0.11278200000003835,75.0,0.16917300000000068
28287,47.0,0.11278199999998151,74.0,0.11278199999998151
28288,44.0,0.11278199999998151,73.0,0.11278200000003835
28289,41.0,0.11278200000003835,72.0,0.11278199999998151
28290,38.0,0.11278199999998151,80.0,0.11278199999998151
28291,34.0,0.11278199999998151,73.0,0.11278200000003835
28292,38.0,0.11278200000003835,76.0,0.11285445833340191
28293,35.0,0.11285445833340191,75.0,0.11436033333336582
28294,32.0,0.11436033333336582,75.0,0.11598141666667061
28295,29.0,0.11598141666667061,74.0,0.11765004166664994
28296,30.0,0.11765004166664994,89.0,0.11857700000001614
28297,34.0,0.23715399999997544,50.0,0.10477316666668912
28298,35.0,0.10477316666668912,50.0,0.10428766666660749
28299,37.0,0.10428766666660749,50.0,0.10362725000004502
28300,39.0,0.10362725000004502,50.0,0.10309316666666746
28301,41.0,0.10309316666666746,50.0,0.10250591666664377
28302,42.0,0.10250591666664377,50.0,0.10192549999999301
28303,44.0,0.10192549999999301,50.0,0.10135166666663054
28304,46.0,0.10135166666663054,50.0,0.10084062499998936
28305,47.0,0.10084062499998936,50.0,0.10022300000002815
28306,48.0,0.10022300000002815,50.0,0.09972349999998187
28307,51.0,0.09972349999998187,53.0,0.10374658333336129
28308,49.0,0.10374658333336129,50.0,0.10332975000000033
28309,46.0,0.10332975000000033,45.0,0.15422766666665666
28310,47.0,0.1029162499999643,45.0,0.10250591666670061
28311,49.0,0.10250591666670061,46.0,0.15294629166663753
28312,51.0,0.10209879166666269,47.0,0.10163770833332819
28313,53.0,0.10163770833332819,50.0,0.15174250000001166
28314,54.0,0.1012374999999679,50.0,0.1008406250000462
28315,56.0,0.1008406250000462,50.0,0.15044675000001462
28316,58.0,0.10044675000000325,49.0,0.0999446249999778
28317,59.0,0.0999446249999778,51.0,0.14922662499998296
28318,60.0,0.09955774999997402,53.0,0.0991738750000195
28319,63.0,0.0991738750000195,59.0,0.1480271249999987
28320,61.0,0.09879283333333433,55.0,0.0984146666666561
28321,58.0,0.0984146666666561,51.0,0.14684587500005364
28322,59.0,0.09798600000004853,50.0,0.09761399999996456
28323,61.0,0.09761399999996456,50.0,0.14573654166667893
28324,63.0,0.09724500000004355,51.0,0.09687866666666878
28325,65.0,0.09687866666666878,52.0,0.14469450000001416
28326,66.0,0.09646300000002839,53.0,0.09646299999997154
28327,68.0,0.09646299999997154,54.0,0.14469450000001416
28328,70.0,0.09646300000002839,55.0,0.09646299999997154
28329,71.0,0.09646299999997154,55.0,0.14469450000001416
28330,72.0,0.09646300000002839,56.0,0.09646299999997154
28331,75.0,0.09646299999997154,65.0,0.14469450000001416
28332,73.0,0.09646300000002839,58.0,0.09646299999997154
28333,70.0,0.09646299999997154,55.0,0.14469450000001416
28334,71.0,0.09646300000002839,51.0,0.09646299999997154
28335,72.0,0.09646299999997154,53.0,0.14469450000001416
28336,73.0,0.09646300000002839,55.0,0.09646299999997154
28337,75.0,0.09646299999997154,64.0,0.14469450000001416
28338,73.0,0.09646300000002839,59.0,0.09646299999997154
28339,70.0,0.09646299999997154,51.0,0.14469450000001416
28340,71.0,0.09646300000002839,52.0,0.09646299999997154
28341,72.0,0.09646299999997154,54.0,0.14469450000001416
28342,73.0,0.09646300000002839,55.0,0.09646299999997154
28343,78.0,0.09646299999997154,57.0,0.1875
28344,70.0,0.1875,50.0,0.09375
28345,71.0,0.09375,51.0,0.09375
28346,72.0,0.09375,53.0,0.09375
28347,73.0,0.09375,55.0,0.09370133333334252
28348,78.0,0.09370133333334252,57.0,0.18232491666668693
28349,70.0,0.18232491666668693,46.0,0.09090900000001056
28350,71.0,0.09090900000001056,48.0,0.0908175000000142
28351,72.0,0.0908175000000142,50.0,0.09063449999996465
28352,73.0,0.09063449999996465,52.0,0.09049800000002506
28353,78.0,0.09049800000002506,54.0,0.1805420000000595
28354,70.0,0.1805420000000595,49.0,0.09008999999997513
28355,71.0,0.09008999999997513,50.0,0.08982025000000249
28356,72.0,0.08982025000000249,52.0,0.08977558333333491
28357,73.0,0.08977558333333491,53.0,0.089552249999997
28358,78.0,0.089552249999997,55.0,0.1787491666666483
28359,70.0,0.1787491666666483,50.0,0.0891532499999812
28360,71.0,0.0891532499999812,52.0,0.08902074999997467
28361,72.0,0.08902074999997467,55.0,0.08884525000001986
28362,73.0,0.08884525000001986,57.0,0.08875749999998561
28363,78.0,0.08875749999998561,59.0,0.1769909999999868
28364,70.0,0.1769909999999868,50.0,0.08849550000002182
28365,71.0,0.08849550000002182,51.0,0.08849549999996498
28366,72.0,0.08849549999996498,53.0,0.08849550000002182
28367,73.0,0.08849550000002182,55.0,0.08836612499999319
28368,78.0,0.08836612499999319,57.0,0.18274400000001378
28369,70.0,0.18274400000001378,44.0,0.09235545833331571
28370,71.0,0.09235545833331571,46.0,0.09307187500002101
28371,72.0,0.09307187500002101,48.0,0.09375066666666498
28372,73.0,0.09375066666666498,50.0,0.0944391250000649
28373,78.0,0.0944391250000649,53.0,0.1910863749999976
28374,70.0,0.1910863749999976,33.0,0.09667083333329174
28375,71.0,0.09667083333329174,35.0,0.09740325000001349
28376,72.0,0.09740325000001349,37.0,0.09814675000001216
28377,73.0,0.09814675000001216,39.0,0.09895604166672456
28378,78.0,0.09895604166672456,42.0,0.21548962499997515
28379,70.0,0.21548962499997515,30.0,0.1122964583333328
28380,71.0,0.1122964583333328,31.0,0.11546620833337329
28381,72.0,0.11546620833337329,32.0,0.11897729166668114
28382,73.0,0.11897729166668114,33.0,0.14018700000002582
28383,70.0,0.14018700000002582,34.0,0.25
28384,70.0,1.5,92.0,0.14018700000002582
28385,58.0,0.8411219999999844,92.0,0.1578947500000254
28386,58.0,0.31578949999999395,92.0,0.1578947500000254
28387,58.0,0.31578949999999395,92.0,0.2127659999999878
28388,30.0,0.4255319999999756,113.0,1.6071435000000065
28389,17.0,0.0,92.0,0.13031025
28390,24.0,0.13031025,56.0,0.52532725
28391,32.0,0.13031025,56.0,0.13031025000000002
28392,17.0,0.13031025000000002,46.0,0.13031024999999996
28393,36.0,0.13031024999999996,69.0,0.26879299999999995
28394,17.0,0.26879299999999995,75.0,0.13031024999999996
28395,24.0,0.13031024999999996,53.0,0.5247279999999999
28396,32.0,0.13031024999999996,53.0,0.13031024999999996
28397,17.0,0.13031024999999996,48.0,0.13031024999999996
28398,36.0,0.13031024999999996,65.0,0.26759449999999996
28399,17.0,0.26759449999999996,63.0,0.13031024999999996
28400,24.0,0.13031024999999996,51.0,0.5235449999999999
28401,32.0,0.13031024999999996,51.0,0.13031024999999996
28402,17.0,0.13031024999999996,46.0,0.13031024999999996
28403,36.0,0.13031024999999996,60.0,0.2652285000000001
28404,17.0,0.2652285000000001,61.0,0.13031024999999996
28405,24.0,0.13031024999999996,52.0,0.5253272499999997
28406,32.0,0.13031024999999996,53.0,0.13031024999999996
28407,17.0,0.13031024999999996,46.0,0.13031024999999996
28408,36.0,0.13031024999999996,60.0,0.26879300000000006
28409,48.0,0.26879300000000006,79.0,0.5212409999999998
28410,24.0,0.13031024999999996,48.0,0.5259199999999997
28411,32.0,0.13031024999999996,47.0,0.13031024999999996
28412,17.0,0.13031024999999996,41.0,0.13031024999999996
28413,44.0,0.13031024999999996,73.0,0.2699785000000001
28414,41.0,0.2699785000000001,70.0,1.5843690000000006
28415,24.0,0.1320307500000002,45.0,0.5281229999999999
28416,32.0,0.1320307500000002,45.0,0.1320307499999993
28417,17.0,0.1320307499999993,38.0,0.1320307500000002
28418,36.0,0.1320307500000002,53.0,0.2640615000000004
28419,17.0,0.2640615000000004,55.0,0.1320307499999993
28420,24.0,0.1320307499999993,45.0,0.5281230000000008
28421,32.0,0.1320307500000002,46.0,0.1320307500000002
28422,17.0,0.1320307500000002,40.0,0.1320307500000002
28423,36.0,0.1320307500000002,53.0,0.2640615000000004
28424,44.0,0.2640615000000004,72.0,0.2606204999999999
28425,24.0,0.13031024999999996,47.0,0.5212409999999998
28426,41.0,0.026997850000000767,61.0,0.05383763333333391
28427,39.0,0.05383763333333391,62.0,0.053758599999998324
28428,38.0,0.053758599999998324,63.0,0.13359524999999906
28429,39.0,0.05351890000000026,63.0,0.05343809999999749
28430,41.0,0.05343809999999749,63.0,0.05327650000000261
28431,15.0,0.026638250000001307,44.0,0.13280658333333406
28432,43.0,0.026638250000001307,64.0,0.05312263333333078
28433,44.0,0.05312263333333078,64.0,0.05304570000000197
28434,46.0,0.05304570000000197,65.0,0.2629000000000019
28435,48.0,0.05281229999999937,66.0,0.052733599999999825
28436,49.0,0.052733599999999825,66.0,0.05257620000000074
28437,51.0,0.05257620000000074,67.0,0.05242640000000165
28438,53.0,0.05242640000000165,68.0,0.05235150000000033
28439,55.0,0.05235150000000033,69.0,0.13087874999999727
28440,56.0,0.052351499999996776,69.0,0.05235150000000033
28441,58.0,0.05235150000000033,70.0,0.05235150000000033
28442,25.0,0.026175750000000164,49.0,0.13106600000000057
28443,60.0,0.026175750000000164,71.0,0.05235150000000033
28444,61.0,0.05235150000000033,71.0,0.05253875000000008
28445,63.0,0.05253875000000008,72.0,0.13144050000000007
28446,65.0,0.05257620000000074,72.0,0.05257620000000074
28447,67.0,0.05257620000000074,72.0,0.05269424999999828
28448,15.0,0.026288099999998593,45.0,0.13203074999999842
28449,68.0,0.026406149999999684,73.0,0.05281229999999937
28450,70.0,0.05281229999999937,74.0,0.05281229999999937
28451,72.0,0.05281229999999937,75.0,0.2648395000000008
28452,73.0,0.05281230000000292,75.0,0.05289009999999905
28453,75.0,0.05289009999999905,76.0,0.05304570000000197
28454,77.0,0.05304570000000197,77.0,0.05304569999999842
28455,79.0,0.05304569999999842,77.0,0.05304569999999842
28456,80.0,0.05304569999999842,90.0,0.5212409999999998
28457,27.0,0.13031025000000085,52.0,0.13031025000000085
28458,36.0,0.13031025000000085,52.0,0.1303102499999973
28459,20.0,0.1303102499999973,45.0,0.13031025000000085
28460,39.0,0.13031025000000085,59.0,0.2687929999999987
28461,20.0,0.2687929999999987,64.0,0.13031025000000085
28462,27.0,0.13031025000000085,52.0,0.13031025000000085
28463,36.0,0.13031025000000085,52.0,0.1303102499999973
28464,20.0,0.1303102499999973,45.0,0.13031025000000085
28465,39.0,0.13031025000000085,59.0,0.2675945000000013
28466,50.0,0.2675945000000013,64.0,0.14526474999999905
28467,51.0,0.07321987499999949,64.0,0.07204487499999956
28468,50.0,0.07204487499999956,64.0,0.13941033333333408
28469,51.0,0.07035295833333421,64.0,0.06905737499999987
28470,50.0,0.06905737499999987,64.0,0.1338131666666662
28471,51.0,0.06750337499999759,64.0,0.06630979166666862
28472,50.0,0.06630979166666862,65.0,0.13203075000000197
28473,51.0,0.06601537499999921,65.0,0.06601537500000276
28474,50.0,0.06601537500000276,65.0,0.26099291666666957
28475,51.0,0.06562662500000016,65.0,0.06543937500000041
28476,48.0,0.06543937500000041,65.0,0.06505929166666746
28477,50.0,0.06505929166666746,65.0,0.06486762500000154
28478,51.0,0.06486762500000154,77.0,0.5189409999999981
28479,26.0,0.12973524999999952,53.0,0.12973524999999952
28480,36.0,0.12973524999999952,53.0,0.12973524999999952
28481,20.0,0.12973524999999952,45.0,0.12973524999999952
28482,38.0,0.12973524999999952,59.0,0.26288100000000014
28483,48.0,0.13144050000000007,77.0,0.13144050000000007
28484,43.0,0.13144050000000007,76.0,0.5179614999999984
28485,27.0,0.13144050000000007,52.0,0.13144050000000007
28486,36.0,0.13144050000000007,52.0,0.12754024999999913
28487,19.0,0.12754024999999913,45.0,0.12754024999999913
28488,68.0,0.12754024999999913,87.0,0.2983910750000014
28489,19.0,0.25947049999999905,64.0,0.12973524999999952
28490,67.0,0.038920575000002344,74.0,0.06162424374999986
28491,63.0,0.06162424374999986,73.0,0.06162424374999986
28492,27.0,0.029190431249997317,54.0,0.12973525000000308
28493,60.0,0.032433812500002546,72.0,0.06162424374999986
28494,56.0,0.06162424374999986,72.0,0.06208334375000035
28495,36.0,0.03567719375000067,54.0,0.13321141666666492
28496,55.0,0.026406149999999684,72.0,0.06293376041666576
28497,51.0,0.06293376041666576,72.0,0.064213231250001
28498,19.0,0.04387150624999947,46.0,0.13623341666666278
28499,48.0,0.02034172500000153,71.0,0.06459512916666554
28500,44.0,0.06459512916666554,70.0,0.06504416249999423
28501,39.0,0.0512965624999957,61.0,0.27947224999999776
28502,43.0,0.013747599999998528,70.0,0.0656115208333361
28503,39.0,0.0656115208333361,69.0,0.06618594583333248
28504,36.0,0.06618594583333248,68.0,0.06664884166666596
28505,32.0,0.06664884166666596,68.0,0.06727834166666469
28506,31.0,0.06727834166666469,85.0,0.5191683666666655
28507,29.0,0.12973524999999952,54.0,0.12973524999999952
28508,35.0,0.12973524999999952,54.0,0.12973524999999952
28509,19.0,0.12973524999999952,49.0,0.12996261666666697
28510,31.0,0.12996261666666697,64.0,0.2608465500000001
28511,32.0,0.1044742499999991,65.0,0.03474939999999904
28512,31.0,0.03474939999999904,66.0,0.03474939999999904
28513,30.0,0.03474939999999904,67.0,0.034749400000002595
28514,31.0,0.034749400000002595,67.0,0.03474939999999904
28515,33.0,0.03474939999999904,68.0,0.03474939999999904
28516,19.0,0.017374700000001297,64.0,0.13192924999999533
28517,35.0,0.017374699999997745,68.0,0.03474939999999904
28518,36.0,0.03474939999999904,68.0,0.035363799999998946
28519,38.0,0.035363799999998946,69.0,0.03552153333333408
28520,39.0,0.03552153333333408,69.0,0.0357587333333349
28521,29.0,0.008919816666665525,53.0,0.13540885000000102
28522,41.0,0.026838916666669377,70.0,0.03599713333333199
28523,43.0,0.03599713333333199,70.0,0.03616223333333224
28524,45.0,0.03616223333333224,71.0,0.03641056666666742
28525,47.0,0.03641056666666742,71.0,0.1405187166666657
28526,48.0,0.03674589999999611,72.0,0.03725930000000233
28527,50.0,0.03725930000000233,72.0,0.03787786666666548
28528,51.0,0.03787786666666548,72.0,0.03824180000000155
28529,19.0,0.02863565000000179,47.0,0.14792179999999533
28530,53.0,0.009606149999999758,72.0,0.03880093333333434
28531,55.0,0.03880093333333434,73.0,0.039371033333331695
28532,57.0,0.039371033333331695,74.0,0.039962049999996196
28533,59.0,0.039962049999996196,74.0,0.04046613333333582
28534,38.0,0.020181633333333338,64.0,0.32678669999999954
28535,60.0,0.02028450000000248,75.0,0.040986883333332
28536,62.0,0.040986883333332,75.0,0.04184436666666613
28537,63.0,0.04184436666666613,76.0,0.04251730000000009
28538,65.0,0.04251730000000009,76.0,0.04355754999999917
28539,67.0,0.04355754999999917,77.0,0.044777933333335795
28540,69.0,0.044777933333335795,77.0,0.045938266666667005
28541,71.0,0.045938266666667005,78.0,0.046879899999996866
28542,72.0,0.046879899999996866,85.0,0.5244470833333317
28543,19.0,0.13351633333332913,53.0,0.13031025000000085
28544,27.0,0.13031025000000085,54.0,0.13031025000000085
28545,12.0,0.13031025000000085,47.0,0.13031025000000085
28546,31.0,0.13031025000000085,59.0,0.26062049999999815
28547,12.0,0.26062049999999815,65.0,0.13031025000000085
28548,19.0,0.13031025000000085,53.0,0.13031025000000085
28549,27.0,0.13031025000000085,53.0,0.13031025000000085
28550,12.0,0.13031025000000085,47.0,0.1303102499999973
28551,31.0,0.1303102499999973,58.0,0.2606205000000017
28552,12.0,0.2606205000000017,64.0,0.13031025000000085
28553,19.0,0.13031025000000085,50.0,0.1303102499999973
28554,27.0,0.1303102499999973,50.0,0.13031025000000085
28555,12.0,0.13031025000000085,45.0,0.13031025000000085
28556,31.0,0.13031025000000085,59.0,0.26062049999999815
28557,12.0,0.26062049999999815,64.0,0.13031025000000085
28558,19.0,0.13031025000000085,48.0,0.13031025000000085
28559,27.0,0.13031025000000085,48.0,0.13031025000000085
28560,12.0,0.13031025000000085,45.0,0.1303102499999973
28561,31.0,0.1303102499999973,58.0,0.2606205000000017
28562,43.0,0.2606205000000017,77.0,0.5212410000000034
28563,19.0,0.13031025000000085,46.0,0.13031025000000085
28564,27.0,0.13031025000000085,46.0,0.13031025000000085
28565,12.0,0.13031025000000085,40.0,0.13031025000000085
28566,39.0,0.13031025000000085,70.0,0.26997850000000057
28567,36.0,0.26997850000000057,67.0,1.5843690000000024
28568,19.0,0.13203074999999842,45.0,0.13203074999999842
28569,27.0,0.13203074999999842,46.0,0.13203075000000553
28570,12.0,0.13203075000000553,41.0,0.13203074999999842
28571,31.0,0.13203074999999842,53.0,0.26406149999999684
28572,12.0,0.26406149999999684,55.0,0.13203075000000553
28573,19.0,0.13203075000000553,46.0,0.13203074999999842
28574,27.0,0.13203074999999842,47.0,0.13203074999999842
28575,12.0,0.13203074999999842,41.0,0.13203074999999842
28576,31.0,0.13203074999999842,53.0,0.26406150000000395
28577,39.0,0.26406150000000395,72.0,0.2606205000000017
28578,19.0,0.13031025000000085,48.0,0.13031025000000085
28579,43.0,0.13031025000000085,77.0,0.39093074999999544
28580,12.0,0.13031025000000085,43.0,0.13031025000000085
28581,31.0,0.13031025000000085,56.0,0.2606204999999946
28582,48.0,0.13031024999999374,78.0,0.13031025000000085
28583,46.0,0.13031025000000085,77.0,1.438574250000002
28584,19.0,0.13031025000000085,48.0,0.13031025000000085
28585,27.0,0.13031025000000085,48.0,0.13031025000000085
28586,12.0,0.13031025000000085,43.0,0.13031025000000085
28587,31.0,0.13031025000000085,54.0,0.2606205000000017
28588,12.0,0.2606205000000017,56.0,0.13031024999999374
28589,19.0,0.13031024999999374,48.0,0.13031025000000085
28590,27.0,0.13031025000000085,48.0,0.13203074999999842
28591,12.0,0.13203074999999842,44.0,0.13203074999999842
28592,31.0,0.13203074999999842,54.0,0.26406150000000395
28593,44.0,0.13203075000000553,75.0,0.13203074999999842
28594,43.0,0.13203074999999842,70.0,0.781861499999998
28595,19.0,0.13031025000000085,48.0,0.13031025000000085
28596,27.0,0.13031025000000085,48.0,0.13031025000000085
28597,12.0,0.13031025000000085,43.0,0.13031025000000085
28598,31.0,0.13031025000000085,51.0,0.2606204999999946
28599,12.0,0.2606204999999946,53.0,0.13031025000000085
28600,19.0,0.13031025000000085,47.0,0.13031025000000085
28601,27.0,0.13031025000000085,47.0,0.13031025000000085
28602,12.0,0.13031025000000085,43.0,0.13031025000000085
28603,31.0,0.13031025000000085,51.0,0.2687930000000023
28604,43.0,0.13439650000000114,77.0,0.13439650000000114
28605,43.0,0.13439650000000114,77.0,0.5212410000000034
28606,19.0,0.13031025000000085,48.0,0.13031025000000085
28607,27.0,0.13031025000000085,48.0,0.13031025000000085
28608,12.0,0.13031025000000085,45.0,0.13031025000000085
28609,31.0,0.13031025000000085,54.0,0.5146900833333348
28610,39.0,0.23193808333333266,63.0,0.09425066666666737
28611,36.0,0.08482560000000205,63.0,0.06597546666666432
28612,38.0,0.06597546666666432,63.0,0.06597546666666432
28613,39.0,0.06597546666666432,63.0,0.06597546666667142
28614,38.0,0.06597546666667142,72.0,0.2606205000000017
28615,19.0,0.13031025000000085,46.0,0.13031025000000085
28616,36.0,0.13031025000000085,72.0,0.26288100000000014
28617,12.0,0.13144049999999652,41.0,0.13144050000000362
28618,31.0,0.13144050000000362,53.0,0.26288100000000014
28619,12.0,0.26288100000000014,55.0,0.13031025000000085
28620,19.0,0.13031025000000085,45.0,0.13031025000000085
28621,27.0,0.13031025000000085,45.0,0.13031025000000085
28622,12.0,0.13031025000000085,39.0,0.13031025000000085
28623,39.0,0.13031025000000085,70.0,0.2606204999999946
28624,43.0,0.2606204999999946,72.0,0.2572460000000021
28625,19.0,0.1286229999999975,47.0,0.1286230000000046
28626,48.0,0.1286230000000046,76.0,0.3858689999999996
28627,12.0,0.1286229999999975,42.0,0.1286229999999975
28628,31.0,0.1286229999999975,53.0,0.2572460000000021
28629,51.0,0.1286230000000046,77.0,0.1286229999999975
28630,50.0,0.1286229999999975,79.0,1.4266777500000032
28631,19.0,0.13031025000000085,46.0,0.13031025000000085
28632,27.0,0.13031025000000085,46.0,0.13031025000000085
28633,12.0,0.13031025000000085,43.0,0.13031025000000085
28634,31.0,0.13031025000000085,53.0,0.25837549999999965
28635,12.0,0.25837549999999965,54.0,0.12918774999999982
28636,19.0,0.12918774999999982,48.0,0.12918774999999982
28637,27.0,0.12918774999999982,47.0,0.12918774999999982
28638,12.0,0.12918774999999982,42.0,0.12918774999999982
28639,31.0,0.12918774999999982,53.0,0.2606205000000017
28640,48.0,0.13031025000000085,79.0,0.13031025000000085
28641,43.0,0.13031025000000085,79.0,0.39609225000000237
28642,19.0,0.13203074999999842,47.0,0.13203074999999842
28643,27.0,0.13203074999999842,47.0,0.13203075000000553
28644,43.0,0.13203075000000553,57.0,0.13203074999999842
28645,45.0,0.06601537499999921,57.0,0.06601537499999921
28646,46.0,0.06601537499999921,58.0,0.2924525000000102
28647,45.0,0.0760688333333377,58.0,0.07431300000000363
28648,46.0,0.07431300000000363,59.0,0.07193458333333069
28649,45.0,0.07193458333333069,59.0,0.0701360833333382
28650,46.0,0.0701360833333382,60.0,0.13479166666666487
28651,45.0,0.06749462500000192,60.0,0.06729704166666295
28652,46.0,0.06729704166666295,61.0,0.13359525000000616
28653,45.0,0.06689862500000032,61.0,0.06669662500000584
28654,46.0,0.06669662500000584,62.0,0.13222524999999763
28655,45.0,0.06620987499999842,62.0,0.06601537499999921
28656,46.0,0.06601537499999921,63.0,0.1308764999999994
28657,45.0,0.06562662500000016,63.0,0.06524987499999924
28658,46.0,0.06524987499999924,63.0,0.2606205000000017
28659,45.0,0.06515512500000398,63.0,0.06515512499999687
28660,43.0,0.06515512499999687,64.0,0.06515512500000398
28661,45.0,0.06515512500000398,64.0,0.06515512499999687
28662,46.0,0.06515512499999687,79.0,0.781861499999998
28663,19.0,0.13031025000000085,48.0,0.13031025000000085
28664,27.0,0.13031025000000085,48.0,0.13031025000000085
28665,10.0,0.13031025000000085,42.0,0.13031025000000085
28666,31.0,0.13031025000000085,56.0,0.2606204999999946
28667,44.0,0.2606204999999946,78.0,0.5212410000000034
28668,19.0,0.13031025000000085,50.0,0.13031025000000085
28669,27.0,0.13031025000000085,49.0,0.13031025000000085
28670,10.0,0.13031025000000085,44.0,0.13031025000000085
28671,43.0,0.13031025000000085,77.0,0.2606205000000017
28672,41.0,0.2606205000000017,60.0,0.1466901666666658
28673,43.0,0.07394179166666248,61.0,0.0727483750000033
28674,41.0,0.0727483750000033,61.0,0.14159849999999352
28675,43.0,0.07135704166666557,62.0,0.07024145833332796
28676,41.0,0.07024145833332796,63.0,0.137065833333331
28677,43.0,0.0688464583333328,63.0,0.0682193749999982
28678,41.0,0.0682193749999982,63.0,0.13399258333333108
28679,43.0,0.06729595833333235,64.0,0.06669662499999873
28680,41.0,0.06669662499999873,64.0,0.26119183333333496
28681,43.0,0.0658233750000008,65.0,0.06505820833333331
28682,39.0,0.06505820833333331,66.0,0.06515512499999687
28683,41.0,0.06515512499999687,67.0,0.06515512500000398
28684,43.0,0.06515512500000398,78.0,0.5212409999999963
28685,17.0,0.13031025000000085,50.0,0.13031025000000085
28686,27.0,0.13031025000000085,50.0,0.13031025000000085
28687,10.0,0.13031025000000085,44.0,0.13031024999999374
28688,29.0,0.13031024999999374,56.0,0.2652284999999992
28689,39.0,0.13261425000000315,78.0,0.13261424999999605
28690,34.0,0.13261424999999605,72.0,1.5740160000000003
28691,17.0,0.13261425000000315,50.0,0.13261424999999605
28692,27.0,0.13261424999999605,49.0,0.13087875000000082
28693,10.0,0.13087875000000082,45.0,0.13087875000000082
28694,29.0,0.13087875000000082,55.0,0.26175750000000164
28695,10.0,0.26175750000000164,60.0,0.13087874999999372
28696,17.0,0.13087874999999372,50.0,0.13087875000000082
28697,27.0,0.13087875000000082,48.0,0.13087875000000082
28698,10.0,0.13087875000000082,44.0,0.13087875000000082
28699,29.0,0.13087875000000082,55.0,0.26175750000000164
28700,34.0,0.26175750000000164,72.0,0.16240193333332797
28701,20.0,0.1354040833333272,51.0,0.1345940833333401
28702,36.0,0.026997850000000767,61.0,0.053837633333337465
28703,34.0,0.053837633333337465,62.0,0.05375860000000188
28704,33.0,0.05375860000000188,63.0,0.13359525000000616
28705,34.0,0.05351890000000026,63.0,0.05343810000000104
28706,36.0,0.05343810000000104,63.0,0.05327650000000261
28707,10.0,0.02663825000000486,44.0,0.13280658333332696
28708,38.0,0.026638249999997754,64.0,0.05312263333333078
28709,39.0,0.05312263333333078,64.0,0.05304569999999842
28710,41.0,0.05304569999999842,65.0,0.2628999999999948
28711,43.0,0.05281229999999937,66.0,0.05273359999999627
28712,44.0,0.05273359999999627,66.0,0.05257620000000429
28713,42.0,0.13261424999999605,80.0,0.2652284999999992
28714,39.0,0.2652284999999992,78.0,1.5768520833333426
28715,22.0,0.13261425000000315,53.0,0.13203074999999842
28716,30.0,0.13203074999999842,53.0,0.13144049999999652
28717,15.0,0.13144049999999652,45.0,0.13087875000000082
28718,34.0,0.13087875000000082,61.0,0.259853833333338
28719,15.0,0.259853833333338,61.0,0.13031025000000085
28720,22.0,0.13031025000000085,52.0,0.13031025000000085
28721,30.0,0.13031025000000085,52.0,0.13031025000000085
28722,15.0,0.13031025000000085,45.0,0.13031025000000085
28723,34.0,0.13031025000000085,57.0,0.2687930000000023
28724,42.0,0.2687930000000023,76.0,0.2606205000000017
28725,22.0,0.13031025000000085,52.0,0.13031025000000085
28726,46.0,0.13031025000000085,78.0,0.40709549999999695
28727,15.0,0.13319125000000298,44.0,0.13319124999999588
28728,34.0,0.13319124999999588,55.0,0.2814260000000033
28729,51.0,0.1407129999999981,81.0,0.1407130000000052
28730,49.0,0.1407130000000052,81.0,0.5375860000000046
28731,23.0,0.13439650000000114,49.0,0.13439650000000114
28732,30.0,0.13439650000000114,49.0,0.13439649999999403
28733,15.0,0.13439649999999403,44.0,0.13439650000000825
28734,47.0,0.13439650000000825,79.0,0.2687930000000023
28735,42.0,0.2687930000000023,79.0,1.1154909499999945
28736,23.0,0.13439649999999403,53.0,0.13439649999999403
28737,30.0,0.13439649999999403,51.0,0.13439650000000825
28738,15.0,0.13439650000000825,45.0,0.13439649999999403
28739,35.0,0.13439649999999403,57.0,0.2687930000000023
28740,15.0,0.2687930000000023,63.0,0.13439649999999403
28741,23.0,0.13439649999999403,51.0,0.13439650000000825
28742,47.0,0.13439650000000825,81.0,0.4031894999999963
28743,15.0,0.13439649999999403,45.0,0.13439650000000825
28744,35.0,0.13439650000000825,58.0,0.2687930000000023
28745,47.0,0.13439649999999403,78.0,0.13439650000000825
28746,47.0,0.13439650000000825,74.0,0.8747610999999864
28747,44.0,0.1316752500000007,76.0,0.13419766666667954
28748,45.0,0.13419766666667954,78.0,0.13782773333333864
28749,42.0,0.13782773333333864,80.0,0.1434912333333358
28750,45.0,0.1434912333333358,81.0,0.32756921666663175
28751,35.0,0.15588854999998603,82.0,0.17168066666664572
28752,47.0,0.17168066666664572,84.0,0.5212410000000034
28753,23.0,0.13031024999999374,51.0,0.13031025000000795
28754,32.0,0.13031025000000795,52.0,0.13031024999999374
28755,16.0,0.13031024999999374,45.0,0.13031025000000795
28756,44.0,0.13031025000000795,82.0,0.2675945000000013
28757,40.0,0.2675945000000013,82.0,1.3031024999999943
28758,23.0,0.13031024999999374,53.0,0.13031025000000795
28759,32.0,0.13031025000000795,52.0,0.13031024999999374
28760,16.0,0.13031024999999374,46.0,0.13031025000000795
28761,35.0,0.13031025000000795,58.0,0.2606205000000017
28762,16.0,0.2606205000000017,63.0,0.13031024999999374
28763,23.0,0.13031024999999374,53.0,0.13031025000000795
28764,32.0,0.13031025000000795,53.0,0.13031024999999374
28765,16.0,0.13031024999999374,46.0,0.13031024999999374
28766,44.0,0.13031024999999374,77.0,0.2606205000000017
28767,47.0,0.2606205000000017,79.0,0.2606205000000017
28768,23.0,0.13031025000000795,53.0,0.13031024999999374
28769,52.0,0.13031024999999374,81.0,0.39560975000000553
28770,16.0,0.13031025000000795,45.0,0.13031024999999374
28771,35.0,0.13031024999999374,58.0,0.26997849999999346
28772,56.0,0.13498925000000384,82.0,0.13498924999998962
28773,54.0,0.13498924999998962,79.0,0.5212410000000034
28774,23.0,0.13031024999999374,52.0,0.13031025000000795
28775,32.0,0.13031025000000795,52.0,0.13031024999999374
28776,16.0,0.13031024999999374,45.0,0.13031025000000795
28777,52.0,0.13031025000000795,77.0,0.2652285000000063
28778,47.0,0.2652285000000063,72.0,0.7956854999999905
28779,23.0,0.13261424999998894,49.0,0.13261425000000315
28780,32.0,0.13261425000000315,46.0,0.13261425000000315
28781,16.0,0.13261425000000315,43.0,0.13261425000000315
28782,35.0,0.13261425000000315,50.0,0.2652284999999921
28783,16.0,0.2652284999999921,50.0,0.13261425000000315
28784,23.0,0.13261425000000315,34.0,0.13261425000000315
28785,32.0,0.13261425000000315,35.0,0.13261425000000315
28786,16.0,0.13261425000000315,29.0,0.13261424999998894
28787,44.0,0.13261424999998894,54.0,0.2724549999999937
28788,47.0,0.2724549999999937,56.0,0.28008599999999717
28789,23.0,0.1400430000000057,34.0,0.14004299999999148
28790,52.0,0.14004299999999148,58.0,0.42012900000000286
28791,16.0,0.1400430000000057,27.0,0.14004299999999148
28792,35.0,0.14004299999999148,42.0,0.2800860000000114
28793,56.0,0.1400430000000057,61.0,0.1400430000000057
28794,54.0,0.1400430000000057,60.0,0.5601719999999943
28795,24.0,0.14004299999999148,32.0,0.1400430000000057
28796,32.0,0.1400430000000057,32.0,0.14004299999999148
28797,16.0,0.14004299999999148,27.0,0.1400430000000057
28798,52.0,0.1400430000000057,59.0,0.28008599999999717
28799,48.0,0.28008599999999717,52.0,1.0563060000000064
28800,24.0,0.13261425000000315,32.0,0.13261425000000315
28801,32.0,0.13261425000000315,32.0,0.13261424999998894
28802,16.0,0.13261424999998894,27.0,0.13261425000000315
28803,36.0,0.13261425000000315,41.0,0.2652285000000063
28804,16.0,0.2652285000000063,46.0,0.13031024999999374
28805,24.0,0.13031024999999374,33.0,0.13031025000000795
28806,48.0,0.13031025000000795,60.0,0.2606205000000017
28807,16.0,0.13031024999999374,27.0,0.13031025000000795
28808,48.0,0.13031025000000795,58.0,0.26406149999999684
28809,48.0,0.26406149999999684,62.0,0.26406149999999684
28810,24.0,0.13203074999999842,33.0,0.13203074999999842
28811,44.0,0.13203074999999842,55.0,0.26406150000001105
28812,16.0,0.13203075000001263,28.0,0.13203074999999842
28813,36.0,0.13203074999999842,41.0,0.26638250000000596
28814,46.0,0.13319124999999588,62.0,0.1331912500000101
28815,48.0,0.1331912500000101,62.0,1.864677499999999
28816,24.0,0.13319124999999588,33.0,0.13319124999999588
28817,32.0,0.13319124999999588,33.0,0.13319124999999588
28818,16.0,0.13319124999999588,27.0,0.1331912500000101
28819,36.0,0.1331912500000101,41.0,0.26638249999999175
28820,16.0,0.26638249999999175,46.0,0.1331912500000101
28821,24.0,0.1331912500000101,34.0,0.13319124999999588
28822,32.0,0.13319124999999588,33.0,0.13319124999999588
28823,16.0,0.13319124999999588,27.0,0.1331912500000101
28824,36.0,0.1331912500000101,41.0,0.26638249999999175
28825,16.0,0.26638249999999175,45.0,0.13319124999999588
28826,24.0,0.13319124999999588,33.0,0.1331912500000101
28827,60.0,0.1331912500000101,62.0,0.26406149999999684
28828,16.0,0.13203074999999842,25.0,0.13203074999999842
28829,48.0,0.13203074999999842,64.0,0.26406149999999684
28830,60.0,0.26406149999999684,67.0,0.19804612500000474
28831,24.0,0.13203075000001263,35.0,0.13203074999999842
28832,51.0,0.0660153749999921,60.0,0.06601537500000632
28833,49.0,0.06601537500000632,66.0,0.4102602499999932
28834,16.0,0.13203074999999842,26.0,0.13203074999999842
28835,36.0,0.13203074999999842,39.0,0.29239750000000697
28836,60.0,0.14619874999999638,72.0,0.1461987500000106
28837,60.0,0.1461987500000106,68.0,0.5304569999999984
28838,24.0,0.13261425000000315,45.0,0.13261425000000315
28839,32.0,0.13261425000000315,45.0,0.13261424999998894
28840,17.0,0.13261424999998894,40.0,0.13261425000000315
28841,56.0,0.13261425000000315,66.0,0.2652285000000063
28842,53.0,0.2652285000000063,66.0,1.3018882499999904
28843,24.0,0.13261424999998894,45.0,0.13261425000000315
28844,32.0,0.13261425000000315,45.0,0.13261425000000315
28845,17.0,0.13261425000000315,39.0,0.13261425000000315
28846,36.0,0.13261425000000315,55.0,0.2652284999999921
28847,17.0,0.2652284999999921,64.0,0.13261425000000315
28848,24.0,0.13261425000000315,45.0,0.13261425000000315
28849,32.0,0.13261425000000315,45.0,0.13144049999999652
28850,17.0,0.13144049999999652,39.0,0.13144049999999652
28851,56.0,0.13144049999999652,70.0,0.26288100000000725
28852,60.0,0.26288100000000725,72.0,0.26288099999999304
28853,24.0,0.13144049999999652,49.0,0.13144049999999652
28854,53.0,0.13144049999999652,75.0,0.40035700000001384
28855,17.0,0.13144050000001073,42.0,0.13144049999999652
28856,36.0,0.13144049999999652,60.0,0.274951999999999
28857,68.0,0.1374760000000066,79.0,0.13747599999999238
28858,67.0,0.13747599999999238,81.0,0.5257620000000003
28859,22.0,0.13144049999999652,51.0,0.13144049999999652
28860,29.0,0.13144049999999652,51.0,0.13144050000001073
28861,13.0,0.13144050000001073,43.0,0.13144049999999652
28862,53.0,0.13144049999999652,76.0,0.26997849999999346
28863,46.0,0.26997849999999346,80.0,0.26175750000000164
28864,22.0,0.13087874999999372,52.0,0.13087875000000793
28865,53.0,0.13087875000000793,83.0,0.39263624999999536
28866,13.0,0.13087874999999372,45.0,0.13087875000000793
28867,31.0,0.13087875000000793,63.0,0.26175750000000164
28868,56.0,0.13087874999999372,84.0,0.13087875000000793
28869,55.0,0.13087875000000793,84.0,0.5235149999999891
28870,23.0,0.13087874999999372,59.0,0.13087875000000793
28871,29.0,0.13087875000000793,58.0,0.13087874999999372
28872,13.0,0.13087874999999372,50.0,0.13087874999999372
28873,53.0,0.13087874999999372,82.0,0.26175750000000164
28874,47.0,0.26175750000000164,78.0,0.26175750000000164
28875,23.0,0.13087875000000793,58.0,0.13087874999999372
28876,65.0,0.13087874999999372,81.0,0.2761803500000184
28877,13.0,0.13429120000000694,51.0,0.14188915000001145
28878,56.0,0.14188915000001145,83.0,0.3353621166666443
28879,77.0,0.3353621166666443,72.0,0.13319124999999588
28880,79.0,0.08879416666667339,72.0,0.08879416666665918
28881,23.0,0.044397083333322485,61.0,0.1331912500000101
28882,78.0,0.044397083333336695,72.0,0.08879416666667339
28883,74.0,0.08879416666667339,71.0,0.13261425000000315
28884,73.0,0.08840949999999737,71.0,0.08840949999999737
28885,13.0,0.04420475000000579,54.0,0.13261425000000315
28886,72.0,0.04420474999999158,71.0,0.08840950000001158
28887,71.0,0.08840950000001158,70.0,0.26406149999999684
28888,73.0,0.08802049999999895,70.0,0.08802049999999895
28889,69.0,0.08802049999999895,70.0,0.08802049999999895
28890,13.0,0.08802049999999895,70.0,0.13144049999999652
28891,67.0,0.08762699999999768,69.0,0.08762699999999768
28892,23.0,0.04381349999999884,60.0,0.13144049999999652
28893,69.0,0.04381349999999884,69.0,0.08762699999999768
28894,65.0,0.08762699999999768,68.0,0.13087874999999372
28895,67.0,0.08725250000000528,68.0,0.08725249999999107
28896,13.0,0.04362624999998843,53.0,0.13087875000000793
28897,66.0,0.04362625000000264,68.0,0.08725250000000528
28898,65.0,0.08725250000000528,67.0,0.2606205000000017
28899,61.0,0.08687349999999583,67.0,0.08687350000001004
28900,60.0,0.08687350000001004,67.0,0.08687349999999583
28901,13.0,0.08687349999999583,68.0,0.13031024999999374
28902,58.0,0.08687349999999583,66.0,0.08687349999999583
28903,23.0,0.043436749999997915,60.0,0.13031025000000795
28904,60.0,0.043436749999997915,66.0,0.08687350000001004
28905,56.0,0.08687350000001004,65.0,0.13087874999999372
28906,58.0,0.08725250000000528,65.0,0.08725249999999107
28907,13.0,0.04362624999998843,54.0,0.13106600000000412
28908,57.0,0.04362625000000264,65.0,0.08743975000000148
28909,53.0,0.08743975000000148,64.0,0.2632744999999943
28910,55.0,0.08762699999999768,64.0,0.08762699999999768
28911,54.0,0.08762699999999768,64.0,0.08802049999999895
28912,13.0,0.08802049999999895,67.0,0.13203074999999842
28913,52.0,0.08802049999999895,64.0,0.08821500000000526
28914,23.0,0.04401024999999947,58.0,0.13261425000000315
28915,48.0,0.04420475000000579,64.0,0.08840949999999737
28916,50.0,0.08840949999999737,63.0,0.13280658333333406
28917,49.0,0.08840949999999737,63.0,0.08879416666667339
28918,13.0,0.044397083333336695,52.0,0.13319124999999588
28919,45.0,0.044397083333336695,63.0,0.08879416666665918
28920,32.0,0.08879416666665918,64.0,0.2673924999999997
28921,46.0,0.08899616666667498,63.0,0.08919816666666236
28922,41.0,0.08919816666666236,63.0,0.08919816666666236
28923,36.0,0.08919816666666236,85.0,0.5327649999999977
28924,20.0,0.13319124999999588,54.0,0.1331912500000101
28925,29.0,0.1331912500000101,54.0,0.13319124999999588
28926,12.0,0.13319124999999588,48.0,0.13319124999999588
28927,32.0,0.13319124999999588,62.0,0.26638250000000596
28928,48.0,0.13319124999999588,83.0,0.1331912500000101
28929,48.0,0.1331912500000101,86.0,1.0424820000000068
28930,20.0,0.13031024999999374,55.0,0.13031025000000795
28931,29.0,0.13031025000000795,55.0,0.13031024999999374
28932,12.0,0.13031024999999374,49.0,0.13031025000000795
28933,32.0,0.13031025000000795,61.0,0.2606205000000017
28934,12.0,0.2606205000000017,67.0,0.13031024999999374
28935,20.0,0.13031024999999374,55.0,0.13031025000000795
28936,46.0,0.13031025000000795,81.0,0.39093074999999544
28937,12.0,0.13031024999999374,50.0,0.13031024999999374
28938,32.0,0.13031024999999374,63.0,0.2606205000000017
28939,44.0,0.13031025000000795,78.0,0.13031024999999374
28940,43.0,0.13031024999999374,76.0,0.12918774999999982
28941,44.0,0.12918774999999982,78.0,0.12918774999999982
28942,43.0,0.10765645833333792,78.0,0.10765645833332371
28943,29.0,0.0215312916666619,56.0,0.12918774999999982
28944,41.0,0.08612516666666181,78.0,0.10765645833333792
28945,12.0,0.04306258333333801,50.0,0.12918774999999982
28946,43.0,0.06459387499999991,78.0,0.10765645833333792
28947,32.0,0.06459387499999991,63.0,0.25837549999999965
28948,44.0,0.04306258333333801,78.0,0.10765645833332371
28949,41.0,0.10765645833332371,73.0,0.10765645833333792
28950,36.0,0.10765645833333792,78.0,0.26406149999999684
28951,20.0,0.13203074999999842,57.0,0.13203074999999842
28952,29.0,0.13203074999999842,57.0,0.13203074999999842
28953,12.0,0.13203074999999842,49.0,0.13203074999999842
28954,48.0,0.13203074999999842,84.0,0.2606205000000017
28955,72.0,0.2606205000000017,84.0,1.0424819999999926
28956,20.0,0.13031024999999374,59.0,0.13031025000000795
28957,29.0,0.13031025000000795,59.0,0.13031024999999374
28958,12.0,0.13031024999999374,54.0,0.13031025000000795
28959,32.0,0.13031025000000795,63.0,0.2606205000000017
28960,12.0,0.2606205000000017,70.0,0.13031024999999374
28961,20.0,0.13031024999999374,59.0,0.13031024999999374
28962,70.0,0.13031024999999374,85.0,0.39093075000000965
28963,12.0,0.13031025000000795,53.0,0.13031024999999374
28964,32.0,0.13031024999999374,67.0,0.2606205000000017
28965,56.0,0.13031025000000795,87.0,0.13031024999999374
28966,55.0,0.13031024999999374,80.0,0.13031025000000795
28967,68.0,0.13031025000000795,82.0,0.13031024999999374
28968,67.0,0.10859187499998768,82.0,0.10859187500000189
28969,29.0,0.021718375000006063,59.0,0.13031024999999374
28970,53.0,0.08687349999999583,82.0,0.10859187500000189
28971,12.0,0.043436749999997915,52.0,0.13031025000000795
28972,55.0,0.06515512500000398,82.0,0.10859187500000189
28973,32.0,0.06515512500000398,67.0,0.277947999999995
28974,56.0,0.043436749999997915,82.0,0.11147979166666744
28975,65.0,0.16069237499999645,82.0,0.07381887500000062
28976,73.0,0.07381887500000062,89.0,0.2606205000000017
28977,22.0,0.13031024999999374,61.0,0.13031025000000795
28978,55.0,0.13031025000000795,84.0,0.2606205000000017
28979,12.0,0.13031024999999374,54.0,0.13031025000000795
28980,56.0,0.13031025000000795,84.0,0.2675945000000013
28981,60.0,0.2675945000000013,87.0,0.2606205000000017
28982,22.0,0.13031024999999374,58.0,0.13031025000000795
28983,58.0,0.13031025000000795,84.0,0.2606205000000017
28984,12.0,0.13031024999999374,51.0,0.13031025000000795
28985,61.0,0.13031025000000795,84.0,0.2675945000000013
28986,65.0,0.2675945000000013,88.0,0.2606205000000017
28987,22.0,0.13031024999999374,63.0,0.13031025000000795
28988,58.0,0.13031025000000795,83.0,0.2606205000000017
28989,12.0,0.13031024999999374,57.0,0.13031025000000795
28990,60.0,0.13031025000000795,80.0,0.2606205000000017
28991,63.0,0.2606205000000017,86.0,0.2606205000000017
28992,22.0,0.13031024999999374,63.0,0.13031025000000795
28993,61.0,0.13031025000000795,82.0,0.2606204999999875
28994,12.0,0.13031024999999374,58.0,0.13031024999999374
28995,31.0,0.13031024999999374,66.0,0.26638250000000596
28996,43.0,0.13319124999999588,79.0,0.1331912500000101
28997,46.0,0.1331912500000101,87.0,0.2606205000000017
28998,22.0,0.13031024999999374,61.0,0.13031025000000795
28999,49.0,0.13031025000000795,81.0,0.2606205000000017
29000,50.0,0.05470225000000539,74.0,0.14728205833331742
29001,17.0,0.081736499999991,44.0,0.1354040833333272
29002,50.0,0.08136690000000613,75.0,0.14586480416664926
29003,35.0,0.05403718333332108,61.0,0.26739766666666753
29004,50.0,0.10743730000000085,76.0,0.14448870416666182
29005,49.0,0.1599603666666667,77.0,0.14434102083332334
29006,23.0,0.13319124999999588,51.0,0.13379725000000064
29007,49.0,0.02675945000000013,79.0,0.14511680833332719
29008,32.0,0.10703780000000052,52.0,0.13439649999999403
29009,49.0,0.05375859999999477,80.0,0.1458827041666666
29010,17.0,0.08063789999999926,45.0,0.13519666666665842
29011,49.0,0.0809935500000023,81.0,0.14687097499998458
29012,35.0,0.054203116666656115,61.0,0.2712230000000062
29013,49.0,0.10848920000000817,81.0,0.14691245833333255
29014,17.0,0.16273379999999804,50.0,0.5424459999999982
29015,24.0,0.03390287499999545,52.0,0.23732012499999655
29016,32.0,0.03390287499999545,54.0,0.2034172500000011
29017,36.0,0.03390287500000966,77.0,0.16951437499999145
29018,44.0,0.03390287499999545,81.0,0.135611499999996
29019,48.0,0.0678057500000051,85.0,0.10170862500000055
29020,77.0,0.6102517499999891,102.0,0.8136690000000044
29021,73.0,0.8136690000000044,86.0,0.06515512500000398
29022,72.0,0.06515512500000398,86.0,0.06515512499998977
29023,68.0,0.06515512499998977,86.0,0.06543937499999686
29024,65.0,0.06543937499999686,85.0,0.06543937499999686
29025,61.0,0.06543937499999686,85.0,0.06572024999999826
29026,60.0,0.06572024999999826,85.0,0.0659169999999989
29027,56.0,0.0659169999999989,84.0,0.06601537500000632
29028,53.0,0.06601537500000632,84.0,0.06620987499999842
29029,49.0,0.06620987499999842,84.0,0.06640329166665992
29030,48.0,0.06640329166665992,83.0,0.06659562500000504
29031,44.0,0.06659562500000504,83.0,0.06669662499999163
29032,41.0,0.06669662499999163,83.0,0.06689862499999322
29033,37.0,0.06689862499999322,82.0,0.06719825000000412
29034,36.0,0.06719825000000412,82.0,0.06719824999998991
29035,32.0,0.06719824999998991,82.0,0.06749462499999481
29036,29.0,0.06749462499999481,81.0,0.0677020416666636
29037,25.0,0.0677020416666636,81.0,0.0678057500000051
29038,24.0,0.0678057500000051,81.0,0.06801108333333161
29039,20.0,0.06801108333333161,81.0,0.0682193749999982
29040,17.0,0.0682193749999982,81.0,0.06843062499999064
29041,13.0,0.06843062499999064,81.0,0.0685330833333353
29042,12.0,0.0685330833333353,80.0,0.06873799999999619
29043,8.0,0.06873799999999619,80.0,0.06905437499999323
29044,7.0,0.06905437499999323,79.0,0.06905437500000744
29045,5.0,0.06905437500000744,113.0,1.3810874999999925
29046,5.0,1.6573049999999938,115.0,1.3810875000000067
29047,5.0,1.657305000000008,113.0,1.8585049999999939
29048,57.0,0.0,55.0,0.75
29049,26.0,0.5,50.0,0.5
29050,62.0,0.25,50.0,0.25
29051,58.0,0.25,50.0,0.507101
29052,60.0,0.0691243749999999,50.0,0.0691243749999999
29053,58.0,0.0691243749999999,57.0,0.3688522500000002
29054,57.0,0.3688522500000002,53.0,0.4890439999999998
29055,55.0,0.2390439999999998,50.0,0.25
29056,57.0,0.25,55.0,0.5022728333333335
29057,50.0,0.2522728333333335,50.0,1.2499999999999996
29058,41.0,0.25,31.0,0.5
29059,41.0,0.5,31.0,0.49999999999999956
29060,52.0,0.49999999999999956,58.0,0.5
29061,55.0,0.25,50.0,0.25
29062,53.0,0.25,50.0,0.5060407500000004
29063,55.0,0.07009349999999959,50.0,0.07009350000000047
29064,53.0,0.07009350000000047,57.0,0.3658537500000003
29065,52.0,0.3658537500000003,53.0,0.4890439999999998
29066,53.0,0.4890439999999998,55.0,0.5022728333333335
29067,50.0,0.2522728333333335,50.0,1.241803
29068,41.0,0.25,31.0,0.491803
29069,41.0,0.491803,31.0,0.5
29070,52.0,0.5,58.0,0.5
29071,50.0,0.25,50.0,0.25
29072,48.0,0.25,46.0,0.5136885000000007
29073,50.0,0.07317074999999917,47.0,0.07317075000000095
29074,48.0,0.07317075000000095,55.0,0.36734700000000053
29075,47.0,0.36734700000000053,53.0,0.4890439999999998
29076,48.0,0.4890439999999998,55.0,0.5022728333333326
29077,52.0,0.2522728333333326,50.0,0.5
29078,36.0,0.25,37.0,0.5
29079,40.0,0.5,68.0,0.7200000000000006
29080,38.0,0.7200000000000006,60.0,0.24820524999999982
29081,36.0,0.24820524999999982,57.0,0.058823500000000806
29082,38.0,0.058823500000000806,57.0,0.05882349999999903
29083,36.0,0.05882349999999903,68.0,0.3529409999999995
29084,35.0,0.3529409999999995,67.0,0.48583
29085,36.0,0.48583,71.0,0.4633199999999995
29086,40.0,0.4633199999999995,67.0,0.9433220000000002
29087,38.0,0.9433220000000002,71.0,1.4053579999999979
29088,36.0,0.4716609999999992,68.0,0.46203599999999945
29089,40.0,0.46203599999999945,68.0,0.4716609999999992
29090,38.0,0.4716609999999992,63.0,1.4120037499999984
29091,40.0,0.06643049999999917,63.0,0.06643050000000095
29092,38.0,0.06643050000000095,73.0,0.11194024999999996
29093,36.0,0.11194024999999996,66.0,0.22388049999999993
29094,40.0,0.22388049999999993,72.0,0.4716609999999992
29095,40.0,0.4716609999999992,68.0,0.4716609999999992
29096,38.0,0.4716609999999992,61.0,1.4030157500000016
29097,40.0,0.0661201250000012,61.0,0.06612012499999764
29098,38.0,0.06612012499999764,72.0,0.3370785000000005
29099,37.0,0.3370785000000005,72.0,0.4620360000000012
29100,40.0,0.4620360000000012,68.0,0.471661000000001
29101,38.0,0.471661000000001,62.0,0.47596150000000037
29102,40.0,0.0661201250000012,63.0,0.06612012499999764
29103,38.0,0.06612012499999764,73.0,0.1145737500000017
29104,37.0,0.1145737500000017,66.0,0.7008085000000008
29105,45.0,0.22914749999999984,72.0,0.971661000000001
29106,57.0,0.471661000000001,58.0,0.75
29107,26.0,0.5,50.0,0.5
29108,62.0,0.25,50.0,0.25
29109,58.0,0.25,50.0,0.5071009999999987
29110,60.0,0.06912437500000124,50.0,0.06912437499999768
29111,58.0,0.06912437499999768,57.0,0.36885224999999977
29112,57.0,0.36885224999999977,53.0,0.4890439999999998
29113,55.0,0.2390439999999998,50.0,0.25
29114,57.0,0.25,55.0,0.5022728333333326
29115,50.0,0.2522728333333326,50.0,1.25
29116,41.0,0.25,31.0,0.5
29117,41.0,0.5,31.0,0.5
29118,52.0,0.5,58.0,0.5
29119,55.0,0.25,50.0,0.25
29120,53.0,0.25,50.0,0.5060407500000004
29121,55.0,0.0700934999999987,50.0,0.07009350000000225
29122,53.0,0.07009350000000225,57.0,0.3658537499999994
29123,52.0,0.3658537499999994,53.0,0.4890439999999998
29124,53.0,0.4890439999999998,55.0,0.5022728333333326
29125,50.0,0.2522728333333326,50.0,0.75
29126,41.0,0.25,31.0,0.5
29127,29.0,0.5,66.0,0.7086615000000016
29128,44.0,0.4724409999999999,43.0,0.4724409999999999
29129,34.0,0.23622050000000172,58.0,0.23622049999999817
29130,31.0,0.23622049999999817,65.0,0.4332129999999985
29131,32.0,0.14440433333333402,57.0,0.14440433333333402
29132,31.0,0.14440433333333402,55.0,0.14440433333333047
29133,29.0,0.14440433333333047,63.0,0.4724409999999999
29134,27.0,0.23622050000000172,57.0,0.23622049999999817
29135,29.0,0.23622049999999817,64.0,0.476189999999999
29136,22.0,0.35714249999999836,55.0,0.11904750000000064
29137,29.0,0.11904750000000064,64.0,0.47619000000000256
29138,27.0,0.47619000000000256,59.0,0.476189999999999
29139,29.0,0.476189999999999,66.0,0.4724409999999999
29140,34.0,0.23622050000000172,58.0,0.23622049999999817
29141,31.0,0.23622049999999817,65.0,0.4332129999999985
29142,32.0,0.14440433333333402,57.0,0.14440433333333402
29143,31.0,0.14440433333333402,55.0,0.14440433333333047
29144,29.0,0.14440433333333047,63.0,0.4724409999999999
29145,27.0,0.23622050000000172,57.0,0.23622049999999817
29146,29.0,0.23622049999999817,64.0,0.476189999999999
29147,22.0,0.35714249999999836,54.0,0.11904750000000064
29148,29.0,0.11904750000000064,62.0,0.47619000000000256
29149,27.0,0.47619000000000256,56.0,0.476189999999999
29150,29.0,0.476189999999999,60.0,0.45282999999999873
29151,22.0,0.3396225000000008,51.0,0.11320749999999791
29152,27.0,0.11320749999999791,58.0,0.4878050000000016
29153,29.0,0.4878050000000016,57.0,0.46692600000000084
29154,22.0,0.35019450000000063,48.0,0.11673150000000021
29155,27.0,0.11673150000000021,56.0,0.49382699999999957
29156,29.0,0.49382699999999957,55.0,0.47058799999999934
29157,22.0,0.3529410000000013,46.0,0.11764699999999806
29158,27.0,0.11764699999999806,53.0,0.5020919999999975
29159,22.0,0.5020919999999975,52.0,1.5062759999999997
29160,21.0,1.5062759999999997,48.0,1.5062759999999997
29161,57.0,1.5062759999999997,55.0,0.5
29162,62.0,0.25,50.0,0.25
29163,58.0,0.25,50.0,0.5071010000000058
29164,60.0,0.06912437500000124,50.0,0.06912437500000124
29165,58.0,0.06912437500000124,57.0,0.3688522500000033
29166,57.0,0.3688522500000033,53.0,0.4890439999999998
29167,55.0,0.2390439999999998,50.0,0.25
29168,57.0,0.25,55.0,0.5022728333333362
29169,50.0,0.25227283333333617,50.0,1.25
29170,41.0,0.25,31.0,0.5
29171,41.0,0.5,31.0,0.5
29172,52.0,0.5,58.0,0.5
29173,55.0,0.25,50.0,0.25
29174,53.0,0.25,50.0,0.5060407499999968
29175,55.0,0.0700934999999987,50.0,0.0700934999999987
29176,53.0,0.0700934999999987,57.0,0.3658537499999994
29177,52.0,0.3658537499999994,53.0,0.4890439999999998
29178,53.0,0.4890439999999998,55.0,0.5022728333333362
29179,50.0,0.25227283333333617,50.0,1.2376539999999991
29180,41.0,0.25,31.0,0.4938270000000031
29181,41.0,0.4938270000000031,31.0,0.493826999999996
29182,52.0,0.493826999999996,58.0,0.5
29183,50.0,0.25,50.0,0.25
29184,48.0,0.25,46.0,0.5136885000000007
29185,50.0,0.07317075000000273,47.0,0.07317074999999562
29186,48.0,0.07317074999999562,55.0,0.3673470000000023
29187,47.0,0.3673470000000023,53.0,0.4890439999999998
29188,48.0,0.4890439999999998,55.0,0.5022728333333362
29189,52.0,0.25227283333333617,50.0,0.5
29190,36.0,0.25,37.0,0.5
29191,40.0,0.5,68.0,0.7228920000000016
29192,38.0,0.7228920000000016,60.0,0.24814149999999557
29193,36.0,0.24814149999999557,57.0,0.0581395000000029
29194,38.0,0.0581395000000029,57.0,0.05813949999999579
29195,36.0,0.05813949999999579,68.0,0.3488370000000032
29196,35.0,0.3488370000000032,67.0,0.48583
29197,36.0,0.48583,71.0,0.46511600000000186
29198,40.0,0.46511600000000186,67.0,0.9450300000000027
29199,38.0,0.9450300000000027,71.0,1.4079219999999921
29200,36.0,0.47251499999999425,68.0,0.46289199999999653
29201,40.0,0.46289199999999653,68.0,0.47251500000000135
29202,38.0,0.47251500000000135,63.0,1.4152169999999984
29203,40.0,0.06655425000000292,63.0,0.06655424999999582
29204,38.0,0.06655424999999582,73.0,0.11235949999999661
29205,36.0,0.11235949999999661,66.0,0.22471900000000034
29206,40.0,0.22471900000000034,72.0,0.47251500000000135
29207,40.0,0.47251500000000135,68.0,0.47251500000000135
29208,38.0,0.47251500000000135,61.0,1.4037132500000027
29209,40.0,0.06624275000000068,61.0,0.06624275000000068
29210,38.0,0.06624275000000068,72.0,0.33582075000000344
29211,37.0,0.33582075000000344,72.0,0.46289199999999653
29212,40.0,0.46289199999999653,68.0,0.47251500000000135
29213,38.0,0.47251500000000135,62.0,0.47683825000000013
29214,40.0,0.06624275000000068,63.0,0.06624275000000068
29215,38.0,0.06624275000000068,73.0,0.11478424999999959
29216,37.0,0.11478424999999959,66.0,0.7020835000000005
29217,45.0,0.22956849999999918,72.0,0.9725150000000014
29218,57.0,0.47251500000000135,58.0,0.75
29219,26.0,0.5,50.0,0.5
29220,62.0,0.25,50.0,0.25
29221,58.0,0.25,50.0,0.5071010000000058
29222,60.0,0.06912437500000124,50.0,0.06912437500000124
29223,58.0,0.06912437500000124,57.0,0.3688522500000033
29224,57.0,0.3688522500000033,53.0,0.4890439999999998
29225,55.0,0.2390439999999998,50.0,0.25
29226,57.0,0.25,55.0,0.5022728333333362
29227,50.0,0.25227283333333617,50.0,1.2378050000000016
29228,41.0,0.25,31.0,0.4878050000000016
29229,41.0,0.4878050000000016,31.0,0.5
29230,52.0,0.5,58.0,0.5
29231,55.0,0.25,50.0,0.25
29232,53.0,0.25,50.0,0.5060407499999968
29233,55.0,0.0700934999999987,50.0,0.0700934999999987
29234,53.0,0.0700934999999987,57.0,0.3658537499999994
29235,52.0,0.3658537499999994,53.0,0.4890439999999998
29236,53.0,0.4890439999999998,55.0,0.5022728333333362
29237,50.0,0.25227283333333617,50.0,0.75
29238,41.0,0.25,31.0,0.5
29239,29.0,0.5,66.0,0.7086614999999981
29240,44.0,0.47244100000000344,43.0,0.47244099999999634
29241,34.0,0.23622049999999462,58.0,0.23622050000000172
29242,31.0,0.23622050000000172,65.0,0.43321300000000207
29243,32.0,0.14440433333333402,57.0,0.14440433333333402
29244,31.0,0.14440433333333402,55.0,0.14440433333333402
29245,29.0,0.14440433333333402,63.0,0.47244100000000344
29246,27.0,0.23622050000000172,57.0,0.23622050000000172
29247,29.0,0.23622050000000172,64.0,0.47619000000000256
29248,22.0,0.3571425000000019,55.0,0.11904750000000064
29249,29.0,0.11904750000000064,64.0,0.47618999999999545
29250,27.0,0.47618999999999545,59.0,0.47619000000000256
29251,29.0,0.47619000000000256,66.0,0.47244100000000344
29252,34.0,0.23622050000000172,58.0,0.23622050000000172
29253,31.0,0.23622050000000172,65.0,0.43321300000000207
29254,32.0,0.14440433333333402,57.0,0.14440433333333402
29255,31.0,0.14440433333333402,55.0,0.14440433333333402
29256,29.0,0.14440433333333402,63.0,0.47244100000000344
29257,27.0,0.23622050000000172,57.0,0.23622050000000172
29258,29.0,0.23622050000000172,64.0,0.47619000000000256
29259,22.0,0.3571424999999948,54.0,0.11904750000000774
29260,29.0,0.11904750000000774,62.0,0.47619000000000256
29261,27.0,0.47619000000000256,56.0,0.47618999999998834
29262,29.0,0.47618999999998834,60.0,0.45283000000000584
29263,22.0,0.3396225000000044,51.0,0.11320750000000146
29264,27.0,0.11320750000000146,58.0,0.4878049999999945
29265,29.0,0.4878049999999945,57.0,0.46692600000000084
29266,22.0,0.35019450000000063,48.0,0.11673150000000021
29267,27.0,0.11673150000000021,56.0,0.493826999999996
29268,29.0,0.493826999999996,55.0,0.47058800000000645
29269,22.0,0.3529410000000013,46.0,0.11764700000000516
29270,27.0,0.11764700000000516,53.0,0.5020920000000046
29271,34.0,0.5020920000000046,52.0,1.5062759999999997
29272,21.0,1.5062759999999997,60.0,1.0300419999999946
29273,20.0,1.0300419999999946,66.0,0.5825240000000065
29274,13.0,0.5825240000000065,74.0,0.20000000000000284
29275,53.0,0.4000000000000057,80.0,0.37735800000000097
29276,54.0,0.37735800000000097,80.0,0.37735800000000097
29277,57.0,0.37735800000000097,86.0,0.1807230000000004
29278,56.0,0.2710845000000006,80.0,0.34839629166665986
29279,44.0,0.08600579166666478,68.0,0.73446899999999
29280,56.0,0.2623904999999951,80.0,0.3759247499999958
29281,49.0,0.08746349999999836,80.0,0.3846149999999966
29282,61.0,0.3846149999999966,85.0,0.1923074999999983
29283,53.0,0.3846149999999966,80.0,0.37735800000000097
29284,54.0,0.37735800000000097,80.0,0.37735800000000097
29285,57.0,0.37735800000000097,86.0,0.1807230000000004
29286,56.0,0.2710845000000006,80.0,0.3498895000000033
29287,53.0,0.4890440000000069,55.0,0.5022728333333362
29288,50.0,0.25227283333333617,50.0,0.7397959999999983
29289,41.0,0.25,31.0,0.48979599999999834
29290,29.0,0.48979599999999834,66.0,0.7086615000000052
29291,44.0,0.47244100000000344,43.0,0.47244100000000344
29292,34.0,0.23622050000000172,58.0,0.23622050000000172
29293,31.0,0.23622050000000172,65.0,0.43321299999999496
29294,32.0,0.14440433333332692,57.0,0.14440433333334113
29295,31.0,0.14440433333334113,55.0,0.14440433333332692
29296,29.0,0.14440433333332692,63.0,0.47244100000000344
29297,27.0,0.23622050000000172,57.0,0.23622050000000172
29298,29.0,0.23622050000000172,64.0,0.47619000000000256
29299,22.0,0.3571424999999948,55.0,0.11904750000000774
29300,29.0,0.11904750000000774,64.0,0.47619000000000256
29301,27.0,0.47619000000000256,59.0,0.47618999999998834
29302,29.0,0.47618999999998834,66.0,0.47244100000000344
29303,34.0,0.23622050000000172,58.0,0.23622050000000172
29304,31.0,0.23622050000000172,65.0,0.43321299999999496
29305,32.0,0.14440433333332692,57.0,0.14440433333334113
29306,31.0,0.14440433333334113,55.0,0.14440433333332692
29307,29.0,0.14440433333332692,63.0,0.47244100000000344
29308,27.0,0.23622050000000172,57.0,0.23622050000000172
29309,29.0,0.23622050000000172,64.0,0.47619000000000256
29310,22.0,0.3571424999999948,54.0,0.11904750000000774
29311,29.0,0.11904750000000774,62.0,0.47619000000000256
29312,27.0,0.47619000000000256,56.0,0.47618999999998834
29313,29.0,0.47618999999998834,60.0,0.45283000000000584
29314,22.0,0.3396225000000044,51.0,0.11320750000000146
29315,27.0,0.11320750000000146,58.0,0.4878049999999945
29316,29.0,0.4878049999999945,57.0,0.46692600000000084
29317,22.0,0.35019450000000063,48.0,0.11673150000000021
29318,27.0,0.11673150000000021,56.0,0.493826999999996
29319,29.0,0.493826999999996,55.0,0.47058800000000645
29320,22.0,0.3529410000000013,46.0,0.11764700000000516
29321,27.0,0.11764700000000516,53.0,0.5020920000000046
29322,22.0,0.5020920000000046,52.0,1.5062759999999997
29323,21.0,1.5062759999999997,48.0,1.5062759999999997
29324,57.0,1.5062759999999997,55.0,0.5
29325,62.0,0.25,50.0,0.25
29326,58.0,0.25,50.0,0.5071010000000058
29327,60.0,0.06912437500000124,50.0,0.06912437500000124
29328,58.0,0.06912437500000124,57.0,0.3688522500000033
29329,57.0,0.3688522500000033,53.0,0.4890440000000069
29330,55.0,0.23904400000000692,50.0,0.25
29331,57.0,0.25,55.0,0.5022728333333362
29332,50.0,0.25227283333333617,50.0,1.25
29333,41.0,0.25,31.0,0.5
29334,41.0,0.5,31.0,0.5
29335,52.0,0.5,58.0,0.5
29336,55.0,0.25,50.0,0.25
29337,53.0,0.25,50.0,0.506040750000011
29338,55.0,0.07009350000001291,50.0,0.07009349999998449
29339,53.0,0.07009349999998449,57.0,0.36585375000001363
29340,52.0,0.36585375000001363,53.0,0.4890440000000069
29341,53.0,0.4890440000000069,55.0,0.5022728333333362
29342,50.0,0.25227283333333617,50.0,1.25
29343,41.0,0.25,31.0,0.5
29344,41.0,0.5,31.0,0.5
29345,52.0,0.5,58.0,0.5
29346,50.0,0.25,50.0,0.25
29347,48.0,0.25,46.0,0.5136885000000007
29348,50.0,0.07317075000000273,47.0,0.07317075000000273
29349,48.0,0.07317075000000273,55.0,0.3673469999999952
29350,47.0,0.3673469999999952,53.0,0.4890440000000069
29351,48.0,0.4890440000000069,55.0,0.5022728333333362
29352,52.0,0.25227283333333617,50.0,0.5
29353,36.0,0.25,37.0,0.5
29354,40.0,0.5,68.0,0.7258065000000045
29355,38.0,0.7258065000000045,60.0,0.24808649999999943
29356,36.0,0.24808649999999943,57.0,0.05905512499998622
29357,38.0,0.05905512499998622,57.0,0.05905512500001464
29358,36.0,0.05905512500001464,68.0,0.3543307500000026
29359,35.0,0.3543307500000026,67.0,0.48192800000001057
29360,36.0,0.48192800000001057,71.0,0.46332000000001017
29361,40.0,0.46332000000001017,67.0,0.9454020000000014
29362,38.0,0.9454020000000014,71.0,1.408471999999989
29363,36.0,0.4727010000000007,68.0,0.46306999999998766
29364,40.0,0.46306999999998766,68.0,0.4727010000000007
29365,38.0,0.4727010000000007,63.0,1.4022989999999993
29366,40.0,0.06657787500000723,63.0,0.0665778749999788
29367,38.0,0.0665778749999788,73.0,0.10791374999999448
29368,36.0,0.10791374999999448,66.0,0.21582750000001738
29369,40.0,0.21582750000001738,72.0,0.4727010000000007
29370,40.0,0.4727010000000007,68.0,0.4727010000000007
29371,38.0,0.4727010000000007,61.0,1.3979732499999784
29372,40.0,0.06626612499999851,61.0,0.06626612499999851
29373,38.0,0.06626612499999851,72.0,0.329669999999993
29374,37.0,0.329669999999993,72.0,0.46306999999998766
29375,40.0,0.46306999999998766,68.0,0.4727010000000007
29376,38.0,0.4727010000000007,62.0,0.47701699999998937
29377,40.0,0.06626612499999851,63.0,0.06626612499999851
29378,38.0,0.06626612499999851,73.0,0.11482824999998797
29379,37.0,0.11482824999998797,66.0,0.7023575000000051
29380,45.0,0.22965650000000437,72.0,0.9727010000000007
29381,57.0,0.4727010000000007,58.0,0.75
29382,26.0,0.5,50.0,0.5
29383,62.0,0.25,50.0,0.25
29384,58.0,0.25,50.0,0.5071010000000058
29385,60.0,0.06912437500000124,50.0,0.06912437500000124
29386,58.0,0.06912437500000124,57.0,0.3688522500000033
29387,57.0,0.3688522500000033,53.0,0.4890440000000069
29388,55.0,0.23904400000000692,50.0,0.25
29389,57.0,0.25,55.0,0.5022728333333362
29390,50.0,0.25227283333333617,50.0,1.2295919999999967
29391,41.0,0.25,31.0,0.48979600000001255
29392,41.0,0.48979600000001255,31.0,0.48979599999998413
29393,52.0,0.48979599999998413,58.0,0.5
29394,55.0,0.25,50.0,0.25
29395,53.0,0.25,50.0,0.506040750000011
29396,55.0,0.07009350000001291,50.0,0.07009349999998449
29397,53.0,0.07009349999998449,57.0,0.36585375000001363
29398,52.0,0.36585375000001363,53.0,0.4890440000000069
29399,53.0,0.4890440000000069,55.0,0.5022728333333362
29400,50.0,0.25227283333333617,50.0,0.7397960000000126
29401,41.0,0.25,31.0,0.48979600000001255
29402,29.0,0.48979600000001255,66.0,0.7086615000000052
29403,44.0,0.47244100000000344,43.0,0.47244100000000344
29404,34.0,0.23622050000000172,58.0,0.23622050000000172
29405,31.0,0.23622050000000172,65.0,0.43321299999999496
29406,32.0,0.14440433333334113,57.0,0.1444043333333127
29407,31.0,0.1444043333333127,55.0,0.14440433333334113
29408,29.0,0.14440433333334113,63.0,0.47244100000000344
29409,27.0,0.23622050000000172,57.0,0.23622050000000172
29410,29.0,0.23622050000000172,64.0,0.47619000000000256
29411,22.0,0.357142500000009,55.0,0.11904749999999353
29412,29.0,0.11904749999999353,64.0,0.47619000000000256
29413,27.0,0.47619000000000256,59.0,0.47619000000000256
29414,29.0,0.47619000000000256,66.0,0.47244100000000344
29415,34.0,0.23622050000000172,58.0,0.23622050000000172
29416,31.0,0.23622050000000172,65.0,0.43321299999999496
29417,32.0,0.14440433333334113,57.0,0.1444043333333127
29418,31.0,0.1444043333333127,55.0,0.14440433333334113
29419,29.0,0.14440433333334113,63.0,0.47244100000000344
29420,27.0,0.23622050000000172,57.0,0.23622050000000172
29421,29.0,0.23622050000000172,64.0,0.47619000000000256
29422,22.0,0.357142500000009,54.0,0.11904749999999353
29423,29.0,0.11904749999999353,62.0,0.47619000000000256
29424,27.0,0.47619000000000256,56.0,0.47619000000000256
29425,29.0,0.47619000000000256,60.0,0.45283000000000584
29426,22.0,0.33962249999999017,51.0,0.11320750000001567
29427,27.0,0.11320750000001567,58.0,0.4878050000000087
29428,29.0,0.4878050000000087,57.0,0.46692600000000084
29429,22.0,0.3501944999999864,48.0,0.11673150000001442
29430,27.0,0.11673150000001442,56.0,0.49382700000001023
29431,29.0,0.49382700000001023,55.0,0.47058799999999223
29432,22.0,0.35294099999998707,46.0,0.11764700000000516
29433,27.0,0.11764700000000516,53.0,0.5020920000000046
29434,22.0,0.5020920000000046,52.0,1.5062759999999855
29435,21.0,1.5062759999999855,60.0,1.0300420000000088
29436,20.0,1.0300420000000088,66.0,0.5825240000000065
29437,13.0,0.5825240000000065,74.0,0.19999999999998863
29438,53.0,0.4000000000000057,80.0,0.37735799999998676
29439,54.0,0.37735799999998676,80.0,0.3773580000000152
29440,57.0,0.3773580000000152,86.0,0.1807230000000004
29441,56.0,0.2710845000000006,80.0,0.3487548750000258
29442,44.0,0.08636437500001648,68.0,0.73446899999999
29443,56.0,0.2623905000000093,80.0,0.3759247499999958
29444,49.0,0.08746349999998415,80.0,0.3846149999999966
29445,61.0,0.3846149999999966,85.0,0.1923074999999983
29446,53.0,0.3846149999999966,80.0,0.37735799999998676
29447,54.0,0.37735799999998676,80.0,0.3773580000000152
29448,57.0,0.3773580000000152,86.0,0.1807230000000004
29449,56.0,0.2710845000000006,80.0,0.34991600000000744
29450,44.0,0.0859865000000184,68.0,0.7365210000000104
29451,56.0,0.26392949999998905,80.0,0.37643775000003643
29452,49.0,0.08797650000002477,80.0,0.3846149999999966
29453,13.0,0.3846149999999966,79.0,0.19999999999998863
29454,53.0,0.4000000000000057,80.0,0.37735799999998676
29455,54.0,0.37735799999998676,80.0,0.3773580000000152
29456,57.0,0.3773580000000152,86.0,0.1807230000000004
29457,56.0,0.2710845000000006,80.0,0.3449030000000164
29458,44.0,0.08403350000000387,68.0,0.7324409999999943
29459,56.0,0.2608695000000125,80.0,0.3754177499999969
29460,49.0,0.08695649999998523,80.0,0.3846149999999966
29461,73.0,0.3846149999999966,85.0,0.1923074999999983
29462,53.0,0.3846149999999966,80.0,0.37735799999998676
29463,54.0,0.37735799999998676,80.0,0.3773580000000152
29464,57.0,0.3773580000000152,86.0,0.1807230000000004
29465,56.0,0.2710845000000006,80.0,0.3468975000000114
29466,44.0,0.08450700000000211,68.0,0.73446899999999
29467,56.0,0.2623905000000093,80.0,0.3759247499999958
29468,49.0,0.08746349999998415,80.0,0.3846149999999966
29469,18.0,0.3846149999999966,81.0,0.19999999999998863
29470,58.0,0.4000000000000057,80.0,0.37735799999998676
29471,59.0,0.37735799999998676,80.0,0.3773580000000152
29472,62.0,0.3773580000000152,88.0,0.1807230000000004
29473,61.0,0.2710845000000006,88.0,0.35351925000000506
29474,46.0,0.0903615000000002,68.0,0.350876999999997
29475,61.0,0.26315775000000485,88.0,0.3761805000000038
29476,54.0,0.08771924999999214,80.0,0.3846149999999966
29477,78.0,0.3846149999999966,93.0,0.1923074999999983
29478,58.0,0.3846149999999966,80.0,0.37735799999998676
29479,59.0,0.37735799999998676,80.0,0.3773580000000152
29480,62.0,0.3773580000000152,87.0,0.18691599999999653
29481,61.0,0.2803739999999948,88.0,0.36618500000000154
29482,49.0,0.09345799999999826,68.0,0.36363600000001384
29483,61.0,0.2727270000000033,88.0,0.3793702500000222
29484,55.0,0.09090900000001056,80.0,1.5253620000000012
29485,18.0,0.3846149999999966,73.0,0.1923074999999983
29486,58.0,0.3846149999999966,80.0,0.3715170000000114
29487,59.0,0.3715170000000114,77.0,0.3846149999999966
29488,58.0,0.3846149999999966,77.0,2.33892658333329
29489,57.0,0.37796366666665904,74.0,1.960962916666631
29490,56.0,0.38555766666664226,71.0,0.3934560833333194
29491,55.0,0.3934560833333194,69.0,1.1819491666666693
29492,33.0,0.3986710000000073,59.0,0.3420191250000073
29493,37.0,0.3420191250000073,60.0,0.048859875000005104
29494,35.0,0.048859875000005104,68.0,0.39239916666664953
29495,33.0,0.39239916666664953,63.0,0.40519483333335415
29496,28.0,0.40519483333335415,56.0,0.4148850833333029
29497,33.0,0.4148850833333029,53.0,0.4247985000000085
29498,54.0,0.4247985000000085,59.0,0.49382700000001023
29499,55.0,0.24691350000000511,61.0,0.24691350000000511
29500,56.0,0.24691350000000511,63.0,0.4878050000000087
29501,57.0,0.4878050000000087,70.0,0.5084750000000042
29502,58.0,0.5084750000000042,77.0,0.5020920000000046
29503,59.0,0.3765689999999893,64.0,0.12552300000001537
29504,55.0,0.12552300000001537,76.0,0.7511869999999874
29505,54.0,0.7511869999999874,67.0,0.2553190000000143
29506,54.0,0.2553190000000143,71.0,0.5006562499999916
29507,52.0,0.24793399999998655,59.0,0.06437762499999167
29508,54.0,0.06437762499999167,60.0,0.06437762500002009
29509,52.0,0.06437762500002009,69.0,0.12396699999999328
29510,51.0,0.12396699999999328,67.0,0.49586800000000153
29511,52.0,0.49586800000000153,70.0,0.5357140000000129
29512,55.0,0.5357140000000129,74.0,0.9981319999999982
29513,42.0,0.5063289999999938,47.0,0.49180300000000443
29514,54.0,0.49180300000000443,64.0,0.5084750000000042
29515,50.0,0.5084750000000042,58.0,0.5084750000000042
29516,52.0,0.2542374999999879,60.0,0.2542375000000163
29517,53.0,0.2542375000000163,63.0,0.4979250000000093
29518,54.0,0.4979250000000093,68.0,0.5150209999999902
29519,57.0,0.5150209999999902,72.0,0.5150210000000186
29520,55.0,0.2575105000000235,64.0,0.2575104999999951
29521,52.0,0.2575104999999951,70.0,0.5042019999999923
29522,47.0,0.5042019999999923,56.0,0.06756762500000946
29523,49.0,0.06756762500000946,56.0,0.06756762499998104
29524,47.0,0.06756762499998104,64.0,0.37535199999999236
29525,46.0,0.37535199999999236,64.0,0.5172409999999843
29526,47.0,0.3879307499999811,61.0,0.12931025000000318
29527,50.0,0.12931025000000318,64.0,0.5042019999999923
29528,49.0,0.5042019999999923,64.0,0.5150209999999902
29529,46.0,0.5150209999999902,69.0,1.041337000000027
29530,42.0,0.5150210000000186,47.0,0.5263160000000084
29531,45.0,0.5263160000000084,64.0,0.5681820000000073
29532,54.0,0.5681820000000073,59.0,0.49382700000001023
29533,55.0,0.24691350000000511,61.0,0.24691350000000511
29534,57.0,0.24691350000000511,63.0,0.5136864999999773
29535,66.0,0.5136864999999773,69.0,0.5555559999999957
29536,64.0,0.5555559999999957,69.0,0.5020920000000046
29537,62.0,0.2510460000000023,64.0,0.2510460000000023
29538,59.0,0.2510460000000023,69.0,0.49586800000000153
29539,55.0,0.49586800000000153,67.0,0.5106380000000001
29540,54.0,0.5106380000000001,71.0,0.5006562499999916
29541,52.0,0.24793399999998655,59.0,0.06437762499999167
29542,54.0,0.06437762499999167,60.0,0.06437762500002009
29543,52.0,0.06437762500002009,69.0,0.12396699999999328
29544,51.0,0.12396699999999328,67.0,0.49586800000000153
29545,52.0,0.49586800000000153,70.0,0.5357140000000129
29546,55.0,0.5357140000000129,71.0,0.9981319999999982
29547,42.0,0.5063289999999938,47.0,0.49180300000000443
29548,54.0,0.49180300000000443,64.0,0.5434779999999932
29549,54.0,0.5434779999999932,77.0,0.7552914999999985
29550,42.0,0.5063289999999938,43.0,0.4979250000000093
29551,54.0,0.24896250000000464,64.0,0.06224062499998695
29552,56.0,0.06224062499998695,64.0,0.06224062500001537
29553,54.0,0.06224062500001537,72.0,0.12448125000000232
29554,52.0,0.12448125000000232,74.0,0.2575104999999951
29555,50.0,0.2575104999999951,71.0,0.2575104999999951
29556,49.0,0.2575104999999951,79.0,0.5150210000000186
29557,54.0,0.2575105000000235,73.0,0.2575104999999951
29558,57.0,0.2575104999999951,80.0,0.5042019999999923
29559,62.0,0.5042019999999923,79.0,0.5139394999999922
29560,61.0,0.5139394999999922,81.0,0.5172409999999843
29561,56.0,0.25862050000000636,70.0,0.25862049999997794
29562,59.0,0.25862049999997794,80.0,0.7617124999999874
29563,44.0,0.5042019999999923,44.0,0.5150209999999902
29564,57.0,0.2575104999999951,77.0,0.2575104999999951
29565,54.0,0.2575104999999951,81.0,0.5150210000000186
29566,45.0,0.5150210000000186,80.0,0.5555839999999819
29567,57.0,0.28409099999998944,79.0,0.27149299999999243
29568,56.0,0.27149299999999243,78.0,0.5666914999999904
29569,55.0,0.273722499999991,70.0,0.29296899999999937
29570,54.0,0.29296899999999937,67.0,0.49382700000001023
29571,55.0,0.24691350000000511,70.0,0.24691350000000511
29572,56.0,0.24691350000000511,72.0,0.4878050000000087
29573,57.0,0.4878050000000087,75.0,0.5084750000000042
29574,59.0,0.3114187500000014,73.0,0.09554149999999595
29575,57.0,0.09554149999999595,73.0,0.30612224999998716
29576,59.0,0.30612224999998716,73.0,0.09771975000001021
29577,57.0,0.09771975000001021,77.0,0.42402799999999274
29578,64.0,0.42402799999999274,81.0,0.10344825000001379
29579,57.0,0.31034475000001294,73.0,0.09933774999998946
29580,55.0,0.09933774999998946,73.0,0.3157897499999933
29581,57.0,0.3157897499999933,73.0,0.09999999999999432
29582,55.0,0.09999999999999432,77.0,0.437956000000014
29583,35.0,0.7763020000000154,41.0,0.09900999999999271
29584,33.0,0.09900999999999271,47.0,0.3321029999999894
29585,35.0,0.3321029999999894,41.0,0.09966775000000894
29586,33.0,0.09966775000000894,46.0,0.4562740000000076
29587,35.0,0.4562740000000076,44.0,0.30927825000000553
29588,33.0,0.30927825000000553,37.0,0.09868424999999093
29589,31.0,0.09868424999999093,44.0,0.43165500000000634
29590,21.0,0.43165500000000634,38.0,0.42253500000001054
29591,26.0,0.42253500000001054,44.0,0.31034475000001294
29592,28.0,0.31034475000001294,41.0,0.09836075000001188
29593,30.0,0.09836075000001188,45.0,0.4087618333333296
29594,33.0,0.4087618333333296,44.0,0.41237100000000737
29595,35.0,0.41237100000000737,46.0,0.3146849999999972
29596,33.0,0.3146849999999972,42.0,0.09868424999999093
29597,31.0,0.09868424999999093,45.0,0.42402799999999274
29598,21.0,0.42402799999999274,39.0,0.4152249999999924
29599,26.0,0.4152249999999924,44.0,0.31034475000001294
29600,28.0,0.31034475000001294,41.0,0.09836075000001188
29601,30.0,0.09836075000001188,45.0,0.4087618333333296
29602,33.0,0.4087618333333296,44.0,0.41237100000000737
29603,43.0,0.41237100000000737,49.0,1.2340849999999932
29604,37.0,0.31034475000001294,41.0,0.09523799999999483
29605,35.0,0.09523799999999483,44.0,0.30405375000000845
29606,37.0,0.30405375000000845,41.0,0.09740249999998696
29607,35.0,0.09740249999998696,45.0,0.42704599999999004
29608,42.0,0.42704599999999004,49.0,1.2340849999999932
29609,35.0,0.31034475000001294,41.0,0.09523799999999483
29610,33.0,0.09523799999999483,44.0,0.30405375000000845
29611,35.0,0.30405375000000845,41.0,0.09740249999998696
29612,33.0,0.09740249999998696,45.0,0.42704599999999004
29613,40.0,0.42704599999999004,49.0,1.2340849999999932
29614,33.0,0.31034475000001294,41.0,0.09523799999999483
29615,31.0,0.09523799999999483,44.0,0.30405375000000845
29616,33.0,0.30405375000000845,41.0,0.09740249999998696
29617,31.0,0.09740249999998696,45.0,0.42704599999999004
29618,30.0,0.42704599999999004,44.0,0.3422054999999773
29619,31.0,0.3422054999999773,41.0,0.1315789999999879
29620,35.0,0.1315789999999879,45.0,0.4878049999999803
29621,33.0,0.4878049999999803,44.0,0.4878050000000371
29622,35.0,0.4878050000000371,46.0,0.3658537499999852
29623,33.0,0.3658537499999852,42.0,0.09868425000001935
29624,31.0,0.09868425000001935,45.0,0.42402800000002117
29625,21.0,0.42402800000002117,39.0,0.4152250000000208
29626,26.0,0.4152250000000208,44.0,0.31034475000001294
29627,28.0,0.31034475000001294,41.0,0.09836074999998345
29628,30.0,0.09836074999998345,45.0,0.4087618333333012
29629,33.0,0.4087618333333012,44.0,0.44444399999997586
29630,34.0,0.44444399999997586,43.0,0.3673469999999952
29631,33.0,0.3673469999999952,39.0,0.10489499999999907
29632,31.0,0.10489499999999907,42.0,0.4379559999999856
29633,21.0,0.4379559999999856,36.0,0.4225349999999821
29634,26.0,0.4225349999999821,41.0,0.3409087499999828
29635,28.0,0.3409087499999828,38.0,0.10563374999998132
29636,29.0,0.10563374999998132,41.0,0.44444399999997586
29637,33.0,0.44444399999997586,40.0,0.4444440000000327
29638,34.0,0.4444440000000327,42.0,0.2281370000000038
29639,33.0,0.2281370000000038,38.0,0.2281370000000038
29640,31.0,0.2281370000000038,41.0,0.4379559999999856
29641,22.0,0.4379559999999856,35.0,0.46692600000000084
29642,34.0,0.46692600000000084,41.0,0.2281370000000038
29643,33.0,0.2281370000000038,37.0,0.2281370000000038
29644,31.0,0.2281370000000038,40.0,0.4379559999999856
29645,23.0,0.4379559999999856,34.0,0.47618999999997413
29646,34.0,0.47618999999997413,40.0,0.3501944999999864
29647,33.0,0.3501944999999864,36.0,0.11673150000001442
29648,31.0,0.11673150000001442,39.0,0.454544999999996
29649,24.0,0.454544999999996,34.0,0.4838710000000219
29650,34.0,0.4838710000000219,40.0,0.3688522499999749
29651,33.0,0.3688522499999749,36.0,0.12295075000002953
29652,31.0,0.12295075000002953,39.0,0.4743080000000077
29653,25.0,0.4743080000000077,33.0,0.521739000000025
29654,57.0,0.521739000000025,46.0,0.5042020000000207
29655,62.0,0.2521009999999819,42.0,0.25210100000003877
29656,58.0,0.25210100000003877,42.0,0.5071009999999774
29657,60.0,0.06912437500000124,42.0,0.06912437500000124
29658,58.0,0.06912437500000124,48.0,0.3688522499999749
29659,57.0,0.3688522499999749,45.0,0.4890439999999785
29660,55.0,0.2390439999999785,42.0,0.25
29661,57.0,0.25,46.0,0.5022728333333362
29662,50.0,0.25227283333333617,42.0,1.25
29663,41.0,0.25,26.0,0.5
29664,41.0,0.5,26.0,0.5
29665,52.0,0.5,49.0,0.5
29666,55.0,0.25,42.0,0.25
29667,53.0,0.25,42.0,0.506040750000011
29668,55.0,0.07009349999998449,42.0,0.07009350000004133
29669,53.0,0.07009350000004133,48.0,0.3658537499999852
29670,52.0,0.3658537499999852,45.0,0.4890439999999785
29671,53.0,0.4890439999999785,46.0,0.5022728333333362
29672,50.0,0.25227283333333617,42.0,1.25
29673,41.0,0.25,26.0,0.5
29674,41.0,0.5,26.0,0.5
29675,52.0,0.5,55.0,0.5
29676,50.0,0.25,47.0,0.25
29677,48.0,0.25,43.0,0.5136885000000007
29678,50.0,0.0731707499999743,44.0,0.07317075000003115
29679,48.0,0.07317075000003115,52.0,0.3673469999999952
29680,47.0,0.3673469999999952,50.0,0.4890439999999785
29681,48.0,0.4890439999999785,52.0,0.5022728333333362
29682,52.0,0.25227283333333617,47.0,0.5
29683,36.0,0.25,35.0,0.5
29684,40.0,0.5,68.0,0.7228920000000016
29685,38.0,0.7228920000000016,60.0,0.2476007500000037
29686,36.0,0.2476007500000037,57.0,0.05859375
29687,38.0,0.05859375,57.0,0.05859375
29688,36.0,0.05859375,68.0,0.3515625
29689,35.0,0.3515625,67.0,0.49180300000000443
29690,36.0,0.49180300000000443,71.0,0.46153800000001866
29691,40.0,0.46153800000001866,67.0,0.9462219999999775
29692,38.0,0.9462219999999775,71.0,1.3788664166666535
29693,36.0,0.46250241666666625,68.0,0.44943799999998646
29694,40.0,0.44943799999998646,68.0,0.46692600000000084
29695,38.0,0.46692600000000084,63.0,1.4087136666666424
29696,40.0,0.06663700000001427,63.0,0.06663699999995742
29697,38.0,0.06663699999995742,73.0,0.1110356666666803
29698,36.0,0.1110356666666803,66.0,0.21818200000001298
29699,40.0,0.21818200000001298,72.0,0.47311100000001716
29700,40.0,0.47311100000001716,68.0,0.4731109999999603
29701,38.0,0.4731109999999603,61.0,1.3972332499999993
29702,40.0,0.0663247499999784,61.0,0.06632475000003524
29703,38.0,0.06632475000003524,72.0,0.32800874999998086
29704,37.0,0.32800874999998086,72.0,0.46346399999998766
29705,40.0,0.46346399999998766,68.0,0.47311100000001716
29706,38.0,0.47311100000001716,62.0,0.47742450000004055
29707,40.0,0.0663247499999784,63.0,0.06632475000003524
29708,38.0,0.06632475000003524,73.0,0.11492500000002792
29709,37.0,0.11492500000002792,66.0,0.7029610000000162
29710,45.0,0.229849999999999,72.0,0.9731110000000172
29711,57.0,0.47311100000001716,58.0,0.75
29712,26.0,0.5,50.0,0.5
29713,62.0,0.25,50.0,0.25
29714,58.0,0.25,50.0,0.5071009999999774
29715,60.0,0.06912437500000124,50.0,0.06912437500000124
29716,58.0,0.06912437500000124,57.0,0.3688522499999749
29717,57.0,0.3688522499999749,53.0,0.4890439999999785
29718,55.0,0.2390439999999785,50.0,0.25
29719,57.0,0.25,55.0,0.5022728333333362
29720,50.0,0.25227283333333617,50.0,1.2280880000000138
29721,41.0,0.25,31.0,0.47808800000001384
29722,41.0,0.47808800000001384,31.0,0.5
29723,52.0,0.5,58.0,0.5
29724,55.0,0.25,50.0,0.25
29725,53.0,0.25,50.0,0.506040750000011
29726,55.0,0.07009349999998449,50.0,0.07009350000004133
29727,53.0,0.07009350000004133,57.0,0.3658537499999852
29728,52.0,0.3658537499999852,53.0,0.4890439999999785
29729,53.0,0.4890439999999785,55.0,0.5022728333333362
29730,50.0,0.25227283333333617,50.0,0.7338710000000219
29731,41.0,0.25,31.0,0.4838710000000219
29732,29.0,0.4838710000000219,66.0,0.7086615000000052
29733,44.0,0.47244100000000344,43.0,0.47244100000000344
29734,34.0,0.23622050000000172,58.0,0.23622050000000172
29735,31.0,0.23622050000000172,65.0,0.4332130000000234
29736,32.0,0.14440433333334113,57.0,0.14440433333334113
29737,31.0,0.14440433333334113,55.0,0.14440433333334113
29738,29.0,0.14440433333334113,63.0,0.47244100000000344
29739,27.0,0.23622050000000172,57.0,0.23622050000000172
29740,29.0,0.23622050000000172,64.0,0.47618999999997413
29741,22.0,0.357142500000009,55.0,0.11904749999996511
29742,29.0,0.11904749999996511,64.0,0.476190000000031
29743,27.0,0.476190000000031,59.0,0.46332000000001017
29744,29.0,0.46332000000001017,66.0,0.46244658333330335
29745,34.0,0.23167758333335087,58.0,0.23076899999995248
29746,31.0,0.23076899999995248,65.0,0.4332130000000234
29747,32.0,0.14440433333334113,57.0,0.14440433333334113
29748,31.0,0.14440433333334113,55.0,0.14440433333334113
29749,29.0,0.14440433333334113,63.0,0.47244100000000344
29750,27.0,0.23622050000000172,57.0,0.23622050000000172
29751,29.0,0.23622050000000172,64.0,0.47618999999997413
29752,22.0,0.357142500000009,54.0,0.11904749999996511
29753,29.0,0.11904749999996511,62.0,0.476190000000031
29754,27.0,0.476190000000031,56.0,0.47618999999997413
29755,29.0,0.47618999999997413,60.0,0.45283000000000584
29756,22.0,0.3396225000000186,51.0,0.11320749999998725
29757,27.0,0.11320749999998725,58.0,0.4878049999999803
29758,29.0,0.4878049999999803,57.0,0.46692600000000084
29759,22.0,0.3501944999999864,48.0,0.11673150000001442
29760,27.0,0.11673150000001442,56.0,0.49382700000001023
29761,29.0,0.49382700000001023,55.0,0.47058800000002066
29762,22.0,0.35294099999998707,46.0,0.11764700000003359
29763,27.0,0.11764700000003359,53.0,0.5020920000000046
29764,29.0,0.5020920000000046,54.0,0.48979600000001255
29765,22.0,0.3673469999999952,45.0,0.12244900000001735
29766,29.0,0.12244900000001735,51.0,0.48979600000001255
29767,27.0,0.48979600000001255,45.0,0.5106379999999717
29768,29.0,0.5106379999999717,50.0,0.4979250000000093
29769,22.0,0.37344374999997854,41.0,0.12448125000003074
29770,29.0,0.12448125000003074,46.0,0.512820999999974
29771,27.0,0.512820999999974,41.0,0.5309730000000172
29772,46.0,0.5309730000000172,40.0,1.5584430000000111
29773,39.0,1.5584430000000111,45.0,1.5929189999999949
29774,46.0,1.5929189999999949,40.0,1.5584430000000111
29775,39.0,1.5584430000000111,45.0,1.5999990000000253
29776,46.0,1.5999990000000253,41.0,3.1249992187500197
29777,46.0,3.1304339999999797,54.0,0.49382700000001023
29778,39.0,0.49382700000001023,59.0,0.6642059999999788
29779,38.0,0.6642059999999788,52.0,0.24390249999999014
29780,40.0,0.24390249999999014,59.0,0.47058800000002066
29781,33.0,0.35294099999998707,45.0,0.6239760000000274
29782,37.0,0.11764700000003359,58.0,0.5063289999999938
29783,38.0,0.5063289999999938,56.0,0.5882349999999974
29784,16.0,0.0,20.0,0.3703703333333333
29785,23.0,0.3703703333333333,21.0,0.3333333333333333
29786,35.0,0.3333333333333333,22.0,0.33333333333333337
29787,28.0,0.33333333333333337,23.0,0.3310709999999999
29788,23.0,0.3310709999999999,24.0,0.3310710000000001
29789,16.0,0.3310710000000001,26.0,0.3310710000000001
29790,23.0,0.3310710000000001,27.0,0.31746033333333346
29791,28.0,0.31746033333333346,28.0,0.317460333333333
29792,35.0,0.317460333333333,29.0,0.3168354166666667
29793,28.0,0.3168354166666667,31.0,0.31621049999999995
29794,23.0,0.31621049999999995,32.0,0.3193650833333339
29795,16.0,0.3193650833333339,33.0,0.3225806666666666
29796,23.0,0.3225806666666666,34.0,0.3249390000000001
29797,28.0,0.3249390000000001,34.0,0.32493899999999964
29798,35.0,0.32493899999999964,33.0,0.32594833333333373
29799,28.0,0.32594833333333373,32.0,0.3269576666666669
29800,23.0,0.3269576666666669,31.0,0.32695766666666604
29801,16.0,0.32695766666666604,30.0,0.32900133333333326
29802,23.0,0.32900133333333326,30.0,0.317460333333333
29803,28.0,0.317460333333333,29.0,0.3174603333333339
29804,35.0,0.3174603333333339,28.0,0.317460333333333
29805,28.0,0.317460333333333,27.0,0.33772716666666636
29806,23.0,0.33772716666666636,26.0,0.3706405833333335
29807,16.0,0.3706405833333335,25.0,0.3960396666666668
29808,55.0,0.3960396666666668,52.0,2.049762583333335
29809,28.0,0.3783240833333341,25.0,0.35961450000000106
29810,35.0,0.35961450000000106,26.0,0.3426549166666657
29811,28.0,0.3426549166666657,27.0,0.3272025833333334
29812,23.0,0.3272025833333334,28.0,0.3232363333333339
29813,16.0,0.3232363333333339,29.0,0.31873016666666665
29814,56.0,0.31873016666666665,51.0,0.9523810000000008
29815,28.0,0.317460333333333,29.0,0.317460333333333
29816,38.0,0.317460333333333,30.0,0.3174603333333348
29817,56.0,0.3174603333333348,54.0,1.0057996666666682
29818,23.0,0.3239132500000004,31.0,0.334757333333334
29819,16.0,0.334757333333334,32.0,0.3471290833333338
29820,56.0,0.3471290833333338,56.0,1.9656685833333345
29821,28.0,0.34635283333333433,31.0,0.334757333333334
29822,38.0,0.334757333333334,30.0,0.32455841666666707
29823,28.0,0.32455841666666707,30.0,0.3200000000000003
29824,23.0,0.3200000000000003,29.0,0.3200000000000003
29825,16.0,0.3200000000000003,28.0,0.3199999999999985
29826,57.0,0.3199999999999985,55.0,2.9902507500000013
29827,28.0,0.3200000000000003,28.0,0.3200000000000003
29828,36.0,0.3200000000000003,28.0,0.3200000000000003
29829,28.0,0.3200000000000003,28.0,0.3252033333333326
29830,24.0,0.3252033333333326,28.0,0.3252033333333344
29831,16.0,0.3252033333333344,28.0,0.35402808333333446
29832,24.0,0.35402808333333446,32.0,0.3419386666666675
29833,29.0,0.3419386666666675,29.0,0.3419386666666675
29834,36.0,0.3419386666666675,29.0,0.34193866666666395
29835,55.0,0.34193866666666395,55.0,0.7402529999999992
29836,24.0,0.32900133333333414,27.0,0.32900133333333414
29837,16.0,0.32900133333333414,26.0,0.3290013333333306
29838,53.0,0.08225033333333087,51.0,0.24675099999999972
29839,52.0,0.24675099999999972,51.0,1.004450000000002
29840,29.0,0.3337593333333331,24.0,0.33534533333333627
29841,36.0,0.33534533333333627,24.0,0.3353453333333327
29842,51.0,0.3353453333333327,51.0,1.0817766666666628
29843,24.0,0.34937833333333046,24.0,0.3620279999999987
29844,16.0,0.3620279999999987,24.0,0.3703703333333337
29845,52.0,0.3703703333333337,53.0,1.0256410000000002
29846,31.0,0.34188033333333223,24.0,0.3418803333333358
29847,40.0,0.3418803333333358,23.0,0.34188033333333223
29848,59.0,0.34188033333333223,56.0,2.037536249999995
29849,23.0,0.33322233333333173,23.0,0.3332223333333353
29850,16.0,0.3332223333333353,23.0,0.33322233333333173
29851,14.0,0.33322233333333173,26.0,0.33828300000000056
29852,26.0,0.33828300000000056,24.0,0.34558999999999784
29853,42.0,0.34558999999999784,24.0,0.353996249999998
29854,59.0,0.353996249999998,54.0,0.36037499999999767
29855,57.0,0.36037499999999767,51.0,0.6039388333333306
29856,14.0,0.3886610833333286,24.0,0.4374999166666669
29857,55.0,0.21527775000000204,49.0,0.22222216666666483
29858,55.0,0.22222216666666483,53.0,1.9901399999999967
29859,26.0,0.3463528333333308,27.0,0.335446000000001
29860,43.0,0.335446000000001,28.0,0.33333333333333215
29861,40.0,0.33534533333333627,33.0,0.33534533333332206
29862,57.0,0.08383633333332341,63.0,0.25150899999999865
29863,59.0,0.25150899999999865,65.0,0.9756100000000032
29864,23.0,0.3252033333333344,31.0,0.3252033333333344
29865,16.0,0.3252033333333344,29.0,0.3252033333333344
29866,57.0,0.3252033333333344,58.0,1.0190220000000068
29867,29.0,0.33967400000000225,24.0,0.33967400000000225
29868,36.0,0.33967400000000225,24.0,0.33967400000000225
29869,53.0,0.33967400000000225,56.0,1.0991156666666484
29870,33.0,0.3471290833333285,24.0,0.3653958333333236
29871,39.0,0.3653958333333236,24.0,0.3865907499999963
29872,52.0,0.3865907499999963,62.0,4.210487583333347
29873,23.0,0.34562850000000367,23.0,0.33196758333333776
29874,40.0,0.33196758333333776,24.0,0.3305786666666677
29875,31.0,0.3305786666666677,24.0,0.3305786666666677
29876,23.0,0.3305786666666677,24.0,0.3305786666666677
29877,16.0,0.3305786666666677,24.0,0.32438031666666234
29878,16.0,0.3305786666666677,26.0,0.344175000000007
29879,23.0,0.344175000000007,24.0,0.3441749999999928
29880,35.0,0.3441749999999928,24.0,0.34433816666667383
29881,28.0,0.34433816666667383,24.0,0.3532615000000021
29882,23.0,0.3532615000000021,24.0,0.3868799999999908
29883,16.0,0.3868799999999908,24.0,0.4377471666666679
29884,55.0,0.4377471666666679,54.0,2.0323424166666797
29885,28.0,0.4074062500000082,26.0,0.338306750000001
29886,35.0,0.338306750000001,26.0,0.31746033333334367
29887,28.0,0.31746033333334367,27.0,0.32720258333333163
29888,23.0,0.32720258333333163,28.0,0.3232363333333268
29889,16.0,0.3232363333333268,28.0,0.3187301666666684
29890,55.0,0.3187301666666684,51.0,0.9523809999999884
29891,28.0,0.31746033333332946,29.0,0.31746033333332946
29892,35.0,0.31746033333332946,30.0,0.31746033333332946
29893,55.0,0.31746033333332946,54.0,0.9666706666666727
29894,23.0,0.31621050000001105,31.0,0.32259116666665477
29895,16.0,0.32259116666665477,32.0,0.32786900000000685
29896,56.0,0.32786900000000685,56.0,1.9362239999999957
29897,28.0,0.32922383333333016,32.0,0.3232468333333287
29898,35.0,0.3232468333333287,31.0,0.31747033333333263
29899,52.0,0.31747033333333263,53.0,0.703125
29900,23.0,0.3125,30.0,0.3125
29901,16.0,0.3125,29.0,0.3412830000000042
29902,50.0,0.078125,49.0,0.2631580000000042
29903,57.0,0.2631580000000042,55.0,2.995389333333307
29904,28.0,0.3290013333333377,27.0,0.3290013333333235
29905,40.0,0.3290013333333235,27.0,0.3290013333333377
29906,48.0,0.3290013333333377,51.0,0.742637166666654
29907,28.0,0.32455841666666174,25.0,0.3340451666666553
29908,21.0,0.3340451666666553,23.0,0.34952033333333077
29909,47.0,0.08403358333333699,48.0,0.2654867499999938
29910,45.0,0.2654867499999938,50.0,4.091563583333311
29911,21.0,0.33903649999999175,24.0,0.3333449166666753
29912,36.0,0.3333449166666753,24.0,0.3278799999999933
29913,55.0,0.3278799999999933,56.0,0.7402529999999956
29914,21.0,0.3290013333333377,24.0,0.3290013333333235
29915,9.0,0.3290013333333235,24.0,0.34311983333333274
29916,53.0,0.08225033333333442,55.0,0.2608694999999983
29917,52.0,0.2608694999999983,54.0,1.0084030000000013
29918,23.0,0.33613433333333376,24.0,0.33613433333333376
29919,35.0,0.33613433333333376,24.0,0.33613433333333376
29920,51.0,0.33613433333333376,51.0,1.0817766666666557
29921,23.0,0.349378333333334,24.0,0.36202799999999513
29922,11.0,0.36202799999999513,24.0,0.3703703333333266
29923,52.0,0.3703703333333266,54.0,1.0256409999999931
29924,16.0,0.008547008333337658,26.0,0.3418803333333358
29925,23.0,0.33760682916665985,24.0,0.3418803333333358
29926,40.0,0.33760682916667406,23.0,0.3418803333333216
29927,59.0,0.3418803333333216,60.0,2.0966484166666532
29928,23.0,0.33322233333333884,23.0,0.3332223333333246
29929,16.0,0.3332223333333246,23.0,0.33322233333333884
29930,48.0,0.33322233333333884,41.0,0.3524571666666674
29931,50.0,0.21007406666667805,39.0,0.17841913333332116
29932,26.0,0.14238309999998933,24.0,0.3653348333333213
29933,48.0,0.07207206666666366,39.0,0.18232156666667265
29934,47.0,0.21918869999998947,41.0,0.18639989999999784
29935,42.0,0.07407406666666816,24.0,0.3791894166666623
29936,48.0,0.15006166666665877,39.0,0.1906662166666706
29937,57.0,0.22912775000000352,54.0,1.2510414166666664
29938,26.0,0.4030509166666718,24.0,0.41668924999999035
29939,14.0,0.41668924999999035,24.0,0.4313012500000042
29940,45.0,0.1063829999999939,40.0,0.3249182500000103
29941,55.0,0.3249182500000103,54.0,3.964567416666654
29942,26.0,0.37856008333332625,31.0,0.34070333333333735
29943,43.0,0.34070333333333735,31.0,0.32786899999999264
29944,35.0,0.32786899999999264,32.0,0.32786900000000685
29945,26.0,0.32786900000000685,32.0,0.3252033333333344
29946,18.0,0.3252033333333344,33.0,0.32193549999999505
29947,55.0,0.32193549999999505,54.0,0.960000000000008
29948,23.0,0.3200000000000074,34.0,0.3199999999999932
29949,35.0,0.3199999999999932,35.0,0.3200000000000074
29950,55.0,0.3200000000000074,58.0,0.9824271666666533
29951,23.0,0.32259116666665477,36.0,0.3278799999999933
29952,16.0,0.3278799999999933,36.0,0.33195600000000525
29953,56.0,0.33195600000000525,62.0,1.9652432499999861
29954,23.0,0.32990125000000603,37.0,0.32521408333332147
29955,40.0,0.32521408333332147,36.0,0.3200102499999815
29956,52.0,0.3200102499999815,56.0,0.7246309166666833
29957,23.0,0.31746033333334367,34.0,0.3252033333333344
29958,16.0,0.3252033333333344,33.0,0.34745399999999904
29959,50.0,0.08196725000000527,51.0,0.2654867499999938
29960,57.0,0.2654867499999938,60.0,2.966840250000004
29961,24.0,0.3252033333333344,31.0,0.32193549999999505
29962,40.0,0.32193549999999505,30.0,0.3187301666666684
29963,48.0,0.3187301666666684,57.0,0.7142857500000019
29964,24.0,0.31746033333332946,29.0,0.31746033333332946
29965,16.0,0.31746033333332946,28.0,0.34023458333334133
29966,47.0,0.07936508333334302,52.0,0.2608694999999983
29967,45.0,0.2608694999999983,53.0,3.995556250000007
29968,24.0,0.34193866666666395,24.0,0.34193866666666395
29969,36.0,0.34193866666666395,24.0,0.34193866666667816
29970,55.0,0.34193866666667816,56.0,0.7402529999999956
29971,24.0,0.3290013333333377,24.0,0.3290013333333235
29972,16.0,0.3290013333333235,24.0,0.35252058333333025
29973,53.0,0.08225033333333442,55.0,0.2702702499999958
29974,52.0,0.2702702499999958,54.0,0.9756100000000032
29975,24.0,0.3252033333333344,24.0,0.3252033333333344
29976,36.0,0.3252033333333344,24.0,0.3252033333333344
29977,51.0,0.3252033333333344,52.0,3.016588999999996
29978,24.0,0.32786900000000685,24.0,0.32786899999999264
29979,16.0,0.32786899999999264,24.0,0.32786900000000685
29980,45.0,0.32786900000000685,41.0,1.0
29981,24.0,0.3333333333333286,22.0,0.3333333333333428
29982,36.0,0.3333333333333428,24.0,0.3333333333333286
29983,43.0,0.3333333333333286,45.0,0.762711749999994
29984,24.0,0.3389829999999989,23.0,0.3389829999999989
29985,16.0,0.3389829999999989,23.0,0.355015999999992
29986,41.0,0.08474574999999618,34.0,0.2702702499999958
29987,40.0,0.2702702499999958,40.0,1.0190220000000068
29988,24.0,0.33967400000000225,24.0,0.33967400000000225
29989,36.0,0.33967400000000225,24.0,0.33967400000000225
29990,39.0,0.33967400000000225,36.0,1.153882749999994
29991,24.0,0.3562845833333341,24.0,0.38401958333332686
29992,16.0,0.38401958333332686,24.0,0.41357858333333297
29993,24.0,0.41357858333333297,26.0,0.3847933333333202
29994,29.0,0.3847933333333202,22.0,0.3572852499999897
29995,36.0,0.3572852499999897,24.0,0.3418803333333358
29996,41.0,0.3418803333333358,27.0,0.3397073333333367
29997,36.0,0.3397073333333367,23.0,0.33827083333333974
29998,29.0,0.33827083333333974,23.0,0.33613433333333376
29999,24.0,0.33613433333333376,26.0,0.3333333333333286
30000,29.0,0.3333333333333286,24.0,0.3333333333333428
30001,36.0,0.3333333333333428,25.0,0.33196725000000527
30002,29.0,0.33196725000000527,24.0,0.3312785833333294
30003,24.0,0.3312785833333294,24.0,0.33971950000000106
30004,16.0,0.33971950000000106,24.0,0.3478392500000069
30005,29.0,0.3478392500000069,26.0,0.35635283333333234
30006,36.0,0.35635283333333234,23.0,0.35320608333333325
30007,41.0,0.35320608333333325,25.0,0.3493516666666636
30008,45.0,0.3493516666666636,27.0,0.3440908333333397
30009,41.0,0.3440908333333397,23.0,0.34043166666667446
30010,36.0,0.34043166666667446,23.0,0.3354460000000046
30011,24.0,0.3354460000000046,26.0,0.33543408333332536
30012,29.0,0.33543408333332536,24.0,0.3397073333333367
30013,36.0,0.3397073333333367,24.0,0.34335400000000504
30014,29.0,0.34335400000000504,26.0,0.3518490000000014
30015,24.0,0.3518490000000014,24.0,0.36277266666667174
30016,16.0,0.36277266666667174,24.0,0.3499999999999943
30017,47.0,0.3499999999999943,38.0,1.517652499999997
30018,22.0,0.18373250000000496,26.0,0.18548714583334913
30019,23.0,0.17489391666667586,26.0,0.17698854166665967
30020,24.0,0.16686708333332945,26.0,0.17206479166667066
30021,23.0,0.16194333333334043,26.0,0.17206479166665645
30022,47.0,0.080971666666656,38.0,0.24291499999999644
30023,24.0,0.08097166666667022,26.0,0.17249185416666535
30024,47.0,0.16194333333332622,41.0,0.5063289999999938
30025,24.0,0.16877633333332653,26.0,0.17932485416667987
30026,23.0,0.16877633333334074,26.0,0.16877633333332653
30027,40.0,0.16877633333332653,41.0,1.44587700000001
30028,22.0,0.15936266666666654,26.0,0.16932283333333942
30029,23.0,0.15936266666666654,27.0,0.16932283333333942
30030,24.0,0.15936266666666654,27.0,0.16932283333333942
30031,23.0,0.15936266666666654,27.0,0.17077445833334082
30032,43.0,0.07968133333334038,38.0,0.24291499999999644
30033,24.0,0.08097166666667022,27.0,0.17206479166665645
30034,40.0,0.16194333333332622,39.0,0.4858300000000071
30035,24.0,0.16194333333334043,27.0,0.17206479166665645
30036,23.0,0.16194333333332622,27.0,0.16194333333334043
30037,47.0,0.16194333333334043,47.0,1.4147856666666456
30038,22.0,0.16462299999999175,33.0,0.1682794166666639
30039,23.0,0.15858949999999084,29.0,0.16310014583332588
30040,24.0,0.1535581666666559,29.0,0.16221364583333298
30041,23.0,0.152671666666663,29.0,0.16221364583333298
30042,47.0,0.0763358333333315,45.0,0.2290075000000087
30043,24.0,0.0763358333333457,29.0,0.1626716666666681
30044,47.0,0.152671666666663,48.0,0.480000000000004
30045,24.0,0.1599999999999966,30.0,0.1700000000000017
30046,23.0,0.1599999999999966,29.0,0.1600000000000108
30047,40.0,0.1600000000000108,48.0,1.3793100000000038
30048,22.0,0.15325666666666393,30.0,0.16283520833333398
30049,23.0,0.15325666666666393,30.0,0.16283520833333398
30050,24.0,0.15325666666667814,30.0,0.16283520833333398
30051,23.0,0.15325666666666393,30.0,0.16283520833333398
30052,43.0,0.07662833333333197,45.0,0.2298849999999959
30053,24.0,0.07662833333333197,30.0,0.16283520833333398
30054,40.0,0.15325666666666393,45.0,0.459770000000006
30055,24.0,0.15325666666666393,30.0,0.16283520833333398
30056,23.0,0.15325666666667814,30.0,0.15325666666666393
30057,52.0,0.15325666666666393,55.0,1.3434799166666522
30058,27.0,0.15874266666665449,45.0,0.162965666666679
30059,28.0,0.1535671666666758,40.0,0.1577999999999946
30060,29.0,0.14870908333332977,41.0,0.15454558333333068
30061,28.0,0.14545466666666584,41.0,0.15454558333333068
30062,52.0,0.07272733333333292,53.0,0.21818199999999877
30063,29.0,0.07272733333333292,41.0,0.15474835416667077
30064,52.0,0.14545466666666584,55.0,0.44609699999999464
30065,29.0,0.14869899999999348,41.0,0.1579926875000126
30066,28.0,0.1486990000000077,40.0,0.14869899999999348
30067,45.0,0.14869899999999348,57.0,1.3236729999999994
30068,27.0,0.14598533333332853,41.0,0.15510941666667577
30069,28.0,0.14598533333334274,43.0,0.15510941666666156
30070,29.0,0.14598533333332853,44.0,0.15510941666666156
30071,28.0,0.14598533333332853,44.0,0.15510941666667577
30072,48.0,0.07299266666667847,56.0,0.2189779999999928
30073,29.0,0.07299266666666426,44.0,0.15531368749999785
30074,45.0,0.14598533333332853,57.0,0.44776099999999985
30075,29.0,0.14925366666666662,44.0,0.15858202083333595
30076,28.0,0.14925366666666662,44.0,0.14925366666666662
30077,52.0,0.14925366666666662,66.0,1.3020533333333475
30078,27.0,0.15268283333332988,55.0,0.15724916666667355
30079,28.0,0.1481582500000087,49.0,0.15269706250001036
30080,29.0,0.14389425000001665,49.0,0.1496478125000067
30081,28.0,0.14084499999999878,50.0,0.1496478125000067
30082,52.0,0.0704225000000065,65.0,0.21126749999999106
30083,29.0,0.07042249999999228,50.0,0.14990297916666862
30084,52.0,0.14084499999999878,67.0,0.4347829999999959
30085,29.0,0.14492766666666057,50.0,0.15398564583334462
30086,28.0,0.14492766666667478,50.0,0.14492766666666057
30087,45.0,0.14492766666666057,69.0,1.3395188333333294
30088,27.0,0.14084499999999878,51.0,0.1496478125000067
30089,28.0,0.14084499999999878,52.0,0.1496478125000067
30090,29.0,0.14084499999999878,52.0,0.1496478125000067
30091,28.0,0.14084499999999878,52.0,0.1496478125000067
30092,48.0,0.0704225000000065,71.0,0.21126750000000527
30093,29.0,0.07042249999999228,53.0,0.1496478125000067
30094,45.0,0.140845000000013,73.0,0.49444883333332257
30095,29.0,0.1417258333333251,54.0,0.1587817916666694
30096,28.0,0.14866033333332496,54.0,0.2040626666666725
30097,59.0,0.2040626666666725,78.0,1.3454256666666708
30098,34.0,0.18388050000000078,65.0,0.14684408333333465
30099,35.0,0.14684408333333465,58.0,0.14257133333333627
30100,36.0,0.14257133333333627,58.0,0.14139266666666117
30101,35.0,0.14139266666666117,58.0,0.14139266666667538
30102,36.0,0.14139266666667538,58.0,0.14614741666666475
30103,59.0,0.03534816666666529,74.0,0.11079924999999946
30104,59.0,0.11079924999999946,78.0,0.44319699999999784
30105,42.0,0.14773233333333735,58.0,0.14773233333332314
30106,35.0,0.14773233333332314,56.0,0.14773233333333735
30107,59.0,0.14773233333333735,78.0,1.2914803333333396
30108,34.0,0.1428059999999931,58.0,0.14280600000000732
30109,35.0,0.14280600000000732,59.0,0.1428059999999931
30110,36.0,0.1428059999999931,59.0,0.14280600000000732
30111,35.0,0.14280600000000732,59.0,0.1428059999999931
30112,36.0,0.1428059999999931,59.0,0.14805275000000506
30113,55.0,0.03570150000000183,79.0,0.11235125000000323
30114,52.0,0.11235125000000323,79.0,0.42939758333334055
30115,43.0,0.1428059999999931,59.0,0.14280600000000732
30116,35.0,0.14280600000000732,59.0,0.14378558333334013
30117,59.0,0.14378558333334013,78.0,1.2809442500000188
30118,34.0,0.14547516666667093,65.0,0.1430454999999995
30119,35.0,0.1430454999999995,58.0,0.14069833333333293
30120,36.0,0.14069833333333293,58.0,0.13910133333332908
30121,35.0,0.13910133333332908,58.0,0.1391013333333433
30122,36.0,0.1391013333333433,58.0,0.1422405833333329
30123,59.0,0.03477533333332872,74.0,0.10746525000000418
30124,59.0,0.10746525000000418,78.0,0.43128200000001016
30125,45.0,0.14376066666666532,58.0,0.14376066666666532
30126,35.0,0.14376066666666532,56.0,0.14376066666667953
30127,52.0,0.14376066666667953,78.0,1.3147929166666756
30128,34.0,0.1418639999999982,58.0,0.1418639999999982
30129,35.0,0.1418639999999982,59.0,0.1418639999999982
30130,36.0,0.1418639999999982,59.0,0.1418639999999982
30131,35.0,0.1418639999999982,59.0,0.1418639999999982
30132,36.0,0.1418639999999982,59.0,0.14626525000002744
30133,55.0,0.035466000000013764,79.0,0.11079925000001367
30134,52.0,0.11079925000001367,79.0,0.45920766666665713
30135,47.0,0.1418639999999982,59.0,0.15323649999999134
30136,35.0,0.15323649999999134,59.0,0.16410716666666758
30137,64.0,0.16410716666666758,80.0,1.3048805000000527
30138,39.0,0.15138516666669943,68.0,0.14196083333334286
30139,40.0,0.14196083333334286,59.0,0.14069833333334714
30140,41.0,0.14069833333334714,59.0,0.13921299999998382
30141,40.0,0.13921299999998382,60.0,0.1391013333333433
30142,41.0,0.1391013333333433,60.0,0.14971783333334088
30143,64.0,0.03477533333332872,78.0,0.11494250000001216
30144,64.0,0.11494250000001216,71.0,0.14760133333334124
30145,64.0,0.14760133333334124,73.0,0.14760133333331282
30146,64.0,0.14760133333331282,80.0,0.14760133333334124
30147,64.0,0.14760133333334124,82.0,1.3038124166666591
30148,30.0,0.07326000000000477,37.0,0.1465199999999811
30149,42.0,0.1465199999999811,56.0,0.46499033333336115
30150,30.0,0.1485795833333441,37.0,0.15476491666666448
30151,23.0,0.15476491666666448,38.0,0.16164583333335258
30152,50.0,0.16164583333335258,59.0,1.279439750000023
30153,23.0,0.14611999999999625,38.0,0.14427550000002043
30154,32.0,0.14427550000002043,38.0,0.14260475000000383
30155,23.0,0.14260475000000383,38.0,0.14134266666667372
30156,32.0,0.14134266666667372,39.0,0.14134266666667372
30157,50.0,0.07067133333333686,58.0,0.21201399999998216
30158,23.0,0.07067133333333686,39.0,0.1413426666666453
30159,50.0,0.1413426666666453,58.0,0.4224115000000097
30160,23.0,0.140845000000013,39.0,0.14084499999998457
30161,32.0,0.14084499999998457,39.0,0.14072150000001216
30162,50.0,0.14072150000001216,61.0,1.3001307499999655
30163,33.0,0.14035100000000966,50.0,0.140845000000013
30164,23.0,0.140845000000013,40.0,0.14121824999998012
30165,33.0,0.14121824999998012,40.0,0.14171866666666233
30166,23.0,0.14171866666666233,40.0,0.14209633333334182
30167,49.0,0.07092199999999593,60.0,0.21339858333334405
30168,33.0,0.07117433333334588,40.0,0.14222424999999816
30169,54.0,0.14222424999999816,61.0,0.4516772499999604
30170,33.0,0.14455208333330916,41.0,0.15039391666667257
30171,23.0,0.15039391666667257,41.0,0.15673124999997867
30172,50.0,0.15673124999997867,65.0,1.2470357499999807
30173,23.0,0.14311499999999455,42.0,0.14109566666667206
30174,32.0,0.14109566666667206,42.0,0.1391324999999881
30175,23.0,0.1391324999999881,42.0,0.1379310000000089
30176,32.0,0.1379310000000089,42.0,0.13781249999999545
30177,50.0,0.06896549999999024,63.0,0.20630399999998872
30178,23.0,0.06884700000000521,42.0,0.1374569999999835
30179,50.0,0.1374569999999835,63.0,0.4104920833333381
30180,23.0,0.1371040000000221,43.0,0.13686941666665575
30181,32.0,0.13686941666665575,43.0,0.13651866666666024
30182,50.0,0.13651866666666024,69.0,0.8206429999999898
30183,33.0,0.1361704166666584,55.0,0.13617041666668683
30184,23.0,0.13617041666668683,44.0,0.13651866666666024
30185,33.0,0.13651866666666024,44.0,0.13698633333333987
30186,23.0,0.13698633333333987,44.0,0.13722166666664748
30187,49.0,0.06849316666665572,67.0,0.20630399999998872
30188,33.0,0.06872849999999175,44.0,0.13757549999999696
30189,42.0,0.13757549999999696,67.0,0.4274019166666676
30190,33.0,0.1391392499999995,44.0,0.14390075000000024
30191,23.0,0.14390075000000024,45.0,0.14436191666666787
30192,52.0,0.14436191666666787,71.0,1.2142415833332905
30193,23.0,0.13986091666666312,45.0,0.13840916666666203
30194,34.0,0.13840916666666203,45.0,0.13698708333333798
30195,23.0,0.13698708333333798,45.0,0.1357092499999908
30196,34.0,0.1357092499999908,46.0,0.1343419166666706
30197,52.0,0.06734000000000151,69.0,0.20000374999997916
30198,23.0,0.0670019166666691,46.0,0.13300183333331006
30199,52.0,0.13300183333331006,70.0,0.3959314166666559
30200,23.0,0.1320133333333331,46.0,0.1320133333333331
30201,34.0,0.1320133333333331,46.0,0.1319047499999897
30202,52.0,0.1319047499999897,74.0,1.2091153333333295
30203,35.0,0.13157900000001632,62.0,0.1319047499999897
30204,23.0,0.1319047499999897,49.0,0.13212258333334148
30205,35.0,0.13212258333334148,48.0,0.13245033333333822
30206,23.0,0.13245033333333822,48.0,0.1327803333333577
30207,51.0,0.0663351666666756,73.0,0.19944624999999405
30208,35.0,0.0664451666666821,48.0,0.13300108333331195
30209,56.0,0.13300108333331195,73.0,0.4152772499999742
30210,35.0,0.13423574999998777,49.0,0.13829966666665428
30211,23.0,0.13829966666665428,49.0,0.14274183333333212
30212,52.0,0.14274183333333212,77.0,1.1828872499999932
30213,23.0,0.1415045833333295,50.0,0.13536566666664385
30214,34.0,0.13536566666664385,50.0,0.13355783333332738
30215,23.0,0.13355783333332738,50.0,0.1317975833333378
30216,34.0,0.1317975833333378,50.0,0.13008300000001327
30217,52.0,0.06525300000001266,75.0,0.19314083333333087
30218,23.0,0.06483000000000061,50.0,0.12831083333333027
30219,52.0,0.12831083333333027,76.0,0.3822677500000111
30220,23.0,0.12749041666666017,51.0,0.12738866666666127
30221,34.0,0.12738866666666127,51.0,0.1273886666666897
30222,52.0,0.1273886666666897,80.0,0.764331999999996
30223,35.0,0.12738866666666127,69.0,0.12738866666666127
30224,23.0,0.12738866666666127,52.0,0.12738866666666127
30225,35.0,0.12738866666666127,52.0,0.12738866666666127
30226,23.0,0.12738866666666127,52.0,0.12738866666666127
30227,51.0,0.06369433333333063,78.0,0.19108300000002032
30228,35.0,0.06369433333333063,52.0,0.1273886666666897
30229,44.0,0.1273886666666897,79.0,0.4100318333333348
30230,35.0,0.13218458333332705,53.0,0.1369943333333481
30231,23.0,0.1369943333333481,54.0,0.14085291666665967
30232,54.0,0.14085291666665967,80.0,0.3835947499999861
30233,23.0,0.12738866666666127,60.0,0.12789799999998763
30234,36.0,0.12789799999998763,60.0,0.1283080833333372
30235,54.0,0.1283080833333372,80.0,0.38783099999997717
30236,36.0,0.12882483333333994,61.0,0.12924116666667373
30237,23.0,0.12924116666667373,61.0,0.1297649999999635
30238,54.0,0.1297649999999635,82.0,0.3968116666666788
30239,23.0,0.13191100000000233,61.0,0.13245033333333822
30240,36.0,0.13245033333333822,62.0,0.13245033333333822
30241,54.0,0.13245033333333822,83.0,0.3984903645833242
30242,54.0,0.4026849999999911,86.0,0.4181335937500137
30243,55.0,0.42253500000001054,91.0,0.5128210000000024
30244,56.0,0.5128210000000024,92.0,0.3566062499999987
30245,52.0,0.3603600000000142,85.0,0.3084412499999871
30246,47.0,0.31168800000000374,80.0,0.32094562500000734
30247,49.0,0.32432399999999006,85.0,0.9555850000000135
30248,21.0,0.3177120000000002,62.0,0.15475100000000452
30249,9.0,0.30950200000000905,62.0,0.1641855000000021
30250,47.0,0.3283710000000042,66.0,0.32247699999999213
30251,49.0,0.04030962499999191,66.0,0.04030962500002033
30252,47.0,0.04030962500002033,65.0,0.08061924999998382
30253,46.0,0.08061924999998382,69.0,0.16123849999999607
30254,47.0,0.16123849999999607,70.0,0.073568999999992
30255,49.0,0.14693649999998115,73.0,0.07310433333333322
30256,51.0,0.1460097499999904,74.0,0.07264408333332995
30257,52.0,0.14509275000000343,76.0,0.07712075000000596
30258,53.0,0.1542415000000119,80.0,0.29635716666666667
30259,54.0,0.29635716666666667,83.0,0.31413599999999064
30260,55.0,0.31413599999999064,87.0,0.3520192500000121
30261,56.0,0.3520192500000121,89.0,0.3452032812500079
30262,52.0,0.3488370000000032,85.0,0.3029332291666549
30263,47.0,0.3061219999999878,80.0,0.3116474999999923
30264,49.0,0.314928000000009,85.0,0.9555850000000135
30265,21.0,0.3177120000000002,62.0,0.15475100000000452
30266,9.0,0.30950200000000905,62.0,0.1641855000000021
30267,47.0,0.3283710000000042,66.0,0.32247699999999213
30268,49.0,0.04030962499999191,66.0,0.04030962500002033
30269,47.0,0.04030962500002033,65.0,0.08061924999998382
30270,46.0,0.08061924999998382,61.0,0.16123849999999607
30271,47.0,0.16123849999999607,70.0,0.07317075000000273
30272,49.0,0.14620866666666643,73.0,0.07283933333334858
30273,51.0,0.14548341666667852,74.0,0.07244866666667349
30274,52.0,0.14483191666667494,76.0,0.0833657500000129
30275,50.0,0.16673149999999737,67.0,0.303797000000003
30276,51.0,0.303797000000003,69.0,0.327368000000007
30277,53.0,0.327368000000007,63.0,0.3735686666666709
30278,55.0,0.3735686666666709,42.0,0.35291807291667965
30279,51.0,0.356632999999988,39.0,0.3307801041666778
30280,46.0,0.3342619999999954,37.0,0.3376839166666912
30281,48.0,0.34124516666668114,39.0,0.9986669999999833
30282,20.0,0.3344850000000008,28.0,0.16220599999999763
30283,8.0,0.32441199999999526,28.0,0.16988499999999362
30284,46.0,0.33976999999998725,39.0,0.32247699999999213
30285,48.0,0.04030962499999191,39.0,0.04030962500002033
30286,46.0,0.04030962500002033,38.0,0.08061924999998382
30287,45.0,0.08061924999998382,37.0,0.16123849999999607
30288,46.0,0.16123849999999607,42.0,0.07390758333332315
30289,48.0,0.1475441666666768,44.0,0.07330191666667929
30290,50.0,0.14633983333331457,44.0,0.07270866666667075
30291,51.0,0.14515733333334424,46.0,0.07978725000000964
30292,52.0,0.15957449999999085,47.0,0.30170499999999834
30293,53.0,0.30170499999999834,50.0,0.3196079999999881
30294,54.0,0.3196079999999881,54.0,0.3313431666666702
30295,55.0,0.3313431666666702,57.0,0.32896520833332943
30296,51.0,0.33242799999999306,55.0,0.31249953125001184
30297,46.0,0.3157889999999952,51.0,0.29987343749999695
30298,53.0,0.3030300000000068,59.0,0.28555483333332177
30299,54.0,0.28555483333332177,63.0,0.29197099999998954
30300,56.0,0.29197099999998954,68.0,0.29197100000001797
30301,57.0,0.29197100000001797,72.0,0.2961347916666739
30302,54.0,0.29925199999999563,72.0,0.29083051041666863
30303,48.0,0.29388674999998443,77.0,0.2864984479166708
30304,56.0,0.2895105000000058,78.0,0.2797199999999975
30305,57.0,0.2797199999999975,82.0,0.28846200000000977
30306,59.0,0.28846200000000977,86.0,0.29776699999999323
30307,60.0,0.29776699999999323,87.0,0.30370807291666324
30308,60.0,0.3069050000000004,89.0,0.2964863229166781
30309,60.0,0.29965891666668654,91.0,0.30709862500000895
30310,60.0,0.31035383333332334,93.0,0.3121371041666521
30311,60.0,0.3154527499999915,95.0,0.3178449583333247
30312,60.0,0.32122333333333586,96.0,0.3238398020833415
30313,60.0,0.3272833333333267,99.0,1.4626519999999914
30314,54.0,0.35714300000000776,89.0,1.1055089999999836
30315,59.0,0.47058799999999223,85.0,0.6349209999999914
30316,39.0,0.6349209999999914,86.0,0.3682287499999859
30317,40.0,0.3682287499999859,91.0,0.303797000000003
30318,41.0,0.303797000000003,96.0,0.30927800000000616
30319,43.0,0.30927800000000616,99.0,0.5108612916666289
30320,42.0,0.5108612916666289,94.0,0.1924410000000023
30321,40.0,0.1924410000000023,93.0,0.18155791666669074
30322,39.0,0.18155791666669074,92.0,0.17596616666665454
30323,36.0,0.17596616666665454,91.0,0.1707093333333205
30324,35.0,0.1707093333333205,91.0,0.16560499999999934
30325,34.0,0.16560499999999934,90.0,0.16453199999997992
30326,35.0,0.16453199999997992,84.0,0.18560024999999314
30327,38.0,0.18560024999999314,88.0,0.08789324999997916
30328,36.0,0.17493400000000747,88.0,0.0866219166666724
30329,35.0,0.17291166666666413,88.0,0.08579616666665402
30330,33.0,0.17118525000000773,87.0,0.0850662499999828
30331,31.0,0.16965283333331627,87.0,0.084112250000004
30332,30.0,0.16861975000000484,87.0,0.08498625000001425
30333,28.0,0.17037533333333954,86.0,0.08587808333334124
30334,27.0,0.172930666666673,86.0,0.09340458333332435
30335,30.0,0.19571700000000192,86.0,0.11813925000004133
30336,24.0,0.2598972083333706,102.0,0.8602160000000083
30337,23.0,0.8602160000000083,92.0,0.41778708333333725
30338,22.0,0.41778708333333725,97.0,0.4166669999999897
30339,23.0,0.4166669999999897,97.0,0.4166670000000181
30340,18.0,0.4166670000000181,98.0,0.4067799999999977
30341,21.0,0.4067799999999977,94.0,0.5960264999999936
30342,19.0,0.5960264999999936,90.0,0.23076900000000933
30343,16.0,0.23076900000000933,102.0,0.3703703333333408
30344,23.0,0.3703703333333408,38.0,0.3333333333333428
30345,35.0,0.3333333333333428,39.0,0.3333333333333144
30346,28.0,0.3333333333333144,41.0,0.33107100000000855
30347,23.0,0.33107100000000855,43.0,0.33107099999998013
30348,16.0,0.33107099999998013,45.0,0.33107100000000855
30349,23.0,0.33107100000000855,47.0,0.31746033333334367
30350,28.0,0.31746033333334367,46.0,0.31746033333331525
30351,35.0,0.31746033333331525,44.0,0.31683541666669157
30352,28.0,0.31683541666669157,43.0,0.31621049999998263
30353,23.0,0.31621049999998263,42.0,0.3193650833333379
30354,16.0,0.3193650833333379,40.0,0.32258066666665286
30355,23.0,0.32258066666665286,42.0,0.32493900000000053
30356,28.0,0.32493900000000053,40.0,0.32493900000000053
30357,35.0,0.32493900000000053,38.0,0.3259483333333151
30358,28.0,0.3259483333333151,36.0,0.32695766666665804
30359,23.0,0.32695766666665804,34.0,0.32695766666668646
30360,16.0,0.32695766666668646,31.0,0.3290013333333377
30361,23.0,0.3290013333333377,30.0,0.31746033333334367
30362,28.0,0.31746033333334367,29.0,0.31746033333331525
30363,35.0,0.31746033333331525,28.0,0.31746033333334367
30364,28.0,0.31746033333334367,27.0,0.33772716666666724
30365,23.0,0.33772716666666724,26.0,0.3706405833333406
30366,16.0,0.3706405833333406,25.0,0.39461162500001024
30367,55.0,0.39461162500001024,52.0,2.001315500000004
30368,28.0,0.36404295833332867,25.0,0.3347701250000057
30369,35.0,0.3347701250000057,26.0,0.3333333333333428
30370,28.0,0.3333333333333428,27.0,0.32720258333333163
30371,23.0,0.32720258333333163,28.0,0.323236333333341
30372,16.0,0.323236333333341,29.0,0.3187301666666542
30373,56.0,0.3187301666666542,51.0,0.9523810000000026
30374,28.0,0.31746033333334367,29.0,0.31746033333334367
30375,38.0,0.31746033333334367,30.0,0.31746033333331525
30376,56.0,0.31746033333331525,54.0,0.9790825833333088
30377,23.0,0.32129033333333723,31.0,0.32721358333330386
30378,16.0,0.32721358333330386,32.0,0.3305786666666677
30379,56.0,0.3305786666666677,56.0,1.9396085000000198
30380,28.0,0.32786899999999264,31.0,0.3265361666666706
30381,38.0,0.3265361666666706,30.0,0.3252033333333486
30382,28.0,0.3252033333333486,30.0,0.3199999999999932
30383,23.0,0.3199999999999932,29.0,0.3199999999999932
30384,16.0,0.3199999999999932,28.0,0.3200000000000216
30385,57.0,0.3200000000000216,55.0,2.9614259999999604
30386,28.0,0.3199999999999932,28.0,0.3199999999999932
30387,36.0,0.3199999999999932,28.0,0.3199999999999932
30388,28.0,0.3199999999999932,28.0,0.3252033333333202
30389,24.0,0.3252033333333202,28.0,0.3252033333333486
30390,16.0,0.3252033333333486,28.0,0.3252033333333202
30391,24.0,0.3252033333333202,32.0,0.34193866666666395
30392,29.0,0.34193866666666395,29.0,0.34193866666666395
30393,36.0,0.34193866666666395,29.0,0.34193866666666395
30394,55.0,0.34193866666666395,55.0,0.7402529999999956
30395,24.0,0.3290013333333377,27.0,0.3290013333333377
30396,16.0,0.3290013333333377,26.0,0.3290013333333377
30397,53.0,0.08225033333332021,51.0,0.24675100000001748
30398,52.0,0.24675100000001748,51.0,1.0044499999999914
30399,29.0,0.33375933333331886,24.0,0.33534533333332206
30400,36.0,0.33534533333332206,24.0,0.3353453333333505
30401,51.0,0.3353453333333505,51.0,1.1306916249999404
30402,24.0,0.349385291666664,24.0,0.3727916666666715
30403,16.0,0.3727916666666715,24.0,0.40851466666660485
30404,52.0,0.40851466666660485,54.0,1.0573541249999892
30405,31.0,0.3884944583333265,24.0,0.3355263333333198
30406,40.0,0.3355263333333198,23.0,0.3333333333333428
30407,59.0,0.3333333333333428,60.0,2.145763791666667
30408,23.0,0.33322233333333884,23.0,0.33322233333333884
30409,16.0,0.33322233333333884,23.0,0.3581556666666472
30410,48.0,0.0833055833333276,36.0,0.2748500833333196
30411,48.0,0.2748500833333196,41.0,0.3607993333333468
30412,50.0,0.21500969999999597,39.0,0.182486866666693
30413,26.0,0.14578963333335082,24.0,0.37083491666666646
30414,48.0,0.07339446666668437,39.0,0.1848501166666381
30415,47.0,0.22223328333330983,41.0,0.1884146666666595
30416,42.0,0.07520716666667226,24.0,0.3895292083333288
30417,48.0,0.15141036666665286,39.0,0.1981188416666555
30418,57.0,0.23811884166667596,54.0,1.2515132916666118
30419,26.0,0.40769004166662626,24.0,0.42112266666666187
30420,14.0,0.42112266666666187,24.0,0.4227005833333237
30421,45.0,0.1081112916666882,40.0,0.3145892916666355
30422,55.0,0.3145892916666355,54.0,3.9570215416666485
30423,26.0,0.37306645833334073,31.0,0.3359414166666568
30424,43.0,0.3359414166666568,31.0,0.3305786666666677
30425,35.0,0.3305786666666677,32.0,0.32786899999999264
30426,26.0,0.32786899999999264,32.0,0.3252033333333202
30427,18.0,0.3252033333333202,33.0,0.32193550000002347
30428,55.0,0.32193550000002347,54.0,0.9599999999999795
30429,23.0,0.3199999999999932,34.0,0.3199999999999932
30430,35.0,0.3199999999999932,35.0,0.3199999999999932
30431,55.0,0.3199999999999932,58.0,0.9824271666666675
30432,23.0,0.3225911666666832,36.0,0.3278799999999933
30433,16.0,0.3278799999999933,36.0,0.33195599999999104
30434,56.0,0.33195599999999104,62.0,1.9652432500000145
