,pitch,step,velocity,duration
0,34.0,0.0019589416666647708,63.0,0.1544283333333354
1,61.0,0.07817934375000135,59.0,0.07721416666666414
2,72.0,0.07528381249999683,60.0,0.07721416666667125
3,26.0,0.0009651770833372098,63.0,0.15442833333332828
4,65.0,0.07624898958333404,62.0,0.07721416666666414
5,28.0,0.07817934374999425,63.0,0.11582125000000332
6,70.0,0.002895531250004524,66.0,0.07721416666666414
7,61.0,0.07528381249999683,68.0,0.07721416666667125
8,30.0,0.032816020833337234,70.0,0.5067179687499959
9,34.0,0.014477656250001303,70.0,0.49224031249999456
10,37.0,0.014477656249994197,58.0,0.47776265625000036
11,42.0,0.014477656250001303,58.0,0.46328499999999906
12,72.0,0.0009651770833372098,69.0,0.07721416666666414
13,64.0,0.07431863541666672,69.0,0.07721416666666414
14,70.0,0.07914452083333146,68.0,0.07721416666666414
15,61.0,0.07721416666666414,67.0,0.07721416666667125
16,60.0,0.07721416666667125,66.0,0.07721416666666414
17,52.0,0.07914452083333146,64.0,0.07724999583332703
18,30.0,0.07528381249999683,72.0,0.47188400000000286
19,58.0,0.0009830916666686562,59.0,0.07864733333332907
20,49.0,0.07766424166666752,59.0,0.07864733333332907
21,48.0,0.08061351666666638,59.0,0.07864733333332907
22,40.0,0.07766424166666752,59.0,0.07864733333332907
23,46.0,0.07864733333332907,59.0,0.07864733333333618
24,37.0,0.07766424166666752,59.0,0.07864733333333618
25,48.0,0.07668114999999887,59.0,0.07864733333333618
26,31.0,0.0019661833333373124,80.0,0.23594199999999432
27,39.0,0.08061351666666638,59.0,0.07864733333332907
28,46.0,0.07471496666666155,59.0,0.07864733333333618
29,37.0,0.08159660833333504,59.0,0.07864733333333618
30,51.0,0.08061351666666638,59.0,0.07864733333333618
31,48.0,0.07569805833333731,59.0,0.07864733333332907
32,39.0,0.07864733333332907,88.0,0.3539129999999986
33,49.0,0.0019661833333373124,61.0,0.07864733333332907
34,46.0,0.07668114999999887,62.0,0.07864733333332907
35,60.0,0.07864733333332907,64.0,0.07864733333333618
36,51.0,0.08061351666666638,64.0,0.07864733333333618
37,58.0,0.07766424166666752,64.0,0.07864733333333618
38,39.0,0.03834057499999943,79.0,0.11797100000000427
39,49.0,0.03932366666666809,64.0,0.07864733333333618
40,39.0,0.07864733333333618,88.0,0.47188399999999575
41,63.0,0.0029492749999988632,64.0,0.07864733333333618
42,49.0,0.07598488333333364,61.0,0.07894533333333698
43,46.0,0.08091896666667253,59.0,0.07890893333332372
44,26.0,0.07697169999998721,69.0,1.8754279999999852
45,48.0,0.0009686166666682539,61.0,0.07748933333333241
46,43.0,0.07845795000000066,59.0,0.07748933333333241
47,47.0,0.07845795000000066,61.0,0.07748933333333241
48,43.0,0.0755520999999959,59.0,0.07748933333333241
49,46.0,0.07748933333333241,61.0,0.07748933333333241
50,26.0,0.03777605000000506,61.0,0.11623399999999151
51,38.0,0.0368074333333368,59.0,0.07748933333333241
52,26.0,0.07942656666665471,70.0,0.47367199999999343
53,45.0,0.001973633333335556,61.0,0.07894533333333698
54,38.0,0.07697170000000142,58.0,0.07894533333332276
55,44.0,0.07993214999999054,60.0,0.07894533333333698
56,34.0,0.07894533333333698,56.0,0.07894533333333698
57,43.0,0.07894533333333698,59.0,0.07894533333333698
58,38.0,0.07993215000000475,55.0,0.07890893333332372
59,27.0,0.07697169999998721,62.0,0.46493599999999446
60,42.0,0.0019372333333365077,59.0,0.07748933333333241
61,33.0,0.0755520999999959,53.0,0.07748933333333241
62,41.0,0.0755520999999959,56.0,0.07748933333333241
63,34.0,0.07845795000000066,51.0,0.07748933333333241
64,40.0,0.07845795000000066,55.0,0.07748933333333241
65,32.0,0.07652071666666416,49.0,0.07748933333334662
66,26.0,0.07845795000000066,73.0,0.47188400000000286
67,39.0,0.0019661833333373124,55.0,0.07864733333333618
68,34.0,0.07668114999999887,50.0,0.07864733333333618
69,38.0,0.08159660833332794,53.0,0.07864733333333618
70,32.0,0.07373187500000711,49.0,0.07864733333332197
71,37.0,0.08257969999999659,50.0,0.07864733333333618
72,34.0,0.07766424166666752,47.0,0.07868925208333621
73,10.0,0.07766424166666752,69.0,1.4253490000000113
74,36.0,0.0030750312500060772,49.0,0.08200083333332486
75,29.0,0.0779007916666643,46.0,0.08200083333332486
76,35.0,0.08405085416666225,49.0,0.08200083333333907
77,32.0,0.08405085416666225,46.0,0.08200083333333907
78,34.0,0.08097582291667038,49.0,0.08200083333333907
79,26.0,0.08302584375000777,45.0,0.0818425020833331
80,33.0,0.0779007916666643,49.0,0.07783144375000006
81,17.0,0.0010250104166686924,66.0,0.9333440000000053
82,32.0,0.0806953666666601,46.0,0.07777866666667421
83,43.0,0.07972313333334569,53.0,0.23333599999999421
84,62.0,0.001944466666657263,50.0,0.07777866666667421
85,55.0,0.0748619666666741,44.0,0.07777866666666
86,60.0,0.08166760000000295,48.0,0.07777866666666
87,55.0,0.07388973333333126,44.0,0.07777866666666
88,59.0,0.07777866666666,48.0,0.07777866666667421
89,35.0,0.03986156666667284,50.0,0.11666799999999
90,50.0,0.03791710000000137,44.0,0.07777866666666
91,59.0,0.07777866666666,50.0,0.07922107499999242
92,38.0,0.0009722333333286315,50.0,0.9473200000000048
93,54.0,0.08221080833332906,48.0,0.07923933333333366
94,57.0,0.07923933333333366,50.0,0.07923933333333366
95,48.0,0.07923933333333366,48.0,0.07923933333333366
96,56.0,0.07923933333333366,50.0,0.07923933333333366
97,54.0,0.07725835000000814,48.0,0.07923193333333245
98,57.0,0.07626785833332406,48.0,0.0786621333333386
99,33.0,0.0019809833333397364,50.0,0.15729466666667236
100,48.0,0.07766424166666752,44.0,0.07864733333333618
101,60.0,0.07864733333333618,48.0,0.07864733333333618
102,35.0,0.0009830916666686562,42.0,0.15729466666665815
103,50.0,0.07864733333332197,44.0,0.07864733333333618
104,54.0,0.07864733333333618,48.0,0.1278019166666695
105,48.0,0.07766424166666752,44.0,0.07864733333333618
106,19.0,0.05013767500000199,38.0,0.5013767500000057
107,26.0,0.014746375000001422,38.0,0.014746375000001422
108,35.0,0.014746375000001422,45.0,0.47188400000000286
109,57.0,0.002949274999991758,48.0,0.07864733333333618
110,50.0,0.07668114999999887,44.0,0.07864733333333618
111,56.0,0.07864733333333618,45.0,0.07864733333333618
112,47.0,0.08061351666667349,42.0,0.07864733333333618
113,55.0,0.07668114999999887,44.0,0.07864733333333618
114,50.0,0.07963042500000483,41.0,0.0787231333333267
115,54.0,0.07974412500000483,44.0,0.08167933333332655
116,47.0,0.08167933333332655,41.0,0.08167933333334076
117,53.0,0.08167933333334076,42.0,0.08167933333332655
118,50.0,0.08167933333332655,40.0,0.08167933333332655
119,52.0,0.07657437500000697,42.0,0.08167933333332655
120,47.0,0.08372131666665439,40.0,0.08167933333334076
121,52.0,0.08065834166667685,62.0,0.07956229791666658
122,31.0,0.0010209916666639174,70.0,0.4772130000000061
123,47.0,0.07854130625000266,59.0,0.07953549999999154
124,35.0,0.07708820000000571,66.0,0.09367679999999723
125,68.0,0.001951599999998166,84.0,0.09367679999999723
126,29.0,0.07611239999999952,74.0,0.09367679999999723
127,74.0,0.001951599999998166,89.0,0.09367679999999723
128,35.0,0.07513660000000755,66.0,0.09367679999999723
129,68.0,0.003903199999996332,84.0,0.09367679999999723
130,73.0,0.07318499999999517,89.0,0.09367679999999723
131,32.0,0.003903199999996332,74.0,0.09367680000001144
132,65.0,0.07611239999999952,84.0,0.09367680000001144
133,38.0,0.0029274000000043543,66.0,0.09367679999999723
134,32.0,0.07611239999999952,73.0,0.09367679999999723
135,72.0,0.0009758000000061884,89.0,0.09367679999999723
136,68.0,0.07416080000000136,82.0,0.09367679999999723
137,38.0,0.004878999999988309,63.0,0.09367680000001144
138,71.0,0.07513660000000755,88.0,0.09367679999999723
139,35.0,0.001951599999998166,73.0,0.09367679999999723
140,62.0,0.07416080000000136,82.0,0.09367679999999723
141,41.0,0.0029274000000043543,63.0,0.09367679999999723
142,70.0,0.07806399999999769,88.0,0.09367679999999723
143,65.0,0.07611239999999952,82.0,0.09367679999999723
144,41.0,0.001951599999998166,63.0,0.09367679999999723
145,69.0,0.07513659999999334,88.0,0.09367680000001144
146,38.0,0.0029274000000043543,72.0,0.09367679999999723
147,59.0,0.07611239999999952,82.0,0.09367679999999723
148,38.0,0.07806399999999769,72.0,0.09367680000001144
149,68.0,0.0039032000000105427,88.0,0.09367679999999723
150,44.0,0.07416080000000136,64.0,0.09367679999999723
151,62.0,0.001951599999998166,82.0,0.09367679999999723
152,41.0,0.07611239999999952,72.0,0.09367679999999723
153,67.0,0.001951599999998166,88.0,0.09367679999999723
154,59.0,0.07513659999999334,82.0,0.09367679999999723
155,47.0,0.001951599999998166,63.0,0.09367680000001144
156,66.0,0.0780640000000119,88.0,0.09367679999999723
157,41.0,0.001951599999998166,72.0,0.09367679999999723
158,47.0,0.07513659999999334,63.0,0.09367679999999723
159,62.0,0.003903199999996332,82.0,0.09367680000001144
160,44.0,0.07708820000000571,72.0,0.09367679999999723
161,65.0,0.0009758000000061884,88.0,0.09367679999999723
162,50.0,0.07416079999998715,63.0,0.09367680000001144
163,58.0,0.0009758000000061884,82.0,0.09367679999999723
164,44.0,0.07611239999999952,72.0,0.09367679999999723
165,32.0,0.0019303541666602086,72.0,0.15442833333332828
166,62.0,0.07817934375000846,64.0,0.07721416666666414
167,65.0,0.07431863541665962,64.0,0.07721416666666414
168,31.0,0.0019303541666602086,73.0,0.1544283333333567
169,55.0,0.08010969791666867,66.0,0.07721416666666414
170,31.0,0.07431863541668804,77.0,0.46328499999998485
171,65.0,0.0009651770833158935,66.0,0.07721416666666414
172,60.0,0.07624898958334825,64.0,0.07721416666666414
173,63.0,0.07528381249997551,61.0,0.07721416666669256
174,55.0,0.07817934375000846,59.0,0.07721416666666414
175,53.0,0.08107487500001298,58.0,0.07721416666666414
176,48.0,0.07528381250000393,56.0,0.07722846041664866
177,51.0,0.07431863541665962,56.0,0.07832907916665022
178,24.0,0.0019303541666602086,79.0,0.47014599999999973
179,43.0,0.07639872499999001,56.0,0.0783576666666761
180,41.0,0.0812960791666626,56.0,0.0783576666666761
181,36.0,0.08031660833333376,56.0,0.0783576666666761
182,39.0,0.07639872500001843,56.0,0.07835766666664767
183,38.0,0.07639872499999001,56.0,0.0783576666666761
184,26.0,0.07933713750000493,68.0,0.23507299999999987
185,43.0,0.0812960791666626,55.0,0.0783576666666761
186,47.0,0.07346031250000351,55.0,0.0783576666666761
187,50.0,0.08031660833333376,55.0,0.0783576666666761
188,60.0,0.07933713750000493,55.0,0.0783576666666761
189,55.0,0.07737819583331884,55.0,0.0783576666666761
190,59.0,0.07737819583334726,55.0,0.0777859041666602
191,43.0,0.0009794708333288327,70.0,0.46667199999998843
192,62.0,0.07875089999998863,55.0,0.07777866666668842
193,72.0,0.07583420000000274,56.0,0.07777866666668842
194,47.0,0.0009722333333286315,66.0,0.15555733333334842
195,67.0,0.07680643333335979,57.0,0.07777866666666
196,52.0,0.07875089999998863,70.0,0.15555733333332
197,71.0,0.0009722333333286315,59.0,0.07777866666666
198,62.0,0.07972313333334569,59.0,0.07777866666666
199,48.0,0.07486196666664569,70.0,0.46667200000001685
200,66.0,0.07680643333333137,59.0,0.07777866666668842
201,69.0,0.08069536666667432,59.0,0.07777866666666
202,62.0,0.07583420000000274,58.0,0.07777866666666
203,59.0,0.07875090000001705,57.0,0.07777866666666
204,54.0,0.07680643333333137,56.0,0.07777866666666
205,38.0,0.07777866666666,77.0,0.4772130000000061
206,43.0,0.001909416666649122,70.0,0.07637666666667542
207,50.0,0.07351254166667331,79.0,0.0765136541666891
208,43.0,0.0765136541666891,71.0,0.07665766666664808
209,55.0,0.0019164416666512807,72.0,0.0766576666666765
210,48.0,0.07569944583332244,79.0,0.0766576666666765
211,60.0,0.0028746625000053427,79.0,0.0766576666666765
212,51.0,0.07282478333334552,72.0,0.0766576666666765
213,39.0,0.003832883333330983,71.0,0.0766678416666764
214,44.0,0.07282478333334552,79.0,0.07692560833331186
215,56.0,0.002881445833338603,79.0,0.07692899999997849
216,39.0,0.07404416249997325,71.0,0.07692900000000691
217,51.0,0.0019232250000129625,72.0,0.07692900000000691
218,43.0,0.07885222499999145,79.0,0.07692900000000691
219,48.0,0.07212093750001713,72.0,0.07692899999997849
220,36.0,0.0009616124999922704,71.0,0.07692900000000691
221,53.0,0.07692900000000691,79.0,0.0772106020833121
222,41.0,0.003857143749996794,79.0,0.07721416666666414
223,48.0,0.07431863541665962,72.0,0.07721416666666414
224,36.0,0.0019303541666602086,71.0,0.07721416666666414
225,39.0,0.07335345833334372,79.0,0.07721416666666414
226,51.0,0.0038607083333204173,79.0,0.07721416666666414
227,31.0,0.07624898958334825,71.0,0.07721760624997387
228,43.0,0.0009651770833158935,73.0,0.07722104583334044
229,50.0,0.07335345833334372,79.0,0.07748245416667032
230,38.0,0.0009651770833443152,79.0,0.07748589374998005
231,43.0,0.07845451041666252,72.0,0.0774893333333182
232,36.0,0.07652071666666416,79.0,0.0774893333333182
233,48.0,0.000968616666654043,79.0,0.07748933333334662
234,27.0,0.07942656666665471,70.0,0.07788227083335642
235,39.0,0.0009686166666824647,72.0,0.07800640625001165
236,48.0,0.07472814999999855,96.0,0.5245209999999929
237,50.0,0.5245209999999929,96.0,0.5641750000000059
238,72.0,0.5618242708333412,100.0,0.0713426291666508
239,12.0,0.005225391666670021,101.0,0.11498649999998634
240,67.0,0.07569944583332244,82.0,0.0766576666666765
241,19.0,0.03737061250001261,77.0,0.11498649999998634
242,71.0,0.03928705416666389,93.0,0.0766576666666765
243,27.0,0.0728247833333171,77.0,0.11498650000001476
244,63.0,0.0028746625000053427,84.0,0.0766576666666765
245,70.0,0.0766576666666765,93.0,0.0766576666666765
246,19.0,0.03737061249998419,77.0,0.11498650000001476
247,53.0,0.1553274999999985,40.0,0.08566049999999947
248,52.0,0.08566049999999947,39.0,0.04283025000000151
249,53.0,0.04283025000000151,37.0,0.04283024999999796
250,52.0,0.04283024999999796,42.0,0.3165729999999982
251,50.0,0.3165729999999982,40.0,0.3098370000000017
252,48.0,0.15491850000000085,40.0,0.15491850000000085
253,47.0,0.15491850000000085,40.0,0.30983699999999814
254,45.0,0.1549184999999973,40.0,0.15491850000000085
255,43.0,0.15491850000000085,40.0,0.15090550000000036
256,47.0,0.15090550000000036,39.0,0.15090550000000036
257,47.0,0.15090550000000036,40.0,0.3272429999999993
258,48.0,0.10908099999999976,39.0,0.10908099999999976
259,47.0,0.10908099999999976,39.0,0.10908099999999976
260,45.0,0.10908099999999976,39.0,0.3157059999999987
261,43.0,0.15785299999999935,39.0,0.15785299999999935
262,48.0,0.15785299999999935,40.0,1.162005999999998
263,40.0,0.3272429999999993,37.0,0.3357209999999995
264,40.0,0.3357209999999995,73.0,0.3519469999999991
265,45.0,0.3519469999999991,78.0,0.2941900000000004
266,52.0,0.1470950000000002,80.0,0.1470950000000002
267,53.0,0.1470950000000002,81.0,0.28764599999999874
268,55.0,0.14382300000000114,81.0,0.1438229999999976
269,57.0,0.1438229999999976,82.0,0.30817900000000265
270,58.0,0.14859600000000128,83.0,0.0797914999999989
271,57.0,0.0797914999999989,80.0,0.03989574999999945
272,58.0,0.03989574999999945,78.0,0.039895750000003005
273,57.0,0.039895750000003005,87.0,0.30249600000000143
274,55.0,0.30249600000000143,85.0,0.29303999999999775
275,53.0,0.14652000000000243,85.0,0.14651999999999532
276,52.0,0.14651999999999532,83.0,0.29304000000000485
277,50.0,0.14652000000000243,82.0,0.14652000000000243
278,48.0,0.14652000000000243,85.0,0.1438229999999976
279,53.0,0.1438229999999976,80.0,0.1438230000000047
280,53.0,0.1438230000000047,85.0,0.3098370000000017
281,55.0,0.10327900000000056,80.0,0.10327900000000056
282,53.0,0.10327900000000056,80.0,0.10327900000000056
283,52.0,0.10327900000000056,80.0,0.3033829999999966
284,50.0,0.1516914999999983,80.0,0.1516914999999983
285,52.0,0.1516914999999983,83.0,0.9825430000000068
286,48.0,0.31316900000000203,60.0,0.3174270000000021
287,48.0,0.3174270000000021,78.0,0.3519470000000027
288,43.0,0.3467210000000023,40.0,0.15079900000000634
289,47.0,0.15079900000000634,39.0,0.15079899999999213
290,48.0,0.15079899999999213,39.0,0.29489800000000344
291,50.0,0.1474489999999946,39.0,0.14744900000000882
292,52.0,0.14744900000000882,40.0,0.31972100000000125
293,53.0,0.15233849999999904,40.0,0.0836912500000011
294,52.0,0.0836912500000011,39.0,0.04184562499999345
295,53.0,0.04184562499999345,37.0,0.04184562500000766
296,52.0,0.04184562500000766,42.0,0.31010999999999456
297,50.0,0.31010999999999456,40.0,0.3004360000000048
298,48.0,0.1502179999999953,40.0,0.1502180000000095
299,47.0,0.1502180000000095,40.0,0.3004359999999906
300,45.0,0.1502179999999953,40.0,0.1502179999999953
301,43.0,0.1502179999999953,40.0,0.1474489999999946
302,48.0,0.1474489999999946,39.0,0.14744900000000882
303,48.0,0.14744900000000882,40.0,0.31764499999999884
304,50.0,0.10588166666666154,39.0,0.10588166666667576
305,48.0,0.10588166666667576,39.0,0.10588166666666154
306,47.0,0.10588166666666154,39.0,0.31102599999999825
307,45.0,0.15551299999999912,39.0,0.15551299999999912
308,47.0,0.15551299999999912,40.0,1.0096089999999975
309,43.0,0.32104400000000055,29.0,0.33766699999999616
310,43.0,0.33766699999999616,37.0,0.6590960000000052
311,43.0,0.3508980000000008,40.0,0.3081980000000044
312,47.0,0.1540990000000022,39.0,0.1540990000000022
313,48.0,0.1540990000000022,39.0,0.2994759999999985
314,50.0,0.14973799999999926,39.0,0.14973799999999926
315,52.0,0.14973799999999926,40.0,0.3213449999999938
316,53.0,0.15491849999999374,40.0,0.08321325000000002
317,52.0,0.08321325000000002,39.0,0.04160662500000001
318,53.0,0.04160662500000001,37.0,0.04160662500000001
319,52.0,0.04160662500000001,42.0,0.31400499999999454
320,50.0,0.31400499999999454,40.0,0.30576399999999637
321,48.0,0.1528820000000053,40.0,0.15288199999999108
322,47.0,0.15288199999999108,40.0,0.3057640000000106
323,45.0,0.1528820000000053,40.0,0.1528820000000053
324,43.0,0.1528820000000053,40.0,0.15012749999999642
325,47.0,0.15012749999999642,39.0,0.15012750000001063
326,47.0,0.15012750000001063,40.0,0.32724299999999573
327,48.0,0.10908100000000331,39.0,0.10908100000000331
328,47.0,0.10908100000000331,39.0,0.1090809999999891
329,42.0,0.13461349999999994,64.0,0.04943756250000009
330,42.0,0.13183349999999994,65.0,0.052700624999999945
331,42.0,0.13799074999999994,72.0,0.28315199999999985
332,44.0,0.28315199999999985,80.0,0.2751410000000001
333,23.0,0.22355206250000004,37.0,0.27206731249999994
334,30.0,0.017196312499999866,37.0,0.25487100000000007
335,32.0,0.017196312499999866,37.0,0.2376746875000002
336,56.0,0.01719631250000031,68.0,0.2204783749999999
337,54.0,0.1356790000000001,66.0,0.1356790000000001
338,25.0,0.08479937499999979,37.0,0.3271046250000005
339,32.0,0.016959874999999958,37.0,0.3101447500000005
340,35.0,0.016959874999999958,37.0,0.2772183687500007
341,56.0,0.0169598750000004,68.0,0.27622500000000016
342,57.0,0.13430050000000016,65.0,0.1419245
343,45.0,0.1419245,59.0,0.2664469999999999
344,45.0,0.13183349999999994,61.0,0.050480062500000145
345,45.0,0.13461349999999994,67.0,0.04943756250000009
346,45.0,0.13183349999999994,66.0,0.05335293750000014
347,45.0,0.13920149999999998,75.0,0.27970700000000015
348,47.0,0.27970700000000015,82.0,0.27362300000000017
349,27.0,0.22231868750000006,39.0,0.27119606250000006
350,33.0,0.01710143750000004,39.0,0.254094625
351,35.0,0.01710143750000004,39.0,0.23699318749999998
352,59.0,0.01710143750000004,72.0,0.21989174999999994
353,57.0,0.13531799999999983,70.0,0.13531800000000027
354,28.0,0.08457375000000011,39.0,0.3256457499999996
355,35.0,0.0169147500000002,39.0,0.3087309999999994
356,38.0,0.016914749999999756,39.0,0.29181624999999967
357,59.0,0.0169147500000002,72.0,0.27490149999999947
358,60.0,0.1336719999999998,65.0,0.14122949999999967
359,48.0,0.14122949999999967,56.0,0.2634452499999993
360,48.0,0.1303384999999997,60.0,0.04989581249999997
361,48.0,0.1331067499999996,64.0,0.04909874999999975
362,48.0,0.1309300000000002,69.0,0.05322168749999978
363,48.0,0.14039525000000008,79.0,0.2736229999999997
364,49.0,0.2736229999999997,63.0,0.26581600000000005
365,49.0,0.13183349999999994,66.0,0.05024343749999982
366,49.0,0.13398250000000012,67.0,0.04955081249999971
367,47.0,0.1321355000000004,68.0,0.0533529374999997
368,49.0,0.14227450000000008,81.0,0.27700800000000037
369,49.0,0.27700800000000037,63.0,0.26767750000000046
370,45.0,0.5074850000000026,27.0,0.5139190000000013
371,45.0,0.5139190000000013,26.0,0.5074850000000026
372,40.0,0.5074850000000026,26.0,0.5074850000000026
373,28.0,0.5074850000000026,25.0,0.5139190000000013
374,40.0,0.5139190000000013,27.0,0.5187619999999953
375,40.0,0.5187619999999953,26.0,0.5122949999999946
376,40.0,0.5122949999999946,26.0,0.5122950000000088
377,40.0,0.5122950000000088,27.0,0.5122949999999946
378,40.0,0.5122949999999946,26.0,0.5187619999999953
379,40.0,0.5187619999999953,26.0,0.5287739999999985
380,49.0,0.5287739999999985,62.0,0.515552999999997
381,48.0,0.515552999999997,54.0,0.504413999999997
382,49.0,0.504413999999997,59.0,0.5171519999999958
383,50.0,0.5171519999999958,62.0,1.0179059999999964
384,44.0,0.5104209999999938,28.0,0.5074850000000026
385,51.0,0.5074850000000026,60.0,0.5122949999999946
386,53.0,0.5122949999999946,63.0,0.5016300000000058
387,49.0,0.5016300000000058,60.0,0.5081729999999993
388,58.0,0.5081729999999993,60.0,0.515552999999997
389,56.0,0.515552999999997,61.0,1.4163082500000144
390,48.0,0.515552999999997,32.0,0.509122000000005
391,48.0,0.509122000000005,31.0,0.5254900000000049
392,49.0,0.39163325000001237,52.0,0.06692837499998916
393,51.0,0.06692837499998916,46.0,0.06692837500000337
394,49.0,0.06692837500000337,63.0,0.5081729999999993
395,48.0,0.5081729999999993,57.0,0.504413999999997
396,49.0,0.504413999999997,61.0,0.5171519999999958
397,50.0,0.5171519999999958,62.0,1.0246370000000127
398,44.0,0.51715200000001,28.0,0.5074850000000026
399,51.0,0.5074850000000026,63.0,0.5122949999999946
400,52.0,0.5122949999999946,66.0,0.509122000000005
401,49.0,0.509122000000005,63.0,0.5149100000000004
402,57.0,0.5149100000000004,63.0,0.5248430000000042
403,56.0,0.5248430000000042,65.0,0.52484299999999
404,54.0,0.52484299999999,63.0,0.5206979999999959
405,52.0,0.5206979999999959,63.0,0.515552999999997
406,50.0,0.515552999999997,62.0,6.227598833333346
407,44.0,0.515552999999997,39.0,0.5155530000000113
408,44.0,0.5155530000000113,39.0,0.515552999999997
409,44.0,0.515552999999997,37.0,0.515552999999997
410,42.0,0.515552999999997,36.0,0.515552999999997
411,40.0,0.2564105000000154,42.0,0.26506449999999404
412,42.0,0.26506449999999404,37.0,0.26506449999999404
413,47.0,0.26506449999999404,47.0,1.5784770000000208
414,35.0,0.5301290000000165,39.0,0.2597404999999924
415,34.0,0.2597404999999924,36.0,0.2597405000000208
416,43.0,0.2597405000000208,42.0,0.5288669999999911
417,35.0,0.26443349999999555,34.0,0.26443349999999555
418,47.0,0.26443349999999555,45.0,1.6011320000000353
419,26.0,0.5288670000000195,43.0,0.269299999999987
420,32.0,0.269299999999987,39.0,0.2693000000000154
421,35.0,0.2693000000000154,43.0,0.5314413958333262
422,33.0,0.2668324999999925,39.0,0.2668325000000209
423,45.0,0.2668325000000209,45.0,1.0711504999999875
424,21.0,0.5386000000000024,41.0,1.0711504999999875
425,28.0,0.269299999999987,36.0,0.26325049999999806
426,52.0,0.26325049999999806,47.0,0.5386000000000024
427,37.0,0.269299999999987,36.0,0.2693000000000154
428,52.0,0.2693000000000154,48.0,1.6133910000000071
429,16.0,0.5386000000000024,39.0,0.2668324999999925
430,23.0,0.2668324999999925,35.0,0.2668325000000209
431,28.0,0.2668325000000209,39.0,0.2705630000000099
432,35.0,0.2705630000000099,36.0,0.27056299999998146
433,40.0,0.27056299999998146,39.0,1.6314510000000269
434,39.0,0.2705630000000099,34.0,0.2705630000000099
435,38.0,0.2705630000000099,34.0,0.27056299999998146
436,37.0,0.27056299999998146,34.0,0.2705630000000099
437,48.0,0.2705630000000099,45.0,0.5491990000000158
438,28.0,0.2696870000000047,34.0,0.2795120000000111
439,49.0,0.2795120000000111,54.0,0.5288669999999911
440,44.0,0.5288669999999911,49.0,0.510421000000008
441,45.0,0.510421000000008,52.0,0.51687154166666
442,54.0,0.51687154166666,57.0,1.0179059999999822
443,45.0,0.510421000000008,25.0,0.5074849999999742
444,52.0,0.5074849999999742,52.0,0.5122949999999946
445,52.0,0.5122949999999946,52.0,0.5091219999999907
446,45.0,0.5091219999999907,45.0,0.51715200000001
447,47.0,0.51715200000001,45.0,0.5265009999999961
448,49.0,0.5265009999999961,52.0,3.6023609999999167
449,45.0,0.5265009999999961,28.0,0.5126010000000178
450,45.0,0.5126010000000178,27.0,0.5194809999999848
451,45.0,0.5194809999999848,27.0,0.5148889999999824
452,49.0,0.28977099999997336,55.0,0.14488550000004352
453,37.0,0.2897710000000302,48.0,0.14598549999999477
454,42.0,0.29197099999998954,50.0,0.14380199999999377
455,40.0,0.28760399999998754,51.0,0.14488549999998668
456,32.0,0.28977099999997336,45.0,0.14488550000004352
457,39.0,0.2897710000000302,45.0,0.14488549999998668
458,49.0,0.28977099999997336,46.0,1.1306723999999235
459,35.0,0.27995499999997264,31.0,0.2861909999999739
460,32.0,0.2861909999999739,31.0,0.2861910000000307
461,33.0,0.2861910000000307,36.0,0.2783353999999463
462,61.0,0.2783353999999463,46.0,0.28578042291673
463,61.0,0.28578042291673,46.0,0.285795999999948
464,37.0,0.285795999999948,46.0,1.1341665833334105
465,28.0,0.2790710395833571,31.0,0.2850235437500146
466,25.0,0.2850235437500146,31.0,0.28503599999999096
467,26.0,0.28503599999999096,38.0,0.2850360000000478
468,61.0,0.2850360000000478,53.0,0.28503599999999096
469,61.0,0.28503599999999096,59.0,0.28503599999999096
470,42.0,0.28503599999999096,63.0,0.2685999999999922
471,42.0,0.1328965000000153,66.0,0.05088881249997712
472,42.0,0.13570349999997688,67.0,0.05041668749998962
473,42.0,0.13428900000002386,68.0,0.05211224999999331
474,42.0,0.13896599999998216,79.0,0.28356491666670536
475,44.0,0.28356491666670536,88.0,0.27672933958331214
476,56.0,0.27672933958331214,76.0,0.2729338916666961
477,54.0,0.13647089166670412,74.0,0.136462999999992
478,56.0,0.136462999999992,76.0,0.2767519916666288
479,57.0,0.136462999999992,72.0,0.14028899166663678
480,45.0,0.14028899166663678,63.0,0.267975999999976
481,45.0,0.1325909999999908,66.0,0.05076937500001577
482,45.0,0.1353849999999852,67.0,0.04995112500000687
483,45.0,0.13320299999998042,66.0,0.052619250000020656
484,45.0,0.1403179999999793,79.0,0.2847919999999817
485,47.0,0.2847919999999817,87.0,0.2752110020833811
486,59.0,0.2752110020833811,76.0,0.27218926666665766
487,57.0,0.13609776666669404,74.0,0.13609149999996362
488,59.0,0.13609149999996362,76.0,0.2755992062500354
489,60.0,0.13609150000002046,72.0,0.13950770625001496
490,48.0,0.13950770625001496,56.0,0.265199999999993
491,48.0,0.13168849999999566,60.0,0.05006681250000611
492,48.0,0.13351149999999734,64.0,0.04938318749998416
493,63.0,0.07852575000000073,86.0,0.15892350000000022
494,64.0,0.07946175000000011,87.0,0.09271308333333295
495,25.0,0.07946175000000011,93.0,0.15901600000000116
496,68.0,0.07950800000000058,89.0,0.09247545833333248
497,70.0,0.07950800000000058,89.0,0.09077220833333399
498,72.0,0.07780474999999853,90.0,0.09073266666666768
499,73.0,0.07780475000000209,91.0,0.09049541666666627
500,75.0,0.07756750000000068,91.0,0.09060258333333238
501,76.0,0.07756750000000068,92.0,0.1564210000000017
502,78.0,0.07821050000000085,93.0,0.09129812500000156
503,25.0,0.07821050000000085,96.0,0.15705150000000145
504,80.0,0.07852575000000073,92.0,0.09161337499999789
505,78.0,0.07852575000000073,92.0,0.09042274999999833
506,76.0,0.07757324999999682,91.0,0.08994649999999993
507,75.0,0.07709700000000197,90.0,0.09014524999999907
508,73.0,0.07725599999999844,88.0,0.09022475000000085
509,72.0,0.07733550000000022,87.0,0.15505766666666787
510,73.0,0.07749016666666719,86.0,0.09077824999999962
511,25.0,0.07756750000000068,92.0,0.15852900000000147
512,69.0,0.07926450000000074,85.0,0.09247524999999968
513,68.0,0.07926450000000074,83.0,0.09146129166666483
514,67.0,0.07845333333333215,82.0,0.09105570833333232
515,68.0,0.07804774999999964,79.0,0.09125258333333264
516,66.0,0.07820524999999989,77.0,0.09133133333333276
517,64.0,0.07828400000000002,76.0,0.15697091666666552
518,63.0,0.07844516666666479,74.0,0.09161337500000144
519,25.0,0.07852575000000073,77.0,0.15745025000000012
520,60.0,0.07868525000000304,69.0,0.09189250000000015
521,61.0,0.07876499999999709,68.0,0.09209291666666886
522,59.0,0.07892533333333418,67.0,0.09217308333333563
523,57.0,0.07900550000000095,66.0,0.09238891666666404
524,56.0,0.0791781666666651,65.0,0.09276125000000235
525,54.0,0.07926450000000074,63.0,0.16163699999999892
526,52.0,0.08098049999999901,61.0,0.08065649999999991
527,25.0,0.08065649999999991,67.0,0.1664910000000006
528,52.0,0.0832455000000003,61.0,0.09653841666666807
529,54.0,0.0832455000000003,62.0,0.09305041666666725
530,56.0,0.07975749999999948,64.0,0.09305041666666725
531,57.0,0.07975749999999948,66.0,0.09284250000000327
532,59.0,0.07959116666667043,66.0,0.09275933333333342
533,61.0,0.07950799999999703,68.0,0.15869133333333352
534,48.0,0.07713675000000109,77.0,0.08981808333333419
535,57.0,0.07699691666666553,78.0,0.0897481666666664
536,56.0,0.07692699999999775,78.0,0.08964591666666877
537,52.0,0.07685883333333265,79.0,0.08950958333333148
538,51.0,0.07672250000000247,79.0,0.0894750000000002
539,61.0,0.07672250000000247,79.0,0.08926749999999828
540,60.0,0.07651500000000055,80.0,0.08926749999999828
541,57.0,0.07651500000000055,80.0,0.08916437499999574
542,56.0,0.0764462499999965,80.0,0.08902687500000184
543,64.0,0.07630875000000259,81.0,0.08899329166666092
544,63.0,0.07630874999999548,81.0,0.08879179166666518
545,61.0,0.07610724999999974,81.0,0.08879179166666518
546,60.0,0.07610724999999974,82.0,0.08862179166666095
547,69.0,0.07597124999999494,82.0,0.08855379166666921
548,68.0,0.0759032500000032,82.0,0.08845416666666495
549,64.0,0.07583683333333369,83.0,0.08852137499999202
550,63.0,0.07583683333332658,83.0,0.08892691666666508
551,73.0,0.07617441666666736,84.0,0.08937124999999924
552,72.0,0.07658416666666312,84.0,0.08978487499999233
553,69.0,0.07692874999999333,84.0,0.09027116666667467
554,68.0,0.07734525000000758,85.0,0.09069129166666556
555,76.0,0.07769483333333227,85.0,0.09118754166666321
556,75.0,0.07811974999999904,85.0,0.09262295833333667
557,80.0,0.07855191666666883,93.0,0.09849729166666776
558,56.0,0.3377049999999997,100.0,0.08442624999999992
559,13.0,0.2573062499999992,91.0,0.0977579999999989
560,61.0,0.0977579999999989,113.0,0.34356400000000065
561,28.0,0.0,90.0,2.625
562,19.0,2.625,90.0,0.45112799999999975
563,19.0,0.45112799999999975,90.0,3.178808000000001
564,40.0,1.589404,90.0,1.589404000000001
565,28.0,1.589404000000001,72.0,0.1855780833333336
566,28.0,0.1855780833333336,65.0,3.1128754166666672
567,30.0,0.1919099166666669,79.0,5.9209655
568,36.0,0.19869874999999926,81.0,5.722266750000001
569,40.0,0.2047837500000007,85.0,5.517483
570,39.0,2.5174830000000004,64.0,3.0
571,25.0,3.0,52.0,0.12520875000000053
572,32.0,0.12520875000000053,29.0,0.12520874999999876
573,40.0,0.12520874999999876,26.0,0.12500766666666685
574,20.0,0.12500766666666685,33.0,0.12460550000000126
575,37.0,0.15672349999999824,37.0,0.1597785000000016
576,35.0,0.1597785000000016,33.0,0.14380065000000286
577,54.0,0.1597785000000016,60.0,0.3195570000000032
578,23.0,0.1597785000000016,33.0,0.1597785000000016
579,49.0,0.1597785000000016,60.0,0.31194750000000226
580,47.0,0.2079650000000015,51.0,0.2079650000000015
581,34.0,0.10398250000000075,35.0,0.15597375000000113
582,49.0,0.10398250000000075,51.0,0.2079650000000015
583,35.0,0.05199125000000038,35.0,0.15597375000000113
584,47.0,0.15597375000000113,58.0,0.21408700000000636
585,35.0,0.16056525000000477,35.0,0.14450872499999434
586,40.0,0.05352175000000159,53.0,0.22078333333331557
587,35.0,0.10704349999998897,39.0,0.170609749999997
588,42.0,0.1137398333333266,53.0,0.2274796666666674
589,23.0,0.056869916666670406,35.0,0.170609749999997
590,59.0,0.170609749999997,73.0,1.2752389999999991
591,35.0,0.16056525000000477,39.0,0.16056524999999056
592,37.0,0.16056524999999056,39.0,0.16056525000000477
593,35.0,0.16056525000000477,39.0,0.16056525000000477
594,61.0,0.16056525000000477,68.0,0.6329779999999943
595,35.0,0.15824449999999501,40.0,0.15824450000000923
596,37.0,0.15824450000000923,40.0,0.15824449999999501
597,35.0,0.15824449999999501,41.0,0.15824449999999501
598,63.0,0.15824449999999501,73.0,1.2622590000000145
599,35.0,0.15824450000000923,40.0,0.15824449999999501
600,37.0,0.15824449999999501,41.0,0.15824449999999501
601,35.0,0.15824449999999501,41.0,0.15824450000000923
602,64.0,0.15824450000000923,75.0,0.4679212500000034
603,35.0,0.15597375000000113,44.0,0.15597375000000113
604,37.0,0.15597375000000113,44.0,0.15597375000000113
605,66.0,0.15597375000000113,73.0,0.16135975000000258
606,68.0,0.16135975000000258,78.0,1.2659560000000027
607,35.0,0.15824449999999501,42.0,0.15824450000000923
608,37.0,0.15824450000000923,42.0,0.15824449999999501
609,35.0,0.15824449999999501,42.0,0.15824449999999501
610,61.0,0.15824449999999501,73.0,0.6329780000000085
611,35.0,0.15824450000000923,46.0,0.15824449999999501
612,37.0,0.15824449999999501,46.0,0.15824449999999501
613,35.0,0.15824449999999501,46.0,0.15824450000000923
614,63.0,0.15824450000000923,78.0,0.6329779999999943
615,35.0,0.15824449999999501,46.0,0.15824450000000923
616,28.0,0.12605050000001938,42.0,0.12875525000001176
617,58.0,0.12875525000001176,68.0,0.12875524999998333
618,57.0,0.12875524999998333,69.0,0.12284999999999968
619,51.0,0.12284999999999968,62.0,0.12284999999999968
620,30.0,0.12284999999999968,46.0,0.12764874999999165
621,39.0,0.12764874999999165,44.0,0.12764875000002007
622,59.0,0.12764875000002007,68.0,0.12460550000000126
623,58.0,0.12460550000000126,62.0,0.12460550000000126
624,32.0,0.12460550000000126,42.0,0.12579675000000634
625,56.0,0.12579675000000634,61.0,0.12579675000000634
626,54.0,0.12579675000000634,63.0,0.12284999999999968
627,46.0,0.12284999999999968,52.0,0.12284999999999968
628,34.0,0.12284999999999968,40.0,0.12764874999999165
629,42.0,0.12764874999999165,39.0,0.12764875000002007
630,54.0,0.12764875000002007,67.0,0.12396699999999328
631,45.0,0.12396699999999328,59.0,0.12396699999999328
632,33.0,0.12396699999999328,41.0,0.12711874999999395
633,42.0,0.12711874999999395,42.0,0.12711874999999395
634,54.0,0.12711874999999395,62.0,0.12448125000000232
635,44.0,0.12448125000000232,56.0,0.12448125000000232
636,32.0,0.12448125000000232,42.0,0.1428572499999916
637,42.0,0.1428572499999916,41.0,0.14285725000002003
638,52.0,0.14285725000002003,68.0,0.12552299999998695
639,49.0,0.12552299999998695,59.0,0.12552300000001537
640,37.0,0.12552300000001537,47.0,0.12931025000000318
641,51.0,0.12931025000000318,67.0,0.12931025000000318
642,52.0,0.12931025000000318,68.0,0.12605049999999096
643,49.0,0.12605049999999096,60.0,0.12605050000001938
644,37.0,0.12605050000001938,48.0,0.12875525000001176
645,20.0,0.12875525000001176,48.0,0.12875524999998333
646,52.0,0.12875524999998333,68.0,0.12605049999999096
647,49.0,0.12605049999999096,60.0,0.12605050000001938
648,37.0,0.12605050000001938,48.0,0.12931025000000318
649,51.0,0.12931025000000318,68.0,0.12931025000000318
650,52.0,0.12931025000000318,68.0,0.12552299999998695
651,49.0,0.12552299999998695,60.0,0.12552300000001537
652,37.0,0.12552300000001537,48.0,0.1282052500000077
653,20.0,0.1282052500000077,48.0,0.1282052499999793
654,52.0,0.1282052499999793,68.0,0.12345675000000256
655,49.0,0.12345675000000256,67.0,0.12345675000000256
656,37.0,0.12345675000000256,48.0,0.12552299999998695
657,44.0,0.16398833333332163,67.0,0.08199416666667503
658,48.0,0.16398833333335006,59.0,0.07846216666666805
659,48.0,0.1569243333333361,62.0,0.15616466666665474
660,47.0,0.15616466666665474,58.0,0.07808233333335579
661,57.0,0.15616466666668316,52.0,0.07808233333332737
662,57.0,0.15616466666665474,55.0,0.15616466666668316
663,56.0,0.15616466666668316,52.0,0.07808233333332737
664,60.0,0.15616466666665474,52.0,0.07808233333332737
665,60.0,0.15616466666668316,55.0,0.15616466666665474
666,59.0,0.15616466666665474,51.0,0.07808233333332737
667,69.0,0.15616466666665474,46.0,0.07808233333335579
668,69.0,0.15616466666668316,49.0,0.15616466666665474
669,68.0,0.15616466666665474,46.0,0.07808233333332737
670,60.0,0.15616466666668316,55.0,0.07808233333332737
671,60.0,0.15616466666665474,59.0,0.15616466666665474
672,59.0,0.15616466666665474,56.0,0.07808233333335579
673,57.0,0.15807600000002253,56.0,0.07999366666666674
674,57.0,0.15998733333333348,59.0,0.16235100000000102
675,56.0,0.16235100000000102,55.0,0.08117550000000051
676,48.0,0.16235100000000102,56.0,0.07808233333332737
677,48.0,0.15616466666665474,59.0,0.16109533333332138
678,47.0,0.16109533333332138,56.0,0.08054766666668911
679,45.0,0.16458833333336997,62.0,0.08404066666665244
680,45.0,0.1680813333333333,59.0,0.16235100000000102
681,46.0,0.16235100000000102,49.0,0.08117550000000051
682,51.0,0.1596623333333298,56.0,0.07848683333332929
683,51.0,0.15697366666665857,59.0,0.15923566666666034
684,50.0,0.15923566666666034,48.0,0.07961783333334438
685,56.0,0.15737833333335516,56.0,0.07776049999998236
686,56.0,0.15552099999999314,59.0,0.15552099999999314
687,55.0,0.15552099999999314,52.0,0.07776050000001078
688,63.0,0.15552099999999314,56.0,0.07776050000001078
689,63.0,0.15552100000002156,59.0,0.15552099999999314
690,62.0,0.15552099999999314,51.0,0.07776049999998236
691,68.0,0.15735933333331786,55.0,0.0795988333333355
692,68.0,0.159197666666671,59.0,0.159197666666671
693,53.0,0.159197666666671,63.0,0.1591976666666426
694,59.0,0.1591976666666426,80.0,0.1586206666666783
695,56.0,0.1586206666666783,74.0,0.15730166666665468
696,62.0,0.15730166666665468,84.0,0.15617549999998914
697,59.0,0.15617549999998914,79.0,0.15506966666669086
698,60.0,0.1824316666666732,91.0,0.18380849999999782
699,48.0,0.18380849999999782,82.0,0.18518533333332243
700,20.0,0.0925926666666328,59.0,0.09259266666668964
701,56.0,0.09259266666668964,92.0,0.18604666666664116
702,45.0,0.18604666666664116,86.0,0.18826150000001007
703,51.0,0.18826150000001007,85.0,0.19047633333332215
704,39.0,0.19047633333332215,78.0,0.18518533333332243
705,44.0,0.18518533333332243,81.0,0.18385691666668436
706,44.0,0.18385691666668436,73.0,0.18348633333334874
707,45.0,0.18348633333334874,86.0,0.2756140833333234
708,42.0,0.13682591666662347,69.0,0.1387881666666999
709,40.0,0.1387881666666999,68.0,0.14081641666666656
710,38.0,0.14081641666666656,59.0,0.1505352499999617
711,50.0,0.1505352499999617,68.0,0.1361779999999726
712,42.0,0.1361779999999726,62.0,0.13617800000002944
713,33.0,0.13617800000002944,39.0,0.140818749999994
714,43.0,0.140818749999994,66.0,0.140818749999994
715,45.0,0.140818749999994,69.0,0.1361779999999726
716,54.0,0.1361779999999726,67.0,0.13617800000002944
717,38.0,0.13617800000002944,42.0,0.14013449999998784
718,30.0,0.14013449999998784,44.0,0.14013449999998784
719,57.0,0.14013449999998784,72.0,0.1361779999999726
720,50.0,0.1361779999999726,66.0,0.13617800000002944
721,42.0,0.13617800000002944,44.0,0.13945699999999306
722,52.0,0.13945699999999306,70.0,0.13945699999999306
723,54.0,0.13945699999999306,74.0,0.13333325000002105
724,62.0,0.13333325000002105,70.0,0.1333332499999642
725,45.0,0.1333332499999642,44.0,0.1351352500000189
726,38.0,0.1351352500000189,44.0,0.13513524999996207
727,66.0,0.13513524999996207,79.0,0.1315789999999879
728,57.0,0.1315789999999879,74.0,0.1315789999999879
729,50.0,0.1315789999999879,48.0,0.13452925000001414
730,61.0,0.13452925000001414,75.0,0.13452925000001414
731,62.0,0.13452925000001414,80.0,0.1310042499999895
732,69.0,0.1310042499999895,75.0,0.13337666666666337
733,54.0,0.13337666666666337,51.0,0.1381215000000111
734,45.0,0.1381215000000111,52.0,0.1395350000000235
735,61.0,0.1395350000000235,89.0,0.18851933333337456
736,37.0,0.14285725000002003,56.0,0.13698625000000675
737,70.0,0.04566208333335453,79.0,0.18264833333330444
738,46.0,0.09132416666665222,56.0,0.13698625000000675
739,60.0,0.15670299999999315,56.0,0.07835149999999658
740,60.0,0.15670300000005,59.0,0.15670299999999315
741,59.0,0.15670299999999315,51.0,0.07835149999999658
742,65.0,0.1585633333333476,55.0,0.08021183333329418
743,65.0,0.1604236666666452,59.0,0.1604236666666452
744,50.0,0.1604236666666452,63.0,0.16042366666670205
745,56.0,0.16042366666670205,80.0,0.15983766666670363
746,53.0,0.15983766666670363,74.0,0.15850449999999228
747,59.0,0.15850449999999228,84.0,0.15737050000001318
748,56.0,0.15737050000001318,79.0,0.15625700000003917
749,62.0,0.15625700000003917,89.0,0.1546109999999885
750,59.0,0.1546109999999885,85.0,0.15588633333339885
751,65.0,0.15588633333339885,92.0,0.1571776666666551
752,62.0,0.1571776666666551,86.0,0.15831600000001345
753,68.0,0.15831600000001345,94.0,0.16654758333328346
754,71.0,0.16654758333328346,90.0,0.17035766666668906
755,72.0,0.17035766666668906,101.0,0.16768666666666832
756,48.0,0.16768666666666832,77.0,0.1640679999999861
757,48.0,0.1640679999999861,77.0,0.16242100000005166
758,48.0,0.16242100000005166,77.0,0.16439266666662888
759,48.0,0.16439266666662888,75.0,0.1596933333333368
760,48.0,0.1596933333333368,75.0,0.16199566666665532
761,48.0,0.16199566666665532,80.0,0.16357233333332033
762,48.0,0.16357233333332033,77.0,0.15893199999999297
763,48.0,0.15893199999999297,77.0,0.16199566666665532
764,48.0,0.16199566666665532,81.0,0.16044933333336076
765,48.0,0.16044933333336076,79.0,0.15383433333335006
766,48.0,0.15383433333335006,79.0,0.15844674999999597
767,48.0,0.15844674999999597,80.0,0.08260366666667096
768,49.0,0.16289791666662268,81.0,0.07798483333334616
769,49.0,0.15596966666669232,82.0,0.08099783333335608
770,49.0,0.16199566666665532,83.0,0.07872149999997191
771,49.0,0.15744300000000067,84.0,0.07655799999997726
772,49.0,0.15311600000001135,85.0,0.08061266666663869
773,49.0,0.16122533333333422,86.0,0.08178616666668859
774,49.0,0.16357233333332033,88.0,0.07726183333335257
775,49.0,0.1545236666666483,90.0,0.07984666666663998
776,49.0,0.1596933333333368,91.0,0.07984666666663998
777,49.0,0.1596933333333368,92.0,0.07595500000002176
778,49.0,0.15234375,93.0,0.07682737499999348
779,49.0,0.1541806666666048,102.0,0.08800500000000966
780,54.0,0.08893299999999993,45.0,0.11756283333333428
781,52.0,0.08832308333333394,43.0,0.08771925000000014
782,35.0,0.029239750000000342,28.0,0.11704474999999892
783,54.0,0.058479499999999796,45.0,0.08797699999999953
784,40.0,0.058565249999999125,30.0,0.11825699999999983
785,52.0,0.029411750000000403,43.0,0.08884524999999943
786,51.0,0.08884524999999943,44.0,0.11738924999999956
787,52.0,0.08806374999999989,46.0,0.08823574999999995
788,40.0,0.02932549999999967,28.0,0.11790725000000002
789,55.0,0.058910250000000275,49.0,0.0884955000000005
790,35.0,0.058996999999999744,27.0,0.1343495000000008
791,59.0,0.02949850000000076,47.0,0.10485100000000003
792,28.0,0.10485100000000003,27.0,0.13042616666666706
793,47.0,0.10074550000000038,45.0,0.08885233333333353
794,35.0,0.02968066666666669,30.0,0.11808191666666712
795,48.0,0.059171666666666844,49.0,0.08823574999999995
796,40.0,0.058910250000000275,34.0,0.11713299999999993
797,47.0,0.02932549999999967,45.0,0.08780750000000026
798,46.0,0.08780750000000026,46.0,0.11799400000000038
799,47.0,0.0884955000000005,48.0,0.08815000000000062
800,40.0,0.029498499999999872,34.0,0.11713100000000054
801,52.0,0.058651500000000745,50.0,0.08763399999999955
802,35.0,0.058479499999999796,33.0,0.11747699999999917
803,55.0,0.02915449999999975,51.0,0.08832249999999942
804,54.0,0.08832249999999942,54.0,0.11869699999999916
805,52.0,0.08884624999999957,51.0,0.0892862499999989
806,35.0,0.029850749999999593,33.0,0.11860716666666526
807,54.0,0.05943549999999931,53.0,0.08858341666666547
808,40.0,0.059171666666665956,36.0,0.11721675000000076
809,52.0,0.029411749999999515,51.0,0.08780500000000124
810,51.0,0.08780500000000124,52.0,0.11826158333333225
811,52.0,0.08841083333333266,54.0,0.08946341666666591
812,40.0,0.029850749999999593,34.0,0.11887208333333277
813,55.0,0.059612666666666314,57.0,0.08875791666666721
814,35.0,0.05925941666666645,32.0,0.13399175000000163
815,59.0,0.02949850000000076,55.0,0.10449325000000087
816,30.0,0.10449325000000087,31.0,0.13121866666666726
817,48.0,0.10107825000000048,55.0,0.09032891666666742
818,36.0,0.03014041666666678,35.0,0.12009749999999997
819,52.0,0.060188500000000644,55.0,0.08977224999999933
820,40.0,0.059908999999999324,39.0,0.11917791666666666
821,30.0,0.03352783333333065,33.0,0.13432333333333446
822,54.0,0.0670556666666684,45.0,0.10090149999999909
823,33.0,0.06726766666666606,33.0,0.13481208333332972
824,57.0,0.03363383333333303,45.0,0.1011782499999967
825,48.0,0.1011782499999967,51.0,0.1365589166666652
826,60.0,0.10207849999999752,47.0,0.10390874999999511
827,33.0,0.03448041666666768,31.0,0.1398045833333299
828,54.0,0.06942833333332743,44.0,0.1059280000000058
829,30.0,0.07037625000000247,29.0,0.14332933333334097
830,57.0,0.035551750000003324,44.0,0.10777758333333765
831,51.0,0.10777758333333765,52.0,0.14445166666666154
832,63.0,0.1138100166666618,47.0,0.10786078333332938
833,30.0,0.030641649999999743,29.0,0.1434466666666694
834,54.0,0.07184933333333277,46.0,0.107273416666672
835,33.0,0.07159733333333662,29.0,0.1424556666666632
836,57.0,0.035676083333335384,46.0,0.10677958333332782
837,50.0,0.10677958333332782,49.0,0.14147816666666557
838,62.0,0.10616991666666564,44.0,0.10568624999999798
839,33.0,0.03530824999999993,29.0,0.14051399999999603
840,54.0,0.07037799999999805,44.0,0.1050863333333325
841,30.0,0.07013599999999798,28.0,0.1395628333333363
842,57.0,0.03495033333333453,44.0,0.10461250000000177
843,50.0,0.10461250000000177,48.0,0.13909216666666424
844,62.0,0.10426108333332706,45.0,0.10473175000000623
845,30.0,0.034831083333337176,26.0,0.14015766666667417
846,54.0,0.06990066666666905,42.0,0.1054460000000006
847,33.0,0.07025700000000512,27.0,0.14123633333333174
848,57.0,0.035188999999995474,42.0,0.10604733333333627
849,49.0,0.10604733333333627,47.0,0.1424556666666632
850,61.0,0.10677958333333493,43.0,0.10739941666665942
851,33.0,0.03567608333332828,27.0,0.14369699999999597
852,54.0,0.07172333333333114,40.0,0.10802266666666327
853,30.0,0.07197366666666483,25.0,0.14560949999999906
854,57.0,0.03604899999999844,40.0,0.10956050000000062
855,49.0,0.10956050000000062,46.0,0.1463730833333372
856,61.0,0.10981266666667011,42.0,0.10942541666666727
857,30.0,0.036560416666667095,26.0,0.14560041666666024
858,54.0,0.07286500000000018,41.0,0.10903833333333068
859,33.0,0.07273541666666006,27.0,0.1449594999999988
860,57.0,0.036302916666670626,41.0,0.10865658333332817
861,48.0,0.10865658333332817,44.0,0.14432383333333831
862,35.0,0.2220688333333385,44.0,0.22346541666667008
863,32.0,0.22346541666667008,43.0,0.22487770833332377
864,28.0,0.22487770833332377,42.0,0.2264701666666724
865,23.0,0.2264701666666724,41.0,0.45963950000002285
866,47.0,0.22496466666667914,45.0,1.3855979166666685
867,35.0,0.2346748333333437,26.0,0.23302008333332935
868,39.0,0.23302008333332935,27.0,0.23108150000000194
869,42.0,0.23108150000000194,28.0,0.2291555000000045
870,39.0,0.2291555000000045,28.0,0.2288329999999945
871,35.0,0.2288329999999945,27.0,0.2288329999999945
872,49.0,0.2288329999999945,42.0,0.23120674999999835
873,51.0,0.08441187500000069,42.0,0.08441187500000069
874,49.0,0.08441187500000069,46.0,0.18714900000000512
875,35.0,0.06238299999999697,27.0,0.23731516666667574
876,47.0,0.12476600000000815,45.0,0.33764750000000276
877,39.0,0.11254916666666759,28.0,0.22509833333333518
878,52.0,0.22509833333333518,45.0,0.33764750000000276
879,39.0,0.22509833333333518,27.0,0.23226666666666063
880,54.0,0.11254916666666759,48.0,0.3591524999999933
881,35.0,0.11971749999999304,26.0,0.2394350000000003
882,56.0,0.2394350000000003,51.0,1.3884060000000034
883,35.0,0.2314010000000053,28.0,0.23140099999999109
884,40.0,0.23140099999999109,28.0,0.2314010000000053
885,44.0,0.2314010000000053,29.0,0.2314010000000053
886,40.0,0.2314010000000053,30.0,0.23140099999999109
887,35.0,0.23140099999999109,28.0,0.2314010000000053
888,59.0,0.2314010000000053,56.0,1.3771475000000066
889,35.0,0.22758299999999565,28.0,0.22758300000000986
890,44.0,0.22758300000000986,29.0,0.22758299999999565
891,47.0,0.22758299999999565,49.0,0.6943985000000055
892,44.0,0.22758299999999565,30.0,0.23146616666667796
893,35.0,0.23146616666667796,29.0,0.23534933333333186
894,57.0,0.23534933333333186,53.0,0.7060479999999956
895,42.0,0.23534933333333186,26.0,0.23534933333333186
896,35.0,0.23534933333333186,26.0,0.23534933333333186
897,56.0,0.23534933333333186,51.0,0.6980800000000045
898,40.0,0.2326933333333301,26.0,0.2326933333333301
899,35.0,0.2326933333333301,26.0,0.2326933333333443
900,54.0,0.2326933333333443,49.0,0.690369000000004
901,39.0,0.23012300000000607,23.0,0.23012299999999186
902,35.0,0.23012299999999186,23.0,0.23012300000000607
903,59.0,0.12476599999999394,60.0,0.35502950000000055
904,35.0,0.11834316666667632,27.0,0.23668633333332423
905,47.0,0.23668633333332423,65.0,1.453312000000011
906,30.0,0.24221866666667324,33.0,0.24221866666667324
907,35.0,0.24221866666667324,34.0,0.24221866666664482
908,39.0,0.24221866666664482,34.0,0.24221866666667324
909,35.0,0.24221866666667324,33.0,0.24221866666667324
910,30.0,0.24221866666667324,32.0,0.24221866666667324
911,49.0,0.24221866666667324,65.0,0.2258497083333566
912,51.0,0.08555191666667383,59.0,0.08458704166667985
913,49.0,0.08458704166667985,60.0,0.08348854166666797
914,30.0,0.05571075000000292,33.0,0.2344207083333174
915,51.0,0.027777791666665053,59.0,0.08241924999998673
916,49.0,0.08241924999998673,56.0,0.06211183333334702
917,51.0,0.06211183333334702,56.0,0.0621118333333186
918,49.0,0.0621118333333186,56.0,0.23858233333334056
919,48.0,0.06211183333334702,62.0,0.17647049999999354
920,49.0,0.17647049999999354,64.0,0.5389530000000207
921,34.0,0.23529400000001033,33.0,0.2416550000000086
922,30.0,0.2416550000000086,30.0,0.2480160000000069
923,51.0,0.062004000000001724,62.0,0.18601200000000517
924,47.0,0.18601200000000517,66.0,0.35100049999999783
925,30.0,0.23400033333334136,30.0,0.23400033333331294
926,35.0,0.23400033333331294,32.0,0.23400033333334136
927,63.0,0.23400033333334136,66.0,0.9262766083333247
928,35.0,0.2408186666666552,32.0,0.2408186666666836
929,30.0,0.2408186666666836,30.0,0.2408186666666552
930,28.0,0.2408186666666552,27.0,0.23803866666665385
931,61.0,0.2038206083333307,63.0,0.2038206083333307
932,35.0,0.03421805833332314,29.0,0.23803866666668227
933,59.0,0.16960255000000757,62.0,0.2038206083333307
934,40.0,0.0684361166666747,30.0,0.23803866666665385
935,55.0,0.135384491666656,61.0,0.2038206083333307
936,43.0,0.10265417499999785,31.0,0.23873683333334839
937,52.0,0.10116643333333286,59.0,0.2053006500000265
938,40.0,0.13757040000001552,30.0,0.2411686666666526
939,49.0,0.06773025000001098,58.0,0.33470402083329986
940,35.0,0.17343841666664161,29.0,0.34170491666665725
941,59.0,0.16126560416665825,55.0,0.180439312499999
942,42.0,0.180439312499999,66.0,1.362480000000005
943,30.0,0.24221866666667324,33.0,0.24221866666667324
944,33.0,0.06737183333331132,45.0,0.13431833333333998
945,48.0,0.033579583333334995,65.0,0.10073875000000498
946,43.0,0.10073875000000498,79.0,0.1346373333333304
947,55.0,0.10095141666667473,66.0,0.10116700000000378
948,26.0,0.03368591666665566,46.0,0.13507141666667621
949,47.0,0.06748108333334812,66.0,0.10138549999999213
950,31.0,0.06759033333332809,48.0,0.13551066666667566
951,50.0,0.033795166666664045,66.0,0.10171550000001162
952,47.0,0.10171550000001162,77.0,0.13605049999998187
953,59.0,0.10192783333332045,67.0,0.10269816666666998
954,31.0,0.034122666666661416,46.0,0.13760308333334592
955,50.0,0.06857550000000856,66.0,0.10370883333334291
956,26.0,0.06902758333333736,45.0,0.13872499999999377
957,55.0,0.03468125000000555,65.0,0.10404374999998822
958,47.0,0.10404374999998822,81.0,0.13562066666665373
959,59.0,0.10171550000001162,65.0,0.1017154999999832
960,28.0,0.03390516666664212,46.0,0.13562066666668215
961,51.0,0.06781033333334108,65.0,0.10160550000000512
962,33.0,0.06781033333334108,48.0,0.13518066666665618
963,52.0,0.033795166666664045,65.0,0.10138549999999213
964,45.0,0.10138549999999213,78.0,0.1351806666666846
965,57.0,0.10138550000002056,65.0,0.10116700000000378
966,33.0,0.033795166666664045,47.0,0.13474366666667947
967,51.0,0.06737183333333974,65.0,0.1010577499999954
968,28.0,0.06737183333333974,45.0,0.1346373333333304
969,52.0,0.03368591666665566,65.0,0.10095141666667473
970,44.0,0.10095141666667473,79.0,0.13431833333333998
971,56.0,0.10073875000000498,66.0,0.10084508333332565
972,28.0,0.033579583333334995,46.0,0.1346373333333304
973,51.0,0.06726549999999065,66.0,0.10105775000002382
974,33.0,0.06737183333333974,48.0,0.13496216666666783
975,52.0,0.03368591666668408,66.0,0.10127624999998375
976,45.0,0.10127624999998375,77.0,0.13529066666666267
977,57.0,0.10138549999999213,67.0,0.10203916666665691
978,33.0,0.03390516666667054,46.0,0.1368230833333257
979,51.0,0.06813399999998637,66.0,0.10326008333333903
980,28.0,0.06868908333333934,45.0,0.1390757500000177
981,52.0,0.034570999999999685,65.0,0.10450475000001802
982,44.0,0.10450475000001802,81.0,0.13737199999999916
983,56.0,0.10302899999999227,65.0,0.10302900000002069
984,30.0,0.034343000000006896,46.0,0.13737199999999916
985,57.0,0.0878060000000005,59.0,0.1181696666666312
986,56.0,0.08849608333329684,56.0,0.08884566666665705
987,40.0,0.029673583333334363,36.0,0.11773733333330938
988,57.0,0.05917208333332269,59.0,0.08780500000000302
989,44.0,0.05856524999998669,39.0,0.11704575000001682
990,56.0,0.02923975000001633,57.0,0.0878060000000005
991,55.0,0.0878060000000005,57.0,0.11808133333332194
992,56.0,0.08858283333333361,59.0,0.0884954999999934
993,44.0,0.029498499999988326,37.0,0.11799400000001015
994,59.0,0.05899700000000507,63.0,0.0884954999999934
995,40.0,0.05899700000000507,34.0,0.139743999999979
996,64.0,0.029498499999988326,59.0,0.11024549999999067
997,59.0,0.11024549999999067,58.0,0.12231754166668907
998,57.0,0.09307779166670116,53.0,0.08754874999999629
999,40.0,0.029239749999987907,36.0,0.11670325000000048
1000,59.0,0.05830900000000838,58.0,0.0878060000000005
1001,45.0,0.0583942499999921,39.0,0.11843875000002413
1002,57.0,0.029411750000008396,54.0,0.08902700000001573
1003,56.0,0.08902700000001573,55.0,0.11896399999997698
1004,57.0,0.08946549999998865,56.0,0.0882357499999955
1005,45.0,0.029498499999988326,40.0,0.11738825000000475
1006,60.0,0.05873725000000718,59.0,0.0882368333333261
1007,40.0,0.058650999999997566,38.0,0.118783250000007
1008,64.0,0.029585833333328537,60.0,0.08919741666667846
1009,60.0,0.08919741666667846,63.0,0.11791141666662952
1010,59.0,0.08858591666663074,59.0,0.08797649999999635
1011,33.0,0.029325499999998783,38.0,0.11713100000000054
1012,60.0,0.058650999999997566,62.0,0.08763450000000716
1013,35.0,0.058480000000002974,41.0,0.11730349999999135
1014,59.0,0.02915450000000419,60.0,0.08814899999998715
1015,58.0,0.08814899999998715,60.0,0.11764700000000516
1016,59.0,0.08823525000002519,62.0,0.08823524999999677
1017,35.0,0.029411749999979975,39.0,0.11764700000000516
1018,63.0,0.05882350000001679,66.0,0.08823524999999677
1019,33.0,0.05882349999998837,37.0,0.14856349999999452
1020,66.0,0.029411750000008396,63.0,0.11915174999998612
1021,59.0,0.11915174999998612,69.0,0.12212379166666665
1022,60.0,0.09192870833334155,64.0,0.09048708333335753
1023,35.0,0.0301950833333251,39.0,0.12029800000001956
1024,59.0,0.06029200000003243,67.0,0.08991749999998433
1025,40.0,0.060005999999987125,43.0,0.1193699166666704
1026,47.0,0.09541975000001912,41.0,0.09541974999996228
1027,35.0,0.09541974999996228,30.0,0.09541975000001912
1028,42.0,0.09541975000001912,34.0,0.09753549999999223
1029,40.0,0.09753549999999223,30.0,0.09753549999999223
1030,47.0,0.09753549999999223,39.0,0.09753549999999223
1031,35.0,0.09753549999999223,35.0,0.09753550000004907
1032,30.0,0.09753550000004907,57.0,0.7696741666666185
1033,40.0,0.09692424999997229,33.0,0.09692425000002913
1034,47.0,0.09692425000002913,41.0,0.09692424999997229
1035,35.0,0.09692424999997229,30.0,0.09692425000002913
1036,42.0,0.09692425000002913,37.0,0.09571791666661511
1037,40.0,0.09571791666661511,32.0,0.09541975000001912
1038,47.0,0.09541975000001912,41.0,0.09541975000001912
1039,35.0,0.09541975000001912,32.0,0.09541974999996228
1040,32.0,0.09541974999996228,56.0,0.3870969999999829
1041,40.0,0.09677425000000994,33.0,0.09677425000000994
1042,47.0,0.09677425000000994,41.0,0.0967742499999531
1043,35.0,0.0967742499999531,30.0,0.09677425000000994
1044,28.0,0.09677425000000994,48.0,0.4026850000000195
1045,40.0,0.10067125000000487,30.0,0.10067125000000487
1046,47.0,0.10067125000000487,39.0,0.10067125000000487
1047,35.0,0.10067125000000487,35.0,0.10067125000000487
1048,23.0,0.10067125000000487,53.0,1.6592141666666862
1049,40.0,0.10452950000001238,29.0,0.10452950000001238
1050,47.0,0.10452950000001238,35.0,0.10452949999995553
1051,32.0,0.10452949999995553,37.0,0.10452950000001238
1052,42.0,0.10452950000001238,44.0,0.10171574999998256
1053,40.0,0.10171574999998256,28.0,0.10273975000001201
1054,47.0,0.10273975000001201,36.0,0.10273975000001201
1055,32.0,0.10273975000001201,37.0,0.10273975000001201
1056,42.0,0.10273975000001201,43.0,0.10273974999995517
1057,40.0,0.10273974999995517,29.0,0.10273975000001201
1058,47.0,0.10273975000001201,37.0,0.10273975000001201
1059,32.0,0.10273975000001201,37.0,0.10273975000001201
1060,42.0,0.10273975000001201,45.0,0.10551716666668653
1061,40.0,0.10551716666668653,27.0,0.10489499999999907
1062,47.0,0.10489499999999907,36.0,0.10489499999999907
1063,32.0,0.10489499999999907,31.0,0.10489499999999907
1064,11.0,0.10489499999999907,50.0,1.8578114166667206
1065,42.0,0.112099575000002,29.0,0.10676150000000462
1066,47.0,0.10142342500000723,35.0,0.10676150000000462
1067,49.0,0.2644805000000048,44.0,0.25485127499999294
1068,49.0,0.2682645000000008,46.0,0.2681593500000048
1069,49.0,0.28227300000000355,47.0,0.2681593499999906
1070,30.0,0.28227300000000355,53.0,0.26952925000000505
1071,54.0,0.2837150000000008,60.0,0.2614680249999992
1072,53.0,0.2752294999999947,57.0,0.25485127499999294
1073,56.0,0.2682645000000008,62.0,0.2494966000000005
1074,54.0,0.2626280000000065,58.0,0.2681593500000048
1075,50.0,0.28227300000000355,59.0,0.2681593499999906
1076,54.0,0.28227299999998934,62.0,1.9423625000000015
1077,49.0,0.2837150000000008,41.0,0.2614680249999992
1078,49.0,0.2752294999999947,42.0,0.2494966000000005
1079,49.0,0.2626280000000065,44.0,0.25890255000000195
1080,49.0,0.2725290000000058,46.0,0.2681593500000048
1081,49.0,0.28227300000000355,47.0,0.2681593499999906
1082,30.0,0.28227299999998934,53.0,0.26952925000000505
1083,54.0,0.2837150000000008,51.0,0.2614680249999992
1084,53.0,0.2752294999999947,48.0,0.25125647500000525
1085,56.0,0.2644805000000048,52.0,0.25125647499999104
1086,54.0,0.26448049999999057,49.0,0.2681593500000048
1087,50.0,0.28227300000000355,50.0,0.2681593499999906
1088,54.0,0.28227299999998934,47.0,3.2992263499999126
1089,49.0,0.2837150000000008,28.0,0.2614680249999992
1090,49.0,0.2752294999999947,29.0,0.2576385750000014
1091,49.0,0.271198499999997,30.0,0.25890255000000195
1092,49.0,0.2725290000000058,31.0,0.26399384166666096
1093,49.0,0.27807834166665657,33.0,0.2648237166666405
1094,49.0,0.27877721666664,34.0,0.26163696666665714
1095,49.0,0.2752116166666525,34.0,0.25675697500000183
1096,49.0,0.2702704999999952,37.0,0.2522121749999968
1097,49.0,0.2654864999999944,39.0,0.25890255000000195
1098,49.0,0.2725290000000058,39.0,0.26318609166665397
1099,49.0,0.2772705916666638,42.0,0.2648460833332962
1100,49.0,0.278930583333306,43.0,0.26627376666665725
1101,49.0,0.280162666666655,42.0,0.26174795833331643
1102,49.0,0.27544658333331995,41.0,0.25723057500000834
1103,49.0,0.2706835000000041,39.0,0.2572491250000013
1104,49.0,0.27088550000000566,39.0,0.2615576833333222
1105,49.0,0.27544658333331995,36.0,0.26586083333333477
1106,49.0,0.2799453333333304,35.0,0.26952925000000505
1107,49.0,0.2837150000000008,34.0,0.2614680249999992
1108,62.0,0.0879764999999999,75.0,0.0879764999999999
1109,58.0,0.0879764999999999,78.0,0.0879764999999999
1110,50.0,0.0879764999999999,74.0,0.0879764999999999
1111,53.0,0.0879764999999999,86.0,0.0879764999999999
1112,50.0,0.0879764999999999,75.0,0.0879764999999999
1113,46.0,0.0879764999999999,76.0,0.0879764999999999
1114,38.0,0.0879764999999999,74.0,0.0879764999999999
1115,41.0,0.0879764999999999,83.0,0.0879764999999999
1116,38.0,0.0879764999999999,73.0,0.0879764999999999
1117,34.0,0.0879764999999999,76.0,0.0879764999999999
1118,26.0,0.0879764999999999,71.0,0.09708750000000066
1119,27.0,0.09708750000000066,96.0,2.779122749999999
1120,29.0,0.0864552500000002,76.0,0.0864552500000002
1121,34.0,0.0864552500000002,73.0,0.0864552500000002
1122,41.0,0.0864552500000002,76.0,0.0864552500000002
1123,43.0,0.0864552500000002,77.0,0.0864552500000002
1124,41.0,0.0864552500000002,70.0,0.0864552500000002
1125,46.0,0.0864552500000002,75.0,0.0864552500000002
1126,53.0,0.0864552500000002,72.0,0.08645524999999665
1127,55.0,0.08645524999999665,77.0,0.0864552500000002
1128,53.0,0.0864552500000002,72.0,0.0864552500000002
1129,58.0,0.0864552500000002,74.0,0.0864552500000002
1130,65.0,0.0864552500000002,72.0,0.0864552500000002
1131,67.0,0.0864552500000002,80.0,0.0864552500000002
1132,65.0,0.0864552500000002,72.0,0.0864552500000002
1133,70.0,0.0864552500000002,74.0,0.0864552500000002
1134,77.0,0.0864552500000002,72.0,0.0864552500000002
1135,79.0,0.0864552500000002,78.0,0.0864552500000002
1136,75.0,0.0864552500000002,69.0,0.0864552500000002
1137,70.0,0.0864552500000002,73.0,0.0864552500000002
1138,63.0,0.0864552500000002,69.0,0.0864552500000002
1139,67.0,0.0864552500000002,78.0,0.0864552500000002
1140,63.0,0.0864552500000002,68.0,0.0864552500000002
1141,58.0,0.0864552500000002,71.0,0.0864552500000002
1142,51.0,0.0864552500000002,65.0,0.0864552500000002
1143,55.0,0.0864552500000002,75.0,0.0864552500000002
1144,51.0,0.0864552500000002,66.0,0.08645524999999665
1145,46.0,0.08645524999999665,69.0,0.0864552500000002
1146,39.0,0.0864552500000002,64.0,0.0864552500000002
1147,43.0,0.0864552500000002,71.0,0.0864552500000002
1148,39.0,0.0864552500000002,64.0,0.0864552500000002
1149,67.0,0.0867052500000014,63.0,0.0867052500000014
1150,20.0,0.0867052500000014,78.0,1.3953479999999985
1151,67.0,0.0872092500000008,65.0,0.0872092500000008
1152,63.0,0.0872092500000008,67.0,0.0872092500000008
1153,56.0,0.0872092500000008,67.0,0.0872092500000008
1154,62.0,0.0872092500000008,74.0,0.08720924999999369
1155,55.0,0.08720924999999369,64.0,0.0872092500000008
1156,51.0,0.0872092500000008,66.0,0.0872092500000008
1157,44.0,0.0872092500000008,61.0,0.0872092500000008
1158,50.0,0.0872092500000008,73.0,0.0872092500000008
1159,43.0,0.0872092500000008,66.0,0.0872092500000008
1160,39.0,0.0872092500000008,61.0,0.0872092500000008
1161,32.0,0.0872092500000008,62.0,0.0872092500000008
1162,36.0,0.0872092500000008,74.0,0.0872092500000008
1163,31.0,0.0872092500000008,60.0,0.08720924999999369
1164,27.0,0.08720924999999369,64.0,0.0872092500000008
1165,20.0,0.0872092500000008,61.0,0.0872092500000008
1166,14.0,0.0872092500000008,84.0,1.3953479999999985
1167,20.0,0.0872092500000008,65.0,0.0872092500000008
1168,26.0,0.0872092500000008,68.0,0.0872092500000008
1169,29.0,0.0872092500000008,64.0,0.0872092500000008
1170,36.0,0.0872092500000008,77.0,0.0872092500000008
1171,32.0,0.0872092500000008,63.0,0.0872092500000008
1172,38.0,0.0872092500000008,68.0,0.08720924999999369
1173,41.0,0.08720924999999369,66.0,0.0872092500000008
1174,48.0,0.0872092500000008,74.0,0.0872092500000008
1175,44.0,0.0872092500000008,64.0,0.0872092500000008
1176,50.0,0.0872092500000008,68.0,0.0872092500000008
1177,53.0,0.0872092500000008,63.0,0.0872092500000008
1178,60.0,0.0872092500000008,74.0,0.0872092500000008
1179,56.0,0.0872092500000008,64.0,0.0872092500000008
1180,62.0,0.0872092500000008,68.0,0.0872092500000008
1181,65.0,0.0872092500000008,64.0,0.08720924999999369
1182,19.0,0.08720924999999369,85.0,0.6916420000000016
1183,65.0,0.0864552500000002,65.0,0.0864552500000002
1184,62.0,0.0864552500000002,68.0,0.0864552500000002
1185,55.0,0.0864552500000002,65.0,0.0864552500000002
1186,58.0,0.0864552500000002,75.0,0.0864552500000002
1187,53.0,0.0864552500000002,65.0,0.0864552500000002
1188,50.0,0.0864552500000002,68.0,0.0864552500000002
1189,43.0,0.0864552500000002,64.0,0.0864552500000002
1190,74.0,0.0862070000000017,68.0,0.0862070000000017
1191,31.0,0.0862070000000017,88.0,0.693641999999997
1192,74.0,0.0867052499999943,69.0,0.0867052500000085
1193,71.0,0.0867052500000085,71.0,0.0867052499999943
1194,62.0,0.0867052499999943,65.0,0.0867052500000085
1195,67.0,0.0867052500000085,79.0,0.0867052499999943
1196,62.0,0.0867052499999943,66.0,0.0867052499999943
1197,59.0,0.0867052499999943,69.0,0.0867052500000085
1198,50.0,0.0867052500000085,62.0,0.0867052499999943
1199,55.0,0.0867052499999943,75.0,0.0867052500000085
1200,50.0,0.0867052500000085,62.0,0.0867052499999943
1201,47.0,0.0867052499999943,65.0,0.0867052499999943
1202,38.0,0.0867052499999943,60.0,0.0867052500000085
1203,43.0,0.0867052500000085,70.0,0.0867052499999943
1204,38.0,0.0867052499999943,59.0,0.0867052500000085
1205,35.0,0.0867052500000085,62.0,0.0867052499999943
1206,26.0,0.0867052499999943,55.0,0.09146350000000325
1207,17.0,0.09146350000000325,65.0,1.3793119999999988
1208,29.0,0.0862070000000017,50.0,0.0862070000000017
1209,36.0,0.0862070000000017,54.0,0.0862070000000017
1210,39.0,0.0862070000000017,49.0,0.0862070000000017
1211,44.0,0.0862070000000017,62.0,0.08620699999998749
1212,41.0,0.08620699999998749,50.0,0.0862070000000017
1213,48.0,0.0862070000000017,54.0,0.0862070000000017
1214,51.0,0.0862070000000017,52.0,0.0862070000000017
1215,56.0,0.0862070000000017,63.0,0.0862070000000017
1216,53.0,0.0862070000000017,51.0,0.0862070000000017
1217,60.0,0.0862070000000017,55.0,0.0862070000000017
1218,63.0,0.0862070000000017,52.0,0.0862070000000017
1219,68.0,0.0862070000000017,63.0,0.08620699999998749
1220,65.0,0.08620699999998749,53.0,0.0862070000000017
1221,72.0,0.0862070000000017,56.0,0.0862070000000017
1222,75.0,0.0862070000000017,53.0,0.0862070000000017
1223,22.0,0.0862070000000017,67.0,1.3829252499999996
1224,74.0,0.0862070000000017,53.0,0.0862070000000017
1225,70.0,0.0862070000000017,57.0,0.0862070000000017
1226,65.0,0.0862070000000017,52.0,0.0862070000000017
1227,68.0,0.0862070000000017,63.0,0.08620699999998749
1228,65.0,0.08620699999998749,50.0,0.0862070000000017
1229,58.0,0.0862070000000017,56.0,0.0862070000000017
1230,53.0,0.0862070000000017,51.0,0.0862070000000017
1231,54.0,0.12875525000000465,56.0,0.14354074999999966
1232,54.0,0.14354074999999966,59.0,0.6474825000000024
1233,40.0,0.10791375000000158,38.0,0.10791375000000158
1234,42.0,0.10791375000000158,42.0,0.10791374999999448
1235,47.0,0.10791374999999448,45.0,0.10791375000000158
1236,42.0,0.10791375000000158,41.0,0.10791375000000158
1237,40.0,0.10791375000000158,38.0,0.10791375000000158
1238,59.0,0.10791375000000158,64.0,0.8108100000000036
1239,39.0,0.10135125000000045,37.0,0.10135125000000045
1240,42.0,0.10135125000000045,40.0,0.10135125000000045
1241,47.0,0.10135125000000045,44.0,0.10135125000000045
1242,42.0,0.10135125000000045,41.0,0.10135125000000045
1243,39.0,0.10135125000000045,39.0,0.10135125000000045
1244,52.0,0.10135125000000045,55.0,1.409974499999997
1245,40.0,0.10135125000000045,37.0,0.10135125000000045
1246,58.0,0.10135125000000045,60.0,0.2027024999999938
1247,49.0,0.10135124999999334,42.0,0.10135125000000045
1248,56.0,0.10135125000000045,59.0,0.20978999999999814
1249,40.0,0.10489499999999907,39.0,0.10489499999999907
1250,58.0,0.10489499999999907,60.0,0.20979000000000525
1251,40.0,0.10489499999999907,36.0,0.10489500000000618
1252,56.0,0.10489500000000618,59.0,0.42015425000000306
1253,46.0,0.12765950000000004,40.0,0.12765950000000004
1254,42.0,0.12765950000000004,40.0,0.164835250000003
1255,54.0,0.164835250000003,56.0,0.16483524999999588
1256,63.0,0.16483524999999588,56.0,1.5171521749999854
1257,39.0,0.11009199999999453,40.0,0.10929000000000144
1258,42.0,0.10929000000000144,44.0,0.10849950000000064
1259,47.0,0.10849950000000064,45.0,0.10772037499999954
1260,42.0,0.10772037499999954,44.0,0.1069521249999994
1261,39.0,0.1069521249999994,42.0,0.10615767499999151
1262,63.0,0.10615767499999151,64.0,0.8684404999999984
1263,35.0,0.1401869999999974,41.0,0.1401870000000045
1264,39.0,0.1401870000000045,45.0,0.1401869999999974
1265,42.0,0.1401869999999974,49.0,0.1401869999999974
1266,63.0,0.1401869999999974,63.0,0.29487197916666474
1267,35.0,0.15384625000000085,41.0,0.15384625000000085
1268,63.0,0.15384625000000085,68.0,1.0041840000000022
1269,35.0,0.12552300000000116,36.0,0.12552300000000116
1270,39.0,0.12552300000000116,39.0,0.12552300000000116
1271,42.0,0.12552300000000116,42.0,0.12552299999999406
1272,71.0,0.08849550000000761,65.0,0.176991000000001
1273,68.0,0.0884954999999934,59.0,0.08849550000000761
1274,66.0,0.08849550000000761,62.0,0.176991000000001
1275,64.0,0.0884954999999934,56.0,0.08849550000000761
1276,59.0,0.08849550000000761,58.0,0.0884954999999934
1277,56.0,0.0884954999999934,53.0,0.08849550000000761
1278,54.0,0.08849550000000761,55.0,0.0884954999999934
1279,52.0,0.0884954999999934,50.0,0.08849550000000761
1280,47.0,0.08849550000000761,52.0,0.176991000000001
1281,51.0,0.5309729999999888,55.0,0.08884525000000565
1282,52.0,0.08884525000000565,52.0,0.08919741666666425
1283,54.0,0.08919741666666425,50.0,0.08964158333333216
1284,56.0,0.08964158333333216,47.0,0.09000008333335074
1285,57.0,0.09000008333335074,45.0,0.09045249999999783
1286,59.0,0.08516548750000652,42.0,0.09081300833334183
1287,60.0,0.09613216249999823,40.0,0.21818199999999877
1288,45.0,0.21818199999999877,35.0,0.19736849999999606
1289,35.0,0.19736849999999606,31.0,0.09868425000000514
1290,60.0,0.19736850000001027,50.0,0.09027100000000132
1291,59.0,0.09027100000000132,49.0,0.08991016666668372
1292,58.0,0.08991016666668372,47.0,0.08946341666667479
1293,57.0,0.08946341666667479,46.0,0.08910908333332657
1294,56.0,0.08910908333332657,44.0,0.08867016666667382
1295,55.0,0.08867016666667382,42.0,0.0882961250000136
1296,54.0,0.0882961250000136,41.0,0.21505399999999497
1297,45.0,0.21505399999999497,32.0,0.19736849999999606
1298,35.0,0.19736849999999606,28.0,0.09868425000000514
1299,80.0,0.19736850000001027,97.0,0.8721809999999977
1300,35.0,0.4511279999999971,45.0,0.21052650000000028
1301,40.0,0.21052650000000028,53.0,0.21052650000000028
1302,78.0,0.21052650000000028,68.0,0.0867052499999943
1303,76.0,0.0867052499999943,61.0,0.0867052500000085
1304,71.0,0.0867052500000085,65.0,0.1734105000000028
1305,68.0,0.0867052499999943,59.0,0.0867052500000085
1306,66.0,0.0867052500000085,62.0,0.1734104999999886
1307,64.0,0.0867052499999943,57.0,0.0867052499999943
1308,59.0,0.0867052499999943,58.0,0.0867052500000085
1309,56.0,0.0867052500000085,53.0,0.0867052499999943
1310,54.0,0.0867052499999943,55.0,0.0867052500000085
1311,52.0,0.0867052500000085,51.0,0.0867052499999943
1312,47.0,0.0867052499999943,52.0,0.1729105000000004
1313,30.0,0.09463725000000522,74.0,0.09463725000000522
1314,45.0,0.09463725000000522,97.0,0.1829270000000065
1315,51.0,0.09146350000000325,75.0,0.09146350000000325
1316,59.0,0.09146350000000325,80.0,0.09146350000000325
1317,57.0,0.09146350000000325,84.0,0.09146350000000325
1318,63.0,0.09146350000000325,88.0,0.09146349999997483
1319,71.0,0.09146349999997483,93.0,0.09146350000000325
1320,68.0,0.09146350000000325,97.0,0.16666649999999095
1321,23.0,0.3333330000000103,68.0,0.08333324999998126
1322,32.0,0.08333324999998126,74.0,0.08333325000000968
1323,44.0,0.08333325000000968,97.0,0.1666061749999983
1324,52.0,0.08348808333335,75.0,0.0831180916666483
1325,59.0,0.0831180916666483,78.0,0.08273604999999407
1326,56.0,0.08273604999999407,75.0,0.08234225000001061
1327,64.0,0.08234225000001061,79.0,0.08198238333332597
1328,71.0,0.08198238333332597,75.0,0.08161054999999351
1329,64.0,0.08161054999999351,78.0,0.08130074999999692
1330,56.0,0.08130074999999692,75.0,0.08130074999999692
1331,59.0,0.08130074999999692,80.0,0.08130074999999692
1332,52.0,0.08130074999999692,75.0,0.08130074999999692
1333,44.0,0.08130074999999692,79.0,0.08130075000002535
1334,47.0,0.08130075000002535,75.0,0.08130074999999692
1335,40.0,0.08130074999999692,78.0,0.08130074999999692
1336,32.0,0.08130074999999692,77.0,0.08130074999999692
1337,35.0,0.08130074999999692,82.0,0.08130074999999692
1338,28.0,0.08130074999999692,79.0,0.08130074999999692
1339,20.0,0.08130074999999692,87.0,0.08130074999999692
1340,28.0,0.08130074999999692,85.0,0.08130074999999692
1341,16.0,0.08130074999999692,96.0,0.09740249999998696
1342,52.0,0.584415000000007,102.0,0.584415000000007
1343,40.0,1.7532449999999926,52.0,3.822129500000017
1344,40.0,1.1320755000000133,44.0,2.6900540000000035
1345,38.0,1.5094339999999988,57.0,0.24096399999999107
1346,40.0,0.24096399999999107,57.0,0.2409640000000195
1347,43.0,0.2409640000000195,60.0,0.23076900000000933
1348,41.0,0.23076900000000933,56.0,0.2307689999999809
1349,40.0,0.2307689999999809,56.0,0.2272725833333311
1350,43.0,0.23715400000000386,52.0,4.050710000000009
1351,40.0,0.9890115000000037,44.0,3.0616985000000057
1352,38.0,1.3186819999999955,57.0,0.23076900000000933
1353,40.0,0.23076900000000933,57.0,0.25862050000000636
1354,72.0,0.07653049999998984,71.0,0.07653049999998984
1355,71.0,0.07653049999998984,71.0,0.07653050000001826
1356,67.0,0.07653050000001826,77.0,0.07653049999998984
1357,62.0,0.07653049999998984,71.0,0.07653049999998984
1358,60.0,0.07653049999998984,71.0,0.07653050000001826
1359,59.0,0.07653050000001826,71.0,0.07653049999998984
1360,55.0,0.07653049999998984,71.0,0.07653049999998984
1361,50.0,0.07653049999998984,71.0,0.07653050000001826
1362,48.0,0.07653050000001826,71.0,0.07633599999999774
1363,47.0,0.07633599999999774,72.0,0.07653049999998984
1364,43.0,0.07653049999998984,73.0,0.07675904166666214
1365,38.0,0.07675904166666214,75.0,0.07695595833331481
1366,36.0,0.07695595833331481,77.0,0.0771869999999808
1367,35.0,0.0771869999999808,78.0,0.07738616666665621
1368,31.0,0.07738616666665621,80.0,0.07761987500003897
1369,26.0,0.07761987500003897,81.0,0.07782112499998561
1370,24.0,0.07782112499998561,82.0,0.07805733333333364
1371,23.0,0.07805733333333364,84.0,0.0782609999999977
1372,19.0,0.0782609999999977,86.0,0.07849983333332489
1373,14.0,0.07849983333332489,88.0,0.07870587499996873
1374,7.0,0.07870587499996873,96.0,0.4736834999999928
1375,40.0,0.9473669999999856,65.0,4.1945470000000284
1376,40.0,1.1320755000000133,55.0,3.062471500000015
1377,38.0,1.5094339999999988,71.0,0.2666665000000137
1378,40.0,0.2666665000000137,71.0,0.26666649999998526
1379,43.0,0.26666649999998526,75.0,0.2955665000000067
1380,41.0,0.2955665000000067,70.0,0.5098522499999945
1381,40.0,0.5098522499999945,64.0,0.19642860416666963
1382,43.0,0.21428575000001615,65.0,5.228838500000023
1383,40.0,1.0588229999999896,55.0,4.170015500000034
1384,38.0,1.4117640000000051,67.0,0.2702705000000094
1385,40.0,0.2702705000000094,67.0,0.270270499999981
1386,43.0,0.270270499999981,72.0,0.2985074999999995
1387,41.0,0.2985074999999995,66.0,0.5815262500000244
1388,40.0,0.5815262500000244,57.0,0.11792447916661786
1389,40.0,0.14150937499999827,54.0,0.8493463749999819
1390,48.0,0.13888887500002056,63.0,0.36363649999998415
1391,45.0,0.36363649999998415,62.0,0.6936420000000112
1392,41.0,0.3468209999999772,57.0,0.346821000000034
1393,43.0,0.346821000000034,52.0,2.464150000000018
1394,38.0,1.1764709999999923,43.0,0.8955220000000281
1395,67.0,0.07653049999998984,77.0,0.07653049999998984
1396,62.0,0.07653049999998984,71.0,0.07653049999998984
1397,60.0,0.07653049999998984,71.0,0.07653049999998984
1398,59.0,0.07653049999998984,71.0,0.07653050000004669
1399,55.0,0.07653050000004669,71.0,0.07653049999998984
1400,50.0,0.07653049999998984,71.0,0.07653049999998984
1401,48.0,0.07653049999998984,71.0,0.07633600000002616
1402,47.0,0.07633600000002616,72.0,0.07653049999998984
1403,43.0,0.07653049999998984,73.0,0.07675904166666214
1404,38.0,0.07675904166666214,75.0,0.07695595833337165
1405,36.0,0.07695595833337165,77.0,0.07718700000003764
1406,35.0,0.07718700000003764,78.0,0.07738616666665621
1407,31.0,0.07738616666665621,80.0,0.07761987499998213
1408,26.0,0.07761987499998213,81.0,0.07782112500001404
1409,24.0,0.07782112500001404,82.0,0.07805733333333364
1410,23.0,0.07805733333333364,84.0,0.0782609999999977
1411,19.0,0.0782609999999977,86.0,0.07849983333335331
1412,14.0,0.07849983333335331,88.0,0.07870587499996873
1413,7.0,0.07870587499996873,96.0,0.4736834999999928
1414,17.0,0.9473669999999856,98.0,0.1759529999999927
1415,26.0,0.1759529999999927,73.0,0.07653049999998984
1416,32.0,0.07653049999998984,68.0,0.07653049999998984
1417,36.0,0.07653049999998984,68.0,0.07653050000004669
1418,35.0,0.07653050000004669,68.0,0.07653049999998984
1419,38.0,0.07653049999998984,73.0,0.07653049999998984
1420,44.0,0.07653049999998984,67.0,0.07653049999998984
1421,48.0,0.07653049999998984,67.0,0.07653049999998984
1422,47.0,0.07653049999998984,68.0,0.07653049999998984
1423,50.0,0.07653049999998984,72.0,0.07653050000004669
1424,56.0,0.07653050000004669,73.0,0.07653049999998984
1425,44.0,0.07653049999998984,80.0,0.15306099999997969
1426,59.0,0.07653049999998984,71.0,0.07653049999998984
1427,62.0,0.07653049999998984,71.0,0.07653049999998984
1428,68.0,0.07653049999998984,71.0,0.07653050000004669
1429,72.0,0.07653050000004669,71.0,0.07653049999998984
1430,71.0,0.07653049999998984,71.0,0.07653049999998984
1431,68.0,0.07653049999998984,77.0,0.07653049999998984
1432,62.0,0.07653049999998984,71.0,0.07653049999998984
1433,60.0,0.07653049999998984,71.0,0.07653049999998984
1434,59.0,0.07653049999998984,71.0,0.07653050000004669
1435,56.0,0.07653050000004669,71.0,0.07653049999998984
1436,52.0,0.10169500000000653,73.0,0.20339000000001306
1437,51.0,0.06779666666665207,73.0,0.06779666666665207
1438,49.0,0.06779666666665207,69.0,0.0593220833333703
1439,49.0,0.06779666666670892,89.0,0.20338999999995622
1440,48.0,0.20338999999995622,81.0,0.20339000000001306
1441,61.0,0.20339000000001306,81.0,0.20905900000002475
1442,54.0,0.20905900000002475,89.0,0.2040814999999725
1443,44.0,0.2040814999999725,74.0,0.20408150000002934
1444,45.0,0.10204075000001467,70.0,0.10204075000001467
1445,49.0,0.10204075000001467,74.0,0.2040814999999725
1446,47.0,0.06802716666663855,74.0,0.0680271666666954
1447,45.0,0.0680271666666954,71.0,0.05952377083332294
1448,45.0,0.06802716666663855,89.0,0.638864500000011
1449,56.0,0.20408150000002934,85.0,0.4347829999999817
1450,57.0,0.21739150000001928,85.0,0.21739149999996243
1451,51.0,0.21739149999996243,84.0,0.22471899999999323
1452,43.0,0.22471899999999323,68.0,0.11235950000002504
1453,44.0,0.11235950000002504,66.0,0.1123594999999682
1454,47.0,0.1123594999999682,68.0,0.09363291666670648
1455,45.0,0.07490633333333108,68.0,0.09363291666670648
1456,44.0,0.07490633333333108,66.0,0.0655430416666718
1457,32.0,0.07490633333333108,59.0,0.2127659999999878
1458,37.0,0.013297874999977921,59.0,0.19946812500000988
1459,40.0,0.013297875000034765,59.0,0.1861702499999751
1460,44.0,0.013297874999977921,59.0,0.1728723749999972
1461,54.0,0.1728723749999972,73.0,0.20547950000002402
1462,64.0,0.20547950000002402,73.0,0.2105265000000145
1463,20.0,0.2105265000000145,74.0,0.19743349999998827
1464,27.0,0.012339593750027689,74.0,0.18509390624996058
1465,36.0,0.012339593749970845,74.0,0.17275431249998974
1466,63.0,0.012339593750027689,77.0,0.16041471874996205
1467,43.0,0.16041471874996205,68.0,0.09747850000002245
1468,44.0,0.09747850000002245,66.0,0.0974784999999656
1469,47.0,0.0974784999999656,69.0,0.08123208333336152
1470,45.0,0.06498566666670058,69.0,0.08123208333330467
1471,44.0,0.06498566666664374,67.0,0.05686245833334169
1472,32.0,0.06498566666664374,60.0,0.19801999999998543
1473,37.0,0.012376249999988431,60.0,0.185643749999997
1474,40.0,0.012376249999988431,60.0,0.17326750000000857
1475,44.0,0.012376250000045275,60.0,0.1608912499999633
1476,51.0,0.1608912499999633,74.0,0.19933550000001787
1477,42.0,0.10135124999999334,41.0,0.10135125000005019
1478,39.0,0.10135125000005019,39.0,0.10135124999999334
1479,52.0,0.10135124999999334,55.0,1.4099744999999757
1480,40.0,0.10135124999999334,37.0,0.10135124999999334
1481,58.0,0.10135124999999334,60.0,0.20270249999998668
1482,49.0,0.10135124999999334,42.0,0.10135124999999334
1483,56.0,0.10135124999999334,59.0,0.20978999999999814
1484,40.0,0.10489499999999907,39.0,0.10489499999999907
1485,58.0,0.10489499999999907,60.0,0.20978999999999814
1486,40.0,0.10489499999999907,36.0,0.10489499999999907
1487,56.0,0.10489499999999907,59.0,0.42015424999999595
1488,46.0,0.12765949999999293,40.0,0.12765949999999293
1489,42.0,0.12765949999999293,40.0,0.1648352500000101
1490,54.0,0.1648352500000101,56.0,0.1648352500000101
1491,63.0,0.1648352500000101,56.0,1.5171521749999215
1492,39.0,0.1100919999999519,40.0,0.10929000000004407
1493,42.0,0.10929000000004407,44.0,0.10849949999999353
1494,47.0,0.10849949999999353,45.0,0.10772037499998532
1495,42.0,0.10772037499998532,44.0,0.10695212499996387
1496,39.0,0.10695212499996387,42.0,0.10615767500001994
1497,63.0,0.10615767500001994,64.0,0.8684404999999629
1498,35.0,0.14018700000002582,41.0,0.14018699999996898
1499,39.0,0.14018699999996898,45.0,0.14018700000002582
1500,42.0,0.14018700000002582,49.0,0.14018699999996898
1501,63.0,0.14018699999996898,63.0,0.29487197916665764
1502,35.0,0.15384625000001506,41.0,0.15384624999995822
1503,63.0,0.15384624999995822,68.0,1.0041840000000093
1504,35.0,0.12552299999998695,36.0,0.12552299999998695
1505,39.0,0.12552299999998695,39.0,0.1255230000000438
1506,42.0,0.1255230000000438,42.0,0.12552299999998695
1507,39.0,0.12552299999998695,41.0,0.12552299999998695
1508,35.0,0.12552299999998695,38.0,0.12552299999998695
1509,33.0,0.12552299999998695,47.0,0.7220208000000525
1510,35.0,0.1255230000000438,41.0,0.12552299999998695
1511,61.0,0.12552299999998695,63.0,0.35433074999997416
1512,42.0,0.11811024999997244,41.0,0.11811025000002928
1513,39.0,0.11811025000002928,38.0,0.11811024999997244
1514,59.0,0.11811024999997244,63.0,0.11664405000004763
1515,59.0,0.11664405000004763,63.0,0.6081688416667248
1516,35.0,0.10319965000002185,33.0,0.10244787499999575
1517,40.0,0.10244787499999575,36.0,0.10171858333330874
1518,47.0,0.04842616666667254,68.0,0.1452784999999608
1519,38.0,0.2905569999999784,62.0,0.04842616666667254
1520,39.0,0.04842616666667254,63.0,0.04842616666667254
1521,44.0,0.04842616666667254,65.0,0.04842616666667254
1522,47.0,0.04842616666667254,67.0,0.1452784999999608
1523,36.0,0.2905569999999784,62.0,0.04842616666667254
1524,37.0,0.04842616666667254,64.0,0.04842616666667254
1525,44.0,0.04842616666667254,66.0,0.04842616666667254
1526,47.0,0.04842616666667254,68.0,0.14150949999998375
1527,35.0,0.4245285000000081,86.0,0.14150949999998375
1528,68.0,0.4245285000000081,90.0,0.5660379999999918
1529,71.0,0.5660379999999918,77.0,0.15544049999999743
1530,68.0,0.15544049999999743,77.0,0.14962600000001203
1531,71.0,0.14962600000001203,75.0,0.14669950000001108
1532,59.0,0.14669950000001108,80.0,0.14669950000001108
1533,66.0,0.14669950000001108,79.0,0.13856800000002067
1534,64.0,0.13856800000002067,90.0,0.1039260000000013
1535,39.0,0.2771359999999845,63.0,0.04842616666667254
1536,40.0,0.04842616666667254,64.0,0.04842616666667254
1537,44.0,0.04842616666667254,66.0,0.04842616666667254
1538,47.0,0.04842616666667254,68.0,0.1452784999999608
1539,38.0,0.2905569999999784,62.0,0.04842616666667254
1540,39.0,0.04842616666667254,63.0,0.04842616666667254
1541,44.0,0.04842616666667254,65.0,0.04842616666667254
1542,47.0,0.04842616666667254,67.0,0.1452784999999608
1543,36.0,0.2905569999999784,62.0,0.04842616666667254
1544,37.0,0.04842616666667254,64.0,0.04842616666667254
1545,44.0,0.04842616666667254,66.0,0.04842616666667254
1546,47.0,0.04842616666667254,68.0,0.14150949999998375
1547,35.0,0.4245285000000081,86.0,0.14150949999998375
1548,71.0,0.4245285000000081,90.0,0.5660379999999918
1549,71.0,0.5660379999999918,74.0,0.15544049999999743
1550,68.0,0.15544049999999743,71.0,0.14962600000001203
1551,71.0,0.14962600000001203,68.0,0.14669950000001108
1552,68.0,0.14669950000001108,66.0,0.14669950000001108
1553,66.0,0.14669950000001108,63.0,0.13856800000002067
1554,51.0,0.13856800000002067,59.0,0.41284350000000813
1555,66.0,0.27522900000002437,59.0,0.13761449999998376
1556,68.0,0.13761449999998376,58.0,0.41097549999994953
1557,54.0,0.2752289999999675,58.0,0.135746499999982
1558,68.0,0.135746499999982,60.0,0.40723950000000286
1559,53.0,0.14840449999999805,53.0,0.2943545000000043
1560,27.0,0.14840450000000516,53.0,0.07297499999999957
1561,51.0,0.14594999999999914,58.0,0.2929729999999964
1562,26.0,0.14594999999999914,52.0,0.07351150000000217
1563,53.0,0.14702299999999724,52.0,0.29371641666666903
1564,27.0,0.14702300000000434,52.0,0.07337966666666773
1565,51.0,0.1466934166666647,57.0,0.29473899999999986
1566,26.0,0.14662750000000102,51.0,0.07405574999999942
1567,52.0,0.14811149999999884,51.0,0.29441750000000155
1568,27.0,0.14811149999999884,51.0,0.0731529999999978
1569,51.0,0.1463060000000027,55.0,0.2942289999999943
1570,26.0,0.146844999999999,50.0,0.0736920000000012
1571,53.0,0.1473839999999953,50.0,0.29413758333333107
1572,26.0,0.1473840000000024,49.0,0.0734398333333317
1573,54.0,0.14675358333332866,52.0,0.2950319999999991
1574,19.0,0.14662750000000102,49.0,0.07420224999999903
1575,55.0,0.14840449999999805,49.0,0.2962533333333397
1576,24.0,0.14840450000000516,55.0,0.07393533333333124
1577,48.0,0.14784883333333454,50.0,0.295278583333328
1578,27.0,0.1478269999999995,64.0,0.07376333333333207
1579,60.0,0.14745158333332853,70.0,0.5857830833333395
1580,26.0,0.14737650000000002,64.0,0.07353908333333692
1581,53.0,0.14700358333333696,60.0,0.1469290000000001
1582,31.0,0.1469290000000001,64.0,0.07223700000000122
1583,59.0,0.14447400000000243,64.0,0.14447399999999533
1584,27.0,0.14447399999999533,55.0,0.07393533333333124
1585,55.0,0.14784883333333454,50.0,0.1478269999999995
1586,24.0,0.1478269999999995,64.0,0.07376333333333207
1587,63.0,0.14745158333332853,70.0,0.5857830833333395
1588,29.0,0.14737650000000002,64.0,0.07353908333333692
1589,56.0,0.14700358333333696,60.0,0.1469290000000001
1590,29.0,0.1469290000000001,64.0,0.07223700000000122
1591,62.0,0.14447400000000243,64.0,0.28894799999999776
1592,27.0,0.14447399999999533,55.0,0.07223700000000122
1593,60.0,0.14447400000000243,64.0,0.14447400000000243
1594,27.0,0.14447400000000243,61.0,0.07328991666666695
1595,67.0,0.1465321666666668,68.0,0.07324224999999984
1596,26.0,0.15221449999999948,63.0,0.07471275000000333
1597,65.0,0.14736733333333518,70.0,0.07287341666666691
1598,19.0,0.14597066666667047,66.0,0.07324224999999984
1599,67.0,0.14670674999999989,72.0,0.07368824999999646
1600,46.0,0.28801254166666546,49.0,1.1432719999999996
1601,53.0,0.5607474999999997,38.0,0.5825244999999999
1602,45.0,0.5825244999999999,48.0,1.171428500000001
1603,53.0,0.5714284999999997,38.0,0.6000000000000014
1604,45.0,0.6000000000000014,49.0,1.170982500000001
1605,53.0,0.5769230000000007,32.0,0.5940595000000002
1606,44.0,0.5940595000000002,48.0,1.1769230000000022
1607,52.0,0.5769230000000007,31.0,0.6000000000000014
1608,43.0,0.6000000000000014,49.0,1.111111000000001
1609,41.0,0.5555555000000005,44.0,0.5555555000000005
1610,40.0,0.5555555000000005,49.0,1.7054740000000024
1611,43.0,0.46270541666666887,28.0,0.08849558333333363
1612,41.0,0.08849558333333363,41.0,0.5882354999999997
1613,40.0,0.5882354999999997,49.0,0.5660375000000002
1614,57.0,0.5660375000000002,54.0,0.5660375000000002
1615,55.0,0.5660375000000002,49.0,0.5714284999999997
1616,53.0,0.2857142500000016,45.0,0.19047616666666656
1617,53.0,0.21428568749999855,42.0,0.07142856249999952
1618,52.0,0.07142856249999952,50.0,0.5714284999999997
1619,50.0,0.2857142500000016,44.0,0.28571424999999806
1620,31.0,0.28571424999999806,48.0,0.5825245000000017
1621,50.0,0.5825245000000017,48.0,0.5825244999999981
1622,53.0,0.5825244999999981,53.0,1.1650489999999998
1623,52.0,0.5825245000000017,48.0,0.5825244999999981
1624,29.0,0.5825244999999981,41.0,0.6041634999999985
1625,28.0,0.6041634999999985,35.0,0.636202083333334
1626,26.0,0.636202083333334,38.0,1.1730575000000023
1627,29.0,0.3158128333333359,32.0,0.2941365833333336
1628,33.0,0.2941365833333336,36.0,0.5631080833333328
1629,38.0,0.2857315000000007,41.0,0.27737658333333215
1630,41.0,0.27737658333333215,46.0,1.1769230000000022
1631,50.0,0.5769230000000007,33.0,0.6000000000000014
1632,40.0,0.6000000000000014,45.0,1.1868345000000033
1633,50.0,0.5607475000000015,32.0,0.6260870000000018
1634,41.0,0.3000000000000007,33.0,0.3206522166666659
1635,38.0,0.3260870000000011,44.0,1.7324784999999991
1636,50.0,0.6000000000000014,33.0,0.5769230000000007
1637,50.0,0.5769230000000007,35.0,1.138079999999995
1638,33.0,0.555555499999997,41.0,0.5825244999999981
1639,29.0,0.5825244999999981,35.0,1.2000000000000028
1640,50.0,0.6000000000000014,32.0,0.6000000000000014
1641,39.0,0.31578950000000106,47.0,0.2970297500000001
1642,30.0,0.2970297500000001,47.0,0.2970297500000001
1643,60.0,0.2970297500000001,74.0,0.3296702499999995
1644,59.0,0.3296702499999995,76.0,1.2341569999999962
1645,30.0,0.30612250000000074,46.0,0.30612250000000074
1646,24.0,0.30612250000000074,67.0,1.9439689583333575
1647,36.0,0.30612250000000074,51.0,0.31578949999999395
1648,57.0,0.31578949999999395,72.0,0.6413546666666861
1649,36.0,0.31578950000000816,51.0,0.3255651666666779
1650,52.0,0.3255651666666779,70.0,0.6807022916666767
1651,30.0,0.33584437500000774,51.0,0.344857916666669
1652,51.0,0.344857916666669,66.0,1.2193746250000004
1653,35.0,0.30881237500000225,32.0,0.3035207500000041
1654,30.0,0.3035207500000041,30.0,0.3035207500000041
1655,35.0,0.3035207500000041,28.0,0.3035207499999899
1656,47.0,0.3035207499999899,52.0,0.627494750000011
1657,30.0,0.3035207500000041,25.0,0.32397400000000687
1658,48.0,0.32397400000000687,57.0,0.3035207500000041
1659,50.0,0.2023471666666694,50.0,0.2023471666666694
1660,43.0,0.1011735833333347,27.0,0.3035207499999899
1661,48.0,0.1011735833333347,52.0,0.2023471666666552
1662,47.0,0.2023471666666552,51.0,0.29726524999999526
1663,48.0,0.29726524999999526,51.0,0.31507108333333633
1664,55.0,0.31507108333333633,57.0,0.486370375000007
1665,28.0,0.31872004166666557,28.0,0.339275083333348
1666,54.0,0.16765033333334145,53.0,0.17162475000000654
1667,54.0,0.17162475000000654,57.0,0.6226807500000007
1668,42.0,0.33141849999999806,30.0,0.2912622500000026
1669,33.0,0.2912622500000026,32.0,0.3035207500000041
1670,60.0,0.3035207500000041,73.0,0.32029974999998956
1671,59.0,0.32029974999998956,70.0,1.231015499999998
1672,33.0,0.29999999999999716,43.0,0.32397400000000687
1673,24.0,0.32397400000000687,49.0,0.3035207500000041
1674,40.0,0.3035207500000041,40.0,0.3035207499999899
1675,59.0,0.3035207499999899,65.0,0.320375999999996
1676,57.0,0.1601880000000051,64.0,0.1601879999999909
1677,59.0,0.1601879999999909,63.0,0.3203760000000102
1678,57.0,0.1601880000000051,62.0,0.1601880000000051
1679,55.0,0.1601880000000051,62.0,0.31488070000001755
1680,54.0,0.1556311666666801,61.0,0.15924953333333747
1681,55.0,0.15924953333333747,60.0,0.3265779166666647
1682,61.0,0.21052633333331983,83.0,0.31858908333336444
1683,60.0,0.21220608333334212,77.0,0.21276600000001622
1684,45.0,0.10638300000002232,50.0,0.32086487499998384
1685,51.0,0.1063829999999939,74.0,0.21448187499998994
1686,59.0,0.21448187499998994,81.0,0.3379016249999722
1687,58.0,0.222290833333318,75.0,0.23537554166665586
1688,33.0,0.11561079166665422,47.0,0.35313045833333945
1689,57.0,0.11976475000000164,73.0,0.2333657083333378
1690,56.0,0.2333657083333378,79.0,1.8366797916666542
1691,44.0,0.332153041666686,44.0,0.3164077499999678
1692,35.0,0.3164077499999678,48.0,0.2970297500000072
1693,44.0,0.2970297500000072,48.0,0.2970297499999788
1694,40.0,0.2970297499999788,48.0,0.2970297500000072
1695,32.0,0.2970297500000072,47.0,0.2970297500000072
1696,54.0,0.2970297500000072,82.0,0.6185565000000111
1697,44.0,0.30927825000000553,44.0,0.30927825000000553
1698,52.0,0.30927825000000553,77.0,0.9278457499999888
1699,44.0,0.3092782499999771,44.0,0.30927825000000553
1700,40.0,0.30927825000000553,44.0,0.3092892500000062
1701,44.0,0.3092892500000062,74.0,0.3375763749999976
1702,47.0,0.3375763749999976,81.0,2.443974916666633
1703,44.0,0.3316098333333173,48.0,0.3120085833333235
1704,35.0,0.3120085833333235,48.0,0.29411774999999807
1705,44.0,0.29411774999999807,46.0,0.29411774999999807
1706,40.0,0.29411774999999807,46.0,0.30303025000000616
1707,32.0,0.30303025000000616,46.0,0.30303025000000616
1708,28.0,0.30303025000000616,54.0,0.30303024999997774
1709,44.0,0.30303024999997774,46.0,0.30303025000000616
1710,52.0,0.30303025000000616,81.0,0.5999999999999943
1711,44.0,0.30000000000001137,48.0,0.29999999999998295
1712,56.0,0.29999999999998295,85.0,0.6357699166666464
1713,32.0,0.3077867499999911,52.0,0.3279831666666553
1714,61.0,0.3279831666666553,95.0,2.1167202500000144
1715,44.0,0.30966150000000425,51.0,0.30966150000000425
1716,35.0,0.30966150000000425,49.0,0.2970297500000072
1717,44.0,0.2970297500000072,48.0,0.2970297499999788
1718,40.0,0.2970297499999788,48.0,0.2970297500000072
1719,32.0,0.2970297500000072,46.0,0.2970297500000072
1720,28.0,0.2970297500000072,52.0,0.30927825000000553
1721,59.0,0.30927825000000553,69.0,0.31545750000000794
1722,55.0,0.31545750000000794,76.0,0.30612249999998653
1723,32.0,0.32376425000001063,22.0,0.3237642499999538
1724,23.0,0.3237642499999538,22.0,0.32856120833332625
1725,56.0,0.32856120833332625,46.0,0.33107450000005656
1726,57.0,0.33107450000005656,45.0,0.33956470833328467
1727,58.0,0.33956470833328467,46.0,0.34840291666665735
1728,59.0,0.34840291666665735,48.0,0.3577057916666604
1729,63.0,0.3577057916666604,48.0,0.3602650416667075
1730,61.0,0.3602650416667075,47.0,0.35962599999999156
1731,59.0,0.35962599999999156,53.0,2.348176999999964
1732,52.0,0.34682075000000623,45.0,0.34682075000000623
1733,53.0,0.34682075000000623,45.0,0.33482149999997546
1734,54.0,0.33482149999997546,45.0,0.3348215000000323
1735,57.0,0.3348215000000323,44.0,0.33112575000001243
1736,56.0,0.33112575000001243,44.0,0.33112575000001243
1737,54.0,0.33112575000001243,44.0,1.3187796666666713
1738,58.0,0.32264099999991913,44.0,0.325566125000023
1739,57.0,0.325566125000023,43.0,0.3323825833333558
1740,56.0,0.3323825833333558,42.0,0.3381899583333734
1741,54.0,0.3381899583333734,42.0,0.7394481666666479
1742,56.0,0.3461601666666638,39.0,0.3932879999999841
1743,52.0,0.3932879999999841,48.0,2.100331874999995
1744,47.0,0.3575685000000135,43.0,0.3575685000000135
1745,46.0,0.3575685000000135,43.0,0.3335683749999703
1746,47.0,0.3335683749999703,43.0,0.33112575000001243
1747,51.0,0.16556287500003464,37.0,0.1655628749999778
1748,49.0,0.1655628749999778,43.0,0.34285725000000866
1749,47.0,0.34285725000000866,42.0,0.3776434999999765
1750,56.0,0.3776434999999765,42.0,1.4178286666666509
1751,57.0,0.3484149999999886,41.0,0.3503928750000682
1752,58.0,0.3503928750000682,42.0,0.3569800833333261
1753,59.0,0.3569800833333261,44.0,0.36204070833326796
1754,63.0,0.36204070833326796,45.0,0.3602650416667075
1755,61.0,0.3602650416667075,44.0,0.35962599999999156
1756,59.0,0.35962599999999156,48.0,2.4754672083333276
1757,52.0,0.36818849999997383,41.0,0.36818850000003067
1758,53.0,0.36818850000003067,41.0,0.3484320000000025
1759,54.0,0.3484320000000025,41.0,0.3484320000000025
1760,57.0,0.3484320000000025,41.0,0.3484320000000025
1761,56.0,0.3484320000000025,41.0,0.3478180416666419
1762,54.0,0.3478180416666419,40.0,1.4170343333333904
1763,58.0,0.34597616666667363,40.0,0.3509408333333113
1764,13.0,0.29486950000000434,50.0,0.3100455000000011
1765,19.0,0.3100455000000011,43.0,0.3048160000000024
1766,20.0,0.3048160000000024,50.0,0.29486950000000434
1767,25.0,0.29486950000000434,43.0,0.2948694999999901
1768,24.0,0.2948694999999901,51.0,0.29486950000000434
1769,22.0,0.29486950000000434,48.0,0.29486950000000434
1770,13.0,0.29486950000000434,50.0,0.3100455000000011
1771,19.0,0.3100455000000011,43.0,0.3048160000000024
1772,20.0,0.3048160000000024,50.0,0.29486950000000434
1773,27.0,0.28135464791667175,43.0,0.2948694999999901
1774,24.0,0.3083843520833227,51.0,0.29486950000000434
1775,25.0,0.29486950000000434,48.0,0.29486950000000434
1776,30.0,0.29486950000000434,56.0,0.2948694999999901
1777,28.0,0.2948694999999901,53.0,0.29486950000000434
1778,29.0,0.29486950000000434,61.0,0.301084000000003
1779,34.0,0.301084000000003,55.0,0.301084000000003
1780,31.0,0.301084000000003,62.0,0.31107400000000496
1781,32.0,0.31107400000000496,58.0,0.35868000000000677
1782,41.0,0.35868000000000677,69.0,0.7173599999999993
1783,44.0,2.152079999999998,71.0,2.152079999999998
1784,41.0,2.152079999999998,72.0,2.152079999999998
1785,38.0,0.0,55.0,0.83612025
1786,50.0,0.83612025,52.0,0.28116224999999995
1787,50.0,0.28116224999999995,62.0,2.8309485000000008
1788,43.0,0.5209239999999999,27.0,0.41221394999999994
1789,43.0,0.45801550000000013,27.0,0.3970588500000001
1790,43.0,0.4411765000000001,27.0,0.40298489999999987
1791,43.0,0.44776099999999985,27.0,0.42681014999999967
1792,43.0,0.4742335000000004,27.0,0.43995419999999985
1793,43.0,0.48883800000000033,24.0,0.45545178333333336
1794,51.0,0.02085070833333358,58.0,1.0400873750000015
1795,43.0,0.48626287499999954,24.0,0.47588751666666784
1796,43.0,0.5331394166666685,31.0,0.4467977999999997
1797,50.0,0.02068508333333341,62.0,2.777084875000001
1798,43.0,0.47575691666666664,27.0,0.42056055000000026
1799,43.0,0.4672894999999997,27.0,0.39717585
1800,43.0,0.4413065000000005,27.0,0.39717585
1801,42.0,0.4413064999999996,27.0,0.41442840000000025
1802,42.0,0.4604759999999999,27.0,0.42366239999999955
1803,42.0,0.4707360000000005,24.0,0.4413839666666668
1804,51.0,0.02021345833333399,58.0,1.0032533333333316
1805,51.0,0.13386690000000456,56.0,0.8309739333333361
1806,44.0,0.1392953499999976,45.0,0.14275361666667052
1807,46.0,0.14275361666667052,41.0,0.1428571666666656
1808,15.0,0.1428571666666656,48.0,0.13682993333333116
1809,39.0,0.13682993333333116,42.0,0.26923786666667127
1810,44.0,0.1353709666666667,56.0,0.13386690000000456
1811,51.0,0.13386690000000456,64.0,0.8841141333333375
1812,44.0,0.1392953499999976,45.0,0.14485445000000396
1813,46.0,0.14485445000000396,41.0,0.14705883333333247
1814,15.0,0.14705883333333247,48.0,0.15325900000000203
1815,39.0,0.15325900000000203,40.0,0.2996465000000015
1816,44.0,0.15094558333333552,49.0,0.14870091666666596
1817,51.0,0.14870091666666596,52.0,0.9554177083333322
1818,44.0,0.15041845833333412,41.0,0.16004587500000156
1819,46.0,0.16004587500000156,38.0,0.1629348749999977
1820,15.0,0.1629348749999977,42.0,0.1632680833333353
1821,39.0,0.1632680833333353,37.0,0.3187504166666635
1822,44.0,0.16064516666666506,44.0,0.15810524999999842
1823,51.0,0.15810524999999842,46.0,0.5221414166666634
1824,44.0,0.16206291666666317,36.0,0.17826033333333413
1825,46.0,0.17826033333333413,33.0,0.18181816666666606
1826,15.0,0.18181816666666606,38.0,3.3723362083333406
1827,22.0,0.20998975000000186,33.0,3.1623464583333387
1828,27.0,0.2168197916666692,37.0,2.9455266666666695
1829,31.0,0.22410904166666867,34.0,2.721417625000001
1830,34.0,0.231905583333333,38.0,2.489512041666668
1831,39.0,0.2402641666666696,33.0,2.2492478749999982
1832,43.0,0.24924787499999823,33.0,2.0
1833,56.0,0.0,49.0,0.60467625
1834,35.0,0.40311749999999996,24.0,0.41117300000000007
1835,52.0,0.20155875000000006,44.0,0.20961425
1836,47.0,0.20961425,47.0,1.5374999999999999
1837,35.0,0.4192284999999998,21.0,0.3607596500000001
1838,35.0,0.37974700000000006,23.0,0.35403744999999986
1839,35.0,0.372671,19.0,0.34756082499999996
1840,49.0,0.36585350000000005,50.0,0.7914820000000002
1841,35.0,0.38580250000000005,24.0,0.4056795000000002
1842,51.0,0.4056795000000002,49.0,2.2931289999999995
1843,35.0,0.40567949999999975,26.0,0.3710453
1844,35.0,0.390574,28.0,0.3642637249999998
1845,35.0,0.38343550000000004,32.0,0.34969309999999965
1846,35.0,0.36097633333332624,33.0,0.3439536749999945
1847,27.0,0.36205649999999423,33.0,0.742022999999989
1848,35.0,0.3710115000000087,31.0,0.3524609250000026
1849,35.0,0.3710114999999803,39.0,0.7420230000000174
1850,35.0,0.3710115000000087,36.0,0.3524609250000026
1851,35.0,0.3710115000000087,37.0,0.711069000000009
1852,35.0,0.3555345000000045,37.0,0.33775777500000004
1853,35.0,0.3555345000000045,45.0,0.7241129999999885
1854,35.0,0.36205649999999423,38.0,0.3439536749999945
1855,28.0,0.36205649999999423,38.0,0.7374629999999911
1856,35.0,0.36873149999999555,36.0,0.35029492500001425
1857,35.0,0.36873149999999555,49.0,0.7241129999999885
1858,35.0,0.36205649999999423,42.0,0.3439536749999945
1859,30.0,0.36205649999999423,46.0,0.7069639999999993
1860,35.0,0.35348200000001384,42.0,0.33580789999999183
1861,35.0,0.3534819999999854,49.0,0.7196830000000034
1862,35.0,0.3598414999999875,40.0,0.3418494250000208
1863,30.0,0.3598415000000159,46.0,0.7467330000000061
1864,35.0,0.37336650000000304,39.0,0.35469817500001
1865,35.0,0.37336650000000304,49.0,3.571350499999994
1866,35.0,0.37336650000000304,40.0,0.3481555250000099
1867,35.0,0.36647949999999696,42.0,0.3279632750000019
1868,35.0,0.3452245000000005,41.0,0.34050185000000965
1869,35.0,0.3584229999999877,42.0,0.33775777500000004
1870,35.0,0.3555345000000045,41.0,0.33775777500000004
1871,35.0,0.3555345000000045,40.0,0.3249717250000117
1872,35.0,0.34207549999999287,40.0,0.33727802499998916
1873,35.0,0.35502950000000055,44.0,0.3418494249999924
1874,35.0,0.3598414999999875,39.0,0.3418494250000208
1875,35.0,0.3598415000000159,39.0,0.7057543750000264
1876,35.0,0.352271624999986,37.0,0.3357060250000359
1877,35.0,0.35348275000004037,41.0,0.7061549166666055
1878,35.0,0.3561424166666427,37.0,0.33244397499996126
1879,28.0,0.35001249999996276,37.0,0.7241129999999885
1880,35.0,0.36205649999999423,35.0,0.3439536749999945
1881,30.0,0.36205649999999423,41.0,0.711069000000009
1882,35.0,0.3555345000000045,35.0,0.33775777500000004
1883,28.0,0.3555345000000045,37.0,0.7279624999999896
1884,35.0,0.36425449999998705,31.0,0.3458231750000209
1885,35.0,0.3637080000000026,38.0,0.7165787916666773
1886,35.0,0.357939208333363,35.0,0.3404268583333021
1887,39.0,0.13094883333333396,58.0,0.12980274999999963
1888,43.0,0.12980274999999963,57.0,0.129166791666667
1889,46.0,0.129166791666667,64.0,0.1259870000000003
1890,45.0,0.1259870000000003,63.0,0.09778350000000025
1891,43.0,0.13037800000000033,69.0,0.12777396250000006
1892,55.0,0.12777396250000006,61.0,0.1264875937500003
1893,46.0,0.1264875937500003,64.0,0.12516767291666664
1894,50.0,0.12516767291666664,64.0,0.12855016666666685
1895,53.0,0.12855016666666685,70.0,0.12067575000000019
1896,52.0,0.12067575000000019,64.0,0.09569587499999965
1897,50.0,0.12759449999999983,73.0,0.12705015208333403
1898,45.0,0.12705015208333403,63.0,0.12483260208333391
1899,46.0,0.12483260208333391,70.0,0.12299358333333199
1900,50.0,0.12299358333333199,72.0,0.12834774999999965
1901,53.0,0.12834774999999965,76.0,0.12033339999999981
1902,52.0,0.12033339999999981,77.0,0.09529856250000002
1903,50.0,0.1275811666666673,86.0,0.12620086666666808
1904,62.0,0.12620086666666808,75.0,0.12427177291666602
1905,59.0,0.12427177291666602,82.0,0.12223122291666577
1906,53.0,0.12223122291666577,83.0,0.12249981458333536
1907,52.0,0.12249981458333536,90.0,0.12148221666666537
1908,50.0,0.12148221666666537,85.0,0.13210049999999995
1909,49.0,0.13210049999999995,91.0,0.1299570833333341
1910,57.0,0.1299570833333341,77.0,0.06467216666666609
1911,50.0,0.1290446249999988,84.0,0.12834774999999965
1912,59.0,0.12834774999999965,73.0,0.06417387499999982
1913,44.0,0.12834774999999965,80.0,0.128645624999999
1914,61.0,0.128645624999999,71.0,0.06467216666666786
1915,49.0,0.12954762500000072,89.0,0.13281399999999977
1916,57.0,0.13281399999999977,73.0,0.06612035000000027
1917,50.0,0.13217634999999994,79.0,0.13141749999999952
1918,59.0,0.13141749999999952,70.0,0.065428122916666
1919,44.0,0.13079324791666735,75.0,0.13085796666666738
1920,61.0,0.13085796666666738,64.0,0.0663717020833321
1921,49.0,0.13351707708333294,74.0,0.13884237500000118
1922,57.0,0.13884237500000118,60.0,0.06913804791666678
1923,50.0,0.13758398958333196,69.0,0.13535709166666798
1924,59.0,0.13535709166666798,55.0,0.06747637500000003
1925,44.0,0.13495275000000007,64.0,0.13608565208333268
1926,61.0,0.13608565208333268,57.0,0.07004198541666717
1927,49.0,0.1416805354166666,63.0,0.14948389375000026
1928,57.0,0.026177999999999813,47.0,0.07950879166666702
1929,55.0,0.07950879166666702,55.0,0.33180949999999854
1930,53.0,0.08108266666666708,47.0,0.08257275000000064
1931,50.0,0.08257275000000064,66.0,0.16815408333333082
1932,62.0,0.08427141666666493,51.0,0.08388266666666588
1933,55.0,0.08388266666666588,79.0,0.435267416666667
1934,67.0,0.07317074999999917,56.0,0.07293391666666871
1935,45.0,0.0243902500000015,46.0,0.09708733333333264
1936,62.0,0.04854366666666721,62.0,0.07269824999999841
1937,48.0,0.04854366666666543,50.0,0.0966183333333337
1938,65.0,0.02415458333333298,47.0,0.07246375000000072
1939,63.0,0.07246375000000072,55.0,0.28708583333333415
1940,60.0,0.0721153749999992,47.0,0.0718853750000008
1941,57.0,0.0718853750000008,59.0,0.14308508333333414
1942,69.0,0.07165645833333478,51.0,0.07142862499999936
1943,55.0,0.07142862499999936,75.0,0.4229926666666657
1944,67.0,0.07108999999999988,51.0,0.07086649999999928
1945,45.0,0.023696666666666033,46.0,0.09433966666666649
1946,59.0,0.047169833333333244,57.0,0.07064399999999971
1947,48.0,0.047169833333333244,50.0,0.09389666666666585
1948,62.0,0.023474166666666463,44.0,0.07042249999999939
1949,60.0,0.07042249999999939,52.0,0.27896729166666745
1950,57.0,0.07009350000000047,46.0,0.06987616666666696
1951,54.0,0.06987616666666696,60.0,0.138997625
1952,66.0,0.0696598333333327,50.0,0.06933779166666731
1953,53.0,0.06933779166666731,75.0,0.4210149583333269
1954,65.0,0.06955312499999877,44.0,0.06976749999999754
1955,44.0,0.023255833333333698,46.0,0.09324066666666297
1956,58.0,0.04651166666666384,53.0,0.0700934999999987
1957,47.0,0.04672899999999913,51.0,0.09367733333333206
1958,61.0,0.023364499999999566,48.0,0.07031283333333249
1959,59.0,0.07031283333333249,50.0,0.2834691249999999
1960,56.0,0.07053325000000044,47.0,0.07075474999999898
1961,55.0,0.07075474999999898,55.0,0.14218112500000046
1962,67.0,0.07097824999999958,47.0,0.07120287500000089
1963,53.0,0.07120287500000089,73.0,0.4324767499999993
1964,65.0,0.07142862500000291,42.0,0.07177037499999983
1965,43.0,0.023923458333332093,45.0,0.0958088333333329
1966,57.0,0.04784691666666774,47.0,0.07200037499999823
1967,46.0,0.04796191666666516,51.0,0.09615383333333227
1968,60.0,0.024038458333333068,42.0,0.0721153749999992
1969,52.0,0.024875624999999957,40.0,0.07462687499999987
1970,50.0,0.07462687499999987,47.0,0.29715516666666986
1971,47.0,0.07462687499999987,40.0,0.07425737500000196
1972,42.0,0.07425737500000196,62.0,0.14827091666666803
1973,54.0,0.07425737499999485,44.0,0.07401354166667318
1974,41.0,0.07401354166667318,77.0,0.4410627499999933
1975,53.0,0.07389162500000168,40.0,0.07377087499999391
1976,26.0,0.024630541666667227,48.0,0.0981599166666598
1977,47.0,0.04914033333332668,48.0,0.07352937499999967
1978,30.0,0.04901958333333312,53.0,0.09803916666666623
1979,52.0,0.02450979166666656,40.0,0.07352937499999967
1980,50.0,0.07352937499999967,46.0,0.2922093333333322
1981,47.0,0.07317075000000273,37.0,0.07317074999999562
1982,42.0,0.07317074999999562,64.0,0.14586783333333386
1983,54.0,0.0730523333333295,44.0,0.07281550000000436
1984,44.0,0.07281550000000436,81.0,0.4340902500000041
1985,56.0,0.07281549999999726,38.0,0.07246374999999716
1986,32.0,0.024154583333334756,44.0,0.09661833333333192
1987,49.0,0.048309166666662406,45.0,0.07246375000000427
1988,37.0,0.04830916666666951,52.0,0.09638608333333565
1989,54.0,0.024154583333334756,38.0,0.07223150000000089
1990,53.0,0.07223150000000089,47.0,0.2875425833333338
1991,49.0,0.07211537500000276,38.0,0.07200037500000178
1992,44.0,0.07200037500000178,67.0,0.14342683333332928
1993,56.0,0.07177037499999983,44.0,0.07165645833332945
1994,45.0,0.07165645833332945,85.0,0.44155604166667217
1995,57.0,0.07177145833333753,38.0,0.07246487499999432
1996,32.0,0.024038458333329515,48.0,0.09708850000000524
1997,49.0,0.04842641666666481,47.0,0.07317187500000699
1998,37.0,0.04866208333334043,53.0,0.09840258333333196
1999,54.0,0.02450979166666656,38.0,0.0738927916666654
2000,53.0,0.0738927916666654,46.0,0.3035819583333321
2001,49.0,0.07475124999999849,38.0,0.07550379166666943
2002,44.0,0.07550379166666943,62.0,0.1533269166666642
2003,56.0,0.07627162499999685,44.0,0.07705529166666736
2004,42.0,0.07705529166666736,81.0,0.4415574166666687
2005,54.0,0.07425737500000196,40.0,0.07401354166666607
2006,26.0,0.024752458333331617,49.0,0.09852216666666891
2007,47.0,0.049261083333334454,46.0,0.07377087500000101
2008,30.0,0.049261083333334454,52.0,0.09803916666666623
2009,52.0,0.02450979166666656,40.0,0.07352937499999967
2010,50.0,0.029940124999995987,31.0,0.08928783333334422
2011,48.0,0.08928783333334422,37.0,0.3454001666666926
2012,45.0,0.0880632500000047,30.0,0.08687325000001067
2013,40.0,0.08687325000001067,50.0,0.17046366666667723
2014,52.0,0.08571612499999048,37.0,0.08474754166668674
2015,40.0,0.08474754166668674,69.0,0.5001554166666722
2016,52.0,0.08348854166666797,31.0,0.08333337500000937
2017,28.0,0.027777791666665053,39.0,0.11111116666667442
2018,47.0,0.055555583333344316,37.0,0.08333337499999516
2019,33.0,0.055555583333330105,45.0,0.11111116666666021
2020,50.0,0.027777791666665053,31.0,0.08333337499999516
2021,21.0,0.08333337499999516,38.0,0.3331800000000129
2022,45.0,0.08333337500000937,36.0,0.08333337499999516
2023,40.0,0.08333337499999516,49.0,0.16651325000000838
2024,52.0,0.08333337499999516,38.0,0.08317987500001323
2025,40.0,0.08317987500001323,71.0,0.5021968333333291
2026,52.0,0.08287287499999252,34.0,0.08317987499999902
2027,28.0,0.02762429166666891,39.0,0.11111116666666021
2028,47.0,0.055555583333330105,38.0,0.08348854166666797
2029,33.0,0.055555583333330105,49.0,0.11173183333333725
2030,50.0,0.027932958333337865,34.0,0.08379887499999938
2031,21.0,0.08379887499999938,45.0,0.3389901666666617
2032,45.0,0.08426962500000457,34.0,0.08458704166666564
2033,40.0,0.08458704166666564,49.0,0.1701334999999915
2034,52.0,0.08490624999998886,38.0,0.08522725000000264
2035,41.0,0.08522725000000264,66.0,0.5098128749999944
2036,53.0,0.08604266666667115,34.0,0.08587845833332608
2037,21.0,0.028735624999995935,41.0,0.1141233333333247
2038,49.0,0.057142833333330145,37.0,0.08538958333333824
2039,26.0,0.05698049999999455,49.0,0.11315483333333987
2040,52.0,0.028409083333343688,31.0,0.08474574999999618
2041,14.0,0.08474574999999618,39.0,0.33350566666666737
2042,45.0,0.08411270833333617,31.0,0.08364370833332657
2043,41.0,0.08364370833332657,49.0,0.16574925000000462
2044,53.0,0.08317987499999902,38.0,0.08256937500000561
2045,41.0,0.08256937500000561,63.0,0.4847991249999808
2046,53.0,0.08211737499999572,34.0,0.08152174999999318
2047,21.0,0.02717391666666913,40.0,0.10840191666665078
2048,49.0,0.05434783333332405,38.0,0.0810811249999972
2049,26.0,0.05405408333332673,45.0,0.10752841666666768
2050,52.0,0.02702704166667047,34.0,0.08050137499999721
2051,31.0,0.0599232499999971,42.0,0.060013041666678646
2052,32.0,0.060013041666678646,42.0,0.06019262499999911
2053,31.0,0.06019262499999911,43.0,0.061007500000002324
2054,32.0,0.061007500000002324,43.0,0.06036729166665111
2055,31.0,0.06036729166665111,44.0,0.5012501770833495
2056,32.0,0.061080166666670266,44.0,0.0616297500000087
2057,31.0,0.0616297500000087,46.0,0.062284875000003126
2058,32.0,0.062284875000003126,46.0,0.06285470833333306
2059,31.0,0.06285470833333306,47.0,0.06362970833333748
2060,30.0,0.06362970833333748,47.0,0.09720260416666804
2061,31.0,0.09720260416666804,48.0,0.09801356250000026
2062,44.0,0.09801356250000026,57.0,1.9288880000000006
2063,41.0,0.4858299999999929,42.0,0.464265989583339
2064,41.0,0.4691530000000057,42.0,0.48936776041666974
2065,53.0,0.4945189999999968,60.0,1.8198367500000074
2066,31.0,0.4793860000000052,46.0,0.4691530000000057
2067,32.0,0.4691530000000057,46.0,0.4691529999999915
2068,33.0,0.4691529999999915,51.0,1.8039139999999918
2069,53.0,0.40214475000000505,55.0,0.05744924999999057
2070,51.0,0.05744924999999057,62.0,0.43811599999999373
2071,50.0,0.43811599999999373,58.0,0.4443459999999959
2072,51.0,0.4443459999999959,65.0,0.46185800000000654
2073,53.0,0.46185800000000654,64.0,0.47673550000000375
2074,54.0,0.47673550000000375,66.0,0.48363700000000165
2075,54.0,0.48363700000000165,71.0,2.8463580000000093
2076,49.0,0.48363700000000165,49.0,0.46714400000000467
2077,42.0,0.46714400000000467,49.0,0.4780879999999996
2078,53.0,0.4780879999999996,56.0,1.4174890000000033
2079,49.0,0.46692600000000084,43.0,0.46692600000000084
2080,49.0,0.46692600000000084,43.0,0.48363700000000165
2081,45.0,0.48363700000000165,51.0,2.7823099999999954
2082,49.0,0.40814724999999896,50.0,0.05830674999999985
2083,48.0,0.05830674999999985,57.0,0.4464619999999968
2084,47.0,0.4464619999999968,54.0,0.4573520000000002
2085,48.0,0.4573520000000002,57.0,0.4664539999999988
2086,49.0,0.4664539999999988,56.0,0.4555119999999988
2087,51.0,0.4555119999999988,58.0,0.49007600000000195
2088,51.0,0.49007600000000195,67.0,2.8343210000000028
2089,46.0,0.49007600000000195,49.0,0.46515200000000334
2090,46.0,0.46515200000000334,49.0,0.46515200000000334
2091,49.0,0.46515200000000334,51.0,1.4139409999999941
2092,44.0,0.12884266666665667,54.0,0.13059450000002926
2093,41.0,0.13059450000002926,53.0,0.132486125000014
2094,37.0,0.132486125000014,51.0,0.3107462916666748
2095,29.0,0.15705149999999435,49.0,0.15369479166668043
2096,32.0,0.15369479166668043,50.0,0.5419974166666748
2097,39.0,0.13672041666666246,51.0,0.13595225000000255
2098,36.0,0.13595225000000255,52.0,0.13499375000000668
2099,39.0,0.13499375000000668,53.0,0.1343310000000031
2100,44.0,0.1343310000000031,55.0,0.1334982500000308
2101,48.0,0.1334982500000308,56.0,0.13266762499998208
2102,51.0,0.13266762499998208,57.0,0.13303904166667735
2103,56.0,0.13303904166667735,58.0,0.13732216666667796
2104,60.0,0.13732216666667796,59.0,0.26468254166667293
2105,63.0,0.1422000833333641,61.0,0.1474350416666539
2106,68.0,0.1474350416666539,62.0,0.27707808333332196
2107,72.0,0.15113349999998604,63.0,0.15113350000001446
2108,80.0,0.15113350000001446,63.0,1.3574649999999906
2109,39.0,1.3574649999999906,41.0,0.32786899999999264
2110,44.0,0.32786899999999264,46.0,1.69174695833334
2111,39.0,1.69174695833334,36.0,0.37504645833334394
2112,44.0,0.37504645833334394,40.0,0.7971418333332849
2113,39.0,0.7971418333332849,34.0,0.42409000000000674
2114,44.0,0.42409000000000674,37.0,0.44425720833331184
2115,39.0,0.44425720833331184,36.0,0.4453636458333392
2116,44.0,0.4652049166666927,36.0,1.7853603333333012
2117,13.0,0.48504633333331526,36.0,0.4748339999999871
2118,25.0,0.4748339999999871,29.0,0.41274000000001365
2119,35.0,0.41274000000001365,29.0,0.41273999999998523
2120,46.0,0.41273999999998523,42.0,1.1889129999999852
2121,39.0,0.40292800000000284,31.0,0.3906499999999937
2122,46.0,0.3906499999999937,37.0,0.39533499999998867
2123,42.0,0.39533499999998867,42.0,1.5556270000000154
2124,25.0,0.3953350000000171,27.0,0.388023000000004
2125,30.0,0.388023000000004,26.0,0.388023000000004
2126,34.0,0.388023000000004,32.0,0.3842459999999903
2127,54.0,0.3842459999999903,50.0,0.5787425000000042
2128,42.0,0.37957900000000677,31.0,0.40617449999999167
2129,53.0,0.19916349999999738,40.0,0.20701099999999428
2130,51.0,0.20701099999999428,49.0,1.1674709999999777
2131,42.0,0.39533499999998867,30.0,0.389458999999988
2132,32.0,0.389458999999988,25.0,0.38267700000000104
2133,45.0,0.3476850000000127,74.0,0.3476850000000127
2134,59.0,0.17384249999997792,97.0,0.08692124999998896
2135,57.0,0.08692124999998896,80.0,0.0434606250000229
2136,59.0,0.0434606250000229,79.0,0.0434606250000229
2137,57.0,0.0434606250000229,97.0,0.3540029999999774
2138,56.0,0.3540029999999774,84.0,0.6953700000000254
2139,57.0,0.17384249999997792,88.0,0.15935562500004608
2140,59.0,0.17384250000003476,91.0,0.3476850000000127
2141,60.0,0.17384249999997792,94.0,0.15935562499998923
2142,50.0,0.17384250000003476,99.0,1.0279620000000023
2143,35.0,0.3519059999999854,72.0,0.33802800000000843
2144,38.0,0.33802800000000843,73.0,0.33802800000000843
2145,55.0,0.33802800000000843,96.0,0.6800689999999463
2146,38.0,0.3539819999999736,72.0,0.3260869999999727
2147,55.0,0.3260869999999727,91.0,0.32608700000002955
2148,48.0,0.32608700000002955,96.0,0.3260869999999727
2149,40.0,0.3260869999999727,73.0,0.33149200000002566
2150,60.0,0.33149200000002566,96.0,0.3314919999999688
2151,72.0,0.3314919999999688,105.0,0.6452209999999923
2152,43.0,0.3252209999999991,73.0,0.3199999999999932
2153,71.0,0.3199999999999932,101.0,0.3199999999999932
2154,69.0,0.3199999999999932,103.0,0.9695810000000051
2155,38.0,0.32786900000002106,73.0,0.32085599999999204
2156,42.0,0.32085599999999204,73.0,0.32085599999999204
2157,71.0,0.32085599999999204,102.0,0.653160000000014
2158,42.0,0.3305790000000002,72.0,0.3225810000000138
2159,71.0,0.3225810000000138,93.0,0.3225810000000138
2160,67.0,0.3225810000000138,103.0,0.9670650000000478
2161,38.0,0.32876700000002756,74.0,0.3191489999999817
2162,43.0,0.3191489999999817,74.0,0.31914900000003854
2163,79.0,0.31914900000003854,104.0,0.8709417499999859
2164,43.0,0.32400899999998956,74.0,0.3125329999999735
2165,38.0,0.3125329999999735,74.0,0.3248102500000414
2166,79.0,0.23439975000002278,104.0,0.0904105000000186
2167,79.0,0.0904105000000186,104.0,0.32049599999999145
2168,37.0,0.32049599999999145,74.0,0.31476199999997334
2169,40.0,0.31476199999997334,74.0,0.3147620000000302
2170,57.0,0.3147620000000302,94.0,1.2658212083333638
2171,40.0,0.32049599999999145,74.0,0.31088099999999486
2172,37.0,0.31088099999999486,74.0,0.31413600000001907
2173,19.0,0.31413600000001907,84.0,0.3203082083333584
2174,46.0,0.09615374999998494,54.0,0.09615374999998494
2175,43.0,0.09615374999998494,63.0,0.19230750000002672
2176,52.0,0.09615374999998494,53.0,0.09615375000004178
2177,39.0,0.09615375000004178,59.0,0.1916934999999853
2178,51.0,0.09584675000002107,52.0,0.09584674999996423
2179,44.0,0.09584674999996423,66.0,0.19169350000004215
2180,48.0,0.09584675000002107,52.0,0.09584675000002107
2181,43.0,0.09584675000002107,61.0,0.1916934999999853
2182,52.0,0.09584674999996423,55.0,0.09584675000002107
2183,39.0,0.09584675000002107,63.0,0.1910829999999919
2184,51.0,0.09554150000002437,56.0,0.09554149999996753
2185,44.0,0.09554149999996753,70.0,0.1910829999999919
2186,48.0,0.09554150000002437,61.0,0.09554149999996753
2187,45.0,0.09554149999996753,68.0,0.19098183333335328
2188,54.0,0.09554150000002437,61.0,0.09544033333332891
2189,41.0,0.09544033333332891,70.0,0.19047599999998965
2190,53.0,0.09523799999999483,61.0,0.09523799999999483
2191,46.0,0.09523799999999483,75.0,0.19047599999998965
2192,50.0,0.09523799999999483,67.0,0.09523799999999483
2193,45.0,0.09523799999999483,76.0,0.1904760000000465
2194,54.0,0.09523799999999483,68.0,0.09523800000005167
2195,41.0,0.09523800000005167,75.0,0.19047599999998965
2196,53.0,0.09523799999999483,68.0,0.09523799999999483
2197,46.0,0.09523799999999483,80.0,0.19047599999998965
2198,49.0,0.09523799999999483,69.0,0.09523799999999483
2199,47.0,0.09523799999999483,80.0,0.19067833333332374
2200,56.0,0.09523799999999483,71.0,0.09544033333332891
2201,43.0,0.09544033333332891,80.0,0.1902759166666783
2202,55.0,0.09493674999998802,75.0,0.09533916666669029
2203,48.0,0.09533916666669029,86.0,0.19179641666664793
2204,52.0,0.09574499999996533,73.0,0.0960514166666826
2205,49.0,0.0960514166666826,89.0,0.19344541666663417
2206,58.0,0.0965667499999654,76.0,0.09687866666666878
2207,45.0,0.09687866666666878,89.0,0.19512375000005022
2208,57.0,0.09729750000002468,79.0,0.09782625000002554
2209,50.0,0.09782625000002554,91.0,0.20251066666673978
2210,54.0,0.099403708333341,82.0,0.10310695833339878
2211,51.0,0.10310695833339878,93.0,0.21870091666670533
2212,60.0,0.10715883333335796,85.0,0.3830350833333682
2213,64.0,0.11154208333334736,98.0,0.27149300000002086
2214,51.0,0.27149300000002086,64.0,0.09900325000000976
2215,44.0,0.1484234999999785,54.0,0.14733000000001084
2216,37.0,0.07380066666667062,40.0,0.21978200000000925
2217,47.0,0.07352933333334022,59.0,0.14625266666666903
2218,49.0,0.14625266666666903,64.0,0.21853950000001987
2219,53.0,0.1456691666666643,68.0,0.1457406666666543
2220,25.0,0.07287033333335557,40.0,0.23760133333331623
2221,51.0,0.07287033333329873,63.0,0.1647310000000175
2222,49.0,0.1647310000000175,70.0,0.4597699999999918
2223,25.0,0.22988500000002432,42.0,0.22988499999996748
2224,30.0,0.22988499999996748,49.0,0.2400000000000091
2225,40.0,0.160000000000025,57.0,0.4707690000000184
2226,34.0,0.07999999999998408,42.0,0.23076900000000933
2227,42.0,0.07692300000002206,56.0,0.15384599999998727
2228,46.0,0.15384599999998727,60.0,0.2400000000000091
2229,51.0,0.160000000000025,65.0,0.15999999999996817
2230,25.0,0.07999999999998408,42.0,0.2400000000000091
2231,49.0,0.07999999999998408,59.0,0.160000000000025
2232,47.0,0.160000000000025,65.0,0.6870225000000119
2233,26.0,0.2290075000000229,42.0,0.22900749999996606
2234,30.0,0.22900749999996606,42.0,0.2290075000000229
2235,38.0,0.2290075000000229,60.0,0.44935125000000653
2236,42.0,0.22900749999996606,62.0,0.22034375000004047
2237,44.0,0.22034375000004047,57.0,0.23700995833326033
2238,46.0,0.23700995833326033,70.0,0.4742612500000405
2239,25.0,0.23880916666666963,37.0,0.23545208333337087
2240,30.0,0.23545208333337087,44.0,0.23137575000004063
2241,34.0,0.23137575000004063,37.0,0.22599800000006098
2242,30.0,0.22599800000006098,44.0,0.22402975000005654
2243,25.0,0.22402975000005654,37.0,0.23123524999999745
2244,18.0,0.23123524999999745,47.0,0.23622050000000172
2245,25.0,0.23622050000000172,37.0,0.23531191666666018
2246,30.0,0.23531191666666018,37.0,0.22771350000004986
2247,46.0,0.152383666666708,61.0,0.15009641666671314
2248,37.0,0.07532983333334187,37.0,0.22264333333339437
2249,47.0,0.07476658333337127,58.0,0.1478767500000231
2250,49.0,0.1478767500000231,64.0,0.21861100000000988
2251,53.0,0.1457406666666543,68.0,0.1457406666666543
2252,25.0,0.07287033333335557,37.0,0.23760133333331623
2253,51.0,0.07287033333329873,58.0,0.1647310000000175
2254,49.0,0.1647310000000175,72.0,0.25862050000000636
2255,61.0,0.25862050000000636,72.0,0.2553634166666825
2256,59.0,0.12658225000001266,72.0,0.12658225000001266
2257,59.0,0.12658225000001266,74.0,0.746206500000028
2258,71.0,0.12436774999997624,76.0,0.12436775000003308
2259,59.0,0.12436775000003308,76.0,0.24873550000000932
2260,59.0,0.12436774999997624,78.0,0.12436775000003308
2261,46.0,0.12436775000003308,77.0,0.24873550000000932
2262,58.0,0.12436774999997624,77.0,0.12436775000003308
2263,45.0,0.12436775000003308,87.0,0.24252200000000812
2264,57.0,0.12126100000000406,77.0,0.12126100000000406
2265,57.0,0.12126100000000406,77.0,0.24252200000000812
2266,69.0,0.12126100000000406,77.0,0.12126100000000406
2267,58.0,0.12126100000000406,87.0,0.24252200000000812
2268,70.0,0.12126100000000406,75.0,0.12126100000000406
2269,58.0,0.12126100000000406,75.0,0.25305800000001
2270,58.0,0.126529000000005,75.0,0.126529000000005
2271,44.0,0.126529000000005,77.0,0.24909466666662183
2272,56.0,0.126529000000005,71.0,0.12256566666661683
2273,56.0,0.12256566666661683,70.0,0.24354600000003757
2274,68.0,0.12177300000001878,71.0,0.12177300000001878
2275,56.0,0.12177300000001878,68.0,0.12177299999996194
2276,54.0,0.12177299999996194,77.0,0.12177300000001878
2277,42.0,0.12177300000001878,69.0,0.24354599999998072
2278,54.0,0.12177300000001878,69.0,0.12177299999996194
2279,41.0,0.12177299999996194,77.0,0.2508714999999597
2280,53.0,0.12805200000002515,71.0,0.12281949999993458
2281,53.0,0.12281949999993458,70.0,0.24354600000003757
2282,65.0,0.12177300000001878,71.0,0.12177300000001878
2283,53.0,0.12177300000001878,68.0,0.12177299999996194
2284,52.0,0.12177299999996194,77.0,0.12177300000001878
2285,40.0,0.12177300000001878,69.0,0.24354599999998072
2286,52.0,0.12177300000001878,69.0,0.12177299999996194
2287,39.0,0.12177299999996194,77.0,0.24901999999997315
2288,51.0,0.12646499999999605,71.0,0.1225549999999771
2289,51.0,0.1225549999999771,70.0,0.24354600000003757
2290,63.0,0.12177300000001878,71.0,0.12177300000001878
2291,50.0,0.12177300000001878,68.0,0.24354599999998072
2292,62.0,0.12177299999996194,73.0,0.12177300000001878
2293,51.0,0.12177300000001878,70.0,0.24354599999998072
2294,63.0,0.12177300000001878,70.0,0.12177299999996194
2295,51.0,0.12177299999996194,79.0,0.24963191666665807
2296,63.0,0.12698949999997922,73.0,0.12264241666667886
2297,43.0,0.10501775000000002,59.0,0.10416749999999908
2298,44.0,0.10416749999999908,59.0,0.10344908333333436
2299,46.0,0.10344908333333436,65.0,0.10262283333333322
2300,41.0,0.10262283333333322,68.0,0.10169566666666618
2301,48.0,0.10169566666666618,76.0,0.15000000000000036
2302,44.0,0.5999999999999996,74.0,0.15873024999999963
2303,51.0,0.6349210000000003,78.0,0.6839972500000009
2304,49.0,0.6839972500000009,73.0,0.2898549999999993
2305,43.0,0.8695650000000015,58.0,0.10714375000000231
2306,44.0,0.10714375000000231,61.0,0.10600791666666964
2307,45.0,0.10600791666666964,64.0,0.10489591666666698
2308,46.0,0.10489591666666698,64.0,0.10380708333333288
2309,47.0,0.10380708333333288,71.0,0.10274049999999946
2310,48.0,0.10274049999999946,74.0,0.10169566666666796
2311,49.0,0.10169566666666796,76.0,0.14999999999999858
2312,41.0,0.6000000000000014,75.0,0.1546392499999989
2313,56.0,0.6185569999999991,82.0,0.6666670000000003
2314,54.0,0.6666670000000003,77.0,0.27522949999999824
2315,56.0,0.550459,77.0,0.13574850000000183
2316,47.0,0.13574850000000183,72.0,0.13313658333333223
2317,46.0,0.13313658333333223,72.0,0.13177216666666425
2318,54.0,0.13177216666666425,72.0,0.13043641666666517
2319,56.0,0.13043641666666517,77.0,0.12912524999999775
2320,47.0,0.12912524999999775,70.0,0.1276611666666696
2321,46.0,0.1276611666666696,70.0,0.12658383333333134
2322,54.0,0.12658383333333134,70.0,0.12517433333333372
2323,56.0,0.12517433333333372,77.0,0.12605483333333467
2324,46.0,0.12605483333333467,71.0,0.12711875000000106
2325,42.0,0.12711875000000106,71.0,0.12765950000000004
2326,54.0,0.12765950000000004,71.0,0.12838858333333292
2327,51.0,0.12838858333333292,77.0,0.1298717499999995
2328,46.0,0.1298717499999995,72.0,0.12875691666666356
2329,42.0,0.12875691666666356,72.0,0.12747925000000038
2330,54.0,0.12747925000000038,72.0,0.12605191666666826
2331,56.0,0.12605191666666826,77.0,0.6411540833333298
2332,49.0,0.12587466666666458,71.0,0.1269399166666645
2333,42.0,0.1269399166666645,71.0,0.12802333333333493
2334,54.0,0.12802333333333493,71.0,0.12931191666666564
2335,56.0,0.12931191666666564,73.0,0.13100425000000016
2336,49.0,0.13100425000000016,67.0,0.13100425000000016
2337,42.0,0.13100425000000016,68.0,0.13100425000000016
2338,58.0,0.0505063333333311,78.0,0.3260870000000011
2339,59.0,0.16304350000000056,79.0,0.16304350000000056
2340,60.0,0.16304350000000056,82.0,0.16397025000000554
2341,61.0,0.16397025000000554,77.0,0.16670374999999638
2342,63.0,0.16670374999999638,77.0,0.3299022500000035
2343,64.0,0.16132500000000505,77.0,0.16857724999999846
2344,63.0,0.16857724999999846,82.0,0.17045450000000528
2345,68.0,0.34090899999999635,83.0,0.26117112500000417
2346,66.0,0.26117112500000417,75.0,0.07988163749999444
2347,66.0,0.08875737500000014,84.0,0.17241375000000403
2348,32.0,0.21551718749999793,61.0,0.3793104374999956
2349,54.0,0.04310343750000811,66.0,0.3362069999999875
2350,42.0,0.0431034374999939,61.0,0.2931035624999936
2351,64.0,0.0431034374999939,83.0,0.2500001249999997
2352,63.0,0.2500001249999997,77.0,0.34496112499999754
2353,32.0,0.04166668749999758,66.0,0.30329443749999996
2354,61.0,0.04166668749999758,83.0,0.2616277500000024
2355,30.0,0.2616277500000024,61.0,0.3400181250000003
2356,37.0,0.0436046250000004,61.0,0.2964134999999999
2357,61.0,0.0436046250000004,77.0,0.2528088749999995
2358,63.0,0.2528088749999995,77.0,0.3454450416666788
2359,32.0,0.04213481249999518,57.0,0.3033102291666836
2360,64.0,0.04213481250000939,81.0,0.34889466666668056
2361,18.0,0.2611754166666742,57.0,0.3391158750000045
2362,25.0,0.04385962499999607,57.0,0.29525625000000844
2363,64.0,0.04385962500001028,79.0,0.25139662499999815
2364,63.0,0.25139662499999815,75.0,0.34695662500000424
2365,20.0,0.0418994375000068,57.0,0.30505718749999744
2366,61.0,0.04189943749999259,82.0,0.350876999999997
2367,18.0,0.26315775000000485,56.0,0.3391158749999903
2368,25.0,0.04385962499999607,56.0,0.2952562499999942
2369,59.0,0.04385962499999607,79.0,0.25139662499999815
2370,57.0,0.25139662499999815,74.0,0.34197704166668075
2371,32.0,0.0418994375000068,61.0,0.30007760416667395
2372,56.0,0.04189943749999259,78.0,0.25817816666668136
2373,24.0,0.34488341666667566,64.0,0.08400774999999783
2374,25.0,0.08400774999999783,64.0,0.08321057500000961
2375,27.0,0.08321057500000961,66.0,0.08287287499999252
2376,28.0,0.08287287499999252,67.0,0.08244797499999379
2377,30.0,0.08244797499999379,67.0,0.08214740000001086
2378,32.0,0.08214740000001086,68.0,0.08184844999999541
2379,54.0,0.24456524999999374,60.0,0.07336957500001517
2380,54.0,0.08152175000000739,67.0,0.16304349999998635
2381,47.0,0.16304349999998635,63.0,0.3315827500000239
2382,59.0,0.16304350000001477,75.0,0.33707849999998984
2383,58.0,0.2528088749999995,70.0,0.08426962499999036
2384,56.0,0.08426962499999036,70.0,0.6790478749999806
2385,37.0,0.350876999999997,58.0,0.32817087499998365
2386,27.0,0.32817087499998365,69.0,0.31519749999998226
2387,58.0,0.1613230000000101,64.0,0.052084749999977475
2388,59.0,0.052084749999977475,65.0,0.051283416666677795
2389,58.0,0.051283416666677795,64.0,0.05050633333331689
2390,56.0,0.05050633333331689,65.0,0.32594012499998826
2391,58.0,0.16304349999998635,66.0,0.1628966250000019
2392,20.0,0.1628966250000019,71.0,0.31236545833331775
2393,59.0,0.15902791666667326,64.0,0.05167995833332384
2394,61.0,0.05167995833332384,64.0,0.051151250000003756
2395,59.0,0.051151250000003756,64.0,0.05050633333331689
2396,58.0,0.05050633333331689,71.0,0.3260870000000011
2397,59.0,0.16304349999998635,72.0,0.16304350000001477
2398,60.0,0.16304350000001477,74.0,0.16574575000001346
2399,61.0,0.16574575000001346,70.0,0.16763524999998936
2400,63.0,0.16763524999998936,70.0,0.3299022500000035
2401,64.0,0.16132500000000505,70.0,0.16857724999999846
2402,63.0,0.16857724999999846,74.0,0.17045450000000528
2403,68.0,0.34090900000001056,75.0,0.26117112500000417
2404,66.0,0.26117112500000417,69.0,0.07988163749999444
2405,66.0,0.08875737500000014,77.0,0.17241375000000403
2406,32.0,0.21551718750001214,55.0,0.3793104375000098
2407,54.0,0.04310343749997969,59.0,0.3362070000000301
2408,42.0,0.04310343750000811,55.0,0.293103562500022
2409,64.0,0.04310343750000811,75.0,0.2500001250000139
2410,63.0,0.2500001250000139,70.0,0.34496112499999754
2411,32.0,0.04166668749999758,59.0,0.30329443749999996
2412,61.0,0.04166668749999758,75.0,0.2616277500000024
2413,30.0,0.2616277500000024,55.0,0.3400181250000003
2414,37.0,0.0436046250000004,55.0,0.2964134999999999
2415,61.0,0.0436046250000004,70.0,0.2528088749999995
2416,63.0,0.2528088749999995,70.0,0.34544504166666457
2417,32.0,0.04213481249999518,51.0,0.3033102291666694
2418,64.0,0.04213481249999518,73.0,0.34889466666666635
2419,18.0,0.2611754166666742,51.0,0.3391158750000045
2420,30.0,0.14145600000000513,30.0,0.07072800000000257
2421,28.0,0.14145600000000513,30.0,0.07072800000000257
2422,26.0,0.1414559999999767,30.0,0.0743383749999964
2423,38.0,0.1486767499999928,42.0,0.4190775000000144
2424,30.0,0.14145600000000513,30.0,0.07072800000000257
2425,28.0,0.14145600000000513,30.0,0.06808275000000208
2426,43.0,0.13616550000000416,42.0,0.13380907499998784
2427,47.0,0.1486767499999928,44.0,0.28019050000000334
2428,30.0,0.14009525000000167,36.0,0.07004762500000083
2429,28.0,0.14009525000000167,33.0,0.07004762500000083
2430,42.0,0.14009525000000167,41.0,0.14810287499997798
2431,43.0,0.14810287499997798,42.0,0.2774290416666645
2432,30.0,0.13788837499998863,32.0,0.06960375000002728
2433,47.0,0.13954066666667586,42.0,0.29013058333333674
2434,26.0,0.14145383333334394,33.0,0.0743383749999964
2435,50.0,0.1486767499999928,47.0,0.2788620000000037
2436,30.0,0.13943100000000186,34.0,0.06971550000000093
2437,52.0,0.13943100000000186,47.0,0.06653062500001283
2438,54.0,0.13306124999999724,49.0,0.07395725000000652
2439,55.0,0.14791450000001305,51.0,0.13943100000000186
2440,30.0,0.13943100000000186,39.0,0.06971550000000093
2441,50.0,0.13943100000000186,45.0,0.1428434999999979
2442,26.0,0.1428434999999979,35.0,0.07395725000000652
2443,59.0,0.14791450000001305,54.0,0.5730447499999798
2444,30.0,0.14145600000000513,34.0,0.07072800000000257
2445,28.0,0.14145600000000513,34.0,0.07072800000000257
2446,26.0,0.1414559999999767,34.0,0.0743383749999964
2447,50.0,0.1486767499999928,49.0,0.8455895000000169
2448,30.0,0.13953499999999508,35.0,0.06976750000001175
2449,28.0,0.13953499999999508,35.0,0.06976750000001175
2450,26.0,0.1395350000000235,35.0,0.07395725000000652
2451,31.0,0.14791450000001305,42.0,0.06976750000001175
2452,30.0,0.13953499999999508,39.0,0.06976750000001175
2453,50.0,0.13953499999999508,50.0,0.07142175000001316
2454,50.0,0.1428434999999979,50.0,0.07358712499998887
2455,50.0,0.14717425000000617,52.0,0.13953499999999508
2456,30.0,0.13953499999999508,35.0,0.06976750000001175
2457,50.0,0.13953499999999508,49.0,0.1395350000000235
2458,26.0,0.1395350000000235,35.0,0.0743383749999964
2459,50.0,0.1486767499999928,53.0,0.41972350000000347
2460,30.0,0.14145600000000513,35.0,0.07072800000000257
2461,55.0,0.11519250000003467,43.0,0.3436696000000552
2462,56.0,0.11457383333333837,40.0,0.11457383333333837
2463,57.0,0.11457383333333837,40.0,0.11452193333337846
2464,56.0,0.11452193333337846,42.0,0.35350065000000086
2465,57.0,0.11643033333331232,39.0,0.11781843333335473
2466,56.0,0.11781843333335473,38.0,0.11925188333333381
2467,55.0,0.11925188333333381,41.0,0.41463819166665417
2468,56.0,0.12108706666668922,39.0,0.13316844999997102
2469,57.0,0.13316844999997102,38.0,0.16038267499999392
2470,56.0,0.16038267499999392,43.0,0.36176654166672506
2471,54.0,0.18341485833337856,41.0,0.1783516833333465
2472,52.0,0.1783516833333465,40.0,0.6963323999999602
2473,51.0,0.17691729999995687,39.0,0.1760239666666621
2474,50.0,0.1760239666666621,38.0,0.17186075000000756
2475,51.0,0.17186075000000756,38.0,0.1715303833333337
2476,52.0,0.1715303833333337,38.0,0.35876500000000533
2477,54.0,0.17095975000000863,39.0,0.1878052499999967
2478,55.0,0.1878052499999967,39.0,0.3451511333333315
2479,56.0,0.17468274999998812,39.0,0.17046838333334335
2480,61.0,0.17046838333334335,43.0,0.379745000000014
2481,60.0,0.2762681250000014,42.0,0.10347687500001257
2482,59.0,0.10347687500001257,49.0,0.18530684375002693
2483,58.0,0.18530684375002693,43.0,0.08850353124995536
2484,57.0,0.17643415624996805,41.0,0.3465102187500406
2485,56.0,0.17435723750003262,40.0,0.08636070000005702
2486,55.0,0.172152981250008,39.0,0.34130600625002216
2487,54.0,0.17099875000002385,39.0,0.17030725624999832
2488,51.0,0.17030725624999832,38.0,0.3454346604166858
2489,52.0,0.16985241041669497,38.0,0.17558224999999084
2490,49.0,0.17558224999999084,34.0,0.3401359999999727
2491,51.0,0.04251699999997527,34.0,0.04251700000003211
2492,49.0,0.04251700000003211,38.0,0.08503400000000738
2493,48.0,0.08503400000000738,38.0,0.17006799999995792
2494,49.0,0.17006799999995792,37.0,0.3401360000000295
2495,52.0,0.17006800000001476,38.0,0.17006800000001476
2496,20.0,0.17006800000001476,51.0,0.17186075000000756
2497,49.0,0.17186075000000756,41.0,0.17186075000000756
2498,47.0,0.17186075000000756,40.0,0.6834163749999789
2499,46.0,0.17186075000000756,39.0,0.1718607499999507
2500,45.0,0.1718607499999507,38.0,0.17006800000001476
2501,46.0,0.17006800000001476,38.0,0.16962687500000584
2502,44.0,0.07425737500000196,61.0,0.07425737500000196
2503,42.0,0.07425737500000196,65.0,0.07425737500000196
2504,44.0,0.07425737500000196,61.0,0.07425737500000196
2505,41.0,0.07425737500000196,81.0,0.294433333333302
2506,44.0,0.294433333333302,71.0,0.14072625000000016
2507,47.0,0.09381750000000011,73.0,0.09355491666667604
2508,50.0,0.09355491666667604,75.0,0.09329233333335196
2509,53.0,0.09329233333335196,77.0,0.13912075000001778
2510,56.0,0.09274716666664062,79.0,0.09274716666669747
2511,59.0,0.09274716666669747,81.0,0.09177900000003092
2512,62.0,0.09177900000003092,83.0,0.2810855000000174
2513,65.0,0.09216791666665358,85.0,0.09367733333334627
2514,77.0,0.09367733333334627,87.0,0.09524025000001757
2515,66.0,0.09524025000001757,89.0,0.14881166666668832
2516,61.0,0.2995654166666668,89.0,0.06882000000001653
2517,61.0,0.13763999999997623,83.0,0.07178412500002196
2518,61.0,0.14356824999998707,89.0,0.14423075000001973
2519,60.0,0.2884614999999826,83.0,0.14781249999998636
2520,61.0,0.14781249999998636,87.0,0.1557347500000219
2521,63.0,0.1557347500000219,91.0,0.2941175000000271
2522,58.0,0.2941175000000271,89.0,0.3174604999999815
2523,59.0,0.3174604999999815,88.0,0.1492982500000153
2524,39.0,0.29859649999997373,68.0,0.2870814999999993
2525,44.0,0.07177037500002825,61.0,0.07177037499997141
2526,42.0,0.07177037499997141,65.0,0.07177037500002825
2527,44.0,0.07177037500002825,61.0,0.07177037499997141
2528,41.0,0.07177037499997141,81.0,0.2861433333333139
2529,44.0,0.2861433333333139,71.0,0.14072625000000016
2530,47.0,0.09381750000000011,73.0,0.09355491666667604
2531,50.0,0.09355491666667604,75.0,0.09329233333335196
2532,53.0,0.09329233333335196,77.0,0.13811674999999468
2533,56.0,0.0922451666666575,79.0,0.09195449999998573
2534,59.0,0.09195449999998573,81.0,0.09259266666668964
2535,62.0,0.09259266666668964,83.0,0.28148116666665146
2536,65.0,0.09324066666670205,85.0,0.09367733333328943
2537,77.0,0.09367733333328943,87.0,0.09456316666665998
2538,78.0,0.09456316666665998,89.0,0.14705874999998514
2539,61.0,0.2941175000000271,89.0,0.06757974999999306
2540,61.0,0.1351594999999861,83.0,0.06978037499999346
2541,61.0,0.1395607499999869,89.0,0.14285725000002003
2542,63.0,0.14285725000002003,75.0,0.1428572499999632
2543,22.0,0.09355533333333099,36.0,0.10952199999999834
2544,51.0,0.09384800000000126,75.0,1.493926833333326
2545,22.0,0.09404400000000024,40.0,0.09384799999999771
2546,27.0,0.09384799999999771,42.0,0.09375
2547,29.0,0.09375,34.0,0.09345799999999826
2548,31.0,0.09345799999999826,42.0,0.09336125000000095
2549,29.0,0.09336125000000095,39.0,0.09316774999999922
2550,27.0,0.09316774999999922,39.0,0.09297541666666476
2551,36.0,0.09297541666666476,48.0,0.09278366666666926
2552,51.0,0.09278366666666926,75.0,0.6521992499999953
2553,32.0,0.0923077499999998,41.0,0.09259249999999852
2554,31.0,0.09259249999999852,37.0,0.0928792499999993
2555,29.0,0.0928792499999993,39.0,0.09316774999999922
2556,27.0,0.09316774999999922,46.0,0.09345799999999826
2557,29.0,0.09345799999999826,39.0,0.09375
2558,31.0,0.09375,42.0,0.09404400000000024
2559,51.0,0.09404400000000024,81.0,0.09433950000000024
2560,51.0,0.09433950000000024,78.0,1.5294119166666604
2561,22.0,0.09463725000000167,44.0,0.09463724999999812
2562,27.0,0.09463724999999812,48.0,0.09493674999999868
2563,29.0,0.09493674999999868,40.0,0.09493675000000223
2564,31.0,0.09493675000000223,50.0,0.09463725000000167
2565,29.0,0.09463725000000167,48.0,0.09463724999999812
2566,27.0,0.09463724999999812,49.0,0.09433950000000024
2567,36.0,0.09433950000000024,63.0,0.09424100000000024
2568,34.0,0.09424100000000024,63.0,0.09434024999999835
2569,32.0,0.09434024999999835,52.0,0.09493733333333054
2570,31.0,0.09493733333333054,46.0,0.09554208333333492
2571,29.0,0.09554208333333492,46.0,0.09615449999999726
2572,27.0,0.09615449999999726,55.0,0.09687866666666878
2573,29.0,0.09687866666666878,44.0,0.09750824999999708
2574,31.0,0.09750824999999708,48.0,0.09814641666666546
2575,50.0,0.09814641666666546,75.0,0.09890141666666707
2576,50.0,0.09890141666666707,74.0,3.0564540000000022
2577,22.0,0.0955414999999995,48.0,0.09533916666666897
2578,27.0,0.09533916666666897,50.0,0.09503716666666406
2579,29.0,0.09503716666666406,41.0,0.09483691666666871
2580,31.0,0.09483691666666871,49.0,0.11026125000000064
2581,29.0,0.09453800000000356,45.0,0.11001350000000087
2582,27.0,0.09433950000000024,45.0,0.10966899999999669
2583,36.0,0.09404399999999669,53.0,0.10922899999999913
2584,30.0,0.092948625,57.0,0.10576912500000013
2585,29.0,0.09695503124999938,56.0,0.10576912500000013
2586,27.0,0.09455118750000047,55.0,0.10576912500000013
2587,22.0,0.09935887500000007,54.0,0.10605945833333408
2588,15.0,0.0953524687500007,56.0,0.10871712500000008
2589,22.0,0.09965736458333296,59.0,0.10871712500000008
2590,27.0,0.09471567708333417,62.0,0.10871712500000008
2591,29.0,0.10212820833333325,63.0,0.10871712500000008
2592,30.0,0.10295182291666549,68.0,0.10871712500000008
2593,29.0,0.09636290625000044,66.0,0.10871712500000008
2594,27.0,0.101304593750001,63.0,0.10871712500000008
2595,22.0,0.09224483333333211,59.0,0.09883375000000072
2596,15.0,0.09965736458333296,56.0,0.10871712500000186
2597,22.0,0.09718652083333446,59.0,0.10958477500000008
2598,27.0,0.10678856250000024,63.0,0.12479441874999964
2599,63.0,0.1073763958333327,95.0,0.13458904166666663
2600,65.0,0.12214091666666604,102.0,0.38338485416666757
2601,30.0,0.005186718750000097,67.0,0.13692937499999935
2602,29.0,0.11514515624999966,65.0,0.13692937499999935
2603,27.0,0.12966796875000064,63.0,0.1367633916666673
2604,22.0,0.11810638124999961,61.0,0.13464809999999972
2605,66.0,0.004017358333333831,107.0,0.13513524999999937
2606,15.0,0.134009122916666,59.0,0.11136432500000026
2607,66.0,0.0011261270833333725,114.0,0.7965324999999996
2608,22.0,0.10520463541666736,46.0,0.11057841874999852
2609,27.0,0.09218376041666687,47.0,0.11023693749999808
2610,29.0,0.1077369374999968,49.0,0.10969020000000285
2611,30.0,0.09478403750000197,51.0,0.10924971250000226
2612,34.0,0.0985154354166653,52.0,0.10878617916666755
2613,39.0,0.1038519666666673,54.0,0.10840440416667008
2614,41.0,0.0952896375000023,55.0,0.10792373333333316
2615,42.0,0.09651510833333177,57.0,0.10749971250000101
2616,41.0,0.10098506250000128,55.0,0.10749172499999915
2617,39.0,0.09771974999999955,54.0,0.10955133124999605
2618,34.0,0.09609108749999962,52.0,0.12939927083333203
2619,58.0,0.0008143312499981903,47.0,0.11673150000000021
2620,30.0,0.11673150000000021,50.0,0.3879307499999989
2621,29.0,0.13038783541666632,49.0,0.14224127499999994
2622,27.0,0.12931024999999963,47.0,0.14393314375000088
2623,54.0,0.12823266458333293,54.0,0.1346990833333308
2624,22.0,0.004830916666666241,43.0,0.13342688333333186
2625,28.0,0.0928022958333301,56.0,0.10808623124999883
2626,52.0,0.0982648124999983,76.0,0.32142824999999675
2627,33.0,0.004464281250001534,57.0,0.11785702499999928
2628,36.0,0.09999990000000025,61.0,0.11785702499999928
2629,32.0,0.11339274374999775,65.0,0.11872282499999898
2630,54.0,0.10357132499999722,86.0,0.113636249999999
2631,33.0,0.00094696875000011,67.0,0.11357896041666748
2632,16.0,0.11174231249999877,70.0,0.05343803958333382
2633,55.0,0.00094696875000011,91.0,1.1682496249999943
2634,40.0,0.10756535833333203,60.0,0.10610929999999996
2635,30.0,0.09726685833333448,53.0,0.10610929999999996
2636,31.0,0.09083599166666545,56.0,0.10610929999999996
2637,35.0,0.09887457499999641,59.0,0.10610929999999996
2638,40.0,0.09565914166667255,61.0,0.10610929999999996
2639,27.0,0.0980707166666619,54.0,0.10610929999999996
2640,28.0,0.10048229166666545,55.0,0.10610929999999996
2641,31.0,0.09485528333333804,59.0,0.10610929999999996
2642,35.0,0.09726685833333448,62.0,0.10610929999999996
2643,22.0,0.09726685833332738,53.0,0.10610929999999996
2644,23.0,0.09244370833333448,56.0,0.1073792916666676
2645,28.0,0.0968383687499994,57.0,0.11654792291666638
2646,55.0,0.0008236145833322439,80.0,0.31802100000000166
2647,31.0,0.10954056666666645,61.0,0.11660770000000298
2648,18.0,0.10070664999999934,62.0,0.11777378333333388
2649,19.0,0.10689039166666703,65.0,0.11988339166666862
2650,57.0,0.0008833916666688424,86.0,0.11999999999999744
2651,59.0,0.11999999999999744,91.0,1.1973660000000024
2652,15.0,0.0008315041666691059,70.0,0.04989024999999714
2653,42.0,0.09728598749999406,60.0,0.10975855000000223
2654,34.0,0.1039380208333398,57.0,0.10975854999999513
2655,35.0,0.09978049999999428,59.0,0.10975855000000223
2656,36.0,0.09978050000000138,60.0,0.10975855000000223
2657,35.0,0.09978050000000138,61.0,0.10975855000000223
2658,33.0,0.09395997083333185,63.0,0.10975855000000223
2659,31.0,0.10061200416667049,64.0,0.10975854999999513
2660,30.0,0.09978049999999428,66.0,0.10975855000000223
2661,28.0,0.1039380208333398,65.0,0.10975854999999513
2662,27.0,0.10227501249999449,68.0,0.10975855000000223
2663,24.0,0.09479147500000096,70.0,0.1108350604166688
2664,59.0,0.10061200416667049,88.0,0.33457274999999953
2665,23.0,0.10780677500000024,71.0,0.12267667500000101
2666,30.0,0.09579592708332996,48.0,0.12847906250000563
2667,51.0,0.0025025000000056252,49.0,0.3515625
2668,29.0,0.1162109375,47.0,0.12890625
2669,27.0,0.1162109375,45.0,0.1301538333333383
2670,22.0,0.115234375,44.0,0.13165946666666173
2671,51.0,0.00390625,56.0,0.13215850000000273
2672,15.0,0.12885453750000408,43.0,0.11646195624999223
2673,54.0,0.0033039624999986472,57.0,0.8421060000000011
2674,22.0,0.10087728125000694,45.0,0.11578957499999376
2675,27.0,0.11228079999999352,47.0,0.11578957499999376
2676,29.0,0.10526324999999304,50.0,0.11578957500000797
2677,30.0,0.10614044375000731,50.0,0.11578957499999376
2678,29.0,0.09736850624999249,50.0,0.11578957500000797
2679,27.0,0.10877202500000749,50.0,0.11578957499999376
2680,22.0,0.10526324999999304,49.0,0.10526325000000725
2681,58.0,0.10614044375000731,69.0,0.16180599999999856
2682,15.0,0.0028554000000013957,47.0,0.12563760000000457
2683,22.0,0.11136059999999759,49.0,0.12584209999999985
2684,62.0,0.03807199999999966,82.0,0.16333975000000578
2685,27.0,0.07614399999999932,51.0,0.12788709999999526
2686,63.0,0.0775073333333296,87.0,0.16521875000000819
2687,29.0,0.041660191666665014,53.0,0.12866060000000346
2688,30.0,0.11044795000000818,55.0,0.13453920000000608
2689,64.0,0.002906525000000215,95.0,0.17346524999999247
2690,29.0,0.1234694083333352,55.0,0.13877493124998352
2691,65.0,0.03979592499999285,109.0,0.18855116666665594
2692,27.0,0.07751936666666381,55.0,0.17999729999999659
2693,22.0,0.1756869562499901,53.0,0.17065662500000656
2694,66.0,0.05028734374999999,104.0,0.11603141666667227
2695,66.0,0.11603141666667227,115.0,0.8195729166666865
2696,15.0,0.00347029166667312,54.0,0.114415975
2697,22.0,0.10403965000000426,54.0,0.11391743333332727
2698,27.0,0.09582024583332327,55.0,0.11349143125001149
2699,29.0,0.10749868750001212,57.0,0.11286313333333453
2700,30.0,0.10347619166667243,59.0,0.11243570624999677
2701,34.0,0.10393056041665716,61.0,0.11185973749999789
2702,39.0,0.10171911249999255,63.0,0.11139654166667867
2703,41.0,0.09623480416668428,65.0,0.11091551041666037
2704,42.0,0.10756789375000153,67.0,0.11047134999999741
2705,41.0,0.09875469166667017,63.0,0.11047134999999741
2706,39.0,0.09540707499999712,61.0,0.11077346875001126
2707,52.0,0.004545458333339525,66.0,0.32727299999999104
2708,28.0,0.1054546333333235,40.0,0.12000009999999861
2709,32.0,0.1154546416666733,42.0,0.12000009999999861
2710,34.0,0.10363644999999622,43.0,0.12000009999999861
2711,54.0,0.0027272749999980306,70.0,0.10909100000000649
2712,56.0,0.10909100000000649,75.0,0.43636399999999753
2713,35.0,0.0009090916666565363,44.0,0.12000010000001282
2714,34.0,0.10636372500000846,44.0,0.12000009999999861
2715,32.0,0.11090918333333377,43.0,0.12000009999999861
2716,28.0,0.11090918333333377,42.0,0.12000009999999861
2717,47.0,0.107272816666665,66.0,0.43636399999999753
2718,23.0,0.0036363666666687777,41.0,0.12000009999999861
2719,20.0,0.11000009166666302,40.0,0.12000009999999861
2720,16.0,0.10909100000000649,40.0,0.12000009999999861
2721,11.0,0.10090917499999819,39.0,0.10909099999999228
2722,10.0,0.10909099999999228,38.0,0.10728167500001007
2723,51.0,0.0036363666666687777,68.0,3.3461494166667194
2724,19.0,0.21645794791666617,42.0,0.1187051250000053
2725,18.0,0.10971231249999391,43.0,0.11839894791667405
2726,20.0,0.10854230625000127,43.0,0.11810038333334205
2727,19.0,0.09935040208334556,44.0,0.11785702499999218
2728,21.0,0.11517845624999268,44.0,0.11755202500000905
2729,20.0,0.10687587500001428,45.0,0.11726101666666011
2730,22.0,0.10219009166665671,45.0,0.11698683333334259
2731,21.0,0.10815291666666838,45.0,0.11660770000000298
2732,23.0,0.10689039166666703,46.0,0.11631532083335117
2733,22.0,0.1031111020833464,45.0,0.11616316250000125
2734,24.0,0.10475346875000469,47.0,0.11579574999998954
2735,23.0,0.11140978124998924,48.0,0.11549190624999994
2736,25.0,0.10500240625000856,49.0,0.1152108874999982
2737,24.0,0.10301577916665394,48.0,0.11493710625001086
2738,26.0,0.10278431875001104,49.0,0.11454437083334312
2739,25.0,0.10069452499999443,50.0,0.11404970416667481
2740,27.0,0.10284281041667498,50.0,0.1136508750000047
2741,26.0,0.10420070624999767,49.0,0.11311391041668628
2742,28.0,0.10628797708334048,52.0,0.11259017291666851
2743,27.0,0.10153575833334116,53.0,0.1120949999999965
2744,29.0,0.10023058333332813,53.0,0.1117212708333426
2745,28.0,0.100741552083349,52.0,0.11120787499999096
2746,30.0,0.10365753124999344,53.0,0.11088516666667658
2747,29.0,0.10246766666666929,51.0,0.11141841666666608
2748,56.0,0.21201400000000348,59.0,0.22471900000000034
2749,58.0,0.22471900000000034,64.0,0.432501000000002
2750,60.0,0.14234866666666335,61.0,0.14416700000000304
2751,58.0,0.14416700000000304,61.0,0.14598533333333563
2752,56.0,0.14598533333333563,66.0,0.4760994125000053
2753,46.0,0.3562617500000016,62.0,0.11983766250000372
2754,56.0,0.11983766250000372,68.0,0.16209908124999828
2755,45.0,0.16209908124999828,62.0,0.17021954375000092
2756,56.0,0.17021954375000092,69.0,0.11347112083333144
2757,56.0,0.11713323333333392,66.0,0.07324224999999984
2758,44.0,0.07324224999999984,70.0,0.212766000000002
2759,44.0,0.319149000000003,66.0,0.1063829999999939
2760,46.0,0.1063829999999939,70.0,0.4054050000000018
2761,48.0,0.4054050000000018,70.0,0.40959900000000005
2762,49.0,0.40959900000000005,71.0,0.20114941666666653
2763,51.0,0.30114941666666795,66.0,0.10000000000000142
2764,53.0,0.10000000000000142,70.0,0.3999999999999986
2765,54.0,0.3999999999999986,75.0,0.20000000000000284
2766,56.0,0.20000000000000284,79.0,0.20978999999999814
2767,58.0,0.20978999999999814,83.0,0.3338206250000013
2768,60.0,0.3050849999999983,75.0,0.11494249999999795
2769,34.0,0.02873562500000304,59.0,0.4994372916666663
2770,37.0,0.028735624999995935,59.0,0.47070166666667035
2771,42.0,0.02873562500000304,59.0,0.4419660416666673
2772,61.0,0.028735624999995935,76.0,0.4132304166666714
2773,63.0,0.05257025000000226,67.0,0.052204750000001354
2774,61.0,0.052204750000001354,73.0,0.05160604166666616
2775,63.0,0.05160604166666616,66.0,0.051369875000006004
2776,61.0,0.051369875000006004,70.0,0.0513698749999989
2777,63.0,0.0513698749999989,64.0,0.0513698749999989
2778,61.0,0.0513698749999989,70.0,0.0513698749999989
2779,63.0,0.0513698749999989,64.0,0.0513698749999989
2780,60.0,0.0513698749999989,70.0,0.20725616666666724
2781,58.0,0.20725616666666724,56.0,0.16544100000000128
2782,56.0,0.16544100000000128,51.0,0.05514699999999806
2783,61.0,0.05514699999999806,60.0,0.2717389999999966
2784,61.0,0.40760850000000204,55.0,0.08445950000000124
2785,53.0,0.08445950000000124,49.0,0.7874621249999976
2786,41.0,0.42105300000000057,29.0,0.4181332499999968
2787,54.0,0.366409124999997,50.0,0.05172412499999979
2788,58.0,0.05172412499999979,58.0,0.2622380000000035
2789,63.0,0.051369875000006004,64.0,0.051369874999991794
2790,60.0,0.051369874999991794,70.0,0.20713600000000554
2791,58.0,0.20713600000000554,56.0,0.21634612500000117
2792,56.0,0.21634612500000117,51.0,0.07211537499999565
2793,61.0,0.07211537499999565,60.0,0.2551019999999937
2794,61.0,0.3826530000000048,55.0,0.08600925000000359
2795,53.0,0.08600925000000359,49.0,0.7874621250000047
2796,41.0,0.42105300000000057,29.0,0.4181332499999968
2797,54.0,0.3664091250000041,50.0,0.05172412499999268
2798,58.0,0.05172412499999268,58.0,0.24671050000000605
2799,58.0,0.37006574999999486,51.0,0.08886250000000473
2800,48.0,0.08886250000000473,49.0,0.7864320416666573
2801,42.0,0.41831316666666396,28.0,0.4198430000000002
2802,49.0,0.3681188749999933,50.0,0.05172412500000689
2803,53.0,0.05172412500000689,56.0,0.24671050000000605
2804,53.0,0.37006574999999486,52.0,0.08844349999999679
2805,43.0,0.08844349999999679,49.0,0.8588584999999966
2806,41.0,0.4347829999999959,29.0,0.4240755000000007
2807,20.0,0.4240755000000007,57.0,0.20893808333333652
2808,48.0,0.31322575000001507,58.0,0.10416674999999032
2809,51.0,0.10416674999999032,59.0,0.41474850000003016
2810,54.0,0.20773266666668633,60.0,0.20701583333334383
2811,58.0,0.20701583333334383,67.0,0.4815334999999834
2812,56.0,0.3439187500000003,63.0,0.06880737499997736
2813,56.0,0.06880737499997736,49.0,0.06880737500000578
2814,65.0,0.06880737500000578,67.0,0.22556399999999144
2815,63.0,0.3304589999999905,61.0,0.10489499999999907
2816,61.0,0.10489499999999907,50.0,0.4195799999999963
2817,63.0,0.052447499999999536,49.0,0.052447499999999536
2818,61.0,0.052447499999999536,57.0,0.10489499999999907
2819,58.0,0.10489499999999907,52.0,0.20978999999999814
2820,56.0,0.20978999999999814,49.0,0.4562119999999936
2821,58.0,0.39611587499999246,45.0,0.060096125000001166
2822,61.0,0.060096125000001166,51.0,0.26595750000001317
2823,61.0,0.39893624999999133,46.0,0.08971299999998905
2824,48.0,0.08971299999998905,44.0,0.7343864166666663
2825,42.0,0.41859666666667295,25.0,0.419842999999986
2826,49.0,0.3157897499999933,42.0,0.052329124999999976
2827,53.0,0.052329124999999976,41.0,0.05172412499999268
2828,56.0,0.05172412499999268,49.0,0.26978399999998715
2829,56.0,0.40467599999999493,47.0,0.09375
2830,53.0,0.12642233333333763,66.0,0.42366900000000385
2831,50.0,0.42366900000000385,59.0,0.43159300000000655
2832,47.0,0.43159300000000655,61.0,0.3851089999999999
2833,45.0,0.12836966666667138,57.0,0.048138624999992885
2834,43.0,0.12836966666665717,57.0,0.048138625000007096
2835,48.0,0.12836966666667138,60.0,0.6434095000000042
2836,31.0,0.4268030000000067,44.0,0.43321299999999496
2837,50.0,0.21660649999999748,60.0,0.21660649999999748
2838,52.0,0.21660649999999748,57.0,0.38314200000000653
2839,53.0,0.12771399999999744,60.0,0.04789275000000259
2840,55.0,0.12771399999999744,63.0,0.04789275000000259
2841,53.0,0.12771400000001165,68.0,0.4283879999999982
2842,50.0,0.4283879999999982,60.0,0.43321299999999496
2843,47.0,0.43321299999999496,61.0,0.38709699999999714
2844,45.0,0.12903233333332764,63.0,0.04838712500000497
2845,43.0,0.12903233333334185,64.0,0.04838712499999076
2846,48.0,0.12903233333332764,68.0,0.8634577916666615
2847,36.0,0.43159300000000655,46.0,0.4318647916666549
2848,52.0,0.4318647916666549,80.0,1.2930391666666736
2849,52.0,0.32858699999999885,75.0,0.10892704166666078
2850,53.0,0.10892704166666078,79.0,0.31775174999999933
2851,50.0,0.42399916666667536,72.0,0.32369475000000136
2852,52.0,0.4315259583333386,77.0,1.2452442916666655
2853,50.0,0.12771399999999744,72.0,0.12771399999999744
2854,48.0,0.12771399999999744,72.0,0.12953320833332782
2855,53.0,0.12953320833332782,78.0,0.32010225000000503
2856,50.0,0.42707008333334784,73.0,0.32490975000000333
2857,52.0,0.43321299999999496,80.0,1.2930391666666736
2858,52.0,0.32858699999999885,75.0,0.10892704166666078
2859,53.0,0.10892704166666078,79.0,0.31775174999999933
2860,50.0,0.42399916666667536,72.0,0.32369475000000136
2861,52.0,0.4315259583333386,77.0,0.3887514166666648
2862,50.0,0.12903233333332764,72.0,0.12903233333334185
2863,48.0,0.12903233333334185,72.0,0.1306867499999953
2864,69.0,0.1306867499999953,89.0,0.43321299999999496
2865,69.0,0.43321299999999496,83.0,0.4332130000000092
2866,52.0,0.4332130000000092,80.0,1.2930391666666736
2867,52.0,0.32858699999999885,75.0,0.10892704166666078
2868,53.0,0.10892704166666078,79.0,0.31775174999999933
2869,50.0,0.42399916666667536,72.0,0.32369475000000136
2870,52.0,0.4315259583333386,77.0,1.7222642500000092
2871,34.0,0.10011149999999702,68.0,0.09873416666667012
2872,32.0,0.09955925000000221,94.0,0.09971882291666745
2873,34.0,0.10056341666667024,70.0,0.10234811041666347
2874,46.0,0.103216166666666,83.0,0.10499815416666891
2875,34.0,0.10588783333333396,64.0,0.1018045833333332
2876,31.0,0.10263791666666577,106.0,0.09883718541666653
2877,34.0,0.09966774999999828,69.0,0.09850993541666497
2878,43.0,0.09933775000000011,69.0,0.09807904791666644
2879,43.0,0.09890141666666707,69.0,0.19683000000000206
2880,46.0,0.09857641666666694,80.0,0.09743658958333512
2881,55.0,0.09825358333333511,70.0,0.09701191874999893
2882,55.0,0.09782625000000067,70.0,0.09669656250000003
2883,58.0,0.09750824999999708,70.0,0.09638343750000189
2884,67.0,0.09719250000000201,87.0,0.09606960416666865
2885,67.0,0.09687866666666878,71.0,0.09648581249999921
2886,70.0,0.09729749999999626,71.0,0.09700925625000067
2887,79.0,0.09782625000000067,71.0,0.09764491666666686
2888,70.0,0.09846999999999895,80.0,0.09971882291666745
2889,67.0,0.10056341666667024,69.0,0.10234811041666347
2890,67.0,0.103216166666666,69.0,0.10499815416666891
2891,58.0,0.10588783333333396,69.0,0.1018045833333332
2892,55.0,0.10263791666666577,72.0,0.10282484791666491
2893,55.0,0.10368691666666408,62.0,0.10235214375000368
2894,46.0,0.10321125000000109,62.0,0.10176959166666677
2895,43.0,0.10262283333333144,62.0,0.10130649375000189
2896,43.0,0.10215683333333558,92.0,0.4055195833333336
2897,34.0,0.10146583333333226,62.0,0.10050665625000121
2898,31.0,0.10135125000000045,62.0,0.10050665625000121
2899,34.0,0.10135125000000045,62.0,0.10050665625000121
2900,29.0,0.10135125000000045,89.0,0.10050665625000121
2901,34.0,0.10135125000000045,63.0,0.10050665624999766
2902,41.0,0.10135125000000045,69.0,0.4131387500000052
2903,34.0,0.10135125000000045,66.0,0.10073074374999891
2904,27.0,0.1015810833333326,86.0,0.10282075416666814
2905,34.0,0.10369183333333609,67.0,0.10561852500000057
2906,39.0,0.10651458333333608,68.0,0.22186874999999517
2907,34.0,0.10936208333333042,62.0,0.11155969791666465
2908,29.0,0.11250666666666476,95.0,0.09883718541666653
2909,34.0,0.09966774999999828,67.0,0.09850993541666497
2910,41.0,0.09933775000000011,67.0,0.09807904791666644
2911,41.0,0.09890141666666707,67.0,0.19683000000000206
2912,56.0,0.09750825000000418,68.0,0.09617663124998899
2913,56.0,0.09698308333332761,68.0,0.0957628916666664
2914,63.0,0.09656674999999382,68.0,0.09525269374999823
2915,68.0,0.09605141666666839,88.0,0.09535064166665563
2916,62.0,0.09615449999999726,71.0,0.09617402083333104
2917,56.0,0.09698308333332761,72.0,0.09690350625000121
2918,56.0,0.0977204999999941,72.0,0.09754107708333493
2919,50.0,0.09836074999999767,81.0,0.09872604583331679
2920,44.0,0.09956216666665796,69.0,0.10107400208333672
2921,44.0,0.1019301666666621,69.0,0.11063951041666087
2922,38.0,0.11169883333332109,69.0,0.13595035625000662
2923,35.0,0.1371408333333335,108.0,0.09949837916666127
2924,38.0,0.10033450000000244,67.0,0.09916666666666174
2925,47.0,0.09999999999999432,67.0,0.09872993541667086
2926,47.0,0.09955775000000244,67.0,0.0984034166666703
2927,50.0,0.09922850000000949,81.0,0.09807904791666999
2928,59.0,0.09890141666666352,70.0,0.09764891041666601
2929,59.0,0.09846858333332875,70.0,0.09732942291667257
2930,62.0,0.09814641666666546,70.0,0.09701191874999893
2931,71.0,0.09782624999999712,92.0,0.09659081249999701
2932,62.0,0.09740250000000117,67.0,0.0967996687499948
2933,59.0,0.09761399999999298,69.0,0.09711575625000535
2934,59.0,0.09793274999999824,69.0,0.09743391041666882
2935,50.0,0.09825358333333156,82.0,0.09850821249999342
2936,47.0,0.09934433333333459,67.0,0.10153409791666945
2937,47.0,0.10239616666666507,67.0,0.1047519041666618
2938,38.0,0.10564158333333751,67.0,0.10818046666668124
2939,34.0,0.10909958333334657,106.0,0.09927816666666445
2940,38.0,0.10011149999999702,67.0,0.09872993541667086
2941,46.0,0.09955775000000244,67.0,0.09829416666666191
2942,46.0,0.0991192500000011,67.0,0.0977567437499971
2943,50.0,0.09857641666665984,81.0,0.09732942291667257
2944,58.0,0.09814641666666546,70.0,0.09680231250000304
2945,58.0,0.09761399999999298,70.0,0.096383437500009
2946,62.0,0.09719250000000557,70.0,0.09586664166666026
2947,70.0,0.09667050000000188,90.0,0.0954529750000006
2948,62.0,0.09625683333334223,67.0,0.096069604166658
2949,58.0,0.09687866666666878,69.0,0.09669391875000599
2950,58.0,0.09750825000000418,69.0,0.09743391041666882
2951,50.0,0.09825358333333156,82.0,0.09850821249999342
2952,46.0,0.09934433333333459,67.0,0.10153409791666945
2953,39.0,0.10526658333333216,71.0,0.13608876874999964
2954,35.0,0.13698162499999,108.0,0.10301266041666679
2955,39.0,0.10386882499999217,70.0,0.1009671562500074
2956,47.0,0.10181175000001019,70.0,0.09961483333333376
2957,47.0,0.10044816666666634,70.0,0.09840416666665419
2958,51.0,0.09922924999999339,85.0,0.0977567437499971
2959,59.0,0.09857641666665984,71.0,0.09732942291667257
2960,59.0,0.09814641666666546,70.0,0.09680231250000304
2961,63.0,0.09761399999999298,70.0,0.096383437500009
2962,71.0,0.09719250000000557,97.0,0.09596779791667132
2963,63.0,0.09677424999999573,75.0,0.09638081250000141
2964,59.0,0.09719249999999136,73.0,0.096799668750009
2965,59.0,0.0976140000000072,73.0,0.09732674375000272
2966,51.0,0.09814641666666546,82.0,0.09905482291667056
2967,47.0,0.09989375000000678,72.0,0.10164868125001192
2968,47.0,0.10251075000000753,72.0,0.10450539166666317
2969,39.0,0.1053919166666617,71.0,0.10735792916666753
2970,35.0,0.10822900833332483,110.0,0.10313994375002267
2971,38.0,0.10400499583336398,70.0,0.10223741874999348
2972,47.0,0.10309358333331886,70.0,0.10085107291666873
2973,47.0,0.10169566666667151,70.0,0.09972354583332788
2974,50.0,0.10055966666666905,85.0,0.09938966666666715
2975,59.0,0.10022299999999973,71.0,0.09905868541666507
2976,59.0,0.09988924999998972,70.0,0.09883718541667008
2977,62.0,0.09966775000000894,70.0,0.09850993541667208
2978,71.0,0.09933775000000367,97.0,0.09818491666666773
2979,62.0,0.09901000000000693,75.0,0.09850993541667208
2980,59.0,0.09933775000000367,73.0,0.09894516666666675
2981,59.0,0.09977849999999933,73.0,0.09927537916665585
2982,50.0,0.10011149999999702,82.0,0.09972007291666785
2983,47.0,0.10055900000000406,72.0,0.10164868125001192
2984,47.0,0.10251075000000753,72.0,0.10450539166666317
2985,38.0,0.1053919166666617,71.0,0.10705470833333663
2986,34.0,0.10792883333333236,108.0,0.1025899770833405
2987,38.0,0.1034490833333308,70.0,0.10153949374999627
2988,46.0,0.10238983333333351,70.0,0.10051033333333237
2989,46.0,0.10135208333333878,70.0,0.09950191666666797
2990,50.0,0.10033525000000054,85.0,0.09916666666666174
2991,58.0,0.10000000000000853,71.0,0.09883718541667008
2992,58.0,0.09966774999999473,70.0,0.09861993541667857
2993,62.0,0.09944775000001016,70.0,0.0984034166666703
2994,60.0,0.0545971250000008,70.0,0.10919424999999805
2995,55.0,0.22435749999999643,71.0,0.20591850000000278
2996,53.0,0.04836212500000059,58.0,0.04836212500000059
2997,55.0,0.04836212500000059,65.0,0.1091942500000016
2998,53.0,0.0545971250000008,49.0,0.16379137499999885
2999,60.0,0.0545971250000008,66.0,0.10919424999999805
3000,53.0,0.22559049999999914,72.0,0.2090904999999985
3001,51.0,0.048524874999998246,58.0,0.0485248750000018
3002,53.0,0.0485248750000018,64.0,0.11204074999999847
3003,51.0,0.056020374999999234,53.0,0.16806112500000125
3004,58.0,0.056020374999999234,65.0,0.11204075000000202
3005,53.0,0.22932900000000345,80.0,0.21561375000000282
3006,51.0,0.050335624999998885,59.0,0.05033562500000244
3007,53.0,0.05033562500000244,66.0,0.1149425000000015
3008,51.0,0.057471249999998975,57.0,0.17241375000000048
3009,56.0,0.05747125000000253,71.0,0.11494249999999795
3010,65.0,0.23739149999999754,72.0,0.22344825000000057
3011,63.0,0.05172412499999979,55.0,0.05172412499999979
3012,65.0,0.05172412499999979,61.0,0.120000000000001
3013,63.0,0.05999999999999872,51.0,0.17999999999999972
3014,68.0,0.060000000000002274,65.0,0.11999999999999744
3015,77.0,0.24931024999999707,75.0,0.22237200000000001
3016,75.0,0.0531499999999987,60.0,0.05315000000000225
3017,77.0,0.05315000000000225,66.0,0.11607199999999906
3018,75.0,0.05803600000000131,58.0,0.20581924999999757
3019,80.0,0.058035999999997756,71.0,0.1477832499999998
3020,53.0,0.2955664999999996,58.0,0.21051424999999924
3021,51.0,0.09704975000000005,47.0,0.34741099999999747
3022,58.0,0.11346449999999919,65.0,0.23394649999999828
3023,53.0,0.23394649999999828,56.0,0.2075877499999983
3024,51.0,0.09704975000000005,44.0,0.33643400000000057
3025,58.0,0.11053799999999825,66.0,0.22589600000000232
3026,53.0,0.22589600000000232,58.0,0.20582424999999915
3027,51.0,0.09704975000000005,47.0,0.333075749999999
3028,60.0,0.10877449999999911,70.0,0.2243012499999999
3029,51.0,0.2243012499999999,61.0,0.2080782499999998
3030,49.0,0.09737725000000097,47.0,0.336928750000002
3031,61.0,0.11070099999999883,64.0,0.22622775000000317
3032,51.0,0.22622775000000317,52.0,0.20816075000000112
3033,49.0,0.09704975000000005,44.0,0.337385249999997
3034,56.0,0.11111100000000107,59.0,0.2262742499999959
3035,72.0,0.23019225000000176,65.0,0.215438000000006
3036,70.0,0.09797525000000462,54.0,0.11746275000000139
3037,75.0,0.11746275000000139,65.0,0.24021224999999902
3038,70.0,0.24021224999999902,68.0,0.20909050000000207
3039,68.0,0.09704974999999649,54.0,0.11204075000000557
3040,75.0,0.11204075000000557,67.0,0.23021599999998443
3041,70.0,0.23021599999998443,65.0,0.2089347499999974
3042,69.0,0.09804549999999779,46.0,0.1108892499999996
3043,74.0,0.1108892499999996,56.0,0.05544462500000691
3044,68.0,0.2271862500000026,66.0,0.20843175000000258
3045,67.0,0.09797525000000462,49.0,0.11045649999999796
3046,74.0,0.11045649999999796,61.0,0.05522824999999898
3047,68.0,0.22966499999999712,68.0,0.20909050000000207
3048,67.0,0.09704974999999649,48.0,0.11204075000000557
3049,72.0,0.11204075000000557,59.0,0.056020374999988576
3050,67.0,0.23021599999998443,61.0,0.2089347499999974
3051,65.0,0.09804549999999779,45.0,0.1108892499999996
3052,72.0,0.1108892499999996,55.0,0.05544462500000691
3053,65.0,0.2271862500000026,63.0,0.20843175000000258
3054,63.0,0.09797525000000462,47.0,0.11045649999999796
3055,70.0,0.11045649999999796,56.0,0.05522824999999898
3056,65.0,0.22966499999999712,65.0,0.20909050000000207
3057,63.0,0.09704974999999649,46.0,0.11204075000000557
3058,68.0,0.11204075000000557,56.0,0.056020374999988576
3059,58.0,0.23021599999998443,59.0,0.2089347499999974
3060,57.0,0.09804549999999779,43.0,0.1108892499999996
3061,62.0,0.1108892499999996,54.0,0.05544462500000691
3062,56.0,0.2271862500000026,58.0,0.20843175000000258
3063,55.0,0.09797525000000462,44.0,0.11045649999999796
3064,62.0,0.11045649999999796,54.0,0.05522824999999898
3065,56.0,0.22966499999999712,60.0,0.20909050000000207
3066,55.0,0.09704974999999649,43.0,0.11204075000000557
3067,60.0,0.11204075000000557,53.0,0.056020374999988576
3068,55.0,0.23021599999998443,58.0,0.2089347499999974
3069,53.0,0.09804549999999779,39.0,0.1108892499999996
3070,60.0,0.1108892499999996,51.0,0.05544462500000691
3071,53.0,0.2271862500000026,57.0,0.20843175000000258
3072,51.0,0.09797525000000462,44.0,0.11045649999999796
3073,58.0,0.11045649999999796,54.0,0.05522824999999898
3074,53.0,0.22966499999999712,60.0,0.20909050000000207
3075,51.0,0.09704974999999649,43.0,0.11204075000000557
3076,75.0,0.1327197499999997,51.0,0.13520691666666806
3077,72.0,0.13520691666666806,45.0,0.13645050000000225
3078,70.0,0.13645050000000225,53.0,0.27649749999999784
3079,67.0,0.13824875000000247,45.0,0.13824874999999537
3080,63.0,0.13824874999999537,45.0,0.13824875000000247
3081,60.0,0.13824875000000247,45.0,0.13824875000000247
3082,58.0,0.13824875000000247,51.0,0.13824874999999537
3083,63.0,0.13824874999999537,40.0,0.13824875000000247
3084,75.0,0.13824875000000247,45.0,0.1421800000000033
3085,70.0,0.1421800000000033,37.0,1.2230070000000026
3086,39.0,0.0710899999999981,40.0,1.1519170000000045
3087,75.0,0.0710899999999981,45.0,1.0808270000000064
3088,72.0,0.13590649999999727,41.0,0.13590650000000437
3089,68.0,0.13590650000000437,41.0,0.13590649999999727
3090,65.0,0.13590649999999727,42.0,0.13590650000000437
3091,63.0,0.13590650000000437,45.0,0.13430025000000256
3092,68.0,0.13430025000000256,41.0,0.13430024999999546
3093,80.0,0.13430024999999546,45.0,0.13430025000000256
3094,77.0,0.13430025000000256,42.0,0.13430025000000256
3095,75.0,0.13430025000000256,45.0,0.13430024999999546
3096,72.0,0.13430024999999546,42.0,0.13430025000000256
3097,68.0,0.13430025000000256,42.0,0.13430024999999546
3098,65.0,0.13430024999999546,42.0,0.13430025000000256
3099,63.0,0.13430025000000256,45.0,0.13430025000000256
3100,68.0,0.13430025000000256,43.0,0.13430024999999546
3101,80.0,0.13430024999999546,45.0,0.13430025000000256
3102,77.0,0.13430025000000256,42.0,0.13430025000000256
3103,75.0,0.13430025000000256,46.0,0.5308789999999988
3104,72.0,0.1327197499999997,43.0,0.1327197499999997
3105,68.0,0.1327197499999997,43.0,0.1327197499999997
3106,65.0,0.1327197499999997,43.0,0.1327197499999997
3107,39.0,0.0663598750000034,29.0,0.0663598749999963
3108,63.0,0.0663598749999963,45.0,0.13793958333333478
3109,39.0,0.06944545833332683,34.0,0.06849412500000795
3110,68.0,0.06849412500000795,42.0,0.134334333333328
3111,39.0,0.06756850000000014,36.0,0.06676583333332786
3112,80.0,0.06676583333332786,45.0,0.13544825000000316
3113,39.0,0.06726549999999776,36.0,0.0681827500000054
3114,77.0,0.0681827500000054,43.0,0.14006895833333743
3115,39.0,0.06958020833333478,37.0,0.07048875000000265
3116,75.0,0.07048875000000265,45.0,1.0872519999999994
3117,59.0,0.10325233333333728,49.0,0.10797399999999868
3118,63.0,0.10797399999999868,70.0,0.10325233333333017
3119,51.0,0.10325233333333017,42.0,0.1035356666666658
3120,58.0,0.1035356666666658,43.0,0.1038206666666639
3121,61.0,0.1038206666666639,62.0,0.10417366666666794
3122,49.0,0.10417366666666794,43.0,0.10446200000000516
3123,54.0,0.10446200000000516,43.0,0.10475183333333149
3124,58.0,0.10475183333333149,60.0,0.10504350000000073
3125,46.0,0.10504350000000073,43.0,0.10541033333333161
3126,49.0,0.10541033333333161,41.0,0.10484083333332705
3127,54.0,0.10484083333332705,53.0,0.1026903333333351
3128,42.0,0.1026903333333351,38.0,0.10241166666666857
3129,48.0,0.10241166666666857,38.0,0.10213466666666449
3130,53.0,0.10213466666666449,54.0,0.10184641666666039
3131,41.0,0.10184641666666039,41.0,0.1011385833333378
3132,48.0,0.1011385833333378,43.0,0.10043991666667296
3133,54.0,0.10043991666667296,64.0,0.09968883333333167
3134,42.0,0.09968883333333167,51.0,0.0990102500000063
3135,48.0,0.0990102500000063,57.0,0.09834058333333218
3136,58.0,0.09834058333333218,71.0,0.09847500000000053
3137,46.0,0.09847500000000053,51.0,0.09879733333333718
3138,49.0,0.09879733333333718,51.0,0.09912166666666877
3139,56.0,0.09912166666666877,67.0,0.09951374999999985
3140,44.0,0.09951374999999985,43.0,0.0998429999999999
3141,49.0,0.0998429999999999,42.0,0.10017425000000202
3142,53.0,0.10017425000000202,63.0,0.10056975000000534
3143,41.0,0.10056975000000534,42.0,0.10090583333332859
3144,44.0,0.10090583333332859,41.0,0.10077400000000836
3145,54.0,0.10077400000000836,53.0,0.106383000000001
3146,42.0,0.106383000000001,38.0,0.10386566666666397
3147,48.0,0.10386566666666397,38.0,0.10443899999999218
3148,53.0,0.10443899999999218,54.0,0.1040313333333387
3149,41.0,0.1040313333333387,41.0,0.10356008333333477
3150,48.0,0.10356008333333477,43.0,0.10309308333332723
3151,54.0,0.10309308333332723,65.0,0.10282908333334007
3152,42.0,0.10282908333334007,51.0,0.10506058333333357
3153,48.0,0.10506058333333357,58.0,0.11434400000000267
3154,58.0,0.11434400000000267,71.0,0.10282766666666987
3155,46.0,0.10282766666666987,54.0,0.10282766666666276
3156,51.0,0.10282766666666276,51.0,0.10282766666666987
3157,56.0,0.10282766666666987,60.0,0.10443866666666679
3158,64.0,0.08620683333333368,84.0,0.08620683333333368
3159,57.0,0.08620683333333368,66.0,0.0862068333333319
3160,61.0,0.0862068333333319,63.0,0.08620683333333368
3161,57.0,0.08620683333333368,74.0,0.09698268750000061
3162,61.0,0.08620683333333368,66.0,0.08620683333333368
3163,52.0,0.08620683333333368,63.0,0.08620683333333368
3164,57.0,0.08620683333333368,68.0,0.09698268749999883
3165,54.0,0.0862068333333319,65.0,0.08620683333333368
3166,57.0,0.08620683333333368,62.0,0.08620683333333368
3167,52.0,0.08620683333333368,74.0,0.09698268750000061
3168,57.0,0.08620683333333368,65.0,0.08620683333333368
3169,49.0,0.08620683333333368,61.0,0.0862068333333319
3170,52.0,0.0862068333333319,74.0,0.08620683333333368
3171,45.0,0.08620683333333368,67.0,0.08620683333333368
3172,49.0,0.08620683333333368,65.0,0.08620683333333368
3173,40.0,0.08620683333333368,74.0,0.09698268750000061
3174,52.0,0.08620683333333368,71.0,0.08620683333333368
3175,47.0,0.08620683333333368,67.0,0.08620683333333368
3176,52.0,0.08620683333333368,75.0,0.09698268749999883
3177,47.0,0.0862068333333319,70.0,0.08620683333333368
3178,59.0,0.08620683333333368,65.0,0.08620683333333368
3179,47.0,0.08620683333333368,72.0,0.09698268749999883
3180,59.0,0.08620683333333368,70.0,0.08620683333333368
3181,54.0,0.08620683333333368,67.0,0.0862068333333319
3182,59.0,0.0862068333333319,78.0,0.09698268750000061
3183,54.0,0.08620683333333368,74.0,0.08620683333333368
3184,66.0,0.08620683333333368,72.0,0.08620683333333368
3185,54.0,0.08620683333333368,82.0,0.780399000000001
3186,66.0,0.08620683333333368,78.0,0.0862068333333319
3187,59.0,0.0862068333333319,78.0,0.08620683333333368
3188,66.0,0.08620683333333368,80.0,0.25862050000000103
3189,59.0,0.08620683333333368,77.0,0.08620683333333368
3190,71.0,0.08620683333333368,73.0,0.08620683333333368
3191,59.0,0.08620683333333368,88.0,0.26315800000000067
3192,71.0,0.08771933333333415,81.0,0.08771933333333237
3193,64.0,0.08771933333333237,73.0,0.08771933333333415
3194,71.0,0.08771933333333415,92.0,0.08771933333333237
3195,64.0,0.08771933333333237,83.0,0.08771933333333415
3196,76.0,0.08771933333333415,83.0,0.08771933333333237
3197,69.0,0.08771933333333237,98.0,0.09698268750000061
3198,73.0,0.08620683333333368,74.0,0.08620683333333368
3199,52.0,0.08833916666666397,62.0,0.08833916666666397
3200,47.0,0.08833916666666397,65.0,0.08833916666667108
3201,59.0,0.08833916666667108,59.0,0.08833916666666397
3202,52.0,0.08833916666666397,54.0,0.08833916666666397
3203,59.0,0.08833916666666397,65.0,0.08833916666667108
3204,59.0,0.08833916666667108,58.0,0.08833916666666397
3205,71.0,0.08833916666666397,59.0,0.08833916666667108
3206,43.0,0.08833916666667108,75.0,0.4066139999999976
3207,71.0,0.09035866666666692,57.0,0.09035866666666692
3208,59.0,0.09035866666666692,60.0,0.09035866666666692
3209,59.0,0.09035866666666692,65.0,0.09035866666666692
3210,52.0,0.09035866666666692,63.0,0.09035866666666692
3211,44.0,0.04517933333332991,69.0,0.13553800000000393
3212,59.0,0.04517933333333701,56.0,0.09035866666666692
3213,32.0,0.09035866666666692,77.0,0.13824875000000247
3214,54.0,0.09216583333333261,62.0,0.09216583333333261
3215,52.0,0.09216583333333261,57.0,0.09216583333333261
3216,66.0,0.09216583333333261,64.0,0.2654865000000015
3217,64.0,0.0884955000000005,61.0,0.0884955000000005
3218,78.0,0.0884955000000005,61.0,0.0884955000000005
3219,76.0,0.0884955000000005,73.0,0.27149299999999954
3220,78.0,0.09049766666666414,65.0,0.09049766666667125
3221,76.0,0.09049766666667125,66.0,0.09049766666666414
3222,64.0,0.09049766666666414,80.0,0.28406400000000076
3223,66.0,0.09468799999999788,75.0,0.09468800000000499
3224,64.0,0.09468800000000499,70.0,0.09468799999999788
3225,47.0,0.09468799999999788,84.0,0.5497020000000035
3226,54.0,0.0916169999999994,77.0,0.0916169999999994
3227,52.0,0.0916169999999994,73.0,0.0916169999999994
3228,66.0,0.0916169999999994,78.0,0.0916169999999994
3229,64.0,0.0916169999999994,70.0,0.0916169999999994
3230,78.0,0.0916169999999994,74.0,0.0916170000000065
3231,46.0,0.0916170000000065,77.0,0.2698570000000018
3232,78.0,0.0899523333333363,70.0,0.08995233333332919
3233,76.0,0.08995233333332919,66.0,0.0899523333333363
3234,45.0,0.0899523333333363,72.0,0.2748509999999982
3235,66.0,0.0916169999999994,67.0,0.0916169999999994
3236,64.0,0.0916169999999994,66.0,0.0916169999999994
3237,44.0,0.0916169999999994,69.0,0.1400167500000009
3238,78.0,0.09334450000000061,65.0,0.09334450000000061
3239,76.0,0.09334450000000061,62.0,0.09334450000000061
3240,37.0,0.2654864999999944,60.0,0.08695649999999944
3241,35.0,0.08695649999999944,59.0,0.08695649999999944
3242,33.0,0.08695649999999944,54.0,0.08695649999999944
3243,45.0,0.08695649999999944,63.0,0.08695649999999944
3244,40.0,0.08695649999999944,60.0,0.08695649999999944
3245,37.0,0.08695649999999944,56.0,0.08695649999999944
3246,49.0,0.08695649999999944,64.0,0.08695649999999944
3247,42.0,0.08695649999999944,62.0,0.08695649999999944
3248,40.0,0.08695649999999944,58.0,0.08695649999999944
3249,52.0,0.08695649999999944,66.0,0.08695649999999944
3250,47.0,0.08695649999999944,64.0,0.08695649999999944
3251,45.0,0.08695649999999944,58.0,0.08695649999999944
3252,57.0,0.08695649999999944,69.0,0.08695650000001365
3253,52.0,0.08695650000001365,59.0,0.08695649999999944
3254,49.0,0.08695649999999944,59.0,0.08695649999999944
3255,61.0,0.08695649999999944,70.0,0.08695649999999944
3256,54.0,0.08695649999999944,65.0,0.08695649999999944
3257,52.0,0.08695649999999944,64.0,0.08695649999999944
3258,64.0,0.08695649999999944,71.0,0.08695649999999944
3259,59.0,0.08695649999999944,67.0,0.08695649999999944
3260,57.0,0.08695649999999944,67.0,0.08695649999999944
3261,69.0,0.08695649999999944,73.0,0.08658016666666413
3262,64.0,0.08658016666666413,67.0,0.08658016666666413
3263,61.0,0.08658016666666413,65.0,0.08658016666667834
3264,73.0,0.08658016666667834,75.0,0.08658016666666413
3265,66.0,0.08658016666666413,69.0,0.08695649999999944
3266,64.0,0.08695649999999944,66.0,0.08695649999999944
3267,69.0,0.08695649999999944,78.0,0.08695649999999944
3268,64.0,0.08695649999999944,70.0,0.08695649999999944
3269,61.0,0.08695649999999944,69.0,0.08733616666665966
3270,73.0,0.08733616666665966,78.0,0.08733616666667388
3271,66.0,0.08733616666667388,71.0,0.08733616666665966
3272,64.0,0.08733616666665966,70.0,0.08733616666667388
3273,69.0,0.08733616666667388,81.0,0.08771933333333948
3274,64.0,0.08771933333333948,74.0,0.08771933333332527
3275,61.0,0.08771933333332527,73.0,0.08771933333333948
3276,73.0,0.08771933333333948,81.0,0.08771933333332527
3277,66.0,0.08771933333332527,75.0,0.08810566666666375
3278,64.0,0.08810566666666375,74.0,0.08810566666666375
3279,69.0,0.08810566666666375,82.0,0.08810566666667796
3280,64.0,0.08810566666667796,75.0,0.08810566666666375
3281,49.0,0.1154289999999989,88.0,0.11362774999999914
3282,50.0,0.11362774999999914,73.0,0.057714500000003
3283,50.0,0.1154289999999989,76.0,0.11362774999999914
3284,49.0,0.11362774999999914,67.0,0.05681387500000312
3285,49.0,0.11362774999999914,70.0,0.11770250000000004
3286,50.0,0.11770250000000004,62.0,0.06605600000000322
3287,43.0,0.13211199999999934,72.0,2.5415942499999886
3288,42.0,0.11485449999999986,60.0,0.05860750000000081
3289,42.0,0.11721500000000162,62.0,0.11485449999999986
3290,40.0,0.11485449999999986,55.0,0.05742725000000348
3291,40.0,0.11485449999999986,58.0,0.1154289999999989
3292,38.0,0.1154289999999989,53.0,0.057714500000003
3293,38.0,0.1154289999999989,60.0,0.11362774999999914
3294,37.0,0.11362774999999914,52.0,0.057714500000003
3295,37.0,0.1154289999999989,54.0,0.11362774999999914
3296,35.0,0.11362774999999914,47.0,0.05681387500000312
3297,35.0,0.11362774999999914,53.0,0.1154289999999989
3298,33.0,0.1154289999999989,45.0,0.057714500000003
3299,33.0,0.1154289999999989,52.0,0.11362774999999914
3300,31.0,0.11362774999999914,44.0,0.057714500000003
3301,31.0,0.1154289999999989,46.0,0.11362774999999914
3302,30.0,0.11362774999999914,40.0,0.05681387500000312
3303,30.0,0.11362774999999914,44.0,0.1154289999999989
3304,28.0,0.1154289999999989,40.0,0.06622512500000255
3305,40.0,0.132450249999998,48.0,0.9373769999999979
3306,50.0,0.45759600000000233,48.0,0.22879799999999761
3307,47.0,0.22879799999999761,48.0,0.12549150000000253
3308,47.0,0.25098299999999796,53.0,0.1811741249999983
3309,50.0,0.1207827499999965,45.0,0.0603913750000018
3310,50.0,0.1207827500000036,53.0,0.17530200000000207
3311,49.0,0.11686799999999664,45.0,0.058434000000005426
3312,49.0,0.11686800000000375,53.0,0.17821412500000378
3313,47.0,0.11782275000000197,45.0,0.0603913750000018
3314,47.0,0.1207827499999965,53.0,0.1765749999999997
3315,50.0,0.11766362499999872,45.0,0.05891137500000099
3316,50.0,0.11782275000000197,53.0,0.17386612500000354
3317,49.0,0.11591074999999762,45.0,0.057955375000005915
3318,49.0,0.11591075000000473,53.0,0.1805895000000035
3319,47.0,0.11782275000000197,45.0,0.06276675000000154
3320,45.0,0.12553350000000307,53.0,0.17530200000000207
3321,54.0,0.11686799999999664,45.0,0.058434000000005426
3322,23.0,0.0939143333333341,47.0,0.11474091666666553
3323,25.0,0.09132833333333323,47.0,0.09365033333333272
3324,23.0,0.09365033333333272,51.0,0.11635799999999819
3325,28.0,0.09365033333333272,40.0,0.113853083333332
3326,30.0,0.0908306666666654,42.0,0.11504858333333345
3327,32.0,0.0920896666666664,43.0,0.1142965000000018
3328,33.0,0.0918356666666682,45.0,0.11267541666666858
3329,35.0,0.08984333333333439,46.0,0.09132833333333323
3330,37.0,0.09132833333333323,48.0,0.11372874999999993
3331,39.0,0.09132833333333323,51.0,0.11230933333333226
3332,40.0,0.0896016666666668,48.0,0.1135383333333344
3333,42.0,0.0908306666666654,53.0,0.11304991666666808
3334,44.0,0.09083066666666895,50.0,0.11164666666666534
3335,45.0,0.0888770000000001,56.0,0.09107866666666808
3336,47.0,0.09107866666666808,59.0,0.1084836666666682
3337,56.0,0.08655766666666764,60.0,0.11016483333333227
3338,54.0,0.08770399999999867,57.0,0.11224375000000109
3339,52.0,0.08984333333333439,56.0,0.11152766666666736
3340,51.0,0.0896016666666668,54.0,0.11010441666666537
3341,49.0,0.08770399999999867,54.0,0.0896016666666668
3342,47.0,0.0896016666666668,56.0,0.11164366666666581
3343,44.0,0.0896016666666668,51.0,0.11087566666666504
3344,45.0,0.08816799999999958,51.0,0.1135383333333344
3345,47.0,0.0908306666666654,52.0,0.11323108333333565
3346,44.0,0.09083066666666895,51.0,0.11249749999999992
3347,49.0,0.0896016666666668,51.0,0.09158333333333246
3348,47.0,0.09158333333333246,56.0,0.1141058333333369
3349,42.0,0.09158333333333601,48.0,0.11317616666666552
3350,44.0,0.09009,48.0,0.1154308333333347
3351,45.0,0.09234466666666563,53.0,0.11505233333333464
3352,42.0,0.09234466666666918,51.0,0.11424324999999769
3353,49.0,0.0908306666666654,51.0,0.09365033333333272
3354,47.0,0.09365033333333272,52.0,0.11680166666666736
3355,40.0,0.09365033333333272,46.0,0.11621808333333661
3356,42.0,0.09260533333333498,46.0,0.11806375000000102
3357,44.0,0.0944509999999994,51.0,0.11734683333333251
3358,40.0,0.0944509999999994,49.0,0.11539966666666501
3359,49.0,0.09158333333333246,56.0,0.09526533333333376
3360,47.0,0.09526533333333376,52.0,0.11861233333333487
3361,39.0,0.09526533333333376,48.0,0.11748091666666838
3362,40.0,0.09338800000000091,40.0,0.12053441666666487
3363,33.0,0.0896016666666668,44.0,0.10928149999999448
3364,32.0,0.08735550000000103,39.0,0.10986166666666008
3365,31.0,0.08781966666666108,39.0,0.11056516666666028
3366,30.0,0.08840499999999452,39.0,0.11115599999999404
3367,28.0,0.08887733333332903,36.0,0.11182033333332697
3368,27.0,0.08941991666665672,37.0,0.0896016666666668
3369,33.0,0.0896016666666668,44.0,0.10842366666666692
3370,32.0,0.08667033333333052,39.0,0.10899466666667479
3371,30.0,0.08712716666667575,39.0,0.10968716666666012
3372,28.0,0.08770333333333724,39.0,0.11027066666665064
3373,27.0,0.08816924999999287,36.0,0.11110049999999205
3374,25.0,0.0887000833333218,37.0,0.08895458333333295
3375,33.0,0.08895458333333295,44.0,0.10910883333333743
3376,32.0,0.08724133333333839,39.0,0.10980316666665146
3377,30.0,0.08776116666665246,39.0,0.11044699999999352
3378,28.0,0.08828683333332776,39.0,0.11115599999999404
3379,27.0,0.08887733333332903,36.0,0.11182033333332697
3380,26.0,0.08941991666665672,37.0,0.0896016666666668
3381,33.0,0.0896016666666668,44.0,0.1079736666666804
3382,32.0,0.08627791666667406,39.0,0.10888016666667966
3383,30.0,0.08701266666668062,39.0,0.10980316666665146
3384,28.0,0.08776116666665246,39.0,0.11074208333333502
3385,26.0,0.08852283333334299,36.0,0.1116995833333192
3386,25.0,0.0892387499999927,37.0,0.08984333333333439
3387,24.0,0.08984333333333439,41.0,0.11279575000000364
3388,25.0,0.09027324999999564,36.0,0.11236708333333922
3389,26.0,0.08996666666666897,37.0,0.11188208333332739
3390,28.0,0.08954166666666197,45.0,0.11139566666666667
3391,30.0,0.08917641666666043,39.0,0.11091899999999555
3392,32.0,0.08875883333332979,40.0,0.08840499999999452
3393,33.0,0.08840499999999452,49.0,0.10997766666665143
3394,35.0,0.08805166666665798,45.0,0.10951299999999264
3395,37.0,0.0876454999999936,46.0,0.10905158333333986
3396,38.0,0.08729825000000346,54.0,0.10859391666667761
3397,40.0,0.08689816666667127,51.0,0.10814125000000274
3398,42.0,0.08655791666667767,51.0,0.086221833333326
3399,44.0,0.086221833333326,58.0,0.10752508333332855
3400,43.0,0.08599749999999062,53.0,0.1079170000000147
3401,40.0,0.08627758333334157,46.0,0.10836608333333686
3402,39.0,0.08667033333333052,50.0,0.1087660000000028
3403,37.0,0.08695575000000133,49.0,0.10922300000000007
3404,37.0,0.7946317500000006,41.0,0.23838952500000232
3405,37.0,0.26487724999999784,46.0,2.1501519999999985
3406,33.0,1.0750760000000028,32.0,1.0750759999999957
3407,61.0,1.0750759999999957,83.0,0.9515130916666692
3408,59.0,0.4761905000000013,73.0,0.33760687499999875
3409,47.0,0.33760687499999875,64.0,0.04417702500000331
3410,52.0,0.04417702500000331,57.0,0.046920041666666634
3411,59.0,0.046920041666666634,59.0,0.04661864999999921
3412,52.0,0.04661864999999921,74.0,1.0258697499999982
3413,56.0,0.7627117500000011,61.0,0.23684219999999812
3414,56.0,0.2631579999999971,69.0,1.0619470000000035
3415,49.0,1.0619470000000035,68.0,1.0619469999999964
3416,61.0,1.0619469999999964,83.0,0.9550443250000029
3417,59.0,0.4799999999999969,73.0,0.33926512499999717
3418,47.0,0.33926512499999717,66.0,0.038461541666670485
3419,52.0,0.038461541666670485,58.0,0.049417483333336065
3420,59.0,0.049417483333336065,58.0,0.04790017500000232
3421,52.0,0.04790017500000232,76.0,1.0323887499999955
3422,56.0,0.7692307499999984,61.0,0.23684219999999812
3423,52.0,0.2631579999999971,69.0,1.0619469999999964
3424,49.0,1.0619469999999964,68.0,1.0619470000000035
3425,49.0,1.0619470000000035,61.0,1.044386000000003
3426,49.0,1.044386000000003,63.0,1.0750760000000028
3427,49.0,0.8063069999999968,57.0,0.24189210000000116
3428,49.0,0.26876900000000603,65.0,1.0672360000000012
3429,52.0,1.0672360000000012,82.0,1.044386000000003
3430,51.0,0.7832895000000022,71.0,0.26109650000000073
3431,51.0,0.26109650000000073,79.0,1.0443859999999958
3432,49.0,0.7832894999999951,71.0,0.23498684999999853
3433,49.0,0.26109650000000073,77.0,1.0595089999999985
3434,49.0,0.7946317500000006,72.0,0.23838952500000232
3435,49.0,0.26487724999999784,76.0,1.0750760000000028
3436,51.0,1.0750760000000028,95.0,1.0750759999999957
3437,52.0,1.0750759999999957,100.0,1.0750760000000028
3438,56.0,1.0750760000000028,89.0,0.8063069999999968
3439,57.0,0.8063069999999968,89.0,0.2687689999999989
3440,59.0,0.2687689999999989,93.0,0.8063070000000039
3441,61.0,0.8063070000000039,93.0,0.2687689999999989
3442,63.0,0.2687689999999989,99.0,0.8256877500000002
3443,64.0,0.8256877500000002,102.0,0.2752292500000024
3444,68.0,0.2752292500000024,103.0,3.750001499999996
3445,52.0,0.5074769999999944,55.0,1.9693960000000175
3446,25.0,0.5096839999999929,31.0,0.4837929999999915
3447,31.0,0.4837929999999915,31.0,0.4837930000000199
3448,40.0,0.4837930000000199,33.0,0.49212600000001316
3449,54.0,0.49212600000001316,55.0,0.49212599999998474
3450,52.0,0.49212599999998474,50.0,0.46287258333330783
3451,51.0,0.46287258333330783,55.0,0.47573750000000814
3452,49.0,0.47573750000000814,51.0,0.4964420000000018
3453,48.0,0.4964420000000018,55.0,0.9723260833333427
3454,27.0,0.4964420000000018,33.0,0.47588408333334087
3455,57.0,0.47588408333334087,59.0,1.006534500000015
3456,42.0,0.4964420000000018,28.0,0.5100925000000132
3457,56.0,0.5100925000000132,55.0,1.9641724999999894
3458,27.0,0.5074769999999944,30.0,0.47573750000000814
3459,30.0,0.47573750000000814,33.0,0.4757374999999797
3460,42.0,0.4757374999999797,30.0,0.5052205000000072
3461,56.0,0.5052205000000072,59.0,1.9397590000000378
3462,28.0,0.49212600000001316,31.0,0.4797695000000033
3463,37.0,0.4797695000000033,34.0,0.47573750000000814
3464,44.0,0.47573750000000814,32.0,0.49212600000001316
3465,57.0,0.49212600000001316,58.0,0.4797695000000033
3466,56.0,0.4797695000000033,52.0,0.4797695000000033
3467,54.0,0.4797695000000033,57.0,0.4797695000000033
3468,52.0,0.4797695000000033,52.0,0.49212600000001316
3469,52.0,0.49212600000001316,59.0,0.9562349999999924
3470,30.0,0.49212599999998474,35.0,0.46410900000000765
3471,51.0,0.46410900000000765,57.0,0.9595390000000066
3472,45.0,0.4797695000000033,33.0,0.4797695000000033
3473,20.0,0.4797695000000033,41.0,0.4797695000000033
3474,51.0,0.4797695000000033,56.0,0.4797695000000033
3475,54.0,0.419798312499978,55.0,0.05997118750002528
3476,52.0,0.05997118750002528,59.0,0.7258324999999672
3477,44.0,0.47976949999997487,35.0,0.49212600000001316
3478,51.0,0.24606299999999237,58.0,0.2358103749999998
3479,51.0,0.2460630000000208,59.0,0.9562349999999924
3480,30.0,0.49212599999998474,34.0,0.46410900000000765
3481,49.0,0.46410900000000765,56.0,0.9559090000000197
3482,42.0,0.48796350000000643,33.0,0.4679455000000132
3483,21.0,0.4679455000000132,38.0,0.48796350000000643
3484,51.0,0.48796350000000643,56.0,0.48796350000000643
3485,54.0,0.42696806249998076,59.0,0.06099543750002567
3486,23.0,0.10114737499998228,61.0,0.10472641666666505
3487,25.0,0.10472641666666505,61.0,0.10871170833331689
3488,47.0,0.10871170833331689,80.0,1.0668073333332586
3489,25.0,0.10416665625001542,56.0,0.10395428124996897
3490,23.0,0.10395428124996897,64.0,0.10289821874999916
3491,25.0,0.10289821874999916,57.0,0.10186321874994064
3492,23.0,0.10186321874994064,66.0,0.1008486354166962
3493,25.0,0.1008486354166962,59.0,0.0998538437499974
3494,23.0,0.0998538437499974,68.0,0.09887831250000545
3495,25.0,0.09887831250000545,61.0,0.09792141666662246
3496,23.0,0.09792141666662246,70.0,0.09689067708330867
3497,25.0,0.09689067708330867,65.0,0.09597276041665737
3498,23.0,0.09597276041665737,73.0,0.09507190625004114
3499,47.0,0.06355931250004687,80.0,1.033703833333334
3500,25.0,0.03151259374999427,66.0,0.09418765625002834
3501,23.0,0.09418765625002834,72.0,0.09375
3502,25.0,0.09583333333330302,63.0,0.09429269375004878
3503,23.0,0.09219185416668552,69.0,0.09516092708332735
3504,25.0,0.09516092708332735,60.0,0.09821847500006697
3505,23.0,0.09606330208339386,66.0,0.1296851666666612
3506,25.0,0.1296851666666612,58.0,0.13119758333328946
3507,22.0,0.13119758333328946,64.0,0.1331384583333488
3508,23.0,0.1331384583333488,55.0,0.13473295833330212
3509,47.0,0.13473295833330212,80.0,1.1009169999999813
3510,28.0,1.1009169999999813,82.0,0.75
3511,19.0,0.75,61.0,0.10257087499996942
3512,20.0,0.10257087499996942,61.0,0.10582750000003216
3513,21.0,0.10582750000003216,61.0,0.10945129166663037
3514,44.0,0.10945129166663037,80.0,1.0668073333332586
3515,21.0,0.10416665625001542,56.0,0.10395428124996897
3516,20.0,0.10395428124996897,64.0,0.10289821874999916
3517,21.0,0.10289821874999916,57.0,0.10186321874994064
3518,20.0,0.10186321874994064,66.0,0.1008486354166962
3519,21.0,0.1008486354166962,59.0,0.0998538437499974
3520,20.0,0.0998538437499974,68.0,0.09887831250000545
3521,21.0,0.09887831250000545,61.0,0.09792141666662246
3522,20.0,0.09792141666662246,70.0,0.09689067708330867
3523,21.0,0.09689067708330867,65.0,0.09597276041665737
3524,20.0,0.09597276041665737,73.0,0.09507190625004114
3525,44.0,0.06355931250004687,80.0,1.033703833333334
3526,21.0,0.03151259374999427,66.0,0.09418765625002834
3527,49.0,0.20943849999999742,51.0,0.2985074999999995
3528,49.0,0.19900499999999965,52.0,0.19524719999999718
3529,28.0,0.09950249999999983,31.0,0.319149000000003
3530,49.0,0.106383000000001,56.0,0.20212769999999836
3531,49.0,0.212766000000002,66.0,1.7942114999999959
3532,32.0,0.2985074999999995,32.0,0.2884614999999968
3533,50.0,0.2884614999999968,57.0,0.2955664999999996
3534,49.0,0.2955664999999996,58.0,0.2870814999999993
3535,47.0,0.2870814999999993,60.0,0.2985074999999995
3536,49.0,0.2985074999999995,60.0,0.3260870000000011
3537,52.0,0.3260870000000011,66.0,1.2293765000000008
3538,34.0,0.32786899999999974,30.0,0.3015074999999996
3539,50.0,0.3015074999999996,46.0,0.6000000000000014
3540,35.0,0.29999999999999716,28.0,0.30000000000000426
3541,38.0,0.30000000000000426,34.0,0.29999999999999716
3542,47.0,0.29999999999999716,50.0,0.324324500000003
3543,49.0,0.324324500000003,55.0,1.8483475000000027
3544,32.0,0.33333350000000195,26.0,0.30612250000000074
3545,35.0,0.30612250000000074,31.0,0.2941174999999987
3546,33.0,0.2941174999999987,30.0,0.2941174999999987
3547,37.0,0.2941174999999987,35.0,0.3015074999999996
3548,28.0,0.3015074999999996,33.0,0.319149000000003
3549,49.0,0.319149000000003,66.0,1.8159454999999909
3550,32.0,0.3225805000000008,30.0,0.29999999999999716
3551,35.0,0.29999999999999716,40.0,0.2941174999999987
3552,33.0,0.2941174999999987,35.0,0.2884614999999968
3553,37.0,0.2884614999999968,42.0,0.3015074999999996
3554,28.0,0.3015074999999996,37.0,0.3092784999999978
3555,50.0,0.15463925000000245,62.0,0.15463924999999534
3556,52.0,0.15463924999999534,71.0,1.806196
3557,32.0,0.31413599999999775,34.0,0.2985074999999995
3558,35.0,0.2985074999999995,45.0,0.28985500000000286
3559,33.0,0.28985500000000286,37.0,0.28985499999999575
3560,37.0,0.28985499999999575,44.0,0.29126200000000324
3561,28.0,0.29126200000000324,29.0,0.3225805000000008
3562,54.0,0.3225805000000008,72.0,1.801172000000001
3563,32.0,0.31088100000000196,38.0,0.2970295000000007
3564,35.0,0.2970295000000007,46.0,0.28985500000000286
3565,33.0,0.28985500000000286,37.0,0.28985499999999575
3566,37.0,0.28985499999999575,44.0,0.3015074999999996
3567,28.0,0.3015074999999996,34.0,0.3120440000000002
3568,42.0,0.10193683333333325,40.0,0.10134799999999977
3569,51.0,0.10134799999999977,39.0,0.10105183333333478
3570,54.0,0.10105183333333478,39.0,0.10075566666666624
3571,59.0,0.10075566666666624,64.0,0.5990745833333353
3572,51.0,0.09931058333333276,38.0,0.09846399999999988
3573,54.0,0.09846399999999988,38.0,0.10075566666666624
3574,42.0,0.10075566666666624,37.0,0.1004630000000013
3575,51.0,0.1004630000000013,37.0,0.09902950000000033
3576,54.0,0.09902950000000033,36.0,0.10105183333333478
3577,59.0,0.10105183333333478,70.0,0.5984494166666696
3578,51.0,0.1004630000000013,36.0,0.09902950000000033
3579,55.0,0.09902950000000033,36.0,0.09959991666666745
3580,43.0,0.09959991666666745,37.0,0.1001736666666666
3581,51.0,0.1001736666666666,38.0,0.09959166666666697
3582,55.0,0.09959166666666697,38.0,0.09959166666666697
3583,59.0,0.09959166666666697,69.0,0.6307014166666693
3584,51.0,0.1004630000000013,39.0,0.1016424166666674
3585,55.0,0.1016424166666674,39.0,0.10284983333333386
3586,43.0,0.10284983333333386,40.0,0.10439883333333277
3587,51.0,0.10439883333333277,41.0,0.11112750000000027
3588,55.0,0.11112750000000027,42.0,0.11021983333333374
3589,59.0,0.11021983333333374,73.0,0.6095790833333332
3590,52.0,0.10254299999999894,37.0,0.10223991666666699
3591,56.0,0.10223991666666699,37.0,0.10193683333333325
3592,47.0,0.10193683333333325,37.0,0.10105183333333478
3593,52.0,0.10105183333333478,37.0,0.10075566666666624
3594,56.0,0.10075566666666624,38.0,0.10105183333333301
3595,59.0,0.10105183333333301,70.0,0.6045479999999994
3596,52.0,0.10134799999999977,38.0,0.10134799999999977
3597,56.0,0.10134799999999977,38.0,0.10075566666666624
3598,47.0,0.10075566666666624,39.0,0.10075566666666624
3599,52.0,0.10075566666666624,39.0,0.1001703333333328
3600,56.0,0.1001703333333328,39.0,0.10017033333333458
3601,59.0,0.10017033333333458,77.0,0.59755
3602,52.0,0.09959166666666697,39.0,0.09959166666666697
3603,56.0,0.09959166666666697,39.0,0.09959166666666519
3604,47.0,0.09959166666666519,39.0,0.09959166666666697
3605,52.0,0.09959166666666697,39.0,0.09959166666666697
3606,56.0,0.09959166666666697,40.0,0.09959166666666697
3607,61.0,0.09959166666666697,77.0,0.6130349583333317
3608,52.0,0.1001703333333328,40.0,0.10017033333333458
3609,52.0,0.05096841666667018,36.0,0.10193683333333325
3610,40.0,0.10193683333333325,40.0,0.15202200000000232
3611,47.0,0.10134800000000155,37.0,0.10105183333333656
3612,30.0,0.050674000000000774,31.0,0.15113350000000025
3613,52.0,0.050377833333335786,38.0,0.10075566666666447
3614,56.0,0.10075566666666447,75.0,0.5990745833333406
3615,47.0,0.09931058333333453,39.0,0.09846399999999988
3616,30.0,0.049232000000003495,31.0,0.14998766666666086
3617,51.0,0.04923199999999639,39.0,0.10075566666666447
3618,39.0,0.10075566666666447,40.0,0.14997775000000502
3619,47.0,0.10046300000000485,40.0,0.09902950000000033
3620,30.0,0.04951475000000016,33.0,0.15056658333333672
3621,51.0,0.04951475000000016,40.0,0.10105183333333656
3622,58.0,0.10105183333333656,80.0,0.598449416666675
3623,47.0,0.10046300000000485,41.0,0.09902950000000033
3624,30.0,0.04951475000000016,34.0,0.1491146666666694
3625,51.0,0.04951475000000016,42.0,0.09959991666666923
3626,42.0,0.09959991666666923,42.0,0.14996950000000453
3627,47.0,0.10017366666667016,44.0,0.09959166666666874
3628,30.0,0.04979583333333437,35.0,0.149387499999996
3629,51.0,0.04979583333333437,44.0,0.09959166666666164
3630,59.0,0.09959166666666164,82.0,0.6307014166666747
3631,47.0,0.10046300000000485,44.0,0.10164241666667095
3632,30.0,0.050674000000000774,36.0,0.1538182500000005
3633,51.0,0.05096841666667018,45.0,0.10284983333333031
3634,42.0,0.10284983333333031,46.0,0.15889475000000175
3635,47.0,0.10439883333333455,47.0,0.11112750000000204
3636,30.0,0.0544959166666672,37.0,0.1668514166666668
3637,51.0,0.056631583333334845,48.0,0.11021983333333196
3638,58.0,0.11021983333333196,80.0,0.6095790833333439
3639,51.0,0.10254300000000427,46.0,0.10223991666666876
3640,34.0,0.05127149999999858,38.0,0.15290525000000343
3641,54.0,0.05096841666667018,47.0,0.10193683333333325
3642,46.0,0.10193683333333325,48.0,0.15142966666666524
3643,51.0,0.10105183333333656,48.0,0.10075566666666447
3644,34.0,0.05037783333332868,38.0,0.15142966666667235
3645,54.0,0.050377833333335786,49.0,0.10105183333333656
3646,58.0,0.10105183333333656,81.0,0.6045480000000012
3647,51.0,0.10134800000000155,51.0,0.10134799999999444
3648,34.0,0.050674000000000774,38.0,0.15142966666665814
3649,54.0,0.05067399999999367,51.0,0.10075566666666447
3650,49.0,0.09874675000000366,61.0,0.10046299999999064
3651,55.0,0.10046299999999064,61.0,0.10193683333334036
3652,59.0,0.10193683333334036,61.0,0.10134624999999176
3653,58.0,0.10134624999999176,79.0,0.6259520833333454
3654,52.0,0.10046983333333515,58.0,0.10164241666666385
3655,54.0,0.10164241666666385,57.0,0.10284983333333741
3656,46.0,0.10284983333333741,56.0,0.10570466666666789
3657,52.0,0.10570466666666789,55.0,0.10764266666666344
3658,54.0,0.10764266666666344,55.0,0.10764266666667766
3659,59.0,0.10764266666667766,81.0,0.6060183333333384
3660,47.0,0.10134800000000155,44.0,0.10134800000000155
3661,51.0,0.10134800000000155,41.0,0.10134800000000155
3662,39.0,0.10134800000000155,40.0,0.10075566666667157
3663,35.0,0.10075566666667157,39.0,0.10075566666665736
3664,30.0,0.10075566666665736,39.0,0.10046300000000485
3665,54.0,0.10046300000000485,61.0,0.5982166666666586
3666,47.0,0.09902950000000033,33.0,0.09902950000000033
3667,51.0,0.09902950000000033,34.0,0.10134800000000155
3668,42.0,0.10134800000000155,34.0,0.10046299999999064
3669,47.0,0.10046299999999064,35.0,0.09874675000000366
3670,51.0,0.09874675000000366,35.0,0.09959991666666212
3671,54.0,0.09959991666666212,64.0,0.6043038333333186
3672,47.0,0.10134800000000155,36.0,0.10046299999999064
3673,51.0,0.10046299999999064,37.0,0.09874675000000366
3674,42.0,0.09874675000000366,37.0,0.10046299999999064
3675,47.0,0.10046299999999064,38.0,0.10193683333334036
3676,51.0,0.10193683333334036,38.0,0.10134624999999176
3677,54.0,0.10134624999999176,69.0,0.6144320833333268
3678,47.0,0.10046983333333515,39.0,0.10164241666666385
3679,51.0,0.10164241666666385,40.0,0.10284983333333741
3680,42.0,0.10284983333333741,40.0,0.10315666666666345
3681,47.0,0.10315666666666345,41.0,0.10315666666666345
3682,51.0,0.10315666666666345,41.0,0.10315666666666345
3683,56.0,0.10315666666666345,77.0,0.6060183333333384
3684,49.0,0.10134800000000155,47.0,0.10134800000000155
3685,52.0,0.10134800000000155,41.0,0.10134800000000155
3686,44.0,0.10134800000000155,41.0,0.10075566666667157
3687,34.0,0.10075566666667157,42.0,0.10075566666665736
3688,52.0,0.10075566666665736,44.0,0.10046300000000485
3689,54.0,0.10046300000000485,68.0,0.5982166666666586
3690,49.0,0.09902950000000033,44.0,0.09902950000000033
3691,58.0,0.09980216666666664,49.0,0.11271849999999972
3692,56.0,0.10015316666666685,48.0,0.2148711875
3693,55.0,0.10075616666666676,48.0,0.11411502083333325
3694,56.0,0.10136641666666613,48.0,0.20486595833333254
3695,52.0,0.10211687499999833,45.0,0.10274908333333421
3696,51.0,0.10274908333333421,53.0,0.2109691250000001
3697,52.0,0.0995620000000006,44.0,0.1114071249999995
3698,50.0,0.09907849999999918,44.0,0.20866127083333375
3699,51.0,0.09862900000000074,44.0,0.110032270833333
3700,54.0,0.09815466666666595,49.0,0.19554349999999943
3701,52.0,0.09502083333333289,45.0,0.10052266666666654
3702,51.0,0.10052266666666654,55.0,0.20829699999999995
3703,52.0,0.09815466666666595,46.0,0.11014233333333401
3704,50.0,0.09792933333333487,46.0,0.20692445833333473
3705,51.0,0.09758762500000095,46.0,0.10933683333333377
3706,57.0,0.09723849999999956,51.0,0.19438679166666795
3707,58.0,0.09482479166666735,46.0,0.0995620000000006
3708,51.0,0.0995620000000006,57.0,0.2059591249999997
3709,52.0,0.09723849999999956,46.0,0.10872062500000013
3710,50.0,0.0966770833333328,46.0,0.203572520833335
3711,51.0,0.09612200000000115,47.0,0.10745052083333384
3712,54.0,0.09557291666666679,52.0,0.19121724999999934
3713,52.0,0.09491524999999967,47.0,0.09630199999999967
3714,51.0,0.09630199999999967,58.0,0.1965773750000004
3715,52.0,0.09250699999999945,48.0,0.10407037500000094
3716,50.0,0.09250700000000123,49.0,0.1965773749999986
3717,51.0,0.09250699999999945,49.0,0.10407037499999916
3718,59.0,0.09250699999999945,53.0,0.1906616666666654
3719,56.0,0.09250699999999945,50.0,0.09815466666666595
3720,54.0,0.09815466666666595,60.0,0.1965773750000004
3721,56.0,0.09250699999999945,53.0,0.10407037500000094
3722,54.0,0.09250700000000123,56.0,0.19689093750000097
3723,53.0,0.09230674999999877,57.0,0.1045841875000022
3724,54.0,0.09291829166666865,60.0,0.1914564166666679
3725,58.0,0.09375241666666767,62.0,0.09770400000000024
3726,61.0,0.09770400000000024,70.0,0.19858891666666523
3727,63.0,0.09502083333333289,62.0,0.10356808333333234
3728,61.0,0.09210649999999987,64.0,0.19415335416666757
3729,60.0,0.09159429166666655,66.0,0.10255906250000102
3730,61.0,0.0911975000000016,64.0,0.18948833333333148
3731,68.0,0.09070333333333203,66.0,0.09878499999999946
3732,54.0,0.09678666666666658,64.0,0.10888500000000079
3733,48.0,0.09678666666666658,62.0,0.19494133333333252
3734,50.0,0.09678666666666658,68.0,0.09815466666666595
3735,51.0,0.09815466666666595,78.0,0.19832022916666858
3736,52.0,0.0933271666666684,69.0,0.10499306250000018
3737,51.0,0.0933271666666684,68.0,0.19832022916666148
3738,50.0,0.0933271666666613,64.0,0.10499306250000018
3739,51.0,0.0933271666666684,67.0,0.21013599999999855
3740,58.0,0.0933271666666684,69.0,0.11680883333333014
3741,59.0,0.11680883333333014,75.0,0.19796614583333394
3742,61.0,0.09291950000000071,69.0,0.10504664583333323
3743,59.0,0.0933271666666684,69.0,0.19996214583333938
3744,58.0,0.09385958333333377,66.0,0.1061025625000056
3745,59.0,0.09427775000000338,63.0,0.19296433333333596
3746,55.0,0.09480966666667001,70.0,0.09815466666666595
3747,56.0,0.09815466666666595,73.0,0.20011302083333504
3748,58.0,0.09417083333333665,69.0,0.1059421874999984
3749,56.0,0.09417083333332954,69.0,0.20011302083333504
3750,54.0,0.09417083333333665,62.0,0.1059421874999984
3751,52.0,0.09417083333332954,68.0,0.19324933333333405
3752,51.0,0.09417083333333665,68.0,0.0990784999999974
3753,49.0,0.0990784999999974,75.0,0.19959427083333736
3754,47.0,0.09375583333333282,68.0,0.10583843750000455
3755,46.0,0.09406708333333569,64.0,0.20128443750000002
3756,44.0,0.09449158333333685,62.0,0.10679285416666318
3757,46.0,0.09491524999999967,59.0,0.19350887499999914
3758,47.0,0.09535420833333319,58.0,0.09815466666666595
3759,46.0,0.09815466666666595,74.0,0.19923114583333046
3760,52.0,0.09375583333333282,58.0,0.10547531249999764
3761,51.0,0.09375583333333282,57.0,0.19923114583333756
3762,50.0,0.09375583333333282,53.0,0.10547531250000475
3763,51.0,0.09375583333333282,56.0,0.2172126666666685
3764,58.0,0.09375583333333282,58.0,0.12345683333333568
3765,59.0,0.12345683333333568,59.0,0.20567166666666736
3766,61.0,0.09678666666666658,49.0,0.10888500000000079
3767,59.0,0.09678666666666658,49.0,0.20567166666666736
3768,58.0,0.09678666666666658,48.0,0.10888500000000079
3769,59.0,0.09678666666666658,47.0,0.19494133333333252
3770,55.0,0.09678666666666658,50.0,0.09815466666666595
3771,56.0,0.09815466666666595,56.0,0.20091489583332844
3772,58.0,0.09449158333332974,49.0,0.1064233124999987
3773,30.0,0.14970300000000059,92.0,0.07531158333333288
3774,29.0,0.15089766666666726,92.0,0.07586891666666595
3775,28.0,0.15211066666666717,101.0,0.11199599999999954
3776,40.0,0.14932800000000057,92.0,0.29865600000000114
3777,40.0,0.1493279999999988,92.0,0.14932800000000235
3778,40.0,0.14932800000000235,96.0,0.11199599999999776
3779,40.0,0.14932799999999702,92.0,0.29865600000000114
3780,40.0,0.14932800000000057,86.0,0.14932800000000057
3781,39.0,0.14932800000000057,96.0,0.14634858333333156
3782,37.0,0.14634858333333156,92.0,0.2957482499999955
3783,35.0,0.14747499999999647,92.0,0.14827324999999902
3784,34.0,0.14827324999999902,97.0,0.14907249999999905
3785,32.0,0.14907249999999905,92.0,0.2985275000000023
3786,30.0,0.14989200000000125,89.0,0.14863550000000103
3787,28.0,0.14863550000000103,101.0,0.11161274999999904
3788,40.0,0.1488170000000011,92.0,0.2976339999999986
3789,40.0,0.1488170000000011,92.0,0.14881699999999753
3790,40.0,0.14881699999999753,96.0,0.11161274999999904
3791,40.0,0.1488170000000011,92.0,0.2967446666666689
3792,40.0,0.1488170000000011,86.0,0.1479276666666678
3793,39.0,0.1479276666666678,96.0,0.14659858333333275
3794,37.0,0.14659858333333275,92.0,0.29628633333332743
3795,35.0,0.14765083333332996,92.0,0.14863549999999748
3796,34.0,0.14863549999999748,97.0,0.1496114999999989
3797,32.0,0.1496114999999989,92.0,0.3017114999999997
3798,30.0,0.15071275000000028,89.0,0.1509987499999994
3799,29.0,0.1509987499999994,90.0,0.1488170000000011
3800,39.0,0.1488170000000011,82.0,0.2976339999999986
3801,39.0,0.14881699999999753,82.0,0.1488170000000011
3802,39.0,0.1488170000000011,86.0,0.11161274999999904
3803,39.0,0.1488170000000011,82.0,0.2976339999999986
3804,39.0,0.14881699999999753,78.0,0.1488170000000011
3805,37.0,0.1488170000000011,86.0,0.14572899999999933
3806,36.0,0.14572899999999933,82.0,0.29337233333333046
3807,34.0,0.14632999999999896,82.0,0.1470423333333315
3808,30.0,0.1470423333333315,88.0,0.14773666666666685
3809,29.0,0.14773666666666685,82.0,0.29761166666666483
3810,27.0,0.14845400000000097,79.0,0.14915766666666386
3811,25.0,0.14915766666666386,86.0,0.30094449999999995
3812,53.0,0.15267199999999903,77.0,0.2965449999999983
3813,41.0,0.14827250000000092,73.0,0.14827249999999736
3814,36.0,0.12529691666666665,56.0,0.12403133333333383
3815,45.0,0.12403133333333383,50.0,0.12355225000000036
3816,39.0,0.12355225000000036,47.0,0.12298258333333312
3817,44.0,0.12298258333333312,48.0,0.12307749999999995
3818,36.0,0.12307749999999995,45.0,0.12412808333333292
3819,44.0,0.12412808333333292,45.0,0.12509866666666714
3820,37.0,0.12509866666666714,48.0,0.12519599999999986
3821,44.0,0.12519599999999986,45.0,0.12451450000000008
3822,40.0,0.12451450000000008,46.0,0.12345733333333264
3823,45.0,0.12345733333333264,57.0,0.12298308333333274
3824,36.0,0.12298308333333274,53.0,0.12441833333333285
3825,45.0,0.12441833333333285,55.0,0.12598583333333124
3826,35.0,0.12598583333333124,65.0,0.12549100000000024
3827,45.0,0.12549100000000024,60.0,0.12451450000000008
3828,41.0,0.12451450000000008,52.0,0.12345733333333264
3829,44.0,0.12345733333333264,54.0,0.12298308333333452
3830,38.0,0.12298308333333452,50.0,0.12393574999999757
3831,44.0,0.12393574999999757,47.0,0.12461241666666645
3832,35.0,0.12461241666666645,69.0,0.12364783333333307
3833,43.0,0.12364783333333307,58.0,0.12307750000000084
3834,38.0,0.12307750000000084,57.0,0.12251166666666613
3835,41.0,0.12251166666666613,62.0,0.12158166666666581
3836,35.0,0.12158166666666581,51.0,0.12176599999999915
3837,41.0,0.12176599999999915,52.0,0.12251166666666613
3838,34.0,0.12251166666666613,55.0,0.12326683333333222
3839,41.0,0.12326683333333222,49.0,0.12403133333333294
3840,37.0,0.12403133333333294,49.0,0.1242236666666674
3841,44.0,0.1242236666666674,50.0,0.12422366666666562
3842,34.0,0.12422366666666562,56.0,0.1242236666666674
3843,42.0,0.1242236666666674,55.0,0.1242236666666674
3844,32.0,0.1242236666666674,67.0,0.12374341666666666
3845,40.0,0.12374341666666666,59.0,0.12317191666666538
3846,34.0,0.12317191666666538,58.0,0.12251166666666613
3847,38.0,0.12251166666666613,63.0,0.12195133333333352
3848,32.0,0.12195133333333352,52.0,0.12241783333333345
3849,38.0,0.12241783333333345,53.0,0.12288816666666591
3850,31.0,0.12288816666666591,56.0,0.12326683333333399
3851,38.0,0.12326683333333399,50.0,0.12374341666666666
3852,34.0,0.12374341666666666,49.0,0.12432041666666649
3853,40.0,0.12432041666666649,51.0,0.12461066666666554
3854,31.0,0.12461066666666554,56.0,0.1251990833333334
3855,54.0,0.12931050000000255,62.0,0.1367509166666636
3856,56.0,0.12578599999999796,67.0,0.19946775000000372
3857,49.0,0.2673565000000053,85.0,0.2638639999999981
3858,54.0,0.2638639999999981,73.0,0.1902899999999974
3859,56.0,0.12765950000000004,69.0,0.13603687500000206
3860,58.0,0.12526100000000184,76.0,0.19396574999999672
3861,49.0,0.258620999999998,87.0,0.25550400000000195
3862,56.0,0.25550400000000195,73.0,0.18697775000000405
3863,58.0,0.12537600000000282,68.0,0.134055625000002
3864,59.0,0.12320350000000246,83.0,0.19533824999999894
3865,58.0,0.2604510000000033,77.0,0.5067359999999965
3866,37.0,0.2533680000000018,61.0,0.12668399999999735
3867,58.0,0.2533679999999947,75.0,0.1348740000000035
3868,58.0,0.1348740000000035,69.0,0.13487399999999639
3869,58.0,0.13487399999999639,70.0,0.5099355000000045
3870,63.0,0.2604510000000033,59.0,0.13561295833333276
3871,61.0,0.12526100000000184,50.0,0.1352178333333356
3872,59.0,0.12422349999999938,53.0,0.13193199999999905
3873,59.0,0.2638639999999981,69.0,0.5055639999999997
3874,61.0,0.2565969999999993,47.0,0.24896700000000038
3875,59.0,0.125,46.0,0.13493720833333356
3876,58.0,0.12396700000000038,52.0,0.1316424999999981
3877,58.0,0.2632850000000033,66.0,0.5047604999999962
3878,59.0,0.2560489999999973,53.0,0.24871149999999886
3879,58.0,0.125,47.0,0.13502629166666225
3880,47.0,0.12371149999999886,56.0,0.13577750000000322
3881,56.0,0.2715549999999993,64.0,0.7866900000000072
3882,58.0,0.2604510000000033,52.0,0.19327425000000176
3883,56.0,0.12884950000000117,48.0,0.1400386666666691
3884,46.0,0.12884950000000117,53.0,0.13427000000000078
3885,49.0,0.26854000000000156,44.0,0.13577750000000322
3886,53.0,0.13577750000000322,46.0,0.13560254166666397
3887,54.0,0.13560254166666397,57.0,0.19619300000000095
3888,55.0,0.13093874999999855,44.0,0.13036699999999968
3889,56.0,0.13036699999999968,56.0,0.19767441666666485
3890,49.0,0.26556316666666646,65.0,0.1316424999999981
3891,53.0,0.1316424999999981,63.0,0.1313134166666643
3892,54.0,0.1313134166666643,57.0,0.19114766666666583
3893,56.0,0.12744699999999654,51.0,0.1273111666666722
3894,54.0,0.1273111666666722,64.0,0.1905899583333266
3895,49.0,0.25402312499998914,68.0,0.12722333333332614
3896,56.0,0.14101049999999304,40.0,0.14101050000000726
3897,54.0,0.14101050000000726,38.0,0.3027699999999953
3898,28.0,0.3027699999999953,42.0,0.15138500000000477
3899,40.0,0.30277000000000953,52.0,0.0659339999999986
3900,40.0,0.1318679999999972,52.0,0.0659339999999986
3901,40.0,0.1318679999999972,52.0,0.27149300000000665
3902,47.0,0.27149300000000665,72.0,0.15024049999999534
3903,28.0,0.3004810000000049,43.0,0.30048099999999067
3904,47.0,0.30048099999999067,69.0,0.3004810000000049
3905,47.0,0.3004810000000049,66.0,0.15024049999999534
3906,49.0,0.037560124999998834,66.0,0.037560124999998834
3907,44.0,0.037560124999998834,72.0,0.07512024999999767
3908,28.0,0.22536075000000722,56.0,0.29381499999999505
3909,45.0,0.14690749999999753,60.0,0.14690749999999753
3910,47.0,0.14690749999999753,72.0,0.29381500000000926
3911,49.0,0.29381500000000926,76.0,0.13617200000000196
3912,33.0,0.2723440000000039,45.0,0.28002100000000496
3913,52.0,0.28002100000000496,81.0,0.1413430000000062
3914,57.0,0.2826859999999982,87.0,0.8420250000000067
3915,37.0,0.28067500000000223,41.0,0.28067500000000223
3916,30.0,0.28067500000000223,46.0,0.28067500000000223
3917,56.0,0.28067500000000223,58.0,0.13838900000000365
3918,30.0,0.2767779999999931,32.0,0.2711129999999997
3919,54.0,0.13555650000000696,54.0,0.06777824999998927
3920,54.0,0.13555649999999275,58.0,0.2711129999999997
3921,56.0,0.2711129999999997,60.0,0.13870900000000574
3922,30.0,0.2774179999999973,38.0,0.2729750000000024
3923,54.0,0.1364875000000012,50.0,0.0682437499999935
3924,54.0,0.1364875000000012,56.0,0.2729750000000024
3925,56.0,0.2729750000000024,60.0,0.13838900000000365
3926,30.0,0.2767779999999931,35.0,0.28067500000000223
3927,54.0,0.14033750000000111,51.0,0.07016874999999345
3928,54.0,0.14033750000000111,57.0,0.28067500000000223
3929,51.0,0.28067500000000223,68.0,0.8420249999999925
3930,40.0,0.28067500000000223,38.0,0.280674999999988
3931,52.0,0.1403374999999869,56.0,0.07016875000000766
3932,52.0,0.14033750000000111,62.0,0.28067500000000223
3933,59.0,0.28067500000000223,86.0,0.13870900000000574
3934,40.0,0.2774179999999973,45.0,0.273610000000005
3935,59.0,0.1368049999999954,72.0,0.0684025000000048
3936,59.0,0.1368050000000096,80.0,0.2736099999999908
3937,52.0,0.13985999999999876,57.0,0.06992999999999938
3938,52.0,0.13985999999999876,62.0,0.2797199999999975
3939,59.0,0.2797199999999975,86.0,0.13870900000000574
3940,40.0,0.2774180000000115,53.0,0.2736099999999908
3941,56.0,0.1368050000000096,77.0,0.0684024999999906
3942,59.0,0.1368049999999812,80.0,0.2736100000000192
3943,59.0,0.2736100000000192,77.0,0.1403374999999869
3944,61.0,0.035084374999996726,78.0,0.035084374999996726
3945,59.0,0.035084374999996726,86.0,0.07016874999999345
3946,50.0,0.2085577499999829,53.0,0.27050199999999336
3947,57.0,0.1352510000000109,77.0,0.13525099999998247
3948,59.0,0.13525099999998247,80.0,0.27050199999999336
3949,57.0,0.27050199999999336,88.0,0.13343399999999406
3950,49.0,0.2668679999999881,56.0,0.2686730000000068
3951,61.0,0.2686730000000068,92.0,0.13774749999998903
3952,61.0,0.2754950000000065,95.0,0.8123080000000016
3953,49.0,0.2650999999999897,61.0,0.274864000000008
3954,49.0,0.274864000000008,62.0,0.2723440000000039
3955,59.0,0.2723440000000039,59.0,0.13255000000000905
3956,42.0,0.2650999999999897,36.0,0.2604509999999891
3957,66.0,0.13022549999999455,53.0,0.06511274999999728
3958,66.0,0.13022549999999455,56.0,0.26045100000001753
3959,59.0,0.26045100000001753,59.0,0.132843500000007
3960,42.0,0.265687000000014,36.0,0.259886999999992
3961,66.0,0.129943499999996,52.0,0.06497175000001221
3962,57.0,0.129943499999996,55.0,0.2598870000000204
3963,68.0,0.2598870000000204,59.0,0.13373150000001033
3964,42.0,0.26746299999999223,38.0,0.2820209999999861
3965,66.0,0.14101049999999304,52.0,0.07050524999999652
3966,66.0,0.14101049999999304,55.0,0.29601900000000114
3967,64.0,0.29601900000000114,59.0,0.29601900000000114
3968,52.0,0.5920380000000023,51.0,0.24017299999999864
3969,52.0,0.24017299999999864,51.0,0.24017299999999864
3970,52.0,0.24017299999999864,54.0,1.08662878541665
3971,54.0,0.1846155000000067,55.0,0.1846155000000067
3972,52.0,0.1846155000000067,54.0,0.3633977270833384
3973,51.0,0.18364118333332158,48.0,0.17975654375001682
3974,52.0,0.17975654375001682,49.0,0.3540000583332983
3975,53.0,0.17794630624999286,51.0,0.17605375208330543
3976,56.0,0.17605375208330543,53.0,0.6687100000000044
3977,33.0,0.3399430000000052,35.0,0.32876699999999914
3978,42.0,0.12448150000000169,44.0,0.18672225000000253
3979,42.0,0.12448150000000169,41.0,0.062240750000000844
3980,42.0,0.12448150000000169,53.0,0.24896300000000338
3981,39.0,0.24896300000000338,42.0,0.24691400000000385
3982,42.0,0.1234569999999735,42.0,0.12345700000003035
3983,47.0,0.12345700000003035,50.0,0.18518549999998868
3984,51.0,0.1234569999999735,49.0,0.12345700000003035
3985,56.0,0.12345700000003035,59.0,0.21604974999996784
3986,58.0,0.21604974999996784,48.0,0.03086425000003601
3987,56.0,0.03086425000003601,56.0,0.24064200000003666
3988,56.0,0.21052150000002712,42.0,0.030120500000009542
3989,55.0,0.030120500000009542,52.0,0.1809250833333067
3990,55.0,0.2111062083333195,42.0,0.030181124999955955
3991,54.0,0.030181124999955955,50.0,0.18149199999999155
3992,54.0,0.21179499999999507,38.0,0.03030300000000352
3993,53.0,0.03030300000000352,48.0,0.18204304166670227
3994,53.0,0.21240741666667873,36.0,0.03038491666666232
3995,52.0,0.03038491666666232,45.0,0.1826177500000199
3996,52.0,0.2131054999999833,35.0,0.03048775000002024
3997,51.0,0.03048775000002024,42.0,0.18315429166665353
3998,50.0,0.24429562499994972,48.0,0.24691350000000511
3999,50.0,0.12345675000000256,45.0,0.06172837499997286
4000,50.0,0.12345675000000256,48.0,0.18518512499997541
4001,50.0,0.12345675000000256,37.0,0.06172837499997286
4002,50.0,0.12345675000000256,48.0,0.18518512499997541
4003,50.0,0.12345675000000256,42.0,0.06172837499997286
4004,47.0,0.12345675000000256,46.0,0.2400000000000091
4005,50.0,0.12000000000000455,45.0,0.12000000000000455
4006,53.0,0.12000000000000455,55.0,0.18000000000000682
4007,56.0,0.12000000000000455,53.0,0.12000000000000455
4008,62.0,0.12000000000000455,70.0,0.18000000000000682
4009,62.0,0.20999999999997954,52.0,0.03000000000002956
4010,61.0,0.03000000000002956,62.0,0.23622408333335443
4011,61.0,0.2065798333333646,53.0,0.029644249999989825
4012,60.0,0.029644249999989825,65.0,0.17817916666666633
4013,60.0,0.20794104166668603,54.0,0.029761874999962856
4014,59.0,0.029761874999962856,68.0,0.17920391666666546
4015,59.0,0.20920391666663818,59.0,0.03000000000002956
4016,58.0,0.03000000000002956,70.0,0.18032133333338152
4017,58.0,0.21044183333333422,60.0,0.030120500000009542
4018,57.0,0.030120500000009542,73.0,0.18137066666668034
4019,50.0,0.06515512499999865,64.0,0.06515512500000042
4020,51.0,0.06515512500000042,79.0,0.7818614999999998
4021,24.0,0.13031024999999907,48.0,0.5212409999999998
4022,32.0,0.13031025000000085,48.0,0.13031025000000085
4023,15.0,0.13031025000000085,44.0,0.13031025000000085
4024,36.0,0.13031025000000085,56.0,0.26062049999999815
4025,49.0,0.26062049999999815,78.0,0.5212409999999998
4026,24.0,0.13031025000000085,49.0,0.5212409999999998
4027,32.0,0.13031025000000085,49.0,0.1303102499999973
4028,15.0,0.1303102499999973,45.0,0.13031025000000085
4029,48.0,0.13031025000000085,73.0,0.2606205000000017
4030,46.0,0.2606205000000017,60.0,0.1466901666666658
4031,48.0,0.07394179166666603,61.0,0.07274837499999975
4032,46.0,0.07274837499999975,61.0,0.14159850000000063
4033,48.0,0.07135704166666557,62.0,0.07024145833333506
4034,46.0,0.07024145833333506,63.0,0.137065833333331
4035,48.0,0.0688464583333328,63.0,0.0682193749999982
4036,46.0,0.0682193749999982,63.0,0.13399258333333464
4037,48.0,0.06729595833333235,64.0,0.06669662500000229
4038,46.0,0.06669662500000229,64.0,0.2611918333333314
4039,48.0,0.0658233750000008,65.0,0.06505820833332976
4040,44.0,0.06505820833332976,66.0,0.06515512500000042
4041,46.0,0.06515512500000042,67.0,0.06515512500000042
4042,48.0,0.06515512500000042,78.0,0.5212409999999998
4043,22.0,0.13031025000000085,49.0,0.1303102499999973
4044,32.0,0.1303102499999973,49.0,0.13031025000000085
4045,15.0,0.13031025000000085,43.0,0.13031025000000085
4046,34.0,0.13031025000000085,62.0,0.2652284999999992
4047,44.0,0.1326142499999996,78.0,0.1326142499999996
4048,39.0,0.1326142499999996,72.0,1.5740160000000003
4049,25.0,0.1326142499999996,50.0,0.1326142499999996
4050,32.0,0.1326142499999996,50.0,0.13087875000000082
4051,15.0,0.13087875000000082,45.0,0.13087875000000082
4052,34.0,0.13087875000000082,63.0,0.2617574999999981
4053,15.0,0.2617574999999981,63.0,0.13087875000000082
4054,25.0,0.13087875000000082,48.0,0.13087875000000082
4055,32.0,0.13087875000000082,48.0,0.13087874999999727
4056,15.0,0.13087874999999727,42.0,0.13087875000000082
4057,34.0,0.13087875000000082,63.0,0.26175750000000164
4058,39.0,0.26175750000000164,72.0,0.16240193333333508
4059,25.0,0.1354040833333343,51.0,0.134594083333333
4060,42.0,0.01374760000000208,65.0,0.04271587499999896
4061,45.0,0.04271587499999896,67.0,0.04391016666666303
4062,48.0,0.04391016666666303,68.0,0.04488281666667149
4063,51.0,0.04488281666667149,69.0,0.15741091666666307
4064,54.0,0.04595697499999574,71.0,0.047022366666666926
4065,57.0,0.047022366666666926,72.0,0.048143150000001356
4066,60.0,0.048143150000001356,72.0,0.049314783333329615
4067,33.0,0.01628842499999905,61.0,0.35545230000000316
4068,63.0,0.03302635833333056,73.0,0.050547016666662614
4069,66.0,0.050547016666662614,75.0,0.051943449999996005
4070,69.0,0.051943449999996005,76.0,0.053313258333339775
4071,72.0,0.053313258333339775,77.0,0.054759874999994906
4072,75.0,0.054759874999994906,78.0,0.056278108333337684
4073,78.0,0.056278108333337684,79.0,0.055584233333341615
4074,79.0,0.055584233333341615,90.0,0.5244470833333352
4075,26.0,0.13351633333333268,54.0,0.13031025000000085
4076,34.0,0.13031025000000085,54.0,0.13031025000000085
4077,19.0,0.13031025000000085,48.0,0.13031025000000085
4078,38.0,0.13031025000000085,60.0,0.2687930000000023
4079,46.0,0.2687930000000023,79.0,1.3031025000000014
4080,26.0,0.13031025000000085,52.0,0.13031025000000085
4081,34.0,0.13031025000000085,52.0,0.13031025000000085
4082,19.0,0.13031025000000085,45.0,0.13031025000000085
4083,38.0,0.13031025000000085,56.0,0.2606204999999946
4084,18.0,0.2606204999999946,61.0,0.13031025000000085
4085,26.0,0.13031025000000085,51.0,0.13031025000000085
4086,34.0,0.13031025000000085,51.0,0.13031025000000085
4087,18.0,0.13031025000000085,45.0,0.13031025000000085
4088,46.0,0.13031025000000085,78.0,0.2687930000000023
4089,46.0,0.17919533333333248,72.0,0.044798833333331345
4090,49.0,0.044798833333331345,72.0,0.04479883333333845
4091,47.0,0.04479883333333845,80.0,0.5212410000000034
4092,26.0,0.13031025000000085,52.0,0.13031025000000085
4093,32.0,0.13031025000000085,52.0,0.13031025000000085
4094,17.0,0.13031025000000085,45.0,0.13031025000000085
4095,34.0,0.13031025000000085,57.0,0.2652284999999992
4096,46.0,0.13261425000000315,78.0,0.13261424999999605
4097,46.0,0.13261424999999605,77.0,0.5304569999999984
4098,22.0,0.13261425000000315,52.0,0.13261424999999605
4099,30.0,0.13261424999999605,52.0,0.13261425000000315
4100,15.0,0.13261425000000315,45.0,0.13261424999999605
4101,36.0,0.13144049999999652,56.0,0.2712230000000062
4102,68.0,0.2712230000000062,90.0,0.654393749999997
4103,23.0,0.13087874999999372,52.0,0.13087875000000793
4104,32.0,0.13087875000000793,52.0,0.13087874999999372
4105,17.0,0.13087874999999372,45.0,0.13087875000000793
4106,35.0,0.13087875000000793,61.0,0.26175750000000164
4107,79.0,0.13087874999999372,80.0,0.04362625000000264
4108,77.0,0.04362625000000264,79.0,0.04362625000000264
4109,74.0,0.04362625000000264,79.0,0.04362625000000264
4110,70.0,0.04362625000000264,78.0,0.12881124999999827
4111,68.0,0.04287433333333013,78.0,0.04287433333333013
4112,67.0,0.04287433333333013,78.0,0.04306258333333801
4113,65.0,0.04306258333333801,77.0,0.12955274999998778
4114,62.0,0.0430625833333238,77.0,0.04324508333333199
4115,58.0,0.04324508333333199,76.0,0.04324508333333199
4116,56.0,0.04324508333333199,76.0,0.13049974999999847
4117,55.0,0.043436749999997915,75.0,0.043436749999997915
4118,53.0,0.043436749999997915,75.0,0.04362625000000264
4119,50.0,0.04362625000000264,75.0,0.13125325000000032
4120,46.0,0.04362625000000264,74.0,0.04381349999999884
4121,44.0,0.04381349999999884,74.0,0.04381349999999884
4122,43.0,0.04381349999999884,73.0,0.2654261666666713
4123,41.0,0.04401024999999947,73.0,0.04401024999999947
4124,38.0,0.04401024999999947,73.0,0.04420475000000579
4125,34.0,0.04420475000000579,72.0,0.04420474999999158
4126,32.0,0.04420474999999158,72.0,0.044397083333336695
4127,31.0,0.044397083333336695,72.0,0.044599083333338285
4128,29.0,0.044599083333338285,90.0,1.070377999999991
4129,24.0,0.13379725000000064,52.0,0.13379725000000064
4130,32.0,0.13379725000000064,52.0,0.13379725000000064
4131,17.0,0.13379725000000064,42.0,0.13379724999998643
4132,36.0,0.13379724999998643,60.0,0.2675945000000013
4133,17.0,0.2675945000000013,66.0,0.13379725000000064
4134,24.0,0.13379725000000064,51.0,0.13379725000000064
4135,32.0,0.13379725000000064,51.0,0.13379725000000064
4136,17.0,0.13379725000000064,43.0,0.13379725000000064
4137,36.0,0.13379725000000064,62.0,0.2675945000000013
4138,50.0,0.2675945000000013,72.0,0.1500523124999944
4139,23.0,0.1385432499999979,51.0,0.13768691666666655
4140,50.0,0.02762174999999445,73.0,0.14884252083334104
4141,32.0,0.1100651666666721,51.0,0.1364387499999964
4142,36.0,0.05836575000000721,68.0,0.35019450000000063
4143,35.0,0.35019450000000063,67.0,0.4858299999999929
4144,36.0,0.4858299999999929,71.0,0.46511599999999476
4145,40.0,0.46511599999999476,67.0,0.9456260000000043
4146,38.0,0.9456260000000043,71.0,1.408803000000006
4147,36.0,0.47281300000000215,68.0,0.4631770000000017
4148,40.0,0.4631770000000017,68.0,0.47281300000000215
4149,38.0,0.47281300000000215,63.0,1.4133900000000068
4150,40.0,0.06659562500000504,63.0,0.06659562499999083
4151,38.0,0.06659562499999083,73.0,0.11152425000000221
4152,36.0,0.11152425000000221,66.0,0.22304850000000442
4153,40.0,0.22304850000000442,72.0,0.47281300000000215
4154,40.0,0.47281300000000215,68.0,0.47281300000000215
4155,38.0,0.47281300000000215,61.0,1.3970245000000006
4156,40.0,0.06628374999999664,61.0,0.06628374999999664
4157,38.0,0.06628374999999664,72.0,0.3284670000000034
4158,37.0,0.3284670000000034,72.0,0.4631770000000017
4159,40.0,0.4631770000000017,68.0,0.47281300000000215
4160,38.0,0.47281300000000215,62.0,0.47713099999999997
4161,40.0,0.06628374999999664,63.0,0.06628374999999664
4162,38.0,0.06628374999999664,73.0,0.11485450000000696
4163,37.0,0.11485450000000696,66.0,0.7025220000000019
4164,45.0,0.22970899999999972,72.0,0.9728130000000021
4165,57.0,0.47281300000000215,58.0,0.75
4166,26.0,0.5,50.0,0.5
4167,62.0,0.25,50.0,0.25
4168,58.0,0.25,50.0,0.5071010000000058
4169,60.0,0.06912437500000124,50.0,0.06912437500000124
4170,58.0,0.06912437500000124,57.0,0.3688522500000033
4171,57.0,0.3688522500000033,53.0,0.4890440000000069
4172,55.0,0.23904400000000692,50.0,0.25
4173,57.0,0.25,55.0,0.5022728333333362
4174,50.0,0.25227283333333617,50.0,1.25
4175,41.0,0.25,31.0,0.5
4176,41.0,0.5,31.0,0.5
4177,52.0,0.5,58.0,0.5
4178,55.0,0.25,50.0,0.25
4179,53.0,0.25,50.0,0.5060407499999968
4180,55.0,0.0700934999999987,50.0,0.0700934999999987
4181,53.0,0.0700934999999987,57.0,0.3658537499999994
4182,52.0,0.3658537499999994,53.0,0.4890440000000069
4183,67.0,0.42253500000001054,81.0,0.10344825000001379
4184,61.0,0.31034475000001294,73.0,0.09523799999999483
4185,59.0,0.09523799999999483,73.0,0.30405375000000845
4186,61.0,0.30405375000000845,73.0,0.09740249999998696
4187,59.0,0.09740249999998696,77.0,0.42704599999999004
4188,66.0,0.42704599999999004,81.0,0.103806249999991
4189,59.0,0.3114187500000014,73.0,0.09554149999999595
4190,57.0,0.09554149999999595,73.0,0.30612224999998716
4191,59.0,0.30612224999998716,73.0,0.09771975000001021
4192,57.0,0.09771975000001021,77.0,0.42402799999999274
4193,64.0,0.42402799999999274,81.0,0.10344825000001379
4194,57.0,0.31034475000001294,73.0,0.09933774999998946
4195,55.0,0.09933774999998946,73.0,0.3157897499999933
4196,57.0,0.3157897499999933,73.0,0.09999999999999432
4197,55.0,0.09999999999999432,77.0,0.46875
4198,54.0,0.46875,69.0,0.2281370000000038
4199,55.0,0.3422055000000057,62.0,0.1315789999999879
4200,59.0,0.1315789999999879,67.0,0.975609999999989
4201,57.0,0.4878050000000087,59.0,0.4878049999999803
4202,71.0,0.4878049999999803,82.0,0.31358929166665916
4203,69.0,0.31358929166665916,77.0,0.09868424999999093
4204,67.0,0.09868424999999093,76.0,0.42857100000000514
4205,49.0,0.42857100000000514,75.0,0.42105300000000057
4206,50.0,0.42105300000000057,76.0,0.20618550000000369
4207,52.0,0.30927825000000553,73.0,0.09933774999998946
4208,54.0,0.09933774999998946,81.0,0.43165500000000634
4209,69.0,0.43165500000000634,77.0,0.42105300000000057
4210,71.0,0.42105300000000057,82.0,0.30927825000000553
4211,69.0,0.30927825000000553,77.0,0.09868424999999093
4212,67.0,0.09868424999999093,76.0,0.4137929999999983
4213,49.0,0.4137929999999983,75.0,0.42253500000001054
4214,50.0,0.42253500000001054,76.0,0.20618550000000369
4215,52.0,0.30927825000000553,73.0,0.09933774999998946
4216,54.0,0.09933774999998946,81.0,0.43321299999999496
4217,57.0,0.43321299999999496,77.0,0.42253500000001054
4218,67.0,0.42253500000001054,81.0,0.10344825000001379
4219,61.0,0.31034475000001294,73.0,0.09523799999999483
4220,59.0,0.09523799999999483,73.0,0.30405375000000845
4221,61.0,0.30405375000000845,73.0,0.09740249999998696
4222,59.0,0.09740249999998696,77.0,0.42704599999999004
4223,66.0,0.42704599999999004,81.0,0.103806249999991
4224,23.0,0.34489166666666904,24.0,0.36371150000000796
4225,11.0,0.36371150000000796,24.0,0.3856749999999991
4226,52.0,0.3856749999999991,59.0,2.0222001666666785
4227,23.0,0.35412108333333947,23.0,0.3347457500000033
4228,40.0,0.3347457500000033,24.0,0.3333333333333357
4229,31.0,0.3333333333333357,24.0,0.3333333333333286
4230,23.0,0.3333333333333286,24.0,0.3333333333333357
4231,16.0,0.3333333333333357,24.0,0.3333333333333357
4232,47.0,0.3333333333333357,51.0,1.0516560000000013
4233,23.0,0.3441749999999999,24.0,0.3441749999999999
4234,39.0,0.3441749999999999,24.0,0.36330600000000146
4235,59.0,0.36330600000000146,59.0,1.0596586666666639
4236,23.0,0.33534533333333627,24.0,0.33534533333332917
4237,16.0,0.33534533333332917,24.0,0.3889679999999984
4238,64.0,0.3889679999999984,60.0,1.0060360000000017
4239,23.0,0.33534533333333627,32.0,0.33534533333332917
4240,40.0,0.33534533333332917,32.0,0.33534533333333627
4241,59.0,0.33534533333333627,59.0,0.9828649166666636
4242,23.0,0.3317703333333313,31.0,0.32720258333333163
4243,16.0,0.32720258333333163,31.0,0.32389200000000073
4244,57.0,0.32389200000000073,58.0,0.3200000000000003
4245,59.0,0.3200000000000003,52.0,0.3200000000000003
4246,57.0,0.3200000000000003,52.0,0.3200000000000003
4247,55.0,0.3200000000000003,56.0,0.7545270000000031
4248,23.0,0.33534533333333627,24.0,0.33534533333332917
4249,16.0,0.33534533333332917,24.0,0.35656358333334026
4250,54.0,0.08383633333333762,54.0,0.27272725000000264
4251,52.0,0.27272725000000264,62.0,1.9772570833333418
4252,23.0,0.33534533333333627,26.0,0.33534533333332917
4253,40.0,0.33534533333332917,27.0,0.33534533333333627
4254,31.0,0.33534533333333627,27.0,0.32922383333333727
4255,23.0,0.32922383333333727,28.0,0.32389200000000073
4256,16.0,0.32389200000000073,29.0,0.3181052500000021
4257,54.0,0.3181052500000021,57.0,1.9252822499999809
4258,23.0,0.32193549999999505,30.0,0.31747033333333263
4259,39.0,0.31747033333333263,30.0,0.31250958333333045
4260,33.0,0.31250958333333045,31.0,0.3162302500000038
4261,23.0,0.3162302500000038,32.0,0.32655791666665834
4262,11.0,0.32655791666665834,32.0,0.3305786666666606
4263,55.0,0.3305786666666606,62.0,0.754526999999996
4264,23.0,0.33534533333333627,34.0,0.33534533333333627
4265,51.0,0.07581499999997732,86.0,0.22744500000001722
4266,39.0,0.07581500000000574,65.0,0.07581500000000574
4267,51.0,0.15163000000001148,81.0,0.48863900000000626
4268,30.0,0.16287966666666875,60.0,0.08143983333332017
4269,18.0,0.16287966666666875,59.0,0.16287966666666875
4270,51.0,0.16287966666666875,85.0,0.9477615000000128
4271,18.0,0.15349199999999996,56.0,0.15349199999999996
4272,25.0,0.15349199999999996,56.0,0.15349199999999996
4273,34.0,0.15349199999999996,56.0,0.15349199999999996
4274,30.0,0.15349199999999996,56.0,0.1624285000000043
4275,49.0,0.07674600000001419,76.0,0.25704749999999876
4276,25.0,0.08568249999999011,55.0,0.17136500000000865
4277,52.0,0.17136500000000865,75.0,0.5290982500000041
4278,30.0,0.17136500000000865,54.0,0.17136499999998023
4279,42.0,0.17136499999998023,53.0,0.18636825000001522
4280,51.0,0.04284125000000927,71.0,0.14352700000000596
4281,47.0,0.14352700000000596,59.0,1.4292572499999778
4282,30.0,0.1632994999999937,47.0,0.1535520833333237
4283,23.0,0.1535520833333237,46.0,0.15490791666667292
4284,30.0,0.15490791666667292,45.0,0.15656941666668445
4285,23.0,0.15656941666668445,44.0,0.15812558333331594
4286,30.0,0.15812558333331594,42.0,0.1597107499999879
4287,23.0,0.1597107499999879,46.0,0.16103066666667587
4288,30.0,0.16103066666667587,40.0,0.16103066666664745
4289,23.0,0.16103066666664745,39.0,0.16103066666667587
4290,48.0,0.16103066666667587,54.0,1.321091666666689
4291,23.0,0.15108733333335067,35.0,0.14939449999999965
4292,31.0,0.14939449999999965,35.0,0.1477390000000014
4293,23.0,0.1477390000000014,35.0,0.14611899999999878
4294,31.0,0.14611899999999878,35.0,0.14598533333332853
4295,48.0,0.07299266666666426,53.0,0.21858000000000288
4296,23.0,0.07299266666666426,35.0,0.14558733333333862
4297,48.0,0.14558733333333862,53.0,0.43517916666667134
4298,23.0,0.14545466666666584,36.0,0.14492766666666057
4299,31.0,0.14492766666666057,36.0,0.14479683333334492
4300,48.0,0.14479683333334492,56.0,1.3385360000000048
4301,30.0,0.14440433333334113,48.0,0.14492766666666057
4302,23.0,0.14492766666666057,37.0,0.14545466666666584
4303,30.0,0.14545466666666584,37.0,0.14585266666665575
4304,23.0,0.14585266666665575,37.0,0.14638633333333928
4305,47.0,0.07312633333333451,55.0,0.21977999999998588
4306,16.0,0.37957866666664586,23.0,0.3795786666666743
4307,45.0,0.3795786666666743,42.0,2.3786634999999876
4308,23.0,0.3795786666666743,24.0,0.3795786666666743
4309,35.0,0.3795786666666743,28.0,0.37957866666664586
4310,51.0,0.37957866666664586,43.0,0.885652499999992
4311,23.0,0.39362333333332344,23.0,0.39362333333335187
4312,16.0,0.39362333333335187,23.0,0.4526808333333179
4313,49.0,0.09840583333331665,40.0,0.35427500000000123
4314,47.0,0.35427500000000123,42.0,5.34420958333331
4315,23.0,0.47619033333333505,22.0,0.41237100000000737
4316,35.0,0.41237100000000737,27.0,0.41237099999997895
4317,28.0,0.41237099999997895,22.0,0.41237100000000737
4318,23.0,0.41237100000000737,22.0,0.41237100000000737
4319,16.0,0.41237100000000737,22.0,0.41146508333332577
4320,23.0,0.41146508333332577,31.0,0.4377471666666679
4321,28.0,0.4377471666666679,26.0,0.43611949999998956
4322,35.0,0.43611949999998956,28.0,0.45476541666664616
4323,28.0,0.45476541666664616,30.0,0.47507699999999886
4324,23.0,0.47507699999999886,32.0,0.49728808333335905
4325,16.0,0.49728808333335905,35.0,0.5060729999999865
4326,49.0,0.5060729999999865,59.0,3.153368333333333
4327,28.0,0.597014999999999,30.0,0.4878050000000087
4328,40.0,0.4878050000000087,31.0,0.5063289999999938
4329,33.0,0.5063289999999938,33.0,0.5063289999999938
4330,28.0,0.5063289999999938,35.0,0.5003346666666744
4331,21.0,0.5003346666666744,36.0,0.5555556666666632
4332,49.0,0.5555556666666632,66.0,4.177931333333333
4333,28.0,0.5882353333333299,37.0,0.526315666666676
4334,40.0,0.526315666666676,37.0,0.5633803333333276
4335,33.0,0.5633803333333276,37.0,0.6666666666666856
4336,28.0,0.6666666666666856,37.0,0.8333333333333144
4337,21.0,0.8333333333333144,37.0,1.0
4338,52.0,1.0,66.0,8.006398958333193
4339,16.0,0.9090909999999894,44.0,0.3448276666666743
4340,23.0,0.6896553333333486,46.0,0.3448276666666743
4341,28.0,0.6896553333332918,48.0,0.33761933333335037
4342,35.0,0.6981259999999452,50.0,0.38853266666666286
4343,40.0,0.8098187916666575,51.0,0.46007420833331025
4344,44.0,0.9668094999999539,58.0,3.2432430000000068
4345,35.0,3.2432430000000068,27.0,14.950558999999998
4346,44.0,3.2432430000000068,33.0,11.707315999999992
